version 1
nodes
  0 "Bip01" -1
  1 "Bip01 Pelvis" 0
  2 "Bip01 Spine" 1
  3 "Bip01 Spine1" 2
  4 "Bip01 Spine2" 3
  5 "Bip01 Spine3" 4
  6 "Bip01 Neck" 5
  7 "Bip01 L Arm" 6
  8 "Bip01 L Arm1" 7
  9 "Bip01 L Arm2" 8
 10 "Bip01 L Hand" 9
 11 "Bip06 L elbow2-smooth" 8
 12 "Bip01 R Arm" 6
 13 "Bip01 R Arm1" 12
 14 "Bip01 R Arm2" 13
 15 "Bip01 R Hand" 14
 16 "Bip06 R elbow2-smooth" 13
 17 "Bip01 Head" 6
 18 "Bip06 Head_helper" 17
 19 "Bip06 Head_eyes_l" 18
 20 "Bip06 Head_eyes_r" 18
 21 "Bip06 Head_blink_l" 18
 22 "Bip06 Head_blink_smooth_l1" 21
 23 "Bip06 Head_blink_r" 18
 24 "Bip06 Head_blink_smooth_r1" 23
 25 "Bip06 Head_L_eyebrow" 18
 26 "Bip06 Head_R_eyebrow" 18
 27 "Bip06 Head_blink_l_lid" 18
 28 "Bip06 Head_blink_r_lid" 18
 29 "Bip06 bunny" 18
 30 "Bip06 bunnyL" 29
 31 "Bip06 bunnyR" 29
 32 "Bip01 L Leg" 1
 33 "Bip01 L Leg1" 32
 34 "Bip01 L Foot" 33
 35 "Bip01 R Leg" 1
 36 "Bip01 R Leg1" 35
 37 "Bip01 R Foot" 36
 38 "Bip03 HairR1" 17
 39 "Bip03 HairR2" 38
 40 "Bip03 HairL1" 17
 41 "Bip03 HairL2" 40
 42 "Bip03 swingR" 17
 43 "Bip03 swingL" 17
end
skeleton
time 0
  0   0.243428 0.429701 1.851990 0.000000 0.000000 -1.571449
  1   -1.093036 0.000002 -0.326057 -1.570757 -1.570379 -0.000026
  2   2.262337 0.113614 0.064702 -0.069344 -0.007166 -0.103504
  3   2.380047 0.353302 0.047440 0.000000 -0.000040 -0.008632
  4   2.033756 0.190472 -0.000128 -0.078225 0.004794 0.060544
  5   2.451511 0.204909 -0.003447 0.000000 -0.000005 -0.017472
  6   7.247600 -0.397300 -0.109469 0.000001 0.000009 0.052298
  7   -2.022252 -0.104661 3.136172 -0.299166 -1.361862 -2.901655
  8   1.168026 -0.537438 -0.063437 0.100471 1.225270 0.272969
  9   6.790376 -0.619176 0.015206 -0.000324 -0.000352 -0.451448
 10   8.637599 0.544015 -0.090417 -1.570112 0.000362 -0.069282
 11   6.790465 -0.619039 0.017802 -0.001860 -0.011168 -0.331198
 12   -2.022474 -0.104699 -2.873818 0.298873 1.361771 -2.901984
 13   1.167898 -0.537463 0.063297 -0.133208 -1.247179 -0.012743
 14   7.002743 -0.617765 -0.183752 0.000229 0.000250 -1.472970
 15   8.209042 0.615527 -0.255885 1.682906 -0.000063 -0.069646
 16   7.002735 -0.617911 -0.183641 0.013733 0.008101 -1.049647
 17   1.574674 0.609930 -0.000899 0.163537 -0.016701 0.095019
 18   -0.602177 0.511412 -0.000006 0.000000 0.000000 0.000000
 19   3.646428 0.364526 1.119313 -0.000002 -0.000014 -0.174510
 20   3.646422 0.364499 -1.117566 0.000007 -0.000003 -0.174546
 21   3.805634 1.330634 1.627658 0.000002 -0.000011 -0.000026
 22   -0.246060 -0.011889 0.516521 -0.000011 0.000031 0.000025
 23   3.805651 1.330659 -1.631083 0.000019 0.000002 -0.000024
 24   -0.246150 -0.011872 -0.516511 -0.000005 -0.000006 0.000048
 25   4.941364 1.997338 1.629330 0.000018 -0.000001 -0.000024
 26   4.941382 1.997366 -1.629410 -0.000001 0.000005 -0.000024
 27   2.930087 1.603639 1.514501 -0.000019 -0.000022 -0.000050
 28   2.932517 1.603245 -1.501142 -0.000002 -0.000009 -0.000024
 29   8.824059 0.150544 0.091743 0.000006 -0.000231 -0.174534
 30   2.111085 -0.561179 1.784320 -0.000008 -0.000682 0.000024
 31   2.121290 -0.561289 -1.853599 0.000000 0.000000 -0.000002
 32   -0.810489 -0.093824 3.127092 -0.015774 -3.142183 -0.273682
 33   14.298673 -0.408176 0.475484 -0.000100 -0.000042 -0.265537
 34   15.835795 0.581398 0.242756 -0.141974 0.005906 -0.006973
 35   -0.815868 -0.091229 -3.114430 -0.027624 3.136847 0.139508
 36   14.294526 -0.410349 -0.463635 0.000105 0.000060 -0.002329
 37   15.834409 0.579420 -0.284600 0.263180 -0.000368 0.141345
 38   1.139685 -3.453749 -2.823813 0.000000 0.000000 0.000001
 39   -4.457742 -1.054854 -0.746180 0.000000 0.000000 0.000000
 40   1.118101 -3.449769 3.237290 0.000000 0.000001 0.000000
 41   -4.433840 -1.059130 0.959566 -0.000001 0.000000 0.000000
 42   -0.657468 1.697302 -2.688614 0.000000 0.000002 0.000000
 43   -0.664068 1.698578 2.869377 0.000000 0.000002 0.000000
time 1
  0   0.243428 0.421888 1.840271 0.000000 0.000000 -1.571449
  1   -1.093036 0.000002 -0.326057 -1.570757 -1.570379 -0.000171
  2   2.262337 0.113614 0.064702 -0.069344 -0.007166 -0.103504
  3   2.380047 0.353302 0.047440 0.000000 -0.000040 -0.008632
  4   2.033756 0.190472 -0.000128 -0.078225 0.004614 0.058731
  5   2.451511 0.204909 -0.003447 0.000000 -0.000005 -0.017472
  6   7.247600 -0.397300 -0.109469 0.000001 0.000009 0.052298
  7   -2.022252 -0.104661 3.136172 -0.316708 -1.360709 -2.884562
  8   1.168026 -0.537438 -0.063437 0.109520 1.221597 0.273918
  9   6.790376 -0.619176 0.015206 -0.000324 -0.000352 -0.451448
 10   8.637599 0.544015 -0.090417 -1.570112 0.000362 -0.069282
 11   6.790465 -0.619039 0.017802 -0.001860 -0.011168 -0.331198
 12   -2.022474 -0.104699 -2.873818 0.298873 1.361771 -2.901984
 13   1.167898 -0.537463 0.063297 -0.138129 -1.245450 -0.007779
 14   7.002743 -0.617765 -0.183752 0.000229 0.000250 -1.472970
 15   8.209042 0.615527 -0.255885 1.682906 -0.000063 -0.069646
 16   7.002735 -0.617911 -0.183641 0.013733 0.008101 -1.049647
 17   1.574674 0.609930 -0.000899 0.163537 -0.016701 0.096682
 18   -0.602177 0.511412 -0.000006 0.000000 0.000000 0.000000
 19   3.646428 0.364526 1.119313 -0.000002 -0.000014 -0.174510
 20   3.646422 0.364499 -1.117566 0.000007 -0.000003 -0.174546
 21   3.805634 1.330634 1.627658 0.000002 -0.000011 -0.000026
 22   -0.246060 -0.011889 0.516521 -0.000011 0.000031 0.000025
 23   3.805651 1.330659 -1.631083 0.000019 0.000002 -0.000024
 24   -0.246150 -0.011872 -0.516511 -0.000005 -0.000006 0.000048
 25   4.941364 1.997338 1.629330 0.000018 -0.000001 -0.000024
 26   4.941382 1.997366 -1.629410 -0.000001 0.000005 -0.000024
 27   2.930087 1.603639 1.514501 -0.000019 -0.000022 -0.000050
 28   2.932517 1.603245 -1.501142 -0.000002 -0.000009 -0.000024
 29   8.824059 0.150544 0.091743 0.000006 -0.000231 -0.174534
 30   2.111085 -0.561179 1.784320 -0.000008 -0.000682 0.000024
 31   2.121290 -0.561289 -1.853599 0.000000 0.000000 -0.000002
 32   -0.810489 -0.093824 3.127092 -0.015774 -3.142183 -0.274877
 33   14.298673 -0.408176 0.475484 -0.000100 -0.000042 -0.268316
 34   15.835795 0.581398 0.242756 -0.141974 0.005857 -0.005474
 35   -0.815868 -0.091229 -3.114430 -0.027800 3.137503 0.123897
 36   14.294526 -0.410349 -0.463635 0.000105 0.000060 -0.034308
 37   15.834409 0.579420 -0.284600 0.263180 -0.000368 0.157469
 38   1.139685 -3.453749 -2.823813 0.000000 0.000000 -0.000610
 39   -4.457742 -1.054854 -0.746180 0.000000 -0.000024 -0.001514
 40   1.118101 -3.449769 3.237290 0.000000 0.000001 -0.000611
 41   -4.433840 -1.059130 0.959566 -0.000001 -0.000024 -0.001514
 42   -0.657468 1.697302 -2.688614 0.000108 0.001505 0.000000
 43   -0.664068 1.698578 2.869377 -0.000150 -0.001850 0.000042
time 2
  0   0.243428 0.410169 1.832458 0.000000 0.000000 -1.571449
  1   -1.093036 0.000002 -0.326057 -1.570757 -1.570379 -0.000026
  2   2.262337 0.113614 0.064702 -0.069344 -0.007166 -0.103504
  3   2.380047 0.353302 0.047440 0.000000 -0.000040 -0.008632
  4   2.033756 0.190472 -0.000128 -0.078262 0.004255 0.054817
  5   2.451511 0.204909 -0.003447 0.000000 -0.000005 -0.017472
  6   7.247600 -0.397300 -0.109469 0.000001 0.000009 0.052298
  7   -2.022252 -0.104661 3.136172 -0.355147 -1.357999 -2.846809
  8   1.168026 -0.537438 -0.063437 0.128441 1.214050 0.275626
  9   6.790376 -0.619176 0.015206 -0.000324 -0.000352 -0.451448
 10   8.637599 0.544015 -0.090417 -1.570112 0.000362 -0.069282
 11   6.790465 -0.619039 0.017802 -0.001860 -0.011168 -0.331198
 12   -2.022474 -0.104699 -2.873818 0.298873 1.361771 -2.901792
 13   1.167898 -0.537463 0.063297 -0.149024 -1.242246 0.002875
 14   7.002743 -0.617765 -0.183752 0.000229 0.000250 -1.472970
 15   8.209042 0.615527 -0.255885 1.682906 -0.000063 -0.069646
 16   7.002735 -0.617911 -0.183641 0.013733 0.008101 -1.049647
 17   1.574674 0.609930 -0.000899 0.163537 -0.016701 0.100674
 18   -0.602177 0.511412 -0.000006 0.000000 0.000000 0.000000
 19   3.646428 0.364526 1.119313 -0.000002 -0.000014 -0.174510
 20   3.646422 0.364499 -1.117566 0.000007 -0.000003 -0.174546
 21   3.805634 1.330634 1.627658 0.000002 -0.000011 -0.000026
 22   -0.246060 -0.011889 0.516521 -0.000011 0.000031 0.000025
 23   3.805651 1.330659 -1.631083 0.000019 0.000002 -0.000024
 24   -0.246150 -0.011872 -0.516511 -0.000005 -0.000006 0.000048
 25   4.941364 1.997338 1.629330 0.000018 -0.000001 -0.000024
 26   4.941382 1.997366 -1.629410 -0.000001 0.000005 -0.000024
 27   2.930087 1.603639 1.514501 -0.000019 -0.000022 -0.000050
 28   2.932517 1.603245 -1.501142 -0.000002 -0.000009 -0.000024
 29   8.824059 0.150544 0.091743 0.000006 -0.000231 -0.174534
 30   2.111085 -0.561179 1.784320 -0.000008 -0.000682 0.000024
 31   2.121290 -0.561289 -1.853599 0.000000 0.000000 -0.000002
 32   -0.810489 -0.093824 3.127092 -0.015774 -3.142183 -0.276756
 33   14.298673 -0.408176 0.475484 -0.000100 -0.000042 -0.272524
 34   15.835795 0.581398 0.242756 -0.141974 0.005784 -0.002960
 35   -0.815868 -0.091229 -3.114430 -0.027800 3.137503 0.116228
 36   14.294526 -0.410349 -0.463635 0.000105 0.000060 -0.051147
 37   15.834409 0.579420 -0.284600 0.263180 -0.000368 0.166139
 38   1.139685 -3.453749 -2.823813 0.000000 -0.000024 -0.002504
 39   -4.457742 -1.054854 -0.746180 0.000024 -0.000084 -0.005805
 40   1.118101 -3.449769 3.237290 0.000000 -0.000023 -0.002505
 41   -4.433840 -1.059130 0.959566 0.000023 -0.000084 -0.005805
 42   -0.657468 1.697302 -2.680801 0.000431 0.005721 -0.000042
 43   -0.664068 1.698578 2.861564 -0.000575 -0.007138 0.000084
time 3
  0   0.243428 0.398450 1.816833 0.000000 0.000000 -1.571449
  1   -1.093036 0.000002 -0.326057 -1.570757 -1.570379 -0.000026
  2   2.262337 0.113614 0.064702 -0.069344 -0.007166 -0.103504
  3   2.380047 0.353302 0.047440 0.000000 -0.000040 -0.008632
  4   2.033756 0.190472 -0.000128 -0.078262 0.004111 0.051591
  5   2.451511 0.204909 -0.003447 0.000000 -0.000005 -0.017472
  6   7.247600 -0.397300 -0.109469 0.000001 0.000009 0.052298
  7   -2.022252 -0.104661 3.136172 -0.386109 -1.355492 -2.816851
  8   1.168026 -0.537438 -0.063437 0.143565 1.207811 0.276322
  9   6.790376 -0.619176 0.015206 -0.000324 -0.000352 -0.451448
 10   8.637599 0.544015 -0.090417 -1.570112 0.000362 -0.069282
 11   6.790465 -0.619039 0.017802 -0.001860 -0.011168 -0.331198
 12   -2.022474 -0.104699 -2.873818 0.298873 1.361800 -2.901984
 13   1.167898 -0.537463 0.063297 -0.157249 -1.239094 0.011229
 14   7.002743 -0.617765 -0.183752 0.000229 0.000250 -1.472970
 15   8.209042 0.615527 -0.255885 1.682906 -0.000063 -0.069646
 16   7.002735 -0.617911 -0.183641 0.013733 0.008101 -1.049647
 17   1.574674 0.609930 -0.000899 0.163537 -0.016701 0.103926
 18   -0.602177 0.511412 -0.000006 0.000000 0.000000 0.000000
 19   3.646428 0.364526 1.119313 -0.000002 -0.000014 -0.174510
 20   3.646422 0.364499 -1.117566 0.000007 -0.000003 -0.174546
 21   3.805634 1.330634 1.627658 0.000002 -0.000011 -0.000026
 22   -0.246060 -0.011889 0.516521 -0.000011 0.000031 0.000025
 23   3.805651 1.330659 -1.631083 0.000019 0.000002 -0.000024
 24   -0.246150 -0.011872 -0.516511 -0.000005 -0.000006 0.000048
 25   4.941364 1.997338 1.629330 0.000018 -0.000001 -0.000024
 26   4.941382 1.997366 -1.629410 -0.000001 0.000005 -0.000024
 27   2.930087 1.603639 1.514501 -0.000019 -0.000022 -0.000050
 28   2.932517 1.603245 -1.501142 -0.000002 -0.000009 -0.000024
 29   8.824059 0.150544 0.091743 0.000006 -0.000231 -0.174534
 30   2.111085 -0.561179 1.784320 -0.000008 -0.000682 0.000024
 31   2.121290 -0.561289 -1.853599 0.000000 0.000000 -0.000002
 32   -0.810489 -0.093824 3.127092 -0.015774 -3.142183 -0.278520
 33   14.298673 -0.408176 0.475484 -0.000100 -0.000042 -0.276891
 34   15.835795 0.581398 0.242756 -0.141974 0.005735 -0.000711
 35   -0.815868 -0.091229 -3.114430 -0.027800 3.137596 0.109436
 36   14.294526 -0.410349 -0.463635 0.000105 0.000060 -0.065360
 37   15.834409 0.579420 -0.284600 0.263180 -0.000368 0.173440
 38   1.139685 -3.453749 -2.823813 0.000000 -0.000072 -0.005375
 39   -4.457742 -1.054854 -0.746180 0.000048 -0.000204 -0.012424
 40   1.118101 -3.449769 3.237290 0.000000 -0.000071 -0.005376
 41   -4.433840 -1.059130 0.959566 0.000047 -0.000204 -0.012424
 42   -0.657468 1.697302 -2.661269 0.000959 0.012268 -0.000084
 43   -0.664068 1.698578 2.849845 -0.001212 -0.015266 0.000335
time 4
  0   0.243428 0.390637 1.812926 0.000000 0.000000 -1.571449
  1   -1.093036 0.000002 -0.326057 -1.570757 -1.570379 -0.000026
  2   2.262337 0.113614 0.064702 -0.069344 -0.007166 -0.103504
  3   2.380047 0.353302 0.047440 0.000000 -0.000040 -0.008632
  4   2.033756 0.190472 -0.000128 -0.078299 0.003679 0.048147
  5   2.451511 0.204909 -0.003447 0.000000 -0.000005 -0.017472
  6   7.247600 -0.397300 -0.109469 0.000001 0.000009 0.052298
  7   -2.022252 -0.104661 3.136172 -0.419564 -1.352580 -2.783981
  8   1.168026 -0.537438 -0.063437 0.159701 1.200767 0.276575
  9   6.790376 -0.619176 0.015206 -0.000324 -0.000352 -0.451448
 10   8.637599 0.544015 -0.090417 -1.570112 0.000362 -0.069282
 11   6.790465 -0.619039 0.017802 -0.001860 -0.011168 -0.331198
 12   -2.022474 -0.104699 -2.873818 0.298873 1.361771 -2.901984
 13   1.167898 -0.537463 0.063297 -0.166457 -1.236500 0.020551
 14   7.002743 -0.617765 -0.183752 0.000229 0.000250 -1.472970
 15   8.209042 0.615527 -0.255885 1.682906 -0.000063 -0.069646
 16   7.002735 -0.617911 -0.183641 0.013733 0.008101 -1.049647
 17   1.574674 0.609930 -0.000899 0.163537 -0.016701 0.107512
 18   -0.602177 0.511412 -0.000006 0.000000 0.000000 0.000000
 19   3.646428 0.364526 1.119313 -0.000002 -0.000014 -0.174510
 20   3.646422 0.364499 -1.117566 0.000007 -0.000003 -0.174546
 21   3.805634 1.330634 1.627658 0.000002 -0.000011 -0.000026
 22   -0.246060 -0.011889 0.516521 -0.000011 0.000031 0.000025
 23   3.805651 1.330659 -1.631083 0.000019 0.000002 -0.000024
 24   -0.246150 -0.011872 -0.516511 -0.000005 -0.000006 0.000048
 25   4.941364 1.997338 1.629330 0.000018 -0.000001 -0.000024
 26   4.941382 1.997366 -1.629410 -0.000001 0.000005 -0.000024
 27   2.930087 1.603639 1.514501 -0.000019 -0.000022 -0.000050
 28   2.932517 1.603245 -1.501142 -0.000002 -0.000009 -0.000024
 29   8.824059 0.150544 0.091743 0.000006 -0.000231 -0.174534
 30   2.111085 -0.561179 1.784320 -0.000008 -0.000682 0.000024
 31   2.121290 -0.561289 -1.853599 0.000000 0.000000 -0.000002
 32   -0.810489 -0.093824 3.127092 -0.015774 -3.141992 -0.280683
 33   14.298673 -0.408176 0.475484 -0.000100 -0.000042 -0.281893
 34   15.835795 0.581398 0.242756 -0.141974 0.005735 0.002112
 35   -0.815868 -0.091229 -3.114430 -0.027800 3.138159 0.103192
 36   14.294526 -0.410349 -0.463635 0.000105 0.000060 -0.078646
 37   15.834409 0.579420 -0.284600 0.263180 -0.000420 0.180741
 38   1.139685 -3.453749 -2.823813 0.000000 -0.000145 -0.009163
 39   -4.457742 -1.054854 -0.746180 0.000084 -0.000336 -0.020950
 40   1.118101 -3.449769 3.237290 0.000000 -0.000144 -0.009164
 41   -4.433840 -1.059130 0.959566 0.000095 -0.000336 -0.020950
 42   -0.657468 1.697302 -2.637831 0.001618 0.020701 -0.000167
 43   -0.664068 1.698578 2.830313 -0.002062 -0.025763 0.000544
time 5
  0   0.243428 0.390637 1.801207 0.000000 0.000000 -1.571449
  1   -1.093036 0.000002 -0.326057 -1.570757 -1.570379 -0.000026
  2   2.262337 0.113614 0.064702 -0.069344 -0.007166 -0.103504
  3   2.380047 0.353302 0.047440 0.000000 -0.000040 -0.008632
  4   2.033756 0.190472 -0.000128 -0.078299 0.003464 0.044414
  5   2.451511 0.204909 -0.003447 0.000000 -0.000005 -0.017472
  6   7.247600 -0.397300 -0.109469 0.000001 0.000009 0.052298
  7   -2.022252 -0.104661 3.136172 -0.454264 -1.349063 -2.750266
  8   1.168026 -0.537438 -0.063437 0.176850 1.193119 0.277081
  9   6.790376 -0.619176 0.015206 -0.000324 -0.000352 -0.451448
 10   8.637599 0.544015 -0.090417 -1.570112 0.000362 -0.069282
 11   6.790465 -0.619039 0.017802 -0.001860 -0.011168 -0.331198
 12   -2.022474 -0.104699 -2.873818 0.298873 1.361800 -2.901984
 13   1.167898 -0.537463 0.063297 -0.176087 -1.233093 0.030116
 14   7.002743 -0.617765 -0.183752 0.000229 0.000250 -1.472970
 15   8.209042 0.615527 -0.255885 1.682906 -0.000063 -0.069646
 16   7.002735 -0.617911 -0.183641 0.013733 0.008101 -1.049647
 17   1.574674 0.609930 -0.000899 0.163537 -0.016701 0.111171
 18   -0.602177 0.511412 -0.000006 0.000000 0.000000 0.000000
 19   3.646428 0.364526 1.119313 -0.000002 -0.000014 -0.174510
 20   3.646422 0.364499 -1.117566 0.000007 -0.000003 -0.174546
 21   3.805634 1.330634 1.627658 0.000002 -0.000011 -0.000026
 22   -0.246060 -0.011889 0.516521 -0.000011 0.000031 0.000025
 23   3.805651 1.330659 -1.631083 0.000019 0.000002 -0.000024
 24   -0.246150 -0.011872 -0.516511 -0.000005 -0.000006 0.000048
 25   4.941364 1.997338 1.629330 0.000018 -0.000001 -0.000024
 26   4.941382 1.997366 -1.629410 -0.000001 0.000005 -0.000024
 27   2.930087 1.603639 1.514501 -0.000019 -0.000022 -0.000050
 28   2.932517 1.603245 -1.501142 -0.000002 -0.000009 -0.000024
 29   8.824059 0.150544 0.091743 0.000006 -0.000231 -0.174534
 30   2.111085 -0.561179 1.784320 -0.000008 -0.000682 0.000024
 31   2.121290 -0.561289 -1.853599 0.000000 0.000000 -0.000002
 32   -0.810489 -0.093824 3.127092 -0.015774 -3.141992 -0.283359
 33   14.298673 -0.408176 0.475484 -0.000100 -0.000042 -0.287054
 34   15.835795 0.581398 0.242756 -0.141928 0.005711 0.005067
 35   -0.815868 -0.091229 -3.114430 -0.027800 3.138159 0.097166
 36   14.294526 -0.410349 -0.463635 0.000105 0.000060 -0.091391
 37   15.834409 0.579420 -0.284600 0.263180 -0.000496 0.187383
 38   1.139685 -3.453749 -2.823813 0.000021 -0.000217 -0.013562
 39   -4.457742 -1.054854 -0.746180 0.000132 -0.000491 -0.030991
 40   1.118101 -3.449769 3.237290 0.000021 -0.000216 -0.013563
 41   -4.433840 -1.059130 0.959566 0.000131 -0.000491 -0.030991
 42   -0.649655 1.697302 -2.618299 0.002397 0.030590 -0.000335
 43   -0.664068 1.698578 2.810781 -0.003074 -0.038097 0.000795
time 6
  0   0.243428 0.378918 1.781675 0.000000 0.000000 -1.571449
  1   -1.093036 0.000002 -0.326057 -1.570757 -1.570379 0.000264
  2   2.262337 0.113614 0.064702 -0.069344 -0.007166 -0.103504
  3   2.380047 0.353302 0.047440 0.000000 -0.000040 -0.008632
  4   2.033756 0.190472 -0.000128 -0.078299 0.003224 0.040572
  5   2.451511 0.204909 -0.003447 0.000000 -0.000005 -0.017472
  6   7.247600 -0.397300 -0.109469 0.000001 0.000009 0.052298
  7   -2.022252 -0.104661 3.136172 -0.488582 -1.345258 -2.716551
  8   1.168026 -0.537438 -0.063437 0.193999 1.185572 0.276575
  9   6.790376 -0.619176 0.015206 -0.000324 -0.000352 -0.451448
 10   8.637599 0.544015 -0.090417 -1.570112 0.000362 -0.069282
 11   6.790465 -0.619039 0.017802 -0.001860 -0.011168 -0.331198
 12   -2.022474 -0.104699 -2.873818 0.298873 1.361771 -2.901984
 13   1.167898 -0.537463 0.063297 -0.185929 -1.229533 0.040044
 14   7.002743 -0.617765 -0.183752 0.000229 0.000250 -1.472970
 15   8.209042 0.615527 -0.255885 1.682906 -0.000063 -0.069646
 16   7.002735 -0.617911 -0.183641 0.013733 0.008101 -1.049647
 17   1.574674 0.609930 -0.000899 0.163537 -0.016701 0.115089
 18   -0.602177 0.511412 -0.000006 0.000000 0.000000 0.000000
 19   3.646428 0.364526 1.119313 -0.000002 -0.000014 -0.174510
 20   3.646422 0.364499 -1.117566 0.000007 -0.000003 -0.174546
 21   3.805634 1.330634 1.627658 0.000002 -0.000011 -0.000026
 22   -0.246060 -0.011889 0.516521 -0.000011 0.000031 0.000025
 23   3.805651 1.330659 -1.631083 0.000019 0.000002 -0.000024
 24   -0.246150 -0.011872 -0.516511 -0.000005 -0.000006 0.000048
 25   4.941364 1.997338 1.629330 0.000018 -0.000001 -0.000024
 26   4.941382 1.997366 -1.629410 -0.000001 0.000005 -0.000024
 27   2.930087 1.603639 1.514501 -0.000019 -0.000022 -0.000050
 28   2.932517 1.603245 -1.501142 -0.000002 -0.000009 -0.000024
 29   8.824059 0.150544 0.091743 0.000006 -0.000231 -0.174534
 30   2.111085 -0.561179 1.784320 -0.000008 -0.000682 0.000024
 31   2.121290 -0.561289 -1.853599 0.000000 0.000000 -0.000002
 32   -0.810489 -0.093824 3.127092 -0.015774 -3.141897 -0.285351
 33   14.298673 -0.408176 0.475484 -0.000100 -0.000042 -0.292850
 34   15.835795 0.581398 0.242756 -0.141928 0.005613 0.008066
 35   -0.815868 -0.091229 -3.114430 -0.027800 3.138440 0.091689
 36   14.294526 -0.410349 -0.463635 0.000105 0.000060 -0.103673
 37   15.834409 0.579420 -0.284600 0.263120 -0.000548 0.193873
 38   1.139685 -3.453749 -2.823813 0.000042 -0.000289 -0.018572
 39   -4.457742 -1.054854 -0.746180 0.000192 -0.000671 -0.042069
 40   1.118101 -3.449769 3.237290 0.000042 -0.000288 -0.018573
 41   -4.433840 -1.059130 0.959566 0.000191 -0.000671 -0.042069
 42   -0.649655 1.697302 -2.587048 0.003248 0.041553 -0.000418
 43   -0.664068 1.698578 2.795156 -0.004161 -0.051733 0.001087
time 7
  0   0.243428 0.367199 1.769956 0.000000 0.000000 -1.571449
  1   -1.093036 0.000002 -0.326057 -1.570757 -1.570379 -0.000026
  2   2.262337 0.113614 0.064702 -0.069344 -0.007166 -0.103504
  3   2.380047 0.353302 0.047440 0.000000 -0.000040 -0.008632
  4   2.033756 0.190472 -0.000128 -0.078336 0.002793 0.036621
  5   2.451511 0.204909 -0.003447 0.000000 -0.000005 -0.017472
  6   7.247600 -0.397300 -0.109469 0.000001 0.000009 0.052298
  7   -2.022252 -0.104661 3.136172 -0.522611 -1.341136 -2.683869
  8   1.168026 -0.537438 -0.063437 0.210705 1.177723 0.275626
  9   6.790376 -0.619176 0.015206 -0.000324 -0.000352 -0.451448
 10   8.637599 0.544015 -0.090417 -1.570112 0.000362 -0.069282
 11   6.790465 -0.619039 0.017802 -0.001860 -0.011168 -0.331198
 12   -2.022474 -0.104699 -2.873818 0.298873 1.361771 -2.901984
 13   1.167898 -0.537463 0.063297 -0.195418 -1.226024 0.049790
 14   7.002743 -0.617765 -0.183752 0.000229 0.000250 -1.472970
 15   8.209042 0.615527 -0.255885 1.682906 -0.000063 -0.069646
 16   7.002735 -0.617911 -0.183641 0.013733 0.008101 -1.049647
 17   1.574674 0.609930 -0.000899 0.163537 -0.016701 0.119007
 18   -0.602177 0.511412 -0.000006 0.000000 0.000000 0.000000
 19   3.646428 0.364526 1.119313 -0.000002 -0.000014 -0.174510
 20   3.646422 0.364499 -1.117566 0.000007 -0.000003 -0.174546
 21   3.805634 1.330634 1.627658 0.000002 -0.000011 -0.000026
 22   -0.246060 -0.011889 0.516521 -0.000011 0.000031 0.000025
 23   3.805651 1.330659 -1.631083 0.000019 0.000002 -0.000024
 24   -0.246150 -0.011872 -0.516511 -0.000005 -0.000006 0.000048
 25   4.941364 1.997338 1.629330 0.000018 -0.000001 -0.000024
 26   4.941382 1.997366 -1.629410 -0.000001 0.000005 -0.000024
 27   2.930087 1.603639 1.514501 -0.000019 -0.000022 -0.000050
 28   2.932517 1.603245 -1.501142 -0.000002 -0.000009 -0.000024
 29   8.824059 0.150544 0.091743 0.000006 -0.000231 -0.174534
 30   2.111085 -0.561179 1.784320 -0.000008 -0.000682 0.000024
 31   2.121290 -0.561289 -1.853599 0.000000 0.000000 -0.000002
 32   -0.810489 -0.093824 3.127092 -0.015774 -3.141610 -0.287912
 33   14.298673 -0.408176 0.475484 -0.000100 -0.000042 -0.298090
 34   15.835795 0.581398 0.242756 -0.141928 0.005540 0.011153
 35   -0.815868 -0.091229 -3.114430 -0.027800 3.138814 0.086430
 36   14.294526 -0.410349 -0.463635 0.000105 0.000060 -0.114951
 37   15.834409 0.579420 -0.284600 0.263042 -0.000573 0.199957
 38   1.139685 -3.453749 -2.823813 0.000063 -0.000386 -0.023704
 39   -4.457742 -1.054854 -0.746180 0.000240 -0.000875 -0.053792
 40   1.118101 -3.449769 3.237290 0.000063 -0.000385 -0.023705
 41   -4.433840 -1.059130 0.959566 0.000239 -0.000875 -0.053792
 42   -0.649655 1.697302 -2.563610 0.004159 0.053113 -0.000585
 43   -0.664068 1.698578 2.767811 -0.005335 -0.066137 0.001464
time 8
  0   0.243428 0.355480 1.769956 0.000000 0.000000 -1.571449
  1   -1.093036 0.000002 -0.326057 -1.570757 -1.570379 -0.000026
  2   2.262337 0.113614 0.064702 -0.069344 -0.007166 -0.103504
  3   2.380047 0.353302 0.047440 0.000000 -0.000040 -0.008632
  4   2.033756 0.190472 -0.000128 -0.078336 0.002625 0.032742
  5   2.451511 0.204909 -0.003447 0.000000 -0.000005 -0.017472
  6   7.247600 -0.397300 -0.109469 0.000001 0.000009 0.052298
  7   -2.022252 -0.104661 3.136172 -0.554244 -1.336927 -2.652784
  8   1.168026 -0.537438 -0.063437 0.226715 1.170176 0.274424
  9   6.790376 -0.619176 0.015206 -0.000324 -0.000352 -0.451448
 10   8.637599 0.544015 -0.090417 -1.570112 0.000362 -0.069282
 11   6.790465 -0.619039 0.017802 -0.001860 -0.011168 -0.331198
 12   -2.022474 -0.104699 -2.873818 0.298873 1.361800 -2.901984
 13   1.167898 -0.537463 0.063297 -0.204627 -1.222719 0.059052
 14   7.002743 -0.617765 -0.183752 0.000229 0.000250 -1.472970
 15   8.209042 0.615527 -0.255885 1.682906 -0.000063 -0.069646
 16   7.002735 -0.617911 -0.183641 0.013733 0.008101 -1.049647
 17   1.574674 0.609930 -0.000899 0.163537 -0.016701 0.122961
 18   -0.602177 0.511412 -0.000006 0.000000 0.000000 0.000000
 19   3.646428 0.364526 1.119313 -0.000002 -0.000014 -0.174510
 20   3.646422 0.364499 -1.117566 0.000007 -0.000003 -0.174546
 21   3.805634 1.330634 1.627658 0.000002 -0.000011 -0.000026
 22   -0.246060 -0.011889 0.516521 -0.000011 0.000031 0.000025
 23   3.805651 1.330659 -1.631083 0.000019 0.000002 -0.000024
 24   -0.246150 -0.011872 -0.516511 -0.000005 -0.000006 0.000048
 25   4.941364 1.997338 1.629330 0.000018 -0.000001 -0.000024
 26   4.941382 1.997366 -1.629410 -0.000001 0.000005 -0.000024
 27   2.930087 1.603639 1.514501 -0.000019 -0.000022 -0.000050
 28   2.932517 1.603245 -1.501142 -0.000002 -0.000009 -0.000024
 29   8.824059 0.150544 0.091743 0.000006 -0.000231 -0.174534
 30   2.111085 -0.561179 1.784320 -0.000008 -0.000682 0.000024
 31   2.121290 -0.561289 -1.853599 0.000000 0.000000 -0.000002
 32   -0.810489 -0.093824 3.127092 -0.015774 -3.141610 -0.290417
 33   14.298673 -0.408176 0.475484 -0.000100 -0.000042 -0.303648
 34   15.835795 0.581398 0.242756 -0.141928 0.005491 0.014284
 35   -0.815868 -0.091229 -3.114430 -0.027800 3.139002 0.081719
 36   14.294526 -0.410349 -0.463635 0.000105 0.000060 -0.124684
 37   15.834409 0.579420 -0.284600 0.263042 -0.000573 0.205788
 38   1.139685 -3.453749 -2.823813 0.000084 -0.000470 -0.028958
 39   -4.457742 -1.054854 -0.746180 0.000300 -0.001067 -0.065739
 40   1.118101 -3.449769 3.237290 0.000084 -0.000469 -0.028959
 41   -4.433840 -1.059130 0.959566 0.000299 -0.001067 -0.065739
 42   -0.645749 1.697302 -2.532359 0.005069 0.064904 -0.000753
 43   -0.664068 1.698578 2.744373 -0.006522 -0.080825 0.001756
time 9
  0   0.243428 0.355480 1.738705 0.000000 0.000000 -1.571449
  1   -1.093036 0.000002 -0.326057 -1.570757 -1.570379 -0.000026
  2   2.262337 0.113614 0.064702 -0.069344 -0.007166 -0.103504
  3   2.380047 0.353302 0.047440 0.000000 -0.000040 -0.008632
  4   2.033756 0.190472 -0.000128 -0.078336 0.002289 0.028936
  5   2.451511 0.204909 -0.003447 0.000000 -0.000005 -0.017472
  6   7.247600 -0.397300 -0.109469 0.000001 0.000009 0.052298
  7   -2.022252 -0.104661 3.136172 -0.583673 -1.332603 -2.624234
  8   1.168026 -0.537438 -0.063437 0.241586 1.163182 0.272969
  9   6.790376 -0.619176 0.015206 -0.000324 -0.000352 -0.451448
 10   8.637599 0.544015 -0.090417 -1.570112 0.000362 -0.069282
 11   6.790465 -0.619039 0.017802 -0.001860 -0.011168 -0.331198
 12   -2.022474 -0.104699 -2.873818 0.298873 1.361771 -2.901984
 13   1.167898 -0.537463 0.063297 -0.213343 -1.219312 0.067648
 14   7.002743 -0.617765 -0.183752 0.000229 0.000250 -1.472970
 15   8.209042 0.615527 -0.255885 1.682906 -0.000063 -0.069646
 16   7.002735 -0.617911 -0.183641 0.013733 0.008101 -1.049647
 17   1.574674 0.609930 -0.000899 0.163537 -0.016701 0.126399
 18   -0.602177 0.511412 -0.000006 0.000000 0.000000 0.000000
 19   3.646428 0.364526 1.119313 -0.000002 -0.000014 -0.174510
 20   3.646422 0.364499 -1.117566 0.000007 -0.000003 -0.174546
 21   3.805634 1.330634 1.627658 0.000002 -0.000011 -0.000026
 22   -0.246060 -0.011889 0.516521 -0.000011 0.000031 0.000025
 23   3.805651 1.330659 -1.631083 0.000019 0.000002 -0.000024
 24   -0.246150 -0.011872 -0.516511 -0.000005 -0.000006 0.000048
 25   4.941364 1.997338 1.629330 0.000018 -0.000001 -0.000024
 26   4.941382 1.997366 -1.629410 -0.000001 0.000005 -0.000024
 27   2.930087 1.603639 1.514501 -0.000019 -0.000022 -0.000050
 28   2.932517 1.603245 -1.501142 -0.000002 -0.000009 -0.000024
 29   8.824059 0.150544 0.091743 0.000006 -0.000231 -0.174534
 30   2.111085 -0.561179 1.784320 -0.000008 -0.000682 0.000024
 31   2.121290 -0.561289 -1.853599 0.000000 0.000000 -0.000002
 32   -0.810489 -0.093824 3.127092 -0.015774 -3.141515 -0.292808
 33   14.298673 -0.408176 0.475484 -0.000100 -0.000042 -0.308968
 34   15.835795 0.581398 0.242756 -0.141882 0.005491 0.017151
 35   -0.815868 -0.091229 -3.114430 -0.027800 3.139002 0.077228
 36   14.294526 -0.410349 -0.463635 0.000105 0.000060 -0.134262
 37   15.834409 0.579420 -0.284600 0.263042 -0.000675 0.211061
 38   1.139685 -3.453749 -2.823813 0.000105 -0.000542 -0.034151
 39   -4.457742 -1.054854 -0.746180 0.000348 -0.001246 -0.077462
 40   1.118101 -3.449769 3.237290 0.000105 -0.000541 -0.034152
 41   -4.433840 -1.059130 0.959566 0.000347 -0.001246 -0.077462
 42   -0.637936 1.697302 -2.501108 0.005968 0.076495 -0.000836
 43   -0.664068 1.698578 2.724841 -0.007684 -0.095245 0.002049
time 10
  0   0.243428 0.347667 1.726986 0.000000 0.000000 -1.571449
  1   -1.093036 0.000002 -0.326057 -1.570757 -1.570379 -0.000171
  2   2.262337 0.113614 0.064702 -0.069344 -0.007166 -0.103504
  3   2.380047 0.353302 0.047440 0.000000 -0.000040 -0.008632
  4   2.033756 0.190472 -0.000128 -0.078336 0.001966 0.025710
  5   2.451511 0.204909 -0.003447 0.000000 -0.000005 -0.017472
  6   7.247600 -0.397300 -0.109469 0.000001 0.000009 0.052298
  7   -2.022252 -0.104661 3.136172 -0.609650 -1.328654 -2.598971
  8   1.168026 -0.537438 -0.063437 0.255128 1.156440 0.271008
  9   6.790376 -0.619176 0.015206 -0.000324 -0.000352 -0.451448
 10   8.637599 0.544015 -0.090417 -1.570112 0.000362 -0.069282
 11   6.790465 -0.619039 0.017802 -0.001860 -0.011168 -0.331198
 12   -2.022474 -0.104699 -2.873818 0.298873 1.361771 -2.901984
 13   1.167898 -0.537463 0.063297 -0.221076 -1.216159 0.075578
 14   7.002743 -0.617765 -0.183752 0.000229 0.000250 -1.472970
 15   8.209042 0.615527 -0.255885 1.682906 -0.000063 -0.069646
 16   7.002735 -0.617911 -0.183641 0.013733 0.008101 -1.049647
 17   1.574674 0.609930 -0.000899 0.163537 -0.016701 0.129910
 18   -0.602177 0.511412 -0.000006 0.000000 0.000000 0.000000
 19   3.646428 0.364526 1.119313 -0.000002 -0.000014 -0.174510
 20   3.646422 0.364499 -1.117566 0.000007 -0.000003 -0.174546
 21   3.805634 1.330634 1.627658 0.000002 -0.000011 -0.000026
 22   -0.246060 -0.011889 0.516521 -0.000011 0.000031 0.000025
 23   3.805651 1.330659 -1.631083 0.000019 0.000002 -0.000024
 24   -0.246150 -0.011872 -0.516511 -0.000005 -0.000006 0.000048
 25   4.941364 1.997338 1.629330 0.000018 -0.000001 -0.000024
 26   4.941382 1.997366 -1.629410 -0.000001 0.000005 -0.000024
 27   2.930087 1.603639 1.514501 -0.000019 -0.000022 -0.000050
 28   2.932517 1.603245 -1.501142 -0.000002 -0.000009 -0.000024
 29   8.824059 0.150544 0.091743 0.000006 -0.000231 -0.174534
 30   2.111085 -0.561179 1.784320 -0.000008 -0.000682 0.000024
 31   2.121290 -0.561289 -1.853599 0.000000 0.000000 -0.000002
 32   -0.810489 -0.093824 3.127092 -0.015774 -3.141419 -0.294914
 33   14.298673 -0.408176 0.475484 -0.000100 -0.000042 -0.313811
 34   15.835795 0.581398 0.242756 -0.141882 0.005491 0.020062
 35   -0.815868 -0.091229 -3.114430 -0.027800 3.139096 0.073284
 36   14.294526 -0.410349 -0.463635 0.000105 0.000060 -0.143145
 37   15.834409 0.579420 -0.284600 0.263042 -0.000701 0.215776
 38   1.139685 -3.453749 -2.823813 0.000126 -0.000639 -0.038977
 39   -4.457742 -1.054854 -0.746180 0.000384 -0.001438 -0.088568
 40   1.118101 -3.449769 3.237290 0.000126 -0.000638 -0.038978
 41   -4.433840 -1.059130 0.959566 0.000383 -0.001438 -0.088568
 42   -0.637936 1.697302 -2.473763 0.006831 0.087458 -0.001004
 43   -0.664068 1.698578 2.701403 -0.008771 -0.108881 0.002426
time 11
  0   0.243428 0.335948 1.726986 0.000000 0.000000 -1.571449
  1   -1.093036 0.000002 -0.326057 -1.570757 -1.570379 -0.000026
  2   2.262337 0.113614 0.064702 -0.069344 -0.007166 -0.103504
  3   2.380047 0.353302 0.047440 0.000000 -0.000040 -0.008632
  4   2.033756 0.190472 -0.000128 -0.078336 0.001834 0.022593
  5   2.451511 0.204909 -0.003447 0.000000 -0.000005 -0.017472
  6   7.247600 -0.397300 -0.109469 0.000001 0.000009 0.052298
  7   -2.022252 -0.104661 3.136172 -0.631698 -1.324820 -2.577371
  8   1.168026 -0.537438 -0.063437 0.267025 1.150704 0.269300
  9   6.790376 -0.619176 0.015206 -0.000324 -0.000352 -0.451448
 10   8.637599 0.544015 -0.090417 -1.570112 0.000362 -0.069282
 11   6.790465 -0.619039 0.017802 -0.001860 -0.011168 -0.331198
 12   -2.022474 -0.104699 -2.873818 0.298873 1.361771 -2.901984
 13   1.167898 -0.537463 0.063297 -0.227894 -1.213667 0.082479
 14   7.002743 -0.617765 -0.183752 0.000229 0.000250 -1.472970
 15   8.209042 0.615527 -0.255885 1.682906 -0.000063 -0.069646
 16   7.002735 -0.617911 -0.183641 0.013733 0.008101 -1.049647
 17   1.574674 0.609930 -0.000899 0.163537 -0.016701 0.132534
 18   -0.602177 0.511412 -0.000006 0.000000 0.000000 0.000000
 19   3.646428 0.364526 1.119313 -0.000002 -0.000014 -0.174510
 20   3.646422 0.364499 -1.117566 0.000007 -0.000003 -0.174546
 21   3.805634 1.330634 1.627658 0.000002 -0.000011 -0.000026
 22   -0.246060 -0.011889 0.516521 -0.000011 0.000031 0.000025
 23   3.805651 1.330659 -1.631083 0.000019 0.000002 -0.000024
 24   -0.246150 -0.011872 -0.516511 -0.000005 -0.000006 0.000048
 25   4.941364 1.997338 1.629330 0.000018 -0.000001 -0.000024
 26   4.941382 1.997366 -1.629410 -0.000001 0.000005 -0.000024
 27   2.930087 1.603639 1.514501 -0.000019 -0.000022 -0.000050
 28   2.932517 1.603245 -1.501142 -0.000002 -0.000009 -0.000024
 29   8.824059 0.150544 0.091743 0.000006 -0.000089 -0.164126
 30   2.111085 -0.561179 1.756975 -0.001283 0.054590 -0.001220
 31   2.129103 -0.561289 -1.834067 0.000475 -0.032144 0.000435
 32   -0.810489 -0.093824 3.127092 -0.015774 -3.141419 -0.296678
 33   14.298673 -0.408176 0.475484 -0.000100 -0.000042 -0.317940
 34   15.835795 0.581398 0.242756 -0.141859 0.005369 0.022223
 35   -0.815868 -0.091229 -3.114430 -0.027800 3.139564 0.069943
 36   14.294526 -0.410349 -0.463635 0.000105 0.000060 -0.150406
 37   15.834409 0.579420 -0.284600 0.262983 -0.000701 0.219731
 38   1.139685 -3.453749 -2.823813 0.000147 -0.000711 -0.043437
 39   -4.457742 -1.054854 -0.746180 0.000431 -0.001606 -0.098581
 40   1.118101 -3.449769 3.237290 0.000147 -0.000710 -0.043438
 41   -4.433840 -1.059130 0.959566 0.000430 -0.001606 -0.098581
 42   -0.637936 1.697302 -2.446419 0.007610 0.097347 -0.001087
 43   -0.664068 1.698578 2.681871 -0.009783 -0.121199 0.002677
time 12
  0   0.243428 0.335948 1.715267 0.000000 0.000000 -1.571449
  1   -1.093036 0.000002 -0.326057 -1.570757 -1.570379 -0.000171
  2   2.262337 0.113614 0.064702 -0.069344 -0.007166 -0.103504
  3   2.380047 0.353302 0.047440 0.000000 -0.000040 -0.008632
  4   2.033756 0.190472 -0.000128 -0.078336 0.001630 0.020273
  5   2.451511 0.204909 -0.003447 0.000000 -0.000005 -0.017472
  6   7.247600 -0.397300 -0.109469 0.000001 0.000009 0.052298
  7   -2.022252 -0.104661 3.136172 -0.649719 -1.321621 -2.560185
  8   1.168026 -0.537438 -0.063437 0.276517 1.145572 0.267592
  9   6.790376 -0.619176 0.015206 -0.000324 -0.000352 -0.451448
 10   8.637599 0.544015 -0.090417 -1.570112 0.000362 -0.069282
 11   6.790465 -0.619039 0.017802 -0.001860 -0.011168 -0.331198
 12   -2.022474 -0.104699 -2.873818 0.298873 1.361771 -2.901792
 13   1.167898 -0.537463 0.063297 -0.233588 -1.211226 0.087927
 14   7.002743 -0.617765 -0.183752 0.000229 0.000250 -1.472970
 15   8.209042 0.615527 -0.255885 1.682906 -0.000063 -0.069646
 16   7.002735 -0.617911 -0.183641 0.013733 0.008101 -1.049647
 17   1.574674 0.609930 -0.000899 0.163537 -0.016701 0.135011
 18   -0.602177 0.511412 -0.000006 0.000000 0.000000 0.000000
 19   3.646428 0.364526 1.119313 -0.000002 -0.000014 -0.174510
 20   3.646422 0.364499 -1.117566 0.000007 -0.000003 -0.174546
 21   3.805634 1.330634 1.627658 0.000002 -0.000011 -0.000026
 22   -0.246060 -0.011889 0.516521 -0.000011 0.000031 0.000025
 23   3.805651 1.330659 -1.631083 0.000019 0.000002 -0.000024
 24   -0.246150 -0.011872 -0.516511 -0.000005 -0.000006 0.000048
 25   4.941364 1.997338 1.629330 0.000018 -0.000001 -0.000024
 26   4.941382 1.997366 -1.629410 -0.000001 0.000005 -0.000024
 27   2.930087 1.603639 1.514501 -0.000019 -0.000022 -0.000050
 28   2.932517 1.603245 -1.501142 -0.000002 -0.000009 -0.000024
 29   8.824059 0.150544 0.091743 -0.000083 0.000339 -0.139073
 30   2.118898 -0.561179 1.682754 -0.004361 0.186466 -0.004179
 31   2.152541 -0.561289 -1.779378 0.001609 -0.108864 0.001472
 32   -0.810489 -0.093824 3.127092 -0.015774 -3.141419 -0.298215
 33   14.298673 -0.408176 0.475484 -0.000100 -0.000042 -0.321592
 34   15.835795 0.581398 0.242756 -0.141859 0.005369 0.024384
 35   -0.815868 -0.091229 -3.114430 -0.027624 3.139658 0.067094
 36   14.294526 -0.410349 -0.463635 0.000105 0.000060 -0.156663
 37   15.834409 0.579420 -0.284600 0.262983 -0.000803 0.223128
 38   1.139685 -3.453749 -2.823813 0.000168 -0.000759 -0.047164
 39   -4.457742 -1.054854 -0.746180 0.000467 -0.001750 -0.107107
 40   1.118101 -3.449769 3.237290 0.000168 -0.000758 -0.047165
 41   -4.433840 -1.059130 0.959566 0.000466 -0.001750 -0.107107
 42   -0.630123 1.697302 -2.426887 0.008269 0.105780 -0.001213
 43   -0.664068 1.698578 2.670152 -0.010620 -0.131680 0.002927
time 13
  0   0.243428 0.324229 1.715267 0.000000 0.000000 -1.571449
  1   -1.093036 0.000002 -0.326057 -1.570757 -1.570379 -0.000171
  2   2.262337 0.113614 0.064702 -0.069344 -0.007166 -0.103504
  3   2.380047 0.353302 0.047440 0.000000 -0.000040 -0.008632
  4   2.033756 0.190472 -0.000128 -0.078336 0.001342 0.018497
  5   2.451511 0.204909 -0.003447 0.000000 -0.000005 -0.017472
  6   7.247600 -0.397300 -0.109469 0.000001 0.000009 0.052298
  7   -2.022252 -0.104661 3.136172 -0.662660 -1.319257 -2.547413
  8   1.168026 -0.537438 -0.063437 0.283541 1.142201 0.266390
  9   6.790376 -0.619176 0.015206 -0.000324 -0.000352 -0.451448
 10   8.637599 0.544015 -0.090417 -1.570112 0.000362 -0.069282
 11   6.790465 -0.619039 0.017802 -0.001860 -0.011168 -0.331198
 12   -2.022474 -0.104699 -2.873818 0.298873 1.361800 -2.901984
 13   1.167898 -0.537463 0.063297 -0.237595 -1.209650 0.092225
 14   7.002743 -0.617765 -0.183752 0.000229 0.000250 -1.472970
 15   8.209042 0.615527 -0.255885 1.682906 -0.000063 -0.069646
 16   7.002735 -0.617911 -0.183641 0.013733 0.008101 -1.049647
 17   1.574674 0.609930 -0.000899 0.163537 -0.016701 0.136896
 18   -0.602177 0.511412 -0.000006 0.000000 0.000000 0.000000
 19   3.646428 0.364526 1.119313 -0.000002 -0.000014 -0.174510
 20   3.646422 0.364499 -1.117566 0.000007 -0.000003 -0.174546
 21   3.805634 1.330634 1.627658 0.000002 -0.000011 -0.000026
 22   -0.246060 -0.011889 0.516521 -0.000011 0.000031 0.000025
 23   3.805651 1.330659 -1.631083 0.000019 0.000002 -0.000024
 24   -0.246150 -0.011872 -0.516511 -0.000005 -0.000006 0.000048
 25   4.941364 1.997338 1.629330 0.000018 -0.000001 -0.000024
 26   4.941382 1.997366 -1.629410 -0.000001 0.000005 -0.000024
 27   2.930087 1.603639 1.514501 -0.000019 -0.000022 -0.000050
 28   2.932517 1.603245 -1.501142 -0.000002 -0.000009 -0.000024
 29   8.824059 0.150544 0.091743 -0.000261 0.000790 -0.109244
 30   2.130617 -0.561179 1.596814 -0.008036 0.343856 -0.007760
 31   2.183792 -0.561289 -1.709063 0.002942 -0.200399 0.002746
 32   -0.810489 -0.093824 3.127092 -0.015774 -3.141419 -0.299468
 33   14.298673 -0.408176 0.475484 -0.000100 -0.000042 -0.324212
 34   15.835795 0.581398 0.242756 -0.141859 0.005369 0.025707
 35   -0.815868 -0.091229 -3.114430 -0.027624 3.139751 0.064958
 36   14.294526 -0.410349 -0.463635 0.000105 0.000060 -0.160911
 37   15.834409 0.579420 -0.284600 0.262983 -0.000829 0.225511
 38   1.139685 -3.453749 -2.823813 0.000168 -0.000807 -0.050158
 39   -4.457742 -1.054854 -0.746180 0.000503 -0.001858 -0.113754
 40   1.118101 -3.449769 3.237290 0.000168 -0.000806 -0.050159
 41   -4.433840 -1.059130 0.959566 0.000502 -0.001858 -0.113754
 42   -0.630123 1.697302 -2.415168 0.008797 0.112327 -0.001255
 43   -0.664068 1.698578 2.658433 -0.011270 -0.139856 0.003095
time 14
  0   0.243428 0.324229 1.703548 0.000000 0.000000 -1.571449
  1   -1.093036 0.000002 -0.326057 -1.570757 -1.570379 -0.000026
  2   2.262337 0.113614 0.064702 -0.069344 -0.007166 -0.103504
  3   2.380047 0.353302 0.047440 0.000000 -0.000040 -0.008632
  4   2.033756 0.190472 -0.000128 -0.078336 0.001270 0.017337
  5   2.451511 0.204909 -0.003447 0.000000 -0.000005 -0.017472
  6   7.247600 -0.397300 -0.109469 0.000001 0.000009 0.052298
  7   -2.022252 -0.104661 3.136172 -0.670712 -1.317729 -2.540088
  8   1.168026 -0.537438 -0.063437 0.287844 1.139937 0.265631
  9   6.790376 -0.619176 0.015206 -0.000324 -0.000352 -0.451448
 10   8.637599 0.544015 -0.090417 -1.570112 0.000362 -0.069282
 11   6.790465 -0.619039 0.017802 -0.001860 -0.011168 -0.331198
 12   -2.022474 -0.104699 -2.873818 0.298873 1.361771 -2.901984
 13   1.167898 -0.537463 0.063297 -0.240406 -1.208582 0.094525
 14   7.002743 -0.617765 -0.183752 0.000229 0.000250 -1.472970
 15   8.209042 0.615527 -0.255885 1.682906 -0.000063 -0.069646
 16   7.002735 -0.617911 -0.183641 0.013733 0.008101 -1.049647
 17   1.574674 0.609930 -0.000899 0.163537 -0.016701 0.137968
 18   -0.602177 0.511412 -0.000006 0.000000 0.000000 0.000000
 19   3.654241 0.270773 1.119313 -0.000002 -0.000014 -0.174510
 20   3.654235 0.270746 -1.117566 0.000007 -0.000003 -0.174546
 21   3.352495 1.260319 1.576875 0.000002 -0.000011 -0.000026
 22   -0.238247 -0.379088 0.496989 0.000083 -0.028708 0.445010
 23   3.364231 1.256438 -1.623270 0.000019 0.000002 -0.000024
 24   -0.164116 -0.285318 -0.528230 0.000091 -0.028733 0.445062
 25   4.535101 1.997338 1.637143 -0.032209 0.220343 0.007203
 26   4.531213 1.997366 -1.621597 0.035749 -0.204340 -0.020853
 27   3.117593 1.466916 1.506688 -0.000019 -0.000022 -0.000050
 28   3.120023 1.466522 -1.508955 -0.000002 -0.000009 -0.000024
 29   8.824059 0.150544 0.091743 -0.000440 0.001193 -0.084191
 30   2.138430 -0.561179 1.522593 -0.011114 0.475731 -0.010719
 31   2.207230 -0.561289 -1.654374 0.004091 -0.277119 0.003783
 32   -0.810489 -0.093824 3.127092 -0.015774 -3.141228 -0.300606
 33   14.298673 -0.408176 0.475484 -0.000100 -0.000042 -0.325959
 34   15.835795 0.581398 0.242756 -0.141859 0.005296 0.026942
 35   -0.815868 -0.091229 -3.114430 -0.027624 3.139751 0.063643
 36   14.294526 -0.410349 -0.463635 0.000105 0.000060 -0.163692
 37   15.834409 0.579420 -0.284600 0.262983 -0.000829 0.227184
 38   1.139685 -3.453749 -2.823813 0.000168 -0.000856 -0.051990
 39   -4.457742 -1.054854 -0.746180 0.000515 -0.001930 -0.118045
 40   1.118101 -3.449769 3.237290 0.000168 -0.000855 -0.052053
 41   -4.433840 -1.059130 0.959566 0.000514 -0.001930 -0.118045
 42   -0.630123 1.697302 -2.403449 0.009108 0.116543 -0.001296
 43   -0.664068 1.698578 2.650620 -0.011707 -0.145097 0.003178
time 15
  0   0.243428 0.324229 1.703548 0.000000 0.000000 -1.571449
  1   -1.093036 0.000002 -0.326057 -1.570757 -1.570379 -0.000026
  2   2.262337 0.113614 0.064702 -0.069344 -0.007166 -0.103504
  3   2.380047 0.353302 0.047440 0.000000 -0.000040 -0.008632
  4   2.033756 0.190472 -0.000128 -0.078336 0.001246 0.017011
  5   2.451511 0.204909 -0.003447 0.000000 -0.000005 -0.017472
  6   7.247600 -0.397300 -0.109469 0.000001 0.000009 0.052298
  7   -2.022252 -0.104661 3.136172 -0.672629 -1.317412 -2.538022
  8   1.168026 -0.537438 -0.063437 0.288920 1.139484 0.265441
  9   6.790376 -0.619176 0.015206 -0.000324 -0.000352 -0.451448
 10   8.637599 0.544015 -0.090417 -1.570112 0.000362 -0.069282
 11   6.790465 -0.619039 0.017802 -0.001860 -0.011168 -0.331198
 12   -2.022474 -0.104699 -2.873818 0.298873 1.361771 -2.901984
 13   1.167898 -0.537463 0.063297 -0.241320 -1.208277 0.095433
 14   7.002743 -0.617765 -0.183752 0.000229 0.000250 -1.472970
 15   8.209042 0.615527 -0.255885 1.682906 -0.000063 -0.069646
 16   7.002735 -0.617911 -0.183641 0.013733 0.008101 -1.049647
 17   1.574674 0.609930 -0.000899 0.163537 -0.016701 0.138263
 18   -0.602177 0.511412 -0.000006 0.000000 0.000000 0.000000
 19   3.673773 0.177020 1.119313 -0.000002 -0.000014 -0.174510
 20   3.673767 0.176993 -1.117566 0.000007 -0.000003 -0.174546
 21   2.899356 1.193911 1.522186 0.000002 -0.000011 -0.000026
 22   -0.226528 -0.754099 0.477457 0.000194 -0.057459 0.890061
 23   2.918905 1.182217 -1.611551 0.000019 0.000002 -0.000024
 24   -0.078176 -0.558764 -0.547762 0.000187 -0.057484 0.890104
 25   4.117120 1.989525 1.648862 -0.064411 0.440688 0.014417
 26   4.117138 1.989553 -1.609878 0.071523 -0.408734 -0.041694
 27   3.305099 1.322380 1.487156 -0.000019 -0.000022 -0.000050
 28   3.303622 1.321986 -1.528487 -0.000002 -0.000009 -0.000024
 29   8.824059 0.150544 0.091743 -0.000529 0.001359 -0.073676
 30   2.142336 -0.561179 1.491342 -0.012388 0.531003 -0.011984
 31   2.215043 -0.561289 -1.630936 0.004566 -0.309315 0.004238
 32   -0.810489 -0.093824 3.127092 -0.015774 -3.141228 -0.300606
 33   14.298673 -0.408176 0.475484 -0.000100 -0.000042 -0.326515
 34   15.835795 0.581398 0.242756 -0.141859 0.005296 0.026942
 35   -0.815868 -0.091229 -3.114430 -0.027624 3.139751 0.063424
 36   14.294526 -0.410349 -0.463635 0.000105 0.000060 -0.164619
 37   15.834409 0.579420 -0.284600 0.262983 -0.000829 0.227539
 38   1.139685 -3.453749 -2.823813 0.000189 -0.000868 -0.052724
 39   -4.449929 -1.054854 -0.746180 0.000527 -0.001942 -0.119559
 40   1.118101 -3.449769 3.237290 0.000189 -0.000867 -0.052725
 41   -4.437746 -1.059130 0.959566 0.000526 -0.001942 -0.119559
 42   -0.626217 1.697302 -2.395636 0.009228 0.118061 -0.001338
 43   -0.664068 1.698578 2.642807 -0.011857 -0.146980 0.003220
time 16
  0   0.243428 0.324229 1.703548 0.000000 0.000000 -1.571449
  1   -1.093036 0.000002 -0.326057 -1.570757 -1.570379 -0.000026
  2   2.262337 0.113614 0.064702 -0.069344 -0.007166 -0.103504
  3   2.380047 0.353302 0.047440 0.000000 -0.000040 -0.008632
  4   2.033756 0.190472 -0.000128 -0.078336 0.001294 0.017591
  5   2.451511 0.204909 -0.003447 0.000000 -0.000005 -0.017472
  6   7.247600 -0.397300 -0.109469 0.000001 0.000009 0.052298
  7   -2.022252 -0.104661 3.136172 -0.668699 -1.318133 -2.541778
  8   1.168026 -0.537438 -0.063437 0.286895 1.140440 0.265884
  9   6.790376 -0.619176 0.015206 -0.000324 -0.000352 -0.451448
 10   8.637599 0.544015 -0.090417 -1.570112 0.000362 -0.069282
 11   6.790465 -0.619039 0.017802 -0.001860 -0.011168 -0.331198
 12   -2.022474 -0.104699 -2.873818 0.298873 1.361771 -2.901792
 13   1.167898 -0.537463 0.063297 -0.240617 -1.208734 0.094283
 14   7.002743 -0.617765 -0.183752 0.000229 0.000250 -1.472970
 15   8.209042 0.615527 -0.255885 1.682906 -0.000063 -0.069646
 16   7.002735 -0.617911 -0.183641 0.013733 0.008101 -1.049647
 17   1.574674 0.609930 -0.000899 0.163537 -0.016701 0.137783
 18   -0.602177 0.511412 -0.000006 0.000000 0.000000 0.000000
 19   3.654241 0.270773 1.119313 -0.000002 -0.000014 -0.174510
 20   3.654235 0.270746 -1.117566 0.000007 -0.000003 -0.174546
 21   3.352495 1.260319 1.576875 0.000002 -0.000011 -0.000026
 22   -0.238247 -0.379088 0.496989 0.000083 -0.028708 0.445010
 23   3.364231 1.256438 -1.623270 0.000019 0.000002 -0.000024
 24   -0.164116 -0.285318 -0.528230 0.000091 -0.028733 0.445062
 25   4.535101 1.997338 1.637143 -0.032209 0.220343 0.007203
 26   4.531213 1.997366 -1.621597 0.035749 -0.204340 -0.020853
 27   3.117593 1.466916 1.506688 -0.000019 -0.000022 -0.000050
 28   3.120023 1.466522 -1.508955 -0.000002 -0.000009 -0.000024
 29   8.824059 0.150544 0.091743 -0.000440 0.001193 -0.084191
 30   2.138430 -0.561179 1.522593 -0.011114 0.475731 -0.010719
 31   2.207230 -0.561289 -1.654374 0.004091 -0.277119 0.003783
 32   -0.810489 -0.093824 3.127092 -0.015774 -3.141228 -0.300264
 33   14.298673 -0.408176 0.475484 -0.000100 -0.000042 -0.325721
 34   15.835795 0.581398 0.242756 -0.141859 0.005296 0.026545
 35   -0.815868 -0.091229 -3.114430 -0.027624 3.139751 0.063808
 36   14.294526 -0.410349 -0.463635 0.000105 0.000060 -0.163383
 37   15.834409 0.579420 -0.284600 0.262983 -0.000829 0.226880
 38   1.139685 -3.453749 -2.823813 0.000168 -0.000856 -0.051990
 39   -4.457742 -1.054854 -0.746180 0.000515 -0.001930 -0.118045
 40   1.118101 -3.449769 3.237290 0.000168 -0.000855 -0.052053
 41   -4.433840 -1.059130 0.959566 0.000514 -0.001930 -0.118045
 42   -0.630123 1.697302 -2.403449 0.009108 0.116543 -0.001296
 43   -0.664068 1.698578 2.650620 -0.011707 -0.145097 0.003178
time 17
  0   0.243428 0.324229 1.715267 0.000000 0.000000 -1.571449
  1   -1.093036 0.000002 -0.326057 -1.570757 -1.570379 -0.000171
  2   2.262337 0.113614 0.064702 -0.069344 -0.007166 -0.103504
  3   2.380047 0.353302 0.047440 0.000000 -0.000040 -0.008632
  4   2.033756 0.190472 -0.000128 -0.078336 0.001486 0.018787
  5   2.451511 0.204909 -0.003447 0.000000 -0.000005 -0.017472
  6   7.247600 -0.397300 -0.109469 0.000001 0.000009 0.052298
  7   -2.022252 -0.104661 3.136172 -0.659305 -1.319747 -2.550606
  8   1.168026 -0.537438 -0.063437 0.281959 1.143157 0.266643
  9   6.790376 -0.619176 0.015206 -0.000324 -0.000352 -0.451448
 10   8.637599 0.544015 -0.090417 -1.570112 0.000362 -0.069282
 11   6.790465 -0.619039 0.017802 -0.001860 -0.011168 -0.331198
 12   -2.022474 -0.104699 -2.873818 0.298873 1.361771 -2.901792
 13   1.167898 -0.537463 0.063297 -0.238298 -1.210057 0.091680
 14   7.002743 -0.617765 -0.183752 0.000229 0.000250 -1.472970
 15   8.209042 0.615527 -0.255885 1.682906 -0.000063 -0.069646
 16   7.002735 -0.617911 -0.183641 0.013733 0.008101 -1.049647
 17   1.574674 0.609930 -0.000899 0.163537 -0.016701 0.136415
 18   -0.602177 0.511412 -0.000006 0.000000 0.000000 0.000000
 19   3.646428 0.364526 1.119313 -0.000002 -0.000014 -0.174510
 20   3.646422 0.364499 -1.117566 0.000007 -0.000003 -0.174546
 21   3.805634 1.330634 1.627658 0.000002 -0.000011 -0.000026
 22   -0.246060 -0.011889 0.516521 -0.000011 0.000031 0.000025
 23   3.805651 1.330659 -1.631083 0.000019 0.000002 -0.000024
 24   -0.246150 -0.011872 -0.516511 -0.000005 -0.000006 0.000048
 25   4.941364 1.997338 1.629330 0.000018 -0.000001 -0.000024
 26   4.941382 1.997366 -1.629410 -0.000001 0.000005 -0.000024
 27   2.930087 1.603639 1.514501 -0.000019 -0.000022 -0.000050
 28   2.932517 1.603245 -1.501142 -0.000002 -0.000009 -0.000024
 29   8.824059 0.150544 0.091743 -0.000261 0.000790 -0.109244
 30   2.130617 -0.561179 1.596814 -0.008036 0.343856 -0.007760
 31   2.183792 -0.561289 -1.709063 0.002942 -0.200399 0.002746
 32   -0.810489 -0.093824 3.127092 -0.015774 -3.141419 -0.299468
 33   14.298673 -0.408176 0.475484 -0.000100 -0.000042 -0.324133
 34   15.835795 0.581398 0.242756 -0.141859 0.005369 0.025663
 35   -0.815868 -0.091229 -3.114430 -0.027624 3.139751 0.065341
 36   14.294526 -0.410349 -0.463635 0.000105 0.000060 -0.160525
 37   15.834409 0.579420 -0.284600 0.262983 -0.000829 0.225511
 38   1.139685 -3.453749 -2.823813 0.000168 -0.000807 -0.050158
 39   -4.457742 -1.054854 -0.746180 0.000503 -0.001858 -0.113754
 40   1.118101 -3.449769 3.237290 0.000168 -0.000806 -0.050159
 41   -4.433840 -1.059130 0.959566 0.000502 -0.001858 -0.113754
 42   -0.630123 1.697302 -2.415168 0.008797 0.112327 -0.001255
 43   -0.664068 1.698578 2.658433 -0.011270 -0.139856 0.003095
time 18
  0   0.243428 0.335948 1.715267 0.000000 0.000000 -1.571449
  1   -1.093036 0.000002 -0.326057 -1.570757 -1.570379 -0.000171
  2   2.262337 0.113614 0.064702 -0.069344 -0.007166 -0.103504
  3   2.380047 0.353302 0.047440 0.000000 -0.000040 -0.008632
  4   2.033756 0.190472 -0.000128 -0.078336 0.001678 0.020708
  5   2.451511 0.204909 -0.003447 0.000000 -0.000005 -0.017472
  6   7.247600 -0.397300 -0.109469 0.000001 0.000009 0.052298
  7   -2.022252 -0.104661 3.136172 -0.645885 -1.322284 -2.563660
  8   1.168026 -0.537438 -0.063437 0.274429 1.146981 0.268098
  9   6.790376 -0.619176 0.015206 -0.000324 -0.000352 -0.451448
 10   8.637599 0.544015 -0.090417 -1.570112 0.000362 -0.069282
 11   6.790465 -0.619039 0.017802 -0.001860 -0.011168 -0.331198
 12   -2.022474 -0.104699 -2.873818 0.298873 1.361771 -2.901984
 13   1.167898 -0.537463 0.063297 -0.234994 -1.211480 0.087503
 14   7.002743 -0.617765 -0.183752 0.000229 0.000250 -1.472970
 15   8.209042 0.615527 -0.255885 1.682906 -0.000063 -0.069646
 16   7.002735 -0.617911 -0.183641 0.013733 0.008101 -1.049647
 17   1.574674 0.609930 -0.000899 0.163537 -0.016701 0.134419
 18   -0.602177 0.511412 -0.000006 0.000000 0.000000 0.000000
 19   3.646428 0.364526 1.119313 -0.000002 -0.000014 -0.174510
 20   3.646422 0.364499 -1.117566 0.000007 -0.000003 -0.174546
 21   3.805634 1.330634 1.627658 0.000002 -0.000011 -0.000026
 22   -0.246060 -0.011889 0.516521 -0.000011 0.000031 0.000025
 23   3.805651 1.330659 -1.631083 0.000019 0.000002 -0.000024
 24   -0.246150 -0.011872 -0.516511 -0.000005 -0.000006 0.000048
 25   4.941364 1.997338 1.629330 0.000018 -0.000001 -0.000024
 26   4.941382 1.997366 -1.629410 -0.000001 0.000005 -0.000024
 27   2.930087 1.603639 1.514501 -0.000019 -0.000022 -0.000050
 28   2.932517 1.603245 -1.501142 -0.000002 -0.000009 -0.000024
 29   8.824059 0.150544 0.091743 -0.000083 0.000339 -0.139073
 30   2.118898 -0.561179 1.682754 -0.004361 0.186466 -0.004179
 31   2.152541 -0.561289 -1.779378 0.001609 -0.108864 0.001472
 32   -0.810489 -0.093824 3.127092 -0.015774 -3.141419 -0.298215
 33   14.298673 -0.408176 0.475484 -0.000100 -0.000042 -0.321354
 34   15.835795 0.581398 0.242756 -0.141859 0.005369 0.024031
 35   -0.815868 -0.091229 -3.114430 -0.027624 3.139658 0.067259
 36   14.294526 -0.410349 -0.463635 0.000105 0.000060 -0.156122
 37   15.834409 0.579420 -0.284600 0.262983 -0.000803 0.222925
 38   1.139685 -3.453749 -2.823813 0.000168 -0.000759 -0.047164
 39   -4.457742 -1.054854 -0.746180 0.000467 -0.001750 -0.107107
 40   1.118101 -3.449769 3.237290 0.000168 -0.000758 -0.047165
 41   -4.433840 -1.059130 0.959566 0.000466 -0.001750 -0.107107
 42   -0.630123 1.697302 -2.426887 0.008269 0.105780 -0.001213
 43   -0.664068 1.698578 2.670152 -0.010620 -0.131680 0.002927
time 19
  0   0.243428 0.347667 1.726986 0.000000 0.000000 -1.571449
  1   -1.093036 0.000002 -0.326057 -1.570757 -1.570379 -0.000171
  2   2.262337 0.113614 0.064702 -0.069344 -0.007166 -0.103504
  3   2.380047 0.353302 0.047440 0.000000 -0.000040 -0.008632
  4   2.033756 0.190472 -0.000128 -0.078336 0.001882 0.023318
  5   2.451511 0.204909 -0.003447 0.000000 -0.000005 -0.017472
  6   7.247600 -0.397300 -0.109469 0.000001 0.000009 0.052298
  7   -2.022252 -0.104661 3.136172 -0.627576 -1.325656 -2.581691
  8   1.168026 -0.537438 -0.063437 0.264747 1.151660 0.269553
  9   6.790376 -0.619176 0.015206 -0.000324 -0.000352 -0.451448
 10   8.637599 0.544015 -0.090417 -1.570112 0.000362 -0.069282
 11   6.790465 -0.619039 0.017802 -0.001860 -0.011168 -0.331198
 12   -2.022474 -0.104699 -2.873818 0.298873 1.361771 -2.901792
 13   1.167898 -0.537463 0.063297 -0.230284 -1.213667 0.082176
 14   7.002743 -0.617765 -0.183752 0.000229 0.000250 -1.472970
 15   8.209042 0.615527 -0.255885 1.682906 -0.000063 -0.069646
 16   7.002735 -0.617911 -0.183641 0.013733 0.008101 -1.049647
 17   1.574674 0.609930 -0.000899 0.163537 -0.016701 0.132054
 18   -0.602177 0.511412 -0.000006 0.000000 0.000000 0.000000
 19   3.646428 0.364526 1.119313 -0.000002 -0.000014 -0.174510
 20   3.646422 0.364499 -1.117566 0.000007 -0.000003 -0.174546
 21   3.805634 1.330634 1.627658 0.000002 -0.000011 -0.000026
 22   -0.246060 -0.011889 0.516521 -0.000011 0.000031 0.000025
 23   3.805651 1.330659 -1.631083 0.000019 0.000002 -0.000024
 24   -0.246150 -0.011872 -0.516511 -0.000005 -0.000006 0.000048
 25   4.941364 1.997338 1.629330 0.000018 -0.000001 -0.000024
 26   4.941382 1.997366 -1.629410 -0.000001 0.000005 -0.000024
 27   2.930087 1.603639 1.514501 -0.000019 -0.000022 -0.000050
 28   2.932517 1.603245 -1.501142 -0.000002 -0.000009 -0.000024
 29   8.824059 0.150544 0.091743 0.000006 -0.000089 -0.164126
 30   2.111085 -0.561179 1.756975 -0.001283 0.054590 -0.001220
 31   2.129103 -0.561289 -1.834067 0.000475 -0.032144 0.000435
 32   -0.810489 -0.093824 3.127092 -0.015774 -3.141419 -0.296678
 33   14.298673 -0.408176 0.475484 -0.000100 -0.000042 -0.317940
 34   15.835795 0.581398 0.242756 -0.141859 0.005369 0.022223
 35   -0.815868 -0.091229 -3.114430 -0.027800 3.139564 0.069943
 36   14.294526 -0.410349 -0.463635 0.000105 0.000060 -0.150329
 37   15.834409 0.579420 -0.284600 0.262983 -0.000803 0.219731
 38   1.139685 -3.453749 -2.823813 0.000147 -0.000711 -0.043437
 39   -4.457742 -1.054854 -0.746180 0.000431 -0.001606 -0.098581
 40   1.118101 -3.449769 3.237290 0.000147 -0.000710 -0.043438
 41   -4.433840 -1.059130 0.959566 0.000430 -0.001606 -0.098581
 42   -0.637936 1.697302 -2.446419 0.007610 0.097347 -0.001087
 43   -0.664068 1.698578 2.681871 -0.009783 -0.121199 0.002677
time 20
  0   0.243428 0.347667 1.726986 0.000000 0.000000 -1.571449
  1   -1.093036 0.000002 -0.326057 -1.570757 -1.570379 -0.000171
  2   2.262337 0.113614 0.064702 -0.069344 -0.007166 -0.103504
  3   2.380047 0.353302 0.047440 0.000000 -0.000040 -0.008632
  4   2.033756 0.190472 -0.000128 -0.078336 0.002002 0.026290
  5   2.451511 0.204909 -0.003447 0.000000 -0.000005 -0.017472
  6   7.247600 -0.397300 -0.109469 0.000001 0.000009 0.052298
  7   -2.022252 -0.104661 3.136172 -0.605241 -1.329231 -2.603385
  8   1.168026 -0.537438 -0.063437 0.253103 1.157698 0.271514
  9   6.790376 -0.619176 0.015206 -0.000324 -0.000352 -0.451448
 10   8.637599 0.544015 -0.090417 -1.570112 0.000362 -0.069282
 11   6.790465 -0.619039 0.017802 -0.001860 -0.011168 -0.331198
 12   -2.022474 -0.104699 -2.873818 0.298873 1.361800 -2.901984
 13   1.167898 -0.537463 0.063297 -0.224590 -1.216159 0.075820
 14   7.002743 -0.617765 -0.183752 0.000229 0.000250 -1.472970
 15   8.209042 0.615527 -0.255885 1.682906 -0.000063 -0.069646
 16   7.002735 -0.617911 -0.183641 0.013733 0.008101 -1.049647
 17   1.574674 0.609930 -0.000899 0.163537 -0.016701 0.129393
 18   -0.602177 0.511412 -0.000006 0.000000 0.000000 0.000000
 19   3.646428 0.364526 1.119313 -0.000002 -0.000014 -0.174510
 20   3.646422 0.364499 -1.117566 0.000007 -0.000003 -0.174546
 21   3.805634 1.330634 1.627658 0.000002 -0.000011 -0.000026
 22   -0.246060 -0.011889 0.516521 -0.000011 0.000031 0.000025
 23   3.805651 1.330659 -1.631083 0.000019 0.000002 -0.000024
 24   -0.246150 -0.011872 -0.516511 -0.000005 -0.000006 0.000048
 25   4.941364 1.997338 1.629330 0.000018 -0.000001 -0.000024
 26   4.941382 1.997366 -1.629410 -0.000001 0.000005 -0.000024
 27   2.930087 1.603639 1.514501 -0.000019 -0.000022 -0.000050
 28   2.932517 1.603245 -1.501142 -0.000002 -0.000009 -0.000024
 29   8.824059 0.150544 0.091743 0.000006 -0.000231 -0.174534
 30   2.111085 -0.561179 1.784320 -0.000008 -0.000682 0.000024
 31   2.121290 -0.561289 -1.853599 0.000000 0.000000 -0.000002
 32   -0.810489 -0.093824 3.127092 -0.015774 -3.141419 -0.294914
 33   14.298673 -0.408176 0.475484 -0.000100 -0.000042 -0.313811
 34   15.835795 0.581398 0.242756 -0.141882 0.005491 0.019753
 35   -0.815868 -0.091229 -3.114430 -0.027800 3.139096 0.073120
 36   14.294526 -0.410349 -0.463635 0.000105 0.000060 -0.143377
 37   15.834409 0.579420 -0.284600 0.263042 -0.000701 0.215979
 38   1.139685 -3.453749 -2.823813 0.000126 -0.000639 -0.038977
 39   -4.457742 -1.054854 -0.746180 0.000384 -0.001438 -0.088568
 40   1.118101 -3.449769 3.237290 0.000126 -0.000638 -0.038978
 41   -4.433840 -1.059130 0.959566 0.000383 -0.001438 -0.088568
 42   -0.637936 1.697302 -2.473763 0.006831 0.087458 -0.001004
 43   -0.664068 1.698578 2.701403 -0.008771 -0.108881 0.002426
time 21
  0   0.243428 0.355480 1.738705 0.000000 0.000000 -1.571449
  1   -1.093036 0.000002 -0.326057 -1.570757 -1.570379 -0.000026
  2   2.262337 0.113614 0.064702 -0.069344 -0.007166 -0.103504
  3   2.380047 0.353302 0.047440 0.000000 -0.000040 -0.008632
  4   2.033756 0.190472 -0.000128 -0.078336 0.002325 0.029625
  5   2.451511 0.204909 -0.003447 0.000000 -0.000005 -0.017472
  6   7.247600 -0.397300 -0.109469 0.000001 0.000009 0.052298
  7   -2.022252 -0.104661 3.136172 -0.579551 -1.333238 -2.628554
  8   1.168026 -0.537438 -0.063437 0.239498 1.163987 0.273412
  9   6.790376 -0.619176 0.015206 -0.000324 -0.000352 -0.451448
 10   8.637599 0.544015 -0.090417 -1.570112 0.000362 -0.069282
 11   6.790465 -0.619039 0.017802 -0.001860 -0.011168 -0.331198
 12   -2.022474 -0.104699 -2.873818 0.298873 1.361771 -2.901984
 13   1.167898 -0.537463 0.063297 -0.217772 -1.219210 0.068374
 14   7.002743 -0.617765 -0.183752 0.000229 0.000250 -1.472970
 15   8.209042 0.615527 -0.255885 1.682906 -0.000063 -0.069646
 16   7.002735 -0.617911 -0.183641 0.013733 0.008101 -1.049647
 17   1.574674 0.609930 -0.000899 0.163537 -0.016701 0.125955
 18   -0.602177 0.511412 -0.000006 0.000000 0.000000 0.000000
 19   3.646428 0.364526 1.119313 -0.000002 -0.000014 -0.174510
 20   3.646422 0.364499 -1.117566 0.000007 -0.000003 -0.174546
 21   3.805634 1.330634 1.627658 0.000002 -0.000011 -0.000026
 22   -0.246060 -0.011889 0.516521 -0.000011 0.000031 0.000025
 23   3.805651 1.330659 -1.631083 0.000019 0.000002 -0.000024
 24   -0.246150 -0.011872 -0.516511 -0.000005 -0.000006 0.000048
 25   4.941364 1.997338 1.629330 0.000018 -0.000001 -0.000024
 26   4.941382 1.997366 -1.629410 -0.000001 0.000005 -0.000024
 27   2.930087 1.603639 1.514501 -0.000019 -0.000022 -0.000050
 28   2.932517 1.603245 -1.501142 -0.000002 -0.000009 -0.000024
 29   8.824059 0.150544 0.091743 0.000006 -0.000231 -0.174534
 30   2.111085 -0.561179 1.784320 -0.000008 -0.000682 0.000024
 31   2.121290 -0.561289 -1.853599 0.000000 0.000000 -0.000002
 32   -0.810489 -0.093824 3.127092 -0.015774 -3.141515 -0.292922
 33   14.298673 -0.408176 0.475484 -0.000100 -0.000042 -0.309206
 34   15.835795 0.581398 0.242756 -0.141882 0.005491 0.017195
 35   -0.815868 -0.091229 -3.114430 -0.027800 3.139002 0.076844
 36   14.294526 -0.410349 -0.463635 0.000105 0.000060 -0.134880
 37   15.834409 0.579420 -0.284600 0.263042 -0.000701 0.211568
 38   1.139685 -3.453749 -2.823813 0.000105 -0.000542 -0.034151
 39   -4.457742 -1.054854 -0.746180 0.000348 -0.001246 -0.077462
 40   1.118101 -3.449769 3.237290 0.000105 -0.000541 -0.034152
 41   -4.433840 -1.059130 0.959566 0.000347 -0.001246 -0.077462
 42   -0.637936 1.697302 -2.501108 0.005968 0.076495 -0.000836
 43   -0.664068 1.698578 2.724841 -0.007684 -0.095245 0.002049
time 22
  0   0.243428 0.355480 1.769956 0.000000 0.000000 -1.571449
  1   -1.093036 0.000002 -0.326057 -1.570757 -1.570379 -0.000026
  2   2.262337 0.113614 0.064702 -0.069344 -0.007166 -0.103504
  3   2.380047 0.353302 0.047440 0.000000 -0.000040 -0.008632
  4   2.033756 0.190472 -0.000128 -0.078336 0.002661 0.033177
  5   2.451511 0.204909 -0.003447 0.000000 -0.000005 -0.017472
  6   7.247600 -0.397300 -0.109469 0.000001 0.000009 0.052298
  7   -2.022252 -0.104661 3.136172 -0.550218 -1.337446 -2.656446
  8   1.168026 -0.537438 -0.063437 0.224690 1.171182 0.274677
  9   6.790376 -0.619176 0.015206 -0.000324 -0.000352 -0.451448
 10   8.637599 0.544015 -0.090417 -1.570112 0.000362 -0.069282
 11   6.790465 -0.619039 0.017802 -0.001860 -0.011168 -0.331198
 12   -2.022474 -0.104699 -2.873818 0.298873 1.361771 -2.901792
 13   1.167898 -0.537463 0.063297 -0.210461 -1.222414 0.059960
 14   7.002743 -0.617765 -0.183752 0.000229 0.000250 -1.472970
 15   8.209042 0.615527 -0.255885 1.682906 -0.000063 -0.069646
 16   7.002735 -0.617911 -0.183641 0.013733 0.008101 -1.049647
 17   1.574674 0.609930 -0.000899 0.163537 -0.016701 0.122296
 18   -0.602177 0.511412 -0.000006 0.000000 0.000000 0.000000
 19   3.646428 0.364526 1.119313 -0.000002 -0.000014 -0.174510
 20   3.646422 0.364499 -1.117566 0.000007 -0.000003 -0.174546
 21   3.805634 1.330634 1.627658 0.000002 -0.000011 -0.000026
 22   -0.246060 -0.011889 0.516521 -0.000011 0.000031 0.000025
 23   3.805651 1.330659 -1.631083 0.000019 0.000002 -0.000024
 24   -0.246150 -0.011872 -0.516511 -0.000005 -0.000006 0.000048
 25   4.941364 1.997338 1.629330 0.000018 -0.000001 -0.000024
 26   4.941382 1.997366 -1.629410 -0.000001 0.000005 -0.000024
 27   2.930087 1.603639 1.514501 -0.000019 -0.000022 -0.000050
 28   2.932517 1.603245 -1.501142 -0.000002 -0.000009 -0.000024
 29   8.824059 0.150544 0.091743 0.000006 -0.000231 -0.174534
 30   2.111085 -0.561179 1.784320 -0.000008 -0.000682 0.000024
 31   2.121290 -0.561289 -1.853599 0.000000 0.000000 -0.000002
 32   -0.810489 -0.093824 3.127092 -0.015774 -3.141610 -0.290872
 33   14.298673 -0.408176 0.475484 -0.000100 -0.000042 -0.303807
 34   15.835795 0.581398 0.242756 -0.141928 0.005540 0.014505
 35   -0.815868 -0.091229 -3.114430 -0.027800 3.139002 0.081062
 36   14.294526 -0.410349 -0.463635 0.000105 0.000060 -0.125765
 37   15.834409 0.579420 -0.284600 0.263042 -0.000675 0.206447
 38   1.139685 -3.453749 -2.823813 0.000084 -0.000470 -0.028958
 39   -4.457742 -1.054854 -0.746180 0.000300 -0.001067 -0.065739
 40   1.118101 -3.449769 3.237290 0.000084 -0.000469 -0.028959
 41   -4.433840 -1.059130 0.959566 0.000299 -0.001067 -0.065739
 42   -0.645749 1.697302 -2.532359 0.005069 0.064904 -0.000753
 43   -0.664068 1.698578 2.744373 -0.006522 -0.080825 0.001756
time 23
  0   0.243428 0.367199 1.769956 0.000000 0.000000 -1.571449
  1   -1.093036 0.000002 -0.326057 -1.570757 -1.570379 -0.000026
  2   2.262337 0.113614 0.064702 -0.069344 -0.007166 -0.103504
  3   2.380047 0.353302 0.047440 0.000000 -0.000040 -0.008632
  4   2.033756 0.190472 -0.000128 -0.078336 0.002816 0.037056
  5   2.451511 0.204909 -0.003447 0.000000 -0.000005 -0.017472
  6   7.247600 -0.397300 -0.109469 0.000001 0.000009 0.052298
  7   -2.022252 -0.104661 3.136172 -0.518489 -1.341655 -2.687344
  8   1.168026 -0.537438 -0.063437 0.208617 1.178679 0.275879
  9   6.790376 -0.619176 0.015206 -0.000324 -0.000352 -0.451448
 10   8.637599 0.544015 -0.090417 -1.570112 0.000362 -0.069282
 11   6.790465 -0.619039 0.017802 -0.001860 -0.011168 -0.331198
 12   -2.022474 -0.104699 -2.873818 0.298873 1.361771 -2.901984
 13   1.167898 -0.537463 0.063297 -0.202026 -1.225618 0.051122
 14   7.002743 -0.617765 -0.183752 0.000229 0.000250 -1.472970
 15   8.209042 0.615527 -0.255885 1.682906 -0.000063 -0.069646
 16   7.002735 -0.617911 -0.183641 0.013733 0.008101 -1.049647
 17   1.574674 0.609930 -0.000899 0.163537 -0.016701 0.118415
 18   -0.602177 0.511412 -0.000006 0.000000 0.000000 0.000000
 19   3.646428 0.364526 1.119313 -0.000002 -0.000014 -0.174510
 20   3.646422 0.364499 -1.117566 0.000007 -0.000003 -0.174546
 21   3.805634 1.330634 1.627658 0.000002 -0.000011 -0.000026
 22   -0.246060 -0.011889 0.516521 -0.000011 0.000031 0.000025
 23   3.805651 1.330659 -1.631083 0.000019 0.000002 -0.000024
 24   -0.246150 -0.011872 -0.516511 -0.000005 -0.000006 0.000048
 25   4.941364 1.997338 1.629330 0.000018 -0.000001 -0.000024
 26   4.941382 1.997366 -1.629410 -0.000001 0.000005 -0.000024
 27   2.930087 1.603639 1.514501 -0.000019 -0.000022 -0.000050
 28   2.932517 1.603245 -1.501142 -0.000002 -0.000009 -0.000024
 29   8.824059 0.150544 0.091743 0.000006 -0.000231 -0.174534
 30   2.111085 -0.561179 1.784320 -0.000008 -0.000682 0.000024
 31   2.121290 -0.561289 -1.853599 0.000000 0.000000 -0.000002
 32   -0.810489 -0.093824 3.127092 -0.015774 -3.141610 -0.288311
 33   14.298673 -0.408176 0.475484 -0.000100 -0.000042 -0.298805
 34   15.835795 0.581398 0.242756 -0.141928 0.005613 0.011506
 35   -0.815868 -0.091229 -3.114430 -0.027800 3.138814 0.085663
 36   14.294526 -0.410349 -0.463635 0.000105 0.000060 -0.116727
 37   15.834409 0.579420 -0.284600 0.263042 -0.000573 0.201022
 38   1.139685 -3.453749 -2.823813 0.000063 -0.000386 -0.023704
 39   -4.457742 -1.054854 -0.746180 0.000240 -0.000875 -0.053792
 40   1.118101 -3.449769 3.237290 0.000063 -0.000385 -0.023705
 41   -4.433840 -1.059130 0.959566 0.000239 -0.000875 -0.053792
 42   -0.649655 1.697302 -2.563610 0.004159 0.053113 -0.000585
 43   -0.664068 1.698578 2.767811 -0.005335 -0.066137 0.001464
time 24
  0   0.243428 0.378918 1.781675 0.000000 0.000000 -1.571449
  1   -1.093036 0.000002 -0.326057 -1.570757 -1.570379 0.000264
  2   2.262337 0.113614 0.064702 -0.069344 -0.007166 -0.103504
  3   2.380047 0.353302 0.047440 0.000000 -0.000040 -0.008632
  4   2.033756 0.190472 -0.000128 -0.078299 0.003260 0.040970
  5   2.451511 0.204909 -0.003447 0.000000 -0.000005 -0.017472
  6   7.247600 -0.397300 -0.109469 0.000001 0.000009 0.052298
  7   -2.022252 -0.104661 3.136172 -0.484556 -1.345691 -2.720589
  8   1.168026 -0.537438 -0.063437 0.191911 1.186679 0.276575
  9   6.790376 -0.619176 0.015206 -0.000324 -0.000352 -0.451448
 10   8.637599 0.544015 -0.090417 -1.570112 0.000362 -0.069282
 11   6.790465 -0.619039 0.017802 -0.001860 -0.011168 -0.331198
 12   -2.022474 -0.104699 -2.873818 0.298873 1.361771 -2.901792
 13   1.167898 -0.537463 0.063297 -0.193520 -1.228923 0.041618
 14   7.002743 -0.617765 -0.183752 0.000229 0.000250 -1.472970
 15   8.209042 0.615527 -0.255885 1.682906 -0.000063 -0.069646
 16   7.002735 -0.617911 -0.183641 0.013733 0.008101 -1.049647
 17   1.574674 0.609930 -0.000899 0.163537 -0.016701 0.114608
 18   -0.602177 0.511412 -0.000006 0.000000 0.000000 0.000000
 19   3.646428 0.364526 1.119313 -0.000002 -0.000014 -0.174510
 20   3.646422 0.364499 -1.117566 0.000007 -0.000003 -0.174546
 21   3.805634 1.330634 1.627658 0.000002 -0.000011 -0.000026
 22   -0.246060 -0.011889 0.516521 -0.000011 0.000031 0.000025
 23   3.805651 1.330659 -1.631083 0.000019 0.000002 -0.000024
 24   -0.246150 -0.011872 -0.516511 -0.000005 -0.000006 0.000048
 25   4.941364 1.997338 1.629330 0.000018 -0.000001 -0.000024
 26   4.941382 1.997366 -1.629410 -0.000001 0.000005 -0.000024
 27   2.930087 1.603639 1.514501 -0.000019 -0.000022 -0.000050
 28   2.932517 1.603245 -1.501142 -0.000002 -0.000009 -0.000024
 29   8.824059 0.150544 0.091743 0.000006 -0.000231 -0.174534
 30   2.111085 -0.561179 1.784320 -0.000008 -0.000682 0.000024
 31   2.121290 -0.561289 -1.853599 0.000000 0.000000 -0.000002
 32   -0.810489 -0.093824 3.127092 -0.015774 -3.141897 -0.286034
 33   14.298673 -0.408176 0.475484 -0.000100 -0.000042 -0.293406
 34   15.835795 0.581398 0.242756 -0.141928 0.005613 0.008507
 35   -0.815868 -0.091229 -3.114430 -0.027800 3.138440 0.090538
 36   14.294526 -0.410349 -0.463635 0.000105 0.000060 -0.105604
 37   15.834409 0.579420 -0.284600 0.263042 -0.000573 0.195191
 38   1.139685 -3.453749 -2.823813 0.000042 -0.000289 -0.018572
 39   -4.457742 -1.054854 -0.746180 0.000192 -0.000671 -0.042069
 40   1.118101 -3.449769 3.237290 0.000042 -0.000288 -0.018573
 41   -4.433840 -1.059130 0.959566 0.000191 -0.000671 -0.042069
 42   -0.649655 1.697302 -2.587048 0.003248 0.041553 -0.000418
 43   -0.664068 1.698578 2.795156 -0.004161 -0.051733 0.001087
time 25
  0   0.243428 0.390637 1.801207 0.000000 0.000000 -1.571449
  1   -1.093036 0.000002 -0.326057 -1.570757 -1.570379 -0.000026
  2   2.262337 0.113614 0.064702 -0.069344 -0.007166 -0.103504
  3   2.380047 0.353302 0.047440 0.000000 -0.000040 -0.008632
  4   2.033756 0.190472 -0.000128 -0.078299 0.003476 0.044921
  5   2.451511 0.204909 -0.003447 0.000000 -0.000005 -0.017472
  6   7.247600 -0.397300 -0.109469 0.000001 0.000009 0.052298
  7   -2.022252 -0.104661 3.136172 -0.449472 -1.349553 -2.755056
  8   1.168026 -0.537438 -0.063437 0.174446 1.194075 0.277081
  9   6.790376 -0.619176 0.015206 -0.000324 -0.000352 -0.451448
 10   8.637599 0.544015 -0.090417 -1.570112 0.000362 -0.069282
 11   6.790465 -0.619039 0.017802 -0.001860 -0.011168 -0.331198
 12   -2.022474 -0.104699 -2.873818 0.298873 1.361771 -2.901984
 13   1.167898 -0.537463 0.063297 -0.184523 -1.232381 0.032235
 14   7.002743 -0.617765 -0.183752 0.000229 0.000250 -1.472970
 15   8.209042 0.615527 -0.255885 1.682906 -0.000063 -0.069646
 16   7.002735 -0.617911 -0.183641 0.013733 0.008101 -1.049647
 17   1.574674 0.609930 -0.000899 0.163537 -0.016701 0.110616
 18   -0.602177 0.511412 -0.000006 0.000000 0.000000 0.000000
 19   3.646428 0.364526 1.119313 -0.000002 -0.000014 -0.174510
 20   3.646422 0.364499 -1.117566 0.000007 -0.000003 -0.174546
 21   3.805634 1.330634 1.627658 0.000002 -0.000011 -0.000026
 22   -0.246060 -0.011889 0.516521 -0.000011 0.000031 0.000025
 23   3.805651 1.330659 -1.631083 0.000019 0.000002 -0.000024
 24   -0.246150 -0.011872 -0.516511 -0.000005 -0.000006 0.000048
 25   4.941364 1.997338 1.629330 0.000018 -0.000001 -0.000024
 26   4.941382 1.997366 -1.629410 -0.000001 0.000005 -0.000024
 27   2.930087 1.603639 1.514501 -0.000019 -0.000022 -0.000050
 28   2.932517 1.603245 -1.501142 -0.000002 -0.000009 -0.000024
 29   8.824059 0.150544 0.091743 0.000006 -0.000231 -0.174534
 30   2.111085 -0.561179 1.784320 -0.000008 -0.000682 0.000024
 31   2.121290 -0.561289 -1.853599 0.000000 0.000000 -0.000002
 32   -0.810489 -0.093824 3.127092 -0.015774 -3.141992 -0.283416
 33   14.298673 -0.408176 0.475484 -0.000100 -0.000042 -0.287848
 34   15.835795 0.581398 0.242756 -0.141928 0.005711 0.005508
 35   -0.815868 -0.091229 -3.114430 -0.027800 3.138159 0.096016
 36   14.294526 -0.410349 -0.463635 0.000105 0.000060 -0.093863
 37   15.834409 0.579420 -0.284600 0.263120 -0.000548 0.188904
 38   1.139685 -3.453749 -2.823813 0.000021 -0.000217 -0.013562
 39   -4.457742 -1.054854 -0.746180 0.000132 -0.000491 -0.030991
 40   1.118101 -3.449769 3.237290 0.000021 -0.000216 -0.013563
 41   -4.433840 -1.059130 0.959566 0.000131 -0.000491 -0.030991
 42   -0.649655 1.697302 -2.618299 0.002397 0.030590 -0.000335
 43   -0.664068 1.698578 2.810781 -0.003074 -0.038097 0.000795
time 26
  0   0.243428 0.398450 1.812926 0.000000 0.000000 -1.571449
  1   -1.093036 0.000002 -0.326057 -1.570757 -1.570379 -0.000026
  2   2.262337 0.113614 0.064702 -0.069344 -0.007166 -0.103504
  3   2.380047 0.353302 0.047440 0.000000 -0.000040 -0.008632
  4   2.033756 0.190472 -0.000128 -0.078262 0.003835 0.048800
  5   2.451511 0.204909 -0.003447 0.000000 -0.000005 -0.017472
  6   7.247600 -0.397300 -0.109469 0.000001 0.000009 0.052298
  7   -2.022252 -0.104661 3.136172 -0.413621 -1.353070 -2.789616
  8   1.168026 -0.537438 -0.063437 0.156854 1.201924 0.276575
  9   6.790376 -0.619176 0.015206 -0.000324 -0.000352 -0.451448
 10   8.637599 0.544015 -0.090417 -1.570112 0.000362 -0.069282
 11   6.790465 -0.619039 0.017802 -0.001860 -0.011168 -0.331198
 12   -2.022474 -0.104699 -2.873818 0.298873 1.361771 -2.901984
 13   1.167898 -0.537463 0.063297 -0.175174 -1.235788 0.022610
 14   7.002743 -0.617765 -0.183752 0.000229 0.000250 -1.472970
 15   8.209042 0.615527 -0.255885 1.682906 -0.000063 -0.069646
 16   7.002735 -0.617911 -0.183641 0.013733 0.008101 -1.049647
 17   1.574674 0.609930 -0.000899 0.163537 -0.016701 0.106772
 18   -0.602177 0.511412 -0.000006 0.000000 0.000000 0.000000
 19   3.646428 0.364526 1.119313 -0.000002 -0.000014 -0.174510
 20   3.646422 0.364499 -1.117566 0.000007 -0.000003 -0.174546
 21   3.805634 1.330634 1.627658 0.000002 -0.000011 -0.000026
 22   -0.246060 -0.011889 0.516521 -0.000011 0.000031 0.000025
 23   3.805651 1.330659 -1.631083 0.000019 0.000002 -0.000024
 24   -0.246150 -0.011872 -0.516511 -0.000005 -0.000006 0.000048
 25   4.941364 1.997338 1.629330 0.000018 -0.000001 -0.000024
 26   4.941382 1.997366 -1.629410 -0.000001 0.000005 -0.000024
 27   2.930087 1.603639 1.514501 -0.000019 -0.000022 -0.000050
 28   2.932517 1.603245 -1.501142 -0.000002 -0.000009 -0.000024
 29   8.824059 0.150544 0.091743 0.000006 -0.000231 -0.174534
 30   2.111085 -0.561179 1.784320 -0.000008 -0.000682 0.000024
 31   2.121290 -0.561289 -1.853599 0.000000 0.000000 -0.000002
 32   -0.810489 -0.093824 3.127092 -0.015774 -3.141992 -0.281196
 33   14.298673 -0.408176 0.475484 -0.000100 -0.000042 -0.282449
 34   15.835795 0.581398 0.242756 -0.141974 0.005735 0.002553
 35   -0.815868 -0.091229 -3.114430 -0.027800 3.138159 0.101877
 36   14.294526 -0.410349 -0.463635 0.000105 0.000060 -0.081504
 37   15.834409 0.579420 -0.284600 0.263180 -0.000496 0.182313
 38   1.139685 -3.453749 -2.823813 0.000000 -0.000145 -0.009163
 39   -4.457742 -1.054854 -0.746180 0.000084 -0.000336 -0.020950
 40   1.118101 -3.449769 3.237290 0.000000 -0.000144 -0.009164
 41   -4.433840 -1.059130 0.959566 0.000095 -0.000336 -0.020950
 42   -0.657468 1.697302 -2.637831 0.001618 0.020701 -0.000167
 43   -0.664068 1.698578 2.830313 -0.002062 -0.025763 0.000544
time 27
  0   0.243428 0.410169 1.816833 0.000000 0.000000 -1.571449
  1   -1.093036 0.000002 -0.326057 -1.570757 -1.570379 -0.000026
  2   2.262337 0.113614 0.064702 -0.069344 -0.007166 -0.103504
  3   2.380047 0.353302 0.047440 0.000000 -0.000040 -0.008632
  4   2.033756 0.190472 -0.000128 -0.078262 0.004171 0.052316
  5   2.451511 0.204909 -0.003447 0.000000 -0.000005 -0.017472
  6   7.247600 -0.397300 -0.109469 0.000001 0.000009 0.052298
  7   -2.022252 -0.104661 3.136172 -0.378441 -1.356155 -2.824082
  8   1.168026 -0.537438 -0.063437 0.139705 1.209270 0.276322
  9   6.790376 -0.619176 0.015206 -0.000324 -0.000352 -0.451448
 10   8.637599 0.544015 -0.090417 -1.570112 0.000362 -0.069282
 11   6.790465 -0.619039 0.017802 -0.001860 -0.011168 -0.331198
 12   -2.022474 -0.104699 -2.873818 0.298873 1.361771 -2.901984
 13   1.167898 -0.537463 0.063297 -0.166176 -1.238738 0.013166
 14   7.002743 -0.617765 -0.183752 0.000229 0.000250 -1.472970
 15   8.209042 0.615527 -0.255885 1.682906 -0.000063 -0.069646
 16   7.002735 -0.617911 -0.183641 0.013733 0.008101 -1.049647
 17   1.574674 0.609930 -0.000899 0.163537 -0.016701 0.103002
 18   -0.602177 0.511412 -0.000006 0.000000 0.000000 0.000000
 19   3.646428 0.364526 1.119313 -0.000002 -0.000014 -0.174510
 20   3.646422 0.364499 -1.117566 0.000007 -0.000003 -0.174546
 21   3.805634 1.330634 1.627658 0.000002 -0.000011 -0.000026
 22   -0.246060 -0.011889 0.516521 -0.000011 0.000031 0.000025
 23   3.805651 1.330659 -1.631083 0.000019 0.000002 -0.000024
 24   -0.246150 -0.011872 -0.516511 -0.000005 -0.000006 0.000048
 25   4.941364 1.997338 1.629330 0.000018 -0.000001 -0.000024
 26   4.941382 1.997366 -1.629410 -0.000001 0.000005 -0.000024
 27   2.930087 1.603639 1.514501 -0.000019 -0.000022 -0.000050
 28   2.932517 1.603245 -1.501142 -0.000002 -0.000009 -0.000024
 29   8.824059 0.150544 0.091743 0.000006 -0.000231 -0.174534
 30   2.111085 -0.561179 1.784320 -0.000008 -0.000682 0.000024
 31   2.121290 -0.561289 -1.853599 0.000000 0.000000 -0.000002
 32   -0.810489 -0.093824 3.127092 -0.015774 -3.142183 -0.278862
 33   14.298673 -0.408176 0.475484 -0.000100 -0.000042 -0.277288
 34   15.835795 0.581398 0.242756 -0.141974 0.005735 -0.000446
 35   -0.815868 -0.091229 -3.114430 -0.027800 3.137596 0.108176
 36   14.294526 -0.410349 -0.463635 0.000105 0.000060 -0.067909
 37   15.834409 0.579420 -0.284600 0.263180 -0.000420 0.174961
 38   1.139685 -3.453749 -2.823813 0.000000 -0.000072 -0.005375
 39   -4.457742 -1.054854 -0.746180 0.000048 -0.000204 -0.012424
 40   1.118101 -3.449769 3.237290 0.000000 -0.000071 -0.005376
 41   -4.433840 -1.059130 0.959566 0.000047 -0.000204 -0.012424
 42   -0.657468 1.697302 -2.661269 0.000959 0.012268 -0.000084
 43   -0.664068 1.698578 2.849845 -0.001212 -0.015266 0.000335
time 28
  0   0.243428 0.410169 1.832458 0.000000 0.000000 -1.571449
  1   -1.093036 0.000002 -0.326057 -1.570757 -1.570379 -0.000026
  2   2.262337 0.113614 0.064702 -0.069344 -0.007166 -0.103504
  3   2.380047 0.353302 0.047440 0.000000 -0.000040 -0.008632
  4   2.033756 0.190472 -0.000128 -0.078262 0.004327 0.056013
  5   2.451511 0.204909 -0.003447 0.000000 -0.000005 -0.017472
  6   7.247600 -0.397300 -0.109469 0.000001 0.000009 0.052298
  7   -2.022252 -0.104661 3.136172 -0.344699 -1.358691 -2.856952
  8   1.168026 -0.537438 -0.063437 0.123252 1.216163 0.275120
  9   6.790376 -0.619176 0.015206 -0.000324 -0.000352 -0.451448
 10   8.637599 0.544015 -0.090417 -1.570112 0.000362 -0.069282
 11   6.790465 -0.619039 0.017802 -0.001860 -0.011168 -0.331198
 12   -2.022474 -0.104699 -2.873818 0.298873 1.361771 -2.901984
 13   1.167898 -0.537463 0.063297 -0.157459 -1.241840 0.004207
 14   7.002743 -0.617765 -0.183752 0.000229 0.000250 -1.472970
 15   8.209042 0.615527 -0.255885 1.682906 -0.000063 -0.069646
 16   7.002735 -0.617911 -0.183641 0.013733 0.008101 -1.049647
 17   1.574674 0.609930 -0.000899 0.163537 -0.016701 0.099639
 18   -0.602177 0.511412 -0.000006 0.000000 0.000000 0.000000
 19   3.646428 0.364526 1.119313 -0.000002 -0.000014 -0.174510
 20   3.646422 0.364499 -1.117566 0.000007 -0.000003 -0.174546
 21   3.805634 1.330634 1.627658 0.000002 -0.000011 -0.000026
 22   -0.246060 -0.011889 0.516521 -0.000011 0.000031 0.000025
 23   3.805651 1.330659 -1.631083 0.000019 0.000002 -0.000024
 24   -0.246150 -0.011872 -0.516511 -0.000005 -0.000006 0.000048
 25   4.941364 1.997338 1.629330 0.000018 -0.000001 -0.000024
 26   4.941382 1.997366 -1.629410 -0.000001 0.000005 -0.000024
 27   2.930087 1.603639 1.514501 -0.000019 -0.000022 -0.000050
 28   2.932517 1.603245 -1.501142 -0.000002 -0.000009 -0.000024
 29   8.824059 0.150544 0.091743 0.000006 -0.000231 -0.174534
 30   2.111085 -0.561179 1.784320 -0.000008 -0.000682 0.000024
 31   2.121290 -0.561289 -1.853599 0.000000 0.000000 -0.000002
 32   -0.810489 -0.093824 3.127092 -0.015774 -3.142183 -0.276813
 33   14.298673 -0.408176 0.475484 -0.000100 -0.000042 -0.272683
 34   15.835795 0.581398 0.242756 -0.141974 0.005784 -0.003004
 35   -0.815868 -0.091229 -3.114430 -0.027800 3.137503 0.115297
 36   14.294526 -0.410349 -0.463635 0.000105 0.000060 -0.052460
 37   15.834409 0.579420 -0.284600 0.263180 -0.000420 0.167153
 38   1.139685 -3.453749 -2.823813 0.000000 -0.000024 -0.002504
 39   -4.457742 -1.054854 -0.746180 0.000024 -0.000084 -0.005805
 40   1.118101 -3.449769 3.237290 0.000000 -0.000023 -0.002505
 41   -4.433840 -1.059130 0.959566 0.000023 -0.000084 -0.005805
 42   -0.657468 1.697302 -2.680801 0.000431 0.005721 -0.000042
 43   -0.664068 1.698578 2.861564 -0.000575 -0.007138 0.000084
time 29
  0   0.243428 0.421888 1.840271 0.000000 0.000000 -1.571449
  1   -1.093036 0.000002 -0.326057 -1.570757 -1.570379 -0.000171
  2   2.262337 0.113614 0.064702 -0.069344 -0.007166 -0.103504
  3   2.380047 0.353302 0.047440 0.000000 -0.000040 -0.008632
  4   2.033756 0.190472 -0.000128 -0.078225 0.004638 0.058949
  5   2.451511 0.204909 -0.003447 0.000000 -0.000005 -0.017472
  6   7.247600 -0.397300 -0.109469 0.000001 0.000009 0.052298
  7   -2.022252 -0.104661 3.136172 -0.313833 -1.360853 -2.887474
  8   1.168026 -0.537438 -0.063437 0.108128 1.222251 0.273918
  9   6.790376 -0.619176 0.015206 -0.000324 -0.000352 -0.451448
 10   8.637599 0.544015 -0.090417 -1.570112 0.000362 -0.069282
 11   6.790465 -0.619039 0.017802 -0.001860 -0.011168 -0.331198
 12   -2.022474 -0.104699 -2.873818 0.298873 1.361771 -2.901984
 13   1.167898 -0.537463 0.063297 -0.149235 -1.244382 -0.004147
 14   7.002743 -0.617765 -0.183752 0.000229 0.000250 -1.472970
 15   8.209042 0.615527 -0.255885 1.682906 -0.000063 -0.069646
 16   7.002735 -0.617911 -0.183641 0.013733 0.008101 -1.049647
 17   1.574674 0.609930 -0.000899 0.163537 -0.016701 0.096534
 18   -0.602177 0.511412 -0.000006 0.000000 0.000000 0.000000
 19   3.646428 0.364526 1.119313 -0.000002 -0.000014 -0.174510
 20   3.646422 0.364499 -1.117566 0.000007 -0.000003 -0.174546
 21   3.805634 1.330634 1.627658 0.000002 -0.000011 -0.000026
 22   -0.246060 -0.011889 0.516521 -0.000011 0.000031 0.000025
 23   3.805651 1.330659 -1.631083 0.000019 0.000002 -0.000024
 24   -0.246150 -0.011872 -0.516511 -0.000005 -0.000006 0.000048
 25   4.941364 1.997338 1.629330 0.000018 -0.000001 -0.000024
 26   4.941382 1.997366 -1.629410 -0.000001 0.000005 -0.000024
 27   2.930087 1.603639 1.514501 -0.000019 -0.000022 -0.000050
 28   2.932517 1.603245 -1.501142 -0.000002 -0.000009 -0.000024
 29   8.824059 0.150544 0.091743 0.000006 -0.000231 -0.174534
 30   2.111085 -0.561179 1.784320 -0.000008 -0.000682 0.000024
 31   2.121290 -0.561289 -1.853599 0.000000 0.000000 -0.000002
 32   -0.810489 -0.093824 3.127092 -0.015774 -3.142183 -0.274877
 33   14.298673 -0.408176 0.475484 -0.000100 -0.000042 -0.268316
 34   15.835795 0.581398 0.242756 -0.141974 0.005857 -0.005518
 35   -0.815868 -0.091229 -3.114430 -0.027800 3.137503 0.123897
 36   14.294526 -0.410349 -0.463635 0.000105 0.000060 -0.034694
 37   15.834409 0.579420 -0.284600 0.263180 -0.000368 0.157621
 38   1.139685 -3.453749 -2.823813 0.000000 0.000000 -0.000610
 39   -4.457742 -1.054854 -0.746180 0.000000 -0.000024 -0.001514
 40   1.118101 -3.449769 3.237290 0.000000 0.000001 -0.000611
 41   -4.433840 -1.059130 0.959566 -0.000001 -0.000024 -0.001514
 42   -0.657468 1.697302 -2.688614 0.000108 0.001505 0.000000
 43   -0.664068 1.698578 2.869377 -0.000150 -0.001850 0.000042
time 30
  0   0.243428 0.429701 1.851990 0.000000 0.000000 -1.571449
  1   -1.093036 0.000002 -0.326057 -1.570757 -1.570379 -0.000026
  2   2.262337 0.113614 0.064702 -0.069344 -0.007166 -0.103504
  3   2.380047 0.353302 0.047440 0.000000 -0.000040 -0.008632
  4   2.033756 0.190472 -0.000128 -0.078225 0.004794 0.060544
  5   2.451511 0.204909 -0.003447 0.000000 -0.000005 -0.017472
  6   7.247600 -0.397300 -0.109469 0.000001 0.000009 0.052298
  7   -2.022252 -0.104661 3.136172 -0.299166 -1.361862 -2.901655
  8   1.168026 -0.537438 -0.063437 0.100471 1.225270 0.272969
  9   6.790376 -0.619176 0.015206 -0.000324 -0.000352 -0.451448
 10   8.637599 0.544015 -0.090417 -1.570112 0.000362 -0.069282
 11   6.790465 -0.619039 0.017802 -0.001860 -0.011168 -0.331198
 12   -2.022474 -0.104699 -2.873818 0.298873 1.361771 -2.901984
 13   1.167898 -0.537463 0.063297 -0.133208 -1.247179 -0.012743
 14   7.002743 -0.617765 -0.183752 0.000229 0.000250 -1.472970
 15   8.209042 0.615527 -0.255885 1.682906 -0.000063 -0.069646
 16   7.002735 -0.617911 -0.183641 0.013733 0.008101 -1.049647
 17   1.574674 0.609930 -0.000899 0.163537 -0.016701 0.095019
 18   -0.602177 0.511412 -0.000006 0.000000 0.000000 0.000000
 19   3.646428 0.364526 1.119313 -0.000002 -0.000014 -0.174510
 20   3.646422 0.364499 -1.117566 0.000007 -0.000003 -0.174546
 21   3.805634 1.330634 1.627658 0.000002 -0.000011 -0.000026
 22   -0.246060 -0.011889 0.516521 -0.000011 0.000031 0.000025
 23   3.805651 1.330659 -1.631083 0.000019 0.000002 -0.000024
 24   -0.246150 -0.011872 -0.516511 -0.000005 -0.000006 0.000048
 25   4.941364 1.997338 1.629330 0.000018 -0.000001 -0.000024
 26   4.941382 1.997366 -1.629410 -0.000001 0.000005 -0.000024
 27   2.930087 1.603639 1.514501 -0.000019 -0.000022 -0.000050
 28   2.932517 1.603245 -1.501142 -0.000002 -0.000009 -0.000024
 29   8.824059 0.150544 0.091743 0.000006 -0.000231 -0.174534
 30   2.111085 -0.561179 1.784320 -0.000008 -0.000682 0.000024
 31   2.121290 -0.561289 -1.853599 0.000000 0.000000 -0.000002
 32   -0.810489 -0.093824 3.127092 -0.015774 -3.142183 -0.273682
 33   14.298673 -0.408176 0.475484 -0.000100 -0.000042 -0.265537
 34   15.835795 0.581398 0.242756 -0.141974 0.005906 -0.006973
 35   -0.815868 -0.091229 -3.114430 -0.027624 3.136847 0.139508
 36   14.294526 -0.410349 -0.463635 0.000105 0.000060 -0.002329
 37   15.834409 0.579420 -0.284600 0.263180 -0.000368 0.141143
 38   1.139685 -3.453749 -2.823813 0.000000 0.000000 0.000001
 39   -4.457742 -1.054854 -0.746180 0.000000 0.000000 0.000000
 40   1.118101 -3.449769 3.237290 0.000000 0.000001 0.000000
 41   -4.433840 -1.059130 0.959566 -0.000001 0.000000 0.000000
 42   -0.657468 1.697302 -2.688614 0.000000 0.000002 0.000000
 43   -0.664068 1.698578 2.869377 0.000000 0.000002 0.000000
end
