version 1
nodes
  0 "Bip01" -1
  1 "Bip01 Pelvis" 0
  2 "Bip01 Spine" 1
  3 "Bip01 Spine1" 2
  4 "Bip01 Spine2" 3
  5 "Bip01 Spine3" 4
  6 "Bip01 Neck" 5
  7 "Bip01 L Arm" 6
  8 "Bip01 L Arm1" 7
  9 "Bip01 L Arm2" 8
 10 "Bip01 L Hand" 9
 11 "Bip06 L elbow2-smooth" 8
 12 "Bip01 R Arm" 6
 13 "Bip01 R Arm1" 12
 14 "Bip01 R Arm2" 13
 15 "Bip01 R Hand" 14
 16 "Bip06 R elbow2-smooth" 13
 17 "Bip01 Head" 6
 18 "Bip06 Head_helper" 17
 19 "Bip06 Head_eyes_l" 18
 20 "Bip06 Head_eyes_r" 18
 21 "Bip06 Head_blink_l" 18
 22 "Bip06 Head_blink_smooth_l1" 21
 23 "Bip06 Head_blink_r" 18
 24 "Bip06 Head_blink_smooth_r1" 23
 25 "Bip06 Head_L_eyebrow" 18
 26 "Bip06 Head_R_eyebrow" 18
 27 "Bip06 Head_blink_l_lid" 18
 28 "Bip06 Head_blink_r_lid" 18
 29 "Bip06 bunny" 18
 30 "Bip06 bunnyL" 29
 31 "Bip06 bunnyR" 29
 32 "Bip01 L Leg" 1
 33 "Bip01 L Leg1" 32
 34 "Bip01 L Foot" 33
 35 "Bip01 R Leg" 1
 36 "Bip01 R Leg1" 35
 37 "Bip01 R Foot" 36
 38 "Bip03 HairR1" 17
 39 "Bip03 HairR2" 38
 40 "Bip03 HairL1" 17
 41 "Bip03 HairL2" 40
 42 "Bip03 swingR" 17
 43 "Bip03 swingL" 17
end
skeleton
time 0
  0   0.020765 -0.546892 15.239118 0.000000 0.000000 -1.571069
  1   -1.093036 0.000002 -0.326057 -1.570652 -1.570379 -0.000123
  2   2.262337 0.113614 0.064702 -0.000014 0.000037 -0.086427
  3   2.380047 0.353302 0.047440 0.000000 -0.000016 0.008815
  4   2.033756 0.190472 -0.000128 -0.000010 0.000012 -0.139576
  5   2.451511 0.204909 -0.003447 0.000000 -0.000005 -0.017472
  6   7.247600 -0.397300 -0.109469 0.000001 -0.000003 0.418504
  7   -2.022252 -0.104661 3.136172 -0.298879 -1.361718 -2.901749
  8   1.168026 -0.537438 -0.063437 -0.449437 1.253295 -0.412774
  9   6.790376 -0.619176 0.015206 -0.009367 -0.035190 -0.050640
 10   8.637599 0.544015 -0.090417 -1.570112 0.000221 -0.122021
 11   6.790465 -0.619039 0.017802 -0.009597 -0.035244 -0.050552
 12   -2.022474 -0.104699 -2.873818 0.299065 1.362032 -2.901601
 13   1.167898 -0.537463 0.063297 0.452202 -1.252671 -0.417902
 14   7.002743 -0.617765 -0.183752 0.047142 0.002238 -0.046121
 15   8.209042 0.615527 -0.255885 1.570018 -0.000214 -0.121905
 16   7.002735 -0.617911 -0.183641 0.047532 0.002180 -0.050933
 17   1.574674 0.609930 -0.000899 0.000000 0.000008 -0.218669
 18   -0.602177 0.511412 -0.000006 0.000000 0.000000 0.000000
 19   3.677679 0.177020 1.119313 -0.000002 -0.000014 -0.174510
 20   3.673767 0.176993 -1.117566 0.000007 -0.000003 -0.174546
 21   3.938451 1.330634 1.627658 0.000002 -0.000011 -0.000026
 22   -0.246060 -0.011889 0.516521 -0.000011 0.000031 0.000025
 23   3.938468 1.330659 -1.631083 0.000019 0.000002 -0.000024
 24   -0.246150 -0.011872 -0.516511 -0.000005 -0.000006 0.000048
 25   4.941364 1.997338 1.629330 0.000018 -0.000001 -0.000024
 26   4.941382 1.997366 -1.629410 -0.000001 0.000005 -0.000024
 27   2.918368 1.615358 1.514501 -0.000019 -0.000022 -0.000050
 28   2.920798 1.614964 -1.501142 -0.000002 -0.000009 -0.000024
 29   8.824059 0.150544 0.091743 0.000006 -0.000231 -0.174534
 30   2.111085 -0.561179 1.784320 -0.000008 -0.000682 0.000024
 31   2.121290 -0.561289 -1.853599 0.000000 0.000000 -0.000002
 32   -0.810489 -0.093824 3.127092 0.031110 -3.131105 0.064436
 33   14.298673 -0.408176 0.475484 -0.000064 -0.000210 0.033715
 34   15.835795 0.581398 0.242756 -0.003042 -0.010786 -0.001416
 35   -0.815868 -0.091229 -3.114430 -0.032377 3.148371 0.064410
 36   14.294526 -0.410349 -0.463635 0.000057 0.000287 0.033667
 37   15.834409 0.579420 -0.284600 0.003070 0.010894 0.015959
 38   1.139685 -3.453749 -2.823813 0.000000 0.000000 0.000001
 39   -4.457742 -1.054854 -0.746180 0.000000 0.000000 0.000000
 40   1.118101 -3.449769 3.237290 0.000000 0.000001 0.000000
 41   -4.433840 -1.059130 0.959566 -0.000001 0.000000 0.000000
 42   -0.657468 1.697302 -2.688614 0.000000 0.000002 0.000000
 43   -0.664068 1.698578 2.869377 0.000000 0.000002 0.000000
time 1
  0   0.020765 -0.546892 15.239118 0.126483 0.000000 -1.571069
  1   -1.093036 0.000002 -0.326057 -1.570390 -1.570379 -0.000365
  2   2.262337 0.113614 0.064702 -0.000014 0.000037 -0.086427
  3   2.380047 0.353302 0.047440 0.030362 0.002836 0.078439
  4   2.033756 0.190472 -0.000128 0.046908 0.010379 -0.087308
  5   2.451511 0.204909 -0.003447 0.000000 -0.000005 -0.017472
  6   7.247600 -0.397300 -0.109469 0.000001 -0.000003 0.418504
  7   -2.022252 -0.104661 3.136172 -0.298879 -1.361718 -2.901749
  8   1.168026 -0.537438 -0.063437 -0.314206 1.168767 -0.178331
  9   6.790376 -0.619176 0.015206 -0.009367 -0.035190 -0.220442
 10   8.637599 0.544015 -0.090417 -1.570112 0.000221 -0.122021
 11   6.790465 -0.619039 0.017802 -0.009626 -0.035244 -0.169535
 12   -2.022474 -0.104699 -2.873818 0.299065 1.362032 -2.901601
 13   1.167898 -0.537463 0.063297 0.372348 -1.183664 -0.342839
 14   7.002743 -0.617765 -0.183752 0.047142 0.002238 -0.207007
 15   8.209042 0.615527 -0.255885 1.570018 -0.000214 -0.121905
 16   7.002735 -0.617911 -0.183641 0.047532 0.002180 -0.163416
 17   1.574674 0.609930 -0.000899 0.075838 0.018657 -0.156760
 18   -0.602177 0.511412 -0.000006 0.000000 0.000000 0.000000
 19   3.677679 0.177020 1.119313 -0.000002 -0.000014 -0.174510
 20   3.677673 0.176993 -1.117566 0.000007 -0.000003 -0.174546
 21   3.938451 1.330634 1.627658 0.000002 -0.000011 -0.000026
 22   -0.246060 -0.011889 0.516521 -0.000011 0.000031 0.000025
 23   3.942374 1.330659 -1.631083 0.000019 0.000002 -0.000024
 24   -0.246150 -0.011872 -0.516511 -0.000005 -0.000006 0.000048
 25   4.941364 1.997338 1.629330 0.000018 -0.000001 -0.000024
 26   4.941382 1.997366 -1.629410 -0.000001 0.000005 -0.000024
 27   2.918368 1.615358 1.514501 -0.000019 -0.000022 -0.000050
 28   2.920798 1.614964 -1.501142 -0.000002 -0.000009 -0.000024
 29   8.824059 0.150544 0.091743 -0.004539 0.000813 -0.147066
 30   2.111085 -0.561179 1.784320 -0.000008 -0.000682 0.000024
 31   2.121290 -0.561289 -1.853599 0.000000 0.000000 -0.000002
 32   -0.810489 -0.093824 3.127092 0.039592 -3.065779 0.194218
 33   14.298673 -0.408176 0.475484 0.164868 -0.003454 -0.587020
 34   15.835795 0.581398 0.242756 -0.003042 -0.010786 -0.001416
 35   -0.815868 -0.091229 -3.114430 -0.148116 3.081008 0.108286
 36   14.294526 -0.410349 -0.463635 0.010459 -0.060127 -0.048984
 37   15.834409 0.579420 -0.284600 0.003070 0.010894 0.089883
 38   1.147498 -3.449842 -2.823813 -0.004315 0.000506 0.084006
 39   -4.465555 -1.043135 -0.746180 0.005825 -0.001055 0.031916
 40   1.110288 -3.449769 3.237290 -0.004315 0.000507 0.084005
 41   -4.426027 -1.070849 0.959566 0.005824 -0.001055 0.031916
 42   -0.587153 1.740272 -2.688614 0.000623 0.001689 -0.030069
 43   -0.593753 1.737642 2.869377 0.000625 0.001697 -0.030069
time 2
  0   0.020765 -0.546892 15.239118 0.253048 0.000000 -1.571069
  1   -1.093036 0.000002 -0.326057 -1.572329 -1.570379 0.001087
  2   2.262337 0.113614 0.064702 -0.000014 0.000037 -0.086427
  3   2.380047 0.353302 0.047440 0.060994 0.003639 0.148287
  4   2.033756 0.190472 -0.000128 0.094324 0.018253 -0.034315
  5   2.451511 0.204909 -0.003447 0.000000 -0.000005 -0.017472
  6   7.247600 -0.397300 -0.109469 0.000001 -0.000003 0.418504
  7   -2.022252 -0.104661 3.136172 -0.298879 -1.361776 -2.901749
  8   1.168026 -0.537438 -0.063437 -0.245800 1.076742 -0.008856
  9   6.790376 -0.619176 0.015206 -0.009367 -0.035190 -0.390621
 10   8.637599 0.544015 -0.090417 -1.570112 0.000221 -0.122021
 11   6.790465 -0.619039 0.017802 -0.009626 -0.035244 -0.288634
 12   -2.022474 -0.104699 -2.873818 0.299065 1.362032 -2.901601
 13   1.167898 -0.537463 0.063297 0.315831 -1.113283 -0.291324
 14   7.002743 -0.617765 -0.183752 0.047142 0.002238 -0.368223
 15   8.209042 0.615527 -0.255885 1.570018 -0.000214 -0.121905
 16   7.002735 -0.617911 -0.183641 0.047532 0.002180 -0.276451
 17   1.574674 0.609930 -0.000899 0.152813 0.032716 -0.093556
 18   -0.602177 0.511412 -0.000006 0.000000 0.000000 0.000000
 19   3.673773 0.177020 1.119313 -0.000002 -0.000014 -0.174510
 20   3.673767 0.176993 -1.117566 0.000007 -0.000003 -0.174546
 21   3.938451 1.330634 1.627658 0.000002 -0.000011 -0.000026
 22   -0.246060 -0.011889 0.516521 -0.000011 0.000031 0.000025
 23   3.938468 1.330659 -1.631083 0.000019 0.000002 -0.000024
 24   -0.246150 -0.011872 -0.516511 -0.000005 -0.000006 0.000048
 25   4.941364 1.997338 1.629330 0.000018 -0.000001 -0.000024
 26   4.941382 1.997366 -1.629410 -0.000001 0.000005 -0.000024
 27   2.918368 1.615358 1.514501 -0.000019 -0.000022 -0.000050
 28   2.920798 1.614964 -1.501142 -0.000002 -0.000009 -0.000024
 29   8.824059 0.150544 0.091743 -0.017105 0.003638 -0.074319
 30   2.111085 -0.561179 1.784320 -0.000008 -0.000682 0.000024
 31   2.121290 -0.561289 -1.853599 0.000000 0.000000 -0.000002
 32   -0.810489 -0.093824 3.127092 0.039965 -2.999786 0.324342
 33   14.298673 -0.408176 0.475484 0.301289 0.089577 -1.202117
 34   15.835795 0.581398 0.242756 -0.003042 -0.010786 -0.001416
 35   -0.815868 -0.091229 -3.114430 -0.261566 3.008306 0.144328
 36   14.294526 -0.410349 -0.463635 0.026075 -0.119463 -0.132331
 37   15.834409 0.579420 -0.284600 0.003129 0.010894 0.163908
 38   1.178749 -3.445936 -2.823813 -0.015808 0.001904 0.305657
 39   -4.496806 -0.984539 -0.746180 0.021189 -0.003847 0.116109
 40   1.079037 -3.457582 3.237290 -0.015808 0.001905 0.305656
 41   -4.394776 -1.129445 0.959566 0.021188 -0.003847 0.116109
 42   -0.403554 1.865276 -2.672988 0.002337 0.006166 -0.109446
 43   -0.390622 1.835301 2.881096 0.002324 0.006169 -0.109446
time 3
  0   0.020765 -0.546892 15.239118 0.379366 0.000000 -1.571069
  1   -1.093036 0.000002 -0.326057 -1.570966 -1.570379 0.000216
  2   2.262337 0.113614 0.064702 -0.000014 0.000037 -0.086427
  3   2.380047 0.353302 0.047440 0.091596 0.002381 0.218115
  4   2.033756 0.190472 -0.000128 0.142090 0.023682 0.018787
  5   2.451511 0.204909 -0.003447 0.000000 -0.000005 -0.017472
  6   7.247600 -0.397300 -0.109469 0.000001 -0.000003 0.418504
  7   -2.022252 -0.104661 3.136172 -0.298879 -1.361718 -2.901749
  8   1.168026 -0.537438 -0.063437 -0.215742 0.981296 0.124497
  9   6.790376 -0.619176 0.015206 -0.009367 -0.035190 -0.560951
 10   8.637599 0.544015 -0.090417 -1.570112 0.000221 -0.122021
 11   6.790465 -0.619039 0.017802 -0.009626 -0.035301 -0.407848
 12   -2.022474 -0.104699 -2.873818 0.299065 1.362032 -2.901601
 13   1.167898 -0.537463 0.063297 0.273655 -1.041886 -0.254095
 14   7.002743 -0.617765 -0.183752 0.047142 0.002238 -0.529686
 15   8.209042 0.615527 -0.255885 1.570018 -0.000214 -0.121905
 16   7.002735 -0.617911 -0.183641 0.047532 0.002293 -0.389486
 17   1.574674 0.609930 -0.000899 0.230641 0.041804 -0.029503
 18   -0.602177 0.511412 -0.000006 0.000000 0.000000 0.000000
 19   3.673773 0.177020 1.119313 -0.000002 -0.000014 -0.174510
 20   3.673767 0.176993 -1.117566 0.000007 -0.000003 -0.174546
 21   3.938451 1.330634 1.627658 0.000002 -0.000011 -0.000026
 22   -0.246060 -0.011889 0.516521 -0.000011 0.000031 0.000025
 23   3.938468 1.330659 -1.631083 0.000019 0.000002 -0.000024
 24   -0.246150 -0.011872 -0.516511 -0.000005 -0.000006 0.000048
 25   4.941364 1.997338 1.629330 0.000018 -0.000001 -0.000024
 26   4.941382 1.997366 -1.629410 -0.000001 0.000005 -0.000024
 27   2.918368 1.615358 1.514501 -0.000019 -0.000022 -0.000050
 28   2.920798 1.614964 -1.501142 -0.000002 -0.000009 -0.000024
 29   8.824059 0.150544 0.091743 -0.034662 0.007626 0.028309
 30   2.111085 -0.561179 1.784320 -0.000008 -0.000682 0.000024
 31   2.121290 -0.561289 -1.853599 0.000000 0.000000 -0.000002
 32   -0.810489 -0.093824 3.127092 0.031203 -2.934174 0.455946
 33   14.298673 -0.408176 0.475484 0.360025 0.244049 -1.813403
 34   15.835795 0.581398 0.242756 -0.003042 -0.010786 -0.001416
 35   -0.815868 -0.091229 -3.114430 -0.374049 2.932230 0.172483
 36   14.294526 -0.410349 -0.463635 0.046820 -0.177288 -0.217840
 37   15.834409 0.579420 -0.284600 0.003129 0.010894 0.238237
 38   1.229532 -3.426404 -2.823813 -0.032016 0.003844 0.618949
 39   -4.547589 -0.918131 -0.738367 0.042917 -0.007826 0.235164
 40   1.032161 -3.477114 3.237290 -0.032016 0.003845 0.619010
 41   -4.343993 -1.195853 0.951753 0.042916 -0.007826 0.235164
 42   -0.141827 2.044969 -2.657363 0.004722 0.012483 -0.221652
 43   -0.113270 1.983743 2.900628 0.004723 0.012477 -0.221652
time 4
  0   0.020765 -0.546892 15.239118 0.506096 0.000000 -1.571069
  1   -1.093036 0.000002 -0.326057 -1.570285 -1.570379 0.000748
  2   2.262337 0.113614 0.064702 -0.000014 0.000037 -0.086427
  3   2.380047 0.353302 0.047440 0.122033 -0.001047 0.287861
  4   2.033756 0.190472 -0.000128 0.190096 0.026522 0.072288
  5   2.451511 0.204909 -0.003447 0.000000 -0.000005 -0.017472
  6   7.247600 -0.397300 -0.109469 0.000001 -0.000003 0.418504
  7   -2.022252 -0.104661 3.136172 -0.298879 -1.361718 -2.901749
  8   1.168026 -0.537438 -0.063437 -0.209667 0.884743 0.237227
  9   6.790376 -0.619176 0.015206 -0.009367 -0.035190 -0.731055
 10   8.637599 0.544015 -0.090417 -1.570112 0.000221 -0.122021
 11   6.790465 -0.619039 0.017802 -0.009626 -0.035301 -0.526831
 12   -2.022474 -0.104699 -2.873818 0.299065 1.362032 -2.901601
 13   1.167898 -0.537463 0.063297 0.240616 -0.969776 -0.226249
 14   7.002743 -0.617765 -0.183752 0.047142 0.002238 -0.691314
 15   8.209042 0.615527 -0.255885 1.570018 -0.000214 -0.121905
 16   7.002735 -0.617911 -0.183641 0.047532 0.002293 -0.502521
 17   1.574674 0.609930 -0.000899 0.308835 0.045922 0.035068
 18   -0.602177 0.511412 -0.000006 0.000000 0.000000 0.000000
 19   3.673773 0.177020 1.119313 -0.000002 -0.000014 -0.174510
 20   3.673767 0.176993 -1.117566 0.000007 -0.000003 -0.174546
 21   3.942357 1.330634 1.627658 0.000002 -0.000011 -0.000026
 22   -0.246060 -0.011889 0.516521 -0.000011 0.000031 0.000025
 23   3.942374 1.330659 -1.631083 0.000019 0.000002 -0.000024
 24   -0.246150 -0.011872 -0.516511 -0.000005 -0.000006 0.000048
 25   4.941364 1.997338 1.629330 0.000018 -0.000001 -0.000024
 26   4.941382 1.997366 -1.629410 -0.000001 0.000005 -0.000024
 27   2.918368 1.615358 1.514501 -0.000019 -0.000022 -0.000050
 28   2.920798 1.614964 -1.501142 -0.000002 -0.000009 -0.000024
 29   8.824059 0.150544 0.091743 -0.054803 0.012208 0.146121
 30   2.111085 -0.561179 1.784320 -0.000008 -0.000682 0.000024
 31   2.121290 -0.561289 -1.853599 0.000000 0.000000 -0.000002
 32   -0.810489 -0.093824 3.127092 0.014332 -2.870377 0.590396
 33   14.298673 -0.408176 0.475484 0.314652 0.403356 -2.448985
 34   15.835795 0.581398 0.242756 -0.003042 -0.010786 -0.001416
 35   -0.815868 -0.091229 -3.114430 -0.486179 2.853438 0.191874
 36   14.294526 -0.410349 -0.463635 0.072791 -0.233100 -0.305589
 37   15.834409 0.579420 -0.284600 0.003149 0.010894 0.312262
 38   1.276408 -3.410779 -2.816000 -0.050581 0.006098 0.978185
 39   -4.598372 -0.832191 -0.734461 0.067821 -0.012368 0.371606
 40   0.981378 -3.492739 3.229477 -0.050581 0.006099 0.978123
 41   -4.297117 -1.281793 0.947847 0.067820 -0.012368 0.371606
 42   0.162870 2.255913 -2.630018 0.007454 0.019735 -0.350294
 43   0.210959 2.151717 2.924066 0.007459 0.019710 -0.350294
time 5
  0   0.020765 -0.546892 15.239118 1.055784 0.000000 -1.571069
  1   -1.093036 0.000002 -0.326057 -1.569499 -1.570379 -0.000655
  2   2.262337 0.113614 0.064702 -0.003351 0.039070 -0.086482
  3   2.380047 0.353302 0.047440 0.096186 0.041475 0.220135
  4   2.033756 0.190472 -0.000128 0.139711 0.067246 0.022013
  5   2.451511 0.204909 -0.003447 0.000000 -0.000005 -0.017472
  6   7.247600 -0.397300 -0.109469 0.000001 -0.000003 0.418504
  7   -2.022252 -0.104661 3.136172 -0.298879 -1.361718 -2.901749
  8   1.168026 -0.537438 -0.063437 -1.021492 0.652140 -0.632857
  9   6.790376 -0.619176 0.015206 -0.009367 -0.035190 -0.683133
 10   8.637599 0.544015 -0.090417 -1.570024 0.000221 -0.122021
 11   6.790465 -0.619039 0.017802 -0.009626 -0.035301 -0.493322
 12   -2.022474 -0.104699 -2.873818 0.299065 1.362032 -2.901601
 13   1.167898 -0.537463 0.063297 0.938707 -0.597278 -0.978212
 14   7.002743 -0.617765 -0.183752 0.047142 0.002238 -0.634550
 15   8.209042 0.615527 -0.255885 1.570018 -0.000214 -0.121905
 16   7.002735 -0.617911 -0.183641 0.047532 0.002293 -0.462782
 17   1.574674 0.609930 -0.000899 0.229869 0.051105 -0.107823
 18   -0.602177 0.511412 -0.000006 0.000000 0.000000 0.000000
 19   3.677679 0.177020 1.119313 -0.000002 -0.000014 -0.174510
 20   3.673767 0.176993 -1.117566 0.000007 -0.000003 -0.174546
 21   3.938451 1.330634 1.627658 0.000002 -0.000011 -0.000026
 22   -0.246060 -0.011889 0.516521 -0.000011 0.000031 0.000025
 23   3.938468 1.330659 -1.631083 0.000019 0.000002 -0.000024
 24   -0.246150 -0.011872 -0.516511 -0.000005 -0.000006 0.000048
 25   4.941364 1.997338 1.629330 0.000018 -0.000001 -0.000024
 26   4.941382 1.997366 -1.629410 -0.000001 0.000005 -0.000024
 27   2.918368 1.615358 1.514501 -0.000019 -0.000022 -0.000050
 28   2.920798 1.614964 -1.501142 -0.000002 -0.000009 -0.000024
 29   8.824059 0.150544 0.091743 -0.074855 0.016813 0.263825
 30   2.111085 -0.561179 1.784320 -0.000008 -0.000682 0.000024
 31   2.121290 -0.561289 -1.853599 0.000000 0.000000 -0.000002
 32   -0.810489 -0.093824 3.127092 0.002215 -2.827687 0.463403
 33   14.298673 -0.408176 0.475484 0.360025 0.244049 -1.813403
 34   15.835795 0.581398 0.242756 -0.003042 -0.010786 -0.001416
 35   -0.815868 -0.091229 -3.114430 -0.333298 3.109021 -0.042403
 36   14.294526 -0.410349 -0.463635 0.115252 -0.168827 -0.900060
 37   15.834409 0.579420 -0.284600 0.003129 0.010894 0.238237
 38   1.327191 -3.391247 -2.816000 -0.069146 0.008339 1.337359
 39   -4.645248 -0.750157 -0.726648 0.092725 -0.016910 0.508049
 40   0.930595 -3.512271 3.229477 -0.069146 0.008328 1.337420
 41   -4.246334 -1.363827 0.940034 0.092724 -0.016910 0.508049
 42   0.463660 2.459044 -2.614393 0.010223 0.026972 -0.478893
 43   0.531281 2.319691 2.943598 0.010208 0.026976 -0.478893
time 6
  0   0.020765 -0.546892 15.239118 1.605389 0.000000 -1.571069
  1   -1.093036 0.000002 -0.326057 -1.570809 -1.570379 -0.000123
  2   2.262337 0.113614 0.064702 -0.006739 0.078140 -0.086680
  3   2.380047 0.353302 0.047440 0.067475 0.082114 0.151144
  4   2.033756 0.190472 -0.000128 0.087113 0.105357 -0.030436
  5   2.451511 0.204909 -0.003447 0.000000 -0.000005 -0.017472
  6   7.247600 -0.397300 -0.109469 0.000001 -0.000003 0.418504
  7   -2.022252 -0.104661 3.136172 -0.298879 -1.361718 -2.901749
  8   1.168026 -0.537438 -0.063437 -1.373268 0.125852 -1.058663
  9   6.790376 -0.619176 0.015206 -0.009367 -0.035190 -0.635060
 10   8.637599 0.544015 -0.090417 -1.570112 0.000221 -0.122021
 11   6.790465 -0.619039 0.017802 -0.009626 -0.035301 -0.459640
 12   -2.022474 -0.104699 -2.873818 0.299065 1.362032 -2.901601
 13   1.167898 -0.537463 0.063297 1.189939 -0.038759 -1.300741
 14   7.002743 -0.617765 -0.183752 0.047142 0.002238 -0.577869
 15   8.209042 0.615527 -0.255885 1.570018 -0.000214 -0.121905
 16   7.002735 -0.617911 -0.183641 0.047532 0.002293 -0.423098
 17   1.574674 0.609930 -0.000899 0.150985 0.045070 -0.250752
 18   -0.602177 0.511412 -0.000006 0.000000 0.000000 0.000000
 19   3.673773 0.177020 1.119313 -0.000002 -0.000014 -0.174510
 20   3.673767 0.176993 -1.117566 0.000007 -0.000003 -0.174546
 21   3.938451 1.330634 1.627658 0.000002 -0.000011 -0.000026
 22   -0.246060 -0.011889 0.516521 -0.000011 0.000031 0.000025
 23   3.938468 1.330659 -1.631083 0.000019 0.000002 -0.000024
 24   -0.246150 -0.011872 -0.516511 -0.000005 -0.000006 0.000048
 25   4.941364 1.997338 1.629330 0.000018 -0.000001 -0.000024
 26   4.941382 1.997366 -1.629410 -0.000001 0.000005 -0.000024
 27   2.918368 1.615358 1.514501 -0.000019 -0.000022 -0.000050
 28   2.920798 1.614964 -1.501142 -0.000002 -0.000009 -0.000024
 29   8.824059 0.150544 0.091743 -0.092412 0.020825 0.366561
 30   2.111085 -0.561179 1.784320 -0.000008 -0.000682 0.000024
 31   2.121290 -0.561289 -1.853599 0.000000 0.000000 -0.000002
 32   -0.810489 -0.093824 3.127092 -0.004216 -2.784136 0.334929
 33   14.298673 -0.408176 0.475484 0.301289 0.089577 -1.202117
 34   15.835795 0.581398 0.242756 -0.003042 -0.010786 -0.001416
 35   -0.815868 -0.091229 -3.114430 -0.122679 3.317854 -0.316612
 36   14.294526 -0.410349 -0.463635 0.114042 -0.092270 -1.485570
 37   15.834409 0.579420 -0.284600 0.003129 0.010894 0.163908
 38   1.377974 -3.379528 -2.816000 -0.085354 0.010279 1.650774
 39   -4.696031 -0.675936 -0.718835 0.114453 -0.020877 0.627103
 40   0.879812 -3.523990 3.229477 -0.085354 0.010280 1.650774
 41   -4.195551 -1.438048 0.932221 0.114452 -0.020877 0.627103
 42   0.725387 2.638737 -2.594861 0.012620 0.033273 -0.591099
 43   0.816446 2.468133 2.963130 0.012607 0.033284 -0.591099
time 7
  0   0.020765 -0.546892 15.239118 2.155242 0.000000 -1.571069
  1   -1.093036 0.000002 -0.326057 -1.572433 -1.570379 -0.000026
  2   2.262337 0.113614 0.064702 -0.010191 0.117306 -0.087006
  3   2.380047 0.353302 0.047440 0.035777 0.120777 0.080765
  4   2.033756 0.190472 -0.000128 0.032357 0.140543 -0.085097
  5   2.451511 0.204909 -0.003447 0.000000 -0.000005 -0.017472
  6   7.247600 -0.397300 -0.109469 0.000001 -0.000003 0.418504
  7   -2.022252 -0.104661 3.136172 -0.298879 -1.361718 -2.901749
  8   1.168026 -0.537438 -0.063437 -1.507486 -0.476108 -1.320498
  9   6.790376 -0.619176 0.015206 -0.009367 -0.035190 -0.587063
 10   8.637599 0.544015 -0.090417 -1.570112 0.000221 -0.122021
 11   6.790465 -0.619039 0.017802 -0.009626 -0.035301 -0.426131
 12   -2.022474 -0.104699 -2.873818 0.299065 1.362032 -2.901601
 13   1.167898 -0.537463 0.063297 1.276400 0.561357 -1.517879
 14   7.002743 -0.617765 -0.183752 0.047142 0.002238 -0.521188
 15   8.209042 0.615527 -0.255885 1.570018 -0.000214 -0.121905
 16   7.002735 -0.617911 -0.183641 0.047532 0.002293 -0.383415
 17   1.574674 0.609930 -0.000899 0.073766 0.027817 -0.392645
 18   -0.602177 0.511412 -0.000006 0.000000 0.000000 0.000000
 19   3.677679 0.177020 1.119313 -0.000002 -0.000014 -0.174510
 20   3.673767 0.176993 -1.117566 0.000007 -0.000003 -0.174546
 21   3.942357 1.330634 1.627658 0.000002 -0.000011 -0.000026
 22   -0.246060 -0.011889 0.516521 -0.000011 0.000031 0.000025
 23   3.942374 1.330659 -1.631083 0.000019 0.000002 -0.000024
 24   -0.246150 -0.011872 -0.516511 -0.000005 -0.000006 0.000048
 25   4.941364 1.997338 1.629330 0.000018 -0.000001 -0.000024
 26   4.941382 1.997366 -1.629410 -0.000001 0.000005 -0.000024
 27   2.918368 1.615358 1.514501 -0.000019 -0.000022 -0.000050
 28   2.920798 1.614964 -1.501142 -0.000002 -0.000009 -0.000024
 29   8.824059 0.150544 0.091743 -0.104889 0.023626 0.439254
 30   2.111085 -0.561179 1.784320 -0.000008 -0.000682 0.000024
 31   2.121290 -0.561289 -1.853599 0.000000 0.000000 -0.000002
 32   -0.810489 -0.093824 3.127092 -0.004496 -2.740013 0.204464
 33   14.298673 -0.408176 0.475484 0.164868 -0.003454 -0.587020
 34   15.835795 0.581398 0.242756 -0.003042 -0.010786 -0.001416
 35   -0.815868 -0.091229 -3.114430 0.147525 3.455858 -0.642090
 36   14.294526 -0.410349 -0.463635 0.070754 -0.029087 -2.068686
 37   15.834409 0.579420 -0.284600 0.003070 0.010894 0.089883
 38   1.409225 -3.371715 -2.816000 -0.096826 0.011677 1.872364
 39   -4.727282 -0.625153 -0.714929 0.129805 -0.023694 0.711296
 40   0.852468 -3.531803 3.229477 -0.096826 0.011666 1.872364
 41   -4.164300 -1.488831 0.928315 0.129804 -0.023694 0.711296
 42   0.908986 2.763741 -2.583142 0.014310 0.037750 -0.670476
 43   1.015671 2.577511 2.974849 0.014306 0.037756 -0.670476
time 8
  0   0.020765 -0.546892 15.239118 2.705095 0.000000 -1.571069
  1   -1.093036 0.000002 -0.326057 -1.570075 -1.570379 -0.000268
  2   2.262337 0.113614 0.064702 -0.013605 0.156448 -0.087512
  3   2.380047 0.353302 0.047440 0.001245 0.156970 0.008876
  4   2.033756 0.190472 -0.000128 -0.024428 0.172794 -0.141497
  5   2.451511 0.204909 -0.003447 0.000000 -0.000005 -0.017472
  6   7.247600 -0.397300 -0.109469 0.000001 -0.000003 0.418504
  7   -2.022252 -0.104661 3.136172 -0.298879 -1.361718 -2.901749
  8   1.168026 -0.537438 -0.063437 -1.439586 -1.090597 -1.657043
  9   6.790376 -0.619176 0.015206 -0.009367 -0.035190 -0.539141
 10   8.637599 0.544015 -0.090417 -1.570112 0.000221 -0.122021
 11   6.790465 -0.619039 0.017802 -0.009597 -0.035301 -0.392564
 12   -2.022474 -0.104699 -2.873818 0.299065 1.362032 -2.901601
 13   1.167898 -0.537463 0.063297 1.149871 1.162287 -1.859053
 14   7.002743 -0.617765 -0.183752 0.047142 0.002238 -0.464424
 15   8.209042 0.615527 -0.255885 1.570018 -0.000214 -0.121905
 16   7.002735 -0.617911 -0.183641 0.047532 0.002293 -0.343621
 17   1.574674 0.609930 -0.000899 0.000000 0.000008 -0.532727
 18   -0.602177 0.511412 -0.000006 0.000000 0.000000 0.000000
 19   3.673773 0.177020 1.119313 -0.000002 -0.000014 -0.174510
 20   3.673767 0.176993 -1.117566 0.000007 -0.000003 -0.174546
 21   3.938451 1.330634 1.627658 0.000002 -0.000011 -0.000026
 22   -0.246060 -0.011889 0.516521 -0.000011 0.000031 0.000025
 23   3.938468 1.330659 -1.631083 0.000019 0.000002 -0.000024
 24   -0.246150 -0.011872 -0.516511 -0.000005 -0.000006 0.000048
 25   4.941364 1.997338 1.629330 0.000018 -0.000001 -0.000024
 26   4.941382 1.997366 -1.629410 -0.000001 0.000005 -0.000024
 27   2.918368 1.615358 1.514501 -0.000019 -0.000022 -0.000050
 28   2.920798 1.614964 -1.501142 -0.000002 -0.000009 -0.000024
 29   8.824059 0.150544 0.091743 -0.109612 0.024718 0.466829
 30   2.111085 -0.561179 1.784320 -0.000008 -0.000682 0.000024
 31   2.121290 -0.561289 -1.853599 0.000000 0.000000 -0.000002
 32   -0.810489 -0.093824 3.127092 0.001376 -2.696272 0.071551
 33   14.298673 -0.408176 0.475484 -0.000064 -0.000210 0.033715
 34   15.835795 0.581398 0.242756 -0.003042 -0.010786 -0.001416
 35   -0.815868 -0.091229 -3.114430 0.458392 3.496800 -1.004434
 36   14.294526 -0.410349 -0.463635 -0.000051 -0.000180 -2.653655
 37   15.834409 0.579420 -0.284600 0.003070 0.010894 0.015959
 38   1.420944 -3.359996 -2.808187 -0.101183 0.012183 1.956430
 39   -4.739001 -0.609528 -0.714929 0.135642 -0.024748 0.743240
 40   0.836842 -3.543522 3.221664 -0.101183 0.012184 1.956430
 41   -4.152581 -1.504456 0.928315 0.135641 -0.024748 0.743240
 42   0.983207 2.814524 -2.575329 0.014957 0.039452 -0.700587
 43   1.089892 2.616575 2.982662 0.014943 0.039466 -0.700587
end
