version 1
nodes
  0 "Bip01" -1
  1 "Bip01 Pelvis" 0
  2 "Bip01 Spine" 1
  3 "Bip01 Spine1" 2
  4 "Bip01 Spine2" 3
  5 "Bip01 Spine3" 4
  6 "Bip01 Neck" 5
  7 "Bip01 L Arm" 6
  8 "Bip01 L Arm1" 7
  9 "Bip01 L Arm2" 8
 10 "Bip01 L Hand" 9
 11 "Bip06 L elbow2-smooth" 8
 12 "Bip01 R Arm" 6
 13 "Bip01 R Arm1" 12
 14 "Bip01 R Arm2" 13
 15 "Bip01 R Hand" 14
 16 "Bip06 R elbow2-smooth" 13
 17 "Bip01 Head" 6
 18 "Bip06 Head_helper" 17
 19 "Bip06 Head_eyes_l" 18
 20 "Bip06 Head_eyes_r" 18
 21 "Bip06 Head_blink_l" 18
 22 "Bip06 Head_blink_smooth_l1" 21
 23 "Bip06 Head_blink_r" 18
 24 "Bip06 Head_blink_smooth_r1" 23
 25 "Bip06 Head_L_eyebrow" 18
 26 "Bip06 Head_R_eyebrow" 18
 27 "Bip06 Head_blink_l_lid" 18
 28 "Bip06 Head_blink_r_lid" 18
 29 "Bip06 bunny" 18
 30 "Bip06 bunnyL" 29
 31 "Bip06 bunnyR" 29
 32 "Bip01 L Leg" 1
 33 "Bip01 L Leg1" 32
 34 "Bip01 L Foot" 33
 35 "Bip01 R Leg" 1
 36 "Bip01 R Leg1" 35
 37 "Bip01 R Foot" 36
 38 "Bip03 HairR1" 17
 39 "Bip03 HairR2" 38
 40 "Bip03 HairL1" 17
 41 "Bip03 HairL2" 40
 42 "Bip03 swingR" 17
 43 "Bip03 swingL" 17
end
skeleton
time 0
  0   0.243428 0.039064 -1.741870 0.000000 0.000000 -1.659038
  1   -1.093036 0.000002 -0.326057 -1.570599 -1.570379 -0.000268
  2   2.262337 0.113614 0.064702 -0.000052 0.000073 0.166366
  3   2.380047 0.353302 0.047440 0.000000 -0.000028 0.156939
  4   2.033756 0.190472 -0.000128 -0.000010 0.000024 0.130573
  5   2.451511 0.204909 -0.003447 0.000000 -0.000005 0.148110
  6   7.247600 -0.397300 -0.109469 0.000001 0.000009 0.052298
  7   -2.022252 -0.104661 3.136172 -0.159405 -1.174577 -3.047314
  8   1.168026 -0.537438 -0.063437 -0.569986 0.941447 -0.642346
  9   6.790376 -0.619176 0.015206 -0.000324 -0.000352 -0.660342
 10   8.637599 0.544015 -0.090417 -1.570112 0.000362 -0.052064
 11   6.790465 -0.619039 0.017802 -0.001013 -0.011310 -0.477404
 12   -2.022474 -0.104699 -2.873818 0.298873 1.361771 -2.901792
 13   1.167898 -0.537463 0.063297 0.939270 -1.179697 -0.974943
 14   7.002743 -0.617765 -0.183752 0.000229 0.000250 -0.693789
 15   8.209042 0.615527 -0.255885 1.570090 -0.000063 -0.051966
 16   7.002735 -0.617911 -0.183641 0.014486 0.003872 -0.504342
 17   1.574674 0.609930 -0.000899 0.000000 0.000008 -0.427832
 18   -0.602177 0.511412 -0.000006 0.000000 0.000000 0.000000
 19   3.673773 0.184833 1.119313 -0.000002 -0.000014 -0.174510
 20   3.673767 0.176993 -1.117566 0.000007 -0.000003 -0.174546
 21   3.942357 1.330634 1.627658 0.000002 -0.000011 -0.000026
 22   -0.246060 -0.011889 0.516521 -0.000011 0.000031 0.000025
 23   3.942374 1.330659 -1.631083 0.000019 0.000002 -0.000024
 24   -0.246150 -0.011872 -0.516511 -0.000005 -0.000006 0.000048
 25   4.941364 1.997338 1.629330 0.000018 -0.000001 -0.000024
 26   4.941382 1.997366 -1.629410 -0.000001 0.000005 -0.000024
 27   2.918368 1.623171 1.514501 -0.000019 -0.000022 -0.000050
 28   2.920798 1.614964 -1.501142 -0.000002 -0.000009 -0.000024
 29   8.824059 0.150544 0.091743 0.000006 -0.000231 -0.174534
 30   2.111085 -0.561179 1.784320 -0.000008 -0.000682 0.000024
 31   2.121290 -0.561289 -1.853599 0.000000 0.000000 -0.000002
 32   -0.810489 -0.093824 3.127092 0.213520 -2.873433 -0.395495
 33   14.298673 -0.408176 0.475484 -0.000100 -0.000042 -2.383958
 34   15.835795 0.581398 0.242756 0.340215 0.031018 0.068310
 35   -0.815868 -0.091229 -3.114430 -0.005004 2.953404 0.197133
 36   14.294526 -0.410349 -0.463635 0.000105 0.000060 -1.930805
 37   15.834409 0.579420 -0.284600 -0.186112 -0.029957 0.177040
 38   1.420944 -3.992828 -2.862877 -0.006652 -0.018799 0.225623
 39   -4.457742 -1.054854 -0.746180 0.000000 0.000000 0.000000
 40   1.274356 -3.977129 3.198226 -0.006652 -0.018798 0.225622
 41   -4.433840 -1.059130 0.959566 -0.000001 0.000000 0.000000
 42   -0.657468 1.697302 -2.688614 0.000000 0.000002 0.000000
 43   -0.664068 1.698578 2.869377 0.000000 0.000002 0.000000
time 1
  0   0.255147 -2.430792 -1.722338 0.000413 -0.019737 -1.643838
  1   -1.093036 0.000002 -0.326057 -1.570599 -1.570379 -0.000171
  2   2.262337 0.113614 0.064702 -0.000052 0.000073 0.166366
  3   2.380047 0.353302 0.047440 0.000000 -0.000028 0.156939
  4   2.033756 0.190472 -0.000128 -0.000010 0.000024 0.130573
  5   2.451511 0.204909 -0.003447 0.000000 -0.000005 0.148110
  6   7.247600 -0.397300 -0.109469 0.000001 0.000009 0.052298
  7   -2.022252 -0.104661 3.136172 -0.159405 -1.174577 -3.047314
  8   1.168026 -0.537438 -0.063437 -0.569986 0.941447 -0.642346
  9   6.790376 -0.619176 0.015206 -0.000324 -0.000352 -0.660342
 10   8.637599 0.544015 -0.090417 -1.570112 0.000362 -0.052064
 11   6.790465 -0.619039 0.017802 -0.001013 -0.011310 -0.477404
 12   -2.022474 -0.104699 -2.873818 0.298873 1.361771 -2.901984
 13   1.167898 -0.537463 0.063297 0.939270 -1.179697 -0.974943
 14   7.002743 -0.617765 -0.183752 0.000229 0.000250 -0.693789
 15   8.209042 0.615527 -0.255885 1.570090 -0.000063 -0.051966
 16   7.002735 -0.617911 -0.183641 0.014486 0.003872 -0.504342
 17   1.574674 0.609930 -0.000899 0.000000 0.000008 -0.427832
 18   -0.602177 0.511412 -0.000006 0.000000 0.000000 0.000000
 19   3.673773 0.177020 1.119313 -0.000002 -0.000014 -0.174510
 20   3.673767 0.176993 -1.117566 0.000007 -0.000003 -0.174546
 21   3.942357 1.330634 1.627658 0.000002 -0.000011 -0.000026
 22   -0.246060 -0.011889 0.516521 -0.000011 0.000031 0.000025
 23   3.942374 1.330659 -1.631083 0.000019 0.000002 -0.000024
 24   -0.246150 -0.011872 -0.516511 -0.000005 -0.000006 0.000048
 25   4.941364 1.997338 1.629330 0.000018 -0.000001 -0.000024
 26   4.941382 1.997366 -1.629410 -0.000001 0.000005 -0.000024
 27   2.918368 1.615358 1.514501 -0.000019 -0.000022 -0.000050
 28   2.920798 1.614964 -1.501142 -0.000002 -0.000009 -0.000024
 29   8.824059 0.150544 0.091743 0.000095 0.000362 -0.166701
 30   2.111085 -0.561179 1.784320 0.000087 -0.000304 0.004720
 31   2.121290 -0.561289 -1.853599 0.000092 0.000389 0.004711
 32   -0.810489 -0.093824 3.127092 0.196836 -2.865602 -0.347965
 33   14.298673 -0.408176 0.475484 -0.000100 -0.000042 -2.346720
 34   15.835795 0.581398 0.242756 0.336305 0.032775 0.077307
 35   -0.815868 -0.091229 -3.114430 -0.014510 2.944597 0.203925
 36   14.294526 -0.410349 -0.463635 0.000105 0.000060 -1.931114
 37   15.834409 0.579420 -0.284600 -0.196633 -0.021049 0.184138
 38   1.420944 -3.992828 -2.862877 -0.006588 -0.018690 0.228494
 39   -4.457742 -1.054854 -0.746180 0.000108 0.000072 0.003450
 40   1.274356 -3.977129 3.198226 -0.006588 -0.018702 0.228555
 41   -4.433840 -1.059130 0.959566 0.000107 0.000072 0.003450
 42   -0.657468 1.697302 -2.688614 0.000000 0.000002 0.002677
 43   -0.664068 1.698578 2.869377 0.000025 0.000128 0.004224
time 2
  0   0.266866 -5.178001 -1.706712 0.000991 -0.042052 -1.629113
  1   -1.093036 0.000002 -0.326057 -1.570495 -1.570379 -0.000171
  2   2.262337 0.113614 0.064702 -0.000052 0.000073 0.166366
  3   2.380047 0.353302 0.047440 0.000000 -0.000028 0.156939
  4   2.033756 0.190472 -0.000128 -0.000010 0.000024 0.130573
  5   2.451511 0.204909 -0.003447 0.000000 -0.000005 0.148110
  6   7.247600 -0.397300 -0.109469 0.000001 0.000009 0.052298
  7   -2.022252 -0.104661 3.136172 -0.159405 -1.174577 -3.047314
  8   1.168026 -0.537438 -0.063437 -0.569986 0.941447 -0.642346
  9   6.790376 -0.619176 0.015206 -0.000324 -0.000352 -0.660342
 10   8.637599 0.544015 -0.090417 -1.570112 0.000362 -0.052064
 11   6.790465 -0.619039 0.017802 -0.001013 -0.011310 -0.477404
 12   -2.022474 -0.104699 -2.873818 0.298873 1.361771 -2.901984
 13   1.167898 -0.537463 0.063297 0.939270 -1.179697 -0.974943
 14   7.002743 -0.617765 -0.183752 0.000229 0.000250 -0.693789
 15   8.209042 0.615527 -0.255885 1.570090 -0.000063 -0.051966
 16   7.002735 -0.617911 -0.183641 0.014486 0.003872 -0.504342
 17   1.574674 0.609930 -0.000899 0.000000 0.000008 -0.427832
 18   -0.602177 0.511412 -0.000006 0.000000 0.000000 0.000000
 19   3.673773 0.184833 1.119313 -0.000002 -0.000014 -0.174510
 20   3.673767 0.176993 -1.117566 0.000007 -0.000003 -0.174546
 21   3.942357 1.330634 1.627658 0.000002 -0.000011 -0.000026
 22   -0.246060 -0.011889 0.516521 -0.000011 0.000031 0.000025
 23   3.942374 1.330659 -1.631083 0.000019 0.000002 -0.000024
 24   -0.246150 -0.011872 -0.516511 -0.000005 -0.000006 0.000048
 25   4.941364 1.997338 1.629330 0.000018 -0.000001 -0.000024
 26   4.941382 1.997366 -1.629410 -0.000001 0.000005 -0.000024
 27   2.918368 1.615358 1.514501 -0.000019 -0.000022 -0.000050
 28   2.920798 1.614964 -1.501142 -0.000002 -0.000009 -0.000024
 29   8.824059 0.150544 0.091743 0.000808 0.002143 -0.144652
 30   2.118898 -0.541647 1.784320 0.000345 0.000771 0.018036
 31   2.121290 -0.541757 -1.853599 0.000368 0.001476 0.017975
 32   -0.810489 -0.093824 3.127092 0.179592 -2.858439 -0.299240
 33   14.298673 -0.408176 0.475484 -0.000100 -0.000042 -2.308450
 34   15.835795 0.581398 0.242756 0.332440 0.034776 0.086348
 35   -0.815868 -0.091229 -3.114430 -0.033697 2.932511 0.184205
 36   14.294526 -0.410349 -0.463635 0.000105 0.000060 -1.964097
 37   15.834409 0.579420 -0.284600 -0.211607 -0.007765 0.198436
 38   1.420944 -3.992828 -2.862877 -0.006462 -0.018449 0.236376
 39   -4.457742 -1.047041 -0.746180 0.000419 0.000300 0.012873
 40   1.282169 -3.977129 3.198226 -0.006462 -0.018461 0.236375
 41   -4.426027 -1.051317 0.959566 0.000418 0.000300 0.012873
 42   -0.657468 1.685583 -2.688614 0.000000 0.000002 0.010204
 43   -0.664068 1.686859 2.869377 0.000125 0.000536 0.015808
time 3
  0   0.278585 -7.917397 -1.694993 0.000991 -0.053965 -1.621893
  1   -1.093036 0.000002 -0.326057 -1.570599 -1.570379 -0.000171
  2   2.262337 0.113614 0.064702 -0.000052 0.000073 0.166366
  3   2.380047 0.353302 0.047440 0.000000 -0.000028 0.156939
  4   2.033756 0.190472 -0.000128 -0.000010 0.000024 0.130573
  5   2.451511 0.204909 -0.003447 0.000000 -0.000005 0.148110
  6   7.247600 -0.397300 -0.109469 0.000001 0.000009 0.052298
  7   -2.022252 -0.104661 3.136172 -0.159405 -1.174577 -3.047314
  8   1.168026 -0.537438 -0.063437 -0.569986 0.941447 -0.642346
  9   6.790376 -0.619176 0.015206 -0.000324 -0.000352 -0.660342
 10   8.637599 0.544015 -0.090417 -1.570112 0.000362 -0.052064
 11   6.790465 -0.619039 0.017802 -0.001013 -0.011310 -0.477404
 12   -2.022474 -0.104699 -2.873818 0.298873 1.361771 -2.901984
 13   1.167898 -0.537463 0.063297 0.939270 -1.179697 -0.974943
 14   7.002743 -0.617765 -0.183752 0.000229 0.000250 -0.693789
 15   8.209042 0.615527 -0.255885 1.570090 -0.000063 -0.051966
 16   7.002735 -0.617911 -0.183641 0.014486 0.003872 -0.504342
 17   1.574674 0.609930 -0.000899 0.000000 0.000008 -0.427832
 18   -0.602177 0.511412 -0.000006 0.000000 0.000000 0.000000
 19   3.673773 0.184833 1.119313 -0.000002 -0.000014 -0.174510
 20   3.673767 0.176993 -1.117566 0.000007 -0.000003 -0.174546
 21   3.942357 1.330634 1.627658 0.000002 -0.000011 -0.000026
 22   -0.246060 -0.011889 0.516521 -0.000011 0.000031 0.000025
 23   3.942374 1.330659 -1.631083 0.000019 0.000002 -0.000024
 24   -0.246150 -0.011872 -0.516511 -0.000005 -0.000006 0.000048
 25   4.941364 1.997338 1.629330 0.000018 -0.000001 -0.000024
 26   4.941382 1.997366 -1.629410 -0.000001 0.000005 -0.000024
 27   2.918368 1.615358 1.514501 -0.000019 -0.000022 -0.000050
 28   2.920798 1.614964 -1.501142 -0.000002 -0.000009 -0.000024
 29   8.824059 0.150544 0.091743 0.001878 0.004873 -0.110585
 30   2.122804 -0.522115 1.784320 0.000765 0.002544 0.038556
 31   2.121290 -0.522225 -1.853599 0.000766 0.003212 0.038518
 32   -0.810489 -0.093824 3.127092 0.170458 -2.855001 -0.274080
 33   14.298673 -0.408176 0.475484 -0.000100 -0.000042 -2.288918
 34   15.835795 0.581398 0.242756 0.330416 0.035850 0.091067
 35   -0.815868 -0.091229 -3.114430 -0.051916 2.923798 0.157365
 36   14.294526 -0.410349 -0.463635 0.000128 0.000060 -2.003723
 37   15.834409 0.579420 -0.284600 -0.223369 0.002652 0.211872
 38   1.420944 -3.988922 -2.862877 -0.006294 -0.018100 0.247861
 39   -4.449929 -1.027509 -0.746180 0.000911 0.000611 0.026756
 40   1.282169 -3.977129 3.198226 -0.006294 -0.018099 0.247922
 41   -4.418214 -1.043504 0.959566 0.000910 0.000611 0.026756
 42   -0.657468 1.666051 -2.688614 0.000012 0.000079 0.021203
 43   -0.664068 1.667327 2.869377 0.000275 0.001100 0.032871
time 4
  0   0.282491 -10.672418 -1.679368 0.000991 -0.065078 -1.614673
  1   -1.093036 0.000002 -0.326057 -1.570547 -1.570379 -0.000171
  2   2.262337 0.113614 0.064702 -0.000052 0.000073 0.166366
  3   2.380047 0.353302 0.047440 0.000000 -0.000028 0.156939
  4   2.033756 0.190472 -0.000128 -0.000010 0.000024 0.130573
  5   2.451511 0.204909 -0.003447 0.000000 -0.000005 0.148110
  6   7.247600 -0.397300 -0.109469 0.000001 0.000009 0.052298
  7   -2.022252 -0.104661 3.136172 -0.159405 -1.174577 -3.047314
  8   1.168026 -0.537438 -0.063437 -0.569986 0.941447 -0.642346
  9   6.790376 -0.619176 0.015206 -0.000324 -0.000352 -0.660342
 10   8.637599 0.544015 -0.090417 -1.570112 0.000362 -0.052064
 11   6.790465 -0.619039 0.017802 -0.001013 -0.011310 -0.477404
 12   -2.022474 -0.104699 -2.873818 0.298873 1.361771 -2.901984
 13   1.167898 -0.537463 0.063297 0.939270 -1.179697 -0.974943
 14   7.002743 -0.617765 -0.183752 0.000229 0.000250 -0.693789
 15   8.209042 0.615527 -0.255885 1.570090 -0.000063 -0.051966
 16   7.002735 -0.617911 -0.183641 0.014486 0.003872 -0.504342
 17   1.574674 0.609930 -0.000899 0.000000 0.000008 -0.427832
 18   -0.602177 0.511412 -0.000006 0.000000 0.000000 0.000000
 19   3.673773 0.177020 1.119313 -0.000002 -0.000014 -0.174510
 20   3.673767 0.176993 -1.117566 0.000007 -0.000003 -0.174546
 21   3.942357 1.330634 1.627658 0.000002 -0.000011 -0.000026
 22   -0.246060 -0.011889 0.516521 -0.000011 0.000031 0.000025
 23   3.942374 1.330659 -1.631083 0.000019 0.000002 -0.000024
 24   -0.246150 -0.011872 -0.516511 -0.000005 -0.000006 0.000048
 25   4.941364 1.997338 1.629330 0.000018 -0.000001 -0.000024
 26   4.941382 1.997366 -1.629410 -0.000001 0.000005 -0.000024
 27   2.918368 1.615358 1.514501 -0.000019 -0.000022 -0.000050
 28   2.920798 1.614964 -1.501142 -0.000002 -0.000009 -0.000024
 29   8.824059 0.150544 0.091743 0.003125 0.008386 -0.066540
 30   2.138430 -0.490864 1.784320 0.001321 0.004723 0.065038
 31   2.129103 -0.490974 -1.853599 0.001318 0.005413 0.064992
 32   -0.810489 -0.093824 3.127092 0.160484 -2.851945 -0.247725
 33   14.298673 -0.408176 0.475484 -0.000100 -0.000042 -2.268989
 34   15.835795 0.581398 0.242756 0.328277 0.037143 0.096315
 35   -0.815868 -0.091229 -3.114430 -0.082281 2.912649 0.107136
 36   14.294526 -0.410349 -0.463635 0.000105 0.000060 -2.074402
 37   15.834409 0.579420 -0.284600 -0.242756 0.017164 0.234333
 38   1.413131 -3.988922 -2.862877 -0.006062 -0.017642 0.261913
 39   -4.446023 -1.011884 -0.746180 0.001462 0.001031 0.043611
 40   1.282169 -3.977129 3.198226 -0.006062 -0.017641 0.261912
 41   -4.406495 -1.031785 0.959566 0.001473 0.001031 0.043611
 42   -0.665281 1.646519 -2.688614 0.000048 0.000217 0.034544
 43   -0.671881 1.647795 2.869377 0.000450 0.001807 0.053573
time 5
  0   0.305929 -13.427439 -1.675461 0.000991 -0.085259 -1.601089
  1   -1.093036 0.000002 -0.326057 -1.570599 -1.570379 -0.000171
  2   2.262337 0.113614 0.064702 -0.000052 0.000073 0.166366
  3   2.380047 0.353302 0.047440 0.000000 -0.000028 0.156939
  4   2.033756 0.190472 -0.000128 -0.000010 0.000024 0.130573
  5   2.451511 0.204909 -0.003447 0.000000 -0.000005 0.148110
  6   7.247600 -0.397300 -0.109469 0.000001 0.000009 0.052298
  7   -2.022252 -0.104661 3.136172 -0.159405 -1.174577 -3.047314
  8   1.168026 -0.537438 -0.063437 -0.569986 0.941447 -0.642346
  9   6.790376 -0.619176 0.015206 -0.000324 -0.000352 -0.660342
 10   8.637599 0.544015 -0.090417 -1.570112 0.000362 -0.052064
 11   6.790465 -0.619039 0.017802 -0.001013 -0.011310 -0.477404
 12   -2.022474 -0.104699 -2.873818 0.298873 1.361800 -2.901984
 13   1.167898 -0.537463 0.063297 0.939270 -1.179697 -0.974943
 14   7.002743 -0.617765 -0.183752 0.000229 0.000250 -0.693789
 15   8.209042 0.615527 -0.255885 1.570090 -0.000063 -0.051966
 16   7.002735 -0.617911 -0.183641 0.014486 0.003872 -0.504342
 17   1.574674 0.609930 -0.000899 0.000000 0.000008 -0.427832
 18   -0.602177 0.511412 -0.000006 0.000000 0.000000 0.000000
 19   3.673773 0.177020 1.119313 -0.000002 -0.000014 -0.174510
 20   3.673767 0.176993 -1.117566 0.000007 -0.000003 -0.174546
 21   3.942357 1.330634 1.627658 0.000002 -0.000011 -0.000026
 22   -0.246060 -0.011889 0.516521 -0.000011 0.000031 0.000025
 23   3.942374 1.330659 -1.631083 0.000019 0.000002 -0.000024
 24   -0.246150 -0.011872 -0.516511 -0.000005 -0.000006 0.000048
 25   4.941364 1.997338 1.629330 0.000018 -0.000001 -0.000024
 26   4.941382 1.997366 -1.629410 -0.000001 0.000005 -0.000024
 27   2.918368 1.615358 1.514501 -0.000019 -0.000022 -0.000050
 28   2.920798 1.614964 -1.501142 -0.000002 -0.000009 -0.000024
 29   8.824059 0.150544 0.091743 0.004729 0.012493 -0.014877
 30   2.154055 -0.455707 1.776507 0.001945 0.007339 0.096108
 31   2.133009 -0.455817 -1.861412 0.001946 0.008029 0.096070
 32   -0.810489 -0.093824 3.127092 0.140817 -2.846310 -0.194902
 33   14.298673 -0.408176 0.475484 -0.000100 -0.000042 -2.228893
 34   15.835795 0.581398 0.242756 0.324229 0.039852 0.106944
 35   -0.815868 -0.091229 -3.114430 -0.144595 2.892787 0.007553
 36   14.294526 -0.410349 -0.463635 0.000105 0.000060 -2.214059
 37   15.834409 0.579420 -0.284600 -0.283599 0.044551 0.279255
 38   1.413131 -3.988922 -2.862877 -0.005852 -0.017160 0.277248
 39   -4.438210 -0.992352 -0.746180 0.002097 0.001450 0.061953
 40   1.286075 -3.981035 3.198226 -0.005852 -0.017159 0.277247
 41   -4.394776 -1.020066 0.959566 0.002096 0.001450 0.061953
 42   -0.665281 1.623081 -2.688614 0.000096 0.000416 0.049098
 43   -0.671881 1.624357 2.869377 0.000650 0.002575 0.076073
time 6
  0   0.317648 -16.178555 -1.659836 0.000413 -0.099128 -1.586269
  1   -1.093036 0.000002 -0.326057 -1.570652 -1.570379 -0.000268
  2   2.262337 0.113614 0.064702 -0.000052 0.000073 0.166366
  3   2.380047 0.353302 0.047440 0.000000 -0.000028 0.156939
  4   2.033756 0.190472 -0.000128 -0.000010 0.000024 0.130573
  5   2.451511 0.204909 -0.003447 0.000000 -0.000005 0.148110
  6   7.247600 -0.397300 -0.109469 0.000001 0.000009 0.052298
  7   -2.022252 -0.104661 3.136172 -0.159405 -1.174577 -3.047314
  8   1.168026 -0.537438 -0.063437 -0.569986 0.941447 -0.642346
  9   6.790376 -0.619176 0.015206 -0.000324 -0.000352 -0.660342
 10   8.637599 0.544015 -0.090417 -1.570112 0.000362 -0.052064
 11   6.790465 -0.619039 0.017802 -0.001013 -0.011310 -0.477404
 12   -2.022474 -0.104699 -2.873818 0.298873 1.361800 -2.901984
 13   1.167898 -0.537463 0.063297 0.939270 -1.179697 -0.974943
 14   7.002743 -0.617765 -0.183752 0.000229 0.000250 -0.693789
 15   8.209042 0.615527 -0.255885 1.570090 -0.000063 -0.051966
 16   7.002735 -0.617911 -0.183641 0.014486 0.003872 -0.504342
 17   1.574674 0.609930 -0.000899 0.000000 0.000008 -0.427832
 18   -0.602177 0.511412 -0.000006 0.000000 0.000000 0.000000
 19   3.673773 0.177020 1.119313 -0.000002 -0.000014 -0.174510
 20   3.673767 0.176993 -1.117566 0.000007 -0.000003 -0.174546
 21   3.942357 1.330634 1.627658 0.000002 -0.000011 -0.000026
 22   -0.246060 -0.011889 0.516521 -0.000011 0.000031 0.000025
 23   3.942374 1.330659 -1.631083 0.000019 0.000002 -0.000024
 24   -0.246150 -0.011872 -0.516511 -0.000005 -0.000006 0.000048
 25   4.941364 1.997338 1.629330 0.000018 -0.000001 -0.000024
 26   4.941382 1.997366 -1.629410 -0.000001 0.000005 -0.000024
 27   2.918368 1.615358 1.514501 -0.000019 -0.000022 -0.000050
 28   2.920798 1.614964 -1.501142 -0.000002 -0.000009 -0.000024
 29   8.824059 0.150544 0.091743 0.006512 0.017050 0.042258
 30   2.173587 -0.416643 1.776507 0.002650 0.010245 0.130480
 31   2.140822 -0.424566 -1.861412 0.002651 0.010905 0.130478
 32   -0.810489 -0.093824 3.127092 0.121150 -2.841535 -0.142363
 33   14.298673 -0.408176 0.475484 -0.000100 -0.000042 -2.188321
 34   15.835795 0.581398 0.242756 0.320456 0.042561 0.116691
 35   -0.815868 -0.091229 -3.114430 -0.200396 2.884355 -0.091208
 36   14.294526 -0.410349 -0.463635 0.000105 0.000060 -2.344138
 37   15.834409 0.579420 -0.284600 -0.319083 0.063082 0.314340
 38   1.413131 -3.988922 -2.862877 -0.005599 -0.016678 0.292460
 39   -4.438210 -0.972820 -0.746180 0.002721 0.001894 0.080295
 40   1.286075 -3.981035 3.198226 -0.005599 -0.016677 0.292521
 41   -4.386963 -1.008347 0.959566 0.002720 0.001894 0.080295
 42   -0.665281 1.595736 -2.688614 0.000156 0.000723 0.063652
 43   -0.671881 1.597012 2.869377 0.000850 0.003329 0.098614
time 7
  0   0.317648 -18.941387 -1.648117 0.000000 -0.104640 -1.571449
  1   -1.093036 0.000002 -0.326057 -1.570652 -1.570379 -0.000171
  2   2.262337 0.113614 0.064702 -0.000052 0.000073 0.166366
  3   2.380047 0.353302 0.047440 0.000000 -0.000028 0.156939
  4   2.033756 0.190472 -0.000128 -0.000010 0.000024 0.130573
  5   2.451511 0.204909 -0.003447 0.000000 -0.000005 0.148110
  6   7.247600 -0.397300 -0.109469 0.000001 0.000009 0.052298
  7   -2.022252 -0.104661 3.136172 -0.159405 -1.174577 -3.047314
  8   1.168026 -0.537438 -0.063437 -0.569986 0.941447 -0.642346
  9   6.790376 -0.619176 0.015206 -0.000324 -0.000352 -0.660342
 10   8.637599 0.544015 -0.090417 -1.570112 0.000362 -0.052064
 11   6.790465 -0.619039 0.017802 -0.001013 -0.011310 -0.477404
 12   -2.022474 -0.104699 -2.873818 0.298873 1.361771 -2.901984
 13   1.167898 -0.537463 0.063297 0.939270 -1.179697 -0.974943
 14   7.002743 -0.617765 -0.183752 0.000229 0.000250 -0.693789
 15   8.209042 0.615527 -0.255885 1.570090 -0.000063 -0.051966
 16   7.002735 -0.617911 -0.183641 0.014486 0.003872 -0.504342
 17   1.574674 0.609930 -0.000899 0.000000 0.000008 -0.427832
 18   -0.602177 0.511412 -0.000006 0.000000 0.000000 0.000000
 19   3.673773 0.177020 1.119313 -0.000002 -0.000014 -0.174510
 20   3.673767 0.176993 -1.117566 0.000007 -0.000003 -0.174546
 21   3.942357 1.330634 1.627658 0.000002 -0.000011 -0.000026
 22   -0.246060 -0.011889 0.516521 -0.000011 0.000031 0.000025
 23   3.942374 1.330659 -1.631083 0.000019 0.000002 -0.000024
 24   -0.246150 -0.011872 -0.516511 -0.000005 -0.000006 0.000048
 25   4.941364 1.997338 1.629330 0.000018 -0.000001 -0.000024
 26   4.941382 1.997366 -1.629410 -0.000001 0.000005 -0.000024
 27   2.918368 1.615358 1.514501 -0.000019 -0.000022 -0.000050
 28   2.920798 1.614964 -1.501142 -0.000002 -0.000009 -0.000024
 29   8.824059 0.150544 0.091743 0.008205 0.021893 0.102666
 30   2.185306 -0.373673 1.772601 0.003396 0.013267 0.166847
 31   2.144728 -0.381596 -1.865318 0.003417 0.013961 0.166814
 32   -0.810489 -0.093824 3.127092 0.102415 -2.837619 -0.091190
 33   14.298673 -0.408176 0.475484 -0.000100 -0.000042 -2.146875
 34   15.835795 0.581398 0.242756 0.317098 0.045294 0.124012
 35   -0.815868 -0.091229 -3.114430 -0.228033 2.890726 -0.166525
 36   14.294526 -0.410349 -0.463635 0.000105 0.000060 -2.425862
 37   15.834409 0.579420 -0.284600 -0.331259 0.066154 0.322757
 38   1.413131 -3.981109 -2.862877 -0.005389 -0.016232 0.306451
 39   -4.426491 -0.953288 -0.746180 0.003308 0.002277 0.097150
 40   1.286075 -3.981035 3.198226 -0.005389 -0.016231 0.306450
 41   -4.375244 -0.996628 0.959566 0.003307 0.002277 0.097150
 42   -0.669187 1.580111 -2.688614 0.000264 0.001152 0.076993
 43   -0.675787 1.581387 2.869377 0.001025 0.004035 0.119316
time 8
  0   0.317648 -21.692501 -1.648117 -0.000248 -0.103573 -1.563564
  1   -1.093036 0.000002 -0.326057 -1.570599 -1.570379 -0.000268
  2   2.262337 0.113614 0.064702 -0.000052 0.000073 0.166366
  3   2.380047 0.353302 0.047440 0.000000 -0.000028 0.156939
  4   2.033756 0.190472 -0.000128 -0.000010 0.000024 0.130573
  5   2.451511 0.204909 -0.003447 0.000000 -0.000005 0.148110
  6   7.247600 -0.397300 -0.109469 0.000001 0.000009 0.052298
  7   -2.022252 -0.104661 3.136172 -0.159405 -1.174577 -3.047314
  8   1.168026 -0.537438 -0.063437 -0.569986 0.941447 -0.642346
  9   6.790376 -0.619176 0.015206 -0.000324 -0.000352 -0.660342
 10   8.637599 0.544015 -0.090417 -1.570112 0.000362 -0.052064
 11   6.790465 -0.619039 0.017802 -0.001013 -0.011310 -0.477404
 12   -2.022474 -0.104699 -2.873818 0.298873 1.361771 -2.901984
 13   1.167898 -0.537463 0.063297 0.939270 -1.179697 -0.974943
 14   7.002743 -0.617765 -0.183752 0.000229 0.000250 -0.693789
 15   8.209042 0.615527 -0.255885 1.570090 -0.000063 -0.051966
 16   7.002735 -0.617911 -0.183641 0.014486 0.003872 -0.504342
 17   1.574674 0.609930 -0.000899 0.000000 0.000008 -0.427832
 18   -0.602177 0.511412 -0.000006 0.000000 0.000000 0.000000
 19   3.673773 0.177020 1.119313 -0.000002 -0.000014 -0.174510
 20   3.673767 0.176993 -1.117566 0.000007 -0.000003 -0.174546
 21   3.942357 1.330634 1.627658 0.000002 -0.000011 -0.000026
 22   -0.246060 -0.011889 0.516521 -0.000011 0.000031 0.000025
 23   3.938468 1.330659 -1.631083 0.000019 0.000002 -0.000024
 24   -0.246150 -0.011872 -0.516511 -0.000005 -0.000006 0.000048
 25   4.941364 1.997338 1.629330 0.000018 -0.000001 -0.000024
 26   4.941382 1.997366 -1.629410 -0.000001 0.000005 -0.000024
 27   2.918368 1.615358 1.514501 -0.000019 -0.000022 -0.000050
 28   2.920798 1.614964 -1.501142 -0.000002 -0.000009 -0.000024
 29   8.824059 0.150544 0.091743 0.010166 0.026807 0.164093
 30   2.204838 -0.338516 1.764788 0.004155 0.016376 0.203857
 31   2.152541 -0.342532 -1.873131 0.004168 0.017043 0.203842
 32   -0.810489 -0.093824 3.127092 0.093094 -2.835900 -0.066599
 33   14.298673 -0.408176 0.475484 -0.000100 -0.000042 -2.126390
 34   15.835795 0.581398 0.242756 0.315626 0.046612 0.127055
 35   -0.815868 -0.091229 -3.114430 -0.227945 2.897846 -0.196926
 36   14.294526 -0.410349 -0.463635 0.000105 0.000060 -2.448572
 37   15.834409 0.579420 -0.284600 -0.329131 0.063953 0.319005
 38   1.413131 -3.981109 -2.862877 -0.005199 -0.015871 0.318059
 39   -4.418678 -0.937663 -0.746180 0.003763 0.002625 0.111033
 40   1.286075 -3.988848 3.198226 -0.005199 -0.015870 0.317997
 41   -4.371338 -0.977096 0.959566 0.003762 0.002625 0.111033
 42   -0.677000 1.560579 -2.688614 0.000384 0.001704 0.087992
 43   -0.683600 1.561855 2.869377 0.001187 0.004631 0.136337
time 9
  0   0.341086 -24.451429 -1.659836 -0.000413 -0.096550 -1.554634
  1   -1.093036 0.000002 -0.326057 -1.570599 -1.570379 -0.000268
  2   2.262337 0.113614 0.064702 -0.000052 0.000073 0.166366
  3   2.380047 0.353302 0.047440 0.000000 -0.000028 0.156939
  4   2.033756 0.190472 -0.000128 -0.000010 0.000024 0.130573
  5   2.451511 0.204909 -0.003447 0.000000 -0.000005 0.148110
  6   7.247600 -0.397300 -0.109469 0.000001 0.000009 0.052298
  7   -2.022252 -0.104661 3.136172 -0.159405 -1.174577 -3.047314
  8   1.168026 -0.537438 -0.063437 -0.569986 0.941447 -0.642346
  9   6.790376 -0.619176 0.015206 -0.000324 -0.000352 -0.660342
 10   8.637599 0.544015 -0.090417 -1.570112 0.000362 -0.052064
 11   6.790465 -0.619039 0.017802 -0.001013 -0.011310 -0.477404
 12   -2.022474 -0.104699 -2.873818 0.298873 1.361771 -2.901984
 13   1.167898 -0.537463 0.063297 0.939270 -1.179697 -0.974943
 14   7.002743 -0.617765 -0.183752 0.000229 0.000250 -0.693789
 15   8.209042 0.615527 -0.255885 1.570090 -0.000063 -0.051966
 16   7.002735 -0.617911 -0.183641 0.014486 0.003872 -0.504342
 17   1.574674 0.609930 -0.000899 0.000000 0.000008 -0.427832
 18   -0.602177 0.511412 -0.000006 0.000000 0.000000 0.000000
 19   3.673773 0.177020 1.119313 -0.000002 -0.000014 -0.174510
 20   3.673767 0.176993 -1.117566 0.000007 -0.000003 -0.174546
 21   3.938451 1.330634 1.627658 0.000002 -0.000011 -0.000026
 22   -0.246060 -0.011889 0.516521 -0.000011 0.000031 0.000025
 23   3.938468 1.330659 -1.631083 0.000019 0.000002 -0.000024
 24   -0.246150 -0.011872 -0.516511 -0.000005 -0.000006 0.000048
 25   4.941364 1.997338 1.629330 0.000018 -0.000001 -0.000024
 26   4.941382 1.997366 -1.629410 -0.000001 0.000005 -0.000024
 27   2.918368 1.615358 1.514501 -0.000019 -0.000022 -0.000050
 28   2.920798 1.614964 -1.501142 -0.000002 -0.000009 -0.000024
 29   8.824059 0.150544 0.091743 0.011948 0.031602 0.224501
 30   2.224370 -0.295546 1.764788 0.004901 0.019428 0.240202
 31   2.160354 -0.299562 -1.873131 0.004903 0.020100 0.240178
 32   -0.810489 -0.093824 3.127092 0.084705 -2.834563 -0.043887
 33   14.298673 -0.408176 0.475484 -0.000100 -0.000042 -2.105588
 34   15.835795 0.581398 0.242756 0.314568 0.047832 0.128157
 35   -0.815868 -0.091229 -3.114430 -0.222224 2.910307 -0.218070
 36   14.294526 -0.410349 -0.463635 0.000105 0.000060 -2.454983
 37   15.834409 0.579420 -0.284600 -0.315182 0.054892 0.299688
 38   1.413131 -3.981109 -2.862877 -0.005094 -0.015630 0.325879
 39   -4.414772 -0.922037 -0.746180 0.004099 0.002828 0.120456
 40   1.286075 -3.988848 3.198226 -0.005094 -0.015629 0.325878
 41   -4.363525 -0.965377 0.959566 0.004098 0.002828 0.120456
 42   -0.677000 1.548860 -2.688614 0.000539 0.002440 0.095478
 43   -0.683600 1.550136 2.869377 0.001287 0.005008 0.147921
time 10
  0   0.352805 -27.210358 -1.675461 -0.000991 -0.077169 -1.535444
  1   -1.093036 0.000002 -0.326057 -1.570547 -1.570379 -0.000268
  2   2.262337 0.113614 0.064702 -0.000052 0.000073 0.166366
  3   2.380047 0.353302 0.047440 0.000000 -0.000028 0.156939
  4   2.033756 0.190472 -0.000128 -0.000010 0.000024 0.130573
  5   2.451511 0.204909 -0.003447 0.000000 -0.000005 0.148110
  6   7.247600 -0.397300 -0.109469 0.000001 0.000009 0.052298
  7   -2.022252 -0.104661 3.136172 -0.159405 -1.174577 -3.047314
  8   1.168026 -0.537438 -0.063437 -0.569986 0.941447 -0.642346
  9   6.790376 -0.619176 0.015206 -0.000324 -0.000352 -0.660342
 10   8.637599 0.544015 -0.090417 -1.570112 0.000362 -0.052064
 11   6.790465 -0.619039 0.017802 -0.001013 -0.011310 -0.477404
 12   -2.022474 -0.104699 -2.873818 0.298873 1.361800 -2.901792
 13   1.167898 -0.537463 0.063297 0.939270 -1.179697 -0.974943
 14   7.002743 -0.617765 -0.183752 0.000229 0.000250 -0.693789
 15   8.209042 0.615527 -0.255885 1.570090 -0.000063 -0.051966
 16   7.002735 -0.617911 -0.183641 0.014486 0.003872 -0.504342
 17   1.574674 0.609930 -0.000899 0.000000 0.000008 -0.427832
 18   -0.602177 0.511412 -0.000006 0.000000 0.000000 0.000000
 19   3.673773 0.177020 1.119313 -0.000002 -0.000014 -0.174510
 20   3.673767 0.176993 -1.117566 0.000007 -0.000003 -0.174546
 21   3.942357 1.330634 1.627658 0.000002 -0.000011 -0.000026
 22   -0.246060 -0.011889 0.516521 -0.000011 0.000031 0.000025
 23   3.942374 1.330659 -1.631083 0.000019 0.000002 -0.000024
 24   -0.246150 -0.011872 -0.516511 -0.000005 -0.000006 0.000048
 25   4.941364 1.997338 1.629330 0.000018 -0.000001 -0.000024
 26   4.941382 1.997366 -1.629410 -0.000001 0.000005 -0.000024
 27   2.918368 1.615358 1.514501 -0.000019 -0.000022 -0.000050
 28   2.920798 1.614964 -1.501142 -0.000002 -0.000009 -0.000024
 29   8.824059 0.150544 0.091743 0.013641 0.036207 0.281636
 30   2.236089 -0.256482 1.756975 0.005606 0.022305 0.274595
 31   2.160354 -0.264405 -1.873131 0.005608 0.022975 0.274568
 32   -0.810489 -0.093824 3.127092 0.067928 -2.832271 0.001309
 33   14.298673 -0.408176 0.475484 -0.000100 -0.000042 -2.062951
 34   15.835795 0.581398 0.242756 0.312544 0.050126 0.129039
 35   -0.815868 -0.091229 -3.114430 -0.198372 2.936165 -0.261781
 36   14.294526 -0.410349 -0.463635 0.000105 0.000060 -2.459000
 37   15.834409 0.579420 -0.284600 -0.282614 0.036898 0.258112
 38   1.409225 -3.981109 -2.862877 -0.005052 -0.015521 0.328812
 39   -4.410866 -0.918131 -0.746180 0.004219 0.002912 0.123906
 40   1.286075 -3.988848 3.198226 -0.005052 -0.015520 0.328811
 41   -4.355712 -0.953658 0.959566 0.004218 0.002912 0.123906
 42   -0.677000 1.541047 -2.688614 0.000755 0.003360 0.098238
 43   -0.683600 1.542323 2.869377 0.001312 0.005164 0.152187
time 11
  0   0.364524 -29.973190 -1.694993 -0.000991 -0.052187 -1.516825
  1   -1.093036 0.000002 -0.326057 -1.570652 -1.570379 -0.000268
  2   2.262337 0.113614 0.064702 -0.000052 0.000073 0.166366
  3   2.380047 0.353302 0.047440 0.000000 -0.000028 0.156939
  4   2.033756 0.190472 -0.000128 -0.000010 0.000024 0.130573
  5   2.451511 0.204909 -0.003447 0.000000 -0.000005 0.148110
  6   7.247600 -0.397300 -0.109469 0.000001 0.000009 0.052298
  7   -2.022252 -0.104661 3.136172 -0.159405 -1.174577 -3.047314
  8   1.168026 -0.537438 -0.063437 -0.569986 0.941447 -0.642346
  9   6.790376 -0.619176 0.015206 -0.000324 -0.000352 -0.660342
 10   8.637599 0.544015 -0.090417 -1.570112 0.000362 -0.052064
 11   6.790465 -0.619039 0.017802 -0.001013 -0.011310 -0.477404
 12   -2.022474 -0.104699 -2.873818 0.298873 1.361800 -2.901984
 13   1.167898 -0.537463 0.063297 0.939270 -1.179697 -0.974943
 14   7.002743 -0.617765 -0.183752 0.000229 0.000250 -0.693789
 15   8.209042 0.615527 -0.255885 1.570090 -0.000063 -0.051966
 16   7.002735 -0.617911 -0.183641 0.014486 0.003872 -0.504342
 17   1.574674 0.609930 -0.000899 0.000000 0.000008 -0.427832
 18   -0.602177 0.511412 -0.000006 0.000000 0.000000 0.000000
 19   3.673773 0.177020 1.119313 -0.000002 -0.000014 -0.174510
 20   3.673767 0.176993 -1.117566 0.000007 -0.000003 -0.174546
 21   3.942357 1.330634 1.627658 0.000002 -0.000011 -0.000026
 22   -0.246060 -0.011889 0.516521 -0.000011 0.000031 0.000025
 23   3.942374 1.330659 -1.631083 0.000019 0.000002 -0.000024
 24   -0.246150 -0.011872 -0.516511 -0.000005 -0.000006 0.000048
 25   4.941364 1.997338 1.629330 0.000018 -0.000001 -0.000024
 26   4.941382 1.997366 -1.629410 -0.000001 0.000005 -0.000024
 27   2.918368 1.615358 1.514501 -0.000019 -0.000022 -0.000050
 28   2.920798 1.614964 -1.501142 -0.000002 -0.000009 -0.000024
 29   8.824059 0.150544 0.091743 0.015246 0.040314 0.333299
 30   2.251714 -0.217418 1.756975 0.006230 0.024920 0.305666
 31   2.164260 -0.233154 -1.880944 0.006236 0.025617 0.305646
 32   -0.810489 -0.093824 3.127092 0.049938 -2.830552 0.050376
 33   14.298673 -0.408176 0.475484 -0.000100 -0.000042 -2.014280
 34   15.835795 0.581398 0.242756 0.310566 0.052420 0.126878
 35   -0.815868 -0.091229 -3.114430 -0.163870 2.964178 -0.298974
 36   14.294526 -0.410349 -0.463635 0.000105 0.000060 -2.447336
 37   15.834409 0.579420 -0.284600 -0.240707 0.016448 0.206447
 38   1.413131 -3.981109 -2.862877 -0.005094 -0.015593 0.326368
 39   -4.403053 -0.918131 -0.746180 0.004123 0.002852 0.120849
 40   1.286075 -3.988848 3.198226 -0.005094 -0.015605 0.326367
 41   -4.355712 -0.945845 0.959566 0.004122 0.002852 0.120849
 42   -0.677000 1.552766 -2.680801 0.001139 0.006672 0.093470
 43   -0.675787 1.542323 2.869377 0.000500 0.001634 0.151225
time 12
  0   0.387962 -32.728214 -1.706712 -0.000826 -0.026316 -1.500675
  1   -1.093036 0.000002 -0.326057 -1.570599 -1.570379 -0.000171
  2   2.262337 0.113614 0.064702 -0.000052 0.000073 0.166366
  3   2.380047 0.353302 0.047440 0.000000 -0.000028 0.156939
  4   2.033756 0.190472 -0.000128 -0.000010 0.000024 0.130573
  5   2.451511 0.204909 -0.003447 0.000000 -0.000005 0.148110
  6   7.247600 -0.397300 -0.109469 0.000001 0.000009 0.052298
  7   -2.022252 -0.104661 3.136172 -0.159405 -1.174577 -3.047408
  8   1.168026 -0.537438 -0.063437 -0.569986 0.941447 -0.642346
  9   6.790376 -0.619176 0.015206 -0.000324 -0.000352 -0.660342
 10   8.637599 0.544015 -0.090417 -1.570112 0.000362 -0.052064
 11   6.790465 -0.619039 0.017802 -0.001013 -0.011310 -0.477404
 12   -2.022474 -0.104699 -2.873818 0.298873 1.361771 -2.901792
 13   1.167898 -0.537463 0.063297 0.939270 -1.179697 -0.974943
 14   7.002743 -0.617765 -0.183752 0.000229 0.000250 -0.693789
 15   8.209042 0.615527 -0.255885 1.570090 -0.000063 -0.051966
 16   7.002735 -0.617911 -0.183641 0.014486 0.003872 -0.504342
 17   1.574674 0.609930 -0.000899 0.000000 0.000008 -0.427832
 18   -0.602177 0.511412 -0.000006 0.000000 0.000000 0.000000
 19   3.673773 0.184833 1.119313 -0.000002 -0.000014 -0.174510
 20   3.673767 0.184806 -1.117566 0.000007 -0.000003 -0.174546
 21   3.942357 1.330634 1.627658 0.000002 -0.000011 -0.000026
 22   -0.246060 -0.011889 0.516521 -0.000011 0.000031 0.000025
 23   3.942374 1.330659 -1.631083 0.000019 0.000002 -0.000024
 24   -0.246150 -0.011872 -0.516511 -0.000005 -0.000006 0.000048
 25   4.941364 1.997338 1.629330 0.000018 -0.000001 -0.000024
 26   4.941382 1.997366 -1.629410 -0.000001 0.000005 -0.000024
 27   2.918368 1.615358 1.514501 -0.000019 -0.000022 -0.000050
 28   2.920798 1.622777 -1.501142 -0.000002 -0.000009 -0.000024
 29   8.824059 0.150544 0.091743 0.016582 0.043827 0.377237
 30   2.267340 -0.193980 1.753069 0.006786 0.027129 0.332126
 31   2.172073 -0.201903 -1.884850 0.006803 0.027792 0.332120
 32   -0.810489 -0.093824 3.127092 0.023094 -2.832366 0.117658
 33   14.298673 -0.408176 0.475484 -0.000100 -0.000042 -1.942107
 34   15.835795 0.581398 0.242756 0.304700 0.057789 0.118146
 35   -0.815868 -0.091229 -3.114430 -0.126112 2.990598 -0.330415
 36   14.294526 -0.410349 -0.463635 0.000105 0.000060 -2.429338
 37   15.834409 0.579420 -0.284600 -0.196771 -0.002851 0.153869
 38   1.413131 -3.981109 -2.862877 -0.005157 -0.015774 0.319525
 39   -4.403053 -0.910318 -0.746180 0.003847 0.002697 0.112491
 40   1.286075 -3.988848 3.198226 -0.005157 -0.015773 0.319524
 41   -4.363525 -0.934126 0.959566 0.003846 0.002697 0.112491
 42   -0.669187 1.591830 -2.661269 0.001762 0.013924 0.080589
 43   -0.664068 1.550136 2.849845 -0.001737 -0.007954 0.148507
time 13
  0   0.387962 -35.487141 -1.722338 -0.000578 -0.013869 -1.493075
  1   -1.093036 0.000002 -0.326057 -1.570652 -1.570379 -0.000171
  2   2.262337 0.113614 0.064702 -0.000052 0.000073 0.166366
  3   2.380047 0.353302 0.047440 0.000000 -0.000028 0.156939
  4   2.033756 0.190472 -0.000128 -0.000010 0.000024 0.130573
  5   2.451511 0.204909 -0.003447 0.000000 -0.000005 0.148110
  6   7.247600 -0.397300 -0.109469 0.000001 0.000009 0.052298
  7   -2.022252 -0.104661 3.136172 -0.159405 -1.174577 -3.047314
  8   1.168026 -0.537438 -0.063437 -0.569986 0.941447 -0.642346
  9   6.790376 -0.619176 0.015206 -0.000324 -0.000352 -0.660342
 10   8.637599 0.544015 -0.090417 -1.570112 0.000362 -0.052064
 11   6.790465 -0.619039 0.017802 -0.001013 -0.011310 -0.477404
 12   -2.022474 -0.104699 -2.873818 0.298873 1.361800 -2.901792
 13   1.167898 -0.537463 0.063297 0.939270 -1.179697 -0.974943
 14   7.002743 -0.617765 -0.183752 0.000229 0.000250 -0.693789
 15   8.209042 0.615527 -0.255885 1.570090 -0.000063 -0.051966
 16   7.002735 -0.617911 -0.183641 0.014486 0.003872 -0.504342
 17   1.574674 0.609930 -0.000899 0.000000 0.000008 -0.427832
 18   -0.602177 0.511412 -0.000006 0.000000 0.000000 0.000000
 19   3.673773 0.177020 1.119313 -0.000002 -0.000014 -0.174510
 20   3.673767 0.176993 -1.117566 0.000007 -0.000003 -0.174546
 21   3.942357 1.330634 1.627658 0.000002 -0.000011 -0.000026
 22   -0.246060 -0.011889 0.516521 -0.000011 0.000031 0.000025
 23   3.942374 1.330659 -1.631083 0.000019 0.000002 -0.000024
 24   -0.246150 -0.011872 -0.516511 -0.000005 -0.000006 0.000048
 25   4.941364 1.997338 1.629330 0.000018 -0.000001 -0.000024
 26   4.941382 1.997366 -1.629410 -0.000001 0.000005 -0.000024
 27   2.918368 1.615358 1.514501 -0.000019 -0.000022 -0.000050
 28   2.924704 1.614964 -1.501142 -0.000002 -0.000009 -0.000024
 29   8.824059 0.150544 0.091743 0.017563 0.046557 0.411357
 30   2.279059 -0.170542 1.753069 0.007192 0.028872 0.352668
 31   2.172073 -0.174558 -1.884850 0.007217 0.029554 0.352663
 32   -0.810489 -0.093824 3.127092 0.005757 -2.835040 0.157902
 33   14.298673 -0.408176 0.475484 -0.000100 -0.000042 -1.897962
 34   15.835795 0.581398 0.242756 0.300629 0.061791 0.111663
 35   -0.815868 -0.091229 -3.114430 -0.107013 3.002965 -0.345150
 36   14.294526 -0.410349 -0.463635 0.000105 0.000060 -2.419528
 37   15.834409 0.579420 -0.284600 -0.174783 -0.012142 0.128011
 38   1.413131 -3.981109 -2.862877 -0.005283 -0.016039 0.309567
 39   -4.403053 -0.910318 -0.746180 0.003476 0.002457 0.100095
 40   1.286075 -3.981035 3.198226 -0.005283 -0.016038 0.309566
 41   -4.363525 -0.926313 0.959566 0.003475 0.002457 0.100095
 42   -0.665281 1.634800 -2.637831 0.002553 0.024074 0.061561
 43   -0.656255 1.550136 2.818594 -0.005073 -0.022139 0.144116
time 14
  0   0.391868 -38.246067 -1.741870 -0.000248 -0.006846 -1.488990
  1   -1.093036 0.000002 -0.326057 -1.570652 -1.570379 -0.000171
  2   2.262337 0.113614 0.064702 -0.000052 0.000073 0.166366
  3   2.380047 0.353302 0.047440 0.000000 -0.000028 0.156939
  4   2.033756 0.190472 -0.000128 -0.000010 0.000024 0.130573
  5   2.451511 0.204909 -0.003447 0.000000 -0.000005 0.148110
  6   7.247600 -0.397300 -0.109469 0.000001 0.000009 0.052298
  7   -2.022252 -0.104661 3.136172 -0.159405 -1.174577 -3.047314
  8   1.168026 -0.537438 -0.063437 -0.569986 0.941447 -0.642346
  9   6.790376 -0.619176 0.015206 -0.000324 -0.000352 -0.660342
 10   8.637599 0.544015 -0.090417 -1.570112 0.000362 -0.052064
 11   6.790465 -0.619039 0.017802 -0.001013 -0.011310 -0.477404
 12   -2.022474 -0.104699 -2.873818 0.298873 1.361771 -2.901984
 13   1.167898 -0.537463 0.063297 0.939270 -1.179697 -0.974943
 14   7.002743 -0.617765 -0.183752 0.000229 0.000250 -0.693789
 15   8.209042 0.615527 -0.255885 1.570090 -0.000063 -0.051966
 16   7.002735 -0.617911 -0.183641 0.014486 0.003872 -0.504342
 17   1.574674 0.609930 -0.000899 0.000000 0.000008 -0.427832
 18   -0.602177 0.511412 -0.000006 0.000000 0.000000 0.000000
 19   3.673773 0.177020 1.119313 -0.000002 -0.000014 -0.174510
 20   3.673767 0.176993 -1.117566 0.000007 -0.000003 -0.174546
 21   3.942357 1.330634 1.627658 0.000002 -0.000011 -0.000026
 22   -0.246060 -0.011889 0.516521 -0.000011 0.000031 0.000025
 23   3.942374 1.330659 -1.631083 0.000019 0.000002 -0.000024
 24   -0.246150 -0.011872 -0.516511 -0.000005 -0.000006 0.000048
 25   4.941364 1.997338 1.629330 0.000018 -0.000001 -0.000024
 26   4.941382 1.997366 -1.629410 -0.000001 0.000005 -0.000024
 27   2.918368 1.615358 1.514501 -0.000019 -0.000022 -0.000050
 28   2.920798 1.614964 -1.501142 -0.000002 -0.000009 -0.000024
 29   8.824059 0.150544 0.091743 0.018276 0.048337 0.433460
 30   2.279059 -0.151010 1.753069 0.007491 0.029976 0.365962
 31   2.175979 -0.162839 -1.884850 0.007477 0.030641 0.365927
 32   -0.810489 -0.093824 3.127092 -0.005055 -2.836091 0.188127
 33   14.298673 -0.408176 0.475484 -0.000100 -0.000042 -1.864059
 34   15.835795 0.581398 0.242756 0.299019 0.063377 0.106459
 35   -0.815868 -0.091229 -3.114430 -0.092754 3.012053 -0.356653
 36   14.294526 -0.410349 -0.463635 0.000105 0.000060 -2.413812
 37   15.834409 0.579420 -0.284600 -0.158312 -0.018413 0.110113
 38   1.413131 -3.981109 -2.862877 -0.005452 -0.016389 0.297348
 39   -4.395240 -0.906412 -0.746180 0.002984 0.002133 0.084951
 40   1.286075 -3.981035 3.198226 -0.005452 -0.016388 0.297347
 41   -4.363525 -0.922407 0.959566 0.002983 0.002133 0.084951
 42   -0.665281 1.697302 -2.606580 0.003452 0.036171 0.038475
 43   -0.632817 1.550136 2.783437 -0.009121 -0.039321 0.138302
time 15
  0   0.391868 -41.012806 -1.741870 0.000000 0.000000 -1.484335
  1   -1.093036 0.000002 -0.326057 -1.570442 -1.570379 -0.000268
  2   2.262337 0.113614 0.064702 -0.000052 0.000073 0.166366
  3   2.380047 0.353302 0.047440 0.000000 -0.000028 0.156939
  4   2.033756 0.190472 -0.000128 -0.000010 0.000024 0.130573
  5   2.451511 0.204909 -0.003447 0.000000 -0.000005 0.148110
  6   7.247600 -0.397300 -0.109469 0.000001 0.000009 0.052298
  7   -2.022252 -0.104661 3.136172 -0.159405 -1.174577 -3.047314
  8   1.168026 -0.537438 -0.063437 -0.569986 0.941447 -0.642346
  9   6.790376 -0.619176 0.015206 -0.000324 -0.000352 -0.660342
 10   8.637599 0.544015 -0.090417 -1.570112 0.000362 -0.052064
 11   6.790465 -0.619039 0.017802 -0.001013 -0.011310 -0.477404
 12   -2.022474 -0.104699 -2.873818 0.298873 1.361771 -2.901984
 13   1.167898 -0.537463 0.063297 0.939270 -1.179697 -0.974943
 14   7.002743 -0.617765 -0.183752 0.000229 0.000250 -0.693789
 15   8.209042 0.615527 -0.255885 1.570090 -0.000063 -0.051966
 16   7.002735 -0.617911 -0.183641 0.014486 0.003872 -0.504342
 17   1.574674 0.609930 -0.000899 0.000000 0.000008 -0.427832
 18   -0.602177 0.511412 -0.000006 0.000000 0.000000 0.000000
 19   3.673773 0.184833 1.119313 -0.000002 -0.000014 -0.174510
 20   3.673767 0.184806 -1.117566 0.000007 -0.000003 -0.174546
 21   3.942357 1.330634 1.627658 0.000002 -0.000011 -0.000026
 22   -0.246060 -0.011889 0.516521 -0.000011 0.000031 0.000025
 23   3.942374 1.338472 -1.631083 0.000019 0.000002 -0.000024
 24   -0.246150 -0.011872 -0.516511 -0.000005 -0.000006 0.000048
 25   4.941364 1.997338 1.629330 0.000018 -0.000001 -0.000024
 26   4.941382 1.997366 -1.629410 -0.000001 0.000005 -0.000024
 27   2.918368 1.623171 1.514501 -0.000019 -0.000022 -0.000050
 28   2.920798 1.622777 -1.501142 -0.000002 -0.000009 -0.000024
 29   8.824059 0.150544 0.091743 0.018454 0.048978 0.441292
 30   2.282965 -0.143197 1.753069 0.007586 0.030383 0.370679
 31   2.175979 -0.158933 -1.884850 0.007569 0.031056 0.370658
 32   -0.810489 -0.093824 3.127092 -0.009902 -2.831984 0.221996
 33   14.298673 -0.408176 0.475484 -0.000100 -0.000042 -1.826742
 34   15.835795 0.581398 0.242756 0.304079 0.059204 0.102004
 35   -0.815868 -0.091229 -3.114430 -0.071807 3.025919 -0.377194
 36   14.294526 -0.410349 -0.463635 0.000105 0.000060 -2.410336
 37   15.834409 0.579420 -0.284600 -0.133428 -0.027346 0.084610
 38   1.413131 -3.988922 -2.862877 -0.005620 -0.016750 0.283846
 39   -4.395240 -0.906412 -0.746180 0.002469 0.001810 0.068347
 40   1.286075 -3.981035 3.198226 -0.005620 -0.016749 0.283784
 41   -4.363525 -0.922407 0.959566 0.002468 0.001810 0.068347
 42   -0.657468 1.755898 -2.575329 0.004386 0.049173 0.013341
 43   -0.605472 1.554042 2.744373 -0.013544 -0.058072 0.131151
time 16
  0   0.391868 -43.771736 -1.741870 -0.000248 -0.006846 -1.489655
  1   -1.093036 0.000002 -0.326057 -1.570599 -1.570379 -0.000268
  2   2.262337 0.113614 0.064702 -0.000052 0.000073 0.166366
  3   2.380047 0.353302 0.047440 0.000000 -0.000028 0.156939
  4   2.033756 0.190472 -0.000128 -0.000010 0.000024 0.130573
  5   2.451511 0.204909 -0.003447 0.000000 -0.000005 0.148110
  6   7.247600 -0.397300 -0.109469 0.000001 0.000009 0.052298
  7   -2.022252 -0.104661 3.136172 -0.159405 -1.174577 -3.047314
  8   1.168026 -0.537438 -0.063437 -0.569986 0.941447 -0.642346
  9   6.790376 -0.619176 0.015206 -0.000324 -0.000352 -0.660342
 10   8.637599 0.544015 -0.090417 -1.570112 0.000362 -0.052064
 11   6.790465 -0.619039 0.017802 -0.001013 -0.011310 -0.477404
 12   -2.022474 -0.104699 -2.873818 0.298873 1.361800 -2.901984
 13   1.167898 -0.537463 0.063297 0.939270 -1.179697 -0.974943
 14   7.002743 -0.617765 -0.183752 0.000229 0.000250 -0.693789
 15   8.209042 0.615527 -0.255885 1.570090 -0.000063 -0.051966
 16   7.002735 -0.617911 -0.183641 0.014486 0.003872 -0.504342
 17   1.574674 0.609930 -0.000899 0.000000 0.000008 -0.427832
 18   -0.602177 0.511412 -0.000006 0.000000 0.000000 0.000000
 19   3.673773 0.184833 1.119313 -0.000002 -0.000014 -0.174510
 20   3.673767 0.176993 -1.117566 0.000007 -0.000003 -0.174546
 21   3.938451 1.338447 1.627658 0.000002 -0.000011 -0.000026
 22   -0.246060 -0.011889 0.516521 -0.000011 0.000031 0.000025
 23   3.942374 1.338472 -1.631083 0.000019 0.000002 -0.000024
 24   -0.246150 -0.011872 -0.516511 -0.000005 -0.000006 0.000048
 25   4.941364 1.997338 1.629330 0.000018 -0.000001 -0.000024
 26   4.941382 1.997366 -1.629410 -0.000001 0.000005 -0.000024
 27   2.918368 1.623171 1.514501 -0.000019 -0.000022 -0.000050
 28   2.920798 1.622777 -1.501142 -0.000002 -0.000009 -0.000024
 29   8.824059 0.150544 0.091743 0.018276 0.048337 0.433460
 30   2.279059 -0.151010 1.753069 0.007491 0.029976 0.365962
 31   2.175979 -0.162839 -1.884850 0.007477 0.030641 0.365927
 32   -0.810489 -0.093824 3.127092 0.047888 -2.805625 0.157048
 33   14.298673 -0.408176 0.475484 -0.000100 -0.000042 -1.899947
 34   15.835795 0.581398 0.242756 0.338306 0.027284 0.115632
 35   -0.815868 -0.091229 -3.114430 -0.064942 3.032477 -0.394613
 36   14.294526 -0.410349 -0.463635 0.000105 0.000060 -2.424781
 37   15.834409 0.579420 -0.284600 -0.123636 -0.029957 0.081213
 38   1.413131 -3.988922 -2.862877 -0.005831 -0.017148 0.270161
 39   -4.395240 -0.906412 -0.746180 0.001930 0.001450 0.051492
 40   1.286075 -3.981035 3.198226 -0.005831 -0.017147 0.270160
 41   -4.363525 -0.914594 0.959566 0.001929 0.001450 0.051492
 42   -0.657468 1.822306 -2.544078 0.005309 0.062052 -0.011752
 43   -0.582034 1.561855 2.701403 -0.017954 -0.076792 0.122870
time 17
  0   0.391868 -46.534569 -1.706712 -0.000826 -0.026227 -1.503620
  1   -1.093036 0.000002 -0.326057 -1.570495 -1.570379 -0.000268
  2   2.262337 0.113614 0.064702 -0.000052 0.000073 0.166366
  3   2.380047 0.353302 0.047440 0.000000 -0.000028 0.156939
  4   2.033756 0.190472 -0.000128 -0.000010 0.000024 0.130573
  5   2.451511 0.204909 -0.003447 0.000000 -0.000005 0.148110
  6   7.247600 -0.397300 -0.109469 0.000001 0.000009 0.052298
  7   -2.022252 -0.104661 3.136172 -0.159405 -1.174577 -3.047314
  8   1.168026 -0.537438 -0.063437 -0.569986 0.941447 -0.642346
  9   6.790376 -0.619176 0.015206 -0.000324 -0.000352 -0.660342
 10   8.637599 0.544015 -0.090417 -1.570112 0.000362 -0.052064
 11   6.790465 -0.619039 0.017802 -0.001013 -0.011310 -0.477404
 12   -2.022474 -0.104699 -2.873818 0.298873 1.361771 -2.901984
 13   1.167898 -0.537463 0.063297 0.939270 -1.179697 -0.974943
 14   7.002743 -0.617765 -0.183752 0.000229 0.000250 -0.693789
 15   8.209042 0.615527 -0.255885 1.570090 -0.000063 -0.051966
 16   7.002735 -0.617911 -0.183641 0.014486 0.003872 -0.504342
 17   1.574674 0.609930 -0.000899 0.000000 0.000008 -0.427832
 18   -0.602177 0.511412 -0.000006 0.000000 0.000000 0.000000
 19   3.673773 0.177020 1.119313 -0.000002 -0.000014 -0.174510
 20   3.673767 0.176993 -1.117566 0.000007 -0.000003 -0.174546
 21   3.942357 1.330634 1.627658 0.000002 -0.000011 -0.000026
 22   -0.246060 -0.011889 0.516521 -0.000011 0.000031 0.000025
 23   3.942374 1.330659 -1.631083 0.000019 0.000002 -0.000024
 24   -0.246150 -0.011872 -0.516511 -0.000005 -0.000006 0.000048
 25   4.941364 1.997338 1.629330 0.000018 -0.000001 -0.000024
 26   4.941382 1.997366 -1.629410 -0.000001 0.000005 -0.000024
 27   2.918368 1.623171 1.514501 -0.000019 -0.000022 -0.000050
 28   2.920798 1.614964 -1.501142 -0.000002 -0.000009 -0.000024
 29   8.824059 0.150544 0.091743 0.017563 0.046557 0.411357
 30   2.279059 -0.170542 1.753069 0.007192 0.028872 0.352668
 31   2.172073 -0.174558 -1.884850 0.007217 0.029554 0.352663
 32   -0.810489 -0.093824 3.127092 0.124972 -2.779075 0.056353
 33   14.298673 -0.408176 0.475484 -0.000100 -0.000042 -2.011660
 34   15.835795 0.581398 0.242756 0.383022 -0.005100 0.135963
 35   -0.815868 -0.091229 -3.114430 -0.066878 3.034632 -0.408909
 36   14.294526 -0.410349 -0.463635 0.000105 0.000060 -2.451353
 37   15.834409 0.579420 -0.284600 -0.123104 -0.028754 0.093280
 38   1.413131 -3.988922 -2.862877 -0.005999 -0.017534 0.257209
 39   -4.395240 -0.906412 -0.746180 0.001402 0.001115 0.035702
 40   1.282169 -3.977129 3.198226 -0.005999 -0.017533 0.257208
 41   -4.363525 -0.914594 0.959566 0.001401 0.001115 0.035702
 42   -0.649655 1.876995 -2.520640 0.006148 0.073827 -0.034837
 43   -0.558596 1.561855 2.662339 -0.021990 -0.093990 0.113586
time 18
  0   0.364523 -49.297401 -1.698900 -0.000991 -0.050320 -1.521384
  1   -1.093036 0.000002 -0.326057 -1.570599 -1.570379 -0.000171
  2   2.262337 0.113614 0.064702 -0.000052 0.000073 0.166366
  3   2.380047 0.353302 0.047440 0.000000 -0.000028 0.156939
  4   2.033756 0.190472 -0.000128 -0.000010 0.000024 0.130573
  5   2.451511 0.204909 -0.003447 0.000000 -0.000005 0.148110
  6   7.247600 -0.397300 -0.109469 0.000001 0.000009 0.052298
  7   -2.022252 -0.104661 3.136172 -0.159405 -1.174577 -3.047314
  8   1.168026 -0.537438 -0.063437 -0.569986 0.941447 -0.642346
  9   6.790376 -0.619176 0.015206 -0.000324 -0.000352 -0.660342
 10   8.637599 0.544015 -0.090417 -1.570112 0.000362 -0.052064
 11   6.790465 -0.619039 0.017802 -0.001013 -0.011310 -0.477404
 12   -2.022474 -0.104699 -2.873818 0.298873 1.361800 -2.901984
 13   1.167898 -0.537463 0.063297 0.939270 -1.179697 -0.974943
 14   7.002743 -0.617765 -0.183752 0.000229 0.000250 -0.693789
 15   8.209042 0.615527 -0.255885 1.570090 -0.000063 -0.051966
 16   7.002735 -0.617911 -0.183641 0.014486 0.003872 -0.504342
 17   1.574674 0.609930 -0.000899 0.000000 0.000008 -0.427832
 18   -0.602177 0.511412 -0.000006 0.000000 0.000000 0.000000
 19   3.673773 0.184833 1.119313 -0.000002 -0.000014 -0.174510
 20   3.673767 0.176993 -1.117566 0.000007 -0.000003 -0.174546
 21   3.942357 1.330634 1.627658 0.000002 -0.000011 -0.000026
 22   -0.246060 -0.011889 0.516521 -0.000011 0.000031 0.000025
 23   3.938468 1.330659 -1.631083 0.000019 0.000002 -0.000024
 24   -0.246150 -0.011872 -0.516511 -0.000005 -0.000006 0.000048
 25   4.941364 1.997338 1.629330 0.000018 -0.000001 -0.000024
 26   4.941382 1.997366 -1.629410 -0.000001 0.000005 -0.000024
 27   2.918368 1.615358 1.514501 -0.000019 -0.000022 -0.000050
 28   2.920798 1.614964 -1.501142 -0.000002 -0.000009 -0.000024
 29   8.824059 0.150544 0.091743 0.016582 0.043827 0.377237
 30   2.267340 -0.193980 1.753069 0.006786 0.027129 0.332126
 31   2.172073 -0.201903 -1.884850 0.006803 0.027792 0.332120
 32   -0.810489 -0.093824 3.127092 0.174559 -2.759114 -0.007628
 33   14.298673 -0.408176 0.475484 -0.000100 -0.000042 -2.089391
 34   15.835795 0.581398 0.242756 0.418260 -0.020401 0.156956
 35   -0.815868 -0.091229 -3.114430 -0.074183 3.033133 -0.417125
 36   14.294526 -0.410349 -0.463635 0.000105 0.000060 -2.480628
 37   15.834409 0.579420 -0.284600 -0.128955 -0.025503 0.114625
 38   1.413131 -3.992828 -2.862877 -0.006146 -0.017871 0.246090
 39   -4.395240 -0.906412 -0.746180 0.000971 0.000815 0.022212
 40   1.282169 -3.977129 3.198226 -0.006146 -0.017858 0.246089
 41   -4.363525 -0.914594 0.959566 0.000970 0.000815 0.022212
 42   -0.649655 1.927778 -2.493295 0.006819 0.083502 -0.053824
 43   -0.539064 1.573574 2.631088 -0.025313 -0.108143 0.103507
time 19
  0   0.352804 -52.048515 -1.687180 -0.000991 -0.063300 -1.531454
  1   -1.093036 0.000002 -0.326057 -1.570495 -1.570379 -0.000171
  2   2.262337 0.113614 0.064702 -0.000052 0.000073 0.166366
  3   2.380047 0.353302 0.047440 0.000000 -0.000028 0.156939
  4   2.033756 0.190472 -0.000128 -0.000010 0.000024 0.130573
  5   2.451511 0.204909 -0.003447 0.000000 -0.000005 0.148110
  6   7.247600 -0.397300 -0.109469 0.000001 0.000009 0.052298
  7   -2.022252 -0.104661 3.136172 -0.159405 -1.174577 -3.047408
  8   1.168026 -0.537438 -0.063437 -0.569986 0.941447 -0.642346
  9   6.790376 -0.619176 0.015206 -0.000324 -0.000352 -0.660342
 10   8.637599 0.544015 -0.090417 -1.570112 0.000362 -0.052064
 11   6.790465 -0.619039 0.017802 -0.001013 -0.011310 -0.477404
 12   -2.022474 -0.104699 -2.873818 0.298873 1.361800 -2.901984
 13   1.167898 -0.537463 0.063297 0.939270 -1.179697 -0.974943
 14   7.002743 -0.617765 -0.183752 0.000229 0.000250 -0.693789
 15   8.209042 0.615527 -0.255885 1.570090 -0.000063 -0.051966
 16   7.002735 -0.617911 -0.183641 0.014486 0.003872 -0.504342
 17   1.574674 0.609930 -0.000899 0.000000 0.000008 -0.427832
 18   -0.602177 0.511412 -0.000006 0.000000 0.000000 0.000000
 19   3.673773 0.184833 1.119313 -0.000002 -0.000014 -0.174510
 20   3.673767 0.176993 -1.117566 0.000007 -0.000003 -0.174546
 21   3.942357 1.338447 1.627658 0.000002 -0.000011 -0.000026
 22   -0.246060 -0.011889 0.516521 -0.000011 0.000031 0.000025
 23   3.942374 1.338472 -1.631083 0.000019 0.000002 -0.000024
 24   -0.246150 -0.011872 -0.516511 -0.000005 -0.000006 0.000048
 25   4.941364 1.997338 1.629330 0.000018 -0.000001 -0.000024
 26   4.941382 1.997366 -1.629410 -0.000001 0.000005 -0.000024
 27   2.918368 1.615358 1.514501 -0.000019 -0.000022 -0.000050
 28   2.920798 1.622777 -1.501142 -0.000002 -0.000009 -0.000024
 29   8.824059 0.150544 0.091743 0.015246 0.040314 0.333299
 30   2.251714 -0.217418 1.756975 0.006230 0.024920 0.305666
 31   2.164260 -0.233154 -1.880944 0.006236 0.025617 0.305646
 32   -0.810489 -0.093824 3.127092 0.199819 -2.748704 -0.039277
 33   14.298673 -0.408176 0.475484 -0.000100 -0.000042 -2.129169
 34   15.835795 0.581398 0.242756 0.437467 -0.027478 0.169305
 35   -0.815868 -0.091229 -3.114430 -0.078760 3.031822 -0.416961
 36   14.294526 -0.410349 -0.463635 0.000105 0.000060 -2.495305
 37   15.834409 0.579420 -0.284600 -0.133034 -0.023660 0.126946
 38   1.420944 -3.992828 -2.862877 -0.006294 -0.018136 0.237781
 39   -4.395240 -0.906412 -0.746180 0.000611 0.000551 0.012284
 40   1.282169 -3.977129 3.198226 -0.006294 -0.018135 0.237780
 41   -4.363525 -0.914594 0.959566 0.000610 0.000551 0.012284
 42   -0.645749 1.959029 -2.477670 0.007287 0.090018 -0.066746
 43   -0.527345 1.581387 2.607650 -0.027587 -0.117778 0.092801
time 20
  0   0.356710 -54.787914 -1.679368 -0.000991 -0.075213 -1.541334
  1   -1.093036 0.000002 -0.326057 -1.570495 -1.570379 -0.000171
  2   2.262337 0.113614 0.064702 -0.000052 0.000073 0.166366
  3   2.380047 0.353302 0.047440 0.000000 -0.000028 0.156939
  4   2.033756 0.190472 -0.000128 -0.000010 0.000024 0.130573
  5   2.451511 0.204909 -0.003447 0.000000 -0.000005 0.148110
  6   7.247600 -0.397300 -0.109469 0.000001 0.000009 0.052298
  7   -2.022252 -0.104661 3.136172 -0.159405 -1.174577 -3.047408
  8   1.168026 -0.537438 -0.063437 -0.569986 0.941447 -0.642346
  9   6.790376 -0.619176 0.015206 -0.000324 -0.000352 -0.660342
 10   8.637599 0.544015 -0.090417 -1.570112 0.000362 -0.052064
 11   6.790465 -0.619039 0.017802 -0.001013 -0.011310 -0.477404
 12   -2.022474 -0.104699 -2.873818 0.298873 1.361800 -2.901984
 13   1.167898 -0.537463 0.063297 0.939270 -1.179697 -0.974943
 14   7.002743 -0.617765 -0.183752 0.000229 0.000250 -0.693789
 15   8.209042 0.615527 -0.255885 1.570090 -0.000063 -0.051966
 16   7.002735 -0.617911 -0.183641 0.014486 0.003872 -0.504342
 17   1.574674 0.609930 -0.000899 0.000000 0.000008 -0.427832
 18   -0.602177 0.511412 -0.000006 0.000000 0.000000 0.000000
 19   3.673773 0.184833 1.119313 -0.000002 -0.000014 -0.174510
 20   3.673767 0.176993 -1.117566 0.000007 -0.000003 -0.174546
 21   3.942357 1.330634 1.627658 0.000002 -0.000011 -0.000026
 22   -0.246060 -0.011889 0.516521 -0.000011 0.000031 0.000025
 23   3.942374 1.330659 -1.631083 0.000019 0.000002 -0.000024
 24   -0.246150 -0.011872 -0.516511 -0.000005 -0.000006 0.000048
 25   4.941364 1.997338 1.629330 0.000018 -0.000001 -0.000024
 26   4.941382 1.997366 -1.629410 -0.000001 0.000005 -0.000024
 27   2.918368 1.615358 1.514501 -0.000019 -0.000022 -0.000050
 28   2.920798 1.614964 -1.501142 -0.000002 -0.000009 -0.000024
 29   8.824059 0.150544 0.091743 0.013641 0.036207 0.281636
 30   2.236089 -0.256482 1.756975 0.005606 0.022305 0.274574
 31   2.160354 -0.264405 -1.873131 0.005608 0.022975 0.274568
 32   -0.810489 -0.093824 3.127092 0.222096 -2.740491 -0.068591
 33   14.298673 -0.408176 0.475484 -0.000100 -0.000042 -2.165692
 34   15.835795 0.581398 0.242756 0.454580 -0.031578 0.180904
 35   -0.815868 -0.091229 -3.114430 -0.083513 3.029198 -0.415427
 36   14.294526 -0.410349 -0.463635 0.000105 0.000060 -2.503338
 37   15.834409 0.579420 -0.284600 -0.138156 -0.021868 0.139571
 38   1.420944 -3.992828 -2.862877 -0.006399 -0.018341 0.233260
 39   -4.395240 -0.906412 -0.746180 0.000395 0.000384 0.007292
 40   1.282169 -3.977129 3.198226 -0.006399 -0.018328 0.233259
 41   -4.371338 -0.914594 0.959566 0.000394 0.000384 0.007292
 42   -0.637936 1.970748 -2.469857 0.007442 0.092441 -0.071514
 43   -0.527345 1.593106 2.607650 -0.028412 -0.121308 0.081551
time 21
  0   0.325459 -57.550747 -1.659836 -0.000248 -0.095661 -1.559099
  1   -1.093036 0.000002 -0.326057 -1.570599 -1.570379 -0.000171
  2   2.262337 0.113614 0.064702 -0.000052 0.000073 0.166366
  3   2.380047 0.353302 0.047440 0.000000 -0.000028 0.156939
  4   2.033756 0.190472 -0.000128 -0.000010 0.000024 0.130573
  5   2.451511 0.204909 -0.003447 0.000000 -0.000005 0.148110
  6   7.247600 -0.397300 -0.109469 0.000001 0.000009 0.052298
  7   -2.022252 -0.104661 3.136172 -0.159405 -1.174577 -3.047314
  8   1.168026 -0.537438 -0.063437 -0.569986 0.941447 -0.642346
  9   6.790376 -0.619176 0.015206 -0.000324 -0.000352 -0.660342
 10   8.637599 0.544015 -0.090417 -1.570112 0.000362 -0.052064
 11   6.790465 -0.619039 0.017802 -0.001013 -0.011310 -0.477404
 12   -2.022474 -0.104699 -2.873818 0.298873 1.361800 -2.901984
 13   1.167898 -0.537463 0.063297 0.939270 -1.179697 -0.974943
 14   7.002743 -0.617765 -0.183752 0.000229 0.000250 -0.693789
 15   8.209042 0.615527 -0.255885 1.570090 -0.000063 -0.051966
 16   7.002735 -0.617911 -0.183641 0.014486 0.003872 -0.504342
 17   1.574674 0.609930 -0.000899 0.000000 0.000008 -0.427832
 18   -0.602177 0.511412 -0.000006 0.000000 0.000000 0.000000
 19   3.673773 0.184833 1.119313 -0.000002 -0.000014 -0.174510
 20   3.673767 0.176993 -1.117566 0.000007 -0.000003 -0.174546
 21   3.942357 1.338447 1.627658 0.000002 -0.000011 -0.000026
 22   -0.246060 -0.011889 0.516521 -0.000011 0.000031 0.000025
 23   3.942374 1.330659 -1.631083 0.000019 0.000002 -0.000024
 24   -0.246150 -0.011872 -0.516511 -0.000005 -0.000006 0.000048
 25   4.941364 1.997338 1.629330 0.000018 -0.000001 -0.000024
 26   4.941382 1.997366 -1.629410 -0.000001 0.000005 -0.000024
 27   2.918368 1.623171 1.514501 -0.000019 -0.000022 -0.000050
 28   2.924704 1.622777 -1.501142 -0.000002 -0.000009 -0.000024
 29   8.824059 0.150544 0.091743 0.011948 0.031602 0.224501
 30   2.224370 -0.295546 1.764788 0.004901 0.019428 0.240202
 31   2.160354 -0.299562 -1.873131 0.004903 0.020100 0.240178
 32   -0.810489 -0.093824 3.127092 0.261150 -2.729699 -0.125400
 33   14.298673 -0.408176 0.475484 -0.000100 -0.000042 -2.232863
 34   15.835795 0.581398 0.242756 0.482873 -0.036825 0.199030
 35   -0.815868 -0.091229 -3.114430 -0.090466 3.024045 -0.400364
 36   14.294526 -0.410349 -0.463635 0.000105 0.000060 -2.510522
 37   15.834409 0.579420 -0.284600 -0.147476 -0.018823 0.162387
 38   1.420944 -3.992828 -2.862877 -0.006441 -0.018449 0.231183
 39   -4.395240 -0.910318 -0.746180 0.000300 0.000288 0.005301
 40   1.282169 -3.977129 3.198226 -0.006441 -0.018461 0.231182
 41   -4.371338 -0.922407 0.959566 0.000299 0.000288 0.005301
 42   -0.645749 1.962935 -2.477670 0.007251 0.089834 -0.069507
 43   -0.527345 1.604825 2.607650 -0.027612 -0.117903 0.070050
time 22
  0   0.317646 -60.309673 -1.648117 0.000000 -0.104640 -1.571449
  1   -1.093036 0.000002 -0.326057 -1.570652 -1.570379 -0.000171
  2   2.262337 0.113614 0.064702 -0.000052 0.000073 0.166366
  3   2.380047 0.353302 0.047440 0.000000 -0.000028 0.156939
  4   2.033756 0.190472 -0.000128 -0.000010 0.000024 0.130573
  5   2.451511 0.204909 -0.003447 0.000000 -0.000005 0.148110
  6   7.247600 -0.397300 -0.109469 0.000001 0.000009 0.052298
  7   -2.022252 -0.104661 3.136172 -0.159405 -1.174577 -3.047314
  8   1.168026 -0.537438 -0.063437 -0.569986 0.941548 -0.642346
  9   6.790376 -0.619176 0.015206 -0.000324 -0.000352 -0.660342
 10   8.637599 0.544015 -0.090417 -1.570112 0.000362 -0.052064
 11   6.790465 -0.619039 0.017802 -0.001013 -0.011310 -0.477404
 12   -2.022474 -0.104699 -2.873818 0.298873 1.361800 -2.901984
 13   1.167898 -0.537463 0.063297 0.939270 -1.179697 -0.974943
 14   7.002743 -0.617765 -0.183752 0.000229 0.000250 -0.693789
 15   8.209042 0.615527 -0.255885 1.570090 -0.000063 -0.051966
 16   7.002735 -0.617911 -0.183641 0.014486 0.003872 -0.504342
 17   1.574674 0.609930 -0.000899 0.000000 0.000008 -0.427832
 18   -0.602177 0.511412 -0.000006 0.000000 0.000000 0.000000
 19   3.673773 0.184833 1.119313 -0.000002 -0.000014 -0.174510
 20   3.673767 0.176993 -1.117566 0.000007 -0.000003 -0.174546
 21   3.942357 1.330634 1.627658 0.000002 -0.000011 -0.000026
 22   -0.246060 -0.011889 0.516521 -0.000011 0.000031 0.000025
 23   3.942374 1.330659 -1.631083 0.000019 0.000002 -0.000024
 24   -0.246150 -0.011872 -0.516511 -0.000005 -0.000006 0.000048
 25   4.941364 1.997338 1.629330 0.000018 -0.000001 -0.000024
 26   4.941382 1.997366 -1.629410 -0.000001 0.000005 -0.000024
 27   2.918368 1.623171 1.514501 -0.000019 -0.000022 -0.000050
 28   2.920798 1.622777 -1.501142 -0.000002 -0.000009 -0.000024
 29   8.824059 0.150544 0.091743 0.010166 0.026807 0.164093
 30   2.204838 -0.338516 1.764788 0.004155 0.016376 0.203857
 31   2.152541 -0.342532 -1.873131 0.004168 0.017043 0.203842
 32   -0.810489 -0.093824 3.127092 0.286130 -2.732182 -0.177996
 33   14.298673 -0.408176 0.475484 -0.000100 -0.000042 -2.284313
 34   15.835795 0.581398 0.242756 0.494075 -0.035312 0.203132
 35   -0.815868 -0.091229 -3.114430 -0.091522 3.016831 -0.368758
 36   14.294526 -0.410349 -0.463635 0.000105 0.000060 -2.493451
 37   15.834409 0.579420 -0.284600 -0.153820 -0.017901 0.177040
 38   1.420944 -3.992828 -2.862877 -0.006504 -0.018570 0.229533
 39   -4.403053 -0.922037 -0.746180 0.000204 0.000204 0.003702
 40   1.282169 -3.977129 3.198226 -0.006504 -0.018569 0.229471
 41   -4.375244 -0.926313 0.959566 0.000203 0.000204 0.003702
 42   -0.645749 1.939497 -2.493295 0.006663 0.082812 -0.064070
 43   -0.539064 1.616544 2.631088 -0.025463 -0.108693 0.058466
time 23
  0   0.317646 -63.064693 -1.659836 0.000000 -0.099306 -1.574204
  1   -1.093036 0.000002 -0.326057 -1.570599 -1.570379 -0.000268
  2   2.262337 0.113614 0.064702 -0.000052 0.000073 0.166366
  3   2.380047 0.353302 0.047440 0.000000 -0.000028 0.156939
  4   2.033756 0.190472 -0.000128 -0.000010 0.000024 0.130573
  5   2.451511 0.204909 -0.003447 0.000000 -0.000005 0.148110
  6   7.247600 -0.397300 -0.109469 0.000001 0.000009 0.052298
  7   -2.022252 -0.104661 3.136172 -0.159405 -1.174577 -3.047314
  8   1.168026 -0.537438 -0.063437 -0.569986 0.941447 -0.642346
  9   6.790376 -0.619176 0.015206 -0.000324 -0.000352 -0.660342
 10   8.637599 0.544015 -0.090417 -1.570112 0.000362 -0.052064
 11   6.790465 -0.619039 0.017802 -0.001013 -0.011310 -0.477404
 12   -2.022474 -0.104699 -2.873818 0.298873 1.361771 -2.901984
 13   1.167898 -0.537463 0.063297 0.939270 -1.179697 -0.974943
 14   7.002743 -0.617765 -0.183752 0.000229 0.000250 -0.693789
 15   8.209042 0.615527 -0.255885 1.570090 -0.000063 -0.051966
 16   7.002735 -0.617911 -0.183641 0.014486 0.003872 -0.504342
 17   1.574674 0.609930 -0.000899 0.000000 0.000008 -0.427832
 18   -0.602177 0.511412 -0.000006 0.000000 0.000000 0.000000
 19   3.673773 0.184833 1.119313 -0.000002 -0.000014 -0.174510
 20   3.673767 0.176993 -1.117566 0.000007 -0.000003 -0.174546
 21   3.942357 1.338447 1.627658 0.000002 -0.000011 -0.000026
 22   -0.246060 -0.011889 0.516521 -0.000011 0.000031 0.000025
 23   3.942374 1.338472 -1.631083 0.000019 0.000002 -0.000024
 24   -0.246150 -0.011872 -0.516511 -0.000005 -0.000006 0.000048
 25   4.941364 1.997338 1.629330 0.000018 -0.000001 -0.000024
 26   4.941382 1.997366 -1.629410 -0.000001 0.000005 -0.000024
 27   2.918368 1.623171 1.514501 -0.000019 -0.000022 -0.000050
 28   2.924704 1.622777 -1.501142 -0.000002 -0.000009 -0.000024
 29   8.824059 0.150544 0.091743 0.008205 0.021893 0.102666
 30   2.185306 -0.373673 1.772601 0.003396 0.013267 0.166847
 31   2.144728 -0.381596 -1.865318 0.003417 0.013961 0.166814
 32   -0.810489 -0.093824 3.127092 0.294426 -2.749182 -0.226664
 33   14.298673 -0.408176 0.475484 -0.000100 -0.000042 -2.318772
 34   15.835795 0.581398 0.242756 0.485587 -0.027771 0.189504
 35   -0.815868 -0.091229 -3.114430 -0.085713 3.007556 -0.310477
 36   14.294526 -0.410349 -0.463635 0.000105 0.000060 -2.440461
 37   15.834409 0.579420 -0.284600 -0.158056 -0.019462 0.182972
 38   1.420944 -3.992828 -2.862877 -0.006546 -0.018630 0.228250
 39   -4.410866 -0.941569 -0.746180 0.000132 0.000132 0.002468
 40   1.282169 -3.977129 3.198226 -0.006546 -0.018629 0.228188
 41   -4.386963 -0.945845 0.959566 0.000143 0.000132 0.002468
 42   -0.649655 1.908246 -2.520640 0.005836 0.072478 -0.056040
 43   -0.558596 1.636076 2.658433 -0.022277 -0.095104 0.047174
time 24
  0   0.317646 -65.827530 -1.663742 0.000000 -0.093794 -1.573159
  1   -1.093036 0.000002 -0.326057 -1.570495 -1.570379 -0.000268
  2   2.262337 0.113614 0.064702 -0.000052 0.000073 0.166366
  3   2.380047 0.353302 0.047440 0.000000 -0.000028 0.156939
  4   2.033756 0.190472 -0.000128 -0.000010 0.000024 0.130573
  5   2.451511 0.204909 -0.003447 0.000000 -0.000005 0.148110
  6   7.247600 -0.397300 -0.109469 0.000001 0.000009 0.052298
  7   -2.022252 -0.104661 3.136172 -0.159405 -1.174577 -3.047314
  8   1.168026 -0.537438 -0.063437 -0.569986 0.941447 -0.642346
  9   6.790376 -0.619176 0.015206 -0.000324 -0.000352 -0.660342
 10   8.637599 0.544015 -0.090417 -1.570112 0.000362 -0.052064
 11   6.790465 -0.619039 0.017802 -0.001013 -0.011310 -0.477404
 12   -2.022474 -0.104699 -2.873818 0.298873 1.361771 -2.901792
 13   1.167898 -0.537463 0.063297 0.939270 -1.179697 -0.974943
 14   7.002743 -0.617765 -0.183752 0.000229 0.000250 -0.693789
 15   8.209042 0.615527 -0.255885 1.570090 -0.000063 -0.051966
 16   7.002735 -0.617911 -0.183641 0.014486 0.003872 -0.504342
 17   1.574674 0.609930 -0.000899 0.000000 0.000008 -0.427832
 18   -0.602177 0.511412 -0.000006 0.000000 0.000000 0.000000
 19   3.673773 0.177020 1.119313 -0.000002 -0.000014 -0.174510
 20   3.673767 0.176993 -1.117566 0.000007 -0.000003 -0.174546
 21   3.942357 1.330634 1.627658 0.000002 -0.000011 -0.000026
 22   -0.246060 -0.011889 0.516521 -0.000011 0.000031 0.000025
 23   3.942374 1.330659 -1.631083 0.000019 0.000002 -0.000024
 24   -0.246150 -0.011872 -0.516511 -0.000005 -0.000006 0.000048
 25   4.941364 1.997338 1.629330 0.000018 -0.000001 -0.000024
 26   4.941382 1.997366 -1.629410 -0.000001 0.000005 -0.000024
 27   2.918368 1.615358 1.514501 -0.000019 -0.000022 -0.000050
 28   2.920798 1.614964 -1.501142 -0.000002 -0.000009 -0.000024
 29   8.824059 0.150544 0.091743 0.006512 0.017050 0.042258
 30   2.173587 -0.416643 1.776507 0.002650 0.010245 0.130480
 31   2.140822 -0.424566 -1.861412 0.002651 0.010905 0.130478
 32   -0.810489 -0.093824 3.127092 0.294333 -2.759974 -0.250628
 33   14.298673 -0.408176 0.475484 -0.000100 -0.000042 -2.333143
 34   15.835795 0.581398 0.242756 0.477950 -0.023037 0.179757
 35   -0.815868 -0.091229 -3.114430 -0.081313 3.001841 -0.274051
 36   14.294526 -0.410349 -0.463635 0.000117 0.000072 -2.405856
 37   15.834409 0.579420 -0.284600 -0.160243 -0.020665 0.184138
 38   1.420944 -3.992828 -2.862877 -0.006567 -0.018690 0.227334
 39   -4.418678 -0.961101 -0.746180 0.000084 0.000084 0.001571
 40   1.274356 -3.977129 3.198226 -0.006567 -0.018702 0.227333
 41   -4.394776 -0.965377 0.959566 0.000083 0.000084 0.001571
 42   -0.649655 1.876995 -2.551891 0.004830 0.059890 -0.046338
 43   -0.574221 1.647795 2.701403 -0.018404 -0.078596 0.036426
time 25
  0   0.329365 -68.586456 -1.675461 0.000000 -0.084281 -1.570119
  1   -1.093036 0.000002 -0.326057 -1.570599 -1.570379 -0.000171
  2   2.262337 0.113614 0.064702 -0.000052 0.000073 0.166366
  3   2.380047 0.353302 0.047440 0.000000 -0.000028 0.156939
  4   2.033756 0.190472 -0.000128 -0.000010 0.000024 0.130573
  5   2.451511 0.204909 -0.003447 0.000000 -0.000005 0.148110
  6   7.247600 -0.397300 -0.109469 0.000001 0.000009 0.052298
  7   -2.022252 -0.104661 3.136172 -0.159405 -1.174577 -3.047314
  8   1.168026 -0.537438 -0.063437 -0.569986 0.941447 -0.642346
  9   6.790376 -0.619176 0.015206 -0.000324 -0.000352 -0.660342
 10   8.637599 0.544015 -0.090417 -1.570112 0.000362 -0.052064
 11   6.790465 -0.619039 0.017802 -0.001013 -0.011310 -0.477404
 12   -2.022474 -0.104699 -2.873818 0.298873 1.361800 -2.901984
 13   1.167898 -0.537463 0.063297 0.939270 -1.179697 -0.974943
 14   7.002743 -0.617765 -0.183752 0.000229 0.000250 -0.693789
 15   8.209042 0.615527 -0.255885 1.570090 -0.000063 -0.051966
 16   7.002735 -0.617911 -0.183641 0.014486 0.003872 -0.504342
 17   1.574674 0.609930 -0.000899 0.000000 0.000008 -0.427832
 18   -0.602177 0.511412 -0.000006 0.000000 0.000000 0.000000
 19   3.673773 0.177020 1.119313 -0.000002 -0.000014 -0.174510
 20   3.673767 0.176993 -1.117566 0.000007 -0.000003 -0.174546
 21   3.942357 1.330634 1.627658 0.000002 -0.000011 -0.000026
 22   -0.246060 -0.011889 0.516521 -0.000011 0.000031 0.000025
 23   3.942374 1.338472 -1.631083 0.000019 0.000002 -0.000024
 24   -0.246150 -0.011872 -0.516511 -0.000005 -0.000006 0.000048
 25   4.941364 1.997338 1.629330 0.000018 -0.000001 -0.000024
 26   4.941382 1.997366 -1.629410 -0.000001 0.000005 -0.000024
 27   2.918368 1.615358 1.514501 -0.000019 -0.000022 -0.000050
 28   2.920798 1.622777 -1.501142 -0.000002 -0.000009 -0.000024
 29   8.824059 0.150544 0.091743 0.004729 0.012493 -0.014877
 30   2.154055 -0.455707 1.776507 0.001945 0.007339 0.096108
 31   2.133009 -0.455817 -1.861412 0.001946 0.008029 0.096070
 32   -0.810489 -0.093824 3.127092 0.290511 -2.774681 -0.272828
 33   14.298673 -0.408176 0.475484 -0.000100 -0.000042 -2.341956
 34   15.835795 0.581398 0.242756 0.464034 -0.017058 0.165159
 35   -0.815868 -0.091229 -3.114430 -0.074183 2.995095 -0.225190
 36   14.294526 -0.410349 -0.463635 0.000105 0.000060 -2.356883
 37   15.834409 0.579420 -0.284600 -0.162745 -0.022201 0.184341
 38   1.420944 -3.992828 -2.862877 -0.006588 -0.018739 0.226539
 39   -4.426491 -0.980633 -0.746180 0.000048 0.000048 0.000869
 40   1.274356 -3.977129 3.198226 -0.006588 -0.018738 0.226600
 41   -4.402589 -0.988815 0.959566 0.000047 0.000048 0.000869
 42   -0.649655 1.834025 -2.583142 0.003715 0.046214 -0.035757
 43   -0.593753 1.659514 2.736560 -0.014206 -0.060645 0.026515
time 26
  0   0.321552 -71.337570 -1.679368 -0.000083 -0.062322 -1.564229
  1   -1.093036 0.000002 -0.326057 -1.570599 -1.570379 -0.000268
  2   2.262337 0.113614 0.064702 -0.000052 0.000073 0.166366
  3   2.380047 0.353302 0.047440 0.000000 -0.000028 0.156939
  4   2.033756 0.190472 -0.000128 -0.000010 0.000024 0.130573
  5   2.451511 0.204909 -0.003447 0.000000 -0.000005 0.148110
  6   7.247600 -0.397300 -0.109469 0.000001 0.000009 0.052298
  7   -2.022252 -0.104661 3.136172 -0.159405 -1.174577 -3.047314
  8   1.168026 -0.537438 -0.063437 -0.569986 0.941548 -0.642346
  9   6.790376 -0.619176 0.015206 -0.000324 -0.000352 -0.660342
 10   8.637599 0.544015 -0.090417 -1.570112 0.000362 -0.052064
 11   6.790465 -0.619039 0.017802 -0.001013 -0.011310 -0.477404
 12   -2.022474 -0.104699 -2.873818 0.298873 1.361800 -2.901984
 13   1.167898 -0.537463 0.063297 0.939270 -1.179697 -0.974943
 14   7.002743 -0.617765 -0.183752 0.000229 0.000250 -0.693789
 15   8.209042 0.615527 -0.255885 1.570090 -0.000063 -0.051966
 16   7.002735 -0.617911 -0.183641 0.014486 0.003872 -0.504342
 17   1.574674 0.609930 -0.000899 0.000000 0.000008 -0.427832
 18   -0.602177 0.511412 -0.000006 0.000000 0.000000 0.000000
 19   3.673773 0.184833 1.119313 -0.000002 -0.000014 -0.174510
 20   3.673767 0.184806 -1.117566 0.000007 -0.000003 -0.174546
 21   3.942357 1.338447 1.627658 0.000002 -0.000011 -0.000026
 22   -0.246060 -0.011889 0.516521 -0.000011 0.000031 0.000025
 23   3.942374 1.338472 -1.631083 0.000019 0.000002 -0.000024
 24   -0.246150 -0.011872 -0.516511 -0.000005 -0.000006 0.000048
 25   4.941364 1.997338 1.629330 0.000018 -0.000001 -0.000024
 26   4.941382 1.997366 -1.629410 -0.000001 0.000005 -0.000024
 27   2.918368 1.623171 1.514501 -0.000019 -0.000022 -0.000050
 28   2.920798 1.614964 -1.501142 -0.000002 -0.000009 -0.000024
 29   8.824059 0.150544 0.091743 0.003125 0.008386 -0.066540
 30   2.138430 -0.490864 1.784320 0.001321 0.004723 0.065038
 31   2.129103 -0.490974 -1.853599 0.001318 0.005413 0.064992
 32   -0.810489 -0.093824 3.127092 0.278394 -2.804001 -0.314837
 33   14.298673 -0.408176 0.475484 -0.000100 -0.000042 -2.357677
 34   15.835795 0.581398 0.242756 0.434270 -0.005344 0.135081
 35   -0.815868 -0.091229 -3.114430 -0.058957 2.982541 -0.124457
 36   14.294526 -0.410349 -0.463635 0.000105 0.000060 -2.255153
 37   15.834409 0.579420 -0.284600 -0.168104 -0.025068 0.183124
 38   1.420944 -3.992828 -2.862877 -0.006609 -0.018775 0.226173
 39   -4.438210 -1.004071 -0.746180 0.000024 0.000024 0.000449
 40   1.274356 -3.977129 3.198226 -0.006609 -0.018774 0.226172
 41   -4.418214 -1.008347 0.959566 0.000023 0.000024 0.000449
 42   -0.657468 1.791055 -2.618299 0.002625 0.032522 -0.025134
 43   -0.621098 1.671233 2.775624 -0.010008 -0.042679 0.017732
time 27
  0   0.321552 -74.092598 -1.706712 -0.000083 -0.040096 -1.562899
  1   -1.093036 0.000002 -0.326057 -1.570495 -1.570379 -0.000268
  2   2.262337 0.113614 0.064702 -0.000052 0.000073 0.166366
  3   2.380047 0.353302 0.047440 0.000000 -0.000028 0.156939
  4   2.033756 0.190472 -0.000128 -0.000010 0.000024 0.130573
  5   2.451511 0.204909 -0.003447 0.000000 -0.000005 0.148110
  6   7.247600 -0.397300 -0.109469 0.000001 0.000009 0.052298
  7   -2.022252 -0.104661 3.136172 -0.159405 -1.174577 -3.047408
  8   1.168026 -0.537438 -0.063437 -0.569986 0.941548 -0.642346
  9   6.790376 -0.619176 0.015206 -0.000324 -0.000352 -0.660342
 10   8.637599 0.544015 -0.090417 -1.570112 0.000362 -0.052064
 11   6.790465 -0.619039 0.017802 -0.001013 -0.011310 -0.477404
 12   -2.022474 -0.104699 -2.873818 0.298873 1.361800 -2.901984
 13   1.167898 -0.537463 0.063297 0.939270 -1.179697 -0.974943
 14   7.002743 -0.617765 -0.183752 0.000229 0.000250 -0.693789
 15   8.209042 0.615527 -0.255885 1.570090 -0.000063 -0.051966
 16   7.002735 -0.617911 -0.183641 0.014486 0.003872 -0.504342
 17   1.574674 0.609930 -0.000899 0.000000 0.000008 -0.427832
 18   -0.602177 0.511412 -0.000006 0.000000 0.000000 0.000000
 19   3.673773 0.184833 1.119313 -0.000002 -0.000014 -0.174510
 20   3.673767 0.176993 -1.117566 0.000007 -0.000003 -0.174546
 21   3.942357 1.330634 1.627658 0.000002 -0.000011 -0.000026
 22   -0.246060 -0.011889 0.516521 -0.000011 0.000031 0.000025
 23   3.938468 1.338472 -1.631083 0.000019 0.000002 -0.000024
 24   -0.246150 -0.011872 -0.516511 -0.000005 -0.000006 0.000048
 25   4.941364 1.997338 1.629330 0.000018 -0.000001 -0.000024
 26   4.941382 1.997366 -1.629410 -0.000001 0.000005 -0.000024
 27   2.918368 1.615358 1.514501 -0.000019 -0.000022 -0.000050
 28   2.920798 1.614964 -1.501142 -0.000002 -0.000009 -0.000024
 29   8.824059 0.150544 0.091743 0.001878 0.004873 -0.110585
 30   2.122804 -0.522115 1.784320 0.000765 0.002544 0.038556
 31   2.121290 -0.522225 -1.853599 0.000766 0.003212 0.038518
 32   -0.810489 -0.093824 3.127092 0.260964 -2.833035 -0.352633
 33   14.298673 -0.408176 0.475484 -0.000100 -0.000042 -2.369825
 34   15.835795 0.581398 0.242756 0.401584 0.006028 0.104739
 35   -0.815868 -0.091229 -3.114430 -0.041706 2.971018 -0.018740
 36   14.294526 -0.410349 -0.463635 0.000105 0.000060 -2.148324
 37   15.834409 0.579420 -0.284600 -0.173719 -0.027807 0.181248
 38   1.420944 -3.992828 -2.862877 -0.006609 -0.018787 0.225806
 39   -4.446023 -1.023603 -0.746180 0.000000 0.000000 0.000168
 40   1.274356 -3.977129 3.198226 -0.006609 -0.018786 0.225805
 41   -4.426027 -1.027879 0.959566 0.000011 0.000000 0.000168
 42   -0.657468 1.755898 -2.641737 0.001606 0.019965 -0.015432
 43   -0.636723 1.686859 2.818594 -0.006135 -0.026203 0.010413
time 28
  0   0.321552 -76.843712 -1.722338 0.000000 -0.019737 -1.571449
  1   -1.093036 0.000002 -0.326057 -1.570495 -1.570379 -0.000268
  2   2.262337 0.113614 0.064702 -0.000052 0.000073 0.166366
  3   2.380047 0.353302 0.047440 0.000000 -0.000028 0.156939
  4   2.033756 0.190472 -0.000128 -0.000010 0.000024 0.130573
  5   2.451511 0.204909 -0.003447 0.000000 -0.000005 0.148110
  6   7.247600 -0.397300 -0.109469 0.000001 0.000009 0.052298
  7   -2.022252 -0.104661 3.136172 -0.159405 -1.174577 -3.047314
  8   1.168026 -0.537438 -0.063437 -0.569986 0.941447 -0.642346
  9   6.790376 -0.619176 0.015206 -0.000324 -0.000352 -0.660342
 10   8.637599 0.544015 -0.090417 -1.570112 0.000362 -0.052064
 11   6.790465 -0.619039 0.017802 -0.001013 -0.011310 -0.477404
 12   -2.022474 -0.104699 -2.873818 0.298873 1.361800 -2.901792
 13   1.167898 -0.537463 0.063297 0.939270 -1.179697 -0.974943
 14   7.002743 -0.617765 -0.183752 0.000229 0.000250 -0.693789
 15   8.209042 0.615527 -0.255885 1.570090 -0.000063 -0.051966
 16   7.002735 -0.617911 -0.183641 0.014486 0.003872 -0.504342
 17   1.574674 0.609930 -0.000899 0.000000 0.000008 -0.427832
 18   -0.602177 0.511412 -0.000006 0.000000 0.000000 0.000000
 19   3.673773 0.184833 1.119313 -0.000002 -0.000014 -0.174510
 20   3.673767 0.176993 -1.117566 0.000007 -0.000003 -0.174546
 21   3.942357 1.330634 1.627658 0.000002 -0.000011 -0.000026
 22   -0.246060 -0.011889 0.516521 -0.000011 0.000031 0.000025
 23   3.942374 1.330659 -1.631083 0.000019 0.000002 -0.000024
 24   -0.246150 -0.011872 -0.516511 -0.000005 -0.000006 0.000048
 25   4.941364 1.997338 1.629330 0.000018 -0.000001 -0.000024
 26   4.941382 1.997366 -1.629410 -0.000001 0.000005 -0.000024
 27   2.918368 1.615358 1.514501 -0.000019 -0.000022 -0.000050
 28   2.920798 1.614964 -1.501142 -0.000002 -0.000009 -0.000024
 29   8.824059 0.150544 0.091743 0.000808 0.002143 -0.144652
 30   2.118898 -0.541647 1.784320 0.000345 0.000771 0.018036
 31   2.121290 -0.541757 -1.853599 0.000368 0.001476 0.017975
 32   -0.810489 -0.093824 3.127092 0.242881 -2.857961 -0.385249
 33   14.298673 -0.408176 0.475484 -0.000100 -0.000042 -2.381655
 34   15.835795 0.581398 0.242756 0.371061 0.016107 0.079909
 35   -0.815868 -0.091229 -3.114430 -0.025159 2.961649 0.080405
 36   14.294526 -0.410349 -0.463635 0.000105 0.000060 -2.049915
 37   15.834409 0.579420 -0.284600 -0.179492 -0.029496 0.180741
 38   1.420944 -3.992828 -2.862877 -0.006652 -0.018799 0.225684
 39   -4.457742 -1.043135 -0.746180 0.000000 0.000000 0.000028
 40   1.274356 -3.977129 3.198226 -0.006652 -0.018798 0.225683
 41   -4.433840 -1.051317 0.959566 -0.000001 0.000000 0.000028
 42   -0.657468 1.724647 -2.669082 0.000755 0.009600 -0.007402
 43   -0.656255 1.698578 2.842032 -0.002949 -0.012614 0.004809
time 29
  0   0.274675 -79.594826 -1.734057 0.000000 -0.005068 -1.621038
  1   -1.093036 0.000002 -0.326057 -1.570599 -1.570379 -0.000171
  2   2.262337 0.113614 0.064702 -0.000052 0.000073 0.166366
  3   2.380047 0.353302 0.047440 0.000000 -0.000028 0.156939
  4   2.033756 0.190472 -0.000128 -0.000010 0.000024 0.130573
  5   2.451511 0.204909 -0.003447 0.000000 -0.000005 0.148110
  6   7.247600 -0.397300 -0.109469 0.000001 0.000009 0.052298
  7   -2.022252 -0.104661 3.136172 -0.159405 -1.174577 -3.047314
  8   1.168026 -0.537438 -0.063437 -0.569986 0.941447 -0.642346
  9   6.790376 -0.619176 0.015206 -0.000324 -0.000352 -0.660342
 10   8.637599 0.544015 -0.090417 -1.570112 0.000362 -0.052064
 11   6.790465 -0.619039 0.017802 -0.001013 -0.011310 -0.477404
 12   -2.022474 -0.104699 -2.873818 0.298873 1.361771 -2.901697
 13   1.167898 -0.537463 0.063297 0.939270 -1.179697 -0.974943
 14   7.002743 -0.617765 -0.183752 0.000229 0.000250 -0.693789
 15   8.209042 0.615527 -0.255885 1.570090 -0.000063 -0.051966
 16   7.002735 -0.617911 -0.183641 0.014486 0.003872 -0.504342
 17   1.574674 0.609930 -0.000899 0.000000 0.000008 -0.427832
 18   -0.602177 0.511412 -0.000006 0.000000 0.000000 0.000000
 19   3.673773 0.177020 1.119313 -0.000002 -0.000014 -0.174510
 20   3.673767 0.176993 -1.117566 0.000007 -0.000003 -0.174546
 21   3.938451 1.330634 1.627658 0.000002 -0.000011 -0.000026
 22   -0.246060 -0.011889 0.516521 -0.000011 0.000031 0.000025
 23   3.938468 1.330659 -1.631083 0.000019 0.000002 -0.000024
 24   -0.246150 -0.011872 -0.516511 -0.000005 -0.000006 0.000048
 25   4.941364 1.997338 1.629330 0.000018 -0.000001 -0.000024
 26   4.941382 1.997366 -1.629410 -0.000001 0.000005 -0.000024
 27   2.918368 1.615358 1.514501 -0.000019 -0.000022 -0.000050
 28   2.920798 1.614964 -1.501142 -0.000002 -0.000009 -0.000024
 29   8.824059 0.150544 0.091743 0.000095 0.000362 -0.166701
 30   2.111085 -0.561179 1.784320 0.000087 -0.000304 0.004720
 31   2.121290 -0.561289 -1.853599 0.000092 0.000389 0.004711
 32   -0.810489 -0.093824 3.127092 0.223587 -2.870568 -0.394300
 33   14.298673 -0.408176 0.475484 -0.000100 -0.000042 -2.383640
 34   15.835795 0.581398 0.242756 0.348933 0.026064 0.069589
 35   -0.815868 -0.091229 -3.114430 -0.011077 2.955652 0.161857
 36   14.294526 -0.410349 -0.463635 0.000105 0.000060 -1.967264
 37   15.834409 0.579420 -0.284600 -0.184142 -0.029880 0.178561
 38   1.420944 -3.992828 -2.862877 -0.006652 -0.018799 0.225623
 39   -4.457742 -1.054854 -0.746180 0.000000 0.000000 0.000000
 40   1.274356 -3.977129 3.198226 -0.006652 -0.018798 0.225622
 41   -4.433840 -1.059130 0.959566 -0.000001 0.000000 0.000000
 42   -0.657468 1.697302 -2.688614 0.000204 0.002578 -0.001966
 43   -0.664068 1.698578 2.865470 -0.000775 -0.003372 0.001255
time 30
  0   0.243424 -82.146713 -1.741870 0.000000 0.000000 -1.659038
  1   -1.093036 0.000002 -0.326057 -1.570599 -1.570379 -0.000268
  2   2.262337 0.113614 0.064702 -0.000052 0.000073 0.166366
  3   2.380047 0.353302 0.047440 0.000000 -0.000028 0.156939
  4   2.033756 0.190472 -0.000128 -0.000010 0.000024 0.130573
  5   2.451511 0.204909 -0.003447 0.000000 -0.000005 0.148110
  6   7.247600 -0.397300 -0.109469 0.000001 0.000009 0.052298
  7   -2.022252 -0.104661 3.136172 -0.159405 -1.174577 -3.047314
  8   1.168026 -0.537438 -0.063437 -0.569986 0.941447 -0.642346
  9   6.790376 -0.619176 0.015206 -0.000324 -0.000352 -0.660342
 10   8.637599 0.544015 -0.090417 -1.570112 0.000362 -0.052064
 11   6.790465 -0.619039 0.017802 -0.001013 -0.011310 -0.477404
 12   -2.022474 -0.104699 -2.873818 0.298873 1.361771 -2.901792
 13   1.167898 -0.537463 0.063297 0.939270 -1.179697 -0.974943
 14   7.002743 -0.617765 -0.183752 0.000229 0.000250 -0.693789
 15   8.209042 0.615527 -0.255885 1.570090 -0.000063 -0.051966
 16   7.002735 -0.617911 -0.183641 0.014486 0.003872 -0.504342
 17   1.574674 0.609930 -0.000899 0.000000 0.000008 -0.427832
 18   -0.602177 0.511412 -0.000006 0.000000 0.000000 0.000000
 19   3.673773 0.184833 1.119313 -0.000002 -0.000014 -0.174510
 20   3.673767 0.176993 -1.117566 0.000007 -0.000003 -0.174546
 21   3.942357 1.330634 1.627658 0.000002 -0.000011 -0.000026
 22   -0.246060 -0.011889 0.516521 -0.000011 0.000031 0.000025
 23   3.938468 1.330659 -1.631083 0.000019 0.000002 -0.000024
 24   -0.246150 -0.011872 -0.516511 -0.000005 -0.000006 0.000048
 25   4.941364 1.997338 1.629330 0.000018 -0.000001 -0.000024
 26   4.941382 1.997366 -1.629410 -0.000001 0.000005 -0.000024
 27   2.918368 1.623171 1.514501 -0.000019 -0.000022 -0.000050
 28   2.920798 1.614964 -1.501142 -0.000002 -0.000009 -0.000024
 29   8.824059 0.150544 0.091743 0.000006 -0.000231 -0.174534
 30   2.111085 -0.561179 1.784320 -0.000008 -0.000682 0.000024
 31   2.121290 -0.561289 -1.853599 0.000000 0.000000 -0.000002
 32   -0.810489 -0.093824 3.127092 0.213520 -2.873433 -0.395495
 33   14.298673 -0.408176 0.475484 -0.000100 -0.000042 -2.383958
 34   15.835795 0.581398 0.242756 0.340215 0.031018 0.068310
 35   -0.815868 -0.091229 -3.114430 -0.005004 2.953404 0.197133
 36   14.294526 -0.410349 -0.463635 0.000105 0.000060 -1.930805
 37   15.834409 0.579420 -0.284600 -0.186112 -0.029957 0.177040
 38   1.420944 -3.992828 -2.862877 -0.006652 -0.018799 0.225623
 39   -4.457742 -1.054854 -0.746180 0.000000 0.000000 0.000000
 40   1.274356 -3.977129 3.198226 -0.006652 -0.018798 0.225622
 41   -4.433840 -1.059130 0.959566 -0.000001 0.000000 0.000000
 42   -0.657468 1.697302 -2.688614 0.000000 0.000002 0.000000
 43   -0.664068 1.698578 2.869377 0.000000 0.000002 0.000000
end
