version 1
nodes
  0 "Bip01" -1
  1 "Bip01 Pelvis" 0
  2 "Bip01 Spine" 1
  3 "Bip01 Spine1" 2
  4 "Bip01 Spine2" 3
  5 "Bip01 Spine3" 4
  6 "Bip01 Neck" 5
  7 "Bip01 L Arm" 6
  8 "Bip01 L Arm1" 7
  9 "Bip01 L Arm2" 8
 10 "Bip01 L Hand" 9
 11 "Bip06 L elbow2-smooth" 8
 12 "Bip01 R Arm" 6
 13 "Bip01 R Arm1" 12
 14 "Bip01 R Arm2" 13
 15 "Bip01 R Hand" 14
 16 "Bip06 R elbow2-smooth" 13
 17 "Bip01 Head" 6
 18 "Bip06 Head_helper" 17
 19 "Bip06 Head_eyes_l" 18
 20 "Bip06 Head_eyes_r" 18
 21 "Bip06 Head_blink_l" 18
 22 "Bip06 Head_blink_smooth_l1" 21
 23 "Bip06 Head_blink_r" 18
 24 "Bip06 Head_blink_smooth_r1" 23
 25 "Bip06 Head_L_eyebrow" 18
 26 "Bip06 Head_R_eyebrow" 18
 27 "Bip06 Head_blink_l_lid" 18
 28 "Bip06 Head_blink_r_lid" 18
 29 "Bip06 bunny" 18
 30 "Bip06 bunnyL" 29
 31 "Bip06 bunnyR" 29
 32 "Bip01 L Leg" 1
 33 "Bip01 L Leg1" 32
 34 "Bip01 L Foot" 33
 35 "Bip01 R Leg" 1
 36 "Bip01 R Leg1" 35
 37 "Bip01 R Foot" 36
 38 "Bip03 HairR1" 17
 39 "Bip03 HairR2" 38
 40 "Bip03 HairL1" 17
 41 "Bip03 HairL2" 40
 42 "Bip03 swingR" 17
 43 "Bip03 swingL" 17
end
skeleton
time 0
  0   -0.967547 0.175787 -20.574476 0.000000 0.000000 -1.572114
  1   -1.093036 0.000002 -0.326057 -1.570757 -1.570379 -0.000123
  2   2.262337 0.113614 0.064702 -0.241441 -0.007502 -0.059755
  3   2.380047 0.353302 0.047440 0.020461 0.013527 0.086295
  4   2.033756 0.190472 -0.000128 -0.225360 -0.026078 0.329025
  5   2.451511 0.204909 -0.003447 -0.218548 -0.008922 0.458421
  6   7.247600 -0.397300 -0.109469 0.000001 0.000033 0.087015
  7   -2.022252 -0.104661 3.136172 1.219320 -1.038027 -4.397509
  8   1.168026 -0.537438 -0.063437 -0.445830 -0.061267 -0.126331
  9   6.790376 -0.619176 0.015206 0.005335 0.002985 -1.616741
 10   8.637599 0.544015 -0.090417 -2.304133 -0.089034 -0.069282
 11   6.790465 -0.619039 0.017802 0.007483 -0.010457 -1.146894
 12   -2.022474 -0.104699 -2.873818 -1.356481 0.807733 -4.507658
 13   1.167898 -0.537463 0.063297 1.152402 -0.300144 -0.994072
 14   7.002743 -0.617765 -0.183752 0.000286 0.000250 -1.534354
 15   8.209042 0.615527 -0.255885 2.158040 -0.134813 0.133438
 16   7.002735 -0.617911 -0.183641 0.013638 0.008439 -1.092697
 17   1.574674 0.609930 -0.000899 0.576075 -0.236732 -0.159717
 18   -0.602177 0.511412 -0.000006 0.000000 0.000000 0.000000
 19   3.673773 0.177020 1.119313 -0.000002 -0.000014 -0.174510
 20   3.673767 0.176993 -1.117566 0.000007 -0.000003 -0.174546
 21   3.942357 1.330634 1.627658 0.000002 -0.000011 -0.000026
 22   -0.246060 -0.011889 0.516521 -0.000011 0.000031 0.000025
 23   3.942374 1.330659 -1.631083 0.000019 0.000002 -0.000024
 24   -0.246150 -0.011872 -0.516511 -0.000005 -0.000006 0.000048
 25   4.941364 1.997338 1.629330 0.000018 -0.000001 -0.000024
 26   4.941382 1.997366 -1.629410 -0.000001 0.000005 -0.000024
 27   2.918368 1.615358 1.514501 -0.000019 -0.000022 -0.000050
 28   2.920798 1.614964 -1.501142 -0.000002 -0.000009 -0.000024
 29   8.824059 0.150544 0.091743 0.000006 -0.000231 -0.174534
 30   2.111085 -0.561179 1.784320 -0.000008 -0.000682 0.000024
 31   2.121290 -0.561289 -1.853599 0.000000 0.000000 -0.000002
 32   -0.810489 -0.093824 3.127092 3.071872 -0.114782 1.239365
 33   14.298673 -0.408176 0.475484 0.000248 0.000062 -1.896136
 34   15.835795 0.581398 0.242756 -0.214729 0.106889 -0.097869
 35   -0.815868 -0.091229 -3.114430 0.066464 3.132725 -1.010185
 36   14.294526 -0.410349 -0.463635 0.000033 -0.000000 -2.607695
 37   15.834409 0.579420 -0.284600 -0.006092 -0.035255 0.214458
 38   1.139685 -3.453749 -2.823813 0.000000 0.000000 0.000001
 39   -4.457742 -1.054854 -0.746180 0.000000 0.000000 0.000000
 40   1.118101 -3.449769 3.237290 0.000000 0.000001 0.000000
 41   -4.433840 -1.059130 0.959566 -0.000001 0.000000 0.000000
 42   -0.657468 1.697302 -2.688614 0.000000 0.000002 0.000000
 43   -0.664068 1.698578 2.869377 0.000000 0.000002 0.000000
time 1
  0   -0.967547 0.175787 -20.574476 0.000000 0.000000 -1.572114
  1   -1.093036 0.000002 -0.326057 -1.570757 -1.570379 -0.000123
  2   2.262337 0.113614 0.064702 -0.240817 -0.017545 -0.100559
  3   2.380047 0.353302 0.047440 -0.052369 0.010267 0.044484
  4   2.033756 0.190472 -0.000128 -0.297415 -0.041335 0.289806
  5   2.451511 0.204909 -0.003447 -0.291055 -0.022748 0.418845
  6   7.247600 -0.397300 -0.109469 0.000001 0.000033 0.087015
  7   -2.022252 -0.104661 3.136172 1.219320 -1.038027 -4.397509
  8   1.168026 -0.537438 -0.063437 -0.579288 -0.038726 -0.119752
  9   6.790376 -0.619176 0.015206 0.005335 0.003119 -1.635759
 10   8.637599 0.544015 -0.090417 -2.236675 0.034994 -0.047434
 11   6.790465 -0.619039 0.017802 0.007512 -0.010457 -1.160332
 12   -2.022474 -0.104699 -2.873818 -1.412433 0.660581 -4.544806
 13   1.167898 -0.537463 0.063297 1.187970 -0.201336 -0.909747
 14   7.002743 -0.617765 -0.183752 0.000229 0.000250 -1.497144
 15   8.209042 0.615527 -0.255885 2.171199 -0.021777 -0.033564
 16   7.002735 -0.617911 -0.183641 0.013686 0.008270 -1.066591
 17   1.574674 0.609930 -0.000899 0.780069 -0.346357 -0.090378
 18   -0.602177 0.511412 -0.000006 0.000000 0.000000 0.000000
 19   3.673773 0.177020 1.119313 -0.000002 -0.000014 -0.174510
 20   3.673767 0.176993 -1.117566 0.000007 -0.000003 -0.174546
 21   3.942357 1.330634 1.627658 0.000002 -0.000011 -0.000026
 22   -0.246060 -0.011889 0.516521 -0.000011 0.000031 0.000025
 23   3.942374 1.330659 -1.631083 0.000019 0.000002 -0.000024
 24   -0.246150 -0.011872 -0.516511 -0.000005 -0.000006 0.000048
 25   4.941364 1.997338 1.629330 0.000018 0.023166 -0.000024
 26   4.941382 1.997366 -1.629410 -0.000001 -0.023159 -0.000024
 27   2.918368 1.615358 1.514501 -0.000019 -0.000022 -0.000050
 28   2.920798 1.614964 -1.501142 -0.000002 -0.000009 -0.000024
 29   8.824059 0.150544 0.091743 0.000006 -0.000231 -0.174534
 30   2.111085 -0.561179 1.784320 -0.000008 -0.000682 0.000024
 31   2.121290 -0.561289 -1.853599 0.000000 0.000000 -0.000002
 32   -0.810489 -0.093824 3.127092 3.071872 -0.114782 1.239365
 33   14.298673 -0.408176 0.475484 0.000248 0.000062 -1.896136
 34   15.835795 0.581398 0.242756 -0.214729 0.106889 -0.097869
 35   -0.815868 -0.091229 -3.114430 0.066464 3.132725 -1.010185
 36   14.294526 -0.410349 -0.463635 0.000033 -0.000000 -2.607695
 37   15.834409 0.579420 -0.284600 -0.006092 -0.035255 0.214458
 38   1.139685 -3.453749 -2.823813 0.000000 0.000000 0.000001
 39   -4.457742 -1.054854 -0.746180 0.000000 0.000000 0.000000
 40   1.118101 -3.449769 3.237290 0.000000 0.000001 0.000000
 41   -4.433840 -1.059130 0.959566 -0.000001 0.000000 0.000000
 42   -0.657468 1.697302 -2.688614 0.000000 0.000002 0.000000
 43   -0.664068 1.698578 2.869377 0.000000 0.000002 0.000000
time 2
  0   -0.967547 0.175787 -20.574476 0.000000 0.000000 -1.572114
  1   -1.093036 0.000002 -0.326057 -1.570757 -1.570379 -0.000123
  2   2.262337 0.113614 0.064702 -0.239900 -0.027576 -0.141381
  3   2.380047 0.353302 0.047440 -0.125258 0.003675 0.003244
  4   2.033756 0.190472 -0.000128 -0.368714 -0.059180 0.251710
  5   2.451511 0.204909 -0.003447 -0.362826 -0.039237 0.380286
  6   7.247600 -0.397300 -0.109469 0.000001 0.000033 0.087015
  7   -2.022252 -0.104661 3.136172 1.190371 -1.070485 -4.372528
  8   1.168026 -0.537438 -0.063437 -0.707621 -0.102575 -0.195285
  9   6.790376 -0.619176 0.015206 0.005557 0.002652 -1.497125
 10   8.637599 0.544015 -0.090417 -2.176351 0.134104 -0.076010
 11   6.790465 -0.619039 0.017802 0.007016 -0.010599 -1.063208
 12   -2.022474 -0.104699 -2.873818 -1.456121 0.512066 -4.569124
 13   1.167898 -0.537463 0.063297 1.232115 -0.098817 -0.832565
 14   7.002743 -0.617765 -0.183752 0.000229 0.000250 -1.460099
 15   8.209042 0.615527 -0.255885 2.165303 0.092015 -0.200084
 16   7.002735 -0.617911 -0.183641 0.013733 0.007988 -1.040761
 17   1.574674 0.609930 -0.000899 0.991456 -0.470063 -0.061511
 18   -0.602177 0.511412 -0.000006 0.000000 0.000000 0.000000
 19   3.673773 0.177020 1.119313 -0.000002 -0.000014 -0.174510
 20   3.673767 0.176993 -1.117566 0.000007 -0.000003 -0.174546
 21   3.942357 1.330634 1.627658 0.000002 -0.000011 -0.000026
 22   -0.246060 -0.011889 0.516521 -0.000011 0.000031 0.000025
 23   3.942374 1.330659 -1.631083 0.000019 0.000002 -0.000024
 24   -0.246150 -0.011872 -0.516511 -0.000005 -0.000006 0.000048
 25   4.941364 1.997338 1.629330 0.000018 0.088721 -0.000024
 26   4.941382 1.997366 -1.629410 -0.000001 -0.088721 -0.000024
 27   2.918368 1.615358 1.514501 -0.000019 -0.000022 -0.000050
 28   2.920798 1.614964 -1.501142 -0.000002 -0.000009 -0.000024
 29   8.824059 0.150544 0.091743 0.000006 -0.000231 -0.174534
 30   2.111085 -0.561179 1.784320 -0.000008 -0.000682 0.000024
 31   2.121290 -0.561289 -1.853599 0.000000 0.000000 -0.000002
 32   -0.810489 -0.093824 3.127092 3.071872 -0.114782 1.239365
 33   14.298673 -0.408176 0.475484 0.000248 0.000062 -1.896136
 34   15.835795 0.581398 0.242756 -0.214729 0.106889 -0.097869
 35   -0.815868 -0.091229 -3.114430 0.066464 3.132725 -1.010185
 36   14.294526 -0.410349 -0.463635 0.000033 -0.000000 -2.607695
 37   15.834409 0.579420 -0.284600 -0.006092 -0.035255 0.214458
 38   1.139685 -3.453749 -2.823813 0.000000 0.000000 0.000001
 39   -4.457742 -1.054854 -0.746180 0.000000 0.000000 0.000000
 40   1.118101 -3.449769 3.237290 0.000000 0.000001 0.000000
 41   -4.433840 -1.059130 0.959566 -0.000001 0.000000 0.000000
 42   -0.657468 1.697302 -2.688614 0.000000 0.000002 0.000000
 43   -0.664068 1.698578 2.869377 0.000000 0.000002 0.000000
time 3
  0   -0.967547 0.175787 -20.574476 0.000000 0.000000 -1.572114
  1   -1.093036 0.000002 -0.326057 -1.570757 -1.570379 -0.000123
  2   2.262337 0.113614 0.064702 -0.239658 -0.030464 -0.152982
  3   2.380047 0.353302 0.047440 -0.126053 0.000308 -0.008632
  4   2.033756 0.190472 -0.000128 -0.368843 -0.065280 0.240981
  5   2.451511 0.204909 -0.003447 -0.363237 -0.045295 0.369414
  6   7.247600 -0.397300 -0.109469 0.000001 0.000033 0.087015
  7   -2.022252 -0.104661 3.136172 1.219320 -1.038027 -4.397509
  8   1.168026 -0.537438 -0.063437 -0.707811 -0.148210 -0.312443
  9   6.790376 -0.619176 0.015206 0.005834 0.002385 -1.359397
 10   8.637599 0.544015 -0.090417 -2.239229 0.233425 -0.186118
 11   6.790465 -0.619039 0.017802 0.006461 -0.010770 -0.966833
 12   -2.022474 -0.104699 -2.873818 -1.473558 0.444382 -4.577261
 13   1.167898 -0.537463 0.063297 1.304659 0.016213 -0.710769
 14   7.002743 -0.617765 -0.183752 0.000229 0.000250 -1.299214
 15   8.209042 0.615527 -0.255885 2.164799 0.095798 -0.205857
 16   7.002735 -0.617911 -0.183641 0.013968 0.007199 -0.928002
 17   1.574674 0.609930 -0.000899 0.993609 -0.487601 -0.020447
 18   -0.602177 0.511412 -0.000006 0.000000 0.000000 0.000000
 19   3.673773 0.177020 1.119313 -0.000002 -0.000014 -0.174510
 20   3.673767 0.176993 -1.117566 0.000007 -0.000003 -0.174546
 21   3.942357 1.330634 1.627658 0.000002 -0.000011 -0.000026
 22   -0.246060 -0.011889 0.516521 -0.000011 0.000031 0.000025
 23   3.942374 1.330659 -1.631083 0.000019 0.000002 -0.000024
 24   -0.246150 -0.011872 -0.516511 -0.000005 -0.000006 0.000048
 25   4.941364 1.997338 1.629330 0.000018 0.173001 -0.000024
 26   4.941382 1.997366 -1.629410 -0.000001 -0.173006 -0.000024
 27   2.918368 1.615358 1.514501 -0.000019 -0.000022 -0.000050
 28   2.920798 1.614964 -1.501142 -0.000002 -0.000009 -0.000024
 29   8.824059 0.150544 0.091743 0.000006 -0.000231 -0.174534
 30   2.111085 -0.561179 1.784320 -0.000008 -0.000682 0.000024
 31   2.121290 -0.561289 -1.853599 0.000000 0.000000 -0.000002
 32   -0.810489 -0.093824 3.127092 3.071872 -0.114782 1.239365
 33   14.298673 -0.408176 0.475484 0.000248 0.000062 -1.896136
 34   15.835795 0.581398 0.242756 -0.214729 0.106889 -0.097869
 35   -0.815868 -0.091229 -3.114430 0.066464 3.132725 -1.010185
 36   14.294526 -0.410349 -0.463635 0.000033 -0.000000 -2.607695
 37   15.834409 0.579420 -0.284600 -0.006092 -0.035255 0.214458
 38   1.139685 -3.453749 -2.823813 0.000000 0.000000 0.000001
 39   -4.457742 -1.054854 -0.746180 0.000000 0.000000 0.000000
 40   1.118101 -3.449769 3.237290 0.000000 0.000001 0.000000
 41   -4.433840 -1.059130 0.959566 -0.000001 0.000000 0.000000
 42   -0.657468 1.697302 -2.688614 0.000000 0.000002 0.000000
 43   -0.664068 1.698578 2.869377 0.000000 0.000002 0.000000
time 4
  0   -0.967547 0.175787 -20.574476 0.000000 0.000000 -1.572114
  1   -1.093036 0.000002 -0.326057 -1.570757 -1.570379 -0.000123
  2   2.262337 0.113614 0.064702 -0.240384 -0.023741 -0.125786
  3   2.380047 0.353302 0.047440 -0.025922 0.001949 0.017977
  4   2.033756 0.190472 -0.000128 -0.269290 -0.054805 0.265629
  5   2.451511 0.204909 -0.003447 -0.263514 -0.036691 0.394575
  6   7.247600 -0.397300 -0.109469 0.000001 0.000033 0.087015
  7   -2.022252 -0.104661 3.136172 1.385538 -0.735898 -4.527861
  8   1.168026 -0.537438 -0.063437 -0.429060 0.150204 -0.210151
  9   6.790376 -0.619176 0.015206 0.005834 0.002318 -1.336908
 10   8.637599 0.544015 -0.090417 -2.684573 0.280938 -0.556304
 11   6.790465 -0.619039 0.017802 0.006373 -0.010798 -0.951088
 12   -2.022474 -0.104699 -2.873818 -1.422876 0.627436 -4.551412
 13   1.167898 -0.537463 0.063297 1.307752 -0.000416 -0.646118
 14   7.002743 -0.617765 -0.183752 0.000229 0.000250 -0.751708
 15   8.209042 0.615527 -0.255885 2.133450 -0.219703 0.269108
 16   7.002735 -0.617911 -0.183641 0.014439 0.004210 -0.544909
 17   1.574674 0.609930 -0.000899 0.709187 -0.336417 0.047450
 18   -0.602177 0.511412 -0.000006 0.000000 0.000000 0.000000
 19   3.673773 0.177020 1.119313 -0.000002 -0.000014 -0.174510
 20   3.673767 0.176993 -1.117566 0.000007 -0.000003 -0.174546
 21   3.942357 1.330634 1.627658 0.000002 -0.000011 -0.000026
 22   -0.246060 -0.011889 0.516521 -0.000011 0.000031 0.000025
 23   3.942374 1.330659 -1.631083 0.000019 0.000002 -0.000024
 24   -0.246150 -0.011872 -0.516511 -0.000005 -0.000006 0.000048
 25   4.941364 1.997338 1.629330 0.000018 0.238529 -0.000024
 26   4.941382 1.997366 -1.629410 -0.000001 -0.238543 -0.000024
 27   2.918368 1.615358 1.514501 -0.000019 -0.000022 -0.000050
 28   2.920798 1.614964 -1.501142 -0.000002 -0.000009 -0.000024
 29   8.824059 0.150544 0.091743 0.000006 -0.000231 -0.174534
 30   2.111085 -0.561179 1.784320 -0.000008 -0.000682 0.000024
 31   2.121290 -0.561289 -1.853599 0.000000 0.000000 -0.000002
 32   -0.810489 -0.093824 3.127092 3.071872 -0.114782 1.239365
 33   14.298673 -0.408176 0.475484 0.000248 0.000062 -1.896136
 34   15.835795 0.581398 0.242756 -0.214729 0.106889 -0.097869
 35   -0.815868 -0.091229 -3.114430 0.066464 3.132725 -1.010185
 36   14.294526 -0.410349 -0.463635 0.000033 -0.000000 -2.607695
 37   15.834409 0.579420 -0.284600 -0.006092 -0.035255 0.214458
 38   1.139685 -3.453749 -2.823813 0.000000 0.000000 0.000001
 39   -4.457742 -1.054854 -0.746180 0.000000 0.000000 0.000000
 40   1.118101 -3.449769 3.237290 0.000000 0.000001 0.000000
 41   -4.433840 -1.059130 0.959566 -0.000001 0.000000 0.000000
 42   -0.657468 1.697302 -2.688614 0.000000 0.000002 0.000000
 43   -0.664068 1.698578 2.869377 0.000000 0.000002 0.000000
time 5
  0   -0.967547 0.175787 -20.574476 0.000000 0.000000 -1.572114
  1   -1.093036 0.000002 -0.326057 -1.570757 -1.570379 -0.000123
  2   2.262337 0.113614 0.064702 -0.241250 -0.012212 -0.078946
  3   2.380047 0.353302 0.047440 0.128319 0.000236 0.064155
  4   2.033756 0.190472 -0.000128 -0.115645 -0.041670 0.310213
  5   2.451511 0.204909 -0.003447 -0.109565 -0.026260 0.439747
  6   7.247600 -0.397300 -0.109469 0.000001 0.000033 0.087015
  7   -2.022252 -0.104661 3.136172 1.460403 -0.495429 -4.571437
  8   1.168026 -0.537438 -0.063437 -0.083106 0.251034 -0.223942
  9   6.790376 -0.619176 0.015206 0.006611 0.000850 -0.889084
 10   8.637599 0.544015 -0.090417 -3.123400 0.106933 -0.876644
 11   6.790465 -0.619039 0.017802 0.004738 -0.011310 -0.637567
 12   -2.022474 -0.104699 -2.873818 -1.356481 0.807733 -4.507658
 13   1.167898 -0.537463 0.063297 1.335518 -0.025690 -0.627292
 14   7.002743 -0.617765 -0.183752 0.000229 0.000250 -0.211545
 15   8.209042 0.615527 -0.255885 1.916518 -0.502367 0.860979
 16   7.002735 -0.617911 -0.183641 0.014674 0.001616 -0.166783
 17   1.574674 0.609930 -0.000899 0.305585 -0.096127 0.005314
 18   -0.602177 0.511412 -0.000006 0.000000 0.000000 0.000000
 19   3.673773 0.177020 1.119313 -0.000002 -0.000014 -0.174510
 20   3.673767 0.176993 -1.117566 0.000007 -0.000003 -0.174546
 21   3.942357 1.330634 1.627658 0.000002 -0.000011 -0.000026
 22   -0.246060 -0.011889 0.516521 -0.000011 0.000031 0.000025
 23   3.942374 1.330659 -1.631083 0.000019 0.000002 -0.000024
 24   -0.246150 -0.011872 -0.516511 -0.000005 -0.000006 0.000048
 25   4.941364 1.997338 1.629330 0.000018 0.261736 -0.000024
 26   4.941382 1.997366 -1.629410 -0.000001 -0.261744 -0.000024
 27   2.918368 1.615358 1.514501 -0.000019 -0.000022 -0.000050
 28   2.920798 1.614964 -1.501142 -0.000002 -0.000009 -0.000024
 29   8.824059 0.150544 0.091743 0.000006 -0.000231 -0.174534
 30   2.111085 -0.561179 1.784320 -0.000008 -0.000682 0.000024
 31   2.121290 -0.561289 -1.853599 0.000000 0.000000 -0.000002
 32   -0.810489 -0.093824 3.127092 3.071872 -0.114782 1.239365
 33   14.298673 -0.408176 0.475484 0.000248 0.000062 -1.896136
 34   15.835795 0.581398 0.242756 -0.214729 0.106889 -0.097869
 35   -0.815868 -0.091229 -3.114430 0.066464 3.132725 -1.010185
 36   14.294526 -0.410349 -0.463635 0.000033 -0.000000 -2.607695
 37   15.834409 0.579420 -0.284600 -0.006092 -0.035255 0.214458
 38   1.139685 -3.453749 -2.823813 0.000000 0.000000 0.000001
 39   -4.457742 -1.054854 -0.746180 0.000000 0.000000 0.000000
 40   1.118101 -3.449769 3.237290 0.000000 0.000001 0.000000
 41   -4.433840 -1.059130 0.959566 -0.000001 0.000000 0.000000
 42   -0.657468 1.697302 -2.688614 0.000000 0.000002 0.000000
 43   -0.664068 1.698578 2.869377 0.000000 0.000002 0.000000
time 6
  0   -0.967547 0.175787 -20.574476 0.000000 0.000000 -1.572114
  1   -1.093036 0.000002 -0.326057 -1.570757 -1.570379 -0.000123
  2   2.262337 0.113614 0.064702 -0.241454 0.000552 -0.026179
  3   2.380047 0.353302 0.047440 0.294275 -0.009436 0.115577
  4   2.033756 0.190472 -0.000128 0.050357 -0.034528 0.362227
  5   2.451511 0.204909 -0.003447 0.056537 -0.022173 0.492003
  6   7.247600 -0.397300 -0.109469 0.000001 0.000033 0.087015
  7   -2.022252 -0.104661 3.136172 1.377390 -0.756912 -4.522602
  8   1.168026 -0.537438 -0.063437 0.162296 -0.215128 -0.263606
  9   6.790376 -0.619176 0.015206 0.006056 0.001918 -1.214726
 10   8.637599 0.544015 -0.090417 -3.258492 -0.102760 -0.891547
 11   6.790465 -0.619039 0.017802 0.005935 -0.010912 -0.865613
 12   -2.022474 -0.104699 -2.873818 -1.421918 0.630687 -4.550645
 13   1.167898 -0.537463 0.063297 1.395619 0.265392 -0.535642
 14   7.002743 -0.617765 -0.183752 0.000229 0.000250 -0.155359
 15   8.209042 0.615527 -0.255885 1.918028 -0.516137 0.855326
 16   7.002735 -0.617911 -0.183641 0.014674 0.001334 -0.127320
 17   1.574674 0.609930 -0.000899 -0.143024 0.092190 -0.189211
 18   -0.602177 0.511412 -0.000006 0.000000 0.000000 0.000000
 19   3.673773 0.177020 1.119313 -0.000002 -0.000014 -0.174510
 20   3.673767 0.176993 -1.117566 0.000007 -0.000003 -0.174546
 21   3.942357 1.330634 1.627658 0.000002 -0.000011 -0.000026
 22   -0.246060 -0.011889 0.516521 -0.000011 0.000031 0.000025
 23   3.942374 1.330659 -1.631083 0.000019 0.000002 -0.000024
 24   -0.246150 -0.011872 -0.516511 -0.000005 -0.000006 0.000048
 25   4.941364 1.997338 1.629330 0.000018 0.252677 -0.000024
 26   4.941382 1.997366 -1.629410 -0.000001 -0.252688 -0.000024
 27   2.918368 1.615358 1.514501 -0.000019 -0.000022 -0.000050
 28   2.920798 1.614964 -1.501142 -0.000002 -0.000009 -0.000024
 29   8.824059 0.150544 0.091743 0.000006 -0.000231 -0.174534
 30   2.111085 -0.561179 1.784320 -0.000008 -0.000682 0.000024
 31   2.121290 -0.561289 -1.853599 0.000000 0.000000 -0.000002
 32   -0.810489 -0.093824 3.127092 3.071872 -0.114782 1.239365
 33   14.298673 -0.408176 0.475484 0.000248 0.000062 -1.896136
 34   15.835795 0.581398 0.242756 -0.214729 0.106889 -0.097869
 35   -0.815868 -0.091229 -3.114430 0.066464 3.132725 -1.010185
 36   14.294526 -0.410349 -0.463635 0.000033 -0.000000 -2.607695
 37   15.834409 0.579420 -0.284600 -0.006092 -0.035255 0.214458
 38   1.139685 -3.453749 -2.823813 0.000000 0.000000 0.000001
 39   -4.457742 -1.054854 -0.746180 0.000000 0.000000 0.000000
 40   1.118101 -3.449769 3.237290 0.000000 0.000001 0.000000
 41   -4.433840 -1.059130 0.959566 -0.000001 0.000000 0.000000
 42   -0.657468 1.697302 -2.688614 0.000000 0.000002 0.000000
 43   -0.664068 1.698578 2.869377 0.000000 0.000002 0.000000
time 7
  0   -0.967547 0.175787 -20.574476 0.000000 0.000000 -1.572114
  1   -1.093036 0.000002 -0.326057 -1.570757 -1.570379 -0.000123
  2   2.262337 0.113614 0.064702 -0.241301 0.011650 0.018366
  3   2.380047 0.353302 0.047440 0.429284 -0.023602 0.158000
  4   2.033756 0.190472 -0.000128 0.186389 -0.034528 0.407355
  5   2.451511 0.204909 -0.003447 0.192325 -0.024915 0.536878
  6   7.247600 -0.397300 -0.109469 0.000001 0.000033 0.087015
  7   -2.022252 -0.104661 3.136172 1.219320 -1.038027 -4.397509
  8   1.168026 -0.537438 -0.063437 0.300437 -0.553391 -1.062775
  9   6.790376 -0.619176 0.015206 0.006944 -0.000886 -0.398998
 10   8.637599 0.544015 -0.090417 -3.281212 -0.282185 -0.815296
 11   6.790465 -0.619039 0.017802 0.003016 -0.011708 -0.294517
 12   -2.022474 -0.104699 -2.873818 -1.475953 0.435936 -4.578411
 13   1.167898 -0.537463 0.063297 1.235841 0.523370 -0.476197
 14   7.002743 -0.617765 -0.183752 0.000229 0.000250 -0.301641
 15   8.209042 0.615527 -0.255885 2.000142 -0.463478 0.676478
 16   7.002735 -0.617911 -0.183641 0.014627 0.002067 -0.229758
 17   1.574674 0.609930 -0.000899 -0.533424 0.140637 -0.426797
 18   -0.602177 0.511412 -0.000006 0.000000 0.000000 0.000000
 19   3.673773 0.177020 1.119313 -0.000002 -0.000014 -0.174510
 20   3.673767 0.176993 -1.117566 0.000007 -0.000003 -0.174546
 21   3.942357 1.330634 1.627658 0.000002 -0.000011 -0.000026
 22   -0.246060 -0.011889 0.516521 -0.000011 0.000031 0.000025
 23   3.942374 1.330659 -1.631083 0.000019 0.000002 -0.000024
 24   -0.246150 -0.011872 -0.516511 -0.000005 -0.000006 0.000048
 25   4.941364 1.997338 1.629330 0.000018 0.225620 -0.000024
 26   4.941382 1.997366 -1.629410 -0.000001 -0.225620 -0.000024
 27   2.918368 1.615358 1.514501 -0.000019 -0.000022 -0.000050
 28   2.920798 1.614964 -1.501142 -0.000002 -0.000009 -0.000024
 29   8.824059 0.150544 0.091743 0.000006 -0.000231 -0.174534
 30   2.111085 -0.561179 1.784320 -0.000008 -0.000682 0.000024
 31   2.121290 -0.561289 -1.853599 0.000000 0.000000 -0.000002
 32   -0.810489 -0.093824 3.127092 3.071872 -0.114782 1.239365
 33   14.298673 -0.408176 0.475484 0.000248 0.000062 -1.896136
 34   15.835795 0.581398 0.242756 -0.214729 0.106889 -0.097869
 35   -0.815868 -0.091229 -3.114430 0.066464 3.132725 -1.010185
 36   14.294526 -0.410349 -0.463635 0.000033 -0.000000 -2.607695
 37   15.834409 0.579420 -0.284600 -0.006092 -0.035255 0.214458
 38   1.139685 -3.453749 -2.823813 0.000000 0.000000 0.000001
 39   -4.457742 -1.054854 -0.746180 0.000000 0.000000 0.000000
 40   1.118101 -3.449769 3.237290 0.000000 0.000001 0.000000
 41   -4.433840 -1.059130 0.959566 -0.000001 0.000000 0.000000
 42   -0.657468 1.697302 -2.688614 0.000000 0.000002 0.000000
 43   -0.664068 1.698578 2.869377 0.000000 0.000002 0.000000
time 8
  0   -0.967547 0.175787 -20.574476 0.000000 0.000000 -1.572114
  1   -1.093036 0.000002 -0.326057 -1.570757 -1.570379 -0.000123
  2   2.262337 0.113614 0.064702 -0.240817 0.017306 0.041623
  3   2.380047 0.353302 0.047440 0.491538 -0.032147 0.179589
  4   2.033756 0.190472 -0.000128 0.249334 -0.036014 0.430698
  5   2.451511 0.204909 -0.003447 0.255161 -0.027552 0.559984
  6   7.247600 -0.397300 -0.109469 0.000001 0.000033 0.087015
  7   -2.022252 -0.104661 3.136172 1.310481 -0.902255 -4.473015
  8   1.168026 -0.537438 -0.063437 0.188810 -0.536284 -0.659110
  9   6.790376 -0.619176 0.015206 0.006722 0.000116 -0.676869
 10   8.637599 0.544015 -0.090417 -3.215428 -0.427612 -0.771094
 11   6.790465 -0.619039 0.017802 0.003950 -0.011452 -0.488939
 12   -2.022474 -0.104699 -2.873818 -1.450085 0.534618 -4.566443
 13   1.167898 -0.537463 0.063297 1.096799 0.355402 -0.595390
 14   7.002743 -0.617765 -0.183752 0.000229 0.000250 -0.570196
 15   8.209042 0.615527 -0.255885 2.026746 -0.422546 0.612552
 16   7.002735 -0.617911 -0.183641 0.014533 0.003308 -0.417800
 17   1.574674 0.609930 -0.000899 -0.714305 0.117751 -0.551947
 18   -0.602177 0.511412 -0.000006 0.000000 0.000000 0.000000
 19   3.673773 0.177020 1.119313 -0.000002 -0.000014 -0.174510
 20   3.673767 0.176993 -1.117566 0.000007 -0.000003 -0.174546
 21   3.942357 1.330634 1.627658 0.000002 -0.000011 -0.000026
 22   -0.246060 -0.011889 0.516521 -0.000011 0.000031 0.000025
 23   3.942374 1.330659 -1.631083 0.000019 0.000002 -0.000024
 24   -0.246150 -0.011872 -0.516511 -0.000005 -0.000006 0.000048
 25   4.941364 1.997338 1.629330 0.000018 0.182922 -0.000024
 26   4.941382 1.997366 -1.629410 -0.000001 -0.182935 -0.000024
 27   2.918368 1.615358 1.514501 -0.000019 -0.000022 -0.000050
 28   2.920798 1.614964 -1.501142 -0.000002 -0.000009 -0.000024
 29   8.824059 0.150544 0.091743 0.000006 -0.000231 -0.174534
 30   2.111085 -0.561179 1.784320 -0.000008 -0.000682 0.000024
 31   2.121290 -0.561289 -1.853599 0.000000 0.000000 -0.000002
 32   -0.810489 -0.093824 3.127092 3.071872 -0.114782 1.239365
 33   14.298673 -0.408176 0.475484 0.000248 0.000062 -1.896136
 34   15.835795 0.581398 0.242756 -0.214729 0.106889 -0.097869
 35   -0.815868 -0.091229 -3.114430 0.066464 3.132725 -1.010185
 36   14.294526 -0.410349 -0.463635 0.000033 -0.000000 -2.607695
 37   15.834409 0.579420 -0.284600 -0.006092 -0.035255 0.214458
 38   1.139685 -3.453749 -2.823813 0.000000 0.000000 0.000001
 39   -4.457742 -1.054854 -0.746180 0.000000 0.000000 0.000000
 40   1.118101 -3.449769 3.237290 0.000000 0.000001 0.000000
 41   -4.433840 -1.059130 0.959566 -0.000001 0.000000 0.000000
 42   -0.657468 1.697302 -2.688614 0.000000 0.000002 0.000000
 43   -0.664068 1.698578 2.869377 0.000000 0.000002 0.000000
time 9
  0   -0.967547 0.175787 -20.574476 0.000000 0.000000 -1.572114
  1   -1.093036 0.000002 -0.326057 -1.570757 -1.570379 -0.000123
  2   2.262337 0.113614 0.064702 -0.240817 0.017690 0.043430
  3   2.380047 0.353302 0.047440 0.482447 -0.030840 0.182140
  4   2.033756 0.190472 -0.000128 0.240260 -0.034504 0.432764
  5   2.451511 0.204909 -0.003447 0.246226 -0.025946 0.562213
  6   7.247600 -0.397300 -0.109469 0.000001 0.000033 0.087015
  7   -2.022252 -0.104661 3.136172 1.395698 -0.706928 -4.534904
  8   1.168026 -0.537438 -0.063437 0.091675 -0.324813 -0.185353
  9   6.790376 -0.619176 0.015206 0.006611 0.000649 -0.819201
 10   8.637599 0.544015 -0.090417 -3.087998 -0.500325 -0.727832
 11   6.790465 -0.619039 0.017802 0.004505 -0.011395 -0.588774
 12   -2.022474 -0.104699 -2.873818 -1.408026 0.673294 -4.542508
 13   1.167898 -0.537463 0.063297 1.066010 0.118275 -0.732017
 14   7.002743 -0.617765 -0.183752 0.000229 0.000250 -0.838091
 15   8.209042 0.615527 -0.255885 2.049611 -0.378512 0.551753
 16   7.002735 -0.617911 -0.183641 0.014345 0.004661 -0.605345
 17   1.574674 0.609930 -0.000899 -0.690664 0.108734 -0.550838
 18   -0.602177 0.511412 -0.000006 0.000000 0.000000 0.000000
 19   3.673773 0.177020 1.119313 -0.000002 -0.000014 -0.174510
 20   3.673767 0.176993 -1.117566 0.000007 -0.000003 -0.174546
 21   3.942357 1.330634 1.627658 0.000002 -0.000011 -0.000026
 22   -0.246060 -0.011889 0.516521 -0.000011 0.000031 0.000025
 23   3.942374 1.330659 -1.631083 0.000019 0.000002 -0.000024
 24   -0.246150 -0.011872 -0.516511 -0.000005 -0.000006 0.000048
 25   4.941364 1.997338 1.629330 0.000018 0.130868 -0.000024
 26   4.941382 1.997366 -1.629410 -0.000001 -0.130857 -0.000024
 27   2.918368 1.615358 1.514501 -0.000019 -0.000022 -0.000050
 28   2.920798 1.614964 -1.501142 -0.000002 -0.000009 -0.000024
 29   8.824059 0.150544 0.091743 0.000006 -0.000231 -0.174534
 30   2.111085 -0.561179 1.784320 -0.000008 -0.000682 0.000024
 31   2.121290 -0.561289 -1.853599 0.000000 0.000000 -0.000002
 32   -0.810489 -0.093824 3.127092 3.071872 -0.114782 1.239365
 33   14.298673 -0.408176 0.475484 0.000248 0.000062 -1.896136
 34   15.835795 0.581398 0.242756 -0.214729 0.106889 -0.097869
 35   -0.815868 -0.091229 -3.114430 0.066464 3.132725 -1.010185
 36   14.294526 -0.410349 -0.463635 0.000033 -0.000000 -2.607695
 37   15.834409 0.579420 -0.284600 -0.006092 -0.035255 0.214458
 38   1.139685 -3.453749 -2.823813 0.000000 0.000000 0.000001
 39   -4.457742 -1.054854 -0.746180 0.000000 0.000000 0.000000
 40   1.118101 -3.449769 3.237290 0.000000 0.000001 0.000000
 41   -4.433840 -1.059130 0.959566 -0.000001 0.000000 0.000000
 42   -0.657468 1.697302 -2.688614 0.000000 0.000002 0.000000
 43   -0.664068 1.698578 2.869377 0.000000 0.000002 0.000000
time 10
  0   -0.967547 0.175787 -20.574476 0.000000 0.000000 -1.572114
  1   -1.093036 0.000002 -0.326057 -1.570757 -1.570379 -0.000123
  2   2.262337 0.113614 0.064702 -0.240957 0.015760 0.035280
  3   2.380047 0.353302 0.047440 0.438044 -0.024656 0.175957
  4   2.033756 0.190472 -0.000128 0.195260 -0.031136 0.425007
  5   2.451511 0.204909 -0.003447 0.201414 -0.021782 0.554510
  6   7.247600 -0.397300 -0.109469 0.000001 0.000033 0.087015
  7   -2.022252 -0.104661 3.136172 1.392248 -0.716901 -4.532463
  8   1.168026 -0.537438 -0.063437 -0.017801 -0.297593 -0.137844
  9   6.790376 -0.619176 0.015206 0.006500 0.001050 -0.935798
 10   8.637599 0.544015 -0.090417 -2.936615 -0.428738 -0.654113
 11   6.790465 -0.619039 0.017802 0.004943 -0.011253 -0.670384
 12   -2.022474 -0.104699 -2.873818 -1.394517 0.712418 -4.533700
 13   1.167898 -0.537463 0.063297 1.109803 0.046623 -0.773362
 14   7.002743 -0.617765 -0.183752 0.000229 0.000250 -0.980578
 15   8.209042 0.615527 -0.255885 2.074273 -0.340077 0.480430
 16   7.002735 -0.617911 -0.183641 0.014250 0.005451 -0.705023
 17   1.574674 0.609930 -0.000899 -0.566245 0.105752 -0.491590
 18   -0.602177 0.511412 -0.000006 0.000000 0.000000 0.000000
 19   3.673773 0.177020 1.119313 -0.000002 -0.000014 -0.174510
 20   3.673767 0.176993 -1.117566 0.000007 -0.000003 -0.174546
 21   3.942357 1.330634 1.627658 0.000002 -0.000011 -0.000026
 22   -0.246060 -0.011889 0.516521 -0.000011 0.000031 0.000025
 23   3.942374 1.330659 -1.631083 0.000019 0.000002 -0.000024
 24   -0.246150 -0.011872 -0.516511 -0.000005 -0.000006 0.000048
 25   4.941364 1.997338 1.629330 0.000018 0.078787 -0.000024
 26   4.941382 1.997366 -1.629410 -0.000001 -0.078804 -0.000024
 27   2.918368 1.615358 1.514501 -0.000019 -0.000022 -0.000050
 28   2.920798 1.614964 -1.501142 -0.000002 -0.000009 -0.000024
 29   8.824059 0.150544 0.091743 0.000006 -0.000231 -0.174534
 30   2.111085 -0.561179 1.784320 -0.000008 -0.000682 0.000024
 31   2.121290 -0.561289 -1.853599 0.000000 0.000000 -0.000002
 32   -0.810489 -0.093824 3.127092 3.071872 -0.114782 1.239365
 33   14.298673 -0.408176 0.475484 0.000248 0.000062 -1.896136
 34   15.835795 0.581398 0.242756 -0.214729 0.106889 -0.097869
 35   -0.815868 -0.091229 -3.114430 0.066464 3.132725 -1.010185
 36   14.294526 -0.410349 -0.463635 0.000033 -0.000000 -2.607695
 37   15.834409 0.579420 -0.284600 -0.006092 -0.035255 0.214458
 38   1.139685 -3.453749 -2.823813 0.000000 0.000000 0.000001
 39   -4.457742 -1.054854 -0.746180 0.000000 0.000000 0.000000
 40   1.118101 -3.449769 3.237290 0.000000 0.000001 0.000000
 41   -4.433840 -1.059130 0.959566 -0.000001 0.000000 0.000000
 42   -0.657468 1.697302 -2.688614 0.000000 0.000002 0.000000
 43   -0.664068 1.698578 2.869377 0.000000 0.000002 0.000000
time 11
  0   -0.967547 0.175787 -20.574476 0.000000 0.000000 -1.572114
  1   -1.093036 0.000002 -0.326057 -1.570757 -1.570379 -0.000123
  2   2.262337 0.113614 0.064702 -0.241250 0.011961 0.019847
  3   2.380047 0.353302 0.047440 0.367780 -0.015692 0.162775
  4   2.033756 0.190472 -0.000128 0.124090 -0.027313 0.409747
  5   2.451511 0.204909 -0.003447 0.130499 -0.016638 0.539404
  6   7.247600 -0.397300 -0.109469 0.000001 0.000033 0.087015
  7   -2.022252 -0.104661 3.136172 1.360039 -0.799345 -4.510487
  8   1.168026 -0.537438 -0.063437 -0.129807 -0.303983 -0.198764
  9   6.790376 -0.619176 0.015206 0.006278 0.001384 -1.032925
 10   8.637599 0.544015 -0.090417 -2.778802 -0.314635 -0.540967
 11   6.790465 -0.619039 0.017802 0.005264 -0.011168 -0.738209
 12   -2.022474 -0.104699 -2.873818 -1.384553 0.739410 -4.526998
 13   1.167898 -0.537463 0.063297 1.141647 -0.033674 -0.832444
 14   7.002743 -0.617765 -0.183752 0.000229 0.000250 -1.104006
 15   8.209042 0.615527 -0.255885 2.096995 -0.300961 0.409107
 16   7.002735 -0.617911 -0.183641 0.014156 0.006071 -0.791289
 17   1.574674 0.609930 -0.000899 -0.368100 0.088356 -0.395861
 18   -0.602177 0.511412 -0.000006 0.000000 0.000000 0.000000
 19   3.673773 0.177020 1.119313 -0.000002 -0.000014 -0.174510
 20   3.673767 0.176993 -1.117566 0.000007 -0.000003 -0.174546
 21   3.942357 1.330634 1.627658 0.000002 -0.000011 -0.000026
 22   -0.246060 -0.011889 0.516521 -0.000011 0.000031 0.000025
 23   3.942374 1.330659 -1.631083 0.000019 0.000002 -0.000024
 24   -0.246150 -0.011872 -0.516511 -0.000005 -0.000006 0.000048
 25   4.941364 1.997338 1.629330 0.000018 0.036102 -0.000024
 26   4.941382 1.997366 -1.629410 -0.000001 -0.036094 -0.000024
 27   2.918368 1.615358 1.514501 -0.000019 -0.000022 -0.000050
 28   2.920798 1.614964 -1.501142 -0.000002 -0.000009 -0.000024
 29   8.824059 0.150544 0.091743 0.000006 -0.000231 -0.174534
 30   2.111085 -0.561179 1.784320 -0.000008 -0.000682 0.000024
 31   2.121290 -0.561289 -1.853599 0.000000 0.000000 -0.000002
 32   -0.810489 -0.093824 3.127092 3.071872 -0.114782 1.239365
 33   14.298673 -0.408176 0.475484 0.000248 0.000062 -1.896136
 34   15.835795 0.581398 0.242756 -0.214729 0.106889 -0.097869
 35   -0.815868 -0.091229 -3.114430 0.066464 3.132725 -1.010185
 36   14.294526 -0.410349 -0.463635 0.000033 -0.000000 -2.607695
 37   15.834409 0.579420 -0.284600 -0.006092 -0.035255 0.214458
 38   1.139685 -3.453749 -2.823813 0.000000 0.000000 0.000001
 39   -4.457742 -1.054854 -0.746180 0.000000 0.000000 0.000000
 40   1.118101 -3.449769 3.237290 0.000000 0.000001 0.000000
 41   -4.433840 -1.059130 0.959566 -0.000001 0.000000 0.000000
 42   -0.657468 1.697302 -2.688614 0.000000 0.000002 0.000000
 43   -0.664068 1.698578 2.869377 0.000000 0.000002 0.000000
time 12
  0   -0.967547 0.175787 -20.574476 0.000000 0.000000 -1.572114
  1   -1.093036 0.000002 -0.326057 -1.570757 -1.570379 -0.000123
  2   2.262337 0.113614 0.064702 -0.241441 0.007096 -0.000049
  3   2.380047 0.353302 0.047440 0.281239 -0.005805 0.144655
  4   2.033756 0.190472 -0.000128 0.036580 -0.024425 0.389666
  5   2.451511 0.204909 -0.003447 0.043203 -0.011990 0.519443
  6   7.247600 -0.397300 -0.109469 0.000001 0.000033 0.087015
  7   -2.022252 -0.104661 3.136172 1.297636 -0.925518 -4.462685
  8   1.168026 -0.537438 -0.063437 -0.229284 -0.258851 -0.215465
  9   6.790376 -0.619176 0.015206 0.006056 0.001918 -1.219103
 10   8.637599 0.544015 -0.090417 -2.653398 -0.235305 -0.385716
 11   6.790465 -0.619039 0.017802 0.005935 -0.010912 -0.868612
 12   -2.022474 -0.104699 -2.873818 -1.377080 0.758479 -4.521923
 13   1.167898 -0.537463 0.063297 1.160415 -0.116310 -0.893705
 14   7.002743 -0.617765 -0.183752 0.000229 0.000250 -1.214728
 15   8.209042 0.615527 -0.255885 2.116768 -0.260861 0.338506
 16   7.002735 -0.617911 -0.183641 0.014015 0.006635 -0.869056
 17   1.574674 0.609930 -0.000899 -0.126735 0.039106 -0.291667
 18   -0.602177 0.511412 -0.000006 0.000000 0.000000 0.000000
 19   3.673773 0.177020 1.119313 -0.000002 -0.000014 -0.174510
 20   3.673767 0.176993 -1.117566 0.000007 -0.000003 -0.174546
 21   3.942357 1.330634 1.627658 0.000002 -0.000011 -0.000026
 22   -0.246060 -0.011889 0.516521 -0.000011 0.000031 0.000025
 23   3.942374 1.330659 -1.631083 0.000019 0.000002 -0.000024
 24   -0.246150 -0.011872 -0.516511 -0.000005 -0.000006 0.000048
 25   4.941364 1.997338 1.629330 0.000018 0.009018 -0.000024
 26   4.941382 1.997366 -1.629410 -0.000001 -0.009026 -0.000024
 27   2.918368 1.615358 1.514501 -0.000019 -0.000022 -0.000050
 28   2.920798 1.614964 -1.501142 -0.000002 -0.000009 -0.000024
 29   8.824059 0.150544 0.091743 0.000006 -0.000231 -0.174534
 30   2.111085 -0.561179 1.784320 -0.000008 -0.000682 0.000024
 31   2.121290 -0.561289 -1.853599 0.000000 0.000000 -0.000002
 32   -0.810489 -0.093824 3.127092 3.071872 -0.114782 1.239365
 33   14.298673 -0.408176 0.475484 0.000248 0.000062 -1.896136
 34   15.835795 0.581398 0.242756 -0.214729 0.106889 -0.097869
 35   -0.815868 -0.091229 -3.114430 0.066464 3.132725 -1.010185
 36   14.294526 -0.410349 -0.463635 0.000033 -0.000000 -2.607695
 37   15.834409 0.579420 -0.284600 -0.006092 -0.035255 0.214458
 38   1.139685 -3.453749 -2.823813 0.000000 0.000000 0.000001
 39   -4.457742 -1.054854 -0.746180 0.000000 0.000000 0.000000
 40   1.118101 -3.449769 3.237290 0.000000 0.000001 0.000000
 41   -4.433840 -1.059130 0.959566 -0.000001 0.000000 0.000000
 42   -0.657468 1.697302 -2.688614 0.000000 0.000002 0.000000
 43   -0.664068 1.698578 2.869377 0.000000 0.000002 0.000000
time 13
  0   -0.967547 0.175787 -20.574476 0.000000 0.000000 -1.572114
  1   -1.093036 0.000002 -0.326057 -1.570757 -1.570379 -0.000123
  2   2.262337 0.113614 0.064702 -0.241441 0.001774 -0.021625
  3   2.380047 0.353302 0.047440 0.187933 0.002645 0.124025
  4   2.033756 0.190472 -0.000128 -0.057256 -0.023406 0.367483
  5   2.451511 0.204909 -0.003447 -0.050529 -0.009301 0.497278
  6   7.247600 -0.397300 -0.109469 0.000001 0.000033 0.087015
  7   -2.022252 -0.104661 3.136172 1.219320 -1.038027 -4.397509
  8   1.168026 -0.537438 -0.063437 -0.313194 -0.210499 -0.245071
  9   6.790376 -0.619176 0.015206 0.005834 0.002318 -1.350643
 10   8.637599 0.544015 -0.090417 -2.533630 -0.173221 -0.234010
 11   6.790465 -0.619039 0.017802 0.006461 -0.010798 -0.960662
 12   -2.022474 -0.104699 -2.873818 -1.371044 0.773659 -4.517998
 13   1.167898 -0.537463 0.063297 1.166109 -0.192437 -0.945947
 14   7.002743 -0.617765 -0.183752 0.000229 0.000250 -1.318850
 15   8.209042 0.615527 -0.255885 2.133809 -0.219930 0.268566
 16   7.002735 -0.617911 -0.183641 0.013921 0.007255 -0.941855
 17   1.574674 0.609930 -0.000899 0.126857 -0.043302 -0.207951
 18   -0.602177 0.511412 -0.000006 0.000000 0.000000 0.000000
 19   3.673773 0.177020 1.119313 -0.000002 -0.000014 -0.174510
 20   3.673767 0.176993 -1.117566 0.000007 -0.000003 -0.174546
 21   3.942357 1.330634 1.627658 0.000002 -0.000011 -0.000026
 22   -0.246060 -0.011889 0.516521 -0.000011 0.000031 0.000025
 23   3.942374 1.330659 -1.631083 0.000019 0.000002 -0.000024
 24   -0.246150 -0.011872 -0.516511 -0.000005 -0.000006 0.000048
 25   4.941364 1.997338 1.629330 0.000018 -0.000001 -0.000024
 26   4.941382 1.997366 -1.629410 -0.000001 0.000005 -0.000024
 27   2.918368 1.615358 1.514501 -0.000019 -0.000022 -0.000050
 28   2.920798 1.614964 -1.501142 -0.000002 -0.000009 -0.000024
 29   8.824059 0.150544 0.091743 0.000006 -0.000231 -0.174534
 30   2.111085 -0.561179 1.784320 -0.000008 -0.000682 0.000024
 31   2.121290 -0.561289 -1.853599 0.000000 0.000000 -0.000002
 32   -0.810489 -0.093824 3.127092 3.071872 -0.114782 1.239365
 33   14.298673 -0.408176 0.475484 0.000248 0.000062 -1.896136
 34   15.835795 0.581398 0.242756 -0.214729 0.106889 -0.097869
 35   -0.815868 -0.091229 -3.114430 0.066464 3.132725 -1.010185
 36   14.294526 -0.410349 -0.463635 0.000033 -0.000000 -2.607695
 37   15.834409 0.579420 -0.284600 -0.006092 -0.035255 0.214458
 38   1.139685 -3.453749 -2.823813 0.000000 0.000000 0.000001
 39   -4.457742 -1.054854 -0.746180 0.000000 0.000000 0.000000
 40   1.118101 -3.449769 3.237290 0.000000 0.000001 0.000000
 41   -4.433840 -1.059130 0.959566 -0.000001 0.000000 0.000000
 42   -0.657468 1.697302 -2.688614 0.000000 0.000002 0.000000
 43   -0.664068 1.698578 2.869377 0.000000 0.000002 0.000000
time 14
  0   -0.967547 0.175787 -20.574476 0.000000 0.000000 -1.572114
  1   -1.093036 0.000002 -0.326057 -1.570757 -1.570379 -0.000123
  2   2.262337 0.113614 0.064702 -0.241441 -0.003331 -0.042533
  3   2.380047 0.353302 0.047440 0.097867 0.009368 0.103558
  4   2.033756 0.190472 -0.000128 -0.147901 -0.024293 0.346351
  5   2.451511 0.204909 -0.003447 -0.141060 -0.008465 0.475955
  6   7.247600 -0.397300 -0.109469 0.000001 0.000033 0.087015
  7   -2.022252 -0.104661 3.136172 1.206667 -1.052527 -4.386521
  8   1.168026 -0.537438 -0.063437 -0.385587 -0.119229 -0.153090
  9   6.790376 -0.619176 0.015206 0.005446 0.002718 -1.518256
 10   8.637599 0.544015 -0.090417 -2.417384 -0.127045 -0.143652
 11   6.790465 -0.619039 0.017802 0.007074 -0.010571 -1.078088
 12   -2.022474 -0.104699 -2.873818 -1.364912 0.788606 -4.513594
 13   1.167898 -0.537463 0.063297 1.161399 -0.255546 -0.981057
 14   7.002743 -0.617765 -0.183752 0.000229 0.000250 -1.423797
 15   8.209042 0.615527 -0.255885 2.147399 -0.177939 0.200130
 16   7.002735 -0.617911 -0.183641 0.013780 0.007819 -1.015262
 17   1.574674 0.609930 -0.000899 0.368222 -0.143745 -0.163487
 18   -0.602177 0.511412 -0.000006 0.000000 0.000000 0.000000
 19   3.673773 0.177020 1.119313 -0.000002 -0.000014 -0.174510
 20   3.673767 0.176993 -1.117566 0.000007 -0.000003 -0.174546
 21   3.942357 1.330634 1.627658 0.000002 -0.000011 -0.000026
 22   -0.246060 -0.011889 0.516521 -0.000011 0.000031 0.000025
 23   3.942374 1.330659 -1.631083 0.000019 0.000002 -0.000024
 24   -0.246150 -0.011872 -0.516511 -0.000005 -0.000006 0.000048
 25   4.941364 1.997338 1.629330 0.000018 -0.000001 -0.000024
 26   4.941382 1.997366 -1.629410 -0.000001 0.000005 -0.000024
 27   2.918368 1.615358 1.514501 -0.000019 -0.000022 -0.000050
 28   2.920798 1.614964 -1.501142 -0.000002 -0.000009 -0.000024
 29   8.824059 0.150544 0.091743 0.000006 -0.000231 -0.174534
 30   2.111085 -0.561179 1.784320 -0.000008 -0.000682 0.000024
 31   2.121290 -0.561289 -1.853599 0.000000 0.000000 -0.000002
 32   -0.810489 -0.093824 3.127092 3.071872 -0.114782 1.239365
 33   14.298673 -0.408176 0.475484 0.000248 0.000062 -1.896136
 34   15.835795 0.581398 0.242756 -0.214729 0.106889 -0.097869
 35   -0.815868 -0.091229 -3.114430 0.066464 3.132725 -1.010185
 36   14.294526 -0.410349 -0.463635 0.000033 -0.000000 -2.607695
 37   15.834409 0.579420 -0.284600 -0.006092 -0.035255 0.214458
 38   1.139685 -3.453749 -2.823813 0.000000 0.000000 0.000001
 39   -4.457742 -1.054854 -0.746180 0.000000 0.000000 0.000000
 40   1.118101 -3.449769 3.237290 0.000000 0.000001 0.000000
 41   -4.433840 -1.059130 0.959566 -0.000001 0.000000 0.000000
 42   -0.657468 1.697302 -2.688614 0.000000 0.000002 0.000000
 43   -0.664068 1.698578 2.869377 0.000000 0.000002 0.000000
time 15
  0   -0.967547 0.175787 -20.574476 0.000000 0.000000 -1.572114
  1   -1.093036 0.000002 -0.326057 -1.570757 -1.570379 -0.000123
  2   2.262337 0.113614 0.064702 -0.241441 -0.007502 -0.059755
  3   2.380047 0.353302 0.047440 0.020461 0.013527 0.086295
  4   2.033756 0.190472 -0.000128 -0.225360 -0.026078 0.329025
  5   2.451511 0.204909 -0.003447 -0.218548 -0.008922 0.458421
  6   7.247600 -0.397300 -0.109469 0.000001 0.000033 0.087015
  7   -2.022252 -0.104661 3.136172 1.219320 -1.038027 -4.397509
  8   1.168026 -0.537438 -0.063437 -0.445830 -0.061267 -0.126331
  9   6.790376 -0.619176 0.015206 0.005335 0.002985 -1.616741
 10   8.637599 0.544015 -0.090417 -2.304133 -0.089034 -0.069282
 11   6.790465 -0.619039 0.017802 0.007483 -0.010457 -1.146894
 12   -2.022474 -0.104699 -2.873818 -1.356481 0.807733 -4.507658
 13   1.167898 -0.537463 0.063297 1.152402 -0.300144 -0.994072
 14   7.002743 -0.617765 -0.183752 0.000286 0.000250 -1.534354
 15   8.209042 0.615527 -0.255885 2.158040 -0.134813 0.133438
 16   7.002735 -0.617911 -0.183641 0.013638 0.008439 -1.092697
 17   1.574674 0.609930 -0.000899 0.576075 -0.236732 -0.159717
 18   -0.602177 0.511412 -0.000006 0.000000 0.000000 0.000000
 19   3.673773 0.177020 1.119313 -0.000002 -0.000014 -0.174510
 20   3.673767 0.176993 -1.117566 0.000007 -0.000003 -0.174546
 21   3.942357 1.330634 1.627658 0.000002 -0.000011 -0.000026
 22   -0.246060 -0.011889 0.516521 -0.000011 0.000031 0.000025
 23   3.942374 1.330659 -1.631083 0.000019 0.000002 -0.000024
 24   -0.246150 -0.011872 -0.516511 -0.000005 -0.000006 0.000048
 25   4.941364 1.997338 1.629330 0.000018 -0.000001 -0.000024
 26   4.941382 1.997366 -1.629410 -0.000001 0.000005 -0.000024
 27   2.918368 1.615358 1.514501 -0.000019 -0.000022 -0.000050
 28   2.920798 1.614964 -1.501142 -0.000002 -0.000009 -0.000024
 29   8.824059 0.150544 0.091743 0.000006 -0.000231 -0.174534
 30   2.111085 -0.561179 1.784320 -0.000008 -0.000682 0.000024
 31   2.121290 -0.561289 -1.853599 0.000000 0.000000 -0.000002
 32   -0.810489 -0.093824 3.127092 3.071872 -0.114782 1.239365
 33   14.298673 -0.408176 0.475484 0.000248 0.000062 -1.896136
 34   15.835795 0.581398 0.242756 -0.214729 0.106889 -0.097869
 35   -0.815868 -0.091229 -3.114430 0.066464 3.132725 -1.010185
 36   14.294526 -0.410349 -0.463635 0.000033 -0.000000 -2.607695
 37   15.834409 0.579420 -0.284600 -0.006092 -0.035255 0.214458
 38   1.139685 -3.453749 -2.823813 0.000000 0.000000 0.000001
 39   -4.457742 -1.054854 -0.746180 0.000000 0.000000 0.000000
 40   1.118101 -3.449769 3.237290 0.000000 0.000001 0.000000
 41   -4.433840 -1.059130 0.959566 -0.000001 0.000000 0.000000
 42   -0.657468 1.697302 -2.688614 0.000000 0.000002 0.000000
 43   -0.664068 1.698578 2.869377 0.000000 0.000002 0.000000
end
