version 1
nodes
  0 "Bip01" -1
  1 "Bip01 Pelvis" 0
  2 "Bip01 Spine" 1
  3 "Bip01 Spine1" 2
  4 "Bip01 Spine2" 3
  5 "Bip01 Spine3" 4
  6 "Bip01 Neck" 5
  7 "Bip01 L Arm" 6
  8 "Bip01 L Arm1" 7
  9 "Bip01 L Arm2" 8
 10 "Bip01 L Hand" 9
 11 "Bip06 L elbow2-smooth" 8
 12 "Bip01 R Arm" 6
 13 "Bip01 R Arm1" 12
 14 "Bip01 R Arm2" 13
 15 "Bip01 R Hand" 14
 16 "Bip06 R elbow2-smooth" 13
 17 "Bip01 Head" 6
 18 "Bip06 Head_helper" 17
 19 "Bip06 Head_eyes_l" 18
 20 "Bip06 Head_eyes_r" 18
 21 "Bip06 Head_blink_l" 18
 22 "Bip06 Head_blink_smooth_l1" 21
 23 "Bip06 Head_blink_r" 18
 24 "Bip06 Head_blink_smooth_r1" 23
 25 "Bip06 Head_L_eyebrow" 18
 26 "Bip06 Head_R_eyebrow" 18
 27 "Bip06 Head_blink_l_lid" 18
 28 "Bip06 Head_blink_r_lid" 18
 29 "Bip06 bunny" 18
 30 "Bip06 bunnyL" 29
 31 "Bip06 bunnyR" 29
 32 "Bip01 L Leg" 1
 33 "Bip01 L Leg1" 32
 34 "Bip01 L Foot" 33
 35 "Bip01 R Leg" 1
 36 "Bip01 R Leg1" 35
 37 "Bip01 R Foot" 36
 38 "Bip03 HairR1" 17
 39 "Bip03 HairR2" 38
 40 "Bip03 HairL1" 17
 41 "Bip03 HairL2" 40
 42 "Bip03 swingR" 17
 43 "Bip03 swingL" 17
end
skeleton
time 0
  0   -0.967547 0.175787 -20.574476 0.000000 0.000000 -1.572114
  1   -1.093036 0.000002 -0.326057 -1.570809 -1.570703 0.000022
  2   2.262337 0.113614 0.064702 -0.000014 0.000037 0.133459
  3   2.380047 0.353302 0.047440 0.060589 -0.006907 0.247111
  4   2.033756 0.190472 -0.000128 -0.105852 0.045613 0.407826
  5   2.451511 0.204909 -0.003447 -0.074407 -0.044525 0.403763
  6   7.247600 -0.397300 -0.109469 0.023862 -0.048577 0.524556
  7   -2.022252 -0.104661 3.136172 1.238875 -1.024594 -4.799459
  8   1.168026 -0.537438 -0.063437 -0.844750 0.734756 -0.676380
  9   6.790376 -0.619176 0.015206 0.056210 -0.172274 -1.099185
 10   8.637599 0.544015 -0.090417 -3.988461 0.202805 -0.503999
 11   6.790465 -0.619039 0.017802 0.021059 -0.139764 -0.781754
 12   -2.022474 -0.104699 -2.873818 -1.163239 1.764361 -4.903069
 13   1.167898 -0.537463 0.063297 0.342121 -0.886733 -1.115868
 14   7.002743 -0.617765 -0.183752 0.376838 -0.308318 -1.742515
 15   8.209042 0.615527 -0.255885 2.170120 0.452154 0.549949
 16   7.002735 -0.617911 -0.183641 0.223827 -0.281678 -1.217212
 17   1.574674 0.609930 -0.000899 0.254770 0.315535 -0.043807
 18   -0.602177 0.511412 -0.000006 0.000000 0.000000 0.000000
 19   3.673773 0.177020 1.119313 -0.000002 -0.000014 -0.174510
 20   3.673767 0.176993 -1.117566 0.000007 -0.000003 -0.174546
 21   3.942357 1.330634 1.627658 0.000002 -0.000011 -0.000026
 22   -0.246060 -0.011889 0.516521 -0.000011 0.000031 0.000025
 23   3.942374 1.330659 -1.631083 0.000019 0.000002 -0.000024
 24   -0.246150 -0.011872 -0.516511 -0.000005 -0.000006 0.000048
 25   4.941364 1.997338 1.629330 0.000018 -0.000001 -0.000024
 26   4.941382 1.997366 -1.629410 -0.000001 0.000005 -0.000024
 27   2.918368 1.615358 1.514501 -0.000019 -0.000022 -0.000050
 28   2.920798 1.614964 -1.501142 -0.000002 -0.000009 -0.000024
 29   8.824059 0.150544 0.091743 0.000006 -0.000231 -0.174534
 30   2.111085 -0.561179 1.784320 -0.000008 -0.000682 0.000024
 31   2.121290 -0.561289 -1.853599 0.000000 0.000000 -0.000002
 32   -0.810489 -0.093824 3.127092 3.071872 -0.114782 1.239365
 33   14.298673 -0.408176 0.475484 0.000248 0.000062 -1.896136
 34   15.835795 0.581398 0.242756 -0.214729 0.106889 -0.097869
 35   -0.815868 -0.091229 -3.114430 0.066464 3.132725 -1.010185
 36   14.294526 -0.410349 -0.463635 0.000033 -0.000000 -2.607695
 37   15.834409 0.579420 -0.284600 -0.006092 -0.035255 0.214458
 38   1.139685 -3.453749 -2.823813 0.000000 0.000000 0.000001
 39   -4.457742 -1.054854 -0.746180 0.000000 0.000000 0.000000
 40   1.118101 -3.449769 3.237290 0.000000 0.000001 0.000000
 41   -4.433840 -1.059130 0.959566 -0.000001 0.000000 0.000000
 42   -0.657468 1.697302 -2.688614 0.000000 0.000002 0.000000
 43   -0.664068 1.698578 2.869377 0.000000 0.000002 0.000000
time 1
  0   -0.967547 0.175787 -20.574476 0.000000 0.000000 -1.572114
  1   -1.093036 0.000002 -0.326057 -1.570809 -1.570703 0.000022
  2   2.262337 0.113614 0.064702 -0.000014 0.000037 0.133459
  3   2.380047 0.353302 0.047440 0.060139 -0.006859 0.246601
  4   2.033756 0.190472 -0.000128 -0.106313 0.045649 0.406630
  5   2.451511 0.204909 -0.003447 -0.074972 -0.044211 0.402921
  6   7.247600 -0.397300 -0.109469 0.023707 -0.048253 0.524366
  7   -2.022252 -0.104661 3.136172 1.238875 -1.024594 -4.799459
  8   1.168026 -0.537438 -0.063437 -0.844370 0.734504 -0.672711
  9   6.790376 -0.619176 0.015206 0.056210 -0.173009 -1.110279
 10   8.637599 0.544015 -0.090417 -3.988461 0.202805 -0.503999
 11   6.790465 -0.619039 0.017802 0.020884 -0.140361 -0.789425
 12   -2.022474 -0.104699 -2.873818 -1.163239 1.764361 -4.903069
 13   1.167898 -0.537463 0.063297 0.340293 -0.886326 -1.113870
 14   7.002743 -0.617765 -0.183752 0.376667 -0.308545 -1.748538
 15   8.209042 0.615527 -0.255885 2.169976 0.452154 0.549949
 16   7.002735 -0.617911 -0.183641 0.223450 -0.282073 -1.221241
 17   1.574674 0.609930 -0.000899 0.254770 0.315535 -0.043807
 18   -0.602177 0.511412 -0.000006 0.000000 0.000000 0.000000
 19   3.673773 0.177020 1.119313 -0.000002 -0.000014 -0.174510
 20   3.673767 0.176993 -1.117566 0.000007 -0.000003 -0.174546
 21   3.942357 1.330634 1.627658 0.000002 -0.000011 -0.000026
 22   -0.246060 -0.011889 0.516521 -0.000011 0.000031 0.000025
 23   3.942374 1.330659 -1.631083 0.000019 0.000002 -0.000024
 24   -0.246150 -0.011872 -0.516511 -0.000005 -0.000006 0.000048
 25   4.941364 1.997338 1.629330 0.000018 -0.000001 -0.000024
 26   4.941382 1.997366 -1.629410 -0.000001 0.000005 -0.000024
 27   2.918368 1.615358 1.514501 -0.000019 -0.000022 -0.000050
 28   2.920798 1.614964 -1.501142 -0.000002 -0.000009 -0.000024
 29   8.824059 0.150544 0.091743 0.000006 -0.000231 -0.174534
 30   2.111085 -0.561179 1.784320 -0.000008 -0.000682 0.000024
 31   2.121290 -0.561289 -1.853599 0.000000 0.000000 -0.000002
 32   -0.810489 -0.093824 3.127092 3.071872 -0.114782 1.239365
 33   14.298673 -0.408176 0.475484 0.000248 0.000062 -1.896136
 34   15.835795 0.581398 0.242756 -0.214729 0.106889 -0.097869
 35   -0.815868 -0.091229 -3.114430 0.066464 3.132725 -1.010185
 36   14.294526 -0.410349 -0.463635 0.000033 -0.000000 -2.607695
 37   15.834409 0.579420 -0.284600 -0.006092 -0.035255 0.214458
 38   1.139685 -3.453749 -2.823813 0.000000 0.000000 0.000001
 39   -4.457742 -1.054854 -0.746180 0.000000 0.000000 0.000000
 40   1.118101 -3.449769 3.237290 0.000000 0.000001 0.000000
 41   -4.433840 -1.059130 0.959566 -0.000001 0.000000 0.000000
 42   -0.657468 1.697302 -2.688614 0.000000 0.000002 0.000000
 43   -0.664068 1.698578 2.869377 0.000000 0.000002 0.000000
time 2
  0   -0.967547 0.175787 -20.574476 0.000000 0.000000 -1.572114
  1   -1.093036 0.000002 -0.326057 -1.570809 -1.570703 0.000022
  2   2.262337 0.113614 0.064702 -0.000014 0.000037 0.133459
  3   2.380047 0.353302 0.047440 0.058954 -0.006715 0.245152
  4   2.033756 0.190472 -0.000128 -0.107549 0.045757 0.403549
  5   2.451511 0.204909 -0.003447 -0.076581 -0.043428 0.400593
  6   7.247600 -0.397300 -0.109469 0.023035 -0.047318 0.523764
  7   -2.022252 -0.104661 3.136172 1.238875 -1.024594 -4.799459
  8   1.168026 -0.537438 -0.063437 -0.846332 0.729121 -0.669295
  9   6.790376 -0.619176 0.015206 0.056321 -0.174277 -1.132768
 10   8.637599 0.544015 -0.090417 -3.988461 0.202805 -0.503999
 11   6.790465 -0.619039 0.017802 0.020446 -0.141498 -0.805112
 12   -2.022474 -0.104699 -2.873818 -1.163239 1.764361 -4.903069
 13   1.167898 -0.537463 0.063297 0.337693 -0.883224 -1.107514
 14   7.002743 -0.617765 -0.183752 0.376098 -0.308829 -1.763884
 15   8.209042 0.615527 -0.255885 2.169976 0.452154 0.549949
 16   7.002735 -0.617911 -0.183641 0.222509 -0.282975 -1.232004
 17   1.574674 0.609930 -0.000899 0.254770 0.315535 -0.043807
 18   -0.602177 0.511412 -0.000006 0.000000 0.000000 0.000000
 19   3.673773 0.177020 1.119313 -0.000002 -0.000014 -0.174510
 20   3.673767 0.176993 -1.117566 0.000007 -0.000003 -0.174546
 21   3.942357 1.330634 1.627658 0.000002 -0.000011 -0.000026
 22   -0.246060 -0.011889 0.516521 -0.000011 0.000031 0.000025
 23   3.942374 1.330659 -1.631083 0.000019 0.000002 -0.000024
 24   -0.246150 -0.011872 -0.516511 -0.000005 -0.000006 0.000048
 25   4.941364 1.997338 1.629330 0.000018 -0.000001 -0.000024
 26   4.941382 1.997366 -1.629410 -0.000001 0.000005 -0.000024
 27   2.918368 1.615358 1.514501 -0.000019 -0.000022 -0.000050
 28   2.920798 1.614964 -1.501142 -0.000002 -0.000009 -0.000024
 29   8.824059 0.150544 0.091743 0.000006 -0.000231 -0.174534
 30   2.111085 -0.561179 1.784320 -0.000008 -0.000682 0.000024
 31   2.121290 -0.561289 -1.853599 0.000000 0.000000 -0.000002
 32   -0.810489 -0.093824 3.127092 3.071872 -0.114782 1.239365
 33   14.298673 -0.408176 0.475484 0.000248 0.000062 -1.896136
 34   15.835795 0.581398 0.242756 -0.214729 0.106889 -0.097869
 35   -0.815868 -0.091229 -3.114430 0.066464 3.132725 -1.010185
 36   14.294526 -0.410349 -0.463635 0.000033 -0.000000 -2.607695
 37   15.834409 0.579420 -0.284600 -0.006092 -0.035255 0.214458
 38   1.139685 -3.453749 -2.823813 0.000000 0.000000 0.000001
 39   -4.457742 -1.054854 -0.746180 0.000000 0.000000 0.000000
 40   1.118101 -3.449769 3.237290 0.000000 0.000001 0.000000
 41   -4.433840 -1.059130 0.959566 -0.000001 0.000000 0.000000
 42   -0.657468 1.697302 -2.688614 0.000000 0.000002 0.000000
 43   -0.664068 1.698578 2.869377 0.000000 0.000002 0.000000
time 3
  0   -0.967547 0.175787 -20.574476 0.000000 0.000000 -1.572114
  1   -1.093036 0.000002 -0.326057 -1.570809 -1.570703 0.000022
  2   2.262337 0.113614 0.064702 -0.000014 0.000037 0.133459
  3   2.380047 0.353302 0.047440 0.056989 -0.006524 0.242826
  4   2.033756 0.190472 -0.000128 -0.109559 0.045973 0.398692
  5   2.451511 0.204909 -0.003447 -0.079080 -0.042201 0.396854
  6   7.247600 -0.397300 -0.109469 0.022137 -0.045916 0.522687
  7   -2.022252 -0.104661 3.136172 1.238875 -1.024594 -4.799459
  8   1.168026 -0.537438 -0.063437 -0.851647 0.717951 -0.667650
  9   6.790376 -0.619176 0.015206 0.056487 -0.175545 -1.160993
 10   8.637599 0.544015 -0.090417 -3.988461 0.202805 -0.503999
 11   6.790465 -0.619039 0.017802 0.019950 -0.142663 -0.824895
 12   -2.022474 -0.104699 -2.873818 -1.163239 1.764361 -4.903069
 13   1.167898 -0.537463 0.063297 0.337482 -0.877936 -1.101037
 14   7.002743 -0.617765 -0.183752 0.375358 -0.308829 -1.784263
 15   8.209042 0.615527 -0.255885 2.169976 0.452154 0.549949
 16   7.002735 -0.617911 -0.183641 0.221285 -0.283708 -1.246133
 17   1.574674 0.609930 -0.000899 0.254770 0.315535 -0.043807
 18   -0.602177 0.511412 -0.000006 0.000000 0.000000 0.000000
 19   3.673773 0.177020 1.119313 -0.000002 -0.000014 -0.174510
 20   3.673767 0.176993 -1.117566 0.000007 -0.000003 -0.174546
 21   3.942357 1.330634 1.627658 0.000002 -0.000011 -0.000026
 22   -0.246060 -0.011889 0.516521 -0.000011 0.000031 0.000025
 23   3.942374 1.330659 -1.631083 0.000019 0.000002 -0.000024
 24   -0.246150 -0.011872 -0.516511 -0.000005 -0.000006 0.000048
 25   4.941364 1.997338 1.629330 0.000018 -0.000001 -0.000024
 26   4.941382 1.997366 -1.629410 -0.000001 0.000005 -0.000024
 27   2.918368 1.615358 1.514501 -0.000019 -0.000022 -0.000050
 28   2.920798 1.614964 -1.501142 -0.000002 -0.000009 -0.000024
 29   8.824059 0.150544 0.091743 0.000006 -0.000231 -0.174534
 30   2.111085 -0.561179 1.784320 -0.000008 -0.000682 0.000024
 31   2.121290 -0.561289 -1.853599 0.000000 0.000000 -0.000002
 32   -0.810489 -0.093824 3.127092 3.071872 -0.114782 1.239365
 33   14.298673 -0.408176 0.475484 0.000248 0.000062 -1.896136
 34   15.835795 0.581398 0.242756 -0.214729 0.106889 -0.097869
 35   -0.815868 -0.091229 -3.114430 0.066464 3.132725 -1.010185
 36   14.294526 -0.410349 -0.463635 0.000033 -0.000000 -2.607695
 37   15.834409 0.579420 -0.284600 -0.006092 -0.035255 0.214458
 38   1.139685 -3.453749 -2.823813 0.000000 0.000000 0.000001
 39   -4.457742 -1.054854 -0.746180 0.000000 0.000000 0.000000
 40   1.118101 -3.449769 3.237290 0.000000 0.000001 0.000000
 41   -4.433840 -1.059130 0.959566 -0.000001 0.000000 0.000000
 42   -0.657468 1.697302 -2.688614 0.000000 0.000002 0.000000
 43   -0.664068 1.698578 2.869377 0.000000 0.000002 0.000000
time 4
  0   -0.967547 0.175787 -20.574476 0.000000 0.000000 -1.572114
  1   -1.093036 0.000002 -0.326057 -1.570809 -1.570703 0.000022
  2   2.262337 0.113614 0.064702 -0.000014 0.000037 0.133459
  3   2.380047 0.353302 0.047440 0.054349 -0.006188 0.239765
  4   2.033756 0.190472 -0.000128 -0.112178 0.046213 0.392095
  5   2.451511 0.204909 -0.003447 -0.082401 -0.040543 0.391925
  6   7.247600 -0.397300 -0.109469 0.020806 -0.043986 0.521420
  7   -2.022252 -0.104661 3.136172 1.238875 -1.024594 -4.799459
  8   1.168026 -0.537438 -0.063437 -0.861899 0.699687 -0.671003
  9   6.790376 -0.619176 0.015206 0.056598 -0.176746 -1.189746
 10   8.637599 0.544015 -0.090417 -3.988461 0.202805 -0.503999
 11   6.790465 -0.619039 0.017802 0.019424 -0.143800 -0.844793
 12   -2.022474 -0.104699 -2.873818 -1.163239 1.764361 -4.903069
 13   1.167898 -0.537463 0.063297 0.339380 -0.870003 -1.092925
 14   7.002743 -0.617765 -0.183752 0.374219 -0.308545 -1.809427
 15   8.209042 0.615527 -0.255885 2.170120 0.452154 0.549949
 16   7.002735 -0.617911 -0.183641 0.219872 -0.284554 -1.263629
 17   1.574674 0.609930 -0.000899 0.254770 0.315535 -0.043807
 18   -0.602177 0.511412 -0.000006 0.000000 0.000000 0.000000
 19   3.673773 0.177020 1.119313 -0.000002 -0.000014 -0.174510
 20   3.673767 0.176993 -1.117566 0.000007 -0.000003 -0.174546
 21   3.942357 1.330634 1.627658 0.000002 -0.000011 -0.000026
 22   -0.246060 -0.011889 0.516521 -0.000011 0.000031 0.000025
 23   3.942374 1.330659 -1.631083 0.000019 0.000002 -0.000024
 24   -0.246150 -0.011872 -0.516511 -0.000005 -0.000006 0.000048
 25   4.941364 1.997338 1.629330 0.000018 -0.000001 -0.000024
 26   4.941382 1.997366 -1.629410 -0.000001 0.000005 -0.000024
 27   2.918368 1.615358 1.514501 -0.000019 -0.000022 -0.000050
 28   2.920798 1.614964 -1.501142 -0.000002 -0.000009 -0.000024
 29   8.824059 0.150544 0.091743 0.000006 -0.000231 -0.174534
 30   2.111085 -0.561179 1.784320 -0.000008 -0.000682 0.000024
 31   2.121290 -0.561289 -1.853599 0.000000 0.000000 -0.000002
 32   -0.810489 -0.093824 3.127092 3.071872 -0.114782 1.239365
 33   14.298673 -0.408176 0.475484 0.000248 0.000062 -1.896136
 34   15.835795 0.581398 0.242756 -0.214729 0.106889 -0.097869
 35   -0.815868 -0.091229 -3.114430 0.066464 3.132725 -1.010185
 36   14.294526 -0.410349 -0.463635 0.000033 -0.000000 -2.607695
 37   15.834409 0.579420 -0.284600 -0.006092 -0.035255 0.214458
 38   1.139685 -3.453749 -2.823813 0.000000 0.000000 0.000001
 39   -4.457742 -1.054854 -0.746180 0.000000 0.000000 0.000000
 40   1.118101 -3.449769 3.237290 0.000000 0.000001 0.000000
 41   -4.433840 -1.059130 0.959566 -0.000001 0.000000 0.000000
 42   -0.657468 1.697302 -2.688614 0.000000 0.000002 0.000000
 43   -0.664068 1.698578 2.869377 0.000000 0.000002 0.000000
time 5
  0   -0.967547 0.175787 -20.574476 0.000000 0.000000 -1.572114
  1   -1.093036 0.000002 -0.326057 -1.570809 -1.570703 0.000022
  2   2.262337 0.113614 0.064702 -0.000014 0.000037 0.133459
  3   2.380047 0.353302 0.047440 0.051108 -0.005865 0.236031
  4   2.033756 0.190472 -0.000128 -0.115350 0.046452 0.384229
  5   2.451511 0.204909 -0.003447 -0.086389 -0.038519 0.385982
  6   7.247600 -0.397300 -0.109469 0.019272 -0.041709 0.519868
  7   -2.022252 -0.104661 3.136172 1.238875 -1.024594 -4.799459
  8   1.168026 -0.537438 -0.063437 -0.876453 0.675335 -0.679543
  9   6.790376 -0.619176 0.015206 0.056709 -0.177947 -1.216386
 10   8.637599 0.544015 -0.090417 -3.988461 0.202805 -0.503999
 11   6.790465 -0.619039 0.017802 0.018957 -0.144909 -0.863422
 12   -2.022474 -0.104699 -2.873818 -1.163239 1.764361 -4.903069
 13   1.167898 -0.537463 0.063297 0.345284 -0.859832 -1.086024
 14   7.002743 -0.617765 -0.183752 0.373195 -0.308261 -1.836159
 15   8.209042 0.615527 -0.255885 2.170120 0.452154 0.549949
 16   7.002735 -0.617911 -0.183641 0.218319 -0.285456 -1.282229
 17   1.574674 0.609930 -0.000899 0.254770 0.315535 -0.043807
 18   -0.602177 0.511412 -0.000006 0.000000 0.000000 0.000000
 19   3.673773 0.177020 1.119313 -0.000002 -0.000014 -0.174510
 20   3.673767 0.176993 -1.117566 0.000007 -0.000003 -0.174546
 21   3.942357 1.330634 1.627658 0.000002 -0.000011 -0.000026
 22   -0.246060 -0.011889 0.516521 -0.000011 0.000031 0.000025
 23   3.942374 1.330659 -1.631083 0.000019 0.000002 -0.000024
 24   -0.246150 -0.011872 -0.516511 -0.000005 -0.000006 0.000048
 25   4.941364 1.997338 1.629330 0.000018 -0.000001 -0.000024
 26   4.941382 1.997366 -1.629410 -0.000001 0.000005 -0.000024
 27   2.918368 1.615358 1.514501 -0.000019 -0.000022 -0.000050
 28   2.920798 1.614964 -1.501142 -0.000002 -0.000009 -0.000024
 29   8.824059 0.150544 0.091743 0.000006 -0.000231 -0.174534
 30   2.111085 -0.561179 1.784320 -0.000008 -0.000682 0.000024
 31   2.121290 -0.561289 -1.853599 0.000000 0.000000 -0.000002
 32   -0.810489 -0.093824 3.127092 3.071872 -0.114782 1.239365
 33   14.298673 -0.408176 0.475484 0.000248 0.000062 -1.896136
 34   15.835795 0.581398 0.242756 -0.214729 0.106889 -0.097869
 35   -0.815868 -0.091229 -3.114430 0.066464 3.132725 -1.010185
 36   14.294526 -0.410349 -0.463635 0.000033 -0.000000 -2.607695
 37   15.834409 0.579420 -0.284600 -0.006092 -0.035255 0.214458
 38   1.139685 -3.453749 -2.823813 0.000000 0.000000 0.000001
 39   -4.457742 -1.054854 -0.746180 0.000000 0.000000 0.000000
 40   1.118101 -3.449769 3.237290 0.000000 0.000001 0.000000
 41   -4.433840 -1.059130 0.959566 -0.000001 0.000000 0.000000
 42   -0.657468 1.697302 -2.688614 0.000000 0.000002 0.000000
 43   -0.664068 1.698578 2.869377 0.000000 0.000002 0.000000
time 6
  0   -0.967547 0.175787 -20.574476 0.000000 0.000000 -1.572114
  1   -1.093036 0.000002 -0.326057 -1.570809 -1.570703 0.000022
  2   2.262337 0.113614 0.064702 -0.000014 0.000037 0.133459
  3   2.380047 0.353302 0.047440 0.047478 -0.005397 0.231848
  4   2.033756 0.190472 -0.000128 -0.119020 0.046812 0.375204
  5   2.451511 0.204909 -0.003447 -0.090959 -0.036208 0.379146
  6   7.247600 -0.397300 -0.109469 0.017510 -0.039121 0.518094
  7   -2.022252 -0.104661 3.136172 1.238875 -1.024594 -4.799459
  8   1.168026 -0.537438 -0.063437 -0.895627 0.643486 -0.695548
  9   6.790376 -0.619176 0.015206 0.056820 -0.178615 -1.232989
 10   8.637599 0.544015 -0.090417 -3.988461 0.202805 -0.503999
 11   6.790465 -0.619039 0.017802 0.018665 -0.145591 -0.874899
 12   -2.022474 -0.104699 -2.873818 -1.163239 1.764361 -4.903069
 13   1.167898 -0.537463 0.063297 0.356813 -0.847220 -1.080939
 14   7.002743 -0.617765 -0.183752 0.372113 -0.307352 -1.861323
 15   8.209042 0.615527 -0.255885 2.170120 0.452154 0.549949
 16   7.002735 -0.617911 -0.183641 0.216954 -0.285851 -1.299891
 17   1.574674 0.609930 -0.000899 0.254770 0.315535 -0.043807
 18   -0.602177 0.511412 -0.000006 0.000000 0.000000 0.000000
 19   3.673773 0.177020 1.119313 -0.000002 -0.000014 -0.174510
 20   3.673767 0.176993 -1.117566 0.000007 -0.000003 -0.174546
 21   3.942357 1.330634 1.627658 0.000002 -0.000011 -0.000026
 22   -0.246060 -0.011889 0.516521 -0.000011 0.000031 0.000025
 23   3.942374 1.330659 -1.631083 0.000019 0.000002 -0.000024
 24   -0.246150 -0.011872 -0.516511 -0.000005 -0.000006 0.000048
 25   4.941364 1.997338 1.629330 0.000018 -0.000001 -0.000024
 26   4.941382 1.997366 -1.629410 -0.000001 0.000005 -0.000024
 27   2.918368 1.615358 1.514501 -0.000019 -0.000022 -0.000050
 28   2.920798 1.614964 -1.501142 -0.000002 -0.000009 -0.000024
 29   8.824059 0.150544 0.091743 0.000006 -0.000231 -0.174534
 30   2.111085 -0.561179 1.784320 -0.000008 -0.000682 0.000024
 31   2.121290 -0.561289 -1.853599 0.000000 0.000000 -0.000002
 32   -0.810489 -0.093824 3.127092 3.071872 -0.114782 1.239365
 33   14.298673 -0.408176 0.475484 0.000248 0.000062 -1.896136
 34   15.835795 0.581398 0.242756 -0.214729 0.106889 -0.097869
 35   -0.815868 -0.091229 -3.114430 0.066464 3.132725 -1.010185
 36   14.294526 -0.410349 -0.463635 0.000033 -0.000000 -2.607695
 37   15.834409 0.579420 -0.284600 -0.006092 -0.035255 0.214458
 38   1.139685 -3.453749 -2.823813 0.000000 0.000000 0.000001
 39   -4.457742 -1.054854 -0.746180 0.000000 0.000000 0.000000
 40   1.118101 -3.449769 3.237290 0.000000 0.000001 0.000000
 41   -4.433840 -1.059130 0.959566 -0.000001 0.000000 0.000000
 42   -0.657468 1.697302 -2.688614 0.000000 0.000002 0.000000
 43   -0.664068 1.698578 2.869377 0.000000 0.000002 0.000000
time 7
  0   -0.967547 0.175787 -20.574476 0.000000 0.000000 -1.572114
  1   -1.093036 0.000002 -0.326057 -1.570809 -1.570703 0.000022
  2   2.262337 0.113614 0.064702 -0.000014 0.000037 0.133459
  3   2.380047 0.353302 0.047440 0.043563 -0.004990 0.227175
  4   2.033756 0.190472 -0.000128 -0.123022 0.047124 0.365272
  5   2.451511 0.204909 -0.003447 -0.095940 -0.033741 0.371667
  6   7.247600 -0.397300 -0.109469 0.015641 -0.036208 0.516130
  7   -2.022252 -0.104661 3.136172 1.238875 -1.024594 -4.799459
  8   1.168026 -0.537438 -0.063437 -0.917965 0.605951 -0.717626
  9   6.790376 -0.619176 0.015206 0.056931 -0.178882 -1.240083
 10   8.637599 0.544015 -0.090417 -3.988461 0.202805 -0.503999
 11   6.790465 -0.619039 0.017802 0.018636 -0.145790 -0.879917
 12   -2.022474 -0.104699 -2.873818 -1.163239 1.764361 -4.903069
 13   1.167898 -0.537463 0.063297 0.372277 -0.833388 -1.076944
 14   7.002743 -0.617765 -0.183752 0.371031 -0.306444 -1.885002
 15   8.209042 0.615527 -0.255885 2.169976 0.452154 0.549949
 16   7.002735 -0.617911 -0.183641 0.215730 -0.286020 -1.316338
 17   1.574674 0.609930 -0.000899 0.254770 0.315535 -0.043807
 18   -0.602177 0.511412 -0.000006 0.000000 0.000000 0.000000
 19   3.673773 0.177020 1.119313 -0.000002 -0.000014 -0.174510
 20   3.673767 0.176993 -1.117566 0.000007 -0.000003 -0.174546
 21   3.942357 1.330634 1.627658 0.000002 -0.000011 -0.000026
 22   -0.246060 -0.011889 0.516521 -0.000011 0.000031 0.000025
 23   3.942374 1.330659 -1.631083 0.000019 0.000002 -0.000024
 24   -0.246150 -0.011872 -0.516511 -0.000005 -0.000006 0.000048
 25   4.941364 1.997338 1.629330 0.000018 -0.000001 -0.000024
 26   4.941382 1.997366 -1.629410 -0.000001 0.000005 -0.000024
 27   2.918368 1.615358 1.514501 -0.000019 -0.000022 -0.000050
 28   2.920798 1.614964 -1.501142 -0.000002 -0.000009 -0.000024
 29   8.824059 0.150544 0.091743 0.000006 -0.000231 -0.174534
 30   2.111085 -0.561179 1.784320 -0.000008 -0.000682 0.000024
 31   2.121290 -0.561289 -1.853599 0.000000 0.000000 -0.000002
 32   -0.810489 -0.093824 3.127092 3.071872 -0.114782 1.239365
 33   14.298673 -0.408176 0.475484 0.000248 0.000062 -1.896136
 34   15.835795 0.581398 0.242756 -0.214729 0.106889 -0.097869
 35   -0.815868 -0.091229 -3.114430 0.066464 3.132725 -1.010185
 36   14.294526 -0.410349 -0.463635 0.000033 -0.000000 -2.607695
 37   15.834409 0.579420 -0.284600 -0.006092 -0.035255 0.214458
 38   1.139685 -3.453749 -2.823813 0.000000 0.000000 0.000001
 39   -4.457742 -1.054854 -0.746180 0.000000 0.000000 0.000000
 40   1.118101 -3.449769 3.237290 0.000000 0.000001 0.000000
 41   -4.433840 -1.059130 0.959566 -0.000001 0.000000 0.000000
 42   -0.657468 1.697302 -2.688614 0.000000 0.000002 0.000000
 43   -0.664068 1.698578 2.869377 0.000000 0.000002 0.000000
time 8
  0   -0.967547 0.175787 -20.574476 0.000000 0.000000 -1.572114
  1   -1.093036 0.000002 -0.326057 -1.570809 -1.570703 0.000022
  2   2.262337 0.113614 0.064702 -0.000014 0.000037 0.133459
  3   2.380047 0.353302 0.047440 0.039303 -0.004462 0.222237
  4   2.033756 0.190472 -0.000128 -0.127301 0.047543 0.354579
  5   2.451511 0.204909 -0.003447 -0.101349 -0.031012 0.363643
  6   7.247600 -0.397300 -0.109469 0.013580 -0.033128 0.514008
  7   -2.022252 -0.104661 3.136172 1.238875 -1.024594 -4.799459
  8   1.168026 -0.537438 -0.063437 -0.941632 0.563285 -0.745397
  9   6.790376 -0.619176 0.015206 0.056820 -0.178615 -1.232536
 10   8.637599 0.544015 -0.090417 -3.988461 0.202805 -0.503999
 11   6.790465 -0.619039 0.017802 0.018723 -0.145591 -0.874611
 12   -2.022474 -0.104699 -2.873818 -1.163239 1.764361 -4.903069
 13   1.167898 -0.537463 0.063297 0.392873 -0.817878 -1.075007
 14   7.002743 -0.617765 -0.183752 0.370234 -0.305478 -1.904061
 15   8.209042 0.615527 -0.255885 2.170120 0.452154 0.549949
 16   7.002735 -0.617911 -0.183641 0.214788 -0.286189 -1.329750
 17   1.574674 0.609930 -0.000899 0.254770 0.315535 -0.043807
 18   -0.602177 0.511412 -0.000006 0.000000 0.000000 0.000000
 19   3.673773 0.177020 1.119313 -0.000002 -0.000014 -0.174510
 20   3.673767 0.176993 -1.117566 0.000007 -0.000003 -0.174546
 21   3.942357 1.330634 1.627658 0.000002 -0.000011 -0.000026
 22   -0.246060 -0.011889 0.516521 -0.000011 0.000031 0.000025
 23   3.942374 1.330659 -1.631083 0.000019 0.000002 -0.000024
 24   -0.246150 -0.011872 -0.516511 -0.000005 -0.000006 0.000048
 25   4.941364 1.997338 1.629330 0.000018 -0.000001 -0.000024
 26   4.941382 1.997366 -1.629410 -0.000001 0.000005 -0.000024
 27   2.918368 1.615358 1.514501 -0.000019 -0.000022 -0.000050
 28   2.920798 1.614964 -1.501142 -0.000002 -0.000009 -0.000024
 29   8.824059 0.150544 0.091743 0.000006 -0.000231 -0.174534
 30   2.111085 -0.561179 1.784320 -0.000008 -0.000682 0.000024
 31   2.121290 -0.561289 -1.853599 0.000000 0.000000 -0.000002
 32   -0.810489 -0.093824 3.127092 3.071872 -0.114782 1.239365
 33   14.298673 -0.408176 0.475484 0.000248 0.000062 -1.896136
 34   15.835795 0.581398 0.242756 -0.214729 0.106889 -0.097869
 35   -0.815868 -0.091229 -3.114430 0.066464 3.132725 -1.010185
 36   14.294526 -0.410349 -0.463635 0.000033 -0.000000 -2.607695
 37   15.834409 0.579420 -0.284600 -0.006092 -0.035255 0.214458
 38   1.139685 -3.453749 -2.823813 0.000000 0.000000 0.000001
 39   -4.457742 -1.054854 -0.746180 0.000000 0.000000 0.000000
 40   1.118101 -3.449769 3.237290 0.000000 0.000001 0.000000
 41   -4.433840 -1.059130 0.959566 -0.000001 0.000000 0.000000
 42   -0.657468 1.697302 -2.688614 0.000000 0.000002 0.000000
 43   -0.664068 1.698578 2.869377 0.000000 0.000002 0.000000
time 9
  0   -0.967547 0.175787 -20.574476 0.000000 0.000000 -1.572114
  1   -1.093036 0.000002 -0.326057 -1.570809 -1.570703 0.000022
  2   2.262337 0.113614 0.064702 -0.000014 0.000037 0.133459
  3   2.380047 0.353302 0.047440 0.034787 -0.003983 0.217074
  4   2.033756 0.190472 -0.000128 -0.131764 0.047903 0.343560
  5   2.451511 0.204909 -0.003447 -0.106929 -0.028218 0.355297
  6   7.247600 -0.397300 -0.109469 0.011362 -0.029941 0.511822
  7   -2.022252 -0.104661 3.136172 1.238875 -1.024594 -4.799459
  8   1.168026 -0.537438 -0.063437 -0.964666 0.516543 -0.778672
  9   6.790376 -0.619176 0.015206 0.056598 -0.177547 -1.207179
 10   8.637599 0.544015 -0.090417 -3.988461 0.202805 -0.503999
 11   6.790465 -0.619039 0.017802 0.019103 -0.144596 -0.856847
 12   -2.022474 -0.104699 -2.873818 -1.163239 1.764361 -4.903069
 13   1.167898 -0.537463 0.063297 0.417617 -0.801504 -1.074704
 14   7.002743 -0.617765 -0.183752 0.369722 -0.304910 -1.917179
 15   8.209042 0.615527 -0.255885 2.170120 0.452154 0.549949
 16   7.002735 -0.617911 -0.183641 0.214082 -0.286358 -1.338912
 17   1.574674 0.609930 -0.000899 0.254770 0.315535 -0.043807
 18   -0.602177 0.511412 -0.000006 0.000000 0.000000 0.000000
 19   3.673773 0.177020 1.119313 -0.000002 -0.000014 -0.174510
 20   3.673767 0.176993 -1.117566 0.000007 -0.000003 -0.174546
 21   3.942357 1.330634 1.627658 0.000002 -0.000011 -0.000026
 22   -0.246060 -0.011889 0.516521 -0.000011 0.000031 0.000025
 23   3.942374 1.330659 -1.631083 0.000019 0.000002 -0.000024
 24   -0.246150 -0.011872 -0.516511 -0.000005 -0.000006 0.000048
 25   4.941364 1.997338 1.629330 0.000018 -0.000001 -0.000024
 26   4.941382 1.997366 -1.629410 -0.000001 0.000005 -0.000024
 27   2.918368 1.615358 1.514501 -0.000019 -0.000022 -0.000050
 28   2.920798 1.614964 -1.501142 -0.000002 -0.000009 -0.000024
 29   8.824059 0.150544 0.091743 0.000006 -0.000231 -0.174534
 30   2.111085 -0.561179 1.784320 -0.000008 -0.000682 0.000024
 31   2.121290 -0.561289 -1.853599 0.000000 0.000000 -0.000002
 32   -0.810489 -0.093824 3.127092 3.071872 -0.114782 1.239365
 33   14.298673 -0.408176 0.475484 0.000248 0.000062 -1.896136
 34   15.835795 0.581398 0.242756 -0.214729 0.106889 -0.097869
 35   -0.815868 -0.091229 -3.114430 0.066464 3.132725 -1.010185
 36   14.294526 -0.410349 -0.463635 0.000033 -0.000000 -2.607695
 37   15.834409 0.579420 -0.284600 -0.006092 -0.035255 0.214458
 38   1.139685 -3.453749 -2.823813 0.000000 0.000000 0.000001
 39   -4.457742 -1.054854 -0.746180 0.000000 0.000000 0.000000
 40   1.118101 -3.449769 3.237290 0.000000 0.000001 0.000000
 41   -4.433840 -1.059130 0.959566 -0.000001 0.000000 0.000000
 42   -0.657468 1.697302 -2.688614 0.000000 0.000002 0.000000
 43   -0.664068 1.698578 2.869377 0.000000 0.000002 0.000000
time 10
  0   -0.967547 0.175787 -20.574476 0.000000 0.000000 -1.572114
  1   -1.093036 0.000002 -0.326057 -1.570809 -1.570703 0.000022
  2   2.262337 0.113614 0.064702 -0.000014 0.000037 0.133459
  3   2.380047 0.353302 0.047440 0.030257 -0.003468 0.211789
  4   2.033756 0.190472 -0.000128 -0.136301 0.048334 0.332251
  5   2.451511 0.204909 -0.003447 -0.112732 -0.025346 0.346828
  6   7.247600 -0.397300 -0.109469 0.009169 -0.026693 0.509573
  7   -2.022252 -0.104661 3.136172 1.238875 -1.024594 -4.799459
  8   1.168026 -0.537438 -0.063437 -0.984916 0.468442 -0.814604
  9   6.790376 -0.619176 0.015206 0.056487 -0.175812 -1.165370
 10   8.637599 0.544015 -0.090417 -3.988461 0.202805 -0.503999
 11   6.790465 -0.619039 0.017802 0.019862 -0.142834 -0.827779
 12   -2.022474 -0.104699 -2.873818 -1.163239 1.764361 -4.903069
 13   1.167898 -0.537463 0.063297 0.444891 -0.784620 -1.075370
 14   7.002743 -0.617765 -0.183752 0.369437 -0.304627 -1.923532
 15   8.209042 0.615527 -0.255885 2.170120 0.452154 0.549949
 16   7.002735 -0.617911 -0.183641 0.213800 -0.286358 -1.343272
 17   1.574674 0.609930 -0.000899 0.254770 0.315535 -0.043807
 18   -0.602177 0.511412 -0.000006 0.000000 0.000000 0.000000
 19   3.673773 0.177020 1.119313 -0.000002 -0.000014 -0.174510
 20   3.673767 0.176993 -1.117566 0.000007 -0.000003 -0.174546
 21   3.942357 1.330634 1.627658 0.000002 -0.000011 -0.000026
 22   -0.246060 -0.011889 0.516521 -0.000011 0.000031 0.000025
 23   3.942374 1.330659 -1.631083 0.000019 0.000002 -0.000024
 24   -0.246150 -0.011872 -0.516511 -0.000005 -0.000006 0.000048
 25   4.941364 1.997338 1.629330 0.000018 -0.000001 -0.000024
 26   4.941382 1.997366 -1.629410 -0.000001 0.000005 -0.000024
 27   2.918368 1.615358 1.514501 -0.000019 -0.000022 -0.000050
 28   2.920798 1.614964 -1.501142 -0.000002 -0.000009 -0.000024
 29   8.824059 0.150544 0.091743 0.000006 -0.000231 -0.174534
 30   2.111085 -0.561179 1.784320 -0.000008 -0.000682 0.000024
 31   2.121290 -0.561289 -1.853599 0.000000 0.000000 -0.000002
 32   -0.810489 -0.093824 3.127092 3.071872 -0.114782 1.239365
 33   14.298673 -0.408176 0.475484 0.000248 0.000062 -1.896136
 34   15.835795 0.581398 0.242756 -0.214729 0.106889 -0.097869
 35   -0.815868 -0.091229 -3.114430 0.066464 3.132725 -1.010185
 36   14.294526 -0.410349 -0.463635 0.000033 -0.000000 -2.607695
 37   15.834409 0.579420 -0.284600 -0.006092 -0.035255 0.214458
 38   1.139685 -3.453749 -2.823813 0.000000 0.000000 0.000001
 39   -4.457742 -1.054854 -0.746180 0.000000 0.000000 0.000000
 40   1.118101 -3.449769 3.237290 0.000000 0.000001 0.000000
 41   -4.433840 -1.059130 0.959566 -0.000001 0.000000 0.000000
 42   -0.657468 1.697302 -2.688614 0.000000 0.000002 0.000000
 43   -0.664068 1.698578 2.869377 0.000000 0.000002 0.000000
time 11
  0   -0.967547 0.175787 -20.574476 0.000000 0.000000 -1.572114
  1   -1.093036 0.000002 -0.326057 -1.570809 -1.570703 0.000022
  2   2.262337 0.113614 0.064702 -0.000014 0.000037 0.133459
  3   2.380047 0.353302 0.047440 0.025787 -0.002916 0.206504
  4   2.033756 0.190472 -0.000128 -0.140856 0.048693 0.320942
  5   2.451511 0.204909 -0.003447 -0.118449 -0.022487 0.338333
  6   7.247600 -0.397300 -0.109469 0.007036 -0.023409 0.507324
  7   -2.022252 -0.104661 3.136172 1.238875 -1.024594 -4.799459
  8   1.168026 -0.537438 -0.063437 -1.001622 0.421247 -0.852054
  9   6.790376 -0.619176 0.015206 0.056210 -0.172808 -1.107562
 10   8.637599 0.544015 -0.090417 -3.988461 0.202805 -0.503999
 11   6.790465 -0.619039 0.017802 0.020884 -0.140190 -0.787464
 12   -2.022474 -0.104699 -2.873818 -1.163239 1.764361 -4.903069
 13   1.167898 -0.537463 0.063297 0.472728 -0.767991 -1.076702
 14   7.002743 -0.617765 -0.183752 0.369437 -0.304683 -1.922707
 15   8.209042 0.615527 -0.255885 2.170120 0.452154 0.549949
 16   7.002735 -0.617911 -0.183641 0.213847 -0.286358 -1.342831
 17   1.574674 0.609930 -0.000899 0.254770 0.315535 -0.043807
 18   -0.602177 0.511412 -0.000006 0.000000 0.000000 0.000000
 19   3.673773 0.177020 1.119313 -0.000002 -0.000014 -0.174510
 20   3.673767 0.176993 -1.117566 0.000007 -0.000003 -0.174546
 21   3.942357 1.330634 1.627658 0.000002 -0.000011 -0.000026
 22   -0.246060 -0.011889 0.516521 -0.000011 0.000031 0.000025
 23   3.942374 1.330659 -1.631083 0.000019 0.000002 -0.000024
 24   -0.246150 -0.011872 -0.516511 -0.000005 -0.000006 0.000048
 25   4.941364 1.997338 1.629330 0.000018 -0.000001 -0.000024
 26   4.941382 1.997366 -1.629410 -0.000001 0.000005 -0.000024
 27   2.918368 1.615358 1.514501 -0.000019 -0.000022 -0.000050
 28   2.920798 1.614964 -1.501142 -0.000002 -0.000009 -0.000024
 29   8.824059 0.150544 0.091743 0.000006 -0.000231 -0.174534
 30   2.111085 -0.561179 1.784320 -0.000008 -0.000682 0.000024
 31   2.121290 -0.561289 -1.853599 0.000000 0.000000 -0.000002
 32   -0.810489 -0.093824 3.127092 3.071872 -0.114782 1.239365
 33   14.298673 -0.408176 0.475484 0.000248 0.000062 -1.896136
 34   15.835795 0.581398 0.242756 -0.214729 0.106889 -0.097869
 35   -0.815868 -0.091229 -3.114430 0.066464 3.132725 -1.010185
 36   14.294526 -0.410349 -0.463635 0.000033 -0.000000 -2.607695
 37   15.834409 0.579420 -0.284600 -0.006092 -0.035255 0.214458
 38   1.139685 -3.453749 -2.823813 0.000000 0.000000 0.000001
 39   -4.457742 -1.054854 -0.746180 0.000000 0.000000 0.000000
 40   1.118101 -3.449769 3.237290 0.000000 0.000001 0.000000
 41   -4.433840 -1.059130 0.959566 -0.000001 0.000000 0.000000
 42   -0.657468 1.697302 -2.688614 0.000000 0.000002 0.000000
 43   -0.664068 1.698578 2.869377 0.000000 0.000002 0.000000
time 12
  0   -0.967547 0.175787 -20.574476 0.000000 0.000000 -1.572114
  1   -1.093036 0.000002 -0.326057 -1.570809 -1.570703 0.000022
  2   2.262337 0.113614 0.064702 -0.000014 0.000037 0.133459
  3   2.380047 0.353302 0.047440 0.021271 -0.002437 0.201321
  4   2.033756 0.190472 -0.000128 -0.145319 0.049125 0.309923
  5   2.451511 0.204909 -0.003447 -0.124063 -0.019706 0.329962
  6   7.247600 -0.397300 -0.109469 0.004891 -0.020173 0.505107
  7   -2.022252 -0.104661 3.136172 1.238875 -1.024594 -4.799459
  8   1.168026 -0.537438 -0.063437 -1.013139 0.379134 -0.886531
  9   6.790376 -0.619176 0.015206 0.056099 -0.169138 -1.042962
 10   8.637599 0.544015 -0.090417 -3.988461 0.202805 -0.503999
 11   6.790465 -0.619039 0.017802 0.022081 -0.136893 -0.742593
 12   -2.022474 -0.104699 -2.873818 -1.163239 1.764361 -4.903069
 13   1.167898 -0.537463 0.063297 0.497963 -0.753244 -1.078397
 14   7.002743 -0.617765 -0.183752 0.369779 -0.304967 -1.916189
 15   8.209042 0.615527 -0.255885 2.170120 0.452154 0.549949
 16   7.002735 -0.617911 -0.183641 0.214176 -0.286358 -1.338305
 17   1.574674 0.609930 -0.000899 0.254770 0.315535 -0.043807
 18   -0.602177 0.511412 -0.000006 0.000000 0.000000 0.000000
 19   3.673773 0.177020 1.119313 -0.000002 -0.000014 -0.174510
 20   3.673767 0.176993 -1.117566 0.000007 -0.000003 -0.174546
 21   3.942357 1.330634 1.627658 0.000002 -0.000011 -0.000026
 22   -0.246060 -0.011889 0.516521 -0.000011 0.000031 0.000025
 23   3.942374 1.330659 -1.631083 0.000019 0.000002 -0.000024
 24   -0.246150 -0.011872 -0.516511 -0.000005 -0.000006 0.000048
 25   4.941364 1.997338 1.629330 0.000018 -0.000001 -0.000024
 26   4.941382 1.997366 -1.629410 -0.000001 0.000005 -0.000024
 27   2.918368 1.615358 1.514501 -0.000019 -0.000022 -0.000050
 28   2.920798 1.614964 -1.501142 -0.000002 -0.000009 -0.000024
 29   8.824059 0.150544 0.091743 0.000006 -0.000231 -0.174534
 30   2.111085 -0.561179 1.784320 -0.000008 -0.000682 0.000024
 31   2.121290 -0.561289 -1.853599 0.000000 0.000000 -0.000002
 32   -0.810489 -0.093824 3.127092 3.071872 -0.114782 1.239365
 33   14.298673 -0.408176 0.475484 0.000248 0.000062 -1.896136
 34   15.835795 0.581398 0.242756 -0.214729 0.106889 -0.097869
 35   -0.815868 -0.091229 -3.114430 0.066464 3.132725 -1.010185
 36   14.294526 -0.410349 -0.463635 0.000033 -0.000000 -2.607695
 37   15.834409 0.579420 -0.284600 -0.006092 -0.035255 0.214458
 38   1.139685 -3.453749 -2.823813 0.000000 0.000000 0.000001
 39   -4.457742 -1.054854 -0.746180 0.000000 0.000000 0.000000
 40   1.118101 -3.449769 3.237290 0.000000 0.000001 0.000000
 41   -4.433840 -1.059130 0.959566 -0.000001 0.000000 0.000000
 42   -0.657468 1.697302 -2.688614 0.000000 0.000002 0.000000
 43   -0.664068 1.698578 2.869377 0.000000 0.000002 0.000000
time 13
  0   -0.967547 0.175787 -20.574476 0.000000 0.000000 -1.572114
  1   -1.093036 0.000002 -0.326057 -1.570809 -1.570703 0.000022
  2   2.262337 0.113614 0.064702 -0.000014 0.000037 0.133459
  3   2.380047 0.353302 0.047440 0.016996 -0.001958 0.196342
  4   2.033756 0.190472 -0.000128 -0.149598 0.049472 0.299230
  5   2.451511 0.204909 -0.003447 -0.129438 -0.016964 0.321938
  6   7.247600 -0.397300 -0.109469 0.002757 -0.017129 0.503016
  7   -2.022252 -0.104661 3.136172 1.238875 -1.024594 -4.799459
  8   1.168026 -0.537438 -0.063437 -1.020353 0.343763 -0.918225
  9   6.790376 -0.619176 0.015206 0.056099 -0.164466 -0.976928
 10   8.637599 0.544015 -0.090417 -3.988461 0.202805 -0.503999
 11   6.790465 -0.619039 0.017802 0.023482 -0.132970 -0.696510
 12   -2.022474 -0.104699 -2.873818 -1.163239 1.764361 -4.903069
 13   1.167898 -0.537463 0.063297 0.517224 -0.741395 -1.077186
 14   7.002743 -0.617765 -0.183752 0.370063 -0.305422 -1.907691
 15   8.209042 0.615527 -0.255885 2.169976 0.452154 0.549949
 16   7.002735 -0.617911 -0.183641 0.214600 -0.286189 -1.332289
 17   1.574674 0.609930 -0.000899 0.254770 0.315535 -0.043807
 18   -0.602177 0.511412 -0.000006 0.000000 0.000000 0.000000
 19   3.673773 0.177020 1.119313 -0.000002 -0.000014 -0.174510
 20   3.673767 0.176993 -1.117566 0.000007 -0.000003 -0.174546
 21   3.942357 1.330634 1.627658 0.000002 -0.000011 -0.000026
 22   -0.246060 -0.011889 0.516521 -0.000011 0.000031 0.000025
 23   3.942374 1.330659 -1.631083 0.000019 0.000002 -0.000024
 24   -0.246150 -0.011872 -0.516511 -0.000005 -0.000006 0.000048
 25   4.941364 1.997338 1.629330 0.000018 -0.000001 -0.000024
 26   4.941382 1.997366 -1.629410 -0.000001 0.000005 -0.000024
 27   2.918368 1.615358 1.514501 -0.000019 -0.000022 -0.000050
 28   2.920798 1.614964 -1.501142 -0.000002 -0.000009 -0.000024
 29   8.824059 0.150544 0.091743 0.000006 -0.000231 -0.174534
 30   2.111085 -0.561179 1.784320 -0.000008 -0.000682 0.000024
 31   2.121290 -0.561289 -1.853599 0.000000 0.000000 -0.000002
 32   -0.810489 -0.093824 3.127092 3.071872 -0.114782 1.239365
 33   14.298673 -0.408176 0.475484 0.000248 0.000062 -1.896136
 34   15.835795 0.581398 0.242756 -0.214729 0.106889 -0.097869
 35   -0.815868 -0.091229 -3.114430 0.066464 3.132725 -1.010185
 36   14.294526 -0.410349 -0.463635 0.000033 -0.000000 -2.607695
 37   15.834409 0.579420 -0.284600 -0.006092 -0.035255 0.214458
 38   1.139685 -3.453749 -2.823813 0.000000 0.000000 0.000001
 39   -4.457742 -1.054854 -0.746180 0.000000 0.000000 0.000000
 40   1.118101 -3.449769 3.237290 0.000000 0.000001 0.000000
 41   -4.433840 -1.059130 0.959566 -0.000001 0.000000 0.000000
 42   -0.657468 1.697302 -2.688614 0.000000 0.000002 0.000000
 43   -0.664068 1.698578 2.869377 0.000000 0.000002 0.000000
time 14
  0   -0.967547 0.175787 -20.574476 0.000000 0.000000 -1.572114
  1   -1.093036 0.000002 -0.326057 -1.570809 -1.570703 0.000022
  2   2.262337 0.113614 0.064702 -0.000014 0.000037 0.133459
  3   2.380047 0.353302 0.047440 0.013096 -0.001454 0.191710
  4   2.033756 0.190472 -0.000128 -0.153600 0.049856 0.289371
  5   2.451511 0.204909 -0.003447 -0.134470 -0.014458 0.314434
  6   7.247600 -0.397300 -0.109469 0.000888 -0.014253 0.501052
  7   -2.022252 -0.104661 3.136172 1.238875 -1.024594 -4.799459
  8   1.168026 -0.537438 -0.063437 -1.023327 0.313977 -0.949918
  9   6.790376 -0.619176 0.015206 0.056099 -0.158326 -0.900706
 10   8.637599 0.544015 -0.090417 -3.988461 0.202805 -0.503999
 11   6.790465 -0.619039 0.017802 0.025059 -0.127996 -0.643450
 12   -2.022474 -0.104699 -2.873818 -1.163239 1.764361 -4.903069
 13   1.167898 -0.537463 0.063297 0.531845 -0.731276 -1.073796
 14   7.002743 -0.617765 -0.183752 0.370689 -0.305989 -1.893500
 15   8.209042 0.615527 -0.255885 2.170120 0.452154 0.549949
 16   7.002735 -0.617911 -0.183641 0.215306 -0.286076 -1.322299
 17   1.574674 0.609930 -0.000899 0.254770 0.315535 -0.043807
 18   -0.602177 0.511412 -0.000006 0.000000 0.000000 0.000000
 19   3.673773 0.177020 1.119313 -0.000002 -0.000014 -0.174510
 20   3.673767 0.176993 -1.117566 0.000007 -0.000003 -0.174546
 21   3.942357 1.330634 1.627658 0.000002 -0.000011 -0.000026
 22   -0.246060 -0.011889 0.516521 -0.000011 0.000031 0.000025
 23   3.942374 1.330659 -1.631083 0.000019 0.000002 -0.000024
 24   -0.246150 -0.011872 -0.516511 -0.000005 -0.000006 0.000048
 25   4.941364 1.997338 1.629330 0.000018 -0.000001 -0.000024
 26   4.941382 1.997366 -1.629410 -0.000001 0.000005 -0.000024
 27   2.918368 1.615358 1.514501 -0.000019 -0.000022 -0.000050
 28   2.920798 1.614964 -1.501142 -0.000002 -0.000009 -0.000024
 29   8.824059 0.150544 0.091743 0.000006 -0.000231 -0.174534
 30   2.111085 -0.561179 1.784320 -0.000008 -0.000682 0.000024
 31   2.121290 -0.561289 -1.853599 0.000000 0.000000 -0.000002
 32   -0.810489 -0.093824 3.127092 3.071872 -0.114782 1.239365
 33   14.298673 -0.408176 0.475484 0.000248 0.000062 -1.896136
 34   15.835795 0.581398 0.242756 -0.214729 0.106889 -0.097869
 35   -0.815868 -0.091229 -3.114430 0.066464 3.132725 -1.010185
 36   14.294526 -0.410349 -0.463635 0.000033 -0.000000 -2.607695
 37   15.834409 0.579420 -0.284600 -0.006092 -0.035255 0.214458
 38   1.139685 -3.453749 -2.823813 0.000000 0.000000 0.000001
 39   -4.457742 -1.054854 -0.746180 0.000000 0.000000 0.000000
 40   1.118101 -3.449769 3.237290 0.000000 0.000001 0.000000
 41   -4.433840 -1.059130 0.959566 -0.000001 0.000000 0.000000
 42   -0.657468 1.697302 -2.688614 0.000000 0.000002 0.000000
 43   -0.664068 1.698578 2.869377 0.000000 0.000002 0.000000
time 15
  0   -0.967547 0.175787 -20.574476 0.000000 0.000000 -1.572114
  1   -1.093036 0.000002 -0.326057 -1.570809 -1.570703 0.000022
  2   2.262337 0.113614 0.064702 -0.000014 0.000037 0.133459
  3   2.380047 0.353302 0.047440 0.009466 -0.001071 0.187486
  4   2.033756 0.190472 -0.000128 -0.157233 0.050192 0.280273
  5   2.451511 0.204909 -0.003447 -0.139006 -0.012173 0.307723
  6   7.247600 -0.397300 -0.109469 -0.000838 -0.011604 0.499215
  7   -2.022252 -0.104661 3.136172 1.238875 -1.024594 -4.799459
  8   1.168026 -0.537438 -0.063437 -1.022821 0.290732 -0.981485
  9   6.790376 -0.619176 0.015206 0.056210 -0.150717 -0.816484
 10   8.637599 0.544015 -0.090417 -3.988461 0.202805 -0.503999
 11   6.790465 -0.619039 0.017802 0.026898 -0.121941 -0.584910
 12   -2.022474 -0.104699 -2.873818 -1.163239 1.764361 -4.903069
 13   1.167898 -0.537463 0.063297 0.540351 -0.724614 -1.067803
 14   7.002743 -0.617765 -0.183752 0.371487 -0.306898 -1.874689
 15   8.209042 0.615527 -0.255885 2.170120 0.452154 0.549949
 16   7.002735 -0.617911 -0.183641 0.216295 -0.286020 -1.309163
 17   1.574674 0.609930 -0.000899 0.254770 0.315535 -0.043807
 18   -0.602177 0.511412 -0.000006 0.000000 0.000000 0.000000
 19   3.673773 0.177020 1.119313 -0.000002 -0.000014 -0.174510
 20   3.673767 0.176993 -1.117566 0.000007 -0.000003 -0.174546
 21   3.942357 1.330634 1.627658 0.000002 -0.000011 -0.000026
 22   -0.246060 -0.011889 0.516521 -0.000011 0.000031 0.000025
 23   3.942374 1.330659 -1.631083 0.000019 0.000002 -0.000024
 24   -0.246150 -0.011872 -0.516511 -0.000005 -0.000006 0.000048
 25   4.941364 1.997338 1.629330 0.000018 -0.000001 -0.000024
 26   4.941382 1.997366 -1.629410 -0.000001 0.000005 -0.000024
 27   2.918368 1.615358 1.514501 -0.000019 -0.000022 -0.000050
 28   2.920798 1.614964 -1.501142 -0.000002 -0.000009 -0.000024
 29   8.824059 0.150544 0.091743 0.000006 -0.000231 -0.174534
 30   2.111085 -0.561179 1.784320 -0.000008 -0.000682 0.000024
 31   2.121290 -0.561289 -1.853599 0.000000 0.000000 -0.000002
 32   -0.810489 -0.093824 3.127092 3.071872 -0.114782 1.239365
 33   14.298673 -0.408176 0.475484 0.000248 0.000062 -1.896136
 34   15.835795 0.581398 0.242756 -0.214729 0.106889 -0.097869
 35   -0.815868 -0.091229 -3.114430 0.066464 3.132725 -1.010185
 36   14.294526 -0.410349 -0.463635 0.000033 -0.000000 -2.607695
 37   15.834409 0.579420 -0.284600 -0.006092 -0.035255 0.214458
 38   1.139685 -3.453749 -2.823813 0.000000 0.000000 0.000001
 39   -4.457742 -1.054854 -0.746180 0.000000 0.000000 0.000000
 40   1.118101 -3.449769 3.237290 0.000000 0.000001 0.000000
 41   -4.433840 -1.059130 0.959566 -0.000001 0.000000 0.000000
 42   -0.657468 1.697302 -2.688614 0.000000 0.000002 0.000000
 43   -0.664068 1.698578 2.869377 0.000000 0.000002 0.000000
time 16
  0   -0.967547 0.175787 -20.574476 0.000000 0.000000 -1.572114
  1   -1.093036 0.000002 -0.326057 -1.570809 -1.570703 0.000022
  2   2.262337 0.113614 0.064702 -0.000014 0.000037 0.133459
  3   2.380047 0.353302 0.047440 0.006210 -0.000675 0.183813
  4   2.033756 0.190472 -0.000128 -0.160442 0.050431 0.272480
  5   2.451511 0.204909 -0.003447 -0.143046 -0.010175 0.301754
  6   7.247600 -0.397300 -0.109469 -0.002372 -0.009351 0.497663
  7   -2.022252 -0.104661 3.136172 1.238875 -1.024594 -4.799459
  8   1.168026 -0.537438 -0.063437 -1.019214 0.279059 -1.008814
  9   6.790376 -0.619176 0.015206 0.056487 -0.142975 -0.740564
 10   8.637599 0.544015 -0.090417 -3.988461 0.202805 -0.503999
 11   6.790465 -0.619039 0.017802 0.028621 -0.115972 -0.531906
 12   -2.022474 -0.104699 -2.873818 -1.163239 1.764361 -4.903069
 13   1.167898 -0.537463 0.063297 0.539156 -0.722987 -1.057270
 14   7.002743 -0.617765 -0.183752 0.372284 -0.307693 -1.856950
 15   8.209042 0.615527 -0.255885 2.170120 0.452154 0.549949
 16   7.002735 -0.617911 -0.183641 0.217189 -0.285851 -1.296745
 17   1.574674 0.609930 -0.000899 0.254770 0.315535 -0.043807
 18   -0.602177 0.511412 -0.000006 0.000000 0.000000 0.000000
 19   3.673773 0.177020 1.119313 -0.000002 -0.000014 -0.174510
 20   3.673767 0.176993 -1.117566 0.000007 -0.000003 -0.174546
 21   3.942357 1.330634 1.627658 0.000002 -0.000011 -0.000026
 22   -0.246060 -0.011889 0.516521 -0.000011 0.000031 0.000025
 23   3.942374 1.330659 -1.631083 0.000019 0.000002 -0.000024
 24   -0.246150 -0.011872 -0.516511 -0.000005 -0.000006 0.000048
 25   4.941364 1.997338 1.629330 0.000018 -0.000001 -0.000024
 26   4.941382 1.997366 -1.629410 -0.000001 0.000005 -0.000024
 27   2.918368 1.615358 1.514501 -0.000019 -0.000022 -0.000050
 28   2.920798 1.614964 -1.501142 -0.000002 -0.000009 -0.000024
 29   8.824059 0.150544 0.091743 0.000006 -0.000231 -0.174534
 30   2.111085 -0.561179 1.784320 -0.000008 -0.000682 0.000024
 31   2.121290 -0.561289 -1.853599 0.000000 0.000000 -0.000002
 32   -0.810489 -0.093824 3.127092 3.071872 -0.114782 1.239365
 33   14.298673 -0.408176 0.475484 0.000248 0.000062 -1.896136
 34   15.835795 0.581398 0.242756 -0.214729 0.106889 -0.097869
 35   -0.815868 -0.091229 -3.114430 0.066464 3.132725 -1.010185
 36   14.294526 -0.410349 -0.463635 0.000033 -0.000000 -2.607695
 37   15.834409 0.579420 -0.284600 -0.006092 -0.035255 0.214458
 38   1.139685 -3.453749 -2.823813 0.000000 0.000000 0.000001
 39   -4.457742 -1.054854 -0.746180 0.000000 0.000000 0.000000
 40   1.118101 -3.449769 3.237290 0.000000 0.000001 0.000000
 41   -4.433840 -1.059130 0.959566 -0.000001 0.000000 0.000000
 42   -0.657468 1.697302 -2.688614 0.000000 0.000002 0.000000
 43   -0.664068 1.698578 2.869377 0.000000 0.000002 0.000000
time 17
  0   -0.967547 0.175787 -20.574476 0.000000 0.000000 -1.572114
  1   -1.093036 0.000002 -0.326057 -1.570809 -1.570703 0.000022
  2   2.262337 0.113614 0.064702 -0.000014 0.000037 0.133459
  3   2.380047 0.353302 0.047440 0.003585 -0.000412 0.180732
  4   2.033756 0.190472 -0.000128 -0.163061 0.050695 0.265847
  5   2.451511 0.204909 -0.003447 -0.146332 -0.008491 0.296851
  6   7.247600 -0.397300 -0.109469 -0.003582 -0.007409 0.496396
  7   -2.022252 -0.104661 3.136172 1.238875 -1.024594 -4.799459
  8   1.168026 -0.537438 -0.063437 -1.009975 0.290581 -1.034687
  9   6.790376 -0.619176 0.015206 0.056820 -0.134967 -0.666681
 10   8.637599 0.544015 -0.090417 -3.988461 0.202805 -0.503999
 11   6.790465 -0.619039 0.017802 0.030227 -0.109633 -0.480518
 12   -2.022474 -0.104699 -2.873818 -1.163239 1.764361 -4.903069
 13   1.167898 -0.537463 0.063297 0.514412 -0.731174 -1.032330
 14   7.002743 -0.617765 -0.183752 0.373081 -0.308261 -1.837644
 15   8.209042 0.615527 -0.255885 2.170120 0.452154 0.549949
 16   7.002735 -0.617911 -0.183641 0.218225 -0.285456 -1.283333
 17   1.574674 0.609930 -0.000899 0.254770 0.315535 -0.043807
 18   -0.602177 0.511412 -0.000006 0.000000 0.000000 0.000000
 19   3.673773 0.177020 1.119313 -0.000002 -0.000014 -0.174510
 20   3.673767 0.176993 -1.117566 0.000007 -0.000003 -0.174546
 21   3.942357 1.330634 1.627658 0.000002 -0.000011 -0.000026
 22   -0.246060 -0.011889 0.516521 -0.000011 0.000031 0.000025
 23   3.942374 1.330659 -1.631083 0.000019 0.000002 -0.000024
 24   -0.246150 -0.011872 -0.516511 -0.000005 -0.000006 0.000048
 25   4.941364 1.997338 1.629330 0.000018 -0.000001 -0.000024
 26   4.941382 1.997366 -1.629410 -0.000001 0.000005 -0.000024
 27   2.918368 1.615358 1.514501 -0.000019 -0.000022 -0.000050
 28   2.920798 1.614964 -1.501142 -0.000002 -0.000009 -0.000024
 29   8.824059 0.150544 0.091743 0.000006 -0.000231 -0.174534
 30   2.111085 -0.561179 1.784320 -0.000008 -0.000682 0.000024
 31   2.121290 -0.561289 -1.853599 0.000000 0.000000 -0.000002
 32   -0.810489 -0.093824 3.127092 3.071872 -0.114782 1.239365
 33   14.298673 -0.408176 0.475484 0.000248 0.000062 -1.896136
 34   15.835795 0.581398 0.242756 -0.214729 0.106889 -0.097869
 35   -0.815868 -0.091229 -3.114430 0.066464 3.132725 -1.010185
 36   14.294526 -0.410349 -0.463635 0.000033 -0.000000 -2.607695
 37   15.834409 0.579420 -0.284600 -0.006092 -0.035255 0.214458
 38   1.139685 -3.453749 -2.823813 0.000000 0.000000 0.000001
 39   -4.457742 -1.054854 -0.746180 0.000000 0.000000 0.000000
 40   1.118101 -3.449769 3.237290 0.000000 0.000001 0.000000
 41   -4.433840 -1.059130 0.959566 -0.000001 0.000000 0.000000
 42   -0.657468 1.697302 -2.688614 0.000000 0.000002 0.000000
 43   -0.664068 1.698578 2.869377 0.000000 0.000002 0.000000
time 18
  0   -0.967547 0.175787 -20.574476 0.000000 0.000000 -1.572114
  1   -1.093036 0.000002 -0.326057 -1.570809 -1.570703 0.000022
  2   2.262337 0.113614 0.064702 -0.000014 0.000037 0.133459
  3   2.380047 0.353302 0.047440 0.001605 -0.000196 0.178426
  4   2.033756 0.190472 -0.000128 -0.165071 0.050863 0.260953
  5   2.451511 0.204909 -0.003447 -0.148814 -0.007277 0.293087
  6   7.247600 -0.397300 -0.109469 -0.004553 -0.005983 0.495382
  7   -2.022252 -0.104661 3.136172 1.238875 -1.024594 -4.799459
  8   1.168026 -0.537438 -0.063437 -0.998711 0.322782 -1.059106
  9   6.790376 -0.619176 0.015206 0.057264 -0.126491 -0.595968
 10   8.637599 0.544015 -0.090417 -3.988461 0.202805 -0.503999
 11   6.790465 -0.619039 0.017802 0.031716 -0.103209 -0.431148
 12   -2.022474 -0.104699 -2.873818 -1.163239 1.764361 -4.903069
 13   1.167898 -0.537463 0.063297 0.470338 -0.748566 -0.996796
 14   7.002743 -0.617765 -0.183752 0.373992 -0.308374 -1.816935
 15   8.209042 0.615527 -0.255885 2.169976 0.452154 0.549949
 16   7.002735 -0.617911 -0.183641 0.219402 -0.284836 -1.268762
 17   1.574674 0.609930 -0.000899 0.254770 0.315535 -0.043807
 18   -0.602177 0.511412 -0.000006 0.000000 0.000000 0.000000
 19   3.673773 0.177020 1.119313 -0.000002 -0.000014 -0.174510
 20   3.673767 0.176993 -1.117566 0.000007 -0.000003 -0.174546
 21   3.942357 1.330634 1.627658 0.000002 -0.000011 -0.000026
 22   -0.246060 -0.011889 0.516521 -0.000011 0.000031 0.000025
 23   3.942374 1.330659 -1.631083 0.000019 0.000002 -0.000024
 24   -0.246150 -0.011872 -0.516511 -0.000005 -0.000006 0.000048
 25   4.941364 1.997338 1.629330 0.000018 -0.000001 -0.000024
 26   4.941382 1.997366 -1.629410 -0.000001 0.000005 -0.000024
 27   2.918368 1.615358 1.514501 -0.000019 -0.000022 -0.000050
 28   2.920798 1.614964 -1.501142 -0.000002 -0.000009 -0.000024
 29   8.824059 0.150544 0.091743 0.000006 -0.000231 -0.174534
 30   2.111085 -0.561179 1.784320 -0.000008 -0.000682 0.000024
 31   2.121290 -0.561289 -1.853599 0.000000 0.000000 -0.000002
 32   -0.810489 -0.093824 3.127092 3.071872 -0.114782 1.239365
 33   14.298673 -0.408176 0.475484 0.000248 0.000062 -1.896136
 34   15.835795 0.581398 0.242756 -0.214729 0.106889 -0.097869
 35   -0.815868 -0.091229 -3.114430 0.066464 3.132725 -1.010185
 36   14.294526 -0.410349 -0.463635 0.000033 -0.000000 -2.607695
 37   15.834409 0.579420 -0.284600 -0.006092 -0.035255 0.214458
 38   1.139685 -3.453749 -2.823813 0.000000 0.000000 0.000001
 39   -4.457742 -1.054854 -0.746180 0.000000 0.000000 0.000000
 40   1.118101 -3.449769 3.237290 0.000000 0.000001 0.000000
 41   -4.433840 -1.059130 0.959566 -0.000001 0.000000 0.000000
 42   -0.657468 1.697302 -2.688614 0.000000 0.000002 0.000000
 43   -0.664068 1.698578 2.869377 0.000000 0.000002 0.000000
time 19
  0   -0.967547 0.175787 -20.574476 0.000000 0.000000 -1.572114
  1   -1.093036 0.000002 -0.326057 -1.570809 -1.570703 0.000022
  2   2.262337 0.113614 0.064702 -0.000014 0.000037 0.133459
  3   2.380047 0.353302 0.047440 0.000345 -0.000076 0.176957
  4   2.033756 0.190472 -0.000128 -0.166362 0.050983 0.257727
  5   2.451511 0.204909 -0.003447 -0.150423 -0.006481 0.290684
  6   7.247600 -0.397300 -0.109469 -0.005152 -0.005072 0.494717
  7   -2.022252 -0.104661 3.136172 1.238875 -1.024594 -4.799459
  8   1.168026 -0.537438 -0.063437 -0.992193 0.352719 -1.081500
  9   6.790376 -0.619176 0.015206 0.057763 -0.118749 -0.534462
 10   8.637599 0.544015 -0.090417 -3.988461 0.202805 -0.503999
 11   6.790465 -0.619039 0.017802 0.033059 -0.097268 -0.388296
 12   -2.022474 -0.104699 -2.873818 -1.163239 1.764361 -4.903069
 13   1.167898 -0.537463 0.063297 0.428161 -0.765093 -0.964289
 14   7.002743 -0.617765 -0.183752 0.374675 -0.308601 -1.799609
 15   8.209042 0.615527 -0.255885 2.169976 0.452154 0.549949
 16   7.002735 -0.617911 -0.183641 0.220390 -0.284272 -1.256730
 17   1.574674 0.609930 -0.000899 0.254770 0.315535 -0.043807
 18   -0.602177 0.511412 -0.000006 0.000000 0.000000 0.000000
 19   3.673773 0.177020 1.119313 -0.000002 -0.000014 -0.174510
 20   3.673767 0.176993 -1.117566 0.000007 -0.000003 -0.174546
 21   3.942357 1.330634 1.627658 0.000002 -0.000011 -0.000026
 22   -0.246060 -0.011889 0.516521 -0.000011 0.000031 0.000025
 23   3.942374 1.330659 -1.631083 0.000019 0.000002 -0.000024
 24   -0.246150 -0.011872 -0.516511 -0.000005 -0.000006 0.000048
 25   4.941364 1.997338 1.629330 0.000018 -0.000001 -0.000024
 26   4.941382 1.997366 -1.629410 -0.000001 0.000005 -0.000024
 27   2.918368 1.615358 1.514501 -0.000019 -0.000022 -0.000050
 28   2.920798 1.614964 -1.501142 -0.000002 -0.000009 -0.000024
 29   8.824059 0.150544 0.091743 0.000006 -0.000231 -0.174534
 30   2.111085 -0.561179 1.784320 -0.000008 -0.000682 0.000024
 31   2.121290 -0.561289 -1.853599 0.000000 0.000000 -0.000002
 32   -0.810489 -0.093824 3.127092 3.071872 -0.114782 1.239365
 33   14.298673 -0.408176 0.475484 0.000248 0.000062 -1.896136
 34   15.835795 0.581398 0.242756 -0.214729 0.106889 -0.097869
 35   -0.815868 -0.091229 -3.114430 0.066464 3.132725 -1.010185
 36   14.294526 -0.410349 -0.463635 0.000033 -0.000000 -2.607695
 37   15.834409 0.579420 -0.284600 -0.006092 -0.035255 0.214458
 38   1.139685 -3.453749 -2.823813 0.000000 0.000000 0.000001
 39   -4.457742 -1.054854 -0.746180 0.000000 0.000000 0.000000
 40   1.118101 -3.449769 3.237290 0.000000 0.000001 0.000000
 41   -4.433840 -1.059130 0.959566 -0.000001 0.000000 0.000000
 42   -0.657468 1.697302 -2.688614 0.000000 0.000002 0.000000
 43   -0.664068 1.698578 2.869377 0.000000 0.000002 0.000000
time 20
  0   -0.967547 0.175787 -20.574476 0.000000 0.000000 -1.572114
  1   -1.093036 0.000002 -0.326057 -1.570809 -1.570703 0.000022
  2   2.262337 0.113614 0.064702 -0.000014 0.000037 0.133459
  3   2.380047 0.353302 0.047440 0.000000 -0.000028 0.176467
  4   2.033756 0.190472 -0.000128 -0.166768 0.050995 0.256749
  5   2.451511 0.204909 -0.003447 -0.151022 -0.006167 0.289917
  6   7.247600 -0.397300 -0.109469 -0.005368 -0.004797 0.494527
  7   -2.022252 -0.104661 3.136172 1.238875 -1.024594 -4.799459
  8   1.168026 -0.537438 -0.063437 -0.990801 0.364744 -1.092507
  9   6.790376 -0.619176 0.015206 0.057985 -0.114945 -0.504879
 10   8.637599 0.544015 -0.090417 -3.988461 0.202805 -0.503999
 11   6.790465 -0.619039 0.017802 0.033672 -0.094369 -0.367591
 12   -2.022474 -0.104699 -2.873818 -1.163239 1.764361 -4.903069
 13   1.167898 -0.537463 0.063297 0.410025 -0.772212 -0.950608
 14   7.002743 -0.617765 -0.183752 0.374959 -0.308772 -1.791441
 15   8.209042 0.615527 -0.255885 2.169976 0.452154 0.549949
 16   7.002735 -0.617911 -0.183641 0.220861 -0.283990 -1.251045
 17   1.574674 0.609930 -0.000899 0.254770 0.315535 -0.043807
 18   -0.602177 0.511412 -0.000006 0.000000 0.000000 0.000000
 19   3.673773 0.177020 1.119313 -0.000002 -0.000014 -0.174510
 20   3.673767 0.176993 -1.117566 0.000007 -0.000003 -0.174546
 21   3.942357 1.330634 1.627658 0.000002 -0.000011 -0.000026
 22   -0.246060 -0.011889 0.516521 -0.000011 0.000031 0.000025
 23   3.942374 1.330659 -1.631083 0.000019 0.000002 -0.000024
 24   -0.246150 -0.011872 -0.516511 -0.000005 -0.000006 0.000048
 25   4.941364 1.997338 1.629330 0.000018 -0.000001 -0.000024
 26   4.941382 1.997366 -1.629410 -0.000001 0.000005 -0.000024
 27   2.918368 1.615358 1.514501 -0.000019 -0.000022 -0.000050
 28   2.920798 1.614964 -1.501142 -0.000002 -0.000009 -0.000024
 29   8.824059 0.150544 0.091743 0.000006 -0.000231 -0.174534
 30   2.111085 -0.561179 1.784320 -0.000008 -0.000682 0.000024
 31   2.121290 -0.561289 -1.853599 0.000000 0.000000 -0.000002
 32   -0.810489 -0.093824 3.127092 3.071872 -0.114782 1.239365
 33   14.298673 -0.408176 0.475484 0.000248 0.000062 -1.896136
 34   15.835795 0.581398 0.242756 -0.214729 0.106889 -0.097869
 35   -0.815868 -0.091229 -3.114430 0.066464 3.132725 -1.010185
 36   14.294526 -0.410349 -0.463635 0.000033 -0.000000 -2.607695
 37   15.834409 0.579420 -0.284600 -0.006092 -0.035255 0.214458
 38   1.139685 -3.453749 -2.823813 0.000000 0.000000 0.000001
 39   -4.457742 -1.054854 -0.746180 0.000000 0.000000 0.000000
 40   1.118101 -3.449769 3.237290 0.000000 0.000001 0.000000
 41   -4.433840 -1.059130 0.959566 -0.000001 0.000000 0.000000
 42   -0.657468 1.697302 -2.688614 0.000000 0.000002 0.000000
 43   -0.664068 1.698578 2.869377 0.000000 0.000002 0.000000
end
