version 1
nodes
  0 "Bip01" -1
  1 "Bip01 Pelvis" 0
  2 "Bip01 Spine" 1
  3 "Bip01 Spine1" 2
  4 "Bip01 Spine2" 3
  5 "Bip01 Spine3" 4
  6 "Bip01 Neck" 5
  7 "Bip01 L Arm" 6
  8 "Bip01 L Arm1" 7
  9 "Bip01 L Arm2" 8
 10 "Bip01 L Hand" 9
 11 "Bip06 L elbow2-smooth" 8
 12 "Bip01 R Arm" 6
 13 "Bip01 R Arm1" 12
 14 "Bip01 R Arm2" 13
 15 "Bip01 R Hand" 14
 16 "Bip06 R elbow2-smooth" 13
 17 "Bip01 Head" 6
 18 "Bip06 Head_helper" 17
 19 "Bip06 Head_eyes_l" 18
 20 "Bip06 Head_eyes_r" 18
 21 "Bip06 Head_blink_l" 18
 22 "Bip06 Head_blink_smooth_l1" 21
 23 "Bip06 Head_blink_r" 18
 24 "Bip06 Head_blink_smooth_r1" 23
 25 "Bip06 Head_L_eyebrow" 18
 26 "Bip06 Head_R_eyebrow" 18
 27 "Bip06 Head_blink_l_lid" 18
 28 "Bip06 Head_blink_r_lid" 18
 29 "Bip06 bunny" 18
 30 "Bip06 bunnyL" 29
 31 "Bip06 bunnyR" 29
 32 "Bip01 L Leg" 1
 33 "Bip01 L Leg1" 32
 34 "Bip01 L Foot" 33
 35 "Bip01 R Leg" 1
 36 "Bip01 R Leg1" 35
 37 "Bip01 R Foot" 36
 38 "Bip03 HairR1" 17
 39 "Bip03 HairR2" 38
 40 "Bip03 HairL1" 17
 41 "Bip03 HairL2" 40
 42 "Bip03 swingR" 17
 43 "Bip03 swingL" 17
end
skeleton
time 0
  0   -0.967547 0.175787 -20.574476 0.000000 0.000000 -1.572114
  1   -1.093036 0.000002 -0.326057 -1.570809 -1.570703 0.000022
  2   2.262337 0.113614 0.064702 0.000292 0.000085 -0.267931
  3   2.380047 0.353302 0.047440 0.000000 -0.000028 -0.224951
  4   2.033756 0.190472 -0.000128 -0.177114 0.016791 -0.146572
  5   2.451511 0.204909 -0.003447 -0.148677 -0.036417 -0.112992
  6   7.247600 -0.397300 -0.109469 -0.005248 -0.005288 0.494432
  7   -2.022252 -0.104661 3.136172 1.238875 -1.024594 -4.799459
  8   1.168026 -0.537438 -0.063437 -1.120463 0.380090 -1.125972
  9   6.790376 -0.619176 0.015206 0.065031 -0.098259 -0.512803
 10   8.637599 0.544015 -0.090417 -3.988461 0.202805 -0.503999
 11   6.790465 -0.619039 0.017802 0.039336 -0.083084 -0.373300
 12   -2.022474 -0.104699 -2.873818 -1.163718 1.764361 -4.903451
 13   1.167898 -0.537463 0.063297 0.365951 -0.770127 -0.943465
 14   7.002743 -0.617765 -0.183752 0.370860 -0.275326 -1.775105
 15   8.209042 0.615527 -0.255885 2.263306 0.369685 0.522526
 16   7.002735 -0.617911 -0.183641 0.225710 -0.258615 -1.243594
 17   1.574674 0.609930 -0.000899 0.254770 0.315535 -0.043807
 18   -0.602177 0.511412 -0.000006 0.000000 0.000000 0.000000
 19   3.673773 0.177020 1.119313 -0.000002 -0.000014 -0.174510
 20   3.673767 0.176993 -1.117566 0.000007 -0.000003 -0.174546
 21   3.942357 1.330634 1.627658 0.000002 -0.000011 -0.000026
 22   -0.246060 -0.011889 0.516521 -0.000011 0.000031 0.000025
 23   3.942374 1.330659 -1.631083 0.000019 0.000002 -0.000024
 24   -0.246150 -0.011872 -0.516511 -0.000005 -0.000006 0.000048
 25   4.941364 1.997338 1.629330 0.000018 -0.000001 -0.000024
 26   4.941382 1.997366 -1.629410 -0.000001 0.000005 -0.000024
 27   2.918368 1.615358 1.514501 -0.000019 -0.000022 -0.000050
 28   2.920798 1.614964 -1.501142 -0.000002 -0.000009 -0.000024
 29   8.824059 0.150544 0.091743 0.000006 -0.000231 -0.174534
 30   2.111085 -0.561179 1.784320 -0.000008 -0.000682 0.000024
 31   2.121290 -0.561289 -1.853599 0.000000 0.000000 -0.000002
 32   -0.810489 -0.093824 3.127092 3.071872 -0.114782 1.239365
 33   14.298673 -0.408176 0.475484 0.000248 0.000062 -1.896136
 34   15.835795 0.581398 0.242756 -0.214729 0.106889 -0.097869
 35   -0.815868 -0.091229 -3.114430 0.066464 3.132725 -1.010185
 36   14.294526 -0.410349 -0.463635 0.000033 -0.000000 -2.607695
 37   15.834409 0.579420 -0.284600 -0.006092 -0.035255 0.214458
 38   1.139685 -3.453749 -2.823813 0.000000 0.000000 0.000001
 39   -4.457742 -1.054854 -0.746180 0.000000 0.000000 0.000000
 40   1.118101 -3.449769 3.237290 0.000000 0.000001 0.000000
 41   -4.433840 -1.059130 0.959566 -0.000001 0.000000 0.000000
 42   -0.657468 1.697302 -2.688614 0.000000 0.000002 0.000000
 43   -0.664068 1.698578 2.869377 0.000000 0.000002 0.000000
time 1
  0   -0.967547 0.175787 -20.574476 0.000000 0.000000 -1.572114
  1   -1.093036 0.000002 -0.326057 -1.570809 -1.570703 0.000022
  2   2.262337 0.113614 0.064702 0.000292 0.000085 -0.267931
  3   2.380047 0.353302 0.047440 -0.000375 0.001602 -0.219482
  4   2.033756 0.190472 -0.000128 -0.175233 0.015053 -0.160962
  5   2.451511 0.204909 -0.003447 -0.147787 -0.039381 -0.130031
  6   7.247600 -0.397300 -0.109469 -0.005248 -0.005288 0.494432
  7   -2.022252 -0.104661 3.136172 1.238875 -1.024594 -4.799459
  8   1.168026 -0.537438 -0.063437 -1.120463 0.380090 -1.125972
  9   6.790376 -0.619176 0.015206 0.065031 -0.098259 -0.512803
 10   8.637599 0.544015 -0.090417 -3.428809 0.321131 -0.579309
 11   6.790465 -0.619039 0.017802 0.039336 -0.083084 -0.373300
 12   -2.022474 -0.104699 -2.873818 -1.163718 1.764361 -4.903451
 13   1.167898 -0.537463 0.063297 0.365951 -0.770127 -0.943465
 14   7.002743 -0.617765 -0.183752 0.370860 -0.275326 -1.775105
 15   8.209042 0.615527 -0.255885 2.263306 0.369685 0.522526
 16   7.002735 -0.617911 -0.183641 0.225710 -0.258615 -1.243594
 17   1.574674 0.609930 -0.000899 0.254770 0.315535 -0.043807
 18   -0.602177 0.511412 -0.000006 0.000000 0.000000 0.000000
 19   3.673773 0.177020 1.119313 -0.000002 -0.000014 -0.174510
 20   3.673767 0.176993 -1.117566 0.000007 -0.000003 -0.174546
 21   3.942357 1.330634 1.627658 0.000002 -0.000011 -0.000026
 22   -0.246060 -0.011889 0.516521 -0.000011 0.000031 0.000025
 23   3.942374 1.330659 -1.631083 0.000019 0.000002 -0.000024
 24   -0.246150 -0.011872 -0.516511 -0.000005 -0.000006 0.000048
 25   4.941364 1.997338 1.629330 0.000018 -0.000001 -0.000024
 26   4.941382 1.997366 -1.629410 -0.000001 0.000005 -0.000024
 27   2.918368 1.615358 1.514501 -0.000019 -0.000022 -0.000050
 28   2.920798 1.614964 -1.501142 -0.000002 -0.000009 -0.000024
 29   8.824059 0.150544 0.091743 0.000006 -0.000231 -0.174534
 30   2.111085 -0.561179 1.784320 -0.000008 -0.000682 0.000024
 31   2.121290 -0.561289 -1.853599 0.000000 0.000000 -0.000002
 32   -0.810489 -0.093824 3.127092 3.071872 -0.114782 1.239365
 33   14.298673 -0.408176 0.475484 0.000248 0.000062 -1.896136
 34   15.835795 0.581398 0.242756 -0.214729 0.106889 -0.097869
 35   -0.815868 -0.091229 -3.114430 0.066464 3.132725 -1.010185
 36   14.294526 -0.410349 -0.463635 0.000033 -0.000000 -2.607695
 37   15.834409 0.579420 -0.284600 -0.006092 -0.035255 0.214458
 38   1.139685 -3.453749 -2.823813 0.000000 0.000000 0.000001
 39   -4.457742 -1.054854 -0.746180 0.000000 0.000000 0.000000
 40   1.118101 -3.449769 3.237290 0.000000 0.000001 0.000000
 41   -4.433840 -1.059130 0.959566 -0.000001 0.000000 0.000000
 42   -0.657468 1.697302 -2.688614 0.000000 0.000002 0.000000
 43   -0.664068 1.698578 2.869377 0.000000 0.000002 0.000000
time 2
  0   -0.967547 0.175787 -20.574476 0.000000 0.000000 -1.572114
  1   -1.093036 0.000002 -0.326057 -1.570809 -1.570703 0.000022
  2   2.262337 0.113614 0.064702 0.000292 0.000085 -0.267931
  3   2.380047 0.353302 0.047440 -0.000870 0.003340 -0.213544
  4   2.033756 0.190472 -0.000128 -0.173223 0.013195 -0.176548
  5   2.451511 0.204909 -0.003447 -0.146914 -0.042475 -0.147614
  6   7.247600 -0.397300 -0.109469 -0.005248 -0.005288 0.494432
  7   -2.022252 -0.104661 3.136172 1.238875 -1.024594 -4.799459
  8   1.168026 -0.537438 -0.063437 -1.120463 0.380090 -1.125972
  9   6.790376 -0.619176 0.015206 0.065031 -0.098259 -0.512803
 10   8.637599 0.544015 -0.090417 -2.850751 0.439528 -0.654692
 11   6.790465 -0.619039 0.017802 0.039336 -0.083084 -0.373300
 12   -2.022474 -0.104699 -2.873818 -1.163718 1.764361 -4.903451
 13   1.167898 -0.537463 0.063297 0.365951 -0.770127 -0.943465
 14   7.002743 -0.617765 -0.183752 0.370860 -0.275326 -1.775105
 15   8.209042 0.615527 -0.255885 2.263306 0.369685 0.522526
 16   7.002735 -0.617911 -0.183641 0.225710 -0.258615 -1.243594
 17   1.574674 0.609930 -0.000899 0.254770 0.315535 -0.043807
 18   -0.602177 0.511412 -0.000006 0.000000 0.000000 0.000000
 19   3.673773 0.177020 1.119313 -0.000002 -0.000014 -0.174510
 20   3.673767 0.176993 -1.117566 0.000007 -0.000003 -0.174546
 21   3.942357 1.330634 1.627658 0.000002 -0.000011 -0.000026
 22   -0.246060 -0.011889 0.516521 -0.000011 0.000031 0.000025
 23   3.942374 1.330659 -1.631083 0.000019 0.000002 -0.000024
 24   -0.246150 -0.011872 -0.516511 -0.000005 -0.000006 0.000048
 25   4.941364 1.997338 1.629330 0.000018 -0.000001 -0.000024
 26   4.941382 1.997366 -1.629410 -0.000001 0.000005 -0.000024
 27   2.918368 1.615358 1.514501 -0.000019 -0.000022 -0.000050
 28   2.920798 1.614964 -1.501142 -0.000002 -0.000009 -0.000024
 29   8.824059 0.150544 0.091743 0.000006 -0.000231 -0.174534
 30   2.111085 -0.561179 1.784320 -0.000008 -0.000682 0.000024
 31   2.121290 -0.561289 -1.853599 0.000000 0.000000 -0.000002
 32   -0.810489 -0.093824 3.127092 3.071872 -0.114782 1.239365
 33   14.298673 -0.408176 0.475484 0.000248 0.000062 -1.896136
 34   15.835795 0.581398 0.242756 -0.214729 0.106889 -0.097869
 35   -0.815868 -0.091229 -3.114430 0.066464 3.132725 -1.010185
 36   14.294526 -0.410349 -0.463635 0.000033 -0.000000 -2.607695
 37   15.834409 0.579420 -0.284600 -0.006092 -0.035255 0.214458
 38   1.139685 -3.453749 -2.823813 0.000000 0.000000 0.000001
 39   -4.457742 -1.054854 -0.746180 0.000000 0.000000 0.000000
 40   1.118101 -3.449769 3.237290 0.000000 0.000001 0.000000
 41   -4.433840 -1.059130 0.959566 -0.000001 0.000000 0.000000
 42   -0.657468 1.697302 -2.688614 0.000000 0.000002 0.000000
 43   -0.664068 1.698578 2.869377 0.000000 0.000002 0.000000
time 3
  0   -0.967547 0.175787 -20.574476 0.000000 0.000000 -1.572114
  1   -1.093036 0.000002 -0.326057 -1.570809 -1.570703 0.000022
  2   2.262337 0.113614 0.064702 0.000292 0.000085 -0.267931
  3   2.380047 0.353302 0.047440 -0.001365 0.005029 -0.207606
  4   2.033756 0.190472 -0.000128 -0.171231 0.011433 -0.191373
  5   2.451511 0.204909 -0.003447 -0.145887 -0.045478 -0.164826
  6   7.247600 -0.397300 -0.109469 -0.002947 -0.001933 0.536276
  7   -2.022252 -0.104661 3.136172 1.238875 -1.024594 -4.799459
  8   1.168026 -0.537438 -0.063437 -1.117552 0.409675 -1.133437
  9   6.790376 -0.619176 0.015206 0.065142 -0.096458 -0.500200
 10   8.637599 0.544015 -0.090417 -2.815525 0.434671 -0.642538
 11   6.790465 -0.619039 0.017802 0.039599 -0.081748 -0.364534
 12   -2.022474 -0.104699 -2.873818 -1.163718 1.764361 -4.903451
 13   1.167898 -0.537463 0.063297 0.365951 -0.770127 -0.943465
 14   7.002743 -0.617765 -0.183752 0.370860 -0.275326 -1.775105
 15   8.209042 0.615527 -0.255885 2.263306 0.369685 0.522526
 16   7.002735 -0.617911 -0.183641 0.225710 -0.258615 -1.243594
 17   1.574674 0.609930 -0.000899 0.254770 0.315535 -0.043807
 18   -0.602177 0.511412 -0.000006 0.000000 0.000000 0.000000
 19   3.673773 0.177020 1.119313 -0.000002 -0.000014 -0.174510
 20   3.673767 0.176993 -1.117566 0.000007 -0.000003 -0.174546
 21   3.942357 1.330634 1.627658 0.000002 -0.000011 -0.000026
 22   -0.246060 -0.011889 0.516521 -0.000011 0.000031 0.000025
 23   3.942374 1.330659 -1.631083 0.000019 0.000002 -0.000024
 24   -0.246150 -0.011872 -0.516511 -0.000005 -0.000006 0.000048
 25   4.941364 1.997338 1.629330 0.000018 -0.000001 -0.000024
 26   4.941382 1.997366 -1.629410 -0.000001 0.000005 -0.000024
 27   2.918368 1.615358 1.514501 -0.000019 -0.000022 -0.000050
 28   2.920798 1.614964 -1.501142 -0.000002 -0.000009 -0.000024
 29   8.824059 0.150544 0.091743 0.000006 -0.000231 -0.174534
 30   2.111085 -0.561179 1.784320 -0.000008 -0.000682 0.000024
 31   2.121290 -0.561289 -1.853599 0.000000 0.000000 -0.000002
 32   -0.810489 -0.093824 3.127092 3.071872 -0.114782 1.239365
 33   14.298673 -0.408176 0.475484 0.000248 0.000062 -1.896136
 34   15.835795 0.581398 0.242756 -0.214729 0.106889 -0.097869
 35   -0.815868 -0.091229 -3.114430 0.066464 3.132725 -1.010185
 36   14.294526 -0.410349 -0.463635 0.000033 -0.000000 -2.607695
 37   15.834409 0.579420 -0.284600 -0.006092 -0.035255 0.214458
 38   1.139685 -3.453749 -2.823813 0.000000 0.000000 0.000001
 39   -4.457742 -1.054854 -0.746180 0.000000 0.000000 0.000000
 40   1.118101 -3.449769 3.237290 0.000000 0.000001 0.000000
 41   -4.433840 -1.059130 0.959566 -0.000001 0.000000 0.000000
 42   -0.657468 1.697302 -2.688614 0.000000 0.000002 0.000000
 43   -0.664068 1.698578 2.869377 0.000000 0.000002 0.000000
time 4
  0   -0.967547 0.175787 -20.574476 0.000000 0.000000 -1.572114
  1   -1.093036 0.000002 -0.326057 -1.570809 -1.570703 0.000022
  2   2.262337 0.113614 0.064702 0.000292 0.000085 -0.267931
  3   2.380047 0.353302 0.047440 -0.001800 0.006707 -0.202117
  4   2.033756 0.190472 -0.000128 -0.169516 0.009995 -0.204132
  5   2.451511 0.204909 -0.003447 -0.145014 -0.048115 -0.180775
  6   7.247600 -0.397300 -0.109469 -0.000478 0.001231 0.578215
  7   -2.022252 -0.104661 3.136172 1.238875 -1.024594 -4.799459
  8   1.168026 -0.537438 -0.063437 -1.116476 0.460191 -1.166775
  9   6.790376 -0.619176 0.015206 0.065475 -0.087715 -0.438090
 10   8.637599 0.544015 -0.090417 -2.783822 0.421578 -0.609549
 11   6.790465 -0.619039 0.017802 0.040533 -0.075125 -0.321220
 12   -2.022474 -0.104699 -2.873818 -1.163718 1.764361 -4.903451
 13   1.167898 -0.537463 0.063297 0.365740 -0.767686 -0.936261
 14   7.002743 -0.617765 -0.183752 0.370291 -0.275780 -1.786078
 15   8.209042 0.615527 -0.255885 2.263306 0.369685 0.522526
 16   7.002735 -0.617911 -0.183641 0.224956 -0.259292 -1.251211
 17   1.574674 0.609930 -0.000899 0.254770 0.315535 -0.043807
 18   -0.602177 0.511412 -0.000006 0.000000 0.000000 0.000000
 19   3.673773 0.177020 1.119313 -0.000002 -0.000014 -0.174510
 20   3.673767 0.176993 -1.117566 0.000007 -0.000003 -0.174546
 21   3.942357 1.330634 1.627658 0.000002 -0.000011 -0.000026
 22   -0.246060 -0.011889 0.516521 -0.000011 0.000031 0.000025
 23   3.942374 1.330659 -1.631083 0.000019 0.000002 -0.000024
 24   -0.246150 -0.011872 -0.516511 -0.000005 -0.000006 0.000048
 25   4.941364 1.997338 1.629330 0.000018 -0.000001 -0.000024
 26   4.941382 1.997366 -1.629410 -0.000001 0.000005 -0.000024
 27   2.918368 1.615358 1.514501 -0.000019 -0.000022 -0.000050
 28   2.920798 1.614964 -1.501142 -0.000002 -0.000009 -0.000024
 29   8.824059 0.150544 0.091743 0.000006 -0.000231 -0.174534
 30   2.111085 -0.561179 1.784320 -0.000008 -0.000682 0.000024
 31   2.121290 -0.561289 -1.853599 0.000000 0.000000 -0.000002
 32   -0.810489 -0.093824 3.127092 3.071872 -0.114782 1.239365
 33   14.298673 -0.408176 0.475484 0.000248 0.000062 -1.896136
 34   15.835795 0.581398 0.242756 -0.214729 0.106889 -0.097869
 35   -0.815868 -0.091229 -3.114430 0.066464 3.132725 -1.010185
 36   14.294526 -0.410349 -0.463635 0.000033 -0.000000 -2.607695
 37   15.834409 0.579420 -0.284600 -0.006092 -0.035255 0.214458
 38   1.139685 -3.453749 -2.823813 0.000000 0.000000 0.000001
 39   -4.457742 -1.054854 -0.746180 0.000000 0.000000 0.000000
 40   1.118101 -3.449769 3.237290 0.000000 0.000001 0.000000
 41   -4.433840 -1.059130 0.959566 -0.000001 0.000000 0.000000
 42   -0.657468 1.697302 -2.688614 0.000000 0.000002 0.000000
 43   -0.664068 1.698578 2.869377 0.000000 0.000002 0.000000
time 5
  0   -0.967547 0.175787 -20.574476 0.000000 0.000000 -1.572114
  1   -1.093036 0.000002 -0.326057 -1.570809 -1.570703 0.000022
  2   2.262337 0.113614 0.064702 0.000292 0.000085 -0.267931
  3   2.380047 0.353302 0.047440 -0.002190 0.008086 -0.197342
  4   2.033756 0.190472 -0.000128 -0.168317 0.008977 -0.213266
  5   2.451511 0.204909 -0.003447 -0.144124 -0.050256 -0.194669
  6   7.247600 -0.397300 -0.109469 0.001966 0.004431 0.620154
  7   -2.022252 -0.104661 3.136172 1.238875 -1.024594 -4.799459
  8   1.168026 -0.537438 -0.063437 -1.129765 0.479008 -1.240663
  9   6.790376 -0.619176 0.015206 0.066307 -0.063888 -0.279080
 10   8.637599 0.544015 -0.090417 -2.755377 0.402995 -0.561874
 11   6.790465 -0.619039 0.017802 0.042577 -0.057160 -0.210253
 12   -2.022474 -0.104699 -2.873818 -1.163718 1.764361 -4.903451
 13   1.167898 -0.537463 0.063297 0.479265 -0.724461 -1.024763
 14   7.002743 -0.617765 -0.183752 0.373081 -0.272259 -1.727829
 15   8.209042 0.615527 -0.255885 2.263306 0.369685 0.522526
 16   7.002735 -0.617911 -0.183641 0.229240 -0.254612 -1.210975
 17   1.574674 0.609930 -0.000899 0.254770 0.315535 -0.043807
 18   -0.602177 0.511412 -0.000006 0.000000 0.000000 0.000000
 19   3.673773 0.177020 1.119313 -0.000002 -0.000014 -0.174510
 20   3.673767 0.176993 -1.117566 0.000007 -0.000003 -0.174546
 21   3.942357 1.330634 1.627658 0.000002 -0.000011 -0.000026
 22   -0.246060 -0.011889 0.516521 -0.000011 0.000031 0.000025
 23   3.942374 1.330659 -1.631083 0.000019 0.000002 -0.000024
 24   -0.246150 -0.011872 -0.516511 -0.000005 -0.000006 0.000048
 25   4.941364 1.997338 1.629330 0.000018 -0.000001 -0.000024
 26   4.941382 1.997366 -1.629410 -0.000001 0.000005 -0.000024
 27   2.918368 1.615358 1.514501 -0.000019 -0.000022 -0.000050
 28   2.920798 1.614964 -1.501142 -0.000002 -0.000009 -0.000024
 29   8.824059 0.150544 0.091743 0.000006 -0.000231 -0.174534
 30   2.111085 -0.561179 1.784320 -0.000008 -0.000682 0.000024
 31   2.121290 -0.561289 -1.853599 0.000000 0.000000 -0.000002
 32   -0.810489 -0.093824 3.127092 3.071872 -0.114782 1.239365
 33   14.298673 -0.408176 0.475484 0.000248 0.000062 -1.896136
 34   15.835795 0.581398 0.242756 -0.214729 0.106889 -0.097869
 35   -0.815868 -0.091229 -3.114430 0.066464 3.132725 -1.010185
 36   14.294526 -0.410349 -0.463635 0.000033 -0.000000 -2.607695
 37   15.834409 0.579420 -0.284600 -0.006092 -0.035255 0.214458
 38   1.139685 -3.453749 -2.823813 0.000000 0.000000 0.000001
 39   -4.457742 -1.054854 -0.746180 0.000000 0.000000 0.000000
 40   1.118101 -3.449769 3.237290 0.000000 0.000001 0.000000
 41   -4.433840 -1.059130 0.959566 -0.000001 0.000000 0.000000
 42   -0.657468 1.697302 -2.688614 0.000000 0.000002 0.000000
 43   -0.664068 1.698578 2.869377 0.000000 0.000002 0.000000
time 6
  0   -0.967547 0.175787 -20.574476 0.000000 0.000000 -1.572114
  1   -1.093036 0.000002 -0.326057 -1.570809 -1.570703 0.000022
  2   2.262337 0.113614 0.064702 0.000292 0.000085 -0.267931
  3   2.380047 0.353302 0.047440 -0.002475 0.009164 -0.193812
  4   2.033756 0.190472 -0.000128 -0.167598 0.008341 -0.218558
  5   2.451511 0.204909 -0.003447 -0.143388 -0.051927 -0.207893
  6   7.247600 -0.397300 -0.109469 0.004735 0.007499 0.662093
  7   -2.022252 -0.104661 3.136172 1.238875 -1.024594 -4.799459
  8   1.168026 -0.537438 -0.063437 -1.078381 0.841070 -1.007738
  9   6.790376 -0.619176 0.015206 0.064088 -0.131963 -0.786448
 10   8.637599 0.544015 -0.090417 -2.730983 0.380752 -0.505735
 11   6.790465 -0.619039 0.017802 0.034285 -0.109150 -0.564147
 12   -2.022474 -0.104699 -2.873818 -1.163718 1.764361 -4.903451
 13   1.167898 -0.537463 0.063297 0.675315 -0.620975 -1.172468
 14   7.002743 -0.617765 -0.183752 0.378432 -0.259767 -1.601101
 15   8.209042 0.615527 -0.255885 2.263306 0.369685 0.522526
 16   7.002735 -0.617911 -0.183641 0.238702 -0.240853 -1.123991
 17   1.574674 0.609930 -0.000899 0.254770 0.315535 -0.043807
 18   -0.602177 0.511412 -0.000006 0.000000 0.000000 0.000000
 19   3.673773 0.177020 1.119313 -0.000002 -0.000014 -0.174510
 20   3.673767 0.176993 -1.117566 0.000007 -0.000003 -0.174546
 21   3.942357 1.330634 1.627658 0.000002 -0.000011 -0.000026
 22   -0.246060 -0.011889 0.516521 -0.000011 0.000031 0.000025
 23   3.942374 1.330659 -1.631083 0.000019 0.000002 -0.000024
 24   -0.246150 -0.011872 -0.516511 -0.000005 -0.000006 0.000048
 25   4.941364 1.997338 1.629330 0.000018 -0.000001 -0.000024
 26   4.941382 1.997366 -1.629410 -0.000001 0.000005 -0.000024
 27   2.918368 1.615358 1.514501 -0.000019 -0.000022 -0.000050
 28   2.920798 1.614964 -1.501142 -0.000002 -0.000009 -0.000024
 29   8.824059 0.150544 0.091743 0.000006 -0.000231 -0.174534
 30   2.111085 -0.561179 1.784320 -0.000008 -0.000682 0.000024
 31   2.121290 -0.561289 -1.853599 0.000000 0.000000 -0.000002
 32   -0.810489 -0.093824 3.127092 3.071872 -0.114782 1.239365
 33   14.298673 -0.408176 0.475484 0.000248 0.000062 -1.896136
 34   15.835795 0.581398 0.242756 -0.214729 0.106889 -0.097869
 35   -0.815868 -0.091229 -3.114430 0.066464 3.132725 -1.010185
 36   14.294526 -0.410349 -0.463635 0.000033 -0.000000 -2.607695
 37   15.834409 0.579420 -0.284600 -0.006092 -0.035255 0.214458
 38   1.139685 -3.453749 -2.823813 0.000000 0.000000 0.000001
 39   -4.457742 -1.054854 -0.746180 0.000000 0.000000 0.000000
 40   1.118101 -3.449769 3.237290 0.000000 0.000001 0.000000
 41   -4.433840 -1.059130 0.959566 -0.000001 0.000000 0.000000
 42   -0.657468 1.697302 -2.688614 0.000000 0.000002 0.000000
 43   -0.664068 1.698578 2.869377 0.000000 0.000002 0.000000
time 7
  0   -0.967547 0.175787 -20.574476 0.000000 0.000000 -1.572114
  1   -1.093036 0.000002 -0.326057 -1.570809 -1.570703 0.000022
  2   2.262337 0.113614 0.064702 0.000292 0.000085 -0.267931
  3   2.380047 0.353302 0.047440 -0.002685 0.009895 -0.191404
  4   2.033756 0.190472 -0.000128 -0.167229 0.008090 -0.221204
  5   2.451511 0.204909 -0.003447 -0.142635 -0.053089 -0.220152
  6   7.247600 -0.397300 -0.109469 0.007527 0.010484 0.704063
  7   -2.022252 -0.104661 3.136172 1.238875 -1.024594 -4.799459
  8   1.168026 -0.537438 -0.063437 -0.864936 1.202729 -0.623621
  9   6.790376 -0.619176 0.015206 0.063977 -0.165200 -1.200236
 10   8.637599 0.544015 -0.090417 -2.710200 0.357523 -0.446268
 11   6.790465 -0.619039 0.017802 0.026081 -0.136580 -0.852406
 12   -2.022474 -0.104699 -2.873818 -1.163718 1.764361 -4.903451
 13   1.167898 -0.537463 0.063297 0.785607 -0.539611 -1.202614
 14   7.002743 -0.617765 -0.183752 0.379059 -0.257609 -1.584600
 15   8.209042 0.615527 -0.255885 2.263306 0.369685 0.522526
 16   7.002735 -0.617911 -0.183641 0.239926 -0.238654 -1.112677
 17   1.574674 0.609930 -0.000899 0.254770 0.315535 -0.043807
 18   -0.602177 0.511412 -0.000006 0.000000 0.000000 0.000000
 19   3.673773 0.177020 1.119313 -0.000002 -0.000014 -0.174510
 20   3.673767 0.176993 -1.117566 0.000007 -0.000003 -0.174546
 21   3.942357 1.330634 1.627658 0.000002 -0.000011 -0.000026
 22   -0.246060 -0.011889 0.516521 -0.000011 0.000031 0.000025
 23   3.942374 1.330659 -1.631083 0.000019 0.000002 -0.000024
 24   -0.246150 -0.011872 -0.516511 -0.000005 -0.000006 0.000048
 25   4.941364 1.997338 1.629330 0.000018 -0.000001 -0.000024
 26   4.941382 1.997366 -1.629410 -0.000001 0.000005 -0.000024
 27   2.918368 1.615358 1.514501 -0.000019 -0.000022 -0.000050
 28   2.920798 1.614964 -1.501142 -0.000002 -0.000009 -0.000024
 29   8.824059 0.150544 0.091743 0.000006 -0.000231 -0.174534
 30   2.111085 -0.561179 1.784320 -0.000008 -0.000682 0.000024
 31   2.121290 -0.561289 -1.853599 0.000000 0.000000 -0.000002
 32   -0.810489 -0.093824 3.127092 3.071872 -0.114782 1.239365
 33   14.298673 -0.408176 0.475484 0.000248 0.000062 -1.896136
 34   15.835795 0.581398 0.242756 -0.214729 0.106889 -0.097869
 35   -0.815868 -0.091229 -3.114430 0.066464 3.132725 -1.010185
 36   14.294526 -0.410349 -0.463635 0.000033 -0.000000 -2.607695
 37   15.834409 0.579420 -0.284600 -0.006092 -0.035255 0.214458
 38   1.139685 -3.453749 -2.823813 0.000000 0.000000 0.000001
 39   -4.457742 -1.054854 -0.746180 0.000000 0.000000 0.000000
 40   1.118101 -3.449769 3.237290 0.000000 0.000001 0.000000
 41   -4.433840 -1.059130 0.959566 -0.000001 0.000000 0.000000
 42   -0.657468 1.697302 -2.688614 0.000000 0.000002 0.000000
 43   -0.664068 1.698578 2.869377 0.000000 0.000002 0.000000
time 8
  0   -0.967547 0.175787 -20.574476 0.000000 0.000000 -1.572114
  1   -1.093036 0.000002 -0.326057 -1.570809 -1.570703 0.000022
  2   2.262337 0.113614 0.064702 0.000292 0.000085 -0.267931
  3   2.380047 0.353302 0.047440 -0.002805 0.010339 -0.189935
  4   2.033756 0.190472 -0.000128 -0.167229 0.008090 -0.221204
  5   2.451511 0.204909 -0.003447 -0.142224 -0.053481 -0.227260
  6   7.247600 -0.397300 -0.109469 0.007527 0.010484 0.704063
  7   -2.022252 -0.104661 3.136172 1.238875 -1.024594 -4.799459
  8   1.168026 -0.537438 -0.063437 0.242219 1.483332 0.521772
  9   6.790376 -0.619176 0.015206 0.065031 -0.173009 -1.484522
 10   8.637599 0.544015 -0.090417 -2.693908 0.335139 -0.389984
 11   6.790465 -0.619039 0.017802 0.021555 -0.145534 -1.050577
 12   -2.022474 -0.104699 -2.873818 -1.163718 1.764361 -4.903451
 13   1.167898 -0.537463 0.063297 0.812459 -0.517795 -1.106848
 14   7.002743 -0.617765 -0.183752 0.374049 -0.270896 -1.707533
 15   8.209042 0.615527 -0.255885 2.263306 0.369685 0.522526
 16   7.002735 -0.617911 -0.183641 0.230700 -0.252920 -1.197067
 17   1.574674 0.609930 -0.000899 0.257694 0.309784 -0.021039
 18   -0.602177 0.511412 -0.000006 0.000000 0.000000 0.000000
 19   3.673773 0.177020 1.119313 -0.000002 -0.000014 -0.174510
 20   3.673767 0.176993 -1.117566 0.000007 -0.000003 -0.174546
 21   3.942357 1.330634 1.627658 0.000002 -0.000011 -0.000026
 22   -0.246060 -0.011889 0.516521 -0.000011 0.000031 0.000025
 23   3.942374 1.330659 -1.631083 0.000019 0.000002 -0.000024
 24   -0.246150 -0.011872 -0.516511 -0.000005 -0.000006 0.000048
 25   4.941364 1.997338 1.629330 0.000018 -0.000001 -0.000024
 26   4.941382 1.997366 -1.629410 -0.000001 0.000005 -0.000024
 27   2.918368 1.615358 1.514501 -0.000019 -0.000022 -0.000050
 28   2.920798 1.614964 -1.501142 -0.000002 -0.000009 -0.000024
 29   8.824059 0.150544 0.091743 0.000006 -0.000231 -0.174534
 30   2.111085 -0.561179 1.784320 -0.000008 -0.000682 0.000024
 31   2.121290 -0.561289 -1.853599 0.000000 0.000000 -0.000002
 32   -0.810489 -0.093824 3.127092 3.071872 -0.114782 1.239365
 33   14.298673 -0.408176 0.475484 0.000248 0.000062 -1.896136
 34   15.835795 0.581398 0.242756 -0.214729 0.106889 -0.097869
 35   -0.815868 -0.091229 -3.114430 0.066464 3.132725 -1.010185
 36   14.294526 -0.410349 -0.463635 0.000033 -0.000000 -2.607695
 37   15.834409 0.579420 -0.284600 -0.006092 -0.035255 0.214458
 38   1.139685 -3.453749 -2.823813 0.000000 0.000000 0.000001
 39   -4.457742 -1.054854 -0.746180 0.000000 0.000000 0.000000
 40   1.118101 -3.449769 3.237290 0.000000 0.000001 0.000000
 41   -4.433840 -1.059130 0.959566 -0.000001 0.000000 0.000000
 42   -0.657468 1.697302 -2.688614 0.000000 0.000002 0.000000
 43   -0.664068 1.698578 2.869377 0.000000 0.000002 0.000000
time 9
  0   -0.967547 0.175787 -20.574476 0.000000 0.000000 -1.572114
  1   -1.093036 0.000002 -0.326057 -1.570809 -1.570703 0.000022
  2   2.262337 0.113614 0.064702 0.000292 0.000085 -0.267931
  3   2.380047 0.353302 0.047440 -0.002820 0.010411 -0.189690
  4   2.033756 0.190472 -0.000128 -0.167598 0.008341 -0.218558
  5   2.451511 0.204909 -0.003447 -0.142378 -0.052802 -0.225105
  6   7.247600 -0.397300 -0.109469 0.007527 0.010484 0.704063
  7   -2.022252 -0.104661 3.136172 1.238875 -1.024594 -4.799459
  8   1.168026 -0.537438 -0.063437 -1.150774 1.889167 -0.790059
  9   6.790376 -0.619176 0.015206 0.065142 -0.173009 -1.515690
 10   8.637599 0.544015 -0.090417 -2.681931 0.316626 -0.342237
 11   6.790465 -0.619039 0.017802 0.021205 -0.145932 -1.072378
 12   -2.022474 -0.104699 -2.873818 -1.163718 1.764361 -4.903451
 13   1.167898 -0.537463 0.063297 0.831298 -0.502539 -0.980028
 14   7.002743 -0.617765 -0.183752 0.367957 -0.277200 -1.830301
 15   8.209042 0.615527 -0.255885 2.263306 0.369685 0.522526
 16   7.002735 -0.617911 -0.183641 0.221802 -0.261942 -1.281898
 17   1.574674 0.609930 -0.000899 0.264762 0.295300 0.033146
 18   -0.602177 0.511412 -0.000006 0.000000 0.000000 0.000000
 19   3.673773 0.177020 1.119313 -0.000002 -0.000014 -0.174510
 20   3.673767 0.176993 -1.117566 0.000007 -0.000003 -0.174546
 21   3.942357 1.330634 1.627658 0.000002 -0.000011 -0.000026
 22   -0.246060 -0.011889 0.516521 -0.000011 0.000031 0.000025
 23   3.942374 1.330659 -1.631083 0.000019 0.000002 -0.000024
 24   -0.246150 -0.011872 -0.516511 -0.000005 -0.000006 0.000048
 25   4.941364 1.997338 1.629330 0.000018 -0.000001 -0.000024
 26   4.941382 1.997366 -1.629410 -0.000001 0.000005 -0.000024
 27   2.918368 1.615358 1.514501 -0.000019 -0.000022 -0.000050
 28   2.920798 1.614964 -1.501142 -0.000002 -0.000009 -0.000024
 29   8.824059 0.150544 0.091743 0.000006 -0.000231 -0.174534
 30   2.111085 -0.561179 1.784320 -0.000008 -0.000682 0.000024
 31   2.121290 -0.561289 -1.853599 0.000000 0.000000 -0.000002
 32   -0.810489 -0.093824 3.127092 3.071872 -0.114782 1.239365
 33   14.298673 -0.408176 0.475484 0.000248 0.000062 -1.896136
 34   15.835795 0.581398 0.242756 -0.214729 0.106889 -0.097869
 35   -0.815868 -0.091229 -3.114430 0.066464 3.132725 -1.010185
 36   14.294526 -0.410349 -0.463635 0.000033 -0.000000 -2.607695
 37   15.834409 0.579420 -0.284600 -0.006092 -0.035255 0.214458
 38   1.139685 -3.453749 -2.823813 0.000000 0.000000 0.000001
 39   -4.457742 -1.054854 -0.746180 0.000000 0.000000 0.000000
 40   1.118101 -3.449769 3.237290 0.000000 0.000001 0.000000
 41   -4.433840 -1.059130 0.959566 -0.000001 0.000000 0.000000
 42   -0.657468 1.697302 -2.688614 0.000000 0.000002 0.000000
 43   -0.664068 1.698578 2.869377 0.000000 0.000002 0.000000
time 10
  0   -0.967547 0.175787 -20.574476 0.000000 0.000000 -1.572114
  1   -1.093036 0.000002 -0.326057 -1.570809 -1.570703 0.000022
  2   2.262337 0.113614 0.064702 0.000292 0.000085 -0.267931
  3   2.380047 0.353302 0.047440 -0.002715 0.010075 -0.190894
  4   2.033756 0.190472 -0.000128 -0.168317 0.008977 -0.213266
  5   2.451511 0.204909 -0.003447 -0.143114 -0.050935 -0.212648
  6   7.247600 -0.397300 -0.109469 0.007527 0.010484 0.704063
  7   -2.022252 -0.104661 3.136172 1.238875 -1.024594 -4.799459
  8   1.168026 -0.537438 -0.063437 -1.066864 2.062550 -0.549037
  9   6.790376 -0.619176 0.015206 0.064199 -0.168136 -1.268383
 10   8.637599 0.544015 -0.090417 -2.674357 0.303463 -0.309610
 11   6.790465 -0.619039 0.017802 0.024825 -0.139508 -0.899930
 12   -2.022474 -0.104699 -2.873818 -1.163718 1.764361 -4.903451
 13   1.167898 -0.537463 0.063297 0.831790 -0.490995 -0.856537
 14   7.002743 -0.617765 -0.183752 0.363231 -0.277540 -1.913054
 15   8.209042 0.615527 -0.255885 2.263306 0.369685 0.522526
 16   7.002735 -0.617911 -0.183641 0.216154 -0.265156 -1.339409
 17   1.574674 0.609930 -0.000899 0.273414 0.276248 0.097976
 18   -0.602177 0.511412 -0.000006 0.000000 0.000000 0.000000
 19   3.673773 0.177020 1.119313 -0.000002 -0.000014 -0.174510
 20   3.673767 0.176993 -1.117566 0.000007 -0.000003 -0.174546
 21   3.942357 1.330634 1.627658 0.000002 -0.000011 -0.000026
 22   -0.246060 -0.011889 0.516521 -0.000011 0.000031 0.000025
 23   3.942374 1.330659 -1.631083 0.000019 0.000002 -0.000024
 24   -0.246150 -0.011872 -0.516511 -0.000005 -0.000006 0.000048
 25   4.941364 1.997338 1.629330 0.000018 -0.000001 -0.000024
 26   4.941382 1.997366 -1.629410 -0.000001 0.000005 -0.000024
 27   2.918368 1.615358 1.514501 -0.000019 -0.000022 -0.000050
 28   2.920798 1.614964 -1.501142 -0.000002 -0.000009 -0.000024
 29   8.824059 0.150544 0.091743 0.000006 -0.000231 -0.174534
 30   2.111085 -0.561179 1.784320 -0.000008 -0.000682 0.000024
 31   2.121290 -0.561289 -1.853599 0.000000 0.000000 -0.000002
 32   -0.810489 -0.093824 3.127092 3.071872 -0.114782 1.239365
 33   14.298673 -0.408176 0.475484 0.000248 0.000062 -1.896136
 34   15.835795 0.581398 0.242756 -0.214729 0.106889 -0.097869
 35   -0.815868 -0.091229 -3.114430 0.066464 3.132725 -1.010185
 36   14.294526 -0.410349 -0.463635 0.000033 -0.000000 -2.607695
 37   15.834409 0.579420 -0.284600 -0.006092 -0.035255 0.214458
 38   1.139685 -3.453749 -2.823813 0.000000 0.000000 0.000001
 39   -4.457742 -1.054854 -0.746180 0.000000 0.000000 0.000000
 40   1.118101 -3.449769 3.237290 0.000000 0.000001 0.000000
 41   -4.433840 -1.059130 0.959566 -0.000001 0.000000 0.000000
 42   -0.657468 1.697302 -2.688614 0.000000 0.000002 0.000000
 43   -0.664068 1.698578 2.869377 0.000000 0.000002 0.000000
time 11
  0   -0.967547 0.175787 -20.574476 0.000000 0.000000 -1.572114
  1   -1.093036 0.000002 -0.326057 -1.570809 -1.570703 0.000022
  2   2.262337 0.113614 0.064702 0.000292 0.000085 -0.267931
  3   2.380047 0.353302 0.047440 -0.002475 0.009164 -0.193812
  4   2.033756 0.190472 -0.000128 -0.169682 0.010079 -0.203117
  5   2.451511 0.204909 -0.003447 -0.144381 -0.048128 -0.193430
  6   7.247600 -0.397300 -0.109469 0.007527 0.010484 0.704063
  7   -2.022252 -0.104661 3.136172 1.238875 -1.024594 -4.799459
  8   1.168026 -0.537438 -0.063437 -1.101352 2.082877 -0.494380
  9   6.790376 -0.619176 0.015206 0.063866 -0.157391 -1.070885
 10   8.637599 0.544015 -0.090417 -2.672068 0.298747 -0.297094
 11   6.790465 -0.619039 0.017802 0.028592 -0.129815 -0.762260
 12   -2.022474 -0.104699 -2.873818 -1.163718 1.764361 -4.903451
 13   1.167898 -0.537463 0.063297 0.814568 -0.479248 -0.759742
 14   7.002743 -0.617765 -0.183752 0.361182 -0.276689 -1.947871
 15   8.209042 0.615527 -0.255885 2.263306 0.369685 0.522526
 16   7.002735 -0.617911 -0.183641 0.213941 -0.265720 -1.363804
 17   1.574674 0.609930 -0.000899 0.280563 0.256912 0.152235
 18   -0.602177 0.511412 -0.000006 0.000000 0.000000 0.000000
 19   3.673773 0.177020 1.119313 -0.000002 -0.000014 -0.174510
 20   3.673767 0.176993 -1.117566 0.000007 -0.000003 -0.174546
 21   3.942357 1.330634 1.627658 0.000002 -0.000011 -0.000026
 22   -0.246060 -0.011889 0.516521 -0.000011 0.000031 0.000025
 23   3.942374 1.330659 -1.631083 0.000019 0.000002 -0.000024
 24   -0.246150 -0.011872 -0.516511 -0.000005 -0.000006 0.000048
 25   4.941364 1.997338 1.629330 0.000018 -0.000001 -0.000024
 26   4.941382 1.997366 -1.629410 -0.000001 0.000005 -0.000024
 27   2.918368 1.615358 1.514501 -0.000019 -0.000022 -0.000050
 28   2.920798 1.614964 -1.501142 -0.000002 -0.000009 -0.000024
 29   8.824059 0.150544 0.091743 0.000006 -0.000231 -0.174534
 30   2.111085 -0.561179 1.784320 -0.000008 -0.000682 0.000024
 31   2.121290 -0.561289 -1.853599 0.000000 0.000000 -0.000002
 32   -0.810489 -0.093824 3.127092 3.071872 -0.114782 1.239365
 33   14.298673 -0.408176 0.475484 0.000248 0.000062 -1.896136
 34   15.835795 0.581398 0.242756 -0.214729 0.106889 -0.097869
 35   -0.815868 -0.091229 -3.114430 0.066464 3.132725 -1.010185
 36   14.294526 -0.410349 -0.463635 0.000033 -0.000000 -2.607695
 37   15.834409 0.579420 -0.284600 -0.006092 -0.035255 0.214458
 38   1.139685 -3.453749 -2.823813 0.000000 0.000000 0.000001
 39   -4.457742 -1.054854 -0.746180 0.000000 0.000000 0.000000
 40   1.118101 -3.449769 3.237290 0.000000 0.000001 0.000000
 41   -4.433840 -1.059130 0.959566 -0.000001 0.000000 0.000000
 42   -0.657468 1.697302 -2.688614 0.000000 0.000002 0.000000
 43   -0.664068 1.698578 2.869377 0.000000 0.000002 0.000000
time 12
  0   -0.967547 0.175787 -20.574476 0.000000 0.000000 -1.572114
  1   -1.093036 0.000002 -0.326057 -1.570809 -1.570703 0.000022
  2   2.262337 0.113614 0.064702 0.000292 0.000085 -0.267931
  3   2.380047 0.353302 0.047440 -0.001755 0.006480 -0.202872
  4   2.033756 0.190472 -0.000128 -0.171692 0.011865 -0.188292
  5   2.451511 0.204909 -0.003447 -0.145699 -0.044838 -0.170745
  6   7.247600 -0.397300 -0.109469 0.007527 0.010484 0.704063
  7   -2.022252 -0.104661 3.136172 1.238875 -1.024594 -4.799459
  8   1.168026 -0.537438 -0.063437 -1.225318 2.071456 -0.625329
  9   6.790376 -0.619176 0.015206 0.063977 -0.165734 -1.210047
 10   8.637599 0.544015 -0.090417 -2.673829 0.304871 -0.312431
 11   6.790465 -0.619039 0.017802 0.025906 -0.137092 -0.859327
 12   -2.022474 -0.104699 -2.873818 -1.163718 1.764361 -4.903451
 13   1.167898 -0.537463 0.063297 0.795237 -0.467908 -0.700539
 14   7.002743 -0.617765 -0.183752 0.361011 -0.276575 -1.951749
 15   8.209042 0.615527 -0.255885 2.263306 0.369685 0.522526
 16   7.002735 -0.617911 -0.183641 0.213706 -0.265833 -1.366453
 17   1.574674 0.609930 -0.000899 0.283529 0.241363 0.174744
 18   -0.602177 0.511412 -0.000006 0.000000 0.000000 0.000000
 19   3.673773 0.177020 1.119313 -0.000002 -0.000014 -0.174510
 20   3.673767 0.176993 -1.117566 0.000007 -0.000003 -0.174546
 21   3.942357 1.330634 1.627658 0.000002 -0.000011 -0.000026
 22   -0.246060 -0.011889 0.516521 -0.000011 0.000031 0.000025
 23   3.942374 1.330659 -1.631083 0.000019 0.000002 -0.000024
 24   -0.246150 -0.011872 -0.516511 -0.000005 -0.000006 0.000048
 25   4.941364 1.997338 1.629330 0.000018 -0.000001 -0.000024
 26   4.941382 1.997366 -1.629410 -0.000001 0.000005 -0.000024
 27   2.918368 1.615358 1.514501 -0.000019 -0.000022 -0.000050
 28   2.920798 1.614964 -1.501142 -0.000002 -0.000009 -0.000024
 29   8.824059 0.150544 0.091743 0.000006 -0.000231 -0.174534
 30   2.111085 -0.561179 1.784320 -0.000008 -0.000682 0.000024
 31   2.121290 -0.561289 -1.853599 0.000000 0.000000 -0.000002
 32   -0.810489 -0.093824 3.127092 3.071872 -0.114782 1.239365
 33   14.298673 -0.408176 0.475484 0.000248 0.000062 -1.896136
 34   15.835795 0.581398 0.242756 -0.214729 0.106889 -0.097869
 35   -0.815868 -0.091229 -3.114430 0.066464 3.132725 -1.010185
 36   14.294526 -0.410349 -0.463635 0.000033 -0.000000 -2.607695
 37   15.834409 0.579420 -0.284600 -0.006092 -0.035255 0.214458
 38   1.139685 -3.453749 -2.823813 0.000000 0.000000 0.000001
 39   -4.457742 -1.054854 -0.746180 0.000000 0.000000 0.000000
 40   1.118101 -3.449769 3.237290 0.000000 0.000001 0.000000
 41   -4.433840 -1.059130 0.959566 -0.000001 0.000000 0.000000
 42   -0.657468 1.697302 -2.688614 0.000000 0.000002 0.000000
 43   -0.664068 1.698578 2.869377 0.000000 0.000002 0.000000
time 13
  0   -0.967547 0.175787 -20.574476 0.000000 0.000000 -1.572114
  1   -1.093036 0.000002 -0.326057 -1.570809 -1.570703 0.000022
  2   2.262337 0.113614 0.064702 0.000292 0.000085 -0.267931
  3   2.380047 0.353302 0.047440 -0.000660 0.002549 -0.216258
  4   2.033756 0.190472 -0.000128 -0.173813 0.013770 -0.171691
  5   2.451511 0.204909 -0.003447 -0.146914 -0.041496 -0.147614
  6   7.247600 -0.397300 -0.109469 0.004735 0.007499 0.662093
  7   -2.022252 -0.104661 3.136172 1.238875 -1.024594 -4.799459
  8   1.168026 -0.537438 -0.063437 -1.446357 2.018676 -0.877801
  9   6.790376 -0.619176 0.015206 0.064809 -0.172742 -1.459844
 10   8.637599 0.544015 -0.090417 -2.679377 0.320709 -0.352944
 11   6.790465 -0.619039 0.017802 0.021906 -0.145051 -1.033390
 12   -2.022474 -0.104699 -2.873818 -1.163718 1.764361 -4.903451
 13   1.167898 -0.537463 0.063297 0.716086 -0.471824 -0.651869
 14   7.002743 -0.617765 -0.183752 0.362491 -0.277427 -1.925347
 15   8.209042 0.615527 -0.255885 2.263306 0.369685 0.522526
 16   7.002735 -0.617911 -0.183641 0.215353 -0.265551 -1.348019
 17   1.574674 0.609930 -0.000899 0.253998 0.228370 0.171417
 18   -0.602177 0.511412 -0.000006 0.000000 0.000000 0.000000
 19   3.673773 0.177020 1.119313 -0.000002 -0.000014 -0.174510
 20   3.673767 0.176993 -1.117566 0.000007 -0.000003 -0.174546
 21   3.942357 1.330634 1.627658 0.000002 -0.000011 -0.000026
 22   -0.246060 -0.011889 0.516521 -0.000011 0.000031 0.000025
 23   3.942374 1.330659 -1.631083 0.000019 0.000002 -0.000024
 24   -0.246150 -0.011872 -0.516511 -0.000005 -0.000006 0.000048
 25   4.941364 1.997338 1.629330 0.000018 -0.000001 -0.000024
 26   4.941382 1.997366 -1.629410 -0.000001 0.000005 -0.000024
 27   2.918368 1.615358 1.514501 -0.000019 -0.000022 -0.000050
 28   2.920798 1.614964 -1.501142 -0.000002 -0.000009 -0.000024
 29   8.824059 0.150544 0.091743 0.000006 -0.000231 -0.174534
 30   2.111085 -0.561179 1.784320 -0.000008 -0.000682 0.000024
 31   2.121290 -0.561289 -1.853599 0.000000 0.000000 -0.000002
 32   -0.810489 -0.093824 3.127092 3.071872 -0.114782 1.239365
 33   14.298673 -0.408176 0.475484 0.000248 0.000062 -1.896136
 34   15.835795 0.581398 0.242756 -0.214729 0.106889 -0.097869
 35   -0.815868 -0.091229 -3.114430 0.066464 3.132725 -1.010185
 36   14.294526 -0.410349 -0.463635 0.000033 -0.000000 -2.607695
 37   15.834409 0.579420 -0.284600 -0.006092 -0.035255 0.214458
 38   1.139685 -3.453749 -2.823813 0.000000 0.000000 0.000001
 39   -4.457742 -1.054854 -0.746180 0.000000 0.000000 0.000000
 40   1.118101 -3.449769 3.237290 0.000000 0.000001 0.000000
 41   -4.433840 -1.059130 0.959566 -0.000001 0.000000 0.000000
 42   -0.657468 1.697302 -2.688614 0.000000 0.000002 0.000000
 43   -0.664068 1.698578 2.869377 0.000000 0.000002 0.000000
time 14
  0   -0.967547 0.175787 -20.574476 0.000000 0.000000 -1.572114
  1   -1.093036 0.000002 -0.326057 -1.570809 -1.570703 0.000022
  2   2.262337 0.113614 0.064702 0.000292 0.000085 -0.267931
  3   2.380047 0.353302 0.047440 0.000000 -0.000028 -0.224951
  4   2.033756 0.190472 -0.000128 -0.175731 0.015532 -0.156721
  5   2.451511 0.204909 -0.003447 -0.147941 -0.038519 -0.127381
  6   7.247600 -0.397300 -0.109469 0.001966 0.004431 0.620154
  7   -2.022252 -0.104661 3.136172 1.238875 -1.024594 -4.799459
  8   1.168026 -0.537438 -0.063437 1.330390 1.216616 1.884085
  9   6.790376 -0.619176 0.015206 0.065586 -0.172007 -1.621722
 10   8.637599 0.544015 -0.090417 -2.690385 0.343234 -0.410313
 11   6.790465 -0.619039 0.017802 0.020212 -0.146586 -1.146375
 12   -2.022474 -0.104699 -2.873818 -1.163718 1.764361 -4.903451
 13   1.167898 -0.537463 0.063297 0.594336 -0.492673 -0.615548
 14   7.002743 -0.617765 -0.183752 0.365850 -0.277711 -1.868336
 15   8.209042 0.615527 -0.255885 2.263306 0.369685 0.522526
 16   7.002735 -0.617911 -0.183641 0.219166 -0.263690 -1.308280
 17   1.574674 0.609930 -0.000899 0.180232 0.214809 0.162695
 18   -0.602177 0.511412 -0.000006 0.000000 0.000000 0.000000
 19   3.673773 0.177020 1.119313 -0.000002 -0.000014 -0.174510
 20   3.673767 0.176993 -1.117566 0.000007 -0.000003 -0.174546
 21   3.942357 1.330634 1.627658 0.000002 -0.000011 -0.000026
 22   -0.246060 -0.011889 0.516521 -0.000011 0.000031 0.000025
 23   3.942374 1.330659 -1.631083 0.000019 0.000002 -0.000024
 24   -0.246150 -0.011872 -0.516511 -0.000005 -0.000006 0.000048
 25   4.941364 1.997338 1.629330 0.000018 -0.000001 -0.000024
 26   4.941382 1.997366 -1.629410 -0.000001 0.000005 -0.000024
 27   2.918368 1.615358 1.514501 -0.000019 -0.000022 -0.000050
 28   2.920798 1.614964 -1.501142 -0.000002 -0.000009 -0.000024
 29   8.824059 0.150544 0.091743 0.000006 -0.000231 -0.174534
 30   2.111085 -0.561179 1.784320 -0.000008 -0.000682 0.000024
 31   2.121290 -0.561289 -1.853599 0.000000 0.000000 -0.000002
 32   -0.810489 -0.093824 3.127092 3.071872 -0.114782 1.239365
 33   14.298673 -0.408176 0.475484 0.000248 0.000062 -1.896136
 34   15.835795 0.581398 0.242756 -0.214729 0.106889 -0.097869
 35   -0.815868 -0.091229 -3.114430 0.066464 3.132725 -1.010185
 36   14.294526 -0.410349 -0.463635 0.000033 -0.000000 -2.607695
 37   15.834409 0.579420 -0.284600 -0.006092 -0.035255 0.214458
 38   1.139685 -3.453749 -2.823813 0.000000 0.000000 0.000001
 39   -4.457742 -1.054854 -0.746180 0.000000 0.000000 0.000000
 40   1.118101 -3.449769 3.237290 0.000000 0.000001 0.000000
 41   -4.433840 -1.059130 0.959566 -0.000001 0.000000 0.000000
 42   -0.657468 1.697302 -2.688614 0.000000 0.000002 0.000000
 43   -0.664068 1.698578 2.869377 0.000000 0.000002 0.000000
time 15
  0   -0.967547 0.175787 -20.574476 0.000000 0.000000 -1.572114
  1   -1.093036 0.000002 -0.326057 -1.570809 -1.570703 0.000022
  2   2.262337 0.113614 0.064702 0.000292 0.000085 -0.267931
  3   2.380047 0.353302 0.047440 0.000105 -0.000627 -0.227318
  4   2.033756 0.190472 -0.000128 -0.177114 0.016791 -0.146572
  5   2.451511 0.204909 -0.003447 -0.148677 -0.036417 -0.112992
  6   7.247600 -0.397300 -0.109469 -0.000478 0.001231 0.578215
  7   -2.022252 -0.104661 3.136172 1.238875 -1.024594 -4.799459
  8   1.168026 -0.537438 -0.063437 0.661262 1.363584 1.105666
  9   6.790376 -0.619176 0.015206 0.065974 -0.170205 -1.700057
 10   8.637599 0.544015 -0.090417 -2.706853 0.369208 -0.476074
 11   6.790465 -0.619039 0.017802 0.019716 -0.146330 -1.201223
 12   -2.022474 -0.104699 -2.873818 -1.163718 1.764361 -4.903451
 13   1.167898 -0.537463 0.063297 0.521512 -0.516727 -0.618696
 14   7.002743 -0.617765 -0.183752 0.368982 -0.276575 -1.810417
 15   8.209042 0.615527 -0.255885 2.263306 0.369685 0.522526
 16   7.002735 -0.617911 -0.183641 0.223215 -0.260758 -1.267934
 17   1.574674 0.609930 -0.000899 0.084368 0.201934 0.149056
 18   -0.602177 0.511412 -0.000006 0.000000 0.000000 0.000000
 19   3.673773 0.177020 1.119313 -0.000002 -0.000014 -0.174510
 20   3.673767 0.176993 -1.117566 0.000007 -0.000003 -0.174546
 21   3.942357 1.330634 1.627658 0.000002 -0.000011 -0.000026
 22   -0.246060 -0.011889 0.516521 -0.000011 0.000031 0.000025
 23   3.942374 1.330659 -1.631083 0.000019 0.000002 -0.000024
 24   -0.246150 -0.011872 -0.516511 -0.000005 -0.000006 0.000048
 25   4.941364 1.997338 1.629330 0.000018 -0.000001 -0.000024
 26   4.941382 1.997366 -1.629410 -0.000001 0.000005 -0.000024
 27   2.918368 1.615358 1.514501 -0.000019 -0.000022 -0.000050
 28   2.920798 1.614964 -1.501142 -0.000002 -0.000009 -0.000024
 29   8.824059 0.150544 0.091743 0.000006 -0.000231 -0.174534
 30   2.111085 -0.561179 1.784320 -0.000008 -0.000682 0.000024
 31   2.121290 -0.561289 -1.853599 0.000000 0.000000 -0.000002
 32   -0.810489 -0.093824 3.127092 3.071872 -0.114782 1.239365
 33   14.298673 -0.408176 0.475484 0.000248 0.000062 -1.896136
 34   15.835795 0.581398 0.242756 -0.214729 0.106889 -0.097869
 35   -0.815868 -0.091229 -3.114430 0.066464 3.132725 -1.010185
 36   14.294526 -0.410349 -0.463635 0.000033 -0.000000 -2.607695
 37   15.834409 0.579420 -0.284600 -0.006092 -0.035255 0.214458
 38   1.139685 -3.453749 -2.823813 0.000000 0.000000 0.000001
 39   -4.457742 -1.054854 -0.746180 0.000000 0.000000 0.000000
 40   1.118101 -3.449769 3.237290 0.000000 0.000001 0.000000
 41   -4.433840 -1.059130 0.959566 -0.000001 0.000000 0.000000
 42   -0.657468 1.697302 -2.688614 0.000000 0.000002 0.000000
 43   -0.664068 1.698578 2.869377 0.000000 0.000002 0.000000
time 16
  0   -0.967547 0.175787 -20.574476 0.000000 0.000000 -1.572114
  1   -1.093036 0.000002 -0.326057 -1.570809 -1.570703 0.000022
  2   2.262337 0.113614 0.064702 0.000292 0.000085 -0.267931
  3   2.380047 0.353302 0.047440 0.000165 -0.000891 -0.228032
  4   2.033756 0.190472 -0.000128 -0.177649 0.017342 -0.142295
  5   2.451511 0.204909 -0.003447 -0.149054 -0.035425 -0.106479
  6   7.247600 -0.397300 -0.109469 -0.002947 -0.001933 0.536276
  7   -2.022252 -0.104661 3.136172 1.238875 -1.024594 -4.799459
  8   1.168026 -0.537438 -0.063437 -0.830891 1.193572 -0.627037
  9   6.790376 -0.619176 0.015206 0.064809 -0.172808 -1.462410
 10   8.637599 0.544015 -0.090417 -2.730367 0.395041 -0.541618
 11   6.790465 -0.619039 0.017802 0.021847 -0.145108 -1.035293
 12   -2.022474 -0.104699 -2.873818 -1.163718 1.764361 -4.903451
 13   1.167898 -0.537463 0.063297 0.469916 -0.581717 -0.672814
 14   7.002743 -0.617765 -0.183752 0.367387 -0.277427 -1.839129
 15   8.209042 0.615527 -0.255885 2.263306 0.369685 0.522526
 16   7.002735 -0.617911 -0.183641 0.221190 -0.262393 -1.287914
 17   1.574674 0.609930 -0.000899 -0.011374 0.191142 0.132202
 18   -0.602177 0.511412 -0.000006 0.000000 0.000000 0.000000
 19   3.673773 0.177020 1.119313 -0.000002 -0.000014 -0.174510
 20   3.673767 0.176993 -1.117566 0.000007 -0.000003 -0.174546
 21   3.942357 1.330634 1.627658 0.000002 -0.000011 -0.000026
 22   -0.246060 -0.011889 0.516521 -0.000011 0.000031 0.000025
 23   3.942374 1.330659 -1.631083 0.000019 0.000002 -0.000024
 24   -0.246150 -0.011872 -0.516511 -0.000005 -0.000006 0.000048
 25   4.941364 1.997338 1.629330 0.000018 -0.000001 -0.000024
 26   4.941382 1.997366 -1.629410 -0.000001 0.000005 -0.000024
 27   2.918368 1.615358 1.514501 -0.000019 -0.000022 -0.000050
 28   2.920798 1.614964 -1.501142 -0.000002 -0.000009 -0.000024
 29   8.824059 0.150544 0.091743 0.000006 -0.000231 -0.174534
 30   2.111085 -0.561179 1.784320 -0.000008 -0.000682 0.000024
 31   2.121290 -0.561289 -1.853599 0.000000 0.000000 -0.000002
 32   -0.810489 -0.093824 3.127092 3.071872 -0.114782 1.239365
 33   14.298673 -0.408176 0.475484 0.000248 0.000062 -1.896136
 34   15.835795 0.581398 0.242756 -0.214729 0.106889 -0.097869
 35   -0.815868 -0.091229 -3.114430 0.066464 3.132725 -1.010185
 36   14.294526 -0.410349 -0.463635 0.000033 -0.000000 -2.607695
 37   15.834409 0.579420 -0.284600 -0.006092 -0.035255 0.214458
 38   1.139685 -3.453749 -2.823813 0.000000 0.000000 0.000001
 39   -4.457742 -1.054854 -0.746180 0.000000 0.000000 0.000000
 40   1.118101 -3.449769 3.237290 0.000000 0.000001 0.000000
 41   -4.433840 -1.059130 0.959566 -0.000001 0.000000 0.000000
 42   -0.657468 1.697302 -2.688614 0.000000 0.000002 0.000000
 43   -0.664068 1.698578 2.869377 0.000000 0.000002 0.000000
time 17
  0   -0.967547 0.175787 -20.574476 0.000000 0.000000 -1.572114
  1   -1.093036 0.000002 -0.326057 -1.570809 -1.570703 0.000022
  2   2.262337 0.113614 0.064702 0.000292 0.000085 -0.267931
  3   2.380047 0.353302 0.047440 0.000120 -0.000711 -0.227522
  4   2.033756 0.190472 -0.000128 -0.177649 0.017414 -0.141715
  5   2.451511 0.204909 -0.003447 -0.149088 -0.035307 -0.105637
  6   7.247600 -0.397300 -0.109469 -0.005248 -0.005288 0.494432
  7   -2.022252 -0.104661 3.136172 1.238875 -1.024594 -4.799459
  8   1.168026 -0.537438 -0.063437 -1.089392 0.740995 -1.123631
  9   6.790376 -0.619176 0.015206 0.063977 -0.136168 -0.826446
 10   8.637599 0.544015 -0.090417 -2.761365 0.417355 -0.598842
 11   6.790465 -0.619039 0.017802 0.033526 -0.112447 -0.592004
 12   -2.022474 -0.104699 -2.873818 -1.163718 1.764361 -4.903451
 13   1.167898 -0.537463 0.063297 0.400606 -0.679660 -0.773362
 14   7.002743 -0.617765 -0.183752 0.364199 -0.277654 -1.896965
 15   8.209042 0.615527 -0.255885 2.263306 0.369685 0.522526
 16   7.002735 -0.617911 -0.183641 0.217236 -0.264705 -1.328094
 17   1.574674 0.609930 -0.000899 -0.085140 0.183687 0.113315
 18   -0.602177 0.511412 -0.000006 0.000000 0.000000 0.000000
 19   3.673773 0.177020 1.119313 -0.000002 -0.000014 -0.174510
 20   3.673767 0.176993 -1.117566 0.000007 -0.000003 -0.174546
 21   3.942357 1.330634 1.627658 0.000002 -0.000011 -0.000026
 22   -0.246060 -0.011889 0.516521 -0.000011 0.000031 0.000025
 23   3.942374 1.330659 -1.631083 0.000019 0.000002 -0.000024
 24   -0.246150 -0.011872 -0.516511 -0.000005 -0.000006 0.000048
 25   4.941364 1.997338 1.629330 0.000018 -0.000001 -0.000024
 26   4.941382 1.997366 -1.629410 -0.000001 0.000005 -0.000024
 27   2.918368 1.615358 1.514501 -0.000019 -0.000022 -0.000050
 28   2.920798 1.614964 -1.501142 -0.000002 -0.000009 -0.000024
 29   8.824059 0.150544 0.091743 0.000006 -0.000231 -0.174534
 30   2.111085 -0.561179 1.784320 -0.000008 -0.000682 0.000024
 31   2.121290 -0.561289 -1.853599 0.000000 0.000000 -0.000002
 32   -0.810489 -0.093824 3.127092 3.071872 -0.114782 1.239365
 33   14.298673 -0.408176 0.475484 0.000248 0.000062 -1.896136
 34   15.835795 0.581398 0.242756 -0.214729 0.106889 -0.097869
 35   -0.815868 -0.091229 -3.114430 0.066464 3.132725 -1.010185
 36   14.294526 -0.410349 -0.463635 0.000033 -0.000000 -2.607695
 37   15.834409 0.579420 -0.284600 -0.006092 -0.035255 0.214458
 38   1.139685 -3.453749 -2.823813 0.000000 0.000000 0.000001
 39   -4.457742 -1.054854 -0.746180 0.000000 0.000000 0.000000
 40   1.118101 -3.449769 3.237290 0.000000 0.000001 0.000000
 41   -4.433840 -1.059130 0.959566 -0.000001 0.000000 0.000000
 42   -0.657468 1.697302 -2.688614 0.000000 0.000002 0.000000
 43   -0.664068 1.698578 2.869377 0.000000 0.000002 0.000000
time 18
  0   -0.967547 0.175787 -20.574476 0.000000 0.000000 -1.572114
  1   -1.093036 0.000002 -0.326057 -1.570809 -1.570703 0.000022
  2   2.262337 0.113614 0.064702 0.000292 0.000085 -0.267931
  3   2.380047 0.353302 0.047440 0.000030 -0.000412 -0.226461
  4   2.033756 0.190472 -0.000128 -0.177483 0.017186 -0.143346
  5   2.451511 0.204909 -0.003447 -0.148968 -0.035673 -0.108113
  6   7.247600 -0.397300 -0.109469 -0.005248 -0.005288 0.494432
  7   -2.022252 -0.104661 3.136172 1.238875 -1.024594 -4.799459
  8   1.168026 -0.537438 -0.063437 -1.133182 0.313323 -1.366235
  9   6.790376 -0.619176 0.015206 0.067916 -0.022776 -0.020528
 10   8.637599 0.544015 -0.090417 -2.801259 0.433474 -0.639355
 11   6.790465 -0.619039 0.017802 0.044358 -0.026233 -0.029731
 12   -2.022474 -0.104699 -2.873818 -1.163718 1.764361 -4.903451
 13   1.167898 -0.537463 0.063297 0.366865 -0.733971 -0.852360
 14   7.002743 -0.617765 -0.183752 0.364256 -0.277711 -1.894820
 15   8.209042 0.615527 -0.255885 2.263306 0.369685 0.522526
 16   7.002735 -0.617911 -0.183641 0.217377 -0.264536 -1.326604
 17   1.574674 0.609930 -0.000899 -0.114711 0.180918 0.093430
 18   -0.602177 0.511412 -0.000006 0.000000 0.000000 0.000000
 19   3.673773 0.177020 1.119313 -0.000002 -0.000014 -0.174510
 20   3.673767 0.176993 -1.117566 0.000007 -0.000003 -0.174546
 21   3.942357 1.330634 1.627658 0.000002 -0.000011 -0.000026
 22   -0.246060 -0.011889 0.516521 -0.000011 0.000031 0.000025
 23   3.942374 1.330659 -1.631083 0.000019 0.000002 -0.000024
 24   -0.246150 -0.011872 -0.516511 -0.000005 -0.000006 0.000048
 25   4.941364 1.997338 1.629330 0.000018 -0.000001 -0.000024
 26   4.941382 1.997366 -1.629410 -0.000001 0.000005 -0.000024
 27   2.918368 1.615358 1.514501 -0.000019 -0.000022 -0.000050
 28   2.920798 1.614964 -1.501142 -0.000002 -0.000009 -0.000024
 29   8.824059 0.150544 0.091743 0.000006 -0.000231 -0.174534
 30   2.111085 -0.561179 1.784320 -0.000008 -0.000682 0.000024
 31   2.121290 -0.561289 -1.853599 0.000000 0.000000 -0.000002
 32   -0.810489 -0.093824 3.127092 3.071872 -0.114782 1.239365
 33   14.298673 -0.408176 0.475484 0.000248 0.000062 -1.896136
 34   15.835795 0.581398 0.242756 -0.214729 0.106889 -0.097869
 35   -0.815868 -0.091229 -3.114430 0.066464 3.132725 -1.010185
 36   14.294526 -0.410349 -0.463635 0.000033 -0.000000 -2.607695
 37   15.834409 0.579420 -0.284600 -0.006092 -0.035255 0.214458
 38   1.139685 -3.453749 -2.823813 0.000000 0.000000 0.000001
 39   -4.457742 -1.054854 -0.746180 0.000000 0.000000 0.000000
 40   1.118101 -3.449769 3.237290 0.000000 0.000001 0.000000
 41   -4.433840 -1.059130 0.959566 -0.000001 0.000000 0.000000
 42   -0.657468 1.697302 -2.688614 0.000000 0.000002 0.000000
 43   -0.664068 1.698578 2.869377 0.000000 0.000002 0.000000
time 19
  0   -0.967547 0.175787 -20.574476 0.000000 0.000000 -1.572114
  1   -1.093036 0.000002 -0.326057 -1.570809 -1.570703 0.000022
  2   2.262337 0.113614 0.064702 0.000292 0.000085 -0.267931
  3   2.380047 0.353302 0.047440 0.000000 -0.000124 -0.225420
  4   2.033756 0.190472 -0.000128 -0.177225 0.016874 -0.145557
  5   2.451511 0.204909 -0.003447 -0.148814 -0.036156 -0.111407
  6   7.247600 -0.397300 -0.109469 -0.005248 -0.005288 0.494432
  7   -2.022252 -0.104661 3.136172 1.238875 -1.024594 -4.799459
  8   1.168026 -0.537438 -0.063437 -1.127297 0.218229 -1.354342
  9   6.790376 -0.619176 0.015206 0.068637 -0.003021 0.099314
 10   8.637599 0.544015 -0.090417 -2.850751 0.439528 -0.654692
 11   6.790465 -0.619039 0.017802 0.044445 -0.011395 0.054244
 12   -2.022474 -0.104699 -2.873818 -1.163718 1.764361 -4.903451
 13   1.167898 -0.537463 0.063297 0.365529 -0.745006 -0.880327
 14   7.002743 -0.617765 -0.183752 0.366420 -0.277711 -1.857280
 15   8.209042 0.615527 -0.255885 2.263306 0.369685 0.522526
 16   7.002735 -0.617911 -0.183641 0.219872 -0.263352 -1.300553
 17   1.574674 0.609930 -0.000899 -0.076244 0.194905 0.066374
 18   -0.602177 0.511412 -0.000006 0.000000 0.000000 0.000000
 19   3.673773 0.177020 1.119313 -0.000002 -0.000014 -0.174510
 20   3.673767 0.176993 -1.117566 0.000007 -0.000003 -0.174546
 21   3.942357 1.330634 1.627658 0.000002 -0.000011 -0.000026
 22   -0.246060 -0.011889 0.516521 -0.000011 0.000031 0.000025
 23   3.942374 1.330659 -1.631083 0.000019 0.000002 -0.000024
 24   -0.246150 -0.011872 -0.516511 -0.000005 -0.000006 0.000048
 25   4.941364 1.997338 1.629330 0.000018 -0.000001 -0.000024
 26   4.941382 1.997366 -1.629410 -0.000001 0.000005 -0.000024
 27   2.918368 1.615358 1.514501 -0.000019 -0.000022 -0.000050
 28   2.920798 1.614964 -1.501142 -0.000002 -0.000009 -0.000024
 29   8.824059 0.150544 0.091743 0.000006 -0.000231 -0.174534
 30   2.111085 -0.561179 1.784320 -0.000008 -0.000682 0.000024
 31   2.121290 -0.561289 -1.853599 0.000000 0.000000 -0.000002
 32   -0.810489 -0.093824 3.127092 3.071872 -0.114782 1.239365
 33   14.298673 -0.408176 0.475484 0.000248 0.000062 -1.896136
 34   15.835795 0.581398 0.242756 -0.214729 0.106889 -0.097869
 35   -0.815868 -0.091229 -3.114430 0.066464 3.132725 -1.010185
 36   14.294526 -0.410349 -0.463635 0.000033 -0.000000 -2.607695
 37   15.834409 0.579420 -0.284600 -0.006092 -0.035255 0.214458
 38   1.139685 -3.453749 -2.823813 0.000000 0.000000 0.000001
 39   -4.457742 -1.054854 -0.746180 0.000000 0.000000 0.000000
 40   1.118101 -3.449769 3.237290 0.000000 0.000001 0.000000
 41   -4.433840 -1.059130 0.959566 -0.000001 0.000000 0.000000
 42   -0.657468 1.697302 -2.688614 0.000000 0.000002 0.000000
 43   -0.664068 1.698578 2.869377 0.000000 0.000002 0.000000
time 20
  0   -0.967547 0.175787 -20.574476 0.000000 0.000000 -1.572114
  1   -1.093036 0.000002 -0.326057 -1.570809 -1.570703 0.000022
  2   2.262337 0.113614 0.064702 0.000292 0.000085 -0.267931
  3   2.380047 0.353302 0.047440 0.000000 -0.000028 -0.224951
  4   2.033756 0.190472 -0.000128 -0.177114 0.016791 -0.146572
  5   2.451511 0.204909 -0.003447 -0.148677 -0.036417 -0.112992
  6   7.247600 -0.397300 -0.109469 -0.005248 -0.005288 0.494432
  7   -2.022252 -0.104661 3.136172 1.238875 -1.024594 -4.799459
  8   1.168026 -0.537438 -0.063437 -1.124829 0.277147 -1.266473
  9   6.790376 -0.619176 0.015206 0.067361 -0.037059 -0.109882
 10   8.637599 0.544015 -0.090417 -3.059201 0.402432 -0.631180
 11   6.790465 -0.619039 0.017802 0.043949 -0.037035 -0.092020
 12   -2.022474 -0.104699 -2.873818 -1.163718 1.764361 -4.903451
 13   1.167898 -0.537463 0.063297 0.365037 -0.755176 -0.905086
 14   7.002743 -0.617765 -0.183752 0.368184 -0.276916 -1.824608
 15   8.209042 0.615527 -0.255885 2.263306 0.369685 0.522526
 16   7.002735 -0.617911 -0.183641 0.222179 -0.261604 -1.277924
 17   1.574674 0.609930 -0.000899 0.015233 0.228346 0.030744
 18   -0.602177 0.511412 -0.000006 0.000000 0.000000 0.000000
 19   3.673773 0.177020 1.119313 -0.000002 -0.000014 -0.174510
 20   3.673767 0.176993 -1.117566 0.000007 -0.000003 -0.174546
 21   3.942357 1.330634 1.627658 0.000002 -0.000011 -0.000026
 22   -0.246060 -0.011889 0.516521 -0.000011 0.000031 0.000025
 23   3.942374 1.330659 -1.631083 0.000019 0.000002 -0.000024
 24   -0.246150 -0.011872 -0.516511 -0.000005 -0.000006 0.000048
 25   4.941364 1.997338 1.629330 0.000018 -0.000001 -0.000024
 26   4.941382 1.997366 -1.629410 -0.000001 0.000005 -0.000024
 27   2.918368 1.615358 1.514501 -0.000019 -0.000022 -0.000050
 28   2.920798 1.614964 -1.501142 -0.000002 -0.000009 -0.000024
 29   8.824059 0.150544 0.091743 0.000006 -0.000231 -0.174534
 30   2.111085 -0.561179 1.784320 -0.000008 -0.000682 0.000024
 31   2.121290 -0.561289 -1.853599 0.000000 0.000000 -0.000002
 32   -0.810489 -0.093824 3.127092 3.071872 -0.114782 1.239365
 33   14.298673 -0.408176 0.475484 0.000248 0.000062 -1.896136
 34   15.835795 0.581398 0.242756 -0.214729 0.106889 -0.097869
 35   -0.815868 -0.091229 -3.114430 0.066464 3.132725 -1.010185
 36   14.294526 -0.410349 -0.463635 0.000033 -0.000000 -2.607695
 37   15.834409 0.579420 -0.284600 -0.006092 -0.035255 0.214458
 38   1.139685 -3.453749 -2.823813 0.000000 0.000000 0.000001
 39   -4.457742 -1.054854 -0.746180 0.000000 0.000000 0.000000
 40   1.118101 -3.449769 3.237290 0.000000 0.000001 0.000000
 41   -4.433840 -1.059130 0.959566 -0.000001 0.000000 0.000000
 42   -0.657468 1.697302 -2.688614 0.000000 0.000002 0.000000
 43   -0.664068 1.698578 2.869377 0.000000 0.000002 0.000000
time 21
  0   -0.967547 0.175787 -20.574476 0.000000 0.000000 -1.572114
  1   -1.093036 0.000002 -0.326057 -1.570809 -1.570703 0.000022
  2   2.262337 0.113614 0.064702 0.000292 0.000085 -0.267931
  3   2.380047 0.353302 0.047440 0.000000 -0.000028 -0.224951
  4   2.033756 0.190472 -0.000128 -0.177114 0.016791 -0.146572
  5   2.451511 0.204909 -0.003447 -0.148677 -0.036417 -0.112992
  6   7.247600 -0.397300 -0.109469 -0.005248 -0.005288 0.494432
  7   -2.022252 -0.104661 3.136172 1.238875 -1.024594 -4.799459
  8   1.168026 -0.537438 -0.063437 -1.122488 0.332845 -1.193218
  9   6.790376 -0.619176 0.015206 0.066196 -0.068427 -0.307758
 10   8.637599 0.544015 -0.090417 -3.446950 0.321131 -0.579309
 11   6.790465 -0.619039 0.017802 0.042226 -0.060543 -0.230324
 12   -2.022474 -0.104699 -2.873818 -1.163718 1.764361 -4.903451
 13   1.167898 -0.537463 0.063297 0.365248 -0.763364 -0.925123
 14   7.002743 -0.617765 -0.183752 0.369608 -0.276121 -1.798454
 15   8.209042 0.615527 -0.255885 2.263306 0.369685 0.522526
 16   7.002735 -0.617911 -0.183641 0.224062 -0.260025 -1.259876
 17   1.574674 0.609930 -0.000899 0.124623 0.268154 -0.005035
 18   -0.602177 0.511412 -0.000006 0.000000 0.000000 0.000000
 19   3.673773 0.177020 1.119313 -0.000002 -0.000014 -0.174510
 20   3.673767 0.176993 -1.117566 0.000007 -0.000003 -0.174546
 21   3.942357 1.330634 1.627658 0.000002 -0.000011 -0.000026
 22   -0.246060 -0.011889 0.516521 -0.000011 0.000031 0.000025
 23   3.942374 1.330659 -1.631083 0.000019 0.000002 -0.000024
 24   -0.246150 -0.011872 -0.516511 -0.000005 -0.000006 0.000048
 25   4.941364 1.997338 1.629330 0.000018 -0.000001 -0.000024
 26   4.941382 1.997366 -1.629410 -0.000001 0.000005 -0.000024
 27   2.918368 1.615358 1.514501 -0.000019 -0.000022 -0.000050
 28   2.920798 1.614964 -1.501142 -0.000002 -0.000009 -0.000024
 29   8.824059 0.150544 0.091743 0.000006 -0.000231 -0.174534
 30   2.111085 -0.561179 1.784320 -0.000008 -0.000682 0.000024
 31   2.121290 -0.561289 -1.853599 0.000000 0.000000 -0.000002
 32   -0.810489 -0.093824 3.127092 3.071872 -0.114782 1.239365
 33   14.298673 -0.408176 0.475484 0.000248 0.000062 -1.896136
 34   15.835795 0.581398 0.242756 -0.214729 0.106889 -0.097869
 35   -0.815868 -0.091229 -3.114430 0.066464 3.132725 -1.010185
 36   14.294526 -0.410349 -0.463635 0.000033 -0.000000 -2.607695
 37   15.834409 0.579420 -0.284600 -0.006092 -0.035255 0.214458
 38   1.139685 -3.453749 -2.823813 0.000000 0.000000 0.000001
 39   -4.457742 -1.054854 -0.746180 0.000000 0.000000 0.000000
 40   1.118101 -3.449769 3.237290 0.000000 0.000001 0.000000
 41   -4.433840 -1.059130 0.959566 -0.000001 0.000000 0.000000
 42   -0.657468 1.697302 -2.688614 0.000000 0.000002 0.000000
 43   -0.664068 1.698578 2.869377 0.000000 0.000002 0.000000
time 22
  0   -0.967547 0.175787 -20.574476 0.000000 0.000000 -1.572114
  1   -1.093036 0.000002 -0.326057 -1.570809 -1.570703 0.000022
  2   2.262337 0.113614 0.064702 0.000292 0.000085 -0.267931
  3   2.380047 0.353302 0.047440 0.000000 -0.000028 -0.224951
  4   2.033756 0.190472 -0.000128 -0.177114 0.016791 -0.146572
  5   2.451511 0.204909 -0.003447 -0.148677 -0.036417 -0.112992
  6   7.247600 -0.397300 -0.109469 -0.005248 -0.005288 0.494432
  7   -2.022252 -0.104661 3.136172 1.238875 -1.024594 -4.799459
  8   1.168026 -0.537438 -0.063437 -1.120716 0.368417 -1.143685
  9   6.790376 -0.619176 0.015206 0.065253 -0.090184 -0.455523
 10   8.637599 0.544015 -0.090417 -3.820962 0.239830 -0.527438
 11   6.790465 -0.619039 0.017802 0.040270 -0.077001 -0.333505
 12   -2.022474 -0.104699 -2.873818 -1.163718 1.764361 -4.903451
 13   1.167898 -0.537463 0.063297 0.365740 -0.768500 -0.938501
 14   7.002743 -0.617765 -0.183752 0.370519 -0.275610 -1.781375
 15   8.209042 0.615527 -0.255885 2.263306 0.369685 0.522526
 16   7.002735 -0.617911 -0.183641 0.225286 -0.259010 -1.247899
 17   1.574674 0.609930 -0.000899 0.216343 0.301548 -0.032645
 18   -0.602177 0.511412 -0.000006 0.000000 0.000000 0.000000
 19   3.673773 0.177020 1.119313 -0.000002 -0.000014 -0.174510
 20   3.673767 0.176993 -1.117566 0.000007 -0.000003 -0.174546
 21   3.942357 1.330634 1.627658 0.000002 -0.000011 -0.000026
 22   -0.246060 -0.011889 0.516521 -0.000011 0.000031 0.000025
 23   3.942374 1.330659 -1.631083 0.000019 0.000002 -0.000024
 24   -0.246150 -0.011872 -0.516511 -0.000005 -0.000006 0.000048
 25   4.941364 1.997338 1.629330 0.000018 -0.000001 -0.000024
 26   4.941382 1.997366 -1.629410 -0.000001 0.000005 -0.000024
 27   2.918368 1.615358 1.514501 -0.000019 -0.000022 -0.000050
 28   2.920798 1.614964 -1.501142 -0.000002 -0.000009 -0.000024
 29   8.824059 0.150544 0.091743 0.000006 -0.000231 -0.174534
 30   2.111085 -0.561179 1.784320 -0.000008 -0.000682 0.000024
 31   2.121290 -0.561289 -1.853599 0.000000 0.000000 -0.000002
 32   -0.810489 -0.093824 3.127092 3.071872 -0.114782 1.239365
 33   14.298673 -0.408176 0.475484 0.000248 0.000062 -1.896136
 34   15.835795 0.581398 0.242756 -0.214729 0.106889 -0.097869
 35   -0.815868 -0.091229 -3.114430 0.066464 3.132725 -1.010185
 36   14.294526 -0.410349 -0.463635 0.000033 -0.000000 -2.607695
 37   15.834409 0.579420 -0.284600 -0.006092 -0.035255 0.214458
 38   1.139685 -3.453749 -2.823813 0.000000 0.000000 0.000001
 39   -4.457742 -1.054854 -0.746180 0.000000 0.000000 0.000000
 40   1.118101 -3.449769 3.237290 0.000000 0.000001 0.000000
 41   -4.433840 -1.059130 0.959566 -0.000001 0.000000 0.000000
 42   -0.657468 1.697302 -2.688614 0.000000 0.000002 0.000000
 43   -0.664068 1.698578 2.869377 0.000000 0.000002 0.000000
time 23
  0   -0.967547 0.175787 -20.574476 0.000000 0.000000 -1.572114
  1   -1.093036 0.000002 -0.326057 -1.570809 -1.570703 0.000022
  2   2.262337 0.113614 0.064702 0.000292 0.000085 -0.267931
  3   2.380047 0.353302 0.047440 0.000000 -0.000028 -0.224951
  4   2.033756 0.190472 -0.000128 -0.177114 0.016791 -0.146572
  5   2.451511 0.204909 -0.003447 -0.148677 -0.036417 -0.112992
  6   7.247600 -0.397300 -0.109469 -0.005248 -0.005288 0.494432
  7   -2.022252 -0.104661 3.136172 1.238875 -1.024594 -4.799459
  8   1.168026 -0.537438 -0.063437 -1.120463 0.380090 -1.125972
  9   6.790376 -0.619176 0.015206 0.065031 -0.098259 -0.512803
 10   8.637599 0.544015 -0.090417 -3.988461 0.202805 -0.503999
 11   6.790465 -0.619039 0.017802 0.039336 -0.083084 -0.373300
 12   -2.022474 -0.104699 -2.873818 -1.163718 1.764361 -4.903451
 13   1.167898 -0.537463 0.063297 0.365951 -0.770127 -0.943465
 14   7.002743 -0.617765 -0.183752 0.370860 -0.275326 -1.775105
 15   8.209042 0.615527 -0.255885 2.263306 0.369685 0.522526
 16   7.002735 -0.617911 -0.183641 0.225710 -0.258615 -1.243594
 17   1.574674 0.609930 -0.000899 0.254770 0.315535 -0.043807
 18   -0.602177 0.511412 -0.000006 0.000000 0.000000 0.000000
 19   3.673773 0.177020 1.119313 -0.000002 -0.000014 -0.174510
 20   3.673767 0.176993 -1.117566 0.000007 -0.000003 -0.174546
 21   3.942357 1.330634 1.627658 0.000002 -0.000011 -0.000026
 22   -0.246060 -0.011889 0.516521 -0.000011 0.000031 0.000025
 23   3.942374 1.330659 -1.631083 0.000019 0.000002 -0.000024
 24   -0.246150 -0.011872 -0.516511 -0.000005 -0.000006 0.000048
 25   4.941364 1.997338 1.629330 0.000018 -0.000001 -0.000024
 26   4.941382 1.997366 -1.629410 -0.000001 0.000005 -0.000024
 27   2.918368 1.615358 1.514501 -0.000019 -0.000022 -0.000050
 28   2.920798 1.614964 -1.501142 -0.000002 -0.000009 -0.000024
 29   8.824059 0.150544 0.091743 0.000006 -0.000231 -0.174534
 30   2.111085 -0.561179 1.784320 -0.000008 -0.000682 0.000024
 31   2.121290 -0.561289 -1.853599 0.000000 0.000000 -0.000002
 32   -0.810489 -0.093824 3.127092 3.071872 -0.114782 1.239365
 33   14.298673 -0.408176 0.475484 0.000248 0.000062 -1.896136
 34   15.835795 0.581398 0.242756 -0.214729 0.106889 -0.097869
 35   -0.815868 -0.091229 -3.114430 0.066464 3.132725 -1.010185
 36   14.294526 -0.410349 -0.463635 0.000033 -0.000000 -2.607695
 37   15.834409 0.579420 -0.284600 -0.006092 -0.035255 0.214458
 38   1.139685 -3.453749 -2.823813 0.000000 0.000000 0.000001
 39   -4.457742 -1.054854 -0.746180 0.000000 0.000000 0.000000
 40   1.118101 -3.449769 3.237290 0.000000 0.000001 0.000000
 41   -4.433840 -1.059130 0.959566 -0.000001 0.000000 0.000000
 42   -0.657468 1.697302 -2.688614 0.000000 0.000002 0.000000
 43   -0.664068 1.698578 2.869377 0.000000 0.000002 0.000000
end
