version 1
nodes
  0 "Bip01" -1
  1 "Bip01 Pelvis" 0
  2 "Bip01 Spine" 1
  3 "Bip01 Spine1" 2
  4 "Bip01 Spine2" 3
  5 "Bip01 Spine3" 4
  6 "Bip01 Neck" 5
  7 "Bip01 L Arm" 6
  8 "Bip01 L Arm1" 7
  9 "Bip01 L Arm2" 8
 10 "Bip01 L Hand" 9
 11 "Bip06 L elbow2-smooth" 8
 12 "Bip01 R Arm" 6
 13 "Bip01 R Arm1" 12
 14 "Bip01 R Arm2" 13
 15 "Bip01 R Hand" 14
 16 "Bip06 R elbow2-smooth" 13
 17 "Bip01 Head" 6
 18 "Bip06 Head_helper" 17
 19 "Bip06 Head_eyes_l" 18
 20 "Bip06 Head_eyes_r" 18
 21 "Bip06 Head_blink_l" 18
 22 "Bip06 Head_blink_smooth_l1" 21
 23 "Bip06 Head_blink_r" 18
 24 "Bip06 Head_blink_smooth_r1" 23
 25 "Bip06 Head_L_eyebrow" 18
 26 "Bip06 Head_R_eyebrow" 18
 27 "Bip06 Head_blink_l_lid" 18
 28 "Bip06 Head_blink_r_lid" 18
 29 "Bip06 bunny" 18
 30 "Bip06 bunnyL" 29
 31 "Bip06 bunnyR" 29
 32 "Bip01 L Leg" 1
 33 "Bip01 L Leg1" 32
 34 "Bip01 L Foot" 33
 35 "Bip01 R Leg" 1
 36 "Bip01 R Leg1" 35
 37 "Bip01 R Foot" 36
 38 "Bip03 HairR1" 17
 39 "Bip03 HairR2" 38
 40 "Bip03 HairL1" 17
 41 "Bip03 HairL2" 40
 42 "Bip03 swingR" 17
 43 "Bip03 swingL" 17
end
skeleton
time 0
  0   -0.967547 0.175787 -20.574476 0.000000 0.000000 -1.572114
  1   -1.093036 0.000002 -0.326057 -1.570757 -1.570379 -0.000123
  2   2.262337 0.113614 0.064702 -0.000052 0.000073 -0.103775
  3   2.380047 0.353302 0.047440 0.000000 -0.000028 -0.200362
  4   2.033756 0.190472 -0.000128 -0.156901 -0.002529 -0.017496
  5   2.451511 0.204909 -0.003447 -0.051693 -0.007186 -0.139145
  6   7.247600 -0.397300 -0.109469 0.000001 0.000033 0.052393
  7   -2.022252 -0.104661 3.136172 1.349016 -0.824798 -4.467662
  8   1.168026 -0.537438 -0.063437 -0.361667 0.483637 -0.239061
  9   6.790376 -0.619176 0.015206 -0.000324 -0.000352 -0.945609
 10   8.637599 0.544015 -0.090417 -3.685958 0.382230 -0.380073
 11   6.790465 -0.619039 0.017802 0.000067 -0.011509 -0.677132
 12   -2.022474 -0.104699 -2.873818 1.081809 1.163624 -2.148789
 13   1.167898 -0.537463 0.063297 -0.486366 -1.250790 -0.671361
 14   7.002743 -0.617765 -0.183752 0.000286 0.000421 -1.504487
 15   8.209042 0.615527 -0.255885 1.663061 0.687758 -0.096407
 16   7.002735 -0.617911 -0.183641 0.013780 0.008383 -1.071779
 17   1.574674 0.609930 -0.000899 0.209072 -0.006193 0.129947
 18   -0.602177 0.511412 -0.000006 0.000000 0.000000 0.000000
 19   3.646428 0.364526 1.119313 -0.000002 -0.000014 -0.174510
 20   3.646422 0.364499 -1.117566 0.000007 -0.000003 -0.174546
 21   3.805634 1.330634 1.627658 0.000002 -0.000011 -0.000026
 22   -0.246060 -0.011889 0.516521 -0.000011 0.000031 0.000025
 23   3.805651 1.330659 -1.631083 0.000019 0.000002 -0.000024
 24   -0.246150 -0.011872 -0.516511 -0.000005 -0.000006 0.000048
 25   4.941364 1.997338 1.629330 0.000018 -0.000001 -0.000024
 26   4.941382 1.997366 -1.629410 -0.000001 0.000005 -0.000024
 27   2.930087 1.603639 1.514501 -0.000019 -0.000022 -0.000050
 28   2.932517 1.603245 -1.501142 -0.000002 -0.000009 -0.000024
 29   8.824059 0.150544 0.091743 0.000006 -0.000231 -0.174534
 30   2.111085 -0.561179 1.784320 -0.000008 -0.000682 0.000024
 31   2.121290 -0.561289 -1.853599 0.000000 0.000000 -0.000002
 32   -0.810489 -0.093824 3.127092 3.071872 -0.114782 1.239365
 33   14.298673 -0.408176 0.475484 0.000248 0.000062 -1.896136
 34   15.835795 0.581398 0.242756 -0.214729 0.106889 -0.097869
 35   -0.815868 -0.091229 -3.114430 0.066464 3.132725 -1.010185
 36   14.294526 -0.410349 -0.463635 0.000033 -0.000000 -2.607695
 37   15.834409 0.579420 -0.284600 -0.006092 -0.035255 0.214458
 38   1.139685 -3.453749 -2.823813 0.000000 0.000000 0.000001
 39   -4.457742 -1.054854 -0.746180 0.000000 0.000000 0.000000
 40   1.118101 -3.449769 3.237290 0.000000 0.000001 0.000000
 41   -4.433840 -1.059130 0.959566 -0.000001 0.000000 0.000000
 42   -0.657468 1.697302 -2.688614 0.000000 0.000002 0.000000
 43   -0.664068 1.698578 2.869377 0.000000 0.000002 0.000000
time 1
  0   -0.967547 0.175787 -20.574476 0.000000 0.000000 -1.572114
  1   -1.093036 0.000002 -0.326057 -1.570757 -1.570379 -0.000123
  2   2.262337 0.113614 0.064702 -0.000052 0.000073 -0.103775
  3   2.380047 0.353302 0.047440 0.000000 -0.000028 -0.200362
  4   2.033756 0.190472 -0.000128 -0.156901 -0.002349 -0.016300
  5   2.451511 0.204909 -0.003447 -0.051796 -0.006977 -0.135479
  6   7.247600 -0.397300 -0.109469 0.000001 0.000033 0.052393
  7   -2.022252 -0.104661 3.136172 1.349016 -0.824798 -4.467662
  8   1.168026 -0.537438 -0.063437 -0.364388 0.479159 -0.241022
  9   6.790376 -0.619176 0.015206 -0.000324 -0.000352 -0.945609
 10   8.637599 0.544015 -0.090417 -3.685958 0.382230 -0.380073
 11   6.790465 -0.619039 0.017802 0.000067 -0.011509 -0.677132
 12   -2.022474 -0.104699 -2.873818 1.075677 1.161999 -2.155586
 13   1.167898 -0.537463 0.063297 -0.477649 -1.247128 -0.680320
 14   7.002743 -0.617765 -0.183752 0.000286 0.000421 -1.504487
 15   8.209042 0.615527 -0.255885 1.663061 0.687909 -0.096407
 16   7.002735 -0.617911 -0.183641 0.013780 0.008383 -1.071779
 17   1.574674 0.609930 -0.000899 0.209072 -0.006122 0.124994
 18   -0.602177 0.511412 -0.000006 0.000000 0.000000 0.000000
 19   3.646428 0.364526 1.119313 -0.000002 -0.000014 -0.174510
 20   3.646422 0.364499 -1.117566 0.000007 -0.000003 -0.174546
 21   3.805634 1.330634 1.627658 0.000002 -0.000011 -0.000026
 22   -0.246060 -0.011889 0.516521 -0.000011 0.000031 0.000025
 23   3.805651 1.330659 -1.631083 0.000019 0.000002 -0.000024
 24   -0.246150 -0.011872 -0.516511 -0.000005 -0.000006 0.000048
 25   4.941364 1.997338 1.629330 0.000018 -0.000001 -0.000024
 26   4.941382 1.997366 -1.629410 -0.000001 0.000005 -0.000024
 27   2.930087 1.603639 1.514501 -0.000019 -0.000022 -0.000050
 28   2.932517 1.603245 -1.501142 -0.000002 -0.000009 -0.000024
 29   8.824059 0.150544 0.091743 0.000897 -0.000468 -0.171583
 30   2.111085 -0.561179 1.784320 -0.000022 0.001236 0.000153
 31   2.121290 -0.561289 -1.853599 0.000000 -0.002538 0.000107
 32   -0.810489 -0.093824 3.127092 3.071872 -0.114782 1.239365
 33   14.298673 -0.408176 0.475484 0.000248 0.000062 -1.896136
 34   15.835795 0.581398 0.242756 -0.214729 0.106889 -0.097869
 35   -0.815868 -0.091229 -3.114430 0.066464 3.132725 -1.010185
 36   14.294526 -0.410349 -0.463635 0.000033 -0.000000 -2.607695
 37   15.834409 0.579420 -0.284600 -0.006092 -0.035255 0.214458
 38   1.139685 -3.453749 -2.823813 0.000063 -0.000060 0.000123
 39   -4.457742 -1.054854 -0.746180 0.000132 0.000288 -0.001178
 40   1.118101 -3.449769 3.237290 -0.000021 -0.000071 0.000367
 41   -4.433840 -1.059130 0.959566 0.000011 0.000024 -0.000084
 42   -0.657468 1.697302 -2.688614 0.000863 0.001336 -0.000084
 43   -0.664068 1.698578 2.869377 -0.001000 -0.001504 0.000251
time 2
  0   -0.967547 0.175787 -20.574476 0.000000 0.000000 -1.572114
  1   -1.093036 0.000002 -0.326057 -1.570757 -1.570379 -0.000123
  2   2.262337 0.113614 0.064702 -0.000052 0.000073 -0.103775
  3   2.380047 0.353302 0.047440 0.000000 -0.000028 -0.200362
  4   2.033756 0.190472 -0.000128 -0.156901 -0.001965 -0.014850
  5   2.451511 0.204909 -0.003447 -0.051830 -0.006611 -0.131393
  6   7.247600 -0.397300 -0.109469 0.000001 0.000033 0.052393
  7   -2.022252 -0.104661 3.136172 1.349016 -0.824798 -4.467662
  8   1.168026 -0.537438 -0.063437 -0.367235 0.474681 -0.243426
  9   6.790376 -0.619176 0.015206 -0.000324 -0.000352 -0.945609
 10   8.637599 0.544015 -0.090417 -3.685958 0.382230 -0.380073
 11   6.790465 -0.619039 0.017802 0.000067 -0.011509 -0.677132
 12   -2.022474 -0.104699 -2.873818 1.068779 1.160548 -2.163054
 13   1.167898 -0.537463 0.063297 -0.468511 -1.242857 -0.690127
 14   7.002743 -0.617765 -0.183752 0.000286 0.000421 -1.504487
 15   8.209042 0.615527 -0.255885 1.663061 0.687758 -0.096407
 16   7.002735 -0.617911 -0.183641 0.013780 0.008383 -1.071779
 17   1.574674 0.609930 -0.000899 0.209072 -0.006051 0.119487
 18   -0.602177 0.511412 -0.000006 0.000000 0.000000 0.000000
 19   3.646428 0.364526 1.119313 -0.000002 -0.000014 -0.174510
 20   3.646422 0.364499 -1.117566 0.000007 -0.000003 -0.174546
 21   3.805634 1.330634 1.627658 0.000002 -0.000011 -0.000026
 22   -0.246060 -0.011889 0.516521 -0.000011 0.000031 0.000025
 23   3.805651 1.330659 -1.631083 0.000019 0.000002 -0.000024
 24   -0.246150 -0.011872 -0.516511 -0.000005 -0.000006 0.000048
 25   4.941364 1.997338 1.629330 0.000018 -0.000001 -0.000024
 26   4.941382 1.997366 -1.629410 -0.000001 0.000005 -0.000024
 27   2.930087 1.603639 1.514501 -0.000019 -0.000022 -0.000050
 28   2.932517 1.603245 -1.501142 -0.000002 -0.000009 -0.000024
 29   8.824059 0.150544 0.091743 0.003838 -0.001323 -0.163053
 30   2.111085 -0.561179 1.784320 -0.000103 0.006728 0.000496
 31   2.121290 -0.561289 -1.853599 0.000000 -0.009765 0.000544
 32   -0.810489 -0.093824 3.127092 3.071872 -0.114782 1.239365
 33   14.298673 -0.408176 0.475484 0.000248 0.000062 -1.896136
 34   15.835795 0.581398 0.242756 -0.214729 0.106889 -0.097869
 35   -0.815868 -0.091229 -3.114430 0.066464 3.132725 -1.010185
 36   14.294526 -0.410349 -0.463635 0.000033 -0.000000 -2.607695
 37   15.834409 0.579420 -0.284600 -0.006092 -0.035255 0.214458
 38   1.139685 -3.453749 -2.823813 0.000400 -0.000277 0.000795
 39   -4.457742 -1.047041 -0.746180 0.000491 0.001127 -0.004459
 40   1.118101 -3.449769 3.237290 -0.000168 -0.000336 0.001405
 41   -4.433840 -1.051317 0.959566 0.000047 0.000108 -0.000449
 42   -0.657468 1.697302 -2.680801 0.003308 0.005169 -0.000418
 43   -0.664068 1.698578 2.861564 -0.003886 -0.005851 0.001004
time 3
  0   -0.967547 0.175787 -20.574476 0.000000 0.000000 -1.572114
  1   -1.093036 0.000002 -0.326057 -1.570757 -1.570379 -0.000123
  2   2.262337 0.113614 0.064702 -0.000052 0.000073 -0.103775
  3   2.380047 0.353302 0.047440 0.000000 -0.000028 -0.200362
  4   2.033756 0.190472 -0.000128 -0.156901 -0.001870 -0.013545
  5   2.451511 0.204909 -0.003447 -0.051847 -0.006572 -0.127034
  6   7.247600 -0.397300 -0.109469 0.000001 0.000033 0.052393
  7   -2.022252 -0.104661 3.136172 1.349016 -0.824798 -4.467662
  8   1.168026 -0.537438 -0.063437 -0.370589 0.469549 -0.246083
  9   6.790376 -0.619176 0.015206 -0.000324 -0.000352 -0.945609
 10   8.637599 0.544015 -0.090417 -3.685958 0.382230 -0.380073
 11   6.790465 -0.619039 0.017802 0.000067 -0.011509 -0.677132
 12   -2.022474 -0.104699 -2.873818 1.061306 1.158574 -2.171001
 13   1.167898 -0.537463 0.063297 -0.458810 -1.238280 -0.700236
 14   7.002743 -0.617765 -0.183752 0.000286 0.000421 -1.504487
 15   8.209042 0.615527 -0.255885 1.663061 0.687758 -0.096407
 16   7.002735 -0.617911 -0.183641 0.013780 0.008383 -1.071779
 17   1.574674 0.609930 -0.000899 0.209072 -0.005980 0.113758
 18   -0.602177 0.511412 -0.000006 0.000000 0.000000 0.000000
 19   3.646428 0.364526 1.119313 -0.000002 -0.000014 -0.174510
 20   3.646422 0.364499 -1.117566 0.000007 -0.000003 -0.174546
 21   3.805634 1.330634 1.627658 0.000002 -0.000011 -0.000026
 22   -0.246060 -0.011889 0.516521 -0.000011 0.000031 0.000025
 23   3.805651 1.330659 -1.631083 0.000019 0.000002 -0.000024
 24   -0.246150 -0.011872 -0.516511 -0.000005 -0.000006 0.000048
 25   4.941364 1.997338 1.629330 0.000018 -0.000001 -0.000024
 26   4.941382 1.997366 -1.629410 -0.000001 0.000005 -0.000024
 27   2.930087 1.603639 1.514501 -0.000019 -0.000022 -0.000050
 28   2.932517 1.603245 -1.501142 -0.000002 -0.000009 -0.000024
 29   8.824059 0.150544 0.091743 0.008472 -0.002629 -0.149802
 30   2.111085 -0.561179 1.776507 -0.000225 0.015185 0.001075
 31   2.129103 -0.561289 -1.845786 0.000031 -0.020902 0.001163
 32   -0.810489 -0.093824 3.127092 3.071872 -0.114782 1.239365
 33   14.298673 -0.408176 0.475484 0.000248 0.000062 -1.896136
 34   15.835795 0.581398 0.242756 -0.214729 0.106889 -0.097869
 35   -0.815868 -0.091229 -3.114430 0.066464 3.132725 -1.010185
 36   14.294526 -0.410349 -0.463635 0.000033 -0.000000 -2.607695
 37   15.834409 0.579420 -0.284600 -0.006092 -0.035255 0.214458
 38   1.139685 -3.453749 -2.823813 0.000842 -0.000627 0.001895
 39   -4.457742 -1.027509 -0.746180 0.001091 0.002409 -0.009648
 40   1.118101 -3.449769 3.237290 -0.000400 -0.000746 0.003116
 41   -4.426027 -1.043504 0.959566 0.000107 0.000228 -0.000954
 42   -0.649655 1.697302 -2.661269 0.007095 0.011057 -0.001046
 43   -0.664068 1.698578 2.849845 -0.008309 -0.012520 0.002133
time 4
  0   -0.967547 0.175787 -20.574476 0.000000 0.000000 -1.572114
  1   -1.093036 0.000002 -0.326057 -1.570757 -1.570379 -0.000123
  2   2.262337 0.113614 0.064702 -0.000052 0.000073 -0.103775
  3   2.380047 0.353302 0.047440 0.000000 -0.000028 -0.200362
  4   2.033756 0.190472 -0.000128 -0.156901 -0.001678 -0.011914
  5   2.451511 0.204909 -0.003447 -0.051847 -0.006324 -0.122527
  6   7.247600 -0.397300 -0.109469 0.000001 0.000033 0.052393
  7   -2.022252 -0.104661 3.136172 1.349016 -0.824798 -4.467662
  8   1.168026 -0.537438 -0.063437 -0.373880 0.464266 -0.248550
  9   6.790376 -0.619176 0.015206 -0.000324 -0.000352 -0.945609
 10   8.637599 0.544015 -0.090417 -3.685958 0.382230 -0.380073
 11   6.790465 -0.619039 0.017802 0.000067 -0.011509 -0.677132
 12   -2.022474 -0.104699 -2.873818 1.053833 1.156949 -2.179426
 13   1.167898 -0.537463 0.063297 -0.449391 -1.233449 -0.710406
 14   7.002743 -0.617765 -0.183752 0.000286 0.000421 -1.504487
 15   8.209042 0.615527 -0.255885 1.663061 0.687909 -0.096407
 16   7.002735 -0.617911 -0.183641 0.013780 0.008383 -1.071779
 17   1.574674 0.609930 -0.000899 0.209072 -0.005909 0.107623
 18   -0.602177 0.511412 -0.000006 0.000000 0.000000 0.000000
 19   3.646428 0.364526 1.119313 -0.000002 -0.000014 -0.174510
 20   3.646422 0.364499 -1.117566 0.000007 -0.000003 -0.174546
 21   3.805634 1.330634 1.627658 0.000002 -0.000011 -0.000026
 22   -0.246060 -0.011889 0.516521 -0.000011 0.000031 0.000025
 23   3.805651 1.330659 -1.631083 0.000019 0.000002 -0.000024
 24   -0.246150 -0.011872 -0.516511 -0.000005 -0.000006 0.000048
 25   4.941364 1.997338 1.629330 0.000018 -0.000001 -0.000024
 26   4.941382 1.997366 -1.629410 -0.000001 0.000005 -0.000024
 27   2.930087 1.603639 1.514501 -0.000019 -0.000022 -0.000050
 28   2.932517 1.603245 -1.501142 -0.000002 -0.000009 -0.000024
 29   8.824059 0.150544 0.091743 0.014265 -0.004409 -0.132849
 30   2.118898 -0.561179 1.764788 -0.000361 0.026111 0.001804
 31   2.133009 -0.561289 -1.837973 0.000046 -0.035330 0.001945
 32   -0.810489 -0.093824 3.127092 3.071872 -0.114782 1.239365
 33   14.298673 -0.408176 0.475484 0.000248 0.000062 -1.896136
 34   15.835795 0.581398 0.242756 -0.214729 0.106889 -0.097869
 35   -0.815868 -0.091229 -3.114430 0.066464 3.132725 -1.010185
 36   14.294526 -0.410349 -0.463635 0.000033 -0.000000 -2.607695
 37   15.834409 0.579420 -0.284600 -0.006092 -0.035255 0.214458
 38   1.147498 -3.453749 -2.823813 0.001410 -0.001073 0.003239
 39   -4.457742 -1.011884 -0.738367 0.001846 0.004075 -0.016267
 40   1.110288 -3.449769 3.237290 -0.000674 -0.001276 0.005254
 41   -4.410401 -1.031785 0.967379 0.000191 0.000384 -0.001599
 42   -0.649655 1.697302 -2.641737 0.011973 0.018631 -0.001756
 43   -0.664068 1.698578 2.830313 -0.014031 -0.021134 0.003638
time 5
  0   -0.967547 0.175787 -20.574476 0.000000 0.000000 -1.572114
  1   -1.093036 0.000002 -0.326057 -1.570757 -1.570379 -0.000123
  2   2.262337 0.113614 0.064702 -0.000052 0.000073 -0.103775
  3   2.380047 0.353302 0.047440 0.000000 -0.000028 -0.200362
  4   2.033756 0.190472 -0.000128 -0.156901 -0.001270 -0.010464
  5   2.451511 0.204909 -0.003447 -0.051933 -0.005906 -0.117846
  6   7.247600 -0.397300 -0.109469 0.000001 0.000033 0.052393
  7   -2.022252 -0.104661 3.136172 1.349016 -0.824798 -4.467662
  8   1.168026 -0.537438 -0.063437 -0.377044 0.458732 -0.250827
  9   6.790376 -0.619176 0.015206 -0.000324 -0.000352 -0.945609
 10   8.637599 0.544015 -0.090417 -3.685958 0.382230 -0.380073
 11   6.790465 -0.619039 0.017802 0.000067 -0.011509 -0.677132
 12   -2.022474 -0.104699 -2.873818 1.046168 1.154743 -2.187468
 13   1.167898 -0.537463 0.063297 -0.439972 -1.228465 -0.720818
 14   7.002743 -0.617765 -0.183752 0.000286 0.000421 -1.504487
 15   8.209042 0.615527 -0.255885 1.663061 0.687758 -0.096407
 16   7.002735 -0.617911 -0.183641 0.013780 0.008383 -1.071779
 17   1.574674 0.609930 -0.000899 0.209072 -0.005838 0.101635
 18   -0.602177 0.511412 -0.000006 0.000000 0.000000 0.000000
 19   3.646428 0.364526 1.119313 -0.000002 -0.000014 -0.174510
 20   3.646422 0.364499 -1.117566 0.000007 -0.000003 -0.174546
 21   3.805634 1.330634 1.627658 0.000002 -0.000011 -0.000026
 22   -0.246060 -0.011889 0.516521 -0.000011 0.000031 0.000025
 23   3.805651 1.330659 -1.631083 0.000019 0.000002 -0.000024
 24   -0.246150 -0.011872 -0.516511 -0.000005 -0.000006 0.000048
 25   4.941364 1.997338 1.629330 0.000018 -0.000001 -0.000024
 26   4.941382 1.997366 -1.629410 -0.000001 0.000005 -0.000024
 27   2.930087 1.603639 1.514501 -0.000019 -0.000022 -0.000050
 28   2.932517 1.603245 -1.501142 -0.000002 -0.000009 -0.000024
 29   8.824059 0.150544 0.091743 0.021038 -0.006617 -0.112785
 30   2.122804 -0.561179 1.753069 -0.000537 0.038927 0.002640
 31   2.140822 -0.561289 -1.834067 0.000092 -0.052191 0.002891
 32   -0.810489 -0.093824 3.127092 3.071872 -0.114782 1.239365
 33   14.298673 -0.408176 0.475484 0.000248 0.000062 -1.896136
 34   15.835795 0.581398 0.242756 -0.214729 0.106889 -0.097869
 35   -0.815868 -0.091229 -3.114430 0.066464 3.132725 -1.010185
 36   14.294526 -0.410349 -0.463635 0.000033 -0.000000 -2.607695
 37   15.834409 0.579420 -0.284600 -0.006092 -0.035255 0.214458
 38   1.147498 -3.453749 -2.823813 0.002126 -0.001579 0.004766
 39   -4.457742 -0.992352 -0.734461 0.002721 0.006016 -0.024035
 40   1.110288 -3.449769 3.237290 -0.000989 -0.001903 0.007820
 41   -4.402589 -1.020066 0.967379 0.000287 0.000575 -0.002384
 42   -0.637936 1.697302 -2.618299 0.017689 0.027570 -0.002635
 43   -0.664068 1.690765 2.806875 -0.020753 -0.031240 0.005395
time 6
  0   -0.967547 0.175787 -20.574476 0.000000 0.000000 -1.572114
  1   -1.093036 0.000002 -0.326057 -1.570757 -1.570379 -0.000123
  2   2.262337 0.113614 0.064702 -0.000052 0.000073 -0.103775
  3   2.380047 0.353302 0.047440 0.000000 -0.000028 -0.200362
  4   2.033756 0.190472 -0.000128 -0.156901 -0.001091 -0.008978
  5   2.451511 0.204909 -0.003447 -0.051967 -0.005789 -0.113240
  6   7.247600 -0.397300 -0.109469 0.000001 0.000033 0.052393
  7   -2.022252 -0.104661 3.136172 1.349016 -0.824798 -4.467662
  8   1.168026 -0.537438 -0.063437 -0.380398 0.453851 -0.253105
  9   6.790376 -0.619176 0.015206 -0.000324 -0.000352 -0.945609
 10   8.637599 0.544015 -0.090417 -3.685958 0.382230 -0.380073
 11   6.790465 -0.619039 0.017802 0.000067 -0.011509 -0.677132
 12   -2.022474 -0.104699 -2.873818 1.038599 1.153088 -2.195797
 13   1.167898 -0.537463 0.063297 -0.430763 -1.223533 -0.730685
 14   7.002743 -0.617765 -0.183752 0.000286 0.000421 -1.504487
 15   8.209042 0.615527 -0.255885 1.663061 0.687758 -0.096407
 16   7.002735 -0.617911 -0.183641 0.013780 0.008383 -1.071779
 17   1.574674 0.609930 -0.000899 0.209072 -0.005767 0.095425
 18   -0.602177 0.511412 -0.000006 0.000000 0.000000 0.000000
 19   3.646428 0.364526 1.119313 -0.000002 -0.000014 -0.174510
 20   3.646422 0.364499 -1.117566 0.000007 -0.000003 -0.174546
 21   3.805634 1.330634 1.627658 0.000002 -0.000011 -0.000026
 22   -0.246060 -0.011889 0.516521 -0.000011 0.000031 0.000025
 23   3.805651 1.330659 -1.631083 0.000019 0.000002 -0.000024
 24   -0.246150 -0.011872 -0.516511 -0.000005 -0.000006 0.000048
 25   4.941364 1.997338 1.629330 0.000018 -0.000001 -0.000024
 26   4.941382 1.997366 -1.629410 -0.000001 0.000005 -0.000024
 27   2.930087 1.603639 1.514501 -0.000019 -0.000022 -0.000050
 28   2.932517 1.603245 -1.501142 -0.000002 -0.000009 -0.000024
 29   8.824059 0.150544 0.091743 0.028525 -0.009228 -0.090682
 30   2.130617 -0.561179 1.741350 -0.000727 0.053079 0.003583
 31   2.152541 -0.561289 -1.822348 0.000138 -0.070866 0.003965
 32   -0.810489 -0.093824 3.127092 3.071872 -0.114782 1.239365
 33   14.298673 -0.408176 0.475484 0.000248 0.000062 -1.896136
 34   15.835795 0.581398 0.242756 -0.214729 0.106889 -0.097869
 35   -0.815868 -0.091229 -3.114430 0.066464 3.132725 -1.010185
 36   14.294526 -0.410349 -0.463635 0.000033 -0.000000 -2.607695
 37   15.834409 0.579420 -0.284600 -0.006092 -0.035255 0.214458
 38   1.155311 -3.453749 -2.823813 0.002884 -0.002145 0.006538
 39   -4.457742 -0.961101 -0.726648 0.003691 0.008162 -0.032645
 40   1.106382 -3.449769 3.237290 -0.001347 -0.002602 0.010692
 41   -4.386963 -1.000534 0.979098 0.000383 0.000791 -0.003225
 42   -0.637936 1.697302 -2.594861 0.024017 0.037413 -0.003597
 43   -0.664068 1.690765 2.787343 -0.028187 -0.042428 0.007319
time 7
  0   -0.967547 0.175787 -20.574476 0.000000 0.000000 -1.572114
  1   -1.093036 0.000002 -0.326057 -1.570757 -1.570379 -0.000123
  2   2.262337 0.113614 0.064702 -0.000052 0.000073 -0.103775
  3   2.380047 0.353302 0.047440 0.000000 -0.000028 -0.200362
  4   2.033756 0.190472 -0.000128 -0.156901 -0.000947 -0.007383
  5   2.451511 0.204909 -0.003447 -0.052001 -0.005606 -0.108708
  6   7.247600 -0.397300 -0.109469 0.000001 0.000033 0.052393
  7   -2.022252 -0.104661 3.136172 1.349016 -0.824798 -4.467662
  8   1.168026 -0.537438 -0.063437 -0.383688 0.448316 -0.256078
  9   6.790376 -0.619176 0.015206 -0.000324 -0.000352 -0.945609
 10   8.637599 0.544015 -0.090417 -3.685958 0.382230 -0.380073
 11   6.790465 -0.619039 0.017802 0.000067 -0.011509 -0.677132
 12   -2.022474 -0.104699 -2.873818 1.031606 1.150970 -2.203936
 13   1.167898 -0.537463 0.063297 -0.421765 -1.218600 -0.740189
 14   7.002743 -0.617765 -0.183752 0.000286 0.000421 -1.504487
 15   8.209042 0.615527 -0.255885 1.663061 0.687758 -0.096407
 16   7.002735 -0.617911 -0.183641 0.013780 0.008383 -1.071779
 17   1.574674 0.609930 -0.000899 0.209072 -0.005696 0.089438
 18   -0.602177 0.511412 -0.000006 0.000000 0.000000 0.000000
 19   3.646428 0.364526 1.119313 -0.000002 -0.000014 -0.174510
 20   3.646422 0.364499 -1.117566 0.000007 -0.000003 -0.174546
 21   3.805634 1.330634 1.627658 0.000002 -0.000011 -0.000026
 22   -0.246060 -0.011889 0.516521 -0.000011 0.000031 0.000025
 23   3.805651 1.330659 -1.631083 0.000019 0.000002 -0.000024
 24   -0.246150 -0.011872 -0.516511 -0.000005 -0.000006 0.000048
 25   4.941364 1.997338 1.629330 0.000018 -0.000001 -0.000024
 26   4.941382 1.997366 -1.629410 -0.000001 0.000005 -0.000024
 27   2.930087 1.603639 1.514501 -0.000019 -0.000022 -0.000050
 28   2.932517 1.603245 -1.501142 -0.000002 -0.000009 -0.000024
 29   8.824059 0.150544 0.091743 0.036367 -0.012124 -0.067345
 30   2.138430 -0.561179 1.721818 -0.000944 0.068074 0.004570
 31   2.160354 -0.561289 -1.814535 0.000184 -0.090655 0.005075
 32   -0.810489 -0.093824 3.127092 3.071872 -0.114782 1.239365
 33   14.298673 -0.408176 0.475484 0.000248 0.000062 -1.896136
 34   15.835795 0.581398 0.242756 -0.214729 0.106889 -0.097869
 35   -0.815868 -0.091229 -3.114430 0.066464 3.132725 -1.010185
 36   14.294526 -0.410349 -0.463635 0.000033 -0.000000 -2.607695
 37   15.834409 0.579420 -0.284600 -0.006092 -0.035255 0.214458
 38   1.159217 -3.461562 -2.823813 0.003684 -0.002748 0.008371
 39   -4.465555 -0.937663 -0.718835 0.004734 0.010463 -0.041760
 40   1.098569 -3.441956 3.237290 -0.001726 -0.003325 0.013624
 41   -4.371338 -0.988815 0.979098 0.000490 0.001019 -0.004151
 42   -0.626217 1.697302 -2.563610 0.030717 0.047854 -0.004558
 43   -0.664068 1.686859 2.763905 -0.036033 -0.054275 0.009284
time 8
  0   -0.967547 0.175787 -20.574476 0.000000 0.000000 -1.572114
  1   -1.093036 0.000002 -0.326057 -1.570757 -1.570379 -0.000123
  2   2.262337 0.113614 0.064702 -0.000052 0.000073 -0.103775
  3   2.380047 0.353302 0.047440 0.000000 -0.000028 -0.200362
  4   2.033756 0.190472 -0.000128 -0.156901 -0.000719 -0.006042
  5   2.451511 0.204909 -0.003447 -0.052001 -0.005201 -0.104374
  6   7.247600 -0.397300 -0.109469 0.000001 0.000033 0.052393
  7   -2.022252 -0.104661 3.136172 1.349016 -0.824798 -4.467662
  8   1.168026 -0.537438 -0.063437 -0.386726 0.443335 -0.258229
  9   6.790376 -0.619176 0.015206 -0.000324 -0.000352 -0.945609
 10   8.637599 0.544015 -0.090417 -3.685958 0.382230 -0.380073
 11   6.790465 -0.619039 0.017802 0.000067 -0.011509 -0.677132
 12   -2.022474 -0.104699 -2.873818 1.024133 1.149257 -2.211308
 13   1.167898 -0.537463 0.063297 -0.413611 -1.213921 -0.749209
 14   7.002743 -0.617765 -0.183752 0.000286 0.000421 -1.504487
 15   8.209042 0.615527 -0.255885 1.663061 0.687758 -0.096407
 16   7.002735 -0.617911 -0.183641 0.013780 0.008383 -1.071779
 17   1.574674 0.609930 -0.000899 0.209072 -0.005625 0.083376
 18   -0.602177 0.511412 -0.000006 0.000000 0.000000 0.000000
 19   3.646428 0.364526 1.119313 -0.000002 -0.000014 -0.174510
 20   3.646422 0.364499 -1.117566 0.000007 -0.000003 -0.174546
 21   3.805634 1.330634 1.627658 0.000002 -0.000011 -0.000026
 22   -0.246060 -0.011889 0.516521 -0.000011 0.000031 0.000025
 23   3.805651 1.330659 -1.631083 0.000019 0.000002 -0.000024
 24   -0.246150 -0.011872 -0.516511 -0.000005 -0.000006 0.000048
 25   4.941364 1.997338 1.629330 0.000018 -0.000001 -0.000024
 26   4.941382 1.997366 -1.629410 -0.000001 0.000005 -0.000024
 27   2.930087 1.603639 1.514501 -0.000019 -0.000022 -0.000050
 28   2.932517 1.603245 -1.501142 -0.000002 -0.000009 -0.000024
 29   8.824059 0.150544 0.091743 0.044210 -0.015305 -0.043579
 30   2.142336 -0.561179 1.710099 -0.001161 0.083331 0.005578
 31   2.172073 -0.561289 -1.802816 0.000215 -0.110755 0.006203
 32   -0.810489 -0.093824 3.127092 3.071872 -0.114782 1.239365
 33   14.298673 -0.408176 0.475484 0.000248 0.000062 -1.896136
 34   15.835795 0.581398 0.242756 -0.214729 0.106889 -0.097869
 35   -0.815868 -0.091229 -3.114430 0.066464 3.132725 -1.010185
 36   14.294526 -0.410349 -0.463635 0.000033 -0.000000 -2.607695
 37   15.834409 0.579420 -0.284600 -0.006092 -0.035255 0.214458
 38   1.159217 -3.461562 -2.823813 0.004505 -0.003350 0.010326
 39   -4.465555 -0.910318 -0.714929 0.005789 0.012776 -0.051015
 40   1.098569 -3.441956 3.237290 -0.002126 -0.004048 0.016740
 41   -4.355712 -0.965377 0.990817 0.000610 0.001234 -0.005048
 42   -0.618404 1.697302 -2.536265 0.037548 0.058464 -0.005646
 43   -0.664068 1.679046 2.736560 -0.044042 -0.066310 0.011417
time 9
  0   -0.967547 0.175787 -20.574476 0.000000 0.000000 -1.572114
  1   -1.093036 0.000002 -0.326057 -1.570757 -1.570379 -0.000123
  2   2.262337 0.113614 0.064702 -0.000052 0.000073 -0.103775
  3   2.380047 0.353302 0.047440 0.000000 -0.000028 -0.200362
  4   2.033756 0.190472 -0.000128 -0.156901 -0.000347 -0.004737
  5   2.451511 0.204909 -0.003447 -0.052001 -0.005018 -0.100362
  6   7.247600 -0.397300 -0.109469 0.000001 0.000033 0.052393
  7   -2.022252 -0.104661 3.136172 1.349016 -0.824798 -4.467662
  8   1.168026 -0.537438 -0.063437 -0.389573 0.438505 -0.260380
  9   6.790376 -0.619176 0.015206 -0.000324 -0.000352 -0.945609
 10   8.637599 0.544015 -0.090417 -3.685958 0.382230 -0.380073
 11   6.790465 -0.619039 0.017802 0.000067 -0.011509 -0.677132
 12   -2.022474 -0.104699 -2.873818 1.018097 1.147400 -2.218392
 13   1.167898 -0.537463 0.063297 -0.406301 -1.209548 -0.757260
 14   7.002743 -0.617765 -0.183752 0.000286 0.000421 -1.504487
 15   8.209042 0.615527 -0.255885 1.663061 0.687909 -0.096407
 16   7.002735 -0.617911 -0.183641 0.013780 0.008383 -1.071779
 17   1.574674 0.609930 -0.000899 0.209072 -0.005554 0.078054
 18   -0.602177 0.511412 -0.000006 0.000000 0.000000 0.000000
 19   3.646428 0.364526 1.119313 -0.000002 -0.000014 -0.174510
 20   3.646422 0.364499 -1.117566 0.000007 -0.000003 -0.174546
 21   3.805634 1.330634 1.627658 0.000002 -0.000011 -0.000026
 22   -0.246060 -0.011889 0.516521 -0.000011 0.000031 0.000025
 23   3.805651 1.330659 -1.631083 0.000019 0.000002 -0.000024
 24   -0.246150 -0.011872 -0.516511 -0.000005 -0.000006 0.000048
 25   4.941364 1.997338 1.629330 0.000018 -0.000001 -0.000024
 26   4.941382 1.997366 -1.629410 -0.000001 0.000005 -0.000024
 27   2.930087 1.603639 1.514501 -0.000019 -0.000022 -0.000050
 28   2.932517 1.603245 -1.501142 -0.000002 -0.000009 -0.000024
 29   8.824059 0.150544 0.091743 0.051963 -0.018628 -0.020242
 30   2.150149 -0.561179 1.698380 -0.001378 0.098326 0.006607
 31   2.183792 -0.561289 -1.791097 0.000245 -0.130491 0.007313
 32   -0.810489 -0.093824 3.127092 3.071872 -0.114782 1.239365
 33   14.298673 -0.408176 0.475484 0.000248 0.000062 -1.896136
 34   15.835795 0.581398 0.242756 -0.214729 0.106889 -0.097869
 35   -0.815868 -0.091229 -3.114430 0.066464 3.132725 -1.010185
 36   14.294526 -0.410349 -0.463635 0.000033 -0.000000 -2.607695
 37   15.834409 0.579420 -0.284600 -0.006092 -0.035255 0.214458
 38   1.167030 -3.461562 -2.823813 0.005304 -0.003965 0.012159
 39   -4.465555 -0.886880 -0.707116 0.006807 0.015065 -0.060130
 40   1.090756 -3.441956 3.237290 -0.002526 -0.004771 0.019734
 41   -4.343993 -0.953658 0.990817 0.000718 0.001450 -0.005974
 42   -0.614498 1.689489 -2.508921 0.044223 0.068921 -0.006650
 43   -0.664068 1.679046 2.713122 -0.051888 -0.078126 0.013466
time 10
  0   -0.967547 0.175787 -20.574476 0.000000 0.000000 -1.572114
  1   -1.093036 0.000002 -0.326057 -1.570757 -1.570379 -0.000123
  2   2.262337 0.113614 0.064702 -0.000052 0.000073 -0.103775
  3   2.380047 0.353302 0.047440 0.000000 -0.000028 -0.200362
  4   2.033756 0.190472 -0.000128 -0.156901 -0.000312 -0.003541
  5   2.451511 0.204909 -0.003447 -0.052001 -0.004953 -0.096672
  6   7.247600 -0.397300 -0.109469 0.000001 0.000033 0.052393
  7   -2.022252 -0.104661 3.136172 1.349016 -0.824798 -4.467662
  8   1.168026 -0.537438 -0.063437 -0.391915 0.434178 -0.262404
  9   6.790376 -0.619176 0.015206 -0.000324 -0.000352 -0.945609
 10   8.637599 0.544015 -0.090417 -3.685958 0.382230 -0.380073
 11   6.790465 -0.619039 0.017802 0.000067 -0.011509 -0.677132
 12   -2.022474 -0.104699 -2.873818 1.012253 1.145920 -2.224711
 13   1.167898 -0.537463 0.063297 -0.399201 -1.205531 -0.764524
 14   7.002743 -0.617765 -0.183752 0.000286 0.000421 -1.504487
 15   8.209042 0.615527 -0.255885 1.663061 0.687758 -0.096407
 16   7.002735 -0.617911 -0.183641 0.013780 0.008383 -1.071779
 17   1.574674 0.609930 -0.000899 0.209072 -0.005483 0.073064
 18   -0.602177 0.511412 -0.000006 0.000000 0.000000 0.000000
 19   3.646428 0.364526 1.119313 -0.000002 -0.000014 -0.174510
 20   3.646422 0.364499 -1.117566 0.000007 -0.000003 -0.174546
 21   3.805634 1.330634 1.627658 0.000002 -0.000011 -0.000026
 22   -0.246060 -0.011889 0.516521 -0.000011 0.000031 0.000025
 23   3.805651 1.330659 -1.631083 0.000019 0.000002 -0.000024
 24   -0.246150 -0.011872 -0.516511 -0.000005 -0.000006 0.000048
 25   4.941364 1.997338 1.629330 0.000018 -0.000001 -0.000024
 26   4.941382 1.997366 -1.629410 -0.000001 0.000005 -0.000024
 27   2.930087 1.603639 1.514501 -0.000019 -0.000022 -0.000050
 28   2.932517 1.603245 -1.501142 -0.000002 -0.000009 -0.000024
 29   8.824059 0.150544 0.091743 0.059093 -0.021928 0.001754
 30   2.154055 -0.553366 1.682754 -0.001554 0.112507 0.007529
 31   2.191605 -0.561289 -1.783284 0.000276 -0.149166 0.008350
 32   -0.810489 -0.093824 3.127092 3.071872 -0.114782 1.239365
 33   14.298673 -0.408176 0.475484 0.000248 0.000062 -1.896136
 34   15.835795 0.581398 0.242756 -0.214729 0.106889 -0.097869
 35   -0.815868 -0.091229 -3.114430 0.066464 3.132725 -1.010185
 36   14.294526 -0.410349 -0.463635 0.000033 -0.000000 -2.607695
 37   15.834409 0.579420 -0.284600 -0.006092 -0.035255 0.214458
 38   1.170936 -3.465468 -2.823813 0.006062 -0.004519 0.013931
 39   -4.473368 -0.855629 -0.707116 0.007790 0.017222 -0.068740
 40   1.086850 -3.438050 3.237290 -0.002884 -0.005470 0.022544
 41   -4.332274 -0.934126 1.002536 0.000838 0.001678 -0.006815
 42   -0.606685 1.689489 -2.481576 0.050575 0.078764 -0.007611
 43   -0.664068 1.679046 2.689684 -0.059322 -0.089314 0.015390
time 11
  0   -0.967547 0.175787 -20.574476 0.000000 0.000000 -1.572114
  1   -1.093036 0.000002 -0.326057 -1.570757 -1.570379 -0.000123
  2   2.262337 0.113614 0.064702 -0.000052 0.000073 -0.103775
  3   2.380047 0.353302 0.047440 0.000000 -0.000028 -0.200362
  4   2.033756 0.190472 -0.000128 -0.156901 -0.000144 -0.002381
  5   2.451511 0.204909 -0.003447 -0.052001 -0.004796 -0.093353
  6   7.247600 -0.397300 -0.109469 0.000001 0.000033 0.052393
  7   -2.022252 -0.104661 3.136172 1.349016 -0.824798 -4.467662
  8   1.168026 -0.537438 -0.063437 -0.394066 0.430203 -0.264112
  9   6.790376 -0.619176 0.015206 -0.000324 -0.000352 -0.945609
 10   8.637599 0.544015 -0.090417 -3.685958 0.382230 -0.380073
 11   6.790465 -0.619039 0.017802 0.000067 -0.011509 -0.677132
 12   -2.022474 -0.104699 -2.873818 1.007271 1.144178 -2.230264
 13   1.167898 -0.537463 0.063297 -0.393788 -1.201971 -0.770759
 14   7.002743 -0.617765 -0.183752 0.000286 0.000421 -1.504487
 15   8.209042 0.615527 -0.255885 1.663061 0.687758 -0.096407
 16   7.002735 -0.617911 -0.183641 0.013780 0.008383 -1.071779
 17   1.574674 0.609930 -0.000899 0.209072 -0.005412 0.068777
 18   -0.602177 0.511412 -0.000006 0.000000 0.000000 0.000000
 19   3.646428 0.364526 1.119313 -0.000002 -0.000014 -0.174510
 20   3.646422 0.364499 -1.117566 0.000007 -0.000003 -0.174546
 21   3.805634 1.330634 1.627658 0.000002 -0.000011 -0.000026
 22   -0.246060 -0.011889 0.516521 -0.000011 0.000031 0.000025
 23   3.805651 1.330659 -1.631083 0.000019 0.000002 -0.000024
 24   -0.246150 -0.011872 -0.516511 -0.000005 -0.000006 0.000048
 25   4.941364 1.997338 1.629330 0.000018 -0.000001 -0.000024
 26   4.941382 1.997366 -1.629410 -0.000001 0.000005 -0.000024
 27   2.930087 1.603639 1.514501 -0.000019 -0.000022 -0.000050
 28   2.932517 1.603245 -1.501142 -0.000002 -0.000009 -0.000024
 29   8.824059 0.150544 0.091743 0.065599 -0.024990 0.021550
 30   2.161868 -0.553366 1.671035 -0.001744 0.125323 0.008387
 31   2.195511 -0.561289 -1.771565 0.000322 -0.166080 0.009296
 32   -0.810489 -0.093824 3.127092 3.071872 -0.114782 1.239365
 33   14.298673 -0.408176 0.475484 0.000248 0.000062 -1.896136
 34   15.835795 0.581398 0.242756 -0.214729 0.106889 -0.097869
 35   -0.815868 -0.091229 -3.114430 0.066464 3.132725 -1.010185
 36   14.294526 -0.410349 -0.463635 0.000033 -0.000000 -2.607695
 37   15.834409 0.579420 -0.284600 -0.006092 -0.035255 0.214458
 38   1.178749 -3.465468 -2.823813 0.006778 -0.005037 0.015519
 39   -4.473368 -0.836097 -0.695397 0.008677 0.019151 -0.076509
 40   1.079037 -3.438050 3.237290 -0.003221 -0.006097 0.025110
 41   -4.316648 -0.922407 1.002536 0.000934 0.001870 -0.007628
 42   -0.594966 1.689489 -2.458138 0.056304 0.087703 -0.008490
 43   -0.664068 1.671233 2.670152 -0.066044 -0.099435 0.017147
time 12
  0   -0.967547 0.175787 -20.574476 0.000000 0.000000 -1.572114
  1   -1.093036 0.000002 -0.326057 -1.570757 -1.570379 -0.000123
  2   2.262337 0.113614 0.064702 -0.000052 0.000073 -0.103775
  3   2.380047 0.353302 0.047440 0.000000 -0.000028 -0.200362
  4   2.033756 0.190472 -0.000128 -0.156901 -0.000012 -0.001620
  5   2.451511 0.204909 -0.003447 -0.052087 -0.004679 -0.090654
  6   7.247600 -0.397300 -0.109469 0.000001 0.000033 0.052393
  7   -2.022252 -0.104661 3.136172 1.349016 -0.824798 -4.467662
  8   1.168026 -0.537438 -0.063437 -0.395965 0.427134 -0.265567
  9   6.790376 -0.619176 0.015206 -0.000324 -0.000352 -0.945609
 10   8.637599 0.544015 -0.090417 -3.685958 0.382230 -0.380073
 11   6.790465 -0.619039 0.017802 0.000067 -0.011509 -0.677132
 12   -2.022474 -0.104699 -2.873818 1.003247 1.142988 -2.234668
 13   1.167898 -0.537463 0.063297 -0.389079 -1.199072 -0.775844
 14   7.002743 -0.617765 -0.183752 0.000286 0.000421 -1.504487
 15   8.209042 0.615527 -0.255885 1.663061 0.687758 -0.096407
 16   7.002735 -0.617911 -0.183641 0.013780 0.008383 -1.071779
 17   1.574674 0.609930 -0.000899 0.209072 -0.005412 0.065191
 18   -0.602177 0.511412 -0.000006 0.000000 0.000000 0.000000
 19   3.646428 0.364526 1.119313 -0.000002 -0.000014 -0.174510
 20   3.646422 0.364499 -1.117566 0.000007 -0.000003 -0.174546
 21   3.805634 1.330634 1.627658 0.000002 -0.000011 -0.000026
 22   -0.246060 -0.011889 0.516521 -0.000011 0.000031 0.000025
 23   3.805651 1.330659 -1.631083 0.000019 0.000002 -0.000024
 24   -0.246150 -0.011872 -0.516511 -0.000005 -0.000006 0.000048
 25   4.941364 1.997338 1.629330 0.000018 -0.000001 -0.000024
 26   4.941382 1.997366 -1.629410 -0.000001 0.000005 -0.000024
 27   2.930087 1.603639 1.514501 -0.000019 -0.000022 -0.000050
 28   2.932517 1.603245 -1.501142 -0.000002 -0.000009 -0.000024
 29   8.824059 0.150544 0.091743 0.070946 -0.027743 0.038503
 30   2.165774 -0.553366 1.659316 -0.001893 0.136221 0.009116
 31   2.207230 -0.561289 -1.763752 0.000337 -0.180429 0.010078
 32   -0.810489 -0.093824 3.127092 3.071872 -0.114782 1.239365
 33   14.298673 -0.408176 0.475484 0.000248 0.000062 -1.896136
 34   15.835795 0.581398 0.242756 -0.214729 0.106889 -0.097869
 35   -0.815868 -0.091229 -3.114430 0.066464 3.132725 -1.010185
 36   14.294526 -0.410349 -0.463635 0.000033 -0.000000 -2.607695
 37   15.834409 0.579420 -0.284600 -0.006092 -0.035255 0.214458
 38   1.178749 -3.465468 -2.823813 0.007346 -0.005471 0.016802
 39   -4.473368 -0.820472 -0.695397 0.009432 0.020817 -0.083156
 40   1.079037 -3.438050 3.237290 -0.003473 -0.006627 0.027248
 41   -4.308836 -0.910688 1.010349 0.001018 0.002013 -0.008273
 42   -0.594966 1.689489 -2.438606 0.061157 0.095277 -0.009201
 43   -0.664068 1.667327 2.650620 -0.071766 -0.108033 0.018610
time 13
  0   -0.967547 0.175787 -20.574476 0.000000 0.000000 -1.572114
  1   -1.093036 0.000002 -0.326057 -1.570757 -1.570379 -0.000123
  2   2.262337 0.113614 0.064702 -0.000052 0.000073 -0.103775
  3   2.380047 0.353302 0.047440 0.000000 -0.000028 -0.200362
  4   2.033756 0.190472 -0.000128 -0.156901 0.000072 -0.000895
  5   2.451511 0.204909 -0.003447 -0.052087 -0.004392 -0.088648
  6   7.247600 -0.397300 -0.109469 0.000001 0.000033 0.052393
  7   -2.022252 -0.104661 3.136172 1.349016 -0.824798 -4.467662
  8   1.168026 -0.537438 -0.063437 -0.397547 0.424719 -0.266516
  9   6.790376 -0.619176 0.015206 -0.000324 -0.000352 -0.945609
 10   8.637599 0.544015 -0.090417 -3.685958 0.382230 -0.380073
 11   6.790465 -0.619039 0.017802 0.000067 -0.011509 -0.677132
 12   -2.022474 -0.104699 -2.873818 0.999989 1.142146 -2.238402
 13   1.167898 -0.537463 0.063297 -0.385986 -1.196682 -0.779658
 14   7.002743 -0.617765 -0.183752 0.000286 0.000421 -1.504487
 15   8.209042 0.615527 -0.255885 1.663061 0.687758 -0.096407
 16   7.002735 -0.617911 -0.183641 0.013780 0.008383 -1.071779
 17   1.574674 0.609930 -0.000899 0.209072 -0.005341 0.062493
 18   -0.602177 0.511412 -0.000006 0.000000 0.000000 0.000000
 19   3.646428 0.364526 1.119313 -0.000002 -0.000014 -0.174510
 20   3.646422 0.364499 -1.117566 0.000007 -0.000003 -0.174546
 21   3.805634 1.330634 1.627658 0.000002 -0.000011 -0.000026
 22   -0.246060 -0.011889 0.516521 -0.000011 0.000031 0.000025
 23   3.805651 1.330659 -1.631083 0.000019 0.000002 -0.000024
 24   -0.246150 -0.011872 -0.516511 -0.000005 -0.000006 0.000048
 25   4.941364 1.997338 1.629330 0.000018 -0.000001 -0.000024
 26   4.941382 1.997366 -1.629410 -0.000001 0.000005 -0.000024
 27   2.930087 1.603639 1.514501 -0.000019 -0.000022 -0.000050
 28   2.932517 1.603245 -1.501142 -0.000002 -0.000009 -0.000024
 29   8.824059 0.150544 0.091743 0.075135 -0.029951 0.051593
 30   2.169681 -0.553366 1.651503 -0.002015 0.144677 0.009652
 31   2.215043 -0.561289 -1.759846 0.000368 -0.191619 0.010715
 32   -0.810489 -0.093824 3.127092 3.071872 -0.114782 1.239365
 33   14.298673 -0.408176 0.475484 0.000248 0.000062 -1.896136
 34   15.835795 0.581398 0.242756 -0.214729 0.106889 -0.097869
 35   -0.815868 -0.091229 -3.114430 0.066464 3.132725 -1.010185
 36   14.294526 -0.410349 -0.463635 0.000033 -0.000000 -2.607695
 37   15.834409 0.579420 -0.284600 -0.006092 -0.035255 0.214458
 38   1.178749 -3.473281 -2.823813 0.007788 -0.005808 0.017902
 39   -4.473368 -0.800940 -0.687584 0.009995 0.022112 -0.088288
 40   1.079037 -3.430237 3.237290 -0.003726 -0.007037 0.028959
 41   -4.301023 -0.902875 1.010349 0.001078 0.002145 -0.008778
 42   -0.587153 1.689489 -2.426887 0.064944 0.101180 -0.009744
 43   -0.664068 1.667327 2.638901 -0.076214 -0.114734 0.019781
time 14
  0   -0.967547 0.175787 -20.574476 0.000000 0.000000 -1.572114
  1   -1.093036 0.000002 -0.326057 -1.570757 -1.570379 -0.000123
  2   2.262337 0.113614 0.064702 -0.000052 0.000073 -0.103775
  3   2.380047 0.353302 0.047440 0.000000 -0.000028 -0.200362
  4   2.033756 0.190472 -0.000128 -0.156901 0.000108 -0.000315
  5   2.451511 0.204909 -0.003447 -0.052104 -0.004313 -0.087385
  6   7.247600 -0.397300 -0.109469 0.000001 0.000033 0.052393
  7   -2.022252 -0.104661 3.136172 1.349016 -0.824798 -4.467662
  8   1.168026 -0.537438 -0.063437 -0.398369 0.423159 -0.266769
  9   6.790376 -0.619176 0.015206 -0.000324 -0.000352 -0.945609
 10   8.637599 0.544015 -0.090417 -3.685958 0.382230 -0.380073
 11   6.790465 -0.619039 0.017802 0.000067 -0.011566 -0.677132
 12   -2.022474 -0.104699 -2.873818 0.997690 1.141740 -2.240604
 13   1.167898 -0.537463 0.063297 -0.383666 -1.195309 -0.781837
 14   7.002743 -0.617765 -0.183752 0.000286 0.000421 -1.504487
 15   8.209042 0.615527 -0.255885 1.663061 0.687758 -0.096407
 16   7.002735 -0.617911 -0.183641 0.013780 0.008383 -1.071779
 17   1.574674 0.609930 -0.000899 0.209072 -0.005341 0.060682
 18   -0.602177 0.511412 -0.000006 0.000000 0.000000 0.000000
 19   3.654241 0.270773 1.119313 -0.000002 -0.000014 -0.174510
 20   3.654235 0.270746 -1.117566 0.000007 -0.000003 -0.174546
 21   3.352495 1.260319 1.576875 0.000002 -0.000011 -0.000026
 22   -0.238247 -0.379088 0.496989 0.000083 -0.028708 0.445010
 23   3.364231 1.256438 -1.623270 0.000019 0.000002 -0.000024
 24   -0.164116 -0.285318 -0.528230 0.000091 -0.028733 0.445062
 25   4.535101 1.997338 1.637143 -0.032209 0.220343 0.007203
 26   4.531213 1.997366 -1.621597 0.035749 -0.204340 -0.020853
 27   3.117593 1.466916 1.506688 -0.000019 -0.000022 -0.000050
 28   3.120023 1.466522 -1.508955 -0.000002 -0.000009 -0.000024
 29   8.824059 0.150544 0.091743 0.077808 -0.031375 0.060015
 30   2.173587 -0.553366 1.647597 -0.002083 0.150169 0.010038
 31   2.215043 -0.561289 -1.759846 0.000383 -0.198819 0.011134
 32   -0.810489 -0.093824 3.127092 3.071872 -0.114782 1.239365
 33   14.298673 -0.408176 0.475484 0.000248 0.000062 -1.896136
 34   15.835795 0.581398 0.242756 -0.214729 0.106889 -0.097869
 35   -0.815868 -0.091229 -3.114430 0.066464 3.132725 -1.010185
 36   14.294526 -0.410349 -0.463635 0.000033 -0.000000 -2.607695
 37   15.834409 0.579420 -0.284600 -0.006092 -0.035255 0.214458
 38   1.178749 -3.473281 -2.823813 0.008104 -0.006037 0.018574
 39   -4.473368 -0.793127 -0.687584 0.010391 0.022939 -0.091625
 40   1.079037 -3.430237 3.237290 -0.003852 -0.007302 0.030059
 41   -4.297117 -0.891156 1.018162 0.001126 0.002229 -0.009115
 42   -0.583247 1.689489 -2.415168 0.067389 0.104998 -0.010163
 43   -0.664068 1.667327 2.627182 -0.079063 -0.119049 0.020534
time 15
  0   -0.967547 0.175787 -20.574476 0.000000 0.000000 -1.572114
  1   -1.093036 0.000002 -0.326057 -1.570757 -1.570379 -0.000123
  2   2.262337 0.113614 0.064702 -0.000052 0.000073 -0.103775
  3   2.380047 0.353302 0.047440 0.000000 -0.000028 -0.200362
  4   2.033756 0.190472 -0.000128 -0.156901 0.000132 -0.000315
  5   2.451511 0.204909 -0.003447 -0.052104 -0.004287 -0.086914
  6   7.247600 -0.397300 -0.109469 0.000001 0.000033 0.052393
  7   -2.022252 -0.104661 3.136172 1.349016 -0.824798 -4.467662
  8   1.168026 -0.537438 -0.063437 -0.398686 0.422958 -0.267465
  9   6.790376 -0.619176 0.015206 -0.000324 -0.000352 -0.945609
 10   8.637599 0.544015 -0.090417 -3.685958 0.382230 -0.380073
 11   6.790465 -0.619039 0.017802 0.000067 -0.011509 -0.677132
 12   -2.022474 -0.104699 -2.873818 0.997211 1.141537 -2.241370
 13   1.167898 -0.537463 0.063297 -0.382963 -1.194902 -0.782866
 14   7.002743 -0.617765 -0.183752 0.000286 0.000421 -1.504487
 15   8.209042 0.615527 -0.255885 1.663061 0.687909 -0.096407
 16   7.002735 -0.617911 -0.183641 0.013780 0.008383 -1.071779
 17   1.574674 0.609930 -0.000899 0.209072 -0.005341 0.060239
 18   -0.602177 0.511412 -0.000006 0.000000 0.000000 0.000000
 19   3.673773 0.177020 1.119313 -0.000002 -0.000014 -0.174510
 20   3.673767 0.176993 -1.117566 0.000007 -0.000003 -0.174546
 21   2.899356 1.193911 1.522186 0.000002 -0.000011 -0.000026
 22   -0.226528 -0.754099 0.477457 0.000194 -0.057459 0.890061
 23   2.918905 1.182217 -1.611551 0.000019 0.000002 -0.000024
 24   -0.078176 -0.558764 -0.547762 0.000187 -0.057484 0.890104
 25   4.117120 1.989525 1.648862 -0.064411 0.440688 0.014417
 26   4.117138 1.989553 -1.609878 0.071523 -0.408734 -0.041694
 27   3.305099 1.322380 1.487156 -0.000019 -0.000022 -0.000050
 28   3.303622 1.321986 -1.528487 -0.000002 -0.000009 -0.000024
 29   8.824059 0.150544 0.091743 0.078789 -0.031898 0.063020
 30   2.173587 -0.553366 1.647597 -0.002110 0.152116 0.010166
 31   2.215043 -0.561289 -1.752033 0.000383 -0.201410 0.011261
 32   -0.810489 -0.093824 3.127092 3.071872 -0.114782 1.239365
 33   14.298673 -0.408176 0.475484 0.000248 0.000062 -1.896136
 34   15.835795 0.581398 0.242756 -0.214729 0.106889 -0.097869
 35   -0.815868 -0.091229 -3.114430 0.066464 3.132725 -1.010185
 36   14.294526 -0.410349 -0.463635 0.000033 -0.000000 -2.607695
 37   15.834409 0.579420 -0.284600 -0.006092 -0.035255 0.214458
 38   1.182655 -3.473281 -2.823813 0.008188 -0.006122 0.018757
 39   -4.473368 -0.793127 -0.683678 0.010510 0.023238 -0.092803
 40   1.075131 -3.430237 3.237290 -0.003894 -0.007374 0.030364
 41   -4.297117 -0.891156 1.018162 0.001138 0.002253 -0.009199
 42   -0.583247 1.689489 -2.415168 0.068264 0.106347 -0.010288
 43   -0.664068 1.667327 2.627182 -0.080100 -0.120587 0.020785
time 16
  0   -0.967547 0.175787 -20.574476 0.000000 0.000000 -1.572114
  1   -1.093036 0.000002 -0.326057 -1.570757 -1.570379 -0.000123
  2   2.262337 0.113614 0.064702 -0.000052 0.000073 -0.103775
  3   2.380047 0.353302 0.047440 0.000000 -0.000028 -0.200362
  4   2.033756 0.190472 -0.000128 -0.156901 0.000108 -0.000315
  5   2.451511 0.204909 -0.003447 -0.052104 -0.004313 -0.087385
  6   7.247600 -0.397300 -0.109469 0.000001 0.000033 0.052393
  7   -2.022252 -0.104661 3.136172 1.349016 -0.824798 -4.467662
  8   1.168026 -0.537438 -0.063437 -0.398369 0.423159 -0.266769
  9   6.790376 -0.619176 0.015206 -0.000324 -0.000352 -0.945609
 10   8.637599 0.544015 -0.090417 -3.685958 0.382230 -0.380073
 11   6.790465 -0.619039 0.017802 0.000067 -0.011566 -0.677132
 12   -2.022474 -0.104699 -2.873818 0.997690 1.141740 -2.240604
 13   1.167898 -0.537463 0.063297 -0.383666 -1.195309 -0.781837
 14   7.002743 -0.617765 -0.183752 0.000286 0.000421 -1.504487
 15   8.209042 0.615527 -0.255885 1.663061 0.687758 -0.096407
 16   7.002735 -0.617911 -0.183641 0.013780 0.008383 -1.071779
 17   1.574674 0.609930 -0.000899 0.209072 -0.005341 0.060682
 18   -0.602177 0.511412 -0.000006 0.000000 0.000000 0.000000
 19   3.654241 0.270773 1.119313 -0.000002 -0.000014 -0.174510
 20   3.654235 0.270746 -1.117566 0.000007 -0.000003 -0.174546
 21   3.352495 1.260319 1.576875 0.000002 -0.000011 -0.000026
 22   -0.238247 -0.379088 0.496989 0.000083 -0.028708 0.445010
 23   3.364231 1.256438 -1.623270 0.000019 0.000002 -0.000024
 24   -0.164116 -0.285318 -0.528230 0.000091 -0.028733 0.445062
 25   4.535101 1.997338 1.637143 -0.032209 0.220343 0.007203
 26   4.531213 1.997366 -1.621597 0.035749 -0.204340 -0.020853
 27   3.117593 1.466916 1.506688 -0.000019 -0.000022 -0.000050
 28   3.120023 1.466522 -1.508955 -0.000002 -0.000009 -0.000024
 29   8.824059 0.150544 0.091743 0.077808 -0.031375 0.060015
 30   2.173587 -0.553366 1.647597 -0.002083 0.150169 0.010038
 31   2.215043 -0.561289 -1.759846 0.000383 -0.198819 0.011134
 32   -0.810489 -0.093824 3.127092 3.071872 -0.114782 1.239365
 33   14.298673 -0.408176 0.475484 0.000248 0.000062 -1.896136
 34   15.835795 0.581398 0.242756 -0.214729 0.106889 -0.097869
 35   -0.815868 -0.091229 -3.114430 0.066464 3.132725 -1.010185
 36   14.294526 -0.410349 -0.463635 0.000033 -0.000000 -2.607695
 37   15.834409 0.579420 -0.284600 -0.006092 -0.035255 0.214458
 38   1.178749 -3.473281 -2.823813 0.008104 -0.006037 0.018574
 39   -4.473368 -0.793127 -0.687584 0.010391 0.022939 -0.091625
 40   1.079037 -3.430237 3.237290 -0.003852 -0.007302 0.030059
 41   -4.297117 -0.891156 1.018162 0.001126 0.002229 -0.009115
 42   -0.583247 1.689489 -2.415168 0.067389 0.104998 -0.010163
 43   -0.664068 1.667327 2.627182 -0.079063 -0.119049 0.020534
time 17
  0   -0.967547 0.175787 -20.574476 0.000000 0.000000 -1.572114
  1   -1.093036 0.000002 -0.326057 -1.570757 -1.570379 -0.000123
  2   2.262337 0.113614 0.064702 -0.000052 0.000073 -0.103775
  3   2.380047 0.353302 0.047440 0.000000 -0.000028 -0.200362
  4   2.033756 0.190472 -0.000128 -0.156901 0.000072 -0.000895
  5   2.451511 0.204909 -0.003447 -0.052087 -0.004392 -0.088648
  6   7.247600 -0.397300 -0.109469 0.000001 0.000033 0.052393
  7   -2.022252 -0.104661 3.136172 1.349016 -0.824798 -4.467662
  8   1.168026 -0.537438 -0.063437 -0.397547 0.424719 -0.266516
  9   6.790376 -0.619176 0.015206 -0.000324 -0.000352 -0.945609
 10   8.637599 0.544015 -0.090417 -3.685958 0.382230 -0.380073
 11   6.790465 -0.619039 0.017802 0.000067 -0.011509 -0.677132
 12   -2.022474 -0.104699 -2.873818 0.999989 1.142146 -2.238402
 13   1.167898 -0.537463 0.063297 -0.385986 -1.196682 -0.779658
 14   7.002743 -0.617765 -0.183752 0.000286 0.000421 -1.504487
 15   8.209042 0.615527 -0.255885 1.663061 0.687758 -0.096407
 16   7.002735 -0.617911 -0.183641 0.013780 0.008383 -1.071779
 17   1.574674 0.609930 -0.000899 0.209072 -0.005341 0.062493
 18   -0.602177 0.511412 -0.000006 0.000000 0.000000 0.000000
 19   3.646428 0.364526 1.119313 -0.000002 -0.000014 -0.174510
 20   3.646422 0.364499 -1.117566 0.000007 -0.000003 -0.174546
 21   3.805634 1.330634 1.627658 0.000002 -0.000011 -0.000026
 22   -0.246060 -0.011889 0.516521 -0.000011 0.000031 0.000025
 23   3.805651 1.330659 -1.631083 0.000019 0.000002 -0.000024
 24   -0.246150 -0.011872 -0.516511 -0.000005 -0.000006 0.000048
 25   4.941364 1.997338 1.629330 0.000018 -0.000001 -0.000024
 26   4.941382 1.997366 -1.629410 -0.000001 0.000005 -0.000024
 27   2.930087 1.603639 1.514501 -0.000019 -0.000022 -0.000050
 28   2.932517 1.603245 -1.501142 -0.000002 -0.000009 -0.000024
 29   8.824059 0.150544 0.091743 0.075135 -0.029951 0.051593
 30   2.169681 -0.553366 1.651503 -0.002015 0.144677 0.009652
 31   2.215043 -0.561289 -1.759846 0.000368 -0.191619 0.010715
 32   -0.810489 -0.093824 3.127092 3.071872 -0.114782 1.239365
 33   14.298673 -0.408176 0.475484 0.000248 0.000062 -1.896136
 34   15.835795 0.581398 0.242756 -0.214729 0.106889 -0.097869
 35   -0.815868 -0.091229 -3.114430 0.066464 3.132725 -1.010185
 36   14.294526 -0.410349 -0.463635 0.000033 -0.000000 -2.607695
 37   15.834409 0.579420 -0.284600 -0.006092 -0.035255 0.214458
 38   1.178749 -3.473281 -2.823813 0.007788 -0.005808 0.017902
 39   -4.473368 -0.800940 -0.687584 0.009995 0.022112 -0.088288
 40   1.079037 -3.430237 3.237290 -0.003726 -0.007037 0.028959
 41   -4.301023 -0.902875 1.010349 0.001078 0.002145 -0.008778
 42   -0.587153 1.689489 -2.426887 0.064944 0.101180 -0.009744
 43   -0.664068 1.667327 2.638901 -0.076214 -0.114734 0.019781
time 18
  0   -0.967547 0.175787 -20.574476 0.000000 0.000000 -1.572114
  1   -1.093036 0.000002 -0.326057 -1.570757 -1.570379 -0.000123
  2   2.262337 0.113614 0.064702 -0.000052 0.000073 -0.103775
  3   2.380047 0.353302 0.047440 0.000000 -0.000028 -0.200362
  4   2.033756 0.190472 -0.000128 -0.156901 -0.000012 -0.001620
  5   2.451511 0.204909 -0.003447 -0.052087 -0.004679 -0.090654
  6   7.247600 -0.397300 -0.109469 0.000001 0.000033 0.052393
  7   -2.022252 -0.104661 3.136172 1.349016 -0.824798 -4.467662
  8   1.168026 -0.537438 -0.063437 -0.395965 0.427134 -0.265567
  9   6.790376 -0.619176 0.015206 -0.000324 -0.000352 -0.945609
 10   8.637599 0.544015 -0.090417 -3.685958 0.382230 -0.380073
 11   6.790465 -0.619039 0.017802 0.000067 -0.011509 -0.677132
 12   -2.022474 -0.104699 -2.873818 1.003247 1.142988 -2.234668
 13   1.167898 -0.537463 0.063297 -0.389079 -1.199072 -0.775844
 14   7.002743 -0.617765 -0.183752 0.000286 0.000421 -1.504487
 15   8.209042 0.615527 -0.255885 1.663061 0.687758 -0.096407
 16   7.002735 -0.617911 -0.183641 0.013780 0.008383 -1.071779
 17   1.574674 0.609930 -0.000899 0.209072 -0.005412 0.065191
 18   -0.602177 0.511412 -0.000006 0.000000 0.000000 0.000000
 19   3.646428 0.364526 1.119313 -0.000002 -0.000014 -0.174510
 20   3.646422 0.364499 -1.117566 0.000007 -0.000003 -0.174546
 21   3.805634 1.330634 1.627658 0.000002 -0.000011 -0.000026
 22   -0.246060 -0.011889 0.516521 -0.000011 0.000031 0.000025
 23   3.805651 1.330659 -1.631083 0.000019 0.000002 -0.000024
 24   -0.246150 -0.011872 -0.516511 -0.000005 -0.000006 0.000048
 25   4.941364 1.997338 1.629330 0.000018 -0.000001 -0.000024
 26   4.941382 1.997366 -1.629410 -0.000001 0.000005 -0.000024
 27   2.930087 1.603639 1.514501 -0.000019 -0.000022 -0.000050
 28   2.932517 1.603245 -1.501142 -0.000002 -0.000009 -0.000024
 29   8.824059 0.150544 0.091743 0.070946 -0.027743 0.038503
 30   2.165774 -0.553366 1.659316 -0.001893 0.136221 0.009116
 31   2.207230 -0.561289 -1.763752 0.000337 -0.180429 0.010078
 32   -0.810489 -0.093824 3.127092 3.071872 -0.114782 1.239365
 33   14.298673 -0.408176 0.475484 0.000248 0.000062 -1.896136
 34   15.835795 0.581398 0.242756 -0.214729 0.106889 -0.097869
 35   -0.815868 -0.091229 -3.114430 0.066464 3.132725 -1.010185
 36   14.294526 -0.410349 -0.463635 0.000033 -0.000000 -2.607695
 37   15.834409 0.579420 -0.284600 -0.006092 -0.035255 0.214458
 38   1.178749 -3.465468 -2.823813 0.007346 -0.005471 0.016802
 39   -4.473368 -0.820472 -0.695397 0.009432 0.020817 -0.083156
 40   1.079037 -3.438050 3.237290 -0.003473 -0.006627 0.027248
 41   -4.308836 -0.910688 1.010349 0.001018 0.002013 -0.008273
 42   -0.594966 1.689489 -2.438606 0.061157 0.095277 -0.009201
 43   -0.664068 1.667327 2.650620 -0.071766 -0.108033 0.018610
time 19
  0   -0.967547 0.175787 -20.574476 0.000000 0.000000 -1.572114
  1   -1.093036 0.000002 -0.326057 -1.570757 -1.570379 -0.000123
  2   2.262337 0.113614 0.064702 -0.000052 0.000073 -0.103775
  3   2.380047 0.353302 0.047440 0.000000 -0.000028 -0.200362
  4   2.033756 0.190472 -0.000128 -0.156901 -0.000144 -0.002381
  5   2.451511 0.204909 -0.003447 -0.052001 -0.004796 -0.093353
  6   7.247600 -0.397300 -0.109469 0.000001 0.000033 0.052393
  7   -2.022252 -0.104661 3.136172 1.349016 -0.824798 -4.467662
  8   1.168026 -0.537438 -0.063437 -0.394066 0.430203 -0.264112
  9   6.790376 -0.619176 0.015206 -0.000324 -0.000352 -0.945609
 10   8.637599 0.544015 -0.090417 -3.685958 0.382230 -0.380073
 11   6.790465 -0.619039 0.017802 0.000067 -0.011509 -0.677132
 12   -2.022474 -0.104699 -2.873818 1.007271 1.144178 -2.230264
 13   1.167898 -0.537463 0.063297 -0.393788 -1.201971 -0.770759
 14   7.002743 -0.617765 -0.183752 0.000286 0.000421 -1.504487
 15   8.209042 0.615527 -0.255885 1.663061 0.687758 -0.096407
 16   7.002735 -0.617911 -0.183641 0.013780 0.008383 -1.071779
 17   1.574674 0.609930 -0.000899 0.209072 -0.005412 0.068777
 18   -0.602177 0.511412 -0.000006 0.000000 0.000000 0.000000
 19   3.646428 0.364526 1.119313 -0.000002 -0.000014 -0.174510
 20   3.646422 0.364499 -1.117566 0.000007 -0.000003 -0.174546
 21   3.805634 1.330634 1.627658 0.000002 -0.000011 -0.000026
 22   -0.246060 -0.011889 0.516521 -0.000011 0.000031 0.000025
 23   3.805651 1.330659 -1.631083 0.000019 0.000002 -0.000024
 24   -0.246150 -0.011872 -0.516511 -0.000005 -0.000006 0.000048
 25   4.941364 1.997338 1.629330 0.000018 -0.000001 -0.000024
 26   4.941382 1.997366 -1.629410 -0.000001 0.000005 -0.000024
 27   2.930087 1.603639 1.514501 -0.000019 -0.000022 -0.000050
 28   2.932517 1.603245 -1.501142 -0.000002 -0.000009 -0.000024
 29   8.824059 0.150544 0.091743 0.065599 -0.024990 0.021550
 30   2.161868 -0.553366 1.671035 -0.001744 0.125323 0.008387
 31   2.195511 -0.561289 -1.771565 0.000322 -0.166080 0.009296
 32   -0.810489 -0.093824 3.127092 3.071872 -0.114782 1.239365
 33   14.298673 -0.408176 0.475484 0.000248 0.000062 -1.896136
 34   15.835795 0.581398 0.242756 -0.214729 0.106889 -0.097869
 35   -0.815868 -0.091229 -3.114430 0.066464 3.132725 -1.010185
 36   14.294526 -0.410349 -0.463635 0.000033 -0.000000 -2.607695
 37   15.834409 0.579420 -0.284600 -0.006092 -0.035255 0.214458
 38   1.178749 -3.465468 -2.823813 0.006778 -0.005037 0.015519
 39   -4.473368 -0.836097 -0.695397 0.008677 0.019151 -0.076509
 40   1.079037 -3.438050 3.237290 -0.003221 -0.006097 0.025110
 41   -4.316648 -0.922407 1.002536 0.000934 0.001870 -0.007628
 42   -0.594966 1.689489 -2.458138 0.056304 0.087703 -0.008490
 43   -0.664068 1.671233 2.670152 -0.066044 -0.099435 0.017147
time 20
  0   -0.967547 0.175787 -20.574476 0.000000 0.000000 -1.572114
  1   -1.093036 0.000002 -0.326057 -1.570757 -1.570379 -0.000123
  2   2.262337 0.113614 0.064702 -0.000052 0.000073 -0.103775
  3   2.380047 0.353302 0.047440 0.000000 -0.000028 -0.200362
  4   2.033756 0.190472 -0.000128 -0.156901 -0.000312 -0.003541
  5   2.451511 0.204909 -0.003447 -0.052001 -0.004953 -0.096672
  6   7.247600 -0.397300 -0.109469 0.000001 0.000033 0.052393
  7   -2.022252 -0.104661 3.136172 1.349016 -0.824798 -4.467662
  8   1.168026 -0.537438 -0.063437 -0.391915 0.434178 -0.262404
  9   6.790376 -0.619176 0.015206 -0.000324 -0.000352 -0.945609
 10   8.637599 0.544015 -0.090417 -3.685958 0.382230 -0.380073
 11   6.790465 -0.619039 0.017802 0.000067 -0.011509 -0.677132
 12   -2.022474 -0.104699 -2.873818 1.012253 1.145920 -2.224711
 13   1.167898 -0.537463 0.063297 -0.399201 -1.205531 -0.764524
 14   7.002743 -0.617765 -0.183752 0.000286 0.000421 -1.504487
 15   8.209042 0.615527 -0.255885 1.663061 0.687758 -0.096407
 16   7.002735 -0.617911 -0.183641 0.013780 0.008383 -1.071779
 17   1.574674 0.609930 -0.000899 0.209072 -0.005483 0.073064
 18   -0.602177 0.511412 -0.000006 0.000000 0.000000 0.000000
 19   3.646428 0.364526 1.119313 -0.000002 -0.000014 -0.174510
 20   3.646422 0.364499 -1.117566 0.000007 -0.000003 -0.174546
 21   3.805634 1.330634 1.627658 0.000002 -0.000011 -0.000026
 22   -0.246060 -0.011889 0.516521 -0.000011 0.000031 0.000025
 23   3.805651 1.330659 -1.631083 0.000019 0.000002 -0.000024
 24   -0.246150 -0.011872 -0.516511 -0.000005 -0.000006 0.000048
 25   4.941364 1.997338 1.629330 0.000018 -0.000001 -0.000024
 26   4.941382 1.997366 -1.629410 -0.000001 0.000005 -0.000024
 27   2.930087 1.603639 1.514501 -0.000019 -0.000022 -0.000050
 28   2.932517 1.603245 -1.501142 -0.000002 -0.000009 -0.000024
 29   8.824059 0.150544 0.091743 0.059093 -0.021928 0.001754
 30   2.154055 -0.553366 1.682754 -0.001554 0.112507 0.007529
 31   2.191605 -0.561289 -1.783284 0.000276 -0.149166 0.008350
 32   -0.810489 -0.093824 3.127092 3.071872 -0.114782 1.239365
 33   14.298673 -0.408176 0.475484 0.000248 0.000062 -1.896136
 34   15.835795 0.581398 0.242756 -0.214729 0.106889 -0.097869
 35   -0.815868 -0.091229 -3.114430 0.066464 3.132725 -1.010185
 36   14.294526 -0.410349 -0.463635 0.000033 -0.000000 -2.607695
 37   15.834409 0.579420 -0.284600 -0.006092 -0.035255 0.214458
 38   1.170936 -3.465468 -2.823813 0.006062 -0.004519 0.013931
 39   -4.473368 -0.855629 -0.707116 0.007790 0.017222 -0.068740
 40   1.086850 -3.438050 3.237290 -0.002884 -0.005470 0.022544
 41   -4.332274 -0.934126 1.002536 0.000838 0.001678 -0.006815
 42   -0.606685 1.689489 -2.481576 0.050575 0.078764 -0.007611
 43   -0.664068 1.679046 2.689684 -0.059322 -0.089314 0.015390
time 21
  0   -0.967547 0.175787 -20.574476 0.000000 0.000000 -1.572114
  1   -1.093036 0.000002 -0.326057 -1.570757 -1.570379 -0.000123
  2   2.262337 0.113614 0.064702 -0.000052 0.000073 -0.103775
  3   2.380047 0.353302 0.047440 0.000000 -0.000028 -0.200362
  4   2.033756 0.190472 -0.000128 -0.156901 -0.000347 -0.004737
  5   2.451511 0.204909 -0.003447 -0.052001 -0.005018 -0.100362
  6   7.247600 -0.397300 -0.109469 0.000001 0.000033 0.052393
  7   -2.022252 -0.104661 3.136172 1.349016 -0.824798 -4.467662
  8   1.168026 -0.537438 -0.063437 -0.389573 0.438505 -0.260380
  9   6.790376 -0.619176 0.015206 -0.000324 -0.000352 -0.945609
 10   8.637599 0.544015 -0.090417 -3.685958 0.382230 -0.380073
 11   6.790465 -0.619039 0.017802 0.000067 -0.011509 -0.677132
 12   -2.022474 -0.104699 -2.873818 1.018097 1.147400 -2.218392
 13   1.167898 -0.537463 0.063297 -0.406301 -1.209548 -0.757260
 14   7.002743 -0.617765 -0.183752 0.000286 0.000421 -1.504487
 15   8.209042 0.615527 -0.255885 1.663061 0.687909 -0.096407
 16   7.002735 -0.617911 -0.183641 0.013780 0.008383 -1.071779
 17   1.574674 0.609930 -0.000899 0.209072 -0.005554 0.078054
 18   -0.602177 0.511412 -0.000006 0.000000 0.000000 0.000000
 19   3.646428 0.364526 1.119313 -0.000002 -0.000014 -0.174510
 20   3.646422 0.364499 -1.117566 0.000007 -0.000003 -0.174546
 21   3.805634 1.330634 1.627658 0.000002 -0.000011 -0.000026
 22   -0.246060 -0.011889 0.516521 -0.000011 0.000031 0.000025
 23   3.805651 1.330659 -1.631083 0.000019 0.000002 -0.000024
 24   -0.246150 -0.011872 -0.516511 -0.000005 -0.000006 0.000048
 25   4.941364 1.997338 1.629330 0.000018 -0.000001 -0.000024
 26   4.941382 1.997366 -1.629410 -0.000001 0.000005 -0.000024
 27   2.930087 1.603639 1.514501 -0.000019 -0.000022 -0.000050
 28   2.932517 1.603245 -1.501142 -0.000002 -0.000009 -0.000024
 29   8.824059 0.150544 0.091743 0.051963 -0.018628 -0.020242
 30   2.150149 -0.561179 1.698380 -0.001378 0.098326 0.006607
 31   2.183792 -0.561289 -1.791097 0.000245 -0.130491 0.007313
 32   -0.810489 -0.093824 3.127092 3.071872 -0.114782 1.239365
 33   14.298673 -0.408176 0.475484 0.000248 0.000062 -1.896136
 34   15.835795 0.581398 0.242756 -0.214729 0.106889 -0.097869
 35   -0.815868 -0.091229 -3.114430 0.066464 3.132725 -1.010185
 36   14.294526 -0.410349 -0.463635 0.000033 -0.000000 -2.607695
 37   15.834409 0.579420 -0.284600 -0.006092 -0.035255 0.214458
 38   1.167030 -3.461562 -2.823813 0.005304 -0.003965 0.012159
 39   -4.465555 -0.886880 -0.707116 0.006807 0.015065 -0.060130
 40   1.090756 -3.441956 3.237290 -0.002526 -0.004771 0.019734
 41   -4.343993 -0.953658 0.990817 0.000718 0.001450 -0.005974
 42   -0.614498 1.689489 -2.508921 0.044223 0.068921 -0.006650
 43   -0.664068 1.679046 2.713122 -0.051888 -0.078126 0.013466
time 22
  0   -0.967547 0.175787 -20.574476 0.000000 0.000000 -1.572114
  1   -1.093036 0.000002 -0.326057 -1.570757 -1.570379 -0.000123
  2   2.262337 0.113614 0.064702 -0.000052 0.000073 -0.103775
  3   2.380047 0.353302 0.047440 0.000000 -0.000028 -0.200362
  4   2.033756 0.190472 -0.000128 -0.156901 -0.000719 -0.006042
  5   2.451511 0.204909 -0.003447 -0.052001 -0.005201 -0.104374
  6   7.247600 -0.397300 -0.109469 0.000001 0.000033 0.052393
  7   -2.022252 -0.104661 3.136172 1.349016 -0.824798 -4.467662
  8   1.168026 -0.537438 -0.063437 -0.386726 0.443335 -0.258229
  9   6.790376 -0.619176 0.015206 -0.000324 -0.000352 -0.945609
 10   8.637599 0.544015 -0.090417 -3.685958 0.382230 -0.380073
 11   6.790465 -0.619039 0.017802 0.000067 -0.011509 -0.677132
 12   -2.022474 -0.104699 -2.873818 1.024133 1.149257 -2.211308
 13   1.167898 -0.537463 0.063297 -0.413611 -1.213921 -0.749209
 14   7.002743 -0.617765 -0.183752 0.000286 0.000421 -1.504487
 15   8.209042 0.615527 -0.255885 1.663061 0.687758 -0.096407
 16   7.002735 -0.617911 -0.183641 0.013780 0.008383 -1.071779
 17   1.574674 0.609930 -0.000899 0.209072 -0.005625 0.083376
 18   -0.602177 0.511412 -0.000006 0.000000 0.000000 0.000000
 19   3.646428 0.364526 1.119313 -0.000002 -0.000014 -0.174510
 20   3.646422 0.364499 -1.117566 0.000007 -0.000003 -0.174546
 21   3.805634 1.330634 1.627658 0.000002 -0.000011 -0.000026
 22   -0.246060 -0.011889 0.516521 -0.000011 0.000031 0.000025
 23   3.805651 1.330659 -1.631083 0.000019 0.000002 -0.000024
 24   -0.246150 -0.011872 -0.516511 -0.000005 -0.000006 0.000048
 25   4.941364 1.997338 1.629330 0.000018 -0.000001 -0.000024
 26   4.941382 1.997366 -1.629410 -0.000001 0.000005 -0.000024
 27   2.930087 1.603639 1.514501 -0.000019 -0.000022 -0.000050
 28   2.932517 1.603245 -1.501142 -0.000002 -0.000009 -0.000024
 29   8.824059 0.150544 0.091743 0.044210 -0.015305 -0.043579
 30   2.142336 -0.561179 1.710099 -0.001161 0.083331 0.005578
 31   2.172073 -0.561289 -1.802816 0.000215 -0.110755 0.006203
 32   -0.810489 -0.093824 3.127092 3.071872 -0.114782 1.239365
 33   14.298673 -0.408176 0.475484 0.000248 0.000062 -1.896136
 34   15.835795 0.581398 0.242756 -0.214729 0.106889 -0.097869
 35   -0.815868 -0.091229 -3.114430 0.066464 3.132725 -1.010185
 36   14.294526 -0.410349 -0.463635 0.000033 -0.000000 -2.607695
 37   15.834409 0.579420 -0.284600 -0.006092 -0.035255 0.214458
 38   1.159217 -3.461562 -2.823813 0.004505 -0.003350 0.010326
 39   -4.465555 -0.910318 -0.714929 0.005789 0.012776 -0.051015
 40   1.098569 -3.441956 3.237290 -0.002126 -0.004048 0.016740
 41   -4.355712 -0.965377 0.990817 0.000610 0.001234 -0.005048
 42   -0.618404 1.697302 -2.536265 0.037548 0.058464 -0.005646
 43   -0.664068 1.679046 2.736560 -0.044042 -0.066310 0.011417
time 23
  0   -0.967547 0.175787 -20.574476 0.000000 0.000000 -1.572114
  1   -1.093036 0.000002 -0.326057 -1.570757 -1.570379 -0.000123
  2   2.262337 0.113614 0.064702 -0.000052 0.000073 -0.103775
  3   2.380047 0.353302 0.047440 0.000000 -0.000028 -0.200362
  4   2.033756 0.190472 -0.000128 -0.156901 -0.000947 -0.007383
  5   2.451511 0.204909 -0.003447 -0.052001 -0.005606 -0.108708
  6   7.247600 -0.397300 -0.109469 0.000001 0.000033 0.052393
  7   -2.022252 -0.104661 3.136172 1.349016 -0.824798 -4.467662
  8   1.168026 -0.537438 -0.063437 -0.383688 0.448316 -0.256078
  9   6.790376 -0.619176 0.015206 -0.000324 -0.000352 -0.945609
 10   8.637599 0.544015 -0.090417 -3.685958 0.382230 -0.380073
 11   6.790465 -0.619039 0.017802 0.000067 -0.011509 -0.677132
 12   -2.022474 -0.104699 -2.873818 1.031606 1.150970 -2.203936
 13   1.167898 -0.537463 0.063297 -0.421765 -1.218600 -0.740189
 14   7.002743 -0.617765 -0.183752 0.000286 0.000421 -1.504487
 15   8.209042 0.615527 -0.255885 1.663061 0.687758 -0.096407
 16   7.002735 -0.617911 -0.183641 0.013780 0.008383 -1.071779
 17   1.574674 0.609930 -0.000899 0.209072 -0.005696 0.089438
 18   -0.602177 0.511412 -0.000006 0.000000 0.000000 0.000000
 19   3.646428 0.364526 1.119313 -0.000002 -0.000014 -0.174510
 20   3.646422 0.364499 -1.117566 0.000007 -0.000003 -0.174546
 21   3.805634 1.330634 1.627658 0.000002 -0.000011 -0.000026
 22   -0.246060 -0.011889 0.516521 -0.000011 0.000031 0.000025
 23   3.805651 1.330659 -1.631083 0.000019 0.000002 -0.000024
 24   -0.246150 -0.011872 -0.516511 -0.000005 -0.000006 0.000048
 25   4.941364 1.997338 1.629330 0.000018 -0.000001 -0.000024
 26   4.941382 1.997366 -1.629410 -0.000001 0.000005 -0.000024
 27   2.930087 1.603639 1.514501 -0.000019 -0.000022 -0.000050
 28   2.932517 1.603245 -1.501142 -0.000002 -0.000009 -0.000024
 29   8.824059 0.150544 0.091743 0.036367 -0.012124 -0.067345
 30   2.138430 -0.561179 1.721818 -0.000944 0.068074 0.004570
 31   2.160354 -0.561289 -1.814535 0.000184 -0.090655 0.005075
 32   -0.810489 -0.093824 3.127092 3.071872 -0.114782 1.239365
 33   14.298673 -0.408176 0.475484 0.000248 0.000062 -1.896136
 34   15.835795 0.581398 0.242756 -0.214729 0.106889 -0.097869
 35   -0.815868 -0.091229 -3.114430 0.066464 3.132725 -1.010185
 36   14.294526 -0.410349 -0.463635 0.000033 -0.000000 -2.607695
 37   15.834409 0.579420 -0.284600 -0.006092 -0.035255 0.214458
 38   1.159217 -3.461562 -2.823813 0.003684 -0.002748 0.008371
 39   -4.465555 -0.937663 -0.718835 0.004734 0.010463 -0.041760
 40   1.098569 -3.441956 3.237290 -0.001726 -0.003325 0.013624
 41   -4.371338 -0.988815 0.979098 0.000490 0.001019 -0.004151
 42   -0.626217 1.697302 -2.563610 0.030717 0.047854 -0.004558
 43   -0.664068 1.686859 2.763905 -0.036033 -0.054275 0.009284
time 24
  0   -0.967547 0.175787 -20.574476 0.000000 0.000000 -1.572114
  1   -1.093036 0.000002 -0.326057 -1.570757 -1.570379 -0.000123
  2   2.262337 0.113614 0.064702 -0.000052 0.000073 -0.103775
  3   2.380047 0.353302 0.047440 0.000000 -0.000028 -0.200362
  4   2.033756 0.190472 -0.000128 -0.156901 -0.001091 -0.008978
  5   2.451511 0.204909 -0.003447 -0.051967 -0.005789 -0.113240
  6   7.247600 -0.397300 -0.109469 0.000001 0.000033 0.052393
  7   -2.022252 -0.104661 3.136172 1.349016 -0.824798 -4.467662
  8   1.168026 -0.537438 -0.063437 -0.380398 0.453851 -0.253105
  9   6.790376 -0.619176 0.015206 -0.000324 -0.000352 -0.945609
 10   8.637599 0.544015 -0.090417 -3.685958 0.382230 -0.380073
 11   6.790465 -0.619039 0.017802 0.000067 -0.011509 -0.677132
 12   -2.022474 -0.104699 -2.873818 1.038599 1.153088 -2.195797
 13   1.167898 -0.537463 0.063297 -0.430763 -1.223533 -0.730685
 14   7.002743 -0.617765 -0.183752 0.000286 0.000421 -1.504487
 15   8.209042 0.615527 -0.255885 1.663061 0.687758 -0.096407
 16   7.002735 -0.617911 -0.183641 0.013780 0.008383 -1.071779
 17   1.574674 0.609930 -0.000899 0.209072 -0.005767 0.095425
 18   -0.602177 0.511412 -0.000006 0.000000 0.000000 0.000000
 19   3.646428 0.364526 1.119313 -0.000002 -0.000014 -0.174510
 20   3.646422 0.364499 -1.117566 0.000007 -0.000003 -0.174546
 21   3.805634 1.330634 1.627658 0.000002 -0.000011 -0.000026
 22   -0.246060 -0.011889 0.516521 -0.000011 0.000031 0.000025
 23   3.805651 1.330659 -1.631083 0.000019 0.000002 -0.000024
 24   -0.246150 -0.011872 -0.516511 -0.000005 -0.000006 0.000048
 25   4.941364 1.997338 1.629330 0.000018 -0.000001 -0.000024
 26   4.941382 1.997366 -1.629410 -0.000001 0.000005 -0.000024
 27   2.930087 1.603639 1.514501 -0.000019 -0.000022 -0.000050
 28   2.932517 1.603245 -1.501142 -0.000002 -0.000009 -0.000024
 29   8.824059 0.150544 0.091743 0.028525 -0.009228 -0.090682
 30   2.130617 -0.561179 1.741350 -0.000727 0.053079 0.003583
 31   2.152541 -0.561289 -1.822348 0.000138 -0.070866 0.003965
 32   -0.810489 -0.093824 3.127092 3.071872 -0.114782 1.239365
 33   14.298673 -0.408176 0.475484 0.000248 0.000062 -1.896136
 34   15.835795 0.581398 0.242756 -0.214729 0.106889 -0.097869
 35   -0.815868 -0.091229 -3.114430 0.066464 3.132725 -1.010185
 36   14.294526 -0.410349 -0.463635 0.000033 -0.000000 -2.607695
 37   15.834409 0.579420 -0.284600 -0.006092 -0.035255 0.214458
 38   1.155311 -3.453749 -2.823813 0.002884 -0.002145 0.006538
 39   -4.457742 -0.961101 -0.726648 0.003691 0.008162 -0.032645
 40   1.106382 -3.449769 3.237290 -0.001347 -0.002602 0.010692
 41   -4.386963 -1.000534 0.979098 0.000383 0.000791 -0.003225
 42   -0.637936 1.697302 -2.594861 0.024017 0.037413 -0.003597
 43   -0.664068 1.690765 2.787343 -0.028187 -0.042428 0.007319
time 25
  0   -0.967547 0.175787 -20.574476 0.000000 0.000000 -1.572114
  1   -1.093036 0.000002 -0.326057 -1.570757 -1.570379 -0.000123
  2   2.262337 0.113614 0.064702 -0.000052 0.000073 -0.103775
  3   2.380047 0.353302 0.047440 0.000000 -0.000028 -0.200362
  4   2.033756 0.190472 -0.000128 -0.156901 -0.001270 -0.010464
  5   2.451511 0.204909 -0.003447 -0.051933 -0.005906 -0.117846
  6   7.247600 -0.397300 -0.109469 0.000001 0.000033 0.052393
  7   -2.022252 -0.104661 3.136172 1.349016 -0.824798 -4.467662
  8   1.168026 -0.537438 -0.063437 -0.377044 0.458732 -0.250827
  9   6.790376 -0.619176 0.015206 -0.000324 -0.000352 -0.945609
 10   8.637599 0.544015 -0.090417 -3.685958 0.382230 -0.380073
 11   6.790465 -0.619039 0.017802 0.000067 -0.011509 -0.677132
 12   -2.022474 -0.104699 -2.873818 1.046168 1.154743 -2.187468
 13   1.167898 -0.537463 0.063297 -0.439972 -1.228465 -0.720818
 14   7.002743 -0.617765 -0.183752 0.000286 0.000421 -1.504487
 15   8.209042 0.615527 -0.255885 1.663061 0.687758 -0.096407
 16   7.002735 -0.617911 -0.183641 0.013780 0.008383 -1.071779
 17   1.574674 0.609930 -0.000899 0.209072 -0.005838 0.101635
 18   -0.602177 0.511412 -0.000006 0.000000 0.000000 0.000000
 19   3.646428 0.364526 1.119313 -0.000002 -0.000014 -0.174510
 20   3.646422 0.364499 -1.117566 0.000007 -0.000003 -0.174546
 21   3.805634 1.330634 1.627658 0.000002 -0.000011 -0.000026
 22   -0.246060 -0.011889 0.516521 -0.000011 0.000031 0.000025
 23   3.805651 1.330659 -1.631083 0.000019 0.000002 -0.000024
 24   -0.246150 -0.011872 -0.516511 -0.000005 -0.000006 0.000048
 25   4.941364 1.997338 1.629330 0.000018 -0.000001 -0.000024
 26   4.941382 1.997366 -1.629410 -0.000001 0.000005 -0.000024
 27   2.930087 1.603639 1.514501 -0.000019 -0.000022 -0.000050
 28   2.932517 1.603245 -1.501142 -0.000002 -0.000009 -0.000024
 29   8.824059 0.150544 0.091743 0.021038 -0.006617 -0.112785
 30   2.122804 -0.561179 1.753069 -0.000537 0.038927 0.002640
 31   2.140822 -0.561289 -1.834067 0.000092 -0.052191 0.002891
 32   -0.810489 -0.093824 3.127092 3.071872 -0.114782 1.239365
 33   14.298673 -0.408176 0.475484 0.000248 0.000062 -1.896136
 34   15.835795 0.581398 0.242756 -0.214729 0.106889 -0.097869
 35   -0.815868 -0.091229 -3.114430 0.066464 3.132725 -1.010185
 36   14.294526 -0.410349 -0.463635 0.000033 -0.000000 -2.607695
 37   15.834409 0.579420 -0.284600 -0.006092 -0.035255 0.214458
 38   1.147498 -3.453749 -2.823813 0.002126 -0.001579 0.004766
 39   -4.457742 -0.992352 -0.734461 0.002721 0.006016 -0.024035
 40   1.110288 -3.449769 3.237290 -0.000989 -0.001903 0.007820
 41   -4.402589 -1.020066 0.967379 0.000287 0.000575 -0.002384
 42   -0.637936 1.697302 -2.618299 0.017689 0.027570 -0.002635
 43   -0.664068 1.690765 2.806875 -0.020753 -0.031240 0.005395
time 26
  0   -0.967547 0.175787 -20.574476 0.000000 0.000000 -1.572114
  1   -1.093036 0.000002 -0.326057 -1.570757 -1.570379 -0.000123
  2   2.262337 0.113614 0.064702 -0.000052 0.000073 -0.103775
  3   2.380047 0.353302 0.047440 0.000000 -0.000028 -0.200362
  4   2.033756 0.190472 -0.000128 -0.156901 -0.001678 -0.011914
  5   2.451511 0.204909 -0.003447 -0.051847 -0.006324 -0.122527
  6   7.247600 -0.397300 -0.109469 0.000001 0.000033 0.052393
  7   -2.022252 -0.104661 3.136172 1.349016 -0.824798 -4.467662
  8   1.168026 -0.537438 -0.063437 -0.373880 0.464266 -0.248550
  9   6.790376 -0.619176 0.015206 -0.000324 -0.000352 -0.945609
 10   8.637599 0.544015 -0.090417 -3.685958 0.382230 -0.380073
 11   6.790465 -0.619039 0.017802 0.000067 -0.011509 -0.677132
 12   -2.022474 -0.104699 -2.873818 1.053833 1.156949 -2.179426
 13   1.167898 -0.537463 0.063297 -0.449391 -1.233449 -0.710406
 14   7.002743 -0.617765 -0.183752 0.000286 0.000421 -1.504487
 15   8.209042 0.615527 -0.255885 1.663061 0.687909 -0.096407
 16   7.002735 -0.617911 -0.183641 0.013780 0.008383 -1.071779
 17   1.574674 0.609930 -0.000899 0.209072 -0.005909 0.107623
 18   -0.602177 0.511412 -0.000006 0.000000 0.000000 0.000000
 19   3.646428 0.364526 1.119313 -0.000002 -0.000014 -0.174510
 20   3.646422 0.364499 -1.117566 0.000007 -0.000003 -0.174546
 21   3.805634 1.330634 1.627658 0.000002 -0.000011 -0.000026
 22   -0.246060 -0.011889 0.516521 -0.000011 0.000031 0.000025
 23   3.805651 1.330659 -1.631083 0.000019 0.000002 -0.000024
 24   -0.246150 -0.011872 -0.516511 -0.000005 -0.000006 0.000048
 25   4.941364 1.997338 1.629330 0.000018 -0.000001 -0.000024
 26   4.941382 1.997366 -1.629410 -0.000001 0.000005 -0.000024
 27   2.930087 1.603639 1.514501 -0.000019 -0.000022 -0.000050
 28   2.932517 1.603245 -1.501142 -0.000002 -0.000009 -0.000024
 29   8.824059 0.150544 0.091743 0.014265 -0.004409 -0.132849
 30   2.118898 -0.561179 1.764788 -0.000361 0.026111 0.001804
 31   2.133009 -0.561289 -1.837973 0.000046 -0.035330 0.001945
 32   -0.810489 -0.093824 3.127092 3.071872 -0.114782 1.239365
 33   14.298673 -0.408176 0.475484 0.000248 0.000062 -1.896136
 34   15.835795 0.581398 0.242756 -0.214729 0.106889 -0.097869
 35   -0.815868 -0.091229 -3.114430 0.066464 3.132725 -1.010185
 36   14.294526 -0.410349 -0.463635 0.000033 -0.000000 -2.607695
 37   15.834409 0.579420 -0.284600 -0.006092 -0.035255 0.214458
 38   1.147498 -3.453749 -2.823813 0.001410 -0.001073 0.003239
 39   -4.457742 -1.011884 -0.738367 0.001846 0.004075 -0.016267
 40   1.110288 -3.449769 3.237290 -0.000674 -0.001276 0.005254
 41   -4.410401 -1.031785 0.967379 0.000191 0.000384 -0.001599
 42   -0.649655 1.697302 -2.641737 0.011973 0.018631 -0.001756
 43   -0.664068 1.698578 2.830313 -0.014031 -0.021134 0.003638
time 27
  0   -0.967547 0.175787 -20.574476 0.000000 0.000000 -1.572114
  1   -1.093036 0.000002 -0.326057 -1.570757 -1.570379 -0.000123
  2   2.262337 0.113614 0.064702 -0.000052 0.000073 -0.103775
  3   2.380047 0.353302 0.047440 0.000000 -0.000028 -0.200362
  4   2.033756 0.190472 -0.000128 -0.156901 -0.001870 -0.013545
  5   2.451511 0.204909 -0.003447 -0.051847 -0.006572 -0.127034
  6   7.247600 -0.397300 -0.109469 0.000001 0.000033 0.052393
  7   -2.022252 -0.104661 3.136172 1.349016 -0.824798 -4.467662
  8   1.168026 -0.537438 -0.063437 -0.370589 0.469549 -0.246083
  9   6.790376 -0.619176 0.015206 -0.000324 -0.000352 -0.945609
 10   8.637599 0.544015 -0.090417 -3.685958 0.382230 -0.380073
 11   6.790465 -0.619039 0.017802 0.000067 -0.011509 -0.677132
 12   -2.022474 -0.104699 -2.873818 1.061306 1.158574 -2.171001
 13   1.167898 -0.537463 0.063297 -0.458810 -1.238280 -0.700236
 14   7.002743 -0.617765 -0.183752 0.000286 0.000421 -1.504487
 15   8.209042 0.615527 -0.255885 1.663061 0.687758 -0.096407
 16   7.002735 -0.617911 -0.183641 0.013780 0.008383 -1.071779
 17   1.574674 0.609930 -0.000899 0.209072 -0.005980 0.113758
 18   -0.602177 0.511412 -0.000006 0.000000 0.000000 0.000000
 19   3.646428 0.364526 1.119313 -0.000002 -0.000014 -0.174510
 20   3.646422 0.364499 -1.117566 0.000007 -0.000003 -0.174546
 21   3.805634 1.330634 1.627658 0.000002 -0.000011 -0.000026
 22   -0.246060 -0.011889 0.516521 -0.000011 0.000031 0.000025
 23   3.805651 1.330659 -1.631083 0.000019 0.000002 -0.000024
 24   -0.246150 -0.011872 -0.516511 -0.000005 -0.000006 0.000048
 25   4.941364 1.997338 1.629330 0.000018 -0.000001 -0.000024
 26   4.941382 1.997366 -1.629410 -0.000001 0.000005 -0.000024
 27   2.930087 1.603639 1.514501 -0.000019 -0.000022 -0.000050
 28   2.932517 1.603245 -1.501142 -0.000002 -0.000009 -0.000024
 29   8.824059 0.150544 0.091743 0.008472 -0.002629 -0.149802
 30   2.111085 -0.561179 1.776507 -0.000225 0.015185 0.001075
 31   2.129103 -0.561289 -1.845786 0.000031 -0.020902 0.001163
 32   -0.810489 -0.093824 3.127092 3.071872 -0.114782 1.239365
 33   14.298673 -0.408176 0.475484 0.000248 0.000062 -1.896136
 34   15.835795 0.581398 0.242756 -0.214729 0.106889 -0.097869
 35   -0.815868 -0.091229 -3.114430 0.066464 3.132725 -1.010185
 36   14.294526 -0.410349 -0.463635 0.000033 -0.000000 -2.607695
 37   15.834409 0.579420 -0.284600 -0.006092 -0.035255 0.214458
 38   1.139685 -3.453749 -2.823813 0.000842 -0.000627 0.001895
 39   -4.457742 -1.027509 -0.746180 0.001091 0.002409 -0.009648
 40   1.118101 -3.449769 3.237290 -0.000400 -0.000746 0.003116
 41   -4.426027 -1.043504 0.959566 0.000107 0.000228 -0.000954
 42   -0.649655 1.697302 -2.661269 0.007095 0.011057 -0.001046
 43   -0.664068 1.698578 2.849845 -0.008309 -0.012520 0.002133
time 28
  0   -0.967547 0.175787 -20.574476 0.000000 0.000000 -1.572114
  1   -1.093036 0.000002 -0.326057 -1.570757 -1.570379 -0.000123
  2   2.262337 0.113614 0.064702 -0.000052 0.000073 -0.103775
  3   2.380047 0.353302 0.047440 0.000000 -0.000028 -0.200362
  4   2.033756 0.190472 -0.000128 -0.156901 -0.001965 -0.014850
  5   2.451511 0.204909 -0.003447 -0.051830 -0.006611 -0.131393
  6   7.247600 -0.397300 -0.109469 0.000001 0.000033 0.052393
  7   -2.022252 -0.104661 3.136172 1.349016 -0.824798 -4.467662
  8   1.168026 -0.537438 -0.063437 -0.367235 0.474681 -0.243426
  9   6.790376 -0.619176 0.015206 -0.000324 -0.000352 -0.945609
 10   8.637599 0.544015 -0.090417 -3.685958 0.382230 -0.380073
 11   6.790465 -0.619039 0.017802 0.000067 -0.011509 -0.677132
 12   -2.022474 -0.104699 -2.873818 1.068779 1.160548 -2.163054
 13   1.167898 -0.537463 0.063297 -0.468511 -1.242857 -0.690127
 14   7.002743 -0.617765 -0.183752 0.000286 0.000421 -1.504487
 15   8.209042 0.615527 -0.255885 1.663061 0.687758 -0.096407
 16   7.002735 -0.617911 -0.183641 0.013780 0.008383 -1.071779
 17   1.574674 0.609930 -0.000899 0.209072 -0.006051 0.119487
 18   -0.602177 0.511412 -0.000006 0.000000 0.000000 0.000000
 19   3.646428 0.364526 1.119313 -0.000002 -0.000014 -0.174510
 20   3.646422 0.364499 -1.117566 0.000007 -0.000003 -0.174546
 21   3.805634 1.330634 1.627658 0.000002 -0.000011 -0.000026
 22   -0.246060 -0.011889 0.516521 -0.000011 0.000031 0.000025
 23   3.805651 1.330659 -1.631083 0.000019 0.000002 -0.000024
 24   -0.246150 -0.011872 -0.516511 -0.000005 -0.000006 0.000048
 25   4.941364 1.997338 1.629330 0.000018 -0.000001 -0.000024
 26   4.941382 1.997366 -1.629410 -0.000001 0.000005 -0.000024
 27   2.930087 1.603639 1.514501 -0.000019 -0.000022 -0.000050
 28   2.932517 1.603245 -1.501142 -0.000002 -0.000009 -0.000024
 29   8.824059 0.150544 0.091743 0.003838 -0.001323 -0.163053
 30   2.111085 -0.561179 1.784320 -0.000103 0.006728 0.000496
 31   2.121290 -0.561289 -1.853599 0.000000 -0.009765 0.000544
 32   -0.810489 -0.093824 3.127092 3.071872 -0.114782 1.239365
 33   14.298673 -0.408176 0.475484 0.000248 0.000062 -1.896136
 34   15.835795 0.581398 0.242756 -0.214729 0.106889 -0.097869
 35   -0.815868 -0.091229 -3.114430 0.066464 3.132725 -1.010185
 36   14.294526 -0.410349 -0.463635 0.000033 -0.000000 -2.607695
 37   15.834409 0.579420 -0.284600 -0.006092 -0.035255 0.214458
 38   1.139685 -3.453749 -2.823813 0.000400 -0.000277 0.000795
 39   -4.457742 -1.047041 -0.746180 0.000491 0.001127 -0.004459
 40   1.118101 -3.449769 3.237290 -0.000168 -0.000336 0.001405
 41   -4.433840 -1.051317 0.959566 0.000047 0.000108 -0.000449
 42   -0.657468 1.697302 -2.680801 0.003308 0.005169 -0.000418
 43   -0.664068 1.698578 2.861564 -0.003886 -0.005851 0.001004
time 29
  0   -0.967547 0.175787 -20.574476 0.000000 0.000000 -1.572114
  1   -1.093036 0.000002 -0.326057 -1.570757 -1.570379 -0.000123
  2   2.262337 0.113614 0.064702 -0.000052 0.000073 -0.103775
  3   2.380047 0.353302 0.047440 0.000000 -0.000028 -0.200362
  4   2.033756 0.190472 -0.000128 -0.156901 -0.002349 -0.016300
  5   2.451511 0.204909 -0.003447 -0.051796 -0.006977 -0.135479
  6   7.247600 -0.397300 -0.109469 0.000001 0.000033 0.052393
  7   -2.022252 -0.104661 3.136172 1.349016 -0.824798 -4.467662
  8   1.168026 -0.537438 -0.063437 -0.364388 0.479159 -0.241022
  9   6.790376 -0.619176 0.015206 -0.000324 -0.000352 -0.945609
 10   8.637599 0.544015 -0.090417 -3.685958 0.382230 -0.380073
 11   6.790465 -0.619039 0.017802 0.000067 -0.011509 -0.677132
 12   -2.022474 -0.104699 -2.873818 1.075677 1.161999 -2.155586
 13   1.167898 -0.537463 0.063297 -0.477649 -1.247128 -0.680320
 14   7.002743 -0.617765 -0.183752 0.000286 0.000421 -1.504487
 15   8.209042 0.615527 -0.255885 1.663061 0.687909 -0.096407
 16   7.002735 -0.617911 -0.183641 0.013780 0.008383 -1.071779
 17   1.574674 0.609930 -0.000899 0.209072 -0.006122 0.124994
 18   -0.602177 0.511412 -0.000006 0.000000 0.000000 0.000000
 19   3.646428 0.364526 1.119313 -0.000002 -0.000014 -0.174510
 20   3.646422 0.364499 -1.117566 0.000007 -0.000003 -0.174546
 21   3.805634 1.330634 1.627658 0.000002 -0.000011 -0.000026
 22   -0.246060 -0.011889 0.516521 -0.000011 0.000031 0.000025
 23   3.805651 1.330659 -1.631083 0.000019 0.000002 -0.000024
 24   -0.246150 -0.011872 -0.516511 -0.000005 -0.000006 0.000048
 25   4.941364 1.997338 1.629330 0.000018 -0.000001 -0.000024
 26   4.941382 1.997366 -1.629410 -0.000001 0.000005 -0.000024
 27   2.930087 1.603639 1.514501 -0.000019 -0.000022 -0.000050
 28   2.932517 1.603245 -1.501142 -0.000002 -0.000009 -0.000024
 29   8.824059 0.150544 0.091743 0.000897 -0.000468 -0.171583
 30   2.111085 -0.561179 1.784320 -0.000022 0.001236 0.000153
 31   2.121290 -0.561289 -1.853599 0.000000 -0.002538 0.000107
 32   -0.810489 -0.093824 3.127092 3.071872 -0.114782 1.239365
 33   14.298673 -0.408176 0.475484 0.000248 0.000062 -1.896136
 34   15.835795 0.581398 0.242756 -0.214729 0.106889 -0.097869
 35   -0.815868 -0.091229 -3.114430 0.066464 3.132725 -1.010185
 36   14.294526 -0.410349 -0.463635 0.000033 -0.000000 -2.607695
 37   15.834409 0.579420 -0.284600 -0.006092 -0.035255 0.214458
 38   1.139685 -3.453749 -2.823813 0.000063 -0.000060 0.000123
 39   -4.457742 -1.054854 -0.746180 0.000132 0.000288 -0.001178
 40   1.118101 -3.449769 3.237290 -0.000021 -0.000071 0.000367
 41   -4.433840 -1.059130 0.959566 0.000011 0.000024 -0.000084
 42   -0.657468 1.697302 -2.688614 0.000863 0.001336 -0.000084
 43   -0.664068 1.698578 2.869377 -0.001000 -0.001504 0.000251
time 30
  0   -0.967547 0.175787 -20.574476 0.000000 0.000000 -1.572114
  1   -1.093036 0.000002 -0.326057 -1.570757 -1.570379 -0.000123
  2   2.262337 0.113614 0.064702 -0.000052 0.000073 -0.103775
  3   2.380047 0.353302 0.047440 0.000000 -0.000028 -0.200362
  4   2.033756 0.190472 -0.000128 -0.156901 -0.002529 -0.017496
  5   2.451511 0.204909 -0.003447 -0.051693 -0.007186 -0.139145
  6   7.247600 -0.397300 -0.109469 0.000001 0.000033 0.052393
  7   -2.022252 -0.104661 3.136172 1.349016 -0.824798 -4.467662
  8   1.168026 -0.537438 -0.063437 -0.361667 0.483637 -0.239061
  9   6.790376 -0.619176 0.015206 -0.000324 -0.000352 -0.945609
 10   8.637599 0.544015 -0.090417 -3.685958 0.382230 -0.380073
 11   6.790465 -0.619039 0.017802 0.000067 -0.011509 -0.677132
 12   -2.022474 -0.104699 -2.873818 1.081809 1.163624 -2.148789
 13   1.167898 -0.537463 0.063297 -0.486366 -1.250790 -0.671361
 14   7.002743 -0.617765 -0.183752 0.000286 0.000421 -1.504487
 15   8.209042 0.615527 -0.255885 1.663061 0.687758 -0.096407
 16   7.002735 -0.617911 -0.183641 0.013780 0.008383 -1.071779
 17   1.574674 0.609930 -0.000899 0.209072 -0.006193 0.129947
 18   -0.602177 0.511412 -0.000006 0.000000 0.000000 0.000000
 19   3.646428 0.364526 1.119313 -0.000002 -0.000014 -0.174510
 20   3.646422 0.364499 -1.117566 0.000007 -0.000003 -0.174546
 21   3.805634 1.330634 1.627658 0.000002 -0.000011 -0.000026
 22   -0.246060 -0.011889 0.516521 -0.000011 0.000031 0.000025
 23   3.805651 1.330659 -1.631083 0.000019 0.000002 -0.000024
 24   -0.246150 -0.011872 -0.516511 -0.000005 -0.000006 0.000048
 25   4.941364 1.997338 1.629330 0.000018 -0.000001 -0.000024
 26   4.941382 1.997366 -1.629410 -0.000001 0.000005 -0.000024
 27   2.930087 1.603639 1.514501 -0.000019 -0.000022 -0.000050
 28   2.932517 1.603245 -1.501142 -0.000002 -0.000009 -0.000024
 29   8.824059 0.150544 0.091743 0.000006 -0.000231 -0.174534
 30   2.111085 -0.561179 1.784320 -0.000008 -0.000682 0.000024
 31   2.121290 -0.561289 -1.853599 0.000000 0.000000 -0.000002
 32   -0.810489 -0.093824 3.127092 3.071872 -0.114782 1.239365
 33   14.298673 -0.408176 0.475484 0.000248 0.000062 -1.896136
 34   15.835795 0.581398 0.242756 -0.214729 0.106889 -0.097869
 35   -0.815868 -0.091229 -3.114430 0.066464 3.132725 -1.010185
 36   14.294526 -0.410349 -0.463635 0.000033 -0.000000 -2.607695
 37   15.834409 0.579420 -0.284600 -0.006092 -0.035255 0.214458
 38   1.139685 -3.453749 -2.823813 0.000000 0.000000 0.000001
 39   -4.457742 -1.054854 -0.746180 0.000000 0.000000 0.000000
 40   1.118101 -3.449769 3.237290 0.000000 0.000001 0.000000
 41   -4.433840 -1.059130 0.959566 -0.000001 0.000000 0.000000
 42   -0.657468 1.697302 -2.688614 0.000000 0.000002 0.000000
 43   -0.664068 1.698578 2.869377 0.000000 0.000002 0.000000
end
