version 1
nodes
  0 "Bip01" -1
  1 "Bip01 Pelvis" 0
  2 "Bip01 Spine" 1
  3 "Bip01 Spine1" 2
  4 "Bip01 Spine2" 3
  5 "Bip01 Spine3" 4
  6 "Bip01 Neck" 5
  7 "Bip01 L Arm" 6
  8 "Bip01 L Arm1" 7
  9 "Bip01 L Arm2" 8
 10 "Bip01 L Hand" 9
 11 "Bip06 L elbow2-smooth" 8
 12 "Bip01 R Arm" 6
 13 "Bip01 R Arm1" 12
 14 "Bip01 R Arm2" 13
 15 "Bip01 R Hand" 14
 16 "Bip06 R elbow2-smooth" 13
 17 "Bip01 Head" 6
 18 "Bip06 Head_helper" 17
 19 "Bip06 Head_eyes_l" 18
 20 "Bip06 Head_eyes_r" 18
 21 "Bip06 Head_blink_l" 18
 22 "Bip06 Head_blink_smooth_l1" 21
 23 "Bip06 Head_blink_r" 18
 24 "Bip06 Head_blink_smooth_r1" 23
 25 "Bip06 Head_L_eyebrow" 18
 26 "Bip06 Head_R_eyebrow" 18
 27 "Bip06 Head_blink_l_lid" 18
 28 "Bip06 Head_blink_r_lid" 18
 29 "Bip06 bunny" 18
 30 "Bip06 bunnyL" 29
 31 "Bip06 bunnyR" 29
 32 "Bip01 L Leg" 1
 33 "Bip01 L Leg1" 32
 34 "Bip01 L Foot" 33
 35 "Bip01 R Leg" 1
 36 "Bip01 R Leg1" 35
 37 "Bip01 R Foot" 36
 38 "Bip03 HairR1" 17
 39 "Bip03 HairR2" 38
 40 "Bip03 HairL1" 17
 41 "Bip03 HairL2" 40
 42 "Bip03 swingR" 17
 43 "Bip03 swingL" 17
end
skeleton
time 0
  0   -0.967547 0.175787 -20.574476 0.000000 0.000000 -1.572114
  1   -1.093036 0.000002 -0.326057 -1.570757 -1.570379 -0.000171
  2   2.262337 0.113614 0.064702 -0.000052 0.000061 -0.260847
  3   2.380047 0.353302 0.047440 -0.261678 -0.001922 -0.008489
  4   2.033756 0.190472 -0.000128 -0.000010 0.000048 -0.035003
  5   2.451511 0.204909 -0.003447 0.000000 -0.000005 -0.017472
  6   7.247600 -0.397300 -0.109469 0.000001 0.000033 -0.209345
  7   -2.022252 -0.104661 3.136172 0.896949 -1.256502 -3.804821
  8   1.168026 -0.537438 -0.063437 -0.469876 1.049975 -1.049553
  9   6.790376 -0.619176 0.015206 -0.000213 -0.000352 -2.133165
 10   8.637599 0.544015 -0.090417 -1.068583 -0.402905 -0.134826
 11   6.790465 -0.619039 0.017802 0.005381 -0.011935 -1.508573
 12   -2.022474 -0.104699 -2.873818 -1.159215 1.101745 -4.048005
 13   1.167898 -0.537463 0.063297 -0.331297 -1.036241 0.471233
 14   7.002743 -0.617765 -0.183752 0.000229 0.000250 -2.415017
 15   8.209042 0.615527 -0.255885 1.510555 0.765006 -0.200505
 16   7.002735 -0.617911 -0.183641 0.011991 0.013909 -1.709145
 17   1.574674 0.609930 -0.000899 0.260984 0.017853 0.201947
 18   -0.602177 0.511412 -0.000006 0.000000 0.000000 0.000000
 19   3.673773 0.177020 1.119313 -0.000002 -0.000014 -0.174510
 20   3.673767 0.176993 -1.117566 0.000007 -0.000003 -0.174546
 21   3.942357 1.330634 1.627658 0.000002 -0.000011 -0.000026
 22   -0.246060 -0.011889 0.516521 -0.000011 0.000031 0.000025
 23   3.942374 1.330659 -1.631083 0.000019 0.000002 -0.000024
 24   -0.246150 -0.011872 -0.516511 -0.000005 -0.000006 0.000048
 25   4.941364 1.997338 1.629330 0.000018 -0.000001 -0.000024
 26   4.941382 1.997366 -1.629410 -0.000001 0.000005 -0.000024
 27   2.918368 1.615358 1.514501 -0.000019 -0.000022 -0.000050
 28   2.920798 1.614964 -1.501142 -0.000002 -0.000009 -0.000024
 29   8.824059 0.150544 0.091743 0.000006 -0.000231 -0.174534
 30   2.111085 -0.561179 1.784320 -0.000008 -0.000682 0.000024
 31   2.121290 -0.561289 -1.853599 0.000000 0.000000 -0.000002
 32   -0.810489 -0.093824 3.127092 3.071872 -0.114782 1.239365
 33   14.298673 -0.408176 0.475484 0.000248 0.000062 -1.896136
 34   15.835795 0.581398 0.242756 -0.214729 0.106889 -0.097869
 35   -0.815868 -0.091229 -3.114430 0.066464 3.132725 -1.010185
 36   14.294526 -0.410349 -0.463635 0.000033 -0.000000 -2.607695
 37   15.834409 0.579420 -0.284600 -0.006092 -0.035255 0.214458
 38   1.139685 -3.453749 -2.823813 0.000000 0.000000 0.000001
 39   -4.457742 -1.054854 -0.746180 0.000000 0.000000 0.000000
 40   1.118101 -3.449769 3.237290 0.000000 0.000001 0.000000
 41   -4.433840 -1.059130 0.959566 -0.000001 0.000000 0.000000
 42   -0.657468 1.697302 -2.688614 0.000000 0.000002 0.000000
 43   -0.664068 1.698578 2.869377 0.000000 0.000002 0.000000
time 1
  0   -0.967547 0.175787 -20.574476 0.000000 0.000000 -1.572114
  1   -1.093036 0.000002 -0.326057 -1.570757 -1.570379 -0.000171
  2   2.262337 0.113614 0.064702 -0.000052 0.000061 -0.260847
  3   2.380047 0.353302 0.047440 -0.212429 0.003064 0.022201
  4   2.033756 0.190472 -0.000128 0.028355 -0.001546 0.006137
  5   2.451511 0.204909 -0.003447 0.000000 -0.000005 -0.017472
  6   7.247600 -0.397300 -0.109469 0.000001 0.000033 -0.209345
  7   -2.022252 -0.104661 3.136172 1.121449 -1.134019 -4.014436
  8   1.168026 -0.537438 -0.063437 -0.672437 0.809976 -0.903991
  9   6.790376 -0.619176 0.015206 -0.000213 -0.000352 -1.908574
 10   8.637599 0.544015 -0.090417 -1.176022 -0.402905 -0.134826
 11   6.790465 -0.619039 0.017802 0.004242 -0.011935 -1.351236
 12   -2.022474 -0.104699 -2.873818 -1.159215 1.101745 -4.048005
 13   1.167898 -0.537463 0.063297 0.619502 -0.862019 -0.522930
 14   7.002743 -0.617765 -0.183752 0.000286 0.000250 -1.927162
 15   8.209042 0.615527 -0.255885 1.694770 0.610661 0.079675
 16   7.002735 -0.617911 -0.183641 0.013027 0.010751 -1.367612
 17   1.574674 0.609930 -0.000899 0.183359 0.015084 0.129134
 18   -0.602177 0.511412 -0.000006 0.000000 0.000000 0.000000
 19   3.673773 0.177020 1.119313 -0.000002 -0.000014 -0.174510
 20   3.673767 0.176993 -1.117566 0.000007 -0.000003 -0.174546
 21   3.942357 1.330634 1.627658 0.000002 -0.000011 -0.000026
 22   -0.246060 -0.011889 0.516521 -0.000011 0.000031 0.000025
 23   3.942374 1.330659 -1.631083 0.000019 0.000002 -0.000024
 24   -0.246150 -0.011872 -0.516511 -0.000005 -0.000006 0.000048
 25   4.941364 1.997338 1.629330 0.000018 -0.000001 -0.000024
 26   4.941382 1.997366 -1.629410 -0.000001 0.000005 -0.000024
 27   2.918368 1.615358 1.514501 -0.000019 -0.000022 -0.000050
 28   2.920798 1.614964 -1.501142 -0.000002 -0.000009 -0.000024
 29   8.824059 0.150544 0.091743 0.000006 -0.000231 -0.174534
 30   2.111085 -0.561179 1.784320 -0.000008 -0.000682 0.000024
 31   2.121290 -0.561289 -1.853599 0.000000 0.000000 -0.000002
 32   -0.810489 -0.093824 3.127092 3.071872 -0.114782 1.239365
 33   14.298673 -0.408176 0.475484 0.000248 0.000062 -1.896136
 34   15.835795 0.581398 0.242756 -0.214729 0.106889 -0.097869
 35   -0.815868 -0.091229 -3.114430 0.066464 3.132725 -1.010185
 36   14.294526 -0.410349 -0.463635 0.000033 -0.000000 -2.607695
 37   15.834409 0.579420 -0.284600 -0.006092 -0.035255 0.214458
 38   1.139685 -3.453749 -2.823813 0.000000 0.000000 0.000001
 39   -4.457742 -1.054854 -0.746180 0.000000 0.000000 0.000000
 40   1.118101 -3.449769 3.237290 0.000000 0.000001 0.000000
 41   -4.433840 -1.059130 0.959566 -0.000001 0.000000 0.000000
 42   -0.657468 1.697302 -2.688614 0.000000 0.000002 0.000000
 43   -0.664068 1.698578 2.869377 0.000000 0.000002 0.000000
time 2
  0   -0.967547 0.175787 -20.574476 0.000000 0.000000 -1.572114
  1   -1.093036 0.000002 -0.326057 -1.570757 -1.570379 -0.000171
  2   2.262337 0.113614 0.064702 -0.000052 0.000061 -0.260847
  3   2.380047 0.353302 0.047440 -0.157946 0.006995 0.056156
  4   2.033756 0.190472 -0.000128 0.059689 -0.004686 0.051736
  5   2.451511 0.204909 -0.003447 0.000000 -0.000005 -0.017472
  6   7.247600 -0.397300 -0.109469 0.000001 0.000033 -0.209345
  7   -2.022252 -0.104661 3.136172 1.264948 -0.977261 -4.139904
  8   1.168026 -0.537438 -0.063437 -1.010924 0.470203 -0.949665
  9   6.790376 -0.619176 0.015206 -0.000213 -0.000151 -1.527463
 10   8.637599 0.544015 -0.090417 -1.300898 -0.402905 -0.134826
 11   6.790465 -0.619039 0.017802 0.002549 -0.011793 -1.084432
 12   -2.022474 -0.104699 -2.873818 -1.159215 1.101745 -4.048005
 13   1.167898 -0.537463 0.063297 0.959022 -0.316010 -0.943949
 14   7.002743 -0.617765 -0.183752 0.000229 0.000250 -1.398880
 15   8.209042 0.615527 -0.255885 1.816789 0.410163 0.316015
 16   7.002735 -0.617911 -0.183641 0.013827 0.007650 -0.997931
 17   1.574674 0.609930 -0.000899 0.097854 0.006848 0.047931
 18   -0.602177 0.511412 -0.000006 0.000000 0.000000 0.000000
 19   3.673773 0.177020 1.119313 -0.000002 -0.000014 -0.174510
 20   3.673767 0.176993 -1.117566 0.000007 -0.000003 -0.174546
 21   3.942357 1.330634 1.627658 0.000002 -0.000011 -0.000026
 22   -0.246060 -0.011889 0.516521 -0.000011 0.000031 0.000025
 23   3.942374 1.330659 -1.631083 0.000019 0.000002 -0.000024
 24   -0.246150 -0.011872 -0.516511 -0.000005 -0.000006 0.000048
 25   4.941364 1.997338 1.629330 0.000018 -0.000001 -0.000024
 26   4.941382 1.997366 -1.629410 -0.000001 0.000005 -0.000024
 27   2.918368 1.615358 1.514501 -0.000019 -0.000022 -0.000050
 28   2.920798 1.614964 -1.501142 -0.000002 -0.000009 -0.000024
 29   8.824059 0.150544 0.091743 0.000006 -0.000231 -0.174534
 30   2.111085 -0.561179 1.784320 -0.000008 -0.000682 0.000024
 31   2.121290 -0.561289 -1.853599 0.000000 0.000000 -0.000002
 32   -0.810489 -0.093824 3.127092 3.071872 -0.114782 1.239365
 33   14.298673 -0.408176 0.475484 0.000248 0.000062 -1.896136
 34   15.835795 0.581398 0.242756 -0.214729 0.106889 -0.097869
 35   -0.815868 -0.091229 -3.114430 0.066464 3.132725 -1.010185
 36   14.294526 -0.410349 -0.463635 0.000033 -0.000000 -2.607695
 37   15.834409 0.579420 -0.284600 -0.006092 -0.035255 0.214458
 38   1.139685 -3.453749 -2.823813 0.000000 0.000000 0.000001
 39   -4.457742 -1.054854 -0.746180 0.000000 0.000000 0.000000
 40   1.118101 -3.449769 3.237290 0.000000 0.000001 0.000000
 41   -4.433840 -1.059130 0.959566 -0.000001 0.000000 0.000000
 42   -0.657468 1.697302 -2.688614 0.000000 0.000002 0.000000
 43   -0.664068 1.698578 2.869377 0.000000 0.000002 0.000000
time 3
  0   -0.967547 0.175787 -20.574476 0.000000 0.000000 -1.572114
  1   -1.093036 0.000002 -0.326057 -1.570757 -1.570379 -0.000171
  2   2.262337 0.113614 0.064702 -0.000052 0.000061 -0.260847
  3   2.380047 0.353302 0.047440 -0.113768 0.008817 0.083867
  4   2.033756 0.190472 -0.000128 0.084918 -0.008125 0.088744
  5   2.451511 0.204909 -0.003447 0.000000 -0.000005 -0.017472
  6   7.247600 -0.397300 -0.109469 0.000001 0.000033 -0.209345
  7   -2.022252 -0.104661 3.136172 1.346907 -0.829209 -4.204423
  8   1.168026 -0.537438 -0.063437 -1.255250 -0.129946 -1.058916
  9   6.790376 -0.619176 0.015206 -0.000213 -0.000151 -0.891499
 10   8.637599 0.544015 -0.090417 -1.401820 -0.402905 -0.134826
 11   6.790465 -0.619039 0.017802 -0.000108 -0.011452 -0.639182
 12   -2.022474 -0.104699 -2.873818 -1.159215 1.101745 -4.048005
 13   1.167898 -0.537463 0.063297 1.010829 0.195775 -1.121861
 14   7.002743 -0.617765 -0.183752 0.000229 0.000250 -0.950876
 15   8.209042 0.615527 -0.255885 1.874383 0.225478 0.483497
 16   7.002735 -0.617911 -0.183641 0.014298 0.005225 -0.684160
 17   1.574674 0.609930 -0.000899 0.029125 -0.003495 -0.017010
 18   -0.602177 0.511412 -0.000006 0.000000 0.000000 0.000000
 19   3.673773 0.177020 1.119313 -0.000002 -0.000014 -0.174510
 20   3.673767 0.176993 -1.117566 0.000007 -0.000003 -0.174546
 21   3.942357 1.330634 1.627658 0.000002 -0.000011 -0.000026
 22   -0.246060 -0.011889 0.516521 -0.000011 0.000031 0.000025
 23   3.942374 1.330659 -1.631083 0.000019 0.000002 -0.000024
 24   -0.246150 -0.011872 -0.516511 -0.000005 -0.000006 0.000048
 25   4.941364 1.997338 1.629330 0.000018 -0.000001 -0.000024
 26   4.941382 1.997366 -1.629410 -0.000001 0.000005 -0.000024
 27   2.918368 1.615358 1.514501 -0.000019 -0.000022 -0.000050
 28   2.920798 1.614964 -1.501142 -0.000002 -0.000009 -0.000024
 29   8.824059 0.150544 0.091743 0.000006 -0.000231 -0.174534
 30   2.111085 -0.561179 1.784320 -0.000008 -0.000682 0.000024
 31   2.121290 -0.561289 -1.853599 0.000000 0.000000 -0.000002
 32   -0.810489 -0.093824 3.127092 3.071872 -0.114782 1.239365
 33   14.298673 -0.408176 0.475484 0.000248 0.000062 -1.896136
 34   15.835795 0.581398 0.242756 -0.214729 0.106889 -0.097869
 35   -0.815868 -0.091229 -3.114430 0.066464 3.132725 -1.010185
 36   14.294526 -0.410349 -0.463635 0.000033 -0.000000 -2.607695
 37   15.834409 0.579420 -0.284600 -0.006092 -0.035255 0.214458
 38   1.139685 -3.453749 -2.823813 0.000000 0.000000 0.000001
 39   -4.457742 -1.054854 -0.746180 0.000000 0.000000 0.000000
 40   1.118101 -3.449769 3.237290 0.000000 0.000001 0.000000
 41   -4.433840 -1.059130 0.959566 -0.000001 0.000000 0.000000
 42   -0.657468 1.697302 -2.688614 0.000000 0.000002 0.000000
 43   -0.664068 1.698578 2.869377 0.000000 0.000002 0.000000
time 4
  0   -0.967547 0.175787 -20.574476 0.000000 0.000000 -1.572114
  1   -1.093036 0.000002 -0.326057 -1.570757 -1.570379 -0.000171
  2   2.262337 0.113614 0.064702 -0.000052 0.000061 -0.260847
  3   2.380047 0.353302 0.047440 -0.095466 0.009068 0.095355
  4   2.033756 0.190472 -0.000128 0.095357 -0.009875 0.103895
  5   2.451511 0.204909 -0.003447 0.000000 -0.000005 -0.017472
  6   7.247600 -0.397300 -0.109469 0.000001 0.000033 -0.209345
  7   -2.022252 -0.104661 3.136172 1.363394 -0.791360 -4.216256
  8   1.168026 -0.537438 -0.063437 -1.239810 -0.412511 -1.148556
  9   6.790376 -0.619176 0.015206 -0.000213 -0.000151 -0.595666
 10   8.637599 0.544015 -0.090417 -1.443563 -0.402905 -0.134826
 11   6.790465 -0.619039 0.017802 -0.001276 -0.011253 -0.432186
 12   -2.022474 -0.104699 -2.873818 -1.159215 1.101745 -4.048005
 13   1.167898 -0.537463 0.063297 1.004011 0.459702 -1.194805
 14   7.002743 -0.617765 -0.183752 0.000229 0.000250 -0.703112
 15   8.209042 0.615527 -0.255885 1.891640 0.120009 0.568892
 16   7.002735 -0.617911 -0.183641 0.014439 0.003928 -0.510855
 17   1.574674 0.609930 -0.000899 0.001016 -0.009033 -0.043474
 18   -0.602177 0.511412 -0.000006 0.000000 0.000000 0.000000
 19   3.673773 0.177020 1.119313 -0.000002 -0.000014 -0.174510
 20   3.673767 0.176993 -1.117566 0.000007 -0.000003 -0.174546
 21   3.942357 1.330634 1.627658 0.000002 -0.000011 -0.000026
 22   -0.246060 -0.011889 0.516521 -0.000011 0.000031 0.000025
 23   3.942374 1.330659 -1.631083 0.000019 0.000002 -0.000024
 24   -0.246150 -0.011872 -0.516511 -0.000005 -0.000006 0.000048
 25   4.941364 1.997338 1.629330 0.000018 -0.000001 -0.000024
 26   4.941382 1.997366 -1.629410 -0.000001 0.000005 -0.000024
 27   2.918368 1.615358 1.514501 -0.000019 -0.000022 -0.000050
 28   2.920798 1.614964 -1.501142 -0.000002 -0.000009 -0.000024
 29   8.824059 0.150544 0.091743 0.000006 -0.000231 -0.174534
 30   2.111085 -0.561179 1.784320 -0.000008 -0.000682 0.000024
 31   2.121290 -0.561289 -1.853599 0.000000 0.000000 -0.000002
 32   -0.810489 -0.093824 3.127092 3.071872 -0.114782 1.239365
 33   14.298673 -0.408176 0.475484 0.000248 0.000062 -1.896136
 34   15.835795 0.581398 0.242756 -0.214729 0.106889 -0.097869
 35   -0.815868 -0.091229 -3.114430 0.066464 3.132725 -1.010185
 36   14.294526 -0.410349 -0.463635 0.000033 -0.000000 -2.607695
 37   15.834409 0.579420 -0.284600 -0.006092 -0.035255 0.214458
 38   1.139685 -3.453749 -2.823813 0.000000 0.000000 0.000001
 39   -4.457742 -1.054854 -0.746180 0.000000 0.000000 0.000000
 40   1.118101 -3.449769 3.237290 0.000000 0.000001 0.000000
 41   -4.433840 -1.059130 0.959566 -0.000001 0.000000 0.000000
 42   -0.657468 1.697302 -2.688614 0.000000 0.000002 0.000000
 43   -0.664068 1.698578 2.869377 0.000000 0.000002 0.000000
time 5
  0   -0.967547 0.175787 -20.574476 0.000000 0.000000 -1.572114
  1   -1.093036 0.000002 -0.326057 -1.570757 -1.570379 -0.000171
  2   2.262337 0.113614 0.064702 -0.000052 0.000061 -0.260847
  3   2.380047 0.353302 0.047440 -0.100372 0.008984 0.092274
  4   2.033756 0.190472 -0.000128 0.092572 -0.009540 0.099763
  5   2.451511 0.204909 -0.003447 0.000000 -0.000005 -0.017472
  6   7.247600 -0.397300 -0.109469 0.000001 0.000033 -0.209345
  7   -2.022252 -0.104661 3.136172 1.288338 -0.940825 -4.159157
  8   1.168026 -0.537438 -0.063437 -1.083127 -0.156361 -1.082196
  9   6.790376 -0.619176 0.015206 -0.000213 -0.000151 -0.790825
 10   8.637599 0.544015 -0.090417 -1.399002 -0.402905 -0.134826
 11   6.790465 -0.619039 0.017802 -0.000517 -0.011395 -0.568934
 12   -2.022474 -0.104699 -2.873818 -1.159215 1.101745 -4.048005
 13   1.167898 -0.537463 0.063297 1.073040 0.387134 -1.077973
 14   7.002743 -0.617765 -0.183752 0.000229 0.000250 -0.734547
 15   8.209042 0.615527 -0.255885 1.889914 0.133552 0.558308
 16   7.002735 -0.617911 -0.183641 0.014439 0.004154 -0.532877
 17   1.574674 0.609930 -0.000899 0.008490 -0.007471 -0.036267
 18   -0.602177 0.511412 -0.000006 0.000000 0.000000 0.000000
 19   3.673773 0.177020 1.119313 -0.000002 -0.000014 -0.174510
 20   3.673767 0.176993 -1.117566 0.000007 -0.000003 -0.174546
 21   3.942357 1.330634 1.627658 0.000002 -0.000011 -0.000026
 22   -0.246060 -0.011889 0.516521 -0.000011 0.000031 0.000025
 23   3.942374 1.330659 -1.631083 0.000019 0.000002 -0.000024
 24   -0.246150 -0.011872 -0.516511 -0.000005 -0.000006 0.000048
 25   4.941364 1.997338 1.629330 0.000018 -0.000001 -0.000024
 26   4.941382 1.997366 -1.629410 -0.000001 0.000005 -0.000024
 27   2.918368 1.615358 1.514501 -0.000019 -0.000022 -0.000050
 28   2.920798 1.614964 -1.501142 -0.000002 -0.000009 -0.000024
 29   8.824059 0.150544 0.091743 0.000006 -0.000231 -0.174534
 30   2.111085 -0.561179 1.784320 -0.000008 -0.000682 0.000024
 31   2.121290 -0.561289 -1.853599 0.000000 0.000000 -0.000002
 32   -0.810489 -0.093824 3.127092 3.071872 -0.114782 1.239365
 33   14.298673 -0.408176 0.475484 0.000248 0.000062 -1.896136
 34   15.835795 0.581398 0.242756 -0.214729 0.106889 -0.097869
 35   -0.815868 -0.091229 -3.114430 0.066464 3.132725 -1.010185
 36   14.294526 -0.410349 -0.463635 0.000033 -0.000000 -2.607695
 37   15.834409 0.579420 -0.284600 -0.006092 -0.035255 0.214458
 38   1.139685 -3.453749 -2.823813 0.000000 0.000000 0.000001
 39   -4.457742 -1.054854 -0.746180 0.000000 0.000000 0.000000
 40   1.118101 -3.449769 3.237290 0.000000 0.000001 0.000000
 41   -4.433840 -1.059130 0.959566 -0.000001 0.000000 0.000000
 42   -0.657468 1.697302 -2.688614 0.000000 0.000002 0.000000
 43   -0.664068 1.698578 2.869377 0.000000 0.000002 0.000000
time 6
  0   -0.967547 0.175787 -20.574476 0.000000 0.000000 -1.572114
  1   -1.093036 0.000002 -0.326057 -1.570757 -1.570379 -0.000171
  2   2.262337 0.113614 0.064702 -0.000052 0.000061 -0.260847
  3   2.380047 0.353302 0.047440 -0.113768 0.008817 0.083867
  4   2.033756 0.190472 -0.000128 0.084918 -0.008125 0.088744
  5   2.451511 0.204909 -0.003447 0.000000 -0.000005 -0.017472
  6   7.247600 -0.397300 -0.109469 0.000001 0.000033 -0.209345
  7   -2.022252 -0.104661 3.136172 1.143113 -1.115973 -4.033970
  8   1.168026 -0.537438 -0.063437 -0.818235 0.138330 -0.935115
  9   6.790376 -0.619176 0.015206 -0.000213 -0.000151 -1.075941
 10   8.637599 0.544015 -0.090417 -1.338590 -0.402905 -0.134826
 11   6.790465 -0.619039 0.017802 0.000622 -0.011594 -0.768316
 12   -2.022474 -0.104699 -2.873818 -1.159215 1.101745 -4.048005
 13   1.167898 -0.537463 0.063297 1.131243 0.070219 -0.854418
 14   7.002743 -0.617765 -0.183752 0.000229 0.000250 -0.965892
 15   8.209042 0.615527 -0.255885 1.872945 0.231606 0.478205
 16   7.002735 -0.617911 -0.183641 0.014250 0.005338 -0.694757
 17   1.574674 0.609930 -0.000899 0.029125 -0.003495 -0.017010
 18   -0.602177 0.511412 -0.000006 0.000000 0.000000 0.000000
 19   3.673773 0.177020 1.119313 -0.000002 -0.000014 -0.174510
 20   3.673767 0.176993 -1.117566 0.000007 -0.000003 -0.174546
 21   3.942357 1.330634 1.627658 0.000002 -0.000011 -0.000026
 22   -0.246060 -0.011889 0.516521 -0.000011 0.000031 0.000025
 23   3.942374 1.330659 -1.631083 0.000019 0.000002 -0.000024
 24   -0.246150 -0.011872 -0.516511 -0.000005 -0.000006 0.000048
 25   4.941364 1.997338 1.629330 0.000018 -0.000001 -0.000024
 26   4.941382 1.997366 -1.629410 -0.000001 0.000005 -0.000024
 27   2.918368 1.615358 1.514501 -0.000019 -0.000022 -0.000050
 28   2.920798 1.614964 -1.501142 -0.000002 -0.000009 -0.000024
 29   8.824059 0.150544 0.091743 0.000006 -0.000231 -0.174534
 30   2.111085 -0.561179 1.784320 -0.000008 -0.000682 0.000024
 31   2.121290 -0.561289 -1.853599 0.000000 0.000000 -0.000002
 32   -0.810489 -0.093824 3.127092 3.071872 -0.114782 1.239365
 33   14.298673 -0.408176 0.475484 0.000248 0.000062 -1.896136
 34   15.835795 0.581398 0.242756 -0.214729 0.106889 -0.097869
 35   -0.815868 -0.091229 -3.114430 0.066464 3.132725 -1.010185
 36   14.294526 -0.410349 -0.463635 0.000033 -0.000000 -2.607695
 37   15.834409 0.579420 -0.284600 -0.006092 -0.035255 0.214458
 38   1.139685 -3.453749 -2.823813 0.000000 0.000000 0.000001
 39   -4.457742 -1.054854 -0.746180 0.000000 0.000000 0.000000
 40   1.118101 -3.449769 3.237290 0.000000 0.000001 0.000000
 41   -4.433840 -1.059130 0.959566 -0.000001 0.000000 0.000000
 42   -0.657468 1.697302 -2.688614 0.000000 0.000002 0.000000
 43   -0.664068 1.698578 2.869377 0.000000 0.000002 0.000000
time 7
  0   -0.967547 0.175787 -20.574476 0.000000 0.000000 -1.572114
  1   -1.093036 0.000002 -0.326057 -1.570757 -1.570379 -0.000171
  2   2.262337 0.113614 0.064702 -0.000052 0.000061 -0.260847
  3   2.380047 0.353302 0.047440 -0.133614 0.008086 0.071440
  4   2.033756 0.190472 -0.000128 0.073650 -0.006532 0.072179
  5   2.451511 0.204909 -0.003447 0.000000 -0.000005 -0.017472
  6   7.247600 -0.397300 -0.109469 0.000001 0.000033 -0.209345
  7   -2.022252 -0.104661 3.136172 0.972294 -1.225139 -3.876759
  8   1.168026 -0.537438 -0.063437 -0.564164 0.328518 -0.808278
  9   6.790376 -0.619176 0.015206 -0.000213 -0.000151 -1.326644
 10   8.637599 0.544015 -0.090417 -1.282668 -0.402905 -0.134826
 11   6.790465 -0.619039 0.017802 0.001673 -0.011708 -0.943936
 12   -2.022474 -0.104699 -2.873818 -1.159215 1.101745 -4.048005
 13   1.167898 -0.537463 0.063297 1.070439 -0.331215 -0.618030
 14   7.002743 -0.617765 -0.183752 0.000229 0.000250 -1.277845
 15   8.209042 0.615527 -0.255885 1.835987 0.361060 0.363583
 16   7.002735 -0.617911 -0.183641 0.013968 0.006973 -0.913045
 17   1.574674 0.609930 -0.000899 0.059874 0.001381 0.012004
 18   -0.602177 0.511412 -0.000006 0.000000 0.000000 0.000000
 19   3.673773 0.177020 1.119313 -0.000002 -0.000014 -0.174510
 20   3.673767 0.176993 -1.117566 0.000007 -0.000003 -0.174546
 21   3.942357 1.330634 1.627658 0.000002 -0.000011 -0.000026
 22   -0.246060 -0.011889 0.516521 -0.000011 0.000031 0.000025
 23   3.942374 1.330659 -1.631083 0.000019 0.000002 -0.000024
 24   -0.246150 -0.011872 -0.516511 -0.000005 -0.000006 0.000048
 25   4.941364 1.997338 1.629330 0.000018 -0.000001 -0.000024
 26   4.941382 1.997366 -1.629410 -0.000001 0.000005 -0.000024
 27   2.918368 1.615358 1.514501 -0.000019 -0.000022 -0.000050
 28   2.920798 1.614964 -1.501142 -0.000002 -0.000009 -0.000024
 29   8.824059 0.150544 0.091743 0.000006 -0.000231 -0.174534
 30   2.111085 -0.561179 1.784320 -0.000008 -0.000682 0.000024
 31   2.121290 -0.561289 -1.853599 0.000000 0.000000 -0.000002
 32   -0.810489 -0.093824 3.127092 3.071872 -0.114782 1.239365
 33   14.298673 -0.408176 0.475484 0.000248 0.000062 -1.896136
 34   15.835795 0.581398 0.242756 -0.214729 0.106889 -0.097869
 35   -0.815868 -0.091229 -3.114430 0.066464 3.132725 -1.010185
 36   14.294526 -0.410349 -0.463635 0.000033 -0.000000 -2.607695
 37   15.834409 0.579420 -0.284600 -0.006092 -0.035255 0.214458
 38   1.139685 -3.453749 -2.823813 0.000000 0.000000 0.000001
 39   -4.457742 -1.054854 -0.746180 0.000000 0.000000 0.000000
 40   1.118101 -3.449769 3.237290 0.000000 0.000001 0.000000
 41   -4.433840 -1.059130 0.959566 -0.000001 0.000000 0.000000
 42   -0.657468 1.697302 -2.688614 0.000000 0.000002 0.000000
 43   -0.664068 1.698578 2.869377 0.000000 0.000002 0.000000
time 8
  0   -0.967547 0.175787 -20.574476 0.000000 0.000000 -1.572114
  1   -1.093036 0.000002 -0.326057 -1.570757 -1.570379 -0.000171
  2   2.262337 0.113614 0.064702 -0.000052 0.000061 -0.260847
  3   2.380047 0.353302 0.047440 -0.157946 0.006995 0.056156
  4   2.033756 0.190472 -0.000128 0.059689 -0.004686 0.051736
  5   2.451511 0.204909 -0.003447 0.000000 -0.000005 -0.017472
  6   7.247600 -0.397300 -0.109469 0.000001 0.000033 -0.209345
  7   -2.022252 -0.104661 3.136172 0.888418 -1.259702 -3.796744
  8   1.168026 -0.537438 -0.063437 -0.435895 0.464820 -0.778672
  9   6.790376 -0.619176 0.015206 -0.000213 -0.000151 -1.507766
 10   8.637599 0.544015 -0.090417 -1.237227 -0.402905 -0.134826
 11   6.790465 -0.619039 0.017802 0.002432 -0.011793 -1.070648
 12   -2.022474 -0.104699 -2.873818 -1.159215 1.101745 -4.048005
 13   1.167898 -0.537463 0.063297 0.896109 -0.634299 -0.392780
 14   7.002743 -0.617765 -0.183752 0.000286 0.000250 -1.550855
 15   8.209042 0.615527 -0.255885 1.788603 0.470237 0.253472
 16   7.002735 -0.617911 -0.183641 0.013638 0.008552 -1.104177
 17   1.574674 0.609930 -0.000899 0.097854 0.006848 0.047931
 18   -0.602177 0.511412 -0.000006 0.000000 0.000000 0.000000
 19   3.673773 0.177020 1.119313 -0.000002 -0.000014 -0.174510
 20   3.673767 0.176993 -1.117566 0.000007 -0.000003 -0.174546
 21   3.942357 1.330634 1.627658 0.000002 -0.000011 -0.000026
 22   -0.246060 -0.011889 0.516521 -0.000011 0.000031 0.000025
 23   3.942374 1.330659 -1.631083 0.000019 0.000002 -0.000024
 24   -0.246150 -0.011872 -0.516511 -0.000005 -0.000006 0.000048
 25   4.941364 1.997338 1.629330 0.000018 -0.000001 -0.000024
 26   4.941382 1.997366 -1.629410 -0.000001 0.000005 -0.000024
 27   2.918368 1.615358 1.514501 -0.000019 -0.000022 -0.000050
 28   2.920798 1.614964 -1.501142 -0.000002 -0.000009 -0.000024
 29   8.824059 0.150544 0.091743 0.000006 -0.000231 -0.174534
 30   2.111085 -0.561179 1.784320 -0.000008 -0.000682 0.000024
 31   2.121290 -0.561289 -1.853599 0.000000 0.000000 -0.000002
 32   -0.810489 -0.093824 3.127092 3.071872 -0.114782 1.239365
 33   14.298673 -0.408176 0.475484 0.000248 0.000062 -1.896136
 34   15.835795 0.581398 0.242756 -0.214729 0.106889 -0.097869
 35   -0.815868 -0.091229 -3.114430 0.066464 3.132725 -1.010185
 36   14.294526 -0.410349 -0.463635 0.000033 -0.000000 -2.607695
 37   15.834409 0.579420 -0.284600 -0.006092 -0.035255 0.214458
 38   1.139685 -3.453749 -2.823813 0.000000 0.000000 0.000001
 39   -4.457742 -1.054854 -0.746180 0.000000 0.000000 0.000000
 40   1.118101 -3.449769 3.237290 0.000000 0.000001 0.000000
 41   -4.433840 -1.059130 0.959566 -0.000001 0.000000 0.000000
 42   -0.657468 1.697302 -2.688614 0.000000 0.000002 0.000000
 43   -0.664068 1.698578 2.869377 0.000000 0.000002 0.000000
time 9
  0   -0.967547 0.175787 -20.574476 0.000000 0.000000 -1.572114
  1   -1.093036 0.000002 -0.326057 -1.570757 -1.570379 -0.000171
  2   2.262337 0.113614 0.064702 -0.000052 0.000061 -0.260847
  3   2.380047 0.353302 0.047440 -0.184902 0.005137 0.039281
  4   2.033756 0.190472 -0.000128 0.044197 -0.002804 0.029371
  5   2.451511 0.204909 -0.003447 0.000000 -0.000005 -0.017472
  6   7.247600 -0.397300 -0.109469 0.000001 0.000033 -0.209345
  7   -2.022252 -0.104661 3.136172 0.861003 -1.269243 -3.771012
  8   1.168026 -0.537438 -0.063437 -0.371602 0.608819 -0.792020
  9   6.790376 -0.619176 0.015206 -0.000213 -0.000151 -1.671606
 10   8.637599 0.544015 -0.090417 -1.193987 -0.402905 -0.134826
 11   6.790465 -0.619039 0.017802 0.003162 -0.011850 -1.185421
 12   -2.022474 -0.104699 -2.873818 -1.159215 1.101745 -4.048005
 13   1.167898 -0.537463 0.063297 0.674401 -0.809386 -0.220498
 14   7.002743 -0.617765 -0.183752 0.000286 0.000250 -1.765699
 15   8.209042 0.615527 -0.255885 1.739422 0.552176 0.158034
 16   7.002735 -0.617911 -0.183641 0.013309 0.009736 -1.254633
 17   1.574674 0.609930 -0.000899 0.139936 0.011605 0.087959
 18   -0.602177 0.511412 -0.000006 0.000000 0.000000 0.000000
 19   3.673773 0.177020 1.119313 -0.000002 -0.000014 -0.174510
 20   3.673767 0.176993 -1.117566 0.000007 -0.000003 -0.174546
 21   3.942357 1.330634 1.627658 0.000002 -0.000011 -0.000026
 22   -0.246060 -0.011889 0.516521 -0.000011 0.000031 0.000025
 23   3.942374 1.330659 -1.631083 0.000019 0.000002 -0.000024
 24   -0.246150 -0.011872 -0.516511 -0.000005 -0.000006 0.000048
 25   4.941364 1.997338 1.629330 0.000018 -0.000001 -0.000024
 26   4.941382 1.997366 -1.629410 -0.000001 0.000005 -0.000024
 27   2.918368 1.615358 1.514501 -0.000019 -0.000022 -0.000050
 28   2.920798 1.614964 -1.501142 -0.000002 -0.000009 -0.000024
 29   8.824059 0.150544 0.091743 0.000006 -0.000231 -0.174534
 30   2.111085 -0.561179 1.784320 -0.000008 -0.000682 0.000024
 31   2.121290 -0.561289 -1.853599 0.000000 0.000000 -0.000002
 32   -0.810489 -0.093824 3.127092 3.071872 -0.114782 1.239365
 33   14.298673 -0.408176 0.475484 0.000248 0.000062 -1.896136
 34   15.835795 0.581398 0.242756 -0.214729 0.106889 -0.097869
 35   -0.815868 -0.091229 -3.114430 0.066464 3.132725 -1.010185
 36   14.294526 -0.410349 -0.463635 0.000033 -0.000000 -2.607695
 37   15.834409 0.579420 -0.284600 -0.006092 -0.035255 0.214458
 38   1.139685 -3.453749 -2.823813 0.000000 0.000000 0.000001
 39   -4.457742 -1.054854 -0.746180 0.000000 0.000000 0.000000
 40   1.118101 -3.449769 3.237290 0.000000 0.000001 0.000000
 41   -4.433840 -1.059130 0.959566 -0.000001 0.000000 0.000000
 42   -0.657468 1.697302 -2.688614 0.000000 0.000002 0.000000
 43   -0.664068 1.698578 2.869377 0.000000 0.000002 0.000000
time 10
  0   -0.967547 0.175787 -20.574476 0.000000 0.000000 -1.572114
  1   -1.093036 0.000002 -0.326057 -1.570757 -1.570379 -0.000171
  2   2.262337 0.113614 0.064702 -0.000052 0.000061 -0.260847
  3   2.380047 0.353302 0.047440 -0.212429 0.003064 0.022201
  4   2.033756 0.190472 -0.000128 0.028355 -0.001546 0.006137
  5   2.451511 0.204909 -0.003447 0.000000 -0.000005 -0.017472
  6   7.247600 -0.397300 -0.109469 0.000001 0.000033 -0.209345
  7   -2.022252 -0.104661 3.136172 0.873177 -1.265006 -3.782563
  8   1.168026 -0.537438 -0.063437 -0.367995 0.758756 -0.847753
  9   6.790376 -0.619176 0.015206 -0.000213 -0.000352 -1.825635
 10   8.637599 0.544015 -0.090417 -1.151980 -0.402905 -0.134826
 11   6.790465 -0.619039 0.017802 0.003892 -0.011907 -1.293273
 12   -2.022474 -0.104699 -2.873818 -1.159215 1.101745 -4.048005
 13   1.167898 -0.537463 0.063297 0.396880 -0.933111 -0.044342
 14   7.002743 -0.617765 -0.183752 0.000286 0.000250 -1.981616
 15   8.209042 0.615527 -0.255885 1.677873 0.629954 0.051651
 16   7.002735 -0.617911 -0.183641 0.012932 0.011146 -1.405861
 17   1.574674 0.609930 -0.000899 0.183359 0.015084 0.129134
 18   -0.602177 0.511412 -0.000006 0.000000 0.000000 0.000000
 19   3.673773 0.177020 1.119313 -0.000002 -0.000014 -0.174510
 20   3.673767 0.176993 -1.117566 0.000007 -0.000003 -0.174546
 21   3.942357 1.330634 1.627658 0.000002 -0.000011 -0.000026
 22   -0.246060 -0.011889 0.516521 -0.000011 0.000031 0.000025
 23   3.942374 1.330659 -1.631083 0.000019 0.000002 -0.000024
 24   -0.246150 -0.011872 -0.516511 -0.000005 -0.000006 0.000048
 25   4.941364 1.997338 1.629330 0.000018 -0.000001 -0.000024
 26   4.941382 1.997366 -1.629410 -0.000001 0.000005 -0.000024
 27   2.918368 1.615358 1.514501 -0.000019 -0.000022 -0.000050
 28   2.920798 1.614964 -1.501142 -0.000002 -0.000009 -0.000024
 29   8.824059 0.150544 0.091743 0.000006 -0.000231 -0.174534
 30   2.111085 -0.561179 1.784320 -0.000008 -0.000682 0.000024
 31   2.121290 -0.561289 -1.853599 0.000000 0.000000 -0.000002
 32   -0.810489 -0.093824 3.127092 3.071872 -0.114782 1.239365
 33   14.298673 -0.408176 0.475484 0.000248 0.000062 -1.896136
 34   15.835795 0.581398 0.242756 -0.214729 0.106889 -0.097869
 35   -0.815868 -0.091229 -3.114430 0.066464 3.132725 -1.010185
 36   14.294526 -0.410349 -0.463635 0.000033 -0.000000 -2.607695
 37   15.834409 0.579420 -0.284600 -0.006092 -0.035255 0.214458
 38   1.139685 -3.453749 -2.823813 0.000000 0.000000 0.000001
 39   -4.457742 -1.054854 -0.746180 0.000000 0.000000 0.000000
 40   1.118101 -3.449769 3.237290 0.000000 0.000001 0.000000
 41   -4.433840 -1.059130 0.959566 -0.000001 0.000000 0.000000
 42   -0.657468 1.697302 -2.688614 0.000000 0.000002 0.000000
 43   -0.664068 1.698578 2.869377 0.000000 0.000002 0.000000
time 11
  0   -0.967547 0.175787 -20.574476 0.000000 0.000000 -1.572114
  1   -1.093036 0.000002 -0.326057 -1.570757 -1.570379 -0.000171
  2   2.262337 0.113614 0.064702 -0.000052 0.000061 -0.260847
  3   2.380047 0.353302 0.047440 -0.238621 0.000355 0.005815
  4   2.033756 0.190472 -0.000128 0.013232 -0.000395 -0.015865
  5   2.451511 0.204909 -0.003447 0.000000 -0.000005 -0.017472
  6   7.247600 -0.397300 -0.109469 0.000001 0.000033 -0.209345
  7   -2.022252 -0.104661 3.136172 0.894745 -1.257338 -3.803036
  8   1.168026 -0.537438 -0.063437 -0.412671 0.907032 -0.941441
  9   6.790376 -0.619176 0.015206 -0.000213 -0.000352 -1.977023
 10   8.637599 0.544015 -0.090417 -1.110854 -0.402905 -0.134826
 11   6.790465 -0.619039 0.017802 0.004592 -0.011935 -1.399164
 12   -2.022474 -0.104699 -2.873818 -1.159215 1.101745 -4.048005
 13   1.167898 -0.537463 0.063297 0.060874 -1.013967 0.176005
 14   7.002743 -0.617765 -0.183752 0.000229 0.000250 -2.198275
 15   8.209042 0.615527 -0.255885 1.602447 0.701452 -0.067000
 16   7.002735 -0.617911 -0.183641 0.012509 0.012443 -1.557420
 17   1.574674 0.609930 -0.000899 0.224751 0.017143 0.167462
 18   -0.602177 0.511412 -0.000006 0.000000 0.000000 0.000000
 19   3.673773 0.177020 1.119313 -0.000002 -0.000014 -0.174510
 20   3.673767 0.176993 -1.117566 0.000007 -0.000003 -0.174546
 21   3.942357 1.330634 1.627658 0.000002 -0.000011 -0.000026
 22   -0.246060 -0.011889 0.516521 -0.000011 0.000031 0.000025
 23   3.942374 1.330659 -1.631083 0.000019 0.000002 -0.000024
 24   -0.246150 -0.011872 -0.516511 -0.000005 -0.000006 0.000048
 25   4.941364 1.997338 1.629330 0.000018 -0.000001 -0.000024
 26   4.941382 1.997366 -1.629410 -0.000001 0.000005 -0.000024
 27   2.918368 1.615358 1.514501 -0.000019 -0.000022 -0.000050
 28   2.920798 1.614964 -1.501142 -0.000002 -0.000009 -0.000024
 29   8.824059 0.150544 0.091743 0.000006 -0.000231 -0.174534
 30   2.111085 -0.561179 1.784320 -0.000008 -0.000682 0.000024
 31   2.121290 -0.561289 -1.853599 0.000000 0.000000 -0.000002
 32   -0.810489 -0.093824 3.127092 3.071872 -0.114782 1.239365
 33   14.298673 -0.408176 0.475484 0.000248 0.000062 -1.896136
 34   15.835795 0.581398 0.242756 -0.214729 0.106889 -0.097869
 35   -0.815868 -0.091229 -3.114430 0.066464 3.132725 -1.010185
 36   14.294526 -0.410349 -0.463635 0.000033 -0.000000 -2.607695
 37   15.834409 0.579420 -0.284600 -0.006092 -0.035255 0.214458
 38   1.139685 -3.453749 -2.823813 0.000000 0.000000 0.000001
 39   -4.457742 -1.054854 -0.746180 0.000000 0.000000 0.000000
 40   1.118101 -3.449769 3.237290 0.000000 0.000001 0.000000
 41   -4.433840 -1.059130 0.959566 -0.000001 0.000000 0.000000
 42   -0.657468 1.697302 -2.688614 0.000000 0.000002 0.000000
 43   -0.664068 1.698578 2.869377 0.000000 0.000002 0.000000
time 12
  0   -0.967547 0.175787 -20.574476 0.000000 0.000000 -1.572114
  1   -1.093036 0.000002 -0.326057 -1.570757 -1.570379 -0.000171
  2   2.262337 0.113614 0.064702 -0.000052 0.000061 -0.260847
  3   2.380047 0.353302 0.047440 -0.261678 -0.001922 -0.008489
  4   2.033756 0.190472 -0.000128 -0.000010 0.000048 -0.035003
  5   2.451511 0.204909 -0.003447 0.000000 -0.000005 -0.017472
  6   7.247600 -0.397300 -0.109469 0.000001 0.000033 -0.209345
  7   -2.022252 -0.104661 3.136172 0.896949 -1.256502 -3.804821
  8   1.168026 -0.537438 -0.063437 -0.469876 1.049673 -1.049553
  9   6.790376 -0.619176 0.015206 -0.000213 -0.000352 -2.133165
 10   8.637599 0.544015 -0.090417 -1.068583 -0.402905 -0.134826
 11   6.790465 -0.619039 0.017802 0.005381 -0.011935 -1.508573
 12   -2.022474 -0.104699 -2.873818 -1.159215 1.101745 -4.048005
 13   1.167898 -0.537463 0.063297 -0.331297 -1.036241 0.471233
 14   7.002743 -0.617765 -0.183752 0.000229 0.000250 -2.415017
 15   8.209042 0.615527 -0.255885 1.510555 0.765006 -0.200505
 16   7.002735 -0.617911 -0.183641 0.011991 0.013909 -1.709145
 17   1.574674 0.609930 -0.000899 0.260984 0.017853 0.201947
 18   -0.602177 0.511412 -0.000006 0.000000 0.000000 0.000000
 19   3.673773 0.177020 1.119313 -0.000002 -0.000014 -0.174510
 20   3.673767 0.176993 -1.117566 0.000007 -0.000003 -0.174546
 21   3.942357 1.330634 1.627658 0.000002 -0.000011 -0.000026
 22   -0.246060 -0.011889 0.516521 -0.000011 0.000031 0.000025
 23   3.942374 1.330659 -1.631083 0.000019 0.000002 -0.000024
 24   -0.246150 -0.011872 -0.516511 -0.000005 -0.000006 0.000048
 25   4.941364 1.997338 1.629330 0.000018 -0.000001 -0.000024
 26   4.941382 1.997366 -1.629410 -0.000001 0.000005 -0.000024
 27   2.918368 1.615358 1.514501 -0.000019 -0.000022 -0.000050
 28   2.920798 1.614964 -1.501142 -0.000002 -0.000009 -0.000024
 29   8.824059 0.150544 0.091743 0.000006 -0.000231 -0.174534
 30   2.111085 -0.561179 1.784320 -0.000008 -0.000682 0.000024
 31   2.121290 -0.561289 -1.853599 0.000000 0.000000 -0.000002
 32   -0.810489 -0.093824 3.127092 3.071872 -0.114782 1.239365
 33   14.298673 -0.408176 0.475484 0.000248 0.000062 -1.896136
 34   15.835795 0.581398 0.242756 -0.214729 0.106889 -0.097869
 35   -0.815868 -0.091229 -3.114430 0.066464 3.132725 -1.010185
 36   14.294526 -0.410349 -0.463635 0.000033 -0.000000 -2.607695
 37   15.834409 0.579420 -0.284600 -0.006092 -0.035255 0.214458
 38   1.139685 -3.453749 -2.823813 0.000000 0.000000 0.000001
 39   -4.457742 -1.054854 -0.746180 0.000000 0.000000 0.000000
 40   1.118101 -3.449769 3.237290 0.000000 0.000001 0.000000
 41   -4.433840 -1.059130 0.959566 -0.000001 0.000000 0.000000
 42   -0.657468 1.697302 -2.688614 0.000000 0.000002 0.000000
 43   -0.664068 1.698578 2.869377 0.000000 0.000002 0.000000
end
