version 1
nodes
  0 "Bip01" -1
  1 "Bip01 Pelvis" 0
  2 "Bip01 Spine" 1
  3 "Bip01 Spine1" 2
  4 "Bip01 Spine2" 3
  5 "Bip01 Spine3" 4
  6 "Bip01 Neck" 5
  7 "Bip01 L Arm" 6
  8 "Bip01 L Arm1" 7
  9 "Bip01 L Arm2" 8
 10 "Bip01 L Hand" 9
 11 "Bip06 L elbow2-smooth" 8
 12 "Bip01 R Arm" 6
 13 "Bip01 R Arm1" 12
 14 "Bip01 R Arm2" 13
 15 "Bip01 R Hand" 14
 16 "Bip06 R elbow2-smooth" 13
 17 "Bip01 Head" 6
 18 "Bip06 Head_helper" 17
 19 "Bip06 Head_eyes_l" 18
 20 "Bip06 Head_eyes_r" 18
 21 "Bip06 Head_blink_l" 18
 22 "Bip06 Head_blink_smooth_l1" 21
 23 "Bip06 Head_blink_r" 18
 24 "Bip06 Head_blink_smooth_r1" 23
 25 "Bip06 Head_L_eyebrow" 18
 26 "Bip06 Head_R_eyebrow" 18
 27 "Bip06 Head_blink_l_lid" 18
 28 "Bip06 Head_blink_r_lid" 18
 29 "Bip06 bunny" 18
 30 "Bip06 bunnyL" 29
 31 "Bip06 bunnyR" 29
 32 "Bip01 L Leg" 1
 33 "Bip01 L Leg1" 32
 34 "Bip01 L Foot" 33
 35 "Bip01 R Leg" 1
 36 "Bip01 R Leg1" 35
 37 "Bip01 R Foot" 36
 38 "Bip03 HairR1" 17
 39 "Bip03 HairR2" 38
 40 "Bip03 HairL1" 17
 41 "Bip03 HairL2" 40
 42 "Bip03 swingR" 17
 43 "Bip03 swingL" 17
end
skeleton
time 0
  0   -0.967547 0.175787 -20.574476 0.000000 0.000000 -1.572114
  1   -1.093036 0.000002 -0.326057 -0.214055 -1.569036 -1.356583
  2   2.262337 0.113614 0.064702 -0.193892 -0.082717 0.042400
  3   2.380047 0.353302 0.047440 -0.182817 0.028268 0.208708
  4   2.033756 0.190472 -0.000128 -0.347911 0.013914 -0.094231
  5   2.451511 0.204909 -0.003447 -0.240372 0.166571 -0.028567
  6   7.247600 -0.397300 -0.109469 0.000001 0.000021 0.156829
  7   -2.022252 -0.104661 3.136172 1.473056 -1.231654 -4.670046
  8   1.168026 -0.537438 -0.063437 -0.290413 0.858831 -0.877042
  9   6.790376 -0.619176 0.015206 0.022589 0.097890 -1.620590
 10   8.637599 0.544015 -0.090417 -1.856411 -0.323434 0.001688
 11   6.790465 -0.619039 0.017802 0.036329 0.054665 -1.148970
 12   -2.022474 -0.104699 -2.873818 -2.729876 1.524450 -5.860575
 13   1.167898 -0.537463 0.063297 0.533251 -0.778976 -0.797092
 14   7.002743 -0.617765 -0.183752 0.029663 -0.147731 -1.882362
 15   8.209042 0.615527 -0.255885 2.247488 0.175997 -0.229551
 16   7.002735 -0.617911 -0.183641 0.004224 -0.102702 -1.333779
 17   1.574674 0.609930 -0.000899 0.738799 -0.423866 0.567011
 18   -0.602177 0.511412 -0.000006 0.000000 0.000000 0.000000
 19   3.673773 0.177020 1.119313 -0.000002 -0.000014 -0.174510
 20   3.673767 0.176993 -1.117566 0.000007 -0.000003 -0.174546
 21   3.942357 1.330634 1.627658 0.000002 -0.000011 -0.000026
 22   -0.246060 -0.011889 0.516521 -0.000011 0.000031 0.000025
 23   3.942374 1.330659 -1.631083 0.000019 0.000002 -0.000024
 24   -0.246150 -0.011872 -0.516511 -0.000005 -0.000006 0.000048
 25   4.941364 1.997338 1.629330 0.000018 -0.000001 -0.000024
 26   4.941382 1.997366 -1.629410 -0.000001 0.000005 -0.000024
 27   2.918368 1.615358 1.514501 -0.000019 -0.000022 -0.000050
 28   2.920798 1.614964 -1.501142 -0.000002 -0.000009 -0.000024
 29   8.824059 0.150544 0.091743 0.000006 -0.000231 -0.174534
 30   2.111085 -0.561179 1.784320 -0.000008 -0.000682 0.000024
 31   2.121290 -0.561289 -1.853599 0.000000 0.000000 -0.000002
 32   -0.810489 -0.093824 3.127092 3.071872 -0.114782 1.239365
 33   14.298673 -0.408176 0.475484 0.000248 0.000062 -1.896136
 34   15.835795 0.581398 0.242756 -0.214729 0.106889 -0.097869
 35   -0.815868 -0.091229 -3.114430 0.066464 3.132725 -1.010185
 36   14.294526 -0.410349 -0.463635 0.000033 -0.000000 -2.607695
 37   15.834409 0.579420 -0.284600 -0.006092 -0.035255 0.214458
 38   1.139685 -3.453749 -2.823813 0.000000 0.000000 0.000001
 39   -4.457742 -1.054854 -0.746180 0.000000 0.000000 0.000000
 40   1.118101 -3.449769 3.237290 0.000000 0.000001 0.000000
 41   -4.433840 -1.059130 0.959566 -0.000001 0.000000 0.000000
 42   -0.657468 1.697302 -2.688614 0.000000 0.000002 0.000000
 43   -0.664068 1.698578 2.869377 0.000000 0.000002 0.000000
time 1
  0   -0.967547 0.175787 -20.574476 0.000000 0.000000 -1.572114
  1   -1.093036 0.000002 -0.326057 -0.214055 -1.569036 -1.356583
  2   2.262337 0.113614 0.064702 -0.214463 -0.043599 0.075000
  3   2.380047 0.353302 0.047440 -0.185307 0.037112 0.211524
  4   2.033756 0.190472 -0.000128 -0.298116 0.023574 -0.075600
  5   2.451511 0.204909 -0.003447 -0.285133 0.214981 -0.053704
  6   7.247600 -0.397300 -0.109469 0.000001 0.000021 0.156829
  7   -2.022252 -0.104661 3.136172 2.117030 -1.138458 -5.277573
  8   1.168026 -0.537438 -0.063437 -0.817666 0.615058 -1.478522
  9   6.790376 -0.619176 0.015206 0.033907 0.071261 -1.321135
 10   8.637599 0.544015 -0.090417 -1.576277 -0.367639 0.041984
 11   6.790465 -0.619039 0.017802 0.035774 0.034483 -0.940014
 12   -2.022474 -0.104699 -2.873818 -0.551894 1.531561 -3.715975
 13   1.167898 -0.537463 0.063297 0.772181 -0.668675 -0.642123
 14   7.002743 -0.617765 -0.183752 0.022604 -0.140065 -1.772217
 15   8.209042 0.615527 -0.255885 2.524170 0.125305 -0.608115
 16   7.002735 -0.617911 -0.183641 0.002717 -0.095541 -1.257227
 17   1.574674 0.609930 -0.000899 1.041785 -0.494133 0.293463
 18   -0.602177 0.511412 -0.000006 0.000000 0.000000 0.000000
 19   3.673773 0.177020 1.119313 -0.000002 -0.000014 -0.174510
 20   3.673767 0.176993 -1.117566 0.000007 -0.000003 -0.174546
 21   3.942357 1.330634 1.627658 0.000002 -0.000011 -0.000026
 22   -0.246060 -0.011889 0.516521 -0.000011 0.000031 0.000025
 23   3.942374 1.330659 -1.631083 0.000019 0.000002 -0.000024
 24   -0.246150 -0.011872 -0.516511 -0.000005 -0.000006 0.000048
 25   4.941364 1.997338 1.629330 0.000018 -0.000001 -0.000024
 26   4.941382 1.997366 -1.629410 -0.000001 0.000005 -0.000024
 27   2.918368 1.615358 1.514501 -0.000019 -0.000022 -0.000050
 28   2.920798 1.614964 -1.501142 -0.000002 -0.000009 -0.000024
 29   8.824059 0.150544 0.091743 0.000006 -0.000231 -0.174534
 30   2.111085 -0.561179 1.784320 -0.000008 -0.000682 0.000024
 31   2.121290 -0.561289 -1.853599 0.000000 0.000000 -0.000002
 32   -0.810489 -0.093824 3.127092 3.071872 -0.114782 1.239365
 33   14.298673 -0.408176 0.475484 0.000248 0.000062 -1.896136
 34   15.835795 0.581398 0.242756 -0.214729 0.106889 -0.097869
 35   -0.815868 -0.091229 -3.114430 0.066464 3.132725 -1.010185
 36   14.294526 -0.410349 -0.463635 0.000033 -0.000000 -2.607695
 37   15.834409 0.579420 -0.284600 -0.006092 -0.035255 0.214458
 38   1.139685 -3.453749 -2.823813 0.000000 0.000000 0.000001
 39   -4.457742 -1.054854 -0.746180 0.000000 0.000000 0.000000
 40   1.118101 -3.449769 3.237290 0.000000 0.000001 0.000000
 41   -4.433840 -1.059130 0.959566 -0.000001 0.000000 0.000000
 42   -0.657468 1.697302 -2.688614 0.000000 0.000002 0.000000
 43   -0.664068 1.698578 2.869377 0.000000 0.000002 0.000000
time 2
  0   -0.967547 0.175787 -20.574476 0.000000 0.000000 -1.572114
  1   -1.093036 0.000002 -0.326057 -0.214055 -1.569036 -1.356583
  2   2.262337 0.113614 0.064702 -0.225048 -0.006075 0.096974
  3   2.380047 0.353302 0.047440 -0.185952 0.047167 0.209728
  4   2.033756 0.190472 -0.000128 -0.254075 0.034384 -0.066756
  5   2.451511 0.204909 -0.003447 -0.311801 0.257725 -0.076810
  6   7.247600 -0.397300 -0.109469 0.000001 0.000021 0.156829
  7   -2.022252 -0.104661 3.136172 2.346034 -1.025257 -5.486906
  8   1.168026 -0.537438 -0.063437 -1.020606 0.311713 -1.655082
  9   6.790376 -0.619176 0.015206 0.036792 0.041895 -1.015039
 10   8.637599 0.544015 -0.090417 -1.364569 -0.306118 0.068245
 11   6.790465 -0.619039 0.017802 0.030869 0.014358 -0.725925
 12   -2.022474 -0.104699 -2.873818 -0.364112 1.469130 -3.553215
 13   1.167898 -0.537463 0.063297 1.104883 -0.549578 -0.804114
 14   7.002743 -0.617765 -0.183752 0.007631 -0.114568 -1.462162
 15   8.209042 0.615527 -0.255885 2.728374 0.084676 -0.864481
 16   7.002735 -0.617911 -0.183641 0.001493 -0.074959 -1.041257
 17   1.574674 0.609930 -0.000899 1.231806 -0.525515 0.086887
 18   -0.602177 0.511412 -0.000006 0.000000 0.000000 0.000000
 19   3.673773 0.177020 1.119313 -0.000002 -0.000014 -0.174510
 20   3.673767 0.176993 -1.117566 0.000007 -0.000003 -0.174546
 21   3.942357 1.330634 1.627658 0.000002 -0.000011 -0.000026
 22   -0.246060 -0.011889 0.516521 -0.000011 0.000031 0.000025
 23   3.942374 1.330659 -1.631083 0.000019 0.000002 -0.000024
 24   -0.246150 -0.011872 -0.516511 -0.000005 -0.000006 0.000048
 25   4.941364 1.997338 1.629330 0.000018 -0.000001 -0.000024
 26   4.941382 1.997366 -1.629410 -0.000001 0.000005 -0.000024
 27   2.918368 1.615358 1.514501 -0.000019 -0.000022 -0.000050
 28   2.920798 1.614964 -1.501142 -0.000002 -0.000009 -0.000024
 29   8.824059 0.150544 0.091743 0.000006 -0.000231 -0.174534
 30   2.111085 -0.561179 1.784320 -0.000008 -0.000682 0.000024
 31   2.121290 -0.561289 -1.853599 0.000000 0.000000 -0.000002
 32   -0.810489 -0.093824 3.127092 3.071872 -0.114782 1.239365
 33   14.298673 -0.408176 0.475484 0.000248 0.000062 -1.896136
 34   15.835795 0.581398 0.242756 -0.214729 0.106889 -0.097869
 35   -0.815868 -0.091229 -3.114430 0.066464 3.132725 -1.010185
 36   14.294526 -0.410349 -0.463635 0.000033 -0.000000 -2.607695
 37   15.834409 0.579420 -0.284600 -0.006092 -0.035255 0.214458
 38   1.139685 -3.453749 -2.823813 0.000000 0.000000 0.000001
 39   -4.457742 -1.054854 -0.746180 0.000000 0.000000 0.000000
 40   1.118101 -3.449769 3.237290 0.000000 0.000001 0.000000
 41   -4.433840 -1.059130 0.959566 -0.000001 0.000000 0.000000
 42   -0.657468 1.697302 -2.688614 0.000000 0.000002 0.000000
 43   -0.664068 1.698578 2.869377 0.000000 0.000002 0.000000
time 3
  0   -0.967547 0.175787 -20.574476 0.000000 0.000000 -1.572114
  1   -1.093036 0.000002 -0.326057 -0.214055 -1.569036 -1.356583
  2   2.262337 0.113614 0.064702 -0.174480 0.023239 0.060471
  3   2.380047 0.353302 0.047440 -0.176802 0.063191 0.182650
  4   2.033756 0.190472 -0.000128 -0.233235 0.053847 -0.088975
  5   2.451511 0.204909 -0.003447 -0.293537 0.296187 -0.095756
  6   7.247600 -0.397300 -0.109469 0.000001 0.000021 0.156829
  7   -2.022252 -0.104661 3.136172 2.342967 -1.039872 -5.488690
  8   1.168026 -0.537438 -0.063437 -1.025352 0.452140 -1.643885
  9   6.790376 -0.619176 0.015206 0.030689 0.012863 -0.708339
 10   8.637599 0.544015 -0.090417 -1.340527 -0.238191 -0.049966
 11   6.790465 -0.619039 0.017802 0.021760 -0.004289 -0.511143
 12   -2.022474 -0.104699 -2.873818 -0.594432 1.418977 -3.778398
 13   1.167898 -0.537463 0.063297 1.261779 -0.698018 -1.099463
 14   7.002743 -0.617765 -0.183752 0.001197 -0.072604 -1.015065
 15   8.209042 0.615527 -0.255885 2.707810 -0.029949 -1.144059
 16   7.002735 -0.617911 -0.183641 0.007472 -0.045863 -0.729308
 17   1.574674 0.609930 -0.000899 0.656340 -0.458940 0.327762
 18   -0.602177 0.511412 -0.000006 0.000000 0.000000 0.000000
 19   3.673773 0.177020 1.119313 -0.000002 -0.000014 -0.174510
 20   3.673767 0.176993 -1.117566 0.000007 -0.000003 -0.174546
 21   3.942357 1.330634 1.627658 0.000002 -0.000011 -0.000026
 22   -0.246060 -0.011889 0.516521 -0.000011 0.000031 0.000025
 23   3.942374 1.330659 -1.631083 0.000019 0.000002 -0.000024
 24   -0.246150 -0.011872 -0.516511 -0.000005 -0.000006 0.000048
 25   4.941364 1.997338 1.629330 0.000018 -0.000001 -0.000024
 26   4.941382 1.997366 -1.629410 -0.000001 0.000005 -0.000024
 27   2.918368 1.615358 1.514501 -0.000019 -0.000022 -0.000050
 28   2.920798 1.614964 -1.501142 -0.000002 -0.000009 -0.000024
 29   8.824059 0.150544 0.091743 0.000006 -0.000231 -0.174534
 30   2.111085 -0.561179 1.784320 -0.000008 -0.000682 0.000024
 31   2.121290 -0.561289 -1.853599 0.000000 0.000000 -0.000002
 32   -0.810489 -0.093824 3.127092 3.071872 -0.114782 1.239365
 33   14.298673 -0.408176 0.475484 0.000248 0.000062 -1.896136
 34   15.835795 0.581398 0.242756 -0.214729 0.106889 -0.097869
 35   -0.815868 -0.091229 -3.114430 0.066464 3.132725 -1.010185
 36   14.294526 -0.410349 -0.463635 0.000033 -0.000000 -2.607695
 37   15.834409 0.579420 -0.284600 -0.006092 -0.035255 0.214458
 38   1.139685 -3.453749 -2.823813 0.000000 0.000000 0.000001
 39   -4.457742 -1.054854 -0.746180 0.000000 0.000000 0.000000
 40   1.118101 -3.449769 3.237290 0.000000 0.000001 0.000000
 41   -4.433840 -1.059130 0.959566 -0.000001 0.000000 0.000000
 42   -0.657468 1.697302 -2.688614 0.000000 0.000002 0.000000
 43   -0.664068 1.698578 2.869377 0.000000 0.000002 0.000000
time 4
  0   -0.967547 0.175787 -20.574476 0.000000 0.000000 -1.572114
  1   -1.093036 0.000002 -0.326057 -0.214055 -1.569036 -1.356583
  2   2.262337 0.113614 0.064702 -0.139108 0.029243 0.056278
  3   2.380047 0.353302 0.047440 -0.164636 0.062651 0.179079
  4   2.033756 0.190472 -0.000128 -0.207858 0.063998 -0.115218
  5   2.451511 0.204909 -0.003447 -0.237154 0.303720 -0.105439
  6   7.247600 -0.397300 -0.109469 0.000001 0.000021 0.156829
  7   -2.022252 -0.104661 3.136172 2.300885 -1.076914 -5.454505
  8   1.168026 -0.537438 -0.063437 -1.046298 0.566555 -1.597768
  9   6.790376 -0.619176 0.015206 0.024642 0.000116 -0.562687
 10   8.637599 0.544015 -0.090417 -1.352592 -0.045392 0.301266
 11   6.790465 -0.619039 0.017802 0.016096 -0.012333 -0.409117
 12   -2.022474 -0.104699 -2.873818 -1.012151 1.354108 -4.182617
 13   1.167898 -0.537463 0.063297 1.302972 -0.649555 -1.290208
 14   7.002743 -0.617765 -0.183752 0.022376 -0.019284 -0.407083
 15   8.209042 0.615527 -0.255885 2.961411 0.124700 -1.226688
 16   7.002735 -0.617911 -0.183641 0.029456 -0.011861 -0.303661
 17   1.574674 0.609930 -0.000899 0.311313 -0.353386 0.502071
 18   -0.602177 0.511412 -0.000006 0.000000 0.000000 0.000000
 19   3.673773 0.177020 1.119313 -0.000002 -0.000014 -0.174510
 20   3.673767 0.176993 -1.117566 0.000007 -0.000003 -0.174546
 21   3.942357 1.330634 1.627658 0.000002 -0.000011 -0.000026
 22   -0.246060 -0.011889 0.516521 -0.000011 0.000031 0.000025
 23   3.942374 1.330659 -1.631083 0.000019 0.000002 -0.000024
 24   -0.246150 -0.011872 -0.516511 -0.000005 -0.000006 0.000048
 25   4.941364 1.997338 1.629330 0.000018 -0.000001 -0.000024
 26   4.941382 1.997366 -1.629410 -0.000001 0.000005 -0.000024
 27   2.918368 1.615358 1.514501 -0.000019 -0.000022 -0.000050
 28   2.920798 1.614964 -1.501142 -0.000002 -0.000009 -0.000024
 29   8.824059 0.150544 0.091743 0.000006 -0.000231 -0.174534
 30   2.111085 -0.561179 1.784320 -0.000008 -0.000682 0.000024
 31   2.121290 -0.561289 -1.853599 0.000000 0.000000 -0.000002
 32   -0.810489 -0.093824 3.127092 3.071872 -0.114782 1.239365
 33   14.298673 -0.408176 0.475484 0.000248 0.000062 -1.896136
 34   15.835795 0.581398 0.242756 -0.214729 0.106889 -0.097869
 35   -0.815868 -0.091229 -3.114430 0.066464 3.132725 -1.010185
 36   14.294526 -0.410349 -0.463635 0.000033 -0.000000 -2.607695
 37   15.834409 0.579420 -0.284600 -0.006092 -0.035255 0.214458
 38   1.139685 -3.453749 -2.823813 0.000000 0.000000 0.000001
 39   -4.457742 -1.054854 -0.746180 0.000000 0.000000 0.000000
 40   1.118101 -3.449769 3.237290 0.000000 0.000001 0.000000
 41   -4.433840 -1.059130 0.959566 -0.000001 0.000000 0.000000
 42   -0.657468 1.697302 -2.688614 0.000000 0.000002 0.000000
 43   -0.664068 1.698578 2.869377 0.000000 0.000002 0.000000
time 5
  0   -0.967547 0.175787 -20.574476 0.000000 0.000000 -1.572114
  1   -1.093036 0.000002 -0.326057 -0.214055 -1.569036 -1.356583
  2   2.262337 0.113614 0.064702 -0.105188 0.043193 0.038804
  3   2.380047 0.353302 0.047440 -0.145840 0.048462 0.174957
  4   2.033756 0.190472 -0.000128 -0.143641 0.040999 -0.120220
  5   2.451511 0.204909 -0.003447 -0.116001 0.228272 -0.094096
  6   7.247600 -0.397300 -0.109469 0.000001 0.000021 0.156829
  7   -2.022252 -0.104661 3.136172 2.221035 -1.127792 -5.385386
  8   1.168026 -0.537438 -0.063437 -1.137232 0.640115 -1.646099
  9   6.790376 -0.619176 0.015206 0.018428 -0.009629 -0.444203
 10   8.637599 0.544015 -0.090417 -1.372230 -0.262124 0.721586
 11   6.790465 -0.619039 0.017802 0.010899 -0.018416 -0.326180
 12   -2.022474 -0.104699 -2.873818 -1.559976 1.220134 -4.712544
 13   1.167898 -0.537463 0.063297 1.471959 -0.578564 -1.413820
 14   7.002743 -0.617765 -0.183752 0.057219 0.007576 0.058083
 15   8.209042 0.615527 -0.255885 3.406203 0.049797 -1.428869
 16   7.002735 -0.617911 -0.183641 0.054593 0.006071 0.022087
 17   1.574674 0.609930 -0.000899 0.028840 -0.059775 0.688280
 18   -0.602177 0.511412 -0.000006 0.000000 0.000000 0.000000
 19   3.673773 0.177020 1.119313 -0.000002 -0.000014 -0.174510
 20   3.673767 0.176993 -1.117566 0.000007 -0.000003 -0.174546
 21   3.942357 1.330634 1.627658 0.000002 -0.000011 -0.000026
 22   -0.246060 -0.011889 0.516521 -0.000011 0.000031 0.000025
 23   3.942374 1.330659 -1.631083 0.000019 0.000002 -0.000024
 24   -0.246150 -0.011872 -0.516511 -0.000005 -0.000006 0.000048
 25   4.941364 1.997338 1.629330 0.000018 -0.000001 -0.000024
 26   4.941382 1.997366 -1.629410 -0.000001 0.000005 -0.000024
 27   2.918368 1.615358 1.514501 -0.000019 -0.000022 -0.000050
 28   2.920798 1.614964 -1.501142 -0.000002 -0.000009 -0.000024
 29   8.824059 0.150544 0.091743 0.000006 -0.000231 -0.174534
 30   2.111085 -0.561179 1.784320 -0.000008 -0.000682 0.000024
 31   2.121290 -0.561289 -1.853599 0.000000 0.000000 -0.000002
 32   -0.810489 -0.093824 3.127092 3.071872 -0.114782 1.239365
 33   14.298673 -0.408176 0.475484 0.000248 0.000062 -1.896136
 34   15.835795 0.581398 0.242756 -0.214729 0.106889 -0.097869
 35   -0.815868 -0.091229 -3.114430 0.066464 3.132725 -1.010185
 36   14.294526 -0.410349 -0.463635 0.000033 -0.000000 -2.607695
 37   15.834409 0.579420 -0.284600 -0.006092 -0.035255 0.214458
 38   1.139685 -3.453749 -2.823813 0.000000 0.000000 0.000001
 39   -4.457742 -1.054854 -0.746180 0.000000 0.000000 0.000000
 40   1.118101 -3.449769 3.237290 0.000000 0.000001 0.000000
 41   -4.433840 -1.059130 0.959566 -0.000001 0.000000 0.000000
 42   -0.657468 1.697302 -2.688614 0.000000 0.000002 0.000000
 43   -0.664068 1.698578 2.869377 0.000000 0.000002 0.000000
time 6
  0   -0.967547 0.175787 -20.574476 0.000000 0.000000 -1.572114
  1   -1.093036 0.000002 -0.326057 -0.214055 -1.569036 -1.356583
  2   2.262337 0.113614 0.064702 -0.076592 0.114993 0.005102
  3   2.380047 0.353302 0.047440 -0.080285 0.026266 0.179385
  4   2.033756 0.190472 -0.000128 -0.077598 0.009024 -0.120981
  5   2.451511 0.204909 -0.003447 -0.006984 0.142027 -0.081243
  6   7.247600 -0.397300 -0.109469 0.000001 0.000021 0.156829
  7   -2.022252 -0.104661 3.136172 2.105047 -1.182678 -5.280484
  8   1.168026 -0.537438 -0.063437 -1.621834 0.925246 -1.851506
  9   6.790376 -0.619176 0.015206 0.033796 0.022674 -0.814899
 10   8.637599 0.544015 -0.090417 -2.585764 1.124145 0.612997
 11   6.790465 -0.619039 0.017802 0.025351 0.001993 -0.585948
 12   -2.022474 -0.104699 -2.873818 -1.672453 0.973953 -4.791626
 13   1.167898 -0.537463 0.063297 0.450796 -0.797639 -0.383579
 14   7.002743 -0.617765 -0.183752 0.000969 -0.082996 -1.123065
 15   8.209042 0.615527 -0.255885 2.944083 -0.724125 0.899226
 16   7.002735 -0.617911 -0.183641 0.005212 -0.052686 -0.804646
 17   1.574674 0.609930 -0.000899 -0.128725 0.116615 0.836198
 18   -0.602177 0.511412 -0.000006 0.000000 0.000000 0.000000
 19   3.673773 0.177020 1.119313 -0.000002 -0.000014 -0.174510
 20   3.673767 0.176993 -1.117566 0.000007 -0.000003 -0.174546
 21   3.942357 1.330634 1.627658 0.000002 -0.000011 -0.000026
 22   -0.246060 -0.011889 0.516521 -0.000011 0.000031 0.000025
 23   3.942374 1.330659 -1.631083 0.000019 0.000002 -0.000024
 24   -0.246150 -0.011872 -0.516511 -0.000005 -0.000006 0.000048
 25   4.941364 1.997338 1.629330 0.000018 -0.000001 -0.000024
 26   4.941382 1.997366 -1.629410 -0.000001 0.000005 -0.000024
 27   2.918368 1.615358 1.514501 -0.000019 -0.000022 -0.000050
 28   2.920798 1.614964 -1.501142 -0.000002 -0.000009 -0.000024
 29   8.824059 0.150544 0.091743 0.000006 -0.000231 -0.174534
 30   2.111085 -0.561179 1.784320 -0.000008 -0.000682 0.000024
 31   2.121290 -0.561289 -1.853599 0.000000 0.000000 -0.000002
 32   -0.810489 -0.093824 3.127092 3.071872 -0.114782 1.239365
 33   14.298673 -0.408176 0.475484 0.000248 0.000062 -1.896136
 34   15.835795 0.581398 0.242756 -0.214729 0.106889 -0.097869
 35   -0.815868 -0.091229 -3.114430 0.066464 3.132725 -1.010185
 36   14.294526 -0.410349 -0.463635 0.000033 -0.000000 -2.607695
 37   15.834409 0.579420 -0.284600 -0.006092 -0.035255 0.214458
 38   1.139685 -3.453749 -2.823813 0.000000 0.000000 0.000001
 39   -4.457742 -1.054854 -0.746180 0.000000 0.000000 0.000000
 40   1.118101 -3.449769 3.237290 0.000000 0.000001 0.000000
 41   -4.433840 -1.059130 0.959566 -0.000001 0.000000 0.000000
 42   -0.657468 1.697302 -2.688614 0.000000 0.000002 0.000000
 43   -0.664068 1.698578 2.869377 0.000000 0.000002 0.000000
time 7
  0   -0.967547 0.175787 -20.574476 0.000000 0.000000 -1.572114
  1   -1.093036 0.000002 -0.326057 -0.214055 -1.569036 -1.356583
  2   2.262337 0.113614 0.064702 -0.045245 0.115736 -0.017108
  3   2.380047 0.353302 0.047440 -0.041793 0.002860 0.176467
  4   2.033756 0.190472 -0.000128 -0.031584 -0.016910 -0.127578
  5   2.451511 0.204909 -0.003447 0.031581 0.100262 -0.085205
  6   7.247600 -0.397300 -0.109469 0.000001 0.000021 0.156829
  7   -2.022252 -0.104661 3.136172 1.957235 -1.234190 -5.143652
  8   1.168026 -0.537438 -0.063437 -1.286890 1.162377 -1.564240
  9   6.790376 -0.619176 0.015206 0.037014 0.049170 -1.090582
 10   8.637599 0.544015 -0.090417 -3.240174 0.533288 0.109698
 11   6.790465 -0.619039 0.017802 0.032475 0.019247 -0.778928
 12   -2.022474 -0.104699 -2.873818 -1.372194 0.469517 -4.574007
 13   1.167898 -0.537463 0.063297 -0.018769 -0.380695 0.162082
 14   7.002743 -0.617765 -0.183752 0.002450 -0.095943 -1.259281
 15   8.209042 0.615527 -0.255885 2.841405 -0.874536 0.667156
 16   7.002735 -0.617911 -0.183641 0.003047 -0.061539 -0.899909
 17   1.574674 0.609930 -0.000899 -0.129822 0.205697 0.794839
 18   -0.602177 0.511412 -0.000006 0.000000 0.000000 0.000000
 19   3.673773 0.177020 1.119313 -0.000002 -0.000014 -0.174510
 20   3.673767 0.176993 -1.117566 0.000007 -0.000003 -0.174546
 21   3.942357 1.330634 1.627658 0.000002 -0.000011 -0.000026
 22   -0.246060 -0.011889 0.516521 -0.000011 0.000031 0.000025
 23   3.942374 1.330659 -1.631083 0.000019 0.000002 -0.000024
 24   -0.246150 -0.011872 -0.516511 -0.000005 -0.000006 0.000048
 25   4.941364 1.997338 1.629330 0.000018 -0.000001 -0.000024
 26   4.941382 1.997366 -1.629410 -0.000001 0.000005 -0.000024
 27   2.918368 1.615358 1.514501 -0.000019 -0.000022 -0.000050
 28   2.920798 1.614964 -1.501142 -0.000002 -0.000009 -0.000024
 29   8.824059 0.150544 0.091743 0.000006 -0.000231 -0.174534
 30   2.111085 -0.561179 1.784320 -0.000008 -0.000682 0.000024
 31   2.121290 -0.561289 -1.853599 0.000000 0.000000 -0.000002
 32   -0.810489 -0.093824 3.127092 3.071872 -0.114782 1.239365
 33   14.298673 -0.408176 0.475484 0.000248 0.000062 -1.896136
 34   15.835795 0.581398 0.242756 -0.214729 0.106889 -0.097869
 35   -0.815868 -0.091229 -3.114430 0.066464 3.132725 -1.010185
 36   14.294526 -0.410349 -0.463635 0.000033 -0.000000 -2.607695
 37   15.834409 0.579420 -0.284600 -0.006092 -0.035255 0.214458
 38   1.139685 -3.453749 -2.823813 0.000000 0.000000 0.000001
 39   -4.457742 -1.054854 -0.746180 0.000000 0.000000 0.000000
 40   1.118101 -3.449769 3.237290 0.000000 0.000001 0.000000
 41   -4.433840 -1.059130 0.959566 -0.000001 0.000000 0.000000
 42   -0.657468 1.697302 -2.688614 0.000000 0.000002 0.000000
 43   -0.664068 1.698578 2.869377 0.000000 0.000002 0.000000
time 8
  0   -0.967547 0.175787 -20.574476 0.000000 0.000000 -1.572114
  1   -1.093036 0.000002 -0.326057 -0.214055 -1.569036 -1.356583
  2   2.262337 0.113614 0.064702 -0.013949 0.102829 -0.036931
  3   2.380047 0.353302 0.047440 -0.009556 -0.020198 0.172080
  4   2.033756 0.190472 -0.000128 0.007072 -0.041610 -0.134755
  5   2.451511 0.204909 -0.003447 0.043939 0.072845 -0.094344
  6   7.247600 -0.397300 -0.109469 0.000001 0.000021 0.156829
  7   -2.022252 -0.104661 3.136172 1.797919 -1.277949 -4.992827
  8   1.168026 -0.537438 -0.063437 -0.439881 1.181245 -0.782531
  9   6.790376 -0.619176 0.015206 0.034240 0.070059 -1.308230
 10   8.637599 0.544015 -0.090417 -3.476980 -0.549739 0.144134
 11   6.790465 -0.619039 0.017802 0.035657 0.033602 -0.930959
 12   -2.022474 -0.104699 -2.873818 -1.407547 0.515752 -4.825327
 13   1.167898 -0.537463 0.063297 -0.155069 -0.502640 -0.422987
 14   7.002743 -0.617765 -0.183752 0.000969 -0.078624 -1.078264
 15   8.209042 0.615527 -0.255885 2.552572 -0.755902 0.296049
 16   7.002735 -0.617911 -0.183641 0.006107 -0.049810 -0.773407
 17   1.574674 0.609930 -0.000899 -0.115280 0.246049 0.722174
 18   -0.602177 0.511412 -0.000006 0.000000 0.000000 0.000000
 19   3.673773 0.177020 1.119313 -0.000002 -0.000014 -0.174510
 20   3.673767 0.176993 -1.117566 0.000007 -0.000003 -0.174546
 21   3.942357 1.330634 1.627658 0.000002 -0.000011 -0.000026
 22   -0.246060 -0.011889 0.516521 -0.000011 0.000031 0.000025
 23   3.942374 1.330659 -1.631083 0.000019 0.000002 -0.000024
 24   -0.246150 -0.011872 -0.516511 -0.000005 -0.000006 0.000048
 25   4.941364 1.997338 1.629330 0.000018 -0.000001 -0.000024
 26   4.941382 1.997366 -1.629410 -0.000001 0.000005 -0.000024
 27   2.918368 1.615358 1.514501 -0.000019 -0.000022 -0.000050
 28   2.920798 1.614964 -1.501142 -0.000002 -0.000009 -0.000024
 29   8.824059 0.150544 0.091743 0.000006 -0.000231 -0.174534
 30   2.111085 -0.561179 1.784320 -0.000008 -0.000682 0.000024
 31   2.121290 -0.561289 -1.853599 0.000000 0.000000 -0.000002
 32   -0.810489 -0.093824 3.127092 3.071872 -0.114782 1.239365
 33   14.298673 -0.408176 0.475484 0.000248 0.000062 -1.896136
 34   15.835795 0.581398 0.242756 -0.214729 0.106889 -0.097869
 35   -0.815868 -0.091229 -3.114430 0.066464 3.132725 -1.010185
 36   14.294526 -0.410349 -0.463635 0.000033 -0.000000 -2.607695
 37   15.834409 0.579420 -0.284600 -0.006092 -0.035255 0.214458
 38   1.139685 -3.453749 -2.823813 0.000000 0.000000 0.000001
 39   -4.457742 -1.054854 -0.746180 0.000000 0.000000 0.000000
 40   1.118101 -3.449769 3.237290 0.000000 0.000001 0.000000
 41   -4.433840 -1.059130 0.959566 -0.000001 0.000000 0.000000
 42   -0.657468 1.697302 -2.688614 0.000000 0.000002 0.000000
 43   -0.664068 1.698578 2.869377 0.000000 0.000002 0.000000
time 9
  0   -0.967547 0.175787 -20.574476 0.000000 0.000000 -1.572114
  1   -1.093036 0.000002 -0.326057 -0.214055 -1.569036 -1.356583
  2   2.262337 0.113614 0.064702 0.006686 0.086733 -0.050015
  3   2.380047 0.353302 0.047440 0.003495 -0.036545 0.170917
  4   2.033756 0.190472 -0.000128 0.035400 -0.058017 -0.136966
  5   2.451511 0.204909 -0.003447 0.040858 0.058471 -0.097687
  6   7.247600 -0.397300 -0.109469 0.000001 0.000021 0.156829
  7   -2.022252 -0.104661 3.136172 1.669565 -1.315394 -4.869424
  8   1.168026 -0.537438 -0.063437 -0.122150 1.106830 -0.334015
  9   6.790376 -0.619176 0.015206 0.026861 0.090282 -1.531312
 10   8.637599 0.544015 -0.090417 -3.363465 -1.326990 0.440890
 11   6.790465 -0.619039 0.017802 0.036621 0.048639 -1.086624
 12   -2.022474 -0.104699 -2.873818 -1.431786 0.509048 -4.996608
 13   1.167898 -0.537463 0.063297 -0.060102 -0.553392 -0.696725
 14   7.002743 -0.617765 -0.183752 0.003247 -0.100429 -1.306309
 15   8.209042 0.615527 -0.255885 2.317233 -0.562516 0.003421
 16   7.002735 -0.617911 -0.183641 0.002529 -0.064640 -0.932693
 17   1.574674 0.609930 -0.000899 -0.113330 0.257906 0.654609
 18   -0.602177 0.511412 -0.000006 0.000000 0.000000 0.000000
 19   3.673773 0.177020 1.119313 -0.000002 -0.000014 -0.174510
 20   3.673767 0.176993 -1.117566 0.000007 -0.000003 -0.174546
 21   3.942357 1.330634 1.627658 0.000002 -0.000011 -0.000026
 22   -0.246060 -0.011889 0.516521 -0.000011 0.000031 0.000025
 23   3.942374 1.330659 -1.631083 0.000019 0.000002 -0.000024
 24   -0.246150 -0.011872 -0.516511 -0.000005 -0.000006 0.000048
 25   4.941364 1.997338 1.629330 0.000018 -0.000001 -0.000024
 26   4.941382 1.997366 -1.629410 -0.000001 0.000005 -0.000024
 27   2.918368 1.615358 1.514501 -0.000019 -0.000022 -0.000050
 28   2.920798 1.614964 -1.501142 -0.000002 -0.000009 -0.000024
 29   8.824059 0.150544 0.091743 0.000006 -0.000231 -0.174534
 30   2.111085 -0.561179 1.784320 -0.000008 -0.000682 0.000024
 31   2.121290 -0.561289 -1.853599 0.000000 0.000000 -0.000002
 32   -0.810489 -0.093824 3.127092 3.071872 -0.114782 1.239365
 33   14.298673 -0.408176 0.475484 0.000248 0.000062 -1.896136
 34   15.835795 0.581398 0.242756 -0.214729 0.106889 -0.097869
 35   -0.815868 -0.091229 -3.114430 0.066464 3.132725 -1.010185
 36   14.294526 -0.410349 -0.463635 0.000033 -0.000000 -2.607695
 37   15.834409 0.579420 -0.284600 -0.006092 -0.035255 0.214458
 38   1.139685 -3.453749 -2.823813 0.000000 0.000000 0.000001
 39   -4.457742 -1.054854 -0.746180 0.000000 0.000000 0.000000
 40   1.118101 -3.449769 3.237290 0.000000 0.000001 0.000000
 41   -4.433840 -1.059130 0.959566 -0.000001 0.000000 0.000000
 42   -0.657468 1.697302 -2.688614 0.000000 0.000002 0.000000
 43   -0.664068 1.698578 2.869377 0.000000 0.000002 0.000000
time 10
  0   -0.967547 0.175787 -20.574476 0.000000 0.000000 -1.572114
  1   -1.093036 0.000002 -0.326057 -0.214055 -1.569036 -1.356583
  2   2.262337 0.113614 0.064702 0.042071 0.046285 -0.049762
  3   2.380047 0.353302 0.047440 -0.014536 -0.041902 0.175610
  4   2.033756 0.190472 -0.000128 0.060076 -0.067665 -0.134284
  5   2.451511 0.204909 -0.003447 0.031444 0.050925 -0.094022
  6   7.247600 -0.397300 -0.109469 0.000001 0.000021 0.156829
  7   -2.022252 -0.104661 3.136172 1.583772 -1.356818 -4.784339
  8   1.168026 -0.537438 -0.063437 -0.600677 1.236641 -0.370959
  9   6.790376 -0.619176 0.015206 0.008109 0.116177 -1.863746
 10   8.637599 0.544015 -0.090417 -2.398538 -0.904577 -0.038536
 11   6.790465 -0.619039 0.017802 0.033672 0.070782 -1.318246
 12   -2.022474 -0.104699 -2.873818 -1.451139 0.559839 -5.011352
 13   1.167898 -0.537463 0.063297 0.369536 -0.493029 -1.017317
 14   7.002743 -0.617765 -0.183752 0.001823 -0.092365 -1.221906
 15   8.209042 0.615527 -0.255885 2.266901 -0.620320 -0.004457
 16   7.002735 -0.617911 -0.183641 0.003565 -0.059114 -0.873692
 17   1.574674 0.609930 -0.000899 -0.138596 0.279940 0.601052
 18   -0.602177 0.511412 -0.000006 0.000000 0.000000 0.000000
 19   3.673773 0.177020 1.119313 -0.000002 -0.000014 -0.174510
 20   3.673767 0.176993 -1.117566 0.000007 -0.000003 -0.174546
 21   3.942357 1.330634 1.627658 0.000002 -0.000011 -0.000026
 22   -0.246060 -0.011889 0.516521 -0.000011 0.000031 0.000025
 23   3.942374 1.330659 -1.631083 0.000019 0.000002 -0.000024
 24   -0.246150 -0.011872 -0.516511 -0.000005 -0.000006 0.000048
 25   4.941364 1.997338 1.629330 0.000018 -0.000001 -0.000024
 26   4.941382 1.997366 -1.629410 -0.000001 0.000005 -0.000024
 27   2.918368 1.615358 1.514501 -0.000019 -0.000022 -0.000050
 28   2.920798 1.614964 -1.501142 -0.000002 -0.000009 -0.000024
 29   8.824059 0.150544 0.091743 0.000006 -0.000231 -0.174534
 30   2.111085 -0.561179 1.784320 -0.000008 -0.000682 0.000024
 31   2.121290 -0.561289 -1.853599 0.000000 0.000000 -0.000002
 32   -0.810489 -0.093824 3.127092 3.071872 -0.114782 1.239365
 33   14.298673 -0.408176 0.475484 0.000248 0.000062 -1.896136
 34   15.835795 0.581398 0.242756 -0.214729 0.106889 -0.097869
 35   -0.815868 -0.091229 -3.114430 0.066464 3.132725 -1.010185
 36   14.294526 -0.410349 -0.463635 0.000033 -0.000000 -2.607695
 37   15.834409 0.579420 -0.284600 -0.006092 -0.035255 0.214458
 38   1.139685 -3.453749 -2.823813 0.000000 0.000000 0.000001
 39   -4.457742 -1.054854 -0.746180 0.000000 0.000000 0.000000
 40   1.118101 -3.449769 3.237290 0.000000 0.000001 0.000000
 41   -4.433840 -1.059130 0.959566 -0.000001 0.000000 0.000000
 42   -0.657468 1.697302 -2.688614 0.000000 0.000002 0.000000
 43   -0.664068 1.698578 2.869377 0.000000 0.000002 0.000000
time 11
  0   -0.967547 0.175787 -20.574476 0.000000 0.000000 -1.572114
  1   -1.093036 0.000002 -0.326057 -0.214055 -1.569036 -1.356583
  2   2.262337 0.113614 0.064702 0.096995 -0.017569 -0.045876
  3   2.380047 0.353302 0.047440 -0.051708 -0.040356 0.183303
  4   2.033756 0.190472 -0.000128 0.087869 -0.076557 -0.130369
  5   2.451511 0.204909 -0.003447 0.018161 0.045468 -0.088920
  6   7.247600 -0.397300 -0.109469 0.000001 0.000021 0.156829
  7   -2.022252 -0.104661 3.136172 1.506223 -1.406255 -4.704325
  8   1.168026 -0.537438 -0.063437 -1.051044 1.058629 -0.656453
  9   6.790376 -0.619176 0.015206 -0.002044 0.124853 -2.001625
 10   8.637599 0.544015 -0.090417 -2.350895 -0.591692 0.386270
 11   6.790465 -0.619039 0.017802 0.030986 0.079594 -1.414044
 12   -2.022474 -0.104699 -2.873818 -1.463115 0.623141 -4.992108
 13   1.167898 -0.537463 0.063297 0.806976 -0.394629 -1.330161
 14   7.002743 -0.617765 -0.183752 0.001311 -0.070901 -0.996914
 15   8.209042 0.615527 -0.255885 2.202692 -0.752119 0.004684
 16   7.002735 -0.617911 -0.183641 0.007942 -0.044735 -0.716503
 17   1.574674 0.609930 -0.000899 -0.179825 0.317594 0.552486
 18   -0.602177 0.511412 -0.000006 0.000000 0.000000 0.000000
 19   3.673773 0.177020 1.119313 -0.000002 -0.000014 -0.174510
 20   3.673767 0.176993 -1.117566 0.000007 -0.000003 -0.174546
 21   3.942357 1.330634 1.627658 0.000002 -0.000011 -0.000026
 22   -0.246060 -0.011889 0.516521 -0.000011 0.000031 0.000025
 23   3.942374 1.330659 -1.631083 0.000019 0.000002 -0.000024
 24   -0.246150 -0.011872 -0.516511 -0.000005 -0.000006 0.000048
 25   4.941364 1.997338 1.629330 0.000018 -0.000001 -0.000024
 26   4.941382 1.997366 -1.629410 -0.000001 0.000005 -0.000024
 27   2.918368 1.615358 1.514501 -0.000019 -0.000022 -0.000050
 28   2.920798 1.614964 -1.501142 -0.000002 -0.000009 -0.000024
 29   8.824059 0.150544 0.091743 0.000006 -0.000231 -0.174534
 30   2.111085 -0.561179 1.784320 -0.000008 -0.000682 0.000024
 31   2.121290 -0.561289 -1.853599 0.000000 0.000000 -0.000002
 32   -0.810489 -0.093824 3.127092 3.071872 -0.114782 1.239365
 33   14.298673 -0.408176 0.475484 0.000248 0.000062 -1.896136
 34   15.835795 0.581398 0.242756 -0.214729 0.106889 -0.097869
 35   -0.815868 -0.091229 -3.114430 0.066464 3.132725 -1.010185
 36   14.294526 -0.410349 -0.463635 0.000033 -0.000000 -2.607695
 37   15.834409 0.579420 -0.284600 -0.006092 -0.035255 0.214458
 38   1.139685 -3.453749 -2.823813 0.000000 0.000000 0.000001
 39   -4.457742 -1.054854 -0.746180 0.000000 0.000000 0.000000
 40   1.118101 -3.449769 3.237290 0.000000 0.000001 0.000000
 41   -4.433840 -1.059130 0.959566 -0.000001 0.000000 0.000000
 42   -0.657468 1.697302 -2.688614 0.000000 0.000002 0.000000
 43   -0.664068 1.698578 2.869377 0.000000 0.000002 0.000000
time 12
  0   -0.967547 0.175787 -20.574476 0.000000 0.000000 -1.572114
  1   -1.093036 0.000002 -0.326057 -0.214055 -1.569036 -1.356583
  2   2.262337 0.113614 0.064702 0.122368 -0.060414 -0.045479
  3   2.380047 0.353302 0.047440 -0.084336 -0.038582 0.190894
  4   2.033756 0.190472 -0.000128 0.115920 -0.084467 -0.125947
  5   2.451511 0.204909 -0.003447 0.002328 0.041956 -0.082878
  6   7.247600 -0.397300 -0.109469 0.000001 0.000021 0.156829
  7   -2.022252 -0.104661 3.136172 1.407681 -1.460593 -4.601114
  8   1.168026 -0.537438 -0.063437 -0.934671 0.872768 -0.666638
  9   6.790376 -0.619176 0.015206 0.003005 0.120782 -1.934459
 10   8.637599 0.544015 -0.090417 -2.449440 -0.626183 0.658791
 11   6.790465 -0.619039 0.017802 0.032387 0.075387 -1.367443
 12   -2.022474 -0.104699 -2.873818 -1.460145 0.693349 -4.936961
 13   1.167898 -0.537463 0.063297 1.048015 -0.336199 -1.487309
 14   7.002743 -0.617765 -0.183752 0.004499 -0.053922 -0.817547
 15   8.209042 0.615527 -0.255885 2.155668 -0.908961 -0.050823
 16   7.002735 -0.617911 -0.183641 0.012979 -0.033796 -0.591050
 17   1.574674 0.609930 -0.000899 -0.212890 0.351248 0.511385
 18   -0.602177 0.511412 -0.000006 0.000000 0.000000 0.000000
 19   3.673773 0.177020 1.119313 -0.000002 -0.000014 -0.174510
 20   3.673767 0.176993 -1.117566 0.000007 -0.000003 -0.174546
 21   3.942357 1.330634 1.627658 0.000002 -0.000011 -0.000026
 22   -0.246060 -0.011889 0.516521 -0.000011 0.000031 0.000025
 23   3.942374 1.330659 -1.631083 0.000019 0.000002 -0.000024
 24   -0.246150 -0.011872 -0.516511 -0.000005 -0.000006 0.000048
 25   4.941364 1.997338 1.629330 0.000018 -0.000001 -0.000024
 26   4.941382 1.997366 -1.629410 -0.000001 0.000005 -0.000024
 27   2.918368 1.615358 1.514501 -0.000019 -0.000022 -0.000050
 28   2.920798 1.614964 -1.501142 -0.000002 -0.000009 -0.000024
 29   8.824059 0.150544 0.091743 0.000006 -0.000231 -0.174534
 30   2.111085 -0.561179 1.784320 -0.000008 -0.000682 0.000024
 31   2.121290 -0.561289 -1.853599 0.000000 0.000000 -0.000002
 32   -0.810489 -0.093824 3.127092 3.071872 -0.114782 1.239365
 33   14.298673 -0.408176 0.475484 0.000248 0.000062 -1.896136
 34   15.835795 0.581398 0.242756 -0.214729 0.106889 -0.097869
 35   -0.815868 -0.091229 -3.114430 0.066464 3.132725 -1.010185
 36   14.294526 -0.410349 -0.463635 0.000033 -0.000000 -2.607695
 37   15.834409 0.579420 -0.284600 -0.006092 -0.035255 0.214458
 38   1.139685 -3.453749 -2.823813 0.000000 0.000000 0.000001
 39   -4.457742 -1.054854 -0.746180 0.000000 0.000000 0.000000
 40   1.118101 -3.449769 3.237290 0.000000 0.000001 0.000000
 41   -4.433840 -1.059130 0.959566 -0.000001 0.000000 0.000000
 42   -0.657468 1.697302 -2.688614 0.000000 0.000002 0.000000
 43   -0.664068 1.698578 2.869377 0.000000 0.000002 0.000000
time 13
  0   -0.967547 0.175787 -20.574476 0.000000 0.000000 -1.572114
  1   -1.093036 0.000002 -0.326057 -0.214055 -1.569036 -1.356583
  2   2.262337 0.113614 0.064702 0.115744 -0.069126 -0.040112
  3   2.380047 0.353302 0.047440 -0.087201 -0.037492 0.198342
  4   2.033756 0.190472 -0.000128 0.141740 -0.091095 -0.120800
  5   2.451511 0.204909 -0.003447 -0.015371 0.040193 -0.075968
  6   7.247600 -0.397300 -0.109469 0.000001 0.000021 0.156829
  7   -2.022252 -0.104661 3.136172 1.177622 -1.515420 -4.364827
  8   1.168026 -0.537438 -0.063437 -0.969602 0.825271 -0.871475
  9   6.790376 -0.619176 0.015206 0.011493 0.112640 -1.812353
 10   8.637599 0.544015 -0.090417 -2.487220 -0.646385 0.796607
 11   6.790465 -0.619039 0.017802 0.034431 0.067428 -1.282488
 12   -2.022474 -0.104699 -2.873818 -1.434085 0.763268 -4.843901
 13   1.167898 -0.537463 0.063297 1.012024 -0.244307 -1.510252
 14   7.002743 -0.617765 -0.183752 0.011445 -0.036092 -0.616399
 15   8.209042 0.615527 -0.255885 2.368284 -1.007469 -0.285599
 16   7.002735 -0.617911 -0.183641 0.020276 -0.022518 -0.450143
 17   1.574674 0.609930 -0.000899 -0.197901 0.361732 0.509833
 18   -0.602177 0.511412 -0.000006 0.000000 0.000000 0.000000
 19   3.673773 0.177020 1.119313 -0.000002 -0.000014 -0.174510
 20   3.673767 0.176993 -1.117566 0.000007 -0.000003 -0.174546
 21   3.942357 1.330634 1.627658 0.000002 -0.000011 -0.000026
 22   -0.246060 -0.011889 0.516521 -0.000011 0.000031 0.000025
 23   3.942374 1.330659 -1.631083 0.000019 0.000002 -0.000024
 24   -0.246150 -0.011872 -0.516511 -0.000005 -0.000006 0.000048
 25   4.941364 1.997338 1.629330 0.000018 -0.000001 -0.000024
 26   4.941382 1.997366 -1.629410 -0.000001 0.000005 -0.000024
 27   2.918368 1.615358 1.514501 -0.000019 -0.000022 -0.000050
 28   2.920798 1.614964 -1.501142 -0.000002 -0.000009 -0.000024
 29   8.824059 0.150544 0.091743 0.000006 -0.000231 -0.174534
 30   2.111085 -0.561179 1.784320 -0.000008 -0.000682 0.000024
 31   2.121290 -0.561289 -1.853599 0.000000 0.000000 -0.000002
 32   -0.810489 -0.093824 3.127092 3.071872 -0.114782 1.239365
 33   14.298673 -0.408176 0.475484 0.000248 0.000062 -1.896136
 34   15.835795 0.581398 0.242756 -0.214729 0.106889 -0.097869
 35   -0.815868 -0.091229 -3.114430 0.066464 3.132725 -1.010185
 36   14.294526 -0.410349 -0.463635 0.000033 -0.000000 -2.607695
 37   15.834409 0.579420 -0.284600 -0.006092 -0.035255 0.214458
 38   1.139685 -3.453749 -2.823813 0.000000 0.000000 0.000001
 39   -4.457742 -1.054854 -0.746180 0.000000 0.000000 0.000000
 40   1.118101 -3.449769 3.237290 0.000000 0.000001 0.000000
 41   -4.433840 -1.059130 0.959566 -0.000001 0.000000 0.000000
 42   -0.657468 1.697302 -2.688614 0.000000 0.000002 0.000000
 43   -0.664068 1.698578 2.869377 0.000000 0.000002 0.000000
time 14
  0   -0.967547 0.175787 -20.574476 0.000000 0.000000 -1.572114
  1   -1.093036 0.000002 -0.326057 -0.214055 -1.569036 -1.356583
  2   2.262337 0.113614 0.064702 0.092014 -0.076030 -0.041467
  3   2.380047 0.353302 0.047440 -0.095256 -0.032470 0.203831
  4   2.033756 0.190472 -0.000128 0.162506 -0.096200 -0.115363
  5   2.451511 0.204909 -0.003447 -0.034114 0.040010 -0.068415
  6   7.247600 -0.397300 -0.109469 0.000001 0.000021 0.156829
  7   -2.022252 -0.104661 3.136172 -3.356269 -1.594174 0.175985
  8   1.168026 -0.537438 -0.063437 -0.950871 0.802630 -1.024123
  9   6.790376 -0.619176 0.015206 0.018983 0.103429 -1.690171
 10   8.637599 0.544015 -0.090417 -2.503776 -0.626746 0.797620
 11   6.790465 -0.619039 0.017802 0.035832 0.059298 -1.197475
 12   -2.022474 -0.104699 -2.873818 -1.381774 0.824654 -4.716278
 13   1.167898 -0.537463 0.063297 0.941097 -0.209676 -1.477442
 14   7.002743 -0.617765 -0.183752 0.013381 -0.032458 -0.574486
 15   8.209042 0.615527 -0.255885 2.486708 -1.014506 -0.379654
 16   7.002735 -0.617911 -0.183641 0.021971 -0.020206 -0.420780
 17   1.574674 0.609930 -0.000899 -0.189534 0.349402 0.500371
 18   -0.602177 0.511412 -0.000006 0.000000 0.000000 0.000000
 19   3.673773 0.177020 1.119313 -0.000002 -0.000014 -0.174510
 20   3.673767 0.176993 -1.117566 0.000007 -0.000003 -0.174546
 21   3.942357 1.330634 1.627658 0.000002 -0.000011 -0.000026
 22   -0.246060 -0.011889 0.516521 -0.000011 0.000031 0.000025
 23   3.942374 1.330659 -1.631083 0.000019 0.000002 -0.000024
 24   -0.246150 -0.011872 -0.516511 -0.000005 -0.000006 0.000048
 25   4.941364 1.997338 1.629330 0.000018 -0.000001 -0.000024
 26   4.941382 1.997366 -1.629410 -0.000001 0.000005 -0.000024
 27   2.918368 1.615358 1.514501 -0.000019 -0.000022 -0.000050
 28   2.920798 1.614964 -1.501142 -0.000002 -0.000009 -0.000024
 29   8.824059 0.150544 0.091743 0.000006 -0.000231 -0.174534
 30   2.111085 -0.561179 1.784320 -0.000008 -0.000682 0.000024
 31   2.121290 -0.561289 -1.853599 0.000000 0.000000 -0.000002
 32   -0.810489 -0.093824 3.127092 3.071872 -0.114782 1.239365
 33   14.298673 -0.408176 0.475484 0.000248 0.000062 -1.896136
 34   15.835795 0.581398 0.242756 -0.214729 0.106889 -0.097869
 35   -0.815868 -0.091229 -3.114430 0.066464 3.132725 -1.010185
 36   14.294526 -0.410349 -0.463635 0.000033 -0.000000 -2.607695
 37   15.834409 0.579420 -0.284600 -0.006092 -0.035255 0.214458
 38   1.139685 -3.453749 -2.823813 0.000000 0.000000 0.000001
 39   -4.457742 -1.054854 -0.746180 0.000000 0.000000 0.000000
 40   1.118101 -3.449769 3.237290 0.000000 0.000001 0.000000
 41   -4.433840 -1.059130 0.959566 -0.000001 0.000000 0.000000
 42   -0.657468 1.697302 -2.688614 0.000000 0.000002 0.000000
 43   -0.664068 1.698578 2.869377 0.000000 0.000002 0.000000
time 15
  0   -0.967547 0.175787 -20.574476 0.000000 0.000000 -1.572114
  1   -1.093036 0.000002 -0.326057 -0.214055 -1.569036 -1.356583
  2   2.262337 0.113614 0.064702 0.056095 -0.081375 -0.045605
  3   2.380047 0.353302 0.047440 -0.106372 -0.024561 0.208871
  4   2.033756 0.190472 -0.000128 0.175416 -0.099568 -0.109781
  5   2.451511 0.204909 -0.003447 -0.052566 0.041238 -0.060762
  6   7.247600 -0.397300 -0.109469 0.000001 0.000021 0.156829
  7   -2.022252 -0.104661 3.136172 -1.139457 -1.510116 -2.035208
  8   1.168026 -0.537438 -0.063437 -0.912523 0.802177 -1.136030
  9   6.790376 -0.619176 0.015206 0.024975 0.093886 -1.573272
 10   8.637599 0.544015 -0.090417 -2.358028 -0.516374 0.518154
 11   6.790465 -0.619039 0.017802 0.036504 0.051453 -1.115865
 12   -2.022474 -0.104699 -2.873818 -1.308003 0.872340 -4.566922
 13   1.167898 -0.537463 0.063297 0.866164 -0.260885 -1.323381
 14   7.002743 -0.617765 -0.183752 0.003759 -0.056818 -0.847744
 15   8.209042 0.615527 -0.255885 2.389711 -0.849871 -0.190642
 16   7.002735 -0.617911 -0.183641 0.012038 -0.035544 -0.612189
 17   1.574674 0.609930 -0.000899 -0.156956 0.325901 0.507134
 18   -0.602177 0.511412 -0.000006 0.000000 0.000000 0.000000
 19   3.673773 0.177020 1.119313 -0.000002 -0.000014 -0.174510
 20   3.673767 0.176993 -1.117566 0.000007 -0.000003 -0.174546
 21   3.942357 1.330634 1.627658 0.000002 -0.000011 -0.000026
 22   -0.246060 -0.011889 0.516521 -0.000011 0.000031 0.000025
 23   3.942374 1.330659 -1.631083 0.000019 0.000002 -0.000024
 24   -0.246150 -0.011872 -0.516511 -0.000005 -0.000006 0.000048
 25   4.941364 1.997338 1.629330 0.000018 -0.000001 -0.000024
 26   4.941382 1.997366 -1.629410 -0.000001 0.000005 -0.000024
 27   2.918368 1.615358 1.514501 -0.000019 -0.000022 -0.000050
 28   2.920798 1.614964 -1.501142 -0.000002 -0.000009 -0.000024
 29   8.824059 0.150544 0.091743 0.000006 -0.000231 -0.174534
 30   2.111085 -0.561179 1.784320 -0.000008 -0.000682 0.000024
 31   2.121290 -0.561289 -1.853599 0.000000 0.000000 -0.000002
 32   -0.810489 -0.093824 3.127092 3.071872 -0.114782 1.239365
 33   14.298673 -0.408176 0.475484 0.000248 0.000062 -1.896136
 34   15.835795 0.581398 0.242756 -0.214729 0.106889 -0.097869
 35   -0.815868 -0.091229 -3.114430 0.066464 3.132725 -1.010185
 36   14.294526 -0.410349 -0.463635 0.000033 -0.000000 -2.607695
 37   15.834409 0.579420 -0.284600 -0.006092 -0.035255 0.214458
 38   1.139685 -3.453749 -2.823813 0.000000 0.000000 0.000001
 39   -4.457742 -1.054854 -0.746180 0.000000 0.000000 0.000000
 40   1.118101 -3.449769 3.237290 0.000000 0.000001 0.000000
 41   -4.433840 -1.059130 0.959566 -0.000001 0.000000 0.000000
 42   -0.657468 1.697302 -2.688614 0.000000 0.000002 0.000000
 43   -0.664068 1.698578 2.869377 0.000000 0.000002 0.000000
time 16
  0   -0.967547 0.175787 -20.574476 0.000000 0.000000 -1.572114
  1   -1.093036 0.000002 -0.326057 -0.214055 -1.569036 -1.356583
  2   2.262337 0.113614 0.064702 0.027856 -0.075658 -0.052996
  3   2.380047 0.353302 0.047440 -0.112493 -0.021397 0.210585
  4   2.033756 0.190472 -0.000128 0.177832 -0.100898 -0.103909
  5   2.451511 0.204909 -0.003447 -0.070128 0.043705 -0.052961
  6   7.247600 -0.397300 -0.109469 0.000001 0.000021 0.156829
  7   -2.022252 -0.104661 3.136172 -1.261293 -1.470105 -1.909177
  8   1.168026 -0.537438 -0.063437 -0.853229 0.819938 -1.223646
  9   6.790376 -0.619176 0.015206 0.030800 0.081338 -1.430412
 10   8.637599 0.544015 -0.090417 -2.212457 -0.311538 0.049435
 11   6.790465 -0.619039 0.017802 0.036475 0.041845 -1.016376
 12   -2.022474 -0.104699 -2.873818 -1.224842 0.909636 -4.413832
 13   1.167898 -0.537463 0.063297 0.778788 -0.348505 -1.114657
 14   7.002743 -0.617765 -0.183752 0.002165 -0.095261 -1.251938
 15   8.209042 0.615527 -0.255885 2.146392 -0.544358 0.114555
 16   7.002735 -0.617911 -0.183641 0.003188 -0.061031 -0.894665
 17   1.574674 0.609930 -0.000899 -0.123648 0.309003 0.510202
 18   -0.602177 0.511412 -0.000006 0.000000 0.000000 0.000000
 19   3.673773 0.177020 1.119313 -0.000002 -0.000014 -0.174510
 20   3.673767 0.176993 -1.117566 0.000007 -0.000003 -0.174546
 21   3.942357 1.330634 1.627658 0.000002 -0.000011 -0.000026
 22   -0.246060 -0.011889 0.516521 -0.000011 0.000031 0.000025
 23   3.942374 1.330659 -1.631083 0.000019 0.000002 -0.000024
 24   -0.246150 -0.011872 -0.516511 -0.000005 -0.000006 0.000048
 25   4.941364 1.997338 1.629330 0.000018 -0.000001 -0.000024
 26   4.941382 1.997366 -1.629410 -0.000001 0.000005 -0.000024
 27   2.918368 1.615358 1.514501 -0.000019 -0.000022 -0.000050
 28   2.920798 1.614964 -1.501142 -0.000002 -0.000009 -0.000024
 29   8.824059 0.150544 0.091743 0.000006 -0.000231 -0.174534
 30   2.111085 -0.561179 1.784320 -0.000008 -0.000682 0.000024
 31   2.121290 -0.561289 -1.853599 0.000000 0.000000 -0.000002
 32   -0.810489 -0.093824 3.127092 3.071872 -0.114782 1.239365
 33   14.298673 -0.408176 0.475484 0.000248 0.000062 -1.896136
 34   15.835795 0.581398 0.242756 -0.214729 0.106889 -0.097869
 35   -0.815868 -0.091229 -3.114430 0.066464 3.132725 -1.010185
 36   14.294526 -0.410349 -0.463635 0.000033 -0.000000 -2.607695
 37   15.834409 0.579420 -0.284600 -0.006092 -0.035255 0.214458
 38   1.139685 -3.453749 -2.823813 0.000000 0.000000 0.000001
 39   -4.457742 -1.054854 -0.746180 0.000000 0.000000 0.000000
 40   1.118101 -3.449769 3.237290 0.000000 0.000001 0.000000
 41   -4.433840 -1.059130 0.959566 -0.000001 0.000000 0.000000
 42   -0.657468 1.697302 -2.688614 0.000000 0.000002 0.000000
 43   -0.664068 1.698578 2.869377 0.000000 0.000002 0.000000
time 17
  0   -0.967547 0.175787 -20.574476 0.000000 0.000000 -1.572114
  1   -1.093036 0.000002 -0.326057 -0.214055 -1.569036 -1.356583
  2   2.262337 0.113614 0.064702 -0.000753 -0.069654 -0.059231
  3   2.380047 0.353302 0.047440 -0.118763 -0.017705 0.211789
  4   2.033756 0.190472 -0.000128 0.166711 -0.099975 -0.098182
  5   2.451511 0.204909 -0.003447 -0.085533 0.047308 -0.045680
  6   7.247600 -0.397300 -0.109469 0.000001 0.000021 0.156829
  7   -2.022252 -0.104661 3.136172 -1.248639 -1.440789 -1.919883
  8   1.168026 -0.537438 -0.063437 -0.736920 0.863158 -1.230415
  9   6.790376 -0.619176 0.015206 0.034351 0.069726 -1.304155
 10   8.637599 0.544015 -0.090417 -2.149403 -0.124933 -0.354897
 11   6.790465 -0.619039 0.017802 0.035599 0.033346 -0.928133
 12   -2.022474 -0.104699 -2.873818 -1.147239 0.948702 -4.279507
 13   1.167898 -0.537463 0.063297 0.599890 -0.438108 -0.921309
 14   7.002743 -0.617765 -0.183752 0.011103 -0.122632 -1.553743
 15   8.209042 0.615527 -0.255885 2.009058 -0.171054 0.233687
 16   7.002735 -0.617911 -0.183641 0.001352 -0.081049 -1.105226
 17   1.574674 0.609930 -0.000899 -0.074782 0.285975 0.518223
 18   -0.602177 0.511412 -0.000006 0.000000 0.000000 0.000000
 19   3.673773 0.177020 1.119313 -0.000002 -0.000014 -0.174510
 20   3.673767 0.176993 -1.117566 0.000007 -0.000003 -0.174546
 21   3.942357 1.330634 1.627658 0.000002 -0.000011 -0.000026
 22   -0.246060 -0.011889 0.516521 -0.000011 0.000031 0.000025
 23   3.942374 1.330659 -1.631083 0.000019 0.000002 -0.000024
 24   -0.246150 -0.011872 -0.516511 -0.000005 -0.000006 0.000048
 25   4.941364 1.997338 1.629330 0.000018 -0.000001 -0.000024
 26   4.941382 1.997366 -1.629410 -0.000001 0.000005 -0.000024
 27   2.918368 1.615358 1.514501 -0.000019 -0.000022 -0.000050
 28   2.920798 1.614964 -1.501142 -0.000002 -0.000009 -0.000024
 29   8.824059 0.150544 0.091743 0.000006 -0.000231 -0.174534
 30   2.111085 -0.561179 1.784320 -0.000008 -0.000682 0.000024
 31   2.121290 -0.561289 -1.853599 0.000000 0.000000 -0.000002
 32   -0.810489 -0.093824 3.127092 3.071872 -0.114782 1.239365
 33   14.298673 -0.408176 0.475484 0.000248 0.000062 -1.896136
 34   15.835795 0.581398 0.242756 -0.214729 0.106889 -0.097869
 35   -0.815868 -0.091229 -3.114430 0.066464 3.132725 -1.010185
 36   14.294526 -0.410349 -0.463635 0.000033 -0.000000 -2.607695
 37   15.834409 0.579420 -0.284600 -0.006092 -0.035255 0.214458
 38   1.139685 -3.453749 -2.823813 0.000000 0.000000 0.000001
 39   -4.457742 -1.054854 -0.746180 0.000000 0.000000 0.000000
 40   1.118101 -3.449769 3.237290 0.000000 0.000001 0.000000
 41   -4.433840 -1.059130 0.959566 -0.000001 0.000000 0.000000
 42   -0.657468 1.697302 -2.688614 0.000000 0.000002 0.000000
 43   -0.664068 1.698578 2.869377 0.000000 0.000002 0.000000
time 18
  0   -0.967547 0.175787 -20.574476 0.000000 0.000000 -1.572114
  1   -1.093036 0.000002 -0.326057 -0.214055 -1.569036 -1.356583
  2   2.262337 0.113614 0.064702 -0.038863 -0.073129 -0.054695
  3   2.380047 0.353302 0.047440 -0.131214 -0.007459 0.213544
  4   2.033756 0.190472 -0.000128 0.086652 -0.085630 -0.090969
  5   2.451511 0.204909 -0.003447 -0.095204 0.059790 -0.037755
  6   7.247600 -0.397300 -0.109469 0.000001 0.000021 0.156829
  7   -2.022252 -0.104661 3.136172 -1.006215 -1.449523 -2.171101
  8   1.168026 -0.537438 -0.063437 -0.487848 0.914881 -1.030702
  9   6.790376 -0.619176 0.015206 0.032409 0.076400 -1.375547
 10   8.637599 0.544015 -0.090417 -2.041259 -0.063975 -0.393963
 11   6.790465 -0.619039 0.017802 0.036183 0.038150 -0.978022
 12   -2.022474 -0.104699 -2.873818 -1.154712 1.067729 -4.266964
 13   1.167898 -0.537463 0.063297 0.442290 -0.553799 -0.827904
 14   7.002743 -0.617765 -0.183752 0.018505 -0.134613 -1.701015
 15   8.209042 0.615527 -0.255885 2.062985 0.114712 0.111668
 16   7.002735 -0.617911 -0.183641 0.002011 -0.090804 -1.207719
 17   1.574674 0.609930 -0.000899 0.057924 0.209602 0.549676
 18   -0.602177 0.511412 -0.000006 0.000000 0.000000 0.000000
 19   3.673773 0.177020 1.119313 -0.000002 -0.000014 -0.174510
 20   3.673767 0.176993 -1.117566 0.000007 -0.000003 -0.174546
 21   3.942357 1.330634 1.627658 0.000002 -0.000011 -0.000026
 22   -0.246060 -0.011889 0.516521 -0.000011 0.000031 0.000025
 23   3.942374 1.330659 -1.631083 0.000019 0.000002 -0.000024
 24   -0.246150 -0.011872 -0.516511 -0.000005 -0.000006 0.000048
 25   4.941364 1.997338 1.629330 0.000018 -0.000001 -0.000024
 26   4.941382 1.997366 -1.629410 -0.000001 0.000005 -0.000024
 27   2.918368 1.615358 1.514501 -0.000019 -0.000022 -0.000050
 28   2.920798 1.614964 -1.501142 -0.000002 -0.000009 -0.000024
 29   8.824059 0.150544 0.091743 0.000006 -0.000231 -0.174534
 30   2.111085 -0.561179 1.784320 -0.000008 -0.000682 0.000024
 31   2.121290 -0.561289 -1.853599 0.000000 0.000000 -0.000002
 32   -0.810489 -0.093824 3.127092 3.071872 -0.114782 1.239365
 33   14.298673 -0.408176 0.475484 0.000248 0.000062 -1.896136
 34   15.835795 0.581398 0.242756 -0.214729 0.106889 -0.097869
 35   -0.815868 -0.091229 -3.114430 0.066464 3.132725 -1.010185
 36   14.294526 -0.410349 -0.463635 0.000033 -0.000000 -2.607695
 37   15.834409 0.579420 -0.284600 -0.006092 -0.035255 0.214458
 38   1.139685 -3.453749 -2.823813 0.000000 0.000000 0.000001
 39   -4.457742 -1.054854 -0.746180 0.000000 0.000000 0.000000
 40   1.118101 -3.449769 3.237290 0.000000 0.000001 0.000000
 41   -4.433840 -1.059130 0.959566 -0.000001 0.000000 0.000000
 42   -0.657468 1.697302 -2.688614 0.000000 0.000002 0.000000
 43   -0.664068 1.698578 2.869377 0.000000 0.000002 0.000000
time 19
  0   -0.967547 0.175787 -20.574476 0.000000 0.000000 -1.572114
  1   -1.093036 0.000002 -0.326057 -0.214055 -1.569036 -1.356583
  2   2.262337 0.113614 0.064702 -0.060708 -0.072314 -0.057875
  3   2.380047 0.353302 0.047440 -0.137889 -0.000795 0.214809
  4   2.033756 0.190472 -0.000128 -0.054711 -0.057981 -0.084952
  5   2.451511 0.204909 -0.003447 -0.102085 0.081958 -0.029533
  6   7.247600 -0.397300 -0.109469 0.000001 0.000021 0.156829
  7   -2.022252 -0.104661 3.136172 -0.344891 -1.470076 -2.853665
  8   1.168026 -0.537438 -0.063437 -0.198403 0.933296 -0.809733
  9   6.790376 -0.619176 0.015206 0.027915 0.088012 -1.505653
 10   8.637599 0.544015 -0.090417 -1.891109 -0.134154 -0.180403
 11   6.790465 -0.619039 0.017802 0.036621 0.046962 -1.068802
 12   -2.022474 -0.104699 -2.873818 -1.390589 1.249941 -4.532838
 13   1.167898 -0.537463 0.063297 0.374245 -0.789553 -0.763071
 14   7.002743 -0.617765 -0.183752 0.020953 -0.137907 -1.743918
 15   8.209042 0.615527 -0.255885 2.170480 0.237962 -0.183245
 16   7.002735 -0.617911 -0.183641 0.002388 -0.093680 -1.237523
 17   1.574674 0.609930 -0.000899 0.205822 0.096095 0.567640
 18   -0.602177 0.511412 -0.000006 0.000000 0.000000 0.000000
 19   3.673773 0.177020 1.119313 -0.000002 -0.000014 -0.174510
 20   3.673767 0.176993 -1.117566 0.000007 -0.000003 -0.174546
 21   3.942357 1.330634 1.627658 0.000002 -0.000011 -0.000026
 22   -0.246060 -0.011889 0.516521 -0.000011 0.000031 0.000025
 23   3.942374 1.330659 -1.631083 0.000019 0.000002 -0.000024
 24   -0.246150 -0.011872 -0.516511 -0.000005 -0.000006 0.000048
 25   4.941364 1.997338 1.629330 0.000018 -0.000001 -0.000024
 26   4.941382 1.997366 -1.629410 -0.000001 0.000005 -0.000024
 27   2.918368 1.615358 1.514501 -0.000019 -0.000022 -0.000050
 28   2.920798 1.614964 -1.501142 -0.000002 -0.000009 -0.000024
 29   8.824059 0.150544 0.091743 0.000006 -0.000231 -0.174534
 30   2.111085 -0.561179 1.784320 -0.000008 -0.000682 0.000024
 31   2.121290 -0.561289 -1.853599 0.000000 0.000000 -0.000002
 32   -0.810489 -0.093824 3.127092 3.071872 -0.114782 1.239365
 33   14.298673 -0.408176 0.475484 0.000248 0.000062 -1.896136
 34   15.835795 0.581398 0.242756 -0.214729 0.106889 -0.097869
 35   -0.815868 -0.091229 -3.114430 0.066464 3.132725 -1.010185
 36   14.294526 -0.410349 -0.463635 0.000033 -0.000000 -2.607695
 37   15.834409 0.579420 -0.284600 -0.006092 -0.035255 0.214458
 38   1.139685 -3.453749 -2.823813 0.000000 0.000000 0.000001
 39   -4.457742 -1.054854 -0.746180 0.000000 0.000000 0.000000
 40   1.118101 -3.449769 3.237290 0.000000 0.000001 0.000000
 41   -4.433840 -1.059130 0.959566 -0.000001 0.000000 0.000000
 42   -0.657468 1.697302 -2.688614 0.000000 0.000002 0.000000
 43   -0.664068 1.698578 2.869377 0.000000 0.000002 0.000000
time 20
  0   -0.967547 0.175787 -20.574476 0.000000 0.000000 -1.572114
  1   -1.093036 0.000002 -0.326057 -0.214055 -1.569036 -1.356583
  2   2.262337 0.113614 0.064702 -0.077191 -0.077060 -0.056665
  3   2.380047 0.353302 0.047440 -0.144835 0.006420 0.215952
  4   2.033756 0.190472 -0.000128 -0.164555 -0.034755 -0.082704
  5   2.451511 0.204909 -0.003447 -0.116155 0.103356 -0.023193
  6   7.247600 -0.397300 -0.109469 0.000001 0.000021 0.156829
  7   -2.022252 -0.104661 3.136172 0.300234 -1.455750 -3.515004
  8   1.168026 -0.537438 -0.063437 -0.075702 0.923988 -0.815363
  9   6.790376 -0.619176 0.015206 0.026972 0.089948 -1.526482
 10   8.637599 0.544015 -0.090417 -1.801106 -0.261068 0.085752
 11   6.790465 -0.619039 0.017802 0.036621 0.048326 -1.083221
 12   -2.022474 -0.104699 -2.873818 -1.851900 1.353412 -5.033277
 13   1.167898 -0.537463 0.063297 0.322158 -0.980048 -0.655138
 14   7.002743 -0.617765 -0.183752 0.017024 -0.132512 -1.674778
 15   8.209042 0.615527 -0.255885 2.345491 0.243107 -0.516105
 16   7.002735 -0.617911 -0.183641 0.001823 -0.089169 -1.189395
 17   1.574674 0.609930 -0.000899 0.324311 -0.009388 0.574034
 18   -0.602177 0.511412 -0.000006 0.000000 0.000000 0.000000
 19   3.673773 0.177020 1.119313 -0.000002 -0.000014 -0.174510
 20   3.673767 0.176993 -1.117566 0.000007 -0.000003 -0.174546
 21   3.942357 1.330634 1.627658 0.000002 -0.000011 -0.000026
 22   -0.246060 -0.011889 0.516521 -0.000011 0.000031 0.000025
 23   3.942374 1.330659 -1.631083 0.000019 0.000002 -0.000024
 24   -0.246150 -0.011872 -0.516511 -0.000005 -0.000006 0.000048
 25   4.941364 1.997338 1.629330 0.000018 -0.000001 -0.000024
 26   4.941382 1.997366 -1.629410 -0.000001 0.000005 -0.000024
 27   2.918368 1.615358 1.514501 -0.000019 -0.000022 -0.000050
 28   2.920798 1.614964 -1.501142 -0.000002 -0.000009 -0.000024
 29   8.824059 0.150544 0.091743 0.000006 -0.000231 -0.174534
 30   2.111085 -0.561179 1.784320 -0.000008 -0.000682 0.000024
 31   2.121290 -0.561289 -1.853599 0.000000 0.000000 -0.000002
 32   -0.810489 -0.093824 3.127092 3.071872 -0.114782 1.239365
 33   14.298673 -0.408176 0.475484 0.000248 0.000062 -1.896136
 34   15.835795 0.581398 0.242756 -0.214729 0.106889 -0.097869
 35   -0.815868 -0.091229 -3.114430 0.066464 3.132725 -1.010185
 36   14.294526 -0.410349 -0.463635 0.000033 -0.000000 -2.607695
 37   15.834409 0.579420 -0.284600 -0.006092 -0.035255 0.214458
 38   1.139685 -3.453749 -2.823813 0.000000 0.000000 0.000001
 39   -4.457742 -1.054854 -0.746180 0.000000 0.000000 0.000000
 40   1.118101 -3.449769 3.237290 0.000000 0.000001 0.000000
 41   -4.433840 -1.059130 0.959566 -0.000001 0.000000 0.000000
 42   -0.657468 1.697302 -2.688614 0.000000 0.000002 0.000000
 43   -0.664068 1.698578 2.869377 0.000000 0.000002 0.000000
time 21
  0   -0.967547 0.175787 -20.574476 0.000000 0.000000 -1.572114
  1   -1.093036 0.000002 -0.326057 -0.214055 -1.569036 -1.356583
  2   2.262337 0.113614 0.064702 -0.109862 -0.090795 -0.038973
  3   2.380047 0.353302 0.047440 -0.158501 0.020274 0.217421
  4   2.033756 0.190472 -0.000128 -0.202952 -0.023202 -0.082052
  5   2.451511 0.204909 -0.003447 -0.143542 0.120759 -0.019701
  6   7.247600 -0.397300 -0.109469 0.000001 0.000021 0.156829
  7   -2.022252 -0.104661 3.136172 0.716353 -1.433524 -3.935642
  8   1.168026 -0.537438 -0.063437 -0.087662 0.882026 -0.929865
  9   6.790376 -0.619176 0.015206 0.028803 0.086210 -1.484220
 10   8.637599 0.544015 -0.090417 -1.774335 -0.325405 0.250625
 11   6.790465 -0.619039 0.017802 0.036621 0.045455 -1.053807
 12   -2.022474 -0.104699 -2.873818 -1.985551 1.415233 -5.176697
 13   1.167898 -0.537463 0.063297 0.255448 -0.981472 -0.553984
 14   7.002743 -0.617765 -0.183752 0.013608 -0.127118 -1.608114
 15   8.209042 0.615527 -0.255885 2.486565 0.296220 -0.712995
 16   7.002735 -0.617911 -0.183641 0.001493 -0.084658 -1.143033
 17   1.574674 0.609930 -0.000899 0.416722 -0.101168 0.578691
 18   -0.602177 0.511412 -0.000006 0.000000 0.000000 0.000000
 19   3.673773 0.177020 1.119313 -0.000002 -0.000014 -0.174510
 20   3.673767 0.176993 -1.117566 0.000007 -0.000003 -0.174546
 21   3.942357 1.330634 1.627658 0.000002 -0.000011 -0.000026
 22   -0.246060 -0.011889 0.516521 -0.000011 0.000031 0.000025
 23   3.942374 1.330659 -1.631083 0.000019 0.000002 -0.000024
 24   -0.246150 -0.011872 -0.516511 -0.000005 -0.000006 0.000048
 25   4.941364 1.997338 1.629330 0.000018 -0.000001 -0.000024
 26   4.941382 1.997366 -1.629410 -0.000001 0.000005 -0.000024
 27   2.918368 1.615358 1.514501 -0.000019 -0.000022 -0.000050
 28   2.920798 1.614964 -1.501142 -0.000002 -0.000009 -0.000024
 29   8.824059 0.150544 0.091743 0.000006 -0.000231 -0.174534
 30   2.111085 -0.561179 1.784320 -0.000008 -0.000682 0.000024
 31   2.121290 -0.561289 -1.853599 0.000000 0.000000 -0.000002
 32   -0.810489 -0.093824 3.127092 3.071872 -0.114782 1.239365
 33   14.298673 -0.408176 0.475484 0.000248 0.000062 -1.896136
 34   15.835795 0.581398 0.242756 -0.214729 0.106889 -0.097869
 35   -0.815868 -0.091229 -3.114430 0.066464 3.132725 -1.010185
 36   14.294526 -0.410349 -0.463635 0.000033 -0.000000 -2.607695
 37   15.834409 0.579420 -0.284600 -0.006092 -0.035255 0.214458
 38   1.139685 -3.453749 -2.823813 0.000000 0.000000 0.000001
 39   -4.457742 -1.054854 -0.746180 0.000000 0.000000 0.000000
 40   1.118101 -3.449769 3.237290 0.000000 0.000001 0.000000
 41   -4.433840 -1.059130 0.959566 -0.000001 0.000000 0.000000
 42   -0.657468 1.697302 -2.688614 0.000000 0.000002 0.000000
 43   -0.664068 1.698578 2.869377 0.000000 0.000002 0.000000
time 22
  0   -0.967547 0.175787 -20.574476 0.000000 0.000000 -1.572114
  1   -1.093036 0.000002 -0.326057 -0.214055 -1.569036 -1.356583
  2   2.262337 0.113614 0.064702 -0.133529 -0.094042 -0.013602
  3   2.380047 0.353302 0.047440 -0.165596 0.028435 0.216156
  4   2.033756 0.190472 -0.000128 -0.210661 -0.015939 -0.082161
  5   2.451511 0.204909 -0.003447 -0.178118 0.137457 -0.017695
  6   7.247600 -0.397300 -0.109469 0.000001 0.000021 0.156829
  7   -2.022252 -0.104661 3.136172 1.039970 -1.396166 -4.260114
  8   1.168026 -0.537438 -0.063437 -0.162270 0.866982 -1.000463
  9   6.790376 -0.619176 0.015206 0.029524 0.084542 -1.465278
 10   8.637599 0.544015 -0.090417 -1.661788 -0.270782 0.205699
 11   6.790465 -0.619039 0.017802 0.036562 0.044176 -1.040599
 12   -2.022474 -0.104699 -2.873818 -1.673124 1.478331 -4.861804
 13   1.167898 -0.537463 0.063297 0.159778 -0.906464 -0.435881
 14   7.002743 -0.617765 -0.183752 0.017024 -0.132683 -1.676511
 15   8.209042 0.615527 -0.255885 2.436808 0.418410 -0.759000
 16   7.002735 -0.617911 -0.183641 0.001823 -0.089169 -1.190554
 17   1.574674 0.609930 -0.000899 0.466563 -0.160075 0.574219
 18   -0.602177 0.511412 -0.000006 0.000000 0.000000 0.000000
 19   3.673773 0.177020 1.119313 -0.000002 -0.000014 -0.174510
 20   3.673767 0.176993 -1.117566 0.000007 -0.000003 -0.174546
 21   3.942357 1.330634 1.627658 0.000002 -0.000011 -0.000026
 22   -0.246060 -0.011889 0.516521 -0.000011 0.000031 0.000025
 23   3.942374 1.330659 -1.631083 0.000019 0.000002 -0.000024
 24   -0.246150 -0.011872 -0.516511 -0.000005 -0.000006 0.000048
 25   4.941364 1.997338 1.629330 0.000018 -0.000001 -0.000024
 26   4.941382 1.997366 -1.629410 -0.000001 0.000005 -0.000024
 27   2.918368 1.615358 1.514501 -0.000019 -0.000022 -0.000050
 28   2.920798 1.614964 -1.501142 -0.000002 -0.000009 -0.000024
 29   8.824059 0.150544 0.091743 0.000006 -0.000231 -0.174534
 30   2.111085 -0.561179 1.784320 -0.000008 -0.000682 0.000024
 31   2.121290 -0.561289 -1.853599 0.000000 0.000000 -0.000002
 32   -0.810489 -0.093824 3.127092 3.071872 -0.114782 1.239365
 33   14.298673 -0.408176 0.475484 0.000248 0.000062 -1.896136
 34   15.835795 0.581398 0.242756 -0.214729 0.106889 -0.097869
 35   -0.815868 -0.091229 -3.114430 0.066464 3.132725 -1.010185
 36   14.294526 -0.410349 -0.463635 0.000033 -0.000000 -2.607695
 37   15.834409 0.579420 -0.284600 -0.006092 -0.035255 0.214458
 38   1.139685 -3.453749 -2.823813 0.000000 0.000000 0.000001
 39   -4.457742 -1.054854 -0.746180 0.000000 0.000000 0.000000
 40   1.118101 -3.449769 3.237290 0.000000 0.000001 0.000000
 41   -4.433840 -1.059130 0.959566 -0.000001 0.000000 0.000000
 42   -0.657468 1.697302 -2.688614 0.000000 0.000002 0.000000
 43   -0.664068 1.698578 2.869377 0.000000 0.000002 0.000000
time 23
  0   -0.967547 0.175787 -20.574476 0.000000 0.000000 -1.572114
  1   -1.093036 0.000002 -0.326057 -0.214055 -1.569036 -1.356583
  2   2.262337 0.113614 0.064702 -0.156482 -0.093958 0.014878
  3   2.380047 0.353302 0.047440 -0.171447 0.035111 0.214748
  4   2.033756 0.190472 -0.000128 -0.216655 -0.009060 -0.082559
  5   2.451511 0.204909 -0.003447 -0.209904 0.152641 -0.016580
  6   7.247600 -0.397300 -0.109469 0.000001 0.000021 0.156829
  7   -2.022252 -0.104661 3.136172 1.251336 -1.350245 -4.467944
  8   1.168026 -0.537438 -0.063437 -0.219602 0.853045 -1.010205
  9   6.790376 -0.619176 0.015206 0.028692 0.086477 -1.487767
 10   8.637599 0.544015 -0.090417 -1.549153 -0.170335 0.058044
 11   6.790465 -0.619039 0.017802 0.036621 0.045711 -1.056287
 12   -2.022474 -0.104699 -2.873818 -0.819579 1.507587 -4.004826
 13   1.167898 -0.537463 0.063297 0.066709 -0.818183 -0.348408
 14   7.002743 -0.617765 -0.183752 0.025735 -0.143699 -1.822628
 15   8.209042 0.615527 -0.255885 2.231022 0.555126 -0.757436
 16   7.002735 -0.617911 -0.183641 0.003329 -0.098755 -1.292219
 17   1.574674 0.609930 -0.000899 0.509052 -0.210958 0.567085
 18   -0.602177 0.511412 -0.000006 0.000000 0.000000 0.000000
 19   3.673773 0.177020 1.119313 -0.000002 -0.000014 -0.174510
 20   3.673767 0.176993 -1.117566 0.000007 -0.000003 -0.174546
 21   3.942357 1.330634 1.627658 0.000002 -0.000011 -0.000026
 22   -0.246060 -0.011889 0.516521 -0.000011 0.000031 0.000025
 23   3.942374 1.330659 -1.631083 0.000019 0.000002 -0.000024
 24   -0.246150 -0.011872 -0.516511 -0.000005 -0.000006 0.000048
 25   4.941364 1.997338 1.629330 0.000018 -0.000001 -0.000024
 26   4.941382 1.997366 -1.629410 -0.000001 0.000005 -0.000024
 27   2.918368 1.615358 1.514501 -0.000019 -0.000022 -0.000050
 28   2.920798 1.614964 -1.501142 -0.000002 -0.000009 -0.000024
 29   8.824059 0.150544 0.091743 0.000006 -0.000231 -0.174534
 30   2.111085 -0.561179 1.784320 -0.000008 -0.000682 0.000024
 31   2.121290 -0.561289 -1.853599 0.000000 0.000000 -0.000002
 32   -0.810489 -0.093824 3.127092 3.071872 -0.114782 1.239365
 33   14.298673 -0.408176 0.475484 0.000248 0.000062 -1.896136
 34   15.835795 0.581398 0.242756 -0.214729 0.106889 -0.097869
 35   -0.815868 -0.091229 -3.114430 0.066464 3.132725 -1.010185
 36   14.294526 -0.410349 -0.463635 0.000033 -0.000000 -2.607695
 37   15.834409 0.579420 -0.284600 -0.006092 -0.035255 0.214458
 38   1.139685 -3.453749 -2.823813 0.000000 0.000000 0.000001
 39   -4.457742 -1.054854 -0.746180 0.000000 0.000000 0.000000
 40   1.118101 -3.449769 3.237290 0.000000 0.000001 0.000000
 41   -4.433840 -1.059130 0.959566 -0.000001 0.000000 0.000000
 42   -0.657468 1.697302 -2.688614 0.000000 0.000002 0.000000
 43   -0.664068 1.698578 2.869377 0.000000 0.000002 0.000000
time 24
  0   -0.967547 0.175787 -20.574476 0.000000 0.000000 -1.572114
  1   -1.093036 0.000002 -0.326057 -0.214055 -1.569036 -1.356583
  2   2.262337 0.113614 0.064702 -0.179333 -0.094522 0.037629
  3   2.380047 0.353302 0.047440 -0.178287 0.042637 0.213503
  4   2.033756 0.190472 -0.000128 -0.226522 -0.001186 -0.083647
  5   2.451511 0.204909 -0.003447 -0.235973 0.165997 -0.017348
  6   7.247600 -0.397300 -0.109469 0.000001 0.000021 0.156829
  7   -2.022252 -0.104661 3.136172 1.376143 -1.304786 -4.588059
  8   1.168026 -0.537438 -0.063437 -0.232258 0.830152 -0.964848
  9   6.790376 -0.619176 0.015206 0.026417 0.091283 -1.541802
 10   8.637599 0.544015 -0.090417 -1.504504 -0.085022 -0.096628
 11   6.790465 -0.619039 0.017802 0.036621 0.049378 -1.093891
 12   -2.022474 -0.104699 -2.873818 0.065775 1.489128 -3.120274
 13   1.167898 -0.537463 0.063297 -0.002109 -0.729750 -0.352040
 14   7.002743 -0.617765 -0.183752 0.034958 -0.152557 -1.958019
 15   8.209042 0.615527 -0.255885 1.967498 0.667330 -0.744266
 16   7.002735 -0.617911 -0.183641 0.005589 -0.107495 -1.386212
 17   1.574674 0.609930 -0.000899 0.553246 -0.259831 0.557143
 18   -0.602177 0.511412 -0.000006 0.000000 0.000000 0.000000
 19   3.673773 0.177020 1.119313 -0.000002 -0.000014 -0.174510
 20   3.673767 0.176993 -1.117566 0.000007 -0.000003 -0.174546
 21   3.942357 1.330634 1.627658 0.000002 -0.000011 -0.000026
 22   -0.246060 -0.011889 0.516521 -0.000011 0.000031 0.000025
 23   3.942374 1.330659 -1.631083 0.000019 0.000002 -0.000024
 24   -0.246150 -0.011872 -0.516511 -0.000005 -0.000006 0.000048
 25   4.941364 1.997338 1.629330 0.000018 -0.000001 -0.000024
 26   4.941382 1.997366 -1.629410 -0.000001 0.000005 -0.000024
 27   2.918368 1.615358 1.514501 -0.000019 -0.000022 -0.000050
 28   2.920798 1.614964 -1.501142 -0.000002 -0.000009 -0.000024
 29   8.824059 0.150544 0.091743 0.000006 -0.000231 -0.174534
 30   2.111085 -0.561179 1.784320 -0.000008 -0.000682 0.000024
 31   2.121290 -0.561289 -1.853599 0.000000 0.000000 -0.000002
 32   -0.810489 -0.093824 3.127092 3.071872 -0.114782 1.239365
 33   14.298673 -0.408176 0.475484 0.000248 0.000062 -1.896136
 34   15.835795 0.581398 0.242756 -0.214729 0.106889 -0.097869
 35   -0.815868 -0.091229 -3.114430 0.066464 3.132725 -1.010185
 36   14.294526 -0.410349 -0.463635 0.000033 -0.000000 -2.607695
 37   15.834409 0.579420 -0.284600 -0.006092 -0.035255 0.214458
 38   1.139685 -3.453749 -2.823813 0.000000 0.000000 0.000001
 39   -4.457742 -1.054854 -0.746180 0.000000 0.000000 0.000000
 40   1.118101 -3.449769 3.237290 0.000000 0.000001 0.000000
 41   -4.433840 -1.059130 0.959566 -0.000001 0.000000 0.000000
 42   -0.657468 1.697302 -2.688614 0.000000 0.000002 0.000000
 43   -0.664068 1.698578 2.869377 0.000000 0.000002 0.000000
time 25
  0   -0.967547 0.175787 -20.574476 0.000000 0.000000 -1.572114
  1   -1.093036 0.000002 -0.326057 -0.214055 -1.569036 -1.356583
  2   2.262337 0.113614 0.064702 -0.191854 -0.094785 0.046592
  3   2.380047 0.353302 0.047440 -0.182877 0.046460 0.212544
  4   2.033756 0.190472 -0.000128 -0.238399 0.004422 -0.085278
  5   2.451511 0.204909 -0.003447 -0.250779 0.173451 -0.019181
  6   7.247600 -0.397300 -0.109469 0.000001 0.000021 0.156829
  7   -2.022252 -0.104661 3.136172 1.440560 -1.268436 -4.647695
  8   1.168026 -0.537438 -0.063437 -0.242383 0.817171 -0.933913
  9   6.790376 -0.619176 0.015206 0.024531 0.094620 -1.580894
 10   8.637599 0.544015 -0.090417 -1.499396 -0.043984 -0.186552
 11   6.790465 -0.619039 0.017802 0.036475 0.051993 -1.121171
 12   -2.022474 -0.104699 -2.873818 0.337100 1.466837 -2.845880
 13   1.167898 -0.537463 0.063297 -0.015254 -0.693695 -0.378494
 14   7.002743 -0.617765 -0.183752 0.041221 -0.157270 -2.038792
 15   8.209042 0.615527 -0.255885 1.805788 0.700166 -0.712754
 16   7.002735 -0.617911 -0.183641 0.007283 -0.112570 -1.442288
 17   1.574674 0.609930 -0.000899 0.589926 -0.297414 0.552116
 18   -0.602177 0.511412 -0.000006 0.000000 0.000000 0.000000
 19   3.673773 0.177020 1.119313 -0.000002 -0.000014 -0.174510
 20   3.673767 0.176993 -1.117566 0.000007 -0.000003 -0.174546
 21   3.942357 1.330634 1.627658 0.000002 -0.000011 -0.000026
 22   -0.246060 -0.011889 0.516521 -0.000011 0.000031 0.000025
 23   3.942374 1.330659 -1.631083 0.000019 0.000002 -0.000024
 24   -0.246150 -0.011872 -0.516511 -0.000005 -0.000006 0.000048
 25   4.941364 1.997338 1.629330 0.000018 -0.000001 -0.000024
 26   4.941382 1.997366 -1.629410 -0.000001 0.000005 -0.000024
 27   2.918368 1.615358 1.514501 -0.000019 -0.000022 -0.000050
 28   2.920798 1.614964 -1.501142 -0.000002 -0.000009 -0.000024
 29   8.824059 0.150544 0.091743 0.000006 -0.000231 -0.174534
 30   2.111085 -0.561179 1.784320 -0.000008 -0.000682 0.000024
 31   2.121290 -0.561289 -1.853599 0.000000 0.000000 -0.000002
 32   -0.810489 -0.093824 3.127092 3.071872 -0.114782 1.239365
 33   14.298673 -0.408176 0.475484 0.000248 0.000062 -1.896136
 34   15.835795 0.581398 0.242756 -0.214729 0.106889 -0.097869
 35   -0.815868 -0.091229 -3.114430 0.066464 3.132725 -1.010185
 36   14.294526 -0.410349 -0.463635 0.000033 -0.000000 -2.607695
 37   15.834409 0.579420 -0.284600 -0.006092 -0.035255 0.214458
 38   1.139685 -3.453749 -2.823813 0.000000 0.000000 0.000001
 39   -4.457742 -1.054854 -0.746180 0.000000 0.000000 0.000000
 40   1.118101 -3.449769 3.237290 0.000000 0.000001 0.000000
 41   -4.433840 -1.059130 0.959566 -0.000001 0.000000 0.000000
 42   -0.657468 1.697302 -2.688614 0.000000 0.000002 0.000000
 43   -0.664068 1.698578 2.869377 0.000000 0.000002 0.000000
time 26
  0   -0.967547 0.175787 -20.574476 0.000000 0.000000 -1.572114
  1   -1.093036 0.000002 -0.326057 -0.214055 -1.569036 -1.356583
  2   2.262337 0.113614 0.064702 -0.193841 -0.093671 0.045761
  3   2.380047 0.353302 0.047440 -0.183972 0.044567 0.211728
  4   2.033756 0.190472 -0.000128 -0.258409 0.007263 -0.086909
  5   2.451511 0.204909 -0.003447 -0.252919 0.174261 -0.020914
  6   7.247600 -0.397300 -0.109469 0.000001 0.000021 0.156829
  7   -2.022252 -0.104661 3.136172 1.465579 -1.247018 -4.670234
  8   1.168026 -0.537438 -0.063437 -0.265860 0.820240 -0.933913
  9   6.790376 -0.619176 0.015206 0.024087 0.095421 -1.592063
 10   8.637599 0.544015 -0.090417 -1.535767 -0.059470 -0.187782
 11   6.790465 -0.619039 0.017802 0.036475 0.052732 -1.129015
 12   -2.022474 -0.104699 -2.873818 0.383662 1.484193 -2.790350
 13   1.167898 -0.537463 0.063297 0.056867 -0.729140 -0.408822
 14   7.002743 -0.617765 -0.183752 0.042701 -0.158349 -2.059501
 15   8.209042 0.615527 -0.255885 1.851231 0.637974 -0.606612
 16   7.002735 -0.617911 -0.183641 0.007801 -0.113867 -1.456638
 17   1.574674 0.609930 -0.000899 0.621894 -0.325956 0.553557
 18   -0.602177 0.511412 -0.000006 0.000000 0.000000 0.000000
 19   3.673773 0.177020 1.119313 -0.000002 -0.000014 -0.174510
 20   3.673767 0.176993 -1.117566 0.000007 -0.000003 -0.174546
 21   3.942357 1.330634 1.627658 0.000002 -0.000011 -0.000026
 22   -0.246060 -0.011889 0.516521 -0.000011 0.000031 0.000025
 23   3.942374 1.330659 -1.631083 0.000019 0.000002 -0.000024
 24   -0.246150 -0.011872 -0.516511 -0.000005 -0.000006 0.000048
 25   4.941364 1.997338 1.629330 0.000018 -0.000001 -0.000024
 26   4.941382 1.997366 -1.629410 -0.000001 0.000005 -0.000024
 27   2.918368 1.615358 1.514501 -0.000019 -0.000022 -0.000050
 28   2.920798 1.614964 -1.501142 -0.000002 -0.000009 -0.000024
 29   8.824059 0.150544 0.091743 0.000006 -0.000231 -0.174534
 30   2.111085 -0.561179 1.784320 -0.000008 -0.000682 0.000024
 31   2.121290 -0.561289 -1.853599 0.000000 0.000000 -0.000002
 32   -0.810489 -0.093824 3.127092 3.071872 -0.114782 1.239365
 33   14.298673 -0.408176 0.475484 0.000248 0.000062 -1.896136
 34   15.835795 0.581398 0.242756 -0.214729 0.106889 -0.097869
 35   -0.815868 -0.091229 -3.114430 0.066464 3.132725 -1.010185
 36   14.294526 -0.410349 -0.463635 0.000033 -0.000000 -2.607695
 37   15.834409 0.579420 -0.284600 -0.006092 -0.035255 0.214458
 38   1.139685 -3.453749 -2.823813 0.000000 0.000000 0.000001
 39   -4.457742 -1.054854 -0.746180 0.000000 0.000000 0.000000
 40   1.118101 -3.449769 3.237290 0.000000 0.000001 0.000000
 41   -4.433840 -1.059130 0.959566 -0.000001 0.000000 0.000000
 42   -0.657468 1.697302 -2.688614 0.000000 0.000002 0.000000
 43   -0.664068 1.698578 2.869377 0.000000 0.000002 0.000000
time 27
  0   -0.967547 0.175787 -20.574476 0.000000 0.000000 -1.572114
  1   -1.093036 0.000002 -0.326057 -0.214055 -1.569036 -1.356583
  2   2.262337 0.113614 0.064702 -0.194376 -0.091286 0.045038
  3   2.380047 0.353302 0.047440 -0.184047 0.041055 0.210973
  4   2.033756 0.190472 -0.000128 -0.279987 0.009264 -0.088649
  5   2.451511 0.204909 -0.003447 -0.251327 0.173112 -0.022772
  6   7.247600 -0.397300 -0.109469 0.000001 0.000021 0.156829
  7   -2.022252 -0.104661 3.136172 1.473631 -1.237822 -4.676056
  8   1.168026 -0.537438 -0.063437 -0.282946 0.826177 -0.932205
  9   6.790376 -0.619176 0.015206 0.023754 0.095888 -1.597723
 10   8.637599 0.544015 -0.090417 -1.624008 -0.126552 -0.148282
 11   6.790465 -0.619039 0.017802 0.036416 0.053130 -1.132994
 12   -2.022474 -0.104699 -2.873818 0.398129 1.512550 -2.766127
 13   1.167898 -0.537463 0.063297 0.193238 -0.757261 -0.494176
 14   7.002743 -0.617765 -0.183752 0.041278 -0.157384 -2.040442
 15   8.209042 0.615527 -0.255885 2.001652 0.518432 -0.437987
 16   7.002735 -0.617911 -0.183641 0.007330 -0.112683 -1.443447
 17   1.574674 0.609930 -0.000899 0.651750 -0.351682 0.556773
 18   -0.602177 0.511412 -0.000006 0.000000 0.000000 0.000000
 19   3.673773 0.177020 1.119313 -0.000002 -0.000014 -0.174510
 20   3.673767 0.176993 -1.117566 0.000007 -0.000003 -0.174546
 21   3.942357 1.330634 1.627658 0.000002 -0.000011 -0.000026
 22   -0.246060 -0.011889 0.516521 -0.000011 0.000031 0.000025
 23   3.942374 1.330659 -1.631083 0.000019 0.000002 -0.000024
 24   -0.246150 -0.011872 -0.516511 -0.000005 -0.000006 0.000048
 25   4.941364 1.997338 1.629330 0.000018 -0.000001 -0.000024
 26   4.941382 1.997366 -1.629410 -0.000001 0.000005 -0.000024
 27   2.918368 1.615358 1.514501 -0.000019 -0.000022 -0.000050
 28   2.920798 1.614964 -1.501142 -0.000002 -0.000009 -0.000024
 29   8.824059 0.150544 0.091743 0.000006 -0.000231 -0.174534
 30   2.111085 -0.561179 1.784320 -0.000008 -0.000682 0.000024
 31   2.121290 -0.561289 -1.853599 0.000000 0.000000 -0.000002
 32   -0.810489 -0.093824 3.127092 3.071872 -0.114782 1.239365
 33   14.298673 -0.408176 0.475484 0.000248 0.000062 -1.896136
 34   15.835795 0.581398 0.242756 -0.214729 0.106889 -0.097869
 35   -0.815868 -0.091229 -3.114430 0.066464 3.132725 -1.010185
 36   14.294526 -0.410349 -0.463635 0.000033 -0.000000 -2.607695
 37   15.834409 0.579420 -0.284600 -0.006092 -0.035255 0.214458
 38   1.139685 -3.453749 -2.823813 0.000000 0.000000 0.000001
 39   -4.457742 -1.054854 -0.746180 0.000000 0.000000 0.000000
 40   1.118101 -3.449769 3.237290 0.000000 0.000001 0.000000
 41   -4.433840 -1.059130 0.959566 -0.000001 0.000000 0.000000
 42   -0.657468 1.697302 -2.688614 0.000000 0.000002 0.000000
 43   -0.664068 1.698578 2.869377 0.000000 0.000002 0.000000
time 28
  0   -0.967547 0.175787 -20.574476 0.000000 0.000000 -1.572114
  1   -1.093036 0.000002 -0.326057 -0.214055 -1.569036 -1.356583
  2   2.262337 0.113614 0.064702 -0.194185 -0.088374 0.044225
  3   2.380047 0.353302 0.047440 -0.183627 0.036861 0.210279
  4   2.033756 0.190472 -0.000128 -0.302708 0.010810 -0.090389
  5   2.451511 0.204909 -0.003447 -0.247698 0.170906 -0.024728
  6   7.247600 -0.397300 -0.109469 0.000001 0.000021 0.156829
  7   -2.022252 -0.104661 3.136172 1.473631 -1.235718 -4.673990
  8   1.168026 -0.537438 -0.063437 -0.292881 0.834982 -0.924867
  9   6.790376 -0.619176 0.015206 0.023643 0.096355 -1.602025
 10   8.637599 0.544015 -0.090417 -1.730126 -0.215103 -0.086717
 11   6.790465 -0.619039 0.017802 0.036416 0.053414 -1.136051
 12   -2.022474 -0.104699 -2.873818 0.371591 1.547408 -2.782786
 13   1.167898 -0.537463 0.063297 0.345706 -0.766669 -0.613369
 14   7.002743 -0.617765 -0.183752 0.037235 -0.154318 -1.987226
 15   8.209042 0.615527 -0.255885 2.143013 0.365372 -0.304963
 16   7.002735 -0.617911 -0.183641 0.006154 -0.109356 -1.406468
 17   1.574674 0.609930 -0.000899 0.680672 -0.375704 0.560765
 18   -0.602177 0.511412 -0.000006 0.000000 0.000000 0.000000
 19   3.673773 0.177020 1.119313 -0.000002 -0.000014 -0.174510
 20   3.673767 0.176993 -1.117566 0.000007 -0.000003 -0.174546
 21   3.942357 1.330634 1.627658 0.000002 -0.000011 -0.000026
 22   -0.246060 -0.011889 0.516521 -0.000011 0.000031 0.000025
 23   3.942374 1.330659 -1.631083 0.000019 0.000002 -0.000024
 24   -0.246150 -0.011872 -0.516511 -0.000005 -0.000006 0.000048
 25   4.941364 1.997338 1.629330 0.000018 -0.000001 -0.000024
 26   4.941382 1.997366 -1.629410 -0.000001 0.000005 -0.000024
 27   2.918368 1.615358 1.514501 -0.000019 -0.000022 -0.000050
 28   2.920798 1.614964 -1.501142 -0.000002 -0.000009 -0.000024
 29   8.824059 0.150544 0.091743 0.000006 -0.000231 -0.174534
 30   2.111085 -0.561179 1.784320 -0.000008 -0.000682 0.000024
 31   2.121290 -0.561289 -1.853599 0.000000 0.000000 -0.000002
 32   -0.810489 -0.093824 3.127092 3.071872 -0.114782 1.239365
 33   14.298673 -0.408176 0.475484 0.000248 0.000062 -1.896136
 34   15.835795 0.581398 0.242756 -0.214729 0.106889 -0.097869
 35   -0.815868 -0.091229 -3.114430 0.066464 3.132725 -1.010185
 36   14.294526 -0.410349 -0.463635 0.000033 -0.000000 -2.607695
 37   15.834409 0.579420 -0.284600 -0.006092 -0.035255 0.214458
 38   1.139685 -3.453749 -2.823813 0.000000 0.000000 0.000001
 39   -4.457742 -1.054854 -0.746180 0.000000 0.000000 0.000000
 40   1.118101 -3.449769 3.237290 0.000000 0.000001 0.000000
 41   -4.433840 -1.059130 0.959566 -0.000001 0.000000 0.000000
 42   -0.657468 1.697302 -2.688614 0.000000 0.000002 0.000000
 43   -0.664068 1.698578 2.869377 0.000000 0.000002 0.000000
time 29
  0   -0.967547 0.175787 -20.574476 0.000000 0.000000 -1.572114
  1   -1.093036 0.000002 -0.326057 -0.214055 -1.569036 -1.356583
  2   2.262337 0.113614 0.064702 -0.193841 -0.085401 0.043231
  3   2.380047 0.353302 0.047440 -0.183102 0.032294 0.209463
  4   2.033756 0.190472 -0.000128 -0.325632 0.012296 -0.092165
  5   2.451511 0.204909 -0.003447 -0.243556 0.168425 -0.026734
  6   7.247600 -0.397300 -0.109469 0.000001 0.000021 0.156829
  7   -2.022252 -0.104661 3.136172 1.471235 -1.235401 -4.670140
  8   1.168026 -0.537438 -0.063437 -0.295412 0.846202 -0.907660
  9   6.790376 -0.619176 0.015206 0.023255 0.096889 -1.608817
 10   8.637599 0.544015 -0.090417 -1.821185 -0.291547 -0.027395
 11   6.790465 -0.619039 0.017802 0.036387 0.053869 -1.140665
 12   -2.022474 -0.104699 -2.873818 -2.638093 1.557392 -5.778334
 13   1.167898 -0.537463 0.063297 0.468018 -0.766669 -0.726811
 14   7.002743 -0.617765 -0.183752 0.032396 -0.150343 -1.922377
 15   8.209042 0.615527 -0.255885 2.227283 0.232439 -0.238572
 16   7.002735 -0.617911 -0.183641 0.004883 -0.105183 -1.361541
 17   1.574674 0.609930 -0.000899 0.709634 -0.399560 0.564498
 18   -0.602177 0.511412 -0.000006 0.000000 0.000000 0.000000
 19   3.673773 0.177020 1.119313 -0.000002 -0.000014 -0.174510
 20   3.673767 0.176993 -1.117566 0.000007 -0.000003 -0.174546
 21   3.942357 1.330634 1.627658 0.000002 -0.000011 -0.000026
 22   -0.246060 -0.011889 0.516521 -0.000011 0.000031 0.000025
 23   3.942374 1.330659 -1.631083 0.000019 0.000002 -0.000024
 24   -0.246150 -0.011872 -0.516511 -0.000005 -0.000006 0.000048
 25   4.941364 1.997338 1.629330 0.000018 -0.000001 -0.000024
 26   4.941382 1.997366 -1.629410 -0.000001 0.000005 -0.000024
 27   2.918368 1.615358 1.514501 -0.000019 -0.000022 -0.000050
 28   2.920798 1.614964 -1.501142 -0.000002 -0.000009 -0.000024
 29   8.824059 0.150544 0.091743 0.000006 -0.000231 -0.174534
 30   2.111085 -0.561179 1.784320 -0.000008 -0.000682 0.000024
 31   2.121290 -0.561289 -1.853599 0.000000 0.000000 -0.000002
 32   -0.810489 -0.093824 3.127092 3.071872 -0.114782 1.239365
 33   14.298673 -0.408176 0.475484 0.000248 0.000062 -1.896136
 34   15.835795 0.581398 0.242756 -0.214729 0.106889 -0.097869
 35   -0.815868 -0.091229 -3.114430 0.066464 3.132725 -1.010185
 36   14.294526 -0.410349 -0.463635 0.000033 -0.000000 -2.607695
 37   15.834409 0.579420 -0.284600 -0.006092 -0.035255 0.214458
 38   1.139685 -3.453749 -2.823813 0.000000 0.000000 0.000001
 39   -4.457742 -1.054854 -0.746180 0.000000 0.000000 0.000000
 40   1.118101 -3.449769 3.237290 0.000000 0.000001 0.000000
 41   -4.433840 -1.059130 0.959566 -0.000001 0.000000 0.000000
 42   -0.657468 1.697302 -2.688614 0.000000 0.000002 0.000000
 43   -0.664068 1.698578 2.869377 0.000000 0.000002 0.000000
time 30
  0   -0.967547 0.175787 -20.574476 0.000000 0.000000 -1.572114
  1   -1.093036 0.000002 -0.326057 -0.214055 -1.569036 -1.356583
  2   2.262337 0.113614 0.064702 -0.193892 -0.082717 0.042400
  3   2.380047 0.353302 0.047440 -0.182817 0.028268 0.208708
  4   2.033756 0.190472 -0.000128 -0.347911 0.013914 -0.094231
  5   2.451511 0.204909 -0.003447 -0.240372 0.166571 -0.028567
  6   7.247600 -0.397300 -0.109469 0.000001 0.000021 0.156829
  7   -2.022252 -0.104661 3.136172 1.473056 -1.231654 -4.670046
  8   1.168026 -0.537438 -0.063437 -0.290413 0.858831 -0.877042
  9   6.790376 -0.619176 0.015206 0.022589 0.097890 -1.620590
 10   8.637599 0.544015 -0.090417 -1.856411 -0.323434 0.001688
 11   6.790465 -0.619039 0.017802 0.036329 0.054665 -1.148970
 12   -2.022474 -0.104699 -2.873818 -2.729876 1.524450 -5.860575
 13   1.167898 -0.537463 0.063297 0.533251 -0.778976 -0.797092
 14   7.002743 -0.617765 -0.183752 0.029663 -0.147731 -1.882362
 15   8.209042 0.615527 -0.255885 2.247488 0.175997 -0.229551
 16   7.002735 -0.617911 -0.183641 0.004224 -0.102702 -1.333779
 17   1.574674 0.609930 -0.000899 0.738799 -0.423866 0.567011
 18   -0.602177 0.511412 -0.000006 0.000000 0.000000 0.000000
 19   3.673773 0.177020 1.119313 -0.000002 -0.000014 -0.174510
 20   3.673767 0.176993 -1.117566 0.000007 -0.000003 -0.174546
 21   3.942357 1.330634 1.627658 0.000002 -0.000011 -0.000026
 22   -0.246060 -0.011889 0.516521 -0.000011 0.000031 0.000025
 23   3.942374 1.330659 -1.631083 0.000019 0.000002 -0.000024
 24   -0.246150 -0.011872 -0.516511 -0.000005 -0.000006 0.000048
 25   4.941364 1.997338 1.629330 0.000018 -0.000001 -0.000024
 26   4.941382 1.997366 -1.629410 -0.000001 0.000005 -0.000024
 27   2.918368 1.615358 1.514501 -0.000019 -0.000022 -0.000050
 28   2.920798 1.614964 -1.501142 -0.000002 -0.000009 -0.000024
 29   8.824059 0.150544 0.091743 0.000006 -0.000231 -0.174534
 30   2.111085 -0.561179 1.784320 -0.000008 -0.000682 0.000024
 31   2.121290 -0.561289 -1.853599 0.000000 0.000000 -0.000002
 32   -0.810489 -0.093824 3.127092 3.071872 -0.114782 1.239365
 33   14.298673 -0.408176 0.475484 0.000248 0.000062 -1.896136
 34   15.835795 0.581398 0.242756 -0.214729 0.106889 -0.097869
 35   -0.815868 -0.091229 -3.114430 0.066464 3.132725 -1.010185
 36   14.294526 -0.410349 -0.463635 0.000033 -0.000000 -2.607695
 37   15.834409 0.579420 -0.284600 -0.006092 -0.035255 0.214458
 38   1.139685 -3.453749 -2.823813 0.000000 0.000000 0.000001
 39   -4.457742 -1.054854 -0.746180 0.000000 0.000000 0.000000
 40   1.118101 -3.449769 3.237290 0.000000 0.000001 0.000000
 41   -4.433840 -1.059130 0.959566 -0.000001 0.000000 0.000000
 42   -0.657468 1.697302 -2.688614 0.000000 0.000002 0.000000
 43   -0.664068 1.698578 2.869377 0.000000 0.000002 0.000000
end
