version 1
nodes
  0 "Bip01" -1
  1 "Bip01 Pelvis" 0
  2 "Bip01 Spine" 1
  3 "Bip01 Spine1" 2
  4 "Bip01 Spine2" 3
  5 "Bip01 Spine3" 4
  6 "Bip01 Neck" 5
  7 "Bip01 L Arm" 6
  8 "Bip01 L Arm1" 7
  9 "Bip01 L Arm2" 8
 10 "Bip01 L Hand" 9
 11 "Bip06 L elbow2-smooth" 8
 12 "Bip01 R Arm" 6
 13 "Bip01 R Arm1" 12
 14 "Bip01 R Arm2" 13
 15 "Bip01 R Hand" 14
 16 "Bip06 R elbow2-smooth" 13
 17 "Bip01 Head" 6
 18 "Bip06 Head_helper" 17
 19 "Bip06 Head_eyes_l" 18
 20 "Bip06 Head_eyes_r" 18
 21 "Bip06 Head_blink_l" 18
 22 "Bip06 Head_blink_smooth_l1" 21
 23 "Bip06 Head_blink_r" 18
 24 "Bip06 Head_blink_smooth_r1" 23
 25 "Bip06 Head_L_eyebrow" 18
 26 "Bip06 Head_R_eyebrow" 18
 27 "Bip06 Head_blink_l_lid" 18
 28 "Bip06 Head_blink_r_lid" 18
 29 "Bip06 bunny" 18
 30 "Bip06 bunnyL" 29
 31 "Bip06 bunnyR" 29
 32 "Bip01 L Leg" 1
 33 "Bip01 L Leg1" 32
 34 "Bip01 L Foot" 33
 35 "Bip01 R Leg" 1
 36 "Bip01 R Leg1" 35
 37 "Bip01 R Foot" 36
 38 "Bip03 HairR1" 17
 39 "Bip03 HairR2" 38
 40 "Bip03 HairL1" 17
 41 "Bip03 HairL2" 40
 42 "Bip03 swingR" 17
 43 "Bip03 swingL" 17
end
skeleton
time 0
  0   -0.967547 0.175787 -20.574476 0.000000 0.000000 -1.572114
  1   -1.093036 0.000002 -0.326057 -1.832612 -1.570379 0.261463
  2   2.262337 0.113614 0.064702 0.107962 -0.041670 0.237439
  3   2.380047 0.353302 0.047440 0.056419 -0.020138 0.248458
  4   2.033756 0.190472 -0.000128 0.069814 -0.004482 -0.038773
  5   2.451511 0.204909 -0.003447 -0.168704 0.119336 -0.037755
  6   7.247600 -0.397300 -0.109469 0.056796 0.015841 0.258541
  7   -2.022252 -0.104661 3.136172 1.362532 -1.221045 -4.817303
  8   1.168026 -0.537438 -0.063437 -0.206756 1.325798 0.302322
  9   6.790376 -0.619176 0.015206 0.003393 -0.036058 -0.399828
 10   8.637599 0.544015 -0.090417 -1.640212 0.016481 -0.018713
 11   6.790465 -0.619039 0.017802 -0.000838 -0.036353 -0.295036
 12   -2.022474 -0.104699 -2.873818 -2.559531 1.445737 -5.925775
 13   1.167898 -0.537463 0.063297 1.488689 -0.277667 -1.505167
 14   7.002743 -0.617765 -0.183752 -0.019469 -0.048812 -0.408733
 15   8.209042 0.615527 -0.255885 1.724610 0.202856 0.423420
 16   7.002735 -0.617911 -0.183641 -0.001002 -0.031089 -0.305096
 17   1.574674 0.609930 -0.000899 -0.135509 -0.001388 0.416765
 18   -0.602177 0.511412 -0.000006 0.000000 0.000000 0.000000
 19   3.673773 0.177020 1.119313 -0.000002 -0.000014 -0.174510
 20   3.673767 0.176993 -1.117566 0.000007 -0.000003 -0.174546
 21   3.942357 1.330634 1.627658 0.000002 -0.000011 -0.000026
 22   -0.246060 -0.011889 0.516521 -0.000011 0.000031 0.000025
 23   3.942374 1.330659 -1.631083 0.000019 0.000002 -0.000024
 24   -0.246150 -0.011872 -0.516511 -0.000005 -0.000006 0.000048
 25   4.941364 1.997338 1.629330 0.000018 -0.000001 -0.000024
 26   4.941382 1.997366 -1.629410 -0.000001 0.000005 -0.000024
 27   2.918368 1.615358 1.514501 -0.000019 -0.000022 -0.000050
 28   2.920798 1.614964 -1.501142 -0.000002 -0.000009 -0.000024
 29   8.824059 0.150544 0.091743 0.000006 -0.000231 -0.174534
 30   2.111085 -0.561179 1.784320 -0.000008 -0.000682 0.000024
 31   2.121290 -0.561289 -1.853599 0.000000 0.000000 -0.000002
 32   -0.810489 -0.093824 3.127092 3.071872 -0.114782 1.239365
 33   14.298673 -0.408176 0.475484 0.000248 0.000062 -1.896136
 34   15.835795 0.581398 0.242756 -0.214729 0.106889 -0.097869
 35   -0.815868 -0.091229 -3.114430 0.066464 3.132725 -1.010185
 36   14.294526 -0.410349 -0.463635 0.000033 -0.000000 -2.607695
 37   15.834409 0.579420 -0.284600 -0.006092 -0.035255 0.214458
 38   1.139685 -3.453749 -2.823813 0.000000 0.000000 0.000001
 39   -4.457742 -1.054854 -0.746180 0.000000 0.000000 0.000000
 40   1.118101 -3.449769 3.237290 0.000000 0.000001 0.000000
 41   -4.433840 -1.059130 0.959566 -0.000001 0.000000 0.000000
 42   -0.657468 1.697302 -2.688614 0.000000 0.000002 0.000000
 43   -0.664068 1.698578 2.869377 0.000000 0.000002 0.000000
time 1
  0   -0.967547 0.175787 -20.574476 0.000000 0.000000 -1.572114
  1   -1.093036 0.000002 -0.326057 -1.832612 -1.570379 0.261463
  2   2.262337 0.113614 0.064702 0.107962 -0.041670 0.237439
  3   2.380047 0.353302 0.047440 0.056419 -0.020138 0.248458
  4   2.033756 0.190472 -0.000128 0.069814 -0.004482 -0.038773
  5   2.451511 0.204909 -0.003447 -0.173274 0.112051 -0.072179
  6   7.247600 -0.397300 -0.109469 0.056796 0.015841 0.258541
  7   -2.022252 -0.104661 3.136172 1.362532 -1.221045 -4.817303
  8   1.168026 -0.537438 -0.063437 -0.206756 1.325798 0.302322
  9   6.790376 -0.619176 0.015206 0.003393 -0.036058 -0.399828
 10   8.637599 0.544015 -0.090417 -1.640212 0.016481 -0.018713
 11   6.790465 -0.619039 0.017802 -0.000838 -0.036353 -0.295036
 12   -2.022474 -0.104699 -2.873818 -2.559531 1.445737 -5.925775
 13   1.167898 -0.537463 0.063297 1.497897 -0.364117 -1.516366
 14   7.002743 -0.617765 -0.183752 -0.010702 -0.051537 -0.583397
 15   8.209042 0.615527 -0.255885 1.724610 0.202856 0.423360
 16   7.002735 -0.617911 -0.183641 0.004035 -0.032217 -0.427293
 17   1.574674 0.609930 -0.000899 -0.135509 -0.001388 0.416765
 18   -0.602177 0.511412 -0.000006 0.000000 0.000000 0.000000
 19   3.673773 0.177020 1.119313 -0.000002 -0.000014 -0.174510
 20   3.673767 0.176993 -1.117566 0.000007 -0.000003 -0.174546
 21   3.942357 1.330634 1.627658 0.000002 -0.000011 -0.000026
 22   -0.246060 -0.011889 0.516521 -0.000011 0.000031 0.000025
 23   3.942374 1.330659 -1.631083 0.000019 0.000002 -0.000024
 24   -0.246150 -0.011872 -0.516511 -0.000005 -0.000006 0.000048
 25   4.941364 1.997338 1.629330 0.000018 -0.000001 -0.000024
 26   4.941382 1.997366 -1.629410 -0.000001 0.000005 -0.000024
 27   2.918368 1.615358 1.514501 -0.000019 -0.000022 -0.000050
 28   2.920798 1.614964 -1.501142 -0.000002 -0.000009 -0.000024
 29   8.824059 0.150544 0.091743 0.000006 -0.000231 -0.174534
 30   2.111085 -0.561179 1.784320 -0.000008 -0.000682 0.000024
 31   2.121290 -0.561289 -1.853599 0.000000 0.000000 -0.000002
 32   -0.810489 -0.093824 3.127092 3.071872 -0.114782 1.239365
 33   14.298673 -0.408176 0.475484 0.000248 0.000062 -1.896136
 34   15.835795 0.581398 0.242756 -0.214729 0.106889 -0.097869
 35   -0.815868 -0.091229 -3.114430 0.066464 3.132725 -1.010185
 36   14.294526 -0.410349 -0.463635 0.000033 -0.000000 -2.607695
 37   15.834409 0.579420 -0.284600 -0.006092 -0.035255 0.214458
 38   1.139685 -3.453749 -2.823813 0.000000 0.000000 0.000001
 39   -4.457742 -1.054854 -0.746180 0.000000 0.000000 0.000000
 40   1.118101 -3.449769 3.237290 0.000000 0.000001 0.000000
 41   -4.433840 -1.059130 0.959566 -0.000001 0.000000 0.000000
 42   -0.657468 1.697302 -2.688614 0.000000 0.000002 0.000000
 43   -0.664068 1.698578 2.869377 0.000000 0.000002 0.000000
time 2
  0   -0.967547 0.175787 -20.574476 0.000000 0.000000 -1.572114
  1   -1.093036 0.000002 -0.326057 -1.832612 -1.570379 0.261463
  2   2.262337 0.113614 0.064702 0.107962 -0.041670 0.237439
  3   2.380047 0.353302 0.047440 0.056419 -0.020138 0.248458
  4   2.033756 0.190472 -0.000128 0.069814 -0.004482 -0.038773
  5   2.451511 0.204909 -0.003447 -0.172846 0.112678 -0.069108
  6   7.247600 -0.397300 -0.109469 0.056796 0.015841 0.258541
  7   -2.022252 -0.104661 3.136172 1.362532 -1.221045 -4.817303
  8   1.168026 -0.537438 -0.063437 -0.206756 1.325798 0.302322
  9   6.790376 -0.619176 0.015206 0.003393 -0.036058 -0.399828
 10   8.637599 0.544015 -0.090417 -1.640212 0.016481 -0.018713
 11   6.790465 -0.619039 0.017802 -0.000838 -0.036353 -0.295036
 12   -2.022474 -0.104699 -2.873818 -2.559531 1.445737 -5.925775
 13   1.167898 -0.537463 0.063297 1.497194 -0.356438 -1.515276
 14   7.002743 -0.617765 -0.183752 -0.011442 -0.051253 -0.567886
 15   8.209042 0.615527 -0.255885 1.724610 0.202856 0.423420
 16   7.002735 -0.617911 -0.183641 0.003612 -0.032104 -0.416420
 17   1.574674 0.609930 -0.000899 -0.135509 -0.001388 0.416765
 18   -0.602177 0.511412 -0.000006 0.000000 0.000000 0.000000
 19   3.673773 0.177020 1.119313 -0.000002 -0.000014 -0.174510
 20   3.673767 0.176993 -1.117566 0.000007 -0.000003 -0.174546
 21   3.942357 1.330634 1.627658 0.000002 -0.000011 -0.000026
 22   -0.246060 -0.011889 0.516521 -0.000011 0.000031 0.000025
 23   3.942374 1.330659 -1.631083 0.000019 0.000002 -0.000024
 24   -0.246150 -0.011872 -0.516511 -0.000005 -0.000006 0.000048
 25   4.941364 1.997338 1.629330 0.000018 -0.000001 -0.000024
 26   4.941382 1.997366 -1.629410 -0.000001 0.000005 -0.000024
 27   2.918368 1.615358 1.514501 -0.000019 -0.000022 -0.000050
 28   2.920798 1.614964 -1.501142 -0.000002 -0.000009 -0.000024
 29   8.824059 0.150544 0.091743 0.000006 -0.000231 -0.174534
 30   2.111085 -0.561179 1.784320 -0.000008 -0.000682 0.000024
 31   2.121290 -0.561289 -1.853599 0.000000 0.000000 -0.000002
 32   -0.810489 -0.093824 3.127092 3.071872 -0.114782 1.239365
 33   14.298673 -0.408176 0.475484 0.000248 0.000062 -1.896136
 34   15.835795 0.581398 0.242756 -0.214729 0.106889 -0.097869
 35   -0.815868 -0.091229 -3.114430 0.066464 3.132725 -1.010185
 36   14.294526 -0.410349 -0.463635 0.000033 -0.000000 -2.607695
 37   15.834409 0.579420 -0.284600 -0.006092 -0.035255 0.214458
 38   1.139685 -3.453749 -2.823813 0.000000 0.000000 0.000001
 39   -4.457742 -1.054854 -0.746180 0.000000 0.000000 0.000000
 40   1.118101 -3.449769 3.237290 0.000000 0.000001 0.000000
 41   -4.433840 -1.059130 0.959566 -0.000001 0.000000 0.000000
 42   -0.657468 1.697302 -2.688614 0.000000 0.000002 0.000000
 43   -0.664068 1.698578 2.869377 0.000000 0.000002 0.000000
time 3
  0   -0.967547 0.175787 -20.574476 0.000000 0.000000 -1.572114
  1   -1.093036 0.000002 -0.326057 -1.832612 -1.570379 0.261463
  2   2.262337 0.113614 0.064702 0.107962 -0.041670 0.237439
  3   2.380047 0.353302 0.047440 0.056419 -0.020138 0.248458
  4   2.033756 0.190472 -0.000128 0.069814 -0.004482 -0.038773
  5   2.451511 0.204909 -0.003447 -0.171665 0.114532 -0.060465
  6   7.247600 -0.397300 -0.109469 0.056796 0.015841 0.258541
  7   -2.022252 -0.104661 3.136172 1.362532 -1.221045 -4.817303
  8   1.168026 -0.537438 -0.063437 -0.206756 1.325798 0.302322
  9   6.790376 -0.619176 0.015206 0.003393 -0.036058 -0.399828
 10   8.637599 0.544015 -0.090417 -1.640212 0.016481 -0.018713
 11   6.790465 -0.619039 0.017802 -0.000838 -0.036353 -0.295036
 12   -2.022474 -0.104699 -2.873818 -2.559531 1.445737 -5.925775
 13   1.167898 -0.537463 0.063297 1.495015 -0.334775 -1.512673
 14   7.002743 -0.617765 -0.183752 -0.013491 -0.050572 -0.524158
 15   8.209042 0.615527 -0.255885 1.724610 0.202856 0.423420
 16   7.002735 -0.617911 -0.183641 0.002435 -0.031766 -0.385843
 17   1.574674 0.609930 -0.000899 -0.135509 -0.001388 0.416765
 18   -0.602177 0.511412 -0.000006 0.000000 0.000000 0.000000
 19   3.673773 0.177020 1.119313 -0.000002 -0.000014 -0.174510
 20   3.673767 0.176993 -1.117566 0.000007 -0.000003 -0.174546
 21   3.942357 1.330634 1.627658 0.000002 -0.000011 -0.000026
 22   -0.246060 -0.011889 0.516521 -0.000011 0.000031 0.000025
 23   3.942374 1.330659 -1.631083 0.000019 0.000002 -0.000024
 24   -0.246150 -0.011872 -0.516511 -0.000005 -0.000006 0.000048
 25   4.941364 1.997338 1.629330 0.000018 -0.000001 -0.000024
 26   4.941382 1.997366 -1.629410 -0.000001 0.000005 -0.000024
 27   2.918368 1.615358 1.514501 -0.000019 -0.000022 -0.000050
 28   2.920798 1.614964 -1.501142 -0.000002 -0.000009 -0.000024
 29   8.824059 0.150544 0.091743 0.000006 -0.000231 -0.174534
 30   2.111085 -0.561179 1.784320 -0.000008 -0.000682 0.000024
 31   2.121290 -0.561289 -1.853599 0.000000 0.000000 -0.000002
 32   -0.810489 -0.093824 3.127092 3.071872 -0.114782 1.239365
 33   14.298673 -0.408176 0.475484 0.000248 0.000062 -1.896136
 34   15.835795 0.581398 0.242756 -0.214729 0.106889 -0.097869
 35   -0.815868 -0.091229 -3.114430 0.066464 3.132725 -1.010185
 36   14.294526 -0.410349 -0.463635 0.000033 -0.000000 -2.607695
 37   15.834409 0.579420 -0.284600 -0.006092 -0.035255 0.214458
 38   1.139685 -3.453749 -2.823813 0.000000 0.000000 0.000001
 39   -4.457742 -1.054854 -0.746180 0.000000 0.000000 0.000000
 40   1.118101 -3.449769 3.237290 0.000000 0.000001 0.000000
 41   -4.433840 -1.059130 0.959566 -0.000001 0.000000 0.000000
 42   -0.657468 1.697302 -2.688614 0.000000 0.000002 0.000000
 43   -0.664068 1.698578 2.869377 0.000000 0.000002 0.000000
time 4
  0   -0.967547 0.175787 -20.574476 0.000000 0.000000 -1.572114
  1   -1.093036 0.000002 -0.326057 -1.832612 -1.570379 0.261463
  2   2.262337 0.113614 0.064702 0.107962 -0.041670 0.237439
  3   2.380047 0.353302 0.047440 0.056419 -0.020138 0.248458
  4   2.033756 0.190472 -0.000128 0.069814 -0.004482 -0.038773
  5   2.451511 0.204909 -0.003447 -0.170210 0.116869 -0.049469
  6   7.247600 -0.397300 -0.109469 0.056796 0.015841 0.258541
  7   -2.022252 -0.104661 3.136172 1.362532 -1.221045 -4.817303
  8   1.168026 -0.537438 -0.063437 -0.206756 1.325798 0.302322
  9   6.790376 -0.619176 0.015206 0.003393 -0.036058 -0.399828
 10   8.637599 0.544015 -0.090417 -1.640212 0.016481 -0.018713
 11   6.790465 -0.619039 0.017802 -0.000838 -0.036353 -0.295036
 12   -2.022474 -0.104699 -2.873818 -2.559531 1.445737 -5.925775
 13   1.167898 -0.537463 0.063297 1.491993 -0.307111 -1.509041
 14   7.002743 -0.617765 -0.183752 -0.016395 -0.049663 -0.467972
 15   8.209042 0.615527 -0.255885 1.724610 0.202856 0.423420
 16   7.002735 -0.617911 -0.183641 0.000834 -0.031371 -0.346601
 17   1.574674 0.609930 -0.000899 -0.135509 -0.001388 0.416765
 18   -0.602177 0.511412 -0.000006 0.000000 0.000000 0.000000
 19   3.673773 0.177020 1.119313 -0.000002 -0.000014 -0.174510
 20   3.673767 0.176993 -1.117566 0.000007 -0.000003 -0.174546
 21   3.942357 1.330634 1.627658 0.000002 -0.000011 -0.000026
 22   -0.246060 -0.011889 0.516521 -0.000011 0.000031 0.000025
 23   3.942374 1.330659 -1.631083 0.000019 0.000002 -0.000024
 24   -0.246150 -0.011872 -0.516511 -0.000005 -0.000006 0.000048
 25   4.941364 1.997338 1.629330 0.000018 -0.000001 -0.000024
 26   4.941382 1.997366 -1.629410 -0.000001 0.000005 -0.000024
 27   2.918368 1.615358 1.514501 -0.000019 -0.000022 -0.000050
 28   2.920798 1.614964 -1.501142 -0.000002 -0.000009 -0.000024
 29   8.824059 0.150544 0.091743 0.000006 -0.000231 -0.174534
 30   2.111085 -0.561179 1.784320 -0.000008 -0.000682 0.000024
 31   2.121290 -0.561289 -1.853599 0.000000 0.000000 -0.000002
 32   -0.810489 -0.093824 3.127092 3.071872 -0.114782 1.239365
 33   14.298673 -0.408176 0.475484 0.000248 0.000062 -1.896136
 34   15.835795 0.581398 0.242756 -0.214729 0.106889 -0.097869
 35   -0.815868 -0.091229 -3.114430 0.066464 3.132725 -1.010185
 36   14.294526 -0.410349 -0.463635 0.000033 -0.000000 -2.607695
 37   15.834409 0.579420 -0.284600 -0.006092 -0.035255 0.214458
 38   1.139685 -3.453749 -2.823813 0.000000 0.000000 0.000001
 39   -4.457742 -1.054854 -0.746180 0.000000 0.000000 0.000000
 40   1.118101 -3.449769 3.237290 0.000000 0.000001 0.000000
 41   -4.433840 -1.059130 0.959566 -0.000001 0.000000 0.000000
 42   -0.657468 1.697302 -2.688614 0.000000 0.000002 0.000000
 43   -0.664068 1.698578 2.869377 0.000000 0.000002 0.000000
time 5
  0   -0.967547 0.175787 -20.574476 0.000000 0.000000 -1.572114
  1   -1.093036 0.000002 -0.326057 -1.832612 -1.570379 0.261463
  2   2.262337 0.113614 0.064702 0.107962 -0.041670 0.237439
  3   2.380047 0.353302 0.047440 0.056419 -0.020138 0.248458
  4   2.033756 0.190472 -0.000128 0.069814 -0.004482 -0.038773
  5   2.451511 0.204909 -0.003447 -0.169029 0.118657 -0.040826
  6   7.247600 -0.397300 -0.109469 0.056796 0.015841 0.258541
  7   -2.022252 -0.104661 3.136172 1.362532 -1.221045 -4.817303
  8   1.168026 -0.537438 -0.063437 -0.206756 1.325798 0.302322
  9   6.790376 -0.619176 0.015206 0.003393 -0.036058 -0.399828
 10   8.637599 0.544015 -0.090417 -1.640212 0.016481 -0.018713
 11   6.790465 -0.619039 0.017802 -0.000838 -0.036353 -0.295036
 12   -2.022474 -0.104699 -2.873818 -2.559531 1.445737 -5.925775
 13   1.167898 -0.537463 0.063297 1.489603 -0.285346 -1.506196
 14   7.002743 -0.617765 -0.183752 -0.018615 -0.049096 -0.424244
 15   8.209042 0.615527 -0.255885 1.724610 0.202856 0.423420
 16   7.002735 -0.617911 -0.183641 -0.000531 -0.031202 -0.315969
 17   1.574674 0.609930 -0.000899 -0.135509 -0.001388 0.416765
 18   -0.602177 0.511412 -0.000006 0.000000 0.000000 0.000000
 19   3.673773 0.177020 1.119313 -0.000002 -0.000014 -0.174510
 20   3.673767 0.176993 -1.117566 0.000007 -0.000003 -0.174546
 21   3.942357 1.330634 1.627658 0.000002 -0.000011 -0.000026
 22   -0.246060 -0.011889 0.516521 -0.000011 0.000031 0.000025
 23   3.942374 1.330659 -1.631083 0.000019 0.000002 -0.000024
 24   -0.246150 -0.011872 -0.516511 -0.000005 -0.000006 0.000048
 25   4.941364 1.997338 1.629330 0.000018 -0.000001 -0.000024
 26   4.941382 1.997366 -1.629410 -0.000001 0.000005 -0.000024
 27   2.918368 1.615358 1.514501 -0.000019 -0.000022 -0.000050
 28   2.920798 1.614964 -1.501142 -0.000002 -0.000009 -0.000024
 29   8.824059 0.150544 0.091743 0.000006 -0.000231 -0.174534
 30   2.111085 -0.561179 1.784320 -0.000008 -0.000682 0.000024
 31   2.121290 -0.561289 -1.853599 0.000000 0.000000 -0.000002
 32   -0.810489 -0.093824 3.127092 3.071872 -0.114782 1.239365
 33   14.298673 -0.408176 0.475484 0.000248 0.000062 -1.896136
 34   15.835795 0.581398 0.242756 -0.214729 0.106889 -0.097869
 35   -0.815868 -0.091229 -3.114430 0.066464 3.132725 -1.010185
 36   14.294526 -0.410349 -0.463635 0.000033 -0.000000 -2.607695
 37   15.834409 0.579420 -0.284600 -0.006092 -0.035255 0.214458
 38   1.139685 -3.453749 -2.823813 0.000000 0.000000 0.000001
 39   -4.457742 -1.054854 -0.746180 0.000000 0.000000 0.000000
 40   1.118101 -3.449769 3.237290 0.000000 0.000001 0.000000
 41   -4.433840 -1.059130 0.959566 -0.000001 0.000000 0.000000
 42   -0.657468 1.697302 -2.688614 0.000000 0.000002 0.000000
 43   -0.664068 1.698578 2.869377 0.000000 0.000002 0.000000
time 6
  0   -0.967547 0.175787 -20.574476 0.000000 0.000000 -1.572114
  1   -1.093036 0.000002 -0.326057 -1.832612 -1.570379 0.261463
  2   2.262337 0.113614 0.064702 0.107962 -0.041670 0.237439
  3   2.380047 0.353302 0.047440 0.056419 -0.020138 0.248458
  4   2.033756 0.190472 -0.000128 0.069814 -0.004482 -0.038773
  5   2.451511 0.204909 -0.003447 -0.168704 0.119336 -0.037755
  6   7.247600 -0.397300 -0.109469 0.056796 0.015841 0.258541
  7   -2.022252 -0.104661 3.136172 1.362532 -1.221045 -4.817303
  8   1.168026 -0.537438 -0.063437 -0.206756 1.325798 0.302322
  9   6.790376 -0.619176 0.015206 0.003393 -0.036058 -0.399828
 10   8.637599 0.544015 -0.090417 -1.640212 0.016481 -0.018713
 11   6.790465 -0.619039 0.017802 -0.000838 -0.036353 -0.295036
 12   -2.022474 -0.104699 -2.873818 -2.559531 1.445737 -5.925775
 13   1.167898 -0.537463 0.063297 1.488689 -0.277667 -1.505167
 14   7.002743 -0.617765 -0.183752 -0.019469 -0.048812 -0.408733
 15   8.209042 0.615527 -0.255885 1.724610 0.202856 0.423420
 16   7.002735 -0.617911 -0.183641 -0.001002 -0.031089 -0.305096
 17   1.574674 0.609930 -0.000899 -0.135509 -0.001388 0.416765
 18   -0.602177 0.511412 -0.000006 0.000000 0.000000 0.000000
 19   3.673773 0.177020 1.119313 -0.000002 -0.000014 -0.174510
 20   3.673767 0.176993 -1.117566 0.000007 -0.000003 -0.174546
 21   3.942357 1.330634 1.627658 0.000002 -0.000011 -0.000026
 22   -0.246060 -0.011889 0.516521 -0.000011 0.000031 0.000025
 23   3.942374 1.330659 -1.631083 0.000019 0.000002 -0.000024
 24   -0.246150 -0.011872 -0.516511 -0.000005 -0.000006 0.000048
 25   4.941364 1.997338 1.629330 0.000018 -0.000001 -0.000024
 26   4.941382 1.997366 -1.629410 -0.000001 0.000005 -0.000024
 27   2.918368 1.615358 1.514501 -0.000019 -0.000022 -0.000050
 28   2.920798 1.614964 -1.501142 -0.000002 -0.000009 -0.000024
 29   8.824059 0.150544 0.091743 0.000006 -0.000231 -0.174534
 30   2.111085 -0.561179 1.784320 -0.000008 -0.000682 0.000024
 31   2.121290 -0.561289 -1.853599 0.000000 0.000000 -0.000002
 32   -0.810489 -0.093824 3.127092 3.071872 -0.114782 1.239365
 33   14.298673 -0.408176 0.475484 0.000248 0.000062 -1.896136
 34   15.835795 0.581398 0.242756 -0.214729 0.106889 -0.097869
 35   -0.815868 -0.091229 -3.114430 0.066464 3.132725 -1.010185
 36   14.294526 -0.410349 -0.463635 0.000033 -0.000000 -2.607695
 37   15.834409 0.579420 -0.284600 -0.006092 -0.035255 0.214458
 38   1.139685 -3.453749 -2.823813 0.000000 0.000000 0.000001
 39   -4.457742 -1.054854 -0.746180 0.000000 0.000000 0.000000
 40   1.118101 -3.449769 3.237290 0.000000 0.000001 0.000000
 41   -4.433840 -1.059130 0.959566 -0.000001 0.000000 0.000000
 42   -0.657468 1.697302 -2.688614 0.000000 0.000002 0.000000
 43   -0.664068 1.698578 2.869377 0.000000 0.000002 0.000000
end
