version 1
nodes
  0 "Bip01" -1
  1 "Bip01 Pelvis" 0
  2 "Bip01 Spine" 1
  3 "Bip01 Spine1" 2
  4 "Bip01 Spine2" 3
  5 "Bip01 Spine3" 4
  6 "Bip01 Neck" 5
  7 "Bip01 L Arm" 6
  8 "Bip01 L Arm1" 7
  9 "Bip01 L Arm2" 8
 10 "Bip01 L Hand" 9
 11 "Bip06 L elbow2-smooth" 8
 12 "Bip01 R Arm" 6
 13 "Bip01 R Arm1" 12
 14 "Bip01 R Arm2" 13
 15 "Bip01 R Hand" 14
 16 "Bip06 R elbow2-smooth" 13
 17 "Bip01 Head" 6
 18 "Bip06 Head_helper" 17
 19 "Bip06 Head_eyes_l" 18
 20 "Bip06 Head_eyes_r" 18
 21 "Bip06 Head_blink_l" 18
 22 "Bip06 Head_blink_smooth_l1" 21
 23 "Bip06 Head_blink_r" 18
 24 "Bip06 Head_blink_smooth_r1" 23
 25 "Bip06 Head_L_eyebrow" 18
 26 "Bip06 Head_R_eyebrow" 18
 27 "Bip06 Head_blink_l_lid" 18
 28 "Bip06 Head_blink_r_lid" 18
 29 "Bip06 bunny" 18
 30 "Bip06 bunnyL" 29
 31 "Bip06 bunnyR" 29
 32 "Bip01 L Leg" 1
 33 "Bip01 L Leg1" 32
 34 "Bip01 L Foot" 33
 35 "Bip01 R Leg" 1
 36 "Bip01 R Leg1" 35
 37 "Bip01 R Foot" 36
 38 "Bip03 HairR1" 17
 39 "Bip03 HairR2" 38
 40 "Bip03 HairL1" 17
 41 "Bip03 HairL2" 40
 42 "Bip03 swingR" 17
 43 "Bip03 swingL" 17
end
skeleton
time 0
  0   -0.967547 0.175787 -20.574476 0.000000 0.000000 -1.572114
  1   -1.093036 0.000002 -0.326057 -1.570757 -1.570379 -0.000171
  2   2.262337 0.113614 0.064702 -0.000052 0.000061 -0.103830
  3   2.380047 0.353302 0.047440 0.000000 -0.000040 -0.200403
  4   2.033756 0.190472 -0.000128 -0.156901 -0.002529 -0.017641
  5   2.451511 0.204909 -0.003447 -0.051796 -0.007186 -0.139169
  6   7.247600 -0.397300 -0.109469 0.000001 0.000033 0.052298
  7   -2.022252 -0.104661 3.136172 1.348920 -0.824798 -4.467756
  8   1.168026 -0.537438 -0.063437 -0.230423 0.504870 -0.173966
  9   6.790376 -0.619176 0.015206 -0.000213 -0.000151 -0.945458
 10   8.637599 0.544015 -0.090417 -3.685958 0.382441 -0.380290
 11   6.790465 -0.619039 0.017802 0.000067 -0.011509 -0.677132
 12   -2.022474 -0.104699 -2.873818 1.081809 1.163508 -2.149363
 13   1.167898 -0.537463 0.063297 -0.486366 -1.250790 -0.671361
 14   7.002743 -0.617765 -0.183752 0.000286 0.000250 -1.504652
 15   8.209042 0.615527 -0.255885 1.663133 0.687985 -0.096467
 16   7.002735 -0.617911 -0.183641 0.013686 0.008270 -1.071889
 17   1.574674 0.609930 -0.000899 0.209072 -0.006193 0.130169
 18   -0.602177 0.511412 -0.000006 0.000000 0.000000 0.000000
 19   3.673773 0.177020 1.119313 -0.000002 -0.000014 -0.174510
 20   3.673767 0.176993 -1.117566 0.000007 -0.000003 -0.174546
 21   3.942357 1.330634 1.627658 0.000002 -0.000011 -0.000026
 22   -0.246060 -0.011889 0.516521 -0.000011 0.000031 0.000025
 23   3.942374 1.330659 -1.631083 0.000019 0.000002 -0.000024
 24   -0.246150 -0.011872 -0.516511 -0.000005 -0.000006 0.000048
 25   4.941364 1.997338 1.629330 0.000018 0.261736 -0.000024
 26   4.941382 1.997366 -1.629410 -0.000001 -0.261744 -0.000024
 27   2.918368 1.615358 1.514501 -0.000019 -0.000022 -0.000050
 28   2.920798 1.614964 -1.501142 -0.000002 -0.000009 -0.000024
 29   8.824059 0.150544 0.091743 0.000006 -0.000231 -0.174534
 30   2.111085 -0.561179 1.784320 -0.000008 -0.000682 0.000024
 31   2.121290 -0.561289 -1.853599 0.000000 0.000000 -0.000002
 32   -0.810489 -0.093824 3.127092 3.071872 -0.114782 1.239365
 33   14.298673 -0.408176 0.475484 0.000248 0.000062 -1.896136
 34   15.835795 0.581398 0.242756 -0.214729 0.106889 -0.097869
 35   -0.815868 -0.091229 -3.114430 0.066464 3.132725 -1.010185
 36   14.294526 -0.410349 -0.463635 0.000033 -0.000000 -2.607695
 37   15.834409 0.579420 -0.284600 -0.006092 -0.035255 0.214458
 38   1.139685 -3.453749 -2.823813 0.000000 0.000000 0.000001
 39   -4.457742 -1.054854 -0.746180 0.000000 0.000000 0.000000
 40   1.118101 -3.449769 3.237290 0.000000 0.000001 0.000000
 41   -4.433840 -1.059130 0.959566 -0.000001 0.000000 0.000000
 42   -0.657468 1.697302 -2.688614 0.000000 0.000002 0.000000
 43   -0.664068 1.698578 2.869377 0.000000 0.000002 0.000000
time 1
  0   -0.967547 0.175787 -20.574476 0.000000 0.000000 -1.572114
  1   -1.093036 0.000002 -0.326057 -1.570757 -1.570379 -0.000171
  2   2.262337 0.113614 0.064702 -0.000052 0.000061 -0.156091
  3   2.380047 0.353302 0.047440 -0.068315 -0.013679 -0.199954
  4   2.033756 0.190472 -0.000128 -0.296087 -0.014981 -0.050227
  5   2.451511 0.204909 -0.003447 -0.051796 -0.007186 -0.139169
  6   7.247600 -0.397300 -0.109469 0.000001 0.000033 0.052298
  7   -2.022252 -0.104661 3.136172 1.348920 -0.824798 -4.467756
  8   1.168026 -0.537438 -0.063437 0.269556 0.654706 0.600215
  9   6.790376 -0.619176 0.015206 -0.000213 -0.000352 -1.851822
 10   8.637599 0.544015 -0.090417 -3.685958 0.382441 -0.380290
 11   6.790465 -0.619039 0.017802 0.003950 -0.011907 -1.311556
 12   -2.022474 -0.104699 -2.873818 1.081809 1.163479 -2.149363
 13   1.167898 -0.537463 0.063297 -1.423879 -0.808267 0.038470
 14   7.002743 -0.617765 -0.183752 0.000286 0.000250 -2.017258
 15   8.209042 0.615527 -0.255885 1.656302 0.583953 -0.108194
 16   7.002735 -0.617911 -0.183641 0.012885 0.011315 -1.430808
 17   1.574674 0.609930 -0.000899 0.416559 -0.021553 0.215586
 18   -0.602177 0.511412 -0.000006 0.000000 0.000000 0.000000
 19   3.673773 0.177020 1.119313 -0.000002 -0.000014 -0.174510
 20   3.673767 0.176993 -1.117566 0.000007 -0.000003 -0.174546
 21   3.942357 1.330634 1.627658 0.000002 -0.000011 -0.000026
 22   -0.246060 -0.011889 0.516521 -0.000011 0.000031 0.000025
 23   3.942374 1.330659 -1.631083 0.000019 0.000002 -0.000024
 24   -0.246150 -0.011872 -0.516511 -0.000005 -0.000006 0.000048
 25   4.941364 1.997338 1.629330 0.000018 0.261736 -0.000024
 26   4.941382 1.997366 -1.629410 -0.000001 -0.261744 -0.000024
 27   2.918368 1.615358 1.514501 -0.000019 -0.000022 -0.000050
 28   2.920798 1.614964 -1.501142 -0.000002 -0.000009 -0.000024
 29   8.824059 0.150544 0.091743 0.000006 -0.000231 -0.174534
 30   2.111085 -0.561179 1.784320 -0.000008 -0.000682 0.000024
 31   2.121290 -0.561289 -1.853599 0.000000 0.000000 -0.000002
 32   -0.810489 -0.093824 3.127092 3.071872 -0.114782 1.239365
 33   14.298673 -0.408176 0.475484 0.000248 0.000062 -1.896136
 34   15.835795 0.581398 0.242756 -0.214729 0.106889 -0.097869
 35   -0.815868 -0.091229 -3.114430 0.066464 3.132725 -1.010185
 36   14.294526 -0.410349 -0.463635 0.000033 -0.000000 -2.607695
 37   15.834409 0.579420 -0.284600 -0.006092 -0.035255 0.214458
 38   1.139685 -3.453749 -2.823813 0.000000 0.000000 0.000001
 39   -4.457742 -1.054854 -0.746180 0.000000 0.000000 0.000000
 40   1.118101 -3.449769 3.237290 0.000000 0.000001 0.000000
 41   -4.433840 -1.059130 0.959566 -0.000001 0.000000 0.000000
 42   -0.657468 1.697302 -2.688614 0.000000 0.000002 0.000000
 43   -0.664068 1.698578 2.869377 0.000000 0.000002 0.000000
time 2
  0   -0.967547 0.175787 -20.574476 0.000000 0.000000 -1.572114
  1   -1.093036 0.000002 -0.326057 -1.570757 -1.570379 -0.000171
  2   2.262337 0.113614 0.064702 -0.000052 0.000061 -0.149892
  3   2.380047 0.353302 0.047440 -0.060079 -0.012061 -0.200056
  4   2.033756 0.190472 -0.000128 -0.188069 -0.009060 -0.047436
  5   2.451511 0.204909 -0.003447 0.018692 0.002580 -0.139392
  6   7.247600 -0.397300 -0.109469 0.000001 0.000033 0.052298
  7   -2.022252 -0.104661 3.136172 1.348920 -0.824798 -4.467756
  8   1.168026 -0.537438 -0.063437 0.262089 0.682228 0.395378
  9   6.790376 -0.619176 0.015206 -0.000213 -0.000352 -1.786392
 10   8.637599 0.544015 -0.090417 -3.685958 0.382441 -0.380290
 11   6.790465 -0.619039 0.017802 0.003658 -0.011907 -1.265704
 12   -2.022474 -0.104699 -2.873818 1.081809 1.163479 -2.149363
 13   1.167898 -0.537463 0.063297 -1.322304 -0.826981 0.138655
 14   7.002743 -0.617765 -0.183752 0.000286 0.000250 -1.980378
 15   8.209042 0.615527 -0.255885 1.656733 0.591519 -0.107412
 16   7.002735 -0.617911 -0.183641 0.012932 0.011146 -1.404812
 17   1.574674 0.609930 -0.000899 0.229869 -0.003069 0.207380
 18   -0.602177 0.511412 -0.000006 0.000000 0.000000 0.000000
 19   3.673773 0.177020 1.119313 -0.000002 -0.000014 -0.174510
 20   3.673767 0.176993 -1.117566 0.000007 -0.000003 -0.174546
 21   3.942357 1.330634 1.627658 0.000002 -0.000011 -0.000026
 22   -0.246060 -0.011889 0.516521 -0.000011 0.000031 0.000025
 23   3.942374 1.330659 -1.631083 0.000019 0.000002 -0.000024
 24   -0.246150 -0.011872 -0.516511 -0.000005 -0.000006 0.000048
 25   4.941364 1.997338 1.629330 0.000018 0.261736 -0.000024
 26   4.941382 1.997366 -1.629410 -0.000001 -0.261744 -0.000024
 27   2.918368 1.615358 1.514501 -0.000019 -0.000022 -0.000050
 28   2.920798 1.614964 -1.501142 -0.000002 -0.000009 -0.000024
 29   8.824059 0.150544 0.091743 0.000006 -0.000231 -0.174534
 30   2.111085 -0.561179 1.784320 -0.000008 -0.000682 0.000024
 31   2.121290 -0.561289 -1.853599 0.000000 0.000000 -0.000002
 32   -0.810489 -0.093824 3.127092 3.071872 -0.114782 1.239365
 33   14.298673 -0.408176 0.475484 0.000248 0.000062 -1.896136
 34   15.835795 0.581398 0.242756 -0.214729 0.106889 -0.097869
 35   -0.815868 -0.091229 -3.114430 0.066464 3.132725 -1.010185
 36   14.294526 -0.410349 -0.463635 0.000033 -0.000000 -2.607695
 37   15.834409 0.579420 -0.284600 -0.006092 -0.035255 0.214458
 38   1.139685 -3.453749 -2.823813 0.000000 0.000000 0.000001
 39   -4.457742 -1.054854 -0.746180 0.000000 0.000000 0.000000
 40   1.118101 -3.449769 3.237290 0.000000 0.000001 0.000000
 41   -4.433840 -1.059130 0.959566 -0.000001 0.000000 0.000000
 42   -0.657468 1.697302 -2.688614 0.000000 0.000002 0.000000
 43   -0.664068 1.698578 2.869377 0.000000 0.000002 0.000000
time 3
  0   -0.967547 0.175787 -20.574476 0.000000 0.000000 -1.572114
  1   -1.093036 0.000002 -0.326057 -1.570757 -1.570379 -0.000171
  2   2.262337 0.113614 0.064702 -0.000052 0.000061 -0.133466
  3   2.380047 0.353302 0.047440 -0.038748 -0.007830 -0.200260
  4   2.033756 0.190472 -0.000128 -0.079092 -0.002672 -0.037323
  5   2.451511 0.204909 -0.003447 0.068981 0.009617 -0.139070
  6   7.247600 -0.397300 -0.109469 0.000001 0.000033 0.052298
  7   -2.022252 -0.104661 3.136172 1.348920 -0.824798 -4.467756
  8   1.168026 -0.537438 -0.063437 0.166472 0.700794 0.106974
  9   6.790376 -0.619176 0.015206 -0.000213 -0.000151 -1.619684
 10   8.637599 0.544015 -0.090417 -3.685958 0.382441 -0.380290
 11   6.790465 -0.619039 0.017802 0.002899 -0.011850 -1.149028
 12   -2.022474 -0.104699 -2.873818 1.081809 1.163508 -2.149363
 13   1.167898 -0.537463 0.063297 -1.148677 -0.911092 0.159600
 14   7.002743 -0.617765 -0.183752 0.000286 0.000250 -1.885992
 15   8.209042 0.615527 -0.255885 1.657884 0.610661 -0.105307
 16   7.002735 -0.617911 -0.183641 0.013121 0.010582 -1.338857
 17   1.574674 0.609930 -0.000899 0.048663 0.007629 0.179512
 18   -0.602177 0.511412 -0.000006 0.000000 0.000000 0.000000
 19   3.673773 0.177020 1.119313 -0.000002 -0.000014 -0.174510
 20   3.673767 0.176993 -1.117566 0.000007 -0.000003 -0.174546
 21   3.942357 1.330634 1.627658 0.000002 -0.000011 -0.000026
 22   -0.246060 -0.011889 0.516521 -0.000011 0.000031 0.000025
 23   3.942374 1.330659 -1.631083 0.000019 0.000002 -0.000024
 24   -0.246150 -0.011872 -0.516511 -0.000005 -0.000006 0.000048
 25   4.941364 1.997338 1.629330 0.000018 0.261736 -0.000024
 26   4.941382 1.997366 -1.629410 -0.000001 -0.261744 -0.000024
 27   2.918368 1.615358 1.514501 -0.000019 -0.000022 -0.000050
 28   2.920798 1.614964 -1.501142 -0.000002 -0.000009 -0.000024
 29   8.824059 0.150544 0.091743 0.000006 -0.000231 -0.174534
 30   2.111085 -0.561179 1.784320 -0.000008 -0.000682 0.000024
 31   2.121290 -0.561289 -1.853599 0.000000 0.000000 -0.000002
 32   -0.810489 -0.093824 3.127092 3.071872 -0.114782 1.239365
 33   14.298673 -0.408176 0.475484 0.000248 0.000062 -1.896136
 34   15.835795 0.581398 0.242756 -0.214729 0.106889 -0.097869
 35   -0.815868 -0.091229 -3.114430 0.066464 3.132725 -1.010185
 36   14.294526 -0.410349 -0.463635 0.000033 -0.000000 -2.607695
 37   15.834409 0.579420 -0.284600 -0.006092 -0.035255 0.214458
 38   1.139685 -3.453749 -2.823813 0.000000 0.000000 0.000001
 39   -4.457742 -1.054854 -0.746180 0.000000 0.000000 0.000000
 40   1.118101 -3.449769 3.237290 0.000000 0.000001 0.000000
 41   -4.433840 -1.059130 0.959566 -0.000001 0.000000 0.000000
 42   -0.657468 1.697302 -2.688614 0.000000 0.000002 0.000000
 43   -0.664068 1.698578 2.869377 0.000000 0.000002 0.000000
time 4
  0   -0.967547 0.175787 -20.574476 0.000000 0.000000 -1.572114
  1   -1.093036 0.000002 -0.326057 -1.570757 -1.570379 -0.000171
  2   2.262337 0.113614 0.064702 -0.000052 0.000061 -0.123292
  3   2.380047 0.353302 0.047440 -0.025457 -0.005038 -0.200362
  4   2.033756 0.190472 -0.000128 -0.081102 -0.001870 -0.030690
  5   2.451511 0.204909 -0.003447 0.046678 0.006497 -0.139169
  6   7.247600 -0.397300 -0.109469 0.000001 0.000033 0.052298
  7   -2.022252 -0.104661 3.136172 1.348920 -0.824798 -4.467756
  8   1.168026 -0.537438 -0.063437 0.020864 0.663108 -0.041625
  9   6.790376 -0.619176 0.015206 -0.000213 -0.000151 -1.394791
 10   8.637599 0.544015 -0.090417 -3.685958 0.382441 -0.380290
 11   6.790465 -0.619039 0.017802 0.001965 -0.011793 -0.991691
 12   -2.022474 -0.104699 -2.873818 1.081809 1.163479 -2.149363
 13   1.167898 -0.537463 0.063297 -1.002887 -1.035427 -0.000091
 14   7.002743 -0.617765 -0.183752 0.000286 0.000250 -1.758521
 15   8.209042 0.615527 -0.255885 1.659466 0.636385 -0.102541
 16   7.002735 -0.617911 -0.183641 0.013309 0.009736 -1.249555
 17   1.574674 0.609930 -0.000899 0.059671 0.003321 0.162990
 18   -0.602177 0.511412 -0.000006 0.000000 0.000000 0.000000
 19   3.673773 0.177020 1.119313 -0.000002 -0.000014 -0.174510
 20   3.673767 0.176993 -1.117566 0.000007 -0.000003 -0.174546
 21   3.942357 1.330634 1.627658 0.000002 -0.000011 -0.000026
 22   -0.246060 -0.011889 0.516521 -0.000011 0.000031 0.000025
 23   3.942374 1.330659 -1.631083 0.000019 0.000002 -0.000024
 24   -0.246150 -0.011872 -0.516511 -0.000005 -0.000006 0.000048
 25   4.941364 1.997338 1.629330 0.000018 0.261736 -0.000024
 26   4.941382 1.997366 -1.629410 -0.000001 -0.261744 -0.000024
 27   2.918368 1.615358 1.514501 -0.000019 -0.000022 -0.000050
 28   2.920798 1.614964 -1.501142 -0.000002 -0.000009 -0.000024
 29   8.824059 0.150544 0.091743 0.000006 -0.000231 -0.174534
 30   2.111085 -0.561179 1.784320 -0.000008 -0.000682 0.000024
 31   2.121290 -0.561289 -1.853599 0.000000 0.000000 -0.000002
 32   -0.810489 -0.093824 3.127092 3.071872 -0.114782 1.239365
 33   14.298673 -0.408176 0.475484 0.000248 0.000062 -1.896136
 34   15.835795 0.581398 0.242756 -0.214729 0.106889 -0.097869
 35   -0.815868 -0.091229 -3.114430 0.066464 3.132725 -1.010185
 36   14.294526 -0.410349 -0.463635 0.000033 -0.000000 -2.607695
 37   15.834409 0.579420 -0.284600 -0.006092 -0.035255 0.214458
 38   1.139685 -3.453749 -2.823813 0.000000 0.000000 0.000001
 39   -4.457742 -1.054854 -0.746180 0.000000 0.000000 0.000000
 40   1.118101 -3.449769 3.237290 0.000000 0.000001 0.000000
 41   -4.433840 -1.059130 0.959566 -0.000001 0.000000 0.000000
 42   -0.657468 1.697302 -2.688614 0.000000 0.000002 0.000000
 43   -0.664068 1.698578 2.869377 0.000000 0.000002 0.000000
time 5
  0   -0.967547 0.175787 -20.574476 0.000000 0.000000 -1.572114
  1   -1.093036 0.000002 -0.326057 -1.570757 -1.570379 -0.000171
  2   2.262337 0.113614 0.064702 -0.000052 0.000061 -0.113552
  3   2.380047 0.353302 0.047440 -0.012646 -0.002557 -0.200362
  4   2.033756 0.190472 -0.000128 -0.118983 -0.002397 -0.024093
  5   2.451511 0.204909 -0.003447 -0.002482 -0.000292 -0.139392
  6   7.247600 -0.397300 -0.109469 0.000001 0.000033 0.052298
  7   -2.022252 -0.104661 3.136172 1.348920 -0.824798 -4.467756
  8   1.168026 -0.537438 -0.063437 -0.121644 0.588744 -0.124623
  9   6.790376 -0.619176 0.015206 -0.000213 -0.000151 -1.156012
 10   8.637599 0.544015 -0.090417 -3.685958 0.382441 -0.380290
 11   6.790465 -0.619039 0.017802 0.000943 -0.011651 -0.824376
 12   -2.022474 -0.104699 -2.873818 1.081809 1.163508 -2.149363
 13   1.167898 -0.537463 0.063297 -0.796433 -1.161695 -0.284786
 14   7.002743 -0.617765 -0.183752 0.000286 0.000250 -1.623295
 15   8.209042 0.615527 -0.255885 1.661479 0.664001 -0.099354
 16   7.002735 -0.617911 -0.183641 0.013544 0.008947 -1.154899
 17   1.574674 0.609930 -0.000899 0.134331 -0.002430 0.146727
 18   -0.602177 0.511412 -0.000006 0.000000 0.000000 0.000000
 19   3.673773 0.177020 1.119313 -0.000002 -0.000014 -0.174510
 20   3.673767 0.176993 -1.117566 0.000007 -0.000003 -0.174546
 21   3.942357 1.330634 1.627658 0.000002 -0.000011 -0.000026
 22   -0.246060 -0.011889 0.516521 -0.000011 0.000031 0.000025
 23   3.942374 1.330659 -1.631083 0.000019 0.000002 -0.000024
 24   -0.246150 -0.011872 -0.516511 -0.000005 -0.000006 0.000048
 25   4.941364 1.997338 1.629330 0.000018 0.261736 -0.000024
 26   4.941382 1.997366 -1.629410 -0.000001 -0.261744 -0.000024
 27   2.918368 1.615358 1.514501 -0.000019 -0.000022 -0.000050
 28   2.920798 1.614964 -1.501142 -0.000002 -0.000009 -0.000024
 29   8.824059 0.150544 0.091743 0.000006 -0.000231 -0.174534
 30   2.111085 -0.561179 1.784320 -0.000008 -0.000682 0.000024
 31   2.121290 -0.561289 -1.853599 0.000000 0.000000 -0.000002
 32   -0.810489 -0.093824 3.127092 3.071872 -0.114782 1.239365
 33   14.298673 -0.408176 0.475484 0.000248 0.000062 -1.896136
 34   15.835795 0.581398 0.242756 -0.214729 0.106889 -0.097869
 35   -0.815868 -0.091229 -3.114430 0.066464 3.132725 -1.010185
 36   14.294526 -0.410349 -0.463635 0.000033 -0.000000 -2.607695
 37   15.834409 0.579420 -0.284600 -0.006092 -0.035255 0.214458
 38   1.139685 -3.453749 -2.823813 0.000000 0.000000 0.000001
 39   -4.457742 -1.054854 -0.746180 0.000000 0.000000 0.000000
 40   1.118101 -3.449769 3.237290 0.000000 0.000001 0.000000
 41   -4.433840 -1.059130 0.959566 -0.000001 0.000000 0.000000
 42   -0.657468 1.697302 -2.688614 0.000000 0.000002 0.000000
 43   -0.664068 1.698578 2.869377 0.000000 0.000002 0.000000
time 6
  0   -0.967547 0.175787 -20.574476 0.000000 0.000000 -1.572114
  1   -1.093036 0.000002 -0.326057 -1.570757 -1.570379 -0.000171
  2   2.262337 0.113614 0.064702 -0.000052 0.000061 -0.103830
  3   2.380047 0.353302 0.047440 0.000000 -0.000040 -0.200403
  4   2.033756 0.190472 -0.000128 -0.156901 -0.002529 -0.017641
  5   2.451511 0.204909 -0.003447 -0.051796 -0.007186 -0.139169
  6   7.247600 -0.397300 -0.109469 0.000001 0.000033 0.052298
  7   -2.022252 -0.104661 3.136172 1.348920 -0.824798 -4.467756
  8   1.168026 -0.537438 -0.063437 -0.230423 0.504870 -0.173966
  9   6.790376 -0.619176 0.015206 -0.000213 -0.000151 -0.945458
 10   8.637599 0.544015 -0.090417 -3.685958 0.382441 -0.380290
 11   6.790465 -0.619039 0.017802 0.000067 -0.011509 -0.677132
 12   -2.022474 -0.104699 -2.873818 1.081809 1.163508 -2.149363
 13   1.167898 -0.537463 0.063297 -0.486366 -1.250790 -0.671361
 14   7.002743 -0.617765 -0.183752 0.000286 0.000250 -1.504652
 15   8.209042 0.615527 -0.255885 1.663133 0.687985 -0.096467
 16   7.002735 -0.617911 -0.183641 0.013686 0.008270 -1.071889
 17   1.574674 0.609930 -0.000899 0.209072 -0.006193 0.130169
 18   -0.602177 0.511412 -0.000006 0.000000 0.000000 0.000000
 19   3.673773 0.177020 1.119313 -0.000002 -0.000014 -0.174510
 20   3.673767 0.176993 -1.117566 0.000007 -0.000003 -0.174546
 21   3.942357 1.330634 1.627658 0.000002 -0.000011 -0.000026
 22   -0.246060 -0.011889 0.516521 -0.000011 0.000031 0.000025
 23   3.942374 1.330659 -1.631083 0.000019 0.000002 -0.000024
 24   -0.246150 -0.011872 -0.516511 -0.000005 -0.000006 0.000048
 25   4.941364 1.997338 1.629330 0.000018 0.261736 -0.000024
 26   4.941382 1.997366 -1.629410 -0.000001 -0.261744 -0.000024
 27   2.918368 1.615358 1.514501 -0.000019 -0.000022 -0.000050
 28   2.920798 1.614964 -1.501142 -0.000002 -0.000009 -0.000024
 29   8.824059 0.150544 0.091743 0.000006 -0.000231 -0.174534
 30   2.111085 -0.561179 1.784320 -0.000008 -0.000682 0.000024
 31   2.121290 -0.561289 -1.853599 0.000000 0.000000 -0.000002
 32   -0.810489 -0.093824 3.127092 3.071872 -0.114782 1.239365
 33   14.298673 -0.408176 0.475484 0.000248 0.000062 -1.896136
 34   15.835795 0.581398 0.242756 -0.214729 0.106889 -0.097869
 35   -0.815868 -0.091229 -3.114430 0.066464 3.132725 -1.010185
 36   14.294526 -0.410349 -0.463635 0.000033 -0.000000 -2.607695
 37   15.834409 0.579420 -0.284600 -0.006092 -0.035255 0.214458
 38   1.139685 -3.453749 -2.823813 0.000000 0.000000 0.000001
 39   -4.457742 -1.054854 -0.746180 0.000000 0.000000 0.000000
 40   1.118101 -3.449769 3.237290 0.000000 0.000001 0.000000
 41   -4.433840 -1.059130 0.959566 -0.000001 0.000000 0.000000
 42   -0.657468 1.697302 -2.688614 0.000000 0.000002 0.000000
 43   -0.664068 1.698578 2.869377 0.000000 0.000002 0.000000
end
