version 1
nodes
  0 "Bip01" -1
  1 "Bip01 Pelvis" 0
  2 "Bip01 Spine" 1
  3 "Bip01 Spine1" 2
  4 "Bip01 Spine2" 3
  5 "Bip01 Spine3" 4
  6 "Bip01 Neck" 5
  7 "Bip01 L Arm" 6
  8 "Bip01 L Arm1" 7
  9 "Bip01 L Arm2" 8
 10 "Bip01 L Hand" 9
 11 "Bip06 L elbow2-smooth" 8
 12 "Bip01 R Arm" 6
 13 "Bip01 R Arm1" 12
 14 "Bip01 R Arm2" 13
 15 "Bip01 R Hand" 14
 16 "Bip06 R elbow2-smooth" 13
 17 "Bip01 Head" 6
 18 "Bip06 Head_helper" 17
 19 "Bip06 Head_eyes_l" 18
 20 "Bip06 Head_eyes_r" 18
 21 "Bip06 Head_blink_l" 18
 22 "Bip06 Head_blink_smooth_l1" 21
 23 "Bip06 Head_blink_r" 18
 24 "Bip06 Head_blink_smooth_r1" 23
 25 "Bip06 Head_L_eyebrow" 18
 26 "Bip06 Head_R_eyebrow" 18
 27 "Bip06 Head_blink_l_lid" 18
 28 "Bip06 Head_blink_r_lid" 18
 29 "Bip06 bunny" 18
 30 "Bip06 bunnyL" 29
 31 "Bip06 bunnyR" 29
 32 "Bip01 L Leg" 1
 33 "Bip01 L Leg1" 32
 34 "Bip01 L Foot" 33
 35 "Bip01 R Leg" 1
 36 "Bip01 R Leg1" 35
 37 "Bip01 R Foot" 36
 38 "Bip03 HairR1" 17
 39 "Bip03 HairR2" 38
 40 "Bip03 HairL1" 17
 41 "Bip03 HairL2" 40
 42 "Bip03 swingR" 17
 43 "Bip03 swingL" 17
end
skeleton
time 0
  0   -0.967547 0.175787 -20.574476 0.000000 0.000000 -1.572114
  1   -1.093036 0.000002 -0.326057 -1.569708 -1.570379 -0.001236
  2   2.262337 0.113614 0.064702 -0.000052 0.000061 0.131363
  3   2.380047 0.353302 0.047440 -0.265923 0.048689 0.176508
  4   2.033756 0.190472 -0.000128 -0.261987 0.067090 0.243772
  5   2.451511 0.204909 -0.003447 -0.139451 -0.002120 -0.017422
  6   7.247600 -0.397300 -0.109469 0.000001 0.000033 0.052298
  7   -2.022252 -0.104661 3.136172 1.070165 -1.170888 -4.229592
  8   1.168026 -0.537438 -0.063437 -0.423808 0.284040 -0.655947
  9   6.790376 -0.619176 0.015206 -0.000213 -0.000151 -1.110807
 10   8.637599 0.544015 -0.090417 -4.300299 0.240886 0.178642
 11   6.790465 -0.619039 0.017802 0.000768 -0.011651 -0.792770
 12   -2.022474 -0.104699 -2.873818 0.298873 1.361829 -2.901697
 13   1.167898 -0.537463 0.063297 0.714399 -0.857289 -1.281854
 14   7.002743 -0.617765 -0.183752 0.000286 0.000250 -1.945396
 15   8.209042 0.615527 -0.255885 1.831745 -0.254128 1.079217
 16   7.002735 -0.617911 -0.183641 0.012979 0.010864 -1.380472
 17   1.574674 0.609930 -0.000899 0.701225 -0.325317 0.125844
 18   -0.602177 0.511412 -0.000006 0.000000 0.000000 0.000000
 19   3.673773 0.177020 1.119313 -0.000002 -0.000014 -0.174510
 20   3.673767 0.176993 -1.117566 0.000007 -0.000003 -0.174546
 21   3.942357 1.330634 1.627658 0.000002 -0.000011 -0.000026
 22   -0.246060 -0.011889 0.516521 -0.000011 0.000031 0.000025
 23   3.942374 1.330659 -1.631083 0.000019 0.000002 -0.000024
 24   -0.246150 -0.011872 -0.516511 -0.000005 -0.000006 0.000048
 25   4.941364 1.997338 1.629330 0.000018 0.261736 -0.000024
 26   4.941382 1.997366 -1.629410 -0.000001 -0.261744 -0.000024
 27   2.918368 1.615358 1.514501 -0.000019 -0.000022 -0.000050
 28   2.920798 1.614964 -1.501142 -0.000002 -0.000009 -0.000024
 29   8.824059 0.150544 0.091743 0.000006 -0.000231 -0.174534
 30   2.111085 -0.561179 1.784320 -0.000008 -0.000682 0.000024
 31   2.121290 -0.561289 -1.853599 0.000000 0.000000 -0.000002
 32   -0.810489 -0.093824 3.127092 3.071872 -0.114782 1.239365
 33   14.298673 -0.408176 0.475484 0.000248 0.000062 -1.896136
 34   15.835795 0.581398 0.242756 -0.214729 0.106889 -0.097869
 35   -0.815868 -0.091229 -3.114430 0.066464 3.132725 -1.010185
 36   14.294526 -0.410349 -0.463635 0.000033 -0.000000 -2.607695
 37   15.834409 0.579420 -0.284600 -0.006092 -0.035255 0.214458
 38   1.139685 -3.453749 -2.823813 0.000000 0.000000 0.000001
 39   -4.457742 -1.054854 -0.746180 0.000000 0.000000 0.000000
 40   1.118101 -3.449769 3.237290 0.000000 0.000001 0.000000
 41   -4.433840 -1.059130 0.959566 -0.000001 0.000000 0.000000
 42   -0.657468 1.697302 -2.688614 0.000000 0.000002 0.000000
 43   -0.664068 1.698578 2.869377 0.000000 0.000002 0.000000
time 1
  0   -0.967547 0.175787 -20.574476 0.000000 0.000000 -1.572114
  1   -1.093036 0.000002 -0.326057 -1.569708 -1.570379 -0.001236
  2   2.262337 0.113614 0.064702 -0.052505 0.006832 0.131236
  3   2.380047 0.353302 0.047440 -0.320046 0.062591 0.066930
  4   2.033756 0.190472 -0.000128 -0.313755 0.079770 0.239966
  5   2.451511 0.204909 -0.003447 -0.192599 -0.003138 -0.017323
  6   7.247600 -0.397300 -0.109469 0.000001 0.000033 0.052298
  7   -2.022252 -0.104661 3.136172 1.070165 -1.170888 -4.229592
  8   1.168026 -0.537438 -0.063437 -0.581060 0.159009 -0.617548
  9   6.790376 -0.619176 0.015206 -0.000213 -0.000151 -1.589120
 10   8.637599 0.544015 -0.090417 -4.070978 0.178450 0.480752
 11   6.790465 -0.619039 0.017802 0.002753 -0.011850 -1.127573
 12   -2.022474 -0.104699 -2.873818 0.298873 1.361829 -2.901697
 13   1.167898 -0.537463 0.063297 0.771196 -0.702950 -1.418239
 14   7.002743 -0.617765 -0.183752 0.000286 0.000250 -1.846472
 15   8.209042 0.615527 -0.255885 2.024876 -0.252993 0.952267
 16   7.002735 -0.617911 -0.183641 0.013168 0.010300 -1.311150
 17   1.574674 0.609930 -0.000899 0.861594 -0.501872 0.136933
 18   -0.602177 0.511412 -0.000006 0.000000 0.000000 0.000000
 19   3.673773 0.177020 1.119313 -0.000002 -0.000014 -0.174510
 20   3.673767 0.176993 -1.117566 0.000007 -0.000003 -0.174546
 21   3.942357 1.330634 1.627658 0.000002 -0.000011 -0.000026
 22   -0.246060 -0.011889 0.516521 -0.000011 0.000031 0.000025
 23   3.942374 1.330659 -1.631083 0.000019 0.000002 -0.000024
 24   -0.246150 -0.011872 -0.516511 -0.000005 -0.000006 0.000048
 25   4.941364 1.997338 1.629330 0.000018 0.261736 -0.000024
 26   4.941382 1.997366 -1.629410 -0.000001 -0.261744 -0.000024
 27   2.918368 1.615358 1.514501 -0.000019 -0.000022 -0.000050
 28   2.920798 1.614964 -1.501142 -0.000002 -0.000009 -0.000024
 29   8.824059 0.150544 0.091743 0.000006 -0.000231 -0.174534
 30   2.111085 -0.561179 1.784320 -0.000008 -0.000682 0.000024
 31   2.121290 -0.561289 -1.853599 0.000000 0.000000 -0.000002
 32   -0.810489 -0.093824 3.127092 3.071872 -0.114782 1.239365
 33   14.298673 -0.408176 0.475484 0.000248 0.000062 -1.896136
 34   15.835795 0.581398 0.242756 -0.214729 0.106889 -0.097869
 35   -0.815868 -0.091229 -3.114430 0.066464 3.132725 -1.010185
 36   14.294526 -0.410349 -0.463635 0.000033 -0.000000 -2.607695
 37   15.834409 0.579420 -0.284600 -0.006092 -0.035255 0.214458
 38   1.139685 -3.453749 -2.823813 0.000000 0.000000 0.000001
 39   -4.457742 -1.054854 -0.746180 0.000000 0.000000 0.000000
 40   1.118101 -3.449769 3.237290 0.000000 0.000001 0.000000
 41   -4.433840 -1.059130 0.959566 -0.000001 0.000000 0.000000
 42   -0.657468 1.697302 -2.688614 0.000000 0.000002 0.000000
 43   -0.664068 1.698578 2.869377 0.000000 0.000002 0.000000
time 2
  0   -0.967547 0.175787 -20.574476 0.000000 0.000000 -1.572114
  1   -1.093036 0.000002 -0.326057 -1.569708 -1.570379 -0.001236
  2   2.262337 0.113614 0.064702 -0.105302 0.013759 0.130658
  3   2.380047 0.353302 0.047440 -0.375400 0.070441 -0.043056
  4   2.033756 0.190472 -0.000128 -0.365597 0.092329 0.235508
  5   2.451511 0.204909 -0.003447 -0.245764 -0.004000 -0.017125
  6   7.247600 -0.397300 -0.109469 0.000001 0.000033 0.052298
  7   -2.022252 -0.104661 3.136172 1.070165 -1.170888 -4.229592
  8   1.168026 -0.537438 -0.063437 -0.897905 0.070003 -0.514307
  9   6.790376 -0.619176 0.015206 -0.000213 -0.000352 -1.869104
 10   8.637599 0.544015 -0.090417 -3.784415 0.069204 0.887978
 11   6.790465 -0.619039 0.017802 0.004067 -0.011907 -1.323610
 12   -2.022474 -0.104699 -2.873818 0.298873 1.361829 -2.901792
 13   1.167898 -0.537463 0.063297 0.803251 -0.433379 -1.669761
 14   7.002743 -0.617765 -0.183752 0.000286 0.000250 -1.747383
 15   8.209042 0.615527 -0.255885 2.217504 -0.250723 0.826099
 16   7.002735 -0.617911 -0.183641 0.013309 0.009680 -1.241828
 17   1.574674 0.609930 -0.000899 1.038738 -0.684651 0.102559
 18   -0.602177 0.511412 -0.000006 0.000000 0.000000 0.000000
 19   3.673773 0.177020 1.119313 -0.000002 -0.000014 -0.174510
 20   3.673767 0.176993 -1.117566 0.000007 -0.000003 -0.174546
 21   3.942357 1.330634 1.627658 0.000002 -0.000011 -0.000026
 22   -0.246060 -0.011889 0.516521 -0.000011 0.000031 0.000025
 23   3.942374 1.330659 -1.631083 0.000019 0.000002 -0.000024
 24   -0.246150 -0.011872 -0.516511 -0.000005 -0.000006 0.000048
 25   4.941364 1.997338 1.629330 0.000018 0.261736 -0.000024
 26   4.941382 1.997366 -1.629410 -0.000001 -0.261744 -0.000024
 27   2.918368 1.615358 1.514501 -0.000019 -0.000022 -0.000050
 28   2.920798 1.614964 -1.501142 -0.000002 -0.000009 -0.000024
 29   8.824059 0.150544 0.091743 0.000006 -0.000231 -0.174534
 30   2.111085 -0.561179 1.784320 -0.000008 -0.000682 0.000024
 31   2.121290 -0.561289 -1.853599 0.000000 0.000000 -0.000002
 32   -0.810489 -0.093824 3.127092 3.071872 -0.114782 1.239365
 33   14.298673 -0.408176 0.475484 0.000248 0.000062 -1.896136
 34   15.835795 0.581398 0.242756 -0.214729 0.106889 -0.097869
 35   -0.815868 -0.091229 -3.114430 0.066464 3.132725 -1.010185
 36   14.294526 -0.410349 -0.463635 0.000033 -0.000000 -2.607695
 37   15.834409 0.579420 -0.284600 -0.006092 -0.035255 0.214458
 38   1.139685 -3.453749 -2.823813 0.000000 0.000000 0.000001
 39   -4.457742 -1.054854 -0.746180 0.000000 0.000000 0.000000
 40   1.118101 -3.449769 3.237290 0.000000 0.000001 0.000000
 41   -4.433840 -1.059130 0.959566 -0.000001 0.000000 0.000000
 42   -0.657468 1.697302 -2.688614 0.000000 0.000002 0.000000
 43   -0.664068 1.698578 2.869377 0.000000 0.000002 0.000000
time 3
  0   -0.967547 0.175787 -20.574476 0.000000 0.000000 -1.572114
  1   -1.093036 0.000002 -0.326057 -1.569708 -1.570379 -0.001236
  2   2.262337 0.113614 0.064702 -0.129351 0.016911 0.130315
  3   2.380047 0.353302 0.047440 -0.400902 0.071975 -0.093172
  4   2.033756 0.190472 -0.000128 -0.389222 0.098118 0.233333
  5   2.451511 0.204909 -0.003447 -0.269933 -0.004248 -0.017001
  6   7.247600 -0.397300 -0.109469 0.000001 0.000033 0.052298
  7   -2.022252 -0.104661 3.136172 1.070165 -1.170888 -4.229592
  8   1.168026 -0.537438 -0.063437 -1.031237 0.083588 -0.423971
  9   6.790376 -0.619176 0.015206 -0.000213 -0.000352 -2.088639
 10   8.637599 0.544015 -0.090417 -3.636906 -0.207994 1.268219
 11   6.790465 -0.619039 0.017802 0.005118 -0.011935 -1.477371
 12   -2.022474 -0.104699 -2.873818 0.298873 1.361829 -2.901792
 13   1.167898 -0.537463 0.063297 0.814357 -0.277463 -1.794523
 14   7.002743 -0.617765 -0.183752 0.000286 0.000250 -1.866521
 15   8.209042 0.615527 -0.255885 2.312416 -0.245654 0.708170
 16   7.002735 -0.617911 -0.183641 0.013121 0.010413 -1.325390
 17   1.574674 0.609930 -0.000899 1.126559 -0.775508 0.073101
 18   -0.602177 0.511412 -0.000006 0.000000 0.000000 0.000000
 19   3.673773 0.177020 1.119313 -0.000002 -0.000014 -0.174510
 20   3.673767 0.176993 -1.117566 0.000007 -0.000003 -0.174546
 21   3.942357 1.330634 1.627658 0.000002 -0.000011 -0.000026
 22   -0.246060 -0.011889 0.516521 -0.000011 0.000031 0.000025
 23   3.942374 1.330659 -1.631083 0.000019 0.000002 -0.000024
 24   -0.246150 -0.011872 -0.516511 -0.000005 -0.000006 0.000048
 25   4.941364 1.997338 1.629330 0.000018 0.261736 -0.000024
 26   4.941382 1.997366 -1.629410 -0.000001 -0.261744 -0.000024
 27   2.918368 1.615358 1.514501 -0.000019 -0.000022 -0.000050
 28   2.920798 1.614964 -1.501142 -0.000002 -0.000009 -0.000024
 29   8.824059 0.150544 0.091743 0.000006 -0.000231 -0.174534
 30   2.111085 -0.561179 1.784320 -0.000008 -0.000682 0.000024
 31   2.121290 -0.561289 -1.853599 0.000000 0.000000 -0.000002
 32   -0.810489 -0.093824 3.127092 3.071872 -0.114782 1.239365
 33   14.298673 -0.408176 0.475484 0.000248 0.000062 -1.896136
 34   15.835795 0.581398 0.242756 -0.214729 0.106889 -0.097869
 35   -0.815868 -0.091229 -3.114430 0.066464 3.132725 -1.010185
 36   14.294526 -0.410349 -0.463635 0.000033 -0.000000 -2.607695
 37   15.834409 0.579420 -0.284600 -0.006092 -0.035255 0.214458
 38   1.139685 -3.453749 -2.823813 0.000000 0.000000 0.000001
 39   -4.457742 -1.054854 -0.746180 0.000000 0.000000 0.000000
 40   1.118101 -3.449769 3.237290 0.000000 0.000001 0.000000
 41   -4.433840 -1.059130 0.959566 -0.000001 0.000000 0.000000
 42   -0.657468 1.697302 -2.688614 0.000000 0.000002 0.000000
 43   -0.664068 1.698578 2.869377 0.000000 0.000002 0.000000
time 4
  0   -0.967547 0.175787 -20.574476 0.000000 0.000000 -1.572114
  1   -1.093036 0.000002 -0.326057 -1.569708 -1.570379 -0.001236
  2   2.262337 0.113614 0.064702 -0.126306 0.016587 0.130333
  3   2.380047 0.353302 0.047440 -0.397692 0.071856 -0.086846
  4   2.033756 0.190472 -0.000128 -0.386253 0.097411 0.233478
  5   2.451511 0.204909 -0.003447 -0.266886 -0.004222 -0.017001
  6   7.247600 -0.397300 -0.109469 0.000001 0.000033 0.052298
  7   -2.022252 -0.104661 3.136172 1.070165 -1.170888 -4.229592
  8   1.168026 -0.537438 -0.063437 -1.029402 0.097223 -0.429728
  9   6.790376 -0.619176 0.015206 -0.000213 -0.000352 -2.077621
 10   8.637599 0.544015 -0.090417 -3.608197 -0.226929 1.238341
 11   6.790465 -0.619039 0.017802 0.005089 -0.011935 -1.469585
 12   -2.022474 -0.104699 -2.873818 0.298873 1.361829 -2.901792
 13   1.167898 -0.537463 0.063297 0.810842 -0.293787 -1.774607
 14   7.002743 -0.617765 -0.183752 0.000286 0.000250 -1.868501
 15   8.209042 0.615527 -0.255885 2.308461 -0.242098 0.658737
 16   7.002735 -0.617911 -0.183641 0.013121 0.010413 -1.326604
 17   1.574674 0.609930 -0.000899 1.108402 -0.774514 0.086961
 18   -0.602177 0.511412 -0.000006 0.000000 0.000000 0.000000
 19   3.673773 0.177020 1.119313 -0.000002 -0.000014 -0.174510
 20   3.673767 0.176993 -1.117566 0.000007 -0.000003 -0.174546
 21   3.942357 1.330634 1.627658 0.000002 -0.000011 -0.000026
 22   -0.246060 -0.011889 0.516521 -0.000011 0.000031 0.000025
 23   3.942374 1.330659 -1.631083 0.000019 0.000002 -0.000024
 24   -0.246150 -0.011872 -0.516511 -0.000005 -0.000006 0.000048
 25   4.941364 1.997338 1.629330 0.000018 0.261736 -0.000024
 26   4.941382 1.997366 -1.629410 -0.000001 -0.261744 -0.000024
 27   2.918368 1.615358 1.514501 -0.000019 -0.000022 -0.000050
 28   2.920798 1.614964 -1.501142 -0.000002 -0.000009 -0.000024
 29   8.824059 0.150544 0.091743 0.000006 -0.000231 -0.174534
 30   2.111085 -0.561179 1.784320 -0.000008 -0.000682 0.000024
 31   2.121290 -0.561289 -1.853599 0.000000 0.000000 -0.000002
 32   -0.810489 -0.093824 3.127092 3.071872 -0.114782 1.239365
 33   14.298673 -0.408176 0.475484 0.000248 0.000062 -1.896136
 34   15.835795 0.581398 0.242756 -0.214729 0.106889 -0.097869
 35   -0.815868 -0.091229 -3.114430 0.066464 3.132725 -1.010185
 36   14.294526 -0.410349 -0.463635 0.000033 -0.000000 -2.607695
 37   15.834409 0.579420 -0.284600 -0.006092 -0.035255 0.214458
 38   1.139685 -3.453749 -2.823813 0.000000 0.000000 0.000001
 39   -4.457742 -1.054854 -0.746180 0.000000 0.000000 0.000000
 40   1.118101 -3.449769 3.237290 0.000000 0.000001 0.000000
 41   -4.433840 -1.059130 0.959566 -0.000001 0.000000 0.000000
 42   -0.657468 1.697302 -2.688614 0.000000 0.000002 0.000000
 43   -0.664068 1.698578 2.869377 0.000000 0.000002 0.000000
time 5
  0   -0.967547 0.175787 -20.574476 0.000000 0.000000 -1.572114
  1   -1.093036 0.000002 -0.326057 -1.569708 -1.570379 -0.001236
  2   2.262337 0.113614 0.064702 -0.117861 0.015545 0.130459
  3   2.380047 0.353302 0.047440 -0.388796 0.071544 -0.069379
  4   2.033756 0.190472 -0.000128 -0.378046 0.095326 0.234384
  5   2.451511 0.204909 -0.003447 -0.258396 -0.004222 -0.017125
  6   7.247600 -0.397300 -0.109469 0.000001 0.000033 0.052298
  7   -2.022252 -0.104661 3.136172 1.070165 -1.170888 -4.229592
  8   1.168026 -0.537438 -0.063437 -0.999597 0.116242 -0.474200
  9   6.790376 -0.619176 0.015206 -0.000213 -0.000352 -2.010606
 10   8.637599 0.544015 -0.090417 -3.649940 -0.103816 1.100453
 11   6.790465 -0.619039 0.017802 0.004738 -0.011935 -1.422753
 12   -2.022474 -0.104699 -2.873818 0.298873 1.361829 -2.901792
 13   1.167898 -0.537463 0.063297 0.805359 -0.348505 -1.729448
 14   7.002743 -0.617765 -0.183752 0.000286 0.000250 -1.826093
 15   8.209042 0.615527 -0.255885 2.270928 -0.246562 0.736735
 16   7.002735 -0.617911 -0.183641 0.013215 0.010131 -1.296855
 17   1.574674 0.609930 -0.000899 1.074362 -0.747250 0.102818
 18   -0.602177 0.511412 -0.000006 0.000000 0.000000 0.000000
 19   3.673773 0.177020 1.119313 -0.000002 -0.000014 -0.174510
 20   3.673767 0.176993 -1.117566 0.000007 -0.000003 -0.174546
 21   3.942357 1.330634 1.627658 0.000002 -0.000011 -0.000026
 22   -0.246060 -0.011889 0.516521 -0.000011 0.000031 0.000025
 23   3.942374 1.330659 -1.631083 0.000019 0.000002 -0.000024
 24   -0.246150 -0.011872 -0.516511 -0.000005 -0.000006 0.000048
 25   4.941364 1.997338 1.629330 0.000018 0.261736 -0.000024
 26   4.941382 1.997366 -1.629410 -0.000001 -0.261744 -0.000024
 27   2.918368 1.615358 1.514501 -0.000019 -0.000022 -0.000050
 28   2.920798 1.614964 -1.501142 -0.000002 -0.000009 -0.000024
 29   8.824059 0.150544 0.091743 0.000006 -0.000231 -0.174534
 30   2.111085 -0.561179 1.784320 -0.000008 -0.000682 0.000024
 31   2.121290 -0.561289 -1.853599 0.000000 0.000000 -0.000002
 32   -0.810489 -0.093824 3.127092 3.071872 -0.114782 1.239365
 33   14.298673 -0.408176 0.475484 0.000248 0.000062 -1.896136
 34   15.835795 0.581398 0.242756 -0.214729 0.106889 -0.097869
 35   -0.815868 -0.091229 -3.114430 0.066464 3.132725 -1.010185
 36   14.294526 -0.410349 -0.463635 0.000033 -0.000000 -2.607695
 37   15.834409 0.579420 -0.284600 -0.006092 -0.035255 0.214458
 38   1.139685 -3.453749 -2.823813 0.000000 0.000000 0.000001
 39   -4.457742 -1.054854 -0.746180 0.000000 0.000000 0.000000
 40   1.118101 -3.449769 3.237290 0.000000 0.000001 0.000000
 41   -4.433840 -1.059130 0.959566 -0.000001 0.000000 0.000000
 42   -0.657468 1.697302 -2.688614 0.000000 0.000002 0.000000
 43   -0.664068 1.698578 2.869377 0.000000 0.000002 0.000000
time 6
  0   -0.967547 0.175787 -20.574476 0.000000 0.000000 -1.572114
  1   -1.093036 0.000002 -0.326057 -1.569708 -1.570379 -0.001236
  2   2.262337 0.113614 0.064702 -0.105302 0.013759 0.130658
  3   2.380047 0.353302 0.047440 -0.375400 0.070441 -0.043056
  4   2.033756 0.190472 -0.000128 -0.365597 0.092329 0.235508
  5   2.451511 0.204909 -0.003447 -0.245764 -0.004000 -0.017125
  6   7.247600 -0.397300 -0.109469 0.000001 0.000033 0.052298
  7   -2.022252 -0.104661 3.136172 1.070165 -1.170888 -4.229592
  8   1.168026 -0.537438 -0.063437 -0.928343 0.149047 -0.532779
  9   6.790376 -0.619176 0.015206 -0.000213 -0.000352 -1.940421
 10   8.637599 0.544015 -0.090417 -3.741087 0.018804 0.939559
 11   6.790465 -0.619039 0.017802 0.004388 -0.011935 -1.373498
 12   -2.022474 -0.104699 -2.873818 0.298873 1.361829 -2.901792
 13   1.167898 -0.537463 0.063297 0.795518 -0.423157 -1.655717
 14   7.002743 -0.617765 -0.183752 0.000286 0.000250 -1.818090
 15   8.209042 0.615527 -0.255885 2.216785 -0.251026 0.832233
 16   7.002735 -0.617911 -0.183641 0.013215 0.010131 -1.291391
 17   1.574674 0.609930 -0.000899 1.027080 -0.703158 0.120448
 18   -0.602177 0.511412 -0.000006 0.000000 0.000000 0.000000
 19   3.673773 0.177020 1.119313 -0.000002 -0.000014 -0.174510
 20   3.673767 0.176993 -1.117566 0.000007 -0.000003 -0.174546
 21   3.942357 1.330634 1.627658 0.000002 -0.000011 -0.000026
 22   -0.246060 -0.011889 0.516521 -0.000011 0.000031 0.000025
 23   3.942374 1.330659 -1.631083 0.000019 0.000002 -0.000024
 24   -0.246150 -0.011872 -0.516511 -0.000005 -0.000006 0.000048
 25   4.941364 1.997338 1.629330 0.000018 0.261736 -0.000024
 26   4.941382 1.997366 -1.629410 -0.000001 -0.261744 -0.000024
 27   2.918368 1.615358 1.514501 -0.000019 -0.000022 -0.000050
 28   2.920798 1.614964 -1.501142 -0.000002 -0.000009 -0.000024
 29   8.824059 0.150544 0.091743 0.000006 -0.000231 -0.174534
 30   2.111085 -0.561179 1.784320 -0.000008 -0.000682 0.000024
 31   2.121290 -0.561289 -1.853599 0.000000 0.000000 -0.000002
 32   -0.810489 -0.093824 3.127092 3.071872 -0.114782 1.239365
 33   14.298673 -0.408176 0.475484 0.000248 0.000062 -1.896136
 34   15.835795 0.581398 0.242756 -0.214729 0.106889 -0.097869
 35   -0.815868 -0.091229 -3.114430 0.066464 3.132725 -1.010185
 36   14.294526 -0.410349 -0.463635 0.000033 -0.000000 -2.607695
 37   15.834409 0.579420 -0.284600 -0.006092 -0.035255 0.214458
 38   1.139685 -3.453749 -2.823813 0.000000 0.000000 0.000001
 39   -4.457742 -1.054854 -0.746180 0.000000 0.000000 0.000000
 40   1.118101 -3.449769 3.237290 0.000000 0.000001 0.000000
 41   -4.433840 -1.059130 0.959566 -0.000001 0.000000 0.000000
 42   -0.657468 1.697302 -2.688614 0.000000 0.000002 0.000000
 43   -0.664068 1.698578 2.869377 0.000000 0.000002 0.000000
time 7
  0   -0.967547 0.175787 -20.574476 0.000000 0.000000 -1.572114
  1   -1.093036 0.000002 -0.326057 -1.569708 -1.570379 -0.001236
  2   2.262337 0.113614 0.064702 -0.089559 0.011782 0.130857
  3   2.380047 0.353302 0.047440 -0.358764 0.068752 -0.009897
  4   2.033756 0.190472 -0.000128 -0.350087 0.088722 0.236849
  5   2.451511 0.204909 -0.003447 -0.229828 -0.003595 -0.017224
  6   7.247600 -0.397300 -0.109469 0.000001 0.000033 0.052298
  7   -2.022252 -0.104661 3.136172 1.070165 -1.170888 -4.229592
  8   1.168026 -0.537438 -0.063437 -0.823994 0.192619 -0.586487
  9   6.790376 -0.619176 0.015206 -0.000213 -0.000352 -1.875519
 10   8.637599 0.544015 -0.090417 -3.859270 0.116999 0.792700
 11   6.790465 -0.619039 0.017802 0.004096 -0.011935 -1.328051
 12   -2.022474 -0.104699 -2.873818 0.298873 1.361829 -2.901792
 13   1.167898 -0.537463 0.063297 0.783498 -0.511794 -1.567760
 14   7.002743 -0.617765 -0.183752 0.000286 0.000250 -1.836159
 15   8.209042 0.615527 -0.255885 2.150994 -0.253749 0.931941
 16   7.002735 -0.617911 -0.183641 0.013215 0.010244 -1.303975
 17   1.574674 0.609930 -0.000899 0.972243 -0.646169 0.135824
 18   -0.602177 0.511412 -0.000006 0.000000 0.000000 0.000000
 19   3.673773 0.177020 1.119313 -0.000002 -0.000014 -0.174510
 20   3.673767 0.176993 -1.117566 0.000007 -0.000003 -0.174546
 21   3.942357 1.330634 1.627658 0.000002 -0.000011 -0.000026
 22   -0.246060 -0.011889 0.516521 -0.000011 0.000031 0.000025
 23   3.942374 1.330659 -1.631083 0.000019 0.000002 -0.000024
 24   -0.246150 -0.011872 -0.516511 -0.000005 -0.000006 0.000048
 25   4.941364 1.997338 1.629330 0.000018 0.261736 -0.000024
 26   4.941382 1.997366 -1.629410 -0.000001 -0.261744 -0.000024
 27   2.918368 1.615358 1.514501 -0.000019 -0.000022 -0.000050
 28   2.920798 1.614964 -1.501142 -0.000002 -0.000009 -0.000024
 29   8.824059 0.150544 0.091743 0.000006 -0.000231 -0.174534
 30   2.111085 -0.561179 1.784320 -0.000008 -0.000682 0.000024
 31   2.121290 -0.561289 -1.853599 0.000000 0.000000 -0.000002
 32   -0.810489 -0.093824 3.127092 3.071872 -0.114782 1.239365
 33   14.298673 -0.408176 0.475484 0.000248 0.000062 -1.896136
 34   15.835795 0.581398 0.242756 -0.214729 0.106889 -0.097869
 35   -0.815868 -0.091229 -3.114430 0.066464 3.132725 -1.010185
 36   14.294526 -0.410349 -0.463635 0.000033 -0.000000 -2.607695
 37   15.834409 0.579420 -0.284600 -0.006092 -0.035255 0.214458
 38   1.139685 -3.453749 -2.823813 0.000000 0.000000 0.000001
 39   -4.457742 -1.054854 -0.746180 0.000000 0.000000 0.000000
 40   1.118101 -3.449769 3.237290 0.000000 0.000001 0.000000
 41   -4.433840 -1.059130 0.959566 -0.000001 0.000000 0.000000
 42   -0.657468 1.697302 -2.688614 0.000000 0.000002 0.000000
 43   -0.664068 1.698578 2.869377 0.000000 0.000002 0.000000
time 8
  0   -0.967547 0.175787 -20.574476 0.000000 0.000000 -1.572114
  1   -1.093036 0.000002 -0.326057 -1.569708 -1.570379 -0.001236
  2   2.262337 0.113614 0.064702 -0.071624 0.009445 0.131092
  3   2.380047 0.353302 0.047440 -0.339998 0.066271 0.027323
  4   2.033756 0.190472 -0.000128 -0.332419 0.084372 0.238480
  5   2.451511 0.204909 -0.003447 -0.211770 -0.003465 -0.017224
  6   7.247600 -0.397300 -0.109469 0.000001 0.000033 0.052298
  7   -2.022252 -0.104661 3.136172 1.070165 -1.170888 -4.229592
  8   1.168026 -0.537438 -0.063437 -0.698129 0.241122 -0.619003
  9   6.790376 -0.619176 0.015206 -0.000213 -0.000352 -1.801410
 10   8.637599 0.544015 -0.090417 -3.992600 0.187460 0.655391
 11   6.790465 -0.619039 0.017802 0.003775 -0.011907 -1.276259
 12   -2.022474 -0.104699 -2.873818 0.298873 1.361829 -2.901792
 13   1.167898 -0.537463 0.063297 0.770283 -0.606584 -1.479379
 14   7.002743 -0.617765 -0.183752 0.000286 0.000250 -1.870481
 15   8.209042 0.615527 -0.255885 2.079235 -0.255036 1.022207
 16   7.002735 -0.617911 -0.183641 0.013121 0.010413 -1.328039
 17   1.574674 0.609930 -0.000899 0.914075 -0.580872 0.145655
 18   -0.602177 0.511412 -0.000006 0.000000 0.000000 0.000000
 19   3.673773 0.177020 1.119313 -0.000002 -0.000014 -0.174510
 20   3.673767 0.176993 -1.117566 0.000007 -0.000003 -0.174546
 21   3.942357 1.330634 1.627658 0.000002 -0.000011 -0.000026
 22   -0.246060 -0.011889 0.516521 -0.000011 0.000031 0.000025
 23   3.942374 1.330659 -1.631083 0.000019 0.000002 -0.000024
 24   -0.246150 -0.011872 -0.516511 -0.000005 -0.000006 0.000048
 25   4.941364 1.997338 1.629330 0.000018 0.261736 -0.000024
 26   4.941382 1.997366 -1.629410 -0.000001 -0.261744 -0.000024
 27   2.918368 1.615358 1.514501 -0.000019 -0.000022 -0.000050
 28   2.920798 1.614964 -1.501142 -0.000002 -0.000009 -0.000024
 29   8.824059 0.150544 0.091743 0.000006 -0.000231 -0.174534
 30   2.111085 -0.561179 1.784320 -0.000008 -0.000682 0.000024
 31   2.121290 -0.561289 -1.853599 0.000000 0.000000 -0.000002
 32   -0.810489 -0.093824 3.127092 3.071872 -0.114782 1.239365
 33   14.298673 -0.408176 0.475484 0.000248 0.000062 -1.896136
 34   15.835795 0.581398 0.242756 -0.214729 0.106889 -0.097869
 35   -0.815868 -0.091229 -3.114430 0.066464 3.132725 -1.010185
 36   14.294526 -0.410349 -0.463635 0.000033 -0.000000 -2.607695
 37   15.834409 0.579420 -0.284600 -0.006092 -0.035255 0.214458
 38   1.139685 -3.453749 -2.823813 0.000000 0.000000 0.000001
 39   -4.457742 -1.054854 -0.746180 0.000000 0.000000 0.000000
 40   1.118101 -3.449769 3.237290 0.000000 0.000001 0.000000
 41   -4.433840 -1.059130 0.959566 -0.000001 0.000000 0.000000
 42   -0.657468 1.697302 -2.688614 0.000000 0.000002 0.000000
 43   -0.664068 1.698578 2.869377 0.000000 0.000002 0.000000
time 9
  0   -0.967547 0.175787 -20.574476 0.000000 0.000000 -1.572114
  1   -1.093036 0.000002 -0.326057 -1.569708 -1.570379 -0.001236
  2   2.262337 0.113614 0.064702 -0.052505 0.006832 0.131236
  3   2.380047 0.353302 0.047440 -0.320046 0.062591 0.066930
  4   2.033756 0.190472 -0.000128 -0.313755 0.079770 0.239966
  5   2.451511 0.204909 -0.003447 -0.192599 -0.003138 -0.017323
  6   7.247600 -0.397300 -0.109469 0.000001 0.000033 0.052298
  7   -2.022252 -0.104661 3.136172 1.070165 -1.170888 -4.229592
  8   1.168026 -0.537438 -0.063437 -0.563911 0.290279 -0.620268
  9   6.790376 -0.619176 0.015206 -0.000213 -0.000352 -1.713792
 10   8.637599 0.544015 -0.090417 -4.111928 0.225119 0.537542
 11   6.790465 -0.619039 0.017802 0.003337 -0.011850 -1.214835
 12   -2.022474 -0.104699 -2.873818 0.298873 1.361829 -2.901697
 13   1.167898 -0.537463 0.063297 0.757067 -0.697611 -1.401289
 14   7.002743 -0.617765 -0.183752 0.000286 0.000250 -1.913219
 15   8.209042 0.615527 -0.255885 2.006829 -0.255263 1.090162
 16   7.002735 -0.617911 -0.183641 0.013074 0.010695 -1.358009
 17   1.574674 0.609930 -0.000899 0.855663 -0.511741 0.148871
 18   -0.602177 0.511412 -0.000006 0.000000 0.000000 0.000000
 19   3.673773 0.177020 1.119313 -0.000002 -0.000014 -0.174510
 20   3.673767 0.176993 -1.117566 0.000007 -0.000003 -0.174546
 21   3.942357 1.330634 1.627658 0.000002 -0.000011 -0.000026
 22   -0.246060 -0.011889 0.516521 -0.000011 0.000031 0.000025
 23   3.942374 1.330659 -1.631083 0.000019 0.000002 -0.000024
 24   -0.246150 -0.011872 -0.516511 -0.000005 -0.000006 0.000048
 25   4.941364 1.997338 1.629330 0.000018 0.261736 -0.000024
 26   4.941382 1.997366 -1.629410 -0.000001 -0.261744 -0.000024
 27   2.918368 1.615358 1.514501 -0.000019 -0.000022 -0.000050
 28   2.920798 1.614964 -1.501142 -0.000002 -0.000009 -0.000024
 29   8.824059 0.150544 0.091743 0.000006 -0.000231 -0.174534
 30   2.111085 -0.561179 1.784320 -0.000008 -0.000682 0.000024
 31   2.121290 -0.561289 -1.853599 0.000000 0.000000 -0.000002
 32   -0.810489 -0.093824 3.127092 3.071872 -0.114782 1.239365
 33   14.298673 -0.408176 0.475484 0.000248 0.000062 -1.896136
 34   15.835795 0.581398 0.242756 -0.214729 0.106889 -0.097869
 35   -0.815868 -0.091229 -3.114430 0.066464 3.132725 -1.010185
 36   14.294526 -0.410349 -0.463635 0.000033 -0.000000 -2.607695
 37   15.834409 0.579420 -0.284600 -0.006092 -0.035255 0.214458
 38   1.139685 -3.453749 -2.823813 0.000000 0.000000 0.000001
 39   -4.457742 -1.054854 -0.746180 0.000000 0.000000 0.000000
 40   1.118101 -3.449769 3.237290 0.000000 0.000001 0.000000
 41   -4.433840 -1.059130 0.959566 -0.000001 0.000000 0.000000
 42   -0.657468 1.697302 -2.688614 0.000000 0.000002 0.000000
 43   -0.664068 1.698578 2.869377 0.000000 0.000002 0.000000
time 10
  0   -0.967547 0.175787 -20.574476 0.000000 0.000000 -1.572114
  1   -1.093036 0.000002 -0.326057 -1.569708 -1.570379 -0.001236
  2   2.262337 0.113614 0.064702 -0.033667 0.004291 0.131290
  3   2.380047 0.353302 0.047440 -0.300350 0.058409 0.106476
  4   2.033756 0.190472 -0.000128 -0.295073 0.075155 0.241416
  5   2.451511 0.204909 -0.003447 -0.173428 -0.002721 -0.017323
  6   7.247600 -0.397300 -0.109469 0.000001 0.000033 0.052298
  7   -2.022252 -0.104661 3.136172 1.070165 -1.170888 -4.229592
  8   1.168026 -0.537438 -0.063437 -0.447285 0.334908 -0.607616
  9   6.790376 -0.619176 0.015206 -0.000213 -0.000151 -1.590252
 10   8.637599 0.544015 -0.090417 -4.207214 0.242153 0.428447
 11   6.790465 -0.619039 0.017802 0.002753 -0.011850 -1.128438
 12   -2.022474 -0.104699 -2.873818 0.298873 1.361829 -2.901792
 13   1.167898 -0.537463 0.063297 0.745328 -0.775060 -1.342631
 14   7.002743 -0.617765 -0.183752 0.000286 0.000250 -1.945891
 15   8.209042 0.615527 -0.255885 1.940678 -0.254733 1.111210
 16   7.002735 -0.617911 -0.183641 0.012979 0.010864 -1.380748
 17   1.574674 0.609930 -0.000899 0.799242 -0.443343 0.145655
 18   -0.602177 0.511412 -0.000006 0.000000 0.000000 0.000000
 19   3.673773 0.177020 1.119313 -0.000002 -0.000014 -0.174510
 20   3.673767 0.176993 -1.117566 0.000007 -0.000003 -0.174546
 21   3.942357 1.330634 1.627658 0.000002 -0.000011 -0.000026
 22   -0.246060 -0.011889 0.516521 -0.000011 0.000031 0.000025
 23   3.942374 1.330659 -1.631083 0.000019 0.000002 -0.000024
 24   -0.246150 -0.011872 -0.516511 -0.000005 -0.000006 0.000048
 25   4.941364 1.997338 1.629330 0.000018 0.261736 -0.000024
 26   4.941382 1.997366 -1.629410 -0.000001 -0.261744 -0.000024
 27   2.918368 1.615358 1.514501 -0.000019 -0.000022 -0.000050
 28   2.920798 1.614964 -1.501142 -0.000002 -0.000009 -0.000024
 29   8.824059 0.150544 0.091743 0.000006 -0.000231 -0.174534
 30   2.111085 -0.561179 1.784320 -0.000008 -0.000682 0.000024
 31   2.121290 -0.561289 -1.853599 0.000000 0.000000 -0.000002
 32   -0.810489 -0.093824 3.127092 3.071872 -0.114782 1.239365
 33   14.298673 -0.408176 0.475484 0.000248 0.000062 -1.896136
 34   15.835795 0.581398 0.242756 -0.214729 0.106889 -0.097869
 35   -0.815868 -0.091229 -3.114430 0.066464 3.132725 -1.010185
 36   14.294526 -0.410349 -0.463635 0.000033 -0.000000 -2.607695
 37   15.834409 0.579420 -0.284600 -0.006092 -0.035255 0.214458
 38   1.139685 -3.453749 -2.823813 0.000000 0.000000 0.000001
 39   -4.457742 -1.054854 -0.746180 0.000000 0.000000 0.000000
 40   1.118101 -3.449769 3.237290 0.000000 0.000001 0.000000
 41   -4.433840 -1.059130 0.959566 -0.000001 0.000000 0.000000
 42   -0.657468 1.697302 -2.688614 0.000000 0.000002 0.000000
 43   -0.664068 1.698578 2.869377 0.000000 0.000002 0.000000
time 11
  0   -0.967547 0.175787 -20.574476 0.000000 0.000000 -1.572114
  1   -1.093036 0.000002 -0.326057 -1.569708 -1.570379 -0.001236
  2   2.262337 0.113614 0.064702 -0.015694 0.001990 0.131363
  3   2.380047 0.353302 0.047440 -0.281989 0.053615 0.143757
  4   2.033756 0.190472 -0.000128 -0.277497 0.070949 0.242721
  5   2.451511 0.204909 -0.003447 -0.155387 -0.002538 -0.017422
  6   7.247600 -0.397300 -0.109469 0.000001 0.000033 0.052298
  7   -2.022252 -0.104661 3.136172 1.070165 -1.170888 -4.229592
  8   1.168026 -0.537438 -0.063437 -0.370273 0.379939 -0.612930
  9   6.790376 -0.619176 0.015206 -0.000213 -0.000151 -1.394414
 10   8.637599 0.544015 -0.090417 -4.258732 0.237789 0.308211
 11   6.790465 -0.619039 0.017802 0.001965 -0.011793 -0.991287
 12   -2.022474 -0.104699 -2.873818 0.298873 1.361829 -2.901792
 13   1.167898 -0.537463 0.063297 0.733308 -0.829930 -1.304918
 14   7.002743 -0.617765 -0.183752 0.000286 0.000250 -1.956699
 15   8.209042 0.615527 -0.255885 1.882580 -0.254355 1.095033
 16   7.002735 -0.617911 -0.183641 0.012979 0.010977 -1.388420
 17   1.574674 0.609930 -0.000899 0.747004 -0.379940 0.137081
 18   -0.602177 0.511412 -0.000006 0.000000 0.000000 0.000000
 19   3.673773 0.177020 1.119313 -0.000002 -0.000014 -0.174510
 20   3.673767 0.176993 -1.117566 0.000007 -0.000003 -0.174546
 21   3.942357 1.330634 1.627658 0.000002 -0.000011 -0.000026
 22   -0.246060 -0.011889 0.516521 -0.000011 0.000031 0.000025
 23   3.942374 1.330659 -1.631083 0.000019 0.000002 -0.000024
 24   -0.246150 -0.011872 -0.516511 -0.000005 -0.000006 0.000048
 25   4.941364 1.997338 1.629330 0.000018 0.261736 -0.000024
 26   4.941382 1.997366 -1.629410 -0.000001 -0.261744 -0.000024
 27   2.918368 1.615358 1.514501 -0.000019 -0.000022 -0.000050
 28   2.920798 1.614964 -1.501142 -0.000002 -0.000009 -0.000024
 29   8.824059 0.150544 0.091743 0.000006 -0.000231 -0.174534
 30   2.111085 -0.561179 1.784320 -0.000008 -0.000682 0.000024
 31   2.121290 -0.561289 -1.853599 0.000000 0.000000 -0.000002
 32   -0.810489 -0.093824 3.127092 3.071872 -0.114782 1.239365
 33   14.298673 -0.408176 0.475484 0.000248 0.000062 -1.896136
 34   15.835795 0.581398 0.242756 -0.214729 0.106889 -0.097869
 35   -0.815868 -0.091229 -3.114430 0.066464 3.132725 -1.010185
 36   14.294526 -0.410349 -0.463635 0.000033 -0.000000 -2.607695
 37   15.834409 0.579420 -0.284600 -0.006092 -0.035255 0.214458
 38   1.139685 -3.453749 -2.823813 0.000000 0.000000 0.000001
 39   -4.457742 -1.054854 -0.746180 0.000000 0.000000 0.000000
 40   1.118101 -3.449769 3.237290 0.000000 0.000001 0.000000
 41   -4.433840 -1.059130 0.959566 -0.000001 0.000000 0.000000
 42   -0.657468 1.697302 -2.688614 0.000000 0.000002 0.000000
 43   -0.664068 1.698578 2.869377 0.000000 0.000002 0.000000
time 12
  0   -0.967547 0.175787 -20.574476 0.000000 0.000000 -1.572114
  1   -1.093036 0.000002 -0.326057 -1.569708 -1.570379 -0.001236
  2   2.262337 0.113614 0.064702 -0.000052 0.000061 0.131363
  3   2.380047 0.353302 0.047440 -0.265923 0.048689 0.176508
  4   2.033756 0.190472 -0.000128 -0.261987 0.067090 0.243772
  5   2.451511 0.204909 -0.003447 -0.139451 -0.002120 -0.017422
  6   7.247600 -0.397300 -0.109469 0.000001 0.000033 0.052298
  7   -2.022252 -0.104661 3.136172 1.070165 -1.170888 -4.229592
  8   1.168026 -0.537438 -0.063437 -0.339329 0.434983 -0.638234
  9   6.790376 -0.619176 0.015206 -0.000213 -0.000151 -1.164087
 10   8.637599 0.544015 -0.090417 -4.300299 0.240886 0.178642
 11   6.790465 -0.619039 0.017802 0.000972 -0.011651 -0.830086
 12   -2.022474 -0.104699 -2.873818 0.298873 1.361829 -2.901697
 13   1.167898 -0.537463 0.063297 0.714399 -0.857289 -1.281854
 14   7.002743 -0.617765 -0.183752 0.000286 0.000250 -1.945396
 15   8.209042 0.615527 -0.255885 1.831745 -0.254128 1.079217
 16   7.002735 -0.617911 -0.183641 0.012979 0.010864 -1.380472
 17   1.574674 0.609930 -0.000899 0.701225 -0.325317 0.125844
 18   -0.602177 0.511412 -0.000006 0.000000 0.000000 0.000000
 19   3.673773 0.177020 1.119313 -0.000002 -0.000014 -0.174510
 20   3.673767 0.176993 -1.117566 0.000007 -0.000003 -0.174546
 21   3.942357 1.330634 1.627658 0.000002 -0.000011 -0.000026
 22   -0.246060 -0.011889 0.516521 -0.000011 0.000031 0.000025
 23   3.942374 1.330659 -1.631083 0.000019 0.000002 -0.000024
 24   -0.246150 -0.011872 -0.516511 -0.000005 -0.000006 0.000048
 25   4.941364 1.997338 1.629330 0.000018 0.261736 -0.000024
 26   4.941382 1.997366 -1.629410 -0.000001 -0.261744 -0.000024
 27   2.918368 1.615358 1.514501 -0.000019 -0.000022 -0.000050
 28   2.920798 1.614964 -1.501142 -0.000002 -0.000009 -0.000024
 29   8.824059 0.150544 0.091743 0.000006 -0.000231 -0.174534
 30   2.111085 -0.561179 1.784320 -0.000008 -0.000682 0.000024
 31   2.121290 -0.561289 -1.853599 0.000000 0.000000 -0.000002
 32   -0.810489 -0.093824 3.127092 3.071872 -0.114782 1.239365
 33   14.298673 -0.408176 0.475484 0.000248 0.000062 -1.896136
 34   15.835795 0.581398 0.242756 -0.214729 0.106889 -0.097869
 35   -0.815868 -0.091229 -3.114430 0.066464 3.132725 -1.010185
 36   14.294526 -0.410349 -0.463635 0.000033 -0.000000 -2.607695
 37   15.834409 0.579420 -0.284600 -0.006092 -0.035255 0.214458
 38   1.139685 -3.453749 -2.823813 0.000000 0.000000 0.000001
 39   -4.457742 -1.054854 -0.746180 0.000000 0.000000 0.000000
 40   1.118101 -3.449769 3.237290 0.000000 0.000001 0.000000
 41   -4.433840 -1.059130 0.959566 -0.000001 0.000000 0.000000
 42   -0.657468 1.697302 -2.688614 0.000000 0.000002 0.000000
 43   -0.664068 1.698578 2.869377 0.000000 0.000002 0.000000
end
