version 1
nodes
  0 "Bip01" -1
  1 "Bip01 Pelvis" 0
  2 "Bip01 Spine" 1
  3 "Bip01 Spine1" 2
  4 "Bip01 Spine2" 3
  5 "Bip01 Spine3" 4
  6 "Bip01 Neck" 5
  7 "Bip01 L Arm" 6
  8 "Bip01 L Arm1" 7
  9 "Bip01 L Arm2" 8
 10 "Bip01 L Hand" 9
 11 "Bip06 L elbow2-smooth" 8
 12 "Bip01 R Arm" 6
 13 "Bip01 R Arm1" 12
 14 "Bip01 R Arm2" 13
 15 "Bip01 R Hand" 14
 16 "Bip06 R elbow2-smooth" 13
 17 "Bip01 Head" 6
 18 "Bip06 Head_helper" 17
 19 "Bip06 Head_eyes_l" 18
 20 "Bip06 Head_eyes_r" 18
 21 "Bip06 Head_blink_l" 18
 22 "Bip06 Head_blink_smooth_l1" 21
 23 "Bip06 Head_blink_r" 18
 24 "Bip06 Head_blink_smooth_r1" 23
 25 "Bip06 Head_L_eyebrow" 18
 26 "Bip06 Head_R_eyebrow" 18
 27 "Bip06 Head_blink_l_lid" 18
 28 "Bip06 Head_blink_r_lid" 18
 29 "Bip06 bunny" 18
 30 "Bip06 bunnyL" 29
 31 "Bip06 bunnyR" 29
 32 "Bip01 L Leg" 1
 33 "Bip01 L Leg1" 32
 34 "Bip01 L Foot" 33
 35 "Bip01 R Leg" 1
 36 "Bip01 R Leg1" 35
 37 "Bip01 R Foot" 36
 38 "Bip03 HairR1" 17
 39 "Bip03 HairR2" 38
 40 "Bip03 HairL1" 17
 41 "Bip03 HairL2" 40
 42 "Bip03 swingR" 17
 43 "Bip03 swingL" 17
end
skeleton
time 0
  0   -0.967547 0.175787 -20.574476 0.000000 0.000000 -1.572114
  1   -1.093036 0.000002 -0.326057 -1.570757 -1.570379 -0.000171
  2   2.262337 0.113614 0.064702 -0.000052 0.000061 -0.051551
  3   2.380047 0.353302 0.047440 -0.255152 0.058373 0.219135
  4   2.033756 0.190472 -0.000128 -0.000010 0.000048 0.243881
  5   2.451511 0.204909 -0.003447 0.000000 -0.000005 0.252719
  6   7.247600 -0.397300 -0.109469 0.000001 0.000033 -0.209345
  7   -2.022252 -0.104661 3.136172 0.896949 -1.256502 -3.804821
  8   1.168026 -0.537438 -0.063437 -0.234283 0.940944 -0.606161
  9   6.790376 -0.619176 0.015206 -0.000213 -0.000352 -1.994456
 10   8.637599 0.544015 -0.090417 -1.174701 -0.597886 -0.222218
 11   6.790465 -0.619039 0.017802 0.004680 -0.011935 -1.411449
 12   -2.022474 -0.104699 -2.873818 -1.159215 1.101745 -4.048005
 13   1.167898 -0.537463 0.063297 0.101856 -0.751108 -0.224009
 14   7.002743 -0.617765 -0.183752 0.000286 0.000250 -1.961567
 15   8.209042 0.615527 -0.255885 1.666944 0.765006 -0.200505
 16   7.002735 -0.617911 -0.183641 0.012979 0.011033 -1.391732
 17   1.574674 0.609930 -0.000899 0.124988 -0.230413 0.551525
 18   -0.602177 0.511412 -0.000006 0.000000 0.000000 0.000000
 19   3.673773 0.177020 1.119313 -0.000002 -0.000014 -0.174510
 20   3.673767 0.176993 -1.117566 0.000007 -0.000003 -0.174546
 21   3.942357 1.330634 1.627658 0.000002 -0.000011 -0.000026
 22   -0.246060 -0.011889 0.516521 -0.000011 0.000031 0.000025
 23   3.942374 1.330659 -1.631083 0.000019 0.000002 -0.000024
 24   -0.246150 -0.011872 -0.516511 -0.000005 -0.000006 0.000048
 25   4.941364 1.997338 1.629330 0.000018 -0.000001 -0.000024
 26   4.941382 1.997366 -1.629410 -0.000001 0.000005 -0.000024
 27   2.918368 1.615358 1.514501 -0.000019 -0.000022 -0.000050
 28   2.920798 1.614964 -1.501142 -0.000002 -0.000009 -0.000024
 29   8.824059 0.150544 0.091743 0.000006 -0.000231 -0.174534
 30   2.111085 -0.561179 1.784320 -0.000008 -0.000682 0.000024
 31   2.121290 -0.561289 -1.853599 0.000000 0.000000 -0.000002
 32   -0.810489 -0.093824 3.127092 3.071872 -0.114782 1.239365
 33   14.298673 -0.408176 0.475484 0.000248 0.000062 -1.896136
 34   15.835795 0.581398 0.242756 -0.214729 0.106889 -0.097869
 35   -0.815868 -0.091229 -3.114430 0.066464 3.132725 -1.010185
 36   14.294526 -0.410349 -0.463635 0.000033 -0.000000 -2.607695
 37   15.834409 0.579420 -0.284600 -0.006092 -0.035255 0.214458
 38   1.139685 -3.453749 -2.823813 0.000000 0.000000 0.000001
 39   -4.457742 -1.054854 -0.746180 0.000000 0.000000 0.000000
 40   1.118101 -3.449769 3.237290 0.000000 0.000001 0.000000
 41   -4.433840 -1.059130 0.959566 -0.000001 0.000000 0.000000
 42   -0.657468 1.697302 -2.688614 0.000000 0.000002 0.000000
 43   -0.664068 1.698578 2.869377 0.000000 0.000002 0.000000
time 1
  0   -0.967547 0.175787 -20.574476 0.000000 0.000000 -1.572114
  1   -1.093036 0.000002 -0.326057 -1.570757 -1.570379 -0.000171
  2   2.262337 0.113614 0.064702 -0.000052 0.000061 -0.051551
  3   2.380047 0.353302 0.047440 -0.253547 0.065552 0.246744
  4   2.033756 0.190472 -0.000128 0.045156 -0.011194 0.243736
  5   2.451511 0.204909 -0.003447 0.000000 -0.000005 0.252719
  6   7.247600 -0.397300 -0.109469 0.000001 0.000033 -0.209345
  7   -2.022252 -0.104661 3.136172 0.896949 -1.256588 -3.804821
  8   1.168026 -0.537438 -0.063437 -0.507718 0.728165 -0.893806
  9   6.790376 -0.619176 0.015206 -0.000213 -0.000151 -1.574404
 10   8.637599 0.544015 -0.090417 -1.389403 -0.597886 -0.222218
 11   6.790465 -0.619039 0.017802 0.002753 -0.011850 -1.117307
 12   -2.022474 -0.104699 -2.873818 -1.159215 1.101745 -4.048005
 13   1.167898 -0.537463 0.063297 0.397091 -0.656572 -0.619180
 14   7.002743 -0.617765 -0.183752 0.000286 0.000250 -1.576597
 15   8.209042 0.615527 -0.255885 1.759051 0.701301 -0.119620
 16   7.002735 -0.617911 -0.183641 0.013591 0.008665 -1.122225
 17   1.574674 0.609930 -0.000899 0.092330 -0.196332 0.529865
 18   -0.602177 0.511412 -0.000006 0.000000 0.000000 0.000000
 19   3.673773 0.177020 1.119313 -0.000002 -0.000014 -0.174510
 20   3.673767 0.176993 -1.117566 0.000007 -0.000003 -0.174546
 21   3.942357 1.330634 1.627658 0.000002 -0.000011 -0.000026
 22   -0.246060 -0.011889 0.516521 -0.000011 0.000031 0.000025
 23   3.942374 1.330659 -1.631083 0.000019 0.000002 -0.000024
 24   -0.246150 -0.011872 -0.516511 -0.000005 -0.000006 0.000048
 25   4.941364 1.997338 1.629330 0.000018 -0.000001 -0.000024
 26   4.941382 1.997366 -1.629410 -0.000001 0.000005 -0.000024
 27   2.918368 1.615358 1.514501 -0.000019 -0.000022 -0.000050
 28   2.920798 1.614964 -1.501142 -0.000002 -0.000009 -0.000024
 29   8.824059 0.150544 0.091743 0.000006 -0.000231 -0.174534
 30   2.111085 -0.561179 1.784320 -0.000008 -0.000682 0.000024
 31   2.121290 -0.561289 -1.853599 0.000000 0.000000 -0.000002
 32   -0.810489 -0.093824 3.127092 3.071872 -0.114782 1.239365
 33   14.298673 -0.408176 0.475484 0.000248 0.000062 -1.896136
 34   15.835795 0.581398 0.242756 -0.214729 0.106889 -0.097869
 35   -0.815868 -0.091229 -3.114430 0.066464 3.132725 -1.010185
 36   14.294526 -0.410349 -0.463635 0.000033 -0.000000 -2.607695
 37   15.834409 0.579420 -0.284600 -0.006092 -0.035255 0.214458
 38   1.139685 -3.453749 -2.823813 0.000000 0.000000 0.000001
 39   -4.457742 -1.054854 -0.746180 0.000000 0.000000 0.000000
 40   1.118101 -3.449769 3.237290 0.000000 0.000001 0.000000
 41   -4.433840 -1.059130 0.959566 -0.000001 0.000000 0.000000
 42   -0.657468 1.697302 -2.688614 0.000000 0.000002 0.000000
 43   -0.664068 1.698578 2.869377 0.000000 0.000002 0.000000
time 2
  0   -0.967547 0.175787 -20.574476 0.000000 0.000000 -1.572114
  1   -1.093036 0.000002 -0.326057 -1.570757 -1.570379 -0.000171
  2   2.262337 0.113614 0.064702 -0.000052 0.000061 -0.051551
  3   2.380047 0.353302 0.047440 -0.251402 0.073414 0.277311
  4   2.033756 0.190472 -0.000128 0.095154 -0.023646 0.242721
  5   2.451511 0.204909 -0.003447 0.000000 -0.000005 0.252719
  6   7.247600 -0.397300 -0.109469 0.000001 0.000033 -0.209345
  7   -2.022252 -0.104661 3.136172 0.896949 -1.256502 -3.804821
  8   1.168026 -0.537438 -0.063437 -0.690029 0.460342 -1.102123
  9   6.790376 -0.619176 0.015206 -0.000213 -0.000151 -1.114203
 10   8.637599 0.544015 -0.090417 -1.624448 -0.597886 -0.222218
 11   6.790465 -0.619039 0.017802 0.000797 -0.011651 -0.795135
 12   -2.022474 -0.104699 -2.873818 -1.159215 1.101745 -4.048005
 13   1.167898 -0.537463 0.063297 0.607060 -0.456619 -0.952303
 14   7.002743 -0.617765 -0.183752 0.000229 0.000250 -1.157882
 15   8.209042 0.615527 -0.255885 1.847060 0.625717 -0.044088
 16   7.002735 -0.617911 -0.183641 0.014109 0.006353 -0.829096
 17   1.574674 0.609930 -0.000899 0.054472 -0.160714 0.505212
 18   -0.602177 0.511412 -0.000006 0.000000 0.000000 0.000000
 19   3.673773 0.177020 1.119313 -0.000002 -0.000014 -0.174510
 20   3.673767 0.176993 -1.117566 0.000007 -0.000003 -0.174546
 21   3.942357 1.330634 1.627658 0.000002 -0.000011 -0.000026
 22   -0.246060 -0.011889 0.516521 -0.000011 0.000031 0.000025
 23   3.942374 1.330659 -1.631083 0.000019 0.000002 -0.000024
 24   -0.246150 -0.011872 -0.516511 -0.000005 -0.000006 0.000048
 25   4.941364 1.997338 1.629330 0.000018 -0.000001 -0.000024
 26   4.941382 1.997366 -1.629410 -0.000001 0.000005 -0.000024
 27   2.918368 1.615358 1.514501 -0.000019 -0.000022 -0.000050
 28   2.920798 1.614964 -1.501142 -0.000002 -0.000009 -0.000024
 29   8.824059 0.150544 0.091743 0.000006 -0.000231 -0.174534
 30   2.111085 -0.561179 1.784320 -0.000008 -0.000682 0.000024
 31   2.121290 -0.561289 -1.853599 0.000000 0.000000 -0.000002
 32   -0.810489 -0.093824 3.127092 3.071872 -0.114782 1.239365
 33   14.298673 -0.408176 0.475484 0.000248 0.000062 -1.896136
 34   15.835795 0.581398 0.242756 -0.214729 0.106889 -0.097869
 35   -0.815868 -0.091229 -3.114430 0.066464 3.132725 -1.010185
 36   14.294526 -0.410349 -0.463635 0.000033 -0.000000 -2.607695
 37   15.834409 0.579420 -0.284600 -0.006092 -0.035255 0.214458
 38   1.139685 -3.453749 -2.823813 0.000000 0.000000 0.000001
 39   -4.457742 -1.054854 -0.746180 0.000000 0.000000 0.000000
 40   1.118101 -3.449769 3.237290 0.000000 0.000001 0.000000
 41   -4.433840 -1.059130 0.959566 -0.000001 0.000000 0.000000
 42   -0.657468 1.697302 -2.688614 0.000000 0.000002 0.000000
 43   -0.664068 1.698578 2.869377 0.000000 0.000002 0.000000
time 3
  0   -0.967547 0.175787 -20.574476 0.000000 0.000000 -1.572114
  1   -1.093036 0.000002 -0.326057 -1.570757 -1.570379 -0.000171
  2   2.262337 0.113614 0.064702 -0.000052 0.000061 -0.051551
  3   2.380047 0.353302 0.047440 -0.249452 0.079634 0.302043
  4   2.033756 0.190472 -0.000128 0.135654 -0.033749 0.241561
  5   2.451511 0.204909 -0.003447 0.000000 -0.000005 0.252719
  6   7.247600 -0.397300 -0.109469 0.000001 0.000033 -0.209345
  7   -2.022252 -0.104661 3.136172 0.896949 -1.256588 -3.804821
  8   1.168026 -0.537438 -0.063437 -0.791278 0.234531 -1.221875
  9   6.790376 -0.619176 0.015206 -0.000213 -0.000151 -0.734451
 10   8.637599 0.544015 -0.090417 -1.817134 -0.597886 -0.222218
 11   6.790465 -0.619039 0.017802 -0.000721 -0.011395 -0.529369
 12   -2.022474 -0.104699 -2.873818 -1.159215 1.101745 -4.048005
 13   1.167898 -0.537463 0.063297 0.699356 -0.251020 -1.161390
 14   7.002743 -0.617765 -0.183752 0.000229 0.000250 -0.807069
 15   8.209042 0.615527 -0.255885 1.910838 0.560044 0.008653
 16   7.002735 -0.617911 -0.183641 0.014392 0.004492 -0.583599
 17   1.574674 0.609930 -0.000899 0.022382 -0.133520 0.484551
 18   -0.602177 0.511412 -0.000006 0.000000 0.000000 0.000000
 19   3.673773 0.177020 1.119313 -0.000002 -0.000014 -0.174510
 20   3.673767 0.176993 -1.117566 0.000007 -0.000003 -0.174546
 21   3.942357 1.330634 1.627658 0.000002 -0.000011 -0.000026
 22   -0.246060 -0.011889 0.516521 -0.000011 0.000031 0.000025
 23   3.942374 1.330659 -1.631083 0.000019 0.000002 -0.000024
 24   -0.246150 -0.011872 -0.516511 -0.000005 -0.000006 0.000048
 25   4.941364 1.997338 1.629330 0.000018 -0.000001 -0.000024
 26   4.941382 1.997366 -1.629410 -0.000001 0.000005 -0.000024
 27   2.918368 1.615358 1.514501 -0.000019 -0.000022 -0.000050
 28   2.920798 1.614964 -1.501142 -0.000002 -0.000009 -0.000024
 29   8.824059 0.150544 0.091743 0.000006 -0.000231 -0.174534
 30   2.111085 -0.561179 1.784320 -0.000008 -0.000682 0.000024
 31   2.121290 -0.561289 -1.853599 0.000000 0.000000 -0.000002
 32   -0.810489 -0.093824 3.127092 3.071872 -0.114782 1.239365
 33   14.298673 -0.408176 0.475484 0.000248 0.000062 -1.896136
 34   15.835795 0.581398 0.242756 -0.214729 0.106889 -0.097869
 35   -0.815868 -0.091229 -3.114430 0.066464 3.132725 -1.010185
 36   14.294526 -0.410349 -0.463635 0.000033 -0.000000 -2.607695
 37   15.834409 0.579420 -0.284600 -0.006092 -0.035255 0.214458
 38   1.139685 -3.453749 -2.823813 0.000000 0.000000 0.000001
 39   -4.457742 -1.054854 -0.746180 0.000000 0.000000 0.000000
 40   1.118101 -3.449769 3.237290 0.000000 0.000001 0.000000
 41   -4.433840 -1.059130 0.959566 -0.000001 0.000000 0.000000
 42   -0.657468 1.697302 -2.688614 0.000000 0.000002 0.000000
 43   -0.664068 1.698578 2.869377 0.000000 0.000002 0.000000
time 4
  0   -0.967547 0.175787 -20.574476 0.000000 0.000000 -1.572114
  1   -1.093036 0.000002 -0.326057 -1.570757 -1.570379 -0.000171
  2   2.262337 0.113614 0.064702 -0.000052 0.000061 -0.051551
  3   2.380047 0.353302 0.047440 -0.248657 0.082174 0.312266
  4   2.033756 0.190472 -0.000128 0.152326 -0.037727 0.240981
  5   2.451511 0.204909 -0.003447 0.000000 -0.000005 0.252719
  6   7.247600 -0.397300 -0.109469 0.000001 0.000033 -0.209345
  7   -2.022252 -0.104661 3.136172 0.896949 -1.256502 -3.804821
  8   1.168026 -0.537438 -0.063437 -0.830005 0.146028 -1.246420
  9   6.790376 -0.619176 0.015206 -0.000213 -0.000151 -0.557027
 10   8.637599 0.544015 -0.090417 -1.906168 -0.597886 -0.222218
 11   6.790465 -0.619039 0.017802 -0.001422 -0.011196 -0.405022
 12   -2.022474 -0.104699 -2.873818 -1.159215 1.101745 -4.048005
 13   1.167898 -0.537463 0.063297 0.730004 -0.148246 -1.243596
 14   7.002743 -0.617765 -0.183752 0.000229 0.000250 -0.624567
 15   8.209042 0.615527 -0.255885 1.937945 0.529327 0.030603
 16   7.002735 -0.617911 -0.183641 0.014486 0.003590 -0.455883
 17   1.574674 0.609930 -0.000899 0.008815 -0.122634 0.475976
 18   -0.602177 0.511412 -0.000006 0.000000 0.000000 0.000000
 19   3.673773 0.177020 1.119313 -0.000002 -0.000014 -0.174510
 20   3.673767 0.176993 -1.117566 0.000007 -0.000003 -0.174546
 21   3.942357 1.330634 1.627658 0.000002 -0.000011 -0.000026
 22   -0.246060 -0.011889 0.516521 -0.000011 0.000031 0.000025
 23   3.942374 1.330659 -1.631083 0.000019 0.000002 -0.000024
 24   -0.246150 -0.011872 -0.516511 -0.000005 -0.000006 0.000048
 25   4.941364 1.997338 1.629330 0.000018 -0.000001 -0.000024
 26   4.941382 1.997366 -1.629410 -0.000001 0.000005 -0.000024
 27   2.918368 1.615358 1.514501 -0.000019 -0.000022 -0.000050
 28   2.920798 1.614964 -1.501142 -0.000002 -0.000009 -0.000024
 29   8.824059 0.150544 0.091743 0.000006 -0.000231 -0.174534
 30   2.111085 -0.561179 1.784320 -0.000008 -0.000682 0.000024
 31   2.121290 -0.561289 -1.853599 0.000000 0.000000 -0.000002
 32   -0.810489 -0.093824 3.127092 3.071872 -0.114782 1.239365
 33   14.298673 -0.408176 0.475484 0.000248 0.000062 -1.896136
 34   15.835795 0.581398 0.242756 -0.214729 0.106889 -0.097869
 35   -0.815868 -0.091229 -3.114430 0.066464 3.132725 -1.010185
 36   14.294526 -0.410349 -0.463635 0.000033 -0.000000 -2.607695
 37   15.834409 0.579420 -0.284600 -0.006092 -0.035255 0.214458
 38   1.139685 -3.453749 -2.823813 0.000000 0.000000 0.000001
 39   -4.457742 -1.054854 -0.746180 0.000000 0.000000 0.000000
 40   1.118101 -3.449769 3.237290 0.000000 0.000001 0.000000
 41   -4.433840 -1.059130 0.959566 -0.000001 0.000000 0.000000
 42   -0.657468 1.697302 -2.688614 0.000000 0.000002 0.000000
 43   -0.664068 1.698578 2.869377 0.000000 0.000002 0.000000
time 5
  0   -0.967547 0.175787 -20.574476 0.000000 0.000000 -1.572114
  1   -1.093036 0.000002 -0.326057 -1.570757 -1.570379 -0.000171
  2   2.262337 0.113614 0.064702 -0.000052 0.000061 -0.051551
  3   2.380047 0.353302 0.047440 -0.248852 0.081635 0.309511
  4   2.033756 0.190472 -0.000128 0.147844 -0.036769 0.241126
  5   2.451511 0.204909 -0.003447 0.000000 -0.000005 0.252719
  6   7.247600 -0.397300 -0.109469 0.000001 0.000033 -0.209345
  7   -2.022252 -0.104661 3.136172 0.896949 -1.256502 -3.804821
  8   1.168026 -0.537438 -0.063437 -0.818045 0.206707 -1.179427
  9   6.790376 -0.619176 0.015206 -0.000213 -0.000151 -0.587742
 10   8.637599 0.544015 -0.090417 -1.886441 -0.597886 -0.222218
 11   6.790465 -0.619039 0.017802 -0.001276 -0.011253 -0.426477
 12   -2.022474 -0.104699 -2.873818 -1.159215 1.101745 -4.048005
 13   1.167898 -0.537463 0.063297 0.750249 -0.163044 -1.218474
 14   7.002743 -0.617765 -0.183752 0.000229 0.000250 -0.608066
 15   8.209042 0.615527 -0.255885 1.932050 0.536136 0.025852
 16   7.002735 -0.617911 -0.183641 0.014486 0.003477 -0.444292
 17   1.574674 0.609930 -0.000899 0.012592 -0.125545 0.478379
 18   -0.602177 0.511412 -0.000006 0.000000 0.000000 0.000000
 19   3.673773 0.177020 1.119313 -0.000002 -0.000014 -0.174510
 20   3.673767 0.176993 -1.117566 0.000007 -0.000003 -0.174546
 21   3.942357 1.330634 1.627658 0.000002 -0.000011 -0.000026
 22   -0.246060 -0.011889 0.516521 -0.000011 0.000031 0.000025
 23   3.942374 1.330659 -1.631083 0.000019 0.000002 -0.000024
 24   -0.246150 -0.011872 -0.516511 -0.000005 -0.000006 0.000048
 25   4.941364 1.997338 1.629330 0.000018 -0.000001 -0.000024
 26   4.941382 1.997366 -1.629410 -0.000001 0.000005 -0.000024
 27   2.918368 1.615358 1.514501 -0.000019 -0.000022 -0.000050
 28   2.920798 1.614964 -1.501142 -0.000002 -0.000009 -0.000024
 29   8.824059 0.150544 0.091743 0.000006 -0.000231 -0.174534
 30   2.111085 -0.561179 1.784320 -0.000008 -0.000682 0.000024
 31   2.121290 -0.561289 -1.853599 0.000000 0.000000 -0.000002
 32   -0.810489 -0.093824 3.127092 3.071872 -0.114782 1.239365
 33   14.298673 -0.408176 0.475484 0.000248 0.000062 -1.896136
 34   15.835795 0.581398 0.242756 -0.214729 0.106889 -0.097869
 35   -0.815868 -0.091229 -3.114430 0.066464 3.132725 -1.010185
 36   14.294526 -0.410349 -0.463635 0.000033 -0.000000 -2.607695
 37   15.834409 0.579420 -0.284600 -0.006092 -0.035255 0.214458
 38   1.139685 -3.453749 -2.823813 0.000000 0.000000 0.000001
 39   -4.457742 -1.054854 -0.746180 0.000000 0.000000 0.000000
 40   1.118101 -3.449769 3.237290 0.000000 0.000001 0.000000
 41   -4.433840 -1.059130 0.959566 -0.000001 0.000000 0.000000
 42   -0.657468 1.697302 -2.688614 0.000000 0.000002 0.000000
 43   -0.664068 1.698578 2.869377 0.000000 0.000002 0.000000
time 6
  0   -0.967547 0.175787 -20.574476 0.000000 0.000000 -1.572114
  1   -1.093036 0.000002 -0.326057 -1.570757 -1.570379 -0.000171
  2   2.262337 0.113614 0.064702 -0.000052 0.000061 -0.051551
  3   2.380047 0.353302 0.047440 -0.249452 0.079634 0.302043
  4   2.033756 0.190472 -0.000128 0.135654 -0.033749 0.241561
  5   2.451511 0.204909 -0.003447 0.000000 -0.000005 0.252719
  6   7.247600 -0.397300 -0.109469 0.000001 0.000033 -0.209345
  7   -2.022252 -0.104661 3.136172 0.896949 -1.256588 -3.804821
  8   1.168026 -0.537438 -0.063437 -0.764194 0.344870 -1.052906
  9   6.790376 -0.619176 0.015206 -0.000213 -0.000151 -0.728338
 10   8.637599 0.544015 -0.090417 -1.810001 -0.597886 -0.222218
 11   6.790465 -0.619039 0.017802 -0.000721 -0.011310 -0.524928
 12   -2.022474 -0.104699 -2.873818 -1.159215 1.101745 -4.048005
 13   1.167898 -0.537463 0.063297 0.766487 -0.237951 -1.135360
 14   7.002743 -0.617765 -0.183752 0.000229 0.000250 -0.672915
 15   8.209042 0.615527 -0.255885 1.908465 0.562692 0.006849
 16   7.002735 -0.617911 -0.183641 0.014486 0.003759 -0.489661
 17   1.574674 0.609930 -0.000899 0.022382 -0.133520 0.484551
 18   -0.602177 0.511412 -0.000006 0.000000 0.000000 0.000000
 19   3.673773 0.177020 1.119313 -0.000002 -0.000014 -0.174510
 20   3.673767 0.176993 -1.117566 0.000007 -0.000003 -0.174546
 21   3.942357 1.330634 1.627658 0.000002 -0.000011 -0.000026
 22   -0.246060 -0.011889 0.516521 -0.000011 0.000031 0.000025
 23   3.942374 1.330659 -1.631083 0.000019 0.000002 -0.000024
 24   -0.246150 -0.011872 -0.516511 -0.000005 -0.000006 0.000048
 25   4.941364 1.997338 1.629330 0.000018 -0.000001 -0.000024
 26   4.941382 1.997366 -1.629410 -0.000001 0.000005 -0.000024
 27   2.918368 1.615358 1.514501 -0.000019 -0.000022 -0.000050
 28   2.920798 1.614964 -1.501142 -0.000002 -0.000009 -0.000024
 29   8.824059 0.150544 0.091743 0.000006 -0.000231 -0.174534
 30   2.111085 -0.561179 1.784320 -0.000008 -0.000682 0.000024
 31   2.121290 -0.561289 -1.853599 0.000000 0.000000 -0.000002
 32   -0.810489 -0.093824 3.127092 3.071872 -0.114782 1.239365
 33   14.298673 -0.408176 0.475484 0.000248 0.000062 -1.896136
 34   15.835795 0.581398 0.242756 -0.214729 0.106889 -0.097869
 35   -0.815868 -0.091229 -3.114430 0.066464 3.132725 -1.010185
 36   14.294526 -0.410349 -0.463635 0.000033 -0.000000 -2.607695
 37   15.834409 0.579420 -0.284600 -0.006092 -0.035255 0.214458
 38   1.139685 -3.453749 -2.823813 0.000000 0.000000 0.000001
 39   -4.457742 -1.054854 -0.746180 0.000000 0.000000 0.000000
 40   1.118101 -3.449769 3.237290 0.000000 0.000001 0.000000
 41   -4.433840 -1.059130 0.959566 -0.000001 0.000000 0.000000
 42   -0.657468 1.697302 -2.688614 0.000000 0.000002 0.000000
 43   -0.664068 1.698578 2.869377 0.000000 0.000002 0.000000
time 7
  0   -0.967547 0.175787 -20.574476 0.000000 0.000000 -1.572114
  1   -1.093036 0.000002 -0.326057 -1.570757 -1.570379 -0.000171
  2   2.262337 0.113614 0.064702 -0.000052 0.000061 -0.051551
  3   2.380047 0.353302 0.047440 -0.250322 0.076757 0.290983
  4   2.033756 0.190472 -0.000128 0.117451 -0.029110 0.242177
  5   2.451511 0.204909 -0.003447 0.000000 -0.000005 0.252719
  6   7.247600 -0.397300 -0.109469 0.000001 0.000033 -0.209345
  7   -2.022252 -0.104661 3.136172 0.896949 -1.256502 -3.804821
  8   1.168026 -0.537438 -0.063437 -0.655731 0.520065 -0.875587
  9   6.790376 -0.619176 0.015206 -0.000213 -0.000151 -0.939949
 10   8.637599 0.544015 -0.090417 -1.696045 -0.597886 -0.222218
 11   6.790465 -0.619039 0.017802 0.000067 -0.011452 -0.673095
 12   -2.022474 -0.104699 -2.873818 -1.159215 1.101745 -4.048005
 13   1.167898 -0.537463 0.063297 0.761988 -0.352828 -1.010477
 14   7.002743 -0.617765 -0.183752 0.000229 0.000250 -0.797416
 15   8.209042 0.615527 -0.255885 1.871723 0.601506 -0.023280
 16   7.002735 -0.617911 -0.183641 0.014392 0.004436 -0.576865
 17   1.574674 0.609930 -0.000899 0.036883 -0.145520 0.494013
 18   -0.602177 0.511412 -0.000006 0.000000 0.000000 0.000000
 19   3.673773 0.177020 1.119313 -0.000002 -0.000014 -0.174510
 20   3.673767 0.176993 -1.117566 0.000007 -0.000003 -0.174546
 21   3.942357 1.330634 1.627658 0.000002 -0.000011 -0.000026
 22   -0.246060 -0.011889 0.516521 -0.000011 0.000031 0.000025
 23   3.942374 1.330659 -1.631083 0.000019 0.000002 -0.000024
 24   -0.246150 -0.011872 -0.516511 -0.000005 -0.000006 0.000048
 25   4.941364 1.997338 1.629330 0.000018 -0.000001 -0.000024
 26   4.941382 1.997366 -1.629410 -0.000001 0.000005 -0.000024
 27   2.918368 1.615358 1.514501 -0.000019 -0.000022 -0.000050
 28   2.920798 1.614964 -1.501142 -0.000002 -0.000009 -0.000024
 29   8.824059 0.150544 0.091743 0.000006 -0.000231 -0.174534
 30   2.111085 -0.561179 1.784320 -0.000008 -0.000682 0.000024
 31   2.121290 -0.561289 -1.853599 0.000000 0.000000 -0.000002
 32   -0.810489 -0.093824 3.127092 3.071872 -0.114782 1.239365
 33   14.298673 -0.408176 0.475484 0.000248 0.000062 -1.896136
 34   15.835795 0.581398 0.242756 -0.214729 0.106889 -0.097869
 35   -0.815868 -0.091229 -3.114430 0.066464 3.132725 -1.010185
 36   14.294526 -0.410349 -0.463635 0.000033 -0.000000 -2.607695
 37   15.834409 0.579420 -0.284600 -0.006092 -0.035255 0.214458
 38   1.139685 -3.453749 -2.823813 0.000000 0.000000 0.000001
 39   -4.457742 -1.054854 -0.746180 0.000000 0.000000 0.000000
 40   1.118101 -3.449769 3.237290 0.000000 0.000001 0.000000
 41   -4.433840 -1.059130 0.959566 -0.000001 0.000000 0.000000
 42   -0.657468 1.697302 -2.688614 0.000000 0.000002 0.000000
 43   -0.664068 1.698578 2.869377 0.000000 0.000002 0.000000
time 8
  0   -0.967547 0.175787 -20.574476 0.000000 0.000000 -1.572114
  1   -1.093036 0.000002 -0.326057 -1.570757 -1.570379 -0.000171
  2   2.262337 0.113614 0.064702 -0.000052 0.000061 -0.051551
  3   2.380047 0.353302 0.047440 -0.251402 0.073414 0.277311
  4   2.033756 0.190472 -0.000128 0.095154 -0.023646 0.242721
  5   2.451511 0.204909 -0.003447 0.000000 -0.000005 0.252719
  6   7.247600 -0.397300 -0.109469 0.000001 0.000033 -0.209345
  7   -2.022252 -0.104661 3.136172 0.896949 -1.256502 -3.804821
  8   1.168026 -0.537438 -0.063437 -0.484051 0.690580 -0.651076
  9   6.790376 -0.619176 0.015206 -0.000213 -0.000151 -1.186501
 10   8.637599 0.544015 -0.090417 -1.565621 -0.597886 -0.222218
 11   6.790465 -0.619039 0.017802 0.001089 -0.011651 -0.845831
 12   -2.022474 -0.104699 -2.873818 -1.159215 1.101745 -4.048005
 13   1.167898 -0.537463 0.063297 0.721288 -0.483571 -0.856113
 14   7.002743 -0.617765 -0.183752 0.000229 0.000250 -0.960529
 15   8.209042 0.615527 -0.255885 1.826137 0.645313 -0.061888
 16   7.002735 -0.617911 -0.183641 0.014250 0.005338 -0.691004
 17   1.574674 0.609930 -0.000899 0.054472 -0.160714 0.505212
 18   -0.602177 0.511412 -0.000006 0.000000 0.000000 0.000000
 19   3.673773 0.177020 1.119313 -0.000002 -0.000014 -0.174510
 20   3.673767 0.176993 -1.117566 0.000007 -0.000003 -0.174546
 21   3.942357 1.330634 1.627658 0.000002 -0.000011 -0.000026
 22   -0.246060 -0.011889 0.516521 -0.000011 0.000031 0.000025
 23   3.942374 1.330659 -1.631083 0.000019 0.000002 -0.000024
 24   -0.246150 -0.011872 -0.516511 -0.000005 -0.000006 0.000048
 25   4.941364 1.997338 1.629330 0.000018 -0.000001 -0.000024
 26   4.941382 1.997366 -1.629410 -0.000001 0.000005 -0.000024
 27   2.918368 1.615358 1.514501 -0.000019 -0.000022 -0.000050
 28   2.920798 1.614964 -1.501142 -0.000002 -0.000009 -0.000024
 29   8.824059 0.150544 0.091743 0.000006 -0.000231 -0.174534
 30   2.111085 -0.561179 1.784320 -0.000008 -0.000682 0.000024
 31   2.121290 -0.561289 -1.853599 0.000000 0.000000 -0.000002
 32   -0.810489 -0.093824 3.127092 3.071872 -0.114782 1.239365
 33   14.298673 -0.408176 0.475484 0.000248 0.000062 -1.896136
 34   15.835795 0.581398 0.242756 -0.214729 0.106889 -0.097869
 35   -0.815868 -0.091229 -3.114430 0.066464 3.132725 -1.010185
 36   14.294526 -0.410349 -0.463635 0.000033 -0.000000 -2.607695
 37   15.834409 0.579420 -0.284600 -0.006092 -0.035255 0.214458
 38   1.139685 -3.453749 -2.823813 0.000000 0.000000 0.000001
 39   -4.457742 -1.054854 -0.746180 0.000000 0.000000 0.000000
 40   1.118101 -3.449769 3.237290 0.000000 0.000001 0.000000
 41   -4.433840 -1.059130 0.959566 -0.000001 0.000000 0.000000
 42   -0.657468 1.697302 -2.688614 0.000000 0.000002 0.000000
 43   -0.664068 1.698578 2.869377 0.000000 0.000002 0.000000
time 9
  0   -0.967547 0.175787 -20.574476 0.000000 0.000000 -1.572114
  1   -1.093036 0.000002 -0.326057 -1.570757 -1.570379 -0.000171
  2   2.262337 0.113614 0.064702 -0.000052 0.000061 -0.051551
  3   2.380047 0.353302 0.047440 -0.252512 0.069531 0.262252
  4   2.033756 0.190472 -0.000128 0.070441 -0.017426 0.243301
  5   2.451511 0.204909 -0.003447 0.000000 -0.000005 0.252719
  6   7.247600 -0.397300 -0.109469 0.000001 0.000033 -0.209345
  7   -2.022252 -0.104661 3.136172 0.896949 -1.256502 -3.804821
  8   1.168026 -0.537438 -0.063437 -0.263835 0.821196 -0.400881
  9   6.790376 -0.619176 0.015206 -0.000213 -0.000151 -1.429808
 10   8.637599 0.544015 -0.090417 -1.435549 -0.597886 -0.222218
 11   6.790465 -0.619039 0.017802 0.002111 -0.011793 -1.016029
 12   -2.022474 -0.104699 -2.873818 -1.159215 1.101745 -4.048005
 13   1.167898 -0.537463 0.063297 0.637427 -0.603685 -0.682318
 14   7.002743 -0.617765 -0.183752 0.000229 0.000250 -1.141051
 15   8.209042 0.615527 -0.255885 1.777314 0.686850 -0.103744
 16   7.002735 -0.617911 -0.183641 0.014109 0.006240 -0.817340
 17   1.574674 0.609930 -0.000899 0.073401 -0.178109 0.517594
 18   -0.602177 0.511412 -0.000006 0.000000 0.000000 0.000000
 19   3.673773 0.177020 1.119313 -0.000002 -0.000014 -0.174510
 20   3.673767 0.176993 -1.117566 0.000007 -0.000003 -0.174546
 21   3.942357 1.330634 1.627658 0.000002 -0.000011 -0.000026
 22   -0.246060 -0.011889 0.516521 -0.000011 0.000031 0.000025
 23   3.942374 1.330659 -1.631083 0.000019 0.000002 -0.000024
 24   -0.246150 -0.011872 -0.516511 -0.000005 -0.000006 0.000048
 25   4.941364 1.997338 1.629330 0.000018 -0.000001 -0.000024
 26   4.941382 1.997366 -1.629410 -0.000001 0.000005 -0.000024
 27   2.918368 1.615358 1.514501 -0.000019 -0.000022 -0.000050
 28   2.920798 1.614964 -1.501142 -0.000002 -0.000009 -0.000024
 29   8.824059 0.150544 0.091743 0.000006 -0.000231 -0.174534
 30   2.111085 -0.561179 1.784320 -0.000008 -0.000682 0.000024
 31   2.121290 -0.561289 -1.853599 0.000000 0.000000 -0.000002
 32   -0.810489 -0.093824 3.127092 3.071872 -0.114782 1.239365
 33   14.298673 -0.408176 0.475484 0.000248 0.000062 -1.896136
 34   15.835795 0.581398 0.242756 -0.214729 0.106889 -0.097869
 35   -0.815868 -0.091229 -3.114430 0.066464 3.132725 -1.010185
 36   14.294526 -0.410349 -0.463635 0.000033 -0.000000 -2.607695
 37   15.834409 0.579420 -0.284600 -0.006092 -0.035255 0.214458
 38   1.139685 -3.453749 -2.823813 0.000000 0.000000 0.000001
 39   -4.457742 -1.054854 -0.746180 0.000000 0.000000 0.000000
 40   1.118101 -3.449769 3.237290 0.000000 0.000001 0.000000
 41   -4.433840 -1.059130 0.959566 -0.000001 0.000000 0.000000
 42   -0.657468 1.697302 -2.688614 0.000000 0.000002 0.000000
 43   -0.664068 1.698578 2.869377 0.000000 0.000002 0.000000
time 10
  0   -0.967547 0.175787 -20.574476 0.000000 0.000000 -1.572114
  1   -1.093036 0.000002 -0.326057 -1.570757 -1.570379 -0.000171
  2   2.262337 0.113614 0.064702 -0.000052 0.000061 -0.051551
  3   2.380047 0.353302 0.047440 -0.253547 0.065552 0.246744
  4   2.033756 0.190472 -0.000128 0.045156 -0.011194 0.243736
  5   2.451511 0.204909 -0.003447 0.000000 -0.000005 0.252719
  6   7.247600 -0.397300 -0.109469 0.000001 0.000033 -0.209345
  7   -2.022252 -0.104661 3.136172 0.896949 -1.256588 -3.804821
  8   1.168026 -0.537438 -0.063437 -0.059439 0.901548 -0.194336
  9   6.790376 -0.619176 0.015206 -0.000213 -0.000151 -1.632363
 10   8.637599 0.544015 -0.090417 -1.326789 -0.597886 -0.222218
 11   6.790465 -0.619039 0.017802 0.003016 -0.011850 -1.157910
 12   -2.022474 -0.104699 -2.873818 -1.159215 1.101745 -4.048005
 13   1.167898 -0.537463 0.063297 0.521020 -0.690542 -0.512639
 14   7.002743 -0.617765 -0.183752 0.000229 0.000250 -1.317365
 15   8.209042 0.615527 -0.255885 1.733454 0.720367 -0.141811
 16   7.002735 -0.617911 -0.183641 0.013921 0.007255 -0.940696
 17   1.574674 0.609930 -0.000899 0.092330 -0.196332 0.529865
 18   -0.602177 0.511412 -0.000006 0.000000 0.000000 0.000000
 19   3.673773 0.177020 1.119313 -0.000002 -0.000014 -0.174510
 20   3.673767 0.176993 -1.117566 0.000007 -0.000003 -0.174546
 21   3.942357 1.330634 1.627658 0.000002 -0.000011 -0.000026
 22   -0.246060 -0.011889 0.516521 -0.000011 0.000031 0.000025
 23   3.942374 1.330659 -1.631083 0.000019 0.000002 -0.000024
 24   -0.246150 -0.011872 -0.516511 -0.000005 -0.000006 0.000048
 25   4.941364 1.997338 1.629330 0.000018 -0.000001 -0.000024
 26   4.941382 1.997366 -1.629410 -0.000001 0.000005 -0.000024
 27   2.918368 1.615358 1.514501 -0.000019 -0.000022 -0.000050
 28   2.920798 1.614964 -1.501142 -0.000002 -0.000009 -0.000024
 29   8.824059 0.150544 0.091743 0.000006 -0.000231 -0.174534
 30   2.111085 -0.561179 1.784320 -0.000008 -0.000682 0.000024
 31   2.121290 -0.561289 -1.853599 0.000000 0.000000 -0.000002
 32   -0.810489 -0.093824 3.127092 3.071872 -0.114782 1.239365
 33   14.298673 -0.408176 0.475484 0.000248 0.000062 -1.896136
 34   15.835795 0.581398 0.242756 -0.214729 0.106889 -0.097869
 35   -0.815868 -0.091229 -3.114430 0.066464 3.132725 -1.010185
 36   14.294526 -0.410349 -0.463635 0.000033 -0.000000 -2.607695
 37   15.834409 0.579420 -0.284600 -0.006092 -0.035255 0.214458
 38   1.139685 -3.453749 -2.823813 0.000000 0.000000 0.000001
 39   -4.457742 -1.054854 -0.746180 0.000000 0.000000 0.000000
 40   1.118101 -3.449769 3.237290 0.000000 0.000001 0.000000
 41   -4.433840 -1.059130 0.959566 -0.000001 0.000000 0.000000
 42   -0.657468 1.697302 -2.688614 0.000000 0.000002 0.000000
 43   -0.664068 1.698578 2.869377 0.000000 0.000002 0.000000
time 11
  0   -0.967547 0.175787 -20.574476 0.000000 0.000000 -1.572114
  1   -1.093036 0.000002 -0.326057 -1.570757 -1.570379 -0.000171
  2   2.262337 0.113614 0.064702 -0.000052 0.000061 -0.051551
  3   2.380047 0.353302 0.047440 -0.254402 0.061729 0.232011
  4   2.033756 0.190472 -0.000128 0.021070 -0.005069 0.243772
  5   2.451511 0.204909 -0.003447 0.000000 -0.000005 0.252719
  6   7.247600 -0.397300 -0.109469 0.000001 0.000033 -0.209345
  7   -2.022252 -0.104661 3.136172 0.896949 -1.256502 -3.804821
  8   1.168026 -0.537438 -0.063437 -0.126390 0.955988 -0.397971
  9   6.790376 -0.619176 0.015206 -0.000213 -0.000151 -1.780581
 10   8.637599 0.544015 -0.090417 -1.246738 -0.597886 -0.222218
 11   6.790465 -0.619039 0.017802 0.003658 -0.011907 -1.261667
 12   -2.022474 -0.104699 -2.873818 -1.159215 1.101745 -4.048005
 13   1.167898 -0.537463 0.063297 0.334108 -0.736768 -0.368082
 14   7.002743 -0.617765 -0.183752 0.000286 0.000250 -1.600606
 15   8.209042 0.615527 -0.255885 1.699300 0.744200 -0.171759
 16   7.002735 -0.617911 -0.183641 0.013544 0.008834 -1.139114
 17   1.574674 0.609930 -0.000899 0.109877 -0.214272 0.541508
 18   -0.602177 0.511412 -0.000006 0.000000 0.000000 0.000000
 19   3.673773 0.177020 1.119313 -0.000002 -0.000014 -0.174510
 20   3.673767 0.176993 -1.117566 0.000007 -0.000003 -0.174546
 21   3.942357 1.330634 1.627658 0.000002 -0.000011 -0.000026
 22   -0.246060 -0.011889 0.516521 -0.000011 0.000031 0.000025
 23   3.942374 1.330659 -1.631083 0.000019 0.000002 -0.000024
 24   -0.246150 -0.011872 -0.516511 -0.000005 -0.000006 0.000048
 25   4.941364 1.997338 1.629330 0.000018 -0.000001 -0.000024
 26   4.941382 1.997366 -1.629410 -0.000001 0.000005 -0.000024
 27   2.918368 1.615358 1.514501 -0.000019 -0.000022 -0.000050
 28   2.920798 1.614964 -1.501142 -0.000002 -0.000009 -0.000024
 29   8.824059 0.150544 0.091743 0.000006 -0.000231 -0.174534
 30   2.111085 -0.561179 1.784320 -0.000008 -0.000682 0.000024
 31   2.121290 -0.561289 -1.853599 0.000000 0.000000 -0.000002
 32   -0.810489 -0.093824 3.127092 3.071872 -0.114782 1.239365
 33   14.298673 -0.408176 0.475484 0.000248 0.000062 -1.896136
 34   15.835795 0.581398 0.242756 -0.214729 0.106889 -0.097869
 35   -0.815868 -0.091229 -3.114430 0.066464 3.132725 -1.010185
 36   14.294526 -0.410349 -0.463635 0.000033 -0.000000 -2.607695
 37   15.834409 0.579420 -0.284600 -0.006092 -0.035255 0.214458
 38   1.139685 -3.453749 -2.823813 0.000000 0.000000 0.000001
 39   -4.457742 -1.054854 -0.746180 0.000000 0.000000 0.000000
 40   1.118101 -3.449769 3.237290 0.000000 0.000001 0.000000
 41   -4.433840 -1.059130 0.959566 -0.000001 0.000000 0.000000
 42   -0.657468 1.697302 -2.688614 0.000000 0.000002 0.000000
 43   -0.664068 1.698578 2.869377 0.000000 0.000002 0.000000
time 12
  0   -0.967547 0.175787 -20.574476 0.000000 0.000000 -1.572114
  1   -1.093036 0.000002 -0.326057 -1.570757 -1.570379 -0.000171
  2   2.262337 0.113614 0.064702 -0.000052 0.000061 -0.051551
  3   2.380047 0.353302 0.047440 -0.255152 0.058373 0.219135
  4   2.033756 0.190472 -0.000128 -0.000010 0.000048 0.243881
  5   2.451511 0.204909 -0.003447 0.000000 -0.000005 0.252719
  6   7.247600 -0.397300 -0.109469 0.000001 0.000033 -0.209345
  7   -2.022252 -0.104661 3.136172 0.896949 -1.256502 -3.804821
  8   1.168026 -0.537438 -0.063437 -0.377234 0.952315 -0.865655
  9   6.790376 -0.619176 0.015206 -0.000213 -0.000352 -1.914385
 10   8.637599 0.544015 -0.090417 -1.174701 -0.597886 -0.222218
 11   6.790465 -0.619039 0.017802 0.004242 -0.011935 -1.355216
 12   -2.022474 -0.104699 -2.873818 -1.159215 1.101745 -4.048005
 13   1.167898 -0.537463 0.063297 0.101856 -0.751108 -0.224009
 14   7.002743 -0.617765 -0.183752 0.000286 0.000250 -1.961567
 15   8.209042 0.615527 -0.255885 1.666944 0.765006 -0.200505
 16   7.002735 -0.617911 -0.183641 0.012979 0.011033 -1.391732
 17   1.574674 0.609930 -0.000899 0.124988 -0.230413 0.551525
 18   -0.602177 0.511412 -0.000006 0.000000 0.000000 0.000000
 19   3.673773 0.177020 1.119313 -0.000002 -0.000014 -0.174510
 20   3.673767 0.176993 -1.117566 0.000007 -0.000003 -0.174546
 21   3.942357 1.330634 1.627658 0.000002 -0.000011 -0.000026
 22   -0.246060 -0.011889 0.516521 -0.000011 0.000031 0.000025
 23   3.942374 1.330659 -1.631083 0.000019 0.000002 -0.000024
 24   -0.246150 -0.011872 -0.516511 -0.000005 -0.000006 0.000048
 25   4.941364 1.997338 1.629330 0.000018 -0.000001 -0.000024
 26   4.941382 1.997366 -1.629410 -0.000001 0.000005 -0.000024
 27   2.918368 1.615358 1.514501 -0.000019 -0.000022 -0.000050
 28   2.920798 1.614964 -1.501142 -0.000002 -0.000009 -0.000024
 29   8.824059 0.150544 0.091743 0.000006 -0.000231 -0.174534
 30   2.111085 -0.561179 1.784320 -0.000008 -0.000682 0.000024
 31   2.121290 -0.561289 -1.853599 0.000000 0.000000 -0.000002
 32   -0.810489 -0.093824 3.127092 3.071872 -0.114782 1.239365
 33   14.298673 -0.408176 0.475484 0.000248 0.000062 -1.896136
 34   15.835795 0.581398 0.242756 -0.214729 0.106889 -0.097869
 35   -0.815868 -0.091229 -3.114430 0.066464 3.132725 -1.010185
 36   14.294526 -0.410349 -0.463635 0.000033 -0.000000 -2.607695
 37   15.834409 0.579420 -0.284600 -0.006092 -0.035255 0.214458
 38   1.139685 -3.453749 -2.823813 0.000000 0.000000 0.000001
 39   -4.457742 -1.054854 -0.746180 0.000000 0.000000 0.000000
 40   1.118101 -3.449769 3.237290 0.000000 0.000001 0.000000
 41   -4.433840 -1.059130 0.959566 -0.000001 0.000000 0.000000
 42   -0.657468 1.697302 -2.688614 0.000000 0.000002 0.000000
 43   -0.664068 1.698578 2.869377 0.000000 0.000002 0.000000
end
