version 1
nodes
  0 "Bip01" -1
  1 "Bip01 Pelvis" 0
  2 "Bip01 Spine" 1
  3 "Bip01 Spine1" 2
  4 "Bip01 Spine2" 3
  5 "Bip01 Spine3" 4
  6 "Bip01 Neck" 5
  7 "Bip01 L Arm" 6
  8 "Bip01 L Arm1" 7
  9 "Bip01 L Arm2" 8
 10 "Bip01 L Hand" 9
 11 "Bip06 L elbow2-smooth" 8
 12 "Bip01 R Arm" 6
 13 "Bip01 R Arm1" 12
 14 "Bip01 R Arm2" 13
 15 "Bip01 R Hand" 14
 16 "Bip06 R elbow2-smooth" 13
 17 "Bip01 Head" 6
 18 "Bip06 Head_helper" 17
 19 "Bip06 Head_eyes_l" 18
 20 "Bip06 Head_eyes_r" 18
 21 "Bip06 Head_blink_l" 18
 22 "Bip06 Head_blink_smooth_l1" 21
 23 "Bip06 Head_blink_r" 18
 24 "Bip06 Head_blink_smooth_r1" 23
 25 "Bip06 Head_L_eyebrow" 18
 26 "Bip06 Head_R_eyebrow" 18
 27 "Bip06 Head_blink_l_lid" 18
 28 "Bip06 Head_blink_r_lid" 18
 29 "Bip06 bunny" 18
 30 "Bip06 bunnyL" 29
 31 "Bip06 bunnyR" 29
 32 "Bip01 L Leg" 1
 33 "Bip01 L Leg1" 32
 34 "Bip01 L Foot" 33
 35 "Bip01 R Leg" 1
 36 "Bip01 R Leg1" 35
 37 "Bip01 R Foot" 36
 38 "Bip03 HairR1" 17
 39 "Bip03 HairR2" 38
 40 "Bip03 HairL1" 17
 41 "Bip03 HairL2" 40
 42 "Bip03 swingR" 17
 43 "Bip03 swingL" 17
end
skeleton
time 0
  0   -0.967547 0.175787 -20.574476 0.000000 0.000000 -1.572114
  1   -1.093036 0.000002 -0.326057 -1.570757 -1.570379 -0.000171
  2   2.262337 0.113614 0.064702 0.069482 0.005945 -0.086138
  3   2.380047 0.353302 0.047440 0.331507 -0.002785 0.008366
  4   2.033756 0.190472 -0.000128 0.415206 0.056531 -0.127723
  5   2.451511 0.204909 -0.003447 -0.104670 -0.001781 -0.017472
  6   7.247600 -0.397300 -0.109469 0.000001 0.000033 0.418409
  7   -2.022252 -0.104661 3.136172 -0.298879 -1.361862 -2.901749
  8   1.168026 -0.537438 -0.063437 -0.359072 1.171635 -0.328005
  9   6.790376 -0.619176 0.015206 0.000619 -0.226734 -0.418242
 10   8.637599 0.544015 -0.090417 -1.015304 0.064136 -0.818986
 11   6.790465 -0.619039 0.017802 -0.010327 -0.169923 -0.306571
 12   -2.022474 -0.104699 -2.873818 0.298873 1.361829 -2.901792
 13   1.167898 -0.537463 0.063297 1.217283 -0.194471 -0.988563
 14   7.002743 -0.617765 -0.183752 0.047142 0.002238 -0.377051
 15   8.209042 0.615527 -0.255885 1.570090 -0.000063 -0.121905
 16   7.002735 -0.617911 -0.183641 0.047532 0.002180 -0.282522
 17   1.574674 0.609930 -0.000899 -0.761587 0.006635 -0.194016
 18   -0.602177 0.511412 -0.000006 0.000000 0.000000 0.000000
 19   3.673773 0.177020 1.119313 -0.000002 -0.000014 -0.174510
 20   3.673767 0.176993 -1.117566 0.000007 -0.000003 -0.174546
 21   3.942357 1.330634 1.627658 0.000002 -0.000011 -0.000026
 22   -0.246060 -0.011889 0.516521 -0.000011 0.000031 0.000025
 23   3.942374 1.330659 -1.631083 0.000019 0.000002 -0.000024
 24   -0.246150 -0.011872 -0.516511 -0.000005 -0.000006 0.000048
 25   4.941364 1.997338 1.629330 0.000018 0.261736 -0.000024
 26   4.941382 1.997366 -1.629410 -0.000001 -0.261744 -0.000024
 27   2.918368 1.615358 1.514501 -0.000019 -0.000022 -0.000050
 28   2.920798 1.614964 -1.501142 -0.000002 -0.000009 -0.000024
 29   8.824059 0.150544 0.091743 0.000006 -0.000231 -0.174534
 30   2.111085 -0.561179 1.784320 -0.000008 -0.000682 0.000024
 31   2.121290 -0.561289 -1.853599 0.000000 0.000000 -0.000002
 32   -0.810489 -0.093824 3.127092 3.071872 -0.114782 1.239365
 33   14.298673 -0.408176 0.475484 0.000248 0.000062 -1.896136
 34   15.835795 0.581398 0.242756 -0.214729 0.106889 -0.097869
 35   -0.815868 -0.091229 -3.114430 0.066464 3.132725 -1.010185
 36   14.294526 -0.410349 -0.463635 0.000033 -0.000000 -2.607695
 37   15.834409 0.579420 -0.284600 -0.006092 -0.035255 0.214458
 38   1.139685 -3.453749 -2.823813 0.000000 0.000000 0.000001
 39   -4.457742 -1.054854 -0.746180 0.000000 0.000000 0.000000
 40   1.118101 -3.449769 3.237290 0.000000 0.000001 0.000000
 41   -4.433840 -1.059130 0.959566 -0.000001 0.000000 0.000000
 42   -0.657468 1.697302 -2.688614 0.000000 0.000002 0.000000
 43   -0.664068 1.698578 2.869377 0.000000 0.000002 0.000000
time 1
  0   -0.967547 0.175787 -20.574476 0.000000 0.000000 -1.572114
  1   -1.093036 0.000002 -0.326057 -1.570757 -1.570379 -0.000171
  2   2.262337 0.113614 0.064702 0.069482 0.005945 -0.087421
  3   2.380047 0.353302 0.047440 0.331507 -0.002785 0.007060
  4   2.033756 0.190472 -0.000128 0.415206 0.056531 -0.128919
  5   2.451511 0.204909 -0.003447 -0.104670 -0.001781 -0.018438
  6   7.247600 -0.397300 -0.109469 0.000001 0.000033 0.418409
  7   -2.022252 -0.104661 3.136172 -0.298879 -1.361862 -2.901749
  8   1.168026 -0.537438 -0.063437 -0.371159 1.170226 -0.339392
  9   6.790376 -0.619176 0.015206 0.000619 -0.226734 -0.418242
 10   8.637599 0.544015 -0.090417 -1.015304 0.064136 -0.818986
 11   6.790465 -0.619039 0.017802 -0.010327 -0.169923 -0.306571
 12   -2.022474 -0.104699 -2.873818 0.298873 1.361829 -2.901792
 13   1.167898 -0.537463 0.063297 1.214401 -0.198692 -0.988200
 14   7.002743 -0.617765 -0.183752 0.047142 0.002238 -0.377051
 15   8.209042 0.615527 -0.255885 1.570090 -0.000063 -0.121905
 16   7.002735 -0.617911 -0.183641 0.047532 0.002180 -0.282522
 17   1.574674 0.609930 -0.000899 -0.761587 0.006635 -0.188990
 18   -0.602177 0.511412 -0.000006 0.000000 0.000000 0.000000
 19   3.673773 0.177020 1.119313 -0.000002 -0.000014 -0.174510
 20   3.673767 0.176993 -1.117566 0.000007 -0.000003 -0.174546
 21   3.942357 1.330634 1.627658 0.000002 -0.000011 -0.000026
 22   -0.246060 -0.011889 0.516521 -0.000011 0.000031 0.000025
 23   3.942374 1.330659 -1.631083 0.000019 0.000002 -0.000024
 24   -0.246150 -0.011872 -0.516511 -0.000005 -0.000006 0.000048
 25   4.941364 1.997338 1.629330 0.000018 0.261736 -0.000024
 26   4.941382 1.997366 -1.629410 -0.000001 -0.261744 -0.000024
 27   2.918368 1.615358 1.514501 -0.000019 -0.000022 -0.000050
 28   2.920798 1.614964 -1.501142 -0.000002 -0.000009 -0.000024
 29   8.824059 0.150544 0.091743 0.000006 -0.000231 -0.174534
 30   2.111085 -0.561179 1.784320 -0.000008 -0.000682 0.000024
 31   2.121290 -0.561289 -1.853599 0.000000 0.000000 -0.000002
 32   -0.810489 -0.093824 3.127092 3.071872 -0.114782 1.239365
 33   14.298673 -0.408176 0.475484 0.000248 0.000062 -1.896136
 34   15.835795 0.581398 0.242756 -0.214729 0.106889 -0.097869
 35   -0.815868 -0.091229 -3.114430 0.066464 3.132725 -1.010185
 36   14.294526 -0.410349 -0.463635 0.000033 -0.000000 -2.607695
 37   15.834409 0.579420 -0.284600 -0.006092 -0.035255 0.214458
 38   1.139685 -3.453749 -2.823813 0.000000 0.000000 0.000001
 39   -4.457742 -1.054854 -0.746180 0.000000 0.000000 0.000000
 40   1.118101 -3.449769 3.237290 0.000000 0.000001 0.000000
 41   -4.433840 -1.059130 0.959566 -0.000001 0.000000 0.000000
 42   -0.657468 1.697302 -2.688614 0.000000 0.000002 0.000000
 43   -0.664068 1.698578 2.869377 0.000000 0.000002 0.000000
time 2
  0   -0.967547 0.175787 -20.574476 0.000000 0.000000 -1.572114
  1   -1.093036 0.000002 -0.326057 -1.570757 -1.570379 -0.000171
  2   2.262337 0.113614 0.064702 0.069482 0.005945 -0.088686
  3   2.380047 0.353302 0.047440 0.331507 -0.002785 0.005856
  4   2.033756 0.190472 -0.000128 0.415206 0.056531 -0.130188
  5   2.451511 0.204909 -0.003447 -0.104670 -0.001781 -0.019701
  6   7.247600 -0.397300 -0.109469 0.000001 0.000033 0.418409
  7   -2.022252 -0.104661 3.136172 -0.298879 -1.361862 -2.901749
  8   1.168026 -0.537438 -0.063437 -0.383119 1.168465 -0.350336
  9   6.790376 -0.619176 0.015206 0.000619 -0.226734 -0.418242
 10   8.637599 0.544015 -0.090417 -1.015304 0.064136 -0.818986
 11   6.790465 -0.619039 0.017802 -0.010327 -0.169923 -0.306571
 12   -2.022474 -0.104699 -2.873818 0.298873 1.361829 -2.901792
 13   1.167898 -0.537463 0.063297 1.211589 -0.202811 -0.987534
 14   7.002743 -0.617765 -0.183752 0.047142 0.002238 -0.377051
 15   8.209042 0.615527 -0.255885 1.570090 -0.000063 -0.121905
 16   7.002735 -0.617911 -0.183641 0.047532 0.002180 -0.282522
 17   1.574674 0.609930 -0.000899 -0.761587 0.006635 -0.183963
 18   -0.602177 0.511412 -0.000006 0.000000 0.000000 0.000000
 19   3.673773 0.177020 1.119313 -0.000002 -0.000014 -0.174510
 20   3.673767 0.176993 -1.117566 0.000007 -0.000003 -0.174546
 21   3.942357 1.330634 1.627658 0.000002 -0.000011 -0.000026
 22   -0.246060 -0.011889 0.516521 -0.000011 0.000031 0.000025
 23   3.942374 1.330659 -1.631083 0.000019 0.000002 -0.000024
 24   -0.246150 -0.011872 -0.516511 -0.000005 -0.000006 0.000048
 25   4.941364 1.997338 1.629330 0.000018 0.261736 -0.000024
 26   4.941382 1.997366 -1.629410 -0.000001 -0.261744 -0.000024
 27   2.918368 1.615358 1.514501 -0.000019 -0.000022 -0.000050
 28   2.920798 1.614964 -1.501142 -0.000002 -0.000009 -0.000024
 29   8.824059 0.150544 0.091743 0.000006 -0.000231 -0.174534
 30   2.111085 -0.561179 1.784320 -0.000008 -0.000682 0.000024
 31   2.121290 -0.561289 -1.853599 0.000000 0.000000 -0.000002
 32   -0.810489 -0.093824 3.127092 3.071872 -0.114782 1.239365
 33   14.298673 -0.408176 0.475484 0.000248 0.000062 -1.896136
 34   15.835795 0.581398 0.242756 -0.214729 0.106889 -0.097869
 35   -0.815868 -0.091229 -3.114430 0.066464 3.132725 -1.010185
 36   14.294526 -0.410349 -0.463635 0.000033 -0.000000 -2.607695
 37   15.834409 0.579420 -0.284600 -0.006092 -0.035255 0.214458
 38   1.139685 -3.453749 -2.823813 0.000000 0.000000 0.000001
 39   -4.457742 -1.054854 -0.746180 0.000000 0.000000 0.000000
 40   1.118101 -3.449769 3.237290 0.000000 0.000001 0.000000
 41   -4.433840 -1.059130 0.959566 -0.000001 0.000000 0.000000
 42   -0.657468 1.697302 -2.688614 0.000000 0.000002 0.000000
 43   -0.664068 1.698578 2.869377 0.000000 0.000002 0.000000
time 3
  0   -0.967547 0.175787 -20.574476 0.000000 0.000000 -1.572114
  1   -1.093036 0.000002 -0.326057 -1.570757 -1.570379 -0.000171
  2   2.262337 0.113614 0.064702 0.069482 0.005945 -0.089933
  3   2.380047 0.353302 0.047440 0.331507 -0.002785 0.004591
  4   2.033756 0.190472 -0.000128 0.415206 0.056531 -0.131529
  5   2.451511 0.204909 -0.003447 -0.104670 -0.001781 -0.020964
  6   7.247600 -0.397300 -0.109469 0.000001 0.000033 0.418409
  7   -2.022252 -0.104661 3.136172 -0.298879 -1.361862 -2.901749
  8   1.168026 -0.537438 -0.063437 -0.395079 1.166855 -0.361280
  9   6.790376 -0.619176 0.015206 0.000619 -0.226734 -0.418242
 10   8.637599 0.544015 -0.090417 -1.015304 0.064136 -0.818986
 11   6.790465 -0.619039 0.017802 -0.010327 -0.169923 -0.306571
 12   -2.022474 -0.104699 -2.873818 0.298873 1.361829 -2.901792
 13   1.167898 -0.537463 0.063297 1.208778 -0.206930 -0.987050
 14   7.002743 -0.617765 -0.183752 0.047142 0.002238 -0.377051
 15   8.209042 0.615527 -0.255885 1.570090 -0.000063 -0.121905
 16   7.002735 -0.617911 -0.183641 0.047579 0.002180 -0.282522
 17   1.574674 0.609930 -0.000899 -0.761587 0.006635 -0.179047
 18   -0.602177 0.511412 -0.000006 0.000000 0.000000 0.000000
 19   3.673773 0.177020 1.119313 -0.000002 -0.000014 -0.174510
 20   3.673767 0.176993 -1.117566 0.000007 -0.000003 -0.174546
 21   3.942357 1.330634 1.627658 0.000002 -0.000011 -0.000026
 22   -0.246060 -0.011889 0.516521 -0.000011 0.000031 0.000025
 23   3.942374 1.330659 -1.631083 0.000019 0.000002 -0.000024
 24   -0.246150 -0.011872 -0.516511 -0.000005 -0.000006 0.000048
 25   4.941364 1.997338 1.629330 0.000018 0.261736 -0.000024
 26   4.941382 1.997366 -1.629410 -0.000001 -0.261744 -0.000024
 27   2.918368 1.615358 1.514501 -0.000019 -0.000022 -0.000050
 28   2.920798 1.614964 -1.501142 -0.000002 -0.000009 -0.000024
 29   8.824059 0.150544 0.091743 0.000006 -0.000231 -0.174534
 30   2.111085 -0.561179 1.784320 -0.000008 -0.000682 0.000024
 31   2.121290 -0.561289 -1.853599 0.000000 0.000000 -0.000002
 32   -0.810489 -0.093824 3.127092 3.071872 -0.114782 1.239365
 33   14.298673 -0.408176 0.475484 0.000248 0.000062 -1.896136
 34   15.835795 0.581398 0.242756 -0.214729 0.106889 -0.097869
 35   -0.815868 -0.091229 -3.114430 0.066464 3.132725 -1.010185
 36   14.294526 -0.410349 -0.463635 0.000033 -0.000000 -2.607695
 37   15.834409 0.579420 -0.284600 -0.006092 -0.035255 0.214458
 38   1.139685 -3.453749 -2.823813 0.000000 0.000000 0.000001
 39   -4.457742 -1.054854 -0.746180 0.000000 0.000000 0.000000
 40   1.118101 -3.449769 3.237290 0.000000 0.000001 0.000000
 41   -4.433840 -1.059130 0.959566 -0.000001 0.000000 0.000000
 42   -0.657468 1.697302 -2.688614 0.000000 0.000002 0.000000
 43   -0.664068 1.698578 2.869377 0.000000 0.000002 0.000000
time 4
  0   -0.967547 0.175787 -20.574476 0.000000 0.000000 -1.572114
  1   -1.093036 0.000002 -0.326057 -1.570757 -1.570379 -0.000171
  2   2.262337 0.113614 0.064702 0.069482 0.005945 -0.091162
  3   2.380047 0.353302 0.047440 0.331507 -0.002785 0.003346
  4   2.033756 0.190472 -0.000128 0.415206 0.056531 -0.132689
  5   2.451511 0.204909 -0.003447 -0.104670 -0.001781 -0.022227
  6   7.247600 -0.397300 -0.109469 0.000001 0.000033 0.418409
  7   -2.022252 -0.104661 3.136172 -0.298879 -1.361862 -2.901749
  8   1.168026 -0.537438 -0.063437 -0.407039 1.164742 -0.372224
  9   6.790376 -0.619176 0.015206 0.000619 -0.226734 -0.418242
 10   8.637599 0.544015 -0.090417 -1.015304 0.064136 -0.818986
 11   6.790465 -0.619039 0.017802 -0.010327 -0.169923 -0.306571
 12   -2.022474 -0.104699 -2.873818 0.298873 1.361829 -2.901792
 13   1.167898 -0.537463 0.063297 1.205966 -0.211151 -0.986384
 14   7.002743 -0.617765 -0.183752 0.047142 0.002238 -0.377051
 15   8.209042 0.615527 -0.255885 1.570090 -0.000063 -0.121905
 16   7.002735 -0.617911 -0.183641 0.047532 0.002180 -0.282522
 17   1.574674 0.609930 -0.000899 -0.761587 0.006635 -0.174020
 18   -0.602177 0.511412 -0.000006 0.000000 0.000000 0.000000
 19   3.673773 0.177020 1.119313 -0.000002 -0.000014 -0.174510
 20   3.673767 0.176993 -1.117566 0.000007 -0.000003 -0.174546
 21   3.942357 1.330634 1.627658 0.000002 -0.000011 -0.000026
 22   -0.246060 -0.011889 0.516521 -0.000011 0.000031 0.000025
 23   3.942374 1.330659 -1.631083 0.000019 0.000002 -0.000024
 24   -0.246150 -0.011872 -0.516511 -0.000005 -0.000006 0.000048
 25   4.941364 1.997338 1.629330 0.000018 0.261736 -0.000024
 26   4.941382 1.997366 -1.629410 -0.000001 -0.261744 -0.000024
 27   2.918368 1.615358 1.514501 -0.000019 -0.000022 -0.000050
 28   2.920798 1.614964 -1.501142 -0.000002 -0.000009 -0.000024
 29   8.824059 0.150544 0.091743 0.000006 -0.000231 -0.174534
 30   2.111085 -0.561179 1.784320 -0.000008 -0.000682 0.000024
 31   2.121290 -0.561289 -1.853599 0.000000 0.000000 -0.000002
 32   -0.810489 -0.093824 3.127092 3.071872 -0.114782 1.239365
 33   14.298673 -0.408176 0.475484 0.000248 0.000062 -1.896136
 34   15.835795 0.581398 0.242756 -0.214729 0.106889 -0.097869
 35   -0.815868 -0.091229 -3.114430 0.066464 3.132725 -1.010185
 36   14.294526 -0.410349 -0.463635 0.000033 -0.000000 -2.607695
 37   15.834409 0.579420 -0.284600 -0.006092 -0.035255 0.214458
 38   1.139685 -3.453749 -2.823813 0.000000 0.000000 0.000001
 39   -4.457742 -1.054854 -0.746180 0.000000 0.000000 0.000000
 40   1.118101 -3.449769 3.237290 0.000000 0.000001 0.000000
 41   -4.433840 -1.059130 0.959566 -0.000001 0.000000 0.000000
 42   -0.657468 1.697302 -2.688614 0.000000 0.000002 0.000000
 43   -0.664068 1.698578 2.869377 0.000000 0.000002 0.000000
time 5
  0   -0.967547 0.175787 -20.574476 0.000000 0.000000 -1.572114
  1   -1.093036 0.000002 -0.326057 -1.570757 -1.570379 -0.000171
  2   2.262337 0.113614 0.064702 0.069482 0.005945 -0.092445
  3   2.380047 0.353302 0.047440 0.331507 -0.002785 0.002081
  4   2.033756 0.190472 -0.000128 0.415206 0.056531 -0.134030
  5   2.451511 0.204909 -0.003447 -0.104670 -0.001781 -0.023391
  6   7.247600 -0.397300 -0.109469 0.000001 0.000033 0.418409
  7   -2.022252 -0.104661 3.136172 -0.298879 -1.361862 -2.901749
  8   1.168026 -0.537438 -0.063437 -0.418746 1.163182 -0.382915
  9   6.790376 -0.619176 0.015206 0.000619 -0.226734 -0.418242
 10   8.637599 0.544015 -0.090417 -1.015304 0.064136 -0.818986
 11   6.790465 -0.619039 0.017802 -0.010327 -0.169923 -0.306571
 12   -2.022474 -0.104699 -2.873818 0.298873 1.361829 -2.901792
 13   1.167898 -0.537463 0.063297 1.203295 -0.215321 -0.985718
 14   7.002743 -0.617765 -0.183752 0.047142 0.002238 -0.377051
 15   8.209042 0.615527 -0.255885 1.570090 -0.000063 -0.121905
 16   7.002735 -0.617911 -0.183641 0.047579 0.002180 -0.282522
 17   1.574674 0.609930 -0.000899 -0.761587 0.006635 -0.169179
 18   -0.602177 0.511412 -0.000006 0.000000 0.000000 0.000000
 19   3.673773 0.177020 1.119313 -0.000002 -0.000014 -0.174510
 20   3.673767 0.176993 -1.117566 0.000007 -0.000003 -0.174546
 21   3.942357 1.330634 1.627658 0.000002 -0.000011 -0.000026
 22   -0.246060 -0.011889 0.516521 -0.000011 0.000031 0.000025
 23   3.942374 1.330659 -1.631083 0.000019 0.000002 -0.000024
 24   -0.246150 -0.011872 -0.516511 -0.000005 -0.000006 0.000048
 25   4.941364 1.997338 1.629330 0.000018 0.261736 -0.000024
 26   4.941382 1.997366 -1.629410 -0.000001 -0.261744 -0.000024
 27   2.918368 1.615358 1.514501 -0.000019 -0.000022 -0.000050
 28   2.920798 1.614964 -1.501142 -0.000002 -0.000009 -0.000024
 29   8.824059 0.150544 0.091743 0.000006 -0.000231 -0.174534
 30   2.111085 -0.561179 1.784320 -0.000008 -0.000682 0.000024
 31   2.121290 -0.561289 -1.853599 0.000000 0.000000 -0.000002
 32   -0.810489 -0.093824 3.127092 3.071872 -0.114782 1.239365
 33   14.298673 -0.408176 0.475484 0.000248 0.000062 -1.896136
 34   15.835795 0.581398 0.242756 -0.214729 0.106889 -0.097869
 35   -0.815868 -0.091229 -3.114430 0.066464 3.132725 -1.010185
 36   14.294526 -0.410349 -0.463635 0.000033 -0.000000 -2.607695
 37   15.834409 0.579420 -0.284600 -0.006092 -0.035255 0.214458
 38   1.139685 -3.453749 -2.823813 0.000000 0.000000 0.000001
 39   -4.457742 -1.054854 -0.746180 0.000000 0.000000 0.000000
 40   1.118101 -3.449769 3.237290 0.000000 0.000001 0.000000
 41   -4.433840 -1.059130 0.959566 -0.000001 0.000000 0.000000
 42   -0.657468 1.697302 -2.688614 0.000000 0.000002 0.000000
 43   -0.664068 1.698578 2.869377 0.000000 0.000002 0.000000
time 6
  0   -0.967547 0.175787 -20.574476 0.000000 0.000000 -1.572114
  1   -1.093036 0.000002 -0.326057 -1.570757 -1.570379 -0.000171
  2   2.262337 0.113614 0.064702 0.069482 0.005945 -0.093620
  3   2.380047 0.353302 0.047440 0.331507 -0.002785 0.000816
  4   2.033756 0.190472 -0.000128 0.415206 0.056531 -0.135226
  5   2.451511 0.204909 -0.003447 -0.104670 -0.001781 -0.024654
  6   7.247600 -0.397300 -0.109469 0.000001 0.000033 0.418409
  7   -2.022252 -0.104661 3.136172 -0.298879 -1.361862 -2.901749
  8   1.168026 -0.537438 -0.063437 -0.430263 1.161069 -0.393606
  9   6.790376 -0.619176 0.015206 0.000619 -0.226734 -0.418242
 10   8.637599 0.544015 -0.090417 -1.015304 0.064136 -0.818986
 11   6.790465 -0.619039 0.017802 -0.010327 -0.169923 -0.306571
 12   -2.022474 -0.104699 -2.873818 0.298873 1.361829 -2.901792
 13   1.167898 -0.537463 0.063297 1.200483 -0.219491 -0.985052
 14   7.002743 -0.617765 -0.183752 0.047142 0.002238 -0.377051
 15   8.209042 0.615527 -0.255885 1.570090 -0.000063 -0.121905
 16   7.002735 -0.617911 -0.183641 0.047532 0.002180 -0.282522
 17   1.574674 0.609930 -0.000899 -0.761587 0.006635 -0.164115
 18   -0.602177 0.511412 -0.000006 0.000000 0.000000 0.000000
 19   3.673773 0.177020 1.119313 -0.000002 -0.000014 -0.174510
 20   3.673767 0.176993 -1.117566 0.000007 -0.000003 -0.174546
 21   3.942357 1.330634 1.627658 0.000002 -0.000011 -0.000026
 22   -0.246060 -0.011889 0.516521 -0.000011 0.000031 0.000025
 23   3.942374 1.330659 -1.631083 0.000019 0.000002 -0.000024
 24   -0.246150 -0.011872 -0.516511 -0.000005 -0.000006 0.000048
 25   4.941364 1.997338 1.629330 0.000018 0.261736 -0.000024
 26   4.941382 1.997366 -1.629410 -0.000001 -0.261744 -0.000024
 27   2.918368 1.615358 1.514501 -0.000019 -0.000022 -0.000050
 28   2.920798 1.614964 -1.501142 -0.000002 -0.000009 -0.000024
 29   8.824059 0.150544 0.091743 0.000006 -0.000231 -0.174534
 30   2.111085 -0.561179 1.784320 -0.000008 -0.000682 0.000024
 31   2.121290 -0.561289 -1.853599 0.000000 0.000000 -0.000002
 32   -0.810489 -0.093824 3.127092 3.071872 -0.114782 1.239365
 33   14.298673 -0.408176 0.475484 0.000248 0.000062 -1.896136
 34   15.835795 0.581398 0.242756 -0.214729 0.106889 -0.097869
 35   -0.815868 -0.091229 -3.114430 0.066464 3.132725 -1.010185
 36   14.294526 -0.410349 -0.463635 0.000033 -0.000000 -2.607695
 37   15.834409 0.579420 -0.284600 -0.006092 -0.035255 0.214458
 38   1.139685 -3.453749 -2.823813 0.000000 0.000000 0.000001
 39   -4.457742 -1.054854 -0.746180 0.000000 0.000000 0.000000
 40   1.118101 -3.449769 3.237290 0.000000 0.000001 0.000000
 41   -4.433840 -1.059130 0.959566 -0.000001 0.000000 0.000000
 42   -0.657468 1.697302 -2.688614 0.000000 0.000002 0.000000
 43   -0.664068 1.698578 2.869377 0.000000 0.000002 0.000000
time 7
  0   -0.967547 0.175787 -20.574476 0.000000 0.000000 -1.572114
  1   -1.093036 0.000002 -0.326057 -1.570757 -1.570379 -0.000171
  2   2.262337 0.113614 0.064702 0.069482 0.005945 -0.094903
  3   2.380047 0.353302 0.047440 0.331507 -0.002785 -0.000388
  4   2.033756 0.190472 -0.000128 0.415206 0.056531 -0.136495
  5   2.451511 0.204909 -0.003447 -0.104670 -0.001781 -0.025942
  6   7.247600 -0.397300 -0.109469 0.000001 0.000033 0.418409
  7   -2.022252 -0.104661 3.136172 -0.298879 -1.361862 -2.901749
  8   1.168026 -0.537438 -0.063437 -0.441653 1.159308 -0.404234
  9   6.790376 -0.619176 0.015206 0.000619 -0.226734 -0.418242
 10   8.637599 0.544015 -0.090417 -1.015304 0.064136 -0.818986
 11   6.790465 -0.619039 0.017802 -0.010327 -0.169923 -0.306571
 12   -2.022474 -0.104699 -2.873818 0.298873 1.361829 -2.901792
 13   1.167898 -0.537463 0.063297 1.197460 -0.223458 -0.984568
 14   7.002743 -0.617765 -0.183752 0.047142 0.002238 -0.377051
 15   8.209042 0.615527 -0.255885 1.570090 -0.000063 -0.121905
 16   7.002735 -0.617911 -0.183641 0.047532 0.002180 -0.282522
 17   1.574674 0.609930 -0.000899 -0.761587 0.006635 -0.159051
 18   -0.602177 0.511412 -0.000006 0.000000 0.000000 0.000000
 19   3.673773 0.177020 1.119313 -0.000002 -0.000014 -0.174510
 20   3.673767 0.176993 -1.117566 0.000007 -0.000003 -0.174546
 21   3.942357 1.330634 1.627658 0.000002 -0.000011 -0.000026
 22   -0.246060 -0.011889 0.516521 -0.000011 0.000031 0.000025
 23   3.942374 1.330659 -1.631083 0.000019 0.000002 -0.000024
 24   -0.246150 -0.011872 -0.516511 -0.000005 -0.000006 0.000048
 25   4.941364 1.997338 1.629330 0.000018 0.261736 -0.000024
 26   4.941382 1.997366 -1.629410 -0.000001 -0.261744 -0.000024
 27   2.918368 1.615358 1.514501 -0.000019 -0.000022 -0.000050
 28   2.920798 1.614964 -1.501142 -0.000002 -0.000009 -0.000024
 29   8.824059 0.150544 0.091743 0.000006 -0.000231 -0.174534
 30   2.111085 -0.561179 1.784320 -0.000008 -0.000682 0.000024
 31   2.121290 -0.561289 -1.853599 0.000000 0.000000 -0.000002
 32   -0.810489 -0.093824 3.127092 3.071872 -0.114782 1.239365
 33   14.298673 -0.408176 0.475484 0.000248 0.000062 -1.896136
 34   15.835795 0.581398 0.242756 -0.214729 0.106889 -0.097869
 35   -0.815868 -0.091229 -3.114430 0.066464 3.132725 -1.010185
 36   14.294526 -0.410349 -0.463635 0.000033 -0.000000 -2.607695
 37   15.834409 0.579420 -0.284600 -0.006092 -0.035255 0.214458
 38   1.139685 -3.453749 -2.823813 0.000000 0.000000 0.000001
 39   -4.457742 -1.054854 -0.746180 0.000000 0.000000 0.000000
 40   1.118101 -3.449769 3.237290 0.000000 0.000001 0.000000
 41   -4.433840 -1.059130 0.959566 -0.000001 0.000000 0.000000
 42   -0.657468 1.697302 -2.688614 0.000000 0.000002 0.000000
 43   -0.664068 1.698578 2.869377 0.000000 0.000002 0.000000
time 8
  0   -0.967547 0.175787 -20.574476 0.000000 0.000000 -1.572114
  1   -1.093036 0.000002 -0.326057 -1.570757 -1.570379 -0.000171
  2   2.262337 0.113614 0.064702 0.069482 0.005945 -0.096113
  3   2.380047 0.353302 0.047440 0.331507 -0.002785 -0.001633
  4   2.033756 0.190472 -0.000128 0.415206 0.056531 -0.137727
  5   2.451511 0.204909 -0.003447 -0.104670 -0.001781 -0.027205
  6   7.247600 -0.397300 -0.109469 0.000001 0.000033 0.418409
  7   -2.022252 -0.104661 3.136172 -0.298879 -1.361862 -2.901749
  8   1.168026 -0.537438 -0.063437 -0.453170 1.157094 -0.414672
  9   6.790376 -0.619176 0.015206 0.000619 -0.226734 -0.418242
 10   8.637599 0.544015 -0.090417 -1.015304 0.064136 -0.818986
 11   6.790465 -0.619039 0.017802 -0.010327 -0.169923 -0.306571
 12   -2.022474 -0.104699 -2.873818 0.298873 1.361829 -2.901792
 13   1.167898 -0.537463 0.063297 1.194859 -0.227678 -0.983781
 14   7.002743 -0.617765 -0.183752 0.047142 0.002238 -0.377051
 15   8.209042 0.615527 -0.255885 1.570090 -0.000063 -0.121905
 16   7.002735 -0.617911 -0.183641 0.047532 0.002180 -0.282522
 17   1.574674 0.609930 -0.000899 -0.761587 0.006635 -0.154209
 18   -0.602177 0.511412 -0.000006 0.000000 0.000000 0.000000
 19   3.673773 0.177020 1.119313 -0.000002 -0.000014 -0.174510
 20   3.673767 0.176993 -1.117566 0.000007 -0.000003 -0.174546
 21   3.942357 1.330634 1.627658 0.000002 -0.000011 -0.000026
 22   -0.246060 -0.011889 0.516521 -0.000011 0.000031 0.000025
 23   3.942374 1.330659 -1.631083 0.000019 0.000002 -0.000024
 24   -0.246150 -0.011872 -0.516511 -0.000005 -0.000006 0.000048
 25   4.941364 1.997338 1.629330 0.000018 0.261736 -0.000024
 26   4.941382 1.997366 -1.629410 -0.000001 -0.261744 -0.000024
 27   2.918368 1.615358 1.514501 -0.000019 -0.000022 -0.000050
 28   2.920798 1.614964 -1.501142 -0.000002 -0.000009 -0.000024
 29   8.824059 0.150544 0.091743 0.000006 -0.000231 -0.174534
 30   2.111085 -0.561179 1.784320 -0.000008 -0.000682 0.000024
 31   2.121290 -0.561289 -1.853599 0.000000 0.000000 -0.000002
 32   -0.810489 -0.093824 3.127092 3.071872 -0.114782 1.239365
 33   14.298673 -0.408176 0.475484 0.000248 0.000062 -1.896136
 34   15.835795 0.581398 0.242756 -0.214729 0.106889 -0.097869
 35   -0.815868 -0.091229 -3.114430 0.066464 3.132725 -1.010185
 36   14.294526 -0.410349 -0.463635 0.000033 -0.000000 -2.607695
 37   15.834409 0.579420 -0.284600 -0.006092 -0.035255 0.214458
 38   1.139685 -3.453749 -2.823813 0.000000 0.000000 0.000001
 39   -4.457742 -1.054854 -0.746180 0.000000 0.000000 0.000000
 40   1.118101 -3.449769 3.237290 0.000000 0.000001 0.000000
 41   -4.433840 -1.059130 0.959566 -0.000001 0.000000 0.000000
 42   -0.657468 1.697302 -2.688614 0.000000 0.000002 0.000000
 43   -0.664068 1.698578 2.869377 0.000000 0.000002 0.000000
time 9
  0   -0.967547 0.175787 -20.574476 0.000000 0.000000 -1.572114
  1   -1.093036 0.000002 -0.326057 -1.570757 -1.570379 -0.000171
  2   2.262337 0.113614 0.064702 0.069482 0.005945 -0.097396
  3   2.380047 0.353302 0.047440 0.331507 -0.002785 -0.002939
  4   2.033756 0.190472 -0.000128 0.415206 0.056531 -0.138996
  5   2.451511 0.204909 -0.003447 -0.104670 -0.001781 -0.028468
  6   7.247600 -0.397300 -0.109469 0.000001 0.000033 0.418409
  7   -2.022252 -0.104661 3.136172 -0.298879 -1.361862 -2.901749
  8   1.168026 -0.537438 -0.063437 -0.464624 1.155333 -0.424920
  9   6.790376 -0.619176 0.015206 0.000619 -0.226734 -0.418242
 10   8.637599 0.544015 -0.090417 -1.015304 0.064136 -0.818986
 11   6.790465 -0.619039 0.017802 -0.010327 -0.169923 -0.306571
 12   -2.022474 -0.104699 -2.873818 0.298873 1.361829 -2.901792
 13   1.167898 -0.537463 0.063297 1.192047 -0.231899 -0.983236
 14   7.002743 -0.617765 -0.183752 0.047142 0.002238 -0.377051
 15   8.209042 0.615527 -0.255885 1.570090 -0.000063 -0.121905
 16   7.002735 -0.617911 -0.183641 0.047532 0.002180 -0.282522
 17   1.574674 0.609930 -0.000899 -0.761587 0.006635 -0.149146
 18   -0.602177 0.511412 -0.000006 0.000000 0.000000 0.000000
 19   3.673773 0.177020 1.119313 -0.000002 -0.000014 -0.174510
 20   3.673767 0.176993 -1.117566 0.000007 -0.000003 -0.174546
 21   3.942357 1.330634 1.627658 0.000002 -0.000011 -0.000026
 22   -0.246060 -0.011889 0.516521 -0.000011 0.000031 0.000025
 23   3.942374 1.330659 -1.631083 0.000019 0.000002 -0.000024
 24   -0.246150 -0.011872 -0.516511 -0.000005 -0.000006 0.000048
 25   4.941364 1.997338 1.629330 0.000018 0.261736 -0.000024
 26   4.941382 1.997366 -1.629410 -0.000001 -0.261744 -0.000024
 27   2.918368 1.615358 1.514501 -0.000019 -0.000022 -0.000050
 28   2.920798 1.614964 -1.501142 -0.000002 -0.000009 -0.000024
 29   8.824059 0.150544 0.091743 0.000006 -0.000231 -0.174534
 30   2.111085 -0.561179 1.784320 -0.000008 -0.000682 0.000024
 31   2.121290 -0.561289 -1.853599 0.000000 0.000000 -0.000002
 32   -0.810489 -0.093824 3.127092 3.071872 -0.114782 1.239365
 33   14.298673 -0.408176 0.475484 0.000248 0.000062 -1.896136
 34   15.835795 0.581398 0.242756 -0.214729 0.106889 -0.097869
 35   -0.815868 -0.091229 -3.114430 0.066464 3.132725 -1.010185
 36   14.294526 -0.410349 -0.463635 0.000033 -0.000000 -2.607695
 37   15.834409 0.579420 -0.284600 -0.006092 -0.035255 0.214458
 38   1.139685 -3.453749 -2.823813 0.000000 0.000000 0.000001
 39   -4.457742 -1.054854 -0.746180 0.000000 0.000000 0.000000
 40   1.118101 -3.449769 3.237290 0.000000 0.000001 0.000000
 41   -4.433840 -1.059130 0.959566 -0.000001 0.000000 0.000000
 42   -0.657468 1.697302 -2.688614 0.000000 0.000002 0.000000
 43   -0.664068 1.698578 2.869377 0.000000 0.000002 0.000000
time 10
  0   -0.967547 0.175787 -20.574476 0.000000 0.000000 -1.572114
  1   -1.093036 0.000002 -0.326057 -1.570757 -1.570379 -0.000171
  2   2.262337 0.113614 0.064702 0.069482 0.005945 -0.098625
  3   2.380047 0.353302 0.047440 0.331507 -0.002785 -0.004122
  4   2.033756 0.190472 -0.000128 0.415206 0.056531 -0.139975
  5   2.451511 0.204909 -0.003447 -0.104670 -0.001781 -0.029632
  6   7.247600 -0.397300 -0.109469 0.000001 0.000033 0.418409
  7   -2.022252 -0.104661 3.136172 -0.298879 -1.361862 -2.901749
  8   1.168026 -0.537438 -0.063437 -0.475698 1.153220 -0.435105
  9   6.790376 -0.619176 0.015206 0.000619 -0.226734 -0.418242
 10   8.637599 0.544015 -0.090417 -1.015304 0.064136 -0.818986
 11   6.790465 -0.619039 0.017802 -0.010327 -0.169923 -0.306571
 12   -2.022474 -0.104699 -2.873818 0.298873 1.361829 -2.901792
 13   1.167898 -0.537463 0.063297 1.189165 -0.235916 -0.982328
 14   7.002743 -0.617765 -0.183752 0.047142 0.002238 -0.377051
 15   8.209042 0.615527 -0.255885 1.570090 -0.000063 -0.121905
 16   7.002735 -0.617911 -0.183641 0.047579 0.002180 -0.282522
 17   1.574674 0.609930 -0.000899 -0.761587 0.006635 -0.144230
 18   -0.602177 0.511412 -0.000006 0.000000 0.000000 0.000000
 19   3.673773 0.177020 1.119313 -0.000002 -0.000014 -0.174510
 20   3.673767 0.176993 -1.117566 0.000007 -0.000003 -0.174546
 21   3.942357 1.330634 1.627658 0.000002 -0.000011 -0.000026
 22   -0.246060 -0.011889 0.516521 -0.000011 0.000031 0.000025
 23   3.942374 1.330659 -1.631083 0.000019 0.000002 -0.000024
 24   -0.246150 -0.011872 -0.516511 -0.000005 -0.000006 0.000048
 25   4.941364 1.997338 1.629330 0.000018 0.261736 -0.000024
 26   4.941382 1.997366 -1.629410 -0.000001 -0.261744 -0.000024
 27   2.918368 1.615358 1.514501 -0.000019 -0.000022 -0.000050
 28   2.920798 1.614964 -1.501142 -0.000002 -0.000009 -0.000024
 29   8.824059 0.150544 0.091743 0.000006 -0.000231 -0.174534
 30   2.111085 -0.561179 1.784320 -0.000008 -0.000682 0.000024
 31   2.121290 -0.561289 -1.853599 0.000000 0.000000 -0.000002
 32   -0.810489 -0.093824 3.127092 3.071872 -0.114782 1.239365
 33   14.298673 -0.408176 0.475484 0.000248 0.000062 -1.896136
 34   15.835795 0.581398 0.242756 -0.214729 0.106889 -0.097869
 35   -0.815868 -0.091229 -3.114430 0.066464 3.132725 -1.010185
 36   14.294526 -0.410349 -0.463635 0.000033 -0.000000 -2.607695
 37   15.834409 0.579420 -0.284600 -0.006092 -0.035255 0.214458
 38   1.139685 -3.453749 -2.823813 0.000000 0.000000 0.000001
 39   -4.457742 -1.054854 -0.746180 0.000000 0.000000 0.000000
 40   1.118101 -3.449769 3.237290 0.000000 0.000001 0.000000
 41   -4.433840 -1.059130 0.959566 -0.000001 0.000000 0.000000
 42   -0.657468 1.697302 -2.688614 0.000000 0.000002 0.000000
 43   -0.664068 1.698578 2.869377 0.000000 0.000002 0.000000
time 11
  0   -0.967547 0.175787 -20.574476 0.000000 0.000000 -1.572114
  1   -1.093036 0.000002 -0.326057 -1.570757 -1.570379 -0.000171
  2   2.262337 0.113614 0.064702 0.069482 0.005945 -0.099908
  3   2.380047 0.353302 0.047440 0.331507 -0.002785 -0.005408
  4   2.033756 0.190472 -0.000128 0.415206 0.056531 -0.141207
  5   2.451511 0.204909 -0.003447 -0.104670 -0.001781 -0.030895
  6   7.247600 -0.397300 -0.109469 0.000001 0.000033 0.418409
  7   -2.022252 -0.104661 3.136172 -0.298879 -1.361862 -2.901749
  8   1.168026 -0.537438 -0.063437 -0.486772 1.151006 -0.445290
  9   6.790376 -0.619176 0.015206 0.000619 -0.226734 -0.418242
 10   8.637599 0.544015 -0.090417 -1.015304 0.064136 -0.818986
 11   6.790465 -0.619039 0.017802 -0.010327 -0.169923 -0.306571
 12   -2.022474 -0.104699 -2.873818 0.298873 1.361829 -2.901697
 13   1.167898 -0.537463 0.063297 1.186143 -0.240341 -0.981965
 14   7.002743 -0.617765 -0.183752 0.047142 0.002238 -0.377051
 15   8.209042 0.615527 -0.255885 1.570090 -0.000063 -0.121905
 16   7.002735 -0.617911 -0.183641 0.047532 0.002180 -0.282522
 17   1.574674 0.609930 -0.000899 -0.761587 0.006635 -0.139240
 18   -0.602177 0.511412 -0.000006 0.000000 0.000000 0.000000
 19   3.673773 0.177020 1.119313 -0.000002 -0.000014 -0.174510
 20   3.673767 0.176993 -1.117566 0.000007 -0.000003 -0.174546
 21   3.942357 1.330634 1.627658 0.000002 -0.000011 -0.000026
 22   -0.246060 -0.011889 0.516521 -0.000011 0.000031 0.000025
 23   3.942374 1.330659 -1.631083 0.000019 0.000002 -0.000024
 24   -0.246150 -0.011872 -0.516511 -0.000005 -0.000006 0.000048
 25   4.941364 1.997338 1.629330 0.000018 0.261736 -0.000024
 26   4.941382 1.997366 -1.629410 -0.000001 -0.261744 -0.000024
 27   2.918368 1.615358 1.514501 -0.000019 -0.000022 -0.000050
 28   2.920798 1.614964 -1.501142 -0.000002 -0.000009 -0.000024
 29   8.824059 0.150544 0.091743 0.000006 -0.000231 -0.174534
 30   2.111085 -0.561179 1.784320 -0.000008 -0.000682 0.000024
 31   2.121290 -0.561289 -1.853599 0.000000 0.000000 -0.000002
 32   -0.810489 -0.093824 3.127092 3.071872 -0.114782 1.239365
 33   14.298673 -0.408176 0.475484 0.000248 0.000062 -1.896136
 34   15.835795 0.581398 0.242756 -0.214729 0.106889 -0.097869
 35   -0.815868 -0.091229 -3.114430 0.066464 3.132725 -1.010185
 36   14.294526 -0.410349 -0.463635 0.000033 -0.000000 -2.607695
 37   15.834409 0.579420 -0.284600 -0.006092 -0.035255 0.214458
 38   1.139685 -3.453749 -2.823813 0.000000 0.000000 0.000001
 39   -4.457742 -1.054854 -0.746180 0.000000 0.000000 0.000000
 40   1.118101 -3.449769 3.237290 0.000000 0.000001 0.000000
 41   -4.433840 -1.059130 0.959566 -0.000001 0.000000 0.000000
 42   -0.657468 1.697302 -2.688614 0.000000 0.000002 0.000000
 43   -0.664068 1.698578 2.869377 0.000000 0.000002 0.000000
time 12
  0   -0.967547 0.175787 -20.574476 0.000000 0.000000 -1.572114
  1   -1.093036 0.000002 -0.326057 -1.570757 -1.570379 -0.000171
  2   2.262337 0.113614 0.064702 0.069482 0.005945 -0.101155
  3   2.380047 0.353302 0.047440 0.331507 -0.002785 -0.006591
  4   2.033756 0.190472 -0.000128 0.415206 0.056531 -0.142331
  5   2.451511 0.204909 -0.003447 -0.104670 -0.001781 -0.032158
  6   7.247600 -0.397300 -0.109469 0.000001 0.000033 0.418409
  7   -2.022252 -0.104661 3.136172 -0.298879 -1.361862 -2.901749
  8   1.168026 -0.537438 -0.063437 -0.497783 1.148742 -0.455285
  9   6.790376 -0.619176 0.015206 0.000619 -0.226734 -0.418242
 10   8.637599 0.544015 -0.090417 -1.015304 0.064136 -0.818986
 11   6.790465 -0.619039 0.017802 -0.010327 -0.169923 -0.306571
 12   -2.022474 -0.104699 -2.873818 0.298873 1.361829 -2.901792
 13   1.167898 -0.537463 0.063297 1.183331 -0.244307 -0.981178
 14   7.002743 -0.617765 -0.183752 0.047142 0.002238 -0.377051
 15   8.209042 0.615527 -0.255885 1.570090 -0.000063 -0.121905
 16   7.002735 -0.617911 -0.183641 0.047532 0.002180 -0.282522
 17   1.574674 0.609930 -0.000899 -0.761587 0.006635 -0.134103
 18   -0.602177 0.511412 -0.000006 0.000000 0.000000 0.000000
 19   3.673773 0.177020 1.119313 -0.000002 -0.000014 -0.174510
 20   3.673767 0.176993 -1.117566 0.000007 -0.000003 -0.174546
 21   3.942357 1.330634 1.627658 0.000002 -0.000011 -0.000026
 22   -0.246060 -0.011889 0.516521 -0.000011 0.000031 0.000025
 23   3.942374 1.330659 -1.631083 0.000019 0.000002 -0.000024
 24   -0.246150 -0.011872 -0.516511 -0.000005 -0.000006 0.000048
 25   4.941364 1.997338 1.629330 0.000018 0.261736 -0.000024
 26   4.941382 1.997366 -1.629410 -0.000001 -0.261744 -0.000024
 27   2.918368 1.615358 1.514501 -0.000019 -0.000022 -0.000050
 28   2.920798 1.614964 -1.501142 -0.000002 -0.000009 -0.000024
 29   8.824059 0.150544 0.091743 0.000006 -0.000231 -0.174534
 30   2.111085 -0.561179 1.784320 -0.000008 -0.000682 0.000024
 31   2.121290 -0.561289 -1.853599 0.000000 0.000000 -0.000002
 32   -0.810489 -0.093824 3.127092 3.071872 -0.114782 1.239365
 33   14.298673 -0.408176 0.475484 0.000248 0.000062 -1.896136
 34   15.835795 0.581398 0.242756 -0.214729 0.106889 -0.097869
 35   -0.815868 -0.091229 -3.114430 0.066464 3.132725 -1.010185
 36   14.294526 -0.410349 -0.463635 0.000033 -0.000000 -2.607695
 37   15.834409 0.579420 -0.284600 -0.006092 -0.035255 0.214458
 38   1.139685 -3.453749 -2.823813 0.000000 0.000000 0.000001
 39   -4.457742 -1.054854 -0.746180 0.000000 0.000000 0.000000
 40   1.118101 -3.449769 3.237290 0.000000 0.000001 0.000000
 41   -4.433840 -1.059130 0.959566 -0.000001 0.000000 0.000000
 42   -0.657468 1.697302 -2.688614 0.000000 0.000002 0.000000
 43   -0.664068 1.698578 2.869377 0.000000 0.000002 0.000000
time 13
  0   -0.967547 0.175787 -20.574476 0.000000 0.000000 -1.572114
  1   -1.093036 0.000002 -0.326057 -1.570757 -1.570379 -0.000171
  2   2.262337 0.113614 0.064702 0.069482 0.005945 -0.102366
  3   2.380047 0.353302 0.047440 0.331507 -0.002785 -0.007897
  4   2.033756 0.190472 -0.000128 0.415206 0.056531 -0.143636
  5   2.451511 0.204909 -0.003447 -0.104670 -0.001781 -0.033421
  6   7.247600 -0.397300 -0.109469 0.000001 0.000033 0.418409
  7   -2.022252 -0.104661 3.136172 -0.298879 -1.361862 -2.901749
  8   1.168026 -0.537438 -0.063437 -0.508667 1.146528 -0.465217
  9   6.790376 -0.619176 0.015206 0.000619 -0.226734 -0.418242
 10   8.637599 0.544015 -0.090417 -1.015304 0.064136 -0.818986
 11   6.790465 -0.619039 0.017802 -0.010327 -0.169923 -0.306571
 12   -2.022474 -0.104699 -2.873818 0.298873 1.361829 -2.901792
 13   1.167898 -0.537463 0.063297 1.180519 -0.248477 -0.980633
 14   7.002743 -0.617765 -0.183752 0.047142 0.002238 -0.377051
 15   8.209042 0.615527 -0.255885 1.570090 -0.000063 -0.121905
 16   7.002735 -0.617911 -0.183641 0.047579 0.002180 -0.282522
 17   1.574674 0.609930 -0.000899 -0.761587 0.006635 -0.129261
 18   -0.602177 0.511412 -0.000006 0.000000 0.000000 0.000000
 19   3.673773 0.177020 1.119313 -0.000002 -0.000014 -0.174510
 20   3.673767 0.176993 -1.117566 0.000007 -0.000003 -0.174546
 21   3.942357 1.330634 1.627658 0.000002 -0.000011 -0.000026
 22   -0.246060 -0.011889 0.516521 -0.000011 0.000031 0.000025
 23   3.942374 1.330659 -1.631083 0.000019 0.000002 -0.000024
 24   -0.246150 -0.011872 -0.516511 -0.000005 -0.000006 0.000048
 25   4.941364 1.997338 1.629330 0.000018 0.261736 -0.000024
 26   4.941382 1.997366 -1.629410 -0.000001 -0.261744 -0.000024
 27   2.918368 1.615358 1.514501 -0.000019 -0.000022 -0.000050
 28   2.920798 1.614964 -1.501142 -0.000002 -0.000009 -0.000024
 29   8.824059 0.150544 0.091743 0.000006 -0.000231 -0.174534
 30   2.111085 -0.561179 1.784320 -0.000008 -0.000682 0.000024
 31   2.121290 -0.561289 -1.853599 0.000000 0.000000 -0.000002
 32   -0.810489 -0.093824 3.127092 3.071872 -0.114782 1.239365
 33   14.298673 -0.408176 0.475484 0.000248 0.000062 -1.896136
 34   15.835795 0.581398 0.242756 -0.214729 0.106889 -0.097869
 35   -0.815868 -0.091229 -3.114430 0.066464 3.132725 -1.010185
 36   14.294526 -0.410349 -0.463635 0.000033 -0.000000 -2.607695
 37   15.834409 0.579420 -0.284600 -0.006092 -0.035255 0.214458
 38   1.139685 -3.453749 -2.823813 0.000000 0.000000 0.000001
 39   -4.457742 -1.054854 -0.746180 0.000000 0.000000 0.000000
 40   1.118101 -3.449769 3.237290 0.000000 0.000001 0.000000
 41   -4.433840 -1.059130 0.959566 -0.000001 0.000000 0.000000
 42   -0.657468 1.697302 -2.688614 0.000000 0.000002 0.000000
 43   -0.664068 1.698578 2.869377 0.000000 0.000002 0.000000
time 14
  0   -0.967547 0.175787 -20.574476 0.000000 0.000000 -1.572114
  1   -1.093036 0.000002 -0.326057 -1.570757 -1.570379 -0.000171
  2   2.262337 0.113614 0.064702 0.069482 0.005945 -0.103595
  3   2.380047 0.353302 0.047440 0.331507 -0.002785 -0.009040
  4   2.033756 0.190472 -0.000128 0.415206 0.056531 -0.144941
  5   2.451511 0.204909 -0.003447 -0.104670 -0.001781 -0.034684
  6   7.247600 -0.397300 -0.109469 0.000001 0.000033 0.418409
  7   -2.022252 -0.104661 3.136172 -0.298879 -1.361862 -2.901749
  8   1.168026 -0.537438 -0.063437 -0.519488 1.144264 -0.475212
  9   6.790376 -0.619176 0.015206 0.000619 -0.226734 -0.418242
 10   8.637599 0.544015 -0.090417 -1.015304 0.064136 -0.818986
 11   6.790465 -0.619039 0.017802 -0.010327 -0.169923 -0.306571
 12   -2.022474 -0.104699 -2.873818 0.298873 1.361829 -2.901792
 13   1.167898 -0.537463 0.063297 1.177708 -0.252749 -0.979846
 14   7.002743 -0.617765 -0.183752 0.047142 0.002238 -0.377051
 15   8.209042 0.615527 -0.255885 1.570090 -0.000063 -0.121905
 16   7.002735 -0.617911 -0.183641 0.047532 0.002180 -0.282522
 17   1.574674 0.609930 -0.000899 -0.761587 0.006635 -0.124086
 18   -0.602177 0.511412 -0.000006 0.000000 0.000000 0.000000
 19   3.673773 0.177020 1.119313 -0.000002 -0.000014 -0.174510
 20   3.673767 0.176993 -1.117566 0.000007 -0.000003 -0.174546
 21   3.942357 1.330634 1.627658 0.000002 -0.000011 -0.000026
 22   -0.246060 -0.011889 0.516521 -0.000011 0.000031 0.000025
 23   3.942374 1.330659 -1.631083 0.000019 0.000002 -0.000024
 24   -0.246150 -0.011872 -0.516511 -0.000005 -0.000006 0.000048
 25   4.941364 1.997338 1.629330 0.000018 0.261736 -0.000024
 26   4.941382 1.997366 -1.629410 -0.000001 -0.261744 -0.000024
 27   2.918368 1.615358 1.514501 -0.000019 -0.000022 -0.000050
 28   2.920798 1.614964 -1.501142 -0.000002 -0.000009 -0.000024
 29   8.824059 0.150544 0.091743 0.000006 -0.000231 -0.174534
 30   2.111085 -0.561179 1.784320 -0.000008 -0.000682 0.000024
 31   2.121290 -0.561289 -1.853599 0.000000 0.000000 -0.000002
 32   -0.810489 -0.093824 3.127092 3.071872 -0.114782 1.239365
 33   14.298673 -0.408176 0.475484 0.000248 0.000062 -1.896136
 34   15.835795 0.581398 0.242756 -0.214729 0.106889 -0.097869
 35   -0.815868 -0.091229 -3.114430 0.066464 3.132725 -1.010185
 36   14.294526 -0.410349 -0.463635 0.000033 -0.000000 -2.607695
 37   15.834409 0.579420 -0.284600 -0.006092 -0.035255 0.214458
 38   1.139685 -3.453749 -2.823813 0.000000 0.000000 0.000001
 39   -4.457742 -1.054854 -0.746180 0.000000 0.000000 0.000000
 40   1.118101 -3.449769 3.237290 0.000000 0.000001 0.000000
 41   -4.433840 -1.059130 0.959566 -0.000001 0.000000 0.000000
 42   -0.657468 1.697302 -2.688614 0.000000 0.000002 0.000000
 43   -0.664068 1.698578 2.869377 0.000000 0.000002 0.000000
time 15
  0   -0.967547 0.175787 -20.574476 0.000000 0.000000 -1.572114
  1   -1.093036 0.000002 -0.326057 -1.570757 -1.570379 -0.000171
  2   2.262337 0.113614 0.064702 0.069482 0.005945 -0.102438
  3   2.380047 0.353302 0.047440 0.331507 -0.002785 -0.007979
  4   2.033756 0.190472 -0.000128 0.415206 0.056531 -0.143781
  5   2.451511 0.204909 -0.003447 -0.104670 -0.001781 -0.033545
  6   7.247600 -0.397300 -0.109469 0.000001 0.000033 0.418409
  7   -2.022252 -0.104661 3.136172 -0.298879 -1.361862 -2.901749
  8   1.168026 -0.537438 -0.063437 -0.509363 1.146377 -0.465976
  9   6.790376 -0.619176 0.015206 0.000619 -0.226734 -0.418242
 10   8.637599 0.544015 -0.090417 -1.015304 0.064136 -0.818986
 11   6.790465 -0.619039 0.017802 -0.010327 -0.169923 -0.306571
 12   -2.022474 -0.104699 -2.873818 0.298873 1.361829 -2.901792
 13   1.167898 -0.537463 0.063297 1.180449 -0.248681 -0.980633
 14   7.002743 -0.617765 -0.183752 0.047142 0.002238 -0.377051
 15   8.209042 0.615527 -0.255885 1.570090 -0.000063 -0.121905
 16   7.002735 -0.617911 -0.183641 0.047532 0.002180 -0.282522
 17   1.574674 0.609930 -0.000899 -0.761587 0.006635 -0.128743
 18   -0.602177 0.511412 -0.000006 0.000000 0.000000 0.000000
 19   3.673773 0.177020 1.119313 -0.000002 -0.000014 -0.174510
 20   3.673767 0.176993 -1.117566 0.000007 -0.000003 -0.174546
 21   3.942357 1.330634 1.627658 0.000002 -0.000011 -0.000026
 22   -0.246060 -0.011889 0.516521 -0.000011 0.000031 0.000025
 23   3.942374 1.330659 -1.631083 0.000019 0.000002 -0.000024
 24   -0.246150 -0.011872 -0.516511 -0.000005 -0.000006 0.000048
 25   4.941364 1.997338 1.629330 0.000018 0.261736 -0.000024
 26   4.941382 1.997366 -1.629410 -0.000001 -0.261744 -0.000024
 27   2.918368 1.615358 1.514501 -0.000019 -0.000022 -0.000050
 28   2.920798 1.614964 -1.501142 -0.000002 -0.000009 -0.000024
 29   8.824059 0.150544 0.091743 0.000006 -0.000231 -0.174534
 30   2.111085 -0.561179 1.784320 -0.000008 -0.000682 0.000024
 31   2.121290 -0.561289 -1.853599 0.000000 0.000000 -0.000002
 32   -0.810489 -0.093824 3.127092 3.071872 -0.114782 1.239365
 33   14.298673 -0.408176 0.475484 0.000248 0.000062 -1.896136
 34   15.835795 0.581398 0.242756 -0.214729 0.106889 -0.097869
 35   -0.815868 -0.091229 -3.114430 0.066464 3.132725 -1.010185
 36   14.294526 -0.410349 -0.463635 0.000033 -0.000000 -2.607695
 37   15.834409 0.579420 -0.284600 -0.006092 -0.035255 0.214458
 38   1.139685 -3.453749 -2.823813 0.000000 0.000000 0.000001
 39   -4.457742 -1.054854 -0.746180 0.000000 0.000000 0.000000
 40   1.118101 -3.449769 3.237290 0.000000 0.000001 0.000000
 41   -4.433840 -1.059130 0.959566 -0.000001 0.000000 0.000000
 42   -0.657468 1.697302 -2.688614 0.000000 0.000002 0.000000
 43   -0.664068 1.698578 2.869377 0.000000 0.000002 0.000000
time 16
  0   -0.967547 0.175787 -20.574476 0.000000 0.000000 -1.572114
  1   -1.093036 0.000002 -0.326057 -1.570757 -1.570379 -0.000171
  2   2.262337 0.113614 0.064702 0.069482 0.005945 -0.101300
  3   2.380047 0.353302 0.047440 0.331507 -0.002785 -0.006775
  4   2.033756 0.190472 -0.000128 0.415206 0.056531 -0.142621
  5   2.451511 0.204909 -0.003447 -0.104670 -0.001781 -0.032381
  6   7.247600 -0.397300 -0.109469 0.000001 0.000033 0.418409
  7   -2.022252 -0.104661 3.136172 -0.298879 -1.361862 -2.901749
  8   1.168026 -0.537438 -0.063437 -0.499175 1.148591 -0.456740
  9   6.790376 -0.619176 0.015206 0.000619 -0.226734 -0.418242
 10   8.637599 0.544015 -0.090417 -1.015304 0.064136 -0.818986
 11   6.790465 -0.619039 0.017802 -0.010327 -0.169923 -0.306571
 12   -2.022474 -0.104699 -2.873818 0.298873 1.361829 -2.901792
 13   1.167898 -0.537463 0.063297 1.183050 -0.244917 -0.981178
 14   7.002743 -0.617765 -0.183752 0.047142 0.002238 -0.377051
 15   8.209042 0.615527 -0.255885 1.570090 -0.000063 -0.121905
 16   7.002735 -0.617911 -0.183641 0.047532 0.002180 -0.282522
 17   1.574674 0.609930 -0.000899 -0.761587 0.006635 -0.133548
 18   -0.602177 0.511412 -0.000006 0.000000 0.000000 0.000000
 19   3.673773 0.177020 1.119313 -0.000002 -0.000014 -0.174510
 20   3.673767 0.176993 -1.117566 0.000007 -0.000003 -0.174546
 21   3.942357 1.330634 1.627658 0.000002 -0.000011 -0.000026
 22   -0.246060 -0.011889 0.516521 -0.000011 0.000031 0.000025
 23   3.942374 1.330659 -1.631083 0.000019 0.000002 -0.000024
 24   -0.246150 -0.011872 -0.516511 -0.000005 -0.000006 0.000048
 25   4.941364 1.997338 1.629330 0.000018 0.261736 -0.000024
 26   4.941382 1.997366 -1.629410 -0.000001 -0.261744 -0.000024
 27   2.918368 1.615358 1.514501 -0.000019 -0.000022 -0.000050
 28   2.920798 1.614964 -1.501142 -0.000002 -0.000009 -0.000024
 29   8.824059 0.150544 0.091743 0.000006 -0.000231 -0.174534
 30   2.111085 -0.561179 1.784320 -0.000008 -0.000682 0.000024
 31   2.121290 -0.561289 -1.853599 0.000000 0.000000 -0.000002
 32   -0.810489 -0.093824 3.127092 3.071872 -0.114782 1.239365
 33   14.298673 -0.408176 0.475484 0.000248 0.000062 -1.896136
 34   15.835795 0.581398 0.242756 -0.214729 0.106889 -0.097869
 35   -0.815868 -0.091229 -3.114430 0.066464 3.132725 -1.010185
 36   14.294526 -0.410349 -0.463635 0.000033 -0.000000 -2.607695
 37   15.834409 0.579420 -0.284600 -0.006092 -0.035255 0.214458
 38   1.139685 -3.453749 -2.823813 0.000000 0.000000 0.000001
 39   -4.457742 -1.054854 -0.746180 0.000000 0.000000 0.000000
 40   1.118101 -3.449769 3.237290 0.000000 0.000001 0.000000
 41   -4.433840 -1.059130 0.959566 -0.000001 0.000000 0.000000
 42   -0.657468 1.697302 -2.688614 0.000000 0.000002 0.000000
 43   -0.664068 1.698578 2.869377 0.000000 0.000002 0.000000
time 17
  0   -0.967547 0.175787 -20.574476 0.000000 0.000000 -1.572114
  1   -1.093036 0.000002 -0.326057 -1.570757 -1.570379 -0.000171
  2   2.262337 0.113614 0.064702 0.069482 0.005945 -0.100143
  3   2.380047 0.353302 0.047440 0.331507 -0.002785 -0.005673
  4   2.033756 0.190472 -0.000128 0.415206 0.056531 -0.141425
  5   2.451511 0.204909 -0.003447 -0.104670 -0.001781 -0.031217
  6   7.247600 -0.397300 -0.109469 0.000001 0.000033 0.418409
  7   -2.022252 -0.104661 3.136172 -0.298879 -1.361862 -2.901749
  8   1.168026 -0.537438 -0.063437 -0.488987 1.150704 -0.447251
  9   6.790376 -0.619176 0.015206 0.000619 -0.226734 -0.418242
 10   8.637599 0.544015 -0.090417 -1.015304 0.064136 -0.818986
 11   6.790465 -0.619039 0.017802 -0.010327 -0.169923 -0.306571
 12   -2.022474 -0.104699 -2.873818 0.298873 1.361829 -2.901792
 13   1.167898 -0.537463 0.063297 1.185721 -0.241104 -0.981723
 14   7.002743 -0.617765 -0.183752 0.047142 0.002238 -0.377051
 15   8.209042 0.615527 -0.255885 1.570090 -0.000063 -0.121905
 16   7.002735 -0.617911 -0.183641 0.047532 0.002180 -0.282522
 17   1.574674 0.609930 -0.000899 -0.761587 0.006635 -0.138020
 18   -0.602177 0.511412 -0.000006 0.000000 0.000000 0.000000
 19   3.673773 0.177020 1.119313 -0.000002 -0.000014 -0.174510
 20   3.673767 0.176993 -1.117566 0.000007 -0.000003 -0.174546
 21   3.942357 1.330634 1.627658 0.000002 -0.000011 -0.000026
 22   -0.246060 -0.011889 0.516521 -0.000011 0.000031 0.000025
 23   3.942374 1.330659 -1.631083 0.000019 0.000002 -0.000024
 24   -0.246150 -0.011872 -0.516511 -0.000005 -0.000006 0.000048
 25   4.941364 1.997338 1.629330 0.000018 0.261736 -0.000024
 26   4.941382 1.997366 -1.629410 -0.000001 -0.261744 -0.000024
 27   2.918368 1.615358 1.514501 -0.000019 -0.000022 -0.000050
 28   2.920798 1.614964 -1.501142 -0.000002 -0.000009 -0.000024
 29   8.824059 0.150544 0.091743 0.000006 -0.000231 -0.174534
 30   2.111085 -0.561179 1.784320 -0.000008 -0.000682 0.000024
 31   2.121290 -0.561289 -1.853599 0.000000 0.000000 -0.000002
 32   -0.810489 -0.093824 3.127092 3.071872 -0.114782 1.239365
 33   14.298673 -0.408176 0.475484 0.000248 0.000062 -1.896136
 34   15.835795 0.581398 0.242756 -0.214729 0.106889 -0.097869
 35   -0.815868 -0.091229 -3.114430 0.066464 3.132725 -1.010185
 36   14.294526 -0.410349 -0.463635 0.000033 -0.000000 -2.607695
 37   15.834409 0.579420 -0.284600 -0.006092 -0.035255 0.214458
 38   1.139685 -3.453749 -2.823813 0.000000 0.000000 0.000001
 39   -4.457742 -1.054854 -0.746180 0.000000 0.000000 0.000000
 40   1.118101 -3.449769 3.237290 0.000000 0.000001 0.000000
 41   -4.433840 -1.059130 0.959566 -0.000001 0.000000 0.000000
 42   -0.657468 1.697302 -2.688614 0.000000 0.000002 0.000000
 43   -0.664068 1.698578 2.869377 0.000000 0.000002 0.000000
time 18
  0   -0.967547 0.175787 -20.574476 0.000000 0.000000 -1.572114
  1   -1.093036 0.000002 -0.326057 -1.570757 -1.570379 -0.000171
  2   2.262337 0.113614 0.064702 0.069482 0.005945 -0.098932
  3   2.380047 0.353302 0.047440 0.331507 -0.002785 -0.004449
  4   2.033756 0.190472 -0.000128 0.415206 0.056531 -0.140192
  5   2.451511 0.204909 -0.003447 -0.104670 -0.001781 -0.030053
  6   7.247600 -0.397300 -0.109469 0.000001 0.000033 0.418409
  7   -2.022252 -0.104661 3.136172 -0.298879 -1.361862 -2.901749
  8   1.168026 -0.537438 -0.063437 -0.478672 1.152566 -0.437762
  9   6.790376 -0.619176 0.015206 0.000619 -0.226734 -0.418242
 10   8.637599 0.544015 -0.090417 -1.015304 0.064136 -0.818986
 11   6.790465 -0.619039 0.017802 -0.010327 -0.169923 -0.306571
 12   -2.022474 -0.104699 -2.873818 0.298873 1.361829 -2.901792
 13   1.167898 -0.537463 0.063297 1.188322 -0.237188 -0.982328
 14   7.002743 -0.617765 -0.183752 0.047142 0.002238 -0.377051
 15   8.209042 0.615527 -0.255885 1.570090 -0.000063 -0.121905
 16   7.002735 -0.617911 -0.183641 0.047532 0.002180 -0.282522
 17   1.574674 0.609930 -0.000899 -0.761587 0.006635 -0.142825
 18   -0.602177 0.511412 -0.000006 0.000000 0.000000 0.000000
 19   3.673773 0.177020 1.119313 -0.000002 -0.000014 -0.174510
 20   3.673767 0.176993 -1.117566 0.000007 -0.000003 -0.174546
 21   3.942357 1.330634 1.627658 0.000002 -0.000011 -0.000026
 22   -0.246060 -0.011889 0.516521 -0.000011 0.000031 0.000025
 23   3.942374 1.330659 -1.631083 0.000019 0.000002 -0.000024
 24   -0.246150 -0.011872 -0.516511 -0.000005 -0.000006 0.000048
 25   4.941364 1.997338 1.629330 0.000018 0.261736 -0.000024
 26   4.941382 1.997366 -1.629410 -0.000001 -0.261744 -0.000024
 27   2.918368 1.615358 1.514501 -0.000019 -0.000022 -0.000050
 28   2.920798 1.614964 -1.501142 -0.000002 -0.000009 -0.000024
 29   8.824059 0.150544 0.091743 0.000006 -0.000231 -0.174534
 30   2.111085 -0.561179 1.784320 -0.000008 -0.000682 0.000024
 31   2.121290 -0.561289 -1.853599 0.000000 0.000000 -0.000002
 32   -0.810489 -0.093824 3.127092 3.071872 -0.114782 1.239365
 33   14.298673 -0.408176 0.475484 0.000248 0.000062 -1.896136
 34   15.835795 0.581398 0.242756 -0.214729 0.106889 -0.097869
 35   -0.815868 -0.091229 -3.114430 0.066464 3.132725 -1.010185
 36   14.294526 -0.410349 -0.463635 0.000033 -0.000000 -2.607695
 37   15.834409 0.579420 -0.284600 -0.006092 -0.035255 0.214458
 38   1.139685 -3.453749 -2.823813 0.000000 0.000000 0.000001
 39   -4.457742 -1.054854 -0.746180 0.000000 0.000000 0.000000
 40   1.118101 -3.449769 3.237290 0.000000 0.000001 0.000000
 41   -4.433840 -1.059130 0.959566 -0.000001 0.000000 0.000000
 42   -0.657468 1.697302 -2.688614 0.000000 0.000002 0.000000
 43   -0.664068 1.698578 2.869377 0.000000 0.000002 0.000000
time 19
  0   -0.967547 0.175787 -20.574476 0.000000 0.000000 -1.572114
  1   -1.093036 0.000002 -0.326057 -1.570757 -1.570379 -0.000171
  2   2.262337 0.113614 0.064702 0.069482 0.005945 -0.097758
  3   2.380047 0.353302 0.047440 0.331507 -0.002785 -0.003306
  4   2.033756 0.190472 -0.000128 0.415206 0.056531 -0.139286
  5   2.451511 0.204909 -0.003447 -0.104670 -0.001781 -0.028790
  6   7.247600 -0.397300 -0.109469 0.000001 0.000033 0.418409
  7   -2.022252 -0.104661 3.136172 -0.298879 -1.361862 -2.901749
  8   1.168026 -0.537438 -0.063437 -0.468294 1.154679 -0.428336
  9   6.790376 -0.619176 0.015206 0.000619 -0.226734 -0.418242
 10   8.637599 0.544015 -0.090417 -1.015304 0.064136 -0.818986
 11   6.790465 -0.619039 0.017802 -0.010327 -0.169923 -0.306571
 12   -2.022474 -0.104699 -2.873818 0.298873 1.361829 -2.901792
 13   1.167898 -0.537463 0.063297 1.190853 -0.233323 -0.982994
 14   7.002743 -0.617765 -0.183752 0.047142 0.002238 -0.377051
 15   8.209042 0.615527 -0.255885 1.570090 -0.000063 -0.121905
 16   7.002735 -0.617911 -0.183641 0.047579 0.002180 -0.282522
 17   1.574674 0.609930 -0.000899 -0.761587 0.006635 -0.147445
 18   -0.602177 0.511412 -0.000006 0.000000 0.000000 0.000000
 19   3.673773 0.177020 1.119313 -0.000002 -0.000014 -0.174510
 20   3.673767 0.176993 -1.117566 0.000007 -0.000003 -0.174546
 21   3.942357 1.330634 1.627658 0.000002 -0.000011 -0.000026
 22   -0.246060 -0.011889 0.516521 -0.000011 0.000031 0.000025
 23   3.942374 1.330659 -1.631083 0.000019 0.000002 -0.000024
 24   -0.246150 -0.011872 -0.516511 -0.000005 -0.000006 0.000048
 25   4.941364 1.997338 1.629330 0.000018 0.261736 -0.000024
 26   4.941382 1.997366 -1.629410 -0.000001 -0.261744 -0.000024
 27   2.918368 1.615358 1.514501 -0.000019 -0.000022 -0.000050
 28   2.920798 1.614964 -1.501142 -0.000002 -0.000009 -0.000024
 29   8.824059 0.150544 0.091743 0.000006 -0.000231 -0.174534
 30   2.111085 -0.561179 1.784320 -0.000008 -0.000682 0.000024
 31   2.121290 -0.561289 -1.853599 0.000000 0.000000 -0.000002
 32   -0.810489 -0.093824 3.127092 3.071872 -0.114782 1.239365
 33   14.298673 -0.408176 0.475484 0.000248 0.000062 -1.896136
 34   15.835795 0.581398 0.242756 -0.214729 0.106889 -0.097869
 35   -0.815868 -0.091229 -3.114430 0.066464 3.132725 -1.010185
 36   14.294526 -0.410349 -0.463635 0.000033 -0.000000 -2.607695
 37   15.834409 0.579420 -0.284600 -0.006092 -0.035255 0.214458
 38   1.139685 -3.453749 -2.823813 0.000000 0.000000 0.000001
 39   -4.457742 -1.054854 -0.746180 0.000000 0.000000 0.000000
 40   1.118101 -3.449769 3.237290 0.000000 0.000001 0.000000
 41   -4.433840 -1.059130 0.959566 -0.000001 0.000000 0.000000
 42   -0.657468 1.697302 -2.688614 0.000000 0.000002 0.000000
 43   -0.664068 1.698578 2.869377 0.000000 0.000002 0.000000
time 20
  0   -0.967547 0.175787 -20.574476 0.000000 0.000000 -1.572114
  1   -1.093036 0.000002 -0.326057 -1.570757 -1.570379 -0.000171
  2   2.262337 0.113614 0.064702 0.069482 0.005945 -0.096619
  3   2.380047 0.353302 0.047440 0.331507 -0.002785 -0.002163
  4   2.033756 0.190472 -0.000128 0.415206 0.056531 -0.138271
  5   2.451511 0.204909 -0.003447 -0.104670 -0.001781 -0.027626
  6   7.247600 -0.397300 -0.109469 0.000001 0.000033 0.418409
  7   -2.022252 -0.104661 3.136172 -0.298879 -1.361862 -2.901749
  8   1.168026 -0.537438 -0.063437 -0.457663 1.156440 -0.418594
  9   6.790376 -0.619176 0.015206 0.000619 -0.226734 -0.418242
 10   8.637599 0.544015 -0.090417 -1.015304 0.064136 -0.818986
 11   6.790465 -0.619039 0.017802 -0.010327 -0.169923 -0.306571
 12   -2.022474 -0.104699 -2.873818 0.298873 1.361829 -2.901792
 13   1.167898 -0.537463 0.063297 1.193735 -0.229458 -0.983781
 14   7.002743 -0.617765 -0.183752 0.047142 0.002238 -0.377051
 15   8.209042 0.615527 -0.255885 1.570090 -0.000063 -0.121905
 16   7.002735 -0.617911 -0.183641 0.047532 0.002180 -0.282522
 17   1.574674 0.609930 -0.000899 -0.761587 0.006635 -0.152103
 18   -0.602177 0.511412 -0.000006 0.000000 0.000000 0.000000
 19   3.673773 0.177020 1.119313 -0.000002 -0.000014 -0.174510
 20   3.673767 0.176993 -1.117566 0.000007 -0.000003 -0.174546
 21   3.942357 1.330634 1.627658 0.000002 -0.000011 -0.000026
 22   -0.246060 -0.011889 0.516521 -0.000011 0.000031 0.000025
 23   3.942374 1.330659 -1.631083 0.000019 0.000002 -0.000024
 24   -0.246150 -0.011872 -0.516511 -0.000005 -0.000006 0.000048
 25   4.941364 1.997338 1.629330 0.000018 0.261736 -0.000024
 26   4.941382 1.997366 -1.629410 -0.000001 -0.261744 -0.000024
 27   2.918368 1.615358 1.514501 -0.000019 -0.000022 -0.000050
 28   2.920798 1.614964 -1.501142 -0.000002 -0.000009 -0.000024
 29   8.824059 0.150544 0.091743 0.000006 -0.000231 -0.174534
 30   2.111085 -0.561179 1.784320 -0.000008 -0.000682 0.000024
 31   2.121290 -0.561289 -1.853599 0.000000 0.000000 -0.000002
 32   -0.810489 -0.093824 3.127092 3.071872 -0.114782 1.239365
 33   14.298673 -0.408176 0.475484 0.000248 0.000062 -1.896136
 34   15.835795 0.581398 0.242756 -0.214729 0.106889 -0.097869
 35   -0.815868 -0.091229 -3.114430 0.066464 3.132725 -1.010185
 36   14.294526 -0.410349 -0.463635 0.000033 -0.000000 -2.607695
 37   15.834409 0.579420 -0.284600 -0.006092 -0.035255 0.214458
 38   1.139685 -3.453749 -2.823813 0.000000 0.000000 0.000001
 39   -4.457742 -1.054854 -0.746180 0.000000 0.000000 0.000000
 40   1.118101 -3.449769 3.237290 0.000000 0.000001 0.000000
 41   -4.433840 -1.059130 0.959566 -0.000001 0.000000 0.000000
 42   -0.657468 1.697302 -2.688614 0.000000 0.000002 0.000000
 43   -0.664068 1.698578 2.869377 0.000000 0.000002 0.000000
time 21
  0   -0.967547 0.175787 -20.574476 0.000000 0.000000 -1.572114
  1   -1.093036 0.000002 -0.326057 -1.570757 -1.570379 -0.000171
  2   2.262337 0.113614 0.064702 0.069482 0.005945 -0.095463
  3   2.380047 0.353302 0.047440 0.331507 -0.002785 -0.000980
  4   2.033756 0.190472 -0.000128 0.415206 0.056531 -0.137111
  5   2.451511 0.204909 -0.003447 -0.104670 -0.001781 -0.026561
  6   7.247600 -0.397300 -0.109469 0.000001 0.000033 0.418409
  7   -2.022252 -0.104661 3.136172 -0.298879 -1.361862 -2.901749
  8   1.168026 -0.537438 -0.063437 -0.447095 1.158352 -0.409105
  9   6.790376 -0.619176 0.015206 0.000619 -0.226734 -0.418242
 10   8.637599 0.544015 -0.090417 -1.015304 0.064136 -0.818986
 11   6.790465 -0.619039 0.017802 -0.010327 -0.169923 -0.306571
 12   -2.022474 -0.104699 -2.873818 0.298873 1.361829 -2.901697
 13   1.167898 -0.537463 0.063297 1.196265 -0.225593 -0.984144
 14   7.002743 -0.617765 -0.183752 0.047142 0.002238 -0.377051
 15   8.209042 0.615527 -0.255885 1.570090 -0.000063 -0.121905
 16   7.002735 -0.617911 -0.183641 0.047532 0.002180 -0.282522
 17   1.574674 0.609930 -0.000899 -0.761587 0.006635 -0.156834
 18   -0.602177 0.511412 -0.000006 0.000000 0.000000 0.000000
 19   3.673773 0.177020 1.119313 -0.000002 -0.000014 -0.174510
 20   3.673767 0.176993 -1.117566 0.000007 -0.000003 -0.174546
 21   3.942357 1.330634 1.627658 0.000002 -0.000011 -0.000026
 22   -0.246060 -0.011889 0.516521 -0.000011 0.000031 0.000025
 23   3.942374 1.330659 -1.631083 0.000019 0.000002 -0.000024
 24   -0.246150 -0.011872 -0.516511 -0.000005 -0.000006 0.000048
 25   4.941364 1.997338 1.629330 0.000018 0.261736 -0.000024
 26   4.941382 1.997366 -1.629410 -0.000001 -0.261744 -0.000024
 27   2.918368 1.615358 1.514501 -0.000019 -0.000022 -0.000050
 28   2.920798 1.614964 -1.501142 -0.000002 -0.000009 -0.000024
 29   8.824059 0.150544 0.091743 0.000006 -0.000231 -0.174534
 30   2.111085 -0.561179 1.784320 -0.000008 -0.000682 0.000024
 31   2.121290 -0.561289 -1.853599 0.000000 0.000000 -0.000002
 32   -0.810489 -0.093824 3.127092 3.071872 -0.114782 1.239365
 33   14.298673 -0.408176 0.475484 0.000248 0.000062 -1.896136
 34   15.835795 0.581398 0.242756 -0.214729 0.106889 -0.097869
 35   -0.815868 -0.091229 -3.114430 0.066464 3.132725 -1.010185
 36   14.294526 -0.410349 -0.463635 0.000033 -0.000000 -2.607695
 37   15.834409 0.579420 -0.284600 -0.006092 -0.035255 0.214458
 38   1.139685 -3.453749 -2.823813 0.000000 0.000000 0.000001
 39   -4.457742 -1.054854 -0.746180 0.000000 0.000000 0.000000
 40   1.118101 -3.449769 3.237290 0.000000 0.000001 0.000000
 41   -4.433840 -1.059130 0.959566 -0.000001 0.000000 0.000000
 42   -0.657468 1.697302 -2.688614 0.000000 0.000002 0.000000
 43   -0.664068 1.698578 2.869377 0.000000 0.000002 0.000000
time 22
  0   -0.967547 0.175787 -20.574476 0.000000 0.000000 -1.572114
  1   -1.093036 0.000002 -0.326057 -1.570757 -1.570379 -0.000171
  2   2.262337 0.113614 0.064702 0.069482 0.005945 -0.094324
  3   2.380047 0.353302 0.047440 0.331507 -0.002785 0.000204
  4   2.033756 0.190472 -0.000128 0.415206 0.056531 -0.135915
  5   2.451511 0.204909 -0.003447 -0.104670 -0.001781 -0.025397
  6   7.247600 -0.397300 -0.109469 0.000001 0.000033 0.418409
  7   -2.022252 -0.104661 3.136172 -0.298879 -1.361862 -2.901749
  8   1.168026 -0.537438 -0.063437 -0.436464 1.160113 -0.399173
  9   6.790376 -0.619176 0.015206 0.000619 -0.226734 -0.418242
 10   8.637599 0.544015 -0.090417 -1.015304 0.064136 -0.818986
 11   6.790465 -0.619039 0.017802 -0.010327 -0.169923 -0.306571
 12   -2.022474 -0.104699 -2.873818 0.298873 1.361829 -2.901792
 13   1.167898 -0.537463 0.063297 1.198866 -0.221678 -0.984689
 14   7.002743 -0.617765 -0.183752 0.047142 0.002238 -0.377051
 15   8.209042 0.615527 -0.255885 1.570090 -0.000063 -0.121905
 16   7.002735 -0.617911 -0.183641 0.047532 0.002180 -0.282522
 17   1.574674 0.609930 -0.000899 -0.761587 0.006635 -0.161454
 18   -0.602177 0.511412 -0.000006 0.000000 0.000000 0.000000
 19   3.673773 0.177020 1.119313 -0.000002 -0.000014 -0.174510
 20   3.673767 0.176993 -1.117566 0.000007 -0.000003 -0.174546
 21   3.942357 1.330634 1.627658 0.000002 -0.000011 -0.000026
 22   -0.246060 -0.011889 0.516521 -0.000011 0.000031 0.000025
 23   3.942374 1.330659 -1.631083 0.000019 0.000002 -0.000024
 24   -0.246150 -0.011872 -0.516511 -0.000005 -0.000006 0.000048
 25   4.941364 1.997338 1.629330 0.000018 0.261736 -0.000024
 26   4.941382 1.997366 -1.629410 -0.000001 -0.261744 -0.000024
 27   2.918368 1.615358 1.514501 -0.000019 -0.000022 -0.000050
 28   2.920798 1.614964 -1.501142 -0.000002 -0.000009 -0.000024
 29   8.824059 0.150544 0.091743 0.000006 -0.000231 -0.174534
 30   2.111085 -0.561179 1.784320 -0.000008 -0.000682 0.000024
 31   2.121290 -0.561289 -1.853599 0.000000 0.000000 -0.000002
 32   -0.810489 -0.093824 3.127092 3.071872 -0.114782 1.239365
 33   14.298673 -0.408176 0.475484 0.000248 0.000062 -1.896136
 34   15.835795 0.581398 0.242756 -0.214729 0.106889 -0.097869
 35   -0.815868 -0.091229 -3.114430 0.066464 3.132725 -1.010185
 36   14.294526 -0.410349 -0.463635 0.000033 -0.000000 -2.607695
 37   15.834409 0.579420 -0.284600 -0.006092 -0.035255 0.214458
 38   1.139685 -3.453749 -2.823813 0.000000 0.000000 0.000001
 39   -4.457742 -1.054854 -0.746180 0.000000 0.000000 0.000000
 40   1.118101 -3.449769 3.237290 0.000000 0.000001 0.000000
 41   -4.433840 -1.059130 0.959566 -0.000001 0.000000 0.000000
 42   -0.657468 1.697302 -2.688614 0.000000 0.000002 0.000000
 43   -0.664068 1.698578 2.869377 0.000000 0.000002 0.000000
time 23
  0   -0.967547 0.175787 -20.574476 0.000000 0.000000 -1.572114
  1   -1.093036 0.000002 -0.326057 -1.570757 -1.570379 -0.000171
  2   2.262337 0.113614 0.064702 0.069482 0.005945 -0.093204
  3   2.380047 0.353302 0.047440 0.331507 -0.002785 0.001387
  4   2.033756 0.190472 -0.000128 0.415206 0.056531 -0.134755
  5   2.451511 0.204909 -0.003447 -0.104670 -0.001781 -0.024233
  6   7.247600 -0.397300 -0.109469 0.000001 0.000033 0.418409
  7   -2.022252 -0.104661 3.136172 -0.298879 -1.361862 -2.901749
  8   1.168026 -0.537438 -0.063437 -0.425643 1.161874 -0.389431
  9   6.790376 -0.619176 0.015206 0.000619 -0.226734 -0.418242
 10   8.637599 0.544015 -0.090417 -1.015304 0.064136 -0.818986
 11   6.790465 -0.619039 0.017802 -0.010327 -0.169923 -0.306571
 12   -2.022474 -0.104699 -2.873818 0.298873 1.361829 -2.901792
 13   1.167898 -0.537463 0.063297 1.201467 -0.217813 -0.985355
 14   7.002743 -0.617765 -0.183752 0.047142 0.002238 -0.377051
 15   8.209042 0.615527 -0.255885 1.570090 -0.000063 -0.121905
 16   7.002735 -0.617911 -0.183641 0.047532 0.002180 -0.282522
 17   1.574674 0.609930 -0.000899 -0.761587 0.006635 -0.166222
 18   -0.602177 0.511412 -0.000006 0.000000 0.000000 0.000000
 19   3.673773 0.177020 1.119313 -0.000002 -0.000014 -0.174510
 20   3.673767 0.176993 -1.117566 0.000007 -0.000003 -0.174546
 21   3.942357 1.330634 1.627658 0.000002 -0.000011 -0.000026
 22   -0.246060 -0.011889 0.516521 -0.000011 0.000031 0.000025
 23   3.942374 1.330659 -1.631083 0.000019 0.000002 -0.000024
 24   -0.246150 -0.011872 -0.516511 -0.000005 -0.000006 0.000048
 25   4.941364 1.997338 1.629330 0.000018 0.261736 -0.000024
 26   4.941382 1.997366 -1.629410 -0.000001 -0.261744 -0.000024
 27   2.918368 1.615358 1.514501 -0.000019 -0.000022 -0.000050
 28   2.920798 1.614964 -1.501142 -0.000002 -0.000009 -0.000024
 29   8.824059 0.150544 0.091743 0.000006 -0.000231 -0.174534
 30   2.111085 -0.561179 1.784320 -0.000008 -0.000682 0.000024
 31   2.121290 -0.561289 -1.853599 0.000000 0.000000 -0.000002
 32   -0.810489 -0.093824 3.127092 3.071872 -0.114782 1.239365
 33   14.298673 -0.408176 0.475484 0.000248 0.000062 -1.896136
 34   15.835795 0.581398 0.242756 -0.214729 0.106889 -0.097869
 35   -0.815868 -0.091229 -3.114430 0.066464 3.132725 -1.010185
 36   14.294526 -0.410349 -0.463635 0.000033 -0.000000 -2.607695
 37   15.834409 0.579420 -0.284600 -0.006092 -0.035255 0.214458
 38   1.139685 -3.453749 -2.823813 0.000000 0.000000 0.000001
 39   -4.457742 -1.054854 -0.746180 0.000000 0.000000 0.000000
 40   1.118101 -3.449769 3.237290 0.000000 0.000001 0.000000
 41   -4.433840 -1.059130 0.959566 -0.000001 0.000000 0.000000
 42   -0.657468 1.697302 -2.688614 0.000000 0.000002 0.000000
 43   -0.664068 1.698578 2.869377 0.000000 0.000002 0.000000
time 24
  0   -0.967547 0.175787 -20.574476 0.000000 0.000000 -1.572114
  1   -1.093036 0.000002 -0.326057 -1.570757 -1.570379 -0.000171
  2   2.262337 0.113614 0.064702 0.069482 0.005945 -0.092011
  3   2.380047 0.353302 0.047440 0.331507 -0.002785 0.002489
  4   2.033756 0.190472 -0.000128 0.415206 0.056531 -0.133559
  5   2.451511 0.204909 -0.003447 -0.104670 -0.001781 -0.023094
  6   7.247600 -0.397300 -0.109469 0.000001 0.000033 0.418409
  7   -2.022252 -0.104661 3.136172 -0.298879 -1.361862 -2.901749
  8   1.168026 -0.537438 -0.063437 -0.414696 1.163635 -0.379436
  9   6.790376 -0.619176 0.015206 0.000619 -0.226734 -0.418242
 10   8.637599 0.544015 -0.090417 -1.015304 0.064136 -0.818986
 11   6.790465 -0.619039 0.017802 -0.010327 -0.169923 -0.306571
 12   -2.022474 -0.104699 -2.873818 0.298873 1.361829 -2.901697
 13   1.167898 -0.537463 0.063297 1.204279 -0.213897 -0.986021
 14   7.002743 -0.617765 -0.183752 0.047142 0.002238 -0.377051
 15   8.209042 0.615527 -0.255885 1.570090 -0.000063 -0.121905
 16   7.002735 -0.617911 -0.183641 0.047532 0.002180 -0.282522
 17   1.574674 0.609930 -0.000899 -0.761587 0.006635 -0.170842
 18   -0.602177 0.511412 -0.000006 0.000000 0.000000 0.000000
 19   3.673773 0.177020 1.119313 -0.000002 -0.000014 -0.174510
 20   3.673767 0.176993 -1.117566 0.000007 -0.000003 -0.174546
 21   3.942357 1.330634 1.627658 0.000002 -0.000011 -0.000026
 22   -0.246060 -0.011889 0.516521 -0.000011 0.000031 0.000025
 23   3.942374 1.330659 -1.631083 0.000019 0.000002 -0.000024
 24   -0.246150 -0.011872 -0.516511 -0.000005 -0.000006 0.000048
 25   4.941364 1.997338 1.629330 0.000018 0.261736 -0.000024
 26   4.941382 1.997366 -1.629410 -0.000001 -0.261744 -0.000024
 27   2.918368 1.615358 1.514501 -0.000019 -0.000022 -0.000050
 28   2.920798 1.614964 -1.501142 -0.000002 -0.000009 -0.000024
 29   8.824059 0.150544 0.091743 0.000006 -0.000231 -0.174534
 30   2.111085 -0.561179 1.784320 -0.000008 -0.000682 0.000024
 31   2.121290 -0.561289 -1.853599 0.000000 0.000000 -0.000002
 32   -0.810489 -0.093824 3.127092 3.071872 -0.114782 1.239365
 33   14.298673 -0.408176 0.475484 0.000248 0.000062 -1.896136
 34   15.835795 0.581398 0.242756 -0.214729 0.106889 -0.097869
 35   -0.815868 -0.091229 -3.114430 0.066464 3.132725 -1.010185
 36   14.294526 -0.410349 -0.463635 0.000033 -0.000000 -2.607695
 37   15.834409 0.579420 -0.284600 -0.006092 -0.035255 0.214458
 38   1.139685 -3.453749 -2.823813 0.000000 0.000000 0.000001
 39   -4.457742 -1.054854 -0.746180 0.000000 0.000000 0.000000
 40   1.118101 -3.449769 3.237290 0.000000 0.000001 0.000000
 41   -4.433840 -1.059130 0.959566 -0.000001 0.000000 0.000000
 42   -0.657468 1.697302 -2.688614 0.000000 0.000002 0.000000
 43   -0.664068 1.698578 2.869377 0.000000 0.000002 0.000000
time 25
  0   -0.967547 0.175787 -20.574476 0.000000 0.000000 -1.572114
  1   -1.093036 0.000002 -0.326057 -1.570757 -1.570379 -0.000171
  2   2.262337 0.113614 0.064702 0.069482 0.005945 -0.090801
  3   2.380047 0.353302 0.047440 0.331507 -0.002785 0.003693
  4   2.033756 0.190472 -0.000128 0.415206 0.056531 -0.132399
  5   2.451511 0.204909 -0.003447 -0.104670 -0.001781 -0.021831
  6   7.247600 -0.397300 -0.109469 0.000001 0.000033 0.418409
  7   -2.022252 -0.104661 3.136172 -0.298879 -1.361862 -2.901749
  8   1.168026 -0.537438 -0.063437 -0.403875 1.165396 -0.369251
  9   6.790376 -0.619176 0.015206 0.000619 -0.226734 -0.418242
 10   8.637599 0.544015 -0.090417 -1.015304 0.064136 -0.818986
 11   6.790465 -0.619039 0.017802 -0.010327 -0.169923 -0.306571
 12   -2.022474 -0.104699 -2.873818 0.298873 1.361829 -2.901792
 13   1.167898 -0.537463 0.063297 1.206669 -0.210032 -0.986505
 14   7.002743 -0.617765 -0.183752 0.047142 0.002238 -0.377051
 15   8.209042 0.615527 -0.255885 1.570090 -0.000063 -0.121905
 16   7.002735 -0.617911 -0.183641 0.047532 0.002180 -0.282522
 17   1.574674 0.609930 -0.000899 -0.761587 0.006635 -0.175314
 18   -0.602177 0.511412 -0.000006 0.000000 0.000000 0.000000
 19   3.673773 0.177020 1.119313 -0.000002 -0.000014 -0.174510
 20   3.673767 0.176993 -1.117566 0.000007 -0.000003 -0.174546
 21   3.942357 1.330634 1.627658 0.000002 -0.000011 -0.000026
 22   -0.246060 -0.011889 0.516521 -0.000011 0.000031 0.000025
 23   3.942374 1.330659 -1.631083 0.000019 0.000002 -0.000024
 24   -0.246150 -0.011872 -0.516511 -0.000005 -0.000006 0.000048
 25   4.941364 1.997338 1.629330 0.000018 0.261736 -0.000024
 26   4.941382 1.997366 -1.629410 -0.000001 -0.261744 -0.000024
 27   2.918368 1.615358 1.514501 -0.000019 -0.000022 -0.000050
 28   2.920798 1.614964 -1.501142 -0.000002 -0.000009 -0.000024
 29   8.824059 0.150544 0.091743 0.000006 -0.000231 -0.174534
 30   2.111085 -0.561179 1.784320 -0.000008 -0.000682 0.000024
 31   2.121290 -0.561289 -1.853599 0.000000 0.000000 -0.000002
 32   -0.810489 -0.093824 3.127092 3.071872 -0.114782 1.239365
 33   14.298673 -0.408176 0.475484 0.000248 0.000062 -1.896136
 34   15.835795 0.581398 0.242756 -0.214729 0.106889 -0.097869
 35   -0.815868 -0.091229 -3.114430 0.066464 3.132725 -1.010185
 36   14.294526 -0.410349 -0.463635 0.000033 -0.000000 -2.607695
 37   15.834409 0.579420 -0.284600 -0.006092 -0.035255 0.214458
 38   1.139685 -3.453749 -2.823813 0.000000 0.000000 0.000001
 39   -4.457742 -1.054854 -0.746180 0.000000 0.000000 0.000000
 40   1.118101 -3.449769 3.237290 0.000000 0.000001 0.000000
 41   -4.433840 -1.059130 0.959566 -0.000001 0.000000 0.000000
 42   -0.657468 1.697302 -2.688614 0.000000 0.000002 0.000000
 43   -0.664068 1.698578 2.869377 0.000000 0.000002 0.000000
time 26
  0   -0.967547 0.175787 -20.574476 0.000000 0.000000 -1.572114
  1   -1.093036 0.000002 -0.326057 -1.570757 -1.570379 -0.000171
  2   2.262337 0.113614 0.064702 0.069482 0.005945 -0.089644
  3   2.380047 0.353302 0.047440 0.331507 -0.002785 0.004856
  4   2.033756 0.190472 -0.000128 0.415206 0.056531 -0.131239
  5   2.451511 0.204909 -0.003447 -0.104670 -0.001781 -0.020667
  6   7.247600 -0.397300 -0.109469 0.000001 0.000033 0.418409
  7   -2.022252 -0.104661 3.136172 -0.298879 -1.361862 -2.901749
  8   1.168026 -0.537438 -0.063437 -0.392674 1.167157 -0.359066
  9   6.790376 -0.619176 0.015206 0.000619 -0.226734 -0.418242
 10   8.637599 0.544015 -0.090417 -1.015304 0.064136 -0.818986
 11   6.790465 -0.619039 0.017802 -0.010327 -0.169923 -0.306571
 12   -2.022474 -0.104699 -2.873818 0.298873 1.361829 -2.901792
 13   1.167898 -0.537463 0.063297 1.209270 -0.206117 -0.987050
 14   7.002743 -0.617765 -0.183752 0.047142 0.002238 -0.377051
 15   8.209042 0.615527 -0.255885 1.570090 -0.000063 -0.121905
 16   7.002735 -0.617911 -0.183641 0.047532 0.002180 -0.282522
 17   1.574674 0.609930 -0.000899 -0.761587 0.006635 -0.180082
 18   -0.602177 0.511412 -0.000006 0.000000 0.000000 0.000000
 19   3.673773 0.177020 1.119313 -0.000002 -0.000014 -0.174510
 20   3.673767 0.176993 -1.117566 0.000007 -0.000003 -0.174546
 21   3.942357 1.330634 1.627658 0.000002 -0.000011 -0.000026
 22   -0.246060 -0.011889 0.516521 -0.000011 0.000031 0.000025
 23   3.942374 1.330659 -1.631083 0.000019 0.000002 -0.000024
 24   -0.246150 -0.011872 -0.516511 -0.000005 -0.000006 0.000048
 25   4.941364 1.997338 1.629330 0.000018 0.261736 -0.000024
 26   4.941382 1.997366 -1.629410 -0.000001 -0.261744 -0.000024
 27   2.918368 1.615358 1.514501 -0.000019 -0.000022 -0.000050
 28   2.920798 1.614964 -1.501142 -0.000002 -0.000009 -0.000024
 29   8.824059 0.150544 0.091743 0.000006 -0.000231 -0.174534
 30   2.111085 -0.561179 1.784320 -0.000008 -0.000682 0.000024
 31   2.121290 -0.561289 -1.853599 0.000000 0.000000 -0.000002
 32   -0.810489 -0.093824 3.127092 3.071872 -0.114782 1.239365
 33   14.298673 -0.408176 0.475484 0.000248 0.000062 -1.896136
 34   15.835795 0.581398 0.242756 -0.214729 0.106889 -0.097869
 35   -0.815868 -0.091229 -3.114430 0.066464 3.132725 -1.010185
 36   14.294526 -0.410349 -0.463635 0.000033 -0.000000 -2.607695
 37   15.834409 0.579420 -0.284600 -0.006092 -0.035255 0.214458
 38   1.139685 -3.453749 -2.823813 0.000000 0.000000 0.000001
 39   -4.457742 -1.054854 -0.746180 0.000000 0.000000 0.000000
 40   1.118101 -3.449769 3.237290 0.000000 0.000001 0.000000
 41   -4.433840 -1.059130 0.959566 -0.000001 0.000000 0.000000
 42   -0.657468 1.697302 -2.688614 0.000000 0.000002 0.000000
 43   -0.664068 1.698578 2.869377 0.000000 0.000002 0.000000
time 27
  0   -0.967547 0.175787 -20.574476 0.000000 0.000000 -1.572114
  1   -1.093036 0.000002 -0.326057 -1.570757 -1.570379 -0.000171
  2   2.262337 0.113614 0.064702 0.069482 0.005945 -0.088506
  3   2.380047 0.353302 0.047440 0.331507 -0.002785 0.005999
  4   2.033756 0.190472 -0.000128 0.415206 0.056531 -0.130079
  5   2.451511 0.204909 -0.003447 -0.104670 -0.001781 -0.019503
  6   7.247600 -0.397300 -0.109469 0.000001 0.000033 0.418409
  7   -2.022252 -0.104661 3.136172 -0.298879 -1.361862 -2.901749
  8   1.168026 -0.537438 -0.063437 -0.381663 1.168616 -0.348881
  9   6.790376 -0.619176 0.015206 0.000619 -0.226734 -0.418242
 10   8.637599 0.544015 -0.090417 -1.015304 0.064136 -0.818986
 11   6.790465 -0.619039 0.017802 -0.010327 -0.169923 -0.306571
 12   -2.022474 -0.104699 -2.873818 0.298873 1.361829 -2.901792
 13   1.167898 -0.537463 0.063297 1.212081 -0.202252 -0.987534
 14   7.002743 -0.617765 -0.183752 0.047142 0.002238 -0.377051
 15   8.209042 0.615527 -0.255885 1.570090 -0.000063 -0.121905
 16   7.002735 -0.617911 -0.183641 0.047532 0.002180 -0.282522
 17   1.574674 0.609930 -0.000899 -0.761587 0.006635 -0.184776
 18   -0.602177 0.511412 -0.000006 0.000000 0.000000 0.000000
 19   3.673773 0.177020 1.119313 -0.000002 -0.000014 -0.174510
 20   3.673767 0.176993 -1.117566 0.000007 -0.000003 -0.174546
 21   3.942357 1.330634 1.627658 0.000002 -0.000011 -0.000026
 22   -0.246060 -0.011889 0.516521 -0.000011 0.000031 0.000025
 23   3.942374 1.330659 -1.631083 0.000019 0.000002 -0.000024
 24   -0.246150 -0.011872 -0.516511 -0.000005 -0.000006 0.000048
 25   4.941364 1.997338 1.629330 0.000018 0.261736 -0.000024
 26   4.941382 1.997366 -1.629410 -0.000001 -0.261744 -0.000024
 27   2.918368 1.615358 1.514501 -0.000019 -0.000022 -0.000050
 28   2.920798 1.614964 -1.501142 -0.000002 -0.000009 -0.000024
 29   8.824059 0.150544 0.091743 0.000006 -0.000231 -0.174534
 30   2.111085 -0.561179 1.784320 -0.000008 -0.000682 0.000024
 31   2.121290 -0.561289 -1.853599 0.000000 0.000000 -0.000002
 32   -0.810489 -0.093824 3.127092 3.071872 -0.114782 1.239365
 33   14.298673 -0.408176 0.475484 0.000248 0.000062 -1.896136
 34   15.835795 0.581398 0.242756 -0.214729 0.106889 -0.097869
 35   -0.815868 -0.091229 -3.114430 0.066464 3.132725 -1.010185
 36   14.294526 -0.410349 -0.463635 0.000033 -0.000000 -2.607695
 37   15.834409 0.579420 -0.284600 -0.006092 -0.035255 0.214458
 38   1.139685 -3.453749 -2.823813 0.000000 0.000000 0.000001
 39   -4.457742 -1.054854 -0.746180 0.000000 0.000000 0.000000
 40   1.118101 -3.449769 3.237290 0.000000 0.000001 0.000000
 41   -4.433840 -1.059130 0.959566 -0.000001 0.000000 0.000000
 42   -0.657468 1.697302 -2.688614 0.000000 0.000002 0.000000
 43   -0.664068 1.698578 2.869377 0.000000 0.000002 0.000000
time 28
  0   -0.967547 0.175787 -20.574476 0.000000 0.000000 -1.572114
  1   -1.093036 0.000002 -0.326057 -1.570757 -1.570379 -0.000171
  2   2.262337 0.113614 0.064702 0.069482 0.005945 -0.087349
  3   2.380047 0.353302 0.047440 0.331507 -0.002785 0.007162
  4   2.033756 0.190472 -0.000128 0.415206 0.056531 -0.128883
  5   2.451511 0.204909 -0.003447 -0.104670 -0.001781 -0.018339
  6   7.247600 -0.397300 -0.109469 0.000001 0.000033 0.418409
  7   -2.022252 -0.104661 3.136172 -0.298879 -1.361862 -2.901749
  8   1.168026 -0.537438 -0.063437 -0.370463 1.170226 -0.338443
  9   6.790376 -0.619176 0.015206 0.000619 -0.226734 -0.418242
 10   8.637599 0.544015 -0.090417 -1.015304 0.064136 -0.818986
 11   6.790465 -0.619039 0.017802 -0.010327 -0.169923 -0.306571
 12   -2.022474 -0.104699 -2.873818 0.298873 1.361829 -2.901792
 13   1.167898 -0.537463 0.063297 1.214682 -0.198336 -0.988200
 14   7.002743 -0.617765 -0.183752 0.047142 0.002238 -0.377051
 15   8.209042 0.615527 -0.255885 1.570090 -0.000063 -0.121905
 16   7.002735 -0.617911 -0.183641 0.047579 0.002180 -0.282522
 17   1.574674 0.609930 -0.000899 -0.761587 0.006635 -0.189359
 18   -0.602177 0.511412 -0.000006 0.000000 0.000000 0.000000
 19   3.673773 0.177020 1.119313 -0.000002 -0.000014 -0.174510
 20   3.673767 0.176993 -1.117566 0.000007 -0.000003 -0.174546
 21   3.942357 1.330634 1.627658 0.000002 -0.000011 -0.000026
 22   -0.246060 -0.011889 0.516521 -0.000011 0.000031 0.000025
 23   3.942374 1.330659 -1.631083 0.000019 0.000002 -0.000024
 24   -0.246150 -0.011872 -0.516511 -0.000005 -0.000006 0.000048
 25   4.941364 1.997338 1.629330 0.000018 0.261736 -0.000024
 26   4.941382 1.997366 -1.629410 -0.000001 -0.261744 -0.000024
 27   2.918368 1.615358 1.514501 -0.000019 -0.000022 -0.000050
 28   2.920798 1.614964 -1.501142 -0.000002 -0.000009 -0.000024
 29   8.824059 0.150544 0.091743 0.000006 -0.000231 -0.174534
 30   2.111085 -0.561179 1.784320 -0.000008 -0.000682 0.000024
 31   2.121290 -0.561289 -1.853599 0.000000 0.000000 -0.000002
 32   -0.810489 -0.093824 3.127092 3.071872 -0.114782 1.239365
 33   14.298673 -0.408176 0.475484 0.000248 0.000062 -1.896136
 34   15.835795 0.581398 0.242756 -0.214729 0.106889 -0.097869
 35   -0.815868 -0.091229 -3.114430 0.066464 3.132725 -1.010185
 36   14.294526 -0.410349 -0.463635 0.000033 -0.000000 -2.607695
 37   15.834409 0.579420 -0.284600 -0.006092 -0.035255 0.214458
 38   1.139685 -3.453749 -2.823813 0.000000 0.000000 0.000001
 39   -4.457742 -1.054854 -0.746180 0.000000 0.000000 0.000000
 40   1.118101 -3.449769 3.237290 0.000000 0.000001 0.000000
 41   -4.433840 -1.059130 0.959566 -0.000001 0.000000 0.000000
 42   -0.657468 1.697302 -2.688614 0.000000 0.000002 0.000000
 43   -0.664068 1.698578 2.869377 0.000000 0.000002 0.000000
time 29
  0   -0.967547 0.175787 -20.574476 0.000000 0.000000 -1.572114
  1   -1.093036 0.000002 -0.326057 -1.570757 -1.570379 -0.000171
  2   2.262337 0.113614 0.064702 0.069482 0.005945 -0.086138
  3   2.380047 0.353302 0.047440 0.331507 -0.002785 0.008366
  4   2.033756 0.190472 -0.000128 0.415206 0.056531 -0.127723
  5   2.451511 0.204909 -0.003447 -0.104670 -0.001781 -0.017472
  6   7.247600 -0.397300 -0.109469 0.000001 0.000033 0.418409
  7   -2.022252 -0.104661 3.136172 -0.298879 -1.361862 -2.901749
  8   1.168026 -0.537438 -0.063437 -0.359072 1.171635 -0.328005
  9   6.790376 -0.619176 0.015206 0.000619 -0.226734 -0.418242
 10   8.637599 0.544015 -0.090417 -1.015304 0.064136 -0.818986
 11   6.790465 -0.619039 0.017802 -0.010327 -0.169923 -0.306571
 12   -2.022474 -0.104699 -2.873818 0.298873 1.361829 -2.901792
 13   1.167898 -0.537463 0.063297 1.217283 -0.194471 -0.988563
 14   7.002743 -0.617765 -0.183752 0.047142 0.002238 -0.377051
 15   8.209042 0.615527 -0.255885 1.570090 -0.000063 -0.121905
 16   7.002735 -0.617911 -0.183641 0.047532 0.002180 -0.282522
 17   1.574674 0.609930 -0.000899 -0.761587 0.006635 -0.194016
 18   -0.602177 0.511412 -0.000006 0.000000 0.000000 0.000000
 19   3.673773 0.177020 1.119313 -0.000002 -0.000014 -0.174510
 20   3.673767 0.176993 -1.117566 0.000007 -0.000003 -0.174546
 21   3.942357 1.330634 1.627658 0.000002 -0.000011 -0.000026
 22   -0.246060 -0.011889 0.516521 -0.000011 0.000031 0.000025
 23   3.942374 1.330659 -1.631083 0.000019 0.000002 -0.000024
 24   -0.246150 -0.011872 -0.516511 -0.000005 -0.000006 0.000048
 25   4.941364 1.997338 1.629330 0.000018 0.261736 -0.000024
 26   4.941382 1.997366 -1.629410 -0.000001 -0.261744 -0.000024
 27   2.918368 1.615358 1.514501 -0.000019 -0.000022 -0.000050
 28   2.920798 1.614964 -1.501142 -0.000002 -0.000009 -0.000024
 29   8.824059 0.150544 0.091743 0.000006 -0.000231 -0.174534
 30   2.111085 -0.561179 1.784320 -0.000008 -0.000682 0.000024
 31   2.121290 -0.561289 -1.853599 0.000000 0.000000 -0.000002
 32   -0.810489 -0.093824 3.127092 3.071872 -0.114782 1.239365
 33   14.298673 -0.408176 0.475484 0.000248 0.000062 -1.896136
 34   15.835795 0.581398 0.242756 -0.214729 0.106889 -0.097869
 35   -0.815868 -0.091229 -3.114430 0.066464 3.132725 -1.010185
 36   14.294526 -0.410349 -0.463635 0.000033 -0.000000 -2.607695
 37   15.834409 0.579420 -0.284600 -0.006092 -0.035255 0.214458
 38   1.139685 -3.453749 -2.823813 0.000000 0.000000 0.000001
 39   -4.457742 -1.054854 -0.746180 0.000000 0.000000 0.000000
 40   1.118101 -3.449769 3.237290 0.000000 0.000001 0.000000
 41   -4.433840 -1.059130 0.959566 -0.000001 0.000000 0.000000
 42   -0.657468 1.697302 -2.688614 0.000000 0.000002 0.000000
 43   -0.664068 1.698578 2.869377 0.000000 0.000002 0.000000
end
