version 1
nodes
  0 "Bip01" -1
  1 "Bip01 Pelvis" 0
  2 "Bip01 Spine" 1
  3 "Bip01 Spine1" 2
  4 "Bip01 Spine2" 3
  5 "Bip01 Spine3" 4
  6 "Bip01 Neck" 5
  7 "Bip01 L Arm" 6
  8 "Bip01 L Arm1" 7
  9 "Bip01 L Arm2" 8
 10 "Bip01 L Hand" 9
 11 "Bip06 L elbow2-smooth" 8
 12 "Bip01 R Arm" 6
 13 "Bip01 R Arm1" 12
 14 "Bip01 R Arm2" 13
 15 "Bip01 R Hand" 14
 16 "Bip06 R elbow2-smooth" 13
 17 "Bip01 Head" 6
 18 "Bip06 Head_helper" 17
 19 "Bip06 Head_eyes_l" 18
 20 "Bip06 Head_eyes_r" 18
 21 "Bip06 Head_blink_l" 18
 22 "Bip06 Head_blink_smooth_l1" 21
 23 "Bip06 Head_blink_r" 18
 24 "Bip06 Head_blink_smooth_r1" 23
 25 "Bip06 Head_L_eyebrow" 18
 26 "Bip06 Head_R_eyebrow" 18
 27 "Bip06 Head_blink_l_lid" 18
 28 "Bip06 Head_blink_r_lid" 18
 29 "Bip06 bunny" 18
 30 "Bip06 bunnyL" 29
 31 "Bip06 bunnyR" 29
 32 "Bip01 L Leg" 1
 33 "Bip01 L Leg1" 32
 34 "Bip01 L Foot" 33
 35 "Bip01 R Leg" 1
 36 "Bip01 R Leg1" 35
 37 "Bip01 R Foot" 36
 38 "Bip03 HairR1" 17
 39 "Bip03 HairR2" 38
 40 "Bip03 HairL1" 17
 41 "Bip03 HairL2" 40
 42 "Bip03 swingR" 17
 43 "Bip03 swingL" 17
end
skeleton
time 0
  0   -0.967547 0.175787 -20.574476 0.000000 0.000000 -1.572114
  1   -1.093036 0.000002 -0.326057 -0.214003 -1.569036 -1.356583
  2   2.262337 0.113614 0.064702 -0.278431 -0.058664 0.415166
  3   2.380047 0.353302 0.047440 -0.352419 0.067229 0.395235
  4   2.033756 0.190472 -0.000128 -0.243747 -0.007263 0.152067
  5   2.451511 0.204909 -0.003447 -0.458030 0.075078 0.142810
  6   7.247600 -0.397300 -0.109469 0.000001 0.000021 0.156829
  7   -2.022252 -0.104661 3.136172 0.805597 -0.995278 -3.940056
  8   1.168026 -0.537438 -0.063437 0.350302 0.993472 -0.542521
  9   6.790376 -0.619176 0.015206 0.044559 0.044031 -0.526689
 10   8.637599 0.544015 -0.090417 -3.044670 0.662243 -0.399172
 11   6.790465 -0.619039 0.017802 0.032154 0.017684 -0.384086
 12   -2.022474 -0.104699 -2.873818 -2.450311 1.732319 -5.756505
 13   1.167898 -0.537463 0.063297 -1.913759 -0.564834 1.744521
 14   7.002743 -0.617765 -0.183752 0.038260 -0.176180 -1.913879
 15   8.209042 0.615527 -0.255885 1.087262 -0.015271 0.420894
 16   7.002735 -0.617911 -0.183641 0.003800 -0.125201 -1.354366
 17   1.574674 0.609930 -0.000899 0.904935 -0.175837 0.289767
 18   -0.602177 0.511412 -0.000006 0.000000 0.000000 0.000000
 19   3.673773 0.177020 1.119313 -0.000002 -0.000014 -0.174510
 20   3.673767 0.176993 -1.117566 0.000007 -0.000003 -0.174546
 21   3.942357 1.330634 1.627658 0.000002 -0.000011 -0.000026
 22   -0.246060 -0.011889 0.516521 -0.000011 0.000031 0.000025
 23   3.942374 1.330659 -1.631083 0.000019 0.000002 -0.000024
 24   -0.246150 -0.011872 -0.516511 -0.000005 -0.000006 0.000048
 25   4.941364 1.997338 1.629330 0.000018 -0.000001 -0.000024
 26   4.941382 1.997366 -1.629410 -0.000001 0.000005 -0.000024
 27   2.918368 1.615358 1.514501 -0.000019 -0.000022 -0.000050
 28   2.920798 1.614964 -1.501142 -0.000002 -0.000009 -0.000024
 29   8.824059 0.150544 0.091743 0.000006 -0.000231 -0.174534
 30   2.111085 -0.561179 1.784320 -0.000008 -0.000682 0.000024
 31   2.121290 -0.561289 -1.853599 0.000000 0.000000 -0.000002
 32   -0.810489 -0.093824 3.127092 3.071872 -0.114782 1.239365
 33   14.298673 -0.408176 0.475484 0.000248 0.000062 -1.896136
 34   15.835795 0.581398 0.242756 -0.214729 0.106889 -0.097869
 35   -0.815868 -0.091229 -3.114430 0.066464 3.132725 -1.010185
 36   14.294526 -0.410349 -0.463635 0.000033 -0.000000 -2.607695
 37   15.834409 0.579420 -0.284600 -0.006092 -0.035255 0.214458
 38   1.139685 -3.453749 -2.823813 0.000000 0.000000 0.000001
 39   -4.457742 -1.054854 -0.746180 0.000000 0.000000 0.000000
 40   1.118101 -3.449769 3.237290 0.000000 0.000001 0.000000
 41   -4.433840 -1.059130 0.959566 -0.000001 0.000000 0.000000
 42   -0.657468 1.697302 -2.688614 0.000000 0.000002 0.000000
 43   -0.664068 1.698578 2.869377 0.000000 0.000002 0.000000
time 1
  0   -0.967547 0.175787 -20.574476 0.000000 0.000000 -1.572114
  1   -1.093036 0.000002 -0.326057 -0.214003 -1.569036 -1.356583
  2   2.262337 0.113614 0.064702 -0.263324 -0.059203 0.413828
  3   2.380047 0.353302 0.047440 -0.338783 0.065048 0.395643
  4   2.033756 0.190472 -0.000128 -0.238196 -0.008090 0.153227
  5   2.451511 0.204909 -0.003447 -0.454521 0.085757 0.140383
  6   7.247600 -0.397300 -0.109469 0.000001 0.000021 0.156829
  7   -2.022252 -0.104661 3.136172 0.781345 -0.968181 -3.906247
  8   1.168026 -0.537438 -0.063437 0.320054 0.956139 -0.560487
  9   6.790376 -0.619176 0.015206 0.042562 0.037891 -0.464579
 10   8.637599 0.544015 -0.090417 -3.117940 0.693074 -0.436212
 11   6.790465 -0.619039 0.017802 0.029876 0.013818 -0.340772
 12   -2.022474 -0.104699 -2.873818 -2.463245 1.722741 -5.769813
 13   1.167898 -0.537463 0.063297 -1.925498 -0.624077 1.727995
 14   7.002743 -0.617765 -0.183752 0.035584 -0.174419 -1.883517
 15   8.209042 0.615527 -0.255885 1.123502 0.006217 0.431719
 16   7.002735 -0.617911 -0.183641 0.003000 -0.123171 -1.333393
 17   1.574674 0.609930 -0.000899 0.962332 -0.165045 0.260530
 18   -0.602177 0.511412 -0.000006 0.000000 0.000000 0.000000
 19   3.673773 0.177020 1.119313 -0.000002 -0.000014 -0.174510
 20   3.673767 0.176993 -1.117566 0.000007 -0.000003 -0.174546
 21   3.942357 1.330634 1.627658 0.000002 -0.000011 -0.000026
 22   -0.246060 -0.011889 0.516521 -0.000011 0.000031 0.000025
 23   3.942374 1.330659 -1.631083 0.000019 0.000002 -0.000024
 24   -0.246150 -0.011872 -0.516511 -0.000005 -0.000006 0.000048
 25   4.941364 1.997338 1.629330 0.000018 -0.000001 -0.000024
 26   4.941382 1.997366 -1.629410 -0.000001 0.000005 -0.000024
 27   2.918368 1.615358 1.514501 -0.000019 -0.000022 -0.000050
 28   2.920798 1.614964 -1.501142 -0.000002 -0.000009 -0.000024
 29   8.824059 0.150544 0.091743 0.000006 -0.000231 -0.174534
 30   2.111085 -0.561179 1.784320 -0.000008 -0.000682 0.000024
 31   2.121290 -0.561289 -1.853599 0.000000 0.000000 -0.000002
 32   -0.810489 -0.093824 3.127092 3.071872 -0.114782 1.239365
 33   14.298673 -0.408176 0.475484 0.000248 0.000062 -1.896136
 34   15.835795 0.581398 0.242756 -0.214729 0.106889 -0.097869
 35   -0.815868 -0.091229 -3.114430 0.066464 3.132725 -1.010185
 36   14.294526 -0.410349 -0.463635 0.000033 -0.000000 -2.607695
 37   15.834409 0.579420 -0.284600 -0.006092 -0.035255 0.214458
 38   1.139685 -3.453749 -2.823813 0.000000 0.000000 0.000001
 39   -4.457742 -1.054854 -0.746180 0.000000 0.000000 0.000000
 40   1.118101 -3.449769 3.237290 0.000000 0.000001 0.000000
 41   -4.433840 -1.059130 0.959566 -0.000001 0.000000 0.000000
 42   -0.657468 1.697302 -2.688614 0.000000 0.000002 0.000000
 43   -0.664068 1.698578 2.869377 0.000000 0.000002 0.000000
time 2
  0   -0.967547 0.175787 -20.574476 0.000000 0.000000 -1.572114
  1   -1.093036 0.000002 -0.326057 -0.214003 -1.569036 -1.356583
  2   2.262337 0.113614 0.064702 -0.241938 -0.062547 0.411190
  3   2.380047 0.353302 0.047440 -0.320001 0.059152 0.395745
  4   2.033756 0.190472 -0.000128 -0.230026 -0.010127 0.150654
  5   2.451511 0.204909 -0.003447 -0.449934 0.102455 0.136594
  6   7.247600 -0.397300 -0.109469 0.000001 0.000021 0.156829
  7   -2.022252 -0.104661 3.136172 0.774635 -0.969478 -3.888122
  8   1.168026 -0.537438 -0.063437 0.242915 0.941900 -0.545874
  9   6.790376 -0.619176 0.015206 0.041452 0.035288 -0.437864
 10   8.637599 0.544015 -0.090417 -3.152550 0.772193 -0.419356
 11   6.790465 -0.619039 0.017802 0.028825 0.012141 -0.321970
 12   -2.022474 -0.104699 -2.873818 -2.443221 1.720506 -5.752292
 13   1.167898 -0.537463 0.063297 -1.927606 -0.714341 1.663707
 14   7.002743 -0.617765 -0.183752 0.031941 -0.171183 -1.835994
 15   8.209042 0.615527 -0.255885 1.194038 0.017339 0.441461
 16   7.002735 -0.617911 -0.183641 0.002058 -0.119957 -1.300553
 17   1.574674 0.609930 -0.000899 1.007745 -0.127533 0.235619
 18   -0.602177 0.511412 -0.000006 0.000000 0.000000 0.000000
 19   3.673773 0.177020 1.119313 -0.000002 -0.000014 -0.174510
 20   3.673767 0.176993 -1.117566 0.000007 -0.000003 -0.174546
 21   3.942357 1.330634 1.627658 0.000002 -0.000011 -0.000026
 22   -0.246060 -0.011889 0.516521 -0.000011 0.000031 0.000025
 23   3.942374 1.330659 -1.631083 0.000019 0.000002 -0.000024
 24   -0.246150 -0.011872 -0.516511 -0.000005 -0.000006 0.000048
 25   4.941364 1.997338 1.629330 0.000018 -0.000001 -0.000024
 26   4.941382 1.997366 -1.629410 -0.000001 0.000005 -0.000024
 27   2.918368 1.615358 1.514501 -0.000019 -0.000022 -0.000050
 28   2.920798 1.614964 -1.501142 -0.000002 -0.000009 -0.000024
 29   8.824059 0.150544 0.091743 0.000006 -0.000231 -0.174534
 30   2.111085 -0.561179 1.784320 -0.000008 -0.000682 0.000024
 31   2.121290 -0.561289 -1.853599 0.000000 0.000000 -0.000002
 32   -0.810489 -0.093824 3.127092 3.071872 -0.114782 1.239365
 33   14.298673 -0.408176 0.475484 0.000248 0.000062 -1.896136
 34   15.835795 0.581398 0.242756 -0.214729 0.106889 -0.097869
 35   -0.815868 -0.091229 -3.114430 0.066464 3.132725 -1.010185
 36   14.294526 -0.410349 -0.463635 0.000033 -0.000000 -2.607695
 37   15.834409 0.579420 -0.284600 -0.006092 -0.035255 0.214458
 38   1.139685 -3.453749 -2.823813 0.000000 0.000000 0.000001
 39   -4.457742 -1.054854 -0.746180 0.000000 0.000000 0.000000
 40   1.118101 -3.449769 3.237290 0.000000 0.000001 0.000000
 41   -4.433840 -1.059130 0.959566 -0.000001 0.000000 0.000000
 42   -0.657468 1.697302 -2.688614 0.000000 0.000002 0.000000
 43   -0.664068 1.698578 2.869377 0.000000 0.000002 0.000000
time 3
  0   -0.967547 0.175787 -20.574476 0.000000 0.000000 -1.572114
  1   -1.093036 0.000002 -0.326057 -0.214003 -1.569036 -1.356583
  2   2.262337 0.113614 0.064702 -0.216552 -0.066370 0.406853
  3   2.380047 0.353302 0.047440 -0.297845 0.051014 0.394500
  4   2.033756 0.190472 -0.000128 -0.220104 -0.012871 0.145434
  5   2.451511 0.204909 -0.003447 -0.444525 0.119649 0.127084
  6   7.247600 -0.397300 -0.109469 0.000001 0.000021 0.156829
  7   -2.022252 -0.104661 3.136172 0.746357 -0.988503 -3.858258
  8   1.168026 -0.537438 -0.063437 0.196784 0.912265 -0.479324
  9   6.790376 -0.619176 0.015206 0.043727 0.041361 -0.499370
 10   8.637599 0.544015 -0.090417 -3.197551 0.843780 -0.338041
 11   6.790465 -0.619039 0.017802 0.031132 0.015893 -0.365111
 12   -2.022474 -0.104699 -2.873818 -2.423293 1.720884 -5.731803
 13   1.167898 -0.537463 0.063297 -1.898645 -0.842491 1.541669
 14   7.002743 -0.617765 -0.183752 0.028582 -0.168287 -1.793091
 15   8.209042 0.615527 -0.255885 1.301749 0.014010 0.470327
 16   7.002735 -0.617911 -0.183641 0.001117 -0.117081 -1.270694
 17   1.574674 0.609930 -0.000899 1.025212 -0.093216 0.215068
 18   -0.602177 0.511412 -0.000006 0.000000 0.000000 0.000000
 19   3.673773 0.177020 1.119313 -0.000002 -0.000014 -0.174510
 20   3.673767 0.176993 -1.117566 0.000007 -0.000003 -0.174546
 21   3.942357 1.330634 1.627658 0.000002 -0.000011 -0.000026
 22   -0.246060 -0.011889 0.516521 -0.000011 0.000031 0.000025
 23   3.942374 1.330659 -1.631083 0.000019 0.000002 -0.000024
 24   -0.246150 -0.011872 -0.516511 -0.000005 -0.000006 0.000048
 25   4.941364 1.997338 1.629330 0.000018 -0.000001 -0.000024
 26   4.941382 1.997366 -1.629410 -0.000001 0.000005 -0.000024
 27   2.918368 1.615358 1.514501 -0.000019 -0.000022 -0.000050
 28   2.920798 1.614964 -1.501142 -0.000002 -0.000009 -0.000024
 29   8.824059 0.150544 0.091743 0.000006 -0.000231 -0.174534
 30   2.111085 -0.561179 1.784320 -0.000008 -0.000682 0.000024
 31   2.121290 -0.561289 -1.853599 0.000000 0.000000 -0.000002
 32   -0.810489 -0.093824 3.127092 3.071872 -0.114782 1.239365
 33   14.298673 -0.408176 0.475484 0.000248 0.000062 -1.896136
 34   15.835795 0.581398 0.242756 -0.214729 0.106889 -0.097869
 35   -0.815868 -0.091229 -3.114430 0.066464 3.132725 -1.010185
 36   14.294526 -0.410349 -0.463635 0.000033 -0.000000 -2.607695
 37   15.834409 0.579420 -0.284600 -0.006092 -0.035255 0.214458
 38   1.139685 -3.453749 -2.823813 0.000000 0.000000 0.000001
 39   -4.457742 -1.054854 -0.746180 0.000000 0.000000 0.000000
 40   1.118101 -3.449769 3.237290 0.000000 0.000001 0.000000
 41   -4.433840 -1.059130 0.959566 -0.000001 0.000000 0.000000
 42   -0.657468 1.697302 -2.688614 0.000000 0.000002 0.000000
 43   -0.664068 1.698578 2.869377 0.000000 0.000002 0.000000
time 4
  0   -0.967547 0.175787 -20.574476 0.000000 0.000000 -1.572114
  1   -1.093036 0.000002 -0.326057 -0.214003 -1.569036 -1.356583
  2   2.262337 0.113614 0.064702 -0.190007 -0.068216 0.399607
  3   2.380047 0.353302 0.047440 -0.274533 0.043128 0.390011
  4   2.033756 0.190472 -0.000128 -0.209813 -0.016107 0.136409
  5   2.451511 0.204909 -0.003447 -0.436360 0.120824 0.120323
  6   7.247600 -0.397300 -0.109469 0.000001 0.000021 0.156829
  7   -2.022252 -0.104661 3.136172 0.709739 -1.012602 -3.810362
  8   1.168026 -0.537438 -0.063437 0.160334 0.827133 -0.374881
  9   6.790376 -0.619176 0.015206 0.047666 0.057445 -0.655663
 10   8.637599 0.544015 -0.090417 -3.248716 0.851945 -0.246381
 11   6.790465 -0.619039 0.017802 0.036270 0.026183 -0.474578
 12   -2.022474 -0.104699 -2.873818 -2.651505 1.720216 -5.957657
 13   1.167898 -0.537463 0.063297 -1.764594 -0.983964 1.301346
 14   7.002743 -0.617765 -0.183752 0.025450 -0.165163 -1.751426
 15   8.209042 0.615527 -0.255885 1.441672 0.036481 0.439657
 16   7.002735 -0.617911 -0.183641 0.000458 -0.114205 -1.241773
 17   1.574674 0.609930 -0.000899 0.999621 -0.078874 0.219836
 18   -0.602177 0.511412 -0.000006 0.000000 0.000000 0.000000
 19   3.673773 0.177020 1.119313 -0.000002 -0.000014 -0.174510
 20   3.673767 0.176993 -1.117566 0.000007 -0.000003 -0.174546
 21   3.942357 1.330634 1.627658 0.000002 -0.000011 -0.000026
 22   -0.246060 -0.011889 0.516521 -0.000011 0.000031 0.000025
 23   3.942374 1.330659 -1.631083 0.000019 0.000002 -0.000024
 24   -0.246150 -0.011872 -0.516511 -0.000005 -0.000006 0.000048
 25   4.941364 1.997338 1.629330 0.000018 -0.000001 -0.000024
 26   4.941382 1.997366 -1.629410 -0.000001 0.000005 -0.000024
 27   2.918368 1.615358 1.514501 -0.000019 -0.000022 -0.000050
 28   2.920798 1.614964 -1.501142 -0.000002 -0.000009 -0.000024
 29   8.824059 0.150544 0.091743 0.000006 -0.000231 -0.174534
 30   2.111085 -0.561179 1.784320 -0.000008 -0.000682 0.000024
 31   2.121290 -0.561289 -1.853599 0.000000 0.000000 -0.000002
 32   -0.810489 -0.093824 3.127092 3.071872 -0.114782 1.239365
 33   14.298673 -0.408176 0.475484 0.000248 0.000062 -1.896136
 34   15.835795 0.581398 0.242756 -0.214729 0.106889 -0.097869
 35   -0.815868 -0.091229 -3.114430 0.066464 3.132725 -1.010185
 36   14.294526 -0.410349 -0.463635 0.000033 -0.000000 -2.607695
 37   15.834409 0.579420 -0.284600 -0.006092 -0.035255 0.214458
 38   1.139685 -3.453749 -2.823813 0.000000 0.000000 0.000001
 39   -4.457742 -1.054854 -0.746180 0.000000 0.000000 0.000000
 40   1.118101 -3.449769 3.237290 0.000000 0.000001 0.000000
 41   -4.433840 -1.059130 0.959566 -0.000001 0.000000 0.000000
 42   -0.657468 1.697302 -2.688614 0.000000 0.000002 0.000000
 43   -0.664068 1.698578 2.869377 0.000000 0.000002 0.000000
time 5
  0   -0.967547 0.175787 -20.574476 0.000000 0.000000 -1.572114
  1   -1.093036 0.000002 -0.326057 -0.214003 -1.569036 -1.356583
  2   2.262337 0.113614 0.064702 -0.155615 -0.075478 0.391312
  3   2.380047 0.353302 0.047440 -0.243661 0.031312 0.386542
  4   2.033756 0.190472 -0.000128 -0.195520 -0.019619 0.127818
  5   2.451511 0.204909 -0.003447 -0.424789 0.121477 0.111779
  6   7.247600 -0.397300 -0.109469 0.000001 0.000021 0.156829
  7   -2.022252 -0.104661 3.136172 0.689609 -1.038171 -3.775520
  8   1.168026 -0.537438 -0.063437 0.090789 0.745221 -0.288657
  9   6.790376 -0.619176 0.015206 0.049164 0.076400 -0.830521
 10   8.637599 0.544015 -0.090417 -3.292661 0.801475 -0.201021
 11   6.790465 -0.619039 0.017802 0.040737 0.038406 -0.596964
 12   -2.022474 -0.104699 -2.873818 -2.833060 1.712176 0.153785
 13   1.167898 -0.537463 0.063297 -1.446021 -1.097773 0.866525
 14   7.002743 -0.617765 -0.183752 0.022091 -0.161700 -1.703820
 15   8.209042 0.615527 -0.255885 1.642712 0.065155 0.383850
 16   7.002735 -0.617911 -0.183641 -0.000296 -0.110991 -1.208712
 17   1.574674 0.609930 -0.000899 0.939544 -0.053952 0.242383
 18   -0.602177 0.511412 -0.000006 0.000000 0.000000 0.000000
 19   3.673773 0.177020 1.119313 -0.000002 -0.000014 -0.174510
 20   3.673767 0.176993 -1.117566 0.000007 -0.000003 -0.174546
 21   3.942357 1.330634 1.627658 0.000002 -0.000011 -0.000026
 22   -0.246060 -0.011889 0.516521 -0.000011 0.000031 0.000025
 23   3.942374 1.330659 -1.631083 0.000019 0.000002 -0.000024
 24   -0.246150 -0.011872 -0.516511 -0.000005 -0.000006 0.000048
 25   4.941364 1.997338 1.629330 0.000018 -0.000001 -0.000024
 26   4.941382 1.997366 -1.629410 -0.000001 0.000005 -0.000024
 27   2.918368 1.615358 1.514501 -0.000019 -0.000022 -0.000050
 28   2.920798 1.614964 -1.501142 -0.000002 -0.000009 -0.000024
 29   8.824059 0.150544 0.091743 0.000006 -0.000231 -0.174534
 30   2.111085 -0.561179 1.784320 -0.000008 -0.000682 0.000024
 31   2.121290 -0.561289 -1.853599 0.000000 0.000000 -0.000002
 32   -0.810489 -0.093824 3.127092 3.071872 -0.114782 1.239365
 33   14.298673 -0.408176 0.475484 0.000248 0.000062 -1.896136
 34   15.835795 0.581398 0.242756 -0.214729 0.106889 -0.097869
 35   -0.815868 -0.091229 -3.114430 0.066464 3.132725 -1.010185
 36   14.294526 -0.410349 -0.463635 0.000033 -0.000000 -2.607695
 37   15.834409 0.579420 -0.284600 -0.006092 -0.035255 0.214458
 38   1.139685 -3.453749 -2.823813 0.000000 0.000000 0.000001
 39   -4.457742 -1.054854 -0.746180 0.000000 0.000000 0.000000
 40   1.118101 -3.449769 3.237290 0.000000 0.000001 0.000000
 41   -4.433840 -1.059130 0.959566 -0.000001 0.000000 0.000000
 42   -0.657468 1.697302 -2.688614 0.000000 0.000002 0.000000
 43   -0.664068 1.698578 2.869377 0.000000 0.000002 0.000000
time 6
  0   -0.967547 0.175787 -20.574476 0.000000 0.000000 -1.572114
  1   -1.093036 0.000002 -0.326057 -0.214003 -1.569036 -1.356583
  2   2.262337 0.113614 0.064702 -0.117377 -0.083052 0.387915
  3   2.380047 0.353302 0.047440 -0.209924 0.017481 0.383828
  4   2.033756 0.190472 -0.000128 -0.179567 -0.023130 0.115349
  5   2.451511 0.204909 -0.003447 -0.413013 0.130969 0.097415
  6   7.247600 -0.397300 -0.109469 0.000001 0.000021 0.156829
  7   -2.022252 -0.104661 3.136172 0.690184 -1.065153 -3.783409
  8   1.168026 -0.537438 -0.063437 0.014662 0.712014 -0.221285
  9   6.790376 -0.619176 0.015206 0.047999 0.092084 -0.973532
 10   8.637599 0.544015 -0.090417 -3.340392 0.687654 -0.225256
 11   6.790465 -0.619039 0.017802 0.043307 0.048866 -0.696857
 12   -2.022474 -0.104699 -2.873818 3.303383 1.701118 0.030853
 13   1.167898 -0.537463 0.063297 -0.994311 -1.109062 0.328008
 14   7.002743 -0.617765 -0.183752 0.019416 -0.158690 -1.664135
 15   8.209042 0.615527 -0.255885 1.839654 0.096479 0.324855
 16   7.002735 -0.617911 -0.183641 -0.000955 -0.108341 -1.181116
 17   1.574674 0.609930 -0.000899 0.860294 -0.047633 0.264153
 18   -0.602177 0.511412 -0.000006 0.000000 0.000000 0.000000
 19   3.673773 0.177020 1.119313 -0.000002 -0.000014 -0.174510
 20   3.673767 0.176993 -1.117566 0.000007 -0.000003 -0.174546
 21   3.942357 1.330634 1.627658 0.000002 -0.000011 -0.000026
 22   -0.246060 -0.011889 0.516521 -0.000011 0.000031 0.000025
 23   3.942374 1.330659 -1.631083 0.000019 0.000002 -0.000024
 24   -0.246150 -0.011872 -0.516511 -0.000005 -0.000006 0.000048
 25   4.941364 1.997338 1.629330 0.000018 -0.000001 -0.000024
 26   4.941382 1.997366 -1.629410 -0.000001 0.000005 -0.000024
 27   2.918368 1.615358 1.514501 -0.000019 -0.000022 -0.000050
 28   2.920798 1.614964 -1.501142 -0.000002 -0.000009 -0.000024
 29   8.824059 0.150544 0.091743 0.000006 -0.000231 -0.174534
 30   2.111085 -0.561179 1.784320 -0.000008 -0.000682 0.000024
 31   2.121290 -0.561289 -1.853599 0.000000 0.000000 -0.000002
 32   -0.810489 -0.093824 3.127092 3.071872 -0.114782 1.239365
 33   14.298673 -0.408176 0.475484 0.000248 0.000062 -1.896136
 34   15.835795 0.581398 0.242756 -0.214729 0.106889 -0.097869
 35   -0.815868 -0.091229 -3.114430 0.066464 3.132725 -1.010185
 36   14.294526 -0.410349 -0.463635 0.000033 -0.000000 -2.607695
 37   15.834409 0.579420 -0.284600 -0.006092 -0.035255 0.214458
 38   1.139685 -3.453749 -2.823813 0.000000 0.000000 0.000001
 39   -4.457742 -1.054854 -0.746180 0.000000 0.000000 0.000000
 40   1.118101 -3.449769 3.237290 0.000000 0.000001 0.000000
 41   -4.433840 -1.059130 0.959566 -0.000001 0.000000 0.000000
 42   -0.657468 1.697302 -2.688614 0.000000 0.000002 0.000000
 43   -0.664068 1.698578 2.869377 0.000000 0.000002 0.000000
time 7
  0   -0.967547 0.175787 -20.574476 0.000000 0.000000 -1.572114
  1   -1.093036 0.000002 -0.326057 -0.214003 -1.569036 -1.356583
  2   2.262337 0.113614 0.064702 -0.081954 -0.079984 0.385692
  3   2.380047 0.353302 0.047440 -0.179727 0.009955 0.378339
  4   2.033756 0.190472 -0.000128 -0.165809 -0.024880 0.100198
  5   2.451511 0.204909 -0.003447 -0.399747 0.116229 0.088772
  6   7.247600 -0.397300 -0.109469 0.000001 0.000021 0.156829
  7   -2.022252 -0.104661 3.136172 0.673409 -1.110756 -3.803788
  8   1.168026 -0.537438 -0.063437 -0.072728 0.733800 -0.189971
  9   6.790376 -0.619176 0.015206 0.046501 0.099558 -1.043113
 10   8.637599 0.544015 -0.090417 -3.376234 0.558206 -0.322487
 11   6.790465 -0.619039 0.017802 0.044153 0.054068 -0.745419
 12   -2.022474 -0.104699 -2.873818 -0.219539 1.461961 -3.468580
 13   1.167898 -0.537463 0.063297 -0.667795 -1.058871 -0.046582
 14   7.002743 -0.617765 -0.183752 0.017594 -0.156191 -1.635258
 15   8.209042 0.615527 -0.255885 1.986264 0.161697 0.288953
 16   7.002735 -0.617911 -0.183641 -0.001237 -0.106198 -1.161081
 17   1.574674 0.609930 -0.000899 0.776901 -0.069715 0.304329
 18   -0.602177 0.511412 -0.000006 0.000000 0.000000 0.000000
 19   3.673773 0.177020 1.119313 -0.000002 -0.000014 -0.174510
 20   3.673767 0.176993 -1.117566 0.000007 -0.000003 -0.174546
 21   3.942357 1.330634 1.627658 0.000002 -0.000011 -0.000026
 22   -0.246060 -0.011889 0.516521 -0.000011 0.000031 0.000025
 23   3.942374 1.330659 -1.631083 0.000019 0.000002 -0.000024
 24   -0.246150 -0.011872 -0.516511 -0.000005 -0.000006 0.000048
 25   4.941364 1.997338 1.629330 0.000018 -0.000001 -0.000024
 26   4.941382 1.997366 -1.629410 -0.000001 0.000005 -0.000024
 27   2.918368 1.615358 1.514501 -0.000019 -0.000022 -0.000050
 28   2.920798 1.614964 -1.501142 -0.000002 -0.000009 -0.000024
 29   8.824059 0.150544 0.091743 0.000006 -0.000231 -0.174534
 30   2.111085 -0.561179 1.784320 -0.000008 -0.000682 0.000024
 31   2.121290 -0.561289 -1.853599 0.000000 0.000000 -0.000002
 32   -0.810489 -0.093824 3.127092 3.071872 -0.114782 1.239365
 33   14.298673 -0.408176 0.475484 0.000248 0.000062 -1.896136
 34   15.835795 0.581398 0.242756 -0.214729 0.106889 -0.097869
 35   -0.815868 -0.091229 -3.114430 0.066464 3.132725 -1.010185
 36   14.294526 -0.410349 -0.463635 0.000033 -0.000000 -2.607695
 37   15.834409 0.579420 -0.284600 -0.006092 -0.035255 0.214458
 38   1.139685 -3.453749 -2.823813 0.000000 0.000000 0.000001
 39   -4.457742 -1.054854 -0.746180 0.000000 0.000000 0.000000
 40   1.118101 -3.449769 3.237290 0.000000 0.000001 0.000000
 41   -4.433840 -1.059130 0.959566 -0.000001 0.000000 0.000000
 42   -0.657468 1.697302 -2.688614 0.000000 0.000002 0.000000
 43   -0.664068 1.698578 2.869377 0.000000 0.000002 0.000000
time 8
  0   -0.967547 0.175787 -20.574476 0.000000 0.000000 -1.572114
  1   -1.093036 0.000002 -0.326057 -0.214003 -1.569036 -1.356583
  2   2.262337 0.113614 0.064702 -0.054785 -0.074999 0.384987
  3   2.380047 0.353302 0.047440 -0.157211 0.004718 0.371646
  4   2.033756 0.190472 -0.000128 -0.155481 -0.025215 0.084503
  5   2.451511 0.204909 -0.003447 -0.389203 0.097455 0.082110
  6   7.247600 -0.397300 -0.109469 0.000001 0.000021 0.156829
  7   -2.022252 -0.104661 3.136172 0.627493 -1.143099 -3.776929
  8   1.168026 -0.537438 -0.063437 -0.204731 0.753221 -0.215971
  9   6.790376 -0.619176 0.015206 0.045946 0.104164 -1.075111
 10   8.637599 0.544015 -0.090417 -3.369013 0.425309 -0.419356
 11   6.790465 -0.619039 0.017802 0.044708 0.057195 -0.767797
 12   -2.022474 -0.104699 -2.873818 -0.739484 1.466663 -3.980412
 13   1.167898 -0.537463 0.063297 -0.475048 -0.983964 -0.282607
 14   7.002743 -0.617765 -0.183752 0.015316 -0.153012 -1.597388
 15   8.209042 0.615527 -0.255885 2.129495 0.244847 0.252690
 16   7.002735 -0.617911 -0.183641 -0.001520 -0.103548 -1.134809
 17   1.574674 0.609930 -0.000899 0.712355 -0.080365 0.359290
 18   -0.602177 0.511412 -0.000006 0.000000 0.000000 0.000000
 19   3.673773 0.177020 1.119313 -0.000002 -0.000014 -0.174510
 20   3.673767 0.176993 -1.117566 0.000007 -0.000003 -0.174546
 21   3.942357 1.330634 1.627658 0.000002 -0.000011 -0.000026
 22   -0.246060 -0.011889 0.516521 -0.000011 0.000031 0.000025
 23   3.942374 1.330659 -1.631083 0.000019 0.000002 -0.000024
 24   -0.246150 -0.011872 -0.516511 -0.000005 -0.000006 0.000048
 25   4.941364 1.997338 1.629330 0.000018 -0.000001 -0.000024
 26   4.941382 1.997366 -1.629410 -0.000001 0.000005 -0.000024
 27   2.918368 1.615358 1.514501 -0.000019 -0.000022 -0.000050
 28   2.920798 1.614964 -1.501142 -0.000002 -0.000009 -0.000024
 29   8.824059 0.150544 0.091743 0.000006 -0.000231 -0.174534
 30   2.111085 -0.561179 1.784320 -0.000008 -0.000682 0.000024
 31   2.121290 -0.561289 -1.853599 0.000000 0.000000 -0.000002
 32   -0.810489 -0.093824 3.127092 3.071872 -0.114782 1.239365
 33   14.298673 -0.408176 0.475484 0.000248 0.000062 -1.896136
 34   15.835795 0.581398 0.242756 -0.214729 0.106889 -0.097869
 35   -0.815868 -0.091229 -3.114430 0.066464 3.132725 -1.010185
 36   14.294526 -0.410349 -0.463635 0.000033 -0.000000 -2.607695
 37   15.834409 0.579420 -0.284600 -0.006092 -0.035255 0.214458
 38   1.139685 -3.453749 -2.823813 0.000000 0.000000 0.000001
 39   -4.457742 -1.054854 -0.746180 0.000000 0.000000 0.000000
 40   1.118101 -3.449769 3.237290 0.000000 0.000001 0.000000
 41   -4.433840 -1.059130 0.959566 -0.000001 0.000000 0.000000
 42   -0.657468 1.697302 -2.688614 0.000000 0.000002 0.000000
 43   -0.664068 1.698578 2.869377 0.000000 0.000002 0.000000
time 9
  0   -0.967547 0.175787 -20.574476 0.000000 0.000000 -1.572114
  1   -1.093036 0.000002 -0.326057 -0.214003 -1.569036 -1.356583
  2   2.262337 0.113614 0.064702 -0.033386 -0.071427 0.380596
  3   2.380047 0.353302 0.047440 -0.139524 0.000895 0.365565
  4   2.033756 0.190472 -0.000128 -0.147403 -0.025287 0.073484
  5   2.451511 0.204909 -0.003447 -0.380696 0.081788 0.077256
  6   7.247600 -0.397300 -0.109469 0.000001 0.000021 0.156829
  7   -2.022252 -0.104661 3.136172 0.615894 -1.163883 -3.782470
  8   1.168026 -0.537438 -0.063437 -0.349264 0.797196 -0.258482
  9   6.790376 -0.619176 0.015206 0.045613 0.106967 -1.090582
 10   8.637599 0.544015 -0.090417 -3.329560 0.305012 -0.460592
 11   6.790465 -0.619039 0.017802 0.045117 0.059156 -0.778467
 12   -2.022474 -0.104699 -2.873818 -1.392601 1.450642 -4.663333
 13   1.167898 -0.537463 0.063297 -0.383455 -0.982489 -0.375467
 14   7.002743 -0.617765 -0.183752 0.014975 -0.152387 -1.574369
 15   8.209042 0.615527 -0.255885 2.214916 0.278894 0.236513
 16   7.002735 -0.617911 -0.183641 -0.001237 -0.102984 -1.118803
 17   1.574674 0.609930 -0.000899 0.656990 -0.076105 0.415582
 18   -0.602177 0.511412 -0.000006 0.000000 0.000000 0.000000
 19   3.673773 0.177020 1.119313 -0.000002 -0.000014 -0.174510
 20   3.673767 0.176993 -1.117566 0.000007 -0.000003 -0.174546
 21   3.942357 1.330634 1.627658 0.000002 -0.000011 -0.000026
 22   -0.246060 -0.011889 0.516521 -0.000011 0.000031 0.000025
 23   3.942374 1.330659 -1.631083 0.000019 0.000002 -0.000024
 24   -0.246150 -0.011872 -0.516511 -0.000005 -0.000006 0.000048
 25   4.941364 1.997338 1.629330 0.000018 -0.000001 -0.000024
 26   4.941382 1.997366 -1.629410 -0.000001 0.000005 -0.000024
 27   2.918368 1.615358 1.514501 -0.000019 -0.000022 -0.000050
 28   2.920798 1.614964 -1.501142 -0.000002 -0.000009 -0.000024
 29   8.824059 0.150544 0.091743 0.000006 -0.000231 -0.174534
 30   2.111085 -0.561179 1.784320 -0.000008 -0.000682 0.000024
 31   2.121290 -0.561289 -1.853599 0.000000 0.000000 -0.000002
 32   -0.810489 -0.093824 3.127092 3.071872 -0.114782 1.239365
 33   14.298673 -0.408176 0.475484 0.000248 0.000062 -1.896136
 34   15.835795 0.581398 0.242756 -0.214729 0.106889 -0.097869
 35   -0.815868 -0.091229 -3.114430 0.066464 3.132725 -1.010185
 36   14.294526 -0.410349 -0.463635 0.000033 -0.000000 -2.607695
 37   15.834409 0.579420 -0.284600 -0.006092 -0.035255 0.214458
 38   1.139685 -3.453749 -2.823813 0.000000 0.000000 0.000001
 39   -4.457742 -1.054854 -0.746180 0.000000 0.000000 0.000000
 40   1.118101 -3.449769 3.237290 0.000000 0.000001 0.000000
 41   -4.433840 -1.059130 0.959566 -0.000001 0.000000 0.000000
 42   -0.657468 1.697302 -2.688614 0.000000 0.000002 0.000000
 43   -0.664068 1.698578 2.869377 0.000000 0.000002 0.000000
time 10
  0   -0.967547 0.175787 -20.574476 0.000000 0.000000 -1.572114
  1   -1.093036 0.000002 -0.326057 -0.214003 -1.569036 -1.356583
  2   2.262337 0.113614 0.064702 -0.017439 -0.072434 0.374470
  3   2.380047 0.353302 0.047440 -0.126594 -0.002101 0.360464
  4   2.033756 0.190472 -0.000128 -0.141188 -0.025875 0.065546
  5   2.451511 0.204909 -0.003447 -0.375253 0.075900 0.071362
  6   7.247600 -0.397300 -0.109469 0.000001 0.000021 0.156829
  7   -2.022252 -0.104661 3.136172 0.597106 -1.173655 -3.790358
  8   1.168026 -0.537438 -0.063437 -0.443931 0.822001 -0.284735
  9   6.790376 -0.619176 0.015206 0.043727 0.110237 -1.140466
 10   8.637599 0.544015 -0.090417 -3.283150 0.163527 -0.445255
 11   6.790465 -0.619039 0.017802 0.044971 0.061430 -0.813245
 12   -2.022474 -0.104699 -2.873818 -1.806774 1.404145 -5.107955
 13   1.167898 -0.537463 0.063297 -0.332773 -1.006136 -0.404100
 14   7.002743 -0.617765 -0.183752 0.015658 -0.152955 -1.586910
 15   8.209042 0.615527 -0.255885 2.259064 0.307569 0.221539
 16   7.002735 -0.617911 -0.183641 -0.001096 -0.103548 -1.127413
 17   1.574674 0.609930 -0.000899 0.615192 -0.052154 0.444338
 18   -0.602177 0.511412 -0.000006 0.000000 0.000000 0.000000
 19   3.673773 0.177020 1.119313 -0.000002 -0.000014 -0.174510
 20   3.673767 0.176993 -1.117566 0.000007 -0.000003 -0.174546
 21   3.942357 1.330634 1.627658 0.000002 -0.000011 -0.000026
 22   -0.246060 -0.011889 0.516521 -0.000011 0.000031 0.000025
 23   3.942374 1.330659 -1.631083 0.000019 0.000002 -0.000024
 24   -0.246150 -0.011872 -0.516511 -0.000005 -0.000006 0.000048
 25   4.941364 1.997338 1.629330 0.000018 -0.000001 -0.000024
 26   4.941382 1.997366 -1.629410 -0.000001 0.000005 -0.000024
 27   2.918368 1.615358 1.514501 -0.000019 -0.000022 -0.000050
 28   2.920798 1.614964 -1.501142 -0.000002 -0.000009 -0.000024
 29   8.824059 0.150544 0.091743 0.000006 -0.000231 -0.174534
 30   2.111085 -0.561179 1.784320 -0.000008 -0.000682 0.000024
 31   2.121290 -0.561289 -1.853599 0.000000 0.000000 -0.000002
 32   -0.810489 -0.093824 3.127092 3.071872 -0.114782 1.239365
 33   14.298673 -0.408176 0.475484 0.000248 0.000062 -1.896136
 34   15.835795 0.581398 0.242756 -0.214729 0.106889 -0.097869
 35   -0.815868 -0.091229 -3.114430 0.066464 3.132725 -1.010185
 36   14.294526 -0.410349 -0.463635 0.000033 -0.000000 -2.607695
 37   15.834409 0.579420 -0.284600 -0.006092 -0.035255 0.214458
 38   1.139685 -3.453749 -2.823813 0.000000 0.000000 0.000001
 39   -4.457742 -1.054854 -0.746180 0.000000 0.000000 0.000000
 40   1.118101 -3.449769 3.237290 0.000000 0.000001 0.000000
 41   -4.433840 -1.059130 0.959566 -0.000001 0.000000 0.000000
 42   -0.657468 1.697302 -2.688614 0.000000 0.000002 0.000000
 43   -0.664068 1.698578 2.869377 0.000000 0.000002 0.000000
time 11
  0   -0.967547 0.175787 -20.574476 0.000000 0.000000 -1.572114
  1   -1.093036 0.000002 -0.326057 -0.214003 -1.569036 -1.356583
  2   2.262337 0.113614 0.064702 -0.007007 -0.073453 0.369374
  3   2.380047 0.353302 0.047440 -0.118388 -0.004522 0.355546
  4   2.033756 0.190472 -0.000128 -0.137315 -0.026773 0.057789
  5   2.451511 0.204909 -0.003447 -0.372052 0.071265 0.065022
  6   7.247600 -0.397300 -0.109469 0.000001 0.000021 0.156829
  7   -2.022252 -0.104661 3.136172 0.559529 -1.181669 -3.772421
  8   1.168026 -0.537438 -0.063437 -0.514046 0.793322 -0.331358
  9   6.790376 -0.619176 0.015206 0.042839 0.111105 -1.161144
 10   8.637599 0.544015 -0.090417 -3.275136 0.075117 -0.376094
 11   6.790465 -0.619039 0.017802 0.044737 0.062084 -0.827779
 12   -2.022474 -0.104699 -2.873818 -1.995898 1.372045 -5.300107
 13   1.167898 -0.537463 0.063297 -0.259526 -1.012849 -0.470507
 14   7.002743 -0.617765 -0.183752 0.016683 -0.154204 -1.610754
 15   8.209042 0.615527 -0.255885 2.307598 0.355158 0.233807
 16   7.002735 -0.617911 -0.183641 -0.001049 -0.104563 -1.144026
 17   1.574674 0.609930 -0.000899 0.585986 -0.030073 0.456424
 18   -0.602177 0.511412 -0.000006 0.000000 0.000000 0.000000
 19   3.673773 0.177020 1.119313 -0.000002 -0.000014 -0.174510
 20   3.673767 0.176993 -1.117566 0.000007 -0.000003 -0.174546
 21   3.942357 1.330634 1.627658 0.000002 -0.000011 -0.000026
 22   -0.246060 -0.011889 0.516521 -0.000011 0.000031 0.000025
 23   3.942374 1.330659 -1.631083 0.000019 0.000002 -0.000024
 24   -0.246150 -0.011872 -0.516511 -0.000005 -0.000006 0.000048
 25   4.941364 1.997338 1.629330 0.000018 -0.000001 -0.000024
 26   4.941382 1.997366 -1.629410 -0.000001 0.000005 -0.000024
 27   2.918368 1.615358 1.514501 -0.000019 -0.000022 -0.000050
 28   2.920798 1.614964 -1.501142 -0.000002 -0.000009 -0.000024
 29   8.824059 0.150544 0.091743 0.000006 -0.000231 -0.174534
 30   2.111085 -0.561179 1.784320 -0.000008 -0.000682 0.000024
 31   2.121290 -0.561289 -1.853599 0.000000 0.000000 -0.000002
 32   -0.810489 -0.093824 3.127092 3.071872 -0.114782 1.239365
 33   14.298673 -0.408176 0.475484 0.000248 0.000062 -1.896136
 34   15.835795 0.581398 0.242756 -0.214729 0.106889 -0.097869
 35   -0.815868 -0.091229 -3.114430 0.066464 3.132725 -1.010185
 36   14.294526 -0.410349 -0.463635 0.000033 -0.000000 -2.607695
 37   15.834409 0.579420 -0.284600 -0.006092 -0.035255 0.214458
 38   1.139685 -3.453749 -2.823813 0.000000 0.000000 0.000001
 39   -4.457742 -1.054854 -0.746180 0.000000 0.000000 0.000000
 40   1.118101 -3.449769 3.237290 0.000000 0.000001 0.000000
 41   -4.433840 -1.059130 0.959566 -0.000001 0.000000 0.000000
 42   -0.657468 1.697302 -2.688614 0.000000 0.000002 0.000000
 43   -0.664068 1.698578 2.869377 0.000000 0.000002 0.000000
time 12
  0   -0.967547 0.175787 -20.574476 0.000000 0.000000 -1.572114
  1   -1.093036 0.000002 -0.326057 -0.214003 -1.569036 -1.356583
  2   2.262337 0.113614 0.064702 -0.000218 -0.074280 0.363736
  3   2.380047 0.353302 0.047440 -0.112463 -0.006512 0.351118
  4   2.033756 0.190472 -0.000128 -0.134567 -0.027529 0.051156
  5   2.451511 0.204909 -0.003447 -0.369416 0.063889 0.059945
  6   7.247600 -0.397300 -0.109469 0.000001 0.000021 0.156829
  7   -2.022252 -0.104661 3.136172 0.549752 -1.189077 -3.773736
  8   1.168026 -0.537438 -0.063437 -0.561190 0.774202 -0.358813
  9   6.790376 -0.619176 0.015206 0.042118 0.110571 -1.167106
 10   8.637599 0.544015 -0.090417 -3.287201 0.011906 -0.291017
 11   6.790465 -0.619039 0.017802 0.044358 0.061828 -0.832047
 12   -2.022474 -0.104699 -2.873818 -2.090172 1.357446 -5.401018
 13   1.167898 -0.537463 0.063297 -0.200339 -1.019409 -0.537095
 14   7.002743 -0.617765 -0.183752 0.017024 -0.155396 -1.621480
 15   8.209042 0.615527 -0.255885 2.328810 0.383531 0.244151
 16   7.002735 -0.617911 -0.183641 -0.001190 -0.105578 -1.151588
 17   1.574674 0.609930 -0.000899 0.566935 -0.006926 0.475607
 18   -0.602177 0.511412 -0.000006 0.000000 0.000000 0.000000
 19   3.673773 0.177020 1.119313 -0.000002 -0.000014 -0.174510
 20   3.673767 0.176993 -1.117566 0.000007 -0.000003 -0.174546
 21   3.942357 1.330634 1.627658 0.000002 -0.000011 -0.000026
 22   -0.246060 -0.011889 0.516521 -0.000011 0.000031 0.000025
 23   3.942374 1.330659 -1.631083 0.000019 0.000002 -0.000024
 24   -0.246150 -0.011872 -0.516511 -0.000005 -0.000006 0.000048
 25   4.941364 1.997338 1.629330 0.000018 -0.000001 -0.000024
 26   4.941382 1.997366 -1.629410 -0.000001 0.000005 -0.000024
 27   2.918368 1.615358 1.514501 -0.000019 -0.000022 -0.000050
 28   2.920798 1.614964 -1.501142 -0.000002 -0.000009 -0.000024
 29   8.824059 0.150544 0.091743 0.000006 -0.000231 -0.174534
 30   2.111085 -0.561179 1.784320 -0.000008 -0.000682 0.000024
 31   2.121290 -0.561289 -1.853599 0.000000 0.000000 -0.000002
 32   -0.810489 -0.093824 3.127092 3.071872 -0.114782 1.239365
 33   14.298673 -0.408176 0.475484 0.000248 0.000062 -1.896136
 34   15.835795 0.581398 0.242756 -0.214729 0.106889 -0.097869
 35   -0.815868 -0.091229 -3.114430 0.066464 3.132725 -1.010185
 36   14.294526 -0.410349 -0.463635 0.000033 -0.000000 -2.607695
 37   15.834409 0.579420 -0.284600 -0.006092 -0.035255 0.214458
 38   1.139685 -3.453749 -2.823813 0.000000 0.000000 0.000001
 39   -4.457742 -1.054854 -0.746180 0.000000 0.000000 0.000000
 40   1.118101 -3.449769 3.237290 0.000000 0.000001 0.000000
 41   -4.433840 -1.059130 0.959566 -0.000001 0.000000 0.000000
 42   -0.657468 1.697302 -2.688614 0.000000 0.000002 0.000000
 43   -0.664068 1.698578 2.869377 0.000000 0.000002 0.000000
time 13
  0   -0.967547 0.175787 -20.574476 0.000000 0.000000 -1.572114
  1   -1.093036 0.000002 -0.326057 -0.214003 -1.569036 -1.356583
  2   2.262337 0.113614 0.064702 0.004024 -0.074268 0.360194
  3   2.380047 0.353302 0.047440 -0.108622 -0.007938 0.348098
  4   2.033756 0.190472 -0.000128 -0.132520 -0.028068 0.046154
  5   2.451511 0.204909 -0.003447 -0.367670 0.057818 0.055735
  6   7.247600 -0.397300 -0.109469 0.000001 0.000021 0.156829
  7   -2.022252 -0.104661 3.136172 0.546397 -1.204240 -3.775896
  8   1.168026 -0.537438 -0.063437 -0.606309 0.785724 -0.402336
  9   6.790376 -0.619176 0.015206 0.042562 0.108435 -1.148767
 10   8.637599 0.544015 -0.090417 -3.317583 -0.004284 -0.224967
 11   6.790465 -0.619039 0.017802 0.044066 0.060350 -0.819185
 12   -2.022474 -0.104699 -2.873818 -2.113070 1.359739 -5.441708
 13   1.167898 -0.537463 0.063297 -0.188600 -1.030901 -0.564578
 14   7.002743 -0.617765 -0.183752 0.018106 -0.156419 -1.640951
 15   8.209042 0.615527 -0.255885 2.312775 0.403580 0.275723
 16   7.002735 -0.617911 -0.183641 -0.001002 -0.106480 -1.165055
 17   1.574674 0.609930 -0.000899 0.556252 0.014161 0.503217
 18   -0.602177 0.511412 -0.000006 0.000000 0.000000 0.000000
 19   3.673773 0.177020 1.119313 -0.000002 -0.000014 -0.174510
 20   3.673767 0.176993 -1.117566 0.000007 -0.000003 -0.174546
 21   3.942357 1.330634 1.627658 0.000002 -0.000011 -0.000026
 22   -0.246060 -0.011889 0.516521 -0.000011 0.000031 0.000025
 23   3.942374 1.330659 -1.631083 0.000019 0.000002 -0.000024
 24   -0.246150 -0.011872 -0.516511 -0.000005 -0.000006 0.000048
 25   4.941364 1.997338 1.629330 0.000018 -0.000001 -0.000024
 26   4.941382 1.997366 -1.629410 -0.000001 0.000005 -0.000024
 27   2.918368 1.615358 1.514501 -0.000019 -0.000022 -0.000050
 28   2.920798 1.614964 -1.501142 -0.000002 -0.000009 -0.000024
 29   8.824059 0.150544 0.091743 0.000006 -0.000231 -0.174534
 30   2.111085 -0.561179 1.784320 -0.000008 -0.000682 0.000024
 31   2.121290 -0.561289 -1.853599 0.000000 0.000000 -0.000002
 32   -0.810489 -0.093824 3.127092 3.071872 -0.114782 1.239365
 33   14.298673 -0.408176 0.475484 0.000248 0.000062 -1.896136
 34   15.835795 0.581398 0.242756 -0.214729 0.106889 -0.097869
 35   -0.815868 -0.091229 -3.114430 0.066464 3.132725 -1.010185
 36   14.294526 -0.410349 -0.463635 0.000033 -0.000000 -2.607695
 37   15.834409 0.579420 -0.284600 -0.006092 -0.035255 0.214458
 38   1.139685 -3.453749 -2.823813 0.000000 0.000000 0.000001
 39   -4.457742 -1.054854 -0.746180 0.000000 0.000000 0.000000
 40   1.118101 -3.449769 3.237290 0.000000 0.000001 0.000000
 41   -4.433840 -1.059130 0.959566 -0.000001 0.000000 0.000000
 42   -0.657468 1.697302 -2.688614 0.000000 0.000002 0.000000
 43   -0.664068 1.698578 2.869377 0.000000 0.000002 0.000000
time 14
  0   -0.967547 0.175787 -20.574476 0.000000 0.000000 -1.572114
  1   -1.093036 0.000002 -0.326057 -0.214003 -1.569036 -1.356583
  2   2.262337 0.113614 0.064702 0.006699 -0.073129 0.358694
  3   2.380047 0.353302 0.047440 -0.106237 -0.008741 0.346119
  4   2.033756 0.190472 -0.000128 -0.131727 -0.028355 0.042348
  5   2.451511 0.204909 -0.003447 -0.366352 0.054385 0.052986
  6   7.247600 -0.397300 -0.109469 0.000001 0.000021 0.156829
  7   -2.022252 -0.104661 3.136172 0.554641 -1.219720 -3.782094
  8   1.168026 -0.537438 -0.063437 -0.659591 0.772190 -0.474959
  9   6.790376 -0.619176 0.015206 0.044115 0.104898 -1.106128
 10   8.637599 0.544015 -0.090417 -3.338983 0.007612 -0.163619
 11   6.790465 -0.619039 0.017802 0.044066 0.057792 -0.789309
 12   -2.022474 -0.104699 -2.873818 -2.100136 1.368272 -5.432517
 13   1.167898 -0.537463 0.063297 -0.183398 -1.032020 -0.581709
 14   7.002743 -0.617765 -0.183752 0.018789 -0.157554 -1.651099
 15   8.209042 0.615527 -0.255885 2.299833 0.444437 0.290456
 16   7.002735 -0.617911 -0.183641 -0.000908 -0.107495 -1.172009
 17   1.574674 0.609930 -0.000899 0.547925 0.023912 0.539253
 18   -0.602177 0.511412 -0.000006 0.000000 0.000000 0.000000
 19   3.673773 0.177020 1.119313 -0.000002 -0.000014 -0.174510
 20   3.673767 0.176993 -1.117566 0.000007 -0.000003 -0.174546
 21   3.942357 1.330634 1.627658 0.000002 -0.000011 -0.000026
 22   -0.246060 -0.011889 0.516521 -0.000011 0.000031 0.000025
 23   3.942374 1.330659 -1.631083 0.000019 0.000002 -0.000024
 24   -0.246150 -0.011872 -0.516511 -0.000005 -0.000006 0.000048
 25   4.941364 1.997338 1.629330 0.000018 -0.000001 -0.000024
 26   4.941382 1.997366 -1.629410 -0.000001 0.000005 -0.000024
 27   2.918368 1.615358 1.514501 -0.000019 -0.000022 -0.000050
 28   2.920798 1.614964 -1.501142 -0.000002 -0.000009 -0.000024
 29   8.824059 0.150544 0.091743 0.000006 -0.000231 -0.174534
 30   2.111085 -0.561179 1.784320 -0.000008 -0.000682 0.000024
 31   2.121290 -0.561289 -1.853599 0.000000 0.000000 -0.000002
 32   -0.810489 -0.093824 3.127092 3.071872 -0.114782 1.239365
 33   14.298673 -0.408176 0.475484 0.000248 0.000062 -1.896136
 34   15.835795 0.581398 0.242756 -0.214729 0.106889 -0.097869
 35   -0.815868 -0.091229 -3.114430 0.066464 3.132725 -1.010185
 36   14.294526 -0.410349 -0.463635 0.000033 -0.000000 -2.607695
 37   15.834409 0.579420 -0.284600 -0.006092 -0.035255 0.214458
 38   1.139685 -3.453749 -2.823813 0.000000 0.000000 0.000001
 39   -4.457742 -1.054854 -0.746180 0.000000 0.000000 0.000000
 40   1.118101 -3.449769 3.237290 0.000000 0.000001 0.000000
 41   -4.433840 -1.059130 0.959566 -0.000001 0.000000 0.000000
 42   -0.657468 1.697302 -2.688614 0.000000 0.000002 0.000000
 43   -0.664068 1.698578 2.869377 0.000000 0.000002 0.000000
time 15
  0   -0.967547 0.175787 -20.574476 0.000000 0.000000 -1.572114
  1   -1.093036 0.000002 -0.326057 -0.214003 -1.569036 -1.356583
  2   2.262337 0.113614 0.064702 0.008100 -0.075814 0.358170
  3   2.380047 0.353302 0.047440 -0.104497 -0.009855 0.343772
  4   2.033756 0.190472 -0.000128 -0.131801 -0.028595 0.038578
  5   2.451511 0.204909 -0.003447 -0.365907 0.053693 0.051054
  6   7.247600 -0.397300 -0.109469 0.000001 0.000021 0.156829
  7   -2.022252 -0.104661 3.136172 0.569403 -1.233354 -3.783784
  8   1.168026 -0.537438 -0.063437 -0.709899 0.754278 -0.554857
  9   6.790376 -0.619176 0.015206 0.046279 0.101227 -1.057527
 10   8.637599 0.544015 -0.090417 -3.363993 0.031052 -0.088815
 11   6.790465 -0.619039 0.017802 0.044358 0.055205 -0.755570
 12   -2.022474 -0.104699 -2.873818 -2.024065 1.401069 -5.339744
 13   1.167898 -0.537463 0.063297 -0.159146 -1.024952 -0.607860
 14   7.002743 -0.617765 -0.183752 0.019757 -0.158804 -1.664795
 15   8.209042 0.615527 -0.255885 2.283511 0.443529 0.309881
 16   7.002735 -0.617911 -0.183641 -0.000719 -0.108510 -1.181668
 17   1.574674 0.609930 -0.000899 0.543904 0.038538 0.577989
 18   -0.602177 0.511412 -0.000006 0.000000 0.000000 0.000000
 19   3.673773 0.177020 1.119313 -0.000002 -0.000014 -0.174510
 20   3.673767 0.176993 -1.117566 0.000007 -0.000003 -0.174546
 21   3.942357 1.330634 1.627658 0.000002 -0.000011 -0.000026
 22   -0.246060 -0.011889 0.516521 -0.000011 0.000031 0.000025
 23   3.942374 1.330659 -1.631083 0.000019 0.000002 -0.000024
 24   -0.246150 -0.011872 -0.516511 -0.000005 -0.000006 0.000048
 25   4.941364 1.997338 1.629330 0.000018 -0.000001 -0.000024
 26   4.941382 1.997366 -1.629410 -0.000001 0.000005 -0.000024
 27   2.918368 1.615358 1.514501 -0.000019 -0.000022 -0.000050
 28   2.920798 1.614964 -1.501142 -0.000002 -0.000009 -0.000024
 29   8.824059 0.150544 0.091743 0.000006 -0.000231 -0.174534
 30   2.111085 -0.561179 1.784320 -0.000008 -0.000682 0.000024
 31   2.121290 -0.561289 -1.853599 0.000000 0.000000 -0.000002
 32   -0.810489 -0.093824 3.127092 3.071872 -0.114782 1.239365
 33   14.298673 -0.408176 0.475484 0.000248 0.000062 -1.896136
 34   15.835795 0.581398 0.242756 -0.214729 0.106889 -0.097869
 35   -0.815868 -0.091229 -3.114430 0.066464 3.132725 -1.010185
 36   14.294526 -0.410349 -0.463635 0.000033 -0.000000 -2.607695
 37   15.834409 0.579420 -0.284600 -0.006092 -0.035255 0.214458
 38   1.139685 -3.453749 -2.823813 0.000000 0.000000 0.000001
 39   -4.457742 -1.054854 -0.746180 0.000000 0.000000 0.000000
 40   1.118101 -3.449769 3.237290 0.000000 0.000001 0.000000
 41   -4.433840 -1.059130 0.959566 -0.000001 0.000000 0.000000
 42   -0.657468 1.697302 -2.688614 0.000000 0.000002 0.000000
 43   -0.664068 1.698578 2.869377 0.000000 0.000002 0.000000
time 16
  0   -0.967547 0.175787 -20.574476 0.000000 0.000000 -1.572114
  1   -1.093036 0.000002 -0.326057 -0.214003 -1.569036 -1.356583
  2   2.262337 0.113614 0.064702 0.009603 -0.080536 0.357754
  3   2.380047 0.353302 0.047440 -0.104167 -0.012276 0.344078
  4   2.033756 0.190472 -0.000128 -0.132059 -0.028715 0.036983
  5   2.451511 0.204909 -0.003447 -0.366061 0.056225 0.050385
  6   7.247600 -0.397300 -0.109469 0.000001 0.000021 0.156829
  7   -2.022252 -0.104661 3.136172 0.590396 -1.242463 -3.773078
  8   1.168026 -0.537438 -0.063437 -0.759954 0.730278 -0.634818
  9   6.790376 -0.619176 0.015206 0.048609 0.097156 -1.011945
 10   8.637599 0.544015 -0.090417 -3.396137 0.062165 -0.017483
 11   6.790465 -0.619039 0.017802 0.044854 0.052249 -0.723675
 12   -2.022474 -0.104699 -2.873818 -1.859660 1.438916 -5.158985
 13   1.167898 -0.537463 0.063297 -0.144033 -1.014984 -0.625173
 14   7.002743 -0.617765 -0.183752 0.020953 -0.160166 -1.685504
 15   8.209042 0.615527 -0.255885 2.270640 0.423101 0.344219
 16   7.002735 -0.617911 -0.183641 -0.000578 -0.109694 -1.196018
 17   1.574674 0.609930 -0.000899 0.546260 0.064879 0.607188
 18   -0.602177 0.511412 -0.000006 0.000000 0.000000 0.000000
 19   3.673773 0.177020 1.119313 -0.000002 -0.000014 -0.174510
 20   3.673767 0.176993 -1.117566 0.000007 -0.000003 -0.174546
 21   3.942357 1.330634 1.627658 0.000002 -0.000011 -0.000026
 22   -0.246060 -0.011889 0.516521 -0.000011 0.000031 0.000025
 23   3.942374 1.330659 -1.631083 0.000019 0.000002 -0.000024
 24   -0.246150 -0.011872 -0.516511 -0.000005 -0.000006 0.000048
 25   4.941364 1.997338 1.629330 0.000018 -0.000001 -0.000024
 26   4.941382 1.997366 -1.629410 -0.000001 0.000005 -0.000024
 27   2.918368 1.615358 1.514501 -0.000019 -0.000022 -0.000050
 28   2.920798 1.614964 -1.501142 -0.000002 -0.000009 -0.000024
 29   8.824059 0.150544 0.091743 0.000006 -0.000231 -0.174534
 30   2.111085 -0.561179 1.784320 -0.000008 -0.000682 0.000024
 31   2.121290 -0.561289 -1.853599 0.000000 0.000000 -0.000002
 32   -0.810489 -0.093824 3.127092 3.071872 -0.114782 1.239365
 33   14.298673 -0.408176 0.475484 0.000248 0.000062 -1.896136
 34   15.835795 0.581398 0.242756 -0.214729 0.106889 -0.097869
 35   -0.815868 -0.091229 -3.114430 0.066464 3.132725 -1.010185
 36   14.294526 -0.410349 -0.463635 0.000033 -0.000000 -2.607695
 37   15.834409 0.579420 -0.284600 -0.006092 -0.035255 0.214458
 38   1.139685 -3.453749 -2.823813 0.000000 0.000000 0.000001
 39   -4.457742 -1.054854 -0.746180 0.000000 0.000000 0.000000
 40   1.118101 -3.449769 3.237290 0.000000 0.000001 0.000000
 41   -4.433840 -1.059130 0.959566 -0.000001 0.000000 0.000000
 42   -0.657468 1.697302 -2.688614 0.000000 0.000002 0.000000
 43   -0.664068 1.698578 2.869377 0.000000 0.000002 0.000000
time 17
  0   -0.967547 0.175787 -20.574476 0.000000 0.000000 -1.572114
  1   -1.093036 0.000002 -0.326057 -0.214003 -1.569036 -1.356583
  2   2.262337 0.113614 0.064702 0.008393 -0.082142 0.357339
  3   2.380047 0.353302 0.047440 -0.105127 -0.012109 0.344629
  4   2.033756 0.190472 -0.000128 -0.132520 -0.028655 0.036766
  5   2.451511 0.204909 -0.003447 -0.366780 0.050416 0.051401
  6   7.247600 -0.397300 -0.109469 0.000001 0.000021 0.156829
  7   -2.022252 -0.104661 3.136172 0.574387 -1.245058 -3.740678
  8   1.168026 -0.537438 -0.063437 -0.779887 0.706429 -0.672458
  9   6.790376 -0.619176 0.015206 0.049774 0.094887 -0.990361
 10   8.637599 0.544015 -0.090417 -3.428104 0.099824 0.058840
 11   6.790465 -0.619039 0.017802 0.045146 0.050657 -0.708565
 12   -2.022474 -0.104699 -2.873818 -1.718249 1.460684 -5.011926
 13   1.167898 -0.537463 0.063297 -0.134403 -1.010865 -0.648479
 14   7.002743 -0.617765 -0.183752 0.021807 -0.161700 -1.701180
 15   8.209042 0.615527 -0.255885 2.265895 0.414929 0.371281
 16   7.002735 -0.617911 -0.183641 -0.000531 -0.110935 -1.206891
 17   1.574674 0.609930 -0.000899 0.556658 0.082108 0.617093
 18   -0.602177 0.511412 -0.000006 0.000000 0.000000 0.000000
 19   3.673773 0.177020 1.119313 -0.000002 -0.000014 -0.174510
 20   3.673767 0.176993 -1.117566 0.000007 -0.000003 -0.174546
 21   3.942357 1.330634 1.627658 0.000002 -0.000011 -0.000026
 22   -0.246060 -0.011889 0.516521 -0.000011 0.000031 0.000025
 23   3.942374 1.330659 -1.631083 0.000019 0.000002 -0.000024
 24   -0.246150 -0.011872 -0.516511 -0.000005 -0.000006 0.000048
 25   4.941364 1.997338 1.629330 0.000018 -0.000001 -0.000024
 26   4.941382 1.997366 -1.629410 -0.000001 0.000005 -0.000024
 27   2.918368 1.615358 1.514501 -0.000019 -0.000022 -0.000050
 28   2.920798 1.614964 -1.501142 -0.000002 -0.000009 -0.000024
 29   8.824059 0.150544 0.091743 0.000006 -0.000231 -0.174534
 30   2.111085 -0.561179 1.784320 -0.000008 -0.000682 0.000024
 31   2.121290 -0.561289 -1.853599 0.000000 0.000000 -0.000002
 32   -0.810489 -0.093824 3.127092 3.071872 -0.114782 1.239365
 33   14.298673 -0.408176 0.475484 0.000248 0.000062 -1.896136
 34   15.835795 0.581398 0.242756 -0.214729 0.106889 -0.097869
 35   -0.815868 -0.091229 -3.114430 0.066464 3.132725 -1.010185
 36   14.294526 -0.410349 -0.463635 0.000033 -0.000000 -2.607695
 37   15.834409 0.579420 -0.284600 -0.006092 -0.035255 0.214458
 38   1.139685 -3.453749 -2.823813 0.000000 0.000000 0.000001
 39   -4.457742 -1.054854 -0.746180 0.000000 0.000000 0.000000
 40   1.118101 -3.449769 3.237290 0.000000 0.000001 0.000000
 41   -4.433840 -1.059130 0.959566 -0.000001 0.000000 0.000000
 42   -0.657468 1.697302 -2.688614 0.000000 0.000002 0.000000
 43   -0.664068 1.698578 2.869377 0.000000 0.000002 0.000000
time 18
  0   -0.967547 0.175787 -20.574476 0.000000 0.000000 -1.572114
  1   -1.093036 0.000002 -0.326057 -0.214003 -1.569036 -1.356583
  2   2.262337 0.113614 0.064702 0.006406 -0.082477 0.355279
  3   2.380047 0.353302 0.047440 -0.107047 -0.011773 0.345282
  4   2.033756 0.190472 -0.000128 -0.133147 -0.028308 0.041768
  5   2.451511 0.204909 -0.003447 -0.367379 0.056095 0.054571
  6   7.247600 -0.397300 -0.109469 0.000001 0.000021 0.156829
  7   -2.022252 -0.104661 3.136172 0.546013 -1.244827 -3.716260
  8   1.168026 -0.537438 -0.063437 -0.776407 0.706077 -0.668346
  9   6.790376 -0.619176 0.015206 0.049552 0.095354 -0.997304
 10   8.637599 0.544015 -0.090417 -3.477949 0.128332 0.128001
 11   6.790465 -0.619039 0.017802 0.045146 0.050913 -0.713525
 12   -2.022474 -0.104699 -2.873818 -1.912546 1.468462 -5.219684
 13   1.167898 -0.537463 0.063297 -0.113174 -1.029427 -0.679291
 14   7.002743 -0.617765 -0.183752 0.023002 -0.162551 -1.715206
 15   8.209042 0.615527 -0.255885 2.253168 0.400176 0.387578
 16   7.002735 -0.617911 -0.183641 -0.000060 -0.111837 -1.216605
 17   1.574674 0.609930 -0.000899 0.560314 0.074890 0.607557
 18   -0.602177 0.511412 -0.000006 0.000000 0.000000 0.000000
 19   3.673773 0.177020 1.119313 -0.000002 -0.000014 -0.174510
 20   3.673767 0.176993 -1.117566 0.000007 -0.000003 -0.174546
 21   3.942357 1.330634 1.627658 0.000002 -0.000011 -0.000026
 22   -0.246060 -0.011889 0.516521 -0.000011 0.000031 0.000025
 23   3.942374 1.330659 -1.631083 0.000019 0.000002 -0.000024
 24   -0.246150 -0.011872 -0.516511 -0.000005 -0.000006 0.000048
 25   4.941364 1.997338 1.629330 0.000018 -0.000001 -0.000024
 26   4.941382 1.997366 -1.629410 -0.000001 0.000005 -0.000024
 27   2.918368 1.615358 1.514501 -0.000019 -0.000022 -0.000050
 28   2.920798 1.614964 -1.501142 -0.000002 -0.000009 -0.000024
 29   8.824059 0.150544 0.091743 0.000006 -0.000231 -0.174534
 30   2.111085 -0.561179 1.784320 -0.000008 -0.000682 0.000024
 31   2.121290 -0.561289 -1.853599 0.000000 0.000000 -0.000002
 32   -0.810489 -0.093824 3.127092 3.071872 -0.114782 1.239365
 33   14.298673 -0.408176 0.475484 0.000248 0.000062 -1.896136
 34   15.835795 0.581398 0.242756 -0.214729 0.106889 -0.097869
 35   -0.815868 -0.091229 -3.114430 0.066464 3.132725 -1.010185
 36   14.294526 -0.410349 -0.463635 0.000033 -0.000000 -2.607695
 37   15.834409 0.579420 -0.284600 -0.006092 -0.035255 0.214458
 38   1.139685 -3.453749 -2.823813 0.000000 0.000000 0.000001
 39   -4.457742 -1.054854 -0.746180 0.000000 0.000000 0.000000
 40   1.118101 -3.449769 3.237290 0.000000 0.000001 0.000000
 41   -4.433840 -1.059130 0.959566 -0.000001 0.000000 0.000000
 42   -0.657468 1.697302 -2.688614 0.000000 0.000002 0.000000
 43   -0.664068 1.698578 2.869377 0.000000 0.000002 0.000000
time 19
  0   -0.967547 0.175787 -20.574476 0.000000 0.000000 -1.572114
  1   -1.093036 0.000002 -0.326057 -0.214003 -1.569036 -1.356583
  2   2.262337 0.113614 0.064702 0.004317 -0.082214 0.355333
  3   2.380047 0.353302 0.047440 -0.108607 -0.011449 0.345874
  4   2.033756 0.190472 -0.000128 -0.133719 -0.027864 0.046842
  5   2.451511 0.204909 -0.003447 -0.368047 0.064907 0.056725
  6   7.247600 -0.397300 -0.109469 0.000001 0.000021 0.156829
  7   -2.022252 -0.104661 3.136172 0.522049 -1.241109 -3.695600
  8   1.168026 -0.537438 -0.063437 -0.764004 0.703209 -0.643801
  9   6.790376 -0.619176 0.015206 0.048831 0.096488 -1.020397
 10   8.637599 0.544015 -0.090417 -3.526385 0.153461 0.189566
 11   6.790465 -0.619039 0.017802 0.045117 0.051794 -0.729616
 12   -2.022474 -0.104699 -2.873818 -2.170746 1.462600 -5.493982
 13   1.167898 -0.537463 0.063297 -0.093351 -1.045496 -0.711980
 14   7.002743 -0.617765 -0.183752 0.023799 -0.162778 -1.723704
 15   8.209042 0.615527 -0.255885 2.246121 0.396847 0.392389
 16   7.002735 -0.617911 -0.183641 0.000269 -0.112119 -1.222621
 17   1.574674 0.609930 -0.000899 0.562264 0.057495 0.599093
 18   -0.602177 0.511412 -0.000006 0.000000 0.000000 0.000000
 19   3.673773 0.177020 1.119313 -0.000002 -0.000014 -0.174510
 20   3.673767 0.176993 -1.117566 0.000007 -0.000003 -0.174546
 21   3.942357 1.330634 1.627658 0.000002 -0.000011 -0.000026
 22   -0.246060 -0.011889 0.516521 -0.000011 0.000031 0.000025
 23   3.942374 1.330659 -1.631083 0.000019 0.000002 -0.000024
 24   -0.246150 -0.011872 -0.516511 -0.000005 -0.000006 0.000048
 25   4.941364 1.997338 1.629330 0.000018 -0.000001 -0.000024
 26   4.941382 1.997366 -1.629410 -0.000001 0.000005 -0.000024
 27   2.918368 1.615358 1.514501 -0.000019 -0.000022 -0.000050
 28   2.920798 1.614964 -1.501142 -0.000002 -0.000009 -0.000024
 29   8.824059 0.150544 0.091743 0.000006 -0.000231 -0.174534
 30   2.111085 -0.561179 1.784320 -0.000008 -0.000682 0.000024
 31   2.121290 -0.561289 -1.853599 0.000000 0.000000 -0.000002
 32   -0.810489 -0.093824 3.127092 3.071872 -0.114782 1.239365
 33   14.298673 -0.408176 0.475484 0.000248 0.000062 -1.896136
 34   15.835795 0.581398 0.242756 -0.214729 0.106889 -0.097869
 35   -0.815868 -0.091229 -3.114430 0.066464 3.132725 -1.010185
 36   14.294526 -0.410349 -0.463635 0.000033 -0.000000 -2.607695
 37   15.834409 0.579420 -0.284600 -0.006092 -0.035255 0.214458
 38   1.139685 -3.453749 -2.823813 0.000000 0.000000 0.000001
 39   -4.457742 -1.054854 -0.746180 0.000000 0.000000 0.000000
 40   1.118101 -3.449769 3.237290 0.000000 0.000001 0.000000
 41   -4.433840 -1.059130 0.959566 -0.000001 0.000000 0.000000
 42   -0.657468 1.697302 -2.688614 0.000000 0.000002 0.000000
 43   -0.664068 1.698578 2.869377 0.000000 0.000002 0.000000
time 20
  0   -0.967547 0.175787 -20.574476 0.000000 0.000000 -1.572114
  1   -1.093036 0.000002 -0.326057 -0.214003 -1.569036 -1.356583
  2   2.262337 0.113614 0.064702 0.002521 -0.081842 0.355369
  3   2.380047 0.353302 0.047440 -0.110242 -0.011222 0.346037
  4   2.033756 0.190472 -0.000128 -0.134180 -0.027816 0.046842
  5   2.451511 0.204909 -0.003447 -0.369553 0.069242 0.055834
  6   7.247600 -0.397300 -0.109469 0.000001 0.000021 0.156829
  7   -2.022252 -0.104661 3.136172 0.514764 -1.234046 -3.685081
  8   1.168026 -0.537438 -0.063437 -0.767168 0.700391 -0.636273
  9   6.790376 -0.619176 0.015206 0.048720 0.096956 -1.027491
 10   8.637599 0.544015 -0.090417 -3.547080 0.185137 0.226968
 11   6.790465 -0.619039 0.017802 0.045117 0.052050 -0.734576
 12   -2.022474 -0.104699 -2.873818 -2.241739 1.458478 -5.568182
 13   1.167898 -0.537463 0.063297 -0.079644 -1.047530 -0.735104
 14   7.002743 -0.617765 -0.183752 0.024141 -0.162778 -1.729892
 15   8.209042 0.615527 -0.255885 2.242742 0.398663 0.404958
 16   7.002735 -0.617911 -0.183641 0.000363 -0.112288 -1.226926
 17   1.574674 0.609930 -0.000899 0.564011 0.044502 0.600868
 18   -0.602177 0.511412 -0.000006 0.000000 0.000000 0.000000
 19   3.673773 0.177020 1.119313 -0.000002 -0.000014 -0.174510
 20   3.673767 0.176993 -1.117566 0.000007 -0.000003 -0.174546
 21   3.942357 1.330634 1.627658 0.000002 -0.000011 -0.000026
 22   -0.246060 -0.011889 0.516521 -0.000011 0.000031 0.000025
 23   3.942374 1.330659 -1.631083 0.000019 0.000002 -0.000024
 24   -0.246150 -0.011872 -0.516511 -0.000005 -0.000006 0.000048
 25   4.941364 1.997338 1.629330 0.000018 -0.000001 -0.000024
 26   4.941382 1.997366 -1.629410 -0.000001 0.000005 -0.000024
 27   2.918368 1.615358 1.514501 -0.000019 -0.000022 -0.000050
 28   2.920798 1.614964 -1.501142 -0.000002 -0.000009 -0.000024
 29   8.824059 0.150544 0.091743 0.000006 -0.000231 -0.174534
 30   2.111085 -0.561179 1.784320 -0.000008 -0.000682 0.000024
 31   2.121290 -0.561289 -1.853599 0.000000 0.000000 -0.000002
 32   -0.810489 -0.093824 3.127092 3.071872 -0.114782 1.239365
 33   14.298673 -0.408176 0.475484 0.000248 0.000062 -1.896136
 34   15.835795 0.581398 0.242756 -0.214729 0.106889 -0.097869
 35   -0.815868 -0.091229 -3.114430 0.066464 3.132725 -1.010185
 36   14.294526 -0.410349 -0.463635 0.000033 -0.000000 -2.607695
 37   15.834409 0.579420 -0.284600 -0.006092 -0.035255 0.214458
 38   1.139685 -3.453749 -2.823813 0.000000 0.000000 0.000001
 39   -4.457742 -1.054854 -0.746180 0.000000 0.000000 0.000000
 40   1.118101 -3.449769 3.237290 0.000000 0.000001 0.000000
 41   -4.433840 -1.059130 0.959566 -0.000001 0.000000 0.000000
 42   -0.657468 1.697302 -2.688614 0.000000 0.000002 0.000000
 43   -0.664068 1.698578 2.869377 0.000000 0.000002 0.000000
time 21
  0   -0.967547 0.175787 -20.574476 0.000000 0.000000 -1.572114
  1   -1.093036 0.000002 -0.326057 -0.214003 -1.569036 -1.356583
  2   2.262337 0.113614 0.064702 0.000776 -0.081518 0.355514
  3   2.380047 0.353302 0.047440 -0.112508 -0.010826 0.346037
  4   2.033756 0.190472 -0.000128 -0.134475 -0.027792 0.046842
  5   2.451511 0.204909 -0.003447 -0.370443 0.073485 0.054992
  6   7.247600 -0.397300 -0.109469 0.000001 0.000021 0.156829
  7   -2.022252 -0.104661 3.136172 0.514093 -1.224620 -3.679353
  8   1.168026 -0.537438 -0.063437 -0.787101 0.693146 -0.651329
  9   6.790376 -0.619176 0.015206 0.049053 0.096221 -1.014888
 10   8.637599 0.544015 -0.090417 -3.536336 0.217094 0.245416
 11   6.790465 -0.619039 0.017802 0.045117 0.051538 -0.725752
 12   -2.022474 -0.104699 -2.873818 -2.221715 1.455837 -5.544343
 13   1.167898 -0.537463 0.063297 -0.069240 -1.043208 -0.748119
 14   7.002743 -0.617765 -0.183752 0.024483 -0.162778 -1.734677
 15   8.209042 0.615527 -0.255885 2.245618 0.406153 0.423480
 16   7.002735 -0.617911 -0.183641 0.000458 -0.112288 -1.230127
 17   1.574674 0.609930 -0.000899 0.565595 0.033497 0.602013
 18   -0.602177 0.511412 -0.000006 0.000000 0.000000 0.000000
 19   3.673773 0.177020 1.119313 -0.000002 -0.000014 -0.174510
 20   3.673767 0.176993 -1.117566 0.000007 -0.000003 -0.174546
 21   3.942357 1.330634 1.627658 0.000002 -0.000011 -0.000026
 22   -0.246060 -0.011889 0.516521 -0.000011 0.000031 0.000025
 23   3.942374 1.330659 -1.631083 0.000019 0.000002 -0.000024
 24   -0.246150 -0.011872 -0.516511 -0.000005 -0.000006 0.000048
 25   4.941364 1.997338 1.629330 0.000018 -0.000001 -0.000024
 26   4.941382 1.997366 -1.629410 -0.000001 0.000005 -0.000024
 27   2.918368 1.615358 1.514501 -0.000019 -0.000022 -0.000050
 28   2.920798 1.614964 -1.501142 -0.000002 -0.000009 -0.000024
 29   8.824059 0.150544 0.091743 0.000006 -0.000231 -0.174534
 30   2.111085 -0.561179 1.784320 -0.000008 -0.000682 0.000024
 31   2.121290 -0.561289 -1.853599 0.000000 0.000000 -0.000002
 32   -0.810489 -0.093824 3.127092 3.071872 -0.114782 1.239365
 33   14.298673 -0.408176 0.475484 0.000248 0.000062 -1.896136
 34   15.835795 0.581398 0.242756 -0.214729 0.106889 -0.097869
 35   -0.815868 -0.091229 -3.114430 0.066464 3.132725 -1.010185
 36   14.294526 -0.410349 -0.463635 0.000033 -0.000000 -2.607695
 37   15.834409 0.579420 -0.284600 -0.006092 -0.035255 0.214458
 38   1.139685 -3.453749 -2.823813 0.000000 0.000000 0.000001
 39   -4.457742 -1.054854 -0.746180 0.000000 0.000000 0.000000
 40   1.118101 -3.449769 3.237290 0.000000 0.000001 0.000000
 41   -4.433840 -1.059130 0.959566 -0.000001 0.000000 0.000000
 42   -0.657468 1.697302 -2.688614 0.000000 0.000002 0.000000
 43   -0.664068 1.698578 2.869377 0.000000 0.000002 0.000000
time 22
  0   -0.967547 0.175787 -20.574476 0.000000 0.000000 -1.572114
  1   -1.093036 0.000002 -0.326057 -0.214003 -1.569036 -1.356583
  2   2.262337 0.113614 0.064702 -0.001160 -0.081171 0.355568
  3   2.380047 0.353302 0.047440 -0.113723 -0.010634 0.346037
  4   2.033756 0.190472 -0.000128 -0.134604 -0.027780 0.046842
  5   2.451511 0.204909 -0.003447 -0.370306 0.078198 0.054150
  6   7.247600 -0.397300 -0.109469 0.000001 0.000021 0.156829
  7   -2.022252 -0.104661 3.136172 0.513038 -1.214069 -3.674469
  8   1.168026 -0.537438 -0.063437 -0.796467 0.690479 -0.651329
  9   6.790376 -0.619176 0.015206 0.048831 0.096622 -1.021831
 10   8.637599 0.544015 -0.090417 -3.528851 0.222444 0.261983
 11   6.790465 -0.619039 0.017802 0.045117 0.051794 -0.730596
 12   -2.022474 -0.104699 -2.873818 -2.198146 1.452470 -5.514759
 13   1.167898 -0.537463 0.063297 -0.058837 -1.038326 -0.755262
 14   7.002743 -0.617765 -0.183752 0.024483 -0.162778 -1.734677
 15   8.209042 0.615527 -0.255885 2.242311 0.401916 0.426006
 16   7.002735 -0.617911 -0.183641 0.000458 -0.112288 -1.230127
 17   1.574674 0.609930 -0.000899 0.568438 0.025971 0.602494
 18   -0.602177 0.511412 -0.000006 0.000000 0.000000 0.000000
 19   3.673773 0.177020 1.119313 -0.000002 -0.000014 -0.174510
 20   3.673767 0.176993 -1.117566 0.000007 -0.000003 -0.174546
 21   3.942357 1.330634 1.627658 0.000002 -0.000011 -0.000026
 22   -0.246060 -0.011889 0.516521 -0.000011 0.000031 0.000025
 23   3.942374 1.330659 -1.631083 0.000019 0.000002 -0.000024
 24   -0.246150 -0.011872 -0.516511 -0.000005 -0.000006 0.000048
 25   4.941364 1.997338 1.629330 0.000018 -0.000001 -0.000024
 26   4.941382 1.997366 -1.629410 -0.000001 0.000005 -0.000024
 27   2.918368 1.615358 1.514501 -0.000019 -0.000022 -0.000050
 28   2.920798 1.614964 -1.501142 -0.000002 -0.000009 -0.000024
 29   8.824059 0.150544 0.091743 0.000006 -0.000231 -0.174534
 30   2.111085 -0.561179 1.784320 -0.000008 -0.000682 0.000024
 31   2.121290 -0.561289 -1.853599 0.000000 0.000000 -0.000002
 32   -0.810489 -0.093824 3.127092 3.071872 -0.114782 1.239365
 33   14.298673 -0.408176 0.475484 0.000248 0.000062 -1.896136
 34   15.835795 0.581398 0.242756 -0.214729 0.106889 -0.097869
 35   -0.815868 -0.091229 -3.114430 0.066464 3.132725 -1.010185
 36   14.294526 -0.410349 -0.463635 0.000033 -0.000000 -2.607695
 37   15.834409 0.579420 -0.284600 -0.006092 -0.035255 0.214458
 38   1.139685 -3.453749 -2.823813 0.000000 0.000000 0.000001
 39   -4.457742 -1.054854 -0.746180 0.000000 0.000000 0.000000
 40   1.118101 -3.449769 3.237290 0.000000 0.000001 0.000000
 41   -4.433840 -1.059130 0.959566 -0.000001 0.000000 0.000000
 42   -0.657468 1.697302 -2.688614 0.000000 0.000002 0.000000
 43   -0.664068 1.698578 2.869377 0.000000 0.000002 0.000000
time 23
  0   -0.967547 0.175787 -20.574476 0.000000 0.000000 -1.572114
  1   -1.093036 0.000002 -0.326057 -0.214003 -1.569036 -1.356583
  2   2.262337 0.113614 0.064702 -0.001160 -0.081171 0.355568
  3   2.380047 0.353302 0.047440 -0.113723 -0.010634 0.346037
  4   2.033756 0.190472 -0.000128 -0.134604 -0.027780 0.046842
  5   2.451511 0.204909 -0.003447 -0.370306 0.078198 0.054150
  6   7.247600 -0.397300 -0.109469 0.000001 0.000021 0.156829
  7   -2.022252 -0.104661 3.136172 0.513038 -1.214069 -3.674469
  8   1.168026 -0.537438 -0.063437 -0.796467 0.690479 -0.651329
  9   6.790376 -0.619176 0.015206 0.048831 0.096622 -1.021831
 10   8.637599 0.544015 -0.090417 -3.528851 0.222444 0.261983
 11   6.790465 -0.619039 0.017802 0.045117 0.051794 -0.730596
 12   -2.022474 -0.104699 -2.873818 -2.198146 1.452470 -5.514759
 13   1.167898 -0.537463 0.063297 -0.058837 -1.038326 -0.755262
 14   7.002743 -0.617765 -0.183752 0.024483 -0.162778 -1.734677
 15   8.209042 0.615527 -0.255885 2.242311 0.401916 0.426006
 16   7.002735 -0.617911 -0.183641 0.000458 -0.112288 -1.230127
 17   1.574674 0.609930 -0.000899 0.568438 0.025971 0.602494
 18   -0.602177 0.511412 -0.000006 0.000000 0.000000 0.000000
 19   3.673773 0.177020 1.119313 -0.000002 -0.000014 -0.174510
 20   3.673767 0.176993 -1.117566 0.000007 -0.000003 -0.174546
 21   3.942357 1.330634 1.627658 0.000002 -0.000011 -0.000026
 22   -0.246060 -0.011889 0.516521 -0.000011 0.000031 0.000025
 23   3.942374 1.330659 -1.631083 0.000019 0.000002 -0.000024
 24   -0.246150 -0.011872 -0.516511 -0.000005 -0.000006 0.000048
 25   4.941364 1.997338 1.629330 0.000018 -0.000001 -0.000024
 26   4.941382 1.997366 -1.629410 -0.000001 0.000005 -0.000024
 27   2.918368 1.615358 1.514501 -0.000019 -0.000022 -0.000050
 28   2.920798 1.614964 -1.501142 -0.000002 -0.000009 -0.000024
 29   8.824059 0.150544 0.091743 0.000006 -0.000231 -0.174534
 30   2.111085 -0.561179 1.784320 -0.000008 -0.000682 0.000024
 31   2.121290 -0.561289 -1.853599 0.000000 0.000000 -0.000002
 32   -0.810489 -0.093824 3.127092 3.071872 -0.114782 1.239365
 33   14.298673 -0.408176 0.475484 0.000248 0.000062 -1.896136
 34   15.835795 0.581398 0.242756 -0.214729 0.106889 -0.097869
 35   -0.815868 -0.091229 -3.114430 0.066464 3.132725 -1.010185
 36   14.294526 -0.410349 -0.463635 0.000033 -0.000000 -2.607695
 37   15.834409 0.579420 -0.284600 -0.006092 -0.035255 0.214458
 38   1.139685 -3.453749 -2.823813 0.000000 0.000000 0.000001
 39   -4.457742 -1.054854 -0.746180 0.000000 0.000000 0.000000
 40   1.118101 -3.449769 3.237290 0.000000 0.000001 0.000000
 41   -4.433840 -1.059130 0.959566 -0.000001 0.000000 0.000000
 42   -0.657468 1.697302 -2.688614 0.000000 0.000002 0.000000
 43   -0.664068 1.698578 2.869377 0.000000 0.000002 0.000000
end
