version 1
nodes
  0 "Bip01" -1
  1 "Bip01 Pelvis" 0
  2 "Bip01 Spine" 1
  3 "Bip01 Spine1" 2
  4 "Bip01 Spine2" 3
  5 "Bip01 Spine3" 4
  6 "Bip01 Neck" 5
  7 "Bip01 L Arm" 6
  8 "Bip01 L Arm1" 7
  9 "Bip01 L Arm2" 8
 10 "Bip01 L Hand" 9
 11 "Bip06 L elbow2-smooth" 8
 12 "Bip01 R Arm" 6
 13 "Bip01 R Arm1" 12
 14 "Bip01 R Arm2" 13
 15 "Bip01 R Hand" 14
 16 "Bip06 R elbow2-smooth" 13
 17 "Bip01 Head" 6
 18 "Bip06 Head_helper" 17
 19 "Bip06 Head_eyes_l" 18
 20 "Bip06 Head_eyes_r" 18
 21 "Bip06 Head_blink_l" 18
 22 "Bip06 Head_blink_smooth_l1" 21
 23 "Bip06 Head_blink_r" 18
 24 "Bip06 Head_blink_smooth_r1" 23
 25 "Bip06 Head_L_eyebrow" 18
 26 "Bip06 Head_R_eyebrow" 18
 27 "Bip06 Head_blink_l_lid" 18
 28 "Bip06 Head_blink_r_lid" 18
 29 "Bip06 bunny" 18
 30 "Bip06 bunnyL" 29
 31 "Bip06 bunnyR" 29
 32 "Bip01 L Leg" 1
 33 "Bip01 L Leg1" 32
 34 "Bip01 L Foot" 33
 35 "Bip01 R Leg" 1
 36 "Bip01 R Leg1" 35
 37 "Bip01 R Foot" 36
 38 "Bip03 HairR1" 17
 39 "Bip03 HairR2" 38
 40 "Bip03 HairL1" 17
 41 "Bip03 HairL2" 40
 42 "Bip03 swingR" 17
 43 "Bip03 swingL" 17
end
skeleton
time 0
  0   -0.967547 0.175787 -20.574476 0.000000 0.000000 -1.572114
  1   -1.093036 0.000002 -0.326057 -1.832769 -1.570379 0.261463
  2   2.262337 0.113614 0.064702 0.052324 -0.006819 -0.056412
  3   2.380047 0.353302 0.047440 -0.017386 -0.028156 -0.038771
  4   2.033756 0.190472 -0.000128 -0.008992 -0.031124 -0.323167
  5   2.451511 0.204909 -0.003447 -0.248280 0.070273 -0.327709
  6   7.247600 -0.397300 -0.109469 0.056796 0.015841 0.258541
  7   -2.022252 -0.104661 3.136172 1.362532 -1.221045 -4.817303
  8   1.168026 -0.537438 -0.063437 -1.262084 0.522228 -1.535077
  9   6.790376 -0.619176 0.015206 0.071411 -0.006358 -0.383980
 10   8.637599 0.544015 -0.090417 -3.259901 0.474019 0.415425
 11   6.790465 -0.619039 0.017802 0.047978 -0.017876 -0.284366
 12   -2.022474 -0.104699 -2.873818 -2.558381 1.445911 -5.925105
 13   1.167898 -0.537463 0.063297 1.564747 -0.219898 -1.617156
 14   7.002743 -0.617765 -0.183752 -0.021690 -0.074138 -0.131845
 15   8.209042 0.615527 -0.255885 1.599211 0.137486 0.101385
 16   7.002735 -0.617911 -0.183641 -0.001096 -0.050656 -0.111314
 17   1.574674 0.609930 -0.000899 -0.155697 -0.032108 0.497340
 18   -0.602177 0.511412 -0.000006 0.000000 0.000000 0.000000
 19   3.673773 0.177020 1.119313 -0.000002 -0.000014 -0.174510
 20   3.673767 0.176993 -1.117566 0.000007 -0.000003 -0.174546
 21   3.942357 1.330634 1.627658 0.000002 -0.000011 -0.000026
 22   -0.246060 -0.011889 0.516521 -0.000011 0.000031 0.000025
 23   3.942374 1.330659 -1.631083 0.000019 0.000002 -0.000024
 24   -0.246150 -0.011872 -0.516511 -0.000005 -0.000006 0.000048
 25   4.941364 1.997338 1.629330 0.000018 -0.000001 -0.000024
 26   4.941382 1.997366 -1.629410 -0.000001 0.000005 -0.000024
 27   2.918368 1.615358 1.514501 -0.000019 -0.000022 -0.000050
 28   2.920798 1.614964 -1.501142 -0.000002 -0.000009 -0.000024
 29   8.824059 0.150544 0.091743 0.000006 -0.000231 -0.174534
 30   2.111085 -0.561179 1.784320 -0.000008 -0.000682 0.000024
 31   2.121290 -0.561289 -1.853599 0.000000 0.000000 -0.000002
 32   -0.810489 -0.093824 3.127092 3.071872 -0.114782 1.239365
 33   14.298673 -0.408176 0.475484 0.000248 0.000062 -1.896136
 34   15.835795 0.581398 0.242756 -0.214729 0.106889 -0.097869
 35   -0.815868 -0.091229 -3.114430 0.066464 3.132725 -1.010185
 36   14.294526 -0.410349 -0.463635 0.000033 -0.000000 -2.607695
 37   15.834409 0.579420 -0.284600 -0.006092 -0.035255 0.214458
 38   1.139685 -3.453749 -2.823813 0.000000 0.000000 0.000001
 39   -4.457742 -1.054854 -0.746180 0.000000 0.000000 0.000000
 40   1.118101 -3.449769 3.237290 0.000000 0.000001 0.000000
 41   -4.433840 -1.059130 0.959566 -0.000001 0.000000 0.000000
 42   -0.657468 1.697302 -2.688614 0.000000 0.000002 0.000000
 43   -0.664068 1.698578 2.869377 0.000000 0.000002 0.000000
time 1
  0   -0.967547 0.175787 -20.574476 0.000000 0.000000 -1.572114
  1   -1.093036 0.000002 -0.326057 -1.832769 -1.570379 0.261463
  2   2.262337 0.113614 0.064702 0.052324 -0.006819 -0.056412
  3   2.380047 0.353302 0.047440 -0.018361 -0.027437 -0.003857
  4   2.033756 0.190472 -0.000128 -0.007885 -0.031471 -0.358109
  5   2.451511 0.204909 -0.003447 -0.250471 0.061578 -0.361588
  6   7.247600 -0.397300 -0.109469 0.056796 0.015841 0.258541
  7   -2.022252 -0.104661 3.136172 1.425798 -1.248517 -4.871866
  8   1.168026 -0.537438 -0.063437 -1.106288 0.804139 -1.402230
  9   6.790376 -0.619176 0.015206 0.066307 0.027412 -0.863802
 10   8.637599 0.544015 -0.090417 -3.259901 0.474019 0.415425
 11   6.790465 -0.619039 0.017802 0.049029 0.002306 -0.620380
 12   -2.022474 -0.104699 -2.873818 -2.814665 1.436043 0.097968
 13   1.167898 -0.537463 0.063297 1.770498 -0.510014 -1.739497
 14   7.002743 -0.617765 -0.183752 -0.005692 -0.062440 -0.655094
 15   8.209042 0.615527 -0.255885 1.520909 0.144674 0.390585
 16   7.002735 -0.617911 -0.183641 0.006389 -0.039773 -0.477408
 17   1.574674 0.609930 -0.000899 -0.157403 -0.022618 0.557327
 18   -0.602177 0.511412 -0.000006 0.000000 0.000000 0.000000
 19   3.673773 0.177020 1.119313 -0.000002 -0.000014 -0.174510
 20   3.673767 0.176993 -1.117566 0.000007 -0.000003 -0.174546
 21   3.942357 1.330634 1.627658 0.000002 -0.000011 -0.000026
 22   -0.246060 -0.011889 0.516521 -0.000011 0.000031 0.000025
 23   3.942374 1.330659 -1.631083 0.000019 0.000002 -0.000024
 24   -0.246150 -0.011872 -0.516511 -0.000005 -0.000006 0.000048
 25   4.941364 1.997338 1.629330 0.000018 -0.000001 -0.000024
 26   4.941382 1.997366 -1.629410 -0.000001 0.000005 -0.000024
 27   2.918368 1.615358 1.514501 -0.000019 -0.000022 -0.000050
 28   2.920798 1.614964 -1.501142 -0.000002 -0.000009 -0.000024
 29   8.824059 0.150544 0.091743 0.000006 -0.000231 -0.174534
 30   2.111085 -0.561179 1.784320 -0.000008 -0.000682 0.000024
 31   2.121290 -0.561289 -1.853599 0.000000 0.000000 -0.000002
 32   -0.810489 -0.093824 3.127092 3.071872 -0.114782 1.239365
 33   14.298673 -0.408176 0.475484 0.000248 0.000062 -1.896136
 34   15.835795 0.581398 0.242756 -0.214729 0.106889 -0.097869
 35   -0.815868 -0.091229 -3.114430 0.066464 3.132725 -1.010185
 36   14.294526 -0.410349 -0.463635 0.000033 -0.000000 -2.607695
 37   15.834409 0.579420 -0.284600 -0.006092 -0.035255 0.214458
 38   1.139685 -3.453749 -2.823813 0.000000 0.000000 0.000001
 39   -4.457742 -1.054854 -0.746180 0.000000 0.000000 0.000000
 40   1.118101 -3.449769 3.237290 0.000000 0.000001 0.000000
 41   -4.433840 -1.059130 0.959566 -0.000001 0.000000 0.000000
 42   -0.657468 1.697302 -2.688614 0.000000 0.000002 0.000000
 43   -0.664068 1.698578 2.869377 0.000000 0.000002 0.000000
time 2
  0   -0.967547 0.175787 -20.574476 0.000000 0.000000 -1.572114
  1   -1.093036 0.000002 -0.326057 -1.832769 -1.570379 0.261463
  2   2.262337 0.113614 0.064702 0.052324 -0.006819 -0.056412
  3   2.380047 0.353302 0.047440 -0.018286 -0.027497 -0.006387
  4   2.033756 0.190472 -0.000128 -0.007959 -0.031447 -0.355536
  5   2.451511 0.204909 -0.003447 -0.250334 0.062231 -0.359086
  6   7.247600 -0.397300 -0.109469 0.056796 0.015841 0.258541
  7   -2.022252 -0.104661 3.136172 1.416404 -1.244827 -4.863602
  8   1.168026 -0.537438 -0.063437 -1.134321 0.764844 -1.427218
  9   6.790376 -0.619176 0.015206 0.067916 0.022941 -0.797768
 10   8.637599 0.544015 -0.090417 -3.259901 0.474019 0.415425
 11   6.790465 -0.619039 0.017802 0.049350 -0.000480 -0.574124
 12   -2.022474 -0.104699 -2.873818 -2.781611 1.437813 0.131286
 13   1.167898 -0.537463 0.063297 1.736546 -0.469535 -1.716554
 14   7.002743 -0.617765 -0.183752 -0.007400 -0.064371 -0.585872
 15   8.209042 0.615527 -0.255885 1.531550 0.142404 0.351315
 16   7.002735 -0.617911 -0.183641 0.005589 -0.041521 -0.429004
 17   1.574674 0.609930 -0.000899 -0.157241 -0.023328 0.552855
 18   -0.602177 0.511412 -0.000006 0.000000 0.000000 0.000000
 19   3.673773 0.177020 1.119313 -0.000002 -0.000014 -0.174510
 20   3.673767 0.176993 -1.117566 0.000007 -0.000003 -0.174546
 21   3.942357 1.330634 1.627658 0.000002 -0.000011 -0.000026
 22   -0.246060 -0.011889 0.516521 -0.000011 0.000031 0.000025
 23   3.942374 1.330659 -1.631083 0.000019 0.000002 -0.000024
 24   -0.246150 -0.011872 -0.516511 -0.000005 -0.000006 0.000048
 25   4.941364 1.997338 1.629330 0.000018 -0.000001 -0.000024
 26   4.941382 1.997366 -1.629410 -0.000001 0.000005 -0.000024
 27   2.918368 1.615358 1.514501 -0.000019 -0.000022 -0.000050
 28   2.920798 1.614964 -1.501142 -0.000002 -0.000009 -0.000024
 29   8.824059 0.150544 0.091743 0.000006 -0.000231 -0.174534
 30   2.111085 -0.561179 1.784320 -0.000008 -0.000682 0.000024
 31   2.121290 -0.561289 -1.853599 0.000000 0.000000 -0.000002
 32   -0.810489 -0.093824 3.127092 3.071872 -0.114782 1.239365
 33   14.298673 -0.408176 0.475484 0.000248 0.000062 -1.896136
 34   15.835795 0.581398 0.242756 -0.214729 0.106889 -0.097869
 35   -0.815868 -0.091229 -3.114430 0.066464 3.132725 -1.010185
 36   14.294526 -0.410349 -0.463635 0.000033 -0.000000 -2.607695
 37   15.834409 0.579420 -0.284600 -0.006092 -0.035255 0.214458
 38   1.139685 -3.453749 -2.823813 0.000000 0.000000 0.000001
 39   -4.457742 -1.054854 -0.746180 0.000000 0.000000 0.000000
 40   1.118101 -3.449769 3.237290 0.000000 0.000001 0.000000
 41   -4.433840 -1.059130 0.959566 -0.000001 0.000000 0.000000
 42   -0.657468 1.697302 -2.688614 0.000000 0.000002 0.000000
 43   -0.664068 1.698578 2.869377 0.000000 0.000002 0.000000
time 3
  0   -0.967547 0.175787 -20.574476 0.000000 0.000000 -1.572114
  1   -1.093036 0.000002 -0.326057 -1.832769 -1.570379 0.261463
  2   2.262337 0.113614 0.064702 0.052324 -0.006819 -0.056412
  3   2.380047 0.353302 0.047440 -0.018121 -0.027617 -0.012366
  4   2.033756 0.190472 -0.000128 -0.008162 -0.031424 -0.349519
  5   2.451511 0.204909 -0.003447 -0.250009 0.063680 -0.353267
  6   7.247600 -0.397300 -0.109469 0.056796 0.015841 0.258541
  7   -2.022252 -0.104661 3.136172 1.392919 -1.234882 -4.843410
  8   1.168026 -0.537438 -0.063437 -1.196209 0.661901 -1.480926
  9   6.790376 -0.619176 0.015206 0.071023 0.010861 -0.624042
 10   8.637599 0.544015 -0.090417 -3.259901 0.474019 0.415425
 11   6.790465 -0.619039 0.017802 0.049496 -0.007785 -0.452373
 12   -2.022474 -0.104699 -2.873818 -2.691553 1.442080 0.222910
 13   1.167898 -0.537463 0.063297 1.657184 -0.363761 -1.666855
 14   7.002743 -0.617765 -0.183752 -0.012694 -0.069141 -0.399245
 15   8.209042 0.615527 -0.255885 1.559592 0.138243 0.247458
 16   7.002735 -0.617911 -0.183641 0.003094 -0.045581 -0.298418
 17   1.574674 0.609930 -0.000899 -0.157078 -0.024961 0.542691
 18   -0.602177 0.511412 -0.000006 0.000000 0.000000 0.000000
 19   3.673773 0.177020 1.119313 -0.000002 -0.000014 -0.174510
 20   3.673767 0.176993 -1.117566 0.000007 -0.000003 -0.174546
 21   3.942357 1.330634 1.627658 0.000002 -0.000011 -0.000026
 22   -0.246060 -0.011889 0.516521 -0.000011 0.000031 0.000025
 23   3.942374 1.330659 -1.631083 0.000019 0.000002 -0.000024
 24   -0.246150 -0.011872 -0.516511 -0.000005 -0.000006 0.000048
 25   4.941364 1.997338 1.629330 0.000018 -0.000001 -0.000024
 26   4.941382 1.997366 -1.629410 -0.000001 0.000005 -0.000024
 27   2.918368 1.615358 1.514501 -0.000019 -0.000022 -0.000050
 28   2.920798 1.614964 -1.501142 -0.000002 -0.000009 -0.000024
 29   8.824059 0.150544 0.091743 0.000006 -0.000231 -0.174534
 30   2.111085 -0.561179 1.784320 -0.000008 -0.000682 0.000024
 31   2.121290 -0.561289 -1.853599 0.000000 0.000000 -0.000002
 32   -0.810489 -0.093824 3.127092 3.071872 -0.114782 1.239365
 33   14.298673 -0.408176 0.475484 0.000248 0.000062 -1.896136
 34   15.835795 0.581398 0.242756 -0.214729 0.106889 -0.097869
 35   -0.815868 -0.091229 -3.114430 0.066464 3.132725 -1.010185
 36   14.294526 -0.410349 -0.463635 0.000033 -0.000000 -2.607695
 37   15.834409 0.579420 -0.284600 -0.006092 -0.035255 0.214458
 38   1.139685 -3.453749 -2.823813 0.000000 0.000000 0.000001
 39   -4.457742 -1.054854 -0.746180 0.000000 0.000000 0.000000
 40   1.118101 -3.449769 3.237290 0.000000 0.000001 0.000000
 41   -4.433840 -1.059130 0.959566 -0.000001 0.000000 0.000000
 42   -0.657468 1.697302 -2.688614 0.000000 0.000002 0.000000
 43   -0.664068 1.698578 2.869377 0.000000 0.000002 0.000000
time 4
  0   -0.967547 0.175787 -20.574476 0.000000 0.000000 -1.572114
  1   -1.093036 0.000002 -0.326057 -1.832769 -1.570379 0.261463
  2   2.262337 0.113614 0.064702 0.052324 -0.006819 -0.056412
  3   2.380047 0.353302 0.047440 -0.017911 -0.027736 -0.019753
  4   2.033756 0.190472 -0.000128 -0.008383 -0.031340 -0.342124
  5   2.451511 0.204909 -0.003447 -0.249547 0.065547 -0.346184
  6   7.247600 -0.397300 -0.109469 0.056796 0.015841 0.258541
  7   -2.022252 -0.104661 3.136172 1.370679 -1.224908 -4.824158
  8   1.168026 -0.537438 -0.063437 -1.245821 0.560467 -1.521982
  9   6.790376 -0.619176 0.015206 0.071744 -0.001686 -0.450165
 10   8.637599 0.544015 -0.090417 -3.259901 0.474019 0.415425
 11   6.790465 -0.619039 0.017802 0.048591 -0.015119 -0.330506
 12   -2.022474 -0.104699 -2.873818 -2.596033 1.445069 -5.963210
 13   1.167898 -0.537463 0.063297 1.588577 -0.259207 -1.629021
 14   7.002743 -0.617765 -0.183752 -0.019014 -0.073002 -0.206512
 15   8.209042 0.615527 -0.255885 1.588210 0.137108 0.141917
 16   7.002735 -0.617911 -0.183641 0.000128 -0.049359 -0.163637
 17   1.574674 0.609930 -0.000899 -0.156672 -0.026949 0.529902
 18   -0.602177 0.511412 -0.000006 0.000000 0.000000 0.000000
 19   3.673773 0.177020 1.119313 -0.000002 -0.000014 -0.174510
 20   3.673767 0.176993 -1.117566 0.000007 -0.000003 -0.174546
 21   3.942357 1.330634 1.627658 0.000002 -0.000011 -0.000026
 22   -0.246060 -0.011889 0.516521 -0.000011 0.000031 0.000025
 23   3.942374 1.330659 -1.631083 0.000019 0.000002 -0.000024
 24   -0.246150 -0.011872 -0.516511 -0.000005 -0.000006 0.000048
 25   4.941364 1.997338 1.629330 0.000018 -0.000001 -0.000024
 26   4.941382 1.997366 -1.629410 -0.000001 0.000005 -0.000024
 27   2.918368 1.615358 1.514501 -0.000019 -0.000022 -0.000050
 28   2.920798 1.614964 -1.501142 -0.000002 -0.000009 -0.000024
 29   8.824059 0.150544 0.091743 0.000006 -0.000231 -0.174534
 30   2.111085 -0.561179 1.784320 -0.000008 -0.000682 0.000024
 31   2.121290 -0.561289 -1.853599 0.000000 0.000000 -0.000002
 32   -0.810489 -0.093824 3.127092 3.071872 -0.114782 1.239365
 33   14.298673 -0.408176 0.475484 0.000248 0.000062 -1.896136
 34   15.835795 0.581398 0.242756 -0.214729 0.106889 -0.097869
 35   -0.815868 -0.091229 -3.114430 0.066464 3.132725 -1.010185
 36   14.294526 -0.410349 -0.463635 0.000033 -0.000000 -2.607695
 37   15.834409 0.579420 -0.284600 -0.006092 -0.035255 0.214458
 38   1.139685 -3.453749 -2.823813 0.000000 0.000000 0.000001
 39   -4.457742 -1.054854 -0.746180 0.000000 0.000000 0.000000
 40   1.118101 -3.449769 3.237290 0.000000 0.000001 0.000000
 41   -4.433840 -1.059130 0.959566 -0.000001 0.000000 0.000000
 42   -0.657468 1.697302 -2.688614 0.000000 0.000002 0.000000
 43   -0.664068 1.698578 2.869377 0.000000 0.000002 0.000000
time 5
  0   -0.967547 0.175787 -20.574476 0.000000 0.000000 -1.572114
  1   -1.093036 0.000002 -0.326057 -1.832769 -1.570379 0.261463
  2   2.262337 0.113614 0.064702 0.052324 -0.006819 -0.056412
  3   2.380047 0.353302 0.047440 -0.017716 -0.027880 -0.027058
  4   2.033756 0.190472 -0.000128 -0.008623 -0.031256 -0.334911
  5   2.451511 0.204909 -0.003447 -0.249016 0.067349 -0.339026
  6   7.247600 -0.397300 -0.109469 0.056796 0.015841 0.258541
  7   -2.022252 -0.104661 3.136172 1.362532 -1.221045 -4.817303
  8   1.168026 -0.537438 -0.063437 -1.262084 0.522228 -1.535077
  9   6.790376 -0.619176 0.015206 0.071411 -0.006358 -0.383980
 10   8.637599 0.544015 -0.090417 -3.259901 0.474019 0.415425
 11   6.790465 -0.619039 0.017802 0.047978 -0.017876 -0.284366
 12   -2.022474 -0.104699 -2.873818 -2.558381 1.445911 -5.925105
 13   1.167898 -0.537463 0.063297 1.564747 -0.219898 -1.617156
 14   7.002743 -0.617765 -0.183752 -0.021690 -0.074138 -0.131845
 15   8.209042 0.615527 -0.255885 1.599211 0.137486 0.101385
 16   7.002735 -0.617911 -0.183641 -0.001096 -0.050656 -0.111314
 17   1.574674 0.609930 -0.000899 -0.156428 -0.028937 0.517410
 18   -0.602177 0.511412 -0.000006 0.000000 0.000000 0.000000
 19   3.673773 0.177020 1.119313 -0.000002 -0.000014 -0.174510
 20   3.673767 0.176993 -1.117566 0.000007 -0.000003 -0.174546
 21   3.942357 1.330634 1.627658 0.000002 -0.000011 -0.000026
 22   -0.246060 -0.011889 0.516521 -0.000011 0.000031 0.000025
 23   3.942374 1.330659 -1.631083 0.000019 0.000002 -0.000024
 24   -0.246150 -0.011872 -0.516511 -0.000005 -0.000006 0.000048
 25   4.941364 1.997338 1.629330 0.000018 -0.000001 -0.000024
 26   4.941382 1.997366 -1.629410 -0.000001 0.000005 -0.000024
 27   2.918368 1.615358 1.514501 -0.000019 -0.000022 -0.000050
 28   2.920798 1.614964 -1.501142 -0.000002 -0.000009 -0.000024
 29   8.824059 0.150544 0.091743 0.000006 -0.000231 -0.174534
 30   2.111085 -0.561179 1.784320 -0.000008 -0.000682 0.000024
 31   2.121290 -0.561289 -1.853599 0.000000 0.000000 -0.000002
 32   -0.810489 -0.093824 3.127092 3.071872 -0.114782 1.239365
 33   14.298673 -0.408176 0.475484 0.000248 0.000062 -1.896136
 34   15.835795 0.581398 0.242756 -0.214729 0.106889 -0.097869
 35   -0.815868 -0.091229 -3.114430 0.066464 3.132725 -1.010185
 36   14.294526 -0.410349 -0.463635 0.000033 -0.000000 -2.607695
 37   15.834409 0.579420 -0.284600 -0.006092 -0.035255 0.214458
 38   1.139685 -3.453749 -2.823813 0.000000 0.000000 0.000001
 39   -4.457742 -1.054854 -0.746180 0.000000 0.000000 0.000000
 40   1.118101 -3.449769 3.237290 0.000000 0.000001 0.000000
 41   -4.433840 -1.059130 0.959566 -0.000001 0.000000 0.000000
 42   -0.657468 1.697302 -2.688614 0.000000 0.000002 0.000000
 43   -0.664068 1.698578 2.869377 0.000000 0.000002 0.000000
time 6
  0   -0.967547 0.175787 -20.574476 0.000000 0.000000 -1.572114
  1   -1.093036 0.000002 -0.326057 -1.832769 -1.570379 0.261463
  2   2.262337 0.113614 0.064702 0.052324 -0.006819 -0.056412
  3   2.380047 0.353302 0.047440 -0.017536 -0.028012 -0.033159
  4   2.033756 0.190472 -0.000128 -0.008789 -0.031184 -0.328749
  5   2.451511 0.204909 -0.003447 -0.248674 0.068863 -0.333107
  6   7.247600 -0.397300 -0.109469 0.056796 0.015841 0.258541
  7   -2.022252 -0.104661 3.136172 1.362532 -1.221045 -4.817303
  8   1.168026 -0.537438 -0.063437 -1.262084 0.522228 -1.535077
  9   6.790376 -0.619176 0.015206 0.071411 -0.006358 -0.383980
 10   8.637599 0.544015 -0.090417 -3.259901 0.474019 0.415425
 11   6.790465 -0.619039 0.017802 0.047978 -0.017876 -0.284366
 12   -2.022474 -0.104699 -2.873818 -2.558381 1.445911 -5.925105
 13   1.167898 -0.537463 0.063297 1.564747 -0.219898 -1.617156
 14   7.002743 -0.617765 -0.183752 -0.021690 -0.074138 -0.131845
 15   8.209042 0.615527 -0.255885 1.599211 0.137486 0.101385
 16   7.002735 -0.617911 -0.183641 -0.001096 -0.050656 -0.111314
 17   1.574674 0.609930 -0.000899 -0.156063 -0.030617 0.506950
 18   -0.602177 0.511412 -0.000006 0.000000 0.000000 0.000000
 19   3.673773 0.177020 1.119313 -0.000002 -0.000014 -0.174510
 20   3.673767 0.176993 -1.117566 0.000007 -0.000003 -0.174546
 21   3.942357 1.330634 1.627658 0.000002 -0.000011 -0.000026
 22   -0.246060 -0.011889 0.516521 -0.000011 0.000031 0.000025
 23   3.942374 1.330659 -1.631083 0.000019 0.000002 -0.000024
 24   -0.246150 -0.011872 -0.516511 -0.000005 -0.000006 0.000048
 25   4.941364 1.997338 1.629330 0.000018 -0.000001 -0.000024
 26   4.941382 1.997366 -1.629410 -0.000001 0.000005 -0.000024
 27   2.918368 1.615358 1.514501 -0.000019 -0.000022 -0.000050
 28   2.920798 1.614964 -1.501142 -0.000002 -0.000009 -0.000024
 29   8.824059 0.150544 0.091743 0.000006 -0.000231 -0.174534
 30   2.111085 -0.561179 1.784320 -0.000008 -0.000682 0.000024
 31   2.121290 -0.561289 -1.853599 0.000000 0.000000 -0.000002
 32   -0.810489 -0.093824 3.127092 3.071872 -0.114782 1.239365
 33   14.298673 -0.408176 0.475484 0.000248 0.000062 -1.896136
 34   15.835795 0.581398 0.242756 -0.214729 0.106889 -0.097869
 35   -0.815868 -0.091229 -3.114430 0.066464 3.132725 -1.010185
 36   14.294526 -0.410349 -0.463635 0.000033 -0.000000 -2.607695
 37   15.834409 0.579420 -0.284600 -0.006092 -0.035255 0.214458
 38   1.139685 -3.453749 -2.823813 0.000000 0.000000 0.000001
 39   -4.457742 -1.054854 -0.746180 0.000000 0.000000 0.000000
 40   1.118101 -3.449769 3.237290 0.000000 0.000001 0.000000
 41   -4.433840 -1.059130 0.959566 -0.000001 0.000000 0.000000
 42   -0.657468 1.697302 -2.688614 0.000000 0.000002 0.000000
 43   -0.664068 1.698578 2.869377 0.000000 0.000002 0.000000
time 7
  0   -0.967547 0.175787 -20.574476 0.000000 0.000000 -1.572114
  1   -1.093036 0.000002 -0.326057 -1.832769 -1.570379 0.261463
  2   2.262337 0.113614 0.064702 0.052324 -0.006819 -0.056412
  3   2.380047 0.353302 0.047440 -0.017431 -0.028132 -0.037261
  4   2.033756 0.190472 -0.000128 -0.008955 -0.031136 -0.324653
  5   2.451511 0.204909 -0.003447 -0.248400 0.069895 -0.329095
  6   7.247600 -0.397300 -0.109469 0.056796 0.015841 0.258541
  7   -2.022252 -0.104661 3.136172 1.362532 -1.221045 -4.817303
  8   1.168026 -0.537438 -0.063437 -1.262084 0.522228 -1.535077
  9   6.790376 -0.619176 0.015206 0.071411 -0.006358 -0.383980
 10   8.637599 0.544015 -0.090417 -3.259901 0.474019 0.415425
 11   6.790465 -0.619039 0.017802 0.047978 -0.017876 -0.284366
 12   -2.022474 -0.104699 -2.873818 -2.558381 1.445911 -5.925105
 13   1.167898 -0.537463 0.063297 1.564747 -0.219898 -1.617156
 14   7.002743 -0.617765 -0.183752 -0.021690 -0.074138 -0.131845
 15   8.209042 0.615527 -0.255885 1.599211 0.137486 0.101385
 16   7.002735 -0.617911 -0.183641 -0.001096 -0.050656 -0.111314
 17   1.574674 0.609930 -0.000899 -0.155819 -0.031706 0.499890
 18   -0.602177 0.511412 -0.000006 0.000000 0.000000 0.000000
 19   3.673773 0.177020 1.119313 -0.000002 -0.000014 -0.174510
 20   3.673767 0.176993 -1.117566 0.000007 -0.000003 -0.174546
 21   3.942357 1.330634 1.627658 0.000002 -0.000011 -0.000026
 22   -0.246060 -0.011889 0.516521 -0.000011 0.000031 0.000025
 23   3.942374 1.330659 -1.631083 0.000019 0.000002 -0.000024
 24   -0.246150 -0.011872 -0.516511 -0.000005 -0.000006 0.000048
 25   4.941364 1.997338 1.629330 0.000018 -0.000001 -0.000024
 26   4.941382 1.997366 -1.629410 -0.000001 0.000005 -0.000024
 27   2.918368 1.615358 1.514501 -0.000019 -0.000022 -0.000050
 28   2.920798 1.614964 -1.501142 -0.000002 -0.000009 -0.000024
 29   8.824059 0.150544 0.091743 0.000006 -0.000231 -0.174534
 30   2.111085 -0.561179 1.784320 -0.000008 -0.000682 0.000024
 31   2.121290 -0.561289 -1.853599 0.000000 0.000000 -0.000002
 32   -0.810489 -0.093824 3.127092 3.071872 -0.114782 1.239365
 33   14.298673 -0.408176 0.475484 0.000248 0.000062 -1.896136
 34   15.835795 0.581398 0.242756 -0.214729 0.106889 -0.097869
 35   -0.815868 -0.091229 -3.114430 0.066464 3.132725 -1.010185
 36   14.294526 -0.410349 -0.463635 0.000033 -0.000000 -2.607695
 37   15.834409 0.579420 -0.284600 -0.006092 -0.035255 0.214458
 38   1.139685 -3.453749 -2.823813 0.000000 0.000000 0.000001
 39   -4.457742 -1.054854 -0.746180 0.000000 0.000000 0.000000
 40   1.118101 -3.449769 3.237290 0.000000 0.000001 0.000000
 41   -4.433840 -1.059130 0.959566 -0.000001 0.000000 0.000000
 42   -0.657468 1.697302 -2.688614 0.000000 0.000002 0.000000
 43   -0.664068 1.698578 2.869377 0.000000 0.000002 0.000000
time 8
  0   -0.967547 0.175787 -20.574476 0.000000 0.000000 -1.572114
  1   -1.093036 0.000002 -0.326057 -1.832769 -1.570379 0.261463
  2   2.262337 0.113614 0.064702 0.052324 -0.006819 -0.056412
  3   2.380047 0.353302 0.047440 -0.017386 -0.028156 -0.038771
  4   2.033756 0.190472 -0.000128 -0.008992 -0.031124 -0.323167
  5   2.451511 0.204909 -0.003447 -0.248280 0.070273 -0.327709
  6   7.247600 -0.397300 -0.109469 0.056796 0.015841 0.258541
  7   -2.022252 -0.104661 3.136172 1.362532 -1.221045 -4.817303
  8   1.168026 -0.537438 -0.063437 -1.262084 0.522228 -1.535077
  9   6.790376 -0.619176 0.015206 0.071411 -0.006358 -0.383980
 10   8.637599 0.544015 -0.090417 -3.259901 0.474019 0.415425
 11   6.790465 -0.619039 0.017802 0.047978 -0.017876 -0.284366
 12   -2.022474 -0.104699 -2.873818 -2.558381 1.445911 -5.925105
 13   1.167898 -0.537463 0.063297 1.564747 -0.219898 -1.617156
 14   7.002743 -0.617765 -0.183752 -0.021690 -0.074138 -0.131845
 15   8.209042 0.615527 -0.255885 1.599211 0.137486 0.101385
 16   7.002735 -0.617911 -0.183641 -0.001096 -0.050656 -0.111314
 17   1.574674 0.609930 -0.000899 -0.155697 -0.032108 0.497340
 18   -0.602177 0.511412 -0.000006 0.000000 0.000000 0.000000
 19   3.673773 0.177020 1.119313 -0.000002 -0.000014 -0.174510
 20   3.673767 0.176993 -1.117566 0.000007 -0.000003 -0.174546
 21   3.942357 1.330634 1.627658 0.000002 -0.000011 -0.000026
 22   -0.246060 -0.011889 0.516521 -0.000011 0.000031 0.000025
 23   3.942374 1.330659 -1.631083 0.000019 0.000002 -0.000024
 24   -0.246150 -0.011872 -0.516511 -0.000005 -0.000006 0.000048
 25   4.941364 1.997338 1.629330 0.000018 -0.000001 -0.000024
 26   4.941382 1.997366 -1.629410 -0.000001 0.000005 -0.000024
 27   2.918368 1.615358 1.514501 -0.000019 -0.000022 -0.000050
 28   2.920798 1.614964 -1.501142 -0.000002 -0.000009 -0.000024
 29   8.824059 0.150544 0.091743 0.000006 -0.000231 -0.174534
 30   2.111085 -0.561179 1.784320 -0.000008 -0.000682 0.000024
 31   2.121290 -0.561289 -1.853599 0.000000 0.000000 -0.000002
 32   -0.810489 -0.093824 3.127092 3.071872 -0.114782 1.239365
 33   14.298673 -0.408176 0.475484 0.000248 0.000062 -1.896136
 34   15.835795 0.581398 0.242756 -0.214729 0.106889 -0.097869
 35   -0.815868 -0.091229 -3.114430 0.066464 3.132725 -1.010185
 36   14.294526 -0.410349 -0.463635 0.000033 -0.000000 -2.607695
 37   15.834409 0.579420 -0.284600 -0.006092 -0.035255 0.214458
 38   1.139685 -3.453749 -2.823813 0.000000 0.000000 0.000001
 39   -4.457742 -1.054854 -0.746180 0.000000 0.000000 0.000000
 40   1.118101 -3.449769 3.237290 0.000000 0.000001 0.000000
 41   -4.433840 -1.059130 0.959566 -0.000001 0.000000 0.000000
 42   -0.657468 1.697302 -2.688614 0.000000 0.000002 0.000000
 43   -0.664068 1.698578 2.869377 0.000000 0.000002 0.000000
end
