version 1
nodes
  0 "Bip01" -1
  1 "Bip01 Pelvis" 0
  2 "Bip01 Spine" 1
  3 "Bip01 Spine1" 2
  4 "Bip01 Spine2" 3
  5 "Bip01 Spine3" 4
  6 "Bip01 Neck" 5
  7 "Bip01 L Arm" 6
  8 "Bip01 L Arm1" 7
  9 "Bip01 L Arm2" 8
 10 "Bip01 L Hand" 9
 11 "Bip06 L elbow2-smooth" 8
 12 "Bip01 R Arm" 6
 13 "Bip01 R Arm1" 12
 14 "Bip01 R Arm2" 13
 15 "Bip01 R Hand" 14
 16 "Bip06 R elbow2-smooth" 13
 17 "Bip01 Head" 6
 18 "Bip06 Head_helper" 17
 19 "Bip06 Head_eyes_l" 18
 20 "Bip06 Head_eyes_r" 18
 21 "Bip06 Head_blink_l" 18
 22 "Bip06 Head_blink_smooth_l1" 21
 23 "Bip06 Head_blink_r" 18
 24 "Bip06 Head_blink_smooth_r1" 23
 25 "Bip06 Head_L_eyebrow" 18
 26 "Bip06 Head_R_eyebrow" 18
 27 "Bip06 Head_blink_l_lid" 18
 28 "Bip06 Head_blink_r_lid" 18
 29 "Bip06 bunny" 18
 30 "Bip06 bunnyL" 29
 31 "Bip06 bunnyR" 29
 32 "Bip01 L Leg" 1
 33 "Bip01 L Leg1" 32
 34 "Bip01 L Foot" 33
 35 "Bip01 R Leg" 1
 36 "Bip01 R Leg1" 35
 37 "Bip01 R Foot" 36
 38 "Bip03 HairR1" 17
 39 "Bip03 HairR2" 38
 40 "Bip03 HairL1" 17
 41 "Bip03 HairL2" 40
 42 "Bip03 swingR" 17
 43 "Bip03 swingL" 17
end
skeleton
time 0
  0   -0.967547 0.175787 -20.574476 0.000000 0.000000 -1.572114
  1   -1.093036 0.000002 -0.326057 -1.570757 -1.570379 -0.000171
  2   2.262337 0.113614 0.064702 0.137462 0.030981 0.021311
  3   2.380047 0.353302 0.047440 -0.139269 -0.008729 -0.042648
  4   2.033756 0.190472 -0.000128 0.001521 -0.005033 -0.000750
  5   2.451511 0.204909 -0.003447 0.000000 -0.000005 -0.017472
  6   7.247600 -0.397300 -0.109469 0.000001 0.000033 0.418409
  7   -2.022252 -0.104661 3.136172 -0.299070 -1.361862 -2.901749
  8   1.168026 -0.537438 -0.063437 -1.439839 0.226380 -1.634459
  9   6.790376 -0.619176 0.015206 -1.099210 0.448610 -0.631136
 10   8.637599 0.544015 -0.090417 -1.488652 -0.125285 -0.473976
 11   6.790465 -0.619039 0.017802 -0.727504 0.374079 -0.393314
 12   -2.022474 -0.104699 -2.873818 0.299352 1.362119 -2.901409
 13   1.167898 -0.537463 0.063297 1.593568 0.015246 -1.887020
 14   7.002743 -0.617765 -0.183752 0.125139 -0.054888 -0.173840
 15   8.209042 0.615527 -0.255885 1.254437 0.102456 -0.226725
 16   7.002735 -0.617911 -0.183641 0.101527 -0.038589 -0.139683
 17   1.574674 0.609930 -0.000899 -0.086440 -0.008181 -0.334283
 18   -0.602177 0.511412 -0.000006 0.000000 0.000000 0.000000
 19   3.673773 0.177020 1.119313 -0.000002 -0.000014 -0.174510
 20   3.673767 0.176993 -1.117566 0.000007 -0.000003 -0.174546
 21   3.942357 1.330634 1.627658 0.000002 -0.000011 -0.000026
 22   -0.246060 -0.011889 0.516521 -0.000011 0.000031 0.000025
 23   3.942374 1.330659 -1.631083 0.000019 0.000002 -0.000024
 24   -0.246150 -0.011872 -0.516511 -0.000005 -0.000006 0.000048
 25   4.941364 1.997338 1.629330 0.000018 -0.000001 -0.000024
 26   4.941382 1.997366 -1.629410 -0.000001 0.000005 -0.000024
 27   2.918368 1.615358 1.514501 -0.000019 -0.000022 -0.000050
 28   2.920798 1.614964 -1.501142 -0.000002 -0.000009 -0.000024
 29   8.824059 0.150544 0.091743 0.000006 -0.000231 -0.174534
 30   2.111085 -0.561179 1.784320 -0.000008 -0.000682 0.000024
 31   2.121290 -0.561289 -1.853599 0.000000 0.000000 -0.000002
 32   -0.810489 -0.093824 3.127092 3.071872 -0.114782 1.239365
 33   14.298673 -0.408176 0.475484 0.000248 0.000062 -1.896136
 34   15.835795 0.581398 0.242756 -0.214729 0.106889 -0.097869
 35   -0.815868 -0.091229 -3.114430 0.066464 3.132725 -1.010185
 36   14.294526 -0.410349 -0.463635 0.000033 -0.000000 -2.607695
 37   15.834409 0.579420 -0.284600 -0.006092 -0.035255 0.214458
 38   1.139685 -3.453749 -2.823813 0.000000 0.000000 0.000001
 39   -4.457742 -1.054854 -0.746180 0.000000 0.000000 0.000000
 40   1.118101 -3.449769 3.237290 0.000000 0.000001 0.000000
 41   -4.433840 -1.059130 0.959566 -0.000001 0.000000 0.000000
 42   -0.657468 1.697302 -2.688614 0.000000 0.000002 0.000000
 43   -0.664068 1.698578 2.869377 0.000000 0.000002 0.000000
time 1
  0   -0.967547 0.175787 -20.574476 0.000000 0.000000 -1.572114
  1   -1.093036 0.000002 -0.326057 -1.570757 -1.570379 -0.000171
  2   2.262337 0.113614 0.064702 0.138774 0.031005 0.027582
  3   2.380047 0.353302 0.047440 -0.125678 -0.007267 -0.032833
  4   2.033756 0.190472 -0.000128 0.007773 -0.005021 -0.000750
  5   2.451511 0.204909 -0.003447 0.000000 -0.000005 -0.017472
  6   7.247600 -0.397300 -0.109469 0.000001 0.000033 0.418409
  7   -2.022252 -0.104661 3.136172 -0.299070 -1.361862 -2.901749
  8   1.168026 -0.537438 -0.063437 -1.448192 0.340845 -1.628133
  9   6.790376 -0.619176 0.015206 -1.124176 0.393949 -0.699736
 10   8.637599 0.544015 -0.090417 -1.426919 -0.097692 -0.430931
 11   6.790465 -0.619039 0.017802 -0.749810 0.346052 -0.449662
 12   -2.022474 -0.104699 -2.873818 0.299352 1.362119 -2.901601
 13   1.167898 -0.537463 0.063297 1.580985 0.031011 -1.842648
 14   7.002743 -0.617765 -0.183752 0.125139 -0.054888 -0.183988
 15   8.209042 0.615527 -0.255885 1.282982 0.086643 -0.232618
 16   7.002735 -0.617911 -0.183641 0.101480 -0.038645 -0.146803
 17   1.574674 0.609930 -0.000899 -0.039726 0.000032 -0.313253
 18   -0.602177 0.511412 -0.000006 0.000000 0.000000 0.000000
 19   3.673773 0.177020 1.119313 -0.000002 -0.000014 -0.174510
 20   3.673767 0.176993 -1.117566 0.000007 -0.000003 -0.174546
 21   3.942357 1.330634 1.627658 0.000002 -0.000011 -0.000026
 22   -0.246060 -0.011889 0.516521 -0.000011 0.000031 0.000025
 23   3.942374 1.330659 -1.631083 0.000019 0.000002 -0.000024
 24   -0.246150 -0.011872 -0.516511 -0.000005 -0.000006 0.000048
 25   4.941364 1.997338 1.629330 0.000018 -0.000001 -0.000024
 26   4.941382 1.997366 -1.629410 -0.000001 0.000005 -0.000024
 27   2.918368 1.615358 1.514501 -0.000019 -0.000022 -0.000050
 28   2.920798 1.614964 -1.501142 -0.000002 -0.000009 -0.000024
 29   8.824059 0.150544 0.091743 0.000006 -0.000231 -0.174534
 30   2.111085 -0.561179 1.784320 -0.000008 -0.000682 0.000024
 31   2.121290 -0.561289 -1.853599 0.000000 0.000000 -0.000002
 32   -0.810489 -0.093824 3.127092 3.071872 -0.114782 1.239365
 33   14.298673 -0.408176 0.475484 0.000248 0.000062 -1.896136
 34   15.835795 0.581398 0.242756 -0.214729 0.106889 -0.097869
 35   -0.815868 -0.091229 -3.114430 0.066464 3.132725 -1.010185
 36   14.294526 -0.410349 -0.463635 0.000033 -0.000000 -2.607695
 37   15.834409 0.579420 -0.284600 -0.006092 -0.035255 0.214458
 38   1.139685 -3.453749 -2.823813 0.000000 0.000000 0.000001
 39   -4.457742 -1.054854 -0.746180 0.000000 0.000000 0.000000
 40   1.118101 -3.449769 3.237290 0.000000 0.000001 0.000000
 41   -4.433840 -1.059130 0.959566 -0.000001 0.000000 0.000000
 42   -0.657468 1.697302 -2.688614 0.000000 0.000002 0.000000
 43   -0.664068 1.698578 2.869377 0.000000 0.000002 0.000000
time 2
  0   -0.967547 0.175787 -20.574476 0.000000 0.000000 -1.572114
  1   -1.093036 0.000002 -0.326057 -1.570757 -1.570379 -0.000171
  2   2.262337 0.113614 0.064702 0.140009 0.031077 0.033780
  3   2.380047 0.353302 0.047440 -0.112043 -0.005877 -0.022977
  4   2.033756 0.190472 -0.000128 0.013988 -0.005021 -0.000750
  5   2.451511 0.204909 -0.003447 0.000000 -0.000005 -0.017472
  6   7.247600 -0.397300 -0.109469 0.000001 0.000033 0.418409
  7   -2.022252 -0.104661 3.136172 -0.299070 -1.361862 -2.901749
  8   1.168026 -0.537438 -0.063437 -1.456102 0.455059 -1.622313
  9   6.790376 -0.619176 0.015206 -1.144426 0.338088 -0.765770
 10   8.637599 0.544015 -0.090417 -1.364128 -0.072844 -0.386801
 11   6.790465 -0.619039 0.017802 -0.769693 0.316717 -0.504857
 12   -2.022474 -0.104699 -2.873818 0.299352 1.362119 -2.901601
 13   1.167898 -0.537463 0.063297 1.568965 0.047487 -1.798579
 14   7.002743 -0.617765 -0.183752 0.125139 -0.054888 -0.193889
 15   8.209042 0.615527 -0.255885 1.311456 0.071057 -0.239053
 16   7.002735 -0.617911 -0.183641 0.101433 -0.038758 -0.153923
 17   1.574674 0.609930 -0.000899 0.006865 0.007487 -0.291667
 18   -0.602177 0.511412 -0.000006 0.000000 0.000000 0.000000
 19   3.673773 0.177020 1.119313 -0.000002 -0.000014 -0.174510
 20   3.673767 0.176993 -1.117566 0.000007 -0.000003 -0.174546
 21   3.942357 1.330634 1.627658 0.000002 -0.000011 -0.000026
 22   -0.246060 -0.011889 0.516521 -0.000011 0.000031 0.000025
 23   3.942374 1.330659 -1.631083 0.000019 0.000002 -0.000024
 24   -0.246150 -0.011872 -0.516511 -0.000005 -0.000006 0.000048
 25   4.941364 1.997338 1.629330 0.000018 -0.000001 -0.000024
 26   4.941382 1.997366 -1.629410 -0.000001 0.000005 -0.000024
 27   2.918368 1.615358 1.514501 -0.000019 -0.000022 -0.000050
 28   2.920798 1.614964 -1.501142 -0.000002 -0.000009 -0.000024
 29   8.824059 0.150544 0.091743 0.000006 -0.000231 -0.174534
 30   2.111085 -0.561179 1.784320 -0.000008 -0.000682 0.000024
 31   2.121290 -0.561289 -1.853599 0.000000 0.000000 -0.000002
 32   -0.810489 -0.093824 3.127092 3.071872 -0.114782 1.239365
 33   14.298673 -0.408176 0.475484 0.000248 0.000062 -1.896136
 34   15.835795 0.581398 0.242756 -0.214729 0.106889 -0.097869
 35   -0.815868 -0.091229 -3.114430 0.066464 3.132725 -1.010185
 36   14.294526 -0.410349 -0.463635 0.000033 -0.000000 -2.607695
 37   15.834409 0.579420 -0.284600 -0.006092 -0.035255 0.214458
 38   1.139685 -3.453749 -2.823813 0.000000 0.000000 0.000001
 39   -4.457742 -1.054854 -0.746180 0.000000 0.000000 0.000000
 40   1.118101 -3.449769 3.237290 0.000000 0.000001 0.000000
 41   -4.433840 -1.059130 0.959566 -0.000001 0.000000 0.000000
 42   -0.657468 1.697302 -2.688614 0.000000 0.000002 0.000000
 43   -0.664068 1.698578 2.869377 0.000000 0.000002 0.000000
time 3
  0   -0.967547 0.175787 -20.574476 0.000000 0.000000 -1.572114
  1   -1.093036 0.000002 -0.326057 -1.570757 -1.570379 -0.000171
  2   2.262337 0.113614 0.064702 0.141245 0.031077 0.040105
  3   2.380047 0.353302 0.047440 -0.098392 -0.004678 -0.013060
  4   2.033756 0.190472 -0.000128 0.020203 -0.005021 -0.000750
  5   2.451511 0.204909 -0.003447 0.000000 -0.000005 -0.017472
  6   7.247600 -0.397300 -0.109469 0.000001 0.000033 0.418409
  7   -2.022252 -0.104661 3.136172 -0.299070 -1.361862 -2.901749
  8   1.168026 -0.537438 -0.063437 -1.463949 0.570027 -1.617442
  9   6.790376 -0.619176 0.015206 -1.160404 0.280958 -0.829238
 10   8.637599 0.544015 -0.090417 -1.300722 -0.050601 -0.341007
 11   6.790465 -0.619039 0.017802 -0.787210 0.286103 -0.558668
 12   -2.022474 -0.104699 -2.873818 0.299352 1.362119 -2.901601
 13   1.167898 -0.537463 0.063297 1.557647 0.064269 -1.754691
 14   7.002743 -0.617765 -0.183752 0.125139 -0.054888 -0.203872
 15   8.209042 0.615527 -0.255885 1.340073 0.055622 -0.245728
 16   7.002735 -0.617911 -0.183641 0.101338 -0.038871 -0.160822
 17   1.574674 0.609930 -0.000899 0.053944 0.013877 -0.269897
 18   -0.602177 0.511412 -0.000006 0.000000 0.000000 0.000000
 19   3.673773 0.177020 1.119313 -0.000002 -0.000014 -0.174510
 20   3.673767 0.176993 -1.117566 0.000007 -0.000003 -0.174546
 21   3.942357 1.330634 1.627658 0.000002 -0.000011 -0.000026
 22   -0.246060 -0.011889 0.516521 -0.000011 0.000031 0.000025
 23   3.942374 1.330659 -1.631083 0.000019 0.000002 -0.000024
 24   -0.246150 -0.011872 -0.516511 -0.000005 -0.000006 0.000048
 25   4.941364 1.997338 1.629330 0.000018 -0.000001 -0.000024
 26   4.941382 1.997366 -1.629410 -0.000001 0.000005 -0.000024
 27   2.918368 1.615358 1.514501 -0.000019 -0.000022 -0.000050
 28   2.920798 1.614964 -1.501142 -0.000002 -0.000009 -0.000024
 29   8.824059 0.150544 0.091743 0.000006 -0.000231 -0.174534
 30   2.111085 -0.561179 1.784320 -0.000008 -0.000682 0.000024
 31   2.121290 -0.561289 -1.853599 0.000000 0.000000 -0.000002
 32   -0.810489 -0.093824 3.127092 3.071872 -0.114782 1.239365
 33   14.298673 -0.408176 0.475484 0.000248 0.000062 -1.896136
 34   15.835795 0.581398 0.242756 -0.214729 0.106889 -0.097869
 35   -0.815868 -0.091229 -3.114430 0.066464 3.132725 -1.010185
 36   14.294526 -0.410349 -0.463635 0.000033 -0.000000 -2.607695
 37   15.834409 0.579420 -0.284600 -0.006092 -0.035255 0.214458
 38   1.139685 -3.453749 -2.823813 0.000000 0.000000 0.000001
 39   -4.457742 -1.054854 -0.746180 0.000000 0.000000 0.000000
 40   1.118101 -3.449769 3.237290 0.000000 0.000001 0.000000
 41   -4.433840 -1.059130 0.959566 -0.000001 0.000000 0.000000
 42   -0.657468 1.697302 -2.688614 0.000000 0.000002 0.000000
 43   -0.664068 1.698578 2.869377 0.000000 0.000002 0.000000
time 4
  0   -0.967547 0.175787 -20.574476 0.000000 0.000000 -1.572114
  1   -1.093036 0.000002 -0.326057 -1.570757 -1.570379 -0.000171
  2   2.262337 0.113614 0.064702 0.142506 0.031077 0.046339
  3   2.380047 0.353302 0.047440 -0.084756 -0.003576 -0.003245
  4   2.033756 0.190472 -0.000128 0.026437 -0.005009 -0.000895
  5   2.451511 0.204909 -0.003447 0.000000 -0.000005 -0.017472
  6   7.247600 -0.397300 -0.109469 0.000001 0.000033 0.418409
  7   -2.022252 -0.104661 3.136172 -0.299070 -1.361862 -2.901749
  8   1.168026 -0.537438 -0.063437 -1.471606 0.684643 -1.613267
  9   6.790376 -0.619176 0.015206 -1.172554 0.223161 -0.890895
 10   8.637599 0.544015 -0.090417 -1.235906 -0.031525 -0.293983
 11   6.790465 -0.619039 0.017802 -0.802451 0.254551 -0.611325
 12   -2.022474 -0.104699 -2.873818 0.299352 1.362119 -2.901601
 13   1.167898 -0.537463 0.063297 1.547103 0.081508 -1.710743
 14   7.002743 -0.617765 -0.183752 0.125139 -0.054888 -0.213690
 15   8.209042 0.615527 -0.255885 1.368762 0.040415 -0.252824
 16   7.002735 -0.617911 -0.183641 0.101291 -0.038927 -0.167666
 17   1.574674 0.609930 -0.000899 0.101225 0.019273 -0.247795
 18   -0.602177 0.511412 -0.000006 0.000000 0.000000 0.000000
 19   3.673773 0.177020 1.119313 -0.000002 -0.000014 -0.174510
 20   3.673767 0.176993 -1.117566 0.000007 -0.000003 -0.174546
 21   3.942357 1.330634 1.627658 0.000002 -0.000011 -0.000026
 22   -0.246060 -0.011889 0.516521 -0.000011 0.000031 0.000025
 23   3.942374 1.330659 -1.631083 0.000019 0.000002 -0.000024
 24   -0.246150 -0.011872 -0.516511 -0.000005 -0.000006 0.000048
 25   4.941364 1.997338 1.629330 0.000018 -0.000001 -0.000024
 26   4.941382 1.997366 -1.629410 -0.000001 0.000005 -0.000024
 27   2.918368 1.615358 1.514501 -0.000019 -0.000022 -0.000050
 28   2.920798 1.614964 -1.501142 -0.000002 -0.000009 -0.000024
 29   8.824059 0.150544 0.091743 0.000006 -0.000231 -0.174534
 30   2.111085 -0.561179 1.784320 -0.000008 -0.000682 0.000024
 31   2.121290 -0.561289 -1.853599 0.000000 0.000000 -0.000002
 32   -0.810489 -0.093824 3.127092 3.071872 -0.114782 1.239365
 33   14.298673 -0.408176 0.475484 0.000248 0.000062 -1.896136
 34   15.835795 0.581398 0.242756 -0.214729 0.106889 -0.097869
 35   -0.815868 -0.091229 -3.114430 0.066464 3.132725 -1.010185
 36   14.294526 -0.410349 -0.463635 0.000033 -0.000000 -2.607695
 37   15.834409 0.579420 -0.284600 -0.006092 -0.035255 0.214458
 38   1.139685 -3.453749 -2.823813 0.000000 0.000000 0.000001
 39   -4.457742 -1.054854 -0.746180 0.000000 0.000000 0.000000
 40   1.118101 -3.449769 3.237290 0.000000 0.000001 0.000000
 41   -4.433840 -1.059130 0.959566 -0.000001 0.000000 0.000000
 42   -0.657468 1.697302 -2.688614 0.000000 0.000002 0.000000
 43   -0.664068 1.698578 2.869377 0.000000 0.000002 0.000000
time 5
  0   -0.967547 0.175787 -20.574476 0.000000 0.000000 -1.572114
  1   -1.093036 0.000002 -0.326057 -1.570757 -1.570379 -0.000171
  2   2.262337 0.113614 0.064702 0.143703 0.031077 0.052664
  3   2.380047 0.353302 0.047440 -0.071015 -0.002701 0.006693
  4   2.033756 0.190472 -0.000128 0.032689 -0.005009 -0.000895
  5   2.451511 0.204909 -0.003447 0.000000 -0.000005 -0.017472
  6   7.247600 -0.397300 -0.109469 0.000001 0.000033 0.418409
  7   -2.022252 -0.104661 3.136172 -0.299070 -1.361862 -2.901749
  8   1.168026 -0.537438 -0.063437 -1.479516 0.799410 -1.609661
  9   6.790376 -0.619176 0.015206 -1.180876 0.164563 -0.951420
 10   8.637599 0.544015 -0.090417 -1.170650 -0.015476 -0.245730
 11   6.790465 -0.619039 0.017802 -0.815414 0.221919 -0.663174
 12   -2.022474 -0.104699 -2.873818 0.299352 1.362119 -2.901409
 13   1.167898 -0.537463 0.063297 1.537262 0.099306 -1.667037
 14   7.002743 -0.617765 -0.183752 0.125139 -0.054888 -0.223591
 15   8.209042 0.615527 -0.255885 1.397667 0.025359 -0.260642
 16   7.002735 -0.617911 -0.183641 0.101244 -0.039040 -0.174620
 17   1.574674 0.609930 -0.000899 0.148548 0.023699 -0.225396
 18   -0.602177 0.511412 -0.000006 0.000000 0.000000 0.000000
 19   3.673773 0.177020 1.119313 -0.000002 -0.000014 -0.174510
 20   3.673767 0.176993 -1.117566 0.000007 -0.000003 -0.174546
 21   3.942357 1.330634 1.627658 0.000002 -0.000011 -0.000026
 22   -0.246060 -0.011889 0.516521 -0.000011 0.000031 0.000025
 23   3.942374 1.330659 -1.631083 0.000019 0.000002 -0.000024
 24   -0.246150 -0.011872 -0.516511 -0.000005 -0.000006 0.000048
 25   4.941364 1.997338 1.629330 0.000018 -0.000001 -0.000024
 26   4.941382 1.997366 -1.629410 -0.000001 0.000005 -0.000024
 27   2.918368 1.615358 1.514501 -0.000019 -0.000022 -0.000050
 28   2.920798 1.614964 -1.501142 -0.000002 -0.000009 -0.000024
 29   8.824059 0.150544 0.091743 0.000006 -0.000231 -0.174534
 30   2.111085 -0.561179 1.784320 -0.000008 -0.000682 0.000024
 31   2.121290 -0.561289 -1.853599 0.000000 0.000000 -0.000002
 32   -0.810489 -0.093824 3.127092 3.071872 -0.114782 1.239365
 33   14.298673 -0.408176 0.475484 0.000248 0.000062 -1.896136
 34   15.835795 0.581398 0.242756 -0.214729 0.106889 -0.097869
 35   -0.815868 -0.091229 -3.114430 0.066464 3.132725 -1.010185
 36   14.294526 -0.410349 -0.463635 0.000033 -0.000000 -2.607695
 37   15.834409 0.579420 -0.284600 -0.006092 -0.035255 0.214458
 38   1.139685 -3.453749 -2.823813 0.000000 0.000000 0.000001
 39   -4.457742 -1.054854 -0.746180 0.000000 0.000000 0.000000
 40   1.118101 -3.449769 3.237290 0.000000 0.000001 0.000000
 41   -4.433840 -1.059130 0.959566 -0.000001 0.000000 0.000000
 42   -0.657468 1.697302 -2.688614 0.000000 0.000002 0.000000
 43   -0.664068 1.698578 2.869377 0.000000 0.000002 0.000000
time 6
  0   -0.967547 0.175787 -20.574476 0.000000 0.000000 -1.572114
  1   -1.093036 0.000002 -0.326057 -1.570757 -1.570379 -0.000171
  2   2.262337 0.113614 0.064702 0.144964 0.031017 0.058844
  3   2.380047 0.353302 0.047440 -0.057364 -0.001922 0.016569
  4   2.033756 0.190472 -0.000128 0.038941 -0.005009 -0.000895
  5   2.451511 0.204909 -0.003447 0.000000 -0.000005 -0.017472
  6   7.247600 -0.397300 -0.109469 0.000001 0.000033 0.418409
  7   -2.022252 -0.104661 3.136172 -0.299070 -1.361862 -2.901749
  8   1.168026 -0.537438 -0.063437 -1.488059 0.914378 -1.607257
  9   6.790376 -0.619176 0.015206 -1.185481 0.105699 -1.010360
 10   8.637599 0.544015 -0.090417 -1.104513 -0.002524 -0.196608
 11   6.790465 -0.619039 0.017802 -0.826129 0.188576 -0.713871
 12   -2.022474 -0.104699 -2.873818 0.299352 1.362119 -2.901601
 13   1.167898 -0.537463 0.063297 1.528264 0.117563 -1.623573
 14   7.002743 -0.617765 -0.183752 0.125139 -0.054888 -0.233904
 15   8.209042 0.615527 -0.255885 1.426500 0.010681 -0.268640
 16   7.002735 -0.617911 -0.183641 0.101150 -0.039096 -0.181740
 17   1.574674 0.609930 -0.000899 0.195911 0.026965 -0.202924
 18   -0.602177 0.511412 -0.000006 0.000000 0.000000 0.000000
 19   3.673773 0.177020 1.119313 -0.000002 -0.000014 -0.174510
 20   3.673767 0.176993 -1.117566 0.000007 -0.000003 -0.174546
 21   3.942357 1.330634 1.627658 0.000002 -0.000011 -0.000026
 22   -0.246060 -0.011889 0.516521 -0.000011 0.000031 0.000025
 23   3.942374 1.330659 -1.631083 0.000019 0.000002 -0.000024
 24   -0.246150 -0.011872 -0.516511 -0.000005 -0.000006 0.000048
 25   4.941364 1.997338 1.629330 0.000018 -0.000001 -0.000024
 26   4.941382 1.997366 -1.629410 -0.000001 0.000005 -0.000024
 27   2.918368 1.615358 1.514501 -0.000019 -0.000022 -0.000050
 28   2.920798 1.614964 -1.501142 -0.000002 -0.000009 -0.000024
 29   8.824059 0.150544 0.091743 0.000006 -0.000231 -0.174534
 30   2.111085 -0.561179 1.784320 -0.000008 -0.000682 0.000024
 31   2.121290 -0.561289 -1.853599 0.000000 0.000000 -0.000002
 32   -0.810489 -0.093824 3.127092 3.071872 -0.114782 1.239365
 33   14.298673 -0.408176 0.475484 0.000248 0.000062 -1.896136
 34   15.835795 0.581398 0.242756 -0.214729 0.106889 -0.097869
 35   -0.815868 -0.091229 -3.114430 0.066464 3.132725 -1.010185
 36   14.294526 -0.410349 -0.463635 0.000033 -0.000000 -2.607695
 37   15.834409 0.579420 -0.284600 -0.006092 -0.035255 0.214458
 38   1.139685 -3.453749 -2.823813 0.000000 0.000000 0.000001
 39   -4.457742 -1.054854 -0.746180 0.000000 0.000000 0.000000
 40   1.118101 -3.449769 3.237290 0.000000 0.000001 0.000000
 41   -4.433840 -1.059130 0.959566 -0.000001 0.000000 0.000000
 42   -0.657468 1.697302 -2.688614 0.000000 0.000002 0.000000
 43   -0.664068 1.698578 2.869377 0.000000 0.000002 0.000000
time 7
  0   -0.967547 0.175787 -20.574476 0.000000 0.000000 -1.572114
  1   -1.093036 0.000002 -0.326057 -1.570757 -1.570379 -0.000171
  2   2.262337 0.113614 0.064702 0.146264 0.030993 0.065223
  3   2.380047 0.353302 0.047440 -0.043608 -0.001215 0.026323
  4   2.033756 0.190472 -0.000128 0.045156 -0.004997 -0.000895
  5   2.451511 0.204909 -0.003447 0.000000 -0.000005 -0.017472
  6   7.247600 -0.397300 -0.109469 0.000001 0.000033 0.418409
  7   -2.022252 -0.104661 3.136172 -0.299070 -1.361862 -2.901749
  8   1.168026 -0.537438 -0.063437 -1.497298 1.028994 -1.606245
  9   6.790376 -0.619176 0.015206 -1.186646 0.046633 -1.069149
 10   8.637599 0.544015 -0.090417 -1.038024 0.006838 -0.146618
 11   6.790465 -0.619039 0.017802 -0.834508 0.154551 -0.764105
 12   -2.022474 -0.104699 -2.873818 0.299352 1.362119 -2.901601
 13   1.167898 -0.537463 0.063297 1.520040 0.135971 -1.579867
 14   7.002743 -0.617765 -0.183752 0.125139 -0.054888 -0.243887
 15   8.209042 0.615527 -0.255885 1.455477 -0.003619 -0.277300
 16   7.002735 -0.617911 -0.183641 0.101150 -0.039209 -0.188805
 17   1.574674 0.609930 -0.000899 0.243477 0.029166 -0.180267
 18   -0.602177 0.511412 -0.000006 0.000000 0.000000 0.000000
 19   3.673773 0.177020 1.119313 -0.000002 -0.000014 -0.174510
 20   3.673767 0.176993 -1.117566 0.000007 -0.000003 -0.174546
 21   3.942357 1.330634 1.627658 0.000002 -0.000011 -0.000026
 22   -0.246060 -0.011889 0.516521 -0.000011 0.000031 0.000025
 23   3.942374 1.330659 -1.631083 0.000019 0.000002 -0.000024
 24   -0.246150 -0.011872 -0.516511 -0.000005 -0.000006 0.000048
 25   4.941364 1.997338 1.629330 0.000018 -0.000001 -0.000024
 26   4.941382 1.997366 -1.629410 -0.000001 0.000005 -0.000024
 27   2.918368 1.615358 1.514501 -0.000019 -0.000022 -0.000050
 28   2.920798 1.614964 -1.501142 -0.000002 -0.000009 -0.000024
 29   8.824059 0.150544 0.091743 0.000006 -0.000231 -0.174534
 30   2.111085 -0.561179 1.784320 -0.000008 -0.000682 0.000024
 31   2.121290 -0.561289 -1.853599 0.000000 0.000000 -0.000002
 32   -0.810489 -0.093824 3.127092 3.071872 -0.114782 1.239365
 33   14.298673 -0.408176 0.475484 0.000248 0.000062 -1.896136
 34   15.835795 0.581398 0.242756 -0.214729 0.106889 -0.097869
 35   -0.815868 -0.091229 -3.114430 0.066464 3.132725 -1.010185
 36   14.294526 -0.410349 -0.463635 0.000033 -0.000000 -2.607695
 37   15.834409 0.579420 -0.284600 -0.006092 -0.035255 0.214458
 38   1.139685 -3.453749 -2.823813 0.000000 0.000000 0.000001
 39   -4.457742 -1.054854 -0.746180 0.000000 0.000000 0.000000
 40   1.118101 -3.449769 3.237290 0.000000 0.000001 0.000000
 41   -4.433840 -1.059130 0.959566 -0.000001 0.000000 0.000000
 42   -0.657468 1.697302 -2.688614 0.000000 0.000002 0.000000
 43   -0.664068 1.698578 2.869377 0.000000 0.000002 0.000000
time 8
  0   -0.967547 0.175787 -20.574476 0.000000 0.000000 -1.572114
  1   -1.093036 0.000002 -0.326057 -1.570757 -1.570379 -0.000171
  2   2.262337 0.113614 0.064702 0.147435 0.030957 0.071440
  3   2.380047 0.353302 0.047440 -0.029807 -0.000651 0.036261
  4   2.033756 0.190472 -0.000128 0.051408 -0.004997 -0.001040
  5   2.451511 0.204909 -0.003447 0.000000 -0.000005 -0.017472
  6   7.247600 -0.397300 -0.109469 0.000001 0.000033 0.418409
  7   -2.022252 -0.104661 3.136172 -0.299070 -1.361862 -2.901749
  8   1.168026 -0.537438 -0.063437 -1.508625 1.143962 -1.607447
  9   6.790376 -0.619176 0.015206 -1.184482 -0.012298 -1.127712
 10   8.637599 0.544015 -0.090417 -0.971007 0.013032 -0.096628
 11   6.790465 -0.619039 0.017802 -0.840727 0.120043 -0.813591
 12   -2.022474 -0.104699 -2.873818 0.299352 1.362119 -2.901601
 13   1.167898 -0.537463 0.063297 1.512519 0.155041 -1.536403
 14   7.002743 -0.617765 -0.183752 0.125139 -0.054888 -0.253788
 15   8.209042 0.615527 -0.255885 1.484598 -0.018146 -0.286080
 16   7.002735 -0.617911 -0.183641 0.101056 -0.039322 -0.195704
 17   1.574674 0.609930 -0.000899 0.291003 0.030302 -0.157573
 18   -0.602177 0.511412 -0.000006 0.000000 0.000000 0.000000
 19   3.673773 0.177020 1.119313 -0.000002 -0.000014 -0.174510
 20   3.673767 0.176993 -1.117566 0.000007 -0.000003 -0.174546
 21   3.942357 1.330634 1.627658 0.000002 -0.000011 -0.000026
 22   -0.246060 -0.011889 0.516521 -0.000011 0.000031 0.000025
 23   3.942374 1.330659 -1.631083 0.000019 0.000002 -0.000024
 24   -0.246150 -0.011872 -0.516511 -0.000005 -0.000006 0.000048
 25   4.941364 1.997338 1.629330 0.000018 -0.000001 -0.000024
 26   4.941382 1.997366 -1.629410 -0.000001 0.000005 -0.000024
 27   2.918368 1.615358 1.514501 -0.000019 -0.000022 -0.000050
 28   2.920798 1.614964 -1.501142 -0.000002 -0.000009 -0.000024
 29   8.824059 0.150544 0.091743 0.000006 -0.000231 -0.174534
 30   2.111085 -0.561179 1.784320 -0.000008 -0.000682 0.000024
 31   2.121290 -0.561289 -1.853599 0.000000 0.000000 -0.000002
 32   -0.810489 -0.093824 3.127092 3.071872 -0.114782 1.239365
 33   14.298673 -0.408176 0.475484 0.000248 0.000062 -1.896136
 34   15.835795 0.581398 0.242756 -0.214729 0.106889 -0.097869
 35   -0.815868 -0.091229 -3.114430 0.066464 3.132725 -1.010185
 36   14.294526 -0.410349 -0.463635 0.000033 -0.000000 -2.607695
 37   15.834409 0.579420 -0.284600 -0.006092 -0.035255 0.214458
 38   1.139685 -3.453749 -2.823813 0.000000 0.000000 0.000001
 39   -4.457742 -1.054854 -0.746180 0.000000 0.000000 0.000000
 40   1.118101 -3.449769 3.237290 0.000000 0.000001 0.000000
 41   -4.433840 -1.059130 0.959566 -0.000001 0.000000 0.000000
 42   -0.657468 1.697302 -2.688614 0.000000 0.000002 0.000000
 43   -0.664068 1.698578 2.869377 0.000000 0.000002 0.000000
time 9
  0   -0.967547 0.175787 -20.574476 0.000000 0.000000 -1.572114
  1   -1.093036 0.000002 -0.326057 -1.570757 -1.570379 -0.000171
  2   2.262337 0.113614 0.064702 0.148747 0.030921 0.077728
  3   2.380047 0.353302 0.047440 -0.016126 -0.000340 0.046198
  4   2.033756 0.190472 -0.000128 0.057605 -0.004997 -0.001040
  5   2.451511 0.204909 -0.003447 0.000000 -0.000005 -0.017472
  6   7.247600 -0.397300 -0.109469 0.000001 0.000033 0.418409
  7   -2.022252 -0.104661 3.136172 -0.299070 -1.361862 -2.901749
  8   1.168026 -0.537438 -0.063437 -1.524572 1.259031 -1.613520
  9   6.790376 -0.619176 0.015206 -1.178657 -0.070496 -1.186501
 10   8.637599 0.544015 -0.090417 -0.903549 0.015918 -0.045770
 11   6.790465 -0.619039 0.017802 -0.844610 0.085279 -0.862557
 12   -2.022474 -0.104699 -2.873818 0.299352 1.362119 -2.901601
 13   1.167898 -0.537463 0.063297 1.505911 0.174060 -1.493060
 14   7.002743 -0.617765 -0.183752 0.125139 -0.054888 -0.263771
 15   8.209042 0.615527 -0.255885 1.513862 -0.031916 -0.295281
 16   7.002735 -0.617911 -0.183641 0.101009 -0.039322 -0.202824
 17   1.574674 0.609930 -0.000899 0.338569 0.030373 -0.134768
 18   -0.602177 0.511412 -0.000006 0.000000 0.000000 0.000000
 19   3.673773 0.177020 1.119313 -0.000002 -0.000014 -0.174510
 20   3.673767 0.176993 -1.117566 0.000007 -0.000003 -0.174546
 21   3.942357 1.330634 1.627658 0.000002 -0.000011 -0.000026
 22   -0.246060 -0.011889 0.516521 -0.000011 0.000031 0.000025
 23   3.942374 1.330659 -1.631083 0.000019 0.000002 -0.000024
 24   -0.246150 -0.011872 -0.516511 -0.000005 -0.000006 0.000048
 25   4.941364 1.997338 1.629330 0.000018 -0.000001 -0.000024
 26   4.941382 1.997366 -1.629410 -0.000001 0.000005 -0.000024
 27   2.918368 1.615358 1.514501 -0.000019 -0.000022 -0.000050
 28   2.920798 1.614964 -1.501142 -0.000002 -0.000009 -0.000024
 29   8.824059 0.150544 0.091743 0.000006 -0.000231 -0.174534
 30   2.111085 -0.561179 1.784320 -0.000008 -0.000682 0.000024
 31   2.121290 -0.561289 -1.853599 0.000000 0.000000 -0.000002
 32   -0.810489 -0.093824 3.127092 3.071872 -0.114782 1.239365
 33   14.298673 -0.408176 0.475484 0.000248 0.000062 -1.896136
 34   15.835795 0.581398 0.242756 -0.214729 0.106889 -0.097869
 35   -0.815868 -0.091229 -3.114430 0.066464 3.132725 -1.010185
 36   14.294526 -0.410349 -0.463635 0.000033 -0.000000 -2.607695
 37   15.834409 0.579420 -0.284600 -0.006092 -0.035255 0.214458
 38   1.139685 -3.453749 -2.823813 0.000000 0.000000 0.000001
 39   -4.457742 -1.054854 -0.746180 0.000000 0.000000 0.000000
 40   1.118101 -3.449769 3.237290 0.000000 0.000001 0.000000
 41   -4.433840 -1.059130 0.959566 -0.000001 0.000000 0.000000
 42   -0.657468 1.697302 -2.688614 0.000000 0.000002 0.000000
 43   -0.664068 1.698578 2.869377 0.000000 0.000002 0.000000
time 10
  0   -0.967547 0.175787 -20.574476 0.000000 0.000000 -1.572114
  1   -1.093036 0.000002 -0.326057 -1.570757 -1.570379 -0.000171
  2   2.262337 0.113614 0.064702 0.149957 0.030861 0.083963
  3   2.380047 0.353302 0.047440 -0.002355 -0.000112 0.056136
  4   2.033756 0.190472 -0.000128 0.063857 -0.004985 -0.001040
  5   2.451511 0.204909 -0.003447 0.000000 -0.000005 -0.017472
  6   7.247600 -0.397300 -0.109469 0.000001 0.000033 0.418409
  7   -2.022252 -0.104661 3.136172 -0.299070 -1.361862 -2.901749
  8   1.168026 -0.537438 -0.063437 -1.552795 1.373546 -1.632055
  9   6.790376 -0.619176 0.015206 -1.169447 -0.128960 -1.246271
 10   8.637599 0.544015 -0.090417 -0.836532 0.015003 0.004365
 11   6.790465 -0.619039 0.017802 -0.846391 0.049975 -0.911350
 12   -2.022474 -0.104699 -2.873818 0.299352 1.362119 -2.901601
 13   1.167898 -0.537463 0.063297 1.500217 0.193283 -1.449354
 14   7.002743 -0.617765 -0.183752 0.125139 -0.054888 -0.273589
 15   8.209042 0.615527 -0.255885 1.543342 -0.045686 -0.305264
 16   7.002735 -0.617911 -0.183641 0.100962 -0.039378 -0.209502
 17   1.574674 0.609930 -0.000899 0.386054 0.029379 -0.112037
 18   -0.602177 0.511412 -0.000006 0.000000 0.000000 0.000000
 19   3.673773 0.177020 1.119313 -0.000002 -0.000014 -0.174510
 20   3.673767 0.176993 -1.117566 0.000007 -0.000003 -0.174546
 21   3.942357 1.330634 1.627658 0.000002 -0.000011 -0.000026
 22   -0.246060 -0.011889 0.516521 -0.000011 0.000031 0.000025
 23   3.942374 1.330659 -1.631083 0.000019 0.000002 -0.000024
 24   -0.246150 -0.011872 -0.516511 -0.000005 -0.000006 0.000048
 25   4.941364 1.997338 1.629330 0.000018 -0.000001 -0.000024
 26   4.941382 1.997366 -1.629410 -0.000001 0.000005 -0.000024
 27   2.918368 1.615358 1.514501 -0.000019 -0.000022 -0.000050
 28   2.920798 1.614964 -1.501142 -0.000002 -0.000009 -0.000024
 29   8.824059 0.150544 0.091743 0.000006 -0.000231 -0.174534
 30   2.111085 -0.561179 1.784320 -0.000008 -0.000682 0.000024
 31   2.121290 -0.561289 -1.853599 0.000000 0.000000 -0.000002
 32   -0.810489 -0.093824 3.127092 3.071872 -0.114782 1.239365
 33   14.298673 -0.408176 0.475484 0.000248 0.000062 -1.896136
 34   15.835795 0.581398 0.242756 -0.214729 0.106889 -0.097869
 35   -0.815868 -0.091229 -3.114430 0.066464 3.132725 -1.010185
 36   14.294526 -0.410349 -0.463635 0.000033 -0.000000 -2.607695
 37   15.834409 0.579420 -0.284600 -0.006092 -0.035255 0.214458
 38   1.139685 -3.453749 -2.823813 0.000000 0.000000 0.000001
 39   -4.457742 -1.054854 -0.746180 0.000000 0.000000 0.000000
 40   1.118101 -3.449769 3.237290 0.000000 0.000001 0.000000
 41   -4.433840 -1.059130 0.959566 -0.000001 0.000000 0.000000
 42   -0.657468 1.697302 -2.688614 0.000000 0.000002 0.000000
 43   -0.664068 1.698578 2.869377 0.000000 0.000002 0.000000
time 11
  0   -0.967547 0.175787 -20.574476 0.000000 0.000000 -1.572114
  1   -1.093036 0.000002 -0.326057 -1.570757 -1.570379 -0.000171
  2   2.262337 0.113614 0.064702 0.151193 0.030777 0.090306
  3   2.380047 0.353302 0.047440 0.011116 -0.000028 0.066073
  4   2.033756 0.190472 -0.000128 0.070072 -0.004985 -0.001040
  5   2.451511 0.204909 -0.003447 0.000000 -0.000005 -0.017472
  6   7.247600 -0.397300 -0.109469 0.000001 0.000033 0.418409
  7   -2.022252 -0.104661 3.136172 -0.299070 -1.361862 -2.901749
  8   1.168026 -0.537438 -0.063437 1.495172 1.653193 1.425131
  9   6.790376 -0.619176 0.015206 -1.156576 -0.186624 -1.306796
 10   8.637599 0.544015 -0.090417 -0.769074 0.011061 0.055006
 11   6.790465 -0.619039 0.017802 -0.845924 0.014500 -0.959739
 12   -2.022474 -0.104699 -2.873818 0.299352 1.362119 -2.901601
 13   1.167898 -0.537463 0.063297 1.495226 0.213065 -1.405587
 14   7.002743 -0.617765 -0.183752 0.125139 -0.054888 -0.283655
 15   8.209042 0.615527 -0.255885 1.572895 -0.059077 -0.315367
 16   7.002735 -0.617911 -0.183641 0.100868 -0.039491 -0.216622
 17   1.574674 0.609930 -0.000899 0.433539 0.027249 -0.089380
 18   -0.602177 0.511412 -0.000006 0.000000 0.000000 0.000000
 19   3.673773 0.177020 1.119313 -0.000002 -0.000014 -0.174510
 20   3.673767 0.176993 -1.117566 0.000007 -0.000003 -0.174546
 21   3.942357 1.330634 1.627658 0.000002 -0.000011 -0.000026
 22   -0.246060 -0.011889 0.516521 -0.000011 0.000031 0.000025
 23   3.942374 1.330659 -1.631083 0.000019 0.000002 -0.000024
 24   -0.246150 -0.011872 -0.516511 -0.000005 -0.000006 0.000048
 25   4.941364 1.997338 1.629330 0.000018 -0.000001 -0.000024
 26   4.941382 1.997366 -1.629410 -0.000001 0.000005 -0.000024
 27   2.918368 1.615358 1.514501 -0.000019 -0.000022 -0.000050
 28   2.920798 1.614964 -1.501142 -0.000002 -0.000009 -0.000024
 29   8.824059 0.150544 0.091743 0.000006 -0.000231 -0.174534
 30   2.111085 -0.561179 1.784320 -0.000008 -0.000682 0.000024
 31   2.121290 -0.561289 -1.853599 0.000000 0.000000 -0.000002
 32   -0.810489 -0.093824 3.127092 3.071872 -0.114782 1.239365
 33   14.298673 -0.408176 0.475484 0.000248 0.000062 -1.896136
 34   15.835795 0.581398 0.242756 -0.214729 0.106889 -0.097869
 35   -0.815868 -0.091229 -3.114430 0.066464 3.132725 -1.010185
 36   14.294526 -0.410349 -0.463635 0.000033 -0.000000 -2.607695
 37   15.834409 0.579420 -0.284600 -0.006092 -0.035255 0.214458
 38   1.139685 -3.453749 -2.823813 0.000000 0.000000 0.000001
 39   -4.457742 -1.054854 -0.746180 0.000000 0.000000 0.000000
 40   1.118101 -3.449769 3.237290 0.000000 0.000001 0.000000
 41   -4.433840 -1.059130 0.959566 -0.000001 0.000000 0.000000
 42   -0.657468 1.697302 -2.688614 0.000000 0.000002 0.000000
 43   -0.664068 1.698578 2.869377 0.000000 0.000002 0.000000
time 12
  0   -0.967547 0.175787 -20.574476 0.000000 0.000000 -1.572114
  1   -1.093036 0.000002 -0.326057 -1.570757 -1.570379 -0.000171
  2   2.262337 0.113614 0.064702 0.152505 0.030717 0.096540
  3   2.380047 0.353302 0.047440 0.024887 -0.000040 0.075970
  4   2.033756 0.190472 -0.000128 0.076324 -0.004974 -0.001185
  5   2.451511 0.204909 -0.003447 0.000000 -0.000005 -0.017472
  6   7.247600 -0.397300 -0.109469 0.000001 0.000033 0.418409
  7   -2.022252 -0.104661 3.136172 -0.299070 -1.361862 -2.901749
  8   1.168026 -0.537438 -0.063437 -1.141725 1.606300 -1.202201
  9   6.790376 -0.619176 0.015206 -1.139821 -0.243419 -1.369057
 10   8.637599 0.544015 -0.090417 -0.702233 0.003670 0.105285
 11   6.790465 -0.619039 0.017802 -0.843180 -0.021003 -1.008359
 12   -2.022474 -0.104699 -2.873818 0.299352 1.362119 -2.901601
 13   1.167898 -0.537463 0.063297 1.491009 0.232999 -1.362184
 14   7.002743 -0.617765 -0.183752 0.125139 -0.054888 -0.293638
 15   8.209042 0.615527 -0.255885 1.602590 -0.072318 -0.325891
 16   7.002735 -0.617911 -0.183641 0.100821 -0.039660 -0.223742
 17   1.574674 0.609930 -0.000899 0.480902 0.024054 -0.066760
 18   -0.602177 0.511412 -0.000006 0.000000 0.000000 0.000000
 19   3.673773 0.177020 1.119313 -0.000002 -0.000014 -0.174510
 20   3.673767 0.176993 -1.117566 0.000007 -0.000003 -0.174546
 21   3.942357 1.330634 1.627658 0.000002 -0.000011 -0.000026
 22   -0.246060 -0.011889 0.516521 -0.000011 0.000031 0.000025
 23   3.942374 1.330659 -1.631083 0.000019 0.000002 -0.000024
 24   -0.246150 -0.011872 -0.516511 -0.000005 -0.000006 0.000048
 25   4.941364 1.997338 1.629330 0.000018 -0.000001 -0.000024
 26   4.941382 1.997366 -1.629410 -0.000001 0.000005 -0.000024
 27   2.918368 1.615358 1.514501 -0.000019 -0.000022 -0.000050
 28   2.920798 1.614964 -1.501142 -0.000002 -0.000009 -0.000024
 29   8.824059 0.150544 0.091743 0.000006 -0.000231 -0.174534
 30   2.111085 -0.561179 1.784320 -0.000008 -0.000682 0.000024
 31   2.121290 -0.561289 -1.853599 0.000000 0.000000 -0.000002
 32   -0.810489 -0.093824 3.127092 3.071872 -0.114782 1.239365
 33   14.298673 -0.408176 0.475484 0.000248 0.000062 -1.896136
 34   15.835795 0.581398 0.242756 -0.214729 0.106889 -0.097869
 35   -0.815868 -0.091229 -3.114430 0.066464 3.132725 -1.010185
 36   14.294526 -0.410349 -0.463635 0.000033 -0.000000 -2.607695
 37   15.834409 0.579420 -0.284600 -0.006092 -0.035255 0.214458
 38   1.139685 -3.453749 -2.823813 0.000000 0.000000 0.000001
 39   -4.457742 -1.054854 -0.746180 0.000000 0.000000 0.000000
 40   1.118101 -3.449769 3.237290 0.000000 0.000001 0.000000
 41   -4.433840 -1.059130 0.959566 -0.000001 0.000000 0.000000
 42   -0.657468 1.697302 -2.688614 0.000000 0.000002 0.000000
 43   -0.664068 1.698578 2.869377 0.000000 0.000002 0.000000
time 13
  0   -0.967547 0.175787 -20.574476 0.000000 0.000000 -1.572114
  1   -1.093036 0.000002 -0.326057 -1.570757 -1.570379 -0.000171
  2   2.262337 0.113614 0.064702 0.153715 0.030645 0.102829
  3   2.380047 0.353302 0.047440 0.038598 -0.000160 0.085948
  4   2.033756 0.190472 -0.000128 0.082539 -0.004974 -0.001185
  5   2.451511 0.204909 -0.003447 0.000000 -0.000005 -0.017472
  6   7.247600 -0.397300 -0.109469 0.000001 0.000033 0.418409
  7   -2.022252 -0.104661 3.136172 -0.299070 -1.361862 -2.901749
  8   1.168026 -0.537438 -0.063437 -1.420412 1.719306 -1.471374
  9   6.790376 -0.619176 0.015206 -1.119460 -0.298947 -1.433053
 10   8.637599 0.544015 -0.090417 -0.635920 -0.006818 0.154624
 11   6.790465 -0.619039 0.017802 -0.838216 -0.056279 -1.056921
 12   -2.022474 -0.104699 -2.873818 0.299352 1.362119 -2.901601
 13   1.167898 -0.537463 0.063297 1.487986 0.252933 -1.318296
 14   7.002743 -0.617765 -0.183752 0.125139 -0.054888 -0.303786
 15   8.209042 0.615527 -0.255885 1.631999 -0.085029 -0.336836
 16   7.002735 -0.617911 -0.183641 0.100774 -0.039660 -0.230641
 17   1.574674 0.609930 -0.000899 0.528305 0.019794 -0.044324
 18   -0.602177 0.511412 -0.000006 0.000000 0.000000 0.000000
 19   3.673773 0.177020 1.119313 -0.000002 -0.000014 -0.174510
 20   3.673767 0.176993 -1.117566 0.000007 -0.000003 -0.174546
 21   3.942357 1.330634 1.627658 0.000002 -0.000011 -0.000026
 22   -0.246060 -0.011889 0.516521 -0.000011 0.000031 0.000025
 23   3.942374 1.330659 -1.631083 0.000019 0.000002 -0.000024
 24   -0.246150 -0.011872 -0.516511 -0.000005 -0.000006 0.000048
 25   4.941364 1.997338 1.629330 0.000018 -0.000001 -0.000024
 26   4.941382 1.997366 -1.629410 -0.000001 0.000005 -0.000024
 27   2.918368 1.615358 1.514501 -0.000019 -0.000022 -0.000050
 28   2.920798 1.614964 -1.501142 -0.000002 -0.000009 -0.000024
 29   8.824059 0.150544 0.091743 0.000006 -0.000231 -0.174534
 30   2.111085 -0.561179 1.784320 -0.000008 -0.000682 0.000024
 31   2.121290 -0.561289 -1.853599 0.000000 0.000000 -0.000002
 32   -0.810489 -0.093824 3.127092 3.071872 -0.114782 1.239365
 33   14.298673 -0.408176 0.475484 0.000248 0.000062 -1.896136
 34   15.835795 0.581398 0.242756 -0.214729 0.106889 -0.097869
 35   -0.815868 -0.091229 -3.114430 0.066464 3.132725 -1.010185
 36   14.294526 -0.410349 -0.463635 0.000033 -0.000000 -2.607695
 37   15.834409 0.579420 -0.284600 -0.006092 -0.035255 0.214458
 38   1.139685 -3.453749 -2.823813 0.000000 0.000000 0.000001
 39   -4.457742 -1.054854 -0.746180 0.000000 0.000000 0.000000
 40   1.118101 -3.449769 3.237290 0.000000 0.000001 0.000000
 41   -4.433840 -1.059130 0.959566 -0.000001 0.000000 0.000000
 42   -0.657468 1.697302 -2.688614 0.000000 0.000002 0.000000
 43   -0.664068 1.698578 2.869377 0.000000 0.000002 0.000000
time 14
  0   -0.967547 0.175787 -20.574476 0.000000 0.000000 -1.572114
  1   -1.093036 0.000002 -0.326057 -1.570757 -1.570379 -0.000171
  2   2.262337 0.113614 0.064702 0.154976 0.030609 0.109045
  3   2.380047 0.353302 0.047440 0.052279 -0.000388 0.095845
  4   2.033756 0.190472 -0.000128 0.088773 -0.004974 -0.001185
  5   2.451511 0.204909 -0.003447 0.000000 -0.000005 -0.017472
  6   7.247600 -0.397300 -0.109469 0.000001 0.000033 0.418409
  7   -2.022252 -0.104661 3.136172 -0.299070 -1.361862 -2.901749
  8   1.168026 -0.537438 -0.063437 1.679192 1.306930 1.637749
  9   6.790376 -0.619176 0.015206 -1.094827 -0.353341 -1.499691
 10   8.637599 0.544015 -0.090417 -0.570136 -0.020896 0.203601
 11   6.790465 -0.619039 0.017802 -0.831005 -0.091640 -1.105772
 12   -2.022474 -0.104699 -2.873818 0.299352 1.362119 -2.901601
 13   1.167898 -0.537463 0.063297 1.485666 0.273071 -1.274348
 14   7.002743 -0.617765 -0.183752 0.125139 -0.054888 -0.313604
 15   8.209042 0.615527 -0.255885 1.662054 -0.097512 -0.348142
 16   7.002735 -0.617911 -0.183641 0.100727 -0.039773 -0.237540
 17   1.574674 0.609930 -0.000899 0.575587 0.014516 -0.022295
 18   -0.602177 0.511412 -0.000006 0.000000 0.000000 0.000000
 19   3.673773 0.177020 1.119313 -0.000002 -0.000014 -0.174510
 20   3.673767 0.176993 -1.117566 0.000007 -0.000003 -0.174546
 21   3.942357 1.330634 1.627658 0.000002 -0.000011 -0.000026
 22   -0.246060 -0.011889 0.516521 -0.000011 0.000031 0.000025
 23   3.942374 1.330659 -1.631083 0.000019 0.000002 -0.000024
 24   -0.246150 -0.011872 -0.516511 -0.000005 -0.000006 0.000048
 25   4.941364 1.997338 1.629330 0.000018 -0.000001 -0.000024
 26   4.941382 1.997366 -1.629410 -0.000001 0.000005 -0.000024
 27   2.918368 1.615358 1.514501 -0.000019 -0.000022 -0.000050
 28   2.920798 1.614964 -1.501142 -0.000002 -0.000009 -0.000024
 29   8.824059 0.150544 0.091743 0.000006 -0.000231 -0.174534
 30   2.111085 -0.561179 1.784320 -0.000008 -0.000682 0.000024
 31   2.121290 -0.561289 -1.853599 0.000000 0.000000 -0.000002
 32   -0.810489 -0.093824 3.127092 3.071872 -0.114782 1.239365
 33   14.298673 -0.408176 0.475484 0.000248 0.000062 -1.896136
 34   15.835795 0.581398 0.242756 -0.214729 0.106889 -0.097869
 35   -0.815868 -0.091229 -3.114430 0.066464 3.132725 -1.010185
 36   14.294526 -0.410349 -0.463635 0.000033 -0.000000 -2.607695
 37   15.834409 0.579420 -0.284600 -0.006092 -0.035255 0.214458
 38   1.139685 -3.453749 -2.823813 0.000000 0.000000 0.000001
 39   -4.457742 -1.054854 -0.746180 0.000000 0.000000 0.000000
 40   1.118101 -3.449769 3.237290 0.000000 0.000001 0.000000
 41   -4.433840 -1.059130 0.959566 -0.000001 0.000000 0.000000
 42   -0.657468 1.697302 -2.688614 0.000000 0.000002 0.000000
 43   -0.664068 1.698578 2.869377 0.000000 0.000002 0.000000
time 15
  0   -0.967547 0.175787 -20.574476 0.000000 0.000000 -1.572114
  1   -1.093036 0.000002 -0.326057 -1.570757 -1.570379 -0.000171
  2   2.262337 0.113614 0.064702 0.153766 0.030645 0.103208
  3   2.380047 0.353302 0.047440 0.039468 -0.000184 0.086642
  4   2.033756 0.190472 -0.000128 0.082982 -0.004974 -0.001185
  5   2.451511 0.204909 -0.003447 0.000000 -0.000005 -0.017472
  6   7.247600 -0.397300 -0.109469 0.000001 0.000033 0.418409
  7   -2.022252 -0.104661 3.136172 -0.299070 -1.361862 -2.901749
  8   1.168026 -0.537438 -0.063437 -1.383709 1.712413 -1.438668
  9   6.790376 -0.619176 0.015206 -1.104203 -0.328380 -1.410111
 10   8.637599 0.544015 -0.090417 -0.567494 -0.008648 0.184502
 11   6.790465 -0.619039 0.017802 -0.829282 -0.082885 -1.041695
 12   -2.022474 -0.104699 -2.873818 0.299352 1.362119 -2.901601
 13   1.167898 -0.537463 0.063297 1.489603 0.254764 -1.300983
 14   7.002743 -0.617765 -0.183752 0.125139 -0.054888 -0.304281
 15   8.209042 0.615527 -0.255885 1.636385 -0.093654 -0.339001
 16   7.002735 -0.617911 -0.183641 0.100774 -0.039660 -0.230972
 17   1.574674 0.609930 -0.000899 0.531433 0.019486 -0.042994
 18   -0.602177 0.511412 -0.000006 0.000000 0.000000 0.000000
 19   3.673773 0.177020 1.119313 -0.000002 -0.000014 -0.174510
 20   3.673767 0.176993 -1.117566 0.000007 -0.000003 -0.174546
 21   3.942357 1.330634 1.627658 0.000002 -0.000011 -0.000026
 22   -0.246060 -0.011889 0.516521 -0.000011 0.000031 0.000025
 23   3.942374 1.330659 -1.631083 0.000019 0.000002 -0.000024
 24   -0.246150 -0.011872 -0.516511 -0.000005 -0.000006 0.000048
 25   4.941364 1.997338 1.629330 0.000018 -0.000001 -0.000024
 26   4.941382 1.997366 -1.629410 -0.000001 0.000005 -0.000024
 27   2.918368 1.615358 1.514501 -0.000019 -0.000022 -0.000050
 28   2.920798 1.614964 -1.501142 -0.000002 -0.000009 -0.000024
 29   8.824059 0.150544 0.091743 0.000006 -0.000231 -0.174534
 30   2.111085 -0.561179 1.784320 -0.000008 -0.000682 0.000024
 31   2.121290 -0.561289 -1.853599 0.000000 0.000000 -0.000002
 32   -0.810489 -0.093824 3.127092 3.071872 -0.114782 1.239365
 33   14.298673 -0.408176 0.475484 0.000248 0.000062 -1.896136
 34   15.835795 0.581398 0.242756 -0.214729 0.106889 -0.097869
 35   -0.815868 -0.091229 -3.114430 0.066464 3.132725 -1.010185
 36   14.294526 -0.410349 -0.463635 0.000033 -0.000000 -2.607695
 37   15.834409 0.579420 -0.284600 -0.006092 -0.035255 0.214458
 38   1.139685 -3.453749 -2.823813 0.000000 0.000000 0.000001
 39   -4.457742 -1.054854 -0.746180 0.000000 0.000000 0.000000
 40   1.118101 -3.449769 3.237290 0.000000 0.000001 0.000000
 41   -4.433840 -1.059130 0.959566 -0.000001 0.000000 0.000000
 42   -0.657468 1.697302 -2.688614 0.000000 0.000002 0.000000
 43   -0.664068 1.698578 2.869377 0.000000 0.000002 0.000000
time 16
  0   -0.967547 0.175787 -20.574476 0.000000 0.000000 -1.572114
  1   -1.093036 0.000002 -0.326057 -1.570757 -1.570379 -0.000171
  2   2.262337 0.113614 0.064702 0.152670 0.030705 0.097444
  3   2.380047 0.353302 0.047440 0.026702 -0.000052 0.077337
  4   2.033756 0.190472 -0.000128 0.077154 -0.004974 -0.001185
  5   2.451511 0.204909 -0.003447 0.000000 -0.000005 -0.017472
  6   7.247600 -0.397300 -0.109469 0.000001 0.000033 0.418409
  7   -2.022252 -0.104661 3.136172 -0.299070 -1.361862 -2.901749
  8   1.168026 -0.537438 -0.063437 -0.643328 1.598753 -0.711616
  9   6.790376 -0.619176 0.015206 -1.111249 -0.302484 -1.321663
 10   8.637599 0.544015 -0.090417 -0.565380 0.003670 0.165620
 11   6.790465 -0.619039 0.017802 -0.826479 -0.073988 -0.977849
 12   -2.022474 -0.104699 -2.873818 0.299352 1.362119 -2.901601
 13   1.167898 -0.537463 0.063297 1.494101 0.236610 -1.327679
 14   7.002743 -0.617765 -0.183752 0.125139 -0.054888 -0.294958
 15   8.209042 0.615527 -0.255885 1.610500 -0.089493 -0.330101
 16   7.002735 -0.617911 -0.183641 0.100821 -0.039660 -0.224515
 17   1.574674 0.609930 -0.000899 0.487320 0.023557 -0.063803
 18   -0.602177 0.511412 -0.000006 0.000000 0.000000 0.000000
 19   3.673773 0.177020 1.119313 -0.000002 -0.000014 -0.174510
 20   3.673767 0.176993 -1.117566 0.000007 -0.000003 -0.174546
 21   3.942357 1.330634 1.627658 0.000002 -0.000011 -0.000026
 22   -0.246060 -0.011889 0.516521 -0.000011 0.000031 0.000025
 23   3.942374 1.330659 -1.631083 0.000019 0.000002 -0.000024
 24   -0.246150 -0.011872 -0.516511 -0.000005 -0.000006 0.000048
 25   4.941364 1.997338 1.629330 0.000018 -0.000001 -0.000024
 26   4.941382 1.997366 -1.629410 -0.000001 0.000005 -0.000024
 27   2.918368 1.615358 1.514501 -0.000019 -0.000022 -0.000050
 28   2.920798 1.614964 -1.501142 -0.000002 -0.000009 -0.000024
 29   8.824059 0.150544 0.091743 0.000006 -0.000231 -0.174534
 30   2.111085 -0.561179 1.784320 -0.000008 -0.000682 0.000024
 31   2.121290 -0.561289 -1.853599 0.000000 0.000000 -0.000002
 32   -0.810489 -0.093824 3.127092 3.071872 -0.114782 1.239365
 33   14.298673 -0.408176 0.475484 0.000248 0.000062 -1.896136
 34   15.835795 0.581398 0.242756 -0.214729 0.106889 -0.097869
 35   -0.815868 -0.091229 -3.114430 0.066464 3.132725 -1.010185
 36   14.294526 -0.410349 -0.463635 0.000033 -0.000000 -2.607695
 37   15.834409 0.579420 -0.284600 -0.006092 -0.035255 0.214458
 38   1.139685 -3.453749 -2.823813 0.000000 0.000000 0.000001
 39   -4.457742 -1.054854 -0.746180 0.000000 0.000000 0.000000
 40   1.118101 -3.449769 3.237290 0.000000 0.000001 0.000000
 41   -4.433840 -1.059130 0.959566 -0.000001 0.000000 0.000000
 42   -0.657468 1.697302 -2.688614 0.000000 0.000002 0.000000
 43   -0.664068 1.698578 2.869377 0.000000 0.000002 0.000000
time 17
  0   -0.967547 0.175787 -20.574476 0.000000 0.000000 -1.572114
  1   -1.093036 0.000002 -0.326057 -1.570757 -1.570379 -0.000171
  2   2.262337 0.113614 0.064702 0.151460 0.030765 0.091553
  3   2.380047 0.353302 0.047440 0.013861 -0.000028 0.068073
  4   2.033756 0.190472 -0.000128 0.071326 -0.004985 -0.001185
  5   2.451511 0.204909 -0.003447 0.000000 -0.000005 -0.017472
  6   7.247600 -0.397300 -0.109469 0.000001 0.000033 0.418409
  7   -2.022252 -0.104661 3.136172 -0.299070 -1.361862 -2.901749
  8   1.168026 -0.537438 -0.063437 1.413857 1.677847 1.332075
  9   6.790376 -0.619176 0.015206 -1.115854 -0.276322 -1.233970
 10   8.637599 0.544015 -0.090417 -0.562914 0.016059 0.146449
 11   6.790465 -0.619039 0.017802 -0.822684 -0.065176 -0.914118
 12   -2.022474 -0.104699 -2.873818 0.299352 1.362119 -2.901601
 13   1.167898 -0.537463 0.063297 1.499022 0.218506 -1.354193
 14   7.002743 -0.617765 -0.183752 0.125139 -0.054888 -0.285635
 15   8.209042 0.615527 -0.255885 1.585549 -0.085180 -0.321080
 16   7.002735 -0.617911 -0.183641 0.100868 -0.039491 -0.218057
 17   1.574674 0.609930 -0.000899 0.443044 0.026681 -0.084797
 18   -0.602177 0.511412 -0.000006 0.000000 0.000000 0.000000
 19   3.673773 0.177020 1.119313 -0.000002 -0.000014 -0.174510
 20   3.673767 0.176993 -1.117566 0.000007 -0.000003 -0.174546
 21   3.942357 1.330634 1.627658 0.000002 -0.000011 -0.000026
 22   -0.246060 -0.011889 0.516521 -0.000011 0.000031 0.000025
 23   3.942374 1.330659 -1.631083 0.000019 0.000002 -0.000024
 24   -0.246150 -0.011872 -0.516511 -0.000005 -0.000006 0.000048
 25   4.941364 1.997338 1.629330 0.000018 -0.000001 -0.000024
 26   4.941382 1.997366 -1.629410 -0.000001 0.000005 -0.000024
 27   2.918368 1.615358 1.514501 -0.000019 -0.000022 -0.000050
 28   2.920798 1.614964 -1.501142 -0.000002 -0.000009 -0.000024
 29   8.824059 0.150544 0.091743 0.000006 -0.000231 -0.174534
 30   2.111085 -0.561179 1.784320 -0.000008 -0.000682 0.000024
 31   2.121290 -0.561289 -1.853599 0.000000 0.000000 -0.000002
 32   -0.810489 -0.093824 3.127092 3.071872 -0.114782 1.239365
 33   14.298673 -0.408176 0.475484 0.000248 0.000062 -1.896136
 34   15.835795 0.581398 0.242756 -0.214729 0.106889 -0.097869
 35   -0.815868 -0.091229 -3.114430 0.066464 3.132725 -1.010185
 36   14.294526 -0.410349 -0.463635 0.000033 -0.000000 -2.607695
 37   15.834409 0.579420 -0.284600 -0.006092 -0.035255 0.214458
 38   1.139685 -3.453749 -2.823813 0.000000 0.000000 0.000001
 39   -4.457742 -1.054854 -0.746180 0.000000 0.000000 0.000000
 40   1.118101 -3.449769 3.237290 0.000000 0.000001 0.000000
 41   -4.433840 -1.059130 0.959566 -0.000001 0.000000 0.000000
 42   -0.657468 1.697302 -2.688614 0.000000 0.000002 0.000000
 43   -0.664068 1.698578 2.869377 0.000000 0.000002 0.000000
time 18
  0   -0.967547 0.175787 -20.574476 0.000000 0.000000 -1.572114
  1   -1.093036 0.000002 -0.326057 -1.570757 -1.570379 -0.000171
  2   2.262337 0.113614 0.064702 0.150301 0.030849 0.085716
  3   2.380047 0.353302 0.047440 0.000960 -0.000076 0.058768
  4   2.033756 0.190472 -0.000128 0.065498 -0.004985 -0.001040
  5   2.451511 0.204909 -0.003447 0.000000 -0.000005 -0.017472
  6   7.247600 -0.397300 -0.109469 0.000001 0.000033 0.418409
  7   -2.022252 -0.104661 3.136172 -0.299070 -1.361862 -2.901749
  8   1.168026 -0.537438 -0.063437 -1.611266 1.341999 -1.706576
  9   6.790376 -0.619176 0.015206 -1.117962 -0.249826 -1.147258
 10   8.637599 0.544015 -0.090417 -0.561065 0.028307 0.127784
 11   6.790465 -0.619039 0.017802 -0.817750 -0.056478 -0.850502
 12   -2.022474 -0.104699 -2.873818 0.299352 1.362119 -2.901601
 13   1.167898 -0.537463 0.063297 1.504435 0.200555 -1.380889
 14   7.002743 -0.617765 -0.183752 0.125139 -0.054888 -0.276312
 15   8.209042 0.615527 -0.255885 1.559880 -0.080565 -0.312480
 16   7.002735 -0.617911 -0.183641 0.100915 -0.039491 -0.211544
 17   1.574674 0.609930 -0.000899 0.398727 0.028882 -0.105975
 18   -0.602177 0.511412 -0.000006 0.000000 0.000000 0.000000
 19   3.673773 0.177020 1.119313 -0.000002 -0.000014 -0.174510
 20   3.673767 0.176993 -1.117566 0.000007 -0.000003 -0.174546
 21   3.942357 1.330634 1.627658 0.000002 -0.000011 -0.000026
 22   -0.246060 -0.011889 0.516521 -0.000011 0.000031 0.000025
 23   3.942374 1.330659 -1.631083 0.000019 0.000002 -0.000024
 24   -0.246150 -0.011872 -0.516511 -0.000005 -0.000006 0.000048
 25   4.941364 1.997338 1.629330 0.000018 -0.000001 -0.000024
 26   4.941382 1.997366 -1.629410 -0.000001 0.000005 -0.000024
 27   2.918368 1.615358 1.514501 -0.000019 -0.000022 -0.000050
 28   2.920798 1.614964 -1.501142 -0.000002 -0.000009 -0.000024
 29   8.824059 0.150544 0.091743 0.000006 -0.000231 -0.174534
 30   2.111085 -0.561179 1.784320 -0.000008 -0.000682 0.000024
 31   2.121290 -0.561289 -1.853599 0.000000 0.000000 -0.000002
 32   -0.810489 -0.093824 3.127092 3.071872 -0.114782 1.239365
 33   14.298673 -0.408176 0.475484 0.000248 0.000062 -1.896136
 34   15.835795 0.581398 0.242756 -0.214729 0.106889 -0.097869
 35   -0.815868 -0.091229 -3.114430 0.066464 3.132725 -1.010185
 36   14.294526 -0.410349 -0.463635 0.000033 -0.000000 -2.607695
 37   15.834409 0.579420 -0.284600 -0.006092 -0.035255 0.214458
 38   1.139685 -3.453749 -2.823813 0.000000 0.000000 0.000001
 39   -4.457742 -1.054854 -0.746180 0.000000 0.000000 0.000000
 40   1.118101 -3.449769 3.237290 0.000000 0.000001 0.000000
 41   -4.433840 -1.059130 0.959566 -0.000001 0.000000 0.000000
 42   -0.657468 1.697302 -2.688614 0.000000 0.000002 0.000000
 43   -0.664068 1.698578 2.869377 0.000000 0.000002 0.000000
time 19
  0   -0.967547 0.175787 -20.574476 0.000000 0.000000 -1.572114
  1   -1.093036 0.000002 -0.326057 -1.570757 -1.570379 -0.000171
  2   2.262337 0.113614 0.064702 0.149104 0.030909 0.079861
  3   2.380047 0.353302 0.047440 -0.011596 -0.000256 0.049463
  4   2.033756 0.190472 -0.000128 0.059689 -0.004985 -0.001040
  5   2.451511 0.204909 -0.003447 0.000000 -0.000005 -0.017472
  6   7.247600 -0.397300 -0.109469 0.000001 0.000033 0.418409
  7   -2.022252 -0.104661 3.136172 -0.299070 -1.361862 -2.901749
  8   1.168026 -0.537438 -0.063437 -1.571083 1.219987 -1.679880
  9   6.790376 -0.619176 0.015206 -1.117851 -0.223331 -1.061074
 10   8.637599 0.544015 -0.090417 -0.559656 0.040766 0.108685
 11   6.790465 -0.619039 0.017802 -0.811823 -0.047922 -0.787118
 12   -2.022474 -0.104699 -2.873818 0.299352 1.362119 -2.901601
 13   1.167898 -0.537463 0.063297 1.510128 0.182705 -1.407464
 14   7.002743 -0.617765 -0.183752 0.125139 -0.054888 -0.267071
 15   8.209042 0.615527 -0.255885 1.534498 -0.075723 -0.303700
 16   7.002735 -0.617911 -0.183641 0.100962 -0.039378 -0.205142
 17   1.574674 0.609930 -0.000899 0.354370 0.030160 -0.127080
 18   -0.602177 0.511412 -0.000006 0.000000 0.000000 0.000000
 19   3.673773 0.177020 1.119313 -0.000002 -0.000014 -0.174510
 20   3.673767 0.176993 -1.117566 0.000007 -0.000003 -0.174546
 21   3.942357 1.330634 1.627658 0.000002 -0.000011 -0.000026
 22   -0.246060 -0.011889 0.516521 -0.000011 0.000031 0.000025
 23   3.942374 1.330659 -1.631083 0.000019 0.000002 -0.000024
 24   -0.246150 -0.011872 -0.516511 -0.000005 -0.000006 0.000048
 25   4.941364 1.997338 1.629330 0.000018 -0.000001 -0.000024
 26   4.941382 1.997366 -1.629410 -0.000001 0.000005 -0.000024
 27   2.918368 1.615358 1.514501 -0.000019 -0.000022 -0.000050
 28   2.920798 1.614964 -1.501142 -0.000002 -0.000009 -0.000024
 29   8.824059 0.150544 0.091743 0.000006 -0.000231 -0.174534
 30   2.111085 -0.561179 1.784320 -0.000008 -0.000682 0.000024
 31   2.121290 -0.561289 -1.853599 0.000000 0.000000 -0.000002
 32   -0.810489 -0.093824 3.127092 3.071872 -0.114782 1.239365
 33   14.298673 -0.408176 0.475484 0.000248 0.000062 -1.896136
 34   15.835795 0.581398 0.242756 -0.214729 0.106889 -0.097869
 35   -0.815868 -0.091229 -3.114430 0.066464 3.132725 -1.010185
 36   14.294526 -0.410349 -0.463635 0.000033 -0.000000 -2.607695
 37   15.834409 0.579420 -0.284600 -0.006092 -0.035255 0.214458
 38   1.139685 -3.453749 -2.823813 0.000000 0.000000 0.000001
 39   -4.457742 -1.054854 -0.746180 0.000000 0.000000 0.000000
 40   1.118101 -3.449769 3.237290 0.000000 0.000001 0.000000
 41   -4.433840 -1.059130 0.959566 -0.000001 0.000000 0.000000
 42   -0.657468 1.697302 -2.688614 0.000000 0.000002 0.000000
 43   -0.664068 1.698578 2.869377 0.000000 0.000002 0.000000
time 20
  0   -0.967547 0.175787 -20.574476 0.000000 0.000000 -1.572114
  1   -1.093036 0.000002 -0.326057 -1.570757 -1.570379 -0.000171
  2   2.262337 0.113614 0.064702 0.148021 0.030945 0.073970
  3   2.380047 0.353302 0.047440 -0.024407 -0.000471 0.040199
  4   2.033756 0.190472 -0.000128 0.053861 -0.004997 -0.001040
  5   2.451511 0.204909 -0.003447 0.000000 -0.000005 -0.017472
  6   7.247600 -0.397300 -0.109469 0.000001 0.000033 0.418409
  7   -2.022252 -0.104661 3.136172 -0.299070 -1.361862 -2.901749
  8   1.168026 -0.537438 -0.063437 -1.547732 1.097975 -1.670644
  9   6.790376 -0.619176 0.015206 -1.115299 -0.196902 -0.975343
 10   8.637599 0.544015 -0.090417 -0.558071 0.053014 0.089731
 11   6.790465 -0.619039 0.017802 -0.804845 -0.039622 -0.723791
 12   -2.022474 -0.104699 -2.873818 0.299352 1.362119 -2.901409
 13   1.167898 -0.537463 0.063297 1.516525 0.165009 -1.434099
 14   7.002743 -0.617765 -0.183752 0.125139 -0.054888 -0.257748
 15   8.209042 0.615527 -0.255885 1.508757 -0.070653 -0.295522
 16   7.002735 -0.617911 -0.183641 0.101009 -0.039322 -0.198574
 17   1.574674 0.609930 -0.000899 0.310013 0.030444 -0.148443
 18   -0.602177 0.511412 -0.000006 0.000000 0.000000 0.000000
 19   3.673773 0.177020 1.119313 -0.000002 -0.000014 -0.174510
 20   3.673767 0.176993 -1.117566 0.000007 -0.000003 -0.174546
 21   3.942357 1.330634 1.627658 0.000002 -0.000011 -0.000026
 22   -0.246060 -0.011889 0.516521 -0.000011 0.000031 0.000025
 23   3.942374 1.330659 -1.631083 0.000019 0.000002 -0.000024
 24   -0.246150 -0.011872 -0.516511 -0.000005 -0.000006 0.000048
 25   4.941364 1.997338 1.629330 0.000018 -0.000001 -0.000024
 26   4.941382 1.997366 -1.629410 -0.000001 0.000005 -0.000024
 27   2.918368 1.615358 1.514501 -0.000019 -0.000022 -0.000050
 28   2.920798 1.614964 -1.501142 -0.000002 -0.000009 -0.000024
 29   8.824059 0.150544 0.091743 0.000006 -0.000231 -0.174534
 30   2.111085 -0.561179 1.784320 -0.000008 -0.000682 0.000024
 31   2.121290 -0.561289 -1.853599 0.000000 0.000000 -0.000002
 32   -0.810489 -0.093824 3.127092 3.071872 -0.114782 1.239365
 33   14.298673 -0.408176 0.475484 0.000248 0.000062 -1.896136
 34   15.835795 0.581398 0.242756 -0.214729 0.106889 -0.097869
 35   -0.815868 -0.091229 -3.114430 0.066464 3.132725 -1.010185
 36   14.294526 -0.410349 -0.463635 0.000033 -0.000000 -2.607695
 37   15.834409 0.579420 -0.284600 -0.006092 -0.035255 0.214458
 38   1.139685 -3.453749 -2.823813 0.000000 0.000000 0.000001
 39   -4.457742 -1.054854 -0.746180 0.000000 0.000000 0.000000
 40   1.118101 -3.449769 3.237290 0.000000 0.000001 0.000000
 41   -4.433840 -1.059130 0.959566 -0.000001 0.000000 0.000000
 42   -0.657468 1.697302 -2.688614 0.000000 0.000002 0.000000
 43   -0.664068 1.698578 2.869377 0.000000 0.000002 0.000000
time 21
  0   -0.967547 0.175787 -20.574476 0.000000 0.000000 -1.572114
  1   -1.093036 0.000002 -0.326057 -1.570757 -1.570379 -0.000171
  2   2.262337 0.113614 0.064702 0.146824 0.030969 0.068115
  3   2.380047 0.353302 0.047440 -0.037172 -0.000987 0.030955
  4   2.033756 0.190472 -0.000128 0.048070 -0.004997 -0.000895
  5   2.451511 0.204909 -0.003447 0.000000 -0.000005 -0.017472
  6   7.247600 -0.397300 -0.109469 0.000001 0.000033 0.418409
  7   -2.022252 -0.104661 3.136172 -0.299070 -1.361862 -2.901749
  8   1.168026 -0.537438 -0.063437 -1.530900 0.975661 -1.668177
  9   6.790376 -0.619176 0.015206 -1.110528 -0.170873 -0.889914
 10   8.637599 0.544015 -0.090417 -0.556926 0.065262 0.071066
 11   6.790465 -0.619039 0.017802 -0.796874 -0.031975 -0.660348
 12   -2.022474 -0.104699 -2.873818 0.299352 1.362119 -2.901601
 13   1.167898 -0.537463 0.063297 1.523344 0.147617 -1.460795
 14   7.002743 -0.617765 -0.183752 0.125139 -0.054888 -0.248425
 15   8.209042 0.615527 -0.255885 1.483519 -0.065433 -0.287042
 16   7.002735 -0.617911 -0.183641 0.101103 -0.039209 -0.192006
 17   1.574674 0.609930 -0.000899 0.265656 0.029876 -0.169733
 18   -0.602177 0.511412 -0.000006 0.000000 0.000000 0.000000
 19   3.673773 0.177020 1.119313 -0.000002 -0.000014 -0.174510
 20   3.673767 0.176993 -1.117566 0.000007 -0.000003 -0.174546
 21   3.942357 1.330634 1.627658 0.000002 -0.000011 -0.000026
 22   -0.246060 -0.011889 0.516521 -0.000011 0.000031 0.000025
 23   3.942374 1.330659 -1.631083 0.000019 0.000002 -0.000024
 24   -0.246150 -0.011872 -0.516511 -0.000005 -0.000006 0.000048
 25   4.941364 1.997338 1.629330 0.000018 -0.000001 -0.000024
 26   4.941382 1.997366 -1.629410 -0.000001 0.000005 -0.000024
 27   2.918368 1.615358 1.514501 -0.000019 -0.000022 -0.000050
 28   2.920798 1.614964 -1.501142 -0.000002 -0.000009 -0.000024
 29   8.824059 0.150544 0.091743 0.000006 -0.000231 -0.174534
 30   2.111085 -0.561179 1.784320 -0.000008 -0.000682 0.000024
 31   2.121290 -0.561289 -1.853599 0.000000 0.000000 -0.000002
 32   -0.810489 -0.093824 3.127092 3.071872 -0.114782 1.239365
 33   14.298673 -0.408176 0.475484 0.000248 0.000062 -1.896136
 34   15.835795 0.581398 0.242756 -0.214729 0.106889 -0.097869
 35   -0.815868 -0.091229 -3.114430 0.066464 3.132725 -1.010185
 36   14.294526 -0.410349 -0.463635 0.000033 -0.000000 -2.607695
 37   15.834409 0.579420 -0.284600 -0.006092 -0.035255 0.214458
 38   1.139685 -3.453749 -2.823813 0.000000 0.000000 0.000001
 39   -4.457742 -1.054854 -0.746180 0.000000 0.000000 0.000000
 40   1.118101 -3.449769 3.237290 0.000000 0.000001 0.000000
 41   -4.433840 -1.059130 0.959566 -0.000001 0.000000 0.000000
 42   -0.657468 1.697302 -2.688614 0.000000 0.000002 0.000000
 43   -0.664068 1.698578 2.869377 0.000000 0.000002 0.000000
time 22
  0   -0.967547 0.175787 -20.574476 0.000000 0.000000 -1.572114
  1   -1.093036 0.000002 -0.326057 -1.570757 -1.570379 -0.000171
  2   2.262337 0.113614 0.064702 0.145678 0.031005 0.062224
  3   2.380047 0.353302 0.047440 -0.049923 -0.001502 0.021854
  4   2.033756 0.190472 -0.000128 0.042242 -0.005009 -0.000895
  5   2.451511 0.204909 -0.003447 0.000000 -0.000005 -0.017472
  6   7.247600 -0.397300 -0.109469 0.000001 0.000033 0.418409
  7   -2.022252 -0.104661 3.136172 -0.299070 -1.361862 -2.901749
  8   1.168026 -0.537438 -0.063437 -1.516978 0.853246 -1.669189
  9   6.790376 -0.619176 0.015206 -1.103482 -0.145178 -0.804560
 10   8.637599 0.544015 -0.090417 -0.556133 0.078073 0.052040
 11   6.790465 -0.619039 0.017802 -0.787999 -0.024414 -0.597137
 12   -2.022474 -0.104699 -2.873818 0.299352 1.362119 -2.901601
 13   1.167898 -0.537463 0.063297 1.530654 0.130327 -1.487733
 14   7.002743 -0.617765 -0.183752 0.125139 -0.054888 -0.239102
 15   8.209042 0.615527 -0.255885 1.458066 -0.059985 -0.278743
 16   7.002735 -0.617911 -0.183641 0.101150 -0.039096 -0.185493
 17   1.574674 0.609930 -0.000899 0.221299 0.028314 -0.190838
 18   -0.602177 0.511412 -0.000006 0.000000 0.000000 0.000000
 19   3.673773 0.177020 1.119313 -0.000002 -0.000014 -0.174510
 20   3.673767 0.176993 -1.117566 0.000007 -0.000003 -0.174546
 21   3.942357 1.330634 1.627658 0.000002 -0.000011 -0.000026
 22   -0.246060 -0.011889 0.516521 -0.000011 0.000031 0.000025
 23   3.942374 1.330659 -1.631083 0.000019 0.000002 -0.000024
 24   -0.246150 -0.011872 -0.516511 -0.000005 -0.000006 0.000048
 25   4.941364 1.997338 1.629330 0.000018 -0.000001 -0.000024
 26   4.941382 1.997366 -1.629410 -0.000001 0.000005 -0.000024
 27   2.918368 1.615358 1.514501 -0.000019 -0.000022 -0.000050
 28   2.920798 1.614964 -1.501142 -0.000002 -0.000009 -0.000024
 29   8.824059 0.150544 0.091743 0.000006 -0.000231 -0.174534
 30   2.111085 -0.561179 1.784320 -0.000008 -0.000682 0.000024
 31   2.121290 -0.561289 -1.853599 0.000000 0.000000 -0.000002
 32   -0.810489 -0.093824 3.127092 3.071872 -0.114782 1.239365
 33   14.298673 -0.408176 0.475484 0.000248 0.000062 -1.896136
 34   15.835795 0.581398 0.242756 -0.214729 0.106889 -0.097869
 35   -0.815868 -0.091229 -3.114430 0.066464 3.132725 -1.010185
 36   14.294526 -0.410349 -0.463635 0.000033 -0.000000 -2.607695
 37   15.834409 0.579420 -0.284600 -0.006092 -0.035255 0.214458
 38   1.139685 -3.453749 -2.823813 0.000000 0.000000 0.000001
 39   -4.457742 -1.054854 -0.746180 0.000000 0.000000 0.000000
 40   1.118101 -3.449769 3.237290 0.000000 0.000001 0.000000
 41   -4.433840 -1.059130 0.959566 -0.000001 0.000000 0.000000
 42   -0.657468 1.697302 -2.688614 0.000000 0.000002 0.000000
 43   -0.664068 1.698578 2.869377 0.000000 0.000002 0.000000
time 23
  0   -0.967547 0.175787 -20.574476 0.000000 0.000000 -1.572114
  1   -1.093036 0.000002 -0.326057 -1.570757 -1.570379 -0.000171
  2   2.262337 0.113614 0.064702 0.144468 0.031017 0.056441
  3   2.380047 0.353302 0.047440 -0.062704 -0.002137 0.012590
  4   2.033756 0.190472 -0.000128 0.036433 -0.005009 -0.000895
  5   2.451511 0.204909 -0.003447 0.000000 -0.000005 -0.017472
  6   7.247600 -0.397300 -0.109469 0.000001 0.000033 0.418409
  7   -2.022252 -0.104661 3.136172 -0.299070 -1.361862 -2.901749
  8   1.168026 -0.537438 -0.063437 -1.504322 0.731133 -1.672352
  9   6.790376 -0.619176 0.015206 -1.094383 -0.120084 -0.719810
 10   8.637599 0.544015 -0.090417 -0.555517 0.090462 0.033230
 11   6.790465 -0.619039 0.017802 -0.778101 -0.017393 -0.534329
 12   -2.022474 -0.104699 -2.873818 0.299352 1.362119 -2.901601
 13   1.167898 -0.537463 0.063297 1.538387 0.113240 -1.514489
 14   7.002743 -0.617765 -0.183752 0.125139 -0.054888 -0.230026
 15   8.209042 0.615527 -0.255885 1.432756 -0.054387 -0.270685
 16   7.002735 -0.617911 -0.183641 0.101197 -0.039040 -0.179091
 17   1.574674 0.609930 -0.000899 0.177023 0.025758 -0.211979
 18   -0.602177 0.511412 -0.000006 0.000000 0.000000 0.000000
 19   3.673773 0.177020 1.119313 -0.000002 -0.000014 -0.174510
 20   3.673767 0.176993 -1.117566 0.000007 -0.000003 -0.174546
 21   3.942357 1.330634 1.627658 0.000002 -0.000011 -0.000026
 22   -0.246060 -0.011889 0.516521 -0.000011 0.000031 0.000025
 23   3.942374 1.330659 -1.631083 0.000019 0.000002 -0.000024
 24   -0.246150 -0.011872 -0.516511 -0.000005 -0.000006 0.000048
 25   4.941364 1.997338 1.629330 0.000018 -0.000001 -0.000024
 26   4.941382 1.997366 -1.629410 -0.000001 0.000005 -0.000024
 27   2.918368 1.615358 1.514501 -0.000019 -0.000022 -0.000050
 28   2.920798 1.614964 -1.501142 -0.000002 -0.000009 -0.000024
 29   8.824059 0.150544 0.091743 0.000006 -0.000231 -0.174534
 30   2.111085 -0.561179 1.784320 -0.000008 -0.000682 0.000024
 31   2.121290 -0.561289 -1.853599 0.000000 0.000000 -0.000002
 32   -0.810489 -0.093824 3.127092 3.071872 -0.114782 1.239365
 33   14.298673 -0.408176 0.475484 0.000248 0.000062 -1.896136
 34   15.835795 0.581398 0.242756 -0.214729 0.106889 -0.097869
 35   -0.815868 -0.091229 -3.114430 0.066464 3.132725 -1.010185
 36   14.294526 -0.410349 -0.463635 0.000033 -0.000000 -2.607695
 37   15.834409 0.579420 -0.284600 -0.006092 -0.035255 0.214458
 38   1.139685 -3.453749 -2.823813 0.000000 0.000000 0.000001
 39   -4.457742 -1.054854 -0.746180 0.000000 0.000000 0.000000
 40   1.118101 -3.449769 3.237290 0.000000 0.000001 0.000000
 41   -4.433840 -1.059130 0.959566 -0.000001 0.000000 0.000000
 42   -0.657468 1.697302 -2.688614 0.000000 0.000002 0.000000
 43   -0.664068 1.698578 2.869377 0.000000 0.000002 0.000000
time 24
  0   -0.967547 0.175787 -20.574476 0.000000 0.000000 -1.572114
  1   -1.093036 0.000002 -0.326057 -1.570757 -1.570379 -0.000171
  2   2.262337 0.113614 0.064702 0.143359 0.031077 0.050604
  3   2.380047 0.353302 0.047440 -0.075530 -0.002928 0.003387
  4   2.033756 0.190472 -0.000128 0.030605 -0.005009 -0.000895
  5   2.451511 0.204909 -0.003447 0.000000 -0.000005 -0.017472
  6   7.247600 -0.397300 -0.109469 0.000001 0.000033 0.418409
  7   -2.022252 -0.104661 3.136172 -0.299070 -1.361862 -2.901749
  8   1.168026 -0.537438 -0.063437 -1.492615 0.608920 -1.677033
  9   6.790376 -0.619176 0.015206 -1.083121 -0.096124 -0.634834
 10   8.637599 0.544015 -0.090417 -0.554989 0.103132 0.014276
 11   6.790465 -0.619039 0.017802 -0.767386 -0.010969 -0.471175
 12   -2.022474 -0.104699 -2.873818 0.299352 1.362119 -2.901601
 13   1.167898 -0.537463 0.063297 1.546400 0.096103 -1.541306
 14   7.002743 -0.617765 -0.183752 0.125139 -0.054888 -0.220373
 15   8.209042 0.615527 -0.255885 1.407518 -0.048334 -0.262807
 16   7.002735 -0.617911 -0.183641 0.101244 -0.039040 -0.172302
 17   1.574674 0.609930 -0.000899 0.132747 0.022350 -0.232936
 18   -0.602177 0.511412 -0.000006 0.000000 0.000000 0.000000
 19   3.673773 0.177020 1.119313 -0.000002 -0.000014 -0.174510
 20   3.673767 0.176993 -1.117566 0.000007 -0.000003 -0.174546
 21   3.942357 1.330634 1.627658 0.000002 -0.000011 -0.000026
 22   -0.246060 -0.011889 0.516521 -0.000011 0.000031 0.000025
 23   3.942374 1.330659 -1.631083 0.000019 0.000002 -0.000024
 24   -0.246150 -0.011872 -0.516511 -0.000005 -0.000006 0.000048
 25   4.941364 1.997338 1.629330 0.000018 -0.000001 -0.000024
 26   4.941382 1.997366 -1.629410 -0.000001 0.000005 -0.000024
 27   2.918368 1.615358 1.514501 -0.000019 -0.000022 -0.000050
 28   2.920798 1.614964 -1.501142 -0.000002 -0.000009 -0.000024
 29   8.824059 0.150544 0.091743 0.000006 -0.000231 -0.174534
 30   2.111085 -0.561179 1.784320 -0.000008 -0.000682 0.000024
 31   2.121290 -0.561289 -1.853599 0.000000 0.000000 -0.000002
 32   -0.810489 -0.093824 3.127092 3.071872 -0.114782 1.239365
 33   14.298673 -0.408176 0.475484 0.000248 0.000062 -1.896136
 34   15.835795 0.581398 0.242756 -0.214729 0.106889 -0.097869
 35   -0.815868 -0.091229 -3.114430 0.066464 3.132725 -1.010185
 36   14.294526 -0.410349 -0.463635 0.000033 -0.000000 -2.607695
 37   15.834409 0.579420 -0.284600 -0.006092 -0.035255 0.214458
 38   1.139685 -3.453749 -2.823813 0.000000 0.000000 0.000001
 39   -4.457742 -1.054854 -0.746180 0.000000 0.000000 0.000000
 40   1.118101 -3.449769 3.237290 0.000000 0.000001 0.000000
 41   -4.433840 -1.059130 0.959566 -0.000001 0.000000 0.000000
 42   -0.657468 1.697302 -2.688614 0.000000 0.000002 0.000000
 43   -0.664068 1.698578 2.869377 0.000000 0.000002 0.000000
time 25
  0   -0.967547 0.175787 -20.574476 0.000000 0.000000 -1.572114
  1   -1.093036 0.000002 -0.326057 -1.570757 -1.570379 -0.000171
  2   2.262337 0.113614 0.064702 0.142149 0.031089 0.044713
  3   2.380047 0.353302 0.047440 -0.088401 -0.003875 -0.005836
  4   2.033756 0.190472 -0.000128 0.024777 -0.005009 -0.000895
  5   2.451511 0.204909 -0.003447 0.000000 -0.000005 -0.017472
  6   7.247600 -0.397300 -0.109469 0.000001 0.000033 0.418409
  7   -2.022252 -0.104661 3.136172 -0.299070 -1.361862 -2.901749
  8   1.168026 -0.537438 -0.063437 -1.481035 0.486606 -1.683106
  9   6.790376 -0.619176 0.015206 -1.069861 -0.072831 -0.549631
 10   8.637599 0.544015 -0.090417 -0.554724 0.115521 -0.004606
 11   6.790465 -0.619039 0.017802 -0.755766 -0.005227 -0.408078
 12   -2.022474 -0.104699 -2.873818 0.299352 1.362119 -2.901409
 13   1.167898 -0.537463 0.063297 1.554906 0.079423 -1.568244
 14   7.002743 -0.617765 -0.183752 0.125139 -0.054888 -0.211050
 15   8.209042 0.615527 -0.255885 1.382280 -0.042357 -0.254989
 16   7.002735 -0.617911 -0.183641 0.101338 -0.038927 -0.165955
 17   1.574674 0.609930 -0.000899 0.088593 0.017995 -0.253671
 18   -0.602177 0.511412 -0.000006 0.000000 0.000000 0.000000
 19   3.673773 0.177020 1.119313 -0.000002 -0.000014 -0.174510
 20   3.673767 0.176993 -1.117566 0.000007 -0.000003 -0.174546
 21   3.942357 1.330634 1.627658 0.000002 -0.000011 -0.000026
 22   -0.246060 -0.011889 0.516521 -0.000011 0.000031 0.000025
 23   3.942374 1.330659 -1.631083 0.000019 0.000002 -0.000024
 24   -0.246150 -0.011872 -0.516511 -0.000005 -0.000006 0.000048
 25   4.941364 1.997338 1.629330 0.000018 -0.000001 -0.000024
 26   4.941382 1.997366 -1.629410 -0.000001 0.000005 -0.000024
 27   2.918368 1.615358 1.514501 -0.000019 -0.000022 -0.000050
 28   2.920798 1.614964 -1.501142 -0.000002 -0.000009 -0.000024
 29   8.824059 0.150544 0.091743 0.000006 -0.000231 -0.174534
 30   2.111085 -0.561179 1.784320 -0.000008 -0.000682 0.000024
 31   2.121290 -0.561289 -1.853599 0.000000 0.000000 -0.000002
 32   -0.810489 -0.093824 3.127092 3.071872 -0.114782 1.239365
 33   14.298673 -0.408176 0.475484 0.000248 0.000062 -1.896136
 34   15.835795 0.581398 0.242756 -0.214729 0.106889 -0.097869
 35   -0.815868 -0.091229 -3.114430 0.066464 3.132725 -1.010185
 36   14.294526 -0.410349 -0.463635 0.000033 -0.000000 -2.607695
 37   15.834409 0.579420 -0.284600 -0.006092 -0.035255 0.214458
 38   1.139685 -3.453749 -2.823813 0.000000 0.000000 0.000001
 39   -4.457742 -1.054854 -0.746180 0.000000 0.000000 0.000000
 40   1.118101 -3.449769 3.237290 0.000000 0.000001 0.000000
 41   -4.433840 -1.059130 0.959566 -0.000001 0.000000 0.000000
 42   -0.657468 1.697302 -2.688614 0.000000 0.000002 0.000000
 43   -0.664068 1.698578 2.869377 0.000000 0.000002 0.000000
time 26
  0   -0.967547 0.175787 -20.574476 0.000000 0.000000 -1.572114
  1   -1.093036 0.000002 -0.326057 -1.570757 -1.570379 -0.000171
  2   2.262337 0.113614 0.064702 0.141003 0.031077 0.038858
  3   2.380047 0.353302 0.047440 -0.101107 -0.004954 -0.015080
  4   2.033756 0.190472 -0.000128 0.018949 -0.005021 -0.000750
  5   2.451511 0.204909 -0.003447 0.000000 -0.000005 -0.017472
  6   7.247600 -0.397300 -0.109469 0.000001 0.000033 0.418409
  7   -2.022252 -0.104661 3.136172 -0.299070 -1.361862 -2.901749
  8   1.168026 -0.537438 -0.063437 -1.469138 0.365046 -1.690571
  9   6.790376 -0.619176 0.015206 -1.054715 -0.051007 -0.464353
 10   8.637599 0.544015 -0.090417 -0.554724 0.128121 -0.023054
 11   6.790465 -0.619039 0.017802 -0.743416 -0.000167 -0.345213
 12   -2.022474 -0.104699 -2.873818 0.299352 1.362119 -2.901601
 13   1.167898 -0.537463 0.063297 1.563833 0.063150 -1.595303
 14   7.002743 -0.617765 -0.183752 0.125139 -0.054888 -0.201892
 15   8.209042 0.615527 -0.255885 1.357042 -0.036077 -0.247472
 16   7.002735 -0.617911 -0.183641 0.101338 -0.038871 -0.159332
 17   1.574674 0.609930 -0.000899 0.044560 0.012670 -0.274370
 18   -0.602177 0.511412 -0.000006 0.000000 0.000000 0.000000
 19   3.673773 0.177020 1.119313 -0.000002 -0.000014 -0.174510
 20   3.673767 0.176993 -1.117566 0.000007 -0.000003 -0.174546
 21   3.942357 1.330634 1.627658 0.000002 -0.000011 -0.000026
 22   -0.246060 -0.011889 0.516521 -0.000011 0.000031 0.000025
 23   3.942374 1.330659 -1.631083 0.000019 0.000002 -0.000024
 24   -0.246150 -0.011872 -0.516511 -0.000005 -0.000006 0.000048
 25   4.941364 1.997338 1.629330 0.000018 -0.000001 -0.000024
 26   4.941382 1.997366 -1.629410 -0.000001 0.000005 -0.000024
 27   2.918368 1.615358 1.514501 -0.000019 -0.000022 -0.000050
 28   2.920798 1.614964 -1.501142 -0.000002 -0.000009 -0.000024
 29   8.824059 0.150544 0.091743 0.000006 -0.000231 -0.174534
 30   2.111085 -0.561179 1.784320 -0.000008 -0.000682 0.000024
 31   2.121290 -0.561289 -1.853599 0.000000 0.000000 -0.000002
 32   -0.810489 -0.093824 3.127092 3.071872 -0.114782 1.239365
 33   14.298673 -0.408176 0.475484 0.000248 0.000062 -1.896136
 34   15.835795 0.581398 0.242756 -0.214729 0.106889 -0.097869
 35   -0.815868 -0.091229 -3.114430 0.066464 3.132725 -1.010185
 36   14.294526 -0.410349 -0.463635 0.000033 -0.000000 -2.607695
 37   15.834409 0.579420 -0.284600 -0.006092 -0.035255 0.214458
 38   1.139685 -3.453749 -2.823813 0.000000 0.000000 0.000001
 39   -4.457742 -1.054854 -0.746180 0.000000 0.000000 0.000000
 40   1.118101 -3.449769 3.237290 0.000000 0.000001 0.000000
 41   -4.433840 -1.059130 0.959566 -0.000001 0.000000 0.000000
 42   -0.657468 1.697302 -2.688614 0.000000 0.000002 0.000000
 43   -0.664068 1.698578 2.869377 0.000000 0.000002 0.000000
time 27
  0   -0.967547 0.175787 -20.574476 0.000000 0.000000 -1.572114
  1   -1.093036 0.000002 -0.326057 -1.570757 -1.570379 -0.000171
  2   2.262337 0.113614 0.064702 0.139818 0.031077 0.032967
  3   2.380047 0.353302 0.047440 -0.113918 -0.006020 -0.024283
  4   2.033756 0.190472 -0.000128 0.013140 -0.005021 -0.000750
  5   2.451511 0.204909 -0.003447 0.000000 -0.000005 -0.017472
  6   7.247600 -0.397300 -0.109469 0.000001 0.000033 0.418409
  7   -2.022252 -0.104661 3.136172 -0.299070 -1.361862 -2.901749
  8   1.168026 -0.537438 -0.063437 -1.456735 0.243034 -1.698858
  9   6.790376 -0.619176 0.015206 -1.037794 -0.031052 -0.378622
 10   8.637599 0.544015 -0.090417 -0.554989 0.140932 -0.042225
 11   6.790465 -0.619039 0.017802 -0.730336 0.003869 -0.282232
 12   -2.022474 -0.104699 -2.873818 0.299352 1.362119 -2.901601
 13   1.167898 -0.537463 0.063297 1.573464 0.046826 -1.622665
 14   7.002743 -0.617765 -0.183752 0.125139 -0.054888 -0.192569
 15   8.209042 0.615527 -0.255885 1.332020 -0.029646 -0.239895
 16   7.002735 -0.617911 -0.183641 0.101433 -0.038758 -0.153040
 17   1.574674 0.609930 -0.000899 0.000569 0.006564 -0.294587
 18   -0.602177 0.511412 -0.000006 0.000000 0.000000 0.000000
 19   3.673773 0.177020 1.119313 -0.000002 -0.000014 -0.174510
 20   3.673767 0.176993 -1.117566 0.000007 -0.000003 -0.174546
 21   3.942357 1.330634 1.627658 0.000002 -0.000011 -0.000026
 22   -0.246060 -0.011889 0.516521 -0.000011 0.000031 0.000025
 23   3.942374 1.330659 -1.631083 0.000019 0.000002 -0.000024
 24   -0.246150 -0.011872 -0.516511 -0.000005 -0.000006 0.000048
 25   4.941364 1.997338 1.629330 0.000018 -0.000001 -0.000024
 26   4.941382 1.997366 -1.629410 -0.000001 0.000005 -0.000024
 27   2.918368 1.615358 1.514501 -0.000019 -0.000022 -0.000050
 28   2.920798 1.614964 -1.501142 -0.000002 -0.000009 -0.000024
 29   8.824059 0.150544 0.091743 0.000006 -0.000231 -0.174534
 30   2.111085 -0.561179 1.784320 -0.000008 -0.000682 0.000024
 31   2.121290 -0.561289 -1.853599 0.000000 0.000000 -0.000002
 32   -0.810489 -0.093824 3.127092 3.071872 -0.114782 1.239365
 33   14.298673 -0.408176 0.475484 0.000248 0.000062 -1.896136
 34   15.835795 0.581398 0.242756 -0.214729 0.106889 -0.097869
 35   -0.815868 -0.091229 -3.114430 0.066464 3.132725 -1.010185
 36   14.294526 -0.410349 -0.463635 0.000033 -0.000000 -2.607695
 37   15.834409 0.579420 -0.284600 -0.006092 -0.035255 0.214458
 38   1.139685 -3.453749 -2.823813 0.000000 0.000000 0.000001
 39   -4.457742 -1.054854 -0.746180 0.000000 0.000000 0.000000
 40   1.118101 -3.449769 3.237290 0.000000 0.000001 0.000000
 41   -4.433840 -1.059130 0.959566 -0.000001 0.000000 0.000000
 42   -0.657468 1.697302 -2.688614 0.000000 0.000002 0.000000
 43   -0.664068 1.698578 2.869377 0.000000 0.000002 0.000000
time 28
  0   -0.967547 0.175787 -20.574476 0.000000 0.000000 -1.572114
  1   -1.093036 0.000002 -0.326057 -1.570757 -1.570379 -0.000171
  2   2.262337 0.113614 0.064702 0.137462 0.030981 0.021311
  3   2.380047 0.353302 0.047440 -0.139269 -0.008729 -0.042648
  4   2.033756 0.190472 -0.000128 0.001521 -0.005033 -0.000750
  5   2.451511 0.204909 -0.003447 0.000000 -0.000005 -0.017472
  6   7.247600 -0.397300 -0.109469 0.000001 0.000033 0.418409
  7   -2.022252 -0.104661 3.136172 -0.299070 -1.361862 -2.901749
  8   1.168026 -0.537438 -0.063437 -1.439839 0.226380 -1.634459
  9   6.790376 -0.619176 0.015206 -1.099210 0.448610 -0.631136
 10   8.637599 0.544015 -0.090417 -1.488652 -0.125285 -0.473976
 11   6.790465 -0.619039 0.017802 -0.727504 0.374079 -0.393314
 12   -2.022474 -0.104699 -2.873818 0.299352 1.362119 -2.901409
 13   1.167898 -0.537463 0.063297 1.593568 0.015246 -1.887020
 14   7.002743 -0.617765 -0.183752 0.125139 -0.054888 -0.173840
 15   8.209042 0.615527 -0.255885 1.254437 0.102456 -0.226725
 16   7.002735 -0.617911 -0.183641 0.101527 -0.038589 -0.139683
 17   1.574674 0.609930 -0.000899 -0.086440 -0.008181 -0.334283
 18   -0.602177 0.511412 -0.000006 0.000000 0.000000 0.000000
 19   3.673773 0.177020 1.119313 -0.000002 -0.000014 -0.174510
 20   3.673767 0.176993 -1.117566 0.000007 -0.000003 -0.174546
 21   3.942357 1.330634 1.627658 0.000002 -0.000011 -0.000026
 22   -0.246060 -0.011889 0.516521 -0.000011 0.000031 0.000025
 23   3.942374 1.330659 -1.631083 0.000019 0.000002 -0.000024
 24   -0.246150 -0.011872 -0.516511 -0.000005 -0.000006 0.000048
 25   4.941364 1.997338 1.629330 0.000018 -0.000001 -0.000024
 26   4.941382 1.997366 -1.629410 -0.000001 0.000005 -0.000024
 27   2.918368 1.615358 1.514501 -0.000019 -0.000022 -0.000050
 28   2.920798 1.614964 -1.501142 -0.000002 -0.000009 -0.000024
 29   8.824059 0.150544 0.091743 0.000006 -0.000231 -0.174534
 30   2.111085 -0.561179 1.784320 -0.000008 -0.000682 0.000024
 31   2.121290 -0.561289 -1.853599 0.000000 0.000000 -0.000002
 32   -0.810489 -0.093824 3.127092 3.071872 -0.114782 1.239365
 33   14.298673 -0.408176 0.475484 0.000248 0.000062 -1.896136
 34   15.835795 0.581398 0.242756 -0.214729 0.106889 -0.097869
 35   -0.815868 -0.091229 -3.114430 0.066464 3.132725 -1.010185
 36   14.294526 -0.410349 -0.463635 0.000033 -0.000000 -2.607695
 37   15.834409 0.579420 -0.284600 -0.006092 -0.035255 0.214458
 38   1.139685 -3.453749 -2.823813 0.000000 0.000000 0.000001
 39   -4.457742 -1.054854 -0.746180 0.000000 0.000000 0.000000
 40   1.118101 -3.449769 3.237290 0.000000 0.000001 0.000000
 41   -4.433840 -1.059130 0.959566 -0.000001 0.000000 0.000000
 42   -0.657468 1.697302 -2.688614 0.000000 0.000002 0.000000
 43   -0.664068 1.698578 2.869377 0.000000 0.000002 0.000000
end
