version 1
nodes
  0 "Bip01" -1
  1 "Bip01 Pelvis" 0
  2 "Bip01 Spine" 1
  3 "Bip01 Spine1" 2
  4 "Bip01 Spine2" 3
  5 "Bip01 Spine3" 4
  6 "Bip01 Neck" 5
  7 "Bip01 L Arm" 6
  8 "Bip01 L Arm1" 7
  9 "Bip01 L Arm2" 8
 10 "Bip01 L Hand" 9
 11 "Bip06 L elbow2-smooth" 8
 12 "Bip01 R Arm" 6
 13 "Bip01 R Arm1" 12
 14 "Bip01 R Arm2" 13
 15 "Bip01 R Hand" 14
 16 "Bip06 R elbow2-smooth" 13
 17 "Bip01 Head" 6
 18 "Bip06 Head_helper" 17
 19 "Bip06 Head_eyes_l" 18
 20 "Bip06 Head_eyes_r" 18
 21 "Bip06 Head_blink_l" 18
 22 "Bip06 Head_blink_smooth_l1" 21
 23 "Bip06 Head_blink_r" 18
 24 "Bip06 Head_blink_smooth_r1" 23
 25 "Bip06 Head_L_eyebrow" 18
 26 "Bip06 Head_R_eyebrow" 18
 27 "Bip06 Head_blink_l_lid" 18
 28 "Bip06 Head_blink_r_lid" 18
 29 "Bip06 bunny" 18
 30 "Bip06 bunnyL" 29
 31 "Bip06 bunnyR" 29
 32 "Bip01 L Leg" 1
 33 "Bip01 L Leg1" 32
 34 "Bip01 L Foot" 33
 35 "Bip01 R Leg" 1
 36 "Bip01 R Leg1" 35
 37 "Bip01 R Foot" 36
 38 "Bip03 HairR1" 17
 39 "Bip03 HairR2" 38
 40 "Bip03 HairL1" 17
 41 "Bip03 HairL2" 40
 42 "Bip03 swingR" 17
 43 "Bip03 swingL" 17
end
skeleton
time 0
  0   -0.967547 0.175787 -20.574476 0.000000 0.000000 -1.572114
  1   -1.093036 0.000002 -0.326057 -1.570757 -1.570379 -0.000171
  2   2.262337 0.113614 0.064702 -0.000052 0.000061 0.192406
  3   2.380047 0.353302 0.047440 0.000000 -0.000040 0.060931
  4   2.033756 0.190472 -0.000128 -0.171729 0.030105 0.171532
  5   2.451511 0.204909 -0.003447 -0.138715 0.014461 0.103433
  6   7.247600 -0.397300 -0.109469 0.000001 0.000033 0.052298
  7   -2.022252 -0.104661 3.136172 0.914587 -1.249872 -4.083932
  8   1.168026 -0.537438 -0.063437 0.018269 0.639813 -0.605402
  9   6.790376 -0.619176 0.015206 -0.000213 -0.000151 -0.901234
 10   8.637599 0.544015 -0.090417 -4.170755 0.082719 -0.332398
 11   6.790465 -0.619039 0.017802 -0.000079 -0.011452 -0.646103
 12   -2.022474 -0.104699 -2.873818 0.839417 1.276121 -2.377035
 13   1.167898 -0.537463 0.063297 -1.142561 -1.002271 0.309908
 14   7.002743 -0.617765 -0.183752 0.000286 0.000250 -1.839294
 15   8.209042 0.615527 -0.255885 1.566351 0.413492 0.064641
 16   7.002735 -0.617911 -0.183641 0.013168 0.010300 -1.306238
 17   1.574674 0.609930 -0.000899 0.249367 -0.190392 0.382945
 18   -0.602177 0.511412 -0.000006 0.000000 0.000000 0.000000
 19   3.673773 0.177020 1.119313 -0.000002 -0.000014 -0.174510
 20   3.673767 0.176993 -1.117566 0.000007 -0.000003 -0.174546
 21   3.942357 1.330634 1.627658 0.000002 -0.000011 -0.000026
 22   -0.246060 -0.011889 0.516521 -0.000011 0.000031 0.000025
 23   3.942374 1.330659 -1.631083 0.000019 0.000002 -0.000024
 24   -0.246150 -0.011872 -0.516511 -0.000005 -0.000006 0.000048
 25   4.941364 1.997338 1.629330 0.000018 -0.000001 -0.000024
 26   4.941382 1.997366 -1.629410 -0.000001 0.000005 -0.000024
 27   2.918368 1.615358 1.514501 -0.000019 -0.000022 -0.000050
 28   2.920798 1.614964 -1.501142 -0.000002 -0.000009 -0.000024
 29   8.824059 0.150544 0.091743 0.000006 -0.000231 -0.174534
 30   2.111085 -0.561179 1.784320 -0.000008 -0.000682 0.000024
 31   2.121290 -0.561289 -1.853599 0.000000 0.000000 -0.000002
 32   -0.810489 -0.093824 3.127092 3.071872 -0.114782 1.239365
 33   14.298673 -0.408176 0.475484 0.000248 0.000062 -1.896136
 34   15.835795 0.581398 0.242756 -0.214729 0.106889 -0.097869
 35   -0.815868 -0.091229 -3.114430 0.066464 3.132725 -1.010185
 36   14.294526 -0.410349 -0.463635 0.000033 -0.000000 -2.607695
 37   15.834409 0.579420 -0.284600 -0.006092 -0.035255 0.214458
 38   1.139685 -3.453749 -2.823813 0.000000 0.000000 0.000001
 39   -4.457742 -1.054854 -0.746180 0.000000 0.000000 0.000000
 40   1.118101 -3.449769 3.237290 0.000000 0.000001 0.000000
 41   -4.433840 -1.059130 0.959566 -0.000001 0.000000 0.000000
 42   -0.657468 1.697302 -2.688614 0.000000 0.000002 0.000000
 43   -0.664068 1.698578 2.869377 0.000000 0.000002 0.000000
time 1
  0   -0.967547 0.175787 -20.574476 0.000000 0.000000 -1.572114
  1   -1.093036 0.000002 -0.326057 -1.570757 -1.570379 -0.000171
  2   2.262337 0.113614 0.064702 -0.000052 0.000061 0.157565
  3   2.380047 0.353302 0.047440 0.000000 -0.000040 0.060931
  4   2.033756 0.190472 -0.000128 -0.243194 0.021249 0.084358
  5   2.451511 0.204909 -0.003447 -0.139297 0.007345 0.051599
  6   7.247600 -0.397300 -0.109469 0.000001 0.000033 0.052298
  7   -2.022252 -0.104661 3.136172 0.914587 -1.249872 -4.083932
  8   1.168026 -0.537438 -0.063437 -0.002930 0.919510 -0.673913
  9   6.790376 -0.619176 0.015206 -0.000213 -0.000151 -0.886669
 10   8.637599 0.544015 -0.090417 -4.170755 0.082719 -0.332398
 11   6.790465 -0.619039 0.017802 -0.000108 -0.011452 -0.635837
 12   -2.022474 -0.104699 -2.873818 1.219292 1.038270 -2.026240
 13   1.167898 -0.537463 0.063297 -1.342619 -0.221627 0.211902
 14   7.002743 -0.617765 -0.183752 0.000229 0.000250 -2.348765
 15   8.209042 0.615527 -0.255885 1.991226 0.409331 0.099340
 16   7.002735 -0.617911 -0.183641 0.012132 0.013458 -1.662783
 17   1.574674 0.609930 -0.000899 0.288322 -0.255997 0.544650
 18   -0.602177 0.511412 -0.000006 0.000000 0.000000 0.000000
 19   3.673773 0.177020 1.119313 -0.000002 -0.000014 -0.174510
 20   3.673767 0.176993 -1.117566 0.000007 -0.000003 -0.174546
 21   3.942357 1.330634 1.627658 0.000002 -0.000011 -0.000026
 22   -0.246060 -0.011889 0.516521 -0.000011 0.000031 0.000025
 23   3.942374 1.330659 -1.631083 0.000019 0.000002 -0.000024
 24   -0.246150 -0.011872 -0.516511 -0.000005 -0.000006 0.000048
 25   4.941364 1.997338 1.629330 0.000018 -0.000001 -0.000024
 26   4.941382 1.997366 -1.629410 -0.000001 0.000005 -0.000024
 27   2.918368 1.615358 1.514501 -0.000019 -0.000022 -0.000050
 28   2.920798 1.614964 -1.501142 -0.000002 -0.000009 -0.000024
 29   8.824059 0.150544 0.091743 0.000006 -0.000231 -0.174534
 30   2.111085 -0.561179 1.784320 -0.000008 -0.000682 0.000024
 31   2.121290 -0.561289 -1.853599 0.000000 0.000000 -0.000002
 32   -0.810489 -0.093824 3.127092 3.071872 -0.114782 1.239365
 33   14.298673 -0.408176 0.475484 0.000248 0.000062 -1.896136
 34   15.835795 0.581398 0.242756 -0.214729 0.106889 -0.097869
 35   -0.815868 -0.091229 -3.114430 0.066464 3.132725 -1.010185
 36   14.294526 -0.410349 -0.463635 0.000033 -0.000000 -2.607695
 37   15.834409 0.579420 -0.284600 -0.006092 -0.035255 0.214458
 38   1.139685 -3.453749 -2.823813 0.000000 0.000000 0.000001
 39   -4.457742 -1.054854 -0.746180 0.000000 0.000000 0.000000
 40   1.118101 -3.449769 3.237290 0.000000 0.000001 0.000000
 41   -4.433840 -1.059130 0.959566 -0.000001 0.000000 0.000000
 42   -0.657468 1.697302 -2.688614 0.000000 0.000002 0.000000
 43   -0.664068 1.698578 2.869377 0.000000 0.000002 0.000000
time 2
  0   -0.967547 0.175787 -20.574476 0.000000 0.000000 -1.572114
  1   -1.093036 0.000002 -0.326057 -1.570757 -1.570379 -0.000171
  2   2.262337 0.113614 0.064702 -0.000052 0.000061 0.150102
  3   2.380047 0.353302 0.047440 0.000000 -0.000040 0.060931
  4   2.033756 0.190472 -0.000128 -0.171268 0.015952 0.095812
  5   2.451511 0.204909 -0.003447 -0.088426 0.005870 0.075473
  6   7.247600 -0.397300 -0.109469 0.000001 0.000033 0.052298
  7   -2.022252 -0.104661 3.136172 0.914587 -1.249872 -4.083932
  8   1.168026 -0.537438 -0.063437 -0.117151 0.720316 -0.806823
  9   6.790376 -0.619176 0.015206 -0.000213 -0.000151 -1.303551
 10   8.637599 0.544015 -0.090417 -4.170755 0.082719 -0.332398
 11   6.790465 -0.619039 0.017802 0.001556 -0.011708 -0.927671
 12   -2.022474 -0.104699 -2.873818 1.179723 1.081573 -2.060420
 13   1.167898 -0.537463 0.063297 -1.194157 -0.548561 0.250039
 14   7.002743 -0.617765 -0.183752 0.000229 0.000250 -2.238538
 15   8.209042 0.615527 -0.255885 1.822254 0.470842 -0.186493
 16   7.002735 -0.617911 -0.183641 0.012415 0.012781 -1.585624
 17   1.574674 0.609930 -0.000899 0.193271 -0.175340 0.539143
 18   -0.602177 0.511412 -0.000006 0.000000 0.000000 0.000000
 19   3.673773 0.177020 1.119313 -0.000002 -0.000014 -0.174510
 20   3.673767 0.176993 -1.117566 0.000007 -0.000003 -0.174546
 21   3.942357 1.330634 1.627658 0.000002 -0.000011 -0.000026
 22   -0.246060 -0.011889 0.516521 -0.000011 0.000031 0.000025
 23   3.942374 1.330659 -1.631083 0.000019 0.000002 -0.000024
 24   -0.246150 -0.011872 -0.516511 -0.000005 -0.000006 0.000048
 25   4.941364 1.997338 1.629330 0.000018 -0.000001 -0.000024
 26   4.941382 1.997366 -1.629410 -0.000001 0.000005 -0.000024
 27   2.918368 1.615358 1.514501 -0.000019 -0.000022 -0.000050
 28   2.920798 1.614964 -1.501142 -0.000002 -0.000009 -0.000024
 29   8.824059 0.150544 0.091743 0.000006 -0.000231 -0.174534
 30   2.111085 -0.561179 1.784320 -0.000008 -0.000682 0.000024
 31   2.121290 -0.561289 -1.853599 0.000000 0.000000 -0.000002
 32   -0.810489 -0.093824 3.127092 3.071872 -0.114782 1.239365
 33   14.298673 -0.408176 0.475484 0.000248 0.000062 -1.896136
 34   15.835795 0.581398 0.242756 -0.214729 0.106889 -0.097869
 35   -0.815868 -0.091229 -3.114430 0.066464 3.132725 -1.010185
 36   14.294526 -0.410349 -0.463635 0.000033 -0.000000 -2.607695
 37   15.834409 0.579420 -0.284600 -0.006092 -0.035255 0.214458
 38   1.139685 -3.453749 -2.823813 0.000000 0.000000 0.000001
 39   -4.457742 -1.054854 -0.746180 0.000000 0.000000 0.000000
 40   1.118101 -3.449769 3.237290 0.000000 0.000001 0.000000
 41   -4.433840 -1.059130 0.959566 -0.000001 0.000000 0.000000
 42   -0.657468 1.697302 -2.688614 0.000000 0.000002 0.000000
 43   -0.664068 1.698578 2.869377 0.000000 0.000002 0.000000
time 3
  0   -0.967547 0.175787 -20.574476 0.000000 0.000000 -1.572114
  1   -1.093036 0.000002 -0.326057 -1.570757 -1.570379 -0.000171
  2   2.262337 0.113614 0.064702 -0.000052 0.000061 0.152849
  3   2.380047 0.353302 0.047440 0.000000 -0.000040 0.060931
  4   2.033756 0.190472 -0.000128 -0.103731 0.012943 0.123867
  5   2.451511 0.204909 -0.003447 -0.052001 0.005465 0.104275
  6   7.247600 -0.397300 -0.109469 0.000001 0.000033 0.052298
  7   -2.022252 -0.104661 3.136172 0.914587 -1.249872 -4.083932
  8   1.168026 -0.537438 -0.063437 -0.317244 0.435637 -0.938531
  9   6.790376 -0.619176 0.015206 -0.000213 -0.000151 -1.195708
 10   8.637599 0.544015 -0.090417 -4.170755 0.082719 -0.332398
 11   6.790465 -0.619039 0.017802 0.001118 -0.011651 -0.852233
 12   -2.022474 -0.104699 -2.873818 1.074719 1.168094 -2.155299
 13   1.167898 -0.537463 0.063297 -0.920854 -0.937484 0.166138
 14   7.002743 -0.617765 -0.183752 0.000286 0.000250 -2.043165
 15   8.209042 0.615527 -0.255885 1.594322 0.466605 -0.408099
 16   7.002735 -0.617911 -0.183641 0.012791 0.011428 -1.448911
 17   1.574674 0.609930 -0.000899 0.115970 -0.105215 0.491722
 18   -0.602177 0.511412 -0.000006 0.000000 0.000000 0.000000
 19   3.673773 0.177020 1.119313 -0.000002 -0.000014 -0.174510
 20   3.673767 0.176993 -1.117566 0.000007 -0.000003 -0.174546
 21   3.942357 1.330634 1.627658 0.000002 -0.000011 -0.000026
 22   -0.246060 -0.011889 0.516521 -0.000011 0.000031 0.000025
 23   3.942374 1.330659 -1.631083 0.000019 0.000002 -0.000024
 24   -0.246150 -0.011872 -0.516511 -0.000005 -0.000006 0.000048
 25   4.941364 1.997338 1.629330 0.000018 -0.000001 -0.000024
 26   4.941382 1.997366 -1.629410 -0.000001 0.000005 -0.000024
 27   2.918368 1.615358 1.514501 -0.000019 -0.000022 -0.000050
 28   2.920798 1.614964 -1.501142 -0.000002 -0.000009 -0.000024
 29   8.824059 0.150544 0.091743 0.000006 -0.000231 -0.174534
 30   2.111085 -0.561179 1.784320 -0.000008 -0.000682 0.000024
 31   2.121290 -0.561289 -1.853599 0.000000 0.000000 -0.000002
 32   -0.810489 -0.093824 3.127092 3.071872 -0.114782 1.239365
 33   14.298673 -0.408176 0.475484 0.000248 0.000062 -1.896136
 34   15.835795 0.581398 0.242756 -0.214729 0.106889 -0.097869
 35   -0.815868 -0.091229 -3.114430 0.066464 3.132725 -1.010185
 36   14.294526 -0.410349 -0.463635 0.000033 -0.000000 -2.607695
 37   15.834409 0.579420 -0.284600 -0.006092 -0.035255 0.214458
 38   1.139685 -3.453749 -2.823813 0.000000 0.000000 0.000001
 39   -4.457742 -1.054854 -0.746180 0.000000 0.000000 0.000000
 40   1.118101 -3.449769 3.237290 0.000000 0.000001 0.000000
 41   -4.433840 -1.059130 0.959566 -0.000001 0.000000 0.000000
 42   -0.657468 1.697302 -2.688614 0.000000 0.000002 0.000000
 43   -0.664068 1.698578 2.869377 0.000000 0.000002 0.000000
time 4
  0   -0.967547 0.175787 -20.574476 0.000000 0.000000 -1.572114
  1   -1.093036 0.000002 -0.326057 -1.570757 -1.570379 -0.000171
  2   2.262337 0.113614 0.064702 -0.000052 0.000061 0.163294
  3   2.380047 0.353302 0.047440 0.000000 -0.000040 0.060931
  4   2.033756 0.190472 -0.000128 -0.110020 0.016431 0.140468
  5   2.451511 0.204909 -0.003447 -0.067954 0.007502 0.108832
  6   7.247600 -0.397300 -0.109469 0.000001 0.000033 0.052298
  7   -2.022252 -0.104661 3.136172 0.914587 -1.249872 -4.083932
  8   1.168026 -0.537438 -0.063437 -0.243269 0.471562 -0.876599
  9   6.790376 -0.619176 0.015206 -0.000213 -0.000151 -1.096619
 10   8.637599 0.544015 -0.090417 -4.170755 0.082719 -0.332398
 11   6.790465 -0.619039 0.017802 0.000680 -0.011594 -0.782850
 12   -2.022474 -0.104699 -2.873818 0.989067 1.217086 -2.234668
 13   1.167898 -0.537463 0.063297 -0.919870 -1.018544 0.179758
 14   7.002743 -0.617765 -0.183752 0.000286 0.000250 -1.946881
 15   8.209042 0.615527 -0.255885 1.551611 0.445042 -0.291733
 16   7.002735 -0.617911 -0.183641 0.012979 0.010864 -1.381521
 17   1.574674 0.609930 -0.000899 0.135062 -0.117900 0.457717
 18   -0.602177 0.511412 -0.000006 0.000000 0.000000 0.000000
 19   3.673773 0.177020 1.119313 -0.000002 -0.000014 -0.174510
 20   3.673767 0.176993 -1.117566 0.000007 -0.000003 -0.174546
 21   3.942357 1.330634 1.627658 0.000002 -0.000011 -0.000026
 22   -0.246060 -0.011889 0.516521 -0.000011 0.000031 0.000025
 23   3.942374 1.330659 -1.631083 0.000019 0.000002 -0.000024
 24   -0.246150 -0.011872 -0.516511 -0.000005 -0.000006 0.000048
 25   4.941364 1.997338 1.629330 0.000018 -0.000001 -0.000024
 26   4.941382 1.997366 -1.629410 -0.000001 0.000005 -0.000024
 27   2.918368 1.615358 1.514501 -0.000019 -0.000022 -0.000050
 28   2.920798 1.614964 -1.501142 -0.000002 -0.000009 -0.000024
 29   8.824059 0.150544 0.091743 0.000006 -0.000231 -0.174534
 30   2.111085 -0.561179 1.784320 -0.000008 -0.000682 0.000024
 31   2.121290 -0.561289 -1.853599 0.000000 0.000000 -0.000002
 32   -0.810489 -0.093824 3.127092 3.071872 -0.114782 1.239365
 33   14.298673 -0.408176 0.475484 0.000248 0.000062 -1.896136
 34   15.835795 0.581398 0.242756 -0.214729 0.106889 -0.097869
 35   -0.815868 -0.091229 -3.114430 0.066464 3.132725 -1.010185
 36   14.294526 -0.410349 -0.463635 0.000033 -0.000000 -2.607695
 37   15.834409 0.579420 -0.284600 -0.006092 -0.035255 0.214458
 38   1.139685 -3.453749 -2.823813 0.000000 0.000000 0.000001
 39   -4.457742 -1.054854 -0.746180 0.000000 0.000000 0.000000
 40   1.118101 -3.449769 3.237290 0.000000 0.000001 0.000000
 41   -4.433840 -1.059130 0.959566 -0.000001 0.000000 0.000000
 42   -0.657468 1.697302 -2.688614 0.000000 0.000002 0.000000
 43   -0.664068 1.698578 2.869377 0.000000 0.000002 0.000000
time 5
  0   -0.967547 0.175787 -20.574476 0.000000 0.000000 -1.572114
  1   -1.093036 0.000002 -0.326057 -1.570757 -1.570379 -0.000171
  2   2.262337 0.113614 0.064702 -0.000052 0.000061 0.177841
  3   2.380047 0.353302 0.047440 0.000000 -0.000040 0.060931
  4   2.033756 0.190472 -0.000128 -0.140893 0.022987 0.156236
  5   2.451511 0.204909 -0.003447 -0.103352 0.011184 0.106182
  6   7.247600 -0.397300 -0.109469 0.000001 0.000033 0.052298
  7   -2.022252 -0.104661 3.136172 0.914587 -1.249872 -4.083932
  8   1.168026 -0.537438 -0.063437 -0.118733 0.559461 -0.750711
  9   6.790376 -0.619176 0.015206 -0.000213 -0.000151 -0.998889
 10   8.637599 0.544015 -0.090417 -4.170755 0.082719 -0.332398
 11   6.790465 -0.619039 0.017802 0.000330 -0.011566 -0.714390
 12   -2.022474 -0.104699 -2.873818 0.894027 1.257720 -2.325048
 13   1.167898 -0.537463 0.063297 -1.065519 -1.017324 0.286844
 14   7.002743 -0.617765 -0.183752 0.000286 0.000250 -1.872791
 15   8.209042 0.615527 -0.255885 1.557004 0.424614 -0.066218
 16   7.002735 -0.617911 -0.183641 0.013121 0.010413 -1.329695
 17   1.574674 0.609930 -0.000899 0.190915 -0.155815 0.421459
 18   -0.602177 0.511412 -0.000006 0.000000 0.000000 0.000000
 19   3.673773 0.177020 1.119313 -0.000002 -0.000014 -0.174510
 20   3.673767 0.176993 -1.117566 0.000007 -0.000003 -0.174546
 21   3.942357 1.330634 1.627658 0.000002 -0.000011 -0.000026
 22   -0.246060 -0.011889 0.516521 -0.000011 0.000031 0.000025
 23   3.942374 1.330659 -1.631083 0.000019 0.000002 -0.000024
 24   -0.246150 -0.011872 -0.516511 -0.000005 -0.000006 0.000048
 25   4.941364 1.997338 1.629330 0.000018 -0.000001 -0.000024
 26   4.941382 1.997366 -1.629410 -0.000001 0.000005 -0.000024
 27   2.918368 1.615358 1.514501 -0.000019 -0.000022 -0.000050
 28   2.920798 1.614964 -1.501142 -0.000002 -0.000009 -0.000024
 29   8.824059 0.150544 0.091743 0.000006 -0.000231 -0.174534
 30   2.111085 -0.561179 1.784320 -0.000008 -0.000682 0.000024
 31   2.121290 -0.561289 -1.853599 0.000000 0.000000 -0.000002
 32   -0.810489 -0.093824 3.127092 3.071872 -0.114782 1.239365
 33   14.298673 -0.408176 0.475484 0.000248 0.000062 -1.896136
 34   15.835795 0.581398 0.242756 -0.214729 0.106889 -0.097869
 35   -0.815868 -0.091229 -3.114430 0.066464 3.132725 -1.010185
 36   14.294526 -0.410349 -0.463635 0.000033 -0.000000 -2.607695
 37   15.834409 0.579420 -0.284600 -0.006092 -0.035255 0.214458
 38   1.139685 -3.453749 -2.823813 0.000000 0.000000 0.000001
 39   -4.457742 -1.054854 -0.746180 0.000000 0.000000 0.000000
 40   1.118101 -3.449769 3.237290 0.000000 0.000001 0.000000
 41   -4.433840 -1.059130 0.959566 -0.000001 0.000000 0.000000
 42   -0.657468 1.697302 -2.688614 0.000000 0.000002 0.000000
 43   -0.664068 1.698578 2.869377 0.000000 0.000002 0.000000
time 6
  0   -0.967547 0.175787 -20.574476 0.000000 0.000000 -1.572114
  1   -1.093036 0.000002 -0.326057 -1.570757 -1.570379 -0.000171
  2   2.262337 0.113614 0.064702 -0.000052 0.000061 0.192406
  3   2.380047 0.353302 0.047440 0.000000 -0.000040 0.060931
  4   2.033756 0.190472 -0.000128 -0.171729 0.030105 0.171532
  5   2.451511 0.204909 -0.003447 -0.138715 0.014461 0.103433
  6   7.247600 -0.397300 -0.109469 0.000001 0.000033 0.052298
  7   -2.022252 -0.104661 3.136172 0.914587 -1.249872 -4.083932
  8   1.168026 -0.537438 -0.063437 0.018269 0.639813 -0.605402
  9   6.790376 -0.619176 0.015206 -0.000213 -0.000151 -0.901234
 10   8.637599 0.544015 -0.090417 -4.170755 0.082719 -0.332398
 11   6.790465 -0.619039 0.017802 -0.000079 -0.011452 -0.646103
 12   -2.022474 -0.104699 -2.873818 0.839417 1.276121 -2.377035
 13   1.167898 -0.537463 0.063297 -1.142561 -1.002271 0.309908
 14   7.002743 -0.617765 -0.183752 0.000286 0.000250 -1.839294
 15   8.209042 0.615527 -0.255885 1.566351 0.413492 0.064641
 16   7.002735 -0.617911 -0.183641 0.013168 0.010300 -1.306238
 17   1.574674 0.609930 -0.000899 0.249367 -0.190392 0.382945
 18   -0.602177 0.511412 -0.000006 0.000000 0.000000 0.000000
 19   3.673773 0.177020 1.119313 -0.000002 -0.000014 -0.174510
 20   3.673767 0.176993 -1.117566 0.000007 -0.000003 -0.174546
 21   3.942357 1.330634 1.627658 0.000002 -0.000011 -0.000026
 22   -0.246060 -0.011889 0.516521 -0.000011 0.000031 0.000025
 23   3.942374 1.330659 -1.631083 0.000019 0.000002 -0.000024
 24   -0.246150 -0.011872 -0.516511 -0.000005 -0.000006 0.000048
 25   4.941364 1.997338 1.629330 0.000018 -0.000001 -0.000024
 26   4.941382 1.997366 -1.629410 -0.000001 0.000005 -0.000024
 27   2.918368 1.615358 1.514501 -0.000019 -0.000022 -0.000050
 28   2.920798 1.614964 -1.501142 -0.000002 -0.000009 -0.000024
 29   8.824059 0.150544 0.091743 0.000006 -0.000231 -0.174534
 30   2.111085 -0.561179 1.784320 -0.000008 -0.000682 0.000024
 31   2.121290 -0.561289 -1.853599 0.000000 0.000000 -0.000002
 32   -0.810489 -0.093824 3.127092 3.071872 -0.114782 1.239365
 33   14.298673 -0.408176 0.475484 0.000248 0.000062 -1.896136
 34   15.835795 0.581398 0.242756 -0.214729 0.106889 -0.097869
 35   -0.815868 -0.091229 -3.114430 0.066464 3.132725 -1.010185
 36   14.294526 -0.410349 -0.463635 0.000033 -0.000000 -2.607695
 37   15.834409 0.579420 -0.284600 -0.006092 -0.035255 0.214458
 38   1.139685 -3.453749 -2.823813 0.000000 0.000000 0.000001
 39   -4.457742 -1.054854 -0.746180 0.000000 0.000000 0.000000
 40   1.118101 -3.449769 3.237290 0.000000 0.000001 0.000000
 41   -4.433840 -1.059130 0.959566 -0.000001 0.000000 0.000000
 42   -0.657468 1.697302 -2.688614 0.000000 0.000002 0.000000
 43   -0.664068 1.698578 2.869377 0.000000 0.000002 0.000000
end
