version 1
nodes
  0 "Bip01" -1
  1 "Bip01 Pelvis" 0
  2 "Bip01 Spine" 1
  3 "Bip01 Spine1" 2
  4 "Bip01 Spine2" 3
  5 "Bip01 Spine3" 4
  6 "Bip01 Neck" 5
  7 "Bip01 L Arm" 6
  8 "Bip01 L Arm1" 7
  9 "Bip01 L Arm2" 8
 10 "Bip01 L Hand" 9
 11 "Bip06 L elbow2-smooth" 8
 12 "Bip01 R Arm" 6
 13 "Bip01 R Arm1" 12
 14 "Bip01 R Arm2" 13
 15 "Bip01 R Hand" 14
 16 "Bip06 R elbow2-smooth" 13
 17 "Bip01 Head" 6
 18 "Bip06 Head_helper" 17
 19 "Bip06 Head_eyes_l" 18
 20 "Bip06 Head_eyes_r" 18
 21 "Bip06 Head_blink_l" 18
 22 "Bip06 Head_blink_smooth_l1" 21
 23 "Bip06 Head_blink_r" 18
 24 "Bip06 Head_blink_smooth_r1" 23
 25 "Bip06 Head_L_eyebrow" 18
 26 "Bip06 Head_R_eyebrow" 18
 27 "Bip06 Head_blink_l_lid" 18
 28 "Bip06 Head_blink_r_lid" 18
 29 "Bip06 bunny" 18
 30 "Bip06 bunnyL" 29
 31 "Bip06 bunnyR" 29
 32 "Bip01 L Leg" 1
 33 "Bip01 L Leg1" 32
 34 "Bip01 L Foot" 33
 35 "Bip01 R Leg" 1
 36 "Bip01 R Leg1" 35
 37 "Bip01 R Foot" 36
 38 "Bip03 HairR1" 17
 39 "Bip03 HairR2" 38
 40 "Bip03 HairL1" 17
 41 "Bip03 HairL2" 40
 42 "Bip03 swingR" 17
 43 "Bip03 swingL" 17
end
skeleton
time 0
  0   -0.967547 0.175787 -20.574476 0.000000 0.000000 -1.572114
  1   -1.093036 0.000002 -0.326057 -1.570757 -1.570379 -0.000171
  2   2.262337 0.113614 0.064702 -0.000052 0.000061 -0.051442
  3   2.380047 0.353302 0.047440 -0.151495 0.040528 0.258477
  4   2.033756 0.190472 -0.000128 -0.283122 0.051797 0.175483
  5   2.451511 0.204909 -0.003447 -0.155849 0.017633 0.111779
  6   7.247600 -0.397300 -0.109469 -0.000143 -0.183080 -0.122015
  7   -2.022252 -0.104661 3.136172 1.515617 -1.335573 -4.488042
  8   1.168026 -0.537438 -0.063437 -0.790835 0.428442 -0.799738
  9   6.790376 -0.619176 0.015206 -0.000213 -0.000352 -1.807372
 10   8.637599 0.544015 -0.090417 -1.656328 -0.275639 -0.099522
 11   6.790465 -0.619039 0.017802 0.003775 -0.011907 -1.280527
 12   -2.022474 -0.104699 -2.873818 0.101798 1.187308 -2.916824
 13   1.167898 -0.537463 0.063297 -0.217983 -0.994796 -0.245741
 14   7.002743 -0.617765 -0.183752 0.000286 0.000250 -1.967755
 15   8.209042 0.615527 -0.255885 1.570090 -0.000063 -0.069646
 16   7.002735 -0.617911 -0.183641 0.012932 0.011033 -1.396147
 17   1.574674 0.609930 -0.000899 0.540085 -0.227360 0.432362
 18   -0.602177 0.511412 -0.000006 0.000000 0.000000 0.000000
 19   3.673773 0.177020 1.119313 -0.000002 -0.000014 -0.174510
 20   3.673767 0.176993 -1.117566 0.000007 -0.000003 -0.174546
 21   3.942357 1.330634 1.627658 0.000002 -0.000011 -0.000026
 22   -0.246060 -0.011889 0.516521 -0.000011 0.000031 0.000025
 23   3.942374 1.330659 -1.631083 0.000019 0.000002 -0.000024
 24   -0.246150 -0.011872 -0.516511 -0.000005 -0.000006 0.000048
 25   4.941364 1.997338 1.629330 0.000018 -0.000001 -0.000024
 26   4.941382 1.997366 -1.629410 -0.000001 0.000005 -0.000024
 27   2.918368 1.615358 1.514501 -0.000019 -0.000022 -0.000050
 28   2.920798 1.614964 -1.501142 -0.000002 -0.000009 -0.000024
 29   8.824059 0.150544 0.091743 0.000006 -0.000231 -0.174534
 30   2.111085 -0.561179 1.784320 -0.000008 -0.000682 0.000024
 31   2.121290 -0.561289 -1.853599 0.000000 0.000000 -0.000002
 32   -0.810489 -0.093824 3.127092 3.071872 -0.114782 1.239365
 33   14.298673 -0.408176 0.475484 0.000248 0.000062 -1.896136
 34   15.835795 0.581398 0.242756 -0.214729 0.106889 -0.097869
 35   -0.815868 -0.091229 -3.114430 0.066464 3.132725 -1.010185
 36   14.294526 -0.410349 -0.463635 0.000033 -0.000000 -2.607695
 37   15.834409 0.579420 -0.284600 -0.006092 -0.035255 0.214458
 38   1.139685 -3.453749 -2.823813 0.000000 0.000000 0.000001
 39   -4.457742 -1.054854 -0.746180 0.000000 0.000000 0.000000
 40   1.118101 -3.449769 3.237290 0.000000 0.000001 0.000000
 41   -4.433840 -1.059130 0.959566 -0.000001 0.000000 0.000000
 42   -0.657468 1.697302 -2.688614 0.000000 0.000002 0.000000
 43   -0.664068 1.698578 2.869377 0.000000 0.000002 0.000000
time 1
  0   -0.967547 0.175787 -20.574476 0.000000 0.000000 -1.572114
  1   -1.093036 0.000002 -0.326057 -1.570757 -1.570379 -0.000171
  2   2.262337 0.113614 0.064702 -0.000052 0.000061 -0.051442
  3   2.380047 0.353302 0.047440 -0.151600 0.039977 0.255151
  4   2.033756 0.190472 -0.000128 -0.056758 0.010487 0.182551
  5   2.451511 0.204909 -0.003447 -0.061809 0.007045 0.112992
  6   7.247600 -0.397300 -0.109469 -0.000143 -0.183080 -0.122015
  7   -2.022252 -0.104661 3.136172 1.515617 -1.335573 -4.488136
  8   1.168026 -0.537438 -0.063437 -0.775394 0.539838 -0.380954
  9   6.790376 -0.619176 0.015206 -0.000213 -0.000352 -1.829182
 10   8.637599 0.544015 -0.090417 -1.656328 -0.275639 -0.099522
 11   6.790465 -0.619039 0.017802 0.003892 -0.011907 -1.295753
 12   -2.022474 -0.104699 -2.873818 -0.497284 1.138286 -3.513386
 13   1.167898 -0.537463 0.063297 0.631030 -0.967589 -0.642849
 14   7.002743 -0.617765 -0.183752 0.000229 0.000250 -1.290798
 15   8.209042 0.615527 -0.255885 2.200535 -0.000063 -0.069646
 16   7.002735 -0.617911 -0.183641 0.013968 0.007086 -0.922151
 17   1.574674 0.609930 -0.000899 0.277476 -0.046142 0.535188
 18   -0.602177 0.511412 -0.000006 0.000000 0.000000 0.000000
 19   3.673773 0.177020 1.119313 -0.000002 -0.000014 -0.174510
 20   3.673767 0.176993 -1.117566 0.000007 -0.000003 -0.174546
 21   3.942357 1.330634 1.627658 0.000002 -0.000011 -0.000026
 22   -0.246060 -0.011889 0.516521 -0.000011 0.000031 0.000025
 23   3.942374 1.330659 -1.631083 0.000019 0.000002 -0.000024
 24   -0.246150 -0.011872 -0.516511 -0.000005 -0.000006 0.000048
 25   4.941364 1.997338 1.629330 0.000018 -0.000001 -0.000024
 26   4.941382 1.997366 -1.629410 -0.000001 0.000005 -0.000024
 27   2.918368 1.615358 1.514501 -0.000019 -0.000022 -0.000050
 28   2.920798 1.614964 -1.501142 -0.000002 -0.000009 -0.000024
 29   8.824059 0.150544 0.091743 0.000006 -0.000231 -0.174534
 30   2.111085 -0.561179 1.784320 -0.000008 -0.000682 0.000024
 31   2.121290 -0.561289 -1.853599 0.000000 0.000000 -0.000002
 32   -0.810489 -0.093824 3.127092 3.071872 -0.114782 1.239365
 33   14.298673 -0.408176 0.475484 0.000248 0.000062 -1.896136
 34   15.835795 0.581398 0.242756 -0.214729 0.106889 -0.097869
 35   -0.815868 -0.091229 -3.114430 0.066464 3.132725 -1.010185
 36   14.294526 -0.410349 -0.463635 0.000033 -0.000000 -2.607695
 37   15.834409 0.579420 -0.284600 -0.006092 -0.035255 0.214458
 38   1.139685 -3.453749 -2.823813 0.000000 0.000000 0.000001
 39   -4.457742 -1.054854 -0.746180 0.000000 0.000000 0.000000
 40   1.118101 -3.449769 3.237290 0.000000 0.000001 0.000000
 41   -4.433840 -1.059130 0.959566 -0.000001 0.000000 0.000000
 42   -0.657468 1.697302 -2.688614 0.000000 0.000002 0.000000
 43   -0.664068 1.698578 2.869377 0.000000 0.000002 0.000000
time 2
  0   -0.967547 0.175787 -20.574476 0.000000 0.000000 -1.572114
  1   -1.093036 0.000002 -0.326057 -1.570757 -1.570379 -0.000171
  2   2.262337 0.113614 0.064702 -0.000052 0.000061 -0.051442
  3   2.380047 0.353302 0.047440 -0.151750 0.039377 0.251886
  4   2.033756 0.190472 -0.000128 0.169201 -0.031280 0.180304
  5   2.451511 0.204909 -0.003447 0.032077 -0.003504 0.113166
  6   7.247600 -0.397300 -0.109469 -0.000143 -0.183080 -0.122015
  7   -2.022252 -0.104661 3.136172 1.515617 -1.335573 -4.488136
  8   1.168026 -0.537438 -0.063437 -0.770079 0.576014 0.032200
  9   6.790376 -0.619176 0.015206 -0.000213 -0.000352 -1.851445
 10   8.637599 0.544015 -0.090417 -1.656328 -0.275639 -0.099522
 11   6.790465 -0.619039 0.017802 0.003950 -0.011907 -1.311210
 12   -2.022474 -0.104699 -2.873818 -0.878596 0.984024 -3.892713
 13   1.167898 -0.537463 0.063297 1.133422 -0.648182 -0.669545
 14   7.002743 -0.617765 -0.183752 0.000229 0.000250 -0.614254
 15   8.209042 0.615527 -0.255885 2.831770 -0.000063 -0.069646
 16   7.002735 -0.617911 -0.183641 0.014486 0.003477 -0.448597
 17   1.574674 0.609930 -0.000899 0.031684 0.155381 0.584568
 18   -0.602177 0.511412 -0.000006 0.000000 0.000000 0.000000
 19   3.673773 0.177020 1.119313 -0.000002 -0.000014 -0.174510
 20   3.673767 0.176993 -1.117566 0.000007 -0.000003 -0.174546
 21   3.942357 1.330634 1.627658 0.000002 -0.000011 -0.000026
 22   -0.246060 -0.011889 0.516521 -0.000011 0.000031 0.000025
 23   3.942374 1.330659 -1.631083 0.000019 0.000002 -0.000024
 24   -0.246150 -0.011872 -0.516511 -0.000005 -0.000006 0.000048
 25   4.941364 1.997338 1.629330 0.000018 -0.000001 -0.000024
 26   4.941382 1.997366 -1.629410 -0.000001 0.000005 -0.000024
 27   2.918368 1.615358 1.514501 -0.000019 -0.000022 -0.000050
 28   2.920798 1.614964 -1.501142 -0.000002 -0.000009 -0.000024
 29   8.824059 0.150544 0.091743 0.000006 -0.000231 -0.174534
 30   2.111085 -0.561179 1.784320 -0.000008 -0.000682 0.000024
 31   2.121290 -0.561289 -1.853599 0.000000 0.000000 -0.000002
 32   -0.810489 -0.093824 3.127092 3.071872 -0.114782 1.239365
 33   14.298673 -0.408176 0.475484 0.000248 0.000062 -1.896136
 34   15.835795 0.581398 0.242756 -0.214729 0.106889 -0.097869
 35   -0.815868 -0.091229 -3.114430 0.066464 3.132725 -1.010185
 36   14.294526 -0.410349 -0.463635 0.000033 -0.000000 -2.607695
 37   15.834409 0.579420 -0.284600 -0.006092 -0.035255 0.214458
 38   1.139685 -3.453749 -2.823813 0.000000 0.000000 0.000001
 39   -4.457742 -1.054854 -0.746180 0.000000 0.000000 0.000000
 40   1.118101 -3.449769 3.237290 0.000000 0.000001 0.000000
 41   -4.433840 -1.059130 0.959566 -0.000001 0.000000 0.000000
 42   -0.657468 1.697302 -2.688614 0.000000 0.000002 0.000000
 43   -0.664068 1.698578 2.869377 0.000000 0.000002 0.000000
time 3
  0   -0.967547 0.175787 -20.574476 0.000000 0.000000 -1.572114
  1   -1.093036 0.000002 -0.326057 -1.570757 -1.570379 -0.000171
  2   2.262337 0.113614 0.064702 -0.000052 0.000061 -0.051442
  3   2.380047 0.353302 0.047440 -0.151495 0.040528 0.258477
  4   2.033756 0.190472 -0.000128 0.300346 -0.054805 0.174577
  5   2.451511 0.204909 -0.003447 0.086560 -0.009731 0.112720
  6   7.247600 -0.397300 -0.109469 -0.000143 -0.183080 -0.122015
  7   -2.022252 -0.104661 3.136172 1.515617 -1.335573 -4.488230
  8   1.168026 -0.537438 -0.063437 -0.812793 0.590656 0.222677
  9   6.790376 -0.619176 0.015206 -0.000213 -0.000352 -1.807372
 10   8.637599 0.544015 -0.090417 -1.656328 -0.275639 -0.099522
 11   6.790465 -0.619039 0.017802 0.003775 -0.011907 -1.280527
 12   -2.022474 -0.104699 -2.873818 -1.007265 0.878899 -4.019857
 13   1.167898 -0.537463 0.063297 1.284906 -0.452143 -0.524867
 14   7.002743 -0.617765 -0.183752 0.000229 0.000250 -0.257748
 15   8.209042 0.615527 -0.255885 3.173956 -0.000063 -0.069646
 16   7.002735 -0.617911 -0.183641 0.014674 0.001898 -0.198960
 17   1.574674 0.609930 -0.000899 -0.113899 0.274331 0.579689
 18   -0.602177 0.511412 -0.000006 0.000000 0.000000 0.000000
 19   3.673773 0.177020 1.119313 -0.000002 -0.000014 -0.174510
 20   3.673767 0.176993 -1.117566 0.000007 -0.000003 -0.174546
 21   3.942357 1.330634 1.627658 0.000002 -0.000011 -0.000026
 22   -0.246060 -0.011889 0.516521 -0.000011 0.000031 0.000025
 23   3.942374 1.330659 -1.631083 0.000019 0.000002 -0.000024
 24   -0.246150 -0.011872 -0.516511 -0.000005 -0.000006 0.000048
 25   4.941364 1.997338 1.629330 0.000018 -0.000001 -0.000024
 26   4.941382 1.997366 -1.629410 -0.000001 0.000005 -0.000024
 27   2.918368 1.615358 1.514501 -0.000019 -0.000022 -0.000050
 28   2.920798 1.614964 -1.501142 -0.000002 -0.000009 -0.000024
 29   8.824059 0.150544 0.091743 0.000006 -0.000231 -0.174534
 30   2.111085 -0.561179 1.784320 -0.000008 -0.000682 0.000024
 31   2.121290 -0.561289 -1.853599 0.000000 0.000000 -0.000002
 32   -0.810489 -0.093824 3.127092 3.071872 -0.114782 1.239365
 33   14.298673 -0.408176 0.475484 0.000248 0.000062 -1.896136
 34   15.835795 0.581398 0.242756 -0.214729 0.106889 -0.097869
 35   -0.815868 -0.091229 -3.114430 0.066464 3.132725 -1.010185
 36   14.294526 -0.410349 -0.463635 0.000033 -0.000000 -2.607695
 37   15.834409 0.579420 -0.284600 -0.006092 -0.035255 0.214458
 38   1.139685 -3.453749 -2.823813 0.000000 0.000000 0.000001
 39   -4.457742 -1.054854 -0.746180 0.000000 0.000000 0.000000
 40   1.118101 -3.449769 3.237290 0.000000 0.000001 0.000000
 41   -4.433840 -1.059130 0.959566 -0.000001 0.000000 0.000000
 42   -0.657468 1.697302 -2.688614 0.000000 0.000002 0.000000
 43   -0.664068 1.698578 2.869377 0.000000 0.000002 0.000000
time 4
  0   -0.967547 0.175787 -20.574476 0.000000 0.000000 -1.572114
  1   -1.093036 0.000002 -0.326057 -1.570757 -1.570379 -0.000171
  2   2.262337 0.113614 0.064702 -0.000052 0.000061 -0.051442
  3   2.380047 0.353302 0.047440 -0.150445 0.044111 0.282943
  4   2.033756 0.190472 -0.000128 0.306856 -0.056112 0.174323
  5   2.451511 0.204909 -0.003447 0.089299 -0.010175 0.112720
  6   7.247600 -0.397300 -0.109469 -0.000143 -0.183080 -0.122015
  7   -2.022252 -0.104661 3.136172 1.515617 -1.335573 -4.488042
  8   1.168026 -0.537438 -0.063437 -0.851204 0.615461 0.163845
  9   6.790376 -0.619176 0.015206 -0.000213 -0.000151 -1.643683
 10   8.637599 0.544015 -0.090417 -1.656328 -0.275639 -0.099522
 11   6.790465 -0.619039 0.017802 0.003045 -0.011850 -1.165753
 12   -2.022474 -0.104699 -2.873818 -1.010714 0.875475 -4.023208
 13   1.167898 -0.537463 0.063297 1.286523 -0.482401 -0.499624
 14   7.002743 -0.617765 -0.183752 0.000229 0.000250 -0.273589
 15   8.209042 0.615527 -0.255885 3.184526 -0.000063 -0.069646
 16   7.002735 -0.617911 -0.183641 0.014674 0.001898 -0.210054
 17   1.574674 0.609930 -0.000899 -0.131284 0.275041 0.554260
 18   -0.602177 0.511412 -0.000006 0.000000 0.000000 0.000000
 19   3.673773 0.177020 1.119313 -0.000002 -0.000014 -0.174510
 20   3.673767 0.176993 -1.117566 0.000007 -0.000003 -0.174546
 21   3.942357 1.330634 1.627658 0.000002 -0.000011 -0.000026
 22   -0.246060 -0.011889 0.516521 -0.000011 0.000031 0.000025
 23   3.942374 1.330659 -1.631083 0.000019 0.000002 -0.000024
 24   -0.246150 -0.011872 -0.516511 -0.000005 -0.000006 0.000048
 25   4.941364 1.997338 1.629330 0.000018 -0.000001 -0.000024
 26   4.941382 1.997366 -1.629410 -0.000001 0.000005 -0.000024
 27   2.918368 1.615358 1.514501 -0.000019 -0.000022 -0.000050
 28   2.920798 1.614964 -1.501142 -0.000002 -0.000009 -0.000024
 29   8.824059 0.150544 0.091743 0.000006 -0.000231 -0.174534
 30   2.111085 -0.561179 1.784320 -0.000008 -0.000682 0.000024
 31   2.121290 -0.561289 -1.853599 0.000000 0.000000 -0.000002
 32   -0.810489 -0.093824 3.127092 3.071872 -0.114782 1.239365
 33   14.298673 -0.408176 0.475484 0.000248 0.000062 -1.896136
 34   15.835795 0.581398 0.242756 -0.214729 0.106889 -0.097869
 35   -0.815868 -0.091229 -3.114430 0.066464 3.132725 -1.010185
 36   14.294526 -0.410349 -0.463635 0.000033 -0.000000 -2.607695
 37   15.834409 0.579420 -0.284600 -0.006092 -0.035255 0.214458
 38   1.139685 -3.453749 -2.823813 0.000000 0.000000 0.000001
 39   -4.457742 -1.054854 -0.746180 0.000000 0.000000 0.000000
 40   1.118101 -3.449769 3.237290 0.000000 0.000001 0.000000
 41   -4.433840 -1.059130 0.959566 -0.000001 0.000000 0.000000
 42   -0.657468 1.697302 -2.688614 0.000000 0.000002 0.000000
 43   -0.664068 1.698578 2.869377 0.000000 0.000002 0.000000
time 5
  0   -0.967547 0.175787 -20.574476 0.000000 0.000000 -1.572114
  1   -1.093036 0.000002 -0.326057 -1.570757 -1.570379 -0.000171
  2   2.262337 0.113614 0.064702 -0.000052 0.000061 -0.051442
  3   2.380047 0.353302 0.047440 -0.148930 0.049348 0.317612
  4   2.033756 0.190472 -0.000128 0.247471 -0.045422 0.177114
  5   2.451511 0.204909 -0.003447 0.064599 -0.007329 0.112943
  6   7.247600 -0.397300 -0.109469 -0.000143 -0.183080 -0.122015
  7   -2.022252 -0.104661 3.136172 1.515617 -1.335573 -4.488136
  8   1.168026 -0.537438 -0.063437 -0.897399 0.627637 -0.030871
  9   6.790376 -0.619176 0.015206 -0.000213 -0.000151 -1.411847
 10   8.637599 0.544015 -0.090417 -1.656328 -0.275639 -0.099522
 11   6.790465 -0.619039 0.017802 0.001994 -0.011793 -1.003572
 12   -2.022474 -0.104699 -2.873818 -0.966163 0.917414 -3.978976
 13   1.167898 -0.537463 0.063297 1.215596 -0.612839 -0.538003
 14   7.002743 -0.617765 -0.183752 0.000229 0.000250 -0.452296
 15   8.209042 0.615527 -0.255885 3.052728 -0.000063 -0.069646
 16   7.002735 -0.617911 -0.183641 0.014580 0.002631 -0.335231
 17   1.574674 0.609930 -0.000899 -0.076528 0.217294 0.521032
 18   -0.602177 0.511412 -0.000006 0.000000 0.000000 0.000000
 19   3.673773 0.177020 1.119313 -0.000002 -0.000014 -0.174510
 20   3.673767 0.176993 -1.117566 0.000007 -0.000003 -0.174546
 21   3.942357 1.330634 1.627658 0.000002 -0.000011 -0.000026
 22   -0.246060 -0.011889 0.516521 -0.000011 0.000031 0.000025
 23   3.942374 1.330659 -1.631083 0.000019 0.000002 -0.000024
 24   -0.246150 -0.011872 -0.516511 -0.000005 -0.000006 0.000048
 25   4.941364 1.997338 1.629330 0.000018 -0.000001 -0.000024
 26   4.941382 1.997366 -1.629410 -0.000001 0.000005 -0.000024
 27   2.918368 1.615358 1.514501 -0.000019 -0.000022 -0.000050
 28   2.920798 1.614964 -1.501142 -0.000002 -0.000009 -0.000024
 29   8.824059 0.150544 0.091743 0.000006 -0.000231 -0.174534
 30   2.111085 -0.561179 1.784320 -0.000008 -0.000682 0.000024
 31   2.121290 -0.561289 -1.853599 0.000000 0.000000 -0.000002
 32   -0.810489 -0.093824 3.127092 3.071872 -0.114782 1.239365
 33   14.298673 -0.408176 0.475484 0.000248 0.000062 -1.896136
 34   15.835795 0.581398 0.242756 -0.214729 0.106889 -0.097869
 35   -0.815868 -0.091229 -3.114430 0.066464 3.132725 -1.010185
 36   14.294526 -0.410349 -0.463635 0.000033 -0.000000 -2.607695
 37   15.834409 0.579420 -0.284600 -0.006092 -0.035255 0.214458
 38   1.139685 -3.453749 -2.823813 0.000000 0.000000 0.000001
 39   -4.457742 -1.054854 -0.746180 0.000000 0.000000 0.000000
 40   1.118101 -3.449769 3.237290 0.000000 0.000001 0.000000
 41   -4.433840 -1.059130 0.959566 -0.000001 0.000000 0.000000
 42   -0.657468 1.697302 -2.688614 0.000000 0.000002 0.000000
 43   -0.664068 1.698578 2.869377 0.000000 0.000002 0.000000
time 6
  0   -0.967547 0.175787 -20.574476 0.000000 0.000000 -1.572114
  1   -1.093036 0.000002 -0.326057 -1.570757 -1.570379 -0.000171
  2   2.262337 0.113614 0.064702 -0.000052 0.000061 -0.051442
  3   2.380047 0.353302 0.047440 -0.147370 0.053975 0.348608
  4   2.033756 0.190472 -0.000128 0.159002 -0.029266 0.180485
  5   2.451511 0.204909 -0.003447 0.027918 -0.003151 0.113166
  6   7.247600 -0.397300 -0.109469 -0.000143 -0.183080 -0.122015
  7   -2.022252 -0.104661 3.136172 1.515617 -1.335573 -4.488136
  8   1.168026 -0.537438 -0.063437 -0.944353 0.602429 -0.265567
  9   6.790376 -0.619176 0.015206 -0.000213 -0.000151 -1.204613
 10   8.637599 0.544015 -0.090417 -1.656328 -0.275639 -0.099522
 11   6.790465 -0.619039 0.017802 0.001118 -0.011651 -0.858462
 12   -2.022474 -0.104699 -2.873818 -0.880608 0.982689 -3.894245
 13   1.167898 -0.537463 0.063297 1.069525 -0.791689 -0.559735
 14   7.002743 -0.617765 -0.183752 0.000229 0.000250 -0.722831
 15   8.209042 0.615527 -0.255885 2.835869 -0.000063 -0.069646
 16   7.002735 -0.617911 -0.183641 0.014439 0.004041 -0.524598
 17   1.574674 0.609930 -0.000899 0.015801 0.140708 0.485919
 18   -0.602177 0.511412 -0.000006 0.000000 0.000000 0.000000
 19   3.673773 0.177020 1.119313 -0.000002 -0.000014 -0.174510
 20   3.673767 0.176993 -1.117566 0.000007 -0.000003 -0.174546
 21   3.942357 1.330634 1.627658 0.000002 -0.000011 -0.000026
 22   -0.246060 -0.011889 0.516521 -0.000011 0.000031 0.000025
 23   3.942374 1.330659 -1.631083 0.000019 0.000002 -0.000024
 24   -0.246150 -0.011872 -0.516511 -0.000005 -0.000006 0.000048
 25   4.941364 1.997338 1.629330 0.000018 -0.000001 -0.000024
 26   4.941382 1.997366 -1.629410 -0.000001 0.000005 -0.000024
 27   2.918368 1.615358 1.514501 -0.000019 -0.000022 -0.000050
 28   2.920798 1.614964 -1.501142 -0.000002 -0.000009 -0.000024
 29   8.824059 0.150544 0.091743 0.000006 -0.000231 -0.174534
 30   2.111085 -0.561179 1.784320 -0.000008 -0.000682 0.000024
 31   2.121290 -0.561289 -1.853599 0.000000 0.000000 -0.000002
 32   -0.810489 -0.093824 3.127092 3.071872 -0.114782 1.239365
 33   14.298673 -0.408176 0.475484 0.000248 0.000062 -1.896136
 34   15.835795 0.581398 0.242756 -0.214729 0.106889 -0.097869
 35   -0.815868 -0.091229 -3.114430 0.066464 3.132725 -1.010185
 36   14.294526 -0.410349 -0.463635 0.000033 -0.000000 -2.607695
 37   15.834409 0.579420 -0.284600 -0.006092 -0.035255 0.214458
 38   1.139685 -3.453749 -2.823813 0.000000 0.000000 0.000001
 39   -4.457742 -1.054854 -0.746180 0.000000 0.000000 0.000000
 40   1.118101 -3.449769 3.237290 0.000000 0.000001 0.000000
 41   -4.433840 -1.059130 0.959566 -0.000001 0.000000 0.000000
 42   -0.657468 1.697302 -2.688614 0.000000 0.000002 0.000000
 43   -0.664068 1.698578 2.869377 0.000000 0.000002 0.000000
time 7
  0   -0.967547 0.175787 -20.574476 0.000000 0.000000 -1.572114
  1   -1.093036 0.000002 -0.326057 -1.570757 -1.570379 -0.000171
  2   2.262337 0.113614 0.064702 -0.000052 0.000061 -0.051442
  3   2.380047 0.353302 0.047440 -0.146620 0.056096 0.362035
  4   2.033756 0.190472 -0.000128 0.078168 -0.014333 0.182370
  5   2.451511 0.204909 -0.003447 -0.005546 0.000465 0.113166
  6   7.247600 -0.397300 -0.109469 -0.000143 -0.183080 -0.122015
  7   -2.022252 -0.104661 3.136172 1.515617 -1.335573 -4.488042
  8   1.168026 -0.537438 -0.063437 -0.959667 0.558153 -0.433903
  9   6.790376 -0.619176 0.015206 -0.000213 -0.000151 -1.115335
 10   8.637599 0.544015 -0.090417 -1.656328 -0.275639 -0.099522
 11   6.790465 -0.619039 0.017802 0.000797 -0.011651 -0.795827
 12   -2.022474 -0.104699 -2.873818 -0.760274 1.050286 -3.774760
 13   1.167898 -0.537463 0.063297 0.831790 -0.959860 -0.481645
 14   7.002743 -0.617765 -0.183752 0.000229 0.000250 -1.013415
 15   8.209042 0.615527 -0.255885 2.592190 -0.000063 -0.069646
 16   7.002735 -0.617911 -0.183641 0.014203 0.005620 -0.727928
 17   1.574674 0.609930 -0.000899 0.107034 0.076239 0.461857
 18   -0.602177 0.511412 -0.000006 0.000000 0.000000 0.000000
 19   3.673773 0.177020 1.119313 -0.000002 -0.000014 -0.174510
 20   3.673767 0.176993 -1.117566 0.000007 -0.000003 -0.174546
 21   3.942357 1.330634 1.627658 0.000002 -0.000011 -0.000026
 22   -0.246060 -0.011889 0.516521 -0.000011 0.000031 0.000025
 23   3.942374 1.330659 -1.631083 0.000019 0.000002 -0.000024
 24   -0.246150 -0.011872 -0.516511 -0.000005 -0.000006 0.000048
 25   4.941364 1.997338 1.629330 0.000018 -0.000001 -0.000024
 26   4.941382 1.997366 -1.629410 -0.000001 0.000005 -0.000024
 27   2.918368 1.615358 1.514501 -0.000019 -0.000022 -0.000050
 28   2.920798 1.614964 -1.501142 -0.000002 -0.000009 -0.000024
 29   8.824059 0.150544 0.091743 0.000006 -0.000231 -0.174534
 30   2.111085 -0.561179 1.784320 -0.000008 -0.000682 0.000024
 31   2.121290 -0.561289 -1.853599 0.000000 0.000000 -0.000002
 32   -0.810489 -0.093824 3.127092 3.071872 -0.114782 1.239365
 33   14.298673 -0.408176 0.475484 0.000248 0.000062 -1.896136
 34   15.835795 0.581398 0.242756 -0.214729 0.106889 -0.097869
 35   -0.815868 -0.091229 -3.114430 0.066464 3.132725 -1.010185
 36   14.294526 -0.410349 -0.463635 0.000033 -0.000000 -2.607695
 37   15.834409 0.579420 -0.284600 -0.006092 -0.035255 0.214458
 38   1.139685 -3.453749 -2.823813 0.000000 0.000000 0.000001
 39   -4.457742 -1.054854 -0.746180 0.000000 0.000000 0.000000
 40   1.118101 -3.449769 3.237290 0.000000 0.000001 0.000000
 41   -4.433840 -1.059130 0.959566 -0.000001 0.000000 0.000000
 42   -0.657468 1.697302 -2.688614 0.000000 0.000002 0.000000
 43   -0.664068 1.698578 2.869377 0.000000 0.000002 0.000000
time 8
  0   -0.967547 0.175787 -20.574476 0.000000 0.000000 -1.572114
  1   -1.093036 0.000002 -0.326057 -1.570757 -1.570379 -0.000171
  2   2.262337 0.113614 0.064702 -0.000052 0.000061 -0.051442
  3   2.380047 0.353302 0.047440 -0.147115 0.054754 0.353281
  4   2.033756 0.190472 -0.000128 0.006353 -0.001091 0.182370
  5   2.451511 0.204909 -0.003447 -0.035432 0.004042 0.113166
  6   7.247600 -0.397300 -0.109469 -0.000143 -0.183080 -0.122015
  7   -2.022252 -0.104661 3.136172 1.525682 -1.335746 -4.498560
  8   1.168026 -0.537438 -0.063437 -0.942771 0.526153 -0.524998
  9   6.790376 -0.619176 0.015206 -0.000213 -0.000151 -1.168615
 10   8.637599 0.544015 -0.090417 -1.656328 -0.275639 -0.099739
 11   6.790465 -0.619039 0.017802 0.000972 -0.011651 -0.833142
 12   -2.022474 -0.104699 -2.873818 -0.628922 1.101948 -3.644648
 13   1.167898 -0.537463 0.063297 0.525237 -1.054955 -0.319291
 14   7.002743 -0.617765 -0.183752 0.000229 0.000250 -1.252598
 15   8.209042 0.615527 -0.255885 2.379070 -0.000063 -0.069646
 16   7.002735 -0.617911 -0.183641 0.013968 0.006917 -0.895493
 17   1.574674 0.609930 -0.000899 0.193189 0.019936 0.456313
 18   -0.602177 0.511412 -0.000006 0.000000 0.000000 0.000000
 19   3.673773 0.177020 1.119313 -0.000002 -0.000014 -0.174510
 20   3.673767 0.176993 -1.117566 0.000007 -0.000003 -0.174546
 21   3.942357 1.330634 1.627658 0.000002 -0.000011 -0.000026
 22   -0.246060 -0.011889 0.516521 -0.000011 0.000031 0.000025
 23   3.942374 1.330659 -1.631083 0.000019 0.000002 -0.000024
 24   -0.246150 -0.011872 -0.516511 -0.000005 -0.000006 0.000048
 25   4.941364 1.997338 1.629330 0.000018 -0.000001 -0.000024
 26   4.941382 1.997366 -1.629410 -0.000001 0.000005 -0.000024
 27   2.918368 1.615358 1.514501 -0.000019 -0.000022 -0.000050
 28   2.920798 1.614964 -1.501142 -0.000002 -0.000009 -0.000024
 29   8.824059 0.150544 0.091743 0.000006 -0.000231 -0.174534
 30   2.111085 -0.561179 1.784320 -0.000008 -0.000682 0.000024
 31   2.121290 -0.561289 -1.853599 0.000000 0.000000 -0.000002
 32   -0.810489 -0.093824 3.127092 3.071872 -0.114782 1.239365
 33   14.298673 -0.408176 0.475484 0.000248 0.000062 -1.896136
 34   15.835795 0.581398 0.242756 -0.214729 0.106889 -0.097869
 35   -0.815868 -0.091229 -3.114430 0.066464 3.132725 -1.010185
 36   14.294526 -0.410349 -0.463635 0.000033 -0.000000 -2.607695
 37   15.834409 0.579420 -0.284600 -0.006092 -0.035255 0.214458
 38   1.139685 -3.453749 -2.823813 0.000000 0.000000 0.000001
 39   -4.457742 -1.054854 -0.746180 0.000000 0.000000 0.000000
 40   1.118101 -3.449769 3.237290 0.000000 0.000001 0.000000
 41   -4.433840 -1.059130 0.959566 -0.000001 0.000000 0.000000
 42   -0.657468 1.697302 -2.688614 0.000000 0.000002 0.000000
 43   -0.664068 1.698578 2.869377 0.000000 0.000002 0.000000
time 9
  0   -0.967547 0.175787 -20.574476 0.000000 0.000000 -1.572114
  1   -1.093036 0.000002 -0.326057 -1.570757 -1.570379 -0.000171
  2   2.262337 0.113614 0.064702 -0.000052 0.000061 -0.051442
  3   2.380047 0.353302 0.047440 -0.148210 0.051602 0.331794
  4   2.033756 0.190472 -0.000128 -0.073836 0.013435 0.180884
  5   2.451511 0.204909 -0.003447 -0.068930 0.007881 0.112943
  6   7.247600 -0.397300 -0.109469 -0.000143 -0.183080 -0.122015
  7   -2.022252 -0.104661 3.136172 1.545237 -1.335919 -4.518658
  8   1.168026 -0.537438 -0.063437 -0.911194 0.502052 -0.596925
  9   6.790376 -0.619176 0.015206 -0.000213 -0.000151 -1.303551
 10   8.637599 0.544015 -0.090417 -1.656328 -0.274372 -0.099739
 11   6.790465 -0.619039 0.017802 0.001556 -0.011708 -0.927671
 12   -2.022474 -0.104699 -2.873818 -0.479847 1.146268 -3.496345
 13   1.167898 -0.537463 0.063297 0.248630 -1.074381 -0.212447
 14   7.002743 -0.617765 -0.183752 0.000229 0.000250 -1.452261
 15   8.209042 0.615527 -0.255885 2.173931 -0.000063 -0.069646
 16   7.002735 -0.617911 -0.183641 0.013733 0.007988 -1.035186
 17   1.574674 0.609930 -0.000899 0.290475 -0.044935 0.455906
 18   -0.602177 0.511412 -0.000006 0.000000 0.000000 0.000000
 19   3.673773 0.177020 1.119313 -0.000002 -0.000014 -0.174510
 20   3.673767 0.176993 -1.117566 0.000007 -0.000003 -0.174546
 21   3.942357 1.330634 1.627658 0.000002 -0.000011 -0.000026
 22   -0.246060 -0.011889 0.516521 -0.000011 0.000031 0.000025
 23   3.942374 1.330659 -1.631083 0.000019 0.000002 -0.000024
 24   -0.246150 -0.011872 -0.516511 -0.000005 -0.000006 0.000048
 25   4.941364 1.997338 1.629330 0.000018 -0.000001 -0.000024
 26   4.941382 1.997366 -1.629410 -0.000001 0.000005 -0.000024
 27   2.918368 1.615358 1.514501 -0.000019 -0.000022 -0.000050
 28   2.920798 1.614964 -1.501142 -0.000002 -0.000009 -0.000024
 29   8.824059 0.150544 0.091743 0.000006 -0.000231 -0.174534
 30   2.111085 -0.561179 1.784320 -0.000008 -0.000682 0.000024
 31   2.121290 -0.561289 -1.853599 0.000000 0.000000 -0.000002
 32   -0.810489 -0.093824 3.127092 3.071872 -0.114782 1.239365
 33   14.298673 -0.408176 0.475484 0.000248 0.000062 -1.896136
 34   15.835795 0.581398 0.242756 -0.214729 0.106889 -0.097869
 35   -0.815868 -0.091229 -3.114430 0.066464 3.132725 -1.010185
 36   14.294526 -0.410349 -0.463635 0.000033 -0.000000 -2.607695
 37   15.834409 0.579420 -0.284600 -0.006092 -0.035255 0.214458
 38   1.139685 -3.453749 -2.823813 0.000000 0.000000 0.000001
 39   -4.457742 -1.054854 -0.746180 0.000000 0.000000 0.000000
 40   1.118101 -3.449769 3.237290 0.000000 0.000001 0.000000
 41   -4.433840 -1.059130 0.959566 -0.000001 0.000000 0.000000
 42   -0.657468 1.697302 -2.688614 0.000000 0.000002 0.000000
 43   -0.664068 1.698578 2.869377 0.000000 0.000002 0.000000
time 10
  0   -0.967547 0.175787 -20.574476 0.000000 0.000000 -1.572114
  1   -1.093036 0.000002 -0.326057 -1.570757 -1.570379 -0.000171
  2   2.262337 0.113614 0.064702 -0.000052 0.000061 -0.051442
  3   2.380047 0.353302 0.047440 -0.149470 0.047467 0.304206
  4   2.033756 0.190472 -0.000128 -0.154485 0.028092 0.178383
  5   2.451511 0.204909 -0.003447 -0.102376 0.011693 0.112621
  6   7.247600 -0.397300 -0.109469 -0.000143 -0.183080 -0.122015
  7   -2.022252 -0.104661 3.136172 1.560191 -1.335919 -4.533590
  8   1.168026 -0.537438 -0.063437 -0.873289 0.482128 -0.662273
  9   6.790376 -0.619176 0.015206 -0.000213 -0.000151 -1.480749
 10   8.637599 0.544015 -0.090417 -1.656328 -0.273879 -0.099739
 11   6.790465 -0.619039 0.017802 0.002286 -0.011793 -1.051673
 12   -2.022474 -0.104699 -2.873818 -0.278173 1.184550 -3.296150
 13   1.167898 -0.537463 0.063297 0.035428 -1.060244 -0.187325
 14   7.002743 -0.617765 -0.183752 0.000286 0.000250 -1.654317
 15   8.209042 0.615527 -0.255885 1.943123 -0.000063 -0.069646
 16   7.002735 -0.617911 -0.183641 0.013497 0.009116 -1.176590
 17   1.574674 0.609930 -0.000899 0.387151 -0.113877 0.453800
 18   -0.602177 0.511412 -0.000006 0.000000 0.000000 0.000000
 19   3.673773 0.177020 1.119313 -0.000002 -0.000014 -0.174510
 20   3.673767 0.176993 -1.117566 0.000007 -0.000003 -0.174546
 21   3.942357 1.330634 1.627658 0.000002 -0.000011 -0.000026
 22   -0.246060 -0.011889 0.516521 -0.000011 0.000031 0.000025
 23   3.942374 1.330659 -1.631083 0.000019 0.000002 -0.000024
 24   -0.246150 -0.011872 -0.516511 -0.000005 -0.000006 0.000048
 25   4.941364 1.997338 1.629330 0.000018 -0.000001 -0.000024
 26   4.941382 1.997366 -1.629410 -0.000001 0.000005 -0.000024
 27   2.918368 1.615358 1.514501 -0.000019 -0.000022 -0.000050
 28   2.920798 1.614964 -1.501142 -0.000002 -0.000009 -0.000024
 29   8.824059 0.150544 0.091743 0.000006 -0.000231 -0.174534
 30   2.111085 -0.561179 1.784320 -0.000008 -0.000682 0.000024
 31   2.121290 -0.561289 -1.853599 0.000000 0.000000 -0.000002
 32   -0.810489 -0.093824 3.127092 3.071872 -0.114782 1.239365
 33   14.298673 -0.408176 0.475484 0.000248 0.000062 -1.896136
 34   15.835795 0.581398 0.242756 -0.214729 0.106889 -0.097869
 35   -0.815868 -0.091229 -3.114430 0.066464 3.132725 -1.010185
 36   14.294526 -0.410349 -0.463635 0.000033 -0.000000 -2.607695
 37   15.834409 0.579420 -0.284600 -0.006092 -0.035255 0.214458
 38   1.139685 -3.453749 -2.823813 0.000000 0.000000 0.000001
 39   -4.457742 -1.054854 -0.746180 0.000000 0.000000 0.000000
 40   1.118101 -3.449769 3.237290 0.000000 0.000001 0.000000
 41   -4.433840 -1.059130 0.959566 -0.000001 0.000000 0.000000
 42   -0.657468 1.697302 -2.688614 0.000000 0.000002 0.000000
 43   -0.664068 1.698578 2.869377 0.000000 0.000002 0.000000
time 11
  0   -0.967547 0.175787 -20.574476 0.000000 0.000000 -1.572114
  1   -1.093036 0.000002 -0.326057 -1.570757 -1.570379 -0.000171
  2   2.262337 0.113614 0.064702 -0.000052 0.000061 -0.051442
  3   2.380047 0.353302 0.047440 -0.150685 0.043284 0.277495
  4   2.033756 0.190472 -0.000128 -0.226946 0.041311 0.175990
  5   2.451511 0.204909 -0.003447 -0.132553 0.015126 0.112200
  6   7.247600 -0.397300 -0.109469 -0.000143 -0.183080 -0.122015
  7   -2.022252 -0.104661 3.136172 1.555014 -1.335919 -4.528988
  8   1.168026 -0.537438 -0.063437 -0.833676 0.460090 -0.728633
  9   6.790376 -0.619176 0.015206 -0.000213 -0.000352 -1.661644
 10   8.637599 0.544015 -0.090417 -1.656328 -0.274161 -0.099739
 11   6.790465 -0.619039 0.017802 0.003103 -0.011850 -1.178327
 12   -2.022474 -0.104699 -2.873818 -0.060787 1.199672 -3.078818
 13   1.167898 -0.537463 0.063297 -0.111979 -1.032020 -0.216987
 14   7.002743 -0.617765 -0.183752 0.000286 0.000250 -1.834261
 15   8.209042 0.615527 -0.255885 1.727558 -0.000063 -0.069646
 16   7.002735 -0.617911 -0.183641 0.013215 0.010244 -1.302595
 17   1.574674 0.609930 -0.000899 0.473346 -0.177967 0.446186
 18   -0.602177 0.511412 -0.000006 0.000000 0.000000 0.000000
 19   3.673773 0.177020 1.119313 -0.000002 -0.000014 -0.174510
 20   3.673767 0.176993 -1.117566 0.000007 -0.000003 -0.174546
 21   3.942357 1.330634 1.627658 0.000002 -0.000011 -0.000026
 22   -0.246060 -0.011889 0.516521 -0.000011 0.000031 0.000025
 23   3.942374 1.330659 -1.631083 0.000019 0.000002 -0.000024
 24   -0.246150 -0.011872 -0.516511 -0.000005 -0.000006 0.000048
 25   4.941364 1.997338 1.629330 0.000018 -0.000001 -0.000024
 26   4.941382 1.997366 -1.629410 -0.000001 0.000005 -0.000024
 27   2.918368 1.615358 1.514501 -0.000019 -0.000022 -0.000050
 28   2.920798 1.614964 -1.501142 -0.000002 -0.000009 -0.000024
 29   8.824059 0.150544 0.091743 0.000006 -0.000231 -0.174534
 30   2.111085 -0.561179 1.784320 -0.000008 -0.000682 0.000024
 31   2.121290 -0.561289 -1.853599 0.000000 0.000000 -0.000002
 32   -0.810489 -0.093824 3.127092 3.071872 -0.114782 1.239365
 33   14.298673 -0.408176 0.475484 0.000248 0.000062 -1.896136
 34   15.835795 0.581398 0.242756 -0.214729 0.106889 -0.097869
 35   -0.815868 -0.091229 -3.114430 0.066464 3.132725 -1.010185
 36   14.294526 -0.410349 -0.463635 0.000033 -0.000000 -2.607695
 37   15.834409 0.579420 -0.284600 -0.006092 -0.035255 0.214458
 38   1.139685 -3.453749 -2.823813 0.000000 0.000000 0.000001
 39   -4.457742 -1.054854 -0.746180 0.000000 0.000000 0.000000
 40   1.118101 -3.449769 3.237290 0.000000 0.000001 0.000000
 41   -4.433840 -1.059130 0.959566 -0.000001 0.000000 0.000000
 42   -0.657468 1.697302 -2.688614 0.000000 0.000002 0.000000
 43   -0.664068 1.698578 2.869377 0.000000 0.000002 0.000000
time 12
  0   -0.967547 0.175787 -20.574476 0.000000 0.000000 -1.572114
  1   -1.093036 0.000002 -0.326057 -1.570757 -1.570379 -0.000171
  2   2.262337 0.113614 0.064702 -0.000052 0.000061 -0.051442
  3   2.380047 0.353302 0.047440 -0.151495 0.040528 0.258477
  4   2.033756 0.190472 -0.000128 -0.283122 0.051797 0.175483
  5   2.451511 0.204909 -0.003447 -0.155849 0.017633 0.111779
  6   7.247600 -0.397300 -0.109469 -0.000143 -0.183080 -0.122015
  7   -2.022252 -0.104661 3.136172 1.515617 -1.335573 -4.488042
  8   1.168026 -0.537438 -0.063437 -0.790835 0.428442 -0.799738
  9   6.790376 -0.619176 0.015206 -0.000213 -0.000352 -1.807372
 10   8.637599 0.544015 -0.090417 -1.656328 -0.275639 -0.099522
 11   6.790465 -0.619039 0.017802 0.003775 -0.011907 -1.280527
 12   -2.022474 -0.104699 -2.873818 0.101798 1.187308 -2.916824
 13   1.167898 -0.537463 0.063297 -0.217983 -0.994796 -0.245741
 14   7.002743 -0.617765 -0.183752 0.000286 0.000250 -1.967755
 15   8.209042 0.615527 -0.255885 1.570090 -0.000063 -0.069646
 16   7.002735 -0.617911 -0.183641 0.012932 0.011033 -1.396147
 17   1.574674 0.609930 -0.000899 0.540085 -0.227360 0.432362
 18   -0.602177 0.511412 -0.000006 0.000000 0.000000 0.000000
 19   3.673773 0.177020 1.119313 -0.000002 -0.000014 -0.174510
 20   3.673767 0.176993 -1.117566 0.000007 -0.000003 -0.174546
 21   3.942357 1.330634 1.627658 0.000002 -0.000011 -0.000026
 22   -0.246060 -0.011889 0.516521 -0.000011 0.000031 0.000025
 23   3.942374 1.330659 -1.631083 0.000019 0.000002 -0.000024
 24   -0.246150 -0.011872 -0.516511 -0.000005 -0.000006 0.000048
 25   4.941364 1.997338 1.629330 0.000018 -0.000001 -0.000024
 26   4.941382 1.997366 -1.629410 -0.000001 0.000005 -0.000024
 27   2.918368 1.615358 1.514501 -0.000019 -0.000022 -0.000050
 28   2.920798 1.614964 -1.501142 -0.000002 -0.000009 -0.000024
 29   8.824059 0.150544 0.091743 0.000006 -0.000231 -0.174534
 30   2.111085 -0.561179 1.784320 -0.000008 -0.000682 0.000024
 31   2.121290 -0.561289 -1.853599 0.000000 0.000000 -0.000002
 32   -0.810489 -0.093824 3.127092 3.071872 -0.114782 1.239365
 33   14.298673 -0.408176 0.475484 0.000248 0.000062 -1.896136
 34   15.835795 0.581398 0.242756 -0.214729 0.106889 -0.097869
 35   -0.815868 -0.091229 -3.114430 0.066464 3.132725 -1.010185
 36   14.294526 -0.410349 -0.463635 0.000033 -0.000000 -2.607695
 37   15.834409 0.579420 -0.284600 -0.006092 -0.035255 0.214458
 38   1.139685 -3.453749 -2.823813 0.000000 0.000000 0.000001
 39   -4.457742 -1.054854 -0.746180 0.000000 0.000000 0.000000
 40   1.118101 -3.449769 3.237290 0.000000 0.000001 0.000000
 41   -4.433840 -1.059130 0.959566 -0.000001 0.000000 0.000000
 42   -0.657468 1.697302 -2.688614 0.000000 0.000002 0.000000
 43   -0.664068 1.698578 2.869377 0.000000 0.000002 0.000000
end
