version 1
nodes
  0 "Bip01" -1
  1 "Bip01 Pelvis" 0
  2 "Bip01 Spine" 1
  3 "Bip01 Spine1" 2
  4 "Bip01 Spine2" 3
  5 "Bip01 Spine3" 4
  6 "Bip01 Neck" 5
  7 "Bip01 L Arm" 6
  8 "Bip01 L Arm1" 7
  9 "Bip01 L Arm2" 8
 10 "Bip01 L Hand" 9
 11 "Bip06 L elbow2-smooth" 8
 12 "Bip01 R Arm" 6
 13 "Bip01 R Arm1" 12
 14 "Bip01 R Arm2" 13
 15 "Bip01 R Hand" 14
 16 "Bip06 R elbow2-smooth" 13
 17 "Bip01 Head" 6
 18 "Bip06 Head_helper" 17
 19 "Bip06 Head_eyes_l" 18
 20 "Bip06 Head_eyes_r" 18
 21 "Bip06 Head_blink_l" 18
 22 "Bip06 Head_blink_smooth_l1" 21
 23 "Bip06 Head_blink_r" 18
 24 "Bip06 Head_blink_smooth_r1" 23
 25 "Bip06 Head_L_eyebrow" 18
 26 "Bip06 Head_R_eyebrow" 18
 27 "Bip06 Head_blink_l_lid" 18
 28 "Bip06 Head_blink_r_lid" 18
 29 "Bip06 bunny" 18
 30 "Bip06 bunnyL" 29
 31 "Bip06 bunnyR" 29
 32 "Bip01 L Leg" 1
 33 "Bip01 L Leg1" 32
 34 "Bip01 L Foot" 33
 35 "Bip01 R Leg" 1
 36 "Bip01 R Leg1" 35
 37 "Bip01 R Foot" 36
 38 "Bip03 HairR1" 17
 39 "Bip03 HairR2" 38
 40 "Bip03 HairL1" 17
 41 "Bip03 HairL2" 40
 42 "Bip03 swingR" 17
 43 "Bip03 swingL" 17
end
skeleton
time 0
  0   -0.967547 0.175787 -20.574476 0.000000 0.000000 -1.572114
  1   -1.093036 0.000002 -0.326057 -1.570809 -1.570703 0.000022
  2   2.262337 0.113614 0.064702 -0.000014 0.000037 0.133477
  3   2.380047 0.353302 0.047440 0.000000 -0.000028 0.176467
  4   2.033756 0.190472 -0.000128 -0.166768 0.050995 0.256749
  5   2.451511 0.204909 -0.003447 -0.151313 -0.005828 0.289941
  6   7.247600 -0.397300 -0.109469 -0.005236 -0.005252 0.494432
  7   -2.022252 -0.104661 3.136172 1.238875 -1.024594 -4.799459
  8   1.168026 -0.537438 -0.063437 -1.055347 0.370832 -1.121607
  9   6.790376 -0.619176 0.015206 0.057985 -0.114945 -0.504879
 10   8.637599 0.544015 -0.090417 -3.988461 0.202805 -0.503999
 11   6.790465 -0.619039 0.017802 0.033672 -0.094397 -0.367591
 12   -2.022474 -0.104699 -2.873818 -1.163622 1.764361 -4.903069
 13   1.167898 -0.537463 0.063297 0.415719 -0.779535 -0.944373
 14   7.002743 -0.617765 -0.183752 0.374732 -0.307807 -1.793751
 15   8.209042 0.615527 -0.255885 2.185076 0.436265 0.543574
 16   7.002735 -0.617911 -0.183641 0.220861 -0.283426 -1.252756
 17   1.574674 0.609930 -0.000899 0.254770 0.315535 -0.043807
 18   -0.602177 0.511412 -0.000006 0.000000 0.000000 0.000000
 19   3.646428 0.364526 1.119313 -0.000002 -0.000014 -0.174510
 20   3.646422 0.364499 -1.117566 0.000007 -0.000003 -0.174546
 21   3.805634 1.330634 1.627658 0.000002 -0.000011 -0.000026
 22   -0.246060 -0.011889 0.516521 -0.000011 0.000031 0.000025
 23   3.805651 1.330659 -1.631083 0.000019 0.000002 -0.000024
 24   -0.246150 -0.011872 -0.516511 -0.000005 -0.000006 0.000048
 25   4.941364 1.997338 1.629330 0.000018 -0.000001 -0.000024
 26   4.941382 1.997366 -1.629410 -0.000001 0.000005 -0.000024
 27   2.930087 1.603639 1.514501 -0.000019 -0.000022 -0.000050
 28   2.932517 1.603245 -1.501142 -0.000002 -0.000009 -0.000024
 29   8.824059 0.150544 0.091743 0.000006 -0.000231 -0.174534
 30   2.111085 -0.561179 1.784320 -0.000008 -0.000682 0.000024
 31   2.121290 -0.561289 -1.853599 0.000000 0.000000 -0.000002
 32   -0.810489 -0.093824 3.127092 3.071872 -0.114782 1.239365
 33   14.298673 -0.408176 0.475484 0.000248 0.000062 -1.896136
 34   15.835795 0.581398 0.242756 -0.214729 0.106889 -0.097869
 35   -0.815868 -0.091229 -3.114430 0.066464 3.132725 -1.010185
 36   14.294526 -0.410349 -0.463635 0.000033 -0.000000 -2.607695
 37   15.834409 0.579420 -0.284600 -0.006092 -0.035255 0.214458
 38   1.139685 -3.453749 -2.823813 0.000000 0.000000 0.000001
 39   -4.457742 -1.054854 -0.746180 0.000000 0.000000 0.000000
 40   1.118101 -3.449769 3.237290 0.000000 0.000001 0.000000
 41   -4.433840 -1.059130 0.959566 -0.000001 0.000000 0.000000
 42   -0.657468 1.697302 -2.688614 0.000000 0.000002 0.000000
 43   -0.664068 1.698578 2.869377 0.000000 0.000002 0.000000
time 1
  0   -0.967547 0.175787 -20.574476 0.000000 0.000000 -1.572114
  1   -1.093036 0.000002 -0.326057 -1.570809 -1.570703 0.000022
  2   2.262337 0.113614 0.064702 -0.000014 0.000037 0.133477
  3   2.380047 0.353302 0.047440 -0.000060 0.001662 0.182099
  4   2.033756 0.190472 -0.000128 -0.165569 0.048993 0.242177
  5   2.451511 0.204909 -0.003447 -0.151399 -0.008896 0.272779
  6   7.247600 -0.397300 -0.109469 -0.005236 -0.005252 0.494432
  7   -2.022252 -0.104661 3.136172 1.238875 -1.024594 -4.799459
  8   1.168026 -0.537438 -0.063437 -1.053955 0.391612 -1.131033
  9   6.790376 -0.619176 0.015206 0.058096 -0.111808 -0.482012
 10   8.637599 0.544015 -0.090417 -3.988461 0.202805 -0.503999
 11   6.790465 -0.619039 0.017802 0.034110 -0.092038 -0.351730
 12   -2.022474 -0.104699 -2.873818 -1.167262 1.765638 -4.907186
 13   1.167898 -0.537463 0.063297 0.389078 -0.790621 -0.927181
 14   7.002743 -0.617765 -0.183752 0.375016 -0.307863 -1.785913
 15   8.209042 0.615527 -0.255885 2.187592 0.437325 0.544055
 16   7.002735 -0.617911 -0.183641 0.221332 -0.283144 -1.247292
 17   1.574674 0.609930 -0.000899 0.252048 0.314683 -0.017490
 18   -0.602177 0.511412 -0.000006 0.000000 0.000000 0.000000
 19   3.646428 0.364526 1.119313 -0.000002 -0.000014 -0.174510
 20   3.646422 0.364499 -1.117566 0.000007 -0.000003 -0.174546
 21   3.805634 1.330634 1.627658 0.000002 -0.000011 -0.000026
 22   -0.246060 -0.011889 0.516521 -0.000011 0.000031 0.000025
 23   3.805651 1.330659 -1.631083 0.000019 0.000002 -0.000024
 24   -0.246150 -0.011872 -0.516511 -0.000005 -0.000006 0.000048
 25   4.941364 1.997338 1.629330 0.000018 -0.000001 -0.000024
 26   4.941382 1.997366 -1.629410 -0.000001 0.000005 -0.000024
 27   2.930087 1.603639 1.514501 -0.000019 -0.000022 -0.000050
 28   2.932517 1.603245 -1.501142 -0.000002 -0.000009 -0.000024
 29   8.824059 0.150544 0.091743 0.000897 -0.000468 -0.171583
 30   2.111085 -0.561179 1.784320 -0.000022 0.001236 0.000153
 31   2.121290 -0.561289 -1.853599 0.000000 -0.002538 0.000107
 32   -0.810489 -0.093824 3.127092 3.071872 -0.114782 1.239365
 33   14.298673 -0.408176 0.475484 0.000248 0.000062 -1.896136
 34   15.835795 0.581398 0.242756 -0.214729 0.106889 -0.097869
 35   -0.815868 -0.091229 -3.114430 0.066464 3.132725 -1.010185
 36   14.294526 -0.410349 -0.463635 0.000033 -0.000000 -2.607695
 37   15.834409 0.579420 -0.284600 -0.006092 -0.035255 0.214458
 38   1.139685 -3.453749 -2.823813 0.000063 -0.000060 0.000123
 39   -4.457742 -1.054854 -0.746180 0.000132 0.000288 -0.001178
 40   1.118101 -3.449769 3.237290 -0.000021 -0.000071 0.000367
 41   -4.433840 -1.059130 0.959566 0.000011 0.000024 -0.000084
 42   -0.657468 1.697302 -2.688614 0.000863 0.001336 -0.000084
 43   -0.664068 1.698578 2.869377 -0.001000 -0.001504 0.000251
time 2
  0   -0.967547 0.175787 -20.574476 0.000000 0.000000 -1.572114
  1   -1.093036 0.000002 -0.326057 -1.570809 -1.570703 0.000022
  2   2.262337 0.113614 0.064702 -0.000014 0.000037 0.133477
  3   2.380047 0.353302 0.047440 -0.000180 0.003435 0.188180
  4   2.033756 0.190472 -0.000128 -0.164278 0.046956 0.226700
  5   2.451511 0.204909 -0.003447 -0.151313 -0.012081 0.255047
  6   7.247600 -0.397300 -0.109469 -0.005236 -0.005252 0.494432
  7   -2.022252 -0.104661 3.136172 1.238875 -1.024594 -4.799459
  8   1.168026 -0.537438 -0.063437 -1.053259 0.415461 -1.141850
  9   6.790376 -0.619176 0.015206 0.058429 -0.109005 -0.461636
 10   8.637599 0.544015 -0.090417 -3.988461 0.202805 -0.503999
 11   6.790465 -0.619039 0.017802 0.034548 -0.089906 -0.337542
 12   -2.022474 -0.104699 -2.873818 -1.163622 1.764361 -4.903069
 13   1.167898 -0.537463 0.063297 0.355336 -0.802521 -0.900667
 14   7.002743 -0.617765 -0.183752 0.375244 -0.307863 -1.782118
 15   8.209042 0.615527 -0.255885 2.194279 0.439367 0.545198
 16   7.002735 -0.617911 -0.183641 0.221520 -0.282975 -1.244698
 17   1.574674 0.609930 -0.000899 0.249286 0.313760 0.010082
 18   -0.602177 0.511412 -0.000006 0.000000 0.000000 0.000000
 19   3.646428 0.364526 1.119313 -0.000002 -0.000014 -0.174510
 20   3.646422 0.364499 -1.117566 0.000007 -0.000003 -0.174546
 21   3.805634 1.330634 1.627658 0.000002 -0.000011 -0.000026
 22   -0.246060 -0.011889 0.516521 -0.000011 0.000031 0.000025
 23   3.805651 1.330659 -1.631083 0.000019 0.000002 -0.000024
 24   -0.246150 -0.011872 -0.516511 -0.000005 -0.000006 0.000048
 25   4.941364 1.997338 1.629330 0.000018 -0.000001 -0.000024
 26   4.941382 1.997366 -1.629410 -0.000001 0.000005 -0.000024
 27   2.930087 1.603639 1.514501 -0.000019 -0.000022 -0.000050
 28   2.932517 1.603245 -1.501142 -0.000002 -0.000009 -0.000024
 29   8.824059 0.150544 0.091743 0.003838 -0.001323 -0.163053
 30   2.111085 -0.561179 1.784320 -0.000103 0.006728 0.000496
 31   2.121290 -0.561289 -1.853599 0.000000 -0.009765 0.000544
 32   -0.810489 -0.093824 3.127092 3.071872 -0.114782 1.239365
 33   14.298673 -0.408176 0.475484 0.000248 0.000062 -1.896136
 34   15.835795 0.581398 0.242756 -0.214729 0.106889 -0.097869
 35   -0.815868 -0.091229 -3.114430 0.066464 3.132725 -1.010185
 36   14.294526 -0.410349 -0.463635 0.000033 -0.000000 -2.607695
 37   15.834409 0.579420 -0.284600 -0.006092 -0.035255 0.214458
 38   1.139685 -3.453749 -2.823813 0.000400 -0.000277 0.000795
 39   -4.457742 -1.047041 -0.746180 0.000491 0.001127 -0.004459
 40   1.118101 -3.449769 3.237290 -0.000168 -0.000336 0.001405
 41   -4.433840 -1.051317 0.959566 0.000047 0.000108 -0.000449
 42   -0.657468 1.697302 -2.680801 0.003308 0.005169 -0.000418
 43   -0.664068 1.698578 2.861564 -0.003886 -0.005851 0.001004
time 3
  0   -0.967547 0.175787 -20.574476 0.000000 0.000000 -1.572114
  1   -1.093036 0.000002 -0.326057 -1.570809 -1.570703 0.000022
  2   2.262337 0.113614 0.064702 -0.000014 0.000037 0.133477
  3   2.380047 0.353302 0.047440 -0.000315 0.005233 0.194220
  4   2.033756 0.190472 -0.000128 -0.162987 0.044894 0.211730
  5   2.451511 0.204909 -0.003447 -0.151279 -0.015241 0.237612
  6   7.247600 -0.397300 -0.109469 -0.002935 -0.001921 0.536276
  7   -2.022252 -0.104661 3.136172 1.231590 -1.022691 -4.835428
  8   1.168026 -0.537438 -0.063437 -1.053069 0.441524 -1.150011
  9   6.790376 -0.619176 0.015206 0.058540 -0.107269 -0.449184
 10   8.637599 0.544015 -0.090417 -3.988461 0.202805 -0.503999
 11   6.790465 -0.619039 0.017802 0.034781 -0.088627 -0.328718
 12   -2.022474 -0.104699 -2.873818 -1.132676 1.755422 -4.913887
 13   1.167898 -0.537463 0.063297 0.314636 -0.811522 -0.859624
 14   7.002743 -0.617765 -0.183752 0.375073 -0.307863 -1.783933
 15   8.209042 0.615527 -0.255885 2.203699 0.442621 0.546822
 16   7.002735 -0.617911 -0.183641 0.221426 -0.283088 -1.246023
 17   1.574674 0.609930 -0.000899 0.244574 0.312269 -0.013942
 18   -0.602177 0.511412 -0.000006 0.000000 0.000000 0.000000
 19   3.646428 0.364526 1.119313 -0.000002 -0.000014 -0.174510
 20   3.646422 0.364499 -1.117566 0.000007 -0.000003 -0.174546
 21   3.805634 1.330634 1.627658 0.000002 -0.000011 -0.000026
 22   -0.246060 -0.011889 0.516521 -0.000011 0.000031 0.000025
 23   3.805651 1.330659 -1.631083 0.000019 0.000002 -0.000024
 24   -0.246150 -0.011872 -0.516511 -0.000005 -0.000006 0.000048
 25   4.941364 1.997338 1.629330 0.000018 -0.000001 -0.000024
 26   4.941382 1.997366 -1.629410 -0.000001 0.000005 -0.000024
 27   2.930087 1.603639 1.514501 -0.000019 -0.000022 -0.000050
 28   2.932517 1.603245 -1.501142 -0.000002 -0.000009 -0.000024
 29   8.824059 0.150544 0.091743 0.008472 -0.002629 -0.149802
 30   2.111085 -0.561179 1.776507 -0.000225 0.015185 0.001075
 31   2.129103 -0.561289 -1.845786 0.000031 -0.020902 0.001163
 32   -0.810489 -0.093824 3.127092 3.071872 -0.114782 1.239365
 33   14.298673 -0.408176 0.475484 0.000248 0.000062 -1.896136
 34   15.835795 0.581398 0.242756 -0.214729 0.106889 -0.097869
 35   -0.815868 -0.091229 -3.114430 0.066464 3.132725 -1.010185
 36   14.294526 -0.410349 -0.463635 0.000033 -0.000000 -2.607695
 37   15.834409 0.579420 -0.284600 -0.006092 -0.035255 0.214458
 38   1.139685 -3.453749 -2.823813 0.000842 -0.000627 0.001895
 39   -4.457742 -1.027509 -0.746180 0.001091 0.002409 -0.009648
 40   1.118101 -3.449769 3.237290 -0.000400 -0.000746 0.003116
 41   -4.426027 -1.043504 0.959566 0.000107 0.000228 -0.000954
 42   -0.649655 1.697302 -2.661269 0.007095 0.011057 -0.001046
 43   -0.664068 1.698578 2.849845 -0.008309 -0.012520 0.002133
time 4
  0   -0.967547 0.175787 -20.574476 0.000000 0.000000 -1.572114
  1   -1.093036 0.000002 -0.326057 -1.570809 -1.570703 0.000022
  2   2.262337 0.113614 0.064702 -0.000014 0.000037 0.133477
  3   2.380047 0.353302 0.047440 -0.000420 0.006995 0.199852
  4   2.033756 0.190472 -0.000128 -0.161770 0.043229 0.198826
  5   2.451511 0.204909 -0.003447 -0.151142 -0.018087 0.221366
  6   7.247600 -0.397300 -0.109469 -0.000466 0.001255 0.578215
  7   -2.022252 -0.104661 3.136172 1.224209 -1.020846 -4.871021
  8   1.168026 -0.537438 -0.063437 -1.053069 0.465876 -1.155831
  9   6.790376 -0.619176 0.015206 0.058540 -0.106469 -0.443373
 10   8.637599 0.544015 -0.090417 -3.988461 0.202805 -0.503999
 11   6.790465 -0.619039 0.017802 0.034869 -0.088030 -0.324680
 12   -2.022474 -0.104699 -2.873818 -1.095024 1.745235 -4.917525
 13   1.167898 -0.537463 0.063297 0.275060 -0.818438 -0.817855
 14   7.002743 -0.617765 -0.183752 0.374959 -0.307863 -1.788553
 15   8.209042 0.615527 -0.255885 2.214556 0.446177 0.548686
 16   7.002735 -0.617911 -0.183641 0.221190 -0.283144 -1.249224
 17   1.574674 0.609930 -0.000899 0.240106 0.310920 -0.041146
 18   -0.602177 0.511412 -0.000006 0.000000 0.000000 0.000000
 19   3.646428 0.364526 1.119313 -0.000002 -0.000014 -0.174510
 20   3.646422 0.364499 -1.117566 0.000007 -0.000003 -0.174546
 21   3.805634 1.330634 1.627658 0.000002 -0.000011 -0.000026
 22   -0.246060 -0.011889 0.516521 -0.000011 0.000031 0.000025
 23   3.805651 1.330659 -1.631083 0.000019 0.000002 -0.000024
 24   -0.246150 -0.011872 -0.516511 -0.000005 -0.000006 0.000048
 25   4.941364 1.997338 1.629330 0.000018 -0.000001 -0.000024
 26   4.941382 1.997366 -1.629410 -0.000001 0.000005 -0.000024
 27   2.930087 1.603639 1.514501 -0.000019 -0.000022 -0.000050
 28   2.932517 1.603245 -1.501142 -0.000002 -0.000009 -0.000024
 29   8.824059 0.150544 0.091743 0.014265 -0.004409 -0.132849
 30   2.118898 -0.561179 1.764788 -0.000361 0.026111 0.001804
 31   2.133009 -0.561289 -1.837973 0.000046 -0.035330 0.001945
 32   -0.810489 -0.093824 3.127092 3.071872 -0.114782 1.239365
 33   14.298673 -0.408176 0.475484 0.000248 0.000062 -1.896136
 34   15.835795 0.581398 0.242756 -0.214729 0.106889 -0.097869
 35   -0.815868 -0.091229 -3.114430 0.066464 3.132725 -1.010185
 36   14.294526 -0.410349 -0.463635 0.000033 -0.000000 -2.607695
 37   15.834409 0.579420 -0.284600 -0.006092 -0.035255 0.214458
 38   1.147498 -3.453749 -2.823813 0.001410 -0.001073 0.003239
 39   -4.457742 -1.011884 -0.738367 0.001846 0.004075 -0.016267
 40   1.110288 -3.449769 3.237290 -0.000674 -0.001276 0.005254
 41   -4.410401 -1.031785 0.967379 0.000191 0.000384 -0.001599
 42   -0.649655 1.697302 -2.641737 0.011973 0.018631 -0.001756
 43   -0.664068 1.698578 2.830313 -0.014031 -0.021134 0.003638
time 5
  0   -0.967547 0.175787 -20.574476 0.000000 0.000000 -1.572114
  1   -1.093036 0.000002 -0.326057 -1.570809 -1.570703 0.000022
  2   2.262337 0.113614 0.064702 -0.000014 0.000037 0.133477
  3   2.380047 0.353302 0.047440 -0.000525 0.008373 0.204729
  4   2.033756 0.190472 -0.000128 -0.160977 0.041994 0.189728
  5   2.451511 0.204909 -0.003447 -0.150971 -0.020398 0.207324
  6   7.247600 -0.397300 -0.109469 0.001978 0.004467 0.620154
  7   -2.022252 -0.104661 3.136172 1.216828 -1.019146 -4.906614
  8   1.168026 -0.537438 -0.063437 -1.052879 0.489574 -1.158045
  9   6.790376 -0.619176 0.015206 0.058540 -0.107203 -0.448580
 10   8.637599 0.544015 -0.090417 -3.988461 0.202805 -0.503999
 11   6.790465 -0.619039 0.017802 0.034781 -0.088570 -0.328487
 12   -2.022474 -0.104699 -2.873818 -1.052006 1.734728 -4.916090
 13   1.167898 -0.537463 0.063297 0.237523 -0.822862 -0.776631
 14   7.002743 -0.617765 -0.183752 0.374675 -0.307807 -1.797216
 15   8.209042 0.615527 -0.255885 2.225341 0.449733 0.550490
 16   7.002735 -0.617911 -0.183641 0.220673 -0.283539 -1.255240
 17   1.574674 0.609930 -0.000899 0.236409 0.309642 -0.073634
 18   -0.602177 0.511412 -0.000006 0.000000 0.000000 0.000000
 19   3.646428 0.364526 1.119313 -0.000002 -0.000014 -0.174510
 20   3.646422 0.364499 -1.117566 0.000007 -0.000003 -0.174546
 21   3.805634 1.330634 1.627658 0.000002 -0.000011 -0.000026
 22   -0.246060 -0.011889 0.516521 -0.000011 0.000031 0.000025
 23   3.805651 1.330659 -1.631083 0.000019 0.000002 -0.000024
 24   -0.246150 -0.011872 -0.516511 -0.000005 -0.000006 0.000048
 25   4.941364 1.997338 1.629330 0.000018 -0.000001 -0.000024
 26   4.941382 1.997366 -1.629410 -0.000001 0.000005 -0.000024
 27   2.930087 1.603639 1.514501 -0.000019 -0.000022 -0.000050
 28   2.932517 1.603245 -1.501142 -0.000002 -0.000009 -0.000024
 29   8.824059 0.150544 0.091743 0.021038 -0.006617 -0.112785
 30   2.122804 -0.561179 1.753069 -0.000537 0.038927 0.002640
 31   2.140822 -0.561289 -1.834067 0.000092 -0.052191 0.002891
 32   -0.810489 -0.093824 3.127092 3.071872 -0.114782 1.239365
 33   14.298673 -0.408176 0.475484 0.000248 0.000062 -1.896136
 34   15.835795 0.581398 0.242756 -0.214729 0.106889 -0.097869
 35   -0.815868 -0.091229 -3.114430 0.066464 3.132725 -1.010185
 36   14.294526 -0.410349 -0.463635 0.000033 -0.000000 -2.607695
 37   15.834409 0.579420 -0.284600 -0.006092 -0.035255 0.214458
 38   1.147498 -3.453749 -2.823813 0.002126 -0.001579 0.004766
 39   -4.457742 -0.992352 -0.734461 0.002721 0.006016 -0.024035
 40   1.110288 -3.449769 3.237290 -0.000989 -0.001903 0.007820
 41   -4.402589 -1.020066 0.967379 0.000287 0.000575 -0.002384
 42   -0.637936 1.697302 -2.618299 0.017689 0.027570 -0.002635
 43   -0.664068 1.690765 2.806875 -0.020753 -0.031240 0.005395
time 6
  0   -0.967547 0.175787 -20.574476 0.000000 0.000000 -1.572114
  1   -1.093036 0.000002 -0.326057 -1.570809 -1.570703 0.000022
  2   2.262337 0.113614 0.064702 -0.000014 0.000037 0.133477
  3   2.380047 0.353302 0.047440 -0.000585 0.009536 0.208320
  4   2.033756 0.190472 -0.000128 -0.160479 0.041335 0.184436
  5   2.451511 0.204909 -0.003447 -0.150714 -0.022186 0.193851
  6   7.247600 -0.397300 -0.109469 0.004759 0.007523 0.662093
  7   -2.022252 -0.104661 3.136172 1.209446 -1.017618 -4.941926
  8   1.168026 -0.537438 -0.063437 -1.052879 0.510354 -1.159437
  9   6.790376 -0.619176 0.015206 0.058429 -0.108004 -0.454995
 10   8.637599 0.544015 -0.090417 -3.988461 0.202805 -0.503999
 11   6.790465 -0.619039 0.017802 0.034694 -0.089224 -0.332813
 12   -2.022474 -0.104699 -2.873818 -1.006690 1.724947 -4.912355
 13   1.167898 -0.537463 0.063297 0.205329 -0.825862 -0.740855
 14   7.002743 -0.617765 -0.183752 0.374333 -0.307693 -1.803734
 15   8.209042 0.615527 -0.255885 2.234761 0.452910 0.552234
 16   7.002735 -0.617911 -0.183641 0.220296 -0.283708 -1.259766
 17   1.574674 0.609930 -0.000899 0.233403 0.308293 -0.109154
 18   -0.602177 0.511412 -0.000006 0.000000 0.000000 0.000000
 19   3.646428 0.364526 1.119313 -0.000002 -0.000014 -0.174510
 20   3.646422 0.364499 -1.117566 0.000007 -0.000003 -0.174546
 21   3.805634 1.330634 1.627658 0.000002 -0.000011 -0.000026
 22   -0.246060 -0.011889 0.516521 -0.000011 0.000031 0.000025
 23   3.805651 1.330659 -1.631083 0.000019 0.000002 -0.000024
 24   -0.246150 -0.011872 -0.516511 -0.000005 -0.000006 0.000048
 25   4.941364 1.997338 1.629330 0.000018 -0.000001 -0.000024
 26   4.941382 1.997366 -1.629410 -0.000001 0.000005 -0.000024
 27   2.930087 1.603639 1.514501 -0.000019 -0.000022 -0.000050
 28   2.932517 1.603245 -1.501142 -0.000002 -0.000009 -0.000024
 29   8.824059 0.150544 0.091743 0.028525 -0.009228 -0.090682
 30   2.130617 -0.561179 1.741350 -0.000727 0.053079 0.003583
 31   2.152541 -0.561289 -1.822348 0.000138 -0.070866 0.003965
 32   -0.810489 -0.093824 3.127092 3.071872 -0.114782 1.239365
 33   14.298673 -0.408176 0.475484 0.000248 0.000062 -1.896136
 34   15.835795 0.581398 0.242756 -0.214729 0.106889 -0.097869
 35   -0.815868 -0.091229 -3.114430 0.066464 3.132725 -1.010185
 36   14.294526 -0.410349 -0.463635 0.000033 -0.000000 -2.607695
 37   15.834409 0.579420 -0.284600 -0.006092 -0.035255 0.214458
 38   1.155311 -3.453749 -2.823813 0.002884 -0.002145 0.006538
 39   -4.457742 -0.961101 -0.726648 0.003691 0.008162 -0.032645
 40   1.106382 -3.449769 3.237290 -0.001347 -0.002602 0.010692
 41   -4.386963 -1.000534 0.979098 0.000383 0.000791 -0.003225
 42   -0.637936 1.697302 -2.594861 0.024017 0.037413 -0.003597
 43   -0.664068 1.690765 2.787343 -0.028187 -0.042428 0.007319
time 7
  0   -0.967547 0.175787 -20.574476 0.000000 0.000000 -1.572114
  1   -1.093036 0.000002 -0.326057 -1.570809 -1.570703 0.000022
  2   2.262337 0.113614 0.064702 -0.000014 0.000037 0.133477
  3   2.380047 0.353302 0.047440 -0.000645 0.010291 0.210830
  4   2.033756 0.190472 -0.000128 -0.160276 0.040951 0.181790
  5   2.451511 0.204909 -0.003447 -0.150389 -0.023544 0.181444
  6   7.247600 -0.397300 -0.109469 0.007551 0.010496 0.704063
  7   -2.022252 -0.104661 3.136172 1.201970 -1.016148 -4.977143
  8   1.168026 -0.537438 -0.063437 -1.052626 0.526958 -1.159247
  9   6.790376 -0.619176 0.015206 0.058429 -0.109071 -0.462089
 10   8.637599 0.544015 -0.090417 -3.988461 0.202805 -0.503999
 11   6.790465 -0.619039 0.017802 0.034548 -0.090020 -0.337830
 12   -2.022474 -0.104699 -2.873818 -0.963481 1.716298 -4.910345
 13   1.167898 -0.537463 0.063297 0.178898 -0.827032 -0.710648
 14   7.002743 -0.617765 -0.183752 0.374049 -0.307523 -1.810582
 15   8.209042 0.615527 -0.255885 2.241232 0.455105 0.553437
 16   7.002735 -0.617911 -0.183641 0.219872 -0.283877 -1.264567
 17   1.574674 0.609930 -0.000899 0.230844 0.306873 -0.147445
 18   -0.602177 0.511412 -0.000006 0.000000 0.000000 0.000000
 19   3.646428 0.364526 1.119313 -0.000002 -0.000014 -0.174510
 20   3.646422 0.364499 -1.117566 0.000007 -0.000003 -0.174546
 21   3.805634 1.330634 1.627658 0.000002 -0.000011 -0.000026
 22   -0.246060 -0.011889 0.516521 -0.000011 0.000031 0.000025
 23   3.805651 1.330659 -1.631083 0.000019 0.000002 -0.000024
 24   -0.246150 -0.011872 -0.516511 -0.000005 -0.000006 0.000048
 25   4.941364 1.997338 1.629330 0.000018 -0.000001 -0.000024
 26   4.941382 1.997366 -1.629410 -0.000001 0.000005 -0.000024
 27   2.930087 1.603639 1.514501 -0.000019 -0.000022 -0.000050
 28   2.932517 1.603245 -1.501142 -0.000002 -0.000009 -0.000024
 29   8.824059 0.150544 0.091743 0.036367 -0.012124 -0.067345
 30   2.138430 -0.561179 1.721818 -0.000944 0.068074 0.004570
 31   2.160354 -0.561289 -1.814535 0.000184 -0.090655 0.005075
 32   -0.810489 -0.093824 3.127092 3.071872 -0.114782 1.239365
 33   14.298673 -0.408176 0.475484 0.000248 0.000062 -1.896136
 34   15.835795 0.581398 0.242756 -0.214729 0.106889 -0.097869
 35   -0.815868 -0.091229 -3.114430 0.066464 3.132725 -1.010185
 36   14.294526 -0.410349 -0.463635 0.000033 -0.000000 -2.607695
 37   15.834409 0.579420 -0.284600 -0.006092 -0.035255 0.214458
 38   1.159217 -3.461562 -2.823813 0.003684 -0.002748 0.008371
 39   -4.465555 -0.937663 -0.718835 0.004734 0.010463 -0.041760
 40   1.098569 -3.441956 3.237290 -0.001726 -0.003325 0.013624
 41   -4.371338 -0.988815 0.979098 0.000490 0.001019 -0.004151
 42   -0.626217 1.697302 -2.563610 0.030717 0.047854 -0.004558
 43   -0.664068 1.686859 2.763905 -0.036033 -0.054275 0.009284
time 8
  0   -0.967547 0.175787 -20.574476 0.000000 0.000000 -1.572114
  1   -1.093036 0.000002 -0.326057 -1.570809 -1.570703 0.000022
  2   2.262337 0.113614 0.064702 -0.000014 0.000037 0.133477
  3   2.380047 0.353302 0.047440 -0.000675 0.010674 0.212340
  4   2.033756 0.190472 -0.000128 -0.160276 0.040951 0.181790
  5   2.451511 0.204909 -0.003447 -0.150132 -0.024027 0.174163
  6   7.247600 -0.397300 -0.109469 0.007551 0.010496 0.704063
  7   -2.022252 -0.104661 3.136172 1.201970 -1.016148 -4.977143
  8   1.168026 -0.537438 -0.063437 -1.052183 0.536216 -1.157792
  9   6.790376 -0.619176 0.015206 0.058207 -0.110006 -0.469183
 10   8.637599 0.544015 -0.090417 -3.988461 0.202805 -0.503999
 11   6.790465 -0.619039 0.017802 0.034402 -0.090759 -0.342733
 12   -2.022474 -0.104699 -2.873818 -0.941062 1.712496 -4.887558
 13   1.167898 -0.537463 0.063297 0.167862 -0.827388 -0.698299
 14   7.002743 -0.617765 -0.183752 0.373935 -0.307523 -1.813800
 15   8.209042 0.615527 -0.255885 2.243892 0.456013 0.553918
 16   7.002735 -0.617911 -0.183641 0.219684 -0.284046 -1.266775
 17   1.574674 0.609930 -0.000899 0.230844 0.303536 -0.132513
 18   -0.602177 0.511412 -0.000006 0.000000 0.000000 0.000000
 19   3.646428 0.364526 1.119313 -0.000002 -0.000014 -0.174510
 20   3.646422 0.364499 -1.117566 0.000007 -0.000003 -0.174546
 21   3.805634 1.330634 1.627658 0.000002 -0.000011 -0.000026
 22   -0.246060 -0.011889 0.516521 -0.000011 0.000031 0.000025
 23   3.805651 1.330659 -1.631083 0.000019 0.000002 -0.000024
 24   -0.246150 -0.011872 -0.516511 -0.000005 -0.000006 0.000048
 25   4.941364 1.997338 1.629330 0.000018 -0.000001 -0.000024
 26   4.941382 1.997366 -1.629410 -0.000001 0.000005 -0.000024
 27   2.930087 1.603639 1.514501 -0.000019 -0.000022 -0.000050
 28   2.932517 1.603245 -1.501142 -0.000002 -0.000009 -0.000024
 29   8.824059 0.150544 0.091743 0.044210 -0.015305 -0.043579
 30   2.142336 -0.561179 1.710099 -0.001161 0.083331 0.005578
 31   2.172073 -0.561289 -1.802816 0.000215 -0.110755 0.006203
 32   -0.810489 -0.093824 3.127092 3.071872 -0.114782 1.239365
 33   14.298673 -0.408176 0.475484 0.000248 0.000062 -1.896136
 34   15.835795 0.581398 0.242756 -0.214729 0.106889 -0.097869
 35   -0.815868 -0.091229 -3.114430 0.066464 3.132725 -1.010185
 36   14.294526 -0.410349 -0.463635 0.000033 -0.000000 -2.607695
 37   15.834409 0.579420 -0.284600 -0.006092 -0.035255 0.214458
 38   1.159217 -3.461562 -2.823813 0.004505 -0.003350 0.010326
 39   -4.465555 -0.910318 -0.714929 0.005789 0.012776 -0.051015
 40   1.098569 -3.441956 3.237290 -0.002126 -0.004048 0.016740
 41   -4.355712 -0.965377 0.990817 0.000610 0.001234 -0.005048
 42   -0.618404 1.697302 -2.536265 0.037548 0.058464 -0.005646
 43   -0.664068 1.679046 2.736560 -0.044042 -0.066310 0.011417
time 9
  0   -0.967547 0.175787 -20.574476 0.000000 0.000000 -1.572114
  1   -1.093036 0.000002 -0.326057 -1.570809 -1.570703 0.000022
  2   2.262337 0.113614 0.064702 -0.000014 0.000037 0.133477
  3   2.380047 0.353302 0.047440 -0.000675 0.010746 0.212585
  4   2.033756 0.190472 -0.000128 -0.160479 0.041335 0.184436
  5   2.451511 0.204909 -0.003447 -0.150132 -0.023348 0.176342
  6   7.247600 -0.397300 -0.109469 0.007551 0.010496 0.704063
  7   -2.022252 -0.104661 3.136172 1.201970 -1.016148 -4.977143
  8   1.168026 -0.537438 -0.063437 -1.050854 0.533499 -1.153427
  9   6.790376 -0.619176 0.015206 0.058096 -0.111341 -0.478390
 10   8.637599 0.544015 -0.090417 -3.988461 0.202805 -0.503999
 11   6.790465 -0.619039 0.017802 0.034168 -0.091640 -0.349250
 12   -2.022474 -0.104699 -2.873818 -0.926499 1.710261 -4.872719
 13   1.167898 -0.537463 0.063297 0.173485 -0.824540 -0.699873
 14   7.002743 -0.617765 -0.183752 0.373821 -0.307523 -1.816770
 15   8.209042 0.615527 -0.255885 2.242670 0.455559 0.553557
 16   7.002735 -0.617911 -0.183641 0.219543 -0.284159 -1.268928
 17   1.574674 0.609930 -0.000899 0.231616 0.300341 -0.128411
 18   -0.602177 0.511412 -0.000006 0.000000 0.000000 0.000000
 19   3.646428 0.364526 1.119313 -0.000002 -0.000014 -0.174510
 20   3.646422 0.364499 -1.117566 0.000007 -0.000003 -0.174546
 21   3.805634 1.330634 1.627658 0.000002 -0.000011 -0.000026
 22   -0.246060 -0.011889 0.516521 -0.000011 0.000031 0.000025
 23   3.805651 1.330659 -1.631083 0.000019 0.000002 -0.000024
 24   -0.246150 -0.011872 -0.516511 -0.000005 -0.000006 0.000048
 25   4.941364 1.997338 1.629330 0.000018 -0.000001 -0.000024
 26   4.941382 1.997366 -1.629410 -0.000001 0.000005 -0.000024
 27   2.930087 1.603639 1.514501 -0.000019 -0.000022 -0.000050
 28   2.932517 1.603245 -1.501142 -0.000002 -0.000009 -0.000024
 29   8.824059 0.150544 0.091743 0.051963 -0.018628 -0.020242
 30   2.150149 -0.561179 1.698380 -0.001378 0.098326 0.006607
 31   2.183792 -0.561289 -1.791097 0.000245 -0.130491 0.007313
 32   -0.810489 -0.093824 3.127092 3.071872 -0.114782 1.239365
 33   14.298673 -0.408176 0.475484 0.000248 0.000062 -1.896136
 34   15.835795 0.581398 0.242756 -0.214729 0.106889 -0.097869
 35   -0.815868 -0.091229 -3.114430 0.066464 3.132725 -1.010185
 36   14.294526 -0.410349 -0.463635 0.000033 -0.000000 -2.607695
 37   15.834409 0.579420 -0.284600 -0.006092 -0.035255 0.214458
 38   1.167030 -3.461562 -2.823813 0.005304 -0.003965 0.012159
 39   -4.465555 -0.886880 -0.707116 0.006807 0.015065 -0.060130
 40   1.090756 -3.441956 3.237290 -0.002526 -0.004771 0.019734
 41   -4.343993 -0.953658 0.990817 0.000718 0.001450 -0.005974
 42   -0.614498 1.689489 -2.508921 0.044223 0.068921 -0.006650
 43   -0.664068 1.679046 2.713122 -0.051888 -0.078126 0.013466
time 10
  0   -0.967547 0.175787 -20.574476 0.000000 0.000000 -1.572114
  1   -1.093036 0.000002 -0.326057 -1.570809 -1.570703 0.000022
  2   2.262337 0.113614 0.064702 -0.000014 0.000037 0.133477
  3   2.380047 0.353302 0.047440 -0.000645 0.010423 0.211340
  4   2.033756 0.190472 -0.000128 -0.160977 0.041994 0.189728
  5   2.451511 0.204909 -0.003447 -0.150389 -0.021299 0.189047
  6   7.247600 -0.397300 -0.109469 0.007551 0.010496 0.704063
  7   -2.022252 -0.104661 3.136172 1.201970 -1.016148 -4.977143
  8   1.168026 -0.537438 -0.063437 -1.048576 0.520065 -1.145266
  9   6.790376 -0.619176 0.015206 0.058096 -0.113410 -0.493634
 10   8.637599 0.544015 -0.090417 -3.988461 0.202805 -0.503999
 11   6.790465 -0.619039 0.017802 0.033876 -0.093260 -0.359804
 12   -2.022474 -0.104699 -2.873818 -0.917014 1.708810 -4.863049
 13   1.167898 -0.537463 0.063297 0.194011 -0.817827 -0.712888
 14   7.002743 -0.617765 -0.183752 0.373650 -0.307523 -1.821143
 15   8.209042 0.615527 -0.255885 2.239578 0.454575 0.553076
 16   7.002735 -0.617911 -0.183641 0.219260 -0.284272 -1.271908
 17   1.574674 0.609930 -0.000899 0.233403 0.297359 -0.136209
 18   -0.602177 0.511412 -0.000006 0.000000 0.000000 0.000000
 19   3.646428 0.364526 1.119313 -0.000002 -0.000014 -0.174510
 20   3.646422 0.364499 -1.117566 0.000007 -0.000003 -0.174546
 21   3.805634 1.330634 1.627658 0.000002 -0.000011 -0.000026
 22   -0.246060 -0.011889 0.516521 -0.000011 0.000031 0.000025
 23   3.805651 1.330659 -1.631083 0.000019 0.000002 -0.000024
 24   -0.246150 -0.011872 -0.516511 -0.000005 -0.000006 0.000048
 25   4.941364 1.997338 1.629330 0.000018 -0.000001 -0.000024
 26   4.941382 1.997366 -1.629410 -0.000001 0.000005 -0.000024
 27   2.930087 1.603639 1.514501 -0.000019 -0.000022 -0.000050
 28   2.932517 1.603245 -1.501142 -0.000002 -0.000009 -0.000024
 29   8.824059 0.150544 0.091743 0.059093 -0.021928 0.001754
 30   2.154055 -0.553366 1.682754 -0.001554 0.112507 0.007529
 31   2.191605 -0.561289 -1.783284 0.000276 -0.149166 0.008350
 32   -0.810489 -0.093824 3.127092 3.071872 -0.114782 1.239365
 33   14.298673 -0.408176 0.475484 0.000248 0.000062 -1.896136
 34   15.835795 0.581398 0.242756 -0.214729 0.106889 -0.097869
 35   -0.815868 -0.091229 -3.114430 0.066464 3.132725 -1.010185
 36   14.294526 -0.410349 -0.463635 0.000033 -0.000000 -2.607695
 37   15.834409 0.579420 -0.284600 -0.006092 -0.035255 0.214458
 38   1.170936 -3.465468 -2.823813 0.006062 -0.004519 0.013931
 39   -4.473368 -0.855629 -0.707116 0.007790 0.017222 -0.068740
 40   1.086850 -3.438050 3.237290 -0.002884 -0.005470 0.022544
 41   -4.332274 -0.934126 1.002536 0.000838 0.001678 -0.006815
 42   -0.606685 1.689489 -2.481576 0.050575 0.078764 -0.007611
 43   -0.664068 1.679046 2.689684 -0.059322 -0.089314 0.015390
time 11
  0   -0.967547 0.175787 -20.574476 0.000000 0.000000 -1.572114
  1   -1.093036 0.000002 -0.326057 -1.570809 -1.570703 0.000022
  2   2.262337 0.113614 0.064702 -0.000014 0.000037 0.133477
  3   2.380047 0.353302 0.047440 -0.000585 0.009536 0.208320
  4   2.033756 0.190472 -0.000128 -0.161899 0.043336 0.199986
  5   2.451511 0.204909 -0.003447 -0.150714 -0.018270 0.208587
  6   7.247600 -0.397300 -0.109469 0.007551 0.010496 0.704063
  7   -2.022252 -0.104661 3.136172 1.201970 -1.016148 -4.977143
  8   1.168026 -0.537438 -0.063437 -1.046298 0.498027 -1.133437
  9   6.790376 -0.619176 0.015206 0.057874 -0.116279 -0.516350
 10   8.637599 0.544015 -0.090417 -3.988461 0.202805 -0.503999
 11   6.790465 -0.619039 0.017802 0.033409 -0.095449 -0.375550
 12   -2.022474 -0.104699 -2.873818 -0.912990 1.708171 -4.859027
 13   1.167898 -0.537463 0.063297 0.226276 -0.808216 -0.735891
 14   7.002743 -0.617765 -0.183752 0.373308 -0.307523 -1.827083
 15   8.209042 0.615527 -0.255885 2.234761 0.452910 0.552234
 16   7.002735 -0.617911 -0.183641 0.218931 -0.284441 -1.275937
 17   1.574674 0.609930 -0.000899 0.236328 0.294803 -0.154098
 18   -0.602177 0.511412 -0.000006 0.000000 0.000000 0.000000
 19   3.646428 0.364526 1.119313 -0.000002 -0.000014 -0.174510
 20   3.646422 0.364499 -1.117566 0.000007 -0.000003 -0.174546
 21   3.805634 1.330634 1.627658 0.000002 -0.000011 -0.000026
 22   -0.246060 -0.011889 0.516521 -0.000011 0.000031 0.000025
 23   3.805651 1.330659 -1.631083 0.000019 0.000002 -0.000024
 24   -0.246150 -0.011872 -0.516511 -0.000005 -0.000006 0.000048
 25   4.941364 1.997338 1.629330 0.000018 -0.000001 -0.000024
 26   4.941382 1.997366 -1.629410 -0.000001 0.000005 -0.000024
 27   2.930087 1.603639 1.514501 -0.000019 -0.000022 -0.000050
 28   2.932517 1.603245 -1.501142 -0.000002 -0.000009 -0.000024
 29   8.824059 0.150544 0.091743 0.065599 -0.024990 0.021550
 30   2.161868 -0.553366 1.671035 -0.001744 0.125323 0.008387
 31   2.195511 -0.561289 -1.771565 0.000322 -0.166080 0.009296
 32   -0.810489 -0.093824 3.127092 3.071872 -0.114782 1.239365
 33   14.298673 -0.408176 0.475484 0.000248 0.000062 -1.896136
 34   15.835795 0.581398 0.242756 -0.214729 0.106889 -0.097869
 35   -0.815868 -0.091229 -3.114430 0.066464 3.132725 -1.010185
 36   14.294526 -0.410349 -0.463635 0.000033 -0.000000 -2.607695
 37   15.834409 0.579420 -0.284600 -0.006092 -0.035255 0.214458
 38   1.178749 -3.465468 -2.823813 0.006778 -0.005037 0.015519
 39   -4.473368 -0.836097 -0.695397 0.008677 0.019151 -0.076509
 40   1.079037 -3.438050 3.237290 -0.003221 -0.006097 0.025110
 41   -4.316648 -0.922407 1.002536 0.000934 0.001870 -0.007628
 42   -0.594966 1.689489 -2.458138 0.056304 0.087703 -0.008490
 43   -0.664068 1.671233 2.670152 -0.066044 -0.099435 0.017147
time 12
  0   -0.967547 0.175787 -20.574476 0.000000 0.000000 -1.572114
  1   -1.093036 0.000002 -0.326057 -1.570809 -1.570703 0.000022
  2   2.262337 0.113614 0.064702 -0.000014 0.000037 0.133477
  3   2.380047 0.353302 0.047440 -0.000420 0.006695 0.199097
  4   2.033756 0.190472 -0.000128 -0.163264 0.045386 0.214847
  5   2.451511 0.204909 -0.003447 -0.150988 -0.014693 0.231594
  6   7.247600 -0.397300 -0.109469 0.007551 0.010496 0.704063
  7   -2.022252 -0.104661 3.136172 1.201970 -1.016148 -4.977143
  8   1.168026 -0.537438 -0.063437 -1.046108 0.470606 -1.124580
  9   6.790376 -0.619176 0.015206 0.057763 -0.117948 -0.528651
 10   8.637599 0.544015 -0.090417 -3.988461 0.202805 -0.503999
 11   6.790465 -0.619039 0.017802 0.033146 -0.096728 -0.384086
 12   -2.022474 -0.104699 -2.873818 -0.915481 1.708548 -4.861613
 13   1.167898 -0.537463 0.063297 0.264165 -0.797893 -0.764282
 14   7.002743 -0.617765 -0.183752 0.373308 -0.307352 -1.828981
 15   8.209042 0.615527 -0.255885 2.228649 0.450868 0.551212
 16   7.002735 -0.617911 -0.183641 0.218837 -0.284554 -1.277372
 17   1.574674 0.609930 -0.000899 0.240106 0.292578 -0.173947
 18   -0.602177 0.511412 -0.000006 0.000000 0.000000 0.000000
 19   3.646428 0.364526 1.119313 -0.000002 -0.000014 -0.174510
 20   3.646422 0.364499 -1.117566 0.000007 -0.000003 -0.174546
 21   3.805634 1.330634 1.627658 0.000002 -0.000011 -0.000026
 22   -0.246060 -0.011889 0.516521 -0.000011 0.000031 0.000025
 23   3.805651 1.330659 -1.631083 0.000019 0.000002 -0.000024
 24   -0.246150 -0.011872 -0.516511 -0.000005 -0.000006 0.000048
 25   4.941364 1.997338 1.629330 0.000018 -0.000001 -0.000024
 26   4.941382 1.997366 -1.629410 -0.000001 0.000005 -0.000024
 27   2.930087 1.603639 1.514501 -0.000019 -0.000022 -0.000050
 28   2.932517 1.603245 -1.501142 -0.000002 -0.000009 -0.000024
 29   8.824059 0.150544 0.091743 0.070946 -0.027743 0.038503
 30   2.165774 -0.553366 1.659316 -0.001893 0.136221 0.009116
 31   2.207230 -0.561289 -1.763752 0.000337 -0.180429 0.010078
 32   -0.810489 -0.093824 3.127092 3.071872 -0.114782 1.239365
 33   14.298673 -0.408176 0.475484 0.000248 0.000062 -1.896136
 34   15.835795 0.581398 0.242756 -0.214729 0.106889 -0.097869
 35   -0.815868 -0.091229 -3.114430 0.066464 3.132725 -1.010185
 36   14.294526 -0.410349 -0.463635 0.000033 -0.000000 -2.607695
 37   15.834409 0.579420 -0.284600 -0.006092 -0.035255 0.214458
 38   1.178749 -3.465468 -2.823813 0.007346 -0.005471 0.016802
 39   -4.473368 -0.820472 -0.695397 0.009432 0.020817 -0.083156
 40   1.079037 -3.438050 3.237290 -0.003473 -0.006627 0.027248
 41   -4.308836 -0.910688 1.010349 0.001018 0.002013 -0.008273
 42   -0.594966 1.689489 -2.438606 0.061157 0.095277 -0.009201
 43   -0.664068 1.667327 2.650620 -0.071766 -0.108033 0.018610
time 13
  0   -0.967547 0.175787 -20.574476 0.000000 0.000000 -1.572114
  1   -1.093036 0.000002 -0.326057 -1.570809 -1.570703 0.000022
  2   2.262337 0.113614 0.064702 -0.000014 0.000037 0.133477
  3   2.380047 0.353302 0.047440 -0.000135 0.002645 0.185364
  4   2.033756 0.190472 -0.000128 -0.164647 0.047603 0.231448
  5   2.451511 0.204909 -0.003447 -0.151159 -0.011128 0.254997
  6   7.247600 -0.397300 -0.109469 0.004759 0.007523 0.662093
  7   -2.022252 -0.104661 3.136172 1.209446 -1.017618 -4.941926
  8   1.168026 -0.537438 -0.063437 -1.047880 0.442178 -1.121797
  9   6.790376 -0.619176 0.015206 0.057763 -0.117748 -0.527670
 10   8.637599 0.544015 -0.090417 -3.988461 0.202805 -0.503999
 11   6.790465 -0.619039 0.017802 0.033205 -0.096586 -0.383393
 12   -2.022474 -0.104699 -2.873818 -0.939625 1.712699 -4.843518
 13   1.167898 -0.537463 0.063297 0.303319 -0.788841 -0.798121
 14   7.002743 -0.617765 -0.183752 0.373365 -0.307523 -1.826258
 15   8.209042 0.615527 -0.255885 2.221818 0.448674 0.550009
 16   7.002735 -0.617911 -0.183641 0.218978 -0.284441 -1.275385
 17   1.574674 0.609930 -0.000899 0.244614 0.297785 -0.158608
 18   -0.602177 0.511412 -0.000006 0.000000 0.000000 0.000000
 19   3.646428 0.364526 1.119313 -0.000002 -0.000014 -0.174510
 20   3.646422 0.364499 -1.117566 0.000007 -0.000003 -0.174546
 21   3.805634 1.330634 1.627658 0.000002 -0.000011 -0.000026
 22   -0.246060 -0.011889 0.516521 -0.000011 0.000031 0.000025
 23   3.805651 1.330659 -1.631083 0.000019 0.000002 -0.000024
 24   -0.246150 -0.011872 -0.516511 -0.000005 -0.000006 0.000048
 25   4.941364 1.997338 1.629330 0.000018 -0.000001 -0.000024
 26   4.941382 1.997366 -1.629410 -0.000001 0.000005 -0.000024
 27   2.930087 1.603639 1.514501 -0.000019 -0.000022 -0.000050
 28   2.932517 1.603245 -1.501142 -0.000002 -0.000009 -0.000024
 29   8.824059 0.150544 0.091743 0.075135 -0.029951 0.051593
 30   2.169681 -0.553366 1.651503 -0.002015 0.144677 0.009652
 31   2.215043 -0.561289 -1.759846 0.000368 -0.191619 0.010715
 32   -0.810489 -0.093824 3.127092 3.071872 -0.114782 1.239365
 33   14.298673 -0.408176 0.475484 0.000248 0.000062 -1.896136
 34   15.835795 0.581398 0.242756 -0.214729 0.106889 -0.097869
 35   -0.815868 -0.091229 -3.114430 0.066464 3.132725 -1.010185
 36   14.294526 -0.410349 -0.463635 0.000033 -0.000000 -2.607695
 37   15.834409 0.579420 -0.284600 -0.006092 -0.035255 0.214458
 38   1.178749 -3.473281 -2.823813 0.007788 -0.005808 0.017902
 39   -4.473368 -0.800940 -0.687584 0.009995 0.022112 -0.088288
 40   1.079037 -3.430237 3.237290 -0.003726 -0.007037 0.028959
 41   -4.301023 -0.902875 1.010349 0.001078 0.002145 -0.008778
 42   -0.587153 1.689489 -2.426887 0.064944 0.101180 -0.009744
 43   -0.664068 1.667327 2.638901 -0.076214 -0.114734 0.019781
time 14
  0   -0.967547 0.175787 -20.574476 0.000000 0.000000 -1.572114
  1   -1.093036 0.000002 -0.326057 -1.570809 -1.570703 0.000022
  2   2.262337 0.113614 0.064702 -0.000014 0.000037 0.133477
  3   2.380047 0.353302 0.047440 0.000000 -0.000028 0.176467
  4   2.033756 0.190472 -0.000128 -0.165901 0.049568 0.246527
  5   2.451511 0.204909 -0.003447 -0.151313 -0.008008 0.275478
  6   7.247600 -0.397300 -0.109469 0.001978 0.004467 0.620154
  7   -2.022252 -0.104661 3.136172 1.216828 -1.019175 -4.906614
  8   1.168026 -0.537438 -0.063437 -1.050095 0.414354 -1.116356
  9   6.790376 -0.619176 0.015206 0.057763 -0.118549 -0.533179
 10   8.637599 0.544015 -0.090417 -3.988461 0.202805 -0.503999
 11   6.790465 -0.619039 0.017802 0.033059 -0.097126 -0.387258
 12   -2.022474 -0.104699 -2.873818 -0.970091 1.718155 -4.832412
 13   1.167898 -0.537463 0.063297 0.342191 -0.779688 -0.832989
 14   7.002743 -0.617765 -0.183752 0.373365 -0.307523 -1.825763
 15   8.209042 0.615527 -0.255885 2.214556 0.446177 0.548686
 16   7.002735 -0.617911 -0.183641 0.219025 -0.284441 -1.275109
 17   1.574674 0.609930 -0.000899 0.248880 0.302897 -0.143749
 18   -0.602177 0.511412 -0.000006 0.000000 0.000000 0.000000
 19   3.654241 0.270773 1.119313 -0.000002 -0.000014 -0.174510
 20   3.654235 0.270746 -1.117566 0.000007 -0.000003 -0.174546
 21   3.352495 1.260319 1.576875 0.000002 -0.000011 -0.000026
 22   -0.238247 -0.379088 0.496989 0.000083 -0.028708 0.445010
 23   3.364231 1.256438 -1.623270 0.000019 0.000002 -0.000024
 24   -0.164116 -0.285318 -0.528230 0.000091 -0.028733 0.445062
 25   4.535101 1.997338 1.637143 -0.032209 0.220343 0.007203
 26   4.531213 1.997366 -1.621597 0.035749 -0.204340 -0.020853
 27   3.117593 1.466916 1.506688 -0.000019 -0.000022 -0.000050
 28   3.120023 1.466522 -1.508955 -0.000002 -0.000009 -0.000024
 29   8.824059 0.150544 0.091743 0.077808 -0.031375 0.060015
 30   2.173587 -0.553366 1.647597 -0.002083 0.150169 0.010038
 31   2.215043 -0.561289 -1.759846 0.000383 -0.198819 0.011134
 32   -0.810489 -0.093824 3.127092 3.071872 -0.114782 1.239365
 33   14.298673 -0.408176 0.475484 0.000248 0.000062 -1.896136
 34   15.835795 0.581398 0.242756 -0.214729 0.106889 -0.097869
 35   -0.815868 -0.091229 -3.114430 0.066464 3.132725 -1.010185
 36   14.294526 -0.410349 -0.463635 0.000033 -0.000000 -2.607695
 37   15.834409 0.579420 -0.284600 -0.006092 -0.035255 0.214458
 38   1.178749 -3.473281 -2.823813 0.008104 -0.006037 0.018574
 39   -4.473368 -0.793127 -0.687584 0.010391 0.022939 -0.091625
 40   1.079037 -3.430237 3.237290 -0.003852 -0.007302 0.030059
 41   -4.297117 -0.891156 1.018162 0.001126 0.002229 -0.009115
 42   -0.583247 1.689489 -2.415168 0.067389 0.104998 -0.010163
 43   -0.664068 1.667327 2.627182 -0.079063 -0.119049 0.020534
time 15
  0   -0.967547 0.175787 -20.574476 0.000000 0.000000 -1.572114
  1   -1.093036 0.000002 -0.326057 -1.570809 -1.570703 0.000022
  2   2.262337 0.113614 0.064702 -0.000014 0.000037 0.133477
  3   2.380047 0.353302 0.047440 0.000000 -0.000663 0.173998
  4   2.033756 0.190472 -0.000128 -0.166768 0.050995 0.256749
  5   2.451511 0.204909 -0.003447 -0.151313 -0.005828 0.289941
  6   7.247600 -0.397300 -0.109469 -0.000466 0.001255 0.578215
  7   -2.022252 -0.104661 3.136172 1.224209 -1.020846 -4.871021
  8   1.168026 -0.537438 -0.063437 -1.052183 0.392266 -1.111106
  9   6.790376 -0.619176 0.015206 0.057652 -0.119616 -0.542386
 10   8.637599 0.544015 -0.090417 -3.988461 0.202805 -0.503999
 11   6.790465 -0.619039 0.017802 0.032913 -0.098007 -0.393833
 12   -2.022474 -0.104699 -2.873818 -1.017133 1.727240 -4.837965
 13   1.167898 -0.537463 0.063297 0.376354 -0.773636 -0.869794
 14   7.002743 -0.617765 -0.183752 0.373536 -0.307523 -1.822958
 15   8.209042 0.615527 -0.255885 2.207150 0.443756 0.547483
 16   7.002735 -0.617911 -0.183641 0.219166 -0.284272 -1.273067
 17   1.574674 0.609930 -0.000899 0.252210 0.307654 -0.124567
 18   -0.602177 0.511412 -0.000006 0.000000 0.000000 0.000000
 19   3.673773 0.177020 1.119313 -0.000002 -0.000014 -0.174510
 20   3.673767 0.176993 -1.117566 0.000007 -0.000003 -0.174546
 21   2.899356 1.193911 1.522186 0.000002 -0.000011 -0.000026
 22   -0.226528 -0.754099 0.477457 0.000194 -0.057459 0.890061
 23   2.918905 1.182217 -1.611551 0.000019 0.000002 -0.000024
 24   -0.078176 -0.558764 -0.547762 0.000187 -0.057484 0.890104
 25   4.117120 1.989525 1.648862 -0.064411 0.440688 0.014417
 26   4.117138 1.989553 -1.609878 0.071523 -0.408734 -0.041694
 27   3.305099 1.322380 1.487156 -0.000019 -0.000022 -0.000050
 28   3.303622 1.321986 -1.528487 -0.000002 -0.000009 -0.000024
 29   8.824059 0.150544 0.091743 0.078789 -0.031898 0.063020
 30   2.173587 -0.553366 1.647597 -0.002110 0.152116 0.010166
 31   2.215043 -0.561289 -1.752033 0.000383 -0.201410 0.011261
 32   -0.810489 -0.093824 3.127092 3.071872 -0.114782 1.239365
 33   14.298673 -0.408176 0.475484 0.000248 0.000062 -1.896136
 34   15.835795 0.581398 0.242756 -0.214729 0.106889 -0.097869
 35   -0.815868 -0.091229 -3.114430 0.066464 3.132725 -1.010185
 36   14.294526 -0.410349 -0.463635 0.000033 -0.000000 -2.607695
 37   15.834409 0.579420 -0.284600 -0.006092 -0.035255 0.214458
 38   1.182655 -3.473281 -2.823813 0.008188 -0.006122 0.018757
 39   -4.473368 -0.793127 -0.683678 0.010510 0.023238 -0.092803
 40   1.075131 -3.430237 3.237290 -0.003894 -0.007374 0.030364
 41   -4.297117 -0.891156 1.018162 0.001138 0.002253 -0.009199
 42   -0.583247 1.689489 -2.415168 0.068264 0.106347 -0.010288
 43   -0.664068 1.667327 2.627182 -0.080100 -0.120587 0.020785
time 16
  0   -0.967547 0.175787 -20.574476 0.000000 0.000000 -1.572114
  1   -1.093036 0.000002 -0.326057 -1.570809 -1.570703 0.000022
  2   2.262337 0.113614 0.064702 -0.000014 0.000037 0.133477
  3   2.380047 0.353302 0.047440 0.000000 -0.000927 0.173284
  4   2.033756 0.190472 -0.000128 -0.167100 0.051606 0.261026
  5   2.451511 0.204909 -0.003447 -0.151399 -0.004770 0.296529
  6   7.247600 -0.397300 -0.109469 -0.002935 -0.001921 0.536276
  7   -2.022252 -0.104661 3.136172 1.231590 -1.022691 -4.835428
  8   1.168026 -0.537438 -0.063437 -1.053765 0.379587 -1.111359
  9   6.790376 -0.619176 0.015206 0.057763 -0.119283 -0.539443
 10   8.637599 0.544015 -0.090417 -3.988461 0.202805 -0.503999
 11   6.790465 -0.619039 0.017802 0.032942 -0.097723 -0.391699
 12   -2.022474 -0.104699 -2.873818 -1.077587 1.740504 -4.857209
 13   1.167898 -0.537463 0.063297 0.398497 -0.773178 -0.902483
 14   7.002743 -0.617765 -0.183752 0.373878 -0.307523 -1.815945
 15   8.209042 0.615527 -0.255885 2.200463 0.441562 0.546280
 16   7.002735 -0.617911 -0.183641 0.219543 -0.284159 -1.268210
 17   1.574674 0.609930 -0.000899 0.254201 0.311914 -0.093261
 18   -0.602177 0.511412 -0.000006 0.000000 0.000000 0.000000
 19   3.654241 0.270773 1.119313 -0.000002 -0.000014 -0.174510
 20   3.654235 0.270746 -1.117566 0.000007 -0.000003 -0.174546
 21   3.352495 1.260319 1.576875 0.000002 -0.000011 -0.000026
 22   -0.238247 -0.379088 0.496989 0.000083 -0.028708 0.445010
 23   3.364231 1.256438 -1.623270 0.000019 0.000002 -0.000024
 24   -0.164116 -0.285318 -0.528230 0.000091 -0.028733 0.445062
 25   4.535101 1.997338 1.637143 -0.032209 0.220343 0.007203
 26   4.531213 1.997366 -1.621597 0.035749 -0.204340 -0.020853
 27   3.117593 1.466916 1.506688 -0.000019 -0.000022 -0.000050
 28   3.120023 1.466522 -1.508955 -0.000002 -0.000009 -0.000024
 29   8.824059 0.150544 0.091743 0.077808 -0.031375 0.060015
 30   2.173587 -0.553366 1.647597 -0.002083 0.150169 0.010038
 31   2.215043 -0.561289 -1.759846 0.000383 -0.198819 0.011134
 32   -0.810489 -0.093824 3.127092 3.071872 -0.114782 1.239365
 33   14.298673 -0.408176 0.475484 0.000248 0.000062 -1.896136
 34   15.835795 0.581398 0.242756 -0.214729 0.106889 -0.097869
 35   -0.815868 -0.091229 -3.114430 0.066464 3.132725 -1.010185
 36   14.294526 -0.410349 -0.463635 0.000033 -0.000000 -2.607695
 37   15.834409 0.579420 -0.284600 -0.006092 -0.035255 0.214458
 38   1.178749 -3.473281 -2.823813 0.008104 -0.006037 0.018574
 39   -4.473368 -0.793127 -0.687584 0.010391 0.022939 -0.091625
 40   1.079037 -3.430237 3.237290 -0.003852 -0.007302 0.030059
 41   -4.297117 -0.891156 1.018162 0.001126 0.002229 -0.009115
 42   -0.583247 1.689489 -2.415168 0.067389 0.104998 -0.010163
 43   -0.664068 1.667327 2.627182 -0.079063 -0.119049 0.020534
time 17
  0   -0.967547 0.175787 -20.574476 0.000000 0.000000 -1.572114
  1   -1.093036 0.000002 -0.326057 -1.570809 -1.570703 0.000022
  2   2.262337 0.113614 0.064702 -0.000014 0.000037 0.133477
  3   2.380047 0.353302 0.047440 0.000000 -0.000747 0.173794
  4   2.033756 0.190472 -0.000128 -0.167155 0.051678 0.261533
  5   2.451511 0.204909 -0.003447 -0.151399 -0.004627 0.297371
  6   7.247600 -0.397300 -0.109469 -0.005236 -0.005252 0.494432
  7   -2.022252 -0.104661 3.136172 1.238875 -1.024594 -4.799459
  8   1.168026 -0.537438 -0.063437 -1.055094 0.371587 -1.115597
  9   6.790376 -0.619176 0.015206 0.057763 -0.117481 -0.525557
 10   8.637599 0.544015 -0.090417 -3.988461 0.202805 -0.503999
 11   6.790465 -0.619039 0.017802 0.033234 -0.096387 -0.381952
 12   -2.022474 -0.104699 -2.873818 -1.133251 1.755161 -4.872240
 13   1.167898 -0.537463 0.063297 0.412626 -0.775518 -0.930692
 14   7.002743 -0.617765 -0.183752 0.374276 -0.307693 -1.805219
 15   8.209042 0.615527 -0.255885 2.194279 0.439367 0.545198
 16   7.002735 -0.617911 -0.183641 0.220155 -0.283821 -1.260925
 17   1.574674 0.609930 -0.000899 0.255663 0.315890 -0.053380
 18   -0.602177 0.511412 -0.000006 0.000000 0.000000 0.000000
 19   3.646428 0.364526 1.119313 -0.000002 -0.000014 -0.174510
 20   3.646422 0.364499 -1.117566 0.000007 -0.000003 -0.174546
 21   3.805634 1.330634 1.627658 0.000002 -0.000011 -0.000026
 22   -0.246060 -0.011889 0.516521 -0.000011 0.000031 0.000025
 23   3.805651 1.330659 -1.631083 0.000019 0.000002 -0.000024
 24   -0.246150 -0.011872 -0.516511 -0.000005 -0.000006 0.000048
 25   4.941364 1.997338 1.629330 0.000018 -0.000001 -0.000024
 26   4.941382 1.997366 -1.629410 -0.000001 0.000005 -0.000024
 27   2.930087 1.603639 1.514501 -0.000019 -0.000022 -0.000050
 28   2.932517 1.603245 -1.501142 -0.000002 -0.000009 -0.000024
 29   8.824059 0.150544 0.091743 0.075135 -0.029951 0.051593
 30   2.169681 -0.553366 1.651503 -0.002015 0.144677 0.009652
 31   2.215043 -0.561289 -1.759846 0.000368 -0.191619 0.010715
 32   -0.810489 -0.093824 3.127092 3.071872 -0.114782 1.239365
 33   14.298673 -0.408176 0.475484 0.000248 0.000062 -1.896136
 34   15.835795 0.581398 0.242756 -0.214729 0.106889 -0.097869
 35   -0.815868 -0.091229 -3.114430 0.066464 3.132725 -1.010185
 36   14.294526 -0.410349 -0.463635 0.000033 -0.000000 -2.607695
 37   15.834409 0.579420 -0.284600 -0.006092 -0.035255 0.214458
 38   1.178749 -3.473281 -2.823813 0.007788 -0.005808 0.017902
 39   -4.473368 -0.800940 -0.687584 0.009995 0.022112 -0.088288
 40   1.079037 -3.430237 3.237290 -0.003726 -0.007037 0.028959
 41   -4.301023 -0.902875 1.010349 0.001078 0.002145 -0.008778
 42   -0.587153 1.689489 -2.426887 0.064944 0.101180 -0.009744
 43   -0.664068 1.667327 2.638901 -0.076214 -0.114734 0.019781
time 18
  0   -0.967547 0.175787 -20.574476 0.000000 0.000000 -1.572114
  1   -1.093036 0.000002 -0.326057 -1.570809 -1.570703 0.000022
  2   2.262337 0.113614 0.064702 -0.000014 0.000037 0.133477
  3   2.380047 0.353302 0.047440 0.000000 -0.000436 0.174896
  4   2.033756 0.190472 -0.000128 -0.167026 0.051438 0.259902
  5   2.451511 0.204909 -0.003447 -0.151399 -0.005031 0.294944
  6   7.247600 -0.397300 -0.109469 -0.005236 -0.005252 0.494432
  7   -2.022252 -0.104661 3.136172 1.238875 -1.024594 -4.799459
  8   1.168026 -0.537438 -0.063437 -1.055600 0.368568 -1.119646
  9   6.790376 -0.619176 0.015206 0.057985 -0.115879 -0.512501
 10   8.637599 0.544015 -0.090417 -3.988461 0.202805 -0.503999
 11   6.790465 -0.619039 0.017802 0.033526 -0.095108 -0.372897
 12   -2.022474 -0.104699 -2.873818 -1.163622 1.764361 -4.903069
 13   1.167898 -0.537463 0.063297 0.417336 -0.778315 -0.944978
 14   7.002743 -0.617765 -0.183752 0.374675 -0.307807 -1.797381
 15   8.209042 0.615527 -0.255885 2.189462 0.437779 0.544296
 16   7.002735 -0.617911 -0.183641 0.220673 -0.283539 -1.255295
 17   1.574674 0.609930 -0.000899 0.255460 0.315748 -0.050423
 18   -0.602177 0.511412 -0.000006 0.000000 0.000000 0.000000
 19   3.646428 0.364526 1.119313 -0.000002 -0.000014 -0.174510
 20   3.646422 0.364499 -1.117566 0.000007 -0.000003 -0.174546
 21   3.805634 1.330634 1.627658 0.000002 -0.000011 -0.000026
 22   -0.246060 -0.011889 0.516521 -0.000011 0.000031 0.000025
 23   3.805651 1.330659 -1.631083 0.000019 0.000002 -0.000024
 24   -0.246150 -0.011872 -0.516511 -0.000005 -0.000006 0.000048
 25   4.941364 1.997338 1.629330 0.000018 -0.000001 -0.000024
 26   4.941382 1.997366 -1.629410 -0.000001 0.000005 -0.000024
 27   2.930087 1.603639 1.514501 -0.000019 -0.000022 -0.000050
 28   2.932517 1.603245 -1.501142 -0.000002 -0.000009 -0.000024
 29   8.824059 0.150544 0.091743 0.070946 -0.027743 0.038503
 30   2.165774 -0.553366 1.659316 -0.001893 0.136221 0.009116
 31   2.207230 -0.561289 -1.763752 0.000337 -0.180429 0.010078
 32   -0.810489 -0.093824 3.127092 3.071872 -0.114782 1.239365
 33   14.298673 -0.408176 0.475484 0.000248 0.000062 -1.896136
 34   15.835795 0.581398 0.242756 -0.214729 0.106889 -0.097869
 35   -0.815868 -0.091229 -3.114430 0.066464 3.132725 -1.010185
 36   14.294526 -0.410349 -0.463635 0.000033 -0.000000 -2.607695
 37   15.834409 0.579420 -0.284600 -0.006092 -0.035255 0.214458
 38   1.178749 -3.465468 -2.823813 0.007346 -0.005471 0.016802
 39   -4.473368 -0.820472 -0.695397 0.009432 0.020817 -0.083156
 40   1.079037 -3.438050 3.237290 -0.003473 -0.006627 0.027248
 41   -4.308836 -0.910688 1.010349 0.001018 0.002013 -0.008273
 42   -0.594966 1.689489 -2.438606 0.061157 0.095277 -0.009201
 43   -0.664068 1.667327 2.650620 -0.071766 -0.108033 0.018610
time 19
  0   -0.967547 0.175787 -20.574476 0.000000 0.000000 -1.572114
  1   -1.093036 0.000002 -0.326057 -1.570809 -1.570703 0.000022
  2   2.262337 0.113614 0.064702 -0.000014 0.000037 0.133477
  3   2.380047 0.353302 0.047440 0.000000 -0.000136 0.175957
  4   2.033756 0.190472 -0.000128 -0.166897 0.051102 0.257727
  5   2.451511 0.204909 -0.003447 -0.151313 -0.005554 0.291576
  6   7.247600 -0.397300 -0.109469 -0.005236 -0.005252 0.494432
  7   -2.022252 -0.104661 3.136172 1.238875 -1.024594 -4.799459
  8   1.168026 -0.537438 -0.063437 -1.055600 0.369826 -1.121291
  9   6.790376 -0.619176 0.015206 0.057985 -0.115145 -0.506841
 10   8.637599 0.544015 -0.090417 -3.988461 0.202805 -0.503999
 11   6.790465 -0.619039 0.017802 0.033643 -0.094596 -0.368859
 12   -2.022474 -0.104699 -2.873818 -1.168700 1.766132 -4.908334
 13   1.167898 -0.537463 0.063297 0.416914 -0.779637 -0.946855
 14   7.002743 -0.617765 -0.183752 0.374732 -0.307807 -1.794246
 15   8.209042 0.615527 -0.255885 2.186226 0.436795 0.543875
 16   7.002735 -0.617911 -0.183641 0.220814 -0.283426 -1.253253
 17   1.574674 0.609930 -0.000899 0.254973 0.315535 -0.045950
 18   -0.602177 0.511412 -0.000006 0.000000 0.000000 0.000000
 19   3.646428 0.364526 1.119313 -0.000002 -0.000014 -0.174510
 20   3.646422 0.364499 -1.117566 0.000007 -0.000003 -0.174546
 21   3.805634 1.330634 1.627658 0.000002 -0.000011 -0.000026
 22   -0.246060 -0.011889 0.516521 -0.000011 0.000031 0.000025
 23   3.805651 1.330659 -1.631083 0.000019 0.000002 -0.000024
 24   -0.246150 -0.011872 -0.516511 -0.000005 -0.000006 0.000048
 25   4.941364 1.997338 1.629330 0.000018 -0.000001 -0.000024
 26   4.941382 1.997366 -1.629410 -0.000001 0.000005 -0.000024
 27   2.930087 1.603639 1.514501 -0.000019 -0.000022 -0.000050
 28   2.932517 1.603245 -1.501142 -0.000002 -0.000009 -0.000024
 29   8.824059 0.150544 0.091743 0.065599 -0.024990 0.021550
 30   2.161868 -0.553366 1.671035 -0.001744 0.125323 0.008387
 31   2.195511 -0.561289 -1.771565 0.000322 -0.166080 0.009296
 32   -0.810489 -0.093824 3.127092 3.071872 -0.114782 1.239365
 33   14.298673 -0.408176 0.475484 0.000248 0.000062 -1.896136
 34   15.835795 0.581398 0.242756 -0.214729 0.106889 -0.097869
 35   -0.815868 -0.091229 -3.114430 0.066464 3.132725 -1.010185
 36   14.294526 -0.410349 -0.463635 0.000033 -0.000000 -2.607695
 37   15.834409 0.579420 -0.284600 -0.006092 -0.035255 0.214458
 38   1.178749 -3.465468 -2.823813 0.006778 -0.005037 0.015519
 39   -4.473368 -0.836097 -0.695397 0.008677 0.019151 -0.076509
 40   1.079037 -3.438050 3.237290 -0.003221 -0.006097 0.025110
 41   -4.316648 -0.922407 1.002536 0.000934 0.001870 -0.007628
 42   -0.594966 1.689489 -2.458138 0.056304 0.087703 -0.008490
 43   -0.664068 1.671233 2.670152 -0.066044 -0.099435 0.017147
time 20
  0   -0.967547 0.175787 -20.574476 0.000000 0.000000 -1.572114
  1   -1.093036 0.000002 -0.326057 -1.570809 -1.570703 0.000022
  2   2.262337 0.113614 0.064702 -0.000014 0.000037 0.133477
  3   2.380047 0.353302 0.047440 0.000000 -0.000028 0.176467
  4   2.033756 0.190472 -0.000128 -0.166768 0.050995 0.256749
  5   2.451511 0.204909 -0.003447 -0.151313 -0.005828 0.289941
  6   7.247600 -0.397300 -0.109469 -0.005236 -0.005252 0.494432
  7   -2.022252 -0.104661 3.136172 1.238875 -1.024594 -4.799459
  8   1.168026 -0.537438 -0.063437 -1.055347 0.370832 -1.121607
  9   6.790376 -0.619176 0.015206 0.057985 -0.114945 -0.504879
 10   8.637599 0.544015 -0.090417 -3.988461 0.202805 -0.503999
 11   6.790465 -0.619039 0.017802 0.033672 -0.094397 -0.367591
 12   -2.022474 -0.104699 -2.873818 -1.163622 1.764361 -4.903069
 13   1.167898 -0.537463 0.063297 0.415719 -0.779535 -0.944373
 14   7.002743 -0.617765 -0.183752 0.374732 -0.307807 -1.793751
 15   8.209042 0.615527 -0.255885 2.185076 0.436265 0.543574
 16   7.002735 -0.617911 -0.183641 0.220861 -0.283426 -1.252756
 17   1.574674 0.609930 -0.000899 0.254770 0.315535 -0.043807
 18   -0.602177 0.511412 -0.000006 0.000000 0.000000 0.000000
 19   3.646428 0.364526 1.119313 -0.000002 -0.000014 -0.174510
 20   3.646422 0.364499 -1.117566 0.000007 -0.000003 -0.174546
 21   3.805634 1.330634 1.627658 0.000002 -0.000011 -0.000026
 22   -0.246060 -0.011889 0.516521 -0.000011 0.000031 0.000025
 23   3.805651 1.330659 -1.631083 0.000019 0.000002 -0.000024
 24   -0.246150 -0.011872 -0.516511 -0.000005 -0.000006 0.000048
 25   4.941364 1.997338 1.629330 0.000018 -0.000001 -0.000024
 26   4.941382 1.997366 -1.629410 -0.000001 0.000005 -0.000024
 27   2.930087 1.603639 1.514501 -0.000019 -0.000022 -0.000050
 28   2.932517 1.603245 -1.501142 -0.000002 -0.000009 -0.000024
 29   8.824059 0.150544 0.091743 0.059093 -0.021928 0.001754
 30   2.154055 -0.553366 1.682754 -0.001554 0.112507 0.007529
 31   2.191605 -0.561289 -1.783284 0.000276 -0.149166 0.008350
 32   -0.810489 -0.093824 3.127092 3.071872 -0.114782 1.239365
 33   14.298673 -0.408176 0.475484 0.000248 0.000062 -1.896136
 34   15.835795 0.581398 0.242756 -0.214729 0.106889 -0.097869
 35   -0.815868 -0.091229 -3.114430 0.066464 3.132725 -1.010185
 36   14.294526 -0.410349 -0.463635 0.000033 -0.000000 -2.607695
 37   15.834409 0.579420 -0.284600 -0.006092 -0.035255 0.214458
 38   1.170936 -3.465468 -2.823813 0.006062 -0.004519 0.013931
 39   -4.473368 -0.855629 -0.707116 0.007790 0.017222 -0.068740
 40   1.086850 -3.438050 3.237290 -0.002884 -0.005470 0.022544
 41   -4.332274 -0.934126 1.002536 0.000838 0.001678 -0.006815
 42   -0.606685 1.689489 -2.481576 0.050575 0.078764 -0.007611
 43   -0.664068 1.679046 2.689684 -0.059322 -0.089314 0.015390
time 21
  0   -0.967547 0.175787 -20.574476 0.000000 0.000000 -1.572114
  1   -1.093036 0.000002 -0.326057 -1.570809 -1.570703 0.000022
  2   2.262337 0.113614 0.064702 -0.000014 0.000037 0.133477
  3   2.380047 0.353302 0.047440 0.000000 -0.000028 0.176467
  4   2.033756 0.190472 -0.000128 -0.166768 0.050995 0.256749
  5   2.451511 0.204909 -0.003447 -0.151313 -0.005828 0.289941
  6   7.247600 -0.397300 -0.109469 -0.005236 -0.005252 0.494432
  7   -2.022252 -0.104661 3.136172 1.238875 -1.024594 -4.799459
  8   1.168026 -0.537438 -0.063437 -1.055347 0.370832 -1.121607
  9   6.790376 -0.619176 0.015206 0.057985 -0.114945 -0.504879
 10   8.637599 0.544015 -0.090417 -3.988461 0.202805 -0.503999
 11   6.790465 -0.619039 0.017802 0.033672 -0.094397 -0.367591
 12   -2.022474 -0.104699 -2.873818 -1.163622 1.764361 -4.903069
 13   1.167898 -0.537463 0.063297 0.415719 -0.779535 -0.944373
 14   7.002743 -0.617765 -0.183752 0.374732 -0.307807 -1.793751
 15   8.209042 0.615527 -0.255885 2.185076 0.436265 0.543574
 16   7.002735 -0.617911 -0.183641 0.220861 -0.283426 -1.252756
 17   1.574674 0.609930 -0.000899 0.254770 0.315535 -0.043807
 18   -0.602177 0.511412 -0.000006 0.000000 0.000000 0.000000
 19   3.646428 0.364526 1.119313 -0.000002 -0.000014 -0.174510
 20   3.646422 0.364499 -1.117566 0.000007 -0.000003 -0.174546
 21   3.805634 1.330634 1.627658 0.000002 -0.000011 -0.000026
 22   -0.246060 -0.011889 0.516521 -0.000011 0.000031 0.000025
 23   3.805651 1.330659 -1.631083 0.000019 0.000002 -0.000024
 24   -0.246150 -0.011872 -0.516511 -0.000005 -0.000006 0.000048
 25   4.941364 1.997338 1.629330 0.000018 -0.000001 -0.000024
 26   4.941382 1.997366 -1.629410 -0.000001 0.000005 -0.000024
 27   2.930087 1.603639 1.514501 -0.000019 -0.000022 -0.000050
 28   2.932517 1.603245 -1.501142 -0.000002 -0.000009 -0.000024
 29   8.824059 0.150544 0.091743 0.051963 -0.018628 -0.020242
 30   2.150149 -0.561179 1.698380 -0.001378 0.098326 0.006607
 31   2.183792 -0.561289 -1.791097 0.000245 -0.130491 0.007313
 32   -0.810489 -0.093824 3.127092 3.071872 -0.114782 1.239365
 33   14.298673 -0.408176 0.475484 0.000248 0.000062 -1.896136
 34   15.835795 0.581398 0.242756 -0.214729 0.106889 -0.097869
 35   -0.815868 -0.091229 -3.114430 0.066464 3.132725 -1.010185
 36   14.294526 -0.410349 -0.463635 0.000033 -0.000000 -2.607695
 37   15.834409 0.579420 -0.284600 -0.006092 -0.035255 0.214458
 38   1.167030 -3.461562 -2.823813 0.005304 -0.003965 0.012159
 39   -4.465555 -0.886880 -0.707116 0.006807 0.015065 -0.060130
 40   1.090756 -3.441956 3.237290 -0.002526 -0.004771 0.019734
 41   -4.343993 -0.953658 0.990817 0.000718 0.001450 -0.005974
 42   -0.614498 1.689489 -2.508921 0.044223 0.068921 -0.006650
 43   -0.664068 1.679046 2.713122 -0.051888 -0.078126 0.013466
time 22
  0   -0.967547 0.175787 -20.574476 0.000000 0.000000 -1.572114
  1   -1.093036 0.000002 -0.326057 -1.570809 -1.570703 0.000022
  2   2.262337 0.113614 0.064702 -0.000014 0.000037 0.133477
  3   2.380047 0.353302 0.047440 0.000000 -0.000028 0.176467
  4   2.033756 0.190472 -0.000128 -0.166768 0.050995 0.256749
  5   2.451511 0.204909 -0.003447 -0.151313 -0.005828 0.289941
  6   7.247600 -0.397300 -0.109469 -0.005236 -0.005252 0.494432
  7   -2.022252 -0.104661 3.136172 1.238875 -1.024594 -4.799459
  8   1.168026 -0.537438 -0.063437 -1.055347 0.370832 -1.121607
  9   6.790376 -0.619176 0.015206 0.057985 -0.114945 -0.504879
 10   8.637599 0.544015 -0.090417 -3.988461 0.202805 -0.503999
 11   6.790465 -0.619039 0.017802 0.033672 -0.094397 -0.367591
 12   -2.022474 -0.104699 -2.873818 -1.163622 1.764361 -4.903069
 13   1.167898 -0.537463 0.063297 0.415719 -0.779535 -0.944373
 14   7.002743 -0.617765 -0.183752 0.374732 -0.307807 -1.793751
 15   8.209042 0.615527 -0.255885 2.185076 0.436265 0.543574
 16   7.002735 -0.617911 -0.183641 0.220861 -0.283426 -1.252756
 17   1.574674 0.609930 -0.000899 0.254770 0.315535 -0.043807
 18   -0.602177 0.511412 -0.000006 0.000000 0.000000 0.000000
 19   3.646428 0.364526 1.119313 -0.000002 -0.000014 -0.174510
 20   3.646422 0.364499 -1.117566 0.000007 -0.000003 -0.174546
 21   3.805634 1.330634 1.627658 0.000002 -0.000011 -0.000026
 22   -0.246060 -0.011889 0.516521 -0.000011 0.000031 0.000025
 23   3.805651 1.330659 -1.631083 0.000019 0.000002 -0.000024
 24   -0.246150 -0.011872 -0.516511 -0.000005 -0.000006 0.000048
 25   4.941364 1.997338 1.629330 0.000018 -0.000001 -0.000024
 26   4.941382 1.997366 -1.629410 -0.000001 0.000005 -0.000024
 27   2.930087 1.603639 1.514501 -0.000019 -0.000022 -0.000050
 28   2.932517 1.603245 -1.501142 -0.000002 -0.000009 -0.000024
 29   8.824059 0.150544 0.091743 0.044210 -0.015305 -0.043579
 30   2.142336 -0.561179 1.710099 -0.001161 0.083331 0.005578
 31   2.172073 -0.561289 -1.802816 0.000215 -0.110755 0.006203
 32   -0.810489 -0.093824 3.127092 3.071872 -0.114782 1.239365
 33   14.298673 -0.408176 0.475484 0.000248 0.000062 -1.896136
 34   15.835795 0.581398 0.242756 -0.214729 0.106889 -0.097869
 35   -0.815868 -0.091229 -3.114430 0.066464 3.132725 -1.010185
 36   14.294526 -0.410349 -0.463635 0.000033 -0.000000 -2.607695
 37   15.834409 0.579420 -0.284600 -0.006092 -0.035255 0.214458
 38   1.159217 -3.461562 -2.823813 0.004505 -0.003350 0.010326
 39   -4.465555 -0.910318 -0.714929 0.005789 0.012776 -0.051015
 40   1.098569 -3.441956 3.237290 -0.002126 -0.004048 0.016740
 41   -4.355712 -0.965377 0.990817 0.000610 0.001234 -0.005048
 42   -0.618404 1.697302 -2.536265 0.037548 0.058464 -0.005646
 43   -0.664068 1.679046 2.736560 -0.044042 -0.066310 0.011417
time 23
  0   -0.967547 0.175787 -20.574476 0.000000 0.000000 -1.572114
  1   -1.093036 0.000002 -0.326057 -1.570809 -1.570703 0.000022
  2   2.262337 0.113614 0.064702 -0.000014 0.000037 0.133477
  3   2.380047 0.353302 0.047440 0.000000 -0.000028 0.176467
  4   2.033756 0.190472 -0.000128 -0.166768 0.050995 0.256749
  5   2.451511 0.204909 -0.003447 -0.151313 -0.005828 0.289941
  6   7.247600 -0.397300 -0.109469 -0.005236 -0.005252 0.494432
  7   -2.022252 -0.104661 3.136172 1.238875 -1.024594 -4.799459
  8   1.168026 -0.537438 -0.063437 -1.055347 0.370832 -1.121607
  9   6.790376 -0.619176 0.015206 0.057985 -0.114945 -0.504879
 10   8.637599 0.544015 -0.090417 -3.988461 0.202805 -0.503999
 11   6.790465 -0.619039 0.017802 0.033672 -0.094397 -0.367591
 12   -2.022474 -0.104699 -2.873818 -1.163622 1.764361 -4.903069
 13   1.167898 -0.537463 0.063297 0.415719 -0.779535 -0.944373
 14   7.002743 -0.617765 -0.183752 0.374732 -0.307807 -1.793751
 15   8.209042 0.615527 -0.255885 2.185076 0.436265 0.543574
 16   7.002735 -0.617911 -0.183641 0.220861 -0.283426 -1.252756
 17   1.574674 0.609930 -0.000899 0.254770 0.315535 -0.043807
 18   -0.602177 0.511412 -0.000006 0.000000 0.000000 0.000000
 19   3.646428 0.364526 1.119313 -0.000002 -0.000014 -0.174510
 20   3.646422 0.364499 -1.117566 0.000007 -0.000003 -0.174546
 21   3.805634 1.330634 1.627658 0.000002 -0.000011 -0.000026
 22   -0.246060 -0.011889 0.516521 -0.000011 0.000031 0.000025
 23   3.805651 1.330659 -1.631083 0.000019 0.000002 -0.000024
 24   -0.246150 -0.011872 -0.516511 -0.000005 -0.000006 0.000048
 25   4.941364 1.997338 1.629330 0.000018 -0.000001 -0.000024
 26   4.941382 1.997366 -1.629410 -0.000001 0.000005 -0.000024
 27   2.930087 1.603639 1.514501 -0.000019 -0.000022 -0.000050
 28   2.932517 1.603245 -1.501142 -0.000002 -0.000009 -0.000024
 29   8.824059 0.150544 0.091743 0.036367 -0.012124 -0.067345
 30   2.138430 -0.561179 1.721818 -0.000944 0.068074 0.004570
 31   2.160354 -0.561289 -1.814535 0.000184 -0.090655 0.005075
 32   -0.810489 -0.093824 3.127092 3.071872 -0.114782 1.239365
 33   14.298673 -0.408176 0.475484 0.000248 0.000062 -1.896136
 34   15.835795 0.581398 0.242756 -0.214729 0.106889 -0.097869
 35   -0.815868 -0.091229 -3.114430 0.066464 3.132725 -1.010185
 36   14.294526 -0.410349 -0.463635 0.000033 -0.000000 -2.607695
 37   15.834409 0.579420 -0.284600 -0.006092 -0.035255 0.214458
 38   1.159217 -3.461562 -2.823813 0.003684 -0.002748 0.008371
 39   -4.465555 -0.937663 -0.718835 0.004734 0.010463 -0.041760
 40   1.098569 -3.441956 3.237290 -0.001726 -0.003325 0.013624
 41   -4.371338 -0.988815 0.979098 0.000490 0.001019 -0.004151
 42   -0.626217 1.697302 -2.563610 0.030717 0.047854 -0.004558
 43   -0.664068 1.686859 2.763905 -0.036033 -0.054275 0.009284
time 24
  0   -0.967547 0.175787 -20.574476 0.000000 0.000000 -1.572114
  1   -1.093036 0.000002 -0.326057 -1.570809 -1.570703 0.000022
  2   2.262337 0.113614 0.064702 -0.000014 0.000037 0.133477
  3   2.380047 0.353302 0.047440 0.000000 -0.000028 0.176467
  4   2.033756 0.190472 -0.000128 -0.166768 0.050995 0.256749
  5   2.451511 0.204909 -0.003447 -0.151313 -0.005828 0.289941
  6   7.247600 -0.397300 -0.109469 -0.005236 -0.005252 0.494432
  7   -2.022252 -0.104661 3.136172 1.238875 -1.024594 -4.799459
  8   1.168026 -0.537438 -0.063437 -1.055347 0.370832 -1.121607
  9   6.790376 -0.619176 0.015206 0.057985 -0.114945 -0.504879
 10   8.637599 0.544015 -0.090417 -3.988461 0.202805 -0.503999
 11   6.790465 -0.619039 0.017802 0.033672 -0.094397 -0.367591
 12   -2.022474 -0.104699 -2.873818 -1.163622 1.764361 -4.903069
 13   1.167898 -0.537463 0.063297 0.415719 -0.779535 -0.944373
 14   7.002743 -0.617765 -0.183752 0.374732 -0.307807 -1.793751
 15   8.209042 0.615527 -0.255885 2.185076 0.436265 0.543574
 16   7.002735 -0.617911 -0.183641 0.220861 -0.283426 -1.252756
 17   1.574674 0.609930 -0.000899 0.254770 0.315535 -0.043807
 18   -0.602177 0.511412 -0.000006 0.000000 0.000000 0.000000
 19   3.646428 0.364526 1.119313 -0.000002 -0.000014 -0.174510
 20   3.646422 0.364499 -1.117566 0.000007 -0.000003 -0.174546
 21   3.805634 1.330634 1.627658 0.000002 -0.000011 -0.000026
 22   -0.246060 -0.011889 0.516521 -0.000011 0.000031 0.000025
 23   3.805651 1.330659 -1.631083 0.000019 0.000002 -0.000024
 24   -0.246150 -0.011872 -0.516511 -0.000005 -0.000006 0.000048
 25   4.941364 1.997338 1.629330 0.000018 -0.000001 -0.000024
 26   4.941382 1.997366 -1.629410 -0.000001 0.000005 -0.000024
 27   2.930087 1.603639 1.514501 -0.000019 -0.000022 -0.000050
 28   2.932517 1.603245 -1.501142 -0.000002 -0.000009 -0.000024
 29   8.824059 0.150544 0.091743 0.028525 -0.009228 -0.090682
 30   2.130617 -0.561179 1.741350 -0.000727 0.053079 0.003583
 31   2.152541 -0.561289 -1.822348 0.000138 -0.070866 0.003965
 32   -0.810489 -0.093824 3.127092 3.071872 -0.114782 1.239365
 33   14.298673 -0.408176 0.475484 0.000248 0.000062 -1.896136
 34   15.835795 0.581398 0.242756 -0.214729 0.106889 -0.097869
 35   -0.815868 -0.091229 -3.114430 0.066464 3.132725 -1.010185
 36   14.294526 -0.410349 -0.463635 0.000033 -0.000000 -2.607695
 37   15.834409 0.579420 -0.284600 -0.006092 -0.035255 0.214458
 38   1.155311 -3.453749 -2.823813 0.002884 -0.002133 0.006538
 39   -4.457742 -0.961101 -0.726648 0.003691 0.008162 -0.032645
 40   1.106382 -3.449769 3.237290 -0.001347 -0.002602 0.010692
 41   -4.386963 -1.000534 0.979098 0.000383 0.000791 -0.003225
 42   -0.637936 1.697302 -2.594861 0.024017 0.037413 -0.003597
 43   -0.664068 1.690765 2.787343 -0.028187 -0.042428 0.007319
time 25
  0   -0.967547 0.175787 -20.574476 0.000000 0.000000 -1.572114
  1   -1.093036 0.000002 -0.326057 -1.570809 -1.570703 0.000022
  2   2.262337 0.113614 0.064702 -0.000014 0.000037 0.133477
  3   2.380047 0.353302 0.047440 0.000000 -0.000028 0.176467
  4   2.033756 0.190472 -0.000128 -0.166768 0.050995 0.256749
  5   2.451511 0.204909 -0.003447 -0.151313 -0.005828 0.289941
  6   7.247600 -0.397300 -0.109469 -0.005236 -0.005252 0.494432
  7   -2.022252 -0.104661 3.136172 1.238875 -1.024594 -4.799459
  8   1.168026 -0.537438 -0.063437 -1.055347 0.370832 -1.121607
  9   6.790376 -0.619176 0.015206 0.057985 -0.114945 -0.504879
 10   8.637599 0.544015 -0.090417 -3.988461 0.202805 -0.503999
 11   6.790465 -0.619039 0.017802 0.033672 -0.094397 -0.367591
 12   -2.022474 -0.104699 -2.873818 -1.163622 1.764361 -4.903069
 13   1.167898 -0.537463 0.063297 0.415719 -0.779535 -0.944373
 14   7.002743 -0.617765 -0.183752 0.374732 -0.307807 -1.793751
 15   8.209042 0.615527 -0.255885 2.185076 0.436265 0.543574
 16   7.002735 -0.617911 -0.183641 0.220861 -0.283426 -1.252756
 17   1.574674 0.609930 -0.000899 0.254770 0.315535 -0.043807
 18   -0.602177 0.511412 -0.000006 0.000000 0.000000 0.000000
 19   3.646428 0.364526 1.119313 -0.000002 -0.000014 -0.174510
 20   3.646422 0.364499 -1.117566 0.000007 -0.000003 -0.174546
 21   3.805634 1.330634 1.627658 0.000002 -0.000011 -0.000026
 22   -0.246060 -0.011889 0.516521 -0.000011 0.000031 0.000025
 23   3.805651 1.330659 -1.631083 0.000019 0.000002 -0.000024
 24   -0.246150 -0.011872 -0.516511 -0.000005 -0.000006 0.000048
 25   4.941364 1.997338 1.629330 0.000018 -0.000001 -0.000024
 26   4.941382 1.997366 -1.629410 -0.000001 0.000005 -0.000024
 27   2.930087 1.603639 1.514501 -0.000019 -0.000022 -0.000050
 28   2.932517 1.603245 -1.501142 -0.000002 -0.000009 -0.000024
 29   8.824059 0.150544 0.091743 0.021038 -0.006617 -0.112785
 30   2.122804 -0.561179 1.753069 -0.000537 0.038927 0.002640
 31   2.140822 -0.561289 -1.834067 0.000092 -0.052191 0.002891
 32   -0.810489 -0.093824 3.127092 3.071872 -0.114782 1.239365
 33   14.298673 -0.408176 0.475484 0.000248 0.000062 -1.896136
 34   15.835795 0.581398 0.242756 -0.214729 0.106889 -0.097869
 35   -0.815868 -0.091229 -3.114430 0.066464 3.132725 -1.010185
 36   14.294526 -0.410349 -0.463635 0.000033 -0.000000 -2.607695
 37   15.834409 0.579420 -0.284600 -0.006092 -0.035255 0.214458
 38   1.147498 -3.453749 -2.823813 0.002126 -0.001579 0.004766
 39   -4.457742 -0.992352 -0.734461 0.002721 0.006016 -0.024035
 40   1.110288 -3.449769 3.237290 -0.000989 -0.001903 0.007820
 41   -4.402589 -1.020066 0.967379 0.000287 0.000575 -0.002384
 42   -0.637936 1.697302 -2.618299 0.017689 0.027570 -0.002635
 43   -0.664068 1.690765 2.806875 -0.020753 -0.031240 0.005395
time 26
  0   -0.967547 0.175787 -20.574476 0.000000 0.000000 -1.572114
  1   -1.093036 0.000002 -0.326057 -1.570809 -1.570703 0.000022
  2   2.262337 0.113614 0.064702 -0.000014 0.000037 0.133477
  3   2.380047 0.353302 0.047440 0.000000 -0.000028 0.176467
  4   2.033756 0.190472 -0.000128 -0.166768 0.050995 0.256749
  5   2.451511 0.204909 -0.003447 -0.151313 -0.005828 0.289941
  6   7.247600 -0.397300 -0.109469 -0.005236 -0.005252 0.494432
  7   -2.022252 -0.104661 3.136172 1.238875 -1.024594 -4.799459
  8   1.168026 -0.537438 -0.063437 -1.055347 0.370832 -1.121607
  9   6.790376 -0.619176 0.015206 0.057985 -0.114945 -0.504879
 10   8.637599 0.544015 -0.090417 -3.988461 0.202805 -0.503999
 11   6.790465 -0.619039 0.017802 0.033672 -0.094397 -0.367591
 12   -2.022474 -0.104699 -2.873818 -1.163622 1.764361 -4.903069
 13   1.167898 -0.537463 0.063297 0.415719 -0.779535 -0.944373
 14   7.002743 -0.617765 -0.183752 0.374732 -0.307807 -1.793751
 15   8.209042 0.615527 -0.255885 2.185076 0.436265 0.543574
 16   7.002735 -0.617911 -0.183641 0.220861 -0.283426 -1.252756
 17   1.574674 0.609930 -0.000899 0.254770 0.315535 -0.043807
 18   -0.602177 0.511412 -0.000006 0.000000 0.000000 0.000000
 19   3.646428 0.364526 1.119313 -0.000002 -0.000014 -0.174510
 20   3.646422 0.364499 -1.117566 0.000007 -0.000003 -0.174546
 21   3.805634 1.330634 1.627658 0.000002 -0.000011 -0.000026
 22   -0.246060 -0.011889 0.516521 -0.000011 0.000031 0.000025
 23   3.805651 1.330659 -1.631083 0.000019 0.000002 -0.000024
 24   -0.246150 -0.011872 -0.516511 -0.000005 -0.000006 0.000048
 25   4.941364 1.997338 1.629330 0.000018 -0.000001 -0.000024
 26   4.941382 1.997366 -1.629410 -0.000001 0.000005 -0.000024
 27   2.930087 1.603639 1.514501 -0.000019 -0.000022 -0.000050
 28   2.932517 1.603245 -1.501142 -0.000002 -0.000009 -0.000024
 29   8.824059 0.150544 0.091743 0.014265 -0.004409 -0.132849
 30   2.118898 -0.561179 1.764788 -0.000361 0.026111 0.001804
 31   2.133009 -0.561289 -1.837973 0.000046 -0.035330 0.001945
 32   -0.810489 -0.093824 3.127092 3.071872 -0.114782 1.239365
 33   14.298673 -0.408176 0.475484 0.000248 0.000062 -1.896136
 34   15.835795 0.581398 0.242756 -0.214729 0.106889 -0.097869
 35   -0.815868 -0.091229 -3.114430 0.066464 3.132725 -1.010185
 36   14.294526 -0.410349 -0.463635 0.000033 -0.000000 -2.607695
 37   15.834409 0.579420 -0.284600 -0.006092 -0.035255 0.214458
 38   1.147498 -3.453749 -2.823813 0.001410 -0.001073 0.003239
 39   -4.457742 -1.011884 -0.738367 0.001846 0.004075 -0.016267
 40   1.110288 -3.449769 3.237290 -0.000674 -0.001276 0.005254
 41   -4.410401 -1.031785 0.967379 0.000191 0.000384 -0.001599
 42   -0.649655 1.697302 -2.641737 0.011973 0.018631 -0.001756
 43   -0.664068 1.698578 2.830313 -0.014031 -0.021134 0.003638
time 27
  0   -0.967547 0.175787 -20.574476 0.000000 0.000000 -1.572114
  1   -1.093036 0.000002 -0.326057 -1.570809 -1.570703 0.000022
  2   2.262337 0.113614 0.064702 -0.000014 0.000037 0.133477
  3   2.380047 0.353302 0.047440 0.000000 -0.000028 0.176467
  4   2.033756 0.190472 -0.000128 -0.166768 0.050995 0.256749
  5   2.451511 0.204909 -0.003447 -0.151313 -0.005828 0.289941
  6   7.247600 -0.397300 -0.109469 -0.005236 -0.005252 0.494432
  7   -2.022252 -0.104661 3.136172 1.238875 -1.024594 -4.799459
  8   1.168026 -0.537438 -0.063437 -1.055347 0.370832 -1.121607
  9   6.790376 -0.619176 0.015206 0.057985 -0.114945 -0.504879
 10   8.637599 0.544015 -0.090417 -3.988461 0.202805 -0.503999
 11   6.790465 -0.619039 0.017802 0.033672 -0.094397 -0.367591
 12   -2.022474 -0.104699 -2.873818 -1.163622 1.764361 -4.903069
 13   1.167898 -0.537463 0.063297 0.415719 -0.779535 -0.944373
 14   7.002743 -0.617765 -0.183752 0.374732 -0.307807 -1.793751
 15   8.209042 0.615527 -0.255885 2.185076 0.436265 0.543574
 16   7.002735 -0.617911 -0.183641 0.220861 -0.283426 -1.252756
 17   1.574674 0.609930 -0.000899 0.254770 0.315535 -0.043807
 18   -0.602177 0.511412 -0.000006 0.000000 0.000000 0.000000
 19   3.646428 0.364526 1.119313 -0.000002 -0.000014 -0.174510
 20   3.646422 0.364499 -1.117566 0.000007 -0.000003 -0.174546
 21   3.805634 1.330634 1.627658 0.000002 -0.000011 -0.000026
 22   -0.246060 -0.011889 0.516521 -0.000011 0.000031 0.000025
 23   3.805651 1.330659 -1.631083 0.000019 0.000002 -0.000024
 24   -0.246150 -0.011872 -0.516511 -0.000005 -0.000006 0.000048
 25   4.941364 1.997338 1.629330 0.000018 -0.000001 -0.000024
 26   4.941382 1.997366 -1.629410 -0.000001 0.000005 -0.000024
 27   2.930087 1.603639 1.514501 -0.000019 -0.000022 -0.000050
 28   2.932517 1.603245 -1.501142 -0.000002 -0.000009 -0.000024
 29   8.824059 0.150544 0.091743 0.008472 -0.002629 -0.149802
 30   2.111085 -0.561179 1.776507 -0.000225 0.015185 0.001075
 31   2.129103 -0.561289 -1.845786 0.000031 -0.020902 0.001163
 32   -0.810489 -0.093824 3.127092 3.071872 -0.114782 1.239365
 33   14.298673 -0.408176 0.475484 0.000248 0.000062 -1.896136
 34   15.835795 0.581398 0.242756 -0.214729 0.106889 -0.097869
 35   -0.815868 -0.091229 -3.114430 0.066464 3.132725 -1.010185
 36   14.294526 -0.410349 -0.463635 0.000033 -0.000000 -2.607695
 37   15.834409 0.579420 -0.284600 -0.006092 -0.035255 0.214458
 38   1.139685 -3.453749 -2.823813 0.000842 -0.000627 0.001895
 39   -4.457742 -1.027509 -0.746180 0.001091 0.002409 -0.009648
 40   1.118101 -3.449769 3.237290 -0.000400 -0.000746 0.003116
 41   -4.426027 -1.043504 0.959566 0.000107 0.000228 -0.000954
 42   -0.649655 1.697302 -2.661269 0.007095 0.011057 -0.001046
 43   -0.664068 1.698578 2.849845 -0.008309 -0.012520 0.002133
time 28
  0   -0.967547 0.175787 -20.574476 0.000000 0.000000 -1.572114
  1   -1.093036 0.000002 -0.326057 -1.570809 -1.570703 0.000022
  2   2.262337 0.113614 0.064702 -0.000014 0.000037 0.133477
  3   2.380047 0.353302 0.047440 0.000000 -0.000028 0.176467
  4   2.033756 0.190472 -0.000128 -0.166768 0.050995 0.256749
  5   2.451511 0.204909 -0.003447 -0.151313 -0.005828 0.289941
  6   7.247600 -0.397300 -0.109469 -0.005236 -0.005252 0.494432
  7   -2.022252 -0.104661 3.136172 1.238875 -1.024594 -4.799459
  8   1.168026 -0.537438 -0.063437 -1.055347 0.370832 -1.121607
  9   6.790376 -0.619176 0.015206 0.057985 -0.114945 -0.504879
 10   8.637599 0.544015 -0.090417 -3.988461 0.202805 -0.503999
 11   6.790465 -0.619039 0.017802 0.033672 -0.094397 -0.367591
 12   -2.022474 -0.104699 -2.873818 -1.163622 1.764361 -4.903069
 13   1.167898 -0.537463 0.063297 0.415719 -0.779535 -0.944373
 14   7.002743 -0.617765 -0.183752 0.374732 -0.307807 -1.793751
 15   8.209042 0.615527 -0.255885 2.185076 0.436265 0.543574
 16   7.002735 -0.617911 -0.183641 0.220861 -0.283426 -1.252756
 17   1.574674 0.609930 -0.000899 0.254770 0.315535 -0.043807
 18   -0.602177 0.511412 -0.000006 0.000000 0.000000 0.000000
 19   3.646428 0.364526 1.119313 -0.000002 -0.000014 -0.174510
 20   3.646422 0.364499 -1.117566 0.000007 -0.000003 -0.174546
 21   3.805634 1.330634 1.627658 0.000002 -0.000011 -0.000026
 22   -0.246060 -0.011889 0.516521 -0.000011 0.000031 0.000025
 23   3.805651 1.330659 -1.631083 0.000019 0.000002 -0.000024
 24   -0.246150 -0.011872 -0.516511 -0.000005 -0.000006 0.000048
 25   4.941364 1.997338 1.629330 0.000018 -0.000001 -0.000024
 26   4.941382 1.997366 -1.629410 -0.000001 0.000005 -0.000024
 27   2.930087 1.603639 1.514501 -0.000019 -0.000022 -0.000050
 28   2.932517 1.603245 -1.501142 -0.000002 -0.000009 -0.000024
 29   8.824059 0.150544 0.091743 0.003838 -0.001323 -0.163053
 30   2.111085 -0.561179 1.784320 -0.000103 0.006728 0.000496
 31   2.121290 -0.561289 -1.853599 0.000000 -0.009765 0.000544
 32   -0.810489 -0.093824 3.127092 3.071872 -0.114782 1.239365
 33   14.298673 -0.408176 0.475484 0.000248 0.000062 -1.896136
 34   15.835795 0.581398 0.242756 -0.214729 0.106889 -0.097869
 35   -0.815868 -0.091229 -3.114430 0.066464 3.132725 -1.010185
 36   14.294526 -0.410349 -0.463635 0.000033 -0.000000 -2.607695
 37   15.834409 0.579420 -0.284600 -0.006092 -0.035255 0.214458
 38   1.139685 -3.453749 -2.823813 0.000400 -0.000277 0.000795
 39   -4.457742 -1.047041 -0.746180 0.000491 0.001127 -0.004459
 40   1.118101 -3.449769 3.237290 -0.000168 -0.000336 0.001405
 41   -4.433840 -1.051317 0.959566 0.000047 0.000108 -0.000449
 42   -0.657468 1.697302 -2.680801 0.003308 0.005169 -0.000418
 43   -0.664068 1.698578 2.861564 -0.003886 -0.005851 0.001004
time 29
  0   -0.967547 0.175787 -20.574476 0.000000 0.000000 -1.572114
  1   -1.093036 0.000002 -0.326057 -1.570809 -1.570703 0.000022
  2   2.262337 0.113614 0.064702 -0.000014 0.000037 0.133477
  3   2.380047 0.353302 0.047440 0.000000 -0.000028 0.176467
  4   2.033756 0.190472 -0.000128 -0.166768 0.050995 0.256749
  5   2.451511 0.204909 -0.003447 -0.151313 -0.005828 0.289941
  6   7.247600 -0.397300 -0.109469 -0.005236 -0.005252 0.494432
  7   -2.022252 -0.104661 3.136172 1.238875 -1.024594 -4.799459
  8   1.168026 -0.537438 -0.063437 -1.055347 0.370832 -1.121607
  9   6.790376 -0.619176 0.015206 0.057985 -0.114945 -0.504879
 10   8.637599 0.544015 -0.090417 -3.988461 0.202805 -0.503999
 11   6.790465 -0.619039 0.017802 0.033672 -0.094397 -0.367591
 12   -2.022474 -0.104699 -2.873818 -1.163622 1.764361 -4.903069
 13   1.167898 -0.537463 0.063297 0.415719 -0.779535 -0.944373
 14   7.002743 -0.617765 -0.183752 0.374732 -0.307807 -1.793751
 15   8.209042 0.615527 -0.255885 2.185076 0.436265 0.543574
 16   7.002735 -0.617911 -0.183641 0.220861 -0.283426 -1.252756
 17   1.574674 0.609930 -0.000899 0.254770 0.315535 -0.043807
 18   -0.602177 0.511412 -0.000006 0.000000 0.000000 0.000000
 19   3.646428 0.364526 1.119313 -0.000002 -0.000014 -0.174510
 20   3.646422 0.364499 -1.117566 0.000007 -0.000003 -0.174546
 21   3.805634 1.330634 1.627658 0.000002 -0.000011 -0.000026
 22   -0.246060 -0.011889 0.516521 -0.000011 0.000031 0.000025
 23   3.805651 1.330659 -1.631083 0.000019 0.000002 -0.000024
 24   -0.246150 -0.011872 -0.516511 -0.000005 -0.000006 0.000048
 25   4.941364 1.997338 1.629330 0.000018 -0.000001 -0.000024
 26   4.941382 1.997366 -1.629410 -0.000001 0.000005 -0.000024
 27   2.930087 1.603639 1.514501 -0.000019 -0.000022 -0.000050
 28   2.932517 1.603245 -1.501142 -0.000002 -0.000009 -0.000024
 29   8.824059 0.150544 0.091743 0.000897 -0.000468 -0.171583
 30   2.111085 -0.561179 1.784320 -0.000022 0.001236 0.000153
 31   2.121290 -0.561289 -1.853599 0.000000 -0.002538 0.000107
 32   -0.810489 -0.093824 3.127092 3.071872 -0.114782 1.239365
 33   14.298673 -0.408176 0.475484 0.000248 0.000062 -1.896136
 34   15.835795 0.581398 0.242756 -0.214729 0.106889 -0.097869
 35   -0.815868 -0.091229 -3.114430 0.066464 3.132725 -1.010185
 36   14.294526 -0.410349 -0.463635 0.000033 -0.000000 -2.607695
 37   15.834409 0.579420 -0.284600 -0.006092 -0.035255 0.214458
 38   1.139685 -3.453749 -2.823813 0.000063 -0.000060 0.000123
 39   -4.457742 -1.054854 -0.746180 0.000132 0.000288 -0.001178
 40   1.118101 -3.449769 3.237290 -0.000021 -0.000071 0.000367
 41   -4.433840 -1.059130 0.959566 0.000011 0.000024 -0.000084
 42   -0.657468 1.697302 -2.688614 0.000863 0.001336 -0.000084
 43   -0.664068 1.698578 2.869377 -0.001000 -0.001504 0.000251
time 30
  0   -0.967547 0.175787 -20.574476 0.000000 0.000000 -1.572114
  1   -1.093036 0.000002 -0.326057 -1.570809 -1.570703 0.000022
  2   2.262337 0.113614 0.064702 -0.000014 0.000037 0.133477
  3   2.380047 0.353302 0.047440 0.000000 -0.000028 0.176467
  4   2.033756 0.190472 -0.000128 -0.166768 0.050995 0.256749
  5   2.451511 0.204909 -0.003447 -0.151313 -0.005828 0.289941
  6   7.247600 -0.397300 -0.109469 -0.005236 -0.005252 0.494432
  7   -2.022252 -0.104661 3.136172 1.238875 -1.024594 -4.799459
  8   1.168026 -0.537438 -0.063437 -1.055347 0.370832 -1.121607
  9   6.790376 -0.619176 0.015206 0.057985 -0.114945 -0.504879
 10   8.637599 0.544015 -0.090417 -3.988461 0.202805 -0.503999
 11   6.790465 -0.619039 0.017802 0.033672 -0.094397 -0.367591
 12   -2.022474 -0.104699 -2.873818 -1.163622 1.764361 -4.903069
 13   1.167898 -0.537463 0.063297 0.415719 -0.779535 -0.944373
 14   7.002743 -0.617765 -0.183752 0.374732 -0.307807 -1.793751
 15   8.209042 0.615527 -0.255885 2.185076 0.436265 0.543574
 16   7.002735 -0.617911 -0.183641 0.220861 -0.283426 -1.252756
 17   1.574674 0.609930 -0.000899 0.254770 0.315535 -0.043807
 18   -0.602177 0.511412 -0.000006 0.000000 0.000000 0.000000
 19   3.646428 0.364526 1.119313 -0.000002 -0.000014 -0.174510
 20   3.646422 0.364499 -1.117566 0.000007 -0.000003 -0.174546
 21   3.805634 1.330634 1.627658 0.000002 -0.000011 -0.000026
 22   -0.246060 -0.011889 0.516521 -0.000011 0.000031 0.000025
 23   3.805651 1.330659 -1.631083 0.000019 0.000002 -0.000024
 24   -0.246150 -0.011872 -0.516511 -0.000005 -0.000006 0.000048
 25   4.941364 1.997338 1.629330 0.000018 -0.000001 -0.000024
 26   4.941382 1.997366 -1.629410 -0.000001 0.000005 -0.000024
 27   2.930087 1.603639 1.514501 -0.000019 -0.000022 -0.000050
 28   2.932517 1.603245 -1.501142 -0.000002 -0.000009 -0.000024
 29   8.824059 0.150544 0.091743 0.000006 -0.000231 -0.174534
 30   2.111085 -0.561179 1.784320 -0.000008 -0.000682 0.000024
 31   2.121290 -0.561289 -1.853599 0.000000 0.000000 -0.000002
 32   -0.810489 -0.093824 3.127092 3.071872 -0.114782 1.239365
 33   14.298673 -0.408176 0.475484 0.000248 0.000062 -1.896136
 34   15.835795 0.581398 0.242756 -0.214729 0.106889 -0.097869
 35   -0.815868 -0.091229 -3.114430 0.066464 3.132725 -1.010185
 36   14.294526 -0.410349 -0.463635 0.000033 -0.000000 -2.607695
 37   15.834409 0.579420 -0.284600 -0.006092 -0.035255 0.214458
 38   1.139685 -3.453749 -2.823813 0.000000 0.000000 0.000001
 39   -4.457742 -1.054854 -0.746180 0.000000 0.000000 0.000000
 40   1.118101 -3.449769 3.237290 0.000000 0.000001 0.000000
 41   -4.433840 -1.059130 0.959566 -0.000001 0.000000 0.000000
 42   -0.657468 1.697302 -2.688614 0.000000 0.000002 0.000000
 43   -0.664068 1.698578 2.869377 0.000000 0.000002 0.000000
end
