version 1
nodes
  0 "Bip01" -1
  1 "Bip01 Pelvis" 0
  2 "Bip01 Spine" 1
  3 "Bip01 Spine1" 2
  4 "Bip01 Spine2" 3
  5 "Bip01 Spine3" 4
  6 "Bip01 Neck" 5
  7 "Bip01 L Arm" 6
  8 "Bip01 L Arm1" 7
  9 "Bip01 L Arm2" 8
 10 "Bip01 L Hand" 9
 11 "Bip06 L elbow2-smooth" 8
 12 "Bip01 R Arm" 6
 13 "Bip01 R Arm1" 12
 14 "Bip01 R Arm2" 13
 15 "Bip01 R Hand" 14
 16 "Bip06 R elbow2-smooth" 13
 17 "Bip01 Head" 6
 18 "Bip06 Head_helper" 17
 19 "Bip06 Head_eyes_l" 18
 20 "Bip06 Head_eyes_r" 18
 21 "Bip06 Head_blink_l" 18
 22 "Bip06 Head_blink_smooth_l1" 21
 23 "Bip06 Head_blink_r" 18
 24 "Bip06 Head_blink_smooth_r1" 23
 25 "Bip06 Head_L_eyebrow" 18
 26 "Bip06 Head_R_eyebrow" 18
 27 "Bip06 Head_blink_l_lid" 18
 28 "Bip06 Head_blink_r_lid" 18
 29 "Bip06 bunny" 18
 30 "Bip06 bunnyL" 29
 31 "Bip06 bunnyR" 29
 32 "Bip01 L Leg" 1
 33 "Bip01 L Leg1" 32
 34 "Bip01 L Foot" 33
 35 "Bip01 R Leg" 1
 36 "Bip01 R Leg1" 35
 37 "Bip01 R Foot" 36
 38 "Bip03 HairR1" 17
 39 "Bip03 HairR2" 38
 40 "Bip03 HairL1" 17
 41 "Bip03 HairL2" 40
 42 "Bip03 swingR" 17
 43 "Bip03 swingL" 17
end
skeleton
time 0
  0   -0.967547 0.175787 -20.574476 0.000000 0.000000 -1.572114
  1   -1.093036 0.000002 -0.326057 -1.569027 -1.622749 -0.001768
  2   2.262337 0.113614 0.064702 -0.056518 -0.089632 0.317402
  3   2.380047 0.353302 0.047440 -0.109852 -0.036965 0.321571
  4   2.033756 0.190472 -0.000128 -0.137721 -0.069810 0.012009
  5   2.451511 0.204909 -0.003447 -0.370443 -0.026051 -0.029904
  6   7.247600 -0.397300 -0.109469 0.056796 0.015841 0.258541
  7   -2.022252 -0.104661 3.136172 1.039203 -1.365783 -4.434417
  8   1.168026 -0.537438 -0.063437 -1.100466 0.841523 -0.892541
  9   6.790376 -0.619176 0.015206 0.117404 -0.065357 -1.328833
 10   8.637599 0.544015 -0.090417 -3.347173 0.249685 0.718692
 11   6.790465 -0.619039 0.017802 0.076415 -0.074386 -0.944859
 12   -2.022474 -0.104699 -2.873818 -0.202102 1.687361 -3.578395
 13   1.167898 -0.537463 0.063297 0.163855 -0.905854 -1.206791
 14   7.002743 -0.617765 -0.183752 -0.100541 0.021090 -2.051828
 15   8.209042 0.615527 -0.255885 2.523810 0.154888 0.944931
 16   7.002735 -0.617911 -0.183641 -0.056220 0.049490 -1.454927
 17   1.574674 0.609930 -0.000899 0.504380 0.018302 0.495935
 18   -0.602177 0.511412 -0.000006 0.000000 0.000000 0.000000
 19   3.673773 0.177020 1.119313 -0.000002 -0.000014 -0.174510
 20   3.673767 0.176993 -1.117566 0.000007 -0.000003 -0.174546
 21   3.942357 1.330634 1.627658 0.000002 -0.000011 -0.000026
 22   -0.246060 -0.011889 0.516521 -0.000011 0.000031 0.000025
 23   3.942374 1.330659 -1.631083 0.000019 0.000002 -0.000024
 24   -0.246150 -0.011872 -0.516511 -0.000005 -0.000006 0.000048
 25   4.941364 1.997338 1.629330 0.000018 -0.000001 -0.000024
 26   4.941382 1.997366 -1.629410 -0.000001 0.000005 -0.000024
 27   2.918368 1.615358 1.514501 -0.000019 -0.000022 -0.000050
 28   2.920798 1.614964 -1.501142 -0.000002 -0.000009 -0.000024
 29   8.824059 0.150544 0.091743 0.000006 -0.000231 -0.174534
 30   2.111085 -0.561179 1.784320 -0.000008 -0.000682 0.000024
 31   2.121290 -0.561289 -1.853599 0.000000 0.000000 -0.000002
 32   -0.810489 -0.093824 3.127092 3.071872 -0.114782 1.239365
 33   14.298673 -0.408176 0.475484 0.000248 0.000062 -1.896136
 34   15.835795 0.581398 0.242756 -0.214729 0.106889 -0.097869
 35   -0.815868 -0.091229 -3.114430 0.066464 3.132725 -1.010185
 36   14.294526 -0.410349 -0.463635 0.000033 -0.000000 -2.607695
 37   15.834409 0.579420 -0.284600 -0.006092 -0.035255 0.214458
 38   1.139685 -3.453749 -2.823813 0.000000 0.000000 0.000001
 39   -4.457742 -1.054854 -0.746180 0.000000 0.000000 0.000000
 40   1.118101 -3.449769 3.237290 0.000000 0.000001 0.000000
 41   -4.433840 -1.059130 0.959566 -0.000001 0.000000 0.000000
 42   -0.657468 1.697302 -2.688614 0.000000 0.000002 0.000000
 43   -0.664068 1.698578 2.869377 0.000000 0.000002 0.000000
time 1
  0   -0.967547 0.175787 -20.574476 0.000000 0.000000 -1.572114
  1   -1.093036 0.000002 -0.326057 -1.569027 -1.622749 -0.001768
  2   2.262337 0.113614 0.064702 -0.056518 -0.089632 0.317402
  3   2.380047 0.353302 0.047440 -0.109852 -0.036965 0.321571
  4   2.033756 0.190472 -0.000128 -0.137721 -0.069810 0.012009
  5   2.451511 0.204909 -0.003447 -0.387235 0.000896 -0.110986
  6   7.247600 -0.397300 -0.109469 0.056796 0.015841 0.258541
  7   -2.022252 -0.104661 3.136172 1.039203 -1.365783 -4.434417
  8   1.168026 -0.537438 -0.063437 -1.121412 0.924944 -0.886721
  9   6.790376 -0.619176 0.015206 0.227087 -0.002688 -1.562027
 10   8.637599 0.544015 -0.090417 -3.347173 0.249685 0.718692
 11   6.790465 -0.619039 0.017802 0.165347 -0.050992 -1.110328
 12   -2.022474 -0.104699 -2.873818 -0.202102 1.687361 -3.578395
 13   1.167898 -0.537463 0.063297 0.039434 -0.944960 -1.129488
 14   7.002743 -0.617765 -0.183752 -0.287792 0.125461 -2.217004
 15   8.209042 0.615527 -0.255885 2.523810 0.154888 0.944931
 16   7.002735 -0.617911 -0.183641 -0.168493 0.175912 -1.566251
 17   1.574674 0.609930 -0.000899 0.478871 -0.029150 0.564609
 18   -0.602177 0.511412 -0.000006 0.000000 0.000000 0.000000
 19   3.673773 0.177020 1.119313 -0.000002 -0.000014 -0.174510
 20   3.673767 0.176993 -1.117566 0.000007 -0.000003 -0.174546
 21   3.942357 1.330634 1.627658 0.000002 -0.000011 -0.000026
 22   -0.246060 -0.011889 0.516521 -0.000011 0.000031 0.000025
 23   3.942374 1.330659 -1.631083 0.000019 0.000002 -0.000024
 24   -0.246150 -0.011872 -0.516511 -0.000005 -0.000006 0.000048
 25   4.941364 1.997338 1.629330 0.000018 -0.000001 -0.000024
 26   4.941382 1.997366 -1.629410 -0.000001 0.000005 -0.000024
 27   2.918368 1.615358 1.514501 -0.000019 -0.000022 -0.000050
 28   2.920798 1.614964 -1.501142 -0.000002 -0.000009 -0.000024
 29   8.824059 0.150544 0.091743 0.000006 -0.000231 -0.174534
 30   2.111085 -0.561179 1.784320 -0.000008 -0.000682 0.000024
 31   2.121290 -0.561289 -1.853599 0.000000 0.000000 -0.000002
 32   -0.810489 -0.093824 3.127092 3.071872 -0.114782 1.239365
 33   14.298673 -0.408176 0.475484 0.000248 0.000062 -1.896136
 34   15.835795 0.581398 0.242756 -0.214729 0.106889 -0.097869
 35   -0.815868 -0.091229 -3.114430 0.066464 3.132725 -1.010185
 36   14.294526 -0.410349 -0.463635 0.000033 -0.000000 -2.607695
 37   15.834409 0.579420 -0.284600 -0.006092 -0.035255 0.214458
 38   1.139685 -3.453749 -2.823813 0.000000 0.000000 0.000001
 39   -4.457742 -1.054854 -0.746180 0.000000 0.000000 0.000000
 40   1.118101 -3.449769 3.237290 0.000000 0.000001 0.000000
 41   -4.433840 -1.059130 0.959566 -0.000001 0.000000 0.000000
 42   -0.657468 1.697302 -2.688614 0.000000 0.000002 0.000000
 43   -0.664068 1.698578 2.869377 0.000000 0.000002 0.000000
time 2
  0   -0.967547 0.175787 -20.574476 0.000000 0.000000 -1.572114
  1   -1.093036 0.000002 -0.326057 -1.569027 -1.622749 -0.001768
  2   2.262337 0.113614 0.064702 -0.056518 -0.089632 0.317402
  3   2.380047 0.353302 0.047440 -0.109852 -0.036965 0.321571
  4   2.033756 0.190472 -0.000128 -0.137721 -0.069810 0.012009
  5   2.451511 0.204909 -0.003447 -0.385677 -0.001428 -0.103780
  6   7.247600 -0.397300 -0.109469 0.056796 0.015841 0.258541
  7   -2.022252 -0.104661 3.136172 1.039203 -1.365783 -4.434417
  8   1.168026 -0.537438 -0.063437 -1.119387 0.917598 -0.887037
  9   6.790376 -0.619176 0.015206 0.217378 -0.008360 -1.541349
 10   8.637599 0.544015 -0.090417 -3.347173 0.249685 0.718692
 11   6.790465 -0.619039 0.017802 0.157289 -0.052868 -1.095621
 12   -2.022474 -0.104699 -2.873818 -0.202102 1.687361 -3.578395
 13   1.167898 -0.537463 0.063297 0.050682 -0.941502 -1.136510
 14   7.002743 -0.617765 -0.183752 -0.271111 0.116205 -2.202152
 15   8.209042 0.615527 -0.255885 2.523810 0.154888 0.944931
 16   7.002735 -0.617911 -0.183641 -0.158655 0.164296 -1.556482
 17   1.574674 0.609930 -0.000899 0.481146 -0.024937 0.558436
 18   -0.602177 0.511412 -0.000006 0.000000 0.000000 0.000000
 19   3.673773 0.177020 1.119313 -0.000002 -0.000014 -0.174510
 20   3.673767 0.176993 -1.117566 0.000007 -0.000003 -0.174546
 21   3.942357 1.330634 1.627658 0.000002 -0.000011 -0.000026
 22   -0.246060 -0.011889 0.516521 -0.000011 0.000031 0.000025
 23   3.942374 1.330659 -1.631083 0.000019 0.000002 -0.000024
 24   -0.246150 -0.011872 -0.516511 -0.000005 -0.000006 0.000048
 25   4.941364 1.997338 1.629330 0.000018 -0.000001 -0.000024
 26   4.941382 1.997366 -1.629410 -0.000001 0.000005 -0.000024
 27   2.918368 1.615358 1.514501 -0.000019 -0.000022 -0.000050
 28   2.920798 1.614964 -1.501142 -0.000002 -0.000009 -0.000024
 29   8.824059 0.150544 0.091743 0.000006 -0.000231 -0.174534
 30   2.111085 -0.561179 1.784320 -0.000008 -0.000682 0.000024
 31   2.121290 -0.561289 -1.853599 0.000000 0.000000 -0.000002
 32   -0.810489 -0.093824 3.127092 3.071872 -0.114782 1.239365
 33   14.298673 -0.408176 0.475484 0.000248 0.000062 -1.896136
 34   15.835795 0.581398 0.242756 -0.214729 0.106889 -0.097869
 35   -0.815868 -0.091229 -3.114430 0.066464 3.132725 -1.010185
 36   14.294526 -0.410349 -0.463635 0.000033 -0.000000 -2.607695
 37   15.834409 0.579420 -0.284600 -0.006092 -0.035255 0.214458
 38   1.139685 -3.453749 -2.823813 0.000000 0.000000 0.000001
 39   -4.457742 -1.054854 -0.746180 0.000000 0.000000 0.000000
 40   1.118101 -3.449769 3.237290 0.000000 0.000001 0.000000
 41   -4.433840 -1.059130 0.959566 -0.000001 0.000000 0.000000
 42   -0.657468 1.697302 -2.688614 0.000000 0.000002 0.000000
 43   -0.664068 1.698578 2.869377 0.000000 0.000002 0.000000
time 3
  0   -0.967547 0.175787 -20.574476 0.000000 0.000000 -1.572114
  1   -1.093036 0.000002 -0.326057 -1.569027 -1.622749 -0.001768
  2   2.262337 0.113614 0.064702 -0.056518 -0.089632 0.317402
  3   2.380047 0.353302 0.047440 -0.109852 -0.036965 0.321571
  4   2.033756 0.190472 -0.000128 -0.137721 -0.069810 0.012009
  5   2.451511 0.204909 -0.003447 -0.381552 -0.008191 -0.083472
  6   7.247600 -0.397300 -0.109469 0.056796 0.015841 0.258541
  7   -2.022252 -0.104661 3.136172 1.039203 -1.365783 -4.434417
  8   1.168026 -0.537438 -0.063437 -1.113755 0.896768 -0.888239
  9   6.790376 -0.619176 0.015206 0.189971 -0.024044 -1.483088
 10   8.637599 0.544015 -0.090417 -3.347173 0.249685 0.718692
 11   6.790465 -0.619039 0.017802 0.134720 -0.058411 -1.054095
 12   -2.022474 -0.104699 -2.873818 -0.202102 1.687361 -3.578395
 13   1.167898 -0.537463 0.063297 0.082103 -0.931789 -1.156063
 14   7.002743 -0.617765 -0.183752 -0.224370 0.090140 -2.160735
 15   8.209042 0.615527 -0.255885 2.523810 0.154888 0.944931
 16   7.002735 -0.617911 -0.183641 -0.130739 0.132042 -1.528996
 17   1.574674 0.609930 -0.000899 0.487482 -0.013009 0.541323
 18   -0.602177 0.511412 -0.000006 0.000000 0.000000 0.000000
 19   3.673773 0.177020 1.119313 -0.000002 -0.000014 -0.174510
 20   3.673767 0.176993 -1.117566 0.000007 -0.000003 -0.174546
 21   3.942357 1.330634 1.627658 0.000002 -0.000011 -0.000026
 22   -0.246060 -0.011889 0.516521 -0.000011 0.000031 0.000025
 23   3.942374 1.330659 -1.631083 0.000019 0.000002 -0.000024
 24   -0.246150 -0.011872 -0.516511 -0.000005 -0.000006 0.000048
 25   4.941364 1.997338 1.629330 0.000018 -0.000001 -0.000024
 26   4.941382 1.997366 -1.629410 -0.000001 0.000005 -0.000024
 27   2.918368 1.615358 1.514501 -0.000019 -0.000022 -0.000050
 28   2.920798 1.614964 -1.501142 -0.000002 -0.000009 -0.000024
 29   8.824059 0.150544 0.091743 0.000006 -0.000231 -0.174534
 30   2.111085 -0.561179 1.784320 -0.000008 -0.000682 0.000024
 31   2.121290 -0.561289 -1.853599 0.000000 0.000000 -0.000002
 32   -0.810489 -0.093824 3.127092 3.071872 -0.114782 1.239365
 33   14.298673 -0.408176 0.475484 0.000248 0.000062 -1.896136
 34   15.835795 0.581398 0.242756 -0.214729 0.106889 -0.097869
 35   -0.815868 -0.091229 -3.114430 0.066464 3.132725 -1.010185
 36   14.294526 -0.410349 -0.463635 0.000033 -0.000000 -2.607695
 37   15.834409 0.579420 -0.284600 -0.006092 -0.035255 0.214458
 38   1.139685 -3.453749 -2.823813 0.000000 0.000000 0.000001
 39   -4.457742 -1.054854 -0.746180 0.000000 0.000000 0.000000
 40   1.118101 -3.449769 3.237290 0.000000 0.000001 0.000000
 41   -4.433840 -1.059130 0.959566 -0.000001 0.000000 0.000000
 42   -0.657468 1.697302 -2.688614 0.000000 0.000002 0.000000
 43   -0.664068 1.698578 2.869377 0.000000 0.000002 0.000000
time 4
  0   -0.967547 0.175787 -20.574476 0.000000 0.000000 -1.572114
  1   -1.093036 0.000002 -0.326057 -1.569027 -1.622749 -0.001768
  2   2.262337 0.113614 0.064702 -0.056518 -0.089632 0.317402
  3   2.380047 0.353302 0.047440 -0.109852 -0.036965 0.321571
  4   2.033756 0.190472 -0.000128 -0.137721 -0.069810 0.012009
  5   2.451511 0.204909 -0.003447 -0.376160 -0.016886 -0.057394
  6   7.247600 -0.397300 -0.109469 0.056796 0.015841 0.258541
  7   -2.022252 -0.104661 3.136172 1.039203 -1.365783 -4.434417
  8   1.168026 -0.537438 -0.063437 -1.106984 0.869850 -0.890137
  9   6.790376 -0.619176 0.015206 0.154908 -0.044200 -1.407998
 10   8.637599 0.544015 -0.090417 -3.347173 0.249685 0.718692
 11   6.790465 -0.619039 0.017802 0.106166 -0.065972 -1.000919
 12   -2.022474 -0.104699 -2.873818 -0.202102 1.687361 -3.578395
 13   1.167898 -0.537463 0.063297 0.122100 -0.919279 -1.180882
 14   7.002743 -0.617765 -0.183752 -0.164135 0.056637 -2.107684
 15   8.209042 0.615527 -0.255885 2.523810 0.154888 0.944931
 16   7.002735 -0.617911 -0.183641 -0.094633 0.091499 -1.493286
 17   1.574674 0.609930 -0.000899 0.495728 0.002185 0.519221
 18   -0.602177 0.511412 -0.000006 0.000000 0.000000 0.000000
 19   3.673773 0.177020 1.119313 -0.000002 -0.000014 -0.174510
 20   3.673767 0.176993 -1.117566 0.000007 -0.000003 -0.174546
 21   3.942357 1.330634 1.627658 0.000002 -0.000011 -0.000026
 22   -0.246060 -0.011889 0.516521 -0.000011 0.000031 0.000025
 23   3.942374 1.330659 -1.631083 0.000019 0.000002 -0.000024
 24   -0.246150 -0.011872 -0.516511 -0.000005 -0.000006 0.000048
 25   4.941364 1.997338 1.629330 0.000018 -0.000001 -0.000024
 26   4.941382 1.997366 -1.629410 -0.000001 0.000005 -0.000024
 27   2.918368 1.615358 1.514501 -0.000019 -0.000022 -0.000050
 28   2.920798 1.614964 -1.501142 -0.000002 -0.000009 -0.000024
 29   8.824059 0.150544 0.091743 0.000006 -0.000231 -0.174534
 30   2.111085 -0.561179 1.784320 -0.000008 -0.000682 0.000024
 31   2.121290 -0.561289 -1.853599 0.000000 0.000000 -0.000002
 32   -0.810489 -0.093824 3.127092 3.071872 -0.114782 1.239365
 33   14.298673 -0.408176 0.475484 0.000248 0.000062 -1.896136
 34   15.835795 0.581398 0.242756 -0.214729 0.106889 -0.097869
 35   -0.815868 -0.091229 -3.114430 0.066464 3.132725 -1.010185
 36   14.294526 -0.410349 -0.463635 0.000033 -0.000000 -2.607695
 37   15.834409 0.579420 -0.284600 -0.006092 -0.035255 0.214458
 38   1.139685 -3.453749 -2.823813 0.000000 0.000000 0.000001
 39   -4.457742 -1.054854 -0.746180 0.000000 0.000000 0.000000
 40   1.118101 -3.449769 3.237290 0.000000 0.000001 0.000000
 41   -4.433840 -1.059130 0.959566 -0.000001 0.000000 0.000000
 42   -0.657468 1.697302 -2.688614 0.000000 0.000002 0.000000
 43   -0.664068 1.698578 2.869377 0.000000 0.000002 0.000000
time 5
  0   -0.967547 0.175787 -20.574476 0.000000 0.000000 -1.572114
  1   -1.093036 0.000002 -0.326057 -1.569027 -1.622749 -0.001768
  2   2.262337 0.113614 0.064702 -0.056518 -0.089632 0.317402
  3   2.380047 0.353302 0.047440 -0.109852 -0.036965 0.321571
  4   2.033756 0.190472 -0.000128 -0.137721 -0.069810 0.012009
  5   2.451511 0.204909 -0.003447 -0.371915 -0.023675 -0.037111
  6   7.247600 -0.397300 -0.109469 0.056796 0.015841 0.258541
  7   -2.022252 -0.104661 3.136172 1.039203 -1.365783 -4.434417
  8   1.168026 -0.537438 -0.063437 -1.102238 0.849070 -0.891972
  9   6.790376 -0.619176 0.015206 0.127279 -0.059884 -1.349586
 10   8.637599 0.544015 -0.090417 -3.347173 0.249685 0.718692
 11   6.790465 -0.619039 0.017802 0.084181 -0.072140 -0.959566
 12   -2.022474 -0.104699 -2.873818 -0.202102 1.687361 -3.578395
 13   1.167898 -0.537463 0.063297 0.153030 -0.909363 -1.200011
 14   7.002743 -0.617765 -0.183752 -0.117166 0.030460 -2.066349
 15   8.209042 0.615527 -0.255885 2.523810 0.154888 0.944931
 16   7.002735 -0.617911 -0.183641 -0.066294 0.060429 -1.465138
 17   1.574674 0.609930 -0.000899 0.502105 0.014090 0.502071
 18   -0.602177 0.511412 -0.000006 0.000000 0.000000 0.000000
 19   3.673773 0.177020 1.119313 -0.000002 -0.000014 -0.174510
 20   3.673767 0.176993 -1.117566 0.000007 -0.000003 -0.174546
 21   3.942357 1.330634 1.627658 0.000002 -0.000011 -0.000026
 22   -0.246060 -0.011889 0.516521 -0.000011 0.000031 0.000025
 23   3.942374 1.330659 -1.631083 0.000019 0.000002 -0.000024
 24   -0.246150 -0.011872 -0.516511 -0.000005 -0.000006 0.000048
 25   4.941364 1.997338 1.629330 0.000018 -0.000001 -0.000024
 26   4.941382 1.997366 -1.629410 -0.000001 0.000005 -0.000024
 27   2.918368 1.615358 1.514501 -0.000019 -0.000022 -0.000050
 28   2.920798 1.614964 -1.501142 -0.000002 -0.000009 -0.000024
 29   8.824059 0.150544 0.091743 0.000006 -0.000231 -0.174534
 30   2.111085 -0.561179 1.784320 -0.000008 -0.000682 0.000024
 31   2.121290 -0.561289 -1.853599 0.000000 0.000000 -0.000002
 32   -0.810489 -0.093824 3.127092 3.071872 -0.114782 1.239365
 33   14.298673 -0.408176 0.475484 0.000248 0.000062 -1.896136
 34   15.835795 0.581398 0.242756 -0.214729 0.106889 -0.097869
 35   -0.815868 -0.091229 -3.114430 0.066464 3.132725 -1.010185
 36   14.294526 -0.410349 -0.463635 0.000033 -0.000000 -2.607695
 37   15.834409 0.579420 -0.284600 -0.006092 -0.035255 0.214458
 38   1.139685 -3.453749 -2.823813 0.000000 0.000000 0.000001
 39   -4.457742 -1.054854 -0.746180 0.000000 0.000000 0.000000
 40   1.118101 -3.449769 3.237290 0.000000 0.000001 0.000000
 41   -4.433840 -1.059130 0.959566 -0.000001 0.000000 0.000000
 42   -0.657468 1.697302 -2.688614 0.000000 0.000002 0.000000
 43   -0.664068 1.698578 2.869377 0.000000 0.000002 0.000000
time 6
  0   -0.967547 0.175787 -20.574476 0.000000 0.000000 -1.572114
  1   -1.093036 0.000002 -0.326057 -1.569027 -1.622749 -0.001768
  2   2.262337 0.113614 0.064702 -0.056518 -0.089632 0.317402
  3   2.380047 0.353302 0.047440 -0.109852 -0.036965 0.321571
  4   2.033756 0.190472 -0.000128 -0.137721 -0.069810 0.012009
  5   2.451511 0.204909 -0.003447 -0.370443 -0.026051 -0.029904
  6   7.247600 -0.397300 -0.109469 0.056796 0.015841 0.258541
  7   -2.022252 -0.104661 3.136172 1.039203 -1.365783 -4.434417
  8   1.168026 -0.537438 -0.063437 -1.100466 0.841523 -0.892541
  9   6.790376 -0.619176 0.015206 0.117404 -0.065357 -1.328833
 10   8.637599 0.544015 -0.090417 -3.347173 0.249685 0.718692
 11   6.790465 -0.619039 0.017802 0.076415 -0.074386 -0.944859
 12   -2.022474 -0.104699 -2.873818 -0.202102 1.687361 -3.578395
 13   1.167898 -0.537463 0.063297 0.163855 -0.905854 -1.206791
 14   7.002743 -0.617765 -0.183752 -0.100541 0.021090 -2.051828
 15   8.209042 0.615527 -0.255885 2.523810 0.154888 0.944931
 16   7.002735 -0.617911 -0.183641 -0.056220 0.049490 -1.454927
 17   1.574674 0.609930 -0.000899 0.504380 0.018302 0.495935
 18   -0.602177 0.511412 -0.000006 0.000000 0.000000 0.000000
 19   3.673773 0.177020 1.119313 -0.000002 -0.000014 -0.174510
 20   3.673767 0.176993 -1.117566 0.000007 -0.000003 -0.174546
 21   3.942357 1.330634 1.627658 0.000002 -0.000011 -0.000026
 22   -0.246060 -0.011889 0.516521 -0.000011 0.000031 0.000025
 23   3.942374 1.330659 -1.631083 0.000019 0.000002 -0.000024
 24   -0.246150 -0.011872 -0.516511 -0.000005 -0.000006 0.000048
 25   4.941364 1.997338 1.629330 0.000018 -0.000001 -0.000024
 26   4.941382 1.997366 -1.629410 -0.000001 0.000005 -0.000024
 27   2.918368 1.615358 1.514501 -0.000019 -0.000022 -0.000050
 28   2.920798 1.614964 -1.501142 -0.000002 -0.000009 -0.000024
 29   8.824059 0.150544 0.091743 0.000006 -0.000231 -0.174534
 30   2.111085 -0.561179 1.784320 -0.000008 -0.000682 0.000024
 31   2.121290 -0.561289 -1.853599 0.000000 0.000000 -0.000002
 32   -0.810489 -0.093824 3.127092 3.071872 -0.114782 1.239365
 33   14.298673 -0.408176 0.475484 0.000248 0.000062 -1.896136
 34   15.835795 0.581398 0.242756 -0.214729 0.106889 -0.097869
 35   -0.815868 -0.091229 -3.114430 0.066464 3.132725 -1.010185
 36   14.294526 -0.410349 -0.463635 0.000033 -0.000000 -2.607695
 37   15.834409 0.579420 -0.284600 -0.006092 -0.035255 0.214458
 38   1.139685 -3.453749 -2.823813 0.000000 0.000000 0.000001
 39   -4.457742 -1.054854 -0.746180 0.000000 0.000000 0.000000
 40   1.118101 -3.449769 3.237290 0.000000 0.000001 0.000000
 41   -4.433840 -1.059130 0.959566 -0.000001 0.000000 0.000000
 42   -0.657468 1.697302 -2.688614 0.000000 0.000002 0.000000
 43   -0.664068 1.698578 2.869377 0.000000 0.000002 0.000000
end
