version 1
nodes
  0 "Bip01" -1
  1 "Bip01 Pelvis" 0
  2 "Bip01 Spine" 1
  3 "Bip01 Spine1" 2
  4 "Bip01 Spine2" 3
  5 "Bip01 Spine3" 4
  6 "Bip01 Neck" 5
  7 "Bip01 L Arm" 6
  8 "Bip01 L Arm1" 7
  9 "Bip01 L Arm2" 8
 10 "Bip01 L Hand" 9
 11 "Bip06 L elbow2-smooth" 8
 12 "Bip01 R Arm" 6
 13 "Bip01 R Arm1" 12
 14 "Bip01 R Arm2" 13
 15 "Bip01 R Hand" 14
 16 "Bip06 R elbow2-smooth" 13
 17 "Bip01 Head" 6
 18 "Bip06 Head_helper" 17
 19 "Bip06 Head_eyes_l" 18
 20 "Bip06 Head_eyes_r" 18
 21 "Bip06 Head_blink_l" 18
 22 "Bip06 Head_blink_smooth_l1" 21
 23 "Bip06 Head_blink_r" 18
 24 "Bip06 Head_blink_smooth_r1" 23
 25 "Bip06 Head_L_eyebrow" 18
 26 "Bip06 Head_R_eyebrow" 18
 27 "Bip06 Head_blink_l_lid" 18
 28 "Bip06 Head_blink_r_lid" 18
 29 "Bip06 bunny" 18
 30 "Bip06 bunnyL" 29
 31 "Bip06 bunnyR" 29
 32 "Bip01 L Leg" 1
 33 "Bip01 L Leg1" 32
 34 "Bip01 L Foot" 33
 35 "Bip01 R Leg" 1
 36 "Bip01 R Leg1" 35
 37 "Bip01 R Foot" 36
 38 "Bip03 HairR1" 17
 39 "Bip03 HairR2" 38
 40 "Bip03 HairL1" 17
 41 "Bip03 HairL2" 40
 42 "Bip03 swingR" 17
 43 "Bip03 swingL" 17
end
skeleton
time 0
  0   0.243428 0.070315 -2.808308 -0.040290 -0.076191 -1.457260
  1   -1.093036 0.000002 -0.326057 -1.570652 -1.570379 -0.000123
  2   2.262337 0.113614 0.064702 -0.000052 0.000061 0.166420
  3   2.380047 0.353302 0.047440 0.000000 -0.000040 0.156939
  4   2.033756 0.190472 -0.000128 -0.000010 0.000024 0.130609
  5   2.451511 0.204909 -0.003447 0.000000 -0.000005 0.148110
  6   7.247600 -0.397300 -0.109469 0.000001 0.000009 0.052298
  7   -2.022252 -0.104661 3.136172 -0.159405 -1.174491 -3.047314
  8   1.168026 -0.537438 -0.063437 -0.569986 0.941598 -0.642346
  9   6.790376 -0.619176 0.015206 0.007665 0.002652 -0.672341
 10   8.637599 0.544015 -0.090417 -1.577598 0.000010 -0.039476
 11   6.790465 -0.619039 0.017802 0.004680 -0.009775 -0.485882
 12   -2.022474 -0.104699 -2.873818 0.298586 1.361712 -2.901984
 13   1.167898 -0.537463 0.063297 0.939270 -1.179748 -0.974943
 14   7.002743 -0.617765 -0.183752 -0.007969 -0.003100 -0.706000
 15   8.209042 0.615527 -0.255885 1.578000 0.000240 -0.039397
 16   7.002735 -0.617911 -0.183641 0.008507 0.002180 -0.512897
 17   1.574674 0.609930 -0.000899 0.000000 0.000008 -0.427906
 18   -0.602177 0.511412 -0.000006 0.000000 0.000000 0.000000
 19   3.673773 0.177020 1.119313 -0.000002 -0.000014 -0.174510
 20   3.673767 0.176993 -1.117566 0.000007 -0.000003 -0.174546
 21   3.942357 1.330634 1.627658 0.000002 -0.000011 -0.000026
 22   -0.246060 -0.011889 0.516521 -0.000011 0.000031 0.000025
 23   3.942374 1.330659 -1.631083 0.000019 0.000002 -0.000024
 24   -0.246150 -0.011872 -0.516511 -0.000005 -0.000006 0.000048
 25   4.941364 1.997338 1.629330 0.000018 -0.000001 -0.000024
 26   4.941382 1.997366 -1.629410 -0.000001 0.000005 -0.000024
 27   2.918368 1.615358 1.514501 -0.000019 -0.000022 -0.000050
 28   2.920798 1.614964 -1.501142 -0.000002 -0.000009 -0.000024
 29   8.824059 0.150544 0.091743 0.000006 -0.000231 -0.174534
 30   2.111085 -0.561179 1.784320 -0.000008 -0.000682 0.000024
 31   2.121290 -0.561289 -1.853599 0.000000 0.000000 -0.000002
 32   -0.810489 -0.093824 3.127092 0.077994 -3.092234 -0.296451
 33   14.298673 -0.408176 0.475484 -0.000088 -0.000042 -2.385387
 34   15.835795 0.581398 0.242756 0.282825 -0.060716 0.450459
 35   -0.815868 -0.091229 -3.114430 -0.030352 3.161581 -0.341042
 36   14.294526 -0.410349 -0.463635 0.000081 0.000060 -2.398054
 37   15.834409 0.579420 -0.284600 -0.187511 0.045217 0.463506
 38   1.053745 -3.418591 -2.823813 0.019428 0.026258 0.278225
 39   -4.457742 -1.054854 -0.746180 0.000000 0.000000 0.000000
 40   1.204041 -3.481020 3.237290 0.019428 0.026259 0.278286
 41   -4.433840 -1.059130 0.959566 -0.000001 0.000000 0.000000
 42   -0.657468 1.697302 -2.688614 0.000000 0.000002 0.000000
 43   -0.664068 1.698578 2.869377 0.000000 0.000002 0.000000
time 1
  0   0.243428 0.070315 -2.808308 -0.040290 -0.076191 -1.457260
  1   -1.093036 0.000002 -0.326057 -1.570652 -1.570379 -0.000123
  2   2.262337 0.113614 0.064702 -0.000052 0.000061 0.166420
  3   2.380047 0.353302 0.047440 0.000000 -0.000040 0.156939
  4   2.033756 0.190472 -0.000128 -0.000010 0.000024 0.120895
  5   2.451511 0.204909 -0.003447 0.000000 -0.000005 0.148110
  6   7.247600 -0.397300 -0.109469 0.000001 0.000009 0.052298
  7   -2.022252 -0.104661 3.136172 -0.159405 -1.174491 -3.047314
  8   1.168026 -0.537438 -0.063437 -0.557393 0.946579 -0.628492
  9   6.790376 -0.619176 0.015206 0.007665 0.002652 -0.672341
 10   8.637599 0.544015 -0.090417 -1.577598 0.000010 -0.039476
 11   6.790465 -0.619039 0.017802 0.004680 -0.009775 -0.485882
 12   -2.022474 -0.104699 -2.873818 0.358178 1.395612 -2.841188
 13   1.167898 -0.537463 0.063297 0.996700 -1.213006 -1.025005
 14   7.002743 -0.617765 -0.183752 -0.007855 -0.003100 -0.710785
 15   8.209042 0.615527 -0.255885 1.578000 0.000240 -0.039397
 16   7.002735 -0.617911 -0.183641 0.008507 0.002180 -0.516264
 17   1.574674 0.609930 -0.000899 0.000000 0.000008 -0.408464
 18   -0.602177 0.511412 -0.000006 0.000000 0.000000 0.000000
 19   3.673773 0.177020 1.119313 -0.000002 -0.000014 -0.174510
 20   3.673767 0.176993 -1.117566 0.000007 -0.000003 -0.174546
 21   3.942357 1.330634 1.627658 0.000002 -0.000011 -0.000026
 22   -0.246060 -0.011889 0.516521 -0.000011 0.000031 0.000025
 23   3.942374 1.330659 -1.631083 0.000019 0.000002 -0.000024
 24   -0.246150 -0.011872 -0.516511 -0.000005 -0.000006 0.000048
 25   4.941364 1.997338 1.629330 0.000018 -0.000001 -0.000024
 26   4.941382 1.997366 -1.629410 -0.000001 0.000005 -0.000024
 27   2.918368 1.615358 1.514501 -0.000019 -0.000022 -0.000050
 28   2.920798 1.614964 -1.501142 -0.000002 -0.000009 -0.000024
 29   8.824059 0.150544 0.091743 0.000006 -0.000231 -0.174534
 30   2.111085 -0.561179 1.784320 -0.000008 -0.000682 0.000024
 31   2.121290 -0.561289 -1.853599 0.000000 0.000000 -0.000002
 32   -0.810489 -0.093824 3.127092 0.077994 -3.092234 -0.296451
 33   14.298673 -0.408176 0.475484 -0.000088 -0.000042 -2.385387
 34   15.835795 0.581398 0.242756 0.278455 -0.060301 0.450591
 35   -0.815868 -0.091229 -3.114430 -0.030352 3.161581 -0.341042
 36   14.294526 -0.410349 -0.463635 0.000081 0.000060 -2.398054
 37   15.834409 0.579420 -0.284600 -0.182999 0.044731 0.463962
 38   1.053745 -3.418591 -2.823813 0.019323 0.026186 0.277126
 39   -4.457742 -1.054854 -0.746180 -0.000180 -0.000300 -0.003057
 40   1.204041 -3.481020 3.237290 0.019323 0.026187 0.277125
 41   -4.433840 -1.059130 0.959566 -0.000169 -0.000300 -0.003057
 42   -0.657468 1.705115 -2.680801 0.000288 0.006641 -0.006315
 43   -0.656255 1.698578 2.861564 -0.000950 -0.006839 -0.004809
time 2
  0   0.243428 0.070315 -2.808308 -0.040290 -0.076191 -1.457260
  1   -1.093036 0.000002 -0.326057 -1.570652 -1.570379 -0.000123
  2   2.262337 0.113614 0.064702 -0.000052 0.000061 0.166420
  3   2.380047 0.353302 0.047440 0.000000 -0.000040 0.156939
  4   2.033756 0.190472 -0.000128 -0.000010 0.000024 0.109912
  5   2.451511 0.204909 -0.003447 0.000000 -0.000005 0.148110
  6   7.247600 -0.397300 -0.109469 0.000001 0.000009 0.052298
  7   -2.022252 -0.104661 3.136172 -0.159405 -1.174577 -3.047314
  8   1.168026 -0.537438 -0.063437 -0.542269 0.951661 -0.611981
  9   6.790376 -0.619176 0.015206 0.007665 0.002652 -0.672341
 10   8.637599 0.544015 -0.090417 -1.577598 0.000010 -0.039476
 11   6.790465 -0.619039 0.017802 0.004680 -0.009775 -0.485882
 12   -2.022474 -0.104699 -2.873818 0.463661 1.433750 -2.734341
 13   1.167898 -0.537463 0.063297 1.075430 -1.249722 -1.095831
 14   7.002743 -0.617765 -0.183752 -0.007855 -0.003157 -0.716148
 15   8.209042 0.615527 -0.255885 1.578000 0.000240 -0.039397
 16   7.002735 -0.617911 -0.183641 0.008507 0.002180 -0.520017
 17   1.574674 0.609930 -0.000899 0.000000 0.000008 -0.386731
 18   -0.602177 0.511412 -0.000006 0.000000 0.000000 0.000000
 19   3.673773 0.177020 1.119313 -0.000002 -0.000014 -0.174510
 20   3.673767 0.176993 -1.117566 0.000007 -0.000003 -0.174546
 21   3.942357 1.330634 1.627658 0.000002 -0.000011 -0.000026
 22   -0.246060 -0.011889 0.516521 -0.000011 0.000031 0.000025
 23   3.942374 1.330659 -1.631083 0.000019 0.000002 -0.000024
 24   -0.246150 -0.011872 -0.516511 -0.000005 -0.000006 0.000048
 25   4.941364 1.997338 1.629330 0.000018 -0.000001 -0.000024
 26   4.941382 1.997366 -1.629410 -0.000001 0.000005 -0.000024
 27   2.918368 1.615358 1.514501 -0.000019 -0.000022 -0.000050
 28   2.920798 1.614964 -1.501142 -0.000002 -0.000009 -0.000024
 29   8.824059 0.150544 0.091743 0.000006 -0.000231 -0.174534
 30   2.111085 -0.561179 1.784320 -0.000008 -0.000682 0.000024
 31   2.121290 -0.561289 -1.853599 0.000000 0.000000 -0.000002
 32   -0.810489 -0.093824 3.127092 0.077994 -3.092234 -0.296451
 33   14.298673 -0.408176 0.475484 -0.000088 -0.000042 -2.385228
 34   15.835795 0.581398 0.242756 0.273418 -0.059740 0.450988
 35   -0.815868 -0.091229 -3.114430 -0.030352 3.161581 -0.341042
 36   14.294526 -0.410349 -0.463635 0.000081 0.000060 -2.398054
 37   15.834409 0.579420 -0.284600 -0.177975 0.044219 0.464013
 38   1.053745 -3.418591 -2.823813 0.019049 0.025933 0.273949
 39   -4.457742 -1.054854 -0.746180 -0.000647 -0.001127 -0.011330
 40   1.204041 -3.481020 3.237290 0.019049 0.025934 0.273948
 41   -4.433840 -1.059130 0.959566 -0.000648 -0.001127 -0.011330
 42   -0.645749 1.728553 -2.657363 0.001043 0.024166 -0.023043
 43   -0.632817 1.718110 2.818594 -0.003511 -0.024979 -0.017523
time 3
  0   0.243428 0.070315 -2.808308 -0.040290 -0.076191 -1.457260
  1   -1.093036 0.000002 -0.326057 -1.570652 -1.570379 -0.000123
  2   2.262337 0.113614 0.064702 -0.000052 0.000061 0.166420
  3   2.380047 0.353302 0.047440 0.000000 -0.000040 0.156939
  4   2.033756 0.190472 -0.000128 -0.000010 0.000024 0.098277
  5   2.451511 0.204909 -0.003447 0.000000 -0.000005 0.148110
  6   7.247600 -0.397300 -0.109469 0.000001 0.000009 0.052298
  7   -2.022252 -0.104661 3.136172 -0.159405 -1.174577 -3.047314
  8   1.168026 -0.537438 -0.063437 -0.526449 0.957447 -0.594458
  9   6.790376 -0.619176 0.015206 0.007665 0.002652 -0.672341
 10   8.637599 0.544015 -0.090417 -1.577598 0.000010 -0.039476
 11   6.790465 -0.619039 0.017802 0.004680 -0.009775 -0.485882
 12   -2.022474 -0.104699 -2.873818 0.659012 1.470639 -2.537593
 13   1.167898 -0.537463 0.063297 1.177426 -1.285726 -1.190810
 14   7.002743 -0.617765 -0.183752 -0.007855 -0.003214 -0.722006
 15   8.209042 0.615527 -0.255885 1.578000 0.000240 -0.039397
 16   7.002735 -0.617911 -0.183641 0.008460 0.002180 -0.524046
 17   1.574674 0.609930 -0.000899 0.000000 0.000008 -0.363520
 18   -0.602177 0.511412 -0.000006 0.000000 0.000000 0.000000
 19   3.673773 0.177020 1.119313 -0.000002 -0.000014 -0.174510
 20   3.673767 0.176993 -1.117566 0.000007 -0.000003 -0.174546
 21   3.942357 1.330634 1.627658 0.000002 -0.000011 -0.000026
 22   -0.246060 -0.011889 0.516521 -0.000011 0.000031 0.000025
 23   3.942374 1.330659 -1.631083 0.000019 0.000002 -0.000024
 24   -0.246150 -0.011872 -0.516511 -0.000005 -0.000006 0.000048
 25   4.941364 1.997338 1.629330 0.000018 -0.000001 -0.000024
 26   4.941382 1.997366 -1.629410 -0.000001 0.000005 -0.000024
 27   2.918368 1.615358 1.514501 -0.000019 -0.000022 -0.000050
 28   2.920798 1.614964 -1.501142 -0.000002 -0.000009 -0.000024
 29   8.824059 0.150544 0.091743 0.000006 -0.000231 -0.174534
 30   2.111085 -0.561179 1.784320 -0.000008 -0.000682 0.000024
 31   2.121290 -0.561289 -1.853599 0.000000 0.000000 -0.000002
 32   -0.810489 -0.093824 3.127092 0.077994 -3.092234 -0.296451
 33   14.298673 -0.408176 0.475484 -0.000088 -0.000042 -2.385149
 34   15.835795 0.581398 0.242756 0.268150 -0.059203 0.451341
 35   -0.815868 -0.091229 -3.114430 -0.030352 3.161581 -0.341042
 36   14.294526 -0.410349 -0.463635 0.000081 0.000060 -2.398054
 37   15.834409 0.579420 -0.284600 -0.172675 0.043656 0.464520
 38   1.057651 -3.418591 -2.823813 0.018671 0.025559 0.269367
 39   -4.449929 -1.054854 -0.746180 -0.001342 -0.002301 -0.023278
 40   1.200135 -3.481020 3.237290 0.018671 0.025560 0.269366
 41   -4.437746 -1.059130 0.959566 -0.001343 -0.002301 -0.023278
 42   -0.626217 1.767617 -2.614393 0.002109 0.048912 -0.046672
 43   -0.593753 1.749361 2.763905 -0.007097 -0.050571 -0.035464
time 4
  0   0.243428 0.070315 -2.808308 -0.040290 -0.076191 -1.457260
  1   -1.093036 0.000002 -0.326057 -1.570652 -1.570379 -0.000123
  2   2.262337 0.113614 0.064702 -0.000052 0.000061 0.166420
  3   2.380047 0.353302 0.047440 0.000000 -0.000040 0.156939
  4   2.033756 0.190472 -0.000128 -0.000010 0.000024 0.087113
  5   2.451511 0.204909 -0.003447 0.000000 -0.000005 0.148110
  6   7.247600 -0.397300 -0.109469 0.000001 0.000009 0.052298
  7   -2.022252 -0.104661 3.136172 -0.159405 -1.174491 -3.047314
  8   1.168026 -0.537438 -0.063437 -0.510692 0.962680 -0.577504
  9   6.790376 -0.619176 0.015206 0.007665 0.002652 -0.672341
 10   8.637599 0.544015 -0.090417 -1.577598 0.000010 -0.039476
 11   6.790465 -0.619039 0.017802 0.004680 -0.009775 -0.485882
 12   -2.022474 -0.104699 -2.873818 1.032276 1.499489 -2.163054
 13   1.167898 -0.537463 0.063297 1.303042 -1.317763 -1.310245
 14   7.002743 -0.617765 -0.183752 -0.007798 -0.003214 -0.727699
 15   8.209042 0.615527 -0.255885 1.578000 0.000240 -0.039397
 16   7.002735 -0.617911 -0.183641 0.008507 0.002180 -0.528075
 17   1.574674 0.609930 -0.000899 0.000000 0.000008 -0.340678
 18   -0.602177 0.511412 -0.000006 0.000000 0.000000 0.000000
 19   3.673773 0.177020 1.119313 -0.000002 -0.000014 -0.174510
 20   3.673767 0.176993 -1.117566 0.000007 -0.000003 -0.174546
 21   3.938451 1.330634 1.627658 0.000002 -0.000011 -0.000026
 22   -0.246060 -0.011889 0.516521 -0.000011 0.000031 0.000025
 23   3.938468 1.330659 -1.631083 0.000019 0.000002 -0.000024
 24   -0.246150 -0.011872 -0.516511 -0.000005 -0.000006 0.000048
 25   4.941364 1.997338 1.629330 0.000018 -0.000001 -0.000024
 26   4.941382 1.997366 -1.629410 -0.000001 0.000005 -0.000024
 27   2.918368 1.615358 1.514501 -0.000019 -0.000022 -0.000050
 28   2.920798 1.614964 -1.501142 -0.000002 -0.000009 -0.000024
 29   8.824059 0.150544 0.091743 0.000006 -0.000231 -0.174534
 30   2.111085 -0.561179 1.784320 -0.000008 -0.000682 0.000024
 31   2.121290 -0.561289 -1.853599 0.000000 0.000000 -0.000002
 32   -0.810489 -0.093824 3.127092 0.077994 -3.092234 -0.296451
 33   14.298673 -0.408176 0.475484 -0.000088 -0.000042 -2.385149
 34   15.835795 0.581398 0.242756 0.263044 -0.058666 0.451694
 35   -0.815868 -0.091229 -3.114430 -0.030352 3.161581 -0.341042
 36   14.294526 -0.410349 -0.463635 0.000081 0.000060 -2.398054
 37   15.834409 0.579420 -0.284600 -0.167513 0.043144 0.464520
 38   1.057651 -3.418591 -2.823813 0.018165 0.025150 0.263929
 39   -4.446023 -1.062667 -0.746180 -0.002169 -0.003715 -0.037441
 40   1.200135 -3.481020 3.237290 0.018165 0.025151 0.263928
 41   -4.445559 -1.051317 0.959566 -0.002170 -0.003715 -0.037441
 42   -0.606685 1.810587 -2.567516 0.003356 0.077323 -0.073772
 43   -0.550783 1.780612 2.701403 -0.011220 -0.079946 -0.056082
time 5
  0   0.243428 0.070315 -2.808308 -0.040290 -0.076191 -1.457260
  1   -1.093036 0.000002 -0.326057 -1.570652 -1.570379 -0.000123
  2   2.262337 0.113614 0.064702 -0.000052 0.000061 0.166420
  3   2.380047 0.353302 0.047440 0.000000 -0.000040 0.156939
  4   2.033756 0.190472 -0.000128 -0.000010 0.000024 0.076746
  5   2.451511 0.204909 -0.003447 0.000000 -0.000005 0.148110
  6   7.247600 -0.397300 -0.109469 0.000001 0.000009 0.052298
  7   -2.022252 -0.104661 3.136172 -0.159310 -1.174491 -3.047314
  8   1.168026 -0.537438 -0.063437 -0.496011 0.967007 -0.561436
  9   6.790376 -0.619176 0.015206 0.007665 0.002652 -0.672341
 10   8.637599 0.544015 -0.090417 -1.577598 0.000010 -0.039476
 11   6.790465 -0.619039 0.017802 0.004680 -0.009775 -0.485882
 12   -2.022474 -0.104699 -2.873818 1.601179 1.509560 -1.593203
 13   1.167898 -0.537463 0.063297 1.443911 -1.342630 -1.446448
 14   7.002743 -0.617765 -0.183752 -0.007798 -0.003214 -0.732814
 15   8.209042 0.615527 -0.255885 1.578000 0.000240 -0.039397
 16   7.002735 -0.617911 -0.183641 0.008507 0.002180 -0.531773
 17   1.574674 0.609930 -0.000899 0.000000 0.000008 -0.319610
 18   -0.602177 0.511412 -0.000006 0.000000 0.000000 0.000000
 19   3.673773 0.177020 1.119313 -0.000002 -0.000014 -0.174510
 20   3.673767 0.176993 -1.117566 0.000007 -0.000003 -0.174546
 21   3.938451 1.330634 1.627658 0.000002 -0.000011 -0.000026
 22   -0.246060 -0.011889 0.516521 -0.000011 0.000031 0.000025
 23   3.938468 1.330659 -1.631083 0.000019 0.000002 -0.000024
 24   -0.246150 -0.011872 -0.516511 -0.000005 -0.000006 0.000048
 25   4.941364 1.997338 1.629330 0.000018 -0.000001 -0.000024
 26   4.941382 1.997366 -1.629410 -0.000001 0.000005 -0.000024
 27   2.918368 1.623171 1.514501 -0.000019 -0.000022 -0.000050
 28   2.920798 1.614964 -1.501142 -0.000002 -0.000009 -0.000024
 29   8.824059 0.150544 0.091743 0.000006 -0.000231 -0.174534
 30   2.111085 -0.561179 1.784320 -0.000008 -0.000682 0.000024
 31   2.121290 -0.561289 -1.853599 0.000000 0.000000 -0.000002
 32   -0.810489 -0.093824 3.127092 0.077994 -3.092234 -0.296451
 33   14.298673 -0.408176 0.475484 -0.000088 -0.000042 -2.385149
 34   15.835795 0.581398 0.242756 0.258374 -0.058178 0.451870
 35   -0.815868 -0.091229 -3.114430 -0.030352 3.161581 -0.341042
 36   14.294526 -0.410349 -0.463635 0.000081 0.000060 -2.398054
 37   15.834409 0.579420 -0.284600 -0.162824 0.042683 0.464875
 38   1.057651 -3.418591 -2.823813 0.017660 0.024704 0.258186
 39   -4.446023 -1.062667 -0.746180 -0.003032 -0.005201 -0.052333
 40   1.200135 -3.481020 3.237290 0.017660 0.024705 0.258247
 41   -4.445559 -1.051317 0.959566 -0.003033 -0.005201 -0.052333
 42   -0.587153 1.853557 -2.520640 0.004566 0.105703 -0.100873
 43   -0.515626 1.811863 2.638901 -0.015368 -0.109289 -0.076700
time 6
  0   0.243428 0.070315 -2.808308 -0.040290 -0.076191 -1.457260
  1   -1.093036 0.000002 -0.326057 -1.570652 -1.570379 -0.000123
  2   2.262337 0.113614 0.064702 -0.000052 0.000061 0.166420
  3   2.380047 0.353302 0.047440 0.000000 -0.000040 0.156939
  4   2.033756 0.190472 -0.000128 -0.000010 0.000024 0.068482
  5   2.451511 0.204909 -0.003447 0.000000 -0.000005 0.148110
  6   7.247600 -0.397300 -0.109469 0.000001 0.000009 0.052298
  7   -2.022252 -0.104661 3.136172 -0.159405 -1.174577 -3.047314
  8   1.168026 -0.537438 -0.063437 -0.484241 0.970730 -0.548594
  9   6.790376 -0.619176 0.015206 0.007665 0.002652 -0.672341
 10   8.637599 0.544015 -0.090417 -1.577598 0.000010 -0.039476
 11   6.790465 -0.619039 0.017802 0.004680 -0.009775 -0.485882
 12   -2.022474 -0.104699 -2.873818 2.065556 1.500969 -1.127518
 13   1.167898 -0.537463 0.063297 1.580774 -1.359310 -1.579685
 14   7.002743 -0.617765 -0.183752 -0.007798 -0.003214 -0.736527
 15   8.209042 0.615527 -0.255885 1.578000 0.000240 -0.039397
 16   7.002735 -0.617911 -0.183641 0.008507 0.002180 -0.534312
 17   1.574674 0.609930 -0.000899 0.000000 0.000008 -0.301721
 18   -0.602177 0.511412 -0.000006 0.000000 0.000000 0.000000
 19   3.673773 0.177020 1.119313 -0.000002 -0.000014 -0.174510
 20   3.673767 0.176993 -1.117566 0.000007 -0.000003 -0.174546
 21   3.942357 1.330634 1.627658 0.000002 -0.000011 -0.000026
 22   -0.246060 -0.011889 0.516521 -0.000011 0.000031 0.000025
 23   3.942374 1.330659 -1.631083 0.000019 0.000002 -0.000024
 24   -0.246150 -0.011872 -0.516511 -0.000005 -0.000006 0.000048
 25   4.941364 1.997338 1.629330 0.000018 -0.000001 -0.000024
 26   4.941382 1.997366 -1.629410 -0.000001 0.000005 -0.000024
 27   2.918368 1.623171 1.514501 -0.000019 -0.000022 -0.000050
 28   2.920798 1.614964 -1.501142 -0.000002 -0.000009 -0.000024
 29   8.824059 0.150544 0.091743 0.000006 -0.000231 -0.174534
 30   2.111085 -0.561179 1.784320 -0.000008 -0.000682 0.000024
 31   2.121290 -0.561289 -1.853599 0.000000 0.000000 -0.000002
 32   -0.810489 -0.093824 3.127092 0.077994 -3.092234 -0.296451
 33   14.298673 -0.408176 0.475484 -0.000088 -0.000042 -2.385149
 34   15.835795 0.581398 0.242756 0.254579 -0.057812 0.452223
 35   -0.815868 -0.091229 -3.114430 -0.030352 3.161581 -0.341042
 36   14.294526 -0.410349 -0.463635 0.000081 0.000060 -2.398054
 37   15.834409 0.579420 -0.284600 -0.159041 0.042273 0.465027
 38   1.057651 -3.422498 -2.823813 0.017197 0.024270 0.252810
 39   -4.438210 -1.070480 -0.746180 -0.003859 -0.006604 -0.066496
 40   1.200135 -3.481020 3.237290 0.017197 0.024271 0.252809
 41   -4.453372 -1.043504 0.959566 -0.003860 -0.006604 -0.066496
 42   -0.575434 1.884808 -2.481576 0.005657 0.130480 -0.124501
 43   -0.476562 1.835301 2.584212 -0.018954 -0.134913 -0.094683
time 7
  0   0.243428 0.070315 -2.808308 -0.040290 -0.076191 -1.457260
  1   -1.093036 0.000002 -0.326057 -1.570652 -1.570379 -0.000123
  2   2.262337 0.113614 0.064702 -0.000052 0.000061 0.166420
  3   2.380047 0.353302 0.047440 0.000000 -0.000040 0.156939
  4   2.033756 0.190472 -0.000128 -0.000010 0.000024 0.062827
  5   2.451511 0.204909 -0.003447 0.000000 -0.000005 0.148110
  6   7.247600 -0.397300 -0.109469 0.000001 0.000009 0.052298
  7   -2.022252 -0.104661 3.136172 -0.159405 -1.174491 -3.047314
  8   1.168026 -0.537438 -0.063437 -0.475951 0.972944 -0.539358
  9   6.790376 -0.619176 0.015206 0.007665 0.002652 -0.672341
 10   8.637599 0.544015 -0.090417 -1.577598 0.000010 -0.039476
 11   6.790465 -0.619039 0.017802 0.004680 -0.009775 -0.485882
 12   -2.022474 -0.104699 -2.873818 2.293672 1.488895 -0.899463
 13   1.167898 -0.537463 0.063297 -1.457339 -1.773101 1.460492
 14   7.002743 -0.617765 -0.183752 -0.007741 -0.003214 -0.739497
 15   8.209042 0.615527 -0.255885 1.578000 0.000240 -0.039397
 16   7.002735 -0.617911 -0.183641 0.008507 0.002180 -0.536409
 17   1.574674 0.609930 -0.000899 0.000000 0.000008 -0.288452
 18   -0.602177 0.511412 -0.000006 0.000000 0.000000 0.000000
 19   3.673773 0.177020 1.119313 -0.000002 -0.000014 -0.174510
 20   3.673767 0.176993 -1.117566 0.000007 -0.000003 -0.174546
 21   3.426716 1.268132 1.576875 0.000002 -0.000011 -0.000026
 22   -0.238247 -0.379088 0.496989 0.000083 -0.028708 0.445010
 23   3.434546 1.260344 -1.623270 0.000019 0.000002 -0.000024
 24   -0.164116 -0.285318 -0.528230 0.000091 -0.028733 0.445062
 25   4.535101 1.997338 1.637143 -0.032209 0.220343 0.007203
 26   4.531213 1.997366 -1.621597 0.035749 -0.204340 -0.020853
 27   3.109780 1.478635 1.506688 -0.000019 -0.000022 -0.000050
 28   3.112210 1.478241 -1.508955 -0.000002 -0.000009 -0.000024
 29   8.824059 0.150544 0.091743 0.000006 -0.000231 -0.174534
 30   2.111085 -0.502583 1.803852 -0.011114 -0.015532 0.048656
 31   2.090039 -0.518319 -1.873131 0.005225 0.018545 0.032914
 32   -0.810489 -0.093824 3.127092 0.077994 -3.092234 -0.296451
 33   14.298673 -0.408176 0.475484 -0.000088 -0.000042 -2.385149
 34   15.835795 0.581398 0.242756 0.252003 -0.057519 0.452267
 35   -0.815868 -0.091229 -3.114430 -0.030352 3.161581 -0.341042
 36   14.294526 -0.410349 -0.463635 0.000081 0.000060 -2.398054
 37   15.834409 0.579420 -0.284600 -0.156460 0.042018 0.465027
 38   1.057651 -3.422498 -2.823813 0.016797 0.023908 0.248289
 39   -4.434304 -1.074386 -0.746180 -0.004554 -0.007814 -0.078444
 40   1.200135 -3.481020 3.237290 0.016797 0.023897 0.248227
 41   -4.461185 -1.039598 0.959566 -0.004555 -0.007814 -0.078444
 42   -0.563715 1.916059 -2.458138 0.006424 0.148005 -0.141230
 43   -0.453124 1.854833 2.537335 -0.021515 -0.153021 -0.107355
time 8
  0   0.243428 0.070315 -2.808308 -0.040290 -0.076191 -1.457260
  1   -1.093036 0.000002 -0.326057 -1.570652 -1.570379 -0.000123
  2   2.262337 0.113614 0.064702 -0.000052 0.000061 0.166420
  3   2.380047 0.353302 0.047440 0.000000 -0.000040 0.156939
  4   2.033756 0.190472 -0.000128 -0.000010 0.000024 0.060834
  5   2.451511 0.204909 -0.003447 0.000000 -0.000005 0.148110
  6   7.247600 -0.397300 -0.109469 0.000001 0.000009 0.052298
  7   -2.022252 -0.104661 3.136172 -0.159405 -1.174577 -3.047314
  8   1.168026 -0.537438 -0.063437 -0.473040 0.974051 -0.536448
  9   6.790376 -0.619176 0.015206 0.007665 0.002652 -0.672341
 10   8.637599 0.544015 -0.090417 -1.577598 0.000010 -0.039476
 11   6.790465 -0.619039 0.017802 0.004680 -0.009775 -0.485882
 12   -2.022474 -0.104699 -2.873818 2.359875 1.483816 -0.832827
 13   1.167898 -0.537463 0.063297 -1.417974 -1.770609 1.421568
 14   7.002743 -0.617765 -0.183752 -0.007741 -0.003384 -0.740652
 15   8.209042 0.615527 -0.255885 1.578000 0.000240 -0.039397
 16   7.002735 -0.617911 -0.183641 0.008507 0.002180 -0.537182
 17   1.574674 0.609930 -0.000899 0.000000 0.000008 -0.281355
 18   -0.602177 0.511412 -0.000006 0.000000 0.000000 0.000000
 19   3.673773 0.177020 1.119313 -0.000002 -0.000014 -0.174510
 20   3.673767 0.176993 -1.117566 0.000007 -0.000003 -0.174546
 21   2.899356 1.193911 1.522186 0.000002 -0.000011 -0.000026
 22   -0.226528 -0.754099 0.477457 0.000194 -0.057459 0.890061
 23   2.918905 1.182217 -1.611551 0.000019 0.000002 -0.000024
 24   -0.078176 -0.558764 -0.547762 0.000187 -0.057484 0.890104
 25   4.117120 1.989525 1.648862 -0.064411 0.440688 0.014417
 26   4.117138 1.989553 -1.609878 0.071523 -0.408734 -0.041694
 27   3.305099 1.322380 1.487156 -0.000019 -0.000022 -0.000050
 28   3.303622 1.321986 -1.528487 -0.000002 -0.000009 -0.000024
 29   8.824059 0.150544 0.091743 0.000006 -0.000231 -0.174534
 30   2.111085 -0.393205 1.835103 -0.031739 -0.043168 0.139014
 31   2.027537 -0.424566 -1.916101 0.014985 0.053124 0.094032
 32   -0.810489 -0.093824 3.127092 0.077994 -3.092234 -0.296451
 33   14.298673 -0.408176 0.475484 -0.000088 -0.000042 -2.384990
 34   15.835795 0.581398 0.242756 0.251106 -0.057397 0.452267
 35   -0.815868 -0.091229 -3.114430 -0.030352 3.161581 -0.341042
 36   14.294526 -0.410349 -0.463635 0.000081 0.000060 -2.398054
 37   15.834409 0.579420 -0.284600 -0.155534 0.041890 0.465331
 38   1.065464 -3.422498 -2.823813 0.016545 0.023655 0.245112
 39   -4.426491 -1.074386 -0.746180 -0.005046 -0.008629 -0.086717
 40   1.192322 -3.481020 3.237290 0.016545 0.023656 0.245111
 41   -4.465091 -1.039598 0.959566 -0.005047 -0.008629 -0.086717
 42   -0.555902 1.919965 -2.446419 0.006699 0.154644 -0.147545
 43   -0.441405 1.866552 2.525616 -0.022477 -0.159894 -0.112206
time 9
  0   0.243428 0.070315 -2.808308 -0.040290 -0.076191 -1.457260
  1   -1.093036 0.000002 -0.326057 -1.570652 -1.570379 -0.000123
  2   2.262337 0.113614 0.064702 -0.000052 0.000061 0.166420
  3   2.380047 0.353302 0.047440 0.000000 -0.000040 0.156939
  4   2.033756 0.190472 -0.000128 -0.000010 0.000024 0.062827
  5   2.451511 0.204909 -0.003447 0.000000 -0.000005 0.148110
  6   7.247600 -0.397300 -0.109469 0.000001 0.000009 0.052298
  7   -2.022252 -0.104661 3.136172 -0.159405 -1.174491 -3.047314
  8   1.168026 -0.537438 -0.063437 -0.475951 0.972944 -0.539358
  9   6.790376 -0.619176 0.015206 0.007665 0.002652 -0.672341
 10   8.637599 0.544015 -0.090417 -1.577598 0.000010 -0.039476
 11   6.790465 -0.619039 0.017802 0.004680 -0.009775 -0.485882
 12   -2.022474 -0.104699 -2.873818 2.293672 1.488895 -0.899463
 13   1.167898 -0.537463 0.063297 -1.457339 -1.773101 1.460492
 14   7.002743 -0.617765 -0.183752 -0.007741 -0.003214 -0.739497
 15   8.209042 0.615527 -0.255885 1.578000 0.000240 -0.039397
 16   7.002735 -0.617911 -0.183641 0.008507 0.002180 -0.536409
 17   1.574674 0.609930 -0.000899 0.000000 0.000008 -0.281614
 18   -0.602177 0.511412 -0.000006 0.000000 0.000000 0.000000
 19   3.673773 0.177020 1.119313 -0.000002 -0.000014 -0.174510
 20   3.673767 0.176993 -1.117566 0.000007 -0.000003 -0.174546
 21   3.426716 1.268132 1.576875 0.000002 -0.000011 -0.000026
 22   -0.238247 -0.379088 0.496989 0.000083 -0.028708 0.445010
 23   3.434546 1.260344 -1.623270 0.000019 0.000002 -0.000024
 24   -0.164116 -0.285318 -0.528230 0.000091 -0.028733 0.445062
 25   4.535101 1.997338 1.637143 -0.032209 0.220343 0.007203
 26   4.531213 1.997366 -1.621597 0.035749 -0.204340 -0.020853
 27   3.109780 1.478635 1.506688 -0.000019 -0.000022 -0.000050
 28   3.112210 1.478241 -1.508955 -0.000002 -0.000009 -0.000024
 29   8.824059 0.150544 0.091743 0.000006 -0.000231 -0.174534
 30   2.118898 -0.338516 1.858541 -0.042872 -0.058018 0.187667
 31   1.996286 -0.381596 -1.939539 0.020225 0.071695 0.126966
 32   -0.810489 -0.093824 3.127092 0.077994 -3.092234 -0.296451
 33   14.298673 -0.408176 0.475484 -0.000088 -0.000042 -2.385149
 34   15.835795 0.581398 0.242756 0.252003 -0.057519 0.452267
 35   -0.815868 -0.091229 -3.114430 -0.030352 3.161581 -0.341042
 36   14.294526 -0.410349 -0.463635 0.000081 0.000060 -2.398054
 37   15.834409 0.579420 -0.284600 -0.156460 0.042018 0.465027
 38   1.065464 -3.422498 -2.823813 0.016418 0.023571 0.243890
 39   -4.426491 -1.074386 -0.746180 -0.005213 -0.008941 -0.089802
 40   1.192322 -3.481020 3.237290 0.016418 0.023572 0.243889
 41   -4.465091 -1.039598 0.959566 -0.005214 -0.008941 -0.089802
 42   -0.563715 1.916059 -2.450325 0.006472 0.149339 -0.142485
 43   -0.445311 1.862646 2.537335 -0.021715 -0.154402 -0.108358
time 10
  0   0.243428 0.070315 -2.808308 -0.040290 -0.076191 -1.457260
  1   -1.093036 0.000002 -0.326057 -1.570652 -1.570379 -0.000123
  2   2.262337 0.113614 0.064702 -0.000052 0.000061 0.166420
  3   2.380047 0.353302 0.047440 0.000000 -0.000040 0.156939
  4   2.033756 0.190472 -0.000128 -0.000010 0.000024 0.068482
  5   2.451511 0.204909 -0.003447 0.000000 -0.000005 0.148110
  6   7.247600 -0.397300 -0.109469 0.000001 0.000009 0.052298
  7   -2.022252 -0.104661 3.136172 -0.159405 -1.174577 -3.047314
  8   1.168026 -0.537438 -0.063437 -0.484241 0.970730 -0.548594
  9   6.790376 -0.619176 0.015206 0.007665 0.002652 -0.672341
 10   8.637599 0.544015 -0.090417 -1.577598 0.000010 -0.039476
 11   6.790465 -0.619039 0.017802 0.004680 -0.009775 -0.485882
 12   -2.022474 -0.104699 -2.873818 2.065556 1.500969 -1.127518
 13   1.167898 -0.537463 0.063297 1.580774 -1.359310 -1.579685
 14   7.002743 -0.617765 -0.183752 -0.007798 -0.003214 -0.736527
 15   8.209042 0.615527 -0.255885 1.578000 0.000240 -0.039397
 16   7.002735 -0.617911 -0.183641 0.008507 0.002180 -0.534312
 17   1.574674 0.609930 -0.000899 0.000000 0.000008 -0.290263
 18   -0.602177 0.511412 -0.000006 0.000000 0.000000 0.000000
 19   3.677679 0.177020 1.119313 -0.000002 -0.000014 -0.174510
 20   3.677673 0.176993 -1.117566 0.000007 -0.000003 -0.174546
 21   3.942357 1.330634 1.627658 0.000002 -0.000011 -0.000026
 22   -0.246060 -0.011889 0.516521 -0.000011 0.000031 0.000025
 23   3.942374 1.330659 -1.631083 0.000019 0.000002 -0.000024
 24   -0.246150 -0.011872 -0.516511 -0.000005 -0.000006 0.000048
 25   4.941364 1.997338 1.629330 0.000018 -0.000001 -0.000024
 26   4.941382 1.997366 -1.629410 -0.000001 0.000005 -0.000024
 27   2.918368 1.615358 1.514501 -0.000019 -0.000022 -0.000050
 28   2.920798 1.614964 -1.501142 -0.000002 -0.000009 -0.000024
 29   8.824059 0.150544 0.091743 0.000006 -0.000231 -0.174534
 30   2.111085 -0.393205 1.835103 -0.031739 -0.043168 0.139014
 31   2.027537 -0.424566 -1.916101 0.014985 0.053124 0.094032
 32   -0.810489 -0.093824 3.127092 0.077994 -3.092234 -0.296451
 33   14.298673 -0.408176 0.475484 -0.000088 -0.000042 -2.385149
 34   15.835795 0.581398 0.242756 0.254579 -0.057812 0.452223
 35   -0.815868 -0.091229 -3.114430 -0.030352 3.161581 -0.341042
 36   14.294526 -0.410349 -0.463635 0.000081 0.000060 -2.398054
 37   15.834409 0.579420 -0.284600 -0.159041 0.042273 0.465027
 38   1.065464 -3.422498 -2.823813 0.016566 0.023679 0.245479
 39   -4.426491 -1.074386 -0.746180 -0.004998 -0.008557 -0.085932
 40   1.192322 -3.481020 3.237290 0.016566 0.023680 0.245478
 41   -4.465091 -1.039598 0.959566 -0.004999 -0.008557 -0.085932
 42   -0.571528 1.896527 -2.473763 0.005848 0.135126 -0.128934
 43   -0.472656 1.847020 2.568586 -0.019641 -0.139699 -0.098029
time 11
  0   0.243428 0.070315 -2.808308 -0.040290 -0.076191 -1.457260
  1   -1.093036 0.000002 -0.326057 -1.570652 -1.570379 -0.000123
  2   2.262337 0.113614 0.064702 -0.000052 0.000061 0.166420
  3   2.380047 0.353302 0.047440 0.000000 -0.000040 0.156939
  4   2.033756 0.190472 -0.000128 -0.000010 0.000024 0.076746
  5   2.451511 0.204909 -0.003447 0.000000 -0.000005 0.148110
  6   7.247600 -0.397300 -0.109469 0.000001 0.000009 0.052298
  7   -2.022252 -0.104661 3.136172 -0.159310 -1.174491 -3.047314
  8   1.168026 -0.537438 -0.063437 -0.496011 0.967007 -0.561436
  9   6.790376 -0.619176 0.015206 0.007665 0.002652 -0.672341
 10   8.637599 0.544015 -0.090417 -1.577598 0.000010 -0.039476
 11   6.790465 -0.619039 0.017802 0.004680 -0.009775 -0.485882
 12   -2.022474 -0.104699 -2.873818 1.601179 1.509560 -1.593203
 13   1.167898 -0.537463 0.063297 1.443911 -1.342630 -1.446448
 14   7.002743 -0.617765 -0.183752 -0.007798 -0.003214 -0.732814
 15   8.209042 0.615527 -0.255885 1.578000 0.000240 -0.039397
 16   7.002735 -0.617911 -0.183641 0.008507 0.002180 -0.531773
 17   1.574674 0.609930 -0.000899 0.000000 0.000008 -0.306415
 18   -0.602177 0.511412 -0.000006 0.000000 0.000000 0.000000
 19   3.673773 0.177020 1.119313 -0.000002 -0.000014 -0.174510
 20   3.673767 0.176993 -1.117566 0.000007 -0.000003 -0.174546
 21   3.942357 1.330634 1.627658 0.000002 -0.000011 -0.000026
 22   -0.246060 -0.011889 0.516521 -0.000011 0.000031 0.000025
 23   3.942374 1.330659 -1.631083 0.000019 0.000002 -0.000024
 24   -0.246150 -0.011872 -0.516511 -0.000005 -0.000006 0.000048
 25   4.941364 1.997338 1.629330 0.000018 -0.000001 -0.000024
 26   4.941382 1.997366 -1.629410 -0.000001 0.000005 -0.000024
 27   2.918368 1.615358 1.514501 -0.000019 -0.000022 -0.000050
 28   2.920798 1.614964 -1.501142 -0.000002 -0.000009 -0.000024
 29   8.824059 0.150544 0.091743 0.000006 -0.000231 -0.174534
 30   2.111085 -0.502583 1.803852 -0.011114 -0.015532 0.048656
 31   2.090039 -0.518319 -1.873131 0.005225 0.018545 0.032914
 32   -0.810489 -0.093824 3.127092 0.077994 -3.092234 -0.296451
 33   14.298673 -0.408176 0.475484 -0.000088 -0.000042 -2.385149
 34   15.835795 0.581398 0.242756 0.258374 -0.058178 0.451870
 35   -0.815868 -0.091229 -3.114430 -0.030352 3.161581 -0.341042
 36   14.294526 -0.410349 -0.463635 0.000081 0.000060 -2.398054
 37   15.834409 0.579420 -0.284600 -0.162824 0.042683 0.464875
 38   1.057651 -3.422498 -2.823813 0.016881 0.023993 0.249328
 39   -4.434304 -1.074386 -0.746180 -0.004398 -0.007526 -0.075752
 40   1.200135 -3.481020 3.237290 0.016881 0.023994 0.249327
 41   -4.461185 -1.039598 0.959566 -0.004399 -0.007526 -0.075752
 42   -0.583247 1.865276 -2.508921 0.004962 0.114550 -0.109279
 43   -0.500000 1.823582 2.619369 -0.016655 -0.118437 -0.083099
time 12
  0   0.243428 0.070315 -2.808308 -0.040290 -0.076191 -1.457260
  1   -1.093036 0.000002 -0.326057 -1.570652 -1.570379 -0.000123
  2   2.262337 0.113614 0.064702 -0.000052 0.000061 0.166420
  3   2.380047 0.353302 0.047440 0.000000 -0.000040 0.156939
  4   2.033756 0.190472 -0.000128 -0.000010 0.000024 0.087113
  5   2.451511 0.204909 -0.003447 0.000000 -0.000005 0.148110
  6   7.247600 -0.397300 -0.109469 0.000001 0.000009 0.052298
  7   -2.022252 -0.104661 3.136172 -0.159405 -1.174491 -3.047314
  8   1.168026 -0.537438 -0.063437 -0.510692 0.962680 -0.577504
  9   6.790376 -0.619176 0.015206 0.007665 0.002652 -0.672341
 10   8.637599 0.544015 -0.090417 -1.577598 0.000010 -0.039476
 11   6.790465 -0.619039 0.017802 0.004680 -0.009775 -0.485882
 12   -2.022474 -0.104699 -2.873818 1.032276 1.499489 -2.163054
 13   1.167898 -0.537463 0.063297 1.303042 -1.317763 -1.310245
 14   7.002743 -0.617765 -0.183752 -0.007798 -0.003214 -0.727699
 15   8.209042 0.615527 -0.255885 1.578000 0.000240 -0.039397
 16   7.002735 -0.617911 -0.183641 0.008507 0.002180 -0.528075
 17   1.574674 0.609930 -0.000899 0.000000 0.000008 -0.328407
 18   -0.602177 0.511412 -0.000006 0.000000 0.000000 0.000000
 19   3.673773 0.177020 1.119313 -0.000002 -0.000014 -0.174510
 20   3.673767 0.176993 -1.117566 0.000007 -0.000003 -0.174546
 21   3.942357 1.330634 1.627658 0.000002 -0.000011 -0.000026
 22   -0.246060 -0.011889 0.516521 -0.000011 0.000031 0.000025
 23   3.942374 1.330659 -1.631083 0.000019 0.000002 -0.000024
 24   -0.246150 -0.011872 -0.516511 -0.000005 -0.000006 0.000048
 25   4.941364 1.997338 1.629330 0.000018 -0.000001 -0.000024
 26   4.941382 1.997366 -1.629410 -0.000001 0.000005 -0.000024
 27   2.918368 1.615358 1.514501 -0.000019 -0.000022 -0.000050
 28   2.920798 1.614964 -1.501142 -0.000002 -0.000009 -0.000024
 29   8.824059 0.150544 0.091743 0.000006 -0.000231 -0.174534
 30   2.111085 -0.561179 1.784320 -0.000008 -0.000682 0.000024
 31   2.121290 -0.561289 -1.853599 0.000000 0.000000 -0.000002
 32   -0.810489 -0.093824 3.127092 0.077994 -3.092234 -0.296451
 33   14.298673 -0.408176 0.475484 -0.000088 -0.000042 -2.385149
 34   15.835795 0.581398 0.242756 0.263044 -0.058666 0.451694
 35   -0.815868 -0.091229 -3.114430 -0.030352 3.161581 -0.341042
 36   14.294526 -0.410349 -0.463635 0.000081 0.000060 -2.398054
 37   15.834409 0.579420 -0.284600 -0.167513 0.043144 0.464520
 38   1.057651 -3.422498 -2.823813 0.017387 0.024414 0.254765
 39   -4.438210 -1.070480 -0.746180 -0.003559 -0.006100 -0.061364
 40   1.200135 -3.481020 3.237290 0.017387 0.024428 0.254764
 41   -4.453372 -1.043504 0.959566 -0.003560 -0.006100 -0.061364
 42   -0.598872 1.830119 -2.551891 0.003907 0.090141 -0.086026
 43   -0.539064 1.792331 2.670152 -0.013094 -0.093221 -0.065408
time 13
  0   0.243428 0.070315 -2.808308 -0.040290 -0.076191 -1.457260
  1   -1.093036 0.000002 -0.326057 -1.570652 -1.570379 -0.000123
  2   2.262337 0.113614 0.064702 -0.000052 0.000061 0.166420
  3   2.380047 0.353302 0.047440 0.000000 -0.000040 0.156939
  4   2.033756 0.190472 -0.000128 -0.000010 0.000024 0.098277
  5   2.451511 0.204909 -0.003447 0.000000 -0.000005 0.148110
  6   7.247600 -0.397300 -0.109469 0.000001 0.000009 0.052298
  7   -2.022252 -0.104661 3.136172 -0.159405 -1.174577 -3.047314
  8   1.168026 -0.537438 -0.063437 -0.526449 0.957447 -0.594458
  9   6.790376 -0.619176 0.015206 0.007665 0.002652 -0.672341
 10   8.637599 0.544015 -0.090417 -1.577598 0.000010 -0.039476
 11   6.790465 -0.619039 0.017802 0.004680 -0.009775 -0.485882
 12   -2.022474 -0.104699 -2.873818 0.659012 1.470639 -2.537593
 13   1.167898 -0.537463 0.063297 1.177426 -1.285726 -1.190810
 14   7.002743 -0.617765 -0.183752 -0.007855 -0.003214 -0.722006
 15   8.209042 0.615527 -0.255885 1.578000 0.000240 -0.039397
 16   7.002735 -0.617911 -0.183641 0.008460 0.002180 -0.524046
 17   1.574674 0.609930 -0.000899 0.000000 0.000008 -0.353614
 18   -0.602177 0.511412 -0.000006 0.000000 0.000000 0.000000
 19   3.677679 0.177020 1.119313 -0.000002 -0.000014 -0.174510
 20   3.673767 0.176993 -1.117566 0.000007 -0.000003 -0.174546
 21   3.942357 1.330634 1.627658 0.000002 -0.000011 -0.000026
 22   -0.246060 -0.011889 0.516521 -0.000011 0.000031 0.000025
 23   3.942374 1.330659 -1.631083 0.000019 0.000002 -0.000024
 24   -0.246150 -0.011872 -0.516511 -0.000005 -0.000006 0.000048
 25   4.941364 1.997338 1.629330 0.000018 -0.000001 -0.000024
 26   4.941382 1.997366 -1.629410 -0.000001 0.000005 -0.000024
 27   2.918368 1.615358 1.514501 -0.000019 -0.000022 -0.000050
 28   2.920798 1.614964 -1.501142 -0.000002 -0.000009 -0.000024
 29   8.824059 0.150544 0.091743 0.000006 -0.000231 -0.174534
 30   2.111085 -0.561179 1.784320 -0.000008 -0.000682 0.000024
 31   2.121290 -0.561289 -1.853599 0.000000 0.000000 -0.000002
 32   -0.810489 -0.093824 3.127092 0.077994 -3.092234 -0.296451
 33   14.298673 -0.408176 0.475484 -0.000088 -0.000042 -2.385149
 34   15.835795 0.581398 0.242756 0.268150 -0.059203 0.451341
 35   -0.815868 -0.091229 -3.114430 -0.030352 3.161581 -0.341042
 36   14.294526 -0.410349 -0.463635 0.000081 0.000060 -2.398054
 37   15.834409 0.579420 -0.284600 -0.172675 0.043656 0.464520
 38   1.057651 -3.418591 -2.823813 0.017934 0.024921 0.261119
 39   -4.446023 -1.062667 -0.746180 -0.002613 -0.004458 -0.044901
 40   1.200135 -3.481020 3.237290 0.017934 0.024922 0.261118
 41   -4.445559 -1.051317 0.959566 -0.002614 -0.004458 -0.044901
 42   -0.618404 1.791055 -2.587048 0.002780 0.064490 -0.061519
 43   -0.570315 1.768893 2.724841 -0.009371 -0.066671 -0.046756
time 14
  0   0.243428 0.070315 -2.808308 -0.040290 -0.076191 -1.457260
  1   -1.093036 0.000002 -0.326057 -1.570652 -1.570379 -0.000123
  2   2.262337 0.113614 0.064702 -0.000052 0.000061 0.166420
  3   2.380047 0.353302 0.047440 0.000000 -0.000040 0.156939
  4   2.033756 0.190472 -0.000128 -0.000010 0.000024 0.109912
  5   2.451511 0.204909 -0.003447 0.000000 -0.000005 0.148110
  6   7.247600 -0.397300 -0.109469 0.000001 0.000009 0.052298
  7   -2.022252 -0.104661 3.136172 -0.159405 -1.174577 -3.047314
  8   1.168026 -0.537438 -0.063437 -0.542269 0.951661 -0.611981
  9   6.790376 -0.619176 0.015206 0.007665 0.002652 -0.672341
 10   8.637599 0.544015 -0.090417 -1.577598 0.000010 -0.039476
 11   6.790465 -0.619039 0.017802 0.004680 -0.009775 -0.485882
 12   -2.022474 -0.104699 -2.873818 0.463661 1.433750 -2.734341
 13   1.167898 -0.537463 0.063297 1.075430 -1.249722 -1.095831
 14   7.002743 -0.617765 -0.183752 -0.007855 -0.003157 -0.716148
 15   8.209042 0.615527 -0.255885 1.578000 0.000240 -0.039397
 16   7.002735 -0.617911 -0.183641 0.008507 0.002180 -0.520017
 17   1.574674 0.609930 -0.000899 0.000000 0.000008 -0.380078
 18   -0.602177 0.511412 -0.000006 0.000000 0.000000 0.000000
 19   3.673773 0.177020 1.119313 -0.000002 -0.000014 -0.174510
 20   3.673767 0.176993 -1.117566 0.000007 -0.000003 -0.174546
 21   3.942357 1.330634 1.627658 0.000002 -0.000011 -0.000026
 22   -0.246060 -0.011889 0.516521 -0.000011 0.000031 0.000025
 23   3.942374 1.330659 -1.631083 0.000019 0.000002 -0.000024
 24   -0.246150 -0.011872 -0.516511 -0.000005 -0.000006 0.000048
 25   4.941364 1.997338 1.629330 0.000018 -0.000001 -0.000024
 26   4.941382 1.997366 -1.629410 -0.000001 0.000005 -0.000024
 27   2.918368 1.615358 1.514501 -0.000019 -0.000022 -0.000050
 28   2.920798 1.614964 -1.501142 -0.000002 -0.000009 -0.000024
 29   8.824059 0.150544 0.091743 0.000006 -0.000231 -0.174534
 30   2.111085 -0.561179 1.784320 -0.000008 -0.000682 0.000024
 31   2.121290 -0.561289 -1.853599 0.000000 0.000000 -0.000002
 32   -0.810489 -0.093824 3.127092 0.077994 -3.092234 -0.296451
 33   14.298673 -0.408176 0.475484 -0.000088 -0.000042 -2.385228
 34   15.835795 0.581398 0.242756 0.273418 -0.059740 0.450988
 35   -0.815868 -0.091229 -3.114430 -0.030352 3.161581 -0.341042
 36   14.294526 -0.410349 -0.463635 0.000081 0.000060 -2.398054
 37   15.834409 0.579420 -0.284600 -0.177975 0.044219 0.464013
 38   1.057651 -3.418591 -2.823813 0.018460 0.025415 0.267412
 39   -4.449929 -1.054854 -0.746180 -0.001654 -0.002816 -0.028410
 40   1.200135 -3.481020 3.237290 0.018460 0.025416 0.267411
 41   -4.437746 -1.059130 0.959566 -0.001655 -0.002816 -0.028410
 42   -0.637936 1.755898 -2.626112 0.001738 0.040081 -0.038224
 43   -0.605472 1.737642 2.783437 -0.005810 -0.041455 -0.029066
time 15
  0   0.243428 0.070315 -2.808308 -0.040290 -0.076191 -1.457260
  1   -1.093036 0.000002 -0.326057 -1.570652 -1.570379 -0.000123
  2   2.262337 0.113614 0.064702 -0.000052 0.000061 0.166420
  3   2.380047 0.353302 0.047440 0.000000 -0.000040 0.156939
  4   2.033756 0.190472 -0.000128 -0.000010 0.000024 0.120895
  5   2.451511 0.204909 -0.003447 0.000000 -0.000005 0.148110
  6   7.247600 -0.397300 -0.109469 0.000001 0.000009 0.052298
  7   -2.022252 -0.104661 3.136172 -0.159405 -1.174491 -3.047314
  8   1.168026 -0.537438 -0.063437 -0.557393 0.946579 -0.628492
  9   6.790376 -0.619176 0.015206 0.007665 0.002652 -0.672341
 10   8.637599 0.544015 -0.090417 -1.577598 0.000010 -0.039476
 11   6.790465 -0.619039 0.017802 0.004680 -0.009775 -0.485882
 12   -2.022474 -0.104699 -2.873818 0.358178 1.395612 -2.841188
 13   1.167898 -0.537463 0.063297 0.996700 -1.213006 -1.025005
 14   7.002743 -0.617765 -0.183752 -0.007855 -0.003100 -0.710785
 15   8.209042 0.615527 -0.255885 1.578000 0.000240 -0.039397
 16   7.002735 -0.617911 -0.183641 0.008507 0.002180 -0.516264
 17   1.574674 0.609930 -0.000899 0.000000 0.000008 -0.405544
 18   -0.602177 0.511412 -0.000006 0.000000 0.000000 0.000000
 19   3.673773 0.177020 1.119313 -0.000002 -0.000014 -0.174510
 20   3.673767 0.176993 -1.117566 0.000007 -0.000003 -0.174546
 21   3.942357 1.330634 1.627658 0.000002 -0.000011 -0.000026
 22   -0.246060 -0.011889 0.516521 -0.000011 0.000031 0.000025
 23   3.938468 1.330659 -1.631083 0.000019 0.000002 -0.000024
 24   -0.246150 -0.011872 -0.516511 -0.000005 -0.000006 0.000048
 25   4.941364 1.997338 1.629330 0.000018 -0.000001 -0.000024
 26   4.941382 1.997366 -1.629410 -0.000001 0.000005 -0.000024
 27   2.918368 1.615358 1.514501 -0.000019 -0.000022 -0.000050
 28   2.920798 1.614964 -1.501142 -0.000002 -0.000009 -0.000024
 29   8.824059 0.150544 0.091743 0.000006 -0.000231 -0.174534
 30   2.111085 -0.561179 1.784320 -0.000008 -0.000682 0.000024
 31   2.121290 -0.561289 -1.853599 0.000000 0.000000 -0.000002
 32   -0.810489 -0.093824 3.127092 0.077994 -3.092234 -0.296451
 33   14.298673 -0.408176 0.475484 -0.000088 -0.000042 -2.385387
 34   15.835795 0.581398 0.242756 0.278455 -0.060301 0.450591
 35   -0.815868 -0.091229 -3.114430 -0.030352 3.161581 -0.341042
 36   14.294526 -0.410349 -0.463635 0.000081 0.000060 -2.398054
 37   15.834409 0.579420 -0.284600 -0.182999 0.044731 0.463962
 38   1.053745 -3.418591 -2.823813 0.018944 0.025836 0.272849
 39   -4.457742 -1.054854 -0.746180 -0.000815 -0.001378 -0.014023
 40   1.204041 -3.481020 3.237290 0.018944 0.025850 0.272848
 41   -4.433840 -1.059130 0.959566 -0.000816 -0.001378 -0.014023
 42   -0.649655 1.724647 -2.661269 0.000839 0.019505 -0.018610
 43   -0.636723 1.718110 2.830313 -0.002824 -0.020161 -0.014136
time 16
  0   0.243428 0.070315 -2.808308 -0.040290 -0.076191 -1.457260
  1   -1.093036 0.000002 -0.326057 -1.570652 -1.570379 -0.000123
  2   2.262337 0.113614 0.064702 -0.000052 0.000061 0.166420
  3   2.380047 0.353302 0.047440 0.000000 -0.000040 0.156939
  4   2.033756 0.190472 -0.000128 -0.000010 0.000024 0.130609
  5   2.451511 0.204909 -0.003447 0.000000 -0.000005 0.148110
  6   7.247600 -0.397300 -0.109469 0.000001 0.000009 0.052298
  7   -2.022252 -0.104661 3.136172 -0.159405 -1.174491 -3.047314
  8   1.168026 -0.537438 -0.063437 -0.569986 0.941598 -0.642346
  9   6.790376 -0.619176 0.015206 0.007665 0.002652 -0.672341
 10   8.637599 0.544015 -0.090417 -1.577598 0.000010 -0.039476
 11   6.790465 -0.619039 0.017802 0.004680 -0.009775 -0.485882
 12   -2.022474 -0.104699 -2.873818 0.298586 1.361712 -2.901984
 13   1.167898 -0.537463 0.063297 0.939270 -1.179748 -0.974943
 14   7.002743 -0.617765 -0.183752 -0.007969 -0.003100 -0.706000
 15   8.209042 0.615527 -0.255885 1.578000 0.000240 -0.039397
 16   7.002735 -0.617911 -0.183641 0.008507 0.002180 -0.512897
 17   1.574674 0.609930 -0.000899 0.000000 0.000008 -0.427906
 18   -0.602177 0.511412 -0.000006 0.000000 0.000000 0.000000
 19   3.673773 0.177020 1.119313 -0.000002 -0.000014 -0.174510
 20   3.673767 0.176993 -1.117566 0.000007 -0.000003 -0.174546
 21   3.942357 1.330634 1.627658 0.000002 -0.000011 -0.000026
 22   -0.246060 -0.011889 0.516521 -0.000011 0.000031 0.000025
 23   3.942374 1.330659 -1.631083 0.000019 0.000002 -0.000024
 24   -0.246150 -0.011872 -0.516511 -0.000005 -0.000006 0.000048
 25   4.941364 1.997338 1.629330 0.000018 -0.000001 -0.000024
 26   4.941382 1.997366 -1.629410 -0.000001 0.000005 -0.000024
 27   2.918368 1.615358 1.514501 -0.000019 -0.000022 -0.000050
 28   2.920798 1.614964 -1.501142 -0.000002 -0.000009 -0.000024
 29   8.824059 0.150544 0.091743 0.000006 -0.000231 -0.174534
 30   2.111085 -0.561179 1.784320 -0.000008 -0.000682 0.000024
 31   2.121290 -0.561289 -1.853599 0.000000 0.000000 -0.000002
 32   -0.810489 -0.093824 3.127092 0.077994 -3.092234 -0.296451
 33   14.298673 -0.408176 0.475484 -0.000088 -0.000042 -2.385387
 34   15.835795 0.581398 0.242756 0.282825 -0.060716 0.450459
 35   -0.815868 -0.091229 -3.114430 -0.030352 3.161581 -0.341042
 36   14.294526 -0.410349 -0.463635 0.000081 0.000060 -2.398054
 37   15.834409 0.579420 -0.284600 -0.187511 0.045217 0.463506
 38   1.053745 -3.418591 -2.823813 0.019281 0.026162 0.276759
 39   -4.457742 -1.054854 -0.746180 -0.000216 -0.000384 -0.003814
 40   1.204041 -3.481020 3.237290 0.019281 0.026163 0.276758
 41   -4.433840 -1.059130 0.959566 -0.000217 -0.000384 -0.003814
 42   -0.657468 1.705115 -2.680801 0.000228 0.005292 -0.005060
 43   -0.664068 1.698578 2.861564 -0.000750 -0.005459 -0.003848
time 17
  0   0.243428 0.070315 -2.808308 -0.040290 -0.076191 -1.457260
  1   -1.093036 0.000002 -0.326057 -1.570652 -1.570379 -0.000123
  2   2.262337 0.113614 0.064702 -0.000052 0.000061 0.166420
  3   2.380047 0.353302 0.047440 0.000000 -0.000040 0.156939
  4   2.033756 0.190472 -0.000128 -0.000010 0.000024 0.130609
  5   2.451511 0.204909 -0.003447 0.000000 -0.000005 0.148110
  6   7.247600 -0.397300 -0.109469 0.000001 0.000009 0.052298
  7   -2.022252 -0.104661 3.136172 -0.159405 -1.174491 -3.047314
  8   1.168026 -0.537438 -0.063437 -0.569986 0.941598 -0.642346
  9   6.790376 -0.619176 0.015206 0.007665 0.002652 -0.672341
 10   8.637599 0.544015 -0.090417 -1.577598 0.000010 -0.039476
 11   6.790465 -0.619039 0.017802 0.004680 -0.009775 -0.485882
 12   -2.022474 -0.104699 -2.873818 0.298586 1.361712 -2.901984
 13   1.167898 -0.537463 0.063297 0.939270 -1.179748 -0.974943
 14   7.002743 -0.617765 -0.183752 -0.007969 -0.003100 -0.706000
 15   8.209042 0.615527 -0.255885 1.578000 0.000240 -0.039397
 16   7.002735 -0.617911 -0.183641 0.008507 0.002180 -0.512897
 17   1.574674 0.609930 -0.000899 0.000000 0.000008 -0.427906
 18   -0.602177 0.511412 -0.000006 0.000000 0.000000 0.000000
 19   3.673773 0.177020 1.119313 -0.000002 -0.000014 -0.174510
 20   3.673767 0.176993 -1.117566 0.000007 -0.000003 -0.174546
 21   3.942357 1.330634 1.627658 0.000002 -0.000011 -0.000026
 22   -0.246060 -0.011889 0.516521 -0.000011 0.000031 0.000025
 23   3.942374 1.330659 -1.631083 0.000019 0.000002 -0.000024
 24   -0.246150 -0.011872 -0.516511 -0.000005 -0.000006 0.000048
 25   4.941364 1.997338 1.629330 0.000018 -0.000001 -0.000024
 26   4.941382 1.997366 -1.629410 -0.000001 0.000005 -0.000024
 27   2.918368 1.615358 1.514501 -0.000019 -0.000022 -0.000050
 28   2.920798 1.614964 -1.501142 -0.000002 -0.000009 -0.000024
 29   8.824059 0.150544 0.091743 0.000006 -0.000231 -0.174534
 30   2.111085 -0.561179 1.784320 -0.000008 -0.000682 0.000024
 31   2.121290 -0.561289 -1.853599 0.000000 0.000000 -0.000002
 32   -0.810489 -0.093824 3.127092 0.077994 -3.092234 -0.296451
 33   14.298673 -0.408176 0.475484 -0.000088 -0.000042 -2.385387
 34   15.835795 0.581398 0.242756 0.282825 -0.060716 0.450459
 35   -0.815868 -0.091229 -3.114430 -0.030352 3.161581 -0.341042
 36   14.294526 -0.410349 -0.463635 0.000081 0.000060 -2.398054
 37   15.834409 0.579420 -0.284600 -0.187511 0.045217 0.463506
 38   1.053745 -3.418591 -2.823813 0.019428 0.026258 0.278225
 39   -4.457742 -1.054854 -0.746180 0.000000 0.000000 0.000000
 40   1.204041 -3.481020 3.237290 0.019428 0.026259 0.278286
 41   -4.433840 -1.059130 0.959566 -0.000001 0.000000 0.000000
 42   -0.657468 1.697302 -2.688614 0.000000 0.000002 0.000000
 43   -0.664068 1.698578 2.869377 0.000000 0.000002 0.000000
end
