version 1
nodes
  0 "Bip01" -1
  1 "Bip01 Pelvis" 0
  2 "Bip01 Spine" 1
  3 "Bip01 Spine1" 2
  4 "Bip01 Spine2" 3
  5 "Bip01 Spine3" 4
  6 "Bip01 Neck" 5
  7 "Bip01 L Arm" 6
  8 "Bip01 L Arm1" 7
  9 "Bip01 L Arm2" 8
 10 "Bip01 L Hand" 9
 11 "Bip06 L elbow2-smooth" 8
 12 "Bip01 R Arm" 6
 13 "Bip01 R Arm1" 12
 14 "Bip01 R Arm2" 13
 15 "Bip01 R Hand" 14
 16 "Bip06 R elbow2-smooth" 13
 17 "Bip01 Head" 6
 18 "Bip06 Head_helper" 17
 19 "Bip06 Head_eyes_l" 18
 20 "Bip06 Head_eyes_r" 18
 21 "Bip06 Head_blink_l" 18
 22 "Bip06 Head_blink_smooth_l1" 21
 23 "Bip06 Head_blink_r" 18
 24 "Bip06 Head_blink_smooth_r1" 23
 25 "Bip06 Head_L_eyebrow" 18
 26 "Bip06 Head_R_eyebrow" 18
 27 "Bip06 Head_blink_l_lid" 18
 28 "Bip06 Head_blink_r_lid" 18
 29 "Bip06 bunny" 18
 30 "Bip06 bunnyL" 29
 31 "Bip06 bunnyR" 29
 32 "Bip01 L Leg" 1
 33 "Bip01 L Leg1" 32
 34 "Bip01 L Foot" 33
 35 "Bip01 R Leg" 1
 36 "Bip01 R Leg1" 35
 37 "Bip01 R Foot" 36
 38 "Bip03 HairR1" 17
 39 "Bip03 HairR2" 38
 40 "Bip03 HairL1" 17
 41 "Bip03 HairL2" 40
 42 "Bip03 swingR" 17
 43 "Bip03 swingL" 17
end
skeleton
time 0
  0   -0.967547 0.175787 -20.574476 0.000000 0.000000 -1.572114
  1   -1.093036 0.000002 -0.326057 -1.570809 -1.570379 -0.000171
  2   2.262337 0.113614 0.064702 -0.000052 0.000061 0.192406
  3   2.380047 0.353302 0.047440 0.000000 -0.000040 0.060890
  4   2.033756 0.190472 -0.000128 -0.171729 0.030045 0.171351
  5   2.451511 0.204909 -0.003447 -0.138715 0.014421 0.103433
  6   7.247600 -0.397300 -0.109469 0.000001 0.000009 0.052298
  7   -2.022252 -0.104661 3.136172 0.914491 -1.249872 -4.083932
  8   1.168026 -0.537438 -0.063437 -0.126200 0.377071 -0.992809
  9   6.790376 -0.619176 0.015206 0.660106 -0.445042 -1.100468
 10   8.637599 0.544015 -0.090417 -1.995906 -0.171602 -0.530260
 11   6.790465 -0.619039 0.017802 0.406187 -0.399172 -0.743862
 12   -2.022474 -0.104699 -2.873818 0.838938 1.276034 -2.481968
 13   1.167898 -0.537463 0.063297 0.060874 -1.207565 -0.727598
 14   7.002743 -0.617765 -0.183752 -0.096101 0.335677 -1.855465
 15   8.209042 0.615527 -0.255885 1.475250 -0.366558 -0.333769
 16   7.002735 -0.617911 -0.183641 0.013827 0.271828 -1.297683
 17   1.574674 0.609930 -0.000899 0.005931 -0.087678 0.416765
 18   -0.602177 0.511412 -0.000006 0.000000 0.000000 0.000000
 19   3.673773 0.177020 1.119313 -0.000002 -0.000014 -0.174510
 20   3.673767 0.176993 -1.117566 0.000007 -0.000003 -0.174546
 21   3.942357 1.330634 1.627658 0.000002 -0.000011 -0.000026
 22   -0.246060 -0.011889 0.516521 -0.000011 0.000031 0.000025
 23   3.942374 1.330659 -1.631083 0.000019 0.000002 -0.000024
 24   -0.246150 -0.011872 -0.516511 -0.000005 -0.000006 0.000048
 25   4.941364 1.997338 1.629330 0.000018 -0.000001 -0.000024
 26   4.941382 1.997366 -1.629410 -0.000001 0.000005 -0.000024
 27   2.918368 1.615358 1.514501 -0.000019 -0.000022 -0.000050
 28   2.920798 1.614964 -1.501142 -0.000002 -0.000009 -0.000024
 29   8.824059 0.150544 0.091743 0.000006 -0.000231 -0.174534
 30   2.111085 -0.561179 1.784320 -0.000008 -0.000682 0.000024
 31   2.121290 -0.561289 -1.853599 0.000000 0.000000 -0.000002
 32   -0.810489 -0.093824 3.127092 3.071592 -0.114878 1.239365
 33   14.298673 -0.408176 0.475484 0.000008 -0.000003 -1.896136
 34   15.835795 0.581398 0.242756 -0.214729 0.106889 -0.097869
 35   -0.815868 -0.091229 -3.114430 0.066464 3.132725 -1.010185
 36   14.294526 -0.410349 -0.463635 0.000021 -0.000024 -2.607695
 37   15.834409 0.579420 -0.284600 -0.006112 -0.035383 0.214458
 38   1.139685 -3.453749 -2.823813 0.000000 0.000000 0.000001
 39   -4.457742 -1.054854 -0.746180 0.000000 0.000000 0.000000
 40   1.118101 -3.449769 3.237290 0.000000 0.000001 0.000000
 41   -4.433840 -1.059130 0.959566 -0.000001 0.000000 0.000000
 42   -0.657468 1.697302 -2.688614 0.000000 0.000002 0.000000
 43   -0.664068 1.698578 2.869377 0.000000 0.000002 0.000000
time 1
  0   -0.967547 0.175787 -20.574476 0.000000 0.000000 -1.572114
  1   -1.093036 0.000002 -0.326057 -1.570809 -1.570379 -0.000171
  2   2.262337 0.113614 0.064702 -0.000052 0.000061 0.192406
  3   2.380047 0.353302 0.047440 0.027347 -0.001646 0.060890
  4   2.033756 0.190472 -0.000128 -0.095506 0.016779 0.173272
  5   2.451511 0.204909 -0.003447 -0.138715 0.014421 0.103433
  6   7.247600 -0.397300 -0.109469 0.000001 0.000009 0.052298
  7   -2.022252 -0.104661 3.136172 0.914491 -1.249872 -4.083650
  8   1.168026 -0.537438 -0.063437 -0.014320 0.491486 -0.847183
  9   6.790376 -0.619176 0.015206 0.661770 -0.396655 -1.209896
 10   8.637599 0.544015 -0.090417 -1.995994 -0.171602 -0.530260
 11   6.790465 -0.619039 0.017802 0.412260 -0.374101 -0.826740
 12   -2.022474 -0.104699 -2.873818 0.838938 1.276034 -2.482159
 13   1.167898 -0.537463 0.063297 0.060874 -1.207565 -0.687766
 14   7.002743 -0.617765 -0.183752 -0.120695 0.380197 -1.911156
 15   8.209042 0.615527 -0.255885 1.434769 -0.253447 -0.321501
 16   7.002735 -0.617911 -0.183641 0.008978 0.310285 -1.330026
 17   1.574674 0.609930 -0.000899 0.078519 -0.108481 0.453578
 18   -0.602177 0.511412 -0.000006 0.000000 0.000000 0.000000
 19   3.673773 0.177020 1.119313 -0.000002 -0.000014 -0.174510
 20   3.673767 0.176993 -1.117566 0.000007 -0.000003 -0.174546
 21   3.942357 1.330634 1.627658 0.000002 -0.000011 -0.000026
 22   -0.246060 -0.011889 0.516521 -0.000011 0.000031 0.000025
 23   3.942374 1.330659 -1.631083 0.000019 0.000002 -0.000024
 24   -0.246150 -0.011872 -0.516511 -0.000005 -0.000006 0.000048
 25   4.941364 1.997338 1.629330 0.000018 -0.000001 -0.000024
 26   4.941382 1.997366 -1.629410 -0.000001 0.000005 -0.000024
 27   2.918368 1.615358 1.514501 -0.000019 -0.000022 -0.000050
 28   2.920798 1.614964 -1.501142 -0.000002 -0.000009 -0.000024
 29   8.824059 0.150544 0.091743 0.000006 -0.000231 -0.174534
 30   2.111085 -0.561179 1.784320 -0.000008 -0.000682 0.000024
 31   2.121290 -0.561289 -1.853599 0.000000 0.000000 -0.000002
 32   -0.810489 -0.093824 3.127092 3.071592 -0.114878 1.239365
 33   14.298673 -0.408176 0.475484 0.000008 -0.000003 -1.896136
 34   15.835795 0.581398 0.242756 -0.214729 0.106889 -0.097869
 35   -0.815868 -0.091229 -3.114430 0.066464 3.132725 -1.010185
 36   14.294526 -0.410349 -0.463635 0.000021 -0.000024 -2.607695
 37   15.834409 0.579420 -0.284600 -0.006112 -0.035383 0.214458
 38   1.139685 -3.453749 -2.823813 0.000000 0.000000 0.000001
 39   -4.457742 -1.054854 -0.746180 0.000000 0.000000 0.000000
 40   1.118101 -3.449769 3.237290 0.000000 0.000001 0.000000
 41   -4.433840 -1.059130 0.959566 -0.000001 0.000000 0.000000
 42   -0.657468 1.697302 -2.688614 0.000000 0.000002 0.000000
 43   -0.664068 1.698578 2.869377 0.000000 0.000002 0.000000
time 2
  0   -0.967547 0.175787 -20.574476 0.000000 0.000000 -1.572114
  1   -1.093036 0.000002 -0.326057 -1.570809 -1.570379 -0.000171
  2   2.262337 0.113614 0.064702 -0.000052 0.000061 0.192406
  3   2.380047 0.353302 0.047440 0.054724 -0.003324 0.060788
  4   2.033756 0.190472 -0.000128 -0.019375 0.003464 0.173924
  5   2.451511 0.204909 -0.003447 -0.138715 0.014421 0.103433
  6   7.247600 -0.397300 -0.109469 0.000001 0.000009 0.052298
  7   -2.022252 -0.104661 3.136172 0.914491 -1.249872 -4.083932
  8   1.168026 -0.537438 -0.063437 0.123252 0.588593 -0.677329
  9   6.790376 -0.619176 0.015206 0.657665 -0.348202 -1.316984
 10   8.637599 0.544015 -0.090417 -1.995994 -0.171602 -0.530260
 11   6.790465 -0.619039 0.017802 0.415384 -0.348234 -0.908120
 12   -2.022474 -0.104699 -2.873818 0.838938 1.276034 -2.481968
 13   1.167898 -0.537463 0.063297 0.060874 -1.207565 -0.647692
 14   7.002743 -0.617765 -0.183752 -0.148479 0.423239 -1.968580
 15   8.209042 0.615527 -0.255885 1.396661 -0.139655 -0.313924
 16   7.002735 -0.617911 -0.183641 0.002764 0.348798 -1.362424
 17   1.574674 0.609930 -0.000899 0.150498 -0.131603 0.488765
 18   -0.602177 0.511412 -0.000006 0.000000 0.000000 0.000000
 19   3.673773 0.177020 1.119313 -0.000002 -0.000014 -0.174510
 20   3.673767 0.176993 -1.117566 0.000007 -0.000003 -0.174546
 21   3.942357 1.330634 1.627658 0.000002 -0.000011 -0.000026
 22   -0.246060 -0.011889 0.516521 -0.000011 0.000031 0.000025
 23   3.942374 1.330659 -1.631083 0.000019 0.000002 -0.000024
 24   -0.246150 -0.011872 -0.516511 -0.000005 -0.000006 0.000048
 25   4.941364 1.997338 1.629330 0.000018 -0.000001 -0.000024
 26   4.941382 1.997366 -1.629410 -0.000001 0.000005 -0.000024
 27   2.918368 1.615358 1.514501 -0.000019 -0.000022 -0.000050
 28   2.920798 1.614964 -1.501142 -0.000002 -0.000009 -0.000024
 29   8.824059 0.150544 0.091743 0.000006 -0.000231 -0.174534
 30   2.111085 -0.561179 1.784320 -0.000008 -0.000682 0.000024
 31   2.121290 -0.561289 -1.853599 0.000000 0.000000 -0.000002
 32   -0.810489 -0.093824 3.127092 3.071592 -0.114878 1.239365
 33   14.298673 -0.408176 0.475484 0.000008 -0.000003 -1.896136
 34   15.835795 0.581398 0.242756 -0.214729 0.106889 -0.097869
 35   -0.815868 -0.091229 -3.114430 0.066464 3.132725 -1.010185
 36   14.294526 -0.410349 -0.463635 0.000021 -0.000024 -2.607695
 37   15.834409 0.579420 -0.284600 -0.006112 -0.035383 0.214458
 38   1.139685 -3.453749 -2.823813 0.000000 0.000000 0.000001
 39   -4.457742 -1.054854 -0.746180 0.000000 0.000000 0.000000
 40   1.118101 -3.449769 3.237290 0.000000 0.000001 0.000000
 41   -4.433840 -1.059130 0.959566 -0.000001 0.000000 0.000000
 42   -0.657468 1.697302 -2.688614 0.000000 0.000002 0.000000
 43   -0.664068 1.698578 2.869377 0.000000 0.000002 0.000000
time 3
  0   -0.967547 0.175787 -20.574476 0.000000 0.000000 -1.572114
  1   -1.093036 0.000002 -0.326057 -1.570809 -1.570379 -0.000171
  2   2.262337 0.113614 0.064702 -0.000052 0.000061 0.192406
  3   2.380047 0.353302 0.047440 0.082056 -0.004990 0.060625
  4   2.033756 0.190472 -0.000128 0.056498 -0.009648 0.173852
  5   2.451511 0.204909 -0.003447 -0.138715 0.014421 0.103433
  6   7.247600 -0.397300 -0.109469 0.000001 0.000009 0.052298
  7   -2.022252 -0.104661 3.136172 0.914491 -1.249872 -4.083932
  8   1.168026 -0.537438 -0.063437 0.288920 0.662857 -0.481728
  9   6.790376 -0.619176 0.015206 0.648233 -0.300482 -1.422639
 10   8.637599 0.544015 -0.090417 -1.995994 -0.171602 -0.530260
 11   6.790465 -0.619039 0.017802 0.415530 -0.321799 -0.988807
 12   -2.022474 -0.104699 -2.873818 0.838938 1.276034 -2.481968
 13   1.167898 -0.537463 0.063297 0.060874 -1.207565 -0.607860
 14   7.002743 -0.617765 -0.183752 -0.179621 0.464749 -2.028974
 15   8.209042 0.615527 -0.255885 1.359702 -0.025712 -0.310857
 16   7.002735 -0.617911 -0.183641 -0.004768 0.387311 -1.395595
 17   1.574674 0.609930 -0.000899 0.221827 -0.157306 0.522325
 18   -0.602177 0.511412 -0.000006 0.000000 0.000000 0.000000
 19   3.673773 0.177020 1.119313 -0.000002 -0.000014 -0.174510
 20   3.673767 0.176993 -1.117566 0.000007 -0.000003 -0.174546
 21   3.942357 1.330634 1.627658 0.000002 -0.000011 -0.000026
 22   -0.246060 -0.011889 0.516521 -0.000011 0.000031 0.000025
 23   3.942374 1.330659 -1.631083 0.000019 0.000002 -0.000024
 24   -0.246150 -0.011872 -0.516511 -0.000005 -0.000006 0.000048
 25   4.941364 1.997338 1.629330 0.000018 -0.000001 -0.000024
 26   4.941382 1.997366 -1.629410 -0.000001 0.000005 -0.000024
 27   2.918368 1.615358 1.514501 -0.000019 -0.000022 -0.000050
 28   2.920798 1.614964 -1.501142 -0.000002 -0.000009 -0.000024
 29   8.824059 0.150544 0.091743 0.000006 -0.000231 -0.174534
 30   2.111085 -0.561179 1.784320 -0.000008 -0.000682 0.000024
 31   2.121290 -0.561289 -1.853599 0.000000 0.000000 -0.000002
 32   -0.810489 -0.093824 3.127092 3.071592 -0.114878 1.239365
 33   14.298673 -0.408176 0.475484 0.000008 -0.000003 -1.896136
 34   15.835795 0.581398 0.242756 -0.214729 0.106889 -0.097869
 35   -0.815868 -0.091229 -3.114430 0.066464 3.132725 -1.010185
 36   14.294526 -0.410349 -0.463635 0.000021 -0.000024 -2.607695
 37   15.834409 0.579420 -0.284600 -0.006112 -0.035383 0.214458
 38   1.139685 -3.453749 -2.823813 0.000000 0.000000 0.000001
 39   -4.457742 -1.054854 -0.746180 0.000000 0.000000 0.000000
 40   1.118101 -3.449769 3.237290 0.000000 0.000001 0.000000
 41   -4.433840 -1.059130 0.959566 -0.000001 0.000000 0.000000
 42   -0.657468 1.697302 -2.688614 0.000000 0.000002 0.000000
 43   -0.664068 1.698578 2.869377 0.000000 0.000002 0.000000
time 4
  0   -0.967547 0.175787 -20.574476 0.000000 0.000000 -1.572114
  1   -1.093036 0.000002 -0.326057 -1.570809 -1.570379 -0.000171
  2   2.262337 0.113614 0.064702 -0.000052 0.000061 0.192406
  3   2.380047 0.353302 0.047440 0.109342 -0.006584 0.060523
  4   2.033756 0.190472 -0.000128 0.132629 -0.022998 0.172656
  5   2.451511 0.204909 -0.003447 -0.138715 0.014421 0.103433
  6   7.247600 -0.397300 -0.109469 0.000001 0.000009 0.052298
  7   -2.022252 -0.104661 3.136172 0.914491 -1.249872 -4.083932
  8   1.168026 -0.537438 -0.063437 0.478192 0.707385 -0.263100
  9   6.790376 -0.619176 0.015206 0.633975 -0.253898 -1.527463
 10   8.637599 0.544015 -0.090417 -1.995994 -0.171602 -0.530260
 11   6.790465 -0.619039 0.017802 0.412756 -0.294994 -1.068341
 12   -2.022474 -0.104699 -2.873818 0.838938 1.276034 -2.481968
 13   1.167898 -0.537463 0.063297 0.060874 -1.207565 -0.568089
 14   7.002743 -0.617765 -0.183752 -0.214179 0.504385 -2.092173
 15   8.209042 0.615527 -0.255885 1.323176 0.087626 -0.311939
 16   7.002735 -0.617911 -0.183641 -0.013712 0.426050 -1.429373
 17   1.574674 0.609930 -0.000899 0.292424 -0.185351 0.554260
 18   -0.602177 0.511412 -0.000006 0.000000 0.000000 0.000000
 19   3.673773 0.177020 1.119313 -0.000002 -0.000014 -0.174510
 20   3.673767 0.176993 -1.117566 0.000007 -0.000003 -0.174546
 21   3.942357 1.330634 1.627658 0.000002 -0.000011 -0.000026
 22   -0.246060 -0.011889 0.516521 -0.000011 0.000031 0.000025
 23   3.942374 1.330659 -1.631083 0.000019 0.000002 -0.000024
 24   -0.246150 -0.011872 -0.516511 -0.000005 -0.000006 0.000048
 25   4.941364 1.997338 1.629330 0.000018 -0.000001 -0.000024
 26   4.941382 1.997366 -1.629410 -0.000001 0.000005 -0.000024
 27   2.918368 1.615358 1.514501 -0.000019 -0.000022 -0.000050
 28   2.920798 1.614964 -1.501142 -0.000002 -0.000009 -0.000024
 29   8.824059 0.150544 0.091743 0.000006 -0.000231 -0.174534
 30   2.111085 -0.561179 1.784320 -0.000008 -0.000682 0.000024
 31   2.121290 -0.561289 -1.853599 0.000000 0.000000 -0.000002
 32   -0.810489 -0.093824 3.127092 3.071592 -0.114878 1.239365
 33   14.298673 -0.408176 0.475484 0.000008 -0.000003 -1.896136
 34   15.835795 0.581398 0.242756 -0.214729 0.106889 -0.097869
 35   -0.815868 -0.091229 -3.114430 0.066464 3.132725 -1.010185
 36   14.294526 -0.410349 -0.463635 0.000021 -0.000024 -2.607695
 37   15.834409 0.579420 -0.284600 -0.006112 -0.035383 0.214458
 38   1.139685 -3.453749 -2.823813 0.000000 0.000000 0.000001
 39   -4.457742 -1.054854 -0.746180 0.000000 0.000000 0.000000
 40   1.118101 -3.449769 3.237290 0.000000 0.000001 0.000000
 41   -4.433840 -1.059130 0.959566 -0.000001 0.000000 0.000000
 42   -0.657468 1.697302 -2.688614 0.000000 0.000002 0.000000
 43   -0.664068 1.698578 2.869377 0.000000 0.000002 0.000000
time 5
  0   -0.967547 0.175787 -20.574476 0.000000 0.000000 -1.572114
  1   -1.093036 0.000002 -0.326057 -1.570809 -1.570379 -0.000171
  2   2.262337 0.113614 0.064702 -0.000052 0.000061 0.192406
  3   2.380047 0.353302 0.047440 0.136764 -0.008202 0.060278
  4   2.033756 0.190472 -0.000128 0.208871 -0.036217 0.170191
  5   2.451511 0.204909 -0.003447 -0.138715 0.014421 0.103433
  6   7.247600 -0.397300 -0.109469 0.000001 0.000009 0.052298
  7   -2.022252 -0.104661 3.136172 0.914491 -1.249872 -4.083932
  8   1.168026 -0.537438 -0.063437 0.680879 0.718404 -0.032642
  9   6.790376 -0.619176 0.015206 0.614779 -0.209182 -1.632061
 10   8.637599 0.544015 -0.090417 -1.995994 -0.171602 -0.530260
 11   6.790465 -0.619039 0.017802 0.407063 -0.268274 -1.147125
 12   -2.022474 -0.104699 -2.873818 0.838938 1.276034 -2.481968
 13   1.167898 -0.537463 0.063297 0.060874 -1.207565 -0.528136
 14   7.002743 -0.617765 -0.183752 -0.252323 0.542033 -2.158095
 15   8.209042 0.615527 -0.255885 1.285643 0.201343 -0.317412
 16   7.002735 -0.617911 -0.183641 -0.024398 0.464450 -1.463758
 17   1.574674 0.609930 -0.000899 0.362697 -0.215503 0.583976
 18   -0.602177 0.511412 -0.000006 0.000000 0.000000 0.000000
 19   3.673773 0.177020 1.119313 -0.000002 -0.000014 -0.174510
 20   3.673767 0.176993 -1.117566 0.000007 -0.000003 -0.174546
 21   3.942357 1.330634 1.627658 0.000002 -0.000011 -0.000026
 22   -0.246060 -0.011889 0.516521 -0.000011 0.000031 0.000025
 23   3.942374 1.330659 -1.631083 0.000019 0.000002 -0.000024
 24   -0.246150 -0.011872 -0.516511 -0.000005 -0.000006 0.000048
 25   4.941364 1.997338 1.629330 0.000018 -0.000001 -0.000024
 26   4.941382 1.997366 -1.629410 -0.000001 0.000005 -0.000024
 27   2.918368 1.615358 1.514501 -0.000019 -0.000022 -0.000050
 28   2.920798 1.614964 -1.501142 -0.000002 -0.000009 -0.000024
 29   8.824059 0.150544 0.091743 0.000006 -0.000231 -0.174534
 30   2.111085 -0.561179 1.784320 -0.000008 -0.000682 0.000024
 31   2.121290 -0.561289 -1.853599 0.000000 0.000000 -0.000002
 32   -0.810489 -0.093824 3.127092 3.071592 -0.114878 1.239365
 33   14.298673 -0.408176 0.475484 0.000008 -0.000003 -1.896136
 34   15.835795 0.581398 0.242756 -0.214729 0.106889 -0.097869
 35   -0.815868 -0.091229 -3.114430 0.066464 3.132725 -1.010185
 36   14.294526 -0.410349 -0.463635 0.000021 -0.000024 -2.607695
 37   15.834409 0.579420 -0.284600 -0.006112 -0.035383 0.214458
 38   1.139685 -3.453749 -2.823813 0.000000 0.000000 0.000001
 39   -4.457742 -1.054854 -0.746180 0.000000 0.000000 0.000000
 40   1.118101 -3.449769 3.237290 0.000000 0.000001 0.000000
 41   -4.433840 -1.059130 0.959566 -0.000001 0.000000 0.000000
 42   -0.657468 1.697302 -2.688614 0.000000 0.000002 0.000000
 43   -0.664068 1.698578 2.869377 0.000000 0.000002 0.000000
time 6
  0   -0.967547 0.175787 -20.574476 0.000000 0.000000 -1.572114
  1   -1.093036 0.000002 -0.326057 -1.570809 -1.570379 -0.000171
  2   2.262337 0.113614 0.064702 -0.000052 0.000061 0.192406
  3   2.380047 0.353302 0.047440 0.164126 -0.009819 0.060033
  4   2.033756 0.190472 -0.000128 0.285094 -0.049305 0.167037
  5   2.451511 0.204909 -0.003447 -0.138715 0.014421 0.103433
  6   7.247600 -0.397300 -0.109469 0.000001 0.000009 0.052298
  7   -2.022252 -0.104661 3.136172 0.914491 -1.249872 -4.083650
  8   1.168026 -0.537438 -0.063437 0.880086 0.694303 0.194716
  9   6.790376 -0.619176 0.015206 0.591200 -0.166535 -1.736055
 10   8.637599 0.544015 -0.090417 -1.995994 -0.171602 -0.530260
 11   6.790465 -0.619039 0.017802 0.398567 -0.241725 -1.225159
 12   -2.022474 -0.104699 -2.873818 0.838938 1.276034 -2.481968
 13   1.167898 -0.537463 0.063297 0.060874 -1.207565 -0.488304
 14   7.002743 -0.617765 -0.183752 -0.294283 0.577410 -2.227152
 15   8.209042 0.615527 -0.255885 1.246312 0.314908 -0.327515
 16   7.002735 -0.617911 -0.183641 -0.036590 0.502963 -1.498971
 17   1.574674 0.609930 -0.000899 0.432442 -0.247595 0.611845
 18   -0.602177 0.511412 -0.000006 0.000000 0.000000 0.000000
 19   3.673773 0.177020 1.119313 -0.000002 -0.000014 -0.174510
 20   3.673767 0.176993 -1.117566 0.000007 -0.000003 -0.174546
 21   3.942357 1.330634 1.627658 0.000002 -0.000011 -0.000026
 22   -0.246060 -0.011889 0.516521 -0.000011 0.000031 0.000025
 23   3.942374 1.330659 -1.631083 0.000019 0.000002 -0.000024
 24   -0.246150 -0.011872 -0.516511 -0.000005 -0.000006 0.000048
 25   4.941364 1.997338 1.629330 0.000018 -0.000001 -0.000024
 26   4.941382 1.997366 -1.629410 -0.000001 0.000005 -0.000024
 27   2.918368 1.615358 1.514501 -0.000019 -0.000022 -0.000050
 28   2.920798 1.614964 -1.501142 -0.000002 -0.000009 -0.000024
 29   8.824059 0.150544 0.091743 0.000006 -0.000231 -0.174534
 30   2.111085 -0.561179 1.784320 -0.000008 -0.000682 0.000024
 31   2.121290 -0.561289 -1.853599 0.000000 0.000000 -0.000002
 32   -0.810489 -0.093824 3.127092 3.071592 -0.114878 1.239365
 33   14.298673 -0.408176 0.475484 0.000008 -0.000003 -1.896136
 34   15.835795 0.581398 0.242756 -0.214729 0.106889 -0.097869
 35   -0.815868 -0.091229 -3.114430 0.066464 3.132725 -1.010185
 36   14.294526 -0.410349 -0.463635 0.000021 -0.000024 -2.607695
 37   15.834409 0.579420 -0.284600 -0.006112 -0.035383 0.214458
 38   1.139685 -3.453749 -2.823813 0.000000 0.000000 0.000001
 39   -4.457742 -1.054854 -0.746180 0.000000 0.000000 0.000000
 40   1.118101 -3.449769 3.237290 0.000000 0.000001 0.000000
 41   -4.433840 -1.059130 0.959566 -0.000001 0.000000 0.000000
 42   -0.657468 1.697302 -2.688614 0.000000 0.000002 0.000000
 43   -0.664068 1.698578 2.869377 0.000000 0.000002 0.000000
time 7
  0   -0.967547 0.175787 -20.574476 0.000000 0.000000 -1.572114
  1   -1.093036 0.000002 -0.326057 -1.570809 -1.570379 -0.000171
  2   2.262337 0.113614 0.064702 -0.000052 0.000061 0.192406
  3   2.380047 0.353302 0.047440 0.191533 -0.011461 0.059727
  4   2.033756 0.190472 -0.000128 0.361483 -0.061936 0.162833
  5   2.451511 0.204909 -0.003447 -0.138715 0.014421 0.103433
  6   7.247600 -0.397300 -0.109469 0.000001 0.000009 0.052298
  7   -2.022252 -0.104661 3.136172 0.914491 -1.249872 -4.083932
  8   1.168026 -0.537438 -0.063437 1.061511 0.637750 0.405120
  9   6.790376 -0.619176 0.015206 0.563516 -0.126691 -1.840653
 10   8.637599 0.544015 -0.090417 -1.995994 -0.171602 -0.530260
 11   6.790465 -0.619039 0.017802 0.387151 -0.215574 -1.302443
 12   -2.022474 -0.104699 -2.873818 0.838938 1.276034 -2.481968
 13   1.167898 -0.537463 0.063297 0.060874 -1.207565 -0.448230
 14   7.002743 -0.617765 -0.183752 -0.340057 0.610174 -2.299757
 15   8.209042 0.615527 -0.255885 1.204177 0.427943 -0.342910
 16   7.002735 -0.617911 -0.183641 -0.050524 0.541420 -1.535067
 17   1.574674 0.609930 -0.000899 0.501902 -0.281509 0.637718
 18   -0.602177 0.511412 -0.000006 0.000000 0.000000 0.000000
 19   3.673773 0.177020 1.119313 -0.000002 -0.000014 -0.174510
 20   3.673767 0.176993 -1.117566 0.000007 -0.000003 -0.174546
 21   3.942357 1.330634 1.627658 0.000002 -0.000011 -0.000026
 22   -0.246060 -0.011889 0.516521 -0.000011 0.000031 0.000025
 23   3.942374 1.330659 -1.631083 0.000019 0.000002 -0.000024
 24   -0.246150 -0.011872 -0.516511 -0.000005 -0.000006 0.000048
 25   4.941364 1.997338 1.629330 0.000018 -0.000001 -0.000024
 26   4.941382 1.997366 -1.629410 -0.000001 0.000005 -0.000024
 27   2.918368 1.615358 1.514501 -0.000019 -0.000022 -0.000050
 28   2.920798 1.614964 -1.501142 -0.000002 -0.000009 -0.000024
 29   8.824059 0.150544 0.091743 0.000006 -0.000231 -0.174534
 30   2.111085 -0.561179 1.784320 -0.000008 -0.000682 0.000024
 31   2.121290 -0.561289 -1.853599 0.000000 0.000000 -0.000002
 32   -0.810489 -0.093824 3.127092 3.071592 -0.114878 1.239365
 33   14.298673 -0.408176 0.475484 0.000008 -0.000003 -1.896136
 34   15.835795 0.581398 0.242756 -0.214729 0.106889 -0.097869
 35   -0.815868 -0.091229 -3.114430 0.066464 3.132725 -1.010185
 36   14.294526 -0.410349 -0.463635 0.000021 -0.000024 -2.607695
 37   15.834409 0.579420 -0.284600 -0.006112 -0.035383 0.214458
 38   1.139685 -3.453749 -2.823813 0.000000 0.000000 0.000001
 39   -4.457742 -1.054854 -0.746180 0.000000 0.000000 0.000000
 40   1.118101 -3.449769 3.237290 0.000000 0.000001 0.000000
 41   -4.433840 -1.059130 0.959566 -0.000001 0.000000 0.000000
 42   -0.657468 1.697302 -2.688614 0.000000 0.000002 0.000000
 43   -0.664068 1.698578 2.869377 0.000000 0.000002 0.000000
time 8
  0   -0.967547 0.175787 -20.574476 0.000000 0.000000 -1.572114
  1   -1.093036 0.000002 -0.326057 -1.570809 -1.570379 -0.000171
  2   2.262337 0.113614 0.064702 -0.000052 0.000061 0.192406
  3   2.380047 0.353302 0.047440 0.164126 -0.009819 0.060033
  4   2.033756 0.190472 -0.000128 0.285094 -0.049305 0.167037
  5   2.451511 0.204909 -0.003447 -0.138715 0.014421 0.103433
  6   7.247600 -0.397300 -0.109469 0.000001 0.000009 0.052298
  7   -2.022252 -0.104661 3.136172 0.914491 -1.249872 -4.083650
  8   1.168026 -0.537438 -0.063437 0.880086 0.694303 0.194716
  9   6.790376 -0.619176 0.015206 0.591200 -0.166535 -1.736055
 10   8.637599 0.544015 -0.090417 -1.995994 -0.171602 -0.530260
 11   6.790465 -0.619039 0.017802 0.398567 -0.241725 -1.225159
 12   -2.022474 -0.104699 -2.873818 0.838938 1.276034 -2.481968
 13   1.167898 -0.537463 0.063297 0.060874 -1.207565 -0.488304
 14   7.002743 -0.617765 -0.183752 -0.294283 0.577410 -2.227152
 15   8.209042 0.615527 -0.255885 1.246312 0.314908 -0.327515
 16   7.002735 -0.617911 -0.183641 -0.036590 0.502963 -1.498971
 17   1.574674 0.609930 -0.000899 0.407339 -0.234673 0.618757
 18   -0.602177 0.511412 -0.000006 0.000000 0.000000 0.000000
 19   3.673773 0.177020 1.119313 -0.000002 -0.000014 -0.174510
 20   3.673767 0.176993 -1.117566 0.000007 -0.000003 -0.174546
 21   3.942357 1.330634 1.627658 0.000002 -0.000011 -0.000026
 22   -0.246060 -0.011889 0.516521 -0.000011 0.000031 0.000025
 23   3.942374 1.330659 -1.631083 0.000019 0.000002 -0.000024
 24   -0.246150 -0.011872 -0.516511 -0.000005 -0.000006 0.000048
 25   4.941364 1.997338 1.629330 0.000018 -0.000001 -0.000024
 26   4.941382 1.997366 -1.629410 -0.000001 0.000005 -0.000024
 27   2.918368 1.615358 1.514501 -0.000019 -0.000022 -0.000050
 28   2.920798 1.614964 -1.501142 -0.000002 -0.000009 -0.000024
 29   8.824059 0.150544 0.091743 0.000006 -0.000231 -0.174534
 30   2.111085 -0.561179 1.784320 -0.000008 -0.000682 0.000024
 31   2.121290 -0.561289 -1.853599 0.000000 0.000000 -0.000002
 32   -0.810489 -0.093824 3.127092 3.071592 -0.114878 1.239365
 33   14.298673 -0.408176 0.475484 0.000008 -0.000003 -1.896136
 34   15.835795 0.581398 0.242756 -0.214729 0.106889 -0.097869
 35   -0.815868 -0.091229 -3.114430 0.066464 3.132725 -1.010185
 36   14.294526 -0.410349 -0.463635 0.000021 -0.000024 -2.607695
 37   15.834409 0.579420 -0.284600 -0.006112 -0.035383 0.214458
 38   1.139685 -3.453749 -2.823813 0.000000 0.000000 0.000001
 39   -4.457742 -1.054854 -0.746180 0.000000 0.000000 0.000000
 40   1.118101 -3.449769 3.237290 0.000000 0.000001 0.000000
 41   -4.433840 -1.059130 0.959566 -0.000001 0.000000 0.000000
 42   -0.657468 1.697302 -2.688614 0.000000 0.000002 0.000000
 43   -0.664068 1.698578 2.869377 0.000000 0.000002 0.000000
time 9
  0   -0.967547 0.175787 -20.574476 0.000000 0.000000 -1.572114
  1   -1.093036 0.000002 -0.326057 -1.570809 -1.570379 -0.000171
  2   2.262337 0.113614 0.064702 -0.000052 0.000061 0.192406
  3   2.380047 0.353302 0.047440 0.136764 -0.008202 0.060278
  4   2.033756 0.190472 -0.000128 0.208871 -0.036217 0.170191
  5   2.451511 0.204909 -0.003447 -0.138715 0.014421 0.103433
  6   7.247600 -0.397300 -0.109469 0.000001 0.000009 0.052298
  7   -2.022252 -0.104661 3.136172 0.914491 -1.249872 -4.083932
  8   1.168026 -0.537438 -0.063437 0.680879 0.718404 -0.032642
  9   6.790376 -0.619176 0.015206 0.614779 -0.209182 -1.632061
 10   8.637599 0.544015 -0.090417 -1.995994 -0.171602 -0.530260
 11   6.790465 -0.619039 0.017802 0.407063 -0.268274 -1.147125
 12   -2.022474 -0.104699 -2.873818 0.838938 1.276034 -2.481968
 13   1.167898 -0.537463 0.063297 0.060874 -1.207565 -0.528136
 14   7.002743 -0.617765 -0.183752 -0.252323 0.542033 -2.158095
 15   8.209042 0.615527 -0.255885 1.285643 0.201343 -0.317412
 16   7.002735 -0.617911 -0.183641 -0.024398 0.464450 -1.463758
 17   1.574674 0.609930 -0.000899 0.312856 -0.190108 0.595841
 18   -0.602177 0.511412 -0.000006 0.000000 0.000000 0.000000
 19   3.673773 0.177020 1.119313 -0.000002 -0.000014 -0.174510
 20   3.673767 0.176993 -1.117566 0.000007 -0.000003 -0.174546
 21   3.942357 1.330634 1.627658 0.000002 -0.000011 -0.000026
 22   -0.246060 -0.011889 0.516521 -0.000011 0.000031 0.000025
 23   3.942374 1.330659 -1.631083 0.000019 0.000002 -0.000024
 24   -0.246150 -0.011872 -0.516511 -0.000005 -0.000006 0.000048
 25   4.941364 1.997338 1.629330 0.000018 -0.000001 -0.000024
 26   4.941382 1.997366 -1.629410 -0.000001 0.000005 -0.000024
 27   2.918368 1.615358 1.514501 -0.000019 -0.000022 -0.000050
 28   2.920798 1.614964 -1.501142 -0.000002 -0.000009 -0.000024
 29   8.824059 0.150544 0.091743 0.000006 -0.000231 -0.174534
 30   2.111085 -0.561179 1.784320 -0.000008 -0.000682 0.000024
 31   2.121290 -0.561289 -1.853599 0.000000 0.000000 -0.000002
 32   -0.810489 -0.093824 3.127092 3.071592 -0.114878 1.239365
 33   14.298673 -0.408176 0.475484 0.000008 -0.000003 -1.896136
 34   15.835795 0.581398 0.242756 -0.214729 0.106889 -0.097869
 35   -0.815868 -0.091229 -3.114430 0.066464 3.132725 -1.010185
 36   14.294526 -0.410349 -0.463635 0.000021 -0.000024 -2.607695
 37   15.834409 0.579420 -0.284600 -0.006112 -0.035383 0.214458
 38   1.139685 -3.453749 -2.823813 0.000000 0.000000 0.000001
 39   -4.457742 -1.054854 -0.746180 0.000000 0.000000 0.000000
 40   1.118101 -3.449769 3.237290 0.000000 0.000001 0.000000
 41   -4.433840 -1.059130 0.959566 -0.000001 0.000000 0.000000
 42   -0.657468 1.697302 -2.688614 0.000000 0.000002 0.000000
 43   -0.664068 1.698578 2.869377 0.000000 0.000002 0.000000
time 10
  0   -0.967547 0.175787 -20.574476 0.000000 0.000000 -1.572114
  1   -1.093036 0.000002 -0.326057 -1.570809 -1.570379 -0.000171
  2   2.262337 0.113614 0.064702 -0.000052 0.000061 0.192406
  3   2.380047 0.353302 0.047440 0.109342 -0.006584 0.060523
  4   2.033756 0.190472 -0.000128 0.132629 -0.022998 0.172656
  5   2.451511 0.204909 -0.003447 -0.138715 0.014421 0.103433
  6   7.247600 -0.397300 -0.109469 0.000001 0.000009 0.052298
  7   -2.022252 -0.104661 3.136172 0.914491 -1.249872 -4.083932
  8   1.168026 -0.537438 -0.063437 0.478192 0.707385 -0.263100
  9   6.790376 -0.619176 0.015206 0.633975 -0.253898 -1.527463
 10   8.637599 0.544015 -0.090417 -1.995994 -0.171602 -0.530260
 11   6.790465 -0.619039 0.017802 0.412756 -0.294994 -1.068341
 12   -2.022474 -0.104699 -2.873818 0.838938 1.276034 -2.481968
 13   1.167898 -0.537463 0.063297 0.060874 -1.207565 -0.568089
 14   7.002743 -0.617765 -0.183752 -0.214179 0.504385 -2.092173
 15   8.209042 0.615527 -0.255885 1.323176 0.087626 -0.311939
 16   7.002735 -0.617911 -0.183641 -0.013712 0.426050 -1.429373
 17   1.574674 0.609930 -0.000899 0.218090 -0.147721 0.568785
 18   -0.602177 0.511412 -0.000006 0.000000 0.000000 0.000000
 19   3.673773 0.177020 1.119313 -0.000002 -0.000014 -0.174510
 20   3.673767 0.176993 -1.117566 0.000007 -0.000003 -0.174546
 21   3.942357 1.330634 1.627658 0.000002 -0.000011 -0.000026
 22   -0.246060 -0.011889 0.516521 -0.000011 0.000031 0.000025
 23   3.942374 1.330659 -1.631083 0.000019 0.000002 -0.000024
 24   -0.246150 -0.011872 -0.516511 -0.000005 -0.000006 0.000048
 25   4.941364 1.997338 1.629330 0.000018 -0.000001 -0.000024
 26   4.941382 1.997366 -1.629410 -0.000001 0.000005 -0.000024
 27   2.918368 1.615358 1.514501 -0.000019 -0.000022 -0.000050
 28   2.920798 1.614964 -1.501142 -0.000002 -0.000009 -0.000024
 29   8.824059 0.150544 0.091743 0.000006 -0.000231 -0.174534
 30   2.111085 -0.561179 1.784320 -0.000008 -0.000682 0.000024
 31   2.121290 -0.561289 -1.853599 0.000000 0.000000 -0.000002
 32   -0.810489 -0.093824 3.127092 3.071592 -0.114878 1.239365
 33   14.298673 -0.408176 0.475484 0.000008 -0.000003 -1.896136
 34   15.835795 0.581398 0.242756 -0.214729 0.106889 -0.097869
 35   -0.815868 -0.091229 -3.114430 0.066464 3.132725 -1.010185
 36   14.294526 -0.410349 -0.463635 0.000021 -0.000024 -2.607695
 37   15.834409 0.579420 -0.284600 -0.006112 -0.035383 0.214458
 38   1.139685 -3.453749 -2.823813 0.000000 0.000000 0.000001
 39   -4.457742 -1.054854 -0.746180 0.000000 0.000000 0.000000
 40   1.118101 -3.449769 3.237290 0.000000 0.000001 0.000000
 41   -4.433840 -1.059130 0.959566 -0.000001 0.000000 0.000000
 42   -0.657468 1.697302 -2.688614 0.000000 0.000002 0.000000
 43   -0.664068 1.698578 2.869377 0.000000 0.000002 0.000000
time 11
  0   -0.967547 0.175787 -20.574476 0.000000 0.000000 -1.572114
  1   -1.093036 0.000002 -0.326057 -1.570809 -1.570379 -0.000171
  2   2.262337 0.113614 0.064702 -0.000052 0.000061 0.192406
  3   2.380047 0.353302 0.047440 0.082056 -0.004990 0.060625
  4   2.033756 0.190472 -0.000128 0.056498 -0.009648 0.173852
  5   2.451511 0.204909 -0.003447 -0.138715 0.014421 0.103433
  6   7.247600 -0.397300 -0.109469 0.000001 0.000009 0.052298
  7   -2.022252 -0.104661 3.136172 0.914491 -1.249872 -4.083932
  8   1.168026 -0.537438 -0.063437 0.288920 0.662857 -0.481728
  9   6.790376 -0.619176 0.015206 0.648233 -0.300482 -1.422639
 10   8.637599 0.544015 -0.090417 -1.995994 -0.171602 -0.530260
 11   6.790465 -0.619039 0.017802 0.415530 -0.321799 -0.988807
 12   -2.022474 -0.104699 -2.873818 0.838938 1.276034 -2.481968
 13   1.167898 -0.537463 0.063297 0.060874 -1.207565 -0.607860
 14   7.002743 -0.617765 -0.183752 -0.179621 0.464749 -2.028974
 15   8.209042 0.615527 -0.255885 1.359702 -0.025712 -0.310857
 16   7.002735 -0.617911 -0.183641 -0.004768 0.387311 -1.395595
 17   1.574674 0.609930 -0.000899 0.122510 -0.108079 0.537923
 18   -0.602177 0.511412 -0.000006 0.000000 0.000000 0.000000
 19   3.673773 0.177020 1.119313 -0.000002 -0.000014 -0.174510
 20   3.673767 0.176993 -1.117566 0.000007 -0.000003 -0.174546
 21   3.942357 1.330634 1.627658 0.000002 -0.000011 -0.000026
 22   -0.246060 -0.011889 0.516521 -0.000011 0.000031 0.000025
 23   3.942374 1.330659 -1.631083 0.000019 0.000002 -0.000024
 24   -0.246150 -0.011872 -0.516511 -0.000005 -0.000006 0.000048
 25   4.941364 1.997338 1.629330 0.000018 -0.000001 -0.000024
 26   4.941382 1.997366 -1.629410 -0.000001 0.000005 -0.000024
 27   2.918368 1.615358 1.514501 -0.000019 -0.000022 -0.000050
 28   2.920798 1.614964 -1.501142 -0.000002 -0.000009 -0.000024
 29   8.824059 0.150544 0.091743 0.000006 -0.000231 -0.174534
 30   2.111085 -0.561179 1.784320 -0.000008 -0.000682 0.000024
 31   2.121290 -0.561289 -1.853599 0.000000 0.000000 -0.000002
 32   -0.810489 -0.093824 3.127092 3.071592 -0.114878 1.239365
 33   14.298673 -0.408176 0.475484 0.000008 -0.000003 -1.896136
 34   15.835795 0.581398 0.242756 -0.214729 0.106889 -0.097869
 35   -0.815868 -0.091229 -3.114430 0.066464 3.132725 -1.010185
 36   14.294526 -0.410349 -0.463635 0.000021 -0.000024 -2.607695
 37   15.834409 0.579420 -0.284600 -0.006112 -0.035383 0.214458
 38   1.139685 -3.453749 -2.823813 0.000000 0.000000 0.000001
 39   -4.457742 -1.054854 -0.746180 0.000000 0.000000 0.000000
 40   1.118101 -3.449769 3.237290 0.000000 0.000001 0.000000
 41   -4.433840 -1.059130 0.959566 -0.000001 0.000000 0.000000
 42   -0.657468 1.697302 -2.688614 0.000000 0.000002 0.000000
 43   -0.664068 1.698578 2.869377 0.000000 0.000002 0.000000
time 12
  0   -0.967547 0.175787 -20.574476 0.000000 0.000000 -1.572114
  1   -1.093036 0.000002 -0.326057 -1.570809 -1.570379 -0.000171
  2   2.262337 0.113614 0.064702 -0.000052 0.000061 0.192406
  3   2.380047 0.353302 0.047440 0.054724 -0.003324 0.060788
  4   2.033756 0.190472 -0.000128 -0.019375 0.003464 0.173924
  5   2.451511 0.204909 -0.003447 -0.138715 0.014421 0.103433
  6   7.247600 -0.397300 -0.109469 0.000001 0.000009 0.052298
  7   -2.022252 -0.104661 3.136172 0.914491 -1.249872 -4.083932
  8   1.168026 -0.537438 -0.063437 0.123252 0.588593 -0.677329
  9   6.790376 -0.619176 0.015206 0.657665 -0.348202 -1.316984
 10   8.637599 0.544015 -0.090417 -1.995994 -0.171602 -0.530260
 11   6.790465 -0.619039 0.017802 0.415384 -0.348234 -0.908120
 12   -2.022474 -0.104699 -2.873818 0.838938 1.276034 -2.481968
 13   1.167898 -0.537463 0.063297 0.060874 -1.207565 -0.647692
 14   7.002743 -0.617765 -0.183752 -0.148479 0.423239 -1.968580
 15   8.209042 0.615527 -0.255885 1.396661 -0.139655 -0.313924
 16   7.002735 -0.617911 -0.183641 0.002764 0.348798 -1.362424
 17   1.574674 0.609930 -0.000899 0.026281 -0.071490 0.503697
 18   -0.602177 0.511412 -0.000006 0.000000 0.000000 0.000000
 19   3.673773 0.177020 1.119313 -0.000002 -0.000014 -0.174510
 20   3.673767 0.176993 -1.117566 0.000007 -0.000003 -0.174546
 21   3.942357 1.330634 1.627658 0.000002 -0.000011 -0.000026
 22   -0.246060 -0.011889 0.516521 -0.000011 0.000031 0.000025
 23   3.942374 1.330659 -1.631083 0.000019 0.000002 -0.000024
 24   -0.246150 -0.011872 -0.516511 -0.000005 -0.000006 0.000048
 25   4.941364 1.997338 1.629330 0.000018 -0.000001 -0.000024
 26   4.941382 1.997366 -1.629410 -0.000001 0.000005 -0.000024
 27   2.918368 1.615358 1.514501 -0.000019 -0.000022 -0.000050
 28   2.920798 1.614964 -1.501142 -0.000002 -0.000009 -0.000024
 29   8.824059 0.150544 0.091743 0.000006 -0.000231 -0.174534
 30   2.111085 -0.561179 1.784320 -0.000008 -0.000682 0.000024
 31   2.121290 -0.561289 -1.853599 0.000000 0.000000 -0.000002
 32   -0.810489 -0.093824 3.127092 3.071592 -0.114878 1.239365
 33   14.298673 -0.408176 0.475484 0.000008 -0.000003 -1.896136
 34   15.835795 0.581398 0.242756 -0.214729 0.106889 -0.097869
 35   -0.815868 -0.091229 -3.114430 0.066464 3.132725 -1.010185
 36   14.294526 -0.410349 -0.463635 0.000021 -0.000024 -2.607695
 37   15.834409 0.579420 -0.284600 -0.006112 -0.035383 0.214458
 38   1.139685 -3.453749 -2.823813 0.000000 0.000000 0.000001
 39   -4.457742 -1.054854 -0.746180 0.000000 0.000000 0.000000
 40   1.118101 -3.449769 3.237290 0.000000 0.000001 0.000000
 41   -4.433840 -1.059130 0.959566 -0.000001 0.000000 0.000000
 42   -0.657468 1.697302 -2.688614 0.000000 0.000002 0.000000
 43   -0.664068 1.698578 2.869377 0.000000 0.000002 0.000000
time 13
  0   -0.967547 0.175787 -20.574476 0.000000 0.000000 -1.572114
  1   -1.093036 0.000002 -0.326057 -1.570809 -1.570379 -0.000171
  2   2.262337 0.113614 0.064702 -0.000052 0.000061 0.192406
  3   2.380047 0.353302 0.047440 0.027347 -0.001646 0.060890
  4   2.033756 0.190472 -0.000128 -0.095506 0.016779 0.173272
  5   2.451511 0.204909 -0.003447 -0.138715 0.014421 0.103433
  6   7.247600 -0.397300 -0.109469 0.000001 0.000009 0.052298
  7   -2.022252 -0.104661 3.136172 0.914491 -1.249872 -4.083650
  8   1.168026 -0.537438 -0.063437 -0.014320 0.491486 -0.847183
  9   6.790376 -0.619176 0.015206 0.661770 -0.396655 -1.209896
 10   8.637599 0.544015 -0.090417 -1.995994 -0.171602 -0.530260
 11   6.790465 -0.619039 0.017802 0.412260 -0.374101 -0.826740
 12   -2.022474 -0.104699 -2.873818 0.838938 1.276034 -2.482159
 13   1.167898 -0.537463 0.063297 0.060874 -1.207565 -0.687766
 14   7.002743 -0.617765 -0.183752 -0.120695 0.380197 -1.911156
 15   8.209042 0.615527 -0.255885 1.434769 -0.253447 -0.321501
 16   7.002735 -0.617911 -0.183641 0.008978 0.310285 -1.330026
 17   1.574674 0.609930 -0.000899 -0.070557 -0.038214 0.466034
 18   -0.602177 0.511412 -0.000006 0.000000 0.000000 0.000000
 19   3.673773 0.177020 1.119313 -0.000002 -0.000014 -0.174510
 20   3.673767 0.176993 -1.117566 0.000007 -0.000003 -0.174546
 21   3.942357 1.330634 1.627658 0.000002 -0.000011 -0.000026
 22   -0.246060 -0.011889 0.516521 -0.000011 0.000031 0.000025
 23   3.942374 1.330659 -1.631083 0.000019 0.000002 -0.000024
 24   -0.246150 -0.011872 -0.516511 -0.000005 -0.000006 0.000048
 25   4.941364 1.997338 1.629330 0.000018 -0.000001 -0.000024
 26   4.941382 1.997366 -1.629410 -0.000001 0.000005 -0.000024
 27   2.918368 1.615358 1.514501 -0.000019 -0.000022 -0.000050
 28   2.920798 1.614964 -1.501142 -0.000002 -0.000009 -0.000024
 29   8.824059 0.150544 0.091743 0.000006 -0.000231 -0.174534
 30   2.111085 -0.561179 1.784320 -0.000008 -0.000682 0.000024
 31   2.121290 -0.561289 -1.853599 0.000000 0.000000 -0.000002
 32   -0.810489 -0.093824 3.127092 3.071592 -0.114878 1.239365
 33   14.298673 -0.408176 0.475484 0.000008 -0.000003 -1.896136
 34   15.835795 0.581398 0.242756 -0.214729 0.106889 -0.097869
 35   -0.815868 -0.091229 -3.114430 0.066464 3.132725 -1.010185
 36   14.294526 -0.410349 -0.463635 0.000021 -0.000024 -2.607695
 37   15.834409 0.579420 -0.284600 -0.006112 -0.035383 0.214458
 38   1.139685 -3.453749 -2.823813 0.000000 0.000000 0.000001
 39   -4.457742 -1.054854 -0.746180 0.000000 0.000000 0.000000
 40   1.118101 -3.449769 3.237290 0.000000 0.000001 0.000000
 41   -4.433840 -1.059130 0.959566 -0.000001 0.000000 0.000000
 42   -0.657468 1.697302 -2.688614 0.000000 0.000002 0.000000
 43   -0.664068 1.698578 2.869377 0.000000 0.000002 0.000000
time 14
  0   -0.967547 0.175787 -20.574476 0.000000 0.000000 -1.572114
  1   -1.093036 0.000002 -0.326057 -1.570809 -1.570379 -0.000171
  2   2.262337 0.113614 0.064702 -0.000052 0.000061 0.192406
  3   2.380047 0.353302 0.047440 0.000000 -0.000040 0.060890
  4   2.033756 0.190472 -0.000128 -0.171729 0.030045 0.171351
  5   2.451511 0.204909 -0.003447 -0.138715 0.014421 0.103433
  6   7.247600 -0.397300 -0.109469 0.000001 0.000009 0.052298
  7   -2.022252 -0.104661 3.136172 0.914491 -1.249872 -4.083932
  8   1.168026 -0.537438 -0.063437 -0.126200 0.377071 -0.992809
  9   6.790376 -0.619176 0.015206 0.660106 -0.445042 -1.100468
 10   8.637599 0.544015 -0.090417 -1.995906 -0.171602 -0.530260
 11   6.790465 -0.619039 0.017802 0.406187 -0.399172 -0.743862
 12   -2.022474 -0.104699 -2.873818 0.838938 1.276034 -2.481968
 13   1.167898 -0.537463 0.063297 0.060874 -1.207565 -0.727598
 14   7.002743 -0.617765 -0.183752 -0.096101 0.335677 -1.855465
 15   8.209042 0.615527 -0.255885 1.475250 -0.366558 -0.333769
 16   7.002735 -0.617911 -0.183641 0.013827 0.271828 -1.297683
 17   1.574674 0.609930 -0.000899 -0.168980 -0.009104 0.425450
 18   -0.602177 0.511412 -0.000006 0.000000 0.000000 0.000000
 19   3.673773 0.177020 1.119313 -0.000002 -0.000014 -0.174510
 20   3.673767 0.176993 -1.117566 0.000007 -0.000003 -0.174546
 21   3.942357 1.330634 1.627658 0.000002 -0.000011 -0.000026
 22   -0.246060 -0.011889 0.516521 -0.000011 0.000031 0.000025
 23   3.942374 1.330659 -1.631083 0.000019 0.000002 -0.000024
 24   -0.246150 -0.011872 -0.516511 -0.000005 -0.000006 0.000048
 25   4.941364 1.997338 1.629330 0.000018 -0.000001 -0.000024
 26   4.941382 1.997366 -1.629410 -0.000001 0.000005 -0.000024
 27   2.918368 1.615358 1.514501 -0.000019 -0.000022 -0.000050
 28   2.920798 1.614964 -1.501142 -0.000002 -0.000009 -0.000024
 29   8.824059 0.150544 0.091743 0.000006 -0.000231 -0.174534
 30   2.111085 -0.561179 1.784320 -0.000008 -0.000682 0.000024
 31   2.121290 -0.561289 -1.853599 0.000000 0.000000 -0.000002
 32   -0.810489 -0.093824 3.127092 3.071592 -0.114878 1.239365
 33   14.298673 -0.408176 0.475484 0.000008 -0.000003 -1.896136
 34   15.835795 0.581398 0.242756 -0.214729 0.106889 -0.097869
 35   -0.815868 -0.091229 -3.114430 0.066464 3.132725 -1.010185
 36   14.294526 -0.410349 -0.463635 0.000021 -0.000024 -2.607695
 37   15.834409 0.579420 -0.284600 -0.006112 -0.035383 0.214458
 38   1.139685 -3.453749 -2.823813 0.000000 0.000000 0.000001
 39   -4.457742 -1.054854 -0.746180 0.000000 0.000000 0.000000
 40   1.118101 -3.449769 3.237290 0.000000 0.000001 0.000000
 41   -4.433840 -1.059130 0.959566 -0.000001 0.000000 0.000000
 42   -0.657468 1.697302 -2.688614 0.000000 0.000002 0.000000
 43   -0.664068 1.698578 2.869377 0.000000 0.000002 0.000000
time 15
  0   -0.967547 0.175787 -20.574476 0.000000 0.000000 -1.572114
  1   -1.093036 0.000002 -0.326057 -1.570809 -1.570379 -0.000171
  2   2.262337 0.113614 0.064702 -0.000052 0.000061 0.192406
  3   2.380047 0.353302 0.047440 0.000000 -0.000040 0.060890
  4   2.033756 0.190472 -0.000128 -0.171729 0.030045 0.171351
  5   2.451511 0.204909 -0.003447 -0.138715 0.014421 0.103433
  6   7.247600 -0.397300 -0.109469 0.000001 0.000009 0.052298
  7   -2.022252 -0.104661 3.136172 0.914491 -1.249872 -4.083932
  8   1.168026 -0.537438 -0.063437 -0.189164 0.284040 -1.012989
  9   6.790376 -0.619176 0.015206 0.660106 -0.445042 -1.193444
 10   8.637599 0.544015 -0.090417 -2.023206 -0.279651 -0.503999
 11   6.790465 -0.619039 0.017802 0.402625 -0.406449 -0.807881
 12   -2.022474 -0.104699 -2.873818 0.838938 1.276034 -2.481968
 13   1.167898 -0.537463 0.063297 0.060874 -1.207565 -0.727598
 14   7.002743 -0.617765 -0.183752 -0.096101 0.335677 -1.855465
 15   8.209042 0.615527 -0.255885 1.475250 -0.366558 -0.333769
 16   7.002735 -0.617911 -0.183641 0.013827 0.271828 -1.297683
 17   1.574674 0.609930 -0.000899 -0.168980 -0.009104 0.376071
 18   -0.602177 0.511412 -0.000006 0.000000 0.000000 0.000000
 19   3.673773 0.177020 1.119313 -0.000002 -0.000014 -0.174510
 20   3.673767 0.176993 -1.117566 0.000007 -0.000003 -0.174546
 21   3.942357 1.330634 1.627658 0.000002 -0.000011 -0.000026
 22   -0.246060 -0.011889 0.516521 -0.000011 0.000031 0.000025
 23   3.942374 1.330659 -1.631083 0.000019 0.000002 -0.000024
 24   -0.246150 -0.011872 -0.516511 -0.000005 -0.000006 0.000048
 25   4.941364 1.997338 1.629330 0.000018 -0.000001 -0.000024
 26   4.941382 1.997366 -1.629410 -0.000001 0.000005 -0.000024
 27   2.918368 1.615358 1.514501 -0.000019 -0.000022 -0.000050
 28   2.920798 1.614964 -1.501142 -0.000002 -0.000009 -0.000024
 29   8.824059 0.150544 0.091743 0.000006 -0.000231 -0.174534
 30   2.111085 -0.561179 1.784320 -0.000008 -0.000682 0.000024
 31   2.121290 -0.561289 -1.853599 0.000000 0.000000 -0.000002
 32   -0.810489 -0.093824 3.127092 3.071592 -0.114878 1.239365
 33   14.298673 -0.408176 0.475484 0.000008 -0.000003 -1.896136
 34   15.835795 0.581398 0.242756 -0.214729 0.106889 -0.097869
 35   -0.815868 -0.091229 -3.114430 0.066464 3.132725 -1.010185
 36   14.294526 -0.410349 -0.463635 0.000021 -0.000024 -2.607695
 37   15.834409 0.579420 -0.284600 -0.006112 -0.035383 0.214458
 38   1.139685 -3.453749 -2.823813 0.000000 0.000000 0.000001
 39   -4.457742 -1.054854 -0.746180 0.000000 0.000000 0.000000
 40   1.118101 -3.449769 3.237290 0.000000 0.000001 0.000000
 41   -4.433840 -1.059130 0.959566 -0.000001 0.000000 0.000000
 42   -0.657468 1.697302 -2.688614 0.000000 0.000002 0.000000
 43   -0.664068 1.698578 2.869377 0.000000 0.000002 0.000000
time 16
  0   -0.967547 0.175787 -20.574476 0.000000 0.000000 -1.572114
  1   -1.093036 0.000002 -0.326057 -1.570809 -1.570379 -0.000171
  2   2.262337 0.113614 0.064702 -0.000052 0.000061 0.192406
  3   2.380047 0.353302 0.047440 0.000000 -0.000040 0.060890
  4   2.033756 0.190472 -0.000128 -0.171729 0.030045 0.171351
  5   2.451511 0.204909 -0.003447 -0.138715 0.014421 0.103433
  6   7.247600 -0.397300 -0.109469 0.000001 0.000009 0.052298
  7   -2.022252 -0.104661 3.136172 0.914491 -1.249872 -4.083932
  8   1.168026 -0.537438 -0.063437 -0.248458 0.189751 -1.026969
  9   6.790376 -0.619176 0.015206 0.660106 -0.445042 -1.286571
 10   8.637599 0.544015 -0.090417 -2.054469 -0.387137 -0.473614
 11   6.790465 -0.619039 0.017802 0.399151 -0.413811 -0.872073
 12   -2.022474 -0.104699 -2.873818 0.838938 1.276034 -2.481968
 13   1.167898 -0.537463 0.063297 0.060874 -1.207565 -0.727598
 14   7.002743 -0.617765 -0.183752 -0.096101 0.335677 -1.855465
 15   8.209042 0.615527 -0.255885 1.475250 -0.366558 -0.333769
 16   7.002735 -0.617911 -0.183641 0.013827 0.271828 -1.297683
 17   1.574674 0.609930 -0.000899 -0.168980 -0.009104 0.326395
 18   -0.602177 0.511412 -0.000006 0.000000 0.000000 0.000000
 19   3.673773 0.177020 1.119313 -0.000002 -0.000014 -0.174510
 20   3.673767 0.176993 -1.117566 0.000007 -0.000003 -0.174546
 21   3.942357 1.330634 1.627658 0.000002 -0.000011 -0.000026
 22   -0.246060 -0.011889 0.516521 -0.000011 0.000031 0.000025
 23   3.942374 1.330659 -1.631083 0.000019 0.000002 -0.000024
 24   -0.246150 -0.011872 -0.516511 -0.000005 -0.000006 0.000048
 25   4.941364 1.997338 1.629330 0.000018 -0.000001 -0.000024
 26   4.941382 1.997366 -1.629410 -0.000001 0.000005 -0.000024
 27   2.918368 1.615358 1.514501 -0.000019 -0.000022 -0.000050
 28   2.920798 1.614964 -1.501142 -0.000002 -0.000009 -0.000024
 29   8.824059 0.150544 0.091743 0.000006 -0.000231 -0.174534
 30   2.111085 -0.561179 1.784320 -0.000008 -0.000682 0.000024
 31   2.121290 -0.561289 -1.853599 0.000000 0.000000 -0.000002
 32   -0.810489 -0.093824 3.127092 3.071592 -0.114878 1.239365
 33   14.298673 -0.408176 0.475484 0.000008 -0.000003 -1.896136
 34   15.835795 0.581398 0.242756 -0.214729 0.106889 -0.097869
 35   -0.815868 -0.091229 -3.114430 0.066464 3.132725 -1.010185
 36   14.294526 -0.410349 -0.463635 0.000021 -0.000024 -2.607695
 37   15.834409 0.579420 -0.284600 -0.006112 -0.035383 0.214458
 38   1.139685 -3.453749 -2.823813 0.000000 0.000000 0.000001
 39   -4.457742 -1.054854 -0.746180 0.000000 0.000000 0.000000
 40   1.118101 -3.449769 3.237290 0.000000 0.000001 0.000000
 41   -4.433840 -1.059130 0.959566 -0.000001 0.000000 0.000000
 42   -0.657468 1.697302 -2.688614 0.000000 0.000002 0.000000
 43   -0.664068 1.698578 2.869377 0.000000 0.000002 0.000000
time 17
  0   -0.967547 0.175787 -20.574476 0.000000 0.000000 -1.572114
  1   -1.093036 0.000002 -0.326057 -1.570809 -1.570379 -0.000171
  2   2.262337 0.113614 0.064702 -0.000052 0.000061 0.192406
  3   2.380047 0.353302 0.047440 0.000000 -0.000040 0.060890
  4   2.033756 0.190472 -0.000128 -0.171729 0.030045 0.171351
  5   2.451511 0.204909 -0.003447 -0.138715 0.014421 0.103433
  6   7.247600 -0.397300 -0.109469 0.000001 0.000009 0.052298
  7   -2.022252 -0.104661 3.136172 0.914491 -1.249872 -4.083932
  8   1.168026 -0.537438 -0.063437 -0.305727 0.094959 -1.034940
  9   6.790376 -0.619176 0.015206 0.660106 -0.445042 -1.379698
 10   8.637599 0.544015 -0.090417 -2.091016 -0.493849 -0.437225
 11   6.790465 -0.619039 0.017802 0.395647 -0.421287 -0.936323
 12   -2.022474 -0.104699 -2.873818 0.838938 1.276034 -2.481968
 13   1.167898 -0.537463 0.063297 0.060874 -1.207565 -0.727598
 14   7.002743 -0.617765 -0.183752 -0.096101 0.335677 -1.855465
 15   8.209042 0.615527 -0.255885 1.475250 -0.366558 -0.333769
 16   7.002735 -0.617911 -0.183641 0.013827 0.271828 -1.297683
 17   1.574674 0.609930 -0.000899 -0.168980 -0.009104 0.277015
 18   -0.602177 0.511412 -0.000006 0.000000 0.000000 0.000000
 19   3.673773 0.177020 1.119313 -0.000002 -0.000014 -0.174510
 20   3.673767 0.176993 -1.117566 0.000007 -0.000003 -0.174546
 21   3.942357 1.330634 1.627658 0.000002 -0.000011 -0.000026
 22   -0.246060 -0.011889 0.516521 -0.000011 0.000031 0.000025
 23   3.942374 1.330659 -1.631083 0.000019 0.000002 -0.000024
 24   -0.246150 -0.011872 -0.516511 -0.000005 -0.000006 0.000048
 25   4.941364 1.997338 1.629330 0.000018 -0.000001 -0.000024
 26   4.941382 1.997366 -1.629410 -0.000001 0.000005 -0.000024
 27   2.918368 1.615358 1.514501 -0.000019 -0.000022 -0.000050
 28   2.920798 1.614964 -1.501142 -0.000002 -0.000009 -0.000024
 29   8.824059 0.150544 0.091743 0.000006 -0.000231 -0.174534
 30   2.111085 -0.561179 1.784320 -0.000008 -0.000682 0.000024
 31   2.121290 -0.561289 -1.853599 0.000000 0.000000 -0.000002
 32   -0.810489 -0.093824 3.127092 3.071592 -0.114878 1.239365
 33   14.298673 -0.408176 0.475484 0.000008 -0.000003 -1.896136
 34   15.835795 0.581398 0.242756 -0.214729 0.106889 -0.097869
 35   -0.815868 -0.091229 -3.114430 0.066464 3.132725 -1.010185
 36   14.294526 -0.410349 -0.463635 0.000021 -0.000024 -2.607695
 37   15.834409 0.579420 -0.284600 -0.006112 -0.035383 0.214458
 38   1.139685 -3.453749 -2.823813 0.000000 0.000000 0.000001
 39   -4.457742 -1.054854 -0.746180 0.000000 0.000000 0.000000
 40   1.118101 -3.449769 3.237290 0.000000 0.000001 0.000000
 41   -4.433840 -1.059130 0.959566 -0.000001 0.000000 0.000000
 42   -0.657468 1.697302 -2.688614 0.000000 0.000002 0.000000
 43   -0.664068 1.698578 2.869377 0.000000 0.000002 0.000000
time 18
  0   -0.967547 0.175787 -20.574476 0.000000 0.000000 -1.572114
  1   -1.093036 0.000002 -0.326057 -1.570809 -1.570379 -0.000171
  2   2.262337 0.113614 0.064702 -0.000052 0.000061 0.192406
  3   2.380047 0.353302 0.047440 0.000000 -0.000040 0.060890
  4   2.033756 0.190472 -0.000128 -0.171729 0.030045 0.171351
  5   2.451511 0.204909 -0.003447 -0.138715 0.014421 0.103433
  6   7.247600 -0.397300 -0.109469 0.000001 0.000009 0.052298
  7   -2.022252 -0.104661 3.136172 0.914491 -1.249872 -4.083932
  8   1.168026 -0.537438 -0.063437 -0.362110 -0.000286 -1.037787
  9   6.790376 -0.619176 0.015206 0.199070 -0.379036 -1.236838
 10   8.637599 0.544015 -0.090417 -2.134784 -0.598449 -0.394759
 11   6.790465 -0.619039 0.017802 0.090429 -0.305369 -0.861864
 12   -2.022474 -0.104699 -2.873818 0.838938 1.276034 -2.481968
 13   1.167898 -0.537463 0.063297 0.060874 -1.207565 -0.727598
 14   7.002743 -0.617765 -0.183752 -0.096101 0.335677 -1.855465
 15   8.209042 0.615527 -0.255885 1.475250 -0.366558 -0.333769
 16   7.002735 -0.617911 -0.183641 0.013827 0.271828 -1.297683
 17   1.574674 0.609930 -0.000899 -0.168980 -0.009104 0.227524
 18   -0.602177 0.511412 -0.000006 0.000000 0.000000 0.000000
 19   3.673773 0.177020 1.119313 -0.000002 -0.000014 -0.174510
 20   3.673767 0.176993 -1.117566 0.000007 -0.000003 -0.174546
 21   3.942357 1.330634 1.627658 0.000002 -0.000011 -0.000026
 22   -0.246060 -0.011889 0.516521 -0.000011 0.000031 0.000025
 23   3.942374 1.330659 -1.631083 0.000019 0.000002 -0.000024
 24   -0.246150 -0.011872 -0.516511 -0.000005 -0.000006 0.000048
 25   4.941364 1.997338 1.629330 0.000018 -0.000001 -0.000024
 26   4.941382 1.997366 -1.629410 -0.000001 0.000005 -0.000024
 27   2.918368 1.615358 1.514501 -0.000019 -0.000022 -0.000050
 28   2.920798 1.614964 -1.501142 -0.000002 -0.000009 -0.000024
 29   8.824059 0.150544 0.091743 0.000006 -0.000231 -0.174534
 30   2.111085 -0.561179 1.784320 -0.000008 -0.000682 0.000024
 31   2.121290 -0.561289 -1.853599 0.000000 0.000000 -0.000002
 32   -0.810489 -0.093824 3.127092 3.071592 -0.114878 1.239365
 33   14.298673 -0.408176 0.475484 0.000008 -0.000003 -1.896136
 34   15.835795 0.581398 0.242756 -0.214729 0.106889 -0.097869
 35   -0.815868 -0.091229 -3.114430 0.066464 3.132725 -1.010185
 36   14.294526 -0.410349 -0.463635 0.000021 -0.000024 -2.607695
 37   15.834409 0.579420 -0.284600 -0.006112 -0.035383 0.214458
 38   1.139685 -3.453749 -2.823813 0.000000 0.000000 0.000001
 39   -4.457742 -1.054854 -0.746180 0.000000 0.000000 0.000000
 40   1.118101 -3.449769 3.237290 0.000000 0.000001 0.000000
 41   -4.433840 -1.059130 0.959566 -0.000001 0.000000 0.000000
 42   -0.657468 1.697302 -2.688614 0.000000 0.000002 0.000000
 43   -0.664068 1.698578 2.869377 0.000000 0.000002 0.000000
time 19
  0   -0.967547 0.175787 -20.574476 0.000000 0.000000 -1.572114
  1   -1.093036 0.000002 -0.326057 -1.570809 -1.570379 -0.000171
  2   2.262337 0.113614 0.064702 -0.000052 0.000061 0.192406
  3   2.380047 0.353302 0.047440 0.000000 -0.000040 0.060890
  4   2.033756 0.190472 -0.000128 -0.171729 0.030045 0.171351
  5   2.451511 0.204909 -0.003447 -0.138715 0.014421 0.103433
  6   7.247600 -0.397300 -0.109469 0.000001 0.000009 0.052298
  7   -2.022252 -0.104661 3.136172 0.914491 -1.249872 -4.083932
  8   1.168026 -0.537438 -0.063437 -0.418303 -0.095531 -1.034814
  9   6.790376 -0.619176 0.015206 -0.233561 -0.262841 -1.142428
 10   8.637599 0.544015 -0.090417 -2.187623 -0.702064 -0.342020
 11   6.790465 -0.619039 0.017802 -0.194818 -0.170605 -0.815725
 12   -2.022474 -0.104699 -2.873818 0.838938 1.276034 -2.481968
 13   1.167898 -0.537463 0.063297 0.060874 -1.207565 -0.727598
 14   7.002743 -0.617765 -0.183752 -0.096101 0.335677 -1.855465
 15   8.209042 0.615527 -0.255885 1.475250 -0.366558 -0.333769
 16   7.002735 -0.617911 -0.183641 0.013827 0.271828 -1.297683
 17   1.574674 0.609930 -0.000899 -0.168980 -0.009104 0.178181
 18   -0.602177 0.511412 -0.000006 0.000000 0.000000 0.000000
 19   3.673773 0.177020 1.119313 -0.000002 -0.000014 -0.174510
 20   3.673767 0.176993 -1.117566 0.000007 -0.000003 -0.174546
 21   3.942357 1.330634 1.627658 0.000002 -0.000011 -0.000026
 22   -0.246060 -0.011889 0.516521 -0.000011 0.000031 0.000025
 23   3.942374 1.330659 -1.631083 0.000019 0.000002 -0.000024
 24   -0.246150 -0.011872 -0.516511 -0.000005 -0.000006 0.000048
 25   4.941364 1.997338 1.629330 0.000018 -0.000001 -0.000024
 26   4.941382 1.997366 -1.629410 -0.000001 0.000005 -0.000024
 27   2.918368 1.615358 1.514501 -0.000019 -0.000022 -0.000050
 28   2.920798 1.614964 -1.501142 -0.000002 -0.000009 -0.000024
 29   8.824059 0.150544 0.091743 0.000006 -0.000231 -0.174534
 30   2.111085 -0.561179 1.784320 -0.000008 -0.000682 0.000024
 31   2.121290 -0.561289 -1.853599 0.000000 0.000000 -0.000002
 32   -0.810489 -0.093824 3.127092 3.071592 -0.114878 1.239365
 33   14.298673 -0.408176 0.475484 0.000008 -0.000003 -1.896136
 34   15.835795 0.581398 0.242756 -0.214729 0.106889 -0.097869
 35   -0.815868 -0.091229 -3.114430 0.066464 3.132725 -1.010185
 36   14.294526 -0.410349 -0.463635 0.000021 -0.000024 -2.607695
 37   15.834409 0.579420 -0.284600 -0.006112 -0.035383 0.214458
 38   1.139685 -3.453749 -2.823813 0.000000 0.000000 0.000001
 39   -4.457742 -1.054854 -0.746180 0.000000 0.000000 0.000000
 40   1.118101 -3.449769 3.237290 0.000000 0.000001 0.000000
 41   -4.433840 -1.059130 0.959566 -0.000001 0.000000 0.000000
 42   -0.657468 1.697302 -2.688614 0.000000 0.000002 0.000000
 43   -0.664068 1.698578 2.869377 0.000000 0.000002 0.000000
time 20
  0   -0.967547 0.175787 -20.574476 0.000000 0.000000 -1.572114
  1   -1.093036 0.000002 -0.326057 -1.570809 -1.570379 -0.000171
  2   2.262337 0.113614 0.064702 -0.000052 0.000061 0.192406
  3   2.380047 0.353302 0.047440 0.000000 -0.000040 0.060890
  4   2.033756 0.190472 -0.000128 -0.171729 0.030045 0.171351
  5   2.451511 0.204909 -0.003447 -0.138715 0.014421 0.103433
  6   7.247600 -0.397300 -0.109469 0.000001 0.000009 0.052298
  7   -2.022252 -0.104661 3.136172 0.914491 -1.249872 -4.083932
  8   1.168026 -0.537438 -0.063437 -0.475508 -0.189971 -1.026843
  9   6.790376 -0.619176 0.015206 -0.644055 -0.120484 -1.107864
 10   8.637599 0.544015 -0.090417 -2.253672 -0.802159 -0.277127
 11   6.790465 -0.619039 0.017802 -0.468387 -0.023732 -0.798653
 12   -2.022474 -0.104699 -2.873818 0.838938 1.276034 -2.481968
 13   1.167898 -0.537463 0.063297 0.060874 -1.207565 -0.727598
 14   7.002743 -0.617765 -0.183752 -0.096101 0.335677 -1.855465
 15   8.209042 0.615527 -0.255885 1.475250 -0.366558 -0.333769
 16   7.002735 -0.617911 -0.183641 0.013827 0.271828 -1.297683
 17   1.574674 0.609930 -0.000899 -0.168980 -0.009104 0.129393
 18   -0.602177 0.511412 -0.000006 0.000000 0.000000 0.000000
 19   3.673773 0.177020 1.119313 -0.000002 -0.000014 -0.174510
 20   3.673767 0.176993 -1.117566 0.000007 -0.000003 -0.174546
 21   3.942357 1.330634 1.627658 0.000002 -0.000011 -0.000026
 22   -0.246060 -0.011889 0.516521 -0.000011 0.000031 0.000025
 23   3.942374 1.330659 -1.631083 0.000019 0.000002 -0.000024
 24   -0.246150 -0.011872 -0.516511 -0.000005 -0.000006 0.000048
 25   4.941364 1.997338 1.629330 0.000018 -0.000001 -0.000024
 26   4.941382 1.997366 -1.629410 -0.000001 0.000005 -0.000024
 27   2.918368 1.615358 1.514501 -0.000019 -0.000022 -0.000050
 28   2.920798 1.614964 -1.501142 -0.000002 -0.000009 -0.000024
 29   8.824059 0.150544 0.091743 0.000006 -0.000231 -0.174534
 30   2.111085 -0.561179 1.784320 -0.000008 -0.000682 0.000024
 31   2.121290 -0.561289 -1.853599 0.000000 0.000000 -0.000002
 32   -0.810489 -0.093824 3.127092 3.071592 -0.114878 1.239365
 33   14.298673 -0.408176 0.475484 0.000008 -0.000003 -1.896136
 34   15.835795 0.581398 0.242756 -0.214729 0.106889 -0.097869
 35   -0.815868 -0.091229 -3.114430 0.066464 3.132725 -1.010185
 36   14.294526 -0.410349 -0.463635 0.000021 -0.000024 -2.607695
 37   15.834409 0.579420 -0.284600 -0.006112 -0.035383 0.214458
 38   1.139685 -3.453749 -2.823813 0.000000 0.000000 0.000001
 39   -4.457742 -1.054854 -0.746180 0.000000 0.000000 0.000000
 40   1.118101 -3.449769 3.237290 0.000000 0.000001 0.000000
 41   -4.433840 -1.059130 0.959566 -0.000001 0.000000 0.000000
 42   -0.657468 1.697302 -2.688614 0.000000 0.000002 0.000000
 43   -0.664068 1.698578 2.869377 0.000000 0.000002 0.000000
time 21
  0   -0.967547 0.175787 -20.574476 0.000000 0.000000 -1.572114
  1   -1.093036 0.000002 -0.326057 -1.570809 -1.570379 -0.000171
  2   2.262337 0.113614 0.064702 -0.000052 0.000061 0.192406
  3   2.380047 0.353302 0.047440 0.000000 -0.000040 0.060890
  4   2.033756 0.190472 -0.000128 -0.171729 0.030045 0.171351
  5   2.451511 0.204909 -0.003447 -0.138715 0.014421 0.103433
  6   7.247600 -0.397300 -0.109469 0.000001 0.000009 0.052298
  7   -2.022252 -0.104661 3.136172 0.914491 -1.249872 -4.083932
  8   1.168026 -0.537438 -0.063437 -0.424314 -0.105644 -1.034434
  9   6.790376 -0.619176 0.015206 -0.644055 -0.120484 -1.276760
 10   8.637599 0.544015 -0.090417 -1.974066 -1.004672 -0.543209
 11   6.790465 -0.619039 0.017802 -0.471949 -0.011850 -0.917521
 12   -2.022474 -0.104699 -2.873818 0.838938 1.276034 -2.481968
 13   1.167898 -0.537463 0.063297 0.060874 -1.207565 -0.727598
 14   7.002743 -0.617765 -0.183752 -0.096101 0.335677 -1.855465
 15   8.209042 0.615527 -0.255885 1.475250 -0.366558 -0.333769
 16   7.002735 -0.617911 -0.183641 0.013827 0.271828 -1.297683
 17   1.574674 0.609930 -0.000899 -0.168980 -0.009104 0.129393
 18   -0.602177 0.511412 -0.000006 0.000000 0.000000 0.000000
 19   3.673773 0.177020 1.119313 -0.000002 -0.000014 -0.174510
 20   3.673767 0.176993 -1.117566 0.000007 -0.000003 -0.174546
 21   3.942357 1.330634 1.627658 0.000002 -0.000011 -0.000026
 22   -0.246060 -0.011889 0.516521 -0.000011 0.000031 0.000025
 23   3.942374 1.330659 -1.631083 0.000019 0.000002 -0.000024
 24   -0.246150 -0.011872 -0.516511 -0.000005 -0.000006 0.000048
 25   4.941364 1.997338 1.629330 0.000018 -0.000001 -0.000024
 26   4.941382 1.997366 -1.629410 -0.000001 0.000005 -0.000024
 27   2.918368 1.615358 1.514501 -0.000019 -0.000022 -0.000050
 28   2.920798 1.614964 -1.501142 -0.000002 -0.000009 -0.000024
 29   8.824059 0.150544 0.091743 0.000006 -0.000231 -0.174534
 30   2.111085 -0.561179 1.784320 -0.000008 -0.000682 0.000024
 31   2.121290 -0.561289 -1.853599 0.000000 0.000000 -0.000002
 32   -0.810489 -0.093824 3.127092 3.071592 -0.114878 1.239365
 33   14.298673 -0.408176 0.475484 0.000008 -0.000003 -1.896136
 34   15.835795 0.581398 0.242756 -0.214729 0.106889 -0.097869
 35   -0.815868 -0.091229 -3.114430 0.066464 3.132725 -1.010185
 36   14.294526 -0.410349 -0.463635 0.000021 -0.000024 -2.607695
 37   15.834409 0.579420 -0.284600 -0.006112 -0.035383 0.214458
 38   1.139685 -3.453749 -2.823813 0.000000 0.000000 0.000001
 39   -4.457742 -1.054854 -0.746180 0.000000 0.000000 0.000000
 40   1.118101 -3.449769 3.237290 0.000000 0.000001 0.000000
 41   -4.433840 -1.059130 0.959566 -0.000001 0.000000 0.000000
 42   -0.657468 1.697302 -2.688614 0.000000 0.000002 0.000000
 43   -0.664068 1.698578 2.869377 0.000000 0.000002 0.000000
time 22
  0   -0.967547 0.175787 -20.574476 0.000000 0.000000 -1.572114
  1   -1.093036 0.000002 -0.326057 -1.570809 -1.570379 -0.000171
  2   2.262337 0.113614 0.064702 -0.000052 0.000061 0.192406
  3   2.380047 0.353302 0.047440 0.000000 -0.000040 0.060890
  4   2.033756 0.190472 -0.000128 -0.171729 0.030045 0.171351
  5   2.451511 0.204909 -0.003447 -0.138715 0.014421 0.103433
  6   7.247600 -0.397300 -0.109469 0.000001 0.000009 0.052298
  7   -2.022252 -0.104661 3.136172 0.914491 -1.249872 -4.083932
  8   1.168026 -0.537438 -0.063437 -0.373880 -0.020462 -1.037724
  9   6.790376 -0.619176 0.015206 -0.644055 -0.120484 -1.445430
 10   8.637599 0.544015 -0.090417 -1.485658 -1.132501 -1.019741
 11   6.790465 -0.619039 0.017802 -0.475832 0.000259 -1.036043
 12   -2.022474 -0.104699 -2.873818 0.838938 1.276034 -2.481968
 13   1.167898 -0.537463 0.063297 0.060874 -1.207565 -0.727598
 14   7.002743 -0.617765 -0.183752 -0.096101 0.335677 -1.855465
 15   8.209042 0.615527 -0.255885 1.475250 -0.366558 -0.333769
 16   7.002735 -0.617911 -0.183641 0.013827 0.271828 -1.297683
 17   1.574674 0.609930 -0.000899 -0.168980 -0.009104 0.129393
 18   -0.602177 0.511412 -0.000006 0.000000 0.000000 0.000000
 19   3.673773 0.177020 1.119313 -0.000002 -0.000014 -0.174510
 20   3.673767 0.176993 -1.117566 0.000007 -0.000003 -0.174546
 21   3.942357 1.330634 1.627658 0.000002 -0.000011 -0.000026
 22   -0.246060 -0.011889 0.516521 -0.000011 0.000031 0.000025
 23   3.942374 1.330659 -1.631083 0.000019 0.000002 -0.000024
 24   -0.246150 -0.011872 -0.516511 -0.000005 -0.000006 0.000048
 25   4.941364 1.997338 1.629330 0.000018 -0.000001 -0.000024
 26   4.941382 1.997366 -1.629410 -0.000001 0.000005 -0.000024
 27   2.918368 1.615358 1.514501 -0.000019 -0.000022 -0.000050
 28   2.920798 1.614964 -1.501142 -0.000002 -0.000009 -0.000024
 29   8.824059 0.150544 0.091743 0.000006 -0.000231 -0.174534
 30   2.111085 -0.561179 1.784320 -0.000008 -0.000682 0.000024
 31   2.121290 -0.561289 -1.853599 0.000000 0.000000 -0.000002
 32   -0.810489 -0.093824 3.127092 3.071592 -0.114878 1.239365
 33   14.298673 -0.408176 0.475484 0.000008 -0.000003 -1.896136
 34   15.835795 0.581398 0.242756 -0.214729 0.106889 -0.097869
 35   -0.815868 -0.091229 -3.114430 0.066464 3.132725 -1.010185
 36   14.294526 -0.410349 -0.463635 0.000021 -0.000024 -2.607695
 37   15.834409 0.579420 -0.284600 -0.006112 -0.035383 0.214458
 38   1.139685 -3.453749 -2.823813 0.000000 0.000000 0.000001
 39   -4.457742 -1.054854 -0.746180 0.000000 0.000000 0.000000
 40   1.118101 -3.449769 3.237290 0.000000 0.000001 0.000000
 41   -4.433840 -1.059130 0.959566 -0.000001 0.000000 0.000000
 42   -0.657468 1.697302 -2.688614 0.000000 0.000002 0.000000
 43   -0.664068 1.698578 2.869377 0.000000 0.000002 0.000000
time 23
  0   -0.967547 0.175787 -20.574476 0.000000 0.000000 -1.572114
  1   -1.093036 0.000002 -0.326057 -1.570809 -1.570379 -0.000171
  2   2.262337 0.113614 0.064702 -0.000052 0.000061 0.192406
  3   2.380047 0.353302 0.047440 0.000000 -0.000040 0.060890
  4   2.033756 0.190472 -0.000128 -0.171729 0.030045 0.171351
  5   2.451511 0.204909 -0.003447 -0.138715 0.014421 0.103433
  6   7.247600 -0.397300 -0.109469 0.000001 0.000009 0.052298
  7   -2.022252 -0.104661 3.136172 0.914491 -1.249872 -4.083932
  8   1.168026 -0.537438 -0.063437 -0.323572 0.064871 -1.036395
  9   6.790376 -0.619176 0.015206 -0.644055 -0.120484 -1.614024
 10   8.637599 0.544015 -0.090417 -0.863744 -1.117156 -1.629386
 11   6.790465 -0.619039 0.017802 -0.480124 0.012624 -1.154853
 12   -2.022474 -0.104699 -2.873818 0.838938 1.276034 -2.481968
 13   1.167898 -0.537463 0.063297 0.060874 -1.207565 -0.727598
 14   7.002743 -0.617765 -0.183752 -0.096101 0.335677 -1.855465
 15   8.209042 0.615527 -0.255885 1.475250 -0.366558 -0.333769
 16   7.002735 -0.617911 -0.183641 0.013827 0.271828 -1.297683
 17   1.574674 0.609930 -0.000899 -0.168980 -0.009104 0.129393
 18   -0.602177 0.511412 -0.000006 0.000000 0.000000 0.000000
 19   3.673773 0.177020 1.119313 -0.000002 -0.000014 -0.174510
 20   3.673767 0.176993 -1.117566 0.000007 -0.000003 -0.174546
 21   3.942357 1.330634 1.627658 0.000002 -0.000011 -0.000026
 22   -0.246060 -0.011889 0.516521 -0.000011 0.000031 0.000025
 23   3.942374 1.330659 -1.631083 0.000019 0.000002 -0.000024
 24   -0.246150 -0.011872 -0.516511 -0.000005 -0.000006 0.000048
 25   4.941364 1.997338 1.629330 0.000018 -0.000001 -0.000024
 26   4.941382 1.997366 -1.629410 -0.000001 0.000005 -0.000024
 27   2.918368 1.615358 1.514501 -0.000019 -0.000022 -0.000050
 28   2.920798 1.614964 -1.501142 -0.000002 -0.000009 -0.000024
 29   8.824059 0.150544 0.091743 0.000006 -0.000231 -0.174534
 30   2.111085 -0.561179 1.784320 -0.000008 -0.000682 0.000024
 31   2.121290 -0.561289 -1.853599 0.000000 0.000000 -0.000002
 32   -0.810489 -0.093824 3.127092 3.071592 -0.114878 1.239365
 33   14.298673 -0.408176 0.475484 0.000008 -0.000003 -1.896136
 34   15.835795 0.581398 0.242756 -0.214729 0.106889 -0.097869
 35   -0.815868 -0.091229 -3.114430 0.066464 3.132725 -1.010185
 36   14.294526 -0.410349 -0.463635 0.000021 -0.000024 -2.607695
 37   15.834409 0.579420 -0.284600 -0.006112 -0.035383 0.214458
 38   1.139685 -3.453749 -2.823813 0.000000 0.000000 0.000001
 39   -4.457742 -1.054854 -0.746180 0.000000 0.000000 0.000000
 40   1.118101 -3.449769 3.237290 0.000000 0.000001 0.000000
 41   -4.433840 -1.059130 0.959566 -0.000001 0.000000 0.000000
 42   -0.657468 1.697302 -2.688614 0.000000 0.000002 0.000000
 43   -0.664068 1.698578 2.869377 0.000000 0.000002 0.000000
time 24
  0   -0.967547 0.175787 -20.574476 0.000000 0.000000 -1.572114
  1   -1.093036 0.000002 -0.326057 -1.570809 -1.570379 -0.000171
  2   2.262337 0.113614 0.064702 -0.000052 0.000061 0.192406
  3   2.380047 0.353302 0.047440 0.000000 -0.000040 0.060890
  4   2.033756 0.190472 -0.000128 -0.171729 0.030045 0.171351
  5   2.451511 0.204909 -0.003447 -0.138715 0.014421 0.103433
  6   7.247600 -0.397300 -0.109469 0.000001 0.000009 0.052298
  7   -2.022252 -0.104661 3.136172 0.914491 -1.249872 -4.083932
  8   1.168026 -0.537438 -0.063437 -0.323572 0.064871 -1.036395
  9   6.790376 -0.619176 0.015206 -0.644055 -0.120484 -1.614024
 10   8.637599 0.544015 -0.090417 -0.863744 -1.117156 -1.629386
 11   6.790465 -0.619039 0.017802 -0.480124 0.012624 -1.154853
 12   -2.022474 -0.104699 -2.873818 0.838938 1.276034 -2.481968
 13   1.167898 -0.537463 0.063297 0.060874 -1.207565 -0.727598
 14   7.002743 -0.617765 -0.183752 -0.096101 0.335677 -1.855465
 15   8.209042 0.615527 -0.255885 1.475250 -0.366558 -0.333769
 16   7.002735 -0.617911 -0.183641 0.013827 0.271828 -1.297683
 17   1.574674 0.609930 -0.000899 -0.168980 -0.009104 0.129393
 18   -0.602177 0.511412 -0.000006 0.000000 0.000000 0.000000
 19   3.673773 0.177020 1.119313 -0.000002 -0.000014 -0.174510
 20   3.673767 0.176993 -1.117566 0.000007 -0.000003 -0.174546
 21   3.942357 1.330634 1.627658 0.000002 -0.000011 -0.000026
 22   -0.246060 -0.011889 0.516521 -0.000011 0.000031 0.000025
 23   3.942374 1.330659 -1.631083 0.000019 0.000002 -0.000024
 24   -0.246150 -0.011872 -0.516511 -0.000005 -0.000006 0.000048
 25   4.941364 1.997338 1.629330 0.000018 -0.000001 -0.000024
 26   4.941382 1.997366 -1.629410 -0.000001 0.000005 -0.000024
 27   2.918368 1.615358 1.514501 -0.000019 -0.000022 -0.000050
 28   2.920798 1.614964 -1.501142 -0.000002 -0.000009 -0.000024
 29   8.824059 0.150544 0.091743 0.000006 -0.000231 -0.174534
 30   2.111085 -0.561179 1.784320 -0.000008 -0.000682 0.000024
 31   2.121290 -0.561289 -1.853599 0.000000 0.000000 -0.000002
 32   -0.810489 -0.093824 3.127092 3.071592 -0.114878 1.239365
 33   14.298673 -0.408176 0.475484 0.000008 -0.000003 -1.896136
 34   15.835795 0.581398 0.242756 -0.214729 0.106889 -0.097869
 35   -0.815868 -0.091229 -3.114430 0.066464 3.132725 -1.010185
 36   14.294526 -0.410349 -0.463635 0.000021 -0.000024 -2.607695
 37   15.834409 0.579420 -0.284600 -0.006112 -0.035383 0.214458
 38   1.139685 -3.453749 -2.823813 0.000000 0.000000 0.000001
 39   -4.457742 -1.054854 -0.746180 0.000000 0.000000 0.000000
 40   1.118101 -3.449769 3.237290 0.000000 0.000001 0.000000
 41   -4.433840 -1.059130 0.959566 -0.000001 0.000000 0.000000
 42   -0.657468 1.697302 -2.688614 0.000000 0.000002 0.000000
 43   -0.664068 1.698578 2.869377 0.000000 0.000002 0.000000
time 25
  0   -0.967547 0.175787 -20.574476 0.000000 0.000000 -1.572114
  1   -1.093036 0.000002 -0.326057 -1.570809 -1.570379 -0.000171
  2   2.262337 0.113614 0.064702 -0.000052 0.000061 0.192406
  3   2.380047 0.353302 0.047440 0.000000 -0.000040 0.060890
  4   2.033756 0.190472 -0.000128 -0.171729 0.030045 0.171351
  5   2.451511 0.204909 -0.003447 -0.138715 0.014421 0.103433
  6   7.247600 -0.397300 -0.109469 0.000001 0.000009 0.052298
  7   -2.022252 -0.104661 3.136172 0.914491 -1.249872 -4.083932
  8   1.168026 -0.537438 -0.063437 -0.126200 0.377071 -0.992809
  9   6.790376 -0.619176 0.015206 0.660106 -0.445042 -1.100468
 10   8.637599 0.544015 -0.090417 -1.995906 -0.171602 -0.530260
 11   6.790465 -0.619039 0.017802 0.406187 -0.399172 -0.743862
 12   -2.022474 -0.104699 -2.873818 0.838938 1.276034 -2.481968
 13   1.167898 -0.537463 0.063297 0.060874 -1.207565 -0.727598
 14   7.002743 -0.617765 -0.183752 -0.096101 0.335677 -1.855465
 15   8.209042 0.615527 -0.255885 1.475250 -0.366558 -0.333769
 16   7.002735 -0.617911 -0.183641 0.013827 0.271828 -1.297683
 17   1.574674 0.609930 -0.000899 0.005931 -0.087678 0.416765
 18   -0.602177 0.511412 -0.000006 0.000000 0.000000 0.000000
 19   3.673773 0.177020 1.119313 -0.000002 -0.000014 -0.174510
 20   3.673767 0.176993 -1.117566 0.000007 -0.000003 -0.174546
 21   3.942357 1.330634 1.627658 0.000002 -0.000011 -0.000026
 22   -0.246060 -0.011889 0.516521 -0.000011 0.000031 0.000025
 23   3.942374 1.330659 -1.631083 0.000019 0.000002 -0.000024
 24   -0.246150 -0.011872 -0.516511 -0.000005 -0.000006 0.000048
 25   4.941364 1.997338 1.629330 0.000018 -0.000001 -0.000024
 26   4.941382 1.997366 -1.629410 -0.000001 0.000005 -0.000024
 27   2.918368 1.615358 1.514501 -0.000019 -0.000022 -0.000050
 28   2.920798 1.614964 -1.501142 -0.000002 -0.000009 -0.000024
 29   8.824059 0.150544 0.091743 0.000006 -0.000231 -0.174534
 30   2.111085 -0.561179 1.784320 -0.000008 -0.000682 0.000024
 31   2.121290 -0.561289 -1.853599 0.000000 0.000000 -0.000002
 32   -0.810489 -0.093824 3.127092 3.071592 -0.114878 1.239365
 33   14.298673 -0.408176 0.475484 0.000008 -0.000003 -1.896136
 34   15.835795 0.581398 0.242756 -0.214729 0.106889 -0.097869
 35   -0.815868 -0.091229 -3.114430 0.066464 3.132725 -1.010185
 36   14.294526 -0.410349 -0.463635 0.000021 -0.000024 -2.607695
 37   15.834409 0.579420 -0.284600 -0.006112 -0.035383 0.214458
 38   1.139685 -3.453749 -2.823813 0.000000 0.000000 0.000001
 39   -4.457742 -1.054854 -0.746180 0.000000 0.000000 0.000000
 40   1.118101 -3.449769 3.237290 0.000000 0.000001 0.000000
 41   -4.433840 -1.059130 0.959566 -0.000001 0.000000 0.000000
 42   -0.657468 1.697302 -2.688614 0.000000 0.000002 0.000000
 43   -0.664068 1.698578 2.869377 0.000000 0.000002 0.000000
end
