version 1
nodes
  0 "Bip01" -1
  1 "Bip01 Pelvis" 0
  2 "Bip01 Spine" 1
  3 "Bip01 Spine1" 2
  4 "Bip01 Spine2" 3
  5 "Bip01 Spine3" 4
  6 "Bip01 Neck" 5
  7 "Bip01 L Arm" 6
  8 "Bip01 L Arm1" 7
  9 "Bip01 L Arm2" 8
 10 "Bip01 L Hand" 9
 11 "Bip06 L elbow2-smooth" 8
 12 "Bip01 R Arm" 6
 13 "Bip01 R Arm1" 12
 14 "Bip01 R Arm2" 13
 15 "Bip01 R Hand" 14
 16 "Bip06 R elbow2-smooth" 13
 17 "Bip01 Head" 6
 18 "Bip06 Head_helper" 17
 19 "Bip06 Head_eyes_l" 18
 20 "Bip06 Head_eyes_r" 18
 21 "Bip06 Head_blink_l" 18
 22 "Bip06 Head_blink_smooth_l1" 21
 23 "Bip06 Head_blink_r" 18
 24 "Bip06 Head_blink_smooth_r1" 23
 25 "Bip06 Head_L_eyebrow" 18
 26 "Bip06 Head_R_eyebrow" 18
 27 "Bip06 Head_blink_l_lid" 18
 28 "Bip06 Head_blink_r_lid" 18
 29 "Bip06 bunny" 18
 30 "Bip06 bunnyL" 29
 31 "Bip06 bunnyR" 29
 32 "Bip01 L Leg" 1
 33 "Bip01 L Leg1" 32
 34 "Bip01 L Foot" 33
 35 "Bip01 R Leg" 1
 36 "Bip01 R Leg1" 35
 37 "Bip01 R Foot" 36
 38 "Bip03 HairR1" 17
 39 "Bip03 HairR2" 38
 40 "Bip03 HairL1" 17
 41 "Bip03 HairL2" 40
 42 "Bip03 swingR" 17
 43 "Bip03 swingL" 17
end
skeleton
time 0
  0   -0.967547 0.175787 -20.574476 0.000000 0.000000 -1.572114
  1   -1.093036 0.000002 -0.326057 -1.570809 -1.570379 -0.000123
  2   2.262337 0.113614 0.064702 -0.000052 0.000061 -0.260847
  3   2.380047 0.353302 0.047440 -0.261678 -0.001922 -0.008489
  4   2.033756 0.190472 -0.000128 -0.000010 0.000024 -0.035003
  5   2.451511 0.204909 -0.003447 0.000000 -0.000005 -0.017472
  6   7.247600 -0.397300 -0.109469 0.000001 0.000033 -0.209345
  7   -2.022252 -0.104661 3.136172 0.897045 -1.256502 -3.804633
  8   1.168026 -0.537438 -0.063437 -0.469876 1.049673 -1.049553
  9   6.790376 -0.619176 0.015206 -0.000213 -0.000352 -2.133165
 10   8.637599 0.544015 -0.090417 -1.068583 -0.402905 -0.134826
 11   6.790465 -0.619039 0.017802 0.005381 -0.011935 -1.508573
 12   -2.022474 -0.104699 -2.873818 -1.159310 1.101861 -4.048388
 13   1.167898 -0.537463 0.063297 -0.331297 -1.036241 0.471233
 14   7.002743 -0.617765 -0.183752 0.000229 0.000421 -2.415017
 15   8.209042 0.615527 -0.255885 1.510770 0.764779 -0.200445
 16   7.002735 -0.617911 -0.183641 0.011991 0.014022 -1.709145
 17   1.574674 0.609930 -0.000899 0.260984 0.017853 0.201947
 18   -0.602177 0.511412 -0.000006 0.000000 0.000000 0.000000
 19   3.673773 0.177020 1.119313 -0.000002 -0.000014 -0.174510
 20   3.673767 0.176993 -1.117566 0.000007 -0.000003 -0.174546
 21   3.942357 1.330634 1.627658 0.000002 -0.000011 -0.000026
 22   -0.246060 -0.011889 0.516521 -0.000011 0.000031 0.000025
 23   3.942374 1.330659 -1.631083 0.000019 0.000002 -0.000024
 24   -0.246150 -0.011872 -0.516511 -0.000005 -0.000006 0.000048
 25   4.941364 1.997338 1.629330 0.000018 -0.000001 -0.000024
 26   4.941382 1.997366 -1.629410 -0.000001 0.000005 -0.000024
 27   2.918368 1.615358 1.514501 -0.000019 -0.000022 -0.000050
 28   2.920798 1.614964 -1.501142 -0.000002 -0.000009 -0.000024
 29   8.824059 0.150544 0.091743 0.000006 -0.000231 -0.174534
 30   2.111085 -0.561179 1.784320 -0.000008 -0.000682 0.000024
 31   2.121290 -0.561289 -1.853599 0.000000 0.000000 -0.000002
 32   -0.810489 -0.093824 3.127092 3.071872 -0.114782 1.239365
 33   14.298673 -0.408176 0.475484 0.000248 0.000062 -1.896136
 34   15.835795 0.581398 0.242756 -0.214729 0.106889 -0.097869
 35   -0.815868 -0.091229 -3.114430 0.066464 3.132725 -1.010185
 36   14.294526 -0.410349 -0.463635 0.000033 -0.000000 -2.607695
 37   15.834409 0.579420 -0.284600 -0.006092 -0.035255 0.214458
 38   1.139685 -3.453749 -2.823813 0.000000 0.000000 0.000001
 39   -4.457742 -1.054854 -0.746180 0.000000 0.000000 0.000000
 40   1.118101 -3.449769 3.237290 0.000000 0.000001 0.000000
 41   -4.433840 -1.059130 0.959566 -0.000001 0.000000 0.000000
 42   -0.657468 1.697302 -2.688614 0.000000 0.000002 0.000000
 43   -0.664068 1.698578 2.869377 0.000000 0.000002 0.000000
time 1
  0   -0.967547 0.175787 -20.574476 0.000000 0.000000 -1.572114
  1   -1.093036 0.000002 -0.326057 -1.570809 -1.570379 -0.000123
  2   2.262337 0.113614 0.064702 -0.000052 0.000061 -0.260847
  3   2.380047 0.353302 0.047440 -0.261678 -0.001922 -0.008489
  4   2.033756 0.190472 -0.000128 -0.000010 0.000024 -0.032611
  5   2.451511 0.204909 -0.003447 0.000000 -0.000005 -0.017472
  6   7.247600 -0.397300 -0.109469 0.000001 0.000033 -0.209345
  7   -2.022252 -0.104661 3.136172 0.885159 -1.253533 -3.792143
  8   1.168026 -0.537438 -0.063437 -0.462662 1.044994 -1.043860
  9   6.790376 -0.619176 0.015206 -0.000213 -0.000352 -2.133165
 10   8.637599 0.544015 -0.090417 -1.068583 -0.402905 -0.134826
 11   6.790465 -0.619039 0.017802 0.005381 -0.011935 -1.508573
 12   -2.022474 -0.104699 -2.873818 -1.150592 1.100120 -4.038431
 13   1.167898 -0.537463 0.063297 -0.322159 -1.031969 0.463061
 14   7.002743 -0.617765 -0.183752 0.000229 0.000421 -2.415017
 15   8.209042 0.615527 -0.255885 1.510770 0.764779 -0.200445
 16   7.002735 -0.617911 -0.183641 0.011991 0.014022 -1.709145
 17   1.574674 0.609930 -0.000899 0.260984 0.017853 0.199693
 18   -0.602177 0.511412 -0.000006 0.000000 0.000000 0.000000
 19   3.673773 0.177020 1.119313 -0.000002 -0.000014 -0.174510
 20   3.673767 0.176993 -1.117566 0.000007 -0.000003 -0.174546
 21   3.942357 1.330634 1.627658 0.000002 -0.000011 -0.000026
 22   -0.246060 -0.011889 0.516521 -0.000011 0.000031 0.000025
 23   3.942374 1.330659 -1.631083 0.000019 0.000002 -0.000024
 24   -0.246150 -0.011872 -0.516511 -0.000005 -0.000006 0.000048
 25   4.941364 1.997338 1.629330 0.000018 -0.000001 -0.000024
 26   4.941382 1.997366 -1.629410 -0.000001 0.000005 -0.000024
 27   2.918368 1.615358 1.514501 -0.000019 -0.000022 -0.000050
 28   2.920798 1.614964 -1.501142 -0.000002 -0.000009 -0.000024
 29   8.824059 0.150544 0.091743 0.000006 -0.000231 -0.174534
 30   2.111085 -0.561179 1.784320 -0.000008 -0.000682 0.000024
 31   2.121290 -0.561289 -1.853599 0.000000 0.000000 -0.000002
 32   -0.810489 -0.093824 3.127092 3.071872 -0.114782 1.239365
 33   14.298673 -0.408176 0.475484 0.000248 0.000062 -1.896136
 34   15.835795 0.581398 0.242756 -0.214729 0.106889 -0.097869
 35   -0.815868 -0.091229 -3.114430 0.066464 3.132725 -1.010185
 36   14.294526 -0.410349 -0.463635 0.000033 -0.000000 -2.607695
 37   15.834409 0.579420 -0.284600 -0.006092 -0.035255 0.214458
 38   1.139685 -3.453749 -2.823813 0.000000 0.000000 0.000001
 39   -4.457742 -1.054854 -0.746180 0.000000 0.000000 0.000000
 40   1.118101 -3.449769 3.237290 0.000000 0.000001 0.000000
 41   -4.433840 -1.059130 0.959566 -0.000001 0.000000 0.000000
 42   -0.657468 1.697302 -2.688614 0.000000 0.000002 0.000000
 43   -0.664068 1.698578 2.869377 0.000000 0.000002 0.000000
time 2
  0   -0.967547 0.175787 -20.574476 0.000000 0.000000 -1.572114
  1   -1.093036 0.000002 -0.326057 -1.570809 -1.570379 -0.000123
  2   2.262337 0.113614 0.064702 -0.000052 0.000061 -0.260847
  3   2.380047 0.353302 0.047440 -0.261678 -0.001922 -0.008489
  4   2.033756 0.190472 -0.000128 -0.000010 0.000024 -0.029965
  5   2.451511 0.204909 -0.003447 0.000000 -0.000005 -0.017472
  6   7.247600 -0.397300 -0.109469 0.000001 0.000033 -0.209345
  7   -2.022252 -0.104661 3.136172 0.872410 -1.250045 -3.779088
  8   1.168026 -0.537438 -0.063437 -0.454942 1.039711 -1.037724
  9   6.790376 -0.619176 0.015206 -0.000213 -0.000352 -2.133165
 10   8.637599 0.544015 -0.090417 -1.068583 -0.402905 -0.134826
 11   6.790465 -0.619039 0.017802 0.005381 -0.011935 -1.508573
 12   -2.022474 -0.104699 -2.873818 -1.140820 1.097653 -4.027325
 13   1.167898 -0.537463 0.063297 -0.312528 -1.027037 0.453920
 14   7.002743 -0.617765 -0.183752 0.000229 0.000421 -2.415017
 15   8.209042 0.615527 -0.255885 1.510770 0.764779 -0.200445
 16   7.002735 -0.617911 -0.183641 0.011991 0.014022 -1.709145
 17   1.574674 0.609930 -0.000899 0.260984 0.017853 0.196957
 18   -0.602177 0.511412 -0.000006 0.000000 0.000000 0.000000
 19   3.673773 0.177020 1.119313 -0.000002 -0.000014 -0.174510
 20   3.673767 0.176993 -1.117566 0.000007 -0.000003 -0.174546
 21   3.942357 1.330634 1.627658 0.000002 -0.000011 -0.000026
 22   -0.246060 -0.011889 0.516521 -0.000011 0.000031 0.000025
 23   3.942374 1.330659 -1.631083 0.000019 0.000002 -0.000024
 24   -0.246150 -0.011872 -0.516511 -0.000005 -0.000006 0.000048
 25   4.941364 1.997338 1.629330 0.000018 -0.000001 -0.000024
 26   4.941382 1.997366 -1.629410 -0.000001 0.000005 -0.000024
 27   2.918368 1.615358 1.514501 -0.000019 -0.000022 -0.000050
 28   2.920798 1.614964 -1.501142 -0.000002 -0.000009 -0.000024
 29   8.824059 0.150544 0.091743 0.000006 -0.000231 -0.174534
 30   2.111085 -0.561179 1.784320 -0.000008 -0.000682 0.000024
 31   2.121290 -0.561289 -1.853599 0.000000 0.000000 -0.000002
 32   -0.810489 -0.093824 3.127092 3.071872 -0.114782 1.239365
 33   14.298673 -0.408176 0.475484 0.000248 0.000062 -1.896136
 34   15.835795 0.581398 0.242756 -0.214729 0.106889 -0.097869
 35   -0.815868 -0.091229 -3.114430 0.066464 3.132725 -1.010185
 36   14.294526 -0.410349 -0.463635 0.000033 -0.000000 -2.607695
 37   15.834409 0.579420 -0.284600 -0.006092 -0.035255 0.214458
 38   1.139685 -3.453749 -2.823813 0.000000 0.000000 0.000001
 39   -4.457742 -1.054854 -0.746180 0.000000 0.000000 0.000000
 40   1.118101 -3.449769 3.237290 0.000000 0.000001 0.000000
 41   -4.433840 -1.059130 0.959566 -0.000001 0.000000 0.000000
 42   -0.657468 1.697302 -2.688614 0.000000 0.000002 0.000000
 43   -0.664068 1.698578 2.869377 0.000000 0.000002 0.000000
time 3
  0   -0.967547 0.175787 -20.574476 0.000000 0.000000 -1.572114
  1   -1.093036 0.000002 -0.326057 -1.570809 -1.570379 -0.000123
  2   2.262337 0.113614 0.064702 -0.000052 0.000061 -0.260847
  3   2.380047 0.353302 0.047440 -0.261678 -0.001922 -0.008489
  4   2.033756 0.190472 -0.000128 -0.000010 0.000024 -0.027174
  5   2.451511 0.204909 -0.003447 0.000000 -0.000005 -0.017472
  6   7.247600 -0.397300 -0.109469 0.000001 0.000033 -0.209345
  7   -2.022252 -0.104661 3.136172 0.859469 -1.246182 -3.765377
  8   1.168026 -0.537438 -0.063437 -0.446399 1.034277 -1.031208
  9   6.790376 -0.619176 0.015206 -0.000213 -0.000352 -2.133165
 10   8.637599 0.544015 -0.090417 -1.068583 -0.402905 -0.134826
 11   6.790465 -0.619039 0.017802 0.005381 -0.011935 -1.508573
 12   -2.022474 -0.104699 -2.873818 -1.130377 1.095244 -4.016219
 13   1.167898 -0.537463 0.063297 -0.301914 -1.022053 0.444658
 14   7.002743 -0.617765 -0.183752 0.000229 0.000421 -2.415017
 15   8.209042 0.615527 -0.255885 1.510770 0.764779 -0.200445
 16   7.002735 -0.617911 -0.183641 0.011991 0.014022 -1.709145
 17   1.574674 0.609930 -0.000899 0.260984 0.017853 0.194001
 18   -0.602177 0.511412 -0.000006 0.000000 0.000000 0.000000
 19   3.673773 0.177020 1.119313 -0.000002 -0.000014 -0.174510
 20   3.673767 0.176993 -1.117566 0.000007 -0.000003 -0.174546
 21   3.942357 1.330634 1.627658 0.000002 -0.000011 -0.000026
 22   -0.246060 -0.011889 0.516521 -0.000011 0.000031 0.000025
 23   3.942374 1.330659 -1.631083 0.000019 0.000002 -0.000024
 24   -0.246150 -0.011872 -0.516511 -0.000005 -0.000006 0.000048
 25   4.941364 1.997338 1.629330 0.000018 -0.000001 -0.000024
 26   4.941382 1.997366 -1.629410 -0.000001 0.000005 -0.000024
 27   2.918368 1.615358 1.514501 -0.000019 -0.000022 -0.000050
 28   2.920798 1.614964 -1.501142 -0.000002 -0.000009 -0.000024
 29   8.824059 0.150544 0.091743 0.000006 -0.000231 -0.174534
 30   2.111085 -0.561179 1.784320 -0.000008 -0.000682 0.000024
 31   2.121290 -0.561289 -1.853599 0.000000 0.000000 -0.000002
 32   -0.810489 -0.093824 3.127092 3.071872 -0.114782 1.239365
 33   14.298673 -0.408176 0.475484 0.000248 0.000062 -1.896136
 34   15.835795 0.581398 0.242756 -0.214729 0.106889 -0.097869
 35   -0.815868 -0.091229 -3.114430 0.066464 3.132725 -1.010185
 36   14.294526 -0.410349 -0.463635 0.000033 -0.000000 -2.607695
 37   15.834409 0.579420 -0.284600 -0.006092 -0.035255 0.214458
 38   1.139685 -3.453749 -2.823813 0.000000 0.000000 0.000001
 39   -4.457742 -1.054854 -0.746180 0.000000 0.000000 0.000000
 40   1.118101 -3.449769 3.237290 0.000000 0.000001 0.000000
 41   -4.433840 -1.059130 0.959566 -0.000001 0.000000 0.000000
 42   -0.657468 1.697302 -2.688614 0.000000 0.000002 0.000000
 43   -0.664068 1.698578 2.869377 0.000000 0.000002 0.000000
time 4
  0   -0.967547 0.175787 -20.574476 0.000000 0.000000 -1.572114
  1   -1.093036 0.000002 -0.326057 -1.570809 -1.570379 -0.000123
  2   2.262337 0.113614 0.064702 -0.000052 0.000061 -0.260847
  3   2.380047 0.353302 0.047440 -0.261678 -0.001922 -0.008489
  4   2.033756 0.190472 -0.000128 -0.000010 0.000024 -0.024093
  5   2.451511 0.204909 -0.003447 0.000000 -0.000005 -0.017472
  6   7.247600 -0.397300 -0.109469 0.000001 0.000033 -0.209345
  7   -2.022252 -0.104661 3.136172 0.845570 -1.242262 -3.751290
  8   1.168026 -0.537438 -0.063437 -0.438046 1.028189 -1.024629
  9   6.790376 -0.619176 0.015206 -0.000213 -0.000352 -2.133165
 10   8.637599 0.544015 -0.090417 -1.068583 -0.402905 -0.134826
 11   6.790465 -0.619039 0.017802 0.005381 -0.011935 -1.508573
 12   -2.022474 -0.104699 -2.873818 -1.119934 1.092748 -4.004251
 13   1.167898 -0.537463 0.063297 -0.291299 -1.016459 0.434912
 14   7.002743 -0.617765 -0.183752 0.000229 0.000421 -2.415017
 15   8.209042 0.615527 -0.255885 1.510770 0.764779 -0.200445
 16   7.002735 -0.617911 -0.183641 0.011991 0.014022 -1.709145
 17   1.574674 0.609930 -0.000899 0.260984 0.017853 0.190896
 18   -0.602177 0.511412 -0.000006 0.000000 0.000000 0.000000
 19   3.673773 0.177020 1.119313 -0.000002 -0.000014 -0.174510
 20   3.673767 0.176993 -1.117566 0.000007 -0.000003 -0.174546
 21   3.942357 1.330634 1.627658 0.000002 -0.000011 -0.000026
 22   -0.246060 -0.011889 0.516521 -0.000011 0.000031 0.000025
 23   3.942374 1.330659 -1.631083 0.000019 0.000002 -0.000024
 24   -0.246150 -0.011872 -0.516511 -0.000005 -0.000006 0.000048
 25   4.941364 1.997338 1.629330 0.000018 -0.000001 -0.000024
 26   4.941382 1.997366 -1.629410 -0.000001 0.000005 -0.000024
 27   2.918368 1.615358 1.514501 -0.000019 -0.000022 -0.000050
 28   2.920798 1.614964 -1.501142 -0.000002 -0.000009 -0.000024
 29   8.824059 0.150544 0.091743 0.000006 -0.000231 -0.174534
 30   2.111085 -0.561179 1.784320 -0.000008 -0.000682 0.000024
 31   2.121290 -0.561289 -1.853599 0.000000 0.000000 -0.000002
 32   -0.810489 -0.093824 3.127092 3.071872 -0.114782 1.239365
 33   14.298673 -0.408176 0.475484 0.000248 0.000062 -1.896136
 34   15.835795 0.581398 0.242756 -0.214729 0.106889 -0.097869
 35   -0.815868 -0.091229 -3.114430 0.066464 3.132725 -1.010185
 36   14.294526 -0.410349 -0.463635 0.000033 -0.000000 -2.607695
 37   15.834409 0.579420 -0.284600 -0.006092 -0.035255 0.214458
 38   1.139685 -3.453749 -2.823813 0.000000 0.000000 0.000001
 39   -4.457742 -1.054854 -0.746180 0.000000 0.000000 0.000000
 40   1.118101 -3.449769 3.237290 0.000000 0.000001 0.000000
 41   -4.433840 -1.059130 0.959566 -0.000001 0.000000 0.000000
 42   -0.657468 1.697302 -2.688614 0.000000 0.000002 0.000000
 43   -0.664068 1.698578 2.869377 0.000000 0.000002 0.000000
time 5
  0   -0.967547 0.175787 -20.574476 0.000000 0.000000 -1.572114
  1   -1.093036 0.000002 -0.326057 -1.570809 -1.570379 -0.000123
  2   2.262337 0.113614 0.064702 -0.000052 0.000061 -0.260847
  3   2.380047 0.353302 0.047440 -0.261678 -0.001922 -0.008489
  4   2.033756 0.190472 -0.000128 -0.000010 0.000024 -0.020867
  5   2.451511 0.204909 -0.003447 0.000000 -0.000005 -0.017472
  6   7.247600 -0.397300 -0.109469 0.000001 0.000033 -0.209345
  7   -2.022252 -0.104661 3.136172 0.832245 -1.238140 -3.737015
  8   1.168026 -0.537438 -0.063437 -0.429820 1.021950 -1.017986
  9   6.790376 -0.619176 0.015206 -0.000213 -0.000352 -2.133165
 10   8.637599 0.544015 -0.090417 -1.068583 -0.402905 -0.134826
 11   6.790465 -0.619039 0.017802 0.005381 -0.011935 -1.508573
 12   -2.022474 -0.104699 -2.873818 -1.109395 1.090019 -3.992284
 13   1.167898 -0.537463 0.063297 -0.280685 -1.010814 0.425408
 14   7.002743 -0.617765 -0.183752 0.000229 0.000421 -2.415017
 15   8.209042 0.615527 -0.255885 1.510770 0.764779 -0.200445
 16   7.002735 -0.617911 -0.183641 0.011991 0.014022 -1.709145
 17   1.574674 0.609930 -0.000899 0.260984 0.017853 0.187902
 18   -0.602177 0.511412 -0.000006 0.000000 0.000000 0.000000
 19   3.673773 0.177020 1.119313 -0.000002 -0.000014 -0.174510
 20   3.673767 0.176993 -1.117566 0.000007 -0.000003 -0.174546
 21   3.942357 1.330634 1.627658 0.000002 -0.000011 -0.000026
 22   -0.246060 -0.011889 0.516521 -0.000011 0.000031 0.000025
 23   3.942374 1.330659 -1.631083 0.000019 0.000002 -0.000024
 24   -0.246150 -0.011872 -0.516511 -0.000005 -0.000006 0.000048
 25   4.941364 1.997338 1.629330 0.000018 -0.000001 -0.000024
 26   4.941382 1.997366 -1.629410 -0.000001 0.000005 -0.000024
 27   2.918368 1.615358 1.514501 -0.000019 -0.000022 -0.000050
 28   2.920798 1.614964 -1.501142 -0.000002 -0.000009 -0.000024
 29   8.824059 0.150544 0.091743 0.000006 -0.000231 -0.174534
 30   2.111085 -0.561179 1.784320 -0.000008 -0.000682 0.000024
 31   2.121290 -0.561289 -1.853599 0.000000 0.000000 -0.000002
 32   -0.810489 -0.093824 3.127092 3.071872 -0.114782 1.239365
 33   14.298673 -0.408176 0.475484 0.000248 0.000062 -1.896136
 34   15.835795 0.581398 0.242756 -0.214729 0.106889 -0.097869
 35   -0.815868 -0.091229 -3.114430 0.066464 3.132725 -1.010185
 36   14.294526 -0.410349 -0.463635 0.000033 -0.000000 -2.607695
 37   15.834409 0.579420 -0.284600 -0.006092 -0.035255 0.214458
 38   1.139685 -3.453749 -2.823813 0.000000 0.000000 0.000001
 39   -4.457742 -1.054854 -0.746180 0.000000 0.000000 0.000000
 40   1.118101 -3.449769 3.237290 0.000000 0.000001 0.000000
 41   -4.433840 -1.059130 0.959566 -0.000001 0.000000 0.000000
 42   -0.657468 1.697302 -2.688614 0.000000 0.000002 0.000000
 43   -0.664068 1.698578 2.869377 0.000000 0.000002 0.000000
time 6
  0   -0.967547 0.175787 -20.574476 0.000000 0.000000 -1.572114
  1   -1.093036 0.000002 -0.326057 -1.570809 -1.570379 -0.000123
  2   2.262337 0.113614 0.064702 -0.000052 0.000061 -0.260847
  3   2.380047 0.353302 0.047440 -0.261678 -0.001922 -0.008489
  4   2.033756 0.190472 -0.000128 -0.000010 0.000024 -0.017786
  5   2.451511 0.204909 -0.003447 0.000000 -0.000005 -0.017472
  6   7.247600 -0.397300 -0.109469 0.000001 0.000033 -0.209345
  7   -2.022252 -0.104661 3.136172 0.819304 -1.234046 -3.723304
  8   1.168026 -0.537438 -0.063437 -0.421467 1.015912 -1.011534
  9   6.790376 -0.619176 0.015206 -0.000213 -0.000352 -2.133165
 10   8.637599 0.544015 -0.090417 -1.068583 -0.402905 -0.134826
 11   6.790465 -0.619039 0.017802 0.005381 -0.011935 -1.508573
 12   -2.022474 -0.104699 -2.873818 -1.098665 1.087059 -3.980124
 13   1.167898 -0.537463 0.063297 -0.270492 -1.005068 0.415965
 14   7.002743 -0.617765 -0.183752 0.000229 0.000421 -2.415017
 15   8.209042 0.615527 -0.255885 1.510770 0.764779 -0.200445
 16   7.002735 -0.617911 -0.183641 0.011991 0.014022 -1.709145
 17   1.574674 0.609930 -0.000899 0.260984 0.017853 0.184612
 18   -0.602177 0.511412 -0.000006 0.000000 0.000000 0.000000
 19   3.673773 0.177020 1.119313 -0.000002 -0.000014 -0.174510
 20   3.673767 0.176993 -1.117566 0.000007 -0.000003 -0.174546
 21   3.942357 1.330634 1.627658 0.000002 -0.000011 -0.000026
 22   -0.246060 -0.011889 0.516521 -0.000011 0.000031 0.000025
 23   3.942374 1.330659 -1.631083 0.000019 0.000002 -0.000024
 24   -0.246150 -0.011872 -0.516511 -0.000005 -0.000006 0.000048
 25   4.941364 1.997338 1.629330 0.000018 -0.000001 -0.000024
 26   4.941382 1.997366 -1.629410 -0.000001 0.000005 -0.000024
 27   2.918368 1.615358 1.514501 -0.000019 -0.000022 -0.000050
 28   2.920798 1.614964 -1.501142 -0.000002 -0.000009 -0.000024
 29   8.824059 0.150544 0.091743 0.000006 -0.000231 -0.174534
 30   2.111085 -0.561179 1.784320 -0.000008 -0.000682 0.000024
 31   2.121290 -0.561289 -1.853599 0.000000 0.000000 -0.000002
 32   -0.810489 -0.093824 3.127092 3.071872 -0.114782 1.239365
 33   14.298673 -0.408176 0.475484 0.000248 0.000062 -1.896136
 34   15.835795 0.581398 0.242756 -0.214729 0.106889 -0.097869
 35   -0.815868 -0.091229 -3.114430 0.066464 3.132725 -1.010185
 36   14.294526 -0.410349 -0.463635 0.000033 -0.000000 -2.607695
 37   15.834409 0.579420 -0.284600 -0.006092 -0.035255 0.214458
 38   1.139685 -3.453749 -2.823813 0.000000 0.000000 0.000001
 39   -4.457742 -1.054854 -0.746180 0.000000 0.000000 0.000000
 40   1.118101 -3.449769 3.237290 0.000000 0.000001 0.000000
 41   -4.433840 -1.059130 0.959566 -0.000001 0.000000 0.000000
 42   -0.657468 1.697302 -2.688614 0.000000 0.000002 0.000000
 43   -0.664068 1.698578 2.869377 0.000000 0.000002 0.000000
time 7
  0   -0.967547 0.175787 -20.574476 0.000000 0.000000 -1.572114
  1   -1.093036 0.000002 -0.326057 -1.570809 -1.570379 -0.000123
  2   2.262337 0.113614 0.064702 -0.000052 0.000061 -0.260847
  3   2.380047 0.353302 0.047440 -0.261678 -0.001922 -0.008489
  4   2.033756 0.190472 -0.000128 -0.000010 0.000024 -0.014850
  5   2.451511 0.204909 -0.003447 0.000000 -0.000005 -0.017472
  6   7.247600 -0.397300 -0.109469 0.000001 0.000033 -0.209345
  7   -2.022252 -0.104661 3.136172 0.806843 -1.229838 -3.710156
  8   1.168026 -0.537438 -0.063437 -0.413430 1.009824 -1.005651
  9   6.790376 -0.619176 0.015206 -0.000213 -0.000352 -2.133165
 10   8.637599 0.544015 -0.090417 -1.068583 -0.402905 -0.134826
 11   6.790465 -0.619039 0.017802 0.005381 -0.011935 -1.508573
 12   -2.022474 -0.104699 -2.873818 -1.088701 1.084302 -3.968635
 13   1.167898 -0.537463 0.063297 -0.260370 -0.999474 0.406824
 14   7.002743 -0.617765 -0.183752 0.000229 0.000421 -2.415017
 15   8.209042 0.615527 -0.255885 1.510770 0.764779 -0.200445
 16   7.002735 -0.617911 -0.183641 0.011991 0.014022 -1.709145
 17   1.574674 0.609930 -0.000899 0.260984 0.017853 0.181766
 18   -0.602177 0.511412 -0.000006 0.000000 0.000000 0.000000
 19   3.673773 0.177020 1.119313 -0.000002 -0.000014 -0.174510
 20   3.673767 0.176993 -1.117566 0.000007 -0.000003 -0.174546
 21   3.942357 1.330634 1.627658 0.000002 -0.000011 -0.000026
 22   -0.246060 -0.011889 0.516521 -0.000011 0.000031 0.000025
 23   3.942374 1.330659 -1.631083 0.000019 0.000002 -0.000024
 24   -0.246150 -0.011872 -0.516511 -0.000005 -0.000006 0.000048
 25   4.941364 1.997338 1.629330 0.000018 -0.000001 -0.000024
 26   4.941382 1.997366 -1.629410 -0.000001 0.000005 -0.000024
 27   2.918368 1.615358 1.514501 -0.000019 -0.000022 -0.000050
 28   2.920798 1.614964 -1.501142 -0.000002 -0.000009 -0.000024
 29   8.824059 0.150544 0.091743 0.000006 -0.000231 -0.174534
 30   2.111085 -0.561179 1.784320 -0.000008 -0.000682 0.000024
 31   2.121290 -0.561289 -1.853599 0.000000 0.000000 -0.000002
 32   -0.810489 -0.093824 3.127092 3.071872 -0.114782 1.239365
 33   14.298673 -0.408176 0.475484 0.000248 0.000062 -1.896136
 34   15.835795 0.581398 0.242756 -0.214729 0.106889 -0.097869
 35   -0.815868 -0.091229 -3.114430 0.066464 3.132725 -1.010185
 36   14.294526 -0.410349 -0.463635 0.000033 -0.000000 -2.607695
 37   15.834409 0.579420 -0.284600 -0.006092 -0.035255 0.214458
 38   1.139685 -3.453749 -2.823813 0.000000 0.000000 0.000001
 39   -4.457742 -1.054854 -0.746180 0.000000 0.000000 0.000000
 40   1.118101 -3.449769 3.237290 0.000000 0.000001 0.000000
 41   -4.433840 -1.059130 0.959566 -0.000001 0.000000 0.000000
 42   -0.657468 1.697302 -2.688614 0.000000 0.000002 0.000000
 43   -0.664068 1.698578 2.869377 0.000000 0.000002 0.000000
time 8
  0   -0.967547 0.175787 -20.574476 0.000000 0.000000 -1.572114
  1   -1.093036 0.000002 -0.326057 -1.570809 -1.570379 -0.000123
  2   2.262337 0.113614 0.064702 -0.000052 0.000061 -0.260847
  3   2.380047 0.353302 0.047440 -0.261678 -0.001922 -0.008489
  4   2.033756 0.190472 -0.000128 -0.000010 0.000024 -0.011914
  5   2.451511 0.204909 -0.003447 0.000000 -0.000005 -0.017472
  6   7.247600 -0.397300 -0.109469 0.000001 0.000033 -0.209345
  7   -2.022252 -0.104661 3.136172 0.795148 -1.225802 -3.697572
  8   1.168026 -0.537438 -0.063437 -0.405900 1.003887 -0.999831
  9   6.790376 -0.619176 0.015206 -0.000213 -0.000352 -2.133165
 10   8.637599 0.544015 -0.090417 -1.068583 -0.402905 -0.134826
 11   6.790465 -0.619039 0.017802 0.005381 -0.011935 -1.508573
 12   -2.022474 -0.104699 -2.873818 -1.078833 1.081835 -3.957530
 13   1.167898 -0.537463 0.063297 -0.250951 -0.994084 0.398349
 14   7.002743 -0.617765 -0.183752 0.000229 0.000421 -2.415017
 15   8.209042 0.615527 -0.255885 1.510770 0.764779 -0.200445
 16   7.002735 -0.617911 -0.183641 0.011991 0.014022 -1.709145
 17   1.574674 0.609930 -0.000899 0.260984 0.017853 0.178736
 18   -0.602177 0.511412 -0.000006 0.000000 0.000000 0.000000
 19   3.673773 0.177020 1.119313 -0.000002 -0.000014 -0.174510
 20   3.673767 0.176993 -1.117566 0.000007 -0.000003 -0.174546
 21   3.942357 1.330634 1.627658 0.000002 -0.000011 -0.000026
 22   -0.246060 -0.011889 0.516521 -0.000011 0.000031 0.000025
 23   3.942374 1.330659 -1.631083 0.000019 0.000002 -0.000024
 24   -0.246150 -0.011872 -0.516511 -0.000005 -0.000006 0.000048
 25   4.941364 1.997338 1.629330 0.000018 -0.000001 -0.000024
 26   4.941382 1.997366 -1.629410 -0.000001 0.000005 -0.000024
 27   2.918368 1.615358 1.514501 -0.000019 -0.000022 -0.000050
 28   2.920798 1.614964 -1.501142 -0.000002 -0.000009 -0.000024
 29   8.824059 0.150544 0.091743 0.000006 -0.000231 -0.174534
 30   2.111085 -0.561179 1.784320 -0.000008 -0.000682 0.000024
 31   2.121290 -0.561289 -1.853599 0.000000 0.000000 -0.000002
 32   -0.810489 -0.093824 3.127092 3.071872 -0.114782 1.239365
 33   14.298673 -0.408176 0.475484 0.000248 0.000062 -1.896136
 34   15.835795 0.581398 0.242756 -0.214729 0.106889 -0.097869
 35   -0.815868 -0.091229 -3.114430 0.066464 3.132725 -1.010185
 36   14.294526 -0.410349 -0.463635 0.000033 -0.000000 -2.607695
 37   15.834409 0.579420 -0.284600 -0.006092 -0.035255 0.214458
 38   1.139685 -3.453749 -2.823813 0.000000 0.000000 0.000001
 39   -4.457742 -1.054854 -0.746180 0.000000 0.000000 0.000000
 40   1.118101 -3.449769 3.237290 0.000000 0.000001 0.000000
 41   -4.433840 -1.059130 0.959566 -0.000001 0.000000 0.000000
 42   -0.657468 1.697302 -2.688614 0.000000 0.000002 0.000000
 43   -0.664068 1.698578 2.869377 0.000000 0.000002 0.000000
time 9
  0   -0.967547 0.175787 -20.574476 0.000000 0.000000 -1.572114
  1   -1.093036 0.000002 -0.326057 -1.570809 -1.570379 -0.000123
  2   2.262337 0.113614 0.064702 -0.000052 0.000061 -0.260847
  3   2.380047 0.353302 0.047440 -0.261678 -0.001922 -0.008489
  4   2.033756 0.190472 -0.000128 -0.000010 0.000024 -0.009268
  5   2.451511 0.204909 -0.003447 0.000000 -0.000005 -0.017472
  6   7.247600 -0.397300 -0.109469 0.000001 0.000033 -0.209345
  7   -2.022252 -0.104661 3.136172 0.784604 -1.222054 -3.686208
  8   1.168026 -0.537438 -0.063437 -0.399002 0.998755 -0.994643
  9   6.790376 -0.619176 0.015206 -0.000213 -0.000151 -2.133165
 10   8.637599 0.544015 -0.090417 -1.068583 -0.402905 -0.134826
 11   6.790465 -0.619039 0.017802 0.005381 -0.011935 -1.508573
 12   -2.022474 -0.104699 -2.873818 -1.069827 1.079077 -3.947477
 13   1.167898 -0.537463 0.063297 -0.242304 -0.988948 0.390419
 14   7.002743 -0.617765 -0.183752 0.000229 0.000421 -2.415017
 15   8.209042 0.615527 -0.255885 1.510770 0.764779 -0.200445
 16   7.002735 -0.617911 -0.183641 0.011991 0.014022 -1.709145
 17   1.574674 0.609930 -0.000899 0.260984 0.017853 0.176148
 18   -0.602177 0.511412 -0.000006 0.000000 0.000000 0.000000
 19   3.673773 0.177020 1.119313 -0.000002 -0.000014 -0.174510
 20   3.673767 0.176993 -1.117566 0.000007 -0.000003 -0.174546
 21   3.942357 1.330634 1.627658 0.000002 -0.000011 -0.000026
 22   -0.246060 -0.011889 0.516521 -0.000011 0.000031 0.000025
 23   3.942374 1.330659 -1.631083 0.000019 0.000002 -0.000024
 24   -0.246150 -0.011872 -0.516511 -0.000005 -0.000006 0.000048
 25   4.941364 1.997338 1.629330 0.000018 -0.000001 -0.000024
 26   4.941382 1.997366 -1.629410 -0.000001 0.000005 -0.000024
 27   2.918368 1.615358 1.514501 -0.000019 -0.000022 -0.000050
 28   2.920798 1.614964 -1.501142 -0.000002 -0.000009 -0.000024
 29   8.824059 0.150544 0.091743 0.000006 -0.000231 -0.174534
 30   2.111085 -0.561179 1.784320 -0.000008 -0.000682 0.000024
 31   2.121290 -0.561289 -1.853599 0.000000 0.000000 -0.000002
 32   -0.810489 -0.093824 3.127092 3.071872 -0.114782 1.239365
 33   14.298673 -0.408176 0.475484 0.000248 0.000062 -1.896136
 34   15.835795 0.581398 0.242756 -0.214729 0.106889 -0.097869
 35   -0.815868 -0.091229 -3.114430 0.066464 3.132725 -1.010185
 36   14.294526 -0.410349 -0.463635 0.000033 -0.000000 -2.607695
 37   15.834409 0.579420 -0.284600 -0.006092 -0.035255 0.214458
 38   1.139685 -3.453749 -2.823813 0.000000 0.000000 0.000001
 39   -4.457742 -1.054854 -0.746180 0.000000 0.000000 0.000000
 40   1.118101 -3.449769 3.237290 0.000000 0.000001 0.000000
 41   -4.433840 -1.059130 0.959566 -0.000001 0.000000 0.000000
 42   -0.657468 1.697302 -2.688614 0.000000 0.000002 0.000000
 43   -0.664068 1.698578 2.869377 0.000000 0.000002 0.000000
time 10
  0   -0.967547 0.175787 -20.574476 0.000000 0.000000 -1.572114
  1   -1.093036 0.000002 -0.326057 -1.570809 -1.570379 -0.000123
  2   2.262337 0.113614 0.064702 -0.000052 0.000061 -0.260847
  3   2.380047 0.353302 0.047440 -0.261678 -0.001922 -0.008489
  4   2.033756 0.190472 -0.000128 -0.000010 0.000024 -0.006767
  5   2.451511 0.204909 -0.003447 0.000000 -0.000005 -0.017472
  6   7.247600 -0.397300 -0.109469 0.000001 0.000033 -0.209345
  7   -2.022252 -0.104661 3.136172 0.774826 -1.218393 -3.676159
  8   1.168026 -0.537438 -0.063437 -0.392611 0.993623 -0.989899
  9   6.790376 -0.619176 0.015206 -0.000213 -0.000352 -2.133165
 10   8.637599 0.544015 -0.090417 -1.068583 -0.402905 -0.134826
 11   6.790465 -0.619039 0.017802 0.005381 -0.011935 -1.508573
 12   -2.022474 -0.104699 -2.873818 -1.061779 1.076639 -3.938477
 13   1.167898 -0.537463 0.063297 -0.234502 -0.984015 0.383639
 14   7.002743 -0.617765 -0.183752 0.000229 0.000421 -2.415017
 15   8.209042 0.615527 -0.255885 1.510770 0.764779 -0.200445
 16   7.002735 -0.617911 -0.183641 0.011991 0.014022 -1.709145
 17   1.574674 0.609930 -0.000899 0.260984 0.017853 0.173635
 18   -0.602177 0.511412 -0.000006 0.000000 0.000000 0.000000
 19   3.673773 0.177020 1.119313 -0.000002 -0.000014 -0.174510
 20   3.673767 0.176993 -1.117566 0.000007 -0.000003 -0.174546
 21   3.942357 1.330634 1.627658 0.000002 -0.000011 -0.000026
 22   -0.246060 -0.011889 0.516521 -0.000011 0.000031 0.000025
 23   3.942374 1.330659 -1.631083 0.000019 0.000002 -0.000024
 24   -0.246150 -0.011872 -0.516511 -0.000005 -0.000006 0.000048
 25   4.941364 1.997338 1.629330 0.000018 -0.000001 -0.000024
 26   4.941382 1.997366 -1.629410 -0.000001 0.000005 -0.000024
 27   2.918368 1.615358 1.514501 -0.000019 -0.000022 -0.000050
 28   2.920798 1.614964 -1.501142 -0.000002 -0.000009 -0.000024
 29   8.824059 0.150544 0.091743 0.000006 -0.000231 -0.174534
 30   2.111085 -0.561179 1.784320 -0.000008 -0.000682 0.000024
 31   2.121290 -0.561289 -1.853599 0.000000 0.000000 -0.000002
 32   -0.810489 -0.093824 3.127092 3.071872 -0.114782 1.239365
 33   14.298673 -0.408176 0.475484 0.000248 0.000062 -1.896136
 34   15.835795 0.581398 0.242756 -0.214729 0.106889 -0.097869
 35   -0.815868 -0.091229 -3.114430 0.066464 3.132725 -1.010185
 36   14.294526 -0.410349 -0.463635 0.000033 -0.000000 -2.607695
 37   15.834409 0.579420 -0.284600 -0.006092 -0.035255 0.214458
 38   1.139685 -3.453749 -2.823813 0.000000 0.000000 0.000001
 39   -4.457742 -1.054854 -0.746180 0.000000 0.000000 0.000000
 40   1.118101 -3.449769 3.237290 0.000000 0.000001 0.000000
 41   -4.433840 -1.059130 0.959566 -0.000001 0.000000 0.000000
 42   -0.657468 1.697302 -2.688614 0.000000 0.000002 0.000000
 43   -0.664068 1.698578 2.869377 0.000000 0.000002 0.000000
time 11
  0   -0.967547 0.175787 -20.574476 0.000000 0.000000 -1.572114
  1   -1.093036 0.000002 -0.326057 -1.570809 -1.570379 -0.000123
  2   2.262337 0.113614 0.064702 -0.000052 0.000061 -0.260847
  3   2.380047 0.353302 0.047440 -0.261678 -0.001922 -0.008489
  4   2.033756 0.190472 -0.000128 -0.000010 0.000024 -0.004592
  5   2.451511 0.204909 -0.003447 0.000000 -0.000005 -0.017472
  6   7.247600 -0.397300 -0.109469 0.000001 0.000033 -0.209345
  7   -2.022252 -0.104661 3.136172 0.766678 -1.215367 -3.667519
  8   1.168026 -0.537438 -0.063437 -0.387422 0.989145 -0.986230
  9   6.790376 -0.619176 0.015206 -0.000213 -0.000352 -2.133165
 10   8.637599 0.544015 -0.090417 -1.068583 -0.402905 -0.134826
 11   6.790465 -0.619039 0.017802 0.005381 -0.011935 -1.508573
 12   -2.022474 -0.104699 -2.873818 -1.054881 1.074753 -3.930531
 13   1.167898 -0.537463 0.063297 -0.227894 -0.980048 0.377404
 14   7.002743 -0.617765 -0.183752 0.000229 0.000421 -2.415017
 15   8.209042 0.615527 -0.255885 1.510770 0.764779 -0.200445
 16   7.002735 -0.617911 -0.183641 0.011991 0.014022 -1.709145
 17   1.574674 0.609930 -0.000899 0.260984 0.017853 0.171454
 18   -0.602177 0.511412 -0.000006 0.000000 0.000000 0.000000
 19   3.673773 0.177020 1.119313 -0.000002 -0.000014 -0.174510
 20   3.673767 0.176993 -1.117566 0.000007 -0.000003 -0.174546
 21   3.942357 1.330634 1.627658 0.000002 -0.000011 -0.000026
 22   -0.246060 -0.011889 0.516521 -0.000011 0.000031 0.000025
 23   3.942374 1.330659 -1.631083 0.000019 0.000002 -0.000024
 24   -0.246150 -0.011872 -0.516511 -0.000005 -0.000006 0.000048
 25   4.941364 1.997338 1.629330 0.000018 -0.000001 -0.000024
 26   4.941382 1.997366 -1.629410 -0.000001 0.000005 -0.000024
 27   2.918368 1.615358 1.514501 -0.000019 -0.000022 -0.000050
 28   2.920798 1.614964 -1.501142 -0.000002 -0.000009 -0.000024
 29   8.824059 0.150544 0.091743 0.000006 -0.000231 -0.174534
 30   2.111085 -0.561179 1.784320 -0.000008 -0.000682 0.000024
 31   2.121290 -0.561289 -1.853599 0.000000 0.000000 -0.000002
 32   -0.810489 -0.093824 3.127092 3.071872 -0.114782 1.239365
 33   14.298673 -0.408176 0.475484 0.000248 0.000062 -1.896136
 34   15.835795 0.581398 0.242756 -0.214729 0.106889 -0.097869
 35   -0.815868 -0.091229 -3.114430 0.066464 3.132725 -1.010185
 36   14.294526 -0.410349 -0.463635 0.000033 -0.000000 -2.607695
 37   15.834409 0.579420 -0.284600 -0.006092 -0.035255 0.214458
 38   1.139685 -3.453749 -2.823813 0.000000 0.000000 0.000001
 39   -4.457742 -1.054854 -0.746180 0.000000 0.000000 0.000000
 40   1.118101 -3.449769 3.237290 0.000000 0.000001 0.000000
 41   -4.433840 -1.059130 0.959566 -0.000001 0.000000 0.000000
 42   -0.657468 1.697302 -2.688614 0.000000 0.000002 0.000000
 43   -0.664068 1.698578 2.869377 0.000000 0.000002 0.000000
time 12
  0   -0.967547 0.175787 -20.574476 0.000000 0.000000 -1.572114
  1   -1.093036 0.000002 -0.326057 -1.570809 -1.570379 -0.000123
  2   2.262337 0.113614 0.064702 -0.000052 0.000061 -0.260847
  3   2.380047 0.353302 0.047440 -0.261678 -0.001922 -0.008489
  4   2.033756 0.190472 -0.000128 -0.000010 0.000024 -0.002816
  5   2.451511 0.204909 -0.003447 0.000000 -0.000005 -0.017472
  6   7.247600 -0.397300 -0.109469 0.000001 0.000033 -0.209345
  7   -2.022252 -0.104661 3.136172 0.760160 -1.212830 -3.660288
  8   1.168026 -0.537438 -0.063437 -0.383119 0.985774 -0.982750
  9   6.790376 -0.619176 0.015206 -0.000213 -0.000352 -2.133165
 10   8.637599 0.544015 -0.090417 -1.068583 -0.402905 -0.134826
 11   6.790465 -0.619039 0.017802 0.005381 -0.011935 -1.508573
 12   -2.022474 -0.104699 -2.873818 -1.049324 1.072663 -3.923924
 13   1.167898 -0.537463 0.063297 -0.222763 -0.976743 0.372501
 14   7.002743 -0.617765 -0.183752 0.000229 0.000421 -2.415017
 15   8.209042 0.615527 -0.255885 1.510770 0.764779 -0.200445
 16   7.002735 -0.617911 -0.183641 0.011991 0.014022 -1.709145
 17   1.574674 0.609930 -0.000899 0.260984 0.017853 0.169569
 18   -0.602177 0.511412 -0.000006 0.000000 0.000000 0.000000
 19   3.673773 0.177020 1.119313 -0.000002 -0.000014 -0.174510
 20   3.673767 0.176993 -1.117566 0.000007 -0.000003 -0.174546
 21   3.942357 1.330634 1.627658 0.000002 -0.000011 -0.000026
 22   -0.246060 -0.011889 0.516521 -0.000011 0.000031 0.000025
 23   3.942374 1.330659 -1.631083 0.000019 0.000002 -0.000024
 24   -0.246150 -0.011872 -0.516511 -0.000005 -0.000006 0.000048
 25   4.941364 1.997338 1.629330 0.000018 -0.000001 -0.000024
 26   4.941382 1.997366 -1.629410 -0.000001 0.000005 -0.000024
 27   2.918368 1.615358 1.514501 -0.000019 -0.000022 -0.000050
 28   2.920798 1.614964 -1.501142 -0.000002 -0.000009 -0.000024
 29   8.824059 0.150544 0.091743 0.000006 -0.000231 -0.174534
 30   2.111085 -0.561179 1.784320 -0.000008 -0.000682 0.000024
 31   2.121290 -0.561289 -1.853599 0.000000 0.000000 -0.000002
 32   -0.810489 -0.093824 3.127092 3.071872 -0.114782 1.239365
 33   14.298673 -0.408176 0.475484 0.000248 0.000062 -1.896136
 34   15.835795 0.581398 0.242756 -0.214729 0.106889 -0.097869
 35   -0.815868 -0.091229 -3.114430 0.066464 3.132725 -1.010185
 36   14.294526 -0.410349 -0.463635 0.000033 -0.000000 -2.607695
 37   15.834409 0.579420 -0.284600 -0.006092 -0.035255 0.214458
 38   1.139685 -3.453749 -2.823813 0.000000 0.000000 0.000001
 39   -4.457742 -1.054854 -0.746180 0.000000 0.000000 0.000000
 40   1.118101 -3.449769 3.237290 0.000000 0.000001 0.000000
 41   -4.433840 -1.059130 0.959566 -0.000001 0.000000 0.000000
 42   -0.657468 1.697302 -2.688614 0.000000 0.000002 0.000000
 43   -0.664068 1.698578 2.869377 0.000000 0.000002 0.000000
time 13
  0   -0.967547 0.175787 -20.574476 0.000000 0.000000 -1.572114
  1   -1.093036 0.000002 -0.326057 -1.570809 -1.570379 -0.000123
  2   2.262337 0.113614 0.064702 -0.000052 0.000061 -0.260847
  3   2.380047 0.353302 0.047440 -0.261678 -0.001922 -0.008489
  4   2.033756 0.190472 -0.000128 -0.000010 0.000024 -0.001475
  5   2.451511 0.204909 -0.003447 0.000000 -0.000005 -0.017472
  6   7.247600 -0.397300 -0.109469 0.000001 0.000033 -0.209345
  7   -2.022252 -0.104661 3.136172 0.755080 -1.210783 -3.655123
  8   1.168026 -0.537438 -0.063437 -0.379638 0.982906 -0.980410
  9   6.790376 -0.619176 0.015206 -0.000213 -0.000352 -2.133165
 10   8.637599 0.544015 -0.090417 -1.068583 -0.402905 -0.134826
 11   6.790465 -0.619039 0.017802 0.005381 -0.011935 -1.508573
 12   -2.022474 -0.104699 -2.873818 -1.044821 1.071386 -3.919042
 13   1.167898 -0.537463 0.063297 -0.218475 -0.973997 0.368808
 14   7.002743 -0.617765 -0.183752 0.000229 0.000421 -2.415017
 15   8.209042 0.615527 -0.255885 1.510770 0.764779 -0.200445
 16   7.002735 -0.617911 -0.183641 0.011991 0.014022 -1.709145
 17   1.574674 0.609930 -0.000899 0.260984 0.017853 0.168350
 18   -0.602177 0.511412 -0.000006 0.000000 0.000000 0.000000
 19   3.673773 0.177020 1.119313 -0.000002 -0.000014 -0.174510
 20   3.673767 0.176993 -1.117566 0.000007 -0.000003 -0.174546
 21   3.942357 1.330634 1.627658 0.000002 -0.000011 -0.000026
 22   -0.246060 -0.011889 0.516521 -0.000011 0.000031 0.000025
 23   3.942374 1.330659 -1.631083 0.000019 0.000002 -0.000024
 24   -0.246150 -0.011872 -0.516511 -0.000005 -0.000006 0.000048
 25   4.941364 1.997338 1.629330 0.000018 -0.000001 -0.000024
 26   4.941382 1.997366 -1.629410 -0.000001 0.000005 -0.000024
 27   2.918368 1.615358 1.514501 -0.000019 -0.000022 -0.000050
 28   2.920798 1.614964 -1.501142 -0.000002 -0.000009 -0.000024
 29   8.824059 0.150544 0.091743 0.000006 -0.000231 -0.174534
 30   2.111085 -0.561179 1.784320 -0.000008 -0.000682 0.000024
 31   2.121290 -0.561289 -1.853599 0.000000 0.000000 -0.000002
 32   -0.810489 -0.093824 3.127092 3.071872 -0.114782 1.239365
 33   14.298673 -0.408176 0.475484 0.000248 0.000062 -1.896136
 34   15.835795 0.581398 0.242756 -0.214729 0.106889 -0.097869
 35   -0.815868 -0.091229 -3.114430 0.066464 3.132725 -1.010185
 36   14.294526 -0.410349 -0.463635 0.000033 -0.000000 -2.607695
 37   15.834409 0.579420 -0.284600 -0.006092 -0.035255 0.214458
 38   1.139685 -3.453749 -2.823813 0.000000 0.000000 0.000001
 39   -4.457742 -1.054854 -0.746180 0.000000 0.000000 0.000000
 40   1.118101 -3.449769 3.237290 0.000000 0.000001 0.000000
 41   -4.433840 -1.059130 0.959566 -0.000001 0.000000 0.000000
 42   -0.657468 1.697302 -2.688614 0.000000 0.000002 0.000000
 43   -0.664068 1.698578 2.869377 0.000000 0.000002 0.000000
time 14
  0   -0.967547 0.175787 -20.574476 0.000000 0.000000 -1.572114
  1   -1.093036 0.000002 -0.326057 -1.570809 -1.570379 -0.000123
  2   2.262337 0.113614 0.064702 -0.000052 0.000061 -0.260847
  3   2.380047 0.353302 0.047440 -0.261678 -0.001922 -0.008489
  4   2.033756 0.190472 -0.000128 -0.000010 0.000024 -0.000605
  5   2.451511 0.204909 -0.003447 0.000000 -0.000005 -0.017472
  6   7.247600 -0.397300 -0.109469 0.000001 0.000033 -0.209345
  7   -2.022252 -0.104661 3.136172 0.751916 -1.209486 -3.651648
  8   1.168026 -0.537438 -0.063437 -0.377613 0.981296 -0.978955
  9   6.790376 -0.619176 0.015206 -0.000213 -0.000352 -2.133165
 10   8.637599 0.544015 -0.090417 -1.068583 -0.402905 -0.134826
 11   6.790465 -0.619039 0.017802 0.005381 -0.011935 -1.508573
 12   -2.022474 -0.104699 -2.873818 -1.042138 1.070748 -3.916074
 13   1.167898 -0.537463 0.063297 -0.215663 -0.972268 0.366387
 14   7.002743 -0.617765 -0.183752 0.000229 0.000421 -2.415017
 15   8.209042 0.615527 -0.255885 1.510770 0.764779 -0.200445
 16   7.002735 -0.617911 -0.183641 0.011991 0.014022 -1.709145
 17   1.574674 0.609930 -0.000899 0.260984 0.017853 0.167462
 18   -0.602177 0.511412 -0.000006 0.000000 0.000000 0.000000
 19   3.673773 0.177020 1.119313 -0.000002 -0.000014 -0.174510
 20   3.673767 0.176993 -1.117566 0.000007 -0.000003 -0.174546
 21   3.942357 1.330634 1.627658 0.000002 -0.000011 -0.000026
 22   -0.246060 -0.011889 0.516521 -0.000011 0.000031 0.000025
 23   3.942374 1.330659 -1.631083 0.000019 0.000002 -0.000024
 24   -0.246150 -0.011872 -0.516511 -0.000005 -0.000006 0.000048
 25   4.941364 1.997338 1.629330 0.000018 -0.000001 -0.000024
 26   4.941382 1.997366 -1.629410 -0.000001 0.000005 -0.000024
 27   2.918368 1.615358 1.514501 -0.000019 -0.000022 -0.000050
 28   2.920798 1.614964 -1.501142 -0.000002 -0.000009 -0.000024
 29   8.824059 0.150544 0.091743 0.000006 -0.000231 -0.174534
 30   2.111085 -0.561179 1.784320 -0.000008 -0.000682 0.000024
 31   2.121290 -0.561289 -1.853599 0.000000 0.000000 -0.000002
 32   -0.810489 -0.093824 3.127092 3.071872 -0.114782 1.239365
 33   14.298673 -0.408176 0.475484 0.000248 0.000062 -1.896136
 34   15.835795 0.581398 0.242756 -0.214729 0.106889 -0.097869
 35   -0.815868 -0.091229 -3.114430 0.066464 3.132725 -1.010185
 36   14.294526 -0.410349 -0.463635 0.000033 -0.000000 -2.607695
 37   15.834409 0.579420 -0.284600 -0.006092 -0.035255 0.214458
 38   1.139685 -3.453749 -2.823813 0.000000 0.000000 0.000001
 39   -4.457742 -1.054854 -0.746180 0.000000 0.000000 0.000000
 40   1.118101 -3.449769 3.237290 0.000000 0.000001 0.000000
 41   -4.433840 -1.059130 0.959566 -0.000001 0.000000 0.000000
 42   -0.657468 1.697302 -2.688614 0.000000 0.000002 0.000000
 43   -0.664068 1.698578 2.869377 0.000000 0.000002 0.000000
time 15
  0   -0.967547 0.175787 -20.574476 0.000000 0.000000 -1.572114
  1   -1.093036 0.000002 -0.326057 -1.570809 -1.570379 -0.000123
  2   2.262337 0.113614 0.064702 -0.000052 0.000061 -0.260847
  3   2.380047 0.353302 0.047440 -0.261678 -0.001922 -0.008489
  4   2.033756 0.190472 -0.000128 -0.000010 0.000024 -0.000315
  5   2.451511 0.204909 -0.003447 0.000000 -0.000005 -0.017472
  6   7.247600 -0.397300 -0.109469 0.000001 0.000033 -0.209345
  7   -2.022252 -0.104661 3.136172 0.751149 -1.209111 -3.650521
  8   1.168026 -0.537438 -0.063437 -0.376791 0.980642 -0.978322
  9   6.790376 -0.619176 0.015206 -0.000213 -0.000352 -2.133165
 10   8.637599 0.544015 -0.090417 -1.068583 -0.402905 -0.134826
 11   6.790465 -0.619039 0.017802 0.005381 -0.011992 -1.508573
 12   -2.022474 -0.104699 -2.873818 -1.041180 1.070341 -3.914925
 13   1.167898 -0.537463 0.063297 -0.214890 -0.971810 0.365479
 14   7.002743 -0.617765 -0.183752 0.000229 0.000421 -2.415017
 15   8.209042 0.615527 -0.255885 1.510770 0.764779 -0.200445
 16   7.002735 -0.617911 -0.183641 0.011991 0.014022 -1.709145
 17   1.574674 0.609930 -0.000899 0.260984 0.017853 0.167056
 18   -0.602177 0.511412 -0.000006 0.000000 0.000000 0.000000
 19   3.673773 0.177020 1.119313 -0.000002 -0.000014 -0.174510
 20   3.673767 0.176993 -1.117566 0.000007 -0.000003 -0.174546
 21   3.942357 1.330634 1.627658 0.000002 -0.000011 -0.000026
 22   -0.246060 -0.011889 0.516521 -0.000011 0.000031 0.000025
 23   3.942374 1.330659 -1.631083 0.000019 0.000002 -0.000024
 24   -0.246150 -0.011872 -0.516511 -0.000005 -0.000006 0.000048
 25   4.941364 1.997338 1.629330 0.000018 -0.000001 -0.000024
 26   4.941382 1.997366 -1.629410 -0.000001 0.000005 -0.000024
 27   2.918368 1.615358 1.514501 -0.000019 -0.000022 -0.000050
 28   2.920798 1.614964 -1.501142 -0.000002 -0.000009 -0.000024
 29   8.824059 0.150544 0.091743 0.000006 -0.000231 -0.174534
 30   2.111085 -0.561179 1.784320 -0.000008 -0.000682 0.000024
 31   2.121290 -0.561289 -1.853599 0.000000 0.000000 -0.000002
 32   -0.810489 -0.093824 3.127092 3.071872 -0.114782 1.239365
 33   14.298673 -0.408176 0.475484 0.000248 0.000062 -1.896136
 34   15.835795 0.581398 0.242756 -0.214729 0.106889 -0.097869
 35   -0.815868 -0.091229 -3.114430 0.066464 3.132725 -1.010185
 36   14.294526 -0.410349 -0.463635 0.000033 -0.000000 -2.607695
 37   15.834409 0.579420 -0.284600 -0.006092 -0.035255 0.214458
 38   1.139685 -3.453749 -2.823813 0.000000 0.000000 0.000001
 39   -4.457742 -1.054854 -0.746180 0.000000 0.000000 0.000000
 40   1.118101 -3.449769 3.237290 0.000000 0.000001 0.000000
 41   -4.433840 -1.059130 0.959566 -0.000001 0.000000 0.000000
 42   -0.657468 1.697302 -2.688614 0.000000 0.000002 0.000000
 43   -0.664068 1.698578 2.869377 0.000000 0.000002 0.000000
time 16
  0   -0.967547 0.175787 -20.574476 0.000000 0.000000 -1.572114
  1   -1.093036 0.000002 -0.326057 -1.570809 -1.570379 -0.000123
  2   2.262337 0.113614 0.064702 -0.000052 0.000061 -0.260847
  3   2.380047 0.353302 0.047440 -0.261678 -0.001922 -0.008489
  4   2.033756 0.190472 -0.000128 -0.000010 0.000024 -0.000605
  5   2.451511 0.204909 -0.003447 0.000000 -0.000005 -0.017472
  6   7.247600 -0.397300 -0.109469 0.000001 0.000033 -0.209345
  7   -2.022252 -0.104661 3.136172 0.751916 -1.209486 -3.651648
  8   1.168026 -0.537438 -0.063437 -0.377613 0.981296 -0.978955
  9   6.790376 -0.619176 0.015206 -0.000213 -0.000352 -2.133165
 10   8.637599 0.544015 -0.090417 -1.068583 -0.402905 -0.134826
 11   6.790465 -0.619039 0.017802 0.005381 -0.011935 -1.508573
 12   -2.022474 -0.104699 -2.873818 -1.042138 1.070748 -3.916074
 13   1.167898 -0.537463 0.063297 -0.215663 -0.972268 0.366387
 14   7.002743 -0.617765 -0.183752 0.000229 0.000421 -2.415017
 15   8.209042 0.615527 -0.255885 1.510770 0.764779 -0.200445
 16   7.002735 -0.617911 -0.183641 0.011991 0.014022 -1.709145
 17   1.574674 0.609930 -0.000899 0.260984 0.017853 0.167462
 18   -0.602177 0.511412 -0.000006 0.000000 0.000000 0.000000
 19   3.673773 0.177020 1.119313 -0.000002 -0.000014 -0.174510
 20   3.673767 0.176993 -1.117566 0.000007 -0.000003 -0.174546
 21   3.942357 1.330634 1.627658 0.000002 -0.000011 -0.000026
 22   -0.246060 -0.011889 0.516521 -0.000011 0.000031 0.000025
 23   3.942374 1.330659 -1.631083 0.000019 0.000002 -0.000024
 24   -0.246150 -0.011872 -0.516511 -0.000005 -0.000006 0.000048
 25   4.941364 1.997338 1.629330 0.000018 -0.000001 -0.000024
 26   4.941382 1.997366 -1.629410 -0.000001 0.000005 -0.000024
 27   2.918368 1.615358 1.514501 -0.000019 -0.000022 -0.000050
 28   2.920798 1.614964 -1.501142 -0.000002 -0.000009 -0.000024
 29   8.824059 0.150544 0.091743 0.000006 -0.000231 -0.174534
 30   2.111085 -0.561179 1.784320 -0.000008 -0.000682 0.000024
 31   2.121290 -0.561289 -1.853599 0.000000 0.000000 -0.000002
 32   -0.810489 -0.093824 3.127092 3.071872 -0.114782 1.239365
 33   14.298673 -0.408176 0.475484 0.000248 0.000062 -1.896136
 34   15.835795 0.581398 0.242756 -0.214729 0.106889 -0.097869
 35   -0.815868 -0.091229 -3.114430 0.066464 3.132725 -1.010185
 36   14.294526 -0.410349 -0.463635 0.000033 -0.000000 -2.607695
 37   15.834409 0.579420 -0.284600 -0.006092 -0.035255 0.214458
 38   1.139685 -3.453749 -2.823813 0.000000 0.000000 0.000001
 39   -4.457742 -1.054854 -0.746180 0.000000 0.000000 0.000000
 40   1.118101 -3.449769 3.237290 0.000000 0.000001 0.000000
 41   -4.433840 -1.059130 0.959566 -0.000001 0.000000 0.000000
 42   -0.657468 1.697302 -2.688614 0.000000 0.000002 0.000000
 43   -0.664068 1.698578 2.869377 0.000000 0.000002 0.000000
time 17
  0   -0.967547 0.175787 -20.574476 0.000000 0.000000 -1.572114
  1   -1.093036 0.000002 -0.326057 -1.570809 -1.570379 -0.000123
  2   2.262337 0.113614 0.064702 -0.000052 0.000061 -0.260847
  3   2.380047 0.353302 0.047440 -0.261678 -0.001922 -0.008489
  4   2.033756 0.190472 -0.000128 -0.000010 0.000024 -0.001475
  5   2.451511 0.204909 -0.003447 0.000000 -0.000005 -0.017472
  6   7.247600 -0.397300 -0.109469 0.000001 0.000033 -0.209345
  7   -2.022252 -0.104661 3.136172 0.755080 -1.210783 -3.655123
  8   1.168026 -0.537438 -0.063437 -0.379638 0.982906 -0.980410
  9   6.790376 -0.619176 0.015206 -0.000213 -0.000352 -2.133165
 10   8.637599 0.544015 -0.090417 -1.068583 -0.402905 -0.134826
 11   6.790465 -0.619039 0.017802 0.005381 -0.011935 -1.508573
 12   -2.022474 -0.104699 -2.873818 -1.044821 1.071386 -3.919042
 13   1.167898 -0.537463 0.063297 -0.218475 -0.973997 0.368808
 14   7.002743 -0.617765 -0.183752 0.000229 0.000421 -2.415017
 15   8.209042 0.615527 -0.255885 1.510770 0.764779 -0.200445
 16   7.002735 -0.617911 -0.183641 0.011991 0.014022 -1.709145
 17   1.574674 0.609930 -0.000899 0.260984 0.017853 0.168350
 18   -0.602177 0.511412 -0.000006 0.000000 0.000000 0.000000
 19   3.673773 0.177020 1.119313 -0.000002 -0.000014 -0.174510
 20   3.673767 0.176993 -1.117566 0.000007 -0.000003 -0.174546
 21   3.942357 1.330634 1.627658 0.000002 -0.000011 -0.000026
 22   -0.246060 -0.011889 0.516521 -0.000011 0.000031 0.000025
 23   3.942374 1.330659 -1.631083 0.000019 0.000002 -0.000024
 24   -0.246150 -0.011872 -0.516511 -0.000005 -0.000006 0.000048
 25   4.941364 1.997338 1.629330 0.000018 -0.000001 -0.000024
 26   4.941382 1.997366 -1.629410 -0.000001 0.000005 -0.000024
 27   2.918368 1.615358 1.514501 -0.000019 -0.000022 -0.000050
 28   2.920798 1.614964 -1.501142 -0.000002 -0.000009 -0.000024
 29   8.824059 0.150544 0.091743 0.000006 -0.000231 -0.174534
 30   2.111085 -0.561179 1.784320 -0.000008 -0.000682 0.000024
 31   2.121290 -0.561289 -1.853599 0.000000 0.000000 -0.000002
 32   -0.810489 -0.093824 3.127092 3.071872 -0.114782 1.239365
 33   14.298673 -0.408176 0.475484 0.000248 0.000062 -1.896136
 34   15.835795 0.581398 0.242756 -0.214729 0.106889 -0.097869
 35   -0.815868 -0.091229 -3.114430 0.066464 3.132725 -1.010185
 36   14.294526 -0.410349 -0.463635 0.000033 -0.000000 -2.607695
 37   15.834409 0.579420 -0.284600 -0.006092 -0.035255 0.214458
 38   1.139685 -3.453749 -2.823813 0.000000 0.000000 0.000001
 39   -4.457742 -1.054854 -0.746180 0.000000 0.000000 0.000000
 40   1.118101 -3.449769 3.237290 0.000000 0.000001 0.000000
 41   -4.433840 -1.059130 0.959566 -0.000001 0.000000 0.000000
 42   -0.657468 1.697302 -2.688614 0.000000 0.000002 0.000000
 43   -0.664068 1.698578 2.869377 0.000000 0.000002 0.000000
time 18
  0   -0.967547 0.175787 -20.574476 0.000000 0.000000 -1.572114
  1   -1.093036 0.000002 -0.326057 -1.570809 -1.570379 -0.000123
  2   2.262337 0.113614 0.064702 -0.000052 0.000061 -0.260847
  3   2.380047 0.353302 0.047440 -0.261678 -0.001922 -0.008489
  4   2.033756 0.190472 -0.000128 -0.000010 0.000024 -0.002816
  5   2.451511 0.204909 -0.003447 0.000000 -0.000005 -0.017472
  6   7.247600 -0.397300 -0.109469 0.000001 0.000033 -0.209345
  7   -2.022252 -0.104661 3.136172 0.760160 -1.212830 -3.660288
  8   1.168026 -0.537438 -0.063437 -0.383119 0.985774 -0.982750
  9   6.790376 -0.619176 0.015206 -0.000213 -0.000352 -2.133165
 10   8.637599 0.544015 -0.090417 -1.068583 -0.402905 -0.134826
 11   6.790465 -0.619039 0.017802 0.005381 -0.011935 -1.508573
 12   -2.022474 -0.104699 -2.873818 -1.049324 1.072663 -3.923924
 13   1.167898 -0.537463 0.063297 -0.222763 -0.976743 0.372501
 14   7.002743 -0.617765 -0.183752 0.000229 0.000421 -2.415017
 15   8.209042 0.615527 -0.255885 1.510770 0.764779 -0.200445
 16   7.002735 -0.617911 -0.183641 0.011991 0.014022 -1.709145
 17   1.574674 0.609930 -0.000899 0.260984 0.017853 0.169569
 18   -0.602177 0.511412 -0.000006 0.000000 0.000000 0.000000
 19   3.673773 0.177020 1.119313 -0.000002 -0.000014 -0.174510
 20   3.673767 0.176993 -1.117566 0.000007 -0.000003 -0.174546
 21   3.942357 1.330634 1.627658 0.000002 -0.000011 -0.000026
 22   -0.246060 -0.011889 0.516521 -0.000011 0.000031 0.000025
 23   3.942374 1.330659 -1.631083 0.000019 0.000002 -0.000024
 24   -0.246150 -0.011872 -0.516511 -0.000005 -0.000006 0.000048
 25   4.941364 1.997338 1.629330 0.000018 -0.000001 -0.000024
 26   4.941382 1.997366 -1.629410 -0.000001 0.000005 -0.000024
 27   2.918368 1.615358 1.514501 -0.000019 -0.000022 -0.000050
 28   2.920798 1.614964 -1.501142 -0.000002 -0.000009 -0.000024
 29   8.824059 0.150544 0.091743 0.000006 -0.000231 -0.174534
 30   2.111085 -0.561179 1.784320 -0.000008 -0.000682 0.000024
 31   2.121290 -0.561289 -1.853599 0.000000 0.000000 -0.000002
 32   -0.810489 -0.093824 3.127092 3.071872 -0.114782 1.239365
 33   14.298673 -0.408176 0.475484 0.000248 0.000062 -1.896136
 34   15.835795 0.581398 0.242756 -0.214729 0.106889 -0.097869
 35   -0.815868 -0.091229 -3.114430 0.066464 3.132725 -1.010185
 36   14.294526 -0.410349 -0.463635 0.000033 -0.000000 -2.607695
 37   15.834409 0.579420 -0.284600 -0.006092 -0.035255 0.214458
 38   1.139685 -3.453749 -2.823813 0.000000 0.000000 0.000001
 39   -4.457742 -1.054854 -0.746180 0.000000 0.000000 0.000000
 40   1.118101 -3.449769 3.237290 0.000000 0.000001 0.000000
 41   -4.433840 -1.059130 0.959566 -0.000001 0.000000 0.000000
 42   -0.657468 1.697302 -2.688614 0.000000 0.000002 0.000000
 43   -0.664068 1.698578 2.869377 0.000000 0.000002 0.000000
time 19
  0   -0.967547 0.175787 -20.574476 0.000000 0.000000 -1.572114
  1   -1.093036 0.000002 -0.326057 -1.570809 -1.570379 -0.000123
  2   2.262337 0.113614 0.064702 -0.000052 0.000061 -0.260847
  3   2.380047 0.353302 0.047440 -0.261678 -0.001922 -0.008489
  4   2.033756 0.190472 -0.000128 -0.000010 0.000024 -0.004592
  5   2.451511 0.204909 -0.003447 0.000000 -0.000005 -0.017472
  6   7.247600 -0.397300 -0.109469 0.000001 0.000033 -0.209345
  7   -2.022252 -0.104661 3.136172 0.766678 -1.215367 -3.667519
  8   1.168026 -0.537438 -0.063437 -0.387422 0.989145 -0.986230
  9   6.790376 -0.619176 0.015206 -0.000213 -0.000352 -2.133165
 10   8.637599 0.544015 -0.090417 -1.068583 -0.402905 -0.134826
 11   6.790465 -0.619039 0.017802 0.005381 -0.011935 -1.508573
 12   -2.022474 -0.104699 -2.873818 -1.054881 1.074753 -3.930531
 13   1.167898 -0.537463 0.063297 -0.227894 -0.980048 0.377404
 14   7.002743 -0.617765 -0.183752 0.000229 0.000421 -2.415017
 15   8.209042 0.615527 -0.255885 1.510770 0.764779 -0.200445
 16   7.002735 -0.617911 -0.183641 0.011991 0.014022 -1.709145
 17   1.574674 0.609930 -0.000899 0.260984 0.017853 0.171454
 18   -0.602177 0.511412 -0.000006 0.000000 0.000000 0.000000
 19   3.673773 0.177020 1.119313 -0.000002 -0.000014 -0.174510
 20   3.673767 0.176993 -1.117566 0.000007 -0.000003 -0.174546
 21   3.942357 1.330634 1.627658 0.000002 -0.000011 -0.000026
 22   -0.246060 -0.011889 0.516521 -0.000011 0.000031 0.000025
 23   3.942374 1.330659 -1.631083 0.000019 0.000002 -0.000024
 24   -0.246150 -0.011872 -0.516511 -0.000005 -0.000006 0.000048
 25   4.941364 1.997338 1.629330 0.000018 -0.000001 -0.000024
 26   4.941382 1.997366 -1.629410 -0.000001 0.000005 -0.000024
 27   2.918368 1.615358 1.514501 -0.000019 -0.000022 -0.000050
 28   2.920798 1.614964 -1.501142 -0.000002 -0.000009 -0.000024
 29   8.824059 0.150544 0.091743 0.000006 -0.000231 -0.174534
 30   2.111085 -0.561179 1.784320 -0.000008 -0.000682 0.000024
 31   2.121290 -0.561289 -1.853599 0.000000 0.000000 -0.000002
 32   -0.810489 -0.093824 3.127092 3.071872 -0.114782 1.239365
 33   14.298673 -0.408176 0.475484 0.000248 0.000062 -1.896136
 34   15.835795 0.581398 0.242756 -0.214729 0.106889 -0.097869
 35   -0.815868 -0.091229 -3.114430 0.066464 3.132725 -1.010185
 36   14.294526 -0.410349 -0.463635 0.000033 -0.000000 -2.607695
 37   15.834409 0.579420 -0.284600 -0.006092 -0.035255 0.214458
 38   1.139685 -3.453749 -2.823813 0.000000 0.000000 0.000001
 39   -4.457742 -1.054854 -0.746180 0.000000 0.000000 0.000000
 40   1.118101 -3.449769 3.237290 0.000000 0.000001 0.000000
 41   -4.433840 -1.059130 0.959566 -0.000001 0.000000 0.000000
 42   -0.657468 1.697302 -2.688614 0.000000 0.000002 0.000000
 43   -0.664068 1.698578 2.869377 0.000000 0.000002 0.000000
time 20
  0   -0.967547 0.175787 -20.574476 0.000000 0.000000 -1.572114
  1   -1.093036 0.000002 -0.326057 -1.570809 -1.570379 -0.000123
  2   2.262337 0.113614 0.064702 -0.000052 0.000061 -0.260847
  3   2.380047 0.353302 0.047440 -0.261678 -0.001922 -0.008489
  4   2.033756 0.190472 -0.000128 -0.000010 0.000024 -0.006767
  5   2.451511 0.204909 -0.003447 0.000000 -0.000005 -0.017472
  6   7.247600 -0.397300 -0.109469 0.000001 0.000033 -0.209345
  7   -2.022252 -0.104661 3.136172 0.774826 -1.218393 -3.676159
  8   1.168026 -0.537438 -0.063437 -0.392611 0.993623 -0.989899
  9   6.790376 -0.619176 0.015206 -0.000213 -0.000352 -2.133165
 10   8.637599 0.544015 -0.090417 -1.068583 -0.402905 -0.134826
 11   6.790465 -0.619039 0.017802 0.005381 -0.011935 -1.508573
 12   -2.022474 -0.104699 -2.873818 -1.061779 1.076639 -3.938477
 13   1.167898 -0.537463 0.063297 -0.234502 -0.984015 0.383639
 14   7.002743 -0.617765 -0.183752 0.000229 0.000421 -2.415017
 15   8.209042 0.615527 -0.255885 1.510770 0.764779 -0.200445
 16   7.002735 -0.617911 -0.183641 0.011991 0.014022 -1.709145
 17   1.574674 0.609930 -0.000899 0.260984 0.017853 0.173635
 18   -0.602177 0.511412 -0.000006 0.000000 0.000000 0.000000
 19   3.673773 0.177020 1.119313 -0.000002 -0.000014 -0.174510
 20   3.673767 0.176993 -1.117566 0.000007 -0.000003 -0.174546
 21   3.942357 1.330634 1.627658 0.000002 -0.000011 -0.000026
 22   -0.246060 -0.011889 0.516521 -0.000011 0.000031 0.000025
 23   3.942374 1.330659 -1.631083 0.000019 0.000002 -0.000024
 24   -0.246150 -0.011872 -0.516511 -0.000005 -0.000006 0.000048
 25   4.941364 1.997338 1.629330 0.000018 -0.000001 -0.000024
 26   4.941382 1.997366 -1.629410 -0.000001 0.000005 -0.000024
 27   2.918368 1.615358 1.514501 -0.000019 -0.000022 -0.000050
 28   2.920798 1.614964 -1.501142 -0.000002 -0.000009 -0.000024
 29   8.824059 0.150544 0.091743 0.000006 -0.000231 -0.174534
 30   2.111085 -0.561179 1.784320 -0.000008 -0.000682 0.000024
 31   2.121290 -0.561289 -1.853599 0.000000 0.000000 -0.000002
 32   -0.810489 -0.093824 3.127092 3.071872 -0.114782 1.239365
 33   14.298673 -0.408176 0.475484 0.000248 0.000062 -1.896136
 34   15.835795 0.581398 0.242756 -0.214729 0.106889 -0.097869
 35   -0.815868 -0.091229 -3.114430 0.066464 3.132725 -1.010185
 36   14.294526 -0.410349 -0.463635 0.000033 -0.000000 -2.607695
 37   15.834409 0.579420 -0.284600 -0.006092 -0.035255 0.214458
 38   1.139685 -3.453749 -2.823813 0.000000 0.000000 0.000001
 39   -4.457742 -1.054854 -0.746180 0.000000 0.000000 0.000000
 40   1.118101 -3.449769 3.237290 0.000000 0.000001 0.000000
 41   -4.433840 -1.059130 0.959566 -0.000001 0.000000 0.000000
 42   -0.657468 1.697302 -2.688614 0.000000 0.000002 0.000000
 43   -0.664068 1.698578 2.869377 0.000000 0.000002 0.000000
time 21
  0   -0.967547 0.175787 -20.574476 0.000000 0.000000 -1.572114
  1   -1.093036 0.000002 -0.326057 -1.570809 -1.570379 -0.000123
  2   2.262337 0.113614 0.064702 -0.000052 0.000061 -0.260847
  3   2.380047 0.353302 0.047440 -0.261678 -0.001922 -0.008489
  4   2.033756 0.190472 -0.000128 -0.000010 0.000024 -0.009268
  5   2.451511 0.204909 -0.003447 0.000000 -0.000005 -0.017472
  6   7.247600 -0.397300 -0.109469 0.000001 0.000033 -0.209345
  7   -2.022252 -0.104661 3.136172 0.784604 -1.222054 -3.686208
  8   1.168026 -0.537438 -0.063437 -0.399002 0.998755 -0.994643
  9   6.790376 -0.619176 0.015206 -0.000213 -0.000151 -2.133165
 10   8.637599 0.544015 -0.090417 -1.068583 -0.402905 -0.134826
 11   6.790465 -0.619039 0.017802 0.005381 -0.011935 -1.508573
 12   -2.022474 -0.104699 -2.873818 -1.069827 1.079077 -3.947477
 13   1.167898 -0.537463 0.063297 -0.242304 -0.988948 0.390419
 14   7.002743 -0.617765 -0.183752 0.000229 0.000421 -2.415017
 15   8.209042 0.615527 -0.255885 1.510770 0.764779 -0.200445
 16   7.002735 -0.617911 -0.183641 0.011991 0.014022 -1.709145
 17   1.574674 0.609930 -0.000899 0.260984 0.017853 0.176148
 18   -0.602177 0.511412 -0.000006 0.000000 0.000000 0.000000
 19   3.673773 0.177020 1.119313 -0.000002 -0.000014 -0.174510
 20   3.673767 0.176993 -1.117566 0.000007 -0.000003 -0.174546
 21   3.942357 1.330634 1.627658 0.000002 -0.000011 -0.000026
 22   -0.246060 -0.011889 0.516521 -0.000011 0.000031 0.000025
 23   3.942374 1.330659 -1.631083 0.000019 0.000002 -0.000024
 24   -0.246150 -0.011872 -0.516511 -0.000005 -0.000006 0.000048
 25   4.941364 1.997338 1.629330 0.000018 -0.000001 -0.000024
 26   4.941382 1.997366 -1.629410 -0.000001 0.000005 -0.000024
 27   2.918368 1.615358 1.514501 -0.000019 -0.000022 -0.000050
 28   2.920798 1.614964 -1.501142 -0.000002 -0.000009 -0.000024
 29   8.824059 0.150544 0.091743 0.000006 -0.000231 -0.174534
 30   2.111085 -0.561179 1.784320 -0.000008 -0.000682 0.000024
 31   2.121290 -0.561289 -1.853599 0.000000 0.000000 -0.000002
 32   -0.810489 -0.093824 3.127092 3.071872 -0.114782 1.239365
 33   14.298673 -0.408176 0.475484 0.000248 0.000062 -1.896136
 34   15.835795 0.581398 0.242756 -0.214729 0.106889 -0.097869
 35   -0.815868 -0.091229 -3.114430 0.066464 3.132725 -1.010185
 36   14.294526 -0.410349 -0.463635 0.000033 -0.000000 -2.607695
 37   15.834409 0.579420 -0.284600 -0.006092 -0.035255 0.214458
 38   1.139685 -3.453749 -2.823813 0.000000 0.000000 0.000001
 39   -4.457742 -1.054854 -0.746180 0.000000 0.000000 0.000000
 40   1.118101 -3.449769 3.237290 0.000000 0.000001 0.000000
 41   -4.433840 -1.059130 0.959566 -0.000001 0.000000 0.000000
 42   -0.657468 1.697302 -2.688614 0.000000 0.000002 0.000000
 43   -0.664068 1.698578 2.869377 0.000000 0.000002 0.000000
time 22
  0   -0.967547 0.175787 -20.574476 0.000000 0.000000 -1.572114
  1   -1.093036 0.000002 -0.326057 -1.570809 -1.570379 -0.000123
  2   2.262337 0.113614 0.064702 -0.000052 0.000061 -0.260847
  3   2.380047 0.353302 0.047440 -0.261678 -0.001922 -0.008489
  4   2.033756 0.190472 -0.000128 -0.000010 0.000024 -0.011914
  5   2.451511 0.204909 -0.003447 0.000000 -0.000005 -0.017472
  6   7.247600 -0.397300 -0.109469 0.000001 0.000033 -0.209345
  7   -2.022252 -0.104661 3.136172 0.795148 -1.225802 -3.697572
  8   1.168026 -0.537438 -0.063437 -0.405900 1.003887 -0.999831
  9   6.790376 -0.619176 0.015206 -0.000213 -0.000352 -2.133165
 10   8.637599 0.544015 -0.090417 -1.068583 -0.402905 -0.134826
 11   6.790465 -0.619039 0.017802 0.005381 -0.011935 -1.508573
 12   -2.022474 -0.104699 -2.873818 -1.078833 1.081835 -3.957530
 13   1.167898 -0.537463 0.063297 -0.250951 -0.994084 0.398349
 14   7.002743 -0.617765 -0.183752 0.000229 0.000421 -2.415017
 15   8.209042 0.615527 -0.255885 1.510770 0.764779 -0.200445
 16   7.002735 -0.617911 -0.183641 0.011991 0.014022 -1.709145
 17   1.574674 0.609930 -0.000899 0.260984 0.017853 0.178736
 18   -0.602177 0.511412 -0.000006 0.000000 0.000000 0.000000
 19   3.673773 0.177020 1.119313 -0.000002 -0.000014 -0.174510
 20   3.673767 0.176993 -1.117566 0.000007 -0.000003 -0.174546
 21   3.942357 1.330634 1.627658 0.000002 -0.000011 -0.000026
 22   -0.246060 -0.011889 0.516521 -0.000011 0.000031 0.000025
 23   3.942374 1.330659 -1.631083 0.000019 0.000002 -0.000024
 24   -0.246150 -0.011872 -0.516511 -0.000005 -0.000006 0.000048
 25   4.941364 1.997338 1.629330 0.000018 -0.000001 -0.000024
 26   4.941382 1.997366 -1.629410 -0.000001 0.000005 -0.000024
 27   2.918368 1.615358 1.514501 -0.000019 -0.000022 -0.000050
 28   2.920798 1.614964 -1.501142 -0.000002 -0.000009 -0.000024
 29   8.824059 0.150544 0.091743 0.000006 -0.000231 -0.174534
 30   2.111085 -0.561179 1.784320 -0.000008 -0.000682 0.000024
 31   2.121290 -0.561289 -1.853599 0.000000 0.000000 -0.000002
 32   -0.810489 -0.093824 3.127092 3.071872 -0.114782 1.239365
 33   14.298673 -0.408176 0.475484 0.000248 0.000062 -1.896136
 34   15.835795 0.581398 0.242756 -0.214729 0.106889 -0.097869
 35   -0.815868 -0.091229 -3.114430 0.066464 3.132725 -1.010185
 36   14.294526 -0.410349 -0.463635 0.000033 -0.000000 -2.607695
 37   15.834409 0.579420 -0.284600 -0.006092 -0.035255 0.214458
 38   1.139685 -3.453749 -2.823813 0.000000 0.000000 0.000001
 39   -4.457742 -1.054854 -0.746180 0.000000 0.000000 0.000000
 40   1.118101 -3.449769 3.237290 0.000000 0.000001 0.000000
 41   -4.433840 -1.059130 0.959566 -0.000001 0.000000 0.000000
 42   -0.657468 1.697302 -2.688614 0.000000 0.000002 0.000000
 43   -0.664068 1.698578 2.869377 0.000000 0.000002 0.000000
time 23
  0   -0.967547 0.175787 -20.574476 0.000000 0.000000 -1.572114
  1   -1.093036 0.000002 -0.326057 -1.570809 -1.570379 -0.000123
  2   2.262337 0.113614 0.064702 -0.000052 0.000061 -0.260847
  3   2.380047 0.353302 0.047440 -0.261678 -0.001922 -0.008489
  4   2.033756 0.190472 -0.000128 -0.000010 0.000024 -0.014850
  5   2.451511 0.204909 -0.003447 0.000000 -0.000005 -0.017472
  6   7.247600 -0.397300 -0.109469 0.000001 0.000033 -0.209345
  7   -2.022252 -0.104661 3.136172 0.806843 -1.229838 -3.710156
  8   1.168026 -0.537438 -0.063437 -0.413430 1.009824 -1.005651
  9   6.790376 -0.619176 0.015206 -0.000213 -0.000352 -2.133165
 10   8.637599 0.544015 -0.090417 -1.068583 -0.402905 -0.134826
 11   6.790465 -0.619039 0.017802 0.005381 -0.011935 -1.508573
 12   -2.022474 -0.104699 -2.873818 -1.088701 1.084302 -3.968635
 13   1.167898 -0.537463 0.063297 -0.260370 -0.999474 0.406824
 14   7.002743 -0.617765 -0.183752 0.000229 0.000421 -2.415017
 15   8.209042 0.615527 -0.255885 1.510770 0.764779 -0.200445
 16   7.002735 -0.617911 -0.183641 0.011991 0.014022 -1.709145
 17   1.574674 0.609930 -0.000899 0.260984 0.017853 0.181766
 18   -0.602177 0.511412 -0.000006 0.000000 0.000000 0.000000
 19   3.673773 0.177020 1.119313 -0.000002 -0.000014 -0.174510
 20   3.673767 0.176993 -1.117566 0.000007 -0.000003 -0.174546
 21   3.942357 1.330634 1.627658 0.000002 -0.000011 -0.000026
 22   -0.246060 -0.011889 0.516521 -0.000011 0.000031 0.000025
 23   3.942374 1.330659 -1.631083 0.000019 0.000002 -0.000024
 24   -0.246150 -0.011872 -0.516511 -0.000005 -0.000006 0.000048
 25   4.941364 1.997338 1.629330 0.000018 -0.000001 -0.000024
 26   4.941382 1.997366 -1.629410 -0.000001 0.000005 -0.000024
 27   2.918368 1.615358 1.514501 -0.000019 -0.000022 -0.000050
 28   2.920798 1.614964 -1.501142 -0.000002 -0.000009 -0.000024
 29   8.824059 0.150544 0.091743 0.000006 -0.000231 -0.174534
 30   2.111085 -0.561179 1.784320 -0.000008 -0.000682 0.000024
 31   2.121290 -0.561289 -1.853599 0.000000 0.000000 -0.000002
 32   -0.810489 -0.093824 3.127092 3.071872 -0.114782 1.239365
 33   14.298673 -0.408176 0.475484 0.000248 0.000062 -1.896136
 34   15.835795 0.581398 0.242756 -0.214729 0.106889 -0.097869
 35   -0.815868 -0.091229 -3.114430 0.066464 3.132725 -1.010185
 36   14.294526 -0.410349 -0.463635 0.000033 -0.000000 -2.607695
 37   15.834409 0.579420 -0.284600 -0.006092 -0.035255 0.214458
 38   1.139685 -3.453749 -2.823813 0.000000 0.000000 0.000001
 39   -4.457742 -1.054854 -0.746180 0.000000 0.000000 0.000000
 40   1.118101 -3.449769 3.237290 0.000000 0.000001 0.000000
 41   -4.433840 -1.059130 0.959566 -0.000001 0.000000 0.000000
 42   -0.657468 1.697302 -2.688614 0.000000 0.000002 0.000000
 43   -0.664068 1.698578 2.869377 0.000000 0.000002 0.000000
time 24
  0   -0.967547 0.175787 -20.574476 0.000000 0.000000 -1.572114
  1   -1.093036 0.000002 -0.326057 -1.570809 -1.570379 -0.000123
  2   2.262337 0.113614 0.064702 -0.000052 0.000061 -0.260847
  3   2.380047 0.353302 0.047440 -0.261678 -0.001922 -0.008489
  4   2.033756 0.190472 -0.000128 -0.000010 0.000024 -0.017786
  5   2.451511 0.204909 -0.003447 0.000000 -0.000005 -0.017472
  6   7.247600 -0.397300 -0.109469 0.000001 0.000033 -0.209345
  7   -2.022252 -0.104661 3.136172 0.819304 -1.234046 -3.723304
  8   1.168026 -0.537438 -0.063437 -0.421467 1.015912 -1.011534
  9   6.790376 -0.619176 0.015206 -0.000213 -0.000352 -2.133165
 10   8.637599 0.544015 -0.090417 -1.068583 -0.402905 -0.134826
 11   6.790465 -0.619039 0.017802 0.005381 -0.011935 -1.508573
 12   -2.022474 -0.104699 -2.873818 -1.098665 1.087059 -3.980124
 13   1.167898 -0.537463 0.063297 -0.270492 -1.005068 0.415965
 14   7.002743 -0.617765 -0.183752 0.000229 0.000421 -2.415017
 15   8.209042 0.615527 -0.255885 1.510770 0.764779 -0.200445
 16   7.002735 -0.617911 -0.183641 0.011991 0.014022 -1.709145
 17   1.574674 0.609930 -0.000899 0.260984 0.017853 0.184612
 18   -0.602177 0.511412 -0.000006 0.000000 0.000000 0.000000
 19   3.673773 0.177020 1.119313 -0.000002 -0.000014 -0.174510
 20   3.673767 0.176993 -1.117566 0.000007 -0.000003 -0.174546
 21   3.942357 1.330634 1.627658 0.000002 -0.000011 -0.000026
 22   -0.246060 -0.011889 0.516521 -0.000011 0.000031 0.000025
 23   3.942374 1.330659 -1.631083 0.000019 0.000002 -0.000024
 24   -0.246150 -0.011872 -0.516511 -0.000005 -0.000006 0.000048
 25   4.941364 1.997338 1.629330 0.000018 -0.000001 -0.000024
 26   4.941382 1.997366 -1.629410 -0.000001 0.000005 -0.000024
 27   2.918368 1.615358 1.514501 -0.000019 -0.000022 -0.000050
 28   2.920798 1.614964 -1.501142 -0.000002 -0.000009 -0.000024
 29   8.824059 0.150544 0.091743 0.000006 -0.000231 -0.174534
 30   2.111085 -0.561179 1.784320 -0.000008 -0.000682 0.000024
 31   2.121290 -0.561289 -1.853599 0.000000 0.000000 -0.000002
 32   -0.810489 -0.093824 3.127092 3.071872 -0.114782 1.239365
 33   14.298673 -0.408176 0.475484 0.000248 0.000062 -1.896136
 34   15.835795 0.581398 0.242756 -0.214729 0.106889 -0.097869
 35   -0.815868 -0.091229 -3.114430 0.066464 3.132725 -1.010185
 36   14.294526 -0.410349 -0.463635 0.000033 -0.000000 -2.607695
 37   15.834409 0.579420 -0.284600 -0.006092 -0.035255 0.214458
 38   1.139685 -3.453749 -2.823813 0.000000 0.000000 0.000001
 39   -4.457742 -1.054854 -0.746180 0.000000 0.000000 0.000000
 40   1.118101 -3.449769 3.237290 0.000000 0.000001 0.000000
 41   -4.433840 -1.059130 0.959566 -0.000001 0.000000 0.000000
 42   -0.657468 1.697302 -2.688614 0.000000 0.000002 0.000000
 43   -0.664068 1.698578 2.869377 0.000000 0.000002 0.000000
time 25
  0   -0.967547 0.175787 -20.574476 0.000000 0.000000 -1.572114
  1   -1.093036 0.000002 -0.326057 -1.570809 -1.570379 -0.000123
  2   2.262337 0.113614 0.064702 -0.000052 0.000061 -0.260847
  3   2.380047 0.353302 0.047440 -0.261678 -0.001922 -0.008489
  4   2.033756 0.190472 -0.000128 -0.000010 0.000024 -0.020867
  5   2.451511 0.204909 -0.003447 0.000000 -0.000005 -0.017472
  6   7.247600 -0.397300 -0.109469 0.000001 0.000033 -0.209345
  7   -2.022252 -0.104661 3.136172 0.832245 -1.238140 -3.737015
  8   1.168026 -0.537438 -0.063437 -0.429820 1.021950 -1.017986
  9   6.790376 -0.619176 0.015206 -0.000213 -0.000352 -2.133165
 10   8.637599 0.544015 -0.090417 -1.068583 -0.402905 -0.134826
 11   6.790465 -0.619039 0.017802 0.005381 -0.011935 -1.508573
 12   -2.022474 -0.104699 -2.873818 -1.109395 1.090019 -3.992284
 13   1.167898 -0.537463 0.063297 -0.280685 -1.010814 0.425408
 14   7.002743 -0.617765 -0.183752 0.000229 0.000421 -2.415017
 15   8.209042 0.615527 -0.255885 1.510770 0.764779 -0.200445
 16   7.002735 -0.617911 -0.183641 0.011991 0.014022 -1.709145
 17   1.574674 0.609930 -0.000899 0.260984 0.017853 0.187902
 18   -0.602177 0.511412 -0.000006 0.000000 0.000000 0.000000
 19   3.673773 0.177020 1.119313 -0.000002 -0.000014 -0.174510
 20   3.673767 0.176993 -1.117566 0.000007 -0.000003 -0.174546
 21   3.942357 1.330634 1.627658 0.000002 -0.000011 -0.000026
 22   -0.246060 -0.011889 0.516521 -0.000011 0.000031 0.000025
 23   3.942374 1.330659 -1.631083 0.000019 0.000002 -0.000024
 24   -0.246150 -0.011872 -0.516511 -0.000005 -0.000006 0.000048
 25   4.941364 1.997338 1.629330 0.000018 -0.000001 -0.000024
 26   4.941382 1.997366 -1.629410 -0.000001 0.000005 -0.000024
 27   2.918368 1.615358 1.514501 -0.000019 -0.000022 -0.000050
 28   2.920798 1.614964 -1.501142 -0.000002 -0.000009 -0.000024
 29   8.824059 0.150544 0.091743 0.000006 -0.000231 -0.174534
 30   2.111085 -0.561179 1.784320 -0.000008 -0.000682 0.000024
 31   2.121290 -0.561289 -1.853599 0.000000 0.000000 -0.000002
 32   -0.810489 -0.093824 3.127092 3.071872 -0.114782 1.239365
 33   14.298673 -0.408176 0.475484 0.000248 0.000062 -1.896136
 34   15.835795 0.581398 0.242756 -0.214729 0.106889 -0.097869
 35   -0.815868 -0.091229 -3.114430 0.066464 3.132725 -1.010185
 36   14.294526 -0.410349 -0.463635 0.000033 -0.000000 -2.607695
 37   15.834409 0.579420 -0.284600 -0.006092 -0.035255 0.214458
 38   1.139685 -3.453749 -2.823813 0.000000 0.000000 0.000001
 39   -4.457742 -1.054854 -0.746180 0.000000 0.000000 0.000000
 40   1.118101 -3.449769 3.237290 0.000000 0.000001 0.000000
 41   -4.433840 -1.059130 0.959566 -0.000001 0.000000 0.000000
 42   -0.657468 1.697302 -2.688614 0.000000 0.000002 0.000000
 43   -0.664068 1.698578 2.869377 0.000000 0.000002 0.000000
time 26
  0   -0.967547 0.175787 -20.574476 0.000000 0.000000 -1.572114
  1   -1.093036 0.000002 -0.326057 -1.570809 -1.570379 -0.000123
  2   2.262337 0.113614 0.064702 -0.000052 0.000061 -0.260847
  3   2.380047 0.353302 0.047440 -0.261678 -0.001922 -0.008489
  4   2.033756 0.190472 -0.000128 -0.000010 0.000024 -0.024093
  5   2.451511 0.204909 -0.003447 0.000000 -0.000005 -0.017472
  6   7.247600 -0.397300 -0.109469 0.000001 0.000033 -0.209345
  7   -2.022252 -0.104661 3.136172 0.845570 -1.242262 -3.751290
  8   1.168026 -0.537438 -0.063437 -0.438046 1.028189 -1.024629
  9   6.790376 -0.619176 0.015206 -0.000213 -0.000352 -2.133165
 10   8.637599 0.544015 -0.090417 -1.068583 -0.402905 -0.134826
 11   6.790465 -0.619039 0.017802 0.005381 -0.011935 -1.508573
 12   -2.022474 -0.104699 -2.873818 -1.119934 1.092748 -4.004251
 13   1.167898 -0.537463 0.063297 -0.291299 -1.016459 0.434912
 14   7.002743 -0.617765 -0.183752 0.000229 0.000421 -2.415017
 15   8.209042 0.615527 -0.255885 1.510770 0.764779 -0.200445
 16   7.002735 -0.617911 -0.183641 0.011991 0.014022 -1.709145
 17   1.574674 0.609930 -0.000899 0.260984 0.017853 0.190896
 18   -0.602177 0.511412 -0.000006 0.000000 0.000000 0.000000
 19   3.673773 0.177020 1.119313 -0.000002 -0.000014 -0.174510
 20   3.673767 0.176993 -1.117566 0.000007 -0.000003 -0.174546
 21   3.942357 1.330634 1.627658 0.000002 -0.000011 -0.000026
 22   -0.246060 -0.011889 0.516521 -0.000011 0.000031 0.000025
 23   3.942374 1.330659 -1.631083 0.000019 0.000002 -0.000024
 24   -0.246150 -0.011872 -0.516511 -0.000005 -0.000006 0.000048
 25   4.941364 1.997338 1.629330 0.000018 -0.000001 -0.000024
 26   4.941382 1.997366 -1.629410 -0.000001 0.000005 -0.000024
 27   2.918368 1.615358 1.514501 -0.000019 -0.000022 -0.000050
 28   2.920798 1.614964 -1.501142 -0.000002 -0.000009 -0.000024
 29   8.824059 0.150544 0.091743 0.000006 -0.000231 -0.174534
 30   2.111085 -0.561179 1.784320 -0.000008 -0.000682 0.000024
 31   2.121290 -0.561289 -1.853599 0.000000 0.000000 -0.000002
 32   -0.810489 -0.093824 3.127092 3.071872 -0.114782 1.239365
 33   14.298673 -0.408176 0.475484 0.000248 0.000062 -1.896136
 34   15.835795 0.581398 0.242756 -0.214729 0.106889 -0.097869
 35   -0.815868 -0.091229 -3.114430 0.066464 3.132725 -1.010185
 36   14.294526 -0.410349 -0.463635 0.000033 -0.000000 -2.607695
 37   15.834409 0.579420 -0.284600 -0.006092 -0.035255 0.214458
 38   1.139685 -3.453749 -2.823813 0.000000 0.000000 0.000001
 39   -4.457742 -1.054854 -0.746180 0.000000 0.000000 0.000000
 40   1.118101 -3.449769 3.237290 0.000000 0.000001 0.000000
 41   -4.433840 -1.059130 0.959566 -0.000001 0.000000 0.000000
 42   -0.657468 1.697302 -2.688614 0.000000 0.000002 0.000000
 43   -0.664068 1.698578 2.869377 0.000000 0.000002 0.000000
time 27
  0   -0.967547 0.175787 -20.574476 0.000000 0.000000 -1.572114
  1   -1.093036 0.000002 -0.326057 -1.570809 -1.570379 -0.000123
  2   2.262337 0.113614 0.064702 -0.000052 0.000061 -0.260847
  3   2.380047 0.353302 0.047440 -0.261678 -0.001922 -0.008489
  4   2.033756 0.190472 -0.000128 -0.000010 0.000024 -0.027174
  5   2.451511 0.204909 -0.003447 0.000000 -0.000005 -0.017472
  6   7.247600 -0.397300 -0.109469 0.000001 0.000033 -0.209345
  7   -2.022252 -0.104661 3.136172 0.859469 -1.246182 -3.765377
  8   1.168026 -0.537438 -0.063437 -0.446399 1.034277 -1.031208
  9   6.790376 -0.619176 0.015206 -0.000213 -0.000352 -2.133165
 10   8.637599 0.544015 -0.090417 -1.068583 -0.402905 -0.134826
 11   6.790465 -0.619039 0.017802 0.005381 -0.011935 -1.508573
 12   -2.022474 -0.104699 -2.873818 -1.130377 1.095244 -4.016219
 13   1.167898 -0.537463 0.063297 -0.301914 -1.022053 0.444658
 14   7.002743 -0.617765 -0.183752 0.000229 0.000421 -2.415017
 15   8.209042 0.615527 -0.255885 1.510770 0.764779 -0.200445
 16   7.002735 -0.617911 -0.183641 0.011991 0.014022 -1.709145
 17   1.574674 0.609930 -0.000899 0.260984 0.017853 0.194001
 18   -0.602177 0.511412 -0.000006 0.000000 0.000000 0.000000
 19   3.673773 0.177020 1.119313 -0.000002 -0.000014 -0.174510
 20   3.673767 0.176993 -1.117566 0.000007 -0.000003 -0.174546
 21   3.942357 1.330634 1.627658 0.000002 -0.000011 -0.000026
 22   -0.246060 -0.011889 0.516521 -0.000011 0.000031 0.000025
 23   3.942374 1.330659 -1.631083 0.000019 0.000002 -0.000024
 24   -0.246150 -0.011872 -0.516511 -0.000005 -0.000006 0.000048
 25   4.941364 1.997338 1.629330 0.000018 -0.000001 -0.000024
 26   4.941382 1.997366 -1.629410 -0.000001 0.000005 -0.000024
 27   2.918368 1.615358 1.514501 -0.000019 -0.000022 -0.000050
 28   2.920798 1.614964 -1.501142 -0.000002 -0.000009 -0.000024
 29   8.824059 0.150544 0.091743 0.000006 -0.000231 -0.174534
 30   2.111085 -0.561179 1.784320 -0.000008 -0.000682 0.000024
 31   2.121290 -0.561289 -1.853599 0.000000 0.000000 -0.000002
 32   -0.810489 -0.093824 3.127092 3.071872 -0.114782 1.239365
 33   14.298673 -0.408176 0.475484 0.000248 0.000062 -1.896136
 34   15.835795 0.581398 0.242756 -0.214729 0.106889 -0.097869
 35   -0.815868 -0.091229 -3.114430 0.066464 3.132725 -1.010185
 36   14.294526 -0.410349 -0.463635 0.000033 -0.000000 -2.607695
 37   15.834409 0.579420 -0.284600 -0.006092 -0.035255 0.214458
 38   1.139685 -3.453749 -2.823813 0.000000 0.000000 0.000001
 39   -4.457742 -1.054854 -0.746180 0.000000 0.000000 0.000000
 40   1.118101 -3.449769 3.237290 0.000000 0.000001 0.000000
 41   -4.433840 -1.059130 0.959566 -0.000001 0.000000 0.000000
 42   -0.657468 1.697302 -2.688614 0.000000 0.000002 0.000000
 43   -0.664068 1.698578 2.869377 0.000000 0.000002 0.000000
time 28
  0   -0.967547 0.175787 -20.574476 0.000000 0.000000 -1.572114
  1   -1.093036 0.000002 -0.326057 -1.570809 -1.570379 -0.000123
  2   2.262337 0.113614 0.064702 -0.000052 0.000061 -0.260847
  3   2.380047 0.353302 0.047440 -0.261678 -0.001922 -0.008489
  4   2.033756 0.190472 -0.000128 -0.000010 0.000024 -0.029965
  5   2.451511 0.204909 -0.003447 0.000000 -0.000005 -0.017472
  6   7.247600 -0.397300 -0.109469 0.000001 0.000033 -0.209345
  7   -2.022252 -0.104661 3.136172 0.872410 -1.250045 -3.779088
  8   1.168026 -0.537438 -0.063437 -0.454942 1.039711 -1.037724
  9   6.790376 -0.619176 0.015206 -0.000213 -0.000352 -2.133165
 10   8.637599 0.544015 -0.090417 -1.068583 -0.402905 -0.134826
 11   6.790465 -0.619039 0.017802 0.005381 -0.011935 -1.508573
 12   -2.022474 -0.104699 -2.873818 -1.140820 1.097653 -4.027325
 13   1.167898 -0.537463 0.063297 -0.312528 -1.027037 0.453920
 14   7.002743 -0.617765 -0.183752 0.000229 0.000421 -2.415017
 15   8.209042 0.615527 -0.255885 1.510770 0.764779 -0.200445
 16   7.002735 -0.617911 -0.183641 0.011991 0.014022 -1.709145
 17   1.574674 0.609930 -0.000899 0.260984 0.017853 0.196957
 18   -0.602177 0.511412 -0.000006 0.000000 0.000000 0.000000
 19   3.673773 0.177020 1.119313 -0.000002 -0.000014 -0.174510
 20   3.673767 0.176993 -1.117566 0.000007 -0.000003 -0.174546
 21   3.942357 1.330634 1.627658 0.000002 -0.000011 -0.000026
 22   -0.246060 -0.011889 0.516521 -0.000011 0.000031 0.000025
 23   3.942374 1.330659 -1.631083 0.000019 0.000002 -0.000024
 24   -0.246150 -0.011872 -0.516511 -0.000005 -0.000006 0.000048
 25   4.941364 1.997338 1.629330 0.000018 -0.000001 -0.000024
 26   4.941382 1.997366 -1.629410 -0.000001 0.000005 -0.000024
 27   2.918368 1.615358 1.514501 -0.000019 -0.000022 -0.000050
 28   2.920798 1.614964 -1.501142 -0.000002 -0.000009 -0.000024
 29   8.824059 0.150544 0.091743 0.000006 -0.000231 -0.174534
 30   2.111085 -0.561179 1.784320 -0.000008 -0.000682 0.000024
 31   2.121290 -0.561289 -1.853599 0.000000 0.000000 -0.000002
 32   -0.810489 -0.093824 3.127092 3.071872 -0.114782 1.239365
 33   14.298673 -0.408176 0.475484 0.000248 0.000062 -1.896136
 34   15.835795 0.581398 0.242756 -0.214729 0.106889 -0.097869
 35   -0.815868 -0.091229 -3.114430 0.066464 3.132725 -1.010185
 36   14.294526 -0.410349 -0.463635 0.000033 -0.000000 -2.607695
 37   15.834409 0.579420 -0.284600 -0.006092 -0.035255 0.214458
 38   1.139685 -3.453749 -2.823813 0.000000 0.000000 0.000001
 39   -4.457742 -1.054854 -0.746180 0.000000 0.000000 0.000000
 40   1.118101 -3.449769 3.237290 0.000000 0.000001 0.000000
 41   -4.433840 -1.059130 0.959566 -0.000001 0.000000 0.000000
 42   -0.657468 1.697302 -2.688614 0.000000 0.000002 0.000000
 43   -0.664068 1.698578 2.869377 0.000000 0.000002 0.000000
time 29
  0   -0.967547 0.175787 -20.574476 0.000000 0.000000 -1.572114
  1   -1.093036 0.000002 -0.326057 -1.570809 -1.570379 -0.000123
  2   2.262337 0.113614 0.064702 -0.000052 0.000061 -0.260847
  3   2.380047 0.353302 0.047440 -0.261678 -0.001922 -0.008489
  4   2.033756 0.190472 -0.000128 -0.000010 0.000024 -0.032611
  5   2.451511 0.204909 -0.003447 0.000000 -0.000005 -0.017472
  6   7.247600 -0.397300 -0.109469 0.000001 0.000033 -0.209345
  7   -2.022252 -0.104661 3.136172 0.885159 -1.253533 -3.792143
  8   1.168026 -0.537438 -0.063437 -0.462662 1.044994 -1.043860
  9   6.790376 -0.619176 0.015206 -0.000213 -0.000352 -2.133165
 10   8.637599 0.544015 -0.090417 -1.068583 -0.402905 -0.134826
 11   6.790465 -0.619039 0.017802 0.005381 -0.011935 -1.508573
 12   -2.022474 -0.104699 -2.873818 -1.150592 1.100120 -4.038431
 13   1.167898 -0.537463 0.063297 -0.322159 -1.031969 0.463061
 14   7.002743 -0.617765 -0.183752 0.000229 0.000421 -2.415017
 15   8.209042 0.615527 -0.255885 1.510770 0.764779 -0.200445
 16   7.002735 -0.617911 -0.183641 0.011991 0.014022 -1.709145
 17   1.574674 0.609930 -0.000899 0.260984 0.017853 0.199693
 18   -0.602177 0.511412 -0.000006 0.000000 0.000000 0.000000
 19   3.673773 0.177020 1.119313 -0.000002 -0.000014 -0.174510
 20   3.673767 0.176993 -1.117566 0.000007 -0.000003 -0.174546
 21   3.942357 1.330634 1.627658 0.000002 -0.000011 -0.000026
 22   -0.246060 -0.011889 0.516521 -0.000011 0.000031 0.000025
 23   3.942374 1.330659 -1.631083 0.000019 0.000002 -0.000024
 24   -0.246150 -0.011872 -0.516511 -0.000005 -0.000006 0.000048
 25   4.941364 1.997338 1.629330 0.000018 -0.000001 -0.000024
 26   4.941382 1.997366 -1.629410 -0.000001 0.000005 -0.000024
 27   2.918368 1.615358 1.514501 -0.000019 -0.000022 -0.000050
 28   2.920798 1.614964 -1.501142 -0.000002 -0.000009 -0.000024
 29   8.824059 0.150544 0.091743 0.000006 -0.000231 -0.174534
 30   2.111085 -0.561179 1.784320 -0.000008 -0.000682 0.000024
 31   2.121290 -0.561289 -1.853599 0.000000 0.000000 -0.000002
 32   -0.810489 -0.093824 3.127092 3.071872 -0.114782 1.239365
 33   14.298673 -0.408176 0.475484 0.000248 0.000062 -1.896136
 34   15.835795 0.581398 0.242756 -0.214729 0.106889 -0.097869
 35   -0.815868 -0.091229 -3.114430 0.066464 3.132725 -1.010185
 36   14.294526 -0.410349 -0.463635 0.000033 -0.000000 -2.607695
 37   15.834409 0.579420 -0.284600 -0.006092 -0.035255 0.214458
 38   1.139685 -3.453749 -2.823813 0.000000 0.000000 0.000001
 39   -4.457742 -1.054854 -0.746180 0.000000 0.000000 0.000000
 40   1.118101 -3.449769 3.237290 0.000000 0.000001 0.000000
 41   -4.433840 -1.059130 0.959566 -0.000001 0.000000 0.000000
 42   -0.657468 1.697302 -2.688614 0.000000 0.000002 0.000000
 43   -0.664068 1.698578 2.869377 0.000000 0.000002 0.000000
time 30
  0   -0.967547 0.175787 -20.574476 0.000000 0.000000 -1.572114
  1   -1.093036 0.000002 -0.326057 -1.570809 -1.570379 -0.000123
  2   2.262337 0.113614 0.064702 -0.000052 0.000061 -0.260847
  3   2.380047 0.353302 0.047440 -0.261678 -0.001922 -0.008489
  4   2.033756 0.190472 -0.000128 -0.000010 0.000024 -0.035003
  5   2.451511 0.204909 -0.003447 0.000000 -0.000005 -0.017472
  6   7.247600 -0.397300 -0.109469 0.000001 0.000033 -0.209345
  7   -2.022252 -0.104661 3.136172 0.897045 -1.256502 -3.804633
  8   1.168026 -0.537438 -0.063437 -0.469876 1.049673 -1.049553
  9   6.790376 -0.619176 0.015206 -0.000213 -0.000352 -2.133165
 10   8.637599 0.544015 -0.090417 -1.068583 -0.402905 -0.134826
 11   6.790465 -0.619039 0.017802 0.005381 -0.011935 -1.508573
 12   -2.022474 -0.104699 -2.873818 -1.159310 1.101861 -4.048388
 13   1.167898 -0.537463 0.063297 -0.331297 -1.036241 0.471233
 14   7.002743 -0.617765 -0.183752 0.000229 0.000421 -2.415017
 15   8.209042 0.615527 -0.255885 1.510770 0.764779 -0.200445
 16   7.002735 -0.617911 -0.183641 0.011991 0.014022 -1.709145
 17   1.574674 0.609930 -0.000899 0.260984 0.017853 0.201947
 18   -0.602177 0.511412 -0.000006 0.000000 0.000000 0.000000
 19   3.673773 0.177020 1.119313 -0.000002 -0.000014 -0.174510
 20   3.673767 0.176993 -1.117566 0.000007 -0.000003 -0.174546
 21   3.942357 1.330634 1.627658 0.000002 -0.000011 -0.000026
 22   -0.246060 -0.011889 0.516521 -0.000011 0.000031 0.000025
 23   3.942374 1.330659 -1.631083 0.000019 0.000002 -0.000024
 24   -0.246150 -0.011872 -0.516511 -0.000005 -0.000006 0.000048
 25   4.941364 1.997338 1.629330 0.000018 -0.000001 -0.000024
 26   4.941382 1.997366 -1.629410 -0.000001 0.000005 -0.000024
 27   2.918368 1.615358 1.514501 -0.000019 -0.000022 -0.000050
 28   2.920798 1.614964 -1.501142 -0.000002 -0.000009 -0.000024
 29   8.824059 0.150544 0.091743 0.000006 -0.000231 -0.174534
 30   2.111085 -0.561179 1.784320 -0.000008 -0.000682 0.000024
 31   2.121290 -0.561289 -1.853599 0.000000 0.000000 -0.000002
 32   -0.810489 -0.093824 3.127092 3.071872 -0.114782 1.239365
 33   14.298673 -0.408176 0.475484 0.000248 0.000062 -1.896136
 34   15.835795 0.581398 0.242756 -0.214729 0.106889 -0.097869
 35   -0.815868 -0.091229 -3.114430 0.066464 3.132725 -1.010185
 36   14.294526 -0.410349 -0.463635 0.000033 -0.000000 -2.607695
 37   15.834409 0.579420 -0.284600 -0.006092 -0.035255 0.214458
 38   1.139685 -3.453749 -2.823813 0.000000 0.000000 0.000001
 39   -4.457742 -1.054854 -0.746180 0.000000 0.000000 0.000000
 40   1.118101 -3.449769 3.237290 0.000000 0.000001 0.000000
 41   -4.433840 -1.059130 0.959566 -0.000001 0.000000 0.000000
 42   -0.657468 1.697302 -2.688614 0.000000 0.000002 0.000000
 43   -0.664068 1.698578 2.869377 0.000000 0.000002 0.000000
end
