version 1
nodes
  0 "Bip01" -1
  1 "Bip01 Pelvis" 0
  2 "Bip01 Spine" 1
  3 "Bip01 Spine1" 2
  4 "Bip01 Spine2" 3
  5 "Bip01 Spine3" 4
  6 "Bip01 Neck" 5
  7 "Bip01 L Arm" 6
  8 "Bip01 L Arm1" 7
  9 "Bip01 L Arm2" 8
 10 "Bip01 L Hand" 9
 11 "Bip06 L elbow2-smooth" 8
 12 "Bip01 R Arm" 6
 13 "Bip01 R Arm1" 12
 14 "Bip01 R Arm2" 13
 15 "Bip01 R Hand" 14
 16 "Bip06 R elbow2-smooth" 13
 17 "Bip01 Head" 6
 18 "Bip06 Head_helper" 17
 19 "Bip06 Head_eyes_l" 18
 20 "Bip06 Head_eyes_r" 18
 21 "Bip06 Head_blink_l" 18
 22 "Bip06 Head_blink_smooth_l1" 21
 23 "Bip06 Head_blink_r" 18
 24 "Bip06 Head_blink_smooth_r1" 23
 25 "Bip06 Head_L_eyebrow" 18
 26 "Bip06 Head_R_eyebrow" 18
 27 "Bip06 Head_blink_l_lid" 18
 28 "Bip06 Head_blink_r_lid" 18
 29 "Bip06 bunny" 18
 30 "Bip06 bunnyL" 29
 31 "Bip06 bunnyR" 29
 32 "Bip01 L Leg" 1
 33 "Bip01 L Leg1" 32
 34 "Bip01 L Foot" 33
 35 "Bip01 R Leg" 1
 36 "Bip01 R Leg1" 35
 37 "Bip01 R Foot" 36
 38 "Bip03 HairR1" 17
 39 "Bip03 HairR2" 38
 40 "Bip03 HairL1" 17
 41 "Bip03 HairL2" 40
 42 "Bip03 swingR" 17
 43 "Bip03 swingL" 17
end
skeleton
time 0
  0   -0.967547 0.175787 -20.574476 0.000000 0.000000 -1.572114
  1   -1.093036 0.000002 -0.326057 -1.570757 -1.570379 -0.000171
  2   2.262337 0.113614 0.064702 -0.000052 0.000061 -0.051442
  3   2.380047 0.353302 0.047440 -0.151495 0.040540 0.258477
  4   2.033756 0.190472 -0.000128 -0.283122 0.051786 0.175483
  5   2.451511 0.204909 -0.003447 -0.155849 0.017633 0.111779
  6   7.247600 -0.397300 -0.109469 -0.000131 -0.183080 -0.122015
  7   -2.022252 -0.104661 3.136172 1.516096 -1.335573 -4.488136
  8   1.168026 -0.537438 -0.063437 -0.790835 0.428442 -0.799738
  9   6.790376 -0.619176 0.015206 -0.000213 -0.000151 -1.807372
 10   8.637599 0.544015 -0.090417 -1.656328 -0.275850 -0.099522
 11   6.790465 -0.619039 0.017802 0.003775 -0.011907 -1.280527
 12   -2.022474 -0.104699 -2.873818 0.102085 1.187511 -2.916441
 13   1.167898 -0.537463 0.063297 -0.218053 -0.994796 -0.245741
 14   7.002743 -0.617765 -0.183752 0.000286 0.000421 -1.967755
 15   8.209042 0.615527 -0.255885 1.570090 -0.000290 -0.069646
 16   7.002735 -0.617911 -0.183641 0.012979 0.011033 -1.396147
 17   1.574674 0.609930 -0.000899 0.540085 -0.227289 0.432362
 18   -0.602177 0.511412 -0.000006 0.000000 0.000000 0.000000
 19   3.646428 0.364526 1.119313 -0.000002 -0.000014 -0.174510
 20   3.646422 0.364499 -1.117566 0.000007 -0.000003 -0.174546
 21   3.805634 1.330634 1.627658 0.000002 -0.000011 -0.000026
 22   -0.246060 -0.011889 0.516521 -0.000011 0.000031 0.000025
 23   3.805651 1.330659 -1.631083 0.000019 0.000002 -0.000024
 24   -0.246150 -0.011872 -0.516511 -0.000005 -0.000006 0.000048
 25   4.941364 1.997338 1.629330 0.000018 -0.000001 -0.000024
 26   4.941382 1.997366 -1.629410 -0.000001 0.000005 -0.000024
 27   2.930087 1.603639 1.514501 -0.000019 -0.000022 -0.000050
 28   2.932517 1.603245 -1.501142 -0.000002 -0.000009 -0.000024
 29   8.824059 0.150544 0.091743 0.000006 -0.000231 -0.174534
 30   2.111085 -0.561179 1.784320 -0.000008 -0.000682 0.000024
 31   2.121290 -0.561289 -1.853599 0.000000 0.000000 -0.000002
 32   -0.810489 -0.093824 3.127092 3.071872 -0.114782 1.239365
 33   14.298673 -0.408176 0.475484 0.000248 0.000062 -1.896136
 34   15.835795 0.581398 0.242756 -0.214729 0.106889 -0.097869
 35   -0.815868 -0.091229 -3.114430 0.066464 3.132725 -1.010185
 36   14.294526 -0.410349 -0.463635 0.000033 -0.000000 -2.607695
 37   15.834409 0.579420 -0.284600 -0.006092 -0.035255 0.214458
 38   1.139685 -3.453749 -2.823813 0.000000 0.000000 0.000001
 39   -4.457742 -1.054854 -0.746180 0.000000 0.000000 0.000000
 40   1.118101 -3.449769 3.237290 0.000000 0.000001 0.000000
 41   -4.433840 -1.059130 0.959566 -0.000001 0.000000 0.000000
 42   -0.657468 1.697302 -2.688614 0.000000 0.000002 0.000000
 43   -0.664068 1.698578 2.869377 0.000000 0.000002 0.000000
time 1
  0   -0.967547 0.175787 -20.574476 0.000000 0.000000 -1.572114
  1   -1.093036 0.000002 -0.326057 -1.570757 -1.570379 -0.000171
  2   2.262337 0.113614 0.064702 -0.000052 0.000061 -0.051442
  3   2.380047 0.353302 0.047440 -0.151495 0.040540 0.258477
  4   2.033756 0.190472 -0.000128 -0.282993 0.052445 0.177114
  5   2.451511 0.204909 -0.003447 -0.155849 0.017633 0.111779
  6   7.247600 -0.397300 -0.109469 -0.000143 -0.183080 -0.122015
  7   -2.022252 -0.104661 3.136172 1.497979 -1.335256 -4.469259
  8   1.168026 -0.537438 -0.063437 -0.787354 0.424266 -0.797334
  9   6.790376 -0.619176 0.015206 -0.000213 -0.000151 -1.807372
 10   8.637599 0.544015 -0.090417 -1.658529 -0.354265 -0.092432
 11   6.790465 -0.619039 0.017802 0.003775 -0.011907 -1.280527
 12   -2.022474 -0.104699 -2.873818 0.099594 1.177701 -2.919026
 13   1.167898 -0.537463 0.063297 -0.218967 -0.984981 -0.245015
 14   7.002743 -0.617765 -0.183752 0.000286 0.000421 -1.967755
 15   8.209042 0.615527 -0.255885 1.570090 -0.000290 -0.069646
 16   7.002735 -0.617911 -0.183641 0.012979 0.011033 -1.396147
 17   1.574674 0.609930 -0.000899 0.539882 -0.226934 0.430440
 18   -0.602177 0.511412 -0.000006 0.000000 0.000000 0.000000
 19   3.646428 0.364526 1.119313 -0.000002 -0.000014 -0.174510
 20   3.646422 0.364499 -1.117566 0.000007 -0.000003 -0.174546
 21   3.805634 1.330634 1.627658 0.000002 -0.000011 -0.000026
 22   -0.246060 -0.011889 0.516521 -0.000011 0.000031 0.000025
 23   3.805651 1.330659 -1.631083 0.000019 0.000002 -0.000024
 24   -0.246150 -0.011872 -0.516511 -0.000005 -0.000006 0.000048
 25   4.941364 1.997338 1.629330 0.000018 -0.000001 -0.000024
 26   4.941382 1.997366 -1.629410 -0.000001 0.000005 -0.000024
 27   2.930087 1.603639 1.514501 -0.000019 -0.000022 -0.000050
 28   2.932517 1.603245 -1.501142 -0.000002 -0.000009 -0.000024
 29   8.824059 0.150544 0.091743 0.000897 -0.000468 -0.171583
 30   2.111085 -0.561179 1.784320 -0.000022 0.001236 0.000153
 31   2.121290 -0.561289 -1.853599 0.000000 -0.002538 0.000107
 32   -0.810489 -0.093824 3.127092 3.071872 -0.114782 1.239365
 33   14.298673 -0.408176 0.475484 0.000248 0.000062 -1.896136
 34   15.835795 0.581398 0.242756 -0.214729 0.106889 -0.097869
 35   -0.815868 -0.091229 -3.114430 0.066464 3.132725 -1.010185
 36   14.294526 -0.410349 -0.463635 0.000033 -0.000000 -2.607695
 37   15.834409 0.579420 -0.284600 -0.006092 -0.035255 0.214458
 38   1.139685 -3.453749 -2.823813 0.000063 -0.000060 0.000123
 39   -4.457742 -1.054854 -0.746180 0.000132 0.000288 -0.001178
 40   1.118101 -3.449769 3.237290 -0.000021 -0.000071 0.000367
 41   -4.433840 -1.059130 0.959566 0.000011 0.000024 -0.000084
 42   -0.657468 1.697302 -2.688614 0.000863 0.001336 -0.000084
 43   -0.664068 1.698578 2.869377 -0.001000 -0.001504 0.000251
time 2
  0   -0.967547 0.175787 -20.574476 0.000000 0.000000 -1.572114
  1   -1.093036 0.000002 -0.326057 -1.570757 -1.570379 -0.000171
  2   2.262337 0.113614 0.064702 -0.000052 0.000061 -0.051442
  3   2.380047 0.353302 0.047440 -0.151495 0.040540 0.258477
  4   2.033756 0.190472 -0.000128 -0.282919 0.053020 0.179216
  5   2.451511 0.204909 -0.003447 -0.155849 0.017633 0.111779
  6   7.247600 -0.397300 -0.109469 -0.000143 -0.183080 -0.122015
  7   -2.022252 -0.104661 3.136172 1.480053 -1.334910 -4.451040
  8   1.168026 -0.537438 -0.063437 -0.784064 0.419788 -0.795183
  9   6.790376 -0.619176 0.015206 -0.000213 -0.000352 -1.807372
 10   8.637599 0.544015 -0.090417 -1.661700 -0.432680 -0.084619
 11   6.790465 -0.619039 0.017802 0.003775 -0.011907 -1.280527
 12   -2.022474 -0.104699 -2.873818 0.097199 1.167020 -2.921994
 13   1.167898 -0.537463 0.063297 -0.220302 -0.974607 -0.244591
 14   7.002743 -0.617765 -0.183752 0.000286 0.000421 -1.967755
 15   8.209042 0.615527 -0.255885 1.570090 -0.000290 -0.069646
 16   7.002735 -0.617911 -0.183641 0.012979 0.011033 -1.396147
 17   1.574674 0.609930 -0.000899 0.539720 -0.226366 0.428518
 18   -0.602177 0.511412 -0.000006 0.000000 0.000000 0.000000
 19   3.646428 0.364526 1.119313 -0.000002 -0.000014 -0.174510
 20   3.646422 0.364499 -1.117566 0.000007 -0.000003 -0.174546
 21   3.805634 1.330634 1.627658 0.000002 -0.000011 -0.000026
 22   -0.246060 -0.011889 0.516521 -0.000011 0.000031 0.000025
 23   3.805651 1.330659 -1.631083 0.000019 0.000002 -0.000024
 24   -0.246150 -0.011872 -0.516511 -0.000005 -0.000006 0.000048
 25   4.941364 1.997338 1.629330 0.000018 -0.000001 -0.000024
 26   4.941382 1.997366 -1.629410 -0.000001 0.000005 -0.000024
 27   2.930087 1.603639 1.514501 -0.000019 -0.000022 -0.000050
 28   2.932517 1.603245 -1.501142 -0.000002 -0.000009 -0.000024
 29   8.824059 0.150544 0.091743 0.003838 -0.001323 -0.163053
 30   2.111085 -0.561179 1.784320 -0.000103 0.006728 0.000496
 31   2.121290 -0.561289 -1.853599 0.000000 -0.009765 0.000544
 32   -0.810489 -0.093824 3.127092 3.071872 -0.114782 1.239365
 33   14.298673 -0.408176 0.475484 0.000248 0.000062 -1.896136
 34   15.835795 0.581398 0.242756 -0.214729 0.106889 -0.097869
 35   -0.815868 -0.091229 -3.114430 0.066464 3.132725 -1.010185
 36   14.294526 -0.410349 -0.463635 0.000033 -0.000000 -2.607695
 37   15.834409 0.579420 -0.284600 -0.006092 -0.035255 0.214458
 38   1.139685 -3.453749 -2.823813 0.000400 -0.000277 0.000795
 39   -4.457742 -1.047041 -0.746180 0.000491 0.001127 -0.004459
 40   1.118101 -3.449769 3.237290 -0.000168 -0.000336 0.001405
 41   -4.433840 -1.051317 0.959566 0.000047 0.000108 -0.000449
 42   -0.657468 1.697302 -2.680801 0.003308 0.005169 -0.000418
 43   -0.664068 1.698578 2.861564 -0.003886 -0.005851 0.001004
time 3
  0   -0.967547 0.175787 -20.574476 0.000000 0.000000 -1.572114
  1   -1.093036 0.000002 -0.326057 -1.570757 -1.570379 -0.000171
  2   2.262337 0.113614 0.064702 -0.000052 0.000061 -0.051442
  3   2.380047 0.353302 0.047440 -0.151495 0.040540 0.258477
  4   2.033756 0.190472 -0.000128 -0.282827 0.053475 0.181210
  5   2.451511 0.204909 -0.003447 -0.155849 0.017633 0.111779
  6   7.247600 -0.397300 -0.109469 -0.000143 -0.183080 -0.122015
  7   -2.022252 -0.104661 3.136172 1.455418 -1.334247 -4.425777
  8   1.168026 -0.537438 -0.063437 -0.779191 0.414656 -0.791767
  9   6.790376 -0.619176 0.015206 -0.000213 -0.000151 -1.807372
 10   8.637599 0.544015 -0.090417 -1.663461 -0.475477 -0.080423
 11   6.790465 -0.619039 0.017802 0.003775 -0.011907 -1.280527
 12   -2.022474 -0.104699 -2.873818 0.094708 1.155352 -2.924579
 13   1.167898 -0.537463 0.063297 -0.221568 -0.963267 -0.244107
 14   7.002743 -0.617765 -0.183752 0.000286 0.000421 -1.967755
 15   8.209042 0.615527 -0.255885 1.570090 -0.000290 -0.069646
 16   7.002735 -0.617911 -0.183641 0.012979 0.011033 -1.396147
 17   1.574674 0.609930 -0.000899 0.539476 -0.226011 0.426448
 18   -0.602177 0.511412 -0.000006 0.000000 0.000000 0.000000
 19   3.646428 0.364526 1.119313 -0.000002 -0.000014 -0.174510
 20   3.646422 0.364499 -1.117566 0.000007 -0.000003 -0.174546
 21   3.805634 1.330634 1.627658 0.000002 -0.000011 -0.000026
 22   -0.246060 -0.011889 0.516521 -0.000011 0.000031 0.000025
 23   3.805651 1.330659 -1.631083 0.000019 0.000002 -0.000024
 24   -0.246150 -0.011872 -0.516511 -0.000005 -0.000006 0.000048
 25   4.941364 1.997338 1.629330 0.000018 -0.000001 -0.000024
 26   4.941382 1.997366 -1.629410 -0.000001 0.000005 -0.000024
 27   2.930087 1.603639 1.514501 -0.000019 -0.000022 -0.000050
 28   2.932517 1.603245 -1.501142 -0.000002 -0.000009 -0.000024
 29   8.824059 0.150544 0.091743 0.008472 -0.002629 -0.149802
 30   2.111085 -0.561179 1.776507 -0.000225 0.015185 0.001075
 31   2.129103 -0.561289 -1.845786 0.000031 -0.020902 0.001163
 32   -0.810489 -0.093824 3.127092 3.071872 -0.114782 1.239365
 33   14.298673 -0.408176 0.475484 0.000248 0.000062 -1.896136
 34   15.835795 0.581398 0.242756 -0.214729 0.106889 -0.097869
 35   -0.815868 -0.091229 -3.114430 0.066464 3.132725 -1.010185
 36   14.294526 -0.410349 -0.463635 0.000033 -0.000000 -2.607695
 37   15.834409 0.579420 -0.284600 -0.006092 -0.035255 0.214458
 38   1.139685 -3.453749 -2.823813 0.000842 -0.000627 0.001895
 39   -4.457742 -1.027509 -0.746180 0.001091 0.002409 -0.009648
 40   1.118101 -3.449769 3.237290 -0.000400 -0.000746 0.003116
 41   -4.426027 -1.043504 0.959566 0.000107 0.000228 -0.000954
 42   -0.649655 1.697302 -2.661269 0.007095 0.011057 -0.001046
 43   -0.664068 1.698578 2.849845 -0.008309 -0.012520 0.002133
time 4
  0   -0.967547 0.175787 -20.574476 0.000000 0.000000 -1.572114
  1   -1.093036 0.000002 -0.326057 -1.570757 -1.570379 -0.000171
  2   2.262337 0.113614 0.064702 -0.000052 0.000061 -0.051442
  3   2.380047 0.353302 0.047440 -0.151495 0.040540 0.258477
  4   2.033756 0.190472 -0.000128 -0.282698 0.054123 0.183530
  5   2.451511 0.204909 -0.003447 -0.155849 0.017633 0.111779
  6   7.247600 -0.397300 -0.109469 -0.000131 -0.183080 -0.122015
  7   -2.022252 -0.104661 3.136172 1.422347 -1.333295 -4.391593
  8   1.168026 -0.537438 -0.063437 -0.772800 0.407914 -0.787149
  9   6.790376 -0.619176 0.015206 -0.000213 -0.000151 -1.807372
 10   8.637599 0.544015 -0.090417 -1.663461 -0.477800 -0.080206
 11   6.790465 -0.619039 0.017802 0.003775 -0.011907 -1.280527
 12   -2.022474 -0.104699 -2.873818 0.091834 1.143220 -2.927355
 13   1.167898 -0.537463 0.063297 -0.222974 -0.951164 -0.243683
 14   7.002743 -0.617765 -0.183752 0.000286 0.000421 -1.967755
 15   8.209042 0.615527 -0.255885 1.570090 -0.000290 -0.069646
 16   7.002735 -0.617911 -0.183641 0.012979 0.011033 -1.396147
 17   1.574674 0.609930 -0.000899 0.539192 -0.225443 0.424416
 18   -0.602177 0.511412 -0.000006 0.000000 0.000000 0.000000
 19   3.646428 0.364526 1.119313 -0.000002 -0.000014 -0.174510
 20   3.646422 0.364499 -1.117566 0.000007 -0.000003 -0.174546
 21   3.805634 1.330634 1.627658 0.000002 -0.000011 -0.000026
 22   -0.246060 -0.011889 0.516521 -0.000011 0.000031 0.000025
 23   3.805651 1.330659 -1.631083 0.000019 0.000002 -0.000024
 24   -0.246150 -0.011872 -0.516511 -0.000005 -0.000006 0.000048
 25   4.941364 1.997338 1.629330 0.000018 -0.000001 -0.000024
 26   4.941382 1.997366 -1.629410 -0.000001 0.000005 -0.000024
 27   2.930087 1.603639 1.514501 -0.000019 -0.000022 -0.000050
 28   2.932517 1.603245 -1.501142 -0.000002 -0.000009 -0.000024
 29   8.824059 0.150544 0.091743 0.014265 -0.004409 -0.132849
 30   2.118898 -0.561179 1.764788 -0.000361 0.026111 0.001804
 31   2.133009 -0.561289 -1.837973 0.000046 -0.035330 0.001945
 32   -0.810489 -0.093824 3.127092 3.071872 -0.114782 1.239365
 33   14.298673 -0.408176 0.475484 0.000248 0.000062 -1.896136
 34   15.835795 0.581398 0.242756 -0.214729 0.106889 -0.097869
 35   -0.815868 -0.091229 -3.114430 0.066464 3.132725 -1.010185
 36   14.294526 -0.410349 -0.463635 0.000033 -0.000000 -2.607695
 37   15.834409 0.579420 -0.284600 -0.006092 -0.035255 0.214458
 38   1.147498 -3.453749 -2.823813 0.001410 -0.001073 0.003239
 39   -4.457742 -1.011884 -0.738367 0.001846 0.004075 -0.016267
 40   1.110288 -3.449769 3.237290 -0.000674 -0.001276 0.005254
 41   -4.410401 -1.031785 0.967379 0.000191 0.000384 -0.001599
 42   -0.649655 1.697302 -2.641737 0.011973 0.018631 -0.001756
 43   -0.664068 1.698578 2.830313 -0.014031 -0.021134 0.003638
time 5
  0   -0.967547 0.175787 -20.574476 0.000000 0.000000 -1.572114
  1   -1.093036 0.000002 -0.326057 -1.570757 -1.570379 -0.000171
  2   2.262337 0.113614 0.064702 -0.000052 0.000061 -0.051442
  3   2.380047 0.353302 0.047440 -0.151495 0.040540 0.258477
  4   2.033756 0.190472 -0.000128 -0.282569 0.054806 0.185632
  5   2.451511 0.204909 -0.003447 -0.155849 0.017633 0.111779
  6   7.247600 -0.397300 -0.109469 -0.000143 -0.183080 -0.122015
  7   -2.022252 -0.104661 3.136172 1.385154 -1.331739 -4.353558
  8   1.168026 -0.537438 -0.063437 -0.765586 0.400568 -0.782531
  9   6.790376 -0.619176 0.015206 -0.000213 -0.000151 -1.807372
 10   8.637599 0.544015 -0.090417 -1.662668 -0.462244 -0.081870
 11   6.790465 -0.619039 0.017802 0.003775 -0.011907 -1.280527
 12   -2.022474 -0.104699 -2.873818 0.089726 1.131088 -2.929845
 13   1.167898 -0.537463 0.063297 -0.223887 -0.939417 -0.243138
 14   7.002743 -0.617765 -0.183752 0.000286 0.000421 -1.967755
 15   8.209042 0.615527 -0.255885 1.570090 -0.000290 -0.069646
 16   7.002735 -0.617911 -0.183641 0.012979 0.011033 -1.396147
 17   1.574674 0.609930 -0.000899 0.538989 -0.224946 0.422161
 18   -0.602177 0.511412 -0.000006 0.000000 0.000000 0.000000
 19   3.646428 0.364526 1.119313 -0.000002 -0.000014 -0.174510
 20   3.646422 0.364499 -1.117566 0.000007 -0.000003 -0.174546
 21   3.805634 1.330634 1.627658 0.000002 -0.000011 -0.000026
 22   -0.246060 -0.011889 0.516521 -0.000011 0.000031 0.000025
 23   3.805651 1.330659 -1.631083 0.000019 0.000002 -0.000024
 24   -0.246150 -0.011872 -0.516511 -0.000005 -0.000006 0.000048
 25   4.941364 1.997338 1.629330 0.000018 -0.000001 -0.000024
 26   4.941382 1.997366 -1.629410 -0.000001 0.000005 -0.000024
 27   2.930087 1.603639 1.514501 -0.000019 -0.000022 -0.000050
 28   2.932517 1.603245 -1.501142 -0.000002 -0.000009 -0.000024
 29   8.824059 0.150544 0.091743 0.021038 -0.006617 -0.112785
 30   2.122804 -0.561179 1.753069 -0.000537 0.038927 0.002640
 31   2.140822 -0.561289 -1.834067 0.000092 -0.052191 0.002891
 32   -0.810489 -0.093824 3.127092 3.071872 -0.114782 1.239365
 33   14.298673 -0.408176 0.475484 0.000248 0.000062 -1.896136
 34   15.835795 0.581398 0.242756 -0.214729 0.106889 -0.097869
 35   -0.815868 -0.091229 -3.114430 0.066464 3.132725 -1.010185
 36   14.294526 -0.410349 -0.463635 0.000033 -0.000000 -2.607695
 37   15.834409 0.579420 -0.284600 -0.006092 -0.035255 0.214458
 38   1.147498 -3.453749 -2.823813 0.002126 -0.001579 0.004766
 39   -4.457742 -0.992352 -0.734461 0.002721 0.006016 -0.024035
 40   1.110288 -3.449769 3.237290 -0.000989 -0.001903 0.007820
 41   -4.402589 -1.020066 0.967379 0.000287 0.000575 -0.002384
 42   -0.637936 1.697302 -2.618299 0.017689 0.027570 -0.002635
 43   -0.664068 1.690765 2.806875 -0.020753 -0.031240 0.005395
time 6
  0   -0.967547 0.175787 -20.574476 0.000000 0.000000 -1.572114
  1   -1.093036 0.000002 -0.326057 -1.570757 -1.570379 -0.000171
  2   2.262337 0.113614 0.064702 -0.000052 0.000061 -0.051442
  3   2.380047 0.353302 0.047440 -0.151495 0.040540 0.258477
  4   2.033756 0.190472 -0.000128 -0.282458 0.055549 0.187988
  5   2.451511 0.204909 -0.003447 -0.155849 0.017633 0.111779
  6   7.247600 -0.397300 -0.109469 -0.000143 -0.183080 -0.122015
  7   -2.022252 -0.104661 3.136172 1.347482 -1.329865 -4.314301
  8   1.168026 -0.537438 -0.063437 -0.758119 0.392870 -0.777407
  9   6.790376 -0.619176 0.015206 -0.000213 -0.000151 -1.807372
 10   8.637599 0.544015 -0.090417 -1.661700 -0.436481 -0.084185
 11   6.790465 -0.619039 0.017802 0.003775 -0.011907 -1.280527
 12   -2.022474 -0.104699 -2.873818 0.087235 1.118724 -2.932334
 13   1.167898 -0.537463 0.063297 -0.225364 -0.927060 -0.242775
 14   7.002743 -0.617765 -0.183752 0.000286 0.000421 -1.967755
 15   8.209042 0.615527 -0.255885 1.570090 -0.000290 -0.069646
 16   7.002735 -0.617911 -0.183641 0.012979 0.011033 -1.396147
 17   1.574674 0.609930 -0.000899 0.538704 -0.224378 0.419869
 18   -0.602177 0.511412 -0.000006 0.000000 0.000000 0.000000
 19   3.646428 0.364526 1.119313 -0.000002 -0.000014 -0.174510
 20   3.646422 0.364499 -1.117566 0.000007 -0.000003 -0.174546
 21   3.805634 1.330634 1.627658 0.000002 -0.000011 -0.000026
 22   -0.246060 -0.011889 0.516521 -0.000011 0.000031 0.000025
 23   3.805651 1.330659 -1.631083 0.000019 0.000002 -0.000024
 24   -0.246150 -0.011872 -0.516511 -0.000005 -0.000006 0.000048
 25   4.941364 1.997338 1.629330 0.000018 -0.000001 -0.000024
 26   4.941382 1.997366 -1.629410 -0.000001 0.000005 -0.000024
 27   2.930087 1.603639 1.514501 -0.000019 -0.000022 -0.000050
 28   2.932517 1.603245 -1.501142 -0.000002 -0.000009 -0.000024
 29   8.824059 0.150544 0.091743 0.028525 -0.009228 -0.090682
 30   2.130617 -0.561179 1.741350 -0.000727 0.053079 0.003583
 31   2.152541 -0.561289 -1.822348 0.000138 -0.070866 0.003965
 32   -0.810489 -0.093824 3.127092 3.071872 -0.114782 1.239365
 33   14.298673 -0.408176 0.475484 0.000248 0.000062 -1.896136
 34   15.835795 0.581398 0.242756 -0.214729 0.106889 -0.097869
 35   -0.815868 -0.091229 -3.114430 0.066464 3.132725 -1.010185
 36   14.294526 -0.410349 -0.463635 0.000033 -0.000000 -2.607695
 37   15.834409 0.579420 -0.284600 -0.006092 -0.035255 0.214458
 38   1.155311 -3.453749 -2.823813 0.002884 -0.002145 0.006538
 39   -4.457742 -0.961101 -0.726648 0.003691 0.008162 -0.032645
 40   1.106382 -3.449769 3.237290 -0.001347 -0.002602 0.010692
 41   -4.386963 -1.000534 0.979098 0.000383 0.000791 -0.003225
 42   -0.637936 1.697302 -2.594861 0.024017 0.037413 -0.003597
 43   -0.664068 1.690765 2.787343 -0.028187 -0.042428 0.007319
time 7
  0   -0.967547 0.175787 -20.574476 0.000000 0.000000 -1.572114
  1   -1.093036 0.000002 -0.326057 -1.570757 -1.570379 -0.000171
  2   2.262337 0.113614 0.064702 -0.000052 0.000061 -0.051442
  3   2.380047 0.353302 0.047440 -0.151495 0.040540 0.258477
  4   2.033756 0.190472 -0.000128 -0.282329 0.056184 0.190127
  5   2.451511 0.204909 -0.003447 -0.155849 0.017633 0.111779
  6   7.247600 -0.397300 -0.109469 -0.000131 -0.183080 -0.122015
  7   -2.022252 -0.104661 3.136172 1.311248 -1.327645 -4.277770
  8   1.168026 -0.537438 -0.063437 -0.750905 0.385675 -0.772852
  9   6.790376 -0.619176 0.015206 -0.000213 -0.000151 -1.807372
 10   8.637599 0.544015 -0.090417 -1.660819 -0.407973 -0.087368
 11   6.790465 -0.619039 0.017802 0.003775 -0.011907 -1.280527
 12   -2.022474 -0.104699 -2.873818 0.085223 1.106505 -2.934727
 13   1.167898 -0.537463 0.063297 -0.226488 -0.915516 -0.242412
 14   7.002743 -0.617765 -0.183752 0.000286 0.000421 -1.967755
 15   8.209042 0.615527 -0.255885 1.570090 -0.000290 -0.069646
 16   7.002735 -0.617911 -0.183641 0.012979 0.011033 -1.396147
 17   1.574674 0.609930 -0.000899 0.538501 -0.223881 0.417726
 18   -0.602177 0.511412 -0.000006 0.000000 0.000000 0.000000
 19   3.646428 0.364526 1.119313 -0.000002 -0.000014 -0.174510
 20   3.646422 0.364499 -1.117566 0.000007 -0.000003 -0.174546
 21   3.805634 1.330634 1.627658 0.000002 -0.000011 -0.000026
 22   -0.246060 -0.011889 0.516521 -0.000011 0.000031 0.000025
 23   3.805651 1.330659 -1.631083 0.000019 0.000002 -0.000024
 24   -0.246150 -0.011872 -0.516511 -0.000005 -0.000006 0.000048
 25   4.941364 1.997338 1.629330 0.000018 -0.000001 -0.000024
 26   4.941382 1.997366 -1.629410 -0.000001 0.000005 -0.000024
 27   2.930087 1.603639 1.514501 -0.000019 -0.000022 -0.000050
 28   2.932517 1.603245 -1.501142 -0.000002 -0.000009 -0.000024
 29   8.824059 0.150544 0.091743 0.036367 -0.012124 -0.067345
 30   2.138430 -0.561179 1.721818 -0.000944 0.068074 0.004570
 31   2.160354 -0.561289 -1.814535 0.000184 -0.090655 0.005075
 32   -0.810489 -0.093824 3.127092 3.071872 -0.114782 1.239365
 33   14.298673 -0.408176 0.475484 0.000248 0.000062 -1.896136
 34   15.835795 0.581398 0.242756 -0.214729 0.106889 -0.097869
 35   -0.815868 -0.091229 -3.114430 0.066464 3.132725 -1.010185
 36   14.294526 -0.410349 -0.463635 0.000033 -0.000000 -2.607695
 37   15.834409 0.579420 -0.284600 -0.006092 -0.035255 0.214458
 38   1.159217 -3.461562 -2.823813 0.003684 -0.002748 0.008371
 39   -4.465555 -0.937663 -0.718835 0.004734 0.010463 -0.041760
 40   1.098569 -3.441956 3.237290 -0.001726 -0.003325 0.013624
 41   -4.371338 -0.988815 0.979098 0.000490 0.001019 -0.004151
 42   -0.626217 1.697302 -2.563610 0.030717 0.047854 -0.004558
 43   -0.664068 1.686859 2.763905 -0.036033 -0.054275 0.009284
time 8
  0   -0.967547 0.175787 -20.574476 0.000000 0.000000 -1.572114
  1   -1.093036 0.000002 -0.326057 -1.570757 -1.570379 -0.000123
  2   2.262337 0.113614 0.064702 -0.000052 0.000061 -0.051442
  3   2.380047 0.353302 0.047440 -0.151495 0.040540 0.258477
  4   2.033756 0.190472 -0.000128 -0.282200 0.056759 0.192229
  5   2.451511 0.204909 -0.003447 -0.155849 0.017633 0.111779
  6   7.247600 -0.397300 -0.109469 -0.000131 -0.183080 -0.122015
  7   -2.022252 -0.104661 3.136172 1.279902 -1.325455 -4.245275
  8   1.168026 -0.537438 -0.063437 -0.744577 0.378933 -0.768677
  9   6.790376 -0.619176 0.015206 -0.000213 -0.000151 -1.807372
 10   8.637599 0.544015 -0.090417 -1.659498 -0.384744 -0.089683
 11   6.790465 -0.619039 0.017802 0.003775 -0.011907 -1.280527
 12   -2.022474 -0.104699 -2.873818 0.083307 1.094895 -2.936834
 13   1.167898 -0.537463 0.063297 -0.227683 -0.904277 -0.242412
 14   7.002743 -0.617765 -0.183752 0.000286 0.000421 -1.967755
 15   8.209042 0.615527 -0.255885 1.570090 -0.000290 -0.069646
 16   7.002735 -0.617911 -0.183641 0.012979 0.011033 -1.396147
 17   1.574674 0.609930 -0.000899 0.538298 -0.223526 0.415656
 18   -0.602177 0.511412 -0.000006 0.000000 0.000000 0.000000
 19   3.646428 0.364526 1.119313 -0.000002 -0.000014 -0.174510
 20   3.646422 0.364499 -1.117566 0.000007 -0.000003 -0.174546
 21   3.805634 1.330634 1.627658 0.000002 -0.000011 -0.000026
 22   -0.246060 -0.011889 0.516521 -0.000011 0.000031 0.000025
 23   3.805651 1.330659 -1.631083 0.000019 0.000002 -0.000024
 24   -0.246150 -0.011872 -0.516511 -0.000005 -0.000006 0.000048
 25   4.941364 1.997338 1.629330 0.000018 -0.000001 -0.000024
 26   4.941382 1.997366 -1.629410 -0.000001 0.000005 -0.000024
 27   2.930087 1.603639 1.514501 -0.000019 -0.000022 -0.000050
 28   2.932517 1.603245 -1.501142 -0.000002 -0.000009 -0.000024
 29   8.824059 0.150544 0.091743 0.044210 -0.015305 -0.043579
 30   2.142336 -0.561179 1.710099 -0.001161 0.083331 0.005578
 31   2.172073 -0.561289 -1.802816 0.000215 -0.110755 0.006203
 32   -0.810489 -0.093824 3.127092 3.071872 -0.114782 1.239365
 33   14.298673 -0.408176 0.475484 0.000248 0.000062 -1.896136
 34   15.835795 0.581398 0.242756 -0.214729 0.106889 -0.097869
 35   -0.815868 -0.091229 -3.114430 0.066464 3.132725 -1.010185
 36   14.294526 -0.410349 -0.463635 0.000033 -0.000000 -2.607695
 37   15.834409 0.579420 -0.284600 -0.006092 -0.035255 0.214458
 38   1.159217 -3.461562 -2.823813 0.004505 -0.003350 0.010326
 39   -4.465555 -0.910318 -0.714929 0.005789 0.012776 -0.051015
 40   1.098569 -3.441956 3.237290 -0.002126 -0.004048 0.016740
 41   -4.355712 -0.965377 0.990817 0.000610 0.001234 -0.005048
 42   -0.618404 1.697302 -2.536265 0.037548 0.058464 -0.005646
 43   -0.664068 1.679046 2.736560 -0.044042 -0.066310 0.011417
time 9
  0   -0.967547 0.175787 -20.574476 0.000000 0.000000 -1.572114
  1   -1.093036 0.000002 -0.326057 -1.570757 -1.570379 -0.000123
  2   2.262337 0.113614 0.064702 -0.000052 0.000061 -0.051442
  3   2.380047 0.353302 0.047440 -0.151495 0.040540 0.258477
  4   2.033756 0.190472 -0.000128 -0.282071 0.057227 0.194150
  5   2.451511 0.204909 -0.003447 -0.155849 0.017633 0.111779
  6   7.247600 -0.397300 -0.109469 -0.000143 -0.183080 -0.122015
  7   -2.022252 -0.104661 3.136172 1.249515 -1.323004 -4.213532
  8   1.168026 -0.537438 -0.063437 -0.738502 0.372392 -0.764565
  9   6.790376 -0.619176 0.015206 -0.000213 -0.000352 -1.807372
 10   8.637599 0.544015 -0.090417 -1.659058 -0.366020 -0.091347
 11   6.790465 -0.619039 0.017802 0.003775 -0.011907 -1.280527
 12   -2.022474 -0.104699 -2.873818 0.081774 1.084128 -2.938653
 13   1.167898 -0.537463 0.063297 -0.228808 -0.893395 -0.241988
 14   7.002743 -0.617765 -0.183752 0.000286 0.000421 -1.967755
 15   8.209042 0.615527 -0.255885 1.570090 -0.000290 -0.069646
 16   7.002735 -0.617911 -0.183641 0.012979 0.011033 -1.396147
 17   1.574674 0.609930 -0.000899 0.538014 -0.223029 0.413808
 18   -0.602177 0.511412 -0.000006 0.000000 0.000000 0.000000
 19   3.646428 0.364526 1.119313 -0.000002 -0.000014 -0.174510
 20   3.646422 0.364499 -1.117566 0.000007 -0.000003 -0.174546
 21   3.805634 1.330634 1.627658 0.000002 -0.000011 -0.000026
 22   -0.246060 -0.011889 0.516521 -0.000011 0.000031 0.000025
 23   3.805651 1.330659 -1.631083 0.000019 0.000002 -0.000024
 24   -0.246150 -0.011872 -0.516511 -0.000005 -0.000006 0.000048
 25   4.941364 1.997338 1.629330 0.000018 -0.000001 -0.000024
 26   4.941382 1.997366 -1.629410 -0.000001 0.000005 -0.000024
 27   2.930087 1.603639 1.514501 -0.000019 -0.000022 -0.000050
 28   2.932517 1.603245 -1.501142 -0.000002 -0.000009 -0.000024
 29   8.824059 0.150544 0.091743 0.051963 -0.018628 -0.020242
 30   2.150149 -0.561179 1.698380 -0.001378 0.098326 0.006607
 31   2.183792 -0.561289 -1.791097 0.000245 -0.130491 0.007313
 32   -0.810489 -0.093824 3.127092 3.071872 -0.114782 1.239365
 33   14.298673 -0.408176 0.475484 0.000248 0.000062 -1.896136
 34   15.835795 0.581398 0.242756 -0.214729 0.106889 -0.097869
 35   -0.815868 -0.091229 -3.114430 0.066464 3.132725 -1.010185
 36   14.294526 -0.410349 -0.463635 0.000033 -0.000000 -2.607695
 37   15.834409 0.579420 -0.284600 -0.006092 -0.035255 0.214458
 38   1.167030 -3.461562 -2.823813 0.005304 -0.003965 0.012159
 39   -4.465555 -0.886880 -0.707116 0.006807 0.015065 -0.060130
 40   1.090756 -3.441956 3.237290 -0.002526 -0.004771 0.019734
 41   -4.343993 -0.953658 0.990817 0.000718 0.001450 -0.005974
 42   -0.614498 1.689489 -2.508921 0.044223 0.068921 -0.006650
 43   -0.664068 1.679046 2.713122 -0.051888 -0.078126 0.013466
time 10
  0   -0.967547 0.175787 -20.574476 0.000000 0.000000 -1.572114
  1   -1.093036 0.000002 -0.326057 -1.570757 -1.570379 -0.000123
  2   2.262337 0.113614 0.064702 -0.000052 0.000061 -0.051442
  3   2.380047 0.353302 0.047440 -0.151495 0.040540 0.258477
  4   2.033756 0.190472 -0.000128 -0.281997 0.057874 0.195890
  5   2.451511 0.204909 -0.003447 -0.155849 0.017633 0.111779
  6   7.247600 -0.397300 -0.109469 -0.000131 -0.183080 -0.122015
  7   -2.022252 -0.104661 3.136172 1.218169 -1.320266 -4.181696
  8   1.168026 -0.537438 -0.063437 -0.731984 0.366002 -0.760200
  9   6.790376 -0.619176 0.015206 -0.000213 -0.000352 -1.807372
 10   8.637599 0.544015 -0.090417 -1.658441 -0.346311 -0.093011
 11   6.790465 -0.619039 0.017802 0.003775 -0.011907 -1.280527
 12   -2.022474 -0.104699 -2.873818 0.080241 1.074550 -2.940472
 13   1.167898 -0.537463 0.063297 -0.229581 -0.883936 -0.241746
 14   7.002743 -0.617765 -0.183752 0.000286 0.000421 -1.967755
 15   8.209042 0.615527 -0.255885 1.570090 -0.000290 -0.069646
 16   7.002735 -0.617911 -0.183641 0.012979 0.011033 -1.396147
 17   1.574674 0.609930 -0.000899 0.537811 -0.222674 0.411923
 18   -0.602177 0.511412 -0.000006 0.000000 0.000000 0.000000
 19   3.646428 0.364526 1.119313 -0.000002 -0.000014 -0.174510
 20   3.646422 0.364499 -1.117566 0.000007 -0.000003 -0.174546
 21   3.805634 1.330634 1.627658 0.000002 -0.000011 -0.000026
 22   -0.246060 -0.011889 0.516521 -0.000011 0.000031 0.000025
 23   3.805651 1.330659 -1.631083 0.000019 0.000002 -0.000024
 24   -0.246150 -0.011872 -0.516511 -0.000005 -0.000006 0.000048
 25   4.941364 1.997338 1.629330 0.000018 -0.000001 -0.000024
 26   4.941382 1.997366 -1.629410 -0.000001 0.000005 -0.000024
 27   2.930087 1.603639 1.514501 -0.000019 -0.000022 -0.000050
 28   2.932517 1.603245 -1.501142 -0.000002 -0.000009 -0.000024
 29   8.824059 0.150544 0.091743 0.059093 -0.021928 0.001754
 30   2.154055 -0.553366 1.682754 -0.001554 0.112507 0.007550
 31   2.191605 -0.561289 -1.783284 0.000276 -0.149166 0.008350
 32   -0.810489 -0.093824 3.127092 3.071872 -0.114782 1.239365
 33   14.298673 -0.408176 0.475484 0.000248 0.000062 -1.896136
 34   15.835795 0.581398 0.242756 -0.214729 0.106889 -0.097869
 35   -0.815868 -0.091229 -3.114430 0.066464 3.132725 -1.010185
 36   14.294526 -0.410349 -0.463635 0.000033 -0.000000 -2.607695
 37   15.834409 0.579420 -0.284600 -0.006092 -0.035255 0.214458
 38   1.170936 -3.465468 -2.823813 0.006062 -0.004519 0.013931
 39   -4.473368 -0.855629 -0.707116 0.007790 0.017222 -0.068740
 40   1.086850 -3.438050 3.237290 -0.002884 -0.005470 0.022544
 41   -4.332274 -0.934126 1.002536 0.000838 0.001678 -0.006815
 42   -0.606685 1.689489 -2.481576 0.050575 0.078764 -0.007611
 43   -0.664068 1.679046 2.689684 -0.059322 -0.089314 0.015390
time 11
  0   -0.967547 0.175787 -20.574476 0.000000 0.000000 -1.572114
  1   -1.093036 0.000002 -0.326057 -1.570757 -1.570379 -0.000171
  2   2.262337 0.113614 0.064702 -0.000052 0.000061 -0.051442
  3   2.380047 0.353302 0.047440 -0.151495 0.040540 0.258477
  4   2.033756 0.190472 -0.000128 -0.281868 0.058281 0.197521
  5   2.451511 0.204909 -0.003447 -0.155849 0.017633 0.111779
  6   7.247600 -0.397300 -0.109469 -0.000143 -0.183080 -0.122015
  7   -2.022252 -0.104661 3.136172 1.191233 -1.317700 -4.153991
  8   1.168026 -0.537438 -0.063437 -0.726352 0.359914 -0.756531
  9   6.790376 -0.619176 0.015206 -0.000213 -0.000151 -1.807372
 10   8.637599 0.544015 -0.090417 -1.657825 -0.327235 -0.095109
 11   6.790465 -0.619039 0.017802 0.003775 -0.011907 -1.280527
 12   -2.022474 -0.104699 -2.873818 0.078804 1.065639 -2.942004
 13   1.167898 -0.537463 0.063297 -0.230495 -0.875444 -0.241746
 14   7.002743 -0.617765 -0.183752 0.000286 0.000421 -1.967755
 15   8.209042 0.615527 -0.255885 1.570090 -0.000290 -0.069646
 16   7.002735 -0.617911 -0.183641 0.012979 0.011033 -1.396147
 17   1.574674 0.609930 -0.000899 0.537607 -0.222319 0.410518
 18   -0.602177 0.511412 -0.000006 0.000000 0.000000 0.000000
 19   3.646428 0.364526 1.119313 -0.000002 -0.000014 -0.174510
 20   3.646422 0.364499 -1.117566 0.000007 -0.000003 -0.174546
 21   3.805634 1.330634 1.627658 0.000002 -0.000011 -0.000026
 22   -0.246060 -0.011889 0.516521 -0.000011 0.000031 0.000025
 23   3.805651 1.330659 -1.631083 0.000019 0.000002 -0.000024
 24   -0.246150 -0.011872 -0.516511 -0.000005 -0.000006 0.000048
 25   4.941364 1.997338 1.629330 0.000018 -0.000001 -0.000024
 26   4.941382 1.997366 -1.629410 -0.000001 0.000005 -0.000024
 27   2.930087 1.603639 1.514501 -0.000019 -0.000022 -0.000050
 28   2.932517 1.603245 -1.501142 -0.000002 -0.000009 -0.000024
 29   8.824059 0.150544 0.091743 0.065599 -0.024990 0.021550
 30   2.161868 -0.553366 1.671035 -0.001744 0.125323 0.008387
 31   2.195511 -0.561289 -1.771565 0.000322 -0.166080 0.009296
 32   -0.810489 -0.093824 3.127092 3.071872 -0.114782 1.239365
 33   14.298673 -0.408176 0.475484 0.000248 0.000062 -1.896136
 34   15.835795 0.581398 0.242756 -0.214729 0.106889 -0.097869
 35   -0.815868 -0.091229 -3.114430 0.066464 3.132725 -1.010185
 36   14.294526 -0.410349 -0.463635 0.000033 -0.000000 -2.607695
 37   15.834409 0.579420 -0.284600 -0.006092 -0.035255 0.214458
 38   1.178749 -3.465468 -2.823813 0.006778 -0.005037 0.015519
 39   -4.473368 -0.836097 -0.695397 0.008677 0.019151 -0.076509
 40   1.079037 -3.438050 3.237290 -0.003221 -0.006097 0.025110
 41   -4.316648 -0.922407 1.002536 0.000934 0.001870 -0.007628
 42   -0.594966 1.689489 -2.458138 0.056304 0.087703 -0.008490
 43   -0.664068 1.671233 2.670152 -0.066044 -0.099435 0.017147
time 12
  0   -0.967547 0.175787 -20.574476 0.000000 0.000000 -1.572114
  1   -1.093036 0.000002 -0.326057 -1.570757 -1.570379 -0.000171
  2   2.262337 0.113614 0.064702 -0.000052 0.000061 -0.051442
  3   2.380047 0.353302 0.047440 -0.151495 0.040540 0.258477
  4   2.033756 0.190472 -0.000128 -0.281831 0.058689 0.198681
  5   2.451511 0.204909 -0.003447 -0.155849 0.017633 0.111779
  6   7.247600 -0.397300 -0.109469 -0.000143 -0.183080 -0.122015
  7   -2.022252 -0.104661 3.136172 1.173308 -1.315682 -4.135209
  8   1.168026 -0.537438 -0.063437 -0.722302 0.355738 -0.754380
  9   6.790376 -0.619176 0.015206 -0.000213 -0.000151 -1.807372
 10   8.637599 0.544015 -0.090417 -1.657208 -0.309004 -0.096845
 11   6.790465 -0.619039 0.017802 0.003775 -0.011907 -1.280527
 12   -2.022474 -0.104699 -2.873818 0.077750 1.058587 -2.943057
 13   1.167898 -0.537463 0.063297 -0.231479 -0.868680 -0.241504
 14   7.002743 -0.617765 -0.183752 0.000286 0.000421 -1.967755
 15   8.209042 0.615527 -0.255885 1.570090 -0.000290 -0.069646
 16   7.002735 -0.617911 -0.183641 0.012979 0.011033 -1.396147
 17   1.574674 0.609930 -0.000899 0.537526 -0.221964 0.409262
 18   -0.602177 0.511412 -0.000006 0.000000 0.000000 0.000000
 19   3.646428 0.364526 1.119313 -0.000002 -0.000014 -0.174510
 20   3.646422 0.364499 -1.117566 0.000007 -0.000003 -0.174546
 21   3.805634 1.330634 1.627658 0.000002 -0.000011 -0.000026
 22   -0.246060 -0.011889 0.516521 -0.000011 0.000031 0.000025
 23   3.805651 1.330659 -1.631083 0.000019 0.000002 -0.000024
 24   -0.246150 -0.011872 -0.516511 -0.000005 -0.000006 0.000048
 25   4.941364 1.997338 1.629330 0.000018 -0.000001 -0.000024
 26   4.941382 1.997366 -1.629410 -0.000001 0.000005 -0.000024
 27   2.930087 1.603639 1.514501 -0.000019 -0.000022 -0.000050
 28   2.932517 1.603245 -1.501142 -0.000002 -0.000009 -0.000024
 29   8.824059 0.150544 0.091743 0.070946 -0.027743 0.038503
 30   2.165774 -0.553366 1.659316 -0.001893 0.136221 0.009116
 31   2.207230 -0.561289 -1.763752 0.000337 -0.180429 0.010078
 32   -0.810489 -0.093824 3.127092 3.071872 -0.114782 1.239365
 33   14.298673 -0.408176 0.475484 0.000248 0.000062 -1.896136
 34   15.835795 0.581398 0.242756 -0.214729 0.106889 -0.097869
 35   -0.815868 -0.091229 -3.114430 0.066464 3.132725 -1.010185
 36   14.294526 -0.410349 -0.463635 0.000033 -0.000000 -2.607695
 37   15.834409 0.579420 -0.284600 -0.006092 -0.035255 0.214458
 38   1.178749 -3.465468 -2.823813 0.007346 -0.005471 0.016802
 39   -4.473368 -0.820472 -0.695397 0.009432 0.020817 -0.083156
 40   1.079037 -3.438050 3.237290 -0.003473 -0.006627 0.027248
 41   -4.308836 -0.910688 1.010349 0.001018 0.002013 -0.008273
 42   -0.594966 1.689489 -2.438606 0.061157 0.095277 -0.009201
 43   -0.664068 1.667327 2.650620 -0.071766 -0.108033 0.018610
time 13
  0   -0.967547 0.175787 -20.574476 0.000000 0.000000 -1.572114
  1   -1.093036 0.000002 -0.326057 -1.570757 -1.570379 -0.000171
  2   2.262337 0.113614 0.064702 -0.000052 0.000061 -0.051442
  3   2.380047 0.353302 0.047440 -0.151495 0.040540 0.258477
  4   2.033756 0.190472 -0.000128 -0.281739 0.058844 0.199841
  5   2.451511 0.204909 -0.003447 -0.155849 0.017633 0.111779
  6   7.247600 -0.397300 -0.109469 -0.000143 -0.183080 -0.122015
  7   -2.022252 -0.104661 3.136172 1.168323 -1.315192 -4.130044
  8   1.168026 -0.537438 -0.063437 -0.721479 0.353826 -0.753621
  9   6.790376 -0.619176 0.015206 -0.000213 -0.000151 -1.807372
 10   8.637599 0.544015 -0.090417 -1.656856 -0.292955 -0.098292
 11   6.790465 -0.619039 0.017802 0.003775 -0.011907 -1.280527
 12   -2.022474 -0.104699 -2.873818 0.077271 1.053130 -2.944014
 13   1.167898 -0.537463 0.063297 -0.231690 -0.863442 -0.241504
 14   7.002743 -0.617765 -0.183752 0.000286 0.000421 -1.967755
 15   8.209042 0.615527 -0.255885 1.570090 -0.000290 -0.069646
 16   7.002735 -0.617911 -0.183641 0.012979 0.011033 -1.396147
 17   1.574674 0.609930 -0.000899 0.537445 -0.221751 0.408374
 18   -0.602177 0.511412 -0.000006 0.000000 0.000000 0.000000
 19   3.646428 0.364526 1.119313 -0.000002 -0.000014 -0.174510
 20   3.646422 0.364499 -1.117566 0.000007 -0.000003 -0.174546
 21   3.805634 1.330634 1.627658 0.000002 -0.000011 -0.000026
 22   -0.246060 -0.011889 0.516521 -0.000011 0.000031 0.000025
 23   3.805651 1.330659 -1.631083 0.000019 0.000002 -0.000024
 24   -0.246150 -0.011872 -0.516511 -0.000005 -0.000006 0.000048
 25   4.941364 1.997338 1.629330 0.000018 -0.000001 -0.000024
 26   4.941382 1.997366 -1.629410 -0.000001 0.000005 -0.000024
 27   2.930087 1.603639 1.514501 -0.000019 -0.000022 -0.000050
 28   2.932517 1.603245 -1.501142 -0.000002 -0.000009 -0.000024
 29   8.824059 0.150544 0.091743 0.075135 -0.029951 0.051593
 30   2.169681 -0.553366 1.651503 -0.002015 0.144677 0.009652
 31   2.215043 -0.561289 -1.759846 0.000368 -0.191619 0.010715
 32   -0.810489 -0.093824 3.127092 3.071872 -0.114782 1.239365
 33   14.298673 -0.408176 0.475484 0.000248 0.000062 -1.896136
 34   15.835795 0.581398 0.242756 -0.214729 0.106889 -0.097869
 35   -0.815868 -0.091229 -3.114430 0.066464 3.132725 -1.010185
 36   14.294526 -0.410349 -0.463635 0.000033 -0.000000 -2.607695
 37   15.834409 0.579420 -0.284600 -0.006092 -0.035255 0.214458
 38   1.178749 -3.473281 -2.823813 0.007788 -0.005808 0.017902
 39   -4.473368 -0.800940 -0.687584 0.009995 0.022112 -0.088288
 40   1.079037 -3.430237 3.237290 -0.003726 -0.007037 0.028959
 41   -4.301023 -0.902875 1.010349 0.001078 0.002145 -0.008778
 42   -0.587153 1.689489 -2.426887 0.064944 0.101180 -0.009744
 43   -0.664068 1.667327 2.638901 -0.076214 -0.114734 0.019781
time 14
  0   -0.967547 0.175787 -20.574476 0.000000 0.000000 -1.572114
  1   -1.093036 0.000002 -0.326057 -1.570757 -1.570379 -0.000171
  2   2.262337 0.113614 0.064702 -0.000052 0.000061 -0.051442
  3   2.380047 0.353302 0.047440 -0.151495 0.040540 0.258477
  4   2.033756 0.190472 -0.000128 -0.281702 0.059144 0.200421
  5   2.451511 0.204909 -0.003447 -0.155849 0.017633 0.111779
  6   7.247600 -0.397300 -0.109469 -0.000143 -0.183080 -0.122015
  7   -2.022252 -0.104661 3.136172 1.176471 -1.316057 -4.138495
  8   1.168026 -0.537438 -0.063437 -0.723504 0.354782 -0.754823
  9   6.790376 -0.619176 0.015206 -0.000213 -0.000352 -1.807372
 10   8.637599 0.544015 -0.090417 -1.656328 -0.279651 -0.099305
 11   6.790465 -0.619039 0.017802 0.003775 -0.011907 -1.280527
 12   -2.022474 -0.104699 -2.873818 0.076792 1.049705 -2.944589
 13   1.167898 -0.537463 0.063297 -0.232182 -0.859883 -0.241504
 14   7.002743 -0.617765 -0.183752 0.000286 0.000421 -1.967755
 15   8.209042 0.615527 -0.255885 1.570090 -0.000290 -0.069646
 16   7.002735 -0.617911 -0.183641 0.012979 0.011033 -1.396147
 17   1.574674 0.609930 -0.000899 0.537323 -0.221609 0.407635
 18   -0.602177 0.511412 -0.000006 0.000000 0.000000 0.000000
 19   3.654241 0.270773 1.119313 -0.000002 -0.000014 -0.174510
 20   3.654235 0.270746 -1.117566 0.000007 -0.000003 -0.174546
 21   3.352495 1.260319 1.576875 0.000002 -0.000011 -0.000026
 22   -0.238247 -0.379088 0.496989 0.000083 -0.028708 0.445010
 23   3.364231 1.256438 -1.623270 0.000019 0.000002 -0.000024
 24   -0.164116 -0.285318 -0.528230 0.000091 -0.028733 0.445062
 25   4.535101 1.997338 1.637143 -0.032209 0.220343 0.007203
 26   4.531213 1.997366 -1.621597 0.035749 -0.204340 -0.020853
 27   3.117593 1.466916 1.506688 -0.000019 -0.000022 -0.000050
 28   3.120023 1.466522 -1.508955 -0.000002 -0.000009 -0.000024
 29   8.824059 0.150544 0.091743 0.077808 -0.031375 0.060015
 30   2.173587 -0.553366 1.647597 -0.002083 0.150169 0.010038
 31   2.215043 -0.561289 -1.759846 0.000383 -0.198819 0.011134
 32   -0.810489 -0.093824 3.127092 3.071872 -0.114782 1.239365
 33   14.298673 -0.408176 0.475484 0.000248 0.000062 -1.896136
 34   15.835795 0.581398 0.242756 -0.214729 0.106889 -0.097869
 35   -0.815868 -0.091229 -3.114430 0.066464 3.132725 -1.010185
 36   14.294526 -0.410349 -0.463635 0.000033 -0.000000 -2.607695
 37   15.834409 0.579420 -0.284600 -0.006092 -0.035255 0.214458
 38   1.178749 -3.473281 -2.823813 0.008104 -0.006037 0.018574
 39   -4.473368 -0.793127 -0.687584 0.010391 0.022939 -0.091625
 40   1.079037 -3.430237 3.237290 -0.003852 -0.007302 0.030059
 41   -4.297117 -0.891156 1.018162 0.001126 0.002229 -0.009115
 42   -0.583247 1.689489 -2.415168 0.067389 0.104998 -0.010163
 43   -0.664068 1.667327 2.627182 -0.079063 -0.119049 0.020534
time 15
  0   -0.967547 0.175787 -20.574476 0.000000 0.000000 -1.572114
  1   -1.093036 0.000002 -0.326057 -1.570757 -1.570379 -0.000171
  2   2.262337 0.113614 0.064702 -0.000052 0.000061 -0.051442
  3   2.380047 0.353302 0.047440 -0.151495 0.040540 0.258477
  4   2.033756 0.190472 -0.000128 -0.281702 0.059228 0.200602
  5   2.451511 0.204909 -0.003447 -0.155849 0.017633 0.111779
  6   7.247600 -0.397300 -0.109469 -0.000143 -0.183080 -0.122015
  7   -2.022252 -0.104661 3.136172 1.192575 -1.317729 -4.155118
  8   1.168026 -0.537438 -0.063437 -0.727111 0.357046 -0.757290
  9   6.790376 -0.619176 0.015206 -0.000213 -0.000151 -1.807372
 10   8.637599 0.544015 -0.090417 -1.655887 -0.267685 -0.100390
 11   6.790465 -0.619039 0.017802 0.003775 -0.011907 -1.280527
 12   -2.022474 -0.104699 -2.873818 0.076792 1.048689 -2.944589
 13   1.167898 -0.537463 0.063297 -0.232393 -0.858866 -0.241504
 14   7.002743 -0.617765 -0.183752 0.000286 0.000421 -1.967755
 15   8.209042 0.615527 -0.255885 1.570090 -0.000290 -0.069646
 16   7.002735 -0.617911 -0.183641 0.012979 0.011033 -1.396147
 17   1.574674 0.609930 -0.000899 0.537323 -0.221609 0.407413
 18   -0.602177 0.511412 -0.000006 0.000000 0.000000 0.000000
 19   3.673773 0.177020 1.119313 -0.000002 -0.000014 -0.174510
 20   3.673767 0.176993 -1.117566 0.000007 -0.000003 -0.174546
 21   2.899356 1.193911 1.522186 0.000002 -0.000011 -0.000026
 22   -0.226528 -0.754099 0.477457 0.000194 -0.057459 0.890061
 23   2.918905 1.182217 -1.611551 0.000019 0.000002 -0.000024
 24   -0.078176 -0.558764 -0.547762 0.000187 -0.057484 0.890104
 25   4.117120 1.989525 1.648862 -0.064411 0.440688 0.014417
 26   4.117138 1.989553 -1.609878 0.071523 -0.408734 -0.041694
 27   3.305099 1.322380 1.487156 -0.000019 -0.000022 -0.000050
 28   3.303622 1.321986 -1.528487 -0.000002 -0.000009 -0.000024
 29   8.824059 0.150544 0.091743 0.078789 -0.031898 0.063020
 30   2.173587 -0.553366 1.647597 -0.002110 0.152116 0.010166
 31   2.215043 -0.561289 -1.752033 0.000383 -0.201410 0.011261
 32   -0.810489 -0.093824 3.127092 3.071872 -0.114782 1.239365
 33   14.298673 -0.408176 0.475484 0.000248 0.000062 -1.896136
 34   15.835795 0.581398 0.242756 -0.214729 0.106889 -0.097869
 35   -0.815868 -0.091229 -3.114430 0.066464 3.132725 -1.010185
 36   14.294526 -0.410349 -0.463635 0.000033 -0.000000 -2.607695
 37   15.834409 0.579420 -0.284600 -0.006092 -0.035255 0.214458
 38   1.182655 -3.473281 -2.823813 0.008188 -0.006122 0.018757
 39   -4.473368 -0.793127 -0.683678 0.010510 0.023238 -0.092803
 40   1.075131 -3.430237 3.237290 -0.003894 -0.007374 0.030364
 41   -4.297117 -0.891156 1.018162 0.001138 0.002253 -0.009199
 42   -0.583247 1.689489 -2.415168 0.068264 0.106347 -0.010288
 43   -0.664068 1.667327 2.627182 -0.080100 -0.120587 0.020785
time 16
  0   -0.967547 0.175787 -20.574476 0.000000 0.000000 -1.572114
  1   -1.093036 0.000002 -0.326057 -1.570757 -1.570379 -0.000171
  2   2.262337 0.113614 0.064702 -0.000052 0.000061 -0.051442
  3   2.380047 0.353302 0.047440 -0.151495 0.040540 0.258477
  4   2.033756 0.190472 -0.000128 -0.281702 0.059144 0.200421
  5   2.451511 0.204909 -0.003447 -0.155849 0.017633 0.111779
  6   7.247600 -0.397300 -0.109469 -0.000143 -0.183080 -0.122015
  7   -2.022252 -0.104661 3.136172 1.214814 -1.319920 -4.178409
  8   1.168026 -0.537438 -0.063437 -0.732174 0.360719 -0.760200
  9   6.790376 -0.619176 0.015206 -0.000213 -0.000151 -1.807372
 10   8.637599 0.544015 -0.090417 -1.655887 -0.256774 -0.101403
 11   6.790465 -0.619039 0.017802 0.003775 -0.011907 -1.280527
 12   -2.022474 -0.104699 -2.873818 0.076792 1.049705 -2.944589
 13   1.167898 -0.537463 0.063297 -0.232182 -0.859883 -0.241504
 14   7.002743 -0.617765 -0.183752 0.000286 0.000421 -1.967755
 15   8.209042 0.615527 -0.255885 1.570090 -0.000290 -0.069646
 16   7.002735 -0.617911 -0.183641 0.012979 0.011033 -1.396147
 17   1.574674 0.609930 -0.000899 0.537323 -0.221609 0.407635
 18   -0.602177 0.511412 -0.000006 0.000000 0.000000 0.000000
 19   3.654241 0.270773 1.119313 -0.000002 -0.000014 -0.174510
 20   3.654235 0.270746 -1.117566 0.000007 -0.000003 -0.174546
 21   3.352495 1.260319 1.576875 0.000002 -0.000011 -0.000026
 22   -0.238247 -0.379088 0.496989 0.000083 -0.028708 0.445010
 23   3.364231 1.256438 -1.623270 0.000019 0.000002 -0.000024
 24   -0.164116 -0.285318 -0.528230 0.000091 -0.028733 0.445062
 25   4.535101 1.997338 1.637143 -0.032209 0.220343 0.007203
 26   4.531213 1.997366 -1.621597 0.035749 -0.204340 -0.020853
 27   3.117593 1.466916 1.506688 -0.000019 -0.000022 -0.000050
 28   3.120023 1.466522 -1.508955 -0.000002 -0.000009 -0.000024
 29   8.824059 0.150544 0.091743 0.077808 -0.031375 0.060015
 30   2.173587 -0.553366 1.647597 -0.002083 0.150169 0.010038
 31   2.215043 -0.561289 -1.759846 0.000383 -0.198819 0.011134
 32   -0.810489 -0.093824 3.127092 3.071872 -0.114782 1.239365
 33   14.298673 -0.408176 0.475484 0.000248 0.000062 -1.896136
 34   15.835795 0.581398 0.242756 -0.214729 0.106889 -0.097869
 35   -0.815868 -0.091229 -3.114430 0.066464 3.132725 -1.010185
 36   14.294526 -0.410349 -0.463635 0.000033 -0.000000 -2.607695
 37   15.834409 0.579420 -0.284600 -0.006092 -0.035255 0.214458
 38   1.178749 -3.473281 -2.823813 0.008104 -0.006037 0.018574
 39   -4.473368 -0.793127 -0.687584 0.010391 0.022939 -0.091625
 40   1.079037 -3.430237 3.237290 -0.003852 -0.007302 0.030059
 41   -4.297117 -0.891156 1.018162 0.001126 0.002229 -0.009115
 42   -0.583247 1.689489 -2.415168 0.067389 0.104998 -0.010163
 43   -0.664068 1.667327 2.627182 -0.079063 -0.119049 0.020534
time 17
  0   -0.967547 0.175787 -20.574476 0.000000 0.000000 -1.572114
  1   -1.093036 0.000002 -0.326057 -1.570757 -1.570379 -0.000171
  2   2.262337 0.113614 0.064702 -0.000052 0.000061 -0.051442
  3   2.380047 0.353302 0.047440 -0.151495 0.040540 0.258477
  4   2.033756 0.190472 -0.000128 -0.281739 0.058844 0.199841
  5   2.451511 0.204909 -0.003447 -0.155849 0.017633 0.111779
  6   7.247600 -0.397300 -0.109469 -0.000143 -0.183080 -0.122015
  7   -2.022252 -0.104661 3.136172 1.241655 -1.322428 -4.205550
  8   1.168026 -0.537438 -0.063437 -0.737869 0.365851 -0.764059
  9   6.790376 -0.619176 0.015206 -0.000213 -0.000352 -1.807372
 10   8.637599 0.544015 -0.090417 -1.655447 -0.245934 -0.102705
 11   6.790465 -0.619039 0.017802 0.003775 -0.011907 -1.280527
 12   -2.022474 -0.104699 -2.873818 0.077271 1.053130 -2.944014
 13   1.167898 -0.537463 0.063297 -0.231690 -0.863442 -0.241504
 14   7.002743 -0.617765 -0.183752 0.000286 0.000421 -1.967755
 15   8.209042 0.615527 -0.255885 1.570090 -0.000290 -0.069646
 16   7.002735 -0.617911 -0.183641 0.012979 0.011033 -1.396147
 17   1.574674 0.609930 -0.000899 0.537445 -0.221751 0.408374
 18   -0.602177 0.511412 -0.000006 0.000000 0.000000 0.000000
 19   3.646428 0.364526 1.119313 -0.000002 -0.000014 -0.174510
 20   3.646422 0.364499 -1.117566 0.000007 -0.000003 -0.174546
 21   3.805634 1.330634 1.627658 0.000002 -0.000011 -0.000026
 22   -0.246060 -0.011889 0.516521 -0.000011 0.000031 0.000025
 23   3.805651 1.330659 -1.631083 0.000019 0.000002 -0.000024
 24   -0.246150 -0.011872 -0.516511 -0.000005 -0.000006 0.000048
 25   4.941364 1.997338 1.629330 0.000018 -0.000001 -0.000024
 26   4.941382 1.997366 -1.629410 -0.000001 0.000005 -0.000024
 27   2.930087 1.603639 1.514501 -0.000019 -0.000022 -0.000050
 28   2.932517 1.603245 -1.501142 -0.000002 -0.000009 -0.000024
 29   8.824059 0.150544 0.091743 0.075135 -0.029951 0.051593
 30   2.169681 -0.553366 1.651503 -0.002015 0.144677 0.009652
 31   2.215043 -0.561289 -1.759846 0.000368 -0.191619 0.010715
 32   -0.810489 -0.093824 3.127092 3.071872 -0.114782 1.239365
 33   14.298673 -0.408176 0.475484 0.000248 0.000062 -1.896136
 34   15.835795 0.581398 0.242756 -0.214729 0.106889 -0.097869
 35   -0.815868 -0.091229 -3.114430 0.066464 3.132725 -1.010185
 36   14.294526 -0.410349 -0.463635 0.000033 -0.000000 -2.607695
 37   15.834409 0.579420 -0.284600 -0.006092 -0.035255 0.214458
 38   1.178749 -3.473281 -2.823813 0.007788 -0.005808 0.017902
 39   -4.473368 -0.800940 -0.687584 0.009995 0.022112 -0.088288
 40   1.079037 -3.430237 3.237290 -0.003726 -0.007037 0.028959
 41   -4.301023 -0.902875 1.010349 0.001078 0.002145 -0.008778
 42   -0.587153 1.689489 -2.426887 0.064944 0.101180 -0.009744
 43   -0.664068 1.667327 2.638901 -0.076214 -0.114734 0.019781
time 18
  0   -0.967547 0.175787 -20.574476 0.000000 0.000000 -1.572114
  1   -1.093036 0.000002 -0.326057 -1.570757 -1.570379 -0.000171
  2   2.262337 0.113614 0.064702 -0.000052 0.000061 -0.051442
  3   2.380047 0.353302 0.047440 -0.151495 0.040540 0.258477
  4   2.033756 0.190472 -0.000128 -0.281831 0.058689 0.198681
  5   2.451511 0.204909 -0.003447 -0.155849 0.017633 0.111779
  6   7.247600 -0.397300 -0.109469 -0.000143 -0.183080 -0.122015
  7   -2.022252 -0.104661 3.136172 1.269837 -1.324647 -4.235039
  8   1.168026 -0.537438 -0.063437 -0.743691 0.370782 -0.767981
  9   6.790376 -0.619176 0.015206 -0.000213 -0.000151 -1.807372
 10   8.637599 0.544015 -0.090417 -1.655359 -0.235094 -0.103501
 11   6.790465 -0.619039 0.017802 0.003775 -0.011907 -1.280527
 12   -2.022474 -0.104699 -2.873818 0.077750 1.058587 -2.943057
 13   1.167898 -0.537463 0.063297 -0.231479 -0.868680 -0.241504
 14   7.002743 -0.617765 -0.183752 0.000286 0.000421 -1.967755
 15   8.209042 0.615527 -0.255885 1.570090 -0.000290 -0.069646
 16   7.002735 -0.617911 -0.183641 0.012979 0.011033 -1.396147
 17   1.574674 0.609930 -0.000899 0.537526 -0.221964 0.409262
 18   -0.602177 0.511412 -0.000006 0.000000 0.000000 0.000000
 19   3.646428 0.364526 1.119313 -0.000002 -0.000014 -0.174510
 20   3.646422 0.364499 -1.117566 0.000007 -0.000003 -0.174546
 21   3.805634 1.330634 1.627658 0.000002 -0.000011 -0.000026
 22   -0.246060 -0.011889 0.516521 -0.000011 0.000031 0.000025
 23   3.805651 1.330659 -1.631083 0.000019 0.000002 -0.000024
 24   -0.246150 -0.011872 -0.516511 -0.000005 -0.000006 0.000048
 25   4.941364 1.997338 1.629330 0.000018 -0.000001 -0.000024
 26   4.941382 1.997366 -1.629410 -0.000001 0.000005 -0.000024
 27   2.930087 1.603639 1.514501 -0.000019 -0.000022 -0.000050
 28   2.932517 1.603245 -1.501142 -0.000002 -0.000009 -0.000024
 29   8.824059 0.150544 0.091743 0.070946 -0.027743 0.038503
 30   2.165774 -0.553366 1.659316 -0.001893 0.136221 0.009116
 31   2.207230 -0.561289 -1.763752 0.000337 -0.180429 0.010078
 32   -0.810489 -0.093824 3.127092 3.071872 -0.114782 1.239365
 33   14.298673 -0.408176 0.475484 0.000248 0.000062 -1.896136
 34   15.835795 0.581398 0.242756 -0.214729 0.106889 -0.097869
 35   -0.815868 -0.091229 -3.114430 0.066464 3.132725 -1.010185
 36   14.294526 -0.410349 -0.463635 0.000033 -0.000000 -2.607695
 37   15.834409 0.579420 -0.284600 -0.006092 -0.035255 0.214458
 38   1.178749 -3.465468 -2.823813 0.007346 -0.005471 0.016802
 39   -4.473368 -0.820472 -0.695397 0.009432 0.020817 -0.083156
 40   1.079037 -3.438050 3.237290 -0.003473 -0.006627 0.027248
 41   -4.308836 -0.910688 1.010349 0.001018 0.002013 -0.008273
 42   -0.594966 1.689489 -2.438606 0.061157 0.095277 -0.009201
 43   -0.664068 1.667327 2.650620 -0.071766 -0.108033 0.018610
time 19
  0   -0.967547 0.175787 -20.574476 0.000000 0.000000 -1.572114
  1   -1.093036 0.000002 -0.326057 -1.570757 -1.570379 -0.000171
  2   2.262337 0.113614 0.064702 -0.000052 0.000061 -0.051442
  3   2.380047 0.353302 0.047440 -0.151495 0.040540 0.258477
  4   2.033756 0.190472 -0.000128 -0.281868 0.058281 0.197521
  5   2.451511 0.204909 -0.003447 -0.155849 0.017633 0.111779
  6   7.247600 -0.397300 -0.109469 -0.000143 -0.183080 -0.122015
  7   -2.022252 -0.104661 3.136172 1.297540 -1.326694 -4.263682
  8   1.168026 -0.537438 -0.063437 -0.749449 0.376417 -0.771587
  9   6.790376 -0.619176 0.015206 -0.000213 -0.000151 -1.807372
 10   8.637599 0.544015 -0.090417 -1.655095 -0.223057 -0.104586
 11   6.790465 -0.619039 0.017802 0.003775 -0.011907 -1.280527
 12   -2.022474 -0.104699 -2.873818 0.078804 1.065639 -2.942004
 13   1.167898 -0.537463 0.063297 -0.230495 -0.875444 -0.241746
 14   7.002743 -0.617765 -0.183752 0.000286 0.000421 -1.967755
 15   8.209042 0.615527 -0.255885 1.570090 -0.000290 -0.069646
 16   7.002735 -0.617911 -0.183641 0.012979 0.011033 -1.396147
 17   1.574674 0.609930 -0.000899 0.537607 -0.222319 0.410518
 18   -0.602177 0.511412 -0.000006 0.000000 0.000000 0.000000
 19   3.646428 0.364526 1.119313 -0.000002 -0.000014 -0.174510
 20   3.646422 0.364499 -1.117566 0.000007 -0.000003 -0.174546
 21   3.805634 1.330634 1.627658 0.000002 -0.000011 -0.000026
 22   -0.246060 -0.011889 0.516521 -0.000011 0.000031 0.000025
 23   3.805651 1.330659 -1.631083 0.000019 0.000002 -0.000024
 24   -0.246150 -0.011872 -0.516511 -0.000005 -0.000006 0.000048
 25   4.941364 1.997338 1.629330 0.000018 -0.000001 -0.000024
 26   4.941382 1.997366 -1.629410 -0.000001 0.000005 -0.000024
 27   2.930087 1.603639 1.514501 -0.000019 -0.000022 -0.000050
 28   2.932517 1.603245 -1.501142 -0.000002 -0.000009 -0.000024
 29   8.824059 0.150544 0.091743 0.065599 -0.024990 0.021550
 30   2.161868 -0.553366 1.671035 -0.001744 0.125323 0.008387
 31   2.195511 -0.561289 -1.771565 0.000322 -0.166080 0.009296
 32   -0.810489 -0.093824 3.127092 3.071872 -0.114782 1.239365
 33   14.298673 -0.408176 0.475484 0.000248 0.000062 -1.896136
 34   15.835795 0.581398 0.242756 -0.214729 0.106889 -0.097869
 35   -0.815868 -0.091229 -3.114430 0.066464 3.132725 -1.010185
 36   14.294526 -0.410349 -0.463635 0.000033 -0.000000 -2.607695
 37   15.834409 0.579420 -0.284600 -0.006092 -0.035255 0.214458
 38   1.178749 -3.465468 -2.823813 0.006778 -0.005037 0.015519
 39   -4.473368 -0.836097 -0.695397 0.008677 0.019151 -0.076509
 40   1.079037 -3.438050 3.237290 -0.003221 -0.006097 0.025110
 41   -4.316648 -0.922407 1.002536 0.000934 0.001870 -0.007628
 42   -0.594966 1.689489 -2.458138 0.056304 0.087703 -0.008490
 43   -0.664068 1.671233 2.670152 -0.066044 -0.099435 0.017147
time 20
  0   -0.967547 0.175787 -20.574476 0.000000 0.000000 -1.572114
  1   -1.093036 0.000002 -0.326057 -1.570757 -1.570379 -0.000123
  2   2.262337 0.113614 0.064702 -0.000052 0.000061 -0.051442
  3   2.380047 0.353302 0.047440 -0.151495 0.040540 0.258477
  4   2.033756 0.190472 -0.000128 -0.281997 0.057874 0.195890
  5   2.451511 0.204909 -0.003447 -0.155849 0.017633 0.111779
  6   7.247600 -0.397300 -0.109469 -0.000131 -0.183080 -0.122015
  7   -2.022252 -0.104661 3.136172 1.322655 -1.328395 -4.289227
  8   1.168026 -0.537438 -0.063437 -0.754322 0.381499 -0.774750
  9   6.790376 -0.619176 0.015206 -0.000213 -0.000151 -1.807372
 10   8.637599 0.544015 -0.090417 -1.654654 -0.209472 -0.105816
 11   6.790465 -0.619039 0.017802 0.003775 -0.011907 -1.280527
 12   -2.022474 -0.104699 -2.873818 0.080241 1.074550 -2.940472
 13   1.167898 -0.537463 0.063297 -0.229581 -0.883936 -0.241746
 14   7.002743 -0.617765 -0.183752 0.000286 0.000421 -1.967755
 15   8.209042 0.615527 -0.255885 1.570090 -0.000290 -0.069646
 16   7.002735 -0.617911 -0.183641 0.012979 0.011033 -1.396147
 17   1.574674 0.609930 -0.000899 0.537811 -0.222674 0.411923
 18   -0.602177 0.511412 -0.000006 0.000000 0.000000 0.000000
 19   3.646428 0.364526 1.119313 -0.000002 -0.000014 -0.174510
 20   3.646422 0.364499 -1.117566 0.000007 -0.000003 -0.174546
 21   3.805634 1.330634 1.627658 0.000002 -0.000011 -0.000026
 22   -0.246060 -0.011889 0.516521 -0.000011 0.000031 0.000025
 23   3.805651 1.330659 -1.631083 0.000019 0.000002 -0.000024
 24   -0.246150 -0.011872 -0.516511 -0.000005 -0.000006 0.000048
 25   4.941364 1.997338 1.629330 0.000018 -0.000001 -0.000024
 26   4.941382 1.997366 -1.629410 -0.000001 0.000005 -0.000024
 27   2.930087 1.603639 1.514501 -0.000019 -0.000022 -0.000050
 28   2.932517 1.603245 -1.501142 -0.000002 -0.000009 -0.000024
 29   8.824059 0.150544 0.091743 0.059093 -0.021928 0.001754
 30   2.154055 -0.553366 1.682754 -0.001554 0.112507 0.007550
 31   2.191605 -0.561289 -1.783284 0.000276 -0.149166 0.008350
 32   -0.810489 -0.093824 3.127092 3.071872 -0.114782 1.239365
 33   14.298673 -0.408176 0.475484 0.000248 0.000062 -1.896136
 34   15.835795 0.581398 0.242756 -0.214729 0.106889 -0.097869
 35   -0.815868 -0.091229 -3.114430 0.066464 3.132725 -1.010185
 36   14.294526 -0.410349 -0.463635 0.000033 -0.000000 -2.607695
 37   15.834409 0.579420 -0.284600 -0.006092 -0.035255 0.214458
 38   1.170936 -3.465468 -2.823813 0.006062 -0.004519 0.013931
 39   -4.473368 -0.855629 -0.707116 0.007790 0.017222 -0.068740
 40   1.086850 -3.438050 3.237290 -0.002884 -0.005470 0.022544
 41   -4.332274 -0.934126 1.002536 0.000838 0.001678 -0.006815
 42   -0.606685 1.689489 -2.481576 0.050575 0.078764 -0.007611
 43   -0.664068 1.679046 2.689684 -0.059322 -0.089314 0.015390
time 21
  0   -0.967547 0.175787 -20.574476 0.000000 0.000000 -1.572114
  1   -1.093036 0.000002 -0.326057 -1.570757 -1.570379 -0.000123
  2   2.262337 0.113614 0.064702 -0.000052 0.000061 -0.051442
  3   2.380047 0.353302 0.047440 -0.151495 0.040540 0.258477
  4   2.033756 0.190472 -0.000128 -0.282071 0.057227 0.194150
  5   2.451511 0.204909 -0.003447 -0.155849 0.017633 0.111779
  6   7.247600 -0.397300 -0.109469 -0.000143 -0.183080 -0.122015
  7   -2.022252 -0.104661 3.136172 1.345469 -1.329692 -4.312799
  8   1.168026 -0.537438 -0.063437 -0.758815 0.386631 -0.777660
  9   6.790376 -0.619176 0.015206 -0.000213 -0.000151 -1.807372
 10   8.637599 0.544015 -0.090417 -1.654566 -0.189340 -0.107335
 11   6.790465 -0.619039 0.017802 0.003775 -0.011907 -1.280527
 12   -2.022474 -0.104699 -2.873818 0.081774 1.084128 -2.938653
 13   1.167898 -0.537463 0.063297 -0.228808 -0.893395 -0.241988
 14   7.002743 -0.617765 -0.183752 0.000286 0.000421 -1.967755
 15   8.209042 0.615527 -0.255885 1.570090 -0.000290 -0.069646
 16   7.002735 -0.617911 -0.183641 0.012979 0.011033 -1.396147
 17   1.574674 0.609930 -0.000899 0.538014 -0.223029 0.413808
 18   -0.602177 0.511412 -0.000006 0.000000 0.000000 0.000000
 19   3.646428 0.364526 1.119313 -0.000002 -0.000014 -0.174510
 20   3.646422 0.364499 -1.117566 0.000007 -0.000003 -0.174546
 21   3.805634 1.330634 1.627658 0.000002 -0.000011 -0.000026
 22   -0.246060 -0.011889 0.516521 -0.000011 0.000031 0.000025
 23   3.805651 1.330659 -1.631083 0.000019 0.000002 -0.000024
 24   -0.246150 -0.011872 -0.516511 -0.000005 -0.000006 0.000048
 25   4.941364 1.997338 1.629330 0.000018 -0.000001 -0.000024
 26   4.941382 1.997366 -1.629410 -0.000001 0.000005 -0.000024
 27   2.930087 1.603639 1.514501 -0.000019 -0.000022 -0.000050
 28   2.932517 1.603245 -1.501142 -0.000002 -0.000009 -0.000024
 29   8.824059 0.150544 0.091743 0.051963 -0.018628 -0.020242
 30   2.150149 -0.561179 1.698380 -0.001378 0.098326 0.006607
 31   2.183792 -0.561289 -1.791097 0.000245 -0.130491 0.007313
 32   -0.810489 -0.093824 3.127092 3.071872 -0.114782 1.239365
 33   14.298673 -0.408176 0.475484 0.000248 0.000062 -1.896136
 34   15.835795 0.581398 0.242756 -0.214729 0.106889 -0.097869
 35   -0.815868 -0.091229 -3.114430 0.066464 3.132725 -1.010185
 36   14.294526 -0.410349 -0.463635 0.000033 -0.000000 -2.607695
 37   15.834409 0.579420 -0.284600 -0.006092 -0.035255 0.214458
 38   1.167030 -3.461562 -2.823813 0.005304 -0.003965 0.012159
 39   -4.465555 -0.886880 -0.707116 0.006807 0.015065 -0.060130
 40   1.090756 -3.441956 3.237290 -0.002526 -0.004771 0.019734
 41   -4.343993 -0.953658 0.990817 0.000718 0.001450 -0.005974
 42   -0.614498 1.689489 -2.508921 0.044223 0.068921 -0.006650
 43   -0.664068 1.679046 2.713122 -0.051888 -0.078126 0.013466
time 22
  0   -0.967547 0.175787 -20.574476 0.000000 0.000000 -1.572114
  1   -1.093036 0.000002 -0.326057 -1.570757 -1.570379 -0.000123
  2   2.262337 0.113614 0.064702 -0.000052 0.000061 -0.051442
  3   2.380047 0.353302 0.047440 -0.151495 0.040540 0.258477
  4   2.033756 0.190472 -0.000128 -0.282200 0.056759 0.192229
  5   2.451511 0.204909 -0.003447 -0.155849 0.017633 0.111779
  6   7.247600 -0.397300 -0.109469 -0.000131 -0.183080 -0.122015
  7   -2.022252 -0.104661 3.136172 1.368379 -1.330903 -4.336277
  8   1.168026 -0.537438 -0.063437 -0.763308 0.391612 -0.780823
  9   6.790376 -0.619176 0.015206 -0.000213 -0.000151 -1.807372
 10   8.637599 0.544015 -0.090417 -1.654126 -0.163507 -0.109650
 11   6.790465 -0.619039 0.017802 0.003775 -0.011907 -1.280527
 12   -2.022474 -0.104699 -2.873818 0.083307 1.094895 -2.936834
 13   1.167898 -0.537463 0.063297 -0.227683 -0.904277 -0.242412
 14   7.002743 -0.617765 -0.183752 0.000286 0.000421 -1.967755
 15   8.209042 0.615527 -0.255885 1.570090 -0.000290 -0.069646
 16   7.002735 -0.617911 -0.183641 0.012979 0.011033 -1.396147
 17   1.574674 0.609930 -0.000899 0.538298 -0.223526 0.415656
 18   -0.602177 0.511412 -0.000006 0.000000 0.000000 0.000000
 19   3.646428 0.364526 1.119313 -0.000002 -0.000014 -0.174510
 20   3.646422 0.364499 -1.117566 0.000007 -0.000003 -0.174546
 21   3.805634 1.330634 1.627658 0.000002 -0.000011 -0.000026
 22   -0.246060 -0.011889 0.516521 -0.000011 0.000031 0.000025
 23   3.805651 1.330659 -1.631083 0.000019 0.000002 -0.000024
 24   -0.246150 -0.011872 -0.516511 -0.000005 -0.000006 0.000048
 25   4.941364 1.997338 1.629330 0.000018 -0.000001 -0.000024
 26   4.941382 1.997366 -1.629410 -0.000001 0.000005 -0.000024
 27   2.930087 1.603639 1.514501 -0.000019 -0.000022 -0.000050
 28   2.932517 1.603245 -1.501142 -0.000002 -0.000009 -0.000024
 29   8.824059 0.150544 0.091743 0.044210 -0.015305 -0.043579
 30   2.142336 -0.561179 1.710099 -0.001161 0.083331 0.005578
 31   2.172073 -0.561289 -1.802816 0.000215 -0.110755 0.006203
 32   -0.810489 -0.093824 3.127092 3.071872 -0.114782 1.239365
 33   14.298673 -0.408176 0.475484 0.000248 0.000062 -1.896136
 34   15.835795 0.581398 0.242756 -0.214729 0.106889 -0.097869
 35   -0.815868 -0.091229 -3.114430 0.066464 3.132725 -1.010185
 36   14.294526 -0.410349 -0.463635 0.000033 -0.000000 -2.607695
 37   15.834409 0.579420 -0.284600 -0.006092 -0.035255 0.214458
 38   1.159217 -3.461562 -2.823813 0.004505 -0.003350 0.010326
 39   -4.465555 -0.910318 -0.714929 0.005789 0.012776 -0.051015
 40   1.098569 -3.441956 3.237290 -0.002126 -0.004048 0.016740
 41   -4.355712 -0.965377 0.990817 0.000610 0.001234 -0.005048
 42   -0.618404 1.697302 -2.536265 0.037548 0.058464 -0.005646
 43   -0.664068 1.679046 2.736560 -0.044042 -0.066310 0.011417
time 23
  0   -0.967547 0.175787 -20.574476 0.000000 0.000000 -1.572114
  1   -1.093036 0.000002 -0.326057 -1.570757 -1.570379 -0.000171
  2   2.262337 0.113614 0.064702 -0.000052 0.000061 -0.051442
  3   2.380047 0.353302 0.047440 -0.151495 0.040540 0.258477
  4   2.033756 0.190472 -0.000128 -0.282329 0.056184 0.190127
  5   2.451511 0.204909 -0.003447 -0.155849 0.017633 0.111779
  6   7.247600 -0.397300 -0.109469 -0.000131 -0.183080 -0.122015
  7   -2.022252 -0.104661 3.136172 1.391001 -1.332056 -4.359756
  8   1.168026 -0.537438 -0.063437 -0.767611 0.397046 -0.783543
  9   6.790376 -0.619176 0.015206 -0.000213 -0.000352 -1.807372
 10   8.637599 0.544015 -0.090417 -1.653862 -0.138237 -0.112182
 11   6.790465 -0.619039 0.017802 0.003775 -0.011907 -1.280527
 12   -2.022474 -0.104699 -2.873818 0.085223 1.106505 -2.934727
 13   1.167898 -0.537463 0.063297 -0.226488 -0.915516 -0.242412
 14   7.002743 -0.617765 -0.183752 0.000286 0.000421 -1.967755
 15   8.209042 0.615527 -0.255885 1.570090 -0.000290 -0.069646
 16   7.002735 -0.617911 -0.183641 0.012979 0.011033 -1.396147
 17   1.574674 0.609930 -0.000899 0.538501 -0.223881 0.417726
 18   -0.602177 0.511412 -0.000006 0.000000 0.000000 0.000000
 19   3.646428 0.364526 1.119313 -0.000002 -0.000014 -0.174510
 20   3.646422 0.364499 -1.117566 0.000007 -0.000003 -0.174546
 21   3.805634 1.330634 1.627658 0.000002 -0.000011 -0.000026
 22   -0.246060 -0.011889 0.516521 -0.000011 0.000031 0.000025
 23   3.805651 1.330659 -1.631083 0.000019 0.000002 -0.000024
 24   -0.246150 -0.011872 -0.516511 -0.000005 -0.000006 0.000048
 25   4.941364 1.997338 1.629330 0.000018 -0.000001 -0.000024
 26   4.941382 1.997366 -1.629410 -0.000001 0.000005 -0.000024
 27   2.930087 1.603639 1.514501 -0.000019 -0.000022 -0.000050
 28   2.932517 1.603245 -1.501142 -0.000002 -0.000009 -0.000024
 29   8.824059 0.150544 0.091743 0.036367 -0.012124 -0.067345
 30   2.138430 -0.561179 1.721818 -0.000944 0.068074 0.004570
 31   2.160354 -0.561289 -1.814535 0.000184 -0.090655 0.005075
 32   -0.810489 -0.093824 3.127092 3.071872 -0.114782 1.239365
 33   14.298673 -0.408176 0.475484 0.000248 0.000062 -1.896136
 34   15.835795 0.581398 0.242756 -0.214729 0.106889 -0.097869
 35   -0.815868 -0.091229 -3.114430 0.066464 3.132725 -1.010185
 36   14.294526 -0.410349 -0.463635 0.000033 -0.000000 -2.607695
 37   15.834409 0.579420 -0.284600 -0.006092 -0.035255 0.214458
 38   1.159217 -3.461562 -2.823813 0.003684 -0.002748 0.008371
 39   -4.465555 -0.937663 -0.718835 0.004734 0.010463 -0.041760
 40   1.098569 -3.441956 3.237290 -0.001726 -0.003325 0.013624
 41   -4.371338 -0.988815 0.979098 0.000490 0.001019 -0.004151
 42   -0.626217 1.697302 -2.563610 0.030717 0.047854 -0.004558
 43   -0.664068 1.686859 2.763905 -0.036033 -0.054275 0.009284
time 24
  0   -0.967547 0.175787 -20.574476 0.000000 0.000000 -1.572114
  1   -1.093036 0.000002 -0.326057 -1.570757 -1.570379 -0.000171
  2   2.262337 0.113614 0.064702 -0.000052 0.000061 -0.051442
  3   2.380047 0.353302 0.047440 -0.151495 0.040540 0.258477
  4   2.033756 0.190472 -0.000128 -0.282458 0.055549 0.187988
  5   2.451511 0.204909 -0.003447 -0.155849 0.017633 0.111779
  6   7.247600 -0.397300 -0.109469 -0.000143 -0.183080 -0.122015
  7   -2.022252 -0.104661 3.136172 1.412953 -1.332892 -4.382201
  8   1.168026 -0.537438 -0.063437 -0.771661 0.402027 -0.786453
  9   6.790376 -0.619176 0.015206 -0.000213 -0.000151 -1.807372
 10   8.637599 0.544015 -0.090417 -1.653686 -0.120780 -0.113629
 11   6.790465 -0.619039 0.017802 0.003775 -0.011907 -1.280527
 12   -2.022474 -0.104699 -2.873818 0.087235 1.118724 -2.932334
 13   1.167898 -0.537463 0.063297 -0.225364 -0.927060 -0.242775
 14   7.002743 -0.617765 -0.183752 0.000286 0.000421 -1.967755
 15   8.209042 0.615527 -0.255885 1.570090 -0.000290 -0.069646
 16   7.002735 -0.617911 -0.183641 0.012979 0.011033 -1.396147
 17   1.574674 0.609930 -0.000899 0.538704 -0.224378 0.419869
 18   -0.602177 0.511412 -0.000006 0.000000 0.000000 0.000000
 19   3.646428 0.364526 1.119313 -0.000002 -0.000014 -0.174510
 20   3.646422 0.364499 -1.117566 0.000007 -0.000003 -0.174546
 21   3.805634 1.330634 1.627658 0.000002 -0.000011 -0.000026
 22   -0.246060 -0.011889 0.516521 -0.000011 0.000031 0.000025
 23   3.805651 1.330659 -1.631083 0.000019 0.000002 -0.000024
 24   -0.246150 -0.011872 -0.516511 -0.000005 -0.000006 0.000048
 25   4.941364 1.997338 1.629330 0.000018 -0.000001 -0.000024
 26   4.941382 1.997366 -1.629410 -0.000001 0.000005 -0.000024
 27   2.930087 1.603639 1.514501 -0.000019 -0.000022 -0.000050
 28   2.932517 1.603245 -1.501142 -0.000002 -0.000009 -0.000024
 29   8.824059 0.150544 0.091743 0.028525 -0.009228 -0.090682
 30   2.130617 -0.561179 1.741350 -0.000727 0.053079 0.003583
 31   2.152541 -0.561289 -1.822348 0.000138 -0.070866 0.003965
 32   -0.810489 -0.093824 3.127092 3.071872 -0.114782 1.239365
 33   14.298673 -0.408176 0.475484 0.000248 0.000062 -1.896136
 34   15.835795 0.581398 0.242756 -0.214729 0.106889 -0.097869
 35   -0.815868 -0.091229 -3.114430 0.066464 3.132725 -1.010185
 36   14.294526 -0.410349 -0.463635 0.000033 -0.000000 -2.607695
 37   15.834409 0.579420 -0.284600 -0.006092 -0.035255 0.214458
 38   1.155311 -3.453749 -2.823813 0.002884 -0.002145 0.006538
 39   -4.457742 -0.961101 -0.726648 0.003691 0.008162 -0.032645
 40   1.106382 -3.449769 3.237290 -0.001347 -0.002602 0.010692
 41   -4.386963 -1.000534 0.979098 0.000383 0.000791 -0.003225
 42   -0.637936 1.697302 -2.594861 0.024017 0.037413 -0.003597
 43   -0.664068 1.690765 2.787343 -0.028187 -0.042428 0.007319
time 25
  0   -0.967547 0.175787 -20.574476 0.000000 0.000000 -1.572114
  1   -1.093036 0.000002 -0.326057 -1.570757 -1.570379 -0.000171
  2   2.262337 0.113614 0.064702 -0.000052 0.000061 -0.051442
  3   2.380047 0.353302 0.047440 -0.151495 0.040540 0.258477
  4   2.033756 0.190472 -0.000128 -0.282569 0.054806 0.185632
  5   2.451511 0.204909 -0.003447 -0.155849 0.017633 0.111779
  6   7.247600 -0.397300 -0.109469 -0.000143 -0.183080 -0.122015
  7   -2.022252 -0.104661 3.136172 1.433275 -1.333641 -4.403332
  8   1.168026 -0.537438 -0.063437 -0.775711 0.407310 -0.789110
  9   6.790376 -0.619176 0.015206 -0.000213 -0.000151 -1.807372
 10   8.637599 0.544015 -0.090417 -1.653686 -0.117894 -0.113846
 11   6.790465 -0.619039 0.017802 0.003775 -0.011907 -1.280527
 12   -2.022474 -0.104699 -2.873818 0.089726 1.131088 -2.929845
 13   1.167898 -0.537463 0.063297 -0.223887 -0.939417 -0.243138
 14   7.002743 -0.617765 -0.183752 0.000286 0.000421 -1.967755
 15   8.209042 0.615527 -0.255885 1.570090 -0.000290 -0.069646
 16   7.002735 -0.617911 -0.183641 0.012979 0.011033 -1.396147
 17   1.574674 0.609930 -0.000899 0.538989 -0.224946 0.422161
 18   -0.602177 0.511412 -0.000006 0.000000 0.000000 0.000000
 19   3.646428 0.364526 1.119313 -0.000002 -0.000014 -0.174510
 20   3.646422 0.364499 -1.117566 0.000007 -0.000003 -0.174546
 21   3.805634 1.330634 1.627658 0.000002 -0.000011 -0.000026
 22   -0.246060 -0.011889 0.516521 -0.000011 0.000031 0.000025
 23   3.805651 1.330659 -1.631083 0.000019 0.000002 -0.000024
 24   -0.246150 -0.011872 -0.516511 -0.000005 -0.000006 0.000048
 25   4.941364 1.997338 1.629330 0.000018 -0.000001 -0.000024
 26   4.941382 1.997366 -1.629410 -0.000001 0.000005 -0.000024
 27   2.930087 1.603639 1.514501 -0.000019 -0.000022 -0.000050
 28   2.932517 1.603245 -1.501142 -0.000002 -0.000009 -0.000024
 29   8.824059 0.150544 0.091743 0.021038 -0.006617 -0.112785
 30   2.122804 -0.561179 1.753069 -0.000537 0.038927 0.002640
 31   2.140822 -0.561289 -1.834067 0.000092 -0.052191 0.002891
 32   -0.810489 -0.093824 3.127092 3.071872 -0.114782 1.239365
 33   14.298673 -0.408176 0.475484 0.000248 0.000062 -1.896136
 34   15.835795 0.581398 0.242756 -0.214729 0.106889 -0.097869
 35   -0.815868 -0.091229 -3.114430 0.066464 3.132725 -1.010185
 36   14.294526 -0.410349 -0.463635 0.000033 -0.000000 -2.607695
 37   15.834409 0.579420 -0.284600 -0.006092 -0.035255 0.214458
 38   1.147498 -3.453749 -2.823813 0.002126 -0.001579 0.004766
 39   -4.457742 -0.992352 -0.734461 0.002721 0.006016 -0.024035
 40   1.110288 -3.449769 3.237290 -0.000989 -0.001903 0.007820
 41   -4.402589 -1.020066 0.967379 0.000287 0.000575 -0.002384
 42   -0.637936 1.697302 -2.618299 0.017689 0.027570 -0.002635
 43   -0.664068 1.690765 2.806875 -0.020753 -0.031240 0.005395
time 26
  0   -0.967547 0.175787 -20.574476 0.000000 0.000000 -1.572114
  1   -1.093036 0.000002 -0.326057 -1.570757 -1.570379 -0.000171
  2   2.262337 0.113614 0.064702 -0.000052 0.000061 -0.051442
  3   2.380047 0.353302 0.047440 -0.151495 0.040540 0.258477
  4   2.033756 0.190472 -0.000128 -0.282698 0.054123 0.183530
  5   2.451511 0.204909 -0.003447 -0.155849 0.017633 0.111779
  6   7.247600 -0.397300 -0.109469 -0.000131 -0.183080 -0.122015
  7   -2.022252 -0.104661 3.136172 1.451775 -1.334247 -4.422208
  8   1.168026 -0.537438 -0.063437 -0.778875 0.411788 -0.791514
  9   6.790376 -0.619176 0.015206 -0.000213 -0.000352 -1.807372
 10   8.637599 0.544015 -0.090417 -1.653686 -0.133450 -0.112327
 11   6.790465 -0.619039 0.017802 0.003775 -0.011907 -1.280527
 12   -2.022474 -0.104699 -2.873818 0.091834 1.143220 -2.927355
 13   1.167898 -0.537463 0.063297 -0.222974 -0.951164 -0.243683
 14   7.002743 -0.617765 -0.183752 0.000286 0.000421 -1.967755
 15   8.209042 0.615527 -0.255885 1.570090 -0.000290 -0.069646
 16   7.002735 -0.617911 -0.183641 0.012979 0.011033 -1.396147
 17   1.574674 0.609930 -0.000899 0.539192 -0.225443 0.424416
 18   -0.602177 0.511412 -0.000006 0.000000 0.000000 0.000000
 19   3.646428 0.364526 1.119313 -0.000002 -0.000014 -0.174510
 20   3.646422 0.364499 -1.117566 0.000007 -0.000003 -0.174546
 21   3.805634 1.330634 1.627658 0.000002 -0.000011 -0.000026
 22   -0.246060 -0.011889 0.516521 -0.000011 0.000031 0.000025
 23   3.805651 1.330659 -1.631083 0.000019 0.000002 -0.000024
 24   -0.246150 -0.011872 -0.516511 -0.000005 -0.000006 0.000048
 25   4.941364 1.997338 1.629330 0.000018 -0.000001 -0.000024
 26   4.941382 1.997366 -1.629410 -0.000001 0.000005 -0.000024
 27   2.930087 1.603639 1.514501 -0.000019 -0.000022 -0.000050
 28   2.932517 1.603245 -1.501142 -0.000002 -0.000009 -0.000024
 29   8.824059 0.150544 0.091743 0.014265 -0.004409 -0.132849
 30   2.118898 -0.561179 1.764788 -0.000361 0.026111 0.001804
 31   2.133009 -0.561289 -1.837973 0.000046 -0.035330 0.001945
 32   -0.810489 -0.093824 3.127092 3.071872 -0.114782 1.239365
 33   14.298673 -0.408176 0.475484 0.000248 0.000062 -1.896136
 34   15.835795 0.581398 0.242756 -0.214729 0.106889 -0.097869
 35   -0.815868 -0.091229 -3.114430 0.066464 3.132725 -1.010185
 36   14.294526 -0.410349 -0.463635 0.000033 -0.000000 -2.607695
 37   15.834409 0.579420 -0.284600 -0.006092 -0.035255 0.214458
 38   1.147498 -3.453749 -2.823813 0.001410 -0.001073 0.003239
 39   -4.457742 -1.011884 -0.738367 0.001846 0.004075 -0.016267
 40   1.110288 -3.449769 3.237290 -0.000674 -0.001276 0.005254
 41   -4.410401 -1.031785 0.967379 0.000191 0.000384 -0.001599
 42   -0.649655 1.697302 -2.641737 0.011973 0.018631 -0.001756
 43   -0.664068 1.698578 2.830313 -0.014031 -0.021134 0.003638
time 27
  0   -0.967547 0.175787 -20.574476 0.000000 0.000000 -1.572114
  1   -1.093036 0.000002 -0.326057 -1.570757 -1.570379 -0.000171
  2   2.262337 0.113614 0.064702 -0.000052 0.000061 -0.051442
  3   2.380047 0.353302 0.047440 -0.151495 0.040540 0.258477
  4   2.033756 0.190472 -0.000128 -0.282827 0.053475 0.181210
  5   2.451511 0.204909 -0.003447 -0.155849 0.017633 0.111779
  6   7.247600 -0.397300 -0.109469 -0.000143 -0.183080 -0.122015
  7   -2.022252 -0.104661 3.136172 1.468551 -1.334592 -4.439394
  8   1.168026 -0.537438 -0.063437 -0.782039 0.416417 -0.793728
  9   6.790376 -0.619176 0.015206 -0.000213 -0.000352 -1.807372
 10   8.637599 0.544015 -0.090417 -1.654126 -0.163155 -0.109650
 11   6.790465 -0.619039 0.017802 0.003775 -0.011907 -1.280527
 12   -2.022474 -0.104699 -2.873818 0.094708 1.155352 -2.924579
 13   1.167898 -0.537463 0.063297 -0.221568 -0.963267 -0.244107
 14   7.002743 -0.617765 -0.183752 0.000286 0.000421 -1.967755
 15   8.209042 0.615527 -0.255885 1.570090 -0.000290 -0.069646
 16   7.002735 -0.617911 -0.183641 0.012979 0.011033 -1.396147
 17   1.574674 0.609930 -0.000899 0.539476 -0.226011 0.426448
 18   -0.602177 0.511412 -0.000006 0.000000 0.000000 0.000000
 19   3.646428 0.364526 1.119313 -0.000002 -0.000014 -0.174510
 20   3.646422 0.364499 -1.117566 0.000007 -0.000003 -0.174546
 21   3.805634 1.330634 1.627658 0.000002 -0.000011 -0.000026
 22   -0.246060 -0.011889 0.516521 -0.000011 0.000031 0.000025
 23   3.805651 1.330659 -1.631083 0.000019 0.000002 -0.000024
 24   -0.246150 -0.011872 -0.516511 -0.000005 -0.000006 0.000048
 25   4.941364 1.997338 1.629330 0.000018 -0.000001 -0.000024
 26   4.941382 1.997366 -1.629410 -0.000001 0.000005 -0.000024
 27   2.930087 1.603639 1.514501 -0.000019 -0.000022 -0.000050
 28   2.932517 1.603245 -1.501142 -0.000002 -0.000009 -0.000024
 29   8.824059 0.150544 0.091743 0.008472 -0.002629 -0.149802
 30   2.111085 -0.561179 1.776507 -0.000225 0.015185 0.001075
 31   2.129103 -0.561289 -1.845786 0.000031 -0.020902 0.001163
 32   -0.810489 -0.093824 3.127092 3.071872 -0.114782 1.239365
 33   14.298673 -0.408176 0.475484 0.000248 0.000062 -1.896136
 34   15.835795 0.581398 0.242756 -0.214729 0.106889 -0.097869
 35   -0.815868 -0.091229 -3.114430 0.066464 3.132725 -1.010185
 36   14.294526 -0.410349 -0.463635 0.000033 -0.000000 -2.607695
 37   15.834409 0.579420 -0.284600 -0.006092 -0.035255 0.214458
 38   1.139685 -3.453749 -2.823813 0.000842 -0.000627 0.001895
 39   -4.457742 -1.027509 -0.746180 0.001091 0.002409 -0.009648
 40   1.118101 -3.449769 3.237290 -0.000400 -0.000746 0.003116
 41   -4.426027 -1.043504 0.959566 0.000107 0.000228 -0.000954
 42   -0.649655 1.697302 -2.661269 0.007095 0.011057 -0.001046
 43   -0.664068 1.698578 2.849845 -0.008309 -0.012520 0.002133
time 28
  0   -0.967547 0.175787 -20.574476 0.000000 0.000000 -1.572114
  1   -1.093036 0.000002 -0.326057 -1.570757 -1.570379 -0.000171
  2   2.262337 0.113614 0.064702 -0.000052 0.000061 -0.051442
  3   2.380047 0.353302 0.047440 -0.151495 0.040540 0.258477
  4   2.033756 0.190472 -0.000128 -0.282919 0.053020 0.179216
  5   2.451511 0.204909 -0.003447 -0.155849 0.017633 0.111779
  6   7.247600 -0.397300 -0.109469 -0.000143 -0.183080 -0.122015
  7   -2.022252 -0.104661 3.136172 1.484175 -1.335083 -4.455548
  8   1.168026 -0.537438 -0.063437 -0.784823 0.420241 -0.795689
  9   6.790376 -0.619176 0.015206 -0.000213 -0.000151 -1.807372
 10   8.637599 0.544015 -0.090417 -1.654654 -0.200814 -0.106250
 11   6.790465 -0.619039 0.017802 0.003775 -0.011907 -1.280527
 12   -2.022474 -0.104699 -2.873818 0.097199 1.167020 -2.921994
 13   1.167898 -0.537463 0.063297 -0.220302 -0.974607 -0.244591
 14   7.002743 -0.617765 -0.183752 0.000286 0.000421 -1.967755
 15   8.209042 0.615527 -0.255885 1.570090 -0.000290 -0.069646
 16   7.002735 -0.617911 -0.183641 0.012979 0.011033 -1.396147
 17   1.574674 0.609930 -0.000899 0.539720 -0.226366 0.428518
 18   -0.602177 0.511412 -0.000006 0.000000 0.000000 0.000000
 19   3.646428 0.364526 1.119313 -0.000002 -0.000014 -0.174510
 20   3.646422 0.364499 -1.117566 0.000007 -0.000003 -0.174546
 21   3.805634 1.330634 1.627658 0.000002 -0.000011 -0.000026
 22   -0.246060 -0.011889 0.516521 -0.000011 0.000031 0.000025
 23   3.805651 1.330659 -1.631083 0.000019 0.000002 -0.000024
 24   -0.246150 -0.011872 -0.516511 -0.000005 -0.000006 0.000048
 25   4.941364 1.997338 1.629330 0.000018 -0.000001 -0.000024
 26   4.941382 1.997366 -1.629410 -0.000001 0.000005 -0.000024
 27   2.930087 1.603639 1.514501 -0.000019 -0.000022 -0.000050
 28   2.932517 1.603245 -1.501142 -0.000002 -0.000009 -0.000024
 29   8.824059 0.150544 0.091743 0.003838 -0.001323 -0.163053
 30   2.111085 -0.561179 1.784320 -0.000103 0.006728 0.000496
 31   2.121290 -0.561289 -1.853599 0.000000 -0.009765 0.000544
 32   -0.810489 -0.093824 3.127092 3.071872 -0.114782 1.239365
 33   14.298673 -0.408176 0.475484 0.000248 0.000062 -1.896136
 34   15.835795 0.581398 0.242756 -0.214729 0.106889 -0.097869
 35   -0.815868 -0.091229 -3.114430 0.066464 3.132725 -1.010185
 36   14.294526 -0.410349 -0.463635 0.000033 -0.000000 -2.607695
 37   15.834409 0.579420 -0.284600 -0.006092 -0.035255 0.214458
 38   1.139685 -3.453749 -2.823813 0.000400 -0.000277 0.000795
 39   -4.457742 -1.047041 -0.746180 0.000491 0.001127 -0.004459
 40   1.118101 -3.449769 3.237290 -0.000168 -0.000336 0.001405
 41   -4.433840 -1.051317 0.959566 0.000047 0.000108 -0.000449
 42   -0.657468 1.697302 -2.680801 0.003308 0.005169 -0.000418
 43   -0.664068 1.698578 2.861564 -0.003886 -0.005851 0.001004
time 29
  0   -0.967547 0.175787 -20.574476 0.000000 0.000000 -1.572114
  1   -1.093036 0.000002 -0.326057 -1.570757 -1.570379 -0.000171
  2   2.262337 0.113614 0.064702 -0.000052 0.000061 -0.051442
  3   2.380047 0.353302 0.047440 -0.151495 0.040540 0.258477
  4   2.033756 0.190472 -0.000128 -0.282993 0.052445 0.177114
  5   2.451511 0.204909 -0.003447 -0.155849 0.017633 0.111779
  6   7.247600 -0.397300 -0.109469 -0.000143 -0.183080 -0.122015
  7   -2.022252 -0.104661 3.136172 1.499609 -1.335428 -4.471795
  8   1.168026 -0.537438 -0.063437 -0.787797 0.424417 -0.797840
  9   6.790376 -0.619176 0.015206 -0.000213 -0.000352 -1.807372
 10   8.637599 0.544015 -0.090417 -1.655447 -0.240303 -0.103139
 11   6.790465 -0.619039 0.017802 0.003775 -0.011907 -1.280527
 12   -2.022474 -0.104699 -2.873818 0.099594 1.177701 -2.919026
 13   1.167898 -0.537463 0.063297 -0.218967 -0.984981 -0.245015
 14   7.002743 -0.617765 -0.183752 0.000286 0.000421 -1.967755
 15   8.209042 0.615527 -0.255885 1.570090 -0.000290 -0.069646
 16   7.002735 -0.617911 -0.183641 0.012979 0.011033 -1.396147
 17   1.574674 0.609930 -0.000899 0.539882 -0.226934 0.430440
 18   -0.602177 0.511412 -0.000006 0.000000 0.000000 0.000000
 19   3.646428 0.364526 1.119313 -0.000002 -0.000014 -0.174510
 20   3.646422 0.364499 -1.117566 0.000007 -0.000003 -0.174546
 21   3.805634 1.330634 1.627658 0.000002 -0.000011 -0.000026
 22   -0.246060 -0.011889 0.516521 -0.000011 0.000031 0.000025
 23   3.805651 1.330659 -1.631083 0.000019 0.000002 -0.000024
 24   -0.246150 -0.011872 -0.516511 -0.000005 -0.000006 0.000048
 25   4.941364 1.997338 1.629330 0.000018 -0.000001 -0.000024
 26   4.941382 1.997366 -1.629410 -0.000001 0.000005 -0.000024
 27   2.930087 1.603639 1.514501 -0.000019 -0.000022 -0.000050
 28   2.932517 1.603245 -1.501142 -0.000002 -0.000009 -0.000024
 29   8.824059 0.150544 0.091743 0.000897 -0.000468 -0.171583
 30   2.111085 -0.561179 1.784320 -0.000022 0.001236 0.000153
 31   2.121290 -0.561289 -1.853599 0.000000 -0.002538 0.000107
 32   -0.810489 -0.093824 3.127092 3.071872 -0.114782 1.239365
 33   14.298673 -0.408176 0.475484 0.000248 0.000062 -1.896136
 34   15.835795 0.581398 0.242756 -0.214729 0.106889 -0.097869
 35   -0.815868 -0.091229 -3.114430 0.066464 3.132725 -1.010185
 36   14.294526 -0.410349 -0.463635 0.000033 -0.000000 -2.607695
 37   15.834409 0.579420 -0.284600 -0.006092 -0.035255 0.214458
 38   1.139685 -3.453749 -2.823813 0.000063 -0.000060 0.000123
 39   -4.457742 -1.054854 -0.746180 0.000132 0.000288 -0.001178
 40   1.118101 -3.449769 3.237290 -0.000021 -0.000071 0.000367
 41   -4.433840 -1.059130 0.959566 0.000011 0.000024 -0.000084
 42   -0.657468 1.697302 -2.688614 0.000863 0.001336 -0.000084
 43   -0.664068 1.698578 2.869377 -0.001000 -0.001504 0.000251
time 30
  0   -0.967547 0.175787 -20.574476 0.000000 0.000000 -1.572114
  1   -1.093036 0.000002 -0.326057 -1.570757 -1.570379 -0.000171
  2   2.262337 0.113614 0.064702 -0.000052 0.000061 -0.051442
  3   2.380047 0.353302 0.047440 -0.151495 0.040540 0.258477
  4   2.033756 0.190472 -0.000128 -0.283122 0.051786 0.175483
  5   2.451511 0.204909 -0.003447 -0.155849 0.017633 0.111779
  6   7.247600 -0.397300 -0.109469 -0.000131 -0.183080 -0.122015
  7   -2.022252 -0.104661 3.136172 1.516096 -1.335573 -4.488136
  8   1.168026 -0.537438 -0.063437 -0.790835 0.428442 -0.799738
  9   6.790376 -0.619176 0.015206 -0.000213 -0.000151 -1.807372
 10   8.637599 0.544015 -0.090417 -1.656328 -0.275850 -0.099522
 11   6.790465 -0.619039 0.017802 0.003775 -0.011907 -1.280527
 12   -2.022474 -0.104699 -2.873818 0.102085 1.187511 -2.916441
 13   1.167898 -0.537463 0.063297 -0.218053 -0.994796 -0.245741
 14   7.002743 -0.617765 -0.183752 0.000286 0.000421 -1.967755
 15   8.209042 0.615527 -0.255885 1.570090 -0.000290 -0.069646
 16   7.002735 -0.617911 -0.183641 0.012979 0.011033 -1.396147
 17   1.574674 0.609930 -0.000899 0.540085 -0.227289 0.432362
 18   -0.602177 0.511412 -0.000006 0.000000 0.000000 0.000000
 19   3.646428 0.364526 1.119313 -0.000002 -0.000014 -0.174510
 20   3.646422 0.364499 -1.117566 0.000007 -0.000003 -0.174546
 21   3.805634 1.330634 1.627658 0.000002 -0.000011 -0.000026
 22   -0.246060 -0.011889 0.516521 -0.000011 0.000031 0.000025
 23   3.805651 1.330659 -1.631083 0.000019 0.000002 -0.000024
 24   -0.246150 -0.011872 -0.516511 -0.000005 -0.000006 0.000048
 25   4.941364 1.997338 1.629330 0.000018 -0.000001 -0.000024
 26   4.941382 1.997366 -1.629410 -0.000001 0.000005 -0.000024
 27   2.930087 1.603639 1.514501 -0.000019 -0.000022 -0.000050
 28   2.932517 1.603245 -1.501142 -0.000002 -0.000009 -0.000024
 29   8.824059 0.150544 0.091743 0.000006 -0.000231 -0.174534
 30   2.111085 -0.561179 1.784320 -0.000008 -0.000682 0.000024
 31   2.121290 -0.561289 -1.853599 0.000000 0.000000 -0.000002
 32   -0.810489 -0.093824 3.127092 3.071872 -0.114782 1.239365
 33   14.298673 -0.408176 0.475484 0.000248 0.000062 -1.896136
 34   15.835795 0.581398 0.242756 -0.214729 0.106889 -0.097869
 35   -0.815868 -0.091229 -3.114430 0.066464 3.132725 -1.010185
 36   14.294526 -0.410349 -0.463635 0.000033 -0.000000 -2.607695
 37   15.834409 0.579420 -0.284600 -0.006092 -0.035255 0.214458
 38   1.139685 -3.453749 -2.823813 0.000000 0.000000 0.000001
 39   -4.457742 -1.054854 -0.746180 0.000000 0.000000 0.000000
 40   1.118101 -3.449769 3.237290 0.000000 0.000001 0.000000
 41   -4.433840 -1.059130 0.959566 -0.000001 0.000000 0.000000
 42   -0.657468 1.697302 -2.688614 0.000000 0.000002 0.000000
 43   -0.664068 1.698578 2.869377 0.000000 0.000002 0.000000
end
