version 1
nodes
  0 "Bip01" -1
  1 "Bip01 Pelvis" 0
  2 "Bip01 Spine" 1
  3 "Bip01 Spine1" 2
  4 "Bip01 Spine2" 3
  5 "Bip01 Spine3" 4
  6 "Bip01 Neck" 5
  7 "Bip01 L Arm" 6
  8 "Bip01 L Arm1" 7
  9 "Bip01 L Arm2" 8
 10 "Bip01 L Hand" 9
 11 "Bip06 L elbow2-smooth" 8
 12 "Bip01 R Arm" 6
 13 "Bip01 R Arm1" 12
 14 "Bip01 R Arm2" 13
 15 "Bip01 R Hand" 14
 16 "Bip06 R elbow2-smooth" 13
 17 "Bip01 Head" 6
 18 "Bip06 Head_helper" 17
 19 "Bip06 Head_eyes_l" 18
 20 "Bip06 Head_eyes_r" 18
 21 "Bip06 Head_blink_l" 18
 22 "Bip06 Head_blink_smooth_l1" 21
 23 "Bip06 Head_blink_r" 18
 24 "Bip06 Head_blink_smooth_r1" 23
 25 "Bip06 Head_L_eyebrow" 18
 26 "Bip06 Head_R_eyebrow" 18
 27 "Bip06 Head_blink_l_lid" 18
 28 "Bip06 Head_blink_r_lid" 18
 29 "Bip06 bunny" 18
 30 "Bip06 bunnyL" 29
 31 "Bip06 bunnyR" 29
 32 "Bip01 L Leg" 1
 33 "Bip01 L Leg1" 32
 34 "Bip01 L Foot" 33
 35 "Bip01 R Leg" 1
 36 "Bip01 R Leg1" 35
 37 "Bip01 R Foot" 36
 38 "Bip03 HairR1" 17
 39 "Bip03 HairR2" 38
 40 "Bip03 HairL1" 17
 41 "Bip03 HairL2" 40
 42 "Bip03 swingR" 17
 43 "Bip03 swingL" 17
end
skeleton
time 0
  0   -0.967547 0.175787 -20.574476 0.000000 0.000000 -1.572114
  1   -1.093036 0.000002 -0.326057 -1.570861 -1.570611 -0.003365
  2   2.262337 0.113614 0.064702 -0.001721 0.024437 -0.071971
  3   2.380047 0.353302 0.047440 -0.010516 0.011921 0.007366
  4   2.033756 0.190472 -0.000128 0.144635 -0.018312 0.131660
  5   2.451511 0.204909 -0.003447 0.296019 0.025963 0.110070
  6   7.247600 -0.397300 -0.109469 -0.091897 0.032619 0.231838
  7   -2.022252 -0.104661 3.136172 1.227276 -1.771542 -4.594540
  8   1.168026 -0.537438 -0.063437 -0.859494 0.775762 -1.124833
  9   6.790376 -0.619176 0.015206 -0.000102 -0.000151 -1.220084
 10   8.637599 0.544015 -0.090417 -1.447262 0.185489 -0.201889
 11   6.790465 -0.619039 0.017802 0.001264 -0.011594 -0.869305
 12   -2.022474 -0.104699 -2.873818 -1.200412 0.657795 -4.369503
 13   1.167898 -0.537463 0.063297 -0.906233 -0.492775 -0.520206
 14   7.002743 -0.617765 -0.183752 0.000115 0.000023 -1.605639
 15   8.209042 0.615527 -0.255885 2.053493 -0.253522 0.274099
 16   7.002735 -0.617911 -0.183641 0.013450 0.008721 -1.142702
 17   1.574674 0.609930 -0.000899 0.032090 0.404404 0.483553
 18   -0.602177 0.511412 -0.000006 0.000000 0.000000 0.000000
 19   3.673773 0.177020 1.119313 -0.000002 -0.000014 -0.174510
 20   3.673767 0.176993 -1.117566 0.000007 -0.000003 -0.174546
 21   3.942357 1.330634 1.627658 0.000002 -0.000011 -0.000026
 22   -0.246060 -0.011889 0.516521 -0.000011 0.000031 0.000025
 23   3.942374 1.330659 -1.631083 0.000019 0.000002 -0.000024
 24   -0.246150 -0.011872 -0.516511 -0.000005 -0.000006 0.000048
 25   4.941364 1.997338 1.629330 0.000018 -0.000001 -0.000024
 26   4.941382 1.997366 -1.629410 -0.000001 0.000005 -0.000024
 27   2.918368 1.615358 1.514501 -0.000019 -0.000022 -0.000050
 28   2.920798 1.614964 -1.501142 -0.000002 -0.000009 -0.000024
 29   8.824059 0.150544 0.091743 0.000006 -0.000231 -0.174534
 30   2.111085 -0.561179 1.784320 -0.000008 -0.000682 0.000024
 31   2.121290 -0.561289 -1.853599 0.000000 0.000000 -0.000002
 32   -0.810489 -0.093824 3.127092 3.071872 -0.114782 1.239365
 33   14.298673 -0.408176 0.475484 0.000248 0.000062 -1.896136
 34   15.835795 0.581398 0.242756 -0.214729 0.106889 -0.097869
 35   -0.815868 -0.091229 -3.114430 0.066464 3.132725 -1.010185
 36   14.294526 -0.410349 -0.463635 0.000033 -0.000000 -2.607695
 37   15.834409 0.579420 -0.284600 -0.006092 -0.035255 0.214458
 38   1.139685 -3.453749 -2.823813 0.000000 0.000000 0.000001
 39   -4.457742 -1.054854 -0.746180 0.000000 0.000000 0.000000
 40   1.118101 -3.449769 3.237290 0.000000 0.000001 0.000000
 41   -4.433840 -1.059130 0.959566 -0.000001 0.000000 0.000000
 42   -0.657468 1.697302 -2.688614 0.000000 0.000002 0.000000
 43   -0.664068 1.698578 2.869377 0.000000 0.000002 0.000000
time 1
  0   -0.967547 0.175787 -20.574476 0.000000 0.000000 -1.572114
  1   -1.093036 0.000002 -0.326057 -1.570861 -1.570611 -0.003365
  2   2.262337 0.113614 0.064702 -0.000218 0.021082 -0.070706
  3   2.380047 0.353302 0.047440 0.009901 0.013443 0.009570
  4   2.033756 0.190472 -0.000128 0.053529 -0.039154 0.131189
  5   2.451511 0.204909 -0.003447 0.127281 0.000922 0.092982
  6   7.247600 -0.397300 -0.109469 -0.091897 0.032619 0.231838
  7   -2.022252 -0.104661 3.136172 1.266961 -1.731618 -4.638115
  8   1.168026 -0.537438 -0.063437 -0.675158 0.822957 -0.705986
  9   6.790376 -0.619176 0.015206 -0.000102 -0.000151 -1.157295
 10   8.637599 0.544015 -0.090417 -1.645672 0.220684 -0.056694
 11   6.790465 -0.619039 0.017802 0.001060 -0.011566 -0.825299
 12   -2.022474 -0.104699 -2.873818 -1.188915 0.920113 -4.472904
 13   1.167898 -0.537463 0.063297 -0.783007 -0.600532 -0.834563
 14   7.002743 -0.617765 -0.183752 0.000115 0.000023 -1.497309
 15   8.209042 0.615527 -0.255885 2.054932 -0.366936 0.373506
 16   7.002735 -0.617911 -0.183641 0.013591 0.008101 -1.066812
 17   1.574674 0.609930 -0.000899 0.157078 0.208537 0.533857
 18   -0.602177 0.511412 -0.000006 0.000000 0.000000 0.000000
 19   3.673773 0.177020 1.119313 -0.000002 -0.000014 -0.174510
 20   3.673767 0.176993 -1.117566 0.000007 -0.000003 -0.174546
 21   3.942357 1.330634 1.627658 0.000002 -0.000011 -0.000026
 22   -0.246060 -0.011889 0.516521 -0.000011 0.000031 0.000025
 23   3.942374 1.330659 -1.631083 0.000019 0.000002 -0.000024
 24   -0.246150 -0.011872 -0.516511 -0.000005 -0.000006 0.000048
 25   4.941364 1.997338 1.629330 0.000018 -0.000001 -0.000024
 26   4.941382 1.997366 -1.629410 -0.000001 0.000005 -0.000024
 27   2.918368 1.615358 1.514501 -0.000019 -0.000022 -0.000050
 28   2.920798 1.614964 -1.501142 -0.000002 -0.000009 -0.000024
 29   8.824059 0.150544 0.091743 0.000006 -0.000231 -0.174534
 30   2.111085 -0.561179 1.784320 -0.000008 -0.000682 0.000024
 31   2.121290 -0.561289 -1.853599 0.000000 0.000000 -0.000002
 32   -0.810489 -0.093824 3.127092 3.071872 -0.114782 1.239365
 33   14.298673 -0.408176 0.475484 0.000248 0.000062 -1.896136
 34   15.835795 0.581398 0.242756 -0.214729 0.106889 -0.097869
 35   -0.815868 -0.091229 -3.114430 0.066464 3.132725 -1.010185
 36   14.294526 -0.410349 -0.463635 0.000033 -0.000000 -2.607695
 37   15.834409 0.579420 -0.284600 -0.006092 -0.035255 0.214458
 38   1.139685 -3.453749 -2.823813 0.000000 0.000000 0.000001
 39   -4.457742 -1.054854 -0.746180 0.000000 0.000000 0.000000
 40   1.118101 -3.449769 3.237290 0.000000 0.000001 0.000000
 41   -4.433840 -1.059130 0.959566 -0.000001 0.000000 0.000000
 42   -0.657468 1.697302 -2.688614 0.000000 0.000002 0.000000
 43   -0.664068 1.698578 2.869377 0.000000 0.000002 0.000000
time 2
  0   -0.967547 0.175787 -20.574476 0.000000 0.000000 -1.572114
  1   -1.093036 0.000002 -0.326057 -1.570861 -1.570611 -0.003365
  2   2.262337 0.113614 0.064702 0.001311 0.017486 -0.069441
  3   2.380047 0.353302 0.047440 0.030407 0.014905 0.011937
  4   2.033756 0.190472 -0.000128 -0.037836 -0.059156 0.132095
  5   2.451511 0.204909 -0.003447 -0.040961 -0.025241 0.080228
  6   7.247600 -0.397300 -0.109469 -0.091897 0.032619 0.231838
  7   -2.022252 -0.104661 3.136172 1.335212 -1.692068 -4.708457
  8   1.168026 -0.537438 -0.063437 -0.502592 0.830504 -0.298589
  9   6.790376 -0.619176 0.015206 -0.000102 -0.000151 -1.094506
 10   8.637599 0.544015 -0.090417 -1.852888 0.281290 0.063615
 11   6.790465 -0.619039 0.017802 0.000797 -0.011509 -0.781293
 12   -2.022474 -0.104699 -2.873818 -1.284339 1.190065 -4.635664
 13   1.167898 -0.537463 0.063297 -0.533252 -0.675134 -1.218111
 14   7.002743 -0.617765 -0.183752 0.000115 0.000023 -1.388897
 15   8.209042 0.615527 -0.255885 2.044578 -0.477702 0.480310
 16   7.002735 -0.617911 -0.183641 0.013733 0.007537 -0.990811
 17   1.574674 0.609930 -0.000899 0.271546 0.013522 0.538551
 18   -0.602177 0.511412 -0.000006 0.000000 0.000000 0.000000
 19   3.673773 0.177020 1.119313 -0.000002 -0.000014 -0.174510
 20   3.673767 0.176993 -1.117566 0.000007 -0.000003 -0.174546
 21   3.942357 1.330634 1.627658 0.000002 -0.000011 -0.000026
 22   -0.246060 -0.011889 0.516521 -0.000011 0.000031 0.000025
 23   3.942374 1.330659 -1.631083 0.000019 0.000002 -0.000024
 24   -0.246150 -0.011872 -0.516511 -0.000005 -0.000006 0.000048
 25   4.941364 1.997338 1.629330 0.000018 -0.000001 -0.000024
 26   4.941382 1.997366 -1.629410 -0.000001 0.000005 -0.000024
 27   2.918368 1.615358 1.514501 -0.000019 -0.000022 -0.000050
 28   2.920798 1.614964 -1.501142 -0.000002 -0.000009 -0.000024
 29   8.824059 0.150544 0.091743 0.000006 -0.000231 -0.174534
 30   2.111085 -0.561179 1.784320 -0.000008 -0.000682 0.000024
 31   2.121290 -0.561289 -1.853599 0.000000 0.000000 -0.000002
 32   -0.810489 -0.093824 3.127092 3.071872 -0.114782 1.239365
 33   14.298673 -0.408176 0.475484 0.000248 0.000062 -1.896136
 34   15.835795 0.581398 0.242756 -0.214729 0.106889 -0.097869
 35   -0.815868 -0.091229 -3.114430 0.066464 3.132725 -1.010185
 36   14.294526 -0.410349 -0.463635 0.000033 -0.000000 -2.607695
 37   15.834409 0.579420 -0.284600 -0.006092 -0.035255 0.214458
 38   1.139685 -3.453749 -2.823813 0.000000 0.000000 0.000001
 39   -4.457742 -1.054854 -0.746180 0.000000 0.000000 0.000000
 40   1.118101 -3.449769 3.237290 0.000000 0.000001 0.000000
 41   -4.433840 -1.059130 0.959566 -0.000001 0.000000 0.000000
 42   -0.657468 1.697302 -2.688614 0.000000 0.000002 0.000000
 43   -0.664068 1.698578 2.869377 0.000000 0.000002 0.000000
time 3
  0   -0.967547 0.175787 -20.574476 0.000000 0.000000 -1.572114
  1   -1.093036 0.000002 -0.326057 -1.570914 -1.570611 -0.003365
  2   2.262337 0.113614 0.064702 -0.001402 0.014382 -0.067887
  3   2.380047 0.353302 0.047440 0.030797 0.013718 0.013957
  4   2.033756 0.190472 -0.000128 -0.095598 -0.067018 0.136409
  5   2.451511 0.204909 -0.003447 -0.145836 -0.039420 0.080426
  6   7.247600 -0.397300 -0.109469 -0.091897 0.032619 0.231838
  7   -2.022252 -0.104661 3.136172 1.455322 -1.643899 -4.831014
  8   1.168026 -0.537438 -0.063437 -0.412671 0.854504 -0.075153
  9   6.790376 -0.619176 0.015206 -0.000102 -0.000151 -1.009756
 10   8.637599 0.544015 -0.090417 -2.096564 0.362028 0.168948
 11   6.790465 -0.619039 0.017802 0.000476 -0.011452 -0.722061
 12   -2.022474 -0.104699 -2.873818 -1.561700 1.346504 -4.935716
 13   1.167898 -0.537463 0.063297 -0.254465 -0.653470 -1.469088
 14   7.002743 -0.617765 -0.183752 0.000115 0.000023 -1.252268
 15   8.209042 0.615527 -0.255885 2.091243 -0.514094 0.536057
 16   7.002735 -0.617911 -0.183641 0.013874 0.006804 -0.895162
 17   1.574674 0.609930 -0.000899 0.343281 -0.114090 0.471356
 18   -0.602177 0.511412 -0.000006 0.000000 0.000000 0.000000
 19   3.673773 0.177020 1.119313 -0.000002 -0.000014 -0.174510
 20   3.673767 0.176993 -1.117566 0.000007 -0.000003 -0.174546
 21   3.942357 1.330634 1.627658 0.000002 -0.000011 -0.000026
 22   -0.246060 -0.011889 0.516521 -0.000011 0.000031 0.000025
 23   3.942374 1.330659 -1.631083 0.000019 0.000002 -0.000024
 24   -0.246150 -0.011872 -0.516511 -0.000005 -0.000006 0.000048
 25   4.941364 1.997338 1.629330 0.000018 -0.000001 -0.000024
 26   4.941382 1.997366 -1.629410 -0.000001 0.000005 -0.000024
 27   2.918368 1.615358 1.514501 -0.000019 -0.000022 -0.000050
 28   2.920798 1.614964 -1.501142 -0.000002 -0.000009 -0.000024
 29   8.824059 0.150544 0.091743 0.000006 -0.000231 -0.174534
 30   2.111085 -0.561179 1.784320 -0.000008 -0.000682 0.000024
 31   2.121290 -0.561289 -1.853599 0.000000 0.000000 -0.000002
 32   -0.810489 -0.093824 3.127092 3.071872 -0.114782 1.239365
 33   14.298673 -0.408176 0.475484 0.000248 0.000062 -1.896136
 34   15.835795 0.581398 0.242756 -0.214729 0.106889 -0.097869
 35   -0.815868 -0.091229 -3.114430 0.066464 3.132725 -1.010185
 36   14.294526 -0.410349 -0.463635 0.000033 -0.000000 -2.607695
 37   15.834409 0.579420 -0.284600 -0.006092 -0.035255 0.214458
 38   1.139685 -3.453749 -2.823813 0.000000 0.000000 0.000001
 39   -4.457742 -1.054854 -0.746180 0.000000 0.000000 0.000000
 40   1.118101 -3.449769 3.237290 0.000000 0.000001 0.000000
 41   -4.433840 -1.059130 0.959566 -0.000001 0.000000 0.000000
 42   -0.657468 1.697302 -2.688614 0.000000 0.000002 0.000000
 43   -0.664068 1.698578 2.869377 0.000000 0.000002 0.000000
time 4
  0   -0.967547 0.175787 -20.574476 0.000000 0.000000 -1.572114
  1   -1.093036 0.000002 -0.326057 -1.570861 -1.570611 -0.003365
  2   2.262337 0.113614 0.064702 -0.009019 0.011782 -0.066080
  3   2.380047 0.353302 0.047440 0.009796 0.010267 0.015406
  4   2.033756 0.190472 -0.000128 -0.117397 -0.062428 0.142824
  5   2.451511 0.204909 -0.003447 -0.183099 -0.039981 0.090827
  6   7.247600 -0.397300 -0.109469 -0.091897 0.032619 0.231838
  7   -2.022252 -0.104661 3.136172 2.790432 -1.583277 0.115129
  8   1.168026 -0.537438 -0.063437 -0.399129 0.946881 -0.074774
  9   6.790376 -0.619176 0.015206 -0.000102 -0.000151 -0.867500
 10   8.637599 0.544015 -0.090417 -2.421171 0.466980 0.263285
 11   6.790465 -0.619039 0.017802 -0.000108 -0.011395 -0.622456
 12   -2.022474 -0.104699 -2.873818 -1.665172 1.336926 -5.041797
 13   1.167898 -0.537463 0.063297 -0.019542 -0.579886 -1.477018
 14   7.002743 -0.617765 -0.183752 0.000115 0.000023 -1.061928
 15   8.209042 0.615527 -0.255885 2.280994 -0.423681 0.494923
 16   7.002735 -0.617911 -0.183641 0.014109 0.005676 -0.761982
 17   1.574674 0.609930 -0.000899 0.386419 -0.148928 0.325730
 18   -0.602177 0.511412 -0.000006 0.000000 0.000000 0.000000
 19   3.673773 0.177020 1.119313 -0.000002 -0.000014 -0.174510
 20   3.673767 0.176993 -1.117566 0.000007 -0.000003 -0.174546
 21   3.942357 1.330634 1.627658 0.000002 -0.000011 -0.000026
 22   -0.246060 -0.011889 0.516521 -0.000011 0.000031 0.000025
 23   3.942374 1.330659 -1.631083 0.000019 0.000002 -0.000024
 24   -0.246150 -0.011872 -0.516511 -0.000005 -0.000006 0.000048
 25   4.941364 1.997338 1.629330 0.000018 -0.000001 -0.000024
 26   4.941382 1.997366 -1.629410 -0.000001 0.000005 -0.000024
 27   2.918368 1.615358 1.514501 -0.000019 -0.000022 -0.000050
 28   2.920798 1.614964 -1.501142 -0.000002 -0.000009 -0.000024
 29   8.824059 0.150544 0.091743 0.000006 -0.000231 -0.174534
 30   2.111085 -0.561179 1.784320 -0.000008 -0.000682 0.000024
 31   2.121290 -0.561289 -1.853599 0.000000 0.000000 -0.000002
 32   -0.810489 -0.093824 3.127092 3.071872 -0.114782 1.239365
 33   14.298673 -0.408176 0.475484 0.000248 0.000062 -1.896136
 34   15.835795 0.581398 0.242756 -0.214729 0.106889 -0.097869
 35   -0.815868 -0.091229 -3.114430 0.066464 3.132725 -1.010185
 36   14.294526 -0.410349 -0.463635 0.000033 -0.000000 -2.607695
 37   15.834409 0.579420 -0.284600 -0.006092 -0.035255 0.214458
 38   1.139685 -3.453749 -2.823813 0.000000 0.000000 0.000001
 39   -4.457742 -1.054854 -0.746180 0.000000 0.000000 0.000000
 40   1.118101 -3.449769 3.237290 0.000000 0.000001 0.000000
 41   -4.433840 -1.059130 0.959566 -0.000001 0.000000 0.000000
 42   -0.657468 1.697302 -2.688614 0.000000 0.000002 0.000000
 43   -0.664068 1.698578 2.869377 0.000000 0.000002 0.000000
time 5
  0   -0.967547 0.175787 -20.574476 0.000000 0.000000 -1.572114
  1   -1.093036 0.000002 -0.326057 -1.570861 -1.570611 -0.003365
  2   2.262337 0.113614 0.064702 -0.018382 0.009181 -0.064092
  3   2.380047 0.353302 0.047440 -0.018676 0.005760 0.016732
  4   2.033756 0.190472 -0.000128 -0.126434 -0.053247 0.149784
  5   2.451511 0.204909 -0.003447 -0.196570 -0.035529 0.104597
  6   7.247600 -0.397300 -0.109469 -0.091897 0.032619 0.231838
  7   -2.022252 -0.104661 3.136172 1.163818 -1.490284 -4.539412
  8   1.168026 -0.537438 -0.063437 -0.477407 1.055409 -0.231027
  9   6.790376 -0.619176 0.015206 -0.000102 -0.000151 -0.703283
 10   8.637599 0.544015 -0.090417 -2.801523 0.580520 0.310092
 11   6.790465 -0.619039 0.017802 -0.000809 -0.011253 -0.507568
 12   -2.022474 -0.104699 -2.873818 -1.551640 1.237084 -4.923270
 13   1.167898 -0.537463 0.063297 0.195206 -0.504725 -1.377499
 14   7.002743 -0.617765 -0.183752 0.000115 0.000023 -0.843454
 15   8.209042 0.615527 -0.255885 2.507992 -0.243914 0.440619
 16   7.002735 -0.617911 -0.183641 0.014298 0.004605 -0.609098
 17   1.574674 0.609930 -0.000899 0.426958 -0.134869 0.158407
 18   -0.602177 0.511412 -0.000006 0.000000 0.000000 0.000000
 19   3.673773 0.177020 1.119313 -0.000002 -0.000014 -0.174510
 20   3.673767 0.176993 -1.117566 0.000007 -0.000003 -0.174546
 21   3.942357 1.330634 1.627658 0.000002 -0.000011 -0.000026
 22   -0.246060 -0.011889 0.516521 -0.000011 0.000031 0.000025
 23   3.942374 1.330659 -1.631083 0.000019 0.000002 -0.000024
 24   -0.246150 -0.011872 -0.516511 -0.000005 -0.000006 0.000048
 25   4.941364 1.997338 1.629330 0.000018 -0.000001 -0.000024
 26   4.941382 1.997366 -1.629410 -0.000001 0.000005 -0.000024
 27   2.918368 1.615358 1.514501 -0.000019 -0.000022 -0.000050
 28   2.920798 1.614964 -1.501142 -0.000002 -0.000009 -0.000024
 29   8.824059 0.150544 0.091743 0.000006 -0.000231 -0.174534
 30   2.111085 -0.561179 1.784320 -0.000008 -0.000682 0.000024
 31   2.121290 -0.561289 -1.853599 0.000000 0.000000 -0.000002
 32   -0.810489 -0.093824 3.127092 3.071872 -0.114782 1.239365
 33   14.298673 -0.408176 0.475484 0.000248 0.000062 -1.896136
 34   15.835795 0.581398 0.242756 -0.214729 0.106889 -0.097869
 35   -0.815868 -0.091229 -3.114430 0.066464 3.132725 -1.010185
 36   14.294526 -0.410349 -0.463635 0.000033 -0.000000 -2.607695
 37   15.834409 0.579420 -0.284600 -0.006092 -0.035255 0.214458
 38   1.139685 -3.453749 -2.823813 0.000000 0.000000 0.000001
 39   -4.457742 -1.054854 -0.746180 0.000000 0.000000 0.000000
 40   1.118101 -3.449769 3.237290 0.000000 0.000001 0.000000
 41   -4.433840 -1.059130 0.959566 -0.000001 0.000000 0.000000
 42   -0.657468 1.697302 -2.688614 0.000000 0.000002 0.000000
 43   -0.664068 1.698578 2.869377 0.000000 0.000002 0.000000
time 6
  0   -0.967547 0.175787 -20.574476 0.000000 0.000000 -1.572114
  1   -1.093036 0.000002 -0.326057 -1.570861 -1.570611 -0.003365
  2   2.262337 0.113614 0.064702 -0.028775 0.006760 -0.061797
  3   2.380047 0.353302 0.047440 -0.052474 0.000991 0.017875
  4   2.033756 0.190472 -0.000128 -0.126895 -0.041263 0.156816
  5   2.451511 0.204909 -0.003447 -0.193797 -0.028401 0.120546
  6   7.247600 -0.397300 -0.109469 -0.091897 0.032619 0.231838
  7   -2.022252 -0.104661 3.136172 1.194588 -1.429806 -4.568338
  8   1.168026 -0.537438 -0.063437 -0.640607 1.093547 -0.456993
  9   6.790376 -0.619176 0.015206 -0.000102 -0.000151 -0.604043
 10   8.637599 0.544015 -0.090417 -3.152285 0.659498 0.288461
 11   6.790465 -0.619039 0.017802 -0.001130 -0.011168 -0.438012
 12   -2.022474 -0.104699 -2.873818 -1.477582 1.117273 -4.838635
 13   1.167898 -0.537463 0.063297 0.387461 -0.458042 -1.299046
 14   7.002743 -0.617765 -0.183752 0.000115 0.000023 -0.646101
 15   8.209042 0.615527 -0.255885 2.617356 -0.074361 0.430877
 16   7.002735 -0.617911 -0.183641 0.014392 0.003590 -0.470950
 17   1.574674 0.609930 -0.000899 0.451899 -0.127249 0.055729
 18   -0.602177 0.511412 -0.000006 0.000000 0.000000 0.000000
 19   3.673773 0.177020 1.119313 -0.000002 -0.000014 -0.174510
 20   3.673767 0.176993 -1.117566 0.000007 -0.000003 -0.174546
 21   3.942357 1.330634 1.627658 0.000002 -0.000011 -0.000026
 22   -0.246060 -0.011889 0.516521 -0.000011 0.000031 0.000025
 23   3.942374 1.330659 -1.631083 0.000019 0.000002 -0.000024
 24   -0.246150 -0.011872 -0.516511 -0.000005 -0.000006 0.000048
 25   4.941364 1.997338 1.629330 0.000018 -0.000001 -0.000024
 26   4.941382 1.997366 -1.629410 -0.000001 0.000005 -0.000024
 27   2.918368 1.615358 1.514501 -0.000019 -0.000022 -0.000050
 28   2.920798 1.614964 -1.501142 -0.000002 -0.000009 -0.000024
 29   8.824059 0.150544 0.091743 0.000006 -0.000231 -0.174534
 30   2.111085 -0.561179 1.784320 -0.000008 -0.000682 0.000024
 31   2.121290 -0.561289 -1.853599 0.000000 0.000000 -0.000002
 32   -0.810489 -0.093824 3.127092 3.071872 -0.114782 1.239365
 33   14.298673 -0.408176 0.475484 0.000248 0.000062 -1.896136
 34   15.835795 0.581398 0.242756 -0.214729 0.106889 -0.097869
 35   -0.815868 -0.091229 -3.114430 0.066464 3.132725 -1.010185
 36   14.294526 -0.410349 -0.463635 0.000033 -0.000000 -2.607695
 37   15.834409 0.579420 -0.284600 -0.006092 -0.035255 0.214458
 38   1.139685 -3.453749 -2.823813 0.000000 0.000000 0.000001
 39   -4.457742 -1.054854 -0.746180 0.000000 0.000000 0.000000
 40   1.118101 -3.449769 3.237290 0.000000 0.000001 0.000000
 41   -4.433840 -1.059130 0.959566 -0.000001 0.000000 0.000000
 42   -0.657468 1.697302 -2.688614 0.000000 0.000002 0.000000
 43   -0.664068 1.698578 2.869377 0.000000 0.000002 0.000000
time 7
  0   -0.967547 0.175787 -20.574476 0.000000 0.000000 -1.572114
  1   -1.093036 0.000002 -0.326057 -1.570861 -1.570611 -0.003365
  2   2.262337 0.113614 0.064702 -0.039742 0.004471 -0.059303
  3   2.380047 0.353302 0.047440 -0.088686 -0.004031 0.018997
  4   2.033756 0.190472 -0.000128 -0.122856 -0.027732 0.164029
  5   2.451511 0.204909 -0.003447 -0.182945 -0.020359 0.137906
  6   7.247600 -0.397300 -0.109469 -0.091897 0.032619 0.231838
  7   -2.022252 -0.104661 3.136172 1.124996 -1.404410 -4.497151
  8   1.168026 -0.537438 -0.063437 -0.767041 1.036541 -0.586234
  9   6.790376 -0.619176 0.015206 -0.000102 -0.000151 -0.620495
 10   8.637599 0.544015 -0.090417 -3.397898 0.685120 0.226100
 11   6.790465 -0.619039 0.017802 -0.001101 -0.011168 -0.449489
 12   -2.022474 -0.104699 -2.873818 -1.442133 0.999291 -4.788179
 13   1.167898 -0.537463 0.063297 0.539648 -0.453160 -1.299409
 14   7.002743 -0.617765 -0.183752 0.000115 0.000023 -0.494126
 15   8.209042 0.615527 -0.255885 2.544590 0.035497 0.439537
 16   7.002735 -0.617911 -0.183641 0.014486 0.002744 -0.364594
 17   1.574674 0.609930 -0.000899 0.466928 -0.154324 0.042645
 18   -0.602177 0.511412 -0.000006 0.000000 0.000000 0.000000
 19   3.673773 0.177020 1.119313 -0.000002 -0.000014 -0.174510
 20   3.673767 0.176993 -1.117566 0.000007 -0.000003 -0.174546
 21   3.942357 1.330634 1.627658 0.000002 -0.000011 -0.000026
 22   -0.246060 -0.011889 0.516521 -0.000011 0.000031 0.000025
 23   3.942374 1.330659 -1.631083 0.000019 0.000002 -0.000024
 24   -0.246150 -0.011872 -0.516511 -0.000005 -0.000006 0.000048
 25   4.941364 1.997338 1.629330 0.000018 -0.000001 -0.000024
 26   4.941382 1.997366 -1.629410 -0.000001 0.000005 -0.000024
 27   2.918368 1.615358 1.514501 -0.000019 -0.000022 -0.000050
 28   2.920798 1.614964 -1.501142 -0.000002 -0.000009 -0.000024
 29   8.824059 0.150544 0.091743 0.000006 -0.000231 -0.174534
 30   2.111085 -0.561179 1.784320 -0.000008 -0.000682 0.000024
 31   2.121290 -0.561289 -1.853599 0.000000 0.000000 -0.000002
 32   -0.810489 -0.093824 3.127092 3.071872 -0.114782 1.239365
 33   14.298673 -0.408176 0.475484 0.000248 0.000062 -1.896136
 34   15.835795 0.581398 0.242756 -0.214729 0.106889 -0.097869
 35   -0.815868 -0.091229 -3.114430 0.066464 3.132725 -1.010185
 36   14.294526 -0.410349 -0.463635 0.000033 -0.000000 -2.607695
 37   15.834409 0.579420 -0.284600 -0.006092 -0.035255 0.214458
 38   1.139685 -3.453749 -2.823813 0.000000 0.000000 0.000001
 39   -4.457742 -1.054854 -0.746180 0.000000 0.000000 0.000000
 40   1.118101 -3.449769 3.237290 0.000000 0.000001 0.000000
 41   -4.433840 -1.059130 0.959566 -0.000001 0.000000 0.000000
 42   -0.657468 1.697302 -2.688614 0.000000 0.000002 0.000000
 43   -0.664068 1.698578 2.869377 0.000000 0.000002 0.000000
time 8
  0   -0.967547 0.175787 -20.574476 0.000000 0.000000 -1.572114
  1   -1.093036 0.000002 -0.326057 -1.570861 -1.570611 -0.003365
  2   2.262337 0.113614 0.064702 -0.050658 0.002266 -0.056737
  3   2.380047 0.353302 0.047440 -0.124928 -0.008945 0.020140
  4   2.033756 0.190472 -0.000128 -0.118688 -0.014286 0.170916
  5   2.451511 0.204909 -0.003447 -0.171956 -0.012604 0.155316
  6   7.247600 -0.397300 -0.109469 -0.091897 0.032619 0.231838
  7   -2.022252 -0.104661 3.136172 1.016101 -1.396512 -4.387084
  8   1.168026 -0.537438 -0.063437 -0.843168 0.938378 -0.628239
  9   6.790376 -0.619176 0.015206 -0.000102 -0.000151 -0.701396
 10   8.637599 0.544015 -0.090417 -3.575261 0.677940 0.156794
 11   6.790465 -0.619039 0.017802 -0.000809 -0.011253 -0.506126
 12   -2.022474 -0.104699 -2.873818 -1.419427 0.863081 -4.740117
 13   1.167898 -0.537463 0.063297 0.657390 -0.454788 -1.343781
 14   7.002743 -0.617765 -0.183752 0.000115 0.000023 -0.363355
 15   8.209042 0.615527 -0.255885 2.371089 0.125305 0.433944
 16   7.002735 -0.617911 -0.183641 0.014533 0.002180 -0.272808
 17   1.574674 0.609930 -0.000899 0.482364 -0.199669 0.074136
 18   -0.602177 0.511412 -0.000006 0.000000 0.000000 0.000000
 19   3.673773 0.177020 1.119313 -0.000002 -0.000014 -0.174510
 20   3.673767 0.176993 -1.117566 0.000007 -0.000003 -0.174546
 21   3.942357 1.330634 1.627658 0.000002 -0.000011 -0.000026
 22   -0.246060 -0.011889 0.516521 -0.000011 0.000031 0.000025
 23   3.942374 1.330659 -1.631083 0.000019 0.000002 -0.000024
 24   -0.246150 -0.011872 -0.516511 -0.000005 -0.000006 0.000048
 25   4.941364 1.997338 1.629330 0.000018 -0.000001 -0.000024
 26   4.941382 1.997366 -1.629410 -0.000001 0.000005 -0.000024
 27   2.918368 1.615358 1.514501 -0.000019 -0.000022 -0.000050
 28   2.920798 1.614964 -1.501142 -0.000002 -0.000009 -0.000024
 29   8.824059 0.150544 0.091743 0.000006 -0.000231 -0.174534
 30   2.111085 -0.561179 1.784320 -0.000008 -0.000682 0.000024
 31   2.121290 -0.561289 -1.853599 0.000000 0.000000 -0.000002
 32   -0.810489 -0.093824 3.127092 3.071872 -0.114782 1.239365
 33   14.298673 -0.408176 0.475484 0.000248 0.000062 -1.896136
 34   15.835795 0.581398 0.242756 -0.214729 0.106889 -0.097869
 35   -0.815868 -0.091229 -3.114430 0.066464 3.132725 -1.010185
 36   14.294526 -0.410349 -0.463635 0.000033 -0.000000 -2.607695
 37   15.834409 0.579420 -0.284600 -0.006092 -0.035255 0.214458
 38   1.139685 -3.453749 -2.823813 0.000000 0.000000 0.000001
 39   -4.457742 -1.054854 -0.746180 0.000000 0.000000 0.000000
 40   1.118101 -3.449769 3.237290 0.000000 0.000001 0.000000
 41   -4.433840 -1.059130 0.959566 -0.000001 0.000000 0.000000
 42   -0.657468 1.697302 -2.688614 0.000000 0.000002 0.000000
 43   -0.664068 1.698578 2.869377 0.000000 0.000002 0.000000
time 9
  0   -0.967547 0.175787 -20.574476 0.000000 0.000000 -1.572114
  1   -1.093036 0.000002 -0.326057 -1.570861 -1.570611 -0.003365
  2   2.262337 0.113614 0.064702 -0.061039 0.000085 -0.054117
  3   2.380047 0.353302 0.047440 -0.158726 -0.013535 0.021344
  4   2.033756 0.190472 -0.000128 -0.118762 -0.001870 0.177404
  5   2.451511 0.204909 -0.003447 -0.168738 -0.006272 0.171637
  6   7.247600 -0.397300 -0.109469 -0.091897 0.032619 0.231838
  7   -2.022252 -0.104661 3.136172 0.917942 -1.386711 -4.287255
  8   1.168026 -0.537438 -0.063437 -0.896323 0.840416 -0.636273
  9   6.790376 -0.619176 0.015206 -0.000102 -0.000151 -0.782750
 10   8.637599 0.544015 -0.090417 -3.746723 0.653796 0.096459
 11   6.790465 -0.619039 0.017802 -0.000429 -0.011310 -0.563224
 12   -2.022474 -0.104699 -2.873818 -1.413486 0.727307 -4.701917
 13   1.167898 -0.537463 0.063297 0.766487 -0.446143 -1.409219
 14   7.002743 -0.617765 -0.183752 0.000115 0.000023 -0.232089
 15   8.209042 0.615527 -0.255885 2.192913 0.210270 0.410671
 16   7.002735 -0.617911 -0.183641 0.014580 0.001616 -0.181078
 17   1.574674 0.609930 -0.000899 0.503690 -0.257180 0.123922
 18   -0.602177 0.511412 -0.000006 0.000000 0.000000 0.000000
 19   3.673773 0.177020 1.119313 -0.000002 -0.000014 -0.174510
 20   3.673767 0.176993 -1.117566 0.000007 -0.000003 -0.174546
 21   3.942357 1.330634 1.627658 0.000002 -0.000011 -0.000026
 22   -0.246060 -0.011889 0.516521 -0.000011 0.000031 0.000025
 23   3.942374 1.330659 -1.631083 0.000019 0.000002 -0.000024
 24   -0.246150 -0.011872 -0.516511 -0.000005 -0.000006 0.000048
 25   4.941364 1.997338 1.629330 0.000018 -0.000001 -0.000024
 26   4.941382 1.997366 -1.629410 -0.000001 0.000005 -0.000024
 27   2.918368 1.615358 1.514501 -0.000019 -0.000022 -0.000050
 28   2.920798 1.614964 -1.501142 -0.000002 -0.000009 -0.000024
 29   8.824059 0.150544 0.091743 0.000006 -0.000231 -0.174534
 30   2.111085 -0.561179 1.784320 -0.000008 -0.000682 0.000024
 31   2.121290 -0.561289 -1.853599 0.000000 0.000000 -0.000002
 32   -0.810489 -0.093824 3.127092 3.071872 -0.114782 1.239365
 33   14.298673 -0.408176 0.475484 0.000248 0.000062 -1.896136
 34   15.835795 0.581398 0.242756 -0.214729 0.106889 -0.097869
 35   -0.815868 -0.091229 -3.114430 0.066464 3.132725 -1.010185
 36   14.294526 -0.410349 -0.463635 0.000033 -0.000000 -2.607695
 37   15.834409 0.579420 -0.284600 -0.006092 -0.035255 0.214458
 38   1.139685 -3.453749 -2.823813 0.000000 0.000000 0.000001
 39   -4.457742 -1.054854 -0.746180 0.000000 0.000000 0.000000
 40   1.118101 -3.449769 3.237290 0.000000 0.000001 0.000000
 41   -4.433840 -1.059130 0.959566 -0.000001 0.000000 0.000000
 42   -0.657468 1.697302 -2.688614 0.000000 0.000002 0.000000
 43   -0.664068 1.698578 2.869377 0.000000 0.000002 0.000000
time 10
  0   -0.967547 0.175787 -20.574476 0.000000 0.000000 -1.572114
  1   -1.093036 0.000002 -0.326057 -1.570861 -1.570611 -0.003365
  2   2.262337 0.113614 0.064702 -0.061014 -0.010486 -0.052111
  3   2.380047 0.353302 0.047440 -0.144970 -0.006727 0.022466
  4   2.033756 0.190472 -0.000128 -0.099674 0.005741 0.184146
  5   2.451511 0.204909 -0.003447 -0.176800 -0.005214 0.178546
  6   7.247600 -0.397300 -0.109469 -0.091897 0.032619 0.231838
  7   -2.022252 -0.104661 3.136172 0.678297 -1.401066 -4.048620
  8   1.168026 -0.537438 -0.063437 -0.810009 0.826479 -0.664424
  9   6.790376 -0.619176 0.015206 -0.000102 -0.000151 -0.662002
 10   8.637599 0.544015 -0.090417 -3.786969 0.614448 0.029251
 11   6.790465 -0.619039 0.017802 -0.000955 -0.011196 -0.478615
 12   -2.022474 -0.104699 -2.873818 -1.402948 0.725305 -4.685545
 13   1.167898 -0.537463 0.063297 0.744133 -0.482147 -1.377136
 14   7.002743 -0.617765 -0.183752 0.000115 0.000023 -0.194879
 15   8.209042 0.615527 -0.255885 2.208876 0.210497 0.398884
 16   7.002735 -0.617911 -0.183641 0.014627 0.001334 -0.155027
 17   1.574674 0.609930 -0.000899 0.473062 -0.265653 0.196736
 18   -0.602177 0.511412 -0.000006 0.000000 0.000000 0.000000
 19   3.673773 0.177020 1.119313 -0.000002 -0.000014 -0.174510
 20   3.673767 0.176993 -1.117566 0.000007 -0.000003 -0.174546
 21   3.942357 1.330634 1.627658 0.000002 -0.000011 -0.000026
 22   -0.246060 -0.011889 0.516521 -0.000011 0.000031 0.000025
 23   3.942374 1.330659 -1.631083 0.000019 0.000002 -0.000024
 24   -0.246150 -0.011872 -0.516511 -0.000005 -0.000006 0.000048
 25   4.941364 1.997338 1.629330 0.000018 -0.000001 -0.000024
 26   4.941382 1.997366 -1.629410 -0.000001 0.000005 -0.000024
 27   2.918368 1.615358 1.514501 -0.000019 -0.000022 -0.000050
 28   2.920798 1.614964 -1.501142 -0.000002 -0.000009 -0.000024
 29   8.824059 0.150544 0.091743 0.000006 -0.000231 -0.174534
 30   2.111085 -0.561179 1.784320 -0.000008 -0.000682 0.000024
 31   2.121290 -0.561289 -1.853599 0.000000 0.000000 -0.000002
 32   -0.810489 -0.093824 3.127092 3.071872 -0.114782 1.239365
 33   14.298673 -0.408176 0.475484 0.000248 0.000062 -1.896136
 34   15.835795 0.581398 0.242756 -0.214729 0.106889 -0.097869
 35   -0.815868 -0.091229 -3.114430 0.066464 3.132725 -1.010185
 36   14.294526 -0.410349 -0.463635 0.000033 -0.000000 -2.607695
 37   15.834409 0.579420 -0.284600 -0.006092 -0.035255 0.214458
 38   1.139685 -3.453749 -2.823813 0.000000 0.000000 0.000001
 39   -4.457742 -1.054854 -0.746180 0.000000 0.000000 0.000000
 40   1.118101 -3.449769 3.237290 0.000000 0.000001 0.000000
 41   -4.433840 -1.059130 0.959566 -0.000001 0.000000 0.000000
 42   -0.657468 1.697302 -2.688614 0.000000 0.000002 0.000000
 43   -0.664068 1.698578 2.869377 0.000000 0.000002 0.000000
end
