version 1
nodes
  0 "Bip01" -1
  1 "Bip01 Pelvis" 0
  2 "Bip01 Spine" 1
  3 "Bip01 Spine1" 2
  4 "Bip01 Spine2" 3
  5 "Bip01 Spine3" 4
  6 "Bip01 Neck" 5
  7 "Bip01 L Arm" 6
  8 "Bip01 L Arm1" 7
  9 "Bip01 L Arm2" 8
 10 "Bip01 L Hand" 9
 11 "Bip06 L elbow2-smooth" 8
 12 "Bip01 R Arm" 6
 13 "Bip01 R Arm1" 12
 14 "Bip01 R Arm2" 13
 15 "Bip01 R Hand" 14
 16 "Bip06 R elbow2-smooth" 13
 17 "Bip01 Head" 6
 18 "Bip06 Head_helper" 17
 19 "Bip06 Head_eyes_l" 18
 20 "Bip06 Head_eyes_r" 18
 21 "Bip06 Head_blink_l" 18
 22 "Bip06 Head_blink_smooth_l1" 21
 23 "Bip06 Head_blink_r" 18
 24 "Bip06 Head_blink_smooth_r1" 23
 25 "Bip06 Head_L_eyebrow" 18
 26 "Bip06 Head_R_eyebrow" 18
 27 "Bip06 Head_blink_l_lid" 18
 28 "Bip06 Head_blink_r_lid" 18
 29 "Bip06 bunny" 18
 30 "Bip06 bunnyL" 29
 31 "Bip06 bunnyR" 29
 32 "Bip01 L Leg" 1
 33 "Bip01 L Leg1" 32
 34 "Bip01 L Foot" 33
 35 "Bip01 R Leg" 1
 36 "Bip01 R Leg1" 35
 37 "Bip01 R Foot" 36
 38 "Bip03 HairR1" 17
 39 "Bip03 HairR2" 38
 40 "Bip03 HairL1" 17
 41 "Bip03 HairL2" 40
 42 "Bip03 swingR" 17
 43 "Bip03 swingL" 17
end
skeleton
time 0
  0   -0.967547 0.175787 -20.574476 0.000000 0.000000 -1.572114
  1   -1.093036 0.000002 -0.326057 -1.570390 -1.570611 -0.003994
  2   2.262337 0.113614 0.064702 -0.001721 0.024437 -0.071971
  3   2.380047 0.353302 0.047440 -0.010516 0.011921 0.007366
  4   2.033756 0.190472 -0.000128 0.144635 -0.018312 0.131660
  5   2.451511 0.204909 -0.003447 0.296019 0.025963 0.110070
  6   7.247600 -0.397300 -0.109469 -0.091897 0.032619 0.231838
  7   -2.022252 -0.104661 3.136172 1.227276 -1.771542 -4.594540
  8   1.168026 -0.537438 -0.063437 -0.280035 0.788844 -0.991101
  9   6.790376 -0.619176 0.015206 -0.000102 -0.000151 -1.220084
 10   8.637599 0.544015 -0.090417 -1.447262 0.185489 -0.201889
 11   6.790465 -0.619039 0.017802 0.001264 -0.011594 -0.869305
 12   -2.022474 -0.104699 -2.873818 -1.200412 0.657795 -4.369503
 13   1.167898 -0.537463 0.063297 -0.906233 -0.492775 -0.520206
 14   7.002743 -0.617765 -0.183752 0.000115 0.000023 -1.605639
 15   8.209042 0.615527 -0.255885 2.053493 -0.253522 0.274099
 16   7.002735 -0.617911 -0.183641 0.013450 0.008721 -1.142702
 17   1.574674 0.609930 -0.000899 0.032090 0.404404 0.483553
 18   -0.602177 0.511412 -0.000006 0.000000 0.000000 0.000000
 19   3.673773 0.177020 1.119313 -0.000002 -0.000014 -0.174510
 20   3.673767 0.176993 -1.117566 0.000007 -0.000003 -0.174546
 21   3.942357 1.330634 1.627658 0.000002 -0.000011 -0.000026
 22   -0.246060 -0.011889 0.516521 -0.000011 0.000031 0.000025
 23   3.942374 1.330659 -1.631083 0.000019 0.000002 -0.000024
 24   -0.246150 -0.011872 -0.516511 -0.000005 -0.000006 0.000048
 25   4.941364 1.997338 1.629330 0.000018 -0.000001 -0.000024
 26   4.941382 1.997366 -1.629410 -0.000001 0.000005 -0.000024
 27   2.918368 1.615358 1.514501 -0.000019 -0.000022 -0.000050
 28   2.920798 1.614964 -1.501142 -0.000002 -0.000009 -0.000024
 29   8.824059 0.150544 0.091743 0.000006 -0.000231 -0.174534
 30   2.111085 -0.561179 1.784320 -0.000008 -0.000682 0.000024
 31   2.121290 -0.561289 -1.853599 0.000000 0.000000 -0.000002
 32   -0.810489 -0.093824 3.127092 3.071872 -0.114782 1.239365
 33   14.298673 -0.408176 0.475484 0.000248 0.000062 -1.896136
 34   15.835795 0.581398 0.242756 -0.214729 0.106889 -0.097869
 35   -0.815868 -0.091229 -3.114430 0.066464 3.132725 -1.010185
 36   14.294526 -0.410349 -0.463635 0.000033 -0.000000 -2.607695
 37   15.834409 0.579420 -0.284600 -0.006092 -0.035255 0.214458
 38   1.139685 -3.453749 -2.823813 0.000000 0.000000 0.000001
 39   -4.457742 -1.054854 -0.746180 0.000000 0.000000 0.000000
 40   1.118101 -3.449769 3.237290 0.000000 0.000001 0.000000
 41   -4.433840 -1.059130 0.959566 -0.000001 0.000000 0.000000
 42   -0.657468 1.697302 -2.688614 0.000000 0.000002 0.000000
 43   -0.664068 1.698578 2.869377 0.000000 0.000002 0.000000
time 1
  0   -0.967547 0.175787 -20.574476 0.000000 0.000000 -1.572114
  1   -1.093036 0.000002 -0.326057 -1.570390 -1.570611 -0.003994
  2   2.262337 0.113614 0.064702 0.000050 0.020027 -0.065971
  3   2.380047 0.353302 0.047440 0.012046 0.021161 -0.000490
  4   2.033756 0.190472 -0.000128 0.050246 -0.034288 0.109187
  5   2.451511 0.204909 -0.003447 0.138852 0.014069 0.071882
  6   7.247600 -0.397300 -0.109469 -0.091897 0.032619 0.231838
  7   -2.022252 -0.104661 3.136172 1.029713 -1.703656 -4.401453
  8   1.168026 -0.537438 -0.063437 -0.248711 0.723687 -0.672205
  9   6.790376 -0.619176 0.015206 -0.000102 -0.000151 -1.195406
 10   8.637599 0.544015 -0.090417 -1.667160 0.223007 -0.065086
 11   6.790465 -0.619039 0.017802 0.001206 -0.011594 -0.852060
 12   -2.022474 -0.104699 -2.873818 -1.204244 0.924554 -4.491860
 13   1.167898 -0.537463 0.063297 -0.694366 -0.688813 -0.959991
 14   7.002743 -0.617765 -0.183752 0.000115 0.000023 -1.516368
 15   8.209042 0.615527 -0.255885 2.022360 -0.351728 0.368575
 16   7.002735 -0.617911 -0.183641 0.013544 0.008214 -1.080058
 17   1.574674 0.609930 -0.000899 0.110487 0.225648 0.462818
 18   -0.602177 0.511412 -0.000006 0.000000 0.000000 0.000000
 19   3.673773 0.177020 1.119313 -0.000002 -0.000014 -0.174510
 20   3.673767 0.176993 -1.117566 0.000007 -0.000003 -0.174546
 21   3.942357 1.330634 1.627658 0.000002 -0.000011 -0.000026
 22   -0.246060 -0.011889 0.516521 -0.000011 0.000031 0.000025
 23   3.942374 1.330659 -1.631083 0.000019 0.000002 -0.000024
 24   -0.246150 -0.011872 -0.516511 -0.000005 -0.000006 0.000048
 25   4.941364 1.997338 1.629330 0.000018 -0.000001 -0.000024
 26   4.941382 1.997366 -1.629410 -0.000001 0.000005 -0.000024
 27   2.918368 1.615358 1.514501 -0.000019 -0.000022 -0.000050
 28   2.920798 1.614964 -1.501142 -0.000002 -0.000009 -0.000024
 29   8.824059 0.150544 0.091743 0.000006 -0.000231 -0.174534
 30   2.111085 -0.561179 1.784320 -0.000008 -0.000682 0.000024
 31   2.121290 -0.561289 -1.853599 0.000000 0.000000 -0.000002
 32   -0.810489 -0.093824 3.127092 3.071872 -0.114782 1.239365
 33   14.298673 -0.408176 0.475484 0.000248 0.000062 -1.896136
 34   15.835795 0.581398 0.242756 -0.214729 0.106889 -0.097869
 35   -0.815868 -0.091229 -3.114430 0.066464 3.132725 -1.010185
 36   14.294526 -0.410349 -0.463635 0.000033 -0.000000 -2.607695
 37   15.834409 0.579420 -0.284600 -0.006092 -0.035255 0.214458
 38   1.139685 -3.453749 -2.823813 0.000000 0.000000 0.000001
 39   -4.457742 -1.054854 -0.746180 0.000000 0.000000 0.000000
 40   1.118101 -3.449769 3.237290 0.000000 0.000001 0.000000
 41   -4.433840 -1.059130 0.959566 -0.000001 0.000000 0.000000
 42   -0.657468 1.697302 -2.688614 0.000000 0.000002 0.000000
 43   -0.664068 1.698578 2.869377 0.000000 0.000002 0.000000
time 2
  0   -0.967547 0.175787 -20.574476 0.000000 0.000000 -1.572114
  1   -1.093036 0.000002 -0.326057 -1.570390 -1.570611 -0.003994
  2   2.262337 0.113614 0.064702 0.002024 0.015653 -0.060080
  3   2.380047 0.353302 0.047440 0.034592 0.030641 -0.007938
  4   2.033756 0.190472 -0.000128 -0.043258 -0.053919 0.087294
  5   2.451511 0.204909 -0.003447 -0.016843 -0.005945 0.034387
  6   7.247600 -0.397300 -0.109469 -0.091897 0.032619 0.231838
  7   -2.022252 -0.104661 3.136172 0.512751 -1.649636 -3.887653
  8   1.168026 -0.537438 -0.063437 -0.212135 0.644140 -0.364696
  9   6.790376 -0.619176 0.015206 -0.000102 -0.000151 -1.171181
 10   8.637599 0.544015 -0.090417 -1.896657 0.282135 0.044516
 11   6.790465 -0.619039 0.017802 0.001118 -0.011566 -0.835046
 12   -2.022474 -0.104699 -2.873818 -1.344410 1.196392 -4.700385
 13   1.167898 -0.537463 0.063297 -0.299524 -0.768347 -1.531015
 14   7.002743 -0.617765 -0.183752 0.000115 0.000023 -1.427262
 15   8.209042 0.615527 -0.255885 1.980872 -0.448573 0.468463
 16   7.002735 -0.617911 -0.183641 0.013686 0.007706 -1.017690
 17   1.574674 0.609930 -0.000899 0.214474 0.062962 0.412034
 18   -0.602177 0.511412 -0.000006 0.000000 0.000000 0.000000
 19   3.673773 0.177020 1.119313 -0.000002 -0.000014 -0.174510
 20   3.673767 0.176993 -1.117566 0.000007 -0.000003 -0.174546
 21   3.942357 1.330634 1.627658 0.000002 -0.000011 -0.000026
 22   -0.246060 -0.011889 0.516521 -0.000011 0.000031 0.000025
 23   3.942374 1.330659 -1.631083 0.000019 0.000002 -0.000024
 24   -0.246150 -0.011872 -0.516511 -0.000005 -0.000006 0.000048
 25   4.941364 1.997338 1.629330 0.000018 -0.000001 -0.000024
 26   4.941382 1.997366 -1.629410 -0.000001 0.000005 -0.000024
 27   2.918368 1.615358 1.514501 -0.000019 -0.000022 -0.000050
 28   2.920798 1.614964 -1.501142 -0.000002 -0.000009 -0.000024
 29   8.824059 0.150544 0.091743 0.000006 -0.000231 -0.174534
 30   2.111085 -0.561179 1.784320 -0.000008 -0.000682 0.000024
 31   2.121290 -0.561289 -1.853599 0.000000 0.000000 -0.000002
 32   -0.810489 -0.093824 3.127092 3.071872 -0.114782 1.239365
 33   14.298673 -0.408176 0.475484 0.000248 0.000062 -1.896136
 34   15.835795 0.581398 0.242756 -0.214729 0.106889 -0.097869
 35   -0.815868 -0.091229 -3.114430 0.066464 3.132725 -1.010185
 36   14.294526 -0.410349 -0.463635 0.000033 -0.000000 -2.607695
 37   15.834409 0.579420 -0.284600 -0.006092 -0.035255 0.214458
 38   1.139685 -3.453749 -2.823813 0.000000 0.000000 0.000001
 39   -4.457742 -1.054854 -0.746180 0.000000 0.000000 0.000000
 40   1.118101 -3.449769 3.237290 0.000000 0.000001 0.000000
 41   -4.433840 -1.059130 0.959566 -0.000001 0.000000 0.000000
 42   -0.657468 1.697302 -2.688614 0.000000 0.000002 0.000000
 43   -0.664068 1.698578 2.869377 0.000000 0.000002 0.000000
time 3
  0   -0.967547 0.175787 -20.574476 0.000000 0.000000 -1.572114
  1   -1.093036 0.000002 -0.326057 -1.570390 -1.570611 -0.003994
  2   2.262337 0.113614 0.064702 -0.000218 0.011518 -0.053990
  3   2.380047 0.353302 0.047440 0.037082 0.037160 -0.015978
  4   2.033756 0.190472 -0.000128 -0.102846 -0.063650 0.068917
  5   2.451511 0.204909 -0.003447 -0.108675 -0.017382 0.009275
  6   7.247600 -0.397300 -0.109469 -0.091897 0.032619 0.231838
  7   -2.022252 -0.104661 3.136172 2.548486 -1.487833 -5.926797
  8   1.168026 -0.537438 -0.063437 -0.229094 0.613448 -0.212365
  9   6.790376 -0.619176 0.015206 -0.000102 -0.000151 -1.124844
 10   8.637599 0.544015 -0.090417 -2.164198 0.355482 0.138274
 11   6.790465 -0.619039 0.017802 0.000914 -0.011566 -0.802575
 12   -2.022474 -0.104699 -2.873818 -1.723231 1.343892 -5.101157
 13   1.167898 -0.537463 0.063297 0.057781 -0.665167 -1.916077
 14   7.002743 -0.617765 -0.183752 0.000115 0.000023 -1.309527
 15   8.209042 0.615527 -0.255885 1.995612 -0.470363 0.519519
 16   7.002735 -0.617911 -0.183641 0.013827 0.007086 -0.935287
 17   1.574674 0.609930 -0.000899 0.291368 -0.028842 0.293795
 18   -0.602177 0.511412 -0.000006 0.000000 0.000000 0.000000
 19   3.673773 0.177020 1.119313 -0.000002 -0.000014 -0.174510
 20   3.673767 0.176993 -1.117566 0.000007 -0.000003 -0.174546
 21   3.942357 1.330634 1.627658 0.000002 -0.000011 -0.000026
 22   -0.246060 -0.011889 0.516521 -0.000011 0.000031 0.000025
 23   3.942374 1.330659 -1.631083 0.000019 0.000002 -0.000024
 24   -0.246150 -0.011872 -0.516511 -0.000005 -0.000006 0.000048
 25   4.941364 1.997338 1.629330 0.000018 -0.000001 -0.000024
 26   4.941382 1.997366 -1.629410 -0.000001 0.000005 -0.000024
 27   2.918368 1.615358 1.514501 -0.000019 -0.000022 -0.000050
 28   2.920798 1.614964 -1.501142 -0.000002 -0.000009 -0.000024
 29   8.824059 0.150544 0.091743 0.000006 -0.000231 -0.174534
 30   2.111085 -0.561179 1.784320 -0.000008 -0.000682 0.000024
 31   2.121290 -0.561289 -1.853599 0.000000 0.000000 -0.000002
 32   -0.810489 -0.093824 3.127092 3.071872 -0.114782 1.239365
 33   14.298673 -0.408176 0.475484 0.000248 0.000062 -1.896136
 34   15.835795 0.581398 0.242756 -0.214729 0.106889 -0.097869
 35   -0.815868 -0.091229 -3.114430 0.066464 3.132725 -1.010185
 36   14.294526 -0.410349 -0.463635 0.000033 -0.000000 -2.607695
 37   15.834409 0.579420 -0.284600 -0.006092 -0.035255 0.214458
 38   1.139685 -3.453749 -2.823813 0.000000 0.000000 0.000001
 39   -4.457742 -1.054854 -0.746180 0.000000 0.000000 0.000000
 40   1.118101 -3.449769 3.237290 0.000000 0.000001 0.000000
 41   -4.433840 -1.059130 0.959566 -0.000001 0.000000 0.000000
 42   -0.657468 1.697302 -2.688614 0.000000 0.000002 0.000000
 43   -0.664068 1.698578 2.869377 0.000000 0.000002 0.000000
time 4
  0   -0.967547 0.175787 -20.574476 0.000000 0.000000 -1.572114
  1   -1.093036 0.000002 -0.326057 -1.570390 -1.570611 -0.003994
  2   2.262337 0.113614 0.064702 -0.007325 0.008030 -0.047467
  3   2.380047 0.353302 0.047440 0.018256 0.040288 -0.025242
  4   2.033756 0.190472 -0.000128 -0.127098 -0.060822 0.052714
  5   2.451511 0.204909 -0.003447 -0.133580 -0.013165 -0.004767
  6   7.247600 -0.397300 -0.109469 -0.091897 0.032619 0.231838
  7   -2.022252 -0.104661 3.136172 1.985896 -1.401902 -5.368856
  8   1.168026 -0.537438 -0.063437 -0.341037 0.678555 -0.258735
  9   6.790376 -0.619176 0.015206 -0.000102 -0.000151 -1.020397
 10   8.637599 0.544015 -0.090417 -2.511878 0.444103 0.225087
 11   6.790465 -0.619039 0.017802 0.000505 -0.011452 -0.729501
 12   -2.022474 -0.104699 -2.873818 -1.864834 1.327348 -5.247066
 13   1.167898 -0.537463 0.063297 0.274357 -0.486673 -1.962991
 14   7.002743 -0.617765 -0.183752 0.000115 0.000023 -1.138163
 15   8.209042 0.615527 -0.255885 2.146536 -0.363683 0.484159
 16   7.002735 -0.617911 -0.183641 0.014015 0.006071 -0.815353
 17   1.574674 0.609930 -0.000899 0.333369 -0.034948 0.095906
 18   -0.602177 0.511412 -0.000006 0.000000 0.000000 0.000000
 19   3.673773 0.177020 1.119313 -0.000002 -0.000014 -0.174510
 20   3.673767 0.176993 -1.117566 0.000007 -0.000003 -0.174546
 21   3.942357 1.330634 1.627658 0.000002 -0.000011 -0.000026
 22   -0.246060 -0.011889 0.516521 -0.000011 0.000031 0.000025
 23   3.942374 1.330659 -1.631083 0.000019 0.000002 -0.000024
 24   -0.246150 -0.011872 -0.516511 -0.000005 -0.000006 0.000048
 25   4.941364 1.997338 1.629330 0.000018 -0.000001 -0.000024
 26   4.941382 1.997366 -1.629410 -0.000001 0.000005 -0.000024
 27   2.918368 1.615358 1.514501 -0.000019 -0.000022 -0.000050
 28   2.920798 1.614964 -1.501142 -0.000002 -0.000009 -0.000024
 29   8.824059 0.150544 0.091743 0.000006 -0.000231 -0.174534
 30   2.111085 -0.561179 1.784320 -0.000008 -0.000682 0.000024
 31   2.121290 -0.561289 -1.853599 0.000000 0.000000 -0.000002
 32   -0.810489 -0.093824 3.127092 3.071872 -0.114782 1.239365
 33   14.298673 -0.408176 0.475484 0.000248 0.000062 -1.896136
 34   15.835795 0.581398 0.242756 -0.214729 0.106889 -0.097869
 35   -0.815868 -0.091229 -3.114430 0.066464 3.132725 -1.010185
 36   14.294526 -0.410349 -0.463635 0.000033 -0.000000 -2.607695
 37   15.834409 0.579420 -0.284600 -0.006092 -0.035255 0.214458
 38   1.139685 -3.453749 -2.823813 0.000000 0.000000 0.000001
 39   -4.457742 -1.054854 -0.746180 0.000000 0.000000 0.000000
 40   1.118101 -3.449769 3.237290 0.000000 0.000001 0.000000
 41   -4.433840 -1.059130 0.959566 -0.000001 0.000000 0.000000
 42   -0.657468 1.697302 -2.688614 0.000000 0.000002 0.000000
 43   -0.664068 1.698578 2.869377 0.000000 0.000002 0.000000
time 5
  0   -0.967547 0.175787 -20.574476 0.000000 0.000000 -1.572114
  1   -1.093036 0.000002 -0.326057 -1.570390 -1.570611 -0.003994
  2   2.262337 0.113614 0.064702 -0.016229 0.004783 -0.040817
  3   2.380047 0.353302 0.047440 -0.007741 0.041654 -0.035322
  4   2.033756 0.190472 -0.000128 -0.138975 -0.053415 0.037056
  5   2.451511 0.204909 -0.003447 -0.135343 -0.002681 -0.014995
  6   7.247600 -0.397300 -0.109469 -0.091897 0.032619 0.231838
  7   -2.022252 -0.104661 3.136172 1.810284 -1.290604 -5.198873
  8   1.168026 -0.537438 -0.063437 -0.572517 0.748844 -0.434852
  9   6.790376 -0.619176 0.015206 -0.000102 -0.000151 -0.894895
 10   8.637599 0.544015 -0.090417 -2.911252 0.534977 0.275077
 11   6.790465 -0.619039 0.017802 -0.000021 -0.011395 -0.641662
 12   -2.022474 -0.104699 -2.873818 -1.728309 1.232817 -5.110157
 13   1.167898 -0.537463 0.063297 0.428653 -0.295516 -1.845675
 14   7.002743 -0.617765 -0.183752 0.000115 0.000023 -0.938995
 15   8.209042 0.615527 -0.255885 2.333987 -0.169011 0.443085
 16   7.002735 -0.617911 -0.183641 0.014156 0.005056 -0.676047
 17   1.574674 0.609930 -0.000899 0.362007 0.007652 -0.123273
 18   -0.602177 0.511412 -0.000006 0.000000 0.000000 0.000000
 19   3.673773 0.177020 1.119313 -0.000002 -0.000014 -0.174510
 20   3.673767 0.176993 -1.117566 0.000007 -0.000003 -0.174546
 21   3.942357 1.330634 1.627658 0.000002 -0.000011 -0.000026
 22   -0.246060 -0.011889 0.516521 -0.000011 0.000031 0.000025
 23   3.942374 1.330659 -1.631083 0.000019 0.000002 -0.000024
 24   -0.246150 -0.011872 -0.516511 -0.000005 -0.000006 0.000048
 25   4.941364 1.997338 1.629330 0.000018 -0.000001 -0.000024
 26   4.941382 1.997366 -1.629410 -0.000001 0.000005 -0.000024
 27   2.918368 1.615358 1.514501 -0.000019 -0.000022 -0.000050
 28   2.920798 1.614964 -1.501142 -0.000002 -0.000009 -0.000024
 29   8.824059 0.150544 0.091743 0.000006 -0.000231 -0.174534
 30   2.111085 -0.561179 1.784320 -0.000008 -0.000682 0.000024
 31   2.121290 -0.561289 -1.853599 0.000000 0.000000 -0.000002
 32   -0.810489 -0.093824 3.127092 3.071872 -0.114782 1.239365
 33   14.298673 -0.408176 0.475484 0.000248 0.000062 -1.896136
 34   15.835795 0.581398 0.242756 -0.214729 0.106889 -0.097869
 35   -0.815868 -0.091229 -3.114430 0.066464 3.132725 -1.010185
 36   14.294526 -0.410349 -0.463635 0.000033 -0.000000 -2.607695
 37   15.834409 0.579420 -0.284600 -0.006092 -0.035255 0.214458
 38   1.139685 -3.453749 -2.823813 0.000000 0.000000 0.000001
 39   -4.457742 -1.054854 -0.746180 0.000000 0.000000 0.000000
 40   1.118101 -3.449769 3.237290 0.000000 0.000001 0.000000
 41   -4.433840 -1.059130 0.959566 -0.000001 0.000000 0.000000
 42   -0.657468 1.697302 -2.688614 0.000000 0.000002 0.000000
 43   -0.664068 1.698578 2.869377 0.000000 0.000002 0.000000
time 6
  0   -0.967547 0.175787 -20.574476 0.000000 0.000000 -1.572114
  1   -1.093036 0.000002 -0.326057 -1.570390 -1.570611 -0.003994
  2   2.262337 0.113614 0.064702 -0.026126 0.001822 -0.033841
  3   2.380047 0.353302 0.047440 -0.038913 0.041534 -0.046137
  4   2.033756 0.190472 -0.000128 -0.142848 -0.042989 0.021433
  5   2.451511 0.204909 -0.003447 -0.121855 0.012293 -0.022227
  6   7.247600 -0.397300 -0.109469 -0.091897 0.032619 0.231838
  7   -2.022252 -0.104661 3.136172 1.744238 -1.196053 -5.136984
  8   1.168026 -0.537438 -0.063437 -0.827601 0.710756 -0.597431
  9   6.790376 -0.619176 0.015206 -0.000102 -0.000151 -0.833917
 10   8.637599 0.544015 -0.090417 -3.269059 0.592486 0.270592
 11   6.790465 -0.619039 0.017802 -0.000225 -0.011310 -0.598925
 12   -2.022474 -0.104699 -2.873818 -1.630298 1.118521 -5.007905
 13   1.167898 -0.537463 0.063297 0.568187 -0.126633 -1.716312
 14   7.002743 -0.617765 -0.183752 0.000115 0.000023 -0.760866
 15   8.209042 0.615527 -0.255885 2.408190 0.013329 0.440619
 16   7.002735 -0.617911 -0.183641 0.014345 0.004154 -0.551256
 17   1.574674 0.609930 -0.000899 0.371309 0.046561 -0.276513
 18   -0.602177 0.511412 -0.000006 0.000000 0.000000 0.000000
 19   3.673773 0.177020 1.119313 -0.000002 -0.000014 -0.174510
 20   3.673767 0.176993 -1.117566 0.000007 -0.000003 -0.174546
 21   3.942357 1.330634 1.627658 0.000002 -0.000011 -0.000026
 22   -0.246060 -0.011889 0.516521 -0.000011 0.000031 0.000025
 23   3.942374 1.330659 -1.631083 0.000019 0.000002 -0.000024
 24   -0.246150 -0.011872 -0.516511 -0.000005 -0.000006 0.000048
 25   4.941364 1.997338 1.629330 0.000018 -0.000001 -0.000024
 26   4.941382 1.997366 -1.629410 -0.000001 0.000005 -0.000024
 27   2.918368 1.615358 1.514501 -0.000019 -0.000022 -0.000050
 28   2.920798 1.614964 -1.501142 -0.000002 -0.000009 -0.000024
 29   8.824059 0.150544 0.091743 0.000006 -0.000231 -0.174534
 30   2.111085 -0.561179 1.784320 -0.000008 -0.000682 0.000024
 31   2.121290 -0.561289 -1.853599 0.000000 0.000000 -0.000002
 32   -0.810489 -0.093824 3.127092 3.071872 -0.114782 1.239365
 33   14.298673 -0.408176 0.475484 0.000248 0.000062 -1.896136
 34   15.835795 0.581398 0.242756 -0.214729 0.106889 -0.097869
 35   -0.815868 -0.091229 -3.114430 0.066464 3.132725 -1.010185
 36   14.294526 -0.410349 -0.463635 0.000033 -0.000000 -2.607695
 37   15.834409 0.579420 -0.284600 -0.006092 -0.035255 0.214458
 38   1.139685 -3.453749 -2.823813 0.000000 0.000000 0.000001
 39   -4.457742 -1.054854 -0.746180 0.000000 0.000000 0.000000
 40   1.118101 -3.449769 3.237290 0.000000 0.000001 0.000000
 41   -4.433840 -1.059130 0.959566 -0.000001 0.000000 0.000000
 42   -0.657468 1.697302 -2.688614 0.000000 0.000002 0.000000
 43   -0.664068 1.698578 2.869377 0.000000 0.000002 0.000000
time 7
  0   -0.967547 0.175787 -20.574476 0.000000 0.000000 -1.572114
  1   -1.093036 0.000002 -0.326057 -1.570390 -1.570611 -0.003994
  2   2.262337 0.113614 0.064702 -0.036558 -0.000934 -0.026667
  3   2.380047 0.353302 0.047440 -0.072455 0.039988 -0.057544
  4   2.033756 0.190472 -0.000128 -0.142903 -0.030812 0.006137
  5   2.451511 0.204909 -0.003447 -0.100767 0.030467 -0.027725
  6   7.247600 -0.397300 -0.109469 -0.091897 0.032619 0.231838
  7   -2.022252 -0.104661 3.136172 1.717877 -1.138458 -5.113506
  8   1.168026 -0.537438 -0.063437 -0.965299 0.571989 -0.603694
  9   6.790376 -0.619176 0.015206 -0.000102 -0.000151 -0.888329
 10   8.637599 0.544015 -0.090417 -3.516257 0.601285 0.230513
 11   6.790465 -0.619039 0.017802 -0.000079 -0.011395 -0.637048
 12   -2.022474 -0.104699 -2.873818 -1.577412 1.004457 -4.948258
 13   1.167898 -0.537463 0.063297 0.713977 0.003703 -1.641794
 14   7.002743 -0.617765 -0.183752 0.000115 0.000023 -0.627785
 15   8.209042 0.615527 -0.255885 2.300480 0.137562 0.440018
 16   7.002735 -0.617911 -0.183641 0.014439 0.003477 -0.458146
 17   1.574674 0.609930 -0.000899 0.373990 0.058844 -0.336908
 18   -0.602177 0.511412 -0.000006 0.000000 0.000000 0.000000
 19   3.673773 0.177020 1.119313 -0.000002 -0.000014 -0.174510
 20   3.673767 0.176993 -1.117566 0.000007 -0.000003 -0.174546
 21   3.942357 1.330634 1.627658 0.000002 -0.000011 -0.000026
 22   -0.246060 -0.011889 0.516521 -0.000011 0.000031 0.000025
 23   3.942374 1.330659 -1.631083 0.000019 0.000002 -0.000024
 24   -0.246150 -0.011872 -0.516511 -0.000005 -0.000006 0.000048
 25   4.941364 1.997338 1.629330 0.000018 -0.000001 -0.000024
 26   4.941382 1.997366 -1.629410 -0.000001 0.000005 -0.000024
 27   2.918368 1.615358 1.514501 -0.000019 -0.000022 -0.000050
 28   2.920798 1.614964 -1.501142 -0.000002 -0.000009 -0.000024
 29   8.824059 0.150544 0.091743 0.000006 -0.000231 -0.174534
 30   2.111085 -0.561179 1.784320 -0.000008 -0.000682 0.000024
 31   2.121290 -0.561289 -1.853599 0.000000 0.000000 -0.000002
 32   -0.810489 -0.093824 3.127092 3.071872 -0.114782 1.239365
 33   14.298673 -0.408176 0.475484 0.000248 0.000062 -1.896136
 34   15.835795 0.581398 0.242756 -0.214729 0.106889 -0.097869
 35   -0.815868 -0.091229 -3.114430 0.066464 3.132725 -1.010185
 36   14.294526 -0.410349 -0.463635 0.000033 -0.000000 -2.607695
 37   15.834409 0.579420 -0.284600 -0.006092 -0.035255 0.214458
 38   1.139685 -3.453749 -2.823813 0.000000 0.000000 0.000001
 39   -4.457742 -1.054854 -0.746180 0.000000 0.000000 0.000000
 40   1.118101 -3.449769 3.237290 0.000000 0.000001 0.000000
 41   -4.433840 -1.059130 0.959566 -0.000001 0.000000 0.000000
 42   -0.657468 1.697302 -2.688614 0.000000 0.000002 0.000000
 43   -0.664068 1.698578 2.869377 0.000000 0.000002 0.000000
time 8
  0   -0.967547 0.175787 -20.574476 0.000000 0.000000 -1.572114
  1   -1.093036 0.000002 -0.326057 -1.570390 -1.570611 -0.003994
  2   2.262337 0.113614 0.064702 -0.046926 -0.003547 -0.019457
  3   2.380047 0.353302 0.047440 -0.105682 0.037651 -0.069318
  4   2.033756 0.190472 -0.000128 -0.143143 -0.018984 -0.009268
  5   2.451511 0.204909 -0.003447 -0.080124 0.048849 -0.032752
  6   7.247600 -0.397300 -0.109469 -0.091897 0.032619 0.231838
  7   -2.022252 -0.104661 3.136172 1.703882 -1.101387 -5.101391
  8   1.168026 -0.537438 -0.063437 -1.030098 0.401222 -0.517217
  9   6.790376 -0.619176 0.015206 -0.000102 -0.000151 -1.007492
 10   8.637599 0.544015 -0.090417 -3.693972 0.580731 0.185153
 11   6.790465 -0.619039 0.017802 0.000388 -0.011452 -0.720619
 12   -2.022474 -0.104699 -2.873818 -1.535066 0.872224 -4.892345
 13   1.167898 -0.537463 0.063297 0.862930 0.128496 -1.578414
 14   7.002743 -0.617765 -0.183752 0.000115 0.000023 -0.515990
 15   8.209042 0.615527 -0.255885 2.086856 0.237962 0.410430
 16   7.002735 -0.617911 -0.183641 0.014486 0.002857 -0.379882
 17   1.574674 0.609930 -0.000899 0.377036 0.062678 -0.348440
 18   -0.602177 0.511412 -0.000006 0.000000 0.000000 0.000000
 19   3.673773 0.177020 1.119313 -0.000002 -0.000014 -0.174510
 20   3.673767 0.176993 -1.117566 0.000007 -0.000003 -0.174546
 21   3.942357 1.330634 1.627658 0.000002 -0.000011 -0.000026
 22   -0.246060 -0.011889 0.516521 -0.000011 0.000031 0.000025
 23   3.942374 1.330659 -1.631083 0.000019 0.000002 -0.000024
 24   -0.246150 -0.011872 -0.516511 -0.000005 -0.000006 0.000048
 25   4.941364 1.997338 1.629330 0.000018 -0.000001 -0.000024
 26   4.941382 1.997366 -1.629410 -0.000001 0.000005 -0.000024
 27   2.918368 1.615358 1.514501 -0.000019 -0.000022 -0.000050
 28   2.920798 1.614964 -1.501142 -0.000002 -0.000009 -0.000024
 29   8.824059 0.150544 0.091743 0.000006 -0.000231 -0.174534
 30   2.111085 -0.561179 1.784320 -0.000008 -0.000682 0.000024
 31   2.121290 -0.561289 -1.853599 0.000000 0.000000 -0.000002
 32   -0.810489 -0.093824 3.127092 3.071872 -0.114782 1.239365
 33   14.298673 -0.408176 0.475484 0.000248 0.000062 -1.896136
 34   15.835795 0.581398 0.242756 -0.214729 0.106889 -0.097869
 35   -0.815868 -0.091229 -3.114430 0.066464 3.132725 -1.010185
 36   14.294526 -0.410349 -0.463635 0.000033 -0.000000 -2.607695
 37   15.834409 0.579420 -0.284600 -0.006092 -0.035255 0.214458
 38   1.139685 -3.453749 -2.823813 0.000000 0.000000 0.000001
 39   -4.457742 -1.054854 -0.746180 0.000000 0.000000 0.000000
 40   1.118101 -3.449769 3.237290 0.000000 0.000001 0.000000
 41   -4.433840 -1.059130 0.959566 -0.000001 0.000000 0.000000
 42   -0.657468 1.697302 -2.688614 0.000000 0.000002 0.000000
 43   -0.664068 1.698578 2.869377 0.000000 0.000002 0.000000
time 9
  0   -0.967547 0.175787 -20.574476 0.000000 0.000000 -1.572114
  1   -1.093036 0.000002 -0.326057 -1.570390 -1.570611 -0.003994
  2   2.262337 0.113614 0.064702 -0.056747 -0.006183 -0.012174
  3   2.380047 0.353302 0.047440 -0.136239 0.035099 -0.081010
  4   2.033756 0.190472 -0.000128 -0.147606 -0.009552 -0.025398
  5   2.451511 0.204909 -0.003447 -0.067612 0.065103 -0.039117
  6   7.247600 -0.397300 -0.109469 -0.091897 0.032619 0.231838
  7   -2.022252 -0.104661 3.136172 1.692091 -1.064259 -5.091060
  8   1.168026 -0.537438 -0.063437 -1.076483 0.237902 -0.398667
  9   6.790376 -0.619176 0.015206 -0.000102 -0.000151 -1.127259
 10   8.637599 0.544015 -0.090417 -3.863057 0.546310 0.152743
 11   6.790465 -0.619039 0.017802 0.000943 -0.011566 -0.804363
 12   -2.022474 -0.104699 -2.873818 -1.513222 0.739207 -4.850890
 13   1.167898 -0.537463 0.063297 1.018562 0.268138 -1.487854
 14   7.002743 -0.617765 -0.183752 0.000115 0.000023 -0.404360
 15   8.209042 0.615527 -0.255885 1.863310 0.327089 0.356908
 16   7.002735 -0.617911 -0.183641 0.014533 0.002293 -0.301674
 17   1.574674 0.609930 -0.000899 0.386338 0.067080 -0.335540
 18   -0.602177 0.511412 -0.000006 0.000000 0.000000 0.000000
 19   3.673773 0.177020 1.119313 -0.000002 -0.000014 -0.174510
 20   3.673767 0.176993 -1.117566 0.000007 -0.000003 -0.174546
 21   3.942357 1.330634 1.627658 0.000002 -0.000011 -0.000026
 22   -0.246060 -0.011889 0.516521 -0.000011 0.000031 0.000025
 23   3.942374 1.330659 -1.631083 0.000019 0.000002 -0.000024
 24   -0.246150 -0.011872 -0.516511 -0.000005 -0.000006 0.000048
 25   4.941364 1.997338 1.629330 0.000018 -0.000001 -0.000024
 26   4.941382 1.997366 -1.629410 -0.000001 0.000005 -0.000024
 27   2.918368 1.615358 1.514501 -0.000019 -0.000022 -0.000050
 28   2.920798 1.614964 -1.501142 -0.000002 -0.000009 -0.000024
 29   8.824059 0.150544 0.091743 0.000006 -0.000231 -0.174534
 30   2.111085 -0.561179 1.784320 -0.000008 -0.000682 0.000024
 31   2.121290 -0.561289 -1.853599 0.000000 0.000000 -0.000002
 32   -0.810489 -0.093824 3.127092 3.071872 -0.114782 1.239365
 33   14.298673 -0.408176 0.475484 0.000248 0.000062 -1.896136
 34   15.835795 0.581398 0.242756 -0.214729 0.106889 -0.097869
 35   -0.815868 -0.091229 -3.114430 0.066464 3.132725 -1.010185
 36   14.294526 -0.410349 -0.463635 0.000033 -0.000000 -2.607695
 37   15.834409 0.579420 -0.284600 -0.006092 -0.035255 0.214458
 38   1.139685 -3.453749 -2.823813 0.000000 0.000000 0.000001
 39   -4.457742 -1.054854 -0.746180 0.000000 0.000000 0.000000
 40   1.118101 -3.449769 3.237290 0.000000 0.000001 0.000000
 41   -4.433840 -1.059130 0.959566 -0.000001 0.000000 0.000000
 42   -0.657468 1.697302 -2.688614 0.000000 0.000002 0.000000
 43   -0.664068 1.698578 2.869377 0.000000 0.000002 0.000000
time 10
  0   -0.967547 0.175787 -20.574476 0.000000 0.000000 -1.572114
  1   -1.093036 0.000002 -0.326057 -1.570390 -1.570611 -0.003994
  2   2.262337 0.113614 0.064702 -0.056454 -0.017485 -0.005524
  3   2.380047 0.353302 0.047440 -0.120608 0.047946 -0.090846
  4   2.033756 0.190472 -0.000128 -0.132557 -0.000791 -0.041165
  5   2.451511 0.204909 -0.003447 -0.065164 0.074046 -0.055487
  6   7.247600 -0.397300 -0.109469 -0.091897 0.032619 0.231838
  7   -2.022252 -0.104661 3.136172 1.692091 -1.064259 -5.091060
  8   1.168026 -0.537438 -0.063437 -1.097492 0.160267 -0.431689
  9   6.790376 -0.619176 0.015206 -0.000102 -0.000151 -1.044924
 10   8.637599 0.544015 -0.090417 -3.909379 0.493165 0.098774
 11   6.790465 -0.619039 0.017802 0.000622 -0.011452 -0.746688
 12   -2.022474 -0.104699 -2.873818 -1.513222 0.739207 -4.850890
 13   1.167898 -0.537463 0.063297 1.012024 0.306176 -1.473144
 14   7.002743 -0.617765 -0.183752 0.000115 0.000023 -0.385549
 15   8.209042 0.615527 -0.255885 1.841164 0.337605 0.337604
 16   7.002735 -0.617911 -0.183641 0.014533 0.002180 -0.288538
 17   1.574674 0.609930 -0.000899 0.327601 0.060477 -0.336279
 18   -0.602177 0.511412 -0.000006 0.000000 0.000000 0.000000
 19   3.673773 0.177020 1.119313 -0.000002 -0.000014 -0.174510
 20   3.673767 0.176993 -1.117566 0.000007 -0.000003 -0.174546
 21   3.942357 1.330634 1.627658 0.000002 -0.000011 -0.000026
 22   -0.246060 -0.011889 0.516521 -0.000011 0.000031 0.000025
 23   3.942374 1.330659 -1.631083 0.000019 0.000002 -0.000024
 24   -0.246150 -0.011872 -0.516511 -0.000005 -0.000006 0.000048
 25   4.941364 1.997338 1.629330 0.000018 -0.000001 -0.000024
 26   4.941382 1.997366 -1.629410 -0.000001 0.000005 -0.000024
 27   2.918368 1.615358 1.514501 -0.000019 -0.000022 -0.000050
 28   2.920798 1.614964 -1.501142 -0.000002 -0.000009 -0.000024
 29   8.824059 0.150544 0.091743 0.000006 -0.000231 -0.174534
 30   2.111085 -0.561179 1.784320 -0.000008 -0.000682 0.000024
 31   2.121290 -0.561289 -1.853599 0.000000 0.000000 -0.000002
 32   -0.810489 -0.093824 3.127092 3.071872 -0.114782 1.239365
 33   14.298673 -0.408176 0.475484 0.000248 0.000062 -1.896136
 34   15.835795 0.581398 0.242756 -0.214729 0.106889 -0.097869
 35   -0.815868 -0.091229 -3.114430 0.066464 3.132725 -1.010185
 36   14.294526 -0.410349 -0.463635 0.000033 -0.000000 -2.607695
 37   15.834409 0.579420 -0.284600 -0.006092 -0.035255 0.214458
 38   1.139685 -3.453749 -2.823813 0.000000 0.000000 0.000001
 39   -4.457742 -1.054854 -0.746180 0.000000 0.000000 0.000000
 40   1.118101 -3.449769 3.237290 0.000000 0.000001 0.000000
 41   -4.433840 -1.059130 0.959566 -0.000001 0.000000 0.000000
 42   -0.657468 1.697302 -2.688614 0.000000 0.000002 0.000000
 43   -0.664068 1.698578 2.869377 0.000000 0.000002 0.000000
end
