version 1
nodes
  0 "Bip01" -1
  1 "Bip01 Pelvis" 0
  2 "Bip01 Spine" 1
  3 "Bip01 Spine1" 2
  4 "Bip01 Spine2" 3
  5 "Bip01 Spine3" 4
  6 "Bip01 Neck" 5
  7 "Bip01 L Arm" 6
  8 "Bip01 L Arm1" 7
  9 "Bip01 L Arm2" 8
 10 "Bip01 L Hand" 9
 11 "Bip06 L elbow2-smooth" 8
 12 "Bip01 R Arm" 6
 13 "Bip01 R Arm1" 12
 14 "Bip01 R Arm2" 13
 15 "Bip01 R Hand" 14
 16 "Bip06 R elbow2-smooth" 13
 17 "Bip01 Head" 6
 18 "Bip06 Head_helper" 17
 19 "Bip06 Head_eyes_l" 18
 20 "Bip06 Head_eyes_r" 18
 21 "Bip06 Head_blink_l" 18
 22 "Bip06 Head_blink_smooth_l1" 21
 23 "Bip06 Head_blink_r" 18
 24 "Bip06 Head_blink_smooth_r1" 23
 25 "Bip06 Head_L_eyebrow" 18
 26 "Bip06 Head_R_eyebrow" 18
 27 "Bip06 Head_blink_l_lid" 18
 28 "Bip06 Head_blink_r_lid" 18
 29 "Bip06 bunny" 18
 30 "Bip06 bunnyL" 29
 31 "Bip06 bunnyR" 29
 32 "Bip01 L Leg" 1
 33 "Bip01 L Leg1" 32
 34 "Bip01 L Foot" 33
 35 "Bip01 R Leg" 1
 36 "Bip01 R Leg1" 35
 37 "Bip01 R Foot" 36
 38 "Bip03 HairR1" 17
 39 "Bip03 HairR2" 38
 40 "Bip03 HairL1" 17
 41 "Bip03 HairL2" 40
 42 "Bip03 swingR" 17
 43 "Bip03 swingL" 17
end
skeleton
time 0
  0   -0.967547 0.175787 -20.574476 0.000000 0.000000 -1.572114
  1   -1.093036 0.000002 -0.326057 -1.570757 -1.570379 -0.000171
  2   2.262337 0.113614 0.064702 -0.000052 0.000061 -0.051442
  3   2.380047 0.353302 0.047440 -0.151495 0.040528 0.258477
  4   2.033756 0.190472 -0.000128 -0.059875 0.011146 0.182551
  5   2.451511 0.204909 -0.003447 -0.086560 0.009761 0.112720
  6   7.247600 -0.397300 -0.109469 0.000001 0.000033 -0.122015
  7   -2.022252 -0.104661 3.136172 1.439218 -0.571876 -4.351961
  8   1.168026 -0.537438 -0.063437 -0.871264 0.657574 -0.748307
  9   6.790376 -0.619176 0.015206 -0.000213 -0.000151 -0.002944
 10   8.637599 0.544015 -0.090417 -1.014511 -0.577895 -0.036727
 11   6.790465 -0.619039 0.017802 -0.003495 -0.010656 -0.017273
 12   -2.022474 -0.104699 -2.873818 0.298586 1.361829 -2.728022
 13   1.167898 -0.537463 0.063297 -0.806766 -0.990270 0.588852
 14   7.002743 -0.617765 -0.183752 0.000286 0.000250 -1.630803
 15   8.209042 0.615527 -0.255885 1.569443 0.019760 -0.069285
 16   7.002735 -0.617911 -0.183641 0.013497 0.009003 -1.160198
 17   1.574674 0.609930 -0.000899 0.206919 -0.217609 0.538662
 18   -0.602177 0.511412 -0.000006 0.000000 0.000000 0.000000
 19   3.673773 0.177020 1.119313 -0.000002 -0.000014 -0.174510
 20   3.673767 0.176993 -1.117566 0.000007 -0.000003 -0.174546
 21   3.942357 1.330634 1.627658 0.000002 -0.000011 -0.000026
 22   -0.246060 -0.011889 0.516521 -0.000011 0.000031 0.000025
 23   3.942374 1.330659 -1.631083 0.000019 0.000002 -0.000024
 24   -0.246150 -0.011872 -0.516511 -0.000005 -0.000006 0.000048
 25   4.941364 1.997338 1.629330 0.000018 0.261736 -0.000024
 26   4.941382 1.997366 -1.629410 -0.000001 -0.261744 -0.000024
 27   2.918368 1.615358 1.514501 -0.000019 -0.000022 -0.000050
 28   2.920798 1.614964 -1.501142 -0.000002 -0.000009 -0.000024
 29   8.824059 0.150544 0.091743 0.000006 -0.000231 -0.174534
 30   2.111085 -0.561179 1.784320 -0.000008 -0.000682 0.000024
 31   2.121290 -0.561289 -1.853599 0.000000 0.000000 -0.000002
 32   -0.810489 -0.093824 3.127092 3.071872 -0.114782 1.239365
 33   14.298673 -0.408176 0.475484 0.000248 0.000062 -1.896136
 34   15.835795 0.581398 0.242756 -0.214729 0.106889 -0.097869
 35   -0.815868 -0.091229 -3.114430 0.066464 3.132725 -1.010185
 36   14.294526 -0.410349 -0.463635 0.000033 -0.000000 -2.607695
 37   15.834409 0.579420 -0.284600 -0.006092 -0.035255 0.214458
 38   1.139685 -3.453749 -2.823813 0.000000 0.000000 0.000001
 39   -4.457742 -1.054854 -0.746180 0.000000 0.000000 0.000000
 40   1.118101 -3.449769 3.237290 0.000000 0.000001 0.000000
 41   -4.433840 -1.059130 0.959566 -0.000001 0.000000 0.000000
 42   -0.657468 1.697302 -2.688614 0.000000 0.000002 0.000000
 43   -0.664068 1.698578 2.869377 0.000000 0.000002 0.000000
time 1
  0   -0.967547 0.175787 -20.574476 0.000000 0.000000 -1.572114
  1   -1.093036 0.000002 -0.326057 -1.570757 -1.570379 -0.000171
  2   2.262337 0.113614 0.064702 -0.000052 0.000061 -0.051442
  3   2.380047 0.353302 0.047440 -0.151495 0.040528 0.258477
  4   2.033756 0.190472 -0.000128 -0.059875 0.011146 0.182551
  5   2.451511 0.204909 -0.003447 -0.086543 0.010413 0.118911
  6   7.247600 -0.397300 -0.109469 0.000001 0.000033 -0.122015
  7   -2.022252 -0.104661 3.136172 1.435959 -0.571184 -4.346045
  8   1.168026 -0.537438 -0.063437 -0.865379 0.645398 -0.743942
  9   6.790376 -0.619176 0.015206 -0.000213 -0.000151 -0.002944
 10   8.637599 0.544015 -0.090417 -1.014511 -0.577895 -0.036727
 11   6.790465 -0.619039 0.017802 -0.003495 -0.010656 -0.017273
 12   -2.022474 -0.104699 -2.873818 0.289867 1.355356 -2.737692
 13   1.167898 -0.537463 0.063297 -0.791231 -0.988185 0.574687
 14   7.002743 -0.617765 -0.183752 0.000286 0.000250 -1.630803
 15   8.209042 0.615527 -0.255885 1.569443 0.019760 -0.069285
 16   7.002735 -0.617911 -0.183641 0.013497 0.009003 -1.160198
 17   1.574674 0.609930 -0.000899 0.206919 -0.217609 0.532564
 18   -0.602177 0.511412 -0.000006 0.000000 0.000000 0.000000
 19   3.673773 0.177020 1.119313 -0.000002 -0.000014 -0.174510
 20   3.673767 0.176993 -1.117566 0.000007 -0.000003 -0.174546
 21   3.942357 1.330634 1.627658 0.000002 -0.000011 -0.000026
 22   -0.246060 -0.011889 0.516521 -0.000011 0.000031 0.000025
 23   3.942374 1.330659 -1.631083 0.000019 0.000002 -0.000024
 24   -0.246150 -0.011872 -0.516511 -0.000005 -0.000006 0.000048
 25   4.941364 1.997338 1.629330 0.000018 0.261736 -0.000024
 26   4.941382 1.997366 -1.629410 -0.000001 -0.261744 -0.000024
 27   2.918368 1.615358 1.514501 -0.000019 -0.000022 -0.000050
 28   2.920798 1.614964 -1.501142 -0.000002 -0.000009 -0.000024
 29   8.824059 0.150544 0.091743 0.000006 -0.000231 -0.174534
 30   2.111085 -0.561179 1.784320 -0.000008 -0.000682 0.000024
 31   2.121290 -0.561289 -1.853599 0.000000 0.000000 -0.000002
 32   -0.810489 -0.093824 3.127092 3.071872 -0.114782 1.239365
 33   14.298673 -0.408176 0.475484 0.000248 0.000062 -1.896136
 34   15.835795 0.581398 0.242756 -0.214729 0.106889 -0.097869
 35   -0.815868 -0.091229 -3.114430 0.066464 3.132725 -1.010185
 36   14.294526 -0.410349 -0.463635 0.000033 -0.000000 -2.607695
 37   15.834409 0.579420 -0.284600 -0.006092 -0.035255 0.214458
 38   1.139685 -3.453749 -2.823813 0.000000 0.000000 0.000001
 39   -4.457742 -1.054854 -0.746180 0.000000 0.000000 0.000000
 40   1.118101 -3.449769 3.237290 0.000000 0.000001 0.000000
 41   -4.433840 -1.059130 0.959566 -0.000001 0.000000 0.000000
 42   -0.657468 1.697302 -2.688614 0.000000 0.000002 0.000000
 43   -0.664068 1.698578 2.869377 0.000000 0.000002 0.000000
time 2
  0   -0.967547 0.175787 -20.574476 0.000000 0.000000 -1.572114
  1   -1.093036 0.000002 -0.326057 -1.570757 -1.570379 -0.000171
  2   2.262337 0.113614 0.064702 -0.000052 0.000061 -0.051442
  3   2.380047 0.353302 0.047440 -0.151495 0.040528 0.258477
  4   2.033756 0.190472 -0.000128 -0.059875 0.011146 0.182551
  5   2.451511 0.204909 -0.003447 -0.086423 0.011014 0.125697
  6   7.247600 -0.397300 -0.109469 0.000001 0.000033 -0.122015
  7   -2.022252 -0.104661 3.136172 1.432508 -0.570521 -4.339470
  8   1.168026 -0.537438 -0.063437 -0.858861 0.631662 -0.739514
  9   6.790376 -0.619176 0.015206 -0.000213 -0.000151 -0.002944
 10   8.637599 0.544015 -0.090417 -1.014511 -0.577895 -0.036727
 11   6.790465 -0.619039 0.017802 -0.003495 -0.010656 -0.017273
 12   -2.022474 -0.104699 -2.873818 0.280382 1.348245 -2.747266
 13   1.167898 -0.537463 0.063297 -0.774080 -0.985744 0.559069
 14   7.002743 -0.617765 -0.183752 0.000286 0.000250 -1.630803
 15   8.209042 0.615527 -0.255885 1.569443 0.019760 -0.069285
 16   7.002735 -0.617911 -0.183641 0.013497 0.009003 -1.160198
 17   1.574674 0.609930 -0.000899 0.206919 -0.217609 0.525615
 18   -0.602177 0.511412 -0.000006 0.000000 0.000000 0.000000
 19   3.673773 0.177020 1.119313 -0.000002 -0.000014 -0.174510
 20   3.673767 0.176993 -1.117566 0.000007 -0.000003 -0.174546
 21   3.942357 1.330634 1.627658 0.000002 -0.000011 -0.000026
 22   -0.246060 -0.011889 0.516521 -0.000011 0.000031 0.000025
 23   3.942374 1.330659 -1.631083 0.000019 0.000002 -0.000024
 24   -0.246150 -0.011872 -0.516511 -0.000005 -0.000006 0.000048
 25   4.941364 1.997338 1.629330 0.000018 0.261736 -0.000024
 26   4.941382 1.997366 -1.629410 -0.000001 -0.261744 -0.000024
 27   2.918368 1.615358 1.514501 -0.000019 -0.000022 -0.000050
 28   2.920798 1.614964 -1.501142 -0.000002 -0.000009 -0.000024
 29   8.824059 0.150544 0.091743 0.000006 -0.000231 -0.174534
 30   2.111085 -0.561179 1.784320 -0.000008 -0.000682 0.000024
 31   2.121290 -0.561289 -1.853599 0.000000 0.000000 -0.000002
 32   -0.810489 -0.093824 3.127092 3.071872 -0.114782 1.239365
 33   14.298673 -0.408176 0.475484 0.000248 0.000062 -1.896136
 34   15.835795 0.581398 0.242756 -0.214729 0.106889 -0.097869
 35   -0.815868 -0.091229 -3.114430 0.066464 3.132725 -1.010185
 36   14.294526 -0.410349 -0.463635 0.000033 -0.000000 -2.607695
 37   15.834409 0.579420 -0.284600 -0.006092 -0.035255 0.214458
 38   1.139685 -3.453749 -2.823813 0.000000 0.000000 0.000001
 39   -4.457742 -1.054854 -0.746180 0.000000 0.000000 0.000000
 40   1.118101 -3.449769 3.237290 0.000000 0.000001 0.000000
 41   -4.433840 -1.059130 0.959566 -0.000001 0.000000 0.000000
 42   -0.657468 1.697302 -2.688614 0.000000 0.000002 0.000000
 43   -0.664068 1.698578 2.869377 0.000000 0.000002 0.000000
time 3
  0   -0.967547 0.175787 -20.574476 0.000000 0.000000 -1.572114
  1   -1.093036 0.000002 -0.326057 -1.570757 -1.570379 -0.000171
  2   2.262337 0.113614 0.064702 -0.000052 0.000061 -0.051442
  3   2.380047 0.353302 0.047440 -0.151495 0.040528 0.258477
  4   2.033756 0.190472 -0.000128 -0.059875 0.011146 0.182551
  5   2.451511 0.204909 -0.003447 -0.086389 0.011601 0.132904
  6   7.247600 -0.397300 -0.109469 0.000001 0.000033 -0.122015
  7   -2.022252 -0.104661 3.136172 1.428865 -0.569685 -4.332709
  8   1.168026 -0.537438 -0.063437 -0.852407 0.617222 -0.735149
  9   6.790376 -0.619176 0.015206 -0.000213 -0.000151 -0.002944
 10   8.637599 0.544015 -0.090417 -1.014511 -0.577895 -0.036727
 11   6.790465 -0.619039 0.017802 -0.003495 -0.010656 -0.017273
 12   -2.022474 -0.104699 -2.873818 0.270898 1.340554 -2.756840
 13   1.167898 -0.537463 0.063297 -0.756014 -0.983201 0.542301
 14   7.002743 -0.617765 -0.183752 0.000286 0.000250 -1.630803
 15   8.209042 0.615527 -0.255885 1.569443 0.019760 -0.069285
 16   7.002735 -0.617911 -0.183641 0.013497 0.009003 -1.160198
 17   1.574674 0.609930 -0.000899 0.206919 -0.217609 0.518371
 18   -0.602177 0.511412 -0.000006 0.000000 0.000000 0.000000
 19   3.673773 0.177020 1.119313 -0.000002 -0.000014 -0.174510
 20   3.673767 0.176993 -1.117566 0.000007 -0.000003 -0.174546
 21   3.942357 1.330634 1.627658 0.000002 -0.000011 -0.000026
 22   -0.246060 -0.011889 0.516521 -0.000011 0.000031 0.000025
 23   3.942374 1.330659 -1.631083 0.000019 0.000002 -0.000024
 24   -0.246150 -0.011872 -0.516511 -0.000005 -0.000006 0.000048
 25   4.941364 1.997338 1.629330 0.000018 0.261736 -0.000024
 26   4.941382 1.997366 -1.629410 -0.000001 -0.261744 -0.000024
 27   2.918368 1.615358 1.514501 -0.000019 -0.000022 -0.000050
 28   2.920798 1.614964 -1.501142 -0.000002 -0.000009 -0.000024
 29   8.824059 0.150544 0.091743 0.000006 -0.000231 -0.174534
 30   2.111085 -0.561179 1.784320 -0.000008 -0.000682 0.000024
 31   2.121290 -0.561289 -1.853599 0.000000 0.000000 -0.000002
 32   -0.810489 -0.093824 3.127092 3.071872 -0.114782 1.239365
 33   14.298673 -0.408176 0.475484 0.000248 0.000062 -1.896136
 34   15.835795 0.581398 0.242756 -0.214729 0.106889 -0.097869
 35   -0.815868 -0.091229 -3.114430 0.066464 3.132725 -1.010185
 36   14.294526 -0.410349 -0.463635 0.000033 -0.000000 -2.607695
 37   15.834409 0.579420 -0.284600 -0.006092 -0.035255 0.214458
 38   1.139685 -3.453749 -2.823813 0.000000 0.000000 0.000001
 39   -4.457742 -1.054854 -0.746180 0.000000 0.000000 0.000000
 40   1.118101 -3.449769 3.237290 0.000000 0.000001 0.000000
 41   -4.433840 -1.059130 0.959566 -0.000001 0.000000 0.000000
 42   -0.657468 1.697302 -2.688614 0.000000 0.000002 0.000000
 43   -0.664068 1.698578 2.869377 0.000000 0.000002 0.000000
time 4
  0   -0.967547 0.175787 -20.574476 0.000000 0.000000 -1.572114
  1   -1.093036 0.000002 -0.326057 -1.570757 -1.570379 -0.000171
  2   2.262337 0.113614 0.064702 -0.000052 0.000061 -0.051442
  3   2.380047 0.353302 0.047440 -0.151495 0.040528 0.258477
  4   2.033756 0.190472 -0.000128 -0.059875 0.011146 0.182551
  5   2.451511 0.204909 -0.003447 -0.086269 0.012150 0.140432
  6   7.247600 -0.397300 -0.109469 0.000001 0.000033 -0.122015
  7   -2.022252 -0.104661 3.136172 1.425127 -0.568849 -4.325665
  8   1.168026 -0.537438 -0.063437 -0.845319 0.601876 -0.730531
  9   6.790376 -0.619176 0.015206 -0.000213 -0.000151 -0.002944
 10   8.637599 0.544015 -0.090417 -1.014511 -0.577895 -0.036727
 11   6.790465 -0.619039 0.017802 -0.003495 -0.010656 -0.017273
 12   -2.022474 -0.104699 -2.873818 0.261892 1.332601 -2.766127
 13   1.167898 -0.537463 0.063297 -0.737316 -0.980048 0.525109
 14   7.002743 -0.617765 -0.183752 0.000286 0.000250 -1.630803
 15   8.209042 0.615527 -0.255885 1.569443 0.019760 -0.069285
 16   7.002735 -0.617911 -0.183641 0.013497 0.009003 -1.160198
 17   1.574674 0.609930 -0.000899 0.206919 -0.217609 0.510794
 18   -0.602177 0.511412 -0.000006 0.000000 0.000000 0.000000
 19   3.673773 0.177020 1.119313 -0.000002 -0.000014 -0.174510
 20   3.673767 0.176993 -1.117566 0.000007 -0.000003 -0.174546
 21   3.942357 1.330634 1.627658 0.000002 -0.000011 -0.000026
 22   -0.246060 -0.011889 0.516521 -0.000011 0.000031 0.000025
 23   3.942374 1.330659 -1.631083 0.000019 0.000002 -0.000024
 24   -0.246150 -0.011872 -0.516511 -0.000005 -0.000006 0.000048
 25   4.941364 1.997338 1.629330 0.000018 0.261736 -0.000024
 26   4.941382 1.997366 -1.629410 -0.000001 -0.261744 -0.000024
 27   2.918368 1.615358 1.514501 -0.000019 -0.000022 -0.000050
 28   2.920798 1.614964 -1.501142 -0.000002 -0.000009 -0.000024
 29   8.824059 0.150544 0.091743 0.000006 -0.000231 -0.174534
 30   2.111085 -0.561179 1.784320 -0.000008 -0.000682 0.000024
 31   2.121290 -0.561289 -1.853599 0.000000 0.000000 -0.000002
 32   -0.810489 -0.093824 3.127092 3.071872 -0.114782 1.239365
 33   14.298673 -0.408176 0.475484 0.000248 0.000062 -1.896136
 34   15.835795 0.581398 0.242756 -0.214729 0.106889 -0.097869
 35   -0.815868 -0.091229 -3.114430 0.066464 3.132725 -1.010185
 36   14.294526 -0.410349 -0.463635 0.000033 -0.000000 -2.607695
 37   15.834409 0.579420 -0.284600 -0.006092 -0.035255 0.214458
 38   1.139685 -3.453749 -2.823813 0.000000 0.000000 0.000001
 39   -4.457742 -1.054854 -0.746180 0.000000 0.000000 0.000000
 40   1.118101 -3.449769 3.237290 0.000000 0.000001 0.000000
 41   -4.433840 -1.059130 0.959566 -0.000001 0.000000 0.000000
 42   -0.657468 1.697302 -2.688614 0.000000 0.000002 0.000000
 43   -0.664068 1.698578 2.869377 0.000000 0.000002 0.000000
time 5
  0   -0.967547 0.175787 -20.574476 0.000000 0.000000 -1.572114
  1   -1.093036 0.000002 -0.326057 -1.570757 -1.570379 -0.000171
  2   2.262337 0.113614 0.064702 -0.000052 0.000061 -0.051442
  3   2.380047 0.353302 0.047440 -0.151495 0.040528 0.258477
  4   2.033756 0.190472 -0.000128 -0.059875 0.011146 0.182551
  5   2.451511 0.204909 -0.003447 -0.086132 0.012829 0.148110
  6   7.247600 -0.397300 -0.109469 0.000001 0.000033 -0.122015
  7   -2.022252 -0.104661 3.136172 1.421101 -0.567869 -4.318246
  8   1.168026 -0.537438 -0.063437 -0.838422 0.586429 -0.726356
  9   6.790376 -0.619176 0.015206 -0.000213 -0.000151 -0.002944
 10   8.637599 0.544015 -0.090417 -1.014511 -0.577895 -0.036727
 11   6.790465 -0.619039 0.017802 -0.003495 -0.010656 -0.017273
 12   -2.022474 -0.104699 -2.873818 0.253077 1.324504 -2.775223
 13   1.167898 -0.537463 0.063297 -0.718899 -0.976845 0.507796
 14   7.002743 -0.617765 -0.183752 0.000286 0.000250 -1.630803
 15   8.209042 0.615527 -0.255885 1.569443 0.019760 -0.069285
 16   7.002735 -0.617911 -0.183641 0.013497 0.009003 -1.160198
 17   1.574674 0.609930 -0.000899 0.206919 -0.217609 0.503143
 18   -0.602177 0.511412 -0.000006 0.000000 0.000000 0.000000
 19   3.673773 0.177020 1.119313 -0.000002 -0.000014 -0.174510
 20   3.673767 0.176993 -1.117566 0.000007 -0.000003 -0.174546
 21   3.942357 1.330634 1.627658 0.000002 -0.000011 -0.000026
 22   -0.246060 -0.011889 0.516521 -0.000011 0.000031 0.000025
 23   3.942374 1.330659 -1.631083 0.000019 0.000002 -0.000024
 24   -0.246150 -0.011872 -0.516511 -0.000005 -0.000006 0.000048
 25   4.941364 1.997338 1.629330 0.000018 0.261736 -0.000024
 26   4.941382 1.997366 -1.629410 -0.000001 -0.261744 -0.000024
 27   2.918368 1.615358 1.514501 -0.000019 -0.000022 -0.000050
 28   2.920798 1.614964 -1.501142 -0.000002 -0.000009 -0.000024
 29   8.824059 0.150544 0.091743 0.000006 -0.000231 -0.174534
 30   2.111085 -0.561179 1.784320 -0.000008 -0.000682 0.000024
 31   2.121290 -0.561289 -1.853599 0.000000 0.000000 -0.000002
 32   -0.810489 -0.093824 3.127092 3.071872 -0.114782 1.239365
 33   14.298673 -0.408176 0.475484 0.000248 0.000062 -1.896136
 34   15.835795 0.581398 0.242756 -0.214729 0.106889 -0.097869
 35   -0.815868 -0.091229 -3.114430 0.066464 3.132725 -1.010185
 36   14.294526 -0.410349 -0.463635 0.000033 -0.000000 -2.607695
 37   15.834409 0.579420 -0.284600 -0.006092 -0.035255 0.214458
 38   1.139685 -3.453749 -2.823813 0.000000 0.000000 0.000001
 39   -4.457742 -1.054854 -0.746180 0.000000 0.000000 0.000000
 40   1.118101 -3.449769 3.237290 0.000000 0.000001 0.000000
 41   -4.433840 -1.059130 0.959566 -0.000001 0.000000 0.000000
 42   -0.657468 1.697302 -2.688614 0.000000 0.000002 0.000000
 43   -0.664068 1.698578 2.869377 0.000000 0.000002 0.000000
time 6
  0   -0.967547 0.175787 -20.574476 0.000000 0.000000 -1.572114
  1   -1.093036 0.000002 -0.326057 -1.570757 -1.570379 -0.000171
  2   2.262337 0.113614 0.064702 -0.000052 0.000061 -0.051442
  3   2.380047 0.353302 0.047440 -0.151495 0.040528 0.258477
  4   2.033756 0.190472 -0.000128 -0.059875 0.011146 0.182551
  5   2.451511 0.204909 -0.003447 -0.086098 0.013586 0.155812
  6   7.247600 -0.397300 -0.109469 0.000001 0.000033 -0.122015
  7   -2.022252 -0.104661 3.136172 1.417075 -0.566976 -4.311109
  8   1.168026 -0.537438 -0.063437 -0.831904 0.571134 -0.722054
  9   6.790376 -0.619176 0.015206 -0.000213 -0.000151 -0.002944
 10   8.637599 0.544015 -0.090417 -1.014511 -0.577895 -0.036727
 11   6.790465 -0.619039 0.017802 -0.003495 -0.010656 -0.017273
 12   -2.022474 -0.104699 -2.873818 0.244934 1.316232 -2.783552
 13   1.167898 -0.537463 0.063297 -0.700060 -0.973336 0.490362
 14   7.002743 -0.617765 -0.183752 0.000286 0.000250 -1.630803
 15   8.209042 0.615527 -0.255885 1.569443 0.019760 -0.069285
 16   7.002735 -0.617911 -0.183641 0.013497 0.009003 -1.160198
 17   1.574674 0.609930 -0.000899 0.206919 -0.217609 0.495381
 18   -0.602177 0.511412 -0.000006 0.000000 0.000000 0.000000
 19   3.673773 0.177020 1.119313 -0.000002 -0.000014 -0.174510
 20   3.673767 0.176993 -1.117566 0.000007 -0.000003 -0.174546
 21   3.942357 1.330634 1.627658 0.000002 -0.000011 -0.000026
 22   -0.246060 -0.011889 0.516521 -0.000011 0.000031 0.000025
 23   3.942374 1.330659 -1.631083 0.000019 0.000002 -0.000024
 24   -0.246150 -0.011872 -0.516511 -0.000005 -0.000006 0.000048
 25   4.941364 1.997338 1.629330 0.000018 0.261736 -0.000024
 26   4.941382 1.997366 -1.629410 -0.000001 -0.261744 -0.000024
 27   2.918368 1.615358 1.514501 -0.000019 -0.000022 -0.000050
 28   2.920798 1.614964 -1.501142 -0.000002 -0.000009 -0.000024
 29   8.824059 0.150544 0.091743 0.000006 -0.000231 -0.174534
 30   2.111085 -0.561179 1.784320 -0.000008 -0.000682 0.000024
 31   2.121290 -0.561289 -1.853599 0.000000 0.000000 -0.000002
 32   -0.810489 -0.093824 3.127092 3.071872 -0.114782 1.239365
 33   14.298673 -0.408176 0.475484 0.000248 0.000062 -1.896136
 34   15.835795 0.581398 0.242756 -0.214729 0.106889 -0.097869
 35   -0.815868 -0.091229 -3.114430 0.066464 3.132725 -1.010185
 36   14.294526 -0.410349 -0.463635 0.000033 -0.000000 -2.607695
 37   15.834409 0.579420 -0.284600 -0.006092 -0.035255 0.214458
 38   1.139685 -3.453749 -2.823813 0.000000 0.000000 0.000001
 39   -4.457742 -1.054854 -0.746180 0.000000 0.000000 0.000000
 40   1.118101 -3.449769 3.237290 0.000000 0.000001 0.000000
 41   -4.433840 -1.059130 0.959566 -0.000001 0.000000 0.000000
 42   -0.657468 1.697302 -2.688614 0.000000 0.000002 0.000000
 43   -0.664068 1.698578 2.869377 0.000000 0.000002 0.000000
time 7
  0   -0.967547 0.175787 -20.574476 0.000000 0.000000 -1.572114
  1   -1.093036 0.000002 -0.326057 -1.570757 -1.570379 -0.000171
  2   2.262337 0.113614 0.064702 -0.000052 0.000061 -0.051442
  3   2.380047 0.353302 0.047440 -0.151495 0.040528 0.258477
  4   2.033756 0.190472 -0.000128 -0.059875 0.011146 0.182551
  5   2.451511 0.204909 -0.003447 -0.085978 0.014278 0.163340
  6   7.247600 -0.397300 -0.109469 0.000001 0.000033 -0.122015
  7   -2.022252 -0.104661 3.136172 1.413624 -0.566024 -4.303783
  8   1.168026 -0.537438 -0.063437 -0.825259 0.555687 -0.718132
  9   6.790376 -0.619176 0.015206 -0.000213 -0.000151 -0.002944
 10   8.637599 0.544015 -0.090417 -1.014511 -0.577895 -0.036727
 11   6.790465 -0.619039 0.017802 -0.003495 -0.010656 -0.017273
 12   -2.022474 -0.104699 -2.873818 0.237269 1.307989 -2.791307
 13   1.167898 -0.537463 0.063297 -0.682135 -0.969827 0.473836
 14   7.002743 -0.617765 -0.183752 0.000286 0.000250 -1.630803
 15   8.209042 0.615527 -0.255885 1.569443 0.019760 -0.069285
 16   7.002735 -0.617911 -0.183641 0.013497 0.009003 -1.160198
 17   1.574674 0.609930 -0.000899 0.206919 -0.217609 0.487730
 18   -0.602177 0.511412 -0.000006 0.000000 0.000000 0.000000
 19   3.673773 0.177020 1.119313 -0.000002 -0.000014 -0.174510
 20   3.673767 0.176993 -1.117566 0.000007 -0.000003 -0.174546
 21   3.942357 1.330634 1.627658 0.000002 -0.000011 -0.000026
 22   -0.246060 -0.011889 0.516521 -0.000011 0.000031 0.000025
 23   3.942374 1.330659 -1.631083 0.000019 0.000002 -0.000024
 24   -0.246150 -0.011872 -0.516511 -0.000005 -0.000006 0.000048
 25   4.941364 1.997338 1.629330 0.000018 0.261736 -0.000024
 26   4.941382 1.997366 -1.629410 -0.000001 -0.261744 -0.000024
 27   2.918368 1.615358 1.514501 -0.000019 -0.000022 -0.000050
 28   2.920798 1.614964 -1.501142 -0.000002 -0.000009 -0.000024
 29   8.824059 0.150544 0.091743 0.000006 -0.000231 -0.174534
 30   2.111085 -0.561179 1.784320 -0.000008 -0.000682 0.000024
 31   2.121290 -0.561289 -1.853599 0.000000 0.000000 -0.000002
 32   -0.810489 -0.093824 3.127092 3.071872 -0.114782 1.239365
 33   14.298673 -0.408176 0.475484 0.000248 0.000062 -1.896136
 34   15.835795 0.581398 0.242756 -0.214729 0.106889 -0.097869
 35   -0.815868 -0.091229 -3.114430 0.066464 3.132725 -1.010185
 36   14.294526 -0.410349 -0.463635 0.000033 -0.000000 -2.607695
 37   15.834409 0.579420 -0.284600 -0.006092 -0.035255 0.214458
 38   1.139685 -3.453749 -2.823813 0.000000 0.000000 0.000001
 39   -4.457742 -1.054854 -0.746180 0.000000 0.000000 0.000000
 40   1.118101 -3.449769 3.237290 0.000000 0.000001 0.000000
 41   -4.433840 -1.059130 0.959566 -0.000001 0.000000 0.000000
 42   -0.657468 1.697302 -2.688614 0.000000 0.000002 0.000000
 43   -0.664068 1.698578 2.869377 0.000000 0.000002 0.000000
time 8
  0   -0.967547 0.175787 -20.574476 0.000000 0.000000 -1.572114
  1   -1.093036 0.000002 -0.326057 -1.570757 -1.570379 -0.000171
  2   2.262337 0.113614 0.064702 -0.000052 0.000061 -0.051442
  3   2.380047 0.353302 0.047440 -0.151495 0.040528 0.258477
  4   2.033756 0.190472 -0.000128 -0.059875 0.011146 0.182551
  5   2.451511 0.204909 -0.003447 -0.085824 0.014878 0.170572
  6   7.247600 -0.397300 -0.109469 0.000001 0.000033 -0.122015
  7   -2.022252 -0.104661 3.136172 1.409694 -0.565188 -4.297115
  8   1.168026 -0.537438 -0.063437 -0.819121 0.541046 -0.714779
  9   6.790376 -0.619176 0.015206 -0.000213 -0.000151 -0.002944
 10   8.637599 0.544015 -0.090417 -1.014511 -0.577895 -0.036727
 11   6.790465 -0.619039 0.017802 -0.003495 -0.010656 -0.017273
 12   -2.022474 -0.104699 -2.873818 0.230754 1.300211 -2.798488
 13   1.167898 -0.537463 0.063297 -0.664983 -0.966216 0.457673
 14   7.002743 -0.617765 -0.183752 0.000286 0.000250 -1.630803
 15   8.209042 0.615527 -0.255885 1.569443 0.019760 -0.069285
 16   7.002735 -0.617911 -0.183641 0.013497 0.009003 -1.160198
 17   1.574674 0.609930 -0.000899 0.206919 -0.217609 0.480596
 18   -0.602177 0.511412 -0.000006 0.000000 0.000000 0.000000
 19   3.673773 0.177020 1.119313 -0.000002 -0.000014 -0.174510
 20   3.673767 0.176993 -1.117566 0.000007 -0.000003 -0.174546
 21   3.942357 1.330634 1.627658 0.000002 -0.000011 -0.000026
 22   -0.246060 -0.011889 0.516521 -0.000011 0.000031 0.000025
 23   3.942374 1.330659 -1.631083 0.000019 0.000002 -0.000024
 24   -0.246150 -0.011872 -0.516511 -0.000005 -0.000006 0.000048
 25   4.941364 1.997338 1.629330 0.000018 0.261736 -0.000024
 26   4.941382 1.997366 -1.629410 -0.000001 -0.261744 -0.000024
 27   2.918368 1.615358 1.514501 -0.000019 -0.000022 -0.000050
 28   2.920798 1.614964 -1.501142 -0.000002 -0.000009 -0.000024
 29   8.824059 0.150544 0.091743 0.000006 -0.000231 -0.174534
 30   2.111085 -0.561179 1.784320 -0.000008 -0.000682 0.000024
 31   2.121290 -0.561289 -1.853599 0.000000 0.000000 -0.000002
 32   -0.810489 -0.093824 3.127092 3.071872 -0.114782 1.239365
 33   14.298673 -0.408176 0.475484 0.000248 0.000062 -1.896136
 34   15.835795 0.581398 0.242756 -0.214729 0.106889 -0.097869
 35   -0.815868 -0.091229 -3.114430 0.066464 3.132725 -1.010185
 36   14.294526 -0.410349 -0.463635 0.000033 -0.000000 -2.607695
 37   15.834409 0.579420 -0.284600 -0.006092 -0.035255 0.214458
 38   1.139685 -3.453749 -2.823813 0.000000 0.000000 0.000001
 39   -4.457742 -1.054854 -0.746180 0.000000 0.000000 0.000000
 40   1.118101 -3.449769 3.237290 0.000000 0.000001 0.000000
 41   -4.433840 -1.059130 0.959566 -0.000001 0.000000 0.000000
 42   -0.657468 1.697302 -2.688614 0.000000 0.000002 0.000000
 43   -0.664068 1.698578 2.869377 0.000000 0.000002 0.000000
time 9
  0   -0.967547 0.175787 -20.574476 0.000000 0.000000 -1.572114
  1   -1.093036 0.000002 -0.326057 -1.570757 -1.570379 -0.000171
  2   2.262337 0.113614 0.064702 -0.000052 0.000061 -0.051442
  3   2.380047 0.353302 0.047440 -0.151495 0.040528 0.258477
  4   2.033756 0.190472 -0.000128 -0.059875 0.011146 0.182551
  5   2.451511 0.204909 -0.003447 -0.085790 0.015322 0.177432
  6   7.247600 -0.397300 -0.109469 0.000001 0.000033 -0.122015
  7   -2.022252 -0.104661 3.136172 1.406339 -0.564266 -4.290917
  8   1.168026 -0.537438 -0.063437 -0.813742 0.527411 -0.711553
  9   6.790376 -0.619176 0.015206 -0.000213 -0.000151 -0.002944
 10   8.637599 0.544015 -0.090417 -1.014511 -0.577895 -0.036727
 11   6.790465 -0.619039 0.017802 -0.003495 -0.010656 -0.017273
 12   -2.022474 -0.104699 -2.873818 0.224814 1.293042 -2.804807
 13   1.167898 -0.537463 0.063297 -0.649167 -0.962657 0.443145
 14   7.002743 -0.617765 -0.183752 0.000286 0.000250 -1.630803
 15   8.209042 0.615527 -0.255885 1.569443 0.019760 -0.069285
 16   7.002735 -0.617911 -0.183641 0.013497 0.009003 -1.160198
 17   1.574674 0.609930 -0.000899 0.206919 -0.217609 0.473759
 18   -0.602177 0.511412 -0.000006 0.000000 0.000000 0.000000
 19   3.673773 0.177020 1.119313 -0.000002 -0.000014 -0.174510
 20   3.673767 0.176993 -1.117566 0.000007 -0.000003 -0.174546
 21   3.942357 1.330634 1.627658 0.000002 -0.000011 -0.000026
 22   -0.246060 -0.011889 0.516521 -0.000011 0.000031 0.000025
 23   3.942374 1.330659 -1.631083 0.000019 0.000002 -0.000024
 24   -0.246150 -0.011872 -0.516511 -0.000005 -0.000006 0.000048
 25   4.941364 1.997338 1.629330 0.000018 0.261736 -0.000024
 26   4.941382 1.997366 -1.629410 -0.000001 -0.261744 -0.000024
 27   2.918368 1.615358 1.514501 -0.000019 -0.000022 -0.000050
 28   2.920798 1.614964 -1.501142 -0.000002 -0.000009 -0.000024
 29   8.824059 0.150544 0.091743 0.000006 -0.000231 -0.174534
 30   2.111085 -0.561179 1.784320 -0.000008 -0.000682 0.000024
 31   2.121290 -0.561289 -1.853599 0.000000 0.000000 -0.000002
 32   -0.810489 -0.093824 3.127092 3.071872 -0.114782 1.239365
 33   14.298673 -0.408176 0.475484 0.000248 0.000062 -1.896136
 34   15.835795 0.581398 0.242756 -0.214729 0.106889 -0.097869
 35   -0.815868 -0.091229 -3.114430 0.066464 3.132725 -1.010185
 36   14.294526 -0.410349 -0.463635 0.000033 -0.000000 -2.607695
 37   15.834409 0.579420 -0.284600 -0.006092 -0.035255 0.214458
 38   1.139685 -3.453749 -2.823813 0.000000 0.000000 0.000001
 39   -4.457742 -1.054854 -0.746180 0.000000 0.000000 0.000000
 40   1.118101 -3.449769 3.237290 0.000000 0.000001 0.000000
 41   -4.433840 -1.059130 0.959566 -0.000001 0.000000 0.000000
 42   -0.657468 1.697302 -2.688614 0.000000 0.000002 0.000000
 43   -0.664068 1.698578 2.869377 0.000000 0.000002 0.000000
time 10
  0   -0.967547 0.175787 -20.574476 0.000000 0.000000 -1.572114
  1   -1.093036 0.000002 -0.326057 -1.570757 -1.570379 -0.000171
  2   2.262337 0.113614 0.064702 -0.000052 0.000061 -0.051442
  3   2.380047 0.353302 0.047440 -0.151495 0.040528 0.258477
  4   2.033756 0.190472 -0.000128 -0.059875 0.011146 0.182551
  5   2.451511 0.204909 -0.003447 -0.085687 0.015923 0.183574
  6   7.247600 -0.397300 -0.109469 0.000001 0.000033 -0.122015
  7   -2.022252 -0.104661 3.136172 1.403463 -0.563459 -4.284907
  8   1.168026 -0.537438 -0.063437 -0.808427 0.515184 -0.708896
  9   6.790376 -0.619176 0.015206 -0.000213 -0.000151 -0.002944
 10   8.637599 0.544015 -0.090417 -1.014511 -0.577895 -0.036727
 11   6.790465 -0.619039 0.017802 -0.003495 -0.010656 -0.017273
 12   -2.022474 -0.104699 -2.873818 0.219353 1.286395 -2.810168
 13   1.167898 -0.537463 0.063297 -0.635249 -0.959555 0.429888
 14   7.002743 -0.617765 -0.183752 0.000286 0.000250 -1.630803
 15   8.209042 0.615527 -0.255885 1.569443 0.019760 -0.069285
 16   7.002735 -0.617911 -0.183641 0.013497 0.009003 -1.160198
 17   1.574674 0.609930 -0.000899 0.206919 -0.217609 0.467660
 18   -0.602177 0.511412 -0.000006 0.000000 0.000000 0.000000
 19   3.673773 0.177020 1.119313 -0.000002 -0.000014 -0.174510
 20   3.673767 0.176993 -1.117566 0.000007 -0.000003 -0.174546
 21   3.942357 1.330634 1.627658 0.000002 -0.000011 -0.000026
 22   -0.246060 -0.011889 0.516521 -0.000011 0.000031 0.000025
 23   3.942374 1.330659 -1.631083 0.000019 0.000002 -0.000024
 24   -0.246150 -0.011872 -0.516511 -0.000005 -0.000006 0.000048
 25   4.941364 1.997338 1.629330 0.000018 0.261736 -0.000024
 26   4.941382 1.997366 -1.629410 -0.000001 -0.261744 -0.000024
 27   2.918368 1.615358 1.514501 -0.000019 -0.000022 -0.000050
 28   2.920798 1.614964 -1.501142 -0.000002 -0.000009 -0.000024
 29   8.824059 0.150544 0.091743 0.000006 -0.000231 -0.174534
 30   2.111085 -0.561179 1.784320 -0.000008 -0.000682 0.000024
 31   2.121290 -0.561289 -1.853599 0.000000 0.000000 -0.000002
 32   -0.810489 -0.093824 3.127092 3.071872 -0.114782 1.239365
 33   14.298673 -0.408176 0.475484 0.000248 0.000062 -1.896136
 34   15.835795 0.581398 0.242756 -0.214729 0.106889 -0.097869
 35   -0.815868 -0.091229 -3.114430 0.066464 3.132725 -1.010185
 36   14.294526 -0.410349 -0.463635 0.000033 -0.000000 -2.607695
 37   15.834409 0.579420 -0.284600 -0.006092 -0.035255 0.214458
 38   1.139685 -3.453749 -2.823813 0.000000 0.000000 0.000001
 39   -4.457742 -1.054854 -0.746180 0.000000 0.000000 0.000000
 40   1.118101 -3.449769 3.237290 0.000000 0.000001 0.000000
 41   -4.433840 -1.059130 0.959566 -0.000001 0.000000 0.000000
 42   -0.657468 1.697302 -2.688614 0.000000 0.000002 0.000000
 43   -0.664068 1.698578 2.869377 0.000000 0.000002 0.000000
time 11
  0   -0.967547 0.175787 -20.574476 0.000000 0.000000 -1.572114
  1   -1.093036 0.000002 -0.326057 -1.570757 -1.570379 -0.000171
  2   2.262337 0.113614 0.064702 -0.000052 0.000061 -0.051442
  3   2.380047 0.353302 0.047440 -0.151495 0.040528 0.258477
  4   2.033756 0.190472 -0.000128 -0.059875 0.011146 0.182551
  5   2.451511 0.204909 -0.003447 -0.085533 0.016471 0.188948
  6   7.247600 -0.397300 -0.109469 0.000001 0.000033 -0.122015
  7   -2.022252 -0.104661 3.136172 1.400779 -0.562767 -4.279929
  8   1.168026 -0.537438 -0.063437 -0.804124 0.504367 -0.706745
  9   6.790376 -0.619176 0.015206 -0.000213 -0.000151 -0.002944
 10   8.637599 0.544015 -0.090417 -1.014511 -0.577895 -0.036727
 11   6.790465 -0.619039 0.017802 -0.003495 -0.010656 -0.017273
 12   -2.022474 -0.104699 -2.873818 0.215329 1.280416 -2.814668
 13   1.167898 -0.537463 0.063297 -0.622807 -0.956351 0.418265
 14   7.002743 -0.617765 -0.183752 0.000286 0.000250 -1.630803
 15   8.209042 0.615527 -0.255885 1.569443 0.019760 -0.069285
 16   7.002735 -0.617911 -0.183641 0.013497 0.009003 -1.160198
 17   1.574674 0.609930 -0.000899 0.206919 -0.217609 0.462042
 18   -0.602177 0.511412 -0.000006 0.000000 0.000000 0.000000
 19   3.673773 0.177020 1.119313 -0.000002 -0.000014 -0.174510
 20   3.673767 0.176993 -1.117566 0.000007 -0.000003 -0.174546
 21   3.942357 1.330634 1.627658 0.000002 -0.000011 -0.000026
 22   -0.246060 -0.011889 0.516521 -0.000011 0.000031 0.000025
 23   3.942374 1.330659 -1.631083 0.000019 0.000002 -0.000024
 24   -0.246150 -0.011872 -0.516511 -0.000005 -0.000006 0.000048
 25   4.941364 1.997338 1.629330 0.000018 0.261736 -0.000024
 26   4.941382 1.997366 -1.629410 -0.000001 -0.261744 -0.000024
 27   2.918368 1.615358 1.514501 -0.000019 -0.000022 -0.000050
 28   2.920798 1.614964 -1.501142 -0.000002 -0.000009 -0.000024
 29   8.824059 0.150544 0.091743 0.000006 -0.000231 -0.174534
 30   2.111085 -0.561179 1.784320 -0.000008 -0.000682 0.000024
 31   2.121290 -0.561289 -1.853599 0.000000 0.000000 -0.000002
 32   -0.810489 -0.093824 3.127092 3.071872 -0.114782 1.239365
 33   14.298673 -0.408176 0.475484 0.000248 0.000062 -1.896136
 34   15.835795 0.581398 0.242756 -0.214729 0.106889 -0.097869
 35   -0.815868 -0.091229 -3.114430 0.066464 3.132725 -1.010185
 36   14.294526 -0.410349 -0.463635 0.000033 -0.000000 -2.607695
 37   15.834409 0.579420 -0.284600 -0.006092 -0.035255 0.214458
 38   1.139685 -3.453749 -2.823813 0.000000 0.000000 0.000001
 39   -4.457742 -1.054854 -0.746180 0.000000 0.000000 0.000000
 40   1.118101 -3.449769 3.237290 0.000000 0.000001 0.000000
 41   -4.433840 -1.059130 0.959566 -0.000001 0.000000 0.000000
 42   -0.657468 1.697302 -2.688614 0.000000 0.000002 0.000000
 43   -0.664068 1.698578 2.869377 0.000000 0.000002 0.000000
time 12
  0   -0.967547 0.175787 -20.574476 0.000000 0.000000 -1.572114
  1   -1.093036 0.000002 -0.326057 -1.570757 -1.570379 -0.000171
  2   2.262337 0.113614 0.064702 -0.000052 0.000061 -0.051442
  3   2.380047 0.353302 0.047440 -0.151495 0.040528 0.258477
  4   2.033756 0.190472 -0.000128 -0.059875 0.011146 0.182551
  5   2.451511 0.204909 -0.003447 -0.085533 0.016706 0.193381
  6   7.247600 -0.397300 -0.109469 0.000001 0.000033 -0.122015
  7   -2.022252 -0.104661 3.136172 1.398287 -0.562248 -4.275891
  8   1.168026 -0.537438 -0.063437 -0.800770 0.495562 -0.704784
  9   6.790376 -0.619176 0.015206 -0.000213 -0.000151 -0.002944
 10   8.637599 0.544015 -0.090417 -1.014511 -0.577895 -0.036727
 11   6.790465 -0.619039 0.017802 -0.003495 -0.010656 -0.017273
 12   -2.022474 -0.104699 -2.873818 0.211785 1.275860 -2.818019
 13   1.167898 -0.537463 0.063297 -0.612895 -0.953910 0.408882
 14   7.002743 -0.617765 -0.183752 0.000286 0.000250 -1.630803
 15   8.209042 0.615527 -0.255885 1.569443 0.019760 -0.069285
 16   7.002735 -0.617911 -0.183641 0.013497 0.009003 -1.160198
 17   1.574674 0.609930 -0.000899 0.206919 -0.217609 0.457717
 18   -0.602177 0.511412 -0.000006 0.000000 0.000000 0.000000
 19   3.673773 0.177020 1.119313 -0.000002 -0.000014 -0.174510
 20   3.673767 0.176993 -1.117566 0.000007 -0.000003 -0.174546
 21   3.942357 1.330634 1.627658 0.000002 -0.000011 -0.000026
 22   -0.246060 -0.011889 0.516521 -0.000011 0.000031 0.000025
 23   3.942374 1.330659 -1.631083 0.000019 0.000002 -0.000024
 24   -0.246150 -0.011872 -0.516511 -0.000005 -0.000006 0.000048
 25   4.941364 1.997338 1.629330 0.000018 0.261736 -0.000024
 26   4.941382 1.997366 -1.629410 -0.000001 -0.261744 -0.000024
 27   2.918368 1.615358 1.514501 -0.000019 -0.000022 -0.000050
 28   2.920798 1.614964 -1.501142 -0.000002 -0.000009 -0.000024
 29   8.824059 0.150544 0.091743 0.000006 -0.000231 -0.174534
 30   2.111085 -0.561179 1.784320 -0.000008 -0.000682 0.000024
 31   2.121290 -0.561289 -1.853599 0.000000 0.000000 -0.000002
 32   -0.810489 -0.093824 3.127092 3.071872 -0.114782 1.239365
 33   14.298673 -0.408176 0.475484 0.000248 0.000062 -1.896136
 34   15.835795 0.581398 0.242756 -0.214729 0.106889 -0.097869
 35   -0.815868 -0.091229 -3.114430 0.066464 3.132725 -1.010185
 36   14.294526 -0.410349 -0.463635 0.000033 -0.000000 -2.607695
 37   15.834409 0.579420 -0.284600 -0.006092 -0.035255 0.214458
 38   1.139685 -3.453749 -2.823813 0.000000 0.000000 0.000001
 39   -4.457742 -1.054854 -0.746180 0.000000 0.000000 0.000000
 40   1.118101 -3.449769 3.237290 0.000000 0.000001 0.000000
 41   -4.433840 -1.059130 0.959566 -0.000001 0.000000 0.000000
 42   -0.657468 1.697302 -2.688614 0.000000 0.000002 0.000000
 43   -0.664068 1.698578 2.869377 0.000000 0.000002 0.000000
time 13
  0   -0.967547 0.175787 -20.574476 0.000000 0.000000 -1.572114
  1   -1.093036 0.000002 -0.326057 -1.570757 -1.570379 -0.000171
  2   2.262337 0.113614 0.064702 -0.000052 0.000061 -0.051442
  3   2.380047 0.353302 0.047440 -0.151495 0.040528 0.258477
  4   2.033756 0.190472 -0.000128 -0.059875 0.011146 0.182551
  5   2.451511 0.204909 -0.003447 -0.085396 0.017137 0.196774
  6   7.247600 -0.397300 -0.109469 0.000001 0.000033 -0.122015
  7   -2.022252 -0.104661 3.136172 1.396849 -0.561614 -4.272792
  8   1.168026 -0.537438 -0.063437 -0.798302 0.488417 -0.703582
  9   6.790376 -0.619176 0.015206 -0.000213 -0.000151 -0.002944
 10   8.637599 0.544015 -0.090417 -1.014511 -0.577895 -0.036727
 11   6.790465 -0.619039 0.017802 -0.003495 -0.010656 -0.017273
 12   -2.022474 -0.104699 -2.873818 0.209389 1.272203 -2.820700
 13   1.167898 -0.537463 0.063297 -0.605374 -0.951774 0.401981
 14   7.002743 -0.617765 -0.183752 0.000286 0.000250 -1.630803
 15   8.209042 0.615527 -0.255885 1.569443 0.019760 -0.069285
 16   7.002735 -0.617911 -0.183641 0.013497 0.009003 -1.160198
 17   1.574674 0.609930 -0.000899 0.206919 -0.217609 0.454243
 18   -0.602177 0.511412 -0.000006 0.000000 0.000000 0.000000
 19   3.673773 0.177020 1.119313 -0.000002 -0.000014 -0.174510
 20   3.673767 0.176993 -1.117566 0.000007 -0.000003 -0.174546
 21   3.942357 1.330634 1.627658 0.000002 -0.000011 -0.000026
 22   -0.246060 -0.011889 0.516521 -0.000011 0.000031 0.000025
 23   3.942374 1.330659 -1.631083 0.000019 0.000002 -0.000024
 24   -0.246150 -0.011872 -0.516511 -0.000005 -0.000006 0.000048
 25   4.941364 1.997338 1.629330 0.000018 0.261736 -0.000024
 26   4.941382 1.997366 -1.629410 -0.000001 -0.261744 -0.000024
 27   2.918368 1.615358 1.514501 -0.000019 -0.000022 -0.000050
 28   2.920798 1.614964 -1.501142 -0.000002 -0.000009 -0.000024
 29   8.824059 0.150544 0.091743 0.000006 -0.000231 -0.174534
 30   2.111085 -0.561179 1.784320 -0.000008 -0.000682 0.000024
 31   2.121290 -0.561289 -1.853599 0.000000 0.000000 -0.000002
 32   -0.810489 -0.093824 3.127092 3.071872 -0.114782 1.239365
 33   14.298673 -0.408176 0.475484 0.000248 0.000062 -1.896136
 34   15.835795 0.581398 0.242756 -0.214729 0.106889 -0.097869
 35   -0.815868 -0.091229 -3.114430 0.066464 3.132725 -1.010185
 36   14.294526 -0.410349 -0.463635 0.000033 -0.000000 -2.607695
 37   15.834409 0.579420 -0.284600 -0.006092 -0.035255 0.214458
 38   1.139685 -3.453749 -2.823813 0.000000 0.000000 0.000001
 39   -4.457742 -1.054854 -0.746180 0.000000 0.000000 0.000000
 40   1.118101 -3.449769 3.237290 0.000000 0.000001 0.000000
 41   -4.433840 -1.059130 0.959566 -0.000001 0.000000 0.000000
 42   -0.657468 1.697302 -2.688614 0.000000 0.000002 0.000000
 43   -0.664068 1.698578 2.869377 0.000000 0.000002 0.000000
time 14
  0   -0.967547 0.175787 -20.574476 0.000000 0.000000 -1.572114
  1   -1.093036 0.000002 -0.326057 -1.570757 -1.570379 -0.000171
  2   2.262337 0.113614 0.064702 -0.000052 0.000061 -0.051442
  3   2.380047 0.353302 0.047440 -0.151495 0.040528 0.258477
  4   2.033756 0.190472 -0.000128 -0.059875 0.011146 0.182551
  5   2.451511 0.204909 -0.003447 -0.085396 0.017333 0.198879
  6   7.247600 -0.397300 -0.109469 0.000001 0.000033 -0.122015
  7   -2.022252 -0.104661 3.136172 1.395603 -0.561441 -4.270444
  8   1.168026 -0.537438 -0.063437 -0.796277 0.484040 -0.702570
  9   6.790376 -0.619176 0.015206 -0.000213 -0.000151 -0.002944
 10   8.637599 0.544015 -0.090417 -1.014511 -0.577895 -0.036727
 11   6.790465 -0.619039 0.017802 -0.003495 -0.010656 -0.017273
 12   -2.022474 -0.104699 -2.873818 0.207856 1.269765 -2.822232
 13   1.167898 -0.537463 0.063297 -0.600664 -0.950655 0.397441
 14   7.002743 -0.617765 -0.183752 0.000286 0.000250 -1.630803
 15   8.209042 0.615527 -0.255885 1.569443 0.019760 -0.069285
 16   7.002735 -0.617911 -0.183641 0.013497 0.009003 -1.160198
 17   1.574674 0.609930 -0.000899 0.206919 -0.217609 0.452099
 18   -0.602177 0.511412 -0.000006 0.000000 0.000000 0.000000
 19   3.673773 0.177020 1.119313 -0.000002 -0.000014 -0.174510
 20   3.673767 0.176993 -1.117566 0.000007 -0.000003 -0.174546
 21   3.942357 1.330634 1.627658 0.000002 -0.000011 -0.000026
 22   -0.246060 -0.011889 0.516521 -0.000011 0.000031 0.000025
 23   3.942374 1.330659 -1.631083 0.000019 0.000002 -0.000024
 24   -0.246150 -0.011872 -0.516511 -0.000005 -0.000006 0.000048
 25   4.941364 1.997338 1.629330 0.000018 0.261736 -0.000024
 26   4.941382 1.997366 -1.629410 -0.000001 -0.261744 -0.000024
 27   2.918368 1.615358 1.514501 -0.000019 -0.000022 -0.000050
 28   2.920798 1.614964 -1.501142 -0.000002 -0.000009 -0.000024
 29   8.824059 0.150544 0.091743 0.000006 -0.000231 -0.174534
 30   2.111085 -0.561179 1.784320 -0.000008 -0.000682 0.000024
 31   2.121290 -0.561289 -1.853599 0.000000 0.000000 -0.000002
 32   -0.810489 -0.093824 3.127092 3.071872 -0.114782 1.239365
 33   14.298673 -0.408176 0.475484 0.000248 0.000062 -1.896136
 34   15.835795 0.581398 0.242756 -0.214729 0.106889 -0.097869
 35   -0.815868 -0.091229 -3.114430 0.066464 3.132725 -1.010185
 36   14.294526 -0.410349 -0.463635 0.000033 -0.000000 -2.607695
 37   15.834409 0.579420 -0.284600 -0.006092 -0.035255 0.214458
 38   1.139685 -3.453749 -2.823813 0.000000 0.000000 0.000001
 39   -4.457742 -1.054854 -0.746180 0.000000 0.000000 0.000000
 40   1.118101 -3.449769 3.237290 0.000000 0.000001 0.000000
 41   -4.433840 -1.059130 0.959566 -0.000001 0.000000 0.000000
 42   -0.657468 1.697302 -2.688614 0.000000 0.000002 0.000000
 43   -0.664068 1.698578 2.869377 0.000000 0.000002 0.000000
time 15
  0   -0.967547 0.175787 -20.574476 0.000000 0.000000 -1.572114
  1   -1.093036 0.000002 -0.326057 -1.570757 -1.570379 -0.000171
  2   2.262337 0.113614 0.064702 -0.000052 0.000061 -0.051442
  3   2.380047 0.353302 0.047440 -0.151495 0.040528 0.258477
  4   2.033756 0.190472 -0.000128 -0.059875 0.011146 0.182551
  5   2.451511 0.204909 -0.003447 -0.085396 0.017372 0.199671
  6   7.247600 -0.397300 -0.109469 0.000001 0.000033 -0.122015
  7   -2.022252 -0.104661 3.136172 1.395507 -0.561268 -4.270256
  8   1.168026 -0.537438 -0.063437 -0.795897 0.482832 -0.702317
  9   6.790376 -0.619176 0.015206 -0.000213 -0.000151 -0.002944
 10   8.637599 0.544015 -0.090417 -1.014511 -0.577895 -0.036727
 11   6.790465 -0.619039 0.017802 -0.003495 -0.010656 -0.017273
 12   -2.022474 -0.104699 -2.873818 0.207282 1.268952 -2.822806
 13   1.167898 -0.537463 0.063297 -0.598977 -0.950350 0.395746
 14   7.002743 -0.617765 -0.183752 0.000286 0.000250 -1.630803
 15   8.209042 0.615527 -0.255885 1.569443 0.019760 -0.069285
 16   7.002735 -0.617911 -0.183641 0.013497 0.009003 -1.160198
 17   1.574674 0.609930 -0.000899 0.206919 -0.217609 0.451286
 18   -0.602177 0.511412 -0.000006 0.000000 0.000000 0.000000
 19   3.673773 0.177020 1.119313 -0.000002 -0.000014 -0.174510
 20   3.673767 0.176993 -1.117566 0.000007 -0.000003 -0.174546
 21   3.942357 1.330634 1.627658 0.000002 -0.000011 -0.000026
 22   -0.246060 -0.011889 0.516521 -0.000011 0.000031 0.000025
 23   3.942374 1.330659 -1.631083 0.000019 0.000002 -0.000024
 24   -0.246150 -0.011872 -0.516511 -0.000005 -0.000006 0.000048
 25   4.941364 1.997338 1.629330 0.000018 0.261736 -0.000024
 26   4.941382 1.997366 -1.629410 -0.000001 -0.261744 -0.000024
 27   2.918368 1.615358 1.514501 -0.000019 -0.000022 -0.000050
 28   2.920798 1.614964 -1.501142 -0.000002 -0.000009 -0.000024
 29   8.824059 0.150544 0.091743 0.000006 -0.000231 -0.174534
 30   2.111085 -0.561179 1.784320 -0.000008 -0.000682 0.000024
 31   2.121290 -0.561289 -1.853599 0.000000 0.000000 -0.000002
 32   -0.810489 -0.093824 3.127092 3.071872 -0.114782 1.239365
 33   14.298673 -0.408176 0.475484 0.000248 0.000062 -1.896136
 34   15.835795 0.581398 0.242756 -0.214729 0.106889 -0.097869
 35   -0.815868 -0.091229 -3.114430 0.066464 3.132725 -1.010185
 36   14.294526 -0.410349 -0.463635 0.000033 -0.000000 -2.607695
 37   15.834409 0.579420 -0.284600 -0.006092 -0.035255 0.214458
 38   1.139685 -3.453749 -2.823813 0.000000 0.000000 0.000001
 39   -4.457742 -1.054854 -0.746180 0.000000 0.000000 0.000000
 40   1.118101 -3.449769 3.237290 0.000000 0.000001 0.000000
 41   -4.433840 -1.059130 0.959566 -0.000001 0.000000 0.000000
 42   -0.657468 1.697302 -2.688614 0.000000 0.000002 0.000000
 43   -0.664068 1.698578 2.869377 0.000000 0.000002 0.000000
time 16
  0   -0.967547 0.175787 -20.574476 0.000000 0.000000 -1.572114
  1   -1.093036 0.000002 -0.326057 -1.570757 -1.570379 -0.000171
  2   2.262337 0.113614 0.064702 -0.000052 0.000061 -0.051442
  3   2.380047 0.353302 0.047440 -0.151495 0.040528 0.258477
  4   2.033756 0.190472 -0.000128 -0.059875 0.011146 0.182551
  5   2.451511 0.204909 -0.003447 -0.085396 0.017333 0.198879
  6   7.247600 -0.397300 -0.109469 0.000001 0.000033 -0.122015
  7   -2.022252 -0.104661 3.136172 1.395603 -0.561441 -4.270444
  8   1.168026 -0.537438 -0.063437 -0.796277 0.484040 -0.702570
  9   6.790376 -0.619176 0.015206 -0.000213 -0.000151 -0.002944
 10   8.637599 0.544015 -0.090417 -1.014511 -0.577895 -0.036727
 11   6.790465 -0.619039 0.017802 -0.003495 -0.010656 -0.017273
 12   -2.022474 -0.104699 -2.873818 0.207856 1.269765 -2.822232
 13   1.167898 -0.537463 0.063297 -0.600664 -0.950655 0.397441
 14   7.002743 -0.617765 -0.183752 0.000286 0.000250 -1.630803
 15   8.209042 0.615527 -0.255885 1.569443 0.019760 -0.069285
 16   7.002735 -0.617911 -0.183641 0.013497 0.009003 -1.160198
 17   1.574674 0.609930 -0.000899 0.206919 -0.217609 0.452099
 18   -0.602177 0.511412 -0.000006 0.000000 0.000000 0.000000
 19   3.673773 0.177020 1.119313 -0.000002 -0.000014 -0.174510
 20   3.673767 0.176993 -1.117566 0.000007 -0.000003 -0.174546
 21   3.942357 1.330634 1.627658 0.000002 -0.000011 -0.000026
 22   -0.246060 -0.011889 0.516521 -0.000011 0.000031 0.000025
 23   3.942374 1.330659 -1.631083 0.000019 0.000002 -0.000024
 24   -0.246150 -0.011872 -0.516511 -0.000005 -0.000006 0.000048
 25   4.941364 1.997338 1.629330 0.000018 0.261736 -0.000024
 26   4.941382 1.997366 -1.629410 -0.000001 -0.261744 -0.000024
 27   2.918368 1.615358 1.514501 -0.000019 -0.000022 -0.000050
 28   2.920798 1.614964 -1.501142 -0.000002 -0.000009 -0.000024
 29   8.824059 0.150544 0.091743 0.000006 -0.000231 -0.174534
 30   2.111085 -0.561179 1.784320 -0.000008 -0.000682 0.000024
 31   2.121290 -0.561289 -1.853599 0.000000 0.000000 -0.000002
 32   -0.810489 -0.093824 3.127092 3.071872 -0.114782 1.239365
 33   14.298673 -0.408176 0.475484 0.000248 0.000062 -1.896136
 34   15.835795 0.581398 0.242756 -0.214729 0.106889 -0.097869
 35   -0.815868 -0.091229 -3.114430 0.066464 3.132725 -1.010185
 36   14.294526 -0.410349 -0.463635 0.000033 -0.000000 -2.607695
 37   15.834409 0.579420 -0.284600 -0.006092 -0.035255 0.214458
 38   1.139685 -3.453749 -2.823813 0.000000 0.000000 0.000001
 39   -4.457742 -1.054854 -0.746180 0.000000 0.000000 0.000000
 40   1.118101 -3.449769 3.237290 0.000000 0.000001 0.000000
 41   -4.433840 -1.059130 0.959566 -0.000001 0.000000 0.000000
 42   -0.657468 1.697302 -2.688614 0.000000 0.000002 0.000000
 43   -0.664068 1.698578 2.869377 0.000000 0.000002 0.000000
time 17
  0   -0.967547 0.175787 -20.574476 0.000000 0.000000 -1.572114
  1   -1.093036 0.000002 -0.326057 -1.570757 -1.570379 -0.000171
  2   2.262337 0.113614 0.064702 -0.000052 0.000061 -0.051442
  3   2.380047 0.353302 0.047440 -0.151495 0.040528 0.258477
  4   2.033756 0.190472 -0.000128 -0.059875 0.011146 0.182551
  5   2.451511 0.204909 -0.003447 -0.085396 0.017137 0.196774
  6   7.247600 -0.397300 -0.109469 0.000001 0.000033 -0.122015
  7   -2.022252 -0.104661 3.136172 1.396849 -0.561614 -4.272792
  8   1.168026 -0.537438 -0.063437 -0.798302 0.488417 -0.703582
  9   6.790376 -0.619176 0.015206 -0.000213 -0.000151 -0.002944
 10   8.637599 0.544015 -0.090417 -1.014511 -0.577895 -0.036727
 11   6.790465 -0.619039 0.017802 -0.003495 -0.010656 -0.017273
 12   -2.022474 -0.104699 -2.873818 0.209389 1.272203 -2.820700
 13   1.167898 -0.537463 0.063297 -0.605374 -0.951774 0.401981
 14   7.002743 -0.617765 -0.183752 0.000286 0.000250 -1.630803
 15   8.209042 0.615527 -0.255885 1.569443 0.019760 -0.069285
 16   7.002735 -0.617911 -0.183641 0.013497 0.009003 -1.160198
 17   1.574674 0.609930 -0.000899 0.206919 -0.217609 0.454243
 18   -0.602177 0.511412 -0.000006 0.000000 0.000000 0.000000
 19   3.673773 0.177020 1.119313 -0.000002 -0.000014 -0.174510
 20   3.673767 0.176993 -1.117566 0.000007 -0.000003 -0.174546
 21   3.942357 1.330634 1.627658 0.000002 -0.000011 -0.000026
 22   -0.246060 -0.011889 0.516521 -0.000011 0.000031 0.000025
 23   3.942374 1.330659 -1.631083 0.000019 0.000002 -0.000024
 24   -0.246150 -0.011872 -0.516511 -0.000005 -0.000006 0.000048
 25   4.941364 1.997338 1.629330 0.000018 0.261736 -0.000024
 26   4.941382 1.997366 -1.629410 -0.000001 -0.261744 -0.000024
 27   2.918368 1.615358 1.514501 -0.000019 -0.000022 -0.000050
 28   2.920798 1.614964 -1.501142 -0.000002 -0.000009 -0.000024
 29   8.824059 0.150544 0.091743 0.000006 -0.000231 -0.174534
 30   2.111085 -0.561179 1.784320 -0.000008 -0.000682 0.000024
 31   2.121290 -0.561289 -1.853599 0.000000 0.000000 -0.000002
 32   -0.810489 -0.093824 3.127092 3.071872 -0.114782 1.239365
 33   14.298673 -0.408176 0.475484 0.000248 0.000062 -1.896136
 34   15.835795 0.581398 0.242756 -0.214729 0.106889 -0.097869
 35   -0.815868 -0.091229 -3.114430 0.066464 3.132725 -1.010185
 36   14.294526 -0.410349 -0.463635 0.000033 -0.000000 -2.607695
 37   15.834409 0.579420 -0.284600 -0.006092 -0.035255 0.214458
 38   1.139685 -3.453749 -2.823813 0.000000 0.000000 0.000001
 39   -4.457742 -1.054854 -0.746180 0.000000 0.000000 0.000000
 40   1.118101 -3.449769 3.237290 0.000000 0.000001 0.000000
 41   -4.433840 -1.059130 0.959566 -0.000001 0.000000 0.000000
 42   -0.657468 1.697302 -2.688614 0.000000 0.000002 0.000000
 43   -0.664068 1.698578 2.869377 0.000000 0.000002 0.000000
time 18
  0   -0.967547 0.175787 -20.574476 0.000000 0.000000 -1.572114
  1   -1.093036 0.000002 -0.326057 -1.570757 -1.570379 -0.000171
  2   2.262337 0.113614 0.064702 -0.000052 0.000061 -0.051442
  3   2.380047 0.353302 0.047440 -0.151495 0.040528 0.258477
  4   2.033756 0.190472 -0.000128 -0.059875 0.011146 0.182551
  5   2.451511 0.204909 -0.003447 -0.085533 0.016706 0.193381
  6   7.247600 -0.397300 -0.109469 0.000001 0.000033 -0.122015
  7   -2.022252 -0.104661 3.136172 1.398287 -0.562248 -4.275891
  8   1.168026 -0.537438 -0.063437 -0.800770 0.495562 -0.704784
  9   6.790376 -0.619176 0.015206 -0.000213 -0.000151 -0.002944
 10   8.637599 0.544015 -0.090417 -1.014511 -0.577895 -0.036727
 11   6.790465 -0.619039 0.017802 -0.003495 -0.010656 -0.017273
 12   -2.022474 -0.104699 -2.873818 0.211785 1.275860 -2.818019
 13   1.167898 -0.537463 0.063297 -0.612895 -0.953910 0.408882
 14   7.002743 -0.617765 -0.183752 0.000286 0.000250 -1.630803
 15   8.209042 0.615527 -0.255885 1.569443 0.019760 -0.069285
 16   7.002735 -0.617911 -0.183641 0.013497 0.009003 -1.160198
 17   1.574674 0.609930 -0.000899 0.206919 -0.217609 0.457717
 18   -0.602177 0.511412 -0.000006 0.000000 0.000000 0.000000
 19   3.673773 0.177020 1.119313 -0.000002 -0.000014 -0.174510
 20   3.673767 0.176993 -1.117566 0.000007 -0.000003 -0.174546
 21   3.942357 1.330634 1.627658 0.000002 -0.000011 -0.000026
 22   -0.246060 -0.011889 0.516521 -0.000011 0.000031 0.000025
 23   3.942374 1.330659 -1.631083 0.000019 0.000002 -0.000024
 24   -0.246150 -0.011872 -0.516511 -0.000005 -0.000006 0.000048
 25   4.941364 1.997338 1.629330 0.000018 0.261736 -0.000024
 26   4.941382 1.997366 -1.629410 -0.000001 -0.261744 -0.000024
 27   2.918368 1.615358 1.514501 -0.000019 -0.000022 -0.000050
 28   2.920798 1.614964 -1.501142 -0.000002 -0.000009 -0.000024
 29   8.824059 0.150544 0.091743 0.000006 -0.000231 -0.174534
 30   2.111085 -0.561179 1.784320 -0.000008 -0.000682 0.000024
 31   2.121290 -0.561289 -1.853599 0.000000 0.000000 -0.000002
 32   -0.810489 -0.093824 3.127092 3.071872 -0.114782 1.239365
 33   14.298673 -0.408176 0.475484 0.000248 0.000062 -1.896136
 34   15.835795 0.581398 0.242756 -0.214729 0.106889 -0.097869
 35   -0.815868 -0.091229 -3.114430 0.066464 3.132725 -1.010185
 36   14.294526 -0.410349 -0.463635 0.000033 -0.000000 -2.607695
 37   15.834409 0.579420 -0.284600 -0.006092 -0.035255 0.214458
 38   1.139685 -3.453749 -2.823813 0.000000 0.000000 0.000001
 39   -4.457742 -1.054854 -0.746180 0.000000 0.000000 0.000000
 40   1.118101 -3.449769 3.237290 0.000000 0.000001 0.000000
 41   -4.433840 -1.059130 0.959566 -0.000001 0.000000 0.000000
 42   -0.657468 1.697302 -2.688614 0.000000 0.000002 0.000000
 43   -0.664068 1.698578 2.869377 0.000000 0.000002 0.000000
time 19
  0   -0.967547 0.175787 -20.574476 0.000000 0.000000 -1.572114
  1   -1.093036 0.000002 -0.326057 -1.570757 -1.570379 -0.000171
  2   2.262337 0.113614 0.064702 -0.000052 0.000061 -0.051442
  3   2.380047 0.353302 0.047440 -0.151495 0.040528 0.258477
  4   2.033756 0.190472 -0.000128 -0.059875 0.011146 0.182551
  5   2.451511 0.204909 -0.003447 -0.085533 0.016471 0.188948
  6   7.247600 -0.397300 -0.109469 0.000001 0.000033 -0.122015
  7   -2.022252 -0.104661 3.136172 1.400779 -0.562767 -4.279929
  8   1.168026 -0.537438 -0.063437 -0.804124 0.504367 -0.706745
  9   6.790376 -0.619176 0.015206 -0.000213 -0.000151 -0.002944
 10   8.637599 0.544015 -0.090417 -1.014511 -0.577895 -0.036727
 11   6.790465 -0.619039 0.017802 -0.003495 -0.010656 -0.017273
 12   -2.022474 -0.104699 -2.873818 0.215329 1.280416 -2.814668
 13   1.167898 -0.537463 0.063297 -0.622807 -0.956351 0.418265
 14   7.002743 -0.617765 -0.183752 0.000286 0.000250 -1.630803
 15   8.209042 0.615527 -0.255885 1.569443 0.019760 -0.069285
 16   7.002735 -0.617911 -0.183641 0.013497 0.009003 -1.160198
 17   1.574674 0.609930 -0.000899 0.206919 -0.217609 0.462042
 18   -0.602177 0.511412 -0.000006 0.000000 0.000000 0.000000
 19   3.673773 0.177020 1.119313 -0.000002 -0.000014 -0.174510
 20   3.673767 0.176993 -1.117566 0.000007 -0.000003 -0.174546
 21   3.942357 1.330634 1.627658 0.000002 -0.000011 -0.000026
 22   -0.246060 -0.011889 0.516521 -0.000011 0.000031 0.000025
 23   3.942374 1.330659 -1.631083 0.000019 0.000002 -0.000024
 24   -0.246150 -0.011872 -0.516511 -0.000005 -0.000006 0.000048
 25   4.941364 1.997338 1.629330 0.000018 0.261736 -0.000024
 26   4.941382 1.997366 -1.629410 -0.000001 -0.261744 -0.000024
 27   2.918368 1.615358 1.514501 -0.000019 -0.000022 -0.000050
 28   2.920798 1.614964 -1.501142 -0.000002 -0.000009 -0.000024
 29   8.824059 0.150544 0.091743 0.000006 -0.000231 -0.174534
 30   2.111085 -0.561179 1.784320 -0.000008 -0.000682 0.000024
 31   2.121290 -0.561289 -1.853599 0.000000 0.000000 -0.000002
 32   -0.810489 -0.093824 3.127092 3.071872 -0.114782 1.239365
 33   14.298673 -0.408176 0.475484 0.000248 0.000062 -1.896136
 34   15.835795 0.581398 0.242756 -0.214729 0.106889 -0.097869
 35   -0.815868 -0.091229 -3.114430 0.066464 3.132725 -1.010185
 36   14.294526 -0.410349 -0.463635 0.000033 -0.000000 -2.607695
 37   15.834409 0.579420 -0.284600 -0.006092 -0.035255 0.214458
 38   1.139685 -3.453749 -2.823813 0.000000 0.000000 0.000001
 39   -4.457742 -1.054854 -0.746180 0.000000 0.000000 0.000000
 40   1.118101 -3.449769 3.237290 0.000000 0.000001 0.000000
 41   -4.433840 -1.059130 0.959566 -0.000001 0.000000 0.000000
 42   -0.657468 1.697302 -2.688614 0.000000 0.000002 0.000000
 43   -0.664068 1.698578 2.869377 0.000000 0.000002 0.000000
time 20
  0   -0.967547 0.175787 -20.574476 0.000000 0.000000 -1.572114
  1   -1.093036 0.000002 -0.326057 -1.570757 -1.570379 -0.000171
  2   2.262337 0.113614 0.064702 -0.000052 0.000061 -0.051442
  3   2.380047 0.353302 0.047440 -0.151495 0.040528 0.258477
  4   2.033756 0.190472 -0.000128 -0.059875 0.011146 0.182551
  5   2.451511 0.204909 -0.003447 -0.085687 0.015923 0.183574
  6   7.247600 -0.397300 -0.109469 0.000001 0.000033 -0.122015
  7   -2.022252 -0.104661 3.136172 1.403463 -0.563459 -4.284907
  8   1.168026 -0.537438 -0.063437 -0.808427 0.515184 -0.708896
  9   6.790376 -0.619176 0.015206 -0.000213 -0.000151 -0.002944
 10   8.637599 0.544015 -0.090417 -1.014511 -0.577895 -0.036727
 11   6.790465 -0.619039 0.017802 -0.003495 -0.010656 -0.017273
 12   -2.022474 -0.104699 -2.873818 0.219353 1.286395 -2.810168
 13   1.167898 -0.537463 0.063297 -0.635249 -0.959555 0.429888
 14   7.002743 -0.617765 -0.183752 0.000286 0.000250 -1.630803
 15   8.209042 0.615527 -0.255885 1.569443 0.019760 -0.069285
 16   7.002735 -0.617911 -0.183641 0.013497 0.009003 -1.160198
 17   1.574674 0.609930 -0.000899 0.206919 -0.217609 0.467660
 18   -0.602177 0.511412 -0.000006 0.000000 0.000000 0.000000
 19   3.673773 0.177020 1.119313 -0.000002 -0.000014 -0.174510
 20   3.673767 0.176993 -1.117566 0.000007 -0.000003 -0.174546
 21   3.942357 1.330634 1.627658 0.000002 -0.000011 -0.000026
 22   -0.246060 -0.011889 0.516521 -0.000011 0.000031 0.000025
 23   3.942374 1.330659 -1.631083 0.000019 0.000002 -0.000024
 24   -0.246150 -0.011872 -0.516511 -0.000005 -0.000006 0.000048
 25   4.941364 1.997338 1.629330 0.000018 0.261736 -0.000024
 26   4.941382 1.997366 -1.629410 -0.000001 -0.261744 -0.000024
 27   2.918368 1.615358 1.514501 -0.000019 -0.000022 -0.000050
 28   2.920798 1.614964 -1.501142 -0.000002 -0.000009 -0.000024
 29   8.824059 0.150544 0.091743 0.000006 -0.000231 -0.174534
 30   2.111085 -0.561179 1.784320 -0.000008 -0.000682 0.000024
 31   2.121290 -0.561289 -1.853599 0.000000 0.000000 -0.000002
 32   -0.810489 -0.093824 3.127092 3.071872 -0.114782 1.239365
 33   14.298673 -0.408176 0.475484 0.000248 0.000062 -1.896136
 34   15.835795 0.581398 0.242756 -0.214729 0.106889 -0.097869
 35   -0.815868 -0.091229 -3.114430 0.066464 3.132725 -1.010185
 36   14.294526 -0.410349 -0.463635 0.000033 -0.000000 -2.607695
 37   15.834409 0.579420 -0.284600 -0.006092 -0.035255 0.214458
 38   1.139685 -3.453749 -2.823813 0.000000 0.000000 0.000001
 39   -4.457742 -1.054854 -0.746180 0.000000 0.000000 0.000000
 40   1.118101 -3.449769 3.237290 0.000000 0.000001 0.000000
 41   -4.433840 -1.059130 0.959566 -0.000001 0.000000 0.000000
 42   -0.657468 1.697302 -2.688614 0.000000 0.000002 0.000000
 43   -0.664068 1.698578 2.869377 0.000000 0.000002 0.000000
time 21
  0   -0.967547 0.175787 -20.574476 0.000000 0.000000 -1.572114
  1   -1.093036 0.000002 -0.326057 -1.570757 -1.570379 -0.000171
  2   2.262337 0.113614 0.064702 -0.000052 0.000061 -0.051442
  3   2.380047 0.353302 0.047440 -0.151495 0.040528 0.258477
  4   2.033756 0.190472 -0.000128 -0.059875 0.011146 0.182551
  5   2.451511 0.204909 -0.003447 -0.085790 0.015322 0.177432
  6   7.247600 -0.397300 -0.109469 0.000001 0.000033 -0.122015
  7   -2.022252 -0.104661 3.136172 1.406339 -0.564266 -4.290917
  8   1.168026 -0.537438 -0.063437 -0.813742 0.527411 -0.711553
  9   6.790376 -0.619176 0.015206 -0.000213 -0.000151 -0.002944
 10   8.637599 0.544015 -0.090417 -1.014511 -0.577895 -0.036727
 11   6.790465 -0.619039 0.017802 -0.003495 -0.010656 -0.017273
 12   -2.022474 -0.104699 -2.873818 0.224814 1.293042 -2.804807
 13   1.167898 -0.537463 0.063297 -0.649167 -0.962657 0.443145
 14   7.002743 -0.617765 -0.183752 0.000286 0.000250 -1.630803
 15   8.209042 0.615527 -0.255885 1.569443 0.019760 -0.069285
 16   7.002735 -0.617911 -0.183641 0.013497 0.009003 -1.160198
 17   1.574674 0.609930 -0.000899 0.206919 -0.217609 0.473759
 18   -0.602177 0.511412 -0.000006 0.000000 0.000000 0.000000
 19   3.673773 0.177020 1.119313 -0.000002 -0.000014 -0.174510
 20   3.673767 0.176993 -1.117566 0.000007 -0.000003 -0.174546
 21   3.942357 1.330634 1.627658 0.000002 -0.000011 -0.000026
 22   -0.246060 -0.011889 0.516521 -0.000011 0.000031 0.000025
 23   3.942374 1.330659 -1.631083 0.000019 0.000002 -0.000024
 24   -0.246150 -0.011872 -0.516511 -0.000005 -0.000006 0.000048
 25   4.941364 1.997338 1.629330 0.000018 0.261736 -0.000024
 26   4.941382 1.997366 -1.629410 -0.000001 -0.261744 -0.000024
 27   2.918368 1.615358 1.514501 -0.000019 -0.000022 -0.000050
 28   2.920798 1.614964 -1.501142 -0.000002 -0.000009 -0.000024
 29   8.824059 0.150544 0.091743 0.000006 -0.000231 -0.174534
 30   2.111085 -0.561179 1.784320 -0.000008 -0.000682 0.000024
 31   2.121290 -0.561289 -1.853599 0.000000 0.000000 -0.000002
 32   -0.810489 -0.093824 3.127092 3.071872 -0.114782 1.239365
 33   14.298673 -0.408176 0.475484 0.000248 0.000062 -1.896136
 34   15.835795 0.581398 0.242756 -0.214729 0.106889 -0.097869
 35   -0.815868 -0.091229 -3.114430 0.066464 3.132725 -1.010185
 36   14.294526 -0.410349 -0.463635 0.000033 -0.000000 -2.607695
 37   15.834409 0.579420 -0.284600 -0.006092 -0.035255 0.214458
 38   1.139685 -3.453749 -2.823813 0.000000 0.000000 0.000001
 39   -4.457742 -1.054854 -0.746180 0.000000 0.000000 0.000000
 40   1.118101 -3.449769 3.237290 0.000000 0.000001 0.000000
 41   -4.433840 -1.059130 0.959566 -0.000001 0.000000 0.000000
 42   -0.657468 1.697302 -2.688614 0.000000 0.000002 0.000000
 43   -0.664068 1.698578 2.869377 0.000000 0.000002 0.000000
time 22
  0   -0.967547 0.175787 -20.574476 0.000000 0.000000 -1.572114
  1   -1.093036 0.000002 -0.326057 -1.570757 -1.570379 -0.000171
  2   2.262337 0.113614 0.064702 -0.000052 0.000061 -0.051442
  3   2.380047 0.353302 0.047440 -0.151495 0.040528 0.258477
  4   2.033756 0.190472 -0.000128 -0.059875 0.011146 0.182551
  5   2.451511 0.204909 -0.003447 -0.085824 0.014878 0.170572
  6   7.247600 -0.397300 -0.109469 0.000001 0.000033 -0.122015
  7   -2.022252 -0.104661 3.136172 1.409694 -0.565188 -4.297115
  8   1.168026 -0.537438 -0.063437 -0.819121 0.541046 -0.714779
  9   6.790376 -0.619176 0.015206 -0.000213 -0.000151 -0.002944
 10   8.637599 0.544015 -0.090417 -1.014511 -0.577895 -0.036727
 11   6.790465 -0.619039 0.017802 -0.003495 -0.010656 -0.017273
 12   -2.022474 -0.104699 -2.873818 0.230754 1.300211 -2.798488
 13   1.167898 -0.537463 0.063297 -0.664983 -0.966216 0.457673
 14   7.002743 -0.617765 -0.183752 0.000286 0.000250 -1.630803
 15   8.209042 0.615527 -0.255885 1.569443 0.019760 -0.069285
 16   7.002735 -0.617911 -0.183641 0.013497 0.009003 -1.160198
 17   1.574674 0.609930 -0.000899 0.206919 -0.217609 0.480596
 18   -0.602177 0.511412 -0.000006 0.000000 0.000000 0.000000
 19   3.673773 0.177020 1.119313 -0.000002 -0.000014 -0.174510
 20   3.673767 0.176993 -1.117566 0.000007 -0.000003 -0.174546
 21   3.942357 1.330634 1.627658 0.000002 -0.000011 -0.000026
 22   -0.246060 -0.011889 0.516521 -0.000011 0.000031 0.000025
 23   3.942374 1.330659 -1.631083 0.000019 0.000002 -0.000024
 24   -0.246150 -0.011872 -0.516511 -0.000005 -0.000006 0.000048
 25   4.941364 1.997338 1.629330 0.000018 0.261736 -0.000024
 26   4.941382 1.997366 -1.629410 -0.000001 -0.261744 -0.000024
 27   2.918368 1.615358 1.514501 -0.000019 -0.000022 -0.000050
 28   2.920798 1.614964 -1.501142 -0.000002 -0.000009 -0.000024
 29   8.824059 0.150544 0.091743 0.000006 -0.000231 -0.174534
 30   2.111085 -0.561179 1.784320 -0.000008 -0.000682 0.000024
 31   2.121290 -0.561289 -1.853599 0.000000 0.000000 -0.000002
 32   -0.810489 -0.093824 3.127092 3.071872 -0.114782 1.239365
 33   14.298673 -0.408176 0.475484 0.000248 0.000062 -1.896136
 34   15.835795 0.581398 0.242756 -0.214729 0.106889 -0.097869
 35   -0.815868 -0.091229 -3.114430 0.066464 3.132725 -1.010185
 36   14.294526 -0.410349 -0.463635 0.000033 -0.000000 -2.607695
 37   15.834409 0.579420 -0.284600 -0.006092 -0.035255 0.214458
 38   1.139685 -3.453749 -2.823813 0.000000 0.000000 0.000001
 39   -4.457742 -1.054854 -0.746180 0.000000 0.000000 0.000000
 40   1.118101 -3.449769 3.237290 0.000000 0.000001 0.000000
 41   -4.433840 -1.059130 0.959566 -0.000001 0.000000 0.000000
 42   -0.657468 1.697302 -2.688614 0.000000 0.000002 0.000000
 43   -0.664068 1.698578 2.869377 0.000000 0.000002 0.000000
time 23
  0   -0.967547 0.175787 -20.574476 0.000000 0.000000 -1.572114
  1   -1.093036 0.000002 -0.326057 -1.570757 -1.570379 -0.000171
  2   2.262337 0.113614 0.064702 -0.000052 0.000061 -0.051442
  3   2.380047 0.353302 0.047440 -0.151495 0.040528 0.258477
  4   2.033756 0.190472 -0.000128 -0.059875 0.011146 0.182551
  5   2.451511 0.204909 -0.003447 -0.085978 0.014278 0.163340
  6   7.247600 -0.397300 -0.109469 0.000001 0.000033 -0.122015
  7   -2.022252 -0.104661 3.136172 1.413624 -0.566024 -4.303783
  8   1.168026 -0.537438 -0.063437 -0.825259 0.555687 -0.718132
  9   6.790376 -0.619176 0.015206 -0.000213 -0.000151 -0.002944
 10   8.637599 0.544015 -0.090417 -1.014511 -0.577895 -0.036727
 11   6.790465 -0.619039 0.017802 -0.003495 -0.010656 -0.017273
 12   -2.022474 -0.104699 -2.873818 0.237269 1.307989 -2.791307
 13   1.167898 -0.537463 0.063297 -0.682135 -0.969827 0.473836
 14   7.002743 -0.617765 -0.183752 0.000286 0.000250 -1.630803
 15   8.209042 0.615527 -0.255885 1.569443 0.019760 -0.069285
 16   7.002735 -0.617911 -0.183641 0.013497 0.009003 -1.160198
 17   1.574674 0.609930 -0.000899 0.206919 -0.217609 0.487730
 18   -0.602177 0.511412 -0.000006 0.000000 0.000000 0.000000
 19   3.673773 0.177020 1.119313 -0.000002 -0.000014 -0.174510
 20   3.673767 0.176993 -1.117566 0.000007 -0.000003 -0.174546
 21   3.942357 1.330634 1.627658 0.000002 -0.000011 -0.000026
 22   -0.246060 -0.011889 0.516521 -0.000011 0.000031 0.000025
 23   3.942374 1.330659 -1.631083 0.000019 0.000002 -0.000024
 24   -0.246150 -0.011872 -0.516511 -0.000005 -0.000006 0.000048
 25   4.941364 1.997338 1.629330 0.000018 0.261736 -0.000024
 26   4.941382 1.997366 -1.629410 -0.000001 -0.261744 -0.000024
 27   2.918368 1.615358 1.514501 -0.000019 -0.000022 -0.000050
 28   2.920798 1.614964 -1.501142 -0.000002 -0.000009 -0.000024
 29   8.824059 0.150544 0.091743 0.000006 -0.000231 -0.174534
 30   2.111085 -0.561179 1.784320 -0.000008 -0.000682 0.000024
 31   2.121290 -0.561289 -1.853599 0.000000 0.000000 -0.000002
 32   -0.810489 -0.093824 3.127092 3.071872 -0.114782 1.239365
 33   14.298673 -0.408176 0.475484 0.000248 0.000062 -1.896136
 34   15.835795 0.581398 0.242756 -0.214729 0.106889 -0.097869
 35   -0.815868 -0.091229 -3.114430 0.066464 3.132725 -1.010185
 36   14.294526 -0.410349 -0.463635 0.000033 -0.000000 -2.607695
 37   15.834409 0.579420 -0.284600 -0.006092 -0.035255 0.214458
 38   1.139685 -3.453749 -2.823813 0.000000 0.000000 0.000001
 39   -4.457742 -1.054854 -0.746180 0.000000 0.000000 0.000000
 40   1.118101 -3.449769 3.237290 0.000000 0.000001 0.000000
 41   -4.433840 -1.059130 0.959566 -0.000001 0.000000 0.000000
 42   -0.657468 1.697302 -2.688614 0.000000 0.000002 0.000000
 43   -0.664068 1.698578 2.869377 0.000000 0.000002 0.000000
time 24
  0   -0.967547 0.175787 -20.574476 0.000000 0.000000 -1.572114
  1   -1.093036 0.000002 -0.326057 -1.570757 -1.570379 -0.000171
  2   2.262337 0.113614 0.064702 -0.000052 0.000061 -0.051442
  3   2.380047 0.353302 0.047440 -0.151495 0.040528 0.258477
  4   2.033756 0.190472 -0.000128 -0.059875 0.011146 0.182551
  5   2.451511 0.204909 -0.003447 -0.086098 0.013586 0.155812
  6   7.247600 -0.397300 -0.109469 0.000001 0.000033 -0.122015
  7   -2.022252 -0.104661 3.136172 1.417075 -0.566976 -4.311109
  8   1.168026 -0.537438 -0.063437 -0.831904 0.571134 -0.722054
  9   6.790376 -0.619176 0.015206 -0.000213 -0.000151 -0.002944
 10   8.637599 0.544015 -0.090417 -1.014511 -0.577895 -0.036727
 11   6.790465 -0.619039 0.017802 -0.003495 -0.010656 -0.017273
 12   -2.022474 -0.104699 -2.873818 0.244934 1.316232 -2.783552
 13   1.167898 -0.537463 0.063297 -0.700060 -0.973336 0.490362
 14   7.002743 -0.617765 -0.183752 0.000286 0.000250 -1.630803
 15   8.209042 0.615527 -0.255885 1.569443 0.019760 -0.069285
 16   7.002735 -0.617911 -0.183641 0.013497 0.009003 -1.160198
 17   1.574674 0.609930 -0.000899 0.206919 -0.217609 0.495381
 18   -0.602177 0.511412 -0.000006 0.000000 0.000000 0.000000
 19   3.673773 0.177020 1.119313 -0.000002 -0.000014 -0.174510
 20   3.673767 0.176993 -1.117566 0.000007 -0.000003 -0.174546
 21   3.942357 1.330634 1.627658 0.000002 -0.000011 -0.000026
 22   -0.246060 -0.011889 0.516521 -0.000011 0.000031 0.000025
 23   3.942374 1.330659 -1.631083 0.000019 0.000002 -0.000024
 24   -0.246150 -0.011872 -0.516511 -0.000005 -0.000006 0.000048
 25   4.941364 1.997338 1.629330 0.000018 0.261736 -0.000024
 26   4.941382 1.997366 -1.629410 -0.000001 -0.261744 -0.000024
 27   2.918368 1.615358 1.514501 -0.000019 -0.000022 -0.000050
 28   2.920798 1.614964 -1.501142 -0.000002 -0.000009 -0.000024
 29   8.824059 0.150544 0.091743 0.000006 -0.000231 -0.174534
 30   2.111085 -0.561179 1.784320 -0.000008 -0.000682 0.000024
 31   2.121290 -0.561289 -1.853599 0.000000 0.000000 -0.000002
 32   -0.810489 -0.093824 3.127092 3.071872 -0.114782 1.239365
 33   14.298673 -0.408176 0.475484 0.000248 0.000062 -1.896136
 34   15.835795 0.581398 0.242756 -0.214729 0.106889 -0.097869
 35   -0.815868 -0.091229 -3.114430 0.066464 3.132725 -1.010185
 36   14.294526 -0.410349 -0.463635 0.000033 -0.000000 -2.607695
 37   15.834409 0.579420 -0.284600 -0.006092 -0.035255 0.214458
 38   1.139685 -3.453749 -2.823813 0.000000 0.000000 0.000001
 39   -4.457742 -1.054854 -0.746180 0.000000 0.000000 0.000000
 40   1.118101 -3.449769 3.237290 0.000000 0.000001 0.000000
 41   -4.433840 -1.059130 0.959566 -0.000001 0.000000 0.000000
 42   -0.657468 1.697302 -2.688614 0.000000 0.000002 0.000000
 43   -0.664068 1.698578 2.869377 0.000000 0.000002 0.000000
time 25
  0   -0.967547 0.175787 -20.574476 0.000000 0.000000 -1.572114
  1   -1.093036 0.000002 -0.326057 -1.570757 -1.570379 -0.000171
  2   2.262337 0.113614 0.064702 -0.000052 0.000061 -0.051442
  3   2.380047 0.353302 0.047440 -0.151495 0.040528 0.258477
  4   2.033756 0.190472 -0.000128 -0.059875 0.011146 0.182551
  5   2.451511 0.204909 -0.003447 -0.086132 0.012829 0.148110
  6   7.247600 -0.397300 -0.109469 0.000001 0.000033 -0.122015
  7   -2.022252 -0.104661 3.136172 1.421101 -0.567869 -4.318246
  8   1.168026 -0.537438 -0.063437 -0.838422 0.586429 -0.726356
  9   6.790376 -0.619176 0.015206 -0.000213 -0.000151 -0.002944
 10   8.637599 0.544015 -0.090417 -1.014511 -0.577895 -0.036727
 11   6.790465 -0.619039 0.017802 -0.003495 -0.010656 -0.017273
 12   -2.022474 -0.104699 -2.873818 0.253077 1.324504 -2.775223
 13   1.167898 -0.537463 0.063297 -0.718899 -0.976845 0.507796
 14   7.002743 -0.617765 -0.183752 0.000286 0.000250 -1.630803
 15   8.209042 0.615527 -0.255885 1.569443 0.019760 -0.069285
 16   7.002735 -0.617911 -0.183641 0.013497 0.009003 -1.160198
 17   1.574674 0.609930 -0.000899 0.206919 -0.217609 0.503143
 18   -0.602177 0.511412 -0.000006 0.000000 0.000000 0.000000
 19   3.673773 0.177020 1.119313 -0.000002 -0.000014 -0.174510
 20   3.673767 0.176993 -1.117566 0.000007 -0.000003 -0.174546
 21   3.942357 1.330634 1.627658 0.000002 -0.000011 -0.000026
 22   -0.246060 -0.011889 0.516521 -0.000011 0.000031 0.000025
 23   3.942374 1.330659 -1.631083 0.000019 0.000002 -0.000024
 24   -0.246150 -0.011872 -0.516511 -0.000005 -0.000006 0.000048
 25   4.941364 1.997338 1.629330 0.000018 0.261736 -0.000024
 26   4.941382 1.997366 -1.629410 -0.000001 -0.261744 -0.000024
 27   2.918368 1.615358 1.514501 -0.000019 -0.000022 -0.000050
 28   2.920798 1.614964 -1.501142 -0.000002 -0.000009 -0.000024
 29   8.824059 0.150544 0.091743 0.000006 -0.000231 -0.174534
 30   2.111085 -0.561179 1.784320 -0.000008 -0.000682 0.000024
 31   2.121290 -0.561289 -1.853599 0.000000 0.000000 -0.000002
 32   -0.810489 -0.093824 3.127092 3.071872 -0.114782 1.239365
 33   14.298673 -0.408176 0.475484 0.000248 0.000062 -1.896136
 34   15.835795 0.581398 0.242756 -0.214729 0.106889 -0.097869
 35   -0.815868 -0.091229 -3.114430 0.066464 3.132725 -1.010185
 36   14.294526 -0.410349 -0.463635 0.000033 -0.000000 -2.607695
 37   15.834409 0.579420 -0.284600 -0.006092 -0.035255 0.214458
 38   1.139685 -3.453749 -2.823813 0.000000 0.000000 0.000001
 39   -4.457742 -1.054854 -0.746180 0.000000 0.000000 0.000000
 40   1.118101 -3.449769 3.237290 0.000000 0.000001 0.000000
 41   -4.433840 -1.059130 0.959566 -0.000001 0.000000 0.000000
 42   -0.657468 1.697302 -2.688614 0.000000 0.000002 0.000000
 43   -0.664068 1.698578 2.869377 0.000000 0.000002 0.000000
time 26
  0   -0.967547 0.175787 -20.574476 0.000000 0.000000 -1.572114
  1   -1.093036 0.000002 -0.326057 -1.570757 -1.570379 -0.000171
  2   2.262337 0.113614 0.064702 -0.000052 0.000061 -0.051442
  3   2.380047 0.353302 0.047440 -0.151495 0.040528 0.258477
  4   2.033756 0.190472 -0.000128 -0.059875 0.011146 0.182551
  5   2.451511 0.204909 -0.003447 -0.086269 0.012150 0.140432
  6   7.247600 -0.397300 -0.109469 0.000001 0.000033 -0.122015
  7   -2.022252 -0.104661 3.136172 1.425127 -0.568849 -4.325665
  8   1.168026 -0.537438 -0.063437 -0.845319 0.601876 -0.730531
  9   6.790376 -0.619176 0.015206 -0.000213 -0.000151 -0.002944
 10   8.637599 0.544015 -0.090417 -1.014511 -0.577895 -0.036727
 11   6.790465 -0.619039 0.017802 -0.003495 -0.010656 -0.017273
 12   -2.022474 -0.104699 -2.873818 0.261892 1.332601 -2.766127
 13   1.167898 -0.537463 0.063297 -0.737316 -0.980048 0.525109
 14   7.002743 -0.617765 -0.183752 0.000286 0.000250 -1.630803
 15   8.209042 0.615527 -0.255885 1.569443 0.019760 -0.069285
 16   7.002735 -0.617911 -0.183641 0.013497 0.009003 -1.160198
 17   1.574674 0.609930 -0.000899 0.206919 -0.217609 0.510794
 18   -0.602177 0.511412 -0.000006 0.000000 0.000000 0.000000
 19   3.673773 0.177020 1.119313 -0.000002 -0.000014 -0.174510
 20   3.673767 0.176993 -1.117566 0.000007 -0.000003 -0.174546
 21   3.942357 1.330634 1.627658 0.000002 -0.000011 -0.000026
 22   -0.246060 -0.011889 0.516521 -0.000011 0.000031 0.000025
 23   3.942374 1.330659 -1.631083 0.000019 0.000002 -0.000024
 24   -0.246150 -0.011872 -0.516511 -0.000005 -0.000006 0.000048
 25   4.941364 1.997338 1.629330 0.000018 0.261736 -0.000024
 26   4.941382 1.997366 -1.629410 -0.000001 -0.261744 -0.000024
 27   2.918368 1.615358 1.514501 -0.000019 -0.000022 -0.000050
 28   2.920798 1.614964 -1.501142 -0.000002 -0.000009 -0.000024
 29   8.824059 0.150544 0.091743 0.000006 -0.000231 -0.174534
 30   2.111085 -0.561179 1.784320 -0.000008 -0.000682 0.000024
 31   2.121290 -0.561289 -1.853599 0.000000 0.000000 -0.000002
 32   -0.810489 -0.093824 3.127092 3.071872 -0.114782 1.239365
 33   14.298673 -0.408176 0.475484 0.000248 0.000062 -1.896136
 34   15.835795 0.581398 0.242756 -0.214729 0.106889 -0.097869
 35   -0.815868 -0.091229 -3.114430 0.066464 3.132725 -1.010185
 36   14.294526 -0.410349 -0.463635 0.000033 -0.000000 -2.607695
 37   15.834409 0.579420 -0.284600 -0.006092 -0.035255 0.214458
 38   1.139685 -3.453749 -2.823813 0.000000 0.000000 0.000001
 39   -4.457742 -1.054854 -0.746180 0.000000 0.000000 0.000000
 40   1.118101 -3.449769 3.237290 0.000000 0.000001 0.000000
 41   -4.433840 -1.059130 0.959566 -0.000001 0.000000 0.000000
 42   -0.657468 1.697302 -2.688614 0.000000 0.000002 0.000000
 43   -0.664068 1.698578 2.869377 0.000000 0.000002 0.000000
time 27
  0   -0.967547 0.175787 -20.574476 0.000000 0.000000 -1.572114
  1   -1.093036 0.000002 -0.326057 -1.570757 -1.570379 -0.000171
  2   2.262337 0.113614 0.064702 -0.000052 0.000061 -0.051442
  3   2.380047 0.353302 0.047440 -0.151495 0.040528 0.258477
  4   2.033756 0.190472 -0.000128 -0.059875 0.011146 0.182551
  5   2.451511 0.204909 -0.003447 -0.086389 0.011601 0.132904
  6   7.247600 -0.397300 -0.109469 0.000001 0.000033 -0.122015
  7   -2.022252 -0.104661 3.136172 1.428865 -0.569685 -4.332709
  8   1.168026 -0.537438 -0.063437 -0.852407 0.617222 -0.735149
  9   6.790376 -0.619176 0.015206 -0.000213 -0.000151 -0.002944
 10   8.637599 0.544015 -0.090417 -1.014511 -0.577895 -0.036727
 11   6.790465 -0.619039 0.017802 -0.003495 -0.010656 -0.017273
 12   -2.022474 -0.104699 -2.873818 0.270898 1.340554 -2.756840
 13   1.167898 -0.537463 0.063297 -0.756014 -0.983201 0.542301
 14   7.002743 -0.617765 -0.183752 0.000286 0.000250 -1.630803
 15   8.209042 0.615527 -0.255885 1.569443 0.019760 -0.069285
 16   7.002735 -0.617911 -0.183641 0.013497 0.009003 -1.160198
 17   1.574674 0.609930 -0.000899 0.206919 -0.217609 0.518371
 18   -0.602177 0.511412 -0.000006 0.000000 0.000000 0.000000
 19   3.673773 0.177020 1.119313 -0.000002 -0.000014 -0.174510
 20   3.673767 0.176993 -1.117566 0.000007 -0.000003 -0.174546
 21   3.942357 1.330634 1.627658 0.000002 -0.000011 -0.000026
 22   -0.246060 -0.011889 0.516521 -0.000011 0.000031 0.000025
 23   3.942374 1.330659 -1.631083 0.000019 0.000002 -0.000024
 24   -0.246150 -0.011872 -0.516511 -0.000005 -0.000006 0.000048
 25   4.941364 1.997338 1.629330 0.000018 0.261736 -0.000024
 26   4.941382 1.997366 -1.629410 -0.000001 -0.261744 -0.000024
 27   2.918368 1.615358 1.514501 -0.000019 -0.000022 -0.000050
 28   2.920798 1.614964 -1.501142 -0.000002 -0.000009 -0.000024
 29   8.824059 0.150544 0.091743 0.000006 -0.000231 -0.174534
 30   2.111085 -0.561179 1.784320 -0.000008 -0.000682 0.000024
 31   2.121290 -0.561289 -1.853599 0.000000 0.000000 -0.000002
 32   -0.810489 -0.093824 3.127092 3.071872 -0.114782 1.239365
 33   14.298673 -0.408176 0.475484 0.000248 0.000062 -1.896136
 34   15.835795 0.581398 0.242756 -0.214729 0.106889 -0.097869
 35   -0.815868 -0.091229 -3.114430 0.066464 3.132725 -1.010185
 36   14.294526 -0.410349 -0.463635 0.000033 -0.000000 -2.607695
 37   15.834409 0.579420 -0.284600 -0.006092 -0.035255 0.214458
 38   1.139685 -3.453749 -2.823813 0.000000 0.000000 0.000001
 39   -4.457742 -1.054854 -0.746180 0.000000 0.000000 0.000000
 40   1.118101 -3.449769 3.237290 0.000000 0.000001 0.000000
 41   -4.433840 -1.059130 0.959566 -0.000001 0.000000 0.000000
 42   -0.657468 1.697302 -2.688614 0.000000 0.000002 0.000000
 43   -0.664068 1.698578 2.869377 0.000000 0.000002 0.000000
time 28
  0   -0.967547 0.175787 -20.574476 0.000000 0.000000 -1.572114
  1   -1.093036 0.000002 -0.326057 -1.570757 -1.570379 -0.000171
  2   2.262337 0.113614 0.064702 -0.000052 0.000061 -0.051442
  3   2.380047 0.353302 0.047440 -0.151495 0.040528 0.258477
  4   2.033756 0.190472 -0.000128 -0.059875 0.011146 0.182551
  5   2.451511 0.204909 -0.003447 -0.086423 0.011014 0.125697
  6   7.247600 -0.397300 -0.109469 0.000001 0.000033 -0.122015
  7   -2.022252 -0.104661 3.136172 1.432508 -0.570521 -4.339470
  8   1.168026 -0.537438 -0.063437 -0.858861 0.631662 -0.739514
  9   6.790376 -0.619176 0.015206 -0.000213 -0.000151 -0.002944
 10   8.637599 0.544015 -0.090417 -1.014511 -0.577895 -0.036727
 11   6.790465 -0.619039 0.017802 -0.003495 -0.010656 -0.017273
 12   -2.022474 -0.104699 -2.873818 0.280382 1.348245 -2.747266
 13   1.167898 -0.537463 0.063297 -0.774080 -0.985744 0.559069
 14   7.002743 -0.617765 -0.183752 0.000286 0.000250 -1.630803
 15   8.209042 0.615527 -0.255885 1.569443 0.019760 -0.069285
 16   7.002735 -0.617911 -0.183641 0.013497 0.009003 -1.160198
 17   1.574674 0.609930 -0.000899 0.206919 -0.217609 0.525615
 18   -0.602177 0.511412 -0.000006 0.000000 0.000000 0.000000
 19   3.673773 0.177020 1.119313 -0.000002 -0.000014 -0.174510
 20   3.673767 0.176993 -1.117566 0.000007 -0.000003 -0.174546
 21   3.942357 1.330634 1.627658 0.000002 -0.000011 -0.000026
 22   -0.246060 -0.011889 0.516521 -0.000011 0.000031 0.000025
 23   3.942374 1.330659 -1.631083 0.000019 0.000002 -0.000024
 24   -0.246150 -0.011872 -0.516511 -0.000005 -0.000006 0.000048
 25   4.941364 1.997338 1.629330 0.000018 0.261736 -0.000024
 26   4.941382 1.997366 -1.629410 -0.000001 -0.261744 -0.000024
 27   2.918368 1.615358 1.514501 -0.000019 -0.000022 -0.000050
 28   2.920798 1.614964 -1.501142 -0.000002 -0.000009 -0.000024
 29   8.824059 0.150544 0.091743 0.000006 -0.000231 -0.174534
 30   2.111085 -0.561179 1.784320 -0.000008 -0.000682 0.000024
 31   2.121290 -0.561289 -1.853599 0.000000 0.000000 -0.000002
 32   -0.810489 -0.093824 3.127092 3.071872 -0.114782 1.239365
 33   14.298673 -0.408176 0.475484 0.000248 0.000062 -1.896136
 34   15.835795 0.581398 0.242756 -0.214729 0.106889 -0.097869
 35   -0.815868 -0.091229 -3.114430 0.066464 3.132725 -1.010185
 36   14.294526 -0.410349 -0.463635 0.000033 -0.000000 -2.607695
 37   15.834409 0.579420 -0.284600 -0.006092 -0.035255 0.214458
 38   1.139685 -3.453749 -2.823813 0.000000 0.000000 0.000001
 39   -4.457742 -1.054854 -0.746180 0.000000 0.000000 0.000000
 40   1.118101 -3.449769 3.237290 0.000000 0.000001 0.000000
 41   -4.433840 -1.059130 0.959566 -0.000001 0.000000 0.000000
 42   -0.657468 1.697302 -2.688614 0.000000 0.000002 0.000000
 43   -0.664068 1.698578 2.869377 0.000000 0.000002 0.000000
time 29
  0   -0.967547 0.175787 -20.574476 0.000000 0.000000 -1.572114
  1   -1.093036 0.000002 -0.326057 -1.570757 -1.570379 -0.000171
  2   2.262337 0.113614 0.064702 -0.000052 0.000061 -0.051442
  3   2.380047 0.353302 0.047440 -0.151495 0.040528 0.258477
  4   2.033756 0.190472 -0.000128 -0.059875 0.011146 0.182551
  5   2.451511 0.204909 -0.003447 -0.086543 0.010413 0.118911
  6   7.247600 -0.397300 -0.109469 0.000001 0.000033 -0.122015
  7   -2.022252 -0.104661 3.136172 1.435959 -0.571184 -4.346045
  8   1.168026 -0.537438 -0.063437 -0.865379 0.645398 -0.743942
  9   6.790376 -0.619176 0.015206 -0.000213 -0.000151 -0.002944
 10   8.637599 0.544015 -0.090417 -1.014511 -0.577895 -0.036727
 11   6.790465 -0.619039 0.017802 -0.003495 -0.010656 -0.017273
 12   -2.022474 -0.104699 -2.873818 0.289867 1.355356 -2.737692
 13   1.167898 -0.537463 0.063297 -0.791231 -0.988185 0.574687
 14   7.002743 -0.617765 -0.183752 0.000286 0.000250 -1.630803
 15   8.209042 0.615527 -0.255885 1.569443 0.019760 -0.069285
 16   7.002735 -0.617911 -0.183641 0.013497 0.009003 -1.160198
 17   1.574674 0.609930 -0.000899 0.206919 -0.217609 0.532564
 18   -0.602177 0.511412 -0.000006 0.000000 0.000000 0.000000
 19   3.673773 0.177020 1.119313 -0.000002 -0.000014 -0.174510
 20   3.673767 0.176993 -1.117566 0.000007 -0.000003 -0.174546
 21   3.942357 1.330634 1.627658 0.000002 -0.000011 -0.000026
 22   -0.246060 -0.011889 0.516521 -0.000011 0.000031 0.000025
 23   3.942374 1.330659 -1.631083 0.000019 0.000002 -0.000024
 24   -0.246150 -0.011872 -0.516511 -0.000005 -0.000006 0.000048
 25   4.941364 1.997338 1.629330 0.000018 0.261736 -0.000024
 26   4.941382 1.997366 -1.629410 -0.000001 -0.261744 -0.000024
 27   2.918368 1.615358 1.514501 -0.000019 -0.000022 -0.000050
 28   2.920798 1.614964 -1.501142 -0.000002 -0.000009 -0.000024
 29   8.824059 0.150544 0.091743 0.000006 -0.000231 -0.174534
 30   2.111085 -0.561179 1.784320 -0.000008 -0.000682 0.000024
 31   2.121290 -0.561289 -1.853599 0.000000 0.000000 -0.000002
 32   -0.810489 -0.093824 3.127092 3.071872 -0.114782 1.239365
 33   14.298673 -0.408176 0.475484 0.000248 0.000062 -1.896136
 34   15.835795 0.581398 0.242756 -0.214729 0.106889 -0.097869
 35   -0.815868 -0.091229 -3.114430 0.066464 3.132725 -1.010185
 36   14.294526 -0.410349 -0.463635 0.000033 -0.000000 -2.607695
 37   15.834409 0.579420 -0.284600 -0.006092 -0.035255 0.214458
 38   1.139685 -3.453749 -2.823813 0.000000 0.000000 0.000001
 39   -4.457742 -1.054854 -0.746180 0.000000 0.000000 0.000000
 40   1.118101 -3.449769 3.237290 0.000000 0.000001 0.000000
 41   -4.433840 -1.059130 0.959566 -0.000001 0.000000 0.000000
 42   -0.657468 1.697302 -2.688614 0.000000 0.000002 0.000000
 43   -0.664068 1.698578 2.869377 0.000000 0.000002 0.000000
time 30
  0   -0.967547 0.175787 -20.574476 0.000000 0.000000 -1.572114
  1   -1.093036 0.000002 -0.326057 -1.570757 -1.570379 -0.000171
  2   2.262337 0.113614 0.064702 -0.000052 0.000061 -0.051442
  3   2.380047 0.353302 0.047440 -0.151495 0.040528 0.258477
  4   2.033756 0.190472 -0.000128 -0.059875 0.011146 0.182551
  5   2.451511 0.204909 -0.003447 -0.086560 0.009761 0.112720
  6   7.247600 -0.397300 -0.109469 0.000001 0.000033 -0.122015
  7   -2.022252 -0.104661 3.136172 1.439218 -0.571876 -4.351961
  8   1.168026 -0.537438 -0.063437 -0.871264 0.657574 -0.748307
  9   6.790376 -0.619176 0.015206 -0.000213 -0.000151 -0.002944
 10   8.637599 0.544015 -0.090417 -1.014511 -0.577895 -0.036727
 11   6.790465 -0.619039 0.017802 -0.003495 -0.010656 -0.017273
 12   -2.022474 -0.104699 -2.873818 0.298586 1.361829 -2.728022
 13   1.167898 -0.537463 0.063297 -0.806766 -0.990270 0.588852
 14   7.002743 -0.617765 -0.183752 0.000286 0.000250 -1.630803
 15   8.209042 0.615527 -0.255885 1.569443 0.019760 -0.069285
 16   7.002735 -0.617911 -0.183641 0.013497 0.009003 -1.160198
 17   1.574674 0.609930 -0.000899 0.206919 -0.217609 0.538662
 18   -0.602177 0.511412 -0.000006 0.000000 0.000000 0.000000
 19   3.673773 0.177020 1.119313 -0.000002 -0.000014 -0.174510
 20   3.673767 0.176993 -1.117566 0.000007 -0.000003 -0.174546
 21   3.942357 1.330634 1.627658 0.000002 -0.000011 -0.000026
 22   -0.246060 -0.011889 0.516521 -0.000011 0.000031 0.000025
 23   3.942374 1.330659 -1.631083 0.000019 0.000002 -0.000024
 24   -0.246150 -0.011872 -0.516511 -0.000005 -0.000006 0.000048
 25   4.941364 1.997338 1.629330 0.000018 0.261736 -0.000024
 26   4.941382 1.997366 -1.629410 -0.000001 -0.261744 -0.000024
 27   2.918368 1.615358 1.514501 -0.000019 -0.000022 -0.000050
 28   2.920798 1.614964 -1.501142 -0.000002 -0.000009 -0.000024
 29   8.824059 0.150544 0.091743 0.000006 -0.000231 -0.174534
 30   2.111085 -0.561179 1.784320 -0.000008 -0.000682 0.000024
 31   2.121290 -0.561289 -1.853599 0.000000 0.000000 -0.000002
 32   -0.810489 -0.093824 3.127092 3.071872 -0.114782 1.239365
 33   14.298673 -0.408176 0.475484 0.000248 0.000062 -1.896136
 34   15.835795 0.581398 0.242756 -0.214729 0.106889 -0.097869
 35   -0.815868 -0.091229 -3.114430 0.066464 3.132725 -1.010185
 36   14.294526 -0.410349 -0.463635 0.000033 -0.000000 -2.607695
 37   15.834409 0.579420 -0.284600 -0.006092 -0.035255 0.214458
 38   1.139685 -3.453749 -2.823813 0.000000 0.000000 0.000001
 39   -4.457742 -1.054854 -0.746180 0.000000 0.000000 0.000000
 40   1.118101 -3.449769 3.237290 0.000000 0.000001 0.000000
 41   -4.433840 -1.059130 0.959566 -0.000001 0.000000 0.000000
 42   -0.657468 1.697302 -2.688614 0.000000 0.000002 0.000000
 43   -0.664068 1.698578 2.869377 0.000000 0.000002 0.000000
end
