version 1
nodes
  0 "Bip01" -1
  1 "Bip01 Pelvis" 0
  2 "Bip01 Spine" 1
  3 "Bip01 Spine1" 2
  4 "Bip01 Spine2" 3
  5 "Bip01 Spine3" 4
  6 "Bip01 Neck" 5
  7 "Bip01 L Arm" 6
  8 "Bip01 L Arm1" 7
  9 "Bip01 L Arm2" 8
 10 "Bip01 L Hand" 9
 11 "Bip06 L elbow2-smooth" 8
 12 "Bip01 R Arm" 6
 13 "Bip01 R Arm1" 12
 14 "Bip01 R Arm2" 13
 15 "Bip01 R Hand" 14
 16 "Bip06 R elbow2-smooth" 13
 17 "Bip01 Head" 6
 18 "Bip06 Head_helper" 17
 19 "Bip06 Head_eyes_l" 18
 20 "Bip06 Head_eyes_r" 18
 21 "Bip06 Head_blink_l" 18
 22 "Bip06 Head_blink_smooth_l1" 21
 23 "Bip06 Head_blink_r" 18
 24 "Bip06 Head_blink_smooth_r1" 23
 25 "Bip06 Head_L_eyebrow" 18
 26 "Bip06 Head_R_eyebrow" 18
 27 "Bip06 Head_blink_l_lid" 18
 28 "Bip06 Head_blink_r_lid" 18
 29 "Bip06 bunny" 18
 30 "Bip06 bunnyL" 29
 31 "Bip06 bunnyR" 29
 32 "Bip01 L Leg" 1
 33 "Bip01 L Leg1" 32
 34 "Bip01 L Foot" 33
 35 "Bip01 R Leg" 1
 36 "Bip01 R Leg1" 35
 37 "Bip01 R Foot" 36
 38 "Bip03 HairR1" 17
 39 "Bip03 HairR2" 38
 40 "Bip03 HairL1" 17
 41 "Bip03 HairL2" 40
 42 "Bip03 swingR" 17
 43 "Bip03 swingL" 17
end
skeleton
time 0
  0   0.243428 0.429701 6.285719 -2.159783 -1.587823 0.588782
  1   -1.093036 0.000002 -0.326057 -1.570809 -1.570379 -0.000026
  2   2.262337 0.113614 0.064702 -0.069344 -0.007166 -0.103504
  3   2.380047 0.353302 0.047440 0.000000 0.095873 -0.008632
  4   2.033756 0.190472 -0.000128 -0.078852 0.135078 0.050286
  5   2.451511 0.204909 -0.003447 0.000000 -0.000005 -0.017472
  6   7.247600 -0.397300 -0.109469 0.000001 0.000009 -0.505769
  7   -2.022252 -0.104661 3.136172 -0.299358 -1.361862 -2.344184
  8   1.168026 -0.537438 -0.063437 1.196678 1.054151 1.022795
  9   6.790376 -0.619176 0.015206 -0.000324 -0.000352 -0.286627
 10   8.637599 0.544015 -0.090417 -1.570112 0.000362 -0.069282
 11   6.790465 -0.619039 0.017802 -0.002473 -0.010969 -0.215848
 12   -2.022474 -0.104699 -2.873818 0.298298 1.361800 -2.344483
 13   1.167898 -0.537463 0.063297 1.057997 -0.980659 0.241443
 14   7.002743 -0.617765 -0.183752 0.000229 0.000250 -0.713508
 15   8.209042 0.615527 -0.255885 1.570090 -0.000063 -0.069646
 16   7.002735 -0.617911 -0.183641 0.014486 0.004041 -0.518140
 17   1.574674 0.609930 -0.000899 -0.276339 0.056146 0.427668
 18   -0.602177 0.511412 -0.000006 0.000000 0.000000 0.000000
 19   3.665960 0.313743 1.146658 -0.000002 -0.000014 -0.174510
 20   3.665954 0.313716 -1.090221 0.000007 -0.000003 -0.174546
 21   2.887637 1.322821 1.553437 0.000002 -0.000011 -0.000026
 22   -0.226528 -0.754099 0.477457 0.000194 -0.057459 0.890061
 23   2.907186 1.318940 -1.588113 0.000019 0.000002 -0.000024
 24   -0.078176 -0.558764 -0.547762 0.000187 -0.057484 0.890104
 25   3.956959 2.091091 1.523858 0.102271 -0.029427 -0.168396
 26   3.906194 2.137995 -1.516125 -0.141144 -0.028485 -0.183628
 27   3.289473 1.455197 1.514501 -0.000019 -0.000022 -0.000050
 28   3.291903 1.454803 -1.501142 -0.000002 -0.000009 -0.000024
 29   8.824059 0.150544 0.091743 0.208816 0.358854 -0.566380
 30   2.173587 -0.553366 1.647597 -0.002110 0.152116 0.010166
 31   2.215043 -0.561289 -1.752033 0.000383 -0.201410 0.011261
 32   -0.810489 -0.093824 3.127092 -0.775615 -3.158228 -0.009563
 33   14.298673 -0.408176 0.475484 -0.000100 -0.000042 -0.121826
 34   15.835795 0.581398 0.242756 -0.527209 0.078166 -0.119788
 35   -0.815868 -0.091229 -3.114430 0.598775 2.861495 -0.077788
 36   14.294526 -0.410349 -0.463635 0.000105 0.000060 -0.283729
 37   15.834409 0.579420 -0.284600 0.166481 0.177801 -0.464746
 38   1.827206 -2.113864 -2.425363 0.493727 -0.208137 -0.080155
 39   -4.473368 -0.793127 -0.683678 0.010510 0.023238 -0.092803
 40   0.430580 -4.789654 2.838840 0.479582 -0.214680 -0.070259
 41   -4.297117 -0.891156 1.018162 0.001138 0.002253 -0.009199
 42   -0.563715 1.021500 -2.446419 0.206962 0.060258 0.200909
 43   -0.722664 0.261034 2.533429 0.058835 -0.168791 0.200407
time 1
  0   0.243428 0.429701 6.285719 -2.159783 -1.587823 0.588782
  1   -1.093036 0.000002 -0.326057 -1.570809 -1.570379 -0.000026
  2   2.262337 0.113614 0.064702 -0.069344 -0.007166 -0.103504
  3   2.380047 0.353302 0.047440 0.000000 0.095873 -0.008632
  4   2.033756 0.190472 -0.000128 -0.078852 0.135078 0.050286
  5   2.451511 0.204909 -0.003447 0.000000 -0.000005 -0.017472
  6   7.247600 -0.397300 -0.109469 0.000001 0.000009 -0.505769
  7   -2.022252 -0.104661 3.136172 -0.299358 -1.361862 -2.344184
  8   1.168026 -0.537438 -0.063437 1.196678 1.054151 1.022795
  9   6.790376 -0.619176 0.015206 -0.000324 -0.000352 -0.286627
 10   8.637599 0.544015 -0.090417 -1.570112 0.000362 -0.069282
 11   6.790465 -0.619039 0.017802 -0.002473 -0.010969 -0.215848
 12   -2.022474 -0.104699 -2.873818 0.298298 1.361800 -2.344483
 13   1.167898 -0.537463 0.063297 1.057997 -0.980659 0.241443
 14   7.002743 -0.617765 -0.183752 0.000229 0.000250 -0.713508
 15   8.209042 0.615527 -0.255885 1.570090 -0.000063 -0.069646
 16   7.002735 -0.617911 -0.183641 0.014486 0.004041 -0.518140
 17   1.574674 0.609930 -0.000899 -0.276339 0.056146 0.427668
 18   -0.602177 0.511412 -0.000006 0.000000 0.000000 0.000000
 19   3.665960 0.313743 1.146658 -0.000002 -0.000014 -0.174510
 20   3.665954 0.313716 -1.090221 0.000007 -0.000003 -0.174546
 21   2.887637 1.322821 1.553437 0.000002 -0.000011 -0.000026
 22   -0.226528 -0.754099 0.477457 0.000194 -0.057459 0.890061
 23   2.907186 1.318940 -1.588113 0.000019 0.000002 -0.000024
 24   -0.078176 -0.558764 -0.547762 0.000187 -0.057484 0.890104
 25   3.956959 2.091091 1.523858 0.102271 -0.029427 -0.168396
 26   3.906194 2.137995 -1.516125 -0.141144 -0.028485 -0.183628
 27   3.289473 1.455197 1.514501 -0.000019 -0.000022 -0.000050
 28   3.291903 1.454803 -1.501142 -0.000002 -0.000009 -0.000024
 29   8.824059 0.150544 0.091743 0.208816 0.358854 -0.566380
 30   2.173587 -0.553366 1.647597 -0.002110 0.152116 0.010166
 31   2.215043 -0.561289 -1.752033 0.000383 -0.201410 0.011261
 32   -0.810489 -0.093824 3.127092 -0.775615 -3.158228 -0.009563
 33   14.298673 -0.408176 0.475484 -0.000100 -0.000042 -0.121826
 34   15.835795 0.581398 0.242756 -0.527209 0.078166 -0.119788
 35   -0.815868 -0.091229 -3.114430 0.598775 2.861495 -0.077788
 36   14.294526 -0.410349 -0.463635 0.000105 0.000060 -0.283729
 37   15.834409 0.579420 -0.284600 0.166481 0.177801 -0.464746
 38   1.827206 -2.113864 -2.425363 0.493727 -0.208137 -0.080155
 39   -4.473368 -0.793127 -0.683678 0.010510 0.023238 -0.092803
 40   0.430580 -4.789654 2.838840 0.479582 -0.214680 -0.070259
 41   -4.297117 -0.891156 1.018162 0.001138 0.002253 -0.009199
 42   -0.563715 1.021500 -2.446419 0.206962 0.060258 0.200909
 43   -0.722664 0.261034 2.533429 0.058835 -0.168791 0.200407
time 2
  0   0.243428 0.429701 6.285719 -2.159783 -1.587823 0.588782
  1   -1.093036 0.000002 -0.326057 -1.570809 -1.570379 -0.000026
  2   2.262337 0.113614 0.064702 -0.069344 -0.007166 -0.103504
  3   2.380047 0.353302 0.047440 0.000000 0.095873 -0.008632
  4   2.033756 0.190472 -0.000128 -0.078852 0.135078 0.050286
  5   2.451511 0.204909 -0.003447 0.000000 -0.000005 -0.017472
  6   7.247600 -0.397300 -0.109469 0.000001 0.000009 -0.505769
  7   -2.022252 -0.104661 3.136172 -0.299358 -1.361862 -2.344184
  8   1.168026 -0.537438 -0.063437 1.196678 1.054151 1.022795
  9   6.790376 -0.619176 0.015206 -0.000324 -0.000352 -0.286627
 10   8.637599 0.544015 -0.090417 -1.570112 0.000362 -0.069282
 11   6.790465 -0.619039 0.017802 -0.002473 -0.010969 -0.215848
 12   -2.022474 -0.104699 -2.873818 0.298298 1.361800 -2.344483
 13   1.167898 -0.537463 0.063297 1.057997 -0.980659 0.241443
 14   7.002743 -0.617765 -0.183752 0.000229 0.000250 -0.713508
 15   8.209042 0.615527 -0.255885 1.570090 -0.000063 -0.069646
 16   7.002735 -0.617911 -0.183641 0.014486 0.004041 -0.518140
 17   1.574674 0.609930 -0.000899 -0.276339 0.056146 0.427668
 18   -0.602177 0.511412 -0.000006 0.000000 0.000000 0.000000
 19   3.665960 0.313743 1.146658 -0.000002 -0.000014 -0.174510
 20   3.665954 0.313716 -1.090221 0.000007 -0.000003 -0.174546
 21   2.887637 1.322821 1.553437 0.000002 -0.000011 -0.000026
 22   -0.226528 -0.754099 0.477457 0.000194 -0.057459 0.890061
 23   2.907186 1.318940 -1.588113 0.000019 0.000002 -0.000024
 24   -0.078176 -0.558764 -0.547762 0.000187 -0.057484 0.890104
 25   3.956959 2.091091 1.523858 0.102271 -0.029427 -0.168396
 26   3.906194 2.137995 -1.516125 -0.141144 -0.028485 -0.183628
 27   3.289473 1.455197 1.514501 -0.000019 -0.000022 -0.000050
 28   3.291903 1.454803 -1.501142 -0.000002 -0.000009 -0.000024
 29   8.824059 0.150544 0.091743 0.208816 0.358854 -0.566380
 30   2.173587 -0.553366 1.647597 -0.002110 0.152116 0.010166
 31   2.215043 -0.561289 -1.752033 0.000383 -0.201410 0.011261
 32   -0.810489 -0.093824 3.127092 -0.775615 -3.158228 -0.009563
 33   14.298673 -0.408176 0.475484 -0.000100 -0.000042 -0.121826
 34   15.835795 0.581398 0.242756 -0.527209 0.078166 -0.119788
 35   -0.815868 -0.091229 -3.114430 0.598775 2.861495 -0.077788
 36   14.294526 -0.410349 -0.463635 0.000105 0.000060 -0.283729
 37   15.834409 0.579420 -0.284600 0.166481 0.177801 -0.464746
 38   1.827206 -2.113864 -2.425363 0.493727 -0.208137 -0.080155
 39   -4.473368 -0.793127 -0.683678 0.010510 0.023238 -0.092803
 40   0.430580 -4.789654 2.838840 0.479582 -0.214680 -0.070259
 41   -4.297117 -0.891156 1.018162 0.001138 0.002253 -0.009199
 42   -0.563715 1.021500 -2.446419 0.206962 0.060258 0.200909
 43   -0.722664 0.261034 2.533429 0.058835 -0.168791 0.200407
end
