version 1
nodes
  0 "Bip01" -1
  1 "Bip01 Pelvis" 0
  2 "Bip01 Spine" 1
  3 "Bip01 Spine1" 2
  4 "Bip01 Spine2" 3
  5 "Bip01 Spine3" 4
  6 "Bip01 Neck" 5
  7 "Bip01 L Arm" 6
  8 "Bip01 L Arm1" 7
  9 "Bip01 L Arm2" 8
 10 "Bip01 L Hand" 9
 11 "Bip06 L elbow2-smooth" 8
 12 "Bip01 R Arm" 6
 13 "Bip01 R Arm1" 12
 14 "Bip01 R Arm2" 13
 15 "Bip01 R Hand" 14
 16 "Bip06 R elbow2-smooth" 13
 17 "Bip01 Head" 6
 18 "Bip06 Head_helper" 17
 19 "Bip06 Head_eyes_l" 18
 20 "Bip06 Head_eyes_r" 18
 21 "Bip06 Head_blink_l" 18
 22 "Bip06 Head_blink_smooth_l1" 21
 23 "Bip06 Head_blink_r" 18
 24 "Bip06 Head_blink_smooth_r1" 23
 25 "Bip06 Head_L_eyebrow" 18
 26 "Bip06 Head_R_eyebrow" 18
 27 "Bip06 Head_blink_l_lid" 18
 28 "Bip06 Head_blink_r_lid" 18
 29 "Bip06 bunny" 18
 30 "Bip06 bunnyL" 29
 31 "Bip06 bunnyR" 29
 32 "Bip01 L Leg" 1
 33 "Bip01 L Leg1" 32
 34 "Bip01 L Foot" 33
 35 "Bip01 R Leg" 1
 36 "Bip01 R Leg1" 35
 37 "Bip01 R Foot" 36
 38 "Bip03 HairR1" 17
 39 "Bip03 HairR2" 38
 40 "Bip03 HairL1" 17
 41 "Bip03 HairL2" 40
 42 "Bip03 swingR" 17
 43 "Bip03 swingL" 17
end
skeleton
time 0
  0   0.243428 0.429701 1.851990 0.000000 0.000000 -1.571164
  1   -1.093036 0.000002 -0.326057 -1.570704 -1.570379 -0.000026
  2   2.262337 0.113614 0.056889 -0.069370 -0.007214 -0.103450
  3   2.380047 0.353302 0.047440 0.000000 -0.000040 -0.008632
  4   2.033756 0.190472 -0.000128 -0.078262 0.004794 0.060471
  5   2.451511 0.204909 -0.003447 0.000000 -0.000005 -0.017472
  6   7.247600 -0.397300 -0.109469 0.000001 0.000009 0.052298
  7   -2.022252 -0.104661 3.136172 -0.330033 -1.513028 -2.604794
  8   1.168026 -0.537438 -0.063437 -0.493100 -1.192634 0.595471
  9   6.790376 -0.619176 0.015206 -0.089813 -0.937384 0.171008
 10   8.637599 0.544015 -0.090417 -1.570112 0.000221 -0.069499
 11   6.790465 -0.619039 0.017802 -0.010473 -0.035301 -0.050494
 12   -2.022474 -0.104699 -2.873818 -0.137049 1.649253 -3.387870
 13   1.167898 -0.537463 0.063297 -0.406441 1.142098 -0.643031
 14   7.002743 -0.617765 -0.183752 0.071623 0.777121 0.078957
 15   8.209042 0.615527 -0.255885 1.682978 0.000013 -0.069646
 16   7.002735 -0.617911 -0.183641 0.048662 0.002180 -0.062027
 17   1.574674 0.609930 -0.000899 0.163577 -0.016701 0.095019
 18   -0.602177 0.511412 -0.000006 0.000000 0.000000 0.000000
 19   3.646428 0.364526 1.119313 -0.000002 -0.000913 -0.174510
 20   3.646422 0.364499 -1.117566 0.000007 -0.000231 -0.174534
 21   3.805634 1.330634 1.627658 0.000026 -0.000011 -0.000026
 22   -0.246060 -0.011889 0.516521 -0.000027 0.000031 0.000025
 23   3.805651 1.330659 -1.631083 0.000031 0.000002 -0.000024
 24   -0.246150 -0.011872 -0.516511 -0.000029 -0.000006 0.000048
 25   4.941364 1.997338 1.629330 0.000018 -0.000001 -0.000024
 26   4.941382 1.997366 -1.629410 0.000011 0.000005 -0.000024
 27   2.930087 1.603639 1.514501 -0.000019 -0.000022 -0.000050
 28   2.932517 1.603245 -1.501142 -0.000002 -0.000009 -0.000024
 29   8.824059 0.150544 0.091743 0.024425 -0.110138 0.465810
 30   2.111085 -0.561179 1.784320 -0.000008 -0.000682 0.000024
 31   2.121290 -0.561289 -1.853599 0.000000 0.000000 -0.000002
 32   -0.802676 -0.093824 3.127092 0.029059 -3.178857 -0.032332
 33   14.298673 -0.408176 0.518454 0.000463 0.000721 -0.246164
 34   15.835795 0.581398 0.242756 0.003145 0.028260 0.188710
 35   -0.831494 -0.091229 -3.114430 -0.027624 3.136941 0.081062
 36   14.294526 -0.410349 -0.455822 -0.009879 0.070278 -0.001093
 37   15.834409 0.579420 -0.284600 0.263160 -0.000317 0.141447
 38   1.139685 -3.453749 -2.823813 0.000000 0.000000 0.000001
 39   -4.457742 -1.054854 -0.746180 0.000000 0.000000 0.000000
 40   1.118101 -3.449769 3.237290 0.000000 0.000001 0.000000
 41   -4.433840 -1.059130 0.959566 -0.000001 0.000000 0.000000
 42   -0.583247 1.689489 -2.415168 0.068264 0.106347 -0.010288
 43   -0.664068 1.667327 2.627182 -0.080100 -0.120587 0.020785
time 1
  0   0.243428 0.429701 1.851990 0.000000 0.000000 -1.550644
  1   -1.093036 0.000002 -0.326057 -1.570704 -1.570379 -0.000026
  2   2.262337 0.113614 0.056889 -0.069370 -0.007214 -0.103450
  3   2.380047 0.353302 0.047440 0.000000 -0.000040 -0.008632
  4   2.033756 0.190472 -0.000128 -0.078262 0.004638 0.058695
  5   2.451511 0.204909 -0.003447 0.000000 -0.000005 -0.017472
  6   7.247600 -0.397300 -0.109469 0.000001 0.000009 0.052298
  7   -2.022252 -0.104661 3.136172 -0.330033 -1.513028 -2.604794
  8   1.168026 -0.537438 -0.063437 -0.493100 -1.192634 0.595471
  9   6.790376 -0.619176 0.015206 -0.090479 -0.938252 0.171612
 10   8.637599 0.544015 -0.090417 -1.570464 -0.001398 -0.069499
 11   6.790465 -0.619039 0.017802 -0.010473 -0.035301 -0.050494
 12   -2.022474 -0.104699 -2.873818 -0.137049 1.649253 -3.387870
 13   1.167898 -0.537463 0.063297 -0.404895 1.143471 -0.641457
 14   7.002743 -0.617765 -0.183752 0.071566 0.777803 0.078792
 15   8.209042 0.615527 -0.255885 1.682978 0.001375 -0.069947
 16   7.002735 -0.617911 -0.183641 0.048662 0.002180 -0.062027
 17   1.574674 0.609930 -0.000899 0.163577 -0.016701 0.096867
 18   -0.602177 0.511412 -0.000006 0.000000 0.000000 0.000000
 19   3.646428 0.364526 1.119313 -0.000002 -0.000913 -0.174510
 20   3.646422 0.364499 -1.117566 0.000007 -0.000231 -0.174534
 21   3.805634 1.330634 1.627658 0.000026 -0.000011 -0.000026
 22   -0.246060 -0.011889 0.516521 -0.000027 0.000031 0.000025
 23   3.805651 1.330659 -1.631083 0.000031 0.000002 -0.000024
 24   -0.246150 -0.011872 -0.516511 -0.000029 -0.000006 0.000048
 25   4.941364 1.997338 1.629330 0.000018 -0.000001 -0.000024
 26   4.941382 1.997366 -1.629410 0.000011 0.000005 -0.000024
 27   2.930087 1.603639 1.514501 -0.000019 -0.000022 -0.000050
 28   2.932517 1.603245 -1.501142 -0.000002 -0.000009 -0.000024
 29   8.824059 0.150544 0.091743 0.024425 -0.110138 0.465810
 30   2.111085 -0.561179 1.784320 -0.000008 -0.000682 0.000024
 31   2.121290 -0.561289 -1.853599 0.000000 0.000000 -0.000002
 32   -0.802676 -0.093824 3.127092 0.029059 -3.178857 -0.032332
 33   14.298673 -0.408176 0.518454 -0.000316 -0.002303 -0.298884
 34   15.835795 0.581398 0.242756 0.002202 0.027211 0.157089
 35   -0.831494 -0.091229 -3.114430 -0.027624 3.136941 0.081062
 36   14.294526 -0.410349 -0.455822 -0.009879 0.070278 -0.001093
 37   15.834409 0.579420 -0.284600 0.263160 -0.000317 0.141447
 38   1.147498 -3.449842 -2.823813 0.000000 -0.005037 0.008921
 39   -4.457742 -1.054854 -0.746180 0.000000 0.000000 0.000000
 40   1.098569 -3.449769 3.237290 0.000000 -0.005036 0.008920
 41   -4.433840 -1.059130 0.959566 -0.000001 0.000000 0.000000
 42   -0.583247 1.685583 -2.383917 0.071512 0.113400 -0.007904
 43   -0.664068 1.659514 2.642807 -0.073503 -0.107061 0.024340
time 2
  0   0.243428 0.429701 1.851990 0.000000 0.000000 -1.491175
  1   -1.093036 0.000002 -0.326057 -1.570652 -1.570379 -0.000123
  2   2.262337 0.113614 0.056889 -0.069370 -0.007214 -0.103450
  3   2.380047 0.353302 0.047440 0.000000 -0.000040 -0.008632
  4   2.033756 0.190472 -0.000128 -0.078299 0.004231 0.054817
  5   2.451511 0.204909 -0.003447 0.000000 -0.000005 -0.017472
  6   7.247600 -0.397300 -0.109469 0.000001 0.000009 0.052298
  7   -2.022252 -0.104661 3.136172 -0.330033 -1.513028 -2.604794
  8   1.168026 -0.537438 -0.063437 -0.493100 -1.192634 0.595471
  9   6.790376 -0.619176 0.015206 -0.092254 -0.941055 0.173348
 10   8.637599 0.544015 -0.090417 -1.571257 -0.005903 -0.069933
 11   6.790465 -0.619039 0.017802 -0.010473 -0.035301 -0.050494
 12   -2.022474 -0.104699 -2.873818 -0.137049 1.649253 -3.387870
 13   1.167898 -0.537463 0.063297 -0.400396 1.147234 -0.636735
 14   7.002743 -0.617765 -0.183752 0.071509 0.779506 0.078462
 15   8.209042 0.615527 -0.255885 1.683050 0.005309 -0.070608
 16   7.002735 -0.617911 -0.183641 0.048662 0.002180 -0.062027
 17   1.574674 0.609930 -0.000899 0.163577 -0.016701 0.100711
 18   -0.602177 0.511412 -0.000006 0.000000 0.000000 0.000000
 19   3.646428 0.364526 1.119313 -0.000002 -0.000913 -0.174510
 20   3.646422 0.364499 -1.117566 0.000007 -0.000231 -0.174534
 21   3.805634 1.330634 1.627658 0.000026 -0.000011 -0.000026
 22   -0.246060 -0.011889 0.516521 -0.000027 0.000031 0.000025
 23   3.805651 1.330659 -1.631083 0.000031 0.000002 -0.000024
 24   -0.246150 -0.011872 -0.516511 -0.000029 -0.000006 0.000048
 25   4.941364 1.997338 1.629330 0.000018 -0.000001 -0.000024
 26   4.941382 1.997366 -1.629410 0.000011 0.000005 -0.000024
 27   2.930087 1.603639 1.514501 -0.000019 -0.000022 -0.000050
 28   2.932517 1.603245 -1.501142 -0.000002 -0.000009 -0.000024
 29   8.824059 0.150544 0.091743 0.024425 -0.110138 0.465810
 30   2.111085 -0.561179 1.784320 -0.000008 -0.000682 0.000024
 31   2.121290 -0.561289 -1.853599 0.000000 0.000000 -0.000002
 32   -0.802676 -0.093824 3.127092 0.029059 -3.178857 -0.032332
 33   14.298673 -0.408176 0.518454 -0.002293 -0.008778 -0.424730
 34   15.835795 0.581398 0.242756 -0.000052 0.024575 0.081585
 35   -0.831494 -0.091229 -3.114430 -0.027624 3.136941 0.081062
 36   14.294526 -0.410349 -0.455822 -0.009879 0.070278 -0.001093
 37   15.834409 0.579420 -0.284600 0.263160 -0.000317 0.141447
 38   1.178749 -3.434217 -2.823813 0.000000 -0.019209 0.034031
 39   -4.457742 -1.054854 -0.746180 0.000000 0.000000 0.000000
 40   1.043880 -3.469301 3.237290 0.000000 -0.019208 0.034030
 41   -4.433840 -1.059130 0.959566 -0.000001 0.000000 0.000000
 42   -0.583247 1.666051 -2.309696 0.080453 0.132826 -0.001589
 43   -0.656255 1.647795 2.701403 -0.055449 -0.070029 0.033917
time 3
  0   0.243428 0.429701 1.851990 0.000000 0.000000 -1.395321
  1   -1.093036 0.000002 -0.326057 -1.570599 -1.570379 -0.000123
  2   2.262337 0.113614 0.056889 -0.069370 -0.007214 -0.103450
  3   2.380047 0.353302 0.047440 0.000000 -0.000040 -0.008632
  4   2.033756 0.190472 -0.000128 -0.078299 0.004111 0.051627
  5   2.451511 0.204909 -0.003447 0.000000 -0.000005 -0.017472
  6   7.247600 -0.397300 -0.109469 0.000001 0.000009 0.052298
  7   -2.022252 -0.104661 3.136172 -0.330033 -1.513028 -2.604794
  8   1.168026 -0.537438 -0.063437 -0.493100 -1.192634 0.595471
  9   6.790376 -0.619176 0.015206 -0.095139 -0.945259 0.175838
 10   8.637599 0.544015 -0.090417 -1.572578 -0.012942 -0.070367
 11   6.790465 -0.619039 0.017802 -0.010473 -0.035301 -0.050494
 12   -2.022474 -0.104699 -2.873818 -0.137049 1.649253 -3.387870
 13   1.167898 -0.537463 0.063297 -0.392874 1.152879 -0.628805
 14   7.002743 -0.617765 -0.183752 0.071338 0.782289 0.078132
 15   8.209042 0.615527 -0.255885 1.683122 0.011362 -0.071751
 16   7.002735 -0.617911 -0.183641 0.048662 0.002180 -0.062027
 17   1.574674 0.609930 -0.000899 0.163577 -0.016701 0.103926
 18   -0.602177 0.511412 -0.000006 0.000000 0.000000 0.000000
 19   3.646428 0.364526 1.119313 -0.000002 -0.000913 -0.174510
 20   3.646422 0.364499 -1.117566 0.000007 -0.000231 -0.174534
 21   3.805634 1.330634 1.627658 0.000026 -0.000011 -0.000026
 22   -0.246060 -0.011889 0.516521 -0.000027 0.000031 0.000025
 23   3.805651 1.330659 -1.631083 0.000031 0.000002 -0.000024
 24   -0.246150 -0.011872 -0.516511 -0.000029 -0.000006 0.000048
 25   4.941364 1.997338 1.629330 0.000018 -0.000001 -0.000024
 26   4.941382 1.997366 -1.629410 0.000011 0.000005 -0.000024
 27   2.930087 1.603639 1.514501 -0.000019 -0.000022 -0.000050
 28   2.932517 1.603245 -1.501142 -0.000002 -0.000009 -0.000024
 29   8.824059 0.150544 0.091743 0.024425 -0.110138 0.465810
 30   2.111085 -0.561179 1.784320 -0.000008 -0.000682 0.000024
 31   2.121290 -0.561289 -1.853599 0.000000 0.000000 -0.000002
 32   -0.802676 -0.093824 3.127092 0.029059 -3.178857 -0.032332
 33   14.298673 -0.408176 0.518454 -0.004989 -0.015228 -0.575110
 34   15.835795 0.581398 0.242756 -0.002651 0.021329 -0.008473
 35   -0.831494 -0.091229 -3.114430 -0.027624 3.136941 0.081062
 36   14.294526 -0.410349 -0.455822 -0.009879 0.070278 -0.001093
 37   15.834409 0.579420 -0.284600 0.263160 -0.000317 0.141447
 38   1.233438 -3.402966 -2.816000 -0.000042 -0.040924 0.072398
 39   -4.457742 -1.054854 -0.746180 0.000000 0.000000 0.000000
 40   0.961846 -3.488833 3.221664 -0.000042 -0.040923 0.072397
 41   -4.433840 -1.059130 0.959566 -0.000001 0.000000 0.000000
 42   -0.583247 1.646519 -2.192505 0.093815 0.162111 0.007611
 43   -0.656255 1.628263 2.783437 -0.028574 -0.014764 0.048094
time 4
  0   0.243428 0.429701 1.851990 0.000000 0.000000 -1.265932
  1   -1.093036 0.000002 -0.326057 -1.570599 -1.570379 -0.000123
  2   2.262337 0.113614 0.056889 -0.069370 -0.007214 -0.103450
  3   2.380047 0.353302 0.047440 0.000000 -0.000040 -0.008632
  4   2.033756 0.190472 -0.000128 -0.078336 0.003679 0.047966
  5   2.451511 0.204909 -0.003447 0.000000 -0.000005 -0.017472
  6   7.247600 -0.397300 -0.109469 0.000001 0.000009 0.052298
  7   -2.022252 -0.104661 3.136172 -0.330033 -1.513028 -2.604794
  8   1.168026 -0.537438 -0.063437 -0.493100 -1.192634 0.595471
  9   6.790376 -0.619176 0.015206 -0.098801 -0.950799 0.179234
 10   8.637599 0.544015 -0.090417 -1.574163 -0.021952 -0.071163
 11   6.790465 -0.619039 0.017802 -0.010473 -0.035301 -0.050494
 12   -2.022474 -0.104699 -2.873818 -0.137049 1.649253 -3.387870
 13   1.167898 -0.537463 0.063297 -0.382049 1.159744 -0.617485
 14   7.002743 -0.617765 -0.183752 0.071167 0.785753 0.077472
 15   8.209042 0.615527 -0.255885 1.683194 0.019079 -0.073134
 16   7.002735 -0.617911 -0.183641 0.048662 0.002180 -0.062027
 17   1.574674 0.609930 -0.000899 0.163577 -0.016701 0.107438
 18   -0.602177 0.511412 -0.000006 0.000000 0.000000 0.000000
 19   3.646428 0.364526 1.119313 -0.000002 -0.000913 -0.174510
 20   3.646422 0.364499 -1.117566 0.000007 -0.000231 -0.174534
 21   3.805634 1.330634 1.627658 0.000026 -0.000011 -0.000026
 22   -0.246060 -0.011889 0.516521 -0.000027 0.000031 0.000025
 23   3.805651 1.330659 -1.631083 0.000031 0.000002 -0.000024
 24   -0.246150 -0.011872 -0.516511 -0.000029 -0.000006 0.000048
 25   4.941364 1.997338 1.629330 0.000018 -0.000001 -0.000024
 26   4.941382 1.997366 -1.629410 0.000011 0.000005 -0.000024
 27   2.930087 1.603639 1.514501 -0.000019 -0.000022 -0.000050
 28   2.932517 1.603245 -1.501142 -0.000002 -0.000009 -0.000024
 29   8.824059 0.150544 0.091743 0.024425 -0.110138 0.465810
 30   2.111085 -0.561179 1.784320 -0.000008 -0.000682 0.000024
 31   2.121290 -0.561289 -1.853599 0.000000 0.000000 -0.000002
 32   -0.802676 -0.093824 3.127092 0.029059 -3.178857 -0.032332
 33   14.298673 -0.408176 0.518454 -0.007698 -0.019570 -0.701115
 34   15.835795 0.581398 0.242756 -0.004882 0.018425 -0.083888
 35   -0.831494 -0.091229 -3.114430 -0.027624 3.136941 0.081062
 36   14.294526 -0.410349 -0.455822 -0.009879 0.070278 -0.001093
 37   15.834409 0.579420 -0.284600 0.263160 -0.000317 0.141447
 38   1.303753 -3.367809 -2.804281 -0.000126 -0.068664 0.121457
 39   -4.457742 -1.054854 -0.746180 0.000000 0.000000 0.000000
 40   0.864187 -3.523990 3.217758 -0.000126 -0.068663 0.121456
 41   -4.433840 -1.059130 0.959566 -0.000001 0.000000 0.000000
 42   -0.575434 1.623081 -2.063595 0.110402 0.198663 0.018903
 43   -0.644536 1.604825 2.877190 0.004523 0.053400 0.065283
time 5
  0   0.243428 0.429701 1.851990 0.000000 0.000000 -1.105859
  1   -1.093036 0.000002 -0.326057 -1.570652 -1.570379 -0.000026
  2   2.262337 0.113614 0.056889 -0.069370 -0.007214 -0.103450
  3   2.380047 0.353302 0.047440 0.000000 -0.000040 -0.008632
  4   2.033756 0.190472 -0.000128 -0.078336 0.003464 0.044341
  5   2.451511 0.204909 -0.003447 0.000000 -0.000005 -0.017472
  6   7.247600 -0.397300 -0.109469 0.000001 0.000009 0.052298
  7   -2.022252 -0.104661 3.136172 -0.330033 -1.513028 -2.604794
  8   1.168026 -0.537438 -0.063437 -0.493100 -1.192634 0.595471
  9   6.790376 -0.619176 0.015206 -0.103073 -0.957206 0.183083
 10   8.637599 0.544015 -0.090417 -1.576189 -0.032581 -0.071959
 11   6.790465 -0.619039 0.017802 -0.010473 -0.035301 -0.050494
 12   -2.022474 -0.104699 -2.873818 -0.137049 1.649253 -3.387870
 13   1.167898 -0.537463 0.063297 -0.367990 1.167118 -0.602654
 14   7.002743 -0.617765 -0.183752 0.070996 0.789955 0.076812
 15   8.209042 0.615527 -0.255885 1.683194 0.028234 -0.074818
 16   7.002735 -0.617911 -0.183641 0.048662 0.002180 -0.062027
 17   1.574674 0.609930 -0.000899 0.163577 -0.016701 0.111171
 18   -0.602177 0.511412 -0.000006 0.000000 0.000000 0.000000
 19   3.646428 0.364526 1.119313 -0.000002 -0.000913 -0.174510
 20   3.646422 0.364499 -1.117566 0.000007 -0.000231 -0.174534
 21   3.805634 1.330634 1.627658 0.000026 -0.000011 -0.000026
 22   -0.246060 -0.011889 0.516521 -0.000027 0.000031 0.000025
 23   3.805651 1.330659 -1.631083 0.000031 0.000002 -0.000024
 24   -0.246150 -0.011872 -0.516511 -0.000029 -0.000006 0.000048
 25   4.941364 1.997338 1.629330 0.000018 -0.000001 -0.000024
 26   4.941382 1.997366 -1.629410 0.000011 0.000005 -0.000024
 27   2.930087 1.603639 1.514501 -0.000019 -0.000022 -0.000050
 28   2.932517 1.603245 -1.501142 -0.000002 -0.000009 -0.000024
 29   8.824059 0.150544 0.091743 0.024425 -0.110138 0.465810
 30   2.111085 -0.561179 1.784320 -0.000008 -0.000682 0.000024
 31   2.121290 -0.561289 -1.853599 0.000000 0.000000 -0.000002
 32   -0.802676 -0.093824 3.127092 0.029059 -3.178857 -0.032332
 33   14.298673 -0.408176 0.518454 -0.008956 -0.021095 -0.753994
 34   15.835795 0.581398 0.242756 -0.005825 0.017156 -0.115554
 35   -0.831494 -0.091229 -3.114430 -0.027624 3.136941 0.081062
 36   14.294526 -0.410349 -0.455822 -0.009879 0.070278 -0.001093
 37   15.834409 0.579420 -0.284600 0.263160 -0.000317 0.141447
 38   1.381880 -3.317026 -2.792562 -0.000295 -0.100899 0.178214
 39   -4.457742 -1.054854 -0.746180 0.000000 0.000000 0.000000
 40   0.758715 -3.566960 3.198226 -0.000295 -0.100911 0.178213
 41   -4.433840 -1.059130 0.959566 -0.000001 0.000000 0.000000
 42   -0.563715 1.591830 -1.911246 0.128954 0.239999 0.031240
 43   -0.636723 1.585293 2.986568 0.041268 0.129190 0.083977
time 6
  0   0.243428 0.429701 1.851990 0.000000 0.000000 -0.917856
  1   -1.093036 0.000002 -0.326057 -1.570704 -1.570379 -0.000026
  2   2.262337 0.113614 0.056889 -0.069370 -0.007214 -0.103450
  3   2.380047 0.353302 0.047440 0.000000 -0.000040 -0.008632
  4   2.033756 0.190472 -0.000128 -0.078336 0.003224 0.040572
  5   2.451511 0.204909 -0.003447 0.000000 -0.000005 -0.017472
  6   7.247600 -0.397300 -0.109469 0.000001 0.000009 0.052298
  7   -2.022252 -0.104661 3.136172 -0.330033 -1.513028 -2.604794
  8   1.168026 -0.537438 -0.063437 -0.493100 -1.192634 0.595471
  9   6.790376 -0.619176 0.015206 -0.107733 -0.964214 0.187460
 10   8.637599 0.544015 -0.090417 -1.578214 -0.044195 -0.072827
 11   6.790465 -0.619039 0.017802 -0.010473 -0.035301 -0.050494
 12   -2.022474 -0.104699 -2.873818 -0.137049 1.649253 -3.387870
 13   1.167898 -0.537463 0.063297 -0.350698 1.174441 -0.584615
 14   7.002743 -0.617765 -0.183752 0.070883 0.794441 0.076152
 15   8.209042 0.615527 -0.255885 1.683194 0.038221 -0.076682
 16   7.002735 -0.617911 -0.183641 0.048662 0.002180 -0.062027
 17   1.574674 0.609930 -0.000899 0.163577 -0.016701 0.115126
 18   -0.602177 0.511412 -0.000006 0.000000 0.000000 0.000000
 19   3.646428 0.364526 1.119313 -0.000002 -0.000913 -0.174510
 20   3.646422 0.364499 -1.117566 0.000007 -0.000231 -0.174534
 21   3.805634 1.330634 1.627658 0.000026 -0.000011 -0.000026
 22   -0.246060 -0.011889 0.516521 -0.000027 0.000031 0.000025
 23   3.805651 1.330659 -1.631083 0.000031 0.000002 -0.000024
 24   -0.246150 -0.011872 -0.516511 -0.000029 -0.000006 0.000048
 25   4.941364 1.997338 1.629330 0.000018 -0.000001 -0.000024
 26   4.941382 1.997366 -1.629410 0.000011 0.000005 -0.000024
 27   2.930087 1.603639 1.514501 -0.000019 -0.000022 -0.000050
 28   2.932517 1.603245 -1.501142 -0.000002 -0.000009 -0.000024
 29   8.824059 0.150544 0.091743 0.027812 -0.100382 0.464898
 30   2.118898 -0.568992 1.753069 0.014122 0.051975 -0.001520
 31   2.140822 -0.561289 -1.837973 -0.010312 -0.028751 0.006057
 32   -0.802676 -0.093824 3.127092 0.029059 -3.178857 -0.032332
 33   14.298673 -0.408176 0.518454 -0.008896 -0.021044 -0.751612
 34   15.835795 0.581398 0.242756 -0.005779 0.017205 -0.114098
 35   -0.831494 -0.091229 -3.114430 -0.027624 3.136941 0.081062
 36   14.294526 -0.410349 -0.455822 -0.009879 0.070278 -0.001093
 37   15.834409 0.579420 -0.284600 0.263160 -0.000317 0.141447
 38   1.475633 -3.274056 -2.784749 -0.000505 -0.136099 0.239980
 39   -4.457742 -1.054854 -0.746180 0.000000 0.000000 0.000000
 40   0.645430 -3.613837 3.186507 -0.000505 -0.136123 0.239979
 41   -4.433840 -1.059130 0.959566 -0.000001 0.000000 0.000000
 42   -0.551996 1.564485 -1.762804 0.148249 0.283527 0.043536
 43   -0.625004 1.561855 3.107666 0.079038 0.207286 0.102671
time 7
  0   0.243428 0.429701 1.851990 0.000000 0.000000 -0.704869
  1   -1.093036 0.000002 -0.326057 -1.570704 -1.570379 -0.000026
  2   2.262337 0.113614 0.056889 -0.069370 -0.007214 -0.103450
  3   2.380047 0.353302 0.047440 0.000000 -0.000040 -0.008632
  4   2.033756 0.190472 -0.000128 -0.078354 0.002793 0.036657
  5   2.451511 0.204909 -0.003447 0.000000 -0.000005 -0.017472
  6   7.247600 -0.397300 -0.109469 0.000001 0.000009 0.052298
  7   -2.022252 -0.104661 3.136172 -0.330033 -1.513028 -2.604794
  8   1.168026 -0.537438 -0.063437 -0.493100 -1.192634 0.595471
  9   6.790376 -0.619176 0.015206 -0.112837 -0.971688 0.192139
 10   8.637599 0.544015 -0.090417 -1.580504 -0.056725 -0.073695
 11   6.790465 -0.619039 0.017802 -0.010473 -0.035301 -0.050494
 12   -2.022474 -0.104699 -2.873818 -0.137049 1.649253 -3.387870
 13   1.167898 -0.537463 0.063297 -0.330734 1.181153 -0.563670
 14   7.002743 -0.617765 -0.183752 0.070655 0.799211 0.075409
 15   8.209042 0.615527 -0.255885 1.683194 0.048889 -0.078546
 16   7.002735 -0.617911 -0.183641 0.048662 0.002180 -0.062027
 17   1.574674 0.609930 -0.000899 0.163577 -0.016701 0.118933
 18   -0.602177 0.511412 -0.000006 0.000000 0.000000 0.000000
 19   3.646428 0.364526 1.119313 -0.000002 -0.000913 -0.174510
 20   3.646422 0.364499 -1.117566 0.000007 -0.000231 -0.174534
 21   3.805634 1.330634 1.627658 0.000026 -0.000011 -0.000026
 22   -0.246060 -0.011889 0.516521 -0.000027 0.000031 0.000025
 23   3.805651 1.330659 -1.631083 0.000031 0.000002 -0.000024
 24   -0.246150 -0.011872 -0.516511 -0.000029 -0.000006 0.000048
 25   4.941364 1.997338 1.629330 0.000018 -0.000001 -0.000024
 26   4.941382 1.997366 -1.629410 0.000011 0.000005 -0.000024
 27   2.930087 1.603639 1.514501 -0.000019 -0.000022 -0.000050
 28   2.932517 1.603245 -1.501142 -0.000002 -0.000009 -0.000024
 29   8.824059 0.150544 0.091743 0.035832 -0.077095 0.462752
 30   2.142336 -0.600243 1.659316 0.051250 0.183211 -0.005251
 31   2.195511 -0.569102 -1.791097 -0.038090 -0.104072 0.022324
 32   -0.802676 -0.093824 3.127092 0.029059 -3.178857 -0.032332
 33   14.298673 -0.408176 0.518454 -0.008741 -0.020850 -0.744784
 34   15.835795 0.581398 0.242756 -0.005664 0.017376 -0.110041
 35   -0.831494 -0.091229 -3.114430 -0.027624 3.136941 0.081062
 36   14.294526 -0.410349 -0.455822 -0.009879 0.070278 -0.001093
 37   15.834409 0.579420 -0.284600 0.263160 -0.000317 0.141447
 38   1.573292 -3.223273 -2.765217 -0.000842 -0.172745 0.304068
 39   -4.457742 -1.054854 -0.746180 0.000000 0.000000 0.000000
 40   0.547771 -3.660713 3.174788 -0.000842 -0.172732 0.304067
 41   -4.433840 -1.059130 0.959566 -0.000001 0.000000 0.000000
 42   -0.540277 1.541047 -1.626081 0.167041 0.326734 0.054827
 43   -0.605472 1.534510 3.217044 0.115233 0.282432 0.119859
time 8
  0   0.243428 0.429701 1.851990 0.000000 0.000000 -0.469271
  1   -1.093036 0.000002 -0.326057 -1.570704 -1.570379 -0.000026
  2   2.262337 0.113614 0.056889 -0.069370 -0.007214 -0.103450
  3   2.380047 0.353302 0.047440 0.000000 -0.000040 -0.008632
  4   2.033756 0.190472 -0.000128 -0.078354 0.002625 0.032742
  5   2.451511 0.204909 -0.003447 0.000000 -0.000005 -0.017472
  6   7.247600 -0.397300 -0.109469 0.000001 0.000009 0.052298
  7   -2.022252 -0.104661 3.136172 -0.330033 -1.513028 -2.604794
  8   1.168026 -0.537438 -0.063437 -0.493100 -1.192634 0.595471
  9   6.790376 -0.619176 0.015206 -0.117886 -0.979364 0.196818
 10   8.637599 0.544015 -0.090417 -1.582705 -0.069254 -0.074563
 11   6.790465 -0.619039 0.017802 -0.010473 -0.035301 -0.050494
 12   -2.022474 -0.104699 -2.873818 -0.137049 1.649253 -3.387870
 13   1.167898 -0.537463 0.063297 -0.308943 1.186849 -0.541030
 14   7.002743 -0.617765 -0.183752 0.070427 0.804208 0.074584
 15   8.209042 0.615527 -0.255885 1.683194 0.059784 -0.080591
 16   7.002735 -0.617911 -0.183641 0.048662 0.002180 -0.062027
 17   1.574674 0.609930 -0.000899 0.163577 -0.016701 0.122924
 18   -0.602177 0.511412 -0.000006 0.000000 0.000000 0.000000
 19   3.646428 0.364526 1.119313 -0.000002 -0.000913 -0.174510
 20   3.646422 0.364499 -1.117566 0.000007 -0.000231 -0.174534
 21   3.805634 1.330634 1.627658 0.000026 -0.000011 -0.000026
 22   -0.246060 -0.011889 0.516521 -0.000027 0.000031 0.000025
 23   3.805651 1.330659 -1.631083 0.000031 0.000002 -0.000024
 24   -0.246150 -0.011872 -0.516511 -0.000029 -0.000006 0.000048
 25   4.941364 1.997338 1.629330 0.000018 -0.000001 -0.000024
 26   4.941382 1.997366 -1.629410 0.000011 0.000005 -0.000024
 27   2.930087 1.603639 1.514501 -0.000019 -0.000022 -0.000050
 28   2.932517 1.603245 -1.501142 -0.000002 -0.000009 -0.000024
 29   8.824059 0.150544 0.091743 0.045368 -0.049297 0.460177
 30   2.185306 -0.635400 1.530406 0.103416 0.352864 -0.009647
 31   2.269732 -0.580821 -1.716876 -0.078632 -0.209465 0.045760
 32   -0.802676 -0.093824 3.127092 0.029059 -3.178857 -0.032332
 33   14.298673 -0.408176 0.518454 -0.008477 -0.020540 -0.733827
 34   15.835795 0.581398 0.242756 -0.005480 0.017644 -0.103470
 35   -0.831494 -0.091229 -3.114430 -0.027624 3.136941 0.081062
 36   14.294526 -0.410349 -0.455822 -0.009879 0.070278 -0.001093
 37   15.834409 0.579420 -0.284600 0.263160 -0.000317 0.141447
 38   1.667045 -3.172490 -2.749592 -0.001263 -0.209258 0.367668
 39   -4.457742 -1.054854 -0.746180 0.000000 0.000000 0.000000
 40   0.461831 -3.711496 3.155256 -0.001242 -0.209270 0.367667
 41   -4.433840 -1.059130 0.959566 -0.000001 0.000000 0.000000
 42   -0.512932 1.517609 -1.516703 0.184107 0.367027 0.064112
 43   -0.589847 1.518885 3.314703 0.147193 0.349262 0.133995
time 9
  0   0.243428 0.429701 1.851990 0.000000 0.000000 -0.214294
  1   -1.093036 0.000002 -0.326057 -1.570599 -1.570379 -0.000123
  2   2.262337 0.113614 0.056889 -0.069370 -0.007214 -0.103450
  3   2.380047 0.353302 0.047440 0.000000 -0.000040 -0.008632
  4   2.033756 0.190472 -0.000128 -0.078354 0.002313 0.029045
  5   2.451511 0.204909 -0.003447 0.000000 -0.000005 -0.017472
  6   7.247600 -0.397300 -0.109469 0.000001 0.000009 0.052298
  7   -2.022252 -0.104661 3.136172 -0.330033 -1.513028 -2.604794
  8   1.168026 -0.537438 -0.063437 -0.493100 -1.192634 0.595471
  9   6.790376 -0.619176 0.015206 -0.122990 -0.986772 0.201497
 10   8.637599 0.544015 -0.090417 -1.584819 -0.081784 -0.075576
 11   6.790465 -0.619039 0.017802 -0.010473 -0.035301 -0.050494
 12   -2.022474 -0.104699 -2.873818 -0.137049 1.649253 -3.387870
 13   1.167898 -0.537463 0.063297 -0.286449 1.191273 -0.517603
 14   7.002743 -0.617765 -0.183752 0.070256 0.808978 0.073759
 15   8.209042 0.615527 -0.255885 1.683122 0.070452 -0.082455
 16   7.002735 -0.617911 -0.183641 0.048662 0.002180 -0.062027
 17   1.574674 0.609930 -0.000899 0.163577 -0.016701 0.126399
 18   -0.602177 0.511412 -0.000006 0.000000 0.000000 0.000000
 19   3.646428 0.364526 1.119313 -0.000002 -0.000913 -0.174510
 20   3.646422 0.364499 -1.117566 0.000007 -0.000231 -0.174534
 21   3.805634 1.330634 1.627658 0.000026 -0.000011 -0.000026
 22   -0.246060 -0.011889 0.516521 -0.000027 0.000031 0.000025
 23   3.805651 1.330659 -1.631083 0.000031 0.000002 -0.000024
 24   -0.246150 -0.011872 -0.516511 -0.000029 -0.000006 0.000048
 25   4.941364 1.997338 1.629330 0.000018 -0.000001 -0.000024
 26   4.941382 1.997366 -1.629410 0.000011 0.000005 -0.000024
 27   2.930087 1.603639 1.514501 -0.000019 -0.000022 -0.000050
 28   2.932517 1.603245 -1.501142 -0.000002 -0.000009 -0.000024
 29   8.824059 0.150544 0.091743 0.053389 -0.026010 0.458031
 30   2.232183 -0.666651 1.393683 0.162701 0.520687 -0.013378
 31   2.340047 -0.592540 -1.634842 -0.127233 -0.328404 0.073344
 32   -0.802676 -0.093824 3.127092 0.029059 -3.178857 -0.032332
 33   14.298673 -0.408176 0.518454 -0.008117 -0.020113 -0.719059
 34   15.835795 0.581398 0.242756 -0.005204 0.017986 -0.094649
 35   -0.831494 -0.091229 -3.114430 -0.027624 3.136941 0.081062
 36   14.294526 -0.410349 -0.455822 -0.009879 0.070278 -0.001093
 37   15.834409 0.579420 -0.284600 0.263160 -0.000317 0.141447
 38   1.772517 -3.117801 -2.730060 -0.001768 -0.244157 0.427968
 39   -4.457742 -1.054854 -0.746180 0.000000 0.000000 0.000000
 40   0.411048 -3.773998 3.135724 -0.001768 -0.244144 0.427906
 41   -4.433840 -1.059130 0.959566 -0.000001 0.000000 0.000000
 42   -0.489494 1.505890 -1.442482 0.198201 0.401908 0.070427
 43   -0.558596 1.507166 3.400643 0.172381 0.402518 0.143614
time 10
  0   0.243428 0.429701 1.851990 0.000000 0.000000 0.057453
  1   -1.093036 0.000002 -0.326057 -1.570599 -1.570379 -0.000123
  2   2.262337 0.113614 0.056889 -0.069370 -0.007214 -0.103450
  3   2.380047 0.353302 0.047440 0.000000 -0.000040 -0.008632
  4   2.033756 0.190472 -0.000128 -0.078354 0.001942 0.025638
  5   2.451511 0.204909 -0.003447 0.000000 -0.000005 -0.017472
  6   7.247600 -0.397300 -0.109469 0.000001 0.000009 0.052298
  7   -2.022252 -0.104661 3.136172 -0.330033 -1.513028 -2.604794
  8   1.168026 -0.537438 -0.063437 -0.493100 -1.192634 0.595471
  9   6.790376 -0.619176 0.015206 -0.127761 -0.993913 0.205874
 10   8.637599 0.544015 -0.090417 -1.586844 -0.093398 -0.076372
 11   6.790465 -0.619039 0.017802 -0.010473 -0.035301 -0.050494
 12   -2.022474 -0.104699 -2.873818 -0.137049 1.649253 -3.387870
 13   1.167898 -0.537463 0.063297 -0.264517 1.194426 -0.494902
 14   7.002743 -0.617765 -0.183752 0.070143 0.813520 0.073099
 15   8.209042 0.615527 -0.255885 1.682978 0.080514 -0.084259
 16   7.002735 -0.617911 -0.183641 0.048662 0.002180 -0.062027
 17   1.574674 0.609930 -0.000899 0.163577 -0.016701 0.129836
 18   -0.602177 0.511412 -0.000006 0.000000 0.000000 0.000000
 19   3.646428 0.364526 1.119313 -0.000002 -0.000913 -0.174510
 20   3.646422 0.364499 -1.117566 0.000007 -0.000231 -0.174534
 21   3.805634 1.330634 1.627658 0.000026 -0.000011 -0.000026
 22   -0.246060 -0.011889 0.516521 -0.000027 0.000031 0.000025
 23   3.805651 1.330659 -1.631083 0.000031 0.000002 -0.000024
 24   -0.246150 -0.011872 -0.516511 -0.000029 -0.000006 0.000048
 25   4.941364 1.997338 1.629330 0.000018 -0.000001 -0.000024
 26   4.941382 1.997366 -1.629410 0.000011 0.000005 -0.000024
 27   2.930087 1.603639 1.514501 -0.000019 -0.000022 -0.000050
 28   2.932517 1.603245 -1.501142 -0.000002 -0.000009 -0.000024
 29   8.824059 0.150544 0.091743 0.056776 -0.016278 0.457119
 30   2.271246 -0.686183 1.268679 0.221159 0.646546 -0.014943
 31   2.394736 -0.612072 -1.541089 -0.179128 -0.444469 0.102020
 32   -0.802676 -0.093824 3.127092 0.029059 -3.178857 -0.032332
 33   14.298673 -0.408176 0.518454 -0.007698 -0.019570 -0.701115
 34   15.835795 0.581398 0.242756 -0.004882 0.018425 -0.083888
 35   -0.831494 -0.091229 -3.114430 -0.027624 3.136941 0.081062
 36   14.294526 -0.410349 -0.455822 -0.009879 0.070278 -0.001093
 37   15.834409 0.579420 -0.284600 0.263160 -0.000317 0.141447
 38   1.866270 -3.074831 -2.706622 -0.002463 -0.275874 0.482220
 39   -4.457742 -1.054854 -0.746180 0.000000 0.000000 0.000000
 40   0.387610 -3.828687 3.124005 -0.002463 -0.275861 0.482219
 41   -4.433840 -1.059130 0.959566 -0.000001 0.000000 0.000000
 42   -0.458243 1.498077 -1.411231 0.208100 0.428816 0.072769
 43   -0.531251 1.499353 3.451426 0.188136 0.436898 0.147168
time 11
  0   0.243428 0.429701 1.851990 0.000000 0.000000 0.343210
  1   -1.093036 0.000002 -0.326057 -1.570599 -1.570379 -0.000123
  2   2.262337 0.113614 0.056889 -0.069370 -0.007214 -0.103450
  3   2.380047 0.353302 0.047440 0.000000 -0.000040 -0.008632
  4   2.033756 0.190472 -0.000128 -0.078391 0.001834 0.022593
  5   2.451511 0.204909 -0.003447 0.000000 -0.000005 -0.017472
  6   7.247600 -0.397300 -0.109469 0.000001 0.000009 0.052298
  7   -2.022252 -0.104661 3.136172 -0.330033 -1.513028 -2.604794
  8   1.168026 -0.537438 -0.063437 -0.493100 -1.192634 0.595471
  9   6.790376 -0.619176 0.015206 -0.132033 -1.000253 0.209723
 10   8.637599 0.544015 -0.090417 -1.588782 -0.104027 -0.077095
 11   6.790465 -0.619039 0.017802 -0.010473 -0.035301 -0.050494
 12   -2.022474 -0.104699 -2.873818 -0.137049 1.649253 -3.387870
 13   1.167898 -0.537463 0.063297 -0.244484 1.196460 -0.474018
 14   7.002743 -0.617765 -0.183752 0.069972 0.817666 0.072439
 15   8.209042 0.615527 -0.255885 1.682762 0.089745 -0.085943
 16   7.002735 -0.617911 -0.183641 0.048662 0.002180 -0.062027
 17   1.574674 0.609930 -0.000899 0.163577 -0.016701 0.132423
 18   -0.602177 0.511412 -0.000006 0.000000 0.000000 0.000000
 19   3.646428 0.364526 1.119313 -0.000002 -0.000913 -0.174510
 20   3.646422 0.364499 -1.117566 0.000007 -0.000231 -0.174534
 21   3.805634 1.330634 1.627658 0.000026 -0.000011 -0.000026
 22   -0.246060 -0.011889 0.516521 -0.000027 0.000031 0.000025
 23   3.805651 1.330659 -1.631083 0.000031 0.000002 -0.000024
 24   -0.246150 -0.011872 -0.516511 -0.000029 -0.000006 0.000048
 25   4.941364 1.997338 1.629330 0.000018 -0.000001 -0.000024
 26   4.941382 1.997366 -1.629410 0.000011 0.000005 -0.000024
 27   2.930087 1.603639 1.514501 -0.000019 -0.000022 -0.000050
 28   2.932517 1.603245 -1.501142 -0.000002 -0.000009 -0.000024
 29   8.824059 0.150544 0.091743 0.056776 -0.016278 0.457119
 30   2.310310 -0.693996 1.163207 0.272281 0.729194 -0.009561
 31   2.437706 -0.623791 -1.455149 -0.230242 -0.544215 0.129350
 32   -0.802676 -0.093824 3.127092 0.029059 -3.178857 -0.032332
 33   14.298673 -0.408176 0.518454 -0.007231 -0.018911 -0.680154
 34   15.835795 0.581398 0.242756 -0.004514 0.018913 -0.071363
 35   -0.831494 -0.091229 -3.114430 -0.027624 3.136941 0.081062
 36   14.294526 -0.410349 -0.455822 -0.009879 0.070278 -0.001093
 37   15.834409 0.579420 -0.284600 0.263160 -0.000317 0.141447
 38   1.963929 -3.039674 -2.687090 -0.003810 -0.303180 0.528224
 39   -4.457742 -1.054854 -0.746180 0.000000 0.000000 0.000000
 40   0.387610 -3.883376 3.112286 -0.003810 -0.303180 0.528162
 41   -4.433840 -1.059130 0.959566 -0.000001 0.000000 0.000000
 42   -0.415273 1.505890 -1.411231 0.214776 0.448764 0.067583
 43   -0.496094 1.518885 3.474864 0.197344 0.457831 0.135877
time 12
  0   0.243428 0.429701 1.851990 0.000000 0.000000 0.640082
  1   -1.093036 0.000002 -0.326057 -1.570599 -1.570379 -0.000123
  2   2.262337 0.113614 0.056889 -0.069370 -0.007214 -0.103450
  3   2.380047 0.353302 0.047440 0.000000 -0.000040 -0.008632
  4   2.033756 0.190472 -0.000128 -0.078391 0.001630 0.020092
  5   2.451511 0.204909 -0.003447 0.000000 -0.000005 -0.017472
  6   7.247600 -0.397300 -0.109469 0.000001 0.000009 0.052298
  7   -2.022252 -0.104661 3.136172 -0.330033 -1.513028 -2.604794
  8   1.168026 -0.537438 -0.063437 -0.493100 -1.192634 0.595471
  9   6.790376 -0.619176 0.015206 -0.135806 -1.005793 0.213119
 10   8.637599 0.544015 -0.090417 -1.590279 -0.113178 -0.077746
 11   6.790465 -0.619039 0.017802 -0.010473 -0.035301 -0.050494
 12   -2.022474 -0.104699 -2.873818 -0.137049 1.649253 -3.387870
 13   1.167898 -0.537463 0.063297 -0.227402 1.197477 -0.456402
 14   7.002743 -0.617765 -0.183752 0.069858 0.821130 0.071944
 15   8.209042 0.615527 -0.255885 1.682618 0.097386 -0.087326
 16   7.002735 -0.617911 -0.183641 0.048662 0.002180 -0.062027
 17   1.574674 0.609930 -0.000899 0.163577 -0.016701 0.134900
 18   -0.602177 0.511412 -0.000006 0.000000 0.000000 0.000000
 19   3.646428 0.364526 1.119313 -0.000002 -0.000913 -0.174510
 20   3.646422 0.364499 -1.117566 0.000007 -0.000231 -0.174534
 21   3.805634 1.330634 1.627658 0.000026 -0.000011 -0.000026
 22   -0.246060 -0.011889 0.516521 -0.000027 0.000031 0.000025
 23   3.805651 1.330659 -1.631083 0.000031 0.000002 -0.000024
 24   -0.246150 -0.011872 -0.516511 -0.000029 -0.000006 0.000048
 25   4.941364 1.997338 1.629330 0.000018 -0.000001 -0.000024
 26   4.941382 1.997366 -1.629410 0.000011 0.000005 -0.000024
 27   2.930087 1.603639 1.514501 -0.000019 -0.000022 -0.000050
 28   2.932517 1.603245 -1.501142 -0.000002 -0.000009 -0.000024
 29   8.824059 0.150544 0.091743 0.056776 -0.016278 0.457119
 30   2.345467 -0.697902 1.085080 0.315267 0.795364 0.004999
 31   2.468957 -0.643323 -1.380928 -0.279226 -0.626219 0.154605
 32   -0.802676 -0.093824 3.127092 0.029059 -3.178857 -0.032332
 33   14.298673 -0.408176 0.518454 -0.006691 -0.018149 -0.656652
 34   15.835795 0.581398 0.242756 -0.004100 0.019450 -0.057294
 35   -0.831494 -0.091229 -3.114430 -0.027624 3.136941 0.081062
 36   14.294526 -0.410349 -0.455822 -0.009879 0.070278 -0.001093
 37   15.834409 0.579420 -0.284600 0.263160 -0.000317 0.141447
 38   2.049869 -3.000610 -2.667558 -0.006231 -0.326161 0.566164
 39   -4.457742 -1.054854 -0.746180 0.000000 0.000000 0.000000
 40   0.387610 -3.941972 3.092754 -0.006231 -0.326148 0.566163
 41   -4.433840 -1.059130 0.959566 -0.000001 0.000000 0.000000
 42   -0.364490 1.509796 -1.411231 0.220121 0.464709 0.053489
 43   -0.457030 1.573574 3.502209 0.204703 0.474605 0.105347
time 13
  0   0.243428 0.429701 1.851990 0.000000 0.000000 0.945218
  1   -1.093036 0.000002 -0.326057 -1.570704 -1.570379 -0.000026
  2   2.262337 0.113614 0.056889 -0.069370 -0.007214 -0.103450
  3   2.380047 0.353302 0.047440 0.000000 -0.000040 -0.008632
  4   2.033756 0.190472 -0.000128 -0.078391 0.001342 0.018497
  5   2.451511 0.204909 -0.003447 0.000000 -0.000005 -0.017472
  6   7.247600 -0.397300 -0.109469 0.000001 0.000009 0.052298
  7   -2.022252 -0.104661 3.136172 -0.330033 -1.513028 -2.604794
  8   1.168026 -0.537438 -0.063437 -0.493100 -1.192634 0.595471
  9   6.790376 -0.619176 0.015206 -0.138580 -1.009931 0.215836
 10   8.637599 0.544015 -0.090417 -1.591512 -0.120076 -0.078325
 11   6.790465 -0.619039 0.017802 -0.010473 -0.035301 -0.050494
 12   -2.022474 -0.104699 -2.873818 -0.137049 1.649253 -3.387870
 13   1.167898 -0.537463 0.063297 -0.214257 1.197833 -0.442903
 14   7.002743 -0.617765 -0.183752 0.069744 0.823912 0.071449
 15   8.209042 0.615527 -0.255885 1.682475 0.103515 -0.088469
 16   7.002735 -0.617911 -0.183641 0.048662 0.002180 -0.062027
 17   1.574674 0.609930 -0.000899 0.163577 -0.016701 0.136822
 18   -0.602177 0.511412 -0.000006 0.000000 0.000000 0.000000
 19   3.646428 0.364526 1.119313 -0.000002 -0.000913 -0.174510
 20   3.646422 0.364499 -1.117566 0.000007 -0.000231 -0.174534
 21   3.805634 1.330634 1.627658 0.000026 -0.000011 -0.000026
 22   -0.246060 -0.011889 0.516521 -0.000027 0.000031 0.000025
 23   3.805651 1.330659 -1.631083 0.000031 0.000002 -0.000024
 24   -0.246150 -0.011872 -0.516511 -0.000029 -0.000006 0.000048
 25   4.941364 1.997338 1.629330 0.000018 -0.000001 -0.000024
 26   4.941382 1.997366 -1.629410 0.000011 0.000005 -0.000024
 27   2.930087 1.603639 1.514501 -0.000019 -0.000022 -0.000050
 28   2.932517 1.603245 -1.501142 -0.000002 -0.000009 -0.000024
 29   8.824059 0.150544 0.091743 0.056776 -0.016278 0.457119
 30   2.372812 -0.705715 1.022578 0.350808 0.846916 0.026548
 31   2.488489 -0.655042 -1.306707 -0.325268 -0.692216 0.177604
 32   -0.802676 -0.093824 3.127092 0.029059 -3.178857 -0.032332
 33   14.298673 -0.408176 0.518454 -0.006140 -0.017283 -0.631086
 34   15.835795 0.581398 0.242756 -0.003640 0.020060 -0.042035
 35   -0.831494 -0.091229 -3.114430 -0.027624 3.136941 0.081062
 36   14.294526 -0.410349 -0.455822 -0.009879 0.070278 -0.001093
 37   15.834409 0.579420 -0.284600 0.263160 -0.000317 0.141447
 38   2.131903 -2.977172 -2.644120 -0.009430 -0.345104 0.596772
 39   -4.457742 -1.054854 -0.746180 0.000000 0.000000 0.000000
 40   0.387610 -3.988848 3.081035 -0.009430 -0.345092 0.596710
 41   -4.433840 -1.059130 0.959566 -0.000001 0.000000 0.000000
 42   -0.317614 1.521515 -1.411231 0.224280 0.477159 0.032746
 43   -0.414060 1.659514 3.517834 0.210438 0.487644 0.060306
time 14
  0   0.243428 0.429701 1.851990 0.000000 0.000000 1.256055
  1   -1.093036 0.000002 -0.326057 -1.570599 -1.570379 -0.000123
  2   2.262337 0.113614 0.056889 -0.069370 -0.007214 -0.103450
  3   2.380047 0.353302 0.047440 0.000000 -0.000040 -0.008632
  4   2.033756 0.190472 -0.000128 -0.078391 0.001270 0.017337
  5   2.451511 0.204909 -0.003447 0.000000 -0.000005 -0.017472
  6   7.247600 -0.397300 -0.109469 0.000001 0.000009 0.052298
  7   -2.022252 -0.104661 3.136172 -0.330033 -1.513028 -2.604794
  8   1.168026 -0.537438 -0.063437 -0.493100 -1.192634 0.595471
  9   6.790376 -0.619176 0.015206 -0.140466 -1.012734 0.217496
 10   8.637599 0.544015 -0.090417 -1.592128 -0.124722 -0.078542
 11   6.790465 -0.619039 0.017802 -0.010473 -0.035301 -0.050494
 12   -2.022474 -0.104699 -2.873818 -0.137049 1.649253 -3.387870
 13   1.167898 -0.537463 0.063297 -0.205892 1.197935 -0.434186
 14   7.002743 -0.617765 -0.183752 0.069630 0.825615 0.071284
 15   8.209042 0.615527 -0.255885 1.682475 0.107373 -0.089191
 16   7.002735 -0.617911 -0.183641 0.048662 0.002180 -0.062027
 17   1.574674 0.609930 -0.000899 0.163577 -0.016701 0.137894
 18   -0.602177 0.511412 -0.000006 0.000000 0.000000 0.000000
 19   3.646428 0.364526 1.119313 -0.000002 -0.000913 -0.174510
 20   3.646422 0.364499 -1.117566 0.000007 -0.000231 -0.174534
 21   3.805634 1.330634 1.627658 0.000026 -0.000011 -0.000026
 22   -0.246060 -0.011889 0.516521 -0.000027 0.000031 0.000025
 23   3.805651 1.330659 -1.631083 0.000031 0.000002 -0.000024
 24   -0.246150 -0.011872 -0.516511 -0.000029 -0.000006 0.000048
 25   4.941364 1.997338 1.629330 0.000018 -0.000001 -0.000024
 26   4.941382 1.997366 -1.629410 0.000011 0.000005 -0.000024
 27   2.930087 1.603639 1.514501 -0.000019 -0.000022 -0.000050
 28   2.932517 1.603245 -1.501142 -0.000002 -0.000009 -0.000024
 29   8.824059 0.150544 0.091743 0.056776 -0.016278 0.457119
 30   2.392344 -0.709621 0.971795 0.379488 0.885654 0.052687
 31   2.511927 -0.674574 -1.240299 -0.367633 -0.743915 0.198147
 32   -0.802676 -0.093824 3.127092 0.029059 -3.178857 -0.032332
 33   14.298673 -0.408176 0.518454 -0.005577 -0.016288 -0.603773
 34   15.835795 0.581398 0.242756 -0.003157 0.020670 -0.025629
 35   -0.831494 -0.091229 -3.114430 -0.027624 3.136941 0.081062
 36   14.294526 -0.410349 -0.455822 -0.009879 0.070278 -0.001093
 37   15.834409 0.579420 -0.284600 0.263160 -0.000317 0.141447
 38   2.202218 -2.949827 -2.624588 -0.013114 -0.360396 0.620782
 39   -4.457742 -1.054854 -0.746180 0.000000 0.000000 0.000000
 40   0.391516 -4.043537 3.069316 -0.013114 -0.360396 0.620781
 41   -4.433840 -1.059130 0.959566 -0.000001 0.000000 0.000000
 42   -0.266831 1.533234 -1.411231 0.227408 0.486481 0.007570
 43   -0.378903 1.749361 3.533460 0.214761 0.497452 0.005562
time 15
  0   0.243428 0.429701 1.851990 0.000000 0.000000 1.569646
  1   -1.093036 0.000002 -0.326057 -1.570599 -1.570379 -0.000123
  2   2.262337 0.113614 0.056889 -0.069370 -0.007214 -0.103450
  3   2.380047 0.353302 0.047440 0.000000 -0.000040 -0.008632
  4   2.033756 0.190472 -0.000128 -0.078391 0.001246 0.016866
  5   2.451511 0.204909 -0.003447 0.000000 -0.000005 -0.017472
  6   7.247600 -0.397300 -0.109469 0.000001 0.000009 0.052298
  7   -2.022252 -0.104661 3.136172 -0.330033 -1.513028 -2.604794
  8   1.168026 -0.537438 -0.063437 -0.493100 -1.192634 0.595471
  9   6.790376 -0.619176 0.015206 -0.141132 -1.013735 0.218100
 10   8.637599 0.544015 -0.090417 -1.592481 -0.126341 -0.078759
 11   6.790465 -0.619039 0.017802 -0.010473 -0.035301 -0.050494
 12   -2.022474 -0.104699 -2.873818 -0.137049 1.649253 -3.387870
 13   1.167898 -0.537463 0.063297 -0.202940 1.197884 -0.431159
 14   7.002743 -0.617765 -0.183752 0.069630 0.826297 0.071119
 15   8.209042 0.615527 -0.255885 1.682403 0.108735 -0.089371
 16   7.002735 -0.617911 -0.183641 0.048662 0.002180 -0.062027
 17   1.574674 0.609930 -0.000899 0.163577 -0.016701 0.138115
 18   -0.602177 0.511412 -0.000006 0.000000 0.000000 0.000000
 19   3.646428 0.364526 1.119313 -0.000002 -0.000913 -0.174510
 20   3.646422 0.364499 -1.117566 0.000007 -0.000231 -0.174534
 21   3.805634 1.330634 1.627658 0.000026 -0.000011 -0.000026
 22   -0.246060 -0.011889 0.516521 -0.000027 0.000031 0.000025
 23   3.805651 1.330659 -1.631083 0.000031 0.000002 -0.000024
 24   -0.246150 -0.011872 -0.516511 -0.000029 -0.000006 0.000048
 25   4.941364 1.997338 1.629330 0.000018 -0.000001 -0.000024
 26   4.941382 1.997366 -1.629410 0.000011 0.000005 -0.000024
 27   2.930087 1.603639 1.514501 -0.000019 -0.000022 -0.000050
 28   2.932517 1.603245 -1.501142 -0.000002 -0.000009 -0.000024
 29   8.824059 0.150544 0.091743 0.056776 -0.016278 0.457119
 30   2.407969 -0.709621 0.940544 0.401998 0.913377 0.081120
 31   2.523646 -0.686293 -1.181703 -0.405555 -0.782974 0.216051
 32   -0.802676 -0.093824 3.127092 0.029059 -3.178857 -0.032332
 33   14.298673 -0.408176 0.518454 -0.004989 -0.015228 -0.575110
 34   15.835795 0.581398 0.242756 -0.002651 0.021329 -0.008473
 35   -0.831494 -0.091229 -3.114430 -0.027624 3.136941 0.081062
 36   14.294526 -0.410349 -0.455822 -0.009879 0.070278 -0.001093
 37   15.834409 0.579420 -0.284600 0.263160 -0.000317 0.141447
 38   2.268626 -2.930295 -2.605056 -0.016987 -0.372387 0.639049
 39   -4.457742 -1.054854 -0.746180 0.000000 0.000000 0.000000
 40   0.399329 -4.090414 3.057597 -0.016987 -0.372387 0.639110
 41   -4.433840 -1.059130 0.959566 -0.000001 0.000000 0.000000
 42   -0.216048 1.552766 -1.419044 0.229637 0.493197 -0.019823
 43   -0.339839 1.854833 3.545179 0.217847 0.504481 -0.053824
time 16
  0   0.243428 0.429701 1.851990 0.000000 0.000000 1.883333
  1   -1.093036 0.000002 -0.326057 -1.570599 -1.570379 -0.000123
  2   2.262337 0.113614 0.056889 -0.069370 -0.007214 -0.103450
  3   2.380047 0.353302 0.047440 0.000000 -0.000040 -0.008632
  4   2.033756 0.190472 -0.000128 -0.078391 0.001294 0.017591
  5   2.451511 0.204909 -0.003447 0.000000 -0.000005 -0.017472
  6   7.247600 -0.397300 -0.109469 0.000001 0.000009 0.052298
  7   -2.022252 -0.104661 3.136172 -0.330033 -1.513028 -2.604794
  8   1.168026 -0.537438 -0.063437 -0.493100 -1.192634 0.595471
  9   6.790376 -0.619176 0.015206 -0.140466 -1.012734 0.217496
 10   8.637599 0.544015 -0.090417 -1.592128 -0.124722 -0.078542
 11   6.790465 -0.619039 0.017802 -0.010473 -0.035301 -0.050494
 12   -2.022474 -0.104699 -2.873818 -0.137049 1.649253 -3.387870
 13   1.167898 -0.537463 0.063297 -0.205892 1.197935 -0.434186
 14   7.002743 -0.617765 -0.183752 0.069630 0.825615 0.071284
 15   8.209042 0.615527 -0.255885 1.682475 0.107373 -0.089191
 16   7.002735 -0.617911 -0.183641 0.048662 0.002180 -0.062027
 17   1.574674 0.609930 -0.000899 0.163577 -0.016701 0.137561
 18   -0.602177 0.511412 -0.000006 0.000000 0.000000 0.000000
 19   3.646428 0.364526 1.119313 -0.000002 -0.000913 -0.174510
 20   3.646422 0.364499 -1.117566 0.000007 -0.000231 -0.174534
 21   3.805634 1.330634 1.627658 0.000026 -0.000011 -0.000026
 22   -0.246060 -0.011889 0.516521 -0.000027 0.000031 0.000025
 23   3.805651 1.330659 -1.631083 0.000031 0.000002 -0.000024
 24   -0.246150 -0.011872 -0.516511 -0.000029 -0.000006 0.000048
 25   4.941364 1.997338 1.629330 0.000018 -0.000001 -0.000024
 26   4.941382 1.997366 -1.629410 0.000011 0.000005 -0.000024
 27   2.930087 1.603639 1.514501 -0.000019 -0.000022 -0.000050
 28   2.932517 1.603245 -1.501142 -0.000002 -0.000009 -0.000024
 29   8.824059 0.150544 0.091743 0.056776 -0.016278 0.457119
 30   2.419688 -0.717434 0.917106 0.418948 0.932005 0.109552
 31   2.535365 -0.698012 -1.134827 -0.438267 -0.811181 0.231135
 32   -0.802676 -0.093824 3.127092 0.029059 -3.178857 -0.032332
 33   14.298673 -0.408176 0.518454 -0.004414 -0.014052 -0.545336
 34   15.835795 0.581398 0.242756 -0.002122 0.022037 0.009389
 35   -0.831494 -0.091229 -3.114430 -0.027624 3.136941 0.081062
 36   14.294526 -0.410349 -0.455822 -0.009879 0.070278 -0.001093
 37   15.834409 0.579420 -0.284600 0.263160 -0.000317 0.141447
 38   2.315502 -2.918576 -2.593337 -0.020775 -0.381413 0.652429
 39   -4.457742 -1.054854 -0.746180 0.000000 0.000000 0.000000
 40   0.403235 -4.129478 3.049784 -0.020775 -0.381400 0.652367
 41   -4.433840 -1.059130 0.959566 -0.000001 0.000000 0.000000
 42   -0.173078 1.572298 -1.419044 0.231147 0.497674 -0.047216
 43   -0.296869 1.964211 3.556898 0.219896 0.509205 -0.113335
time 17
  0   0.243428 0.429701 1.851990 0.000000 0.000000 2.194074
  1   -1.093036 0.000002 -0.326057 -1.570704 -1.570379 -0.000026
  2   2.262337 0.113614 0.056889 -0.069370 -0.007214 -0.103450
  3   2.380047 0.353302 0.047440 0.000000 -0.000040 -0.008632
  4   2.033756 0.190472 -0.000128 -0.078391 0.001510 0.018751
  5   2.451511 0.204909 -0.003447 0.000000 -0.000005 -0.017472
  6   7.247600 -0.397300 -0.109469 0.000001 0.000009 0.052298
  7   -2.022252 -0.104661 3.136172 -0.330033 -1.513028 -2.604794
  8   1.168026 -0.537438 -0.063437 -0.493100 -1.192634 0.595471
  9   6.790376 -0.619176 0.015206 -0.138580 -1.009931 0.215836
 10   8.637599 0.544015 -0.090417 -1.591512 -0.120076 -0.078325
 11   6.790465 -0.619039 0.017802 -0.010473 -0.035301 -0.050494
 12   -2.022474 -0.104699 -2.873818 -0.137049 1.649253 -3.387870
 13   1.167898 -0.537463 0.063297 -0.214257 1.197833 -0.442903
 14   7.002743 -0.617765 -0.183752 0.069744 0.823912 0.071449
 15   8.209042 0.615527 -0.255885 1.682475 0.103515 -0.088469
 16   7.002735 -0.617911 -0.183641 0.048662 0.002180 -0.062027
 17   1.574674 0.609930 -0.000899 0.163577 -0.016701 0.136415
 18   -0.602177 0.511412 -0.000006 0.000000 0.000000 0.000000
 19   3.646428 0.364526 1.119313 -0.000002 -0.000913 -0.174510
 20   3.646422 0.364499 -1.117566 0.000007 -0.000231 -0.174534
 21   3.805634 1.330634 1.627658 0.000026 -0.000011 -0.000026
 22   -0.246060 -0.011889 0.516521 -0.000027 0.000031 0.000025
 23   3.805651 1.330659 -1.631083 0.000031 0.000002 -0.000024
 24   -0.246150 -0.011872 -0.516511 -0.000029 -0.000006 0.000048
 25   4.941364 1.997338 1.629330 0.000018 -0.000001 -0.000024
 26   4.941382 1.997366 -1.629410 0.000011 0.000005 -0.000024
 27   2.930087 1.603639 1.514501 -0.000019 -0.000022 -0.000050
 28   2.932517 1.603245 -1.501142 -0.000002 -0.000009 -0.000024
 29   8.824059 0.150544 0.091743 0.056776 -0.016278 0.457119
 30   2.427501 -0.717434 0.905387 0.431003 0.943309 0.135691
 31   2.535365 -0.705825 -1.095763 -0.465034 -0.830167 0.243217
 32   -0.802676 -0.093824 3.127092 0.029059 -3.178857 -0.032332
 33   14.298673 -0.408176 0.518454 -0.003863 -0.012824 -0.515085
 34   15.835795 0.581398 0.242756 -0.001593 0.022696 0.027515
 35   -0.831494 -0.091229 -3.114430 -0.027624 3.136941 0.081062
 36   14.294526 -0.410349 -0.455822 -0.009879 0.070278 -0.001093
 37   15.834409 0.579420 -0.284600 0.263160 -0.000317 0.141447
 38   2.362379 -2.906857 -2.573805 -0.024270 -0.387811 0.661410
 39   -4.457742 -1.054854 -0.746180 0.000000 0.000000 0.000000
 40   0.418861 -4.156822 3.049784 -0.024270 -0.387811 0.661348
 41   -4.433840 -1.059130 0.959566 -0.000001 0.000000 0.000000
 42   -0.137921 1.591830 -1.419044 0.232058 0.500403 -0.072434
 43   -0.273431 2.065777 3.556898 0.221158 0.512060 -0.168037
time 18
  0   0.243428 0.429701 1.851990 0.000000 0.000000 2.499306
  1   -1.093036 0.000002 -0.326057 -1.570599 -1.570379 -0.000123
  2   2.262337 0.113614 0.056889 -0.069370 -0.007214 -0.103450
  3   2.380047 0.353302 0.047440 0.000000 -0.000040 -0.008632
  4   2.033756 0.190472 -0.000128 -0.078391 0.001678 0.020672
  5   2.451511 0.204909 -0.003447 0.000000 -0.000005 -0.017472
  6   7.247600 -0.397300 -0.109469 0.000001 0.000009 0.052298
  7   -2.022252 -0.104661 3.136172 -0.330033 -1.513028 -2.604794
  8   1.168026 -0.537438 -0.063437 -0.493100 -1.192634 0.595471
  9   6.790376 -0.619176 0.015206 -0.135806 -1.005793 0.213119
 10   8.637599 0.544015 -0.090417 -1.590279 -0.113178 -0.077746
 11   6.790465 -0.619039 0.017802 -0.010473 -0.035301 -0.050494
 12   -2.022474 -0.104699 -2.873818 -0.137049 1.649253 -3.387870
 13   1.167898 -0.537463 0.063297 -0.227402 1.197477 -0.456402
 14   7.002743 -0.617765 -0.183752 0.069858 0.821130 0.071944
 15   8.209042 0.615527 -0.255885 1.682618 0.097386 -0.087326
 16   7.002735 -0.617911 -0.183641 0.048662 0.002180 -0.062027
 17   1.574674 0.609930 -0.000899 0.163577 -0.016701 0.134419
 18   -0.602177 0.511412 -0.000006 0.000000 0.000000 0.000000
 19   3.646428 0.364526 1.119313 -0.000002 -0.000913 -0.174510
 20   3.654235 0.321529 -1.117566 0.000007 -0.000183 -0.174534
 21   3.805634 1.330634 1.627658 0.008259 0.087369 -0.003648
 22   -0.246060 -0.011889 0.516521 -0.000027 0.000031 0.000025
 23   3.575175 1.299408 -1.631083 0.000031 0.000002 -0.000024
 24   -0.207086 -0.148595 -0.524324 0.000019 -0.014903 0.230799
 25   4.847611 2.079372 1.598079 0.010744 0.114351 -0.004267
 26   4.734344 1.997366 -1.629410 0.018539 -0.105947 -0.010810
 27   2.930087 1.603639 1.514501 -0.000019 -0.000022 -0.000050
 28   3.026270 1.532930 -1.501142 -0.000002 -0.000009 -0.000024
 29   8.824059 0.150544 0.091743 0.056776 -0.016278 0.457119
 30   2.435314 -0.717434 0.897574 0.438814 0.949092 0.157198
 31   2.543178 -0.709731 -1.064512 -0.485106 -0.841589 0.252060
 32   -0.802676 -0.093824 3.127092 0.029059 -3.178857 -0.032332
 33   14.298673 -0.408176 0.518454 -0.003324 -0.011505 -0.484676
 34   15.835795 0.581398 0.242756 -0.001041 0.023355 0.045729
 35   -0.831494 -0.091229 -3.114430 -0.027624 3.136941 0.081062
 36   14.294526 -0.410349 -0.455822 -0.009879 0.070278 -0.001093
 37   15.834409 0.579420 -0.284600 0.263160 -0.000317 0.141447
 38   2.393630 -2.902951 -2.562086 -0.027069 -0.391969 0.666847
 39   -4.457742 -1.054854 -0.746180 0.000000 0.000000 0.000000
 40   0.430580 -4.180260 3.038065 -0.027069 -0.391969 0.666908
 41   -4.433840 -1.059130 0.959566 -0.000001 0.000000 0.000000
 42   -0.106670 1.607455 -1.422950 0.232513 0.501783 -0.093177
 43   -0.242180 2.143904 3.556898 0.221820 0.513520 -0.213079
time 19
  0   0.243428 0.429701 1.851990 0.000000 0.000000 2.796273
  1   -1.093036 0.000002 -0.326057 -1.570704 -1.570379 -0.000026
  2   2.262337 0.113614 0.056889 -0.069370 -0.007214 -0.103450
  3   2.380047 0.353302 0.047440 0.000000 -0.000040 -0.008632
  4   2.033756 0.190472 -0.000128 -0.078391 0.001882 0.023173
  5   2.451511 0.204909 -0.003447 0.000000 -0.000005 -0.017472
  6   7.247600 -0.397300 -0.109469 0.000001 0.000009 0.052298
  7   -2.022252 -0.104661 3.136172 -0.330033 -1.513028 -2.604794
  8   1.168026 -0.537438 -0.063437 -0.493100 -1.192634 0.595471
  9   6.790376 -0.619176 0.015206 -0.132033 -1.000253 0.209723
 10   8.637599 0.544015 -0.090417 -1.588782 -0.104027 -0.077095
 11   6.790465 -0.619039 0.017802 -0.010473 -0.035301 -0.050494
 12   -2.022474 -0.104699 -2.873818 -0.137049 1.649253 -3.387870
 13   1.167898 -0.537463 0.063297 -0.244484 1.196460 -0.474018
 14   7.002743 -0.617765 -0.183752 0.069972 0.817666 0.072439
 15   8.209042 0.615527 -0.255885 1.682762 0.089745 -0.085943
 16   7.002735 -0.617911 -0.183641 0.048662 0.002180 -0.062027
 17   1.574674 0.609930 -0.000899 0.163577 -0.016701 0.131980
 18   -0.602177 0.511412 -0.000006 0.000000 0.000000 0.000000
 19   3.646428 0.364526 1.119313 -0.000002 -0.000913 -0.174510
 20   3.665954 0.227776 -1.117566 0.000007 -0.000063 -0.174534
 21   3.805634 1.330634 1.627658 0.023612 0.249664 -0.010453
 22   -0.246060 -0.011889 0.516521 -0.000027 0.000031 0.000025
 23   3.145474 1.225187 -1.623270 0.000019 0.000002 -0.000024
 24   -0.121146 -0.422041 -0.543856 0.000127 -0.042575 0.659326
 25   4.671824 2.247346 1.527764 0.030699 0.326713 -0.012152
 26   4.331988 1.997366 -1.617691 0.052983 -0.302745 -0.030884
 27   2.930087 1.603639 1.514501 -0.000019 -0.000022 -0.000050
 28   3.205963 1.396207 -1.520674 -0.000002 -0.000009 -0.000024
 29   8.824059 0.150544 0.091743 0.056776 -0.016278 0.457119
 30   2.439220 -0.717434 0.897574 0.443031 0.951213 0.171800
 31   2.543178 -0.717544 -1.052793 -0.497685 -0.847236 0.257519
 32   -0.802676 -0.093824 3.127092 0.029059 -3.178857 -0.032332
 33   14.298673 -0.408176 0.518454 -0.002784 -0.010161 -0.454425
 34   15.835795 0.581398 0.242756 -0.000581 0.023965 0.063900
 35   -0.831494 -0.091229 -3.114430 -0.027624 3.136941 0.081062
 36   14.294526 -0.410349 -0.455822 -0.009879 0.070278 -0.001093
 37   15.834409 0.579420 -0.284600 0.263160 -0.000317 0.141447
 38   2.417068 -2.895138 -2.558180 -0.028985 -0.394186 0.669597
 39   -4.457742 -1.054854 -0.746180 0.000000 0.000000 0.000000
 40   0.446205 -4.199792 3.038065 -0.028985 -0.394186 0.669596
 41   -4.433840 -1.059130 0.959566 -0.000001 0.000000 0.000000
 42   -0.087138 1.623081 -1.422950 0.232693 0.502304 -0.107271
 43   -0.230461 2.202500 3.556898 0.222045 0.514085 -0.243608
time 20
  0   0.243428 0.429701 1.851990 0.000000 0.000000 3.081839
  1   -1.093036 0.000002 -0.326057 -1.570599 -1.570379 -0.000123
  2   2.262337 0.113614 0.056889 -0.069370 -0.007214 -0.103450
  3   2.380047 0.353302 0.047440 0.000000 -0.000040 -0.008632
  4   2.033756 0.190472 -0.000128 -0.078354 0.001990 0.026218
  5   2.451511 0.204909 -0.003447 0.000000 -0.000005 -0.017472
  6   7.247600 -0.397300 -0.109469 0.000001 0.000009 0.052298
  7   -2.022252 -0.104661 3.136172 -0.330033 -1.513028 -2.604794
  8   1.168026 -0.537438 -0.063437 -0.493100 -1.192634 0.595471
  9   6.790376 -0.619176 0.015206 -0.127761 -0.993913 0.205874
 10   8.637599 0.544015 -0.090417 -1.586844 -0.093398 -0.076372
 11   6.790465 -0.619039 0.017802 -0.010473 -0.035301 -0.050494
 12   -2.022474 -0.104699 -2.873818 -0.137049 1.649253 -3.387870
 13   1.167898 -0.537463 0.063297 -0.264517 1.194426 -0.494902
 14   7.002743 -0.617765 -0.183752 0.070143 0.813520 0.073099
 15   8.209042 0.615527 -0.255885 1.682978 0.080514 -0.084259
 16   7.002735 -0.617911 -0.183641 0.048662 0.002180 -0.062027
 17   1.574674 0.609930 -0.000899 0.163577 -0.016701 0.129393
 18   -0.602177 0.511412 -0.000006 0.000000 0.000000 0.000000
 19   3.646428 0.364526 1.119313 -0.000002 -0.000913 -0.174510
 20   3.673767 0.176993 -1.117566 0.000007 -0.000003 -0.174546
 21   3.805634 1.330634 1.627658 0.031857 0.337056 -0.014101
 22   -0.246060 -0.011889 0.516521 -0.000027 0.000031 0.000025
 23   2.918905 1.182217 -1.611551 0.000019 0.000002 -0.000024
 24   -0.078176 -0.558764 -0.547762 0.000187 -0.057484 0.890104
 25   4.574165 2.341099 1.492607 0.041449 0.441078 -0.016419
 26   4.117138 1.989553 -1.609878 0.071523 -0.408734 -0.041694
 27   2.930087 1.603639 1.514501 -0.000019 -0.000022 -0.000050
 28   3.303622 1.321986 -1.528487 -0.000002 -0.000009 -0.000024
 29   8.824059 0.150544 0.091743 0.056776 -0.016278 0.457119
 30   2.439220 -0.717434 0.889761 0.444319 0.951533 0.177182
 31   2.543178 -0.717544 -1.041074 -0.502067 -0.848738 0.259393
 32   -0.802676 -0.093824 3.127092 0.029059 -3.178857 -0.032332
 33   14.298673 -0.408176 0.518454 -0.002293 -0.008778 -0.424730
 34   15.835795 0.581398 0.242756 -0.000052 0.024575 0.081585
 35   -0.831494 -0.091229 -3.114430 -0.027624 3.136941 0.081062
 36   14.294526 -0.410349 -0.455822 -0.009879 0.070278 -0.001093
 37   15.834409 0.579420 -0.284600 0.263160 -0.000317 0.141447
 38   2.417068 -2.895138 -2.558180 -0.029658 -0.394873 0.670391
 39   -4.457742 -1.054854 -0.746180 0.000000 0.000000 0.000000
 40   0.473550 -4.203698 3.038065 -0.029658 -0.394873 0.670329
 41   -4.433840 -1.059130 0.959566 -0.000001 0.000000 0.000000
 42   -0.075419 1.638706 -1.430763 0.232717 0.502396 -0.112457
 43   -0.222648 2.222032 3.556898 0.222070 0.514163 -0.254858
time 21
  0   0.243428 0.429701 1.851990 0.000000 0.000000 -2.929744
  1   -1.093036 0.000002 -0.326057 -1.570599 -1.570379 -0.000123
  2   2.262337 0.113614 0.056889 -0.069370 -0.007214 -0.103450
  3   2.380047 0.353302 0.047440 0.000000 -0.000040 -0.008632
  4   2.033756 0.190472 -0.000128 -0.078354 0.002349 0.029589
  5   2.451511 0.204909 -0.003447 0.000000 -0.000005 -0.017472
  6   7.247600 -0.397300 -0.109469 0.000001 0.000009 0.052298
  7   -2.022252 -0.104661 3.136172 -0.330033 -1.513028 -2.604794
  8   1.168026 -0.537438 -0.063437 -0.493100 -1.192634 0.595471
  9   6.790376 -0.619176 0.015206 -0.122990 -0.986772 0.201497
 10   8.637599 0.544015 -0.090417 -1.584819 -0.081784 -0.075576
 11   6.790465 -0.619039 0.017802 -0.010473 -0.035301 -0.050494
 12   -2.022474 -0.104699 -2.873818 -0.137049 1.649253 -3.387870
 13   1.167898 -0.537463 0.063297 -0.286449 1.191273 -0.517603
 14   7.002743 -0.617765 -0.183752 0.070256 0.808978 0.073759
 15   8.209042 0.615527 -0.255885 1.683122 0.070452 -0.082455
 16   7.002735 -0.617911 -0.183641 0.048662 0.002180 -0.062027
 17   1.574674 0.609930 -0.000899 0.163577 -0.016701 0.126029
 18   -0.602177 0.511412 -0.000006 0.000000 0.000000 0.000000
 19   3.646428 0.364526 1.119313 -0.000002 -0.000913 -0.174510
 20   3.677673 0.176993 -1.117566 0.000007 -0.000003 -0.174546
 21   3.805634 1.330634 1.627658 0.031857 0.337056 -0.014101
 22   -0.246060 -0.011889 0.516521 -0.000027 0.000031 0.000025
 23   2.918905 1.182217 -1.611551 0.000019 0.000002 -0.000024
 24   -0.078176 -0.558764 -0.547762 0.000187 -0.057484 0.890104
 25   4.574165 2.341099 1.492607 0.041449 0.441078 -0.016419
 26   4.117138 1.989553 -1.609878 0.071523 -0.408734 -0.041694
 27   2.930087 1.603639 1.514501 -0.000019 -0.000022 -0.000050
 28   3.303622 1.321986 -1.528487 -0.000002 -0.000009 -0.000024
 29   8.824059 0.150544 0.091743 0.053389 -0.026010 0.458031
 30   2.404063 -0.697902 0.983514 0.398106 0.852496 0.158784
 31   2.500208 -0.698012 -1.127014 -0.449835 -0.760466 0.232409
 32   -0.802676 -0.093824 3.127092 0.029059 -3.178857 -0.032332
 33   14.298673 -0.408176 0.518454 -0.001826 -0.007396 -0.395988
 34   15.835795 0.581398 0.242756 0.000477 0.025210 0.098785
 35   -0.831494 -0.091229 -3.114430 -0.027624 3.136941 0.081062
 36   14.294526 -0.410349 -0.455822 -0.009879 0.070278 -0.001093
 37   15.834409 0.579420 -0.284600 0.263160 -0.000317 0.141447
 38   2.385817 -2.914670 -2.562086 -0.028816 -0.383811 0.651574
 39   -4.457742 -1.054854 -0.746180 0.000000 0.000000 0.000000
 40   0.508707 -4.180260 3.041971 -0.028816 -0.383811 0.651573
 41   -4.433840 -1.059130 0.959566 -0.000001 0.000000 0.000000
 42   -0.091044 1.654332 -1.462014 0.228115 0.491280 -0.109571
 43   -0.234367 2.206406 3.533460 0.213624 0.496385 -0.247163
time 22
  0   0.243428 0.429701 1.851990 0.000000 0.000000 -2.674767
  1   -1.093036 0.000002 -0.326057 -1.570704 -1.570379 -0.000026
  2   2.262337 0.113614 0.056889 -0.069370 -0.007214 -0.103450
  3   2.380047 0.353302 0.047440 0.000000 -0.000040 -0.008632
  4   2.033756 0.190472 -0.000128 -0.078354 0.002661 0.033141
  5   2.451511 0.204909 -0.003447 0.000000 -0.000005 -0.017472
  6   7.247600 -0.397300 -0.109469 0.000001 0.000009 0.052298
  7   -2.022252 -0.104661 3.136172 -0.330033 -1.513028 -2.604794
  8   1.168026 -0.537438 -0.063437 -0.493100 -1.192634 0.595471
  9   6.790376 -0.619176 0.015206 -0.117886 -0.979364 0.196818
 10   8.637599 0.544015 -0.090417 -1.582705 -0.069254 -0.074563
 11   6.790465 -0.619039 0.017802 -0.010473 -0.035301 -0.050494
 12   -2.022474 -0.104699 -2.873818 -0.137049 1.649253 -3.387870
 13   1.167898 -0.537463 0.063297 -0.308943 1.186849 -0.541030
 14   7.002743 -0.617765 -0.183752 0.070427 0.804208 0.074584
 15   8.209042 0.615527 -0.255885 1.683194 0.059784 -0.080591
 16   7.002735 -0.617911 -0.183641 0.048662 0.002180 -0.062027
 17   1.574674 0.609930 -0.000899 0.163577 -0.016701 0.122296
 18   -0.602177 0.511412 -0.000006 0.000000 0.000000 0.000000
 19   3.646428 0.364526 1.119313 -0.000002 -0.000913 -0.174510
 20   3.677673 0.176993 -1.117566 0.000007 -0.000003 -0.174546
 21   3.805634 1.330634 1.627658 0.031857 0.337056 -0.014101
 22   -0.246060 -0.011889 0.516521 -0.000027 0.000031 0.000025
 23   2.918905 1.182217 -1.611551 0.000019 0.000002 -0.000024
 24   -0.078176 -0.558764 -0.547762 0.000187 -0.057484 0.890104
 25   4.574165 2.341099 1.492607 0.041449 0.441078 -0.016419
 26   4.117138 1.989553 -1.609878 0.071523 -0.408734 -0.041694
 27   2.930087 1.603639 1.514501 -0.000019 -0.000022 -0.000050
 28   3.303622 1.321986 -1.528487 -0.000002 -0.000009 -0.000024
 29   8.824059 0.150544 0.091743 0.045368 -0.049297 0.460177
 30   2.322029 -0.662745 1.206177 0.287943 0.616324 0.114870
 31   2.394736 -0.662855 -1.330145 -0.325314 -0.549965 0.168070
 32   -0.802676 -0.093824 3.127092 0.029059 -3.178857 -0.032332
 33   14.298673 -0.408176 0.518454 -0.001382 -0.006026 -0.368675
 34   15.835795 0.581398 0.242756 0.000960 0.025771 0.115147
 35   -0.831494 -0.091229 -3.114430 -0.027624 3.136941 0.081062
 36   14.294526 -0.410349 -0.455822 -0.009879 0.070278 -0.001093
 37   15.834409 0.579420 -0.284600 0.263160 -0.000317 0.141447
 38   2.284251 -2.957640 -2.581618 -0.026585 -0.353805 0.600621
 39   -4.457742 -1.054854 -0.746180 0.000000 0.000000 0.000000
 40   0.571209 -4.121665 3.057597 -0.026585 -0.353805 0.600559
 41   -4.433840 -1.059130 0.959566 -0.000001 0.000000 0.000000
 42   -0.130108 1.666051 -1.536235 0.215615 0.461198 -0.101834
 43   -0.265618 2.163436 3.463145 0.190660 0.448118 -0.226210
time 23
  0   0.243428 0.429701 1.851990 0.000000 0.000000 -2.439264
  1   -1.093036 0.000002 -0.326057 -1.570704 -1.570379 -0.000026
  2   2.262337 0.113614 0.056889 -0.069370 -0.007214 -0.103450
  3   2.380047 0.353302 0.047440 0.000000 -0.000040 -0.008632
  4   2.033756 0.190472 -0.000128 -0.078354 0.002816 0.036947
  5   2.451511 0.204909 -0.003447 0.000000 -0.000005 -0.017472
  6   7.247600 -0.397300 -0.109469 0.000001 0.000009 0.052298
  7   -2.022252 -0.104661 3.136172 -0.330033 -1.513028 -2.604794
  8   1.168026 -0.537438 -0.063437 -0.493100 -1.192634 0.595471
  9   6.790376 -0.619176 0.015206 -0.112837 -0.971688 0.192139
 10   8.637599 0.544015 -0.090417 -1.580504 -0.056725 -0.073695
 11   6.790465 -0.619039 0.017802 -0.010473 -0.035301 -0.050494
 12   -2.022474 -0.104699 -2.873818 -0.137049 1.649253 -3.387870
 13   1.167898 -0.537463 0.063297 -0.330734 1.181153 -0.563670
 14   7.002743 -0.617765 -0.183752 0.070655 0.799211 0.075409
 15   8.209042 0.615527 -0.255885 1.683194 0.048889 -0.078546
 16   7.002735 -0.617911 -0.183641 0.048662 0.002180 -0.062027
 17   1.574674 0.609930 -0.000899 0.163577 -0.016701 0.118415
 18   -0.602177 0.511412 -0.000006 0.000000 0.000000 0.000000
 19   3.646428 0.364526 1.119313 -0.000002 -0.000913 -0.174510
 20   3.673767 0.176993 -1.117566 0.000007 -0.000003 -0.174546
 21   3.805634 1.330634 1.627658 0.031857 0.337056 -0.014101
 22   -0.246060 -0.011889 0.516521 -0.000027 0.000031 0.000025
 23   2.918905 1.182217 -1.611551 0.000019 0.000002 -0.000024
 24   -0.078176 -0.558764 -0.547762 0.000187 -0.057484 0.890104
 25   4.574165 2.341099 1.492607 0.041449 0.441078 -0.016419
 26   4.117138 1.989553 -1.609878 0.071523 -0.408734 -0.041694
 27   2.930087 1.603639 1.514501 -0.000019 -0.000022 -0.000050
 28   3.303622 1.321986 -1.528487 -0.000002 -0.000009 -0.000024
 29   8.824059 0.150544 0.091743 0.035832 -0.077095 0.462752
 30   2.224370 -0.611962 1.471810 0.156409 0.334469 0.062422
 31   2.269732 -0.612072 -1.568434 -0.176707 -0.298721 0.091303
 32   -0.802676 -0.093824 3.127092 0.029059 -3.178857 -0.032332
 33   14.298673 -0.408176 0.518454 -0.000999 -0.004694 -0.343109
 34   15.835795 0.581398 0.242756 0.001420 0.026308 0.130495
 35   -0.831494 -0.091229 -3.114430 -0.027624 3.136941 0.081062
 36   14.294526 -0.410349 -0.455822 -0.009879 0.070278 -0.001093
 37   15.834409 0.579420 -0.284600 0.263160 -0.000317 0.141447
 38   2.143622 -3.020142 -2.612869 -0.023238 -0.309567 0.525536
 39   -4.457742 -1.054854 -0.746180 0.000000 0.000000 0.000000
 40   0.645430 -4.043537 3.081035 -0.023238 -0.309579 0.525535
 41   -4.433840 -1.059130 0.959566 -0.000001 0.000000 0.000000
 42   -0.184797 1.669957 -1.645613 0.197182 0.416842 -0.090375
 43   -0.316401 2.100934 3.353767 0.156801 0.377036 -0.195305
time 24
  0   0.243428 0.429701 1.851990 0.000000 0.000000 -2.226277
  1   -1.093036 0.000002 -0.326057 -1.570704 -1.570379 -0.000026
  2   2.262337 0.113614 0.056889 -0.069370 -0.007214 -0.103450
  3   2.380047 0.353302 0.047440 0.000000 -0.000040 -0.008632
  4   2.033756 0.190472 -0.000128 -0.078336 0.003260 0.040970
  5   2.451511 0.204909 -0.003447 0.000000 -0.000005 -0.017472
  6   7.247600 -0.397300 -0.109469 0.000001 0.000009 0.052298
  7   -2.022252 -0.104661 3.136172 -0.330033 -1.513028 -2.604794
  8   1.168026 -0.537438 -0.063437 -0.493100 -1.192634 0.595471
  9   6.790376 -0.619176 0.015206 -0.107733 -0.964214 0.187460
 10   8.637599 0.544015 -0.090417 -1.578214 -0.044195 -0.072827
 11   6.790465 -0.619039 0.017802 -0.010473 -0.035301 -0.050494
 12   -2.022474 -0.104699 -2.873818 -0.137049 1.649253 -3.387870
 13   1.167898 -0.537463 0.063297 -0.350698 1.174441 -0.584615
 14   7.002743 -0.617765 -0.183752 0.070883 0.794441 0.076152
 15   8.209042 0.615527 -0.255885 1.683194 0.038221 -0.076682
 16   7.002735 -0.617911 -0.183641 0.048662 0.002180 -0.062027
 17   1.574674 0.609930 -0.000899 0.163577 -0.016701 0.114608
 18   -0.602177 0.511412 -0.000006 0.000000 0.000000 0.000000
 19   3.646428 0.364526 1.119313 -0.000002 -0.000913 -0.174510
 20   3.673767 0.176993 -1.117566 0.000007 -0.000003 -0.174546
 21   3.805634 1.330634 1.627658 0.031857 0.337056 -0.014101
 22   -0.246060 -0.011889 0.516521 -0.000027 0.000031 0.000025
 23   2.918905 1.182217 -1.611551 0.000019 0.000002 -0.000024
 24   -0.078176 -0.558764 -0.547762 0.000187 -0.057484 0.890104
 25   4.574165 2.341099 1.492607 0.041449 0.441078 -0.016419
 26   4.117138 1.989553 -1.609878 0.071523 -0.408734 -0.041694
 27   2.930087 1.603639 1.514501 -0.000019 -0.000022 -0.000050
 28   3.303622 1.321986 -1.528487 -0.000002 -0.000009 -0.000024
 29   8.824059 0.150544 0.091743 0.027812 -0.100382 0.464898
 30   2.142336 -0.572898 1.698380 0.046192 0.098326 0.018465
 31   2.160354 -0.573008 -1.771565 -0.052202 -0.088220 0.026964
 32   -0.802676 -0.093824 3.127092 0.029059 -3.178857 -0.032332
 33   14.298673 -0.408176 0.518454 -0.000627 -0.003441 -0.319766
 34   15.835795 0.581398 0.242756 0.001834 0.026796 0.144519
 35   -0.831494 -0.091229 -3.114430 -0.027624 3.136941 0.081062
 36   14.294526 -0.410349 -0.455822 -0.009879 0.070278 -0.001093
 37   15.834409 0.579420 -0.284600 0.263160 -0.000317 0.141447
 38   1.971742 -3.090456 -2.648026 -0.019239 -0.255870 0.434383
 39   -4.457742 -1.054854 -0.746180 0.000000 0.000000 0.000000
 40   0.739183 -3.934159 3.112286 -0.019218 -0.255857 0.434382
 41   -4.433840 -1.059130 0.959566 -0.000001 0.000000 0.000000
 42   -0.255112 1.677770 -1.782336 0.174819 0.362964 -0.076491
 43   -0.378903 2.022807 3.228763 0.115708 0.290701 -0.157833
time 25
  0   0.243428 0.429701 1.851990 0.000000 0.000000 -2.038274
  1   -1.093036 0.000002 -0.326057 -1.570652 -1.570379 -0.000026
  2   2.262337 0.113614 0.056889 -0.069370 -0.007214 -0.103450
  3   2.380047 0.353302 0.047440 0.000000 -0.000040 -0.008632
  4   2.033756 0.190472 -0.000128 -0.078336 0.003464 0.044885
  5   2.451511 0.204909 -0.003447 0.000000 -0.000005 -0.017472
  6   7.247600 -0.397300 -0.109469 0.000001 0.000009 0.052298
  7   -2.022252 -0.104661 3.136172 -0.330033 -1.513028 -2.604794
  8   1.168026 -0.537438 -0.063437 -0.493100 -1.192634 0.595471
  9   6.790376 -0.619176 0.015206 -0.103073 -0.957206 0.183083
 10   8.637599 0.544015 -0.090417 -1.576189 -0.032581 -0.071959
 11   6.790465 -0.619039 0.017802 -0.010473 -0.035301 -0.050494
 12   -2.022474 -0.104699 -2.873818 -0.137049 1.649253 -3.387870
 13   1.167898 -0.537463 0.063297 -0.367990 1.167118 -0.602654
 14   7.002743 -0.617765 -0.183752 0.070996 0.789955 0.076812
 15   8.209042 0.615527 -0.255885 1.683194 0.028234 -0.074818
 16   7.002735 -0.617911 -0.183641 0.048662 0.002180 -0.062027
 17   1.574674 0.609930 -0.000899 0.163577 -0.016701 0.110616
 18   -0.602177 0.511412 -0.000006 0.000000 0.000000 0.000000
 19   3.646428 0.364526 1.119313 -0.000002 -0.000913 -0.174510
 20   3.677673 0.176993 -1.117566 0.000007 -0.000003 -0.174546
 21   3.805634 1.330634 1.627658 0.031857 0.337056 -0.014101
 22   -0.246060 -0.011889 0.516521 -0.000027 0.000031 0.000025
 23   2.918905 1.182217 -1.611551 0.000019 0.000002 -0.000024
 24   -0.078176 -0.558764 -0.547762 0.000187 -0.057484 0.890104
 25   4.574165 2.341099 1.492607 0.041449 0.441078 -0.016419
 26   4.117138 1.989553 -1.609878 0.071523 -0.408734 -0.041694
 27   2.930087 1.603639 1.514501 -0.000019 -0.000022 -0.000050
 28   3.303622 1.321986 -1.528487 -0.000002 -0.000009 -0.000024
 29   8.824059 0.150544 0.091743 0.024425 -0.110138 0.465810
 30   2.111085 -0.561179 1.784320 -0.000008 -0.000682 0.000024
 31   2.121290 -0.561289 -1.853599 0.000000 0.000000 -0.000002
 32   -0.802676 -0.093824 3.127092 0.029059 -3.178857 -0.032332
 33   14.298673 -0.408176 0.518454 -0.000316 -0.002303 -0.298884
 34   15.835795 0.581398 0.242756 0.002202 0.027211 0.157089
 35   -0.831494 -0.091229 -3.114430 -0.027624 3.136941 0.081062
 36   14.294526 -0.410349 -0.455822 -0.009879 0.070278 -0.001093
 37   15.834409 0.579420 -0.284600 0.263160 -0.000317 0.141447
 38   1.780330 -3.180303 -2.690996 -0.014840 -0.197412 0.335104
 39   -4.457742 -1.054854 -0.746180 0.000000 0.000000 0.000000
 40   0.825123 -3.828687 3.135724 -0.014840 -0.197436 0.335103
 41   -4.433840 -1.059130 0.959566 -0.000001 0.000000 0.000000
 42   -0.329333 1.685583 -1.926872 0.150491 0.304364 -0.061352
 43   -0.445311 1.940773 3.092040 0.070979 0.196757 -0.117015
time 26
  0   0.243428 0.429701 1.851990 0.000000 0.000000 -1.878201
  1   -1.093036 0.000002 -0.326057 -1.570599 -1.570379 -0.000123
  2   2.262337 0.113614 0.056889 -0.069370 -0.007214 -0.103450
  3   2.380047 0.353302 0.047440 0.000000 -0.000040 -0.008632
  4   2.033756 0.190472 -0.000128 -0.078299 0.003859 0.048727
  5   2.451511 0.204909 -0.003447 0.000000 -0.000005 -0.017472
  6   7.247600 -0.397300 -0.109469 0.000001 0.000009 0.052298
  7   -2.022252 -0.104661 3.136172 -0.330033 -1.513028 -2.604794
  8   1.168026 -0.537438 -0.063437 -0.493100 -1.192634 0.595471
  9   6.790376 -0.619176 0.015206 -0.098801 -0.950799 0.179234
 10   8.637599 0.544015 -0.090417 -1.574163 -0.021952 -0.071163
 11   6.790465 -0.619039 0.017802 -0.010473 -0.035301 -0.050494
 12   -2.022474 -0.104699 -2.873818 -0.137049 1.649253 -3.387870
 13   1.167898 -0.537463 0.063297 -0.382049 1.159744 -0.617485
 14   7.002743 -0.617765 -0.183752 0.071167 0.785753 0.077472
 15   8.209042 0.615527 -0.255885 1.683194 0.019079 -0.073134
 16   7.002735 -0.617911 -0.183641 0.048662 0.002180 -0.062027
 17   1.574674 0.609930 -0.000899 0.163577 -0.016701 0.106772
 18   -0.602177 0.511412 -0.000006 0.000000 0.000000 0.000000
 19   3.646428 0.364526 1.119313 -0.000002 -0.000913 -0.174510
 20   3.677673 0.176993 -1.117566 0.000007 -0.000003 -0.174546
 21   3.805634 1.330634 1.627658 0.031857 0.337056 -0.014101
 22   -0.246060 -0.011889 0.516521 -0.000027 0.000031 0.000025
 23   2.918905 1.182217 -1.611551 0.000019 0.000002 -0.000024
 24   -0.078176 -0.558764 -0.547762 0.000187 -0.057484 0.890104
 25   4.574165 2.341099 1.492607 0.041449 0.441078 -0.016419
 26   4.117138 1.989553 -1.609878 0.071523 -0.408734 -0.041694
 27   2.930087 1.603639 1.514501 -0.000019 -0.000022 -0.000050
 28   3.303622 1.321986 -1.528487 -0.000002 -0.000009 -0.000024
 29   8.824059 0.150544 0.091743 0.024425 -0.110138 0.465810
 30   2.111085 -0.561179 1.784320 -0.000008 -0.000682 0.000024
 31   2.121290 -0.561289 -1.853599 0.000000 0.000000 -0.000002
 32   -0.802676 -0.093824 3.127092 0.029059 -3.178857 -0.032332
 33   14.298673 -0.408176 0.518454 -0.000052 -0.001295 -0.280861
 34   15.835795 0.581398 0.242756 0.002524 0.027577 0.167850
 35   -0.831494 -0.091229 -3.114430 -0.027624 3.136941 0.081062
 36   14.294526 -0.410349 -0.455822 -0.009879 0.070278 -0.001093
 37   15.834409 0.579420 -0.284600 0.263160 -0.000317 0.141447
 38   1.585011 -3.258430 -2.730060 -0.010419 -0.138979 0.235948
 39   -4.457742 -1.054854 -0.746180 0.000000 0.000000 0.000000
 40   0.918876 -3.711496 3.166975 -0.010419 -0.138991 0.235886
 41   -4.433840 -1.059130 0.959566 -0.000001 0.000000 0.000000
 42   -0.403554 1.685583 -2.067501 0.126162 0.245764 -0.046254
 43   -0.507813 1.854833 2.951411 0.026263 0.102828 -0.076198
time 27
  0   0.243428 0.429701 1.851990 0.000000 0.000000 -1.748812
  1   -1.093036 0.000002 -0.326057 -1.570599 -1.570379 -0.000123
  2   2.262337 0.113614 0.056889 -0.069370 -0.007214 -0.103450
  3   2.380047 0.353302 0.047440 0.000000 -0.000040 -0.008632
  4   2.033756 0.190472 -0.000128 -0.078299 0.004171 0.052352
  5   2.451511 0.204909 -0.003447 0.000000 -0.000005 -0.017472
  6   7.247600 -0.397300 -0.109469 0.000001 0.000009 0.052298
  7   -2.022252 -0.104661 3.136172 -0.330033 -1.513028 -2.604794
  8   1.168026 -0.537438 -0.063437 -0.493100 -1.192634 0.595471
  9   6.790376 -0.619176 0.015206 -0.095139 -0.945259 0.175838
 10   8.637599 0.544015 -0.090417 -1.572578 -0.012942 -0.070367
 11   6.790465 -0.619039 0.017802 -0.010473 -0.035301 -0.050494
 12   -2.022474 -0.104699 -2.873818 -0.137049 1.649253 -3.387870
 13   1.167898 -0.537463 0.063297 -0.392874 1.152879 -0.628805
 14   7.002743 -0.617765 -0.183752 0.071338 0.782289 0.078132
 15   8.209042 0.615527 -0.255885 1.683122 0.011362 -0.071751
 16   7.002735 -0.617911 -0.183641 0.048662 0.002180 -0.062027
 17   1.574674 0.609930 -0.000899 0.163577 -0.016701 0.103002
 18   -0.602177 0.511412 -0.000006 0.000000 0.000000 0.000000
 19   3.646428 0.364526 1.119313 -0.000002 -0.000913 -0.174510
 20   3.673767 0.176993 -1.117566 0.000007 -0.000003 -0.174546
 21   3.805634 1.330634 1.627658 0.031857 0.337056 -0.014101
 22   -0.246060 -0.011889 0.516521 -0.000027 0.000031 0.000025
 23   2.918905 1.182217 -1.611551 0.000019 0.000002 -0.000024
 24   -0.078176 -0.558764 -0.547762 0.000187 -0.057484 0.890104
 25   4.574165 2.341099 1.492607 0.041449 0.441078 -0.016419
 26   4.117138 1.989553 -1.609878 0.071523 -0.408734 -0.041694
 27   2.930087 1.603639 1.514501 -0.000019 -0.000022 -0.000050
 28   3.303622 1.321986 -1.528487 -0.000002 -0.000009 -0.000024
 29   8.824059 0.150544 0.091743 0.024425 -0.110138 0.465810
 30   2.111085 -0.561179 1.784320 -0.000008 -0.000682 0.000024
 31   2.121290 -0.561289 -1.853599 0.000000 0.000000 -0.000002
 32   -0.802676 -0.093824 3.127092 0.029059 -3.178857 -0.032332
 33   14.298673 -0.408176 0.518454 0.000176 -0.000455 -0.266331
 34   15.835795 0.581398 0.242756 0.002777 0.027870 0.176626
 35   -0.831494 -0.091229 -3.114430 -0.027624 3.136941 0.081062
 36   14.294526 -0.410349 -0.455822 -0.009879 0.070278 -0.001093
 37   15.834409 0.579420 -0.284600 0.263160 -0.000317 0.141447
 38   1.413131 -3.336558 -2.765217 -0.006399 -0.085282 0.144795
 39   -4.457742 -1.054854 -0.746180 0.000000 0.000000 0.000000
 40   1.000910 -3.606024 3.198226 -0.006399 -0.085269 0.144794
 41   -4.433840 -1.059130 0.959566 -0.000001 0.000000 0.000000
 42   -0.477775 1.689489 -2.204224 0.103799 0.191886 -0.032370
 43   -0.570315 1.780612 2.830313 -0.014818 0.016494 -0.038726
time 28
  0   0.243428 0.429701 1.851990 0.000000 0.000000 -1.652958
  1   -1.093036 0.000002 -0.326057 -1.570652 -1.570379 -0.000123
  2   2.262337 0.113614 0.056889 -0.069370 -0.007214 -0.103450
  3   2.380047 0.353302 0.047440 0.000000 -0.000040 -0.008632
  4   2.033756 0.190472 -0.000128 -0.078299 0.004315 0.056013
  5   2.451511 0.204909 -0.003447 0.000000 -0.000005 -0.017472
  6   7.247600 -0.397300 -0.109469 0.000001 0.000009 0.052298
  7   -2.022252 -0.104661 3.136172 -0.330033 -1.513028 -2.604794
  8   1.168026 -0.537438 -0.063437 -0.493100 -1.192634 0.595471
  9   6.790376 -0.619176 0.015206 -0.092254 -0.941055 0.173348
 10   8.637599 0.544015 -0.090417 -1.571257 -0.005903 -0.069933
 11   6.790465 -0.619039 0.017802 -0.010473 -0.035301 -0.050494
 12   -2.022474 -0.104699 -2.873818 -0.137049 1.649253 -3.387870
 13   1.167898 -0.537463 0.063297 -0.400396 1.147234 -0.636735
 14   7.002743 -0.617765 -0.183752 0.071509 0.779506 0.078462
 15   8.209042 0.615527 -0.255885 1.683050 0.005309 -0.070608
 16   7.002735 -0.617911 -0.183641 0.048662 0.002180 -0.062027
 17   1.574674 0.609930 -0.000899 0.163577 -0.016701 0.099602
 18   -0.602177 0.511412 -0.000006 0.000000 0.000000 0.000000
 19   3.646428 0.364526 1.119313 -0.000002 -0.000913 -0.174510
 20   3.665954 0.227776 -1.117566 0.000007 -0.000063 -0.174534
 21   3.805634 1.330634 1.627658 0.023612 0.249664 -0.010453
 22   -0.246060 -0.011889 0.516521 -0.000027 0.000031 0.000025
 23   3.145474 1.225187 -1.623270 0.000019 0.000002 -0.000024
 24   -0.121146 -0.422041 -0.543856 0.000127 -0.042575 0.659326
 25   4.671824 2.247346 1.527764 0.030699 0.326713 -0.012152
 26   4.331988 1.997366 -1.617691 0.052983 -0.302745 -0.030884
 27   2.930087 1.603639 1.514501 -0.000019 -0.000022 -0.000050
 28   3.205963 1.396207 -1.520674 -0.000002 -0.000009 -0.000024
 29   8.824059 0.150544 0.091743 0.024425 -0.110138 0.465810
 30   2.111085 -0.561179 1.784320 -0.000008 -0.000682 0.000024
 31   2.121290 -0.561289 -1.853599 0.000000 0.000000 -0.000002
 32   -0.802676 -0.093824 3.127092 0.029059 -3.178857 -0.032332
 33   14.298673 -0.408176 0.518454 0.000344 0.000178 -0.255374
 34   15.835795 0.581398 0.242756 0.002984 0.028065 0.183153
 35   -0.831494 -0.091229 -3.114430 -0.027624 3.136941 0.081062
 36   14.294526 -0.410349 -0.455822 -0.009879 0.070278 -0.001093
 37   15.834409 0.579420 -0.284600 0.263160 -0.000317 0.141447
 38   1.272502 -3.402966 -2.796468 -0.003052 -0.041044 0.069710
 39   -4.457742 -1.054854 -0.746180 0.000000 0.000000 0.000000
 40   1.059505 -3.523990 3.217758 -0.003052 -0.041043 0.069709
 41   -4.433840 -1.059130 0.959566 -0.000001 0.000000 0.000000
 42   -0.532464 1.689489 -2.309696 0.085366 0.147545 -0.020911
 43   -0.613285 1.718110 2.724841 -0.048677 -0.054573 -0.007821
time 29
  0   0.243428 0.429701 1.851990 0.000000 0.000000 -1.593489
  1   -1.093036 0.000002 -0.326057 -1.570704 -1.570379 -0.000026
  2   2.262337 0.113614 0.056889 -0.069370 -0.007214 -0.103450
  3   2.380047 0.353302 0.047440 0.000000 -0.000040 -0.008632
  4   2.033756 0.190472 -0.000128 -0.078262 0.004662 0.058985
  5   2.451511 0.204909 -0.003447 0.000000 -0.000005 -0.017472
  6   7.247600 -0.397300 -0.109469 0.000001 0.000009 0.052298
  7   -2.022252 -0.104661 3.136172 -0.330033 -1.513028 -2.604794
  8   1.168026 -0.537438 -0.063437 -0.493100 -1.192634 0.595471
  9   6.790376 -0.619176 0.015206 -0.090479 -0.938252 0.171612
 10   8.637599 0.544015 -0.090417 -1.570464 -0.001398 -0.069499
 11   6.790465 -0.619039 0.017802 -0.010473 -0.035301 -0.050494
 12   -2.022474 -0.104699 -2.873818 -0.137049 1.649253 -3.387870
 13   1.167898 -0.537463 0.063297 -0.404895 1.143471 -0.641457
 14   7.002743 -0.617765 -0.183752 0.071566 0.777803 0.078792
 15   8.209042 0.615527 -0.255885 1.682978 0.001375 -0.069947
 16   7.002735 -0.617911 -0.183641 0.048662 0.002180 -0.062027
 17   1.574674 0.609930 -0.000899 0.163577 -0.016701 0.096608
 18   -0.602177 0.511412 -0.000006 0.000000 0.000000 0.000000
 19   3.646428 0.364526 1.119313 -0.000002 -0.000913 -0.174510
 20   3.654235 0.321529 -1.117566 0.000007 -0.000183 -0.174534
 21   3.805634 1.330634 1.627658 0.008259 0.087369 -0.003648
 22   -0.246060 -0.011889 0.516521 -0.000027 0.000031 0.000025
 23   3.575175 1.299408 -1.631083 0.000031 0.000002 -0.000024
 24   -0.207086 -0.148595 -0.524324 0.000019 -0.014903 0.230799
 25   4.847611 2.079372 1.598079 0.010744 0.114351 -0.004267
 26   4.734344 1.997366 -1.629410 0.018539 -0.105947 -0.010810
 27   2.930087 1.603639 1.514501 -0.000019 -0.000022 -0.000050
 28   3.026270 1.532930 -1.501142 -0.000002 -0.000009 -0.000024
 29   8.824059 0.150544 0.091743 0.024425 -0.110138 0.465810
 30   2.111085 -0.561179 1.784320 -0.000008 -0.000682 0.000024
 31   2.121290 -0.561289 -1.853599 0.000000 0.000000 -0.000002
 32   -0.802676 -0.093824 3.127092 0.029059 -3.178857 -0.032332
 33   14.298673 -0.408176 0.518454 0.000440 0.000579 -0.248546
 34   15.835795 0.581398 0.242756 0.003099 0.028236 0.187299
 35   -0.831494 -0.091229 -3.114430 -0.027624 3.136941 0.081062
 36   14.294526 -0.410349 -0.455822 -0.009879 0.070278 -0.001093
 37   15.834409 0.579420 -0.284600 0.263160 -0.000317 0.141447
 38   1.170936 -3.438123 -2.823813 -0.000821 -0.011038 0.018696
 39   -4.457742 -1.054854 -0.746180 0.000000 0.000000 0.000000
 40   1.106382 -3.469301 3.237290 -0.000821 -0.011037 0.018695
 41   -4.433840 -1.059130 0.959566 -0.000001 0.000000 0.000000
 42   -0.571528 1.689489 -2.383917 0.072866 0.117448 -0.013132
 43   -0.652349 1.679046 2.650620 -0.071629 -0.102824 0.013048
time 30
  0   0.243428 0.429701 1.851990 0.000000 0.000000 -1.571164
  1   -1.093036 0.000002 -0.326057 -1.570704 -1.570379 -0.000026
  2   2.262337 0.113614 0.056889 -0.069370 -0.007214 -0.103450
  3   2.380047 0.353302 0.047440 0.000000 -0.000040 -0.008632
  4   2.033756 0.190472 -0.000128 -0.078262 0.004794 0.060471
  5   2.451511 0.204909 -0.003447 0.000000 -0.000005 -0.017472
  6   7.247600 -0.397300 -0.109469 0.000001 0.000009 0.052298
  7   -2.022252 -0.104661 3.136172 -0.330033 -1.513028 -2.604794
  8   1.168026 -0.537438 -0.063437 -0.493100 -1.192634 0.595471
  9   6.790376 -0.619176 0.015206 -0.089813 -0.937384 0.171008
 10   8.637599 0.544015 -0.090417 -1.570112 0.000221 -0.069499
 11   6.790465 -0.619039 0.017802 -0.010473 -0.035301 -0.050494
 12   -2.022474 -0.104699 -2.873818 -0.137049 1.649253 -3.387870
 13   1.167898 -0.537463 0.063297 -0.406441 1.142098 -0.643031
 14   7.002743 -0.617765 -0.183752 0.071623 0.777121 0.078957
 15   8.209042 0.615527 -0.255885 1.682978 0.000013 -0.069646
 16   7.002735 -0.617911 -0.183641 0.048662 0.002180 -0.062027
 17   1.574674 0.609930 -0.000899 0.163577 -0.016701 0.095019
 18   -0.602177 0.511412 -0.000006 0.000000 0.000000 0.000000
 19   3.646428 0.364526 1.119313 -0.000002 -0.000913 -0.174510
 20   3.646422 0.364499 -1.117566 0.000007 -0.000231 -0.174534
 21   3.805634 1.330634 1.627658 0.000026 -0.000011 -0.000026
 22   -0.246060 -0.011889 0.516521 -0.000027 0.000031 0.000025
 23   3.805651 1.330659 -1.631083 0.000031 0.000002 -0.000024
 24   -0.246150 -0.011872 -0.516511 -0.000029 -0.000006 0.000048
 25   4.941364 1.997338 1.629330 0.000018 -0.000001 -0.000024
 26   4.941382 1.997366 -1.629410 0.000011 0.000005 -0.000024
 27   2.930087 1.603639 1.514501 -0.000019 -0.000022 -0.000050
 28   2.932517 1.603245 -1.501142 -0.000002 -0.000009 -0.000024
 29   8.824059 0.150544 0.091743 0.024425 -0.110138 0.465810
 30   2.111085 -0.561179 1.784320 -0.000008 -0.000682 0.000024
 31   2.121290 -0.561289 -1.853599 0.000000 0.000000 -0.000002
 32   -0.802676 -0.093824 3.127092 0.029059 -3.178857 -0.032332
 33   14.298673 -0.408176 0.518454 0.000463 0.000721 -0.246164
 34   15.835795 0.581398 0.242756 0.003145 0.028260 0.188710
 35   -0.831494 -0.091229 -3.114430 -0.027624 3.136941 0.081062
 36   14.294526 -0.410349 -0.455822 -0.009879 0.070278 -0.001093
 37   15.834409 0.579420 -0.284600 0.263160 -0.000317 0.141447
 38   1.139685 -3.453749 -2.823813 0.000000 0.000000 0.000001
 39   -4.457742 -1.054854 -0.746180 0.000000 0.000000 0.000000
 40   1.118101 -3.449769 3.237290 0.000000 0.000001 0.000000
 41   -4.433840 -1.059130 0.959566 -0.000001 0.000000 0.000000
 42   -0.583247 1.689489 -2.415168 0.068264 0.106347 -0.010288
 43   -0.664068 1.667327 2.627182 -0.080100 -0.120587 0.020785
end
