version 1
nodes
  0 "Bip01" -1
  1 "Bip01 Pelvis" 0
  2 "Bip01 Spine" 1
  3 "Bip01 Spine1" 2
  4 "Bip01 Spine2" 3
  5 "Bip01 Spine3" 4
  6 "Bip01 Neck" 5
  7 "Bip01 L Arm" 6
  8 "Bip01 L Arm1" 7
  9 "Bip01 L Arm2" 8
 10 "Bip01 L Hand" 9
 11 "Bip06 L elbow2-smooth" 8
 12 "Bip01 R Arm" 6
 13 "Bip01 R Arm1" 12
 14 "Bip01 R Arm2" 13
 15 "Bip01 R Hand" 14
 16 "Bip06 R elbow2-smooth" 13
 17 "Bip01 Head" 6
 18 "Bip06 Head_helper" 17
 19 "Bip06 Head_eyes_l" 18
 20 "Bip06 Head_eyes_r" 18
 21 "Bip06 Head_blink_l" 18
 22 "Bip06 Head_blink_smooth_l1" 21
 23 "Bip06 Head_blink_r" 18
 24 "Bip06 Head_blink_smooth_r1" 23
 25 "Bip06 Head_L_eyebrow" 18
 26 "Bip06 Head_R_eyebrow" 18
 27 "Bip06 Head_blink_l_lid" 18
 28 "Bip06 Head_blink_r_lid" 18
 29 "Bip06 bunny" 18
 30 "Bip06 bunnyL" 29
 31 "Bip06 bunnyR" 29
 32 "Bip01 L Leg" 1
 33 "Bip01 L Leg1" 32
 34 "Bip01 L Foot" 33
 35 "Bip01 R Leg" 1
 36 "Bip01 R Leg1" 35
 37 "Bip01 R Foot" 36
 38 "Bip03 HairR1" 17
 39 "Bip03 HairR2" 38
 40 "Bip03 HairL1" 17
 41 "Bip03 HairL2" 40
 42 "Bip03 swingR" 17
 43 "Bip03 swingL" 17
end
skeleton
time 0
  0   0.243428 0.429701 1.851990 0.000000 0.000000 -1.571449
  1   -1.093036 0.000002 -0.326057 -1.570704 -1.570379 -0.000026
  2   2.262337 0.113614 0.064702 -0.069344 -0.007166 -0.103504
  3   2.380047 0.353302 0.047440 0.000000 -0.000040 -0.008632
  4   2.033756 0.190472 -0.000128 -0.078225 0.004794 0.060544
  5   2.451511 0.204909 -0.003447 0.000000 -0.000005 -0.017472
  6   7.247600 -0.397300 -0.109469 0.000001 0.000009 0.052298
  7   -2.022252 -0.104661 3.136172 -0.299166 -1.361862 -2.901749
  8   1.168026 -0.537438 -0.063437 0.555647 1.136113 0.768931
  9   6.790376 -0.619176 0.015206 -0.000324 -0.000352 -0.286627
 10   8.637599 0.544015 -0.090417 -1.570112 0.000362 -0.069282
 11   6.790465 -0.619039 0.017802 -0.002473 -0.010969 -0.215733
 12   -2.022474 -0.104699 -2.873818 0.298777 1.361800 -2.901984
 13   1.167898 -0.537463 0.063297 -0.658586 -1.227092 0.844551
 14   7.002743 -0.617765 -0.183752 0.000229 0.000250 -1.289478
 15   8.209042 0.615527 -0.255885 1.570090 -0.000063 -0.069646
 16   7.002735 -0.617911 -0.183641 0.013968 0.007086 -0.921268
 17   1.574674 0.609930 -0.000899 0.156956 -0.048982 0.292465
 18   -0.602177 0.511412 -0.000006 0.000000 0.000000 0.000000
 19   3.673773 0.177020 1.119313 -0.000002 -0.000014 -0.174510
 20   3.673767 0.176993 -1.117566 0.000007 -0.000003 -0.174546
 21   3.942357 1.330634 1.627658 0.000002 -0.000011 -0.000026
 22   -0.246060 -0.011889 0.516521 -0.000011 0.000031 0.000025
 23   3.938468 1.330659 -1.631083 0.000019 0.000002 -0.000024
 24   -0.246150 -0.011872 -0.516511 -0.000005 -0.000006 0.000048
 25   4.941364 1.997338 1.629330 0.000018 -0.000001 -0.000024
 26   4.941382 1.997366 -1.629410 -0.000001 0.000005 -0.000024
 27   2.918368 1.615358 1.514501 -0.000019 -0.000022 -0.000050
 28   2.920798 1.614964 -1.501142 -0.000002 -0.000009 -0.000024
 29   8.824059 0.150544 0.091743 0.000006 -0.000231 -0.174534
 30   2.111085 -0.561179 1.784320 -0.000008 -0.000682 0.000024
 31   2.121290 -0.561289 -1.853599 0.000000 0.000000 -0.000002
 32   -0.810489 -0.093824 3.127092 -0.055295 -3.106560 -0.210100
 33   14.298673 -0.408176 0.475484 -0.000100 -0.000042 -0.234016
 34   15.835795 0.581398 0.242756 -0.095464 -0.022451 0.023502
 35   -0.815868 -0.091229 -3.114430 0.257631 3.091220 0.081062
 36   14.294526 -0.410349 -0.463635 0.000105 0.000060 -0.126924
 37   15.834409 0.579420 -0.284600 -0.017637 0.068893 0.192859
 38   1.139685 -3.453749 -2.823813 0.000000 0.000000 0.000001
 39   -4.457742 -1.054854 -0.746180 0.000000 0.000000 0.000000
 40   1.118101 -3.449769 3.237290 0.000000 0.000001 0.000000
 41   -4.433840 -1.059130 0.959566 -0.000001 0.000000 0.000000
 42   -0.657468 1.697302 -2.688614 0.000000 0.000002 0.000000
 43   -0.664068 1.698578 2.869377 0.000000 0.000002 0.000000
time 1
  0   0.243428 1.523484 -1.581708 0.000000 -0.235151 -1.571449
  1   -1.093036 0.000002 -0.326057 -1.570704 -1.570379 -0.000123
  2   2.262337 0.113614 0.064702 -0.069344 -0.007166 -0.103504
  3   2.380047 0.353302 0.047440 0.000000 -0.000040 -0.217870
  4   2.033756 0.190472 -0.000128 -0.074352 -0.024640 -0.321572
  5   2.451511 0.204909 -0.003447 0.000000 -0.000005 0.139491
  6   7.247600 -0.397300 -0.109469 0.000001 0.000009 -0.881035
  7   -2.022252 -0.104661 3.136172 -0.299358 -1.361862 -1.969093
  8   1.168026 -0.537438 -0.063437 0.795670 0.612442 0.944858
  9   6.790376 -0.619176 0.015206 -0.000324 -0.000352 -0.539292
 10   8.637599 0.544015 -0.090417 -1.570112 0.000362 -0.069282
 11   6.790465 -0.619039 0.017802 -0.001568 -0.011196 -0.392621
 12   -2.022474 -0.104699 -2.873818 0.298394 1.361887 -1.969561
 13   1.167898 -0.537463 0.063297 -0.790318 -0.646758 0.919614
 14   7.002743 -0.617765 -0.183752 0.000229 0.000250 -1.289478
 15   8.209042 0.615527 -0.255885 1.570090 -0.000063 -0.069646
 16   7.002735 -0.617911 -0.183641 0.013968 0.007086 -0.921268
 17   1.574674 0.609930 -0.000899 0.140099 0.081469 0.738843
 18   -0.602177 0.511412 -0.000006 0.000000 0.000000 0.000000
 19   3.673773 0.177020 1.119313 -0.000002 -0.000014 -0.174510
 20   3.673767 0.176993 -1.117566 0.000007 -0.000003 -0.174546
 21   3.942357 1.330634 1.627658 0.000002 -0.000011 -0.000026
 22   -0.246060 -0.011889 0.516521 -0.000011 0.000031 0.000025
 23   3.938468 1.330659 -1.631083 0.000019 0.000002 -0.000024
 24   -0.246150 -0.011872 -0.516511 -0.000005 -0.000006 0.000048
 25   4.941364 1.997338 1.629330 0.000018 -0.000001 -0.000024
 26   4.941382 1.997366 -1.629410 -0.000001 0.000005 -0.000024
 27   2.918368 1.615358 1.514501 -0.000019 -0.000022 -0.000050
 28   2.920798 1.614964 -1.501142 -0.000002 -0.000009 -0.000024
 29   8.824059 0.150544 0.091743 0.011503 -0.000017 -0.814824
 30   2.111085 -0.561179 1.784320 -0.000008 -0.000014 0.000067
 31   2.121290 -0.561289 -1.853599 0.000000 -0.000907 0.000016
 32   -0.810489 -0.093824 3.127092 -0.042805 -3.081729 -0.292182
 33   14.298673 -0.408176 0.475484 -0.000100 -0.000042 -0.874997
 34   15.835795 0.581398 0.242756 -0.089897 -0.029894 0.345583
 35   -0.815868 -0.091229 -3.114430 0.227266 3.008493 0.006403
 36   14.294526 -0.410349 -0.463635 0.000105 0.000060 -0.832085
 37   15.834409 0.579420 -0.284600 -0.016376 0.074780 0.578700
 38   1.139685 -3.504532 -2.823813 -0.004694 0.020872 1.408473
 39   -4.465555 -1.074386 -0.746180 -0.004782 0.006172 0.465307
 40   1.118101 -3.398986 3.237290 -0.004736 0.020861 1.408534
 41   -4.426027 -1.031785 0.959566 -0.004819 0.006052 0.465700
 42   -0.161359 2.521546 -2.688614 0.008593 -0.002804 -0.489934
 43   -0.199210 2.491571 2.869377 0.007884 -0.003874 -0.489934
time 2
  0   0.243428 2.527421 -3.659897 0.000000 -0.319965 -1.571449
  1   -1.093036 0.000002 -0.326057 -1.570704 -1.570379 -0.000123
  2   2.262337 0.113614 0.064702 -0.069332 -0.007214 -0.104010
  3   2.380047 0.353302 0.047440 0.000000 -0.000040 -0.220523
  4   2.033756 0.190472 -0.000128 -0.077838 -0.009096 -0.119350
  5   2.451511 0.204909 -0.003447 0.000000 -0.000005 -0.019428
  6   7.247600 -0.397300 -0.109469 0.000001 0.000009 -0.881035
  7   -2.022252 -0.104661 3.136172 -0.299358 -1.361862 -1.969093
  8   1.168026 -0.537438 -0.063437 0.768839 0.646052 0.920756
  9   6.790376 -0.619176 0.015206 -0.000324 -0.000352 -0.539292
 10   8.637599 0.544015 -0.090417 -1.570112 0.000362 -0.069282
 11   6.790465 -0.619039 0.017802 -0.001568 -0.011196 -0.392621
 12   -2.022474 -0.104699 -2.873818 0.298394 1.361887 -1.969561
 13   1.167898 -0.537463 0.063297 -0.761356 -0.679609 0.893463
 14   7.002743 -0.617765 -0.183752 0.000229 0.000250 -1.289478
 15   8.209042 0.615527 -0.255885 1.570090 -0.000063 -0.069646
 16   7.002735 -0.617911 -0.183641 0.013968 0.007086 -0.921268
 17   1.574674 0.609930 -0.000899 0.149198 0.062962 0.823816
 18   -0.602177 0.511412 -0.000006 0.000000 0.000000 0.000000
 19   3.673773 0.177020 1.119313 -0.000002 -0.000014 -0.174510
 20   3.673767 0.176993 -1.117566 0.000007 -0.000003 -0.174546
 21   3.942357 1.330634 1.627658 0.000002 -0.000011 -0.000026
 22   -0.246060 -0.011889 0.516521 -0.000011 0.000031 0.000025
 23   3.938468 1.330659 -1.631083 0.000019 0.000002 -0.000024
 24   -0.246150 -0.011872 -0.516511 -0.000005 -0.000006 0.000048
 25   4.941364 1.997338 1.629330 0.000018 -0.000001 -0.000024
 26   4.941382 1.997366 -1.629410 -0.000001 0.000005 -0.000024
 27   2.918368 1.623171 1.514501 -0.000019 -0.000022 -0.000050
 28   2.920798 1.622777 -1.501142 -0.000002 -0.000009 -0.000024
 29   8.824059 0.150544 0.091743 0.029861 0.002784 -0.776627
 30   2.111085 -0.561179 1.784320 -0.000022 0.002079 0.000196
 31   2.121290 -0.561289 -1.853599 0.000000 -0.003626 0.000180
 32   -0.810489 -0.093824 3.127092 -0.033577 -3.073897 -0.409726
 33   14.298673 -0.408176 0.475484 -0.000100 -0.000042 -1.169405
 34   15.835795 0.581398 0.242756 -0.086746 -0.027649 0.437802
 35   -0.815868 -0.091229 -3.114430 0.199806 2.968113 -0.109230
 36   14.294526 -0.410349 -0.463635 0.000105 0.000060 -1.176671
 37   15.834409 0.579420 -0.284600 -0.018524 0.071171 0.721376
 38   1.139685 -3.504532 -2.823813 -0.004694 0.019703 1.263191
 39   -4.465555 -1.074386 -0.746180 -0.004566 0.005729 0.432998
 40   1.118101 -3.398986 3.237290 -0.004736 0.019704 1.263190
 41   -4.426027 -1.039598 0.959566 -0.004483 0.005609 0.431428
 42   -0.180891 2.427793 -2.688614 0.009600 -0.002712 -0.441045
 43   -0.218742 2.397818 2.869377 0.009096 -0.003434 -0.441045
time 3
  0   0.243428 3.586047 -5.269321 0.000000 -0.379086 -1.571449
  1   -1.093036 0.000002 -0.326057 -1.570704 -1.570379 -0.000123
  2   2.262337 0.113614 0.064702 -0.069332 -0.007298 -0.104842
  3   2.380047 0.353302 0.047440 0.000000 -0.000040 -0.196873
  4   2.033756 0.190472 -0.000128 -0.077045 0.014346 0.183965
  5   2.451511 0.204909 -0.003447 0.000000 -0.000005 -0.241475
  6   7.247600 -0.397300 -0.109469 0.000001 0.000009 -0.881130
  7   -2.022252 -0.104661 3.136172 -0.299358 -1.361862 -1.969093
  8   1.168026 -0.537438 -0.063437 0.689422 0.728819 0.849082
  9   6.790376 -0.619176 0.015206 -0.000324 -0.000352 -0.539292
 10   8.637599 0.544015 -0.090417 -1.570112 0.000362 -0.069282
 11   6.790465 -0.619039 0.017802 -0.001568 -0.011196 -0.392621
 12   -2.022474 -0.104699 -2.873818 0.009153 1.370420 -2.253529
 13   1.167898 -0.537463 0.063297 -0.596868 -0.823370 0.769064
 14   7.002743 -0.617765 -0.183752 0.000229 0.000250 -1.293521
 15   8.209042 0.615527 -0.255885 1.570090 -0.000063 -0.069646
 16   7.002735 -0.617911 -0.183641 0.013968 0.007086 -0.924083
 17   1.574674 0.609930 -0.000899 0.160612 0.023344 0.981455
 18   -0.602177 0.511412 -0.000006 0.000000 0.000000 0.000000
 19   3.673773 0.177020 1.119313 -0.000002 -0.000014 -0.174510
 20   3.673767 0.176993 -1.117566 0.000007 -0.000003 -0.174546
 21   3.942357 1.330634 1.627658 0.000002 -0.000011 -0.000026
 22   -0.246060 -0.011889 0.516521 -0.000011 0.000031 0.000025
 23   3.938468 1.330659 -1.631083 0.000019 0.000002 -0.000024
 24   -0.246150 -0.011872 -0.516511 -0.000005 -0.000006 0.000048
 25   4.941364 1.997338 1.629330 0.000018 -0.000001 -0.000024
 26   4.941382 1.997366 -1.629410 -0.000001 0.000005 -0.000024
 27   2.918368 1.615358 1.514501 -0.000019 -0.000022 -0.000050
 28   2.920798 1.614964 -1.501142 -0.000002 -0.000009 -0.000024
 29   8.824059 0.150544 0.091743 0.049468 0.009597 -0.674159
 30   2.111085 -0.561179 1.784320 -0.000076 0.005363 0.000410
 31   2.121290 -0.561289 -1.853599 0.000000 -0.008004 0.000435
 32   -0.810489 -0.093824 3.127092 -0.025002 -3.070459 -0.542297
 33   14.298673 -0.408176 0.475484 -0.000100 -0.000042 -1.393625
 34   15.835795 0.581398 0.242756 -0.085159 -0.022915 0.470614
 35   -0.815868 -0.091229 -3.114430 0.170145 2.938601 -0.237734
 36   14.294526 -0.410349 -0.463635 0.000105 0.000060 -1.449729
 37   15.834409 0.579420 -0.284600 -0.020750 0.064004 0.807265
 38   1.139685 -3.496719 -2.823813 -0.004589 0.016461 0.899801
 39   -4.465555 -1.074386 -0.746180 -0.004039 0.004566 0.351553
 40   1.118101 -3.406799 3.237290 -0.004652 0.016474 0.899800
 41   -4.426027 -1.039598 0.959566 -0.003644 0.004470 0.345636
 42   -0.235580 2.169973 -2.688614 0.010175 -0.002436 -0.310020
 43   -0.261712 2.151717 2.869377 0.009758 -0.002289 -0.310020
time 4
  0   0.243428 4.621235 -6.726397 0.000000 -0.440341 -1.571449
  1   -1.093036 0.000002 -0.326057 -1.570704 -1.570379 -0.000123
  2   2.262337 0.113614 0.064702 -0.069332 -0.007310 -0.105022
  3   2.380047 0.353302 0.047440 0.000000 -0.000040 -0.154307
  4   2.033756 0.190472 -0.000128 -0.069723 0.035762 0.472201
  5   2.451511 0.204909 -0.003447 0.000000 -0.000005 -0.433185
  6   7.247600 -0.397300 -0.109469 0.000001 0.000009 -0.881067
  7   -2.022252 -0.104661 3.136172 -0.295236 -1.362035 -1.973507
  8   1.168026 -0.537438 -0.063437 0.387258 0.904617 0.505894
  9   6.790376 -0.619176 0.015206 -0.000324 -0.000352 -0.538311
 10   8.637599 0.544015 -0.090417 -1.570112 0.000362 -0.069282
 11   6.790465 -0.619039 0.017802 -0.001568 -0.011196 -0.392045
 12   -2.022474 -0.104699 -2.873818 -0.307586 1.361335 -2.564209
 13   1.167898 -0.537463 0.063297 -0.288628 -0.957368 0.506101
 14   7.002743 -0.617765 -0.183752 0.000229 0.000250 -1.303009
 15   8.209042 0.615527 -0.255885 1.570090 -0.000063 -0.069646
 16   7.002735 -0.617911 -0.183641 0.013968 0.007199 -0.930706
 17   1.574674 0.609930 -0.000899 0.162074 -0.016772 1.109747
 18   -0.602177 0.511412 -0.000006 0.000000 0.000000 0.000000
 19   3.673773 0.177020 1.119313 -0.000002 -0.000014 -0.174510
 20   3.673767 0.176993 -1.117566 0.000007 -0.000003 -0.174546
 21   3.942357 1.330634 1.627658 0.000002 -0.000011 -0.000026
 22   -0.246060 -0.011889 0.516521 -0.000011 0.000031 0.000025
 23   3.938468 1.330659 -1.631083 0.000019 0.000002 -0.000024
 24   -0.246150 -0.011872 -0.516511 -0.000005 -0.000006 0.000048
 25   4.941364 1.997338 1.629330 0.000018 -0.000001 -0.000024
 26   4.941382 1.997366 -1.629410 -0.000001 0.000005 -0.000024
 27   2.918368 1.623171 1.514501 -0.000019 -0.000022 -0.000050
 28   2.920798 1.614964 -1.501142 -0.000002 -0.000009 -0.000024
 29   8.824059 0.150544 0.091743 0.069253 0.019994 -0.525822
 30   2.111085 -0.561179 1.776507 -0.000144 0.009780 0.000689
 31   2.121290 -0.561289 -1.853599 0.000000 -0.013780 0.000744
 32   -0.810489 -0.093824 3.127092 -0.019130 -3.069791 -0.641456
 33   14.298673 -0.408176 0.475484 -0.000100 -0.000042 -1.536621
 34   15.835795 0.581398 0.242756 -0.084400 -0.016643 0.453590
 35   -0.815868 -0.091229 -3.114430 0.145061 2.919020 -0.338741
 36   14.294526 -0.410349 -0.463635 0.000105 0.000060 -1.640985
 37   15.834409 0.579420 -0.284600 -0.023922 0.053817 0.839156
 38   1.139685 -3.492813 -2.823813 -0.004336 0.011593 0.427357
 39   -4.457742 -1.074386 -0.746180 -0.003224 0.003080 0.244250
 40   1.118101 -3.410705 3.237290 -0.004378 0.011618 0.427295
 41   -4.433840 -1.051317 0.959566 -0.002554 0.003020 0.234014
 42   -0.321520 1.802774 -2.688614 0.010427 -0.001884 -0.120319
 43   -0.320307 1.780612 2.869377 0.010058 -0.000579 -0.120361
time 5
  0   0.243428 5.625172 -8.386603 0.000000 -0.502485 -1.571449
  1   -1.093036 0.000002 -0.326057 -1.570704 -1.570379 -0.000123
  2   2.262337 0.113614 0.064702 -0.069344 -0.007166 -0.103504
  3   2.380047 0.353302 0.047440 0.000000 -0.000040 -0.100681
  4   2.033756 0.190472 -0.000128 -0.063213 0.046237 0.629295
  5   2.451511 0.204909 -0.003447 0.000000 -0.000005 -0.501909
  6   7.247600 -0.397300 -0.109469 0.000001 0.000009 -0.881067
  7   -2.022252 -0.104661 3.136172 -0.290060 -1.362237 -1.978579
  8   1.168026 -0.537438 -0.063437 -0.114240 0.970378 -0.041499
  9   6.790376 -0.619176 0.015206 -0.000324 -0.000352 -0.536575
 10   8.637599 0.544015 -0.090417 -1.570112 0.000362 -0.069282
 11   6.790465 -0.619039 0.017802 -0.001568 -0.011196 -0.390776
 12   -2.022474 -0.104699 -2.873818 2.553405 1.809581 -5.976996
 13   1.167898 -0.537463 0.063297 0.149867 -1.004051 0.115894
 14   7.002743 -0.617765 -0.183752 0.000229 0.000250 -1.315880
 15   8.209042 0.615527 -0.255885 1.570090 -0.000063 -0.069646
 16   7.002735 -0.617911 -0.183641 0.013921 0.007255 -0.939703
 17   1.574674 0.609930 -0.000899 0.153544 -0.056485 1.238889
 18   -0.602177 0.511412 -0.000006 0.000000 0.000000 0.000000
 19   3.673773 0.177020 1.119313 -0.000002 -0.000014 -0.174510
 20   3.673767 0.176993 -1.117566 0.000007 -0.000003 -0.174546
 21   3.942357 1.330634 1.627658 0.000002 -0.000011 -0.000026
 22   -0.246060 -0.011889 0.516521 -0.000011 0.000031 0.000025
 23   3.938468 1.330659 -1.631083 0.000019 0.000002 -0.000024
 24   -0.246150 -0.011872 -0.516511 -0.000005 -0.000006 0.000048
 25   4.941364 1.997338 1.629330 0.000018 -0.000001 -0.000024
 26   4.941382 1.997366 -1.629410 -0.000001 0.000005 -0.000024
 27   2.918368 1.615358 1.514501 -0.000019 -0.000022 -0.000050
 28   2.920798 1.614964 -1.501142 -0.000002 -0.000009 -0.000024
 29   8.824059 0.150544 0.091743 0.088324 0.033406 -0.350017
 30   2.111085 -0.561179 1.776507 -0.000225 0.015185 0.001075
 31   2.129103 -0.561289 -1.845786 0.000031 -0.020902 0.001163
 32   -0.810489 -0.093824 3.127092 -0.015774 -3.070459 -0.711071
 33   14.298673 -0.408176 0.475484 -0.000100 -0.000042 -1.626897
 34   15.835795 0.581398 0.242756 -0.084653 -0.009810 0.412531
 35   -0.815868 -0.091229 -3.114430 0.124201 2.905154 -0.416742
 36   14.294526 -0.410349 -0.463635 0.000105 0.000060 -1.776780
 37   15.834409 0.579420 -0.284600 -0.027725 0.042145 0.837179
 38   1.139685 -3.485000 -2.823813 -0.003852 0.005447 -0.045026
 39   -4.457742 -1.070480 -0.746180 -0.002217 0.001594 0.134367
 40   1.118101 -3.418518 3.237290 -0.003894 0.005472 -0.044966
 41   -4.433840 -1.059130 0.959566 -0.001403 0.001570 0.122111
 42   -0.415273 1.380886 -2.688614 0.010499 -0.001087 0.104511
 43   -0.398435 1.362630 2.877190 0.010158 0.001383 0.104511
time 6
  0   0.243428 6.566607 -10.542919 0.000000 -0.572719 -1.571449
  1   -1.093036 0.000002 -0.326057 -1.570704 -1.570379 -0.000123
  2   2.262337 0.113614 0.064702 -0.069408 -0.006663 -0.097252
  3   2.380047 0.353302 0.047440 0.000000 -0.000040 -0.019773
  4   2.033756 0.190472 -0.000128 -0.067879 0.039154 0.520808
  5   2.451511 0.204909 -0.003447 0.000000 -0.000005 -0.312626
  6   7.247600 -0.397300 -0.109469 0.000001 0.000009 -0.881035
  7   -2.022252 -0.104661 3.136172 -0.284788 -1.362468 -1.983462
  8   1.168026 -0.537438 -0.063437 -0.628204 0.839359 -0.599329
  9   6.790376 -0.619176 0.015206 -0.000324 -0.000352 -0.534085
 10   8.637599 0.544015 -0.090417 -1.570112 0.000362 -0.069282
 11   6.790465 -0.619039 0.017802 -0.001568 -0.011196 -0.388988
 12   -2.022474 -0.104699 -2.873818 2.342150 1.853494 0.101319
 13   1.167898 -0.537463 0.063297 0.611277 -0.923500 -0.289871
 14   7.002743 -0.617765 -0.183752 0.000229 0.000250 -1.328173
 15   8.209042 0.615527 -0.255885 1.570090 -0.000063 -0.069646
 16   7.002735 -0.617911 -0.183641 0.013921 0.007368 -0.948478
 17   1.574674 0.609930 -0.000899 0.134006 -0.095275 1.376199
 18   -0.602177 0.511412 -0.000006 0.000000 0.000000 0.000000
 19   3.665960 0.247335 1.127126 -0.000002 -0.000014 -0.174510
 20   3.665954 0.247308 -1.109753 0.000007 -0.000003 -0.174546
 21   3.414997 1.330634 1.588594 0.000002 -0.000011 -0.000026
 22   -0.238247 -0.379088 0.496989 0.000083 -0.028708 0.445010
 23   3.426733 1.330659 -1.611551 0.000019 0.000002 -0.000024
 24   -0.164116 -0.285318 -0.528230 0.000091 -0.028733 0.445062
 25   4.453068 2.040308 1.578547 0.051132 -0.014700 -0.084216
 26   4.425741 2.067681 -1.578627 -0.070566 -0.014240 -0.091826
 27   3.098061 1.541137 1.514501 -0.000019 -0.000022 -0.000050
 28   3.100491 1.540743 -1.501142 -0.000002 -0.000009 -0.000024
 29   8.824059 0.150544 0.091743 0.105970 0.049381 -0.165038
 30   2.118898 -0.561179 1.764788 -0.000293 0.021491 0.001461
 31   2.129103 -0.561289 -1.845786 0.000046 -0.029217 0.001636
 32   -0.810489 -0.093824 3.127092 -0.015029 -3.071223 -0.751145
 33   14.298673 -0.408176 0.475484 -0.000100 -0.000042 -1.690971
 34   15.835795 0.581398 0.242756 -0.085113 -0.002611 0.366179
 35   -0.815868 -0.091229 -3.114430 0.106334 2.894005 -0.466807
 36   14.294526 -0.410349 -0.463635 0.000105 0.000060 -1.879901
 37   15.834409 0.579420 -0.284600 -0.031429 0.031677 0.823084
 38   1.147498 -3.485000 -2.823813 -0.003073 -0.001530 -0.408416
 39   -4.457742 -1.062667 -0.746180 -0.001127 0.000443 0.045210
 40   1.110288 -3.418518 3.237290 -0.003094 -0.001505 -0.408417
 41   -4.433840 -1.059130 0.959566 -0.000468 0.000431 0.035562
 42   -0.512932 0.916028 -2.688614 0.010499 0.000048 0.341135
 43   -0.476562 0.905585 2.877190 0.010158 0.003470 0.341135
time 7
  0   0.231709 7.406476 -13.468790 0.000000 -0.610414 -1.571449
  1   -1.093036 0.000002 -0.326057 -1.570704 -1.570379 -0.000123
  2   2.262337 0.113614 0.064702 -0.069459 -0.006040 -0.088722
  3   2.380047 0.353302 0.047440 0.000000 -0.000040 0.085377
  4   2.033756 0.190472 -0.000128 -0.075975 0.019163 0.247506
  5   2.451511 0.204909 -0.003447 0.000000 -0.000005 0.039934
  6   7.247600 -0.397300 -0.109469 0.000001 0.000009 -0.881067
  7   -2.022252 -0.104661 3.136172 -0.279420 -1.362785 -1.989191
  8   1.168026 -0.537438 -0.063437 -0.935304 0.556241 -0.947008
  9   6.790376 -0.619176 0.015206 -0.000324 -0.000352 -0.531670
 10   8.637599 0.544015 -0.090417 -1.570112 0.000362 -0.069282
 11   6.790465 -0.619039 0.017802 -0.001568 -0.011196 -0.387258
 12   -2.022474 -0.104699 -2.873818 2.192117 1.905534 -0.041719
 13   1.167898 -0.537463 0.063297 0.942292 -0.729140 -0.559069
 14   7.002743 -0.617765 -0.183752 0.000229 0.000250 -1.337991
 15   8.209042 0.615527 -0.255885 1.570090 -0.000063 -0.069646
 16   7.002735 -0.617911 -0.183641 0.013874 0.007368 -0.955322
 17   1.574674 0.609930 -0.000899 0.124013 -0.108836 1.339164
 18   -0.602177 0.511412 -0.000006 0.000000 0.000000 0.000000
 19   3.665960 0.313743 1.146658 -0.000002 -0.000014 -0.174510
 20   3.665954 0.313716 -1.090221 0.000007 -0.000003 -0.174546
 21   2.887637 1.322821 1.553437 0.000002 -0.000011 -0.000026
 22   -0.226528 -0.754099 0.477457 0.000194 -0.057459 0.890061
 23   2.907186 1.318940 -1.588113 0.000019 0.000002 -0.000024
 24   -0.078176 -0.558764 -0.547762 0.000187 -0.057484 0.890104
 25   3.956959 2.091091 1.523858 0.102271 -0.029427 -0.168396
 26   3.906194 2.137995 -1.516125 -0.141144 -0.028485 -0.183628
 27   3.289473 1.455197 1.514501 -0.000019 -0.000022 -0.000050
 28   3.291903 1.454803 -1.501142 -0.000002 -0.000009 -0.000024
 29   8.824059 0.150544 0.091743 0.121210 0.067422 0.010767
 30   2.118898 -0.561179 1.764788 -0.000388 0.028523 0.001954
 31   2.133009 -0.561289 -1.837973 0.000077 -0.038490 0.002127
 32   -0.810489 -0.093824 3.127092 0.003054 -3.019173 -0.972628
 33   14.298673 -0.408176 0.475484 -0.000100 -0.000042 -1.624753
 34   15.835795 0.581398 0.242756 -0.034141 0.002587 0.255526
 35   -0.815868 -0.091229 -3.114430 0.020080 2.887260 -0.681255
 36   14.294526 -0.410349 -0.463635 0.000105 0.000060 -1.909022
 37   15.834409 0.579420 -0.284600 -0.013500 0.045601 0.625904
 38   1.155311 -3.473281 -2.823813 -0.001894 -0.009002 -0.553698
 39   -4.457742 -1.054854 -0.746180 0.000000 0.000000 0.000000
 40   1.106382 -3.430237 3.237290 -0.001894 -0.009001 -0.553761
 41   -4.433840 -1.059130 0.959566 -0.000001 0.000000 0.000000
 42   -0.614498 0.482421 -2.680801 0.010558 0.001566 0.566007
 43   -0.550783 0.471978 2.888909 0.010233 0.005463 0.566007
time 8
  0   0.231709 8.121342 -18.078306 0.000000 -0.723411 -1.571449
  1   -1.093036 0.000002 -0.326057 -1.570704 -1.570379 -0.000123
  2   2.262337 0.113614 0.064702 -0.069459 -0.005800 -0.084620
  3   2.380047 0.353302 0.047440 0.000000 -0.000040 0.178773
  4   2.033756 0.190472 -0.000128 -0.078299 0.003464 0.044704
  5   2.451511 0.204909 -0.003447 0.000000 -0.000005 0.307302
  6   7.247600 -0.397300 -0.109469 0.000001 0.000009 -0.625220
  7   -2.022252 -0.104661 3.136172 -0.274147 -1.363131 -2.249613
  8   1.168026 -0.537438 -0.063437 -1.070218 0.257927 -1.124264
  9   6.790376 -0.619176 0.015206 -0.000324 -0.000352 -0.530236
 10   8.637599 0.544015 -0.090417 -1.570112 0.000362 -0.069282
 11   6.790465 -0.619039 0.017802 -0.001568 -0.011196 -0.386335
 12   -2.022474 -0.104699 -2.873818 2.086920 1.960331 -0.395673
 13   1.167898 -0.537463 0.063297 1.115638 -0.516371 -0.669787
 14   7.002743 -0.617765 -0.183752 0.000229 0.000250 -1.341869
 15   8.209042 0.615527 -0.255885 1.570090 -0.000063 -0.069646
 16   7.002735 -0.617911 -0.183641 0.013874 0.007368 -0.957916
 17   1.574674 0.609930 -0.000899 0.115361 -0.117948 1.044511
 18   -0.602177 0.511412 -0.000006 0.000000 0.000000 0.000000
 19   3.665960 0.313743 1.146658 -0.000002 -0.000014 -0.174510
 20   3.665954 0.313716 -1.090221 0.000007 -0.000003 -0.174546
 21   2.887637 1.322821 1.553437 0.000002 -0.000011 -0.000026
 22   -0.226528 -0.754099 0.477457 0.000194 -0.057459 0.890061
 23   2.907186 1.318940 -1.588113 0.000019 0.000002 -0.000024
 24   -0.078176 -0.558764 -0.547762 0.000187 -0.057484 0.890104
 25   3.956959 2.091091 1.523858 0.102271 -0.029427 -0.168396
 26   3.906194 2.137995 -1.516125 -0.141144 -0.028485 -0.183628
 27   3.289473 1.455197 1.514501 -0.000019 -0.000022 -0.000050
 28   3.291903 1.454803 -1.501142 -0.000002 -0.000009 -0.000024
 29   8.824059 0.150544 0.091743 0.133152 0.086982 0.159103
 30   2.122804 -0.561179 1.753069 -0.000510 0.036224 0.002468
 31   2.140822 -0.561289 -1.834067 0.000092 -0.048669 0.002691
 32   -0.810489 -0.093824 3.127092 0.040804 -2.960533 -1.242610
 33   14.298673 -0.408176 0.475484 -0.000100 -0.000042 -1.547340
 34   15.835795 0.581398 0.242756 0.029575 -0.003831 0.136801
 35   -0.815868 -0.091229 -3.114430 -0.077088 2.901500 -0.925173
 36   14.294526 -0.410349 -0.463635 0.000105 0.000060 -1.932736
 37   15.834409 0.579420 -0.284600 -0.001324 0.066922 0.394044
 38   1.167030 -3.465468 -2.823813 0.000126 -0.016570 -0.552293
 39   -4.457742 -1.047041 -0.746180 0.001079 0.000204 -0.014612
 40   1.090756 -3.438050 3.237290 0.000042 -0.016629 -0.552233
 41   -4.433840 -1.059130 0.959566 0.000179 0.000012 -0.001402
 42   -0.684813 0.115222 -2.680801 0.010822 0.003498 0.755707
 43   -0.621098 0.104779 2.892815 0.010533 0.007142 0.755707
time 9
  0   0.231709 8.683859 -24.160522 0.000000 -0.853744 -1.571449
  1   -1.093036 0.000002 -0.326057 -1.571595 -1.570703 0.001474
  2   2.262337 0.113614 0.064702 -0.069408 -0.006279 -0.090801
  3   2.380047 0.353302 0.047440 0.000000 -0.000040 0.239194
  4   2.033756 0.190472 -0.000128 -0.078336 0.002685 0.034410
  5   2.451511 0.204909 -0.003447 0.000000 -0.000005 0.349527
  6   7.247600 -0.397300 -0.109469 0.000001 0.000009 -0.323506
  7   -2.022252 -0.104661 3.136172 -0.269259 -1.363448 -2.556053
  8   1.168026 -0.537438 -0.063437 -1.115337 0.040368 -1.216814
  9   6.790376 -0.619176 0.015206 -0.000324 -0.000352 -0.530538
 10   8.637599 0.544015 -0.090417 -1.570112 0.000362 -0.069282
 11   6.790465 -0.619039 0.017802 -0.001568 -0.011196 -0.386566
 12   -2.022474 -0.104699 -2.873818 -1.128461 1.127925 -3.906787
 13   1.167898 -0.537463 0.063297 1.190712 -0.366304 -0.688129
 14   7.002743 -0.617765 -0.183752 0.000229 0.000250 -1.336836
 15   8.209042 0.615527 -0.255885 1.570090 -0.000063 -0.069646
 16   7.002735 -0.617911 -0.183641 0.013874 0.007368 -0.954439
 17   1.574674 0.609930 -0.000899 0.100454 -0.130609 0.801270
 18   -0.602177 0.511412 -0.000006 0.000000 0.000000 0.000000
 19   3.665960 0.313743 1.146658 -0.000002 -0.000014 -0.174510
 20   3.665954 0.313716 -1.090221 0.000007 -0.000003 -0.174546
 21   2.887637 1.322821 1.553437 0.000002 -0.000011 -0.000026
 22   -0.226528 -0.754099 0.477457 0.000194 -0.057459 0.890061
 23   2.907186 1.318940 -1.588113 0.000019 0.000002 -0.000024
 24   -0.078176 -0.558764 -0.547762 0.000187 -0.057484 0.890104
 25   3.956959 2.091091 1.523858 0.102271 -0.029427 -0.168396
 26   3.906194 2.137995 -1.516125 -0.141144 -0.028485 -0.183628
 27   3.289473 1.455197 1.514501 -0.000019 -0.000022 -0.000050
 28   3.291903 1.454803 -1.501142 -0.000002 -0.000009 -0.000024
 29   8.824059 0.150544 0.091743 0.140995 0.107611 0.261625
 30   2.122804 -0.561179 1.745256 -0.000632 0.044448 0.003026
 31   2.144728 -0.561289 -1.826254 0.000092 -0.059496 0.003328
 32   -0.810489 -0.093824 3.127092 0.091696 -2.915455 -1.511909
 33   14.298673 -0.408176 0.475484 -0.000100 -0.000042 -1.461034
 34   15.835795 0.581398 0.242756 0.089471 -0.021597 0.014902
 35   -0.815868 -0.091229 -3.114430 -0.167831 2.939070 -1.166735
 36   14.294526 -0.410349 -0.463635 0.000105 0.000060 -1.950193
 37   15.834409 0.579420 -0.284600 0.002341 0.091903 0.160156
 38   1.178749 -3.461562 -2.823813 0.003536 -0.024125 -0.548322
 39   -4.457742 -1.035322 -0.746180 0.002109 0.000791 -0.027625
 40   1.079037 -3.441956 3.237290 0.003115 -0.024281 -0.548018
 41   -4.433840 -1.059130 0.959566 0.000335 0.000072 -0.002748
 42   -0.739502 -0.138692 -2.669082 0.011385 0.005859 0.886733
 43   -0.664068 -0.141322 2.892815 0.011220 0.008303 0.886733
time 10
  0   0.231709 9.094028 -30.098204 0.000000 -0.973764 -1.571449
  1   -1.093036 0.000002 -0.326057 -1.570704 -1.570379 -0.000123
  2   2.262337 0.113614 0.064702 -0.069332 -0.007358 -0.106305
  3   2.380047 0.353302 0.047440 0.000000 -0.000040 0.275250
  4   2.033756 0.190472 -0.000128 -0.077045 0.014334 0.182696
  5   2.451511 0.204909 -0.003447 0.000000 -0.000005 0.204005
  6   7.247600 -0.397300 -0.109469 0.000001 0.000009 -0.018688
  7   -2.022252 -0.104661 3.136172 -0.264849 -1.363621 -2.865498
  8   1.168026 -0.537438 -0.063437 -1.122045 -0.075858 -1.265651
  9   6.790376 -0.619176 0.015206 -0.000324 -0.000352 -0.533330
 10   8.637599 0.544015 -0.090417 -1.570112 0.000362 -0.069282
 11   6.790465 -0.619039 0.017802 -0.001568 -0.011196 -0.388527
 12   -2.022474 -0.104699 -2.873818 -1.181921 1.079310 -4.258923
 13   1.167898 -0.537463 0.063297 1.218408 -0.290329 -0.666458
 14   7.002743 -0.617765 -0.183752 0.000229 0.000250 -1.320335
 15   8.209042 0.615527 -0.255885 1.570090 -0.000063 -0.069646
 16   7.002735 -0.617911 -0.183641 0.013921 0.007255 -0.943014
 17   1.574674 0.609930 -0.000899 0.084571 -0.141473 0.599537
 18   -0.602177 0.511412 -0.000006 0.000000 0.000000 0.000000
 19   3.665960 0.313743 1.146658 -0.000002 -0.000014 -0.174510
 20   3.665954 0.313716 -1.090221 0.000007 -0.000003 -0.174546
 21   2.887637 1.322821 1.553437 0.000002 -0.000011 -0.000026
 22   -0.226528 -0.754099 0.477457 0.000194 -0.057459 0.890061
 23   2.907186 1.318940 -1.588113 0.000019 0.000002 -0.000024
 24   -0.078176 -0.558764 -0.547762 0.000187 -0.057484 0.890104
 25   3.956959 2.091091 1.523858 0.102271 -0.029427 -0.168396
 26   3.906194 2.137995 -1.516125 -0.141144 -0.028485 -0.183628
 27   3.289473 1.455197 1.514501 -0.000019 -0.000022 -0.000050
 28   3.291903 1.454803 -1.501142 -0.000002 -0.000009 -0.000024
 29   8.824059 0.150544 0.091743 0.143847 0.128714 0.299769
 30   2.130617 -0.561179 1.741350 -0.000727 0.053079 0.003583
 31   2.152541 -0.561289 -1.822348 0.000138 -0.070866 0.003965
 32   -0.810489 -0.093824 3.127092 -3.005271 -0.249348 1.416165
 33   14.298673 -0.408176 0.475484 -0.000100 -0.000042 -1.366630
 34   15.835795 0.581398 0.242756 0.131013 -0.040388 -0.105322
 35   -0.815868 -0.091229 -3.114430 -0.239739 2.991067 -1.375760
 36   14.294526 -0.410349 -0.463635 0.000105 0.000060 -1.961857
 37   15.834409 0.579420 -0.284600 0.000036 0.115809 -0.040827
 38   1.202187 -3.453749 -2.823813 0.008083 -0.031657 -0.542090
 39   -4.457742 -1.015790 -0.746180 0.003092 0.001714 -0.039096
 40   1.055599 -3.449769 3.237290 0.007157 -0.031909 -0.541236
 41   -4.426027 -1.051317 0.959566 0.000466 0.000168 -0.003870
 42   -0.762940 -0.236351 -2.661269 0.012404 0.008757 0.935622
 43   -0.683600 -0.238981 2.892815 0.012407 0.008758 0.935622
time 11
  0   0.231709 9.371380 -33.934258 0.000000 -1.054400 -1.571449
  1   -1.093036 0.000002 -0.326057 -1.570704 -1.570379 -0.000123
  2   2.262337 0.113614 0.064702 -0.069166 -0.008592 -0.124214
  3   2.380047 0.353302 0.047440 0.000000 -0.000040 0.304777
  4   2.033756 0.190472 -0.000128 -0.062715 0.047016 0.640713
  5   2.451511 0.204909 -0.003447 0.000000 -0.000005 -0.258564
  6   7.247600 -0.397300 -0.109469 0.000001 0.000009 0.245522
  7   -2.022252 -0.104661 3.136172 -3.401801 -1.777452 0.008537
  8   1.168026 -0.537438 -0.063437 -1.122361 -0.114751 -1.280960
  9   6.790376 -0.619176 0.015206 -0.000324 -0.000352 -0.539292
 10   8.637599 0.544015 -0.090417 -1.570112 0.000362 -0.069282
 11   6.790465 -0.619039 0.017802 -0.001539 -0.011196 -0.392621
 12   -2.022474 -0.104699 -2.873818 -1.219286 1.038038 -4.556486
 13   1.167898 -0.537463 0.063297 1.231623 -0.259767 -0.634011
 14   7.002743 -0.617765 -0.183752 0.000229 0.000250 -1.289478
 15   8.209042 0.615527 -0.255885 1.570090 -0.000063 -0.069646
 16   7.002735 -0.617911 -0.183641 0.013968 0.007086 -0.921268
 17   1.574674 0.609930 -0.000899 0.075432 -0.146443 0.396251
 18   -0.602177 0.511412 -0.000006 0.000000 0.000000 0.000000
 19   3.665960 0.313743 1.146658 -0.000002 -0.000014 -0.174510
 20   3.665954 0.313716 -1.090221 0.000007 -0.000003 -0.174546
 21   2.887637 1.322821 1.553437 0.000002 -0.000011 -0.000026
 22   -0.226528 -0.754099 0.477457 0.000194 -0.057459 0.890061
 23   2.907186 1.318940 -1.588113 0.000019 0.000002 -0.000024
 24   -0.078176 -0.558764 -0.547762 0.000187 -0.057484 0.890104
 25   3.956959 2.091091 1.523858 0.102271 -0.029427 -0.168396
 26   3.906194 2.137995 -1.516125 -0.141144 -0.028485 -0.183628
 27   3.289473 1.455197 1.514501 -0.000019 -0.000022 -0.000050
 28   3.291903 1.454803 -1.501142 -0.000002 -0.000009 -0.000024
 29   8.824059 0.150544 0.091743 0.142599 0.149912 0.281797
 30   2.130617 -0.561179 1.733537 -0.000876 0.062030 0.004184
 31   2.160354 -0.561289 -1.814535 0.000138 -0.082626 0.004620
 32   -0.810489 -0.093824 3.127092 -2.989705 -0.251927 1.314160
 33   14.298673 -0.408176 0.475484 -0.000100 -0.000042 -1.265953
 34   15.835795 0.581398 0.242756 0.145297 -0.044146 -0.214829
 35   -0.815868 -0.091229 -3.114430 2.854675 0.100201 1.614900
 36   14.294526 -0.410349 -0.463635 0.000105 0.000060 -1.967187
 37   15.834409 0.579420 -0.284600 -0.002545 0.135543 -0.176759
 38   1.221719 -3.449842 -2.823813 0.013556 -0.039080 -0.533965
 39   -4.457742 -0.996258 -0.738367 0.004027 0.002912 -0.049136
 40   1.036067 -3.449769 3.237290 0.011956 -0.039465 -0.532500
 41   -4.418214 -1.039598 0.959566 0.000586 0.000276 -0.004880
 42   -0.762940 -0.216819 -2.649550 0.015987 0.012130 0.926254
 43   -0.691413 -0.235075 2.892815 0.014306 0.006483 0.926254
time 12
  0   0.231709 9.371380 -35.371803 0.000000 -1.087472 -1.571449
  1   -1.093036 0.000002 -0.326057 -1.570704 -1.570379 -0.000123
  2   2.262337 0.113614 0.064702 -0.068758 -0.011157 -0.160608
  3   2.380047 0.353302 0.047440 0.000000 -0.000040 0.285412
  4   2.033756 0.190472 -0.000128 -0.044918 0.064154 0.958019
  5   2.451511 0.204909 -0.003447 0.000000 -0.000005 -0.629971
  6   7.247600 -0.397300 -0.109469 0.000001 0.000009 0.426994
  7   -2.022252 -0.104661 3.136172 -0.259289 -1.363967 -3.315250
  8   1.168026 -0.537438 -0.063437 -1.086481 0.097525 -1.204921
  9   6.790376 -0.619176 0.015206 -0.000324 -0.000352 -0.553027
 10   8.637599 0.544015 -0.090417 -1.570112 0.000362 -0.069282
 11   6.790465 -0.619039 0.017802 -0.001422 -0.011253 -0.402196
 12   -2.022474 -0.104699 -2.873818 -1.238160 1.014644 -4.754096
 13   1.167898 -0.537463 0.063297 1.172295 -0.417513 -0.544541
 14   7.002743 -0.617765 -0.183752 0.000229 0.000250 -1.219596
 15   8.209042 0.615527 -0.255885 1.570090 -0.000063 -0.069646
 16   7.002735 -0.617911 -0.183641 0.014015 0.006691 -0.872533
 17   1.574674 0.609930 -0.000899 0.075960 -0.146443 0.295311
 18   -0.602177 0.511412 -0.000006 0.000000 0.000000 0.000000
 19   3.665960 0.313743 1.146658 -0.000002 -0.000014 -0.174510
 20   3.665954 0.313716 -1.090221 0.000007 -0.000003 -0.174546
 21   2.887637 1.322821 1.553437 0.000002 -0.000011 -0.000026
 22   -0.226528 -0.754099 0.477457 0.000194 -0.057459 0.890061
 23   2.907186 1.318940 -1.588113 0.000019 0.000002 -0.000024
 24   -0.078176 -0.558764 -0.547762 0.000187 -0.057484 0.890104
 25   3.956959 2.091091 1.523858 0.102271 -0.029427 -0.168396
 26   3.906194 2.137995 -1.516125 -0.141144 -0.028485 -0.183628
 27   3.289473 1.455197 1.514501 -0.000019 -0.000022 -0.000050
 28   3.291903 1.454803 -1.501142 -0.000002 -0.000009 -0.000024
 29   8.824059 0.150544 0.091743 0.139034 0.170896 0.231046
 30   2.138430 -0.561179 1.721818 -0.000998 0.071126 0.004763
 31   2.160354 -0.561289 -1.810629 0.000184 -0.094670 0.005293
 32   -0.810489 -0.093824 3.127092 0.088247 -2.924624 -1.661101
 33   14.298673 -0.408176 0.475484 -0.000100 -0.000042 -1.133517
 34   15.835795 0.581398 0.242756 0.097154 0.001733 -0.318117
 35   -0.815868 -0.091229 -3.114430 2.839096 0.076123 1.583184
 36   14.294526 -0.410349 -0.463635 0.000105 0.000060 -1.956836
 37   15.834409 0.579420 -0.284600 0.013729 0.148059 -0.141014
 38   1.252970 -3.445936 -2.823813 0.019807 -0.046322 -0.524129
 39   -4.457742 -0.980633 -0.738367 0.004890 0.004362 -0.057830
 40   1.004816 -3.457582 3.237290 0.017408 -0.046876 -0.521869
 41   -4.410401 -1.027879 0.967379 0.000694 0.000407 -0.005749
 42   -0.751221 -0.173849 -2.637831 0.023777 0.015963 0.899906
 43   -0.695319 -0.215543 2.877190 0.016917 0.000128 0.899906
time 13
  0   0.231709 9.152623 -35.973381 0.000000 -1.089428 -1.571449
  1   -1.093036 0.000002 -0.326057 -1.570704 -1.570379 -0.000123
  2   2.262337 0.113614 0.064702 -0.067790 -0.016119 -0.234988
  3   2.380047 0.353302 0.047440 0.000000 -0.000040 0.138880
  4   2.033756 0.190472 -0.000128 -0.067344 0.040017 0.534183
  5   2.451511 0.204909 -0.003447 0.000000 -0.000005 -0.377438
  6   7.247600 -0.397300 -0.109469 0.000001 0.000009 0.303521
  7   -2.022252 -0.104661 3.136172 -3.399884 -1.777365 -0.051286
  8   1.168026 -0.537438 -0.063437 -0.797606 0.671108 -0.857368
  9   6.790376 -0.619176 0.015206 -0.000324 -0.000352 -0.574837
 10   8.637599 0.544015 -0.090417 -1.570112 0.000362 -0.069282
 11   6.790465 -0.619039 0.017802 -0.001422 -0.011253 -0.417595
 12   -2.022474 -0.104699 -2.873818 -1.240459 1.011452 -4.632121
 13   1.167898 -0.537463 0.063297 0.779491 -0.855001 -0.151307
 14   7.002743 -0.617765 -0.183752 0.000229 0.000250 -1.105491
 15   8.209042 0.615527 -0.255885 1.570090 -0.000063 -0.069646
 16   7.002735 -0.617911 -0.183641 0.014156 0.006071 -0.792393
 17   1.574674 0.609930 -0.000899 0.119423 -0.113262 0.373040
 18   -0.602177 0.511412 -0.000006 0.000000 0.000000 0.000000
 19   3.665960 0.313743 1.146658 -0.000002 -0.000014 -0.174510
 20   3.665954 0.313716 -1.090221 0.000007 -0.000003 -0.174546
 21   2.887637 1.322821 1.553437 0.000002 -0.000011 -0.000026
 22   -0.226528 -0.754099 0.477457 0.000194 -0.057459 0.890061
 23   2.907186 1.318940 -1.588113 0.000019 0.000002 -0.000024
 24   -0.078176 -0.558764 -0.547762 0.000187 -0.057484 0.890104
 25   3.956959 2.091091 1.523858 0.102271 -0.029427 -0.168396
 26   3.906194 2.137995 -1.516125 -0.141144 -0.028485 -0.183628
 27   3.289473 1.455197 1.514501 -0.000019 -0.000022 -0.000050
 28   3.291903 1.454803 -1.501142 -0.000002 -0.000009 -0.000024
 29   8.824059 0.150544 0.091743 0.133598 0.191548 0.152666
 30   2.142336 -0.561179 1.710099 -0.001120 0.080280 0.005385
 31   2.172073 -0.561289 -1.802816 0.000215 -0.106740 0.005948
 32   -0.810489 -0.093824 3.127092 -0.008970 -3.017263 -1.292872
 33   14.298673 -0.408176 0.475484 -0.000100 -0.000042 -0.980755
 34   15.835795 0.581398 0.242756 -0.012864 0.063719 -0.410512
 35   -0.815868 -0.091229 -3.114430 2.844377 0.077247 1.647546
 36   14.294526 -0.410349 -0.463635 0.000105 0.000060 -1.929260
 37   15.834409 0.579420 -0.284600 0.048208 0.150286 0.017683
 38   1.276408 -3.434217 -2.823813 0.026690 -0.053372 -0.512948
 39   -4.457742 -0.961101 -0.734461 0.005705 0.006016 -0.065291
 40   0.981378 -3.469301 3.237290 0.023343 -0.054070 -0.510017
 41   -4.402589 -1.020066 0.967379 0.000802 0.000575 -0.006507
 42   -0.739502 -0.099628 -2.618299 0.035091 0.020149 0.859215
 43   -0.703132 -0.184292 2.861564 0.020128 -0.009680 0.859173
time 14
  0   0.231709 8.906522 -36.281986 0.000000 -1.078493 -1.571449
  1   -1.093036 0.000002 -0.326057 -1.570704 -1.570379 -0.000123
  2   2.262337 0.113614 0.064702 -0.065803 -0.022566 -0.329788
  3   2.380047 0.353302 0.047440 0.000000 -0.000040 -0.008632
  4   2.033756 0.190472 -0.000128 -0.078336 -0.002613 -0.035112
  5   2.451511 0.204909 -0.003447 0.000000 -0.000005 -0.000210
  6   7.247600 -0.397300 -0.109469 0.000001 0.000009 -0.002280
  7   -2.022252 -0.104661 3.136172 -0.259960 -1.363967 -2.886253
  8   1.168026 -0.537438 -0.063437 0.210009 0.944315 0.217553
  9   6.790376 -0.619176 0.015206 -0.000324 -0.000352 -0.600496
 10   8.637599 0.544015 -0.090417 -1.570112 0.000362 -0.069282
 11   6.790465 -0.619039 0.017802 -0.001276 -0.011253 -0.435474
 12   -2.022474 -0.104699 -2.873818 -1.233657 1.020333 -4.320484
 13   1.167898 -0.537463 0.063297 -0.234924 -0.982540 0.867312
 14   7.002743 -0.617765 -0.183752 0.000229 0.000250 -0.970842
 15   8.209042 0.615527 -0.255885 1.570090 -0.000063 -0.069646
 16   7.002735 -0.617911 -0.183641 0.014250 0.005338 -0.698345
 17   1.574674 0.609930 -0.000899 0.157241 -0.038072 0.481446
 18   -0.602177 0.511412 -0.000006 0.000000 0.000000 0.000000
 19   3.665960 0.313743 1.146658 -0.000002 -0.000014 -0.174510
 20   3.665954 0.313716 -1.090221 0.000007 -0.000003 -0.174546
 21   2.887637 1.322821 1.553437 0.000002 -0.000011 -0.000026
 22   -0.226528 -0.754099 0.477457 0.000194 -0.057459 0.890061
 23   2.907186 1.318940 -1.588113 0.000019 0.000002 -0.000024
 24   -0.078176 -0.558764 -0.547762 0.000187 -0.057484 0.890104
 25   3.956959 2.091091 1.523858 0.102271 -0.029427 -0.168396
 26   3.906194 2.137995 -1.516125 -0.141144 -0.028485 -0.183628
 27   3.289473 1.455197 1.514501 -0.000019 -0.000022 -0.000050
 28   3.291903 1.454803 -1.501142 -0.000002 -0.000009 -0.000024
 29   8.824059 0.150544 0.091743 0.126557 0.211654 0.051700
 30   2.142336 -0.561179 1.702286 -0.001256 0.089405 0.006006
 31   2.172073 -0.561289 -1.795003 0.000230 -0.118706 0.006621
 32   -0.810489 -0.093824 3.127092 -0.056227 -3.113150 -0.975475
 33   14.298673 -0.408176 0.475484 -0.000100 -0.000042 -0.864119
 34   15.835795 0.581398 0.242756 -0.109886 0.089001 -0.451351
 35   -0.815868 -0.091229 -3.114430 2.850010 0.078184 1.707964
 36   14.294526 -0.410349 -0.463635 0.000105 0.000060 -1.895736
 37   15.834409 0.579420 -0.284600 0.072974 0.150670 0.101088
 38   1.307659 -3.422498 -2.816000 0.034015 -0.060156 -0.500913
 39   -4.457742 -0.941569 -0.726648 0.006448 0.007814 -0.071629
 40   0.950127 -3.481020 3.229477 0.029637 -0.061035 -0.497065
 41   -4.386963 -1.008347 0.979098 0.000874 0.000743 -0.007124
 42   -0.727783 -0.013688 -2.606580 0.049281 0.024534 0.806729
 43   -0.703132 -0.153041 2.834219 0.023789 -0.022374 0.806645
time 15
  0   0.231709 8.715110 -33.590496 0.000000 -1.072892 -1.571449
  1   -1.093036 0.000002 -0.326057 -1.570704 -1.570379 -0.000171
  2   2.262337 0.113614 0.064702 -0.062199 -0.031471 -0.467596
  3   2.380047 0.353302 0.047440 0.000000 -0.000040 -0.034894
  4   2.033756 0.190472 -0.000128 -0.073799 -0.026426 -0.343792
  5   2.451511 0.204909 -0.003447 0.000000 -0.000005 0.162548
  6   7.247600 -0.397300 -0.109469 0.000001 0.000009 -0.331045
  7   -2.022252 -0.104661 3.136172 -0.261111 -1.363794 -2.556616
  8   1.168026 -0.537438 -0.063437 0.857052 0.578580 0.944858
  9   6.790376 -0.619176 0.015206 -0.000324 -0.000352 -0.624872
 10   8.637599 0.544015 -0.090417 -1.570112 0.000362 -0.069282
 11   6.790465 -0.619039 0.017802 -0.001247 -0.011310 -0.452603
 12   -2.022474 -0.104699 -2.873818 -1.223884 1.032117 -3.983380
 13   1.167898 -0.537463 0.063297 -0.783288 -0.684999 1.431617
 14   7.002743 -0.617765 -0.183752 0.000229 0.000250 -0.841309
 15   8.209042 0.615527 -0.255885 1.570090 -0.000063 -0.069646
 16   7.002735 -0.617911 -0.183641 0.014392 0.004661 -0.607608
 17   1.574674 0.609930 -0.000899 0.152163 0.044715 0.523138
 18   -0.602177 0.511412 -0.000006 0.000000 0.000000 0.000000
 19   3.665960 0.313743 1.146658 -0.000002 -0.000014 -0.174510
 20   3.665954 0.313716 -1.090221 0.000007 -0.000003 -0.174546
 21   2.887637 1.322821 1.553437 0.000002 -0.000011 -0.000026
 22   -0.226528 -0.754099 0.477457 0.000194 -0.057459 0.890061
 23   2.907186 1.318940 -1.588113 0.000019 0.000002 -0.000024
 24   -0.078176 -0.558764 -0.547762 0.000187 -0.057484 0.890104
 25   3.956959 2.091091 1.523858 0.102271 -0.029427 -0.168396
 26   3.906194 2.137995 -1.516125 -0.141144 -0.028485 -0.183628
 27   3.289473 1.455197 1.514501 -0.000019 -0.000022 -0.000050
 28   3.291903 1.454803 -1.501142 -0.000002 -0.000009 -0.000024
 29   8.824059 0.150544 0.091743 0.118358 0.231025 -0.066862
 30   2.150149 -0.561179 1.698380 -0.001378 0.098326 0.006607
 31   2.183792 -0.561289 -1.791097 0.000245 -0.130491 0.007313
 32   -0.810489 -0.093824 3.127092 -0.051287 -3.135784 -0.810628
 33   14.298673 -0.408176 0.475484 -0.000100 -0.000042 -0.844508
 34   15.835795 0.581398 0.242756 -0.128679 0.082290 -0.339771
 35   -0.815868 -0.091229 -3.114430 2.846402 0.068909 1.720398
 36   14.294526 -0.410349 -0.463635 0.000105 0.000060 -1.867156
 37   15.834409 0.579420 -0.284600 0.077131 0.161599 0.038623
 38   1.338910 -3.414685 -2.816000 0.041614 -0.066640 -0.488144
 39   -4.465555 -0.918131 -0.726648 0.007143 0.009696 -0.076873
 40   0.918876 -3.488833 3.229477 0.036162 -0.067675 -0.483380
 41   -4.375244 -0.988815 0.979098 0.000946 0.000947 -0.007656
 42   -0.708251 0.091784 -2.587048 0.065688 0.029072 0.745127
 43   -0.707038 -0.110071 2.806875 0.027787 -0.037249 0.745001
time 16
  0   0.231709 8.625263 -30.801350 0.000000 -1.090495 -1.571449
  1   -1.093036 0.000002 -0.326057 -1.571595 -1.570703 0.000845
  2   2.262337 0.113614 0.064702 -0.059435 -0.036241 -0.547469
  3   2.380047 0.353302 0.047440 0.000000 -0.000040 -0.008632
  4   2.033756 0.190472 -0.000128 -0.071051 -0.032982 -0.434699
  5   2.451511 0.204909 -0.003447 0.000000 -0.000005 0.165619
  6   7.247600 -0.397300 -0.109469 0.000001 0.000009 -0.531870
  7   -2.022252 -0.104661 3.136172 -0.261878 -1.363794 -2.355454
  8   1.168026 -0.537438 -0.063437 0.990700 0.283889 1.147924
  9   6.790376 -0.619176 0.015206 -0.000324 -0.000352 -0.643890
 10   8.637599 0.544015 -0.090417 -1.570112 0.000362 -0.069282
 11   6.790465 -0.619039 0.017802 -0.001130 -0.011310 -0.466042
 12   -2.022474 -0.104699 -2.873818 1.921462 2.103593 -0.637898
 13   1.167898 -0.537463 0.063297 -0.915441 -0.486317 1.579564
 14   7.002743 -0.617765 -0.183752 0.000229 0.000250 -0.739992
 15   8.209042 0.615527 -0.255885 1.570090 -0.000063 -0.069646
 16   7.002735 -0.617911 -0.183641 0.014439 0.004210 -0.536630
 17   1.574674 0.609930 -0.000899 0.133721 0.082747 0.574293
 18   -0.602177 0.511412 -0.000006 0.000000 0.000000 0.000000
 19   3.665960 0.313743 1.146658 -0.000002 -0.000014 -0.174510
 20   3.665954 0.313716 -1.090221 0.000007 -0.000003 -0.174546
 21   2.887637 1.322821 1.553437 0.000002 -0.000011 -0.000026
 22   -0.226528 -0.754099 0.477457 0.000194 -0.057459 0.890061
 23   2.907186 1.318940 -1.588113 0.000019 0.000002 -0.000024
 24   -0.078176 -0.558764 -0.547762 0.000187 -0.057484 0.890104
 25   3.956959 2.091091 1.523858 0.102271 -0.029427 -0.168396
 26   3.906194 2.137995 -1.516125 -0.141144 -0.028485 -0.183628
 27   3.289473 1.455197 1.514501 -0.000019 -0.000022 -0.000050
 28   3.291903 1.454803 -1.501142 -0.000002 -0.000009 -0.000024
 29   8.824059 0.150544 0.091743 0.109268 0.249422 -0.197925
 30   2.154055 -0.561179 1.690567 -0.001500 0.106957 0.007164
 31   2.183792 -0.561289 -1.783284 0.000276 -0.141862 0.007931
 32   -0.810489 -0.093824 3.127092 -0.036560 -3.125852 -0.722570
 33   14.298673 -0.408176 0.475484 -0.000100 -0.000042 -0.865072
 34   15.835795 0.581398 0.242756 -0.120099 0.066330 -0.198599
 35   -0.815868 -0.091229 -3.114430 2.841209 0.057666 1.722918
 36   14.294526 -0.410349 -0.463635 0.000105 0.000060 -1.839734
 37   15.834409 0.579420 -0.284600 0.070590 0.177494 -0.081845
 38   1.370161 -3.410779 -2.816000 0.049318 -0.072725 -0.475192
 39   -4.465555 -0.898599 -0.714929 0.007754 0.011613 -0.081192
 40   0.887625 -3.492739 3.229477 0.042772 -0.073966 -0.469328
 41   -4.363525 -0.977096 0.986911 0.000994 0.001127 -0.008049
 42   -0.688719 0.205069 -2.563610 0.083640 0.033672 0.677000
 43   -0.714851 -0.067101 2.775624 0.032010 -0.053710 0.676833
time 17
  0   0.231709 8.750267 -31.219332 0.000000 -1.151127 -1.571449
  1   -1.093036 0.000002 -0.326057 -1.570704 -1.570379 -0.000026
  2   2.262337 0.113614 0.064702 -0.062033 -0.031471 -0.469259
  3   2.380047 0.353302 0.047440 0.000000 -0.000040 0.042219
  4   2.033756 0.190472 -0.000128 -0.077045 -0.014202 -0.182855
  5   2.451511 0.204909 -0.003447 0.000000 -0.000005 -0.088499
  6   7.247600 -0.397300 -0.109469 0.000001 0.000009 -0.222111
  7   -2.022252 -0.104661 3.136172 -0.261686 -1.363794 -2.665180
  8   1.168026 -0.537438 -0.063437 0.858950 0.566656 0.944858
  9   6.790376 -0.619176 0.015206 -0.000324 -0.000352 -0.652795
 10   8.637599 0.544015 -0.090417 -1.570112 0.000362 -0.069282
 11   6.790465 -0.619039 0.017802 -0.001101 -0.011310 -0.472040
 12   -2.022474 -0.104699 -2.873818 -1.219286 1.038009 -4.088408
 13   1.167898 -0.537463 0.063297 -0.717001 -0.765906 1.313332
 14   7.002743 -0.617765 -0.183752 0.000229 0.000250 -0.727451
 15   8.209042 0.615527 -0.255885 1.570090 -0.000063 -0.069646
 16   7.002735 -0.617911 -0.183641 0.014439 0.004154 -0.527799
 17   1.574674 0.609930 -0.000899 0.159515 -0.014026 0.836938
 18   -0.602177 0.511412 -0.000006 0.000000 0.000000 0.000000
 19   3.665960 0.313743 1.146658 -0.000002 -0.000014 -0.174510
 20   3.665954 0.313716 -1.090221 0.000007 -0.000003 -0.174546
 21   2.887637 1.322821 1.553437 0.000002 -0.000011 -0.000026
 22   -0.226528 -0.754099 0.477457 0.000194 -0.057459 0.890061
 23   2.907186 1.318940 -1.588113 0.000019 0.000002 -0.000024
 24   -0.078176 -0.558764 -0.547762 0.000187 -0.057484 0.890104
 25   3.956959 2.091091 1.523858 0.102271 -0.029427 -0.168396
 26   3.906194 2.137995 -1.516125 -0.141144 -0.028485 -0.183628
 27   3.289473 1.455197 1.514501 -0.000019 -0.000022 -0.000050
 28   3.291903 1.454803 -1.501142 -0.000002 -0.000009 -0.000024
 29   8.824059 0.150544 0.091743 0.099554 0.266727 -0.336659
 30   2.154055 -0.553366 1.678848 -0.001595 0.115181 0.007722
 31   2.195511 -0.561289 -1.783284 0.000291 -0.152741 0.008550
 32   -0.810489 -0.093824 3.127092 -0.029756 -3.119835 -0.689043
 33   14.298673 -0.408176 0.475484 -0.000100 -0.000042 -0.873488
 34   15.835795 0.581398 0.242756 -0.117730 0.056251 -0.156437
 35   -0.815868 -0.091229 -3.114430 2.838128 0.049984 1.738529
 36   14.294526 -0.410349 -0.463635 0.000105 0.000060 -1.800108
 37   15.834409 0.579420 -0.284600 0.060719 0.193439 -0.214380
 38   1.393599 -3.402966 -2.808187 0.056938 -0.078413 -0.462118
 39   -4.465555 -0.879067 -0.714929 0.008329 0.013555 -0.084642
 40   0.864187 -3.500552 3.221664 0.049255 -0.079822 -0.455337
 41   -4.355712 -0.965377 0.990817 0.001042 0.001306 -0.008442
 42   -0.669187 0.333979 -2.544078 0.102504 0.038195 0.604942
 43   -0.714851 -0.012412 2.736560 0.036308 -0.071143 0.604733
time 18
  0   0.231709 8.996368 -32.324833 0.000000 -1.242787 -1.571449
  1   -1.093036 0.000002 -0.326057 -1.571543 -1.570703 0.000845
  2   2.262337 0.113614 0.064702 -0.065701 -0.022902 -0.334179
  3   2.380047 0.353302 0.047440 0.000000 -0.000040 0.107272
  4   2.033756 0.190472 -0.000128 -0.076842 0.015268 0.196760
  5   2.451511 0.204909 -0.003447 0.000000 -0.000005 -0.433383
  6   7.247600 -0.397300 -0.109469 0.000001 0.000009 0.060977
  7   -2.022252 -0.104661 3.136172 -0.261494 -1.363794 -2.947391
  8   1.168026 -0.537438 -0.063437 0.413899 0.884592 0.430614
  9   6.790376 -0.619176 0.015206 -0.000324 -0.000352 -0.643890
 10   8.637599 0.544015 -0.090417 -1.570112 0.000362 -0.069282
 11   6.790465 -0.619039 0.017802 -0.001130 -0.011310 -0.466042
 12   -2.022474 -0.104699 -2.873818 -1.219286 1.038038 -4.371610
 13   1.167898 -0.537463 0.063297 -0.122593 -0.999118 0.670937
 14   7.002743 -0.617765 -0.183752 0.000229 0.000250 -0.739992
 15   8.209042 0.615527 -0.255885 1.570090 -0.000063 -0.069646
 16   7.002735 -0.617911 -0.183641 0.014439 0.004210 -0.536630
 17   1.574674 0.609930 -0.000899 0.124785 -0.105428 1.021336
 18   -0.602177 0.511412 -0.000006 0.000000 0.000000 0.000000
 19   3.665960 0.313743 1.146658 -0.000002 -0.000014 -0.174510
 20   3.665954 0.313716 -1.090221 0.000007 -0.000003 -0.174546
 21   2.887637 1.322821 1.553437 0.000002 -0.000011 -0.000026
 22   -0.226528 -0.754099 0.477457 0.000194 -0.057459 0.890061
 23   2.907186 1.318940 -1.588113 0.000019 0.000002 -0.000024
 24   -0.078176 -0.558764 -0.547762 0.000187 -0.057484 0.890104
 25   3.956959 2.091091 1.523858 0.102271 -0.029427 -0.168396
 26   3.906194 2.137995 -1.516125 -0.141144 -0.028485 -0.183628
 27   3.289473 1.455197 1.514501 -0.000019 -0.000022 -0.000050
 28   3.291903 1.454803 -1.501142 -0.000002 -0.000009 -0.000024
 29   8.824059 0.150544 0.091743 0.089750 0.282750 -0.477914
 30   2.161868 -0.553366 1.671035 -0.001717 0.122882 0.008236
 31   2.195511 -0.561289 -1.771565 0.000322 -0.162842 0.009114
 32   -0.810489 -0.093824 3.127092 -0.024256 -3.110667 -0.684659
 33   14.298673 -0.408176 0.475484 -0.000100 -0.000042 -0.882063
 34   15.835795 0.581398 0.242756 -0.112531 0.046441 -0.143427
 35   -0.815868 -0.091229 -3.114430 2.841209 0.050265 1.789635
 36   14.294526 -0.410349 -0.463635 0.000105 0.000060 -1.735377
 37   15.834409 0.579420 -0.284600 0.057882 0.205802 -0.312640
 38   1.424850 -3.399060 -2.804281 0.064284 -0.083643 -0.449349
 39   -4.465555 -0.863442 -0.707116 0.008845 0.015424 -0.087334
 40   0.832936 -3.508365 3.217758 0.055549 -0.085209 -0.441652
 41   -4.340087 -0.945845 0.998630 0.001066 0.001486 -0.008666
 42   -0.657468 0.458983 -2.520640 0.121620 0.042534 0.531588
 43   -0.714851 0.038371 2.701403 0.040556 -0.088859 0.531295
time 19
  0   0.231709 9.242470 -33.856133 0.000000 -1.334269 -1.571449
  1   -1.093036 0.000002 -0.326057 -1.570704 -1.570379 -0.000123
  2   2.262337 0.113614 0.064702 -0.067790 -0.016071 -0.233976
  3   2.380047 0.353302 0.047440 0.000000 -0.000040 0.148124
  4   2.033756 0.190472 -0.000128 -0.071881 0.031292 0.408696
  5   2.451511 0.204909 -0.003447 0.000000 -0.000005 -0.601887
  6   7.247600 -0.397300 -0.109469 0.000001 0.000009 -0.293192
  7   -2.022252 -0.104661 3.136172 -0.261686 -1.363794 -2.594182
  8   1.168026 -0.537438 -0.063437 0.383714 0.885699 0.485967
  9   6.790376 -0.619176 0.015206 -0.000324 -0.000352 -0.609854
 10   8.637599 0.544015 -0.090417 -1.570112 0.000362 -0.069282
 11   6.790465 -0.619039 0.017802 -0.001276 -0.011310 -0.441934
 12   -2.022474 -0.104699 -2.873818 -1.219286 1.038009 -4.017272
 13   1.167898 -0.537463 0.063297 -0.130115 -1.020934 0.759802
 14   7.002743 -0.617765 -0.183752 0.000229 0.000250 -0.690489
 15   8.209042 0.615527 -0.255885 1.570090 -0.000063 -0.069646
 16   7.002735 -0.617911 -0.183641 0.014486 0.003872 -0.501969
 17   1.574674 0.609930 -0.000899 0.158622 -0.043941 0.828363
 18   -0.602177 0.511412 -0.000006 0.000000 0.000000 0.000000
 19   3.665960 0.313743 1.146658 -0.000002 -0.000014 -0.174510
 20   3.665954 0.313716 -1.090221 0.000007 -0.000003 -0.174546
 21   2.887637 1.322821 1.553437 0.000002 -0.000011 -0.000026
 22   -0.226528 -0.754099 0.477457 0.000194 -0.057459 0.890061
 23   2.907186 1.318940 -1.588113 0.000019 0.000002 -0.000024
 24   -0.078176 -0.558764 -0.547762 0.000187 -0.057484 0.890104
 25   3.956959 2.091091 1.523858 0.102271 -0.029427 -0.168396
 26   3.906194 2.137995 -1.516125 -0.141144 -0.028485 -0.183628
 27   3.289473 1.455197 1.514501 -0.000019 -0.000022 -0.000050
 28   3.291903 1.454803 -1.501142 -0.000002 -0.000009 -0.000024
 29   8.824059 0.150544 0.091743 0.080125 0.297230 -0.616648
 30   2.165774 -0.553366 1.671035 -0.001812 0.129944 0.008687
 31   2.203324 -0.561289 -1.771565 0.000322 -0.172167 0.009642
 32   -0.810489 -0.093824 3.127092 -0.019969 -3.103026 -0.670941
 33   14.298673 -0.408176 0.475484 -0.000100 -0.000042 -0.867613
 34   15.835795 0.581398 0.242756 -0.107839 0.038412 -0.143868
 35   -0.815868 -0.091229 -3.114430 -0.288235 3.082226 -1.250214
 36   14.294526 -0.410349 -0.463635 0.000105 0.000060 -1.635578
 37   15.834409 0.579420 -0.284600 0.067674 0.212892 -0.360959
 38   1.452195 -3.391247 -2.804281 0.071209 -0.088331 -0.437252
 39   -4.473368 -0.843910 -0.707116 0.009264 0.017222 -0.089354
 40   0.805591 -3.512271 3.217758 0.061421 -0.090041 -0.428700
 41   -4.332274 -0.934126 1.002536 0.001102 0.001678 -0.008891
 42   -0.637936 0.576174 -2.505014 0.140316 0.046643 0.459530
 43   -0.722664 0.081341 2.662339 0.044654 -0.106292 0.459196
time 20
  0   0.231709 9.242470 -33.867851 0.000000 -1.334269 -1.571449
  1   -1.093036 0.000002 -0.326057 -1.570704 -1.570379 -0.000123
  2   2.262337 0.113614 0.064702 -0.068020 -0.014501 -0.210809
  3   2.380047 0.353302 0.047440 0.000000 -0.000040 0.141635
  4   2.033756 0.190472 -0.000128 -0.075643 0.020566 0.264977
  5   2.451511 0.204909 -0.003447 0.000000 -0.000005 -0.404779
  6   7.247600 -0.397300 -0.109469 0.000001 0.000009 -0.680146
  7   -2.022252 -0.104661 3.136172 -0.261878 -1.363794 -2.206976
  8   1.168026 -0.537438 -0.063437 0.623800 0.768517 0.843009
  9   6.790376 -0.619176 0.015206 -0.000324 -0.000352 -0.565630
 10   8.637599 0.544015 -0.090417 -1.570112 0.000362 -0.069282
 11   6.790465 -0.619039 0.017802 -0.001422 -0.011253 -0.411193
 12   -2.022474 -0.104699 -2.873818 1.921462 2.103593 -0.489595
 13   1.167898 -0.537463 0.063297 -0.516944 -0.943587 1.248257
 14   7.002743 -0.617765 -0.183752 0.000229 0.000250 -0.626547
 15   8.209042 0.615527 -0.255885 1.570090 -0.000063 -0.069646
 16   7.002735 -0.617911 -0.183641 0.014533 0.003590 -0.457152
 17   1.574674 0.609930 -0.000899 0.160003 0.038538 0.649102
 18   -0.602177 0.511412 -0.000006 0.000000 0.000000 0.000000
 19   3.665960 0.313743 1.146658 -0.000002 -0.000014 -0.174510
 20   3.665954 0.313716 -1.090221 0.000007 -0.000003 -0.174546
 21   2.887637 1.322821 1.553437 0.000002 -0.000011 -0.000026
 22   -0.226528 -0.754099 0.477457 0.000194 -0.057459 0.890061
 23   2.907186 1.318940 -1.588113 0.000019 0.000002 -0.000024
 24   -0.078176 -0.558764 -0.547762 0.000187 -0.057484 0.890104
 25   3.956959 2.091091 1.523858 0.102271 -0.029427 -0.168396
 26   3.906194 2.137995 -1.516125 -0.141144 -0.028485 -0.183628
 27   3.289473 1.455197 1.514501 -0.000019 -0.000022 -0.000050
 28   3.291903 1.454803 -1.501142 -0.000002 -0.000009 -0.000024
 29   8.824059 0.150544 0.091743 0.071035 0.309977 -0.747818
 30   2.165774 -0.553366 1.659316 -0.001893 0.136221 0.009116
 31   2.207230 -0.561289 -1.763752 0.000337 -0.180429 0.010078
 32   -0.810489 -0.093824 3.127092 -0.019037 -3.098442 -0.632007
 33   14.298673 -0.408176 0.475484 -0.000100 -0.000042 -0.814972
 34   15.835795 0.581398 0.242756 -0.105125 0.033019 -0.157363
 35   -0.815868 -0.091229 -3.114430 -0.268079 3.066768 -1.113219
 36   14.294526 -0.410349 -0.463635 0.000105 0.000060 -1.509670
 37   15.834409 0.579420 -0.284600 0.084933 0.215247 -0.384941
 38   1.475633 -3.383434 -2.804281 0.077566 -0.092440 -0.426133
 39   -4.473368 -0.832191 -0.695397 0.009660 0.018864 -0.090812
 40   0.782153 -3.520084 3.217758 0.066852 -0.094307 -0.416848
 41   -4.324461 -0.922407 1.002536 0.001114 0.001834 -0.009031
 42   -0.618404 0.693365 -2.489389 0.157945 0.050384 0.391404
 43   -0.722664 0.132124 2.627182 0.048465 -0.122736 0.391027
time 21
  0   0.231709 9.242470 -34.492870 0.000000 -1.334269 -1.571449
  1   -1.093036 0.000002 -0.326057 -1.570704 -1.570379 -0.000123
  2   2.262337 0.113614 0.064702 -0.067981 -0.015292 -0.222429
  3   2.380047 0.353302 0.047440 0.000000 -0.000040 0.111006
  4   2.033756 0.190472 -0.000128 -0.078299 -0.003428 -0.046856
  5   2.451511 0.204909 -0.003447 0.000000 -0.000005 -0.031118
  6   7.247600 -0.397300 -0.109469 0.000001 0.000009 -0.581507
  7   -2.022252 -0.104661 3.136172 -0.261878 -1.363794 -2.305867
  8   1.168026 -0.537438 -0.063437 0.611207 0.784919 0.830863
  9   6.790376 -0.619176 0.015206 -0.000324 -0.000352 -0.565630
 10   8.637599 0.544015 -0.090417 -1.570112 0.000362 -0.069282
 11   6.790465 -0.619039 0.017802 -0.001422 -0.011253 -0.411193
 12   -2.022474 -0.104699 -2.873818 1.921462 2.103593 -0.588305
 13   1.167898 -0.537463 0.063297 -0.489459 -0.953198 1.222772
 14   7.002743 -0.617765 -0.183752 0.000229 0.000250 -0.626547
 15   8.209042 0.615527 -0.255885 1.570090 -0.000063 -0.069646
 16   7.002735 -0.617911 -0.183641 0.014533 0.003590 -0.457152
 17   1.574674 0.609930 -0.000899 0.162887 0.022208 0.612141
 18   -0.602177 0.511412 -0.000006 0.000000 0.000000 0.000000
 19   3.665960 0.313743 1.146658 -0.000002 -0.000014 -0.174510
 20   3.665954 0.313716 -1.090221 0.000007 -0.000003 -0.174546
 21   2.887637 1.322821 1.553437 0.000002 -0.000011 -0.000026
 22   -0.226528 -0.754099 0.477457 0.000194 -0.057459 0.890061
 23   2.907186 1.318940 -1.588113 0.000019 0.000002 -0.000024
 24   -0.078176 -0.558764 -0.547762 0.000187 -0.057484 0.890104
 25   3.956959 2.091091 1.523858 0.102271 -0.029427 -0.168396
 26   3.906194 2.137995 -1.516125 -0.141144 -0.028485 -0.183628
 27   3.289473 1.455197 1.514501 -0.000019 -0.000022 -0.000050
 28   3.291903 1.454803 -1.501142 -0.000002 -0.000009 -0.000024
 29   8.824059 0.150544 0.091743 0.062747 0.320897 -0.866380
 30   2.169681 -0.553366 1.659316 -0.001961 0.141626 0.009459
 31   2.207230 -0.561289 -1.759846 0.000368 -0.187578 0.010497
 32   -0.810489 -0.093824 3.127092 -0.019130 -3.095481 -0.583167
 33   14.298673 -0.408176 0.475484 -0.000100 -0.000042 -0.739226
 34   15.835795 0.581398 0.242756 -0.102985 0.029383 -0.184442
 35   -0.815868 -0.091229 -3.114430 -0.243171 3.051777 -0.961927
 36   14.294526 -0.410349 -0.463635 0.000105 0.000060 -1.373025
 37   15.834409 0.579420 -0.284600 0.104655 0.213532 -0.399340
 38   1.499071 -3.383434 -2.804281 0.083144 -0.095923 -0.416419
 39   -4.473368 -0.812659 -0.695397 0.009947 0.020314 -0.091766
 40   0.758715 -3.520084 3.217758 0.071588 -0.097910 -0.406279
 41   -4.308836 -0.914594 1.010349 0.001126 0.001965 -0.009143
 42   -0.598872 0.798837 -2.469857 0.173825 0.053696 0.329801
 43   -0.722664 0.175094 2.595931 0.051863 -0.137627 0.329383
time 22
  0   0.231709 9.242470 -34.965538 0.000000 -1.334269 -1.571449
  1   -1.093036 0.000002 -0.326057 -1.570704 -1.570379 -0.000123
  2   2.262337 0.113614 0.064702 -0.067790 -0.016071 -0.233976
  3   2.380047 0.353302 0.047440 0.000000 -0.000040 0.087050
  4   2.033756 0.190472 -0.000128 -0.075717 -0.020194 -0.260605
  5   2.451511 0.204909 -0.003447 0.000000 -0.000005 0.217923
  6   7.247600 -0.397300 -0.109469 0.000001 0.000009 -0.348561
  7   -2.022252 -0.104661 3.136172 -0.261686 -1.363794 -2.538491
  8   1.168026 -0.537438 -0.063437 0.615004 0.785825 0.833773
  9   6.790376 -0.619176 0.015206 -0.000324 -0.000352 -0.565630
 10   8.637599 0.544015 -0.090417 -1.570112 0.000362 -0.069282
 11   6.790465 -0.619039 0.017802 -0.001422 -0.011253 -0.411193
 12   -2.022474 -0.104699 -2.873818 -1.219286 1.038009 -3.961742
 13   1.167898 -0.537463 0.063297 -0.487350 -0.950401 1.221501
 14   7.002743 -0.617765 -0.183752 0.000229 0.000250 -0.626547
 15   8.209042 0.615527 -0.255885 1.570090 -0.000063 -0.069646
 16   7.002735 -0.617911 -0.183641 0.014533 0.003590 -0.457152
 17   1.574674 0.609930 -0.000899 0.163130 -0.017411 0.605488
 18   -0.602177 0.511412 -0.000006 0.000000 0.000000 0.000000
 19   3.665960 0.313743 1.146658 -0.000002 -0.000014 -0.174510
 20   3.665954 0.313716 -1.090221 0.000007 -0.000003 -0.174546
 21   2.887637 1.322821 1.553437 0.000002 -0.000011 -0.000026
 22   -0.226528 -0.754099 0.477457 0.000194 -0.057459 0.890061
 23   2.907186 1.318940 -1.588113 0.000019 0.000002 -0.000024
 24   -0.078176 -0.558764 -0.547762 0.000187 -0.057484 0.890104
 25   3.956959 2.091091 1.523858 0.102271 -0.029427 -0.168396
 26   3.906194 2.137995 -1.516125 -0.141144 -0.028485 -0.183628
 27   3.289473 1.455197 1.514501 -0.000019 -0.000022 -0.000050
 28   3.291903 1.454803 -1.501142 -0.000002 -0.000009 -0.000024
 29   8.824059 0.150544 0.091743 0.055795 0.329704 -0.967345
 30   2.173587 -0.553366 1.651503 -0.002015 0.146043 0.009780
 31   2.215043 -0.561289 -1.759846 0.000368 -0.193406 0.010806
 32   -0.810489 -0.093824 3.127092 -0.019596 -3.092616 -0.534613
 33   14.298673 -0.408176 0.475484 -0.000100 -0.000042 -0.663480
 34   15.835795 0.581398 0.242756 -0.101030 0.025576 -0.211609
 35   -0.815868 -0.091229 -3.114430 -0.217823 3.041940 -0.816881
 36   14.294526 -0.410349 -0.463635 0.000105 0.000060 -1.242174
 37   15.834409 0.579420 -0.284600 0.122210 0.210563 -0.418810
 38   1.510790 -3.379528 -2.804281 0.087796 -0.098706 -0.408110
 39   -4.473368 -0.804846 -0.695397 0.010211 0.021512 -0.092355
 40   0.746996 -3.523990 3.217758 0.075503 -0.100814 -0.397481
 41   -4.301023 -0.902875 1.010349 0.001138 0.002085 -0.009171
 42   -0.587153 0.892590 -2.458138 0.187331 0.056425 0.277316
 43   -0.722664 0.206345 2.576399 0.054712 -0.150322 0.276856
time 23
  0   0.231709 9.242470 -34.988979 0.000000 -1.334269 -1.571449
  1   -1.093036 0.000002 -0.326057 -1.570704 -1.570379 -0.000123
  2   2.262337 0.113614 0.064702 -0.067790 -0.016071 -0.233976
  3   2.380047 0.353302 0.047440 0.000000 -0.000040 0.082520
  4   2.033756 0.190472 -0.000128 -0.075809 -0.019751 -0.256074
  5   2.451511 0.204909 -0.003447 0.000000 -0.000005 0.201826
  6   7.247600 -0.397300 -0.109469 0.000001 0.000009 -0.348561
  7   -2.022252 -0.104661 3.136172 -0.261686 -1.363794 -2.538585
  8   1.168026 -0.537438 -0.063437 0.629242 0.773951 0.847184
  9   6.790376 -0.619176 0.015206 -0.000324 -0.000352 -0.565630
 10   8.637599 0.544015 -0.090417 -1.570112 0.000362 -0.069282
 11   6.790465 -0.619039 0.017802 -0.001422 -0.011253 -0.411193
 12   -2.022474 -0.104699 -2.873818 -1.219286 1.038009 -3.961742
 13   1.167898 -0.537463 0.063297 -0.507524 -0.939824 1.240327
 14   7.002743 -0.617765 -0.183752 0.000229 0.000250 -0.626547
 15   8.209042 0.615527 -0.255885 1.570090 -0.000063 -0.069646
 16   7.002735 -0.617911 -0.183641 0.014533 0.003590 -0.457152
 17   1.574674 0.609930 -0.000899 0.163130 -0.017766 0.621529
 18   -0.602177 0.511412 -0.000006 0.000000 0.000000 0.000000
 19   3.665960 0.313743 1.146658 -0.000002 -0.000014 -0.174510
 20   3.665954 0.313716 -1.090221 0.000007 -0.000003 -0.174546
 21   2.887637 1.322821 1.553437 0.000002 -0.000011 -0.000026
 22   -0.226528 -0.754099 0.477457 0.000194 -0.057459 0.890061
 23   2.907186 1.318940 -1.588113 0.000019 0.000002 -0.000024
 24   -0.078176 -0.558764 -0.547762 0.000187 -0.057484 0.890104
 25   3.956959 2.091091 1.523858 0.102271 -0.029427 -0.168396
 26   3.906194 2.137995 -1.516125 -0.141144 -0.028485 -0.183628
 27   3.289473 1.455197 1.514501 -0.000019 -0.000022 -0.000050
 28   3.291903 1.454803 -1.501142 -0.000002 -0.000009 -0.000024
 29   8.824059 0.150544 0.091743 0.050270 0.336208 -1.045672
 30   2.173587 -0.553366 1.647597 -0.002083 0.149327 0.009995
 31   2.215043 -0.561289 -1.759846 0.000383 -0.197732 0.011061
 32   -0.810489 -0.093824 3.127092 -0.019596 -3.092616 -0.534613
 33   14.298673 -0.408176 0.475484 -0.000100 -0.000042 -0.663480
 34   15.835795 0.581398 0.242756 -0.101030 0.025576 -0.211609
 35   -0.815868 -0.091229 -3.114430 -0.217823 3.041940 -0.816881
 36   14.294526 -0.410349 -0.463635 0.000105 0.000060 -1.242174
 37   15.834409 0.579420 -0.284600 0.122210 0.210563 -0.418810
 38   1.526416 -3.371715 -2.796468 0.091311 -0.100779 -0.401940
 39   -4.473368 -0.793127 -0.687584 0.010379 0.022435 -0.092663
 40   0.731370 -3.531803 3.209945 0.078492 -0.102959 -0.390761
 41   -4.301023 -0.895062 1.010349 0.001138 0.002169 -0.009199
 42   -0.575434 0.958998 -2.450325 0.197806 0.058495 0.236624
 43   -0.722664 0.237596 2.552961 0.056911 -0.160145 0.236122
time 24
  0   0.231709 9.242470 -34.863976 0.000000 -1.334269 -1.571449
  1   -1.093036 0.000002 -0.326057 -1.570704 -1.570379 -0.000123
  2   2.262337 0.113614 0.064702 -0.067790 -0.016071 -0.233976
  3   2.380047 0.353302 0.047440 0.000000 -0.000040 0.084785
  4   2.033756 0.190472 -0.000128 -0.077469 -0.011973 -0.154039
  5   2.451511 0.204909 -0.003447 0.000000 -0.000005 0.061530
  6   7.247600 -0.397300 -0.109469 0.000001 0.000009 -0.348561
  7   -2.022252 -0.104661 3.136172 -0.261686 -1.363794 -2.538491
  8   1.168026 -0.537438 -0.063437 0.658288 0.746177 0.874133
  9   6.790376 -0.619176 0.015206 -0.000324 -0.000352 -0.565630
 10   8.637599 0.544015 -0.090417 -1.570112 0.000362 -0.069282
 11   6.790465 -0.619039 0.017802 -0.001422 -0.011253 -0.411193
 12   -2.022474 -0.104699 -2.873818 -1.219286 1.038009 -3.961742
 13   1.167898 -0.537463 0.063297 -0.549982 -0.916024 1.280946
 14   7.002743 -0.617765 -0.183752 0.000229 0.000250 -0.626547
 15   8.209042 0.615527 -0.255885 1.570090 -0.000063 -0.069646
 16   7.002735 -0.617911 -0.183641 0.014533 0.003590 -0.457152
 17   1.574674 0.609930 -0.000899 0.163130 -0.017624 0.657085
 18   -0.602177 0.511412 -0.000006 0.000000 0.000000 0.000000
 19   3.665960 0.313743 1.146658 -0.000002 -0.000014 -0.174510
 20   3.665954 0.313716 -1.090221 0.000007 -0.000003 -0.174546
 21   2.887637 1.322821 1.553437 0.000002 -0.000011 -0.000026
 22   -0.226528 -0.754099 0.477457 0.000194 -0.057459 0.890061
 23   2.907186 1.318940 -1.588113 0.000019 0.000002 -0.000024
 24   -0.078176 -0.558764 -0.547762 0.000187 -0.057484 0.890104
 25   3.956959 2.091091 1.523858 0.102271 -0.029427 -0.168396
 26   3.906194 2.137995 -1.516125 -0.141144 -0.028485 -0.183628
 27   3.289473 1.455197 1.514501 -0.000019 -0.000022 -0.000050
 28   3.291903 1.454803 -1.501142 -0.000002 -0.000009 -0.000024
 29   8.824059 0.150544 0.091743 0.046794 0.340291 -1.096423
 30   2.173587 -0.553366 1.647597 -0.002110 0.151390 0.010123
 31   2.215043 -0.561289 -1.759846 0.000383 -0.200451 0.011225
 32   -0.810489 -0.093824 3.127092 -0.019596 -3.092616 -0.534613
 33   14.298673 -0.408176 0.475484 -0.000100 -0.000042 -0.663480
 34   15.835795 0.581398 0.242756 -0.101030 0.025576 -0.211609
 35   -0.815868 -0.091229 -3.114430 -0.217823 3.041940 -0.816881
 36   14.294526 -0.410349 -0.463635 0.000105 0.000060 -1.242174
 37   15.834409 0.579420 -0.284600 0.122210 0.210563 -0.418810
 38   1.538135 -3.371715 -2.796468 0.093542 -0.102044 -0.397907
 39   -4.473368 -0.793127 -0.683678 0.010487 0.023022 -0.092775
 40   0.719651 -3.531803 3.209945 0.080429 -0.104297 -0.386484
 41   -4.297117 -0.891156 1.018162 0.001138 0.002229 -0.009199
 42   -0.571528 1.001968 -2.446419 0.204565 0.059798 0.210276
 43   -0.722664 0.253221 2.537335 0.058335 -0.166515 0.209775
time 25
  0   0.231709 9.242470 -34.735065 0.000000 -1.334269 -1.571449
  1   -1.093036 0.000002 -0.326057 -1.570704 -1.570379 -0.000123
  2   2.262337 0.113614 0.064702 -0.067790 -0.016071 -0.233976
  3   2.380047 0.353302 0.047440 0.000000 -0.000040 0.087050
  4   2.033756 0.190472 -0.000128 -0.078262 -0.003991 -0.052366
  5   2.451511 0.204909 -0.003447 0.000000 -0.000005 -0.078395
  6   7.247600 -0.397300 -0.109469 0.000001 0.000009 -0.348561
  7   -2.022252 -0.104661 3.136172 -0.261686 -1.363794 -2.538491
  8   1.168026 -0.537438 -0.063437 0.685625 0.717951 0.899627
  9   6.790376 -0.619176 0.015206 -0.000324 -0.000352 -0.565630
 10   8.637599 0.544015 -0.090417 -1.570112 0.000362 -0.069282
 11   6.790465 -0.619039 0.017802 -0.001422 -0.011253 -0.411193
 12   -2.022474 -0.104699 -2.873818 -1.219286 1.038009 -3.961742
 13   1.167898 -0.537463 0.063297 -0.589979 -0.890954 1.318417
 14   7.002743 -0.617765 -0.183752 0.000229 0.000250 -0.626547
 15   8.209042 0.615527 -0.255885 1.570090 -0.000063 -0.069646
 16   7.002735 -0.617911 -0.183641 0.014533 0.003590 -0.457152
 17   1.574674 0.609930 -0.000899 0.163130 -0.017411 0.692642
 18   -0.602177 0.511412 -0.000006 0.000000 0.000000 0.000000
 19   3.665960 0.313743 1.146658 -0.000002 -0.000014 -0.174510
 20   3.665954 0.313716 -1.090221 0.000007 -0.000003 -0.174546
 21   2.887637 1.322821 1.553437 0.000002 -0.000011 -0.000026
 22   -0.226528 -0.754099 0.477457 0.000194 -0.057459 0.890061
 23   2.907186 1.318940 -1.588113 0.000019 0.000002 -0.000024
 24   -0.078176 -0.558764 -0.547762 0.000187 -0.057484 0.890104
 25   3.956959 2.091091 1.523858 0.102271 -0.029427 -0.168396
 26   3.906194 2.137995 -1.516125 -0.141144 -0.028485 -0.183628
 27   3.289473 1.455197 1.514501 -0.000019 -0.000022 -0.000050
 28   3.291903 1.454803 -1.501142 -0.000002 -0.000009 -0.000024
 29   8.824059 0.150544 0.091743 0.045547 0.341668 -1.114449
 30   2.173587 -0.553366 1.647597 -0.002110 0.152116 0.010166
 31   2.215043 -0.561289 -1.752033 0.000383 -0.201410 0.011261
 32   -0.810489 -0.093824 3.127092 -0.019596 -3.092616 -0.534613
 33   14.298673 -0.408176 0.475484 -0.000100 -0.000042 -0.663480
 34   15.835795 0.581398 0.242756 -0.101030 0.025576 -0.211609
 35   -0.815868 -0.091229 -3.114430 -0.217823 3.041940 -0.816881
 36   14.294526 -0.410349 -0.463635 0.000105 0.000060 -1.242174
 37   15.834409 0.579420 -0.284600 0.122210 0.210563 -0.418810
 38   1.538135 -3.371715 -2.796468 0.094342 -0.102478 -0.396502
 39   -4.473368 -0.793127 -0.683678 0.010510 0.023238 -0.092803
 40   0.719651 -3.531803 3.209945 0.081060 -0.104755 -0.384957
 41   -4.297117 -0.891156 1.018162 0.001138 0.002253 -0.009199
 42   -0.563715 1.021500 -2.446419 0.206962 0.060258 0.200909
 43   -0.722664 0.261034 2.533429 0.058835 -0.168791 0.200407
end
