version 1
nodes
  0 "Bip01" -1
  1 "Bip01 Pelvis" 0
  2 "Bip01 Spine" 1
  3 "Bip01 Spine1" 2
  4 "Bip01 Spine2" 3
  5 "Bip01 Spine3" 4
  6 "Bip01 Neck" 5
  7 "Bip01 L Arm" 6
  8 "Bip01 L Arm1" 7
  9 "Bip01 L Arm2" 8
 10 "Bip01 L Hand" 9
 11 "Bip06 L elbow2-smooth" 8
 12 "Bip01 R Arm" 6
 13 "Bip01 R Arm1" 12
 14 "Bip01 R Arm2" 13
 15 "Bip01 R Hand" 14
 16 "Bip06 R elbow2-smooth" 13
 17 "Bip01 Head" 6
 18 "Bip06 Head_helper" 17
 19 "Bip06 Head_eyes_l" 18
 20 "Bip06 Head_eyes_r" 18
 21 "Bip06 Head_blink_l" 18
 22 "Bip06 Head_blink_smooth_l1" 21
 23 "Bip06 Head_blink_r" 18
 24 "Bip06 Head_blink_smooth_r1" 23
 25 "Bip06 Head_L_eyebrow" 18
 26 "Bip06 Head_R_eyebrow" 18
 27 "Bip06 Head_blink_l_lid" 18
 28 "Bip06 Head_blink_r_lid" 18
 29 "Bip06 bunny" 18
 30 "Bip06 bunnyL" 29
 31 "Bip06 bunnyR" 29
 32 "Bip01 L Leg" 1
 33 "Bip01 L Leg1" 32
 34 "Bip01 L Foot" 33
 35 "Bip01 R Leg" 1
 36 "Bip01 R Leg1" 35
 37 "Bip01 R Foot" 36
 38 "Bip03 HairR1" 17
 39 "Bip03 HairR2" 38
 40 "Bip03 HairL1" 17
 41 "Bip03 HairL2" 40
 42 "Bip03 swingR" 17
 43 "Bip03 swingL" 17
end
skeleton
time 0
  0   0.255147 -0.093753 1.851990 0.000000 0.000000 -1.571449
  1   -1.093036 0.000002 -0.326057 -1.570652 -1.570379 0.000022
  2   2.262337 0.113614 0.064702 -0.069344 -0.007166 -0.103504
  3   2.380047 0.353302 0.047440 0.000000 -0.000040 -0.008632
  4   2.033756 0.190472 -0.000128 -0.078225 0.004794 0.060544
  5   2.451511 0.204909 -0.003447 0.000000 -0.000005 -0.017472
  6   7.247600 -0.397300 -0.109469 0.000001 0.000009 0.052298
  7   -2.022252 -0.104661 3.136172 -0.299166 -1.361862 -2.901749
  8   1.168026 -0.537438 -0.063437 0.555647 1.136113 0.768931
  9   6.790376 -0.619176 0.015206 -0.000324 -0.000352 -0.286627
 10   8.637599 0.544015 -0.090417 -1.570112 0.000362 -0.069282
 11   6.790465 -0.619039 0.017802 -0.002473 -0.010969 -0.215733
 12   -2.022474 -0.104699 -2.873818 0.298777 1.361800 -2.901792
 13   1.167898 -0.537463 0.063297 -0.658165 -1.227092 0.844127
 14   7.002743 -0.617765 -0.183752 0.000229 0.000250 -1.289478
 15   8.209042 0.615527 -0.255885 1.570090 -0.000063 -0.069646
 16   7.002735 -0.617911 -0.183641 0.013968 0.007086 -0.921268
 17   1.574674 0.609930 -0.000899 0.156956 -0.048982 0.292465
 18   -0.602177 0.511412 -0.000006 0.000000 0.000000 0.000000
 19   3.673773 0.177020 1.119313 -0.000002 -0.000014 -0.174510
 20   3.677673 0.176993 -1.117566 0.000007 -0.000003 -0.174546
 21   3.942357 1.338447 1.627658 0.000002 -0.000011 -0.000026
 22   -0.246060 -0.011889 0.516521 -0.000011 0.000031 0.000025
 23   3.942374 1.330659 -1.631083 0.000019 0.000002 -0.000024
 24   -0.246150 -0.011872 -0.516511 -0.000005 -0.000006 0.000048
 25   4.941364 1.997338 1.629330 0.000018 -0.000001 -0.000024
 26   4.941382 1.997366 -1.629410 -0.000001 0.000005 -0.000024
 27   2.918368 1.615358 1.514501 -0.000019 -0.000022 -0.000050
 28   2.920798 1.614964 -1.501142 -0.000002 -0.000009 -0.000024
 29   8.824059 0.150544 0.091743 0.000006 -0.000231 -0.174534
 30   2.111085 -0.561179 1.784320 -0.000008 -0.000682 0.000024
 31   2.121290 -0.561289 -1.853599 0.000000 0.000000 -0.000002
 32   -0.810489 -0.093824 3.127092 -0.055295 -3.106560 -0.210100
 33   14.298673 -0.408176 0.475484 -0.000088 -0.000042 -0.234016
 34   15.835795 0.581398 0.242756 -0.095464 -0.022329 0.023987
 35   -0.815868 -0.091229 -3.114430 0.257719 3.091220 0.081062
 36   14.294526 -0.410349 -0.463635 0.000105 0.000060 -0.126692
 37   15.834409 0.579420 -0.284600 -0.017992 0.068995 0.192656
 38   1.139685 -3.453749 -2.823813 0.000000 0.000000 0.000001
 39   -4.457742 -1.054854 -0.746180 0.000000 0.000000 0.000000
 40   1.118101 -3.449769 3.237290 0.000000 0.000001 0.000000
 41   -4.433840 -1.059130 0.959566 -0.000001 0.000000 0.000000
 42   -0.657468 1.697302 -2.688614 0.000000 0.000002 0.000000
 43   -0.664068 1.698578 2.869377 0.000000 0.000002 0.000000
time 1
  0   0.262960 3.234474 0.754300 0.000000 -0.092905 -1.571449
  1   -1.093036 0.000002 -0.326057 -1.570652 -1.570379 -0.000123
  2   2.262337 0.113614 0.064702 -0.068860 -0.009839 -0.143007
  3   2.380047 0.353302 0.047440 0.000000 -0.000040 -0.053585
  4   2.033756 0.190472 -0.000128 -0.073172 0.027984 0.363822
  5   2.451511 0.204909 -0.003447 0.000000 -0.000005 -0.716650
  6   7.247600 -0.397300 -0.109469 0.000001 0.000009 0.052298
  7   -2.022252 -0.104661 3.136172 -1.318999 -1.269877 -1.887201
  8   1.168026 -0.537438 -0.063437 1.151749 0.645247 1.126036
  9   6.790376 -0.619176 0.015206 -0.000324 -0.000352 -0.288061
 10   8.637599 0.544015 -0.090417 -1.570112 0.000362 -0.083534
 11   6.790465 -0.619039 0.017802 -0.002444 -0.010969 -0.216771
 12   -2.022474 -0.104699 -2.873818 1.318260 1.269765 -1.887224
 13   1.167898 -0.537463 0.063297 -1.294045 -0.642893 1.131425
 14   7.002743 -0.617765 -0.183752 0.000229 0.000250 -1.075624
 15   8.209042 0.615527 -0.255885 1.570090 -0.000063 -0.084620
 16   7.002735 -0.617911 -0.183641 0.014156 0.005902 -0.771696
 17   1.574674 0.609930 -0.000899 0.162765 0.016788 0.328871
 18   -0.602177 0.511412 -0.000006 0.000000 0.000000 0.000000
 19   3.673773 0.196552 1.119313 -0.000002 -0.000014 -0.174510
 20   3.673767 0.196525 -1.117566 0.000007 -0.000003 -0.174546
 21   3.825166 1.330634 1.619845 0.000002 -0.000011 -0.000026
 22   -0.246060 -0.082204 0.516521 0.000005 -0.005937 0.092568
 23   3.829089 1.330659 -1.631083 0.000019 0.000002 -0.000024
 24   -0.234431 -0.062655 -0.516511 0.000007 -0.005974 0.092593
 25   4.839798 2.005151 1.621517 0.010624 -0.003057 -0.017522
 26   4.835910 2.005179 -1.621597 -0.014658 -0.002939 -0.019103
 27   2.949619 1.603639 1.514501 -0.000019 -0.000022 -0.000050
 28   2.952049 1.603245 -1.501142 -0.000002 -0.000009 -0.000024
 29   8.824059 0.150544 0.091743 0.009542 -0.006783 -0.869438
 30   2.111085 -0.561179 1.784320 -0.000008 -0.000682 0.000024
 31   2.121290 -0.561289 -1.853599 0.000000 0.000000 -0.000002
 32   -0.810489 -0.093824 3.127092 0.061776 -3.093285 -0.343070
 33   14.298673 -0.408176 0.475484 -0.000088 -0.000042 -0.488328
 34   15.835795 0.581398 0.242756 -0.192049 -0.083607 0.059004
 35   -0.815868 -0.091229 -3.114430 0.065936 3.019267 -0.116405
 36   14.294526 -0.410349 -0.463635 0.000105 0.000060 -0.561190
 37   15.834409 0.579420 -0.284600 0.137893 0.134033 0.295023
 38   0.928741 -3.352183 -2.816000 0.058643 0.051805 0.417582
 39   -4.457742 -1.054854 -0.746180 0.000000 0.000000 0.000000
 40   1.329045 -3.551335 3.229477 0.058643 0.051819 0.417581
 41   -4.433840 -1.059130 0.959566 -0.000001 0.000000 0.000000
 42   -0.532464 2.287164 -2.696427 0.002421 -0.003724 -0.261716
 43   -0.558596 2.288440 2.861564 0.002424 -0.003717 -0.261716
time 2
  0   0.243428 5.656423 -0.069944 0.000000 -0.156649 -1.571449
  1   -1.093036 0.000002 -0.326057 -1.570652 -1.570379 -0.000123
  2   2.262337 0.113614 0.064702 -0.068758 -0.010690 -0.155729
  3   2.380047 0.353302 0.047440 0.000000 -0.000040 -0.060931
  4   2.033756 0.190472 -0.000128 -0.078336 0.000551 0.008348
  5   2.451511 0.204909 -0.003447 0.000000 -0.000005 -0.069603
  6   7.247600 -0.397300 -0.109469 0.000001 0.000009 0.052298
  7   -2.022252 -0.104661 3.136172 -1.649422 -1.047453 -1.533053
  8   1.168026 -0.537438 -0.063437 1.286853 0.866529 1.004386
  9   6.790376 -0.619176 0.015206 -0.000324 -0.000352 -0.289570
 10   8.637599 0.544015 -0.090417 -1.570112 0.000362 -0.097858
 11   6.790465 -0.619039 0.017802 -0.002444 -0.010969 -0.217867
 12   -2.022474 -0.104699 -2.873818 1.649178 1.047703 -1.532790
 13   1.167898 -0.537463 0.063297 -1.440820 -0.811776 0.889952
 14   7.002743 -0.617765 -0.183752 0.000229 0.000250 -0.861935
 15   8.209042 0.615527 -0.255885 1.570090 -0.000063 -0.099895
 16   7.002735 -0.617911 -0.183641 0.014345 0.004774 -0.621958
 17   1.574674 0.609930 -0.000899 0.154925 0.052028 -0.169881
 18   -0.602177 0.511412 -0.000006 0.000000 0.000000 0.000000
 19   3.665960 0.227803 1.127126 -0.000002 -0.000014 -0.174510
 20   3.665954 0.227776 -1.109753 0.000007 -0.000003 -0.174546
 21   3.575158 1.330634 1.600313 0.000002 -0.000011 -0.000026
 22   -0.246060 -0.273616 0.504802 0.000068 -0.020211 0.313241
 23   3.582988 1.330659 -1.619364 0.000019 0.000002 -0.000024
 24   -0.187554 -0.199378 -0.524324 0.000055 -0.020236 0.313348
 25   4.597603 2.028589 1.598079 0.036008 -0.010353 -0.059288
 26   4.581996 2.048149 -1.590346 -0.049665 -0.010024 -0.064645
 27   3.043372 1.564575 1.514501 -0.000019 -0.000022 -0.000050
 28   3.045802 1.564181 -1.501142 -0.000002 -0.000009 -0.000024
 29   8.824059 0.150544 0.091743 0.012483 -0.010225 -1.143097
 30   2.111085 -0.561179 1.784320 -0.000008 -0.000682 0.000024
 31   2.121290 -0.561289 -1.853599 0.000000 0.000000 -0.000002
 32   -0.810489 -0.093824 3.127092 0.155358 -3.092043 -0.405229
 33   14.298673 -0.408176 0.475484 -0.000088 -0.000042 -0.729222
 34   15.835795 0.581398 0.242756 -0.253372 -0.161186 0.130759
 35   -0.815868 -0.091229 -3.114430 -0.099180 3.001560 -0.256632
 36   14.294526 -0.410349 -0.463635 0.000105 0.000060 -0.852864
 37   15.834409 0.579420 -0.284600 0.250334 0.226304 0.369048
 38   0.928741 -3.359996 -2.816000 0.058559 0.050986 0.561459
 39   -4.457742 -1.054854 -0.746180 0.000000 0.000000 0.000000
 40   1.329045 -3.543522 3.229477 0.058559 0.050975 0.561520
 41   -4.433840 -1.059130 0.959566 -0.000001 0.000000 0.000000
 42   -0.532464 2.275445 -2.680801 0.008929 0.002946 -0.254272
 43   -0.539064 2.268908 2.838126 -0.003561 -0.018577 -0.250759
time 3
  0   0.169207 4.793115 0.098030 0.000000 -0.170518 -1.571449
  1   -1.093036 0.000002 -0.326057 -1.570652 -1.570379 -0.000123
  2   2.262337 0.113614 0.064702 -0.069408 -0.006591 -0.096113
  3   2.380047 0.353302 0.047440 0.000000 -0.000040 0.025935
  4   2.033756 0.190472 -0.000128 -0.069336 -0.036541 -0.484430
  5   2.451511 0.204909 -0.003447 0.000000 -0.000005 0.627767
  6   7.247600 -0.397300 -0.109469 0.000001 0.000009 0.052298
  7   -2.022252 -0.104661 3.136172 -1.739624 -0.842700 -1.399226
  8   1.168026 -0.537438 -0.063437 1.455052 1.197446 0.991987
  9   6.790376 -0.619176 0.015206 -0.000324 -0.000352 -0.290702
 10   8.637599 0.544015 -0.090417 -1.570112 0.000362 -0.069282
 11   6.790465 -0.619039 0.017802 -0.002473 -0.010969 -0.218674
 12   -2.022474 -0.104699 -2.873818 1.739237 0.842910 -1.399232
 13   1.167898 -0.537463 0.063297 -1.463243 -1.092383 0.622328
 14   7.002743 -0.617765 -0.183752 0.000229 0.000250 -0.653279
 15   8.209042 0.615527 -0.255885 1.570090 -0.000063 -0.106871
 16   7.002735 -0.617911 -0.183641 0.014486 0.003759 -0.475973
 17   1.574674 0.609930 -0.000899 0.162765 0.024764 -0.278288
 18   -0.602177 0.511412 -0.000006 0.000000 0.000000 0.000000
 19   3.665960 0.262960 1.138845 -0.000002 -0.000014 -0.174510
 20   3.665954 0.262933 -1.098034 0.000007 -0.000003 -0.174546
 21   3.258742 1.330634 1.576875 0.000002 -0.000011 -0.000026
 22   -0.238247 -0.488466 0.489176 0.000131 -0.037217 0.576779
 23   3.270478 1.322846 -1.599832 0.000019 0.000002 -0.000024
 24   -0.132865 -0.367352 -0.536043 0.000115 -0.037242 0.576804
 25   4.300719 2.059840 1.559015 0.066281 -0.019062 -0.109132
 26   4.269486 2.091119 -1.555189 -0.091455 -0.018444 -0.118983
 27   3.160563 1.517699 1.514501 -0.000019 -0.000022 -0.000050
 28   3.162993 1.517305 -1.501142 -0.000002 -0.000009 -0.000024
 29   8.824059 0.150544 0.091743 0.014176 -0.011958 -1.283655
 30   2.111085 -0.561179 1.784320 -0.000008 -0.000682 0.000024
 31   2.121290 -0.561289 -1.853599 0.000000 0.000000 -0.000002
 32   -0.810489 -0.093824 3.127092 0.170551 -3.082111 -0.228258
 33   14.298673 -0.408176 0.475484 -0.000088 -0.000042 -0.986948
 34   15.835795 0.581398 0.242756 -0.238835 -0.221024 0.327501
 35   -0.815868 -0.091229 -3.114430 -0.193883 3.026013 -0.261616
 36   14.294526 -0.410349 -0.463635 0.000105 0.000060 -0.861515
 37   15.834409 0.579420 -0.284600 0.342186 0.256353 0.369555
 38   0.928741 -3.371715 -2.816000 0.057927 0.048528 0.635445
 39   -4.457742 -1.054854 -0.746180 0.000000 0.000000 0.000000
 40   1.329045 -3.531803 3.229477 0.057927 0.048529 0.635383
 41   -4.433840 -1.059130 0.959566 -0.000001 0.000000 0.000000
 42   -0.540277 2.232475 -2.626112 0.018780 0.021667 -0.233487
 43   -0.527345 2.218125 2.806875 -0.020378 -0.044342 -0.220021
time 4
  0   0.094986 3.906369 0.973057 0.000000 -0.173985 -1.571449
  1   -1.093036 0.000002 -0.326057 -1.570652 -1.570379 -0.000123
  2   2.262337 0.113614 0.064702 -0.069586 -0.001629 -0.024209
  3   2.380047 0.353302 0.047440 0.000000 -0.000040 0.129412
  4   2.033756 0.190472 -0.000128 -0.077045 -0.014202 -0.182855
  5   2.451511 0.204909 -0.003447 0.000000 -0.000005 0.542475
  6   7.247600 -0.397300 -0.109469 0.000001 0.000009 0.052298
  7   -2.022252 -0.104661 3.136172 -1.739624 -0.842700 -1.399226
  8   1.168026 -0.537438 -0.063437 0.143881 1.622954 -0.278219
  9   6.790376 -0.619176 0.015206 -0.000324 -0.000352 -0.290702
 10   8.637599 0.544015 -0.090417 -1.570112 0.000362 0.182838
 11   6.790465 -0.619039 0.017802 -0.002473 -0.010969 -0.218674
 12   -2.022474 -0.104699 -2.873818 1.739237 0.842910 -1.399232
 13   1.167898 -0.537463 0.063297 -1.045274 -1.316848 0.173160
 14   7.002743 -0.617765 -0.183752 0.000229 0.000250 -0.472097
 15   8.209042 0.615527 -0.255885 1.570090 -0.000063 -0.069646
 16   7.002735 -0.617911 -0.183641 0.014580 0.002744 -0.348974
 17   1.574674 0.609930 -0.000899 0.162359 -0.028984 -0.260842
 18   -0.602177 0.511412 -0.000006 0.000000 0.000000 0.000000
 19   3.665960 0.302024 1.138845 -0.000002 -0.000014 -0.174510
 20   3.665954 0.301997 -1.098034 0.000007 -0.000003 -0.174546
 21   2.997015 1.322821 1.557343 0.000002 -0.000011 -0.000026
 22   -0.234341 -0.675972 0.477457 0.000162 -0.051491 0.797452
 23   3.016564 1.322846 -1.588113 0.000019 0.000002 -0.000024
 24   -0.089895 -0.507981 -0.547762 0.000163 -0.051516 0.797532
 25   4.054618 2.083278 1.535577 0.091628 -0.026358 -0.150874
 26   4.011666 2.122370 -1.527844 -0.126462 -0.025504 -0.164524
 27   3.254316 1.478635 1.514501 -0.000019 -0.000022 -0.000050
 28   3.256746 1.478241 -1.501142 -0.000002 -0.000009 -0.000024
 29   8.824059 0.150544 0.091743 0.014711 -0.012599 -1.335479
 30   2.111085 -0.561179 1.784320 -0.000008 -0.000682 0.000024
 31   2.121290 -0.561289 -1.853599 0.000000 0.000000 -0.000002
 32   -0.810489 -0.093824 3.127092 0.168780 -3.072369 -0.034723
 33   14.298673 -0.408176 0.475484 -0.000088 -0.000042 -1.115176
 34   15.835795 0.581398 0.242756 -0.223837 -0.246770 0.489137
 35   -0.815868 -0.091229 -3.114430 -0.268079 3.057867 -0.218562
 36   14.294526 -0.410349 -0.463635 0.000105 0.000060 -0.776315
 37   15.834409 0.579420 -0.284600 0.434176 0.254075 0.343950
 38   0.940460 -3.383434 -2.823813 0.056285 0.044467 0.662693
 39   -4.457742 -1.054854 -0.746180 0.000000 0.000000 0.000000
 40   1.317326 -3.520084 3.237290 0.056285 0.044468 0.662631
 41   -4.433840 -1.059130 0.959566 -0.000001 0.000000 0.000000
 42   -0.544183 2.169973 -2.536265 0.031352 0.050384 -0.201578
 43   -0.519532 2.139998 2.756092 -0.046191 -0.079036 -0.172847
time 5
  0   0.114518 5.375164 1.949649 0.000000 -0.171496 -1.571449
  1   -1.093036 0.000002 -0.326057 -1.570652 -1.570379 -0.000123
  2   2.262337 0.113614 0.064702 -0.069535 0.002506 0.035461
  3   2.380047 0.353302 0.047440 0.000000 -0.000040 0.235480
  4   2.033756 0.190472 -0.000128 -0.074758 0.023598 0.304196
  5   2.451511 0.204909 -0.003447 0.000000 -0.000005 0.226641
  6   7.247600 -0.397300 -0.109469 0.000001 0.000009 0.052298
  7   -2.022252 -0.104661 3.136172 -1.508223 -1.181842 -1.691297
  8   1.168026 -0.537438 -0.063437 -1.550896 1.176264 -1.636863
  9   6.790376 -0.619176 0.015206 -0.000324 -0.000352 -0.248063
 10   8.637599 0.544015 -0.090417 -1.570112 0.000362 0.204035
 11   6.790465 -0.619039 0.017802 -0.002619 -0.010912 -0.188914
 12   -2.022474 -0.104699 -2.873818 0.298777 1.361800 -2.901792
 13   1.167898 -0.537463 0.063297 -0.061297 -1.113334 -0.119284
 14   7.002743 -0.617765 -0.183752 0.000229 0.000250 -0.472097
 15   8.209042 0.615527 -0.255885 1.570090 -0.000063 0.261470
 16   7.002735 -0.617911 -0.183641 0.014580 0.002744 -0.349085
 17   1.574674 0.609930 -0.000899 0.144323 -0.077951 -0.206435
 18   -0.602177 0.511412 -0.000006 0.000000 0.000000 0.000000
 19   3.665960 0.313743 1.146658 -0.000002 -0.000014 -0.174510
 20   3.665954 0.313716 -1.090221 0.000007 -0.000003 -0.174546
 21   2.887637 1.322821 1.553437 0.000002 -0.000011 -0.000026
 22   -0.226528 -0.754099 0.477457 0.000194 -0.057459 0.890061
 23   2.907186 1.318940 -1.588113 0.000019 0.000002 -0.000024
 24   -0.078176 -0.558764 -0.547762 0.000187 -0.057484 0.890104
 25   3.956959 2.091091 1.523858 0.102271 -0.029427 -0.168396
 26   3.906194 2.137995 -1.516125 -0.141144 -0.028485 -0.183628
 27   3.289473 1.455197 1.514501 -0.000019 -0.000022 -0.000050
 28   3.291903 1.454803 -1.501142 -0.000002 -0.000009 -0.000024
 29   8.824059 0.150544 0.091743 0.014711 -0.012693 -1.342829
 30   2.111085 -0.561179 1.784320 -0.000008 -0.000682 0.000024
 31   2.121290 -0.561289 -1.853599 0.000000 0.000000 -0.000002
 32   -0.810489 -0.093824 3.127092 0.200751 -3.062914 0.032844
 33   14.298673 -0.408176 0.475484 -0.000088 -0.000042 -0.969957
 34   15.835795 0.581398 0.242756 -0.286541 -0.232396 0.539679
 35   -0.815868 -0.091229 -3.114430 -0.329161 3.087004 -0.163732
 36   14.294526 -0.410349 -0.463635 0.000105 0.000060 -0.664774
 37   15.834409 0.579420 -0.284600 0.516059 0.232575 0.306583
 38   0.952179 -3.399060 -2.823813 0.053128 0.038827 0.666603
 39   -4.457742 -1.054854 -0.746180 0.000000 0.000000 0.000000
 40   1.305607 -3.508365 3.237290 0.053128 0.038816 0.666541
 41   -4.433840 -1.059130 0.959566 -0.000001 0.000000 0.000000
 42   -0.555902 2.084033 -2.426887 0.046057 0.087151 -0.160719
 43   -0.515626 2.046245 2.689684 -0.079200 -0.120791 -0.112541
time 6
  0   0.157488 7.406476 2.426226 0.000000 -0.165628 -1.571449
  1   -1.093036 0.000002 -0.326057 -1.570652 -1.570379 -0.000123
  2   2.262337 0.113614 0.064702 -0.069586 0.001703 0.023498
  3   2.380047 0.353302 0.047440 0.000000 -0.000040 0.336610
  4   2.033756 0.190472 -0.000128 -0.046799 0.062751 0.928260
  5   2.451511 0.204909 -0.003447 0.000000 -0.000005 -0.457158
  6   7.247600 -0.397300 -0.109469 0.000001 0.000009 0.052298
  7   -2.022252 -0.104661 3.136172 -0.299166 -1.361862 -2.901749
  8   1.168026 -0.537438 -0.063437 -1.278980 0.967208 -1.086118
  9   6.790376 -0.619176 0.015206 -0.000324 -0.000352 -0.207386
 10   8.637599 0.544015 -0.090417 -1.570112 0.000362 0.182838
 11   6.790465 -0.619039 0.017802 -0.002765 -0.010912 -0.160307
 12   -2.022474 -0.104699 -2.873818 0.234395 1.359478 -2.964886
 13   1.167898 -0.537463 0.063297 0.576411 -1.005170 -0.832868
 14   7.002743 -0.617765 -0.183752 0.000229 0.000250 -0.392397
 15   8.209042 0.615527 -0.255885 1.570090 -0.000063 0.289314
 16   7.002735 -0.617911 -0.183641 0.014627 0.002406 -0.293340
 17   1.574674 0.609930 -0.000899 0.130472 -0.097831 -0.045914
 18   -0.602177 0.511412 -0.000006 0.000000 0.000000 0.000000
 19   3.665960 0.313743 1.146658 -0.000002 -0.000014 -0.174510
 20   3.665954 0.313716 -1.090221 0.000007 -0.000003 -0.174546
 21   2.887637 1.322821 1.553437 0.000002 -0.000011 -0.000026
 22   -0.226528 -0.754099 0.477457 0.000194 -0.057459 0.890061
 23   2.907186 1.318940 -1.588113 0.000019 0.000002 -0.000024
 24   -0.078176 -0.558764 -0.547762 0.000187 -0.057484 0.890104
 25   3.956959 2.091091 1.523858 0.102271 -0.029427 -0.168396
 26   3.906194 2.137995 -1.516125 -0.141144 -0.028485 -0.183628
 27   3.289473 1.455197 1.514501 -0.000019 -0.000022 -0.000050
 28   3.291903 1.454803 -1.501142 -0.000002 -0.000009 -0.000024
 29   8.824059 0.150544 0.091743 0.014711 -0.012693 -1.342829
 30   2.111085 -0.561179 1.784320 -0.000008 -0.000682 0.000024
 31   2.121290 -0.561289 -1.853599 0.000000 0.000000 -0.000002
 32   -0.810489 -0.093824 3.127092 0.239619 -3.051167 0.075706
 33   14.298673 -0.408176 0.475484 -0.000088 -0.000042 -0.715248
 34   15.835795 0.581398 0.242756 -0.372867 -0.171875 0.559525
 35   -0.815868 -0.091229 -3.114430 -0.381794 3.108740 -0.132290
 36   14.294526 -0.410349 -0.463635 0.000105 0.000060 -0.592860
 37   15.834409 0.579420 -0.284600 0.580446 0.216885 0.277531
 38   0.979524 -3.402966 -2.823813 0.047592 0.031585 0.581254
 39   -4.457742 -1.054854 -0.746180 0.000000 0.000000 0.000000
 40   1.282169 -3.500552 3.237290 0.047592 0.031586 0.581253
 41   -4.433840 -1.059130 0.959566 -0.000001 0.000000 0.000000
 42   -0.571528 1.982467 -2.297977 0.062260 0.129913 -0.113168
 43   -0.507813 1.929054 2.627182 -0.117632 -0.167677 -0.042323
time 7
  0   0.188739 9.668263 1.965275 0.000000 -0.159138 -1.571449
  1   -1.093036 0.000002 -0.326057 -1.570652 -1.570379 -0.000123
  2   2.262337 0.113614 0.064702 -0.069586 -0.001006 -0.015192
  3   2.380047 0.353302 0.047440 0.000000 -0.000040 0.286759
  4   2.033756 0.190472 -0.000128 -0.061516 0.048562 0.666267
  5   2.451511 0.204909 -0.003447 0.000000 -0.000005 -0.188799
  6   7.247600 -0.397300 -0.109469 0.000001 0.000009 0.052298
  7   -2.022252 -0.104661 3.136172 -0.299166 -1.361862 -2.901749
  8   1.168026 -0.537438 -0.063437 -1.135397 1.107132 -0.930118
  9   6.790376 -0.619176 0.015206 -0.000324 -0.000352 -0.215310
 10   8.637599 0.544015 -0.090417 -1.570112 0.000362 0.182838
 11   6.790465 -0.619039 0.017802 -0.002765 -0.010912 -0.165844
 12   -2.022474 -0.104699 -2.873818 0.298777 1.361800 -2.901792
 13   1.167898 -0.537463 0.063297 0.832704 -0.855001 -1.184151
 14   7.002743 -0.617765 -0.183752 0.000229 0.000250 -0.294463
 15   8.209042 0.615527 -0.255885 1.570090 -0.000063 0.261470
 16   7.002735 -0.617911 -0.183641 0.014674 0.002067 -0.224625
 17   1.574674 0.609930 -0.000899 0.130106 -0.099961 0.006128
 18   -0.602177 0.511412 -0.000006 0.000000 0.000000 0.000000
 19   3.665960 0.313743 1.146658 -0.000002 -0.000014 -0.174510
 20   3.665954 0.313716 -1.090221 0.000007 -0.000003 -0.174546
 21   2.887637 1.322821 1.553437 0.000002 -0.000011 -0.000026
 22   -0.226528 -0.754099 0.477457 0.000194 -0.057459 0.890061
 23   2.907186 1.318940 -1.588113 0.000019 0.000002 -0.000024
 24   -0.078176 -0.558764 -0.547762 0.000187 -0.057484 0.890104
 25   3.956959 2.091091 1.523858 0.102271 -0.029427 -0.168396
 26   3.906194 2.137995 -1.516125 -0.141144 -0.028485 -0.183628
 27   3.289473 1.455197 1.514501 -0.000019 -0.000022 -0.000050
 28   3.291903 1.454803 -1.501142 -0.000002 -0.000009 -0.000024
 29   8.824059 0.150544 0.091743 0.014711 -0.012693 -1.342829
 30   2.111085 -0.561179 1.784320 -0.000008 -0.000682 0.000024
 31   2.121290 -0.561289 -1.853599 0.000000 0.000000 -0.000002
 32   -0.810489 -0.093824 3.127092 0.278860 -3.043145 0.085326
 33   14.298673 -0.408176 0.475484 -0.000088 -0.000042 -0.506272
 34   15.835795 0.581398 0.242756 -0.435685 -0.112891 0.525963
 35   -0.815868 -0.091229 -3.114430 -0.395612 3.120077 -0.162198
 36   14.294526 -0.410349 -0.463635 0.000105 0.000060 -0.558023
 37   15.834409 0.579420 -0.284600 0.608305 0.168945 0.292133
 38   1.026400 -3.410779 -2.823813 0.040077 0.022450 0.378054
 39   -4.457742 -1.054854 -0.746180 0.000000 0.000000 0.000000
 40   1.231386 -3.492739 3.237290 0.040077 0.022451 0.378053
 41   -4.433840 -1.059130 0.959566 -0.000001 0.000000 0.000000
 42   -0.583247 1.876995 -2.149535 0.079362 0.176692 -0.061226
 43   -0.507813 1.804050 2.545148 -0.159662 -0.217795 0.034419
time 8
  0   0.239522 11.808954 0.351944 0.000000 -0.156649 -1.571449
  1   -1.093036 0.000002 -0.326057 -1.570652 -1.570379 -0.000123
  2   2.262337 0.113614 0.064702 -0.069535 -0.004014 -0.058219
  3   2.380047 0.353302 0.047440 0.000000 -0.000040 0.207198
  4   2.033756 0.190472 -0.000128 -0.074721 0.023658 0.304957
  5   2.451511 0.204909 -0.003447 0.000000 -0.000005 0.154796
  6   7.247600 -0.397300 -0.109469 0.000001 0.000009 0.052298
  7   -2.022252 -0.104661 3.136172 0.801475 -0.929035 -3.885868
  8   1.168026 -0.537438 -0.063437 -0.871264 0.954428 -0.150876
  9   6.790376 -0.619176 0.015206 -0.000324 -0.000352 -0.271005
 10   8.637599 0.544015 -0.090417 -1.570112 0.000362 0.182838
 11   6.790465 -0.619039 0.017802 -0.002590 -0.010969 -0.204947
 12   -2.022474 -0.104699 -2.873818 -0.801663 0.929111 -3.885724
 13   1.167898 -0.537463 0.063297 0.626601 -0.685559 -0.507009
 14   7.002743 -0.617765 -0.183752 0.000229 0.000250 -0.182668
 15   8.209042 0.615527 -0.255885 1.570090 -0.000063 0.261470
 16   7.002735 -0.617911 -0.183641 0.014721 0.001503 -0.146472
 17   1.574674 0.609930 -0.000899 0.136565 -0.092293 0.028009
 18   -0.602177 0.511412 -0.000006 0.000000 0.000000 0.000000
 19   3.665960 0.313743 1.146658 -0.000002 -0.000014 -0.174510
 20   3.665954 0.313716 -1.090221 0.000007 -0.000003 -0.174546
 21   2.887637 1.322821 1.553437 0.000002 -0.000011 -0.000026
 22   -0.226528 -0.754099 0.477457 0.000194 -0.057459 0.890061
 23   2.907186 1.318940 -1.588113 0.000019 0.000002 -0.000024
 24   -0.078176 -0.558764 -0.547762 0.000187 -0.057484 0.890104
 25   3.956959 2.091091 1.523858 0.102271 -0.029427 -0.168396
 26   3.906194 2.137995 -1.516125 -0.141144 -0.028485 -0.183628
 27   3.289473 1.455197 1.514501 -0.000019 -0.000022 -0.000050
 28   3.291903 1.454803 -1.501142 -0.000002 -0.000009 -0.000024
 29   8.824059 0.150544 0.091743 0.014711 -0.012693 -1.342829
 30   2.111085 -0.561179 1.784320 -0.000008 -0.000682 0.000024
 31   2.121290 -0.561289 -1.853599 0.000000 0.000000 -0.000002
 32   -0.810489 -0.093824 3.127092 0.311763 -3.044673 0.052482
 33   14.298673 -0.408176 0.475484 -0.000088 -0.000042 -0.499523
 34   15.835795 0.581398 0.242756 -0.458273 -0.146666 0.438507
 35   -0.815868 -0.091229 -3.114430 -0.390772 3.124761 -0.226122
 36   14.294526 -0.410349 -0.463635 0.000105 0.000060 -0.677751
 37   15.834409 0.579420 -0.284600 0.579500 0.237899 0.270078
 38   1.088902 -3.414685 -2.823813 0.031847 0.011135 0.135325
 39   -4.457742 -1.054854 -0.746180 0.000000 0.000000 0.000000
 40   1.168884 -3.488833 3.237290 0.031847 0.011136 0.135324
 41   -4.433840 -1.059130 0.959566 -0.000001 0.000000 0.000000
 42   -0.598872 1.767617 -2.001093 0.096752 0.225464 -0.006942
 43   -0.507813 1.686859 2.467021 -0.203479 -0.269169 0.114506
time 9
  0   0.239522 11.808954 -3.648178 0.000000 -0.156649 -1.571449
  1   -1.093036 0.000002 -0.326057 -1.570652 -1.570379 -0.000123
  2   2.262337 0.113614 0.064702 -0.069344 -0.006998 -0.101264
  3   2.380047 0.353302 0.047440 0.000000 -0.000040 0.128147
  4   2.033756 0.190472 -0.000128 -0.076602 0.016683 0.213506
  5   2.451511 0.204909 -0.003447 0.000000 -0.000005 0.105711
  6   7.247600 -0.397300 -0.109469 0.000001 0.000009 0.052298
  7   -2.022252 -0.104661 3.136172 0.900113 -1.072100 -4.030589
  8   1.168026 -0.537438 -0.063437 -0.056971 1.204591 0.653291
  9   6.790376 -0.619176 0.015206 -0.000324 -0.000352 -0.329266
 10   8.637599 0.544015 -0.090417 -1.575308 0.000362 0.182838
 11   6.790465 -0.619039 0.017802 -0.002298 -0.010997 -0.245550
 12   -2.022474 -0.104699 -2.873818 -0.900056 1.072112 -4.030867
 13   1.167898 -0.537463 0.063297 0.209265 -1.074279 -0.056570
 14   7.002743 -0.617765 -0.183752 0.000229 0.000250 -0.255108
 15   8.209042 0.615527 -0.255885 1.570090 -0.000063 0.261470
 16   7.002735 -0.617911 -0.183641 0.014674 0.001898 -0.197139
 17   1.574674 0.609930 -0.000899 0.146639 -0.075608 0.115310
 18   -0.602177 0.511412 -0.000006 0.000000 0.000000 0.000000
 19   3.665960 0.313743 1.146658 -0.000002 -0.000014 -0.174510
 20   3.665954 0.313716 -1.090221 0.000007 -0.000003 -0.174546
 21   2.887637 1.322821 1.553437 0.000002 -0.000011 -0.000026
 22   -0.226528 -0.754099 0.477457 0.000194 -0.057459 0.890061
 23   2.907186 1.318940 -1.588113 0.000019 0.000002 -0.000024
 24   -0.078176 -0.558764 -0.547762 0.000187 -0.057484 0.890104
 25   3.956959 2.091091 1.523858 0.102271 -0.029427 -0.168396
 26   3.906194 2.137995 -1.516125 -0.141144 -0.028485 -0.183628
 27   3.289473 1.455197 1.514501 -0.000019 -0.000022 -0.000050
 28   3.291903 1.454803 -1.501142 -0.000002 -0.000009 -0.000024
 29   8.824059 0.150544 0.091743 0.014711 -0.012693 -1.342829
 30   2.111085 -0.561179 1.784320 -0.000008 -0.000682 0.000024
 31   2.121290 -0.561289 -1.853599 0.000000 0.000000 -0.000002
 32   -0.810489 -0.093824 3.127092 0.327888 -3.072083 -0.035918
 33   14.298673 -0.408176 0.475484 -0.000088 -0.000042 -0.809176
 34   15.835795 0.581398 0.242756 -0.371556 -0.324935 0.257246
 35   -0.815868 -0.091229 -3.114430 -0.407846 3.129446 -0.282760
 36   14.294526 -0.410349 -0.463635 0.000105 0.000060 -1.035005
 37   15.834409 0.579420 -0.284600 0.407125 0.503271 0.103217
 38   1.139685 -3.414685 -2.823813 0.024101 -0.002723 -0.067875
 39   -4.457742 -1.054854 -0.746180 0.000000 0.000000 0.000000
 40   1.118101 -3.488833 3.237290 0.024101 -0.002722 -0.067876
 41   -4.433840 -1.059130 0.959566 -0.000001 0.000000 0.000000
 42   -0.618404 1.666051 -1.856557 0.113806 0.274236 0.047174
 43   -0.507813 1.554042 2.377174 -0.247308 -0.319930 0.194594
time 10
  0   0.239522 11.808954 -9.812428 0.000000 -0.156649 -1.571449
  1   -1.093036 0.000002 -0.326057 -1.570652 -1.570379 -0.000123
  2   2.262337 0.113614 0.064702 -0.068924 -0.009623 -0.138291
  3   2.380047 0.353302 0.047440 0.000000 -0.000040 0.060972
  4   2.033756 0.190472 -0.000128 -0.077727 0.010247 0.130138
  5   2.451511 0.204909 -0.003447 0.000000 -0.000005 0.052144
  6   7.247600 -0.397300 -0.109469 0.000001 0.000009 0.052298
  7   -2.022252 -0.104661 3.136172 1.159121 -1.333065 -4.342664
  8   1.168026 -0.537438 -0.063437 1.038540 1.033472 1.571895
  9   6.790376 -0.619176 0.015206 -0.000324 -0.000352 -0.388206
 10   8.637599 0.544015 -0.090417 -1.580328 0.000362 0.182838
 11   6.790465 -0.619039 0.017802 -0.002152 -0.011054 -0.287019
 12   -2.022474 -0.104699 -2.873818 -1.158257 1.333066 -4.342026
 13   1.167898 -0.537463 0.063297 -1.045766 -1.165560 1.045587
 14   7.002743 -0.617765 -0.183752 0.000229 0.000250 -0.361045
 15   8.209042 0.615527 -0.255885 1.570090 -0.000063 0.261470
 16   7.002735 -0.617911 -0.183641 0.014627 0.002180 -0.271318
 17   1.574674 0.609930 -0.000899 0.155981 -0.052390 0.156411
 18   -0.602177 0.511412 -0.000006 0.000000 0.000000 0.000000
 19   3.665960 0.313743 1.146658 -0.000002 -0.000014 -0.174510
 20   3.665954 0.313716 -1.090221 0.000007 -0.000003 -0.174546
 21   2.887637 1.322821 1.553437 0.000002 -0.000011 -0.000026
 22   -0.226528 -0.754099 0.477457 0.000194 -0.057459 0.890061
 23   2.907186 1.318940 -1.588113 0.000019 0.000002 -0.000024
 24   -0.078176 -0.558764 -0.547762 0.000187 -0.057484 0.890104
 25   3.956959 2.091091 1.523858 0.102271 -0.029427 -0.168396
 26   3.906194 2.137995 -1.516125 -0.141144 -0.028485 -0.183628
 27   3.289473 1.455197 1.514501 -0.000019 -0.000022 -0.000050
 28   3.291903 1.454803 -1.501142 -0.000002 -0.000009 -0.000024
 29   8.824059 0.150544 0.091743 0.014711 -0.012693 -1.342829
 30   2.111085 -0.561179 1.784320 -0.000008 -0.000682 0.000024
 31   2.121290 -0.561289 -1.853599 0.000000 0.000000 -0.000002
 32   -0.810489 -0.093824 3.127092 0.329566 -3.117830 -0.170994
 33   14.298673 -0.408176 0.475484 -0.000088 -0.000042 -1.327407
 34   15.835795 0.581398 0.242756 -0.078718 -0.477873 -0.080448
 35   -0.815868 -0.091229 -3.114430 -0.429850 3.134505 -0.339015
 36   14.294526 -0.410349 -0.463635 0.000105 0.000060 -1.483253
 37   15.834409 0.579420 -0.284600 -0.041989 0.654181 -0.273904
 38   1.202187 -3.414685 -2.823813 0.018060 -0.019510 -0.153102
 39   -4.457742 -1.054854 -0.746180 0.000000 0.000000 0.000000
 40   1.055599 -3.488833 3.237290 0.018060 -0.019509 -0.153103
 41   -4.433840 -1.059130 0.959566 -0.000001 0.000000 0.000000
 42   -0.630123 1.552766 -1.715928 0.129913 0.321030 0.099158
 43   -0.507813 1.432945 2.291234 -0.289338 -0.368135 0.271377
time 11
  0   0.239522 11.808954 -16.410286 0.000000 -0.156649 -1.571449
  1   -1.093036 0.000002 -0.326057 -1.570652 -1.570379 -0.000171
  2   2.262337 0.113614 0.064702 -0.068758 -0.010534 -0.153145
  3   2.380047 0.353302 0.047440 0.000000 -0.000040 0.020344
  4   2.033756 0.190472 -0.000128 -0.076842 -0.015256 -0.198260
  5   2.451511 0.204909 -0.003447 0.000000 -0.000005 0.364758
  6   7.247600 -0.397300 -0.109469 0.000001 0.000009 0.052298
  7   -2.022252 -0.104661 3.136172 2.409396 -1.490485 -5.604392
  8   1.168026 -0.537438 -0.063437 1.352032 0.865724 1.676338
  9   6.790376 -0.619176 0.015206 -0.000324 -0.000352 -0.459674
 10   8.637599 0.544015 -0.090417 -1.570112 0.000362 0.182838
 11   6.790465 -0.619039 0.017802 -0.001860 -0.011168 -0.336908
 12   -2.022474 -0.104699 -2.873818 -2.407197 1.490434 -5.603415
 13   1.167898 -0.537463 0.063297 -1.520744 -1.005831 1.325439
 14   7.002743 -0.617765 -0.183752 0.000229 0.000250 -0.452791
 15   8.209042 0.615527 -0.255885 1.570090 -0.000063 0.261470
 16   7.002735 -0.617911 -0.183641 0.014627 0.002744 -0.335507
 17   1.574674 0.609930 -0.000899 0.162277 -0.025458 0.036473
 18   -0.602177 0.511412 -0.000006 0.000000 0.000000 0.000000
 19   3.665960 0.313743 1.146658 -0.000002 -0.000014 -0.174510
 20   3.665954 0.313716 -1.090221 0.000007 -0.000003 -0.174546
 21   2.887637 1.322821 1.553437 0.000002 -0.000011 -0.000026
 22   -0.226528 -0.754099 0.477457 0.000194 -0.057459 0.890061
 23   2.907186 1.318940 -1.588113 0.000019 0.000002 -0.000024
 24   -0.078176 -0.558764 -0.547762 0.000187 -0.057484 0.890104
 25   3.956959 2.091091 1.523858 0.102271 -0.029427 -0.168396
 26   3.906194 2.137995 -1.516125 -0.141144 -0.028485 -0.183628
 27   3.289473 1.455197 1.514501 -0.000019 -0.000022 -0.000050
 28   3.291903 1.454803 -1.501142 -0.000002 -0.000009 -0.000024
 29   8.824059 0.150544 0.091743 0.014711 -0.012693 -1.342829
 30   2.111085 -0.561179 1.784320 -0.000008 -0.000682 0.000024
 31   2.121290 -0.561289 -1.853599 0.000000 0.000000 -0.000002
 32   -0.810489 -0.093824 3.127092 0.329566 -3.155363 -0.327246
 33   14.298673 -0.408176 0.475484 -0.000088 -0.000042 -1.878192
 34   15.835795 0.581398 0.242756 0.278915 -0.398390 -0.466214
 35   -0.815868 -0.091229 -3.114430 -0.447629 3.140313 -0.406389
 36   14.294526 -0.410349 -0.463635 0.000105 0.000060 -1.927020
 37   15.834409 0.579420 -0.284600 -0.485055 0.481336 -0.640327
 38   1.252970 -3.399060 -2.823813 0.014545 -0.038381 0.002934
 39   -4.457742 -1.054854 -0.746180 0.000000 0.000000 0.000000
 40   1.004816 -3.508365 3.237290 0.014545 -0.038380 0.002933
 41   -4.433840 -1.059130 0.959566 -0.000001 0.000000 0.000000
 42   -0.645749 1.455107 -1.583111 0.144462 0.363792 0.146667
 43   -0.507813 1.319660 2.205294 -0.327745 -0.411898 0.341553
time 12
  0   0.239522 11.808954 -21.543255 0.000000 -0.156649 -1.571449
  1   -1.093036 0.000002 -0.326057 -1.570652 -1.570379 -0.000123
  2   2.262337 0.113614 0.064702 -0.068682 -0.012020 -0.173077
  3   2.380047 0.353302 0.047440 0.000000 -0.000040 0.026221
  4   2.033756 0.190472 -0.000128 -0.071346 -0.032274 -0.426072
  5   2.451511 0.204909 -0.003447 0.000000 -0.000005 0.628089
  6   7.247600 -0.397300 -0.109469 0.000001 0.000009 0.052298
  7   -2.022252 -0.104661 3.136172 -0.299166 -1.361862 -2.901749
  8   1.168026 -0.537438 -0.063437 0.969944 0.793322 1.272800
  9   6.790376 -0.619176 0.015206 -0.000324 -0.000352 -0.596119
 10   8.637599 0.544015 -0.090417 -1.477292 0.000362 0.182838
 11   6.790465 -0.619039 0.017802 -0.001276 -0.011253 -0.432533
 12   -2.022474 -0.104699 -2.873818 0.298777 1.361800 -2.901984
 13   1.167898 -0.537463 0.063297 -1.085975 -0.821031 0.868099
 14   7.002743 -0.617765 -0.183752 0.000229 0.000250 -0.454936
 15   8.209042 0.615527 -0.255885 1.570090 -0.000063 0.261470
 16   7.002735 -0.617911 -0.183641 0.014627 0.002744 -0.337108
 17   1.574674 0.609930 -0.000899 0.164024 -0.001033 -0.138834
 18   -0.602177 0.511412 -0.000006 0.000000 0.000000 0.000000
 19   3.665960 0.313743 1.146658 -0.000002 -0.000014 -0.174510
 20   3.665954 0.313716 -1.090221 0.000007 -0.000003 -0.174546
 21   2.887637 1.322821 1.553437 0.000002 -0.000011 -0.000026
 22   -0.226528 -0.754099 0.477457 0.000194 -0.057459 0.890061
 23   2.907186 1.318940 -1.588113 0.000019 0.000002 -0.000024
 24   -0.078176 -0.558764 -0.547762 0.000187 -0.057484 0.890104
 25   3.956959 2.091091 1.523858 0.102271 -0.029427 -0.168396
 26   3.906194 2.137995 -1.516125 -0.141144 -0.028485 -0.183628
 27   3.289473 1.455197 1.514501 -0.000019 -0.000022 -0.000050
 28   3.291903 1.454803 -1.501142 -0.000002 -0.000009 -0.000024
 29   8.824059 0.150544 0.091743 0.014711 -0.012693 -1.342829
 30   2.111085 -0.561179 1.784320 -0.000008 -0.000682 0.000024
 31   2.121290 -0.561289 -1.853599 0.000000 0.000000 -0.000002
 32   -0.810489 -0.093824 3.127092 0.351097 -3.160043 -0.477577
 33   14.298673 -0.408176 0.475484 -0.000088 -0.000042 -2.283916
 34   15.835795 0.581398 0.242756 0.466863 -0.181197 -0.703045
 35   -0.815868 -0.091229 -3.114430 -0.452910 3.143874 -0.495729
 36   14.294526 -0.410349 -0.463635 0.000105 0.000060 -2.272687
 37   15.834409 0.579420 -0.284600 -0.643048 0.199557 -0.793802
 38   1.288127 -3.359996 -2.823813 0.012419 -0.054288 0.292766
 39   -4.457742 -1.054854 -0.746180 0.000000 0.000000 0.000000
 40   0.969659 -3.543522 3.237290 0.012419 -0.054287 0.292765
 41   -4.433840 -1.059130 0.959566 -0.000001 0.000000 0.000000
 42   -0.657468 1.373073 -1.473733 0.156842 0.400528 0.187526
 43   -0.496094 1.222001 2.119354 -0.360767 -0.449244 0.401901
time 13
  0   0.239522 11.808954 -24.363653 0.000000 -0.156649 -1.571449
  1   -1.093036 0.000002 -0.326057 -1.570652 -1.570379 -0.000123
  2   2.262337 0.113614 0.064702 -0.067930 -0.015591 -0.225971
  3   2.380047 0.353302 0.047440 0.000000 -0.000040 0.120515
  4   2.033756 0.190472 -0.000128 -0.076602 -0.016647 -0.215006
  5   2.451511 0.204909 -0.003447 0.000000 -0.000005 0.484400
  6   7.247600 -0.397300 -0.109469 0.000001 0.000009 0.052298
  7   -2.022252 -0.104661 3.136172 -0.389848 -1.328914 -2.815442
  8   1.168026 -0.537438 -0.063437 0.841738 0.897724 1.111233
  9   6.790376 -0.619176 0.015206 -0.000324 -0.000352 -0.665398
 10   8.637599 0.544015 -0.090417 -1.384295 0.000362 0.182838
 11   6.790465 -0.619039 0.017802 -0.001013 -0.011310 -0.480922
 12   -2.022474 -0.104699 -2.873818 0.389219 1.328770 -2.815530
 13   1.167898 -0.537463 0.063297 -0.848240 -0.929501 0.585462
 14   7.002743 -0.617765 -0.183752 0.000229 0.000250 -0.345864
 15   8.209042 0.615527 -0.255885 1.570090 -0.000063 0.261470
 16   7.002735 -0.617911 -0.183641 0.014627 0.002180 -0.260721
 17   1.574674 0.609930 -0.000899 0.163659 0.016007 -0.333433
 18   -0.602177 0.511412 -0.000006 0.000000 0.000000 0.000000
 19   3.665960 0.313743 1.146658 -0.000002 -0.000014 -0.174510
 20   3.665954 0.313716 -1.090221 0.000007 -0.000003 -0.174546
 21   2.887637 1.322821 1.553437 0.000002 -0.000011 -0.000026
 22   -0.226528 -0.754099 0.477457 0.000194 -0.057459 0.890061
 23   2.907186 1.318940 -1.588113 0.000019 0.000002 -0.000024
 24   -0.078176 -0.558764 -0.547762 0.000187 -0.057484 0.890104
 25   3.956959 2.091091 1.523858 0.102271 -0.029427 -0.168396
 26   3.906194 2.137995 -1.516125 -0.141144 -0.028485 -0.183628
 27   3.289473 1.455197 1.514501 -0.000019 -0.000022 -0.000050
 28   3.291903 1.454803 -1.501142 -0.000002 -0.000009 -0.000024
 29   8.824059 0.150544 0.091743 0.014711 -0.012693 -1.342829
 30   2.111085 -0.561179 1.784320 -0.000008 -0.000682 0.000024
 31   2.121290 -0.561289 -1.853599 0.000000 0.000000 -0.000002
 32   -0.810489 -0.093824 3.127092 0.441137 -3.103217 -0.645440
 33   14.298673 -0.408176 0.475484 -0.000088 -0.000042 -2.437075
 34   15.835795 0.581398 0.242756 0.580907 0.003490 -0.821901
 35   -0.815868 -0.091229 -3.114430 -0.431698 3.139751 -0.648609
 36   14.294526 -0.410349 -0.463635 0.000105 0.000060 -2.449267
 37   15.834409 0.579420 -0.284600 -0.644801 0.046292 -0.864886
 38   1.303753 -3.348277 -2.823813 0.010209 -0.060964 0.448801
 39   -4.457742 -1.054854 -0.746180 0.000000 0.000000 0.000000
 40   0.954033 -3.555241 3.237290 0.010209 -0.060963 0.448800
 41   -4.433840 -1.059130 0.959566 -0.000001 0.000000 0.000000
 42   -0.657468 1.306665 -1.387793 0.166466 0.429261 0.219477
 43   -0.488281 1.139967 2.033414 -0.386592 -0.478320 0.449075
time 14
  0   0.239522 11.808954 -25.684006 0.000000 -0.156649 -1.571449
  1   -1.093036 0.000002 -0.326057 -1.570652 -1.570379 -0.000171
  2   2.262337 0.113614 0.064702 -0.066529 -0.020253 -0.295019
  3   2.380047 0.353302 0.047440 0.000000 -0.000040 0.252906
  4   2.033756 0.190472 -0.000128 -0.076639 0.016275 0.208359
  5   2.451511 0.204909 -0.003447 0.000000 -0.000005 0.130675
  6   7.247600 -0.397300 -0.109469 0.000001 0.000009 0.052298
  7   -2.022252 -0.104661 3.136172 -0.512642 -1.327184 -2.695233
  8   1.168026 -0.537438 -0.063437 0.677905 1.041673 0.906206
  9   6.790376 -0.619176 0.015206 -0.000324 -0.000352 -0.725772
 10   8.637599 0.544015 -0.090417 -1.291299 0.000362 0.182838
 11   6.790465 -0.619039 0.017802 -0.000809 -0.011395 -0.523313
 12   -2.022474 -0.104699 -2.873818 0.511756 1.327232 -2.695087
 13   1.167898 -0.537463 0.063297 -0.474064 -1.042598 0.157542
 14   7.002743 -0.617765 -0.183752 0.000229 0.000250 -0.216083
 15   8.209042 0.615527 -0.255885 1.570090 -0.000063 0.261470
 16   7.002735 -0.617911 -0.183641 0.014674 0.001616 -0.169874
 17   1.574674 0.609930 -0.000899 0.163740 0.018373 -0.452226
 18   -0.602177 0.511412 -0.000006 0.000000 0.000000 0.000000
 19   3.665960 0.313743 1.146658 -0.000002 -0.000014 -0.174510
 20   3.665954 0.313716 -1.090221 0.000007 -0.000003 -0.174546
 21   2.887637 1.322821 1.553437 0.000002 -0.000011 -0.000026
 22   -0.226528 -0.754099 0.477457 0.000194 -0.057459 0.890061
 23   2.907186 1.318940 -1.588113 0.000019 0.000002 -0.000024
 24   -0.078176 -0.558764 -0.547762 0.000187 -0.057484 0.890104
 25   3.956959 2.091091 1.523858 0.102271 -0.029427 -0.168396
 26   3.906194 2.137995 -1.516125 -0.141144 -0.028485 -0.183628
 27   3.289473 1.455197 1.514501 -0.000019 -0.000022 -0.000050
 28   3.291903 1.454803 -1.501142 -0.000002 -0.000009 -0.000024
 29   8.824059 0.150544 0.091743 0.014711 -0.012693 -1.342829
 30   2.111085 -0.561179 1.784320 -0.000008 -0.000682 0.000024
 31   2.121290 -0.561289 -1.853599 0.000000 0.000000 -0.000002
 32   -0.810489 -0.093824 3.127092 0.582349 -3.027482 -0.831063
 33   14.298673 -0.408176 0.475484 -0.000088 -0.000042 -2.437869
 34   15.835795 0.581398 0.242756 0.699367 0.131122 -0.883953
 35   -0.815868 -0.091229 -3.114430 -0.396140 3.125136 -0.834135
 36   14.294526 -0.410349 -0.463635 0.000105 0.000060 -2.506891
 37   15.834409 0.579420 -0.284600 -0.599289 0.008923 -0.911430
 38   1.264689 -3.379528 -2.823813 0.004020 -0.044527 0.376343
 39   -4.457742 -1.054854 -0.746180 0.000000 0.000000 0.000000
 40   0.993097 -3.523990 3.237290 0.004020 -0.044526 0.376342
 41   -4.433840 -1.059130 0.959566 -0.000001 0.000000 0.000000
 42   -0.665281 1.263695 -1.329197 0.172674 0.447982 0.240262
 43   -0.476562 1.096997 1.951380 -0.403384 -0.497181 0.479772
time 15
  0   0.239522 11.808954 -26.258244 0.000000 -0.156649 -1.571449
  1   -1.093036 0.000002 -0.326057 -1.570652 -1.570379 -0.000171
  2   2.262337 0.113614 0.064702 -0.064491 -0.026269 -0.387904
  3   2.380047 0.353302 0.047440 0.000000 -0.000040 0.397704
  4   2.033756 0.190472 -0.000128 -0.047795 0.061996 0.912493
  5   2.451511 0.204909 -0.003447 0.000000 -0.000005 -0.573828
  6   7.247600 -0.397300 -0.109469 0.000001 0.000009 0.052298
  7   -2.022252 -0.104661 3.136172 -0.544754 -1.343154 -2.662081
  8   1.168026 -0.537438 -0.063437 0.546092 1.108742 0.773549
  9   6.790376 -0.619176 0.015206 -0.000324 -0.000352 -0.781467
 10   8.637599 0.544015 -0.090417 -1.197950 0.000362 0.182838
 11   6.790465 -0.619039 0.017802 -0.000546 -0.011395 -0.562186
 12   -2.022474 -0.104699 -2.873818 0.543852 1.343311 -2.662057
 13   1.167898 -0.537463 0.063297 -0.155140 -1.070058 -0.182785
 14   7.002743 -0.617765 -0.183752 0.000229 0.000250 -0.092572
 15   8.209042 0.615527 -0.255885 1.570090 -0.000063 0.261470
 16   7.002735 -0.617911 -0.183641 0.014721 0.001052 -0.083442
 17   1.574674 0.609930 -0.000899 0.160409 -0.034593 -0.236780
 18   -0.602177 0.511412 -0.000006 0.000000 0.000000 0.000000
 19   3.665960 0.313743 1.146658 -0.000002 -0.000014 -0.174510
 20   3.665954 0.313716 -1.090221 0.000007 -0.000003 -0.174546
 21   2.887637 1.322821 1.553437 0.000002 -0.000011 -0.000026
 22   -0.226528 -0.754099 0.477457 0.000194 -0.057459 0.890061
 23   2.907186 1.318940 -1.588113 0.000019 0.000002 -0.000024
 24   -0.078176 -0.558764 -0.547762 0.000187 -0.057484 0.890104
 25   3.956959 2.091091 1.523858 0.102271 -0.029427 -0.168396
 26   3.906194 2.137995 -1.516125 -0.141144 -0.028485 -0.183628
 27   3.289473 1.455197 1.514501 -0.000019 -0.000022 -0.000050
 28   3.291903 1.454803 -1.501142 -0.000002 -0.000009 -0.000024
 29   8.824059 0.150544 0.091743 0.014711 -0.012693 -1.342829
 30   2.111085 -0.561179 1.784320 -0.000008 -0.000682 0.000024
 31   2.121290 -0.561289 -1.853599 0.000000 0.000000 -0.000002
 32   -0.810489 -0.093824 3.127092 0.684879 -2.989949 -0.956463
 33   14.298673 -0.408176 0.475484 -0.000088 -0.000042 -2.419369
 34   15.835795 0.581398 0.242756 0.752892 0.207237 -0.904064
 35   -0.815868 -0.091229 -3.114430 -0.374049 3.111738 -0.955464
 36   14.294526 -0.410349 -0.463635 0.000105 0.000060 -2.528983
 37   15.834409 0.579420 -0.284600 -0.533759 -0.001315 -0.936680
 38   1.233438 -3.485000 -2.823813 -0.019049 -0.028078 0.211877
 39   -4.457742 -1.054854 -0.746180 0.000000 0.000000 0.000000
 40   1.024348 -3.418518 3.237290 -0.019049 -0.028077 0.211876
 41   -4.433840 -1.059130 0.959566 -0.000001 0.000000 0.000000
 42   -0.665281 1.251976 -1.305759 0.174879 0.454651 0.247665
 43   -0.457030 1.077465 1.881065 -0.409406 -0.503865 0.490729
time 16
  0   0.239522 11.808954 -26.656693 0.000000 -0.156649 -1.571449
  1   -1.093036 0.000002 -0.326057 -1.570652 -1.570379 -0.000123
  2   2.262337 0.113614 0.064702 -0.061549 -0.032693 -0.487926
  3   2.380047 0.353302 0.047440 0.000000 -0.000040 0.547215
  4   2.033756 0.190472 -0.000128 -0.060133 0.050144 0.693307
  5   2.451511 0.204909 -0.003447 0.000000 -0.000005 0.132408
  6   7.247600 -0.397300 -0.109469 0.000001 0.000009 0.052298
  7   -2.022252 -0.104661 3.136172 -0.299166 -1.361862 -2.901749
  8   1.168026 -0.537438 -0.063437 -0.898348 1.190855 -0.625582
  9   6.790376 -0.619176 0.015206 -0.000324 -0.000352 -0.836483
 10   8.637599 0.544015 -0.090417 -1.105042 0.000362 0.182838
 11   6.790465 -0.619039 0.017802 -0.000371 -0.011452 -0.600828
 12   -2.022474 -0.104699 -2.873818 0.298777 1.361800 -2.901792
 13   1.167898 -0.537463 0.063297 0.719179 -0.735852 -0.987050
 14   7.002743 -0.617765 -0.183752 0.000229 0.000250 -0.002806
 15   8.209042 0.615527 -0.255885 1.570090 -0.000063 0.261470
 16   7.002735 -0.617911 -0.183641 0.014768 0.000601 -0.020577
 17   1.574674 0.609930 -0.000899 0.116742 -0.127272 -0.246094
 18   -0.602177 0.511412 -0.000006 0.000000 0.000000 0.000000
 19   3.665960 0.313743 1.146658 -0.000002 -0.000014 -0.174510
 20   3.665954 0.313716 -1.090221 0.000007 -0.000003 -0.174546
 21   2.887637 1.322821 1.553437 0.000002 -0.000011 -0.000026
 22   -0.226528 -0.754099 0.477457 0.000194 -0.057459 0.890061
 23   2.907186 1.318940 -1.588113 0.000019 0.000002 -0.000024
 24   -0.078176 -0.558764 -0.547762 0.000187 -0.057484 0.890104
 25   3.956959 2.091091 1.523858 0.102271 -0.029427 -0.168396
 26   3.906194 2.137995 -1.516125 -0.141144 -0.028485 -0.183628
 27   3.289473 1.455197 1.514501 -0.000019 -0.000022 -0.000050
 28   3.291903 1.454803 -1.501142 -0.000002 -0.000009 -0.000024
 29   8.824059 0.150544 0.091743 0.026742 0.027899 -1.038697
 30   2.142336 -0.486958 1.784320 -0.019847 0.012802 0.022238
 31   2.121290 -0.561289 -1.853599 -0.019842 0.013495 0.022178
 32   -0.810489 -0.093824 3.127092 0.715079 -2.983359 -0.996934
 33   14.298673 -0.408176 0.475484 -0.000088 -0.000042 -2.430247
 34   15.835795 0.581398 0.242756 0.712179 0.259656 -0.890260
 35   -0.815868 -0.091229 -3.114430 -0.368592 3.107429 -0.992164
 36   14.294526 -0.410349 -0.463635 0.000105 0.000060 -2.549144
 37   15.834409 0.579420 -0.284600 -0.456664 -0.015290 -0.948747
 38   1.241251 -3.695944 -2.804281 -0.069378 -0.047419 0.024378
 39   -4.457742 -1.054854 -0.746180 0.000000 0.000000 0.000000
 40   1.016535 -3.207574 3.217758 -0.069378 -0.047406 0.024377
 41   -4.433840 -1.059130 0.959566 -0.000001 0.000000 0.000000
 42   -0.446524 1.392605 -1.547954 0.144402 0.377545 0.139097
 43   -0.304682 1.401694 1.814657 -0.379083 -0.481317 0.356901
time 17
  0   0.239522 11.808954 -26.711382 0.000000 -0.156649 -1.571449
  1   -1.093036 0.000002 -0.326057 -1.570652 -1.570379 -0.000123
  2   2.262337 0.113614 0.064702 -0.058734 -0.037343 -0.565125
  3   2.380047 0.353302 0.047440 0.000000 -0.000040 0.654344
  4   2.033756 0.190472 -0.000128 -0.071014 0.033054 0.434685
  5   2.451511 0.204909 -0.003447 0.000000 -0.000005 0.794017
  6   7.247600 -0.397300 -0.109469 0.000001 0.000009 0.052298
  7   -2.022252 -0.104661 3.136172 0.429642 -1.300750 -3.609856
  8   1.168026 -0.537438 -0.063437 -1.390607 0.839510 -0.953587
  9   6.790376 -0.619176 0.015206 -0.000324 -0.000352 -0.890895
 10   8.637599 0.544015 -0.090417 -1.012045 0.006908 0.181970
 11   6.790465 -0.619039 0.017802 -0.000167 -0.011452 -0.638836
 12   -2.022474 -0.104699 -2.873818 -0.429165 1.300936 -3.609894
 13   1.167898 -0.537463 0.063297 0.950798 -0.289668 -1.042560
 14   7.002743 -0.617765 -0.183752 0.000229 0.000250 0.026896
 15   8.209042 0.615527 -0.255885 1.570090 -0.034564 0.261470
 16   7.002735 -0.617911 -0.183641 0.014768 0.000432 0.000286
 17   1.574674 0.609930 -0.000899 0.031521 -0.178251 -0.071638
 18   -0.602177 0.511412 -0.000006 0.000000 0.000000 0.000000
 19   3.665960 0.313743 1.146658 -0.000002 -0.000014 -0.174510
 20   3.665954 0.313716 -1.090221 0.000007 -0.000003 -0.174546
 21   2.887637 1.322821 1.553437 0.000002 -0.000011 -0.000026
 22   -0.226528 -0.754099 0.477457 0.000194 -0.057459 0.890061
 23   2.907186 1.318940 -1.588113 0.000019 0.000002 -0.000024
 24   -0.078176 -0.558764 -0.547762 0.000187 -0.057484 0.890104
 25   3.956959 2.091091 1.523858 0.102271 -0.029427 -0.168396
 26   3.906194 2.137995 -1.516125 -0.141144 -0.028485 -0.183628
 27   3.289473 1.455197 1.514501 -0.000019 -0.000022 -0.000050
 28   3.291903 1.454803 -1.501142 -0.000002 -0.000009 -0.000024
 29   8.824059 0.150544 0.091743 0.055172 0.124868 -0.313590
 30   2.224370 -0.299452 1.772601 -0.067199 0.044972 0.075244
 31   2.121290 -0.561289 -1.845786 -0.067202 0.045638 0.075182
 32   -0.810489 -0.093824 3.127092 0.718714 -2.982691 -1.002513
 33   14.298673 -0.408176 0.475484 -0.000088 -0.000042 -2.431676
 34   15.835795 0.581398 0.242756 0.640459 0.288599 -0.860006
 35   -0.815868 -0.091229 -3.114430 -0.367536 3.107147 -0.996765
 36   14.294526 -0.410349 -0.463635 0.000105 0.000060 -2.552311
 37   15.834409 0.579420 -0.284600 -0.372101 -0.017005 -0.950318
 38   1.264689 -3.949858 -2.761311 -0.136124 -0.093549 -0.156095
 39   -4.457742 -1.054854 -0.746180 0.000000 0.000000 0.000000
 40   0.993097 -2.953660 3.174788 -0.136124 -0.093548 -0.156158
 41   -4.433840 -1.059130 0.959566 -0.000001 0.000000 0.000000
 42   0.084742 1.716834 -2.118284 0.071764 0.193634 -0.119776
 43   0.023453 2.163436 1.759968 -0.306830 -0.427480 0.037681
time 18
  0   0.239522 11.808954 -26.512157 0.000000 -0.156649 -1.571449
  1   -1.093036 0.000002 -0.326057 -1.570652 -1.570379 -0.000123
  2   2.262337 0.113614 0.064702 -0.057779 -0.038985 -0.592954
  3   2.380047 0.353302 0.047440 0.000000 -0.000040 0.641101
  4   2.033756 0.190472 -0.000128 -0.062014 0.047819 0.655248
  5   2.451511 0.204909 -0.003447 0.000000 -0.000005 0.430138
  6   7.247600 -0.397300 -0.109469 0.000001 0.000009 0.052298
  7   -2.022252 -0.104661 3.136172 0.889856 -1.092451 -4.025330
  8   1.168026 -0.537438 -0.063437 -1.197412 0.954227 -0.477616
  9   6.790376 -0.619176 0.015206 -0.000324 -0.000352 -0.941911
 10   8.637599 0.544015 -0.090417 -0.918696 0.013595 0.181753
 11   6.790465 -0.619039 0.017802 0.000067 -0.011566 -0.674536
 12   -2.022474 -0.104699 -2.873818 -0.889614 1.092661 -4.025410
 13   1.167898 -0.537463 0.063297 0.862649 -0.363405 -0.714280
 14   7.002743 -0.617765 -0.183752 0.000229 0.000250 0.014603
 15   8.209042 0.615527 -0.255885 1.570090 -0.069518 0.261470
 16   7.002735 -0.617911 -0.183641 0.014768 0.000488 -0.008490
 17   1.574674 0.609930 -0.000899 -0.026119 -0.162915 0.595471
 18   -0.602177 0.511412 -0.000006 0.000000 0.000000 0.000000
 19   3.665960 0.313743 1.146658 -0.000002 -0.000014 -0.174510
 20   3.665954 0.313716 -1.090221 0.000007 -0.000003 -0.174546
 21   2.887637 1.322821 1.553437 0.000002 -0.000011 -0.000026
 22   -0.226528 -0.754099 0.477457 0.000194 -0.057459 0.890061
 23   2.907186 1.318940 -1.588113 0.000019 0.000002 -0.000024
 24   -0.078176 -0.558764 -0.547762 0.000187 -0.057484 0.890104
 25   3.956959 2.091091 1.523858 0.102271 -0.029427 -0.168396
 26   3.906194 2.137995 -1.516125 -0.141144 -0.028485 -0.183628
 27   3.289473 1.455197 1.514501 -0.000019 -0.000022 -0.000050
 28   3.291903 1.454803 -1.501142 -0.000002 -0.000009 -0.000024
 29   8.824059 0.150544 0.091743 0.089037 0.240781 0.551808
 30   2.322029 -0.068976 1.753069 -0.123691 0.083389 0.138521
 31   2.129103 -0.561289 -1.826254 -0.123709 0.084050 0.138411
 32   -0.810489 -0.093824 3.127092 0.707249 -2.984792 -0.987030
 33   14.298673 -0.408176 0.475484 -0.000088 -0.000042 -2.427547
 34   15.835795 0.581398 0.242756 0.549739 0.306438 -0.822739
 35   -0.815868 -0.091229 -3.114430 -0.369648 3.108647 -0.982961
 36   14.294526 -0.410349 -0.463635 0.000105 0.000060 -2.544277
 37   15.834409 0.579420 -0.284600 -0.283540 -0.011835 -0.945857
 38   1.288127 -4.203772 -2.706622 -0.203460 -0.148596 -0.309809
 39   -4.457742 -1.054854 -0.746180 0.000000 0.000000 0.000000
 40   0.969659 -2.699746 3.124005 -0.203460 -0.148595 -0.309810
 41   -4.433840 -1.059130 0.959566 -0.000001 0.000000 0.000000
 42   0.725387 2.119190 -2.794086 -0.014933 -0.025833 -0.428792
 43   0.402371 3.085339 1.716998 -0.220608 -0.363239 -0.343268
time 19
  0   0.239522 11.808954 -26.230898 0.000000 -0.156649 -1.571449
  1   -1.093036 0.000002 -0.326057 -1.570652 -1.570379 -0.000123
  2   2.262337 0.113614 0.064702 -0.058734 -0.037343 -0.565125
  3   2.380047 0.353302 0.047440 0.000000 -0.000040 0.593250
  4   2.033756 0.190472 -0.000128 -0.048754 0.061361 0.896979
  5   2.451511 0.204909 -0.003447 0.000000 -0.000005 -0.052218
  6   7.247600 -0.397300 -0.109469 0.000001 0.000009 0.052298
  7   -2.022252 -0.104661 3.136172 1.065468 -0.888620 -4.145915
  8   1.168026 -0.537438 -0.063437 -0.849622 1.092742 0.138351
  9   6.790376 -0.619176 0.015206 -0.000324 -0.000352 -0.991493
 10   8.637599 0.544015 -0.090417 -0.825788 0.000362 0.182838
 11   6.790465 -0.619039 0.017802 0.000213 -0.011566 -0.709199
 12   -2.022474 -0.104699 -2.873818 -1.065324 0.888477 -4.145661
 13   1.167898 -0.537463 0.063297 0.759668 -0.502691 -0.382671
 14   7.002743 -0.617765 -0.183752 0.000229 0.000250 0.001072
 15   8.209042 0.615527 -0.255885 1.570090 -0.000063 0.261470
 16   7.002735 -0.617911 -0.183641 0.014768 0.000601 -0.017983
 17   1.574674 0.609930 -0.000899 0.195911 -0.028061 0.724909
 18   -0.602177 0.511412 -0.000006 0.000000 0.000000 0.000000
 19   3.665960 0.313743 1.146658 -0.000002 -0.000014 -0.174510
 20   3.665954 0.313716 -1.090221 0.000007 -0.000003 -0.174546
 21   2.887637 1.322821 1.553437 0.000002 -0.000011 -0.000026
 22   -0.226528 -0.754099 0.477457 0.000194 -0.057459 0.890061
 23   2.907186 1.318940 -1.588113 0.000019 0.000002 -0.000024
 24   -0.078176 -0.558764 -0.547762 0.000187 -0.057484 0.890104
 25   3.956959 2.091091 1.523858 0.102271 -0.029427 -0.168396
 26   3.906194 2.137995 -1.516125 -0.141144 -0.028485 -0.183628
 27   3.289473 1.455197 1.514501 -0.000019 -0.000022 -0.000050
 28   3.291903 1.454803 -1.501142 -0.000002 -0.000009 -0.000024
 29   8.824059 0.150544 0.091743 0.117556 0.337964 1.276861
 30   2.404063 0.122436 1.745256 -0.171043 0.115588 0.191527
 31   2.133009 -0.561289 -1.822348 -0.171038 0.116246 0.191378
 32   -0.810489 -0.093824 3.127092 0.692522 -2.987943 -0.966367
 33   14.298673 -0.408176 0.475484 -0.000088 -0.000042 -2.422307
 34   15.835795 0.581398 0.242756 0.452970 0.324277 -0.787016
 35   -0.815868 -0.091229 -3.114430 -0.372641 3.110895 -0.964611
 36   14.294526 -0.410349 -0.463635 0.000105 0.000060 -2.533849
 37   15.834409 0.579420 -0.284600 -0.193796 -0.004873 -0.939772
 38   1.315472 -4.395184 -2.659745 -0.255557 -0.194713 -0.416663
 39   -4.457742 -1.054854 -0.746180 0.000000 0.000000 0.000000
 40   0.942314 -2.508334 3.073222 -0.255557 -0.194725 -0.416726
 41   -4.433840 -1.059130 0.959566 -0.000001 0.000000 0.000000
 42   1.256653 2.459044 -3.372229 -0.087571 -0.209729 -0.687748
 43   0.722693 3.858800 1.689653 -0.148355 -0.309402 -0.662446
time 20
  0   0.239522 11.808954 -25.969172 0.000000 -0.156649 -1.571449
  1   -1.093036 0.000002 -0.326057 -1.570652 -1.570379 -0.000123
  2   2.262337 0.113614 0.064702 -0.064975 -0.024855 -0.364701
  3   2.380047 0.353302 0.047440 0.000000 -0.000040 0.593250
  4   2.033756 0.190472 -0.000128 -0.066809 0.040892 0.547993
  5   2.451511 0.204909 -0.003447 0.000000 -0.000005 0.471001
  6   7.247600 -0.397300 -0.109469 0.000001 0.000009 0.052298
  7   -2.022252 -0.104661 3.136172 1.065468 -0.888620 -4.145915
  8   1.168026 -0.537438 -0.063437 -1.263856 0.899032 -0.286886
  9   6.790376 -0.619176 0.015206 -0.000324 -0.000352 -1.035189
 10   8.637599 0.544015 -0.090417 -0.732968 -0.121836 0.182838
 11   6.790465 -0.619039 0.017802 0.000388 -0.011594 -0.739767
 12   -2.022474 -0.104699 -2.873818 -1.065324 0.888477 -4.145661
 13   1.167898 -0.537463 0.063297 0.932381 -0.195539 -0.577532
 14   7.002743 -0.617765 -0.183752 0.000229 0.000250 -0.002806
 15   8.209042 0.615527 -0.255885 1.570090 0.627987 0.261470
 16   7.002735 -0.617911 -0.183641 0.014768 0.000601 -0.020577
 17   1.574674 0.609930 -0.000899 0.413391 0.142057 0.540695
 18   -0.602177 0.511412 -0.000006 0.000000 0.000000 0.000000
 19   3.665960 0.313743 1.146658 -0.000002 -0.000014 -0.174510
 20   3.665954 0.313716 -1.090221 0.000007 -0.000003 -0.174546
 21   2.887637 1.322821 1.553437 0.000002 -0.000011 -0.000026
 22   -0.226528 -0.754099 0.477457 0.000194 -0.057459 0.890061
 23   2.907186 1.318940 -1.588113 0.000019 0.000002 -0.000024
 24   -0.078176 -0.558764 -0.547762 0.000187 -0.057484 0.890104
 25   3.956959 2.091091 1.523858 0.102271 -0.029427 -0.168396
 26   3.906194 2.137995 -1.516125 -0.141144 -0.028485 -0.183628
 27   3.289473 1.455197 1.514501 -0.000019 -0.000022 -0.000050
 28   3.291903 1.454803 -1.501142 -0.000002 -0.000009 -0.000024
 29   8.824059 0.150544 0.091743 0.129498 0.378746 1.580992
 30   2.435314 0.200563 1.733537 -0.190895 0.129072 0.213742
 31   2.140822 -0.561289 -1.814535 -0.190911 0.129714 0.213595
 32   -0.810489 -0.093824 3.127092 0.684879 -2.989949 -0.956463
 33   14.298673 -0.408176 0.475484 -0.000088 -0.000042 -2.419369
 34   15.835795 0.581398 0.242756 0.365609 0.351121 -0.758614
 35   -0.815868 -0.091229 -3.114430 -0.374049 3.111738 -0.955464
 36   14.294526 -0.410349 -0.463635 0.000105 0.000060 -2.528983
 37   15.834409 0.579420 -0.284600 -0.106081 -0.001315 -0.936680
 38   1.327191 -4.469405 -2.640213 -0.276416 -0.214054 -0.456680
 39   -4.457742 -1.054854 -0.746180 0.000000 0.000000 0.000000
 40   0.930595 -2.434113 3.053690 -0.276416 -0.214066 -0.456743
 41   -4.433840 -1.059130 0.959566 -0.000001 0.000000 0.000000
 42   1.487129 2.595767 -3.610517 -0.118048 -0.286835 -0.796316
 43   0.859416 4.175216 1.685747 -0.118057 -0.286853 -0.796316
end
