version 1
nodes
  0 "Bip01" -1
  1 "Bip01 Pelvis" 0
  2 "Bip01 Spine" 1
  3 "Bip01 Spine1" 2
  4 "Bip01 Spine2" 3
  5 "Bip01 Spine3" 4
  6 "Bip01 Neck" 5
  7 "Bip01 L Arm" 6
  8 "Bip01 L Arm1" 7
  9 "Bip01 L Arm2" 8
 10 "Bip01 L Hand" 9
 11 "Bip06 L elbow2-smooth" 8
 12 "Bip01 R Arm" 6
 13 "Bip01 R Arm1" 12
 14 "Bip01 R Arm2" 13
 15 "Bip01 R Hand" 14
 16 "Bip06 R elbow2-smooth" 13
 17 "Bip01 Head" 6
 18 "Bip06 Head_helper" 17
 19 "Bip06 Head_eyes_l" 18
 20 "Bip06 Head_eyes_r" 18
 21 "Bip06 Head_blink_l" 18
 22 "Bip06 Head_blink_smooth_l1" 21
 23 "Bip06 Head_blink_r" 18
 24 "Bip06 Head_blink_smooth_r1" 23
 25 "Bip06 Head_L_eyebrow" 18
 26 "Bip06 Head_R_eyebrow" 18
 27 "Bip06 Head_blink_l_lid" 18
 28 "Bip06 Head_blink_r_lid" 18
 29 "Bip06 bunny" 18
 30 "Bip06 bunnyL" 29
 31 "Bip06 bunnyR" 29
 32 "Bip01 L Leg" 1
 33 "Bip01 L Leg1" 32
 34 "Bip01 L Foot" 33
 35 "Bip01 R Leg" 1
 36 "Bip01 R Leg1" 35
 37 "Bip01 R Foot" 36
 38 "Bip03 HairR1" 17
 39 "Bip03 HairR2" 38
 40 "Bip03 HairL1" 17
 41 "Bip03 HairL2" 40
 42 "Bip03 swingR" 17
 43 "Bip03 swingL" 17
end
skeleton
time 0
  0   0.180926 0.281259 2.324661 0.000000 0.000000 -1.571829
  1   -1.093036 0.000002 -0.326057 -1.565883 -1.570703 -0.005736
  2   2.262337 0.113614 0.064702 -0.069701 0.000624 0.009457
  3   2.380047 0.353302 0.047440 0.000000 -0.000040 -0.069685
  4   2.033756 0.190472 -0.000128 -0.078336 0.000072 -0.000170
  5   2.451511 0.204909 -0.003447 0.000000 -0.000005 0.017373
  6   7.247600 -0.397300 -0.109469 0.000001 0.000009 0.470865
  7   -2.022252 -0.104661 3.136172 -0.000281 -1.370712 -3.613143
  8   1.168026 -0.537438 -0.063437 0.483634 1.160465 0.758240
  9   6.790376 -0.619176 0.015206 -0.000102 -0.000151 -0.286929
 10   8.637599 0.544015 -0.090417 -1.570376 0.000362 -0.069282
 11   6.790465 -0.619039 0.017802 -0.002356 -0.010912 -0.216079
 12   -2.022474 -0.104699 -2.873818 0.000434 1.370594 -3.612766
 13   1.167898 -0.537463 0.063297 -0.592440 -1.258824 0.836439
 14   7.002743 -0.617765 -0.183752 0.000115 0.000194 -1.289643
 15   8.209042 0.615527 -0.255885 1.570090 -0.000214 -0.069526
 16   7.002735 -0.617911 -0.183641 0.013827 0.006973 -0.921489
 17   1.574674 0.609930 -0.000899 0.158215 -0.045006 -0.152103
 18   -0.602177 0.511412 -0.000006 0.000000 0.000000 0.000000
 19   3.673773 0.177020 1.119313 -0.000002 -0.000014 -0.174510
 20   3.673767 0.176993 -1.117566 0.000007 -0.000003 -0.174546
 21   3.938451 1.330634 1.627658 0.000002 -0.000011 -0.000026
 22   -0.246060 -0.011889 0.516521 -0.000011 0.000031 0.000025
 23   3.942374 1.330659 -1.631083 0.000019 0.000002 -0.000024
 24   -0.246150 -0.011872 -0.516511 -0.000005 -0.000006 0.000048
 25   4.941364 1.997338 1.629330 0.000018 -0.000001 -0.000024
 26   4.941382 1.997366 -1.629410 -0.000001 0.000005 -0.000024
 27   2.918368 1.623171 1.514501 -0.000019 -0.000022 -0.000050
 28   2.920798 1.622777 -1.501142 -0.000002 -0.000009 -0.000024
 29   8.824059 0.150544 0.091743 0.000006 -0.000231 -0.174534
 30   2.111085 -0.561179 1.784320 -0.000008 -0.000682 0.000024
 31   2.121290 -0.561289 -1.853599 0.000000 0.000000 -0.000002
 32   -0.810489 -0.093824 3.127092 -0.055295 -3.106942 -0.209872
 33   14.298673 -0.408176 0.475484 -0.000076 -0.000054 -0.234254
 34   15.835795 0.581398 0.242756 -0.095395 -0.022451 0.023590
 35   -0.815868 -0.091229 -3.114430 0.257719 3.091595 0.080679
 36   14.294526 -0.410349 -0.463635 0.000069 0.000060 -0.127310
 37   15.834409 0.579420 -0.284600 -0.017992 0.068893 0.192504
 38   1.139685 -3.453749 -2.823813 0.000000 0.000000 0.000001
 39   -4.457742 -1.054854 -0.746180 0.000000 0.000000 0.000000
 40   1.118101 -3.449769 3.237290 0.000000 0.000001 0.000000
 41   -4.433840 -1.059130 0.959566 -0.000001 0.000000 0.000000
 42   -0.657468 1.697302 -2.688614 0.000000 0.000002 0.000000
 43   -0.664068 1.698578 2.869377 0.000000 0.000002 0.000000
time 1
  0   0.188739 3.289163 8.277967 0.566200 -0.235240 -2.740126
  1   -1.093036 0.000002 -0.326057 -1.376972 -1.570703 0.008006
  2   2.262337 0.113614 0.064702 -0.069701 0.000624 0.009457
  3   2.380047 0.353302 0.047440 0.000000 -0.000040 -0.069685
  4   2.033756 0.190472 -0.000128 -0.078336 0.000072 -0.000170
  5   2.451511 0.204909 -0.003447 0.000000 -0.000005 0.017373
  6   7.247600 -0.397300 -0.109469 0.000001 0.000009 0.470865
  7   -2.022252 -0.104661 3.136172 -0.000281 -1.370712 -3.613143
  8   1.168026 -0.537438 -0.063437 0.409406 0.583461 1.556586
  9   6.790376 -0.619176 0.015206 -0.000102 -0.000151 -0.286929
 10   8.637599 0.544015 -0.090417 -1.570376 0.000362 -0.069282
 11   6.790465 -0.619039 0.017802 -0.002356 -0.010912 -0.216021
 12   -2.022474 -0.104699 -2.873818 0.000434 1.370594 -3.612766
 13   1.167898 -0.537463 0.063297 -0.520529 -0.715003 1.060418
 14   7.002743 -0.617765 -0.183752 0.000115 0.000194 -0.216908
 15   8.209042 0.615527 -0.255885 1.570090 -0.000214 -0.069526
 16   7.002735 -0.617911 -0.183641 0.014627 0.001616 -0.170315
 17   1.574674 0.609930 -0.000899 0.141561 0.084380 -0.961919
 18   -0.602177 0.511412 -0.000006 0.000000 0.000000 0.000000
 19   3.673773 0.196552 1.119313 -0.000002 -0.000014 -0.174510
 20   3.673767 0.196525 -1.117566 0.000007 -0.000003 -0.174546
 21   3.825166 1.330634 1.619845 0.000002 -0.000011 -0.000026
 22   -0.246060 -0.082204 0.516521 0.000005 -0.005937 0.092568
 23   3.829089 1.330659 -1.631083 0.000019 0.000002 -0.000024
 24   -0.234431 -0.062655 -0.516511 0.000007 -0.005974 0.092593
 25   4.839798 2.005151 1.621517 0.010624 -0.003057 -0.017522
 26   4.835910 2.005179 -1.621597 -0.014658 -0.002939 -0.019103
 27   2.949619 1.603639 1.514501 -0.000019 -0.000022 -0.000050
 28   2.952049 1.603245 -1.501142 -0.000002 -0.000009 -0.000024
 29   8.824059 0.150544 0.091743 0.002947 -0.002534 -0.105435
 30   2.111085 -0.561179 1.784320 -0.000008 -0.000682 0.000024
 31   2.121290 -0.561289 -1.853599 0.000000 0.000000 -0.000002
 32   -0.810489 -0.093824 3.127092 -0.497293 -3.516657 0.347566
 33   14.298673 -0.408176 0.475484 -0.000076 -0.000054 -0.600756
 34   15.835795 0.581398 0.242756 -0.126516 0.446393 -0.480282
 35   -0.815868 -0.091229 -3.114430 0.257719 3.091595 0.080679
 36   14.294526 -0.410349 -0.463635 0.000069 0.000060 -0.554238
 37   15.834409 0.579420 -0.284600 -0.068430 0.019929 -0.408822
 38   1.155311 -3.477187 -2.823813 -0.006125 0.033356 0.119074
 39   -4.457742 -1.054854 -0.746180 0.000000 0.000000 0.000000
 40   1.106382 -3.422424 3.237290 -0.007704 0.009292 0.145833
 41   -4.433840 -1.059130 0.959566 -0.000001 0.000000 0.000000
 42   -0.594966 1.779336 -2.688614 -0.003116 -0.001010 -0.055664
 43   -0.593753 1.804050 2.865470 -0.003099 -0.001018 -0.055664
time 2
  0   0.188739 4.050905 11.090553 0.695820 0.049431 3.048970
  1   -1.093036 0.000002 -0.326057 -1.729274 -1.570703 0.074540
  2   2.262337 0.113614 0.064702 -0.069701 0.000624 0.009457
  3   2.380047 0.353302 0.047440 0.000000 -0.000040 -0.069685
  4   2.033756 0.190472 -0.000128 -0.078336 0.000072 -0.000170
  5   2.451511 0.204909 -0.003447 0.000000 -0.000005 0.017373
  6   7.247600 -0.397300 -0.109469 0.000001 0.000009 0.470865
  7   -2.022252 -0.104661 3.136172 -0.000281 -1.370712 -3.613143
  8   1.168026 -0.537438 -0.063437 0.408520 0.538077 1.634776
  9   6.790376 -0.619176 0.015206 -0.000102 -0.000151 -0.286929
 10   8.637599 0.544015 -0.090417 -1.570376 0.000362 -0.069282
 11   6.790465 -0.619039 0.017802 -0.002356 -0.010912 -0.216021
 12   -2.022474 -0.104699 -2.873818 0.000434 1.370594 -3.612766
 13   1.167898 -0.537463 0.063297 -0.301211 -0.778111 0.765674
 14   7.002743 -0.617765 -0.183752 0.000115 0.000194 -0.216908
 15   8.209042 0.615527 -0.255885 1.570090 -0.000214 -0.069526
 16   7.002735 -0.617911 -0.183641 0.014627 0.001616 -0.170315
 17   1.574674 0.609930 -0.000899 0.141561 0.084380 -0.961919
 18   -0.602177 0.511412 -0.000006 0.000000 0.000000 0.000000
 19   3.665960 0.227803 1.127126 -0.000002 -0.000014 -0.174510
 20   3.665954 0.227776 -1.109753 0.000007 -0.000003 -0.174546
 21   3.575158 1.330634 1.600313 0.000002 -0.000011 -0.000026
 22   -0.246060 -0.273616 0.504802 0.000068 -0.020211 0.313241
 23   3.582988 1.330659 -1.619364 0.000019 0.000002 -0.000024
 24   -0.187554 -0.199378 -0.524324 0.000055 -0.020236 0.313348
 25   4.597603 2.028589 1.598079 0.036008 -0.010353 -0.059288
 26   4.581996 2.048149 -1.590346 -0.049665 -0.010024 -0.064645
 27   3.043372 1.564575 1.514501 -0.000019 -0.000022 -0.000050
 28   3.045802 1.564181 -1.501142 -0.000002 -0.000009 -0.000024
 29   8.824059 0.150544 0.091743 0.024960 -0.011056 0.059533
 30   2.111085 -0.561179 1.784320 -0.000008 -0.000682 0.000024
 31   2.121290 -0.561289 -1.853599 0.000000 0.000000 -0.000002
 32   -0.810489 -0.093824 3.127092 -0.639623 -3.508826 0.311990
 33   14.298673 -0.408176 0.475484 -0.000076 -0.000054 -0.600756
 34   15.835795 0.581398 0.242756 -0.068552 0.565654 -0.484693
 35   -0.815868 -0.091229 -3.114430 0.355415 3.087379 0.002787
 36   14.294526 -0.410349 -0.463635 0.000069 0.000060 -0.599194
 37   15.834409 0.579420 -0.284600 -0.121449 -0.086369 -0.526197
 38   1.198281 -3.555315 -2.823813 -0.020818 0.112902 0.403225
 39   -4.457742 -1.054854 -0.746180 0.000000 0.000000 0.000000
 40   1.059505 -3.348203 3.237290 -0.026080 0.031513 0.493766
 41   -4.433840 -1.059130 0.959566 -0.000001 0.000000 0.000000
 42   -0.426992 1.994186 -2.700333 -0.010534 -0.003448 -0.188530
 43   -0.421873 2.057964 2.853751 -0.010533 -0.003434 -0.188530
time 3
  0   0.188739 4.343883 13.239057 0.655613 0.330456 2.668309
  1   -1.093036 0.000002 -0.326057 -1.502895 -1.570703 -0.025672
  2   2.262337 0.113614 0.064702 -0.069701 0.000624 0.009457
  3   2.380047 0.353302 0.047440 0.000000 -0.000040 -0.069685
  4   2.033756 0.190472 -0.000128 -0.078336 0.000072 -0.000170
  5   2.451511 0.204909 -0.003447 0.000000 -0.000005 0.017373
  6   7.247600 -0.397300 -0.109469 0.000001 0.000009 0.470865
  7   -2.022252 -0.104661 3.136172 -0.000281 -1.370712 -3.613143
  8   1.168026 -0.537438 -0.063437 0.429719 0.509096 1.699934
  9   6.790376 -0.619176 0.015206 -0.000102 -0.000151 -0.286929
 10   8.637599 0.544015 -0.090417 -1.570376 0.000362 -0.069282
 11   6.790465 -0.619039 0.017802 -0.002356 -0.010912 -0.216021
 12   -2.022474 -0.104699 -2.873818 0.000434 1.370594 -3.612766
 13   1.167898 -0.537463 0.063297 -0.025377 -0.810657 0.393446
 14   7.002743 -0.617765 -0.183752 0.000115 0.000194 -0.216908
 15   8.209042 0.615527 -0.255885 1.570090 -0.000214 -0.069526
 16   7.002735 -0.617911 -0.183641 0.014627 0.001616 -0.170315
 17   1.574674 0.609930 -0.000899 0.141561 0.084380 -0.961919
 18   -0.602177 0.511412 -0.000006 0.000000 0.000000 0.000000
 19   3.665960 0.262960 1.138845 -0.000002 -0.000014 -0.174510
 20   3.665954 0.262933 -1.098034 0.000007 -0.000003 -0.174546
 21   3.258742 1.330634 1.576875 0.000002 -0.000011 -0.000026
 22   -0.238247 -0.488466 0.489176 0.000131 -0.037217 0.576779
 23   3.270478 1.322846 -1.599832 0.000019 0.000002 -0.000024
 24   -0.132865 -0.367352 -0.536043 0.000115 -0.037242 0.576804
 25   4.300719 2.059840 1.559015 0.066281 -0.019062 -0.109132
 26   4.269486 2.091119 -1.555189 -0.091455 -0.018444 -0.118983
 27   3.160563 1.517699 1.514501 -0.000019 -0.000022 -0.000050
 28   3.162993 1.517305 -1.501142 -0.000002 -0.000009 -0.000024
 29   8.824059 0.150544 0.091743 0.084403 -0.028266 0.256367
 30   2.111085 -0.561179 1.784320 -0.000008 -0.000682 0.000024
 31   2.121290 -0.561289 -1.853599 0.000000 0.000000 -0.000002
 32   -0.810489 -0.093824 3.127092 -0.759024 -3.455820 0.246359
 33   14.298673 -0.408176 0.475484 -0.000076 -0.000054 -0.600756
 34   15.835795 0.581398 0.242756 -0.014865 0.652873 -0.535190
 35   -0.815868 -0.091229 -3.114430 0.466050 3.073420 -0.082006
 36   14.294526 -0.410349 -0.463635 0.000069 0.000060 -0.614952
 37   15.834409 0.579420 -0.284600 -0.167769 -0.204082 -0.606356
 38   1.245157 -3.641255 -2.816000 -0.038330 0.207824 0.742299
 39   -4.457742 -1.054854 -0.746180 0.000000 0.000000 0.000000
 40   1.012629 -3.262263 3.229477 -0.048013 0.058037 0.908903
 41   -4.433840 -1.059130 0.959566 -0.000001 0.000000 0.000000
 42   -0.235580 2.248100 -2.712052 -0.019415 -0.006361 -0.347073
 43   -0.210929 2.362661 2.842032 -0.019416 -0.006369 -0.347073
time 4
  0   0.188739 4.906400 14.563315 0.504775 0.560450 2.301233
  1   -1.093036 0.000002 -0.326057 -1.657587 -1.570703 0.041491
  2   2.262337 0.113614 0.064702 -0.069701 0.000624 0.009457
  3   2.380047 0.353302 0.047440 0.000000 -0.000040 -0.069685
  4   2.033756 0.190472 -0.000128 -0.078336 0.000072 -0.000170
  5   2.451511 0.204909 -0.003447 0.000000 -0.000005 0.017373
  6   7.247600 -0.397300 -0.109469 0.000001 0.000009 0.470865
  7   -2.022252 -0.104661 3.136172 -0.000281 -1.370712 -3.613143
  8   1.168026 -0.537438 -0.063437 0.451361 0.490933 1.744153
  9   6.790376 -0.619176 0.015206 -0.000102 -0.000151 -0.286929
 10   8.637599 0.544015 -0.090417 -1.570376 0.000362 -0.069282
 11   6.790465 -0.619039 0.017802 -0.002356 -0.010912 -0.216021
 12   -2.022474 -0.104699 -2.873818 0.000434 1.370594 -3.612766
 13   1.167898 -0.537463 0.063297 0.217349 -0.786756 0.063955
 14   7.002743 -0.617765 -0.183752 0.000115 0.000194 -0.216908
 15   8.209042 0.615527 -0.255885 1.570090 -0.000214 -0.069526
 16   7.002735 -0.617911 -0.183641 0.014627 0.001616 -0.170315
 17   1.574674 0.609930 -0.000899 0.141561 0.084380 -0.961919
 18   -0.602177 0.511412 -0.000006 0.000000 0.000000 0.000000
 19   3.665960 0.302024 1.138845 -0.000002 -0.000014 -0.174510
 20   3.665954 0.301997 -1.098034 0.000007 -0.000003 -0.174546
 21   2.997015 1.322821 1.557343 0.000002 -0.000011 -0.000026
 22   -0.234341 -0.675972 0.477457 0.000162 -0.051491 0.797452
 23   3.016564 1.322846 -1.588113 0.000019 0.000002 -0.000024
 24   -0.089895 -0.507981 -0.547762 0.000163 -0.051516 0.797532
 25   4.054618 2.083278 1.535577 0.091628 -0.026358 -0.150874
 26   4.011666 2.122370 -1.527844 -0.126462 -0.025504 -0.164524
 27   3.254316 1.478635 1.514501 -0.000019 -0.000022 -0.000050
 28   3.256746 1.478241 -1.501142 -0.000002 -0.000009 -0.000024
 29   8.824059 0.150544 0.091743 0.200260 -0.056538 0.421389
 30   2.111085 -0.561179 1.784320 -0.000008 -0.000682 0.000024
 31   2.121290 -0.561289 -1.853599 0.000000 0.000000 -0.000002
 32   -0.810489 -0.093824 3.127092 -0.843285 -3.398136 0.193876
 33   14.298673 -0.408176 0.475484 -0.000076 -0.000054 -0.600756
 34   15.835795 0.581398 0.242756 0.025135 0.715249 -0.586349
 35   -0.815868 -0.091229 -3.114430 0.553888 3.055431 -0.153762
 36   14.294526 -0.410349 -0.463635 0.000069 0.000060 -0.620745
 37   15.834409 0.579420 -0.284600 -0.201401 -0.298887 -0.662230
 38   1.284221 -3.707663 -2.808187 -0.053023 0.287382 1.026327
 39   -4.457742 -1.054854 -0.746180 0.000000 0.000000 0.000000
 40   0.969659 -3.195855 3.221664 -0.066410 0.080246 1.256775
 41   -4.433840 -1.059130 0.959566 -0.000001 0.000000 0.000000
 42   -0.067606 2.459044 -2.719865 -0.026857 -0.008799 -0.479897
 43   -0.039049 2.616575 2.830313 -0.026850 -0.008817 -0.479897
time 5
  0   0.188739 6.504105 14.938327 0.205163 0.739147 1.822059
  1   -1.093036 0.000002 -0.326057 -1.564730 -1.570703 -0.016333
  2   2.262337 0.113614 0.064702 -0.069701 0.000624 0.009457
  3   2.380047 0.353302 0.047440 0.000000 -0.000040 -0.069685
  4   2.033756 0.190472 -0.000128 -0.078336 0.000072 -0.000170
  5   2.451511 0.204909 -0.003447 0.000000 -0.000005 0.017373
  6   7.247600 -0.397300 -0.109469 0.000001 0.000009 0.470865
  7   -2.022252 -0.104661 3.136172 -0.000281 -1.370712 -3.613143
  8   1.168026 -0.537438 -0.063437 0.469143 0.479813 1.773000
  9   6.790376 -0.619176 0.015206 -0.000102 -0.000151 -0.286929
 10   8.637599 0.544015 -0.090417 -1.570376 0.000362 -0.069282
 11   6.790465 -0.619039 0.017802 -0.002356 -0.010912 -0.216021
 12   -2.022474 -0.104699 -2.873818 0.000434 1.370594 -3.612766
 13   1.167898 -0.537463 0.063297 0.398216 -0.729140 -0.192047
 14   7.002743 -0.617765 -0.183752 0.000115 0.000194 -0.216908
 15   8.209042 0.615527 -0.255885 1.570090 -0.000214 -0.069526
 16   7.002735 -0.617911 -0.183641 0.014627 0.001616 -0.170315
 17   1.574674 0.609930 -0.000899 0.141561 0.084380 -0.961919
 18   -0.602177 0.511412 -0.000006 0.000000 0.000000 0.000000
 19   3.665960 0.313743 1.146658 -0.000002 -0.000014 -0.174510
 20   3.665954 0.313716 -1.090221 0.000007 -0.000003 -0.174546
 21   2.887637 1.322821 1.553437 0.000002 -0.000011 -0.000026
 22   -0.226528 -0.754099 0.477457 0.000194 -0.057459 0.890061
 23   2.907186 1.318940 -1.588113 0.000019 0.000002 -0.000024
 24   -0.078176 -0.558764 -0.547762 0.000187 -0.057484 0.890104
 25   3.956959 2.091091 1.523858 0.102271 -0.029427 -0.168396
 26   3.906194 2.137995 -1.516125 -0.141144 -0.028485 -0.183628
 27   3.289473 1.455197 1.514501 -0.000019 -0.000022 -0.000050
 28   3.291903 1.454803 -1.501142 -0.000002 -0.000009 -0.000024
 29   8.824059 0.150544 0.091743 0.391245 -0.098293 0.490488
 30   2.111085 -0.561179 1.784320 -0.000008 -0.000682 0.000024
 31   2.121290 -0.561289 -1.853599 0.000000 0.000000 -0.000002
 32   -0.810489 -0.093824 3.127092 -0.907786 -3.340737 0.152380
 33   14.298673 -0.408176 0.475484 -0.000076 -0.000054 -0.600756
 34   15.835795 0.581398 0.242756 0.058442 0.764398 -0.633627
 35   -0.815868 -0.091229 -3.114430 0.617963 3.038286 -0.211935
 36   14.294526 -0.410349 -0.463635 0.000069 0.000060 -0.624221
 37   15.834409 0.579420 -0.284600 -0.224630 -0.369351 -0.704262
 38   1.307659 -3.738914 -2.804281 -0.059190 0.320750 1.145584
 39   -4.457742 -1.054854 -0.746180 0.000000 0.000000 0.000000
 40   0.950127 -3.164604 3.217758 -0.074114 0.089549 1.402730
 41   -4.433840 -1.059130 0.959566 -0.000001 0.000000 0.000000
 42   -0.001198 2.544984 -2.727678 -0.029973 -0.009811 -0.535603
 43   0.031266 2.722047 2.830313 -0.029986 -0.009837 -0.535603
time 6
  0   0.188739 9.699514 14.039862 -0.263616 0.821383 1.185376
  1   -1.093036 0.000002 -0.326057 -1.547699 -1.570703 0.005103
  2   2.262337 0.113614 0.064702 -0.069701 0.000624 0.009457
  3   2.380047 0.353302 0.047440 0.000000 -0.000040 -0.069685
  4   2.033756 0.190472 -0.000128 -0.078336 0.000072 -0.000170
  5   2.451511 0.204909 -0.003447 0.000000 -0.000005 0.017373
  6   7.247600 -0.397300 -0.109469 0.000001 0.000009 0.470865
  7   -2.022252 -0.104661 3.136172 -0.000281 -1.370712 -3.613143
  8   1.168026 -0.537438 -0.063437 0.483634 0.473876 1.791535
  9   6.790376 -0.619176 0.015206 -0.000102 -0.000151 -0.286929
 10   8.637599 0.544015 -0.090417 -1.570376 0.000362 -0.069282
 11   6.790465 -0.619039 0.017802 -0.002356 -0.010912 -0.216021
 12   -2.022474 -0.104699 -2.873818 0.000434 1.370594 -3.612766
 13   1.167898 -0.537463 0.063297 0.533532 -0.653064 -0.398652
 14   7.002743 -0.617765 -0.183752 0.000115 0.000194 -0.216908
 15   8.209042 0.615527 -0.255885 1.570090 -0.000214 -0.069526
 16   7.002735 -0.617911 -0.183641 0.014627 0.001616 -0.170315
 17   1.574674 0.609930 -0.000899 0.141561 0.084380 -0.961919
 18   -0.602177 0.511412 -0.000006 0.000000 0.000000 0.000000
 19   3.665960 0.313743 1.146658 -0.000002 -0.000014 -0.174510
 20   3.665954 0.313716 -1.090221 0.000007 -0.000003 -0.174546
 21   2.887637 1.322821 1.553437 0.000002 -0.000011 -0.000026
 22   -0.226528 -0.754099 0.477457 0.000194 -0.057459 0.890061
 23   2.907186 1.318940 -1.588113 0.000019 0.000002 -0.000024
 24   -0.078176 -0.558764 -0.547762 0.000187 -0.057484 0.890104
 25   3.956959 2.091091 1.523858 0.102271 -0.029427 -0.168396
 26   3.906194 2.137995 -1.516125 -0.141144 -0.028485 -0.183628
 27   3.289473 1.455197 1.514501 -0.000019 -0.000022 -0.000050
 28   3.291903 1.454803 -1.501142 -0.000002 -0.000009 -0.000024
 29   8.824059 0.150544 0.091743 0.924721 -0.154718 0.449662
 30   2.111085 -0.561179 1.784320 -0.000008 -0.000682 0.000024
 31   2.121290 -0.561289 -1.853599 0.000000 0.000000 -0.000002
 32   -0.810489 -0.093824 3.127092 -0.959610 -3.282002 0.119764
 33   14.298673 -0.408176 0.475484 -0.000076 -0.000054 -0.600756
 34   15.835795 0.581398 0.242756 0.090576 0.805567 -0.677421
 35   -0.815868 -0.091229 -3.114430 0.661266 3.024139 -0.262055
 36   14.294526 -0.410349 -0.463635 0.000069 0.000060 -0.628624
 37   15.834409 0.579420 -0.284600 -0.238914 -0.419825 -0.739652
 38   1.295940 -3.676412 -2.804281 -0.033131 0.259654 1.123590
 39   -4.457742 -1.054854 -0.746180 0.000000 0.000000 0.000000
 40   0.961846 -3.231012 3.217758 0.000821 0.061845 1.382569
 41   -4.433840 -1.059130 0.959566 -0.000001 0.000000 0.000000
 42   -0.001198 2.544984 -2.727678 -0.029973 -0.009811 -0.535603
 43   0.031266 2.722047 2.830313 -0.029986 -0.009837 -0.535603
time 7
  0   0.165301 13.969176 11.910891 -0.757493 0.715854 0.554582
  1   -1.093036 0.000002 -0.326057 -1.574477 -1.570703 -0.010333
  2   2.262337 0.113614 0.064702 -0.069701 0.000624 0.009457
  3   2.380047 0.353302 0.047440 0.000000 -0.000040 -0.069685
  4   2.033756 0.190472 -0.000128 -0.078336 0.000072 -0.000170
  5   2.451511 0.204909 -0.003447 0.000000 -0.000005 0.017373
  6   7.247600 -0.397300 -0.109469 0.000001 0.000009 0.470865
  7   -2.022252 -0.104661 3.136172 -0.000281 -1.370712 -3.613143
  8   1.168026 -0.537438 -0.063437 0.496037 0.472115 1.801720
  9   6.790376 -0.619176 0.015206 -0.000102 -0.000151 -0.286929
 10   8.637599 0.544015 -0.090417 -1.570376 0.000362 -0.069282
 11   6.790465 -0.619039 0.017802 -0.002356 -0.010912 -0.216021
 12   -2.022474 -0.104699 -2.873818 0.000434 1.370594 -3.612766
 13   1.167898 -0.537463 0.063297 0.643331 -0.557358 -0.585341
 14   7.002743 -0.617765 -0.183752 0.000115 0.000194 -0.216908
 15   8.209042 0.615527 -0.255885 1.570090 -0.000214 -0.069526
 16   7.002735 -0.617911 -0.183641 0.014627 0.001616 -0.170315
 17   1.574674 0.609930 -0.000899 0.141561 0.084380 -0.961919
 18   -0.602177 0.511412 -0.000006 0.000000 0.000000 0.000000
 19   3.665960 0.313743 1.146658 -0.000002 -0.000014 -0.174510
 20   3.665954 0.313716 -1.090221 0.000007 -0.000003 -0.174546
 21   2.887637 1.322821 1.553437 0.000002 -0.000011 -0.000026
 22   -0.226528 -0.754099 0.477457 0.000194 -0.057459 0.890061
 23   2.907186 1.318940 -1.588113 0.000019 0.000002 -0.000024
 24   -0.078176 -0.558764 -0.547762 0.000187 -0.057484 0.890104
 25   3.956959 2.091091 1.523858 0.102271 -0.029427 -0.168396
 26   3.906194 2.137995 -1.516125 -0.141144 -0.028485 -0.183628
 27   3.289473 1.455197 1.514501 -0.000019 -0.000022 -0.000050
 28   3.291903 1.454803 -1.501142 -0.000002 -0.000009 -0.000024
 29   8.824059 0.150544 0.091743 1.857101 -0.221232 0.349822
 30   2.111085 -0.561179 1.784320 -0.000008 -0.000682 0.000024
 31   2.121290 -0.561289 -1.853599 0.000000 0.000000 -0.000002
 32   -0.810489 -0.093824 3.127092 -0.983938 -3.238643 0.109461
 33   14.298673 -0.408176 0.475484 -0.000076 -0.000054 -0.600756
 34   15.835795 0.581398 0.242756 0.122548 0.823601 -0.695591
 35   -0.815868 -0.091229 -3.114430 0.679309 3.017206 -0.306149
 36   14.294526 -0.410349 -0.463635 0.000069 0.000060 -0.637044
 37   15.834409 0.579420 -0.284600 -0.241121 -0.446264 -0.771949
 38   1.256876 -3.516251 -2.808187 0.028858 0.113962 1.063900
 39   -4.457742 -1.054854 -0.746180 0.000000 0.000000 0.000000
 40   1.000910 -3.387267 3.221664 0.179570 -0.004229 1.324896
 41   -4.433840 -1.059130 0.959566 -0.000001 0.000000 0.000000
 42   -0.001198 2.544984 -2.727678 -0.029973 -0.009811 -0.535603
 43   0.031266 2.722047 2.830313 -0.029986 -0.009837 -0.535603
time 8
  0   0.173114 18.426344 8.664698 -1.057683 0.417048 0.155682
  1   -1.093036 0.000002 -0.326057 -1.590041 -1.570703 -0.020591
  2   2.262337 0.113614 0.064702 -0.069701 0.000624 0.009457
  3   2.380047 0.353302 0.047440 0.000000 -0.000040 -0.069685
  4   2.033756 0.190472 -0.000128 -0.078336 0.000072 -0.000170
  5   2.451511 0.204909 -0.003447 0.000000 -0.000005 0.017373
  6   7.247600 -0.397300 -0.109469 0.000001 0.000009 0.470865
  7   -2.022252 -0.104661 3.136172 -0.000281 -1.370712 -3.613143
  8   1.168026 -0.537438 -0.063437 0.504453 0.478103 1.798557
  9   6.790376 -0.619176 0.015206 -0.000102 -0.000151 -0.286929
 10   8.637599 0.544015 -0.090417 -1.570376 0.000362 -0.069282
 11   6.790465 -0.619039 0.017802 -0.002356 -0.010912 -0.216021
 12   -2.022474 -0.104699 -2.873818 0.000434 1.370594 -3.612766
 13   1.167898 -0.537463 0.063297 0.735136 -0.433735 -0.769367
 14   7.002743 -0.617765 -0.183752 0.000115 0.000194 -0.216908
 15   8.209042 0.615527 -0.255885 1.570090 -0.000214 -0.069526
 16   7.002735 -0.617911 -0.183641 0.014627 0.001616 -0.170315
 17   1.574674 0.609930 -0.000899 0.141561 0.084380 -0.961919
 18   -0.602177 0.511412 -0.000006 0.000000 0.000000 0.000000
 19   3.665960 0.313743 1.146658 -0.000002 -0.000014 -0.174510
 20   3.665954 0.313716 -1.090221 0.000007 -0.000003 -0.174546
 21   2.887637 1.322821 1.553437 0.000002 -0.000011 -0.000026
 22   -0.226528 -0.754099 0.477457 0.000194 -0.057459 0.890061
 23   2.907186 1.318940 -1.588113 0.000019 0.000002 -0.000024
 24   -0.078176 -0.558764 -0.547762 0.000187 -0.057484 0.890104
 25   3.956959 2.091091 1.523858 0.102271 -0.029427 -0.168396
 26   3.906194 2.137995 -1.516125 -0.141144 -0.028485 -0.183628
 27   3.289473 1.455197 1.514501 -0.000019 -0.000022 -0.000050
 28   3.291903 1.454803 -1.501142 -0.000002 -0.000009 -0.000024
 29   8.824059 0.150544 0.091743 2.891078 -0.292042 0.225413
 30   2.111085 -0.561179 1.784320 -0.000008 -0.000682 0.000024
 31   2.121290 -0.561289 -1.853599 0.000000 0.000000 -0.000002
 32   -0.810489 -0.093824 3.127092 -0.884763 -3.276272 0.205432
 33   14.298673 -0.408176 0.475484 -0.000076 -0.000054 -0.600756
 34   15.835795 0.581398 0.242756 0.154843 0.722399 -0.586129
 35   -0.815868 -0.091229 -3.114430 0.660474 3.022921 -0.339617
 36   14.294526 -0.410349 -0.463635 0.000069 0.000060 -0.646004
 37   15.834409 0.579420 -0.284600 -0.230994 -0.435924 -0.795323
 38   1.213906 -3.340464 -2.808187 0.102930 -0.059867 0.976047
 39   -4.457742 -1.054854 -0.746180 0.000000 0.000000 0.000000
 40   1.043880 -3.566960 3.221664 0.392881 -0.083112 1.233804
 41   -4.433840 -1.059130 0.959566 -0.000001 0.000000 0.000000
 42   -0.001198 2.544984 -2.727678 -0.029973 -0.009811 -0.535603
 43   0.031266 2.722047 2.830313 -0.029986 -0.009837 -0.535603
time 9
  0   0.173114 22.125675 4.887239 -1.171451 0.019826 -0.028761
  1   -1.093036 0.000002 -0.326057 -1.525848 -1.570703 -0.031043
  2   2.262337 0.113614 0.064702 -0.069701 0.000624 0.009457
  3   2.380047 0.353302 0.047440 0.000000 -0.000040 -0.069685
  4   2.033756 0.190472 -0.000128 -0.078336 0.000072 -0.000170
  5   2.451511 0.204909 -0.003447 0.000000 -0.000005 0.017373
  6   7.247600 -0.397300 -0.109469 0.000001 0.000009 0.470865
  7   -2.022252 -0.104661 3.136172 -0.000281 -1.370712 -3.613143
  8   1.168026 -0.537438 -0.063437 0.498758 0.501499 1.762246
  9   6.790376 -0.619176 0.015206 -0.000102 -0.000151 -0.286929
 10   8.637599 0.544015 -0.090417 -1.570376 0.000362 -0.069282
 11   6.790465 -0.619039 0.017802 -0.002356 -0.010912 -0.216021
 12   -2.022474 -0.104699 -2.873818 0.000434 1.370594 -3.612766
 13   1.167898 -0.537463 0.063297 0.802618 -0.285091 -0.947581
 14   7.002743 -0.617765 -0.183752 0.000115 0.000194 -0.216908
 15   8.209042 0.615527 -0.255885 1.570090 -0.000214 -0.069526
 16   7.002735 -0.617911 -0.183641 0.014627 0.001616 -0.170315
 17   1.574674 0.609930 -0.000899 0.141561 0.084380 -0.961919
 18   -0.602177 0.511412 -0.000006 0.000000 0.000000 0.000000
 19   3.665960 0.313743 1.146658 -0.000002 -0.000014 -0.174510
 20   3.665954 0.313716 -1.090221 0.000007 -0.000003 -0.174546
 21   2.887637 1.322821 1.553437 0.000002 -0.000011 -0.000026
 22   -0.226528 -0.754099 0.477457 0.000194 -0.057459 0.890061
 23   2.907186 1.318940 -1.588113 0.000019 0.000002 -0.000024
 24   -0.078176 -0.558764 -0.547762 0.000187 -0.057484 0.890104
 25   3.956959 2.091091 1.523858 0.102271 -0.029427 -0.168396
 26   3.906194 2.137995 -1.516125 -0.141144 -0.028485 -0.183628
 27   3.289473 1.455197 1.514501 -0.000019 -0.000022 -0.000050
 28   3.291903 1.454803 -1.501142 -0.000002 -0.000009 -0.000024
 29   8.824059 0.150544 0.091743 -2.553388 -0.361405 0.110767
 30   2.111085 -0.561179 1.784320 -0.000008 -0.000682 0.000024
 31   2.121290 -0.561289 -1.853599 0.000000 0.000000 -0.000002
 32   -0.810489 -0.093824 3.127092 -0.620515 -3.350001 0.408074
 33   14.298673 -0.408176 0.475484 -0.000076 -0.000054 -0.600756
 34   15.835795 0.581398 0.242756 0.118569 0.481486 -0.409321
 35   -0.815868 -0.091229 -3.114430 0.622891 3.037630 -0.363281
 36   14.294526 -0.410349 -0.463635 0.000069 0.000060 -0.650484
 37   15.834409 0.579420 -0.284600 -0.218286 -0.403802 -0.807694
 38   1.155311 -3.180303 -2.808187 0.165004 -0.205559 0.869070
 39   -4.457742 -1.054854 -0.746180 0.000000 0.000000 0.000000
 40   1.106382 -3.723215 3.221664 0.571651 -0.149185 1.113448
 41   -4.433840 -1.059130 0.959566 -0.000001 0.000000 0.000000
 42   -0.001198 2.544984 -2.727678 -0.029973 -0.009811 -0.535603
 43   0.031266 2.722047 2.830313 -0.029986 -0.009837 -0.535603
time 10
  0   0.169208 25.336710 0.914461 -1.199687 -0.417404 -0.098585
  1   -1.093036 0.000002 -0.326057 -1.541306 -1.570703 0.000216
  2   2.262337 0.113614 0.064702 -0.069701 0.000624 0.009457
  3   2.380047 0.353302 0.047440 0.000000 -0.000040 -0.069685
  4   2.033756 0.190472 -0.000128 -0.078336 0.000072 -0.000170
  5   2.451511 0.204909 -0.003447 0.000000 -0.000005 0.017373
  6   7.247600 -0.397300 -0.109469 0.000001 0.000009 0.470865
  7   -2.022252 -0.104661 3.136172 -0.000281 -1.370712 -3.613143
  8   1.168026 -0.537438 -0.063437 0.443261 0.559914 1.638445
  9   6.790376 -0.619176 0.015206 -0.000102 -0.000151 -0.286929
 10   8.637599 0.544015 -0.090417 -1.570376 0.000362 -0.069282
 11   6.790465 -0.619039 0.017802 -0.002356 -0.010912 -0.216021
 12   -2.022474 -0.104699 -2.873818 0.000434 1.370594 -3.612766
 13   1.167898 -0.537463 0.063297 0.835094 -0.153128 -1.082271
 14   7.002743 -0.617765 -0.183752 0.000115 0.000194 -0.216908
 15   8.209042 0.615527 -0.255885 1.570090 -0.000214 -0.069526
 16   7.002735 -0.617911 -0.183641 0.014627 0.001616 -0.170315
 17   1.574674 0.609930 -0.000899 0.141561 0.084380 -0.961919
 18   -0.602177 0.511412 -0.000006 0.000000 0.000000 0.000000
 19   3.665960 0.313743 1.146658 -0.000002 -0.000014 -0.174510
 20   3.665954 0.313716 -1.090221 0.000007 -0.000003 -0.174546
 21   2.887637 1.322821 1.553437 0.000002 -0.000011 -0.000026
 22   -0.226528 -0.754099 0.477457 0.000194 -0.057459 0.890061
 23   2.907186 1.318940 -1.588113 0.000019 0.000002 -0.000024
 24   -0.078176 -0.558764 -0.547762 0.000187 -0.057484 0.890104
 25   3.956959 2.091091 1.523858 0.102271 -0.029427 -0.168396
 26   3.906194 2.137995 -1.516125 -0.141144 -0.028485 -0.183628
 27   3.289473 1.455197 1.514501 -0.000019 -0.000022 -0.000050
 28   3.291903 1.454803 -1.501142 -0.000002 -0.000009 -0.000024
 29   8.824059 0.150544 0.091743 -2.207867 -0.423480 0.040005
 30   2.111085 -0.561179 1.784320 -0.000008 -0.000682 0.000024
 31   2.121290 -0.561289 -1.853599 0.000000 0.000000 -0.000002
 32   -0.810489 -0.093824 3.127092 -0.469889 -3.339209 0.444675
 33   14.298673 -0.408176 0.475484 -0.000076 -0.000054 -0.600756
 34   15.835795 0.581398 0.242756 0.061317 0.345435 -0.407469
 35   -0.815868 -0.091229 -3.114430 0.574571 3.057399 -0.381302
 36   14.294526 -0.410349 -0.463635 0.000069 0.000060 -0.654115
 37   15.834409 0.579420 -0.284600 -0.204376 -0.359983 -0.812308
 38   1.096715 -3.117801 -2.808187 0.190999 -0.266643 0.752624
 39   -4.457742 -1.054854 -0.746180 0.000000 0.000000 0.000000
 40   1.157165 -3.785717 3.221664 0.646607 -0.176914 0.967798
 41   -4.433840 -1.059130 0.959566 -0.000001 0.000000 0.000000
 42   -0.001198 2.544984 -2.727678 -0.029973 -0.009811 -0.535603
 43   0.031266 2.722047 2.830313 -0.029986 -0.009837 -0.535603
time 11
  0   0.169208 28.739159 -2.991908 -1.210915 -0.862012 -0.113880
  1   -1.093036 0.000002 -0.326057 -1.587473 -1.570703 -0.016962
  2   2.262337 0.113614 0.064702 -0.069701 0.000624 0.009457
  3   2.380047 0.353302 0.047440 0.000000 -0.000040 -0.069685
  4   2.033756 0.190472 -0.000128 -0.078336 0.000072 -0.000170
  5   2.451511 0.204909 -0.003447 0.000000 -0.000005 0.017373
  6   7.247600 -0.397300 -0.109469 0.000001 0.000009 0.470865
  7   -2.022252 -0.104661 3.136172 -0.000281 -1.370712 -3.613143
  8   1.168026 -0.537438 -0.063437 -0.484557 0.619083 0.317631
  9   6.790376 -0.619176 0.015206 -0.000102 -0.000151 -0.286929
 10   8.637599 0.544015 -0.090417 -1.570376 0.000362 -0.069282
 11   6.790465 -0.619039 0.017802 -0.002356 -0.010912 -0.216079
 12   -2.022474 -0.104699 -2.873818 0.000434 1.370594 -3.612766
 13   1.167898 -0.537463 0.063297 0.828486 -0.213948 -1.030635
 14   7.002743 -0.617765 -0.183752 0.000115 0.000194 -0.216908
 15   8.209042 0.615527 -0.255885 1.570090 -0.000214 -0.069526
 16   7.002735 -0.617911 -0.183641 0.014627 0.001616 -0.170315
 17   1.574674 0.609930 -0.000899 0.141561 0.084380 -0.961919
 18   -0.602177 0.511412 -0.000006 0.000000 0.000000 0.000000
 19   3.665960 0.313743 1.146658 -0.000002 -0.000014 -0.174510
 20   3.665954 0.313716 -1.090221 0.000007 -0.000003 -0.174546
 21   2.887637 1.322821 1.553437 0.000002 -0.000011 -0.000026
 22   -0.226528 -0.754099 0.477457 0.000194 -0.057459 0.890061
 23   2.907186 1.318940 -1.588113 0.000019 0.000002 -0.000024
 24   -0.078176 -0.558764 -0.547762 0.000187 -0.057484 0.890104
 25   3.956959 2.091091 1.523858 0.102271 -0.029427 -0.168396
 26   3.906194 2.137995 -1.516125 -0.141144 -0.028485 -0.183628
 27   3.289473 1.455197 1.514501 -0.000019 -0.000022 -0.000050
 28   3.291903 1.454803 -1.501142 -0.000002 -0.000009 -0.000024
 29   8.824059 0.150544 0.091743 -2.544030 -0.473496 0.015648
 30   2.111085 -0.561179 1.784320 -0.000008 -0.000682 0.000024
 31   2.121290 -0.561289 -1.853599 0.000000 0.000000 -0.000002
 32   -0.810489 -0.093824 3.127092 -0.472499 -3.282384 0.312844
 33   14.298673 -0.408176 0.475484 -0.000076 -0.000054 -0.629339
 34   15.835795 0.581398 0.242756 0.050230 0.362054 -0.472256
 35   -0.815868 -0.091229 -3.114430 0.515426 3.082601 -0.396256
 36   14.294526 -0.410349 -0.463635 0.000069 0.000060 -0.658286
 37   15.834409 0.579420 -0.284600 -0.188279 -0.304441 -0.809925
 38   1.038119 -3.192022 -2.804281 0.163320 -0.226177 0.635872
 39   -4.457742 -1.054854 -0.746180 0.000000 0.000000 0.000000
 40   1.219667 -3.711496 3.221664 0.571503 -0.145763 0.804065
 41   -4.433840 -1.059130 0.959566 -0.000001 0.000000 0.000000
 42   -0.001198 2.544984 -2.727678 -0.029973 -0.009811 -0.535603
 43   0.031266 2.722047 2.830313 -0.029986 -0.009837 -0.535603
time 12
  0   0.165302 32.086918 -6.620925 -1.271432 -1.319689 -0.046906
  1   -1.093036 0.000002 -0.326057 -1.558390 -1.570703 0.018265
  2   2.262337 0.113614 0.064702 -0.069701 0.000624 0.009457
  3   2.380047 0.353302 0.047440 0.000000 -0.000040 -0.069685
  4   2.033756 0.190472 -0.000128 -0.078336 0.000072 -0.000170
  5   2.451511 0.204909 -0.003447 0.000000 -0.000005 0.017373
  6   7.247600 -0.397300 -0.109469 0.000001 0.000009 0.470865
  7   -2.022252 -0.104661 3.136172 -0.000281 -1.370712 -3.613143
  8   1.168026 -0.537438 -0.063437 -0.698572 0.002431 -0.678531
  9   6.790376 -0.619176 0.015206 -0.000102 -0.000151 -0.286929
 10   8.637599 0.544015 -0.090417 -1.570376 0.000362 -0.069282
 11   6.790465 -0.619039 0.017802 -0.002356 -0.010912 -0.216021
 12   -2.022474 -0.104699 -2.873818 0.000434 1.370594 -3.612766
 13   1.167898 -0.537463 0.063297 0.705261 -0.534068 -0.690127
 14   7.002743 -0.617765 -0.183752 0.000115 0.000194 -0.216908
 15   8.209042 0.615527 -0.255885 1.570090 -0.000214 -0.069526
 16   7.002735 -0.617911 -0.183641 0.014627 0.001616 -0.170315
 17   1.574674 0.609930 -0.000899 0.141561 0.084380 -0.961919
 18   -0.602177 0.511412 -0.000006 0.000000 0.000000 0.000000
 19   3.665960 0.313743 1.146658 -0.000002 -0.000014 -0.174510
 20   3.665954 0.313716 -1.090221 0.000007 -0.000003 -0.174546
 21   2.887637 1.322821 1.553437 0.000002 -0.000011 -0.000026
 22   -0.226528 -0.754099 0.477457 0.000194 -0.057459 0.890061
 23   2.907186 1.318940 -1.588113 0.000019 0.000002 -0.000024
 24   -0.078176 -0.558764 -0.547762 0.000187 -0.057484 0.890104
 25   3.956959 2.091091 1.523858 0.102271 -0.029427 -0.168396
 26   3.906194 2.137995 -1.516125 -0.141144 -0.028485 -0.183628
 27   3.289473 1.455197 1.514501 -0.000019 -0.000022 -0.000050
 28   3.291903 1.454803 -1.501142 -0.000002 -0.000009 -0.000024
 29   8.824059 0.150544 0.091743 2.920220 -0.511120 0.009211
 30   2.111085 -0.561179 1.784320 -0.000008 -0.000682 0.000024
 31   2.121290 -0.561289 -1.853599 0.000000 0.000000 -0.000002
 32   -0.810489 -0.093824 3.127092 -0.499250 -3.212666 0.149306
 33   14.298673 -0.408176 0.475484 -0.000076 -0.000054 -0.660781
 34   15.835795 0.581398 0.242756 0.048712 0.410422 -0.565180
 35   -0.815868 -0.091229 -3.114430 0.440965 3.114455 -0.408526
 36   14.294526 -0.410349 -0.463635 0.000069 0.000060 -0.664929
 37   15.834409 0.579420 -0.284600 -0.168321 -0.234054 -0.798213
 38   0.983430 -3.371715 -2.804281 0.096742 -0.129688 0.528468
 39   -4.457742 -1.054854 -0.746180 0.000000 0.000000 0.000000
 40   1.274356 -3.531803 3.217758 0.391955 -0.071531 0.640148
 41   -4.433840 -1.059130 0.959566 -0.000001 0.000000 0.000000
 42   -0.001198 2.544984 -2.727678 -0.029973 -0.009811 -0.535603
 43   0.031266 2.722047 2.830313 -0.029986 -0.009837 -0.535603
time 13
  0   0.165302 35.110447 -10.285099 -1.014999 -1.816928 -0.278513
  1   -1.093036 0.000002 -0.326057 -1.546075 -1.570703 -0.014107
  2   2.262337 0.113614 0.064702 -0.069701 0.000624 0.009457
  3   2.380047 0.353302 0.047440 0.000000 -0.000040 -0.069685
  4   2.033756 0.190472 -0.000128 -0.078336 0.000072 -0.000170
  5   2.451511 0.204909 -0.003447 0.000000 -0.000005 0.017373
  6   7.247600 -0.397300 -0.109469 0.000001 0.000009 0.470865
  7   -2.022252 -0.104661 3.136172 -0.000281 -1.370712 -3.613143
  8   1.168026 -0.537438 -0.063437 -0.419125 0.239059 -0.600088
  9   6.790376 -0.619176 0.015206 -0.000102 -0.000151 -0.588497
 10   8.637599 0.544015 -0.090417 -1.570376 0.000362 -0.069282
 11   6.790465 -0.619039 0.017802 -0.001276 -0.011168 -0.427169
 12   -2.022474 -0.104699 -2.873818 0.000434 1.370594 -3.612766
 13   1.167898 -0.537463 0.063297 0.705261 -0.534068 -0.690127
 14   7.002743 -0.617765 -0.183752 0.000115 0.000194 -0.216908
 15   8.209042 0.615527 -0.255885 1.570090 -0.000214 -0.069526
 16   7.002735 -0.617911 -0.183641 0.014627 0.001616 -0.170315
 17   1.574674 0.609930 -0.000899 0.141561 0.084380 -0.961919
 18   -0.602177 0.511412 -0.000006 0.000000 0.000000 0.000000
 19   3.665960 0.313743 1.146658 -0.000002 -0.000014 -0.174510
 20   3.665954 0.313716 -1.090221 0.000007 -0.000003 -0.174546
 21   2.887637 1.322821 1.553437 0.000002 -0.000011 -0.000026
 22   -0.226528 -0.754099 0.477457 0.000194 -0.057459 0.890061
 23   2.907186 1.318940 -1.588113 0.000019 0.000002 -0.000024
 24   -0.078176 -0.558764 -0.547762 0.000187 -0.057484 0.890104
 25   3.956959 2.091091 1.523858 0.102271 -0.029427 -0.168396
 26   3.906194 2.137995 -1.516125 -0.141144 -0.028485 -0.183628
 27   3.289473 1.455197 1.514501 -0.000019 -0.000022 -0.000050
 28   3.291903 1.454803 -1.501142 -0.000002 -0.000009 -0.000024
 29   8.824059 0.150544 0.091743 1.903265 -0.537113 0.008728
 30   2.111085 -0.561179 1.784320 -0.000008 -0.000682 0.000024
 31   2.121290 -0.561289 -1.853599 0.000000 0.000000 -0.000002
 32   -0.810489 -0.093824 3.127092 -0.525908 -3.132537 -0.031763
 33   14.298673 -0.408176 0.475484 -0.000076 -0.000054 -0.694763
 34   15.835795 0.581398 0.242756 0.048574 0.471578 -0.668997
 35   -0.815868 -0.091229 -3.114430 0.353391 3.152774 -0.417728
 36   14.294526 -0.410349 -0.463635 0.000069 0.000060 -0.679914
 37   15.834409 0.579420 -0.284600 -0.143476 -0.151074 -0.771645
 38   0.932647 -3.570940 -2.796468 0.016060 -0.014533 0.439881
 39   -4.457742 -1.054854 -0.746180 0.000000 0.000000 0.000000
 40   1.325139 -3.328671 3.217758 0.176433 0.017041 0.497126
 41   -4.433840 -1.059130 0.959566 -0.000001 0.000000 0.000000
 42   -0.001198 2.544984 -2.727678 -0.029973 -0.009811 -0.535603
 43   0.031266 2.722047 2.830313 -0.029986 -0.009837 -0.535603
time 14
  0   0.173115 37.587086 -14.410225 -1.090542 -2.296831 -0.181424
  1   -1.093036 0.000002 -0.326057 -1.604347 -1.570703 -0.055624
  2   2.262337 0.113614 0.064702 -0.069701 0.000624 0.009457
  3   2.380047 0.353302 0.047440 0.000000 -0.000040 -0.069685
  4   2.033756 0.190472 -0.000128 -0.078336 0.000072 -0.000170
  5   2.451511 0.204909 -0.003447 0.000000 -0.000005 0.017373
  6   7.247600 -0.397300 -0.109469 0.000001 0.000009 0.470865
  7   -2.022252 -0.104661 3.136172 -0.000281 -1.370712 -3.613143
  8   1.168026 -0.537438 -0.063437 -0.024002 0.509096 -0.245640
  9   6.790376 -0.619176 0.015206 -0.000102 -0.000151 -0.906592
 10   8.637599 0.544015 -0.090417 -1.570376 0.000362 -0.069282
 11   6.790465 -0.619039 0.017802 -0.000021 -0.011395 -0.649852
 12   -2.022474 -0.104699 -2.873818 0.000434 1.370594 -3.612766
 13   1.167898 -0.537463 0.063297 0.705261 -0.534068 -0.690127
 14   7.002743 -0.617765 -0.183752 0.000115 0.000194 -0.216908
 15   8.209042 0.615527 -0.255885 1.570090 -0.000214 -0.069526
 16   7.002735 -0.617911 -0.183641 0.014627 0.001616 -0.170315
 17   1.574674 0.609930 -0.000899 0.141561 0.084380 -0.961919
 18   -0.602177 0.511412 -0.000006 0.000000 0.000000 0.000000
 19   3.665960 0.313743 1.146658 -0.000002 -0.000014 -0.174510
 20   3.665954 0.313716 -1.090221 0.000007 -0.000003 -0.174546
 21   2.887637 1.322821 1.553437 0.000002 -0.000011 -0.000026
 22   -0.226528 -0.754099 0.477457 0.000194 -0.057459 0.890061
 23   2.907186 1.318940 -1.588113 0.000019 0.000002 -0.000024
 24   -0.078176 -0.558764 -0.547762 0.000187 -0.057484 0.890104
 25   3.956959 2.091091 1.523858 0.102271 -0.029427 -0.168396
 26   3.906194 2.137995 -1.516125 -0.141144 -0.028485 -0.183628
 27   3.289473 1.455197 1.514501 -0.000019 -0.000022 -0.000050
 28   3.291903 1.454803 -1.501142 -0.000002 -0.000009 -0.000024
 29   8.824059 0.150544 0.091743 0.972757 -0.552163 0.002236
 30   2.111085 -0.561179 1.784320 -0.000008 -0.000682 0.000024
 31   2.121290 -0.561289 -1.853599 0.000000 0.000000 -0.000002
 32   -0.810489 -0.093824 3.127092 -0.544270 -3.035791 -0.257288
 33   14.298673 -0.408176 0.475484 -0.000076 -0.000054 -0.736606
 34   15.835795 0.581398 0.242756 0.045768 0.546351 -0.789662
 35   -0.815868 -0.091229 -3.114430 0.277170 3.185472 -0.427478
 36   14.294526 -0.410349 -0.463635 0.000069 0.000060 -0.716219
 37   15.834409 0.579420 -0.284600 -0.119676 -0.079407 -0.726520
 38   0.905303 -3.750633 -2.792562 -0.053759 0.081944 0.379764
 39   -4.457742 -1.054854 -0.746180 0.000000 0.000000 0.000000
 40   1.356390 -3.152885 3.217758 -0.006399 0.091272 0.396015
 41   -4.433840 -1.059130 0.959566 -0.000001 0.000000 0.000000
 42   -0.001198 2.544984 -2.727678 -0.029973 -0.009811 -0.535603
 43   0.031266 2.722047 2.830313 -0.029986 -0.009837 -0.535603
time 15
  0   0.173115 39.243385 -18.058773 -1.105155 -2.697343 -0.154635
  1   -1.093036 0.000002 -0.326057 -1.608067 -1.570703 0.020539
  2   2.262337 0.113614 0.064702 -0.069701 0.000624 0.009457
  3   2.380047 0.353302 0.047440 0.000000 -0.000040 0.339956
  4   2.033756 0.190472 -0.000128 -0.063379 0.046045 0.626359
  5   2.451511 0.204909 -0.003447 0.433433 -0.047958 0.102591
  6   7.247600 -0.397300 -0.109469 0.000001 0.000009 0.470865
  7   -2.022252 -0.104661 3.136172 -0.000281 -1.370712 -3.613143
  8   1.168026 -0.537438 -0.063437 -0.599791 0.455864 -0.945743
  9   6.790376 -0.619176 0.015206 -0.000102 -0.000151 -1.260912
 10   8.637599 0.544015 -0.090417 -1.570376 0.000362 -0.069282
 11   6.790465 -0.619039 0.017802 0.001410 -0.011651 -0.897969
 12   -2.022474 -0.104699 -2.873818 0.000434 1.370594 -3.612766
 13   1.167898 -0.537463 0.063297 1.485596 0.346503 -0.703142
 14   7.002743 -0.617765 -0.183752 0.000115 0.000194 -0.216743
 15   8.209042 0.615527 -0.255885 1.570090 -0.000214 -0.069526
 16   7.002735 -0.617911 -0.183641 0.014627 0.001616 -0.170315
 17   1.574674 0.609930 -0.000899 -0.298071 -0.163199 -0.719122
 18   -0.602177 0.511412 -0.000006 0.000000 0.000000 0.000000
 19   3.665960 0.313743 1.146658 -0.000002 -0.000014 -0.174510
 20   3.665954 0.313716 -1.090221 0.000007 -0.000003 -0.174546
 21   2.887637 1.322821 1.553437 0.000002 -0.000011 -0.000026
 22   -0.226528 -0.754099 0.477457 0.000194 -0.057459 0.890061
 23   2.907186 1.318940 -1.588113 0.000019 0.000002 -0.000024
 24   -0.078176 -0.558764 -0.547762 0.000187 -0.057484 0.890104
 25   3.956959 2.091091 1.523858 0.102271 -0.029427 -0.168396
 26   3.906194 2.137995 -1.516125 -0.141144 -0.028485 -0.183628
 27   3.289473 1.455197 1.514501 -0.000019 -0.000022 -0.000050
 28   3.291903 1.454803 -1.501142 -0.000002 -0.000009 -0.000024
 29   8.824059 0.150544 0.091743 0.412991 -0.557030 -0.022066
 30   2.111085 -0.561179 1.784320 -0.000008 -0.000682 0.000024
 31   2.121290 -0.561289 -1.853599 0.000000 0.000000 -0.000002
 32   -0.810489 -0.093824 3.127092 -0.536720 -2.962253 -0.502907
 33   14.298673 -0.408176 0.475484 -0.000076 -0.000054 -0.782260
 34   15.835795 0.581398 0.242756 0.032358 0.602333 -0.872972
 35   -0.815868 -0.091229 -3.114430 0.268457 3.168233 -0.456455
 36   14.294526 -0.410349 -0.463635 0.000069 0.000060 -1.077644
 37   15.834409 0.579420 -0.284600 -0.105037 -0.068708 -0.390974
 38   0.889677 -3.820948 -2.792562 -0.088090 0.122410 0.357587
 39   -4.457742 -1.054854 -0.746180 0.000000 0.000000 0.000000
 40   1.368109 -3.082570 3.206039 -0.088090 0.122411 0.357586
 41   -4.433840 -1.059130 0.959566 -0.000001 0.000000 0.000000
 42   -0.001198 2.544984 -2.727678 -0.029973 -0.009811 -0.535603
 43   0.031266 2.722047 2.830313 -0.029986 -0.009837 -0.535603
time 16
  0   0.173115 39.864498 -21.304966 -1.081130 -2.913201 -0.140955
  1   -1.093036 0.000002 -0.326057 -1.541411 -1.570703 -0.005349
  2   2.262337 0.113614 0.064702 0.106280 -0.060006 0.512007
  3   2.380047 0.353302 0.047440 0.194143 -0.237802 0.300002
  4   2.033756 0.190472 -0.000128 -0.077100 -0.013507 -0.173757
  5   2.451511 0.204909 -0.003447 0.433433 -0.047971 0.102591
  6   7.247600 -0.397300 -0.109469 0.000001 0.000009 0.470865
  7   -2.022252 -0.104661 3.136172 -0.000281 -1.370712 -3.613143
  8   1.168026 -0.537438 -0.063437 0.470535 0.397046 -0.367037
  9   6.790376 -0.619176 0.015206 -0.000102 -0.000151 -1.638551
 10   8.637599 0.544015 -0.090417 -1.570376 0.000362 -0.069282
 11   6.790465 -0.619039 0.017802 0.003045 -0.011793 -1.162178
 12   -2.022474 -0.104699 -2.873818 0.000434 1.370594 -3.612766
 13   1.167898 -0.537463 0.063297 1.714614 -0.290939 -0.423229
 14   7.002743 -0.617765 -0.183752 0.000115 0.000194 -0.564668
 15   8.209042 0.615527 -0.255885 1.570090 -0.000214 -0.069526
 16   7.002735 -0.617911 -0.183641 0.014486 0.003195 -0.413826
 17   1.574674 0.609930 -0.000899 -0.657112 0.329238 -0.618107
 18   -0.602177 0.511412 -0.000006 0.000000 0.000000 0.000000
 19   3.665960 0.313743 1.146658 -0.000002 -0.000014 -0.174510
 20   3.665954 0.313716 -1.090221 0.000007 -0.000003 -0.174546
 21   2.887637 1.322821 1.553437 0.000002 -0.000011 -0.000026
 22   -0.226528 -0.754099 0.477457 0.000194 -0.057459 0.890061
 23   2.907186 1.318940 -1.588113 0.000019 0.000002 -0.000024
 24   -0.078176 -0.558764 -0.547762 0.000187 -0.057484 0.890104
 25   3.956959 2.091091 1.523858 0.102271 -0.029427 -0.168396
 26   3.906194 2.137995 -1.516125 -0.141144 -0.028485 -0.183628
 27   3.289473 1.455197 1.514501 -0.000019 -0.000022 -0.000050
 28   3.291903 1.454803 -1.501142 -0.000002 -0.000009 -0.000024
 29   8.824059 0.150544 0.091743 0.185644 -0.501222 -0.159405
 30   2.111085 -0.561179 1.784320 -0.000008 -0.000682 0.000024
 31   2.121290 -0.561289 -1.853599 0.000000 0.000000 -0.000002
 32   -0.810489 -0.093824 3.127092 -0.552659 -3.265480 -0.735889
 33   14.298673 -0.408176 0.475484 -0.000076 -0.000054 -0.828390
 34   15.835795 0.581398 0.242756 -0.105631 0.582932 -0.366145
 35   -0.815868 -0.091229 -3.114430 0.155710 2.914992 -0.349094
 36   14.294526 -0.410349 -0.463635 0.000069 0.000060 -1.222554
 37   15.834409 0.579420 -0.284600 0.088657 0.087552 -0.196685
 38   0.983430 -3.813135 -2.831626 -0.094805 0.097176 0.375060
 39   -4.457742 -1.054854 -0.746180 0.000000 0.000000 0.000000
 40   1.305607 -3.133353 3.155256 -0.094805 0.097165 0.375059
 41   -4.433840 -1.059130 0.959566 -0.000001 0.000000 0.000000
 42   -0.001198 2.341853 -2.719865 -0.023789 0.003406 -0.446900
 43   -0.042955 2.522822 2.744373 -0.050851 -0.030847 -0.432263
time 17
  0   0.173115 39.864498 -21.480753 -1.081130 -2.913201 -0.140955
  1   -1.093036 0.000002 -0.326057 -1.550005 -1.570703 -0.018075
  2   2.262337 0.113614 0.064702 0.106255 -0.060006 0.512007
  3   2.380047 0.353302 0.047440 0.194143 -0.237802 0.300002
  4   2.033756 0.190472 -0.000128 -0.077100 -0.013507 -0.173757
  5   2.451511 0.204909 -0.003447 0.433433 -0.047971 0.102591
  6   7.247600 -0.397300 -0.109469 0.000001 0.000009 0.470865
  7   -2.022252 -0.104661 3.136172 -0.000281 -1.370712 -3.613143
  8   1.168026 -0.537438 -0.063437 0.470535 0.397046 -0.367037
  9   6.790376 -0.619176 0.015206 -0.000102 -0.000151 -1.638551
 10   8.637599 0.544015 -0.090417 -1.570376 0.000362 -0.069282
 11   6.790465 -0.619039 0.017802 0.003045 -0.011793 -1.162178
 12   -2.022474 -0.104699 -2.873818 0.000434 1.370594 -3.612766
 13   1.167898 -0.537463 0.063297 1.722206 -0.425547 -0.442600
 14   7.002743 -0.617765 -0.183752 0.000115 0.000194 -0.914821
 15   8.209042 0.615527 -0.255885 1.570090 -0.095848 -0.069526
 16   7.002735 -0.617911 -0.183641 0.014203 0.004943 -0.658937
 17   1.574674 0.609930 -0.000899 -0.683596 0.259137 -0.710288
 18   -0.602177 0.511412 -0.000006 0.000000 0.000000 0.000000
 19   3.665960 0.313743 1.146658 -0.000002 -0.000014 -0.174510
 20   3.665954 0.313716 -1.090221 0.000007 -0.000003 -0.174546
 21   2.887637 1.322821 1.553437 0.000002 -0.000011 -0.000026
 22   -0.226528 -0.754099 0.477457 0.000194 -0.057459 0.890061
 23   2.907186 1.318940 -1.588113 0.000019 0.000002 -0.000024
 24   -0.078176 -0.558764 -0.547762 0.000187 -0.057484 0.890104
 25   3.956959 2.091091 1.523858 0.102271 -0.029427 -0.168396
 26   3.906194 2.137995 -1.516125 -0.141144 -0.028485 -0.183628
 27   3.289473 1.455197 1.514501 -0.000019 -0.000022 -0.000050
 28   3.291903 1.454803 -1.501142 -0.000002 -0.000009 -0.000024
 29   8.824059 0.150544 0.091743 0.047775 -0.368123 -0.432635
 30   2.111085 -0.561179 1.784320 -0.000008 -0.000682 0.000024
 31   2.121290 -0.561289 -1.853599 0.000000 0.000000 -0.000002
 32   -0.810489 -0.093824 3.127092 -0.651088 -3.659054 -0.898800
 33   14.298673 -0.408176 0.475484 -0.000076 -0.000054 -0.855862
 34   15.835795 0.581398 0.242756 0.208759 0.173462 -0.464141
 35   -0.815868 -0.091229 -3.114430 0.065320 2.642169 -0.257946
 36   14.294526 -0.410349 -0.463635 0.000069 0.000060 -1.321890
 37   15.834409 0.579420 -0.284600 0.271257 0.252821 -0.087067
 38   1.182655 -3.793603 -2.929285 -0.098910 0.036995 0.416665
 39   -4.457742 -1.054854 -0.746180 0.000000 0.000000 0.000000
 40   1.161071 -3.258357 3.049784 -0.098910 0.036996 0.416726
 41   -4.433840 -1.059130 0.959566 -0.000001 0.000000 0.000000
 42   -0.012917 1.865276 -2.712052 -0.009036 0.035052 -0.235369
 43   -0.222648 2.038432 2.552961 -0.100615 -0.080966 -0.185937
time 18
  0   0.173115 39.864498 -20.808857 -1.081130 -2.913201 -0.140955
  1   -1.093036 0.000002 -0.326057 -1.602408 -1.570703 -0.000365
  2   2.262337 0.113614 0.064702 0.106280 -0.060006 0.512007
  3   2.380047 0.353302 0.047440 0.200413 -0.212587 0.170468
  4   2.033756 0.190472 -0.000128 -0.077137 -0.013507 -0.173757
  5   2.451511 0.204909 -0.003447 0.433433 -0.047971 0.102591
  6   7.247600 -0.397300 -0.109469 0.000001 0.000009 0.470865
  7   -2.022252 -0.104661 3.136172 -0.000281 -1.370712 -3.613143
  8   1.168026 -0.537438 -0.063437 0.840599 0.787888 0.139110
  9   6.790376 -0.619176 0.015206 -0.000102 -0.000151 -1.908951
 10   8.637599 0.544015 -0.090417 -1.570376 0.000362 -0.069282
 11   6.790465 -0.619039 0.017802 0.004359 -0.011850 -1.351467
 12   -2.022474 -0.104699 -2.873818 0.000434 1.370594 -3.612766
 13   1.167898 -0.537463 0.063297 1.620912 -0.639689 -0.404524
 14   7.002743 -0.617765 -0.183752 0.000115 0.000194 -1.230074
 15   8.209042 0.615527 -0.255885 1.570090 -0.191179 -0.069526
 16   7.002735 -0.617911 -0.183641 0.013921 0.006635 -0.879708
 17   1.574674 0.609930 -0.000899 -0.687130 0.237671 -0.678132
 18   -0.602177 0.511412 -0.000006 0.000000 0.000000 0.000000
 19   3.665960 0.313743 1.146658 -0.000002 -0.000014 -0.174510
 20   3.665954 0.313716 -1.090221 0.000007 -0.000003 -0.174546
 21   2.887637 1.322821 1.553437 0.000002 -0.000011 -0.000026
 22   -0.226528 -0.754099 0.477457 0.000194 -0.057459 0.890061
 23   2.907186 1.318940 -1.588113 0.000019 0.000002 -0.000024
 24   -0.078176 -0.558764 -0.547762 0.000187 -0.057484 0.890104
 25   3.956959 2.091091 1.523858 0.102271 -0.029427 -0.168396
 26   3.906194 2.137995 -1.516125 -0.141144 -0.028485 -0.183628
 27   3.289473 1.455197 1.514501 -0.000019 -0.000022 -0.000050
 28   3.291903 1.454803 -1.501142 -0.000002 -0.000009 -0.000024
 29   8.824059 0.150544 0.091743 -0.022898 -0.209292 -0.746262
 30   2.111085 -0.561179 1.784320 -0.000008 -0.000682 0.000024
 31   2.121290 -0.561289 -1.853599 0.000000 0.000000 -0.000002
 32   -0.810489 -0.093824 3.127092 -0.651088 -3.659054 -0.898800
 33   14.298673 -0.408176 0.475484 -0.000076 -0.000054 -0.855862
 34   15.835795 0.581398 0.242756 0.162525 0.130463 -0.433666
 35   -0.815868 -0.091229 -3.114430 0.068752 2.554945 -0.251154
 36   14.294526 -0.410349 -0.463635 0.000069 0.000060 -1.321890
 37   15.834409 0.579420 -0.284600 0.182026 0.265823 -0.110035
 38   1.444382 -3.770165 -3.054289 -0.100972 -0.034790 0.466274
 39   -4.457742 -1.054854 -0.746180 0.000000 0.000000 0.000000
 40   1.000910 -3.410705 2.932593 -0.100972 -0.034777 0.466273
 41   -4.433840 -1.059130 0.959566 -0.000001 0.000000 0.000000
 42   -0.024636 1.294946 -2.696427 0.008557 0.072846 0.017105
 43   -0.445311 1.475915 2.322485 -0.160012 -0.140813 0.108066
time 19
  0   0.173115 39.864498 -21.340124 -1.081130 -2.913201 -0.140955
  1   -1.093036 0.000002 -0.326057 -1.549900 -1.570703 -0.001381
  2   2.262337 0.113614 0.064702 0.106280 -0.060006 0.512007
  3   2.380047 0.353302 0.047440 0.197728 -0.225147 0.234521
  4   2.033756 0.190472 -0.000128 -0.077100 -0.013507 -0.173757
  5   2.451511 0.204909 -0.003447 0.435864 -0.011455 0.023961
  6   7.247600 -0.397300 -0.109469 0.000001 0.000009 0.470865
  7   -2.022252 -0.104661 3.136172 -0.000281 -1.370712 -3.613143
  8   1.168026 -0.537438 -0.063437 1.520231 1.005950 0.962571
  9   6.790376 -0.619176 0.015206 -0.000102 -0.000151 -2.179351
 10   8.637599 0.544015 -0.090417 -1.570376 0.000362 -0.069282
 11   6.790465 -0.619039 0.017802 0.005702 -0.011907 -1.540929
 12   -2.022474 -0.104699 -2.873818 0.000434 1.370594 -3.612766
 13   1.167898 -0.537463 0.063297 1.581758 -0.721359 -0.361302
 14   7.002743 -0.617765 -0.183752 0.000115 0.000194 -1.472970
 15   8.209042 0.615527 -0.255885 1.570090 -0.266158 -0.069526
 16   7.002735 -0.617911 -0.183641 0.013638 0.008101 -1.049647
 17   1.574674 0.609930 -0.000899 -0.709877 0.148589 -0.728658
 18   -0.602177 0.511412 -0.000006 0.000000 0.000000 0.000000
 19   3.665960 0.313743 1.146658 -0.000002 -0.000014 -0.174510
 20   3.665954 0.313716 -1.090221 0.000007 -0.000003 -0.174546
 21   2.887637 1.322821 1.553437 0.000002 -0.000011 -0.000026
 22   -0.226528 -0.754099 0.477457 0.000194 -0.057459 0.890061
 23   2.907186 1.318940 -1.588113 0.000019 0.000002 -0.000024
 24   -0.078176 -0.558764 -0.547762 0.000187 -0.057484 0.890104
 25   3.956959 2.091091 1.523858 0.102271 -0.029427 -0.168396
 26   3.906194 2.137995 -1.516125 -0.141144 -0.028485 -0.183628
 27   3.289473 1.455197 1.514501 -0.000019 -0.000022 -0.000050
 28   3.291903 1.454803 -1.501142 -0.000002 -0.000009 -0.000024
 29   8.824059 0.150544 0.091743 -0.048921 -0.076169 -1.004685
 30   2.111085 -0.561179 1.784320 -0.000008 -0.000682 0.000024
 31   2.121290 -0.561289 -1.853599 0.000000 0.000000 -0.000002
 32   -0.810489 -0.093824 3.127092 -0.651088 -3.659054 -0.898800
 33   14.298673 -0.408176 0.475484 -0.000076 -0.000054 -0.855862
 34   15.835795 0.581398 0.242756 0.042548 0.156233 -0.388152
 35   -0.815868 -0.091229 -3.114430 0.066992 2.598229 -0.254605
 36   14.294526 -0.410349 -0.463635 0.000069 0.000060 -1.321890
 37   15.834409 0.579420 -0.284600 0.226356 0.259655 -0.098526
 38   1.655326 -3.750633 -3.151948 -0.101751 -0.094946 0.507941
 39   -4.457742 -1.054854 -0.746180 0.000000 0.000000 0.000000
 40   0.856374 -3.523990 2.827121 -0.101751 -0.094958 0.507940
 41   -4.433840 -1.059130 0.959566 -0.000001 0.000000 0.000000
 42   -0.036355 0.818369 -2.688614 0.023286 0.104492 0.228636
 43   -0.625004 1.003244 2.123260 -0.209776 -0.190947 0.354434
time 20
  0   0.173115 39.864498 -21.847952 -1.081130 -2.913201 -0.140955
  1   -1.093036 0.000002 -0.326057 -1.509131 -1.570703 0.009555
  2   2.262337 0.113614 0.064702 0.106280 -0.060006 0.512007
  3   2.380047 0.353302 0.047440 0.194143 -0.237802 0.300002
  4   2.033756 0.190472 -0.000128 -0.077100 -0.013507 -0.173757
  5   2.451511 0.204909 -0.003447 0.435624 0.018051 -0.039439
  6   7.247600 -0.397300 -0.109469 0.000001 0.000009 0.470865
  7   -2.022252 -0.104661 3.136172 -0.000281 -1.370712 -3.613143
  8   1.168026 -0.537438 -0.063437 1.414679 1.009170 0.996352
  9   6.790376 -0.619176 0.015206 -0.000102 -0.000151 -2.179351
 10   8.637599 0.544015 -0.090417 -1.570376 0.418129 -0.069282
 11   6.790465 -0.619039 0.017802 0.005702 -0.011907 -1.540929
 12   -2.022474 -0.104699 -2.873818 0.000434 1.370594 -3.612766
 13   1.167898 -0.537463 0.063297 1.559405 -0.771755 -0.330974
 14   7.002743 -0.617765 -0.183752 0.000115 0.000194 -1.656132
 15   8.209042 0.615527 -0.255885 1.570090 -0.322373 -0.069526
 16   7.002735 -0.617911 -0.183641 0.013356 0.009116 -1.177915
 17   1.574674 0.609930 -0.000899 -0.720479 0.076097 -0.771348
 18   -0.602177 0.511412 -0.000006 0.000000 0.000000 0.000000
 19   3.665960 0.313743 1.146658 -0.000002 -0.000014 -0.174510
 20   3.665954 0.313716 -1.090221 0.000007 -0.000003 -0.174546
 21   2.887637 1.322821 1.553437 0.000002 -0.000011 -0.000026
 22   -0.226528 -0.754099 0.477457 0.000194 -0.057459 0.890061
 23   2.907186 1.318940 -1.588113 0.000019 0.000002 -0.000024
 24   -0.078176 -0.558764 -0.547762 0.000187 -0.057484 0.890104
 25   3.956959 2.091091 1.523858 0.102271 -0.029427 -0.168396
 26   3.906194 2.137995 -1.516125 -0.141144 -0.028485 -0.183628
 27   3.289473 1.455197 1.514501 -0.000019 -0.000022 -0.000050
 28   3.291903 1.454803 -1.501142 -0.000002 -0.000009 -0.000024
 29   8.824059 0.150544 0.091743 -0.052575 -0.020313 -1.112142
 30   2.111085 -0.561179 1.784320 -0.000008 -0.000682 0.000024
 31   2.121290 -0.561289 -1.853599 0.000000 0.000000 -0.000002
 32   -0.810489 -0.093824 3.127092 -0.651088 -3.659054 -0.898800
 33   14.298673 -0.408176 0.475484 -0.000076 -0.000054 -0.855862
 34   15.835795 0.581398 0.242756 -0.042766 0.179002 -0.358074
 35   -0.815868 -0.091229 -3.114430 0.065320 2.642169 -0.257946
 36   14.294526 -0.410349 -0.463635 0.000069 0.000060 -1.321890
 37   15.834409 0.579420 -0.284600 0.271257 0.252821 -0.087067
 38   1.741266 -3.738914 -3.194918 -0.101878 -0.120168 0.525414
 39   -4.457742 -1.054854 -0.746180 0.000000 0.000000 0.000000
 40   0.793872 -3.582586 2.784151 -0.101878 -0.120180 0.525413
 41   -4.433840 -1.059130 0.959566 -0.000001 0.000000 0.000000
 42   -0.044168 0.619144 -2.688614 0.029482 0.117770 0.317339
 43   -0.695319 0.800113 2.049039 -0.230666 -0.211958 0.457732
end
