version 1
nodes
  0 "Bip01" -1
  1 "Bip01 Pelvis" 0
  2 "Bip01 Spine" 1
  3 "Bip01 Spine1" 2
  4 "Bip01 Spine2" 3
  5 "Bip01 Spine3" 4
  6 "Bip01 Neck" 5
  7 "Bip01 L Arm" 6
  8 "Bip01 L Arm1" 7
  9 "Bip01 L Arm2" 8
 10 "Bip01 L Hand" 9
 11 "Bip06 L elbow2-smooth" 8
 12 "Bip01 R Arm" 6
 13 "Bip01 R Arm1" 12
 14 "Bip01 R Arm2" 13
 15 "Bip01 R Hand" 14
 16 "Bip06 R elbow2-smooth" 13
 17 "Bip01 Head" 6
 18 "Bip06 Head_helper" 17
 19 "Bip06 Head_eyes_l" 18
 20 "Bip06 Head_eyes_r" 18
 21 "Bip06 Head_blink_l" 18
 22 "Bip06 Head_blink_smooth_l1" 21
 23 "Bip06 Head_blink_r" 18
 24 "Bip06 Head_blink_smooth_r1" 23
 25 "Bip06 Head_L_eyebrow" 18
 26 "Bip06 Head_R_eyebrow" 18
 27 "Bip06 Head_blink_l_lid" 18
 28 "Bip06 Head_blink_r_lid" 18
 29 "Bip06 bunny" 18
 30 "Bip06 bunnyL" 29
 31 "Bip06 bunnyR" 29
 32 "Bip01 L Leg" 1
 33 "Bip01 L Leg1" 32
 34 "Bip01 L Foot" 33
 35 "Bip01 R Leg" 1
 36 "Bip01 R Leg1" 35
 37 "Bip01 R Foot" 36
 38 "Bip03 HairR1" 17
 39 "Bip03 HairR2" 38
 40 "Bip03 HairL1" 17
 41 "Bip03 HairL2" 40
 42 "Bip03 swingR" 17
 43 "Bip03 swingL" 17
end
skeleton
time 0
  0   0.243428 0.429701 1.851990 0.000000 0.000000 -1.571449
  1   -1.093036 0.000002 -0.326057 -1.570809 -1.570379 0.000119
  2   2.262337 0.113614 0.064702 -0.069344 -0.007166 -0.103504
  3   2.380047 0.353302 0.047440 0.000000 -0.000040 -0.008632
  4   2.033756 0.190472 -0.000128 -0.078225 0.004794 0.060544
  5   2.451511 0.204909 -0.003447 0.000000 -0.000005 -0.017472
  6   7.247600 -0.397300 -0.109469 0.000001 0.000009 0.052298
  7   -2.022252 -0.104661 3.136172 -0.299166 -1.361862 -2.901749
  8   1.168026 -0.537438 -0.063437 0.555647 1.136113 0.768931
  9   6.790376 -0.619176 0.015206 -0.000324 -0.000352 -0.286627
 10   8.637599 0.544015 -0.090417 -1.570112 0.000362 -0.069282
 11   6.790465 -0.619039 0.017802 -0.002473 -0.010969 -0.215733
 12   -2.022474 -0.104699 -2.873818 0.298777 1.361800 -2.901984
 13   1.167898 -0.537463 0.063297 -0.658586 -1.227092 0.844551
 14   7.002743 -0.617765 -0.183752 0.000229 0.000250 -1.289478
 15   8.209042 0.615527 -0.255885 1.570090 -0.000063 -0.069646
 16   7.002735 -0.617911 -0.183641 0.013968 0.007086 -0.921268
 17   1.574674 0.609930 -0.000899 0.156956 -0.048982 0.292465
 18   -0.602177 0.511412 -0.000006 0.000000 0.000000 0.000000
 19   3.673773 0.177020 1.119313 -0.000002 -0.000014 -0.174510
 20   3.673767 0.176993 -1.117566 0.000007 -0.000003 -0.174546
 21   3.938451 1.330634 1.627658 0.000002 -0.000011 -0.000026
 22   -0.246060 -0.011889 0.516521 -0.000011 0.000031 0.000025
 23   3.938468 1.330659 -1.631083 0.000019 0.000002 -0.000024
 24   -0.246150 -0.011872 -0.516511 -0.000005 -0.000006 0.000048
 25   4.941364 1.997338 1.629330 0.000018 -0.000001 -0.000024
 26   4.941382 1.997366 -1.629410 -0.000001 0.000005 -0.000024
 27   2.918368 1.623171 1.514501 -0.000019 -0.000022 -0.000050
 28   2.920798 1.614964 -1.501142 -0.000002 -0.000009 -0.000024
 29   8.824059 0.150544 0.091743 0.000006 -0.000231 -0.174534
 30   2.111085 -0.561179 1.784320 -0.000008 -0.000682 0.000024
 31   2.121290 -0.561289 -1.853599 0.000000 0.000000 -0.000002
 32   -0.810489 -0.093824 3.127092 -0.055295 -3.106560 -0.210100
 33   14.298673 -0.408176 0.475484 -0.000100 -0.000042 -0.234016
 34   15.835795 0.581398 0.242756 -0.095464 -0.022329 0.024384
 35   -0.815868 -0.091229 -3.114430 0.257719 3.091220 0.081062
 36   14.294526 -0.410349 -0.463635 0.000105 0.000060 -0.126924
 37   15.834409 0.579420 -0.284600 -0.017992 0.068995 0.192859
 38   1.139685 -3.453749 -2.823813 0.000000 0.000000 0.000001
 39   -4.457742 -1.054854 -0.746180 0.000000 0.000000 0.000000
 40   1.118101 -3.449769 3.237290 0.000000 0.000001 0.000000
 41   -4.433840 -1.059130 0.959566 -0.000001 0.000000 0.000000
 42   -0.657468 1.697302 -2.688614 0.000000 0.000002 0.000000
 43   -0.664068 1.698578 2.869377 0.000000 0.000002 0.000000
time 1
  0   0.255147 -0.367199 0.519918 0.000000 0.134245 -1.571449
  1   -1.093036 0.000002 -0.326057 -1.570809 -1.570379 -0.000026
  2   2.262337 0.113614 0.064702 -0.069344 -0.007166 -0.103504
  3   2.380047 0.353302 0.047440 0.000000 -0.000040 0.569906
  4   2.033756 0.190472 -0.000128 -0.074961 0.022855 0.294228
  5   2.451511 0.204909 -0.003447 0.000000 -0.000005 0.299030
  6   7.247600 -0.397300 -0.109469 0.000001 0.000009 0.052298
  7   -2.022252 -0.104661 3.136172 -0.299166 -1.361862 -2.901749
  8   1.168026 -0.537438 -0.063437 -1.242657 0.705121 -1.189612
  9   6.790376 -0.619176 0.015206 -0.000324 -0.000352 -0.502766
 10   8.637599 0.544015 -0.090417 -1.570112 0.000362 -0.069282
 11   6.790465 -0.619039 0.017802 -0.001656 -0.011168 -0.367072
 12   -2.022474 -0.104699 -2.873818 0.298777 1.361800 -2.901984
 13   1.167898 -0.537463 0.063297 1.530373 -0.699086 -1.337849
 14   7.002743 -0.617765 -0.183752 0.000229 0.000250 -1.289478
 15   8.209042 0.615527 -0.255885 1.570090 -0.000063 -0.069646
 16   7.002735 -0.617911 -0.183641 0.013968 0.007086 -0.921268
 17   1.574674 0.609930 -0.000899 0.086521 -0.136503 0.139779
 18   -0.602177 0.511412 -0.000006 0.000000 0.000000 0.000000
 19   3.673773 0.200458 1.119313 -0.000002 -0.000014 -0.174510
 20   3.673767 0.200431 -1.117566 0.000007 -0.000003 -0.174546
 21   3.778289 1.330634 1.619845 0.000002 -0.000011 -0.000026
 22   -0.246060 -0.125174 0.516521 0.000005 -0.008945 0.139004
 23   3.786119 1.330659 -1.623270 0.000019 0.000002 -0.000024
 24   -0.218805 -0.093906 -0.516511 0.000019 -0.008970 0.139096
 25   4.789015 2.012964 1.617611 0.015969 -0.004578 -0.026318
 26   4.785127 2.016898 -1.617691 -0.022053 -0.004436 -0.028691
 27   2.969151 1.603639 1.514501 -0.000019 -0.000022 -0.000050
 28   2.971581 1.603245 -1.501142 -0.000002 -0.000009 -0.000024
 29   8.824059 0.150544 0.091743 -0.004985 -0.013501 -1.041863
 30   2.111085 -0.561179 1.784320 -0.000008 -0.000682 0.000024
 31   2.121290 -0.561289 -1.853599 0.000000 0.000000 -0.000002
 32   -0.810489 -0.093824 3.127092 -0.045601 -3.112195 -0.551462
 33   14.298673 -0.408176 0.475484 -0.000100 -0.000042 -0.449264
 34   15.835795 0.581398 0.242756 -0.103491 -0.008126 0.032940
 35   -0.815868 -0.091229 -3.114430 0.208431 2.980480 -0.380426
 36   14.294526 -0.410349 -0.463635 0.000105 0.000060 -1.432040
 37   15.834409 0.579420 -0.284600 -0.071306 -0.000420 -0.291092
 38   1.120153 -3.434217 -2.823813 0.009598 0.002940 0.605264
 39   -4.465555 -1.047041 -0.746180 0.004123 0.002037 0.273698
 40   1.137633 -3.469301 3.237290 0.009598 0.002941 0.605263
 41   -4.426027 -1.066943 0.959566 0.004122 0.002037 0.273698
 42   -0.469962 1.951216 -2.688614 -0.003344 -0.003003 -0.267571
 43   -0.484375 1.979837 2.865470 -0.003336 -0.003011 -0.267571
time 2
  0   0.255147 -1.140660 -1.706712 0.000000 0.347081 -1.571449
  1   -1.093036 0.000002 -0.326057 -1.570809 -1.570379 -0.000171
  2   2.262337 0.113614 0.064702 -0.069344 -0.007166 -0.103504
  3   2.380047 0.353302 0.047440 0.000000 -0.000040 0.559683
  4   2.033756 0.190472 -0.000128 -0.074795 0.023346 0.301405
  5   2.451511 0.204909 -0.003447 0.000000 -0.000005 0.320601
  6   7.247600 -0.397300 -0.109469 0.000001 0.000009 0.052298
  7   -2.022252 -0.104661 3.136172 -0.299166 -1.361862 -2.901749
  8   1.168026 -0.537438 -0.063437 -0.939860 0.682228 -1.078780
  9   6.790376 -0.619176 0.015206 -0.000324 -0.000352 -0.844558
 10   8.637599 0.544015 -0.090417 -1.570112 0.000362 -0.069282
 11   6.790465 -0.619039 0.017802 -0.000371 -0.011452 -0.606538
 12   -2.022474 -0.104699 -2.873818 0.298777 1.361800 -2.901984
 13   1.167898 -0.537463 0.063297 1.504716 -0.674422 -1.094015
 14   7.002743 -0.617765 -0.183752 0.000229 0.000250 -1.289478
 15   8.209042 0.615527 -0.255885 1.570090 -0.000063 -0.069646
 16   7.002735 -0.617911 -0.183641 0.013968 0.007086 -0.921268
 17   1.574674 0.609930 -0.000899 0.062433 -0.149141 0.284666
 18   -0.602177 0.511412 -0.000006 0.000000 0.000000 0.000000
 19   3.665960 0.247335 1.127126 -0.000002 -0.000014 -0.174510
 20   3.665954 0.247308 -1.109753 0.000007 -0.000003 -0.174546
 21   3.414997 1.330634 1.588594 0.000002 -0.000011 -0.000026
 22   -0.238247 -0.379088 0.496989 0.000083 -0.028708 0.445010
 23   3.426733 1.330659 -1.611551 0.000019 0.000002 -0.000024
 24   -0.164116 -0.285318 -0.528230 0.000091 -0.028733 0.445062
 25   4.453068 2.040308 1.578547 0.051132 -0.014700 -0.084216
 26   4.425741 2.067681 -1.578627 -0.070566 -0.014240 -0.091826
 27   3.098061 1.541137 1.514501 -0.000019 -0.000022 -0.000050
 28   3.100491 1.540743 -1.501142 -0.000002 -0.000009 -0.000024
 29   8.824059 0.150544 0.091743 -0.004361 -0.015946 -1.251627
 30   2.111085 -0.561179 1.784320 -0.000008 -0.000682 0.000024
 31   2.121290 -0.561289 -1.853599 0.000000 0.000000 -0.000002
 32   -0.810489 -0.093824 3.127092 -0.036001 -3.106942 -0.895841
 33   14.298673 -0.408176 0.475484 -0.000100 -0.000042 -0.757567
 34   15.835795 0.581398 0.242756 -0.107908 -0.010835 0.208777
 35   -0.815868 -0.091229 -3.114430 0.229555 3.012428 -0.234667
 36   14.294526 -0.410349 -0.463635 0.000105 0.000060 -1.298562
 37   15.834409 0.579420 -0.284600 -0.068371 -0.020486 -0.561384
 38   1.108434 -3.434217 -2.823813 0.011577 0.003579 0.769058
 39   -4.465555 -1.047041 -0.746180 0.004123 0.002037 0.273698
 40   1.149352 -3.469301 3.237290 0.011577 0.003580 0.769119
 41   -4.426027 -1.066943 0.959566 0.004122 0.002037 0.273698
 42   -0.466056 1.951216 -2.688614 -0.007335 -0.006530 -0.266024
 43   -0.484375 1.972024 2.865470 -0.007322 -0.006526 -0.266024
time 3
  0   0.255147 -2.027406 -3.784901 0.000000 0.532979 -1.571449
  1   -1.093036 0.000002 -0.326057 -1.570809 -1.570379 -0.000026
  2   2.262337 0.113614 0.064702 -0.069344 -0.007166 -0.103504
  3   2.380047 0.353302 0.047440 0.000000 -0.000040 0.490855
  4   2.033756 0.190472 -0.000128 -0.075219 0.022088 0.284079
  5   2.451511 0.204909 -0.003447 0.000000 -0.000005 0.308416
  6   7.247600 -0.397300 -0.109469 0.000001 0.000009 0.052298
  7   -2.022252 -0.104661 3.136172 -0.299166 -1.361862 -2.901749
  8   1.168026 -0.537438 -0.063437 -0.597323 0.730882 -0.915947
  9   6.790376 -0.619176 0.015206 -0.000324 -0.000352 -1.143258
 10   8.637599 0.544015 -0.090417 -1.570112 0.000362 -0.069282
 11   6.790465 -0.619039 0.017802 0.000826 -0.011651 -0.815378
 12   -2.022474 -0.104699 -2.873818 0.298777 1.361800 -2.901792
 13   1.167898 -0.537463 0.063297 1.386200 -0.727309 -0.794186
 14   7.002743 -0.617765 -0.183752 0.000229 0.000250 -1.289478
 15   8.209042 0.615527 -0.255885 1.570090 -0.000063 -0.069646
 16   7.002735 -0.617911 -0.183641 0.013968 0.007086 -0.921268
 17   1.574674 0.609930 -0.000899 0.049719 -0.154892 0.436354
 18   -0.602177 0.511412 -0.000006 0.000000 0.000000 0.000000
 19   3.665960 0.290305 1.138845 -0.000002 -0.000014 -0.174510
 20   3.665954 0.290278 -1.098034 0.000007 -0.000003 -0.174546
 21   3.055611 1.322821 1.565156 0.000002 -0.000011 -0.000026
 22   -0.234341 -0.636908 0.485270 0.000147 -0.048483 0.750949
 23   3.067347 1.322846 -1.592019 0.000019 0.000002 -0.000024
 24   -0.101614 -0.476730 -0.547762 0.000163 -0.048508 0.751029
 25   4.109307 2.079372 1.543390 0.086283 -0.024823 -0.142077
 26   4.066355 2.118464 -1.535657 -0.119092 -0.024032 -0.154937
 27   3.234784 1.486448 1.514501 -0.000019 -0.000022 -0.000050
 28   3.237214 1.486054 -1.501142 -0.000002 -0.000009 -0.000024
 29   8.824059 0.150544 0.091743 -0.003291 -0.017227 -1.359298
 30   2.111085 -0.561179 1.784320 -0.000008 -0.000682 0.000024
 31   2.121290 -0.561289 -1.853599 0.000000 0.000000 -0.000002
 32   -0.810489 -0.093824 3.127092 -0.028078 -3.102453 -1.155804
 33   14.298673 -0.408176 0.475484 -0.000100 -0.000042 -0.997111
 34   15.835795 0.581398 0.242756 -0.111450 -0.015325 0.375882
 35   -0.815868 -0.091229 -3.114430 0.249006 3.056930 -0.051715
 36   14.294526 -0.410349 -0.463635 0.000105 0.000060 -1.038713
 37   15.834409 0.579420 -0.284600 -0.065081 -0.029112 -0.766068
 38   1.100621 -3.434217 -2.823813 0.012124 0.003916 0.853247
 39   -4.465555 -1.047041 -0.746180 0.004123 0.002037 0.273698
 40   1.157165 -3.469301 3.237290 0.012124 0.003917 0.853246
 41   -4.426027 -1.066943 0.959566 0.004122 0.002037 0.273698
 42   -0.458243 1.935591 -2.688614 -0.010894 -0.009642 -0.261675
 43   -0.484375 1.964211 2.869377 -0.010895 -0.009664 -0.261675
time 4
  0   0.255147 -3.214942 -7.581892 0.000000 0.662423 -1.571449
  1   -1.093036 0.000002 -0.326057 -1.570809 -1.570379 0.000119
  2   2.262337 0.113614 0.064702 -0.069344 -0.007166 -0.103504
  3   2.380047 0.353302 0.047440 0.000000 -0.000040 0.435903
  4   2.033756 0.190472 -0.000128 -0.075514 0.020925 0.269254
  5   2.451511 0.204909 -0.003447 0.000000 -0.000005 0.296281
  6   7.247600 -0.397300 -0.109469 0.000001 0.000009 0.052298
  7   -2.022252 -0.104661 3.136172 -0.299166 -1.361862 -2.901749
  8   1.168026 -0.537438 -0.063437 -0.340911 0.753624 -0.792779
  9   6.790376 -0.619176 0.015206 -0.000324 -0.000352 -1.350492
 10   8.637599 0.544015 -0.090417 -1.570112 0.000362 -0.069282
 11   6.790465 -0.619039 0.017802 0.001702 -0.011793 -0.960662
 12   -2.022474 -0.104699 -2.873818 0.298777 1.361800 -2.901792
 13   1.167898 -0.537463 0.063297 1.267192 -0.743582 -0.559069
 14   7.002743 -0.617765 -0.183752 0.000229 0.000250 -1.289478
 15   8.209042 0.615527 -0.255885 1.570090 -0.000063 -0.069646
 16   7.002735 -0.617911 -0.183641 0.013968 0.007086 -0.921268
 17   1.574674 0.609930 -0.000899 0.041676 -0.158016 0.544613
 18   -0.602177 0.511412 -0.000006 0.000000 0.000000 0.000000
 19   3.665960 0.313743 1.146658 -0.000002 -0.000014 -0.174510
 20   3.665954 0.313716 -1.090221 0.000007 -0.000003 -0.174546
 21   2.887637 1.322821 1.553437 0.000002 -0.000011 -0.000026
 22   -0.226528 -0.754099 0.477457 0.000194 -0.057459 0.890061
 23   2.907186 1.318940 -1.588113 0.000019 0.000002 -0.000024
 24   -0.078176 -0.558764 -0.547762 0.000187 -0.057484 0.890104
 25   3.956959 2.091091 1.523858 0.102271 -0.029427 -0.168396
 26   3.906194 2.137995 -1.516125 -0.141144 -0.028485 -0.183628
 27   3.289473 1.455197 1.514501 -0.000019 -0.000022 -0.000050
 28   3.291903 1.454803 -1.501142 -0.000002 -0.000009 -0.000024
 29   8.824059 0.150544 0.091743 -0.002133 -0.017678 -1.399052
 30   2.111085 -0.561179 1.784320 -0.000008 -0.000682 0.000024
 31   2.121290 -0.561289 -1.853599 0.000000 0.000000 -0.000002
 32   -0.810489 -0.093824 3.127092 -0.020528 -3.101880 -1.217337
 33   14.298673 -0.408176 0.475484 -0.000100 -0.000042 -1.609747
 34   15.835795 0.581398 0.242756 -0.092888 -0.068086 0.506690
 35   -0.815868 -0.091229 -3.114430 0.257719 3.091220 0.081062
 36   14.294526 -0.410349 -0.463635 0.000105 0.000060 -0.841895
 37   15.834409 0.579420 -0.284600 -0.062618 -0.034129 -0.904028
 38   1.100621 -3.434217 -2.823813 0.012419 0.004049 0.884160
 39   -4.465555 -1.047041 -0.746180 0.004123 0.002037 0.273698
 40   1.157165 -3.469301 3.237290 0.012419 0.004038 0.884221
 41   -4.426027 -1.066943 0.959566 0.004122 0.002037 0.273698
 42   -0.458243 1.916059 -2.688614 -0.014022 -0.012402 -0.254816
 43   -0.488281 1.952492 2.869377 -0.014031 -0.012410 -0.254816
time 5
  0   0.247334 -4.800928 -12.968775 -0.002477 0.845031 -1.574394
  1   -1.093036 0.000002 -0.326057 -1.570809 -1.570379 -0.000026
  2   2.262337 0.113614 0.064702 -0.069344 -0.007166 -0.103504
  3   2.380047 0.353302 0.047440 0.000000 -0.000040 0.334916
  4   2.033756 0.190472 -0.000128 -0.077211 0.013495 0.171931
  5   2.451511 0.204909 -0.003447 0.000000 -0.000005 0.224387
  6   7.247600 -0.397300 -0.109469 0.000001 0.000009 -0.115965
  7   -2.022252 -0.104661 3.136172 -0.299262 -1.361862 -2.734207
  8   1.168026 -0.537438 -0.063437 -0.074310 0.824718 -0.411572
  9   6.790376 -0.619176 0.015206 -0.000324 -0.000352 -1.350492
 10   8.637599 0.544015 -0.090417 -1.570112 0.000362 -0.069282
 11   6.790465 -0.619039 0.017802 0.001702 -0.011793 -0.960604
 12   -2.022474 -0.104699 -2.873818 0.534367 1.450671 -2.494510
 13   1.167898 -0.537463 0.063297 1.389012 -0.611110 -0.560401
 14   7.002743 -0.617765 -0.183752 0.000229 0.000250 -1.289478
 15   8.209042 0.615527 -0.255885 1.570090 -0.000063 -0.069646
 16   7.002735 -0.617911 -0.183641 0.013968 0.007086 -0.921268
 17   1.574674 0.609930 -0.000899 0.121454 -0.110848 0.361508
 18   -0.602177 0.511412 -0.000006 0.000000 0.000000 0.000000
 19   3.665960 0.313743 1.146658 -0.000002 -0.000014 -0.174510
 20   3.665954 0.313716 -1.090221 0.000007 -0.000003 -0.174546
 21   2.887637 1.322821 1.553437 0.000002 -0.000011 -0.000026
 22   -0.226528 -0.754099 0.477457 0.000194 -0.057459 0.890061
 23   2.907186 1.318940 -1.588113 0.000019 0.000002 -0.000024
 24   -0.078176 -0.558764 -0.547762 0.000187 -0.057484 0.890104
 25   3.956959 2.091091 1.523858 0.102271 -0.029427 -0.168396
 26   3.906194 2.137995 -1.516125 -0.141144 -0.028485 -0.183628
 27   3.289473 1.455197 1.514501 -0.000019 -0.000022 -0.000050
 28   3.291903 1.454803 -1.501142 -0.000002 -0.000009 -0.000024
 29   8.824059 0.150544 0.091743 -0.001509 -0.017750 -1.404685
 30   2.111085 -0.561179 1.784320 -0.000008 -0.000682 0.000024
 31   2.121290 -0.561289 -1.853599 0.000000 0.000000 -0.000002
 32   -0.810489 -0.093824 3.127092 -0.024256 -3.109903 -1.007009
 33   14.298673 -0.408176 0.475484 -0.000100 -0.000042 -1.715029
 34   15.835795 0.581398 0.242756 0.045952 -0.110353 -0.487074
 35   -0.815868 -0.091229 -3.114430 0.260712 3.108740 0.147286
 36   14.294526 -0.410349 -0.463635 0.000105 0.000060 -0.913809
 37   15.834409 0.579420 -0.284600 -0.059111 -0.039939 -0.858447
 38   1.100621 -3.434217 -2.823813 0.013724 0.004049 0.888559
 39   -4.465555 -1.047041 -0.746180 0.004123 0.002037 0.273698
 40   1.157165 -3.469301 3.237290 0.013724 0.004050 0.888620
 41   -4.426027 -1.066943 0.959566 0.004122 0.002037 0.273698
 42   -0.458243 1.884808 -2.680801 -0.016754 -0.014840 -0.245824
 43   -0.496094 1.929054 2.877190 -0.016755 -0.014811 -0.245824
time 6
  0   0.247334 -6.683798 -18.297062 -0.007183 1.035019 -1.580379
  1   -1.093036 0.000002 -0.326057 -1.570809 -1.570379 -0.000026
  2   2.262337 0.113614 0.064702 -0.069344 -0.007166 -0.103504
  3   2.380047 0.353302 0.047440 0.000000 -0.000040 0.225563
  4   2.033756 0.190472 -0.000128 -0.078225 0.004470 0.058224
  5   2.451511 0.204909 -0.003447 0.000000 -0.000005 0.141596
  6   7.247600 -0.397300 -0.109469 0.000001 0.000009 -0.319103
  7   -2.022252 -0.104661 3.136172 -0.299262 -1.361862 -2.530978
  8   1.168026 -0.537438 -0.063437 0.227158 0.773649 0.031504
  9   6.790376 -0.619176 0.015206 -0.000324 -0.000352 -1.320833
 10   8.637599 0.544015 -0.090417 -1.570112 0.000362 -0.069282
 11   6.790465 -0.619039 0.017802 0.001556 -0.011708 -0.939726
 12   -2.022474 -0.104699 -2.873818 1.720363 1.508748 -1.101956
 13   1.167898 -0.537463 0.063297 1.504505 -0.445177 -0.595753
 14   7.002743 -0.617765 -0.183752 0.000229 0.000250 -1.289478
 15   8.209042 0.615527 -0.255885 1.570090 -0.000063 -0.069646
 16   7.002735 -0.617911 -0.183641 0.013968 0.007086 -0.921268
 17   1.574674 0.609930 -0.000899 0.164715 -0.006997 0.127249
 18   -0.602177 0.511412 -0.000006 0.000000 0.000000 0.000000
 19   3.665960 0.313743 1.146658 -0.000002 -0.000014 -0.174510
 20   3.665954 0.313716 -1.090221 0.000007 -0.000003 -0.174546
 21   2.887637 1.322821 1.553437 0.000002 -0.000011 -0.000026
 22   -0.226528 -0.754099 0.477457 0.000194 -0.057459 0.890061
 23   2.907186 1.318940 -1.588113 0.000019 0.000002 -0.000024
 24   -0.078176 -0.558764 -0.547762 0.000187 -0.057484 0.890104
 25   3.956959 2.091091 1.523858 0.102271 -0.029427 -0.168396
 26   3.906194 2.137995 -1.516125 -0.141144 -0.028485 -0.183628
 27   3.289473 1.455197 1.514501 -0.000019 -0.000022 -0.000050
 28   3.291903 1.454803 -1.501142 -0.000002 -0.000009 -0.000024
 29   8.824059 0.150544 0.091743 -0.003470 -0.016325 -1.123086
 30   2.111085 -0.561179 1.784320 -0.000008 -0.000682 0.000024
 31   2.121290 -0.561289 -1.853599 0.000000 0.000000 -0.000002
 32   -0.810489 -0.093824 3.127092 -0.029849 -3.122700 -0.724334
 33   14.298673 -0.408176 0.475484 -0.000100 -0.000042 -1.613955
 34   15.835795 0.581398 0.242756 0.063387 -0.106546 -0.463744
 35   -0.815868 -0.091229 -3.114430 0.262384 3.128509 0.222713
 36   14.294526 -0.410349 -0.463635 0.000105 0.000060 -1.016621
 37   15.834409 0.579420 -0.284600 -0.054205 -0.046389 -0.791064
 38   1.120153 -3.414685 -2.823813 0.016397 0.000807 0.546613
 39   -4.465555 -1.047041 -0.746180 0.004123 0.002037 0.273698
 40   1.137633 -3.488833 3.237290 0.016397 0.000808 0.546674
 41   -4.426027 -1.066943 0.959566 0.004122 0.002037 0.273698
 42   -0.450430 1.853557 -2.669082 -0.019139 -0.016925 -0.235076
 43   -0.500000 1.905616 2.888909 -0.019141 -0.016913 -0.235076
time 7
  0   0.259053 -8.672140 -23.473001 -0.018081 1.227140 -1.591684
  1   -1.093036 0.000002 -0.326057 -1.570809 -1.570379 -0.000026
  2   2.262337 0.113614 0.064702 -0.069344 -0.007166 -0.103504
  3   2.380047 0.353302 0.047440 0.000000 -0.000040 0.118801
  4   2.033756 0.190472 -0.000128 -0.078299 -0.003463 -0.047581
  5   2.451511 0.204909 -0.003447 0.000000 -0.000005 0.062050
  6   7.247600 -0.397300 -0.109469 0.000001 0.000009 -0.502317
  7   -2.022252 -0.104661 3.136172 -0.299358 -1.361862 -2.347565
  8   1.168026 -0.537438 -0.063437 0.464840 0.598354 0.358687
  9   6.790376 -0.619176 0.015206 -0.000324 -0.000352 -1.279628
 10   8.637599 0.544015 -0.090417 -1.570112 0.000362 -0.069282
 11   6.790465 -0.619039 0.017802 0.001410 -0.011708 -0.910946
 12   -2.022474 -0.104699 -2.873818 2.674697 1.434185 0.039087
 13   1.167898 -0.537463 0.063297 1.612828 -0.269886 -0.658467
 14   7.002743 -0.617765 -0.183752 0.000229 0.000250 -1.289478
 15   8.209042 0.615527 -0.255885 1.570090 -0.000063 -0.069646
 16   7.002735 -0.617911 -0.183641 0.013968 0.007086 -0.921268
 17   1.574674 0.609930 -0.000899 0.138149 0.090344 -0.066760
 18   -0.602177 0.511412 -0.000006 0.000000 0.000000 0.000000
 19   3.665960 0.313743 1.146658 -0.000002 -0.000014 -0.174510
 20   3.665954 0.313716 -1.090221 0.000007 -0.000003 -0.174546
 21   2.887637 1.322821 1.553437 0.000002 -0.000011 -0.000026
 22   -0.226528 -0.754099 0.477457 0.000194 -0.057459 0.890061
 23   2.907186 1.318940 -1.588113 0.000019 0.000002 -0.000024
 24   -0.078176 -0.558764 -0.547762 0.000187 -0.057484 0.890104
 25   3.956959 2.091091 1.523858 0.102271 -0.029427 -0.168396
 26   3.906194 2.137995 -1.516125 -0.141144 -0.028485 -0.183628
 27   3.289473 1.455197 1.514501 -0.000019 -0.000022 -0.000050
 28   3.291903 1.454803 -1.501142 -0.000002 -0.000009 -0.000024
 29   8.824059 0.150544 0.091743 -0.008015 -0.012883 -0.451412
 30   2.111085 -0.561179 1.784320 -0.000008 -0.000682 0.000024
 31   2.121290 -0.561289 -1.853599 0.000000 0.000000 -0.000002
 32   -0.810489 -0.093824 3.127092 -0.032645 -3.136739 -0.433291
 33   14.298673 -0.408176 0.475484 -0.000100 -0.000042 -1.436262
 34   15.835795 0.581398 0.242756 0.055291 -0.112574 -0.286275
 35   -0.815868 -0.091229 -3.114430 0.262736 3.144623 0.284226
 36   14.294526 -0.410349 -0.463635 0.000105 0.000060 -1.133646
 37   15.834409 0.579420 -0.284600 -0.049043 -0.051764 -0.714504
 38   1.139685 -3.402966 -2.823813 0.017997 -0.002398 0.204729
 39   -4.465555 -1.047041 -0.746180 0.004123 0.002037 0.273698
 40   1.118101 -3.500552 3.237290 0.017997 -0.002397 0.204728
 41   -4.426027 -1.066943 0.959566 0.004122 0.002037 0.273698
 42   -0.450430 1.810587 -2.661269 -0.021189 -0.018719 -0.222906
 43   -0.507813 1.878271 2.892815 -0.021190 -0.018718 -0.222906
time 8
  0   0.259053 -10.621418 -28.629410 -0.052839 1.412682 -1.626168
  1   -1.093036 0.000002 -0.326057 -1.570809 -1.570379 -0.000026
  2   2.262337 0.113614 0.064702 -0.069344 -0.007166 -0.103504
  3   2.380047 0.353302 0.047440 0.000000 -0.000040 0.026221
  4   2.033756 0.190472 -0.000128 -0.077801 -0.009444 -0.121851
  5   2.451511 0.204909 -0.003447 0.000000 -0.000005 -0.000210
  6   7.247600 -0.397300 -0.109469 0.000001 0.000009 -0.610427
  7   -2.022252 -0.104661 3.136172 -0.299358 -1.361862 -2.239470
  8   1.168026 -0.537438 -0.063437 0.663730 0.387939 0.517850
  9   6.790376 -0.619176 0.015206 -0.000324 -0.000352 -1.244611
 10   8.637599 0.544015 -0.090417 -1.570112 0.000362 -0.069282
 11   6.790465 -0.619039 0.017802 0.001264 -0.011708 -0.886492
 12   -2.022474 -0.104699 -2.873818 2.866119 1.344066 -5.940615
 13   1.167898 -0.537463 0.063297 1.714122 -0.106852 -0.713675
 14   7.002743 -0.617765 -0.183752 0.000229 0.000250 -1.289478
 15   8.209042 0.615527 -0.255885 1.570090 -0.000063 -0.069646
 16   7.002735 -0.617911 -0.183641 0.013968 0.007086 -0.921268
 17   1.574674 0.609930 -0.000899 0.098382 0.132093 -0.123827
 18   -0.602177 0.511412 -0.000006 0.000000 0.000000 0.000000
 19   3.665960 0.313743 1.146658 -0.000002 -0.000014 -0.174510
 20   3.665954 0.313716 -1.090221 0.000007 -0.000003 -0.174546
 21   2.887637 1.322821 1.553437 0.000002 -0.000011 -0.000026
 22   -0.226528 -0.754099 0.477457 0.000194 -0.057459 0.890061
 23   2.907186 1.318940 -1.588113 0.000019 0.000002 -0.000024
 24   -0.078176 -0.558764 -0.547762 0.000187 -0.057484 0.890104
 25   3.956959 2.091091 1.523858 0.102271 -0.029427 -0.168396
 26   3.906194 2.137995 -1.516125 -0.141144 -0.028485 -0.183628
 27   3.289473 1.455197 1.514501 -0.000019 -0.000022 -0.000050
 28   3.291903 1.454803 -1.501142 -0.000002 -0.000009 -0.000024
 29   8.824059 0.150544 0.091743 -0.013273 -0.008658 0.349983
 30   2.111085 -0.561179 1.784320 -0.000008 -0.000682 0.000024
 31   2.121290 -0.561289 -1.853599 0.000000 0.000000 -0.000002
 32   -0.810489 -0.093824 3.127092 -0.032179 -3.148009 -0.101436
 33   14.298673 -0.408176 0.475484 -0.000100 -0.000042 -1.147094
 34   15.835795 0.581398 0.242756 0.055751 -0.112452 -0.249141
 35   -0.815868 -0.091229 -3.114430 0.262384 3.151650 0.309149
 36   14.294526 -0.410349 -0.463635 0.000105 0.000060 -1.249512
 37   15.834409 0.579420 -0.284600 -0.045418 -0.054938 -0.640530
 38   1.139685 -3.402966 -2.823813 0.017850 -0.002061 0.237109
 39   -4.465555 -1.047041 -0.746180 0.004123 0.002037 0.273698
 40   1.118101 -3.500552 3.237290 0.017850 -0.002060 0.237108
 41   -4.426027 -1.066943 0.959566 0.004122 0.002037 0.273698
 42   -0.446524 1.771523 -2.649550 -0.022915 -0.020237 -0.209691
 43   -0.515626 1.847020 2.908441 -0.022902 -0.020240 -0.209691
time 9
  0   0.259053 -10.621418 -34.246769 -0.718359 1.557951 -2.292966
  1   -1.093036 0.000002 -0.326057 -1.570809 -1.570379 0.000022
  2   2.262337 0.113614 0.064702 -0.069344 -0.007166 -0.103504
  3   2.380047 0.353302 0.047440 0.000000 -0.000040 0.026221
  4   2.033756 0.190472 -0.000128 -0.078336 0.001246 0.017011
  5   2.451511 0.204909 -0.003447 0.000000 -0.000005 0.052144
  6   7.247600 -0.397300 -0.109469 0.000001 0.000009 -0.556863
  7   -2.022252 -0.104661 3.136172 -0.299358 -1.361862 -2.293283
  8   1.168026 -0.537438 -0.063437 1.222623 0.408115 0.333699
  9   6.790376 -0.619176 0.015206 -0.000324 -0.000352 -1.219782
 10   8.637599 0.544015 -0.090417 -1.570112 0.000362 -0.069282
 11   6.790465 -0.619039 0.017802 0.001118 -0.011708 -0.868958
 12   -2.022474 -0.104699 -2.873818 2.866119 1.344095 -5.994134
 13   1.167898 -0.537463 0.063297 1.794820 -0.014960 -0.594603
 14   7.002743 -0.617765 -0.183752 0.000229 0.000250 -1.289478
 15   8.209042 0.615527 -0.255885 1.570090 -0.000063 -0.069646
 16   7.002735 -0.617911 -0.183641 0.013968 0.007086 -0.921268
 17   1.574674 0.609930 -0.000899 0.122510 0.109941 -0.170103
 18   -0.602177 0.511412 -0.000006 0.000000 0.000000 0.000000
 19   3.665960 0.313743 1.146658 -0.000002 -0.000014 -0.174510
 20   3.665954 0.313716 -1.090221 0.000007 -0.000003 -0.174546
 21   2.887637 1.322821 1.553437 0.000002 -0.000011 -0.000026
 22   -0.226528 -0.754099 0.477457 0.000194 -0.057459 0.890061
 23   2.907186 1.318940 -1.588113 0.000019 0.000002 -0.000024
 24   -0.078176 -0.558764 -0.547762 0.000187 -0.057484 0.890104
 25   3.956959 2.091091 1.523858 0.102271 -0.029427 -0.168396
 26   3.906194 2.137995 -1.516125 -0.141144 -0.028485 -0.183628
 27   3.289473 1.455197 1.514501 -0.000019 -0.000022 -0.000050
 28   3.291903 1.454803 -1.501142 -0.000002 -0.000009 -0.000024
 29   8.824059 0.150544 0.091743 -0.017907 -0.005002 1.021604
 30   2.111085 -0.561179 1.784320 -0.000008 -0.000682 0.000024
 31   2.121290 -0.561289 -1.853599 0.000000 0.000000 -0.000002
 32   -0.810489 -0.093824 3.127092 -0.029849 -3.154408 0.107526
 33   14.298673 -0.408176 0.475484 -0.000100 -0.000042 -0.869201
 34   15.835795 0.581398 0.242756 0.055291 -0.112574 -0.312472
 35   -0.815868 -0.091229 -3.114430 0.262736 3.142094 0.274860
 36   14.294526 -0.410349 -0.463635 0.000105 0.000060 -1.347844
 37   15.834409 0.579420 -0.284600 -0.045260 -0.055117 -0.581158
 38   1.131872 -3.402966 -2.823813 0.017387 -0.001169 0.321969
 39   -4.465555 -1.047041 -0.746180 0.004123 0.002037 0.273698
 40   1.125914 -3.500552 3.237290 0.017387 -0.001168 0.321907
 41   -4.426027 -1.066943 0.959566 0.004122 0.002037 0.273698
 42   -0.446524 1.728553 -2.637831 -0.024353 -0.021494 -0.195723
 43   -0.519532 1.811863 2.920160 -0.024351 -0.021511 -0.195723
time 10
  0   0.259053 -10.621418 -32.223267 1.404850 1.578577 -0.168885
  1   -1.093036 0.000002 -0.326057 -1.570809 -1.570379 0.000119
  2   2.262337 0.113614 0.064702 -0.069344 -0.007166 -0.103504
  3   2.380047 0.353302 0.047440 0.000000 -0.000040 0.108374
  4   2.033756 0.190472 -0.000128 -0.078170 0.004962 0.062465
  5   2.451511 0.204909 -0.003447 0.000000 -0.000005 0.110565
  6   7.247600 -0.397300 -0.109469 0.000001 0.000009 -0.402411
  7   -2.022252 -0.104661 3.136172 -0.299262 -1.361862 -2.447958
  8   1.168026 -0.537438 -0.063437 1.101821 0.431964 -0.019674
  9   6.790376 -0.619176 0.015206 -0.000324 -0.000352 -1.248762
 10   8.637599 0.544015 -0.090417 -1.570112 0.000362 -0.069282
 11   6.790465 -0.619039 0.017802 0.001264 -0.011708 -0.889375
 12   -2.022474 -0.104699 -2.873818 2.866119 1.344095 0.133488
 13   1.167898 -0.537463 0.063297 1.962049 -0.002908 -0.380976
 14   7.002743 -0.617765 -0.183752 0.000229 0.000250 -1.289478
 15   8.209042 0.615527 -0.255885 1.570090 -0.000063 -0.069646
 16   7.002735 -0.617911 -0.183641 0.013968 0.007086 -0.921268
 17   1.574674 0.609930 -0.000899 0.161749 0.032006 0.061273
 18   -0.602177 0.511412 -0.000006 0.000000 0.000000 0.000000
 19   3.665960 0.313743 1.146658 -0.000002 -0.000014 -0.174510
 20   3.665954 0.313716 -1.090221 0.000007 -0.000003 -0.174546
 21   2.887637 1.322821 1.553437 0.000002 -0.000011 -0.000026
 22   -0.226528 -0.754099 0.477457 0.000194 -0.057459 0.890061
 23   2.907186 1.318940 -1.588113 0.000019 0.000002 -0.000024
 24   -0.078176 -0.558764 -0.547762 0.000187 -0.057484 0.890104
 25   3.956959 2.091091 1.523858 0.102271 -0.029427 -0.168396
 26   3.906194 2.137995 -1.516125 -0.141144 -0.028485 -0.183628
 27   3.289473 1.455197 1.514501 -0.000019 -0.000022 -0.000050
 28   3.291903 1.454803 -1.501142 -0.000002 -0.000009 -0.000024
 29   8.824059 0.150544 0.091743 -0.019779 -0.003436 1.303203
 30   2.111085 -0.561179 1.784320 -0.000008 -0.000682 0.000024
 31   2.121290 -0.561289 -1.853599 0.000000 0.000000 -0.000002
 32   -0.810489 -0.093824 3.127092 -0.032738 -3.139605 -0.337548
 33   14.298673 -0.408176 0.475484 -0.000100 -0.000042 -0.869201
 34   15.835795 0.581398 0.242756 0.055291 -0.112574 -0.757335
 35   -0.815868 -0.091229 -3.114430 0.212480 2.985820 -0.354188
 36   14.294526 -0.410349 -0.463635 0.000105 0.000060 -1.347844
 37   15.834409 0.579420 -0.284600 -0.068706 -0.019334 -0.616700
 38   1.120153 -3.410779 -2.823813 0.016608 0.000000 0.441225
 39   -4.465555 -1.047041 -0.746180 0.004123 0.002037 0.273698
 40   1.137633 -3.492739 3.237290 0.016608 0.000001 0.441286
 41   -4.426027 -1.066943 0.959566 0.004122 0.002037 0.273698
 42   -0.446524 1.689489 -2.626112 -0.025515 -0.022552 -0.181420
 43   -0.527345 1.780612 2.931879 -0.025538 -0.022547 -0.181420
time 11
  0   0.259053 -10.621418 -28.871603 0.823376 1.582044 -0.750183
  1   -1.093036 0.000002 -0.326057 -1.570809 -1.570379 0.000022
  2   2.262337 0.113614 0.064702 -0.069344 -0.007166 -0.103504
  3   2.380047 0.353302 0.047440 0.000000 -0.000040 0.202872
  4   2.033756 0.190472 -0.000128 -0.078059 0.006999 0.089070
  5   2.451511 0.204909 -0.003447 0.000000 -0.000005 0.168046
  6   7.247600 -0.397300 -0.109469 0.000001 0.000009 -0.313908
  7   -2.022252 -0.104661 3.136172 -0.299262 -1.361862 -2.535861
  8   1.168026 -0.537438 -0.063437 0.879770 0.347738 -0.373173
  9   6.790376 -0.619176 0.015206 -0.000324 -0.000352 -1.282269
 10   8.637599 0.544015 -0.090417 -1.570112 0.000362 -0.069282
 11   6.790465 -0.619039 0.017802 0.001410 -0.011708 -0.912791
 12   -2.022474 -0.104699 -2.873818 2.866119 1.344095 0.045023
 13   1.167898 -0.537463 0.063297 2.145095 -0.007180 -0.268381
 14   7.002743 -0.617765 -0.183752 0.000229 0.000250 -1.289478
 15   8.209042 0.615527 -0.255885 1.570090 -0.000063 -0.069646
 16   7.002735 -0.617911 -0.183641 0.013968 0.007086 -0.921268
 17   1.574674 0.609930 -0.000899 0.163740 -0.020275 0.156079
 18   -0.602177 0.511412 -0.000006 0.000000 0.000000 0.000000
 19   3.665960 0.313743 1.146658 -0.000002 -0.000014 -0.174510
 20   3.665954 0.313716 -1.090221 0.000007 -0.000003 -0.174546
 21   2.887637 1.322821 1.553437 0.000002 -0.000011 -0.000026
 22   -0.226528 -0.754099 0.477457 0.000194 -0.057459 0.890061
 23   2.907186 1.318940 -1.588113 0.000019 0.000002 -0.000024
 24   -0.078176 -0.558764 -0.547762 0.000187 -0.057484 0.890104
 25   3.956959 2.091091 1.523858 0.102271 -0.029427 -0.168396
 26   3.906194 2.137995 -1.516125 -0.141144 -0.028485 -0.183628
 27   3.289473 1.455197 1.514501 -0.000019 -0.000022 -0.000050
 28   3.291903 1.454803 -1.501142 -0.000002 -0.000009 -0.000024
 29   8.824059 0.150544 0.091743 -0.016927 -0.004860 0.956368
 30   2.111085 -0.561179 1.784320 -0.000008 -0.000682 0.000024
 31   2.121290 -0.561289 -1.853599 0.000000 0.000000 -0.000002
 32   -0.810489 -0.093824 3.127092 -0.032552 -3.135020 -0.479341
 33   14.298673 -0.408176 0.475484 -0.000100 -0.000042 -0.614333
 34   15.835795 0.581398 0.242756 0.055291 -0.112574 -1.154479
 35   -0.815868 -0.091229 -3.114430 0.347846 2.963804 -0.515558
 36   14.294526 -0.410349 -0.463635 0.000105 0.000060 -0.990667
 37   15.834409 0.579420 -0.284600 -0.054362 -0.157447 -0.683677
 38   1.112340 -3.414685 -2.823813 0.015597 0.001169 0.573128
 39   -4.465555 -1.047041 -0.746180 0.004123 0.002037 0.273698
 40   1.145446 -3.488833 3.237290 0.015597 0.001170 0.573189
 41   -4.426027 -1.066943 0.959566 0.004122 0.002037 0.273698
 42   -0.446524 1.646519 -2.618299 -0.026474 -0.023380 -0.167117
 43   -0.539064 1.749361 2.939692 -0.026475 -0.023363 -0.167117
time 12
  0   0.259053 -10.621418 -27.062954 0.681042 1.583822 -0.892681
  1   -1.093036 0.000002 -0.326057 -1.570809 -1.570379 -0.000026
  2   2.262337 0.113614 0.064702 -0.069344 -0.007166 -0.103504
  3   2.380047 0.353302 0.047440 0.000000 -0.000040 0.244091
  4   2.033756 0.190472 -0.000128 -0.078004 0.007431 0.095377
  5   2.451511 0.204909 -0.003447 0.000000 -0.000005 0.191697
  6   7.247600 -0.397300 -0.109469 0.000001 0.000009 -0.493321
  7   -2.022252 -0.104661 3.136172 -0.299358 -1.361862 -2.356768
  8   1.168026 -0.537438 -0.063437 0.800859 0.299889 -0.579402
  9   6.790376 -0.619176 0.015206 -0.000324 -0.000352 -1.219782
 10   8.637599 0.544015 -0.090417 -1.570112 0.000362 -0.069282
 11   6.790465 -0.619039 0.017802 0.001118 -0.011708 -0.868958
 12   -2.022474 -0.104699 -2.873818 2.866119 1.344095 0.224729
 13   1.167898 -0.537463 0.063297 2.212648 0.172230 -0.479950
 14   7.002743 -0.617765 -0.183752 0.000229 0.000250 -1.289478
 15   8.209042 0.615527 -0.255885 1.570090 -0.000063 -0.069646
 16   7.002735 -0.617911 -0.183641 0.013968 0.007086 -0.921268
 17   1.574674 0.609930 -0.000899 0.159109 0.043082 -0.101873
 18   -0.602177 0.511412 -0.000006 0.000000 0.000000 0.000000
 19   3.665960 0.313743 1.146658 -0.000002 -0.000014 -0.174510
 20   3.665954 0.313716 -1.090221 0.000007 -0.000003 -0.174546
 21   2.887637 1.322821 1.553437 0.000002 -0.000011 -0.000026
 22   -0.226528 -0.754099 0.477457 0.000194 -0.057459 0.890061
 23   2.907186 1.318940 -1.588113 0.000019 0.000002 -0.000024
 24   -0.078176 -0.558764 -0.547762 0.000187 -0.057484 0.890104
 25   3.956959 2.091091 1.523858 0.102271 -0.029427 -0.168396
 26   3.906194 2.137995 -1.516125 -0.141144 -0.028485 -0.183628
 27   3.289473 1.455197 1.514501 -0.000019 -0.000022 -0.000050
 28   3.291903 1.454803 -1.501142 -0.000002 -0.000009 -0.000024
 29   8.824059 0.150544 0.091743 -0.010599 -0.008136 0.193063
 30   2.111085 -0.561179 1.784320 -0.000008 -0.000682 0.000024
 31   2.121290 -0.561289 -1.853599 0.000000 0.000000 -0.000002
 32   -0.810489 -0.093824 3.127092 -0.032272 -3.134447 -0.502850
 33   14.298673 -0.408176 0.475484 -0.000100 -0.000042 -0.415758
 34   15.835795 0.581398 0.242756 0.055291 -0.112574 -1.376844
 35   -0.815868 -0.091229 -3.114430 0.492630 2.959213 -0.518242
 36   14.294526 -0.410349 -0.463635 0.000105 0.000060 -0.719849
 37   15.834409 0.579420 -0.284600 -0.119754 -0.269785 -0.643420
 38   1.108434 -3.418591 -2.823813 0.014734 0.002073 0.681510
 39   -4.465555 -1.047041 -0.746180 0.004123 0.002037 0.273698
 40   1.149352 -3.481020 3.237290 0.014734 0.002074 0.681448
 41   -4.426027 -1.066943 0.959566 0.004122 0.002037 0.273698
 42   -0.446524 1.595736 -2.606580 -0.027205 -0.024024 -0.153191
 43   -0.546877 1.718110 2.951411 -0.027200 -0.024022 -0.153191
time 13
  0   0.259053 -10.621418 -28.320807 0.700691 1.583111 -0.873112
  1   -1.093036 0.000002 -0.326057 -1.570809 -1.570379 0.000022
  2   2.262337 0.113614 0.064702 -0.069344 -0.006783 -0.099348
  3   2.380047 0.353302 0.047440 0.000000 -0.000040 0.182344
  4   2.033756 0.190472 -0.000128 -0.078170 0.005213 0.067684
  5   2.451511 0.204909 -0.003447 0.000000 -0.000005 0.145039
  6   7.247600 -0.397300 -0.109469 0.000001 0.000009 -0.610427
  7   -2.022252 -0.104661 3.136172 -0.299358 -1.361862 -2.239470
  8   1.168026 -0.537438 -0.063437 0.935520 0.501650 -0.583071
  9   6.790376 -0.619176 0.015206 -0.000324 -0.000352 -0.957759
 10   8.637599 0.544015 -0.090417 -1.570112 0.000362 -0.069282
 11   6.790465 -0.619039 0.017802 0.000067 -0.011566 -0.685668
 12   -2.022474 -0.104699 -2.873818 2.866119 1.344066 -5.940615
 13   1.167898 -0.537463 0.063297 2.044013 0.257205 -0.780384
 14   7.002743 -0.617765 -0.183752 0.000229 0.000250 -1.289478
 15   8.209042 0.615527 -0.255885 1.570090 -0.000063 -0.069646
 16   7.002735 -0.617911 -0.183641 0.013968 0.007086 -0.921268
 17   1.574674 0.609930 -0.000899 0.128806 0.103196 -0.288747
 18   -0.602177 0.511412 -0.000006 0.000000 0.000000 0.000000
 19   3.665960 0.313743 1.146658 -0.000002 -0.000014 -0.174510
 20   3.665954 0.313716 -1.090221 0.000007 -0.000003 -0.174546
 21   2.887637 1.322821 1.553437 0.000002 -0.000011 -0.000026
 22   -0.226528 -0.754099 0.477457 0.000194 -0.057459 0.890061
 23   2.907186 1.318940 -1.588113 0.000019 0.000002 -0.000024
 24   -0.078176 -0.558764 -0.547762 0.000187 -0.057484 0.890104
 25   3.956959 2.091091 1.523858 0.102271 -0.029427 -0.168396
 26   3.906194 2.137995 -1.516125 -0.141144 -0.028485 -0.183628
 27   3.289473 1.455197 1.514501 -0.000019 -0.000022 -0.000050
 28   3.291903 1.454803 -1.501142 -0.000002 -0.000009 -0.000024
 29   8.824059 0.150544 0.091743 -0.004272 -0.012029 -0.570028
 30   2.111085 -0.561179 1.784320 -0.000008 -0.000682 0.000024
 31   2.121290 -0.561289 -1.853599 0.000000 0.000000 -0.000002
 32   -0.810489 -0.093824 3.127092 -0.032645 -3.137026 -0.417012
 33   14.298673 -0.408176 0.475484 -0.000100 -0.000042 -0.473560
 34   15.835795 0.581398 0.242756 0.056510 -0.111915 -1.244360
 35   -0.815868 -0.091229 -3.114430 0.556969 2.962398 -0.404472
 36   14.294526 -0.410349 -0.463635 0.000105 0.000060 -0.828609
 37   15.834409 0.579420 -0.284600 -0.135812 -0.243217 -0.332617
 38   1.108434 -3.418591 -2.823813 0.014377 0.002434 0.726353
 39   -4.465555 -1.047041 -0.746180 0.004123 0.002037 0.273698
 40   1.149352 -3.481020 3.237290 0.014377 0.002435 0.726414
 41   -4.426027 -1.066943 0.959566 0.004122 0.002037 0.273698
 42   -0.446524 1.560579 -2.594861 -0.027756 -0.024499 -0.139975
 43   -0.550783 1.690765 2.963130 -0.027762 -0.024492 -0.139975
time 14
  0   0.259053 -10.621418 -31.141205 0.849713 1.581333 -0.723583
  1   -1.093036 0.000002 -0.326057 -1.570809 -1.570379 -0.000026
  2   2.262337 0.113614 0.064702 -0.069408 -0.006579 -0.095264
  3   2.380047 0.353302 0.047440 0.000000 -0.000040 0.067318
  4   2.033756 0.190472 -0.000128 -0.078336 0.001546 0.019657
  5   2.451511 0.204909 -0.003447 0.000000 -0.000005 0.064477
  6   7.247600 -0.397300 -0.109469 0.000001 0.000009 -0.215649
  7   -2.022252 -0.104661 3.136172 -0.299262 -1.361862 -2.634471
  8   1.168026 -0.537438 -0.063437 1.241797 0.803435 -0.336988
  9   6.790376 -0.619176 0.015206 -0.000324 -0.000352 -0.600345
 10   8.637599 0.544015 -0.090417 -1.570112 0.000362 -0.069282
 11   6.790465 -0.619039 0.017802 -0.001276 -0.011253 -0.435359
 12   -2.022474 -0.104699 -2.873818 2.866119 1.344095 -0.053303
 13   1.167898 -0.537463 0.063297 1.809863 0.070930 -0.783532
 14   7.002743 -0.617765 -0.183752 0.000229 0.000250 -1.289478
 15   8.209042 0.615527 -0.255885 1.570090 -0.000063 -0.069646
 16   7.002735 -0.617911 -0.183641 0.013968 0.007086 -0.921268
 17   1.574674 0.609930 -0.000899 0.150498 0.067009 -0.240809
 18   -0.602177 0.511412 -0.000006 0.000000 0.000000 0.000000
 19   3.665960 0.313743 1.146658 -0.000002 -0.000014 -0.174510
 20   3.665954 0.313716 -1.090221 0.000007 -0.000003 -0.174546
 21   2.887637 1.322821 1.553437 0.000002 -0.000011 -0.000026
 22   -0.226528 -0.754099 0.477457 0.000194 -0.057459 0.890061
 23   2.907186 1.318940 -1.588113 0.000019 0.000002 -0.000024
 24   -0.078176 -0.558764 -0.547762 0.000187 -0.057484 0.890104
 25   3.956959 2.091091 1.523858 0.102271 -0.029427 -0.168396
 26   3.906194 2.137995 -1.516125 -0.141144 -0.028485 -0.183628
 27   3.289473 1.455197 1.514501 -0.000019 -0.000022 -0.000050
 28   3.291903 1.454803 -1.501142 -0.000002 -0.000009 -0.000024
 29   8.824059 0.150544 0.091743 -0.001420 -0.015328 -0.916970
 30   2.111085 -0.561179 1.784320 -0.000008 -0.000682 0.000024
 31   2.121290 -0.561289 -1.853599 0.000000 0.000000 -0.000002
 32   -0.810489 -0.093824 3.127092 -0.032738 -3.141515 -0.279488
 33   14.298673 -0.408176 0.475484 -0.000100 -0.000042 -0.614809
 34   15.835795 0.581398 0.242756 0.057821 -0.111305 -0.976481
 35   -0.815868 -0.091229 -3.114430 0.590238 2.979824 -0.235160
 36   14.294526 -0.410349 -0.463635 0.000105 0.000060 -1.060805
 37   15.834409 0.579420 -0.284600 -0.109588 -0.163590 0.052211
 38   1.120153 -3.418591 -2.823813 0.015008 0.000410 0.544414
 39   -4.465555 -1.047041 -0.746180 0.004123 0.002037 0.273698
 40   1.137633 -3.481020 3.237290 0.015008 0.000411 0.544352
 41   -4.426027 -1.066943 0.959566 0.004122 0.002037 0.273698
 42   -0.446524 1.517609 -2.587048 -0.028164 -0.024852 -0.127805
 43   -0.558596 1.667327 2.967036 -0.028162 -0.024838 -0.127805
time 15
  0   0.259053 -10.621418 -34.067074 1.182184 1.579555 -0.391182
  1   -1.093036 0.000002 -0.326057 -1.570809 -1.570379 0.000022
  2   2.262337 0.113614 0.064702 -0.069344 -0.007166 -0.103504
  3   2.380047 0.353302 0.047440 0.000000 -0.000040 -0.017304
  4   2.033756 0.190472 -0.000128 -0.078336 -0.000419 -0.009123
  5   2.451511 0.204909 -0.003447 0.000000 -0.000005 0.025967
  6   7.247600 -0.397300 -0.109469 0.000001 0.000009 0.182867
  7   -2.022252 -0.104661 3.136172 -0.299166 -1.361862 -3.032007
  8   1.168026 -0.537438 -0.063437 1.562629 0.948340 -0.023090
  9   6.790376 -0.619176 0.015206 -0.000324 -0.000352 -0.358321
 10   8.637599 0.544015 -0.090417 -1.570112 0.000362 -0.069282
 11   6.790465 -0.619039 0.017802 -0.002181 -0.011054 -0.266083
 12   -2.022474 -0.104699 -2.873818 2.865545 1.344095 -0.452448
 13   1.167898 -0.537463 0.063297 1.614937 -0.053507 -0.666821
 14   7.002743 -0.617765 -0.183752 0.000229 0.000250 -1.289478
 15   8.209042 0.615527 -0.255885 1.570090 -0.000063 -0.069646
 16   7.002735 -0.617911 -0.183641 0.013968 0.007086 -0.921268
 17   1.574674 0.609930 -0.000899 0.164024 0.007913 -0.155725
 18   -0.602177 0.511412 -0.000006 0.000000 0.000000 0.000000
 19   3.665960 0.313743 1.146658 -0.000002 -0.000014 -0.174510
 20   3.665954 0.313716 -1.090221 0.000007 -0.000003 -0.174546
 21   2.887637 1.322821 1.553437 0.000002 -0.000011 -0.000026
 22   -0.226528 -0.754099 0.477457 0.000194 -0.057459 0.890061
 23   2.907186 1.318940 -1.588113 0.000019 0.000002 -0.000024
 24   -0.078176 -0.558764 -0.547762 0.000187 -0.057484 0.890104
 25   3.956959 2.091091 1.523858 0.102271 -0.029427 -0.168396
 26   3.906194 2.137995 -1.516125 -0.141144 -0.028485 -0.183628
 27   3.289473 1.455197 1.514501 -0.000019 -0.000022 -0.000050
 28   3.291903 1.454803 -1.501142 -0.000002 -0.000009 -0.000024
 29   8.824059 0.150544 0.091743 -0.002578 -0.017560 -0.852378
 30   2.111085 -0.561179 1.784320 -0.000008 -0.000682 0.000024
 31   2.121290 -0.561289 -1.853599 0.000000 0.000000 -0.000002
 32   -0.810489 -0.093824 3.127092 -0.032645 -3.145239 -0.171620
 33   14.298673 -0.408176 0.475484 -0.000100 -0.000042 -0.677375
 34   15.835795 0.581398 0.242756 0.055291 -0.112574 -0.783355
 35   -0.815868 -0.091229 -3.114430 0.587950 2.983478 -0.121773
 36   14.294526 -0.410349 -0.463635 0.000105 0.000060 -1.166166
 37   15.834409 0.579420 -0.284600 -0.073671 -0.071242 0.236564
 38   1.139685 -3.414685 -2.823813 0.016460 -0.003832 0.152493
 39   -4.465555 -1.047041 -0.746180 0.004123 0.002037 0.273698
 40   1.118101 -3.488833 3.237290 0.016460 -0.003831 0.152492
 41   -4.426027 -1.066943 0.959566 0.004122 0.002037 0.273698
 42   -0.446524 1.486358 -2.575329 -0.028415 -0.025097 -0.117057
 43   -0.562502 1.636076 2.982662 -0.028412 -0.025089 -0.117057
time 16
  0   0.259053 -10.621418 -33.781910 1.694637 1.578577 0.121292
  1   -1.093036 0.000002 -0.326057 -1.570809 -1.570379 0.000022
  2   2.262337 0.113614 0.064702 -0.069039 -0.008916 -0.128207
  3   2.380047 0.353302 0.047440 0.000000 -0.000040 -0.044566
  4   2.033756 0.190472 -0.000128 -0.078336 -0.000288 -0.005462
  5   2.451511 0.204909 -0.003447 0.000000 -0.000005 0.054447
  6   7.247600 -0.397300 -0.109469 0.000001 0.000009 0.257179
  7   -2.022252 -0.104661 3.136172 -3.439953 -1.779614 0.034082
  8   1.168026 -0.537438 -0.063437 1.602116 0.972793 0.011450
  9   6.790376 -0.619176 0.015206 -0.000324 -0.000352 -0.302475
 10   8.637599 0.544015 -0.090417 -1.570112 0.000362 -0.069282
 11   6.790465 -0.619039 0.017802 -0.002444 -0.010969 -0.226864
 12   -2.022474 -0.104699 -2.873818 -0.274820 1.797507 -3.667530
 13   1.167898 -0.537463 0.063297 1.574237 -0.063016 -0.655259
 14   7.002743 -0.617765 -0.183752 0.000229 0.000250 -1.289478
 15   8.209042 0.615527 -0.255885 1.570090 -0.000063 -0.069646
 16   7.002735 -0.617911 -0.183641 0.013968 0.007086 -0.921268
 17   1.574674 0.609930 -0.000899 0.162440 -0.021316 -0.056300
 18   -0.602177 0.511412 -0.000006 0.000000 0.000000 0.000000
 19   3.665960 0.313743 1.146658 -0.000002 -0.000014 -0.174510
 20   3.665954 0.313716 -1.090221 0.000007 -0.000003 -0.174546
 21   2.887637 1.322821 1.553437 0.000002 -0.000011 -0.000026
 22   -0.226528 -0.754099 0.477457 0.000194 -0.057459 0.890061
 23   2.907186 1.318940 -1.588113 0.000019 0.000002 -0.000024
 24   -0.078176 -0.558764 -0.547762 0.000187 -0.057484 0.890104
 25   3.956959 2.091091 1.523858 0.102271 -0.029427 -0.168396
 26   3.906194 2.137995 -1.516125 -0.141144 -0.028485 -0.183628
 27   3.289473 1.455197 1.514501 -0.000019 -0.000022 -0.000050
 28   3.291903 1.454803 -1.501142 -0.000002 -0.000009 -0.000024
 29   8.824059 0.150544 0.091743 -0.005163 -0.018937 -0.698408
 30   2.111085 -0.561179 1.784320 -0.000008 -0.000682 0.000024
 31   2.121290 -0.561289 -1.853599 0.000000 0.000000 -0.000002
 32   -0.810489 -0.093824 3.127092 -0.032645 -3.145621 -0.154942
 33   14.298673 -0.408176 0.475484 -0.000100 -0.000042 -0.486502
 34   15.835795 0.581398 0.242756 0.040937 -0.118504 -0.833941
 35   -0.815868 -0.091229 -3.114430 0.551776 2.962398 -0.100685
 36   14.294526 -0.410349 -0.463635 0.000105 0.000060 -1.062427
 37   15.834409 0.579420 -0.284600 -0.043172 0.012916 0.137543
 38   1.170936 -3.414685 -2.823813 0.018102 -0.007520 -0.217862
 39   -4.465555 -1.047041 -0.746180 0.004123 0.002037 0.273698
 40   1.086850 -3.488833 3.237290 0.018102 -0.007519 -0.217863
 41   -4.426027 -1.066943 0.959566 0.004122 0.002037 0.273698
 42   -0.446524 1.455107 -2.567516 -0.028571 -0.025235 -0.108066
 43   -0.570315 1.616544 2.986568 -0.028574 -0.025230 -0.108066
time 17
  0   0.259053 -10.621418 -33.621750 2.129318 1.580533 0.556197
  1   -1.093036 0.000002 -0.326057 -1.570809 -1.570379 0.000119
  2   2.262337 0.113614 0.064702 -0.068758 -0.011241 -0.161729
  3   2.380047 0.353302 0.047440 0.000000 -0.000040 -0.050647
  4   2.033756 0.190472 -0.000128 -0.078336 0.000971 0.011719
  5   2.451511 0.204909 -0.003447 0.000000 -0.000005 0.112497
  6   7.247600 -0.397300 -0.109469 0.000001 0.000009 0.248943
  7   -2.022252 -0.104661 3.136172 -3.439953 -1.779614 0.042158
  8   1.168026 -0.537438 -0.063437 1.499222 0.956491 -0.090399
  9   6.790376 -0.619176 0.015206 -0.000324 -0.000352 -0.328285
 10   8.637599 0.544015 -0.090417 -1.570024 0.000362 -0.069282
 11   6.790465 -0.619039 0.017802 -0.002298 -0.010997 -0.244858
 12   -2.022474 -0.104699 -2.873818 -0.274820 1.797507 -3.659392
 13   1.167898 -0.537463 0.063297 1.597012 -0.038709 -0.667184
 14   7.002743 -0.617765 -0.183752 0.000229 0.000250 -1.289478
 15   8.209042 0.615527 -0.255885 1.570090 -0.000063 -0.069646
 16   7.002735 -0.617911 -0.183641 0.013968 0.007086 -0.921268
 17   1.574674 0.609930 -0.000899 0.157241 -0.044722 0.042756
 18   -0.602177 0.511412 -0.000006 0.000000 0.000000 0.000000
 19   3.665960 0.313743 1.146658 -0.000002 -0.000014 -0.174510
 20   3.665954 0.313716 -1.090221 0.000007 -0.000003 -0.174546
 21   2.887637 1.322821 1.553437 0.000002 -0.000011 -0.000026
 22   -0.226528 -0.754099 0.477457 0.000194 -0.057459 0.890061
 23   2.907186 1.318940 -1.588113 0.000019 0.000002 -0.000024
 24   -0.078176 -0.558764 -0.547762 0.000187 -0.057484 0.890104
 25   3.956959 2.091091 1.523858 0.102271 -0.029427 -0.168396
 26   3.906194 2.137995 -1.516125 -0.141144 -0.028485 -0.183628
 27   3.289473 1.455197 1.514501 -0.000019 -0.000022 -0.000050
 28   3.291903 1.454803 -1.501142 -0.000002 -0.000009 -0.000024
 29   8.824059 0.150544 0.091743 -0.008460 -0.019625 -0.514663
 30   2.111085 -0.561179 1.784320 -0.000008 -0.000682 0.000024
 31   2.121290 -0.561289 -1.853599 0.000000 0.000000 -0.000002
 32   -0.810489 -0.093824 3.127092 -0.032645 -3.145239 -0.171620
 33   14.298673 -0.408176 0.475484 -0.000100 -0.000042 -0.258550
 34   15.835795 0.581398 0.242756 0.025135 -0.122848 -0.947682
 35   -0.815868 -0.091229 -3.114430 0.491838 2.929139 -0.120240
 36   14.294526 -0.410349 -0.463635 0.000105 0.000060 -0.869703
 37   15.834409 0.579420 -0.284600 -0.012830 0.100375 -0.094622
 38   1.182655 -3.414685 -2.823813 0.019302 -0.009255 -0.416847
 39   -4.465555 -1.047041 -0.746180 0.004123 0.002037 0.273698
 40   1.075131 -3.488833 3.237290 0.019302 -0.009254 -0.416848
 41   -4.426027 -1.066943 0.959566 0.004122 0.002037 0.273698
 42   -0.446524 1.435575 -2.563610 -0.028655 -0.025312 -0.101207
 43   -0.570315 1.604825 2.994381 -0.028674 -0.025293 -0.101207
time 18
  0   0.259053 -10.621418 -33.461586 -0.786554 1.558929 -2.360700
  1   -1.093036 0.000002 -0.326057 -1.570809 -1.570379 0.000022
  2   2.262337 0.113614 0.064702 -0.068223 -0.013674 -0.198720
  3   2.380047 0.353302 0.047440 0.000000 -0.000040 -0.048239
  4   2.033756 0.190472 -0.000128 -0.078336 0.002685 0.034265
  5   2.451511 0.204909 -0.003447 0.000000 -0.000005 0.182410
  6   7.247600 -0.397300 -0.109469 0.000001 0.000009 0.207701
  7   -2.022252 -0.104661 3.136172 -3.440432 -1.779614 0.083574
  8   1.168026 -0.537438 -0.063437 1.353867 0.912265 -0.231280
  9   6.790376 -0.619176 0.015206 -0.000324 -0.000352 -0.386093
 10   8.637599 0.544015 -0.090417 -1.570024 0.000362 -0.069282
 11   6.790465 -0.619039 0.017802 -0.002064 -0.011054 -0.285404
 12   -2.022474 -0.104699 -2.873818 2.865545 1.344095 -0.477341
 13   1.167898 -0.537463 0.063297 1.639048 -0.001484 -0.667366
 14   7.002743 -0.617765 -0.183752 0.000229 0.000250 -1.289478
 15   8.209042 0.615527 -0.255885 1.570090 -0.000063 -0.069646
 16   7.002735 -0.617911 -0.183641 0.013968 0.007086 -0.921268
 17   1.574674 0.609930 -0.000899 0.149523 -0.064958 0.141664
 18   -0.602177 0.511412 -0.000006 0.000000 0.000000 0.000000
 19   3.665960 0.313743 1.146658 -0.000002 -0.000014 -0.174510
 20   3.665954 0.313716 -1.090221 0.000007 -0.000003 -0.174546
 21   2.887637 1.322821 1.553437 0.000002 -0.000011 -0.000026
 22   -0.226528 -0.754099 0.477457 0.000194 -0.057459 0.890061
 23   2.907186 1.318940 -1.588113 0.000019 0.000002 -0.000024
 24   -0.078176 -0.558764 -0.547762 0.000187 -0.057484 0.890104
 25   3.956959 2.091091 1.523858 0.102271 -0.029427 -0.168396
 26   3.906194 2.137995 -1.516125 -0.141144 -0.028485 -0.183628
 27   3.289473 1.455197 1.514501 -0.000019 -0.000022 -0.000050
 28   3.291903 1.454803 -1.501142 -0.000002 -0.000009 -0.000024
 29   8.824059 0.150544 0.091743 -0.011223 -0.019862 -0.360693
 30   2.111085 -0.561179 1.784320 -0.000008 -0.000682 0.000024
 31   2.121290 -0.561289 -1.853599 0.000000 0.000000 -0.000002
 32   -0.810489 -0.093824 3.127092 -0.032645 -3.145239 -0.171620
 33   14.298673 -0.408176 0.475484 -0.000100 -0.000042 -0.232428
 34   15.835795 0.581398 0.242756 0.023226 -0.123214 -0.957958
 35   -0.815868 -0.091229 -3.114430 0.420810 2.893724 -0.158583
 36   14.294526 -0.410349 -0.463635 0.000105 0.000060 -0.641215
 37   15.834409 0.579420 -0.284600 0.013670 0.190214 -0.379769
 38   1.190468 -3.418591 -2.823813 0.020039 -0.009894 -0.490099
 39   -4.465555 -1.047041 -0.746180 0.004123 0.002037 0.273698
 40   1.067318 -3.481020 3.237290 0.020039 -0.009893 -0.490100
 41   -4.426027 -1.066943 0.959566 0.004122 0.002037 0.273698
 42   -0.446524 1.423856 -2.555797 -0.028691 -0.025327 -0.096816
 43   -0.574221 1.593106 2.994381 -0.028699 -0.025340 -0.096816
time 19
  0   0.259053 -10.621418 -33.309238 -0.718359 1.557951 -2.292966
  1   -1.093036 0.000002 -0.326057 -1.570809 -1.570379 -0.000026
  2   2.262337 0.113614 0.064702 -0.067790 -0.016071 -0.233976
  3   2.380047 0.353302 0.047440 0.000000 -0.000040 -0.050055
  4   2.033756 0.190472 -0.000128 -0.078262 0.004231 0.054092
  5   2.451511 0.204909 -0.003447 0.000000 -0.000005 0.246280
  6   7.247600 -0.397300 -0.109469 0.000001 0.000009 0.182867
  7   -2.022252 -0.104661 3.136172 -0.299166 -1.361862 -3.032007
  8   1.168026 -0.537438 -0.063437 1.247429 0.869850 -0.333509
  9   6.790376 -0.619176 0.015206 -0.000324 -0.000352 -0.428355
 10   8.637599 0.544015 -0.090417 -1.570112 0.000362 -0.069282
 11   6.790465 -0.619039 0.017802 -0.001918 -0.011168 -0.315049
 12   -2.022474 -0.104699 -2.873818 2.865545 1.344095 -0.452448
 13   1.167898 -0.537463 0.063297 1.674546 0.031011 -0.670877
 14   7.002743 -0.617765 -0.183752 0.000229 0.000250 -1.289478
 15   8.209042 0.615527 -0.255885 1.570090 -0.000063 -0.069646
 16   7.002735 -0.617911 -0.183641 0.013968 0.007086 -0.921268
 17   1.574674 0.609930 -0.000899 0.138596 -0.084980 0.240608
 18   -0.602177 0.511412 -0.000006 0.000000 0.000000 0.000000
 19   3.665960 0.313743 1.146658 -0.000002 -0.000014 -0.174510
 20   3.665954 0.313716 -1.090221 0.000007 -0.000003 -0.174546
 21   2.887637 1.322821 1.553437 0.000002 -0.000011 -0.000026
 22   -0.226528 -0.754099 0.477457 0.000194 -0.057459 0.890061
 23   2.907186 1.318940 -1.588113 0.000019 0.000002 -0.000024
 24   -0.078176 -0.558764 -0.547762 0.000187 -0.057484 0.890104
 25   3.956959 2.091091 1.523858 0.102271 -0.029427 -0.168396
 26   3.906194 2.137995 -1.516125 -0.141144 -0.028485 -0.183628
 27   3.289473 1.455197 1.514501 -0.000019 -0.000022 -0.000050
 28   3.291903 1.454803 -1.501142 -0.000002 -0.000009 -0.000024
 29   8.824059 0.150544 0.091743 -0.012293 -0.019934 -0.296101
 30   2.111085 -0.561179 1.784320 -0.000008 -0.000682 0.000024
 31   2.121290 -0.561289 -1.853599 0.000000 0.000000 -0.000002
 32   -0.810489 -0.093824 3.127092 -0.032645 -3.145239 -0.171620
 33   14.298673 -0.408176 0.475484 -0.000100 -0.000042 -0.258550
 34   15.835795 0.581398 0.242756 0.025135 -0.122848 -0.947682
 35   -0.815868 -0.091229 -3.114430 0.353039 2.862338 -0.191229
 36   14.294526 -0.410349 -0.463635 0.000105 0.000060 -0.430493
 37   15.834409 0.579420 -0.284600 0.037234 0.280438 -0.636118
 38   1.190468 -3.422498 -2.823813 0.020249 -0.009990 -0.500546
 39   -4.465555 -1.047041 -0.746180 0.004123 0.002037 0.273698
 40   1.067318 -3.481020 3.237290 0.020249 -0.009989 -0.500547
 41   -4.426027 -1.066943 0.959566 0.004122 0.002037 0.273698
 42   -0.446524 1.412137 -2.555797 -0.028691 -0.025327 -0.095310
 43   -0.574221 1.593106 2.994381 -0.028699 -0.025340 -0.095310
end
