version 1
nodes
  0 "Bip01" -1
  1 "Bip01 Pelvis" 0
  2 "Bip01 Spine" 1
  3 "Bip01 Spine1" 2
  4 "Bip01 Spine2" 3
  5 "Bip01 Spine3" 4
  6 "Bip01 Neck" 5
  7 "Bip01 L Arm" 6
  8 "Bip01 L Arm1" 7
  9 "Bip01 L Arm2" 8
 10 "Bip01 L Hand" 9
 11 "Bip06 L elbow2-smooth" 8
 12 "Bip01 R Arm" 6
 13 "Bip01 R Arm1" 12
 14 "Bip01 R Arm2" 13
 15 "Bip01 R Hand" 14
 16 "Bip06 R elbow2-smooth" 13
 17 "Bip01 Head" 6
 18 "Bip06 Head_helper" 17
 19 "Bip06 Head_eyes_l" 18
 20 "Bip06 Head_eyes_r" 18
 21 "Bip06 Head_blink_l" 18
 22 "Bip06 Head_blink_smooth_l1" 21
 23 "Bip06 Head_blink_r" 18
 24 "Bip06 Head_blink_smooth_r1" 23
 25 "Bip06 Head_L_eyebrow" 18
 26 "Bip06 Head_R_eyebrow" 18
 27 "Bip06 Head_blink_l_lid" 18
 28 "Bip06 Head_blink_r_lid" 18
 29 "Bip06 bunny" 18
 30 "Bip06 bunnyL" 29
 31 "Bip06 bunnyR" 29
 32 "Bip01 L Leg" 1
 33 "Bip01 L Leg1" 32
 34 "Bip01 L Foot" 33
 35 "Bip01 R Leg" 1
 36 "Bip01 R Leg1" 35
 37 "Bip01 R Foot" 36
 38 "Bip03 HairR1" 17
 39 "Bip03 HairR2" 38
 40 "Bip03 HairL1" 17
 41 "Bip03 HairL2" 40
 42 "Bip03 swingR" 17
 43 "Bip03 swingL" 17
end
skeleton
time 0
  0   0.243428 0.429701 1.851990 0.000000 0.000000 -1.571449
  1   -1.093036 0.000002 -0.326057 -1.570966 -1.570379 0.000264
  2   2.262337 0.113614 0.064702 -0.069344 -0.007154 -0.103504
  3   2.380047 0.353302 0.047440 0.000000 -0.000076 -0.008632
  4   2.033756 0.190472 -0.000128 -0.078225 0.004854 0.060544
  5   2.451511 0.204909 -0.003447 0.000000 -0.000005 -0.017472
  6   7.247600 -0.397300 -0.109469 0.000001 -0.000027 0.052298
  7   -2.022252 -0.104661 3.136172 -0.299166 -1.362006 -2.901655
  8   1.168026 -0.537438 -0.063437 0.555457 1.136113 0.768931
  9   6.790376 -0.619176 0.015206 -0.000324 -0.000352 -0.286627
 10   8.637599 0.544015 -0.090417 -1.570024 0.000362 -0.069282
 11   6.790465 -0.619039 0.017802 -0.002444 -0.010969 -0.215733
 12   -2.022474 -0.104699 -2.873818 0.298873 1.361712 -2.901984
 13   1.167898 -0.537463 0.063297 -0.658586 -1.227092 0.844551
 14   7.002743 -0.617765 -0.183752 0.000229 0.000421 -1.289478
 15   8.209042 0.615527 -0.255885 1.570090 -0.000063 -0.069646
 16   7.002735 -0.617911 -0.183641 0.013968 0.007086 -0.921268
 17   1.574674 0.609930 -0.000899 0.156956 -0.048911 0.292465
 18   -0.602177 0.511412 -0.000006 0.000000 0.000000 0.000000
 19   3.677679 0.177020 1.119313 -0.000002 -0.000014 -0.174510
 20   3.673767 0.176993 -1.117566 0.000007 -0.000003 -0.174546
 21   3.942357 1.330634 1.627658 0.000002 -0.000011 -0.000026
 22   -0.246060 -0.011889 0.516521 -0.000011 0.000031 0.000025
 23   3.942374 1.330659 -1.631083 0.000019 0.000002 -0.000024
 24   -0.246150 -0.011872 -0.516511 -0.000005 -0.000006 0.000048
 25   4.941364 1.997338 1.629330 0.000018 -0.000001 -0.000024
 26   4.941382 1.997366 -1.629410 -0.000001 0.000005 -0.000024
 27   2.918368 1.623171 1.514501 -0.000019 -0.000022 -0.000050
 28   2.920798 1.614964 -1.501142 -0.000002 -0.000009 -0.000024
 29   8.824059 0.150544 0.091743 0.000006 -0.000231 -0.174534
 30   2.111085 -0.561179 1.784320 -0.000008 -0.000682 0.000024
 31   2.121290 -0.561289 -1.853599 0.000000 0.000000 -0.000002
 32   -0.810489 -0.093824 3.127092 -0.055295 -3.106560 -0.210100
 33   14.298673 -0.408176 0.475484 -0.000076 -0.000093 -0.234016
 34   15.835795 0.581398 0.242756 -0.095464 -0.022329 0.023502
 35   -0.815868 -0.091229 -3.114430 0.257719 3.090565 0.081062
 36   14.294526 -0.410349 -0.463635 0.000021 0.000719 -0.126924
 37   15.834409 0.579420 -0.284600 -0.017992 0.068816 0.191997
 38   1.139685 -3.453749 -2.823813 0.000000 0.000000 0.000001
 39   -4.457742 -1.054854 -0.746180 0.000000 0.000000 0.000000
 40   1.118101 -3.449769 3.237290 0.000000 0.000001 0.000000
 41   -4.433840 -1.059130 0.959566 -0.000001 0.000000 0.000000
 42   -0.657468 1.697302 -2.688614 0.000000 0.000002 0.000000
 43   -0.664068 1.698578 2.869377 0.000000 0.000002 0.000000
time 1
  0   0.255147 0.273446 -0.624648 0.000000 0.000000 -1.571449
  1   -1.093036 0.000002 -0.326057 -1.571018 -1.570379 0.000264
  2   2.262337 0.113614 0.064702 -0.067243 -0.017904 -0.260125
  3   2.380047 0.353302 0.047440 0.000000 -0.000076 -0.165530
  4   2.033756 0.190472 -0.000128 -0.077801 -0.009384 -0.121851
  5   2.451511 0.204909 -0.003447 0.000000 -0.000005 -0.252744
  6   7.247600 -0.397300 -0.109469 0.000037 -0.000003 -0.758766
  7   -2.022252 -0.104661 3.136172 -0.299454 -1.361862 -2.091181
  8   1.168026 -0.537438 -0.063437 0.958554 0.361021 1.083082
  9   6.790376 -0.619176 0.015206 -0.000324 -0.000352 -0.286627
 10   8.637599 0.544015 -0.090417 -1.570024 0.000362 -0.069282
 11   6.790465 -0.619039 0.017802 -0.002473 -0.010969 -0.215733
 12   -2.022474 -0.104699 -2.873818 0.298394 1.361829 -2.092110
 13   1.167898 -0.537463 0.063297 -0.951432 -0.395544 1.063142
 14   7.002743 -0.617765 -0.183752 0.000229 0.000421 -0.687601
 15   8.209042 0.615527 -0.255885 1.570090 -0.000063 -0.069646
 16   7.002735 -0.617911 -0.183641 0.014486 0.003928 -0.499927
 17   1.574674 0.609930 -0.000899 0.068161 0.145110 0.258793
 18   -0.602177 0.511412 -0.000006 0.000000 0.000000 0.000000
 19   3.673773 0.196552 1.119313 -0.000002 -0.000014 -0.174510
 20   3.673767 0.196525 -1.117566 0.000007 -0.000003 -0.174546
 21   3.825166 1.330634 1.619845 0.000002 -0.000011 -0.000026
 22   -0.246060 -0.082204 0.516521 0.000005 -0.005937 0.092568
 23   3.829089 1.330659 -1.631083 0.000019 0.000002 -0.000024
 24   -0.234431 -0.062655 -0.516511 0.000007 -0.005974 0.092593
 25   4.839798 2.005151 1.621517 0.010624 -0.003057 -0.017522
 26   4.835910 2.005179 -1.621597 -0.014658 -0.002939 -0.019103
 27   2.949619 1.603639 1.514501 -0.000019 -0.000022 -0.000050
 28   2.952049 1.603245 -1.501142 -0.000002 -0.000009 -0.000024
 29   8.824059 0.150544 0.091743 0.000719 -0.000231 -0.224480
 30   2.111085 -0.561179 1.784320 -0.000008 -0.000682 0.000024
 31   2.121290 -0.561289 -1.853599 0.000000 0.000000 -0.000002
 32   -0.810489 -0.093824 3.127092 -0.012978 -3.069982 -0.825485
 33   14.298673 -0.408176 0.475484 -0.000040 -0.000042 -1.441820
 34   15.835795 0.581398 0.242756 -0.040926 -0.094369 -0.159965
 35   -0.815868 -0.091229 -3.114430 0.241701 3.033414 -0.062177
 36   14.294526 -0.410349 -0.463635 -0.000315 0.000563 -0.641601
 37   15.834409 0.579420 -0.284600 -0.013303 0.088934 0.556138
 38   1.159217 -3.485000 -2.823813 -0.000842 0.000988 0.087183
 39   -4.457742 -1.054854 -0.746180 0.000000 0.000000 0.000000
 40   1.137633 -3.477114 3.237290 -0.000842 0.000989 0.087182
 41   -4.433840 -1.059130 0.959566 -0.000001 0.000000 0.000000
 42   -0.657468 1.626987 -2.688614 0.006639 -0.005702 0.062188
 43   -0.664068 1.573574 2.861564 0.006647 -0.005710 0.062188
time 2
  0   0.243428 0.421888 -0.773090 0.000000 0.000000 -1.571449
  1   -1.093036 0.000002 -0.326057 -1.571123 -1.570379 0.000119
  2   2.262337 0.113614 0.064702 -0.067981 -0.014752 -0.213610
  3   2.380047 0.353302 0.047440 0.000000 -0.000076 -0.073134
  4   2.033756 0.190472 -0.000128 -0.077635 -0.010594 -0.139141
  5   2.451511 0.204909 -0.003447 0.000000 -0.000005 -0.252744
  6   7.247600 -0.397300 -0.109469 0.000037 -0.000003 -0.738715
  7   -2.022252 -0.104661 3.136172 -0.299454 -1.361862 -2.111091
  8   1.168026 -0.537438 -0.063437 0.892552 0.462354 1.028425
  9   6.790376 -0.619176 0.015206 -0.000324 -0.000352 -0.286627
 10   8.637599 0.544015 -0.090417 -1.570024 0.000362 -0.069282
 11   6.790465 -0.619039 0.017802 -0.002473 -0.010969 -0.215733
 12   -2.022474 -0.104699 -2.873818 0.298394 1.361829 -2.111928
 13   1.167898 -0.537463 0.063297 -0.901523 -0.506505 1.021615
 14   7.002743 -0.617765 -0.183752 0.000229 0.000421 -0.687601
 15   8.209042 0.615527 -0.255885 1.570090 -0.000063 -0.069646
 16   7.002735 -0.617911 -0.183641 0.014486 0.003928 -0.499927
 17   1.574674 0.609930 -0.000899 0.059346 0.151429 0.117454
 18   -0.602177 0.511412 -0.000006 0.000000 0.000000 0.000000
 19   3.665960 0.227803 1.127126 -0.000002 -0.000014 -0.174510
 20   3.665954 0.227776 -1.109753 0.000007 -0.000003 -0.174546
 21   3.575158 1.330634 1.600313 0.000002 -0.000011 -0.000026
 22   -0.246060 -0.273616 0.504802 0.000068 -0.020211 0.313241
 23   3.582988 1.330659 -1.619364 0.000019 0.000002 -0.000024
 24   -0.187554 -0.199378 -0.524324 0.000055 -0.020236 0.313348
 25   4.597603 2.028589 1.598079 0.036008 -0.010353 -0.059288
 26   4.581996 2.048149 -1.590346 -0.049665 -0.010024 -0.064645
 27   3.043372 1.564575 1.514501 -0.000019 -0.000022 -0.000050
 28   3.045802 1.564181 -1.501142 -0.000002 -0.000009 -0.000024
 29   8.824059 0.150544 0.091743 0.002858 -0.000207 -0.343686
 30   2.111085 -0.561179 1.784320 -0.000008 -0.000682 0.000024
 31   2.121290 -0.561289 -1.853599 0.000000 0.000000 -0.000002
 32   -0.810489 -0.093824 3.127092 -0.017452 -3.071987 -0.787632
 33   14.298673 -0.408176 0.475484 -0.000040 -0.000042 -1.367265
 34   15.835795 0.581398 0.242756 -0.056591 -0.085120 -0.038418
 35   -0.815868 -0.091229 -3.114430 0.236684 3.024701 -0.119473
 36   14.294526 -0.410349 -0.463635 -0.000351 0.000539 -0.703319
 37   15.834409 0.579420 -0.284600 -0.014327 0.083866 0.559636
 38   1.221719 -3.578753 -2.823813 -0.002989 0.003374 0.295271
 39   -4.457742 -1.054854 -0.746180 0.000000 0.000000 0.000000
 40   1.200135 -3.551335 3.237290 -0.002989 0.003375 0.295270
 41   -4.433840 -1.059130 0.959566 -0.000001 0.000000 0.000000
 42   -0.649655 1.455107 -2.708146 0.022579 -0.019869 0.210527
 43   -0.664068 1.276690 2.842032 0.022577 -0.019895 0.210527
time 3
  0   0.243428 0.566424 -0.726214 0.000000 0.000000 -1.571449
  1   -1.093036 0.000002 -0.326057 -1.570966 -1.570379 0.000264
  2   2.262337 0.113614 0.064702 -0.068758 -0.010462 -0.152133
  3   2.380047 0.353302 0.047440 0.000000 -0.000076 0.035730
  4   2.033756 0.190472 -0.000128 -0.077561 -0.010966 -0.141715
  5   2.451511 0.204909 -0.003447 0.000000 -0.000005 -0.252744
  6   7.247600 -0.397300 -0.109469 0.000037 -0.000015 -0.649357
  7   -2.022252 -0.104661 3.136172 -0.299454 -1.361862 -2.200402
  8   1.168026 -0.537438 -0.063437 0.785545 0.596895 0.935622
  9   6.790376 -0.619176 0.015206 -0.000324 -0.000352 -0.286627
 10   8.637599 0.544015 -0.090417 -1.570024 0.000362 -0.069282
 11   6.790465 -0.619039 0.017802 -0.002473 -0.010969 -0.215733
 12   -2.022474 -0.104699 -2.873818 0.298394 1.361800 -2.201350
 13   1.167898 -0.537463 0.063297 -0.815764 -0.655657 0.946128
 14   7.002743 -0.617765 -0.183752 0.000229 0.000421 -0.687601
 15   8.209042 0.615527 -0.255885 1.570090 -0.000063 -0.069646
 16   7.002735 -0.617911 -0.183641 0.014486 0.003928 -0.499927
 17   1.574674 0.609930 -0.000899 0.067917 0.149796 -0.005885
 18   -0.602177 0.511412 -0.000006 0.000000 0.000000 0.000000
 19   3.665960 0.262960 1.138845 -0.000002 -0.000014 -0.174510
 20   3.665954 0.262933 -1.098034 0.000007 -0.000003 -0.174546
 21   3.258742 1.330634 1.576875 0.000002 -0.000011 -0.000026
 22   -0.238247 -0.488466 0.489176 0.000131 -0.037217 0.576779
 23   3.270478 1.322846 -1.599832 0.000019 0.000002 -0.000024
 24   -0.132865 -0.367352 -0.536043 0.000115 -0.037242 0.576804
 25   4.300719 2.059840 1.559015 0.066281 -0.019062 -0.109132
 26   4.269486 2.091119 -1.555189 -0.091455 -0.018444 -0.118983
 27   3.160563 1.517699 1.514501 -0.000019 -0.000022 -0.000050
 28   3.162993 1.517305 -1.501142 -0.000002 -0.000009 -0.000024
 29   8.824059 0.150544 0.091743 0.005175 -0.000112 -0.486015
 30   2.111085 -0.561179 1.784320 -0.000008 -0.000682 0.000024
 31   2.121290 -0.561289 -1.853599 0.000000 0.000000 -0.000002
 32   -0.810489 -0.093824 3.127092 -0.030501 -3.080201 -0.628819
 33   14.298673 -0.408176 0.475484 -0.000040 -0.000067 -1.054278
 34   15.835795 0.581398 0.242756 -0.083204 -0.056958 0.137242
 35   -0.815868 -0.091229 -3.114430 0.232547 3.019267 -0.173044
 36   14.294526 -0.410349 -0.463635 -0.000363 0.000527 -0.735839
 37   15.834409 0.579420 -0.284600 -0.015312 0.076648 0.539913
 38   1.295940 -3.688131 -2.823813 -0.005725 0.006218 0.543559
 39   -4.457742 -1.054854 -0.746180 0.000000 0.000000 0.000000
 40   1.274356 -3.637275 3.237290 -0.005725 0.006219 0.543558
 41   -4.433840 -1.059130 0.959566 -0.000001 0.000000 0.000000
 42   -0.626217 1.255882 -2.727678 0.041718 -0.038145 0.387598
 43   -0.656255 0.917304 2.818594 0.041718 -0.038144 0.387598
time 4
  0   0.243428 0.695334 -0.655899 0.000000 0.000000 -1.571449
  1   -1.093036 0.000002 -0.326057 -1.571071 -1.570379 0.000264
  2   2.262337 0.113614 0.064702 -0.069408 -0.006447 -0.093204
  3   2.380047 0.353302 0.047440 0.000000 -0.000076 0.139227
  4   2.033756 0.190472 -0.000128 -0.077561 -0.011122 -0.143781
  5   2.451511 0.204909 -0.003447 0.000000 -0.000005 -0.252744
  6   7.247600 -0.397300 -0.109469 0.000025 -0.000015 -0.559492
  7   -2.022252 -0.104661 3.136172 -0.299454 -1.361862 -2.290090
  8   1.168026 -0.537438 -0.063437 0.657845 0.715989 0.820678
  9   6.790376 -0.619176 0.015206 -0.000324 -0.000352 -0.286627
 10   8.637599 0.544015 -0.090417 -1.570024 0.000362 -0.069282
 11   6.790465 -0.619039 0.017802 -0.002473 -0.010969 -0.215733
 12   -2.022474 -0.104699 -2.873818 0.298586 1.361771 -2.290964
 13   1.167898 -0.537463 0.063297 -0.707792 -0.791689 0.847638
 14   7.002743 -0.617765 -0.183752 0.000229 0.000421 -0.687601
 15   8.209042 0.615527 -0.255885 1.570090 -0.000063 -0.069646
 16   7.002735 -0.617911 -0.183641 0.014486 0.003928 -0.499927
 17   1.574674 0.609930 -0.000899 0.076813 0.146175 -0.120834
 18   -0.602177 0.511412 -0.000006 0.000000 0.000000 0.000000
 19   3.665960 0.302024 1.138845 -0.000002 -0.000014 -0.174510
 20   3.665954 0.301997 -1.098034 0.000007 -0.000003 -0.174546
 21   2.997015 1.322821 1.557343 0.000002 -0.000011 -0.000026
 22   -0.234341 -0.675972 0.477457 0.000162 -0.051491 0.797452
 23   3.016564 1.322846 -1.588113 0.000019 0.000002 -0.000024
 24   -0.089895 -0.507981 -0.547762 0.000163 -0.051516 0.797532
 25   4.054618 2.083278 1.535577 0.091628 -0.026358 -0.150874
 26   4.011666 2.122370 -1.527844 -0.126462 -0.025504 -0.164524
 27   3.254316 1.478635 1.514501 -0.000019 -0.000022 -0.000050
 28   3.256746 1.478241 -1.501142 -0.000002 -0.000009 -0.000024
 29   8.824059 0.150544 0.091743 0.007314 0.000078 -0.605274
 30   2.111085 -0.561179 1.784320 -0.000008 -0.000682 0.000024
 31   2.121290 -0.561289 -1.853599 0.000000 0.000000 -0.000002
 32   -0.810489 -0.093824 3.127092 -0.041500 -3.089942 -0.491750
 33   14.298673 -0.408176 0.475484 -0.000052 -0.000080 -0.772494
 34   15.835795 0.581398 0.242756 -0.095763 -0.025599 0.279738
 35   -0.815868 -0.091229 -3.114430 0.228674 3.015051 -0.220863
 36   14.294526 -0.410349 -0.463635 -0.000387 0.000515 -0.756231
 37   15.834409 0.579420 -0.284600 -0.015844 0.069379 0.512991
 38   1.358442 -3.774071 -2.823813 -0.008335 0.008616 0.751524
 39   -4.457742 -1.054854 -0.746180 0.000000 0.000000 0.000000
 40   1.329045 -3.711496 3.237290 -0.008335 0.008617 0.751585
 41   -4.433840 -1.059130 0.959566 -0.000001 0.000000 0.000000
 42   -0.571528 1.084002 -2.747210 0.058053 -0.056007 0.535937
 43   -0.632817 0.620420 2.787343 0.058060 -0.056016 0.535937
time 5
  0   0.243428 0.843776 -0.573865 0.000000 0.000000 -1.571449
  1   -1.093036 0.000002 -0.326057 -1.571071 -1.570379 0.000264
  2   2.262337 0.113614 0.064702 -0.069535 -0.002684 -0.040021
  3   2.380047 0.353302 0.047440 0.000000 -0.000076 0.232215
  4   2.033756 0.190472 -0.000128 -0.077561 -0.011182 -0.145774
  5   2.451511 0.204909 -0.003447 0.000000 -0.000005 -0.252744
  6   7.247600 -0.397300 -0.109469 0.000025 -0.000015 -0.477800
  7   -2.022252 -0.104661 3.136172 -0.299358 -1.361891 -2.371795
  8   1.168026 -0.537438 -0.063437 0.514262 0.811183 0.688274
  9   6.790376 -0.619176 0.015206 -0.000324 -0.000352 -0.286627
 10   8.637599 0.544015 -0.090417 -1.570024 0.000362 -0.069282
 11   6.790465 -0.619039 0.017802 -0.002473 -0.010969 -0.215733
 12   -2.022474 -0.104699 -2.873818 0.298586 1.361771 -2.372631
 13   1.167898 -0.537463 0.063297 -0.578029 -0.905498 0.725842
 14   7.002743 -0.617765 -0.183752 0.000229 0.000421 -0.687601
 15   8.209042 0.615527 -0.255885 1.570090 -0.000063 -0.069646
 16   7.002735 -0.617911 -0.183641 0.014486 0.003928 -0.499927
 17   1.574674 0.609930 -0.000899 0.084165 0.141631 -0.224842
 18   -0.602177 0.511412 -0.000006 0.000000 0.000000 0.000000
 19   3.665960 0.313743 1.146658 -0.000002 -0.000014 -0.174510
 20   3.665954 0.313716 -1.090221 0.000007 -0.000003 -0.174546
 21   2.887637 1.322821 1.553437 0.000002 -0.000011 -0.000026
 22   -0.226528 -0.754099 0.477457 0.000194 -0.057459 0.890061
 23   2.907186 1.318940 -1.588113 0.000019 0.000002 -0.000024
 24   -0.078176 -0.558764 -0.547762 0.000187 -0.057484 0.890104
 25   3.956959 2.091091 1.523858 0.102271 -0.029427 -0.168396
 26   3.906194 2.137995 -1.516125 -0.141144 -0.028485 -0.183628
 27   3.289473 1.455197 1.514501 -0.000019 -0.000022 -0.000050
 28   3.291903 1.454803 -1.501142 -0.000002 -0.000009 -0.000024
 29   8.824059 0.150544 0.091743 0.008116 0.000362 -0.655275
 30   2.111085 -0.561179 1.784320 -0.000008 -0.000682 0.000024
 31   2.121290 -0.561289 -1.853599 0.000000 0.000000 -0.000002
 32   -0.810489 -0.093824 3.127092 -0.042339 -3.093189 -0.509339
 33   14.298673 -0.408176 0.475484 -0.000052 -0.000080 -0.739385
 34   15.835795 0.581398 0.242756 -0.096361 -0.021353 0.229240
 35   -0.815868 -0.091229 -3.114430 0.225682 3.012428 -0.260904
 36   14.294526 -0.410349 -0.463635 -0.000387 0.000515 -0.766505
 37   15.834409 0.579420 -0.284600 -0.015904 0.062545 0.483736
 38   1.381880 -3.813135 -2.823813 -0.010167 0.009616 0.838767
 39   -4.457742 -1.054854 -0.746180 0.000000 0.000000 0.000000
 40   1.360296 -3.742747 3.237290 -0.010167 0.009617 0.838828
 41   -4.433840 -1.059130 0.959566 -0.000001 0.000000 0.000000
 42   -0.481681 1.009781 -2.762835 0.065544 -0.069116 0.598167
 43   -0.601566 0.495416 2.767811 0.065544 -0.069119 0.598167
time 6
  0   0.243428 0.980499 -0.507457 0.000000 0.000000 -1.571449
  1   -1.093036 0.000002 -0.326057 -1.571018 -1.570379 0.000264
  2   2.262337 0.113614 0.064702 -0.069586 0.000288 0.003692
  3   2.380047 0.353302 0.047440 0.000000 -0.000076 0.310144
  4   2.033756 0.190472 -0.000128 -0.077561 -0.011170 -0.144977
  5   2.451511 0.204909 -0.003447 0.000000 -0.000005 -0.252744
  6   7.247600 -0.397300 -0.109469 0.000025 -0.000015 -0.410330
  7   -2.022252 -0.104661 3.136172 -0.299262 -1.361862 -2.439506
  8   1.168026 -0.537438 -0.063437 0.366312 0.879862 0.549227
  9   6.790376 -0.619176 0.015206 -0.000324 -0.000352 -0.286627
 10   8.637599 0.544015 -0.090417 -1.570024 0.000362 -0.069282
 11   6.790465 -0.619039 0.017802 -0.002473 -0.010969 -0.215733
 12   -2.022474 -0.104699 -2.873818 0.298777 1.361712 -2.440320
 13   1.167898 -0.537463 0.063297 -0.431958 -0.991948 0.586491
 14   7.002743 -0.617765 -0.183752 0.000229 0.000421 -0.687601
 15   8.209042 0.615527 -0.255885 1.570090 -0.000063 -0.069646
 16   7.002735 -0.617911 -0.183641 0.014486 0.003928 -0.499927
 17   1.574674 0.609930 -0.000899 0.090786 0.136235 -0.306415
 18   -0.602177 0.511412 -0.000006 0.000000 0.000000 0.000000
 19   3.665960 0.313743 1.146658 -0.000002 -0.000014 -0.174510
 20   3.665954 0.313716 -1.090221 0.000007 -0.000003 -0.174546
 21   2.887637 1.322821 1.553437 0.000002 -0.000011 -0.000026
 22   -0.226528 -0.754099 0.477457 0.000194 -0.057459 0.890061
 23   2.907186 1.318940 -1.588113 0.000019 0.000002 -0.000024
 24   -0.078176 -0.558764 -0.547762 0.000187 -0.057484 0.890104
 25   3.956959 2.091091 1.523858 0.102271 -0.029427 -0.168396
 26   3.906194 2.137995 -1.516125 -0.141144 -0.028485 -0.183628
 27   3.289473 1.455197 1.514501 -0.000019 -0.000022 -0.000050
 28   3.291903 1.454803 -1.501142 -0.000002 -0.000009 -0.000024
 29   8.824059 0.150544 0.091743 0.008027 0.002095 -0.553397
 30   2.111085 -0.561179 1.784320 -0.000008 -0.000682 0.000024
 31   2.121290 -0.561289 -1.853599 0.000000 0.000000 -0.000002
 32   -0.810489 -0.093824 3.127092 -0.042805 -3.095959 -0.520895
 33   14.298673 -0.408176 0.475484 -0.000052 -0.000080 -0.704132
 34   15.835795 0.581398 0.242756 -0.096982 -0.017912 0.182139
 35   -0.815868 -0.091229 -3.114430 0.222954 3.011117 -0.292455
 36   14.294526 -0.410349 -0.463635 -0.000387 0.000515 -0.769208
 37   15.834409 0.579420 -0.284600 -0.015549 0.056760 0.455343
 38   1.381880 -3.813135 -2.823813 -0.011114 0.009580 0.813046
 39   -4.457742 -1.054854 -0.746180 0.000000 0.000000 0.000000
 40   1.360296 -3.742747 3.237290 -0.011114 0.009581 0.813107
 41   -4.433840 -1.059130 0.959566 -0.000001 0.000000 0.000000
 42   -0.329333 1.181661 -2.778461 0.066275 -0.076660 0.498508
 43   -0.539064 0.698547 2.756092 0.066369 -0.075882 0.498508
time 7
  0   0.243428 1.152379 -0.495738 0.000000 0.000000 -1.571449
  1   -1.093036 0.000002 -0.326057 -1.571018 -1.570379 0.000264
  2   2.262337 0.113614 0.064702 -0.069586 0.001894 0.026696
  3   2.380047 0.353302 0.047440 0.000000 -0.000076 0.366198
  4   2.033756 0.190472 -0.000128 -0.077967 -0.008030 -0.104489
  5   2.451511 0.204909 -0.003447 0.000000 -0.000005 -0.252744
  6   7.247600 -0.397300 -0.109469 0.000013 -0.000015 -0.374948
  7   -2.022252 -0.104661 3.136172 -0.299262 -1.361891 -2.474912
  8   1.168026 -0.537438 -0.063437 0.197606 0.934554 0.389811
  9   6.790376 -0.619176 0.015206 -0.000324 -0.000352 -0.286627
 10   8.637599 0.544015 -0.090417 -1.570024 0.000362 -0.069282
 11   6.790465 -0.619039 0.017802 -0.002473 -0.010969 -0.215848
 12   -2.022474 -0.104699 -2.873818 0.298777 1.361712 -2.475553
 13   1.167898 -0.537463 0.063297 -0.244413 -1.059227 0.404342
 14   7.002743 -0.617765 -0.183752 0.000229 0.000421 -0.687601
 15   8.209042 0.615527 -0.255885 1.570090 -0.000063 -0.069646
 16   7.002735 -0.617911 -0.183641 0.014486 0.003928 -0.499927
 17   1.574674 0.609930 -0.000899 0.109512 0.120307 -0.273630
 18   -0.602177 0.511412 -0.000006 0.000000 0.000000 0.000000
 19   3.665960 0.313743 1.146658 -0.000002 -0.000014 -0.174510
 20   3.665954 0.313716 -1.090221 0.000007 -0.000003 -0.174546
 21   2.887637 1.322821 1.553437 0.000002 -0.000011 -0.000026
 22   -0.226528 -0.754099 0.477457 0.000194 -0.057459 0.890061
 23   2.907186 1.318940 -1.588113 0.000019 0.000002 -0.000024
 24   -0.078176 -0.558764 -0.547762 0.000187 -0.057484 0.890104
 25   3.956959 2.091091 1.523858 0.102271 -0.029427 -0.168396
 26   3.906194 2.137995 -1.516125 -0.141144 -0.028485 -0.183628
 27   3.289473 1.455197 1.514501 -0.000019 -0.000022 -0.000050
 28   3.291903 1.454803 -1.501142 -0.000002 -0.000009 -0.000024
 29   8.824059 0.150544 0.091743 0.007670 0.005751 -0.310425
 30   2.111085 -0.561179 1.784320 -0.000008 -0.000682 0.000024
 31   2.121290 -0.561289 -1.853599 0.000000 0.000000 -0.000002
 32   -0.810489 -0.093824 3.127092 -0.043551 -3.098442 -0.531994
 33   14.298673 -0.408176 0.475484 -0.000052 -0.000080 -0.678169
 34   15.835795 0.581398 0.242756 -0.097672 -0.014837 0.145754
 35   -0.815868 -0.091229 -3.114430 0.219873 3.009617 -0.320062
 36   14.294526 -0.410349 -0.463635 -0.000387 0.000515 -0.775620
 37   15.834409 0.579420 -0.284600 -0.014859 0.052204 0.434707
 38   1.381880 -3.813135 -2.823813 -0.011661 0.009375 0.751830
 39   -4.457742 -1.054854 -0.746180 0.000000 0.000000 0.000000
 40   1.356390 -3.742747 3.237290 -0.011661 0.009376 0.751768
 41   -4.433840 -1.059130 0.959566 -0.000001 0.000000 0.000000
 42   -0.098857 1.595736 -2.782367 0.066538 -0.081198 0.260838
 43   -0.441405 1.194656 2.752186 0.066881 -0.078926 0.260838
time 8
  0   0.243428 1.488327 -1.163727 0.000000 0.000000 -1.571449
  1   -1.093036 0.000002 -0.326057 -1.571071 -1.570379 0.000264
  2   2.262337 0.113614 0.064702 -0.069586 0.001894 0.026696
  3   2.380047 0.353302 0.047440 0.000000 -0.000076 0.400642
  4   2.033756 0.190472 -0.000128 -0.078336 -0.001294 -0.020867
  5   2.451511 0.204909 -0.003447 0.000000 -0.000005 -0.122849
  6   7.247600 -0.397300 -0.109469 0.000013 -0.000015 -0.374948
  7   -2.022252 -0.104661 3.136172 -0.299262 -1.361891 -2.474912
  8   1.168026 -0.537438 -0.063437 -0.218020 0.994428 -0.004238
  9   6.790376 -0.619176 0.015206 -0.000324 -0.000352 -0.286627
 10   8.637599 0.544015 -0.090417 -1.570024 0.000362 -0.069282
 11   6.790465 -0.619039 0.017802 -0.002473 -0.010969 -0.215733
 12   -2.022474 -0.104699 -2.873818 0.298777 1.361712 -2.475553
 13   1.167898 -0.537463 0.063297 0.270491 -1.115216 -0.102758
 14   7.002743 -0.617765 -0.183752 0.000229 0.000421 -0.687601
 15   8.209042 0.615527 -0.255885 1.570090 -0.000063 -0.069646
 16   7.002735 -0.617911 -0.183641 0.014486 0.003928 -0.499927
 17   1.574674 0.609930 -0.000899 0.132828 0.093042 -0.284608
 18   -0.602177 0.511412 -0.000006 0.000000 0.000000 0.000000
 19   3.665960 0.313743 1.146658 -0.000002 -0.000014 -0.174510
 20   3.665954 0.313716 -1.090221 0.000007 -0.000003 -0.174546
 21   2.887637 1.322821 1.553437 0.000002 -0.000011 -0.000026
 22   -0.226528 -0.754099 0.477457 0.000194 -0.057459 0.890061
 23   2.907186 1.318940 -1.588113 0.000019 0.000002 -0.000024
 24   -0.078176 -0.558764 -0.547762 0.000187 -0.057484 0.890104
 25   3.956959 2.091091 1.523858 0.102271 -0.029427 -0.168396
 26   3.906194 2.137995 -1.516125 -0.141144 -0.028485 -0.183628
 27   3.289473 1.455197 1.514501 -0.000019 -0.000022 -0.000050
 28   3.291903 1.454803 -1.501142 -0.000002 -0.000009 -0.000024
 29   8.824059 0.150544 0.091743 0.006601 0.009976 -0.020510
 30   2.111085 -0.561179 1.784320 -0.000008 -0.000682 0.000024
 31   2.121290 -0.561289 -1.853599 0.000000 0.000000 -0.000002
 32   -0.810489 -0.093824 3.127092 -0.041500 -3.099111 -0.596715
 33   14.298673 -0.408176 0.475484 -0.000052 -0.000080 -0.748595
 34   15.835795 0.581398 0.242756 -0.098569 -0.011445 0.151223
 35   -0.815868 -0.091229 -3.114430 0.210455 2.997906 -0.393079
 36   14.294526 -0.410349 -0.463635 -0.000435 0.000467 -0.869780
 37   15.834409 0.579420 -0.284600 -0.013894 0.048570 0.456002
 38   1.381880 -3.813135 -2.823813 -0.011977 0.008821 0.678700
 39   -4.457742 -1.054854 -0.746180 0.000000 0.000000 0.000000
 40   1.356390 -3.742747 3.237290 -0.011977 0.008822 0.678699
 41   -4.433840 -1.059130 0.959566 -0.000001 0.000000 0.000000
 42   0.135525 2.084033 -2.782367 0.066622 -0.083544 -0.022793
 43   -0.328120 1.780612 2.752186 0.067156 -0.080103 -0.022793
time 9
  0   0.243428 0.687521 -2.202821 0.000000 0.000000 -1.571449
  1   -1.093036 0.000002 -0.326057 -1.570966 -1.570379 0.000264
  2   2.262337 0.113614 0.064702 -0.069586 0.001894 0.026696
  3   2.380047 0.353302 0.047440 0.000000 -0.000076 0.431067
  4   2.033756 0.190472 -0.000128 -0.078170 0.004962 0.062030
  5   2.451511 0.204909 -0.003447 0.000000 -0.000005 0.010513
  6   7.247600 -0.397300 -0.109469 0.000013 -0.000015 -0.374948
  7   -2.022252 -0.104661 3.136172 -0.299262 -1.361862 -2.474912
  8   1.168026 -0.537438 -0.063437 -0.646935 0.956642 -0.409864
  9   6.790376 -0.619176 0.015206 -0.000324 -0.000352 -0.286627
 10   8.637599 0.544015 -0.090417 -1.570024 0.000362 -0.069282
 11   6.790465 -0.619039 0.017802 -0.002473 -0.010969 -0.215733
 12   -2.022474 -0.104699 -2.873818 0.298777 1.361712 -2.475553
 13   1.167898 -0.537463 0.063297 0.770001 -1.047123 -0.594845
 14   7.002743 -0.617765 -0.183752 0.000229 0.000421 -0.687601
 15   8.209042 0.615527 -0.255885 1.570090 -0.000063 -0.069646
 16   7.002735 -0.617911 -0.183641 0.014486 0.003928 -0.499927
 17   1.574674 0.609930 -0.000899 0.148913 0.063033 -0.307080
 18   -0.602177 0.511412 -0.000006 0.000000 0.000000 0.000000
 19   3.665960 0.313743 1.146658 -0.000002 -0.000014 -0.174510
 20   3.665954 0.313716 -1.090221 0.000007 -0.000003 -0.174546
 21   2.887637 1.322821 1.553437 0.000002 -0.000011 -0.000026
 22   -0.226528 -0.754099 0.477457 0.000194 -0.057459 0.890061
 23   2.907186 1.318940 -1.588113 0.000019 0.000002 -0.000024
 24   -0.078176 -0.558764 -0.547762 0.000187 -0.057484 0.890104
 25   3.956959 2.091091 1.523858 0.102271 -0.029427 -0.168396
 26   3.906194 2.137995 -1.516125 -0.141144 -0.028485 -0.183628
 27   3.289473 1.455197 1.514501 -0.000019 -0.000022 -0.000050
 28   3.291903 1.454803 -1.501142 -0.000002 -0.000009 -0.000024
 29   8.824059 0.150544 0.091743 0.004908 0.013490 0.222516
 30   2.111085 -0.561179 1.784320 -0.000008 -0.000682 0.000024
 31   2.121290 -0.561289 -1.853599 0.000000 0.000000 -0.000002
 32   -0.810489 -0.093824 3.127092 -0.039077 -3.097392 -0.668835
 33   14.298673 -0.408176 0.475484 -0.000052 -0.000067 -0.895402
 34   15.835795 0.581398 0.242756 -0.099121 -0.010249 0.226021
 35   -0.815868 -0.091229 -3.114430 0.199454 2.982260 -0.445609
 36   14.294526 -0.410349 -0.463635 -0.000483 0.000395 -0.994993
 37   15.834409 0.579420 -0.284600 -0.013007 0.054201 0.527897
 38   1.381880 -3.813135 -2.823813 -0.012061 0.007749 0.617361
 39   -4.457742 -1.054854 -0.746180 0.000000 0.000000 0.000000
 40   1.356390 -3.742747 3.237290 -0.012061 0.007750 0.617299
 41   -4.433840 -1.059130 0.959566 -0.000001 0.000000 0.000000
 42   0.326937 2.490295 -2.786273 0.066778 -0.084418 -0.260504
 43   -0.234367 2.280627 2.744373 0.067256 -0.081374 -0.260504
time 10
  0   0.255147 -0.136723 -3.234103 0.000000 0.000000 -1.571449
  1   -1.093036 0.000002 -0.326057 -1.571071 -1.570379 0.000119
  2   2.262337 0.113614 0.064702 -0.069586 0.001894 0.026696
  3   2.380047 0.353302 0.047440 0.000000 -0.000076 0.458655
  4   2.033756 0.190472 -0.000128 -0.077598 0.010738 0.137677
  5   2.451511 0.204909 -0.003447 0.000000 -0.000005 0.133424
  6   7.247600 -0.397300 -0.109469 0.000013 -0.000015 -0.374948
  7   -2.022252 -0.104661 3.136172 -0.299262 -1.361891 -2.474912
  8   1.168026 -0.537438 -0.063437 -0.961502 0.848265 -0.702633
  9   6.790376 -0.619176 0.015206 -0.000324 -0.000352 -0.286627
 10   8.637599 0.544015 -0.090417 -1.570024 0.000362 -0.069282
 11   6.790465 -0.619039 0.017802 -0.002473 -0.010969 -0.215733
 12   -2.022474 -0.104699 -2.873818 0.298777 1.361712 -2.475553
 13   1.167898 -0.537463 0.063297 1.080139 -0.906820 -0.898911
 14   7.002743 -0.617765 -0.183752 0.000229 0.000421 -0.687601
 15   8.209042 0.615527 -0.255885 1.570090 -0.000063 -0.069646
 16   7.002735 -0.617911 -0.183641 0.014486 0.003928 -0.499927
 17   1.574674 0.609930 -0.000899 0.157566 0.033426 -0.331031
 18   -0.602177 0.511412 -0.000006 0.000000 0.000000 0.000000
 19   3.665960 0.313743 1.146658 -0.000002 -0.000014 -0.174510
 20   3.665954 0.313716 -1.090221 0.000007 -0.000003 -0.174546
 21   2.887637 1.322821 1.553437 0.000002 -0.000011 -0.000026
 22   -0.226528 -0.754099 0.477457 0.000194 -0.057459 0.890061
 23   2.907186 1.318940 -1.588113 0.000019 0.000002 -0.000024
 24   -0.078176 -0.558764 -0.547762 0.000187 -0.057484 0.890104
 25   3.956959 2.091091 1.523858 0.102271 -0.029427 -0.168396
 26   3.906194 2.137995 -1.516125 -0.141144 -0.028485 -0.183628
 27   3.289473 1.455197 1.514501 -0.000019 -0.000022 -0.000050
 28   3.291903 1.454803 -1.501142 -0.000002 -0.000009 -0.000024
 29   8.824059 0.150544 0.091743 0.002056 0.014961 0.324447
 30   2.111085 -0.561179 1.784320 -0.000008 -0.000682 0.000024
 31   2.121290 -0.561289 -1.853599 0.000000 0.000000 -0.000002
 32   -0.810489 -0.093824 3.127092 -0.036467 -3.096055 -0.727750
 33   14.298673 -0.408176 0.475484 -0.000040 -0.000067 -1.024265
 34   15.835795 0.581398 0.242756 -0.099512 -0.009395 0.295615
 35   -0.815868 -0.091229 -3.114430 0.189068 2.968675 -0.486034
 36   14.294526 -0.410349 -0.463635 -0.000519 0.000335 -1.104679
 37   15.834409 0.579420 -0.284600 -0.012594 0.061035 0.595533
 38   1.381880 -3.813135 -2.823813 -0.012082 0.005953 0.591640
 39   -4.457742 -1.054854 -0.746180 0.000000 0.000000 0.000000
 40   1.356390 -3.742747 3.237290 -0.012082 0.005954 0.591639
 41   -4.433840 -1.059130 0.959566 -0.000001 0.000000 0.000000
 42   0.401158 2.669988 -2.786273 0.067270 -0.084525 -0.360163
 43   -0.171865 2.487665 2.736560 0.067256 -0.084528 -0.360163
time 11
  0   0.255147 -0.968780 -4.202882 0.000000 0.000000 -1.571449
  1   -1.093036 0.000002 -0.326057 -1.571071 -1.570379 0.000264
  2   2.262337 0.113614 0.064702 -0.069586 0.001894 0.026696
  3   2.380047 0.353302 0.047440 0.000000 -0.000076 0.482448
  4   2.033756 0.190472 -0.000128 -0.076713 0.015952 0.203103
  5   2.451511 0.204909 -0.003447 0.000000 -0.000005 0.240039
  6   7.247600 -0.397300 -0.109469 0.000013 -0.000015 -0.374948
  7   -2.022252 -0.104661 3.136172 -0.299262 -1.361891 -2.474912
  8   1.168026 -0.537438 -0.063437 -1.161785 0.717850 -0.882989
  9   6.790376 -0.619176 0.015206 -0.000324 -0.000352 -0.286627
 10   8.637599 0.544015 -0.090417 -1.570024 0.000362 -0.069282
 11   6.790465 -0.619039 0.017802 -0.002473 -0.010969 -0.215733
 12   -2.022474 -0.104699 -2.873818 0.298777 1.361712 -2.475553
 13   1.167898 -0.537463 0.063297 1.254258 -0.754566 -1.067803
 14   7.002743 -0.617765 -0.183752 0.000229 0.000421 -0.687601
 15   8.209042 0.615527 -0.255885 1.570090 -0.000063 -0.069646
 16   7.002735 -0.617911 -0.183641 0.014486 0.003928 -0.499927
 17   1.574674 0.609930 -0.000899 0.160490 0.005996 -0.346111
 18   -0.602177 0.511412 -0.000006 0.000000 0.000000 0.000000
 19   3.665960 0.313743 1.146658 -0.000002 -0.000014 -0.174510
 20   3.665954 0.313716 -1.090221 0.000007 -0.000003 -0.174546
 21   2.887637 1.322821 1.553437 0.000002 -0.000011 -0.000026
 22   -0.226528 -0.754099 0.477457 0.000194 -0.057459 0.890061
 23   2.907186 1.318940 -1.588113 0.000019 0.000002 -0.000024
 24   -0.078176 -0.558764 -0.547762 0.000187 -0.057484 0.890104
 25   3.956959 2.091091 1.523858 0.102271 -0.029427 -0.168396
 26   3.906194 2.137995 -1.516125 -0.141144 -0.028485 -0.183628
 27   3.289473 1.455197 1.514501 -0.000019 -0.000022 -0.000050
 28   3.291903 1.454803 -1.501142 -0.000002 -0.000009 -0.000024
 29   8.824059 0.150544 0.091743 -0.004717 0.013323 0.322677
 30   2.111085 -0.561179 1.784320 -0.000008 -0.000682 0.000024
 31   2.121290 -0.561289 -1.853599 0.000000 0.000000 -0.000002
 32   -0.810489 -0.093824 3.127092 -0.034323 -3.095099 -0.773800
 33   14.298673 -0.408176 0.475484 -0.000040 -0.000054 -1.135661
 34   15.835795 0.581398 0.242756 -0.099765 -0.008980 0.361504
 35   -0.815868 -0.091229 -3.114430 0.180002 2.956683 -0.514134
 36   14.294526 -0.410349 -0.463635 -0.000543 0.000287 -1.198222
 37   15.834409 0.579420 -0.284600 -0.012397 0.068509 0.659469
 38   1.346723 -3.758446 -2.816000 0.002736 -0.003398 0.647419
 39   -4.457742 -1.054854 -0.746180 0.000000 0.000000 0.000000
 40   1.391547 -3.797436 3.237290 0.002736 -0.003397 0.647480
 41   -4.433840 -1.059130 0.959566 -0.000001 0.000000 0.000000
 42   0.401158 2.662175 -2.782367 0.068252 -0.082946 -0.359661
 43   -0.144521 2.479852 2.720935 0.066756 -0.091134 -0.358783
time 12
  0   0.255147 -1.804743 -5.097441 0.000000 0.000000 -1.571449
  1   -1.093036 0.000002 -0.326057 -1.571018 -1.570379 0.000264
  2   2.262337 0.113614 0.064702 -0.069586 0.001894 0.026696
  3   2.380047 0.353302 0.047440 0.073220 -0.039194 0.488896
  4   2.033756 0.190472 -0.000128 -0.032082 0.007395 0.225431
  5   2.451511 0.204909 -0.003447 0.000000 -0.000005 0.275305
  6   7.247600 -0.397300 -0.109469 0.000013 -0.000015 -0.374948
  7   -2.022252 -0.104661 3.136172 -0.299262 -1.361891 -2.474912
  8   1.168026 -0.537438 -0.063437 -1.113628 0.627184 -0.952575
  9   6.790376 -0.619176 0.015206 -0.000324 -0.000352 -0.286627
 10   8.637599 0.544015 -0.090417 -1.570024 0.000362 -0.069282
 11   6.790465 -0.619039 0.017802 -0.002473 -0.010969 -0.215733
 12   -2.022474 -0.104699 -2.873818 0.298777 1.361712 -2.475553
 13   1.167898 -0.537463 0.063297 0.931467 -0.709917 -0.961141
 14   7.002743 -0.617765 -0.183752 0.000229 0.000421 -0.687601
 15   8.209042 0.615527 -0.255885 1.570090 -0.000063 -0.069646
 16   7.002735 -0.617911 -0.183641 0.014486 0.003928 -0.499927
 17   1.574674 0.609930 -0.000899 0.023844 0.011747 0.072066
 18   -0.602177 0.511412 -0.000006 0.000000 0.000000 0.000000
 19   3.665960 0.313743 1.146658 -0.000002 -0.000014 -0.174510
 20   3.665954 0.313716 -1.090221 0.000007 -0.000003 -0.174546
 21   2.887637 1.322821 1.553437 0.000002 -0.000011 -0.000026
 22   -0.226528 -0.754099 0.477457 0.000194 -0.057459 0.890061
 23   2.907186 1.318940 -1.588113 0.000019 0.000002 -0.000024
 24   -0.078176 -0.558764 -0.547762 0.000187 -0.057484 0.890104
 25   3.956959 2.091091 1.523858 0.102271 -0.029427 -0.168396
 26   3.906194 2.137995 -1.516125 -0.141144 -0.028485 -0.183628
 27   3.289473 1.455197 1.514501 -0.000019 -0.000022 -0.000050
 28   3.291903 1.454803 -1.501142 -0.000002 -0.000009 -0.000024
 29   8.824059 0.150544 0.091743 -0.017640 0.008600 0.317634
 30   2.111085 -0.561179 1.784320 -0.000008 -0.000682 0.000024
 31   2.121290 -0.561289 -1.853599 0.000000 0.000000 -0.000002
 32   -0.810489 -0.093824 3.127092 -0.014283 -3.092998 -0.805619
 33   14.298673 -0.408176 0.475484 -0.000040 -0.000054 -1.233241
 34   15.835795 0.581398 0.242756 -0.111657 -0.022817 0.427526
 35   -0.815868 -0.091229 -3.114430 0.201214 2.940569 -0.522843
 36   14.294526 -0.410349 -0.463635 -0.000555 0.000252 -1.276470
 37   15.834409 0.579420 -0.284600 -0.039369 0.068995 0.724621
 38   1.252970 -3.621723 -2.796468 0.040225 -0.023788 0.780544
 39   -4.457742 -1.054854 -0.746180 0.000000 0.000000 0.000000
 40   1.485300 -3.934159 3.221664 0.040225 -0.023787 0.780605
 41   -4.433840 -1.059130 0.959566 -0.000001 0.000000 0.000000
 42   0.401158 2.662175 -2.778461 0.069774 -0.078331 -0.358240
 43   -0.117176 2.472039 2.689684 0.065282 -0.101176 -0.354810
time 13
  0   0.255147 -2.578204 -5.870902 0.000000 0.000000 -1.571449
  1   -1.093036 0.000002 -0.326057 -1.571018 -1.570379 0.000361
  2   2.262337 0.113614 0.064702 -0.069586 0.001894 0.026696
  3   2.380047 0.353302 0.047440 0.139089 -0.075028 0.489733
  4   2.033756 0.190472 -0.000128 0.008898 -0.001941 0.238480
  5   2.451511 0.204909 -0.003447 0.000000 -0.000005 0.296207
  6   7.247600 -0.397300 -0.109469 0.000013 -0.000015 -0.374948
  7   -2.022252 -0.104661 3.136172 -0.299262 -1.361862 -2.474912
  8   1.168026 -0.537438 -0.063437 -1.049715 0.559109 -1.000590
  9   6.790376 -0.619176 0.015206 -0.000324 -0.000352 -0.286627
 10   8.637599 0.544015 -0.090417 -1.570024 0.000362 -0.069282
 11   6.790465 -0.619039 0.017802 -0.002473 -0.010969 -0.215733
 12   -2.022474 -0.104699 -2.873818 0.298777 1.361712 -2.475553
 13   1.167898 -0.537463 0.063297 0.640941 -0.674015 -0.872760
 14   7.002743 -0.617765 -0.183752 0.000229 0.000421 -0.687601
 15   8.209042 0.615527 -0.255885 1.570090 -0.000063 -0.069646
 16   7.002735 -0.617911 -0.183641 0.014486 0.003928 -0.499927
 17   1.574674 0.609930 -0.000899 -0.043748 0.114272 0.552301
 18   -0.602177 0.511412 -0.000006 0.000000 0.000000 0.000000
 19   3.665960 0.313743 1.146658 -0.000002 -0.000014 -0.174510
 20   3.665954 0.313716 -1.090221 0.000007 -0.000003 -0.174546
 21   2.887637 1.322821 1.553437 0.000002 -0.000011 -0.000026
 22   -0.226528 -0.754099 0.477457 0.000194 -0.057459 0.890061
 23   2.907186 1.318940 -1.588113 0.000019 0.000002 -0.000024
 24   -0.078176 -0.558764 -0.547762 0.000187 -0.057484 0.890104
 25   3.956959 2.091091 1.523858 0.102271 -0.029427 -0.168396
 26   3.906194 2.137995 -1.516125 -0.141144 -0.028485 -0.183628
 27   3.289473 1.455197 1.514501 -0.000019 -0.000022 -0.000050
 28   3.291903 1.454803 -1.501142 -0.000002 -0.000009 -0.000024
 29   8.824059 0.150544 0.091743 -0.036088 0.001170 0.309694
 30   2.111085 -0.561179 1.784320 -0.000008 -0.000682 0.000024
 31   2.121290 -0.561289 -1.853599 0.000000 0.000000 -0.000002
 32   -0.810489 -0.093824 3.127092 0.002681 -3.090133 -0.825713
 33   14.298673 -0.408176 0.475484 -0.000040 -0.000054 -1.314624
 34   15.835795 0.581398 0.242756 -0.120697 -0.036288 0.488608
 35   -0.815868 -0.091229 -3.114430 0.218993 2.927639 -0.521309
 36   14.294526 -0.410349 -0.463635 -0.000555 0.000216 -1.339579
 37   15.834409 0.579420 -0.284600 -0.061219 0.070659 0.784347
 38   1.139685 -3.461562 -2.780843 0.089522 -0.050142 0.939512
 39   -4.457742 -1.054854 -0.746180 0.000000 0.000000 0.000000
 40   1.594678 -4.098227 3.206039 0.089522 -0.050154 0.939450
 41   -4.433840 -1.059130 0.959566 -0.000001 0.000000 0.000000
 42   0.401158 2.658269 -2.762835 0.071764 -0.071094 -0.355981
 43   -0.093738 2.460320 2.658433 0.062933 -0.114279 -0.348537
time 14
  0   0.255147 -3.296976 -6.488108 0.000000 0.000000 -1.571449
  1   -1.093036 0.000002 -0.326057 -1.571071 -1.570379 0.000264
  2   2.262337 0.113614 0.064702 -0.069586 0.001894 0.026696
  3   2.380047 0.353302 0.047440 0.168836 -0.091231 0.489243
  4   2.033756 0.190472 -0.000128 0.042242 -0.010403 0.243772
  5   2.451511 0.204909 -0.003447 0.000000 -0.000005 0.305048
  6   7.247600 -0.397300 -0.109469 0.000013 -0.000015 -0.374948
  7   -2.022252 -0.104661 3.136172 -0.299262 -1.361891 -2.474912
  8   1.168026 -0.537438 -0.063437 -1.010418 0.526455 -1.029753
  9   6.790376 -0.619176 0.015206 -0.000324 -0.000352 -0.286627
 10   8.637599 0.544015 -0.090417 -1.570024 0.000362 -0.069282
 11   6.790465 -0.619039 0.017802 -0.002473 -0.010969 -0.215733
 12   -2.022474 -0.104699 -2.873818 0.298777 1.361712 -2.475553
 13   1.167898 -0.537463 0.063297 0.516521 -0.689830 -0.854963
 14   7.002743 -0.617765 -0.183752 0.000229 0.000421 -0.687601
 15   8.209042 0.615527 -0.255885 1.570090 -0.000063 -0.069646
 16   7.002735 -0.617911 -0.183641 0.014486 0.003928 -0.499927
 17   1.574674 0.609930 -0.000899 -0.029450 0.141560 0.816276
 18   -0.602177 0.511412 -0.000006 0.000000 0.000000 0.000000
 19   3.665960 0.313743 1.146658 -0.000002 -0.000014 -0.174510
 20   3.665954 0.313716 -1.090221 0.000007 -0.000003 -0.174546
 21   2.887637 1.322821 1.553437 0.000002 -0.000011 -0.000026
 22   -0.226528 -0.754099 0.477457 0.000194 -0.057459 0.890061
 23   2.907186 1.318940 -1.588113 0.000019 0.000002 -0.000024
 24   -0.078176 -0.558764 -0.547762 0.000187 -0.057484 0.890104
 25   3.956959 2.091091 1.523858 0.102271 -0.029427 -0.168396
 26   3.906194 2.137995 -1.516125 -0.141144 -0.028485 -0.183628
 27   3.289473 1.455197 1.514501 -0.000019 -0.000022 -0.000050
 28   3.291903 1.454803 -1.501142 -0.000002 -0.000009 -0.000024
 29   8.824059 0.150544 0.091743 -0.059437 -0.008682 0.299179
 30   2.111085 -0.561179 1.784320 -0.000008 -0.000682 0.000024
 31   2.121290 -0.561289 -1.853599 0.000000 0.000000 -0.000002
 32   -0.810489 -0.093824 3.127092 -0.012046 -3.069218 -0.837325
 33   14.298673 -0.408176 0.475484 -0.000040 -0.000042 -1.378778
 34   15.835795 0.581398 0.242756 -0.094958 -0.039192 0.540120
 35   -0.815868 -0.091229 -3.114430 0.181411 2.953872 -0.521912
 36   14.294526 -0.410349 -0.463635 -0.000567 0.000096 -1.517240
 37   15.834409 0.579420 -0.284600 -0.037084 0.059601 0.637565
 38   1.057651 -3.328745 -2.761311 0.139829 -0.077449 1.072637
 39   -4.457742 -1.054854 -0.746180 0.000000 0.000000 0.000000
 40   1.688431 -4.231043 3.186507 0.139829 -0.077448 1.072575
 41   -4.433840 -1.059130 0.959566 -0.000001 0.000000 0.000000
 42   0.401158 2.650456 -2.747210 0.074149 -0.061450 -0.352970
 43   -0.066393 2.436882 2.615463 0.059847 -0.130033 -0.340215
time 15
  0   0.255147 -3.371197 -10.062436 0.149930 0.205457 -1.330532
  1   -1.093036 0.000002 -0.326057 -1.569761 -1.570379 -0.000123
  2   2.262337 0.113614 0.064702 -0.069586 0.001894 0.026696
  3   2.380047 0.353302 0.047440 0.169616 -0.091506 0.489182
  4   2.033756 0.190472 -0.000128 0.061312 -0.015089 0.243482
  5   2.451511 0.204909 -0.003447 0.008867 -0.002668 0.305048
  6   7.247600 -0.397300 -0.109469 0.000013 -0.000015 -0.374948
  7   -2.022252 -0.104661 3.136172 -0.299262 -1.361862 -2.474912
  8   1.168026 -0.537438 -0.063437 -0.994218 0.523184 -1.047213
  9   6.790376 -0.619176 0.015206 -0.000324 -0.000352 -0.286627
 10   8.637599 0.544015 -0.090417 -1.570024 0.000362 -0.069282
 11   6.790465 -0.619039 0.017802 -0.002473 -0.010969 -0.215733
 12   -2.022474 -0.104699 -2.873818 -0.189455 1.366705 -2.953110
 13   1.167898 -0.537463 0.063297 0.492058 -0.563410 -0.694788
 14   7.002743 -0.617765 -0.183752 0.000229 0.000421 -0.726626
 15   8.209042 0.615527 -0.255885 1.570090 -0.000063 -0.069646
 16   7.002735 -0.617911 -0.183641 0.014439 0.004154 -0.527247
 17   1.574674 0.609930 -0.000899 -0.022869 0.050253 0.832687
 18   -0.602177 0.511412 -0.000006 0.000000 0.000000 0.000000
 19   3.665960 0.313743 1.146658 -0.000002 -0.000014 -0.174510
 20   3.665954 0.313716 -1.090221 0.000007 -0.000003 -0.174546
 21   2.887637 1.322821 1.553437 0.000002 -0.000011 -0.000026
 22   -0.226528 -0.754099 0.477457 0.000194 -0.057459 0.890061
 23   2.907186 1.318940 -1.588113 0.000019 0.000002 -0.000024
 24   -0.078176 -0.558764 -0.547762 0.000187 -0.057484 0.890104
 25   3.956959 2.091091 1.523858 0.102271 -0.029427 -0.168396
 26   3.906194 2.137995 -1.516125 -0.141144 -0.028485 -0.183628
 27   3.289473 1.455197 1.514501 -0.000019 -0.000022 -0.000050
 28   3.291903 1.454803 -1.501142 -0.000002 -0.000009 -0.000024
 29   8.824059 0.150544 0.091743 -0.086887 -0.020646 0.286357
 30   2.111085 -0.561179 1.784320 -0.000008 -0.000682 0.000024
 31   2.121290 -0.561289 -1.853599 0.000000 0.000000 -0.000002
 32   -0.810489 -0.093824 3.127092 -0.112432 -3.158610 -1.185916
 33   14.298673 -0.408176 0.475484 -0.000040 -0.000029 -1.569333
 34   15.835795 0.581398 0.242756 0.101662 -0.043658 0.588368
 35   -0.815868 -0.091229 -3.114430 0.057046 2.931387 -0.816114
 36   14.294526 -0.410349 -0.463635 -0.000555 -0.000144 -1.873258
 37   15.834409 0.579420 -0.284600 0.227637 0.161804 0.641216
 38   1.022494 -3.274056 -2.753498 0.180496 -0.100707 1.128416
 39   -4.457742 -1.054854 -0.746180 0.000000 0.000000 0.000000
 40   1.727495 -4.293545 3.178694 0.180496 -0.100706 1.128477
 41   -4.433840 -1.059130 0.959566 -0.000001 0.000000 0.000000
 42   0.401158 2.646550 -2.727678 0.076857 -0.049767 -0.349332
 43   -0.042955 2.417350 2.564680 0.056086 -0.148047 -0.330136
time 16
  0   0.255147 -3.414167 -13.648483 0.324298 0.346992 -1.086289
  1   -1.093036 0.000002 -0.326057 -1.570495 -1.570379 -0.001236
  2   2.262337 0.113614 0.064702 -0.069586 0.000959 0.026696
  3   2.380047 0.353302 0.047440 0.168656 -0.091147 0.489243
  4   2.033756 0.190472 -0.000128 0.075826 -0.017977 0.243192
  5   2.451511 0.204909 -0.003447 0.016535 -0.005031 0.304974
  6   7.247600 -0.397300 -0.109469 0.000013 -0.000015 -0.374948
  7   -2.022252 -0.104661 3.136172 -0.307698 -1.361343 -2.465896
  8   1.168026 -0.537438 -0.063437 -0.982005 0.520216 -1.060118
  9   6.790376 -0.619176 0.015206 -0.000324 -0.000352 -0.286627
 10   8.637599 0.544015 -0.090417 -1.568263 -0.005903 -0.068631
 11   6.790465 -0.619039 0.017802 -0.002473 -0.010969 -0.215733
 12   -2.022474 -0.104699 -2.873818 2.472448 1.823657 -0.278965
 13   1.167898 -0.537463 0.063297 0.500002 -0.418530 -0.518329
 14   7.002743 -0.617765 -0.183752 0.000229 0.000421 -0.772829
 15   8.209042 0.615527 -0.255885 1.570090 -0.000063 -0.069646
 16   7.002735 -0.617911 -0.183641 0.014439 0.004323 -0.559535
 17   1.574674 0.609930 -0.000899 -0.010399 -0.090021 0.767562
 18   -0.602177 0.511412 -0.000006 0.000000 0.000000 0.000000
 19   3.665960 0.313743 1.146658 -0.000002 -0.000014 -0.174510
 20   3.665954 0.313716 -1.090221 0.000007 -0.000003 -0.174546
 21   2.887637 1.322821 1.553437 0.000002 -0.000011 -0.000026
 22   -0.226528 -0.754099 0.477457 0.000194 -0.057459 0.890061
 23   2.907186 1.318940 -1.588113 0.000019 0.000002 -0.000024
 24   -0.078176 -0.558764 -0.547762 0.000187 -0.057484 0.890104
 25   3.956959 2.091091 1.523858 0.102271 -0.029427 -0.168396
 26   3.906194 2.137995 -1.516125 -0.141144 -0.028485 -0.183628
 27   3.289473 1.455197 1.514501 -0.000019 -0.000022 -0.000050
 28   3.291903 1.454803 -1.501142 -0.000002 -0.000009 -0.000024
 29   8.824059 0.150544 0.091743 -0.117811 -0.034414 0.271711
 30   2.111085 -0.561179 1.784320 -0.000008 -0.000682 0.000024
 31   2.121290 -0.561289 -1.853599 0.000000 0.000000 -0.000002
 32   -0.810489 -0.093824 3.127092 -2.769732 -6.204062 1.656604
 33   14.298673 -0.408176 0.475484 -0.000040 -0.000042 -1.553136
 34   15.835795 0.581398 0.242756 -0.154809 0.466697 0.162072
 35   -0.815868 -0.091229 -3.114430 0.152454 3.363106 -1.137211
 36   14.294526 -0.410349 -0.463635 -0.000543 -0.000168 -1.887162
 37   15.834409 0.579420 -0.284600 -0.351769 0.238641 0.206599
 38   1.026400 -3.274056 -2.753498 0.210701 -0.119036 1.110149
 39   -4.457742 -1.054854 -0.746180 0.000000 0.000000 0.000000
 40   1.711869 -4.281826 3.178694 0.210701 -0.119035 1.110087
 41   -4.433840 -1.059130 0.959566 -0.000001 0.000000 0.000000
 42   0.397252 2.638737 -2.700333 0.079865 -0.036382 -0.345150
 43   -0.031236 2.386099 2.509991 0.051788 -0.167943 -0.318551
time 17
  0   0.255147 -3.414167 -17.160309 0.540854 0.441230 -0.803572
  1   -1.093036 0.000002 -0.326057 -1.570914 -1.570379 0.000361
  2   2.262337 0.113614 0.064702 -0.069586 -0.001246 0.026895
  3   2.380047 0.353302 0.047440 0.167576 -0.090560 0.489345
  4   2.033756 0.190472 -0.000128 0.090875 -0.019619 0.243192
  5   2.451511 0.204909 -0.003447 0.024546 -0.007551 0.304974
  6   7.247600 -0.397300 -0.109469 0.000013 -0.000015 -0.374948
  7   -2.022252 -0.104661 3.136172 -0.329745 -1.359989 -2.444577
  8   1.168026 -0.537438 -0.063437 -0.968020 0.515335 -1.072327
  9   6.790376 -0.619176 0.015206 -0.000324 -0.000352 -0.286627
 10   8.637599 0.544015 -0.090417 -1.562362 -0.020896 -0.066605
 11   6.790465 -0.619039 0.017802 -0.002473 -0.010969 -0.215733
 12   -2.022474 -0.104699 -2.873818 2.197482 1.903386 -0.542923
 13   1.167898 -0.537463 0.063297 0.508507 -0.350437 -0.389814
 14   7.002743 -0.617765 -0.183752 0.000229 0.000421 -0.821590
 15   8.209042 0.615527 -0.255885 1.570090 -0.000063 -0.069646
 16   7.002735 -0.617911 -0.183641 0.014392 0.004605 -0.593865
 17   1.574674 0.609930 -0.000899 0.015679 -0.248589 0.645073
 18   -0.602177 0.511412 -0.000006 0.000000 0.000000 0.000000
 19   3.665960 0.313743 1.146658 -0.000002 -0.000014 -0.174510
 20   3.665954 0.313716 -1.090221 0.000007 -0.000003 -0.174546
 21   2.887637 1.322821 1.553437 0.000002 -0.000011 -0.000026
 22   -0.226528 -0.754099 0.477457 0.000194 -0.057459 0.890061
 23   2.907186 1.318940 -1.588113 0.000019 0.000002 -0.000024
 24   -0.078176 -0.558764 -0.547762 0.000187 -0.057484 0.890104
 25   3.956959 2.091091 1.523858 0.102271 -0.029427 -0.168396
 26   3.906194 2.137995 -1.516125 -0.141144 -0.028485 -0.183628
 27   3.289473 1.455197 1.514501 -0.000019 -0.000022 -0.000050
 28   3.291903 1.454803 -1.501142 -0.000002 -0.000009 -0.000024
 29   8.824059 0.150544 0.091743 -0.151499 -0.049654 0.255563
 30   2.111085 -0.561179 1.784320 -0.000008 -0.000682 0.000024
 31   2.121290 -0.561289 -1.853599 0.000000 0.000000 -0.000002
 32   -0.810489 -0.093824 3.127092 -2.760690 0.021599 1.746768
 33   14.298673 -0.408176 0.475484 -0.000040 -0.000042 -1.493270
 34   15.835795 0.581398 0.242756 -0.201894 0.451884 0.086304
 35   -0.815868 -0.091229 -3.114430 0.130010 3.452017 -1.072575
 36   14.294526 -0.410349 -0.463635 -0.000555 -0.000108 -1.808914
 37   15.834409 0.579420 -0.284600 -0.355886 0.204676 0.136377
 38   1.045932 -3.285775 -2.761311 0.237160 -0.135075 1.058463
 39   -4.457742 -1.054854 -0.746180 0.000000 0.000000 0.000000
 40   1.676712 -4.250575 3.186507 0.237160 -0.135062 1.058463
 41   -4.433840 -1.059130 0.959566 -0.000001 0.000000 0.000000
 42   0.397252 2.627018 -2.680801 0.083113 -0.021540 -0.340507
 43   -0.011704 2.354848 2.455302 0.047028 -0.189378 -0.305712
time 18
  0   0.255147 -3.414167 -20.453379 0.761621 0.472880 -0.527981
  1   -1.093036 0.000002 -0.326057 -1.530878 -1.570703 -0.062156
  2   2.262337 0.113614 0.064702 -0.069586 -0.004206 0.027040
  3   2.380047 0.353302 0.047440 0.166451 -0.089841 0.489447
  4   2.033756 0.190472 -0.000128 0.106109 -0.020649 0.243192
  5   2.451511 0.204909 -0.003447 0.032659 -0.010280 0.304875
  6   7.247600 -0.397300 -0.109469 0.000013 -0.000015 -0.374948
  7   -2.022252 -0.104661 3.136172 -0.356489 -1.357884 -2.418470
  8   1.168026 -0.537438 -0.063437 -0.953592 0.509650 -1.084030
  9   6.790376 -0.619176 0.015206 -0.000324 -0.000352 -0.286627
 10   8.637599 0.544015 -0.090417 -1.555758 -0.039972 -0.064073
 11   6.790465 -0.619039 0.017802 -0.002473 -0.010969 -0.215733
 12   -2.022474 -0.104699 -2.873818 2.055496 1.980909 -0.674950
 13   1.167898 -0.537463 0.063297 0.483342 -0.484486 -0.406582
 14   7.002743 -0.617765 -0.183752 0.000229 0.000421 -0.875301
 15   8.209042 0.615527 -0.255885 1.570090 -0.000063 -0.069646
 16   7.002735 -0.617911 -0.183641 0.014345 0.004887 -0.631396
 17   1.574674 0.609930 -0.000899 0.063855 -0.400838 0.486880
 18   -0.602177 0.511412 -0.000006 0.000000 0.000000 0.000000
 19   3.665960 0.313743 1.146658 -0.000002 -0.000014 -0.174510
 20   3.665954 0.313716 -1.090221 0.000007 -0.000003 -0.174546
 21   2.887637 1.322821 1.553437 0.000002 -0.000011 -0.000026
 22   -0.226528 -0.754099 0.477457 0.000194 -0.057459 0.890061
 23   2.907186 1.318940 -1.588113 0.000019 0.000002 -0.000024
 24   -0.078176 -0.558764 -0.547762 0.000187 -0.057484 0.890104
 25   3.956959 2.091091 1.523858 0.102271 -0.029427 -0.168396
 26   3.906194 2.137995 -1.516125 -0.141144 -0.028485 -0.183628
 27   3.289473 1.455197 1.514501 -0.000019 -0.000022 -0.000050
 28   3.291903 1.454803 -1.501142 -0.000002 -0.000009 -0.000024
 29   8.824059 0.150544 0.091743 -0.187415 -0.065985 0.238073
 30   2.111085 -0.561179 1.784320 -0.000008 -0.000682 0.000024
 31   2.121290 -0.561289 -1.853599 0.000000 0.000000 -0.000002
 32   -0.810489 -0.093824 3.127092 -2.778027 -0.044777 1.859816
 33   14.298673 -0.408176 0.475484 -0.000040 -0.000042 -1.429434
 34   15.835795 0.581398 0.242756 -0.239203 0.410300 0.032940
 35   -0.815868 -0.091229 -3.114430 0.091724 3.529966 -0.981263
 36   14.294526 -0.410349 -0.463635 -0.000567 -0.000036 -1.722014
 37   15.834409 0.579420 -0.284600 -0.331318 0.161752 0.076599
 38   1.077183 -3.297494 -2.761311 0.260082 -0.148969 0.978185
 39   -4.457742 -1.054854 -0.746180 0.000000 0.000000 0.000000
 40   1.625929 -4.199792 3.186507 0.260082 -0.148981 0.978123
 41   -4.433840 -1.059130 0.959566 -0.000001 0.000000 0.000000
 42   0.397252 2.619205 -2.649550 0.086529 -0.005625 -0.335531
 43   0.000015 2.323597 2.392800 0.041893 -0.211911 -0.291953
time 19
  0   0.255147 -3.414167 -23.523785 0.937392 0.459011 -0.315278
  1   -1.093036 0.000002 -0.326057 -1.572276 -1.570379 -0.006365
  2   2.262337 0.113614 0.064702 -0.069586 -0.006675 0.027256
  3   2.380047 0.353302 0.047440 0.165221 -0.089133 0.489590
  4   2.033756 0.190472 -0.000128 0.121029 -0.022052 0.243192
  5   2.451511 0.204909 -0.003447 0.040653 -0.012760 0.304726
  6   7.247600 -0.397300 -0.109469 0.000013 -0.000015 -0.374948
  7   -2.022252 -0.104661 3.136172 -0.379975 -1.355982 -2.395367
  8   1.168026 -0.537438 -0.063437 -0.940303 0.504467 -1.096050
  9   6.790376 -0.619176 0.015206 -0.000324 -0.000352 -0.286627
 10   8.637599 0.544015 -0.090417 -1.549505 -0.057077 -0.061758
 11   6.790465 -0.619039 0.017802 -0.002473 -0.010969 -0.215733
 12   -2.022474 -0.104699 -2.873818 -1.175406 1.085956 -3.897213
 13   1.167898 -0.537463 0.063297 0.527416 -0.672235 -0.492178
 14   7.002743 -0.617765 -0.183752 0.000229 0.000421 -0.931982
 15   8.209042 0.615527 -0.255885 1.570090 -0.000063 -0.069646
 16   7.002735 -0.617911 -0.183641 0.014298 0.005225 -0.670969
 17   1.574674 0.609930 -0.000899 0.128157 -0.524095 0.320148
 18   -0.602177 0.511412 -0.000006 0.000000 0.000000 0.000000
 19   3.665960 0.313743 1.146658 -0.000002 -0.000014 -0.174510
 20   3.665954 0.313716 -1.090221 0.000007 -0.000003 -0.174546
 21   2.887637 1.322821 1.553437 0.000002 -0.000011 -0.000026
 22   -0.226528 -0.754099 0.477457 0.000194 -0.057459 0.890061
 23   2.907186 1.318940 -1.588113 0.000019 0.000002 -0.000024
 24   -0.078176 -0.558764 -0.547762 0.000187 -0.057484 0.890104
 25   3.956959 2.091091 1.523858 0.102271 -0.029427 -0.168396
 26   3.906194 2.137995 -1.516125 -0.141144 -0.028485 -0.183628
 27   3.289473 1.455197 1.514501 -0.000019 -0.000022 -0.000050
 28   3.291903 1.454803 -1.501142 -0.000002 -0.000009 -0.000024
 29   8.824059 0.150544 0.091743 -0.224845 -0.083172 0.219779
 30   2.111085 -0.561179 1.784320 -0.000008 -0.000682 0.000024
 31   2.121290 -0.561289 -1.853599 0.000000 0.000000 -0.000002
 32   -0.810489 -0.093824 3.127092 0.320897 -3.028819 -1.150396
 33   14.298673 -0.408176 0.475484 -0.000040 -0.000042 -1.362819
 34   15.835795 0.581398 0.242756 -0.261399 0.348583 -0.000314
 35   -0.815868 -0.091229 -3.114430 0.036891 3.592925 -0.867001
 36   14.294526 -0.410349 -0.463635 -0.000567 0.000024 -1.629862
 37   15.834409 0.579420 -0.284600 -0.283599 0.114350 0.024325
 38   1.108434 -3.317026 -2.761311 0.279742 -0.160887 0.874019
 39   -4.457742 -1.054854 -0.746180 0.000000 0.000000 0.000000
 40   1.559521 -4.145103 3.186507 0.279742 -0.160899 0.873957
 41   -4.433840 -1.059130 0.959566 -0.000001 0.000000 0.000000
 42   0.397252 2.607486 -2.626112 0.090040 0.011057 -0.330345
 43   0.011734 2.288440 2.330298 0.036533 -0.235165 -0.277525
time 20
  0   0.255147 -3.433699 -26.309025 1.011036 0.441408 -0.225884
  1   -1.093036 0.000002 -0.326057 -1.572171 -1.570379 0.005490
  2   2.262337 0.113614 0.064702 -0.069586 -0.008173 0.027347
  3   2.380047 0.353302 0.047440 0.164036 -0.088510 0.489692
  4   2.033756 0.190472 -0.000128 0.135211 -0.024293 0.243047
  5   2.451511 0.204909 -0.003447 0.048270 -0.015097 0.304726
  6   7.247600 -0.397300 -0.109469 0.000013 -0.000015 -0.374948
  7   -2.022252 -0.104661 3.136172 -0.393874 -1.354915 -2.381843
  8   1.168026 -0.537438 -0.063437 -0.928343 0.500845 -1.108575
  9   6.790376 -0.619176 0.015206 -0.000324 -0.000352 -0.286627
 10   8.637599 0.544015 -0.090417 -1.546335 -0.066650 -0.060456
 11   6.790465 -0.619039 0.017802 -0.002473 -0.010969 -0.215733
 12   -2.022474 -0.104699 -2.873818 -1.243046 1.007795 -3.955998
 13   1.167898 -0.537463 0.063297 0.675807 -0.768347 -0.568331
 14   7.002743 -0.617765 -0.183752 0.000229 0.000421 -0.988416
 15   8.209042 0.615527 -0.255885 1.570090 -0.000063 -0.069646
 16   7.002735 -0.617911 -0.183641 0.014250 0.005507 -0.710487
 17   1.574674 0.609930 -0.000899 0.184253 -0.602527 0.186239
 18   -0.602177 0.511412 -0.000006 0.000000 0.000000 0.000000
 19   3.665960 0.313743 1.146658 -0.000002 -0.000014 -0.174510
 20   3.665954 0.313716 -1.090221 0.000007 -0.000003 -0.174546
 21   2.887637 1.322821 1.553437 0.000002 -0.000011 -0.000026
 22   -0.226528 -0.754099 0.477457 0.000194 -0.057459 0.890061
 23   2.907186 1.318940 -1.588113 0.000019 0.000002 -0.000024
 24   -0.078176 -0.558764 -0.547762 0.000187 -0.057484 0.890104
 25   3.956959 2.091091 1.523858 0.102271 -0.029427 -0.168396
 26   3.906194 2.137995 -1.516125 -0.141144 -0.028485 -0.183628
 27   3.289473 1.455197 1.514501 -0.000019 -0.000022 -0.000050
 28   3.291903 1.454803 -1.501142 -0.000002 -0.000009 -0.000024
 29   8.824059 0.150544 0.091743 -0.263078 -0.100809 0.201003
 30   2.111085 -0.561179 1.784320 -0.000008 -0.000682 0.000024
 31   2.121290 -0.561289 -1.853599 0.000000 0.000000 -0.000002
 32   -0.810489 -0.093824 3.127092 0.255837 -2.965691 -1.004676
 33   14.298673 -0.408176 0.475484 -0.000040 -0.000054 -1.295648
 34   15.835795 0.581398 0.242756 -0.266437 0.273493 -0.016632
 35   -0.815868 -0.091229 -3.114430 -0.031936 3.640238 -0.735922
 36   14.294526 -0.410349 -0.463635 -0.000567 0.000084 -1.535470
 37   15.834409 0.579420 -0.284600 -0.218680 0.066666 -0.024704
 38   1.147498 -3.340464 -2.761311 0.296371 -0.170998 0.750669
 39   -4.457742 -1.054854 -0.746180 0.000000 0.000000 0.000000
 40   1.477487 -4.074788 3.186507 0.296371 -0.170997 0.750668
 41   -4.433840 -1.059130 0.959566 -0.000001 0.000000 0.000000
 42   0.389439 2.603580 -2.594861 0.093624 0.028229 -0.324950
 43   0.023453 2.257189 2.267796 0.030998 -0.258797 -0.262678
time 21
  0   0.255147 -3.476669 -28.855978 1.015742 0.440341 -0.231679
  1   -1.093036 0.000002 -0.326057 -1.571805 -1.570379 0.002829
  2   2.262337 0.113614 0.064702 -0.069586 -0.007837 0.027329
  3   2.380047 0.353302 0.047440 0.162956 -0.088055 0.489733
  4   2.033756 0.190472 -0.000128 0.148213 -0.027876 0.242576
  5   2.451511 0.204909 -0.003447 0.055219 -0.017395 0.304602
  6   7.247600 -0.397300 -0.109469 0.000013 -0.000015 -0.374948
  7   -2.022252 -0.104661 3.136172 -0.390040 -1.355146 -2.385412
  8   1.168026 -0.537438 -0.063437 -0.918851 0.500291 -1.122050
  9   6.790376 -0.619176 0.015206 -0.000324 -0.000352 -0.286627
 10   8.637599 0.544015 -0.090417 -1.546863 -0.063975 -0.060890
 11   6.790465 -0.619039 0.017802 -0.002473 -0.010969 -0.215733
 12   -2.022474 -0.104699 -2.873818 -1.295740 0.928734 -3.998985
 13   1.167898 -0.537463 0.063297 0.885495 -0.831608 -0.682681
 14   7.002743 -0.617765 -0.183752 0.000229 0.000421 -1.045922
 15   8.209042 0.615527 -0.255885 1.570090 -0.000063 -0.069646
 16   7.002735 -0.617911 -0.183641 0.014203 0.005789 -0.750833
 17   1.574674 0.609930 -0.000899 0.194774 -0.627921 0.139779
 18   -0.602177 0.511412 -0.000006 0.000000 0.000000 0.000000
 19   3.665960 0.313743 1.146658 -0.000002 -0.000014 -0.174510
 20   3.665954 0.313716 -1.090221 0.000007 -0.000003 -0.174546
 21   2.887637 1.322821 1.553437 0.000002 -0.000011 -0.000026
 22   -0.226528 -0.754099 0.477457 0.000194 -0.057459 0.890061
 23   2.907186 1.318940 -1.588113 0.000019 0.000002 -0.000024
 24   -0.078176 -0.558764 -0.547762 0.000187 -0.057484 0.890104
 25   3.956959 2.091091 1.523858 0.102271 -0.029427 -0.168396
 26   3.906194 2.137995 -1.516125 -0.141144 -0.028485 -0.183628
 27   3.289473 1.455197 1.514501 -0.000019 -0.000022 -0.000050
 28   3.291903 1.454803 -1.501142 -0.000002 -0.000009 -0.000024
 29   8.824059 0.150544 0.091743 -0.301489 -0.118589 0.182065
 30   2.111085 -0.561179 1.784320 -0.000008 -0.000682 0.000024
 31   2.121290 -0.561289 -1.853599 0.000000 0.000000 -0.000002
 32   -0.810489 -0.093824 3.127092 0.173720 -2.914882 -0.849791
 33   14.298673 -0.408176 0.475484 -0.000040 -0.000054 -1.228636
 34   15.835795 0.581398 0.242756 -0.254821 0.192131 -0.023379
 35   -0.815868 -0.091229 -3.114430 -0.109125 3.670218 -0.595586
 36   14.294526 -0.410349 -0.463635 -0.000567 0.000144 -1.441927
 37   15.834409 0.579420 -0.284600 -0.142964 0.022591 -0.071806
 38   1.202187 -3.367809 -2.765217 0.310242 -0.179409 0.613145
 39   -4.457742 -1.054854 -0.746180 0.000000 0.000000 0.000000
 40   1.383734 -3.988848 3.186507 0.310263 -0.179396 0.613206
 41   -4.433840 -1.059130 0.959566 -0.000001 0.000000 0.000000
 42   0.389439 2.591861 -2.563610 0.097171 0.045570 -0.319555
 43   0.031266 2.225938 2.205294 0.025438 -0.282381 -0.247665
time 22
  0   0.255147 -3.574328 -30.840414 1.039602 0.442386 -0.252294
  1   -1.093036 0.000002 -0.326057 -1.571700 -1.570379 0.005587
  2   2.262337 0.113614 0.064702 -0.069586 -0.004709 0.027076
  3   2.380047 0.353302 0.047440 0.161936 -0.087504 0.489896
  4   2.033756 0.190472 -0.000128 0.159740 -0.033593 0.241706
  5   2.451511 0.204909 -0.003447 0.061364 -0.019223 0.304404
  6   7.247600 -0.397300 -0.109469 0.000013 -0.000015 -0.374948
  7   -2.022252 -0.104661 3.136172 -0.361282 -1.357538 -2.413586
  8   1.168026 -0.537438 -0.063437 -0.913029 0.504467 -1.136283
  9   6.790376 -0.619176 0.015206 -0.000324 -0.000352 -0.286627
 10   8.637599 0.544015 -0.090417 -1.554437 -0.043421 -0.063784
 11   6.790465 -0.619039 0.017802 -0.002473 -0.010969 -0.215733
 12   -2.022474 -0.104699 -2.873818 -1.337416 0.850427 -4.031442
 13   1.167898 -0.537463 0.063297 1.099892 -0.843966 -0.788072
 14   7.002743 -0.617765 -0.183752 0.000229 0.000250 -1.101201
 15   8.209042 0.615527 -0.255885 1.570090 -0.000063 -0.069646
 16   7.002735 -0.617911 -0.183641 0.014156 0.006071 -0.789523
 17   1.574674 0.609930 -0.000899 -0.060321 -0.193090 0.483258
 18   -0.602177 0.511412 -0.000006 0.000000 0.000000 0.000000
 19   3.665960 0.313743 1.146658 -0.000002 -0.000014 -0.174510
 20   3.665954 0.313716 -1.090221 0.000007 -0.000003 -0.174546
 21   2.887637 1.322821 1.553437 0.000002 -0.000011 -0.000026
 22   -0.226528 -0.754099 0.477457 0.000194 -0.057459 0.890061
 23   2.907186 1.318940 -1.588113 0.000019 0.000002 -0.000024
 24   -0.078176 -0.558764 -0.547762 0.000187 -0.057484 0.890104
 25   3.956959 2.091091 1.523858 0.102271 -0.029427 -0.168396
 26   3.906194 2.137995 -1.516125 -0.141144 -0.028485 -0.183628
 27   3.289473 1.455197 1.514501 -0.000019 -0.000022 -0.000050
 28   3.291903 1.454803 -1.501142 -0.000002 -0.000009 -0.000024
 29   8.824059 0.150544 0.091743 -0.339365 -0.136274 0.163234
 30   2.111085 -0.561179 1.784320 -0.000008 -0.000682 0.000024
 31   2.121290 -0.561289 -1.853599 0.000000 0.000000 -0.000002
 32   -0.810489 -0.093824 3.127092 0.081723 -2.879068 -0.693369
 33   14.298673 -0.408176 0.475484 -0.000040 -0.000054 -1.163609
 34   15.835795 0.581398 0.242756 -0.229381 0.111306 -0.028098
 35   -0.815868 -0.091229 -3.114430 -0.189130 3.684459 -0.455469
 36   14.294526 -0.410349 -0.463635 -0.000555 0.000204 -1.352942
 37   15.834409 0.579420 -0.284600 -0.063209 -0.014906 -0.117894
 38   1.252970 -3.391247 -2.773030 0.321630 -0.186302 0.466091
 39   -4.457742 -1.054854 -0.746180 0.000000 0.000000 0.000000
 40   1.286075 -3.902908 3.186507 0.321630 -0.186289 0.466029
 41   -4.433840 -1.059130 0.959566 -0.000001 0.000000 0.000000
 42   0.389439 2.584048 -2.532359 0.100695 0.062742 -0.314202
 43   0.035172 2.190781 2.142792 0.019916 -0.305526 -0.232818
time 23
  0   0.247334 -3.890744 -30.426338 1.132400 0.443275 -0.266258
  1   -1.093036 0.000002 -0.326057 -1.570914 -1.570379 0.014103
  2   2.262337 0.113614 0.064702 -0.069586 0.001894 0.026696
  3   2.380047 0.353302 0.047440 0.161201 -0.086964 0.489937
  4   2.033756 0.190472 -0.000128 0.169256 -0.042018 0.240256
  5   2.451511 0.204909 -0.003447 0.066499 -0.020907 0.304305
  6   7.247600 -0.397300 -0.109469 0.000013 -0.000015 -0.374948
  7   -2.022252 -0.104661 3.136172 -0.299262 -1.361891 -2.474912
  8   1.168026 -0.537438 -0.063437 -0.911447 0.514681 -1.151972
  9   6.790376 -0.619176 0.015206 -0.000324 -0.000352 -0.286627
 10   8.637599 0.544015 -0.090417 -1.570024 0.000362 -0.069282
 11   6.790465 -0.619039 0.017802 -0.002473 -0.010969 -0.215733
 12   -2.022474 -0.104699 -2.873818 -1.370565 0.774529 -4.055377
 13   1.167898 -0.537463 0.063297 1.246666 -0.814522 -0.820458
 14   7.002743 -0.617765 -0.183752 0.000229 0.000421 -1.150044
 15   8.209042 0.615527 -0.255885 1.570090 -0.000063 -0.069646
 16   7.002735 -0.617911 -0.183641 0.014109 0.006353 -0.823577
 17   1.574674 0.609930 -0.000899 -0.156266 0.288318 0.788777
 18   -0.602177 0.511412 -0.000006 0.000000 0.000000 0.000000
 19   3.665960 0.313743 1.146658 -0.000002 -0.000014 -0.174510
 20   3.665954 0.313716 -1.090221 0.000007 -0.000003 -0.174546
 21   2.887637 1.322821 1.553437 0.000002 -0.000011 -0.000026
 22   -0.226528 -0.754099 0.477457 0.000194 -0.057459 0.890061
 23   2.907186 1.318940 -1.588113 0.000019 0.000002 -0.000024
 24   -0.078176 -0.558764 -0.547762 0.000187 -0.057484 0.890104
 25   3.956959 2.091091 1.523858 0.102271 -0.029427 -0.168396
 26   3.906194 2.137995 -1.516125 -0.141144 -0.028485 -0.183628
 27   3.289473 1.455197 1.514501 -0.000019 -0.000022 -0.000050
 28   3.291903 1.454803 -1.501142 -0.000002 -0.000009 -0.000024
 29   8.824059 0.150544 0.091743 -0.376083 -0.153412 0.144940
 30   2.111085 -0.561179 1.784320 -0.000008 -0.000682 0.000024
 31   2.121290 -0.561289 -1.853599 0.000000 0.000000 -0.000002
 32   -0.810489 -0.093824 3.127092 -0.011300 -2.859203 -0.544802
 33   14.298673 -0.408176 0.475484 -0.000040 -0.000067 -1.102552
 34   15.835795 0.581398 0.242756 -0.194878 0.037680 -0.037228
 35   -0.815868 -0.091229 -3.114430 -0.265703 3.686332 -0.324390
 36   14.294526 -0.410349 -0.463635 -0.000555 0.000252 -1.270986
 37   15.834409 0.579420 -0.284600 0.013000 -0.043727 -0.162664
 38   1.307659 -3.414685 -2.773030 0.330702 -0.191821 0.314210
 39   -4.457742 -1.054854 -0.746180 0.000000 0.000000 0.000000
 40   1.188416 -3.816968 3.190413 0.330702 -0.191808 0.314148
 41   -4.433840 -1.059130 0.959566 -0.000001 0.000000 0.000000
 42   0.389439 2.572329 -2.501108 0.104062 0.079454 -0.308974
 43   0.042985 2.151717 2.080290 0.014531 -0.327902 -0.218390
time 24
  0   0.247334 -4.375134 -27.973139 1.244930 0.451632 -0.294283
  1   -1.093036 0.000002 -0.326057 -1.572171 -1.570379 -0.005591
  2   2.262337 0.113614 0.064702 -0.069535 0.015545 0.025684
  3   2.380047 0.353302 0.047440 0.160766 -0.086773 0.489998
  4   2.033756 0.190472 -0.000128 0.174660 -0.055680 0.237900
  5   2.451511 0.204909 -0.003447 0.069272 -0.021847 0.304305
  6   7.247600 -0.397300 -0.109469 0.000013 -0.000015 -0.374948
  7   -2.022252 -0.104661 3.136172 -0.163431 -1.368146 -2.608175
  8   1.168026 -0.537438 -0.063437 -0.919800 0.537021 -1.170001
  9   6.790376 -0.619176 0.015206 -0.000324 -0.000352 -0.286627
 10   8.637599 0.544015 -0.090417 -1.603929 0.089547 -0.084040
 11   6.790465 -0.619039 0.017802 -0.002473 -0.010969 -0.215733
 12   -2.022474 -0.104699 -2.873818 -1.397104 0.704843 -4.073376
 13   1.167898 -0.537463 0.063297 1.157182 -0.707578 -0.556587
 14   7.002743 -0.617765 -0.183752 0.000229 0.000421 -1.182881
 15   8.209042 0.615527 -0.255885 1.570090 -0.000063 -0.069646
 16   7.002735 -0.617911 -0.183641 0.014062 0.006522 -0.846758
 17   1.574674 0.609930 -0.000899 -0.159800 0.047768 0.905981
 18   -0.602177 0.511412 -0.000006 0.000000 0.000000 0.000000
 19   3.665960 0.313743 1.146658 -0.000002 -0.000014 -0.174510
 20   3.665954 0.313716 -1.090221 0.000007 -0.000003 -0.174546
 21   2.887637 1.322821 1.553437 0.000002 -0.000011 -0.000026
 22   -0.226528 -0.754099 0.477457 0.000194 -0.057459 0.890061
 23   2.907186 1.318940 -1.588113 0.000019 0.000002 -0.000024
 24   -0.078176 -0.558764 -0.547762 0.000187 -0.057484 0.890104
 25   3.956959 2.091091 1.523858 0.102271 -0.029427 -0.168396
 26   3.906194 2.137995 -1.516125 -0.141144 -0.028485 -0.183628
 27   3.289473 1.455197 1.514501 -0.000019 -0.000022 -0.000050
 28   3.291903 1.454803 -1.501142 -0.000002 -0.000009 -0.000024
 29   8.824059 0.150544 0.091743 -0.411018 -0.169768 0.127505
 30   2.111085 -0.561179 1.784320 -0.000008 -0.000682 0.000024
 31   2.121290 -0.561289 -1.853599 0.000000 0.000000 -0.000002
 32   -0.810489 -0.093824 3.127092 -0.095002 -2.851945 -0.413369
 33   14.298673 -0.408176 0.475484 -0.000040 -0.000067 -1.046735
 34   15.835795 0.581398 0.242756 -0.157799 -0.022695 -0.055045
 35   -0.815868 -0.091229 -3.114430 -0.334178 3.680899 -0.210237
 36   14.294526 -0.410349 -0.463635 -0.000543 0.000287 -1.199767
 37   15.834409 0.579420 -0.284600 0.078589 -0.063896 -0.206014
 38   1.358442 -3.445936 -2.773030 0.337817 -0.196111 0.162268
 39   -4.457742 -1.054854 -0.746180 0.000000 0.000000 0.000000
 40   1.098569 -3.731028 3.190413 0.337817 -0.196098 0.162267
 41   -4.433840 -1.059130 0.959566 -0.000001 0.000000 0.000000
 42   0.389439 2.564516 -2.469857 0.107262 0.095369 -0.303998
 43   0.042985 2.120466 2.025601 0.009421 -0.349069 -0.204631
time 25
  0   0.247334 -4.730613 -26.719194 1.312217 0.459011 -0.315278
  1   -1.093036 0.000002 -0.326057 -1.570442 -1.570379 -0.001526
  2   2.262337 0.113614 0.064702 -0.069586 0.036901 0.024166
  3   2.380047 0.353302 0.047440 0.160736 -0.086761 0.489998
  4   2.033756 0.190472 -0.000128 0.175545 -0.075599 0.234493
  5   2.451511 0.204909 -0.003447 0.069700 -0.021978 0.304206
  6   7.247600 -0.397300 -0.109469 0.000025 -0.000027 -0.374948
  7   -2.022252 -0.104661 3.136172 0.060493 -1.370395 -2.827745
  8   1.168026 -0.537438 -0.063437 -0.940746 0.572241 -1.191763
  9   6.790376 -0.619176 0.015206 -0.000324 -0.000352 -0.286627
 10   8.637599 0.544015 -0.090417 -1.659938 0.229835 -0.114063
 11   6.790465 -0.619039 0.017802 -0.002473 -0.010969 -0.215733
 12   -2.022474 -0.104699 -2.873818 -1.415498 0.649843 -4.085057
 13   1.167898 -0.537463 0.063297 1.088153 -0.596820 -0.337209
 14   7.002743 -0.617765 -0.183752 0.000229 0.000421 -1.198557
 15   8.209042 0.615527 -0.255885 1.570090 -0.000063 -0.069646
 16   7.002735 -0.617911 -0.183641 0.014062 0.006635 -0.857631
 17   1.574674 0.609930 -0.000899 -0.185715 -0.406589 0.978055
 18   -0.602177 0.511412 -0.000006 0.000000 0.000000 0.000000
 19   3.665960 0.313743 1.146658 -0.000002 -0.000014 -0.174510
 20   3.665954 0.313716 -1.090221 0.000007 -0.000003 -0.174546
 21   2.887637 1.322821 1.553437 0.000002 -0.000011 -0.000026
 22   -0.226528 -0.754099 0.477457 0.000194 -0.057459 0.890061
 23   2.907186 1.318940 -1.588113 0.000019 0.000002 -0.000024
 24   -0.078176 -0.558764 -0.547762 0.000187 -0.057484 0.890104
 25   3.956959 2.091091 1.523858 0.102271 -0.029427 -0.168396
 26   3.906194 2.137995 -1.516125 -0.141144 -0.028485 -0.183628
 27   3.289473 1.455197 1.514501 -0.000019 -0.000022 -0.000050
 28   3.291903 1.454803 -1.501142 -0.000002 -0.000009 -0.000024
 29   8.824059 0.150544 0.091743 -0.443458 -0.185008 0.111357
 30   2.111085 -0.561179 1.784320 -0.000008 -0.000682 0.000024
 31   2.121290 -0.561289 -1.853599 0.000000 0.000000 -0.000002
 32   -0.810489 -0.093824 3.127092 -0.161460 -2.850608 -0.307835
 33   14.298673 -0.408176 0.475484 -0.000040 -0.000067 -0.997905
 34   15.835795 0.581398 0.242756 -0.126378 -0.065255 -0.082168
 35   -0.815868 -0.091229 -3.114430 -0.392268 3.674434 -0.119747
 36   14.294526 -0.410349 -0.463635 -0.000531 0.000311 -1.141911
 37   15.834409 0.579420 -0.284600 0.125717 -0.075619 -0.247184
 38   1.413131 -3.461562 -2.780843 0.343142 -0.199328 0.015214
 39   -4.457742 -1.054854 -0.746180 0.000000 0.000000 0.000000
 40   1.000910 -3.641181 3.198226 0.343142 -0.199340 0.015213
 41   -4.433840 -1.059130 0.959566 -0.000001 0.000000 0.000000
 42   0.389439 2.552797 -2.446419 0.110222 0.110211 -0.299397
 43   0.050798 2.089215 1.970912 0.004648 -0.368684 -0.191833
time 26
  0   0.247334 -4.800928 -28.133301 1.298842 0.460700 -0.319458
  1   -1.093036 0.000002 -0.326057 -1.570652 -1.570379 -0.015365
  2   2.262337 0.113614 0.064702 -0.069637 0.063016 0.022377
  3   2.380047 0.353302 0.047440 0.160901 -0.086820 0.489998
  4   2.033756 0.190472 -0.000128 0.173867 -0.098789 0.230397
  5   2.451511 0.204909 -0.003447 0.068553 -0.021455 0.304305
  6   7.247600 -0.397300 -0.109469 0.000013 -0.000015 -0.374948
  7   -2.022252 -0.104661 3.136172 -2.818889 -1.781084 0.058218
  8   1.168026 -0.537438 -0.063437 -0.972323 0.614203 -1.218522
  9   6.790376 -0.619176 0.015206 -0.000324 -0.000352 -0.286627
 10   8.637599 0.544015 -0.090417 -1.738140 0.395956 -0.162389
 11   6.790465 -0.619039 0.017802 -0.002473 -0.010969 -0.215733
 12   -2.022474 -0.104699 -2.873818 -1.426995 0.612663 -4.092046
 13   1.167898 -0.537463 0.063297 1.197249 -0.603940 -0.427769
 14   7.002743 -0.617765 -0.183752 0.000229 0.000421 -1.201445
 15   8.209042 0.615527 -0.255885 1.570090 -0.000063 -0.069646
 16   7.002735 -0.617911 -0.183641 0.014062 0.006635 -0.859673
 17   1.574674 0.609930 -0.000899 -0.207853 -0.634950 1.012687
 18   -0.602177 0.511412 -0.000006 0.000000 0.000000 0.000000
 19   3.665960 0.313743 1.146658 -0.000002 -0.000014 -0.174510
 20   3.665954 0.313716 -1.090221 0.000007 -0.000003 -0.174546
 21   2.887637 1.322821 1.553437 0.000002 -0.000011 -0.000026
 22   -0.226528 -0.754099 0.477457 0.000194 -0.057459 0.890061
 23   2.907186 1.318940 -1.588113 0.000019 0.000002 -0.000024
 24   -0.078176 -0.558764 -0.547762 0.000187 -0.057484 0.890104
 25   3.956959 2.091091 1.523858 0.102271 -0.029427 -0.168396
 26   3.906194 2.137995 -1.516125 -0.141144 -0.028485 -0.183628
 27   3.289473 1.455197 1.514501 -0.000019 -0.000022 -0.000050
 28   3.291903 1.454803 -1.501142 -0.000002 -0.000009 -0.000024
 29   8.824059 0.150544 0.091743 -0.472690 -0.198752 0.096711
 30   2.111085 -0.561179 1.784320 -0.000008 -0.000682 0.000024
 31   2.121290 -0.561289 -1.853599 0.000000 0.000000 -0.000002
 32   -0.810489 -0.093824 3.127092 -0.202845 -2.850608 -0.252165
 33   14.298673 -0.408176 0.475484 -0.000040 -0.000067 -0.963605
 34   15.835795 0.581398 0.242756 -0.106459 -0.080654 -0.110570
 35   -0.815868 -0.091229 -3.114430 -0.428178 3.664597 -0.074721
 36   14.294526 -0.410349 -0.463635 -0.000519 0.000335 -1.113640
 37   15.834409 0.579420 -0.284600 0.142129 -0.074672 -0.270152
 38   1.467820 -3.485000 -2.784749 0.346952 -0.201642 -0.122249
 39   -4.457742 -1.054854 -0.746180 0.000000 0.000000 0.000000
 40   0.907157 -3.563054 3.198226 0.346952 -0.201654 -0.122250
 41   -4.433840 -1.059130 0.959566 -0.000001 0.000000 0.000000
 42   0.389439 2.548891 -2.415168 0.112907 0.123596 -0.295215
 43   0.054704 2.065777 1.927942 0.000350 -0.386321 -0.180249
time 27
  0   0.247334 -4.750145 -30.688065 1.240389 0.459544 -0.317368
  1   -1.093036 0.000002 -0.326057 -1.571543 -1.570379 0.005877
  2   2.262337 0.113614 0.064702 -0.069777 0.089969 0.020444
  3   2.380047 0.353302 0.047440 0.161111 -0.086940 0.489998
  4   2.033756 0.190472 -0.000128 0.171672 -0.122830 0.226301
  5   2.451511 0.204909 -0.003447 0.067218 -0.021168 0.304305
  6   7.247600 -0.397300 -0.109469 0.000013 -0.000015 -0.374948
  7   -2.022252 -0.104661 3.136172 -2.585858 -1.804721 -0.168959
  8   1.168026 -0.537438 -0.063437 -1.010924 0.656618 -1.249393
  9   6.790376 -0.619176 0.015206 -0.000324 -0.000352 -0.286627
 10   8.637599 0.544015 -0.090417 -1.837389 0.564471 -0.234444
 11   6.790465 -0.619039 0.017802 -0.002473 -0.010969 -0.215733
 12   -2.022474 -0.104699 -2.873818 -1.435905 0.584016 -4.096641
 13   1.167898 -0.537463 0.063297 1.368978 -0.620009 -0.628200
 14   7.002743 -0.617765 -0.183752 0.000229 0.000421 -1.197567
 15   8.209042 0.615527 -0.255885 1.570090 -0.000063 -0.069646
 16   7.002735 -0.617911 -0.183641 0.014062 0.006635 -0.856858
 17   1.574674 0.609930 -0.000899 -0.172961 -0.222461 0.928342
 18   -0.602177 0.511412 -0.000006 0.000000 0.000000 0.000000
 19   3.665960 0.313743 1.146658 -0.000002 -0.000014 -0.174510
 20   3.665954 0.313716 -1.090221 0.000007 -0.000003 -0.174546
 21   2.887637 1.322821 1.553437 0.000002 -0.000011 -0.000026
 22   -0.226528 -0.754099 0.477457 0.000194 -0.057459 0.890061
 23   2.907186 1.318940 -1.588113 0.000019 0.000002 -0.000024
 24   -0.078176 -0.558764 -0.547762 0.000187 -0.057484 0.890104
 25   3.956959 2.091091 1.523858 0.102271 -0.029427 -0.168396
 26   3.906194 2.137995 -1.516125 -0.141144 -0.028485 -0.183628
 27   3.289473 1.455197 1.514501 -0.000019 -0.000022 -0.000050
 28   3.291903 1.454803 -1.501142 -0.000002 -0.000009 -0.000024
 29   8.824059 0.150544 0.091743 -0.498089 -0.210740 0.083889
 30   2.111085 -0.561179 1.784320 -0.000008 -0.000682 0.000024
 31   2.121290 -0.561289 -1.853599 0.000000 0.000000 -0.000002
 32   -0.810489 -0.093824 3.127092 -0.220648 -2.849462 -0.249490
 33   14.298673 -0.408176 0.475484 -0.000040 -0.000067 -0.946058
 34   15.835795 0.581398 0.242756 -0.096913 -0.070380 -0.132136
 35   -0.815868 -0.091229 -3.114430 -0.437771 3.648670 -0.080089
 36   14.294526 -0.410349 -0.463635 -0.000519 0.000323 -1.118429
 37   15.834409 0.579420 -0.284600 0.129165 -0.060825 -0.266096
 38   1.506884 -3.508438 -2.784749 0.349520 -0.203209 -0.245538
 39   -4.457742 -1.054854 -0.746180 0.000000 0.000000 0.000000
 40   0.825123 -3.488833 3.198226 0.349520 -0.203196 -0.245539
 41   -4.433840 -1.059130 0.959566 -0.000001 0.000000 0.000000
 42   0.385533 2.541078 -2.395636 0.115220 0.135279 -0.291577
 43   0.054704 2.038432 1.881065 -0.003386 -0.401604 -0.170128
time 28
  0   0.247334 -4.687643 -33.242832 1.181771 0.459011 -0.315278
  1   -1.093036 0.000002 -0.326057 -1.569813 -1.570379 0.003361
  2   2.262337 0.113614 0.064702 -0.070070 0.114813 0.018709
  3   2.380047 0.353302 0.047440 0.161201 -0.086976 0.489937
  4   2.033756 0.190472 -0.000128 0.170842 -0.145037 0.222459
  5   2.451511 0.204909 -0.003447 0.066499 -0.020907 0.304305
  6   7.247600 -0.397300 -0.109469 0.000013 -0.000015 -0.374948
  7   -2.022252 -0.104661 3.136172 -2.415614 -1.835162 -0.333777
  8   1.168026 -0.537438 -0.063437 -1.050854 0.694404 -1.282162
  9   6.790376 -0.619176 0.015206 -0.000324 -0.000352 -0.286627
 10   8.637599 0.544015 -0.090417 -1.953899 0.711798 -0.327768
 11   6.790465 -0.619039 0.017802 -0.002473 -0.010969 -0.215733
 12   -2.022474 -0.104699 -2.873818 -1.444145 0.555428 -4.101333
 13   1.167898 -0.537463 0.063297 1.540706 -0.600126 -0.827238
 14   7.002743 -0.617765 -0.183752 0.000229 0.000421 -1.193607
 15   8.209042 0.615527 -0.255885 1.570090 -0.000063 -0.069646
 16   7.002735 -0.617911 -0.183641 0.014062 0.006635 -0.854099
 17   1.574674 0.609930 -0.000899 -0.198673 0.444495 0.798424
 18   -0.602177 0.511412 -0.000006 0.000000 0.000000 0.000000
 19   3.665960 0.313743 1.146658 -0.000002 -0.000014 -0.174510
 20   3.665954 0.313716 -1.090221 0.000007 -0.000003 -0.174546
 21   2.887637 1.322821 1.553437 0.000002 -0.000011 -0.000026
 22   -0.226528 -0.754099 0.477457 0.000194 -0.057459 0.890061
 23   2.907186 1.318940 -1.588113 0.000019 0.000002 -0.000024
 24   -0.078176 -0.558764 -0.547762 0.000187 -0.057484 0.890104
 25   3.956959 2.091091 1.523858 0.102271 -0.029427 -0.168396
 26   3.906194 2.137995 -1.516125 -0.141144 -0.028485 -0.183628
 27   3.289473 1.455197 1.514501 -0.000019 -0.000022 -0.000050
 28   3.291903 1.454803 -1.501142 -0.000002 -0.000009 -0.000024
 29   8.824059 0.150544 0.091743 -0.519032 -0.220615 0.073374
 30   2.111085 -0.561179 1.784320 -0.000008 -0.000682 0.000024
 31   2.121290 -0.561289 -1.853599 0.000000 0.000000 -0.000002
 32   -0.810489 -0.093824 3.127092 -0.225495 -2.846978 -0.276528
 33   14.298673 -0.408176 0.475484 -0.000040 -0.000067 -0.938039
 34   15.835795 0.581398 0.242756 -0.093440 -0.045781 -0.149116
 35   -0.815868 -0.091229 -3.114430 -0.433459 3.629370 -0.113612
 36   14.294526 -0.410349 -0.463635 -0.000531 0.000311 -1.141988
 37   15.834409 0.579420 -0.284600 0.099434 -0.039555 -0.247032
 38   1.549854 -3.527970 -2.784749 0.351035 -0.204149 -0.349704
 39   -4.457742 -1.054854 -0.746180 0.000000 0.000000 0.000000
 40   0.758715 -3.438050 3.198226 0.351035 -0.204136 -0.349705
 41   -4.433840 -1.059130 0.959566 -0.000001 0.000000 0.000000
 42   0.385533 2.533265 -2.376104 0.117101 0.144908 -0.288566
 43   0.054704 2.022807 1.853721 -0.006472 -0.414189 -0.161848
time 29
  0   0.247334 -4.687643 -33.242832 1.181771 0.459011 -0.315278
  1   -1.093036 0.000002 -0.326057 -1.569813 -1.570379 0.003361
  2   2.262337 0.113614 0.064702 -0.070070 0.114813 0.018709
  3   2.380047 0.353302 0.047440 0.161201 -0.086976 0.489937
  4   2.033756 0.190472 -0.000128 0.170842 -0.145037 0.222459
  5   2.451511 0.204909 -0.003447 0.066499 -0.020907 0.304305
  6   7.247600 -0.397300 -0.109469 0.000013 -0.000015 -0.374948
  7   -2.022252 -0.104661 3.136172 -2.415614 -1.835162 -0.333777
  8   1.168026 -0.537438 -0.063437 -1.050854 0.694404 -1.282162
  9   6.790376 -0.619176 0.015206 -0.000324 -0.000352 -0.286627
 10   8.637599 0.544015 -0.090417 -1.953899 0.711798 -0.327768
 11   6.790465 -0.619039 0.017802 -0.002473 -0.010969 -0.215733
 12   -2.022474 -0.104699 -2.873818 -1.444145 0.555428 -4.101333
 13   1.167898 -0.537463 0.063297 1.540706 -0.600126 -0.827238
 14   7.002743 -0.617765 -0.183752 0.000229 0.000421 -1.193607
 15   8.209042 0.615527 -0.255885 1.570090 -0.000063 -0.069646
 16   7.002735 -0.617911 -0.183641 0.014062 0.006635 -0.854099
 17   1.574674 0.609930 -0.000899 -0.198673 0.444495 0.798424
 18   -0.602177 0.511412 -0.000006 0.000000 0.000000 0.000000
 19   3.665960 0.313743 1.146658 -0.000002 -0.000014 -0.174510
 20   3.665954 0.313716 -1.090221 0.000007 -0.000003 -0.174546
 21   2.887637 1.322821 1.553437 0.000002 -0.000011 -0.000026
 22   -0.226528 -0.754099 0.477457 0.000194 -0.057459 0.890061
 23   2.907186 1.318940 -1.588113 0.000019 0.000002 -0.000024
 24   -0.078176 -0.558764 -0.547762 0.000187 -0.057484 0.890104
 25   3.956959 2.091091 1.523858 0.102271 -0.029427 -0.168396
 26   3.906194 2.137995 -1.516125 -0.141144 -0.028485 -0.183628
 27   3.289473 1.455197 1.514501 -0.000019 -0.000022 -0.000050
 28   3.291903 1.454803 -1.501142 -0.000002 -0.000009 -0.000024
 29   8.824059 0.150544 0.091743 -0.534807 -0.228068 0.065434
 30   2.111085 -0.561179 1.784320 -0.000008 -0.000682 0.000024
 31   2.121290 -0.561289 -1.853599 0.000000 0.000000 -0.000002
 32   -0.810489 -0.093824 3.127092 -0.226893 -2.844113 -0.311592
 33   14.298673 -0.408176 0.475484 -0.000040 -0.000067 -0.932481
 34   15.835795 0.581398 0.242756 -0.090978 -0.017668 -0.165169
 35   -0.815868 -0.091229 -3.114430 -0.426593 3.609226 -0.153379
 36   14.294526 -0.410349 -0.463635 -0.000531 0.000299 -1.170646
 37   15.834409 0.579420 -0.284600 0.065822 -0.016365 -0.225281
 38   1.573292 -3.539689 -2.784749 0.351835 -0.204631 -0.429982
 39   -4.457742 -1.054854 -0.746180 0.000000 0.000000 0.000000
 40   0.700119 -3.387267 3.198226 0.351835 -0.204618 -0.429983
 41   -4.433840 -1.059130 0.959566 -0.000001 0.000000 0.000000
 42   0.385533 2.529359 -2.364385 0.118552 0.152160 -0.286307
 43   0.054704 2.003275 1.822470 -0.008796 -0.423619 -0.155533
time 30
  0   0.247334 -4.687643 -33.242832 1.181771 0.459011 -0.315278
  1   -1.093036 0.000002 -0.326057 -1.569813 -1.570379 0.003361
  2   2.262337 0.113614 0.064702 -0.070070 0.114813 0.018709
  3   2.380047 0.353302 0.047440 0.161201 -0.086976 0.489937
  4   2.033756 0.190472 -0.000128 0.170842 -0.145037 0.222459
  5   2.451511 0.204909 -0.003447 0.066499 -0.020907 0.304305
  6   7.247600 -0.397300 -0.109469 0.000013 -0.000015 -0.374948
  7   -2.022252 -0.104661 3.136172 -2.415614 -1.835162 -0.333777
  8   1.168026 -0.537438 -0.063437 -1.050854 0.694404 -1.282162
  9   6.790376 -0.619176 0.015206 -0.000324 -0.000352 -0.286627
 10   8.637599 0.544015 -0.090417 -1.953899 0.711798 -0.327768
 11   6.790465 -0.619039 0.017802 -0.002473 -0.010969 -0.215733
 12   -2.022474 -0.104699 -2.873818 -1.444145 0.555428 -4.101333
 13   1.167898 -0.537463 0.063297 1.540706 -0.600126 -0.827238
 14   7.002743 -0.617765 -0.183752 0.000229 0.000421 -1.193607
 15   8.209042 0.615527 -0.255885 1.570090 -0.000063 -0.069646
 16   7.002735 -0.617911 -0.183641 0.014062 0.006635 -0.854099
 17   1.574674 0.609930 -0.000899 -0.198673 0.444495 0.798424
 18   -0.602177 0.511412 -0.000006 0.000000 0.000000 0.000000
 19   3.665960 0.313743 1.146658 -0.000002 -0.000014 -0.174510
 20   3.665954 0.313716 -1.090221 0.000007 -0.000003 -0.174546
 21   2.887637 1.322821 1.553437 0.000002 -0.000011 -0.000026
 22   -0.226528 -0.754099 0.477457 0.000194 -0.057459 0.890061
 23   2.907186 1.318940 -1.588113 0.000019 0.000002 -0.000024
 24   -0.078176 -0.558764 -0.547762 0.000187 -0.057484 0.890104
 25   3.956959 2.091091 1.523858 0.102271 -0.029427 -0.168396
 26   3.906194 2.137995 -1.516125 -0.141144 -0.028485 -0.183628
 27   3.289473 1.455197 1.514501 -0.000019 -0.000022 -0.000050
 28   3.291903 1.454803 -1.501142 -0.000002 -0.000009 -0.000024
 29   8.824059 0.150544 0.091743 -0.544788 -0.232816 0.060391
 30   2.111085 -0.561179 1.784320 -0.000008 -0.000682 0.000024
 31   2.121290 -0.561289 -1.853599 0.000000 0.000000 -0.000002
 32   -0.810489 -0.093824 3.127092 -0.234443 -2.841535 -0.331116
 33   14.298673 -0.408176 0.475484 -0.000040 -0.000067 -0.922159
 34   15.835795 0.581398 0.242756 -0.085573 0.003124 -0.183119
 35   -0.815868 -0.091229 -3.114430 -0.427386 3.590957 -0.179288
 36   14.294526 -0.410349 -0.463635 -0.000543 0.000287 -1.189725
 37   15.834409 0.579420 -0.284600 0.040544 0.003471 -0.211287
 38   1.592824 -3.547502 -2.784749 0.352151 -0.204799 -0.481729
 39   -4.457742 -1.054854 -0.746180 0.000000 0.000000 0.000000
 40   0.672775 -3.359922 3.198226 0.352151 -0.204811 -0.481669
 41   -4.433840 -1.059130 0.959566 -0.000001 0.000000 0.000000
 42   0.385533 2.529359 -2.360479 0.119438 0.156775 -0.284885
 43   0.054704 1.995462 1.806844 -0.010283 -0.429598 -0.151560
time 31
  0   0.247334 -4.687643 -33.242832 1.181771 0.459011 -0.315278
  1   -1.093036 0.000002 -0.326057 -1.569813 -1.570379 0.003361
  2   2.262337 0.113614 0.064702 -0.070070 0.114813 0.018709
  3   2.380047 0.353302 0.047440 0.161201 -0.086976 0.489937
  4   2.033756 0.190472 -0.000128 0.170842 -0.145037 0.222459
  5   2.451511 0.204909 -0.003447 0.066499 -0.020907 0.304305
  6   7.247600 -0.397300 -0.109469 0.000013 -0.000015 -0.374948
  7   -2.022252 -0.104661 3.136172 -2.415614 -1.835162 -0.333777
  8   1.168026 -0.537438 -0.063437 -1.050854 0.694404 -1.282162
  9   6.790376 -0.619176 0.015206 -0.000324 -0.000352 -0.286627
 10   8.637599 0.544015 -0.090417 -1.953899 0.711798 -0.327768
 11   6.790465 -0.619039 0.017802 -0.002473 -0.010969 -0.215733
 12   -2.022474 -0.104699 -2.873818 -1.444145 0.555428 -4.101333
 13   1.167898 -0.537463 0.063297 1.540706 -0.600126 -0.827238
 14   7.002743 -0.617765 -0.183752 0.000229 0.000421 -1.193607
 15   8.209042 0.615527 -0.255885 1.570090 -0.000063 -0.069646
 16   7.002735 -0.617911 -0.183641 0.014062 0.006635 -0.854099
 17   1.574674 0.609930 -0.000899 -0.198673 0.444495 0.798424
 18   -0.602177 0.511412 -0.000006 0.000000 0.000000 0.000000
 19   3.665960 0.313743 1.146658 -0.000002 -0.000014 -0.174510
 20   3.665954 0.313716 -1.090221 0.000007 -0.000003 -0.174546
 21   2.887637 1.322821 1.553437 0.000002 -0.000011 -0.000026
 22   -0.226528 -0.754099 0.477457 0.000194 -0.057459 0.890061
 23   2.907186 1.318940 -1.588113 0.000019 0.000002 -0.000024
 24   -0.078176 -0.558764 -0.547762 0.000187 -0.057484 0.890104
 25   3.956959 2.091091 1.523858 0.102271 -0.029427 -0.168396
 26   3.906194 2.137995 -1.516125 -0.141144 -0.028485 -0.183628
 27   3.289473 1.455197 1.514501 -0.000019 -0.000022 -0.000050
 28   3.291903 1.454803 -1.501142 -0.000002 -0.000009 -0.000024
 29   8.824059 0.150544 0.091743 -0.548264 -0.234454 0.058621
 30   2.111085 -0.561179 1.784320 -0.000008 -0.000682 0.000024
 31   2.121290 -0.561289 -1.853599 0.000000 0.000000 -0.000002
 32   -0.810489 -0.093824 3.127092 -0.234443 -2.841535 -0.331116
 33   14.298673 -0.408176 0.475484 -0.000040 -0.000067 -0.922159
 34   15.835795 0.581398 0.242756 -0.085573 0.003124 -0.183119
 35   -0.815868 -0.091229 -3.114430 -0.427386 3.590957 -0.179288
 36   14.294526 -0.410349 -0.463635 -0.000543 0.000287 -1.189725
 37   15.834409 0.579420 -0.284600 0.040544 0.003471 -0.211287
 38   1.604543 -3.555315 -2.784749 0.352172 -0.204836 -0.499935
 39   -4.457742 -1.054854 -0.746180 0.000000 0.000000 0.000000
 40   0.653243 -3.348203 3.198226 0.352172 -0.204823 -0.499936
 41   -4.433840 -1.059130 0.959566 -0.000001 0.000000 0.000000
 42   0.385533 2.529359 -2.352666 0.119750 0.158354 -0.284384
 43   0.054704 1.991556 1.802938 -0.010795 -0.431638 -0.150180
end
