version 1
nodes
  0 "Bip01" -1
  1 "Bip01 Pelvis" 0
  2 "Bip01 Spine" 1
  3 "Bip01 Spine1" 2
  4 "Bip01 Spine2" 3
  5 "Bip01 Spine3" 4
  6 "Bip01 Neck" 5
  7 "Bip01 L Arm" 6
  8 "Bip01 L Arm1" 7
  9 "Bip01 L Arm2" 8
 10 "Bip01 L Hand" 9
 11 "Bip06 L elbow2-smooth" 8
 12 "Bip01 R Arm" 6
 13 "Bip01 R Arm1" 12
 14 "Bip01 R Arm2" 13
 15 "Bip01 R Hand" 14
 16 "Bip06 R elbow2-smooth" 13
 17 "Bip01 Head" 6
 18 "Bip06 Head_helper" 17
 19 "Bip06 Head_eyes_l" 18
 20 "Bip06 Head_eyes_r" 18
 21 "Bip06 Head_blink_l" 18
 22 "Bip06 Head_blink_smooth_l1" 21
 23 "Bip06 Head_blink_r" 18
 24 "Bip06 Head_blink_smooth_r1" 23
 25 "Bip06 Head_L_eyebrow" 18
 26 "Bip06 Head_R_eyebrow" 18
 27 "Bip06 Head_blink_l_lid" 18
 28 "Bip06 Head_blink_r_lid" 18
 29 "Bip06 bunny" 18
 30 "Bip06 bunnyL" 29
 31 "Bip06 bunnyR" 29
 32 "Bip01 L Leg" 1
 33 "Bip01 L Leg1" 32
 34 "Bip01 L Foot" 33
 35 "Bip01 R Leg" 1
 36 "Bip01 R Leg1" 35
 37 "Bip01 R Foot" 36
 38 "Bip03 HairR1" 17
 39 "Bip03 HairR2" 38
 40 "Bip03 HairL1" 17
 41 "Bip03 HairL2" 40
 42 "Bip03 swingR" 17
 43 "Bip03 swingL" 17
end
skeleton
time 0
  0   -0.010486 -0.546892 -0.601210 0.000000 0.000000 -1.571449
  1   -1.093036 0.000002 -0.326057 -1.570809 -1.570703 0.000022
  2   2.262337 0.113614 0.064702 -0.000065 0.000049 0.142964
  3   2.380047 0.353302 0.047440 0.000000 -0.000028 0.152817
  4   2.033756 0.190472 -0.000128 -0.168022 0.048693 0.280418
  5   2.451511 0.204909 -0.003447 -0.155404 -0.001637 0.277682
  6   7.247600 -0.397300 -0.109469 -0.018755 -0.018555 0.507926
  7   -2.022252 -0.104661 3.136172 1.238875 -1.024594 -4.799365
  8   1.168026 -0.537438 -0.063437 -0.974791 0.334606 -1.107943
  9   6.790376 -0.619176 0.015206 0.054379 -0.116813 -0.454165
 10   8.637599 0.544015 -0.090417 -3.988461 0.202805 -0.503999
 11   6.790465 -0.619039 0.017802 0.031453 -0.095250 -0.332236
 12   -2.022474 -0.104699 -2.873818 -1.470492 1.765987 -5.213748
 13   1.167898 -0.537463 0.063297 0.417336 -0.737530 -0.968708
 14   7.002743 -0.617765 -0.183752 0.378375 -0.323082 -1.755056
 15   8.209042 0.615527 -0.255885 2.128057 0.441108 0.527758
 16   7.002735 -0.617911 -0.183641 0.221238 -0.293125 -1.224056
 17   1.574674 0.609930 -0.000899 0.254770 0.315535 -0.043807
 18   -0.602177 0.511412 -0.000006 0.000000 0.000000 0.000000
 19   3.673773 0.177020 1.119313 -0.000002 -0.000014 -0.174510
 20   3.673767 0.176993 -1.117566 0.000007 -0.000003 -0.174546
 21   3.942357 1.330634 1.627658 0.000002 -0.000011 -0.000026
 22   -0.246060 -0.011889 0.516521 -0.000011 0.000031 0.000025
 23   3.942374 1.330659 -1.631083 0.000019 0.000002 -0.000024
 24   -0.246150 -0.011872 -0.516511 -0.000005 -0.000006 0.000048
 25   4.941364 1.997338 1.629330 0.000018 -0.000001 -0.000024
 26   4.941382 1.997366 -1.629410 -0.000001 0.000005 -0.000024
 27   2.918368 1.615358 1.514501 -0.000019 -0.000022 -0.000050
 28   2.920798 1.614964 -1.501142 -0.000002 -0.000009 -0.000024
 29   8.824059 0.150544 0.091743 0.000006 -0.000231 -0.174534
 30   2.111085 -0.561179 1.784320 -0.000008 -0.000682 0.000024
 31   2.121290 -0.561289 -1.853599 0.000000 0.000000 -0.000002
 32   -0.810489 -0.093824 3.127092 0.564173 -3.064251 -0.563586
 33   14.298673 -0.408176 0.475484 -0.006296 -0.010019 -0.413535
 34   15.835795 0.581398 0.242756 -0.007436 -0.212263 -0.117847
 35   -0.815868 -0.091229 -3.114430 -0.120039 3.021422 -0.057357
 36   14.294526 -0.410349 -0.463635 0.000680 0.012859 -0.799488
 37   15.834409 0.579420 -0.284600 -0.169247 -0.012756 0.676454
 38   1.139685 -3.453749 -2.823813 0.000000 0.000000 0.000001
 39   -4.457742 -1.054854 -0.746180 0.000000 0.000000 0.000000
 40   1.118101 -3.449769 3.237290 0.000000 0.000001 0.000000
 41   -4.433840 -1.059130 0.959566 -0.000001 0.000000 0.000000
 42   -0.657468 1.697302 -2.688614 0.000000 0.000002 0.000000
 43   -0.664068 1.698578 2.869377 0.000000 0.000002 0.000000
time 1
  0   -0.010486 -0.546892 -0.601210 0.000000 0.000000 -1.571449
  1   -1.093036 0.000002 -0.326057 -1.570809 -1.570703 0.000022
  2   2.262337 0.113614 0.064702 -0.000065 0.000049 0.142964
  3   2.380047 0.353302 0.047440 0.000000 -0.000028 0.152817
  4   2.033756 0.190472 -0.000128 -0.310251 0.048274 0.273277
  5   2.451511 0.204909 -0.003447 -0.303756 0.001013 0.264235
  6   7.247600 -0.397300 -0.109469 -0.018755 -0.018555 0.507926
  7   -2.022252 -0.104661 3.136172 1.238875 -1.024594 -4.799365
  8   1.168026 -0.537438 -0.063437 -0.860443 0.656467 -0.616346
  9   6.790376 -0.619176 0.015206 0.053214 -0.185489 -1.272987
 10   8.637599 0.544015 -0.090417 -3.988461 0.202805 -0.503999
 11   6.790465 -0.619039 0.017802 0.014636 -0.150395 -0.902641
 12   -2.022474 -0.104699 -2.873818 -1.470492 1.765987 -5.213748
 13   1.167898 -0.537463 0.063297 0.391186 -0.822760 -1.184696
 14   7.002743 -0.617765 -0.183752 0.377180 -0.322571 -1.790121
 15   8.209042 0.615527 -0.255885 2.139130 0.437703 0.529442
 16   7.002735 -0.617911 -0.183641 0.219402 -0.294196 -1.248617
 17   1.574674 0.609930 -0.000899 0.511895 0.156399 0.036066
 18   -0.602177 0.511412 -0.000006 0.000000 0.000000 0.000000
 19   3.673773 0.177020 1.119313 -0.000002 -0.000014 -0.174510
 20   3.673767 0.176993 -1.117566 0.000007 -0.000003 -0.174546
 21   3.942357 1.330634 1.627658 0.000002 -0.000011 -0.000026
 22   -0.246060 -0.011889 0.516521 -0.000011 0.000031 0.000025
 23   3.942374 1.330659 -1.631083 0.000019 0.000002 -0.000024
 24   -0.246150 -0.011872 -0.516511 -0.000005 -0.000006 0.000048
 25   4.941364 1.997338 1.629330 0.000018 -0.000001 -0.000024
 26   4.941382 1.997366 -1.629410 -0.000001 0.000005 -0.000024
 27   2.918368 1.615358 1.514501 -0.000019 -0.000022 -0.000050
 28   2.920798 1.614964 -1.501142 -0.000002 -0.000009 -0.000024
 29   8.824059 0.150544 0.091743 0.000006 -0.000231 -0.174534
 30   2.111085 -0.561179 1.784320 -0.000008 -0.000682 0.000024
 31   2.121290 -0.561289 -1.853599 0.000000 0.000000 -0.000002
 32   -0.810489 -0.093824 3.127092 0.564173 -3.064251 -0.563586
 33   14.298673 -0.408176 0.475484 -0.006296 -0.010019 -0.413535
 34   15.835795 0.581398 0.242756 -0.007436 -0.212263 -0.117847
 35   -0.815868 -0.091229 -3.114430 -0.120039 3.021422 -0.057357
 36   14.294526 -0.410349 -0.463635 0.000680 0.012859 -0.799488
 37   15.834409 0.579420 -0.284600 -0.169247 -0.012756 0.676454
 38   1.139685 -3.453749 -2.823813 0.000000 0.000000 0.000001
 39   -4.457742 -1.054854 -0.746180 0.000000 0.000000 0.000000
 40   1.118101 -3.449769 3.237290 0.000000 0.000001 0.000000
 41   -4.433840 -1.059130 0.959566 -0.000001 0.000000 0.000000
 42   -0.657468 1.697302 -2.688614 0.000000 0.000002 0.000000
 43   -0.664068 1.698578 2.869377 0.000000 0.000002 0.000000
time 2
  0   -0.010486 -0.546892 -0.601210 0.000000 0.000000 -1.571449
  1   -1.093036 0.000002 -0.326057 -1.570809 -1.570703 0.000022
  2   2.262337 0.113614 0.064702 -0.000065 0.000049 0.142964
  3   2.380047 0.353302 0.047440 0.000000 -0.000028 0.152817
  4   2.033756 0.190472 -0.000128 -0.299702 0.048310 0.273785
  5   2.451511 0.204909 -0.003447 -0.292767 0.000844 0.265275
  6   7.247600 -0.397300 -0.109469 -0.018755 -0.018555 0.507926
  7   -2.022252 -0.104661 3.136172 1.238875 -1.024594 -4.799365
  8   1.168026 -0.537438 -0.063437 -0.871074 0.640215 -0.649621
  9   6.790376 -0.619176 0.015206 0.052992 -0.184221 -1.232385
 10   8.637599 0.544015 -0.090417 -3.988461 0.202805 -0.503999
 11   6.790465 -0.619039 0.017802 0.015220 -0.149059 -0.874265
 12   -2.022474 -0.104699 -2.873818 -1.470492 1.765987 -5.213748
 13   1.167898 -0.537463 0.063297 0.391889 -0.817878 -1.168654
 14   7.002743 -0.617765 -0.183752 0.377237 -0.322571 -1.789708
 15   8.209042 0.615527 -0.255885 2.139130 0.437703 0.529442
 16   7.002735 -0.617911 -0.183641 0.219402 -0.294196 -1.248175
 17   1.574674 0.609930 -0.000899 0.492885 0.168137 0.030152
 18   -0.602177 0.511412 -0.000006 0.000000 0.000000 0.000000
 19   3.673773 0.177020 1.119313 -0.000002 -0.000014 -0.174510
 20   3.673767 0.176993 -1.117566 0.000007 -0.000003 -0.174546
 21   3.942357 1.330634 1.627658 0.000002 -0.000011 -0.000026
 22   -0.246060 -0.011889 0.516521 -0.000011 0.000031 0.000025
 23   3.942374 1.330659 -1.631083 0.000019 0.000002 -0.000024
 24   -0.246150 -0.011872 -0.516511 -0.000005 -0.000006 0.000048
 25   4.941364 1.997338 1.629330 0.000018 -0.000001 -0.000024
 26   4.941382 1.997366 -1.629410 -0.000001 0.000005 -0.000024
 27   2.918368 1.615358 1.514501 -0.000019 -0.000022 -0.000050
 28   2.920798 1.614964 -1.501142 -0.000002 -0.000009 -0.000024
 29   8.824059 0.150544 0.091743 0.000006 -0.000231 -0.174534
 30   2.111085 -0.561179 1.784320 -0.000008 -0.000682 0.000024
 31   2.121290 -0.561289 -1.853599 0.000000 0.000000 -0.000002
 32   -0.810489 -0.093824 3.127092 0.564173 -3.064251 -0.563586
 33   14.298673 -0.408176 0.475484 -0.006296 -0.010019 -0.413535
 34   15.835795 0.581398 0.242756 -0.007436 -0.212263 -0.117847
 35   -0.815868 -0.091229 -3.114430 -0.120039 3.021422 -0.057357
 36   14.294526 -0.410349 -0.463635 0.000680 0.012859 -0.799488
 37   15.834409 0.579420 -0.284600 -0.169247 -0.012756 0.676454
 38   1.139685 -3.453749 -2.823813 0.000000 0.000000 0.000001
 39   -4.457742 -1.054854 -0.746180 0.000000 0.000000 0.000000
 40   1.118101 -3.449769 3.237290 0.000000 0.000001 0.000000
 41   -4.433840 -1.059130 0.959566 -0.000001 0.000000 0.000000
 42   -0.657468 1.697302 -2.688614 0.000000 0.000002 0.000000
 43   -0.664068 1.698578 2.869377 0.000000 0.000002 0.000000
time 3
  0   -0.010486 -0.546892 -0.601210 0.000000 0.000000 -1.571449
  1   -1.093036 0.000002 -0.326057 -1.570809 -1.570703 0.000022
  2   2.262337 0.113614 0.064702 -0.000065 0.000049 0.142964
  3   2.380047 0.353302 0.047440 0.000000 -0.000028 0.152817
  4   2.033756 0.190472 -0.000128 -0.273366 0.048394 0.275126
  5   2.451511 0.204909 -0.003447 -0.265277 0.000321 0.267702
  6   7.247600 -0.397300 -0.109469 -0.018755 -0.018555 0.507926
  7   -2.022252 -0.104661 3.136172 1.238875 -1.024594 -4.799365
  8   1.168026 -0.537438 -0.063437 -0.895627 0.595939 -0.733441
  9   6.790376 -0.619176 0.015206 0.052215 -0.179683 -1.117071
 10   8.637599 0.544015 -0.090417 -3.988461 0.202805 -0.503999
 11   6.790465 -0.619039 0.017802 0.017088 -0.144596 -0.794039
 12   -2.022474 -0.104699 -2.873818 -1.470492 1.765987 -5.214036
 13   1.167898 -0.537463 0.063297 0.397583 -0.804453 -1.132333
 14   7.002743 -0.617765 -0.183752 0.377408 -0.322627 -1.782778
 15   8.209042 0.615527 -0.255885 2.139130 0.437703 0.529442
 16   7.002735 -0.617911 -0.183641 0.219778 -0.293914 -1.243484
 17   1.574674 0.609930 -0.000899 0.445197 0.197603 0.015442
 18   -0.602177 0.511412 -0.000006 0.000000 0.000000 0.000000
 19   3.673773 0.177020 1.119313 -0.000002 -0.000014 -0.174510
 20   3.673767 0.176993 -1.117566 0.000007 -0.000003 -0.174546
 21   3.942357 1.330634 1.627658 0.000002 -0.000011 -0.000026
 22   -0.246060 -0.011889 0.516521 -0.000011 0.000031 0.000025
 23   3.942374 1.330659 -1.631083 0.000019 0.000002 -0.000024
 24   -0.246150 -0.011872 -0.516511 -0.000005 -0.000006 0.000048
 25   4.941364 1.997338 1.629330 0.000018 -0.000001 -0.000024
 26   4.941382 1.997366 -1.629410 -0.000001 0.000005 -0.000024
 27   2.918368 1.615358 1.514501 -0.000019 -0.000022 -0.000050
 28   2.920798 1.614964 -1.501142 -0.000002 -0.000009 -0.000024
 29   8.824059 0.150544 0.091743 0.000006 -0.000231 -0.174534
 30   2.111085 -0.561179 1.784320 -0.000008 -0.000682 0.000024
 31   2.121290 -0.561289 -1.853599 0.000000 0.000000 -0.000002
 32   -0.810489 -0.093824 3.127092 0.564173 -3.064251 -0.563586
 33   14.298673 -0.408176 0.475484 -0.006296 -0.010019 -0.413535
 34   15.835795 0.581398 0.242756 -0.007436 -0.212263 -0.117847
 35   -0.815868 -0.091229 -3.114430 -0.120039 3.021422 -0.057357
 36   14.294526 -0.410349 -0.463635 0.000680 0.012859 -0.799488
 37   15.834409 0.579420 -0.284600 -0.169247 -0.012756 0.676454
 38   1.139685 -3.453749 -2.823813 0.000000 0.000000 0.000001
 39   -4.457742 -1.054854 -0.746180 0.000000 0.000000 0.000000
 40   1.118101 -3.449769 3.237290 0.000000 0.000001 0.000000
 41   -4.433840 -1.059130 0.959566 -0.000001 0.000000 0.000000
 42   -0.657468 1.697302 -2.688614 0.000000 0.000002 0.000000
 43   -0.664068 1.698578 2.869377 0.000000 0.000002 0.000000
time 4
  0   -0.010486 -0.546892 -0.601210 0.000000 0.000000 -1.571449
  1   -1.093036 0.000002 -0.326057 -1.570809 -1.570703 0.000022
  2   2.262337 0.113614 0.064702 -0.000065 0.000049 0.142964
  3   2.380047 0.353302 0.047440 0.000000 -0.000028 0.152817
  4   2.033756 0.190472 -0.000128 -0.239155 0.048502 0.276866
  5   2.451511 0.204909 -0.003447 -0.229623 -0.000279 0.270921
  6   7.247600 -0.397300 -0.109469 -0.018755 -0.018555 0.507926
  7   -2.022252 -0.104661 3.136172 1.238875 -1.024594 -4.799365
  8   1.168026 -0.537438 -0.063437 -0.924736 0.529524 -0.845222
  9   6.790376 -0.619176 0.015206 0.051716 -0.169138 -0.948401
 10   8.637599 0.544015 -0.090417 -3.988461 0.202805 -0.503999
 11   6.790465 -0.619039 0.017802 0.020358 -0.135699 -0.676613
 12   -2.022474 -0.104699 -2.873818 -1.470492 1.765987 -5.213748
 13   1.167898 -0.537463 0.063297 0.403207 -0.785332 -1.080818
 14   7.002743 -0.617765 -0.183752 0.377692 -0.322741 -1.775600
 15   8.209042 0.615527 -0.255885 2.139130 0.437703 0.529442
 16   7.002735 -0.617911 -0.183641 0.220155 -0.293745 -1.238406
 17   1.574674 0.609930 -0.000899 0.383332 0.235967 -0.003815
 18   -0.602177 0.511412 -0.000006 0.000000 0.000000 0.000000
 19   3.673773 0.177020 1.119313 -0.000002 -0.000014 -0.174510
 20   3.673767 0.176993 -1.117566 0.000007 -0.000003 -0.174546
 21   3.942357 1.330634 1.627658 0.000002 -0.000011 -0.000026
 22   -0.246060 -0.011889 0.516521 -0.000011 0.000031 0.000025
 23   3.942374 1.330659 -1.631083 0.000019 0.000002 -0.000024
 24   -0.246150 -0.011872 -0.516511 -0.000005 -0.000006 0.000048
 25   4.941364 1.997338 1.629330 0.000018 -0.000001 -0.000024
 26   4.941382 1.997366 -1.629410 -0.000001 0.000005 -0.000024
 27   2.918368 1.615358 1.514501 -0.000019 -0.000022 -0.000050
 28   2.920798 1.614964 -1.501142 -0.000002 -0.000009 -0.000024
 29   8.824059 0.150544 0.091743 0.000006 -0.000231 -0.174534
 30   2.111085 -0.561179 1.784320 -0.000008 -0.000682 0.000024
 31   2.121290 -0.561289 -1.853599 0.000000 0.000000 -0.000002
 32   -0.810489 -0.093824 3.127092 0.564173 -3.064251 -0.563586
 33   14.298673 -0.408176 0.475484 -0.006296 -0.010019 -0.413535
 34   15.835795 0.581398 0.242756 -0.007436 -0.212263 -0.117847
 35   -0.815868 -0.091229 -3.114430 -0.120039 3.021422 -0.057357
 36   14.294526 -0.410349 -0.463635 0.000680 0.012859 -0.799488
 37   15.834409 0.579420 -0.284600 -0.169247 -0.012756 0.676454
 38   1.139685 -3.453749 -2.823813 0.000000 0.000000 0.000001
 39   -4.457742 -1.054854 -0.746180 0.000000 0.000000 0.000000
 40   1.118101 -3.449769 3.237290 0.000000 0.000001 0.000000
 41   -4.433840 -1.059130 0.959566 -0.000001 0.000000 0.000000
 42   -0.657468 1.697302 -2.688614 0.000000 0.000002 0.000000
 43   -0.664068 1.698578 2.869377 0.000000 0.000002 0.000000
time 5
  0   -0.010486 -0.546892 -0.601210 0.000000 0.000000 -1.571449
  1   -1.093036 0.000002 -0.326057 -1.570809 -1.570703 0.000022
  2   2.262337 0.113614 0.064702 -0.000065 0.000049 0.142964
  3   2.380047 0.353302 0.047440 0.000000 -0.000028 0.152817
  4   2.033756 0.190472 -0.000128 -0.204907 0.048610 0.278569
  5   2.451511 0.204909 -0.003447 -0.193934 -0.000932 0.274141
  6   7.247600 -0.397300 -0.109469 -0.018755 -0.018555 0.507926
  7   -2.022252 -0.104661 3.136172 1.238875 -1.024594 -4.799365
  8   1.168026 -0.537438 -0.063437 -0.949542 0.452442 -0.960230
  9   6.790376 -0.619176 0.015206 0.052049 -0.152453 -0.755959
 10   8.637599 0.544015 -0.090417 -3.988461 0.202805 -0.503999
 11   6.790465 -0.619039 0.017802 0.024592 -0.122339 -0.542634
 12   -2.022474 -0.104699 -2.873818 -1.470492 1.765987 -5.213748
 13   1.167898 -0.537463 0.063297 0.406300 -0.764737 -1.024884
 14   7.002743 -0.617765 -0.183752 0.377863 -0.322798 -1.771887
 15   8.209042 0.615527 -0.255885 2.139130 0.437703 0.529442
 16   7.002735 -0.617911 -0.183641 0.220390 -0.293576 -1.235812
 17   1.574674 0.609930 -0.000899 0.321387 0.274260 -0.023109
 18   -0.602177 0.511412 -0.000006 0.000000 0.000000 0.000000
 19   3.673773 0.177020 1.119313 -0.000002 -0.000014 -0.174510
 20   3.673767 0.176993 -1.117566 0.000007 -0.000003 -0.174546
 21   3.942357 1.330634 1.627658 0.000002 -0.000011 -0.000026
 22   -0.246060 -0.011889 0.516521 -0.000011 0.000031 0.000025
 23   3.942374 1.330659 -1.631083 0.000019 0.000002 -0.000024
 24   -0.246150 -0.011872 -0.516511 -0.000005 -0.000006 0.000048
 25   4.941364 1.997338 1.629330 0.000018 -0.000001 -0.000024
 26   4.941382 1.997366 -1.629410 -0.000001 0.000005 -0.000024
 27   2.918368 1.615358 1.514501 -0.000019 -0.000022 -0.000050
 28   2.920798 1.614964 -1.501142 -0.000002 -0.000009 -0.000024
 29   8.824059 0.150544 0.091743 0.000006 -0.000231 -0.174534
 30   2.111085 -0.561179 1.784320 -0.000008 -0.000682 0.000024
 31   2.121290 -0.561289 -1.853599 0.000000 0.000000 -0.000002
 32   -0.810489 -0.093824 3.127092 0.564173 -3.064251 -0.563586
 33   14.298673 -0.408176 0.475484 -0.006296 -0.010019 -0.413535
 34   15.835795 0.581398 0.242756 -0.007436 -0.212263 -0.117847
 35   -0.815868 -0.091229 -3.114430 -0.120039 3.021422 -0.057357
 36   14.294526 -0.410349 -0.463635 0.000680 0.012859 -0.799488
 37   15.834409 0.579420 -0.284600 -0.169247 -0.012756 0.676454
 38   1.139685 -3.453749 -2.823813 0.000000 0.000000 0.000001
 39   -4.457742 -1.054854 -0.746180 0.000000 0.000000 0.000000
 40   1.118101 -3.449769 3.237290 0.000000 0.000001 0.000000
 41   -4.433840 -1.059130 0.959566 -0.000001 0.000000 0.000000
 42   -0.657468 1.697302 -2.688614 0.000000 0.000002 0.000000
 43   -0.664068 1.698578 2.869377 0.000000 0.000002 0.000000
time 6
  0   -0.010486 -0.546892 -0.601210 0.000000 0.000000 -1.571449
  1   -1.093036 0.000002 -0.326057 -1.570809 -1.570703 0.000022
  2   2.262337 0.113614 0.064702 -0.000065 0.000049 0.142964
  3   2.380047 0.353302 0.047440 0.000000 -0.000028 0.152817
  4   2.033756 0.190472 -0.000128 -0.178571 0.048670 0.279838
  5   2.451511 0.204909 -0.003447 -0.166410 -0.001402 0.276642
  6   7.247600 -0.397300 -0.109469 -0.018755 -0.018555 0.507926
  7   -2.022252 -0.104661 3.136172 1.238875 -1.024594 -4.799365
  8   1.168026 -0.537438 -0.063437 -0.966185 0.380543 -1.054994
  9   6.790376 -0.619176 0.015206 0.053103 -0.132831 -0.578988
 10   8.637599 0.544015 -0.090417 -3.988461 0.202805 -0.503999
 11   6.790465 -0.619039 0.017802 0.028650 -0.107217 -0.419210
 12   -2.022474 -0.104699 -2.873818 -1.470492 1.765987 -5.213748
 13   1.167898 -0.537463 0.063297 0.407916 -0.747243 -0.979604
 14   7.002743 -0.617765 -0.183752 0.377920 -0.322798 -1.769742
 15   8.209042 0.615527 -0.255885 2.139130 0.437703 0.529442
 16   7.002735 -0.617911 -0.183641 0.220484 -0.293576 -1.234377
 17   1.574674 0.609930 -0.000899 0.273780 0.303678 -0.037893
 18   -0.602177 0.511412 -0.000006 0.000000 0.000000 0.000000
 19   3.673773 0.177020 1.119313 -0.000002 -0.000014 -0.174510
 20   3.673767 0.176993 -1.117566 0.000007 -0.000003 -0.174546
 21   3.942357 1.330634 1.627658 0.000002 -0.000011 -0.000026
 22   -0.246060 -0.011889 0.516521 -0.000011 0.000031 0.000025
 23   3.942374 1.330659 -1.631083 0.000019 0.000002 -0.000024
 24   -0.246150 -0.011872 -0.516511 -0.000005 -0.000006 0.000048
 25   4.941364 1.997338 1.629330 0.000018 -0.000001 -0.000024
 26   4.941382 1.997366 -1.629410 -0.000001 0.000005 -0.000024
 27   2.918368 1.615358 1.514501 -0.000019 -0.000022 -0.000050
 28   2.920798 1.614964 -1.501142 -0.000002 -0.000009 -0.000024
 29   8.824059 0.150544 0.091743 0.000006 -0.000231 -0.174534
 30   2.111085 -0.561179 1.784320 -0.000008 -0.000682 0.000024
 31   2.121290 -0.561289 -1.853599 0.000000 0.000000 -0.000002
 32   -0.810489 -0.093824 3.127092 0.564173 -3.064251 -0.563586
 33   14.298673 -0.408176 0.475484 -0.006296 -0.010019 -0.413535
 34   15.835795 0.581398 0.242756 -0.007436 -0.212263 -0.117847
 35   -0.815868 -0.091229 -3.114430 -0.120039 3.021422 -0.057357
 36   14.294526 -0.410349 -0.463635 0.000680 0.012859 -0.799488
 37   15.834409 0.579420 -0.284600 -0.169247 -0.012756 0.676454
 38   1.139685 -3.453749 -2.823813 0.000000 0.000000 0.000001
 39   -4.457742 -1.054854 -0.746180 0.000000 0.000000 0.000000
 40   1.118101 -3.449769 3.237290 0.000000 0.000001 0.000000
 41   -4.433840 -1.059130 0.959566 -0.000001 0.000000 0.000000
 42   -0.657468 1.697302 -2.688614 0.000000 0.000002 0.000000
 43   -0.664068 1.698578 2.869377 0.000000 0.000002 0.000000
time 7
  0   -0.010486 -0.546892 -0.601210 0.000000 0.000000 -1.571449
  1   -1.093036 0.000002 -0.326057 -1.570809 -1.570703 0.000022
  2   2.262337 0.113614 0.064702 -0.000065 0.000049 0.142964
  3   2.380047 0.353302 0.047440 0.000000 -0.000028 0.152817
  4   2.033756 0.190472 -0.000128 -0.168022 0.048693 0.280418
  5   2.451511 0.204909 -0.003447 -0.155404 -0.001637 0.277682
  6   7.247600 -0.397300 -0.109469 -0.018755 -0.018555 0.507926
  7   -2.022252 -0.104661 3.136172 1.238875 -1.024594 -4.799365
  8   1.168026 -0.537438 -0.063437 -0.972323 0.348090 -1.094721
  9   6.790376 -0.619176 0.015206 0.053824 -0.122887 -0.499898
 10   8.637599 0.544015 -0.090417 -3.988461 0.202805 -0.503999
 11   6.790465 -0.619039 0.017802 0.030460 -0.099741 -0.364072
 12   -2.022474 -0.104699 -2.873818 -1.470492 1.765987 -5.213748
 13   1.167898 -0.537463 0.063297 0.407705 -0.740124 -0.960354
 14   7.002743 -0.617765 -0.183752 0.377920 -0.322798 -1.770237
 15   8.209042 0.615527 -0.255885 2.139130 0.437703 0.529442
 16   7.002735 -0.617911 -0.183641 0.220484 -0.293576 -1.234653
 17   1.574674 0.609930 -0.000899 0.254770 0.315535 -0.043807
 18   -0.602177 0.511412 -0.000006 0.000000 0.000000 0.000000
 19   3.673773 0.177020 1.119313 -0.000002 -0.000014 -0.174510
 20   3.673767 0.176993 -1.117566 0.000007 -0.000003 -0.174546
 21   3.942357 1.330634 1.627658 0.000002 -0.000011 -0.000026
 22   -0.246060 -0.011889 0.516521 -0.000011 0.000031 0.000025
 23   3.942374 1.330659 -1.631083 0.000019 0.000002 -0.000024
 24   -0.246150 -0.011872 -0.516511 -0.000005 -0.000006 0.000048
 25   4.941364 1.997338 1.629330 0.000018 -0.000001 -0.000024
 26   4.941382 1.997366 -1.629410 -0.000001 0.000005 -0.000024
 27   2.918368 1.615358 1.514501 -0.000019 -0.000022 -0.000050
 28   2.920798 1.614964 -1.501142 -0.000002 -0.000009 -0.000024
 29   8.824059 0.150544 0.091743 0.000006 -0.000231 -0.174534
 30   2.111085 -0.561179 1.784320 -0.000008 -0.000682 0.000024
 31   2.121290 -0.561289 -1.853599 0.000000 0.000000 -0.000002
 32   -0.810489 -0.093824 3.127092 0.564173 -3.064251 -0.563586
 33   14.298673 -0.408176 0.475484 -0.006296 -0.010019 -0.413535
 34   15.835795 0.581398 0.242756 -0.007436 -0.212263 -0.117847
 35   -0.815868 -0.091229 -3.114430 -0.120039 3.021422 -0.057357
 36   14.294526 -0.410349 -0.463635 0.000680 0.012859 -0.799488
 37   15.834409 0.579420 -0.284600 -0.169247 -0.012756 0.676454
 38   1.139685 -3.453749 -2.823813 0.000000 0.000000 0.000001
 39   -4.457742 -1.054854 -0.746180 0.000000 0.000000 0.000000
 40   1.118101 -3.449769 3.237290 0.000000 0.000001 0.000000
 41   -4.433840 -1.059130 0.959566 -0.000001 0.000000 0.000000
 42   -0.657468 1.697302 -2.688614 0.000000 0.000002 0.000000
 43   -0.664068 1.698578 2.869377 0.000000 0.000002 0.000000
end
