version 1
nodes
  0 "Bip01" -1
  1 "Bip01 Pelvis" 0
  2 "Bip01 Spine" 1
  3 "Bip01 Spine1" 2
  4 "Bip01 Spine2" 3
  5 "Bip01 Spine3" 4
  6 "Bip01 Neck" 5
  7 "Bip01 L Arm" 6
  8 "Bip01 L Arm1" 7
  9 "Bip01 L Arm2" 8
 10 "Bip01 L Hand" 9
 11 "Bip06 L elbow2-smooth" 8
 12 "Bip01 R Arm" 6
 13 "Bip01 R Arm1" 12
 14 "Bip01 R Arm2" 13
 15 "Bip01 R Hand" 14
 16 "Bip06 R elbow2-smooth" 13
 17 "Bip01 Head" 6
 18 "Bip06 Head_helper" 17
 19 "Bip06 Head_eyes_l" 18
 20 "Bip06 Head_eyes_r" 18
 21 "Bip06 Head_blink_l" 18
 22 "Bip06 Head_blink_smooth_l1" 21
 23 "Bip06 Head_blink_r" 18
 24 "Bip06 Head_blink_smooth_r1" 23
 25 "Bip06 Head_L_eyebrow" 18
 26 "Bip06 Head_R_eyebrow" 18
 27 "Bip06 Head_blink_l_lid" 18
 28 "Bip06 Head_blink_r_lid" 18
 29 "Bip06 bunny" 18
 30 "Bip06 bunnyL" 29
 31 "Bip06 bunnyR" 29
 32 "Bip01 L Leg" 1
 33 "Bip01 L Leg1" 32
 34 "Bip01 L Foot" 33
 35 "Bip01 R Leg" 1
 36 "Bip01 R Leg1" 35
 37 "Bip01 R Foot" 36
 38 "Bip03 HairR1" 17
 39 "Bip03 HairR2" 38
 40 "Bip03 HairL1" 17
 41 "Bip03 HairL2" 40
 42 "Bip03 swingR" 17
 43 "Bip03 swingL" 17
end
skeleton
time 0
  0   -0.010486 -0.546892 -0.601210 0.000000 0.000000 -1.571449
  1   -1.093036 0.000002 -0.326057 -1.570809 -1.570703 0.000022
  2   2.262337 0.113614 0.064702 -0.000014 0.000037 0.131489
  3   2.380047 0.353302 0.047440 0.000000 -0.000028 0.174447
  4   2.033756 0.190472 -0.000128 -0.166860 0.050863 0.254755
  5   2.451511 0.204909 -0.003447 -0.151399 -0.005932 0.287935
  6   7.247600 -0.397300 -0.109469 -0.005236 -0.005276 0.494432
  7   -2.022252 -0.104661 3.136172 1.238875 -1.024594 -4.799459
  8   1.168026 -0.537438 -0.063437 -0.999154 0.315889 -1.091938
  9   6.790376 -0.619176 0.015206 0.065031 -0.098259 -0.512803
 10   8.637599 0.544015 -0.090417 -3.988461 0.202805 -0.503999
 11   6.790465 -0.619039 0.017802 0.039336 -0.083084 -0.373300
 12   -2.022474 -0.104699 -2.873818 -1.163239 1.764361 -4.903356
 13   1.167898 -0.537463 0.063297 0.234290 -0.683881 -0.862893
 14   7.002743 -0.617765 -0.183752 0.370860 -0.275326 -1.775105
 15   8.209042 0.615527 -0.255885 2.142869 0.455786 0.524451
 16   7.002735 -0.617911 -0.183641 0.225710 -0.258615 -1.243594
 17   1.574674 0.609930 -0.000899 0.254770 0.315535 -0.043807
 18   -0.602177 0.511412 -0.000006 0.000000 0.000000 0.000000
 19   3.673773 0.177020 1.119313 -0.000002 -0.000014 -0.174510
 20   3.673767 0.176993 -1.117566 0.000007 -0.000003 -0.174546
 21   3.942357 1.330634 1.627658 0.000002 -0.000011 -0.000026
 22   -0.246060 -0.011889 0.516521 -0.000011 0.000031 0.000025
 23   3.942374 1.330659 -1.631083 0.000019 0.000002 -0.000024
 24   -0.246150 -0.011872 -0.516511 -0.000005 -0.000006 0.000048
 25   4.941364 1.997338 1.629330 0.000018 -0.000001 -0.000024
 26   4.941382 1.997366 -1.629410 -0.000001 0.000005 -0.000024
 27   2.918368 1.615358 1.514501 -0.000019 -0.000022 -0.000050
 28   2.920798 1.614964 -1.501142 -0.000002 -0.000009 -0.000024
 29   8.824059 0.150544 0.091743 0.000006 -0.000231 -0.174534
 30   2.111085 -0.561179 1.784320 -0.000008 -0.000682 0.000024
 31   2.121290 -0.561289 -1.853599 0.000000 0.000000 -0.000002
 32   -0.810489 -0.093824 3.127092 0.564080 -3.064442 -0.563586
 33   14.298673 -0.408176 0.475484 -0.006404 -0.009748 -0.413694
 34   15.835795 0.581398 0.242756 -0.007436 -0.212263 -0.117847
 35   -0.815868 -0.091229 -3.114430 -0.120039 3.021610 -0.057357
 36   14.294526 -0.410349 -0.463635 0.000728 0.012811 -0.799488
 37   15.834409 0.579420 -0.284600 -0.169306 -0.012782 0.676454
 38   1.139685 -3.453749 -2.823813 0.000000 0.000000 0.000001
 39   -4.457742 -1.054854 -0.746180 0.000000 0.000000 0.000000
 40   1.118101 -3.449769 3.237290 0.000000 0.000001 0.000000
 41   -4.433840 -1.059130 0.959566 -0.000001 0.000000 0.000000
 42   -0.657468 1.697302 -2.688614 0.000000 0.000002 0.000000
 43   -0.664068 1.698578 2.869377 0.000000 0.000002 0.000000
time 1
  0   -0.010486 -0.546892 -0.601210 0.000000 0.000000 -1.571449
  1   -1.093036 0.000002 -0.326057 -1.570809 -1.570703 0.000022
  2   2.262337 0.113614 0.064702 -0.000014 0.000037 0.131489
  3   2.380047 0.353302 0.047440 -0.000060 0.001662 0.180079
  4   2.033756 0.190472 -0.000128 -0.165643 0.048837 0.240256
  5   2.451511 0.204909 -0.003447 -0.151416 -0.009000 0.270822
  6   7.247600 -0.397300 -0.109469 -0.005236 -0.005276 0.494432
  7   -2.022252 -0.104661 3.136172 1.238875 -1.024594 -4.799459
  8   1.168026 -0.537438 -0.063437 -0.999154 0.315889 -1.091938
  9   6.790376 -0.619176 0.015206 0.065031 -0.098259 -0.512803
 10   8.637599 0.544015 -0.090417 -3.428809 0.321131 -0.579309
 11   6.790465 -0.619039 0.017802 0.039336 -0.083084 -0.373300
 12   -2.022474 -0.104699 -2.873818 -1.163239 1.764361 -4.903356
 13   1.167898 -0.537463 0.063297 0.234290 -0.683881 -0.862893
 14   7.002743 -0.617765 -0.183752 0.370860 -0.275326 -1.775105
 15   8.209042 0.615527 -0.255885 2.142869 0.455786 0.524451
 16   7.002735 -0.617911 -0.183641 0.225710 -0.258615 -1.243594
 17   1.574674 0.609930 -0.000899 0.254770 0.315535 -0.043807
 18   -0.602177 0.511412 -0.000006 0.000000 0.000000 0.000000
 19   3.673773 0.177020 1.119313 -0.000002 -0.000014 -0.174510
 20   3.673767 0.176993 -1.117566 0.000007 -0.000003 -0.174546
 21   3.942357 1.330634 1.627658 0.000002 -0.000011 -0.000026
 22   -0.246060 -0.011889 0.516521 -0.000011 0.000031 0.000025
 23   3.942374 1.330659 -1.631083 0.000019 0.000002 -0.000024
 24   -0.246150 -0.011872 -0.516511 -0.000005 -0.000006 0.000048
 25   4.941364 1.997338 1.629330 0.000018 -0.000001 -0.000024
 26   4.941382 1.997366 -1.629410 -0.000001 0.000005 -0.000024
 27   2.918368 1.615358 1.514501 -0.000019 -0.000022 -0.000050
 28   2.920798 1.614964 -1.501142 -0.000002 -0.000009 -0.000024
 29   8.824059 0.150544 0.091743 0.000006 -0.000231 -0.174534
 30   2.111085 -0.561179 1.784320 -0.000008 -0.000682 0.000024
 31   2.121290 -0.561289 -1.853599 0.000000 0.000000 -0.000002
 32   -0.810489 -0.093824 3.127092 0.564080 -3.064442 -0.563586
 33   14.298673 -0.408176 0.475484 -0.006404 -0.009748 -0.413694
 34   15.835795 0.581398 0.242756 -0.007436 -0.212263 -0.117847
 35   -0.815868 -0.091229 -3.114430 -0.120039 3.021610 -0.057357
 36   14.294526 -0.410349 -0.463635 0.000728 0.012811 -0.799488
 37   15.834409 0.579420 -0.284600 -0.169306 -0.012782 0.676454
 38   1.139685 -3.453749 -2.823813 0.000000 0.000000 0.000001
 39   -4.457742 -1.054854 -0.746180 0.000000 0.000000 0.000000
 40   1.118101 -3.449769 3.237290 0.000000 0.000001 0.000000
 41   -4.433840 -1.059130 0.959566 -0.000001 0.000000 0.000000
 42   -0.657468 1.697302 -2.688614 0.000000 0.000002 0.000000
 43   -0.664068 1.698578 2.869377 0.000000 0.000002 0.000000
time 2
  0   -0.010486 -0.546892 -0.601210 0.000000 0.000000 -1.571449
  1   -1.093036 0.000002 -0.326057 -1.570809 -1.570703 0.000022
  2   2.262337 0.113614 0.064702 -0.000014 0.000037 0.131489
  3   2.380047 0.353302 0.047440 -0.000195 0.003435 0.186180
  4   2.033756 0.190472 -0.000128 -0.164315 0.046800 0.224670
  5   2.451511 0.204909 -0.003447 -0.151313 -0.012225 0.253041
  6   7.247600 -0.397300 -0.109469 -0.005236 -0.005276 0.494432
  7   -2.022252 -0.104661 3.136172 1.238875 -1.024594 -4.799459
  8   1.168026 -0.537438 -0.063437 -0.999154 0.315889 -1.091938
  9   6.790376 -0.619176 0.015206 0.065031 -0.098259 -0.512803
 10   8.637599 0.544015 -0.090417 -2.850663 0.439528 -0.654692
 11   6.790465 -0.619039 0.017802 0.039336 -0.083084 -0.373300
 12   -2.022474 -0.104699 -2.873818 -1.163239 1.764361 -4.903356
 13   1.167898 -0.537463 0.063297 0.234290 -0.683881 -0.862893
 14   7.002743 -0.617765 -0.183752 0.370860 -0.275326 -1.775105
 15   8.209042 0.615527 -0.255885 2.142869 0.455786 0.524451
 16   7.002735 -0.617911 -0.183641 0.225710 -0.258615 -1.243594
 17   1.574674 0.609930 -0.000899 0.254770 0.315535 -0.043807
 18   -0.602177 0.511412 -0.000006 0.000000 0.000000 0.000000
 19   3.673773 0.177020 1.119313 -0.000002 -0.000014 -0.174510
 20   3.673767 0.176993 -1.117566 0.000007 -0.000003 -0.174546
 21   3.942357 1.330634 1.627658 0.000002 -0.000011 -0.000026
 22   -0.246060 -0.011889 0.516521 -0.000011 0.000031 0.000025
 23   3.942374 1.330659 -1.631083 0.000019 0.000002 -0.000024
 24   -0.246150 -0.011872 -0.516511 -0.000005 -0.000006 0.000048
 25   4.941364 1.997338 1.629330 0.000018 -0.000001 -0.000024
 26   4.941382 1.997366 -1.629410 -0.000001 0.000005 -0.000024
 27   2.918368 1.615358 1.514501 -0.000019 -0.000022 -0.000050
 28   2.920798 1.614964 -1.501142 -0.000002 -0.000009 -0.000024
 29   8.824059 0.150544 0.091743 0.000006 -0.000231 -0.174534
 30   2.111085 -0.561179 1.784320 -0.000008 -0.000682 0.000024
 31   2.121290 -0.561289 -1.853599 0.000000 0.000000 -0.000002
 32   -0.810489 -0.093824 3.127092 0.564080 -3.064442 -0.563586
 33   14.298673 -0.408176 0.475484 -0.006404 -0.009748 -0.413694
 34   15.835795 0.581398 0.242756 -0.007436 -0.212263 -0.117847
 35   -0.815868 -0.091229 -3.114430 -0.120039 3.021610 -0.057357
 36   14.294526 -0.410349 -0.463635 0.000728 0.012811 -0.799488
 37   15.834409 0.579420 -0.284600 -0.169306 -0.012782 0.676454
 38   1.139685 -3.453749 -2.823813 0.000000 0.000000 0.000001
 39   -4.457742 -1.054854 -0.746180 0.000000 0.000000 0.000000
 40   1.118101 -3.449769 3.237290 0.000000 0.000001 0.000000
 41   -4.433840 -1.059130 0.959566 -0.000001 0.000000 0.000000
 42   -0.657468 1.697302 -2.688614 0.000000 0.000002 0.000000
 43   -0.664068 1.698578 2.869377 0.000000 0.000002 0.000000
time 3
  0   -0.010486 -0.546892 -0.601210 0.000000 0.000000 -1.571449
  1   -1.093036 0.000002 -0.326057 -1.570809 -1.570703 0.000022
  2   2.262337 0.113614 0.064702 -0.000014 0.000037 0.131489
  3   2.380047 0.353302 0.047440 -0.000330 0.005233 0.192220
  4   2.033756 0.190472 -0.000128 -0.163024 0.044775 0.209700
  5   2.451511 0.204909 -0.003447 -0.151279 -0.015371 0.235606
  6   7.247600 -0.397300 -0.109469 -0.002935 -0.001933 0.536276
  7   -2.022252 -0.104661 3.136172 1.238875 -1.024594 -4.799459
  8   1.168026 -0.537438 -0.063437 -0.994661 0.346128 -1.095101
  9   6.790376 -0.619176 0.015206 0.065142 -0.096458 -0.500200
 10   8.637599 0.544015 -0.090417 -2.815437 0.434671 -0.642538
 11   6.790465 -0.619039 0.017802 0.039540 -0.081748 -0.364534
 12   -2.022474 -0.104699 -2.873818 -1.163239 1.764361 -4.903356
 13   1.167898 -0.537463 0.063297 0.234290 -0.683881 -0.862893
 14   7.002743 -0.617765 -0.183752 0.370860 -0.275326 -1.775105
 15   8.209042 0.615527 -0.255885 2.142869 0.455786 0.524451
 16   7.002735 -0.617911 -0.183641 0.225710 -0.258615 -1.243594
 17   1.574674 0.609930 -0.000899 0.254770 0.315535 -0.043807
 18   -0.602177 0.511412 -0.000006 0.000000 0.000000 0.000000
 19   3.673773 0.177020 1.119313 -0.000002 -0.000014 -0.174510
 20   3.673767 0.176993 -1.117566 0.000007 -0.000003 -0.174546
 21   3.942357 1.330634 1.627658 0.000002 -0.000011 -0.000026
 22   -0.246060 -0.011889 0.516521 -0.000011 0.000031 0.000025
 23   3.942374 1.330659 -1.631083 0.000019 0.000002 -0.000024
 24   -0.246150 -0.011872 -0.516511 -0.000005 -0.000006 0.000048
 25   4.941364 1.997338 1.629330 0.000018 -0.000001 -0.000024
 26   4.941382 1.997366 -1.629410 -0.000001 0.000005 -0.000024
 27   2.918368 1.615358 1.514501 -0.000019 -0.000022 -0.000050
 28   2.920798 1.614964 -1.501142 -0.000002 -0.000009 -0.000024
 29   8.824059 0.150544 0.091743 0.000006 -0.000231 -0.174534
 30   2.111085 -0.561179 1.784320 -0.000008 -0.000682 0.000024
 31   2.121290 -0.561289 -1.853599 0.000000 0.000000 -0.000002
 32   -0.810489 -0.093824 3.127092 0.564080 -3.064442 -0.563586
 33   14.298673 -0.408176 0.475484 -0.006404 -0.009748 -0.413694
 34   15.835795 0.581398 0.242756 -0.007436 -0.212263 -0.117847
 35   -0.815868 -0.091229 -3.114430 -0.120039 3.021610 -0.057357
 36   14.294526 -0.410349 -0.463635 0.000728 0.012811 -0.799488
 37   15.834409 0.579420 -0.284600 -0.169306 -0.012782 0.676454
 38   1.139685 -3.453749 -2.823813 0.000000 0.000000 0.000001
 39   -4.457742 -1.054854 -0.746180 0.000000 0.000000 0.000000
 40   1.118101 -3.449769 3.237290 0.000000 0.000001 0.000000
 41   -4.433840 -1.059130 0.959566 -0.000001 0.000000 0.000000
 42   -0.657468 1.697302 -2.688614 0.000000 0.000002 0.000000
 43   -0.664068 1.698578 2.869377 0.000000 0.000002 0.000000
time 4
  0   -0.010486 -0.546892 -0.601210 0.000000 0.000000 -1.571449
  1   -1.093036 0.000002 -0.326057 -1.570809 -1.570703 0.000022
  2   2.262337 0.113614 0.064702 -0.000014 0.000037 0.131489
  3   2.380047 0.353302 0.047440 -0.000435 0.006995 0.197852
  4   2.033756 0.190472 -0.000128 -0.161862 0.043097 0.196941
  5   2.451511 0.204909 -0.003447 -0.151142 -0.018244 0.219409
  6   7.247600 -0.397300 -0.109469 -0.000466 0.001243 0.578215
  7   -2.022252 -0.104661 3.136172 1.238875 -1.024594 -4.799459
  8   1.168026 -0.537438 -0.063437 -0.988776 0.400266 -1.120595
  9   6.790376 -0.619176 0.015206 0.065475 -0.087715 -0.438090
 10   8.637599 0.544015 -0.090417 -2.783822 0.421578 -0.609549
 11   6.790465 -0.619039 0.017802 0.040504 -0.075125 -0.321220
 12   -2.022474 -0.104699 -2.873818 -1.163239 1.764361 -4.903356
 13   1.167898 -0.537463 0.063297 0.235204 -0.680982 -0.856779
 14   7.002743 -0.617765 -0.183752 0.370291 -0.275780 -1.786078
 15   8.209042 0.615527 -0.255885 2.142869 0.455786 0.524451
 16   7.002735 -0.617911 -0.183641 0.224956 -0.259292 -1.251211
 17   1.574674 0.609930 -0.000899 0.254770 0.315535 -0.043807
 18   -0.602177 0.511412 -0.000006 0.000000 0.000000 0.000000
 19   3.673773 0.177020 1.119313 -0.000002 -0.000014 -0.174510
 20   3.673767 0.176993 -1.117566 0.000007 -0.000003 -0.174546
 21   3.942357 1.330634 1.627658 0.000002 -0.000011 -0.000026
 22   -0.246060 -0.011889 0.516521 -0.000011 0.000031 0.000025
 23   3.942374 1.330659 -1.631083 0.000019 0.000002 -0.000024
 24   -0.246150 -0.011872 -0.516511 -0.000005 -0.000006 0.000048
 25   4.941364 1.997338 1.629330 0.000018 -0.000001 -0.000024
 26   4.941382 1.997366 -1.629410 -0.000001 0.000005 -0.000024
 27   2.918368 1.615358 1.514501 -0.000019 -0.000022 -0.000050
 28   2.920798 1.614964 -1.501142 -0.000002 -0.000009 -0.000024
 29   8.824059 0.150544 0.091743 0.000006 -0.000231 -0.174534
 30   2.111085 -0.561179 1.784320 -0.000008 -0.000682 0.000024
 31   2.121290 -0.561289 -1.853599 0.000000 0.000000 -0.000002
 32   -0.810489 -0.093824 3.127092 0.564080 -3.064442 -0.563586
 33   14.298673 -0.408176 0.475484 -0.006404 -0.009748 -0.413694
 34   15.835795 0.581398 0.242756 -0.007436 -0.212263 -0.117847
 35   -0.815868 -0.091229 -3.114430 -0.120039 3.021610 -0.057357
 36   14.294526 -0.410349 -0.463635 0.000728 0.012811 -0.799488
 37   15.834409 0.579420 -0.284600 -0.169306 -0.012782 0.676454
 38   1.139685 -3.453749 -2.823813 0.000000 0.000000 0.000001
 39   -4.457742 -1.054854 -0.746180 0.000000 0.000000 0.000000
 40   1.118101 -3.449769 3.237290 0.000000 0.000001 0.000000
 41   -4.433840 -1.059130 0.959566 -0.000001 0.000000 0.000000
 42   -0.657468 1.697302 -2.688614 0.000000 0.000002 0.000000
 43   -0.664068 1.698578 2.869377 0.000000 0.000002 0.000000
time 5
  0   -0.010486 -0.546892 -0.601210 0.000000 0.000000 -1.571449
  1   -1.093036 0.000002 -0.326057 -1.570809 -1.570703 0.000022
  2   2.262337 0.113614 0.064702 -0.000014 0.000037 0.131489
  3   2.380047 0.353302 0.047440 -0.000525 0.008385 0.202729
  4   2.033756 0.190472 -0.000128 -0.161069 0.041838 0.187807
  5   2.451511 0.204909 -0.003447 -0.150971 -0.020528 0.205318
  6   7.247600 -0.397300 -0.109469 0.001978 0.004443 0.620154
  7   -2.022252 -0.104661 3.136172 1.238875 -1.024594 -4.799459
  8   1.168026 -0.537438 -0.063437 -0.996243 0.427486 -1.189359
  9   6.790376 -0.619176 0.015206 0.066307 -0.063888 -0.279080
 10   8.637599 0.544015 -0.090417 -2.755377 0.402995 -0.561874
 11   6.790465 -0.619039 0.017802 0.042577 -0.057160 -0.210253
 12   -2.022474 -0.104699 -2.873818 -1.163239 1.764361 -4.903356
 13   1.167898 -0.537463 0.063297 0.343527 -0.646504 -0.945765
 14   7.002743 -0.617765 -0.183752 0.373195 -0.272259 -1.727829
 15   8.209042 0.615527 -0.255885 2.142869 0.455786 0.524451
 16   7.002735 -0.617911 -0.183641 0.229240 -0.254612 -1.211086
 17   1.574674 0.609930 -0.000899 0.254770 0.315535 -0.043807
 18   -0.602177 0.511412 -0.000006 0.000000 0.000000 0.000000
 19   3.673773 0.177020 1.119313 -0.000002 -0.000014 -0.174510
 20   3.673767 0.176993 -1.117566 0.000007 -0.000003 -0.174546
 21   3.942357 1.330634 1.627658 0.000002 -0.000011 -0.000026
 22   -0.246060 -0.011889 0.516521 -0.000011 0.000031 0.000025
 23   3.942374 1.330659 -1.631083 0.000019 0.000002 -0.000024
 24   -0.246150 -0.011872 -0.516511 -0.000005 -0.000006 0.000048
 25   4.941364 1.997338 1.629330 0.000018 -0.000001 -0.000024
 26   4.941382 1.997366 -1.629410 -0.000001 0.000005 -0.000024
 27   2.918368 1.615358 1.514501 -0.000019 -0.000022 -0.000050
 28   2.920798 1.614964 -1.501142 -0.000002 -0.000009 -0.000024
 29   8.824059 0.150544 0.091743 0.000006 -0.000231 -0.174534
 30   2.111085 -0.561179 1.784320 -0.000008 -0.000682 0.000024
 31   2.121290 -0.561289 -1.853599 0.000000 0.000000 -0.000002
 32   -0.810489 -0.093824 3.127092 0.564080 -3.064442 -0.563586
 33   14.298673 -0.408176 0.475484 -0.006404 -0.009748 -0.413694
 34   15.835795 0.581398 0.242756 -0.007436 -0.212263 -0.117847
 35   -0.815868 -0.091229 -3.114430 -0.120039 3.021610 -0.057357
 36   14.294526 -0.410349 -0.463635 0.000728 0.012811 -0.799488
 37   15.834409 0.579420 -0.284600 -0.169306 -0.012782 0.676454
 38   1.139685 -3.453749 -2.823813 0.000000 0.000000 0.000001
 39   -4.457742 -1.054854 -0.746180 0.000000 0.000000 0.000000
 40   1.118101 -3.449769 3.237290 0.000000 0.000001 0.000000
 41   -4.433840 -1.059130 0.959566 -0.000001 0.000000 0.000000
 42   -0.657468 1.697302 -2.688614 0.000000 0.000002 0.000000
 43   -0.664068 1.698578 2.869377 0.000000 0.000002 0.000000
time 6
  0   -0.010486 -0.546892 -0.601210 0.000000 0.000000 -1.571449
  1   -1.093036 0.000002 -0.326057 -1.570809 -1.570703 0.000022
  2   2.262337 0.113614 0.064702 -0.000014 0.000037 0.131489
  3   2.380047 0.353302 0.047440 -0.000600 0.009536 0.206341
  4   2.033756 0.190472 -0.000128 -0.160571 0.041143 0.182406
  5   2.451511 0.204909 -0.003447 -0.150714 -0.022343 0.191895
  6   7.247600 -0.397300 -0.109469 0.004747 0.007511 0.662093
  7   -2.022252 -0.104661 3.136172 1.238875 -1.024594 -4.799459
  8   1.168026 -0.537438 -0.063437 -0.930368 0.760366 -0.908419
  9   6.790376 -0.619176 0.015206 0.064088 -0.131963 -0.786448
 10   8.637599 0.544015 -0.090417 -2.730983 0.380752 -0.505735
 11   6.790465 -0.619039 0.017802 0.034285 -0.109150 -0.564147
 12   -2.022474 -0.104699 -2.873818 -1.163239 1.764361 -4.903356
 13   1.167898 -0.537463 0.063297 0.536133 -0.560053 -1.101945
 14   7.002743 -0.617765 -0.183752 0.378489 -0.259767 -1.601101
 15   8.209042 0.615527 -0.255885 2.142869 0.455786 0.524451
 16   7.002735 -0.617911 -0.183641 0.238702 -0.240853 -1.123991
 17   1.574674 0.609930 -0.000899 0.254770 0.315535 -0.043807
 18   -0.602177 0.511412 -0.000006 0.000000 0.000000 0.000000
 19   3.673773 0.177020 1.119313 -0.000002 -0.000014 -0.174510
 20   3.673767 0.176993 -1.117566 0.000007 -0.000003 -0.174546
 21   3.942357 1.330634 1.627658 0.000002 -0.000011 -0.000026
 22   -0.246060 -0.011889 0.516521 -0.000011 0.000031 0.000025
 23   3.942374 1.330659 -1.631083 0.000019 0.000002 -0.000024
 24   -0.246150 -0.011872 -0.516511 -0.000005 -0.000006 0.000048
 25   4.941364 1.997338 1.629330 0.000018 -0.000001 -0.000024
 26   4.941382 1.997366 -1.629410 -0.000001 0.000005 -0.000024
 27   2.918368 1.615358 1.514501 -0.000019 -0.000022 -0.000050
 28   2.920798 1.614964 -1.501142 -0.000002 -0.000009 -0.000024
 29   8.824059 0.150544 0.091743 0.000006 -0.000231 -0.174534
 30   2.111085 -0.561179 1.784320 -0.000008 -0.000682 0.000024
 31   2.121290 -0.561289 -1.853599 0.000000 0.000000 -0.000002
 32   -0.810489 -0.093824 3.127092 0.564080 -3.064442 -0.563586
 33   14.298673 -0.408176 0.475484 -0.006404 -0.009748 -0.413694
 34   15.835795 0.581398 0.242756 -0.007436 -0.212263 -0.117847
 35   -0.815868 -0.091229 -3.114430 -0.120039 3.021610 -0.057357
 36   14.294526 -0.410349 -0.463635 0.000728 0.012811 -0.799488
 37   15.834409 0.579420 -0.284600 -0.169306 -0.012782 0.676454
 38   1.139685 -3.453749 -2.823813 0.000000 0.000000 0.000001
 39   -4.457742 -1.054854 -0.746180 0.000000 0.000000 0.000000
 40   1.118101 -3.449769 3.237290 0.000000 0.000001 0.000000
 41   -4.433840 -1.059130 0.959566 -0.000001 0.000000 0.000000
 42   -0.657468 1.697302 -2.688614 0.000000 0.000002 0.000000
 43   -0.664068 1.698578 2.869377 0.000000 0.000002 0.000000
time 7
  0   -0.010486 -0.546892 -0.601210 0.000000 0.000000 -1.571449
  1   -1.093036 0.000002 -0.326057 -1.570809 -1.570703 0.000022
  2   2.262337 0.113614 0.064702 -0.000014 0.000037 0.131489
  3   2.380047 0.353302 0.047440 -0.000645 0.010291 0.208810
  4   2.033756 0.190472 -0.000128 -0.160313 0.040832 0.179760
  5   2.451511 0.204909 -0.003447 -0.150389 -0.023701 0.179438
  6   7.247600 -0.397300 -0.109469 0.007539 0.010484 0.704063
  7   -2.022252 -0.104661 3.136172 1.238875 -1.024594 -4.799459
  8   1.168026 -0.537438 -0.063437 -0.711481 1.088063 -0.490774
  9   6.790376 -0.619176 0.015206 0.063977 -0.165267 -1.200236
 10   8.637599 0.544015 -0.090417 -2.710200 0.357523 -0.446268
 11   6.790465 -0.619039 0.017802 0.026052 -0.136580 -0.852406
 12   -2.022474 -0.104699 -2.873818 -1.163239 1.764361 -4.903356
 13   1.167898 -0.537463 0.063297 0.650642 -0.482808 -1.143835
 14   7.002743 -0.617765 -0.183752 0.379059 -0.257495 -1.584600
 15   8.209042 0.615527 -0.255885 2.142869 0.455786 0.524451
 16   7.002735 -0.617911 -0.183641 0.239926 -0.238654 -1.112677
 17   1.574674 0.609930 -0.000899 0.254770 0.315535 -0.043807
 18   -0.602177 0.511412 -0.000006 0.000000 0.000000 0.000000
 19   3.673773 0.177020 1.119313 -0.000002 -0.000014 -0.174510
 20   3.673767 0.176993 -1.117566 0.000007 -0.000003 -0.174546
 21   3.942357 1.330634 1.627658 0.000002 -0.000011 -0.000026
 22   -0.246060 -0.011889 0.516521 -0.000011 0.000031 0.000025
 23   3.942374 1.330659 -1.631083 0.000019 0.000002 -0.000024
 24   -0.246150 -0.011872 -0.516511 -0.000005 -0.000006 0.000048
 25   4.941364 1.997338 1.629330 0.000018 -0.000001 -0.000024
 26   4.941382 1.997366 -1.629410 -0.000001 0.000005 -0.000024
 27   2.918368 1.615358 1.514501 -0.000019 -0.000022 -0.000050
 28   2.920798 1.614964 -1.501142 -0.000002 -0.000009 -0.000024
 29   8.824059 0.150544 0.091743 0.000006 -0.000231 -0.174534
 30   2.111085 -0.561179 1.784320 -0.000008 -0.000682 0.000024
 31   2.121290 -0.561289 -1.853599 0.000000 0.000000 -0.000002
 32   -0.810489 -0.093824 3.127092 0.564080 -3.064442 -0.563586
 33   14.298673 -0.408176 0.475484 -0.006404 -0.009748 -0.413694
 34   15.835795 0.581398 0.242756 -0.007436 -0.212263 -0.117847
 35   -0.815868 -0.091229 -3.114430 -0.120039 3.021610 -0.057357
 36   14.294526 -0.410349 -0.463635 0.000728 0.012811 -0.799488
 37   15.834409 0.579420 -0.284600 -0.169306 -0.012782 0.676454
 38   1.139685 -3.453749 -2.823813 0.000000 0.000000 0.000001
 39   -4.457742 -1.054854 -0.746180 0.000000 0.000000 0.000000
 40   1.118101 -3.449769 3.237290 0.000000 0.000001 0.000000
 41   -4.433840 -1.059130 0.959566 -0.000001 0.000000 0.000000
 42   -0.657468 1.697302 -2.688614 0.000000 0.000002 0.000000
 43   -0.664068 1.698578 2.869377 0.000000 0.000002 0.000000
time 8
  0   -0.010486 -0.546892 -0.601210 0.000000 0.000000 -1.571449
  1   -1.093036 0.000002 -0.326057 -1.570809 -1.570703 0.000022
  2   2.262337 0.113614 0.064702 -0.000014 0.000037 0.131489
  3   2.380047 0.353302 0.047440 -0.000690 0.010686 0.210320
  4   2.033756 0.190472 -0.000128 -0.160313 0.040832 0.179760
  5   2.451511 0.204909 -0.003447 -0.150132 -0.024197 0.172157
  6   7.247600 -0.397300 -0.109469 0.007539 0.010484 0.704063
  7   -2.022252 -0.104661 3.136172 1.238875 -1.024594 -4.799459
  8   1.168026 -0.537438 -0.063437 -0.102280 1.361219 0.172891
  9   6.790376 -0.619176 0.015206 0.065031 -0.173009 -1.484522
 10   8.637599 0.544015 -0.090417 -2.693908 0.335139 -0.389984
 11   6.790465 -0.619039 0.017802 0.021555 -0.145534 -1.050577
 12   -2.022474 -0.104699 -2.873818 -1.163239 1.764361 -4.903356
 13   1.167898 -0.537463 0.063297 0.685930 -0.450720 -1.055091
 14   7.002743 -0.617765 -0.183752 0.374049 -0.270896 -1.707533
 15   8.209042 0.615527 -0.255885 2.142869 0.455786 0.524451
 16   7.002735 -0.617911 -0.183641 0.230700 -0.252920 -1.197067
 17   1.574674 0.609930 -0.000899 0.257694 0.309784 -0.021039
 18   -0.602177 0.511412 -0.000006 0.000000 0.000000 0.000000
 19   3.673773 0.177020 1.119313 -0.000002 -0.000014 -0.174510
 20   3.673767 0.176993 -1.117566 0.000007 -0.000003 -0.174546
 21   3.942357 1.330634 1.627658 0.000002 -0.000011 -0.000026
 22   -0.246060 -0.011889 0.516521 -0.000011 0.000031 0.000025
 23   3.942374 1.330659 -1.631083 0.000019 0.000002 -0.000024
 24   -0.246150 -0.011872 -0.516511 -0.000005 -0.000006 0.000048
 25   4.941364 1.997338 1.629330 0.000018 -0.000001 -0.000024
 26   4.941382 1.997366 -1.629410 -0.000001 0.000005 -0.000024
 27   2.918368 1.615358 1.514501 -0.000019 -0.000022 -0.000050
 28   2.920798 1.614964 -1.501142 -0.000002 -0.000009 -0.000024
 29   8.824059 0.150544 0.091743 0.000006 -0.000231 -0.174534
 30   2.111085 -0.561179 1.784320 -0.000008 -0.000682 0.000024
 31   2.121290 -0.561289 -1.853599 0.000000 0.000000 -0.000002
 32   -0.810489 -0.093824 3.127092 0.564080 -3.064442 -0.563586
 33   14.298673 -0.408176 0.475484 -0.006404 -0.009748 -0.413694
 34   15.835795 0.581398 0.242756 -0.007436 -0.212263 -0.117847
 35   -0.815868 -0.091229 -3.114430 -0.120039 3.021610 -0.057357
 36   14.294526 -0.410349 -0.463635 0.000728 0.012811 -0.799488
 37   15.834409 0.579420 -0.284600 -0.169306 -0.012782 0.676454
 38   1.139685 -3.453749 -2.823813 0.000000 0.000000 0.000001
 39   -4.457742 -1.054854 -0.746180 0.000000 0.000000 0.000000
 40   1.118101 -3.449769 3.237290 0.000000 0.000001 0.000000
 41   -4.433840 -1.059130 0.959566 -0.000001 0.000000 0.000000
 42   -0.657468 1.697302 -2.688614 0.000000 0.000002 0.000000
 43   -0.664068 1.698578 2.869377 0.000000 0.000002 0.000000
time 9
  0   -0.010486 -0.546892 -0.601210 0.000000 0.000000 -1.571449
  1   -1.093036 0.000002 -0.326057 -1.570809 -1.570703 0.000022
  2   2.262337 0.113614 0.064702 -0.000014 0.000037 0.131489
  3   2.380047 0.353302 0.047440 -0.000690 0.010758 0.210585
  4   2.033756 0.190472 -0.000128 -0.160571 0.041143 0.182406
  5   2.451511 0.204909 -0.003447 -0.150132 -0.023492 0.174386
  6   7.247600 -0.397300 -0.109469 0.007539 0.010484 0.704063
  7   -2.022252 -0.104661 3.136172 1.238875 -1.024594 -4.799459
  8   1.168026 -0.537438 -0.063437 -1.532925 1.809268 -1.165257
  9   6.790376 -0.619176 0.015206 0.065142 -0.173009 -1.515539
 10   8.637599 0.544015 -0.090417 -2.681931 0.316626 -0.342237
 11   6.790465 -0.619039 0.017802 0.021205 -0.145932 -1.072263
 12   -2.022474 -0.104699 -2.873818 -1.163239 1.764361 -4.903356
 13   1.167898 -0.537463 0.063297 0.716367 -0.422089 -0.935777
 14   7.002743 -0.617765 -0.183752 0.367957 -0.277200 -1.830301
 15   8.209042 0.615527 -0.255885 2.142869 0.455786 0.524451
 16   7.002735 -0.617911 -0.183641 0.221802 -0.261942 -1.281898
 17   1.574674 0.609930 -0.000899 0.264762 0.295300 0.033146
 18   -0.602177 0.511412 -0.000006 0.000000 0.000000 0.000000
 19   3.673773 0.177020 1.119313 -0.000002 -0.000014 -0.174510
 20   3.673767 0.176993 -1.117566 0.000007 -0.000003 -0.174546
 21   3.942357 1.330634 1.627658 0.000002 -0.000011 -0.000026
 22   -0.246060 -0.011889 0.516521 -0.000011 0.000031 0.000025
 23   3.942374 1.330659 -1.631083 0.000019 0.000002 -0.000024
 24   -0.246150 -0.011872 -0.516511 -0.000005 -0.000006 0.000048
 25   4.941364 1.997338 1.629330 0.000018 -0.000001 -0.000024
 26   4.941382 1.997366 -1.629410 -0.000001 0.000005 -0.000024
 27   2.918368 1.615358 1.514501 -0.000019 -0.000022 -0.000050
 28   2.920798 1.614964 -1.501142 -0.000002 -0.000009 -0.000024
 29   8.824059 0.150544 0.091743 0.000006 -0.000231 -0.174534
 30   2.111085 -0.561179 1.784320 -0.000008 -0.000682 0.000024
 31   2.121290 -0.561289 -1.853599 0.000000 0.000000 -0.000002
 32   -0.810489 -0.093824 3.127092 0.564080 -3.064442 -0.563586
 33   14.298673 -0.408176 0.475484 -0.006404 -0.009748 -0.413694
 34   15.835795 0.581398 0.242756 -0.007436 -0.212263 -0.117847
 35   -0.815868 -0.091229 -3.114430 -0.120039 3.021610 -0.057357
 36   14.294526 -0.410349 -0.463635 0.000728 0.012811 -0.799488
 37   15.834409 0.579420 -0.284600 -0.169306 -0.012782 0.676454
 38   1.139685 -3.453749 -2.823813 0.000000 0.000000 0.000001
 39   -4.457742 -1.054854 -0.746180 0.000000 0.000000 0.000000
 40   1.118101 -3.449769 3.237290 0.000000 0.000001 0.000000
 41   -4.433840 -1.059130 0.959566 -0.000001 0.000000 0.000000
 42   -0.657468 1.697302 -2.688614 0.000000 0.000002 0.000000
 43   -0.664068 1.698578 2.869377 0.000000 0.000002 0.000000
time 10
  0   -0.010486 -0.546892 -0.601210 0.000000 0.000000 -1.571449
  1   -1.093036 0.000002 -0.326057 -1.570809 -1.570703 0.000022
  2   2.262337 0.113614 0.064702 -0.000014 0.000037 0.131489
  3   2.380047 0.353302 0.047440 -0.000645 0.010423 0.209361
  4   2.033756 0.190472 -0.000128 -0.161069 0.041838 0.187807
  5   2.451511 0.204909 -0.003447 -0.150389 -0.021403 0.187041
  6   7.247600 -0.397300 -0.109469 0.007539 0.010484 0.704063
  7   -2.022252 -0.104661 3.136172 1.238875 -1.024594 -4.799459
  8   1.168026 -0.537438 -0.063437 -1.235633 1.952714 -0.709402
  9   6.790376 -0.619176 0.015206 0.064199 -0.168136 -1.268383
 10   8.637599 0.544015 -0.090417 -2.674357 0.303463 -0.309610
 11   6.790465 -0.619039 0.017802 0.024767 -0.139508 -0.899930
 12   -2.022474 -0.104699 -2.873818 -1.163239 1.764361 -4.903356
 13   1.167898 -0.537463 0.063297 0.729301 -0.398849 -0.819550
 14   7.002743 -0.617765 -0.183752 0.363231 -0.277540 -1.913054
 15   8.209042 0.615527 -0.255885 2.142869 0.455786 0.524451
 16   7.002735 -0.617911 -0.183641 0.216154 -0.265156 -1.339409
 17   1.574674 0.609930 -0.000899 0.273414 0.276248 0.097976
 18   -0.602177 0.511412 -0.000006 0.000000 0.000000 0.000000
 19   3.673773 0.177020 1.119313 -0.000002 -0.000014 -0.174510
 20   3.673767 0.176993 -1.117566 0.000007 -0.000003 -0.174546
 21   3.942357 1.330634 1.627658 0.000002 -0.000011 -0.000026
 22   -0.246060 -0.011889 0.516521 -0.000011 0.000031 0.000025
 23   3.942374 1.330659 -1.631083 0.000019 0.000002 -0.000024
 24   -0.246150 -0.011872 -0.516511 -0.000005 -0.000006 0.000048
 25   4.941364 1.997338 1.629330 0.000018 -0.000001 -0.000024
 26   4.941382 1.997366 -1.629410 -0.000001 0.000005 -0.000024
 27   2.918368 1.615358 1.514501 -0.000019 -0.000022 -0.000050
 28   2.920798 1.614964 -1.501142 -0.000002 -0.000009 -0.000024
 29   8.824059 0.150544 0.091743 0.000006 -0.000231 -0.174534
 30   2.111085 -0.561179 1.784320 -0.000008 -0.000682 0.000024
 31   2.121290 -0.561289 -1.853599 0.000000 0.000000 -0.000002
 32   -0.810489 -0.093824 3.127092 0.564080 -3.064442 -0.563586
 33   14.298673 -0.408176 0.475484 -0.006404 -0.009748 -0.413694
 34   15.835795 0.581398 0.242756 -0.007436 -0.212263 -0.117847
 35   -0.815868 -0.091229 -3.114430 -0.120039 3.021610 -0.057357
 36   14.294526 -0.410349 -0.463635 0.000728 0.012811 -0.799488
 37   15.834409 0.579420 -0.284600 -0.169306 -0.012782 0.676454
 38   1.139685 -3.453749 -2.823813 0.000000 0.000000 0.000001
 39   -4.457742 -1.054854 -0.746180 0.000000 0.000000 0.000000
 40   1.118101 -3.449769 3.237290 0.000000 0.000001 0.000000
 41   -4.433840 -1.059130 0.959566 -0.000001 0.000000 0.000000
 42   -0.657468 1.697302 -2.688614 0.000000 0.000002 0.000000
 43   -0.664068 1.698578 2.869377 0.000000 0.000002 0.000000
time 11
  0   -0.010486 -0.546892 -0.601210 0.000000 0.000000 -1.571449
  1   -1.093036 0.000002 -0.326057 -1.570809 -1.570703 0.000022
  2   2.262337 0.113614 0.064702 -0.000014 0.000037 0.131489
  3   2.380047 0.353302 0.047440 -0.000600 0.009536 0.206341
  4   2.033756 0.190472 -0.000128 -0.161973 0.043217 0.197956
  5   2.451511 0.204909 -0.003447 -0.150714 -0.018374 0.206581
  6   7.247600 -0.397300 -0.109469 0.007539 0.010484 0.704063
  7   -2.022252 -0.104661 3.136172 1.238875 -1.024594 -4.799459
  8   1.168026 -0.537438 -0.063437 -1.247150 1.968764 -0.632857
  9   6.790376 -0.619176 0.015206 0.063866 -0.157391 -1.070885
 10   8.637599 0.544015 -0.090417 -2.672068 0.298747 -0.297094
 11   6.790465 -0.619039 0.017802 0.028533 -0.129815 -0.762260
 12   -2.022474 -0.104699 -2.873818 -1.163239 1.764361 -4.903356
 13   1.167898 -0.537463 0.063297 0.722904 -0.378712 -0.728627
 14   7.002743 -0.617765 -0.183752 0.361239 -0.276689 -1.947871
 15   8.209042 0.615527 -0.255885 2.142869 0.455786 0.524451
 16   7.002735 -0.617911 -0.183641 0.213941 -0.265720 -1.363804
 17   1.574674 0.609930 -0.000899 0.280563 0.256912 0.152235
 18   -0.602177 0.511412 -0.000006 0.000000 0.000000 0.000000
 19   3.673773 0.177020 1.119313 -0.000002 -0.000014 -0.174510
 20   3.673767 0.176993 -1.117566 0.000007 -0.000003 -0.174546
 21   3.942357 1.330634 1.627658 0.000002 -0.000011 -0.000026
 22   -0.246060 -0.011889 0.516521 -0.000011 0.000031 0.000025
 23   3.942374 1.330659 -1.631083 0.000019 0.000002 -0.000024
 24   -0.246150 -0.011872 -0.516511 -0.000005 -0.000006 0.000048
 25   4.941364 1.997338 1.629330 0.000018 -0.000001 -0.000024
 26   4.941382 1.997366 -1.629410 -0.000001 0.000005 -0.000024
 27   2.918368 1.615358 1.514501 -0.000019 -0.000022 -0.000050
 28   2.920798 1.614964 -1.501142 -0.000002 -0.000009 -0.000024
 29   8.824059 0.150544 0.091743 0.000006 -0.000231 -0.174534
 30   2.111085 -0.561179 1.784320 -0.000008 -0.000682 0.000024
 31   2.121290 -0.561289 -1.853599 0.000000 0.000000 -0.000002
 32   -0.810489 -0.093824 3.127092 0.564080 -3.064442 -0.563586
 33   14.298673 -0.408176 0.475484 -0.006404 -0.009748 -0.413694
 34   15.835795 0.581398 0.242756 -0.007436 -0.212263 -0.117847
 35   -0.815868 -0.091229 -3.114430 -0.120039 3.021610 -0.057357
 36   14.294526 -0.410349 -0.463635 0.000728 0.012811 -0.799488
 37   15.834409 0.579420 -0.284600 -0.169306 -0.012782 0.676454
 38   1.139685 -3.453749 -2.823813 0.000000 0.000000 0.000001
 39   -4.457742 -1.054854 -0.746180 0.000000 0.000000 0.000000
 40   1.118101 -3.449769 3.237290 0.000000 0.000001 0.000000
 41   -4.433840 -1.059130 0.959566 -0.000001 0.000000 0.000000
 42   -0.657468 1.697302 -2.688614 0.000000 0.000002 0.000000
 43   -0.664068 1.698578 2.869377 0.000000 0.000002 0.000000
time 12
  0   -0.010486 -0.546892 -0.601210 0.000000 0.000000 -1.571449
  1   -1.093036 0.000002 -0.326057 -1.570809 -1.570703 0.000022
  2   2.262337 0.113614 0.064702 -0.000014 0.000037 0.131489
  3   2.380047 0.353302 0.047440 -0.000435 0.006695 0.197097
  4   2.033756 0.190472 -0.000128 -0.163356 0.045230 0.212926
  5   2.451511 0.204909 -0.003447 -0.151005 -0.014849 0.229588
  6   7.247600 -0.397300 -0.109469 0.007539 0.010484 0.704063
  7   -2.022252 -0.104661 3.136172 1.238875 -1.024594 -4.799459
  8   1.168026 -0.537438 -0.063437 -1.410477 1.967758 -0.799295
  9   6.790376 -0.619176 0.015206 0.063977 -0.165734 -1.210047
 10   8.637599 0.544015 -0.090417 -2.673829 0.304871 -0.312431
 11   6.790465 -0.619039 0.017802 0.025847 -0.137092 -0.859327
 12   -2.022474 -0.104699 -2.873818 -1.163239 1.764361 -4.903356
 13   1.167898 -0.537463 0.063297 0.710462 -0.362795 -0.673480
 14   7.002743 -0.617765 -0.183752 0.361011 -0.276461 -1.951749
 15   8.209042 0.615527 -0.255885 2.142869 0.455786 0.524451
 16   7.002735 -0.617911 -0.183641 0.213706 -0.265833 -1.366453
 17   1.574674 0.609930 -0.000899 0.283529 0.241363 0.174744
 18   -0.602177 0.511412 -0.000006 0.000000 0.000000 0.000000
 19   3.673773 0.177020 1.119313 -0.000002 -0.000014 -0.174510
 20   3.673767 0.176993 -1.117566 0.000007 -0.000003 -0.174546
 21   3.942357 1.330634 1.627658 0.000002 -0.000011 -0.000026
 22   -0.246060 -0.011889 0.516521 -0.000011 0.000031 0.000025
 23   3.942374 1.330659 -1.631083 0.000019 0.000002 -0.000024
 24   -0.246150 -0.011872 -0.516511 -0.000005 -0.000006 0.000048
 25   4.941364 1.997338 1.629330 0.000018 -0.000001 -0.000024
 26   4.941382 1.997366 -1.629410 -0.000001 0.000005 -0.000024
 27   2.918368 1.615358 1.514501 -0.000019 -0.000022 -0.000050
 28   2.920798 1.614964 -1.501142 -0.000002 -0.000009 -0.000024
 29   8.824059 0.150544 0.091743 0.000006 -0.000231 -0.174534
 30   2.111085 -0.561179 1.784320 -0.000008 -0.000682 0.000024
 31   2.121290 -0.561289 -1.853599 0.000000 0.000000 -0.000002
 32   -0.810489 -0.093824 3.127092 0.564080 -3.064442 -0.563586
 33   14.298673 -0.408176 0.475484 -0.006404 -0.009748 -0.413694
 34   15.835795 0.581398 0.242756 -0.007436 -0.212263 -0.117847
 35   -0.815868 -0.091229 -3.114430 -0.120039 3.021610 -0.057357
 36   14.294526 -0.410349 -0.463635 0.000728 0.012811 -0.799488
 37   15.834409 0.579420 -0.284600 -0.169306 -0.012782 0.676454
 38   1.139685 -3.453749 -2.823813 0.000000 0.000000 0.000001
 39   -4.457742 -1.054854 -0.746180 0.000000 0.000000 0.000000
 40   1.118101 -3.449769 3.237290 0.000000 0.000001 0.000000
 41   -4.433840 -1.059130 0.959566 -0.000001 0.000000 0.000000
 42   -0.657468 1.697302 -2.688614 0.000000 0.000002 0.000000
 43   -0.664068 1.698578 2.869377 0.000000 0.000002 0.000000
time 13
  0   -0.010486 -0.546892 -0.601210 0.000000 0.000000 -1.571449
  1   -1.093036 0.000002 -0.326057 -1.570809 -1.570703 0.000022
  2   2.262337 0.113614 0.064702 -0.000014 0.000037 0.131489
  3   2.380047 0.353302 0.047440 -0.000135 0.002645 0.183405
  4   2.033756 0.190472 -0.000128 -0.164739 0.047411 0.229527
  5   2.451511 0.204909 -0.003447 -0.151159 -0.011259 0.253041
  6   7.247600 -0.397300 -0.109469 0.004747 0.007511 0.662093
  7   -2.022252 -0.104661 3.136172 1.238875 -1.024594 -4.799459
  8   1.168026 -0.537438 -0.063437 1.426956 1.198855 2.010037
  9   6.790376 -0.619176 0.015206 0.064809 -0.172742 -1.459844
 10   8.637599 0.544015 -0.090417 -2.679377 0.320709 -0.352944
 11   6.790465 -0.619039 0.017802 0.021789 -0.144994 -1.033390
 12   -2.022474 -0.104699 -2.873818 -1.163239 1.764361 -4.903356
 13   1.167898 -0.537463 0.063297 0.636724 -0.363354 -0.626868
 14   7.002743 -0.617765 -0.183752 0.362548 -0.277427 -1.925347
 15   8.209042 0.615527 -0.255885 2.142869 0.455786 0.524451
 16   7.002735 -0.617911 -0.183641 0.215353 -0.265551 -1.348019
 17   1.574674 0.609930 -0.000899 0.253998 0.228370 0.171417
 18   -0.602177 0.511412 -0.000006 0.000000 0.000000 0.000000
 19   3.673773 0.177020 1.119313 -0.000002 -0.000014 -0.174510
 20   3.673767 0.176993 -1.117566 0.000007 -0.000003 -0.174546
 21   3.942357 1.330634 1.627658 0.000002 -0.000011 -0.000026
 22   -0.246060 -0.011889 0.516521 -0.000011 0.000031 0.000025
 23   3.942374 1.330659 -1.631083 0.000019 0.000002 -0.000024
 24   -0.246150 -0.011872 -0.516511 -0.000005 -0.000006 0.000048
 25   4.941364 1.997338 1.629330 0.000018 -0.000001 -0.000024
 26   4.941382 1.997366 -1.629410 -0.000001 0.000005 -0.000024
 27   2.918368 1.615358 1.514501 -0.000019 -0.000022 -0.000050
 28   2.920798 1.614964 -1.501142 -0.000002 -0.000009 -0.000024
 29   8.824059 0.150544 0.091743 0.000006 -0.000231 -0.174534
 30   2.111085 -0.561179 1.784320 -0.000008 -0.000682 0.000024
 31   2.121290 -0.561289 -1.853599 0.000000 0.000000 -0.000002
 32   -0.810489 -0.093824 3.127092 0.564080 -3.064442 -0.563586
 33   14.298673 -0.408176 0.475484 -0.006404 -0.009748 -0.413694
 34   15.835795 0.581398 0.242756 -0.007436 -0.212263 -0.117847
 35   -0.815868 -0.091229 -3.114430 -0.120039 3.021610 -0.057357
 36   14.294526 -0.410349 -0.463635 0.000728 0.012811 -0.799488
 37   15.834409 0.579420 -0.284600 -0.169306 -0.012782 0.676454
 38   1.139685 -3.453749 -2.823813 0.000000 0.000000 0.000001
 39   -4.457742 -1.054854 -0.746180 0.000000 0.000000 0.000000
 40   1.118101 -3.449769 3.237290 0.000000 0.000001 0.000000
 41   -4.433840 -1.059130 0.959566 -0.000001 0.000000 0.000000
 42   -0.657468 1.697302 -2.688614 0.000000 0.000002 0.000000
 43   -0.664068 1.698578 2.869377 0.000000 0.000002 0.000000
time 14
  0   -0.010486 -0.546892 -0.601210 0.000000 0.000000 -1.571449
  1   -1.093036 0.000002 -0.326057 -1.570809 -1.570703 0.000022
  2   2.262337 0.113614 0.064702 -0.000014 0.000037 0.131489
  3   2.380047 0.353302 0.047440 0.000000 -0.000028 0.174447
  4   2.033756 0.190472 -0.000128 -0.165975 0.049437 0.244570
  5   2.451511 0.204909 -0.003447 -0.151313 -0.008165 0.273522
  6   7.247600 -0.397300 -0.109469 0.001978 0.004443 0.620154
  7   -2.022252 -0.104661 3.136172 1.238875 -1.024594 -4.799459
  8   1.168026 -0.537438 -0.063437 0.945012 1.240465 1.513316
  9   6.790376 -0.619176 0.015206 0.065586 -0.172007 -1.621722
 10   8.637599 0.544015 -0.090417 -2.690385 0.343234 -0.410313
 11   6.790465 -0.619039 0.017802 0.020154 -0.146586 -1.146375
 12   -2.022474 -0.104699 -2.873818 -1.163239 1.764361 -4.903356
 13   1.167898 -0.537463 0.063297 0.518700 -0.381559 -0.590668
 14   7.002743 -0.617765 -0.183752 0.365850 -0.277711 -1.868336
 15   8.209042 0.615527 -0.255885 2.142869 0.455786 0.524451
 16   7.002735 -0.617911 -0.183641 0.219166 -0.263690 -1.308280
 17   1.574674 0.609930 -0.000899 0.180232 0.214809 0.162695
 18   -0.602177 0.511412 -0.000006 0.000000 0.000000 0.000000
 19   3.673773 0.177020 1.119313 -0.000002 -0.000014 -0.174510
 20   3.673767 0.176993 -1.117566 0.000007 -0.000003 -0.174546
 21   3.942357 1.330634 1.627658 0.000002 -0.000011 -0.000026
 22   -0.246060 -0.011889 0.516521 -0.000011 0.000031 0.000025
 23   3.942374 1.330659 -1.631083 0.000019 0.000002 -0.000024
 24   -0.246150 -0.011872 -0.516511 -0.000005 -0.000006 0.000048
 25   4.941364 1.997338 1.629330 0.000018 -0.000001 -0.000024
 26   4.941382 1.997366 -1.629410 -0.000001 0.000005 -0.000024
 27   2.918368 1.615358 1.514501 -0.000019 -0.000022 -0.000050
 28   2.920798 1.614964 -1.501142 -0.000002 -0.000009 -0.000024
 29   8.824059 0.150544 0.091743 0.000006 -0.000231 -0.174534
 30   2.111085 -0.561179 1.784320 -0.000008 -0.000682 0.000024
 31   2.121290 -0.561289 -1.853599 0.000000 0.000000 -0.000002
 32   -0.810489 -0.093824 3.127092 0.564080 -3.064442 -0.563586
 33   14.298673 -0.408176 0.475484 -0.006404 -0.009748 -0.413694
 34   15.835795 0.581398 0.242756 -0.007436 -0.212263 -0.117847
 35   -0.815868 -0.091229 -3.114430 -0.120039 3.021610 -0.057357
 36   14.294526 -0.410349 -0.463635 0.000728 0.012811 -0.799488
 37   15.834409 0.579420 -0.284600 -0.169306 -0.012782 0.676454
 38   1.139685 -3.453749 -2.823813 0.000000 0.000000 0.000001
 39   -4.457742 -1.054854 -0.746180 0.000000 0.000000 0.000000
 40   1.118101 -3.449769 3.237290 0.000000 0.000001 0.000000
 41   -4.433840 -1.059130 0.959566 -0.000001 0.000000 0.000000
 42   -0.657468 1.697302 -2.688614 0.000000 0.000002 0.000000
 43   -0.664068 1.698578 2.869377 0.000000 0.000002 0.000000
time 15
  0   -0.010486 -0.546892 -0.601210 0.000000 0.000000 -1.571449
  1   -1.093036 0.000002 -0.326057 -1.570809 -1.570703 0.000022
  2   2.262337 0.113614 0.064702 -0.000014 0.000037 0.131489
  3   2.380047 0.353302 0.047440 0.000000 -0.000663 0.171978
  4   2.033756 0.190472 -0.000128 -0.166860 0.050863 0.254755
  5   2.451511 0.204909 -0.003447 -0.151399 -0.005932 0.287935
  6   7.247600 -0.397300 -0.109469 -0.000466 0.001243 0.578215
  7   -2.022252 -0.104661 3.136172 1.238875 -1.024594 -4.799459
  8   1.168026 -0.537438 -0.063437 0.224880 1.284842 0.674736
  9   6.790376 -0.619176 0.015206 0.065974 -0.170205 -1.700057
 10   8.637599 0.544015 -0.090417 -2.706853 0.369208 -0.476074
 11   6.790465 -0.619039 0.017802 0.019716 -0.146330 -1.201166
 12   -2.022474 -0.104699 -2.873818 -1.163239 1.764361 -4.903356
 13   1.167898 -0.537463 0.063297 0.444680 -0.405766 -0.591637
 14   7.002743 -0.617765 -0.183752 0.368982 -0.276575 -1.810417
 15   8.209042 0.615527 -0.255885 2.142869 0.455786 0.524451
 16   7.002735 -0.617911 -0.183641 0.223215 -0.260758 -1.267934
 17   1.574674 0.609930 -0.000899 0.084287 0.201934 0.149056
 18   -0.602177 0.511412 -0.000006 0.000000 0.000000 0.000000
 19   3.673773 0.177020 1.119313 -0.000002 -0.000014 -0.174510
 20   3.673767 0.176993 -1.117566 0.000007 -0.000003 -0.174546
 21   3.942357 1.330634 1.627658 0.000002 -0.000011 -0.000026
 22   -0.246060 -0.011889 0.516521 -0.000011 0.000031 0.000025
 23   3.942374 1.330659 -1.631083 0.000019 0.000002 -0.000024
 24   -0.246150 -0.011872 -0.516511 -0.000005 -0.000006 0.000048
 25   4.941364 1.997338 1.629330 0.000018 -0.000001 -0.000024
 26   4.941382 1.997366 -1.629410 -0.000001 0.000005 -0.000024
 27   2.918368 1.615358 1.514501 -0.000019 -0.000022 -0.000050
 28   2.920798 1.614964 -1.501142 -0.000002 -0.000009 -0.000024
 29   8.824059 0.150544 0.091743 0.000006 -0.000231 -0.174534
 30   2.111085 -0.561179 1.784320 -0.000008 -0.000682 0.000024
 31   2.121290 -0.561289 -1.853599 0.000000 0.000000 -0.000002
 32   -0.810489 -0.093824 3.127092 0.564080 -3.064442 -0.563586
 33   14.298673 -0.408176 0.475484 -0.006404 -0.009748 -0.413694
 34   15.835795 0.581398 0.242756 -0.007436 -0.212263 -0.117847
 35   -0.815868 -0.091229 -3.114430 -0.120039 3.021610 -0.057357
 36   14.294526 -0.410349 -0.463635 0.000728 0.012811 -0.799488
 37   15.834409 0.579420 -0.284600 -0.169306 -0.012782 0.676454
 38   1.139685 -3.453749 -2.823813 0.000000 0.000000 0.000001
 39   -4.457742 -1.054854 -0.746180 0.000000 0.000000 0.000000
 40   1.118101 -3.449769 3.237290 0.000000 0.000001 0.000000
 41   -4.433840 -1.059130 0.959566 -0.000001 0.000000 0.000000
 42   -0.657468 1.697302 -2.688614 0.000000 0.000002 0.000000
 43   -0.664068 1.698578 2.869377 0.000000 0.000002 0.000000
time 16
  0   -0.010486 -0.546892 -0.601210 0.000000 0.000000 -1.571449
  1   -1.093036 0.000002 -0.326057 -1.570809 -1.570703 0.000022
  2   2.262337 0.113614 0.064702 -0.000014 0.000037 0.131489
  3   2.380047 0.353302 0.047440 0.000000 -0.000927 0.171325
  4   2.033756 0.190472 -0.000128 -0.167192 0.051450 0.259105
  5   2.451511 0.204909 -0.003447 -0.151416 -0.004927 0.294622
  6   7.247600 -0.397300 -0.109469 -0.002935 -0.001933 0.536276
  7   -2.022252 -0.104661 3.136172 1.238875 -1.024594 -4.799459
  8   1.168026 -0.537438 -0.063437 -0.679145 1.079308 -0.496341
  9   6.790376 -0.619176 0.015206 0.064809 -0.172808 -1.462410
 10   8.637599 0.544015 -0.090417 -2.730367 0.395041 -0.541618
 11   6.790465 -0.619039 0.017802 0.021847 -0.145108 -1.035293
 12   -2.022474 -0.104699 -2.873818 -1.163239 1.764361 -4.903356
 13   1.167898 -0.537463 0.063297 0.384157 -0.473959 -0.636735
 14   7.002743 -0.617765 -0.183752 0.367387 -0.277427 -1.839129
 15   8.209042 0.615527 -0.255885 2.142869 0.455786 0.524451
 16   7.002735 -0.617911 -0.183641 0.221190 -0.262393 -1.287914
 17   1.574674 0.609930 -0.000899 -0.011374 0.191142 0.132202
 18   -0.602177 0.511412 -0.000006 0.000000 0.000000 0.000000
 19   3.673773 0.177020 1.119313 -0.000002 -0.000014 -0.174510
 20   3.673767 0.176993 -1.117566 0.000007 -0.000003 -0.174546
 21   3.942357 1.330634 1.627658 0.000002 -0.000011 -0.000026
 22   -0.246060 -0.011889 0.516521 -0.000011 0.000031 0.000025
 23   3.942374 1.330659 -1.631083 0.000019 0.000002 -0.000024
 24   -0.246150 -0.011872 -0.516511 -0.000005 -0.000006 0.000048
 25   4.941364 1.997338 1.629330 0.000018 -0.000001 -0.000024
 26   4.941382 1.997366 -1.629410 -0.000001 0.000005 -0.000024
 27   2.918368 1.615358 1.514501 -0.000019 -0.000022 -0.000050
 28   2.920798 1.614964 -1.501142 -0.000002 -0.000009 -0.000024
 29   8.824059 0.150544 0.091743 0.000006 -0.000231 -0.174534
 30   2.111085 -0.561179 1.784320 -0.000008 -0.000682 0.000024
 31   2.121290 -0.561289 -1.853599 0.000000 0.000000 -0.000002
 32   -0.810489 -0.093824 3.127092 0.564080 -3.064442 -0.563586
 33   14.298673 -0.408176 0.475484 -0.006404 -0.009748 -0.413694
 34   15.835795 0.581398 0.242756 -0.007436 -0.212263 -0.117847
 35   -0.815868 -0.091229 -3.114430 -0.120039 3.021610 -0.057357
 36   14.294526 -0.410349 -0.463635 0.000728 0.012811 -0.799488
 37   15.834409 0.579420 -0.284600 -0.169306 -0.012782 0.676454
 38   1.139685 -3.453749 -2.823813 0.000000 0.000000 0.000001
 39   -4.457742 -1.054854 -0.746180 0.000000 0.000000 0.000000
 40   1.118101 -3.449769 3.237290 0.000000 0.000001 0.000000
 41   -4.433840 -1.059130 0.959566 -0.000001 0.000000 0.000000
 42   -0.657468 1.697302 -2.688614 0.000000 0.000002 0.000000
 43   -0.664068 1.698578 2.869377 0.000000 0.000002 0.000000
time 17
  0   -0.010486 -0.546892 -0.601210 0.000000 0.000000 -1.571449
  1   -1.093036 0.000002 -0.326057 -1.570809 -1.570703 0.000022
  2   2.262337 0.113614 0.064702 -0.000014 0.000037 0.131489
  3   2.380047 0.353302 0.047440 0.000000 -0.000747 0.171774
  4   2.033756 0.190472 -0.000128 -0.167229 0.051522 0.259540
  5   2.451511 0.204909 -0.003447 -0.151416 -0.004783 0.295365
  6   7.247600 -0.397300 -0.109469 -0.005236 -0.005276 0.494432
  7   -2.022252 -0.104661 3.136172 1.238875 -1.024594 -4.799459
  8   1.168026 -0.537438 -0.063437 -0.942075 0.673423 -1.034940
  9   6.790376 -0.619176 0.015206 0.063977 -0.136168 -0.826144
 10   8.637599 0.544015 -0.090417 -2.761365 0.417355 -0.598842
 11   6.790465 -0.619039 0.017802 0.033526 -0.112447 -0.592004
 12   -2.022474 -0.104699 -2.873818 -1.163239 1.764361 -4.903356
 13   1.167898 -0.537463 0.063297 0.297203 -0.579225 -0.719365
 14   7.002743 -0.617765 -0.183752 0.364199 -0.277654 -1.896965
 15   8.209042 0.615527 -0.255885 2.142869 0.455786 0.524451
 16   7.002735 -0.617911 -0.183641 0.217236 -0.264649 -1.328094
 17   1.574674 0.609930 -0.000899 -0.085140 0.183687 0.113315
 18   -0.602177 0.511412 -0.000006 0.000000 0.000000 0.000000
 19   3.673773 0.177020 1.119313 -0.000002 -0.000014 -0.174510
 20   3.673767 0.176993 -1.117566 0.000007 -0.000003 -0.174546
 21   3.942357 1.330634 1.627658 0.000002 -0.000011 -0.000026
 22   -0.246060 -0.011889 0.516521 -0.000011 0.000031 0.000025
 23   3.942374 1.330659 -1.631083 0.000019 0.000002 -0.000024
 24   -0.246150 -0.011872 -0.516511 -0.000005 -0.000006 0.000048
 25   4.941364 1.997338 1.629330 0.000018 -0.000001 -0.000024
 26   4.941382 1.997366 -1.629410 -0.000001 0.000005 -0.000024
 27   2.918368 1.615358 1.514501 -0.000019 -0.000022 -0.000050
 28   2.920798 1.614964 -1.501142 -0.000002 -0.000009 -0.000024
 29   8.824059 0.150544 0.091743 0.000006 -0.000231 -0.174534
 30   2.111085 -0.561179 1.784320 -0.000008 -0.000682 0.000024
 31   2.121290 -0.561289 -1.853599 0.000000 0.000000 -0.000002
 32   -0.810489 -0.093824 3.127092 0.564080 -3.064442 -0.563586
 33   14.298673 -0.408176 0.475484 -0.006404 -0.009748 -0.413694
 34   15.835795 0.581398 0.242756 -0.007436 -0.212263 -0.117847
 35   -0.815868 -0.091229 -3.114430 -0.120039 3.021610 -0.057357
 36   14.294526 -0.410349 -0.463635 0.000728 0.012811 -0.799488
 37   15.834409 0.579420 -0.284600 -0.169306 -0.012782 0.676454
 38   1.139685 -3.453749 -2.823813 0.000000 0.000000 0.000001
 39   -4.457742 -1.054854 -0.746180 0.000000 0.000000 0.000000
 40   1.118101 -3.449769 3.237290 0.000000 0.000001 0.000000
 41   -4.433840 -1.059130 0.959566 -0.000001 0.000000 0.000000
 42   -0.657468 1.697302 -2.688614 0.000000 0.000002 0.000000
 43   -0.664068 1.698578 2.869377 0.000000 0.000002 0.000000
time 18
  0   -0.010486 -0.546892 -0.601210 0.000000 0.000000 -1.571449
  1   -1.093036 0.000002 -0.326057 -1.570809 -1.570703 0.000022
  2   2.262337 0.113614 0.064702 -0.000014 0.000037 0.131489
  3   2.380047 0.353302 0.047440 0.000000 -0.000436 0.172896
  4   2.033756 0.190472 -0.000128 -0.167100 0.051246 0.257945
  5   2.451511 0.204909 -0.003447 -0.151416 -0.005162 0.292938
  6   7.247600 -0.397300 -0.109469 -0.005236 -0.005276 0.494432
  7   -2.022252 -0.104661 3.136172 1.238875 -1.024594 -4.799459
  8   1.168026 -0.537438 -0.063437 -1.001622 0.278254 -1.334921
  9   6.790376 -0.619176 0.015206 0.067916 -0.022776 -0.020528
 10   8.637599 0.544015 -0.090417 -2.801259 0.433474 -0.639355
 11   6.790465 -0.619039 0.017802 0.044358 -0.026233 -0.029673
 12   -2.022474 -0.104699 -2.873818 -1.163239 1.764361 -4.903356
 13   1.167898 -0.537463 0.063297 0.249544 -0.639689 -0.784985
 14   7.002743 -0.617765 -0.183752 0.364370 -0.277654 -1.894820
 15   8.209042 0.615527 -0.255885 2.142869 0.455786 0.524451
 16   7.002735 -0.617911 -0.183641 0.217377 -0.264536 -1.326604
 17   1.574674 0.609930 -0.000899 -0.114711 0.180918 0.093430
 18   -0.602177 0.511412 -0.000006 0.000000 0.000000 0.000000
 19   3.673773 0.177020 1.119313 -0.000002 -0.000014 -0.174510
 20   3.673767 0.176993 -1.117566 0.000007 -0.000003 -0.174546
 21   3.942357 1.330634 1.627658 0.000002 -0.000011 -0.000026
 22   -0.246060 -0.011889 0.516521 -0.000011 0.000031 0.000025
 23   3.942374 1.330659 -1.631083 0.000019 0.000002 -0.000024
 24   -0.246150 -0.011872 -0.516511 -0.000005 -0.000006 0.000048
 25   4.941364 1.997338 1.629330 0.000018 -0.000001 -0.000024
 26   4.941382 1.997366 -1.629410 -0.000001 0.000005 -0.000024
 27   2.918368 1.615358 1.514501 -0.000019 -0.000022 -0.000050
 28   2.920798 1.614964 -1.501142 -0.000002 -0.000009 -0.000024
 29   8.824059 0.150544 0.091743 0.000006 -0.000231 -0.174534
 30   2.111085 -0.561179 1.784320 -0.000008 -0.000682 0.000024
 31   2.121290 -0.561289 -1.853599 0.000000 0.000000 -0.000002
 32   -0.810489 -0.093824 3.127092 0.564080 -3.064442 -0.563586
 33   14.298673 -0.408176 0.475484 -0.006404 -0.009748 -0.413694
 34   15.835795 0.581398 0.242756 -0.007436 -0.212263 -0.117847
 35   -0.815868 -0.091229 -3.114430 -0.120039 3.021610 -0.057357
 36   14.294526 -0.410349 -0.463635 0.000728 0.012811 -0.799488
 37   15.834409 0.579420 -0.284600 -0.169306 -0.012782 0.676454
 38   1.139685 -3.453749 -2.823813 0.000000 0.000000 0.000001
 39   -4.457742 -1.054854 -0.746180 0.000000 0.000000 0.000000
 40   1.118101 -3.449769 3.237290 0.000000 0.000001 0.000000
 41   -4.433840 -1.059130 0.959566 -0.000001 0.000000 0.000000
 42   -0.657468 1.697302 -2.688614 0.000000 0.000002 0.000000
 43   -0.664068 1.698578 2.869377 0.000000 0.000002 0.000000
time 19
  0   -0.010486 -0.546892 -0.601210 0.000000 0.000000 -1.571449
  1   -1.093036 0.000002 -0.326057 -1.570809 -1.570703 0.000022
  2   2.262337 0.113614 0.064702 -0.000014 0.000037 0.131489
  3   2.380047 0.353302 0.047440 0.000000 -0.000136 0.173937
  4   2.033756 0.190472 -0.000128 -0.166934 0.050983 0.255806
  5   2.451511 0.204909 -0.003447 -0.151399 -0.005684 0.289619
  6   7.247600 -0.397300 -0.109469 -0.005236 -0.005276 0.494432
  7   -2.022252 -0.104661 3.136172 1.238875 -1.024594 -4.799459
  8   1.168026 -0.537438 -0.063437 -0.998901 0.182506 -1.336123
  9   6.790376 -0.619176 0.015206 0.068637 -0.003021 0.099314
 10   8.637599 0.544015 -0.090417 -2.850663 0.439528 -0.654692
 11   6.790465 -0.619039 0.017802 0.044445 -0.011395 0.054244
 12   -2.022474 -0.104699 -2.873818 -1.163239 1.764361 -4.903356
 13   1.167898 -0.537463 0.063297 0.243709 -0.653216 -0.809017
 14   7.002743 -0.617765 -0.183752 0.366420 -0.277711 -1.857280
 15   8.209042 0.615527 -0.255885 2.142869 0.455786 0.524451
 16   7.002735 -0.617911 -0.183641 0.219919 -0.263352 -1.300553
 17   1.574674 0.609930 -0.000899 -0.076244 0.194905 0.066374
 18   -0.602177 0.511412 -0.000006 0.000000 0.000000 0.000000
 19   3.673773 0.177020 1.119313 -0.000002 -0.000014 -0.174510
 20   3.673767 0.176993 -1.117566 0.000007 -0.000003 -0.174546
 21   3.942357 1.330634 1.627658 0.000002 -0.000011 -0.000026
 22   -0.246060 -0.011889 0.516521 -0.000011 0.000031 0.000025
 23   3.942374 1.330659 -1.631083 0.000019 0.000002 -0.000024
 24   -0.246150 -0.011872 -0.516511 -0.000005 -0.000006 0.000048
 25   4.941364 1.997338 1.629330 0.000018 -0.000001 -0.000024
 26   4.941382 1.997366 -1.629410 -0.000001 0.000005 -0.000024
 27   2.918368 1.615358 1.514501 -0.000019 -0.000022 -0.000050
 28   2.920798 1.614964 -1.501142 -0.000002 -0.000009 -0.000024
 29   8.824059 0.150544 0.091743 0.000006 -0.000231 -0.174534
 30   2.111085 -0.561179 1.784320 -0.000008 -0.000682 0.000024
 31   2.121290 -0.561289 -1.853599 0.000000 0.000000 -0.000002
 32   -0.810489 -0.093824 3.127092 0.564080 -3.064442 -0.563586
 33   14.298673 -0.408176 0.475484 -0.006404 -0.009748 -0.413694
 34   15.835795 0.581398 0.242756 -0.007436 -0.212263 -0.117847
 35   -0.815868 -0.091229 -3.114430 -0.120039 3.021610 -0.057357
 36   14.294526 -0.410349 -0.463635 0.000728 0.012811 -0.799488
 37   15.834409 0.579420 -0.284600 -0.169306 -0.012782 0.676454
 38   1.139685 -3.453749 -2.823813 0.000000 0.000000 0.000001
 39   -4.457742 -1.054854 -0.746180 0.000000 0.000000 0.000000
 40   1.118101 -3.449769 3.237290 0.000000 0.000001 0.000000
 41   -4.433840 -1.059130 0.959566 -0.000001 0.000000 0.000000
 42   -0.657468 1.697302 -2.688614 0.000000 0.000002 0.000000
 43   -0.664068 1.698578 2.869377 0.000000 0.000002 0.000000
time 20
  0   -0.010486 -0.546892 -0.601210 0.000000 0.000000 -1.571449
  1   -1.093036 0.000002 -0.326057 -1.570809 -1.570703 0.000022
  2   2.262337 0.113614 0.064702 -0.000014 0.000037 0.131489
  3   2.380047 0.353302 0.047440 0.000000 -0.000028 0.174447
  4   2.033756 0.190472 -0.000128 -0.166860 0.050863 0.254755
  5   2.451511 0.204909 -0.003447 -0.151399 -0.005932 0.287935
  6   7.247600 -0.397300 -0.109469 -0.005236 -0.005276 0.494432
  7   -2.022252 -0.104661 3.136172 1.238875 -1.024594 -4.799459
  8   1.168026 -0.537438 -0.063437 -0.998711 0.230053 -1.242055
  9   6.790376 -0.619176 0.015206 0.067361 -0.037059 -0.109882
 10   8.637599 0.544015 -0.090417 -3.059201 0.402432 -0.631180
 11   6.790465 -0.619039 0.017802 0.043949 -0.037035 -0.092020
 12   -2.022474 -0.104699 -2.873818 -1.163239 1.764361 -4.903356
 13   1.167898 -0.537463 0.063297 0.239492 -0.665523 -0.830144
 14   7.002743 -0.617765 -0.183752 0.368241 -0.276916 -1.824608
 15   8.209042 0.615527 -0.255885 2.142869 0.455786 0.524451
 16   7.002735 -0.617911 -0.183641 0.222226 -0.261604 -1.277924
 17   1.574674 0.609930 -0.000899 0.015233 0.228346 0.030744
 18   -0.602177 0.511412 -0.000006 0.000000 0.000000 0.000000
 19   3.673773 0.177020 1.119313 -0.000002 -0.000014 -0.174510
 20   3.673767 0.176993 -1.117566 0.000007 -0.000003 -0.174546
 21   3.942357 1.330634 1.627658 0.000002 -0.000011 -0.000026
 22   -0.246060 -0.011889 0.516521 -0.000011 0.000031 0.000025
 23   3.942374 1.330659 -1.631083 0.000019 0.000002 -0.000024
 24   -0.246150 -0.011872 -0.516511 -0.000005 -0.000006 0.000048
 25   4.941364 1.997338 1.629330 0.000018 -0.000001 -0.000024
 26   4.941382 1.997366 -1.629410 -0.000001 0.000005 -0.000024
 27   2.918368 1.615358 1.514501 -0.000019 -0.000022 -0.000050
 28   2.920798 1.614964 -1.501142 -0.000002 -0.000009 -0.000024
 29   8.824059 0.150544 0.091743 0.000006 -0.000231 -0.174534
 30   2.111085 -0.561179 1.784320 -0.000008 -0.000682 0.000024
 31   2.121290 -0.561289 -1.853599 0.000000 0.000000 -0.000002
 32   -0.810489 -0.093824 3.127092 0.564080 -3.064442 -0.563586
 33   14.298673 -0.408176 0.475484 -0.006404 -0.009748 -0.413694
 34   15.835795 0.581398 0.242756 -0.007436 -0.212263 -0.117847
 35   -0.815868 -0.091229 -3.114430 -0.120039 3.021610 -0.057357
 36   14.294526 -0.410349 -0.463635 0.000728 0.012811 -0.799488
 37   15.834409 0.579420 -0.284600 -0.169306 -0.012782 0.676454
 38   1.139685 -3.453749 -2.823813 0.000000 0.000000 0.000001
 39   -4.457742 -1.054854 -0.746180 0.000000 0.000000 0.000000
 40   1.118101 -3.449769 3.237290 0.000000 0.000001 0.000000
 41   -4.433840 -1.059130 0.959566 -0.000001 0.000000 0.000000
 42   -0.657468 1.697302 -2.688614 0.000000 0.000002 0.000000
 43   -0.664068 1.698578 2.869377 0.000000 0.000002 0.000000
time 21
  0   -0.010486 -0.546892 -0.601210 0.000000 0.000000 -1.571449
  1   -1.093036 0.000002 -0.326057 -1.570809 -1.570703 0.000022
  2   2.262337 0.113614 0.064702 -0.000014 0.000037 0.131489
  3   2.380047 0.353302 0.047440 0.000000 -0.000028 0.174447
  4   2.033756 0.190472 -0.000128 -0.166860 0.050863 0.254755
  5   2.451511 0.204909 -0.003447 -0.151399 -0.005932 0.287935
  6   7.247600 -0.397300 -0.109469 -0.005236 -0.005276 0.494432
  7   -2.022252 -0.104661 3.136172 1.238875 -1.024594 -4.799459
  8   1.168026 -0.537438 -0.063437 -0.998711 0.276644 -1.163106
  9   6.790376 -0.619176 0.015206 0.065974 -0.068226 -0.307758
 10   8.637599 0.544015 -0.090417 -3.446862 0.321131 -0.579309
 11   6.790465 -0.619039 0.017802 0.042226 -0.060543 -0.230324
 12   -2.022474 -0.104699 -2.873818 -1.163239 1.764361 -4.903356
 13   1.167898 -0.537463 0.063297 0.236399 -0.675439 -0.847275
 14   7.002743 -0.617765 -0.183752 0.369665 -0.276121 -1.798454
 15   8.209042 0.615527 -0.255885 2.142869 0.455786 0.524451
 16   7.002735 -0.617911 -0.183641 0.224062 -0.260025 -1.259876
 17   1.574674 0.609930 -0.000899 0.124623 0.268154 -0.005035
 18   -0.602177 0.511412 -0.000006 0.000000 0.000000 0.000000
 19   3.673773 0.177020 1.119313 -0.000002 -0.000014 -0.174510
 20   3.673767 0.176993 -1.117566 0.000007 -0.000003 -0.174546
 21   3.942357 1.330634 1.627658 0.000002 -0.000011 -0.000026
 22   -0.246060 -0.011889 0.516521 -0.000011 0.000031 0.000025
 23   3.942374 1.330659 -1.631083 0.000019 0.000002 -0.000024
 24   -0.246150 -0.011872 -0.516511 -0.000005 -0.000006 0.000048
 25   4.941364 1.997338 1.629330 0.000018 -0.000001 -0.000024
 26   4.941382 1.997366 -1.629410 -0.000001 0.000005 -0.000024
 27   2.918368 1.615358 1.514501 -0.000019 -0.000022 -0.000050
 28   2.920798 1.614964 -1.501142 -0.000002 -0.000009 -0.000024
 29   8.824059 0.150544 0.091743 0.000006 -0.000231 -0.174534
 30   2.111085 -0.561179 1.784320 -0.000008 -0.000682 0.000024
 31   2.121290 -0.561289 -1.853599 0.000000 0.000000 -0.000002
 32   -0.810489 -0.093824 3.127092 0.564080 -3.064442 -0.563586
 33   14.298673 -0.408176 0.475484 -0.006404 -0.009748 -0.413694
 34   15.835795 0.581398 0.242756 -0.007436 -0.212263 -0.117847
 35   -0.815868 -0.091229 -3.114430 -0.120039 3.021610 -0.057357
 36   14.294526 -0.410349 -0.463635 0.000728 0.012811 -0.799488
 37   15.834409 0.579420 -0.284600 -0.169306 -0.012782 0.676454
 38   1.139685 -3.453749 -2.823813 0.000000 0.000000 0.000001
 39   -4.457742 -1.054854 -0.746180 0.000000 0.000000 0.000000
 40   1.118101 -3.449769 3.237290 0.000000 0.000001 0.000000
 41   -4.433840 -1.059130 0.959566 -0.000001 0.000000 0.000000
 42   -0.657468 1.697302 -2.688614 0.000000 0.000002 0.000000
 43   -0.664068 1.698578 2.869377 0.000000 0.000002 0.000000
time 22
  0   -0.010486 -0.546892 -0.601210 0.000000 0.000000 -1.571449
  1   -1.093036 0.000002 -0.326057 -1.570809 -1.570703 0.000022
  2   2.262337 0.113614 0.064702 -0.000014 0.000037 0.131489
  3   2.380047 0.353302 0.047440 0.000000 -0.000028 0.174447
  4   2.033756 0.190472 -0.000128 -0.166860 0.050863 0.254755
  5   2.451511 0.204909 -0.003447 -0.151399 -0.005932 0.287935
  6   7.247600 -0.397300 -0.109469 -0.005236 -0.005276 0.494432
  7   -2.022252 -0.104661 3.136172 1.238875 -1.024594 -4.799459
  8   1.168026 -0.537438 -0.063437 -0.998901 0.306279 -1.110600
  9   6.790376 -0.619176 0.015206 0.065253 -0.090184 -0.455523
 10   8.637599 0.544015 -0.090417 -3.820962 0.239830 -0.527438
 11   6.790465 -0.619039 0.017802 0.040241 -0.076944 -0.333505
 12   -2.022474 -0.104699 -2.873818 -1.163239 1.764361 -4.903356
 13   1.167898 -0.537463 0.063297 0.234993 -0.681796 -0.858716
 14   7.002743 -0.617765 -0.183752 0.370519 -0.275610 -1.781375
 15   8.209042 0.615527 -0.255885 2.142869 0.455786 0.524451
 16   7.002735 -0.617911 -0.183641 0.225286 -0.259010 -1.247899
 17   1.574674 0.609930 -0.000899 0.216343 0.301548 -0.032645
 18   -0.602177 0.511412 -0.000006 0.000000 0.000000 0.000000
 19   3.673773 0.177020 1.119313 -0.000002 -0.000014 -0.174510
 20   3.673767 0.176993 -1.117566 0.000007 -0.000003 -0.174546
 21   3.942357 1.330634 1.627658 0.000002 -0.000011 -0.000026
 22   -0.246060 -0.011889 0.516521 -0.000011 0.000031 0.000025
 23   3.942374 1.330659 -1.631083 0.000019 0.000002 -0.000024
 24   -0.246150 -0.011872 -0.516511 -0.000005 -0.000006 0.000048
 25   4.941364 1.997338 1.629330 0.000018 -0.000001 -0.000024
 26   4.941382 1.997366 -1.629410 -0.000001 0.000005 -0.000024
 27   2.918368 1.615358 1.514501 -0.000019 -0.000022 -0.000050
 28   2.920798 1.614964 -1.501142 -0.000002 -0.000009 -0.000024
 29   8.824059 0.150544 0.091743 0.000006 -0.000231 -0.174534
 30   2.111085 -0.561179 1.784320 -0.000008 -0.000682 0.000024
 31   2.121290 -0.561289 -1.853599 0.000000 0.000000 -0.000002
 32   -0.810489 -0.093824 3.127092 0.564080 -3.064442 -0.563586
 33   14.298673 -0.408176 0.475484 -0.006404 -0.009748 -0.413694
 34   15.835795 0.581398 0.242756 -0.007436 -0.212263 -0.117847
 35   -0.815868 -0.091229 -3.114430 -0.120039 3.021610 -0.057357
 36   14.294526 -0.410349 -0.463635 0.000728 0.012811 -0.799488
 37   15.834409 0.579420 -0.284600 -0.169306 -0.012782 0.676454
 38   1.139685 -3.453749 -2.823813 0.000000 0.000000 0.000001
 39   -4.457742 -1.054854 -0.746180 0.000000 0.000000 0.000000
 40   1.118101 -3.449769 3.237290 0.000000 0.000001 0.000000
 41   -4.433840 -1.059130 0.959566 -0.000001 0.000000 0.000000
 42   -0.657468 1.697302 -2.688614 0.000000 0.000002 0.000000
 43   -0.664068 1.698578 2.869377 0.000000 0.000002 0.000000
time 23
  0   -0.010486 -0.546892 -0.601210 0.000000 0.000000 -1.571449
  1   -1.093036 0.000002 -0.326057 -1.570809 -1.570703 0.000022
  2   2.262337 0.113614 0.064702 -0.000014 0.000037 0.131489
  3   2.380047 0.353302 0.047440 0.000000 -0.000028 0.174447
  4   2.033756 0.190472 -0.000128 -0.166860 0.050863 0.254755
  5   2.451511 0.204909 -0.003447 -0.151399 -0.005932 0.287935
  6   7.247600 -0.397300 -0.109469 -0.005236 -0.005276 0.494432
  7   -2.022252 -0.104661 3.136172 1.238875 -1.024594 -4.799459
  8   1.168026 -0.537438 -0.063437 -0.999154 0.315889 -1.091938
  9   6.790376 -0.619176 0.015206 0.065031 -0.098259 -0.512803
 10   8.637599 0.544015 -0.090417 -3.988461 0.202805 -0.503999
 11   6.790465 -0.619039 0.017802 0.039336 -0.083084 -0.373300
 12   -2.022474 -0.104699 -2.873818 -1.163239 1.764361 -4.903356
 13   1.167898 -0.537463 0.063297 0.234290 -0.683881 -0.862893
 14   7.002743 -0.617765 -0.183752 0.370860 -0.275326 -1.775105
 15   8.209042 0.615527 -0.255885 2.142869 0.455786 0.524451
 16   7.002735 -0.617911 -0.183641 0.225710 -0.258615 -1.243594
 17   1.574674 0.609930 -0.000899 0.254770 0.315535 -0.043807
 18   -0.602177 0.511412 -0.000006 0.000000 0.000000 0.000000
 19   3.673773 0.177020 1.119313 -0.000002 -0.000014 -0.174510
 20   3.673767 0.176993 -1.117566 0.000007 -0.000003 -0.174546
 21   3.942357 1.330634 1.627658 0.000002 -0.000011 -0.000026
 22   -0.246060 -0.011889 0.516521 -0.000011 0.000031 0.000025
 23   3.942374 1.330659 -1.631083 0.000019 0.000002 -0.000024
 24   -0.246150 -0.011872 -0.516511 -0.000005 -0.000006 0.000048
 25   4.941364 1.997338 1.629330 0.000018 -0.000001 -0.000024
 26   4.941382 1.997366 -1.629410 -0.000001 0.000005 -0.000024
 27   2.918368 1.615358 1.514501 -0.000019 -0.000022 -0.000050
 28   2.920798 1.614964 -1.501142 -0.000002 -0.000009 -0.000024
 29   8.824059 0.150544 0.091743 0.000006 -0.000231 -0.174534
 30   2.111085 -0.561179 1.784320 -0.000008 -0.000682 0.000024
 31   2.121290 -0.561289 -1.853599 0.000000 0.000000 -0.000002
 32   -0.810489 -0.093824 3.127092 0.564080 -3.064442 -0.563586
 33   14.298673 -0.408176 0.475484 -0.006404 -0.009748 -0.413694
 34   15.835795 0.581398 0.242756 -0.007436 -0.212263 -0.117847
 35   -0.815868 -0.091229 -3.114430 -0.120039 3.021610 -0.057357
 36   14.294526 -0.410349 -0.463635 0.000728 0.012811 -0.799488
 37   15.834409 0.579420 -0.284600 -0.169306 -0.012782 0.676454
 38   1.139685 -3.453749 -2.823813 0.000000 0.000000 0.000001
 39   -4.457742 -1.054854 -0.746180 0.000000 0.000000 0.000000
 40   1.118101 -3.449769 3.237290 0.000000 0.000001 0.000000
 41   -4.433840 -1.059130 0.959566 -0.000001 0.000000 0.000000
 42   -0.657468 1.697302 -2.688614 0.000000 0.000002 0.000000
 43   -0.664068 1.698578 2.869377 0.000000 0.000002 0.000000
end
