version 1
nodes
  0 "Bip01" -1
  1 "Bip01 Pelvis" 0
  2 "Bip01 Spine" 1
  3 "Bip01 Spine1" 2
  4 "Bip01 Spine2" 3
  5 "Bip01 Spine3" 4
  6 "Bip01 Neck" 5
  7 "Bip01 L Arm" 6
  8 "Bip01 L Arm1" 7
  9 "Bip01 L Arm2" 8
 10 "Bip01 L Hand" 9
 11 "Bip06 L elbow2-smooth" 8
 12 "Bip01 R Arm" 6
 13 "Bip01 R Arm1" 12
 14 "Bip01 R Arm2" 13
 15 "Bip01 R Hand" 14
 16 "Bip06 R elbow2-smooth" 13
 17 "Bip01 Head" 6
 18 "Bip06 Head_helper" 17
 19 "Bip06 Head_eyes_l" 18
 20 "Bip06 Head_eyes_r" 18
 21 "Bip06 Head_blink_l" 18
 22 "Bip06 Head_blink_smooth_l1" 21
 23 "Bip06 Head_blink_r" 18
 24 "Bip06 Head_blink_smooth_r1" 23
 25 "Bip06 Head_L_eyebrow" 18
 26 "Bip06 Head_R_eyebrow" 18
 27 "Bip06 Head_blink_l_lid" 18
 28 "Bip06 Head_blink_r_lid" 18
 29 "Bip06 bunny" 18
 30 "Bip06 bunnyL" 29
 31 "Bip06 bunnyR" 29
 32 "Bip01 L Leg" 1
 33 "Bip01 L Leg1" 32
 34 "Bip01 L Foot" 33
 35 "Bip01 R Leg" 1
 36 "Bip01 R Leg1" 35
 37 "Bip01 R Foot" 36
 38 "Bip03 HairR1" 17
 39 "Bip03 HairR2" 38
 40 "Bip03 HairL1" 17
 41 "Bip03 HairL2" 40
 42 "Bip03 swingR" 17
 43 "Bip03 swingL" 17
end
skeleton
time 0
  0   0.001233 0.187506 0.867585 0.000000 0.000000 -1.571449
  1   -1.093036 0.000002 -0.326057 -1.570809 -1.570379 0.000022
  2   2.262337 0.113614 0.064702 -0.241441 -0.007502 -0.059755
  3   2.380047 0.353302 0.047440 0.018001 0.016714 -0.079276
  4   2.033756 0.190472 -0.000128 -0.233161 -0.061421 -0.298483
  5   2.451511 0.204909 -0.003447 -0.237822 -0.043141 -0.169086
  6   7.247600 -0.397300 -0.109469 0.000001 0.000033 0.087015
  7   -2.022252 -0.104661 3.136172 -0.298879 -1.361862 -2.935557
  8   1.168026 -0.537438 -0.063437 0.636899 0.931032 0.320794
  9   6.790376 -0.619176 0.015206 0.004669 0.003720 -1.892952
 10   8.637599 0.544015 -0.090417 -1.944564 -0.086711 -0.069499
 11   6.790465 -0.619039 0.017802 0.008563 -0.010116 -1.340335
 12   -2.022474 -0.104699 -2.873818 0.298873 1.361800 -2.936355
 13   1.167898 -0.537463 0.063297 -0.321737 -1.331341 -0.279459
 14   7.002743 -0.617765 -0.183752 0.000286 0.000250 -1.849772
 15   8.209042 0.615527 -0.255885 2.158040 -0.134813 0.133438
 16   7.002735 -0.617911 -0.183641 0.013168 0.010300 -1.313468
 17   1.574674 0.609930 -0.000899 0.696473 0.026397 0.270879
 18   -0.602177 0.511412 -0.000006 0.000000 0.000000 0.000000
 19   3.673773 0.177020 1.119313 -0.000002 -0.000014 -0.174510
 20   3.673767 0.176993 -1.117566 0.000007 -0.000003 -0.174546
 21   3.942357 1.330634 1.627658 0.000002 -0.000011 -0.000026
 22   -0.246060 -0.011889 0.516521 -0.000011 0.000031 0.000025
 23   3.942374 1.330659 -1.631083 0.000019 0.000002 -0.000024
 24   -0.246150 -0.011872 -0.516511 -0.000005 -0.000006 0.000048
 25   4.941364 1.997338 1.629330 0.000018 -0.000001 -0.000024
 26   4.941382 1.997366 -1.629410 -0.000001 0.000005 -0.000024
 27   2.918368 1.615358 1.514501 -0.000019 -0.000022 -0.000050
 28   2.920798 1.614964 -1.501142 -0.000002 -0.000009 -0.000024
 29   8.824059 0.150544 0.091743 0.000006 -0.000231 -0.174534
 30   2.111085 -0.561179 1.784320 -0.000008 -0.000682 0.000024
 31   2.121290 -0.561289 -1.853599 0.000000 0.000000 -0.000002
 32   -0.810489 -0.093824 3.127092 -0.129210 -2.975337 -0.324172
 33   14.298673 -0.408176 0.475484 0.000020 -0.000248 -0.436243
 34   15.835795 0.581398 0.242756 0.161858 -0.014056 0.022664
 35   -0.815868 -0.091229 -3.114430 0.096037 3.002497 -0.031283
 36   14.294526 -0.410349 -0.463635 0.000093 0.000048 -0.399441
 37   15.834409 0.579420 -0.284600 -0.088743 0.040098 0.278038
 38   1.139685 -3.453749 -2.823813 0.000000 0.000000 0.000001
 39   -4.457742 -1.054854 -0.746180 0.000000 0.000000 0.000000
 40   1.118101 -3.449769 3.237290 0.000000 0.000001 0.000000
 41   -4.433840 -1.059130 0.959566 -0.000001 0.000000 0.000000
 42   -0.657468 1.697302 -2.688614 0.000000 0.000002 0.000000
 43   -0.664068 1.698578 2.869377 0.000000 0.000002 0.000000
time 1
  0   0.001233 0.187506 0.867585 0.000000 0.000000 -1.571449
  1   -1.093036 0.000002 -0.326057 -1.570809 -1.570379 0.000022
  2   2.262337 0.113614 0.064702 -0.240817 -0.017545 -0.100559
  3   2.380047 0.353302 0.047440 -0.053359 0.001302 -0.120699
  4   2.033756 0.190472 -0.000128 -0.295829 -0.045937 -0.260315
  5   2.451511 0.204909 -0.003447 -0.300127 -0.026612 -0.131294
  6   7.247600 -0.397300 -0.109469 0.000001 0.000033 0.087015
  7   -2.022252 -0.104661 3.136172 -0.448801 -1.349582 -2.790367
  8   1.168026 -0.537438 -0.063437 -0.498732 0.895007 -0.581616
  9   6.790376 -0.619176 0.015206 0.004558 0.003920 -2.021171
 10   8.637599 0.544015 -0.090417 -1.934084 0.174297 -0.014517
 11   6.790465 -0.619039 0.017802 0.009147 -0.009974 -1.430078
 12   -2.022474 -0.104699 -2.873818 0.298873 1.361800 -2.936355
 13   1.167898 -0.537463 0.063297 0.804024 -0.897717 -1.508133
 14   7.002743 -0.617765 -0.183752 0.000286 0.000250 -1.626760
 15   8.209042 0.615527 -0.255885 2.171414 -0.012623 -0.046914
 16   7.002735 -0.617911 -0.183641 0.013497 0.009003 -1.157328
 17   1.574674 0.609930 -0.000899 0.846767 -0.042521 0.279787
 18   -0.602177 0.511412 -0.000006 0.000000 0.000000 0.000000
 19   3.673773 0.177020 1.119313 -0.000002 -0.000014 -0.174510
 20   3.673767 0.176993 -1.117566 0.000007 -0.000003 -0.174546
 21   3.942357 1.330634 1.627658 0.000002 -0.000011 -0.000026
 22   -0.246060 -0.011889 0.516521 -0.000011 0.000031 0.000025
 23   3.942374 1.330659 -1.631083 0.000019 0.000002 -0.000024
 24   -0.246150 -0.011872 -0.516511 -0.000005 -0.000006 0.000048
 25   4.941364 1.997338 1.629330 0.000018 -0.000001 -0.000024
 26   4.941382 1.997366 -1.629410 -0.000001 0.000005 -0.000024
 27   2.918368 1.615358 1.514501 -0.000019 -0.000022 -0.000050
 28   2.920798 1.614964 -1.501142 -0.000002 -0.000009 -0.000024
 29   8.824059 0.150544 0.091743 0.000006 -0.000231 -0.174534
 30   2.111085 -0.561179 1.784320 -0.000008 -0.000682 0.000024
 31   2.121290 -0.561289 -1.853599 0.000000 0.000000 -0.000002
 32   -0.810489 -0.093824 3.127092 -0.129210 -2.975337 -0.324172
 33   14.298673 -0.408176 0.475484 0.000020 -0.000248 -0.436243
 34   15.835795 0.581398 0.242756 0.161858 -0.014056 0.022664
 35   -0.815868 -0.091229 -3.114430 0.096037 3.002497 -0.031283
 36   14.294526 -0.410349 -0.463635 0.000093 0.000048 -0.399441
 37   15.834409 0.579420 -0.284600 -0.088743 0.040098 0.278038
 38   1.139685 -3.453749 -2.823813 0.000000 0.000000 0.000001
 39   -4.457742 -1.054854 -0.746180 0.000000 0.000000 0.000000
 40   1.118101 -3.449769 3.237290 0.000000 0.000001 0.000000
 41   -4.433840 -1.059130 0.959566 -0.000001 0.000000 0.000000
 42   -0.657468 1.697302 -2.688614 0.000000 0.000002 0.000000
 43   -0.664068 1.698578 2.869377 0.000000 0.000002 0.000000
time 2
  0   0.001233 0.187506 0.867585 0.000000 0.000000 -1.571449
  1   -1.093036 0.000002 -0.326057 -1.570809 -1.570379 0.000022
  2   2.262337 0.113614 0.064702 -0.239900 -0.027576 -0.141381
  3   2.380047 0.353302 0.047440 -0.124193 -0.016699 -0.161061
  4   2.033756 0.190472 -0.000128 -0.357888 -0.028056 -0.223089
  5   2.451511 0.204909 -0.003447 -0.361799 -0.007499 -0.094493
  6   7.247600 -0.397300 -0.109469 0.000001 0.000033 0.087015
  7   -2.022252 -0.104661 3.136172 -0.298879 -1.361862 -2.935557
  8   1.168026 -0.537438 -0.063437 -1.051993 0.520467 -0.883874
  9   6.790376 -0.619176 0.015206 0.005113 0.003186 -1.692963
 10   8.637599 0.544015 -0.090417 -1.959623 0.391240 -0.035280
 11   6.790465 -0.619039 0.017802 0.007804 -0.010372 -1.200301
 12   -2.022474 -0.104699 -2.873818 0.298873 1.361829 -2.936355
 13   1.167898 -0.537463 0.063297 0.999301 -0.403325 -1.809717
 14   7.002743 -0.617765 -0.183752 0.000229 0.000250 -1.405068
 15   8.209042 0.615527 -0.255885 2.165303 0.092015 -0.200084
 16   7.002735 -0.617911 -0.183641 0.013780 0.007706 -1.002291
 17   1.574674 0.609930 -0.000899 0.993406 -0.130254 0.271249
 18   -0.602177 0.511412 -0.000006 0.000000 0.000000 0.000000
 19   3.673773 0.177020 1.119313 -0.000002 -0.000014 -0.174510
 20   3.673767 0.176993 -1.117566 0.000007 -0.000003 -0.174546
 21   3.942357 1.330634 1.627658 0.000002 -0.000011 -0.000026
 22   -0.246060 -0.011889 0.516521 -0.000011 0.000031 0.000025
 23   3.942374 1.330659 -1.631083 0.000019 0.000002 -0.000024
 24   -0.246150 -0.011872 -0.516511 -0.000005 -0.000006 0.000048
 25   4.941364 1.997338 1.629330 0.000018 -0.000001 -0.000024
 26   4.941382 1.997366 -1.629410 -0.000001 0.000005 -0.000024
 27   2.918368 1.615358 1.514501 -0.000019 -0.000022 -0.000050
 28   2.920798 1.614964 -1.501142 -0.000002 -0.000009 -0.000024
 29   8.824059 0.150544 0.091743 0.000006 -0.000231 -0.174534
 30   2.111085 -0.561179 1.784320 -0.000008 -0.000682 0.000024
 31   2.121290 -0.561289 -1.853599 0.000000 0.000000 -0.000002
 32   -0.810489 -0.093824 3.127092 -0.129210 -2.975337 -0.324172
 33   14.298673 -0.408176 0.475484 0.000020 -0.000248 -0.436243
 34   15.835795 0.581398 0.242756 0.161858 -0.014056 0.022664
 35   -0.815868 -0.091229 -3.114430 0.096037 3.002497 -0.031283
 36   14.294526 -0.410349 -0.463635 0.000093 0.000048 -0.399441
 37   15.834409 0.579420 -0.284600 -0.088743 0.040098 0.278038
 38   1.139685 -3.453749 -2.823813 0.000000 0.000000 0.000001
 39   -4.457742 -1.054854 -0.746180 0.000000 0.000000 0.000000
 40   1.118101 -3.449769 3.237290 0.000000 0.000001 0.000000
 41   -4.433840 -1.059130 0.959566 -0.000001 0.000000 0.000000
 42   -0.657468 1.697302 -2.688614 0.000000 0.000002 0.000000
 43   -0.664068 1.698578 2.869377 0.000000 0.000002 0.000000
time 3
  0   0.001233 0.187506 0.867585 0.000000 0.000000 -1.571449
  1   -1.093036 0.000002 -0.326057 -1.570809 -1.570379 0.000022
  2   2.262337 0.113614 0.064702 -0.239658 -0.030464 -0.152982
  3   2.380047 0.353302 0.047440 -0.124433 -0.020222 -0.173039
  4   2.033756 0.190472 -0.000128 -0.357888 0.007191 -0.178614
  5   2.451511 0.204909 -0.003447 -0.360875 0.027568 -0.050113
  6   7.247600 -0.397300 -0.109469 0.000001 0.000033 0.087015
  7   -2.022252 -0.104661 3.136172 0.765049 -1.296859 -3.975180
  8   1.168026 -0.537438 -0.063437 -1.145648 0.676945 -0.733947
  9   6.790376 -0.619176 0.015206 0.005446 0.002852 -1.544217
 10   8.637599 0.544015 -0.090417 -2.141125 0.453254 -0.328347
 11   6.790465 -0.619039 0.017802 0.007191 -0.010571 -1.096198
 12   -2.022474 -0.104699 -2.873818 0.298873 1.361829 -2.936355
 13   1.167898 -0.537463 0.063297 0.933084 -0.227678 -1.831449
 14   7.002743 -0.617765 -0.183752 0.000229 0.000250 -1.194927
 15   8.209042 0.615527 -0.255885 2.164799 0.095798 -0.205857
 16   7.002735 -0.617911 -0.183641 0.014062 0.006522 -0.855037
 17   1.574674 0.609930 -0.000899 0.971552 -0.184925 0.200801
 18   -0.602177 0.511412 -0.000006 0.000000 0.000000 0.000000
 19   3.673773 0.177020 1.119313 -0.000002 -0.000014 -0.174510
 20   3.673767 0.176993 -1.117566 0.000007 -0.000003 -0.174546
 21   3.942357 1.330634 1.627658 0.000002 -0.000011 -0.000026
 22   -0.246060 -0.011889 0.516521 -0.000011 0.000031 0.000025
 23   3.942374 1.330659 -1.631083 0.000019 0.000002 -0.000024
 24   -0.246150 -0.011872 -0.516511 -0.000005 -0.000006 0.000048
 25   4.941364 1.997338 1.629330 0.000018 -0.000001 -0.000024
 26   4.941382 1.997366 -1.629410 -0.000001 0.000005 -0.000024
 27   2.918368 1.615358 1.514501 -0.000019 -0.000022 -0.000050
 28   2.920798 1.614964 -1.501142 -0.000002 -0.000009 -0.000024
 29   8.824059 0.150544 0.091743 0.000006 -0.000231 -0.174534
 30   2.111085 -0.561179 1.784320 -0.000008 -0.000682 0.000024
 31   2.121290 -0.561289 -1.853599 0.000000 0.000000 -0.000002
 32   -0.810489 -0.093824 3.127092 -0.129210 -2.975337 -0.324172
 33   14.298673 -0.408176 0.475484 0.000020 -0.000248 -0.436243
 34   15.835795 0.581398 0.242756 0.161858 -0.014056 0.022664
 35   -0.815868 -0.091229 -3.114430 0.096037 3.002497 -0.031283
 36   14.294526 -0.410349 -0.463635 0.000093 0.000048 -0.399441
 37   15.834409 0.579420 -0.284600 -0.088743 0.040098 0.278038
 38   1.139685 -3.453749 -2.823813 0.000000 0.000000 0.000001
 39   -4.457742 -1.054854 -0.746180 0.000000 0.000000 0.000000
 40   1.118101 -3.449769 3.237290 0.000000 0.000001 0.000000
 41   -4.433840 -1.059130 0.959566 -0.000001 0.000000 0.000000
 42   -0.657468 1.697302 -2.688614 0.000000 0.000002 0.000000
 43   -0.664068 1.698578 2.869377 0.000000 0.000002 0.000000
time 4
  0   0.001233 0.187506 0.867585 0.000000 0.000000 -1.571449
  1   -1.093036 0.000002 -0.326057 -1.570809 -1.570379 0.000022
  2   2.262337 0.113614 0.064702 -0.240384 -0.023741 -0.125786
  3   2.380047 0.353302 0.047440 -0.025907 -0.002006 -0.147614
  4   2.033756 0.190472 -0.000128 -0.268202 0.067677 -0.110107
  5   2.451511 0.204909 -0.003447 -0.269368 0.086671 0.019107
  6   7.247600 -0.397300 -0.109469 0.000001 0.000033 0.087015
  7   -2.022252 -0.104661 3.136172 1.212610 -1.046070 -4.391593
  8   1.168026 -0.537438 -0.063437 -1.180959 0.752819 -0.726672
  9   6.790376 -0.619176 0.015206 0.005834 0.002185 -1.314343
 10   8.637599 0.544015 -0.090417 -2.380485 0.375684 -0.670897
 11   6.790465 -0.619039 0.017802 0.006315 -0.010855 -0.935285
 12   -2.022474 -0.104699 -2.873818 0.298873 1.361829 -2.936355
 13   1.167898 -0.537463 0.063297 0.746312 -0.177181 -1.602749
 14   7.002743 -0.617765 -0.183752 0.000229 0.000250 -0.583562
 15   8.209042 0.615527 -0.255885 2.133450 -0.219703 0.269108
 16   7.002735 -0.617911 -0.183641 0.014533 0.003308 -0.427127
 17   1.574674 0.609930 -0.000899 0.707968 -0.203929 0.054066
 18   -0.602177 0.511412 -0.000006 0.000000 0.000000 0.000000
 19   3.673773 0.177020 1.119313 -0.000002 -0.000014 -0.174510
 20   3.673767 0.176993 -1.117566 0.000007 -0.000003 -0.174546
 21   3.942357 1.330634 1.627658 0.000002 -0.000011 -0.000026
 22   -0.246060 -0.011889 0.516521 -0.000011 0.000031 0.000025
 23   3.942374 1.330659 -1.631083 0.000019 0.000002 -0.000024
 24   -0.246150 -0.011872 -0.516511 -0.000005 -0.000006 0.000048
 25   4.941364 1.997338 1.629330 0.000018 -0.000001 -0.000024
 26   4.941382 1.997366 -1.629410 -0.000001 0.000005 -0.000024
 27   2.918368 1.615358 1.514501 -0.000019 -0.000022 -0.000050
 28   2.920798 1.614964 -1.501142 -0.000002 -0.000009 -0.000024
 29   8.824059 0.150544 0.091743 0.000006 -0.000231 -0.174534
 30   2.111085 -0.561179 1.784320 -0.000008 -0.000682 0.000024
 31   2.121290 -0.561289 -1.853599 0.000000 0.000000 -0.000002
 32   -0.810489 -0.093824 3.127092 -0.129210 -2.975337 -0.324172
 33   14.298673 -0.408176 0.475484 0.000020 -0.000248 -0.436243
 34   15.835795 0.581398 0.242756 0.161858 -0.014056 0.022664
 35   -0.815868 -0.091229 -3.114430 0.096037 3.002497 -0.031283
 36   14.294526 -0.410349 -0.463635 0.000093 0.000048 -0.399441
 37   15.834409 0.579420 -0.284600 -0.088743 0.040098 0.278038
 38   1.139685 -3.453749 -2.823813 0.000000 0.000000 0.000001
 39   -4.457742 -1.054854 -0.746180 0.000000 0.000000 0.000000
 40   1.118101 -3.449769 3.237290 0.000000 0.000001 0.000000
 41   -4.433840 -1.059130 0.959566 -0.000001 0.000000 0.000000
 42   -0.657468 1.697302 -2.688614 0.000000 0.000002 0.000000
 43   -0.664068 1.698578 2.869377 0.000000 0.000002 0.000000
time 5
  0   0.001233 0.187506 0.867585 0.000000 0.000000 -1.571449
  1   -1.093036 0.000002 -0.326057 -1.570809 -1.570379 0.000022
  2   2.262337 0.113614 0.064702 -0.241250 -0.012212 -0.078946
  3   2.380047 0.353302 0.047440 0.126458 0.021305 -0.100028
  4   2.033756 0.190472 -0.000128 -0.124479 0.134515 -0.014995
  5   2.451511 0.204909 -0.003447 -0.123618 0.151166 0.114998
  6   7.247600 -0.397300 -0.109469 0.000001 0.000033 0.087015
  7   -2.022252 -0.104661 3.136172 1.357835 -0.804591 -4.508703
  8   1.168026 -0.537438 -0.063437 -0.833676 0.640769 -0.531324
  9   6.790376 -0.619176 0.015206 0.006056 0.001918 -1.227329
 10   8.637599 0.544015 -0.090417 -2.659034 0.209351 -0.914263
 11   6.790465 -0.619039 0.017802 0.005994 -0.010912 -0.874438
 12   -2.022474 -0.104699 -2.873818 0.298873 1.361829 -2.936355
 13   1.167898 -0.537463 0.063297 0.718968 -0.130498 -1.235545
 14   7.002743 -0.617765 -0.183752 0.000229 0.000250 -0.343966
 15   8.209042 0.615527 -0.255885 1.916518 -0.502367 0.860979
 16   7.002735 -0.617911 -0.183641 0.014627 0.002180 -0.259286
 17   1.574674 0.609930 -0.000899 0.315740 -0.257417 -0.135692
 18   -0.602177 0.511412 -0.000006 0.000000 0.000000 0.000000
 19   3.673773 0.177020 1.119313 -0.000002 -0.000014 -0.174510
 20   3.673767 0.176993 -1.117566 0.000007 -0.000003 -0.174546
 21   3.942357 1.330634 1.627658 0.000002 -0.000011 -0.000026
 22   -0.246060 -0.011889 0.516521 -0.000011 0.000031 0.000025
 23   3.942374 1.330659 -1.631083 0.000019 0.000002 -0.000024
 24   -0.246150 -0.011872 -0.516511 -0.000005 -0.000006 0.000048
 25   4.941364 1.997338 1.629330 0.000018 -0.000001 -0.000024
 26   4.941382 1.997366 -1.629410 -0.000001 0.000005 -0.000024
 27   2.918368 1.615358 1.514501 -0.000019 -0.000022 -0.000050
 28   2.920798 1.614964 -1.501142 -0.000002 -0.000009 -0.000024
 29   8.824059 0.150544 0.091743 0.000006 -0.000231 -0.174534
 30   2.111085 -0.561179 1.784320 -0.000008 -0.000682 0.000024
 31   2.121290 -0.561289 -1.853599 0.000000 0.000000 -0.000002
 32   -0.810489 -0.093824 3.127092 -0.129210 -2.975337 -0.324172
 33   14.298673 -0.408176 0.475484 0.000020 -0.000248 -0.436243
 34   15.835795 0.581398 0.242756 0.161858 -0.014056 0.022664
 35   -0.815868 -0.091229 -3.114430 0.096037 3.002497 -0.031283
 36   14.294526 -0.410349 -0.463635 0.000093 0.000048 -0.399441
 37   15.834409 0.579420 -0.284600 -0.088743 0.040098 0.278038
 38   1.139685 -3.453749 -2.823813 0.000000 0.000000 0.000001
 39   -4.457742 -1.054854 -0.746180 0.000000 0.000000 0.000000
 40   1.118101 -3.449769 3.237290 0.000000 0.000001 0.000000
 41   -4.433840 -1.059130 0.959566 -0.000001 0.000000 0.000000
 42   -0.657468 1.697302 -2.688614 0.000000 0.000002 0.000000
 43   -0.664068 1.698578 2.869377 0.000000 0.000002 0.000000
time 6
  0   0.001233 0.187506 0.867585 0.000000 0.000000 -1.571449
  1   -1.093036 0.000002 -0.326057 -1.570809 -1.570379 0.000022
  2   2.262337 0.113614 0.064702 -0.241454 0.000552 -0.026179
  3   2.380047 0.353302 0.047440 0.291980 0.038419 -0.042893
  4   2.033756 0.190472 -0.000128 0.036396 0.184755 0.087258
  5   2.451511 0.204909 -0.003447 0.039061 0.198518 0.217676
  6   7.247600 -0.397300 -0.109469 0.000001 0.000033 0.087015
  7   -2.022252 -0.104661 3.136172 1.410365 -0.664812 -4.543920
  8   1.168026 -0.537438 -0.063437 -0.575871 0.344367 -0.558779
  9   6.790376 -0.619176 0.015206 0.006611 0.000916 -0.898291
 10   8.637599 0.544015 -0.090417 -2.828559 0.031193 -0.982339
 11   6.790465 -0.619039 0.017802 0.004797 -0.011310 -0.643911
 12   -2.022474 -0.104699 -2.873818 0.298873 1.361800 -2.936355
 13   1.167898 -0.537463 0.063297 0.953399 0.028519 -1.422537
 14   7.002743 -0.617765 -0.183752 0.000229 0.000250 -0.289100
 15   8.209042 0.615527 -0.255885 1.931834 -0.507814 0.826881
 16   7.002735 -0.617911 -0.183641 0.014627 0.002067 -0.220927
 17   1.574674 0.609930 -0.000899 -0.092126 -0.363349 -0.303791
 18   -0.602177 0.511412 -0.000006 0.000000 0.000000 0.000000
 19   3.673773 0.177020 1.119313 -0.000002 -0.000014 -0.174510
 20   3.673767 0.176993 -1.117566 0.000007 -0.000003 -0.174546
 21   3.942357 1.330634 1.627658 0.000002 -0.000011 -0.000026
 22   -0.246060 -0.011889 0.516521 -0.000011 0.000031 0.000025
 23   3.942374 1.330659 -1.631083 0.000019 0.000002 -0.000024
 24   -0.246150 -0.011872 -0.516511 -0.000005 -0.000006 0.000048
 25   4.941364 1.997338 1.629330 0.000018 -0.000001 -0.000024
 26   4.941382 1.997366 -1.629410 -0.000001 0.000005 -0.000024
 27   2.918368 1.615358 1.514501 -0.000019 -0.000022 -0.000050
 28   2.920798 1.614964 -1.501142 -0.000002 -0.000009 -0.000024
 29   8.824059 0.150544 0.091743 0.000006 -0.000231 -0.174534
 30   2.111085 -0.561179 1.784320 -0.000008 -0.000682 0.000024
 31   2.121290 -0.561289 -1.853599 0.000000 0.000000 -0.000002
 32   -0.810489 -0.093824 3.127092 -0.129210 -2.975337 -0.324172
 33   14.298673 -0.408176 0.475484 0.000020 -0.000248 -0.436243
 34   15.835795 0.581398 0.242756 0.161858 -0.014056 0.022664
 35   -0.815868 -0.091229 -3.114430 0.096037 3.002497 -0.031283
 36   14.294526 -0.410349 -0.463635 0.000093 0.000048 -0.399441
 37   15.834409 0.579420 -0.284600 -0.088743 0.040098 0.278038
 38   1.139685 -3.453749 -2.823813 0.000000 0.000000 0.000001
 39   -4.457742 -1.054854 -0.746180 0.000000 0.000000 0.000000
 40   1.118101 -3.449769 3.237290 0.000000 0.000001 0.000000
 41   -4.433840 -1.059130 0.959566 -0.000001 0.000000 0.000000
 42   -0.657468 1.697302 -2.688614 0.000000 0.000002 0.000000
 43   -0.664068 1.698578 2.869377 0.000000 0.000002 0.000000
time 7
  0   0.001233 0.187506 0.867585 0.000000 0.000000 -1.571449
  1   -1.093036 0.000002 -0.326057 -1.570809 -1.570379 0.000022
  2   2.262337 0.113614 0.064702 -0.241301 0.011650 0.018366
  3   2.380047 0.353302 0.047440 0.427604 0.045286 0.007448
  4   2.033756 0.190472 -0.000128 0.170621 0.209659 0.167617
  5   2.451511 0.204909 -0.003447 0.174250 0.220961 0.298114
  6   7.247600 -0.397300 -0.109469 0.000001 0.000033 0.087015
  7   -2.022252 -0.104661 3.136172 1.345756 -0.831746 -4.499969
  8   1.168026 -0.537438 -0.063437 -0.482279 0.276845 -0.510195
  9   6.790376 -0.619176 0.015206 0.006167 0.001851 -1.204915
 10   8.637599 0.544015 -0.090417 -2.748860 -0.005762 -0.744182
 11   6.790465 -0.619039 0.017802 0.005877 -0.010912 -0.858692
 12   -2.022474 -0.104699 -2.873818 0.298873 1.361800 -2.936355
 13   1.167898 -0.537463 0.063297 0.961131 0.170450 -1.668974
 14   7.002743 -0.617765 -0.183752 0.000229 0.000250 -0.347184
 15   8.209042 0.615527 -0.255885 2.000142 -0.463478 0.676478
 16   7.002735 -0.617911 -0.183641 0.014627 0.002180 -0.261659
 17   1.574674 0.609930 -0.000899 -0.419606 -0.472903 -0.396711
 18   -0.602177 0.511412 -0.000006 0.000000 0.000000 0.000000
 19   3.673773 0.177020 1.119313 -0.000002 -0.000014 -0.174510
 20   3.673767 0.176993 -1.117566 0.000007 -0.000003 -0.174546
 21   3.942357 1.330634 1.627658 0.000002 -0.000011 -0.000026
 22   -0.246060 -0.011889 0.516521 -0.000011 0.000031 0.000025
 23   3.942374 1.330659 -1.631083 0.000019 0.000002 -0.000024
 24   -0.246150 -0.011872 -0.516511 -0.000005 -0.000006 0.000048
 25   4.941364 1.997338 1.629330 0.000018 -0.000001 -0.000024
 26   4.941382 1.997366 -1.629410 -0.000001 0.000005 -0.000024
 27   2.918368 1.615358 1.514501 -0.000019 -0.000022 -0.000050
 28   2.920798 1.614964 -1.501142 -0.000002 -0.000009 -0.000024
 29   8.824059 0.150544 0.091743 0.000006 -0.000231 -0.174534
 30   2.111085 -0.561179 1.784320 -0.000008 -0.000682 0.000024
 31   2.121290 -0.561289 -1.853599 0.000000 0.000000 -0.000002
 32   -0.810489 -0.093824 3.127092 -0.129210 -2.975337 -0.324172
 33   14.298673 -0.408176 0.475484 0.000020 -0.000248 -0.436243
 34   15.835795 0.581398 0.242756 0.161858 -0.014056 0.022664
 35   -0.815868 -0.091229 -3.114430 0.096037 3.002497 -0.031283
 36   14.294526 -0.410349 -0.463635 0.000093 0.000048 -0.399441
 37   15.834409 0.579420 -0.284600 -0.088743 0.040098 0.278038
 38   1.139685 -3.453749 -2.823813 0.000000 0.000000 0.000001
 39   -4.457742 -1.054854 -0.746180 0.000000 0.000000 0.000000
 40   1.118101 -3.449769 3.237290 0.000000 0.000001 0.000000
 41   -4.433840 -1.059130 0.959566 -0.000001 0.000000 0.000000
 42   -0.657468 1.697302 -2.688614 0.000000 0.000002 0.000000
 43   -0.664068 1.698578 2.869377 0.000000 0.000002 0.000000
time 8
  0   0.001233 0.187506 0.867585 0.000000 0.000000 -1.571449
  1   -1.093036 0.000002 -0.326057 -1.570809 -1.570379 0.000022
  2   2.262337 0.113614 0.064702 -0.240817 0.017306 0.041623
  3   2.380047 0.353302 0.047440 0.490503 0.046029 0.033363
  4   2.033756 0.190472 -0.000128 0.230854 0.213338 0.193969
  5   2.451511 0.204909 -0.003447 0.234655 0.223415 0.324266
  6   7.247600 -0.397300 -0.109469 0.000001 0.000033 0.087015
  7   -2.022252 -0.104661 3.136172 1.256417 -0.989512 -4.429158
  8   1.168026 -0.537438 -0.063437 -0.572264 0.250732 -0.536195
  9   6.790376 -0.619176 0.015206 0.006278 0.001651 -1.123863
 10   8.637599 0.544015 -0.090417 -2.611039 -0.027935 -0.526787
 11   6.790465 -0.619039 0.017802 0.005585 -0.011054 -0.801883
 12   -2.022474 -0.104699 -2.873818 0.298873 1.361800 -2.936355
 13   1.167898 -0.537463 0.063297 0.930553 -0.050710 -1.656201
 14   7.002743 -0.617765 -0.183752 0.000229 0.000250 -0.630920
 15   8.209042 0.615527 -0.255885 2.026818 -0.422546 0.612552
 16   7.002735 -0.617911 -0.183641 0.014486 0.003590 -0.460353
 17   1.574674 0.609930 -0.000899 -0.574897 -0.505564 -0.395417
 18   -0.602177 0.511412 -0.000006 0.000000 0.000000 0.000000
 19   3.673773 0.177020 1.119313 -0.000002 -0.000014 -0.174510
 20   3.673767 0.176993 -1.117566 0.000007 -0.000003 -0.174546
 21   3.942357 1.330634 1.627658 0.000002 -0.000011 -0.000026
 22   -0.246060 -0.011889 0.516521 -0.000011 0.000031 0.000025
 23   3.942374 1.330659 -1.631083 0.000019 0.000002 -0.000024
 24   -0.246150 -0.011872 -0.516511 -0.000005 -0.000006 0.000048
 25   4.941364 1.997338 1.629330 0.000018 -0.000001 -0.000024
 26   4.941382 1.997366 -1.629410 -0.000001 0.000005 -0.000024
 27   2.918368 1.615358 1.514501 -0.000019 -0.000022 -0.000050
 28   2.920798 1.614964 -1.501142 -0.000002 -0.000009 -0.000024
 29   8.824059 0.150544 0.091743 0.000006 -0.000231 -0.174534
 30   2.111085 -0.561179 1.784320 -0.000008 -0.000682 0.000024
 31   2.121290 -0.561289 -1.853599 0.000000 0.000000 -0.000002
 32   -0.810489 -0.093824 3.127092 -0.129210 -2.975337 -0.324172
 33   14.298673 -0.408176 0.475484 0.000020 -0.000248 -0.436243
 34   15.835795 0.581398 0.242756 0.161858 -0.014056 0.022664
 35   -0.815868 -0.091229 -3.114430 0.096037 3.002497 -0.031283
 36   14.294526 -0.410349 -0.463635 0.000093 0.000048 -0.399441
 37   15.834409 0.579420 -0.284600 -0.088743 0.040098 0.278038
 38   1.139685 -3.453749 -2.823813 0.000000 0.000000 0.000001
 39   -4.457742 -1.054854 -0.746180 0.000000 0.000000 0.000000
 40   1.118101 -3.449769 3.237290 0.000000 0.000001 0.000000
 41   -4.433840 -1.059130 0.959566 -0.000001 0.000000 0.000000
 42   -0.657468 1.697302 -2.688614 0.000000 0.000002 0.000000
 43   -0.664068 1.698578 2.869377 0.000000 0.000002 0.000000
time 9
  0   0.001233 0.187506 0.867585 0.000000 0.000000 -1.571449
  1   -1.093036 0.000002 -0.326057 -1.570809 -1.570379 0.000022
  2   2.262337 0.113614 0.064702 -0.240817 0.017690 0.043430
  3   2.380047 0.353302 0.047440 0.481382 0.045873 0.035220
  4   2.033756 0.190472 -0.000128 0.216709 0.203439 0.164899
  5   2.451511 0.204909 -0.003447 0.220157 0.213976 0.295216
  6   7.247600 -0.397300 -0.109469 0.000001 0.000033 0.087015
  7   -2.022252 -0.104661 3.136172 1.387455 -0.730680 -4.529364
  8   1.168026 -0.537438 -0.063437 -0.618079 0.152418 -0.371212
  9   6.790376 -0.619176 0.015206 0.006611 0.000783 -0.850218
 10   8.637599 0.544015 -0.090417 -2.564012 -0.042858 -0.715461
 11   6.790465 -0.619039 0.017802 0.004592 -0.011310 -0.610402
 12   -2.022474 -0.104699 -2.873818 0.298873 1.361800 -2.936355
 13   1.167898 -0.537463 0.063297 0.958249 -0.351048 -1.574903
 14   7.002743 -0.617765 -0.183752 0.000229 0.000250 -0.934375
 15   8.209042 0.615527 -0.255885 2.049611 -0.378512 0.551753
 16   7.002735 -0.617911 -0.183641 0.014298 0.005169 -0.672735
 17   1.574674 0.609930 -0.000899 -0.555724 -0.459011 -0.332657
 18   -0.602177 0.511412 -0.000006 0.000000 0.000000 0.000000
 19   3.673773 0.177020 1.119313 -0.000002 -0.000014 -0.174510
 20   3.673767 0.176993 -1.117566 0.000007 -0.000003 -0.174546
 21   3.942357 1.330634 1.627658 0.000002 -0.000011 -0.000026
 22   -0.246060 -0.011889 0.516521 -0.000011 0.000031 0.000025
 23   3.942374 1.330659 -1.631083 0.000019 0.000002 -0.000024
 24   -0.246150 -0.011872 -0.516511 -0.000005 -0.000006 0.000048
 25   4.941364 1.997338 1.629330 0.000018 -0.000001 -0.000024
 26   4.941382 1.997366 -1.629410 -0.000001 0.000005 -0.000024
 27   2.918368 1.615358 1.514501 -0.000019 -0.000022 -0.000050
 28   2.920798 1.614964 -1.501142 -0.000002 -0.000009 -0.000024
 29   8.824059 0.150544 0.091743 0.000006 -0.000231 -0.174534
 30   2.111085 -0.561179 1.784320 -0.000008 -0.000682 0.000024
 31   2.121290 -0.561289 -1.853599 0.000000 0.000000 -0.000002
 32   -0.810489 -0.093824 3.127092 -0.129210 -2.975337 -0.324172
 33   14.298673 -0.408176 0.475484 0.000020 -0.000248 -0.436243
 34   15.835795 0.581398 0.242756 0.161858 -0.014056 0.022664
 35   -0.815868 -0.091229 -3.114430 0.096037 3.002497 -0.031283
 36   14.294526 -0.410349 -0.463635 0.000093 0.000048 -0.399441
 37   15.834409 0.579420 -0.284600 -0.088743 0.040098 0.278038
 38   1.139685 -3.453749 -2.823813 0.000000 0.000000 0.000001
 39   -4.457742 -1.054854 -0.746180 0.000000 0.000000 0.000000
 40   1.118101 -3.449769 3.237290 0.000000 0.000001 0.000000
 41   -4.433840 -1.059130 0.959566 -0.000001 0.000000 0.000000
 42   -0.657468 1.697302 -2.688614 0.000000 0.000002 0.000000
 43   -0.664068 1.698578 2.869377 0.000000 0.000002 0.000000
time 10
  0   0.001233 0.187506 0.867585 0.000000 0.000000 -1.571449
  1   -1.093036 0.000002 -0.326057 -1.570809 -1.570379 0.000022
  2   2.262337 0.113614 0.064702 -0.240957 0.015760 0.035280
  3   2.380047 0.353302 0.047440 0.436454 0.045418 0.025874
  4   2.033756 0.190472 -0.000128 0.165789 0.183928 0.105635
  5   2.451511 0.204909 -0.003447 0.168601 0.195411 0.235977
  6   7.247600 -0.397300 -0.109469 0.000001 0.000033 0.087015
  7   -2.022252 -0.104661 3.136172 1.444203 -0.554724 -4.563360
  8   1.168026 -0.537438 -0.063437 -0.584667 0.165399 -0.221095
  9   6.790376 -0.619176 0.015206 0.006611 0.000583 -0.792108
 10   8.637599 0.544015 -0.090417 -2.524999 -0.033144 -0.896828
 11   6.790465 -0.619039 0.017802 0.004388 -0.011395 -0.569683
 12   -2.022474 -0.104699 -2.873818 0.298873 1.361800 -2.936355
 13   1.167898 -0.537463 0.063297 1.007807 -0.515659 -1.516971
 14   7.002743 -0.617765 -0.183752 0.000229 0.000250 -1.111514
 15   8.209042 0.615527 -0.255885 2.074273 -0.340077 0.480430
 16   7.002735 -0.617911 -0.183641 0.014156 0.006071 -0.796643
 17   1.574674 0.609930 -0.000899 -0.440607 -0.392744 -0.256776
 18   -0.602177 0.511412 -0.000006 0.000000 0.000000 0.000000
 19   3.673773 0.177020 1.119313 -0.000002 -0.000014 -0.174510
 20   3.673767 0.176993 -1.117566 0.000007 -0.000003 -0.174546
 21   3.942357 1.330634 1.627658 0.000002 -0.000011 -0.000026
 22   -0.246060 -0.011889 0.516521 -0.000011 0.000031 0.000025
 23   3.942374 1.330659 -1.631083 0.000019 0.000002 -0.000024
 24   -0.246150 -0.011872 -0.516511 -0.000005 -0.000006 0.000048
 25   4.941364 1.997338 1.629330 0.000018 -0.000001 -0.000024
 26   4.941382 1.997366 -1.629410 -0.000001 0.000005 -0.000024
 27   2.918368 1.615358 1.514501 -0.000019 -0.000022 -0.000050
 28   2.920798 1.614964 -1.501142 -0.000002 -0.000009 -0.000024
 29   8.824059 0.150544 0.091743 0.000006 -0.000231 -0.174534
 30   2.111085 -0.561179 1.784320 -0.000008 -0.000682 0.000024
 31   2.121290 -0.561289 -1.853599 0.000000 0.000000 -0.000002
 32   -0.810489 -0.093824 3.127092 -0.129210 -2.975337 -0.324172
 33   14.298673 -0.408176 0.475484 0.000020 -0.000248 -0.436243
 34   15.835795 0.581398 0.242756 0.161858 -0.014056 0.022664
 35   -0.815868 -0.091229 -3.114430 0.096037 3.002497 -0.031283
 36   14.294526 -0.410349 -0.463635 0.000093 0.000048 -0.399441
 37   15.834409 0.579420 -0.284600 -0.088743 0.040098 0.278038
 38   1.139685 -3.453749 -2.823813 0.000000 0.000000 0.000001
 39   -4.457742 -1.054854 -0.746180 0.000000 0.000000 0.000000
 40   1.118101 -3.449769 3.237290 0.000000 0.000001 0.000000
 41   -4.433840 -1.059130 0.959566 -0.000001 0.000000 0.000000
 42   -0.657468 1.697302 -2.688614 0.000000 0.000002 0.000000
 43   -0.664068 1.698578 2.869377 0.000000 0.000002 0.000000
time 11
  0   0.001233 0.187506 0.867585 0.000000 0.000000 -1.571449
  1   -1.093036 0.000002 -0.326057 -1.570809 -1.570379 0.000022
  2   2.262337 0.113614 0.064702 -0.241250 0.011961 0.019847
  3   2.380047 0.353302 0.047440 0.365650 0.043752 0.008203
  4   2.033756 0.190472 -0.000128 0.090193 0.152816 0.026870
  5   2.451511 0.204909 -0.003447 0.091986 0.165683 0.156976
  6   7.247600 -0.397300 -0.109469 0.000001 0.000033 0.087015
  7   -2.022252 -0.104661 3.136172 1.237437 -1.015456 -4.413005
  8   1.168026 -0.537438 -0.063437 -0.415835 0.351109 -0.511397
  9   6.790376 -0.619176 0.015206 0.006278 0.001384 -1.050433
 10   8.637599 0.544015 -0.090417 -2.459479 -0.024627 -0.690068
 11   6.790465 -0.619039 0.017802 0.005293 -0.011168 -0.750552
 12   -2.022474 -0.104699 -2.873818 0.298873 1.361800 -2.936355
 13   1.167898 -0.537463 0.063297 1.033745 -0.720495 -1.479803
 14   7.002743 -0.617765 -0.183752 0.000229 0.000250 -1.270832
 15   8.209042 0.615527 -0.255885 2.096995 -0.300961 0.409107
 16   7.002735 -0.617911 -0.183641 0.013968 0.006973 -0.908188
 17   1.574674 0.609930 -0.000899 -0.251520 -0.315306 -0.171692
 18   -0.602177 0.511412 -0.000006 0.000000 0.000000 0.000000
 19   3.673773 0.177020 1.119313 -0.000002 -0.000014 -0.174510
 20   3.673767 0.176993 -1.117566 0.000007 -0.000003 -0.174546
 21   3.942357 1.330634 1.627658 0.000002 -0.000011 -0.000026
 22   -0.246060 -0.011889 0.516521 -0.000011 0.000031 0.000025
 23   3.942374 1.330659 -1.631083 0.000019 0.000002 -0.000024
 24   -0.246150 -0.011872 -0.516511 -0.000005 -0.000006 0.000048
 25   4.941364 1.997338 1.629330 0.000018 -0.000001 -0.000024
 26   4.941382 1.997366 -1.629410 -0.000001 0.000005 -0.000024
 27   2.918368 1.615358 1.514501 -0.000019 -0.000022 -0.000050
 28   2.920798 1.614964 -1.501142 -0.000002 -0.000009 -0.000024
 29   8.824059 0.150544 0.091743 0.000006 -0.000231 -0.174534
 30   2.111085 -0.561179 1.784320 -0.000008 -0.000682 0.000024
 31   2.121290 -0.561289 -1.853599 0.000000 0.000000 -0.000002
 32   -0.810489 -0.093824 3.127092 -0.129210 -2.975337 -0.324172
 33   14.298673 -0.408176 0.475484 0.000020 -0.000248 -0.436243
 34   15.835795 0.581398 0.242756 0.161858 -0.014056 0.022664
 35   -0.815868 -0.091229 -3.114430 0.096037 3.002497 -0.031283
 36   14.294526 -0.410349 -0.463635 0.000093 0.000048 -0.399441
 37   15.834409 0.579420 -0.284600 -0.088743 0.040098 0.278038
 38   1.139685 -3.453749 -2.823813 0.000000 0.000000 0.000001
 39   -4.457742 -1.054854 -0.746180 0.000000 0.000000 0.000000
 40   1.118101 -3.449769 3.237290 0.000000 0.000001 0.000000
 41   -4.433840 -1.059130 0.959566 -0.000001 0.000000 0.000000
 42   -0.657468 1.697302 -2.688614 0.000000 0.000002 0.000000
 43   -0.664068 1.698578 2.869377 0.000000 0.000002 0.000000
time 12
  0   0.001233 0.187506 0.867585 0.000000 0.000000 -1.571449
  1   -1.093036 0.000002 -0.326057 -1.570809 -1.570379 0.000022
  2   2.262337 0.113614 0.064702 -0.241441 0.007096 -0.000049
  3   2.380047 0.353302 0.047440 0.278509 0.039917 -0.014427
  4   2.033756 0.190472 -0.000128 0.002111 0.109252 -0.061355
  5   2.451511 0.204909 -0.003447 0.002482 0.123788 0.068489
  6   7.247600 -0.397300 -0.109469 0.000001 0.000033 0.087015
  7   -2.022252 -0.104661 3.136172 -0.298879 -1.361862 -2.935557
  8   1.168026 -0.537438 -0.063437 -0.206946 0.585624 -0.891149
  9   6.790376 -0.619176 0.015206 0.006056 0.001918 -1.234423
 10   8.637599 0.544015 -0.090417 -2.382687 -0.035467 -0.389767
 11   6.790465 -0.619039 0.017802 0.006023 -0.010912 -0.879340
 12   -2.022474 -0.104699 -2.873818 0.298873 1.361800 -2.936355
 13   1.167898 -0.537463 0.063297 1.001621 -0.943282 -1.431920
 14   7.002743 -0.617765 -0.183752 0.000229 0.000250 -1.418599
 15   8.209042 0.615527 -0.255885 2.116768 -0.260861 0.338506
 16   7.002735 -0.617911 -0.183641 0.013780 0.007819 -1.011674
 17   1.574674 0.609930 -0.000899 -0.015233 -0.229277 -0.077996
 18   -0.602177 0.511412 -0.000006 0.000000 0.000000 0.000000
 19   3.673773 0.177020 1.119313 -0.000002 -0.000014 -0.174510
 20   3.673767 0.176993 -1.117566 0.000007 -0.000003 -0.174546
 21   3.942357 1.330634 1.627658 0.000002 -0.000011 -0.000026
 22   -0.246060 -0.011889 0.516521 -0.000011 0.000031 0.000025
 23   3.942374 1.330659 -1.631083 0.000019 0.000002 -0.000024
 24   -0.246150 -0.011872 -0.516511 -0.000005 -0.000006 0.000048
 25   4.941364 1.997338 1.629330 0.000018 -0.000001 -0.000024
 26   4.941382 1.997366 -1.629410 -0.000001 0.000005 -0.000024
 27   2.918368 1.615358 1.514501 -0.000019 -0.000022 -0.000050
 28   2.920798 1.614964 -1.501142 -0.000002 -0.000009 -0.000024
 29   8.824059 0.150544 0.091743 0.000006 -0.000231 -0.174534
 30   2.111085 -0.561179 1.784320 -0.000008 -0.000682 0.000024
 31   2.121290 -0.561289 -1.853599 0.000000 0.000000 -0.000002
 32   -0.810489 -0.093824 3.127092 -0.129210 -2.975337 -0.324172
 33   14.298673 -0.408176 0.475484 0.000020 -0.000248 -0.436243
 34   15.835795 0.581398 0.242756 0.161858 -0.014056 0.022664
 35   -0.815868 -0.091229 -3.114430 0.096037 3.002497 -0.031283
 36   14.294526 -0.410349 -0.463635 0.000093 0.000048 -0.399441
 37   15.834409 0.579420 -0.284600 -0.088743 0.040098 0.278038
 38   1.139685 -3.453749 -2.823813 0.000000 0.000000 0.000001
 39   -4.457742 -1.054854 -0.746180 0.000000 0.000000 0.000000
 40   1.118101 -3.449769 3.237290 0.000000 0.000001 0.000000
 41   -4.433840 -1.059130 0.959566 -0.000001 0.000000 0.000000
 42   -0.657468 1.697302 -2.688614 0.000000 0.000002 0.000000
 43   -0.664068 1.698578 2.869377 0.000000 0.000002 0.000000
time 13
  0   0.001233 0.187506 0.867585 0.000000 0.000000 -1.571449
  1   -1.093036 0.000002 -0.326057 -1.570809 -1.570379 0.000022
  2   2.262337 0.113614 0.064702 -0.241441 0.001774 -0.021625
  3   2.380047 0.353302 0.047440 0.184977 0.033565 -0.038689
  4   2.033756 0.190472 -0.000128 -0.087004 0.055429 -0.149363
  5   2.451511 0.204909 -0.003447 -0.088306 0.071239 -0.019701
  6   7.247600 -0.397300 -0.109469 0.000001 0.000033 0.087015
  7   -2.022252 -0.104661 3.136172 -0.298879 -1.361862 -2.935557
  8   1.168026 -0.537438 -0.063437 0.030103 0.734404 -0.549037
  9   6.790376 -0.619176 0.015206 0.005557 0.002652 -1.499238
 10   8.637599 0.544015 -0.090417 -2.282557 -0.061089 -0.232563
 11   6.790465 -0.619039 0.017802 0.007045 -0.010599 -1.064707
 12   -2.022474 -0.104699 -2.873818 0.298873 1.361829 -2.936355
 13   1.167898 -0.537463 0.063297 0.847114 -1.154932 -1.305826
 14   7.002743 -0.617765 -0.183752 0.000286 0.000250 -1.560426
 15   8.209042 0.615527 -0.255885 2.133809 -0.219930 0.268566
 16   7.002735 -0.617911 -0.183641 0.013638 0.008552 -1.110966
 17   1.574674 0.609930 -0.000899 0.239374 -0.137284 0.027380
 18   -0.602177 0.511412 -0.000006 0.000000 0.000000 0.000000
 19   3.673773 0.177020 1.119313 -0.000002 -0.000014 -0.174510
 20   3.673767 0.176993 -1.117566 0.000007 -0.000003 -0.174546
 21   3.942357 1.330634 1.627658 0.000002 -0.000011 -0.000026
 22   -0.246060 -0.011889 0.516521 -0.000011 0.000031 0.000025
 23   3.942374 1.330659 -1.631083 0.000019 0.000002 -0.000024
 24   -0.246150 -0.011872 -0.516511 -0.000005 -0.000006 0.000048
 25   4.941364 1.997338 1.629330 0.000018 -0.000001 -0.000024
 26   4.941382 1.997366 -1.629410 -0.000001 0.000005 -0.000024
 27   2.918368 1.615358 1.514501 -0.000019 -0.000022 -0.000050
 28   2.920798 1.614964 -1.501142 -0.000002 -0.000009 -0.000024
 29   8.824059 0.150544 0.091743 0.000006 -0.000231 -0.174534
 30   2.111085 -0.561179 1.784320 -0.000008 -0.000682 0.000024
 31   2.121290 -0.561289 -1.853599 0.000000 0.000000 -0.000002
 32   -0.810489 -0.093824 3.127092 -0.129210 -2.975337 -0.324172
 33   14.298673 -0.408176 0.475484 0.000020 -0.000248 -0.436243
 34   15.835795 0.581398 0.242756 0.161858 -0.014056 0.022664
 35   -0.815868 -0.091229 -3.114430 0.096037 3.002497 -0.031283
 36   14.294526 -0.410349 -0.463635 0.000093 0.000048 -0.399441
 37   15.834409 0.579420 -0.284600 -0.088743 0.040098 0.278038
 38   1.139685 -3.453749 -2.823813 0.000000 0.000000 0.000001
 39   -4.457742 -1.054854 -0.746180 0.000000 0.000000 0.000000
 40   1.118101 -3.449769 3.237290 0.000000 0.000001 0.000000
 41   -4.433840 -1.059130 0.959566 -0.000001 0.000000 0.000000
 42   -0.657468 1.697302 -2.688614 0.000000 0.000002 0.000000
 43   -0.664068 1.698578 2.869377 0.000000 0.000002 0.000000
time 14
  0   0.001233 0.187506 0.867585 0.000000 0.000000 -1.571449
  1   -1.093036 0.000002 -0.326057 -1.570809 -1.570379 0.000022
  2   2.262337 0.113614 0.064702 -0.241441 -0.003331 -0.042533
  3   2.380047 0.353302 0.047440 0.094896 0.025200 -0.061258
  4   2.033756 0.190472 -0.000128 -0.168022 -0.003895 -0.230302
  5   2.451511 0.204909 -0.003447 -0.171083 0.013273 -0.100932
  6   7.247600 -0.397300 -0.109469 0.000001 0.000033 0.087015
  7   -2.022252 -0.104661 3.136172 -0.298879 -1.361862 -2.935557
  8   1.168026 -0.537438 -0.063437 0.354795 0.838554 -0.073825
  9   6.790376 -0.619176 0.015206 0.005113 0.003252 -1.745564
 10   8.637599 0.544015 -0.090417 -2.119020 -0.070240 -0.144303
 11   6.790465 -0.619039 0.017802 0.007950 -0.010315 -1.237213
 12   -2.022474 -0.104699 -2.873818 0.298873 1.361800 -2.936355
 13   1.167898 -0.537463 0.063297 0.410728 -1.308711 -0.932266
 14   7.002743 -0.617765 -0.183752 0.000286 0.000250 -1.702005
 15   8.209042 0.615527 -0.255885 2.147399 -0.177939 0.200130
 16   7.002735 -0.617911 -0.183641 0.013403 0.009398 -1.210037
 17   1.574674 0.609930 -0.000899 0.485126 -0.047965 0.146025
 18   -0.602177 0.511412 -0.000006 0.000000 0.000000 0.000000
 19   3.673773 0.177020 1.119313 -0.000002 -0.000014 -0.174510
 20   3.673767 0.176993 -1.117566 0.000007 -0.000003 -0.174546
 21   3.942357 1.330634 1.627658 0.000002 -0.000011 -0.000026
 22   -0.246060 -0.011889 0.516521 -0.000011 0.000031 0.000025
 23   3.942374 1.330659 -1.631083 0.000019 0.000002 -0.000024
 24   -0.246150 -0.011872 -0.516511 -0.000005 -0.000006 0.000048
 25   4.941364 1.997338 1.629330 0.000018 -0.000001 -0.000024
 26   4.941382 1.997366 -1.629410 -0.000001 0.000005 -0.000024
 27   2.918368 1.615358 1.514501 -0.000019 -0.000022 -0.000050
 28   2.920798 1.614964 -1.501142 -0.000002 -0.000009 -0.000024
 29   8.824059 0.150544 0.091743 0.000006 -0.000231 -0.174534
 30   2.111085 -0.561179 1.784320 -0.000008 -0.000682 0.000024
 31   2.121290 -0.561289 -1.853599 0.000000 0.000000 -0.000002
 32   -0.810489 -0.093824 3.127092 -0.129210 -2.975337 -0.324172
 33   14.298673 -0.408176 0.475484 0.000020 -0.000248 -0.436243
 34   15.835795 0.581398 0.242756 0.161858 -0.014056 0.022664
 35   -0.815868 -0.091229 -3.114430 0.096037 3.002497 -0.031283
 36   14.294526 -0.410349 -0.463635 0.000093 0.000048 -0.399441
 37   15.834409 0.579420 -0.284600 -0.088743 0.040098 0.278038
 38   1.139685 -3.453749 -2.823813 0.000000 0.000000 0.000001
 39   -4.457742 -1.054854 -0.746180 0.000000 0.000000 0.000000
 40   1.118101 -3.449769 3.237290 0.000000 0.000001 0.000000
 41   -4.433840 -1.059130 0.959566 -0.000001 0.000000 0.000000
 42   -0.657468 1.697302 -2.688614 0.000000 0.000002 0.000000
 43   -0.664068 1.698578 2.869377 0.000000 0.000002 0.000000
time 15
  0   0.001233 0.187506 0.867585 0.000000 0.000000 -1.571449
  1   -1.093036 0.000002 -0.326057 -1.570809 -1.570379 0.000022
  2   2.262337 0.113614 0.064702 -0.241441 -0.007502 -0.059755
  3   2.380047 0.353302 0.047440 0.018001 0.016714 -0.079276
  4   2.033756 0.190472 -0.000128 -0.233161 -0.061421 -0.298483
  5   2.451511 0.204909 -0.003447 -0.237822 -0.043141 -0.169086
  6   7.247600 -0.397300 -0.109469 0.000001 0.000033 0.087015
  7   -2.022252 -0.104661 3.136172 -0.298879 -1.361862 -2.935557
  8   1.168026 -0.537438 -0.063437 0.636899 0.931032 0.320794
  9   6.790376 -0.619176 0.015206 0.004669 0.003720 -1.892952
 10   8.637599 0.544015 -0.090417 -1.944564 -0.086711 -0.069499
 11   6.790465 -0.619039 0.017802 0.008563 -0.010116 -1.340335
 12   -2.022474 -0.104699 -2.873818 0.298873 1.361800 -2.936355
 13   1.167898 -0.537463 0.063297 -0.321737 -1.331341 -0.279459
 14   7.002743 -0.617765 -0.183752 0.000286 0.000250 -1.849772
 15   8.209042 0.615527 -0.255885 2.158040 -0.134813 0.133438
 16   7.002735 -0.617911 -0.183641 0.013168 0.010300 -1.313468
 17   1.574674 0.609930 -0.000899 0.696473 0.026397 0.270879
 18   -0.602177 0.511412 -0.000006 0.000000 0.000000 0.000000
 19   3.673773 0.177020 1.119313 -0.000002 -0.000014 -0.174510
 20   3.673767 0.176993 -1.117566 0.000007 -0.000003 -0.174546
 21   3.942357 1.330634 1.627658 0.000002 -0.000011 -0.000026
 22   -0.246060 -0.011889 0.516521 -0.000011 0.000031 0.000025
 23   3.942374 1.330659 -1.631083 0.000019 0.000002 -0.000024
 24   -0.246150 -0.011872 -0.516511 -0.000005 -0.000006 0.000048
 25   4.941364 1.997338 1.629330 0.000018 -0.000001 -0.000024
 26   4.941382 1.997366 -1.629410 -0.000001 0.000005 -0.000024
 27   2.918368 1.615358 1.514501 -0.000019 -0.000022 -0.000050
 28   2.920798 1.614964 -1.501142 -0.000002 -0.000009 -0.000024
 29   8.824059 0.150544 0.091743 0.000006 -0.000231 -0.174534
 30   2.111085 -0.561179 1.784320 -0.000008 -0.000682 0.000024
 31   2.121290 -0.561289 -1.853599 0.000000 0.000000 -0.000002
 32   -0.810489 -0.093824 3.127092 -0.129210 -2.975337 -0.324172
 33   14.298673 -0.408176 0.475484 0.000020 -0.000248 -0.436243
 34   15.835795 0.581398 0.242756 0.161858 -0.014056 0.022664
 35   -0.815868 -0.091229 -3.114430 0.096037 3.002497 -0.031283
 36   14.294526 -0.410349 -0.463635 0.000093 0.000048 -0.399441
 37   15.834409 0.579420 -0.284600 -0.088743 0.040098 0.278038
 38   1.139685 -3.453749 -2.823813 0.000000 0.000000 0.000001
 39   -4.457742 -1.054854 -0.746180 0.000000 0.000000 0.000000
 40   1.118101 -3.449769 3.237290 0.000000 0.000001 0.000000
 41   -4.433840 -1.059130 0.959566 -0.000001 0.000000 0.000000
 42   -0.657468 1.697302 -2.688614 0.000000 0.000002 0.000000
 43   -0.664068 1.698578 2.869377 0.000000 0.000002 0.000000
end
