version 1
nodes
  0 "Bip01" -1
  1 "Bip01 Pelvis" 0
  2 "Bip01 Spine" 1
  3 "Bip01 Spine1" 2
  4 "Bip01 Spine2" 3
  5 "Bip01 Spine3" 4
  6 "Bip01 Neck" 5
  7 "Bip01 L Arm" 6
  8 "Bip01 L Arm1" 7
  9 "Bip01 L Arm2" 8
 10 "Bip01 L Hand" 9
 11 "Bip06 L elbow2-smooth" 8
 12 "Bip01 R Arm" 6
 13 "Bip01 R Arm1" 12
 14 "Bip01 R Arm2" 13
 15 "Bip01 R Hand" 14
 16 "Bip06 R elbow2-smooth" 13
 17 "Bip01 Head" 6
 18 "Bip06 Head_helper" 17
 19 "Bip06 Head_eyes_l" 18
 20 "Bip06 Head_eyes_r" 18
 21 "Bip06 Head_blink_l" 18
 22 "Bip06 Head_blink_smooth_l1" 21
 23 "Bip06 Head_blink_r" 18
 24 "Bip06 Head_blink_smooth_r1" 23
 25 "Bip06 Head_L_eyebrow" 18
 26 "Bip06 Head_R_eyebrow" 18
 27 "Bip06 Head_blink_l_lid" 18
 28 "Bip06 Head_blink_r_lid" 18
 29 "Bip06 bunny" 18
 30 "Bip06 bunnyL" 29
 31 "Bip06 bunnyR" 29
 32 "Bip01 L Leg" 1
 33 "Bip01 L Leg1" 32
 34 "Bip01 L Foot" 33
 35 "Bip01 R Leg" 1
 36 "Bip01 R Leg1" 35
 37 "Bip01 R Foot" 36
 38 "Bip03 HairR1" 17
 39 "Bip03 HairR2" 38
 40 "Bip03 HairL1" 17
 41 "Bip03 HairL2" 40
 42 "Bip03 swingR" 17
 43 "Bip03 swingL" 17
end
skeleton
time 0
  0   0.001233 0.187506 0.867585 0.000000 0.000000 -1.571449
  1   -1.093036 0.000002 -0.326057 -1.570809 -1.570379 0.000022
  2   2.262337 0.113614 0.064702 -0.241441 -0.007502 -0.059755
  3   2.380047 0.353302 0.047440 0.017986 0.016714 -0.079276
  4   2.033756 0.190472 -0.000128 -0.233161 -0.061433 -0.298483
  5   2.451511 0.204909 -0.003447 -0.237822 -0.043141 -0.169086
  6   7.247600 -0.397300 -0.109469 0.000001 0.000009 0.087015
  7   -2.022252 -0.104661 3.136172 -0.298879 -1.361862 -2.935557
  8   1.168026 -0.537438 -0.063437 0.636899 0.931032 0.320794
  9   6.790376 -0.619176 0.015206 0.004669 0.003720 -1.892952
 10   8.637599 0.544015 -0.090417 -1.944564 -0.086711 -0.069499
 11   6.790465 -0.619039 0.017802 0.008651 -0.010116 -1.340335
 12   -2.022474 -0.104699 -2.873818 0.298394 1.361771 -2.936355
 13   1.167898 -0.537463 0.063297 -0.321737 -1.331341 -0.279459
 14   7.002743 -0.617765 -0.183752 0.000229 0.000250 -1.849772
 15   8.209042 0.615527 -0.255885 2.158040 -0.134813 0.133438
 16   7.002735 -0.617911 -0.183641 0.013121 0.010300 -1.313468
 17   1.574674 0.609930 -0.000899 0.696473 0.026468 0.270879
 18   -0.602177 0.511412 -0.000006 0.000000 0.000000 0.000000
 19   3.646428 0.364526 1.119313 -0.000002 -0.000014 -0.174510
 20   3.646422 0.364499 -1.117566 0.000007 -0.000003 -0.174546
 21   3.805634 1.330634 1.627658 0.000002 -0.000011 -0.000026
 22   -0.246060 -0.011889 0.516521 -0.000011 0.000031 0.000025
 23   3.805651 1.330659 -1.631083 0.000019 0.000002 -0.000024
 24   -0.246150 -0.011872 -0.516511 -0.000005 -0.000006 0.000048
 25   4.941364 1.997338 1.629330 0.000018 -0.000001 -0.000024
 26   4.941382 1.997366 -1.629410 -0.000001 0.000005 -0.000024
 27   2.930087 1.603639 1.514501 -0.000019 -0.000022 -0.000050
 28   2.932517 1.603245 -1.501142 -0.000002 -0.000009 -0.000024
 29   8.824059 0.150544 0.091743 0.000006 -0.000231 -0.174534
 30   2.111085 -0.561179 1.784320 -0.000008 -0.000682 0.000024
 31   2.121290 -0.561289 -1.853599 0.000000 0.000000 -0.000002
 32   -0.810489 -0.093824 3.127092 -0.129583 -2.975432 -0.324172
 33   14.298673 -0.408176 0.475484 -0.000088 -0.000042 -0.436243
 34   15.835795 0.581398 0.242756 0.162134 -0.013934 0.022664
 35   -0.815868 -0.091229 -3.114430 0.096037 3.002497 -0.031283
 36   14.294526 -0.410349 -0.463635 0.000081 0.000060 -0.399441
 37   15.834409 0.579420 -0.284600 -0.088763 0.039970 0.278038
 38   1.139685 -3.453749 -2.823813 0.000000 0.000000 0.000001
 39   -4.457742 -1.054854 -0.746180 0.000000 0.000000 0.000000
 40   1.118101 -3.449769 3.237290 0.000000 0.000001 0.000000
 41   -4.433840 -1.059130 0.959566 -0.000001 0.000000 0.000000
 42   -0.657468 1.697302 -2.688614 0.000000 0.000002 0.000000
 43   -0.664068 1.698578 2.869377 0.000000 0.000002 0.000000
time 1
  0   0.001233 0.187506 0.824615 0.000000 0.000000 -1.571449
  1   -1.093036 0.000002 -0.326057 -1.570809 -1.570379 0.000022
  2   2.262337 0.113614 0.064702 -0.241441 -0.007502 -0.059755
  3   2.380047 0.353302 0.047440 0.017986 0.016714 -0.079276
  4   2.033756 0.190472 -0.000128 -0.233364 -0.060714 -0.295547
  5   2.451511 0.204909 -0.003447 -0.238027 -0.041809 -0.163662
  6   7.247600 -0.397300 -0.109469 0.000001 0.000009 0.087015
  7   -2.022252 -0.104661 3.136172 -0.290156 -1.355492 -2.945324
  8   1.168026 -0.537438 -0.063437 0.612410 0.922227 0.296502
  9   6.790376 -0.619176 0.015206 0.004669 0.003720 -1.895065
 10   8.637599 0.544015 -0.090417 -1.944564 -0.086711 -0.069499
 11   6.790465 -0.619039 0.017802 0.008651 -0.010116 -1.341835
 12   -2.022474 -0.104699 -2.873818 0.289771 1.355443 -2.945355
 13   1.167898 -0.537463 0.063297 -0.269789 -1.323866 -0.332972
 14   7.002743 -0.617765 -0.183752 0.000229 0.000250 -1.850432
 15   8.209042 0.615527 -0.255885 2.158040 -0.134813 0.133438
 16   7.002735 -0.617911 -0.183641 0.013121 0.010300 -1.314020
 17   1.574674 0.609930 -0.000899 0.696635 0.027178 0.262305
 18   -0.602177 0.511412 -0.000006 0.000000 0.000000 0.000000
 19   3.646428 0.364526 1.119313 -0.000002 -0.000014 -0.174510
 20   3.646422 0.364499 -1.117566 0.000007 -0.000003 -0.174546
 21   3.805634 1.330634 1.627658 0.000002 -0.000011 -0.000026
 22   -0.246060 -0.011889 0.516521 -0.000011 0.000031 0.000025
 23   3.805651 1.330659 -1.631083 0.000019 0.000002 -0.000024
 24   -0.246150 -0.011872 -0.516511 -0.000005 -0.000006 0.000048
 25   4.941364 1.997338 1.629330 0.000018 -0.000001 -0.000024
 26   4.941382 1.997366 -1.629410 -0.000001 0.000005 -0.000024
 27   2.930087 1.603639 1.514501 -0.000019 -0.000022 -0.000050
 28   2.932517 1.603245 -1.501142 -0.000002 -0.000009 -0.000024
 29   8.824059 0.150544 0.091743 0.000897 -0.000468 -0.171583
 30   2.111085 -0.561179 1.784320 -0.000022 0.001236 0.000153
 31   2.121290 -0.561289 -1.853599 0.000000 -0.002538 0.000107
 32   -0.810489 -0.093824 3.127092 -0.128091 -2.974191 -0.331344
 33   14.298673 -0.408176 0.475484 -0.000088 -0.000042 -0.450455
 34   15.835795 0.581398 0.242756 0.162042 -0.014178 0.029544
 35   -0.815868 -0.091229 -3.114430 0.095245 3.001841 -0.038569
 36   14.294526 -0.410349 -0.463635 0.000081 0.000060 -0.414735
 37   15.834409 0.579420 -0.284600 -0.088763 0.040226 0.286049
 38   1.139685 -3.453749 -2.823813 0.000063 -0.000060 0.000123
 39   -4.457742 -1.054854 -0.746180 0.000132 0.000288 -0.001178
 40   1.118101 -3.449769 3.237290 -0.000021 -0.000071 0.000367
 41   -4.433840 -1.059130 0.959566 0.000011 0.000024 -0.000084
 42   -0.657468 1.697302 -2.688614 0.000863 0.001336 -0.000084
 43   -0.664068 1.698578 2.869377 -0.001000 -0.001504 0.000251
time 2
  0   0.001233 0.187506 0.766019 0.000000 0.000000 -1.571449
  1   -1.093036 0.000002 -0.326057 -1.570809 -1.570379 0.000022
  2   2.262337 0.113614 0.064702 -0.241441 -0.007502 -0.059755
  3   2.380047 0.353302 0.047440 0.017986 0.016714 -0.079276
  4   2.033756 0.190472 -0.000128 -0.233530 -0.059935 -0.292176
  5   2.451511 0.204909 -0.003447 -0.238301 -0.040503 -0.157743
  6   7.247600 -0.397300 -0.109469 0.000001 0.000009 0.087015
  7   -2.022252 -0.104661 3.136172 -0.282008 -1.349524 -2.953401
  8   1.168026 -0.537438 -0.063437 0.592919 0.914529 0.276322
  9   6.790376 -0.619176 0.015206 0.004669 0.003720 -1.895820
 10   8.637599 0.544015 -0.090417 -1.944564 -0.086711 -0.069499
 11   6.790465 -0.619039 0.017802 0.008651 -0.010116 -1.342412
 12   -2.022474 -0.104699 -2.873818 0.281915 1.349551 -2.953493
 13   1.167898 -0.537463 0.063297 -0.232885 -1.315729 -0.371472
 14   7.002743 -0.617765 -0.183752 0.000229 0.000250 -1.850432
 15   8.209042 0.615527 -0.255885 2.158040 -0.134813 0.133438
 16   7.002735 -0.617911 -0.183641 0.013121 0.010300 -1.314020
 17   1.574674 0.609930 -0.000899 0.696757 0.027959 0.252990
 18   -0.602177 0.511412 -0.000006 0.000000 0.000000 0.000000
 19   3.646428 0.364526 1.119313 -0.000002 -0.000014 -0.174510
 20   3.646422 0.364499 -1.117566 0.000007 -0.000003 -0.174546
 21   3.805634 1.330634 1.627658 0.000002 -0.000011 -0.000026
 22   -0.246060 -0.011889 0.516521 -0.000011 0.000031 0.000025
 23   3.805651 1.330659 -1.631083 0.000019 0.000002 -0.000024
 24   -0.246150 -0.011872 -0.516511 -0.000005 -0.000006 0.000048
 25   4.941364 1.997338 1.629330 0.000018 -0.000001 -0.000024
 26   4.941382 1.997366 -1.629410 -0.000001 0.000005 -0.000024
 27   2.930087 1.603639 1.514501 -0.000019 -0.000022 -0.000050
 28   2.932517 1.603245 -1.501142 -0.000002 -0.000009 -0.000024
 29   8.824059 0.150544 0.091743 0.003838 -0.001323 -0.163053
 30   2.111085 -0.561179 1.784320 -0.000103 0.006728 0.000496
 31   2.121290 -0.561289 -1.853599 0.000000 -0.009765 0.000544
 32   -0.810489 -0.093824 3.127092 -0.127066 -2.972949 -0.339085
 33   14.298673 -0.408176 0.475484 -0.000088 -0.000042 -0.465382
 34   15.835795 0.581398 0.242756 0.161973 -0.014398 0.036865
 35   -0.815868 -0.091229 -3.114430 0.093748 3.000904 -0.046237
 36   14.294526 -0.410349 -0.463635 0.000081 0.000060 -0.430570
 37   15.834409 0.579420 -0.284600 -0.088684 0.040431 0.294364
 38   1.139685 -3.453749 -2.823813 0.000400 -0.000277 0.000795
 39   -4.457742 -1.047041 -0.746180 0.000491 0.001127 -0.004459
 40   1.118101 -3.449769 3.237290 -0.000168 -0.000336 0.001405
 41   -4.433840 -1.051317 0.959566 0.000047 0.000108 -0.000449
 42   -0.657468 1.697302 -2.680801 0.003308 0.005169 -0.000418
 43   -0.664068 1.698578 2.861564 -0.003886 -0.005851 0.001004
time 3
  0   0.001233 0.187506 0.703518 0.000000 0.000000 -1.571449
  1   -1.093036 0.000002 -0.326057 -1.570809 -1.570379 0.000022
  2   2.262337 0.113614 0.064702 -0.241441 -0.007502 -0.059755
  3   2.380047 0.353302 0.047440 0.017986 0.016714 -0.079276
  4   2.033756 0.190472 -0.000128 -0.233733 -0.059084 -0.288660
  5   2.451511 0.204909 -0.003447 -0.238558 -0.038976 -0.151354
  6   7.247600 -0.397300 -0.109469 0.000001 0.000009 0.087015
  7   -2.022252 -0.104661 3.136172 -0.274914 -1.343846 -2.960444
  8   1.168026 -0.537438 -0.063437 0.580833 0.908592 0.263227
  9   6.790376 -0.619176 0.015206 0.004669 0.003720 -1.894235
 10   8.637599 0.544015 -0.090417 -1.944564 -0.086711 -0.069499
 11   6.790465 -0.619039 0.017802 0.008651 -0.010116 -1.341143
 12   -2.022474 -0.104699 -2.873818 0.274826 1.343834 -2.960577
 13   1.167898 -0.537463 0.063297 -0.219881 -1.307898 -0.385092
 14   7.002743 -0.617765 -0.183752 0.000229 0.000250 -1.849607
 15   8.209042 0.615527 -0.255885 2.158040 -0.134813 0.133438
 16   7.002735 -0.617911 -0.183641 0.013121 0.010300 -1.313413
 17   1.574674 0.609930 -0.000899 0.696920 0.028811 0.242900
 18   -0.602177 0.511412 -0.000006 0.000000 0.000000 0.000000
 19   3.646428 0.364526 1.119313 -0.000002 -0.000014 -0.174510
 20   3.646422 0.364499 -1.117566 0.000007 -0.000003 -0.174546
 21   3.805634 1.330634 1.627658 0.000002 -0.000011 -0.000026
 22   -0.246060 -0.011889 0.516521 -0.000011 0.000031 0.000025
 23   3.805651 1.330659 -1.631083 0.000019 0.000002 -0.000024
 24   -0.246150 -0.011872 -0.516511 -0.000005 -0.000006 0.000048
 25   4.941364 1.997338 1.629330 0.000018 -0.000001 -0.000024
 26   4.941382 1.997366 -1.629410 -0.000001 0.000005 -0.000024
 27   2.930087 1.603639 1.514501 -0.000019 -0.000022 -0.000050
 28   2.932517 1.603245 -1.501142 -0.000002 -0.000009 -0.000024
 29   8.824059 0.150544 0.091743 0.008472 -0.002629 -0.149802
 30   2.111085 -0.561179 1.776507 -0.000225 0.015185 0.001075
 31   2.129103 -0.561289 -1.845786 0.000031 -0.020902 0.001163
 32   -0.810489 -0.093824 3.127092 -0.125575 -2.972090 -0.346884
 33   14.298673 -0.408176 0.475484 -0.000088 -0.000042 -0.480706
 34   15.835795 0.581398 0.242756 0.161927 -0.014642 0.044450
 35   -0.815868 -0.091229 -3.114430 0.092428 2.999686 -0.053906
 36   14.294526 -0.410349 -0.463635 0.000081 0.000060 -0.446946
 37   15.834409 0.579420 -0.284600 -0.088684 0.040687 0.302730
 38   1.139685 -3.453749 -2.823813 0.000842 -0.000627 0.001895
 39   -4.457742 -1.027509 -0.746180 0.001091 0.002409 -0.009648
 40   1.118101 -3.449769 3.237290 -0.000400 -0.000746 0.003116
 41   -4.426027 -1.043504 0.959566 0.000107 0.000228 -0.000954
 42   -0.649655 1.697302 -2.661269 0.007095 0.011057 -0.001046
 43   -0.664068 1.698578 2.849845 -0.008309 -0.012520 0.002133
time 4
  0   0.001233 0.187506 0.633203 0.000000 0.000000 -1.571449
  1   -1.093036 0.000002 -0.326057 -1.570809 -1.570379 0.000022
  2   2.262337 0.113614 0.064702 -0.241441 -0.007502 -0.059755
  3   2.380047 0.353302 0.047440 0.017986 0.016714 -0.079276
  4   2.033756 0.190472 -0.000128 -0.233954 -0.058065 -0.284999
  5   2.451511 0.204909 -0.003447 -0.238763 -0.037357 -0.144667
  6   7.247600 -0.397300 -0.109469 0.000001 0.000009 0.087015
  7   -2.022252 -0.104661 3.136172 -0.268300 -1.338138 -2.967582
  8   1.168026 -0.537438 -0.063437 0.568556 0.902554 0.250322
  9   6.790376 -0.619176 0.015206 0.004669 0.003720 -1.892122
 10   8.637599 0.544015 -0.090417 -1.944564 -0.086711 -0.069499
 11   6.790465 -0.619039 0.017802 0.008651 -0.010116 -1.339759
 12   -2.022474 -0.104699 -2.873818 0.268311 1.338261 -2.967471
 13   1.167898 -0.537463 0.063297 -0.207439 -1.299761 -0.398652
 14   7.002743 -0.617765 -0.183752 0.000229 0.000250 -1.848782
 15   8.209042 0.615527 -0.255885 2.158040 -0.134813 0.133438
 16   7.002735 -0.617911 -0.183641 0.013121 0.010300 -1.312806
 17   1.574674 0.609930 -0.000899 0.697082 0.029734 0.232366
 18   -0.602177 0.511412 -0.000006 0.000000 0.000000 0.000000
 19   3.646428 0.364526 1.119313 -0.000002 -0.000014 -0.174510
 20   3.646422 0.364499 -1.117566 0.000007 -0.000003 -0.174546
 21   3.805634 1.330634 1.627658 0.000002 -0.000011 -0.000026
 22   -0.246060 -0.011889 0.516521 -0.000011 0.000031 0.000025
 23   3.805651 1.330659 -1.631083 0.000019 0.000002 -0.000024
 24   -0.246150 -0.011872 -0.516511 -0.000005 -0.000006 0.000048
 25   4.941364 1.997338 1.629330 0.000018 -0.000001 -0.000024
 26   4.941382 1.997366 -1.629410 -0.000001 0.000005 -0.000024
 27   2.930087 1.603639 1.514501 -0.000019 -0.000022 -0.000050
 28   2.932517 1.603245 -1.501142 -0.000002 -0.000009 -0.000024
 29   8.824059 0.150544 0.091743 0.014265 -0.004409 -0.132849
 30   2.118898 -0.561179 1.764788 -0.000361 0.026111 0.001804
 31   2.133009 -0.561289 -1.837973 0.000046 -0.035330 0.001945
 32   -0.810489 -0.093824 3.127092 -0.124083 -2.970943 -0.354284
 33   14.298673 -0.408176 0.475484 -0.000088 -0.000042 -0.495474
 34   15.835795 0.581398 0.242756 0.161858 -0.014886 0.051683
 35   -0.815868 -0.091229 -3.114430 0.091636 2.998749 -0.061574
 36   14.294526 -0.410349 -0.463635 0.000081 0.000060 -0.462781
 37   15.834409 0.579420 -0.284600 -0.088684 0.040943 0.311045
 38   1.147498 -3.453749 -2.823813 0.001410 -0.001073 0.003239
 39   -4.457742 -1.011884 -0.738367 0.001846 0.004075 -0.016267
 40   1.110288 -3.449769 3.237290 -0.000674 -0.001276 0.005254
 41   -4.410401 -1.031785 0.967379 0.000191 0.000384 -0.001599
 42   -0.649655 1.697302 -2.641737 0.011973 0.018631 -0.001756
 43   -0.664068 1.698578 2.830313 -0.014031 -0.021134 0.003638
time 5
  0   0.001233 0.187506 0.566795 0.000000 0.000000 -1.571449
  1   -1.093036 0.000002 -0.326057 -1.570809 -1.570379 0.000022
  2   2.262337 0.113614 0.064702 -0.241441 -0.007502 -0.059755
  3   2.380047 0.353302 0.047440 0.017986 0.016714 -0.079276
  4   2.033756 0.190472 -0.000128 -0.234194 -0.057166 -0.281193
  5   2.451511 0.204909 -0.003447 -0.239054 -0.035555 -0.137906
  6   7.247600 -0.397300 -0.109469 0.000001 0.000009 0.087015
  7   -2.022252 -0.104661 3.136172 -0.261878 -1.332373 -2.974156
  8   1.168026 -0.537438 -0.063437 0.556913 0.896466 0.237480
  9   6.790376 -0.619176 0.015206 0.004669 0.003720 -1.889858
 10   8.637599 0.544015 -0.090417 -1.944564 -0.086711 -0.069499
 11   6.790465 -0.619039 0.017802 0.008563 -0.010116 -1.338144
 12   -2.022474 -0.104699 -2.873818 0.261892 1.332340 -2.974556
 13   1.167898 -0.537463 0.063297 -0.195418 -1.291065 -0.411909
 14   7.002743 -0.617765 -0.183752 0.000229 0.000250 -1.847792
 15   8.209042 0.615527 -0.255885 2.158040 -0.134813 0.133438
 16   7.002735 -0.617911 -0.183641 0.013121 0.010300 -1.312033
 17   1.574674 0.609930 -0.000899 0.697245 0.030657 0.221610
 18   -0.602177 0.511412 -0.000006 0.000000 0.000000 0.000000
 19   3.646428 0.364526 1.119313 -0.000002 -0.000014 -0.174510
 20   3.646422 0.364499 -1.117566 0.000007 -0.000003 -0.174546
 21   3.805634 1.330634 1.627658 0.000002 -0.000011 -0.000026
 22   -0.246060 -0.011889 0.516521 -0.000011 0.000031 0.000025
 23   3.805651 1.330659 -1.631083 0.000019 0.000002 -0.000024
 24   -0.246150 -0.011872 -0.516511 -0.000005 -0.000006 0.000048
 25   4.941364 1.997338 1.629330 0.000018 -0.000001 -0.000024
 26   4.941382 1.997366 -1.629410 -0.000001 0.000005 -0.000024
 27   2.930087 1.603639 1.514501 -0.000019 -0.000022 -0.000050
 28   2.932517 1.603245 -1.501142 -0.000002 -0.000009 -0.000024
 29   8.824059 0.150544 0.091743 0.021038 -0.006617 -0.112785
 30   2.122804 -0.561179 1.753069 -0.000537 0.038927 0.002640
 31   2.140822 -0.561289 -1.834067 0.000092 -0.052191 0.002891
 32   -0.810489 -0.093824 3.127092 -0.122592 -2.969606 -0.361627
 33   14.298673 -0.408176 0.475484 -0.000088 -0.000042 -0.509448
 34   15.835795 0.581398 0.242756 0.161743 -0.015081 0.058519
 35   -0.815868 -0.091229 -3.114430 0.090404 2.998000 -0.068586
 36   14.294526 -0.410349 -0.463635 0.000081 0.000060 -0.477535
 37   15.834409 0.579420 -0.284600 -0.088684 0.041198 0.318853
 38   1.147498 -3.453749 -2.823813 0.002126 -0.001579 0.004766
 39   -4.457742 -0.992352 -0.734461 0.002721 0.006016 -0.024035
 40   1.110288 -3.449769 3.237290 -0.000989 -0.001903 0.007820
 41   -4.402589 -1.020066 0.967379 0.000287 0.000575 -0.002384
 42   -0.637936 1.697302 -2.618299 0.017689 0.027570 -0.002635
 43   -0.664068 1.690765 2.806875 -0.020753 -0.031240 0.005395
time 6
  0   0.001233 0.187506 0.508199 0.000000 0.000000 -1.571449
  1   -1.093036 0.000002 -0.326057 -1.570809 -1.570379 0.000022
  2   2.262337 0.113614 0.064702 -0.241441 -0.007502 -0.059755
  3   2.380047 0.353302 0.047440 0.017986 0.016714 -0.079276
  4   2.033756 0.190472 -0.000128 -0.234360 -0.056316 -0.277351
  5   2.451511 0.204909 -0.003447 -0.239294 -0.033897 -0.131195
  6   7.247600 -0.397300 -0.109469 0.000001 0.000009 0.087015
  7   -2.022252 -0.104661 3.136172 -0.255455 -1.326521 -2.980824
  8   1.168026 -0.537438 -0.063437 0.546092 0.890529 0.225334
  9   6.790376 -0.619176 0.015206 0.004669 0.003720 -1.887292
 10   8.637599 0.544015 -0.090417 -1.944564 -0.086711 -0.069499
 11   6.790465 -0.619039 0.017802 0.008563 -0.010116 -1.336356
 12   -2.022474 -0.104699 -2.873818 0.255377 1.326535 -2.980875
 13   1.167898 -0.537463 0.063297 -0.184804 -1.282624 -0.423895
 14   7.002743 -0.617765 -0.183752 0.000229 0.000250 -1.846637
 15   8.209042 0.615527 -0.255885 2.158040 -0.134813 0.133438
 16   7.002735 -0.617911 -0.183641 0.013121 0.010300 -1.311371
 17   1.574674 0.609930 -0.000899 0.697366 0.031509 0.210929
 18   -0.602177 0.511412 -0.000006 0.000000 0.000000 0.000000
 19   3.646428 0.364526 1.119313 -0.000002 -0.000014 -0.174510
 20   3.646422 0.364499 -1.117566 0.000007 -0.000003 -0.174546
 21   3.805634 1.330634 1.627658 0.000002 -0.000011 -0.000026
 22   -0.246060 -0.011889 0.516521 -0.000011 0.000031 0.000025
 23   3.805651 1.330659 -1.631083 0.000019 0.000002 -0.000024
 24   -0.246150 -0.011872 -0.516511 -0.000005 -0.000006 0.000048
 25   4.941364 1.997338 1.629330 0.000018 -0.000001 -0.000024
 26   4.941382 1.997366 -1.629410 -0.000001 0.000005 -0.000024
 27   2.930087 1.603639 1.514501 -0.000019 -0.000022 -0.000050
 28   2.932517 1.603245 -1.501142 -0.000002 -0.000009 -0.000024
 29   8.824059 0.150544 0.091743 0.028525 -0.009228 -0.090682
 30   2.130617 -0.561179 1.741350 -0.000727 0.053079 0.003583
 31   2.152541 -0.561289 -1.822348 0.000138 -0.070866 0.003965
 32   -0.810489 -0.093824 3.127092 -0.121287 -2.968842 -0.368173
 33   14.298673 -0.408176 0.475484 -0.000088 -0.000042 -0.522390
 34   15.835795 0.581398 0.242756 0.161743 -0.015325 0.064958
 35   -0.815868 -0.091229 -3.114430 0.089260 2.997251 -0.075488
 36   14.294526 -0.410349 -0.463635 0.000081 0.000060 -0.491284
 37   15.834409 0.579420 -0.284600 -0.088625 0.041378 0.326154
 38   1.155311 -3.453749 -2.823813 0.002884 -0.002145 0.006538
 39   -4.457742 -0.961101 -0.726648 0.003691 0.008162 -0.032645
 40   1.106382 -3.449769 3.237290 -0.001347 -0.002602 0.010692
 41   -4.386963 -1.000534 0.979098 0.000383 0.000791 -0.003225
 42   -0.637936 1.697302 -2.594861 0.024017 0.037413 -0.003597
 43   -0.664068 1.690765 2.787343 -0.028187 -0.042428 0.007319
time 7
  0   0.001233 0.187506 0.441791 0.000000 0.000000 -1.571449
  1   -1.093036 0.000002 -0.326057 -1.570809 -1.570379 0.000022
  2   2.262337 0.113614 0.064702 -0.241441 -0.007502 -0.059755
  3   2.380047 0.353302 0.047440 0.017986 0.016714 -0.079276
  4   2.033756 0.190472 -0.000128 -0.234581 -0.055525 -0.273835
  5   2.451511 0.204909 -0.003447 -0.239499 -0.032278 -0.124533
  6   7.247600 -0.397300 -0.109469 0.000001 0.000009 0.087015
  7   -2.022252 -0.104661 3.136172 -0.249608 -1.320756 -2.986928
  8   1.168026 -0.537438 -0.063437 0.535714 0.884139 0.213694
  9   6.790376 -0.619176 0.015206 0.004669 0.003720 -1.885028
 10   8.637599 0.544015 -0.090417 -1.944564 -0.086711 -0.069499
 11   6.790465 -0.619039 0.017802 0.008563 -0.010116 -1.334914
 12   -2.022474 -0.104699 -2.873818 0.249437 1.320905 -2.986715
 13   1.167898 -0.537463 0.063297 -0.175876 -1.274131 -0.434065
 14   7.002743 -0.617765 -0.183752 0.000229 0.000250 -1.845812
 15   8.209042 0.615527 -0.255885 2.158040 -0.134813 0.133438
 16   7.002735 -0.617911 -0.183641 0.013121 0.010300 -1.310764
 17   1.574674 0.609930 -0.000899 0.697448 0.032432 0.200543
 18   -0.602177 0.511412 -0.000006 0.000000 0.000000 0.000000
 19   3.646428 0.364526 1.119313 -0.000002 -0.000014 -0.174510
 20   3.646422 0.364499 -1.117566 0.000007 -0.000003 -0.174546
 21   3.805634 1.330634 1.627658 0.000002 -0.000011 -0.000026
 22   -0.246060 -0.011889 0.516521 -0.000011 0.000031 0.000025
 23   3.805651 1.330659 -1.631083 0.000019 0.000002 -0.000024
 24   -0.246150 -0.011872 -0.516511 -0.000005 -0.000006 0.000048
 25   4.941364 1.997338 1.629330 0.000018 -0.000001 -0.000024
 26   4.941382 1.997366 -1.629410 -0.000001 0.000005 -0.000024
 27   2.930087 1.603639 1.514501 -0.000019 -0.000022 -0.000050
 28   2.932517 1.603245 -1.501142 -0.000002 -0.000009 -0.000024
 29   8.824059 0.150544 0.091743 0.036367 -0.012124 -0.067345
 30   2.138430 -0.561179 1.721818 -0.000944 0.068074 0.004570
 31   2.160354 -0.561289 -1.814535 0.000184 -0.090655 0.005075
 32   -0.810489 -0.093824 3.127092 -0.120355 -2.967887 -0.374149
 33   14.298673 -0.408176 0.475484 -0.000088 -0.000042 -0.533982
 34   15.835795 0.581398 0.242756 0.161743 -0.015447 0.069765
 35   -0.815868 -0.091229 -3.114430 0.088467 2.996407 -0.081239
 36   14.294526 -0.410349 -0.463635 0.000081 0.000060 -0.503566
 37   15.834409 0.579420 -0.284600 -0.088625 0.041634 0.332542
 38   1.159217 -3.461562 -2.823813 0.003684 -0.002748 0.008371
 39   -4.465555 -0.937663 -0.718835 0.004734 0.010463 -0.041760
 40   1.098569 -3.441956 3.237290 -0.001726 -0.003325 0.013624
 41   -4.371338 -0.988815 0.979098 0.000490 0.001019 -0.004151
 42   -0.626217 1.697302 -2.563610 0.030717 0.047854 -0.004558
 43   -0.664068 1.686859 2.763905 -0.036033 -0.054275 0.009284
time 8
  0   0.001233 0.187506 0.371476 0.000000 0.000000 -1.571449
  1   -1.093036 0.000002 -0.326057 -1.570809 -1.570379 0.000022
  2   2.262337 0.113614 0.064702 -0.241441 -0.007502 -0.059755
  3   2.380047 0.353302 0.047440 0.017986 0.016714 -0.079276
  4   2.033756 0.190472 -0.000128 -0.234784 -0.054686 -0.270283
  5   2.451511 0.204909 -0.003447 -0.239636 -0.030751 -0.118168
  6   7.247600 -0.397300 -0.109469 0.000001 0.000009 0.087015
  7   -2.022252 -0.104661 3.136172 -0.244144 -1.314875 -2.992657
  8   1.168026 -0.537438 -0.063437 0.526475 0.877900 0.203446
  9   6.790376 -0.619176 0.015206 0.004669 0.003720 -1.882311
 10   8.637599 0.544015 -0.090417 -1.944564 -0.086711 -0.069499
 11   6.790465 -0.619039 0.017802 0.008563 -0.010116 -1.333011
 12   -2.022474 -0.104699 -2.873818 0.243784 1.314868 -2.992651
 13   1.167898 -0.537463 0.063297 -0.168988 -1.266249 -0.442116
 14   7.002743 -0.617765 -0.183752 0.000229 0.000250 -1.844822
 15   8.209042 0.615527 -0.255885 2.158040 -0.134813 0.133438
 16   7.002735 -0.617911 -0.183641 0.013121 0.010300 -1.310046
 17   1.574674 0.609930 -0.000899 0.697651 0.033355 0.190415
 18   -0.602177 0.511412 -0.000006 0.000000 0.000000 0.000000
 19   3.646428 0.364526 1.119313 -0.000002 -0.000014 -0.174510
 20   3.646422 0.364499 -1.117566 0.000007 -0.000003 -0.174546
 21   3.805634 1.330634 1.627658 0.000002 -0.000011 -0.000026
 22   -0.246060 -0.011889 0.516521 -0.000011 0.000031 0.000025
 23   3.805651 1.330659 -1.631083 0.000019 0.000002 -0.000024
 24   -0.246150 -0.011872 -0.516511 -0.000005 -0.000006 0.000048
 25   4.941364 1.997338 1.629330 0.000018 -0.000001 -0.000024
 26   4.941382 1.997366 -1.629410 -0.000001 0.000005 -0.000024
 27   2.930087 1.603639 1.514501 -0.000019 -0.000022 -0.000050
 28   2.932517 1.603245 -1.501142 -0.000002 -0.000009 -0.000024
 29   8.824059 0.150544 0.091743 0.044210 -0.015305 -0.043579
 30   2.142336 -0.561179 1.710099 -0.001161 0.083331 0.005578
 31   2.172073 -0.561289 -1.802816 0.000215 -0.110755 0.006203
 32   -0.810489 -0.093824 3.127092 -0.119143 -2.967123 -0.379386
 33   14.298673 -0.408176 0.475484 -0.000088 -0.000042 -0.544701
 34   15.835795 0.581398 0.242756 0.161858 -0.015618 0.075146
 35   -0.815868 -0.091229 -3.114430 0.087675 2.995564 -0.086771
 36   14.294526 -0.410349 -0.463635 0.000081 0.000060 -0.514921
 37   15.834409 0.579420 -0.284600 -0.088625 0.041864 0.338576
 38   1.159217 -3.461562 -2.823813 0.004505 -0.003350 0.010326
 39   -4.465555 -0.910318 -0.714929 0.005789 0.012776 -0.051015
 40   1.098569 -3.441956 3.237290 -0.002126 -0.004048 0.016740
 41   -4.355712 -0.965377 0.990817 0.000610 0.001234 -0.005048
 42   -0.618404 1.697302 -2.536265 0.037548 0.058464 -0.005646
 43   -0.664068 1.679046 2.736560 -0.044042 -0.066310 0.011417
time 9
  0   0.001233 0.187506 0.312881 0.000000 0.000000 -1.571449
  1   -1.093036 0.000002 -0.326057 -1.570809 -1.570379 0.000022
  2   2.262337 0.113614 0.064702 -0.241441 -0.007502 -0.059755
  3   2.380047 0.353302 0.047440 0.017986 0.016714 -0.079276
  4   2.033756 0.190472 -0.000128 -0.234950 -0.053883 -0.266948
  5   2.451511 0.204909 -0.003447 -0.239876 -0.029289 -0.112225
  6   7.247600 -0.397300 -0.109469 0.000001 0.000009 0.087015
  7   -2.022252 -0.104661 3.136172 -0.238776 -1.309139 -2.998292
  8   1.168026 -0.537438 -0.063437 0.518691 0.871963 0.194210
  9   6.790376 -0.619176 0.015206 0.004669 0.003720 -1.880047
 10   8.637599 0.544015 -0.090417 -1.944564 -0.086711 -0.069499
 11   6.790465 -0.619039 0.017802 0.008563 -0.010116 -1.331223
 12   -2.022474 -0.104699 -2.873818 0.238515 1.309295 -2.998204
 13   1.167898 -0.537463 0.063297 -0.164278 -1.258163 -0.447988
 14   7.002743 -0.617765 -0.183752 0.000229 0.000250 -1.843749
 15   8.209042 0.615527 -0.255885 2.158040 -0.134813 0.133438
 16   7.002735 -0.617911 -0.183641 0.013121 0.010300 -1.309163
 17   1.574674 0.609930 -0.000899 0.697732 0.034136 0.180953
 18   -0.602177 0.511412 -0.000006 0.000000 0.000000 0.000000
 19   3.646428 0.364526 1.119313 -0.000002 -0.000014 -0.174510
 20   3.646422 0.364499 -1.117566 0.000007 -0.000003 -0.174546
 21   3.805634 1.330634 1.627658 0.000002 -0.000011 -0.000026
 22   -0.246060 -0.011889 0.516521 -0.000011 0.000031 0.000025
 23   3.805651 1.330659 -1.631083 0.000019 0.000002 -0.000024
 24   -0.246150 -0.011872 -0.516511 -0.000005 -0.000006 0.000048
 25   4.941364 1.997338 1.629330 0.000018 -0.000001 -0.000024
 26   4.941382 1.997366 -1.629410 -0.000001 0.000005 -0.000024
 27   2.930087 1.603639 1.514501 -0.000019 -0.000022 -0.000050
 28   2.932517 1.603245 -1.501142 -0.000002 -0.000009 -0.000024
 29   8.824059 0.150544 0.091743 0.051963 -0.018628 -0.020242
 30   2.150149 -0.561179 1.698380 -0.001378 0.098326 0.006607
 31   2.183792 -0.561289 -1.791097 0.000245 -0.130491 0.007313
 32   -0.810489 -0.093824 3.127092 -0.118491 -2.966359 -0.385135
 33   14.298673 -0.408176 0.475484 -0.000088 -0.000042 -0.555499
 34   15.835795 0.581398 0.242756 0.161927 -0.015789 0.080306
 35   -0.815868 -0.091229 -3.114430 0.086971 2.994908 -0.092139
 36   14.294526 -0.410349 -0.463635 0.000081 0.000060 -0.526353
 37   15.834409 0.579420 -0.284600 -0.088625 0.042018 0.344711
 38   1.167030 -3.461562 -2.823813 0.005304 -0.003965 0.012159
 39   -4.465555 -0.886880 -0.707116 0.006807 0.015065 -0.060130
 40   1.090756 -3.441956 3.237290 -0.002526 -0.004771 0.019734
 41   -4.343993 -0.953658 0.990817 0.000718 0.001450 -0.005974
 42   -0.614498 1.689489 -2.508921 0.044223 0.068921 -0.006650
 43   -0.664068 1.679046 2.713122 -0.051888 -0.078126 0.013466
time 10
  0   0.001233 0.187506 0.266004 0.000000 0.000000 -1.571449
  1   -1.093036 0.000002 -0.326057 -1.570809 -1.570379 0.000022
  2   2.262337 0.113614 0.064702 -0.241441 -0.007502 -0.059755
  3   2.380047 0.353302 0.047440 0.017986 0.016714 -0.079276
  4   2.033756 0.190472 -0.000128 -0.235153 -0.053164 -0.263976
  5   2.451511 0.204909 -0.003447 -0.240047 -0.028114 -0.106850
  6   7.247600 -0.397300 -0.109469 0.000001 0.000009 0.087015
  7   -2.022252 -0.104661 3.136172 -0.233599 -1.303431 -3.003551
  8   1.168026 -0.537438 -0.063437 0.512490 0.865875 0.186239
  9   6.790376 -0.619176 0.015206 0.004780 0.003519 -1.877481
 10   8.637599 0.544015 -0.090417 -1.944564 -0.086711 -0.069499
 11   6.790465 -0.619039 0.017802 0.008534 -0.010116 -1.329608
 12   -2.022474 -0.104699 -2.873818 0.233341 1.303432 -3.003469
 13   1.167898 -0.537463 0.063297 -0.162380 -1.250383 -0.451075
 14   7.002743 -0.617765 -0.183752 0.000229 0.000250 -1.842924
 15   8.209042 0.615527 -0.255885 2.158040 -0.134813 0.133438
 16   7.002735 -0.617911 -0.183641 0.013121 0.010300 -1.308611
 17   1.574674 0.609930 -0.000899 0.697895 0.034775 0.172378
 18   -0.602177 0.511412 -0.000006 0.000000 0.000000 0.000000
 19   3.646428 0.364526 1.119313 -0.000002 -0.000014 -0.174510
 20   3.646422 0.364499 -1.117566 0.000007 -0.000003 -0.174546
 21   3.805634 1.330634 1.627658 0.000002 -0.000011 -0.000026
 22   -0.246060 -0.011889 0.516521 -0.000011 0.000031 0.000025
 23   3.805651 1.330659 -1.631083 0.000019 0.000002 -0.000024
 24   -0.246150 -0.011872 -0.516511 -0.000005 -0.000006 0.000048
 25   4.941364 1.997338 1.629330 0.000018 -0.000001 -0.000024
 26   4.941382 1.997366 -1.629410 -0.000001 0.000005 -0.000024
 27   2.930087 1.603639 1.514501 -0.000019 -0.000022 -0.000050
 28   2.932517 1.603245 -1.501142 -0.000002 -0.000009 -0.000024
 29   8.824059 0.150544 0.091743 0.059093 -0.021928 0.001754
 30   2.154055 -0.553366 1.682754 -0.001554 0.112507 0.007529
 31   2.191605 -0.561289 -1.783284 0.000276 -0.149166 0.008350
 32   -0.810489 -0.093824 3.127092 -0.117279 -2.965309 -0.390429
 33   14.298673 -0.408176 0.475484 -0.000088 -0.000042 -0.565900
 34   15.835795 0.581398 0.242756 0.162042 -0.015984 0.085422
 35   -0.815868 -0.091229 -3.114430 0.086003 2.994346 -0.097343
 36   14.294526 -0.410349 -0.463635 0.000081 0.000060 -0.537167
 37   15.834409 0.579420 -0.284600 -0.088585 0.042248 0.350491
 38   1.170936 -3.465468 -2.823813 0.006062 -0.004519 0.013931
 39   -4.473368 -0.855629 -0.707116 0.007790 0.017222 -0.068740
 40   1.086850 -3.438050 3.237290 -0.002884 -0.005470 0.022544
 41   -4.332274 -0.934126 1.002536 0.000838 0.001678 -0.006815
 42   -0.606685 1.689489 -2.481576 0.050575 0.078764 -0.007611
 43   -0.664068 1.679046 2.689684 -0.059322 -0.089314 0.015390
time 11
  0   0.001233 0.187506 0.223034 0.000000 0.000000 -1.571449
  1   -1.093036 0.000002 -0.326057 -1.570809 -1.570379 0.000022
  2   2.262337 0.113614 0.064702 -0.241441 -0.007502 -0.059755
  3   2.380047 0.353302 0.047440 0.017986 0.016714 -0.079276
  4   2.033756 0.190472 -0.000128 -0.235282 -0.052421 -0.261221
  5   2.451511 0.204909 -0.003447 -0.240167 -0.026808 -0.102095
  6   7.247600 -0.397300 -0.109469 0.000001 0.000009 0.087015
  7   -2.022252 -0.104661 3.136172 -0.228902 -1.297868 -3.008528
  8   1.168026 -0.537438 -0.063437 0.507744 0.860089 0.180419
  9   6.790376 -0.619176 0.015206 0.004780 0.003519 -1.874991
 10   8.637599 0.544015 -0.090417 -1.944564 -0.086711 -0.069499
 11   6.790465 -0.619039 0.017802 0.008534 -0.010116 -1.327820
 12   -2.022474 -0.104699 -2.873818 0.228742 1.298092 -3.008256
 13   1.167898 -0.537463 0.063297 -0.163364 -1.243213 -0.451075
 14   7.002743 -0.617765 -0.183752 0.000229 0.000250 -1.842099
 15   8.209042 0.615527 -0.255885 2.158040 -0.134813 0.133438
 16   7.002735 -0.617911 -0.183641 0.013121 0.010300 -1.308004
 17   1.574674 0.609930 -0.000899 0.698016 0.035485 0.165097
 18   -0.602177 0.511412 -0.000006 0.000000 0.000000 0.000000
 19   3.646428 0.364526 1.119313 -0.000002 -0.000014 -0.174510
 20   3.646422 0.364499 -1.117566 0.000007 -0.000003 -0.174546
 21   3.805634 1.330634 1.627658 0.000002 -0.000011 -0.000026
 22   -0.246060 -0.011889 0.516521 -0.000011 0.000031 0.000025
 23   3.805651 1.330659 -1.631083 0.000019 0.000002 -0.000024
 24   -0.246150 -0.011872 -0.516511 -0.000005 -0.000006 0.000048
 25   4.941364 1.997338 1.629330 0.000018 -0.000001 -0.000024
 26   4.941382 1.997366 -1.629410 -0.000001 0.000005 -0.000024
 27   2.930087 1.603639 1.514501 -0.000019 -0.000022 -0.000050
 28   2.932517 1.603245 -1.501142 -0.000002 -0.000009 -0.000024
 29   8.824059 0.150544 0.091743 0.065599 -0.024990 0.021550
 30   2.161868 -0.553366 1.671035 -0.001744 0.125323 0.008387
 31   2.195511 -0.561289 -1.771565 0.000322 -0.166080 0.009296
 32   -0.810489 -0.093824 3.127092 -0.116440 -2.964545 -0.395324
 33   14.298673 -0.408176 0.475484 -0.000088 -0.000042 -0.575428
 34   15.835795 0.581398 0.242756 0.162226 -0.016106 0.089788
 35   -0.815868 -0.091229 -3.114430 0.085211 2.994252 -0.102109
 36   14.294526 -0.410349 -0.463635 0.000081 0.000060 -0.546977
 37   15.834409 0.579420 -0.284600 -0.088585 0.042453 0.355764
 38   1.178749 -3.465468 -2.823813 0.006778 -0.005037 0.015519
 39   -4.473368 -0.836097 -0.695397 0.008677 0.019151 -0.076509
 40   1.079037 -3.438050 3.237290 -0.003221 -0.006097 0.025110
 41   -4.316648 -0.922407 1.002536 0.000934 0.001870 -0.007628
 42   -0.594966 1.689489 -2.458138 0.056304 0.087703 -0.008490
 43   -0.664068 1.671233 2.670152 -0.066044 -0.099435 0.017147
time 12
  0   0.001233 0.187506 0.176158 0.000000 0.000000 -1.571449
  1   -1.093036 0.000002 -0.326057 -1.570809 -1.570379 0.000022
  2   2.262337 0.113614 0.064702 -0.241441 -0.007502 -0.059755
  3   2.380047 0.353302 0.047440 0.017986 0.016714 -0.079276
  4   2.033756 0.190472 -0.000128 -0.235356 -0.051869 -0.259155
  5   2.451511 0.204909 -0.003447 -0.240218 -0.025999 -0.098207
  6   7.247600 -0.397300 -0.109469 0.000001 0.000009 0.087015
  7   -2.022252 -0.104661 3.136172 -0.224397 -1.292506 -3.013130
  8   1.168026 -0.537438 -0.063437 0.505023 0.854655 0.176244
  9   6.790376 -0.619176 0.015206 0.004780 0.003519 -1.872425
 10   8.637599 0.544015 -0.090417 -1.944564 -0.086711 -0.069499
 11   6.790465 -0.619039 0.017802 0.008534 -0.010116 -1.325917
 12   -2.022474 -0.104699 -2.873818 0.224335 1.292345 -3.012756
 13   1.167898 -0.537463 0.063297 -0.167371 -1.236551 -0.447806
 14   7.002743 -0.617765 -0.183752 0.000229 0.000250 -1.841109
 15   8.209042 0.615527 -0.255885 2.158040 -0.134813 0.133438
 16   7.002735 -0.617911 -0.183641 0.013168 0.010300 -1.307397
 17   1.574674 0.609930 -0.000899 0.698057 0.035982 0.159035
 18   -0.602177 0.511412 -0.000006 0.000000 0.000000 0.000000
 19   3.646428 0.364526 1.119313 -0.000002 -0.000014 -0.174510
 20   3.646422 0.364499 -1.117566 0.000007 -0.000003 -0.174546
 21   3.805634 1.330634 1.627658 0.000002 -0.000011 -0.000026
 22   -0.246060 -0.011889 0.516521 -0.000011 0.000031 0.000025
 23   3.805651 1.330659 -1.631083 0.000019 0.000002 -0.000024
 24   -0.246150 -0.011872 -0.516511 -0.000005 -0.000006 0.000048
 25   4.941364 1.997338 1.629330 0.000018 -0.000001 -0.000024
 26   4.941382 1.997366 -1.629410 -0.000001 0.000005 -0.000024
 27   2.930087 1.603639 1.514501 -0.000019 -0.000022 -0.000050
 28   2.932517 1.603245 -1.501142 -0.000002 -0.000009 -0.000024
 29   8.824059 0.150544 0.091743 0.070946 -0.027743 0.038503
 30   2.165774 -0.553366 1.659316 -0.001893 0.136221 0.009116
 31   2.207230 -0.561289 -1.763752 0.000337 -0.180429 0.010078
 32   -0.810489 -0.093824 3.127092 -0.115974 -2.963972 -0.399594
 33   14.298673 -0.408176 0.475484 -0.000088 -0.000042 -0.583288
 34   15.835795 0.581398 0.242756 0.162364 -0.016155 0.093625
 35   -0.815868 -0.091229 -3.114430 0.084859 2.993409 -0.105943
 36   14.294526 -0.410349 -0.463635 0.000081 0.000060 -0.555474
 37   15.834409 0.579420 -0.284600 -0.088566 0.042632 0.360276
 38   1.178749 -3.465468 -2.823813 0.007346 -0.005471 0.016802
 39   -4.473368 -0.820472 -0.695397 0.009432 0.020817 -0.083156
 40   1.079037 -3.438050 3.237290 -0.003473 -0.006627 0.027248
 41   -4.308836 -0.910688 1.010349 0.001018 0.002013 -0.008273
 42   -0.594966 1.689489 -2.438606 0.061157 0.095277 -0.009201
 43   -0.664068 1.667327 2.650620 -0.071766 -0.108033 0.018610
time 13
  0   0.001233 0.187506 0.148813 0.000000 0.000000 -1.571449
  1   -1.093036 0.000002 -0.326057 -1.570809 -1.570379 0.000022
  2   2.262337 0.113614 0.064702 -0.241441 -0.007502 -0.059755
  3   2.380047 0.353302 0.047440 0.017986 0.016714 -0.079276
  4   2.033756 0.190472 -0.000128 -0.235485 -0.051618 -0.257379
  5   2.451511 0.204909 -0.003447 -0.240355 -0.025228 -0.095235
  6   7.247600 -0.397300 -0.109469 0.000001 0.000009 0.087015
  7   -2.022252 -0.104661 3.136172 -0.220179 -1.287260 -3.016886
  8   1.168026 -0.537438 -0.063437 0.504580 0.849221 0.174093
  9   6.790376 -0.619176 0.015206 0.004780 0.003519 -1.870161
 10   8.637599 0.544015 -0.090417 -1.944564 -0.086711 -0.069499
 11   6.790465 -0.619039 0.017802 0.008534 -0.010173 -1.324302
 12   -2.022474 -0.104699 -2.873818 0.220311 1.287324 -3.017160
 13   1.167898 -0.537463 0.063297 -0.175174 -1.229991 -0.440784
 14   7.002743 -0.617765 -0.183752 0.000229 0.000250 -1.839954
 15   8.209042 0.615527 -0.255885 2.158040 -0.134813 0.133438
 16   7.002735 -0.617911 -0.183641 0.013168 0.010300 -1.306569
 17   1.574674 0.609930 -0.000899 0.698057 0.036408 0.154489
 18   -0.602177 0.511412 -0.000006 0.000000 0.000000 0.000000
 19   3.646428 0.364526 1.119313 -0.000002 -0.000014 -0.174510
 20   3.646422 0.364499 -1.117566 0.000007 -0.000003 -0.174546
 21   3.805634 1.330634 1.627658 0.000002 -0.000011 -0.000026
 22   -0.246060 -0.011889 0.516521 -0.000011 0.000031 0.000025
 23   3.805651 1.330659 -1.631083 0.000019 0.000002 -0.000024
 24   -0.246150 -0.011872 -0.516511 -0.000005 -0.000006 0.000048
 25   4.941364 1.997338 1.629330 0.000018 -0.000001 -0.000024
 26   4.941382 1.997366 -1.629410 -0.000001 0.000005 -0.000024
 27   2.930087 1.603639 1.514501 -0.000019 -0.000022 -0.000050
 28   2.932517 1.603245 -1.501142 -0.000002 -0.000009 -0.000024
 29   8.824059 0.150544 0.091743 0.075135 -0.029951 0.051593
 30   2.169681 -0.553366 1.651503 -0.002015 0.144677 0.009652
 31   2.215043 -0.561289 -1.759846 0.000368 -0.191619 0.010715
 32   -0.810489 -0.093824 3.127092 -0.115601 -2.963590 -0.402667
 33   14.298673 -0.408176 0.475484 -0.000088 -0.000042 -0.589799
 34   15.835795 0.581398 0.242756 0.162525 -0.016228 0.096624
 35   -0.815868 -0.091229 -3.114430 0.084243 2.993128 -0.109011
 36   14.294526 -0.410349 -0.463635 0.000081 0.000060 -0.561576
 37   15.834409 0.579420 -0.284600 -0.088566 0.042760 0.363775
 38   1.178749 -3.473281 -2.823813 0.007788 -0.005808 0.017902
 39   -4.473368 -0.800940 -0.687584 0.009995 0.022112 -0.088288
 40   1.079037 -3.430237 3.237290 -0.003726 -0.007037 0.028959
 41   -4.301023 -0.902875 1.010349 0.001078 0.002145 -0.008778
 42   -0.587153 1.689489 -2.426887 0.064944 0.101180 -0.009744
 43   -0.664068 1.667327 2.638901 -0.076214 -0.114734 0.019781
time 14
  0   0.001233 0.187506 0.129281 0.000000 0.000000 -1.571449
  1   -1.093036 0.000002 -0.326057 -1.570809 -1.570379 0.000022
  2   2.262337 0.113614 0.064702 -0.241441 -0.007502 -0.059755
  3   2.380047 0.353302 0.047440 0.017986 0.016714 -0.079276
  4   2.033756 0.190472 -0.000128 -0.235522 -0.051366 -0.256509
  5   2.451511 0.204909 -0.003447 -0.240372 -0.024667 -0.093353
  6   7.247600 -0.397300 -0.109469 0.000001 0.000009 0.087015
  7   -2.022252 -0.104661 3.136172 -0.216728 -1.282215 -3.021113
  8   1.168026 -0.537438 -0.063437 0.506415 0.844391 0.174346
  9   6.790376 -0.619176 0.015206 0.004780 0.003519 -1.867595
 10   8.637599 0.544015 -0.090417 -1.944564 -0.086711 -0.069499
 11   6.790465 -0.619039 0.017802 0.008534 -0.010173 -1.322687
 12   -2.022474 -0.104699 -2.873818 0.216287 1.282303 -3.021469
 13   1.167898 -0.537463 0.063297 -0.186421 -1.224651 -0.430009
 14   7.002743 -0.617765 -0.183752 0.000229 0.000250 -1.839294
 15   8.209042 0.615527 -0.255885 2.158040 -0.134813 0.133438
 16   7.002735 -0.617911 -0.183641 0.013168 0.010300 -1.306238
 17   1.574674 0.609930 -0.000899 0.698138 0.036692 0.151458
 18   -0.602177 0.511412 -0.000006 0.000000 0.000000 0.000000
 19   3.654241 0.270773 1.119313 -0.000002 -0.000014 -0.174510
 20   3.654235 0.270746 -1.117566 0.000007 -0.000003 -0.174546
 21   3.352495 1.260319 1.576875 0.000002 -0.000011 -0.000026
 22   -0.238247 -0.379088 0.496989 0.000083 -0.028708 0.445010
 23   3.364231 1.256438 -1.623270 0.000019 0.000002 -0.000024
 24   -0.164116 -0.285318 -0.528230 0.000091 -0.028733 0.445062
 25   4.535101 1.997338 1.637143 -0.032209 0.220343 0.007203
 26   4.531213 1.997366 -1.621597 0.035749 -0.204340 -0.020853
 27   3.117593 1.466916 1.506688 -0.000019 -0.000022 -0.000050
 28   3.120023 1.466522 -1.508955 -0.000002 -0.000009 -0.000024
 29   8.824059 0.150544 0.091743 0.077808 -0.031375 0.060015
 30   2.173587 -0.553366 1.647597 -0.002083 0.150169 0.010038
 31   2.215043 -0.561289 -1.759846 0.000383 -0.198819 0.011134
 32   -0.810489 -0.093824 3.127092 -0.115322 -2.963207 -0.404546
 33   14.298673 -0.408176 0.475484 -0.000088 -0.000042 -0.593372
 34   15.835795 0.581398 0.242756 0.162617 -0.016277 0.098388
 35   -0.815868 -0.091229 -3.114430 0.083979 2.993034 -0.110928
 36   14.294526 -0.410349 -0.463635 0.000081 0.000060 -0.565670
 37   15.834409 0.579420 -0.284600 -0.088507 0.042837 0.365803
 38   1.178749 -3.473281 -2.823813 0.008104 -0.006037 0.018574
 39   -4.473368 -0.793127 -0.687584 0.010391 0.022939 -0.091625
 40   1.079037 -3.430237 3.237290 -0.003852 -0.007302 0.030059
 41   -4.297117 -0.891156 1.018162 0.001126 0.002229 -0.009115
 42   -0.583247 1.689489 -2.415168 0.067389 0.104998 -0.010163
 43   -0.664068 1.667327 2.627182 -0.079063 -0.119049 0.020534
time 15
  0   0.001233 0.187506 0.129281 0.000000 0.000000 -1.571449
  1   -1.093036 0.000002 -0.326057 -1.570809 -1.570379 0.000022
  2   2.262337 0.113614 0.064702 -0.241441 -0.007502 -0.059755
  3   2.380047 0.353302 0.047440 0.017986 0.016714 -0.079276
  4   2.033756 0.190472 -0.000128 -0.235522 -0.051138 -0.255929
  5   2.451511 0.204909 -0.003447 -0.240372 -0.024497 -0.092709
  6   7.247600 -0.397300 -0.109469 0.000001 0.000009 0.087015
  7   -2.022252 -0.104661 3.136172 -0.213086 -1.277488 -3.024681
  8   1.168026 -0.537438 -0.063437 0.510655 0.839762 0.177256
  9   6.790376 -0.619176 0.015206 0.004780 0.003519 -1.865482
 10   8.637599 0.544015 -0.090417 -1.944564 -0.086711 -0.069499
 11   6.790465 -0.619039 0.017802 0.008534 -0.010173 -1.321072
 12   -2.022474 -0.104699 -2.873818 0.212838 1.277427 -3.024915
 13   1.167898 -0.537463 0.063297 -0.202026 -1.219668 -0.414754
 14   7.002743 -0.617765 -0.183752 0.000229 0.000250 -1.838304
 15   8.209042 0.615527 -0.255885 2.158040 -0.134813 0.133438
 16   7.002735 -0.617911 -0.183641 0.013168 0.010300 -1.305410
 17   1.574674 0.609930 -0.000899 0.698138 0.036763 0.150497
 18   -0.602177 0.511412 -0.000006 0.000000 0.000000 0.000000
 19   3.673773 0.177020 1.119313 -0.000002 -0.000014 -0.174510
 20   3.673767 0.176993 -1.117566 0.000007 -0.000003 -0.174546
 21   2.899356 1.193911 1.522186 0.000002 -0.000011 -0.000026
 22   -0.226528 -0.754099 0.477457 0.000194 -0.057459 0.890061
 23   2.918905 1.182217 -1.611551 0.000019 0.000002 -0.000024
 24   -0.078176 -0.558764 -0.547762 0.000187 -0.057484 0.890104
 25   4.117120 1.989525 1.648862 -0.064411 0.440688 0.014417
 26   4.117138 1.989553 -1.609878 0.071523 -0.408734 -0.041694
 27   3.305099 1.322380 1.487156 -0.000019 -0.000022 -0.000050
 28   3.303622 1.321986 -1.528487 -0.000002 -0.000009 -0.000024
 29   8.824059 0.150544 0.091743 0.078789 -0.031898 0.063020
 30   2.173587 -0.553366 1.647597 -0.002110 0.152116 0.010166
 31   2.215043 -0.561289 -1.752033 0.000383 -0.201410 0.011261
 32   -0.810489 -0.093824 3.127092 -0.115135 -2.963112 -0.405172
 33   14.298673 -0.408176 0.475484 -0.000088 -0.000042 -0.594563
 34   15.835795 0.581398 0.242756 0.162686 -0.016277 0.098785
 35   -0.815868 -0.091229 -3.114430 0.083803 2.992753 -0.111311
 36   14.294526 -0.410349 -0.463635 0.000081 0.000060 -0.566597
 37   15.834409 0.579420 -0.284600 -0.088507 0.042837 0.366158
 38   1.182655 -3.473281 -2.823813 0.008188 -0.006122 0.018757
 39   -4.473368 -0.793127 -0.683678 0.010510 0.023238 -0.092803
 40   1.075131 -3.430237 3.237290 -0.003894 -0.007374 0.030364
 41   -4.297117 -0.891156 1.018162 0.001138 0.002253 -0.009199
 42   -0.583247 1.689489 -2.415168 0.068264 0.106347 -0.010288
 43   -0.664068 1.667327 2.627182 -0.080100 -0.120587 0.020785
time 16
  0   0.001233 0.187506 0.129281 0.000000 0.000000 -1.571449
  1   -1.093036 0.000002 -0.326057 -1.570809 -1.570379 0.000022
  2   2.262337 0.113614 0.064702 -0.241441 -0.007502 -0.059755
  3   2.380047 0.353302 0.047440 0.017986 0.016714 -0.079276
  4   2.033756 0.190472 -0.000128 -0.235522 -0.051366 -0.256509
  5   2.451511 0.204909 -0.003447 -0.240372 -0.024667 -0.093353
  6   7.247600 -0.397300 -0.109469 0.000001 0.000009 0.087015
  7   -2.022252 -0.104661 3.136172 -0.212127 -1.276306 -3.025620
  8   1.168026 -0.537438 -0.063437 0.516350 0.839108 0.182064
  9   6.790376 -0.619176 0.015206 0.004780 0.003519 -1.863897
 10   8.637599 0.544015 -0.090417 -1.944564 -0.086711 -0.069499
 11   6.790465 -0.619039 0.017802 0.008505 -0.010173 -1.320034
 12   -2.022474 -0.104699 -2.873818 0.212359 1.276266 -3.025586
 13   1.167898 -0.537463 0.063297 -0.215663 -1.218600 -0.400892
 14   7.002743 -0.617765 -0.183752 0.000229 0.000250 -1.837644
 15   8.209042 0.615527 -0.255885 2.158040 -0.134813 0.133438
 16   7.002735 -0.617911 -0.183641 0.013168 0.010244 -1.305134
 17   1.574674 0.609930 -0.000899 0.698138 0.036692 0.151458
 18   -0.602177 0.511412 -0.000006 0.000000 0.000000 0.000000
 19   3.654241 0.270773 1.119313 -0.000002 -0.000014 -0.174510
 20   3.654235 0.270746 -1.117566 0.000007 -0.000003 -0.174546
 21   3.352495 1.260319 1.576875 0.000002 -0.000011 -0.000026
 22   -0.238247 -0.379088 0.496989 0.000083 -0.028708 0.445010
 23   3.364231 1.256438 -1.623270 0.000019 0.000002 -0.000024
 24   -0.164116 -0.285318 -0.528230 0.000091 -0.028733 0.445062
 25   4.535101 1.997338 1.637143 -0.032209 0.220343 0.007203
 26   4.531213 1.997366 -1.621597 0.035749 -0.204340 -0.020853
 27   3.117593 1.466916 1.506688 -0.000019 -0.000022 -0.000050
 28   3.120023 1.466522 -1.508955 -0.000002 -0.000009 -0.000024
 29   8.824059 0.150544 0.091743 0.077808 -0.031375 0.060015
 30   2.173587 -0.553366 1.647597 -0.002083 0.150169 0.010038
 31   2.215043 -0.561289 -1.759846 0.000383 -0.198819 0.011134
 32   -0.810489 -0.093824 3.127092 -0.115508 -2.963207 -0.403977
 33   14.298673 -0.408176 0.475484 -0.000088 -0.000042 -0.592022
 34   15.835795 0.581398 0.242756 0.162617 -0.016277 0.097947
 35   -0.815868 -0.091229 -3.114430 0.083979 2.993034 -0.110270
 36   14.294526 -0.410349 -0.463635 0.000081 0.000060 -0.564357
 37   15.834409 0.579420 -0.284600 -0.088507 0.042837 0.365144
 38   1.178749 -3.473281 -2.823813 0.008104 -0.006037 0.018574
 39   -4.473368 -0.793127 -0.687584 0.010391 0.022939 -0.091625
 40   1.079037 -3.430237 3.237290 -0.003852 -0.007302 0.030059
 41   -4.297117 -0.891156 1.018162 0.001126 0.002229 -0.009115
 42   -0.583247 1.689489 -2.415168 0.067389 0.104998 -0.010163
 43   -0.664068 1.667327 2.627182 -0.079063 -0.119049 0.020534
time 17
  0   0.001233 0.187506 0.148813 0.000000 0.000000 -1.571449
  1   -1.093036 0.000002 -0.326057 -1.570809 -1.570379 0.000022
  2   2.262337 0.113614 0.064702 -0.241441 -0.007502 -0.059755
  3   2.380047 0.353302 0.047440 0.017986 0.016714 -0.079276
  4   2.033756 0.190472 -0.000128 -0.235485 -0.051618 -0.257379
  5   2.451511 0.204909 -0.003447 -0.240355 -0.025228 -0.095235
  6   7.247600 -0.397300 -0.109469 0.000001 0.000009 0.087015
  7   -2.022252 -0.104661 3.136172 -0.215386 -1.280255 -3.022240
  8   1.168026 -0.537438 -0.063437 0.519704 0.843787 0.185733
  9   6.790376 -0.619176 0.015206 0.004780 0.003519 -1.864048
 10   8.637599 0.544015 -0.090417 -1.944564 -0.086711 -0.069499
 11   6.790465 -0.619039 0.017802 0.008505 -0.010173 -1.320091
 12   -2.022474 -0.104699 -2.873818 0.214946 1.280184 -3.022713
 13   1.167898 -0.537463 0.063297 -0.217561 -1.223227 -0.398107
 14   7.002743 -0.617765 -0.183752 0.000229 0.000250 -1.837809
 15   8.209042 0.615527 -0.255885 2.158040 -0.134813 0.133438
 16   7.002735 -0.617911 -0.183641 0.013168 0.010244 -1.305134
 17   1.574674 0.609930 -0.000899 0.698057 0.036408 0.154489
 18   -0.602177 0.511412 -0.000006 0.000000 0.000000 0.000000
 19   3.646428 0.364526 1.119313 -0.000002 -0.000014 -0.174510
 20   3.646422 0.364499 -1.117566 0.000007 -0.000003 -0.174546
 21   3.805634 1.330634 1.627658 0.000002 -0.000011 -0.000026
 22   -0.246060 -0.011889 0.516521 -0.000011 0.000031 0.000025
 23   3.805651 1.330659 -1.631083 0.000019 0.000002 -0.000024
 24   -0.246150 -0.011872 -0.516511 -0.000005 -0.000006 0.000048
 25   4.941364 1.997338 1.629330 0.000018 -0.000001 -0.000024
 26   4.941382 1.997366 -1.629410 -0.000001 0.000005 -0.000024
 27   2.930087 1.603639 1.514501 -0.000019 -0.000022 -0.000050
 28   2.932517 1.603245 -1.501142 -0.000002 -0.000009 -0.000024
 29   8.824059 0.150544 0.091743 0.075135 -0.029951 0.051593
 30   2.169681 -0.553366 1.651503 -0.002015 0.144677 0.009652
 31   2.215043 -0.561289 -1.759846 0.000368 -0.191619 0.010715
 32   -0.810489 -0.093824 3.127092 -0.115788 -2.963781 -0.401814
 33   14.298673 -0.408176 0.475484 -0.000088 -0.000042 -0.587496
 34   15.835795 0.581398 0.242756 0.162525 -0.016155 0.095742
 35   -0.815868 -0.091229 -3.114430 0.084243 2.993315 -0.107970
 36   14.294526 -0.410349 -0.463635 0.000081 0.000060 -0.559568
 37   15.834409 0.579420 -0.284600 -0.088507 0.042709 0.362558
 38   1.178749 -3.473281 -2.823813 0.007788 -0.005808 0.017902
 39   -4.473368 -0.800940 -0.687584 0.009995 0.022112 -0.088288
 40   1.079037 -3.430237 3.237290 -0.003726 -0.007037 0.028959
 41   -4.301023 -0.902875 1.010349 0.001078 0.002145 -0.008778
 42   -0.587153 1.689489 -2.426887 0.064944 0.101180 -0.009744
 43   -0.664068 1.667327 2.638901 -0.076214 -0.114734 0.019781
time 18
  0   0.001233 0.187506 0.176158 0.000000 0.000000 -1.571449
  1   -1.093036 0.000002 -0.326057 -1.570809 -1.570379 0.000022
  2   2.262337 0.113614 0.064702 -0.241441 -0.007502 -0.059755
  3   2.380047 0.353302 0.047440 0.017986 0.016714 -0.079276
  4   2.033756 0.190472 -0.000128 -0.235356 -0.051869 -0.259155
  5   2.451511 0.204909 -0.003447 -0.240218 -0.025999 -0.098207
  6   7.247600 -0.397300 -0.109469 0.000001 0.000009 0.087015
  7   -2.022252 -0.104661 3.136172 -0.219412 -1.286078 -3.017920
  8   1.168026 -0.537438 -0.063437 0.521982 0.850026 0.189339
  9   6.790376 -0.619176 0.015206 0.004780 0.003519 -1.866010
 10   8.637599 0.544015 -0.090417 -1.944564 -0.086711 -0.069499
 11   6.790465 -0.619039 0.017802 0.008534 -0.010173 -1.321476
 12   -2.022474 -0.104699 -2.873818 0.219353 1.286134 -3.018309
 13   1.167898 -0.537463 0.063297 -0.213484 -1.229991 -0.401618
 14   7.002743 -0.617765 -0.183752 0.000229 0.000250 -1.838799
 15   8.209042 0.615527 -0.255885 2.158040 -0.134813 0.133438
 16   7.002735 -0.617911 -0.183641 0.013168 0.010300 -1.305686
 17   1.574674 0.609930 -0.000899 0.698057 0.035982 0.159035
 18   -0.602177 0.511412 -0.000006 0.000000 0.000000 0.000000
 19   3.646428 0.364526 1.119313 -0.000002 -0.000014 -0.174510
 20   3.646422 0.364499 -1.117566 0.000007 -0.000003 -0.174546
 21   3.805634 1.330634 1.627658 0.000002 -0.000011 -0.000026
 22   -0.246060 -0.011889 0.516521 -0.000011 0.000031 0.000025
 23   3.805651 1.330659 -1.631083 0.000019 0.000002 -0.000024
 24   -0.246150 -0.011872 -0.516511 -0.000005 -0.000006 0.000048
 25   4.941364 1.997338 1.629330 0.000018 -0.000001 -0.000024
 26   4.941382 1.997366 -1.629410 -0.000001 0.000005 -0.000024
 27   2.930087 1.603639 1.514501 -0.000019 -0.000022 -0.000050
 28   2.932517 1.603245 -1.501142 -0.000002 -0.000009 -0.000024
 29   8.824059 0.150544 0.091743 0.070946 -0.027743 0.038503
 30   2.165774 -0.553366 1.659316 -0.001893 0.136221 0.009116
 31   2.207230 -0.561289 -1.763752 0.000337 -0.180429 0.010078
 32   -0.810489 -0.093824 3.127092 -0.116347 -2.964258 -0.398455
 33   14.298673 -0.408176 0.475484 -0.000088 -0.000042 -0.581065
 34   15.835795 0.581398 0.242756 0.162433 -0.016106 0.092434
 35   -0.815868 -0.091229 -3.114430 0.084947 2.993971 -0.104793
 36   14.294526 -0.410349 -0.463635 0.000081 0.000060 -0.552925
 37   15.834409 0.579420 -0.284600 -0.088507 0.042581 0.359009
 38   1.178749 -3.465468 -2.823813 0.007346 -0.005471 0.016802
 39   -4.473368 -0.820472 -0.695397 0.009432 0.020817 -0.083156
 40   1.079037 -3.438050 3.237290 -0.003473 -0.006627 0.027248
 41   -4.308836 -0.910688 1.010349 0.001018 0.002013 -0.008273
 42   -0.594966 1.689489 -2.438606 0.061157 0.095277 -0.009201
 43   -0.664068 1.667327 2.650620 -0.071766 -0.108033 0.018610
time 19
  0   0.001233 0.187506 0.223034 0.000000 0.000000 -1.571449
  1   -1.093036 0.000002 -0.326057 -1.570809 -1.570379 0.000022
  2   2.262337 0.113614 0.064702 -0.241441 -0.007502 -0.059755
  3   2.380047 0.353302 0.047440 0.017986 0.016714 -0.079276
  4   2.033756 0.190472 -0.000128 -0.235282 -0.052421 -0.261221
  5   2.451511 0.204909 -0.003447 -0.240167 -0.026808 -0.102095
  6   7.247600 -0.397300 -0.109469 0.000001 0.000009 0.087015
  7   -2.022252 -0.104661 3.136172 -0.224205 -1.292016 -3.013130
  8   1.168026 -0.537438 -0.063437 0.526032 0.856718 0.194716
  9   6.790376 -0.619176 0.015206 0.004780 0.003519 -1.868199
 10   8.637599 0.544015 -0.090417 -1.944564 -0.086711 -0.069499
 11   6.790465 -0.619039 0.017802 0.008534 -0.010173 -1.323033
 12   -2.022474 -0.104699 -2.873818 0.223856 1.291997 -3.013427
 13   1.167898 -0.537463 0.063297 -0.212640 -1.237365 -0.401618
 14   7.002743 -0.617765 -0.183752 0.000229 0.000250 -1.839624
 15   8.209042 0.615527 -0.255885 2.158040 -0.134813 0.133438
 16   7.002735 -0.617911 -0.183641 0.013168 0.010300 -1.306293
 17   1.574674 0.609930 -0.000899 0.698016 0.035485 0.165097
 18   -0.602177 0.511412 -0.000006 0.000000 0.000000 0.000000
 19   3.646428 0.364526 1.119313 -0.000002 -0.000014 -0.174510
 20   3.646422 0.364499 -1.117566 0.000007 -0.000003 -0.174546
 21   3.805634 1.330634 1.627658 0.000002 -0.000011 -0.000026
 22   -0.246060 -0.011889 0.516521 -0.000011 0.000031 0.000025
 23   3.805651 1.330659 -1.631083 0.000019 0.000002 -0.000024
 24   -0.246150 -0.011872 -0.516511 -0.000005 -0.000006 0.000048
 25   4.941364 1.997338 1.629330 0.000018 -0.000001 -0.000024
 26   4.941382 1.997366 -1.629410 -0.000001 0.000005 -0.000024
 27   2.930087 1.603639 1.514501 -0.000019 -0.000022 -0.000050
 28   2.932517 1.603245 -1.501142 -0.000002 -0.000009 -0.000024
 29   8.824059 0.150544 0.091743 0.065599 -0.024990 0.021550
 30   2.161868 -0.553366 1.671035 -0.001744 0.125323 0.008387
 31   2.195511 -0.561289 -1.771565 0.000322 -0.166080 0.009296
 32   -0.810489 -0.093824 3.127092 -0.117093 -2.964927 -0.394072
 33   14.298673 -0.408176 0.475484 -0.000088 -0.000042 -0.572887
 34   15.835795 0.581398 0.242756 0.162295 -0.016033 0.088509
 35   -0.815868 -0.091229 -3.114430 0.085651 2.994252 -0.100794
 36   14.294526 -0.410349 -0.463635 0.000081 0.000060 -0.544428
 37   15.834409 0.579420 -0.284600 -0.088566 0.042401 0.354243
 38   1.178749 -3.465468 -2.823813 0.006778 -0.005037 0.015519
 39   -4.473368 -0.836097 -0.695397 0.008677 0.019151 -0.076509
 40   1.079037 -3.438050 3.237290 -0.003221 -0.006097 0.025110
 41   -4.316648 -0.922407 1.002536 0.000934 0.001870 -0.007628
 42   -0.594966 1.689489 -2.458138 0.056304 0.087703 -0.008490
 43   -0.664068 1.671233 2.670152 -0.066044 -0.099435 0.017147
time 20
  0   0.001233 0.187506 0.266004 0.000000 0.000000 -1.571449
  1   -1.093036 0.000002 -0.326057 -1.570809 -1.570379 0.000022
  2   2.262337 0.113614 0.064702 -0.241441 -0.007502 -0.059755
  3   2.380047 0.353302 0.047440 0.017986 0.016714 -0.079276
  4   2.033756 0.190472 -0.000128 -0.235153 -0.053164 -0.263976
  5   2.451511 0.204909 -0.003447 -0.240047 -0.028114 -0.106850
  6   7.247600 -0.397300 -0.109469 0.000001 0.000009 0.087015
  7   -2.022252 -0.104661 3.136172 -0.228998 -1.298069 -3.008340
  8   1.168026 -0.537438 -0.063437 0.532107 0.863309 0.202244
  9   6.790376 -0.619176 0.015206 0.004780 0.003519 -1.870161
 10   8.637599 0.544015 -0.090417 -1.944564 -0.086711 -0.069499
 11   6.790465 -0.619039 0.017802 0.008534 -0.010173 -1.324302
 12   -2.022474 -0.104699 -2.873818 0.228838 1.298150 -3.008256
 13   1.167898 -0.537463 0.063297 -0.214679 -1.245450 -0.398410
 14   7.002743 -0.617765 -0.183752 0.000229 0.000250 -1.840284
 15   8.209042 0.615527 -0.255885 2.158040 -0.134813 0.133438
 16   7.002735 -0.617911 -0.183641 0.013168 0.010300 -1.306845
 17   1.574674 0.609930 -0.000899 0.697895 0.034775 0.172378
 18   -0.602177 0.511412 -0.000006 0.000000 0.000000 0.000000
 19   3.646428 0.364526 1.119313 -0.000002 -0.000014 -0.174510
 20   3.646422 0.364499 -1.117566 0.000007 -0.000003 -0.174546
 21   3.805634 1.330634 1.627658 0.000002 -0.000011 -0.000026
 22   -0.246060 -0.011889 0.516521 -0.000011 0.000031 0.000025
 23   3.805651 1.330659 -1.631083 0.000019 0.000002 -0.000024
 24   -0.246150 -0.011872 -0.516511 -0.000005 -0.000006 0.000048
 25   4.941364 1.997338 1.629330 0.000018 -0.000001 -0.000024
 26   4.941382 1.997366 -1.629410 -0.000001 0.000005 -0.000024
 27   2.930087 1.603639 1.514501 -0.000019 -0.000022 -0.000050
 28   2.932517 1.603245 -1.501142 -0.000002 -0.000009 -0.000024
 29   8.824059 0.150544 0.091743 0.059093 -0.021928 0.001754
 30   2.154055 -0.553366 1.682754 -0.001554 0.112507 0.007529
 31   2.191605 -0.561289 -1.783284 0.000276 -0.149166 0.008350
 32   -0.810489 -0.093824 3.127092 -0.117652 -2.965691 -0.389234
 33   14.298673 -0.408176 0.475484 -0.000088 -0.000042 -0.563518
 34   15.835795 0.581398 0.242756 0.162134 -0.015911 0.084187
 35   -0.815868 -0.091229 -3.114430 0.086267 2.994908 -0.096083
 36   14.294526 -0.410349 -0.463635 0.000081 0.000060 -0.534541
 37   15.834409 0.579420 -0.284600 -0.088566 0.042248 0.349122
 38   1.170936 -3.465468 -2.823813 0.006062 -0.004519 0.013931
 39   -4.473368 -0.855629 -0.707116 0.007790 0.017222 -0.068740
 40   1.086850 -3.438050 3.237290 -0.002884 -0.005470 0.022544
 41   -4.332274 -0.934126 1.002536 0.000838 0.001678 -0.006815
 42   -0.606685 1.689489 -2.481576 0.050575 0.078764 -0.007611
 43   -0.664068 1.679046 2.689684 -0.059322 -0.089314 0.015390
time 21
  0   0.001233 0.187506 0.312881 0.000000 0.000000 -1.571449
  1   -1.093036 0.000002 -0.326057 -1.570809 -1.570379 0.000022
  2   2.262337 0.113614 0.064702 -0.241441 -0.007502 -0.059755
  3   2.380047 0.353302 0.047440 0.017986 0.016714 -0.079276
  4   2.033756 0.190472 -0.000128 -0.234950 -0.053883 -0.266948
  5   2.451511 0.204909 -0.003447 -0.239876 -0.029289 -0.112225
  6   7.247600 -0.397300 -0.109469 0.000001 0.000009 0.087015
  7   -2.022252 -0.104661 3.136172 -0.234270 -1.304411 -3.002706
  8   1.168026 -0.537438 -0.063437 0.539764 0.870202 0.211733
  9   6.790376 -0.619176 0.015206 0.004780 0.003519 -1.872425
 10   8.637599 0.544015 -0.090417 -1.944564 -0.086711 -0.069499
 11   6.790465 -0.619039 0.017802 0.008534 -0.010116 -1.325917
 12   -2.022474 -0.104699 -2.873818 0.234299 1.304245 -3.002703
 13   1.167898 -0.537463 0.063297 -0.219599 -1.253536 -0.392417
 14   7.002743 -0.617765 -0.183752 0.000229 0.000250 -1.841109
 15   8.209042 0.615527 -0.255885 2.158040 -0.134813 0.133438
 16   7.002735 -0.617911 -0.183641 0.013168 0.010300 -1.307397
 17   1.574674 0.609930 -0.000899 0.697732 0.034136 0.180953
 18   -0.602177 0.511412 -0.000006 0.000000 0.000000 0.000000
 19   3.646428 0.364526 1.119313 -0.000002 -0.000014 -0.174510
 20   3.646422 0.364499 -1.117566 0.000007 -0.000003 -0.174546
 21   3.805634 1.330634 1.627658 0.000002 -0.000011 -0.000026
 22   -0.246060 -0.011889 0.516521 -0.000011 0.000031 0.000025
 23   3.805651 1.330659 -1.631083 0.000019 0.000002 -0.000024
 24   -0.246150 -0.011872 -0.516511 -0.000005 -0.000006 0.000048
 25   4.941364 1.997338 1.629330 0.000018 -0.000001 -0.000024
 26   4.941382 1.997366 -1.629410 -0.000001 0.000005 -0.000024
 27   2.930087 1.603639 1.514501 -0.000019 -0.000022 -0.000050
 28   2.932517 1.603245 -1.501142 -0.000002 -0.000009 -0.000024
 29   8.824059 0.150544 0.091743 0.051963 -0.018628 -0.020242
 30   2.150149 -0.561179 1.698380 -0.001378 0.098326 0.006607
 31   2.183792 -0.561289 -1.791097 0.000245 -0.130491 0.007313
 32   -0.810489 -0.093824 3.127092 -0.118584 -2.966455 -0.383940
 33   14.298673 -0.408176 0.475484 -0.000088 -0.000042 -0.553117
 34   15.835795 0.581398 0.242756 0.161973 -0.015740 0.079027
 35   -0.815868 -0.091229 -3.114430 0.086971 2.995095 -0.090825
 36   14.294526 -0.410349 -0.463635 0.000081 0.000060 -0.523572
 37   15.834409 0.579420 -0.284600 -0.088585 0.041992 0.343342
 38   1.167030 -3.461562 -2.823813 0.005304 -0.003965 0.012159
 39   -4.465555 -0.886880 -0.707116 0.006807 0.015065 -0.060130
 40   1.090756 -3.441956 3.237290 -0.002526 -0.004771 0.019734
 41   -4.343993 -0.953658 0.990817 0.000718 0.001450 -0.005974
 42   -0.614498 1.689489 -2.508921 0.044223 0.068921 -0.006650
 43   -0.664068 1.679046 2.713122 -0.051888 -0.078126 0.013466
time 22
  0   0.001233 0.187506 0.371476 0.000000 0.000000 -1.571449
  1   -1.093036 0.000002 -0.326057 -1.570809 -1.570379 0.000022
  2   2.262337 0.113614 0.064702 -0.241441 -0.007502 -0.059755
  3   2.380047 0.353302 0.047440 0.017986 0.016714 -0.079276
  4   2.033756 0.190472 -0.000128 -0.234784 -0.054686 -0.270283
  5   2.451511 0.204909 -0.003447 -0.239636 -0.030751 -0.118168
  6   7.247600 -0.397300 -0.109469 0.000001 0.000009 0.087015
  7   -2.022252 -0.104661 3.136172 -0.239734 -1.310667 -2.996507
  8   1.168026 -0.537438 -0.063437 0.548813 0.877196 0.221918
  9   6.790376 -0.619176 0.015206 0.004780 0.003519 -1.874538
 10   8.637599 0.544015 -0.090417 -1.944564 -0.086711 -0.069499
 11   6.790465 -0.619039 0.017802 0.008534 -0.010116 -1.327474
 12   -2.022474 -0.104699 -2.873818 0.239760 1.310659 -2.996768
 13   1.167898 -0.537463 0.063297 -0.226980 -1.261977 -0.383821
 14   7.002743 -0.617765 -0.183752 0.000229 0.000250 -1.842264
 15   8.209042 0.615527 -0.255885 2.158040 -0.134813 0.133438
 16   7.002735 -0.617911 -0.183641 0.013121 0.010300 -1.308280
 17   1.574674 0.609930 -0.000899 0.697651 0.033355 0.190415
 18   -0.602177 0.511412 -0.000006 0.000000 0.000000 0.000000
 19   3.646428 0.364526 1.119313 -0.000002 -0.000014 -0.174510
 20   3.646422 0.364499 -1.117566 0.000007 -0.000003 -0.174546
 21   3.805634 1.330634 1.627658 0.000002 -0.000011 -0.000026
 22   -0.246060 -0.011889 0.516521 -0.000011 0.000031 0.000025
 23   3.805651 1.330659 -1.631083 0.000019 0.000002 -0.000024
 24   -0.246150 -0.011872 -0.516511 -0.000005 -0.000006 0.000048
 25   4.941364 1.997338 1.629330 0.000018 -0.000001 -0.000024
 26   4.941382 1.997366 -1.629410 -0.000001 0.000005 -0.000024
 27   2.930087 1.603639 1.514501 -0.000019 -0.000022 -0.000050
 28   2.932517 1.603245 -1.501142 -0.000002 -0.000009 -0.000024
 29   8.824059 0.150544 0.091743 0.044210 -0.015305 -0.043579
 30   2.142336 -0.561179 1.710099 -0.001161 0.083331 0.005578
 31   2.172073 -0.561289 -1.802816 0.000215 -0.110755 0.006203
 32   -0.810489 -0.093824 3.127092 -0.119516 -2.967410 -0.378191
 33   14.298673 -0.408176 0.475484 -0.000088 -0.000042 -0.542319
 34   15.835795 0.581398 0.242756 0.161858 -0.015569 0.073867
 35   -0.815868 -0.091229 -3.114430 0.087675 2.995751 -0.085457
 36   14.294526 -0.410349 -0.463635 0.000081 0.000060 -0.512449
 37   15.834409 0.579420 -0.284600 -0.088585 0.041762 0.337308
 38   1.159217 -3.461562 -2.823813 0.004505 -0.003350 0.010326
 39   -4.465555 -0.910318 -0.714929 0.005789 0.012776 -0.051015
 40   1.098569 -3.441956 3.237290 -0.002126 -0.004048 0.016740
 41   -4.355712 -0.965377 0.990817 0.000610 0.001234 -0.005048
 42   -0.618404 1.697302 -2.536265 0.037548 0.058464 -0.005646
 43   -0.664068 1.679046 2.736560 -0.044042 -0.066310 0.011417
time 23
  0   0.001233 0.187506 0.441791 0.000000 0.000000 -1.571449
  1   -1.093036 0.000002 -0.326057 -1.570809 -1.570379 0.000022
  2   2.262337 0.113614 0.064702 -0.241441 -0.007502 -0.059755
  3   2.380047 0.353302 0.047440 0.017986 0.016714 -0.079276
  4   2.033756 0.190472 -0.000128 -0.234581 -0.055525 -0.273835
  5   2.451511 0.204909 -0.003447 -0.239499 -0.032278 -0.124533
  6   7.247600 -0.397300 -0.109469 0.000001 0.000009 0.087015
  7   -2.022252 -0.104661 3.136172 -0.246157 -1.317066 -2.990497
  8   1.168026 -0.537438 -0.063437 0.558938 0.884290 0.233811
  9   6.790376 -0.619176 0.015206 0.004780 0.003519 -1.876802
 10   8.637599 0.544015 -0.090417 -1.944564 -0.086711 -0.069499
 11   6.790465 -0.619039 0.017802 0.008534 -0.010116 -1.328973
 12   -2.022474 -0.104699 -2.873818 0.245796 1.317161 -2.990832
 13   1.167898 -0.537463 0.063297 -0.236189 -1.270521 -0.372985
 14   7.002743 -0.617765 -0.183752 0.000229 0.000250 -1.843007
 15   8.209042 0.615527 -0.255885 2.158040 -0.134813 0.133438
 16   7.002735 -0.617911 -0.183641 0.013121 0.010300 -1.308832
 17   1.574674 0.609930 -0.000899 0.697448 0.032432 0.200543
 18   -0.602177 0.511412 -0.000006 0.000000 0.000000 0.000000
 19   3.646428 0.364526 1.119313 -0.000002 -0.000014 -0.174510
 20   3.646422 0.364499 -1.117566 0.000007 -0.000003 -0.174546
 21   3.805634 1.330634 1.627658 0.000002 -0.000011 -0.000026
 22   -0.246060 -0.011889 0.516521 -0.000011 0.000031 0.000025
 23   3.805651 1.330659 -1.631083 0.000019 0.000002 -0.000024
 24   -0.246150 -0.011872 -0.516511 -0.000005 -0.000006 0.000048
 25   4.941364 1.997338 1.629330 0.000018 -0.000001 -0.000024
 26   4.941382 1.997366 -1.629410 -0.000001 0.000005 -0.000024
 27   2.930087 1.603639 1.514501 -0.000019 -0.000022 -0.000050
 28   2.932517 1.603245 -1.501142 -0.000002 -0.000009 -0.000024
 29   8.824059 0.150544 0.091743 0.036367 -0.012124 -0.067345
 30   2.138430 -0.561179 1.721818 -0.000944 0.068074 0.004570
 31   2.160354 -0.561289 -1.814535 0.000184 -0.090655 0.005075
 32   -0.810489 -0.093824 3.127092 -0.120448 -2.968269 -0.372783
 33   14.298673 -0.408176 0.475484 -0.000088 -0.000042 -0.531203
 34   15.835795 0.581398 0.242756 0.161743 -0.015447 0.068354
 35   -0.815868 -0.091229 -3.114430 0.088467 2.996595 -0.079979
 36   14.294526 -0.410349 -0.463635 0.000081 0.000060 -0.500708
 37   15.834409 0.579420 -0.284600 -0.088625 0.041608 0.331021
 38   1.159217 -3.461562 -2.823813 0.003684 -0.002748 0.008371
 39   -4.465555 -0.937663 -0.718835 0.004734 0.010463 -0.041760
 40   1.098569 -3.441956 3.237290 -0.001726 -0.003325 0.013624
 41   -4.371338 -0.988815 0.979098 0.000490 0.001019 -0.004151
 42   -0.626217 1.697302 -2.563610 0.030717 0.047854 -0.004558
 43   -0.664068 1.686859 2.763905 -0.036033 -0.054275 0.009284
time 24
  0   0.001233 0.187506 0.508199 0.000000 0.000000 -1.571449
  1   -1.093036 0.000002 -0.326057 -1.570809 -1.570379 0.000022
  2   2.262337 0.113614 0.064702 -0.241441 -0.007502 -0.059755
  3   2.380047 0.353302 0.047440 0.017986 0.016714 -0.079276
  4   2.033756 0.190472 -0.000128 -0.234360 -0.056316 -0.277351
  5   2.451511 0.204909 -0.003447 -0.239294 -0.033897 -0.131195
  6   7.247600 -0.397300 -0.109469 0.000001 0.000009 0.087015
  7   -2.022252 -0.104661 3.136172 -0.252388 -1.323523 -2.983641
  8   1.168026 -0.537438 -0.063437 0.570012 0.891183 0.246210
  9   6.790376 -0.619176 0.015206 0.004669 0.003720 -1.878764
 10   8.637599 0.544015 -0.090417 -1.944564 -0.086711 -0.069499
 11   6.790465 -0.619039 0.017802 0.008563 -0.010116 -1.330531
 12   -2.022474 -0.104699 -2.873818 0.252215 1.323662 -2.984226
 13   1.167898 -0.537463 0.063297 -0.247506 -1.279674 -0.360515
 14   7.002743 -0.617765 -0.183752 0.000229 0.000250 -1.843997
 15   8.209042 0.615527 -0.255885 2.158040 -0.134813 0.133438
 16   7.002735 -0.617911 -0.183641 0.013121 0.010300 -1.309605
 17   1.574674 0.609930 -0.000899 0.697366 0.031509 0.210929
 18   -0.602177 0.511412 -0.000006 0.000000 0.000000 0.000000
 19   3.646428 0.364526 1.119313 -0.000002 -0.000014 -0.174510
 20   3.646422 0.364499 -1.117566 0.000007 -0.000003 -0.174546
 21   3.805634 1.330634 1.627658 0.000002 -0.000011 -0.000026
 22   -0.246060 -0.011889 0.516521 -0.000011 0.000031 0.000025
 23   3.805651 1.330659 -1.631083 0.000019 0.000002 -0.000024
 24   -0.246150 -0.011872 -0.516511 -0.000005 -0.000006 0.000048
 25   4.941364 1.997338 1.629330 0.000018 -0.000001 -0.000024
 26   4.941382 1.997366 -1.629410 -0.000001 0.000005 -0.000024
 27   2.930087 1.603639 1.514501 -0.000019 -0.000022 -0.000050
 28   2.932517 1.603245 -1.501142 -0.000002 -0.000009 -0.000024
 29   8.824059 0.150544 0.091743 0.028525 -0.009228 -0.090682
 30   2.130617 -0.561179 1.741350 -0.000727 0.053079 0.003583
 31   2.152541 -0.561289 -1.822348 0.000138 -0.070866 0.003965
 32   -0.810489 -0.093824 3.127092 -0.121567 -2.968938 -0.367205
 33   14.298673 -0.408176 0.475484 -0.000088 -0.000042 -0.520643
 34   15.835795 0.581398 0.242756 0.161674 -0.015252 0.063767
 35   -0.815868 -0.091229 -3.114430 0.089348 2.997251 -0.074721
 36   14.294526 -0.410349 -0.463635 0.000081 0.000060 -0.489585
 37   15.834409 0.579420 -0.284600 -0.088625 0.041326 0.325140
 38   1.155311 -3.453749 -2.823813 0.002884 -0.002145 0.006538
 39   -4.457742 -0.961101 -0.726648 0.003691 0.008162 -0.032645
 40   1.106382 -3.449769 3.237290 -0.001347 -0.002602 0.010692
 41   -4.386963 -1.000534 0.979098 0.000383 0.000791 -0.003225
 42   -0.637936 1.697302 -2.594861 0.024017 0.037413 -0.003597
 43   -0.664068 1.690765 2.787343 -0.028187 -0.042428 0.007319
time 25
  0   0.001233 0.187506 0.566795 0.000000 0.000000 -1.571449
  1   -1.093036 0.000002 -0.326057 -1.570809 -1.570379 0.000022
  2   2.262337 0.113614 0.064702 -0.241441 -0.007502 -0.059755
  3   2.380047 0.353302 0.047440 0.017986 0.016714 -0.079276
  4   2.033756 0.190472 -0.000128 -0.234194 -0.057166 -0.281193
  5   2.451511 0.204909 -0.003447 -0.239054 -0.035555 -0.137906
  6   7.247600 -0.397300 -0.109469 0.000001 0.000009 0.087015
  7   -2.022252 -0.104661 3.136172 -0.259289 -1.330038 -2.976879
  8   1.168026 -0.537438 -0.063437 0.581402 0.898378 0.259305
  9   6.790376 -0.619176 0.015206 0.004669 0.003720 -1.881481
 10   8.637599 0.544015 -0.090417 -1.944564 -0.086711 -0.069499
 11   6.790465 -0.619039 0.017802 0.008563 -0.010116 -1.332319
 12   -2.022474 -0.104699 -2.873818 0.259017 1.329873 -2.977141
 13   1.167898 -0.537463 0.063297 -0.260159 -1.288218 -0.346592
 14   7.002743 -0.617765 -0.183752 0.000229 0.000250 -1.844822
 15   8.209042 0.615527 -0.255885 2.158040 -0.134813 0.133438
 16   7.002735 -0.617911 -0.183641 0.013121 0.010300 -1.310046
 17   1.574674 0.609930 -0.000899 0.697245 0.030657 0.221610
 18   -0.602177 0.511412 -0.000006 0.000000 0.000000 0.000000
 19   3.646428 0.364526 1.119313 -0.000002 -0.000014 -0.174510
 20   3.646422 0.364499 -1.117566 0.000007 -0.000003 -0.174546
 21   3.805634 1.330634 1.627658 0.000002 -0.000011 -0.000026
 22   -0.246060 -0.011889 0.516521 -0.000011 0.000031 0.000025
 23   3.805651 1.330659 -1.631083 0.000019 0.000002 -0.000024
 24   -0.246150 -0.011872 -0.516511 -0.000005 -0.000006 0.000048
 25   4.941364 1.997338 1.629330 0.000018 -0.000001 -0.000024
 26   4.941382 1.997366 -1.629410 -0.000001 0.000005 -0.000024
 27   2.930087 1.603639 1.514501 -0.000019 -0.000022 -0.000050
 28   2.932517 1.603245 -1.501142 -0.000002 -0.000009 -0.000024
 29   8.824059 0.150544 0.091743 0.021038 -0.006617 -0.112785
 30   2.122804 -0.561179 1.753069 -0.000537 0.038927 0.002640
 31   2.140822 -0.561289 -1.834067 0.000092 -0.052191 0.002891
 32   -0.810489 -0.093824 3.127092 -0.122592 -2.969988 -0.361114
 33   14.298673 -0.408176 0.475484 -0.000088 -0.000042 -0.509051
 34   15.835795 0.581398 0.242756 0.161674 -0.015081 0.058122
 35   -0.815868 -0.091229 -3.114430 0.090404 2.998000 -0.068476
 36   14.294526 -0.410349 -0.463635 0.000081 0.000060 -0.477303
 37   15.834409 0.579420 -0.284600 -0.088625 0.041173 0.318599
 38   1.147498 -3.453749 -2.823813 0.002126 -0.001579 0.004766
 39   -4.457742 -0.992352 -0.734461 0.002721 0.006016 -0.024035
 40   1.110288 -3.449769 3.237290 -0.000989 -0.001903 0.007820
 41   -4.402589 -1.020066 0.967379 0.000287 0.000575 -0.002384
 42   -0.637936 1.697302 -2.618299 0.017689 0.027570 -0.002635
 43   -0.664068 1.690765 2.806875 -0.020753 -0.031240 0.005395
time 26
  0   0.001233 0.187506 0.633203 0.000000 0.000000 -1.571449
  1   -1.093036 0.000002 -0.326057 -1.570809 -1.570379 0.000022
  2   2.262337 0.113614 0.064702 -0.241441 -0.007502 -0.059755
  3   2.380047 0.353302 0.047440 0.017986 0.016714 -0.079276
  4   2.033756 0.190472 -0.000128 -0.233954 -0.058065 -0.284999
  5   2.451511 0.204909 -0.003447 -0.238763 -0.037357 -0.144667
  6   7.247600 -0.397300 -0.109469 0.000001 0.000009 0.087015
  7   -2.022252 -0.104661 3.136172 -0.266287 -1.336553 -2.969554
  8   1.168026 -0.537438 -0.063437 0.593362 0.905221 0.272463
  9   6.790376 -0.619176 0.015206 0.004669 0.003720 -1.883745
 10   8.637599 0.544015 -0.090417 -1.944564 -0.086711 -0.069499
 11   6.790465 -0.619039 0.017802 0.008563 -0.010116 -1.333933
 12   -2.022474 -0.104699 -2.873818 0.266011 1.336462 -2.969769
 13   1.167898 -0.537463 0.063297 -0.273585 -1.297371 -0.332003
 14   7.002743 -0.617765 -0.183752 0.000229 0.000250 -1.845812
 15   8.209042 0.615527 -0.255885 2.158040 -0.134813 0.133438
 16   7.002735 -0.617911 -0.183641 0.013121 0.010300 -1.310819
 17   1.574674 0.609930 -0.000899 0.697082 0.029734 0.232366
 18   -0.602177 0.511412 -0.000006 0.000000 0.000000 0.000000
 19   3.646428 0.364526 1.119313 -0.000002 -0.000014 -0.174510
 20   3.646422 0.364499 -1.117566 0.000007 -0.000003 -0.174546
 21   3.805634 1.330634 1.627658 0.000002 -0.000011 -0.000026
 22   -0.246060 -0.011889 0.516521 -0.000011 0.000031 0.000025
 23   3.805651 1.330659 -1.631083 0.000019 0.000002 -0.000024
 24   -0.246150 -0.011872 -0.516511 -0.000005 -0.000006 0.000048
 25   4.941364 1.997338 1.629330 0.000018 -0.000001 -0.000024
 26   4.941382 1.997366 -1.629410 -0.000001 0.000005 -0.000024
 27   2.930087 1.603639 1.514501 -0.000019 -0.000022 -0.000050
 28   2.932517 1.603245 -1.501142 -0.000002 -0.000009 -0.000024
 29   8.824059 0.150544 0.091743 0.014265 -0.004409 -0.132849
 30   2.118898 -0.561179 1.764788 -0.000361 0.026111 0.001804
 31   2.133009 -0.561289 -1.837973 0.000046 -0.035330 0.001945
 32   -0.810489 -0.093824 3.127092 -0.123990 -2.970943 -0.354284
 33   14.298673 -0.408176 0.475484 -0.000088 -0.000042 -0.495712
 34   15.835795 0.581398 0.242756 0.161743 -0.014886 0.051683
 35   -0.815868 -0.091229 -3.114430 0.091636 2.998749 -0.061684
 36   14.294526 -0.410349 -0.463635 0.000081 0.000060 -0.463013
 37   15.834409 0.579420 -0.284600 -0.088625 0.040943 0.311095
 38   1.147498 -3.453749 -2.823813 0.001410 -0.001073 0.003239
 39   -4.457742 -1.011884 -0.738367 0.001846 0.004075 -0.016267
 40   1.110288 -3.449769 3.237290 -0.000674 -0.001276 0.005254
 41   -4.410401 -1.031785 0.967379 0.000191 0.000384 -0.001599
 42   -0.649655 1.697302 -2.641737 0.011973 0.018631 -0.001756
 43   -0.664068 1.698578 2.830313 -0.014031 -0.021134 0.003638
time 27
  0   0.001233 0.187506 0.703518 0.000000 0.000000 -1.571449
  1   -1.093036 0.000002 -0.326057 -1.570809 -1.570379 0.000022
  2   2.262337 0.113614 0.064702 -0.241441 -0.007502 -0.059755
  3   2.380047 0.353302 0.047440 0.017986 0.016714 -0.079276
  4   2.033756 0.190472 -0.000128 -0.233733 -0.059084 -0.288660
  5   2.451511 0.204909 -0.003447 -0.238558 -0.038976 -0.151354
  6   7.247600 -0.397300 -0.109469 0.000001 0.000009 0.087015
  7   -2.022252 -0.104661 3.136172 -0.273668 -1.342866 -2.961571
  8   1.168026 -0.537438 -0.063437 0.605259 0.911812 0.285558
  9   6.790376 -0.619176 0.015206 0.004669 0.003720 -1.885707
 10   8.637599 0.544015 -0.090417 -1.944564 -0.086711 -0.069499
 11   6.790465 -0.619039 0.017802 0.008563 -0.010116 -1.335318
 12   -2.022474 -0.104699 -2.873818 0.273484 1.342992 -2.961918
 13   1.167898 -0.537463 0.063297 -0.287293 -1.306219 -0.317172
 14   7.002743 -0.617765 -0.183752 0.000229 0.000250 -1.846967
 15   8.209042 0.615527 -0.255885 2.158040 -0.134813 0.133438
 16   7.002735 -0.617911 -0.183641 0.013121 0.010300 -1.311426
 17   1.574674 0.609930 -0.000899 0.696920 0.028811 0.242900
 18   -0.602177 0.511412 -0.000006 0.000000 0.000000 0.000000
 19   3.646428 0.364526 1.119313 -0.000002 -0.000014 -0.174510
 20   3.646422 0.364499 -1.117566 0.000007 -0.000003 -0.174546
 21   3.805634 1.330634 1.627658 0.000002 -0.000011 -0.000026
 22   -0.246060 -0.011889 0.516521 -0.000011 0.000031 0.000025
 23   3.805651 1.330659 -1.631083 0.000019 0.000002 -0.000024
 24   -0.246150 -0.011872 -0.516511 -0.000005 -0.000006 0.000048
 25   4.941364 1.997338 1.629330 0.000018 -0.000001 -0.000024
 26   4.941382 1.997366 -1.629410 -0.000001 0.000005 -0.000024
 27   2.930087 1.603639 1.514501 -0.000019 -0.000022 -0.000050
 28   2.932517 1.603245 -1.501142 -0.000002 -0.000009 -0.000024
 29   8.824059 0.150544 0.091743 0.008472 -0.002629 -0.149802
 30   2.111085 -0.561179 1.776507 -0.000225 0.015185 0.001075
 31   2.129103 -0.561289 -1.845786 0.000031 -0.020902 0.001163
 32   -0.810489 -0.093824 3.127092 -0.125388 -2.972090 -0.346998
 33   14.298673 -0.408176 0.475484 -0.000088 -0.000042 -0.480944
 34   15.835795 0.581398 0.242756 0.161858 -0.014642 0.044539
 35   -0.815868 -0.091229 -3.114430 0.092340 2.999686 -0.054125
 36   14.294526 -0.410349 -0.463635 0.000081 0.000060 -0.447255
 37   15.834409 0.579420 -0.284600 -0.088684 0.040687 0.303034
 38   1.139685 -3.453749 -2.823813 0.000842 -0.000627 0.001895
 39   -4.457742 -1.027509 -0.746180 0.001091 0.002409 -0.009648
 40   1.118101 -3.449769 3.237290 -0.000400 -0.000746 0.003116
 41   -4.426027 -1.043504 0.959566 0.000107 0.000228 -0.000954
 42   -0.649655 1.697302 -2.661269 0.007095 0.011057 -0.001046
 43   -0.664068 1.698578 2.849845 -0.008309 -0.012520 0.002133
time 28
  0   0.001233 0.187506 0.766019 0.000000 0.000000 -1.571449
  1   -1.093036 0.000002 -0.326057 -1.570809 -1.570379 0.000022
  2   2.262337 0.113614 0.064702 -0.241441 -0.007502 -0.059755
  3   2.380047 0.353302 0.047440 0.017986 0.016714 -0.079276
  4   2.033756 0.190472 -0.000128 -0.233530 -0.059935 -0.292176
  5   2.451511 0.204909 -0.003447 -0.238301 -0.040503 -0.157743
  6   7.247600 -0.397300 -0.109469 0.000001 0.000009 0.087015
  7   -2.022252 -0.104661 3.136172 -0.281720 -1.349352 -2.953495
  8   1.168026 -0.537438 -0.063437 0.616586 0.918403 0.298210
  9   6.790376 -0.619176 0.015206 0.004669 0.003720 -1.887971
 10   8.637599 0.544015 -0.090417 -1.944564 -0.086711 -0.069499
 11   6.790465 -0.619039 0.017802 0.008563 -0.010116 -1.336933
 12   -2.022474 -0.104699 -2.873818 0.281436 1.349435 -2.953493
 13   1.167898 -0.537463 0.063297 -0.300227 -1.314661 -0.303128
 14   7.002743 -0.617765 -0.183752 0.000229 0.000250 -1.847792
 15   8.209042 0.615527 -0.255885 2.158040 -0.134813 0.133438
 16   7.002735 -0.617911 -0.183641 0.013121 0.010300 -1.312199
 17   1.574674 0.609930 -0.000899 0.696757 0.027959 0.252990
 18   -0.602177 0.511412 -0.000006 0.000000 0.000000 0.000000
 19   3.646428 0.364526 1.119313 -0.000002 -0.000014 -0.174510
 20   3.646422 0.364499 -1.117566 0.000007 -0.000003 -0.174546
 21   3.805634 1.330634 1.627658 0.000002 -0.000011 -0.000026
 22   -0.246060 -0.011889 0.516521 -0.000011 0.000031 0.000025
 23   3.805651 1.330659 -1.631083 0.000019 0.000002 -0.000024
 24   -0.246150 -0.011872 -0.516511 -0.000005 -0.000006 0.000048
 25   4.941364 1.997338 1.629330 0.000018 -0.000001 -0.000024
 26   4.941382 1.997366 -1.629410 -0.000001 0.000005 -0.000024
 27   2.930087 1.603639 1.514501 -0.000019 -0.000022 -0.000050
 28   2.932517 1.603245 -1.501142 -0.000002 -0.000009 -0.000024
 29   8.824059 0.150544 0.091743 0.003838 -0.001323 -0.163053
 30   2.111085 -0.561179 1.784320 -0.000103 0.006728 0.000496
 31   2.121290 -0.561289 -1.853599 0.000000 -0.009765 0.000544
 32   -0.810489 -0.093824 3.127092 -0.127066 -2.972949 -0.339484
 33   14.298673 -0.408176 0.475484 -0.000088 -0.000042 -0.466017
 34   15.835795 0.581398 0.242756 0.161973 -0.014398 0.037218
 35   -0.815868 -0.091229 -3.114430 0.093748 3.000904 -0.046347
 36   14.294526 -0.410349 -0.463635 0.000081 0.000060 -0.431343
 37   15.834409 0.579420 -0.284600 -0.088684 0.040431 0.294567
 38   1.139685 -3.453749 -2.823813 0.000400 -0.000277 0.000795
 39   -4.457742 -1.047041 -0.746180 0.000491 0.001127 -0.004459
 40   1.118101 -3.449769 3.237290 -0.000168 -0.000336 0.001405
 41   -4.433840 -1.051317 0.959566 0.000047 0.000108 -0.000449
 42   -0.657468 1.697302 -2.680801 0.003308 0.005169 -0.000418
 43   -0.664068 1.698578 2.861564 -0.003886 -0.005851 0.001004
time 29
  0   0.001233 0.187506 0.824615 0.000000 0.000000 -1.571449
  1   -1.093036 0.000002 -0.326057 -1.570809 -1.570379 0.000022
  2   2.262337 0.113614 0.064702 -0.241441 -0.007502 -0.059755
  3   2.380047 0.353302 0.047440 0.017986 0.016714 -0.079276
  4   2.033756 0.190472 -0.000128 -0.233364 -0.060714 -0.295547
  5   2.451511 0.204909 -0.003447 -0.238027 -0.041809 -0.163662
  6   7.247600 -0.397300 -0.109469 0.000001 0.000009 0.087015
  7   -2.022252 -0.104661 3.136172 -0.290443 -1.355665 -2.945324
  8   1.168026 -0.537438 -0.063437 0.627217 0.924642 0.310103
  9   6.790376 -0.619176 0.015206 0.004669 0.003720 -1.890688
 10   8.637599 0.544015 -0.090417 -1.944564 -0.086711 -0.069499
 11   6.790465 -0.619039 0.017802 0.008563 -0.010116 -1.338721
 12   -2.022474 -0.104699 -2.873818 0.289867 1.355530 -2.944972
 13   1.167898 -0.537463 0.063297 -0.312036 -1.323204 -0.290113
 14   7.002743 -0.617765 -0.183752 0.000229 0.000250 -1.848782
 15   8.209042 0.615527 -0.255885 2.158040 -0.134813 0.133438
 16   7.002735 -0.617911 -0.183641 0.013121 0.010300 -1.312806
 17   1.574674 0.609930 -0.000899 0.696635 0.027178 0.262305
 18   -0.602177 0.511412 -0.000006 0.000000 0.000000 0.000000
 19   3.646428 0.364526 1.119313 -0.000002 -0.000014 -0.174510
 20   3.646422 0.364499 -1.117566 0.000007 -0.000003 -0.174546
 21   3.805634 1.330634 1.627658 0.000002 -0.000011 -0.000026
 22   -0.246060 -0.011889 0.516521 -0.000011 0.000031 0.000025
 23   3.805651 1.330659 -1.631083 0.000019 0.000002 -0.000024
 24   -0.246150 -0.011872 -0.516511 -0.000005 -0.000006 0.000048
 25   4.941364 1.997338 1.629330 0.000018 -0.000001 -0.000024
 26   4.941382 1.997366 -1.629410 -0.000001 0.000005 -0.000024
 27   2.930087 1.603639 1.514501 -0.000019 -0.000022 -0.000050
 28   2.932517 1.603245 -1.501142 -0.000002 -0.000009 -0.000024
 29   8.824059 0.150544 0.091743 0.000897 -0.000468 -0.171583
 30   2.111085 -0.561179 1.784320 -0.000022 0.001236 0.000153
 31   2.121290 -0.561289 -1.853599 0.000000 -0.002538 0.000107
 32   -0.810489 -0.093824 3.127092 -0.128091 -2.974191 -0.331572
 33   14.298673 -0.408176 0.475484 -0.000088 -0.000042 -0.450852
 34   15.835795 0.581398 0.242756 0.162042 -0.014178 0.029632
 35   -0.815868 -0.091229 -3.114430 0.095245 3.001841 -0.038678
 36   14.294526 -0.410349 -0.463635 0.000081 0.000060 -0.414890
 37   15.834409 0.579420 -0.284600 -0.088684 0.040226 0.286049
 38   1.139685 -3.453749 -2.823813 0.000063 -0.000060 0.000123
 39   -4.457742 -1.054854 -0.746180 0.000132 0.000288 -0.001178
 40   1.118101 -3.449769 3.237290 -0.000021 -0.000071 0.000367
 41   -4.433840 -1.059130 0.959566 0.000011 0.000024 -0.000084
 42   -0.657468 1.697302 -2.688614 0.000863 0.001336 -0.000084
 43   -0.664068 1.698578 2.869377 -0.001000 -0.001504 0.000251
time 30
  0   0.001233 0.187506 0.867585 0.000000 0.000000 -1.571449
  1   -1.093036 0.000002 -0.326057 -1.570809 -1.570379 0.000022
  2   2.262337 0.113614 0.064702 -0.241441 -0.007502 -0.059755
  3   2.380047 0.353302 0.047440 0.017986 0.016714 -0.079276
  4   2.033756 0.190472 -0.000128 -0.233161 -0.061433 -0.298483
  5   2.451511 0.204909 -0.003447 -0.237822 -0.043141 -0.169086
  6   7.247600 -0.397300 -0.109469 0.000001 0.000009 0.087015
  7   -2.022252 -0.104661 3.136172 -0.298879 -1.361862 -2.935557
  8   1.168026 -0.537438 -0.063437 0.636899 0.931032 0.320794
  9   6.790376 -0.619176 0.015206 0.004669 0.003720 -1.892952
 10   8.637599 0.544015 -0.090417 -1.944564 -0.086711 -0.069499
 11   6.790465 -0.619039 0.017802 0.008651 -0.010116 -1.340335
 12   -2.022474 -0.104699 -2.873818 0.298394 1.361771 -2.936355
 13   1.167898 -0.537463 0.063297 -0.321737 -1.331341 -0.279459
 14   7.002743 -0.617765 -0.183752 0.000229 0.000250 -1.849772
 15   8.209042 0.615527 -0.255885 2.158040 -0.134813 0.133438
 16   7.002735 -0.617911 -0.183641 0.013121 0.010300 -1.313468
 17   1.574674 0.609930 -0.000899 0.696473 0.026468 0.270879
 18   -0.602177 0.511412 -0.000006 0.000000 0.000000 0.000000
 19   3.646428 0.364526 1.119313 -0.000002 -0.000014 -0.174510
 20   3.646422 0.364499 -1.117566 0.000007 -0.000003 -0.174546
 21   3.805634 1.330634 1.627658 0.000002 -0.000011 -0.000026
 22   -0.246060 -0.011889 0.516521 -0.000011 0.000031 0.000025
 23   3.805651 1.330659 -1.631083 0.000019 0.000002 -0.000024
 24   -0.246150 -0.011872 -0.516511 -0.000005 -0.000006 0.000048
 25   4.941364 1.997338 1.629330 0.000018 -0.000001 -0.000024
 26   4.941382 1.997366 -1.629410 -0.000001 0.000005 -0.000024
 27   2.930087 1.603639 1.514501 -0.000019 -0.000022 -0.000050
 28   2.932517 1.603245 -1.501142 -0.000002 -0.000009 -0.000024
 29   8.824059 0.150544 0.091743 0.000006 -0.000231 -0.174534
 30   2.111085 -0.561179 1.784320 -0.000008 -0.000682 0.000024
 31   2.121290 -0.561289 -1.853599 0.000000 0.000000 -0.000002
 32   -0.810489 -0.093824 3.127092 -0.129583 -2.975432 -0.324172
 33   14.298673 -0.408176 0.475484 -0.000088 -0.000042 -0.436243
 34   15.835795 0.581398 0.242756 0.162134 -0.013934 0.022664
 35   -0.815868 -0.091229 -3.114430 0.096037 3.002497 -0.031283
 36   14.294526 -0.410349 -0.463635 0.000081 0.000060 -0.399441
 37   15.834409 0.579420 -0.284600 -0.088763 0.039970 0.278038
 38   1.139685 -3.453749 -2.823813 0.000000 0.000000 0.000001
 39   -4.457742 -1.054854 -0.746180 0.000000 0.000000 0.000000
 40   1.118101 -3.449769 3.237290 0.000000 0.000001 0.000000
 41   -4.433840 -1.059130 0.959566 -0.000001 0.000000 0.000000
 42   -0.657468 1.697302 -2.688614 0.000000 0.000002 0.000000
 43   -0.664068 1.698578 2.869377 0.000000 0.000002 0.000000
end
