version 1
nodes
  0 "Bip01" -1
  1 "Bip01 Pelvis" 0
  2 "Bip01 Spine" 1
  3 "Bip01 Spine1" 2
  4 "Bip01 Spine2" 3
  5 "Bip01 Spine3" 4
  6 "Bip01 Neck" 5
  7 "Bip01 L Arm" 6
  8 "Bip01 L Arm1" 7
  9 "Bip01 L Arm2" 8
 10 "Bip01 L Hand" 9
 11 "Bip06 L elbow2-smooth" 8
 12 "Bip01 R Arm" 6
 13 "Bip01 R Arm1" 12
 14 "Bip01 R Arm2" 13
 15 "Bip01 R Hand" 14
 16 "Bip06 R elbow2-smooth" 13
 17 "Bip01 Head" 6
 18 "Bip06 Head_helper" 17
 19 "Bip06 Head_eyes_l" 18
 20 "Bip06 Head_eyes_r" 18
 21 "Bip06 Head_blink_l" 18
 22 "Bip06 Head_blink_smooth_l1" 21
 23 "Bip06 Head_blink_r" 18
 24 "Bip06 Head_blink_smooth_r1" 23
 25 "Bip06 Head_L_eyebrow" 18
 26 "Bip06 Head_R_eyebrow" 18
 27 "Bip06 Head_blink_l_lid" 18
 28 "Bip06 Head_blink_r_lid" 18
 29 "Bip06 bunny" 18
 30 "Bip06 bunnyL" 29
 31 "Bip06 bunnyR" 29
 32 "Bip01 L Leg" 1
 33 "Bip01 L Leg1" 32
 34 "Bip01 L Foot" 33
 35 "Bip01 R Leg" 1
 36 "Bip01 R Leg1" 35
 37 "Bip01 R Foot" 36
 38 "Bip03 HairR1" 17
 39 "Bip03 HairR2" 38
 40 "Bip03 HairL1" 17
 41 "Bip03 HairL2" 40
 42 "Bip03 swingR" 17
 43 "Bip03 swingL" 17
end
skeleton
time 0
  0   0.001233 -0.019532 2.285597 0.000000 0.000000 -1.571829
  1   -1.093036 0.000002 -0.326057 -0.214108 -1.569036 -1.356486
  2   2.262337 0.113614 0.064702 -0.013758 -0.103762 0.132104
  3   2.380047 0.353302 0.047440 -0.265878 0.048725 0.176508
  4   2.033756 0.190472 -0.000128 -0.261987 0.067078 0.243772
  5   2.451511 0.204909 -0.003447 -0.139451 -0.002094 -0.017422
  6   7.247600 -0.397300 -0.109469 0.000001 0.000009 0.052298
  7   -2.022252 -0.104661 3.136172 1.070261 -1.170916 -4.229592
  8   1.168026 -0.537438 -0.063437 -0.423618 0.284040 -0.655947
  9   6.790376 -0.619176 0.015206 -0.000102 -0.000352 -1.110430
 10   8.637599 0.544015 -0.090417 -4.300387 0.240816 0.178425
 11   6.790465 -0.619039 0.017802 0.000797 -0.011651 -0.792482
 12   -2.022474 -0.104699 -2.873818 0.298873 1.361712 -2.901984
 13   1.167898 -0.537463 0.063297 0.714258 -0.857289 -1.281854
 14   7.002743 -0.617765 -0.183752 0.000229 0.000250 -1.945066
 15   8.209042 0.615527 -0.255885 1.759051 -0.372762 1.075068
 16   7.002735 -0.617911 -0.183641 0.012979 0.010864 -1.380362
 17   1.574674 0.609930 -0.000899 0.701225 -0.325317 0.126103
 18   -0.602177 0.511412 -0.000006 0.000000 0.000000 0.000000
 19   3.673773 0.177020 1.119313 -0.000002 -0.000014 -0.174510
 20   3.673767 0.176993 -1.117566 0.000007 -0.000003 -0.174546
 21   3.942357 1.330634 1.627658 0.000002 -0.000011 -0.000026
 22   -0.246060 -0.011889 0.516521 -0.000011 0.000031 0.000025
 23   3.942374 1.330659 -1.631083 0.000019 0.000002 -0.000024
 24   -0.246150 -0.011872 -0.516511 -0.000005 -0.000006 0.000048
 25   4.941364 1.997338 1.629330 0.000018 -0.000001 -0.000024
 26   4.941382 1.997366 -1.629410 -0.000001 0.000005 -0.000024
 27   2.918368 1.615358 1.514501 -0.000019 -0.000022 -0.000050
 28   2.920798 1.614964 -1.501142 -0.000002 -0.000009 -0.000024
 29   8.824059 0.150544 0.091743 0.000006 -0.000231 -0.174534
 30   2.111085 -0.561179 1.784320 -0.000008 -0.000682 0.000024
 31   2.121290 -0.561289 -1.853599 0.000000 0.000000 -0.000002
 32   -0.810489 -0.093824 3.127092 0.338887 -3.077718 -0.167351
 33   14.298673 -0.408176 0.475484 0.013203 -0.091857 -0.496506
 34   15.835795 0.581398 0.242756 -0.532523 -0.064474 0.362871
 35   -0.815868 -0.091229 -3.114430 -0.002100 2.881638 -0.314968
 36   14.294526 -0.410349 -0.463635 -0.021444 0.095325 -0.575403
 37   15.834409 0.579420 -0.284600 -0.051525 0.043093 0.201376
 38   1.139685 -3.453749 -2.823813 0.000000 0.000000 0.000001
 39   -4.457742 -1.054854 -0.746180 0.000000 0.000000 0.000000
 40   1.118101 -3.449769 3.237290 0.000000 0.000001 0.000000
 41   -4.433840 -1.059130 0.959566 -0.000001 0.000000 0.000000
 42   -0.657468 1.697302 -2.688614 0.000000 0.000002 0.000000
 43   -0.664068 1.698578 2.869377 0.000000 0.000002 0.000000
time 1
  0   0.001233 -0.019532 2.285597 0.000000 0.000000 -1.571829
  1   -1.093036 0.000002 -0.326057 -0.214003 -1.569036 -1.356583
  2   2.262337 0.113614 0.064702 -0.013758 -0.103762 0.132104
  3   2.380047 0.353302 0.047440 -0.261633 0.047958 0.176671
  4   2.033756 0.190472 -0.000128 -0.253448 0.064921 0.244425
  5   2.451511 0.204909 -0.003447 -0.127812 -0.001911 -0.017472
  6   7.247600 -0.397300 -0.109469 0.000001 0.000009 0.052298
  7   -2.022252 -0.104661 3.136172 1.002393 -1.215251 -4.166482
  8   1.168026 -0.537438 -0.063437 -0.359009 0.399109 -0.607110
  9   6.790376 -0.619176 0.015206 -0.000102 -0.000352 -1.110430
 10   8.637599 0.544015 -0.090417 -4.146626 0.178309 0.205916
 11   6.790465 -0.619039 0.017802 0.000797 -0.011651 -0.792482
 12   -2.022474 -0.104699 -2.873818 0.298873 1.361712 -2.901984
 13   1.167898 -0.537463 0.063297 0.714258 -0.857289 -1.281854
 14   7.002743 -0.617765 -0.183752 0.000229 0.000250 -1.945066
 15   8.209042 0.615527 -0.255885 1.759051 -0.372762 1.075068
 16   7.002735 -0.617911 -0.183641 0.012979 0.010864 -1.380362
 17   1.574674 0.609930 -0.000899 0.701225 -0.325317 0.126103
 18   -0.602177 0.511412 -0.000006 0.000000 0.000000 0.000000
 19   3.673773 0.177020 1.119313 -0.000002 -0.000014 -0.174510
 20   3.673767 0.176993 -1.117566 0.000007 -0.000003 -0.174546
 21   3.942357 1.330634 1.627658 0.000002 -0.000011 -0.000026
 22   -0.246060 -0.011889 0.516521 -0.000011 0.000031 0.000025
 23   3.942374 1.330659 -1.631083 0.000019 0.000002 -0.000024
 24   -0.246150 -0.011872 -0.516511 -0.000005 -0.000006 0.000048
 25   4.941364 1.997338 1.629330 0.000018 -0.000001 -0.000024
 26   4.941382 1.997366 -1.629410 -0.000001 0.000005 -0.000024
 27   2.918368 1.615358 1.514501 -0.000019 -0.000022 -0.000050
 28   2.920798 1.614964 -1.501142 -0.000002 -0.000009 -0.000024
 29   8.824059 0.150544 0.091743 0.000006 -0.000231 -0.174534
 30   2.111085 -0.561179 1.784320 -0.000008 -0.000682 0.000024
 31   2.121290 -0.561289 -1.853599 0.000000 0.000000 -0.000002
 32   -0.810489 -0.093824 3.127092 0.338887 -3.077718 -0.167693
 33   14.298673 -0.408176 0.475484 0.013323 -0.091999 -0.496903
 34   15.835795 0.581398 0.242756 -0.532523 -0.064474 0.362871
 35   -0.815868 -0.091229 -3.114430 -0.002100 2.881638 -0.315352
 36   14.294526 -0.410349 -0.463635 -0.021540 0.095253 -0.575789
 37   15.834409 0.579420 -0.284600 -0.051525 0.043093 0.201376
 38   1.139685 -3.453749 -2.823813 0.000000 0.000000 0.000001
 39   -4.457742 -1.054854 -0.746180 0.000000 0.000000 0.000000
 40   1.118101 -3.449769 3.237290 0.000000 0.000001 0.000000
 41   -4.433840 -1.059130 0.959566 -0.000001 0.000000 0.000000
 42   -0.657468 1.697302 -2.688614 0.000000 0.000002 0.000000
 43   -0.664068 1.698578 2.869377 0.000000 0.000002 0.000000
time 2
  0   0.001233 -0.019532 2.285597 0.000000 0.000000 -1.571829
  1   -1.093036 0.000002 -0.326057 -0.214003 -1.569036 -1.356583
  2   2.262337 0.113614 0.064702 -0.013758 -0.103762 0.132104
  3   2.380047 0.353302 0.047440 -0.257207 0.047191 0.176855
  4   2.033756 0.190472 -0.000128 -0.244946 0.062775 0.244968
  5   2.451511 0.204909 -0.003447 -0.116155 -0.001768 -0.017472
  6   7.247600 -0.397300 -0.109469 0.000001 0.000009 0.052298
  7   -2.022252 -0.104661 3.136172 0.916600 -1.257684 -4.085528
  8   1.168026 -0.537438 -0.063437 -0.283895 0.511008 -0.547139
  9   6.790376 -0.619176 0.015206 -0.000102 -0.000352 -1.110430
 10   8.637599 0.544015 -0.090417 -3.996035 0.112142 0.223134
 11   6.790465 -0.619039 0.017802 0.000797 -0.011651 -0.792482
 12   -2.022474 -0.104699 -2.873818 0.298873 1.361712 -2.901984
 13   1.167898 -0.537463 0.063297 0.714258 -0.857289 -1.281854
 14   7.002743 -0.617765 -0.183752 0.000229 0.000250 -1.945066
 15   8.209042 0.615527 -0.255885 1.759051 -0.372762 1.075068
 16   7.002735 -0.617911 -0.183641 0.012979 0.010864 -1.380362
 17   1.574674 0.609930 -0.000899 0.701225 -0.325317 0.126103
 18   -0.602177 0.511412 -0.000006 0.000000 0.000000 0.000000
 19   3.673773 0.177020 1.119313 -0.000002 -0.000014 -0.174510
 20   3.673767 0.176993 -1.117566 0.000007 -0.000003 -0.174546
 21   3.942357 1.330634 1.627658 0.000002 -0.000011 -0.000026
 22   -0.246060 -0.011889 0.516521 -0.000011 0.000031 0.000025
 23   3.942374 1.330659 -1.631083 0.000019 0.000002 -0.000024
 24   -0.246150 -0.011872 -0.516511 -0.000005 -0.000006 0.000048
 25   4.941364 1.997338 1.629330 0.000018 -0.000001 -0.000024
 26   4.941382 1.997366 -1.629410 -0.000001 0.000005 -0.000024
 27   2.918368 1.615358 1.514501 -0.000019 -0.000022 -0.000050
 28   2.920798 1.614964 -1.501142 -0.000002 -0.000009 -0.000024
 29   8.824059 0.150544 0.091743 0.000006 -0.000231 -0.174534
 30   2.111085 -0.561179 1.784320 -0.000008 -0.000682 0.000024
 31   2.121290 -0.561289 -1.853599 0.000000 0.000000 -0.000002
 32   -0.810489 -0.093824 3.127092 0.338887 -3.077718 -0.167693
 33   14.298673 -0.408176 0.475484 0.013323 -0.091999 -0.496903
 34   15.835795 0.581398 0.242756 -0.532523 -0.064474 0.362871
 35   -0.815868 -0.091229 -3.114430 -0.002100 2.881638 -0.315352
 36   14.294526 -0.410349 -0.463635 -0.021540 0.095253 -0.575789
 37   15.834409 0.579420 -0.284600 -0.051525 0.043093 0.201376
 38   1.139685 -3.453749 -2.823813 0.000000 0.000000 0.000001
 39   -4.457742 -1.054854 -0.746180 0.000000 0.000000 0.000000
 40   1.118101 -3.449769 3.237290 0.000000 0.000001 0.000000
 41   -4.433840 -1.059130 0.959566 -0.000001 0.000000 0.000000
 42   -0.657468 1.697302 -2.688614 0.000000 0.000002 0.000000
 43   -0.664068 1.698578 2.869377 0.000000 0.000002 0.000000
time 3
  0   0.001233 -0.019532 2.285597 0.000000 0.000000 -1.571829
  1   -1.093036 0.000002 -0.326057 -0.214003 -1.569036 -1.356583
  2   2.262337 0.113614 0.064702 -0.013758 -0.103762 0.132104
  3   2.380047 0.353302 0.047440 -0.253022 0.046424 0.177059
  4   2.033756 0.190472 -0.000128 -0.236536 0.060714 0.245403
  5   2.451511 0.204909 -0.003447 -0.104550 -0.001572 -0.017472
  6   7.247600 -0.397300 -0.109469 0.000001 0.000009 0.052298
  7   -2.022252 -0.104661 3.136172 0.805980 -1.297522 -3.979594
  8   1.168026 -0.537438 -0.063437 -0.195682 0.618379 -0.472745
  9   6.790376 -0.619176 0.015206 -0.000102 -0.000352 -1.110430
 10   8.637599 0.544015 -0.090417 -3.847205 0.044708 0.229862
 11   6.790465 -0.619039 0.017802 0.000797 -0.011651 -0.792482
 12   -2.022474 -0.104699 -2.873818 0.298873 1.361712 -2.901984
 13   1.167898 -0.537463 0.063297 0.714258 -0.857289 -1.281854
 14   7.002743 -0.617765 -0.183752 0.000229 0.000250 -1.945066
 15   8.209042 0.615527 -0.255885 1.759051 -0.372762 1.075068
 16   7.002735 -0.617911 -0.183641 0.012979 0.010864 -1.380362
 17   1.574674 0.609930 -0.000899 0.701225 -0.325317 0.126103
 18   -0.602177 0.511412 -0.000006 0.000000 0.000000 0.000000
 19   3.673773 0.177020 1.119313 -0.000002 -0.000014 -0.174510
 20   3.673767 0.176993 -1.117566 0.000007 -0.000003 -0.174546
 21   3.942357 1.330634 1.627658 0.000002 -0.000011 -0.000026
 22   -0.246060 -0.011889 0.516521 -0.000011 0.000031 0.000025
 23   3.942374 1.330659 -1.631083 0.000019 0.000002 -0.000024
 24   -0.246150 -0.011872 -0.516511 -0.000005 -0.000006 0.000048
 25   4.941364 1.997338 1.629330 0.000018 -0.000001 -0.000024
 26   4.941382 1.997366 -1.629410 -0.000001 0.000005 -0.000024
 27   2.918368 1.615358 1.514501 -0.000019 -0.000022 -0.000050
 28   2.920798 1.614964 -1.501142 -0.000002 -0.000009 -0.000024
 29   8.824059 0.150544 0.091743 0.000006 -0.000231 -0.174534
 30   2.111085 -0.561179 1.784320 -0.000008 -0.000682 0.000024
 31   2.121290 -0.561289 -1.853599 0.000000 0.000000 -0.000002
 32   -0.810489 -0.093824 3.127092 0.338887 -3.077718 -0.167693
 33   14.298673 -0.408176 0.475484 0.013323 -0.091999 -0.496903
 34   15.835795 0.581398 0.242756 -0.532523 -0.064474 0.362871
 35   -0.815868 -0.091229 -3.114430 -0.002100 2.881638 -0.315352
 36   14.294526 -0.410349 -0.463635 -0.021540 0.095253 -0.575789
 37   15.834409 0.579420 -0.284600 -0.051525 0.043093 0.201376
 38   1.139685 -3.453749 -2.823813 0.000000 0.000000 0.000001
 39   -4.457742 -1.054854 -0.746180 0.000000 0.000000 0.000000
 40   1.118101 -3.449769 3.237290 0.000000 0.000001 0.000000
 41   -4.433840 -1.059130 0.959566 -0.000001 0.000000 0.000000
 42   -0.657468 1.697302 -2.688614 0.000000 0.000002 0.000000
 43   -0.664068 1.698578 2.869377 0.000000 0.000002 0.000000
time 4
  0   0.001233 -0.019532 2.285597 0.000000 0.000000 -1.571829
  1   -1.093036 0.000002 -0.326057 -0.214003 -1.569036 -1.356583
  2   2.262337 0.113614 0.064702 -0.013758 -0.103762 0.132104
  3   2.380047 0.353302 0.047440 -0.248687 0.045657 0.177324
  4   2.033756 0.190472 -0.000128 -0.228034 0.058605 0.245838
  5   2.451511 0.204909 -0.003447 -0.092859 -0.001298 -0.017472
  6   7.247600 -0.397300 -0.109469 0.000001 0.000009 0.052298
  7   -2.022252 -0.104661 3.136172 0.660851 -1.332892 -3.839381
  8   1.168026 -0.537438 -0.063437 -0.089434 0.719360 -0.379942
  9   6.790376 -0.619176 0.015206 -0.000102 -0.000352 -1.110430
 10   8.637599 0.544015 -0.090417 -3.698904 -0.022515 0.226534
 11   6.790465 -0.619039 0.017802 0.000797 -0.011651 -0.792482
 12   -2.022474 -0.104699 -2.873818 0.298873 1.361712 -2.901984
 13   1.167898 -0.537463 0.063297 0.714258 -0.857289 -1.281854
 14   7.002743 -0.617765 -0.183752 0.000229 0.000250 -1.945066
 15   8.209042 0.615527 -0.255885 1.759051 -0.372762 1.075068
 16   7.002735 -0.617911 -0.183641 0.012979 0.010864 -1.380362
 17   1.574674 0.609930 -0.000899 0.701225 -0.325317 0.126103
 18   -0.602177 0.511412 -0.000006 0.000000 0.000000 0.000000
 19   3.673773 0.177020 1.119313 -0.000002 -0.000014 -0.174510
 20   3.673767 0.176993 -1.117566 0.000007 -0.000003 -0.174546
 21   3.942357 1.330634 1.627658 0.000002 -0.000011 -0.000026
 22   -0.246060 -0.011889 0.516521 -0.000011 0.000031 0.000025
 23   3.942374 1.330659 -1.631083 0.000019 0.000002 -0.000024
 24   -0.246150 -0.011872 -0.516511 -0.000005 -0.000006 0.000048
 25   4.941364 1.997338 1.629330 0.000018 -0.000001 -0.000024
 26   4.941382 1.997366 -1.629410 -0.000001 0.000005 -0.000024
 27   2.918368 1.615358 1.514501 -0.000019 -0.000022 -0.000050
 28   2.920798 1.614964 -1.501142 -0.000002 -0.000009 -0.000024
 29   8.824059 0.150544 0.091743 0.000006 -0.000231 -0.174534
 30   2.111085 -0.561179 1.784320 -0.000008 -0.000682 0.000024
 31   2.121290 -0.561289 -1.853599 0.000000 0.000000 -0.000002
 32   -0.810489 -0.093824 3.127092 0.338887 -3.077718 -0.167693
 33   14.298673 -0.408176 0.475484 0.013323 -0.091999 -0.496903
 34   15.835795 0.581398 0.242756 -0.532523 -0.064474 0.362871
 35   -0.815868 -0.091229 -3.114430 -0.002100 2.881638 -0.315352
 36   14.294526 -0.410349 -0.463635 -0.021540 0.095253 -0.575789
 37   15.834409 0.579420 -0.284600 -0.051525 0.043093 0.201376
 38   1.139685 -3.453749 -2.823813 0.000000 0.000000 0.000001
 39   -4.457742 -1.054854 -0.746180 0.000000 0.000000 0.000000
 40   1.118101 -3.449769 3.237290 0.000000 0.000001 0.000000
 41   -4.433840 -1.059130 0.959566 -0.000001 0.000000 0.000000
 42   -0.657468 1.697302 -2.688614 0.000000 0.000002 0.000000
 43   -0.664068 1.698578 2.869377 0.000000 0.000002 0.000000
time 5
  0   0.001233 -0.019532 2.285597 0.000000 0.000000 -1.571829
  1   -1.093036 0.000002 -0.326057 -0.214003 -1.569036 -1.356583
  2   2.262337 0.113614 0.064702 -0.013758 -0.103762 0.132104
  3   2.380047 0.353302 0.047440 -0.244351 0.044890 0.177508
  4   2.033756 0.190472 -0.000128 -0.219569 0.056436 0.246418
  5   2.451511 0.204909 -0.003447 -0.081288 -0.001128 -0.017472
  6   7.247600 -0.397300 -0.109469 0.000001 0.000009 0.052298
  7   -2.022252 -0.104661 3.136172 0.472299 -1.361891 -3.655123
  8   1.168026 -0.537438 -0.063437 0.039595 0.811083 -0.262910
  9   6.790376 -0.619176 0.015206 -0.000102 -0.000352 -1.110430
 10   8.637599 0.544015 -0.090417 -3.550339 -0.089386 0.213512
 11   6.790465 -0.619039 0.017802 0.000797 -0.011651 -0.792482
 12   -2.022474 -0.104699 -2.873818 0.298873 1.361712 -2.901984
 13   1.167898 -0.537463 0.063297 0.714258 -0.857289 -1.281854
 14   7.002743 -0.617765 -0.183752 0.000229 0.000250 -1.945066
 15   8.209042 0.615527 -0.255885 1.759051 -0.372762 1.075068
 16   7.002735 -0.617911 -0.183641 0.012979 0.010864 -1.380362
 17   1.574674 0.609930 -0.000899 0.701225 -0.325317 0.126103
 18   -0.602177 0.511412 -0.000006 0.000000 0.000000 0.000000
 19   3.673773 0.177020 1.119313 -0.000002 -0.000014 -0.174510
 20   3.673767 0.176993 -1.117566 0.000007 -0.000003 -0.174546
 21   3.942357 1.330634 1.627658 0.000002 -0.000011 -0.000026
 22   -0.246060 -0.011889 0.516521 -0.000011 0.000031 0.000025
 23   3.942374 1.330659 -1.631083 0.000019 0.000002 -0.000024
 24   -0.246150 -0.011872 -0.516511 -0.000005 -0.000006 0.000048
 25   4.941364 1.997338 1.629330 0.000018 -0.000001 -0.000024
 26   4.941382 1.997366 -1.629410 -0.000001 0.000005 -0.000024
 27   2.918368 1.615358 1.514501 -0.000019 -0.000022 -0.000050
 28   2.920798 1.614964 -1.501142 -0.000002 -0.000009 -0.000024
 29   8.824059 0.150544 0.091743 0.000006 -0.000231 -0.174534
 30   2.111085 -0.561179 1.784320 -0.000008 -0.000682 0.000024
 31   2.121290 -0.561289 -1.853599 0.000000 0.000000 -0.000002
 32   -0.810489 -0.093824 3.127092 0.338887 -3.077718 -0.167693
 33   14.298673 -0.408176 0.475484 0.013323 -0.091999 -0.496903
 34   15.835795 0.581398 0.242756 -0.532523 -0.064474 0.362871
 35   -0.815868 -0.091229 -3.114430 -0.002100 2.881638 -0.315352
 36   14.294526 -0.410349 -0.463635 -0.021540 0.095253 -0.575789
 37   15.834409 0.579420 -0.284600 -0.051525 0.043093 0.201376
 38   1.139685 -3.453749 -2.823813 0.000000 0.000000 0.000001
 39   -4.457742 -1.054854 -0.746180 0.000000 0.000000 0.000000
 40   1.118101 -3.449769 3.237290 0.000000 0.000001 0.000000
 41   -4.433840 -1.059130 0.959566 -0.000001 0.000000 0.000000
 42   -0.657468 1.697302 -2.688614 0.000000 0.000002 0.000000
 43   -0.664068 1.698578 2.869377 0.000000 0.000002 0.000000
time 6
  0   0.001233 -0.019532 2.285597 0.000000 0.000000 -1.571829
  1   -1.093036 0.000002 -0.326057 -0.214003 -1.569036 -1.356583
  2   2.262337 0.113614 0.064702 -0.013758 -0.103762 0.132104
  3   2.380047 0.353302 0.047440 -0.240001 0.044111 0.177671
  4   2.033756 0.190472 -0.000128 -0.211067 0.054266 0.246962
  5   2.451511 0.204909 -0.003447 -0.069666 -0.000945 -0.017472
  6   7.247600 -0.397300 -0.109469 0.000001 0.000009 0.052298
  7   -2.022252 -0.104661 3.136172 0.234283 -1.381493 -3.421654
  8   1.168026 -0.537438 -0.063437 0.198049 0.889422 -0.116462
  9   6.790376 -0.619176 0.015206 -0.000102 -0.000352 -1.110430
 10   8.637599 0.544015 -0.090417 -3.399219 -0.153230 0.190362
 11   6.790465 -0.619039 0.017802 0.000797 -0.011651 -0.792482
 12   -2.022474 -0.104699 -2.873818 0.298873 1.361712 -2.901984
 13   1.167898 -0.537463 0.063297 0.714258 -0.857289 -1.281854
 14   7.002743 -0.617765 -0.183752 0.000229 0.000250 -1.945066
 15   8.209042 0.615527 -0.255885 1.759051 -0.372762 1.075068
 16   7.002735 -0.617911 -0.183641 0.012979 0.010864 -1.380362
 17   1.574674 0.609930 -0.000899 0.701225 -0.325317 0.126103
 18   -0.602177 0.511412 -0.000006 0.000000 0.000000 0.000000
 19   3.673773 0.177020 1.119313 -0.000002 -0.000014 -0.174510
 20   3.673767 0.176993 -1.117566 0.000007 -0.000003 -0.174546
 21   3.942357 1.330634 1.627658 0.000002 -0.000011 -0.000026
 22   -0.246060 -0.011889 0.516521 -0.000011 0.000031 0.000025
 23   3.942374 1.330659 -1.631083 0.000019 0.000002 -0.000024
 24   -0.246150 -0.011872 -0.516511 -0.000005 -0.000006 0.000048
 25   4.941364 1.997338 1.629330 0.000018 -0.000001 -0.000024
 26   4.941382 1.997366 -1.629410 -0.000001 0.000005 -0.000024
 27   2.918368 1.615358 1.514501 -0.000019 -0.000022 -0.000050
 28   2.920798 1.614964 -1.501142 -0.000002 -0.000009 -0.000024
 29   8.824059 0.150544 0.091743 0.000006 -0.000231 -0.174534
 30   2.111085 -0.561179 1.784320 -0.000008 -0.000682 0.000024
 31   2.121290 -0.561289 -1.853599 0.000000 0.000000 -0.000002
 32   -0.810489 -0.093824 3.127092 0.338887 -3.077718 -0.167693
 33   14.298673 -0.408176 0.475484 0.013323 -0.091999 -0.496903
 34   15.835795 0.581398 0.242756 -0.532523 -0.064474 0.362871
 35   -0.815868 -0.091229 -3.114430 -0.002100 2.881638 -0.315352
 36   14.294526 -0.410349 -0.463635 -0.021540 0.095253 -0.575789
 37   15.834409 0.579420 -0.284600 -0.051525 0.043093 0.201376
 38   1.139685 -3.453749 -2.823813 0.000000 0.000000 0.000001
 39   -4.457742 -1.054854 -0.746180 0.000000 0.000000 0.000000
 40   1.118101 -3.449769 3.237290 0.000000 0.000001 0.000000
 41   -4.433840 -1.059130 0.959566 -0.000001 0.000000 0.000000
 42   -0.657468 1.697302 -2.688614 0.000000 0.000002 0.000000
 43   -0.664068 1.698578 2.869377 0.000000 0.000002 0.000000
time 7
  0   0.001233 -0.019532 2.285597 0.000000 0.000000 -1.571829
  1   -1.093036 0.000002 -0.326057 -0.214003 -1.569036 -1.356583
  2   2.262337 0.113614 0.064702 -0.013758 -0.103762 0.132104
  3   2.380047 0.353302 0.047440 -0.235831 0.043344 0.177875
  4   2.033756 0.190472 -0.000128 -0.202602 0.052205 0.247361
  5   2.451511 0.204909 -0.003447 -0.057992 -0.000710 -0.017472
  6   7.247600 -0.397300 -0.109469 0.000001 0.000009 0.052298
  7   -2.022252 -0.104661 3.136172 -0.039966 -1.388901 -3.152216
  8   1.168026 -0.537438 -0.063437 0.389536 0.949900 0.062565
  9   6.790376 -0.619176 0.015206 -0.000102 -0.000352 -1.110430
 10   8.637599 0.544015 -0.090417 -3.245106 -0.213062 0.157156
 11   6.790465 -0.619039 0.017802 0.000797 -0.011651 -0.792482
 12   -2.022474 -0.104699 -2.873818 0.298873 1.361712 -2.901984
 13   1.167898 -0.537463 0.063297 0.714258 -0.857289 -1.281854
 14   7.002743 -0.617765 -0.183752 0.000229 0.000250 -1.945066
 15   8.209042 0.615527 -0.255885 1.759051 -0.372762 1.075068
 16   7.002735 -0.617911 -0.183641 0.012979 0.010864 -1.380362
 17   1.574674 0.609930 -0.000899 0.701225 -0.325317 0.126103
 18   -0.602177 0.511412 -0.000006 0.000000 0.000000 0.000000
 19   3.673773 0.177020 1.119313 -0.000002 -0.000014 -0.174510
 20   3.673767 0.176993 -1.117566 0.000007 -0.000003 -0.174546
 21   3.942357 1.330634 1.627658 0.000002 -0.000011 -0.000026
 22   -0.246060 -0.011889 0.516521 -0.000011 0.000031 0.000025
 23   3.942374 1.330659 -1.631083 0.000019 0.000002 -0.000024
 24   -0.246150 -0.011872 -0.516511 -0.000005 -0.000006 0.000048
 25   4.941364 1.997338 1.629330 0.000018 -0.000001 -0.000024
 26   4.941382 1.997366 -1.629410 -0.000001 0.000005 -0.000024
 27   2.918368 1.615358 1.514501 -0.000019 -0.000022 -0.000050
 28   2.920798 1.614964 -1.501142 -0.000002 -0.000009 -0.000024
 29   8.824059 0.150544 0.091743 0.000006 -0.000231 -0.174534
 30   2.111085 -0.561179 1.784320 -0.000008 -0.000682 0.000024
 31   2.121290 -0.561289 -1.853599 0.000000 0.000000 -0.000002
 32   -0.810489 -0.093824 3.127092 0.338887 -3.077718 -0.167693
 33   14.298673 -0.408176 0.475484 0.013323 -0.091999 -0.496903
 34   15.835795 0.581398 0.242756 -0.532523 -0.064474 0.362871
 35   -0.815868 -0.091229 -3.114430 -0.002100 2.881638 -0.315352
 36   14.294526 -0.410349 -0.463635 -0.021540 0.095253 -0.575789
 37   15.834409 0.579420 -0.284600 -0.051525 0.043093 0.201376
 38   1.139685 -3.453749 -2.823813 0.000000 0.000000 0.000001
 39   -4.457742 -1.054854 -0.746180 0.000000 0.000000 0.000000
 40   1.118101 -3.449769 3.237290 0.000000 0.000001 0.000000
 41   -4.433840 -1.059130 0.959566 -0.000001 0.000000 0.000000
 42   -0.657468 1.697302 -2.688614 0.000000 0.000002 0.000000
 43   -0.664068 1.698578 2.869377 0.000000 0.000002 0.000000
time 8
  0   0.001233 -0.019532 2.285597 0.000000 0.000000 -1.571829
  1   -1.093036 0.000002 -0.326057 -0.214003 -1.569036 -1.356583
  2   2.262337 0.113614 0.064702 -0.013758 -0.103762 0.132104
  3   2.380047 0.353302 0.047440 -0.231526 0.042565 0.178079
  4   2.033756 0.190472 -0.000128 -0.194155 0.050060 0.247796
  5   2.451511 0.204909 -0.003447 -0.046404 -0.000462 -0.017472
  6   7.247600 -0.397300 -0.109469 0.000001 0.000009 0.052298
  7   -2.022252 -0.104661 3.136172 -0.314408 -1.382617 -2.882215
  8   1.168026 -0.537438 -0.063437 0.611397 0.986931 0.272463
  9   6.790376 -0.619176 0.015206 -0.000102 -0.000352 -1.110430
 10   8.637599 0.544015 -0.090417 -3.086677 -0.267333 0.114545
 11   6.790465 -0.619039 0.017802 0.000797 -0.011651 -0.792482
 12   -2.022474 -0.104699 -2.873818 0.298873 1.361712 -2.901984
 13   1.167898 -0.537463 0.063297 0.714258 -0.857289 -1.281854
 14   7.002743 -0.617765 -0.183752 0.000229 0.000250 -1.945066
 15   8.209042 0.615527 -0.255885 1.759051 -0.372762 1.075068
 16   7.002735 -0.617911 -0.183641 0.012979 0.010864 -1.380362
 17   1.574674 0.609930 -0.000899 0.701225 -0.325317 0.126103
 18   -0.602177 0.511412 -0.000006 0.000000 0.000000 0.000000
 19   3.673773 0.177020 1.119313 -0.000002 -0.000014 -0.174510
 20   3.673767 0.176993 -1.117566 0.000007 -0.000003 -0.174546
 21   3.942357 1.330634 1.627658 0.000002 -0.000011 -0.000026
 22   -0.246060 -0.011889 0.516521 -0.000011 0.000031 0.000025
 23   3.942374 1.330659 -1.631083 0.000019 0.000002 -0.000024
 24   -0.246150 -0.011872 -0.516511 -0.000005 -0.000006 0.000048
 25   4.941364 1.997338 1.629330 0.000018 -0.000001 -0.000024
 26   4.941382 1.997366 -1.629410 -0.000001 0.000005 -0.000024
 27   2.918368 1.615358 1.514501 -0.000019 -0.000022 -0.000050
 28   2.920798 1.614964 -1.501142 -0.000002 -0.000009 -0.000024
 29   8.824059 0.150544 0.091743 0.000006 -0.000231 -0.174534
 30   2.111085 -0.561179 1.784320 -0.000008 -0.000682 0.000024
 31   2.121290 -0.561289 -1.853599 0.000000 0.000000 -0.000002
 32   -0.810489 -0.093824 3.127092 0.338887 -3.077718 -0.167693
 33   14.298673 -0.408176 0.475484 0.013323 -0.091999 -0.496903
 34   15.835795 0.581398 0.242756 -0.532523 -0.064474 0.362871
 35   -0.815868 -0.091229 -3.114430 -0.002100 2.881638 -0.315352
 36   14.294526 -0.410349 -0.463635 -0.021540 0.095253 -0.575789
 37   15.834409 0.579420 -0.284600 -0.051525 0.043093 0.201376
 38   1.139685 -3.453749 -2.823813 0.000000 0.000000 0.000001
 39   -4.457742 -1.054854 -0.746180 0.000000 0.000000 0.000000
 40   1.118101 -3.449769 3.237290 0.000000 0.000001 0.000000
 41   -4.433840 -1.059130 0.959566 -0.000001 0.000000 0.000000
 42   -0.657468 1.697302 -2.688614 0.000000 0.000002 0.000000
 43   -0.664068 1.698578 2.869377 0.000000 0.000002 0.000000
time 9
  0   0.001233 -0.019532 2.285597 0.000000 0.000000 -1.571829
  1   -1.093036 0.000002 -0.326057 -0.214003 -1.569036 -1.356583
  2   2.262337 0.113614 0.064702 -0.013758 -0.103762 0.132104
  3   2.380047 0.353302 0.047440 -0.227115 0.041798 0.178263
  4   2.033756 0.190472 -0.000128 -0.185690 0.047879 0.248194
  5   2.451511 0.204909 -0.003447 -0.034713 -0.000331 -0.017472
  6   7.247600 -0.397300 -0.109469 0.000001 0.000009 0.052298
  7   -2.022252 -0.104661 3.136172 -0.556162 -1.363649 -2.644989
  8   1.168026 -0.537438 -0.063437 0.850281 0.995686 0.499631
  9   6.790376 -0.619176 0.015206 -0.000102 -0.000352 -1.110430
 10   8.637599 0.544015 -0.090417 -2.923669 -0.313861 0.063181
 11   6.790465 -0.619039 0.017802 0.000797 -0.011651 -0.792482
 12   -2.022474 -0.104699 -2.873818 0.298873 1.361712 -2.901984
 13   1.167898 -0.537463 0.063297 0.714258 -0.857289 -1.281854
 14   7.002743 -0.617765 -0.183752 0.000229 0.000250 -1.945066
 15   8.209042 0.615527 -0.255885 1.759051 -0.372762 1.075068
 16   7.002735 -0.617911 -0.183641 0.012979 0.010864 -1.380362
 17   1.574674 0.609930 -0.000899 0.701225 -0.325317 0.126103
 18   -0.602177 0.511412 -0.000006 0.000000 0.000000 0.000000
 19   3.673773 0.177020 1.119313 -0.000002 -0.000014 -0.174510
 20   3.673767 0.176993 -1.117566 0.000007 -0.000003 -0.174546
 21   3.942357 1.330634 1.627658 0.000002 -0.000011 -0.000026
 22   -0.246060 -0.011889 0.516521 -0.000011 0.000031 0.000025
 23   3.942374 1.330659 -1.631083 0.000019 0.000002 -0.000024
 24   -0.246150 -0.011872 -0.516511 -0.000005 -0.000006 0.000048
 25   4.941364 1.997338 1.629330 0.000018 -0.000001 -0.000024
 26   4.941382 1.997366 -1.629410 -0.000001 0.000005 -0.000024
 27   2.918368 1.615358 1.514501 -0.000019 -0.000022 -0.000050
 28   2.920798 1.614964 -1.501142 -0.000002 -0.000009 -0.000024
 29   8.824059 0.150544 0.091743 0.000006 -0.000231 -0.174534
 30   2.111085 -0.561179 1.784320 -0.000008 -0.000682 0.000024
 31   2.121290 -0.561289 -1.853599 0.000000 0.000000 -0.000002
 32   -0.810489 -0.093824 3.127092 0.338887 -3.077718 -0.167693
 33   14.298673 -0.408176 0.475484 0.013323 -0.091999 -0.496903
 34   15.835795 0.581398 0.242756 -0.532523 -0.064474 0.362871
 35   -0.815868 -0.091229 -3.114430 -0.002100 2.881638 -0.315352
 36   14.294526 -0.410349 -0.463635 -0.021540 0.095253 -0.575789
 37   15.834409 0.579420 -0.284600 -0.051525 0.043093 0.201376
 38   1.139685 -3.453749 -2.823813 0.000000 0.000000 0.000001
 39   -4.457742 -1.054854 -0.746180 0.000000 0.000000 0.000000
 40   1.118101 -3.449769 3.237290 0.000000 0.000001 0.000000
 41   -4.433840 -1.059130 0.959566 -0.000001 0.000000 0.000000
 42   -0.657468 1.697302 -2.688614 0.000000 0.000002 0.000000
 43   -0.664068 1.698578 2.869377 0.000000 0.000002 0.000000
time 10
  0   0.001233 -0.019532 2.285597 0.000000 0.000000 -1.571829
  1   -1.093036 0.000002 -0.326057 -0.214003 -1.569036 -1.356583
  2   2.262337 0.113614 0.064702 -0.013758 -0.103762 0.132104
  3   2.380047 0.353302 0.047440 -0.222930 0.041019 0.178426
  4   2.033756 0.190472 -0.000128 -0.177225 0.045697 0.248593
  5   2.451511 0.204909 -0.003447 -0.023125 -0.000149 -0.017472
  6   7.247600 -0.397300 -0.109469 0.000001 0.000009 0.052298
  7   -2.022252 -0.104661 3.136172 -0.749124 -1.335457 -2.456786
  8   1.168026 -0.537438 -0.063437 1.084292 0.975057 0.721928
  9   6.790376 -0.619176 0.015206 -0.000102 -0.000352 -1.110430
 10   8.637599 0.544015 -0.090417 -2.755905 -0.351731 0.003352
 11   6.790465 -0.619039 0.017802 0.000797 -0.011651 -0.792482
 12   -2.022474 -0.104699 -2.873818 0.298873 1.361712 -2.901984
 13   1.167898 -0.537463 0.063297 0.714258 -0.857289 -1.281854
 14   7.002743 -0.617765 -0.183752 0.000229 0.000250 -1.945066
 15   8.209042 0.615527 -0.255885 1.759051 -0.372762 1.075068
 16   7.002735 -0.617911 -0.183641 0.012979 0.010864 -1.380362
 17   1.574674 0.609930 -0.000899 0.701225 -0.325317 0.126103
 18   -0.602177 0.511412 -0.000006 0.000000 0.000000 0.000000
 19   3.673773 0.177020 1.119313 -0.000002 -0.000014 -0.174510
 20   3.673767 0.176993 -1.117566 0.000007 -0.000003 -0.174546
 21   3.942357 1.330634 1.627658 0.000002 -0.000011 -0.000026
 22   -0.246060 -0.011889 0.516521 -0.000011 0.000031 0.000025
 23   3.942374 1.330659 -1.631083 0.000019 0.000002 -0.000024
 24   -0.246150 -0.011872 -0.516511 -0.000005 -0.000006 0.000048
 25   4.941364 1.997338 1.629330 0.000018 -0.000001 -0.000024
 26   4.941382 1.997366 -1.629410 -0.000001 0.000005 -0.000024
 27   2.918368 1.615358 1.514501 -0.000019 -0.000022 -0.000050
 28   2.920798 1.614964 -1.501142 -0.000002 -0.000009 -0.000024
 29   8.824059 0.150544 0.091743 0.000006 -0.000231 -0.174534
 30   2.111085 -0.561179 1.784320 -0.000008 -0.000682 0.000024
 31   2.121290 -0.561289 -1.853599 0.000000 0.000000 -0.000002
 32   -0.810489 -0.093824 3.127092 0.338887 -3.077718 -0.167693
 33   14.298673 -0.408176 0.475484 0.013323 -0.091999 -0.496903
 34   15.835795 0.581398 0.242756 -0.532523 -0.064474 0.362871
 35   -0.815868 -0.091229 -3.114430 -0.002100 2.881638 -0.315352
 36   14.294526 -0.410349 -0.463635 -0.021540 0.095253 -0.575789
 37   15.834409 0.579420 -0.284600 -0.051525 0.043093 0.201376
 38   1.139685 -3.453749 -2.823813 0.000000 0.000000 0.000001
 39   -4.457742 -1.054854 -0.746180 0.000000 0.000000 0.000000
 40   1.118101 -3.449769 3.237290 0.000000 0.000001 0.000000
 41   -4.433840 -1.059130 0.959566 -0.000001 0.000000 0.000000
 42   -0.657468 1.697302 -2.688614 0.000000 0.000002 0.000000
 43   -0.664068 1.698578 2.869377 0.000000 0.000002 0.000000
time 11
  0   0.001233 -0.019532 2.285597 0.000000 0.000000 -1.571829
  1   -1.093036 0.000002 -0.326057 -0.214003 -1.569036 -1.356583
  2   2.262337 0.113614 0.064702 -0.013758 -0.103762 0.132104
  3   2.380047 0.353302 0.047440 -0.218595 0.040252 0.178569
  4   2.033756 0.190472 -0.000128 -0.168723 0.043612 0.248919
  5   2.451511 0.204909 -0.003447 -0.011417 -0.000005 -0.017472
  6   7.247600 -0.397300 -0.109469 0.000001 0.000009 0.052298
  7   -2.022252 -0.104661 3.136172 -0.897032 -1.300433 -2.313474
  8   1.168026 -0.537438 -0.063437 1.294573 0.927661 0.920503
  9   6.790376 -0.619176 0.015206 -0.000102 -0.000352 -1.110430
 10   8.637599 0.544015 -0.090417 -2.584003 -0.379465 -0.062554
 11   6.790465 -0.619039 0.017802 0.000797 -0.011651 -0.792482
 12   -2.022474 -0.104699 -2.873818 0.298873 1.361712 -2.901984
 13   1.167898 -0.537463 0.063297 0.714258 -0.857289 -1.281854
 14   7.002743 -0.617765 -0.183752 0.000229 0.000250 -1.945066
 15   8.209042 0.615527 -0.255885 1.759051 -0.372762 1.075068
 16   7.002735 -0.617911 -0.183641 0.012979 0.010864 -1.380362
 17   1.574674 0.609930 -0.000899 0.701225 -0.325317 0.126103
 18   -0.602177 0.511412 -0.000006 0.000000 0.000000 0.000000
 19   3.673773 0.177020 1.119313 -0.000002 -0.000014 -0.174510
 20   3.673767 0.176993 -1.117566 0.000007 -0.000003 -0.174546
 21   3.942357 1.330634 1.627658 0.000002 -0.000011 -0.000026
 22   -0.246060 -0.011889 0.516521 -0.000011 0.000031 0.000025
 23   3.942374 1.330659 -1.631083 0.000019 0.000002 -0.000024
 24   -0.246150 -0.011872 -0.516511 -0.000005 -0.000006 0.000048
 25   4.941364 1.997338 1.629330 0.000018 -0.000001 -0.000024
 26   4.941382 1.997366 -1.629410 -0.000001 0.000005 -0.000024
 27   2.918368 1.615358 1.514501 -0.000019 -0.000022 -0.000050
 28   2.920798 1.614964 -1.501142 -0.000002 -0.000009 -0.000024
 29   8.824059 0.150544 0.091743 0.000006 -0.000231 -0.174534
 30   2.111085 -0.561179 1.784320 -0.000008 -0.000682 0.000024
 31   2.121290 -0.561289 -1.853599 0.000000 0.000000 -0.000002
 32   -0.810489 -0.093824 3.127092 0.338887 -3.077718 -0.167693
 33   14.298673 -0.408176 0.475484 0.013323 -0.091999 -0.496903
 34   15.835795 0.581398 0.242756 -0.532523 -0.064474 0.362871
 35   -0.815868 -0.091229 -3.114430 -0.002100 2.881638 -0.315352
 36   14.294526 -0.410349 -0.463635 -0.021540 0.095253 -0.575789
 37   15.834409 0.579420 -0.284600 -0.051525 0.043093 0.201376
 38   1.139685 -3.453749 -2.823813 0.000000 0.000000 0.000001
 39   -4.457742 -1.054854 -0.746180 0.000000 0.000000 0.000000
 40   1.118101 -3.449769 3.237290 0.000000 0.000001 0.000000
 41   -4.433840 -1.059130 0.959566 -0.000001 0.000000 0.000000
 42   -0.657468 1.697302 -2.688614 0.000000 0.000002 0.000000
 43   -0.664068 1.698578 2.869377 0.000000 0.000002 0.000000
time 12
  0   0.001233 -0.019532 2.285597 0.000000 0.000000 -1.571829
  1   -1.093036 0.000002 -0.326057 -0.214003 -1.569036 -1.356583
  2   2.262337 0.113614 0.064702 -0.013758 -0.103762 0.132104
  3   2.380047 0.353302 0.047440 -0.214274 0.039473 0.178773
  4   2.033756 0.190472 -0.000128 -0.160276 0.041467 0.249354
  5   2.451511 0.204909 -0.003447 0.000000 0.000191 -0.017472
  6   7.247600 -0.397300 -0.109469 0.000001 0.000009 0.052298
  7   -2.022252 -0.104661 3.136172 -1.010241 -1.260999 -2.205098
  8   1.168026 -0.537438 -0.063437 1.472391 0.858680 1.086435
  9   6.790376 -0.619176 0.015206 -0.000102 -0.000352 -1.110430
 10   8.637599 0.544015 -0.090417 -2.408754 -0.396288 -0.133813
 11   6.790465 -0.619039 0.017802 0.000797 -0.011651 -0.792482
 12   -2.022474 -0.104699 -2.873818 0.298873 1.361712 -2.901984
 13   1.167898 -0.537463 0.063297 0.714258 -0.857289 -1.281854
 14   7.002743 -0.617765 -0.183752 0.000229 0.000250 -1.945066
 15   8.209042 0.615527 -0.255885 1.759051 -0.372762 1.075068
 16   7.002735 -0.617911 -0.183641 0.012979 0.010864 -1.380362
 17   1.574674 0.609930 -0.000899 0.701225 -0.325317 0.126103
 18   -0.602177 0.511412 -0.000006 0.000000 0.000000 0.000000
 19   3.673773 0.177020 1.119313 -0.000002 -0.000014 -0.174510
 20   3.673767 0.176993 -1.117566 0.000007 -0.000003 -0.174546
 21   3.942357 1.330634 1.627658 0.000002 -0.000011 -0.000026
 22   -0.246060 -0.011889 0.516521 -0.000011 0.000031 0.000025
 23   3.942374 1.330659 -1.631083 0.000019 0.000002 -0.000024
 24   -0.246150 -0.011872 -0.516511 -0.000005 -0.000006 0.000048
 25   4.941364 1.997338 1.629330 0.000018 -0.000001 -0.000024
 26   4.941382 1.997366 -1.629410 -0.000001 0.000005 -0.000024
 27   2.918368 1.615358 1.514501 -0.000019 -0.000022 -0.000050
 28   2.920798 1.614964 -1.501142 -0.000002 -0.000009 -0.000024
 29   8.824059 0.150544 0.091743 0.000006 -0.000231 -0.174534
 30   2.111085 -0.561179 1.784320 -0.000008 -0.000682 0.000024
 31   2.121290 -0.561289 -1.853599 0.000000 0.000000 -0.000002
 32   -0.810489 -0.093824 3.127092 0.338887 -3.077718 -0.167693
 33   14.298673 -0.408176 0.475484 0.013323 -0.091999 -0.496903
 34   15.835795 0.581398 0.242756 -0.532523 -0.064474 0.362871
 35   -0.815868 -0.091229 -3.114430 -0.002100 2.881638 -0.315352
 36   14.294526 -0.410349 -0.463635 -0.021540 0.095253 -0.575789
 37   15.834409 0.579420 -0.284600 -0.051525 0.043093 0.201376
 38   1.139685 -3.453749 -2.823813 0.000000 0.000000 0.000001
 39   -4.457742 -1.054854 -0.746180 0.000000 0.000000 0.000000
 40   1.118101 -3.449769 3.237290 0.000000 0.000001 0.000000
 41   -4.433840 -1.059130 0.959566 -0.000001 0.000000 0.000000
 42   -0.657468 1.697302 -2.688614 0.000000 0.000002 0.000000
 43   -0.664068 1.698578 2.869377 0.000000 0.000002 0.000000
time 13
  0   0.001233 -0.019532 2.285597 0.000000 0.000000 -1.571829
  1   -1.093036 0.000002 -0.326057 -0.214003 -1.569036 -1.356583
  2   2.262337 0.113614 0.064702 -0.013758 -0.103762 0.132104
  3   2.380047 0.353302 0.047440 -0.218595 0.040252 0.178569
  4   2.033756 0.190472 -0.000128 -0.168723 0.043612 0.248919
  5   2.451511 0.204909 -0.003447 -0.011417 -0.000005 -0.017472
  6   7.247600 -0.397300 -0.109469 0.000001 0.000009 0.052298
  7   -2.022252 -0.104661 3.136172 -0.897032 -1.300433 -2.313474
  8   1.168026 -0.537438 -0.063437 1.294573 0.927661 0.920503
  9   6.790376 -0.619176 0.015206 -0.011975 -0.024912 -1.110279
 10   8.637599 0.544015 -0.090417 -2.584003 -0.379465 -0.062554
 11   6.790465 -0.619039 0.017802 -0.010473 -0.027768 -0.792424
 12   -2.022474 -0.104699 -2.873818 0.298873 1.361712 -2.901984
 13   1.167898 -0.537463 0.063297 0.714258 -0.857289 -1.281854
 14   7.002743 -0.617765 -0.183752 0.000229 0.000250 -1.945066
 15   8.209042 0.615527 -0.255885 1.759051 -0.372762 1.075068
 16   7.002735 -0.617911 -0.183641 0.012979 0.010864 -1.380362
 17   1.574674 0.609930 -0.000899 0.701225 -0.325317 0.126103
 18   -0.602177 0.511412 -0.000006 0.000000 0.000000 0.000000
 19   3.673773 0.177020 1.119313 -0.000002 -0.000014 -0.174510
 20   3.673767 0.176993 -1.117566 0.000007 -0.000003 -0.174546
 21   3.942357 1.330634 1.627658 0.000002 -0.000011 -0.000026
 22   -0.246060 -0.011889 0.516521 -0.000011 0.000031 0.000025
 23   3.942374 1.330659 -1.631083 0.000019 0.000002 -0.000024
 24   -0.246150 -0.011872 -0.516511 -0.000005 -0.000006 0.000048
 25   4.941364 1.997338 1.629330 0.000018 -0.000001 -0.000024
 26   4.941382 1.997366 -1.629410 -0.000001 0.000005 -0.000024
 27   2.918368 1.615358 1.514501 -0.000019 -0.000022 -0.000050
 28   2.920798 1.614964 -1.501142 -0.000002 -0.000009 -0.000024
 29   8.824059 0.150544 0.091743 0.000006 -0.000231 -0.174534
 30   2.111085 -0.561179 1.784320 -0.000008 -0.000682 0.000024
 31   2.121290 -0.561289 -1.853599 0.000000 0.000000 -0.000002
 32   -0.810489 -0.093824 3.127092 0.338887 -3.077718 -0.167693
 33   14.298673 -0.408176 0.475484 0.013323 -0.091999 -0.496903
 34   15.835795 0.581398 0.242756 -0.532523 -0.064474 0.362871
 35   -0.815868 -0.091229 -3.114430 -0.002100 2.881638 -0.315352
 36   14.294526 -0.410349 -0.463635 -0.021540 0.095253 -0.575789
 37   15.834409 0.579420 -0.284600 -0.051525 0.043093 0.201376
 38   1.139685 -3.453749 -2.823813 0.000000 0.000000 0.000001
 39   -4.457742 -1.054854 -0.746180 0.000000 0.000000 0.000000
 40   1.118101 -3.449769 3.237290 0.000000 0.000001 0.000000
 41   -4.433840 -1.059130 0.959566 -0.000001 0.000000 0.000000
 42   -0.657468 1.697302 -2.688614 0.000000 0.000002 0.000000
 43   -0.664068 1.698578 2.869377 0.000000 0.000002 0.000000
time 14
  0   0.001233 -0.019532 2.285597 0.000000 0.000000 -1.571829
  1   -1.093036 0.000002 -0.326057 -0.214003 -1.569036 -1.356583
  2   2.262337 0.113614 0.064702 -0.013758 -0.103762 0.132104
  3   2.380047 0.353302 0.047440 -0.222930 0.041019 0.178426
  4   2.033756 0.190472 -0.000128 -0.177225 0.045697 0.248593
  5   2.451511 0.204909 -0.003447 -0.023125 -0.000149 -0.017472
  6   7.247600 -0.397300 -0.109469 0.000001 0.000009 0.052298
  7   -2.022252 -0.104661 3.136172 -0.749124 -1.335457 -2.456786
  8   1.168026 -0.537438 -0.063437 1.084292 0.975057 0.721928
  9   6.790376 -0.619176 0.015206 -0.024347 -0.049205 -1.109977
 10   8.637599 0.544015 -0.090417 -2.755905 -0.351731 0.003352
 11   6.790465 -0.619039 0.017802 -0.021918 -0.043573 -0.791963
 12   -2.022474 -0.104699 -2.873818 0.298873 1.361712 -2.901984
 13   1.167898 -0.537463 0.063297 0.714258 -0.857289 -1.281854
 14   7.002743 -0.617765 -0.183752 0.000229 0.000250 -1.945066
 15   8.209042 0.615527 -0.255885 1.759051 -0.372762 1.075068
 16   7.002735 -0.617911 -0.183641 0.012979 0.010864 -1.380362
 17   1.574674 0.609930 -0.000899 0.701225 -0.325317 0.126103
 18   -0.602177 0.511412 -0.000006 0.000000 0.000000 0.000000
 19   3.673773 0.177020 1.119313 -0.000002 -0.000014 -0.174510
 20   3.673767 0.176993 -1.117566 0.000007 -0.000003 -0.174546
 21   3.942357 1.330634 1.627658 0.000002 -0.000011 -0.000026
 22   -0.246060 -0.011889 0.516521 -0.000011 0.000031 0.000025
 23   3.942374 1.330659 -1.631083 0.000019 0.000002 -0.000024
 24   -0.246150 -0.011872 -0.516511 -0.000005 -0.000006 0.000048
 25   4.941364 1.997338 1.629330 0.000018 -0.000001 -0.000024
 26   4.941382 1.997366 -1.629410 -0.000001 0.000005 -0.000024
 27   2.918368 1.615358 1.514501 -0.000019 -0.000022 -0.000050
 28   2.920798 1.614964 -1.501142 -0.000002 -0.000009 -0.000024
 29   8.824059 0.150544 0.091743 0.000006 -0.000231 -0.174534
 30   2.111085 -0.561179 1.784320 -0.000008 -0.000682 0.000024
 31   2.121290 -0.561289 -1.853599 0.000000 0.000000 -0.000002
 32   -0.810489 -0.093824 3.127092 0.338887 -3.077718 -0.167693
 33   14.298673 -0.408176 0.475484 0.013323 -0.091999 -0.496903
 34   15.835795 0.581398 0.242756 -0.532523 -0.064474 0.362871
 35   -0.815868 -0.091229 -3.114430 -0.002100 2.881638 -0.315352
 36   14.294526 -0.410349 -0.463635 -0.021540 0.095253 -0.575789
 37   15.834409 0.579420 -0.284600 -0.051525 0.043093 0.201376
 38   1.139685 -3.453749 -2.823813 0.000000 0.000000 0.000001
 39   -4.457742 -1.054854 -0.746180 0.000000 0.000000 0.000000
 40   1.118101 -3.449769 3.237290 0.000000 0.000001 0.000000
 41   -4.433840 -1.059130 0.959566 -0.000001 0.000000 0.000000
 42   -0.657468 1.697302 -2.688614 0.000000 0.000002 0.000000
 43   -0.664068 1.698578 2.869377 0.000000 0.000002 0.000000
time 15
  0   0.001233 -0.019532 2.285597 0.000000 0.000000 -1.571829
  1   -1.093036 0.000002 -0.326057 -0.214003 -1.569036 -1.356583
  2   2.262337 0.113614 0.064702 -0.013758 -0.103762 0.132104
  3   2.380047 0.353302 0.047440 -0.227115 0.041798 0.178263
  4   2.033756 0.190472 -0.000128 -0.185690 0.047879 0.248194
  5   2.451511 0.204909 -0.003447 -0.034713 -0.000331 -0.017472
  6   7.247600 -0.397300 -0.109469 0.000001 0.000009 0.052298
  7   -2.022252 -0.104661 3.136172 -0.556162 -1.363649 -2.644989
  8   1.168026 -0.537438 -0.063437 0.850281 0.995686 0.499631
  9   6.790376 -0.619176 0.015206 -0.036608 -0.074100 -1.109298
 10   8.637599 0.544015 -0.090417 -2.923669 -0.313861 0.063181
 11   6.790465 -0.619039 0.017802 -0.033480 -0.059747 -0.791386
 12   -2.022474 -0.104699 -2.873818 0.298873 1.361712 -2.901984
 13   1.167898 -0.537463 0.063297 0.714258 -0.857289 -1.281854
 14   7.002743 -0.617765 -0.183752 0.000229 0.000250 -1.945066
 15   8.209042 0.615527 -0.255885 1.759051 -0.372762 1.075068
 16   7.002735 -0.617911 -0.183641 0.012979 0.010864 -1.380362
 17   1.574674 0.609930 -0.000899 0.701225 -0.325317 0.126103
 18   -0.602177 0.511412 -0.000006 0.000000 0.000000 0.000000
 19   3.673773 0.177020 1.119313 -0.000002 -0.000014 -0.174510
 20   3.673767 0.176993 -1.117566 0.000007 -0.000003 -0.174546
 21   3.942357 1.330634 1.627658 0.000002 -0.000011 -0.000026
 22   -0.246060 -0.011889 0.516521 -0.000011 0.000031 0.000025
 23   3.942374 1.330659 -1.631083 0.000019 0.000002 -0.000024
 24   -0.246150 -0.011872 -0.516511 -0.000005 -0.000006 0.000048
 25   4.941364 1.997338 1.629330 0.000018 -0.000001 -0.000024
 26   4.941382 1.997366 -1.629410 -0.000001 0.000005 -0.000024
 27   2.918368 1.615358 1.514501 -0.000019 -0.000022 -0.000050
 28   2.920798 1.614964 -1.501142 -0.000002 -0.000009 -0.000024
 29   8.824059 0.150544 0.091743 0.000006 -0.000231 -0.174534
 30   2.111085 -0.561179 1.784320 -0.000008 -0.000682 0.000024
 31   2.121290 -0.561289 -1.853599 0.000000 0.000000 -0.000002
 32   -0.810489 -0.093824 3.127092 0.338887 -3.077718 -0.167693
 33   14.298673 -0.408176 0.475484 0.013323 -0.091999 -0.496903
 34   15.835795 0.581398 0.242756 -0.532523 -0.064474 0.362871
 35   -0.815868 -0.091229 -3.114430 -0.002100 2.881638 -0.315352
 36   14.294526 -0.410349 -0.463635 -0.021540 0.095253 -0.575789
 37   15.834409 0.579420 -0.284600 -0.051525 0.043093 0.201376
 38   1.139685 -3.453749 -2.823813 0.000000 0.000000 0.000001
 39   -4.457742 -1.054854 -0.746180 0.000000 0.000000 0.000000
 40   1.118101 -3.449769 3.237290 0.000000 0.000001 0.000000
 41   -4.433840 -1.059130 0.959566 -0.000001 0.000000 0.000000
 42   -0.657468 1.697302 -2.688614 0.000000 0.000002 0.000000
 43   -0.664068 1.698578 2.869377 0.000000 0.000002 0.000000
time 16
  0   0.001233 -0.019532 2.285597 0.000000 0.000000 -1.571829
  1   -1.093036 0.000002 -0.326057 -0.214003 -1.569036 -1.356583
  2   2.262337 0.113614 0.064702 -0.013758 -0.103762 0.132104
  3   2.380047 0.353302 0.047440 -0.231526 0.042565 0.178079
  4   2.033756 0.190472 -0.000128 -0.194155 0.050060 0.247796
  5   2.451511 0.204909 -0.003447 -0.046404 -0.000462 -0.017472
  6   7.247600 -0.397300 -0.109469 0.000001 0.000009 0.052298
  7   -2.022252 -0.104661 3.136172 -0.314408 -1.382617 -2.882215
  8   1.168026 -0.537438 -0.063437 0.611397 0.986931 0.272463
  9   6.790376 -0.619176 0.015206 -0.048980 -0.098927 -1.108015
 10   8.637599 0.544015 -0.090417 -3.086677 -0.267333 0.114545
 11   6.790465 -0.619039 0.017802 -0.044983 -0.075921 -0.790463
 12   -2.022474 -0.104699 -2.873818 0.298873 1.361712 -2.901984
 13   1.167898 -0.537463 0.063297 0.714258 -0.857289 -1.281854
 14   7.002743 -0.617765 -0.183752 0.000229 0.000250 -1.945066
 15   8.209042 0.615527 -0.255885 1.759051 -0.372762 1.075068
 16   7.002735 -0.617911 -0.183641 0.012979 0.010864 -1.380362
 17   1.574674 0.609930 -0.000899 0.701225 -0.325317 0.126103
 18   -0.602177 0.511412 -0.000006 0.000000 0.000000 0.000000
 19   3.673773 0.177020 1.119313 -0.000002 -0.000014 -0.174510
 20   3.673767 0.176993 -1.117566 0.000007 -0.000003 -0.174546
 21   3.942357 1.330634 1.627658 0.000002 -0.000011 -0.000026
 22   -0.246060 -0.011889 0.516521 -0.000011 0.000031 0.000025
 23   3.942374 1.330659 -1.631083 0.000019 0.000002 -0.000024
 24   -0.246150 -0.011872 -0.516511 -0.000005 -0.000006 0.000048
 25   4.941364 1.997338 1.629330 0.000018 -0.000001 -0.000024
 26   4.941382 1.997366 -1.629410 -0.000001 0.000005 -0.000024
 27   2.918368 1.615358 1.514501 -0.000019 -0.000022 -0.000050
 28   2.920798 1.614964 -1.501142 -0.000002 -0.000009 -0.000024
 29   8.824059 0.150544 0.091743 0.000006 -0.000231 -0.174534
 30   2.111085 -0.561179 1.784320 -0.000008 -0.000682 0.000024
 31   2.121290 -0.561289 -1.853599 0.000000 0.000000 -0.000002
 32   -0.810489 -0.093824 3.127092 0.338887 -3.077718 -0.167693
 33   14.298673 -0.408176 0.475484 0.013323 -0.091999 -0.496903
 34   15.835795 0.581398 0.242756 -0.532523 -0.064474 0.362871
 35   -0.815868 -0.091229 -3.114430 -0.002100 2.881638 -0.315352
 36   14.294526 -0.410349 -0.463635 -0.021540 0.095253 -0.575789
 37   15.834409 0.579420 -0.284600 -0.051525 0.043093 0.201376
 38   1.139685 -3.453749 -2.823813 0.000000 0.000000 0.000001
 39   -4.457742 -1.054854 -0.746180 0.000000 0.000000 0.000000
 40   1.118101 -3.449769 3.237290 0.000000 0.000001 0.000000
 41   -4.433840 -1.059130 0.959566 -0.000001 0.000000 0.000000
 42   -0.657468 1.697302 -2.688614 0.000000 0.000002 0.000000
 43   -0.664068 1.698578 2.869377 0.000000 0.000002 0.000000
time 17
  0   0.001233 -0.019532 2.285597 0.000000 0.000000 -1.571829
  1   -1.093036 0.000002 -0.326057 -0.214003 -1.569036 -1.356583
  2   2.262337 0.113614 0.064702 -0.013758 -0.103762 0.132104
  3   2.380047 0.353302 0.047440 -0.235831 0.043344 0.177875
  4   2.033756 0.190472 -0.000128 -0.202602 0.052205 0.247361
  5   2.451511 0.204909 -0.003447 -0.057992 -0.000710 -0.017472
  6   7.247600 -0.397300 -0.109469 0.000001 0.000009 0.052298
  7   -2.022252 -0.104661 3.136172 -0.039966 -1.388901 -3.152216
  8   1.168026 -0.537438 -0.063437 0.389536 0.949900 0.062565
  9   6.790376 -0.619176 0.015206 -0.061463 -0.123487 -1.106732
 10   8.637599 0.544015 -0.090417 -3.245106 -0.213062 0.157156
 11   6.790465 -0.619039 0.017802 -0.056603 -0.091981 -0.789425
 12   -2.022474 -0.104699 -2.873818 0.298873 1.361712 -2.901984
 13   1.167898 -0.537463 0.063297 0.714258 -0.857289 -1.281854
 14   7.002743 -0.617765 -0.183752 0.000229 0.000250 -1.945066
 15   8.209042 0.615527 -0.255885 1.759051 -0.372762 1.075068
 16   7.002735 -0.617911 -0.183641 0.012979 0.010864 -1.380362
 17   1.574674 0.609930 -0.000899 0.701225 -0.325317 0.126103
 18   -0.602177 0.511412 -0.000006 0.000000 0.000000 0.000000
 19   3.673773 0.177020 1.119313 -0.000002 -0.000014 -0.174510
 20   3.673767 0.176993 -1.117566 0.000007 -0.000003 -0.174546
 21   3.942357 1.330634 1.627658 0.000002 -0.000011 -0.000026
 22   -0.246060 -0.011889 0.516521 -0.000011 0.000031 0.000025
 23   3.942374 1.330659 -1.631083 0.000019 0.000002 -0.000024
 24   -0.246150 -0.011872 -0.516511 -0.000005 -0.000006 0.000048
 25   4.941364 1.997338 1.629330 0.000018 -0.000001 -0.000024
 26   4.941382 1.997366 -1.629410 -0.000001 0.000005 -0.000024
 27   2.918368 1.615358 1.514501 -0.000019 -0.000022 -0.000050
 28   2.920798 1.614964 -1.501142 -0.000002 -0.000009 -0.000024
 29   8.824059 0.150544 0.091743 0.000006 -0.000231 -0.174534
 30   2.111085 -0.561179 1.784320 -0.000008 -0.000682 0.000024
 31   2.121290 -0.561289 -1.853599 0.000000 0.000000 -0.000002
 32   -0.810489 -0.093824 3.127092 0.338887 -3.077718 -0.167693
 33   14.298673 -0.408176 0.475484 0.013323 -0.091999 -0.496903
 34   15.835795 0.581398 0.242756 -0.532523 -0.064474 0.362871
 35   -0.815868 -0.091229 -3.114430 -0.002100 2.881638 -0.315352
 36   14.294526 -0.410349 -0.463635 -0.021540 0.095253 -0.575789
 37   15.834409 0.579420 -0.284600 -0.051525 0.043093 0.201376
 38   1.139685 -3.453749 -2.823813 0.000000 0.000000 0.000001
 39   -4.457742 -1.054854 -0.746180 0.000000 0.000000 0.000000
 40   1.118101 -3.449769 3.237290 0.000000 0.000001 0.000000
 41   -4.433840 -1.059130 0.959566 -0.000001 0.000000 0.000000
 42   -0.657468 1.697302 -2.688614 0.000000 0.000002 0.000000
 43   -0.664068 1.698578 2.869377 0.000000 0.000002 0.000000
time 18
  0   0.001233 -0.019532 2.285597 0.000000 0.000000 -1.571829
  1   -1.093036 0.000002 -0.326057 -0.214003 -1.569036 -1.356583
  2   2.262337 0.113614 0.064702 -0.013758 -0.103762 0.132104
  3   2.380047 0.353302 0.047440 -0.240001 0.044111 0.177671
  4   2.033756 0.190472 -0.000128 -0.211067 0.054266 0.246962
  5   2.451511 0.204909 -0.003447 -0.069666 -0.000945 -0.017472
  6   7.247600 -0.397300 -0.109469 0.000001 0.000009 0.052298
  7   -2.022252 -0.104661 3.136172 0.234283 -1.381493 -3.421654
  8   1.168026 -0.537438 -0.063437 0.198049 0.889422 -0.116462
  9   6.790376 -0.619176 0.015206 -0.073946 -0.148315 -1.104845
 10   8.637599 0.544015 -0.090417 -3.399219 -0.153230 0.190362
 11   6.790465 -0.619039 0.017802 -0.068194 -0.108098 -0.787868
 12   -2.022474 -0.104699 -2.873818 0.298873 1.361712 -2.901984
 13   1.167898 -0.537463 0.063297 0.714258 -0.857289 -1.281854
 14   7.002743 -0.617765 -0.183752 0.000229 0.000250 -1.945066
 15   8.209042 0.615527 -0.255885 1.759051 -0.372762 1.075068
 16   7.002735 -0.617911 -0.183641 0.012979 0.010864 -1.380362
 17   1.574674 0.609930 -0.000899 0.701225 -0.325317 0.126103
 18   -0.602177 0.511412 -0.000006 0.000000 0.000000 0.000000
 19   3.673773 0.177020 1.119313 -0.000002 -0.000014 -0.174510
 20   3.673767 0.176993 -1.117566 0.000007 -0.000003 -0.174546
 21   3.942357 1.330634 1.627658 0.000002 -0.000011 -0.000026
 22   -0.246060 -0.011889 0.516521 -0.000011 0.000031 0.000025
 23   3.942374 1.330659 -1.631083 0.000019 0.000002 -0.000024
 24   -0.246150 -0.011872 -0.516511 -0.000005 -0.000006 0.000048
 25   4.941364 1.997338 1.629330 0.000018 -0.000001 -0.000024
 26   4.941382 1.997366 -1.629410 -0.000001 0.000005 -0.000024
 27   2.918368 1.615358 1.514501 -0.000019 -0.000022 -0.000050
 28   2.920798 1.614964 -1.501142 -0.000002 -0.000009 -0.000024
 29   8.824059 0.150544 0.091743 0.000006 -0.000231 -0.174534
 30   2.111085 -0.561179 1.784320 -0.000008 -0.000682 0.000024
 31   2.121290 -0.561289 -1.853599 0.000000 0.000000 -0.000002
 32   -0.810489 -0.093824 3.127092 0.338887 -3.077718 -0.167693
 33   14.298673 -0.408176 0.475484 0.013323 -0.091999 -0.496903
 34   15.835795 0.581398 0.242756 -0.532523 -0.064474 0.362871
 35   -0.815868 -0.091229 -3.114430 -0.002100 2.881638 -0.315352
 36   14.294526 -0.410349 -0.463635 -0.021540 0.095253 -0.575789
 37   15.834409 0.579420 -0.284600 -0.051525 0.043093 0.201376
 38   1.139685 -3.453749 -2.823813 0.000000 0.000000 0.000001
 39   -4.457742 -1.054854 -0.746180 0.000000 0.000000 0.000000
 40   1.118101 -3.449769 3.237290 0.000000 0.000001 0.000000
 41   -4.433840 -1.059130 0.959566 -0.000001 0.000000 0.000000
 42   -0.657468 1.697302 -2.688614 0.000000 0.000002 0.000000
 43   -0.664068 1.698578 2.869377 0.000000 0.000002 0.000000
time 19
  0   0.001233 -0.019532 2.285597 0.000000 0.000000 -1.571829
  1   -1.093036 0.000002 -0.326057 -0.214003 -1.569036 -1.356583
  2   2.262337 0.113614 0.064702 -0.013758 -0.103762 0.132104
  3   2.380047 0.353302 0.047440 -0.244351 0.044890 0.177508
  4   2.033756 0.190472 -0.000128 -0.219569 0.056436 0.246418
  5   2.451511 0.204909 -0.003447 -0.081288 -0.001128 -0.017472
  6   7.247600 -0.397300 -0.109469 0.000001 0.000009 0.052298
  7   -2.022252 -0.104661 3.136172 0.472299 -1.361891 -3.655123
  8   1.168026 -0.537438 -0.063437 0.039595 0.811083 -0.262910
  9   6.790376 -0.619176 0.015206 -0.086540 -0.172808 -1.103034
 10   8.637599 0.544015 -0.090417 -3.550339 -0.089386 0.213512
 11   6.790465 -0.619039 0.017802 -0.079873 -0.124187 -0.786368
 12   -2.022474 -0.104699 -2.873818 0.298873 1.361712 -2.901984
 13   1.167898 -0.537463 0.063297 0.714258 -0.857289 -1.281854
 14   7.002743 -0.617765 -0.183752 0.000229 0.000250 -1.945066
 15   8.209042 0.615527 -0.255885 1.759051 -0.372762 1.075068
 16   7.002735 -0.617911 -0.183641 0.012979 0.010864 -1.380362
 17   1.574674 0.609930 -0.000899 0.701225 -0.325317 0.126103
 18   -0.602177 0.511412 -0.000006 0.000000 0.000000 0.000000
 19   3.673773 0.177020 1.119313 -0.000002 -0.000014 -0.174510
 20   3.673767 0.176993 -1.117566 0.000007 -0.000003 -0.174546
 21   3.942357 1.330634 1.627658 0.000002 -0.000011 -0.000026
 22   -0.246060 -0.011889 0.516521 -0.000011 0.000031 0.000025
 23   3.942374 1.330659 -1.631083 0.000019 0.000002 -0.000024
 24   -0.246150 -0.011872 -0.516511 -0.000005 -0.000006 0.000048
 25   4.941364 1.997338 1.629330 0.000018 -0.000001 -0.000024
 26   4.941382 1.997366 -1.629410 -0.000001 0.000005 -0.000024
 27   2.918368 1.615358 1.514501 -0.000019 -0.000022 -0.000050
 28   2.920798 1.614964 -1.501142 -0.000002 -0.000009 -0.000024
 29   8.824059 0.150544 0.091743 0.000006 -0.000231 -0.174534
 30   2.111085 -0.561179 1.784320 -0.000008 -0.000682 0.000024
 31   2.121290 -0.561289 -1.853599 0.000000 0.000000 -0.000002
 32   -0.810489 -0.093824 3.127092 0.338887 -3.077718 -0.167693
 33   14.298673 -0.408176 0.475484 0.013323 -0.091999 -0.496903
 34   15.835795 0.581398 0.242756 -0.532523 -0.064474 0.362871
 35   -0.815868 -0.091229 -3.114430 -0.002100 2.881638 -0.315352
 36   14.294526 -0.410349 -0.463635 -0.021540 0.095253 -0.575789
 37   15.834409 0.579420 -0.284600 -0.051525 0.043093 0.201376
 38   1.139685 -3.453749 -2.823813 0.000000 0.000000 0.000001
 39   -4.457742 -1.054854 -0.746180 0.000000 0.000000 0.000000
 40   1.118101 -3.449769 3.237290 0.000000 0.000001 0.000000
 41   -4.433840 -1.059130 0.959566 -0.000001 0.000000 0.000000
 42   -0.657468 1.697302 -2.688614 0.000000 0.000002 0.000000
 43   -0.664068 1.698578 2.869377 0.000000 0.000002 0.000000
time 20
  0   0.001233 -0.019532 2.285597 0.000000 0.000000 -1.571829
  1   -1.093036 0.000002 -0.326057 -0.214003 -1.569036 -1.356583
  2   2.262337 0.113614 0.064702 -0.013758 -0.103762 0.132104
  3   2.380047 0.353302 0.047440 -0.248687 0.045657 0.177324
  4   2.033756 0.190472 -0.000128 -0.228034 0.058605 0.245838
  5   2.451511 0.204909 -0.003447 -0.092859 -0.001298 -0.017472
  6   7.247600 -0.397300 -0.109469 0.000001 0.000009 0.052298
  7   -2.022252 -0.104661 3.136172 0.660851 -1.332892 -3.839381
  8   1.168026 -0.537438 -0.063437 -0.089434 0.719360 -0.379942
  9   6.790376 -0.619176 0.015206 -0.099300 -0.197569 -1.100619
 10   8.637599 0.544015 -0.090417 -3.698904 -0.022515 0.226534
 11   6.790465 -0.619039 0.017802 -0.091580 -0.140190 -0.784638
 12   -2.022474 -0.104699 -2.873818 0.298873 1.361712 -2.901984
 13   1.167898 -0.537463 0.063297 0.714258 -0.857289 -1.281854
 14   7.002743 -0.617765 -0.183752 0.000229 0.000250 -1.945066
 15   8.209042 0.615527 -0.255885 1.759051 -0.372762 1.075068
 16   7.002735 -0.617911 -0.183641 0.012979 0.010864 -1.380362
 17   1.574674 0.609930 -0.000899 0.701225 -0.325317 0.126103
 18   -0.602177 0.511412 -0.000006 0.000000 0.000000 0.000000
 19   3.673773 0.177020 1.119313 -0.000002 -0.000014 -0.174510
 20   3.673767 0.176993 -1.117566 0.000007 -0.000003 -0.174546
 21   3.942357 1.330634 1.627658 0.000002 -0.000011 -0.000026
 22   -0.246060 -0.011889 0.516521 -0.000011 0.000031 0.000025
 23   3.942374 1.330659 -1.631083 0.000019 0.000002 -0.000024
 24   -0.246150 -0.011872 -0.516511 -0.000005 -0.000006 0.000048
 25   4.941364 1.997338 1.629330 0.000018 -0.000001 -0.000024
 26   4.941382 1.997366 -1.629410 -0.000001 0.000005 -0.000024
 27   2.918368 1.615358 1.514501 -0.000019 -0.000022 -0.000050
 28   2.920798 1.614964 -1.501142 -0.000002 -0.000009 -0.000024
 29   8.824059 0.150544 0.091743 0.000006 -0.000231 -0.174534
 30   2.111085 -0.561179 1.784320 -0.000008 -0.000682 0.000024
 31   2.121290 -0.561289 -1.853599 0.000000 0.000000 -0.000002
 32   -0.810489 -0.093824 3.127092 0.338887 -3.077718 -0.167693
 33   14.298673 -0.408176 0.475484 0.013323 -0.091999 -0.496903
 34   15.835795 0.581398 0.242756 -0.532523 -0.064474 0.362871
 35   -0.815868 -0.091229 -3.114430 -0.002100 2.881638 -0.315352
 36   14.294526 -0.410349 -0.463635 -0.021540 0.095253 -0.575789
 37   15.834409 0.579420 -0.284600 -0.051525 0.043093 0.201376
 38   1.139685 -3.453749 -2.823813 0.000000 0.000000 0.000001
 39   -4.457742 -1.054854 -0.746180 0.000000 0.000000 0.000000
 40   1.118101 -3.449769 3.237290 0.000000 0.000001 0.000000
 41   -4.433840 -1.059130 0.959566 -0.000001 0.000000 0.000000
 42   -0.657468 1.697302 -2.688614 0.000000 0.000002 0.000000
 43   -0.664068 1.698578 2.869377 0.000000 0.000002 0.000000
time 21
  0   0.001233 -0.019532 2.285597 0.000000 0.000000 -1.571829
  1   -1.093036 0.000002 -0.326057 -0.214003 -1.569036 -1.356583
  2   2.262337 0.113614 0.064702 -0.013758 -0.103762 0.132104
  3   2.380047 0.353302 0.047440 -0.253022 0.046424 0.177059
  4   2.033756 0.190472 -0.000128 -0.236536 0.060714 0.245403
  5   2.451511 0.204909 -0.003447 -0.104550 -0.001572 -0.017472
  6   7.247600 -0.397300 -0.109469 0.000001 0.000009 0.052298
  7   -2.022252 -0.104661 3.136172 0.805980 -1.297522 -3.979594
  8   1.168026 -0.537438 -0.063437 -0.195682 0.618379 -0.472745
  9   6.790376 -0.619176 0.015206 -0.112005 -0.222330 -1.098053
 10   8.637599 0.544015 -0.090417 -3.847205 0.044708 0.229862
 11   6.790465 -0.619039 0.017802 -0.103346 -0.156279 -0.782504
 12   -2.022474 -0.104699 -2.873818 0.298873 1.361712 -2.901984
 13   1.167898 -0.537463 0.063297 0.714258 -0.857289 -1.281854
 14   7.002743 -0.617765 -0.183752 0.000229 0.000250 -1.945066
 15   8.209042 0.615527 -0.255885 1.759051 -0.372762 1.075068
 16   7.002735 -0.617911 -0.183641 0.012979 0.010864 -1.380362
 17   1.574674 0.609930 -0.000899 0.701225 -0.325317 0.126103
 18   -0.602177 0.511412 -0.000006 0.000000 0.000000 0.000000
 19   3.673773 0.177020 1.119313 -0.000002 -0.000014 -0.174510
 20   3.673767 0.176993 -1.117566 0.000007 -0.000003 -0.174546
 21   3.942357 1.330634 1.627658 0.000002 -0.000011 -0.000026
 22   -0.246060 -0.011889 0.516521 -0.000011 0.000031 0.000025
 23   3.942374 1.330659 -1.631083 0.000019 0.000002 -0.000024
 24   -0.246150 -0.011872 -0.516511 -0.000005 -0.000006 0.000048
 25   4.941364 1.997338 1.629330 0.000018 -0.000001 -0.000024
 26   4.941382 1.997366 -1.629410 -0.000001 0.000005 -0.000024
 27   2.918368 1.615358 1.514501 -0.000019 -0.000022 -0.000050
 28   2.920798 1.614964 -1.501142 -0.000002 -0.000009 -0.000024
 29   8.824059 0.150544 0.091743 0.000006 -0.000231 -0.174534
 30   2.111085 -0.561179 1.784320 -0.000008 -0.000682 0.000024
 31   2.121290 -0.561289 -1.853599 0.000000 0.000000 -0.000002
 32   -0.810489 -0.093824 3.127092 0.338887 -3.077718 -0.167693
 33   14.298673 -0.408176 0.475484 0.013323 -0.091999 -0.496903
 34   15.835795 0.581398 0.242756 -0.532523 -0.064474 0.362871
 35   -0.815868 -0.091229 -3.114430 -0.002100 2.881638 -0.315352
 36   14.294526 -0.410349 -0.463635 -0.021540 0.095253 -0.575789
 37   15.834409 0.579420 -0.284600 -0.051525 0.043093 0.201376
 38   1.139685 -3.453749 -2.823813 0.000000 0.000000 0.000001
 39   -4.457742 -1.054854 -0.746180 0.000000 0.000000 0.000000
 40   1.118101 -3.449769 3.237290 0.000000 0.000001 0.000000
 41   -4.433840 -1.059130 0.959566 -0.000001 0.000000 0.000000
 42   -0.657468 1.697302 -2.688614 0.000000 0.000002 0.000000
 43   -0.664068 1.698578 2.869377 0.000000 0.000002 0.000000
time 22
  0   0.001233 -0.019532 2.285597 0.000000 0.000000 -1.571829
  1   -1.093036 0.000002 -0.326057 -0.214003 -1.569036 -1.356583
  2   2.262337 0.113614 0.064702 -0.013758 -0.103762 0.132104
  3   2.380047 0.353302 0.047440 -0.257207 0.047191 0.176855
  4   2.033756 0.190472 -0.000128 -0.244946 0.062775 0.244968
  5   2.451511 0.204909 -0.003447 -0.116155 -0.001768 -0.017472
  6   7.247600 -0.397300 -0.109469 0.000001 0.000009 0.052298
  7   -2.022252 -0.104661 3.136172 0.916600 -1.257684 -4.085528
  8   1.168026 -0.537438 -0.063437 -0.283895 0.511008 -0.547139
  9   6.790376 -0.619176 0.015206 -0.125098 -0.246756 -1.094959
 10   8.637599 0.544015 -0.090417 -3.996035 0.112142 0.223134
 11   6.790465 -0.619039 0.017802 -0.115200 -0.172197 -0.780197
 12   -2.022474 -0.104699 -2.873818 0.298873 1.361712 -2.901984
 13   1.167898 -0.537463 0.063297 0.714258 -0.857289 -1.281854
 14   7.002743 -0.617765 -0.183752 0.000229 0.000250 -1.945066
 15   8.209042 0.615527 -0.255885 1.759051 -0.372762 1.075068
 16   7.002735 -0.617911 -0.183641 0.012979 0.010864 -1.380362
 17   1.574674 0.609930 -0.000899 0.701225 -0.325317 0.126103
 18   -0.602177 0.511412 -0.000006 0.000000 0.000000 0.000000
 19   3.673773 0.177020 1.119313 -0.000002 -0.000014 -0.174510
 20   3.673767 0.176993 -1.117566 0.000007 -0.000003 -0.174546
 21   3.942357 1.330634 1.627658 0.000002 -0.000011 -0.000026
 22   -0.246060 -0.011889 0.516521 -0.000011 0.000031 0.000025
 23   3.942374 1.330659 -1.631083 0.000019 0.000002 -0.000024
 24   -0.246150 -0.011872 -0.516511 -0.000005 -0.000006 0.000048
 25   4.941364 1.997338 1.629330 0.000018 -0.000001 -0.000024
 26   4.941382 1.997366 -1.629410 -0.000001 0.000005 -0.000024
 27   2.918368 1.615358 1.514501 -0.000019 -0.000022 -0.000050
 28   2.920798 1.614964 -1.501142 -0.000002 -0.000009 -0.000024
 29   8.824059 0.150544 0.091743 0.000006 -0.000231 -0.174534
 30   2.111085 -0.561179 1.784320 -0.000008 -0.000682 0.000024
 31   2.121290 -0.561289 -1.853599 0.000000 0.000000 -0.000002
 32   -0.810489 -0.093824 3.127092 0.338887 -3.077718 -0.167693
 33   14.298673 -0.408176 0.475484 0.013323 -0.091999 -0.496903
 34   15.835795 0.581398 0.242756 -0.532523 -0.064474 0.362871
 35   -0.815868 -0.091229 -3.114430 -0.002100 2.881638 -0.315352
 36   14.294526 -0.410349 -0.463635 -0.021540 0.095253 -0.575789
 37   15.834409 0.579420 -0.284600 -0.051525 0.043093 0.201376
 38   1.139685 -3.453749 -2.823813 0.000000 0.000000 0.000001
 39   -4.457742 -1.054854 -0.746180 0.000000 0.000000 0.000000
 40   1.118101 -3.449769 3.237290 0.000000 0.000001 0.000000
 41   -4.433840 -1.059130 0.959566 -0.000001 0.000000 0.000000
 42   -0.657468 1.697302 -2.688614 0.000000 0.000002 0.000000
 43   -0.664068 1.698578 2.869377 0.000000 0.000002 0.000000
time 23
  0   0.001233 -0.019532 2.285597 0.000000 0.000000 -1.571829
  1   -1.093036 0.000002 -0.326057 -0.214003 -1.569036 -1.356583
  2   2.262337 0.113614 0.064702 -0.013758 -0.103762 0.132104
  3   2.380047 0.353302 0.047440 -0.261633 0.047958 0.176671
  4   2.033756 0.190472 -0.000128 -0.253448 0.064921 0.244425
  5   2.451511 0.204909 -0.003447 -0.127812 -0.001911 -0.017472
  6   7.247600 -0.397300 -0.109469 0.000001 0.000009 0.052298
  7   -2.022252 -0.104661 3.136172 1.002393 -1.215251 -4.166482
  8   1.168026 -0.537438 -0.063437 -0.359009 0.399109 -0.607110
  9   6.790376 -0.619176 0.015206 -0.138025 -0.271384 -1.091563
 10   8.637599 0.544015 -0.090417 -4.146626 0.178309 0.205916
 11   6.790465 -0.619039 0.017802 -0.127083 -0.188314 -0.777544
 12   -2.022474 -0.104699 -2.873818 0.298873 1.361712 -2.901984
 13   1.167898 -0.537463 0.063297 0.714258 -0.857289 -1.281854
 14   7.002743 -0.617765 -0.183752 0.000229 0.000250 -1.945066
 15   8.209042 0.615527 -0.255885 1.759051 -0.372762 1.075068
 16   7.002735 -0.617911 -0.183641 0.012979 0.010864 -1.380362
 17   1.574674 0.609930 -0.000899 0.701225 -0.325317 0.126103
 18   -0.602177 0.511412 -0.000006 0.000000 0.000000 0.000000
 19   3.673773 0.177020 1.119313 -0.000002 -0.000014 -0.174510
 20   3.673767 0.176993 -1.117566 0.000007 -0.000003 -0.174546
 21   3.942357 1.330634 1.627658 0.000002 -0.000011 -0.000026
 22   -0.246060 -0.011889 0.516521 -0.000011 0.000031 0.000025
 23   3.942374 1.330659 -1.631083 0.000019 0.000002 -0.000024
 24   -0.246150 -0.011872 -0.516511 -0.000005 -0.000006 0.000048
 25   4.941364 1.997338 1.629330 0.000018 -0.000001 -0.000024
 26   4.941382 1.997366 -1.629410 -0.000001 0.000005 -0.000024
 27   2.918368 1.615358 1.514501 -0.000019 -0.000022 -0.000050
 28   2.920798 1.614964 -1.501142 -0.000002 -0.000009 -0.000024
 29   8.824059 0.150544 0.091743 0.000006 -0.000231 -0.174534
 30   2.111085 -0.561179 1.784320 -0.000008 -0.000682 0.000024
 31   2.121290 -0.561289 -1.853599 0.000000 0.000000 -0.000002
 32   -0.810489 -0.093824 3.127092 0.338887 -3.077718 -0.167693
 33   14.298673 -0.408176 0.475484 0.013323 -0.091999 -0.496903
 34   15.835795 0.581398 0.242756 -0.532523 -0.064474 0.362871
 35   -0.815868 -0.091229 -3.114430 -0.002100 2.881638 -0.315352
 36   14.294526 -0.410349 -0.463635 -0.021540 0.095253 -0.575789
 37   15.834409 0.579420 -0.284600 -0.051525 0.043093 0.201376
 38   1.139685 -3.453749 -2.823813 0.000000 0.000000 0.000001
 39   -4.457742 -1.054854 -0.746180 0.000000 0.000000 0.000000
 40   1.118101 -3.449769 3.237290 0.000000 0.000001 0.000000
 41   -4.433840 -1.059130 0.959566 -0.000001 0.000000 0.000000
 42   -0.657468 1.697302 -2.688614 0.000000 0.000002 0.000000
 43   -0.664068 1.698578 2.869377 0.000000 0.000002 0.000000
time 24
  0   0.001233 -0.019532 2.285597 0.000000 0.000000 -1.571829
  1   -1.093036 0.000002 -0.326057 -0.214003 -1.569036 -1.356583
  2   2.262337 0.113614 0.064702 -0.013758 -0.103762 0.132104
  3   2.380047 0.353302 0.047440 -0.265878 0.048725 0.176508
  4   2.033756 0.190472 -0.000128 -0.261987 0.067078 0.243772
  5   2.451511 0.204909 -0.003447 -0.139451 -0.002094 -0.017422
  6   7.247600 -0.397300 -0.109469 0.000001 0.000009 0.052298
  7   -2.022252 -0.104661 3.136172 1.070261 -1.170916 -4.229592
  8   1.168026 -0.537438 -0.063437 -0.423618 0.284040 -0.655947
  9   6.790376 -0.619176 0.015206 -0.151340 -0.295810 -1.088016
 10   8.637599 0.544015 -0.090417 -4.300387 0.240816 0.178425
 11   6.790465 -0.619039 0.017802 -0.139141 -0.204147 -0.774891
 12   -2.022474 -0.104699 -2.873818 0.298873 1.361712 -2.901984
 13   1.167898 -0.537463 0.063297 0.714258 -0.857289 -1.281854
 14   7.002743 -0.617765 -0.183752 0.000229 0.000250 -1.945066
 15   8.209042 0.615527 -0.255885 1.759051 -0.372762 1.075068
 16   7.002735 -0.617911 -0.183641 0.012979 0.010864 -1.380362
 17   1.574674 0.609930 -0.000899 0.701225 -0.325317 0.126103
 18   -0.602177 0.511412 -0.000006 0.000000 0.000000 0.000000
 19   3.673773 0.177020 1.119313 -0.000002 -0.000014 -0.174510
 20   3.673767 0.176993 -1.117566 0.000007 -0.000003 -0.174546
 21   3.942357 1.330634 1.627658 0.000002 -0.000011 -0.000026
 22   -0.246060 -0.011889 0.516521 -0.000011 0.000031 0.000025
 23   3.942374 1.330659 -1.631083 0.000019 0.000002 -0.000024
 24   -0.246150 -0.011872 -0.516511 -0.000005 -0.000006 0.000048
 25   4.941364 1.997338 1.629330 0.000018 -0.000001 -0.000024
 26   4.941382 1.997366 -1.629410 -0.000001 0.000005 -0.000024
 27   2.918368 1.615358 1.514501 -0.000019 -0.000022 -0.000050
 28   2.920798 1.614964 -1.501142 -0.000002 -0.000009 -0.000024
 29   8.824059 0.150544 0.091743 0.000006 -0.000231 -0.174534
 30   2.111085 -0.561179 1.784320 -0.000008 -0.000682 0.000024
 31   2.121290 -0.561289 -1.853599 0.000000 0.000000 -0.000002
 32   -0.810489 -0.093824 3.127092 0.338887 -3.077718 -0.167693
 33   14.298673 -0.408176 0.475484 0.013323 -0.091999 -0.496903
 34   15.835795 0.581398 0.242756 -0.532523 -0.064474 0.362871
 35   -0.815868 -0.091229 -3.114430 -0.002100 2.881638 -0.315352
 36   14.294526 -0.410349 -0.463635 -0.021540 0.095253 -0.575789
 37   15.834409 0.579420 -0.284600 -0.051525 0.043093 0.201376
 38   1.139685 -3.453749 -2.823813 0.000000 0.000000 0.000001
 39   -4.457742 -1.054854 -0.746180 0.000000 0.000000 0.000000
 40   1.118101 -3.449769 3.237290 0.000000 0.000001 0.000000
 41   -4.433840 -1.059130 0.959566 -0.000001 0.000000 0.000000
 42   -0.657468 1.697302 -2.688614 0.000000 0.000002 0.000000
 43   -0.664068 1.698578 2.869377 0.000000 0.000002 0.000000
time 25
  0   0.001233 -0.019532 2.285597 0.000000 0.000000 -1.571829
  1   -1.093036 0.000002 -0.326057 -0.214003 -1.569036 -1.356583
  2   2.262337 0.113614 0.064702 -0.013758 -0.103762 0.132104
  3   2.380047 0.353302 0.047440 -0.265878 0.048725 0.176508
  4   2.033756 0.190472 -0.000128 -0.261987 0.067078 0.243772
  5   2.451511 0.204909 -0.003447 -0.139451 -0.002094 -0.017422
  6   7.247600 -0.397300 -0.109469 0.000001 0.000009 0.052298
  7   -2.022252 -0.104661 3.136172 1.070261 -1.170916 -4.229592
  8   1.168026 -0.537438 -0.063437 -0.423618 0.284040 -0.655947
  9   6.790376 -0.619176 0.015206 -0.119661 -0.236946 -1.096242
 10   8.637599 0.544015 -0.090417 -4.300387 0.240816 0.178425
 11   6.790465 -0.619039 0.017802 -0.110441 -0.165915 -0.781235
 12   -2.022474 -0.104699 -2.873818 0.298873 1.361712 -2.901984
 13   1.167898 -0.537463 0.063297 0.714258 -0.857289 -1.281854
 14   7.002743 -0.617765 -0.183752 0.000229 0.000250 -1.945066
 15   8.209042 0.615527 -0.255885 1.759051 -0.372762 1.075068
 16   7.002735 -0.617911 -0.183641 0.012979 0.010864 -1.380362
 17   1.574674 0.609930 -0.000899 0.701225 -0.325317 0.126103
 18   -0.602177 0.511412 -0.000006 0.000000 0.000000 0.000000
 19   3.673773 0.177020 1.119313 -0.000002 -0.000014 -0.174510
 20   3.673767 0.176993 -1.117566 0.000007 -0.000003 -0.174546
 21   3.942357 1.330634 1.627658 0.000002 -0.000011 -0.000026
 22   -0.246060 -0.011889 0.516521 -0.000011 0.000031 0.000025
 23   3.942374 1.330659 -1.631083 0.000019 0.000002 -0.000024
 24   -0.246150 -0.011872 -0.516511 -0.000005 -0.000006 0.000048
 25   4.941364 1.997338 1.629330 0.000018 -0.000001 -0.000024
 26   4.941382 1.997366 -1.629410 -0.000001 0.000005 -0.000024
 27   2.918368 1.615358 1.514501 -0.000019 -0.000022 -0.000050
 28   2.920798 1.614964 -1.501142 -0.000002 -0.000009 -0.000024
 29   8.824059 0.150544 0.091743 0.000006 -0.000231 -0.174534
 30   2.111085 -0.561179 1.784320 -0.000008 -0.000682 0.000024
 31   2.121290 -0.561289 -1.853599 0.000000 0.000000 -0.000002
 32   -0.810489 -0.093824 3.127092 0.338887 -3.077718 -0.167693
 33   14.298673 -0.408176 0.475484 0.013323 -0.091999 -0.496903
 34   15.835795 0.581398 0.242756 -0.532523 -0.064474 0.362871
 35   -0.815868 -0.091229 -3.114430 -0.002100 2.881638 -0.315352
 36   14.294526 -0.410349 -0.463635 -0.021540 0.095253 -0.575789
 37   15.834409 0.579420 -0.284600 -0.051525 0.043093 0.201376
 38   1.139685 -3.453749 -2.823813 0.000000 0.000000 0.000001
 39   -4.457742 -1.054854 -0.746180 0.000000 0.000000 0.000000
 40   1.118101 -3.449769 3.237290 0.000000 0.000001 0.000000
 41   -4.433840 -1.059130 0.959566 -0.000001 0.000000 0.000000
 42   -0.657468 1.697302 -2.688614 0.000000 0.000002 0.000000
 43   -0.664068 1.698578 2.869377 0.000000 0.000002 0.000000
time 26
  0   0.001233 -0.019532 2.285597 0.000000 0.000000 -1.571829
  1   -1.093036 0.000002 -0.326057 -0.214003 -1.569036 -1.356583
  2   2.262337 0.113614 0.064702 -0.013758 -0.103762 0.132104
  3   2.380047 0.353302 0.047440 -0.265878 0.048725 0.176508
  4   2.033756 0.190472 -0.000128 -0.261987 0.067078 0.243772
  5   2.451511 0.204909 -0.003447 -0.139451 -0.002094 -0.017422
  6   7.247600 -0.397300 -0.109469 0.000001 0.000009 0.052298
  7   -2.022252 -0.104661 3.136172 1.070261 -1.170916 -4.229592
  8   1.168026 -0.537438 -0.063437 -0.423618 0.284040 -0.655947
  9   6.790376 -0.619176 0.015206 -0.089092 -0.177814 -1.102732
 10   8.637599 0.544015 -0.090417 -4.300387 0.240816 0.178425
 11   6.790465 -0.619039 0.017802 -0.082208 -0.127285 -0.786253
 12   -2.022474 -0.104699 -2.873818 0.298873 1.361712 -2.901984
 13   1.167898 -0.537463 0.063297 0.714258 -0.857289 -1.281854
 14   7.002743 -0.617765 -0.183752 0.000229 0.000250 -1.945066
 15   8.209042 0.615527 -0.255885 1.759051 -0.372762 1.075068
 16   7.002735 -0.617911 -0.183641 0.012979 0.010864 -1.380362
 17   1.574674 0.609930 -0.000899 0.701225 -0.325317 0.126103
 18   -0.602177 0.511412 -0.000006 0.000000 0.000000 0.000000
 19   3.673773 0.177020 1.119313 -0.000002 -0.000014 -0.174510
 20   3.673767 0.176993 -1.117566 0.000007 -0.000003 -0.174546
 21   3.942357 1.330634 1.627658 0.000002 -0.000011 -0.000026
 22   -0.246060 -0.011889 0.516521 -0.000011 0.000031 0.000025
 23   3.942374 1.330659 -1.631083 0.000019 0.000002 -0.000024
 24   -0.246150 -0.011872 -0.516511 -0.000005 -0.000006 0.000048
 25   4.941364 1.997338 1.629330 0.000018 -0.000001 -0.000024
 26   4.941382 1.997366 -1.629410 -0.000001 0.000005 -0.000024
 27   2.918368 1.615358 1.514501 -0.000019 -0.000022 -0.000050
 28   2.920798 1.614964 -1.501142 -0.000002 -0.000009 -0.000024
 29   8.824059 0.150544 0.091743 0.000006 -0.000231 -0.174534
 30   2.111085 -0.561179 1.784320 -0.000008 -0.000682 0.000024
 31   2.121290 -0.561289 -1.853599 0.000000 0.000000 -0.000002
 32   -0.810489 -0.093824 3.127092 0.338887 -3.077718 -0.167693
 33   14.298673 -0.408176 0.475484 0.013323 -0.091999 -0.496903
 34   15.835795 0.581398 0.242756 -0.532523 -0.064474 0.362871
 35   -0.815868 -0.091229 -3.114430 -0.002100 2.881638 -0.315352
 36   14.294526 -0.410349 -0.463635 -0.021540 0.095253 -0.575789
 37   15.834409 0.579420 -0.284600 -0.051525 0.043093 0.201376
 38   1.139685 -3.453749 -2.823813 0.000000 0.000000 0.000001
 39   -4.457742 -1.054854 -0.746180 0.000000 0.000000 0.000000
 40   1.118101 -3.449769 3.237290 0.000000 0.000001 0.000000
 41   -4.433840 -1.059130 0.959566 -0.000001 0.000000 0.000000
 42   -0.657468 1.697302 -2.688614 0.000000 0.000002 0.000000
 43   -0.664068 1.698578 2.869377 0.000000 0.000002 0.000000
time 27
  0   0.001233 -0.019532 2.285597 0.000000 0.000000 -1.571829
  1   -1.093036 0.000002 -0.326057 -0.214003 -1.569036 -1.356583
  2   2.262337 0.113614 0.064702 -0.013758 -0.103762 0.132104
  3   2.380047 0.353302 0.047440 -0.265878 0.048725 0.176508
  4   2.033756 0.190472 -0.000128 -0.261987 0.067078 0.243772
  5   2.451511 0.204909 -0.003447 -0.139451 -0.002094 -0.017422
  6   7.247600 -0.397300 -0.109469 0.000001 0.000009 0.052298
  7   -2.022252 -0.104661 3.136172 1.070261 -1.170916 -4.229592
  8   1.168026 -0.537438 -0.063437 -0.423618 0.284040 -0.655947
  9   6.790376 -0.619176 0.015206 -0.058911 -0.118549 -1.107109
 10   8.637599 0.544015 -0.090417 -4.300387 0.240816 0.178425
 11   6.790465 -0.619039 0.017802 -0.054297 -0.088826 -0.789656
 12   -2.022474 -0.104699 -2.873818 0.298873 1.361712 -2.901984
 13   1.167898 -0.537463 0.063297 0.714258 -0.857289 -1.281854
 14   7.002743 -0.617765 -0.183752 0.000229 0.000250 -1.945066
 15   8.209042 0.615527 -0.255885 1.759051 -0.372762 1.075068
 16   7.002735 -0.617911 -0.183641 0.012979 0.010864 -1.380362
 17   1.574674 0.609930 -0.000899 0.701225 -0.325317 0.126103
 18   -0.602177 0.511412 -0.000006 0.000000 0.000000 0.000000
 19   3.673773 0.177020 1.119313 -0.000002 -0.000014 -0.174510
 20   3.673767 0.176993 -1.117566 0.000007 -0.000003 -0.174546
 21   3.942357 1.330634 1.627658 0.000002 -0.000011 -0.000026
 22   -0.246060 -0.011889 0.516521 -0.000011 0.000031 0.000025
 23   3.942374 1.330659 -1.631083 0.000019 0.000002 -0.000024
 24   -0.246150 -0.011872 -0.516511 -0.000005 -0.000006 0.000048
 25   4.941364 1.997338 1.629330 0.000018 -0.000001 -0.000024
 26   4.941382 1.997366 -1.629410 -0.000001 0.000005 -0.000024
 27   2.918368 1.615358 1.514501 -0.000019 -0.000022 -0.000050
 28   2.920798 1.614964 -1.501142 -0.000002 -0.000009 -0.000024
 29   8.824059 0.150544 0.091743 0.000006 -0.000231 -0.174534
 30   2.111085 -0.561179 1.784320 -0.000008 -0.000682 0.000024
 31   2.121290 -0.561289 -1.853599 0.000000 0.000000 -0.000002
 32   -0.810489 -0.093824 3.127092 0.338887 -3.077718 -0.167693
 33   14.298673 -0.408176 0.475484 0.013323 -0.091999 -0.496903
 34   15.835795 0.581398 0.242756 -0.532523 -0.064474 0.362871
 35   -0.815868 -0.091229 -3.114430 -0.002100 2.881638 -0.315352
 36   14.294526 -0.410349 -0.463635 -0.021540 0.095253 -0.575789
 37   15.834409 0.579420 -0.284600 -0.051525 0.043093 0.201376
 38   1.139685 -3.453749 -2.823813 0.000000 0.000000 0.000001
 39   -4.457742 -1.054854 -0.746180 0.000000 0.000000 0.000000
 40   1.118101 -3.449769 3.237290 0.000000 0.000001 0.000000
 41   -4.433840 -1.059130 0.959566 -0.000001 0.000000 0.000000
 42   -0.657468 1.697302 -2.688614 0.000000 0.000002 0.000000
 43   -0.664068 1.698578 2.869377 0.000000 0.000002 0.000000
time 28
  0   0.001233 -0.019532 2.285597 0.000000 0.000000 -1.571829
  1   -1.093036 0.000002 -0.326057 -0.214003 -1.569036 -1.356583
  2   2.262337 0.113614 0.064702 -0.013758 -0.103762 0.132104
  3   2.380047 0.353302 0.047440 -0.265878 0.048725 0.176508
  4   2.033756 0.190472 -0.000128 -0.261987 0.067078 0.243772
  5   2.451511 0.204909 -0.003447 -0.139451 -0.002094 -0.017422
  6   7.247600 -0.397300 -0.109469 0.000001 0.000009 0.052298
  7   -2.022252 -0.104661 3.136172 1.070261 -1.170916 -4.229592
  8   1.168026 -0.537438 -0.063437 -0.423618 0.284040 -0.655947
  9   6.790376 -0.619176 0.015206 -0.029174 -0.059350 -1.109524
 10   8.637599 0.544015 -0.090417 -4.300387 0.240816 0.178425
 11   6.790465 -0.619039 0.017802 -0.026531 -0.050139 -0.791732
 12   -2.022474 -0.104699 -2.873818 0.298873 1.361712 -2.901984
 13   1.167898 -0.537463 0.063297 0.714258 -0.857289 -1.281854
 14   7.002743 -0.617765 -0.183752 0.000229 0.000250 -1.945066
 15   8.209042 0.615527 -0.255885 1.759051 -0.372762 1.075068
 16   7.002735 -0.617911 -0.183641 0.012979 0.010864 -1.380362
 17   1.574674 0.609930 -0.000899 0.701225 -0.325317 0.126103
 18   -0.602177 0.511412 -0.000006 0.000000 0.000000 0.000000
 19   3.673773 0.177020 1.119313 -0.000002 -0.000014 -0.174510
 20   3.673767 0.176993 -1.117566 0.000007 -0.000003 -0.174546
 21   3.942357 1.330634 1.627658 0.000002 -0.000011 -0.000026
 22   -0.246060 -0.011889 0.516521 -0.000011 0.000031 0.000025
 23   3.942374 1.330659 -1.631083 0.000019 0.000002 -0.000024
 24   -0.246150 -0.011872 -0.516511 -0.000005 -0.000006 0.000048
 25   4.941364 1.997338 1.629330 0.000018 -0.000001 -0.000024
 26   4.941382 1.997366 -1.629410 -0.000001 0.000005 -0.000024
 27   2.918368 1.615358 1.514501 -0.000019 -0.000022 -0.000050
 28   2.920798 1.614964 -1.501142 -0.000002 -0.000009 -0.000024
 29   8.824059 0.150544 0.091743 0.000006 -0.000231 -0.174534
 30   2.111085 -0.561179 1.784320 -0.000008 -0.000682 0.000024
 31   2.121290 -0.561289 -1.853599 0.000000 0.000000 -0.000002
 32   -0.810489 -0.093824 3.127092 0.338887 -3.077718 -0.167693
 33   14.298673 -0.408176 0.475484 0.013323 -0.091999 -0.496903
 34   15.835795 0.581398 0.242756 -0.532523 -0.064474 0.362871
 35   -0.815868 -0.091229 -3.114430 -0.002100 2.881638 -0.315352
 36   14.294526 -0.410349 -0.463635 -0.021540 0.095253 -0.575789
 37   15.834409 0.579420 -0.284600 -0.051525 0.043093 0.201376
 38   1.139685 -3.453749 -2.823813 0.000000 0.000000 0.000001
 39   -4.457742 -1.054854 -0.746180 0.000000 0.000000 0.000000
 40   1.118101 -3.449769 3.237290 0.000000 0.000001 0.000000
 41   -4.433840 -1.059130 0.959566 -0.000001 0.000000 0.000000
 42   -0.657468 1.697302 -2.688614 0.000000 0.000002 0.000000
 43   -0.664068 1.698578 2.869377 0.000000 0.000002 0.000000
time 29
  0   0.001233 -0.019532 2.285597 0.000000 0.000000 -1.571829
  1   -1.093036 0.000002 -0.326057 -0.214108 -1.569036 -1.356486
  2   2.262337 0.113614 0.064702 -0.013758 -0.103762 0.132104
  3   2.380047 0.353302 0.047440 -0.265878 0.048725 0.176508
  4   2.033756 0.190472 -0.000128 -0.261987 0.067078 0.243772
  5   2.451511 0.204909 -0.003447 -0.139451 -0.002094 -0.017422
  6   7.247600 -0.397300 -0.109469 0.000001 0.000009 0.052298
  7   -2.022252 -0.104661 3.136172 1.070261 -1.170916 -4.229592
  8   1.168026 -0.537438 -0.063437 -0.423618 0.284040 -0.655947
  9   6.790376 -0.619176 0.015206 -0.000102 -0.000352 -1.110430
 10   8.637599 0.544015 -0.090417 -4.300387 0.240816 0.178425
 11   6.790465 -0.619039 0.017802 0.000797 -0.011651 -0.792482
 12   -2.022474 -0.104699 -2.873818 0.298873 1.361712 -2.901984
 13   1.167898 -0.537463 0.063297 0.714258 -0.857289 -1.281854
 14   7.002743 -0.617765 -0.183752 0.000229 0.000250 -1.945066
 15   8.209042 0.615527 -0.255885 1.759051 -0.372762 1.075068
 16   7.002735 -0.617911 -0.183641 0.012979 0.010864 -1.380362
 17   1.574674 0.609930 -0.000899 0.701225 -0.325317 0.126103
 18   -0.602177 0.511412 -0.000006 0.000000 0.000000 0.000000
 19   3.673773 0.177020 1.119313 -0.000002 -0.000014 -0.174510
 20   3.673767 0.176993 -1.117566 0.000007 -0.000003 -0.174546
 21   3.942357 1.330634 1.627658 0.000002 -0.000011 -0.000026
 22   -0.246060 -0.011889 0.516521 -0.000011 0.000031 0.000025
 23   3.942374 1.330659 -1.631083 0.000019 0.000002 -0.000024
 24   -0.246150 -0.011872 -0.516511 -0.000005 -0.000006 0.000048
 25   4.941364 1.997338 1.629330 0.000018 -0.000001 -0.000024
 26   4.941382 1.997366 -1.629410 -0.000001 0.000005 -0.000024
 27   2.918368 1.615358 1.514501 -0.000019 -0.000022 -0.000050
 28   2.920798 1.614964 -1.501142 -0.000002 -0.000009 -0.000024
 29   8.824059 0.150544 0.091743 0.000006 -0.000231 -0.174534
 30   2.111085 -0.561179 1.784320 -0.000008 -0.000682 0.000024
 31   2.121290 -0.561289 -1.853599 0.000000 0.000000 -0.000002
 32   -0.810489 -0.093824 3.127092 0.338887 -3.077718 -0.167351
 33   14.298673 -0.408176 0.475484 0.013203 -0.091857 -0.496506
 34   15.835795 0.581398 0.242756 -0.532523 -0.064474 0.362871
 35   -0.815868 -0.091229 -3.114430 -0.002100 2.881638 -0.314968
 36   14.294526 -0.410349 -0.463635 -0.021444 0.095325 -0.575403
 37   15.834409 0.579420 -0.284600 -0.051525 0.043093 0.201376
 38   1.139685 -3.453749 -2.823813 0.000000 0.000000 0.000001
 39   -4.457742 -1.054854 -0.746180 0.000000 0.000000 0.000000
 40   1.118101 -3.449769 3.237290 0.000000 0.000001 0.000000
 41   -4.433840 -1.059130 0.959566 -0.000001 0.000000 0.000000
 42   -0.657468 1.697302 -2.688614 0.000000 0.000002 0.000000
 43   -0.664068 1.698578 2.869377 0.000000 0.000002 0.000000
end
