version 1
nodes
  0 "Bip01" -1
  1 "Bip01 Pelvis" 0
  2 "Bip01 Spine" 1
  3 "Bip01 Spine1" 2
  4 "Bip01 Spine2" 3
  5 "Bip01 Spine3" 4
  6 "Bip01 Neck" 5
  7 "Bip01 L Arm" 6
  8 "Bip01 L Arm1" 7
  9 "Bip01 L Arm2" 8
 10 "Bip01 L Hand" 9
 11 "Bip06 L elbow2-smooth" 8
 12 "Bip01 R Arm" 6
 13 "Bip01 R Arm1" 12
 14 "Bip01 R Arm2" 13
 15 "Bip01 R Hand" 14
 16 "Bip06 R elbow2-smooth" 13
 17 "Bip01 Head" 6
 18 "Bip06 Head_helper" 17
 19 "Bip06 Head_eyes_l" 18
 20 "Bip06 Head_eyes_r" 18
 21 "Bip06 Head_blink_l" 18
 22 "Bip06 Head_blink_smooth_l1" 21
 23 "Bip06 Head_blink_r" 18
 24 "Bip06 Head_blink_smooth_r1" 23
 25 "Bip06 Head_L_eyebrow" 18
 26 "Bip06 Head_R_eyebrow" 18
 27 "Bip06 Head_blink_l_lid" 18
 28 "Bip06 Head_blink_r_lid" 18
 29 "Bip06 bunny" 18
 30 "Bip06 bunnyL" 29
 31 "Bip06 bunnyR" 29
 32 "Bip01 L Leg" 1
 33 "Bip01 L Leg1" 32
 34 "Bip01 L Foot" 33
 35 "Bip01 R Leg" 1
 36 "Bip01 R Leg1" 35
 37 "Bip01 R Foot" 36
 38 "Bip03 HairR1" 17
 39 "Bip03 HairR2" 38
 40 "Bip03 HairL1" 17
 41 "Bip03 HairL2" 40
 42 "Bip03 swingR" 17
 43 "Bip03 swingL" 17
end
skeleton
time 0
  0   -0.756603 -0.917997 1.297286 0.000000 0.000000 -1.571069
  1   -1.093036 0.000002 -0.326057 -1.569027 -1.622749 -0.001768
  2   2.262337 0.113614 0.064702 -0.000014 0.000037 0.034286
  3   2.380047 0.353302 0.047440 0.000000 -0.000028 -0.245397
  4   2.033756 0.190472 -0.000128 -0.166860 0.050851 -0.248861
  5   2.451511 0.204909 -0.003447 -0.122009 0.088551 -0.280530
  6   7.247600 -0.397300 -0.109469 0.000001 -0.000003 0.470960
  7   -2.022252 -0.104661 3.136172 1.212801 -1.046098 -4.775887
  8   1.168026 -0.537438 -0.063437 -0.375209 0.611939 -0.863884
  9   6.790376 -0.619176 0.015206 -0.169926 -0.234143 -0.775354
 10   8.637599 0.544015 -0.090417 -3.909731 0.083071 -0.332760
 11   6.790465 -0.619039 0.017802 -0.137652 -0.163101 -0.558841
 12   -2.022474 -0.104699 -2.873818 -2.468706 1.824383 0.184805
 13   1.167898 -0.537463 0.063297 -0.810843 -0.994796 0.109235
 14   7.002743 -0.617765 -0.183752 0.000115 0.000194 -1.866851
 15   8.209042 0.615527 -0.255885 1.727486 0.375284 0.023026
 16   7.002735 -0.617911 -0.183641 0.012979 0.010300 -1.325445
 17   1.574674 0.609930 -0.000899 0.265493 -0.161779 -0.235524
 18   -0.602177 0.511412 -0.000006 0.000000 0.000000 0.000000
 19   3.646428 0.364526 1.119313 -0.000002 -0.000014 -0.174510
 20   3.646422 0.364499 -1.117566 0.000007 -0.000003 -0.174546
 21   3.805634 1.330634 1.627658 0.000002 -0.000011 -0.000026
 22   -0.246060 -0.011889 0.516521 -0.000011 0.000031 0.000025
 23   3.805651 1.330659 -1.631083 0.000019 0.000002 -0.000024
 24   -0.246150 -0.011872 -0.516511 -0.000005 -0.000006 0.000048
 25   4.941364 1.997338 1.629330 0.000018 -0.000001 -0.000024
 26   4.941382 1.997366 -1.629410 -0.000001 0.000005 -0.000024
 27   2.930087 1.603639 1.514501 -0.000019 -0.000022 -0.000050
 28   2.932517 1.603245 -1.501142 -0.000002 -0.000009 -0.000024
 29   8.824059 0.150544 0.091743 0.000006 -0.000231 -0.174534
 30   2.111085 -0.561179 1.784320 -0.000008 -0.000682 0.000024
 31   2.121290 -0.561289 -1.853599 0.000000 0.000000 -0.000002
 32   -0.810489 -0.093824 3.127092 0.308687 -2.963972 -0.295141
 33   14.298673 -0.408176 0.475484 0.010830 -0.088871 -0.467367
 34   15.835795 0.581398 0.242756 -0.305885 -0.201989 0.256011
 35   -0.815868 -0.091229 -3.114430 -0.040474 2.853438 0.069176
 36   14.294526 -0.410349 -0.463635 -0.007026 0.076833 -0.395888
 37   15.834409 0.579420 -0.284600 0.273760 0.212841 0.401548
 38   1.139685 -3.453749 -2.823813 0.000000 0.000000 0.000001
 39   -4.457742 -1.054854 -0.746180 0.000000 0.000000 0.000000
 40   1.118101 -3.449769 3.237290 0.000000 0.000001 0.000000
 41   -4.433840 -1.059130 0.959566 -0.000001 0.000000 0.000000
 42   -0.657468 1.697302 -2.688614 0.000000 0.000002 0.000000
 43   -0.664068 1.698578 2.869377 0.000000 0.000002 0.000000
time 1
  0   -0.756603 -0.917997 1.297286 0.000000 0.000000 -1.571069
  1   -1.093036 0.000002 -0.326057 -1.569027 -1.622749 -0.001768
  2   2.262337 0.113614 0.064702 -0.000014 0.000037 0.034286
  3   2.380047 0.353302 0.047440 -0.000060 0.001662 -0.239745
  4   2.033756 0.190472 -0.000128 -0.165643 0.048825 -0.263396
  5   2.451511 0.204909 -0.003447 -0.122009 0.085496 -0.297643
  6   7.247600 -0.397300 -0.109469 0.000001 -0.000003 0.470960
  7   -2.022252 -0.104661 3.136172 1.212801 -1.046098 -4.775887
  8   1.168026 -0.537438 -0.063437 -0.384005 0.639964 -0.877548
  9   6.790376 -0.619176 0.015206 -0.169926 -0.234143 -0.750148
 10   8.637599 0.544015 -0.090417 -3.908410 0.081593 -0.348314
 11   6.790465 -0.619039 0.017802 -0.137068 -0.163499 -0.541307
 12   -2.022474 -0.104699 -2.873818 -2.472346 1.825689 0.180688
 13   1.167898 -0.537463 0.063297 -0.852247 -0.984981 0.150883
 14   7.002743 -0.617765 -0.183752 0.000115 0.000194 -1.866851
 15   8.209042 0.615527 -0.255885 1.727630 0.375133 0.023567
 16   7.002735 -0.617911 -0.183641 0.012979 0.010300 -1.325445
 17   1.574674 0.609930 -0.000899 0.262812 -0.162631 -0.209281
 18   -0.602177 0.511412 -0.000006 0.000000 0.000000 0.000000
 19   3.646428 0.364526 1.119313 -0.000002 -0.000014 -0.174510
 20   3.646422 0.364499 -1.117566 0.000007 -0.000003 -0.174546
 21   3.805634 1.330634 1.627658 0.000002 -0.000011 -0.000026
 22   -0.246060 -0.011889 0.516521 -0.000011 0.000031 0.000025
 23   3.805651 1.330659 -1.631083 0.000019 0.000002 -0.000024
 24   -0.246150 -0.011872 -0.516511 -0.000005 -0.000006 0.000048
 25   4.941364 1.997338 1.629330 0.000018 -0.000001 -0.000024
 26   4.941382 1.997366 -1.629410 -0.000001 0.000005 -0.000024
 27   2.930087 1.603639 1.514501 -0.000019 -0.000022 -0.000050
 28   2.932517 1.603245 -1.501142 -0.000002 -0.000009 -0.000024
 29   8.824059 0.150544 0.091743 0.000897 -0.000468 -0.171583
 30   2.111085 -0.561179 1.784320 -0.000022 0.001236 0.000153
 31   2.121290 -0.561289 -1.853599 0.000000 -0.002538 0.000107
 32   -0.810489 -0.093824 3.127092 0.308687 -2.963876 -0.294914
 33   14.298673 -0.408176 0.475484 0.010782 -0.088871 -0.466811
 34   15.835795 0.581398 0.242756 -0.305816 -0.202160 0.255437
 35   -0.815868 -0.091229 -3.114430 -0.040386 2.853438 0.069559
 36   14.294526 -0.410349 -0.463635 -0.006978 0.076845 -0.395347
 37   15.834409 0.579420 -0.284600 0.273760 0.212841 0.401548
 38   1.139685 -3.453749 -2.823813 0.000063 -0.000060 0.000123
 39   -4.457742 -1.054854 -0.746180 0.000132 0.000288 -0.001178
 40   1.118101 -3.449769 3.237290 -0.000021 -0.000071 0.000367
 41   -4.433840 -1.059130 0.959566 0.000011 0.000024 -0.000084
 42   -0.657468 1.697302 -2.688614 0.000863 0.001336 -0.000084
 43   -0.664068 1.698578 2.869377 -0.001000 -0.001504 0.000251
time 2
  0   -0.756603 -0.917997 1.309005 0.000000 0.000000 -1.571069
  1   -1.093036 0.000002 -0.326057 -1.569027 -1.622749 -0.001768
  2   2.262337 0.113614 0.064702 -0.000014 0.000037 0.034286
  3   2.380047 0.353302 0.047440 -0.000195 0.003435 -0.233705
  4   2.033756 0.190472 -0.000128 -0.164352 0.046788 -0.278837
  5   2.451511 0.204909 -0.003447 -0.121992 0.082258 -0.315474
  6   7.247600 -0.397300 -0.109469 0.000001 -0.000003 0.470960
  7   -2.022252 -0.104661 3.136172 1.212801 -1.046098 -4.775887
  8   1.168026 -0.537438 -0.063437 -0.395205 0.669448 -0.894312
  9   6.790376 -0.619176 0.015206 -0.169926 -0.234143 -0.722829
 10   8.637599 0.544015 -0.090417 -3.906737 0.079622 -0.364519
 11   6.790465 -0.619039 0.017802 -0.136455 -0.163897 -0.522275
 12   -2.022474 -0.104699 -2.873818 -2.468706 1.824383 0.184805
 13   1.167898 -0.537463 0.063297 -0.897094 -0.975878 0.196042
 14   7.002743 -0.617765 -0.183752 0.000115 0.000194 -1.866851
 15   8.209042 0.615527 -0.255885 1.727486 0.375284 0.023026
 16   7.002735 -0.617911 -0.183641 0.012979 0.010300 -1.325445
 17   1.574674 0.609930 -0.000899 0.260091 -0.163554 -0.181634
 18   -0.602177 0.511412 -0.000006 0.000000 0.000000 0.000000
 19   3.646428 0.364526 1.119313 -0.000002 -0.000014 -0.174510
 20   3.646422 0.364499 -1.117566 0.000007 -0.000003 -0.174546
 21   3.805634 1.330634 1.627658 0.000002 -0.000011 -0.000026
 22   -0.246060 -0.011889 0.516521 -0.000011 0.000031 0.000025
 23   3.805651 1.330659 -1.631083 0.000019 0.000002 -0.000024
 24   -0.246150 -0.011872 -0.516511 -0.000005 -0.000006 0.000048
 25   4.941364 1.997338 1.629330 0.000018 -0.000001 -0.000024
 26   4.941382 1.997366 -1.629410 -0.000001 0.000005 -0.000024
 27   2.930087 1.603639 1.514501 -0.000019 -0.000022 -0.000050
 28   2.932517 1.603245 -1.501142 -0.000002 -0.000009 -0.000024
 29   8.824059 0.150544 0.091743 0.003838 -0.001323 -0.163053
 30   2.111085 -0.561179 1.784320 -0.000103 0.006728 0.000496
 31   2.121290 -0.561289 -1.853599 0.000000 -0.009765 0.000544
 32   -0.810489 -0.093824 3.127092 0.308314 -2.963590 -0.294174
 33   14.298673 -0.408176 0.475484 0.010638 -0.088884 -0.465223
 34   15.835795 0.581398 0.242756 -0.305494 -0.202648 0.253894
 35   -0.815868 -0.091229 -3.114430 -0.040122 2.853344 0.070326
 36   14.294526 -0.410349 -0.463635 -0.006871 0.076845 -0.393725
 37   15.834409 0.579420 -0.284600 0.273760 0.212841 0.401548
 38   1.139685 -3.453749 -2.823813 0.000400 -0.000277 0.000795
 39   -4.457742 -1.047041 -0.746180 0.000491 0.001127 -0.004459
 40   1.118101 -3.449769 3.237290 -0.000168 -0.000336 0.001405
 41   -4.433840 -1.051317 0.959566 0.000047 0.000108 -0.000449
 42   -0.657468 1.697302 -2.680801 0.003308 0.005169 -0.000418
 43   -0.664068 1.698578 2.861564 -0.003886 -0.005851 0.001004
time 3
  0   -0.756603 -0.917997 1.328537 0.000000 0.000000 -1.571069
  1   -1.093036 0.000002 -0.326057 -1.569027 -1.622749 -0.001768
  2   2.262337 0.113614 0.064702 -0.000014 0.000037 0.034286
  3   2.380047 0.353302 0.047440 -0.000330 0.005233 -0.227624
  4   2.033756 0.190472 -0.000128 -0.163024 0.044763 -0.293807
  5   2.451511 0.204909 -0.003447 -0.121872 0.079125 -0.332984
  6   7.247600 -0.397300 -0.109469 0.002218 0.003329 0.512804
  7   -2.022252 -0.104661 3.136172 1.205420 -1.044138 -4.811949
  8   1.168026 -0.537438 -0.063437 -0.408747 0.698429 -0.913670
  9   6.790376 -0.619176 0.015206 -0.169926 -0.234143 -0.696868
 10   8.637599 0.544015 -0.090417 -3.905504 0.077299 -0.379639
 11   6.790465 -0.619039 0.017802 -0.135871 -0.164323 -0.504165
 12   -2.022474 -0.104699 -2.873818 -2.437856 1.815444 0.173890
 13   1.167898 -0.537463 0.063297 -0.944402 -0.970132 0.243683
 14   7.002743 -0.617765 -0.183752 0.000115 0.000194 -1.867181
 15   8.209042 0.615527 -0.255885 1.726695 0.376419 0.020620
 16   7.002735 -0.617911 -0.183641 0.012979 0.010300 -1.325721
 17   1.574674 0.609930 -0.000899 0.255379 -0.165045 -0.205770
 18   -0.602177 0.511412 -0.000006 0.000000 0.000000 0.000000
 19   3.646428 0.364526 1.119313 -0.000002 -0.000014 -0.174510
 20   3.646422 0.364499 -1.117566 0.000007 -0.000003 -0.174546
 21   3.805634 1.330634 1.627658 0.000002 -0.000011 -0.000026
 22   -0.246060 -0.011889 0.516521 -0.000011 0.000031 0.000025
 23   3.805651 1.330659 -1.631083 0.000019 0.000002 -0.000024
 24   -0.246150 -0.011872 -0.516511 -0.000005 -0.000006 0.000048
 25   4.941364 1.997338 1.629330 0.000018 -0.000001 -0.000024
 26   4.941382 1.997366 -1.629410 -0.000001 0.000005 -0.000024
 27   2.930087 1.603639 1.514501 -0.000019 -0.000022 -0.000050
 28   2.932517 1.603245 -1.501142 -0.000002 -0.000009 -0.000024
 29   8.824059 0.150544 0.091743 0.008472 -0.002629 -0.149802
 30   2.111085 -0.561179 1.776507 -0.000225 0.015185 0.001075
 31   2.129103 -0.561289 -1.845786 0.000031 -0.020902 0.001163
 32   -0.810489 -0.093824 3.127092 0.308314 -2.963207 -0.292808
 33   14.298673 -0.408176 0.475484 0.010423 -0.088910 -0.462603
 34   15.835795 0.581398 0.242756 -0.304919 -0.203429 0.251292
 35   -0.815868 -0.091229 -3.114430 -0.039858 2.853344 0.071750
 36   14.294526 -0.410349 -0.463635 -0.006679 0.076869 -0.391021
 37   15.834409 0.579420 -0.284600 0.273760 0.212841 0.401548
 38   1.139685 -3.453749 -2.823813 0.000842 -0.000627 0.001895
 39   -4.457742 -1.027509 -0.746180 0.001091 0.002409 -0.009648
 40   1.118101 -3.449769 3.237290 -0.000400 -0.000746 0.003116
 41   -4.426027 -1.043504 0.959566 0.000107 0.000228 -0.000954
 42   -0.649655 1.697302 -2.661269 0.007095 0.011057 -0.001046
 43   -0.664068 1.698578 2.849845 -0.008309 -0.012520 0.002133
time 4
  0   -0.756603 -0.917997 1.344162 0.000000 0.000000 -1.571069
  1   -1.093036 0.000002 -0.326057 -1.569027 -1.622749 -0.001768
  2   2.262337 0.113614 0.064702 -0.000014 0.000037 0.034286
  3   2.380047 0.353302 0.047440 -0.000435 0.006995 -0.222033
  4   2.033756 0.190472 -0.000128 -0.161862 0.043085 -0.306711
  5   2.451511 0.204909 -0.003447 -0.121718 0.076318 -0.349131
  6   7.247600 -0.397300 -0.109469 0.004759 0.006601 0.554775
  7   -2.022252 -0.104661 3.136172 1.198519 -1.042380 -4.847355
  8   1.168026 -0.537438 -0.063437 -0.422479 0.724492 -0.932205
  9   6.790376 -0.619176 0.015206 -0.169926 -0.234143 -0.674077
 10   8.637599 0.544015 -0.090417 -3.904007 0.075328 -0.392444
 11   6.790465 -0.619039 0.017802 -0.135287 -0.164636 -0.488362
 12   -2.022474 -0.104699 -2.873818 -2.400108 1.805169 0.170348
 13   1.167898 -0.537463 0.063297 -0.988477 -0.965555 0.287389
 14   7.002743 -0.617765 -0.183752 0.000115 0.000194 -1.867346
 15   8.209042 0.615527 -0.255885 1.725904 0.377705 0.017854
 16   7.002735 -0.617911 -0.183641 0.012979 0.010300 -1.325776
 17   1.574674 0.609930 -0.000899 0.250870 -0.166394 -0.232973
 18   -0.602177 0.511412 -0.000006 0.000000 0.000000 0.000000
 19   3.646428 0.364526 1.119313 -0.000002 -0.000014 -0.174510
 20   3.646422 0.364499 -1.117566 0.000007 -0.000003 -0.174546
 21   3.805634 1.330634 1.627658 0.000002 -0.000011 -0.000026
 22   -0.246060 -0.011889 0.516521 -0.000011 0.000031 0.000025
 23   3.805651 1.330659 -1.631083 0.000019 0.000002 -0.000024
 24   -0.246150 -0.011872 -0.516511 -0.000005 -0.000006 0.000048
 25   4.941364 1.997338 1.629330 0.000018 -0.000001 -0.000024
 26   4.941382 1.997366 -1.629410 -0.000001 0.000005 -0.000024
 27   2.930087 1.603639 1.514501 -0.000019 -0.000022 -0.000050
 28   2.932517 1.603245 -1.501142 -0.000002 -0.000009 -0.000024
 29   8.824059 0.150544 0.091743 0.014265 -0.004409 -0.132849
 30   2.118898 -0.561179 1.764788 -0.000361 0.026111 0.001804
 31   2.133009 -0.561289 -1.837973 0.000046 -0.035330 0.001945
 32   -0.810489 -0.093824 3.127092 0.307848 -2.962635 -0.291100
 33   14.298673 -0.408176 0.475484 0.010087 -0.088962 -0.458792
 34   15.835795 0.581398 0.242756 -0.304229 -0.204527 0.247719
 35   -0.815868 -0.091229 -3.114430 -0.039242 2.853344 0.073667
 36   14.294526 -0.410349 -0.463635 -0.006379 0.076905 -0.387391
 37   15.834409 0.579420 -0.284600 0.273760 0.212841 0.401548
 38   1.147498 -3.453749 -2.823813 0.001410 -0.001073 0.003239
 39   -4.457742 -1.011884 -0.738367 0.001846 0.004075 -0.016267
 40   1.110288 -3.449769 3.237290 -0.000674 -0.001276 0.005254
 41   -4.410401 -1.031785 0.967379 0.000191 0.000384 -0.001599
 42   -0.649655 1.697302 -2.641737 0.011973 0.018631 -0.001756
 43   -0.664068 1.698578 2.830313 -0.014031 -0.021134 0.003638
time 5
  0   -0.756603 -0.917997 1.363694 0.000000 0.000000 -1.571069
  1   -1.093036 0.000002 -0.326057 -1.569027 -1.622749 -0.001768
  2   2.262337 0.113614 0.064702 -0.000014 0.000037 0.034286
  3   2.380047 0.353302 0.047440 -0.000525 0.008385 -0.217156
  4   2.033756 0.190472 -0.000128 -0.161069 0.041826 -0.315845
  5   2.451511 0.204909 -0.003447 -0.121547 0.074007 -0.363173
  6   7.247600 -0.397300 -0.109469 0.007348 0.009788 0.596714
  7   -2.022252 -0.104661 3.136172 1.191138 -1.040593 -4.882948
  8   1.168026 -0.537438 -0.063437 -0.434249 0.745171 -0.947767
  9   6.790376 -0.619176 0.015206 -0.169926 -0.234143 -0.657625
 10   8.637599 0.544015 -0.090417 -3.902862 0.073146 -0.401704
 11   6.790465 -0.619039 0.017802 -0.134966 -0.164920 -0.476885
 12   -2.022474 -0.104699 -2.873818 -2.357186 1.794691 0.171784
 13   1.167898 -0.537463 0.063297 -1.025030 -0.962758 0.323407
 14   7.002743 -0.617765 -0.183752 0.000115 0.000194 -1.867676
 15   8.209042 0.615527 -0.255885 1.724969 0.379067 0.014546
 16   7.002735 -0.617911 -0.183641 0.012979 0.010300 -1.326052
 17   1.574674 0.609930 -0.000899 0.247255 -0.167672 -0.265462
 18   -0.602177 0.511412 -0.000006 0.000000 0.000000 0.000000
 19   3.646428 0.364526 1.119313 -0.000002 -0.000014 -0.174510
 20   3.646422 0.364499 -1.117566 0.000007 -0.000003 -0.174546
 21   3.805634 1.330634 1.627658 0.000002 -0.000011 -0.000026
 22   -0.246060 -0.011889 0.516521 -0.000011 0.000031 0.000025
 23   3.805651 1.330659 -1.631083 0.000019 0.000002 -0.000024
 24   -0.246150 -0.011872 -0.516511 -0.000005 -0.000006 0.000048
 25   4.941364 1.997338 1.629330 0.000018 -0.000001 -0.000024
 26   4.941382 1.997366 -1.629410 -0.000001 0.000005 -0.000024
 27   2.930087 1.603639 1.514501 -0.000019 -0.000022 -0.000050
 28   2.932517 1.603245 -1.501142 -0.000002 -0.000009 -0.000024
 29   8.824059 0.150544 0.091743 0.021038 -0.006617 -0.112785
 30   2.122804 -0.561179 1.753069 -0.000537 0.038927 0.002640
 31   2.140822 -0.561289 -1.834067 0.000092 -0.052191 0.002891
 32   -0.810489 -0.093824 3.127092 0.307382 -2.962061 -0.289108
 33   14.298673 -0.408176 0.475484 0.009716 -0.089000 -0.454425
 34   15.835795 0.581398 0.242756 -0.303355 -0.205796 0.243574
 35   -0.815868 -0.091229 -3.114430 -0.038538 2.853251 0.075804
 36   14.294526 -0.410349 -0.463635 -0.006056 0.076929 -0.383065
 37   15.834409 0.579420 -0.284600 0.273760 0.212841 0.401548
 38   1.147498 -3.453749 -2.823813 0.002126 -0.001579 0.004766
 39   -4.457742 -0.992352 -0.734461 0.002721 0.006016 -0.024035
 40   1.110288 -3.449769 3.237290 -0.000989 -0.001903 0.007820
 41   -4.402589 -1.020066 0.967379 0.000287 0.000575 -0.002384
 42   -0.637936 1.697302 -2.618299 0.017689 0.027570 -0.002635
 43   -0.664068 1.690765 2.806875 -0.020753 -0.031240 0.005395
time 6
  0   -0.756603 -0.917997 1.398851 0.000000 0.000000 -1.571069
  1   -1.093036 0.000002 -0.326057 -1.569027 -1.622749 -0.001768
  2   2.262337 0.113614 0.064702 -0.000014 0.000037 0.034286
  3   2.380047 0.353302 0.047440 -0.000600 0.009536 -0.213544
  4   2.033756 0.190472 -0.000128 -0.160571 0.041131 -0.321137
  5   2.451511 0.204909 -0.003447 -0.121273 0.072140 -0.376596
  6   7.247600 -0.397300 -0.109469 0.009984 0.012844 0.638557
  7   -2.022252 -0.104661 3.136172 1.183469 -1.039065 -4.918447
  8   1.168026 -0.537438 -0.063437 -0.444311 0.762429 -0.960483
  9   6.790376 -0.619176 0.015206 -0.169926 -0.234143 -0.645324
 10   8.637599 0.544015 -0.090417 -3.901805 0.071386 -0.408432
 11   6.790465 -0.619039 0.017802 -0.134674 -0.165062 -0.468291
 12   -2.022474 -0.104699 -2.873818 -2.311774 1.784910 0.175805
 13   1.167898 -0.537463 0.063297 -1.056803 -0.960877 0.354159
 14   7.002743 -0.617765 -0.183752 0.000115 0.000194 -1.868006
 15   8.209042 0.615527 -0.255885 1.723963 0.380202 0.011600
 16   7.002735 -0.617911 -0.183641 0.012979 0.010300 -1.326328
 17   1.574674 0.609930 -0.000899 0.244168 -0.169021 -0.300982
 18   -0.602177 0.511412 -0.000006 0.000000 0.000000 0.000000
 19   3.646428 0.364526 1.119313 -0.000002 -0.000014 -0.174510
 20   3.646422 0.364499 -1.117566 0.000007 -0.000003 -0.174546
 21   3.805634 1.330634 1.627658 0.000002 -0.000011 -0.000026
 22   -0.246060 -0.011889 0.516521 -0.000011 0.000031 0.000025
 23   3.805651 1.330659 -1.631083 0.000019 0.000002 -0.000024
 24   -0.246150 -0.011872 -0.516511 -0.000005 -0.000006 0.000048
 25   4.941364 1.997338 1.629330 0.000018 -0.000001 -0.000024
 26   4.941382 1.997366 -1.629410 -0.000001 0.000005 -0.000024
 27   2.930087 1.603639 1.514501 -0.000019 -0.000022 -0.000050
 28   2.932517 1.603245 -1.501142 -0.000002 -0.000009 -0.000024
 29   8.824059 0.150544 0.091743 0.028525 -0.009228 -0.090682
 30   2.130617 -0.561179 1.741350 -0.000727 0.053079 0.003583
 31   2.152541 -0.561289 -1.822348 0.000138 -0.070866 0.003965
 32   -0.810489 -0.093824 3.127092 0.307102 -2.961298 -0.286774
 33   14.298673 -0.408176 0.475484 0.009272 -0.089052 -0.449820
 34   15.835795 0.581398 0.242756 -0.302412 -0.207187 0.238987
 35   -0.815868 -0.091229 -3.114430 -0.037833 2.853063 0.078378
 36   14.294526 -0.410349 -0.463635 -0.005684 0.076953 -0.378353
 37   15.834409 0.579420 -0.284600 0.273760 0.212841 0.401548
 38   1.155311 -3.453749 -2.823813 0.002884 -0.002145 0.006538
 39   -4.457742 -0.961101 -0.726648 0.003691 0.008162 -0.032645
 40   1.106382 -3.449769 3.237290 -0.001347 -0.002602 0.010692
 41   -4.386963 -1.000534 0.979098 0.000383 0.000791 -0.003225
 42   -0.637936 1.697302 -2.594861 0.024017 0.037413 -0.003597
 43   -0.664068 1.690765 2.787343 -0.028187 -0.042428 0.007319
time 7
  0   -0.756603 -0.917997 1.422289 0.000000 0.000000 -1.571069
  1   -1.093036 0.000002 -0.326057 -1.569027 -1.622749 -0.001768
  2   2.262337 0.113614 0.064702 -0.000014 0.000037 0.034286
  3   2.380047 0.353302 0.047440 -0.000645 0.010291 -0.211014
  4   2.033756 0.190472 -0.000128 -0.160313 0.040820 -0.323783
  5   2.451511 0.204909 -0.003447 -0.120982 0.070848 -0.389053
  6   7.247600 -0.397300 -0.109469 0.012836 0.015829 0.680592
  7   -2.022252 -0.104661 3.136172 1.176088 -1.037652 -4.953665
  8   1.168026 -0.537438 -0.063437 -0.453044 0.777020 -0.971174
  9   6.790376 -0.619176 0.015206 -0.169926 -0.234143 -0.635664
 10   8.637599 0.544015 -0.090417 -3.900925 0.069556 -0.413713
 11   6.790465 -0.619039 0.017802 -0.134411 -0.165233 -0.461601
 12   -2.022474 -0.104699 -2.873818 -2.268565 1.776319 0.177528
 13   1.167898 -0.537463 0.063297 -1.083444 -0.958843 0.379402
 14   7.002743 -0.617765 -0.183752 0.000115 0.000194 -1.868336
 15   8.209042 0.615527 -0.255885 1.723172 0.381337 0.009074
 16   7.002735 -0.617911 -0.183641 0.012979 0.010300 -1.326604
 17   1.574674 0.609930 -0.000899 0.241609 -0.170441 -0.339310
 18   -0.602177 0.511412 -0.000006 0.000000 0.000000 0.000000
 19   3.646428 0.364526 1.119313 -0.000002 -0.000014 -0.174510
 20   3.646422 0.364499 -1.117566 0.000007 -0.000003 -0.174546
 21   3.805634 1.330634 1.627658 0.000002 -0.000011 -0.000026
 22   -0.246060 -0.011889 0.516521 -0.000011 0.000031 0.000025
 23   3.805651 1.330659 -1.631083 0.000019 0.000002 -0.000024
 24   -0.246150 -0.011872 -0.516511 -0.000005 -0.000006 0.000048
 25   4.941364 1.997338 1.629330 0.000018 -0.000001 -0.000024
 26   4.941382 1.997366 -1.629410 -0.000001 0.000005 -0.000024
 27   2.930087 1.603639 1.514501 -0.000019 -0.000022 -0.000050
 28   2.932517 1.603245 -1.501142 -0.000002 -0.000009 -0.000024
 29   8.824059 0.150544 0.091743 0.036367 -0.012124 -0.067345
 30   2.138430 -0.561179 1.721818 -0.000944 0.068074 0.004570
 31   2.160354 -0.561289 -1.814535 0.000184 -0.090655 0.005075
 32   -0.810489 -0.093824 3.127092 0.306823 -2.960629 -0.284440
 33   14.298673 -0.408176 0.475484 0.008877 -0.089078 -0.445056
 34   15.835795 0.581398 0.242756 -0.301446 -0.208578 0.234356
 35   -0.815868 -0.091229 -3.114430 -0.037129 2.852969 0.080788
 36   14.294526 -0.410349 -0.463635 -0.005313 0.076977 -0.373719
 37   15.834409 0.579420 -0.284600 0.273760 0.212841 0.401548
 38   1.159217 -3.461562 -2.823813 0.003684 -0.002748 0.008371
 39   -4.465555 -0.937663 -0.718835 0.004734 0.010463 -0.041760
 40   1.098569 -3.441956 3.237290 -0.001726 -0.003325 0.013624
 41   -4.371338 -0.988815 0.979098 0.000490 0.001019 -0.004151
 42   -0.626217 1.697302 -2.563610 0.030717 0.047854 -0.004558
 43   -0.664068 1.686859 2.763905 -0.036033 -0.054275 0.009284
time 8
  0   -0.756603 -0.917997 1.445728 0.000000 0.000000 -1.571069
  1   -1.093036 0.000002 -0.326057 -1.569027 -1.622749 -0.001768
  2   2.262337 0.113614 0.064702 -0.000014 0.000037 0.034286
  3   2.380047 0.353302 0.047440 -0.000690 0.010686 -0.209565
  4   2.033756 0.190472 -0.000128 -0.160313 0.040820 -0.323783
  5   2.451511 0.204909 -0.003447 -0.120794 0.070325 -0.396334
  6   7.247600 -0.397300 -0.109469 0.012836 0.015829 0.680592
  7   -2.022252 -0.104661 3.136172 1.176088 -1.037652 -4.953665
  8   1.168026 -0.537438 -0.063437 -0.457220 0.784215 -0.976424
  9   6.790376 -0.619176 0.015206 -0.169926 -0.234143 -0.632117
 10   8.637599 0.544015 -0.090417 -3.900132 0.068500 -0.415377
 11   6.790465 -0.619039 0.017802 -0.134382 -0.165261 -0.459121
 12   -2.022474 -0.104699 -2.873818 -2.246146 1.772459 0.200602
 13   1.167898 -0.537463 0.063297 -1.097503 -0.958894 0.392659
 14   7.002743 -0.617765 -0.183752 0.000115 0.000194 -1.868501
 15   8.209042 0.615527 -0.255885 1.722668 0.382018 0.007330
 16   7.002735 -0.617911 -0.183641 0.012979 0.010300 -1.326604
 17   1.574674 0.609930 -0.000899 0.241609 -0.173778 -0.324341
 18   -0.602177 0.511412 -0.000006 0.000000 0.000000 0.000000
 19   3.646428 0.364526 1.119313 -0.000002 -0.000014 -0.174510
 20   3.646422 0.364499 -1.117566 0.000007 -0.000003 -0.174546
 21   3.805634 1.330634 1.627658 0.000002 -0.000011 -0.000026
 22   -0.246060 -0.011889 0.516521 -0.000011 0.000031 0.000025
 23   3.805651 1.330659 -1.631083 0.000019 0.000002 -0.000024
 24   -0.246150 -0.011872 -0.516511 -0.000005 -0.000006 0.000048
 25   4.941364 1.997338 1.629330 0.000018 -0.000001 -0.000024
 26   4.941382 1.997366 -1.629410 -0.000001 0.000005 -0.000024
 27   2.930087 1.603639 1.514501 -0.000019 -0.000022 -0.000050
 28   2.932517 1.603245 -1.501142 -0.000002 -0.000009 -0.000024
 29   8.824059 0.150544 0.091743 0.044210 -0.015305 -0.043579
 30   2.142336 -0.561179 1.710099 -0.001161 0.083331 0.005578
 31   2.172073 -0.561289 -1.802816 0.000215 -0.110755 0.006203
 32   -0.810489 -0.093824 3.127092 0.306450 -2.959960 -0.282391
 33   14.298673 -0.408176 0.475484 0.008469 -0.089117 -0.440689
 34   15.835795 0.581398 0.242756 -0.300572 -0.209896 0.230167
 35   -0.815868 -0.091229 -3.114430 -0.036425 2.852969 0.082979
 36   14.294526 -0.410349 -0.463635 -0.005001 0.077001 -0.369316
 37   15.834409 0.579420 -0.284600 0.273760 0.212841 0.401548
 38   1.159217 -3.461562 -2.823813 0.004505 -0.003350 0.010326
 39   -4.465555 -0.910318 -0.714929 0.005789 0.012776 -0.051015
 40   1.098569 -3.441956 3.237290 -0.002126 -0.004048 0.016740
 41   -4.355712 -0.965377 0.990817 0.000610 0.001234 -0.005048
 42   -0.618404 1.697302 -2.536265 0.037548 0.058464 -0.005646
 43   -0.664068 1.679046 2.736560 -0.044042 -0.066310 0.011417
time 9
  0   -0.756603 -0.917997 1.473072 0.000000 0.000000 -1.571069
  1   -1.093036 0.000002 -0.326057 -1.569027 -1.622749 -0.001768
  2   2.262337 0.113614 0.064702 -0.000014 0.000037 0.034286
  3   2.380047 0.353302 0.047440 -0.000690 0.010758 -0.209259
  4   2.033756 0.190472 -0.000128 -0.160571 0.041131 -0.321137
  5   2.451511 0.204909 -0.003447 -0.120777 0.071030 -0.394130
  6   7.247600 -0.397300 -0.109469 0.012836 0.015829 0.680592
  7   -2.022252 -0.104661 3.136172 1.176088 -1.037652 -4.953665
  8   1.168026 -0.537438 -0.063437 -0.454309 0.779435 -0.973451
  9   6.790376 -0.619176 0.015206 -0.169926 -0.234143 -0.638381
 10   8.637599 0.544015 -0.090417 -3.900396 0.068148 -0.411398
 11   6.790465 -0.619039 0.017802 -0.134528 -0.165176 -0.463562
 12   -2.022474 -0.104699 -2.873818 -2.231679 1.770224 0.215155
 13   1.167898 -0.537463 0.063297 -1.093777 -0.963775 0.389027
 14   7.002743 -0.617765 -0.183752 0.000115 0.000194 -1.868831
 15   8.209042 0.615527 -0.255885 1.722237 0.382623 0.006127
 16   7.002735 -0.617911 -0.183641 0.012979 0.010300 -1.326880
 17   1.574674 0.609930 -0.000899 0.242502 -0.176973 -0.320090
 18   -0.602177 0.511412 -0.000006 0.000000 0.000000 0.000000
 19   3.646428 0.364526 1.119313 -0.000002 -0.000014 -0.174510
 20   3.646422 0.364499 -1.117566 0.000007 -0.000003 -0.174546
 21   3.805634 1.330634 1.627658 0.000002 -0.000011 -0.000026
 22   -0.246060 -0.011889 0.516521 -0.000011 0.000031 0.000025
 23   3.805651 1.330659 -1.631083 0.000019 0.000002 -0.000024
 24   -0.246150 -0.011872 -0.516511 -0.000005 -0.000006 0.000048
 25   4.941364 1.997338 1.629330 0.000018 -0.000001 -0.000024
 26   4.941382 1.997366 -1.629410 -0.000001 0.000005 -0.000024
 27   2.930087 1.603639 1.514501 -0.000019 -0.000022 -0.000050
 28   2.932517 1.603245 -1.501142 -0.000002 -0.000009 -0.000024
 29   8.824059 0.150544 0.091743 0.051963 -0.018628 -0.020242
 30   2.150149 -0.561179 1.698380 -0.001378 0.098326 0.006607
 31   2.183792 -0.561289 -1.791097 0.000245 -0.130491 0.007313
 32   -0.810489 -0.093824 3.127092 0.306077 -2.959387 -0.280626
 33   14.298673 -0.408176 0.475484 0.008170 -0.089155 -0.437037
 34   15.835795 0.581398 0.242756 -0.299882 -0.210945 0.226638
 35   -0.815868 -0.091229 -3.114430 -0.035897 2.852969 0.084897
 36   14.294526 -0.410349 -0.463635 -0.004701 0.077025 -0.365685
 37   15.834409 0.579420 -0.284600 0.273760 0.212841 0.401548
 38   1.167030 -3.461562 -2.823813 0.005304 -0.003965 0.012159
 39   -4.465555 -0.886880 -0.707116 0.006807 0.015065 -0.060130
 40   1.090756 -3.441956 3.237290 -0.002526 -0.004771 0.019734
 41   -4.343993 -0.953658 0.990817 0.000718 0.001450 -0.005974
 42   -0.614498 1.689489 -2.508921 0.044223 0.068921 -0.006650
 43   -0.664068 1.679046 2.713122 -0.051888 -0.078126 0.013466
time 10
  0   -0.756603 -0.917997 1.480885 0.000000 0.000000 -1.571069
  1   -1.093036 0.000002 -0.326057 -1.569027 -1.622749 -0.001768
  2   2.262337 0.113614 0.064702 -0.000014 0.000037 0.034286
  3   2.380047 0.353302 0.047440 -0.000645 0.010423 -0.210524
  4   2.033756 0.190472 -0.000128 -0.161069 0.041826 -0.315845
  5   2.451511 0.204909 -0.003447 -0.120982 0.073106 -0.381450
  6   7.247600 -0.397300 -0.109469 0.012836 0.015829 0.680592
  7   -2.022252 -0.104661 3.136172 1.176088 -1.037652 -4.953665
  8   1.168026 -0.537438 -0.063437 -0.444564 0.762026 -0.962507
  9   6.790376 -0.619176 0.015206 -0.169926 -0.234143 -0.655512
 10   8.637599 0.544015 -0.090417 -3.900925 0.068993 -0.401125
 11   6.790465 -0.619039 0.017802 -0.134878 -0.164920 -0.475443
 12   -2.022474 -0.104699 -2.873818 -2.221907 1.768715 0.225112
 13   1.167898 -0.537463 0.063297 -1.071635 -0.974048 0.367779
 14   7.002743 -0.617765 -0.183752 0.000115 0.000194 -1.868831
 15   8.209042 0.615527 -0.255885 1.722165 0.382850 0.005285
 16   7.002735 -0.617911 -0.183641 0.012979 0.010300 -1.326880
 17   1.574674 0.609930 -0.000899 0.244168 -0.179955 -0.327852
 18   -0.602177 0.511412 -0.000006 0.000000 0.000000 0.000000
 19   3.646428 0.364526 1.119313 -0.000002 -0.000014 -0.174510
 20   3.646422 0.364499 -1.117566 0.000007 -0.000003 -0.174546
 21   3.805634 1.330634 1.627658 0.000002 -0.000011 -0.000026
 22   -0.246060 -0.011889 0.516521 -0.000011 0.000031 0.000025
 23   3.805651 1.330659 -1.631083 0.000019 0.000002 -0.000024
 24   -0.246150 -0.011872 -0.516511 -0.000005 -0.000006 0.000048
 25   4.941364 1.997338 1.629330 0.000018 -0.000001 -0.000024
 26   4.941382 1.997366 -1.629410 -0.000001 0.000005 -0.000024
 27   2.930087 1.603639 1.514501 -0.000019 -0.000022 -0.000050
 28   2.932517 1.603245 -1.501142 -0.000002 -0.000009 -0.000024
 29   8.824059 0.150544 0.091743 0.059093 -0.021928 0.001754
 30   2.154055 -0.553366 1.682754 -0.001554 0.112507 0.007550
 31   2.191605 -0.561289 -1.783284 0.000276 -0.149166 0.008350
 32   -0.810489 -0.093824 3.127092 0.305891 -2.958910 -0.279431
 33   14.298673 -0.408176 0.475484 0.007930 -0.089181 -0.434496
 34   15.835795 0.581398 0.242756 -0.299307 -0.211775 0.223992
 35   -0.815868 -0.091229 -3.114430 -0.035721 2.852782 0.086321
 36   14.294526 -0.410349 -0.463635 -0.004510 0.077037 -0.363059
 37   15.834409 0.579420 -0.284600 0.273760 0.212841 0.401548
 38   1.170936 -3.465468 -2.823813 0.006062 -0.004519 0.013931
 39   -4.473368 -0.855629 -0.707116 0.007790 0.017222 -0.068740
 40   1.086850 -3.438050 3.237290 -0.002884 -0.005470 0.022544
 41   -4.332274 -0.934126 1.002536 0.000838 0.001678 -0.006815
 42   -0.606685 1.689489 -2.481576 0.050575 0.078764 -0.007611
 43   -0.664068 1.679046 2.689684 -0.059322 -0.089314 0.015390
time 11
  0   -0.756603 -0.917997 1.492604 0.000000 0.000000 -1.571069
  1   -1.093036 0.000002 -0.326057 -1.569027 -1.622749 -0.001768
  2   2.262337 0.113614 0.064702 -0.000014 0.000037 0.034286
  3   2.380047 0.353302 0.047440 -0.000600 0.009536 -0.213544
  4   2.033756 0.190472 -0.000128 -0.161973 0.043205 -0.305696
  5   2.451511 0.204909 -0.003447 -0.121273 0.076109 -0.361934
  6   7.247600 -0.397300 -0.109469 0.012836 0.015829 0.680592
  7   -2.022252 -0.104661 3.136172 1.176088 -1.037652 -4.953665
  8   1.168026 -0.537438 -0.063437 -0.429250 0.733800 -0.944604
  9   6.790376 -0.619176 0.015206 -0.169926 -0.234143 -0.682303
 10   8.637599 0.544015 -0.090417 -3.902598 0.070682 -0.384703
 11   6.790465 -0.619039 0.017802 -0.135550 -0.164522 -0.494072
 12   -2.022474 -0.104699 -2.873818 -2.218074 1.768193 0.229133
 13   1.167898 -0.537463 0.063297 -1.032551 -0.988541 0.330187
 14   7.002743 -0.617765 -0.183752 0.000115 0.000194 -1.868831
 15   8.209042 0.615527 -0.255885 1.721949 0.382925 0.005165
 16   7.002735 -0.617911 -0.183641 0.012979 0.010300 -1.326880
 17   1.574674 0.609930 -0.000899 0.247133 -0.182511 -0.345889
 18   -0.602177 0.511412 -0.000006 0.000000 0.000000 0.000000
 19   3.646428 0.364526 1.119313 -0.000002 -0.000014 -0.174510
 20   3.646422 0.364499 -1.117566 0.000007 -0.000003 -0.174546
 21   3.805634 1.330634 1.627658 0.000002 -0.000011 -0.000026
 22   -0.246060 -0.011889 0.516521 -0.000011 0.000031 0.000025
 23   3.805651 1.330659 -1.631083 0.000019 0.000002 -0.000024
 24   -0.246150 -0.011872 -0.516511 -0.000005 -0.000006 0.000048
 25   4.941364 1.997338 1.629330 0.000018 -0.000001 -0.000024
 26   4.941382 1.997366 -1.629410 -0.000001 0.000005 -0.000024
 27   2.930087 1.603639 1.514501 -0.000019 -0.000022 -0.000050
 28   2.932517 1.603245 -1.501142 -0.000002 -0.000009 -0.000024
 29   8.824059 0.150544 0.091743 0.065599 -0.024990 0.021550
 30   2.161868 -0.553366 1.671035 -0.001744 0.125323 0.008387
 31   2.195511 -0.561289 -1.771565 0.000322 -0.166080 0.009296
 32   -0.810489 -0.093824 3.127092 0.305611 -2.958719 -0.278520
 33   14.298673 -0.408176 0.475484 0.007762 -0.089207 -0.432908
 34   15.835795 0.581398 0.242756 -0.299031 -0.212263 0.222537
 35   -0.815868 -0.091229 -3.114430 -0.035369 2.852782 0.087197
 36   14.294526 -0.410349 -0.463635 -0.004402 0.077049 -0.361437
 37   15.834409 0.579420 -0.284600 0.273760 0.212841 0.401548
 38   1.178749 -3.465468 -2.823813 0.006778 -0.005037 0.015519
 39   -4.473368 -0.836097 -0.695397 0.008677 0.019151 -0.076509
 40   1.079037 -3.438050 3.237290 -0.003221 -0.006097 0.025110
 41   -4.316648 -0.922407 1.002536 0.000934 0.001870 -0.007628
 42   -0.594966 1.689489 -2.458138 0.056304 0.087703 -0.008490
 43   -0.664068 1.671233 2.670152 -0.066044 -0.099435 0.017147
time 12
  0   -0.756603 -0.917997 1.492604 0.000000 0.000000 -1.571069
  1   -1.093036 0.000002 -0.326057 -1.569027 -1.622749 -0.001768
  2   2.262337 0.113614 0.064702 -0.000014 0.000037 0.034286
  3   2.380047 0.353302 0.047440 -0.000435 0.006695 -0.222788
  4   2.033756 0.190472 -0.000128 -0.163356 0.045218 -0.290690
  5   2.451511 0.204909 -0.003447 -0.121581 0.079686 -0.338903
  6   7.247600 -0.397300 -0.109469 0.012836 0.015829 0.680592
  7   -2.022252 -0.104661 3.136172 1.176088 -1.037652 -4.953665
  8   1.168026 -0.537438 -0.063437 -0.412797 0.703058 -0.924045
  9   6.790376 -0.619176 0.015206 -0.169926 -0.234143 -0.712641
 10   8.637599 0.544015 -0.090417 -3.904183 0.072794 -0.366183
 11   6.790465 -0.619039 0.017802 -0.136192 -0.164039 -0.515181
 12   -2.022474 -0.104699 -2.873818 -2.220374 1.768599 0.226644
 13   1.167898 -0.537463 0.063297 -0.987774 -1.002627 0.286239
 14   7.002743 -0.617765 -0.183752 0.000115 0.000194 -1.868831
 15   8.209042 0.615527 -0.255885 1.722021 0.382850 0.005285
 16   7.002735 -0.617911 -0.183641 0.012979 0.010300 -1.326880
 17   1.574674 0.609930 -0.000899 0.250870 -0.184712 -0.365774
 18   -0.602177 0.511412 -0.000006 0.000000 0.000000 0.000000
 19   3.646428 0.364526 1.119313 -0.000002 -0.000014 -0.174510
 20   3.646422 0.364499 -1.117566 0.000007 -0.000003 -0.174546
 21   3.805634 1.330634 1.627658 0.000002 -0.000011 -0.000026
 22   -0.246060 -0.011889 0.516521 -0.000011 0.000031 0.000025
 23   3.805651 1.330659 -1.631083 0.000019 0.000002 -0.000024
 24   -0.246150 -0.011872 -0.516511 -0.000005 -0.000006 0.000048
 25   4.941364 1.997338 1.629330 0.000018 -0.000001 -0.000024
 26   4.941382 1.997366 -1.629410 -0.000001 0.000005 -0.000024
 27   2.930087 1.603639 1.514501 -0.000019 -0.000022 -0.000050
 28   2.932517 1.603245 -1.501142 -0.000002 -0.000009 -0.000024
 29   8.824059 0.150544 0.091743 0.070946 -0.027743 0.038503
 30   2.165774 -0.553366 1.659316 -0.001893 0.136221 0.009116
 31   2.207230 -0.561289 -1.763752 0.000337 -0.180429 0.010078
 32   -0.810489 -0.093824 3.127092 0.305611 -2.958623 -0.278236
 33   14.298673 -0.408176 0.475484 0.007714 -0.089207 -0.432273
 34   15.835795 0.581398 0.242756 -0.298916 -0.212385 0.221919
 35   -0.815868 -0.091229 -3.114430 -0.035281 2.852782 0.087471
 36   14.294526 -0.410349 -0.463635 -0.004354 0.077049 -0.360896
 37   15.834409 0.579420 -0.284600 0.273760 0.212841 0.401548
 38   1.178749 -3.465468 -2.823813 0.007346 -0.005471 0.016802
 39   -4.473368 -0.820472 -0.695397 0.009432 0.020817 -0.083156
 40   1.079037 -3.438050 3.237290 -0.003473 -0.006627 0.027248
 41   -4.308836 -0.910688 1.010349 0.001018 0.002013 -0.008273
 42   -0.594966 1.689489 -2.438606 0.061157 0.095277 -0.009201
 43   -0.664068 1.667327 2.650620 -0.071766 -0.108033 0.018610
time 13
  0   -0.756603 -0.917997 1.484791 0.000000 0.000000 -1.571069
  1   -1.093036 0.000002 -0.326057 -1.569027 -1.622749 -0.001768
  2   2.262337 0.113614 0.064702 -0.000014 0.000037 0.034286
  3   2.380047 0.353302 0.047440 -0.000135 0.002645 -0.236480
  4   2.033756 0.190472 -0.000128 -0.164739 0.047399 -0.274089
  5   2.451511 0.204909 -0.003447 -0.121821 0.083250 -0.315474
  6   7.247600 -0.397300 -0.109469 0.009984 0.012844 0.638557
  7   -2.022252 -0.104661 3.136172 1.183565 -1.039065 -4.918447
  8   1.168026 -0.537438 -0.063437 -0.398369 0.675033 -0.904244
  9   6.790376 -0.619176 0.015206 -0.169926 -0.234143 -0.740790
 10   8.637599 0.544015 -0.090417 -3.905680 0.074765 -0.349182
 11   6.790465 -0.619039 0.017802 -0.136893 -0.163641 -0.534732
 12   -2.022474 -0.104699 -2.873818 -2.244709 1.772691 -6.038175
 13   1.167898 -0.537463 0.063297 -0.944121 -1.013561 0.242896
 14   7.002743 -0.617765 -0.183752 0.000115 0.000194 -1.868831
 15   8.209042 0.615527 -0.255885 1.722237 0.382623 0.006007
 16   7.002735 -0.617911 -0.183641 0.012979 0.010300 -1.326880
 17   1.574674 0.609930 -0.000899 0.255460 -0.179529 -0.350435
 18   -0.602177 0.511412 -0.000006 0.000000 0.000000 0.000000
 19   3.646428 0.364526 1.119313 -0.000002 -0.000014 -0.174510
 20   3.646422 0.364499 -1.117566 0.000007 -0.000003 -0.174546
 21   3.805634 1.330634 1.627658 0.000002 -0.000011 -0.000026
 22   -0.246060 -0.011889 0.516521 -0.000011 0.000031 0.000025
 23   3.805651 1.330659 -1.631083 0.000019 0.000002 -0.000024
 24   -0.246150 -0.011872 -0.516511 -0.000005 -0.000006 0.000048
 25   4.941364 1.997338 1.629330 0.000018 -0.000001 -0.000024
 26   4.941382 1.997366 -1.629410 -0.000001 0.000005 -0.000024
 27   2.930087 1.603639 1.514501 -0.000019 -0.000022 -0.000050
 28   2.932517 1.603245 -1.501142 -0.000002 -0.000009 -0.000024
 29   8.824059 0.150544 0.091743 0.075135 -0.029951 0.051593
 30   2.169681 -0.553366 1.651503 -0.002015 0.144677 0.009652
 31   2.215043 -0.561289 -1.759846 0.000368 -0.191619 0.010715
 32   -0.810489 -0.093824 3.127092 0.305704 -2.958814 -0.278919
 33   14.298673 -0.408176 0.475484 0.007822 -0.089181 -0.433464
 34   15.835795 0.581398 0.242756 -0.299169 -0.212068 0.223110
 35   -0.815868 -0.091229 -3.114430 -0.035369 2.852782 0.086814
 36   14.294526 -0.410349 -0.463635 -0.004438 0.077037 -0.362055
 37   15.834409 0.579420 -0.284600 0.273760 0.212841 0.401548
 38   1.178749 -3.473281 -2.823813 0.007788 -0.005808 0.017902
 39   -4.473368 -0.800940 -0.687584 0.009995 0.022112 -0.088288
 40   1.079037 -3.430237 3.237290 -0.003726 -0.007037 0.028959
 41   -4.301023 -0.902875 1.010349 0.001078 0.002145 -0.008778
 42   -0.587153 1.689489 -2.426887 0.064944 0.101180 -0.009744
 43   -0.664068 1.667327 2.638901 -0.076214 -0.114734 0.019781
time 14
  0   -0.756603 -0.917997 1.473072 0.000000 0.000000 -1.571069
  1   -1.093036 0.000002 -0.326057 -1.569027 -1.622749 -0.001768
  2   2.262337 0.113614 0.064702 -0.000014 0.000037 0.034286
  3   2.380047 0.353302 0.047440 0.000000 -0.000028 -0.245397
  4   2.033756 0.190472 -0.000128 -0.165975 0.049437 -0.259010
  5   2.451511 0.204909 -0.003447 -0.121872 0.086397 -0.294993
  6   7.247600 -0.397300 -0.109469 0.007348 0.009788 0.596714
  7   -2.022252 -0.104661 3.136172 1.191138 -1.040593 -4.882948
  8   1.168026 -0.537438 -0.063437 -0.386726 0.645599 -0.887227
  9   6.790376 -0.619176 0.015206 -0.169926 -0.234143 -0.766147
 10   8.637599 0.544015 -0.090417 -3.907618 0.077088 -0.334062
 11   6.790465 -0.619039 0.017802 -0.137506 -0.163243 -0.552439
 12   -2.022474 -0.104699 -2.873818 -2.275175 1.778148 -6.027069
 13   1.167898 -0.537463 0.063297 -0.896110 -1.022104 0.195134
 14   7.002743 -0.617765 -0.183752 0.000115 0.000194 -1.868501
 15   8.209042 0.615527 -0.255885 1.722668 0.382018 0.007330
 16   7.002735 -0.617911 -0.183641 0.012979 0.010300 -1.326604
 17   1.574674 0.609930 -0.000899 0.259725 -0.174417 -0.335540
 18   -0.602177 0.511412 -0.000006 0.000000 0.000000 0.000000
 19   3.654241 0.270773 1.119313 -0.000002 -0.000014 -0.174510
 20   3.654235 0.270746 -1.117566 0.000007 -0.000003 -0.174546
 21   3.352495 1.260319 1.576875 0.000002 -0.000011 -0.000026
 22   -0.238247 -0.379088 0.496989 0.000083 -0.028708 0.445010
 23   3.364231 1.256438 -1.623270 0.000019 0.000002 -0.000024
 24   -0.164116 -0.285318 -0.528230 0.000091 -0.028733 0.445062
 25   4.535101 1.997338 1.637143 -0.032209 0.220343 0.007203
 26   4.531213 1.997366 -1.621597 0.035749 -0.204340 -0.020853
 27   3.117593 1.466916 1.506688 -0.000019 -0.000022 -0.000050
 28   3.120023 1.466522 -1.508955 -0.000002 -0.000009 -0.000024
 29   8.824059 0.150544 0.091743 0.077808 -0.031375 0.060015
 30   2.173587 -0.553366 1.647597 -0.002083 0.150169 0.010038
 31   2.215043 -0.561289 -1.759846 0.000383 -0.198819 0.011134
 32   -0.810489 -0.093824 3.127092 0.306077 -2.959387 -0.280626
 33   14.298673 -0.408176 0.475484 0.008170 -0.089155 -0.437037
 34   15.835795 0.581398 0.242756 -0.299882 -0.210945 0.226638
 35   -0.815868 -0.091229 -3.114430 -0.035897 2.852969 0.084897
 36   14.294526 -0.410349 -0.463635 -0.004701 0.077025 -0.365685
 37   15.834409 0.579420 -0.284600 0.273760 0.212841 0.401548
 38   1.178749 -3.473281 -2.823813 0.008104 -0.006037 0.018574
 39   -4.473368 -0.793127 -0.687584 0.010391 0.022939 -0.091625
 40   1.079037 -3.430237 3.237290 -0.003852 -0.007302 0.030059
 41   -4.297117 -0.891156 1.018162 0.001126 0.002229 -0.009115
 42   -0.583247 1.689489 -2.415168 0.067389 0.104998 -0.010163
 43   -0.664068 1.667327 2.627182 -0.079063 -0.119049 0.020534
time 15
  0   -0.756603 -0.917997 1.434009 0.000000 0.000000 -1.571069
  1   -1.093036 0.000002 -0.326057 -1.569027 -1.622749 -0.001768
  2   2.262337 0.113614 0.064702 -0.000014 0.000037 0.034286
  3   2.380047 0.353302 0.047440 0.000000 -0.000663 -0.247846
  4   2.033756 0.190472 -0.000128 -0.166860 0.050851 -0.248861
  5   2.451511 0.204909 -0.003447 -0.122009 0.088551 -0.280530
  6   7.247600 -0.397300 -0.109469 0.004759 0.006601 0.554775
  7   -2.022252 -0.104661 3.136172 1.198519 -1.042380 -4.847355
  8   1.168026 -0.537438 -0.063437 -0.378942 0.619888 -0.874069
  9   6.790376 -0.619176 0.015206 -0.169926 -0.234143 -0.783052
 10   8.637599 0.544015 -0.090417 -3.909027 0.079622 -0.324223
 11   6.790465 -0.619039 0.017802 -0.137827 -0.162987 -0.564320
 12   -2.022474 -0.104699 -2.873818 -2.322217 1.787174 -6.032718
 13   1.167898 -0.537463 0.063297 -0.849224 -1.024138 0.148825
 14   7.002743 -0.617765 -0.183752 0.000115 0.000194 -1.868171
 15   8.209042 0.615527 -0.255885 1.723459 0.380883 0.010036
 16   7.002735 -0.617911 -0.183641 0.012979 0.010300 -1.326494
 17   1.574674 0.609930 -0.000899 0.262934 -0.169660 -0.316173
 18   -0.602177 0.511412 -0.000006 0.000000 0.000000 0.000000
 19   3.673773 0.177020 1.119313 -0.000002 -0.000014 -0.174510
 20   3.677673 0.176993 -1.117566 0.000007 -0.000003 -0.174546
 21   2.899356 1.193911 1.522186 0.000002 -0.000011 -0.000026
 22   -0.226528 -0.754099 0.477457 0.000194 -0.057459 0.890061
 23   2.918905 1.182217 -1.611551 0.000019 0.000002 -0.000024
 24   -0.078176 -0.558764 -0.547762 0.000187 -0.057484 0.890104
 25   4.117120 1.989525 1.648862 -0.064411 0.440688 0.014417
 26   4.117138 1.989553 -1.609878 0.071523 -0.408734 -0.041694
 27   3.305099 1.322380 1.487156 -0.000019 -0.000022 -0.000050
 28   3.303622 1.321986 -1.528487 -0.000002 -0.000009 -0.000024
 29   8.824059 0.150544 0.091743 0.078789 -0.031898 0.063020
 30   2.173587 -0.553366 1.647597 -0.002110 0.152116 0.010166
 31   2.215043 -0.561289 -1.752033 0.000383 -0.201410 0.011261
 32   -0.810489 -0.093824 3.127092 0.306450 -2.960247 -0.283416
 33   14.298673 -0.408176 0.475484 0.008673 -0.089104 -0.442833
 34   15.835795 0.581398 0.242756 -0.301009 -0.209286 0.232151
 35   -0.815868 -0.091229 -3.114430 -0.036777 2.852969 0.081939
 36   14.294526 -0.410349 -0.463635 -0.005169 0.076989 -0.371401
 37   15.834409 0.579420 -0.284600 0.273760 0.212841 0.401548
 38   1.182655 -3.473281 -2.823813 0.008188 -0.006122 0.018757
 39   -4.473368 -0.793127 -0.683678 0.010510 0.023238 -0.092803
 40   1.075131 -3.430237 3.237290 -0.003894 -0.007374 0.030364
 41   -4.297117 -0.891156 1.018162 0.001138 0.002253 -0.009199
 42   -0.583247 1.689489 -2.415168 0.068264 0.106347 -0.010288
 43   -0.664068 1.667327 2.627182 -0.080100 -0.120587 0.020785
time 16
  0   -0.756603 -0.917997 1.398851 0.000000 0.000000 -1.571069
  1   -1.093036 0.000002 -0.326057 -1.569027 -1.622749 -0.001768
  2   2.262337 0.113614 0.064702 -0.000014 0.000037 0.034286
  3   2.380047 0.353302 0.047440 0.000000 -0.000927 -0.248560
  4   2.033756 0.190472 -0.000128 -0.167192 0.051438 -0.244584
  5   2.451511 0.204909 -0.003447 -0.122009 0.089635 -0.273968
  6   7.247600 -0.397300 -0.109469 0.002218 0.003329 0.512804
  7   -2.022252 -0.104661 3.136172 1.205420 -1.044138 -4.811949
  8   1.168026 -0.537438 -0.063437 -0.375209 0.606756 -0.866351
  9   6.790376 -0.619176 0.015206 -0.169926 -0.234143 -0.788259
 10   8.637599 0.544015 -0.090417 -3.909907 0.081311 -0.322270
 11   6.790465 -0.619039 0.017802 -0.137973 -0.162959 -0.567896
 12   -2.022474 -0.104699 -2.873818 -2.382767 1.800467 0.231048
 13   1.167898 -0.537463 0.063297 -0.819068 -1.017019 0.118497
 14   7.002743 -0.617765 -0.183752 0.000115 0.000194 -1.867841
 15   8.209042 0.615527 -0.255885 1.724969 0.379067 0.014546
 16   7.002735 -0.617911 -0.183641 0.012979 0.010300 -1.326218
 17   1.574674 0.609930 -0.000899 0.265006 -0.165400 -0.284940
 18   -0.602177 0.511412 -0.000006 0.000000 0.000000 0.000000
 19   3.654241 0.270773 1.119313 -0.000002 -0.000014 -0.174510
 20   3.658141 0.270746 -1.117566 0.000007 -0.000003 -0.174546
 21   3.352495 1.260319 1.576875 0.000002 -0.000011 -0.000026
 22   -0.238247 -0.379088 0.496989 0.000083 -0.028708 0.445010
 23   3.364231 1.256438 -1.623270 0.000019 0.000002 -0.000024
 24   -0.164116 -0.285318 -0.528230 0.000091 -0.028733 0.445062
 25   4.535101 1.997338 1.637143 -0.032209 0.220343 0.007203
 26   4.531213 1.997366 -1.621597 0.035749 -0.204340 -0.020853
 27   3.117593 1.466916 1.506688 -0.000019 -0.000022 -0.000050
 28   3.120023 1.466522 -1.508955 -0.000002 -0.000009 -0.000024
 29   8.824059 0.150544 0.091743 0.077808 -0.031375 0.060015
 30   2.173587 -0.553366 1.647597 -0.002083 0.150169 0.010038
 31   2.215043 -0.561289 -1.759846 0.000383 -0.198819 0.011134
 32   -0.810489 -0.093824 3.127092 0.307102 -2.961298 -0.286774
 33   14.298673 -0.408176 0.475484 0.009272 -0.089052 -0.449820
 34   15.835795 0.581398 0.242756 -0.302412 -0.207187 0.238987
 35   -0.815868 -0.091229 -3.114430 -0.037833 2.853063 0.078378
 36   14.294526 -0.410349 -0.463635 -0.005684 0.076953 -0.378353
 37   15.834409 0.579420 -0.284600 0.273760 0.212841 0.401548
 38   1.178749 -3.473281 -2.823813 0.008104 -0.006037 0.018574
 39   -4.473368 -0.793127 -0.687584 0.010391 0.022939 -0.091625
 40   1.079037 -3.430237 3.237290 -0.003852 -0.007302 0.030059
 41   -4.297117 -0.891156 1.018162 0.001126 0.002229 -0.009115
 42   -0.583247 1.689489 -2.415168 0.067389 0.104998 -0.010163
 43   -0.664068 1.667327 2.627182 -0.079063 -0.119049 0.020534
time 17
  0   -0.756603 -0.917997 1.355881 0.000000 0.000000 -1.571069
  1   -1.093036 0.000002 -0.326057 -1.569027 -1.622749 -0.001768
  2   2.262337 0.113614 0.064702 -0.000014 0.000037 0.034286
  3   2.380047 0.353302 0.047440 0.000000 -0.000747 -0.248050
  4   2.033756 0.190472 -0.000128 -0.167229 0.051510 -0.244076
  5   2.451511 0.204909 -0.003447 -0.122009 0.089752 -0.273051
  6   7.247600 -0.397300 -0.109469 0.000001 -0.000003 0.470960
  7   -2.022252 -0.104661 3.136172 1.212801 -1.046098 -4.775887
  8   1.168026 -0.537438 -0.063437 -0.373437 0.602681 -0.861733
  9   6.790376 -0.619176 0.015206 -0.169926 -0.234143 -0.786297
 10   8.637599 0.544015 -0.090417 -3.909907 0.082719 -0.324657
 11   6.790465 -0.619039 0.017802 -0.137944 -0.162959 -0.566627
 12   -2.022474 -0.104699 -2.873818 -2.438431 1.815095 0.215921
 13   1.167898 -0.537463 0.063297 -0.803744 -1.006441 0.102637
 14   7.002743 -0.617765 -0.183752 0.000115 0.000194 -1.867181
 15   8.209042 0.615527 -0.255885 1.726407 0.377024 0.019297
 16   7.002735 -0.617911 -0.183641 0.012979 0.010300 -1.325721
 17   1.574674 0.609930 -0.000899 0.266468 -0.161424 -0.245133
 18   -0.602177 0.511412 -0.000006 0.000000 0.000000 0.000000
 19   3.646428 0.364526 1.119313 -0.000002 -0.000014 -0.174510
 20   3.646422 0.364499 -1.117566 0.000007 -0.000003 -0.174546
 21   3.805634 1.330634 1.627658 0.000002 -0.000011 -0.000026
 22   -0.246060 -0.011889 0.516521 -0.000011 0.000031 0.000025
 23   3.805651 1.330659 -1.631083 0.000019 0.000002 -0.000024
 24   -0.246150 -0.011872 -0.516511 -0.000005 -0.000006 0.000048
 25   4.941364 1.997338 1.629330 0.000018 -0.000001 -0.000024
 26   4.941382 1.997366 -1.629410 -0.000001 0.000005 -0.000024
 27   2.930087 1.603639 1.514501 -0.000019 -0.000022 -0.000050
 28   2.932517 1.603245 -1.501142 -0.000002 -0.000009 -0.000024
 29   8.824059 0.150544 0.091743 0.075135 -0.029951 0.051593
 30   2.169681 -0.553366 1.651503 -0.002015 0.144677 0.009652
 31   2.215043 -0.561289 -1.759846 0.000368 -0.191619 0.010715
 32   -0.810489 -0.093824 3.127092 0.307662 -2.962348 -0.290075
 33   14.298673 -0.408176 0.475484 0.009895 -0.088987 -0.456807
 34   15.835795 0.581398 0.242756 -0.303792 -0.205113 0.245735
 35   -0.815868 -0.091229 -3.114430 -0.038978 2.853344 0.074653
 36   14.294526 -0.410349 -0.463635 -0.006211 0.076917 -0.385305
 37   15.834409 0.579420 -0.284600 0.273760 0.212841 0.401548
 38   1.178749 -3.473281 -2.823813 0.007788 -0.005808 0.017902
 39   -4.473368 -0.800940 -0.687584 0.009995 0.022112 -0.088288
 40   1.079037 -3.430237 3.237290 -0.003726 -0.007037 0.028959
 41   -4.301023 -0.902875 1.010349 0.001078 0.002145 -0.008778
 42   -0.587153 1.689489 -2.426887 0.064944 0.101180 -0.009744
 43   -0.664068 1.667327 2.638901 -0.076214 -0.114734 0.019781
time 18
  0   -0.756603 -0.917997 1.328537 0.000000 0.000000 -1.571069
  1   -1.093036 0.000002 -0.326057 -1.569027 -1.622749 -0.001768
  2   2.262337 0.113614 0.064702 -0.000014 0.000037 0.034286
  3   2.380047 0.353302 0.047440 0.000000 -0.000436 -0.246989
  4   2.033756 0.190472 -0.000128 -0.167155 0.051234 -0.245635
  5   2.451511 0.204909 -0.003447 -0.122009 0.089334 -0.275553
  6   7.247600 -0.397300 -0.109469 0.000001 -0.000003 0.470960
  7   -2.022252 -0.104661 3.136172 1.212801 -1.046098 -4.775887
  8   1.168026 -0.537438 -0.063437 -0.373437 0.604593 -0.860531
  9   6.790376 -0.619176 0.015206 -0.169926 -0.234143 -0.781316
 10   8.637599 0.544015 -0.090417 -3.909907 0.083493 -0.328998
 11   6.790465 -0.619039 0.017802 -0.137798 -0.162987 -0.563109
 12   -2.022474 -0.104699 -2.873818 -2.468706 1.824383 0.184805
 13   1.167898 -0.537463 0.063297 -0.799737 -0.996728 0.098339
 14   7.002743 -0.617765 -0.183752 0.000115 0.000194 -1.866851
 15   8.209042 0.615527 -0.255885 1.727486 0.375284 0.023026
 16   7.002735 -0.617911 -0.183641 0.012979 0.010300 -1.325445
 17   1.574674 0.609930 -0.000899 0.266265 -0.161566 -0.242214
 18   -0.602177 0.511412 -0.000006 0.000000 0.000000 0.000000
 19   3.646428 0.364526 1.119313 -0.000002 -0.000014 -0.174510
 20   3.646422 0.364499 -1.117566 0.000007 -0.000003 -0.174546
 21   3.805634 1.330634 1.627658 0.000002 -0.000011 -0.000026
 22   -0.246060 -0.011889 0.516521 -0.000011 0.000031 0.000025
 23   3.805651 1.330659 -1.631083 0.000019 0.000002 -0.000024
 24   -0.246150 -0.011872 -0.516511 -0.000005 -0.000006 0.000048
 25   4.941364 1.997338 1.629330 0.000018 -0.000001 -0.000024
 26   4.941382 1.997366 -1.629410 -0.000001 0.000005 -0.000024
 27   2.930087 1.603639 1.514501 -0.000019 -0.000022 -0.000050
 28   2.932517 1.603245 -1.501142 -0.000002 -0.000009 -0.000024
 29   8.824059 0.150544 0.091743 0.070946 -0.027743 0.038503
 30   2.165774 -0.553366 1.659316 -0.001893 0.136221 0.009116
 31   2.207230 -0.561289 -1.763752 0.000337 -0.180429 0.010078
 32   -0.810489 -0.093824 3.127092 0.308314 -2.963207 -0.292808
 33   14.298673 -0.408176 0.475484 0.010423 -0.088910 -0.462603
 34   15.835795 0.581398 0.242756 -0.304919 -0.203429 0.251292
 35   -0.815868 -0.091229 -3.114430 -0.039858 2.853344 0.071750
 36   14.294526 -0.410349 -0.463635 -0.006679 0.076869 -0.391021
 37   15.834409 0.579420 -0.284600 0.273760 0.212841 0.401548
 38   1.178749 -3.465468 -2.823813 0.007346 -0.005471 0.016802
 39   -4.473368 -0.820472 -0.695397 0.009432 0.020817 -0.083156
 40   1.079037 -3.438050 3.237290 -0.003473 -0.006627 0.027248
 41   -4.308836 -0.910688 1.010349 0.001018 0.002013 -0.008273
 42   -0.594966 1.689489 -2.438606 0.061157 0.095277 -0.009201
 43   -0.664068 1.667327 2.650620 -0.071766 -0.108033 0.018610
time 19
  0   -0.756603 -0.917997 1.305098 0.000000 0.000000 -1.571069
  1   -1.093036 0.000002 -0.326057 -1.569027 -1.622749 -0.001768
  2   2.262337 0.113614 0.064702 -0.000014 0.000037 0.034286
  3   2.380047 0.353302 0.047440 0.000000 -0.000136 -0.245887
  4   2.033756 0.190472 -0.000128 -0.166934 0.050971 -0.247846
  5   2.451511 0.204909 -0.003447 -0.122009 0.088851 -0.278846
  6   7.247600 -0.397300 -0.109469 0.000001 -0.000003 0.470960
  7   -2.022252 -0.104661 3.136172 1.212801 -1.046098 -4.775887
  8   1.168026 -0.537438 -0.063437 -0.374449 0.609071 -0.861986
  9   6.790376 -0.619176 0.015206 -0.169926 -0.234143 -0.776939
 10   8.637599 0.544015 -0.090417 -3.909907 0.083282 -0.331747
 11   6.790465 -0.619039 0.017802 -0.137681 -0.163101 -0.560052
 12   -2.022474 -0.104699 -2.873818 -2.473975 1.826095 0.179539
 13   1.167898 -0.537463 0.063297 -0.805431 -0.993880 0.103787
 14   7.002743 -0.617765 -0.183752 0.000115 0.000194 -1.866851
 15   8.209042 0.615527 -0.255885 1.727630 0.375057 0.023627
 16   7.002735 -0.617911 -0.183641 0.012979 0.010300 -1.325445
 17   1.574674 0.609930 -0.000899 0.265737 -0.161779 -0.237741
 18   -0.602177 0.511412 -0.000006 0.000000 0.000000 0.000000
 19   3.646428 0.364526 1.119313 -0.000002 -0.000014 -0.174510
 20   3.646422 0.364499 -1.117566 0.000007 -0.000003 -0.174546
 21   3.805634 1.330634 1.627658 0.000002 -0.000011 -0.000026
 22   -0.246060 -0.011889 0.516521 -0.000011 0.000031 0.000025
 23   3.805651 1.330659 -1.631083 0.000019 0.000002 -0.000024
 24   -0.246150 -0.011872 -0.516511 -0.000005 -0.000006 0.000048
 25   4.941364 1.997338 1.629330 0.000018 -0.000001 -0.000024
 26   4.941382 1.997366 -1.629410 -0.000001 0.000005 -0.000024
 27   2.930087 1.603639 1.514501 -0.000019 -0.000022 -0.000050
 28   2.932517 1.603245 -1.501142 -0.000002 -0.000009 -0.000024
 29   8.824059 0.150544 0.091743 0.065599 -0.024990 0.021550
 30   2.161868 -0.553366 1.671035 -0.001744 0.125323 0.008387
 31   2.195511 -0.561289 -1.771565 0.000322 -0.166080 0.009296
 32   -0.810489 -0.093824 3.127092 0.308594 -2.963781 -0.294572
 33   14.298673 -0.408176 0.475484 0.010722 -0.088884 -0.466176
 34   15.835795 0.581398 0.242756 -0.305678 -0.202355 0.254864
 35   -0.815868 -0.091229 -3.114430 -0.040298 2.853344 0.069943
 36   14.294526 -0.410349 -0.463635 -0.006930 0.076845 -0.394652
 37   15.834409 0.579420 -0.284600 0.273760 0.212841 0.401548
 38   1.178749 -3.465468 -2.823813 0.006778 -0.005037 0.015519
 39   -4.473368 -0.836097 -0.695397 0.008677 0.019151 -0.076509
 40   1.079037 -3.438050 3.237290 -0.003221 -0.006097 0.025110
 41   -4.316648 -0.922407 1.002536 0.000934 0.001870 -0.007628
 42   -0.594966 1.689489 -2.458138 0.056304 0.087703 -0.008490
 43   -0.664068 1.671233 2.670152 -0.066044 -0.099435 0.017147
time 20
  0   -0.756603 -0.917997 1.297286 0.000000 0.000000 -1.571069
  1   -1.093036 0.000002 -0.326057 -1.569027 -1.622749 -0.001768
  2   2.262337 0.113614 0.064702 -0.000014 0.000037 0.034286
  3   2.380047 0.353302 0.047440 0.000000 -0.000028 -0.245397
  4   2.033756 0.190472 -0.000128 -0.166860 0.050851 -0.248861
  5   2.451511 0.204909 -0.003447 -0.122009 0.088551 -0.280530
  6   7.247600 -0.397300 -0.109469 0.000001 -0.000003 0.470960
  7   -2.022252 -0.104661 3.136172 1.212801 -1.046098 -4.775887
  8   1.168026 -0.537438 -0.063437 -0.375209 0.611939 -0.863884
  9   6.790376 -0.619176 0.015206 -0.169926 -0.234143 -0.775354
 10   8.637599 0.544015 -0.090417 -3.909731 0.083071 -0.332760
 11   6.790465 -0.619039 0.017802 -0.137652 -0.163101 -0.558841
 12   -2.022474 -0.104699 -2.873818 -2.468706 1.824383 0.184805
 13   1.167898 -0.537463 0.063297 -0.810843 -0.994796 0.109235
 14   7.002743 -0.617765 -0.183752 0.000115 0.000194 -1.866851
 15   8.209042 0.615527 -0.255885 1.727486 0.375284 0.023026
 16   7.002735 -0.617911 -0.183641 0.012979 0.010300 -1.325445
 17   1.574674 0.609930 -0.000899 0.265493 -0.161779 -0.235524
 18   -0.602177 0.511412 -0.000006 0.000000 0.000000 0.000000
 19   3.646428 0.364526 1.119313 -0.000002 -0.000014 -0.174510
 20   3.646422 0.364499 -1.117566 0.000007 -0.000003 -0.174546
 21   3.805634 1.330634 1.627658 0.000002 -0.000011 -0.000026
 22   -0.246060 -0.011889 0.516521 -0.000011 0.000031 0.000025
 23   3.805651 1.330659 -1.631083 0.000019 0.000002 -0.000024
 24   -0.246150 -0.011872 -0.516511 -0.000005 -0.000006 0.000048
 25   4.941364 1.997338 1.629330 0.000018 -0.000001 -0.000024
 26   4.941382 1.997366 -1.629410 -0.000001 0.000005 -0.000024
 27   2.930087 1.603639 1.514501 -0.000019 -0.000022 -0.000050
 28   2.932517 1.603245 -1.501142 -0.000002 -0.000009 -0.000024
 29   8.824059 0.150544 0.091743 0.059093 -0.021928 0.001754
 30   2.154055 -0.553366 1.682754 -0.001554 0.112507 0.007529
 31   2.191605 -0.561289 -1.783284 0.000276 -0.149166 0.008350
 32   -0.810489 -0.093824 3.127092 0.308687 -2.963972 -0.295141
 33   14.298673 -0.408176 0.475484 0.010830 -0.088871 -0.467367
 34   15.835795 0.581398 0.242756 -0.305885 -0.201989 0.256011
 35   -0.815868 -0.091229 -3.114430 -0.040474 2.853438 0.069176
 36   14.294526 -0.410349 -0.463635 -0.007026 0.076833 -0.395888
 37   15.834409 0.579420 -0.284600 0.273760 0.212841 0.401548
 38   1.170936 -3.465468 -2.823813 0.006062 -0.004519 0.013931
 39   -4.473368 -0.855629 -0.707116 0.007790 0.017222 -0.068740
 40   1.086850 -3.438050 3.237290 -0.002884 -0.005470 0.022544
 41   -4.332274 -0.934126 1.002536 0.000838 0.001678 -0.006815
 42   -0.606685 1.689489 -2.481576 0.050575 0.078764 -0.007611
 43   -0.664068 1.679046 2.689684 -0.059322 -0.089314 0.015390
time 21
  0   -0.756603 -0.917997 1.297286 0.000000 0.000000 -1.571069
  1   -1.093036 0.000002 -0.326057 -1.569027 -1.622749 -0.001768
  2   2.262337 0.113614 0.064702 -0.000014 0.000037 0.034286
  3   2.380047 0.353302 0.047440 0.000000 -0.000028 -0.245397
  4   2.033756 0.190472 -0.000128 -0.166860 0.050851 -0.248861
  5   2.451511 0.204909 -0.003447 -0.122009 0.088551 -0.280530
  6   7.247600 -0.397300 -0.109469 0.000001 -0.000003 0.470960
  7   -2.022252 -0.104661 3.136172 1.212801 -1.046098 -4.775887
  8   1.168026 -0.537438 -0.063437 -0.375209 0.611939 -0.863884
  9   6.790376 -0.619176 0.015206 -0.169926 -0.234143 -0.775354
 10   8.637599 0.544015 -0.090417 -3.909731 0.083071 -0.332760
 11   6.790465 -0.619039 0.017802 -0.137652 -0.163101 -0.558841
 12   -2.022474 -0.104699 -2.873818 -2.468706 1.824383 0.184805
 13   1.167898 -0.537463 0.063297 -0.810843 -0.994796 0.109235
 14   7.002743 -0.617765 -0.183752 0.000115 0.000194 -1.866851
 15   8.209042 0.615527 -0.255885 1.727486 0.375284 0.023026
 16   7.002735 -0.617911 -0.183641 0.012979 0.010300 -1.325445
 17   1.574674 0.609930 -0.000899 0.265493 -0.161779 -0.235524
 18   -0.602177 0.511412 -0.000006 0.000000 0.000000 0.000000
 19   3.646428 0.364526 1.119313 -0.000002 -0.000014 -0.174510
 20   3.646422 0.364499 -1.117566 0.000007 -0.000003 -0.174546
 21   3.805634 1.330634 1.627658 0.000002 -0.000011 -0.000026
 22   -0.246060 -0.011889 0.516521 -0.000011 0.000031 0.000025
 23   3.805651 1.330659 -1.631083 0.000019 0.000002 -0.000024
 24   -0.246150 -0.011872 -0.516511 -0.000005 -0.000006 0.000048
 25   4.941364 1.997338 1.629330 0.000018 -0.000001 -0.000024
 26   4.941382 1.997366 -1.629410 -0.000001 0.000005 -0.000024
 27   2.930087 1.603639 1.514501 -0.000019 -0.000022 -0.000050
 28   2.932517 1.603245 -1.501142 -0.000002 -0.000009 -0.000024
 29   8.824059 0.150544 0.091743 0.051963 -0.018628 -0.020242
 30   2.150149 -0.561179 1.698380 -0.001378 0.098326 0.006607
 31   2.183792 -0.561289 -1.791097 0.000245 -0.130491 0.007313
 32   -0.810489 -0.093824 3.127092 0.308687 -2.963972 -0.295141
 33   14.298673 -0.408176 0.475484 0.010830 -0.088871 -0.467367
 34   15.835795 0.581398 0.242756 -0.305885 -0.201989 0.256011
 35   -0.815868 -0.091229 -3.114430 -0.040474 2.853438 0.069176
 36   14.294526 -0.410349 -0.463635 -0.007026 0.076833 -0.395888
 37   15.834409 0.579420 -0.284600 0.273760 0.212841 0.401548
 38   1.167030 -3.461562 -2.823813 0.005304 -0.003965 0.012159
 39   -4.465555 -0.886880 -0.707116 0.006807 0.015065 -0.060130
 40   1.090756 -3.441956 3.237290 -0.002526 -0.004771 0.019734
 41   -4.343993 -0.953658 0.990817 0.000718 0.001450 -0.005974
 42   -0.614498 1.689489 -2.508921 0.044223 0.068921 -0.006650
 43   -0.664068 1.679046 2.713122 -0.051888 -0.078126 0.013466
time 22
  0   -0.756603 -0.917997 1.297286 0.000000 0.000000 -1.571069
  1   -1.093036 0.000002 -0.326057 -1.569027 -1.622749 -0.001768
  2   2.262337 0.113614 0.064702 -0.000014 0.000037 0.034286
  3   2.380047 0.353302 0.047440 0.000000 -0.000028 -0.245397
  4   2.033756 0.190472 -0.000128 -0.166860 0.050851 -0.248861
  5   2.451511 0.204909 -0.003447 -0.122009 0.088551 -0.280530
  6   7.247600 -0.397300 -0.109469 0.000001 -0.000003 0.470960
  7   -2.022252 -0.104661 3.136172 1.212801 -1.046098 -4.775887
  8   1.168026 -0.537438 -0.063437 -0.375209 0.611939 -0.863884
  9   6.790376 -0.619176 0.015206 -0.169926 -0.234143 -0.775354
 10   8.637599 0.544015 -0.090417 -3.909731 0.083071 -0.332760
 11   6.790465 -0.619039 0.017802 -0.137652 -0.163101 -0.558841
 12   -2.022474 -0.104699 -2.873818 -2.468706 1.824383 0.184805
 13   1.167898 -0.537463 0.063297 -0.810843 -0.994796 0.109235
 14   7.002743 -0.617765 -0.183752 0.000115 0.000194 -1.866851
 15   8.209042 0.615527 -0.255885 1.727486 0.375284 0.023026
 16   7.002735 -0.617911 -0.183641 0.012979 0.010300 -1.325445
 17   1.574674 0.609930 -0.000899 0.265493 -0.161779 -0.235524
 18   -0.602177 0.511412 -0.000006 0.000000 0.000000 0.000000
 19   3.646428 0.364526 1.119313 -0.000002 -0.000014 -0.174510
 20   3.646422 0.364499 -1.117566 0.000007 -0.000003 -0.174546
 21   3.805634 1.330634 1.627658 0.000002 -0.000011 -0.000026
 22   -0.246060 -0.011889 0.516521 -0.000011 0.000031 0.000025
 23   3.805651 1.330659 -1.631083 0.000019 0.000002 -0.000024
 24   -0.246150 -0.011872 -0.516511 -0.000005 -0.000006 0.000048
 25   4.941364 1.997338 1.629330 0.000018 -0.000001 -0.000024
 26   4.941382 1.997366 -1.629410 -0.000001 0.000005 -0.000024
 27   2.930087 1.603639 1.514501 -0.000019 -0.000022 -0.000050
 28   2.932517 1.603245 -1.501142 -0.000002 -0.000009 -0.000024
 29   8.824059 0.150544 0.091743 0.044210 -0.015305 -0.043579
 30   2.142336 -0.561179 1.710099 -0.001161 0.083331 0.005578
 31   2.172073 -0.561289 -1.802816 0.000215 -0.110755 0.006203
 32   -0.810489 -0.093824 3.127092 0.308687 -2.963972 -0.295141
 33   14.298673 -0.408176 0.475484 0.010830 -0.088871 -0.467367
 34   15.835795 0.581398 0.242756 -0.305885 -0.201989 0.256011
 35   -0.815868 -0.091229 -3.114430 -0.040474 2.853438 0.069176
 36   14.294526 -0.410349 -0.463635 -0.007026 0.076833 -0.395888
 37   15.834409 0.579420 -0.284600 0.273760 0.212841 0.401548
 38   1.159217 -3.461562 -2.823813 0.004505 -0.003350 0.010326
 39   -4.465555 -0.910318 -0.714929 0.005789 0.012776 -0.051015
 40   1.098569 -3.441956 3.237290 -0.002126 -0.004048 0.016740
 41   -4.355712 -0.965377 0.990817 0.000610 0.001234 -0.005048
 42   -0.618404 1.697302 -2.536265 0.037548 0.058464 -0.005646
 43   -0.664068 1.679046 2.736560 -0.044042 -0.066310 0.011417
time 23
  0   -0.756603 -0.917997 1.297286 0.000000 0.000000 -1.571069
  1   -1.093036 0.000002 -0.326057 -1.569027 -1.622749 -0.001768
  2   2.262337 0.113614 0.064702 -0.000014 0.000037 0.034286
  3   2.380047 0.353302 0.047440 0.000000 -0.000028 -0.245397
  4   2.033756 0.190472 -0.000128 -0.166860 0.050851 -0.248861
  5   2.451511 0.204909 -0.003447 -0.122009 0.088551 -0.280530
  6   7.247600 -0.397300 -0.109469 0.000001 -0.000003 0.470960
  7   -2.022252 -0.104661 3.136172 1.212801 -1.046098 -4.775887
  8   1.168026 -0.537438 -0.063437 -0.375209 0.611939 -0.863884
  9   6.790376 -0.619176 0.015206 -0.169926 -0.234143 -0.775354
 10   8.637599 0.544015 -0.090417 -3.909731 0.083071 -0.332760
 11   6.790465 -0.619039 0.017802 -0.137652 -0.163101 -0.558841
 12   -2.022474 -0.104699 -2.873818 -2.468706 1.824383 0.184805
 13   1.167898 -0.537463 0.063297 -0.810843 -0.994796 0.109235
 14   7.002743 -0.617765 -0.183752 0.000115 0.000194 -1.866851
 15   8.209042 0.615527 -0.255885 1.727486 0.375284 0.023026
 16   7.002735 -0.617911 -0.183641 0.012979 0.010300 -1.325445
 17   1.574674 0.609930 -0.000899 0.265493 -0.161779 -0.235524
 18   -0.602177 0.511412 -0.000006 0.000000 0.000000 0.000000
 19   3.646428 0.364526 1.119313 -0.000002 -0.000014 -0.174510
 20   3.646422 0.364499 -1.117566 0.000007 -0.000003 -0.174546
 21   3.805634 1.330634 1.627658 0.000002 -0.000011 -0.000026
 22   -0.246060 -0.011889 0.516521 -0.000011 0.000031 0.000025
 23   3.805651 1.330659 -1.631083 0.000019 0.000002 -0.000024
 24   -0.246150 -0.011872 -0.516511 -0.000005 -0.000006 0.000048
 25   4.941364 1.997338 1.629330 0.000018 -0.000001 -0.000024
 26   4.941382 1.997366 -1.629410 -0.000001 0.000005 -0.000024
 27   2.930087 1.603639 1.514501 -0.000019 -0.000022 -0.000050
 28   2.932517 1.603245 -1.501142 -0.000002 -0.000009 -0.000024
 29   8.824059 0.150544 0.091743 0.036367 -0.012124 -0.067345
 30   2.138430 -0.561179 1.721818 -0.000944 0.068074 0.004570
 31   2.160354 -0.561289 -1.814535 0.000184 -0.090655 0.005075
 32   -0.810489 -0.093824 3.127092 0.308687 -2.963972 -0.295141
 33   14.298673 -0.408176 0.475484 0.010830 -0.088871 -0.467367
 34   15.835795 0.581398 0.242756 -0.305885 -0.201989 0.256011
 35   -0.815868 -0.091229 -3.114430 -0.040474 2.853438 0.069176
 36   14.294526 -0.410349 -0.463635 -0.007026 0.076833 -0.395888
 37   15.834409 0.579420 -0.284600 0.273760 0.212841 0.401548
 38   1.159217 -3.461562 -2.823813 0.003684 -0.002748 0.008371
 39   -4.465555 -0.937663 -0.718835 0.004734 0.010463 -0.041760
 40   1.098569 -3.441956 3.237290 -0.001726 -0.003325 0.013624
 41   -4.371338 -0.988815 0.979098 0.000490 0.001019 -0.004151
 42   -0.626217 1.697302 -2.563610 0.030717 0.047854 -0.004558
 43   -0.664068 1.686859 2.763905 -0.036033 -0.054275 0.009284
time 24
  0   -0.756603 -0.917997 1.297286 0.000000 0.000000 -1.571069
  1   -1.093036 0.000002 -0.326057 -1.569027 -1.622749 -0.001768
  2   2.262337 0.113614 0.064702 -0.000014 0.000037 0.034286
  3   2.380047 0.353302 0.047440 0.000000 -0.000028 -0.245397
  4   2.033756 0.190472 -0.000128 -0.166860 0.050851 -0.248861
  5   2.451511 0.204909 -0.003447 -0.122009 0.088551 -0.280530
  6   7.247600 -0.397300 -0.109469 0.000001 -0.000003 0.470960
  7   -2.022252 -0.104661 3.136172 1.212801 -1.046098 -4.775887
  8   1.168026 -0.537438 -0.063437 -0.375209 0.611939 -0.863884
  9   6.790376 -0.619176 0.015206 -0.169926 -0.234143 -0.775354
 10   8.637599 0.544015 -0.090417 -3.909731 0.083071 -0.332760
 11   6.790465 -0.619039 0.017802 -0.137652 -0.163101 -0.558841
 12   -2.022474 -0.104699 -2.873818 -2.468706 1.824383 0.184805
 13   1.167898 -0.537463 0.063297 -0.810843 -0.994796 0.109235
 14   7.002743 -0.617765 -0.183752 0.000115 0.000194 -1.866851
 15   8.209042 0.615527 -0.255885 1.727486 0.375284 0.023026
 16   7.002735 -0.617911 -0.183641 0.012979 0.010300 -1.325445
 17   1.574674 0.609930 -0.000899 0.265493 -0.161779 -0.235524
 18   -0.602177 0.511412 -0.000006 0.000000 0.000000 0.000000
 19   3.646428 0.364526 1.119313 -0.000002 -0.000014 -0.174510
 20   3.646422 0.364499 -1.117566 0.000007 -0.000003 -0.174546
 21   3.805634 1.330634 1.627658 0.000002 -0.000011 -0.000026
 22   -0.246060 -0.011889 0.516521 -0.000011 0.000031 0.000025
 23   3.805651 1.330659 -1.631083 0.000019 0.000002 -0.000024
 24   -0.246150 -0.011872 -0.516511 -0.000005 -0.000006 0.000048
 25   4.941364 1.997338 1.629330 0.000018 -0.000001 -0.000024
 26   4.941382 1.997366 -1.629410 -0.000001 0.000005 -0.000024
 27   2.930087 1.603639 1.514501 -0.000019 -0.000022 -0.000050
 28   2.932517 1.603245 -1.501142 -0.000002 -0.000009 -0.000024
 29   8.824059 0.150544 0.091743 0.028525 -0.009228 -0.090682
 30   2.130617 -0.561179 1.741350 -0.000727 0.053079 0.003583
 31   2.152541 -0.561289 -1.822348 0.000138 -0.070866 0.003965
 32   -0.810489 -0.093824 3.127092 0.308687 -2.963972 -0.295141
 33   14.298673 -0.408176 0.475484 0.010830 -0.088871 -0.467367
 34   15.835795 0.581398 0.242756 -0.305885 -0.201989 0.256011
 35   -0.815868 -0.091229 -3.114430 -0.040474 2.853438 0.069176
 36   14.294526 -0.410349 -0.463635 -0.007026 0.076833 -0.395888
 37   15.834409 0.579420 -0.284600 0.273760 0.212841 0.401548
 38   1.155311 -3.453749 -2.823813 0.002884 -0.002145 0.006538
 39   -4.457742 -0.961101 -0.726648 0.003691 0.008162 -0.032645
 40   1.106382 -3.449769 3.237290 -0.001347 -0.002602 0.010692
 41   -4.386963 -1.000534 0.979098 0.000383 0.000791 -0.003225
 42   -0.637936 1.697302 -2.594861 0.024017 0.037413 -0.003597
 43   -0.664068 1.690765 2.787343 -0.028187 -0.042428 0.007319
time 25
  0   -0.756603 -0.917997 1.297286 0.000000 0.000000 -1.571069
  1   -1.093036 0.000002 -0.326057 -1.569027 -1.622749 -0.001768
  2   2.262337 0.113614 0.064702 -0.000014 0.000037 0.034286
  3   2.380047 0.353302 0.047440 0.000000 -0.000028 -0.245397
  4   2.033756 0.190472 -0.000128 -0.166860 0.050851 -0.248861
  5   2.451511 0.204909 -0.003447 -0.122009 0.088551 -0.280530
  6   7.247600 -0.397300 -0.109469 0.000001 -0.000003 0.470960
  7   -2.022252 -0.104661 3.136172 1.212801 -1.046098 -4.775887
  8   1.168026 -0.537438 -0.063437 -0.375209 0.611939 -0.863884
  9   6.790376 -0.619176 0.015206 -0.169926 -0.234143 -0.775354
 10   8.637599 0.544015 -0.090417 -3.909731 0.083071 -0.332760
 11   6.790465 -0.619039 0.017802 -0.137652 -0.163101 -0.558841
 12   -2.022474 -0.104699 -2.873818 -2.468706 1.824383 0.184805
 13   1.167898 -0.537463 0.063297 -0.810843 -0.994796 0.109235
 14   7.002743 -0.617765 -0.183752 0.000115 0.000194 -1.866851
 15   8.209042 0.615527 -0.255885 1.727486 0.375284 0.023026
 16   7.002735 -0.617911 -0.183641 0.012979 0.010300 -1.325445
 17   1.574674 0.609930 -0.000899 0.265493 -0.161779 -0.235524
 18   -0.602177 0.511412 -0.000006 0.000000 0.000000 0.000000
 19   3.646428 0.364526 1.119313 -0.000002 -0.000014 -0.174510
 20   3.646422 0.364499 -1.117566 0.000007 -0.000003 -0.174546
 21   3.805634 1.330634 1.627658 0.000002 -0.000011 -0.000026
 22   -0.246060 -0.011889 0.516521 -0.000011 0.000031 0.000025
 23   3.805651 1.330659 -1.631083 0.000019 0.000002 -0.000024
 24   -0.246150 -0.011872 -0.516511 -0.000005 -0.000006 0.000048
 25   4.941364 1.997338 1.629330 0.000018 -0.000001 -0.000024
 26   4.941382 1.997366 -1.629410 -0.000001 0.000005 -0.000024
 27   2.930087 1.603639 1.514501 -0.000019 -0.000022 -0.000050
 28   2.932517 1.603245 -1.501142 -0.000002 -0.000009 -0.000024
 29   8.824059 0.150544 0.091743 0.021038 -0.006617 -0.112785
 30   2.122804 -0.561179 1.753069 -0.000537 0.038927 0.002640
 31   2.140822 -0.561289 -1.834067 0.000092 -0.052191 0.002891
 32   -0.810489 -0.093824 3.127092 0.308687 -2.963972 -0.295141
 33   14.298673 -0.408176 0.475484 0.010830 -0.088871 -0.467367
 34   15.835795 0.581398 0.242756 -0.305885 -0.201989 0.256011
 35   -0.815868 -0.091229 -3.114430 -0.040474 2.853438 0.069176
 36   14.294526 -0.410349 -0.463635 -0.007026 0.076833 -0.395888
 37   15.834409 0.579420 -0.284600 0.273760 0.212841 0.401548
 38   1.147498 -3.453749 -2.823813 0.002126 -0.001579 0.004766
 39   -4.457742 -0.992352 -0.734461 0.002721 0.006016 -0.024035
 40   1.110288 -3.449769 3.237290 -0.000989 -0.001903 0.007820
 41   -4.402589 -1.020066 0.967379 0.000287 0.000575 -0.002384
 42   -0.637936 1.697302 -2.618299 0.017689 0.027570 -0.002635
 43   -0.664068 1.690765 2.806875 -0.020753 -0.031240 0.005395
time 26
  0   -0.756603 -0.917997 1.297286 0.000000 0.000000 -1.571069
  1   -1.093036 0.000002 -0.326057 -1.569027 -1.622749 -0.001768
  2   2.262337 0.113614 0.064702 -0.000014 0.000037 0.034286
  3   2.380047 0.353302 0.047440 0.000000 -0.000028 -0.245397
  4   2.033756 0.190472 -0.000128 -0.166860 0.050851 -0.248861
  5   2.451511 0.204909 -0.003447 -0.122009 0.088551 -0.280530
  6   7.247600 -0.397300 -0.109469 0.000001 -0.000003 0.470960
  7   -2.022252 -0.104661 3.136172 1.212801 -1.046098 -4.775887
  8   1.168026 -0.537438 -0.063437 -0.375209 0.611939 -0.863884
  9   6.790376 -0.619176 0.015206 -0.169926 -0.234143 -0.775354
 10   8.637599 0.544015 -0.090417 -3.909731 0.083071 -0.332760
 11   6.790465 -0.619039 0.017802 -0.137652 -0.163101 -0.558841
 12   -2.022474 -0.104699 -2.873818 -2.468706 1.824383 0.184805
 13   1.167898 -0.537463 0.063297 -0.810843 -0.994796 0.109235
 14   7.002743 -0.617765 -0.183752 0.000115 0.000194 -1.866851
 15   8.209042 0.615527 -0.255885 1.727486 0.375284 0.023026
 16   7.002735 -0.617911 -0.183641 0.012979 0.010300 -1.325445
 17   1.574674 0.609930 -0.000899 0.265493 -0.161779 -0.235524
 18   -0.602177 0.511412 -0.000006 0.000000 0.000000 0.000000
 19   3.646428 0.364526 1.119313 -0.000002 -0.000014 -0.174510
 20   3.646422 0.364499 -1.117566 0.000007 -0.000003 -0.174546
 21   3.805634 1.330634 1.627658 0.000002 -0.000011 -0.000026
 22   -0.246060 -0.011889 0.516521 -0.000011 0.000031 0.000025
 23   3.805651 1.330659 -1.631083 0.000019 0.000002 -0.000024
 24   -0.246150 -0.011872 -0.516511 -0.000005 -0.000006 0.000048
 25   4.941364 1.997338 1.629330 0.000018 -0.000001 -0.000024
 26   4.941382 1.997366 -1.629410 -0.000001 0.000005 -0.000024
 27   2.930087 1.603639 1.514501 -0.000019 -0.000022 -0.000050
 28   2.932517 1.603245 -1.501142 -0.000002 -0.000009 -0.000024
 29   8.824059 0.150544 0.091743 0.014265 -0.004409 -0.132849
 30   2.118898 -0.561179 1.764788 -0.000361 0.026111 0.001804
 31   2.133009 -0.561289 -1.837973 0.000046 -0.035330 0.001945
 32   -0.810489 -0.093824 3.127092 0.308687 -2.963972 -0.295141
 33   14.298673 -0.408176 0.475484 0.010830 -0.088871 -0.467367
 34   15.835795 0.581398 0.242756 -0.305885 -0.201989 0.256011
 35   -0.815868 -0.091229 -3.114430 -0.040474 2.853438 0.069176
 36   14.294526 -0.410349 -0.463635 -0.007026 0.076833 -0.395888
 37   15.834409 0.579420 -0.284600 0.273760 0.212841 0.401548
 38   1.147498 -3.453749 -2.823813 0.001410 -0.001073 0.003239
 39   -4.457742 -1.011884 -0.738367 0.001846 0.004075 -0.016267
 40   1.110288 -3.449769 3.237290 -0.000674 -0.001276 0.005254
 41   -4.410401 -1.031785 0.967379 0.000191 0.000384 -0.001599
 42   -0.649655 1.697302 -2.641737 0.011973 0.018631 -0.001756
 43   -0.664068 1.698578 2.830313 -0.014031 -0.021134 0.003638
time 27
  0   -0.756603 -0.917997 1.297286 0.000000 0.000000 -1.571069
  1   -1.093036 0.000002 -0.326057 -1.569027 -1.622749 -0.001768
  2   2.262337 0.113614 0.064702 -0.000014 0.000037 0.034286
  3   2.380047 0.353302 0.047440 0.000000 -0.000028 -0.245397
  4   2.033756 0.190472 -0.000128 -0.166860 0.050851 -0.248861
  5   2.451511 0.204909 -0.003447 -0.122009 0.088551 -0.280530
  6   7.247600 -0.397300 -0.109469 0.000001 -0.000003 0.470960
  7   -2.022252 -0.104661 3.136172 1.212801 -1.046098 -4.775887
  8   1.168026 -0.537438 -0.063437 -0.375209 0.611939 -0.863884
  9   6.790376 -0.619176 0.015206 -0.169926 -0.234143 -0.775354
 10   8.637599 0.544015 -0.090417 -3.909731 0.083071 -0.332760
 11   6.790465 -0.619039 0.017802 -0.137652 -0.163101 -0.558841
 12   -2.022474 -0.104699 -2.873818 -2.468706 1.824383 0.184805
 13   1.167898 -0.537463 0.063297 -0.810843 -0.994796 0.109235
 14   7.002743 -0.617765 -0.183752 0.000115 0.000194 -1.866851
 15   8.209042 0.615527 -0.255885 1.727486 0.375284 0.023026
 16   7.002735 -0.617911 -0.183641 0.012979 0.010300 -1.325445
 17   1.574674 0.609930 -0.000899 0.265493 -0.161779 -0.235524
 18   -0.602177 0.511412 -0.000006 0.000000 0.000000 0.000000
 19   3.646428 0.364526 1.119313 -0.000002 -0.000014 -0.174510
 20   3.646422 0.364499 -1.117566 0.000007 -0.000003 -0.174546
 21   3.805634 1.330634 1.627658 0.000002 -0.000011 -0.000026
 22   -0.246060 -0.011889 0.516521 -0.000011 0.000031 0.000025
 23   3.805651 1.330659 -1.631083 0.000019 0.000002 -0.000024
 24   -0.246150 -0.011872 -0.516511 -0.000005 -0.000006 0.000048
 25   4.941364 1.997338 1.629330 0.000018 -0.000001 -0.000024
 26   4.941382 1.997366 -1.629410 -0.000001 0.000005 -0.000024
 27   2.930087 1.603639 1.514501 -0.000019 -0.000022 -0.000050
 28   2.932517 1.603245 -1.501142 -0.000002 -0.000009 -0.000024
 29   8.824059 0.150544 0.091743 0.008472 -0.002629 -0.149802
 30   2.111085 -0.561179 1.776507 -0.000225 0.015185 0.001075
 31   2.129103 -0.561289 -1.845786 0.000031 -0.020902 0.001163
 32   -0.810489 -0.093824 3.127092 0.308687 -2.963972 -0.295141
 33   14.298673 -0.408176 0.475484 0.010830 -0.088871 -0.467367
 34   15.835795 0.581398 0.242756 -0.305885 -0.201989 0.256011
 35   -0.815868 -0.091229 -3.114430 -0.040474 2.853438 0.069176
 36   14.294526 -0.410349 -0.463635 -0.007026 0.076833 -0.395888
 37   15.834409 0.579420 -0.284600 0.273760 0.212841 0.401548
 38   1.139685 -3.453749 -2.823813 0.000842 -0.000627 0.001895
 39   -4.457742 -1.027509 -0.746180 0.001091 0.002409 -0.009648
 40   1.118101 -3.449769 3.237290 -0.000400 -0.000746 0.003116
 41   -4.426027 -1.043504 0.959566 0.000107 0.000228 -0.000954
 42   -0.649655 1.697302 -2.661269 0.007095 0.011057 -0.001046
 43   -0.664068 1.698578 2.849845 -0.008309 -0.012520 0.002133
time 28
  0   -0.756603 -0.917997 1.297286 0.000000 0.000000 -1.571069
  1   -1.093036 0.000002 -0.326057 -1.569027 -1.622749 -0.001768
  2   2.262337 0.113614 0.064702 -0.000014 0.000037 0.034286
  3   2.380047 0.353302 0.047440 0.000000 -0.000028 -0.245397
  4   2.033756 0.190472 -0.000128 -0.166860 0.050851 -0.248861
  5   2.451511 0.204909 -0.003447 -0.122009 0.088551 -0.280530
  6   7.247600 -0.397300 -0.109469 0.000001 -0.000003 0.470960
  7   -2.022252 -0.104661 3.136172 1.212801 -1.046098 -4.775887
  8   1.168026 -0.537438 -0.063437 -0.375209 0.611939 -0.863884
  9   6.790376 -0.619176 0.015206 -0.169926 -0.234143 -0.775354
 10   8.637599 0.544015 -0.090417 -3.909731 0.083071 -0.332760
 11   6.790465 -0.619039 0.017802 -0.137652 -0.163101 -0.558841
 12   -2.022474 -0.104699 -2.873818 -2.468706 1.824383 0.184805
 13   1.167898 -0.537463 0.063297 -0.810843 -0.994796 0.109235
 14   7.002743 -0.617765 -0.183752 0.000115 0.000194 -1.866851
 15   8.209042 0.615527 -0.255885 1.727486 0.375284 0.023026
 16   7.002735 -0.617911 -0.183641 0.012979 0.010300 -1.325445
 17   1.574674 0.609930 -0.000899 0.265493 -0.161779 -0.235524
 18   -0.602177 0.511412 -0.000006 0.000000 0.000000 0.000000
 19   3.646428 0.364526 1.119313 -0.000002 -0.000014 -0.174510
 20   3.646422 0.364499 -1.117566 0.000007 -0.000003 -0.174546
 21   3.805634 1.330634 1.627658 0.000002 -0.000011 -0.000026
 22   -0.246060 -0.011889 0.516521 -0.000011 0.000031 0.000025
 23   3.805651 1.330659 -1.631083 0.000019 0.000002 -0.000024
 24   -0.246150 -0.011872 -0.516511 -0.000005 -0.000006 0.000048
 25   4.941364 1.997338 1.629330 0.000018 -0.000001 -0.000024
 26   4.941382 1.997366 -1.629410 -0.000001 0.000005 -0.000024
 27   2.930087 1.603639 1.514501 -0.000019 -0.000022 -0.000050
 28   2.932517 1.603245 -1.501142 -0.000002 -0.000009 -0.000024
 29   8.824059 0.150544 0.091743 0.003838 -0.001323 -0.163053
 30   2.111085 -0.561179 1.784320 -0.000103 0.006728 0.000496
 31   2.121290 -0.561289 -1.853599 0.000000 -0.009765 0.000544
 32   -0.810489 -0.093824 3.127092 0.308687 -2.963972 -0.295141
 33   14.298673 -0.408176 0.475484 0.010830 -0.088871 -0.467367
 34   15.835795 0.581398 0.242756 -0.305885 -0.201989 0.256011
 35   -0.815868 -0.091229 -3.114430 -0.040474 2.853438 0.069176
 36   14.294526 -0.410349 -0.463635 -0.007026 0.076833 -0.395888
 37   15.834409 0.579420 -0.284600 0.273760 0.212841 0.401548
 38   1.139685 -3.453749 -2.823813 0.000400 -0.000277 0.000795
 39   -4.457742 -1.047041 -0.746180 0.000491 0.001127 -0.004459
 40   1.118101 -3.449769 3.237290 -0.000168 -0.000336 0.001405
 41   -4.433840 -1.051317 0.959566 0.000047 0.000108 -0.000449
 42   -0.657468 1.697302 -2.680801 0.003308 0.005169 -0.000418
 43   -0.664068 1.698578 2.861564 -0.003886 -0.005851 0.001004
time 29
  0   -0.756603 -0.917997 1.297286 0.000000 0.000000 -1.571069
  1   -1.093036 0.000002 -0.326057 -1.569027 -1.622749 -0.001768
  2   2.262337 0.113614 0.064702 -0.000014 0.000037 0.034286
  3   2.380047 0.353302 0.047440 0.000000 -0.000028 -0.245397
  4   2.033756 0.190472 -0.000128 -0.166860 0.050851 -0.248861
  5   2.451511 0.204909 -0.003447 -0.122009 0.088551 -0.280530
  6   7.247600 -0.397300 -0.109469 0.000001 -0.000003 0.470960
  7   -2.022252 -0.104661 3.136172 1.212801 -1.046098 -4.775887
  8   1.168026 -0.537438 -0.063437 -0.375209 0.611939 -0.863884
  9   6.790376 -0.619176 0.015206 -0.169926 -0.234143 -0.775354
 10   8.637599 0.544015 -0.090417 -3.909731 0.083071 -0.332760
 11   6.790465 -0.619039 0.017802 -0.137652 -0.163101 -0.558841
 12   -2.022474 -0.104699 -2.873818 -2.468706 1.824383 0.184805
 13   1.167898 -0.537463 0.063297 -0.810843 -0.994796 0.109235
 14   7.002743 -0.617765 -0.183752 0.000115 0.000194 -1.866851
 15   8.209042 0.615527 -0.255885 1.727486 0.375284 0.023026
 16   7.002735 -0.617911 -0.183641 0.012979 0.010300 -1.325445
 17   1.574674 0.609930 -0.000899 0.265493 -0.161779 -0.235524
 18   -0.602177 0.511412 -0.000006 0.000000 0.000000 0.000000
 19   3.646428 0.364526 1.119313 -0.000002 -0.000014 -0.174510
 20   3.646422 0.364499 -1.117566 0.000007 -0.000003 -0.174546
 21   3.805634 1.330634 1.627658 0.000002 -0.000011 -0.000026
 22   -0.246060 -0.011889 0.516521 -0.000011 0.000031 0.000025
 23   3.805651 1.330659 -1.631083 0.000019 0.000002 -0.000024
 24   -0.246150 -0.011872 -0.516511 -0.000005 -0.000006 0.000048
 25   4.941364 1.997338 1.629330 0.000018 -0.000001 -0.000024
 26   4.941382 1.997366 -1.629410 -0.000001 0.000005 -0.000024
 27   2.930087 1.603639 1.514501 -0.000019 -0.000022 -0.000050
 28   2.932517 1.603245 -1.501142 -0.000002 -0.000009 -0.000024
 29   8.824059 0.150544 0.091743 0.000897 -0.000468 -0.171583
 30   2.111085 -0.561179 1.784320 -0.000022 0.001236 0.000153
 31   2.121290 -0.561289 -1.853599 0.000000 -0.002538 0.000107
 32   -0.810489 -0.093824 3.127092 0.308687 -2.963972 -0.295141
 33   14.298673 -0.408176 0.475484 0.010830 -0.088871 -0.467367
 34   15.835795 0.581398 0.242756 -0.305885 -0.201989 0.256011
 35   -0.815868 -0.091229 -3.114430 -0.040474 2.853438 0.069176
 36   14.294526 -0.410349 -0.463635 -0.007026 0.076833 -0.395888
 37   15.834409 0.579420 -0.284600 0.273760 0.212841 0.401548
 38   1.139685 -3.453749 -2.823813 0.000063 -0.000060 0.000123
 39   -4.457742 -1.054854 -0.746180 0.000132 0.000288 -0.001178
 40   1.118101 -3.449769 3.237290 -0.000021 -0.000071 0.000367
 41   -4.433840 -1.059130 0.959566 0.000011 0.000024 -0.000084
 42   -0.657468 1.697302 -2.688614 0.000863 0.001336 -0.000084
 43   -0.664068 1.698578 2.869377 -0.001000 -0.001504 0.000251
time 30
  0   -0.756603 -0.917997 1.297286 0.000000 0.000000 -1.571069
  1   -1.093036 0.000002 -0.326057 -1.569027 -1.622749 -0.001768
  2   2.262337 0.113614 0.064702 -0.000014 0.000037 0.034286
  3   2.380047 0.353302 0.047440 0.000000 -0.000028 -0.245397
  4   2.033756 0.190472 -0.000128 -0.166860 0.050851 -0.248861
  5   2.451511 0.204909 -0.003447 -0.122009 0.088551 -0.280530
  6   7.247600 -0.397300 -0.109469 0.000001 -0.000003 0.470960
  7   -2.022252 -0.104661 3.136172 1.212801 -1.046098 -4.775887
  8   1.168026 -0.537438 -0.063437 -0.375209 0.611939 -0.863884
  9   6.790376 -0.619176 0.015206 -0.169926 -0.234143 -0.775354
 10   8.637599 0.544015 -0.090417 -3.909731 0.083071 -0.332760
 11   6.790465 -0.619039 0.017802 -0.137652 -0.163101 -0.558841
 12   -2.022474 -0.104699 -2.873818 -2.468706 1.824383 0.184805
 13   1.167898 -0.537463 0.063297 -0.810843 -0.994796 0.109235
 14   7.002743 -0.617765 -0.183752 0.000115 0.000194 -1.866851
 15   8.209042 0.615527 -0.255885 1.727486 0.375284 0.023026
 16   7.002735 -0.617911 -0.183641 0.012979 0.010300 -1.325445
 17   1.574674 0.609930 -0.000899 0.265493 -0.161779 -0.235524
 18   -0.602177 0.511412 -0.000006 0.000000 0.000000 0.000000
 19   3.646428 0.364526 1.119313 -0.000002 -0.000014 -0.174510
 20   3.646422 0.364499 -1.117566 0.000007 -0.000003 -0.174546
 21   3.805634 1.330634 1.627658 0.000002 -0.000011 -0.000026
 22   -0.246060 -0.011889 0.516521 -0.000011 0.000031 0.000025
 23   3.805651 1.330659 -1.631083 0.000019 0.000002 -0.000024
 24   -0.246150 -0.011872 -0.516511 -0.000005 -0.000006 0.000048
 25   4.941364 1.997338 1.629330 0.000018 -0.000001 -0.000024
 26   4.941382 1.997366 -1.629410 -0.000001 0.000005 -0.000024
 27   2.930087 1.603639 1.514501 -0.000019 -0.000022 -0.000050
 28   2.932517 1.603245 -1.501142 -0.000002 -0.000009 -0.000024
 29   8.824059 0.150544 0.091743 0.000006 -0.000231 -0.174534
 30   2.111085 -0.561179 1.784320 -0.000008 -0.000682 0.000024
 31   2.121290 -0.561289 -1.853599 0.000000 0.000000 -0.000002
 32   -0.810489 -0.093824 3.127092 0.308687 -2.963972 -0.295141
 33   14.298673 -0.408176 0.475484 0.010830 -0.088871 -0.467367
 34   15.835795 0.581398 0.242756 -0.305885 -0.201989 0.256011
 35   -0.815868 -0.091229 -3.114430 -0.040474 2.853438 0.069176
 36   14.294526 -0.410349 -0.463635 -0.007026 0.076833 -0.395888
 37   15.834409 0.579420 -0.284600 0.273760 0.212841 0.401548
 38   1.139685 -3.453749 -2.823813 0.000000 0.000000 0.000001
 39   -4.457742 -1.054854 -0.746180 0.000000 0.000000 0.000000
 40   1.118101 -3.449769 3.237290 0.000000 0.000001 0.000000
 41   -4.433840 -1.059130 0.959566 -0.000001 0.000000 0.000000
 42   -0.657468 1.697302 -2.688614 0.000000 0.000002 0.000000
 43   -0.664068 1.698578 2.869377 0.000000 0.000002 0.000000
end
