version 1
nodes
  0 "Bip01" -1
  1 "Bip01 Pelvis" 0
  2 "Bip01 Spine" 1
  3 "Bip01 Spine1" 2
  4 "Bip01 Spine2" 3
  5 "Bip01 Spine3" 4
  6 "Bip01 Neck" 5
  7 "Bip01 L Arm" 6
  8 "Bip01 L Arm1" 7
  9 "Bip01 L Arm2" 8
 10 "Bip01 L Hand" 9
 11 "Bip06 L elbow2-smooth" 8
 12 "Bip01 R Arm" 6
 13 "Bip01 R Arm1" 12
 14 "Bip01 R Arm2" 13
 15 "Bip01 R Hand" 14
 16 "Bip06 R elbow2-smooth" 13
 17 "Bip01 Head" 6
 18 "Bip06 Head_helper" 17
 19 "Bip06 Head_eyes_l" 18
 20 "Bip06 Head_eyes_r" 18
 21 "Bip06 Head_blink_l" 18
 22 "Bip06 Head_blink_smooth_l1" 21
 23 "Bip06 Head_blink_r" 18
 24 "Bip06 Head_blink_smooth_r1" 23
 25 "Bip06 Head_L_eyebrow" 18
 26 "Bip06 Head_R_eyebrow" 18
 27 "Bip06 Head_blink_l_lid" 18
 28 "Bip06 Head_blink_r_lid" 18
 29 "Bip06 bunny" 18
 30 "Bip06 bunnyL" 29
 31 "Bip06 bunnyR" 29
 32 "Bip01 L Leg" 1
 33 "Bip01 L Leg1" 32
 34 "Bip01 L Foot" 33
 35 "Bip01 R Leg" 1
 36 "Bip01 R Leg1" 35
 37 "Bip01 R Foot" 36
 38 "Bip03 HairR1" 17
 39 "Bip03 HairR2" 38
 40 "Bip03 HairL1" 17
 41 "Bip03 HairL2" 40
 42 "Bip03 swingR" 17
 43 "Bip03 swingL" 17
end
skeleton
time 0
  0   0.009046 4.281381 1.527761 0.000000 0.000000 -1.571544
  1   -1.093036 0.000002 -0.326057 -1.570599 -1.570379 -0.000171
  2   2.262337 0.113614 0.064702 -0.001428 0.008570 -0.060279
  3   2.380047 0.353302 0.047440 -0.207614 -0.084867 0.084622
  4   2.033756 0.190472 -0.000128 -0.187608 0.061721 0.118575
  5   2.451511 0.204909 -0.003447 -0.260296 -0.009771 0.164579
  6   7.247600 -0.397300 -0.109469 -0.004182 0.368140 0.385561
  7   -2.022252 -0.104661 3.136172 0.120116 -0.908337 -3.674751
  8   1.168026 -0.537438 -0.063437 -1.248163 0.873422 -0.691436
  9   6.790376 -0.619176 0.015206 -0.000102 -0.000151 -0.718829
 10   8.637599 0.544015 -0.090417 -3.082538 0.529909 0.296853
 11   6.790465 -0.619039 0.017802 -0.000692 -0.011253 -0.518237
 12   -2.022474 -0.104699 -2.873818 -2.821755 1.332805 -0.075515
 13   1.167898 -0.537463 0.063297 -0.116478 -1.041428 -0.918827
 14   7.002743 -0.617765 -0.183752 0.000115 0.000194 -1.849772
 15   8.209042 0.615527 -0.255885 2.042277 0.106693 0.933986
 16   7.002735 -0.617911 -0.183641 0.013027 0.010131 -1.313468
 17   1.574674 0.609930 -0.000899 0.487157 -0.600539 0.156005
 18   -0.602177 0.511412 -0.000006 0.000000 0.000000 0.000000
 19   3.646428 0.364526 1.119313 -0.000002 -0.000014 -0.174510
 20   3.646422 0.364499 -1.117566 0.000007 -0.000003 -0.174546
 21   3.805634 1.330634 1.627658 0.000002 -0.000011 -0.000026
 22   -0.246060 -0.011889 0.516521 -0.000011 0.000031 0.000025
 23   3.805651 1.330659 -1.631083 0.000019 0.000002 -0.000024
 24   -0.246150 -0.011872 -0.516511 -0.000005 -0.000006 0.000048
 25   4.941364 1.997338 1.629330 0.000018 -0.000001 -0.000024
 26   4.941382 1.997366 -1.629410 -0.000001 0.000005 -0.000024
 27   2.930087 1.603639 1.514501 -0.000019 -0.000022 -0.000050
 28   2.932517 1.603245 -1.501142 -0.000002 -0.000009 -0.000024
 29   8.824059 0.150544 0.091743 0.000006 -0.000231 -0.174534
 30   2.111085 -0.561179 1.784320 -0.000008 -0.000682 0.000024
 31   2.121290 -0.561289 -1.853599 0.000000 0.000000 -0.000002
 32   -0.810489 -0.093824 3.127092 0.262828 -3.097583 -0.334759
 33   14.298673 -0.408176 0.475484 0.003675 -0.003118 -0.522390
 34   15.835795 0.581398 0.242756 -0.001248 0.032043 0.122292
 35   -0.815868 -0.091229 -3.114430 -0.132801 3.034913 -0.011454
 36   14.294526 -0.410349 -0.463635 -0.002676 0.001857 -0.384687
 37   15.834409 0.579420 -0.284600 -0.034108 0.026558 0.304555
 38   1.139685 -3.453749 -2.823813 0.000000 0.000000 0.000001
 39   -4.457742 -1.054854 -0.746180 0.000000 0.000000 0.000000
 40   1.118101 -3.449769 3.237290 0.000000 0.000001 0.000000
 41   -4.433840 -1.059130 0.959566 -0.000001 0.000000 0.000000
 42   -0.657468 1.697302 -2.688614 0.000000 0.000002 0.000000
 43   -0.664068 1.698578 2.869377 0.000000 0.000002 0.000000
time 1
  0   0.009046 4.281381 1.527761 0.000000 0.000000 -1.571544
  1   -1.093036 0.000002 -0.326057 -1.570599 -1.570379 -0.000171
  2   2.262337 0.113614 0.064702 -0.001428 0.008570 -0.060279
  3   2.380047 0.353302 0.047440 -0.207704 -0.084400 0.086193
  4   2.033756 0.190472 -0.000128 -0.187276 0.061169 0.114769
  5   2.451511 0.204909 -0.003447 -0.260399 -0.010593 0.159923
  6   7.247600 -0.397300 -0.109469 -0.004182 0.368140 0.385561
  7   -2.022252 -0.104661 3.136172 0.120116 -0.908337 -3.674751
  8   1.168026 -0.537438 -0.063437 -1.243353 0.878504 -0.686565
  9   6.790376 -0.619176 0.015206 -0.000102 -0.000151 -0.714603
 10   8.637599 0.544015 -0.090417 -3.082450 0.529698 0.293742
 11   6.790465 -0.619039 0.017802 -0.000692 -0.011253 -0.515411
 12   -2.022474 -0.104699 -2.873818 -2.820701 1.333501 -0.074366
 13   1.167898 -0.537463 0.063297 -0.127795 -1.045445 -0.908052
 14   7.002743 -0.617765 -0.183752 0.000115 0.000194 -1.849772
 15   8.209042 0.615527 -0.255885 2.042277 0.106693 0.934166
 16   7.002735 -0.617911 -0.183641 0.013027 0.010131 -1.313468
 17   1.574674 0.609930 -0.000899 0.483095 -0.600823 0.164617
 18   -0.602177 0.511412 -0.000006 0.000000 0.000000 0.000000
 19   3.646428 0.364526 1.119313 -0.000002 -0.000014 -0.174510
 20   3.646422 0.364499 -1.117566 0.000007 -0.000003 -0.174546
 21   3.805634 1.330634 1.627658 0.000002 -0.000011 -0.000026
 22   -0.246060 -0.011889 0.516521 -0.000011 0.000031 0.000025
 23   3.805651 1.330659 -1.631083 0.000019 0.000002 -0.000024
 24   -0.246150 -0.011872 -0.516511 -0.000005 -0.000006 0.000048
 25   4.941364 1.997338 1.629330 0.000018 -0.000001 -0.000024
 26   4.941382 1.997366 -1.629410 -0.000001 0.000005 -0.000024
 27   2.930087 1.603639 1.514501 -0.000019 -0.000022 -0.000050
 28   2.932517 1.603245 -1.501142 -0.000002 -0.000009 -0.000024
 29   8.824059 0.150544 0.091743 0.000897 -0.000468 -0.171583
 30   2.111085 -0.561179 1.784320 -0.000022 0.001236 0.000153
 31   2.121290 -0.561289 -1.853599 0.000000 -0.002538 0.000107
 32   -0.810489 -0.093824 3.127092 0.262828 -3.097583 -0.334759
 33   14.298673 -0.408176 0.475484 0.003675 -0.003118 -0.522390
 34   15.835795 0.581398 0.242756 -0.001248 0.032043 0.122292
 35   -0.815868 -0.091229 -3.114430 -0.132801 3.034913 -0.011454
 36   14.294526 -0.410349 -0.463635 -0.002676 0.001857 -0.384687
 37   15.834409 0.579420 -0.284600 -0.034108 0.026558 0.304555
 38   1.139685 -3.453749 -2.823813 0.000063 -0.000060 0.000123
 39   -4.457742 -1.054854 -0.746180 0.000132 0.000288 -0.001178
 40   1.118101 -3.449769 3.237290 -0.000021 -0.000071 0.000367
 41   -4.433840 -1.059130 0.959566 0.000011 0.000024 -0.000084
 42   -0.657468 1.697302 -2.688614 0.000863 0.001336 -0.000084
 43   -0.664068 1.698578 2.869377 -0.001000 -0.001504 0.000251
time 2
  0   0.009046 4.281381 1.527761 0.000000 0.000000 -1.571544
  1   -1.093036 0.000002 -0.326057 -1.570599 -1.570379 -0.000171
  2   2.262337 0.113614 0.064702 -0.001428 0.008570 -0.060279
  3   2.380047 0.353302 0.047440 -0.207929 -0.083129 0.090315
  4   2.033756 0.190472 -0.000128 -0.186225 0.059791 0.104185
  5   2.451511 0.204909 -0.003447 -0.260433 -0.012839 0.147466
  6   7.247600 -0.397300 -0.109469 -0.004182 0.368140 0.385561
  7   -2.022252 -0.104661 3.136172 0.120116 -0.908337 -3.674751
  8   1.168026 -0.537438 -0.063437 -1.230571 0.892290 -0.673470
  9   6.790376 -0.619176 0.015206 -0.000102 -0.000151 -0.703283
 10   8.637599 0.544015 -0.090417 -3.082186 0.528783 0.285133
 11   6.790465 -0.619039 0.017802 -0.000809 -0.011253 -0.507510
 12   -2.022474 -0.104699 -2.873818 -2.819743 1.334314 -0.073313
 13   1.167898 -0.537463 0.063297 -0.157459 -1.056735 -0.878935
 14   7.002743 -0.617765 -0.183752 0.000115 0.000194 -1.849772
 15   8.209042 0.615527 -0.255885 2.042277 0.106617 0.934467
 16   7.002735 -0.617911 -0.183641 0.013027 0.010131 -1.313413
 17   1.574674 0.609930 -0.000899 0.472209 -0.601178 0.187163
 18   -0.602177 0.511412 -0.000006 0.000000 0.000000 0.000000
 19   3.646428 0.364526 1.119313 -0.000002 -0.000014 -0.174510
 20   3.646422 0.364499 -1.117566 0.000007 -0.000003 -0.174546
 21   3.805634 1.330634 1.627658 0.000002 -0.000011 -0.000026
 22   -0.246060 -0.011889 0.516521 -0.000011 0.000031 0.000025
 23   3.805651 1.330659 -1.631083 0.000019 0.000002 -0.000024
 24   -0.246150 -0.011872 -0.516511 -0.000005 -0.000006 0.000048
 25   4.941364 1.997338 1.629330 0.000018 -0.000001 -0.000024
 26   4.941382 1.997366 -1.629410 -0.000001 0.000005 -0.000024
 27   2.930087 1.603639 1.514501 -0.000019 -0.000022 -0.000050
 28   2.932517 1.603245 -1.501142 -0.000002 -0.000009 -0.000024
 29   8.824059 0.150544 0.091743 0.003838 -0.001323 -0.163053
 30   2.111085 -0.561179 1.784320 -0.000103 0.006728 0.000496
 31   2.121290 -0.561289 -1.853599 0.000000 -0.009765 0.000544
 32   -0.810489 -0.093824 3.127092 0.262828 -3.097583 -0.334759
 33   14.298673 -0.408176 0.475484 0.003675 -0.003118 -0.522390
 34   15.835795 0.581398 0.242756 -0.001248 0.032043 0.122292
 35   -0.815868 -0.091229 -3.114430 -0.132801 3.034913 -0.011454
 36   14.294526 -0.410349 -0.463635 -0.002676 0.001857 -0.384687
 37   15.834409 0.579420 -0.284600 -0.034108 0.026558 0.304555
 38   1.139685 -3.453749 -2.823813 0.000400 -0.000277 0.000795
 39   -4.457742 -1.047041 -0.746180 0.000491 0.001127 -0.004459
 40   1.118101 -3.449769 3.237290 -0.000168 -0.000336 0.001405
 41   -4.433840 -1.051317 0.959566 0.000047 0.000108 -0.000449
 42   -0.657468 1.697302 -2.680801 0.003308 0.005169 -0.000418
 43   -0.664068 1.698578 2.861564 -0.003886 -0.005851 0.001004
time 3
  0   0.009046 4.281381 1.527761 0.000000 0.000000 -1.571544
  1   -1.093036 0.000002 -0.326057 -1.570599 -1.570379 -0.000171
  2   2.262337 0.113614 0.064702 -0.001428 0.008570 -0.060279
  3   2.380047 0.353302 0.047440 -0.208244 -0.081344 0.096396
  4   2.033756 0.190472 -0.000128 -0.184823 0.057874 0.088635
  5   2.451511 0.204909 -0.003447 -0.260433 -0.016050 0.129709
  6   7.247600 -0.397300 -0.109469 -0.004182 0.368140 0.385561
  7   -2.022252 -0.104661 3.136172 0.120116 -0.908337 -3.674751
  8   1.168026 -0.537438 -0.063437 -1.211776 0.911661 -0.654492
  9   6.790376 -0.619176 0.015206 -0.000102 -0.000151 -0.686378
 10   8.637599 0.544015 -0.090417 -3.082186 0.527375 0.272183
 11   6.790465 -0.619039 0.017802 -0.000838 -0.011253 -0.495629
 12   -2.022474 -0.104699 -2.873818 -2.821755 1.332805 -0.075515
 13   1.167898 -0.537463 0.063297 -0.200761 -1.074076 -0.836076
 14   7.002743 -0.617765 -0.183752 0.000115 0.000194 -1.849772
 15   8.209042 0.615527 -0.255885 2.042277 0.106693 0.933986
 16   7.002735 -0.617911 -0.183641 0.013027 0.010131 -1.313468
 17   1.574674 0.609930 -0.000899 0.456570 -0.601533 0.220206
 18   -0.602177 0.511412 -0.000006 0.000000 0.000000 0.000000
 19   3.646428 0.364526 1.119313 -0.000002 -0.000014 -0.174510
 20   3.646422 0.364499 -1.117566 0.000007 -0.000003 -0.174546
 21   3.805634 1.330634 1.627658 0.000002 -0.000011 -0.000026
 22   -0.246060 -0.011889 0.516521 -0.000011 0.000031 0.000025
 23   3.805651 1.330659 -1.631083 0.000019 0.000002 -0.000024
 24   -0.246150 -0.011872 -0.516511 -0.000005 -0.000006 0.000048
 25   4.941364 1.997338 1.629330 0.000018 -0.000001 -0.000024
 26   4.941382 1.997366 -1.629410 -0.000001 0.000005 -0.000024
 27   2.930087 1.603639 1.514501 -0.000019 -0.000022 -0.000050
 28   2.932517 1.603245 -1.501142 -0.000002 -0.000009 -0.000024
 29   8.824059 0.150544 0.091743 0.008472 -0.002629 -0.149802
 30   2.111085 -0.561179 1.776507 -0.000225 0.015185 0.001075
 31   2.129103 -0.561289 -1.845786 0.000031 -0.020902 0.001163
 32   -0.810489 -0.093824 3.127092 0.262828 -3.097583 -0.334759
 33   14.298673 -0.408176 0.475484 0.003675 -0.003118 -0.522390
 34   15.835795 0.581398 0.242756 -0.001248 0.032043 0.122292
 35   -0.815868 -0.091229 -3.114430 -0.132801 3.034913 -0.011454
 36   14.294526 -0.410349 -0.463635 -0.002676 0.001857 -0.384687
 37   15.834409 0.579420 -0.284600 -0.034108 0.026558 0.304555
 38   1.139685 -3.453749 -2.823813 0.000842 -0.000627 0.001895
 39   -4.457742 -1.027509 -0.746180 0.001091 0.002409 -0.009648
 40   1.118101 -3.449769 3.237290 -0.000400 -0.000746 0.003116
 41   -4.426027 -1.043504 0.959566 0.000107 0.000228 -0.000954
 42   -0.649655 1.697302 -2.661269 0.007095 0.011057 -0.001046
 43   -0.664068 1.698578 2.849845 -0.008309 -0.012520 0.002133
time 4
  0   0.009046 4.281381 1.527761 0.000000 0.000000 -1.571544
  1   -1.093036 0.000002 -0.326057 -1.570599 -1.570379 -0.000171
  2   2.262337 0.113614 0.064702 -0.001428 0.008570 -0.060279
  3   2.380047 0.353302 0.047440 -0.208394 -0.080457 0.099518
  4   2.033756 0.190472 -0.000128 -0.184067 0.056867 0.080842
  5   2.451511 0.204909 -0.003447 -0.260433 -0.017669 0.120744
  6   7.247600 -0.397300 -0.109469 -0.003522 0.369122 0.397535
  7   -2.022252 -0.104661 3.136172 0.114077 -0.909346 -3.681512
  8   1.168026 -0.537438 -0.063437 -1.202411 0.921774 -0.645256
  9   6.790376 -0.619176 0.015206 -0.000102 -0.000151 -0.677775
 10   8.637599 0.544015 -0.090417 -3.082450 0.526460 0.265672
 11   6.790465 -0.619039 0.017802 -0.000838 -0.011253 -0.489631
 12   -2.022474 -0.104699 -2.873818 -2.807671 1.329351 -0.073600
 13   1.167898 -0.537463 0.063297 -0.222271 -1.083585 -0.814344
 14   7.002743 -0.617765 -0.183752 0.000115 0.000194 -1.849937
 15   8.209042 0.615527 -0.255885 2.042277 0.107147 0.933264
 16   7.002735 -0.617911 -0.183641 0.013027 0.010131 -1.313634
 17   1.574674 0.609930 -0.000899 0.457748 -0.602101 0.213146
 18   -0.602177 0.511412 -0.000006 0.000000 0.000000 0.000000
 19   3.646428 0.364526 1.119313 -0.000002 -0.000014 -0.174510
 20   3.646422 0.364499 -1.117566 0.000007 -0.000003 -0.174546
 21   3.805634 1.330634 1.627658 0.000002 -0.000011 -0.000026
 22   -0.246060 -0.011889 0.516521 -0.000011 0.000031 0.000025
 23   3.805651 1.330659 -1.631083 0.000019 0.000002 -0.000024
 24   -0.246150 -0.011872 -0.516511 -0.000005 -0.000006 0.000048
 25   4.941364 1.997338 1.629330 0.000018 -0.000001 -0.000024
 26   4.941382 1.997366 -1.629410 -0.000001 0.000005 -0.000024
 27   2.930087 1.603639 1.514501 -0.000019 -0.000022 -0.000050
 28   2.932517 1.603245 -1.501142 -0.000002 -0.000009 -0.000024
 29   8.824059 0.150544 0.091743 0.014265 -0.004409 -0.132849
 30   2.118898 -0.561179 1.764788 -0.000361 0.026111 0.001804
 31   2.133009 -0.561289 -1.837973 0.000046 -0.035330 0.001945
 32   -0.810489 -0.093824 3.127092 0.262828 -3.097583 -0.334759
 33   14.298673 -0.408176 0.475484 0.003675 -0.003118 -0.522390
 34   15.835795 0.581398 0.242756 -0.001248 0.032043 0.122292
 35   -0.815868 -0.091229 -3.114430 -0.132801 3.034913 -0.011454
 36   14.294526 -0.410349 -0.463635 -0.002676 0.001857 -0.384687
 37   15.834409 0.579420 -0.284600 -0.034108 0.026558 0.304555
 38   1.147498 -3.453749 -2.823813 0.001410 -0.001073 0.003239
 39   -4.457742 -1.011884 -0.738367 0.001846 0.004075 -0.016267
 40   1.110288 -3.449769 3.237290 -0.000674 -0.001276 0.005254
 41   -4.410401 -1.031785 0.967379 0.000191 0.000384 -0.001599
 42   -0.649655 1.697302 -2.641737 0.011973 0.018631 -0.001756
 43   -0.664068 1.698578 2.830313 -0.014031 -0.021134 0.003638
time 5
  0   0.009046 4.281381 1.527761 0.000000 0.000000 -1.571544
  1   -1.093036 0.000002 -0.326057 -1.570599 -1.570379 -0.000171
  2   2.262337 0.113614 0.064702 -0.001428 0.008570 -0.060279
  3   2.380047 0.353302 0.047440 -0.208514 -0.079594 0.102497
  4   2.033756 0.190472 -0.000128 -0.183366 0.055908 0.073701
  5   2.451511 0.204909 -0.003447 -0.260433 -0.019210 0.112200
  6   7.247600 -0.397300 -0.109469 -0.001941 0.371687 0.428229
  7   -2.022252 -0.104661 3.136172 0.098644 -0.912229 -3.698041
  8   1.168026 -0.537438 -0.063437 -1.193615 0.931334 -0.637032
  9   6.790376 -0.619176 0.015206 -0.000102 -0.000151 -0.670379
 10   8.637599 0.544015 -0.090417 -3.082626 0.525193 0.259740
 11   6.790465 -0.619039 0.017802 -0.000867 -0.011253 -0.484440
 12   -2.022474 -0.104699 -2.873818 -2.776055 1.322995 -0.071781
 13   1.167898 -0.537463 0.063297 -0.241812 -1.093807 -0.794731
 14   7.002743 -0.617765 -0.183752 0.000115 0.000194 -1.849937
 15   8.209042 0.615527 -0.255885 2.042277 0.108054 0.931941
 16   7.002735 -0.617911 -0.183641 0.013027 0.010131 -1.313689
 17   1.574674 0.609930 -0.000899 0.461688 -0.602953 0.193372
 18   -0.602177 0.511412 -0.000006 0.000000 0.000000 0.000000
 19   3.646428 0.364526 1.119313 -0.000002 -0.000014 -0.174510
 20   3.646422 0.364499 -1.117566 0.000007 -0.000003 -0.174546
 21   3.805634 1.330634 1.627658 0.000002 -0.000011 -0.000026
 22   -0.246060 -0.011889 0.516521 -0.000011 0.000031 0.000025
 23   3.805651 1.330659 -1.631083 0.000019 0.000002 -0.000024
 24   -0.246150 -0.011872 -0.516511 -0.000005 -0.000006 0.000048
 25   4.941364 1.997338 1.629330 0.000018 -0.000001 -0.000024
 26   4.941382 1.997366 -1.629410 -0.000001 0.000005 -0.000024
 27   2.930087 1.603639 1.514501 -0.000019 -0.000022 -0.000050
 28   2.932517 1.603245 -1.501142 -0.000002 -0.000009 -0.000024
 29   8.824059 0.150544 0.091743 0.021038 -0.006617 -0.112785
 30   2.122804 -0.561179 1.753069 -0.000537 0.038927 0.002640
 31   2.140822 -0.561289 -1.834067 0.000092 -0.052191 0.002891
 32   -0.810489 -0.093824 3.127092 0.262828 -3.097583 -0.334759
 33   14.298673 -0.408176 0.475484 0.003675 -0.003118 -0.522390
 34   15.835795 0.581398 0.242756 -0.001248 0.032043 0.122292
 35   -0.815868 -0.091229 -3.114430 -0.132801 3.034913 -0.011454
 36   14.294526 -0.410349 -0.463635 -0.002676 0.001857 -0.384687
 37   15.834409 0.579420 -0.284600 -0.034108 0.026558 0.304555
 38   1.147498 -3.453749 -2.823813 0.002126 -0.001579 0.004766
 39   -4.457742 -0.992352 -0.734461 0.002721 0.006016 -0.024035
 40   1.110288 -3.449769 3.237290 -0.000989 -0.001903 0.007820
 41   -4.402589 -1.020066 0.967379 0.000287 0.000575 -0.002384
 42   -0.637936 1.697302 -2.618299 0.017689 0.027570 -0.002635
 43   -0.664068 1.690765 2.806875 -0.020753 -0.031240 0.005395
time 6
  0   0.009046 4.281381 1.527761 0.000000 0.000000 -1.571544
  1   -1.093036 0.000002 -0.326057 -1.570599 -1.570379 -0.000171
  2   2.262337 0.113614 0.064702 -0.001428 0.008570 -0.060279
  3   2.380047 0.353302 0.047440 -0.208754 -0.077916 0.108129
  4   2.033756 0.190472 -0.000128 -0.182057 0.054302 0.060870
  5   2.451511 0.204909 -0.003447 -0.260433 -0.022082 0.096028
  6   7.247600 -0.397300 -0.109469 0.000301 0.375211 0.470960
  7   -2.022252 -0.104661 3.136172 0.077268 -0.916466 -3.720674
  8   1.168026 -0.537438 -0.063437 -1.177099 0.948944 -0.621217
  9   6.790376 -0.619176 0.015206 -0.000102 -0.000151 -0.656946
 10   8.637599 0.544015 -0.090417 -3.083419 0.522659 0.248816
 11   6.790465 -0.619039 0.017802 -0.000955 -0.011196 -0.475097
 12   -2.022474 -0.104699 -2.873818 -2.736582 1.311675 -0.073983
 13   1.167898 -0.537463 0.063297 -0.279490 -1.112571 -0.756836
 14   7.002743 -0.617765 -0.183752 0.000115 0.000194 -1.850267
 15   8.209042 0.615527 -0.255885 2.042277 0.109568 0.929295
 16   7.002735 -0.617911 -0.183641 0.013027 0.010131 -1.313910
 17   1.574674 0.609930 -0.000899 0.468594 -0.604160 0.163434
 18   -0.602177 0.511412 -0.000006 0.000000 0.000000 0.000000
 19   3.646428 0.364526 1.119313 -0.000002 -0.000014 -0.174510
 20   3.646422 0.364499 -1.117566 0.000007 -0.000003 -0.174546
 21   3.805634 1.330634 1.627658 0.000002 -0.000011 -0.000026
 22   -0.246060 -0.011889 0.516521 -0.000011 0.000031 0.000025
 23   3.805651 1.330659 -1.631083 0.000019 0.000002 -0.000024
 24   -0.246150 -0.011872 -0.516511 -0.000005 -0.000006 0.000048
 25   4.941364 1.997338 1.629330 0.000018 -0.000001 -0.000024
 26   4.941382 1.997366 -1.629410 -0.000001 0.000005 -0.000024
 27   2.930087 1.603639 1.514501 -0.000019 -0.000022 -0.000050
 28   2.932517 1.603245 -1.501142 -0.000002 -0.000009 -0.000024
 29   8.824059 0.150544 0.091743 0.028525 -0.009228 -0.090682
 30   2.130617 -0.561179 1.741350 -0.000727 0.053079 0.003583
 31   2.152541 -0.561289 -1.822348 0.000138 -0.070866 0.003965
 32   -0.810489 -0.093824 3.127092 0.262828 -3.097583 -0.334759
 33   14.298673 -0.408176 0.475484 0.003675 -0.003118 -0.522390
 34   15.835795 0.581398 0.242756 -0.001248 0.032043 0.122292
 35   -0.815868 -0.091229 -3.114430 -0.132801 3.034913 -0.011454
 36   14.294526 -0.410349 -0.463635 -0.002676 0.001857 -0.384687
 37   15.834409 0.579420 -0.284600 -0.034108 0.026558 0.304555
 38   1.155311 -3.453749 -2.823813 0.002884 -0.002145 0.006538
 39   -4.457742 -0.961101 -0.726648 0.003691 0.008162 -0.032645
 40   1.106382 -3.449769 3.237290 -0.001347 -0.002602 0.010692
 41   -4.386963 -1.000534 0.979098 0.000383 0.000791 -0.003225
 42   -0.637936 1.697302 -2.594861 0.024017 0.037413 -0.003597
 43   -0.664068 1.690765 2.787343 -0.028187 -0.042428 0.007319
time 7
  0   0.009046 4.281381 1.527761 0.000000 0.000000 -1.571544
  1   -1.093036 0.000002 -0.326057 -1.570599 -1.570379 -0.000171
  2   2.262337 0.113614 0.064702 -0.001428 0.008570 -0.060279
  3   2.380047 0.353302 0.047440 -0.208859 -0.077113 0.110904
  4   2.033756 0.190472 -0.000128 -0.181485 0.053619 0.055252
  5   2.451511 0.204909 -0.003447 -0.260416 -0.023401 0.088598
  6   7.247600 -0.397300 -0.109469 0.001427 0.376888 0.492373
  7   -2.022252 -0.104661 3.136172 0.066628 -0.918599 -3.732038
  8   1.168026 -0.537438 -0.063437 -1.169885 0.956944 -0.614385
  9   6.790376 -0.619176 0.015206 -0.000102 -0.000151 -0.651663
 10   8.637599 0.544015 -0.090417 -3.083595 0.521462 0.244186
 11   6.790465 -0.619039 0.017802 -0.000984 -0.011196 -0.471348
 12   -2.022474 -0.104699 -2.873818 -2.717516 1.305696 -0.076185
 13   1.167898 -0.537463 0.063297 -0.296501 -1.121165 -0.739705
 14   7.002743 -0.617765 -0.183752 0.000115 0.000194 -1.850432
 15   8.209042 0.615527 -0.255885 2.042277 0.110400 0.927912
 16   7.002735 -0.617911 -0.183641 0.013027 0.010131 -1.314020
 17   1.574674 0.609930 -0.000899 0.472859 -0.604586 0.146543
 18   -0.602177 0.511412 -0.000006 0.000000 0.000000 0.000000
 19   3.646428 0.364526 1.119313 -0.000002 -0.000014 -0.174510
 20   3.646422 0.364499 -1.117566 0.000007 -0.000003 -0.174546
 21   3.805634 1.330634 1.627658 0.000002 -0.000011 -0.000026
 22   -0.246060 -0.011889 0.516521 -0.000011 0.000031 0.000025
 23   3.805651 1.330659 -1.631083 0.000019 0.000002 -0.000024
 24   -0.246150 -0.011872 -0.516511 -0.000005 -0.000006 0.000048
 25   4.941364 1.997338 1.629330 0.000018 -0.000001 -0.000024
 26   4.941382 1.997366 -1.629410 -0.000001 0.000005 -0.000024
 27   2.930087 1.603639 1.514501 -0.000019 -0.000022 -0.000050
 28   2.932517 1.603245 -1.501142 -0.000002 -0.000009 -0.000024
 29   8.824059 0.150544 0.091743 0.036367 -0.012124 -0.067345
 30   2.138430 -0.561179 1.721818 -0.000944 0.068074 0.004570
 31   2.160354 -0.561289 -1.814535 0.000184 -0.090655 0.005075
 32   -0.810489 -0.093824 3.127092 0.262828 -3.097583 -0.334759
 33   14.298673 -0.408176 0.475484 0.003675 -0.003118 -0.522390
 34   15.835795 0.581398 0.242756 -0.001248 0.032043 0.122292
 35   -0.815868 -0.091229 -3.114430 -0.132801 3.034913 -0.011454
 36   14.294526 -0.410349 -0.463635 -0.002676 0.001857 -0.384687
 37   15.834409 0.579420 -0.284600 -0.034108 0.026558 0.304555
 38   1.159217 -3.461562 -2.823813 0.003684 -0.002748 0.008371
 39   -4.465555 -0.937663 -0.718835 0.004734 0.010463 -0.041760
 40   1.098569 -3.441956 3.237290 -0.001726 -0.003325 0.013624
 41   -4.371338 -0.988815 0.979098 0.000490 0.001019 -0.004151
 42   -0.626217 1.697302 -2.563610 0.030717 0.047854 -0.004558
 43   -0.664068 1.686859 2.763905 -0.036033 -0.054275 0.009284
time 8
  0   0.009046 4.281381 1.527761 0.000000 0.000000 -1.571544
  1   -1.093036 0.000002 -0.326057 -1.570599 -1.570379 -0.000171
  2   2.262337 0.113614 0.064702 -0.001428 0.008570 -0.060279
  3   2.380047 0.353302 0.047440 -0.208934 -0.076478 0.113006
  4   2.033756 0.190472 -0.000128 -0.181153 0.053236 0.051736
  5   2.451511 0.204909 -0.003447 -0.260296 -0.024406 0.082011
  6   7.247600 -0.397300 -0.109469 0.002722 0.378554 0.513786
  7   -2.022252 -0.104661 3.136172 0.055892 -0.920992 -3.743495
  8   1.168026 -0.537438 -0.063437 -1.164063 0.963535 -0.609071
  9   6.790376 -0.619176 0.015206 -0.000102 -0.000151 -0.648418
 10   8.637599 0.544015 -0.090417 -3.083947 0.520336 0.241003
 11   6.790465 -0.619039 0.017802 -0.000984 -0.011196 -0.469041
 12   -2.022474 -0.104699 -2.873818 -2.700655 1.299804 -0.080302
 13   1.167898 -0.537463 0.063297 -0.309435 -1.128539 -0.726690
 14   7.002743 -0.617765 -0.183752 0.000115 0.000194 -1.850597
 15   8.209042 0.615527 -0.255885 2.042277 0.111081 0.926348
 16   7.002735 -0.617911 -0.183641 0.013027 0.010131 -1.314020
 17   1.574674 0.609930 -0.000899 0.478871 -0.604799 0.126547
 18   -0.602177 0.511412 -0.000006 0.000000 0.000000 0.000000
 19   3.646428 0.364526 1.119313 -0.000002 -0.000014 -0.174510
 20   3.646422 0.364499 -1.117566 0.000007 -0.000003 -0.174546
 21   3.805634 1.330634 1.627658 0.000002 -0.000011 -0.000026
 22   -0.246060 -0.011889 0.516521 -0.000011 0.000031 0.000025
 23   3.805651 1.330659 -1.631083 0.000019 0.000002 -0.000024
 24   -0.246150 -0.011872 -0.516511 -0.000005 -0.000006 0.000048
 25   4.941364 1.997338 1.629330 0.000018 -0.000001 -0.000024
 26   4.941382 1.997366 -1.629410 -0.000001 0.000005 -0.000024
 27   2.930087 1.603639 1.514501 -0.000019 -0.000022 -0.000050
 28   2.932517 1.603245 -1.501142 -0.000002 -0.000009 -0.000024
 29   8.824059 0.150544 0.091743 0.044210 -0.015305 -0.043579
 30   2.142336 -0.561179 1.710099 -0.001161 0.083331 0.005578
 31   2.172073 -0.561289 -1.802816 0.000215 -0.110755 0.006203
 32   -0.810489 -0.093824 3.127092 0.262828 -3.097583 -0.334759
 33   14.298673 -0.408176 0.475484 0.003675 -0.003118 -0.522390
 34   15.835795 0.581398 0.242756 -0.001248 0.032043 0.122292
 35   -0.815868 -0.091229 -3.114430 -0.132801 3.034913 -0.011454
 36   14.294526 -0.410349 -0.463635 -0.002676 0.001857 -0.384687
 37   15.834409 0.579420 -0.284600 -0.034108 0.026558 0.304555
 38   1.159217 -3.461562 -2.823813 0.004505 -0.003350 0.010326
 39   -4.465555 -0.910318 -0.714929 0.005789 0.012776 -0.051015
 40   1.098569 -3.441956 3.237290 -0.002126 -0.004048 0.016740
 41   -4.355712 -0.965377 0.990817 0.000610 0.001234 -0.005048
 42   -0.618404 1.697302 -2.536265 0.037548 0.058464 -0.005646
 43   -0.664068 1.679046 2.736560 -0.044042 -0.066310 0.011417
time 9
  0   0.009046 4.281381 1.527761 0.000000 0.000000 -1.571544
  1   -1.093036 0.000002 -0.326057 -1.570599 -1.570379 -0.000171
  2   2.262337 0.113614 0.064702 -0.001428 0.008570 -0.060279
  3   2.380047 0.353302 0.047440 -0.209114 -0.075339 0.116679
  4   2.033756 0.190472 -0.000128 -0.180600 0.052553 0.046444
  5   2.451511 0.204909 -0.003447 -0.260142 -0.026181 0.068489
  6   7.247600 -0.397300 -0.109469 0.005382 0.381874 0.556707
  7   -2.022252 -0.104661 3.136172 0.034899 -0.925835 -3.766504
  8   1.168026 -0.537438 -0.063437 -1.152546 0.976516 -0.597874
  9   6.790376 -0.619176 0.015206 -0.000102 -0.000151 -0.642305
 10   8.637599 0.544015 -0.090417 -3.084299 0.518224 0.234709
 11   6.790465 -0.619039 0.017802 -0.000984 -0.011196 -0.464773
 12   -2.022474 -0.104699 -2.873818 -2.666451 1.288456 -0.088440
 13   1.167898 -0.537463 0.063297 -0.335374 -1.142625 -0.701023
 14   7.002743 -0.617765 -0.183752 0.000115 0.000194 -1.850845
 15   8.209042 0.615527 -0.255885 2.042277 0.112670 0.923642
 16   7.002735 -0.617911 -0.183641 0.013027 0.010131 -1.314296
 17   1.574674 0.609930 -0.000899 0.491219 -0.605225 0.086000
 18   -0.602177 0.511412 -0.000006 0.000000 0.000000 0.000000
 19   3.646428 0.364526 1.119313 -0.000002 -0.000014 -0.174510
 20   3.646422 0.364499 -1.117566 0.000007 -0.000003 -0.174546
 21   3.805634 1.330634 1.627658 0.000002 -0.000011 -0.000026
 22   -0.246060 -0.011889 0.516521 -0.000011 0.000031 0.000025
 23   3.805651 1.330659 -1.631083 0.000019 0.000002 -0.000024
 24   -0.246150 -0.011872 -0.516511 -0.000005 -0.000006 0.000048
 25   4.941364 1.997338 1.629330 0.000018 -0.000001 -0.000024
 26   4.941382 1.997366 -1.629410 -0.000001 0.000005 -0.000024
 27   2.930087 1.603639 1.514501 -0.000019 -0.000022 -0.000050
 28   2.932517 1.603245 -1.501142 -0.000002 -0.000009 -0.000024
 29   8.824059 0.150544 0.091743 0.051963 -0.018628 -0.020242
 30   2.150149 -0.561179 1.698380 -0.001378 0.098326 0.006607
 31   2.183792 -0.561289 -1.791097 0.000245 -0.130491 0.007313
 32   -0.810489 -0.093824 3.127092 0.262828 -3.097583 -0.334759
 33   14.298673 -0.408176 0.475484 0.003675 -0.003118 -0.522390
 34   15.835795 0.581398 0.242756 -0.001248 0.032043 0.122292
 35   -0.815868 -0.091229 -3.114430 -0.132801 3.034913 -0.011454
 36   14.294526 -0.410349 -0.463635 -0.002676 0.001857 -0.384687
 37   15.834409 0.579420 -0.284600 -0.034108 0.026558 0.304555
 38   1.167030 -3.461562 -2.823813 0.005304 -0.003965 0.012159
 39   -4.465555 -0.886880 -0.707116 0.006807 0.015065 -0.060130
 40   1.090756 -3.441956 3.237290 -0.002526 -0.004771 0.019734
 41   -4.343993 -0.953658 0.990817 0.000718 0.001450 -0.005974
 42   -0.614498 1.689489 -2.508921 0.044223 0.068921 -0.006650
 43   -0.664068 1.679046 2.713122 -0.051888 -0.078126 0.013466
time 10
  0   0.009046 4.281381 1.527761 0.000000 0.000000 -1.571544
  1   -1.093036 0.000002 -0.326057 -1.570599 -1.570379 -0.000171
  2   2.262337 0.113614 0.064702 -0.001428 0.008570 -0.060279
  3   2.380047 0.353302 0.047440 -0.209189 -0.074896 0.118250
  4   2.033756 0.190472 -0.000128 -0.180360 0.052301 0.044051
  5   2.451511 0.204909 -0.003447 -0.260005 -0.027056 0.061332
  6   7.247600 -0.397300 -0.109469 0.007384 0.384127 0.587623
  7   -2.022252 -0.104661 3.136172 0.019561 -0.929409 -3.783127
  8   1.168026 -0.537438 -0.063437 -1.146724 0.983208 -0.592054
  9   6.790376 -0.619176 0.015206 -0.000102 -0.000151 -0.639211
 10   8.637599 0.544015 -0.090417 -3.084916 0.517098 0.231743
 11   6.790465 -0.619039 0.017802 -0.000984 -0.011196 -0.462639
 12   -2.022474 -0.104699 -2.873818 -2.640967 1.282709 -0.092461
 13   1.167898 -0.537463 0.063297 -0.349433 -1.149338 -0.687221
 14   7.002743 -0.617765 -0.183752 0.000115 0.000194 -1.851010
 15   8.209042 0.615527 -0.255885 2.042277 0.113502 0.922439
 16   7.002735 -0.617911 -0.183641 0.013027 0.010131 -1.314462
 17   1.574674 0.609930 -0.000899 0.501131 -0.605225 0.054953
 18   -0.602177 0.511412 -0.000006 0.000000 0.000000 0.000000
 19   3.646428 0.364526 1.119313 -0.000002 -0.000014 -0.174510
 20   3.646422 0.364499 -1.117566 0.000007 -0.000003 -0.174546
 21   3.805634 1.330634 1.627658 0.000002 -0.000011 -0.000026
 22   -0.246060 -0.011889 0.516521 -0.000011 0.000031 0.000025
 23   3.805651 1.330659 -1.631083 0.000019 0.000002 -0.000024
 24   -0.246150 -0.011872 -0.516511 -0.000005 -0.000006 0.000048
 25   4.941364 1.997338 1.629330 0.000018 -0.000001 -0.000024
 26   4.941382 1.997366 -1.629410 -0.000001 0.000005 -0.000024
 27   2.930087 1.603639 1.514501 -0.000019 -0.000022 -0.000050
 28   2.932517 1.603245 -1.501142 -0.000002 -0.000009 -0.000024
 29   8.824059 0.150544 0.091743 0.059093 -0.021928 0.001754
 30   2.154055 -0.553366 1.682754 -0.001554 0.112507 0.007529
 31   2.191605 -0.561289 -1.783284 0.000276 -0.149166 0.008350
 32   -0.810489 -0.093824 3.127092 0.262828 -3.097583 -0.334759
 33   14.298673 -0.408176 0.475484 0.003675 -0.003118 -0.522390
 34   15.835795 0.581398 0.242756 -0.001248 0.032043 0.122292
 35   -0.815868 -0.091229 -3.114430 -0.132801 3.034913 -0.011454
 36   14.294526 -0.410349 -0.463635 -0.002676 0.001857 -0.384687
 37   15.834409 0.579420 -0.284600 -0.034108 0.026558 0.304555
 38   1.170936 -3.465468 -2.823813 0.006062 -0.004519 0.013931
 39   -4.473368 -0.855629 -0.707116 0.007790 0.017222 -0.068740
 40   1.086850 -3.438050 3.237290 -0.002884 -0.005470 0.022544
 41   -4.332274 -0.934126 1.002536 0.000838 0.001678 -0.006815
 42   -0.606685 1.689489 -2.481576 0.050575 0.078764 -0.007611
 43   -0.664068 1.679046 2.689684 -0.059322 -0.089314 0.015390
time 11
  0   0.009046 4.281381 1.527761 0.000000 0.000000 -1.571544
  1   -1.093036 0.000002 -0.326057 -1.570599 -1.570379 -0.000171
  2   2.262337 0.113614 0.064702 -0.001428 0.008570 -0.060279
  3   2.380047 0.353302 0.047440 -0.209249 -0.074596 0.119148
  4   2.033756 0.190472 -0.000128 -0.180323 0.052253 0.043725
  5   2.451511 0.204909 -0.003447 -0.259851 -0.027578 0.056032
  6   7.247600 -0.397300 -0.109469 0.008163 0.385038 0.599628
  7   -2.022252 -0.104661 3.136172 0.013522 -0.930908 -3.789513
  8   1.168026 -0.537438 -0.063437 -1.143054 0.987887 -0.588385
  9   6.790376 -0.619176 0.015206 -0.000102 -0.000151 -0.637777
 10   8.637599 0.544015 -0.090417 -3.085004 0.516324 0.229862
 11   6.790465 -0.619039 0.017802 -0.000984 -0.011196 -0.461601
 12   -2.022474 -0.104699 -2.873818 -2.632536 1.278820 -0.096674
 13   1.167898 -0.537463 0.063297 -0.358430 -1.154016 -0.678504
 14   7.002743 -0.617765 -0.183752 0.000115 0.000194 -1.851175
 15   8.209042 0.615527 -0.255885 2.042277 0.114183 0.921417
 16   7.002735 -0.617911 -0.183641 0.013027 0.010131 -1.314517
 17   1.574674 0.609930 -0.000899 0.505274 -0.605225 0.042054
 18   -0.602177 0.511412 -0.000006 0.000000 0.000000 0.000000
 19   3.646428 0.364526 1.119313 -0.000002 -0.000014 -0.174510
 20   3.646422 0.364499 -1.117566 0.000007 -0.000003 -0.174546
 21   3.805634 1.330634 1.627658 0.000002 -0.000011 -0.000026
 22   -0.246060 -0.011889 0.516521 -0.000011 0.000031 0.000025
 23   3.805651 1.330659 -1.631083 0.000019 0.000002 -0.000024
 24   -0.246150 -0.011872 -0.516511 -0.000005 -0.000006 0.000048
 25   4.941364 1.997338 1.629330 0.000018 -0.000001 -0.000024
 26   4.941382 1.997366 -1.629410 -0.000001 0.000005 -0.000024
 27   2.930087 1.603639 1.514501 -0.000019 -0.000022 -0.000050
 28   2.932517 1.603245 -1.501142 -0.000002 -0.000009 -0.000024
 29   8.824059 0.150544 0.091743 0.065599 -0.024990 0.021550
 30   2.161868 -0.553366 1.671035 -0.001744 0.125323 0.008387
 31   2.195511 -0.561289 -1.771565 0.000322 -0.166080 0.009296
 32   -0.810489 -0.093824 3.127092 0.262828 -3.097583 -0.334759
 33   14.298673 -0.408176 0.475484 0.003675 -0.003118 -0.522390
 34   15.835795 0.581398 0.242756 -0.001248 0.032043 0.122292
 35   -0.815868 -0.091229 -3.114430 -0.132801 3.034913 -0.011454
 36   14.294526 -0.410349 -0.463635 -0.002676 0.001857 -0.384687
 37   15.834409 0.579420 -0.284600 -0.034108 0.026558 0.304555
 38   1.178749 -3.465468 -2.823813 0.006778 -0.005037 0.015519
 39   -4.473368 -0.836097 -0.695397 0.008677 0.019151 -0.076509
 40   1.079037 -3.438050 3.237290 -0.003221 -0.006097 0.025110
 41   -4.316648 -0.922407 1.002536 0.000934 0.001870 -0.007628
 42   -0.594966 1.689489 -2.458138 0.056304 0.087703 -0.008490
 43   -0.664068 1.671233 2.670152 -0.066044 -0.099435 0.017147
time 12
  0   0.009046 4.281381 1.527761 0.000000 0.000000 -1.571544
  1   -1.093036 0.000002 -0.326057 -1.570599 -1.570379 -0.000171
  2   2.262337 0.113614 0.064702 -0.001428 0.008570 -0.060279
  3   2.380047 0.353302 0.047440 -0.209279 -0.074201 0.120699
  4   2.033756 0.190472 -0.000128 -0.180323 0.052253 0.043725
  5   2.451511 0.204909 -0.003447 -0.259680 -0.028127 0.048751
  6   7.247600 -0.397300 -0.109469 0.008163 0.385038 0.599628
  7   -2.022252 -0.104661 3.136172 0.013522 -0.930908 -3.789513
  8   1.168026 -0.537438 -0.063437 -1.138561 0.993623 -0.584020
  9   6.790376 -0.619176 0.015206 -0.000102 -0.000151 -0.636796
 10   8.637599 0.544015 -0.090417 -3.085356 0.515127 0.227764
 11   6.790465 -0.619039 0.017802 -0.001013 -0.011196 -0.460909
 12   -2.022474 -0.104699 -2.873818 -2.641925 1.273625 -0.106535
 13   1.167898 -0.537463 0.063297 -0.368272 -1.160627 -0.669061
 14   7.002743 -0.617765 -0.183752 0.000115 0.000194 -1.851340
 15   8.209042 0.615527 -0.255885 2.042277 0.114864 0.919793
 16   7.002735 -0.617911 -0.183641 0.013027 0.010131 -1.314572
 17   1.574674 0.609930 -0.000899 0.496703 -0.610976 0.059315
 18   -0.602177 0.511412 -0.000006 0.000000 0.000000 0.000000
 19   3.646428 0.364526 1.119313 -0.000002 -0.000014 -0.174510
 20   3.646422 0.364499 -1.117566 0.000007 -0.000003 -0.174546
 21   3.805634 1.330634 1.627658 0.000002 -0.000011 -0.000026
 22   -0.246060 -0.011889 0.516521 -0.000011 0.000031 0.000025
 23   3.805651 1.330659 -1.631083 0.000019 0.000002 -0.000024
 24   -0.246150 -0.011872 -0.516511 -0.000005 -0.000006 0.000048
 25   4.941364 1.997338 1.629330 0.000018 -0.000001 -0.000024
 26   4.941382 1.997366 -1.629410 -0.000001 0.000005 -0.000024
 27   2.930087 1.603639 1.514501 -0.000019 -0.000022 -0.000050
 28   2.932517 1.603245 -1.501142 -0.000002 -0.000009 -0.000024
 29   8.824059 0.150544 0.091743 0.070946 -0.027743 0.038503
 30   2.165774 -0.553366 1.659316 -0.001893 0.136221 0.009116
 31   2.207230 -0.561289 -1.763752 0.000337 -0.180429 0.010078
 32   -0.810489 -0.093824 3.127092 0.262828 -3.097583 -0.334759
 33   14.298673 -0.408176 0.475484 0.003675 -0.003118 -0.522390
 34   15.835795 0.581398 0.242756 -0.001248 0.032043 0.122292
 35   -0.815868 -0.091229 -3.114430 -0.132801 3.034913 -0.011454
 36   14.294526 -0.410349 -0.463635 -0.002676 0.001857 -0.384687
 37   15.834409 0.579420 -0.284600 -0.034108 0.026558 0.304555
 38   1.178749 -3.465468 -2.823813 0.007346 -0.005471 0.016802
 39   -4.473368 -0.820472 -0.695397 0.009432 0.020817 -0.083156
 40   1.079037 -3.438050 3.237290 -0.003473 -0.006627 0.027248
 41   -4.308836 -0.910688 1.010349 0.001018 0.002013 -0.008273
 42   -0.594966 1.689489 -2.438606 0.061157 0.095277 -0.009201
 43   -0.664068 1.667327 2.650620 -0.071766 -0.108033 0.018610
time 13
  0   0.009046 4.281381 1.527761 0.000000 0.000000 -1.571544
  1   -1.093036 0.000002 -0.326057 -1.570599 -1.570379 -0.000171
  2   2.262337 0.113614 0.064702 -0.001428 0.008570 -0.060279
  3   2.380047 0.353302 0.047440 -0.209309 -0.074129 0.120903
  4   2.033756 0.190472 -0.000128 -0.180360 0.052301 0.044051
  5   2.451511 0.204909 -0.003447 -0.259646 -0.028035 0.049048
  6   7.247600 -0.397300 -0.109469 0.008163 0.385038 0.599628
  7   -2.022252 -0.104661 3.136172 0.013522 -0.930908 -3.789513
  8   1.168026 -0.537438 -0.063437 -1.139257 0.993321 -0.584779
  9   6.790376 -0.619176 0.015206 -0.000102 -0.000151 -0.637249
 10   8.637599 0.544015 -0.090417 -3.085356 0.514916 0.228198
 11   6.790465 -0.619039 0.017802 -0.000984 -0.011196 -0.461370
 12   -2.022474 -0.104699 -2.873818 -2.645470 1.271535 -0.110652
 13   1.167898 -0.537463 0.063297 -0.365038 -1.162051 -0.672148
 14   7.002743 -0.617765 -0.183752 0.000115 0.000194 -1.851340
 15   8.209042 0.615527 -0.255885 2.042277 0.115318 0.919192
 16   7.002735 -0.617911 -0.183641 0.013027 0.010131 -1.314572
 17   1.574674 0.609930 -0.000899 0.494672 -0.613603 0.062863
 18   -0.602177 0.511412 -0.000006 0.000000 0.000000 0.000000
 19   3.646428 0.364526 1.119313 -0.000002 -0.000014 -0.174510
 20   3.646422 0.364499 -1.117566 0.000007 -0.000003 -0.174546
 21   3.805634 1.330634 1.627658 0.000002 -0.000011 -0.000026
 22   -0.246060 -0.011889 0.516521 -0.000011 0.000031 0.000025
 23   3.805651 1.330659 -1.631083 0.000019 0.000002 -0.000024
 24   -0.246150 -0.011872 -0.516511 -0.000005 -0.000006 0.000048
 25   4.941364 1.997338 1.629330 0.000018 -0.000001 -0.000024
 26   4.941382 1.997366 -1.629410 -0.000001 0.000005 -0.000024
 27   2.930087 1.603639 1.514501 -0.000019 -0.000022 -0.000050
 28   2.932517 1.603245 -1.501142 -0.000002 -0.000009 -0.000024
 29   8.824059 0.150544 0.091743 0.075135 -0.029951 0.051593
 30   2.169681 -0.553366 1.651503 -0.002015 0.144677 0.009652
 31   2.215043 -0.561289 -1.759846 0.000368 -0.191619 0.010715
 32   -0.810489 -0.093824 3.127092 0.262828 -3.097583 -0.334759
 33   14.298673 -0.408176 0.475484 0.003675 -0.003118 -0.522390
 34   15.835795 0.581398 0.242756 -0.001248 0.032043 0.122292
 35   -0.815868 -0.091229 -3.114430 -0.132801 3.034913 -0.011454
 36   14.294526 -0.410349 -0.463635 -0.002676 0.001857 -0.384687
 37   15.834409 0.579420 -0.284600 -0.034108 0.026558 0.304555
 38   1.178749 -3.473281 -2.823813 0.007788 -0.005808 0.017902
 39   -4.473368 -0.800940 -0.687584 0.009995 0.022112 -0.088288
 40   1.079037 -3.430237 3.237290 -0.003726 -0.007037 0.028959
 41   -4.301023 -0.902875 1.010349 0.001078 0.002145 -0.008778
 42   -0.587153 1.689489 -2.426887 0.064944 0.101180 -0.009744
 43   -0.664068 1.667327 2.638901 -0.076214 -0.114734 0.019781
time 14
  0   0.009046 4.281381 1.527761 0.000000 0.000000 -1.571544
  1   -1.093036 0.000002 -0.326057 -1.570599 -1.570379 -0.000171
  2   2.262337 0.113614 0.064702 -0.001428 0.008570 -0.060279
  3   2.380047 0.353302 0.047440 -0.209309 -0.074129 0.120964
  4   2.033756 0.190472 -0.000128 -0.180600 0.052553 0.046444
  5   2.451511 0.204909 -0.003447 -0.259646 -0.027409 0.050955
  6   7.247600 -0.397300 -0.109469 0.008163 0.385038 0.599628
  7   -2.022252 -0.104661 3.136172 0.013522 -0.930908 -3.789513
  8   1.168026 -0.537438 -0.063437 -1.143307 0.991208 -0.589397
  9   6.790376 -0.619176 0.015206 -0.000102 -0.000151 -0.641777
 10   8.637599 0.544015 -0.090417 -3.085620 0.514775 0.230947
 11   6.790465 -0.619039 0.017802 -0.000984 -0.011196 -0.464484
 12   -2.022474 -0.104699 -2.873818 -2.647481 1.270345 -0.112567
 13   1.167898 -0.537463 0.063297 -0.354705 -1.161034 -0.681773
 14   7.002743 -0.617765 -0.183752 0.000115 0.000194 -1.851587
 15   8.209042 0.615527 -0.255885 2.042349 0.115545 0.918831
 16   7.002735 -0.617911 -0.183641 0.013027 0.010244 -1.314627
 17   1.574674 0.609930 -0.000899 0.494388 -0.615733 0.063269
 18   -0.602177 0.511412 -0.000006 0.000000 0.000000 0.000000
 19   3.654241 0.270773 1.119313 -0.000002 -0.000014 -0.174510
 20   3.654235 0.270746 -1.117566 0.000007 -0.000003 -0.174546
 21   3.352495 1.260319 1.576875 0.000002 -0.000011 -0.000026
 22   -0.238247 -0.379088 0.496989 0.000083 -0.028708 0.445010
 23   3.364231 1.256438 -1.623270 0.000019 0.000002 -0.000024
 24   -0.164116 -0.285318 -0.528230 0.000091 -0.028733 0.445062
 25   4.535101 1.997338 1.637143 -0.032209 0.220343 0.007203
 26   4.531213 1.997366 -1.621597 0.035749 -0.204340 -0.020853
 27   3.117593 1.466916 1.506688 -0.000019 -0.000022 -0.000050
 28   3.120023 1.466522 -1.508955 -0.000002 -0.000009 -0.000024
 29   8.824059 0.150544 0.091743 0.077808 -0.031375 0.060015
 30   2.173587 -0.553366 1.647597 -0.002083 0.150169 0.010038
 31   2.215043 -0.561289 -1.759846 0.000383 -0.198819 0.011134
 32   -0.810489 -0.093824 3.127092 0.262828 -3.097583 -0.334759
 33   14.298673 -0.408176 0.475484 0.003675 -0.003118 -0.522390
 34   15.835795 0.581398 0.242756 -0.001248 0.032043 0.122292
 35   -0.815868 -0.091229 -3.114430 -0.132801 3.034913 -0.011454
 36   14.294526 -0.410349 -0.463635 -0.002676 0.001857 -0.384687
 37   15.834409 0.579420 -0.284600 -0.034108 0.026558 0.304555
 38   1.178749 -3.473281 -2.823813 0.008104 -0.006037 0.018574
 39   -4.473368 -0.793127 -0.687584 0.010391 0.022939 -0.091625
 40   1.079037 -3.430237 3.237290 -0.003852 -0.007302 0.030059
 41   -4.297117 -0.891156 1.018162 0.001126 0.002229 -0.009115
 42   -0.583247 1.689489 -2.415168 0.067389 0.104998 -0.010163
 43   -0.664068 1.667327 2.627182 -0.079063 -0.119049 0.020534
time 15
  0   0.009046 4.281381 1.527761 0.000000 0.000000 -1.571544
  1   -1.093036 0.000002 -0.326057 -1.570599 -1.570379 -0.000171
  2   2.262337 0.113614 0.064702 -0.001428 0.008570 -0.060279
  3   2.380047 0.353302 0.047440 -0.209249 -0.074440 0.119699
  4   2.033756 0.190472 -0.000128 -0.181153 0.053236 0.051736
  5   2.451511 0.204909 -0.003447 -0.259800 -0.025281 0.063684
  6   7.247600 -0.397300 -0.109469 0.008163 0.385038 0.599628
  7   -2.022252 -0.104661 3.136172 0.013522 -0.930908 -3.789513
  8   1.168026 -0.537438 -0.063437 -1.157735 0.980038 -0.605402
  9   6.790376 -0.619176 0.015206 -0.000102 -0.000151 -0.652946
 10   8.637599 0.544015 -0.090417 -3.086149 0.515127 0.239339
 11   6.790465 -0.619039 0.017802 -0.000955 -0.011196 -0.472097
 12   -2.022474 -0.104699 -2.873818 -2.651410 1.268197 -0.116397
 13   1.167898 -0.537463 0.063297 -0.316254 -1.154627 -0.718578
 14   7.002743 -0.617765 -0.183752 0.000115 0.000194 -1.851587
 15   8.209042 0.615527 -0.255885 2.042349 0.115923 0.918109
 16   7.002735 -0.617911 -0.183641 0.013027 0.010131 -1.314793
 17   1.574674 0.609930 -0.000899 0.498653 -0.619709 0.053068
 18   -0.602177 0.511412 -0.000006 0.000000 0.000000 0.000000
 19   3.673773 0.184833 1.119313 -0.000002 -0.000014 -0.174510
 20   3.673767 0.176993 -1.117566 0.000007 -0.000003 -0.174546
 21   2.899356 1.193911 1.522186 0.000002 -0.000011 -0.000026
 22   -0.226528 -0.754099 0.477457 0.000194 -0.057459 0.890061
 23   2.918905 1.182217 -1.611551 0.000019 0.000002 -0.000024
 24   -0.078176 -0.558764 -0.547762 0.000187 -0.057484 0.890104
 25   4.117120 1.989525 1.648862 -0.064411 0.440688 0.014417
 26   4.117138 1.989553 -1.609878 0.071523 -0.408734 -0.041694
 27   3.305099 1.322380 1.487156 -0.000019 -0.000022 -0.000050
 28   3.303622 1.321986 -1.528487 -0.000002 -0.000009 -0.000024
 29   8.824059 0.150544 0.091743 0.078789 -0.031898 0.063020
 30   2.173587 -0.553366 1.647597 -0.002110 0.152116 0.010166
 31   2.215043 -0.561289 -1.752033 0.000383 -0.201410 0.011261
 32   -0.810489 -0.093824 3.127092 0.262828 -3.097583 -0.334759
 33   14.298673 -0.408176 0.475484 0.003675 -0.003118 -0.522390
 34   15.835795 0.581398 0.242756 -0.001248 0.032043 0.122292
 35   -0.815868 -0.091229 -3.114430 -0.132801 3.034913 -0.011454
 36   14.294526 -0.410349 -0.463635 -0.002676 0.001857 -0.384687
 37   15.834409 0.579420 -0.284600 -0.034108 0.026558 0.304555
 38   1.182655 -3.473281 -2.823813 0.008188 -0.006122 0.018757
 39   -4.473368 -0.793127 -0.683678 0.010510 0.023238 -0.092803
 40   1.075131 -3.430237 3.237290 -0.003894 -0.007374 0.030364
 41   -4.297117 -0.891156 1.018162 0.001138 0.002253 -0.009199
 42   -0.583247 1.689489 -2.415168 0.068264 0.106347 -0.010288
 43   -0.664068 1.667327 2.627182 -0.080100 -0.120587 0.020785
time 16
  0   0.009046 4.281381 1.527761 0.000000 0.000000 -1.571544
  1   -1.093036 0.000002 -0.326057 -1.570599 -1.570379 -0.000171
  2   2.262337 0.113614 0.064702 -0.001428 0.008570 -0.060279
  3   2.380047 0.353302 0.047440 -0.209204 -0.074668 0.118903
  4   2.033756 0.190472 -0.000128 -0.181522 0.053667 0.055433
  5   2.451511 0.204909 -0.003447 -0.259851 -0.023962 0.071882
  6   7.247600 -0.397300 -0.109469 0.008163 0.385038 0.599628
  7   -2.022252 -0.104661 3.136172 0.013522 -0.930908 -3.789513
  8   1.168026 -0.537438 -0.063437 -1.167100 0.971988 -0.615397
  9   6.790376 -0.619176 0.015206 -0.000102 -0.000151 -0.660870
 10   8.637599 0.544015 -0.090417 -3.086237 0.515690 0.245416
 11   6.790465 -0.619039 0.017802 -0.000955 -0.011196 -0.477750
 12   -2.022474 -0.104699 -2.873818 -2.652847 1.267414 -0.117737
 13   1.167898 -0.537463 0.063297 -0.290807 -1.149592 -0.742792
 14   7.002743 -0.617765 -0.183752 0.000115 0.000194 -1.851587
 15   8.209042 0.615527 -0.255885 2.042349 0.115999 0.917989
 16   7.002735 -0.617911 -0.183641 0.013027 0.010244 -1.314793
 17   1.574674 0.609930 -0.000899 0.502796 -0.621342 0.044013
 18   -0.602177 0.511412 -0.000006 0.000000 0.000000 0.000000
 19   3.662054 0.270773 1.119313 -0.000002 -0.000014 -0.174510
 20   3.654235 0.270746 -1.117566 0.000007 -0.000003 -0.174546
 21   3.352495 1.260319 1.576875 0.000002 -0.000011 -0.000026
 22   -0.238247 -0.379088 0.496989 0.000083 -0.028708 0.445010
 23   3.364231 1.256438 -1.623270 0.000019 0.000002 -0.000024
 24   -0.164116 -0.285318 -0.528230 0.000091 -0.028733 0.445062
 25   4.535101 1.997338 1.637143 -0.032209 0.220343 0.007203
 26   4.531213 1.997366 -1.621597 0.035749 -0.204340 -0.020853
 27   3.117593 1.466916 1.506688 -0.000019 -0.000022 -0.000050
 28   3.120023 1.466522 -1.508955 -0.000002 -0.000009 -0.000024
 29   8.824059 0.150544 0.091743 0.077808 -0.031375 0.060015
 30   2.173587 -0.553366 1.647597 -0.002083 0.150169 0.010038
 31   2.215043 -0.561289 -1.759846 0.000383 -0.198819 0.011134
 32   -0.810489 -0.093824 3.127092 0.262828 -3.097583 -0.334759
 33   14.298673 -0.408176 0.475484 0.003675 -0.003118 -0.522390
 34   15.835795 0.581398 0.242756 -0.001248 0.032043 0.122292
 35   -0.815868 -0.091229 -3.114430 -0.132801 3.034913 -0.011454
 36   14.294526 -0.410349 -0.463635 -0.002676 0.001857 -0.384687
 37   15.834409 0.579420 -0.284600 -0.034108 0.026558 0.304555
 38   1.178749 -3.473281 -2.823813 0.008104 -0.006037 0.018574
 39   -4.473368 -0.793127 -0.687584 0.010391 0.022939 -0.091625
 40   1.079037 -3.430237 3.237290 -0.003852 -0.007302 0.030059
 41   -4.297117 -0.891156 1.018162 0.001126 0.002229 -0.009115
 42   -0.583247 1.689489 -2.415168 0.067389 0.104998 -0.010163
 43   -0.664068 1.667327 2.627182 -0.079063 -0.119049 0.020534
time 17
  0   0.009046 4.281381 1.527761 0.000000 0.000000 -1.571544
  1   -1.093036 0.000002 -0.326057 -1.570599 -1.570379 -0.000171
  2   2.262337 0.113614 0.064702 -0.001428 0.008570 -0.060279
  3   2.380047 0.353302 0.047440 -0.209114 -0.075339 0.116679
  4   2.033756 0.190472 -0.000128 -0.182149 0.054458 0.061957
  5   2.451511 0.204909 -0.003447 -0.260005 -0.022213 0.083175
  6   7.247600 -0.397300 -0.109469 0.008163 0.385038 0.599628
  7   -2.022252 -0.104661 3.136172 0.013522 -0.930908 -3.789513
  8   1.168026 -0.537438 -0.063437 -1.178934 0.961271 -0.627986
  9   6.790376 -0.619176 0.015206 -0.000102 -0.000151 -0.670379
 10   8.637599 0.544015 -0.090417 -3.086237 0.516324 0.252723
 11   6.790465 -0.619039 0.017802 -0.000867 -0.011253 -0.484440
 12   -2.022474 -0.104699 -2.873818 -2.652943 1.267356 -0.118024
 13   1.167898 -0.537463 0.063297 -0.259245 -1.141913 -0.772878
 14   7.002743 -0.617765 -0.183752 0.000115 0.000194 -1.851587
 15   8.209042 0.615527 -0.255885 2.042349 0.116150 0.917809
 16   7.002735 -0.617911 -0.183641 0.013027 0.010131 -1.314793
 17   1.574674 0.609930 -0.000899 0.509052 -0.622975 0.030707
 18   -0.602177 0.511412 -0.000006 0.000000 0.000000 0.000000
 19   3.646428 0.364526 1.119313 -0.000002 -0.000014 -0.174510
 20   3.646422 0.364499 -1.117566 0.000007 -0.000003 -0.174546
 21   3.805634 1.330634 1.627658 0.000002 -0.000011 -0.000026
 22   -0.246060 -0.011889 0.516521 -0.000011 0.000031 0.000025
 23   3.805651 1.330659 -1.631083 0.000019 0.000002 -0.000024
 24   -0.246150 -0.011872 -0.516511 -0.000005 -0.000006 0.000048
 25   4.941364 1.997338 1.629330 0.000018 -0.000001 -0.000024
 26   4.941382 1.997366 -1.629410 -0.000001 0.000005 -0.000024
 27   2.930087 1.603639 1.514501 -0.000019 -0.000022 -0.000050
 28   2.932517 1.603245 -1.501142 -0.000002 -0.000009 -0.000024
 29   8.824059 0.150544 0.091743 0.075135 -0.029951 0.051593
 30   2.169681 -0.553366 1.651503 -0.002015 0.144677 0.009652
 31   2.215043 -0.561289 -1.759846 0.000368 -0.191619 0.010715
 32   -0.810489 -0.093824 3.127092 0.262828 -3.097583 -0.334759
 33   14.298673 -0.408176 0.475484 0.003675 -0.003118 -0.522390
 34   15.835795 0.581398 0.242756 -0.001248 0.032043 0.122292
 35   -0.815868 -0.091229 -3.114430 -0.132801 3.034913 -0.011454
 36   14.294526 -0.410349 -0.463635 -0.002676 0.001857 -0.384687
 37   15.834409 0.579420 -0.284600 -0.034108 0.026558 0.304555
 38   1.178749 -3.473281 -2.823813 0.007788 -0.005808 0.017902
 39   -4.473368 -0.800940 -0.687584 0.009995 0.022112 -0.088288
 40   1.079037 -3.430237 3.237290 -0.003726 -0.007037 0.028959
 41   -4.301023 -0.902875 1.010349 0.001078 0.002145 -0.008778
 42   -0.587153 1.689489 -2.426887 0.064944 0.101180 -0.009744
 43   -0.664068 1.667327 2.638901 -0.076214 -0.114734 0.019781
time 18
  0   0.009046 4.281381 1.527761 0.000000 0.000000 -1.571544
  1   -1.093036 0.000002 -0.326057 -1.570599 -1.570379 -0.000171
  2   2.262337 0.113614 0.064702 -0.001428 0.008570 -0.060279
  3   2.380047 0.353302 0.047440 -0.208724 -0.078144 0.107374
  4   2.033756 0.190472 -0.000128 -0.183643 0.056352 0.076891
  5   2.451511 0.204909 -0.003447 -0.260228 -0.018727 0.106281
  6   7.247600 -0.397300 -0.109469 0.008163 0.385038 0.599628
  7   -2.022252 -0.104661 3.136172 0.013522 -0.930908 -3.789513
  8   1.168026 -0.537438 -0.063437 -1.201715 0.940592 -0.651582
  9   6.790376 -0.619176 0.015206 -0.000102 -0.000151 -0.686529
 10   8.637599 0.544015 -0.090417 -3.086501 0.517661 0.265166
 11   6.790465 -0.619039 0.017802 -0.000838 -0.011253 -0.495802
 12   -2.022474 -0.104699 -2.873818 -2.651984 1.267791 -0.117163
 13   1.167898 -0.537463 0.063297 -0.203924 -1.125285 -0.826330
 14   7.002743 -0.617765 -0.183752 0.000115 0.000194 -1.851587
 15   8.209042 0.615527 -0.255885 2.042349 0.115923 0.917989
 16   7.002735 -0.617911 -0.183641 0.013027 0.010244 -1.314793
 17   1.574674 0.609930 -0.000899 0.520831 -0.626667 0.005462
 18   -0.602177 0.511412 -0.000006 0.000000 0.000000 0.000000
 19   3.646428 0.364526 1.119313 -0.000002 -0.000014 -0.174510
 20   3.646422 0.364499 -1.117566 0.000007 -0.000003 -0.174546
 21   3.805634 1.330634 1.627658 0.000002 -0.000011 -0.000026
 22   -0.246060 -0.011889 0.516521 -0.000011 0.000031 0.000025
 23   3.805651 1.330659 -1.631083 0.000019 0.000002 -0.000024
 24   -0.246150 -0.011872 -0.516511 -0.000005 -0.000006 0.000048
 25   4.941364 1.997338 1.629330 0.000018 -0.000001 -0.000024
 26   4.941382 1.997366 -1.629410 -0.000001 0.000005 -0.000024
 27   2.930087 1.603639 1.514501 -0.000019 -0.000022 -0.000050
 28   2.932517 1.603245 -1.501142 -0.000002 -0.000009 -0.000024
 29   8.824059 0.150544 0.091743 0.070946 -0.027743 0.038503
 30   2.165774 -0.553366 1.659316 -0.001893 0.136221 0.009116
 31   2.207230 -0.561289 -1.763752 0.000337 -0.180429 0.010078
 32   -0.810489 -0.093824 3.127092 0.262828 -3.097583 -0.334759
 33   14.298673 -0.408176 0.475484 0.003675 -0.003118 -0.522390
 34   15.835795 0.581398 0.242756 -0.001248 0.032043 0.122292
 35   -0.815868 -0.091229 -3.114430 -0.132801 3.034913 -0.011454
 36   14.294526 -0.410349 -0.463635 -0.002676 0.001857 -0.384687
 37   15.834409 0.579420 -0.284600 -0.034108 0.026558 0.304555
 38   1.178749 -3.465468 -2.823813 0.007346 -0.005471 0.016802
 39   -4.473368 -0.820472 -0.695397 0.009432 0.020817 -0.083156
 40   1.079037 -3.438050 3.237290 -0.003473 -0.006627 0.027248
 41   -4.308836 -0.910688 1.010349 0.001018 0.002013 -0.008273
 42   -0.594966 1.689489 -2.438606 0.061157 0.095277 -0.009201
 43   -0.664068 1.667327 2.650620 -0.071766 -0.108033 0.018610
time 19
  0   0.009046 4.281381 1.527761 0.000000 0.000000 -1.571544
  1   -1.093036 0.000002 -0.326057 -1.570599 -1.570379 -0.000171
  2   2.262337 0.113614 0.064702 -0.001428 0.008570 -0.060279
  3   2.380047 0.353302 0.047440 -0.208439 -0.080133 0.100477
  4   2.033756 0.190472 -0.000128 -0.184436 0.057382 0.085228
  5   2.451511 0.204909 -0.003447 -0.260296 -0.016847 0.118317
  6   7.247600 -0.397300 -0.109469 0.007384 0.384127 0.587623
  7   -2.022252 -0.104661 3.136172 0.019561 -0.929409 -3.783127
  8   1.168026 -0.537438 -0.063437 -1.212789 0.930881 -0.662779
  9   6.790376 -0.619176 0.015206 -0.000102 -0.000151 -0.692944
 10   8.637599 0.544015 -0.090417 -3.086589 0.518154 0.270085
 11   6.790465 -0.619039 0.017802 -0.000809 -0.011253 -0.500301
 12   -2.022474 -0.104699 -2.873818 -2.663960 1.269039 -0.117163
 13   1.167898 -0.537463 0.063297 -0.180094 -1.116538 -0.849515
 14   7.002743 -0.617765 -0.183752 0.000115 0.000194 -1.851587
 15   8.209042 0.615527 -0.255885 2.042349 0.115772 0.918109
 16   7.002735 -0.617911 -0.183641 0.013027 0.010244 -1.314793
 17   1.574674 0.609930 -0.000899 0.520466 -0.625649 0.010415
 18   -0.602177 0.511412 -0.000006 0.000000 0.000000 0.000000
 19   3.646428 0.364526 1.119313 -0.000002 -0.000014 -0.174510
 20   3.646422 0.364499 -1.117566 0.000007 -0.000003 -0.174546
 21   3.805634 1.330634 1.627658 0.000002 -0.000011 -0.000026
 22   -0.246060 -0.011889 0.516521 -0.000011 0.000031 0.000025
 23   3.805651 1.330659 -1.631083 0.000019 0.000002 -0.000024
 24   -0.246150 -0.011872 -0.516511 -0.000005 -0.000006 0.000048
 25   4.941364 1.997338 1.629330 0.000018 -0.000001 -0.000024
 26   4.941382 1.997366 -1.629410 -0.000001 0.000005 -0.000024
 27   2.930087 1.603639 1.514501 -0.000019 -0.000022 -0.000050
 28   2.932517 1.603245 -1.501142 -0.000002 -0.000009 -0.000024
 29   8.824059 0.150544 0.091743 0.065599 -0.024990 0.021550
 30   2.161868 -0.553366 1.671035 -0.001744 0.125323 0.008387
 31   2.195511 -0.561289 -1.771565 0.000322 -0.166080 0.009296
 32   -0.810489 -0.093824 3.127092 0.262828 -3.097583 -0.334759
 33   14.298673 -0.408176 0.475484 0.003675 -0.003118 -0.522390
 34   15.835795 0.581398 0.242756 -0.001248 0.032043 0.122292
 35   -0.815868 -0.091229 -3.114430 -0.132801 3.034913 -0.011454
 36   14.294526 -0.410349 -0.463635 -0.002676 0.001857 -0.384687
 37   15.834409 0.579420 -0.284600 -0.034108 0.026558 0.304555
 38   1.178749 -3.465468 -2.823813 0.006778 -0.005037 0.015519
 39   -4.473368 -0.836097 -0.695397 0.008677 0.019151 -0.076509
 40   1.079037 -3.438050 3.237290 -0.003221 -0.006097 0.025110
 41   -4.316648 -0.922407 1.002536 0.000934 0.001870 -0.007628
 42   -0.594966 1.689489 -2.458138 0.056304 0.087703 -0.008490
 43   -0.664068 1.671233 2.670152 -0.066044 -0.099435 0.017147
time 20
  0   0.009046 4.281381 1.527761 0.000000 0.000000 -1.571544
  1   -1.093036 0.000002 -0.326057 -1.570599 -1.570379 -0.000171
  2   2.262337 0.113614 0.064702 -0.001428 0.008570 -0.060279
  3   2.380047 0.353302 0.047440 -0.208079 -0.082146 0.093641
  4   2.033756 0.190472 -0.000128 -0.185229 0.058485 0.093456
  5   2.451511 0.204909 -0.003447 -0.260296 -0.015123 0.129635
  6   7.247600 -0.397300 -0.109469 0.005382 0.381874 0.556707
  7   -2.022252 -0.104661 3.136172 0.034899 -0.925835 -3.766504
  8   1.168026 -0.537438 -0.063437 -1.222787 0.921271 -0.672964
  9   6.790376 -0.619176 0.015206 -0.000102 -0.000151 -0.698604
 10   8.637599 0.544015 -0.090417 -3.086501 0.518928 0.274498
 11   6.790465 -0.619039 0.017802 -0.000809 -0.011253 -0.504222
 12   -2.022474 -0.104699 -2.873818 -2.694523 1.271825 -0.117354
 13   1.167898 -0.537463 0.063297 -0.159568 -1.107283 -0.869673
 14   7.002743 -0.617765 -0.183752 0.000115 0.000194 -1.851587
 15   8.209042 0.615527 -0.255885 2.042349 0.115545 0.918651
 16   7.002735 -0.617911 -0.183641 0.013027 0.010244 -1.314627
 17   1.574674 0.609930 -0.000899 0.519857 -0.622407 0.022834
 18   -0.602177 0.511412 -0.000006 0.000000 0.000000 0.000000
 19   3.646428 0.364526 1.119313 -0.000002 -0.000014 -0.174510
 20   3.646422 0.364499 -1.117566 0.000007 -0.000003 -0.174546
 21   3.805634 1.330634 1.627658 0.000002 -0.000011 -0.000026
 22   -0.246060 -0.011889 0.516521 -0.000011 0.000031 0.000025
 23   3.805651 1.330659 -1.631083 0.000019 0.000002 -0.000024
 24   -0.246150 -0.011872 -0.516511 -0.000005 -0.000006 0.000048
 25   4.941364 1.997338 1.629330 0.000018 -0.000001 -0.000024
 26   4.941382 1.997366 -1.629410 -0.000001 0.000005 -0.000024
 27   2.930087 1.603639 1.514501 -0.000019 -0.000022 -0.000050
 28   2.932517 1.603245 -1.501142 -0.000002 -0.000009 -0.000024
 29   8.824059 0.150544 0.091743 0.059093 -0.021928 0.001754
 30   2.154055 -0.553366 1.682754 -0.001554 0.112507 0.007529
 31   2.191605 -0.561289 -1.783284 0.000276 -0.149166 0.008350
 32   -0.810489 -0.093824 3.127092 0.262828 -3.097583 -0.334759
 33   14.298673 -0.408176 0.475484 0.003675 -0.003118 -0.522390
 34   15.835795 0.581398 0.242756 -0.001248 0.032043 0.122292
 35   -0.815868 -0.091229 -3.114430 -0.132801 3.034913 -0.011454
 36   14.294526 -0.410349 -0.463635 -0.002676 0.001857 -0.384687
 37   15.834409 0.579420 -0.284600 -0.034108 0.026558 0.304555
 38   1.170936 -3.465468 -2.823813 0.006062 -0.004519 0.013931
 39   -4.473368 -0.855629 -0.707116 0.007790 0.017222 -0.068740
 40   1.086850 -3.438050 3.237290 -0.002884 -0.005470 0.022544
 41   -4.332274 -0.934126 1.002536 0.000838 0.001678 -0.006815
 42   -0.606685 1.689489 -2.481576 0.050575 0.078764 -0.007611
 43   -0.664068 1.679046 2.689684 -0.059322 -0.089314 0.015390
time 21
  0   0.009046 4.281381 1.527761 0.000000 0.000000 -1.571544
  1   -1.093036 0.000002 -0.326057 -1.570599 -1.570379 -0.000171
  2   2.262337 0.113614 0.064702 -0.001428 0.008570 -0.060279
  3   2.380047 0.353302 0.047440 -0.207614 -0.084867 0.084622
  4   2.033756 0.190472 -0.000128 -0.186686 0.060343 0.108426
  5   2.451511 0.204909 -0.003447 -0.260382 -0.012003 0.150190
  6   7.247600 -0.397300 -0.109469 0.002722 0.378554 0.513786
  7   -2.022252 -0.104661 3.136172 0.055892 -0.920992 -3.743495
  8   1.168026 -0.537438 -0.063437 -1.241075 0.900592 -0.691183
  9   6.790376 -0.619176 0.015206 -0.000102 -0.000151 -0.711886
 10   8.637599 0.544015 -0.090417 -3.086237 0.520547 0.285422
 11   6.790465 -0.619039 0.017802 -0.000721 -0.011253 -0.513450
 12   -2.022474 -0.104699 -2.873818 -2.735145 1.277485 -0.116205
 13   1.167898 -0.537463 0.063297 -0.117884 -1.087857 -0.909989
 14   7.002743 -0.617765 -0.183752 0.000115 0.000194 -1.851340
 15   8.209042 0.615527 -0.255885 2.042277 0.114864 0.919793
 16   7.002735 -0.617911 -0.183641 0.013027 0.010131 -1.314572
 17   1.574674 0.609930 -0.000899 0.519369 -0.617082 0.039540
 18   -0.602177 0.511412 -0.000006 0.000000 0.000000 0.000000
 19   3.646428 0.364526 1.119313 -0.000002 -0.000014 -0.174510
 20   3.646422 0.364499 -1.117566 0.000007 -0.000003 -0.174546
 21   3.805634 1.330634 1.627658 0.000002 -0.000011 -0.000026
 22   -0.246060 -0.011889 0.516521 -0.000011 0.000031 0.000025
 23   3.805651 1.330659 -1.631083 0.000019 0.000002 -0.000024
 24   -0.246150 -0.011872 -0.516511 -0.000005 -0.000006 0.000048
 25   4.941364 1.997338 1.629330 0.000018 -0.000001 -0.000024
 26   4.941382 1.997366 -1.629410 -0.000001 0.000005 -0.000024
 27   2.930087 1.603639 1.514501 -0.000019 -0.000022 -0.000050
 28   2.932517 1.603245 -1.501142 -0.000002 -0.000009 -0.000024
 29   8.824059 0.150544 0.091743 0.051963 -0.018628 -0.020242
 30   2.150149 -0.561179 1.698380 -0.001378 0.098326 0.006607
 31   2.183792 -0.561289 -1.791097 0.000245 -0.130491 0.007313
 32   -0.810489 -0.093824 3.127092 0.262828 -3.097583 -0.334759
 33   14.298673 -0.408176 0.475484 0.003675 -0.003118 -0.522390
 34   15.835795 0.581398 0.242756 -0.001248 0.032043 0.122292
 35   -0.815868 -0.091229 -3.114430 -0.132801 3.034913 -0.011454
 36   14.294526 -0.410349 -0.463635 -0.002676 0.001857 -0.384687
 37   15.834409 0.579420 -0.284600 -0.034108 0.026558 0.304555
 38   1.167030 -3.461562 -2.823813 0.005304 -0.003965 0.012159
 39   -4.465555 -0.886880 -0.707116 0.006807 0.015065 -0.060130
 40   1.090756 -3.441956 3.237290 -0.002526 -0.004771 0.019734
 41   -4.343993 -0.953658 0.990817 0.000718 0.001450 -0.005974
 42   -0.614498 1.689489 -2.508921 0.044223 0.068921 -0.006650
 43   -0.664068 1.679046 2.713122 -0.051888 -0.078126 0.013466
time 22
  0   0.009046 4.281381 1.527761 0.000000 0.000000 -1.571544
  1   -1.093036 0.000002 -0.326057 -1.570599 -1.570379 -0.000171
  2   2.262337 0.113614 0.064702 -0.001428 0.008570 -0.060279
  3   2.380047 0.353302 0.047440 -0.207524 -0.085382 0.082765
  4   2.033756 0.190472 -0.000128 -0.187313 0.061217 0.115059
  5   2.451511 0.204909 -0.003447 -0.260382 -0.010567 0.159403
  6   7.247600 -0.397300 -0.109469 0.001427 0.376888 0.492373
  7   -2.022252 -0.104661 3.136172 0.066628 -0.918599 -3.732038
  8   1.168026 -0.537438 -0.063437 -1.249302 0.889422 -0.699217
  9   6.790376 -0.619176 0.015206 -0.000102 -0.000151 -0.718829
 10   8.637599 0.544015 -0.090417 -3.086237 0.521955 0.291644
 11   6.790465 -0.619039 0.017802 -0.000692 -0.011253 -0.518353
 12   -2.022474 -0.104699 -2.873818 -2.754115 1.281345 -0.114386
 13   1.167898 -0.537463 0.063297 -0.098553 -1.077483 -0.929239
 14   7.002743 -0.617765 -0.183752 0.000115 0.000194 -1.851175
 15   8.209042 0.615527 -0.255885 2.042277 0.114485 0.920635
 16   7.002735 -0.617911 -0.183641 0.013027 0.010131 -1.314572
 17   1.574674 0.609930 -0.000899 0.518800 -0.614029 0.047598
 18   -0.602177 0.511412 -0.000006 0.000000 0.000000 0.000000
 19   3.646428 0.364526 1.119313 -0.000002 -0.000014 -0.174510
 20   3.646422 0.364499 -1.117566 0.000007 -0.000003 -0.174546
 21   3.805634 1.330634 1.627658 0.000002 -0.000011 -0.000026
 22   -0.246060 -0.011889 0.516521 -0.000011 0.000031 0.000025
 23   3.805651 1.330659 -1.631083 0.000019 0.000002 -0.000024
 24   -0.246150 -0.011872 -0.516511 -0.000005 -0.000006 0.000048
 25   4.941364 1.997338 1.629330 0.000018 -0.000001 -0.000024
 26   4.941382 1.997366 -1.629410 -0.000001 0.000005 -0.000024
 27   2.930087 1.603639 1.514501 -0.000019 -0.000022 -0.000050
 28   2.932517 1.603245 -1.501142 -0.000002 -0.000009 -0.000024
 29   8.824059 0.150544 0.091743 0.044210 -0.015305 -0.043579
 30   2.142336 -0.561179 1.710099 -0.001161 0.083331 0.005578
 31   2.172073 -0.561289 -1.802816 0.000215 -0.110755 0.006203
 32   -0.810489 -0.093824 3.127092 0.262828 -3.097583 -0.334759
 33   14.298673 -0.408176 0.475484 0.003675 -0.003118 -0.522390
 34   15.835795 0.581398 0.242756 -0.001248 0.032043 0.122292
 35   -0.815868 -0.091229 -3.114430 -0.132801 3.034913 -0.011454
 36   14.294526 -0.410349 -0.463635 -0.002676 0.001857 -0.384687
 37   15.834409 0.579420 -0.284600 -0.034108 0.026558 0.304555
 38   1.159217 -3.461562 -2.823813 0.004505 -0.003350 0.010326
 39   -4.465555 -0.910318 -0.714929 0.005789 0.012776 -0.051015
 40   1.098569 -3.441956 3.237290 -0.002126 -0.004048 0.016740
 41   -4.355712 -0.965377 0.990817 0.000610 0.001234 -0.005048
 42   -0.618404 1.697302 -2.536265 0.037548 0.058464 -0.005646
 43   -0.664068 1.679046 2.736560 -0.044042 -0.066310 0.011417
time 23
  0   0.009046 4.281381 1.527761 0.000000 0.000000 -1.571544
  1   -1.093036 0.000002 -0.326057 -1.570599 -1.570379 -0.000171
  2   2.262337 0.113614 0.064702 -0.001428 0.008570 -0.060279
  3   2.380047 0.353302 0.047440 -0.207494 -0.085562 0.082173
  4   2.033756 0.190472 -0.000128 -0.187608 0.061721 0.118575
  5   2.451511 0.204909 -0.003447 -0.260296 -0.009771 0.164579
  6   7.247600 -0.397300 -0.109469 0.000301 0.375211 0.470960
  7   -2.022252 -0.104661 3.136172 0.077268 -0.916466 -3.720674
  8   1.168026 -0.537438 -0.063437 -1.253288 0.881422 -0.702823
  9   6.790376 -0.619176 0.015206 -0.000102 -0.000151 -0.723131
 10   8.637599 0.544015 -0.090417 -3.085708 0.523363 0.295695
 11   6.790465 -0.619039 0.017802 -0.000663 -0.011253 -0.521410
 12   -2.022474 -0.104699 -2.873818 -2.770594 1.288224 -0.109503
 13   1.167898 -0.537463 0.063297 -0.089555 -1.068126 -0.938743
 14   7.002743 -0.617765 -0.183752 0.000115 0.000194 -1.851010
 15   8.209042 0.615527 -0.255885 2.042277 0.113578 0.922319
 16   7.002735 -0.617911 -0.183641 0.013027 0.010131 -1.314462
 17   1.574674 0.609930 -0.000899 0.516648 -0.610976 0.061495
 18   -0.602177 0.511412 -0.000006 0.000000 0.000000 0.000000
 19   3.646428 0.364526 1.119313 -0.000002 -0.000014 -0.174510
 20   3.646422 0.364499 -1.117566 0.000007 -0.000003 -0.174546
 21   3.805634 1.330634 1.627658 0.000002 -0.000011 -0.000026
 22   -0.246060 -0.011889 0.516521 -0.000011 0.000031 0.000025
 23   3.805651 1.330659 -1.631083 0.000019 0.000002 -0.000024
 24   -0.246150 -0.011872 -0.516511 -0.000005 -0.000006 0.000048
 25   4.941364 1.997338 1.629330 0.000018 -0.000001 -0.000024
 26   4.941382 1.997366 -1.629410 -0.000001 0.000005 -0.000024
 27   2.930087 1.603639 1.514501 -0.000019 -0.000022 -0.000050
 28   2.932517 1.603245 -1.501142 -0.000002 -0.000009 -0.000024
 29   8.824059 0.150544 0.091743 0.036367 -0.012124 -0.067345
 30   2.138430 -0.561179 1.721818 -0.000944 0.068074 0.004570
 31   2.160354 -0.561289 -1.814535 0.000184 -0.090655 0.005075
 32   -0.810489 -0.093824 3.127092 0.262828 -3.097583 -0.334759
 33   14.298673 -0.408176 0.475484 0.003675 -0.003118 -0.522390
 34   15.835795 0.581398 0.242756 -0.001248 0.032043 0.122292
 35   -0.815868 -0.091229 -3.114430 -0.132801 3.034913 -0.011454
 36   14.294526 -0.410349 -0.463635 -0.002676 0.001857 -0.384687
 37   15.834409 0.579420 -0.284600 -0.034108 0.026558 0.304555
 38   1.159217 -3.461562 -2.823813 0.003684 -0.002748 0.008371
 39   -4.465555 -0.937663 -0.718835 0.004734 0.010463 -0.041760
 40   1.098569 -3.441956 3.237290 -0.001726 -0.003325 0.013624
 41   -4.371338 -0.988815 0.979098 0.000490 0.001019 -0.004151
 42   -0.626217 1.697302 -2.563610 0.030717 0.047854 -0.004558
 43   -0.664068 1.686859 2.763905 -0.036033 -0.054275 0.009284
time 24
  0   0.009046 4.281381 1.527761 0.000000 0.000000 -1.571544
  1   -1.093036 0.000002 -0.326057 -1.570599 -1.570379 -0.000171
  2   2.262337 0.113614 0.064702 -0.001428 0.008570 -0.060279
  3   2.380047 0.353302 0.047440 -0.207464 -0.085802 0.081520
  4   2.033756 0.190472 -0.000128 -0.187977 0.062272 0.122852
  5   2.451511 0.204909 -0.003447 -0.260296 -0.008765 0.171216
  6   7.247600 -0.397300 -0.109469 -0.001941 0.371687 0.428229
  7   -2.022252 -0.104661 3.136172 0.098644 -0.912229 -3.698041
  8   1.168026 -0.537438 -0.063437 -1.257338 0.871158 -0.705290
  9   6.790376 -0.619176 0.015206 -0.000102 -0.000151 -0.726225
 10   8.637599 0.544015 -0.090417 -3.084651 0.525967 0.300108
 11   6.790465 -0.619039 0.017802 -0.000663 -0.011253 -0.523659
 12   -2.022474 -0.104699 -2.873818 -2.802689 1.304129 -0.098876
 13   1.167898 -0.537463 0.063297 -0.085056 -1.052768 -0.944978
 14   7.002743 -0.617765 -0.183752 0.000115 0.000194 -1.850597
 15   8.209042 0.615527 -0.255885 2.042277 0.111081 0.926348
 16   7.002735 -0.617911 -0.183641 0.013027 0.010131 -1.314020
 17   1.574674 0.609930 -0.000899 0.506939 -0.605509 0.098161
 18   -0.602177 0.511412 -0.000006 0.000000 0.000000 0.000000
 19   3.646428 0.364526 1.119313 -0.000002 -0.000014 -0.174510
 20   3.646422 0.364499 -1.117566 0.000007 -0.000003 -0.174546
 21   3.805634 1.330634 1.627658 0.000002 -0.000011 -0.000026
 22   -0.246060 -0.011889 0.516521 -0.000011 0.000031 0.000025
 23   3.805651 1.330659 -1.631083 0.000019 0.000002 -0.000024
 24   -0.246150 -0.011872 -0.516511 -0.000005 -0.000006 0.000048
 25   4.941364 1.997338 1.629330 0.000018 -0.000001 -0.000024
 26   4.941382 1.997366 -1.629410 -0.000001 0.000005 -0.000024
 27   2.930087 1.603639 1.514501 -0.000019 -0.000022 -0.000050
 28   2.932517 1.603245 -1.501142 -0.000002 -0.000009 -0.000024
 29   8.824059 0.150544 0.091743 0.028525 -0.009228 -0.090682
 30   2.130617 -0.561179 1.741350 -0.000727 0.053079 0.003583
 31   2.152541 -0.561289 -1.822348 0.000138 -0.070866 0.003965
 32   -0.810489 -0.093824 3.127092 0.262828 -3.097583 -0.334759
 33   14.298673 -0.408176 0.475484 0.003675 -0.003118 -0.522390
 34   15.835795 0.581398 0.242756 -0.001248 0.032043 0.122292
 35   -0.815868 -0.091229 -3.114430 -0.132801 3.034913 -0.011454
 36   14.294526 -0.410349 -0.463635 -0.002676 0.001857 -0.384687
 37   15.834409 0.579420 -0.284600 -0.034108 0.026558 0.304555
 38   1.155311 -3.453749 -2.823813 0.002884 -0.002145 0.006538
 39   -4.457742 -0.961101 -0.726648 0.003691 0.008162 -0.032645
 40   1.106382 -3.449769 3.237290 -0.001347 -0.002602 0.010692
 41   -4.386963 -1.000534 0.979098 0.000383 0.000791 -0.003225
 42   -0.637936 1.697302 -2.594861 0.024017 0.037413 -0.003597
 43   -0.664068 1.690765 2.787343 -0.028187 -0.042428 0.007319
time 25
  0   0.009046 4.281381 1.527761 0.000000 0.000000 -1.571544
  1   -1.093036 0.000002 -0.326057 -1.570599 -1.570379 -0.000171
  2   2.262337 0.113614 0.064702 -0.001428 0.008570 -0.060279
  3   2.380047 0.353302 0.047440 -0.207464 -0.085778 0.081561
  4   2.033756 0.190472 -0.000128 -0.188032 0.062356 0.123287
  5   2.451511 0.204909 -0.003447 -0.260296 -0.008674 0.171959
  6   7.247600 -0.397300 -0.109469 -0.003522 0.369122 0.397535
  7   -2.022252 -0.104661 3.136172 0.114077 -0.909346 -3.681512
  8   1.168026 -0.537438 -0.063437 -1.256895 0.868139 -0.703076
  9   6.790376 -0.619176 0.015206 -0.000102 -0.000151 -0.726074
 10   8.637599 0.544015 -0.090417 -3.083947 0.527375 0.300759
 11   6.790465 -0.619039 0.017802 -0.000663 -0.011253 -0.523486
 12   -2.022474 -0.104699 -2.873818 -2.828174 1.313359 -0.095142
 13   1.167898 -0.537463 0.063297 -0.088360 -1.046462 -0.943344
 14   7.002743 -0.617765 -0.183752 0.000115 0.000194 -1.850432
 15   8.209042 0.615527 -0.255885 2.042277 0.109795 0.928573
 16   7.002735 -0.617911 -0.183641 0.013027 0.010131 -1.313965
 17   1.574674 0.609930 -0.000899 0.498368 -0.601746 0.127397
 18   -0.602177 0.511412 -0.000006 0.000000 0.000000 0.000000
 19   3.646428 0.364526 1.119313 -0.000002 -0.000014 -0.174510
 20   3.646422 0.364499 -1.117566 0.000007 -0.000003 -0.174546
 21   3.805634 1.330634 1.627658 0.000002 -0.000011 -0.000026
 22   -0.246060 -0.011889 0.516521 -0.000011 0.000031 0.000025
 23   3.805651 1.330659 -1.631083 0.000019 0.000002 -0.000024
 24   -0.246150 -0.011872 -0.516511 -0.000005 -0.000006 0.000048
 25   4.941364 1.997338 1.629330 0.000018 -0.000001 -0.000024
 26   4.941382 1.997366 -1.629410 -0.000001 0.000005 -0.000024
 27   2.930087 1.603639 1.514501 -0.000019 -0.000022 -0.000050
 28   2.932517 1.603245 -1.501142 -0.000002 -0.000009 -0.000024
 29   8.824059 0.150544 0.091743 0.021038 -0.006617 -0.112785
 30   2.122804 -0.561179 1.753069 -0.000537 0.038927 0.002640
 31   2.140822 -0.561289 -1.834067 0.000092 -0.052191 0.002891
 32   -0.810489 -0.093824 3.127092 0.262828 -3.097583 -0.334759
 33   14.298673 -0.408176 0.475484 0.003675 -0.003118 -0.522390
 34   15.835795 0.581398 0.242756 -0.001248 0.032043 0.122292
 35   -0.815868 -0.091229 -3.114430 -0.132801 3.034913 -0.011454
 36   14.294526 -0.410349 -0.463635 -0.002676 0.001857 -0.384687
 37   15.834409 0.579420 -0.284600 -0.034108 0.026558 0.304555
 38   1.147498 -3.453749 -2.823813 0.002126 -0.001579 0.004766
 39   -4.457742 -0.992352 -0.734461 0.002721 0.006016 -0.024035
 40   1.110288 -3.449769 3.237290 -0.000989 -0.001903 0.007820
 41   -4.402589 -1.020066 0.967379 0.000287 0.000575 -0.002384
 42   -0.637936 1.697302 -2.618299 0.017689 0.027570 -0.002635
 43   -0.664068 1.690765 2.806875 -0.020753 -0.031240 0.005395
time 26
  0   0.009046 4.281381 1.527761 0.000000 0.000000 -1.571544
  1   -1.093036 0.000002 -0.326057 -1.570599 -1.570379 -0.000171
  2   2.262337 0.113614 0.064702 -0.001428 0.008570 -0.060279
  3   2.380047 0.353302 0.047440 -0.207464 -0.085658 0.081969
  4   2.033756 0.190472 -0.000128 -0.188032 0.062356 0.123432
  5   2.451511 0.204909 -0.003447 -0.260296 -0.008648 0.172058
  6   7.247600 -0.397300 -0.109469 -0.004182 0.368140 0.385561
  7   -2.022252 -0.104661 3.136172 0.120116 -0.908337 -3.674751
  8   1.168026 -0.537438 -0.063437 -1.256199 0.867485 -0.701874
  9   6.790376 -0.619176 0.015206 -0.000102 -0.000151 -0.725244
 10   8.637599 0.544015 -0.090417 -3.083595 0.528431 0.300976
 11   6.790465 -0.619039 0.017802 -0.000663 -0.011253 -0.522794
 12   -2.022474 -0.104699 -2.873818 -2.836605 1.321282 -0.090642
 13   1.167898 -0.537463 0.063297 -0.093773 -1.042242 -0.938864
 14   7.002743 -0.617765 -0.183752 0.000115 0.000194 -1.850267
 15   8.209042 0.615527 -0.255885 2.042277 0.108660 0.930618
 16   7.002735 -0.617911 -0.183641 0.013027 0.010131 -1.313744
 17   1.574674 0.609930 -0.000899 0.492479 -0.600255 0.144584
 18   -0.602177 0.511412 -0.000006 0.000000 0.000000 0.000000
 19   3.646428 0.364526 1.119313 -0.000002 -0.000014 -0.174510
 20   3.646422 0.364499 -1.117566 0.000007 -0.000003 -0.174546
 21   3.805634 1.330634 1.627658 0.000002 -0.000011 -0.000026
 22   -0.246060 -0.011889 0.516521 -0.000011 0.000031 0.000025
 23   3.805651 1.330659 -1.631083 0.000019 0.000002 -0.000024
 24   -0.246150 -0.011872 -0.516511 -0.000005 -0.000006 0.000048
 25   4.941364 1.997338 1.629330 0.000018 -0.000001 -0.000024
 26   4.941382 1.997366 -1.629410 -0.000001 0.000005 -0.000024
 27   2.930087 1.603639 1.514501 -0.000019 -0.000022 -0.000050
 28   2.932517 1.603245 -1.501142 -0.000002 -0.000009 -0.000024
 29   8.824059 0.150544 0.091743 0.014265 -0.004409 -0.132849
 30   2.118898 -0.561179 1.764788 -0.000361 0.026111 0.001804
 31   2.133009 -0.561289 -1.837973 0.000046 -0.035330 0.001945
 32   -0.810489 -0.093824 3.127092 0.262828 -3.097583 -0.334759
 33   14.298673 -0.408176 0.475484 0.003675 -0.003118 -0.522390
 34   15.835795 0.581398 0.242756 -0.001248 0.032043 0.122292
 35   -0.815868 -0.091229 -3.114430 -0.132801 3.034913 -0.011454
 36   14.294526 -0.410349 -0.463635 -0.002676 0.001857 -0.384687
 37   15.834409 0.579420 -0.284600 -0.034108 0.026558 0.304555
 38   1.147498 -3.453749 -2.823813 0.001410 -0.001073 0.003239
 39   -4.457742 -1.011884 -0.738367 0.001846 0.004075 -0.016267
 40   1.110288 -3.449769 3.237290 -0.000674 -0.001276 0.005254
 41   -4.410401 -1.031785 0.967379 0.000191 0.000384 -0.001599
 42   -0.649655 1.697302 -2.641737 0.011973 0.018631 -0.001756
 43   -0.664068 1.698578 2.830313 -0.014031 -0.021134 0.003638
time 27
  0   0.009046 4.281381 1.527761 0.000000 0.000000 -1.571544
  1   -1.093036 0.000002 -0.326057 -1.570599 -1.570379 -0.000171
  2   2.262337 0.113614 0.064702 -0.001428 0.008570 -0.060279
  3   2.380047 0.353302 0.047440 -0.207539 -0.085274 0.083071
  4   2.033756 0.190472 -0.000128 -0.187940 0.062080 0.121801
  5   2.451511 0.204909 -0.003447 -0.260296 -0.008974 0.169532
  6   7.247600 -0.397300 -0.109469 -0.004182 0.368140 0.385561
  7   -2.022252 -0.104661 3.136172 0.120116 -0.908337 -3.674751
  8   1.168026 -0.537438 -0.063437 -1.252466 0.868139 -0.696054
  9   6.790376 -0.619176 0.015206 -0.000102 -0.000151 -0.722225
 10   8.637599 0.544015 -0.090417 -3.082538 0.530050 0.299602
 11   6.790465 -0.619039 0.017802 -0.000663 -0.011253 -0.520660
 12   -2.022474 -0.104699 -2.873818 -2.821755 1.332805 -0.075515
 13   1.167898 -0.537463 0.063297 -0.107058 -1.037004 -0.928331
 14   7.002743 -0.617765 -0.183752 0.000115 0.000194 -1.849772
 15   8.209042 0.615527 -0.255885 2.042277 0.106693 0.933986
 16   7.002735 -0.617911 -0.183641 0.013027 0.010131 -1.313468
 17   1.574674 0.609930 -0.000899 0.490854 -0.600326 0.148095
 18   -0.602177 0.511412 -0.000006 0.000000 0.000000 0.000000
 19   3.646428 0.364526 1.119313 -0.000002 -0.000014 -0.174510
 20   3.646422 0.364499 -1.117566 0.000007 -0.000003 -0.174546
 21   3.805634 1.330634 1.627658 0.000002 -0.000011 -0.000026
 22   -0.246060 -0.011889 0.516521 -0.000011 0.000031 0.000025
 23   3.805651 1.330659 -1.631083 0.000019 0.000002 -0.000024
 24   -0.246150 -0.011872 -0.516511 -0.000005 -0.000006 0.000048
 25   4.941364 1.997338 1.629330 0.000018 -0.000001 -0.000024
 26   4.941382 1.997366 -1.629410 -0.000001 0.000005 -0.000024
 27   2.930087 1.603639 1.514501 -0.000019 -0.000022 -0.000050
 28   2.932517 1.603245 -1.501142 -0.000002 -0.000009 -0.000024
 29   8.824059 0.150544 0.091743 0.008472 -0.002629 -0.149802
 30   2.111085 -0.561179 1.776507 -0.000225 0.015185 0.001075
 31   2.129103 -0.561289 -1.845786 0.000031 -0.020902 0.001163
 32   -0.810489 -0.093824 3.127092 0.262828 -3.097583 -0.334759
 33   14.298673 -0.408176 0.475484 0.003675 -0.003118 -0.522390
 34   15.835795 0.581398 0.242756 -0.001248 0.032043 0.122292
 35   -0.815868 -0.091229 -3.114430 -0.132801 3.034913 -0.011454
 36   14.294526 -0.410349 -0.463635 -0.002676 0.001857 -0.384687
 37   15.834409 0.579420 -0.284600 -0.034108 0.026558 0.304555
 38   1.139685 -3.453749 -2.823813 0.000842 -0.000627 0.001895
 39   -4.457742 -1.027509 -0.746180 0.001091 0.002409 -0.009648
 40   1.118101 -3.449769 3.237290 -0.000400 -0.000746 0.003116
 41   -4.426027 -1.043504 0.959566 0.000107 0.000228 -0.000954
 42   -0.649655 1.697302 -2.661269 0.007095 0.011057 -0.001046
 43   -0.664068 1.698578 2.849845 -0.008309 -0.012520 0.002133
time 28
  0   0.009046 4.281381 1.527761 0.000000 0.000000 -1.571544
  1   -1.093036 0.000002 -0.326057 -1.570599 -1.570379 -0.000171
  2   2.262337 0.113614 0.064702 -0.001428 0.008570 -0.060279
  3   2.380047 0.353302 0.047440 -0.207554 -0.085131 0.083683
  4   2.033756 0.190472 -0.000128 -0.187811 0.061924 0.120641
  5   2.451511 0.204909 -0.003447 -0.260296 -0.009261 0.167724
  6   7.247600 -0.397300 -0.109469 -0.004182 0.368140 0.385561
  7   -2.022252 -0.104661 3.136172 0.120116 -0.908337 -3.674751
  8   1.168026 -0.537438 -0.063437 -1.250441 0.869397 -0.693587
  9   6.790376 -0.619176 0.015206 -0.000102 -0.000151 -0.720565
 10   8.637599 0.544015 -0.090417 -3.082186 0.530261 0.298589
 11   6.790465 -0.619039 0.017802 -0.000663 -0.011253 -0.519622
 12   -2.022474 -0.104699 -2.873818 -2.819360 1.334575 -0.072834
 13   1.167898 -0.537463 0.063297 -0.111698 -1.037665 -0.924457
 14   7.002743 -0.617765 -0.183752 0.000115 0.000194 -1.849772
 15   8.209042 0.615527 -0.255885 2.042277 0.106466 0.934527
 16   7.002735 -0.617911 -0.183641 0.013027 0.010131 -1.313413
 17   1.574674 0.609930 -0.000899 0.489554 -0.600397 0.150830
 18   -0.602177 0.511412 -0.000006 0.000000 0.000000 0.000000
 19   3.646428 0.364526 1.119313 -0.000002 -0.000014 -0.174510
 20   3.646422 0.364499 -1.117566 0.000007 -0.000003 -0.174546
 21   3.805634 1.330634 1.627658 0.000002 -0.000011 -0.000026
 22   -0.246060 -0.011889 0.516521 -0.000011 0.000031 0.000025
 23   3.805651 1.330659 -1.631083 0.000019 0.000002 -0.000024
 24   -0.246150 -0.011872 -0.516511 -0.000005 -0.000006 0.000048
 25   4.941364 1.997338 1.629330 0.000018 -0.000001 -0.000024
 26   4.941382 1.997366 -1.629410 -0.000001 0.000005 -0.000024
 27   2.930087 1.603639 1.514501 -0.000019 -0.000022 -0.000050
 28   2.932517 1.603245 -1.501142 -0.000002 -0.000009 -0.000024
 29   8.824059 0.150544 0.091743 0.003838 -0.001323 -0.163053
 30   2.111085 -0.561179 1.784320 -0.000103 0.006728 0.000496
 31   2.121290 -0.561289 -1.853599 0.000000 -0.009765 0.000544
 32   -0.810489 -0.093824 3.127092 0.262828 -3.097583 -0.334759
 33   14.298673 -0.408176 0.475484 0.003675 -0.003118 -0.522390
 34   15.835795 0.581398 0.242756 -0.001248 0.032043 0.122292
 35   -0.815868 -0.091229 -3.114430 -0.132801 3.034913 -0.011454
 36   14.294526 -0.410349 -0.463635 -0.002676 0.001857 -0.384687
 37   15.834409 0.579420 -0.284600 -0.034108 0.026558 0.304555
 38   1.139685 -3.453749 -2.823813 0.000400 -0.000277 0.000795
 39   -4.457742 -1.047041 -0.746180 0.000491 0.001127 -0.004459
 40   1.118101 -3.449769 3.237290 -0.000168 -0.000336 0.001405
 41   -4.433840 -1.051317 0.959566 0.000047 0.000108 -0.000449
 42   -0.657468 1.697302 -2.680801 0.003308 0.005169 -0.000418
 43   -0.664068 1.698578 2.861564 -0.003886 -0.005851 0.001004
time 29
  0   0.009046 4.281381 1.527761 0.000000 0.000000 -1.571544
  1   -1.093036 0.000002 -0.326057 -1.570599 -1.570379 -0.000171
  2   2.262337 0.113614 0.064702 -0.001428 0.008570 -0.060279
  3   2.380047 0.353302 0.047440 -0.207569 -0.085011 0.084132
  4   2.033756 0.190472 -0.000128 -0.187737 0.061841 0.119735
  5   2.451511 0.204909 -0.003447 -0.260296 -0.009549 0.166238
  6   7.247600 -0.397300 -0.109469 -0.004182 0.368140 0.385561
  7   -2.022252 -0.104661 3.136172 0.120116 -0.908337 -3.674751
  8   1.168026 -0.537438 -0.063437 -1.249302 0.871158 -0.692385
  9   6.790376 -0.619176 0.015206 -0.000102 -0.000151 -0.719810
 10   8.637599 0.544015 -0.090417 -3.082186 0.530261 0.297721
 11   6.790465 -0.619039 0.017802 -0.000663 -0.011253 -0.518930
 12   -2.022474 -0.104699 -2.873818 -2.819168 1.334894 -0.072547
 13   1.167898 -0.537463 0.063297 -0.115002 -1.038733 -0.920825
 14   7.002743 -0.617765 -0.183752 0.000115 0.000194 -1.849772
 15   8.209042 0.615527 -0.255885 2.042277 0.106239 0.934587
 16   7.002735 -0.617911 -0.183641 0.013027 0.010131 -1.313413
 17   1.574674 0.609930 -0.000899 0.488376 -0.600468 0.153417
 18   -0.602177 0.511412 -0.000006 0.000000 0.000000 0.000000
 19   3.646428 0.364526 1.119313 -0.000002 -0.000014 -0.174510
 20   3.646422 0.364499 -1.117566 0.000007 -0.000003 -0.174546
 21   3.805634 1.330634 1.627658 0.000002 -0.000011 -0.000026
 22   -0.246060 -0.011889 0.516521 -0.000011 0.000031 0.000025
 23   3.805651 1.330659 -1.631083 0.000019 0.000002 -0.000024
 24   -0.246150 -0.011872 -0.516511 -0.000005 -0.000006 0.000048
 25   4.941364 1.997338 1.629330 0.000018 -0.000001 -0.000024
 26   4.941382 1.997366 -1.629410 -0.000001 0.000005 -0.000024
 27   2.930087 1.603639 1.514501 -0.000019 -0.000022 -0.000050
 28   2.932517 1.603245 -1.501142 -0.000002 -0.000009 -0.000024
 29   8.824059 0.150544 0.091743 0.000897 -0.000468 -0.171583
 30   2.111085 -0.561179 1.784320 -0.000022 0.001236 0.000153
 31   2.121290 -0.561289 -1.853599 0.000000 -0.002538 0.000107
 32   -0.810489 -0.093824 3.127092 0.262828 -3.097583 -0.334759
 33   14.298673 -0.408176 0.475484 0.003675 -0.003118 -0.522390
 34   15.835795 0.581398 0.242756 -0.001248 0.032043 0.122292
 35   -0.815868 -0.091229 -3.114430 -0.132801 3.034913 -0.011454
 36   14.294526 -0.410349 -0.463635 -0.002676 0.001857 -0.384687
 37   15.834409 0.579420 -0.284600 -0.034108 0.026558 0.304555
 38   1.139685 -3.453749 -2.823813 0.000063 -0.000060 0.000123
 39   -4.457742 -1.054854 -0.746180 0.000132 0.000288 -0.001178
 40   1.118101 -3.449769 3.237290 -0.000021 -0.000071 0.000367
 41   -4.433840 -1.059130 0.959566 0.000011 0.000024 -0.000084
 42   -0.657468 1.697302 -2.688614 0.000863 0.001336 -0.000084
 43   -0.664068 1.698578 2.869377 -0.001000 -0.001504 0.000251
time 30
  0   0.009046 4.281381 1.527761 0.000000 0.000000 -1.571544
  1   -1.093036 0.000002 -0.326057 -1.570599 -1.570379 -0.000171
  2   2.262337 0.113614 0.064702 -0.001428 0.008570 -0.060279
  3   2.380047 0.353302 0.047440 -0.207614 -0.084867 0.084622
  4   2.033756 0.190472 -0.000128 -0.187608 0.061721 0.118575
  5   2.451511 0.204909 -0.003447 -0.260296 -0.009771 0.164579
  6   7.247600 -0.397300 -0.109469 -0.004182 0.368140 0.385561
  7   -2.022252 -0.104661 3.136172 0.120116 -0.908337 -3.674751
  8   1.168026 -0.537438 -0.063437 -1.248163 0.873422 -0.691436
  9   6.790376 -0.619176 0.015206 -0.000102 -0.000151 -0.718829
 10   8.637599 0.544015 -0.090417 -3.082538 0.529909 0.296853
 11   6.790465 -0.619039 0.017802 -0.000692 -0.011253 -0.518237
 12   -2.022474 -0.104699 -2.873818 -2.821755 1.332805 -0.075515
 13   1.167898 -0.537463 0.063297 -0.116478 -1.041428 -0.918827
 14   7.002743 -0.617765 -0.183752 0.000115 0.000194 -1.849772
 15   8.209042 0.615527 -0.255885 2.042277 0.106693 0.933986
 16   7.002735 -0.617911 -0.183641 0.013027 0.010131 -1.313468
 17   1.574674 0.609930 -0.000899 0.487157 -0.600539 0.156005
 18   -0.602177 0.511412 -0.000006 0.000000 0.000000 0.000000
 19   3.646428 0.364526 1.119313 -0.000002 -0.000014 -0.174510
 20   3.646422 0.364499 -1.117566 0.000007 -0.000003 -0.174546
 21   3.805634 1.330634 1.627658 0.000002 -0.000011 -0.000026
 22   -0.246060 -0.011889 0.516521 -0.000011 0.000031 0.000025
 23   3.805651 1.330659 -1.631083 0.000019 0.000002 -0.000024
 24   -0.246150 -0.011872 -0.516511 -0.000005 -0.000006 0.000048
 25   4.941364 1.997338 1.629330 0.000018 -0.000001 -0.000024
 26   4.941382 1.997366 -1.629410 -0.000001 0.000005 -0.000024
 27   2.930087 1.603639 1.514501 -0.000019 -0.000022 -0.000050
 28   2.932517 1.603245 -1.501142 -0.000002 -0.000009 -0.000024
 29   8.824059 0.150544 0.091743 0.000006 -0.000231 -0.174534
 30   2.111085 -0.561179 1.784320 -0.000008 -0.000682 0.000024
 31   2.121290 -0.561289 -1.853599 0.000000 0.000000 -0.000002
 32   -0.810489 -0.093824 3.127092 0.262828 -3.097583 -0.334759
 33   14.298673 -0.408176 0.475484 0.003675 -0.003118 -0.522390
 34   15.835795 0.581398 0.242756 -0.001248 0.032043 0.122292
 35   -0.815868 -0.091229 -3.114430 -0.132801 3.034913 -0.011454
 36   14.294526 -0.410349 -0.463635 -0.002676 0.001857 -0.384687
 37   15.834409 0.579420 -0.284600 -0.034108 0.026558 0.304555
 38   1.139685 -3.453749 -2.823813 0.000000 0.000000 0.000001
 39   -4.457742 -1.054854 -0.746180 0.000000 0.000000 0.000000
 40   1.118101 -3.449769 3.237290 0.000000 0.000001 0.000000
 41   -4.433840 -1.059130 0.959566 -0.000001 0.000000 0.000000
 42   -0.657468 1.697302 -2.688614 0.000000 0.000002 0.000000
 43   -0.664068 1.698578 2.869377 0.000000 0.000002 0.000000
end
