version 1
nodes
  0 "Bip01" -1
  1 "Bip01 Pelvis" 0
  2 "Bip01 Spine" 1
  3 "Bip01 Spine1" 2
  4 "Bip01 Spine2" 3
  5 "Bip01 Spine3" 4
  6 "Bip01 Neck" 5
  7 "Bip01 L Arm" 6
  8 "Bip01 L Arm1" 7
  9 "Bip01 L Arm2" 8
 10 "Bip01 L Hand" 9
 11 "Bip06 L elbow2-smooth" 8
 12 "Bip01 R Arm" 6
 13 "Bip01 R Arm1" 12
 14 "Bip01 R Arm2" 13
 15 "Bip01 R Hand" 14
 16 "Bip06 R elbow2-smooth" 13
 17 "Bip01 Head" 6
 18 "Bip06 Head_helper" 17
 19 "Bip06 Head_eyes_l" 18
 20 "Bip06 Head_eyes_r" 18
 21 "Bip06 Head_blink_l" 18
 22 "Bip06 Head_blink_smooth_l1" 21
 23 "Bip06 Head_blink_r" 18
 24 "Bip06 Head_blink_smooth_r1" 23
 25 "Bip06 Head_L_eyebrow" 18
 26 "Bip06 Head_R_eyebrow" 18
 27 "Bip06 Head_blink_l_lid" 18
 28 "Bip06 Head_blink_r_lid" 18
 29 "Bip06 bunny" 18
 30 "Bip06 bunnyL" 29
 31 "Bip06 bunnyR" 29
 32 "Bip01 L Leg" 1
 33 "Bip01 L Leg1" 32
 34 "Bip01 L Foot" 33
 35 "Bip01 R Leg" 1
 36 "Bip01 R Leg1" 35
 37 "Bip01 R Foot" 36
 38 "Bip03 HairR1" 17
 39 "Bip03 HairR2" 38
 40 "Bip03 HairL1" 17
 41 "Bip03 HairL2" 40
 42 "Bip03 swingR" 17
 43 "Bip03 swingL" 17
end
skeleton
time 0
  0   -0.010486 -0.546892 1.863709 0.000000 0.000000 -1.571449
  1   -1.093036 0.000002 -0.326057 -1.570809 -1.570703 0.000022
  2   2.262337 0.113614 0.064702 -0.005988 0.026990 0.052158
  3   2.380047 0.353302 0.047440 -0.013141 -0.052700 0.057523
  4   2.033756 0.190472 -0.000128 -0.046836 -0.011901 0.270559
  5   2.451511 0.204909 -0.003447 -0.083342 0.050168 0.398142
  6   7.247600 -0.397300 -0.109469 -0.016634 0.002238 0.459335
  7   -2.022252 -0.104661 3.136172 1.267345 -0.989541 -4.810541
  8   1.168026 -0.537438 -0.063437 -1.410287 0.568014 -1.019062
  9   6.790376 -0.619176 0.015206 -0.000102 -0.000151 -0.648418
 10   8.637599 0.544015 -0.090417 -2.712225 0.365125 0.639041
 11   6.790465 -0.619039 0.017802 -0.000984 -0.011196 -0.469041
 12   -2.022474 -0.104699 -2.873818 -2.105693 1.952640 -5.738984
 13   1.167898 -0.537463 0.063297 -1.056100 -0.804402 -0.018191
 14   7.002743 -0.617765 -0.183752 0.000172 0.000194 -1.969075
 15   8.209042 0.615527 -0.255885 1.826999 0.700998 0.099520
 16   7.002735 -0.617911 -0.183641 0.012838 0.010864 -1.397030
 17   1.574674 0.609930 -0.000899 0.161465 -0.006216 -0.384440
 18   -0.602177 0.511412 -0.000006 0.000000 0.000000 0.000000
 19   3.673773 0.177020 1.119313 -0.000002 -0.000014 -0.174510
 20   3.673767 0.176993 -1.117566 0.000007 -0.000003 -0.174546
 21   3.942357 1.330634 1.627658 0.000002 -0.000011 -0.000026
 22   -0.246060 -0.011889 0.516521 -0.000011 0.000031 0.000025
 23   3.942374 1.330659 -1.631083 0.000019 0.000002 -0.000024
 24   -0.246150 -0.011872 -0.516511 -0.000005 -0.000006 0.000048
 25   4.941364 1.997338 1.629330 0.000018 -0.000001 -0.000024
 26   4.941382 1.997366 -1.629410 -0.000001 0.000005 -0.000024
 27   2.918368 1.615358 1.514501 -0.000019 -0.000022 -0.000050
 28   2.920798 1.614964 -1.501142 -0.000002 -0.000009 -0.000024
 29   8.824059 0.150544 0.091743 0.000006 -0.000231 -0.174534
 30   2.111085 -0.561179 1.784320 -0.000008 -0.000682 0.000024
 31   2.121290 -0.561289 -1.853599 0.000000 0.000000 -0.000002
 32   -0.810489 -0.093824 3.127092 0.262828 -3.097583 -0.334759
 33   14.298673 -0.408176 0.475484 0.003675 -0.003118 -0.522390
 34   15.835795 0.581398 0.242756 -0.001248 0.032043 0.122292
 35   -0.815868 -0.091229 -3.114430 -0.132801 3.034913 -0.011454
 36   14.294526 -0.410349 -0.463635 -0.002676 0.001869 -0.384687
 37   15.834409 0.579420 -0.284600 -0.034108 0.026558 0.304555
 38   1.139685 -3.453749 -2.823813 0.000000 0.000000 0.000001
 39   -4.457742 -1.054854 -0.746180 0.000000 0.000000 0.000000
 40   1.118101 -3.449769 3.237290 0.000000 0.000001 0.000000
 41   -4.433840 -1.059130 0.959566 -0.000001 0.000000 0.000000
 42   -0.657468 1.697302 -2.688614 0.000000 0.000002 0.000000
 43   -0.664068 1.698578 2.869377 0.000000 0.000002 0.000000
time 1
  0   -0.010486 -0.546892 1.863709 0.000000 0.000000 -1.571449
  1   -1.093036 0.000002 -0.326057 -1.570809 -1.570703 0.000022
  2   2.262337 0.113614 0.064702 -0.007465 0.016456 0.021112
  3   2.380047 0.353302 0.047440 -0.012946 -0.033837 0.042709
  4   2.033756 0.190472 -0.000128 -0.000010 -0.003907 0.229962
  5   2.451511 0.204909 -0.003447 -0.034953 0.033182 0.339497
  6   7.247600 -0.397300 -0.109469 -0.016634 0.002238 0.459335
  7   -2.022252 -0.104661 3.136172 1.256033 -0.990579 -4.798144
  8   1.168026 -0.537438 -0.063437 -0.761093 0.605700 -0.741981
  9   6.790376 -0.619176 0.015206 -0.000102 -0.000151 -0.831200
 10   8.637599 0.544015 -0.090417 -2.324564 0.380470 0.710083
 11   6.790465 -0.619039 0.017802 -0.000254 -0.011310 -0.597021
 12   -2.022474 -0.104699 -2.873818 -2.144686 1.931336 -5.775366
 13   1.167898 -0.537463 0.063297 -1.012728 -0.893802 0.026908
 14   7.002743 -0.617765 -0.183752 0.000172 0.000194 -1.940858
 15   8.209042 0.615527 -0.255885 2.035302 0.641530 0.098498
 16   7.002735 -0.617911 -0.183641 0.012885 0.010751 -1.377271
 17   1.574674 0.609930 -0.000899 0.083556 0.015439 -0.293183
 18   -0.602177 0.511412 -0.000006 0.000000 0.000000 0.000000
 19   3.673773 0.177020 1.119313 -0.000002 -0.000014 -0.174510
 20   3.673767 0.176993 -1.117566 0.000007 -0.000003 -0.174546
 21   3.942357 1.330634 1.627658 0.000002 -0.000011 -0.000026
 22   -0.246060 -0.011889 0.516521 -0.000011 0.000031 0.000025
 23   3.942374 1.330659 -1.631083 0.000019 0.000002 -0.000024
 24   -0.246150 -0.011872 -0.516511 -0.000005 -0.000006 0.000048
 25   4.941364 1.997338 1.629330 0.000018 -0.000001 -0.000024
 26   4.941382 1.997366 -1.629410 -0.000001 0.000005 -0.000024
 27   2.918368 1.615358 1.514501 -0.000019 -0.000022 -0.000050
 28   2.920798 1.614964 -1.501142 -0.000002 -0.000009 -0.000024
 29   8.824059 0.150544 0.091743 0.000006 -0.000231 -0.174534
 30   2.111085 -0.561179 1.784320 -0.000008 -0.000682 0.000024
 31   2.121290 -0.561289 -1.853599 0.000000 0.000000 -0.000002
 32   -0.810489 -0.093824 3.127092 0.262828 -3.097583 -0.334759
 33   14.298673 -0.408176 0.475484 0.003675 -0.003118 -0.522390
 34   15.835795 0.581398 0.242756 -0.001248 0.032043 0.122292
 35   -0.815868 -0.091229 -3.114430 -0.132801 3.034913 -0.011454
 36   14.294526 -0.410349 -0.463635 -0.002676 0.001869 -0.384687
 37   15.834409 0.579420 -0.284600 -0.034108 0.026558 0.304555
 38   1.139685 -3.453749 -2.823813 0.000000 0.000000 0.000001
 39   -4.457742 -1.054854 -0.746180 0.000000 0.000000 0.000000
 40   1.118101 -3.449769 3.237290 0.000000 0.000001 0.000000
 41   -4.433840 -1.059130 0.959566 -0.000001 0.000000 0.000000
 42   -0.657468 1.697302 -2.688614 0.000000 0.000002 0.000000
 43   -0.664068 1.698578 2.869377 0.000000 0.000002 0.000000
time 2
  0   -0.010486 -0.546892 1.863709 0.000000 0.000000 -1.571449
  1   -1.093036 0.000002 -0.326057 -1.570809 -1.570703 0.000022
  2   2.262337 0.113614 0.064702 -0.009338 -0.003115 -0.036407
  3   2.380047 0.353302 0.047440 -0.013321 0.001218 0.015324
  4   2.033756 0.190472 -0.000128 0.086117 0.015868 0.155511
  5   2.451511 0.204909 -0.003447 0.057205 0.009447 0.228746
  6   7.247600 -0.397300 -0.109469 -0.016634 0.002238 0.459335
  7   -2.022252 -0.104661 3.136172 1.244914 -0.991559 -4.785560
  8   1.168026 -0.537438 -0.063437 -0.070070 0.576970 -0.612930
  9   6.790376 -0.619176 0.015206 -0.000102 -0.000151 -1.013756
 10   8.637599 0.544015 -0.090417 -1.936374 0.369912 0.782138
 11   6.790465 -0.619039 0.017802 0.000476 -0.011452 -0.724887
 12   -2.022474 -0.104699 -2.873818 -2.239631 1.889513 -5.865171
 13   1.167898 -0.537463 0.063297 -0.805150 -1.060244 0.009655
 14   7.002743 -0.617765 -0.183752 0.000172 0.000194 -1.882692
 15   8.209042 0.615527 -0.255885 2.442272 0.526679 0.054237
 16   7.002735 -0.617911 -0.183641 0.012979 0.010413 -1.336594
 17   1.574674 0.609930 -0.000899 -0.078153 0.082392 -0.094295
 18   -0.602177 0.511412 -0.000006 0.000000 0.000000 0.000000
 19   3.673773 0.177020 1.119313 -0.000002 -0.000014 -0.174510
 20   3.673767 0.176993 -1.117566 0.000007 -0.000003 -0.174546
 21   3.942357 1.330634 1.627658 0.000002 -0.000011 -0.000026
 22   -0.246060 -0.011889 0.516521 -0.000011 0.000031 0.000025
 23   3.942374 1.330659 -1.631083 0.000019 0.000002 -0.000024
 24   -0.246150 -0.011872 -0.516511 -0.000005 -0.000006 0.000048
 25   4.941364 1.997338 1.629330 0.000018 -0.000001 -0.000024
 26   4.941382 1.997366 -1.629410 -0.000001 0.000005 -0.000024
 27   2.918368 1.615358 1.514501 -0.000019 -0.000022 -0.000050
 28   2.920798 1.614964 -1.501142 -0.000002 -0.000009 -0.000024
 29   8.824059 0.150544 0.091743 0.000006 -0.000231 -0.174534
 30   2.111085 -0.561179 1.784320 -0.000008 -0.000682 0.000024
 31   2.121290 -0.561289 -1.853599 0.000000 0.000000 -0.000002
 32   -0.810489 -0.093824 3.127092 0.262828 -3.097583 -0.334759
 33   14.298673 -0.408176 0.475484 0.003675 -0.003118 -0.522390
 34   15.835795 0.581398 0.242756 -0.001248 0.032043 0.122292
 35   -0.815868 -0.091229 -3.114430 -0.132801 3.034913 -0.011454
 36   14.294526 -0.410349 -0.463635 -0.002676 0.001869 -0.384687
 37   15.834409 0.579420 -0.284600 -0.034108 0.026558 0.304555
 38   1.139685 -3.453749 -2.823813 0.000000 0.000000 0.000001
 39   -4.457742 -1.054854 -0.746180 0.000000 0.000000 0.000000
 40   1.118101 -3.449769 3.237290 0.000000 0.000001 0.000000
 41   -4.433840 -1.059130 0.959566 -0.000001 0.000000 0.000000
 42   -0.657468 1.697302 -2.688614 0.000000 0.000002 0.000000
 43   -0.664068 1.698578 2.869377 0.000000 0.000002 0.000000
time 3
  0   -0.010486 -0.546892 1.863709 0.000000 0.000000 -1.571449
  1   -1.093036 0.000002 -0.326057 -1.570809 -1.570703 0.000022
  2   2.262337 0.113614 0.064702 -0.009873 -0.013770 -0.067453
  3   2.380047 0.353302 0.047440 -0.013936 0.020214 0.000530
  4   2.033756 0.190472 -0.000128 0.131799 0.029159 0.116219
  5   2.451511 0.204909 -0.003447 0.107768 0.000935 0.168368
  6   7.247600 -0.397300 -0.109469 -0.016634 0.002238 0.459335
  7   -2.022252 -0.104661 3.136172 1.261210 -0.998102 -4.805751
  8   1.168026 -0.537438 -0.063437 0.444590 0.345222 -0.685363
  9   6.790376 -0.619176 0.015206 -0.000102 -0.000151 -1.200538
 10   8.637599 0.544015 -0.090417 -1.605250 0.344571 0.835022
 11   6.790465 -0.619039 0.017802 0.001235 -0.011594 -0.855636
 12   -2.022474 -0.104699 -2.873818 -2.296253 1.869805 -5.919169
 13   1.167898 -0.537463 0.063297 -0.661679 -1.121420 -0.021339
 14   7.002743 -0.617765 -0.183752 0.000172 0.000194 -1.853650
 15   8.209042 0.615527 -0.255885 2.639502 0.477349 0.014907
 16   7.002735 -0.617911 -0.183641 0.013074 0.010244 -1.316283
 17   1.574674 0.609930 -0.000899 -0.179825 0.125419 -0.064172
 18   -0.602177 0.511412 -0.000006 0.000000 0.000000 0.000000
 19   3.673773 0.177020 1.119313 -0.000002 -0.000014 -0.174510
 20   3.673767 0.176993 -1.117566 0.000007 -0.000003 -0.174546
 21   3.942357 1.330634 1.627658 0.000002 -0.000011 -0.000026
 22   -0.246060 -0.011889 0.516521 -0.000011 0.000031 0.000025
 23   3.942374 1.330659 -1.631083 0.000019 0.000002 -0.000024
 24   -0.246150 -0.011872 -0.516511 -0.000005 -0.000006 0.000048
 25   4.941364 1.997338 1.629330 0.000018 -0.000001 -0.000024
 26   4.941382 1.997366 -1.629410 -0.000001 0.000005 -0.000024
 27   2.918368 1.615358 1.514501 -0.000019 -0.000022 -0.000050
 28   2.920798 1.614964 -1.501142 -0.000002 -0.000009 -0.000024
 29   8.824059 0.150544 0.091743 0.000006 -0.000231 -0.174534
 30   2.111085 -0.561179 1.784320 -0.000008 -0.000682 0.000024
 31   2.121290 -0.561289 -1.853599 0.000000 0.000000 -0.000002
 32   -0.810489 -0.093824 3.127092 0.262828 -3.097583 -0.334759
 33   14.298673 -0.408176 0.475484 0.003675 -0.003118 -0.522390
 34   15.835795 0.581398 0.242756 -0.001248 0.032043 0.122292
 35   -0.815868 -0.091229 -3.114430 -0.132801 3.034913 -0.011454
 36   14.294526 -0.410349 -0.463635 -0.002676 0.001869 -0.384687
 37   15.834409 0.579420 -0.284600 -0.034108 0.026558 0.304555
 38   1.139685 -3.453749 -2.823813 0.000000 0.000000 0.000001
 39   -4.457742 -1.054854 -0.746180 0.000000 0.000000 0.000000
 40   1.118101 -3.449769 3.237290 0.000000 0.000001 0.000000
 41   -4.433840 -1.059130 0.959566 -0.000001 0.000000 0.000000
 42   -0.657468 1.697302 -2.688614 0.000000 0.000002 0.000000
 43   -0.664068 1.698578 2.869377 0.000000 0.000002 0.000000
time 4
  0   -0.010486 -0.546892 1.863709 0.000000 0.000000 -1.571449
  1   -1.093036 0.000002 -0.326057 -1.570809 -1.570703 0.000022
  2   2.262337 0.113614 0.064702 -0.010115 -0.020828 -0.085831
  3   2.380047 0.353302 0.047440 -0.014251 0.020202 0.001938
  4   2.033756 0.190472 -0.000128 0.107713 0.033593 0.090955
  5   2.451511 0.204909 -0.003447 0.088614 0.032960 0.147243
  6   7.247600 -0.397300 -0.109469 -0.016634 0.002238 0.459335
  7   -2.022252 -0.104661 3.136172 1.435575 -1.024392 -5.011328
  8   1.168026 -0.537438 -0.063437 0.587161 0.255864 -0.873120
  9   6.790376 -0.619176 0.015206 -0.000102 -0.000151 -1.408979
 10   8.637599 0.544015 -0.090417 -1.552587 0.363154 0.833141
 11   6.790465 -0.619039 0.017802 0.002111 -0.011708 -1.001438
 12   -2.022474 -0.104699 -2.873818 -2.302289 1.868006 -5.924913
 13   1.167898 -0.537463 0.063297 -0.766980 -1.091264 0.039378
 14   7.002743 -0.617765 -0.183752 0.000172 0.000194 -1.850845
 15   8.209042 0.615527 -0.255885 2.658556 0.473036 0.010698
 16   7.002735 -0.617911 -0.183641 0.013074 0.010131 -1.314296
 17   1.574674 0.609930 -0.000899 -0.169914 0.075671 -0.097215
 18   -0.602177 0.511412 -0.000006 0.000000 0.000000 0.000000
 19   3.673773 0.177020 1.119313 -0.000002 -0.000014 -0.174510
 20   3.673767 0.176993 -1.117566 0.000007 -0.000003 -0.174546
 21   3.942357 1.330634 1.627658 0.000002 -0.000011 -0.000026
 22   -0.246060 -0.011889 0.516521 -0.000011 0.000031 0.000025
 23   3.942374 1.330659 -1.631083 0.000019 0.000002 -0.000024
 24   -0.246150 -0.011872 -0.516511 -0.000005 -0.000006 0.000048
 25   4.941364 1.997338 1.629330 0.000018 -0.000001 -0.000024
 26   4.941382 1.997366 -1.629410 -0.000001 0.000005 -0.000024
 27   2.918368 1.615358 1.514501 -0.000019 -0.000022 -0.000050
 28   2.920798 1.614964 -1.501142 -0.000002 -0.000009 -0.000024
 29   8.824059 0.150544 0.091743 0.000006 -0.000231 -0.174534
 30   2.111085 -0.561179 1.784320 -0.000008 -0.000682 0.000024
 31   2.121290 -0.561289 -1.853599 0.000000 0.000000 -0.000002
 32   -0.810489 -0.093824 3.127092 0.262828 -3.097583 -0.334759
 33   14.298673 -0.408176 0.475484 0.003675 -0.003118 -0.522390
 34   15.835795 0.581398 0.242756 -0.001248 0.032043 0.122292
 35   -0.815868 -0.091229 -3.114430 -0.132801 3.034913 -0.011454
 36   14.294526 -0.410349 -0.463635 -0.002676 0.001869 -0.384687
 37   15.834409 0.579420 -0.284600 -0.034108 0.026558 0.304555
 38   1.139685 -3.453749 -2.823813 0.000000 0.000000 0.000001
 39   -4.457742 -1.054854 -0.746180 0.000000 0.000000 0.000000
 40   1.118101 -3.449769 3.237290 0.000000 0.000001 0.000000
 41   -4.433840 -1.059130 0.959566 -0.000001 0.000000 0.000000
 42   -0.657468 1.697302 -2.688614 0.000000 0.000002 0.000000
 43   -0.664068 1.698578 2.869377 0.000000 0.000002 0.000000
time 5
  0   -0.010486 -0.546892 1.863709 0.000000 0.000000 -1.571449
  1   -1.093036 0.000002 -0.326057 -1.570809 -1.570703 0.000022
  2   2.262337 0.113614 0.064702 -0.010115 -0.023549 -0.092879
  3   2.380047 0.353302 0.047440 -0.014386 0.020154 0.002489
  4   2.033756 0.190472 -0.000128 0.098418 0.035127 0.081277
  5   2.451511 0.204909 -0.003447 0.080826 0.064359 0.140804
  6   7.247600 -0.397300 -0.109469 -0.016634 0.002238 0.459335
  7   -2.022252 -0.104661 3.136172 1.587031 -1.030446 -5.188542
  8   1.168026 -0.537438 -0.063437 0.436047 -0.032940 -0.880648
  9   6.790376 -0.619176 0.015206 -0.000102 -0.000151 -1.639532
 10   8.637599 0.544015 -0.090417 -1.775127 0.364562 0.785900
 11   6.790465 -0.619039 0.017802 0.003103 -0.011793 -1.162870
 12   -2.022474 -0.104699 -2.873818 -2.322217 1.861795 -5.944349
 13   1.167898 -0.537463 0.063297 -0.701536 -1.080025 -0.033930
 14   7.002743 -0.617765 -0.183752 0.000172 0.000194 -1.840284
 15   8.209042 0.615527 -0.255885 2.717157 0.481964 0.012081
 16   7.002735 -0.617911 -0.183641 0.013074 0.010131 -1.306845
 17   1.574674 0.609930 -0.000899 -0.184943 0.035201 -0.128743
 18   -0.602177 0.511412 -0.000006 0.000000 0.000000 0.000000
 19   3.673773 0.177020 1.119313 -0.000002 -0.000014 -0.174510
 20   3.673767 0.176993 -1.117566 0.000007 -0.000003 -0.174546
 21   3.942357 1.330634 1.627658 0.000002 -0.000011 -0.000026
 22   -0.246060 -0.011889 0.516521 -0.000011 0.000031 0.000025
 23   3.942374 1.330659 -1.631083 0.000019 0.000002 -0.000024
 24   -0.246150 -0.011872 -0.516511 -0.000005 -0.000006 0.000048
 25   4.941364 1.997338 1.629330 0.000018 -0.000001 -0.000024
 26   4.941382 1.997366 -1.629410 -0.000001 0.000005 -0.000024
 27   2.918368 1.615358 1.514501 -0.000019 -0.000022 -0.000050
 28   2.920798 1.614964 -1.501142 -0.000002 -0.000009 -0.000024
 29   8.824059 0.150544 0.091743 0.000006 -0.000231 -0.174534
 30   2.111085 -0.561179 1.784320 -0.000008 -0.000682 0.000024
 31   2.121290 -0.561289 -1.853599 0.000000 0.000000 -0.000002
 32   -0.810489 -0.093824 3.127092 0.262828 -3.097583 -0.334759
 33   14.298673 -0.408176 0.475484 0.003675 -0.003118 -0.522390
 34   15.835795 0.581398 0.242756 -0.001248 0.032043 0.122292
 35   -0.815868 -0.091229 -3.114430 -0.132801 3.034913 -0.011454
 36   14.294526 -0.410349 -0.463635 -0.002676 0.001869 -0.384687
 37   15.834409 0.579420 -0.284600 -0.034108 0.026558 0.304555
 38   1.139685 -3.453749 -2.823813 0.000000 0.000000 0.000001
 39   -4.457742 -1.054854 -0.746180 0.000000 0.000000 0.000000
 40   1.118101 -3.449769 3.237290 0.000000 0.000001 0.000000
 41   -4.433840 -1.059130 0.959566 -0.000001 0.000000 0.000000
 42   -0.657468 1.697302 -2.688614 0.000000 0.000002 0.000000
 43   -0.664068 1.698578 2.869377 0.000000 0.000002 0.000000
time 6
  0   -0.010486 -0.546892 1.863709 0.000000 0.000000 -1.571449
  1   -1.093036 0.000002 -0.326057 -1.570809 -1.570703 0.000022
  2   2.262337 0.113614 0.064702 -0.010230 -0.024939 -0.092788
  3   2.380047 0.353302 0.047440 -0.014461 0.020166 0.002734
  4   2.033756 0.190472 -0.000128 0.073355 0.026246 0.074680
  5   2.451511 0.204909 -0.003447 0.041594 0.044567 0.135851
  6   7.247600 -0.397300 -0.109469 -0.016634 0.002238 0.459335
  7   -2.022252 -0.104661 3.136172 1.425990 -1.024796 -5.000434
  8   1.168026 -0.537438 -0.063437 0.256710 -0.071380 -0.734706
  9   6.790376 -0.619176 0.015206 -0.000102 -0.000151 -1.661116
 10   8.637599 0.544015 -0.090417 -2.465292 0.195062 0.705670
 11   6.790465 -0.619039 0.017802 0.003191 -0.011793 -1.178096
 12   -2.022474 -0.104699 -2.873818 -2.327773 1.860227 -5.949519
 13   1.167898 -0.537463 0.063297 -0.730919 -1.111554 -0.069101
 14   7.002743 -0.617765 -0.183752 0.000172 0.000194 -1.837149
 15   8.209042 0.615527 -0.255885 2.732544 0.484385 0.012622
 16   7.002735 -0.617911 -0.183641 0.013074 0.010131 -1.304748
 17   1.574674 0.609930 -0.000899 -0.135103 0.034846 -0.157462
 18   -0.602177 0.511412 -0.000006 0.000000 0.000000 0.000000
 19   3.673773 0.177020 1.119313 -0.000002 -0.000014 -0.174510
 20   3.673767 0.176993 -1.117566 0.000007 -0.000003 -0.174546
 21   3.942357 1.330634 1.627658 0.000002 -0.000011 -0.000026
 22   -0.246060 -0.011889 0.516521 -0.000011 0.000031 0.000025
 23   3.942374 1.330659 -1.631083 0.000019 0.000002 -0.000024
 24   -0.246150 -0.011872 -0.516511 -0.000005 -0.000006 0.000048
 25   4.941364 1.997338 1.629330 0.000018 -0.000001 -0.000024
 26   4.941382 1.997366 -1.629410 -0.000001 0.000005 -0.000024
 27   2.918368 1.615358 1.514501 -0.000019 -0.000022 -0.000050
 28   2.920798 1.614964 -1.501142 -0.000002 -0.000009 -0.000024
 29   8.824059 0.150544 0.091743 0.000006 -0.000231 -0.174534
 30   2.111085 -0.561179 1.784320 -0.000008 -0.000682 0.000024
 31   2.121290 -0.561289 -1.853599 0.000000 0.000000 -0.000002
 32   -0.810489 -0.093824 3.127092 0.262828 -3.097583 -0.334759
 33   14.298673 -0.408176 0.475484 0.003675 -0.003118 -0.522390
 34   15.835795 0.581398 0.242756 -0.001248 0.032043 0.122292
 35   -0.815868 -0.091229 -3.114430 -0.132801 3.034913 -0.011454
 36   14.294526 -0.410349 -0.463635 -0.002676 0.001869 -0.384687
 37   15.834409 0.579420 -0.284600 -0.034108 0.026558 0.304555
 38   1.139685 -3.453749 -2.823813 0.000000 0.000000 0.000001
 39   -4.457742 -1.054854 -0.746180 0.000000 0.000000 0.000000
 40   1.118101 -3.449769 3.237290 0.000000 0.000001 0.000000
 41   -4.433840 -1.059130 0.959566 -0.000001 0.000000 0.000000
 42   -0.657468 1.697302 -2.688614 0.000000 0.000002 0.000000
 43   -0.664068 1.698578 2.869377 0.000000 0.000002 0.000000
time 7
  0   -0.010486 -0.546892 1.863709 0.000000 0.000000 -1.571449
  1   -1.093036 0.000002 -0.326057 -1.570809 -1.570703 0.000022
  2   2.262337 0.113614 0.064702 -0.010433 -0.027564 -0.092644
  3   2.380047 0.353302 0.047440 -0.014596 0.020154 0.003285
  4   2.033756 0.190472 -0.000128 0.026898 0.009492 0.063190
  5   2.451511 0.204909 -0.003447 -0.030759 0.007254 0.128570
  6   7.247600 -0.397300 -0.109469 -0.016634 0.002238 0.459335
  7   -2.022252 -0.104661 3.136172 1.290926 -1.007212 -4.841438
  8   1.168026 -0.537438 -0.063437 0.132617 -0.034852 -0.543217
  9   6.790376 -0.619176 0.015206 -0.000102 -0.000151 -1.639985
 10   8.637599 0.544015 -0.090417 -2.968934 0.087928 0.728097
 11   6.790465 -0.619039 0.017802 0.003103 -0.011793 -1.163158
 12   -2.022474 -0.104699 -2.873818 -2.336204 1.857789 -5.957657
 13   1.167898 -0.537463 0.063297 -0.787014 -1.191749 -0.141561
 14   7.002743 -0.617765 -0.183752 0.000172 0.000194 -1.787068
 15   8.209042 0.615527 -0.255885 2.587948 0.497701 -0.006802
 16   7.002735 -0.617911 -0.183641 0.013121 0.009849 -1.269645
 17   1.574674 0.609930 -0.000899 -0.010805 0.046490 -0.172320
 18   -0.602177 0.511412 -0.000006 0.000000 0.000000 0.000000
 19   3.673773 0.177020 1.119313 -0.000002 -0.000014 -0.174510
 20   3.673767 0.176993 -1.117566 0.000007 -0.000003 -0.174546
 21   3.942357 1.330634 1.627658 0.000002 -0.000011 -0.000026
 22   -0.246060 -0.011889 0.516521 -0.000011 0.000031 0.000025
 23   3.942374 1.330659 -1.631083 0.000019 0.000002 -0.000024
 24   -0.246150 -0.011872 -0.516511 -0.000005 -0.000006 0.000048
 25   4.941364 1.997338 1.629330 0.000018 -0.000001 -0.000024
 26   4.941382 1.997366 -1.629410 -0.000001 0.000005 -0.000024
 27   2.918368 1.615358 1.514501 -0.000019 -0.000022 -0.000050
 28   2.920798 1.614964 -1.501142 -0.000002 -0.000009 -0.000024
 29   8.824059 0.150544 0.091743 0.000006 -0.000231 -0.174534
 30   2.111085 -0.561179 1.784320 -0.000008 -0.000682 0.000024
 31   2.121290 -0.561289 -1.853599 0.000000 0.000000 -0.000002
 32   -0.810489 -0.093824 3.127092 0.262828 -3.097583 -0.334759
 33   14.298673 -0.408176 0.475484 0.003675 -0.003118 -0.522390
 34   15.835795 0.581398 0.242756 -0.001248 0.032043 0.122292
 35   -0.815868 -0.091229 -3.114430 -0.132801 3.034913 -0.011454
 36   14.294526 -0.410349 -0.463635 -0.002676 0.001869 -0.384687
 37   15.834409 0.579420 -0.284600 -0.034108 0.026558 0.304555
 38   1.139685 -3.453749 -2.823813 0.000000 0.000000 0.000001
 39   -4.457742 -1.054854 -0.746180 0.000000 0.000000 0.000000
 40   1.118101 -3.449769 3.237290 0.000000 0.000001 0.000000
 41   -4.433840 -1.059130 0.959566 -0.000001 0.000000 0.000000
 42   -0.657468 1.697302 -2.688614 0.000000 0.000002 0.000000
 43   -0.664068 1.698578 2.869377 0.000000 0.000002 0.000000
time 8
  0   -0.010486 -0.546892 1.863709 0.000000 0.000000 -1.571449
  1   -1.093036 0.000002 -0.326057 -1.570809 -1.570703 0.000022
  2   2.262337 0.113614 0.064702 -0.010548 -0.028930 -0.092535
  3   2.380047 0.353302 0.047440 -0.014686 0.020106 0.003591
  4   2.033756 0.190472 -0.000128 0.001945 0.000216 0.057318
  5   2.451511 0.204909 -0.003447 -0.069700 -0.012917 0.125870
  6   7.247600 -0.397300 -0.109469 -0.016634 0.002238 0.459335
  7   -2.022252 -0.104661 3.136172 1.258909 -1.001158 -4.803685
  8   1.168026 -0.537438 -0.063437 0.087878 -0.015179 -0.448010
  9   6.790376 -0.619176 0.015206 -0.000102 -0.000151 -1.634627
 10   8.637599 0.544015 -0.090417 -3.134056 0.083071 0.740540
 11   6.790465 -0.619039 0.017802 0.003045 -0.011793 -1.159525
 12   -2.022474 -0.104699 -2.873818 -2.345210 1.855264 -5.966369
 13   1.167898 -0.537463 0.063297 -0.783007 -1.250739 -0.215474
 14   7.002743 -0.617765 -0.183752 0.000172 0.000023 -1.736905
 15   8.209042 0.615527 -0.255885 2.442272 0.508218 -0.028031
 16   7.002735 -0.617911 -0.183641 0.013262 0.009454 -1.234598
 17   1.574674 0.609930 -0.000899 0.074782 0.060051 -0.205326
 18   -0.602177 0.511412 -0.000006 0.000000 0.000000 0.000000
 19   3.673773 0.177020 1.119313 -0.000002 -0.000014 -0.174510
 20   3.673767 0.176993 -1.117566 0.000007 -0.000003 -0.174546
 21   3.942357 1.330634 1.627658 0.000002 -0.000011 -0.000026
 22   -0.246060 -0.011889 0.516521 -0.000011 0.000031 0.000025
 23   3.942374 1.330659 -1.631083 0.000019 0.000002 -0.000024
 24   -0.246150 -0.011872 -0.516511 -0.000005 -0.000006 0.000048
 25   4.941364 1.997338 1.629330 0.000018 -0.000001 -0.000024
 26   4.941382 1.997366 -1.629410 -0.000001 0.000005 -0.000024
 27   2.918368 1.615358 1.514501 -0.000019 -0.000022 -0.000050
 28   2.920798 1.614964 -1.501142 -0.000002 -0.000009 -0.000024
 29   8.824059 0.150544 0.091743 0.000006 -0.000231 -0.174534
 30   2.111085 -0.561179 1.784320 -0.000008 -0.000682 0.000024
 31   2.121290 -0.561289 -1.853599 0.000000 0.000000 -0.000002
 32   -0.810489 -0.093824 3.127092 0.262828 -3.097583 -0.334759
 33   14.298673 -0.408176 0.475484 0.003675 -0.003118 -0.522390
 34   15.835795 0.581398 0.242756 -0.001248 0.032043 0.122292
 35   -0.815868 -0.091229 -3.114430 -0.132801 3.034913 -0.011454
 36   14.294526 -0.410349 -0.463635 -0.002676 0.001869 -0.384687
 37   15.834409 0.579420 -0.284600 -0.034108 0.026558 0.304555
 38   1.139685 -3.453749 -2.823813 0.000000 0.000000 0.000001
 39   -4.457742 -1.054854 -0.746180 0.000000 0.000000 0.000000
 40   1.118101 -3.449769 3.237290 0.000000 0.000001 0.000000
 41   -4.433840 -1.059130 0.959566 -0.000001 0.000000 0.000000
 42   -0.657468 1.697302 -2.688614 0.000000 0.000002 0.000000
 43   -0.664068 1.698578 2.869377 0.000000 0.000002 0.000000
time 9
  0   -0.010486 -0.546892 1.863709 0.000000 0.000000 -1.571449
  1   -1.093036 0.000002 -0.326057 -1.570809 -1.570703 0.000022
  2   2.262337 0.113614 0.064702 -0.010548 -0.029661 -0.094487
  3   2.380047 0.353302 0.047440 -0.014716 0.020106 0.003734
  4   2.033756 0.190472 -0.000128 -0.017881 -0.000168 0.054527
  5   2.451511 0.204909 -0.003447 -0.093886 -0.013961 0.123493
  6   7.247600 -0.397300 -0.109469 -0.016634 0.002238 0.459335
  7   -2.022252 -0.104661 3.136172 1.243859 -0.998247 -4.785935
  8   1.168026 -0.537438 -0.063437 -0.091206 0.097223 -0.347932
  9   6.790376 -0.619176 0.015206 -0.000102 -0.000151 -1.598629
 10   8.637599 0.544015 -0.090417 -3.530172 0.256372 0.690550
 11   6.790465 -0.619039 0.017802 0.002899 -0.011793 -1.134321
 12   -2.022474 -0.104699 -2.873818 -2.349330 1.854161 -5.970773
 13   1.167898 -0.537463 0.063297 -0.648956 -1.285014 -0.387695
 14   7.002743 -0.617765 -0.183752 0.000172 0.000023 -1.706378
 15   8.209042 0.615527 -0.255885 2.458523 0.542189 -0.015041
 16   7.002735 -0.617911 -0.183641 0.013309 0.009285 -1.213183
 17   1.574674 0.609930 -0.000899 0.145014 0.058418 -0.243988
 18   -0.602177 0.511412 -0.000006 0.000000 0.000000 0.000000
 19   3.673773 0.177020 1.119313 -0.000002 -0.000014 -0.174510
 20   3.673767 0.176993 -1.117566 0.000007 -0.000003 -0.174546
 21   3.942357 1.330634 1.627658 0.000002 -0.000011 -0.000026
 22   -0.246060 -0.011889 0.516521 -0.000011 0.000031 0.000025
 23   3.942374 1.330659 -1.631083 0.000019 0.000002 -0.000024
 24   -0.246150 -0.011872 -0.516511 -0.000005 -0.000006 0.000048
 25   4.941364 1.997338 1.629330 0.000018 -0.000001 -0.000024
 26   4.941382 1.997366 -1.629410 -0.000001 0.000005 -0.000024
 27   2.918368 1.615358 1.514501 -0.000019 -0.000022 -0.000050
 28   2.920798 1.614964 -1.501142 -0.000002 -0.000009 -0.000024
 29   8.824059 0.150544 0.091743 0.000006 -0.000231 -0.174534
 30   2.111085 -0.561179 1.784320 -0.000008 -0.000682 0.000024
 31   2.121290 -0.561289 -1.853599 0.000000 0.000000 -0.000002
 32   -0.810489 -0.093824 3.127092 0.262828 -3.097583 -0.334759
 33   14.298673 -0.408176 0.475484 0.003675 -0.003118 -0.522390
 34   15.835795 0.581398 0.242756 -0.001248 0.032043 0.122292
 35   -0.815868 -0.091229 -3.114430 -0.132801 3.034913 -0.011454
 36   14.294526 -0.410349 -0.463635 -0.002676 0.001869 -0.384687
 37   15.834409 0.579420 -0.284600 -0.034108 0.026558 0.304555
 38   1.139685 -3.453749 -2.823813 0.000000 0.000000 0.000001
 39   -4.457742 -1.054854 -0.746180 0.000000 0.000000 0.000000
 40   1.118101 -3.449769 3.237290 0.000000 0.000001 0.000000
 41   -4.433840 -1.059130 0.959566 -0.000001 0.000000 0.000000
 42   -0.657468 1.697302 -2.688614 0.000000 0.000002 0.000000
 43   -0.664068 1.698578 2.869377 0.000000 0.000002 0.000000
time 10
  0   -0.010486 -0.546892 1.863709 0.000000 0.000000 -1.571449
  1   -1.093036 0.000002 -0.326057 -1.570809 -1.570703 0.000022
  2   2.262337 0.113614 0.064702 -0.010548 -0.030392 -0.096366
  3   2.380047 0.353302 0.047440 -0.014761 0.020106 0.003877
  4   2.033756 0.190472 -0.000128 -0.037799 -0.000599 0.051881
  5   2.451511 0.204909 -0.003447 -0.118055 -0.015058 0.121165
  6   7.247600 -0.397300 -0.109469 -0.016634 0.002238 0.459335
  7   -2.022252 -0.104661 3.136172 1.258909 -1.001475 -4.803685
  8   1.168026 -0.537438 -0.063437 -0.222703 0.226078 -0.265567
  9   6.790376 -0.619176 0.015206 -0.000102 -0.000151 -1.601572
 10   8.637599 0.544015 -0.090417 -3.799650 0.395604 0.589702
 11   6.790465 -0.619039 0.017802 0.002899 -0.011793 -1.136282
 12   -2.022474 -0.104699 -2.873818 -2.353162 1.853146 -5.974316
 13   1.167898 -0.537463 0.063297 -0.570227 -1.275250 -0.487275
 14   7.002743 -0.617765 -0.183752 0.000172 0.000023 -1.680471
 15   8.209042 0.615527 -0.255885 2.428755 0.561331 -0.071390
 16   7.002735 -0.617911 -0.183641 0.013309 0.009229 -1.194914
 17   1.574674 0.609930 -0.000899 0.216505 0.059767 -0.273187
 18   -0.602177 0.511412 -0.000006 0.000000 0.000000 0.000000
 19   3.673773 0.177020 1.119313 -0.000002 -0.000014 -0.174510
 20   3.673767 0.176993 -1.117566 0.000007 -0.000003 -0.174546
 21   3.942357 1.330634 1.627658 0.000002 -0.000011 -0.000026
 22   -0.246060 -0.011889 0.516521 -0.000011 0.000031 0.000025
 23   3.942374 1.330659 -1.631083 0.000019 0.000002 -0.000024
 24   -0.246150 -0.011872 -0.516511 -0.000005 -0.000006 0.000048
 25   4.941364 1.997338 1.629330 0.000018 -0.000001 -0.000024
 26   4.941382 1.997366 -1.629410 -0.000001 0.000005 -0.000024
 27   2.918368 1.615358 1.514501 -0.000019 -0.000022 -0.000050
 28   2.920798 1.614964 -1.501142 -0.000002 -0.000009 -0.000024
 29   8.824059 0.150544 0.091743 0.000006 -0.000231 -0.174534
 30   2.111085 -0.561179 1.784320 -0.000008 -0.000682 0.000024
 31   2.121290 -0.561289 -1.853599 0.000000 0.000000 -0.000002
 32   -0.810489 -0.093824 3.127092 0.262828 -3.097583 -0.334759
 33   14.298673 -0.408176 0.475484 0.003675 -0.003118 -0.522390
 34   15.835795 0.581398 0.242756 -0.001248 0.032043 0.122292
 35   -0.815868 -0.091229 -3.114430 -0.132801 3.034913 -0.011454
 36   14.294526 -0.410349 -0.463635 -0.002676 0.001869 -0.384687
 37   15.834409 0.579420 -0.284600 -0.034108 0.026558 0.304555
 38   1.139685 -3.453749 -2.823813 0.000000 0.000000 0.000001
 39   -4.457742 -1.054854 -0.746180 0.000000 0.000000 0.000000
 40   1.118101 -3.449769 3.237290 0.000000 0.000001 0.000000
 41   -4.433840 -1.059130 0.959566 -0.000001 0.000000 0.000000
 42   -0.657468 1.697302 -2.688614 0.000000 0.000002 0.000000
 43   -0.664068 1.698578 2.869377 0.000000 0.000002 0.000000
time 11
  0   -0.010486 -0.546892 1.863709 0.000000 0.000000 -1.571449
  1   -1.093036 0.000002 -0.326057 -1.570809 -1.570703 0.000022
  2   2.262337 0.113614 0.064702 -0.010548 -0.028187 -0.096421
  3   2.380047 0.353302 0.047440 -0.014761 0.011681 0.011447
  4   2.033756 0.190472 -0.000128 -0.053973 -0.003955 0.053077
  5   2.451511 0.204909 -0.003447 -0.116874 -0.014640 0.118688
  6   7.247600 -0.397300 -0.109469 -0.016634 0.002238 0.459335
  7   -2.022252 -0.104661 3.136172 1.258909 -1.001360 -4.803685
  8   1.168026 -0.537438 -0.063437 -0.272821 0.258229 -0.218438
  9   6.790376 -0.619176 0.015206 -0.000102 -0.000151 -1.689567
 10   8.637599 0.544015 -0.090417 -3.840688 0.346190 0.612780
 11   6.790465 -0.619039 0.017802 0.003337 -0.011793 -1.197994
 12   -2.022474 -0.104699 -2.873818 -2.349522 1.854074 -5.970869
 13   1.167898 -0.537463 0.063297 -0.792215 -1.100570 -0.219227
 14   7.002743 -0.617765 -0.183752 0.000172 0.000023 -1.710008
 15   8.209042 0.615527 -0.255885 2.256619 0.457374 -0.339001
 16   7.002735 -0.617911 -0.183641 0.013309 0.009285 -1.215722
 17   1.574674 0.609930 -0.000899 0.251520 0.072050 -0.295179
 18   -0.602177 0.511412 -0.000006 0.000000 0.000000 0.000000
 19   3.673773 0.177020 1.119313 -0.000002 -0.000014 -0.174510
 20   3.673767 0.176993 -1.117566 0.000007 -0.000003 -0.174546
 21   3.942357 1.330634 1.627658 0.000002 -0.000011 -0.000026
 22   -0.246060 -0.011889 0.516521 -0.000011 0.000031 0.000025
 23   3.942374 1.330659 -1.631083 0.000019 0.000002 -0.000024
 24   -0.246150 -0.011872 -0.516511 -0.000005 -0.000006 0.000048
 25   4.941364 1.997338 1.629330 0.000018 -0.000001 -0.000024
 26   4.941382 1.997366 -1.629410 -0.000001 0.000005 -0.000024
 27   2.918368 1.615358 1.514501 -0.000019 -0.000022 -0.000050
 28   2.920798 1.614964 -1.501142 -0.000002 -0.000009 -0.000024
 29   8.824059 0.150544 0.091743 0.000006 -0.000231 -0.174534
 30   2.111085 -0.561179 1.784320 -0.000008 -0.000682 0.000024
 31   2.121290 -0.561289 -1.853599 0.000000 0.000000 -0.000002
 32   -0.810489 -0.093824 3.127092 0.262828 -3.097583 -0.334759
 33   14.298673 -0.408176 0.475484 0.003675 -0.003118 -0.522390
 34   15.835795 0.581398 0.242756 -0.001248 0.032043 0.122292
 35   -0.815868 -0.091229 -3.114430 -0.132801 3.034913 -0.011454
 36   14.294526 -0.410349 -0.463635 -0.002676 0.001869 -0.384687
 37   15.834409 0.579420 -0.284600 -0.034108 0.026558 0.304555
 38   1.139685 -3.453749 -2.823813 0.000000 0.000000 0.000001
 39   -4.457742 -1.054854 -0.746180 0.000000 0.000000 0.000000
 40   1.118101 -3.449769 3.237290 0.000000 0.000001 0.000000
 41   -4.433840 -1.059130 0.959566 -0.000001 0.000000 0.000000
 42   -0.657468 1.697302 -2.688614 0.000000 0.000002 0.000000
 43   -0.664068 1.698578 2.869377 0.000000 0.000002 0.000000
time 12
  0   -0.010486 -0.546892 1.863709 0.000000 0.000000 -1.571449
  1   -1.093036 0.000002 -0.326057 -1.570809 -1.570703 0.000022
  2   2.262337 0.113614 0.064702 -0.010599 -0.022950 -0.096421
  3   2.380047 0.353302 0.047440 -0.014926 -0.008465 0.029343
  4   2.033756 0.190472 -0.000128 -0.093311 -0.011745 0.056158
  5   2.451511 0.204909 -0.003447 -0.115710 -0.012891 0.114008
  6   7.247600 -0.397300 -0.109469 -0.016634 0.002238 0.459335
  7   -2.022252 -0.104661 3.136172 1.258909 -1.001302 -4.803685
  8   1.168026 -0.537438 -0.063437 -0.303259 0.258581 -0.143917
  9   6.790376 -0.619176 0.015206 -0.000102 -0.000151 -1.803825
 10   8.637599 0.544015 -0.090417 -3.805374 0.252219 0.670945
 11   6.790465 -0.619039 0.017802 0.003892 -0.011850 -1.277989
 12   -2.022474 -0.104699 -2.873818 -2.344252 1.855584 -5.965508
 13   1.167898 -0.537463 0.063297 -0.899625 -0.910787 -0.090954
 14   7.002743 -0.617765 -0.183752 0.000172 0.000023 -1.750683
 15   8.209042 0.615527 -0.255885 2.125540 0.306585 -0.573717
 16   7.002735 -0.617911 -0.183641 0.013215 0.009567 -1.244146
 17   1.574674 0.609930 -0.000899 0.301767 0.087220 -0.309002
 18   -0.602177 0.511412 -0.000006 0.000000 0.000000 0.000000
 19   3.673773 0.177020 1.119313 -0.000002 -0.000014 -0.174510
 20   3.673767 0.176993 -1.117566 0.000007 -0.000003 -0.174546
 21   3.942357 1.330634 1.627658 0.000002 -0.000011 -0.000026
 22   -0.246060 -0.011889 0.516521 -0.000011 0.000031 0.000025
 23   3.942374 1.330659 -1.631083 0.000019 0.000002 -0.000024
 24   -0.246150 -0.011872 -0.516511 -0.000005 -0.000006 0.000048
 25   4.941364 1.997338 1.629330 0.000018 -0.000001 -0.000024
 26   4.941382 1.997366 -1.629410 -0.000001 0.000005 -0.000024
 27   2.918368 1.615358 1.514501 -0.000019 -0.000022 -0.000050
 28   2.920798 1.614964 -1.501142 -0.000002 -0.000009 -0.000024
 29   8.824059 0.150544 0.091743 0.000006 -0.000231 -0.174534
 30   2.111085 -0.561179 1.784320 -0.000008 -0.000682 0.000024
 31   2.121290 -0.561289 -1.853599 0.000000 0.000000 -0.000002
 32   -0.810489 -0.093824 3.127092 0.262828 -3.097583 -0.334759
 33   14.298673 -0.408176 0.475484 0.003675 -0.003118 -0.522390
 34   15.835795 0.581398 0.242756 -0.001248 0.032043 0.122292
 35   -0.815868 -0.091229 -3.114430 -0.132801 3.034913 -0.011454
 36   14.294526 -0.410349 -0.463635 -0.002676 0.001869 -0.384687
 37   15.834409 0.579420 -0.284600 -0.034108 0.026558 0.304555
 38   1.139685 -3.453749 -2.823813 0.000000 0.000000 0.000001
 39   -4.457742 -1.054854 -0.746180 0.000000 0.000000 0.000000
 40   1.118101 -3.449769 3.237290 0.000000 0.000001 0.000000
 41   -4.433840 -1.059130 0.959566 -0.000001 0.000000 0.000000
 42   -0.657468 1.697302 -2.688614 0.000000 0.000002 0.000000
 43   -0.664068 1.698578 2.869377 0.000000 0.000002 0.000000
time 13
  0   -0.010486 -0.546892 1.863709 0.000000 0.000000 -1.571449
  1   -1.093036 0.000002 -0.326057 -1.570809 -1.570703 0.000022
  2   2.262337 0.113614 0.064702 -0.010650 -0.016718 -0.096168
  3   2.380047 0.353302 0.047440 -0.015691 -0.032662 0.050830
  4   2.033756 0.190472 -0.000128 -0.141889 -0.020805 0.060725
  5   2.451511 0.204909 -0.003447 -0.118209 -0.008857 0.111407
  6   7.247600 -0.397300 -0.109469 -0.016634 0.002238 0.459335
  7   -2.022252 -0.104661 3.136172 1.258909 -1.001129 -4.803685
  8   1.168026 -0.537438 -0.063437 -0.318383 0.266581 -0.064589
  9   6.790376 -0.619176 0.015206 -0.000102 -0.000151 -1.930535
 10   8.637599 0.544015 -0.090417 -3.745842 0.132344 0.738008
 11   6.790465 -0.619039 0.017802 0.004446 -0.011850 -1.366578
 12   -2.022474 -0.104699 -2.873818 -2.340228 1.856658 -5.961678
 13   1.167898 -0.537463 0.063297 -0.939411 -0.801910 -0.068132
 14   7.002743 -0.617765 -0.183752 0.000172 0.000023 -1.779065
 15   8.209042 0.615527 -0.255885 2.066005 0.205050 -0.702290
 16   7.002735 -0.617911 -0.183641 0.013168 0.009736 -1.263905
 17   1.574674 0.609930 -0.000899 0.361804 0.102486 -0.322197
 18   -0.602177 0.511412 -0.000006 0.000000 0.000000 0.000000
 19   3.673773 0.177020 1.119313 -0.000002 -0.000014 -0.174510
 20   3.673767 0.176993 -1.117566 0.000007 -0.000003 -0.174546
 21   3.942357 1.330634 1.627658 0.000002 -0.000011 -0.000026
 22   -0.246060 -0.011889 0.516521 -0.000011 0.000031 0.000025
 23   3.942374 1.330659 -1.631083 0.000019 0.000002 -0.000024
 24   -0.246150 -0.011872 -0.516511 -0.000005 -0.000006 0.000048
 25   4.941364 1.997338 1.629330 0.000018 -0.000001 -0.000024
 26   4.941382 1.997366 -1.629410 -0.000001 0.000005 -0.000024
 27   2.918368 1.615358 1.514501 -0.000019 -0.000022 -0.000050
 28   2.920798 1.614964 -1.501142 -0.000002 -0.000009 -0.000024
 29   8.824059 0.150544 0.091743 0.000006 -0.000231 -0.174534
 30   2.111085 -0.561179 1.784320 -0.000008 -0.000682 0.000024
 31   2.121290 -0.561289 -1.853599 0.000000 0.000000 -0.000002
 32   -0.810489 -0.093824 3.127092 0.262828 -3.097583 -0.334759
 33   14.298673 -0.408176 0.475484 0.003675 -0.003118 -0.522390
 34   15.835795 0.581398 0.242756 -0.001248 0.032043 0.122292
 35   -0.815868 -0.091229 -3.114430 -0.132801 3.034913 -0.011454
 36   14.294526 -0.410349 -0.463635 -0.002676 0.001869 -0.384687
 37   15.834409 0.579420 -0.284600 -0.034108 0.026558 0.304555
 38   1.139685 -3.453749 -2.823813 0.000000 0.000000 0.000001
 39   -4.457742 -1.054854 -0.746180 0.000000 0.000000 0.000000
 40   1.118101 -3.449769 3.237290 0.000000 0.000001 0.000000
 41   -4.433840 -1.059130 0.959566 -0.000001 0.000000 0.000000
 42   -0.657468 1.697302 -2.688614 0.000000 0.000002 0.000000
 43   -0.664068 1.698578 2.869377 0.000000 0.000002 0.000000
time 14
  0   -0.010486 -0.546892 1.863709 0.000000 0.000000 -1.571449
  1   -1.093036 0.000002 -0.326057 -1.570809 -1.570703 0.000022
  2   2.262337 0.113614 0.064702 -0.010650 -0.011516 -0.095445
  3   2.380047 0.353302 0.047440 -0.016726 -0.052868 0.068828
  4   2.033756 0.190472 -0.000128 -0.185948 -0.028308 0.065691
  5   2.451511 0.204909 -0.003447 -0.128137 -0.001493 0.114949
  6   7.247600 -0.397300 -0.109469 -0.016634 0.002238 0.459335
  7   -2.022252 -0.104661 3.136172 1.259101 -1.000985 -4.803779
  8   1.168026 -0.537438 -0.063437 -0.321294 0.321323 -0.002910
  9   6.790376 -0.619176 0.015206 -0.000102 -0.000151 -2.055056
 10   8.637599 0.544015 -0.090417 -3.706389 0.010146 0.799139
 11   6.790465 -0.619039 0.017802 0.005089 -0.011850 -1.453782
 12   -2.022474 -0.104699 -2.873818 -2.338695 1.857035 -5.960242
 13   1.167898 -0.537463 0.063297 -0.941591 -0.780603 -0.109901
 14   7.002743 -0.617765 -0.183752 0.000172 0.000194 -1.788388
 15   8.209042 0.615527 -0.255885 2.050545 0.174408 -0.739816
 16   7.002735 -0.617911 -0.183641 0.013121 0.009849 -1.270473
 17   1.574674 0.609930 -0.000899 0.420093 0.109089 -0.331216
 18   -0.602177 0.511412 -0.000006 0.000000 0.000000 0.000000
 19   3.673773 0.177020 1.119313 -0.000002 -0.000014 -0.174510
 20   3.673767 0.176993 -1.117566 0.000007 -0.000003 -0.174546
 21   3.942357 1.330634 1.627658 0.000002 -0.000011 -0.000026
 22   -0.246060 -0.011889 0.516521 -0.000011 0.000031 0.000025
 23   3.942374 1.330659 -1.631083 0.000019 0.000002 -0.000024
 24   -0.246150 -0.011872 -0.516511 -0.000005 -0.000006 0.000048
 25   4.941364 1.997338 1.629330 0.000018 -0.000001 -0.000024
 26   4.941382 1.997366 -1.629410 -0.000001 0.000005 -0.000024
 27   2.918368 1.615358 1.514501 -0.000019 -0.000022 -0.000050
 28   2.920798 1.614964 -1.501142 -0.000002 -0.000009 -0.000024
 29   8.824059 0.150544 0.091743 0.000006 -0.000231 -0.174534
 30   2.111085 -0.561179 1.784320 -0.000008 -0.000682 0.000024
 31   2.121290 -0.561289 -1.853599 0.000000 0.000000 -0.000002
 32   -0.810489 -0.093824 3.127092 0.262828 -3.097583 -0.334759
 33   14.298673 -0.408176 0.475484 0.003675 -0.003118 -0.522390
 34   15.835795 0.581398 0.242756 -0.001248 0.032043 0.122292
 35   -0.815868 -0.091229 -3.114430 -0.132801 3.034913 -0.011454
 36   14.294526 -0.410349 -0.463635 -0.002676 0.001869 -0.384687
 37   15.834409 0.579420 -0.284600 -0.034108 0.026558 0.304555
 38   1.139685 -3.453749 -2.823813 0.000000 0.000000 0.000001
 39   -4.457742 -1.054854 -0.746180 0.000000 0.000000 0.000000
 40   1.118101 -3.449769 3.237290 0.000000 0.000001 0.000000
 41   -4.433840 -1.059130 0.959566 -0.000001 0.000000 0.000000
 42   -0.657468 1.697302 -2.688614 0.000000 0.000002 0.000000
 43   -0.664068 1.698578 2.869377 0.000000 0.000002 0.000000
time 15
  0   -0.010486 -0.546892 1.863709 0.000000 0.000000 -1.571449
  1   -1.093036 0.000002 -0.326057 -1.570809 -1.570703 0.000022
  2   2.262337 0.113614 0.064702 -0.010548 -0.010713 -0.090981
  3   2.380047 0.353302 0.047440 -0.016951 -0.057938 0.073011
  4   2.033756 0.190472 -0.000128 -0.223147 -0.029818 0.072904
  5   2.451511 0.204909 -0.003447 -0.190562 0.032882 0.159551
  6   7.247600 -0.397300 -0.109469 -0.016634 0.002238 0.459335
  7   -2.022252 -0.104661 3.136172 1.259676 -1.000610 -4.804436
  8   1.168026 -0.537438 -0.063437 -0.232701 0.684542 -0.023090
  9   6.790376 -0.619176 0.015206 -0.000102 -0.000151 -2.195048
 10   8.637599 0.544015 -0.090417 -3.681819 -0.169983 0.892391
 11   6.790465 -0.619039 0.017802 0.005819 -0.011907 -1.551772
 12   -2.022474 -0.104699 -2.873818 -2.328732 1.859937 -5.950859
 13   1.167898 -0.537463 0.063297 -0.992483 -0.718511 -0.161174
 14   7.002743 -0.617765 -0.183752 0.000172 0.000194 -1.828156
 15   8.209042 0.615527 -0.255885 2.040767 0.185151 -0.757136
 16   7.002735 -0.617911 -0.183641 0.013121 0.010018 -1.298456
 17   1.574674 0.609930 -0.000899 0.515754 0.070275 -0.370912
 18   -0.602177 0.511412 -0.000006 0.000000 0.000000 0.000000
 19   3.673773 0.177020 1.119313 -0.000002 -0.000014 -0.174510
 20   3.673767 0.176993 -1.117566 0.000007 -0.000003 -0.174546
 21   3.942357 1.330634 1.627658 0.000002 -0.000011 -0.000026
 22   -0.246060 -0.011889 0.516521 -0.000011 0.000031 0.000025
 23   3.942374 1.330659 -1.631083 0.000019 0.000002 -0.000024
 24   -0.246150 -0.011872 -0.516511 -0.000005 -0.000006 0.000048
 25   4.941364 1.997338 1.629330 0.000018 -0.000001 -0.000024
 26   4.941382 1.997366 -1.629410 -0.000001 0.000005 -0.000024
 27   2.918368 1.615358 1.514501 -0.000019 -0.000022 -0.000050
 28   2.920798 1.614964 -1.501142 -0.000002 -0.000009 -0.000024
 29   8.824059 0.150544 0.091743 0.000006 -0.000231 -0.174534
 30   2.111085 -0.561179 1.784320 -0.000008 -0.000682 0.000024
 31   2.121290 -0.561289 -1.853599 0.000000 0.000000 -0.000002
 32   -0.810489 -0.093824 3.127092 0.262828 -3.097583 -0.334759
 33   14.298673 -0.408176 0.475484 0.003675 -0.003118 -0.522390
 34   15.835795 0.581398 0.242756 -0.001248 0.032043 0.122292
 35   -0.815868 -0.091229 -3.114430 -0.132801 3.034913 -0.011454
 36   14.294526 -0.410349 -0.463635 -0.002676 0.001869 -0.384687
 37   15.834409 0.579420 -0.284600 -0.034108 0.026558 0.304555
 38   1.139685 -3.453749 -2.823813 0.000000 0.000000 0.000001
 39   -4.457742 -1.054854 -0.746180 0.000000 0.000000 0.000000
 40   1.118101 -3.449769 3.237290 0.000000 0.000001 0.000000
 41   -4.433840 -1.059130 0.959566 -0.000001 0.000000 0.000000
 42   -0.657468 1.697302 -2.688614 0.000000 0.000002 0.000000
 43   -0.664068 1.698578 2.869377 0.000000 0.000002 0.000000
time 16
  0   -0.010486 -0.546892 1.863709 0.000000 0.000000 -1.571449
  1   -1.093036 0.000002 -0.326057 -1.570809 -1.570703 0.000022
  2   2.262337 0.113614 0.064702 -0.010408 -0.012763 -0.087747
  3   2.380047 0.353302 0.047440 -0.016861 -0.057818 0.072664
  4   2.033756 0.190472 -0.000128 -0.225987 -0.029087 0.077290
  5   2.451511 0.204909 -0.003447 -0.186026 0.027229 0.139590
  6   7.247600 -0.397300 -0.109469 -0.016634 0.002238 0.459335
  7   -2.022252 -0.104661 3.136172 1.259676 -1.000293 -4.804624
  8   1.168026 -0.537438 -0.063437 -0.303955 0.690429 0.054341
  9   6.790376 -0.619176 0.015206 -0.000102 -0.000151 -2.217311
 10   8.637599 0.544015 -0.090417 -3.670459 -0.182794 0.917494
 11   6.790465 -0.619039 0.017802 0.005877 -0.011907 -1.567402
 12   -2.022474 -0.104699 -2.873818 -2.322217 1.861737 -5.944349
 13   1.167898 -0.537463 0.063297 -0.988688 -0.729394 -0.163293
 14   7.002743 -0.617765 -0.183752 0.000172 0.000194 -1.828486
 15   8.209042 0.615527 -0.255885 2.045800 0.152845 -0.758759
 16   7.002735 -0.617911 -0.183641 0.013121 0.010018 -1.298732
 17   1.574674 0.609930 -0.000899 0.510311 0.059980 -0.330440
 18   -0.602177 0.511412 -0.000006 0.000000 0.000000 0.000000
 19   3.673773 0.177020 1.119313 -0.000002 -0.000014 -0.174510
 20   3.673767 0.176993 -1.117566 0.000007 -0.000003 -0.174546
 21   3.942357 1.330634 1.627658 0.000002 -0.000011 -0.000026
 22   -0.246060 -0.011889 0.516521 -0.000011 0.000031 0.000025
 23   3.942374 1.330659 -1.631083 0.000019 0.000002 -0.000024
 24   -0.246150 -0.011872 -0.516511 -0.000005 -0.000006 0.000048
 25   4.941364 1.997338 1.629330 0.000018 -0.000001 -0.000024
 26   4.941382 1.997366 -1.629410 -0.000001 0.000005 -0.000024
 27   2.918368 1.615358 1.514501 -0.000019 -0.000022 -0.000050
 28   2.920798 1.614964 -1.501142 -0.000002 -0.000009 -0.000024
 29   8.824059 0.150544 0.091743 0.000006 -0.000231 -0.174534
 30   2.111085 -0.561179 1.784320 -0.000008 -0.000682 0.000024
 31   2.121290 -0.561289 -1.853599 0.000000 0.000000 -0.000002
 32   -0.810489 -0.093824 3.127092 0.262828 -3.097583 -0.334759
 33   14.298673 -0.408176 0.475484 0.003675 -0.003118 -0.522390
 34   15.835795 0.581398 0.242756 -0.001248 0.032043 0.122292
 35   -0.815868 -0.091229 -3.114430 -0.132801 3.034913 -0.011454
 36   14.294526 -0.410349 -0.463635 -0.002676 0.001869 -0.384687
 37   15.834409 0.579420 -0.284600 -0.034108 0.026558 0.304555
 38   1.139685 -3.453749 -2.823813 0.000000 0.000000 0.000001
 39   -4.457742 -1.054854 -0.746180 0.000000 0.000000 0.000000
 40   1.118101 -3.449769 3.237290 0.000000 0.000001 0.000000
 41   -4.433840 -1.059130 0.959566 -0.000001 0.000000 0.000000
 42   -0.657468 1.697302 -2.688614 0.000000 0.000002 0.000000
 43   -0.664068 1.698578 2.869377 0.000000 0.000002 0.000000
time 17
  0   -0.010486 -0.546892 1.863709 0.000000 0.000000 -1.571449
  1   -1.093036 0.000002 -0.326057 -1.570809 -1.570703 0.000022
  2   2.262337 0.113614 0.064702 -0.010217 -0.011996 -0.077320
  3   2.380047 0.353302 0.047440 -0.016516 -0.056595 0.070787
  4   2.033756 0.190472 -0.000128 -0.212118 -0.026306 0.091390
  5   2.451511 0.204909 -0.003447 -0.167574 0.020061 0.133523
  6   7.247600 -0.397300 -0.109469 -0.016634 0.002238 0.459335
  7   -2.022252 -0.104661 3.136172 1.260347 -0.999515 -4.804718
  8   1.168026 -0.537438 -0.063437 -0.441906 0.661901 0.059402
  9   6.790376 -0.619176 0.015206 -0.000102 -0.000151 -2.118524
 10   8.637599 0.544015 -0.090417 -3.600271 -0.143305 0.893114
 11   6.790465 -0.619039 0.017802 0.005410 -0.011850 -1.498307
 12   -2.022474 -0.104699 -2.873818 -2.302289 1.868006 -5.924913
 13   1.167898 -0.537463 0.063297 -0.980955 -0.747447 -0.148341
 14   7.002743 -0.617765 -0.183752 0.000172 0.000194 -1.831786
 15   8.209042 0.615527 -0.255885 2.024589 0.152845 -0.704215
 16   7.002735 -0.617911 -0.183641 0.013074 0.010018 -1.300884
 17   1.574674 0.609930 -0.000899 0.473753 0.054442 -0.306637
 18   -0.602177 0.511412 -0.000006 0.000000 0.000000 0.000000
 19   3.673773 0.177020 1.119313 -0.000002 -0.000014 -0.174510
 20   3.673767 0.176993 -1.117566 0.000007 -0.000003 -0.174546
 21   3.942357 1.330634 1.627658 0.000002 -0.000011 -0.000026
 22   -0.246060 -0.011889 0.516521 -0.000011 0.000031 0.000025
 23   3.942374 1.330659 -1.631083 0.000019 0.000002 -0.000024
 24   -0.246150 -0.011872 -0.516511 -0.000005 -0.000006 0.000048
 25   4.941364 1.997338 1.629330 0.000018 -0.000001 -0.000024
 26   4.941382 1.997366 -1.629410 -0.000001 0.000005 -0.000024
 27   2.918368 1.615358 1.514501 -0.000019 -0.000022 -0.000050
 28   2.920798 1.614964 -1.501142 -0.000002 -0.000009 -0.000024
 29   8.824059 0.150544 0.091743 0.000006 -0.000231 -0.174534
 30   2.111085 -0.561179 1.784320 -0.000008 -0.000682 0.000024
 31   2.121290 -0.561289 -1.853599 0.000000 0.000000 -0.000002
 32   -0.810489 -0.093824 3.127092 0.262828 -3.097583 -0.334759
 33   14.298673 -0.408176 0.475484 0.003675 -0.003118 -0.522390
 34   15.835795 0.581398 0.242756 -0.001248 0.032043 0.122292
 35   -0.815868 -0.091229 -3.114430 -0.132801 3.034913 -0.011454
 36   14.294526 -0.410349 -0.463635 -0.002676 0.001869 -0.384687
 37   15.834409 0.579420 -0.284600 -0.034108 0.026558 0.304555
 38   1.139685 -3.453749 -2.823813 0.000000 0.000000 0.000001
 39   -4.457742 -1.054854 -0.746180 0.000000 0.000000 0.000000
 40   1.118101 -3.449769 3.237290 0.000000 0.000001 0.000000
 41   -4.433840 -1.059130 0.959566 -0.000001 0.000000 0.000000
 42   -0.657468 1.697302 -2.688614 0.000000 0.000002 0.000000
 43   -0.664068 1.698578 2.869377 0.000000 0.000002 0.000000
time 18
  0   -0.010486 -0.546892 1.863709 0.000000 0.000000 -1.571449
  1   -1.093036 0.000002 -0.326057 -1.570809 -1.570703 0.000022
  2   2.262337 0.113614 0.064702 -0.009873 -0.005668 -0.054876
  3   2.380047 0.353302 0.047440 -0.015916 -0.055840 0.068440
  4   2.033756 0.190472 -0.000128 -0.184307 -0.021656 0.122236
  5   2.451511 0.204909 -0.003447 -0.152340 0.025336 0.174163
  6   7.247600 -0.397300 -0.109469 -0.016634 0.002238 0.459335
  7   -2.022252 -0.104661 3.136172 1.261401 -0.997785 -4.805939
  8   1.168026 -0.537438 -0.063437 -0.638139 0.694706 -0.101533
  9   6.790376 -0.619176 0.015206 -0.000102 -0.000151 -1.871293
 10   8.637599 0.544015 -0.090417 -3.439201 -0.076223 0.822434
 11   6.790465 -0.619039 0.017802 0.004213 -0.011850 -1.325167
 12   -2.022474 -0.104699 -2.873818 -2.260708 1.881618 -5.885468
 13   1.167898 -0.537463 0.063297 -0.988477 -0.751769 -0.125943
 14   7.002743 -0.617765 -0.183752 0.000172 0.000194 -1.854805
 15   8.209042 0.615527 -0.255885 1.962393 0.226689 -0.567643
 16   7.002735 -0.617911 -0.183641 0.013074 0.010244 -1.316890
 17   1.574674 0.609930 -0.000899 0.423627 0.042372 -0.335281
 18   -0.602177 0.511412 -0.000006 0.000000 0.000000 0.000000
 19   3.673773 0.177020 1.119313 -0.000002 -0.000014 -0.174510
 20   3.673767 0.176993 -1.117566 0.000007 -0.000003 -0.174546
 21   3.942357 1.330634 1.627658 0.000002 -0.000011 -0.000026
 22   -0.246060 -0.011889 0.516521 -0.000011 0.000031 0.000025
 23   3.942374 1.330659 -1.631083 0.000019 0.000002 -0.000024
 24   -0.246150 -0.011872 -0.516511 -0.000005 -0.000006 0.000048
 25   4.941364 1.997338 1.629330 0.000018 -0.000001 -0.000024
 26   4.941382 1.997366 -1.629410 -0.000001 0.000005 -0.000024
 27   2.918368 1.615358 1.514501 -0.000019 -0.000022 -0.000050
 28   2.920798 1.614964 -1.501142 -0.000002 -0.000009 -0.000024
 29   8.824059 0.150544 0.091743 0.000006 -0.000231 -0.174534
 30   2.111085 -0.561179 1.784320 -0.000008 -0.000682 0.000024
 31   2.121290 -0.561289 -1.853599 0.000000 0.000000 -0.000002
 32   -0.810489 -0.093824 3.127092 0.262828 -3.097583 -0.334759
 33   14.298673 -0.408176 0.475484 0.003675 -0.003118 -0.522390
 34   15.835795 0.581398 0.242756 -0.001248 0.032043 0.122292
 35   -0.815868 -0.091229 -3.114430 -0.132801 3.034913 -0.011454
 36   14.294526 -0.410349 -0.463635 -0.002676 0.001869 -0.384687
 37   15.834409 0.579420 -0.284600 -0.034108 0.026558 0.304555
 38   1.139685 -3.453749 -2.823813 0.000000 0.000000 0.000001
 39   -4.457742 -1.054854 -0.746180 0.000000 0.000000 0.000000
 40   1.118101 -3.449769 3.237290 0.000000 0.000001 0.000000
 41   -4.433840 -1.059130 0.959566 -0.000001 0.000000 0.000000
 42   -0.657468 1.697302 -2.688614 0.000000 0.000002 0.000000
 43   -0.664068 1.698578 2.869377 0.000000 0.000002 0.000000
time 19
  0   -0.010486 -0.546892 1.863709 0.000000 0.000000 -1.571449
  1   -1.093036 0.000002 -0.326057 -1.570809 -1.570703 0.000022
  2   2.262337 0.113614 0.064702 -0.009223 0.001930 -0.029414
  3   2.380047 0.353302 0.047440 -0.015211 -0.055061 0.065808
  4   2.033756 0.190472 -0.000128 -0.151977 -0.017461 0.157396
  5   2.451511 0.204909 -0.003447 -0.136028 0.032125 0.225477
  6   7.247600 -0.397300 -0.109469 -0.016634 0.002238 0.459335
  7   -2.022252 -0.104661 3.136172 1.262839 -0.995825 -4.806972
  8   1.168026 -0.537438 -0.063437 -0.854811 0.707385 -0.318516
  9   6.790376 -0.619176 0.015206 -0.000102 -0.000151 -1.583007
 10   8.637599 0.544015 -0.090417 -3.261398 0.014229 0.752260
 11   6.790465 -0.619039 0.017802 0.002870 -0.011793 -1.123305
 12   -2.022474 -0.104699 -2.873818 -2.218074 1.897784 -5.845065
 13   1.167898 -0.537463 0.063297 -1.000286 -0.758431 -0.100155
 14   7.002743 -0.617765 -0.183752 0.000172 0.000194 -1.881372
 15   8.209042 0.615527 -0.255885 1.902569 0.327316 -0.413210
 16   7.002735 -0.617911 -0.183641 0.012979 0.010300 -1.335711
 17   1.574674 0.609930 -0.000899 0.363550 0.023770 -0.355129
 18   -0.602177 0.511412 -0.000006 0.000000 0.000000 0.000000
 19   3.673773 0.177020 1.119313 -0.000002 -0.000014 -0.174510
 20   3.673767 0.176993 -1.117566 0.000007 -0.000003 -0.174546
 21   3.942357 1.330634 1.627658 0.000002 -0.000011 -0.000026
 22   -0.246060 -0.011889 0.516521 -0.000011 0.000031 0.000025
 23   3.942374 1.330659 -1.631083 0.000019 0.000002 -0.000024
 24   -0.246150 -0.011872 -0.516511 -0.000005 -0.000006 0.000048
 25   4.941364 1.997338 1.629330 0.000018 -0.000001 -0.000024
 26   4.941382 1.997366 -1.629410 -0.000001 0.000005 -0.000024
 27   2.918368 1.615358 1.514501 -0.000019 -0.000022 -0.000050
 28   2.920798 1.614964 -1.501142 -0.000002 -0.000009 -0.000024
 29   8.824059 0.150544 0.091743 0.000006 -0.000231 -0.174534
 30   2.111085 -0.561179 1.784320 -0.000008 -0.000682 0.000024
 31   2.121290 -0.561289 -1.853599 0.000000 0.000000 -0.000002
 32   -0.810489 -0.093824 3.127092 0.262828 -3.097583 -0.334759
 33   14.298673 -0.408176 0.475484 0.003675 -0.003118 -0.522390
 34   15.835795 0.581398 0.242756 -0.001248 0.032043 0.122292
 35   -0.815868 -0.091229 -3.114430 -0.132801 3.034913 -0.011454
 36   14.294526 -0.410349 -0.463635 -0.002676 0.001869 -0.384687
 37   15.834409 0.579420 -0.284600 -0.034108 0.026558 0.304555
 38   1.139685 -3.453749 -2.823813 0.000000 0.000000 0.000001
 39   -4.457742 -1.054854 -0.746180 0.000000 0.000000 0.000000
 40   1.118101 -3.449769 3.237290 0.000000 0.000001 0.000000
 41   -4.433840 -1.059130 0.959566 -0.000001 0.000000 0.000000
 42   -0.657468 1.697302 -2.688614 0.000000 0.000002 0.000000
 43   -0.664068 1.698578 2.869377 0.000000 0.000002 0.000000
time 20
  0   -0.010486 -0.546892 1.863709 0.000000 0.000000 -1.571449
  1   -1.093036 0.000002 -0.326057 -1.570809 -1.570703 0.000022
  2   2.262337 0.113614 0.064702 -0.008370 0.010284 -0.002326
  3   2.380047 0.353302 0.047440 -0.014596 -0.054282 0.062992
  4   2.033756 0.190472 -0.000128 -0.116973 -0.014310 0.195020
  5   2.451511 0.204909 -0.003447 -0.118894 0.039149 0.282908
  6   7.247600 -0.397300 -0.109469 -0.016634 0.002238 0.459335
  7   -2.022252 -0.104661 3.136172 1.264277 -0.993750 -4.808193
  8   1.168026 -0.537438 -0.063437 -1.069332 0.688165 -0.563397
  9   6.790376 -0.619176 0.015206 -0.000102 -0.000151 -1.271402
 10   8.637599 0.544015 -0.090417 -3.077166 0.123475 0.693444
 11   6.790465 -0.619039 0.017802 0.001527 -0.011651 -0.905294
 12   -2.022474 -0.104699 -2.873818 -2.177069 1.915547 -5.805811
 13   1.167898 -0.537463 0.063297 -1.015821 -0.769110 -0.072733
 14   7.002743 -0.617765 -0.183752 0.000172 0.000194 -1.910661
 15   8.209042 0.615527 -0.255885 1.855761 0.447312 -0.248073
 16   7.002735 -0.617911 -0.183641 0.012932 0.010582 -1.356077
 17   1.574674 0.609930 -0.000899 0.297177 0.006280 -0.367659
 18   -0.602177 0.511412 -0.000006 0.000000 0.000000 0.000000
 19   3.673773 0.177020 1.119313 -0.000002 -0.000014 -0.174510
 20   3.673767 0.176993 -1.117566 0.000007 -0.000003 -0.174546
 21   3.942357 1.330634 1.627658 0.000002 -0.000011 -0.000026
 22   -0.246060 -0.011889 0.516521 -0.000011 0.000031 0.000025
 23   3.942374 1.330659 -1.631083 0.000019 0.000002 -0.000024
 24   -0.246150 -0.011872 -0.516511 -0.000005 -0.000006 0.000048
 25   4.941364 1.997338 1.629330 0.000018 -0.000001 -0.000024
 26   4.941382 1.997366 -1.629410 -0.000001 0.000005 -0.000024
 27   2.918368 1.615358 1.514501 -0.000019 -0.000022 -0.000050
 28   2.920798 1.614964 -1.501142 -0.000002 -0.000009 -0.000024
 29   8.824059 0.150544 0.091743 0.000006 -0.000231 -0.174534
 30   2.111085 -0.561179 1.784320 -0.000008 -0.000682 0.000024
 31   2.121290 -0.561289 -1.853599 0.000000 0.000000 -0.000002
 32   -0.810489 -0.093824 3.127092 0.262828 -3.097583 -0.334759
 33   14.298673 -0.408176 0.475484 0.003675 -0.003118 -0.522390
 34   15.835795 0.581398 0.242756 -0.001248 0.032043 0.122292
 35   -0.815868 -0.091229 -3.114430 -0.132801 3.034913 -0.011454
 36   14.294526 -0.410349 -0.463635 -0.002676 0.001869 -0.384687
 37   15.834409 0.579420 -0.284600 -0.034108 0.026558 0.304555
 38   1.139685 -3.453749 -2.823813 0.000000 0.000000 0.000001
 39   -4.457742 -1.054854 -0.746180 0.000000 0.000000 0.000000
 40   1.118101 -3.449769 3.237290 0.000000 0.000001 0.000000
 41   -4.433840 -1.059130 0.959566 -0.000001 0.000000 0.000000
 42   -0.657468 1.697302 -2.688614 0.000000 0.000002 0.000000
 43   -0.664068 1.698578 2.869377 0.000000 0.000002 0.000000
time 21
  0   -0.010486 -0.546892 1.863709 0.000000 0.000000 -1.571449
  1   -1.093036 0.000002 -0.326057 -1.570809 -1.570703 0.000022
  2   2.262337 0.113614 0.064702 -0.007300 0.018841 0.025359
  3   2.380047 0.353302 0.047440 -0.013876 -0.053491 0.060237
  4   2.033756 0.190472 -0.000128 -0.081305 -0.012440 0.233333
  5   2.451511 0.204909 -0.003447 -0.101195 0.045455 0.341974
  6   7.247600 -0.397300 -0.109469 -0.016634 0.002238 0.459335
  7   -2.022252 -0.104661 3.136172 1.265619 -0.991588 -4.809602
  8   1.168026 -0.537438 -0.063437 -1.257971 0.637901 -0.804419
  9   6.790376 -0.619176 0.015206 -0.000102 -0.000151 -0.954061
 10   8.637599 0.544015 -0.090417 -2.892758 0.244265 0.654378
 11   6.790465 -0.619039 0.017802 0.000213 -0.011395 -0.683015
 12   -2.022474 -0.104699 -2.873818 -2.139034 1.934151 -5.770100
 13   1.167898 -0.537463 0.063297 -1.034660 -0.784671 -0.044887
 14   7.002743 -0.617765 -0.183752 0.000172 0.000194 -1.940528
 15   8.209042 0.615527 -0.255885 1.829085 0.575933 -0.076201
 16   7.002735 -0.617911 -0.183641 0.012885 0.010751 -1.376995
 17   1.574674 0.609930 -0.000899 0.228082 -0.004441 -0.375902
 18   -0.602177 0.511412 -0.000006 0.000000 0.000000 0.000000
 19   3.673773 0.177020 1.119313 -0.000002 -0.000014 -0.174510
 20   3.673767 0.176993 -1.117566 0.000007 -0.000003 -0.174546
 21   3.942357 1.330634 1.627658 0.000002 -0.000011 -0.000026
 22   -0.246060 -0.011889 0.516521 -0.000011 0.000031 0.000025
 23   3.942374 1.330659 -1.631083 0.000019 0.000002 -0.000024
 24   -0.246150 -0.011872 -0.516511 -0.000005 -0.000006 0.000048
 25   4.941364 1.997338 1.629330 0.000018 -0.000001 -0.000024
 26   4.941382 1.997366 -1.629410 -0.000001 0.000005 -0.000024
 27   2.918368 1.615358 1.514501 -0.000019 -0.000022 -0.000050
 28   2.920798 1.614964 -1.501142 -0.000002 -0.000009 -0.000024
 29   8.824059 0.150544 0.091743 0.000006 -0.000231 -0.174534
 30   2.111085 -0.561179 1.784320 -0.000008 -0.000682 0.000024
 31   2.121290 -0.561289 -1.853599 0.000000 0.000000 -0.000002
 32   -0.810489 -0.093824 3.127092 0.262828 -3.097583 -0.334759
 33   14.298673 -0.408176 0.475484 0.003675 -0.003118 -0.522390
 34   15.835795 0.581398 0.242756 -0.001248 0.032043 0.122292
 35   -0.815868 -0.091229 -3.114430 -0.132801 3.034913 -0.011454
 36   14.294526 -0.410349 -0.463635 -0.002676 0.001869 -0.384687
 37   15.834409 0.579420 -0.284600 -0.034108 0.026558 0.304555
 38   1.139685 -3.453749 -2.823813 0.000000 0.000000 0.000001
 39   -4.457742 -1.054854 -0.746180 0.000000 0.000000 0.000000
 40   1.118101 -3.449769 3.237290 0.000000 0.000001 0.000000
 41   -4.433840 -1.059130 0.959566 -0.000001 0.000000 0.000000
 42   -0.657468 1.697302 -2.688614 0.000000 0.000002 0.000000
 43   -0.664068 1.698578 2.869377 0.000000 0.000002 0.000000
time 22
  0   -0.010486 -0.546892 1.863709 0.000000 0.000000 -1.571449
  1   -1.093036 0.000002 -0.326057 -1.570809 -1.570703 0.000022
  2   2.262337 0.113614 0.064702 -0.005988 0.026990 0.052158
  3   2.380047 0.353302 0.047440 -0.013141 -0.052700 0.057523
  4   2.033756 0.190472 -0.000128 -0.046836 -0.011901 0.270559
  5   2.451511 0.204909 -0.003447 -0.083342 0.050168 0.398142
  6   7.247600 -0.397300 -0.109469 -0.016634 0.002238 0.459335
  7   -2.022252 -0.104661 3.136172 1.267345 -0.989541 -4.810541
  8   1.168026 -0.537438 -0.063437 -1.410287 0.568014 -1.019062
  9   6.790376 -0.619176 0.015206 -0.000102 -0.000151 -0.648418
 10   8.637599 0.544015 -0.090417 -2.712225 0.365125 0.639041
 11   6.790465 -0.619039 0.017802 -0.000984 -0.011196 -0.469041
 12   -2.022474 -0.104699 -2.873818 -2.105693 1.952640 -5.738984
 13   1.167898 -0.537463 0.063297 -1.056100 -0.804402 -0.018191
 14   7.002743 -0.617765 -0.183752 0.000172 0.000194 -1.969075
 15   8.209042 0.615527 -0.255885 1.826999 0.700998 0.099520
 16   7.002735 -0.617911 -0.183641 0.012838 0.010864 -1.397030
 17   1.574674 0.609930 -0.000899 0.161465 -0.006216 -0.384440
 18   -0.602177 0.511412 -0.000006 0.000000 0.000000 0.000000
 19   3.673773 0.177020 1.119313 -0.000002 -0.000014 -0.174510
 20   3.673767 0.176993 -1.117566 0.000007 -0.000003 -0.174546
 21   3.942357 1.330634 1.627658 0.000002 -0.000011 -0.000026
 22   -0.246060 -0.011889 0.516521 -0.000011 0.000031 0.000025
 23   3.942374 1.330659 -1.631083 0.000019 0.000002 -0.000024
 24   -0.246150 -0.011872 -0.516511 -0.000005 -0.000006 0.000048
 25   4.941364 1.997338 1.629330 0.000018 -0.000001 -0.000024
 26   4.941382 1.997366 -1.629410 -0.000001 0.000005 -0.000024
 27   2.918368 1.615358 1.514501 -0.000019 -0.000022 -0.000050
 28   2.920798 1.614964 -1.501142 -0.000002 -0.000009 -0.000024
 29   8.824059 0.150544 0.091743 0.000006 -0.000231 -0.174534
 30   2.111085 -0.561179 1.784320 -0.000008 -0.000682 0.000024
 31   2.121290 -0.561289 -1.853599 0.000000 0.000000 -0.000002
 32   -0.810489 -0.093824 3.127092 0.262828 -3.097583 -0.334759
 33   14.298673 -0.408176 0.475484 0.003675 -0.003118 -0.522390
 34   15.835795 0.581398 0.242756 -0.001248 0.032043 0.122292
 35   -0.815868 -0.091229 -3.114430 -0.132801 3.034913 -0.011454
 36   14.294526 -0.410349 -0.463635 -0.002676 0.001869 -0.384687
 37   15.834409 0.579420 -0.284600 -0.034108 0.026558 0.304555
 38   1.139685 -3.453749 -2.823813 0.000000 0.000000 0.000001
 39   -4.457742 -1.054854 -0.746180 0.000000 0.000000 0.000000
 40   1.118101 -3.449769 3.237290 0.000000 0.000001 0.000000
 41   -4.433840 -1.059130 0.959566 -0.000001 0.000000 0.000000
 42   -0.657468 1.697302 -2.688614 0.000000 0.000002 0.000000
 43   -0.664068 1.698578 2.869377 0.000000 0.000002 0.000000
end
