version 1
nodes
  0 "Bip01" -1
  1 "Bip01 Pelvis" 0
  2 "Bip01 Spine" 1
  3 "Bip01 Spine1" 2
  4 "Bip01 Spine2" 3
  5 "Bip01 Spine3" 4
  6 "Bip01 Neck" 5
  7 "Bip01 L Arm" 6
  8 "Bip01 L Arm1" 7
  9 "Bip01 L Arm2" 8
 10 "Bip01 L Hand" 9
 11 "Bip06 L elbow2-smooth" 8
 12 "Bip01 R Arm" 6
 13 "Bip01 R Arm1" 12
 14 "Bip01 R Arm2" 13
 15 "Bip01 R Hand" 14
 16 "Bip06 R elbow2-smooth" 13
 17 "Bip01 Head" 6
 18 "Bip06 Head_helper" 17
 19 "Bip06 Head_eyes_l" 18
 20 "Bip06 Head_eyes_r" 18
 21 "Bip06 Head_blink_l" 18
 22 "Bip06 Head_blink_smooth_l1" 21
 23 "Bip06 Head_blink_r" 18
 24 "Bip06 Head_blink_smooth_r1" 23
 25 "Bip06 Head_L_eyebrow" 18
 26 "Bip06 Head_R_eyebrow" 18
 27 "Bip06 Head_blink_l_lid" 18
 28 "Bip06 Head_blink_r_lid" 18
 29 "Bip06 bunny" 18
 30 "Bip06 bunnyL" 29
 31 "Bip06 bunnyR" 29
 32 "Bip01 L Leg" 1
 33 "Bip01 L Leg1" 32
 34 "Bip01 L Foot" 33
 35 "Bip01 R Leg" 1
 36 "Bip01 R Leg1" 35
 37 "Bip01 R Foot" 36
 38 "Bip03 HairR1" 17
 39 "Bip03 HairR2" 38
 40 "Bip03 HairL1" 17
 41 "Bip03 HairL2" 40
 42 "Bip03 swingR" 17
 43 "Bip03 swingL" 17
end
skeleton
time 0
  0   0.001233 0.187506 0.867585 0.000000 0.000000 -1.571449
  1   -1.093036 0.000002 -0.326057 -1.570757 -1.570379 -0.000026
  2   2.262337 0.113614 0.064702 -0.000052 0.000061 -0.051551
  3   2.380047 0.353302 0.047440 -0.255152 0.058385 0.219135
  4   2.033756 0.190472 -0.000128 -0.000010 0.000024 0.243881
  5   2.451511 0.204909 -0.003447 0.000000 -0.000005 0.252719
  6   7.247600 -0.397300 -0.109469 0.000001 0.000009 -0.209345
  7   -2.022252 -0.104661 3.136172 0.897045 -1.256588 -3.804915
  8   1.168026 -0.537438 -0.063437 -0.234283 0.940944 -0.606161
  9   6.790376 -0.619176 0.015206 -0.000213 -0.000352 -1.994456
 10   8.637599 0.544015 -0.090417 -1.174701 -0.597886 -0.222218
 11   6.790465 -0.619039 0.017802 0.004680 -0.011935 -1.411449
 12   -2.022474 -0.104699 -2.873818 -1.158831 1.101687 -4.048005
 13   1.167898 -0.537463 0.063297 0.101856 -0.751108 -0.224009
 14   7.002743 -0.617765 -0.183752 0.000229 0.000250 -1.961567
 15   8.209042 0.615527 -0.255885 1.666872 0.765006 -0.200505
 16   7.002735 -0.617911 -0.183641 0.012932 0.011033 -1.391732
 17   1.574674 0.609930 -0.000899 0.125069 -0.230342 0.551525
 18   -0.602177 0.511412 -0.000006 0.000000 0.000000 0.000000
 19   3.673773 0.177020 1.119313 -0.000002 -0.000014 -0.174510
 20   3.673767 0.176993 -1.117566 0.000007 -0.000003 -0.174546
 21   3.942357 1.330634 1.627658 0.000002 -0.000011 -0.000026
 22   -0.246060 -0.011889 0.516521 -0.000011 0.000031 0.000025
 23   3.942374 1.330659 -1.631083 0.000019 0.000002 -0.000024
 24   -0.246150 -0.011872 -0.516511 -0.000005 -0.000006 0.000048
 25   4.941364 1.997338 1.629330 0.000018 -0.000001 -0.000024
 26   4.941382 1.997366 -1.629410 -0.000001 0.000005 -0.000024
 27   2.918368 1.615358 1.514501 -0.000019 -0.000022 -0.000050
 28   2.920798 1.614964 -1.501142 -0.000002 -0.000009 -0.000024
 29   8.824059 0.150544 0.091743 0.000006 -0.000231 -0.174534
 30   2.111085 -0.561179 1.784320 -0.000008 -0.000682 0.000024
 31   2.121290 -0.561289 -1.853599 0.000000 0.000000 -0.000002
 32   -0.810489 -0.093824 3.127092 -0.129583 -2.975432 -0.324172
 33   14.298673 -0.408176 0.475484 -0.000088 -0.000042 -0.436243
 34   15.835795 0.581398 0.242756 0.162134 -0.013934 0.022664
 35   -0.815868 -0.091229 -3.114430 0.096037 3.002497 -0.031283
 36   14.294526 -0.410349 -0.463635 0.000081 0.000060 -0.399441
 37   15.834409 0.579420 -0.284600 -0.088763 0.039970 0.278038
 38   1.139685 -3.453749 -2.823813 0.000000 0.000000 0.000001
 39   -4.457742 -1.054854 -0.746180 0.000000 0.000000 0.000000
 40   1.118101 -3.449769 3.237290 0.000000 0.000001 0.000000
 41   -4.433840 -1.059130 0.959566 -0.000001 0.000000 0.000000
 42   -0.657468 1.697302 -2.688614 0.000000 0.000002 0.000000
 43   -0.664068 1.698578 2.869377 0.000000 0.000002 0.000000
time 1
  0   0.001233 0.187506 0.824615 0.000000 0.000000 -1.571449
  1   -1.093036 0.000002 -0.326057 -1.570757 -1.570379 -0.000026
  2   2.262337 0.113614 0.064702 -0.000052 0.000061 -0.051551
  3   2.380047 0.353302 0.047440 -0.255152 0.058385 0.219135
  4   2.033756 0.190472 -0.000128 -0.000010 0.000024 0.243881
  5   2.451511 0.204909 -0.003447 0.000000 -0.000005 0.255839
  6   7.247600 -0.397300 -0.109469 0.000001 0.000009 -0.209345
  7   -2.022252 -0.104661 3.136172 0.885063 -1.253562 -3.792143
  8   1.168026 -0.537438 -0.063437 -0.232891 0.934554 -0.605402
  9   6.790376 -0.619176 0.015206 -0.000213 -0.000352 -1.994456
 10   8.637599 0.544015 -0.090417 -1.174701 -0.597886 -0.222218
 11   6.790465 -0.619039 0.017802 0.004680 -0.011935 -1.411449
 12   -2.022474 -0.104699 -2.873818 -1.148772 1.099597 -4.036612
 13   1.167898 -0.537463 0.063297 0.103472 -0.743887 -0.225583
 14   7.002743 -0.617765 -0.183752 0.000229 0.000250 -1.961567
 15   8.209042 0.615527 -0.255885 1.666872 0.765006 -0.200505
 16   7.002735 -0.617911 -0.183641 0.012932 0.011033 -1.391732
 17   1.574674 0.609930 -0.000899 0.125069 -0.230342 0.548457
 18   -0.602177 0.511412 -0.000006 0.000000 0.000000 0.000000
 19   3.673773 0.177020 1.119313 -0.000002 -0.000014 -0.174510
 20   3.673767 0.176993 -1.117566 0.000007 -0.000003 -0.174546
 21   3.942357 1.330634 1.627658 0.000002 -0.000011 -0.000026
 22   -0.246060 -0.011889 0.516521 -0.000011 0.000031 0.000025
 23   3.942374 1.330659 -1.631083 0.000019 0.000002 -0.000024
 24   -0.246150 -0.011872 -0.516511 -0.000005 -0.000006 0.000048
 25   4.941364 1.997338 1.629330 0.000018 -0.000001 -0.000024
 26   4.941382 1.997366 -1.629410 -0.000001 0.000005 -0.000024
 27   2.918368 1.615358 1.514501 -0.000019 -0.000022 -0.000050
 28   2.920798 1.614964 -1.501142 -0.000002 -0.000009 -0.000024
 29   8.824059 0.150544 0.091743 0.000006 -0.000231 -0.174534
 30   2.111085 -0.561179 1.784320 -0.000008 -0.000682 0.000024
 31   2.121290 -0.561289 -1.853599 0.000000 0.000000 -0.000002
 32   -0.810489 -0.093824 3.127092 -0.128091 -2.974191 -0.331344
 33   14.298673 -0.408176 0.475484 -0.000088 -0.000042 -0.450455
 34   15.835795 0.581398 0.242756 0.162042 -0.014178 0.029544
 35   -0.815868 -0.091229 -3.114430 0.095245 3.001841 -0.038569
 36   14.294526 -0.410349 -0.463635 0.000081 0.000060 -0.414735
 37   15.834409 0.579420 -0.284600 -0.088763 0.040226 0.286049
 38   1.139685 -3.453749 -2.823813 0.000000 0.000000 0.000001
 39   -4.457742 -1.054854 -0.746180 0.000000 0.000000 0.000000
 40   1.118101 -3.449769 3.237290 0.000000 0.000001 0.000000
 41   -4.433840 -1.059130 0.959566 -0.000001 0.000000 0.000000
 42   -0.657468 1.697302 -2.688614 0.000000 0.000002 0.000000
 43   -0.664068 1.698578 2.869377 0.000000 0.000002 0.000000
time 2
  0   0.001233 0.187506 0.766019 0.000000 0.000000 -1.571449
  1   -1.093036 0.000002 -0.326057 -1.570757 -1.570379 -0.000026
  2   2.262337 0.113614 0.064702 -0.000052 0.000061 -0.051551
  3   2.380047 0.353302 0.047440 -0.255152 0.058385 0.219135
  4   2.033756 0.190472 -0.000128 -0.000010 0.000024 0.243881
  5   2.451511 0.204909 -0.003447 0.000000 -0.000005 0.259158
  6   7.247600 -0.397300 -0.109469 0.000001 0.000009 -0.209345
  7   -2.022252 -0.104661 3.136172 0.872410 -1.250045 -3.779088
  8   1.168026 -0.537438 -0.063437 -0.231309 0.927661 -0.605149
  9   6.790376 -0.619176 0.015206 -0.000213 -0.000352 -1.994456
 10   8.637599 0.544015 -0.090417 -1.174701 -0.597886 -0.222218
 11   6.790465 -0.619039 0.017802 0.004680 -0.011935 -1.411449
 12   -2.022474 -0.104699 -2.873818 -1.138233 1.097014 -4.024357
 13   1.167898 -0.537463 0.063297 0.105160 -0.735852 -0.227278
 14   7.002743 -0.617765 -0.183752 0.000229 0.000250 -1.961567
 15   8.209042 0.615527 -0.255885 1.666872 0.765006 -0.200505
 16   7.002735 -0.617911 -0.183641 0.012932 0.011033 -1.391732
 17   1.574674 0.609930 -0.000899 0.125069 -0.230342 0.544982
 18   -0.602177 0.511412 -0.000006 0.000000 0.000000 0.000000
 19   3.673773 0.177020 1.119313 -0.000002 -0.000014 -0.174510
 20   3.673767 0.176993 -1.117566 0.000007 -0.000003 -0.174546
 21   3.942357 1.330634 1.627658 0.000002 -0.000011 -0.000026
 22   -0.246060 -0.011889 0.516521 -0.000011 0.000031 0.000025
 23   3.942374 1.330659 -1.631083 0.000019 0.000002 -0.000024
 24   -0.246150 -0.011872 -0.516511 -0.000005 -0.000006 0.000048
 25   4.941364 1.997338 1.629330 0.000018 -0.000001 -0.000024
 26   4.941382 1.997366 -1.629410 -0.000001 0.000005 -0.000024
 27   2.918368 1.615358 1.514501 -0.000019 -0.000022 -0.000050
 28   2.920798 1.614964 -1.501142 -0.000002 -0.000009 -0.000024
 29   8.824059 0.150544 0.091743 0.000006 -0.000231 -0.174534
 30   2.111085 -0.561179 1.784320 -0.000008 -0.000682 0.000024
 31   2.121290 -0.561289 -1.853599 0.000000 0.000000 -0.000002
 32   -0.810489 -0.093824 3.127092 -0.127066 -2.972949 -0.339085
 33   14.298673 -0.408176 0.475484 -0.000088 -0.000042 -0.465382
 34   15.835795 0.581398 0.242756 0.161973 -0.014398 0.036865
 35   -0.815868 -0.091229 -3.114430 0.093748 3.000904 -0.046237
 36   14.294526 -0.410349 -0.463635 0.000081 0.000060 -0.430570
 37   15.834409 0.579420 -0.284600 -0.088684 0.040431 0.294364
 38   1.139685 -3.453749 -2.823813 0.000000 0.000000 0.000001
 39   -4.457742 -1.054854 -0.746180 0.000000 0.000000 0.000000
 40   1.118101 -3.449769 3.237290 0.000000 0.000001 0.000000
 41   -4.433840 -1.059130 0.959566 -0.000001 0.000000 0.000000
 42   -0.657468 1.697302 -2.688614 0.000000 0.000002 0.000000
 43   -0.664068 1.698578 2.869377 0.000000 0.000002 0.000000
time 3
  0   0.001233 0.187506 0.699611 0.000000 0.000000 -1.571449
  1   -1.093036 0.000002 -0.326057 -1.570757 -1.570379 -0.000026
  2   2.262337 0.113614 0.064702 -0.000052 0.000061 -0.051551
  3   2.380047 0.353302 0.047440 -0.255152 0.058385 0.219135
  4   2.033756 0.190472 -0.000128 -0.000010 0.000024 0.243881
  5   2.451511 0.204909 -0.003447 0.000000 -0.000005 0.262848
  6   7.247600 -0.397300 -0.109469 0.000001 0.000009 -0.209345
  7   -2.022252 -0.104661 3.136172 0.859469 -1.246211 -3.765471
  8   1.168026 -0.537438 -0.063437 -0.229727 0.919963 -0.604453
  9   6.790376 -0.619176 0.015206 -0.000213 -0.000352 -1.994456
 10   8.637599 0.544015 -0.090417 -1.174701 -0.597886 -0.222218
 11   6.790465 -0.619039 0.017802 0.004680 -0.011935 -1.411449
 12   -2.022474 -0.104699 -2.873818 -1.126832 1.094199 -4.011623
 13   1.167898 -0.537463 0.063297 0.106987 -0.727309 -0.229397
 14   7.002743 -0.617765 -0.183752 0.000229 0.000250 -1.961567
 15   8.209042 0.615527 -0.255885 1.666872 0.765006 -0.200505
 16   7.002735 -0.617911 -0.183641 0.012932 0.011033 -1.391732
 17   1.574674 0.609930 -0.000899 0.125069 -0.230342 0.541360
 18   -0.602177 0.511412 -0.000006 0.000000 0.000000 0.000000
 19   3.673773 0.177020 1.119313 -0.000002 -0.000014 -0.174510
 20   3.673767 0.176993 -1.117566 0.000007 -0.000003 -0.174546
 21   3.942357 1.330634 1.627658 0.000002 -0.000011 -0.000026
 22   -0.246060 -0.011889 0.516521 -0.000011 0.000031 0.000025
 23   3.942374 1.330659 -1.631083 0.000019 0.000002 -0.000024
 24   -0.246150 -0.011872 -0.516511 -0.000005 -0.000006 0.000048
 25   4.941364 1.997338 1.629330 0.000018 -0.000001 -0.000024
 26   4.941382 1.997366 -1.629410 -0.000001 0.000005 -0.000024
 27   2.918368 1.615358 1.514501 -0.000019 -0.000022 -0.000050
 28   2.920798 1.614964 -1.501142 -0.000002 -0.000009 -0.000024
 29   8.824059 0.150544 0.091743 0.000006 -0.000231 -0.174534
 30   2.111085 -0.561179 1.784320 -0.000008 -0.000682 0.000024
 31   2.121290 -0.561289 -1.853599 0.000000 0.000000 -0.000002
 32   -0.810489 -0.093824 3.127092 -0.125575 -2.972090 -0.346884
 33   14.298673 -0.408176 0.475484 -0.000088 -0.000042 -0.480706
 34   15.835795 0.581398 0.242756 0.161927 -0.014642 0.044450
 35   -0.815868 -0.091229 -3.114430 0.092428 2.999686 -0.053906
 36   14.294526 -0.410349 -0.463635 0.000081 0.000060 -0.446946
 37   15.834409 0.579420 -0.284600 -0.088684 0.040687 0.302730
 38   1.139685 -3.453749 -2.823813 0.000000 0.000000 0.000001
 39   -4.457742 -1.054854 -0.746180 0.000000 0.000000 0.000000
 40   1.118101 -3.449769 3.237290 0.000000 0.000001 0.000000
 41   -4.433840 -1.059130 0.959566 -0.000001 0.000000 0.000000
 42   -0.657468 1.697302 -2.688614 0.000000 0.000002 0.000000
 43   -0.664068 1.698578 2.869377 0.000000 0.000002 0.000000
time 4
  0   0.001233 0.187506 0.637109 0.000000 0.000000 -1.571449
  1   -1.093036 0.000002 -0.326057 -1.570757 -1.570379 -0.000026
  2   2.262337 0.113614 0.064702 -0.000052 0.000061 -0.051551
  3   2.380047 0.353302 0.047440 -0.255152 0.058385 0.219135
  4   2.033756 0.190472 -0.000128 -0.000010 0.000024 0.243881
  5   2.451511 0.204909 -0.003447 0.000000 -0.000005 0.266612
  6   7.247600 -0.397300 -0.109469 0.000001 0.000009 -0.209345
  7   -2.022252 -0.104661 3.136172 0.845570 -1.242290 -3.751290
  8   1.168026 -0.537438 -0.063437 -0.228145 0.912315 -0.603947
  9   6.790376 -0.619176 0.015206 -0.000213 -0.000352 -1.994456
 10   8.637599 0.544015 -0.090417 -1.174701 -0.597886 -0.222218
 11   6.790465 -0.619039 0.017802 0.004680 -0.011935 -1.411449
 12   -2.022474 -0.104699 -2.873818 -1.114664 1.091151 -3.998219
 13   1.167898 -0.537463 0.063297 0.108885 -0.718461 -0.231213
 14   7.002743 -0.617765 -0.183752 0.000229 0.000250 -1.961567
 15   8.209042 0.615527 -0.255885 1.666872 0.765006 -0.200505
 16   7.002735 -0.617911 -0.183641 0.012932 0.011033 -1.391732
 17   1.574674 0.609930 -0.000899 0.125069 -0.230342 0.537664
 18   -0.602177 0.511412 -0.000006 0.000000 0.000000 0.000000
 19   3.673773 0.177020 1.119313 -0.000002 -0.000014 -0.174510
 20   3.673767 0.176993 -1.117566 0.000007 -0.000003 -0.174546
 21   3.942357 1.330634 1.627658 0.000002 -0.000011 -0.000026
 22   -0.246060 -0.011889 0.516521 -0.000011 0.000031 0.000025
 23   3.942374 1.330659 -1.631083 0.000019 0.000002 -0.000024
 24   -0.246150 -0.011872 -0.516511 -0.000005 -0.000006 0.000048
 25   4.941364 1.997338 1.629330 0.000018 -0.000001 -0.000024
 26   4.941382 1.997366 -1.629410 -0.000001 0.000005 -0.000024
 27   2.918368 1.615358 1.514501 -0.000019 -0.000022 -0.000050
 28   2.920798 1.614964 -1.501142 -0.000002 -0.000009 -0.000024
 29   8.824059 0.150544 0.091743 0.000006 -0.000231 -0.174534
 30   2.111085 -0.561179 1.784320 -0.000008 -0.000682 0.000024
 31   2.121290 -0.561289 -1.853599 0.000000 0.000000 -0.000002
 32   -0.810489 -0.093824 3.127092 -0.124083 -2.970943 -0.354284
 33   14.298673 -0.408176 0.475484 -0.000088 -0.000042 -0.495474
 34   15.835795 0.581398 0.242756 0.161858 -0.014886 0.051683
 35   -0.815868 -0.091229 -3.114430 0.091636 2.998749 -0.061574
 36   14.294526 -0.410349 -0.463635 0.000081 0.000060 -0.462781
 37   15.834409 0.579420 -0.284600 -0.088684 0.040943 0.311045
 38   1.139685 -3.453749 -2.823813 0.000000 0.000000 0.000001
 39   -4.457742 -1.054854 -0.746180 0.000000 0.000000 0.000000
 40   1.118101 -3.449769 3.237290 0.000000 0.000001 0.000000
 41   -4.433840 -1.059130 0.959566 -0.000001 0.000000 0.000000
 42   -0.657468 1.697302 -2.688614 0.000000 0.000002 0.000000
 43   -0.664068 1.698578 2.869377 0.000000 0.000002 0.000000
time 5
  0   0.001233 0.187506 0.562888 0.000000 0.000000 -1.571449
  1   -1.093036 0.000002 -0.326057 -1.570757 -1.570379 -0.000026
  2   2.262337 0.113614 0.064702 -0.000052 0.000061 -0.051551
  3   2.380047 0.353302 0.047440 -0.255152 0.058385 0.219135
  4   2.033756 0.190472 -0.000128 -0.000010 0.000024 0.243881
  5   2.451511 0.204909 -0.003447 0.000000 -0.000005 0.270451
  6   7.247600 -0.397300 -0.109469 0.000001 0.000009 -0.209345
  7   -2.022252 -0.104661 3.136172 0.832245 -1.238226 -3.737015
  8   1.168026 -0.537438 -0.063437 -0.226373 0.904617 -0.603504
  9   6.790376 -0.619176 0.015206 -0.000213 -0.000352 -1.994456
 10   8.637599 0.544015 -0.090417 -1.174701 -0.597886 -0.222218
 11   6.790465 -0.619039 0.017802 0.004680 -0.011935 -1.411449
 12   -2.022474 -0.104699 -2.873818 -1.102880 1.088046 -3.984816
 13   1.167898 -0.537463 0.063297 0.110572 -0.709358 -0.233271
 14   7.002743 -0.617765 -0.183752 0.000229 0.000250 -1.961567
 15   8.209042 0.615527 -0.255885 1.666872 0.765006 -0.200505
 16   7.002735 -0.617911 -0.183641 0.012932 0.011033 -1.391732
 17   1.574674 0.609930 -0.000899 0.125069 -0.230342 0.533783
 18   -0.602177 0.511412 -0.000006 0.000000 0.000000 0.000000
 19   3.673773 0.177020 1.119313 -0.000002 -0.000014 -0.174510
 20   3.673767 0.176993 -1.117566 0.000007 -0.000003 -0.174546
 21   3.942357 1.330634 1.627658 0.000002 -0.000011 -0.000026
 22   -0.246060 -0.011889 0.516521 -0.000011 0.000031 0.000025
 23   3.942374 1.330659 -1.631083 0.000019 0.000002 -0.000024
 24   -0.246150 -0.011872 -0.516511 -0.000005 -0.000006 0.000048
 25   4.941364 1.997338 1.629330 0.000018 -0.000001 -0.000024
 26   4.941382 1.997366 -1.629410 -0.000001 0.000005 -0.000024
 27   2.918368 1.615358 1.514501 -0.000019 -0.000022 -0.000050
 28   2.920798 1.614964 -1.501142 -0.000002 -0.000009 -0.000024
 29   8.824059 0.150544 0.091743 0.000006 -0.000231 -0.174534
 30   2.111085 -0.561179 1.784320 -0.000008 -0.000682 0.000024
 31   2.121290 -0.561289 -1.853599 0.000000 0.000000 -0.000002
 32   -0.810489 -0.093824 3.127092 -0.122592 -2.969606 -0.361627
 33   14.298673 -0.408176 0.475484 -0.000088 -0.000042 -0.509448
 34   15.835795 0.581398 0.242756 0.161743 -0.015081 0.058519
 35   -0.815868 -0.091229 -3.114430 0.090404 2.998000 -0.068586
 36   14.294526 -0.410349 -0.463635 0.000081 0.000060 -0.477535
 37   15.834409 0.579420 -0.284600 -0.088684 0.041198 0.318853
 38   1.139685 -3.453749 -2.823813 0.000000 0.000000 0.000001
 39   -4.457742 -1.054854 -0.746180 0.000000 0.000000 0.000000
 40   1.118101 -3.449769 3.237290 0.000000 0.000001 0.000000
 41   -4.433840 -1.059130 0.959566 -0.000001 0.000000 0.000000
 42   -0.657468 1.697302 -2.688614 0.000000 0.000002 0.000000
 43   -0.664068 1.698578 2.869377 0.000000 0.000002 0.000000
time 6
  0   0.001233 0.187506 0.508199 0.000000 0.000000 -1.571449
  1   -1.093036 0.000002 -0.326057 -1.570757 -1.570379 -0.000026
  2   2.262337 0.113614 0.064702 -0.000052 0.000061 -0.051551
  3   2.380047 0.353302 0.047440 -0.255152 0.058385 0.219135
  4   2.033756 0.190472 -0.000128 -0.000010 0.000024 0.243881
  5   2.451511 0.204909 -0.003447 0.000000 -0.000005 0.274364
  6   7.247600 -0.397300 -0.109469 0.000001 0.000009 -0.209345
  7   -2.022252 -0.104661 3.136172 0.819304 -1.234046 -3.723398
  8   1.168026 -0.537438 -0.063437 -0.224791 0.896416 -0.602998
  9   6.790376 -0.619176 0.015206 -0.000213 -0.000352 -1.994456
 10   8.637599 0.544015 -0.090417 -1.174701 -0.597886 -0.222218
 11   6.790465 -0.619039 0.017802 0.004680 -0.011935 -1.411449
 12   -2.022474 -0.104699 -2.873818 -1.090713 1.085085 -3.971316
 13   1.167898 -0.537463 0.063297 0.112400 -0.700204 -0.235208
 14   7.002743 -0.617765 -0.183752 0.000229 0.000250 -1.961567
 15   8.209042 0.615527 -0.255885 1.666872 0.765006 -0.200505
 16   7.002735 -0.617911 -0.183641 0.012932 0.011033 -1.391732
 17   1.574674 0.609930 -0.000899 0.125069 -0.230342 0.529828
 18   -0.602177 0.511412 -0.000006 0.000000 0.000000 0.000000
 19   3.673773 0.177020 1.119313 -0.000002 -0.000014 -0.174510
 20   3.673767 0.176993 -1.117566 0.000007 -0.000003 -0.174546
 21   3.942357 1.330634 1.627658 0.000002 -0.000011 -0.000026
 22   -0.246060 -0.011889 0.516521 -0.000011 0.000031 0.000025
 23   3.942374 1.330659 -1.631083 0.000019 0.000002 -0.000024
 24   -0.246150 -0.011872 -0.516511 -0.000005 -0.000006 0.000048
 25   4.941364 1.997338 1.629330 0.000018 -0.000001 -0.000024
 26   4.941382 1.997366 -1.629410 -0.000001 0.000005 -0.000024
 27   2.918368 1.615358 1.514501 -0.000019 -0.000022 -0.000050
 28   2.920798 1.614964 -1.501142 -0.000002 -0.000009 -0.000024
 29   8.824059 0.150544 0.091743 0.000006 -0.000231 -0.174534
 30   2.111085 -0.561179 1.784320 -0.000008 -0.000682 0.000024
 31   2.121290 -0.561289 -1.853599 0.000000 0.000000 -0.000002
 32   -0.810489 -0.093824 3.127092 -0.121287 -2.968842 -0.368173
 33   14.298673 -0.408176 0.475484 -0.000088 -0.000042 -0.522390
 34   15.835795 0.581398 0.242756 0.161743 -0.015325 0.064958
 35   -0.815868 -0.091229 -3.114430 0.089260 2.997251 -0.075488
 36   14.294526 -0.410349 -0.463635 0.000081 0.000060 -0.491284
 37   15.834409 0.579420 -0.284600 -0.088625 0.041378 0.326154
 38   1.139685 -3.453749 -2.823813 0.000000 0.000000 0.000001
 39   -4.457742 -1.054854 -0.746180 0.000000 0.000000 0.000000
 40   1.118101 -3.449769 3.237290 0.000000 0.000001 0.000000
 41   -4.433840 -1.059130 0.959566 -0.000001 0.000000 0.000000
 42   -0.657468 1.697302 -2.688614 0.000000 0.000002 0.000000
 43   -0.664068 1.698578 2.869377 0.000000 0.000002 0.000000
time 7
  0   0.001233 0.187506 0.437884 0.000000 0.000000 -1.571449
  1   -1.093036 0.000002 -0.326057 -1.570757 -1.570379 -0.000026
  2   2.262337 0.113614 0.064702 -0.000052 0.000061 -0.051551
  3   2.380047 0.353302 0.047440 -0.255152 0.058385 0.219135
  4   2.033756 0.190472 -0.000128 -0.000010 0.000024 0.243881
  5   2.451511 0.204909 -0.003447 0.000000 -0.000005 0.278153
  6   7.247600 -0.397300 -0.109469 0.000001 0.000009 -0.209345
  7   -2.022252 -0.104661 3.136172 0.806843 -1.229838 -3.710156
  8   1.168026 -0.537438 -0.063437 -0.223146 0.888617 -0.602492
  9   6.790376 -0.619176 0.015206 -0.000213 -0.000352 -1.994456
 10   8.637599 0.544015 -0.090417 -1.174701 -0.597886 -0.222218
 11   6.790465 -0.619039 0.017802 0.004680 -0.011935 -1.411449
 12   -2.022474 -0.104699 -2.873818 -1.079695 1.081922 -3.958583
 13   1.167898 -0.537463 0.063297 0.113876 -0.691203 -0.237024
 14   7.002743 -0.617765 -0.183752 0.000229 0.000250 -1.961567
 15   8.209042 0.615527 -0.255885 1.666872 0.765006 -0.200505
 16   7.002735 -0.617911 -0.183641 0.012932 0.011033 -1.391732
 17   1.574674 0.609930 -0.000899 0.125069 -0.230342 0.526058
 18   -0.602177 0.511412 -0.000006 0.000000 0.000000 0.000000
 19   3.673773 0.177020 1.119313 -0.000002 -0.000014 -0.174510
 20   3.673767 0.176993 -1.117566 0.000007 -0.000003 -0.174546
 21   3.942357 1.330634 1.627658 0.000002 -0.000011 -0.000026
 22   -0.246060 -0.011889 0.516521 -0.000011 0.000031 0.000025
 23   3.942374 1.330659 -1.631083 0.000019 0.000002 -0.000024
 24   -0.246150 -0.011872 -0.516511 -0.000005 -0.000006 0.000048
 25   4.941364 1.997338 1.629330 0.000018 -0.000001 -0.000024
 26   4.941382 1.997366 -1.629410 -0.000001 0.000005 -0.000024
 27   2.918368 1.615358 1.514501 -0.000019 -0.000022 -0.000050
 28   2.920798 1.614964 -1.501142 -0.000002 -0.000009 -0.000024
 29   8.824059 0.150544 0.091743 0.000006 -0.000231 -0.174534
 30   2.111085 -0.561179 1.784320 -0.000008 -0.000682 0.000024
 31   2.121290 -0.561289 -1.853599 0.000000 0.000000 -0.000002
 32   -0.810489 -0.093824 3.127092 -0.120355 -2.967887 -0.374149
 33   14.298673 -0.408176 0.475484 -0.000088 -0.000042 -0.533982
 34   15.835795 0.581398 0.242756 0.161743 -0.015447 0.069765
 35   -0.815868 -0.091229 -3.114430 0.088467 2.996407 -0.081239
 36   14.294526 -0.410349 -0.463635 0.000081 0.000060 -0.503566
 37   15.834409 0.579420 -0.284600 -0.088625 0.041634 0.332542
 38   1.139685 -3.453749 -2.823813 0.000000 0.000000 0.000001
 39   -4.457742 -1.054854 -0.746180 0.000000 0.000000 0.000000
 40   1.118101 -3.449769 3.237290 0.000000 0.000001 0.000000
 41   -4.433840 -1.059130 0.959566 -0.000001 0.000000 0.000000
 42   -0.657468 1.697302 -2.688614 0.000000 0.000002 0.000000
 43   -0.664068 1.698578 2.869377 0.000000 0.000002 0.000000
time 8
  0   0.001233 0.187506 0.371476 0.000000 0.000000 -1.571449
  1   -1.093036 0.000002 -0.326057 -1.570757 -1.570379 -0.000026
  2   2.262337 0.113614 0.064702 -0.000052 0.000061 -0.051551
  3   2.380047 0.353302 0.047440 -0.255152 0.058385 0.219135
  4   2.033756 0.190472 -0.000128 -0.000010 0.000024 0.243881
  5   2.451511 0.204909 -0.003447 0.000000 -0.000005 0.281744
  6   7.247600 -0.397300 -0.109469 0.000001 0.000009 -0.209345
  7   -2.022252 -0.104661 3.136172 0.795244 -1.225802 -3.697572
  8   1.168026 -0.537438 -0.063437 -0.221627 0.881372 -0.602239
  9   6.790376 -0.619176 0.015206 -0.000213 -0.000352 -1.994456
 10   8.637599 0.544015 -0.090417 -1.174701 -0.597886 -0.222218
 11   6.790465 -0.619039 0.017802 0.004680 -0.011935 -1.411449
 12   -2.022474 -0.104699 -2.873818 -1.068869 1.078584 -3.946424
 13   1.167898 -0.537463 0.063297 0.115563 -0.682508 -0.238840
 14   7.002743 -0.617765 -0.183752 0.000229 0.000250 -1.961567
 15   8.209042 0.615527 -0.255885 1.666872 0.765006 -0.200505
 16   7.002735 -0.617911 -0.183641 0.012932 0.011033 -1.391732
 17   1.574674 0.609930 -0.000899 0.125069 -0.230342 0.522325
 18   -0.602177 0.511412 -0.000006 0.000000 0.000000 0.000000
 19   3.673773 0.177020 1.119313 -0.000002 -0.000014 -0.174510
 20   3.673767 0.176993 -1.117566 0.000007 -0.000003 -0.174546
 21   3.942357 1.330634 1.627658 0.000002 -0.000011 -0.000026
 22   -0.246060 -0.011889 0.516521 -0.000011 0.000031 0.000025
 23   3.942374 1.330659 -1.631083 0.000019 0.000002 -0.000024
 24   -0.246150 -0.011872 -0.516511 -0.000005 -0.000006 0.000048
 25   4.941364 1.997338 1.629330 0.000018 -0.000001 -0.000024
 26   4.941382 1.997366 -1.629410 -0.000001 0.000005 -0.000024
 27   2.918368 1.615358 1.514501 -0.000019 -0.000022 -0.000050
 28   2.920798 1.614964 -1.501142 -0.000002 -0.000009 -0.000024
 29   8.824059 0.150544 0.091743 0.000006 -0.000231 -0.174534
 30   2.111085 -0.561179 1.784320 -0.000008 -0.000682 0.000024
 31   2.121290 -0.561289 -1.853599 0.000000 0.000000 -0.000002
 32   -0.810489 -0.093824 3.127092 -0.119143 -2.967123 -0.379386
 33   14.298673 -0.408176 0.475484 -0.000088 -0.000042 -0.544701
 34   15.835795 0.581398 0.242756 0.161858 -0.015618 0.075146
 35   -0.815868 -0.091229 -3.114430 0.087675 2.995564 -0.086771
 36   14.294526 -0.410349 -0.463635 0.000081 0.000060 -0.514921
 37   15.834409 0.579420 -0.284600 -0.088625 0.041864 0.338576
 38   1.139685 -3.453749 -2.823813 0.000000 0.000000 0.000001
 39   -4.457742 -1.054854 -0.746180 0.000000 0.000000 0.000000
 40   1.118101 -3.449769 3.237290 0.000000 0.000001 0.000000
 41   -4.433840 -1.059130 0.959566 -0.000001 0.000000 0.000000
 42   -0.657468 1.697302 -2.688614 0.000000 0.000002 0.000000
 43   -0.664068 1.698578 2.869377 0.000000 0.000002 0.000000
time 9
  0   0.001233 0.187506 0.308974 0.000000 0.000000 -1.571449
  1   -1.093036 0.000002 -0.326057 -1.570757 -1.570379 -0.000123
  2   2.262337 0.113614 0.064702 -0.000052 0.000061 -0.051551
  3   2.380047 0.353302 0.047440 -0.255152 0.058385 0.219135
  4   2.033756 0.190472 -0.000128 -0.000010 0.000024 0.243881
  5   2.451511 0.204909 -0.003447 0.000000 -0.000005 0.285087
  6   7.247600 -0.397300 -0.109469 0.000001 0.000009 -0.209345
  7   -2.022252 -0.104661 3.136172 0.784604 -1.221968 -3.686208
  8   1.168026 -0.537438 -0.063437 -0.220045 0.874378 -0.601796
  9   6.790376 -0.619176 0.015206 -0.000213 -0.000352 -1.994456
 10   8.637599 0.544015 -0.090417 -1.174701 -0.597886 -0.222218
 11   6.790465 -0.619039 0.017802 0.004680 -0.011935 -1.411449
 12   -2.022474 -0.104699 -2.873818 -1.059096 1.075682 -3.935318
 13   1.167898 -0.537463 0.063297 0.117110 -0.674676 -0.240535
 14   7.002743 -0.617765 -0.183752 0.000229 0.000250 -1.961567
 15   8.209042 0.615527 -0.255885 1.666872 0.765006 -0.200505
 16   7.002735 -0.617911 -0.183641 0.012932 0.011033 -1.391732
 17   1.574674 0.609930 -0.000899 0.125069 -0.230342 0.518962
 18   -0.602177 0.511412 -0.000006 0.000000 0.000000 0.000000
 19   3.673773 0.177020 1.119313 -0.000002 -0.000014 -0.174510
 20   3.673767 0.176993 -1.117566 0.000007 -0.000003 -0.174546
 21   3.942357 1.330634 1.627658 0.000002 -0.000011 -0.000026
 22   -0.246060 -0.011889 0.516521 -0.000011 0.000031 0.000025
 23   3.942374 1.330659 -1.631083 0.000019 0.000002 -0.000024
 24   -0.246150 -0.011872 -0.516511 -0.000005 -0.000006 0.000048
 25   4.941364 1.997338 1.629330 0.000018 -0.000001 -0.000024
 26   4.941382 1.997366 -1.629410 -0.000001 0.000005 -0.000024
 27   2.918368 1.615358 1.514501 -0.000019 -0.000022 -0.000050
 28   2.920798 1.614964 -1.501142 -0.000002 -0.000009 -0.000024
 29   8.824059 0.150544 0.091743 0.000006 -0.000231 -0.174534
 30   2.111085 -0.561179 1.784320 -0.000008 -0.000682 0.000024
 31   2.121290 -0.561289 -1.853599 0.000000 0.000000 -0.000002
 32   -0.810489 -0.093824 3.127092 -0.118491 -2.966359 -0.385135
 33   14.298673 -0.408176 0.475484 -0.000088 -0.000042 -0.555499
 34   15.835795 0.581398 0.242756 0.161927 -0.015789 0.080306
 35   -0.815868 -0.091229 -3.114430 0.086971 2.994908 -0.092139
 36   14.294526 -0.410349 -0.463635 0.000081 0.000060 -0.526353
 37   15.834409 0.579420 -0.284600 -0.088625 0.042018 0.344711
 38   1.139685 -3.453749 -2.823813 0.000000 0.000000 0.000001
 39   -4.457742 -1.054854 -0.746180 0.000000 0.000000 0.000000
 40   1.118101 -3.449769 3.237290 0.000000 0.000001 0.000000
 41   -4.433840 -1.059130 0.959566 -0.000001 0.000000 0.000000
 42   -0.657468 1.697302 -2.688614 0.000000 0.000002 0.000000
 43   -0.664068 1.698578 2.869377 0.000000 0.000002 0.000000
time 10
  0   0.001233 0.187506 0.266004 0.000000 0.000000 -1.571449
  1   -1.093036 0.000002 -0.326057 -1.570757 -1.570379 -0.000123
  2   2.262337 0.113614 0.064702 -0.000052 0.000061 -0.051551
  3   2.380047 0.353302 0.047440 -0.255152 0.058385 0.219135
  4   2.033756 0.190472 -0.000128 -0.000010 0.000024 0.243881
  5   2.451511 0.204909 -0.003447 0.000000 -0.000005 0.288257
  6   7.247600 -0.397300 -0.109469 0.000001 0.000009 -0.209345
  7   -2.022252 -0.104661 3.136172 0.774826 -1.218393 -3.676347
  8   1.168026 -0.537438 -0.063437 -0.218906 0.867938 -0.601543
  9   6.790376 -0.619176 0.015206 -0.000213 -0.000352 -1.994456
 10   8.637599 0.544015 -0.090417 -1.174701 -0.597886 -0.222218
 11   6.790465 -0.619039 0.017802 0.004680 -0.011935 -1.411449
 12   -2.022474 -0.104699 -2.873818 -1.050282 1.072837 -3.924978
 13   1.167898 -0.537463 0.063297 0.118305 -0.667252 -0.242230
 14   7.002743 -0.617765 -0.183752 0.000229 0.000250 -1.961567
 15   8.209042 0.615527 -0.255885 1.666872 0.765006 -0.200505
 16   7.002735 -0.617911 -0.183641 0.012932 0.011033 -1.391732
 17   1.574674 0.609930 -0.000899 0.125069 -0.230342 0.516005
 18   -0.602177 0.511412 -0.000006 0.000000 0.000000 0.000000
 19   3.673773 0.177020 1.119313 -0.000002 -0.000014 -0.174510
 20   3.673767 0.176993 -1.117566 0.000007 -0.000003 -0.174546
 21   3.942357 1.330634 1.627658 0.000002 -0.000011 -0.000026
 22   -0.246060 -0.011889 0.516521 -0.000011 0.000031 0.000025
 23   3.942374 1.330659 -1.631083 0.000019 0.000002 -0.000024
 24   -0.246150 -0.011872 -0.516511 -0.000005 -0.000006 0.000048
 25   4.941364 1.997338 1.629330 0.000018 -0.000001 -0.000024
 26   4.941382 1.997366 -1.629410 -0.000001 0.000005 -0.000024
 27   2.918368 1.615358 1.514501 -0.000019 -0.000022 -0.000050
 28   2.920798 1.614964 -1.501142 -0.000002 -0.000009 -0.000024
 29   8.824059 0.150544 0.091743 0.000006 -0.000231 -0.174534
 30   2.111085 -0.561179 1.784320 -0.000008 -0.000682 0.000024
 31   2.121290 -0.561289 -1.853599 0.000000 0.000000 -0.000002
 32   -0.810489 -0.093824 3.127092 -0.117279 -2.965309 -0.390429
 33   14.298673 -0.408176 0.475484 -0.000088 -0.000042 -0.565900
 34   15.835795 0.581398 0.242756 0.162042 -0.015984 0.085422
 35   -0.815868 -0.091229 -3.114430 0.086003 2.994346 -0.097343
 36   14.294526 -0.410349 -0.463635 0.000081 0.000060 -0.537167
 37   15.834409 0.579420 -0.284600 -0.088585 0.042248 0.350491
 38   1.139685 -3.453749 -2.823813 0.000000 0.000000 0.000001
 39   -4.457742 -1.054854 -0.746180 0.000000 0.000000 0.000000
 40   1.118101 -3.449769 3.237290 0.000000 0.000001 0.000000
 41   -4.433840 -1.059130 0.959566 -0.000001 0.000000 0.000000
 42   -0.657468 1.697302 -2.688614 0.000000 0.000002 0.000000
 43   -0.664068 1.698578 2.869377 0.000000 0.000002 0.000000
time 11
  0   0.001233 0.187506 0.223034 0.000000 0.000000 -1.571449
  1   -1.093036 0.000002 -0.326057 -1.570757 -1.570379 -0.000123
  2   2.262337 0.113614 0.064702 -0.000052 0.000061 -0.051551
  3   2.380047 0.353302 0.047440 -0.255152 0.058385 0.219135
  4   2.033756 0.190472 -0.000128 -0.000010 0.000024 0.243881
  5   2.451511 0.204909 -0.003447 0.000000 -0.000005 0.290932
  6   7.247600 -0.397300 -0.109469 0.000001 0.000009 -0.209345
  7   -2.022252 -0.104661 3.136172 0.766678 -1.215367 -3.667519
  8   1.168026 -0.537438 -0.063437 -0.217767 0.862353 -0.601543
  9   6.790376 -0.619176 0.015206 -0.000213 -0.000352 -1.994456
 10   8.637599 0.544015 -0.090417 -1.174701 -0.597886 -0.222218
 11   6.790465 -0.619039 0.017802 0.004680 -0.011935 -1.411449
 12   -2.022474 -0.104699 -2.873818 -1.042330 1.070544 -3.916361
 13   1.167898 -0.537463 0.063297 0.119289 -0.660946 -0.243562
 14   7.002743 -0.617765 -0.183752 0.000229 0.000250 -1.961567
 15   8.209042 0.615527 -0.255885 1.666872 0.765006 -0.200505
 16   7.002735 -0.617911 -0.183641 0.012932 0.011033 -1.391732
 17   1.574674 0.609930 -0.000899 0.125069 -0.230342 0.513270
 18   -0.602177 0.511412 -0.000006 0.000000 0.000000 0.000000
 19   3.673773 0.177020 1.119313 -0.000002 -0.000014 -0.174510
 20   3.673767 0.176993 -1.117566 0.000007 -0.000003 -0.174546
 21   3.942357 1.330634 1.627658 0.000002 -0.000011 -0.000026
 22   -0.246060 -0.011889 0.516521 -0.000011 0.000031 0.000025
 23   3.942374 1.330659 -1.631083 0.000019 0.000002 -0.000024
 24   -0.246150 -0.011872 -0.516511 -0.000005 -0.000006 0.000048
 25   4.941364 1.997338 1.629330 0.000018 -0.000001 -0.000024
 26   4.941382 1.997366 -1.629410 -0.000001 0.000005 -0.000024
 27   2.918368 1.615358 1.514501 -0.000019 -0.000022 -0.000050
 28   2.920798 1.614964 -1.501142 -0.000002 -0.000009 -0.000024
 29   8.824059 0.150544 0.091743 0.000006 -0.000231 -0.174534
 30   2.111085 -0.561179 1.784320 -0.000008 -0.000682 0.000024
 31   2.121290 -0.561289 -1.853599 0.000000 0.000000 -0.000002
 32   -0.810489 -0.093824 3.127092 -0.116440 -2.964545 -0.395324
 33   14.298673 -0.408176 0.475484 -0.000088 -0.000042 -0.575428
 34   15.835795 0.581398 0.242756 0.162226 -0.016106 0.089788
 35   -0.815868 -0.091229 -3.114430 0.085211 2.994252 -0.102109
 36   14.294526 -0.410349 -0.463635 0.000081 0.000060 -0.546977
 37   15.834409 0.579420 -0.284600 -0.088585 0.042453 0.355764
 38   1.139685 -3.453749 -2.823813 0.000000 0.000000 0.000001
 39   -4.457742 -1.054854 -0.746180 0.000000 0.000000 0.000000
 40   1.118101 -3.449769 3.237290 0.000000 0.000001 0.000000
 41   -4.433840 -1.059130 0.959566 -0.000001 0.000000 0.000000
 42   -0.657468 1.697302 -2.688614 0.000000 0.000002 0.000000
 43   -0.664068 1.698578 2.869377 0.000000 0.000002 0.000000
time 12
  0   0.001233 0.187506 0.172251 0.000000 0.000000 -1.571449
  1   -1.093036 0.000002 -0.326057 -1.570757 -1.570379 -0.000123
  2   2.262337 0.113614 0.064702 -0.000052 0.000061 -0.051551
  3   2.380047 0.353302 0.047440 -0.255152 0.058385 0.219135
  4   2.033756 0.190472 -0.000128 -0.000010 0.000024 0.243881
  5   2.451511 0.204909 -0.003447 0.000000 -0.000005 0.293210
  6   7.247600 -0.397300 -0.109469 0.000001 0.000009 -0.209345
  7   -2.022252 -0.104661 3.136172 0.760160 -1.212830 -3.660288
  8   1.168026 -0.537438 -0.063437 -0.216691 0.857724 -0.601290
  9   6.790376 -0.619176 0.015206 -0.000213 -0.000352 -1.994456
 10   8.637599 0.544015 -0.090417 -1.174701 -0.597886 -0.222218
 11   6.790465 -0.619039 0.017802 0.004680 -0.011935 -1.411449
 12   -2.022474 -0.104699 -2.873818 -1.036103 1.068513 -3.909085
 13   1.167898 -0.537463 0.063297 0.120273 -0.655657 -0.244591
 14   7.002743 -0.617765 -0.183752 0.000229 0.000250 -1.961567
 15   8.209042 0.615527 -0.255885 1.666872 0.765006 -0.200505
 16   7.002735 -0.617911 -0.183641 0.012932 0.011033 -1.391732
 17   1.574674 0.609930 -0.000899 0.125069 -0.230342 0.511052
 18   -0.602177 0.511412 -0.000006 0.000000 0.000000 0.000000
 19   3.673773 0.177020 1.119313 -0.000002 -0.000014 -0.174510
 20   3.673767 0.176993 -1.117566 0.000007 -0.000003 -0.174546
 21   3.942357 1.330634 1.627658 0.000002 -0.000011 -0.000026
 22   -0.246060 -0.011889 0.516521 -0.000011 0.000031 0.000025
 23   3.942374 1.330659 -1.631083 0.000019 0.000002 -0.000024
 24   -0.246150 -0.011872 -0.516511 -0.000005 -0.000006 0.000048
 25   4.941364 1.997338 1.629330 0.000018 -0.000001 -0.000024
 26   4.941382 1.997366 -1.629410 -0.000001 0.000005 -0.000024
 27   2.918368 1.615358 1.514501 -0.000019 -0.000022 -0.000050
 28   2.920798 1.614964 -1.501142 -0.000002 -0.000009 -0.000024
 29   8.824059 0.150544 0.091743 0.000006 -0.000231 -0.174534
 30   2.111085 -0.561179 1.784320 -0.000008 -0.000682 0.000024
 31   2.121290 -0.561289 -1.853599 0.000000 0.000000 -0.000002
 32   -0.810489 -0.093824 3.127092 -0.115974 -2.963972 -0.399594
 33   14.298673 -0.408176 0.475484 -0.000088 -0.000042 -0.583288
 34   15.835795 0.581398 0.242756 0.162364 -0.016155 0.093625
 35   -0.815868 -0.091229 -3.114430 0.084859 2.993409 -0.105943
 36   14.294526 -0.410349 -0.463635 0.000081 0.000060 -0.555474
 37   15.834409 0.579420 -0.284600 -0.088566 0.042632 0.360276
 38   1.139685 -3.453749 -2.823813 0.000000 0.000000 0.000001
 39   -4.457742 -1.054854 -0.746180 0.000000 0.000000 0.000000
 40   1.118101 -3.449769 3.237290 0.000000 0.000001 0.000000
 41   -4.433840 -1.059130 0.959566 -0.000001 0.000000 0.000000
 42   -0.657468 1.697302 -2.688614 0.000000 0.000002 0.000000
 43   -0.664068 1.698578 2.869377 0.000000 0.000002 0.000000
time 13
  0   0.001233 0.187506 0.148813 0.000000 0.000000 -1.571449
  1   -1.093036 0.000002 -0.326057 -1.570757 -1.570379 -0.000123
  2   2.262337 0.113614 0.064702 -0.000052 0.000061 -0.051551
  3   2.380047 0.353302 0.047440 -0.255152 0.058385 0.219135
  4   2.033756 0.190472 -0.000128 -0.000010 0.000024 0.243881
  5   2.451511 0.204909 -0.003447 0.000000 -0.000005 0.294845
  6   7.247600 -0.397300 -0.109469 0.000001 0.000009 -0.209345
  7   -2.022252 -0.104661 3.136172 0.755176 -1.210812 -3.655123
  8   1.168026 -0.537438 -0.063437 -0.215995 0.854202 -0.601290
  9   6.790376 -0.619176 0.015206 -0.000213 -0.000352 -1.994456
 10   8.637599 0.544015 -0.090417 -1.174701 -0.597886 -0.222218
 11   6.790465 -0.619039 0.017802 0.004680 -0.011935 -1.411449
 12   -2.022474 -0.104699 -2.873818 -1.031216 1.066945 -3.903532
 13   1.167898 -0.537463 0.063297 0.120976 -0.651741 -0.245499
 14   7.002743 -0.617765 -0.183752 0.000229 0.000250 -1.961567
 15   8.209042 0.615527 -0.255885 1.666872 0.765006 -0.200505
 16   7.002735 -0.617911 -0.183641 0.012932 0.011033 -1.391732
 17   1.574674 0.609930 -0.000899 0.125069 -0.230342 0.509204
 18   -0.602177 0.511412 -0.000006 0.000000 0.000000 0.000000
 19   3.673773 0.177020 1.119313 -0.000002 -0.000014 -0.174510
 20   3.673767 0.176993 -1.117566 0.000007 -0.000003 -0.174546
 21   3.942357 1.330634 1.627658 0.000002 -0.000011 -0.000026
 22   -0.246060 -0.011889 0.516521 -0.000011 0.000031 0.000025
 23   3.942374 1.330659 -1.631083 0.000019 0.000002 -0.000024
 24   -0.246150 -0.011872 -0.516511 -0.000005 -0.000006 0.000048
 25   4.941364 1.997338 1.629330 0.000018 -0.000001 -0.000024
 26   4.941382 1.997366 -1.629410 -0.000001 0.000005 -0.000024
 27   2.918368 1.615358 1.514501 -0.000019 -0.000022 -0.000050
 28   2.920798 1.614964 -1.501142 -0.000002 -0.000009 -0.000024
 29   8.824059 0.150544 0.091743 0.000006 -0.000231 -0.174534
 30   2.111085 -0.561179 1.784320 -0.000008 -0.000682 0.000024
 31   2.121290 -0.561289 -1.853599 0.000000 0.000000 -0.000002
 32   -0.810489 -0.093824 3.127092 -0.115601 -2.963590 -0.402667
 33   14.298673 -0.408176 0.475484 -0.000088 -0.000042 -0.589799
 34   15.835795 0.581398 0.242756 0.162525 -0.016228 0.096624
 35   -0.815868 -0.091229 -3.114430 0.084243 2.993128 -0.109011
 36   14.294526 -0.410349 -0.463635 0.000081 0.000060 -0.561576
 37   15.834409 0.579420 -0.284600 -0.088566 0.042760 0.363775
 38   1.139685 -3.453749 -2.823813 0.000000 0.000000 0.000001
 39   -4.457742 -1.054854 -0.746180 0.000000 0.000000 0.000000
 40   1.118101 -3.449769 3.237290 0.000000 0.000001 0.000000
 41   -4.433840 -1.059130 0.959566 -0.000001 0.000000 0.000000
 42   -0.657468 1.697302 -2.688614 0.000000 0.000002 0.000000
 43   -0.664068 1.698578 2.869377 0.000000 0.000002 0.000000
time 14
  0   0.001233 0.187506 0.129281 0.000000 0.000000 -1.571449
  1   -1.093036 0.000002 -0.326057 -1.570757 -1.570379 -0.000123
  2   2.262337 0.113614 0.064702 -0.000052 0.000061 -0.051551
  3   2.380047 0.353302 0.047440 -0.255152 0.058385 0.219135
  4   2.033756 0.190472 -0.000128 -0.000010 0.000024 0.243881
  5   2.451511 0.204909 -0.003447 0.000000 -0.000005 0.295959
  6   7.247600 -0.397300 -0.109469 0.000001 0.000009 -0.209345
  7   -2.022252 -0.104661 3.136172 0.752204 -1.209486 -3.651648
  8   1.168026 -0.537438 -0.063437 -0.215552 0.852391 -0.601037
  9   6.790376 -0.619176 0.015206 -0.000213 -0.000352 -1.994456
 10   8.637599 0.544015 -0.090417 -1.174701 -0.597886 -0.222218
 11   6.790465 -0.619039 0.017802 0.004680 -0.011935 -1.411449
 12   -2.022474 -0.104699 -2.873818 -1.028246 1.066046 -3.900181
 13   1.167898 -0.537463 0.063297 0.121187 -0.649250 -0.245923
 14   7.002743 -0.617765 -0.183752 0.000229 0.000250 -1.961567
 15   8.209042 0.615527 -0.255885 1.666872 0.765006 -0.200505
 16   7.002735 -0.617911 -0.183641 0.012932 0.011033 -1.391732
 17   1.574674 0.609930 -0.000899 0.125069 -0.230342 0.508169
 18   -0.602177 0.511412 -0.000006 0.000000 0.000000 0.000000
 19   3.673773 0.177020 1.119313 -0.000002 -0.000014 -0.174510
 20   3.673767 0.176993 -1.117566 0.000007 -0.000003 -0.174546
 21   3.942357 1.330634 1.627658 0.000002 -0.000011 -0.000026
 22   -0.246060 -0.011889 0.516521 -0.000011 0.000031 0.000025
 23   3.942374 1.330659 -1.631083 0.000019 0.000002 -0.000024
 24   -0.246150 -0.011872 -0.516511 -0.000005 -0.000006 0.000048
 25   4.941364 1.997338 1.629330 0.000018 -0.000001 -0.000024
 26   4.941382 1.997366 -1.629410 -0.000001 0.000005 -0.000024
 27   2.918368 1.615358 1.514501 -0.000019 -0.000022 -0.000050
 28   2.920798 1.614964 -1.501142 -0.000002 -0.000009 -0.000024
 29   8.824059 0.150544 0.091743 0.000006 -0.000231 -0.174534
 30   2.111085 -0.561179 1.784320 -0.000008 -0.000682 0.000024
 31   2.121290 -0.561289 -1.853599 0.000000 0.000000 -0.000002
 32   -0.810489 -0.093824 3.127092 -0.115322 -2.963207 -0.404546
 33   14.298673 -0.408176 0.475484 -0.000088 -0.000042 -0.593372
 34   15.835795 0.581398 0.242756 0.162617 -0.016277 0.098388
 35   -0.815868 -0.091229 -3.114430 0.083979 2.993034 -0.110928
 36   14.294526 -0.410349 -0.463635 0.000081 0.000060 -0.565670
 37   15.834409 0.579420 -0.284600 -0.088507 0.042837 0.365803
 38   1.139685 -3.453749 -2.823813 0.000000 0.000000 0.000001
 39   -4.457742 -1.054854 -0.746180 0.000000 0.000000 0.000000
 40   1.118101 -3.449769 3.237290 0.000000 0.000001 0.000000
 41   -4.433840 -1.059130 0.959566 -0.000001 0.000000 0.000000
 42   -0.657468 1.697302 -2.688614 0.000000 0.000002 0.000000
 43   -0.664068 1.698578 2.869377 0.000000 0.000002 0.000000
time 15
  0   0.001233 0.187506 0.129281 0.000000 0.000000 -1.571449
  1   -1.093036 0.000002 -0.326057 -1.570757 -1.570379 -0.000123
  2   2.262337 0.113614 0.064702 -0.000052 0.000061 -0.051551
  3   2.380047 0.353302 0.047440 -0.255152 0.058385 0.219135
  4   2.033756 0.190472 -0.000128 -0.000010 0.000024 0.243881
  5   2.451511 0.204909 -0.003447 0.000000 -0.000005 0.296281
  6   7.247600 -0.397300 -0.109469 0.000001 0.000009 -0.209345
  7   -2.022252 -0.104661 3.136172 0.751054 -1.209111 -3.650521
  8   1.168026 -0.537438 -0.063437 -0.215489 0.851485 -0.601037
  9   6.790376 -0.619176 0.015206 -0.000213 -0.000352 -1.994456
 10   8.637599 0.544015 -0.090417 -1.174701 -0.597886 -0.222218
 11   6.790465 -0.619039 0.017802 0.004680 -0.011935 -1.411449
 12   -2.022474 -0.104699 -2.873818 -1.027192 1.065552 -3.899032
 13   1.167898 -0.537463 0.063297 0.121397 -0.648233 -0.245923
 14   7.002743 -0.617765 -0.183752 0.000229 0.000250 -1.961567
 15   8.209042 0.615527 -0.255885 1.666872 0.765006 -0.200505
 16   7.002735 -0.617911 -0.183641 0.012932 0.011033 -1.391732
 17   1.574674 0.609930 -0.000899 0.125069 -0.230342 0.507948
 18   -0.602177 0.511412 -0.000006 0.000000 0.000000 0.000000
 19   3.673773 0.177020 1.119313 -0.000002 -0.000014 -0.174510
 20   3.673767 0.176993 -1.117566 0.000007 -0.000003 -0.174546
 21   3.942357 1.330634 1.627658 0.000002 -0.000011 -0.000026
 22   -0.246060 -0.011889 0.516521 -0.000011 0.000031 0.000025
 23   3.942374 1.330659 -1.631083 0.000019 0.000002 -0.000024
 24   -0.246150 -0.011872 -0.516511 -0.000005 -0.000006 0.000048
 25   4.941364 1.997338 1.629330 0.000018 -0.000001 -0.000024
 26   4.941382 1.997366 -1.629410 -0.000001 0.000005 -0.000024
 27   2.918368 1.615358 1.514501 -0.000019 -0.000022 -0.000050
 28   2.920798 1.614964 -1.501142 -0.000002 -0.000009 -0.000024
 29   8.824059 0.150544 0.091743 0.000006 -0.000231 -0.174534
 30   2.111085 -0.561179 1.784320 -0.000008 -0.000682 0.000024
 31   2.121290 -0.561289 -1.853599 0.000000 0.000000 -0.000002
 32   -0.810489 -0.093824 3.127092 -0.115135 -2.963112 -0.405172
 33   14.298673 -0.408176 0.475484 -0.000088 -0.000042 -0.594563
 34   15.835795 0.581398 0.242756 0.162686 -0.016277 0.098785
 35   -0.815868 -0.091229 -3.114430 0.083803 2.992753 -0.111311
 36   14.294526 -0.410349 -0.463635 0.000081 0.000060 -0.566597
 37   15.834409 0.579420 -0.284600 -0.088507 0.042837 0.366158
 38   1.139685 -3.453749 -2.823813 0.000000 0.000000 0.000001
 39   -4.457742 -1.054854 -0.746180 0.000000 0.000000 0.000000
 40   1.118101 -3.449769 3.237290 0.000000 0.000001 0.000000
 41   -4.433840 -1.059130 0.959566 -0.000001 0.000000 0.000000
 42   -0.657468 1.697302 -2.688614 0.000000 0.000002 0.000000
 43   -0.664068 1.698578 2.869377 0.000000 0.000002 0.000000
time 16
  0   0.001233 0.187506 0.129281 0.000000 0.000000 -1.571449
  1   -1.093036 0.000002 -0.326057 -1.570757 -1.570379 -0.000123
  2   2.262337 0.113614 0.064702 -0.000052 0.000061 -0.051551
  3   2.380047 0.353302 0.047440 -0.255152 0.058385 0.219135
  4   2.033756 0.190472 -0.000128 -0.000010 0.000024 0.243881
  5   2.451511 0.204909 -0.003447 0.000000 -0.000005 0.295959
  6   7.247600 -0.397300 -0.109469 0.000001 0.000009 -0.209345
  7   -2.022252 -0.104661 3.136172 0.752204 -1.209486 -3.651648
  8   1.168026 -0.537438 -0.063437 -0.215552 0.852391 -0.601037
  9   6.790376 -0.619176 0.015206 -0.000213 -0.000352 -1.994456
 10   8.637599 0.544015 -0.090417 -1.174701 -0.597886 -0.222218
 11   6.790465 -0.619039 0.017802 0.004680 -0.011935 -1.411449
 12   -2.022474 -0.104699 -2.873818 -1.028246 1.066046 -3.900181
 13   1.167898 -0.537463 0.063297 0.121187 -0.649250 -0.245923
 14   7.002743 -0.617765 -0.183752 0.000229 0.000250 -1.961567
 15   8.209042 0.615527 -0.255885 1.666872 0.765006 -0.200505
 16   7.002735 -0.617911 -0.183641 0.012932 0.011033 -1.391732
 17   1.574674 0.609930 -0.000899 0.125069 -0.230342 0.508169
 18   -0.602177 0.511412 -0.000006 0.000000 0.000000 0.000000
 19   3.673773 0.177020 1.119313 -0.000002 -0.000014 -0.174510
 20   3.673767 0.176993 -1.117566 0.000007 -0.000003 -0.174546
 21   3.942357 1.330634 1.627658 0.000002 -0.000011 -0.000026
 22   -0.246060 -0.011889 0.516521 -0.000011 0.000031 0.000025
 23   3.942374 1.330659 -1.631083 0.000019 0.000002 -0.000024
 24   -0.246150 -0.011872 -0.516511 -0.000005 -0.000006 0.000048
 25   4.941364 1.997338 1.629330 0.000018 -0.000001 -0.000024
 26   4.941382 1.997366 -1.629410 -0.000001 0.000005 -0.000024
 27   2.918368 1.615358 1.514501 -0.000019 -0.000022 -0.000050
 28   2.920798 1.614964 -1.501142 -0.000002 -0.000009 -0.000024
 29   8.824059 0.150544 0.091743 0.000006 -0.000231 -0.174534
 30   2.111085 -0.561179 1.784320 -0.000008 -0.000682 0.000024
 31   2.121290 -0.561289 -1.853599 0.000000 0.000000 -0.000002
 32   -0.810489 -0.093824 3.127092 -0.115508 -2.963207 -0.403977
 33   14.298673 -0.408176 0.475484 -0.000088 -0.000042 -0.592022
 34   15.835795 0.581398 0.242756 0.162617 -0.016277 0.097947
 35   -0.815868 -0.091229 -3.114430 0.083979 2.993034 -0.110270
 36   14.294526 -0.410349 -0.463635 0.000081 0.000060 -0.564357
 37   15.834409 0.579420 -0.284600 -0.088507 0.042837 0.365144
 38   1.139685 -3.453749 -2.823813 0.000000 0.000000 0.000001
 39   -4.457742 -1.054854 -0.746180 0.000000 0.000000 0.000000
 40   1.118101 -3.449769 3.237290 0.000000 0.000001 0.000000
 41   -4.433840 -1.059130 0.959566 -0.000001 0.000000 0.000000
 42   -0.657468 1.697302 -2.688614 0.000000 0.000002 0.000000
 43   -0.664068 1.698578 2.869377 0.000000 0.000002 0.000000
time 17
  0   0.001233 0.187506 0.148813 0.000000 0.000000 -1.571449
  1   -1.093036 0.000002 -0.326057 -1.570757 -1.570379 -0.000123
  2   2.262337 0.113614 0.064702 -0.000052 0.000061 -0.051551
  3   2.380047 0.353302 0.047440 -0.255152 0.058385 0.219135
  4   2.033756 0.190472 -0.000128 -0.000010 0.000024 0.243881
  5   2.451511 0.204909 -0.003447 0.000000 -0.000005 0.294845
  6   7.247600 -0.397300 -0.109469 0.000001 0.000009 -0.209345
  7   -2.022252 -0.104661 3.136172 0.755176 -1.210812 -3.655123
  8   1.168026 -0.537438 -0.063437 -0.215995 0.854202 -0.601290
  9   6.790376 -0.619176 0.015206 -0.000213 -0.000352 -1.994456
 10   8.637599 0.544015 -0.090417 -1.174701 -0.597886 -0.222218
 11   6.790465 -0.619039 0.017802 0.004680 -0.011935 -1.411449
 12   -2.022474 -0.104699 -2.873818 -1.031216 1.066945 -3.903532
 13   1.167898 -0.537463 0.063297 0.120976 -0.651741 -0.245499
 14   7.002743 -0.617765 -0.183752 0.000229 0.000250 -1.961567
 15   8.209042 0.615527 -0.255885 1.666872 0.765006 -0.200505
 16   7.002735 -0.617911 -0.183641 0.012932 0.011033 -1.391732
 17   1.574674 0.609930 -0.000899 0.125069 -0.230342 0.509204
 18   -0.602177 0.511412 -0.000006 0.000000 0.000000 0.000000
 19   3.673773 0.177020 1.119313 -0.000002 -0.000014 -0.174510
 20   3.673767 0.176993 -1.117566 0.000007 -0.000003 -0.174546
 21   3.942357 1.330634 1.627658 0.000002 -0.000011 -0.000026
 22   -0.246060 -0.011889 0.516521 -0.000011 0.000031 0.000025
 23   3.942374 1.330659 -1.631083 0.000019 0.000002 -0.000024
 24   -0.246150 -0.011872 -0.516511 -0.000005 -0.000006 0.000048
 25   4.941364 1.997338 1.629330 0.000018 -0.000001 -0.000024
 26   4.941382 1.997366 -1.629410 -0.000001 0.000005 -0.000024
 27   2.918368 1.615358 1.514501 -0.000019 -0.000022 -0.000050
 28   2.920798 1.614964 -1.501142 -0.000002 -0.000009 -0.000024
 29   8.824059 0.150544 0.091743 0.000006 -0.000231 -0.174534
 30   2.111085 -0.561179 1.784320 -0.000008 -0.000682 0.000024
 31   2.121290 -0.561289 -1.853599 0.000000 0.000000 -0.000002
 32   -0.810489 -0.093824 3.127092 -0.115788 -2.963781 -0.401814
 33   14.298673 -0.408176 0.475484 -0.000088 -0.000042 -0.587496
 34   15.835795 0.581398 0.242756 0.162525 -0.016155 0.095742
 35   -0.815868 -0.091229 -3.114430 0.084243 2.993315 -0.107970
 36   14.294526 -0.410349 -0.463635 0.000081 0.000060 -0.559568
 37   15.834409 0.579420 -0.284600 -0.088507 0.042709 0.362558
 38   1.139685 -3.453749 -2.823813 0.000000 0.000000 0.000001
 39   -4.457742 -1.054854 -0.746180 0.000000 0.000000 0.000000
 40   1.118101 -3.449769 3.237290 0.000000 0.000001 0.000000
 41   -4.433840 -1.059130 0.959566 -0.000001 0.000000 0.000000
 42   -0.657468 1.697302 -2.688614 0.000000 0.000002 0.000000
 43   -0.664068 1.698578 2.869377 0.000000 0.000002 0.000000
time 18
  0   0.001233 0.187506 0.172251 0.000000 0.000000 -1.571449
  1   -1.093036 0.000002 -0.326057 -1.570757 -1.570379 -0.000123
  2   2.262337 0.113614 0.064702 -0.000052 0.000061 -0.051551
  3   2.380047 0.353302 0.047440 -0.255152 0.058385 0.219135
  4   2.033756 0.190472 -0.000128 -0.000010 0.000024 0.243881
  5   2.451511 0.204909 -0.003447 0.000000 -0.000005 0.293210
  6   7.247600 -0.397300 -0.109469 0.000001 0.000009 -0.209345
  7   -2.022252 -0.104661 3.136172 0.760160 -1.212830 -3.660288
  8   1.168026 -0.537438 -0.063437 -0.216691 0.857724 -0.601290
  9   6.790376 -0.619176 0.015206 -0.000213 -0.000352 -1.994456
 10   8.637599 0.544015 -0.090417 -1.174701 -0.597886 -0.222218
 11   6.790465 -0.619039 0.017802 0.004680 -0.011935 -1.411449
 12   -2.022474 -0.104699 -2.873818 -1.036103 1.068513 -3.909085
 13   1.167898 -0.537463 0.063297 0.120273 -0.655657 -0.244591
 14   7.002743 -0.617765 -0.183752 0.000229 0.000250 -1.961567
 15   8.209042 0.615527 -0.255885 1.666872 0.765006 -0.200505
 16   7.002735 -0.617911 -0.183641 0.012932 0.011033 -1.391732
 17   1.574674 0.609930 -0.000899 0.125069 -0.230342 0.511052
 18   -0.602177 0.511412 -0.000006 0.000000 0.000000 0.000000
 19   3.673773 0.177020 1.119313 -0.000002 -0.000014 -0.174510
 20   3.673767 0.176993 -1.117566 0.000007 -0.000003 -0.174546
 21   3.942357 1.330634 1.627658 0.000002 -0.000011 -0.000026
 22   -0.246060 -0.011889 0.516521 -0.000011 0.000031 0.000025
 23   3.942374 1.330659 -1.631083 0.000019 0.000002 -0.000024
 24   -0.246150 -0.011872 -0.516511 -0.000005 -0.000006 0.000048
 25   4.941364 1.997338 1.629330 0.000018 -0.000001 -0.000024
 26   4.941382 1.997366 -1.629410 -0.000001 0.000005 -0.000024
 27   2.918368 1.615358 1.514501 -0.000019 -0.000022 -0.000050
 28   2.920798 1.614964 -1.501142 -0.000002 -0.000009 -0.000024
 29   8.824059 0.150544 0.091743 0.000006 -0.000231 -0.174534
 30   2.111085 -0.561179 1.784320 -0.000008 -0.000682 0.000024
 31   2.121290 -0.561289 -1.853599 0.000000 0.000000 -0.000002
 32   -0.810489 -0.093824 3.127092 -0.116347 -2.964258 -0.398455
 33   14.298673 -0.408176 0.475484 -0.000088 -0.000042 -0.581065
 34   15.835795 0.581398 0.242756 0.162433 -0.016106 0.092434
 35   -0.815868 -0.091229 -3.114430 0.084947 2.993971 -0.104793
 36   14.294526 -0.410349 -0.463635 0.000081 0.000060 -0.552925
 37   15.834409 0.579420 -0.284600 -0.088507 0.042581 0.359009
 38   1.139685 -3.453749 -2.823813 0.000000 0.000000 0.000001
 39   -4.457742 -1.054854 -0.746180 0.000000 0.000000 0.000000
 40   1.118101 -3.449769 3.237290 0.000000 0.000001 0.000000
 41   -4.433840 -1.059130 0.959566 -0.000001 0.000000 0.000000
 42   -0.657468 1.697302 -2.688614 0.000000 0.000002 0.000000
 43   -0.664068 1.698578 2.869377 0.000000 0.000002 0.000000
time 19
  0   0.001233 0.187506 0.223034 0.000000 0.000000 -1.571449
  1   -1.093036 0.000002 -0.326057 -1.570757 -1.570379 -0.000123
  2   2.262337 0.113614 0.064702 -0.000052 0.000061 -0.051551
  3   2.380047 0.353302 0.047440 -0.255152 0.058385 0.219135
  4   2.033756 0.190472 -0.000128 -0.000010 0.000024 0.243881
  5   2.451511 0.204909 -0.003447 0.000000 -0.000005 0.290932
  6   7.247600 -0.397300 -0.109469 0.000001 0.000009 -0.209345
  7   -2.022252 -0.104661 3.136172 0.766678 -1.215367 -3.667519
  8   1.168026 -0.537438 -0.063437 -0.217767 0.862353 -0.601543
  9   6.790376 -0.619176 0.015206 -0.000213 -0.000352 -1.994456
 10   8.637599 0.544015 -0.090417 -1.174701 -0.597886 -0.222218
 11   6.790465 -0.619039 0.017802 0.004680 -0.011935 -1.411449
 12   -2.022474 -0.104699 -2.873818 -1.042330 1.070544 -3.916361
 13   1.167898 -0.537463 0.063297 0.119289 -0.660946 -0.243562
 14   7.002743 -0.617765 -0.183752 0.000229 0.000250 -1.961567
 15   8.209042 0.615527 -0.255885 1.666872 0.765006 -0.200505
 16   7.002735 -0.617911 -0.183641 0.012932 0.011033 -1.391732
 17   1.574674 0.609930 -0.000899 0.125069 -0.230342 0.513270
 18   -0.602177 0.511412 -0.000006 0.000000 0.000000 0.000000
 19   3.673773 0.177020 1.119313 -0.000002 -0.000014 -0.174510
 20   3.673767 0.176993 -1.117566 0.000007 -0.000003 -0.174546
 21   3.942357 1.330634 1.627658 0.000002 -0.000011 -0.000026
 22   -0.246060 -0.011889 0.516521 -0.000011 0.000031 0.000025
 23   3.942374 1.330659 -1.631083 0.000019 0.000002 -0.000024
 24   -0.246150 -0.011872 -0.516511 -0.000005 -0.000006 0.000048
 25   4.941364 1.997338 1.629330 0.000018 -0.000001 -0.000024
 26   4.941382 1.997366 -1.629410 -0.000001 0.000005 -0.000024
 27   2.918368 1.615358 1.514501 -0.000019 -0.000022 -0.000050
 28   2.920798 1.614964 -1.501142 -0.000002 -0.000009 -0.000024
 29   8.824059 0.150544 0.091743 0.000006 -0.000231 -0.174534
 30   2.111085 -0.561179 1.784320 -0.000008 -0.000682 0.000024
 31   2.121290 -0.561289 -1.853599 0.000000 0.000000 -0.000002
 32   -0.810489 -0.093824 3.127092 -0.117093 -2.964927 -0.394072
 33   14.298673 -0.408176 0.475484 -0.000088 -0.000042 -0.572887
 34   15.835795 0.581398 0.242756 0.162295 -0.016033 0.088509
 35   -0.815868 -0.091229 -3.114430 0.085651 2.994252 -0.100794
 36   14.294526 -0.410349 -0.463635 0.000081 0.000060 -0.544428
 37   15.834409 0.579420 -0.284600 -0.088566 0.042401 0.354243
 38   1.139685 -3.453749 -2.823813 0.000000 0.000000 0.000001
 39   -4.457742 -1.054854 -0.746180 0.000000 0.000000 0.000000
 40   1.118101 -3.449769 3.237290 0.000000 0.000001 0.000000
 41   -4.433840 -1.059130 0.959566 -0.000001 0.000000 0.000000
 42   -0.657468 1.697302 -2.688614 0.000000 0.000002 0.000000
 43   -0.664068 1.698578 2.869377 0.000000 0.000002 0.000000
time 20
  0   0.001233 0.187506 0.266004 0.000000 0.000000 -1.571449
  1   -1.093036 0.000002 -0.326057 -1.570757 -1.570379 -0.000123
  2   2.262337 0.113614 0.064702 -0.000052 0.000061 -0.051551
  3   2.380047 0.353302 0.047440 -0.255152 0.058385 0.219135
  4   2.033756 0.190472 -0.000128 -0.000010 0.000024 0.243881
  5   2.451511 0.204909 -0.003447 0.000000 -0.000005 0.288257
  6   7.247600 -0.397300 -0.109469 0.000001 0.000009 -0.209345
  7   -2.022252 -0.104661 3.136172 0.774826 -1.218393 -3.676347
  8   1.168026 -0.537438 -0.063437 -0.218906 0.867938 -0.601543
  9   6.790376 -0.619176 0.015206 -0.000213 -0.000352 -1.994456
 10   8.637599 0.544015 -0.090417 -1.174701 -0.597886 -0.222218
 11   6.790465 -0.619039 0.017802 0.004680 -0.011935 -1.411449
 12   -2.022474 -0.104699 -2.873818 -1.050282 1.072837 -3.924978
 13   1.167898 -0.537463 0.063297 0.118305 -0.667252 -0.242230
 14   7.002743 -0.617765 -0.183752 0.000229 0.000250 -1.961567
 15   8.209042 0.615527 -0.255885 1.666872 0.765006 -0.200505
 16   7.002735 -0.617911 -0.183641 0.012932 0.011033 -1.391732
 17   1.574674 0.609930 -0.000899 0.125069 -0.230342 0.516005
 18   -0.602177 0.511412 -0.000006 0.000000 0.000000 0.000000
 19   3.673773 0.177020 1.119313 -0.000002 -0.000014 -0.174510
 20   3.673767 0.176993 -1.117566 0.000007 -0.000003 -0.174546
 21   3.942357 1.330634 1.627658 0.000002 -0.000011 -0.000026
 22   -0.246060 -0.011889 0.516521 -0.000011 0.000031 0.000025
 23   3.942374 1.330659 -1.631083 0.000019 0.000002 -0.000024
 24   -0.246150 -0.011872 -0.516511 -0.000005 -0.000006 0.000048
 25   4.941364 1.997338 1.629330 0.000018 -0.000001 -0.000024
 26   4.941382 1.997366 -1.629410 -0.000001 0.000005 -0.000024
 27   2.918368 1.615358 1.514501 -0.000019 -0.000022 -0.000050
 28   2.920798 1.614964 -1.501142 -0.000002 -0.000009 -0.000024
 29   8.824059 0.150544 0.091743 0.000006 -0.000231 -0.174534
 30   2.111085 -0.561179 1.784320 -0.000008 -0.000682 0.000024
 31   2.121290 -0.561289 -1.853599 0.000000 0.000000 -0.000002
 32   -0.810489 -0.093824 3.127092 -0.117652 -2.965691 -0.389234
 33   14.298673 -0.408176 0.475484 -0.000088 -0.000042 -0.563518
 34   15.835795 0.581398 0.242756 0.162134 -0.015911 0.084187
 35   -0.815868 -0.091229 -3.114430 0.086267 2.994908 -0.096083
 36   14.294526 -0.410349 -0.463635 0.000081 0.000060 -0.534541
 37   15.834409 0.579420 -0.284600 -0.088566 0.042248 0.349122
 38   1.139685 -3.453749 -2.823813 0.000000 0.000000 0.000001
 39   -4.457742 -1.054854 -0.746180 0.000000 0.000000 0.000000
 40   1.118101 -3.449769 3.237290 0.000000 0.000001 0.000000
 41   -4.433840 -1.059130 0.959566 -0.000001 0.000000 0.000000
 42   -0.657468 1.697302 -2.688614 0.000000 0.000002 0.000000
 43   -0.664068 1.698578 2.869377 0.000000 0.000002 0.000000
time 21
  0   0.001233 0.187506 0.308974 0.000000 0.000000 -1.571449
  1   -1.093036 0.000002 -0.326057 -1.570757 -1.570379 -0.000123
  2   2.262337 0.113614 0.064702 -0.000052 0.000061 -0.051551
  3   2.380047 0.353302 0.047440 -0.255152 0.058385 0.219135
  4   2.033756 0.190472 -0.000128 -0.000010 0.000024 0.243881
  5   2.451511 0.204909 -0.003447 0.000000 -0.000005 0.285087
  6   7.247600 -0.397300 -0.109469 0.000001 0.000009 -0.209345
  7   -2.022252 -0.104661 3.136172 0.784604 -1.221968 -3.686208
  8   1.168026 -0.537438 -0.063437 -0.220045 0.874378 -0.601796
  9   6.790376 -0.619176 0.015206 -0.000213 -0.000352 -1.994456
 10   8.637599 0.544015 -0.090417 -1.174701 -0.597886 -0.222218
 11   6.790465 -0.619039 0.017802 0.004680 -0.011935 -1.411449
 12   -2.022474 -0.104699 -2.873818 -1.059096 1.075682 -3.935318
 13   1.167898 -0.537463 0.063297 0.117110 -0.674676 -0.240535
 14   7.002743 -0.617765 -0.183752 0.000229 0.000250 -1.961567
 15   8.209042 0.615527 -0.255885 1.666872 0.765006 -0.200505
 16   7.002735 -0.617911 -0.183641 0.012932 0.011033 -1.391732
 17   1.574674 0.609930 -0.000899 0.125069 -0.230342 0.518962
 18   -0.602177 0.511412 -0.000006 0.000000 0.000000 0.000000
 19   3.673773 0.177020 1.119313 -0.000002 -0.000014 -0.174510
 20   3.673767 0.176993 -1.117566 0.000007 -0.000003 -0.174546
 21   3.942357 1.330634 1.627658 0.000002 -0.000011 -0.000026
 22   -0.246060 -0.011889 0.516521 -0.000011 0.000031 0.000025
 23   3.942374 1.330659 -1.631083 0.000019 0.000002 -0.000024
 24   -0.246150 -0.011872 -0.516511 -0.000005 -0.000006 0.000048
 25   4.941364 1.997338 1.629330 0.000018 -0.000001 -0.000024
 26   4.941382 1.997366 -1.629410 -0.000001 0.000005 -0.000024
 27   2.918368 1.615358 1.514501 -0.000019 -0.000022 -0.000050
 28   2.920798 1.614964 -1.501142 -0.000002 -0.000009 -0.000024
 29   8.824059 0.150544 0.091743 0.000006 -0.000231 -0.174534
 30   2.111085 -0.561179 1.784320 -0.000008 -0.000682 0.000024
 31   2.121290 -0.561289 -1.853599 0.000000 0.000000 -0.000002
 32   -0.810489 -0.093824 3.127092 -0.118584 -2.966455 -0.383940
 33   14.298673 -0.408176 0.475484 -0.000088 -0.000042 -0.553117
 34   15.835795 0.581398 0.242756 0.161973 -0.015740 0.079027
 35   -0.815868 -0.091229 -3.114430 0.086971 2.995095 -0.090825
 36   14.294526 -0.410349 -0.463635 0.000081 0.000060 -0.523572
 37   15.834409 0.579420 -0.284600 -0.088585 0.041992 0.343342
 38   1.139685 -3.453749 -2.823813 0.000000 0.000000 0.000001
 39   -4.457742 -1.054854 -0.746180 0.000000 0.000000 0.000000
 40   1.118101 -3.449769 3.237290 0.000000 0.000001 0.000000
 41   -4.433840 -1.059130 0.959566 -0.000001 0.000000 0.000000
 42   -0.657468 1.697302 -2.688614 0.000000 0.000002 0.000000
 43   -0.664068 1.698578 2.869377 0.000000 0.000002 0.000000
time 22
  0   0.001233 0.187506 0.371476 0.000000 0.000000 -1.571449
  1   -1.093036 0.000002 -0.326057 -1.570757 -1.570379 -0.000026
  2   2.262337 0.113614 0.064702 -0.000052 0.000061 -0.051551
  3   2.380047 0.353302 0.047440 -0.255152 0.058385 0.219135
  4   2.033756 0.190472 -0.000128 -0.000010 0.000024 0.243881
  5   2.451511 0.204909 -0.003447 0.000000 -0.000005 0.281744
  6   7.247600 -0.397300 -0.109469 0.000001 0.000009 -0.209345
  7   -2.022252 -0.104661 3.136172 0.795244 -1.225802 -3.697572
  8   1.168026 -0.537438 -0.063437 -0.221627 0.881372 -0.602239
  9   6.790376 -0.619176 0.015206 -0.000213 -0.000352 -1.994456
 10   8.637599 0.544015 -0.090417 -1.174701 -0.597886 -0.222218
 11   6.790465 -0.619039 0.017802 0.004680 -0.011935 -1.411449
 12   -2.022474 -0.104699 -2.873818 -1.068869 1.078584 -3.946424
 13   1.167898 -0.537463 0.063297 0.115563 -0.682508 -0.238840
 14   7.002743 -0.617765 -0.183752 0.000229 0.000250 -1.961567
 15   8.209042 0.615527 -0.255885 1.666872 0.765006 -0.200505
 16   7.002735 -0.617911 -0.183641 0.012932 0.011033 -1.391732
 17   1.574674 0.609930 -0.000899 0.125069 -0.230342 0.522325
 18   -0.602177 0.511412 -0.000006 0.000000 0.000000 0.000000
 19   3.673773 0.177020 1.119313 -0.000002 -0.000014 -0.174510
 20   3.673767 0.176993 -1.117566 0.000007 -0.000003 -0.174546
 21   3.942357 1.330634 1.627658 0.000002 -0.000011 -0.000026
 22   -0.246060 -0.011889 0.516521 -0.000011 0.000031 0.000025
 23   3.942374 1.330659 -1.631083 0.000019 0.000002 -0.000024
 24   -0.246150 -0.011872 -0.516511 -0.000005 -0.000006 0.000048
 25   4.941364 1.997338 1.629330 0.000018 -0.000001 -0.000024
 26   4.941382 1.997366 -1.629410 -0.000001 0.000005 -0.000024
 27   2.918368 1.615358 1.514501 -0.000019 -0.000022 -0.000050
 28   2.920798 1.614964 -1.501142 -0.000002 -0.000009 -0.000024
 29   8.824059 0.150544 0.091743 0.000006 -0.000231 -0.174534
 30   2.111085 -0.561179 1.784320 -0.000008 -0.000682 0.000024
 31   2.121290 -0.561289 -1.853599 0.000000 0.000000 -0.000002
 32   -0.810489 -0.093824 3.127092 -0.119516 -2.967410 -0.378191
 33   14.298673 -0.408176 0.475484 -0.000088 -0.000042 -0.542319
 34   15.835795 0.581398 0.242756 0.161858 -0.015569 0.073867
 35   -0.815868 -0.091229 -3.114430 0.087675 2.995751 -0.085457
 36   14.294526 -0.410349 -0.463635 0.000081 0.000060 -0.512449
 37   15.834409 0.579420 -0.284600 -0.088585 0.041762 0.337308
 38   1.139685 -3.453749 -2.823813 0.000000 0.000000 0.000001
 39   -4.457742 -1.054854 -0.746180 0.000000 0.000000 0.000000
 40   1.118101 -3.449769 3.237290 0.000000 0.000001 0.000000
 41   -4.433840 -1.059130 0.959566 -0.000001 0.000000 0.000000
 42   -0.657468 1.697302 -2.688614 0.000000 0.000002 0.000000
 43   -0.664068 1.698578 2.869377 0.000000 0.000002 0.000000
time 23
  0   0.001233 0.187506 0.437884 0.000000 0.000000 -1.571449
  1   -1.093036 0.000002 -0.326057 -1.570757 -1.570379 -0.000026
  2   2.262337 0.113614 0.064702 -0.000052 0.000061 -0.051551
  3   2.380047 0.353302 0.047440 -0.255152 0.058385 0.219135
  4   2.033756 0.190472 -0.000128 -0.000010 0.000024 0.243881
  5   2.451511 0.204909 -0.003447 0.000000 -0.000005 0.278153
  6   7.247600 -0.397300 -0.109469 0.000001 0.000009 -0.209345
  7   -2.022252 -0.104661 3.136172 0.806843 -1.229838 -3.710156
  8   1.168026 -0.537438 -0.063437 -0.223146 0.888617 -0.602492
  9   6.790376 -0.619176 0.015206 -0.000213 -0.000352 -1.994456
 10   8.637599 0.544015 -0.090417 -1.174701 -0.597886 -0.222218
 11   6.790465 -0.619039 0.017802 0.004680 -0.011935 -1.411449
 12   -2.022474 -0.104699 -2.873818 -1.079695 1.081922 -3.958583
 13   1.167898 -0.537463 0.063297 0.113876 -0.691203 -0.237024
 14   7.002743 -0.617765 -0.183752 0.000229 0.000250 -1.961567
 15   8.209042 0.615527 -0.255885 1.666872 0.765006 -0.200505
 16   7.002735 -0.617911 -0.183641 0.012932 0.011033 -1.391732
 17   1.574674 0.609930 -0.000899 0.125069 -0.230342 0.526058
 18   -0.602177 0.511412 -0.000006 0.000000 0.000000 0.000000
 19   3.673773 0.177020 1.119313 -0.000002 -0.000014 -0.174510
 20   3.673767 0.176993 -1.117566 0.000007 -0.000003 -0.174546
 21   3.942357 1.330634 1.627658 0.000002 -0.000011 -0.000026
 22   -0.246060 -0.011889 0.516521 -0.000011 0.000031 0.000025
 23   3.942374 1.330659 -1.631083 0.000019 0.000002 -0.000024
 24   -0.246150 -0.011872 -0.516511 -0.000005 -0.000006 0.000048
 25   4.941364 1.997338 1.629330 0.000018 -0.000001 -0.000024
 26   4.941382 1.997366 -1.629410 -0.000001 0.000005 -0.000024
 27   2.918368 1.615358 1.514501 -0.000019 -0.000022 -0.000050
 28   2.920798 1.614964 -1.501142 -0.000002 -0.000009 -0.000024
 29   8.824059 0.150544 0.091743 0.000006 -0.000231 -0.174534
 30   2.111085 -0.561179 1.784320 -0.000008 -0.000682 0.000024
 31   2.121290 -0.561289 -1.853599 0.000000 0.000000 -0.000002
 32   -0.810489 -0.093824 3.127092 -0.120448 -2.968269 -0.372783
 33   14.298673 -0.408176 0.475484 -0.000088 -0.000042 -0.531203
 34   15.835795 0.581398 0.242756 0.161743 -0.015447 0.068354
 35   -0.815868 -0.091229 -3.114430 0.088467 2.996595 -0.079979
 36   14.294526 -0.410349 -0.463635 0.000081 0.000060 -0.500708
 37   15.834409 0.579420 -0.284600 -0.088625 0.041608 0.331021
 38   1.139685 -3.453749 -2.823813 0.000000 0.000000 0.000001
 39   -4.457742 -1.054854 -0.746180 0.000000 0.000000 0.000000
 40   1.118101 -3.449769 3.237290 0.000000 0.000001 0.000000
 41   -4.433840 -1.059130 0.959566 -0.000001 0.000000 0.000000
 42   -0.657468 1.697302 -2.688614 0.000000 0.000002 0.000000
 43   -0.664068 1.698578 2.869377 0.000000 0.000002 0.000000
time 24
  0   0.001233 0.187506 0.508199 0.000000 0.000000 -1.571449
  1   -1.093036 0.000002 -0.326057 -1.570757 -1.570379 -0.000026
  2   2.262337 0.113614 0.064702 -0.000052 0.000061 -0.051551
  3   2.380047 0.353302 0.047440 -0.255152 0.058385 0.219135
  4   2.033756 0.190472 -0.000128 -0.000010 0.000024 0.243881
  5   2.451511 0.204909 -0.003447 0.000000 -0.000005 0.274364
  6   7.247600 -0.397300 -0.109469 0.000001 0.000009 -0.209345
  7   -2.022252 -0.104661 3.136172 0.819304 -1.234046 -3.723398
  8   1.168026 -0.537438 -0.063437 -0.224791 0.896416 -0.602998
  9   6.790376 -0.619176 0.015206 -0.000213 -0.000352 -1.994456
 10   8.637599 0.544015 -0.090417 -1.174701 -0.597886 -0.222218
 11   6.790465 -0.619039 0.017802 0.004680 -0.011935 -1.411449
 12   -2.022474 -0.104699 -2.873818 -1.090713 1.085085 -3.971316
 13   1.167898 -0.537463 0.063297 0.112400 -0.700204 -0.235208
 14   7.002743 -0.617765 -0.183752 0.000229 0.000250 -1.961567
 15   8.209042 0.615527 -0.255885 1.666872 0.765006 -0.200505
 16   7.002735 -0.617911 -0.183641 0.012932 0.011033 -1.391732
 17   1.574674 0.609930 -0.000899 0.125069 -0.230342 0.529828
 18   -0.602177 0.511412 -0.000006 0.000000 0.000000 0.000000
 19   3.673773 0.177020 1.119313 -0.000002 -0.000014 -0.174510
 20   3.673767 0.176993 -1.117566 0.000007 -0.000003 -0.174546
 21   3.942357 1.330634 1.627658 0.000002 -0.000011 -0.000026
 22   -0.246060 -0.011889 0.516521 -0.000011 0.000031 0.000025
 23   3.942374 1.330659 -1.631083 0.000019 0.000002 -0.000024
 24   -0.246150 -0.011872 -0.516511 -0.000005 -0.000006 0.000048
 25   4.941364 1.997338 1.629330 0.000018 -0.000001 -0.000024
 26   4.941382 1.997366 -1.629410 -0.000001 0.000005 -0.000024
 27   2.918368 1.615358 1.514501 -0.000019 -0.000022 -0.000050
 28   2.920798 1.614964 -1.501142 -0.000002 -0.000009 -0.000024
 29   8.824059 0.150544 0.091743 0.000006 -0.000231 -0.174534
 30   2.111085 -0.561179 1.784320 -0.000008 -0.000682 0.000024
 31   2.121290 -0.561289 -1.853599 0.000000 0.000000 -0.000002
 32   -0.810489 -0.093824 3.127092 -0.121567 -2.968938 -0.367205
 33   14.298673 -0.408176 0.475484 -0.000088 -0.000042 -0.520643
 34   15.835795 0.581398 0.242756 0.161674 -0.015252 0.063767
 35   -0.815868 -0.091229 -3.114430 0.089348 2.997251 -0.074721
 36   14.294526 -0.410349 -0.463635 0.000081 0.000060 -0.489585
 37   15.834409 0.579420 -0.284600 -0.088625 0.041326 0.325140
 38   1.139685 -3.453749 -2.823813 0.000000 0.000000 0.000001
 39   -4.457742 -1.054854 -0.746180 0.000000 0.000000 0.000000
 40   1.118101 -3.449769 3.237290 0.000000 0.000001 0.000000
 41   -4.433840 -1.059130 0.959566 -0.000001 0.000000 0.000000
 42   -0.657468 1.697302 -2.688614 0.000000 0.000002 0.000000
 43   -0.664068 1.698578 2.869377 0.000000 0.000002 0.000000
time 25
  0   0.001233 0.187506 0.562888 0.000000 0.000000 -1.571449
  1   -1.093036 0.000002 -0.326057 -1.570757 -1.570379 -0.000026
  2   2.262337 0.113614 0.064702 -0.000052 0.000061 -0.051551
  3   2.380047 0.353302 0.047440 -0.255152 0.058385 0.219135
  4   2.033756 0.190472 -0.000128 -0.000010 0.000024 0.243881
  5   2.451511 0.204909 -0.003447 0.000000 -0.000005 0.270451
  6   7.247600 -0.397300 -0.109469 0.000001 0.000009 -0.209345
  7   -2.022252 -0.104661 3.136172 0.832245 -1.238226 -3.737015
  8   1.168026 -0.537438 -0.063437 -0.226373 0.904617 -0.603504
  9   6.790376 -0.619176 0.015206 -0.000213 -0.000352 -1.994456
 10   8.637599 0.544015 -0.090417 -1.174701 -0.597886 -0.222218
 11   6.790465 -0.619039 0.017802 0.004680 -0.011935 -1.411449
 12   -2.022474 -0.104699 -2.873818 -1.102880 1.088046 -3.984816
 13   1.167898 -0.537463 0.063297 0.110572 -0.709358 -0.233271
 14   7.002743 -0.617765 -0.183752 0.000229 0.000250 -1.961567
 15   8.209042 0.615527 -0.255885 1.666872 0.765006 -0.200505
 16   7.002735 -0.617911 -0.183641 0.012932 0.011033 -1.391732
 17   1.574674 0.609930 -0.000899 0.125069 -0.230342 0.533783
 18   -0.602177 0.511412 -0.000006 0.000000 0.000000 0.000000
 19   3.673773 0.177020 1.119313 -0.000002 -0.000014 -0.174510
 20   3.673767 0.176993 -1.117566 0.000007 -0.000003 -0.174546
 21   3.942357 1.330634 1.627658 0.000002 -0.000011 -0.000026
 22   -0.246060 -0.011889 0.516521 -0.000011 0.000031 0.000025
 23   3.942374 1.330659 -1.631083 0.000019 0.000002 -0.000024
 24   -0.246150 -0.011872 -0.516511 -0.000005 -0.000006 0.000048
 25   4.941364 1.997338 1.629330 0.000018 -0.000001 -0.000024
 26   4.941382 1.997366 -1.629410 -0.000001 0.000005 -0.000024
 27   2.918368 1.615358 1.514501 -0.000019 -0.000022 -0.000050
 28   2.920798 1.614964 -1.501142 -0.000002 -0.000009 -0.000024
 29   8.824059 0.150544 0.091743 0.000006 -0.000231 -0.174534
 30   2.111085 -0.561179 1.784320 -0.000008 -0.000682 0.000024
 31   2.121290 -0.561289 -1.853599 0.000000 0.000000 -0.000002
 32   -0.810489 -0.093824 3.127092 -0.122592 -2.969988 -0.361114
 33   14.298673 -0.408176 0.475484 -0.000088 -0.000042 -0.509051
 34   15.835795 0.581398 0.242756 0.161674 -0.015081 0.058122
 35   -0.815868 -0.091229 -3.114430 0.090404 2.998000 -0.068476
 36   14.294526 -0.410349 -0.463635 0.000081 0.000060 -0.477303
 37   15.834409 0.579420 -0.284600 -0.088625 0.041173 0.318599
 38   1.139685 -3.453749 -2.823813 0.000000 0.000000 0.000001
 39   -4.457742 -1.054854 -0.746180 0.000000 0.000000 0.000000
 40   1.118101 -3.449769 3.237290 0.000000 0.000001 0.000000
 41   -4.433840 -1.059130 0.959566 -0.000001 0.000000 0.000000
 42   -0.657468 1.697302 -2.688614 0.000000 0.000002 0.000000
 43   -0.664068 1.698578 2.869377 0.000000 0.000002 0.000000
time 26
  0   0.001233 0.187506 0.637109 0.000000 0.000000 -1.571449
  1   -1.093036 0.000002 -0.326057 -1.570757 -1.570379 -0.000026
  2   2.262337 0.113614 0.064702 -0.000052 0.000061 -0.051551
  3   2.380047 0.353302 0.047440 -0.255152 0.058385 0.219135
  4   2.033756 0.190472 -0.000128 -0.000010 0.000024 0.243881
  5   2.451511 0.204909 -0.003447 0.000000 -0.000005 0.266612
  6   7.247600 -0.397300 -0.109469 0.000001 0.000009 -0.209345
  7   -2.022252 -0.104661 3.136172 0.845570 -1.242290 -3.751290
  8   1.168026 -0.537438 -0.063437 -0.228145 0.912315 -0.603947
  9   6.790376 -0.619176 0.015206 -0.000213 -0.000352 -1.994456
 10   8.637599 0.544015 -0.090417 -1.174701 -0.597886 -0.222218
 11   6.790465 -0.619039 0.017802 0.004680 -0.011935 -1.411449
 12   -2.022474 -0.104699 -2.873818 -1.114664 1.091151 -3.998219
 13   1.167898 -0.537463 0.063297 0.108885 -0.718461 -0.231213
 14   7.002743 -0.617765 -0.183752 0.000229 0.000250 -1.961567
 15   8.209042 0.615527 -0.255885 1.666872 0.765006 -0.200505
 16   7.002735 -0.617911 -0.183641 0.012932 0.011033 -1.391732
 17   1.574674 0.609930 -0.000899 0.125069 -0.230342 0.537664
 18   -0.602177 0.511412 -0.000006 0.000000 0.000000 0.000000
 19   3.673773 0.177020 1.119313 -0.000002 -0.000014 -0.174510
 20   3.673767 0.176993 -1.117566 0.000007 -0.000003 -0.174546
 21   3.942357 1.330634 1.627658 0.000002 -0.000011 -0.000026
 22   -0.246060 -0.011889 0.516521 -0.000011 0.000031 0.000025
 23   3.942374 1.330659 -1.631083 0.000019 0.000002 -0.000024
 24   -0.246150 -0.011872 -0.516511 -0.000005 -0.000006 0.000048
 25   4.941364 1.997338 1.629330 0.000018 -0.000001 -0.000024
 26   4.941382 1.997366 -1.629410 -0.000001 0.000005 -0.000024
 27   2.918368 1.615358 1.514501 -0.000019 -0.000022 -0.000050
 28   2.920798 1.614964 -1.501142 -0.000002 -0.000009 -0.000024
 29   8.824059 0.150544 0.091743 0.000006 -0.000231 -0.174534
 30   2.111085 -0.561179 1.784320 -0.000008 -0.000682 0.000024
 31   2.121290 -0.561289 -1.853599 0.000000 0.000000 -0.000002
 32   -0.810489 -0.093824 3.127092 -0.123990 -2.970943 -0.354284
 33   14.298673 -0.408176 0.475484 -0.000088 -0.000042 -0.495712
 34   15.835795 0.581398 0.242756 0.161743 -0.014886 0.051683
 35   -0.815868 -0.091229 -3.114430 0.091636 2.998749 -0.061684
 36   14.294526 -0.410349 -0.463635 0.000081 0.000060 -0.463013
 37   15.834409 0.579420 -0.284600 -0.088625 0.040943 0.311095
 38   1.139685 -3.453749 -2.823813 0.000000 0.000000 0.000001
 39   -4.457742 -1.054854 -0.746180 0.000000 0.000000 0.000000
 40   1.118101 -3.449769 3.237290 0.000000 0.000001 0.000000
 41   -4.433840 -1.059130 0.959566 -0.000001 0.000000 0.000000
 42   -0.657468 1.697302 -2.688614 0.000000 0.000002 0.000000
 43   -0.664068 1.698578 2.869377 0.000000 0.000002 0.000000
time 27
  0   0.001233 0.187506 0.699611 0.000000 0.000000 -1.571449
  1   -1.093036 0.000002 -0.326057 -1.570757 -1.570379 -0.000026
  2   2.262337 0.113614 0.064702 -0.000052 0.000061 -0.051551
  3   2.380047 0.353302 0.047440 -0.255152 0.058385 0.219135
  4   2.033756 0.190472 -0.000128 -0.000010 0.000024 0.243881
  5   2.451511 0.204909 -0.003447 0.000000 -0.000005 0.262848
  6   7.247600 -0.397300 -0.109469 0.000001 0.000009 -0.209345
  7   -2.022252 -0.104661 3.136172 0.859469 -1.246211 -3.765471
  8   1.168026 -0.537438 -0.063437 -0.229727 0.919963 -0.604453
  9   6.790376 -0.619176 0.015206 -0.000213 -0.000352 -1.994456
 10   8.637599 0.544015 -0.090417 -1.174701 -0.597886 -0.222218
 11   6.790465 -0.619039 0.017802 0.004680 -0.011935 -1.411449
 12   -2.022474 -0.104699 -2.873818 -1.126832 1.094199 -4.011623
 13   1.167898 -0.537463 0.063297 0.106987 -0.727309 -0.229397
 14   7.002743 -0.617765 -0.183752 0.000229 0.000250 -1.961567
 15   8.209042 0.615527 -0.255885 1.666872 0.765006 -0.200505
 16   7.002735 -0.617911 -0.183641 0.012932 0.011033 -1.391732
 17   1.574674 0.609930 -0.000899 0.125069 -0.230342 0.541360
 18   -0.602177 0.511412 -0.000006 0.000000 0.000000 0.000000
 19   3.673773 0.177020 1.119313 -0.000002 -0.000014 -0.174510
 20   3.673767 0.176993 -1.117566 0.000007 -0.000003 -0.174546
 21   3.942357 1.330634 1.627658 0.000002 -0.000011 -0.000026
 22   -0.246060 -0.011889 0.516521 -0.000011 0.000031 0.000025
 23   3.942374 1.330659 -1.631083 0.000019 0.000002 -0.000024
 24   -0.246150 -0.011872 -0.516511 -0.000005 -0.000006 0.000048
 25   4.941364 1.997338 1.629330 0.000018 -0.000001 -0.000024
 26   4.941382 1.997366 -1.629410 -0.000001 0.000005 -0.000024
 27   2.918368 1.615358 1.514501 -0.000019 -0.000022 -0.000050
 28   2.920798 1.614964 -1.501142 -0.000002 -0.000009 -0.000024
 29   8.824059 0.150544 0.091743 0.000006 -0.000231 -0.174534
 30   2.111085 -0.561179 1.784320 -0.000008 -0.000682 0.000024
 31   2.121290 -0.561289 -1.853599 0.000000 0.000000 -0.000002
 32   -0.810489 -0.093824 3.127092 -0.125388 -2.972090 -0.346998
 33   14.298673 -0.408176 0.475484 -0.000088 -0.000042 -0.480944
 34   15.835795 0.581398 0.242756 0.161858 -0.014642 0.044539
 35   -0.815868 -0.091229 -3.114430 0.092340 2.999686 -0.054125
 36   14.294526 -0.410349 -0.463635 0.000081 0.000060 -0.447255
 37   15.834409 0.579420 -0.284600 -0.088684 0.040687 0.303034
 38   1.139685 -3.453749 -2.823813 0.000000 0.000000 0.000001
 39   -4.457742 -1.054854 -0.746180 0.000000 0.000000 0.000000
 40   1.118101 -3.449769 3.237290 0.000000 0.000001 0.000000
 41   -4.433840 -1.059130 0.959566 -0.000001 0.000000 0.000000
 42   -0.657468 1.697302 -2.688614 0.000000 0.000002 0.000000
 43   -0.664068 1.698578 2.869377 0.000000 0.000002 0.000000
time 28
  0   0.001233 0.187506 0.766019 0.000000 0.000000 -1.571449
  1   -1.093036 0.000002 -0.326057 -1.570757 -1.570379 -0.000026
  2   2.262337 0.113614 0.064702 -0.000052 0.000061 -0.051551
  3   2.380047 0.353302 0.047440 -0.255152 0.058385 0.219135
  4   2.033756 0.190472 -0.000128 -0.000010 0.000024 0.243881
  5   2.451511 0.204909 -0.003447 0.000000 -0.000005 0.259158
  6   7.247600 -0.397300 -0.109469 0.000001 0.000009 -0.209345
  7   -2.022252 -0.104661 3.136172 0.872410 -1.250045 -3.779088
  8   1.168026 -0.537438 -0.063437 -0.231309 0.927661 -0.605149
  9   6.790376 -0.619176 0.015206 -0.000213 -0.000352 -1.994456
 10   8.637599 0.544015 -0.090417 -1.174701 -0.597886 -0.222218
 11   6.790465 -0.619039 0.017802 0.004680 -0.011935 -1.411449
 12   -2.022474 -0.104699 -2.873818 -1.138233 1.097014 -4.024357
 13   1.167898 -0.537463 0.063297 0.105160 -0.735852 -0.227278
 14   7.002743 -0.617765 -0.183752 0.000229 0.000250 -1.961567
 15   8.209042 0.615527 -0.255885 1.666872 0.765006 -0.200505
 16   7.002735 -0.617911 -0.183641 0.012932 0.011033 -1.391732
 17   1.574674 0.609930 -0.000899 0.125069 -0.230342 0.544982
 18   -0.602177 0.511412 -0.000006 0.000000 0.000000 0.000000
 19   3.673773 0.177020 1.119313 -0.000002 -0.000014 -0.174510
 20   3.673767 0.176993 -1.117566 0.000007 -0.000003 -0.174546
 21   3.942357 1.330634 1.627658 0.000002 -0.000011 -0.000026
 22   -0.246060 -0.011889 0.516521 -0.000011 0.000031 0.000025
 23   3.942374 1.330659 -1.631083 0.000019 0.000002 -0.000024
 24   -0.246150 -0.011872 -0.516511 -0.000005 -0.000006 0.000048
 25   4.941364 1.997338 1.629330 0.000018 -0.000001 -0.000024
 26   4.941382 1.997366 -1.629410 -0.000001 0.000005 -0.000024
 27   2.918368 1.615358 1.514501 -0.000019 -0.000022 -0.000050
 28   2.920798 1.614964 -1.501142 -0.000002 -0.000009 -0.000024
 29   8.824059 0.150544 0.091743 0.000006 -0.000231 -0.174534
 30   2.111085 -0.561179 1.784320 -0.000008 -0.000682 0.000024
 31   2.121290 -0.561289 -1.853599 0.000000 0.000000 -0.000002
 32   -0.810489 -0.093824 3.127092 -0.127066 -2.972949 -0.339484
 33   14.298673 -0.408176 0.475484 -0.000088 -0.000042 -0.466017
 34   15.835795 0.581398 0.242756 0.161973 -0.014398 0.037218
 35   -0.815868 -0.091229 -3.114430 0.093748 3.000904 -0.046347
 36   14.294526 -0.410349 -0.463635 0.000081 0.000060 -0.431343
 37   15.834409 0.579420 -0.284600 -0.088684 0.040431 0.294567
 38   1.139685 -3.453749 -2.823813 0.000000 0.000000 0.000001
 39   -4.457742 -1.054854 -0.746180 0.000000 0.000000 0.000000
 40   1.118101 -3.449769 3.237290 0.000000 0.000001 0.000000
 41   -4.433840 -1.059130 0.959566 -0.000001 0.000000 0.000000
 42   -0.657468 1.697302 -2.688614 0.000000 0.000002 0.000000
 43   -0.664068 1.698578 2.869377 0.000000 0.000002 0.000000
time 29
  0   0.001233 0.187506 0.824615 0.000000 0.000000 -1.571449
  1   -1.093036 0.000002 -0.326057 -1.570757 -1.570379 -0.000026
  2   2.262337 0.113614 0.064702 -0.000052 0.000061 -0.051551
  3   2.380047 0.353302 0.047440 -0.255152 0.058385 0.219135
  4   2.033756 0.190472 -0.000128 -0.000010 0.000024 0.243881
  5   2.451511 0.204909 -0.003447 0.000000 -0.000005 0.255839
  6   7.247600 -0.397300 -0.109469 0.000001 0.000009 -0.209345
  7   -2.022252 -0.104661 3.136172 0.885063 -1.253562 -3.792143
  8   1.168026 -0.537438 -0.063437 -0.232891 0.934554 -0.605402
  9   6.790376 -0.619176 0.015206 -0.000213 -0.000352 -1.994456
 10   8.637599 0.544015 -0.090417 -1.174701 -0.597886 -0.222218
 11   6.790465 -0.619039 0.017802 0.004680 -0.011935 -1.411449
 12   -2.022474 -0.104699 -2.873818 -1.148772 1.099597 -4.036612
 13   1.167898 -0.537463 0.063297 0.103472 -0.743887 -0.225583
 14   7.002743 -0.617765 -0.183752 0.000229 0.000250 -1.961567
 15   8.209042 0.615527 -0.255885 1.666872 0.765006 -0.200505
 16   7.002735 -0.617911 -0.183641 0.012932 0.011033 -1.391732
 17   1.574674 0.609930 -0.000899 0.125069 -0.230342 0.548457
 18   -0.602177 0.511412 -0.000006 0.000000 0.000000 0.000000
 19   3.673773 0.177020 1.119313 -0.000002 -0.000014 -0.174510
 20   3.673767 0.176993 -1.117566 0.000007 -0.000003 -0.174546
 21   3.942357 1.330634 1.627658 0.000002 -0.000011 -0.000026
 22   -0.246060 -0.011889 0.516521 -0.000011 0.000031 0.000025
 23   3.942374 1.330659 -1.631083 0.000019 0.000002 -0.000024
 24   -0.246150 -0.011872 -0.516511 -0.000005 -0.000006 0.000048
 25   4.941364 1.997338 1.629330 0.000018 -0.000001 -0.000024
 26   4.941382 1.997366 -1.629410 -0.000001 0.000005 -0.000024
 27   2.918368 1.615358 1.514501 -0.000019 -0.000022 -0.000050
 28   2.920798 1.614964 -1.501142 -0.000002 -0.000009 -0.000024
 29   8.824059 0.150544 0.091743 0.000006 -0.000231 -0.174534
 30   2.111085 -0.561179 1.784320 -0.000008 -0.000682 0.000024
 31   2.121290 -0.561289 -1.853599 0.000000 0.000000 -0.000002
 32   -0.810489 -0.093824 3.127092 -0.128091 -2.974191 -0.331572
 33   14.298673 -0.408176 0.475484 -0.000088 -0.000042 -0.450852
 34   15.835795 0.581398 0.242756 0.162042 -0.014178 0.029632
 35   -0.815868 -0.091229 -3.114430 0.095245 3.001841 -0.038678
 36   14.294526 -0.410349 -0.463635 0.000081 0.000060 -0.414890
 37   15.834409 0.579420 -0.284600 -0.088684 0.040226 0.286049
 38   1.139685 -3.453749 -2.823813 0.000000 0.000000 0.000001
 39   -4.457742 -1.054854 -0.746180 0.000000 0.000000 0.000000
 40   1.118101 -3.449769 3.237290 0.000000 0.000001 0.000000
 41   -4.433840 -1.059130 0.959566 -0.000001 0.000000 0.000000
 42   -0.657468 1.697302 -2.688614 0.000000 0.000002 0.000000
 43   -0.664068 1.698578 2.869377 0.000000 0.000002 0.000000
time 30
  0   0.001233 0.187506 0.867585 0.000000 0.000000 -1.571449
  1   -1.093036 0.000002 -0.326057 -1.570757 -1.570379 -0.000026
  2   2.262337 0.113614 0.064702 -0.000052 0.000061 -0.051551
  3   2.380047 0.353302 0.047440 -0.255152 0.058385 0.219135
  4   2.033756 0.190472 -0.000128 -0.000010 0.000024 0.243881
  5   2.451511 0.204909 -0.003447 0.000000 -0.000005 0.252719
  6   7.247600 -0.397300 -0.109469 0.000001 0.000009 -0.209345
  7   -2.022252 -0.104661 3.136172 0.897045 -1.256588 -3.804915
  8   1.168026 -0.537438 -0.063437 -0.234283 0.940944 -0.606161
  9   6.790376 -0.619176 0.015206 -0.000213 -0.000352 -1.994456
 10   8.637599 0.544015 -0.090417 -1.174701 -0.597886 -0.222218
 11   6.790465 -0.619039 0.017802 0.004680 -0.011935 -1.411449
 12   -2.022474 -0.104699 -2.873818 -1.158831 1.101687 -4.048005
 13   1.167898 -0.537463 0.063297 0.101856 -0.751108 -0.224009
 14   7.002743 -0.617765 -0.183752 0.000229 0.000250 -1.961567
 15   8.209042 0.615527 -0.255885 1.666872 0.765006 -0.200505
 16   7.002735 -0.617911 -0.183641 0.012932 0.011033 -1.391732
 17   1.574674 0.609930 -0.000899 0.125069 -0.230342 0.551525
 18   -0.602177 0.511412 -0.000006 0.000000 0.000000 0.000000
 19   3.673773 0.177020 1.119313 -0.000002 -0.000014 -0.174510
 20   3.673767 0.176993 -1.117566 0.000007 -0.000003 -0.174546
 21   3.942357 1.330634 1.627658 0.000002 -0.000011 -0.000026
 22   -0.246060 -0.011889 0.516521 -0.000011 0.000031 0.000025
 23   3.942374 1.330659 -1.631083 0.000019 0.000002 -0.000024
 24   -0.246150 -0.011872 -0.516511 -0.000005 -0.000006 0.000048
 25   4.941364 1.997338 1.629330 0.000018 -0.000001 -0.000024
 26   4.941382 1.997366 -1.629410 -0.000001 0.000005 -0.000024
 27   2.918368 1.615358 1.514501 -0.000019 -0.000022 -0.000050
 28   2.920798 1.614964 -1.501142 -0.000002 -0.000009 -0.000024
 29   8.824059 0.150544 0.091743 0.000006 -0.000231 -0.174534
 30   2.111085 -0.561179 1.784320 -0.000008 -0.000682 0.000024
 31   2.121290 -0.561289 -1.853599 0.000000 0.000000 -0.000002
 32   -0.810489 -0.093824 3.127092 -0.129583 -2.975432 -0.324172
 33   14.298673 -0.408176 0.475484 -0.000088 -0.000042 -0.436243
 34   15.835795 0.581398 0.242756 0.162134 -0.013934 0.022664
 35   -0.815868 -0.091229 -3.114430 0.096037 3.002497 -0.031283
 36   14.294526 -0.410349 -0.463635 0.000081 0.000060 -0.399441
 37   15.834409 0.579420 -0.284600 -0.088763 0.039970 0.278038
 38   1.139685 -3.453749 -2.823813 0.000000 0.000000 0.000001
 39   -4.457742 -1.054854 -0.746180 0.000000 0.000000 0.000000
 40   1.118101 -3.449769 3.237290 0.000000 0.000001 0.000000
 41   -4.433840 -1.059130 0.959566 -0.000001 0.000000 0.000000
 42   -0.657468 1.697302 -2.688614 0.000000 0.000002 0.000000
 43   -0.664068 1.698578 2.869377 0.000000 0.000002 0.000000
end
