version 1
nodes
  0 "Bip01" -1
  1 "Bip01 Pelvis" 0
  2 "Bip01 Spine" 1
  3 "Bip01 Spine1" 2
  4 "Bip01 Spine2" 3
  5 "Bip01 Spine3" 4
  6 "Bip01 Neck" 5
  7 "Bip01 L Arm" 6
  8 "Bip01 L Arm1" 7
  9 "Bip01 L Arm2" 8
 10 "Bip01 L Hand" 9
 11 "Bip06 L elbow2-smooth" 8
 12 "Bip01 R Arm" 6
 13 "Bip01 R Arm1" 12
 14 "Bip01 R Arm2" 13
 15 "Bip01 R Hand" 14
 16 "Bip06 R elbow2-smooth" 13
 17 "Bip01 Head" 6
 18 "Bip06 Head_helper" 17
 19 "Bip06 Head_eyes_l" 18
 20 "Bip06 Head_eyes_r" 18
 21 "Bip06 Head_blink_l" 18
 22 "Bip06 Head_blink_smooth_l1" 21
 23 "Bip06 Head_blink_r" 18
 24 "Bip06 Head_blink_smooth_r1" 23
 25 "Bip06 Head_L_eyebrow" 18
 26 "Bip06 Head_R_eyebrow" 18
 27 "Bip06 Head_blink_l_lid" 18
 28 "Bip06 Head_blink_r_lid" 18
 29 "Bip06 bunny" 18
 30 "Bip06 bunnyL" 29
 31 "Bip06 bunnyR" 29
 32 "Bip01 L Leg" 1
 33 "Bip01 L Leg1" 32
 34 "Bip01 L Foot" 33
 35 "Bip01 R Leg" 1
 36 "Bip01 R Leg1" 35
 37 "Bip01 R Foot" 36
 38 "Bip03 HairR1" 17
 39 "Bip03 HairR2" 38
 40 "Bip03 HairL1" 17
 41 "Bip03 HairL2" 40
 42 "Bip03 swingR" 17
 43 "Bip03 swingL" 17
end
skeleton
time 0
  0   -0.010486 -0.546892 1.863709 0.000000 0.000000 -1.571449
  1   -1.093036 0.000002 -0.326057 -1.570809 -1.570703 0.000022
  2   2.262337 0.113614 0.064702 -0.010230 -0.042736 -0.077157
  3   2.380047 0.353302 0.047440 -0.017356 0.054166 0.044076
  4   2.033756 0.190472 -0.000128 0.003568 -0.053847 -0.126527
  5   2.451511 0.204909 -0.003447 -0.158930 -0.035007 -0.096672
  6   7.247600 -0.397300 -0.109469 -0.016634 0.002238 0.459335
  7   -2.022252 -0.104661 3.136172 1.822266 -1.010238 -5.463803
  8   1.168026 -0.537438 -0.063437 -1.320049 1.047711 -1.193977
  9   6.790376 -0.619176 0.015206 -0.000102 -0.000151 -1.591535
 10   8.637599 0.544015 -0.090417 -2.893111 0.080044 0.504987
 11   6.790465 -0.619039 0.017802 0.002899 -0.011793 -1.129303
 12   -2.022474 -0.104699 -2.873818 -2.302289 1.868006 -5.924913
 13   1.167898 -0.537463 0.063297 -1.514769 -0.587056 0.451559
 14   7.002743 -0.617765 -0.183752 0.000172 0.000194 -1.972870
 15   8.209042 0.615527 -0.255885 1.150177 0.742005 -1.135279
 16   7.002735 -0.617911 -0.183641 0.012838 0.010977 -1.399679
 17   1.574674 0.609930 -0.000899 0.179744 0.134294 -0.556197
 18   -0.602177 0.511412 -0.000006 0.000000 0.000000 0.000000
 19   3.673773 0.177020 1.119313 -0.000002 -0.000014 -0.174510
 20   3.673767 0.176993 -1.117566 0.000007 -0.000003 -0.174546
 21   3.942357 1.330634 1.627658 0.000002 -0.000011 -0.000026
 22   -0.246060 -0.011889 0.516521 -0.000011 0.000031 0.000025
 23   3.942374 1.330659 -1.631083 0.000019 0.000002 -0.000024
 24   -0.246150 -0.011872 -0.516511 -0.000005 -0.000006 0.000048
 25   4.941364 1.997338 1.629330 0.000018 -0.000001 -0.000024
 26   4.941382 1.997366 -1.629410 -0.000001 0.000005 -0.000024
 27   2.918368 1.615358 1.514501 -0.000019 -0.000022 -0.000050
 28   2.920798 1.614964 -1.501142 -0.000002 -0.000009 -0.000024
 29   8.824059 0.150544 0.091743 0.000006 -0.000231 -0.174534
 30   2.111085 -0.561179 1.784320 -0.000008 -0.000682 0.000024
 31   2.121290 -0.561289 -1.853599 0.000000 0.000000 -0.000002
 32   -0.810489 -0.093824 3.127092 0.262828 -3.097583 -0.334759
 33   14.298673 -0.408176 0.475484 0.003675 -0.003118 -0.522390
 34   15.835795 0.581398 0.242756 -0.001248 0.032043 0.122292
 35   -0.815868 -0.091229 -3.114430 -0.132801 3.034913 -0.011454
 36   14.294526 -0.410349 -0.463635 -0.002676 0.001869 -0.384687
 37   15.834409 0.579420 -0.284600 -0.034108 0.026558 0.304555
 38   1.139685 -3.453749 -2.823813 0.000000 0.000000 0.000001
 39   -4.457742 -1.054854 -0.746180 0.000000 0.000000 0.000000
 40   1.118101 -3.449769 3.237290 0.000000 0.000001 0.000000
 41   -4.433840 -1.059130 0.959566 -0.000001 0.000000 0.000000
 42   -0.657468 1.697302 -2.688614 0.000000 0.000002 0.000000
 43   -0.664068 1.698578 2.869377 0.000000 0.000002 0.000000
time 1
  0   -0.010486 -0.546892 1.863709 0.000000 0.000000 -1.571449
  1   -1.093036 0.000002 -0.326057 -1.570809 -1.570703 0.000022
  2   2.262337 0.113614 0.064702 -0.010230 -0.042736 -0.077157
  3   2.380047 0.353302 0.047440 -0.044253 0.051038 0.041260
  4   2.033756 0.190472 -0.000128 -0.029666 -0.018288 -0.126962
  5   2.451511 0.204909 -0.003447 -0.230547 -0.018100 -0.102269
  6   7.247600 -0.397300 -0.109469 -0.016634 0.002238 0.459335
  7   -2.022252 -0.104661 3.136172 1.822266 -1.010238 -5.463803
  8   1.168026 -0.537438 -0.063437 -1.437814 1.260641 -1.543617
  9   6.790376 -0.619176 0.015206 -0.000102 -0.000151 -1.914762
 10   8.637599 0.544015 -0.090417 -2.757491 -0.356940 0.766367
 11   6.790465 -0.619039 0.017802 0.004388 -0.011850 -1.355562
 12   -2.022474 -0.104699 -2.873818 1.102120 0.973111 -2.577517
 13   1.167898 -0.537463 0.063297 -1.637573 -0.223102 0.054451
 14   7.002743 -0.617765 -0.183752 0.000172 0.000194 -1.958597
 15   8.209042 0.615527 -0.255885 1.142843 0.692827 -1.412091
 16   7.002735 -0.617911 -0.183641 0.012838 0.010864 -1.389855
 17   1.574674 0.609930 -0.000899 0.215896 -0.006571 -0.430049
 18   -0.602177 0.511412 -0.000006 0.000000 0.000000 0.000000
 19   3.673773 0.177020 1.119313 -0.000002 -0.000014 -0.174510
 20   3.673767 0.176993 -1.117566 0.000007 -0.000003 -0.174546
 21   3.942357 1.330634 1.627658 0.000002 -0.000011 -0.000026
 22   -0.246060 -0.011889 0.516521 -0.000011 0.000031 0.000025
 23   3.942374 1.330659 -1.631083 0.000019 0.000002 -0.000024
 24   -0.246150 -0.011872 -0.516511 -0.000005 -0.000006 0.000048
 25   4.941364 1.997338 1.629330 0.000018 -0.000001 -0.000024
 26   4.941382 1.997366 -1.629410 -0.000001 0.000005 -0.000024
 27   2.918368 1.615358 1.514501 -0.000019 -0.000022 -0.000050
 28   2.920798 1.614964 -1.501142 -0.000002 -0.000009 -0.000024
 29   8.824059 0.150544 0.091743 0.000006 -0.000231 -0.174534
 30   2.111085 -0.561179 1.784320 -0.000008 -0.000682 0.000024
 31   2.121290 -0.561289 -1.853599 0.000000 0.000000 -0.000002
 32   -0.810489 -0.093824 3.127092 0.262828 -3.097583 -0.334759
 33   14.298673 -0.408176 0.475484 0.003675 -0.003118 -0.522390
 34   15.835795 0.581398 0.242756 -0.001248 0.032043 0.122292
 35   -0.815868 -0.091229 -3.114430 -0.132801 3.034913 -0.011454
 36   14.294526 -0.410349 -0.463635 -0.002676 0.001869 -0.384687
 37   15.834409 0.579420 -0.284600 -0.034108 0.026558 0.304555
 38   1.139685 -3.453749 -2.823813 0.000000 0.000000 0.000001
 39   -4.457742 -1.054854 -0.746180 0.000000 0.000000 0.000000
 40   1.118101 -3.449769 3.237290 0.000000 0.000001 0.000000
 41   -4.433840 -1.059130 0.959566 -0.000001 0.000000 0.000000
 42   -0.657468 1.697302 -2.688614 0.000000 0.000002 0.000000
 43   -0.664068 1.698578 2.869377 0.000000 0.000002 0.000000
time 2
  0   -0.010486 -0.546892 1.863709 0.000000 0.000000 -1.571449
  1   -1.093036 0.000002 -0.326057 -1.570809 -1.570703 0.000022
  2   2.262337 0.113614 0.064702 -0.010230 -0.042736 -0.077157
  3   2.380047 0.353302 0.047440 -0.060244 0.049205 0.039648
  4   2.033756 0.190472 -0.000128 -0.049676 0.002828 -0.127868
  5   2.451511 0.204909 -0.003447 -0.273459 -0.008139 -0.106207
  6   7.247600 -0.397300 -0.109469 -0.016634 0.002238 0.459335
  7   -2.022252 -0.104661 3.136172 1.822266 -1.010238 -5.463803
  8   1.168026 -0.537438 -0.063437 -1.436232 1.257471 -1.458785
  9   6.790376 -0.619176 0.015206 -0.000102 -0.000151 -1.986758
 10   8.637599 0.544015 -0.090417 -2.705709 -0.373059 0.864321
 11   6.790465 -0.619039 0.017802 0.004738 -0.011850 -1.405912
 12   -2.022474 -0.104699 -2.873818 -2.074555 2.063975 -5.729697
 13   1.167898 -0.537463 0.063297 -1.568052 -0.353234 0.035746
 14   7.002743 -0.617765 -0.183752 0.000172 0.000194 -1.947541
 15   8.209042 0.615527 -0.255885 1.212302 0.704403 -1.351533
 16   7.002735 -0.617911 -0.183641 0.012885 0.010751 -1.381852
 17   1.574674 0.609930 -0.000899 0.311313 -0.016062 -0.448937
 18   -0.602177 0.511412 -0.000006 0.000000 0.000000 0.000000
 19   3.673773 0.177020 1.119313 -0.000002 -0.000014 -0.174510
 20   3.673767 0.176993 -1.117566 0.000007 -0.000003 -0.174546
 21   3.942357 1.330634 1.627658 0.000002 -0.000011 -0.000026
 22   -0.246060 -0.011889 0.516521 -0.000011 0.000031 0.000025
 23   3.942374 1.330659 -1.631083 0.000019 0.000002 -0.000024
 24   -0.246150 -0.011872 -0.516511 -0.000005 -0.000006 0.000048
 25   4.941364 1.997338 1.629330 0.000018 -0.000001 -0.000024
 26   4.941382 1.997366 -1.629410 -0.000001 0.000005 -0.000024
 27   2.918368 1.615358 1.514501 -0.000019 -0.000022 -0.000050
 28   2.920798 1.614964 -1.501142 -0.000002 -0.000009 -0.000024
 29   8.824059 0.150544 0.091743 0.000006 -0.000231 -0.174534
 30   2.111085 -0.561179 1.784320 -0.000008 -0.000682 0.000024
 31   2.121290 -0.561289 -1.853599 0.000000 0.000000 -0.000002
 32   -0.810489 -0.093824 3.127092 0.262828 -3.097583 -0.334759
 33   14.298673 -0.408176 0.475484 0.003675 -0.003118 -0.522390
 34   15.835795 0.581398 0.242756 -0.001248 0.032043 0.122292
 35   -0.815868 -0.091229 -3.114430 -0.132801 3.034913 -0.011454
 36   14.294526 -0.410349 -0.463635 -0.002676 0.001869 -0.384687
 37   15.834409 0.579420 -0.284600 -0.034108 0.026558 0.304555
 38   1.139685 -3.453749 -2.823813 0.000000 0.000000 0.000001
 39   -4.457742 -1.054854 -0.746180 0.000000 0.000000 0.000000
 40   1.118101 -3.449769 3.237290 0.000000 0.000001 0.000000
 41   -4.433840 -1.059130 0.959566 -0.000001 0.000000 0.000000
 42   -0.657468 1.697302 -2.688614 0.000000 0.000002 0.000000
 43   -0.664068 1.698578 2.869377 0.000000 0.000002 0.000000
time 3
  0   -0.010486 -0.546892 1.863709 0.000000 0.000000 -1.571449
  1   -1.093036 0.000002 -0.326057 -1.570809 -1.570703 0.000022
  2   2.262337 0.113614 0.064702 -0.010230 -0.042736 -0.077157
  3   2.380047 0.353302 0.047440 -0.056794 0.049552 0.039995
  4   2.033756 0.190472 -0.000128 -0.045139 -0.001917 -0.127542
  5   2.451511 0.204909 -0.003447 -0.263497 -0.010776 -0.105117
  6   7.247600 -0.397300 -0.109469 -0.016634 0.002238 0.459335
  7   -2.022252 -0.104661 3.136172 1.822266 -1.010238 -5.463803
  8   1.168026 -0.537438 -0.063437 -1.370104 1.174352 -1.259325
  9   6.790376 -0.619176 0.015206 -0.000102 -0.000151 -1.943968
 10   8.637599 0.544015 -0.090417 -2.707470 -0.230378 0.897744
 11   6.790465 -0.619039 0.017802 0.004534 -0.011850 -1.376094
 12   -2.022474 -0.104699 -2.873818 -2.159728 1.923587 -5.789918
 13   1.167898 -0.537463 0.063297 -1.479692 -0.534118 0.141379
 14   7.002743 -0.617765 -0.183752 0.000172 0.000194 -1.938218
 15   8.209042 0.615527 -0.255885 1.290676 0.709321 -1.235167
 16   7.002735 -0.617911 -0.183641 0.012885 0.010751 -1.375339
 17   1.574674 0.609930 -0.000899 0.327601 0.028101 -0.483347
 18   -0.602177 0.511412 -0.000006 0.000000 0.000000 0.000000
 19   3.673773 0.177020 1.119313 -0.000002 -0.000014 -0.174510
 20   3.673767 0.176993 -1.117566 0.000007 -0.000003 -0.174546
 21   3.942357 1.330634 1.627658 0.000002 -0.000011 -0.000026
 22   -0.246060 -0.011889 0.516521 -0.000011 0.000031 0.000025
 23   3.942374 1.330659 -1.631083 0.000019 0.000002 -0.000024
 24   -0.246150 -0.011872 -0.516511 -0.000005 -0.000006 0.000048
 25   4.941364 1.997338 1.629330 0.000018 -0.000001 -0.000024
 26   4.941382 1.997366 -1.629410 -0.000001 0.000005 -0.000024
 27   2.918368 1.615358 1.514501 -0.000019 -0.000022 -0.000050
 28   2.920798 1.614964 -1.501142 -0.000002 -0.000009 -0.000024
 29   8.824059 0.150544 0.091743 0.000006 -0.000231 -0.174534
 30   2.111085 -0.561179 1.784320 -0.000008 -0.000682 0.000024
 31   2.121290 -0.561289 -1.853599 0.000000 0.000000 -0.000002
 32   -0.810489 -0.093824 3.127092 0.262828 -3.097583 -0.334759
 33   14.298673 -0.408176 0.475484 0.003675 -0.003118 -0.522390
 34   15.835795 0.581398 0.242756 -0.001248 0.032043 0.122292
 35   -0.815868 -0.091229 -3.114430 -0.132801 3.034913 -0.011454
 36   14.294526 -0.410349 -0.463635 -0.002676 0.001869 -0.384687
 37   15.834409 0.579420 -0.284600 -0.034108 0.026558 0.304555
 38   1.139685 -3.453749 -2.823813 0.000000 0.000000 0.000001
 39   -4.457742 -1.054854 -0.746180 0.000000 0.000000 0.000000
 40   1.118101 -3.449769 3.237290 0.000000 0.000001 0.000000
 41   -4.433840 -1.059130 0.959566 -0.000001 0.000000 0.000000
 42   -0.657468 1.697302 -2.688614 0.000000 0.000002 0.000000
 43   -0.664068 1.698578 2.869377 0.000000 0.000002 0.000000
time 4
  0   -0.010486 -0.546892 1.863709 0.000000 0.000000 -1.571449
  1   -1.093036 0.000002 -0.326057 -1.570809 -1.570703 0.000022
  2   2.262337 0.113614 0.064702 -0.010230 -0.042736 -0.077157
  3   2.380047 0.353302 0.047440 -0.047958 0.050667 0.040852
  4   2.033756 0.190472 -0.000128 -0.034000 -0.014070 -0.126998
  5   2.451511 0.204909 -0.003447 -0.239054 -0.017225 -0.102690
  6   7.247600 -0.397300 -0.109469 -0.016634 0.002238 0.459335
  7   -2.022252 -0.104661 3.136172 1.822266 -1.010238 -5.463803
  8   1.168026 -0.537438 -0.063437 -1.300622 1.172138 -1.144887
  9   6.790376 -0.619176 0.015206 -0.000102 -0.000151 -1.898159
 10   8.637599 0.544015 -0.090417 -2.752471 -0.169842 0.866347
 11   6.790465 -0.619039 0.017802 0.004330 -0.011850 -1.344027
 12   -2.022474 -0.104699 -2.873818 -2.207919 1.887974 -5.832715
 13   1.167898 -0.537463 0.063297 -1.472663 -0.580852 0.224433
 14   7.002743 -0.617765 -0.183752 0.000172 0.000194 -1.930215
 15   8.209042 0.615527 -0.255885 1.353375 0.684202 -1.160116
 16   7.002735 -0.617911 -0.183641 0.012932 0.010695 -1.369820
 17   1.574674 0.609930 -0.000899 0.316268 0.081256 -0.521011
 18   -0.602177 0.511412 -0.000006 0.000000 0.000000 0.000000
 19   3.673773 0.177020 1.119313 -0.000002 -0.000014 -0.174510
 20   3.673767 0.176993 -1.117566 0.000007 -0.000003 -0.174546
 21   3.942357 1.330634 1.627658 0.000002 -0.000011 -0.000026
 22   -0.246060 -0.011889 0.516521 -0.000011 0.000031 0.000025
 23   3.942374 1.330659 -1.631083 0.000019 0.000002 -0.000024
 24   -0.246150 -0.011872 -0.516511 -0.000005 -0.000006 0.000048
 25   4.941364 1.997338 1.629330 0.000018 -0.000001 -0.000024
 26   4.941382 1.997366 -1.629410 -0.000001 0.000005 -0.000024
 27   2.918368 1.615358 1.514501 -0.000019 -0.000022 -0.000050
 28   2.920798 1.614964 -1.501142 -0.000002 -0.000009 -0.000024
 29   8.824059 0.150544 0.091743 0.000006 -0.000231 -0.174534
 30   2.111085 -0.561179 1.784320 -0.000008 -0.000682 0.000024
 31   2.121290 -0.561289 -1.853599 0.000000 0.000000 -0.000002
 32   -0.810489 -0.093824 3.127092 0.262828 -3.097583 -0.334759
 33   14.298673 -0.408176 0.475484 0.003675 -0.003118 -0.522390
 34   15.835795 0.581398 0.242756 -0.001248 0.032043 0.122292
 35   -0.815868 -0.091229 -3.114430 -0.132801 3.034913 -0.011454
 36   14.294526 -0.410349 -0.463635 -0.002676 0.001869 -0.384687
 37   15.834409 0.579420 -0.284600 -0.034108 0.026558 0.304555
 38   1.139685 -3.453749 -2.823813 0.000000 0.000000 0.000001
 39   -4.457742 -1.054854 -0.746180 0.000000 0.000000 0.000000
 40   1.118101 -3.449769 3.237290 0.000000 0.000001 0.000000
 41   -4.433840 -1.059130 0.959566 -0.000001 0.000000 0.000000
 42   -0.657468 1.697302 -2.688614 0.000000 0.000002 0.000000
 43   -0.664068 1.698578 2.869377 0.000000 0.000002 0.000000
time 5
  0   -0.010486 -0.546892 1.863709 0.000000 0.000000 -1.571449
  1   -1.093036 0.000002 -0.326057 -1.570809 -1.570703 0.000022
  2   2.262337 0.113614 0.064702 -0.010230 -0.042736 -0.077157
  3   2.380047 0.353302 0.047440 -0.036677 0.051925 0.042015
  4   2.033756 0.190472 -0.000128 -0.019762 -0.029338 -0.126527
  5   2.451511 0.204909 -0.003447 -0.208004 -0.025059 -0.099941
  6   7.247600 -0.397300 -0.109469 -0.016634 0.002238 0.459335
  7   -2.022252 -0.104661 3.136172 1.822266 -1.010238 -5.463803
  8   1.168026 -0.537438 -0.063437 -1.197412 1.183308 -1.023174
  9   6.790376 -0.619176 0.015206 -0.000102 -0.000151 -1.842238
 10   8.637599 0.544015 -0.090417 -2.820017 -0.124933 0.813608
 11   6.790465 -0.619039 0.017802 0.004067 -0.011850 -1.304808
 12   -2.022474 -0.104699 -2.873818 -2.247679 1.874333 -5.871202
 13   1.167898 -0.537463 0.063297 -1.487917 -0.598244 0.315719
 14   7.002743 -0.617765 -0.183752 0.000172 0.000194 -1.922542
 15   8.209042 0.615527 -0.255885 1.410322 0.647885 -1.090477
 16   7.002735 -0.617911 -0.183641 0.012932 0.010582 -1.364466
 17   1.574674 0.609930 -0.000899 0.275811 0.117254 -0.546625
 18   -0.602177 0.511412 -0.000006 0.000000 0.000000 0.000000
 19   3.673773 0.177020 1.119313 -0.000002 -0.000014 -0.174510
 20   3.673767 0.176993 -1.117566 0.000007 -0.000003 -0.174546
 21   3.942357 1.330634 1.627658 0.000002 -0.000011 -0.000026
 22   -0.246060 -0.011889 0.516521 -0.000011 0.000031 0.000025
 23   3.942374 1.330659 -1.631083 0.000019 0.000002 -0.000024
 24   -0.246150 -0.011872 -0.516511 -0.000005 -0.000006 0.000048
 25   4.941364 1.997338 1.629330 0.000018 -0.000001 -0.000024
 26   4.941382 1.997366 -1.629410 -0.000001 0.000005 -0.000024
 27   2.918368 1.615358 1.514501 -0.000019 -0.000022 -0.000050
 28   2.920798 1.614964 -1.501142 -0.000002 -0.000009 -0.000024
 29   8.824059 0.150544 0.091743 0.000006 -0.000231 -0.174534
 30   2.111085 -0.561179 1.784320 -0.000008 -0.000682 0.000024
 31   2.121290 -0.561289 -1.853599 0.000000 0.000000 -0.000002
 32   -0.810489 -0.093824 3.127092 0.262828 -3.097583 -0.334759
 33   14.298673 -0.408176 0.475484 0.003675 -0.003118 -0.522390
 34   15.835795 0.581398 0.242756 -0.001248 0.032043 0.122292
 35   -0.815868 -0.091229 -3.114430 -0.132801 3.034913 -0.011454
 36   14.294526 -0.410349 -0.463635 -0.002676 0.001869 -0.384687
 37   15.834409 0.579420 -0.284600 -0.034108 0.026558 0.304555
 38   1.139685 -3.453749 -2.823813 0.000000 0.000000 0.000001
 39   -4.457742 -1.054854 -0.746180 0.000000 0.000000 0.000000
 40   1.118101 -3.449769 3.237290 0.000000 0.000001 0.000000
 41   -4.433840 -1.059130 0.959566 -0.000001 0.000000 0.000000
 42   -0.657468 1.697302 -2.688614 0.000000 0.000002 0.000000
 43   -0.664068 1.698578 2.869377 0.000000 0.000002 0.000000
time 6
  0   -0.010486 -0.546892 1.863709 0.000000 0.000000 -1.571449
  1   -1.093036 0.000002 -0.326057 -1.570809 -1.570703 0.000022
  2   2.262337 0.113614 0.064702 -0.010230 -0.042736 -0.077157
  3   2.380047 0.353302 0.047440 -0.025652 0.053207 0.043178
  4   2.033756 0.190472 -0.000128 -0.006041 -0.043923 -0.126382
  5   2.451511 0.204909 -0.003447 -0.178700 -0.031769 -0.097687
  6   7.247600 -0.397300 -0.109469 -0.016634 0.002238 0.459335
  7   -2.022252 -0.104661 3.136172 1.822266 -1.010238 -5.463803
  8   1.168026 -0.537438 -0.063437 -1.082811 1.193723 -0.908736
  9   6.790376 -0.619176 0.015206 -0.000102 -0.000151 -1.787901
 10   8.637599 0.544015 -0.090417 -2.890469 -0.095369 0.761954
 11   6.790465 -0.619039 0.017802 0.003804 -0.011850 -1.266685
 12   -2.022474 -0.104699 -2.873818 -2.277666 1.871518 -5.901073
 13   1.167898 -0.537463 0.063297 -1.509848 -0.600177 0.398531
 14   7.002743 -0.617765 -0.183752 0.000172 0.000194 -1.915859
 15   8.209042 0.615527 -0.255885 1.456196 0.610207 -1.033406
 16   7.002735 -0.617911 -0.183641 0.012932 0.010582 -1.359830
 17   1.574674 0.609930 -0.000899 0.223776 0.134294 -0.558378
 18   -0.602177 0.511412 -0.000006 0.000000 0.000000 0.000000
 19   3.673773 0.177020 1.119313 -0.000002 -0.000014 -0.174510
 20   3.673767 0.176993 -1.117566 0.000007 -0.000003 -0.174546
 21   3.942357 1.330634 1.627658 0.000002 -0.000011 -0.000026
 22   -0.246060 -0.011889 0.516521 -0.000011 0.000031 0.000025
 23   3.942374 1.330659 -1.631083 0.000019 0.000002 -0.000024
 24   -0.246150 -0.011872 -0.516511 -0.000005 -0.000006 0.000048
 25   4.941364 1.997338 1.629330 0.000018 -0.000001 -0.000024
 26   4.941382 1.997366 -1.629410 -0.000001 0.000005 -0.000024
 27   2.918368 1.615358 1.514501 -0.000019 -0.000022 -0.000050
 28   2.920798 1.614964 -1.501142 -0.000002 -0.000009 -0.000024
 29   8.824059 0.150544 0.091743 0.000006 -0.000231 -0.174534
 30   2.111085 -0.561179 1.784320 -0.000008 -0.000682 0.000024
 31   2.121290 -0.561289 -1.853599 0.000000 0.000000 -0.000002
 32   -0.810489 -0.093824 3.127092 0.262828 -3.097583 -0.334759
 33   14.298673 -0.408176 0.475484 0.003675 -0.003118 -0.522390
 34   15.835795 0.581398 0.242756 -0.001248 0.032043 0.122292
 35   -0.815868 -0.091229 -3.114430 -0.132801 3.034913 -0.011454
 36   14.294526 -0.410349 -0.463635 -0.002676 0.001869 -0.384687
 37   15.834409 0.579420 -0.284600 -0.034108 0.026558 0.304555
 38   1.139685 -3.453749 -2.823813 0.000000 0.000000 0.000001
 39   -4.457742 -1.054854 -0.746180 0.000000 0.000000 0.000000
 40   1.118101 -3.449769 3.237290 0.000000 0.000001 0.000000
 41   -4.433840 -1.059130 0.959566 -0.000001 0.000000 0.000000
 42   -0.657468 1.697302 -2.688614 0.000000 0.000002 0.000000
 43   -0.664068 1.698578 2.869377 0.000000 0.000002 0.000000
time 7
  0   -0.010486 -0.546892 1.863709 0.000000 0.000000 -1.571449
  1   -1.093036 0.000002 -0.326057 -1.570809 -1.570703 0.000022
  2   2.262337 0.113614 0.064702 -0.010230 -0.042736 -0.077157
  3   2.380047 0.353302 0.047440 -0.017356 0.054166 0.044076
  4   2.033756 0.190472 -0.000128 0.003568 -0.053847 -0.126527
  5   2.451511 0.204909 -0.003447 -0.158930 -0.035007 -0.096672
  6   7.247600 -0.397300 -0.109469 -0.016634 0.002238 0.459335
  7   -2.022252 -0.104661 3.136172 1.822266 -1.010238 -5.463803
  8   1.168026 -0.537438 -0.063437 -0.997129 1.198201 -0.828205
  9   6.790376 -0.619176 0.015206 -0.000102 -0.000151 -1.748281
 10   8.637599 0.544015 -0.090417 -2.941370 -0.077349 0.725999
 11   6.790465 -0.619039 0.017802 0.003629 -0.011850 -1.239116
 12   -2.022474 -0.104699 -2.873818 -2.302289 1.868006 -5.924913
 13   1.167898 -0.537463 0.063297 -1.523767 -0.601600 0.456947
 14   7.002743 -0.617765 -0.183752 0.000172 0.000194 -1.910826
 15   8.209042 0.615527 -0.255885 1.487977 0.581532 -0.993054
 16   7.002735 -0.617911 -0.183641 0.012932 0.010582 -1.356132
 17   1.574674 0.609930 -0.000899 0.187462 0.143264 -0.566916
 18   -0.602177 0.511412 -0.000006 0.000000 0.000000 0.000000
 19   3.673773 0.177020 1.119313 -0.000002 -0.000014 -0.174510
 20   3.673767 0.176993 -1.117566 0.000007 -0.000003 -0.174546
 21   3.942357 1.330634 1.627658 0.000002 -0.000011 -0.000026
 22   -0.246060 -0.011889 0.516521 -0.000011 0.000031 0.000025
 23   3.942374 1.330659 -1.631083 0.000019 0.000002 -0.000024
 24   -0.246150 -0.011872 -0.516511 -0.000005 -0.000006 0.000048
 25   4.941364 1.997338 1.629330 0.000018 -0.000001 -0.000024
 26   4.941382 1.997366 -1.629410 -0.000001 0.000005 -0.000024
 27   2.918368 1.615358 1.514501 -0.000019 -0.000022 -0.000050
 28   2.920798 1.614964 -1.501142 -0.000002 -0.000009 -0.000024
 29   8.824059 0.150544 0.091743 0.000006 -0.000231 -0.174534
 30   2.111085 -0.561179 1.784320 -0.000008 -0.000682 0.000024
 31   2.121290 -0.561289 -1.853599 0.000000 0.000000 -0.000002
 32   -0.810489 -0.093824 3.127092 0.262828 -3.097583 -0.334759
 33   14.298673 -0.408176 0.475484 0.003675 -0.003118 -0.522390
 34   15.835795 0.581398 0.242756 -0.001248 0.032043 0.122292
 35   -0.815868 -0.091229 -3.114430 -0.132801 3.034913 -0.011454
 36   14.294526 -0.410349 -0.463635 -0.002676 0.001869 -0.384687
 37   15.834409 0.579420 -0.284600 -0.034108 0.026558 0.304555
 38   1.139685 -3.453749 -2.823813 0.000000 0.000000 0.000001
 39   -4.457742 -1.054854 -0.746180 0.000000 0.000000 0.000000
 40   1.118101 -3.449769 3.237290 0.000000 0.000001 0.000000
 41   -4.433840 -1.059130 0.959566 -0.000001 0.000000 0.000000
 42   -0.657468 1.697302 -2.688614 0.000000 0.000002 0.000000
 43   -0.664068 1.698578 2.869377 0.000000 0.000002 0.000000
time 8
  0   -0.010486 -0.546892 1.863709 0.000000 0.000000 -1.571449
  1   -1.093036 0.000002 -0.326057 -1.570809 -1.570703 0.000022
  2   2.262337 0.113614 0.064702 -0.010230 -0.042736 -0.077157
  3   2.380047 0.353302 0.047440 -0.013876 0.054646 0.044423
  4   2.033756 0.190472 -0.000128 0.006279 -0.054686 -0.126962
  5   2.451511 0.204909 -0.003447 -0.157749 -0.029276 -0.097885
  6   7.247600 -0.397300 -0.109469 -0.016634 0.002238 0.459335
  7   -2.022252 -0.104661 3.136172 1.822266 -1.010238 -5.463803
  8   1.168026 -0.537438 -0.063437 -0.956313 1.213899 -0.786390
  9   6.790376 -0.619176 0.015206 -0.000102 -0.000151 -1.736885
 10   8.637599 0.544015 -0.090417 -2.962858 -0.074745 0.696193
 11   6.790465 -0.619039 0.017802 0.003512 -0.011793 -1.231041
 12   -2.022474 -0.104699 -2.873818 -2.312828 1.864668 -5.935062
 13   1.167898 -0.537463 0.063297 -1.520463 -0.599414 0.467722
 14   7.002743 -0.617765 -0.183752 0.000172 0.000194 -1.910991
 15   8.209042 0.615527 -0.255885 1.497396 0.571696 -0.969180
 16   7.002735 -0.617911 -0.183641 0.012932 0.010582 -1.356353
 17   1.574674 0.609930 -0.000899 0.182791 0.137915 -0.569466
 18   -0.602177 0.511412 -0.000006 0.000000 0.000000 0.000000
 19   3.673773 0.177020 1.119313 -0.000002 -0.000014 -0.174510
 20   3.673767 0.176993 -1.117566 0.000007 -0.000003 -0.174546
 21   3.942357 1.330634 1.627658 0.000002 -0.000011 -0.000026
 22   -0.246060 -0.011889 0.516521 -0.000011 0.000031 0.000025
 23   3.942374 1.330659 -1.631083 0.000019 0.000002 -0.000024
 24   -0.246150 -0.011872 -0.516511 -0.000005 -0.000006 0.000048
 25   4.941364 1.997338 1.629330 0.000018 -0.000001 -0.000024
 26   4.941382 1.997366 -1.629410 -0.000001 0.000005 -0.000024
 27   2.918368 1.615358 1.514501 -0.000019 -0.000022 -0.000050
 28   2.920798 1.614964 -1.501142 -0.000002 -0.000009 -0.000024
 29   8.824059 0.150544 0.091743 0.000006 -0.000231 -0.174534
 30   2.111085 -0.561179 1.784320 -0.000008 -0.000682 0.000024
 31   2.121290 -0.561289 -1.853599 0.000000 0.000000 -0.000002
 32   -0.810489 -0.093824 3.127092 0.262828 -3.097583 -0.334759
 33   14.298673 -0.408176 0.475484 0.003675 -0.003118 -0.522390
 34   15.835795 0.581398 0.242756 -0.001248 0.032043 0.122292
 35   -0.815868 -0.091229 -3.114430 -0.132801 3.034913 -0.011454
 36   14.294526 -0.410349 -0.463635 -0.002676 0.001869 -0.384687
 37   15.834409 0.579420 -0.284600 -0.034108 0.026558 0.304555
 38   1.139685 -3.453749 -2.823813 0.000000 0.000000 0.000001
 39   -4.457742 -1.054854 -0.746180 0.000000 0.000000 0.000000
 40   1.118101 -3.449769 3.237290 0.000000 0.000001 0.000000
 41   -4.433840 -1.059130 0.959566 -0.000001 0.000000 0.000000
 42   -0.657468 1.697302 -2.688614 0.000000 0.000002 0.000000
 43   -0.664068 1.698578 2.869377 0.000000 0.000002 0.000000
time 9
  0   -0.010486 -0.546892 1.863709 0.000000 0.000000 -1.571449
  1   -1.093036 0.000002 -0.326057 -1.570809 -1.570703 0.000022
  2   2.262337 0.113614 0.064702 -0.010230 -0.042736 -0.077157
  3   2.380047 0.353302 0.047440 -0.013321 0.054706 0.044484
  4   2.033756 0.190472 -0.000128 0.004306 -0.049760 -0.127723
  5   2.451511 0.204909 -0.003447 -0.168447 -0.018165 -0.100684
  6   7.247600 -0.397300 -0.109469 -0.016634 0.002238 0.459335
  7   -2.022252 -0.104661 3.136172 1.822266 -1.010238 -5.463803
  8   1.168026 -0.537438 -0.063437 -0.953339 1.242427 -0.786137
  9   6.790376 -0.619176 0.015206 -0.000102 -0.000151 -1.746847
 10   8.637599 0.544015 -0.090417 -2.959247 -0.086148 0.675358
 11   6.790465 -0.619039 0.017802 0.003629 -0.011850 -1.238078
 12   -2.022474 -0.104699 -2.873818 -2.307654 1.866264 -5.929987
 13   1.167898 -0.537463 0.063297 -1.508934 -0.586802 0.445203
 14   7.002743 -0.617765 -0.183752 0.000172 0.000194 -1.913879
 15   8.209042 0.615527 -0.255885 1.490853 0.575933 -0.965391
 16   7.002735 -0.617911 -0.183641 0.012932 0.010582 -1.358395
 17   1.574674 0.609930 -0.000899 0.197779 0.123573 -0.567914
 18   -0.602177 0.511412 -0.000006 0.000000 0.000000 0.000000
 19   3.673773 0.177020 1.119313 -0.000002 -0.000014 -0.174510
 20   3.673767 0.176993 -1.117566 0.000007 -0.000003 -0.174546
 21   3.942357 1.330634 1.627658 0.000002 -0.000011 -0.000026
 22   -0.246060 -0.011889 0.516521 -0.000011 0.000031 0.000025
 23   3.942374 1.330659 -1.631083 0.000019 0.000002 -0.000024
 24   -0.246150 -0.011872 -0.516511 -0.000005 -0.000006 0.000048
 25   4.941364 1.997338 1.629330 0.000018 -0.000001 -0.000024
 26   4.941382 1.997366 -1.629410 -0.000001 0.000005 -0.000024
 27   2.918368 1.615358 1.514501 -0.000019 -0.000022 -0.000050
 28   2.920798 1.614964 -1.501142 -0.000002 -0.000009 -0.000024
 29   8.824059 0.150544 0.091743 0.000006 -0.000231 -0.174534
 30   2.111085 -0.561179 1.784320 -0.000008 -0.000682 0.000024
 31   2.121290 -0.561289 -1.853599 0.000000 0.000000 -0.000002
 32   -0.810489 -0.093824 3.127092 0.262828 -3.097583 -0.334759
 33   14.298673 -0.408176 0.475484 0.003675 -0.003118 -0.522390
 34   15.835795 0.581398 0.242756 -0.001248 0.032043 0.122292
 35   -0.815868 -0.091229 -3.114430 -0.132801 3.034913 -0.011454
 36   14.294526 -0.410349 -0.463635 -0.002676 0.001869 -0.384687
 37   15.834409 0.579420 -0.284600 -0.034108 0.026558 0.304555
 38   1.139685 -3.453749 -2.823813 0.000000 0.000000 0.000001
 39   -4.457742 -1.054854 -0.746180 0.000000 0.000000 0.000000
 40   1.118101 -3.449769 3.237290 0.000000 0.000001 0.000000
 41   -4.433840 -1.059130 0.959566 -0.000001 0.000000 0.000000
 42   -0.657468 1.697302 -2.688614 0.000000 0.000002 0.000000
 43   -0.664068 1.698578 2.869377 0.000000 0.000002 0.000000
time 10
  0   -0.010486 -0.546892 1.863709 0.000000 0.000000 -1.571449
  1   -1.093036 0.000002 -0.326057 -1.570809 -1.570703 0.000022
  2   2.262337 0.113614 0.064702 -0.010230 -0.042736 -0.077157
  3   2.380047 0.353302 0.047440 -0.013621 0.054670 0.044484
  4   2.033756 0.190472 -0.000128 0.002609 -0.046404 -0.128013
  5   2.451511 0.204909 -0.003447 -0.175482 -0.012068 -0.102368
  6   7.247600 -0.397300 -0.109469 -0.016634 0.002238 0.459335
  7   -2.022252 -0.104661 3.136172 1.822266 -1.010238 -5.463803
  8   1.168026 -0.537438 -0.063437 -1.007254 1.259534 -0.861354
  9   6.790376 -0.619176 0.015206 -0.000102 -0.000151 -1.761412
 10   8.637599 0.544015 -0.090417 -2.933004 -0.101845 0.696410
 11   6.790465 -0.619039 0.017802 0.003658 -0.011850 -1.248229
 12   -2.022474 -0.104699 -2.873818 -2.302289 1.868006 -5.924913
 13   1.167898 -0.537463 0.063297 -1.504436 -0.574292 0.430614
 14   7.002743 -0.617765 -0.183752 0.000172 0.000194 -1.910826
 15   8.209042 0.615527 -0.255885 1.487977 0.581532 -0.993054
 16   7.002735 -0.617911 -0.183641 0.012932 0.010582 -1.356132
 17   1.574674 0.609930 -0.000899 0.207691 0.114911 -0.565881
 18   -0.602177 0.511412 -0.000006 0.000000 0.000000 0.000000
 19   3.673773 0.177020 1.119313 -0.000002 -0.000014 -0.174510
 20   3.673767 0.176993 -1.117566 0.000007 -0.000003 -0.174546
 21   3.942357 1.330634 1.627658 0.000002 -0.000011 -0.000026
 22   -0.246060 -0.011889 0.516521 -0.000011 0.000031 0.000025
 23   3.942374 1.330659 -1.631083 0.000019 0.000002 -0.000024
 24   -0.246150 -0.011872 -0.516511 -0.000005 -0.000006 0.000048
 25   4.941364 1.997338 1.629330 0.000018 -0.000001 -0.000024
 26   4.941382 1.997366 -1.629410 -0.000001 0.000005 -0.000024
 27   2.918368 1.615358 1.514501 -0.000019 -0.000022 -0.000050
 28   2.920798 1.614964 -1.501142 -0.000002 -0.000009 -0.000024
 29   8.824059 0.150544 0.091743 0.000006 -0.000231 -0.174534
 30   2.111085 -0.561179 1.784320 -0.000008 -0.000682 0.000024
 31   2.121290 -0.561289 -1.853599 0.000000 0.000000 -0.000002
 32   -0.810489 -0.093824 3.127092 0.262828 -3.097583 -0.334759
 33   14.298673 -0.408176 0.475484 0.003675 -0.003118 -0.522390
 34   15.835795 0.581398 0.242756 -0.001248 0.032043 0.122292
 35   -0.815868 -0.091229 -3.114430 -0.132801 3.034913 -0.011454
 36   14.294526 -0.410349 -0.463635 -0.002676 0.001869 -0.384687
 37   15.834409 0.579420 -0.284600 -0.034108 0.026558 0.304555
 38   1.139685 -3.453749 -2.823813 0.000000 0.000000 0.000001
 39   -4.457742 -1.054854 -0.746180 0.000000 0.000000 0.000000
 40   1.118101 -3.449769 3.237290 0.000000 0.000001 0.000000
 41   -4.433840 -1.059130 0.959566 -0.000001 0.000000 0.000000
 42   -0.657468 1.697302 -2.688614 0.000000 0.000002 0.000000
 43   -0.664068 1.698578 2.869377 0.000000 0.000002 0.000000
time 11
  0   -0.010486 -0.546892 1.863709 0.000000 0.000000 -1.571449
  1   -1.093036 0.000002 -0.326057 -1.570809 -1.570703 0.000022
  2   2.262337 0.113614 0.064702 -0.010230 -0.042736 -0.077157
  3   2.380047 0.353302 0.047440 -0.013756 0.054646 0.044423
  4   2.033756 0.190472 -0.000128 0.002683 -0.046752 -0.128013
  5   2.451511 0.204909 -0.003447 -0.174883 -0.012943 -0.102095
  6   7.247600 -0.397300 -0.109469 -0.016634 0.002238 0.459335
  7   -2.022252 -0.104661 3.136172 1.822266 -1.010238 -5.463803
  8   1.168026 -0.537438 -0.063437 -1.298154 1.289018 -1.303544
  9   6.790376 -0.619176 0.015206 -0.000102 -0.000151 -1.772732
 10   8.637599 0.544015 -0.090417 -2.850751 -0.154638 0.843631
 11   6.790465 -0.619039 0.017802 0.003746 -0.011850 -1.256188
 12   -2.022474 -0.104699 -2.873818 -2.302289 1.868006 -5.924913
 13   1.167898 -0.537463 0.063297 -1.516245 -0.549273 0.440663
 14   7.002743 -0.617765 -0.183752 0.000172 0.000194 -1.887312
 15   8.209042 0.615527 -0.255885 1.514438 0.583120 -1.115915
 16   7.002735 -0.617911 -0.183641 0.012979 0.010413 -1.339795
 17   1.574674 0.609930 -0.000899 0.205741 0.114698 -0.564440
 18   -0.602177 0.511412 -0.000006 0.000000 0.000000 0.000000
 19   3.673773 0.177020 1.119313 -0.000002 -0.000014 -0.174510
 20   3.673767 0.176993 -1.117566 0.000007 -0.000003 -0.174546
 21   3.942357 1.330634 1.627658 0.000002 -0.000011 -0.000026
 22   -0.246060 -0.011889 0.516521 -0.000011 0.000031 0.000025
 23   3.942374 1.330659 -1.631083 0.000019 0.000002 -0.000024
 24   -0.246150 -0.011872 -0.516511 -0.000005 -0.000006 0.000048
 25   4.941364 1.997338 1.629330 0.000018 -0.000001 -0.000024
 26   4.941382 1.997366 -1.629410 -0.000001 0.000005 -0.000024
 27   2.918368 1.615358 1.514501 -0.000019 -0.000022 -0.000050
 28   2.920798 1.614964 -1.501142 -0.000002 -0.000009 -0.000024
 29   8.824059 0.150544 0.091743 0.000006 -0.000231 -0.174534
 30   2.111085 -0.561179 1.784320 -0.000008 -0.000682 0.000024
 31   2.121290 -0.561289 -1.853599 0.000000 0.000000 -0.000002
 32   -0.810489 -0.093824 3.127092 0.262828 -3.097583 -0.334759
 33   14.298673 -0.408176 0.475484 0.003675 -0.003118 -0.522390
 34   15.835795 0.581398 0.242756 -0.001248 0.032043 0.122292
 35   -0.815868 -0.091229 -3.114430 -0.132801 3.034913 -0.011454
 36   14.294526 -0.410349 -0.463635 -0.002676 0.001869 -0.384687
 37   15.834409 0.579420 -0.284600 -0.034108 0.026558 0.304555
 38   1.139685 -3.453749 -2.823813 0.000000 0.000000 0.000001
 39   -4.457742 -1.054854 -0.746180 0.000000 0.000000 0.000000
 40   1.118101 -3.449769 3.237290 0.000000 0.000001 0.000000
 41   -4.433840 -1.059130 0.959566 -0.000001 0.000000 0.000000
 42   -0.657468 1.697302 -2.688614 0.000000 0.000002 0.000000
 43   -0.664068 1.698578 2.869377 0.000000 0.000002 0.000000
time 12
  0   -0.010486 -0.546892 1.863709 0.000000 0.000000 -1.571449
  1   -1.093036 0.000002 -0.326057 -1.570809 -1.570703 0.000022
  2   2.262337 0.113614 0.064702 -0.010230 -0.042736 -0.077157
  3   2.380047 0.353302 0.047440 -0.014161 0.054610 0.044423
  4   2.033756 0.190472 -0.000128 0.002775 -0.047507 -0.127868
  5   2.451511 0.204909 -0.003447 -0.173137 -0.015267 -0.101476
  6   7.247600 -0.397300 -0.109469 -0.016634 0.002238 0.459335
  7   -2.022252 -0.104661 3.136172 1.822266 -1.010238 -5.463803
  8   1.168026 -0.537438 -0.063437 1.484604 1.851381 1.308795
  9   6.790376 -0.619176 0.015206 -0.000102 -0.000151 -1.719754
 10   8.637599 0.544015 -0.090417 -2.811386 -0.197224 0.921256
 11   6.790465 -0.619039 0.017802 0.003483 -0.011793 -1.219103
 12   -2.022474 -0.104699 -2.873818 -2.302289 1.868006 -5.924913
 13   1.167898 -0.537463 0.063297 -1.525172 -0.532949 0.449259
 14   7.002743 -0.617765 -0.183752 0.000172 0.000194 -1.866851
 15   8.209042 0.615527 -0.255885 1.513287 0.593259 -1.228071
 16   7.002735 -0.617911 -0.183641 0.013027 0.010300 -1.325445
 17   1.574674 0.609930 -0.000899 0.202288 0.115905 -0.562740
 18   -0.602177 0.511412 -0.000006 0.000000 0.000000 0.000000
 19   3.673773 0.177020 1.119313 -0.000002 -0.000014 -0.174510
 20   3.673767 0.176993 -1.117566 0.000007 -0.000003 -0.174546
 21   3.942357 1.330634 1.627658 0.000002 -0.000011 -0.000026
 22   -0.246060 -0.011889 0.516521 -0.000011 0.000031 0.000025
 23   3.942374 1.330659 -1.631083 0.000019 0.000002 -0.000024
 24   -0.246150 -0.011872 -0.516511 -0.000005 -0.000006 0.000048
 25   4.941364 1.997338 1.629330 0.000018 -0.000001 -0.000024
 26   4.941382 1.997366 -1.629410 -0.000001 0.000005 -0.000024
 27   2.918368 1.615358 1.514501 -0.000019 -0.000022 -0.000050
 28   2.920798 1.614964 -1.501142 -0.000002 -0.000009 -0.000024
 29   8.824059 0.150544 0.091743 0.000006 -0.000231 -0.174534
 30   2.111085 -0.561179 1.784320 -0.000008 -0.000682 0.000024
 31   2.121290 -0.561289 -1.853599 0.000000 0.000000 -0.000002
 32   -0.810489 -0.093824 3.127092 0.262828 -3.097583 -0.334759
 33   14.298673 -0.408176 0.475484 0.003675 -0.003118 -0.522390
 34   15.835795 0.581398 0.242756 -0.001248 0.032043 0.122292
 35   -0.815868 -0.091229 -3.114430 -0.132801 3.034913 -0.011454
 36   14.294526 -0.410349 -0.463635 -0.002676 0.001869 -0.384687
 37   15.834409 0.579420 -0.284600 -0.034108 0.026558 0.304555
 38   1.139685 -3.453749 -2.823813 0.000000 0.000000 0.000001
 39   -4.457742 -1.054854 -0.746180 0.000000 0.000000 0.000000
 40   1.118101 -3.449769 3.237290 0.000000 0.000001 0.000000
 41   -4.433840 -1.059130 0.959566 -0.000001 0.000000 0.000000
 42   -0.657468 1.697302 -2.688614 0.000000 0.000002 0.000000
 43   -0.664068 1.698578 2.869377 0.000000 0.000002 0.000000
time 13
  0   -0.010486 -0.546892 1.863709 0.000000 0.000000 -1.571449
  1   -1.093036 0.000002 -0.326057 -1.570809 -1.570703 0.000022
  2   2.262337 0.113614 0.064702 -0.010230 -0.042736 -0.077157
  3   2.380047 0.353302 0.047440 -0.014746 0.054538 0.044362
  4   2.033756 0.190472 -0.000128 0.002941 -0.048538 -0.127542
  5   2.451511 0.204909 -0.003447 -0.170758 -0.018727 -0.100684
  6   7.247600 -0.397300 -0.109469 -0.016634 0.002238 0.459335
  7   -2.022252 -0.104661 3.136172 1.822266 -1.010238 -5.463803
  8   1.168026 -0.537438 -0.063437 -1.613038 1.298578 -1.779705
  9   6.790376 -0.619176 0.015206 -0.000102 -0.000151 -1.729414
 10   8.637599 0.544015 -0.090417 -2.788754 -0.166393 0.864755
 11   6.790465 -0.619039 0.017802 0.003483 -0.011793 -1.225851
 12   -2.022474 -0.104699 -2.873818 -2.302289 1.868006 -5.924913
 13   1.167898 -0.537463 0.063297 -1.521166 -0.549934 0.447806
 14   7.002743 -0.617765 -0.183752 0.000172 0.000194 -1.865861
 15   8.209042 0.615527 -0.255885 1.449581 0.606651 -1.234626
 16   7.002735 -0.617911 -0.183641 0.013027 0.010300 -1.324783
 17   1.574674 0.609930 -0.000899 0.197698 0.118319 -0.560559
 18   -0.602177 0.511412 -0.000006 0.000000 0.000000 0.000000
 19   3.673773 0.177020 1.119313 -0.000002 -0.000014 -0.174510
 20   3.673767 0.176993 -1.117566 0.000007 -0.000003 -0.174546
 21   3.942357 1.330634 1.627658 0.000002 -0.000011 -0.000026
 22   -0.246060 -0.011889 0.516521 -0.000011 0.000031 0.000025
 23   3.942374 1.330659 -1.631083 0.000019 0.000002 -0.000024
 24   -0.246150 -0.011872 -0.516511 -0.000005 -0.000006 0.000048
 25   4.941364 1.997338 1.629330 0.000018 -0.000001 -0.000024
 26   4.941382 1.997366 -1.629410 -0.000001 0.000005 -0.000024
 27   2.918368 1.615358 1.514501 -0.000019 -0.000022 -0.000050
 28   2.920798 1.614964 -1.501142 -0.000002 -0.000009 -0.000024
 29   8.824059 0.150544 0.091743 0.000006 -0.000231 -0.174534
 30   2.111085 -0.561179 1.784320 -0.000008 -0.000682 0.000024
 31   2.121290 -0.561289 -1.853599 0.000000 0.000000 -0.000002
 32   -0.810489 -0.093824 3.127092 0.262828 -3.097583 -0.334759
 33   14.298673 -0.408176 0.475484 0.003675 -0.003118 -0.522390
 34   15.835795 0.581398 0.242756 -0.001248 0.032043 0.122292
 35   -0.815868 -0.091229 -3.114430 -0.132801 3.034913 -0.011454
 36   14.294526 -0.410349 -0.463635 -0.002676 0.001869 -0.384687
 37   15.834409 0.579420 -0.284600 -0.034108 0.026558 0.304555
 38   1.139685 -3.453749 -2.823813 0.000000 0.000000 0.000001
 39   -4.457742 -1.054854 -0.746180 0.000000 0.000000 0.000000
 40   1.118101 -3.449769 3.237290 0.000000 0.000001 0.000000
 41   -4.433840 -1.059130 0.959566 -0.000001 0.000000 0.000000
 42   -0.657468 1.697302 -2.688614 0.000000 0.000002 0.000000
 43   -0.664068 1.698578 2.869377 0.000000 0.000002 0.000000
time 14
  0   -0.010486 -0.546892 1.863709 0.000000 0.000000 -1.571449
  1   -1.093036 0.000002 -0.326057 -1.570809 -1.570703 0.000022
  2   2.262337 0.113614 0.064702 -0.010230 -0.042736 -0.077157
  3   2.380047 0.353302 0.047440 -0.015331 0.054466 0.044280
  4   2.033756 0.190472 -0.000128 0.003070 -0.049916 -0.127252
  5   2.451511 0.204909 -0.003447 -0.167797 -0.022787 -0.099619
  6   7.247600 -0.397300 -0.109469 -0.016634 0.002238 0.459335
  7   -2.022252 -0.104661 3.136172 1.822266 -1.010238 -5.463803
  8   1.168026 -0.537438 -0.063437 -1.344602 1.240817 -1.372561
  9   6.790376 -0.619176 0.015206 -0.000102 -0.000151 -1.760582
 10   8.637599 0.544015 -0.090417 -2.786024 -0.112122 0.773674
 11   6.790465 -0.619039 0.017802 0.003658 -0.011850 -1.247710
 12   -2.022474 -0.104699 -2.873818 -2.302289 1.868006 -5.924913
 13   1.167898 -0.537463 0.063297 -1.512730 -0.577852 0.443508
 14   7.002743 -0.617765 -0.183752 0.000172 0.000194 -1.869326
 15   8.209042 0.615527 -0.255885 1.365599 0.622615 -1.214119
 16   7.002735 -0.617911 -0.183641 0.013027 0.010300 -1.327156
 17   1.574674 0.609930 -0.000899 0.192580 0.121585 -0.558785
 18   -0.602177 0.511412 -0.000006 0.000000 0.000000 0.000000
 19   3.673773 0.177020 1.119313 -0.000002 -0.000014 -0.174510
 20   3.673767 0.176993 -1.117566 0.000007 -0.000003 -0.174546
 21   3.942357 1.330634 1.627658 0.000002 -0.000011 -0.000026
 22   -0.246060 -0.011889 0.516521 -0.000011 0.000031 0.000025
 23   3.942374 1.330659 -1.631083 0.000019 0.000002 -0.000024
 24   -0.246150 -0.011872 -0.516511 -0.000005 -0.000006 0.000048
 25   4.941364 1.997338 1.629330 0.000018 -0.000001 -0.000024
 26   4.941382 1.997366 -1.629410 -0.000001 0.000005 -0.000024
 27   2.918368 1.615358 1.514501 -0.000019 -0.000022 -0.000050
 28   2.920798 1.614964 -1.501142 -0.000002 -0.000009 -0.000024
 29   8.824059 0.150544 0.091743 0.000006 -0.000231 -0.174534
 30   2.111085 -0.561179 1.784320 -0.000008 -0.000682 0.000024
 31   2.121290 -0.561289 -1.853599 0.000000 0.000000 -0.000002
 32   -0.810489 -0.093824 3.127092 0.262828 -3.097583 -0.334759
 33   14.298673 -0.408176 0.475484 0.003675 -0.003118 -0.522390
 34   15.835795 0.581398 0.242756 -0.001248 0.032043 0.122292
 35   -0.815868 -0.091229 -3.114430 -0.132801 3.034913 -0.011454
 36   14.294526 -0.410349 -0.463635 -0.002676 0.001869 -0.384687
 37   15.834409 0.579420 -0.284600 -0.034108 0.026558 0.304555
 38   1.139685 -3.453749 -2.823813 0.000000 0.000000 0.000001
 39   -4.457742 -1.054854 -0.746180 0.000000 0.000000 0.000000
 40   1.118101 -3.449769 3.237290 0.000000 0.000001 0.000000
 41   -4.433840 -1.059130 0.959566 -0.000001 0.000000 0.000000
 42   -0.657468 1.697302 -2.688614 0.000000 0.000002 0.000000
 43   -0.664068 1.698578 2.869377 0.000000 0.000002 0.000000
time 15
  0   -0.010486 -0.546892 1.863709 0.000000 0.000000 -1.571449
  1   -1.093036 0.000002 -0.326057 -1.570809 -1.570703 0.000022
  2   2.262337 0.113614 0.064702 -0.010230 -0.042736 -0.077157
  3   2.380047 0.353302 0.047440 -0.016051 0.054310 0.044178
  4   2.033756 0.190472 -0.000128 0.003273 -0.051306 -0.126998
  5   2.451511 0.204909 -0.003447 -0.164630 -0.027069 -0.098529
  6   7.247600 -0.397300 -0.109469 -0.016634 0.002238 0.459335
  7   -2.022252 -0.104661 3.136172 1.822266 -1.010238 -5.463803
  8   1.168026 -0.537438 -0.063437 -1.226078 1.152616 -1.117558
  9   6.790376 -0.619176 0.015206 -0.000102 -0.000151 -1.734621
 10   8.637599 0.544015 -0.090417 -2.830232 -0.053909 0.642224
 11   6.790465 -0.619039 0.017802 0.003512 -0.011793 -1.229542
 12   -2.022474 -0.104699 -2.873818 -2.302289 1.868006 -5.924913
 13   1.167898 -0.537463 0.063297 -1.503522 -0.606126 0.438726
 14   7.002743 -0.617765 -0.183752 0.000172 0.000194 -1.878319
 15   8.209042 0.615527 -0.255885 1.275360 0.644178 -1.183148
 16   7.002735 -0.617911 -0.183641 0.012979 0.010300 -1.333448
 17   1.574674 0.609930 -0.000899 0.187462 0.125561 -0.557232
 18   -0.602177 0.511412 -0.000006 0.000000 0.000000 0.000000
 19   3.673773 0.177020 1.119313 -0.000002 -0.000014 -0.174510
 20   3.673767 0.176993 -1.117566 0.000007 -0.000003 -0.174546
 21   3.942357 1.330634 1.627658 0.000002 -0.000011 -0.000026
 22   -0.246060 -0.011889 0.516521 -0.000011 0.000031 0.000025
 23   3.942374 1.330659 -1.631083 0.000019 0.000002 -0.000024
 24   -0.246150 -0.011872 -0.516511 -0.000005 -0.000006 0.000048
 25   4.941364 1.997338 1.629330 0.000018 -0.000001 -0.000024
 26   4.941382 1.997366 -1.629410 -0.000001 0.000005 -0.000024
 27   2.918368 1.615358 1.514501 -0.000019 -0.000022 -0.000050
 28   2.920798 1.614964 -1.501142 -0.000002 -0.000009 -0.000024
 29   8.824059 0.150544 0.091743 0.000006 -0.000231 -0.174534
 30   2.111085 -0.561179 1.784320 -0.000008 -0.000682 0.000024
 31   2.121290 -0.561289 -1.853599 0.000000 0.000000 -0.000002
 32   -0.810489 -0.093824 3.127092 0.262828 -3.097583 -0.334759
 33   14.298673 -0.408176 0.475484 0.003675 -0.003118 -0.522390
 34   15.835795 0.581398 0.242756 -0.001248 0.032043 0.122292
 35   -0.815868 -0.091229 -3.114430 -0.132801 3.034913 -0.011454
 36   14.294526 -0.410349 -0.463635 -0.002676 0.001869 -0.384687
 37   15.834409 0.579420 -0.284600 -0.034108 0.026558 0.304555
 38   1.139685 -3.453749 -2.823813 0.000000 0.000000 0.000001
 39   -4.457742 -1.054854 -0.746180 0.000000 0.000000 0.000000
 40   1.118101 -3.449769 3.237290 0.000000 0.000001 0.000000
 41   -4.433840 -1.059130 0.959566 -0.000001 0.000000 0.000000
 42   -0.657468 1.697302 -2.688614 0.000000 0.000002 0.000000
 43   -0.664068 1.698578 2.869377 0.000000 0.000002 0.000000
time 16
  0   -0.010486 -0.546892 1.863709 0.000000 0.000000 -1.571449
  1   -1.093036 0.000002 -0.326057 -1.570809 -1.570703 0.000022
  2   2.262337 0.113614 0.064702 -0.010230 -0.042736 -0.077157
  3   2.380047 0.353302 0.047440 -0.016741 0.054226 0.044117
  4   2.033756 0.190472 -0.000128 0.003439 -0.052600 -0.126672
  5   2.451511 0.204909 -0.003447 -0.161652 -0.031338 -0.097514
  6   7.247600 -0.397300 -0.109469 -0.016634 0.002238 0.459335
  7   -2.022252 -0.104661 3.136172 1.822266 -1.010238 -5.463803
  8   1.168026 -0.537438 -0.063437 -1.207790 1.126352 -1.062079
  9   6.790376 -0.619176 0.015206 -0.000102 -0.000151 -1.698925
 10   8.637599 0.544015 -0.090417 -2.870126 0.001629 0.533491
 11   6.790465 -0.619039 0.017802 0.003366 -0.011793 -1.204569
 12   -2.022474 -0.104699 -2.873818 -2.302289 1.868006 -5.924913
 13   1.167898 -0.537463 0.063297 -1.498109 -0.625196 0.436728
 14   7.002743 -0.617765 -0.183752 0.000172 0.000194 -1.894985
 15   8.209042 0.615527 -0.255885 1.193175 0.672626 -1.158552
 16   7.002735 -0.617911 -0.183641 0.012979 0.010413 -1.345149
 17   1.574674 0.609930 -0.000899 0.183034 0.129892 -0.556197
 18   -0.602177 0.511412 -0.000006 0.000000 0.000000 0.000000
 19   3.673773 0.177020 1.119313 -0.000002 -0.000014 -0.174510
 20   3.673767 0.176993 -1.117566 0.000007 -0.000003 -0.174546
 21   3.942357 1.330634 1.627658 0.000002 -0.000011 -0.000026
 22   -0.246060 -0.011889 0.516521 -0.000011 0.000031 0.000025
 23   3.942374 1.330659 -1.631083 0.000019 0.000002 -0.000024
 24   -0.246150 -0.011872 -0.516511 -0.000005 -0.000006 0.000048
 25   4.941364 1.997338 1.629330 0.000018 -0.000001 -0.000024
 26   4.941382 1.997366 -1.629410 -0.000001 0.000005 -0.000024
 27   2.918368 1.615358 1.514501 -0.000019 -0.000022 -0.000050
 28   2.920798 1.614964 -1.501142 -0.000002 -0.000009 -0.000024
 29   8.824059 0.150544 0.091743 0.000006 -0.000231 -0.174534
 30   2.111085 -0.561179 1.784320 -0.000008 -0.000682 0.000024
 31   2.121290 -0.561289 -1.853599 0.000000 0.000000 -0.000002
 32   -0.810489 -0.093824 3.127092 0.262828 -3.097583 -0.334759
 33   14.298673 -0.408176 0.475484 0.003675 -0.003118 -0.522390
 34   15.835795 0.581398 0.242756 -0.001248 0.032043 0.122292
 35   -0.815868 -0.091229 -3.114430 -0.132801 3.034913 -0.011454
 36   14.294526 -0.410349 -0.463635 -0.002676 0.001869 -0.384687
 37   15.834409 0.579420 -0.284600 -0.034108 0.026558 0.304555
 38   1.139685 -3.453749 -2.823813 0.000000 0.000000 0.000001
 39   -4.457742 -1.054854 -0.746180 0.000000 0.000000 0.000000
 40   1.118101 -3.449769 3.237290 0.000000 0.000001 0.000000
 41   -4.433840 -1.059130 0.959566 -0.000001 0.000000 0.000000
 42   -0.657468 1.697302 -2.688614 0.000000 0.000002 0.000000
 43   -0.664068 1.698578 2.869377 0.000000 0.000002 0.000000
end
