version 1
nodes
  0 "Bip01" -1
  1 "Bip01 Pelvis" 0
  2 "Bip01 Spine" 1
  3 "Bip01 Spine1" 2
  4 "Bip01 Spine2" 3
  5 "Bip01 Spine3" 4
  6 "Bip01 Neck" 5
  7 "Bip01 L Arm" 6
  8 "Bip01 L Arm1" 7
  9 "Bip01 L Arm2" 8
 10 "Bip01 L Hand" 9
 11 "Bip06 L elbow2-smooth" 8
 12 "Bip01 R Arm" 6
 13 "Bip01 R Arm1" 12
 14 "Bip01 R Arm2" 13
 15 "Bip01 R Hand" 14
 16 "Bip06 R elbow2-smooth" 13
 17 "Bip01 Head" 6
 18 "Bip06 Head_helper" 17
 19 "Bip06 Head_eyes_l" 18
 20 "Bip06 Head_eyes_r" 18
 21 "Bip06 Head_blink_l" 18
 22 "Bip06 Head_blink_smooth_l1" 21
 23 "Bip06 Head_blink_r" 18
 24 "Bip06 Head_blink_smooth_r1" 23
 25 "Bip06 Head_L_eyebrow" 18
 26 "Bip06 Head_R_eyebrow" 18
 27 "Bip06 Head_blink_l_lid" 18
 28 "Bip06 Head_blink_r_lid" 18
 29 "Bip06 bunny" 18
 30 "Bip06 bunnyL" 29
 31 "Bip06 bunnyR" 29
 32 "Bip01 L Leg" 1
 33 "Bip01 L Leg1" 32
 34 "Bip01 L Foot" 33
 35 "Bip01 R Leg" 1
 36 "Bip01 R Leg1" 35
 37 "Bip01 R Foot" 36
 38 "Bip03 HairR1" 17
 39 "Bip03 HairR2" 38
 40 "Bip03 HairL1" 17
 41 "Bip03 HairL2" 40
 42 "Bip03 swingR" 17
 43 "Bip03 swingL" 17
end
skeleton
time 0
  0   0.009046 4.281381 1.527761 0.000000 0.000000 -1.571544
  1   -1.093036 0.000002 -0.326057 -1.570809 -1.570379 -0.000026
  2   2.262337 0.113614 0.064702 0.000241 0.025300 0.010342
  3   2.380047 0.353302 0.047440 -0.073610 -0.036138 -0.007877
  4   2.033756 0.190472 -0.000128 -0.145891 -0.046284 -0.193258
  5   2.451511 0.204909 -0.003447 -0.171956 -0.069735 -0.070123
  6   7.247600 -0.397300 -0.109469 0.000061 0.095970 0.470960
  7   -2.022252 -0.104661 3.136172 1.299361 -1.381176 -4.925491
  8   1.168026 -0.537438 -0.063437 -1.046994 0.365650 -1.073592
  9   6.790376 -0.619176 0.015206 -0.000102 -0.000151 -0.998889
 10   8.637599 0.544015 -0.090417 -3.048897 0.302126 -0.161304
 11   6.790465 -0.619039 0.017802 0.000359 -0.011452 -0.714390
 12   -2.022474 -0.104699 -2.873818 -2.708990 1.886349 -0.072164
 13   1.167898 -0.537463 0.063297 -0.530229 -1.058769 -0.328008
 14   7.002743 -0.617765 -0.183752 0.000115 0.000194 -2.015113
 15   8.209042 0.615527 -0.255885 1.716413 0.502392 0.011840
 16   7.002735 -0.617911 -0.183641 0.012744 0.011146 -1.429373
 17   1.574674 0.609930 -0.000899 0.359163 0.202644 -0.430974
 18   -0.602177 0.511412 -0.000006 0.000000 0.000000 0.000000
 19   3.646428 0.364526 1.119313 -0.000002 -0.000014 -0.174510
 20   3.646422 0.364499 -1.117566 0.000007 -0.000003 -0.174546
 21   3.805634 1.330634 1.627658 0.000002 -0.000011 -0.000026
 22   -0.246060 -0.011889 0.516521 -0.000011 0.000031 0.000025
 23   3.805651 1.330659 -1.631083 0.000019 0.000002 -0.000024
 24   -0.246150 -0.011872 -0.516511 -0.000005 -0.000006 0.000048
 25   4.941364 1.997338 1.629330 0.000018 -0.000001 -0.000024
 26   4.941382 1.997366 -1.629410 -0.000001 0.000005 -0.000024
 27   2.930087 1.603639 1.514501 -0.000019 -0.000022 -0.000050
 28   2.932517 1.603245 -1.501142 -0.000002 -0.000009 -0.000024
 29   8.824059 0.150544 0.091743 0.000006 -0.000231 -0.174534
 30   2.111085 -0.561179 1.784320 -0.000008 -0.000682 0.000024
 31   2.121290 -0.561289 -1.853599 0.000000 0.000000 -0.000002
 32   -0.810489 -0.093824 3.127092 0.262828 -3.097583 -0.334759
 33   14.298673 -0.408176 0.475484 0.003675 -0.003118 -0.522390
 34   15.835795 0.581398 0.242756 -0.001248 0.032043 0.122292
 35   -0.815868 -0.091229 -3.114430 -0.132801 3.034913 -0.011454
 36   14.294526 -0.410349 -0.463635 -0.002676 0.001857 -0.384687
 37   15.834409 0.579420 -0.284600 -0.034108 0.026558 0.304555
 38   1.139685 -3.453749 -2.823813 0.000000 0.000000 0.000001
 39   -4.457742 -1.054854 -0.746180 0.000000 0.000000 0.000000
 40   1.118101 -3.449769 3.237290 0.000000 0.000001 0.000000
 41   -4.433840 -1.059130 0.959566 -0.000001 0.000000 0.000000
 42   -0.657468 1.697302 -2.688614 0.000000 0.000002 0.000000
 43   -0.664068 1.698578 2.869377 0.000000 0.000002 0.000000
time 1
  0   0.009046 4.281381 1.527761 0.000000 0.000000 -1.571544
  1   -1.093036 0.000002 -0.326057 -1.570809 -1.570379 -0.000026
  2   2.262337 0.113614 0.064702 0.000241 0.025300 0.010342
  3   2.380047 0.353302 0.047440 -0.073730 -0.035646 -0.006326
  4   2.033756 0.190472 -0.000128 -0.145430 -0.046704 -0.197245
  5   2.451511 0.204909 -0.003447 -0.171819 -0.070544 -0.074854
  6   7.247600 -0.397300 -0.109469 0.000061 0.095970 0.470960
  7   -2.022252 -0.104661 3.136172 1.299361 -1.381176 -4.925491
  8   1.168026 -0.537438 -0.063437 -1.045665 0.372694 -1.073213
  9   6.790376 -0.619176 0.015206 -0.000102 -0.000151 -0.996172
 10   8.637599 0.544015 -0.090417 -3.048897 0.302126 -0.164270
 11   6.790465 -0.619039 0.017802 0.000359 -0.011452 -0.712486
 12   -2.022474 -0.104699 -2.873818 -2.710044 1.887162 -0.072930
 13   1.167898 -0.537463 0.063297 -0.543655 -1.058159 -0.313964
 14   7.002743 -0.617765 -0.183752 0.000115 0.000194 -2.015113
 15   8.209042 0.615527 -0.255885 1.716485 0.502392 0.012201
 16   7.002735 -0.617911 -0.183641 0.012744 0.011146 -1.429263
 17   1.574674 0.609930 -0.000899 0.358595 0.201650 -0.424099
 18   -0.602177 0.511412 -0.000006 0.000000 0.000000 0.000000
 19   3.646428 0.364526 1.119313 -0.000002 -0.000014 -0.174510
 20   3.646422 0.364499 -1.117566 0.000007 -0.000003 -0.174546
 21   3.805634 1.330634 1.627658 0.000002 -0.000011 -0.000026
 22   -0.246060 -0.011889 0.516521 -0.000011 0.000031 0.000025
 23   3.805651 1.330659 -1.631083 0.000019 0.000002 -0.000024
 24   -0.246150 -0.011872 -0.516511 -0.000005 -0.000006 0.000048
 25   4.941364 1.997338 1.629330 0.000018 -0.000001 -0.000024
 26   4.941382 1.997366 -1.629410 -0.000001 0.000005 -0.000024
 27   2.930087 1.603639 1.514501 -0.000019 -0.000022 -0.000050
 28   2.932517 1.603245 -1.501142 -0.000002 -0.000009 -0.000024
 29   8.824059 0.150544 0.091743 0.000897 -0.000468 -0.171583
 30   2.111085 -0.561179 1.784320 -0.000022 0.001236 0.000153
 31   2.121290 -0.561289 -1.853599 0.000000 -0.002538 0.000107
 32   -0.810489 -0.093824 3.127092 0.262828 -3.097583 -0.334759
 33   14.298673 -0.408176 0.475484 0.003675 -0.003118 -0.522390
 34   15.835795 0.581398 0.242756 -0.001248 0.032043 0.122292
 35   -0.815868 -0.091229 -3.114430 -0.132801 3.034913 -0.011454
 36   14.294526 -0.410349 -0.463635 -0.002676 0.001857 -0.384687
 37   15.834409 0.579420 -0.284600 -0.034108 0.026558 0.304555
 38   1.139685 -3.453749 -2.823813 0.000063 -0.000060 0.000123
 39   -4.457742 -1.054854 -0.746180 0.000132 0.000288 -0.001178
 40   1.118101 -3.449769 3.237290 -0.000021 -0.000071 0.000367
 41   -4.433840 -1.059130 0.959566 0.000011 0.000024 -0.000084
 42   -0.657468 1.697302 -2.688614 0.000863 0.001336 -0.000084
 43   -0.664068 1.698578 2.869377 -0.001000 -0.001504 0.000251
time 2
  0   0.009046 4.281381 1.527761 0.000000 0.000000 -1.571544
  1   -1.093036 0.000002 -0.326057 -1.570809 -1.570379 -0.000026
  2   2.262337 0.113614 0.064702 0.000241 0.025300 0.010342
  3   2.380047 0.353302 0.047440 -0.074075 -0.034496 -0.002204
  4   2.033756 0.190472 -0.000128 -0.144102 -0.047711 -0.207974
  5   2.451511 0.204909 -0.003447 -0.171340 -0.072751 -0.087311
  6   7.247600 -0.397300 -0.109469 0.000061 0.095970 0.470960
  7   -2.022252 -0.104661 3.136172 1.299361 -1.381176 -4.925491
  8   1.168026 -0.537438 -0.063437 -1.041995 0.391612 -1.072137
  9   6.790376 -0.619176 0.015206 -0.000102 -0.000151 -0.989380
 10   8.637599 0.544015 -0.090417 -3.048809 0.302126 -0.171360
 11   6.790465 -0.619039 0.017802 0.000359 -0.011452 -0.707815
 12   -2.022474 -0.104699 -2.873818 -2.711193 1.887887 -0.074079
 13   1.167898 -0.537463 0.063297 -0.579857 -1.057701 -0.276190
 14   7.002743 -0.617765 -0.183752 0.000115 0.000194 -2.015113
 15   8.209042 0.615527 -0.255885 1.716700 0.502392 0.012442
 16   7.002735 -0.617911 -0.183641 0.012744 0.011146 -1.429263
 17   1.574674 0.609930 -0.000899 0.357010 0.199023 -0.405618
 18   -0.602177 0.511412 -0.000006 0.000000 0.000000 0.000000
 19   3.646428 0.364526 1.119313 -0.000002 -0.000014 -0.174510
 20   3.646422 0.364499 -1.117566 0.000007 -0.000003 -0.174546
 21   3.805634 1.330634 1.627658 0.000002 -0.000011 -0.000026
 22   -0.246060 -0.011889 0.516521 -0.000011 0.000031 0.000025
 23   3.805651 1.330659 -1.631083 0.000019 0.000002 -0.000024
 24   -0.246150 -0.011872 -0.516511 -0.000005 -0.000006 0.000048
 25   4.941364 1.997338 1.629330 0.000018 -0.000001 -0.000024
 26   4.941382 1.997366 -1.629410 -0.000001 0.000005 -0.000024
 27   2.930087 1.603639 1.514501 -0.000019 -0.000022 -0.000050
 28   2.932517 1.603245 -1.501142 -0.000002 -0.000009 -0.000024
 29   8.824059 0.150544 0.091743 0.003838 -0.001323 -0.163053
 30   2.111085 -0.561179 1.784320 -0.000103 0.006728 0.000496
 31   2.121290 -0.561289 -1.853599 0.000000 -0.009765 0.000544
 32   -0.810489 -0.093824 3.127092 0.262828 -3.097583 -0.334759
 33   14.298673 -0.408176 0.475484 0.003675 -0.003118 -0.522390
 34   15.835795 0.581398 0.242756 -0.001248 0.032043 0.122292
 35   -0.815868 -0.091229 -3.114430 -0.132801 3.034913 -0.011454
 36   14.294526 -0.410349 -0.463635 -0.002676 0.001857 -0.384687
 37   15.834409 0.579420 -0.284600 -0.034108 0.026558 0.304555
 38   1.139685 -3.453749 -2.823813 0.000400 -0.000277 0.000795
 39   -4.457742 -1.047041 -0.746180 0.000491 0.001127 -0.004459
 40   1.118101 -3.449769 3.237290 -0.000168 -0.000336 0.001405
 41   -4.433840 -1.051317 0.959566 0.000047 0.000108 -0.000449
 42   -0.657468 1.697302 -2.680801 0.003308 0.005169 -0.000418
 43   -0.664068 1.698578 2.861564 -0.003886 -0.005851 0.001004
time 3
  0   0.009046 4.281381 1.527761 0.000000 0.000000 -1.571544
  1   -1.093036 0.000002 -0.326057 -1.570809 -1.570379 -0.000026
  2   2.262337 0.113614 0.064702 0.000241 0.025300 0.010342
  3   2.380047 0.353302 0.047440 -0.074555 -0.032746 0.003877
  4   2.033756 0.190472 -0.000128 -0.142055 -0.049149 -0.223669
  5   2.451511 0.204909 -0.003447 -0.170638 -0.075884 -0.105117
  6   7.247600 -0.397300 -0.109469 0.000061 0.095970 0.470960
  7   -2.022252 -0.104661 3.136172 1.299361 -1.381176 -4.925491
  8   1.168026 -0.537438 -0.063437 -1.036363 0.419134 -1.070682
  9   6.790376 -0.619176 0.015206 -0.000102 -0.000151 -0.980475
 10   8.637599 0.544015 -0.090417 -3.048809 0.301774 -0.180837
 11   6.790465 -0.619039 0.017802 0.000359 -0.011452 -0.701471
 12   -2.022474 -0.104699 -2.873818 -2.708990 1.886349 -0.072164
 13   1.167898 -0.537463 0.063297 -0.632648 -1.057803 -0.220922
 14   7.002743 -0.617765 -0.183752 0.000115 0.000194 -2.015113
 15   8.209042 0.615527 -0.255885 1.716413 0.502392 0.011840
 16   7.002735 -0.617911 -0.183641 0.012744 0.011146 -1.429373
 17   1.574674 0.609930 -0.000899 0.354858 0.195260 -0.378969
 18   -0.602177 0.511412 -0.000006 0.000000 0.000000 0.000000
 19   3.646428 0.364526 1.119313 -0.000002 -0.000014 -0.174510
 20   3.646422 0.364499 -1.117566 0.000007 -0.000003 -0.174546
 21   3.805634 1.330634 1.627658 0.000002 -0.000011 -0.000026
 22   -0.246060 -0.011889 0.516521 -0.000011 0.000031 0.000025
 23   3.805651 1.330659 -1.631083 0.000019 0.000002 -0.000024
 24   -0.246150 -0.011872 -0.516511 -0.000005 -0.000006 0.000048
 25   4.941364 1.997338 1.629330 0.000018 -0.000001 -0.000024
 26   4.941382 1.997366 -1.629410 -0.000001 0.000005 -0.000024
 27   2.930087 1.603639 1.514501 -0.000019 -0.000022 -0.000050
 28   2.932517 1.603245 -1.501142 -0.000002 -0.000009 -0.000024
 29   8.824059 0.150544 0.091743 0.008472 -0.002629 -0.149802
 30   2.111085 -0.561179 1.776507 -0.000225 0.015185 0.001075
 31   2.129103 -0.561289 -1.845786 0.000031 -0.020902 0.001163
 32   -0.810489 -0.093824 3.127092 0.262828 -3.097583 -0.334759
 33   14.298673 -0.408176 0.475484 0.003675 -0.003118 -0.522390
 34   15.835795 0.581398 0.242756 -0.001248 0.032043 0.122292
 35   -0.815868 -0.091229 -3.114430 -0.132801 3.034913 -0.011454
 36   14.294526 -0.410349 -0.463635 -0.002676 0.001857 -0.384687
 37   15.834409 0.579420 -0.284600 -0.034108 0.026558 0.304555
 38   1.139685 -3.453749 -2.823813 0.000842 -0.000627 0.001895
 39   -4.457742 -1.027509 -0.746180 0.001091 0.002409 -0.009648
 40   1.118101 -3.449769 3.237290 -0.000400 -0.000746 0.003116
 41   -4.426027 -1.043504 0.959566 0.000107 0.000228 -0.000954
 42   -0.649655 1.697302 -2.661269 0.007095 0.011057 -0.001046
 43   -0.664068 1.698578 2.849845 -0.008309 -0.012520 0.002133
time 4
  0   0.009046 4.281381 1.527761 0.000000 0.000000 -1.571544
  1   -1.093036 0.000002 -0.326057 -1.570809 -1.570379 -0.000026
  2   2.262337 0.113614 0.064702 0.000241 0.025300 0.010342
  3   2.380047 0.353302 0.047440 -0.074735 -0.031799 0.006958
  4   2.033756 0.190472 -0.000128 -0.141022 -0.049856 -0.231607
  5   2.451511 0.204909 -0.003447 -0.170296 -0.077490 -0.114131
  6   7.247600 -0.397300 -0.109469 0.000636 0.096892 0.482712
  7   -2.022252 -0.104661 3.136172 1.294856 -1.381839 -4.933098
  8   1.168026 -0.537438 -0.063437 -1.033452 0.433222 -1.070176
  9   6.790376 -0.619176 0.015206 -0.000102 -0.000151 -0.976626
 10   8.637599 0.544015 -0.090417 -3.048721 0.301211 -0.185467
 11   6.790465 -0.619039 0.017802 0.000330 -0.011452 -0.698760
 12   -2.022474 -0.104699 -2.873818 -2.708702 1.882692 -0.083175
 13   1.167898 -0.537463 0.063297 -0.659781 -1.059379 -0.192410
 14   7.002743 -0.617765 -0.183752 0.000115 0.000194 -2.015278
 15   8.209042 0.615527 -0.255885 1.716053 0.502619 0.010878
 16   7.002735 -0.617911 -0.183641 0.012744 0.011146 -1.429373
 17   1.574674 0.609930 -0.000899 0.354086 0.193414 -0.385733
 18   -0.602177 0.511412 -0.000006 0.000000 0.000000 0.000000
 19   3.646428 0.364526 1.119313 -0.000002 -0.000014 -0.174510
 20   3.646422 0.364499 -1.117566 0.000007 -0.000003 -0.174546
 21   3.805634 1.330634 1.627658 0.000002 -0.000011 -0.000026
 22   -0.246060 -0.011889 0.516521 -0.000011 0.000031 0.000025
 23   3.805651 1.330659 -1.631083 0.000019 0.000002 -0.000024
 24   -0.246150 -0.011872 -0.516511 -0.000005 -0.000006 0.000048
 25   4.941364 1.997338 1.629330 0.000018 -0.000001 -0.000024
 26   4.941382 1.997366 -1.629410 -0.000001 0.000005 -0.000024
 27   2.930087 1.603639 1.514501 -0.000019 -0.000022 -0.000050
 28   2.932517 1.603245 -1.501142 -0.000002 -0.000009 -0.000024
 29   8.824059 0.150544 0.091743 0.014265 -0.004409 -0.132849
 30   2.118898 -0.561179 1.764788 -0.000361 0.026111 0.001804
 31   2.133009 -0.561289 -1.837973 0.000046 -0.035330 0.001945
 32   -0.810489 -0.093824 3.127092 0.262828 -3.097583 -0.334759
 33   14.298673 -0.408176 0.475484 0.003675 -0.003118 -0.522390
 34   15.835795 0.581398 0.242756 -0.001248 0.032043 0.122292
 35   -0.815868 -0.091229 -3.114430 -0.132801 3.034913 -0.011454
 36   14.294526 -0.410349 -0.463635 -0.002676 0.001857 -0.384687
 37   15.834409 0.579420 -0.284600 -0.034108 0.026558 0.304555
 38   1.147498 -3.453749 -2.823813 0.001410 -0.001073 0.003239
 39   -4.457742 -1.011884 -0.738367 0.001846 0.004075 -0.016267
 40   1.110288 -3.449769 3.237290 -0.000674 -0.001276 0.005254
 41   -4.410401 -1.031785 0.967379 0.000191 0.000384 -0.001599
 42   -0.649655 1.697302 -2.641737 0.011973 0.018631 -0.001756
 43   -0.664068 1.698578 2.830313 -0.014031 -0.021134 0.003638
time 5
  0   0.009046 4.281381 1.527761 0.000000 0.000000 -1.571544
  1   -1.093036 0.000002 -0.326057 -1.570809 -1.570379 -0.000026
  2   2.262337 0.113614 0.064702 0.000241 0.025300 0.010342
  3   2.380047 0.353302 0.047440 -0.074945 -0.030924 0.009937
  4   2.033756 0.190472 -0.000128 -0.140063 -0.050491 -0.238784
  5   2.451511 0.204909 -0.003447 -0.169902 -0.078952 -0.122601
  6   7.247600 -0.397300 -0.109469 0.002386 0.099313 0.513089
  7   -2.022252 -0.104661 3.136172 1.283641 -1.383655 -4.951974
  8   1.168026 -0.537438 -0.063437 -1.030288 0.446706 -1.069797
  9   6.790376 -0.619176 0.015206 -0.000102 -0.000151 -0.973909
 10   8.637599 0.544015 -0.090417 -3.048633 0.300014 -0.188867
 11   6.790465 -0.619039 0.017802 0.000330 -0.011452 -0.697030
 12   -2.022474 -0.104699 -2.873818 -2.705924 1.876016 -0.109599
 13   1.167898 -0.537463 0.063297 -0.686352 -1.061311 -0.165109
 14   7.002743 -0.617765 -0.183752 0.000115 0.000194 -2.015443
 15   8.209042 0.615527 -0.255885 1.715334 0.503148 0.009194
 16   7.002735 -0.617911 -0.183641 0.012744 0.011146 -1.429428
 17   1.574674 0.609930 -0.000899 0.353639 0.191710 -0.404509
 18   -0.602177 0.511412 -0.000006 0.000000 0.000000 0.000000
 19   3.646428 0.364526 1.119313 -0.000002 -0.000014 -0.174510
 20   3.646422 0.364499 -1.117566 0.000007 -0.000003 -0.174546
 21   3.805634 1.330634 1.627658 0.000002 -0.000011 -0.000026
 22   -0.246060 -0.011889 0.516521 -0.000011 0.000031 0.000025
 23   3.805651 1.330659 -1.631083 0.000019 0.000002 -0.000024
 24   -0.246150 -0.011872 -0.516511 -0.000005 -0.000006 0.000048
 25   4.941364 1.997338 1.629330 0.000018 -0.000001 -0.000024
 26   4.941382 1.997366 -1.629410 -0.000001 0.000005 -0.000024
 27   2.930087 1.603639 1.514501 -0.000019 -0.000022 -0.000050
 28   2.932517 1.603245 -1.501142 -0.000002 -0.000009 -0.000024
 29   8.824059 0.150544 0.091743 0.021038 -0.006617 -0.112785
 30   2.122804 -0.561179 1.753069 -0.000537 0.038927 0.002640
 31   2.140822 -0.561289 -1.834067 0.000092 -0.052191 0.002891
 32   -0.810489 -0.093824 3.127092 0.262828 -3.097583 -0.334759
 33   14.298673 -0.408176 0.475484 0.003675 -0.003118 -0.522390
 34   15.835795 0.581398 0.242756 -0.001248 0.032043 0.122292
 35   -0.815868 -0.091229 -3.114430 -0.132801 3.034913 -0.011454
 36   14.294526 -0.410349 -0.463635 -0.002676 0.001857 -0.384687
 37   15.834409 0.579420 -0.284600 -0.034108 0.026558 0.304555
 38   1.147498 -3.453749 -2.823813 0.002126 -0.001579 0.004766
 39   -4.457742 -0.992352 -0.734461 0.002721 0.006016 -0.024035
 40   1.110288 -3.449769 3.237290 -0.000989 -0.001903 0.007820
 41   -4.402589 -1.020066 0.967379 0.000287 0.000575 -0.002384
 42   -0.637936 1.697302 -2.618299 0.017689 0.027570 -0.002635
 43   -0.664068 1.690765 2.806875 -0.020753 -0.031240 0.005395
time 6
  0   0.009046 4.281381 1.527761 0.000000 0.000000 -1.571544
  1   -1.093036 0.000002 -0.326057 -1.570809 -1.570379 -0.000026
  2   2.262337 0.113614 0.064702 0.000241 0.025300 0.010342
  3   2.380047 0.353302 0.047440 -0.075350 -0.029270 0.015610
  4   2.033756 0.190472 -0.000128 -0.138385 -0.051642 -0.251797
  5   2.451511 0.204909 -0.003447 -0.169183 -0.081746 -0.138946
  6   7.247600 -0.397300 -0.109469 0.004855 0.102585 0.555250
  7   -2.022252 -0.104661 3.136172 1.268303 -1.386220 -4.978552
  8   1.168026 -0.537438 -0.063437 -1.024403 0.471461 -1.068595
  9   6.790376 -0.619176 0.015206 -0.000102 -0.000151 -0.969381
 10   8.637599 0.544015 -0.090417 -3.048281 0.298043 -0.194944
 11   6.790465 -0.619039 0.017802 0.000242 -0.011395 -0.693800
 12   -2.022474 -0.104699 -2.873818 -2.700080 1.864146 -0.145119
 13   1.167898 -0.537463 0.063297 -0.736121 -1.065176 -0.113957
 14   7.002743 -0.617765 -0.183752 0.000115 0.000194 -2.015773
 15   8.209042 0.615527 -0.255885 1.714040 0.504132 0.006007
 16   7.002735 -0.617911 -0.183641 0.012744 0.011146 -1.429649
 17   1.574674 0.609930 -0.000899 0.352664 0.188586 -0.432785
 18   -0.602177 0.511412 -0.000006 0.000000 0.000000 0.000000
 19   3.646428 0.364526 1.119313 -0.000002 -0.000014 -0.174510
 20   3.646422 0.364499 -1.117566 0.000007 -0.000003 -0.174546
 21   3.805634 1.330634 1.627658 0.000002 -0.000011 -0.000026
 22   -0.246060 -0.011889 0.516521 -0.000011 0.000031 0.000025
 23   3.805651 1.330659 -1.631083 0.000019 0.000002 -0.000024
 24   -0.246150 -0.011872 -0.516511 -0.000005 -0.000006 0.000048
 25   4.941364 1.997338 1.629330 0.000018 -0.000001 -0.000024
 26   4.941382 1.997366 -1.629410 -0.000001 0.000005 -0.000024
 27   2.930087 1.603639 1.514501 -0.000019 -0.000022 -0.000050
 28   2.932517 1.603245 -1.501142 -0.000002 -0.000009 -0.000024
 29   8.824059 0.150544 0.091743 0.028525 -0.009228 -0.090682
 30   2.130617 -0.561179 1.741350 -0.000727 0.053079 0.003583
 31   2.152541 -0.561289 -1.822348 0.000138 -0.070866 0.003965
 32   -0.810489 -0.093824 3.127092 0.262828 -3.097583 -0.334759
 33   14.298673 -0.408176 0.475484 0.003675 -0.003118 -0.522390
 34   15.835795 0.581398 0.242756 -0.001248 0.032043 0.122292
 35   -0.815868 -0.091229 -3.114430 -0.132801 3.034913 -0.011454
 36   14.294526 -0.410349 -0.463635 -0.002676 0.001857 -0.384687
 37   15.834409 0.579420 -0.284600 -0.034108 0.026558 0.304555
 38   1.155311 -3.453749 -2.823813 0.002884 -0.002145 0.006538
 39   -4.457742 -0.961101 -0.726648 0.003691 0.008162 -0.032645
 40   1.106382 -3.449769 3.237290 -0.001347 -0.002602 0.010692
 41   -4.386963 -1.000534 0.979098 0.000383 0.000791 -0.003225
 42   -0.637936 1.697302 -2.594861 0.024017 0.037413 -0.003597
 43   -0.664068 1.690765 2.787343 -0.028187 -0.042428 0.007319
time 7
  0   0.009046 4.281381 1.527761 0.000000 0.000000 -1.571544
  1   -1.093036 0.000002 -0.326057 -1.570809 -1.570379 -0.000026
  2   2.262337 0.113614 0.064702 0.000241 0.025300 0.010342
  3   2.380047 0.353302 0.047440 -0.075560 -0.028467 0.018324
  4   2.033756 0.190472 -0.000128 -0.137647 -0.052145 -0.257524
  5   2.451511 0.204909 -0.003447 -0.168858 -0.082973 -0.146351
  6   7.247600 -0.397300 -0.109469 0.006053 0.104239 0.576283
  7   -2.022252 -0.104661 3.136172 1.260443 -1.387547 -4.992169
  8   1.168026 -0.537438 -0.063437 -1.021682 0.482530 -1.068215
  9   6.790376 -0.619176 0.015206 -0.000102 -0.000151 -0.968098
 10   8.637599 0.544015 -0.090417 -3.048193 0.297269 -0.197404
 11   6.790465 -0.619039 0.017802 0.000242 -0.011395 -0.692935
 12   -2.022474 -0.104699 -2.873818 0.443638 1.283551 -3.303714
 13   1.167898 -0.537463 0.063297 -0.758755 -1.067210 -0.090772
 14   7.002743 -0.617765 -0.183752 0.000115 0.000194 -2.015938
 15   8.209042 0.615527 -0.255885 1.713321 0.504662 0.004323
 16   7.002735 -0.617911 -0.183641 0.012744 0.011146 -1.429759
 17   1.574674 0.609930 -0.000899 0.352380 0.187237 -0.448160
 18   -0.602177 0.511412 -0.000006 0.000000 0.000000 0.000000
 19   3.646428 0.364526 1.119313 -0.000002 -0.000014 -0.174510
 20   3.646422 0.364499 -1.117566 0.000007 -0.000003 -0.174546
 21   3.805634 1.330634 1.627658 0.000002 -0.000011 -0.000026
 22   -0.246060 -0.011889 0.516521 -0.000011 0.000031 0.000025
 23   3.805651 1.330659 -1.631083 0.000019 0.000002 -0.000024
 24   -0.246150 -0.011872 -0.516511 -0.000005 -0.000006 0.000048
 25   4.941364 1.997338 1.629330 0.000018 -0.000001 -0.000024
 26   4.941382 1.997366 -1.629410 -0.000001 0.000005 -0.000024
 27   2.930087 1.603639 1.514501 -0.000019 -0.000022 -0.000050
 28   2.932517 1.603245 -1.501142 -0.000002 -0.000009 -0.000024
 29   8.824059 0.150544 0.091743 0.036367 -0.012124 -0.067345
 30   2.138430 -0.561179 1.721818 -0.000944 0.068074 0.004570
 31   2.160354 -0.561289 -1.814535 0.000184 -0.090655 0.005075
 32   -0.810489 -0.093824 3.127092 0.262828 -3.097583 -0.334759
 33   14.298673 -0.408176 0.475484 0.003675 -0.003118 -0.522390
 34   15.835795 0.581398 0.242756 -0.001248 0.032043 0.122292
 35   -0.815868 -0.091229 -3.114430 -0.132801 3.034913 -0.011454
 36   14.294526 -0.410349 -0.463635 -0.002676 0.001857 -0.384687
 37   15.834409 0.579420 -0.284600 -0.034108 0.026558 0.304555
 38   1.159217 -3.461562 -2.823813 0.003684 -0.002748 0.008371
 39   -4.465555 -0.937663 -0.718835 0.004734 0.010463 -0.041760
 40   1.098569 -3.441956 3.237290 -0.001726 -0.003325 0.013624
 41   -4.371338 -0.988815 0.979098 0.000490 0.001019 -0.004151
 42   -0.626217 1.697302 -2.563610 0.030717 0.047854 -0.004558
 43   -0.664068 1.686859 2.763905 -0.036033 -0.054275 0.009284
time 8
  0   0.009046 4.281381 1.527761 0.000000 0.000000 -1.571544
  1   -1.093036 0.000002 -0.326057 -1.570809 -1.570379 -0.000026
  2   2.262337 0.113614 0.064702 0.000241 0.025300 0.010342
  3   2.380047 0.353302 0.047440 -0.075710 -0.027856 0.020446
  4   2.033756 0.190472 -0.000128 -0.137186 -0.052421 -0.261040
  5   2.451511 0.204909 -0.003447 -0.168447 -0.083939 -0.153038
  6   7.247600 -0.397300 -0.109469 0.007384 0.105797 0.597379
  7   -2.022252 -0.104661 3.136172 1.252487 -1.388901 -5.005599
  8   1.168026 -0.537438 -0.063437 -1.019214 0.491486 -1.067772
  9   6.790376 -0.619176 0.015206 -0.000102 -0.000151 -0.967872
 10   8.637599 0.544015 -0.090417 -3.047752 0.296354 -0.198706
 11   6.790465 -0.619039 0.017802 0.000242 -0.011395 -0.692589
 12   -2.022474 -0.104699 -2.873818 0.447662 1.289791 -3.320277
 13   1.167898 -0.537463 0.063297 -0.777102 -1.069448 -0.072309
 14   7.002743 -0.617765 -0.183752 0.000115 0.000194 -2.016103
 15   8.209042 0.615527 -0.255885 1.712602 0.505267 0.002459
 16   7.002735 -0.617911 -0.183641 0.012744 0.011146 -1.429980
 17   1.574674 0.609930 -0.000899 0.352298 0.186314 -0.466086
 18   -0.602177 0.511412 -0.000006 0.000000 0.000000 0.000000
 19   3.646428 0.364526 1.119313 -0.000002 -0.000014 -0.174510
 20   3.646422 0.364499 -1.117566 0.000007 -0.000003 -0.174546
 21   3.805634 1.330634 1.627658 0.000002 -0.000011 -0.000026
 22   -0.246060 -0.011889 0.516521 -0.000011 0.000031 0.000025
 23   3.805651 1.330659 -1.631083 0.000019 0.000002 -0.000024
 24   -0.246150 -0.011872 -0.516511 -0.000005 -0.000006 0.000048
 25   4.941364 1.997338 1.629330 0.000018 -0.000001 -0.000024
 26   4.941382 1.997366 -1.629410 -0.000001 0.000005 -0.000024
 27   2.930087 1.603639 1.514501 -0.000019 -0.000022 -0.000050
 28   2.932517 1.603245 -1.501142 -0.000002 -0.000009 -0.000024
 29   8.824059 0.150544 0.091743 0.044210 -0.015305 -0.043579
 30   2.142336 -0.561179 1.710099 -0.001161 0.083331 0.005578
 31   2.172073 -0.561289 -1.802816 0.000215 -0.110755 0.006203
 32   -0.810489 -0.093824 3.127092 0.262828 -3.097583 -0.334759
 33   14.298673 -0.408176 0.475484 0.003675 -0.003118 -0.522390
 34   15.835795 0.581398 0.242756 -0.001248 0.032043 0.122292
 35   -0.815868 -0.091229 -3.114430 -0.132801 3.034913 -0.011454
 36   14.294526 -0.410349 -0.463635 -0.002676 0.001857 -0.384687
 37   15.834409 0.579420 -0.284600 -0.034108 0.026558 0.304555
 38   1.159217 -3.461562 -2.823813 0.004505 -0.003350 0.010326
 39   -4.465555 -0.910318 -0.714929 0.005789 0.012776 -0.051015
 40   1.098569 -3.441956 3.237290 -0.002126 -0.004048 0.016740
 41   -4.355712 -0.965377 0.990817 0.000610 0.001234 -0.005048
 42   -0.618404 1.697302 -2.536265 0.037548 0.058464 -0.005646
 43   -0.664068 1.679046 2.736560 -0.044042 -0.066310 0.011417
time 9
  0   0.009046 4.281381 1.527761 0.000000 0.000000 -1.571544
  1   -1.093036 0.000002 -0.326057 -1.570809 -1.570379 -0.000026
  2   2.262337 0.113614 0.064702 0.000241 0.025300 0.010342
  3   2.380047 0.353302 0.047440 -0.075980 -0.026826 0.024119
  4   2.033756 0.190472 -0.000128 -0.136430 -0.052900 -0.266477
  5   2.451511 0.204909 -0.003447 -0.167865 -0.085715 -0.166560
  6   7.247600 -0.397300 -0.109469 0.010212 0.108817 0.639603
  7   -2.022252 -0.104661 3.136172 1.237533 -1.391611 -5.032364
  8   1.168026 -0.537438 -0.063437 -1.014278 0.508845 -1.066887
  9   6.790376 -0.619176 0.015206 -0.000102 -0.000151 -0.967570
 10   8.637599 0.544015 -0.090417 -3.047664 0.294242 -0.201021
 11   6.790465 -0.619039 0.017802 0.000242 -0.011395 -0.692416
 12   -2.022474 -0.104699 -2.873818 0.454176 1.301807 -3.354935
 13   1.167898 -0.537463 0.063297 -0.812741 -1.073465 -0.036170
 14   7.002743 -0.617765 -0.183752 0.000115 0.000194 -2.016433
 15   8.209042 0.615527 -0.255885 1.711092 0.506175 -0.000969
 16   7.002735 -0.617911 -0.183641 0.012744 0.011146 -1.430201
 17   1.574674 0.609930 -0.000899 0.352380 0.184539 -0.502197
 18   -0.602177 0.511412 -0.000006 0.000000 0.000000 0.000000
 19   3.646428 0.364526 1.119313 -0.000002 -0.000014 -0.174510
 20   3.646422 0.364499 -1.117566 0.000007 -0.000003 -0.174546
 21   3.805634 1.330634 1.627658 0.000002 -0.000011 -0.000026
 22   -0.246060 -0.011889 0.516521 -0.000011 0.000031 0.000025
 23   3.805651 1.330659 -1.631083 0.000019 0.000002 -0.000024
 24   -0.246150 -0.011872 -0.516511 -0.000005 -0.000006 0.000048
 25   4.941364 1.997338 1.629330 0.000018 -0.000001 -0.000024
 26   4.941382 1.997366 -1.629410 -0.000001 0.000005 -0.000024
 27   2.930087 1.603639 1.514501 -0.000019 -0.000022 -0.000050
 28   2.932517 1.603245 -1.501142 -0.000002 -0.000009 -0.000024
 29   8.824059 0.150544 0.091743 0.051963 -0.018628 -0.020242
 30   2.150149 -0.561179 1.698380 -0.001378 0.098326 0.006607
 31   2.183792 -0.561289 -1.791097 0.000245 -0.130491 0.007313
 32   -0.810489 -0.093824 3.127092 0.262828 -3.097583 -0.334759
 33   14.298673 -0.408176 0.475484 0.003675 -0.003118 -0.522390
 34   15.835795 0.581398 0.242756 -0.001248 0.032043 0.122292
 35   -0.815868 -0.091229 -3.114430 -0.132801 3.034913 -0.011454
 36   14.294526 -0.410349 -0.463635 -0.002676 0.001857 -0.384687
 37   15.834409 0.579420 -0.284600 -0.034108 0.026558 0.304555
 38   1.167030 -3.461562 -2.823813 0.005304 -0.003965 0.012159
 39   -4.465555 -0.886880 -0.707116 0.006807 0.015065 -0.060130
 40   1.090756 -3.441956 3.237290 -0.002526 -0.004771 0.019734
 41   -4.343993 -0.953658 0.990817 0.000718 0.001450 -0.005974
 42   -0.614498 1.689489 -2.508921 0.044223 0.068921 -0.006650
 43   -0.664068 1.679046 2.713122 -0.051888 -0.078126 0.013466
time 10
  0   0.009046 4.281381 1.527761 0.000000 0.000000 -1.571544
  1   -1.093036 0.000002 -0.326057 -1.570809 -1.570379 -0.000026
  2   2.262337 0.113614 0.064702 0.000241 0.025300 0.010342
  3   2.380047 0.353302 0.047440 -0.076100 -0.026334 0.025670
  4   2.033756 0.190472 -0.000128 -0.136135 -0.053104 -0.268833
  5   2.451511 0.204909 -0.003447 -0.167557 -0.086511 -0.173692
  6   7.247600 -0.397300 -0.109469 0.012189 0.110962 0.669948
  7   -2.022252 -0.104661 3.136172 1.226413 -1.393629 -5.051898
  8   1.168026 -0.537438 -0.063437 -1.011810 0.517499 -1.066444
  9   6.790376 -0.619176 0.015206 -0.000102 -0.000151 -0.967570
 10   8.637599 0.544015 -0.090417 -3.047664 0.293327 -0.202323
 11   6.790465 -0.619039 0.017802 0.000242 -0.011395 -0.692416
 12   -2.022474 -0.104699 -2.873818 0.458200 1.308076 -3.380115
 13   1.167898 -0.537463 0.063297 -0.830877 -1.075143 -0.017949
 14   7.002743 -0.617765 -0.183752 0.000115 0.000194 -2.016598
 15   8.209042 0.615527 -0.255885 1.710373 0.506629 -0.002412
 16   7.002735 -0.617911 -0.183641 0.012744 0.011146 -1.430256
 17   1.574674 0.609930 -0.000899 0.352420 0.184042 -0.529696
 18   -0.602177 0.511412 -0.000006 0.000000 0.000000 0.000000
 19   3.646428 0.364526 1.119313 -0.000002 -0.000014 -0.174510
 20   3.646422 0.364499 -1.117566 0.000007 -0.000003 -0.174546
 21   3.805634 1.330634 1.627658 0.000002 -0.000011 -0.000026
 22   -0.246060 -0.011889 0.516521 -0.000011 0.000031 0.000025
 23   3.805651 1.330659 -1.631083 0.000019 0.000002 -0.000024
 24   -0.246150 -0.011872 -0.516511 -0.000005 -0.000006 0.000048
 25   4.941364 1.997338 1.629330 0.000018 -0.000001 -0.000024
 26   4.941382 1.997366 -1.629410 -0.000001 0.000005 -0.000024
 27   2.930087 1.603639 1.514501 -0.000019 -0.000022 -0.000050
 28   2.932517 1.603245 -1.501142 -0.000002 -0.000009 -0.000024
 29   8.824059 0.150544 0.091743 0.059093 -0.021928 0.001754
 30   2.154055 -0.553366 1.682754 -0.001554 0.112507 0.007529
 31   2.191605 -0.561289 -1.783284 0.000276 -0.149166 0.008350
 32   -0.810489 -0.093824 3.127092 0.262828 -3.097583 -0.334759
 33   14.298673 -0.408176 0.475484 0.003675 -0.003118 -0.522390
 34   15.835795 0.581398 0.242756 -0.001248 0.032043 0.122292
 35   -0.815868 -0.091229 -3.114430 -0.132801 3.034913 -0.011454
 36   14.294526 -0.410349 -0.463635 -0.002676 0.001857 -0.384687
 37   15.834409 0.579420 -0.284600 -0.034108 0.026558 0.304555
 38   1.170936 -3.465468 -2.823813 0.006062 -0.004519 0.013931
 39   -4.473368 -0.855629 -0.707116 0.007790 0.017222 -0.068740
 40   1.086850 -3.438050 3.237290 -0.002884 -0.005470 0.022544
 41   -4.332274 -0.934126 1.002536 0.000838 0.001678 -0.006815
 42   -0.606685 1.689489 -2.481576 0.050575 0.078764 -0.007611
 43   -0.664068 1.679046 2.689684 -0.059322 -0.089314 0.015390
time 11
  0   0.009046 4.281381 1.527761 0.000000 0.000000 -1.571544
  1   -1.093036 0.000002 -0.326057 -1.570809 -1.570379 -0.000026
  2   2.262337 0.113614 0.064702 0.000241 0.025300 0.010342
  3   2.380047 0.353302 0.047440 -0.076175 -0.026107 0.026466
  4   2.033756 0.190472 -0.000128 -0.136098 -0.053140 -0.269123
  5   2.451511 0.204909 -0.003447 -0.167283 -0.086916 -0.179066
  6   7.247600 -0.397300 -0.109469 0.012992 0.111777 0.681764
  7   -2.022252 -0.104661 3.136172 1.222291 -1.394465 -5.059599
  8   1.168026 -0.537438 -0.063437 -1.010228 0.523084 -1.066064
  9   6.790376 -0.619176 0.015206 -0.000102 -0.000151 -0.967721
 10   8.637599 0.544015 -0.090417 -3.047576 0.292412 -0.202902
 11   6.790465 -0.619039 0.017802 0.000242 -0.011395 -0.692589
 12   -2.022474 -0.104699 -2.873818 0.458584 1.312314 -3.391604
 13   1.167898 -0.537463 0.063297 -0.843108 -1.076567 -0.006084
 14   7.002743 -0.617765 -0.183752 0.000115 0.000194 -2.016763
 15   8.209042 0.615527 -0.255885 1.709870 0.506931 -0.003735
 16   7.002735 -0.617911 -0.183641 0.012744 0.011146 -1.430311
 17   1.574674 0.609930 -0.000899 0.352705 0.183190 -0.541043
 18   -0.602177 0.511412 -0.000006 0.000000 0.000000 0.000000
 19   3.646428 0.364526 1.119313 -0.000002 -0.000014 -0.174510
 20   3.646422 0.364499 -1.117566 0.000007 -0.000003 -0.174546
 21   3.805634 1.330634 1.627658 0.000002 -0.000011 -0.000026
 22   -0.246060 -0.011889 0.516521 -0.000011 0.000031 0.000025
 23   3.805651 1.330659 -1.631083 0.000019 0.000002 -0.000024
 24   -0.246150 -0.011872 -0.516511 -0.000005 -0.000006 0.000048
 25   4.941364 1.997338 1.629330 0.000018 -0.000001 -0.000024
 26   4.941382 1.997366 -1.629410 -0.000001 0.000005 -0.000024
 27   2.930087 1.603639 1.514501 -0.000019 -0.000022 -0.000050
 28   2.932517 1.603245 -1.501142 -0.000002 -0.000009 -0.000024
 29   8.824059 0.150544 0.091743 0.065599 -0.024990 0.021550
 30   2.161868 -0.553366 1.671035 -0.001744 0.125323 0.008387
 31   2.195511 -0.561289 -1.771565 0.000322 -0.166080 0.009296
 32   -0.810489 -0.093824 3.127092 0.262828 -3.097583 -0.334759
 33   14.298673 -0.408176 0.475484 0.003675 -0.003118 -0.522390
 34   15.835795 0.581398 0.242756 -0.001248 0.032043 0.122292
 35   -0.815868 -0.091229 -3.114430 -0.132801 3.034913 -0.011454
 36   14.294526 -0.410349 -0.463635 -0.002676 0.001857 -0.384687
 37   15.834409 0.579420 -0.284600 -0.034108 0.026558 0.304555
 38   1.178749 -3.465468 -2.823813 0.006778 -0.005037 0.015519
 39   -4.473368 -0.836097 -0.695397 0.008677 0.019151 -0.076509
 40   1.079037 -3.438050 3.237290 -0.003221 -0.006097 0.025110
 41   -4.316648 -0.922407 1.002536 0.000934 0.001870 -0.007628
 42   -0.594966 1.689489 -2.458138 0.056304 0.087703 -0.008490
 43   -0.664068 1.671233 2.670152 -0.066044 -0.099435 0.017147
time 12
  0   0.009046 4.281381 1.527761 0.000000 0.000000 -1.571544
  1   -1.093036 0.000002 -0.326057 -1.570809 -1.570379 -0.000026
  2   2.262337 0.113614 0.064702 0.000241 0.025300 0.010342
  3   2.380047 0.353302 0.047440 -0.076295 -0.025651 0.028017
  4   2.033756 0.190472 -0.000128 -0.136098 -0.053140 -0.269123
  5   2.451511 0.204909 -0.003447 -0.166975 -0.087412 -0.186347
  6   7.247600 -0.397300 -0.109469 0.012992 0.111777 0.681764
  7   -2.022252 -0.104661 3.136172 1.222291 -1.394465 -5.059599
  8   1.168026 -0.537438 -0.063437 -1.007760 0.530228 -1.065685
  9   6.790376 -0.619176 0.015206 -0.000102 -0.000151 -0.969004
 10   8.637599 0.544015 -0.090417 -3.047312 0.291356 -0.203119
 11   6.790465 -0.619039 0.017802 0.000242 -0.011395 -0.693511
 12   -2.022474 -0.104699 -2.873818 0.468547 1.317683 -3.380881
 13   1.167898 -0.537463 0.063297 -0.858433 -1.079364 0.008989
 14   7.002743 -0.617765 -0.183752 0.000115 0.000194 -2.016928
 15   8.209042 0.615527 -0.255885 1.709079 0.507537 -0.005780
 16   7.002735 -0.617911 -0.183641 0.012744 0.011146 -1.430532
 17   1.574674 0.609930 -0.000899 0.354248 0.179853 -0.525852
 18   -0.602177 0.511412 -0.000006 0.000000 0.000000 0.000000
 19   3.646428 0.364526 1.119313 -0.000002 -0.000014 -0.174510
 20   3.646422 0.364499 -1.117566 0.000007 -0.000003 -0.174546
 21   3.805634 1.330634 1.627658 0.000002 -0.000011 -0.000026
 22   -0.246060 -0.011889 0.516521 -0.000011 0.000031 0.000025
 23   3.805651 1.330659 -1.631083 0.000019 0.000002 -0.000024
 24   -0.246150 -0.011872 -0.516511 -0.000005 -0.000006 0.000048
 25   4.941364 1.997338 1.629330 0.000018 -0.000001 -0.000024
 26   4.941382 1.997366 -1.629410 -0.000001 0.000005 -0.000024
 27   2.930087 1.603639 1.514501 -0.000019 -0.000022 -0.000050
 28   2.932517 1.603245 -1.501142 -0.000002 -0.000009 -0.000024
 29   8.824059 0.150544 0.091743 0.070946 -0.027743 0.038503
 30   2.165774 -0.553366 1.659316 -0.001893 0.136221 0.009116
 31   2.207230 -0.561289 -1.763752 0.000337 -0.180429 0.010078
 32   -0.810489 -0.093824 3.127092 0.262828 -3.097583 -0.334759
 33   14.298673 -0.408176 0.475484 0.003675 -0.003118 -0.522390
 34   15.835795 0.581398 0.242756 -0.001248 0.032043 0.122292
 35   -0.815868 -0.091229 -3.114430 -0.132801 3.034913 -0.011454
 36   14.294526 -0.410349 -0.463635 -0.002676 0.001857 -0.384687
 37   15.834409 0.579420 -0.284600 -0.034108 0.026558 0.304555
 38   1.178749 -3.465468 -2.823813 0.007346 -0.005471 0.016802
 39   -4.473368 -0.820472 -0.695397 0.009432 0.020817 -0.083156
 40   1.079037 -3.438050 3.237290 -0.003473 -0.006627 0.027248
 41   -4.308836 -0.910688 1.010349 0.001018 0.002013 -0.008273
 42   -0.594966 1.689489 -2.438606 0.061157 0.095277 -0.009201
 43   -0.664068 1.667327 2.650620 -0.071766 -0.108033 0.018610
time 13
  0   0.009046 4.281381 1.527761 0.000000 0.000000 -1.571544
  1   -1.093036 0.000002 -0.326057 -1.570809 -1.570379 -0.000026
  2   2.262337 0.113614 0.064702 0.000241 0.025300 0.010342
  3   2.380047 0.353302 0.047440 -0.076310 -0.025555 0.028262
  4   2.033756 0.190472 -0.000128 -0.136135 -0.053104 -0.268833
  5   2.451511 0.204909 -0.003447 -0.166975 -0.087347 -0.186050
  6   7.247600 -0.397300 -0.109469 0.012992 0.111777 0.681764
  7   -2.022252 -0.104661 3.136172 1.222291 -1.394465 -5.059599
  8   1.168026 -0.537438 -0.063437 -1.007950 0.529826 -1.065811
  9   6.790376 -0.619176 0.015206 -0.000102 -0.000151 -0.969985
 10   8.637599 0.544015 -0.090417 -3.047312 0.290934 -0.202685
 11   6.790465 -0.619039 0.017802 0.000242 -0.011395 -0.694204
 12   -2.022474 -0.104699 -2.873818 0.472763 1.319860 -3.376764
 13   1.167898 -0.537463 0.063297 -0.857659 -1.081042 0.007960
 14   7.002743 -0.617765 -0.183752 0.000115 0.000194 -2.016928
 15   8.209042 0.615527 -0.255885 1.708863 0.507764 -0.006622
 16   7.002735 -0.617911 -0.183641 0.012744 0.011146 -1.430532
 17   1.574674 0.609930 -0.000899 0.355223 0.178504 -0.521861
 18   -0.602177 0.511412 -0.000006 0.000000 0.000000 0.000000
 19   3.646428 0.364526 1.119313 -0.000002 -0.000014 -0.174510
 20   3.646422 0.364499 -1.117566 0.000007 -0.000003 -0.174546
 21   3.805634 1.330634 1.627658 0.000002 -0.000011 -0.000026
 22   -0.246060 -0.011889 0.516521 -0.000011 0.000031 0.000025
 23   3.805651 1.330659 -1.631083 0.000019 0.000002 -0.000024
 24   -0.246150 -0.011872 -0.516511 -0.000005 -0.000006 0.000048
 25   4.941364 1.997338 1.629330 0.000018 -0.000001 -0.000024
 26   4.941382 1.997366 -1.629410 -0.000001 0.000005 -0.000024
 27   2.930087 1.603639 1.514501 -0.000019 -0.000022 -0.000050
 28   2.932517 1.603245 -1.501142 -0.000002 -0.000009 -0.000024
 29   8.824059 0.150544 0.091743 0.075135 -0.029951 0.051593
 30   2.169681 -0.553366 1.651503 -0.002015 0.144677 0.009652
 31   2.215043 -0.561289 -1.759846 0.000368 -0.191619 0.010715
 32   -0.810489 -0.093824 3.127092 0.262828 -3.097583 -0.334759
 33   14.298673 -0.408176 0.475484 0.003675 -0.003118 -0.522390
 34   15.835795 0.581398 0.242756 -0.001248 0.032043 0.122292
 35   -0.815868 -0.091229 -3.114430 -0.132801 3.034913 -0.011454
 36   14.294526 -0.410349 -0.463635 -0.002676 0.001857 -0.384687
 37   15.834409 0.579420 -0.284600 -0.034108 0.026558 0.304555
 38   1.178749 -3.473281 -2.823813 0.007788 -0.005808 0.017902
 39   -4.473368 -0.800940 -0.687584 0.009995 0.022112 -0.088288
 40   1.079037 -3.430237 3.237290 -0.003726 -0.007037 0.028959
 41   -4.301023 -0.902875 1.010349 0.001078 0.002145 -0.008778
 42   -0.587153 1.689489 -2.426887 0.064944 0.101180 -0.009744
 43   -0.664068 1.667327 2.638901 -0.076214 -0.114734 0.019781
time 14
  0   0.009046 4.281381 1.527761 0.000000 0.000000 -1.571544
  1   -1.093036 0.000002 -0.326057 -1.570809 -1.570379 -0.000026
  2   2.262337 0.113614 0.064702 0.000241 0.025300 0.010342
  3   2.380047 0.353302 0.047440 -0.076310 -0.025543 0.028262
  4   2.033756 0.190472 -0.000128 -0.136430 -0.052900 -0.266477
  5   2.451511 0.204909 -0.003447 -0.167129 -0.086694 -0.184143
  6   7.247600 -0.397300 -0.109469 0.012992 0.111777 0.681764
  7   -2.022252 -0.104661 3.136172 1.222291 -1.394465 -5.059599
  8   1.168026 -0.537438 -0.063437 -1.008456 0.526153 -1.066444
  9   6.790376 -0.619176 0.015206 -0.000102 -0.000151 -0.972551
 10   8.637599 0.544015 -0.090417 -3.047312 0.290652 -0.200225
 11   6.790465 -0.619039 0.017802 0.000330 -0.011452 -0.695991
 12   -2.022474 -0.104699 -2.873818 0.475254 1.321050 -3.374083
 13   1.167898 -0.537463 0.063297 -0.850911 -1.083331 0.000817
 14   7.002743 -0.617765 -0.183752 0.000115 0.000194 -2.016928
 15   8.209042 0.615527 -0.255885 1.708647 0.507915 -0.007103
 16   7.002735 -0.617911 -0.183641 0.012744 0.011146 -1.430532
 17   1.574674 0.609930 -0.000899 0.356645 0.177936 -0.521306
 18   -0.602177 0.511412 -0.000006 0.000000 0.000000 0.000000
 19   3.654241 0.270773 1.119313 -0.000002 -0.000014 -0.174510
 20   3.654235 0.270746 -1.117566 0.000007 -0.000003 -0.174546
 21   3.352495 1.260319 1.576875 0.000002 -0.000011 -0.000026
 22   -0.238247 -0.379088 0.496989 0.000083 -0.028708 0.445010
 23   3.364231 1.256438 -1.623270 0.000019 0.000002 -0.000024
 24   -0.164116 -0.285318 -0.528230 0.000091 -0.028733 0.445062
 25   4.535101 1.997338 1.637143 -0.032209 0.220343 0.007203
 26   4.531213 1.997366 -1.621597 0.035749 -0.204340 -0.020853
 27   3.117593 1.466916 1.506688 -0.000019 -0.000022 -0.000050
 28   3.120023 1.466522 -1.508955 -0.000002 -0.000009 -0.000024
 29   8.824059 0.150544 0.091743 0.077808 -0.031375 0.060015
 30   2.173587 -0.553366 1.647597 -0.002083 0.150169 0.010038
 31   2.215043 -0.561289 -1.759846 0.000383 -0.198819 0.011134
 32   -0.810489 -0.093824 3.127092 0.262828 -3.097583 -0.334759
 33   14.298673 -0.408176 0.475484 0.003675 -0.003118 -0.522390
 34   15.835795 0.581398 0.242756 -0.001248 0.032043 0.122292
 35   -0.815868 -0.091229 -3.114430 -0.132801 3.034913 -0.011454
 36   14.294526 -0.410349 -0.463635 -0.002676 0.001857 -0.384687
 37   15.834409 0.579420 -0.284600 -0.034108 0.026558 0.304555
 38   1.178749 -3.473281 -2.823813 0.008104 -0.006037 0.018574
 39   -4.473368 -0.793127 -0.687584 0.010391 0.022939 -0.091625
 40   1.079037 -3.430237 3.237290 -0.003852 -0.007302 0.030059
 41   -4.297117 -0.891156 1.018162 0.001126 0.002229 -0.009115
 42   -0.583247 1.689489 -2.415168 0.067389 0.104998 -0.010163
 43   -0.664068 1.667327 2.627182 -0.079063 -0.119049 0.020534
time 15
  0   0.009046 4.281381 1.527761 0.000000 0.000000 -1.571544
  1   -1.093036 0.000002 -0.326057 -1.570809 -1.570379 -0.000026
  2   2.262337 0.113614 0.064702 0.000241 0.025300 0.010342
  3   2.380047 0.353302 0.047440 -0.076205 -0.025975 0.027017
  4   2.033756 0.190472 -0.000128 -0.137186 -0.052421 -0.261040
  5   2.451511 0.204909 -0.003447 -0.167797 -0.084670 -0.171414
  6   7.247600 -0.397300 -0.109469 0.012992 0.111777 0.681764
  7   -2.022252 -0.104661 3.136172 1.222291 -1.394465 -5.059599
  8   1.168026 -0.537438 -0.063437 -1.012063 0.509901 -1.068215
  9   6.790376 -0.619176 0.015206 -0.000102 -0.000151 -0.979343
 10   8.637599 0.544015 -0.090417 -3.047312 0.290089 -0.194076
 11   6.790465 -0.619039 0.017802 0.000359 -0.011452 -0.700721
 12   -2.022474 -0.104699 -2.873818 -2.661374 1.818375 -0.228510
 13   1.167898 -0.537463 0.063297 -0.818787 -1.088976 -0.032477
 14   7.002743 -0.617765 -0.183752 0.000115 0.000194 -2.017093
 15   8.209042 0.615527 -0.255885 1.708144 0.508142 -0.007945
 16   7.002735 -0.617911 -0.183641 0.012697 0.011146 -1.430587
 17   1.574674 0.609930 -0.000899 0.359935 0.177368 -0.528181
 18   -0.602177 0.511412 -0.000006 0.000000 0.000000 0.000000
 19   3.673773 0.177020 1.119313 -0.000002 -0.000014 -0.174510
 20   3.673767 0.176993 -1.117566 0.000007 -0.000003 -0.174546
 21   2.899356 1.193911 1.522186 0.000002 -0.000011 -0.000026
 22   -0.226528 -0.754099 0.477457 0.000194 -0.057459 0.890061
 23   2.918905 1.182217 -1.611551 0.000019 0.000002 -0.000024
 24   -0.078176 -0.558764 -0.547762 0.000187 -0.057484 0.890104
 25   4.117120 1.989525 1.648862 -0.064411 0.440688 0.014417
 26   4.117138 1.989553 -1.609878 0.071523 -0.408734 -0.041694
 27   3.305099 1.322380 1.487156 -0.000019 -0.000022 -0.000050
 28   3.303622 1.321986 -1.528487 -0.000002 -0.000009 -0.000024
 29   8.824059 0.150544 0.091743 0.078789 -0.031898 0.063020
 30   2.173587 -0.553366 1.647597 -0.002110 0.152116 0.010166
 31   2.215043 -0.561289 -1.752033 0.000383 -0.201410 0.011261
 32   -0.810489 -0.093824 3.127092 0.262828 -3.097583 -0.334759
 33   14.298673 -0.408176 0.475484 0.003675 -0.003118 -0.522390
 34   15.835795 0.581398 0.242756 -0.001248 0.032043 0.122292
 35   -0.815868 -0.091229 -3.114430 -0.132801 3.034913 -0.011454
 36   14.294526 -0.410349 -0.463635 -0.002676 0.001857 -0.384687
 37   15.834409 0.579420 -0.284600 -0.034108 0.026558 0.304555
 38   1.182655 -3.473281 -2.823813 0.008188 -0.006122 0.018757
 39   -4.473368 -0.793127 -0.683678 0.010510 0.023238 -0.092803
 40   1.075131 -3.430237 3.237290 -0.003894 -0.007374 0.030364
 41   -4.297117 -0.891156 1.018162 0.001138 0.002253 -0.009199
 42   -0.583247 1.689489 -2.415168 0.068264 0.106347 -0.010288
 43   -0.664068 1.667327 2.627182 -0.080100 -0.120587 0.020785
time 16
  0   0.009046 4.281381 1.527761 0.000000 0.000000 -1.571544
  1   -1.093036 0.000002 -0.326057 -1.570809 -1.570379 -0.000026
  2   2.262337 0.113614 0.064702 0.000241 0.025300 0.010342
  3   2.380047 0.353302 0.047440 -0.076145 -0.026154 0.026262
  4   2.033756 0.190472 -0.000128 -0.137684 -0.052133 -0.257306
  5   2.451511 0.204909 -0.003447 -0.168156 -0.083456 -0.163118
  6   7.247600 -0.397300 -0.109469 0.012992 0.111777 0.681764
  7   -2.022252 -0.104661 3.136172 1.222291 -1.394465 -5.059599
  8   1.168026 -0.537438 -0.063437 -1.014531 0.498530 -1.069480
  9   6.790376 -0.619176 0.015206 -0.000102 -0.000151 -0.983569
 10   8.637599 0.544015 -0.090417 -3.047312 0.290089 -0.189880
 11   6.790465 -0.619039 0.017802 0.000359 -0.011452 -0.703720
 12   -2.022474 -0.104699 -2.873818 -2.659936 1.817620 -0.226786
 13   1.167898 -0.537463 0.063297 -0.795730 -1.092179 -0.056086
 14   7.002743 -0.617765 -0.183752 0.000115 0.000194 -2.017093
 15   8.209042 0.615527 -0.255885 1.708144 0.508218 -0.008246
 16   7.002735 -0.617911 -0.183641 0.012744 0.011146 -1.430587
 17   1.574674 0.609930 -0.000899 0.361925 0.177652 -0.534575
 18   -0.602177 0.511412 -0.000006 0.000000 0.000000 0.000000
 19   3.654241 0.270773 1.119313 -0.000002 -0.000014 -0.174510
 20   3.654235 0.270746 -1.117566 0.000007 -0.000003 -0.174546
 21   3.352495 1.260319 1.576875 0.000002 -0.000011 -0.000026
 22   -0.238247 -0.379088 0.496989 0.000083 -0.028708 0.445010
 23   3.364231 1.256438 -1.623270 0.000019 0.000002 -0.000024
 24   -0.164116 -0.285318 -0.528230 0.000091 -0.028733 0.445062
 25   4.535101 1.997338 1.637143 -0.032209 0.220343 0.007203
 26   4.531213 1.997366 -1.621597 0.035749 -0.204340 -0.020853
 27   3.117593 1.466916 1.506688 -0.000019 -0.000022 -0.000050
 28   3.120023 1.466522 -1.508955 -0.000002 -0.000009 -0.000024
 29   8.824059 0.150544 0.091743 0.077808 -0.031375 0.060015
 30   2.173587 -0.553366 1.647597 -0.002083 0.150169 0.010038
 31   2.215043 -0.561289 -1.759846 0.000383 -0.198819 0.011134
 32   -0.810489 -0.093824 3.127092 0.262828 -3.097583 -0.334759
 33   14.298673 -0.408176 0.475484 0.003675 -0.003118 -0.522390
 34   15.835795 0.581398 0.242756 -0.001248 0.032043 0.122292
 35   -0.815868 -0.091229 -3.114430 -0.132801 3.034913 -0.011454
 36   14.294526 -0.410349 -0.463635 -0.002676 0.001857 -0.384687
 37   15.834409 0.579420 -0.284600 -0.034108 0.026558 0.304555
 38   1.178749 -3.473281 -2.823813 0.008104 -0.006037 0.018574
 39   -4.473368 -0.793127 -0.687584 0.010391 0.022939 -0.091625
 40   1.079037 -3.430237 3.237290 -0.003852 -0.007302 0.030059
 41   -4.297117 -0.891156 1.018162 0.001126 0.002229 -0.009115
 42   -0.583247 1.689489 -2.415168 0.067389 0.104998 -0.010163
 43   -0.664068 1.667327 2.627182 -0.079063 -0.119049 0.020534
time 17
  0   0.009046 4.281381 1.527761 0.000000 0.000000 -1.571544
  1   -1.093036 0.000002 -0.326057 -1.570809 -1.570379 -0.000026
  2   2.262337 0.113614 0.064702 0.000241 0.025300 0.010342
  3   2.380047 0.353302 0.047440 -0.075980 -0.026826 0.024119
  4   2.033756 0.190472 -0.000128 -0.138514 -0.051558 -0.250782
  5   2.451511 0.204909 -0.003447 -0.168738 -0.081798 -0.151775
  6   7.247600 -0.397300 -0.109469 0.012992 0.111777 0.681764
  7   -2.022252 -0.104661 3.136172 1.222291 -1.394465 -5.059599
  8   1.168026 -0.537438 -0.063437 -1.017632 0.483486 -1.071062
  9   6.790376 -0.619176 0.015206 -0.000102 -0.000151 -0.988399
 10   8.637599 0.544015 -0.090417 -3.047312 0.290089 -0.184671
 11   6.790465 -0.619039 0.017802 0.000359 -0.011452 -0.707123
 12   -2.022474 -0.104699 -2.873818 -2.659841 1.817533 -0.226690
 13   1.167898 -0.537463 0.063297 -0.764730 -1.095230 -0.087685
 14   7.002743 -0.617765 -0.183752 0.000115 0.000194 -2.017093
 15   8.209042 0.615527 -0.255885 1.708144 0.508218 -0.008306
 16   7.002735 -0.617911 -0.183641 0.012744 0.011146 -1.430587
 17   1.574674 0.609930 -0.000899 0.364160 0.178504 -0.544481
 18   -0.602177 0.511412 -0.000006 0.000000 0.000000 0.000000
 19   3.646428 0.364526 1.119313 -0.000002 -0.000014 -0.174510
 20   3.646422 0.364499 -1.117566 0.000007 -0.000003 -0.174546
 21   3.805634 1.330634 1.627658 0.000002 -0.000011 -0.000026
 22   -0.246060 -0.011889 0.516521 -0.000011 0.000031 0.000025
 23   3.805651 1.330659 -1.631083 0.000019 0.000002 -0.000024
 24   -0.246150 -0.011872 -0.516511 -0.000005 -0.000006 0.000048
 25   4.941364 1.997338 1.629330 0.000018 -0.000001 -0.000024
 26   4.941382 1.997366 -1.629410 -0.000001 0.000005 -0.000024
 27   2.930087 1.603639 1.514501 -0.000019 -0.000022 -0.000050
 28   2.932517 1.603245 -1.501142 -0.000002 -0.000009 -0.000024
 29   8.824059 0.150544 0.091743 0.075135 -0.029951 0.051593
 30   2.169681 -0.553366 1.651503 -0.002015 0.144677 0.009652
 31   2.215043 -0.561289 -1.759846 0.000368 -0.191619 0.010715
 32   -0.810489 -0.093824 3.127092 0.262828 -3.097583 -0.334759
 33   14.298673 -0.408176 0.475484 0.003675 -0.003118 -0.522390
 34   15.835795 0.581398 0.242756 -0.001248 0.032043 0.122292
 35   -0.815868 -0.091229 -3.114430 -0.132801 3.034913 -0.011454
 36   14.294526 -0.410349 -0.463635 -0.002676 0.001857 -0.384687
 37   15.834409 0.579420 -0.284600 -0.034108 0.026558 0.304555
 38   1.178749 -3.473281 -2.823813 0.007788 -0.005808 0.017902
 39   -4.473368 -0.800940 -0.687584 0.009995 0.022112 -0.088288
 40   1.079037 -3.430237 3.237290 -0.003726 -0.007037 0.028959
 41   -4.301023 -0.902875 1.010349 0.001078 0.002145 -0.008778
 42   -0.587153 1.689489 -2.426887 0.064944 0.101180 -0.009744
 43   -0.664068 1.667327 2.638901 -0.076214 -0.114734 0.019781
time 18
  0   0.009046 4.281381 1.527761 0.000000 0.000000 -1.571544
  1   -1.093036 0.000002 -0.326057 -1.570809 -1.570379 -0.000026
  2   2.262337 0.113614 0.064702 0.000241 0.025300 0.010342
  3   2.380047 0.353302 0.047440 -0.075305 -0.029522 0.014814
  4   2.033756 0.190472 -0.000128 -0.140524 -0.050167 -0.235558
  5   2.451511 0.204909 -0.003447 -0.169731 -0.078378 -0.128694
  6   7.247600 -0.397300 -0.109469 0.012992 0.111777 0.681764
  7   -2.022252 -0.104661 3.136172 1.222291 -1.394465 -5.059599
  8   1.168026 -0.537438 -0.063437 -1.023770 0.454354 -1.073339
  9   6.790376 -0.619176 0.015206 -0.000102 -0.000151 -0.997304
 10   8.637599 0.544015 -0.090417 -3.047664 0.290441 -0.174977
 11   6.790465 -0.619039 0.017802 0.000359 -0.011452 -0.713294
 12   -2.022474 -0.104699 -2.873818 -2.660607 1.818027 -0.227839
 13   1.167898 -0.537463 0.063297 -0.704770 -1.099197 -0.149067
 14   7.002743 -0.617765 -0.183752 0.000115 0.000194 -2.017093
 15   8.209042 0.615527 -0.255885 1.708144 0.508218 -0.008005
 16   7.002735 -0.617911 -0.183641 0.012744 0.011146 -1.430587
 17   1.574674 0.609930 -0.000899 0.368790 0.180137 -0.562666
 18   -0.602177 0.511412 -0.000006 0.000000 0.000000 0.000000
 19   3.646428 0.364526 1.119313 -0.000002 -0.000014 -0.174510
 20   3.646422 0.364499 -1.117566 0.000007 -0.000003 -0.174546
 21   3.805634 1.330634 1.627658 0.000002 -0.000011 -0.000026
 22   -0.246060 -0.011889 0.516521 -0.000011 0.000031 0.000025
 23   3.805651 1.330659 -1.631083 0.000019 0.000002 -0.000024
 24   -0.246150 -0.011872 -0.516511 -0.000005 -0.000006 0.000048
 25   4.941364 1.997338 1.629330 0.000018 -0.000001 -0.000024
 26   4.941382 1.997366 -1.629410 -0.000001 0.000005 -0.000024
 27   2.930087 1.603639 1.514501 -0.000019 -0.000022 -0.000050
 28   2.932517 1.603245 -1.501142 -0.000002 -0.000009 -0.000024
 29   8.824059 0.150544 0.091743 0.070946 -0.027743 0.038503
 30   2.165774 -0.553366 1.659316 -0.001893 0.136221 0.009116
 31   2.207230 -0.561289 -1.763752 0.000337 -0.180429 0.010078
 32   -0.810489 -0.093824 3.127092 0.262828 -3.097583 -0.334759
 33   14.298673 -0.408176 0.475484 0.003675 -0.003118 -0.522390
 34   15.835795 0.581398 0.242756 -0.001248 0.032043 0.122292
 35   -0.815868 -0.091229 -3.114430 -0.132801 3.034913 -0.011454
 36   14.294526 -0.410349 -0.463635 -0.002676 0.001857 -0.384687
 37   15.834409 0.579420 -0.284600 -0.034108 0.026558 0.304555
 38   1.178749 -3.465468 -2.823813 0.007346 -0.005471 0.016802
 39   -4.473368 -0.820472 -0.695397 0.009432 0.020817 -0.083156
 40   1.079037 -3.438050 3.237290 -0.003473 -0.006627 0.027248
 41   -4.308836 -0.910688 1.010349 0.001018 0.002013 -0.008273
 42   -0.594966 1.689489 -2.438606 0.061157 0.095277 -0.009201
 43   -0.664068 1.667327 2.650620 -0.071766 -0.108033 0.018610
time 19
  0   0.009046 4.281381 1.527761 0.000000 0.000000 -1.571544
  1   -1.093036 0.000002 -0.326057 -1.570809 -1.570379 -0.000026
  2   2.262337 0.113614 0.064702 0.000241 0.025300 0.010342
  3   2.380047 0.353302 0.047440 -0.074795 -0.031560 0.007917
  4   2.033756 0.190472 -0.000128 -0.141594 -0.049400 -0.227076
  5   2.451511 0.204909 -0.003447 -0.170210 -0.076602 -0.116583
  6   7.247600 -0.397300 -0.109469 0.012189 0.110962 0.669948
  7   -2.022252 -0.104661 3.136172 1.226413 -1.393629 -5.051898
  8   1.168026 -0.537438 -0.063437 -1.026934 0.440920 -1.074415
  9   6.790376 -0.619176 0.015206 -0.000102 -0.000151 -1.001304
 10   8.637599 0.544015 -0.090417 -3.047664 0.290441 -0.170347
 11   6.790465 -0.619039 0.017802 0.000388 -0.011452 -0.716120
 12   -2.022474 -0.104699 -2.873818 -2.658595 1.819594 -0.214148
 13   1.167898 -0.537463 0.063297 -0.676511 -1.100519 -0.178003
 14   7.002743 -0.617765 -0.183752 0.000115 0.000194 -2.017093
 15   8.209042 0.615527 -0.255885 1.708216 0.508142 -0.007885
 16   7.002735 -0.617911 -0.183641 0.012744 0.011146 -1.430532
 17   1.574674 0.609930 -0.000899 0.368506 0.182480 -0.558046
 18   -0.602177 0.511412 -0.000006 0.000000 0.000000 0.000000
 19   3.646428 0.364526 1.119313 -0.000002 -0.000014 -0.174510
 20   3.646422 0.364499 -1.117566 0.000007 -0.000003 -0.174546
 21   3.805634 1.330634 1.627658 0.000002 -0.000011 -0.000026
 22   -0.246060 -0.011889 0.516521 -0.000011 0.000031 0.000025
 23   3.805651 1.330659 -1.631083 0.000019 0.000002 -0.000024
 24   -0.246150 -0.011872 -0.516511 -0.000005 -0.000006 0.000048
 25   4.941364 1.997338 1.629330 0.000018 -0.000001 -0.000024
 26   4.941382 1.997366 -1.629410 -0.000001 0.000005 -0.000024
 27   2.930087 1.603639 1.514501 -0.000019 -0.000022 -0.000050
 28   2.932517 1.603245 -1.501142 -0.000002 -0.000009 -0.000024
 29   8.824059 0.150544 0.091743 0.065599 -0.024990 0.021550
 30   2.161868 -0.553366 1.671035 -0.001744 0.125323 0.008387
 31   2.195511 -0.561289 -1.771565 0.000322 -0.166080 0.009296
 32   -0.810489 -0.093824 3.127092 0.262828 -3.097583 -0.334759
 33   14.298673 -0.408176 0.475484 0.003675 -0.003118 -0.522390
 34   15.835795 0.581398 0.242756 -0.001248 0.032043 0.122292
 35   -0.815868 -0.091229 -3.114430 -0.132801 3.034913 -0.011454
 36   14.294526 -0.410349 -0.463635 -0.002676 0.001857 -0.384687
 37   15.834409 0.579420 -0.284600 -0.034108 0.026558 0.304555
 38   1.178749 -3.465468 -2.823813 0.006778 -0.005037 0.015519
 39   -4.473368 -0.836097 -0.695397 0.008677 0.019151 -0.076509
 40   1.079037 -3.438050 3.237290 -0.003221 -0.006097 0.025110
 41   -4.316648 -0.922407 1.002536 0.000934 0.001870 -0.007628
 42   -0.594966 1.689489 -2.458138 0.056304 0.087703 -0.008490
 43   -0.664068 1.671233 2.670152 -0.066044 -0.099435 0.017147
time 20
  0   0.009046 4.281381 1.527761 0.000000 0.000000 -1.571544
  1   -1.093036 0.000002 -0.326057 -1.570809 -1.570379 -0.000026
  2   2.262337 0.113614 0.064702 0.000241 0.025300 0.010342
  3   2.380047 0.353302 0.047440 -0.074345 -0.033537 0.001081
  4   2.033756 0.190472 -0.000128 -0.142682 -0.048645 -0.218703
  5   2.451511 0.204909 -0.003447 -0.170638 -0.074957 -0.105216
  6   7.247600 -0.397300 -0.109469 0.010212 0.108817 0.639603
  7   -2.022252 -0.104661 3.136172 1.237533 -1.391611 -5.032364
  8   1.168026 -0.537438 -0.063437 -1.029655 0.427637 -1.075047
  9   6.790376 -0.619176 0.015206 -0.000102 -0.000151 -1.004549
 10   8.637599 0.544015 -0.090417 -3.047664 0.290934 -0.166368
 11   6.790465 -0.619039 0.017802 0.000388 -0.011452 -0.718312
 12   -2.022474 -0.104699 -2.873818 -2.655338 1.823135 -0.180830
 13   1.167898 -0.537463 0.063297 -0.648956 -1.100316 -0.206091
 14   7.002743 -0.617765 -0.183752 0.000115 0.000194 -2.016928
 15   8.209042 0.615527 -0.255885 1.708575 0.507915 -0.007344
 16   7.002735 -0.617911 -0.183641 0.012744 0.011146 -1.430532
 17   1.574674 0.609930 -0.000899 0.367815 0.186101 -0.546366
 18   -0.602177 0.511412 -0.000006 0.000000 0.000000 0.000000
 19   3.646428 0.364526 1.119313 -0.000002 -0.000014 -0.174510
 20   3.646422 0.364499 -1.117566 0.000007 -0.000003 -0.174546
 21   3.805634 1.330634 1.627658 0.000002 -0.000011 -0.000026
 22   -0.246060 -0.011889 0.516521 -0.000011 0.000031 0.000025
 23   3.805651 1.330659 -1.631083 0.000019 0.000002 -0.000024
 24   -0.246150 -0.011872 -0.516511 -0.000005 -0.000006 0.000048
 25   4.941364 1.997338 1.629330 0.000018 -0.000001 -0.000024
 26   4.941382 1.997366 -1.629410 -0.000001 0.000005 -0.000024
 27   2.930087 1.603639 1.514501 -0.000019 -0.000022 -0.000050
 28   2.932517 1.603245 -1.501142 -0.000002 -0.000009 -0.000024
 29   8.824059 0.150544 0.091743 0.059093 -0.021928 0.001754
 30   2.154055 -0.553366 1.682754 -0.001554 0.112507 0.007529
 31   2.191605 -0.561289 -1.783284 0.000276 -0.149166 0.008350
 32   -0.810489 -0.093824 3.127092 0.262828 -3.097583 -0.334759
 33   14.298673 -0.408176 0.475484 0.003675 -0.003118 -0.522390
 34   15.835795 0.581398 0.242756 -0.001248 0.032043 0.122292
 35   -0.815868 -0.091229 -3.114430 -0.132801 3.034913 -0.011454
 36   14.294526 -0.410349 -0.463635 -0.002676 0.001857 -0.384687
 37   15.834409 0.579420 -0.284600 -0.034108 0.026558 0.304555
 38   1.170936 -3.465468 -2.823813 0.006062 -0.004519 0.013931
 39   -4.473368 -0.855629 -0.707116 0.007790 0.017222 -0.068740
 40   1.086850 -3.438050 3.237290 -0.002884 -0.005470 0.022544
 41   -4.332274 -0.934126 1.002536 0.000838 0.001678 -0.006815
 42   -0.606685 1.689489 -2.481576 0.050575 0.078764 -0.007611
 43   -0.664068 1.679046 2.689684 -0.059322 -0.089314 0.015390
time 21
  0   0.009046 4.281381 1.527761 0.000000 0.000000 -1.571544
  1   -1.093036 0.000002 -0.326057 -1.570809 -1.570379 -0.000026
  2   2.262337 0.113614 0.064702 0.000241 0.025300 0.010342
  3   2.380047 0.353302 0.047440 -0.073610 -0.036138 -0.007877
  4   2.033756 0.190472 -0.000128 -0.144637 -0.047255 -0.203552
  5   2.451511 0.204909 -0.003447 -0.171374 -0.071902 -0.084586
  6   7.247600 -0.397300 -0.109469 0.007384 0.105797 0.597379
  7   -2.022252 -0.104661 3.136172 1.252487 -1.388901 -5.005599
  8   1.168026 -0.537438 -0.063437 -1.035667 0.399914 -1.076123
  9   6.790376 -0.619176 0.015206 -0.000102 -0.000151 -1.010888
 10   8.637599 0.544015 -0.090417 -3.048281 0.292060 -0.158193
 11   6.790465 -0.619039 0.017802 0.000476 -0.011452 -0.722926
 12   -2.022474 -0.104699 -2.873818 -2.653709 1.829985 -0.137843
 13   1.167898 -0.537463 0.063297 -0.591947 -1.098434 -0.264749
 14   7.002743 -0.617765 -0.183752 0.000115 0.000194 -2.016928
 15   8.209042 0.615527 -0.255885 1.709079 0.507537 -0.005780
 16   7.002735 -0.617911 -0.183641 0.012744 0.011146 -1.430532
 17   1.574674 0.609930 -0.000899 0.366800 0.192207 -0.530583
 18   -0.602177 0.511412 -0.000006 0.000000 0.000000 0.000000
 19   3.646428 0.364526 1.119313 -0.000002 -0.000014 -0.174510
 20   3.646422 0.364499 -1.117566 0.000007 -0.000003 -0.174546
 21   3.805634 1.330634 1.627658 0.000002 -0.000011 -0.000026
 22   -0.246060 -0.011889 0.516521 -0.000011 0.000031 0.000025
 23   3.805651 1.330659 -1.631083 0.000019 0.000002 -0.000024
 24   -0.246150 -0.011872 -0.516511 -0.000005 -0.000006 0.000048
 25   4.941364 1.997338 1.629330 0.000018 -0.000001 -0.000024
 26   4.941382 1.997366 -1.629410 -0.000001 0.000005 -0.000024
 27   2.930087 1.603639 1.514501 -0.000019 -0.000022 -0.000050
 28   2.932517 1.603245 -1.501142 -0.000002 -0.000009 -0.000024
 29   8.824059 0.150544 0.091743 0.051963 -0.018628 -0.020242
 30   2.150149 -0.561179 1.698380 -0.001378 0.098326 0.006607
 31   2.183792 -0.561289 -1.791097 0.000245 -0.130491 0.007313
 32   -0.810489 -0.093824 3.127092 0.262828 -3.097583 -0.334759
 33   14.298673 -0.408176 0.475484 0.003675 -0.003118 -0.522390
 34   15.835795 0.581398 0.242756 -0.001248 0.032043 0.122292
 35   -0.815868 -0.091229 -3.114430 -0.132801 3.034913 -0.011454
 36   14.294526 -0.410349 -0.463635 -0.002676 0.001857 -0.384687
 37   15.834409 0.579420 -0.284600 -0.034108 0.026558 0.304555
 38   1.167030 -3.461562 -2.823813 0.005304 -0.003965 0.012159
 39   -4.465555 -0.886880 -0.707116 0.006807 0.015065 -0.060130
 40   1.090756 -3.441956 3.237290 -0.002526 -0.004771 0.019734
 41   -4.343993 -0.953658 0.990817 0.000718 0.001450 -0.005974
 42   -0.614498 1.689489 -2.508921 0.044223 0.068921 -0.006650
 43   -0.664068 1.679046 2.713122 -0.051888 -0.078126 0.013466
time 22
  0   0.009046 4.281381 1.527761 0.000000 0.000000 -1.571544
  1   -1.093036 0.000002 -0.326057 -1.570809 -1.570379 -0.000026
  2   2.262337 0.113614 0.064702 0.000241 0.025300 0.010342
  3   2.380047 0.353302 0.047440 -0.073445 -0.036689 -0.009734
  4   2.033756 0.190472 -0.000128 -0.145485 -0.046656 -0.196810
  5   2.451511 0.204909 -0.003447 -0.171802 -0.070505 -0.075299
  6   7.247600 -0.397300 -0.109469 0.006053 0.104239 0.576283
  7   -2.022252 -0.104661 3.136172 1.260443 -1.387575 -4.992169
  8   1.168026 -0.537438 -0.063437 -1.039084 0.384417 -1.076882
  9   6.790376 -0.619176 0.015206 -0.000102 -0.000151 -1.013379
 10   8.637599 0.544015 -0.090417 -3.048633 0.292623 -0.154142
 11   6.790465 -0.619039 0.017802 0.000476 -0.011452 -0.724541
 12   -2.022474 -0.104699 -2.873818 -2.655434 1.834367 -0.118886
 13   1.167898 -0.537463 0.063297 -0.562705 -1.095942 -0.294532
 14   7.002743 -0.617765 -0.183752 0.000115 0.000194 -2.016763
 15   8.209042 0.615527 -0.255885 1.709582 0.507310 -0.004818
 16   7.002735 -0.617911 -0.183641 0.012744 0.011146 -1.430477
 17   1.574674 0.609930 -0.000899 0.366353 0.195331 -0.523154
 18   -0.602177 0.511412 -0.000006 0.000000 0.000000 0.000000
 19   3.646428 0.364526 1.119313 -0.000002 -0.000014 -0.174510
 20   3.646422 0.364499 -1.117566 0.000007 -0.000003 -0.174546
 21   3.805634 1.330634 1.627658 0.000002 -0.000011 -0.000026
 22   -0.246060 -0.011889 0.516521 -0.000011 0.000031 0.000025
 23   3.805651 1.330659 -1.631083 0.000019 0.000002 -0.000024
 24   -0.246150 -0.011872 -0.516511 -0.000005 -0.000006 0.000048
 25   4.941364 1.997338 1.629330 0.000018 -0.000001 -0.000024
 26   4.941382 1.997366 -1.629410 -0.000001 0.000005 -0.000024
 27   2.930087 1.603639 1.514501 -0.000019 -0.000022 -0.000050
 28   2.932517 1.603245 -1.501142 -0.000002 -0.000009 -0.000024
 29   8.824059 0.150544 0.091743 0.044210 -0.015305 -0.043579
 30   2.142336 -0.561179 1.710099 -0.001161 0.083331 0.005578
 31   2.172073 -0.561289 -1.802816 0.000215 -0.110755 0.006203
 32   -0.810489 -0.093824 3.127092 0.262828 -3.097583 -0.334759
 33   14.298673 -0.408176 0.475484 0.003675 -0.003118 -0.522390
 34   15.835795 0.581398 0.242756 -0.001248 0.032043 0.122292
 35   -0.815868 -0.091229 -3.114430 -0.132801 3.034913 -0.011454
 36   14.294526 -0.410349 -0.463635 -0.002676 0.001857 -0.384687
 37   15.834409 0.579420 -0.284600 -0.034108 0.026558 0.304555
 38   1.159217 -3.461562 -2.823813 0.004505 -0.003350 0.010326
 39   -4.465555 -0.910318 -0.714929 0.005789 0.012776 -0.051015
 40   1.098569 -3.441956 3.237290 -0.002126 -0.004048 0.016740
 41   -4.355712 -0.965377 0.990817 0.000610 0.001234 -0.005048
 42   -0.618404 1.697302 -2.536265 0.037548 0.058464 -0.005646
 43   -0.664068 1.679046 2.736560 -0.044042 -0.066310 0.011417
time 23
  0   0.009046 4.281381 1.527761 0.000000 0.000000 -1.571544
  1   -1.093036 0.000002 -0.326057 -1.570809 -1.570379 -0.000026
  2   2.262337 0.113614 0.064702 0.000241 0.025300 0.010342
  3   2.380047 0.353302 0.047440 -0.073400 -0.036857 -0.010346
  4   2.033756 0.190472 -0.000128 -0.145891 -0.046284 -0.193258
  5   2.451511 0.204909 -0.003447 -0.171956 -0.069735 -0.070123
  6   7.247600 -0.397300 -0.109469 0.004855 0.102585 0.555250
  7   -2.022252 -0.104661 3.136172 1.268303 -1.386220 -4.978552
  8   1.168026 -0.537438 -0.063437 -1.041552 0.375260 -1.077072
  9   6.790376 -0.619176 0.015206 -0.000102 -0.000151 -1.013756
 10   8.637599 0.544015 -0.090417 -3.048633 0.294031 -0.152695
 11   6.790465 -0.619039 0.017802 0.000476 -0.011452 -0.724887
 12   -2.022474 -0.104699 -2.873818 -2.661374 1.841536 -0.104716
 13   1.167898 -0.537463 0.063297 -0.543093 -1.091366 -0.314751
 14   7.002743 -0.617765 -0.183752 0.000115 0.000194 -2.016598
 15   8.209042 0.615527 -0.255885 1.710373 0.506704 -0.002653
 16   7.002735 -0.617911 -0.183641 0.012744 0.011146 -1.430256
 17   1.574674 0.609930 -0.000899 0.365459 0.197745 -0.510957
 18   -0.602177 0.511412 -0.000006 0.000000 0.000000 0.000000
 19   3.646428 0.364526 1.119313 -0.000002 -0.000014 -0.174510
 20   3.646422 0.364499 -1.117566 0.000007 -0.000003 -0.174546
 21   3.805634 1.330634 1.627658 0.000002 -0.000011 -0.000026
 22   -0.246060 -0.011889 0.516521 -0.000011 0.000031 0.000025
 23   3.805651 1.330659 -1.631083 0.000019 0.000002 -0.000024
 24   -0.246150 -0.011872 -0.516511 -0.000005 -0.000006 0.000048
 25   4.941364 1.997338 1.629330 0.000018 -0.000001 -0.000024
 26   4.941382 1.997366 -1.629410 -0.000001 0.000005 -0.000024
 27   2.930087 1.603639 1.514501 -0.000019 -0.000022 -0.000050
 28   2.932517 1.603245 -1.501142 -0.000002 -0.000009 -0.000024
 29   8.824059 0.150544 0.091743 0.036367 -0.012124 -0.067345
 30   2.138430 -0.561179 1.721818 -0.000944 0.068074 0.004570
 31   2.160354 -0.561289 -1.814535 0.000184 -0.090655 0.005075
 32   -0.810489 -0.093824 3.127092 0.262828 -3.097583 -0.334759
 33   14.298673 -0.408176 0.475484 0.003675 -0.003118 -0.522390
 34   15.835795 0.581398 0.242756 -0.001248 0.032043 0.122292
 35   -0.815868 -0.091229 -3.114430 -0.132801 3.034913 -0.011454
 36   14.294526 -0.410349 -0.463635 -0.002676 0.001857 -0.384687
 37   15.834409 0.579420 -0.284600 -0.034108 0.026558 0.304555
 38   1.159217 -3.461562 -2.823813 0.003684 -0.002748 0.008371
 39   -4.465555 -0.937663 -0.718835 0.004734 0.010463 -0.041760
 40   1.098569 -3.441956 3.237290 -0.001726 -0.003325 0.013624
 41   -4.371338 -0.988815 0.979098 0.000490 0.001019 -0.004151
 42   -0.626217 1.697302 -2.563610 0.030717 0.047854 -0.004558
 43   -0.664068 1.686859 2.763905 -0.036033 -0.054275 0.009284
time 24
  0   0.009046 4.281381 1.527761 0.000000 0.000000 -1.571544
  1   -1.093036 0.000002 -0.326057 -1.570809 -1.570379 -0.000026
  2   2.262337 0.113614 0.064702 0.000241 0.025300 0.010342
  3   2.380047 0.353302 0.047440 -0.073370 -0.037001 -0.010999
  4   2.033756 0.190472 -0.000128 -0.146444 -0.045937 -0.189017
  5   2.451511 0.204909 -0.003447 -0.172230 -0.068795 -0.063511
  6   7.247600 -0.397300 -0.109469 0.002386 0.099313 0.513089
  7   -2.022252 -0.104661 3.136172 1.283641 -1.383655 -4.951974
  8   1.168026 -0.537438 -0.063437 -1.043830 0.366304 -1.076629
  9   6.790376 -0.619176 0.015206 -0.000102 -0.000151 -1.011341
 10   8.637599 0.544015 -0.090417 -3.048809 0.296917 -0.152478
 11   6.790465 -0.619039 0.017802 0.000476 -0.011452 -0.723099
 12   -2.022474 -0.104699 -2.873818 -2.677373 1.858022 -0.080207
 13   1.167898 -0.537463 0.063297 -0.519544 -1.079720 -0.338904
 14   7.002743 -0.617765 -0.183752 0.000115 0.000194 -2.016103
 15   8.209042 0.615527 -0.255885 1.712602 0.505267 0.002459
 16   7.002735 -0.617911 -0.183641 0.012744 0.011146 -1.429980
 17   1.574674 0.609930 -0.000899 0.362982 0.201366 -0.479503
 18   -0.602177 0.511412 -0.000006 0.000000 0.000000 0.000000
 19   3.646428 0.364526 1.119313 -0.000002 -0.000014 -0.174510
 20   3.646422 0.364499 -1.117566 0.000007 -0.000003 -0.174546
 21   3.805634 1.330634 1.627658 0.000002 -0.000011 -0.000026
 22   -0.246060 -0.011889 0.516521 -0.000011 0.000031 0.000025
 23   3.805651 1.330659 -1.631083 0.000019 0.000002 -0.000024
 24   -0.246150 -0.011872 -0.516511 -0.000005 -0.000006 0.000048
 25   4.941364 1.997338 1.629330 0.000018 -0.000001 -0.000024
 26   4.941382 1.997366 -1.629410 -0.000001 0.000005 -0.000024
 27   2.930087 1.603639 1.514501 -0.000019 -0.000022 -0.000050
 28   2.932517 1.603245 -1.501142 -0.000002 -0.000009 -0.000024
 29   8.824059 0.150544 0.091743 0.028525 -0.009228 -0.090682
 30   2.130617 -0.561179 1.741350 -0.000727 0.053079 0.003583
 31   2.152541 -0.561289 -1.822348 0.000138 -0.070866 0.003965
 32   -0.810489 -0.093824 3.127092 0.262828 -3.097583 -0.334759
 33   14.298673 -0.408176 0.475484 0.003675 -0.003118 -0.522390
 34   15.835795 0.581398 0.242756 -0.001248 0.032043 0.122292
 35   -0.815868 -0.091229 -3.114430 -0.132801 3.034913 -0.011454
 36   14.294526 -0.410349 -0.463635 -0.002676 0.001857 -0.384687
 37   15.834409 0.579420 -0.284600 -0.034108 0.026558 0.304555
 38   1.155311 -3.453749 -2.823813 0.002884 -0.002145 0.006538
 39   -4.457742 -0.961101 -0.726648 0.003691 0.008162 -0.032645
 40   1.106382 -3.449769 3.237290 -0.001347 -0.002602 0.010692
 41   -4.386963 -1.000534 0.979098 0.000383 0.000791 -0.003225
 42   -0.637936 1.697302 -2.594861 0.024017 0.037413 -0.003597
 43   -0.664068 1.690765 2.787343 -0.028187 -0.042428 0.007319
time 25
  0   0.009046 4.281381 1.527761 0.000000 0.000000 -1.571544
  1   -1.093036 0.000002 -0.326057 -1.570809 -1.570379 -0.000026
  2   2.262337 0.113614 0.064702 0.000241 0.025300 0.010342
  3   2.380047 0.353302 0.047440 -0.073370 -0.037001 -0.010958
  4   2.033756 0.190472 -0.000128 -0.146518 -0.045889 -0.188582
  5   2.451511 0.204909 -0.003447 -0.172247 -0.068664 -0.062768
  6   7.247600 -0.397300 -0.109469 0.000636 0.096892 0.482712
  7   -2.022252 -0.104661 3.136172 1.294856 -1.381839 -4.933098
  8   1.168026 -0.537438 -0.063437 -1.045855 0.359763 -1.075680
  9   6.790376 -0.619176 0.015206 -0.000102 -0.000151 -1.009228
 10   8.637599 0.544015 -0.090417 -3.048809 0.298395 -0.153346
 11   6.790465 -0.619039 0.017802 0.000476 -0.011452 -0.721657
 12   -2.022474 -0.104699 -2.873818 -2.688966 1.867512 -0.062207
 13   1.167898 -0.537463 0.063297 -0.512796 -1.073211 -0.346471
 14   7.002743 -0.617765 -0.183752 0.000115 0.000194 -2.015938
 15   8.209042 0.615527 -0.255885 1.713680 0.504435 0.005285
 16   7.002735 -0.617911 -0.183641 0.012744 0.011146 -1.429704
 17   1.574674 0.609930 -0.000899 0.361032 0.203354 -0.454555
 18   -0.602177 0.511412 -0.000006 0.000000 0.000000 0.000000
 19   3.646428 0.364526 1.119313 -0.000002 -0.000014 -0.174510
 20   3.646422 0.364499 -1.117566 0.000007 -0.000003 -0.174546
 21   3.805634 1.330634 1.627658 0.000002 -0.000011 -0.000026
 22   -0.246060 -0.011889 0.516521 -0.000011 0.000031 0.000025
 23   3.805651 1.330659 -1.631083 0.000019 0.000002 -0.000024
 24   -0.246150 -0.011872 -0.516511 -0.000005 -0.000006 0.000048
 25   4.941364 1.997338 1.629330 0.000018 -0.000001 -0.000024
 26   4.941382 1.997366 -1.629410 -0.000001 0.000005 -0.000024
 27   2.930087 1.603639 1.514501 -0.000019 -0.000022 -0.000050
 28   2.932517 1.603245 -1.501142 -0.000002 -0.000009 -0.000024
 29   8.824059 0.150544 0.091743 0.021038 -0.006617 -0.112785
 30   2.122804 -0.561179 1.753069 -0.000537 0.038927 0.002640
 31   2.140822 -0.561289 -1.834067 0.000092 -0.052191 0.002891
 32   -0.810489 -0.093824 3.127092 0.262828 -3.097583 -0.334759
 33   14.298673 -0.408176 0.475484 0.003675 -0.003118 -0.522390
 34   15.835795 0.581398 0.242756 -0.001248 0.032043 0.122292
 35   -0.815868 -0.091229 -3.114430 -0.132801 3.034913 -0.011454
 36   14.294526 -0.410349 -0.463635 -0.002676 0.001857 -0.384687
 37   15.834409 0.579420 -0.284600 -0.034108 0.026558 0.304555
 38   1.147498 -3.453749 -2.823813 0.002126 -0.001579 0.004766
 39   -4.457742 -0.992352 -0.734461 0.002721 0.006016 -0.024035
 40   1.110288 -3.449769 3.237290 -0.000989 -0.001903 0.007820
 41   -4.402589 -1.020066 0.967379 0.000287 0.000575 -0.002384
 42   -0.637936 1.697302 -2.618299 0.017689 0.027570 -0.002635
 43   -0.664068 1.690765 2.806875 -0.020753 -0.031240 0.005395
time 26
  0   0.009046 4.281381 1.527761 0.000000 0.000000 -1.571544
  1   -1.093036 0.000002 -0.326057 -1.570809 -1.570379 -0.000026
  2   2.262337 0.113614 0.064702 0.000241 0.025300 0.010342
  3   2.380047 0.353302 0.047440 -0.073385 -0.036917 -0.010550
  4   2.033756 0.190472 -0.000128 -0.146518 -0.045889 -0.188437
  5   2.451511 0.204909 -0.003447 -0.172247 -0.068651 -0.062669
  6   7.247600 -0.397300 -0.109469 0.000061 0.095970 0.470960
  7   -2.022252 -0.104661 3.136172 1.299361 -1.381176 -4.925491
  8   1.168026 -0.537438 -0.063437 -1.047690 0.357700 -1.075174
  9   6.790376 -0.619176 0.015206 -0.000102 -0.000151 -1.006209
 10   8.637599 0.544015 -0.090417 -3.048897 0.299803 -0.155444
 11   6.790465 -0.619039 0.017802 0.000388 -0.011452 -0.719523
 12   -2.022474 -0.104699 -2.873818 -2.693086 1.875494 -0.055122
 13   1.167898 -0.537463 0.063297 -0.513499 -1.067414 -0.345442
 14   7.002743 -0.617765 -0.183752 0.000115 0.000194 -2.015608
 15   8.209042 0.615527 -0.255885 1.714831 0.503527 0.007811
 16   7.002735 -0.617911 -0.183641 0.012744 0.011146 -1.429649
 17   1.574674 0.609930 -0.000899 0.359854 0.203922 -0.440140
 18   -0.602177 0.511412 -0.000006 0.000000 0.000000 0.000000
 19   3.646428 0.364526 1.119313 -0.000002 -0.000014 -0.174510
 20   3.646422 0.364499 -1.117566 0.000007 -0.000003 -0.174546
 21   3.805634 1.330634 1.627658 0.000002 -0.000011 -0.000026
 22   -0.246060 -0.011889 0.516521 -0.000011 0.000031 0.000025
 23   3.805651 1.330659 -1.631083 0.000019 0.000002 -0.000024
 24   -0.246150 -0.011872 -0.516511 -0.000005 -0.000006 0.000048
 25   4.941364 1.997338 1.629330 0.000018 -0.000001 -0.000024
 26   4.941382 1.997366 -1.629410 -0.000001 0.000005 -0.000024
 27   2.930087 1.603639 1.514501 -0.000019 -0.000022 -0.000050
 28   2.932517 1.603245 -1.501142 -0.000002 -0.000009 -0.000024
 29   8.824059 0.150544 0.091743 0.014265 -0.004409 -0.132849
 30   2.118898 -0.561179 1.764788 -0.000361 0.026111 0.001804
 31   2.133009 -0.561289 -1.837973 0.000046 -0.035330 0.001945
 32   -0.810489 -0.093824 3.127092 0.262828 -3.097583 -0.334759
 33   14.298673 -0.408176 0.475484 0.003675 -0.003118 -0.522390
 34   15.835795 0.581398 0.242756 -0.001248 0.032043 0.122292
 35   -0.815868 -0.091229 -3.114430 -0.132801 3.034913 -0.011454
 36   14.294526 -0.410349 -0.463635 -0.002676 0.001857 -0.384687
 37   15.834409 0.579420 -0.284600 -0.034108 0.026558 0.304555
 38   1.147498 -3.453749 -2.823813 0.001410 -0.001073 0.003239
 39   -4.457742 -1.011884 -0.738367 0.001846 0.004075 -0.016267
 40   1.110288 -3.449769 3.237290 -0.000674 -0.001276 0.005254
 41   -4.410401 -1.031785 0.967379 0.000191 0.000384 -0.001599
 42   -0.649655 1.697302 -2.641737 0.011973 0.018631 -0.001756
 43   -0.664068 1.698578 2.830313 -0.014031 -0.021134 0.003638
time 27
  0   0.009046 4.281381 1.527761 0.000000 0.000000 -1.571544
  1   -1.093036 0.000002 -0.326057 -1.570809 -1.570379 -0.000026
  2   2.262337 0.113614 0.064702 0.000241 0.025300 0.010342
  3   2.380047 0.353302 0.047440 -0.073475 -0.036557 -0.009448
  4   2.033756 0.190472 -0.000128 -0.146352 -0.046045 -0.190032
  5   2.451511 0.204909 -0.003447 -0.172110 -0.068991 -0.065145
  6   7.247600 -0.397300 -0.109469 0.000061 0.095970 0.470960
  7   -2.022252 -0.104661 3.136172 1.299361 -1.381176 -4.925491
  8   1.168026 -0.537438 -0.063437 -1.048323 0.358807 -1.074035
  9   6.790376 -0.619176 0.015206 -0.000102 -0.000151 -1.001153
 10   8.637599 0.544015 -0.090417 -3.048985 0.302126 -0.158989
 11   6.790465 -0.619039 0.017802 0.000388 -0.011452 -0.716005
 12   -2.022474 -0.104699 -2.873818 -2.708990 1.886349 -0.072164
 13   1.167898 -0.537463 0.063297 -0.517506 -1.058413 -0.341386
 14   7.002743 -0.617765 -0.183752 0.000115 0.000194 -2.015113
 15   8.209042 0.615527 -0.255885 1.716413 0.502392 0.011840
 16   7.002735 -0.617911 -0.183641 0.012744 0.011146 -1.429373
 17   1.574674 0.609930 -0.000899 0.359569 0.203567 -0.437257
 18   -0.602177 0.511412 -0.000006 0.000000 0.000000 0.000000
 19   3.646428 0.364526 1.119313 -0.000002 -0.000014 -0.174510
 20   3.646422 0.364499 -1.117566 0.000007 -0.000003 -0.174546
 21   3.805634 1.330634 1.627658 0.000002 -0.000011 -0.000026
 22   -0.246060 -0.011889 0.516521 -0.000011 0.000031 0.000025
 23   3.805651 1.330659 -1.631083 0.000019 0.000002 -0.000024
 24   -0.246150 -0.011872 -0.516511 -0.000005 -0.000006 0.000048
 25   4.941364 1.997338 1.629330 0.000018 -0.000001 -0.000024
 26   4.941382 1.997366 -1.629410 -0.000001 0.000005 -0.000024
 27   2.930087 1.603639 1.514501 -0.000019 -0.000022 -0.000050
 28   2.932517 1.603245 -1.501142 -0.000002 -0.000009 -0.000024
 29   8.824059 0.150544 0.091743 0.008472 -0.002629 -0.149802
 30   2.111085 -0.561179 1.776507 -0.000225 0.015185 0.001075
 31   2.129103 -0.561289 -1.845786 0.000031 -0.020902 0.001163
 32   -0.810489 -0.093824 3.127092 0.262828 -3.097583 -0.334759
 33   14.298673 -0.408176 0.475484 0.003675 -0.003118 -0.522390
 34   15.835795 0.581398 0.242756 -0.001248 0.032043 0.122292
 35   -0.815868 -0.091229 -3.114430 -0.132801 3.034913 -0.011454
 36   14.294526 -0.410349 -0.463635 -0.002676 0.001857 -0.384687
 37   15.834409 0.579420 -0.284600 -0.034108 0.026558 0.304555
 38   1.139685 -3.453749 -2.823813 0.000842 -0.000627 0.001895
 39   -4.457742 -1.027509 -0.746180 0.001091 0.002409 -0.009648
 40   1.118101 -3.449769 3.237290 -0.000400 -0.000746 0.003116
 41   -4.426027 -1.043504 0.959566 0.000107 0.000228 -0.000954
 42   -0.649655 1.697302 -2.661269 0.007095 0.011057 -0.001046
 43   -0.664068 1.698578 2.849845 -0.008309 -0.012520 0.002133
time 28
  0   0.009046 4.281381 1.527761 0.000000 0.000000 -1.571544
  1   -1.093036 0.000002 -0.326057 -1.570809 -1.570379 -0.000026
  2   2.262337 0.113614 0.064702 0.000241 0.025300 0.010342
  3   2.380047 0.353302 0.047440 -0.073535 -0.036353 -0.008795
  4   2.033756 0.190472 -0.000128 -0.146223 -0.046153 -0.191228
  5   2.451511 0.204909 -0.003447 -0.172110 -0.069291 -0.066904
  6   7.247600 -0.397300 -0.109469 0.000061 0.095970 0.470960
  7   -2.022252 -0.104661 3.136172 1.299361 -1.381176 -4.925491
  8   1.168026 -0.537438 -0.063437 -1.048133 0.360719 -1.073719
  9   6.790376 -0.619176 0.015206 -0.000102 -0.000151 -0.999040
 10   8.637599 0.544015 -0.090417 -3.048897 0.302337 -0.160653
 11   6.790465 -0.619039 0.017802 0.000359 -0.011452 -0.714390
 12   -2.022474 -0.104699 -2.873818 -2.711481 1.888090 -0.074654
 13   1.167898 -0.537463 0.063297 -0.521021 -1.056735 -0.337754
 14   7.002743 -0.617765 -0.183752 0.000115 0.000194 -2.015113
 15   8.209042 0.615527 -0.255885 1.716700 0.502392 0.012622
 16   7.002735 -0.617911 -0.183641 0.012744 0.011146 -1.429263
 17   1.574674 0.609930 -0.000899 0.359488 0.203212 -0.435002
 18   -0.602177 0.511412 -0.000006 0.000000 0.000000 0.000000
 19   3.646428 0.364526 1.119313 -0.000002 -0.000014 -0.174510
 20   3.646422 0.364499 -1.117566 0.000007 -0.000003 -0.174546
 21   3.805634 1.330634 1.627658 0.000002 -0.000011 -0.000026
 22   -0.246060 -0.011889 0.516521 -0.000011 0.000031 0.000025
 23   3.805651 1.330659 -1.631083 0.000019 0.000002 -0.000024
 24   -0.246150 -0.011872 -0.516511 -0.000005 -0.000006 0.000048
 25   4.941364 1.997338 1.629330 0.000018 -0.000001 -0.000024
 26   4.941382 1.997366 -1.629410 -0.000001 0.000005 -0.000024
 27   2.930087 1.603639 1.514501 -0.000019 -0.000022 -0.000050
 28   2.932517 1.603245 -1.501142 -0.000002 -0.000009 -0.000024
 29   8.824059 0.150544 0.091743 0.003838 -0.001323 -0.163053
 30   2.111085 -0.561179 1.784320 -0.000103 0.006728 0.000496
 31   2.121290 -0.561289 -1.853599 0.000000 -0.009765 0.000544
 32   -0.810489 -0.093824 3.127092 0.262828 -3.097583 -0.334759
 33   14.298673 -0.408176 0.475484 0.003675 -0.003118 -0.522390
 34   15.835795 0.581398 0.242756 -0.001248 0.032043 0.122292
 35   -0.815868 -0.091229 -3.114430 -0.132801 3.034913 -0.011454
 36   14.294526 -0.410349 -0.463635 -0.002676 0.001857 -0.384687
 37   15.834409 0.579420 -0.284600 -0.034108 0.026558 0.304555
 38   1.139685 -3.453749 -2.823813 0.000400 -0.000277 0.000795
 39   -4.457742 -1.047041 -0.746180 0.000491 0.001127 -0.004459
 40   1.118101 -3.449769 3.237290 -0.000168 -0.000336 0.001405
 41   -4.433840 -1.051317 0.959566 0.000047 0.000108 -0.000449
 42   -0.657468 1.697302 -2.680801 0.003308 0.005169 -0.000418
 43   -0.664068 1.698578 2.861564 -0.003886 -0.005851 0.001004
time 29
  0   0.009046 4.281381 1.527761 0.000000 0.000000 -1.571544
  1   -1.093036 0.000002 -0.326057 -1.570809 -1.570379 -0.000026
  2   2.262337 0.113614 0.064702 0.000241 0.025300 0.010342
  3   2.380047 0.353302 0.047440 -0.073580 -0.036234 -0.008326
  4   2.033756 0.190472 -0.000128 -0.146094 -0.046212 -0.192243
  5   2.451511 0.204909 -0.003447 -0.172059 -0.069539 -0.068439
  6   7.247600 -0.397300 -0.109469 0.000061 0.095970 0.470960
  7   -2.022252 -0.104661 3.136172 1.299361 -1.381176 -4.925491
  8   1.168026 -0.537438 -0.063437 -1.047690 0.363084 -1.073719
  9   6.790376 -0.619176 0.015206 -0.000102 -0.000151 -0.998738
 10   8.637599 0.544015 -0.090417 -3.048897 0.302337 -0.161087
 11   6.790465 -0.619039 0.017802 0.000359 -0.011452 -0.714390
 12   -2.022474 -0.104699 -2.873818 -2.711960 1.888381 -0.074845
 13   1.167898 -0.537463 0.063297 -0.525660 -1.056989 -0.332790
 14   7.002743 -0.617765 -0.183752 0.000115 0.000194 -2.015113
 15   8.209042 0.615527 -0.255885 1.716772 0.502392 0.012622
 16   7.002735 -0.617911 -0.183641 0.012744 0.011146 -1.429263
 17   1.574674 0.609930 -0.000899 0.359366 0.202928 -0.433006
 18   -0.602177 0.511412 -0.000006 0.000000 0.000000 0.000000
 19   3.646428 0.364526 1.119313 -0.000002 -0.000014 -0.174510
 20   3.646422 0.364499 -1.117566 0.000007 -0.000003 -0.174546
 21   3.805634 1.330634 1.627658 0.000002 -0.000011 -0.000026
 22   -0.246060 -0.011889 0.516521 -0.000011 0.000031 0.000025
 23   3.805651 1.330659 -1.631083 0.000019 0.000002 -0.000024
 24   -0.246150 -0.011872 -0.516511 -0.000005 -0.000006 0.000048
 25   4.941364 1.997338 1.629330 0.000018 -0.000001 -0.000024
 26   4.941382 1.997366 -1.629410 -0.000001 0.000005 -0.000024
 27   2.930087 1.603639 1.514501 -0.000019 -0.000022 -0.000050
 28   2.932517 1.603245 -1.501142 -0.000002 -0.000009 -0.000024
 29   8.824059 0.150544 0.091743 0.000897 -0.000468 -0.171583
 30   2.111085 -0.561179 1.784320 -0.000022 0.001236 0.000153
 31   2.121290 -0.561289 -1.853599 0.000000 -0.002538 0.000107
 32   -0.810489 -0.093824 3.127092 0.262828 -3.097583 -0.334759
 33   14.298673 -0.408176 0.475484 0.003675 -0.003118 -0.522390
 34   15.835795 0.581398 0.242756 -0.001248 0.032043 0.122292
 35   -0.815868 -0.091229 -3.114430 -0.132801 3.034913 -0.011454
 36   14.294526 -0.410349 -0.463635 -0.002676 0.001857 -0.384687
 37   15.834409 0.579420 -0.284600 -0.034108 0.026558 0.304555
 38   1.139685 -3.453749 -2.823813 0.000063 -0.000060 0.000123
 39   -4.457742 -1.054854 -0.746180 0.000132 0.000288 -0.001178
 40   1.118101 -3.449769 3.237290 -0.000021 -0.000071 0.000367
 41   -4.433840 -1.059130 0.959566 0.000011 0.000024 -0.000084
 42   -0.657468 1.697302 -2.688614 0.000863 0.001336 -0.000084
 43   -0.664068 1.698578 2.869377 -0.001000 -0.001504 0.000251
time 30
  0   0.009046 4.281381 1.527761 0.000000 0.000000 -1.571544
  1   -1.093036 0.000002 -0.326057 -1.570809 -1.570379 -0.000026
  2   2.262337 0.113614 0.064702 0.000241 0.025300 0.010342
  3   2.380047 0.353302 0.047440 -0.073610 -0.036138 -0.007877
  4   2.033756 0.190472 -0.000128 -0.145891 -0.046284 -0.193258
  5   2.451511 0.204909 -0.003447 -0.171956 -0.069735 -0.070123
  6   7.247600 -0.397300 -0.109469 0.000061 0.095970 0.470960
  7   -2.022252 -0.104661 3.136172 1.299361 -1.381176 -4.925491
  8   1.168026 -0.537438 -0.063437 -1.046994 0.365650 -1.073592
  9   6.790376 -0.619176 0.015206 -0.000102 -0.000151 -0.998889
 10   8.637599 0.544015 -0.090417 -3.048897 0.302126 -0.161304
 11   6.790465 -0.619039 0.017802 0.000359 -0.011452 -0.714390
 12   -2.022474 -0.104699 -2.873818 -2.708990 1.886349 -0.072164
 13   1.167898 -0.537463 0.063297 -0.530229 -1.058769 -0.328008
 14   7.002743 -0.617765 -0.183752 0.000115 0.000194 -2.015113
 15   8.209042 0.615527 -0.255885 1.716413 0.502392 0.011840
 16   7.002735 -0.617911 -0.183641 0.012744 0.011146 -1.429373
 17   1.574674 0.609930 -0.000899 0.359163 0.202644 -0.430974
 18   -0.602177 0.511412 -0.000006 0.000000 0.000000 0.000000
 19   3.646428 0.364526 1.119313 -0.000002 -0.000014 -0.174510
 20   3.646422 0.364499 -1.117566 0.000007 -0.000003 -0.174546
 21   3.805634 1.330634 1.627658 0.000002 -0.000011 -0.000026
 22   -0.246060 -0.011889 0.516521 -0.000011 0.000031 0.000025
 23   3.805651 1.330659 -1.631083 0.000019 0.000002 -0.000024
 24   -0.246150 -0.011872 -0.516511 -0.000005 -0.000006 0.000048
 25   4.941364 1.997338 1.629330 0.000018 -0.000001 -0.000024
 26   4.941382 1.997366 -1.629410 -0.000001 0.000005 -0.000024
 27   2.930087 1.603639 1.514501 -0.000019 -0.000022 -0.000050
 28   2.932517 1.603245 -1.501142 -0.000002 -0.000009 -0.000024
 29   8.824059 0.150544 0.091743 0.000006 -0.000231 -0.174534
 30   2.111085 -0.561179 1.784320 -0.000008 -0.000682 0.000024
 31   2.121290 -0.561289 -1.853599 0.000000 0.000000 -0.000002
 32   -0.810489 -0.093824 3.127092 0.262828 -3.097583 -0.334759
 33   14.298673 -0.408176 0.475484 0.003675 -0.003118 -0.522390
 34   15.835795 0.581398 0.242756 -0.001248 0.032043 0.122292
 35   -0.815868 -0.091229 -3.114430 -0.132801 3.034913 -0.011454
 36   14.294526 -0.410349 -0.463635 -0.002676 0.001857 -0.384687
 37   15.834409 0.579420 -0.284600 -0.034108 0.026558 0.304555
 38   1.139685 -3.453749 -2.823813 0.000000 0.000000 0.000001
 39   -4.457742 -1.054854 -0.746180 0.000000 0.000000 0.000000
 40   1.118101 -3.449769 3.237290 0.000000 0.000001 0.000000
 41   -4.433840 -1.059130 0.959566 -0.000001 0.000000 0.000000
 42   -0.657468 1.697302 -2.688614 0.000000 0.000002 0.000000
 43   -0.664068 1.698578 2.869377 0.000000 0.000002 0.000000
end
