version 1
nodes
  0 "Bip01" -1
  1 "Bip01 Pelvis" 0
  2 "Bip01 Spine" 1
  3 "Bip01 Spine1" 2
  4 "Bip01 Spine2" 3
  5 "Bip01 Spine3" 4
  6 "Bip01 Neck" 5
  7 "Bip01 L Arm" 6
  8 "Bip01 L Arm1" 7
  9 "Bip01 L Arm2" 8
 10 "Bip01 L Hand" 9
 11 "Bip06 L elbow2-smooth" 8
 12 "Bip01 R Arm" 6
 13 "Bip01 R Arm1" 12
 14 "Bip01 R Arm2" 13
 15 "Bip01 R Hand" 14
 16 "Bip06 R elbow2-smooth" 13
 17 "Bip01 Head" 6
 18 "Bip06 Head_helper" 17
 19 "Bip06 Head_eyes_l" 18
 20 "Bip06 Head_eyes_r" 18
 21 "Bip06 Head_blink_l" 18
 22 "Bip06 Head_blink_smooth_l1" 21
 23 "Bip06 Head_blink_r" 18
 24 "Bip06 Head_blink_smooth_r1" 23
 25 "Bip06 Head_L_eyebrow" 18
 26 "Bip06 Head_R_eyebrow" 18
 27 "Bip06 Head_blink_l_lid" 18
 28 "Bip06 Head_blink_r_lid" 18
 29 "Bip06 bunny" 18
 30 "Bip06 bunnyL" 29
 31 "Bip06 bunnyR" 29
 32 "Bip01 L Leg" 1
 33 "Bip01 L Leg1" 32
 34 "Bip01 L Foot" 33
 35 "Bip01 R Leg" 1
 36 "Bip01 R Leg1" 35
 37 "Bip01 R Foot" 36
 38 "Bip03 HairR1" 17
 39 "Bip03 HairR2" 38
 40 "Bip03 HairL1" 17
 41 "Bip03 HairL2" 40
 42 "Bip03 swingR" 17
 43 "Bip03 swingL" 17
end
skeleton
time 0
  0   0.001233 0.187506 0.867585 0.000000 0.000000 -1.571449
  1   -1.093036 0.000002 -0.326057 -1.570809 -1.570379 -0.000026
  2   2.262337 0.113614 0.064702 -0.127860 -0.007574 -0.059755
  3   2.380047 0.353302 0.047440 0.133449 -0.020582 0.354526
  4   2.033756 0.190472 -0.000128 -0.128020 0.005681 0.043073
  5   2.451511 0.204909 -0.003447 -0.126254 0.022137 0.172900
  6   7.247600 -0.397300 -0.109469 0.000001 0.000033 0.087015
  7   -2.022252 -0.104661 3.136172 1.183181 -1.077807 -4.365767
  8   1.168026 -0.537438 -0.063437 -0.200618 0.388593 -0.590093
  9   6.790376 -0.619176 0.015206 -0.000213 -0.000151 -0.982437
 10   8.637599 0.544015 -0.090417 -4.016642 0.659709 0.178787
 11   6.790465 -0.619039 0.017802 0.000213 -0.011566 -0.702855
 12   -2.022474 -0.104699 -2.873818 -1.410517 0.664819 -4.543944
 13   1.167898 -0.537463 0.063297 1.393581 -0.444668 -0.852118
 14   7.002743 -0.617765 -0.183752 0.000229 0.000250 -0.503284
 15   8.209042 0.615527 -0.255885 1.537374 0.127121 0.156831
 16   7.002735 -0.617911 -0.183641 0.014580 0.002857 -0.370886
 17   1.574674 0.609930 -0.000899 0.213418 -0.123912 0.172157
 18   -0.602177 0.511412 -0.000006 0.000000 0.000000 0.000000
 19   3.673773 0.177020 1.119313 -0.000002 -0.000014 -0.174510
 20   3.673767 0.176993 -1.117566 0.000007 -0.000003 -0.174546
 21   3.942357 1.330634 1.627658 0.000002 -0.000011 -0.000026
 22   -0.246060 -0.011889 0.516521 -0.000011 0.000031 0.000025
 23   3.942374 1.330659 -1.631083 0.000019 0.000002 -0.000024
 24   -0.246150 -0.011872 -0.516511 -0.000005 -0.000006 0.000048
 25   4.941364 1.997338 1.629330 0.000018 -0.000001 -0.000024
 26   4.941382 1.997366 -1.629410 -0.000001 0.000005 -0.000024
 27   2.918368 1.615358 1.514501 -0.000019 -0.000022 -0.000050
 28   2.920798 1.614964 -1.501142 -0.000002 -0.000009 -0.000024
 29   8.824059 0.150544 0.091743 0.000006 -0.000231 -0.174534
 30   2.111085 -0.561179 1.784320 -0.000008 -0.000682 0.000024
 31   2.121290 -0.561289 -1.853599 0.000000 0.000000 -0.000002
 32   -0.810489 -0.093824 3.127092 -0.129396 -2.975241 -0.324172
 33   14.298673 -0.408176 0.475484 0.000020 -0.000248 -0.436243
 34   15.835795 0.581398 0.242756 0.162134 -0.013934 0.022664
 35   -0.815868 -0.091229 -3.114430 0.096389 3.002497 -0.031283
 36   14.294526 -0.410349 -0.463635 0.000093 0.000048 -0.399441
 37   15.834409 0.579420 -0.284600 -0.089078 0.040123 0.278038
 38   1.139685 -3.453749 -2.823813 0.000000 0.000000 0.000001
 39   -4.457742 -1.054854 -0.746180 0.000000 0.000000 0.000000
 40   1.118101 -3.449769 3.237290 0.000000 0.000001 0.000000
 41   -4.433840 -1.059130 0.959566 -0.000001 0.000000 0.000000
 42   -0.657468 1.697302 -2.688614 0.000000 0.000002 0.000000
 43   -0.664068 1.698578 2.869377 0.000000 0.000002 0.000000
time 1
  0   0.001233 0.187506 0.867585 0.000000 0.000000 -1.571449
  1   -1.093036 0.000002 -0.326057 -1.570809 -1.570379 -0.000026
  2   2.262337 0.113614 0.064702 -0.180989 -0.010821 -0.059285
  3   2.380047 0.353302 0.047440 0.082281 0.002645 0.248560
  4   2.033756 0.190472 -0.000128 -0.181190 0.008018 0.042638
  5   2.451511 0.204909 -0.003447 -0.178666 0.031446 0.171538
  6   7.247600 -0.397300 -0.109469 0.000001 0.000033 0.087015
  7   -2.022252 -0.104661 3.136172 1.183181 -1.077807 -4.365767
  8   1.168026 -0.537438 -0.063437 -0.002613 0.471562 -0.174788
  9   6.790376 -0.619176 0.015206 -0.000213 -0.000151 -1.631608
 10   8.637599 0.544015 -0.090417 -3.916336 0.165357 0.559969
 11   6.790465 -0.619039 0.017802 0.002957 -0.011850 -1.157391
 12   -2.022474 -0.104699 -2.873818 -1.410517 0.664819 -4.543944
 13   1.167898 -0.537463 0.063297 1.228601 -0.684592 -0.953211
 14   7.002743 -0.617765 -0.183752 0.000229 0.000250 -0.938335
 15   8.209042 0.615527 -0.255885 1.548591 0.146187 0.026454
 16   7.002735 -0.617911 -0.183641 0.014298 0.005225 -0.675495
 17   1.574674 0.609930 -0.000899 0.366800 -0.283639 0.261048
 18   -0.602177 0.511412 -0.000006 0.000000 0.000000 0.000000
 19   3.673773 0.177020 1.119313 -0.000002 -0.000014 -0.174510
 20   3.673767 0.176993 -1.117566 0.000007 -0.000003 -0.174546
 21   3.942357 1.330634 1.627658 0.000002 -0.000011 -0.000026
 22   -0.246060 -0.011889 0.516521 -0.000011 0.000031 0.000025
 23   3.942374 1.330659 -1.631083 0.000019 0.000002 -0.000024
 24   -0.246150 -0.011872 -0.516511 -0.000005 -0.000006 0.000048
 25   4.941364 1.997338 1.629330 0.000018 -0.000001 -0.000024
 26   4.941382 1.997366 -1.629410 -0.000001 0.000005 -0.000024
 27   2.918368 1.615358 1.514501 -0.000019 -0.000022 -0.000050
 28   2.920798 1.614964 -1.501142 -0.000002 -0.000009 -0.000024
 29   8.824059 0.150544 0.091743 0.000006 -0.000231 -0.174534
 30   2.111085 -0.561179 1.784320 -0.000008 -0.000682 0.000024
 31   2.121290 -0.561289 -1.853599 0.000000 0.000000 -0.000002
 32   -0.810489 -0.093824 3.127092 -0.129396 -2.975241 -0.324172
 33   14.298673 -0.408176 0.475484 0.000020 -0.000248 -0.436243
 34   15.835795 0.581398 0.242756 0.162134 -0.013934 0.022664
 35   -0.815868 -0.091229 -3.114430 0.096389 3.002497 -0.031283
 36   14.294526 -0.410349 -0.463635 0.000093 0.000048 -0.399441
 37   15.834409 0.579420 -0.284600 -0.089078 0.040123 0.278038
 38   1.139685 -3.453749 -2.823813 0.000000 0.000000 0.000001
 39   -4.457742 -1.054854 -0.746180 0.000000 0.000000 0.000000
 40   1.118101 -3.449769 3.237290 0.000000 0.000001 0.000000
 41   -4.433840 -1.059130 0.959566 -0.000001 0.000000 0.000000
 42   -0.657468 1.697302 -2.688614 0.000000 0.000002 0.000000
 43   -0.664068 1.698578 2.869377 0.000000 0.000002 0.000000
time 2
  0   0.001233 0.187506 0.867585 0.000000 0.000000 -1.571449
  1   -1.093036 0.000002 -0.326057 -1.570809 -1.570379 -0.000026
  2   2.262337 0.113614 0.064702 -0.234168 -0.013973 -0.058544
  3   2.380047 0.353302 0.047440 0.029072 0.020526 0.141431
  4   2.033756 0.190472 -0.000128 -0.234286 0.010331 0.042130
  5   2.451511 0.204909 -0.003447 -0.231078 0.040533 0.169532
  6   7.247600 -0.397300 -0.109469 0.000001 0.000033 0.087015
  7   -2.022252 -0.104661 3.136172 1.183181 -1.077807 -4.365767
  8   1.168026 -0.537438 -0.063437 0.219122 0.552417 0.180609
  9   6.790376 -0.619176 0.015206 -0.000213 -0.000352 -2.073093
 10   8.637599 0.544015 -0.090417 -3.785207 -0.377705 0.879586
 11   6.790465 -0.619039 0.017802 0.005089 -0.011935 -1.466413
 12   -2.022474 -0.104699 -2.873818 -1.410517 0.664819 -4.543944
 13   1.167898 -0.537463 0.063297 1.025239 -0.926653 -0.992740
 14   7.002743 -0.617765 -0.183752 0.000229 0.000250 -1.373551
 15   8.209042 0.615527 -0.255885 1.557435 0.166842 -0.103503
 16   7.002735 -0.617911 -0.183641 0.013827 0.007537 -0.980049
 17   1.574674 0.609930 -0.000899 0.508605 -0.464123 0.324251
 18   -0.602177 0.511412 -0.000006 0.000000 0.000000 0.000000
 19   3.673773 0.177020 1.119313 -0.000002 -0.000014 -0.174510
 20   3.673767 0.176993 -1.117566 0.000007 -0.000003 -0.174546
 21   3.942357 1.330634 1.627658 0.000002 -0.000011 -0.000026
 22   -0.246060 -0.011889 0.516521 -0.000011 0.000031 0.000025
 23   3.942374 1.330659 -1.631083 0.000019 0.000002 -0.000024
 24   -0.246150 -0.011872 -0.516511 -0.000005 -0.000006 0.000048
 25   4.941364 1.997338 1.629330 0.000018 -0.000001 -0.000024
 26   4.941382 1.997366 -1.629410 -0.000001 0.000005 -0.000024
 27   2.918368 1.615358 1.514501 -0.000019 -0.000022 -0.000050
 28   2.920798 1.614964 -1.501142 -0.000002 -0.000009 -0.000024
 29   8.824059 0.150544 0.091743 0.000006 -0.000231 -0.174534
 30   2.111085 -0.561179 1.784320 -0.000008 -0.000682 0.000024
 31   2.121290 -0.561289 -1.853599 0.000000 0.000000 -0.000002
 32   -0.810489 -0.093824 3.127092 -0.129396 -2.975241 -0.324172
 33   14.298673 -0.408176 0.475484 0.000020 -0.000248 -0.436243
 34   15.835795 0.581398 0.242756 0.162134 -0.013934 0.022664
 35   -0.815868 -0.091229 -3.114430 0.096389 3.002497 -0.031283
 36   14.294526 -0.410349 -0.463635 0.000093 0.000048 -0.399441
 37   15.834409 0.579420 -0.284600 -0.089078 0.040123 0.278038
 38   1.139685 -3.453749 -2.823813 0.000000 0.000000 0.000001
 39   -4.457742 -1.054854 -0.746180 0.000000 0.000000 0.000000
 40   1.118101 -3.449769 3.237290 0.000000 0.000001 0.000000
 41   -4.433840 -1.059130 0.959566 -0.000001 0.000000 0.000000
 42   -0.657468 1.697302 -2.688614 0.000000 0.000002 0.000000
 43   -0.664068 1.698578 2.869377 0.000000 0.000002 0.000000
time 3
  0   0.001233 0.187506 0.867585 0.000000 0.000000 -1.571449
  1   -1.093036 0.000002 -0.326057 -1.570809 -1.570379 -0.000026
  2   2.262337 0.113614 0.064702 -0.258293 -0.015304 -0.058273
  3   2.380047 0.353302 0.047440 0.004155 0.026746 0.092437
  4   2.033756 0.190472 -0.000128 -0.258446 0.011266 0.041913
  5   2.451511 0.204909 -0.003447 -0.254870 0.044619 0.168566
  6   7.247600 -0.397300 -0.109469 0.000001 0.000033 0.087015
  7   -2.022252 -0.104661 3.136172 1.183181 -1.077807 -4.365767
  8   1.168026 -0.537438 -0.063437 0.380297 0.586832 0.361407
  9   6.790376 -0.619176 0.015206 -0.000213 -0.000352 -2.322890
 10   8.637599 0.544015 -0.090417 -3.622640 -0.831864 1.104287
 11   6.790465 -0.619039 0.017802 0.006315 -0.011935 -1.641341
 12   -2.022474 -0.104699 -2.873818 -1.410517 0.664819 -4.543944
 13   1.167898 -0.537463 0.063297 0.856041 -1.067668 -0.943344
 14   7.002743 -0.617765 -0.183752 0.000286 0.000250 -1.735502
 15   8.209042 0.615527 -0.255885 1.562541 0.186665 -0.220951
 16   7.002735 -0.617911 -0.183641 0.013356 0.009567 -1.233494
 17   1.574674 0.609930 -0.000899 0.566407 -0.556518 0.353340
 18   -0.602177 0.511412 -0.000006 0.000000 0.000000 0.000000
 19   3.673773 0.177020 1.119313 -0.000002 -0.000014 -0.174510
 20   3.673767 0.176993 -1.117566 0.000007 -0.000003 -0.174546
 21   3.942357 1.330634 1.627658 0.000002 -0.000011 -0.000026
 22   -0.246060 -0.011889 0.516521 -0.000011 0.000031 0.000025
 23   3.942374 1.330659 -1.631083 0.000019 0.000002 -0.000024
 24   -0.246150 -0.011872 -0.516511 -0.000005 -0.000006 0.000048
 25   4.941364 1.997338 1.629330 0.000018 -0.000001 -0.000024
 26   4.941382 1.997366 -1.629410 -0.000001 0.000005 -0.000024
 27   2.918368 1.615358 1.514501 -0.000019 -0.000022 -0.000050
 28   2.920798 1.614964 -1.501142 -0.000002 -0.000009 -0.000024
 29   8.824059 0.150544 0.091743 0.000006 -0.000231 -0.174534
 30   2.111085 -0.561179 1.784320 -0.000008 -0.000682 0.000024
 31   2.121290 -0.561289 -1.853599 0.000000 0.000000 -0.000002
 32   -0.810489 -0.093824 3.127092 -0.129396 -2.975241 -0.324172
 33   14.298673 -0.408176 0.475484 0.000020 -0.000248 -0.436243
 34   15.835795 0.581398 0.242756 0.162134 -0.013934 0.022664
 35   -0.815868 -0.091229 -3.114430 0.096389 3.002497 -0.031283
 36   14.294526 -0.410349 -0.463635 0.000093 0.000048 -0.399441
 37   15.834409 0.579420 -0.284600 -0.089078 0.040123 0.278038
 38   1.139685 -3.453749 -2.823813 0.000000 0.000000 0.000001
 39   -4.457742 -1.054854 -0.746180 0.000000 0.000000 0.000000
 40   1.118101 -3.449769 3.237290 0.000000 0.000001 0.000000
 41   -4.433840 -1.059130 0.959566 -0.000001 0.000000 0.000000
 42   -0.657468 1.697302 -2.688614 0.000000 0.000002 0.000000
 43   -0.664068 1.698578 2.869377 0.000000 0.000002 0.000000
time 4
  0   0.001233 0.187506 0.867585 0.000000 0.000000 -1.571449
  1   -1.093036 0.000002 -0.326057 -1.570809 -1.570379 -0.000026
  2   2.262337 0.113614 0.064702 -0.255274 -0.015136 -0.058273
  3   2.380047 0.353302 0.047440 0.007320 0.025979 0.098559
  4   2.033756 0.190472 -0.000128 -0.255403 0.011242 0.041913
  5   2.451511 0.204909 -0.003447 -0.251892 0.043953 0.168690
  6   7.247600 -0.397300 -0.109469 0.000001 0.000033 0.087015
  7   -2.022252 -0.104661 3.136172 1.183181 -1.077807 -4.365767
  8   1.168026 -0.537438 -0.063437 0.370805 0.590102 0.345086
  9   6.790376 -0.619176 0.015206 -0.000213 -0.000352 -2.229235
 10   8.637599 0.544015 -0.090417 -3.575261 -0.822924 1.057625
 11   6.790465 -0.619039 0.017802 0.005877 -0.011935 -1.575822
 12   -2.022474 -0.104699 -2.873818 -1.410517 0.664819 -4.543944
 13   1.167898 -0.537463 0.063297 0.877059 -1.053785 -0.950850
 14   7.002743 -0.617765 -0.183752 0.000286 0.000250 -1.706873
 15   8.209042 0.615527 -0.255885 1.563979 0.194685 -0.267558
 16   7.002735 -0.617911 -0.183641 0.013403 0.009398 -1.213514
 17   1.574674 0.609930 -0.000899 0.552718 -0.551335 0.362395
 18   -0.602177 0.511412 -0.000006 0.000000 0.000000 0.000000
 19   3.673773 0.177020 1.119313 -0.000002 -0.000014 -0.174510
 20   3.673767 0.176993 -1.117566 0.000007 -0.000003 -0.174546
 21   3.942357 1.330634 1.627658 0.000002 -0.000011 -0.000026
 22   -0.246060 -0.011889 0.516521 -0.000011 0.000031 0.000025
 23   3.942374 1.330659 -1.631083 0.000019 0.000002 -0.000024
 24   -0.246150 -0.011872 -0.516511 -0.000005 -0.000006 0.000048
 25   4.941364 1.997338 1.629330 0.000018 -0.000001 -0.000024
 26   4.941382 1.997366 -1.629410 -0.000001 0.000005 -0.000024
 27   2.918368 1.615358 1.514501 -0.000019 -0.000022 -0.000050
 28   2.920798 1.614964 -1.501142 -0.000002 -0.000009 -0.000024
 29   8.824059 0.150544 0.091743 0.000006 -0.000231 -0.174534
 30   2.111085 -0.561179 1.784320 -0.000008 -0.000682 0.000024
 31   2.121290 -0.561289 -1.853599 0.000000 0.000000 -0.000002
 32   -0.810489 -0.093824 3.127092 -0.129396 -2.975241 -0.324172
 33   14.298673 -0.408176 0.475484 0.000020 -0.000248 -0.436243
 34   15.835795 0.581398 0.242756 0.162134 -0.013934 0.022664
 35   -0.815868 -0.091229 -3.114430 0.096389 3.002497 -0.031283
 36   14.294526 -0.410349 -0.463635 0.000093 0.000048 -0.399441
 37   15.834409 0.579420 -0.284600 -0.089078 0.040123 0.278038
 38   1.139685 -3.453749 -2.823813 0.000000 0.000000 0.000001
 39   -4.457742 -1.054854 -0.746180 0.000000 0.000000 0.000000
 40   1.118101 -3.449769 3.237290 0.000000 0.000001 0.000000
 41   -4.433840 -1.059130 0.959566 -0.000001 0.000000 0.000000
 42   -0.657468 1.697302 -2.688614 0.000000 0.000002 0.000000
 43   -0.664068 1.698578 2.869377 0.000000 0.000002 0.000000
time 5
  0   0.001233 0.187506 0.867585 0.000000 0.000000 -1.571449
  1   -1.093036 0.000002 -0.326057 -1.570809 -1.570379 -0.000026
  2   2.262337 0.113614 0.064702 -0.246880 -0.014620 -0.058418
  3   2.380047 0.353302 0.047440 0.016006 0.023809 0.115679
  4   2.033756 0.190472 -0.000128 -0.247030 0.010834 0.041913
  5   2.451511 0.204909 -0.003447 -0.243590 0.042530 0.169111
  6   7.247600 -0.397300 -0.109469 0.000001 0.000033 0.087015
  7   -2.022252 -0.104661 3.136172 1.183181 -1.077807 -4.365767
  8   1.168026 -0.537438 -0.063437 0.331128 0.592920 0.279232
  9   6.790376 -0.619176 0.015206 -0.000213 -0.000352 -2.074225
 10   8.637599 0.544015 -0.090417 -3.646593 -0.642936 0.991430
 11   6.790465 -0.619039 0.017802 0.005089 -0.011935 -1.467105
 12   -2.022474 -0.104699 -2.873818 -1.410517 0.664819 -4.543944
 13   1.167898 -0.537463 0.063297 0.942292 -1.004865 -0.974398
 14   7.002743 -0.617765 -0.183752 0.000286 0.000250 -1.580062
 15   8.209042 0.615527 -0.255885 1.561390 0.181520 -0.191244
 16   7.002735 -0.617911 -0.183641 0.013591 0.008721 -1.124654
 17   1.574674 0.609930 -0.000899 0.530377 -0.521468 0.358144
 18   -0.602177 0.511412 -0.000006 0.000000 0.000000 0.000000
 19   3.673773 0.177020 1.119313 -0.000002 -0.000014 -0.174510
 20   3.673767 0.176993 -1.117566 0.000007 -0.000003 -0.174546
 21   3.942357 1.330634 1.627658 0.000002 -0.000011 -0.000026
 22   -0.246060 -0.011889 0.516521 -0.000011 0.000031 0.000025
 23   3.942374 1.330659 -1.631083 0.000019 0.000002 -0.000024
 24   -0.246150 -0.011872 -0.516511 -0.000005 -0.000006 0.000048
 25   4.941364 1.997338 1.629330 0.000018 -0.000001 -0.000024
 26   4.941382 1.997366 -1.629410 -0.000001 0.000005 -0.000024
 27   2.918368 1.615358 1.514501 -0.000019 -0.000022 -0.000050
 28   2.920798 1.614964 -1.501142 -0.000002 -0.000009 -0.000024
 29   8.824059 0.150544 0.091743 0.000006 -0.000231 -0.174534
 30   2.111085 -0.561179 1.784320 -0.000008 -0.000682 0.000024
 31   2.121290 -0.561289 -1.853599 0.000000 0.000000 -0.000002
 32   -0.810489 -0.093824 3.127092 -0.129396 -2.975241 -0.324172
 33   14.298673 -0.408176 0.475484 0.000020 -0.000248 -0.436243
 34   15.835795 0.581398 0.242756 0.162134 -0.013934 0.022664
 35   -0.815868 -0.091229 -3.114430 0.096389 3.002497 -0.031283
 36   14.294526 -0.410349 -0.463635 0.000093 0.000048 -0.399441
 37   15.834409 0.579420 -0.284600 -0.089078 0.040123 0.278038
 38   1.139685 -3.453749 -2.823813 0.000000 0.000000 0.000001
 39   -4.457742 -1.054854 -0.746180 0.000000 0.000000 0.000000
 40   1.118101 -3.449769 3.237290 0.000000 0.000001 0.000000
 41   -4.433840 -1.059130 0.959566 -0.000001 0.000000 0.000000
 42   -0.657468 1.697302 -2.688614 0.000000 0.000002 0.000000
 43   -0.664068 1.698578 2.869377 0.000000 0.000002 0.000000
time 6
  0   0.001233 0.187506 0.867585 0.000000 0.000000 -1.571449
  1   -1.093036 0.000002 -0.326057 -1.570809 -1.570379 -0.000026
  2   2.262337 0.113614 0.064702 -0.234168 -0.013973 -0.058544
  3   2.380047 0.353302 0.047440 0.029072 0.020526 0.141431
  4   2.033756 0.190472 -0.000128 -0.234286 0.010331 0.042130
  5   2.451511 0.204909 -0.003447 -0.231078 0.040533 0.169532
  6   7.247600 -0.397300 -0.109469 0.000001 0.000033 0.087015
  7   -2.022252 -0.104661 3.136172 1.183181 -1.077807 -4.365767
  8   1.168026 -0.537438 -0.063437 0.275884 0.586429 0.189592
  9   6.790376 -0.619176 0.015206 -0.000213 -0.000352 -1.924950
 10   8.637599 0.544015 -0.090417 -3.736948 -0.427612 0.910549
 11   6.790465 -0.619039 0.017802 0.004359 -0.011935 -1.362771
 12   -2.022474 -0.104699 -2.873818 -1.410517 0.664819 -4.543944
 13   1.167898 -0.537463 0.063297 1.014906 -0.941248 -0.988200
 14   7.002743 -0.617765 -0.183752 0.000229 0.000250 -1.444671
 15   8.209042 0.615527 -0.255885 1.556860 0.166010 -0.098031
 16   7.002735 -0.617911 -0.183641 0.013780 0.007988 -1.029777
 17   1.574674 0.609930 -0.000899 0.498287 -0.475317 0.346982
 18   -0.602177 0.511412 -0.000006 0.000000 0.000000 0.000000
 19   3.673773 0.177020 1.119313 -0.000002 -0.000014 -0.174510
 20   3.673767 0.176993 -1.117566 0.000007 -0.000003 -0.174546
 21   3.942357 1.330634 1.627658 0.000002 -0.000011 -0.000026
 22   -0.246060 -0.011889 0.516521 -0.000011 0.000031 0.000025
 23   3.942374 1.330659 -1.631083 0.000019 0.000002 -0.000024
 24   -0.246150 -0.011872 -0.516511 -0.000005 -0.000006 0.000048
 25   4.941364 1.997338 1.629330 0.000018 -0.000001 -0.000024
 26   4.941382 1.997366 -1.629410 -0.000001 0.000005 -0.000024
 27   2.918368 1.615358 1.514501 -0.000019 -0.000022 -0.000050
 28   2.920798 1.614964 -1.501142 -0.000002 -0.000009 -0.000024
 29   8.824059 0.150544 0.091743 0.000006 -0.000231 -0.174534
 30   2.111085 -0.561179 1.784320 -0.000008 -0.000682 0.000024
 31   2.121290 -0.561289 -1.853599 0.000000 0.000000 -0.000002
 32   -0.810489 -0.093824 3.127092 -0.129396 -2.975241 -0.324172
 33   14.298673 -0.408176 0.475484 0.000020 -0.000248 -0.436243
 34   15.835795 0.581398 0.242756 0.162134 -0.013934 0.022664
 35   -0.815868 -0.091229 -3.114430 0.096389 3.002497 -0.031283
 36   14.294526 -0.410349 -0.463635 0.000093 0.000048 -0.399441
 37   15.834409 0.579420 -0.284600 -0.089078 0.040123 0.278038
 38   1.139685 -3.453749 -2.823813 0.000000 0.000000 0.000001
 39   -4.457742 -1.054854 -0.746180 0.000000 0.000000 0.000000
 40   1.118101 -3.449769 3.237290 0.000000 0.000001 0.000000
 41   -4.433840 -1.059130 0.959566 -0.000001 0.000000 0.000000
 42   -0.657468 1.697302 -2.688614 0.000000 0.000002 0.000000
 43   -0.664068 1.698578 2.869377 0.000000 0.000002 0.000000
time 7
  0   0.001233 0.187506 0.867585 0.000000 0.000000 -1.571449
  1   -1.093036 0.000002 -0.326057 -1.570809 -1.570379 -0.000026
  2   2.262337 0.113614 0.064702 -0.218157 -0.012955 -0.058851
  3   2.380047 0.353302 0.047440 0.045123 0.015792 0.173651
  4   2.033756 0.190472 -0.000128 -0.218407 0.009636 0.042348
  5   2.451511 0.204909 -0.003447 -0.215330 0.037686 0.170275
  6   7.247600 -0.397300 -0.109469 0.000001 0.000033 0.087015
  7   -2.022252 -0.104661 3.136172 1.183181 -1.077807 -4.365767
  8   1.168026 -0.537438 -0.063437 0.203555 0.569524 0.081986
  9   6.790376 -0.619176 0.015206 -0.000213 -0.000151 -1.800882
 10   8.637599 0.544015 -0.090417 -3.819553 -0.203207 0.826413
 11   6.790465 -0.619039 0.017802 0.003775 -0.011907 -1.275855
 12   -2.022474 -0.104699 -2.873818 -1.410517 0.664819 -4.543944
 13   1.167898 -0.537463 0.063297 1.087942 -0.866392 -0.989532
 14   7.002743 -0.617765 -0.183752 0.000229 0.000250 -1.302184
 15   8.209042 0.615527 -0.255885 1.550677 0.150272 -0.000428
 16   7.002735 -0.617911 -0.183641 0.013968 0.007199 -0.930099
 17   1.574674 0.609930 -0.000899 0.458439 -0.417831 0.329241
 18   -0.602177 0.511412 -0.000006 0.000000 0.000000 0.000000
 19   3.673773 0.177020 1.119313 -0.000002 -0.000014 -0.174510
 20   3.673767 0.176993 -1.117566 0.000007 -0.000003 -0.174546
 21   3.942357 1.330634 1.627658 0.000002 -0.000011 -0.000026
 22   -0.246060 -0.011889 0.516521 -0.000011 0.000031 0.000025
 23   3.942374 1.330659 -1.631083 0.000019 0.000002 -0.000024
 24   -0.246150 -0.011872 -0.516511 -0.000005 -0.000006 0.000048
 25   4.941364 1.997338 1.629330 0.000018 -0.000001 -0.000024
 26   4.941382 1.997366 -1.629410 -0.000001 0.000005 -0.000024
 27   2.918368 1.615358 1.514501 -0.000019 -0.000022 -0.000050
 28   2.920798 1.614964 -1.501142 -0.000002 -0.000009 -0.000024
 29   8.824059 0.150544 0.091743 0.000006 -0.000231 -0.174534
 30   2.111085 -0.561179 1.784320 -0.000008 -0.000682 0.000024
 31   2.121290 -0.561289 -1.853599 0.000000 0.000000 -0.000002
 32   -0.810489 -0.093824 3.127092 -0.129396 -2.975241 -0.324172
 33   14.298673 -0.408176 0.475484 0.000020 -0.000248 -0.436243
 34   15.835795 0.581398 0.242756 0.162134 -0.013934 0.022664
 35   -0.815868 -0.091229 -3.114430 0.096389 3.002497 -0.031283
 36   14.294526 -0.410349 -0.463635 0.000093 0.000048 -0.399441
 37   15.834409 0.579420 -0.284600 -0.089078 0.040123 0.278038
 38   1.139685 -3.453749 -2.823813 0.000000 0.000000 0.000001
 39   -4.457742 -1.054854 -0.746180 0.000000 0.000000 0.000000
 40   1.118101 -3.449769 3.237290 0.000000 0.000001 0.000000
 41   -4.433840 -1.059130 0.959566 -0.000001 0.000000 0.000000
 42   -0.657468 1.697302 -2.688614 0.000000 0.000002 0.000000
 43   -0.664068 1.698578 2.869377 0.000000 0.000002 0.000000
time 8
  0   0.001233 0.187506 0.867585 0.000000 0.000000 -1.571449
  1   -1.093036 0.000002 -0.326057 -1.570809 -1.570379 -0.000026
  2   2.262337 0.113614 0.064702 -0.200197 -0.011996 -0.059140
  3   2.380047 0.353302 0.047440 0.063229 0.009644 0.210014
  4   2.033756 0.190472 -0.000128 -0.200315 0.008857 0.042493
  5   2.451511 0.204909 -0.003447 -0.197546 0.034579 0.170894
  6   7.247600 -0.397300 -0.109469 0.000001 0.000033 0.087015
  7   -2.022252 -0.104661 3.136172 1.183181 -1.077807 -4.365767
  8   1.168026 -0.537438 -0.063437 0.120974 0.545021 -0.037134
  9   6.790376 -0.619176 0.015206 -0.000213 -0.000151 -1.686473
 10   8.637599 0.544015 -0.090417 -3.895024 0.017115 0.727735
 11   6.790465 -0.619039 0.017802 0.003191 -0.011850 -1.195744
 12   -2.022474 -0.104699 -2.873818 -1.410517 0.664819 -4.543944
 13   1.167898 -0.537463 0.063297 1.158587 -0.783908 -0.978030
 14   7.002743 -0.617765 -0.183752 0.000229 0.000250 -1.155242
 15   8.209042 0.615527 -0.255885 1.543414 0.136881 0.088876
 16   7.002735 -0.617911 -0.183641 0.014109 0.006353 -0.827275
 17   1.574674 0.609930 -0.000899 0.412660 -0.354048 0.305031
 18   -0.602177 0.511412 -0.000006 0.000000 0.000000 0.000000
 19   3.673773 0.177020 1.119313 -0.000002 -0.000014 -0.174510
 20   3.673767 0.176993 -1.117566 0.000007 -0.000003 -0.174546
 21   3.942357 1.330634 1.627658 0.000002 -0.000011 -0.000026
 22   -0.246060 -0.011889 0.516521 -0.000011 0.000031 0.000025
 23   3.942374 1.330659 -1.631083 0.000019 0.000002 -0.000024
 24   -0.246150 -0.011872 -0.516511 -0.000005 -0.000006 0.000048
 25   4.941364 1.997338 1.629330 0.000018 -0.000001 -0.000024
 26   4.941382 1.997366 -1.629410 -0.000001 0.000005 -0.000024
 27   2.918368 1.615358 1.514501 -0.000019 -0.000022 -0.000050
 28   2.920798 1.614964 -1.501142 -0.000002 -0.000009 -0.000024
 29   8.824059 0.150544 0.091743 0.000006 -0.000231 -0.174534
 30   2.111085 -0.561179 1.784320 -0.000008 -0.000682 0.000024
 31   2.121290 -0.561289 -1.853599 0.000000 0.000000 -0.000002
 32   -0.810489 -0.093824 3.127092 -0.129396 -2.975241 -0.324172
 33   14.298673 -0.408176 0.475484 0.000020 -0.000248 -0.436243
 34   15.835795 0.581398 0.242756 0.162134 -0.013934 0.022664
 35   -0.815868 -0.091229 -3.114430 0.096389 3.002497 -0.031283
 36   14.294526 -0.410349 -0.463635 0.000093 0.000048 -0.399441
 37   15.834409 0.579420 -0.284600 -0.089078 0.040123 0.278038
 38   1.139685 -3.453749 -2.823813 0.000000 0.000000 0.000001
 39   -4.457742 -1.054854 -0.746180 0.000000 0.000000 0.000000
 40   1.118101 -3.449769 3.237290 0.000000 0.000001 0.000000
 41   -4.433840 -1.059130 0.959566 -0.000001 0.000000 0.000000
 42   -0.657468 1.697302 -2.688614 0.000000 0.000002 0.000000
 43   -0.664068 1.698578 2.869377 0.000000 0.000002 0.000000
time 9
  0   0.001233 0.187506 0.867585 0.000000 0.000000 -1.571449
  1   -1.093036 0.000002 -0.326057 -1.570809 -1.570379 -0.000026
  2   2.262337 0.113614 0.064702 -0.180989 -0.010821 -0.059285
  3   2.380047 0.353302 0.047440 0.082281 0.002645 0.248560
  4   2.033756 0.190472 -0.000128 -0.181190 0.008018 0.042638
  5   2.451511 0.204909 -0.003447 -0.178666 0.031446 0.171538
  6   7.247600 -0.397300 -0.109469 0.000001 0.000033 0.087015
  7   -2.022252 -0.104661 3.136172 1.183181 -1.077807 -4.365767
  8   1.168026 -0.537438 -0.063437 0.036684 0.512618 -0.159353
  9   6.790376 -0.619176 0.015206 -0.000213 -0.000151 -1.572517
 10   8.637599 0.544015 -0.090417 -3.953235 0.215053 0.617844
 11   6.790465 -0.619039 0.017802 0.002724 -0.011850 -1.116038
 12   -2.022474 -0.104699 -2.873818 -1.410517 0.664819 -4.543944
 13   1.167898 -0.537463 0.063297 1.224805 -0.697662 -0.955390
 14   7.002743 -0.617765 -0.183752 0.000229 0.000250 -1.005412
 15   8.209042 0.615527 -0.255885 1.537374 0.127121 0.156831
 16   7.002735 -0.617911 -0.183641 0.014250 0.005507 -0.722464
 17   1.574674 0.609930 -0.000899 0.362819 -0.288751 0.275130
 18   -0.602177 0.511412 -0.000006 0.000000 0.000000 0.000000
 19   3.673773 0.177020 1.119313 -0.000002 -0.000014 -0.174510
 20   3.673767 0.176993 -1.117566 0.000007 -0.000003 -0.174546
 21   3.942357 1.330634 1.627658 0.000002 -0.000011 -0.000026
 22   -0.246060 -0.011889 0.516521 -0.000011 0.000031 0.000025
 23   3.942374 1.330659 -1.631083 0.000019 0.000002 -0.000024
 24   -0.246150 -0.011872 -0.516511 -0.000005 -0.000006 0.000048
 25   4.941364 1.997338 1.629330 0.000018 -0.000001 -0.000024
 26   4.941382 1.997366 -1.629410 -0.000001 0.000005 -0.000024
 27   2.918368 1.615358 1.514501 -0.000019 -0.000022 -0.000050
 28   2.920798 1.614964 -1.501142 -0.000002 -0.000009 -0.000024
 29   8.824059 0.150544 0.091743 0.000006 -0.000231 -0.174534
 30   2.111085 -0.561179 1.784320 -0.000008 -0.000682 0.000024
 31   2.121290 -0.561289 -1.853599 0.000000 0.000000 -0.000002
 32   -0.810489 -0.093824 3.127092 -0.129396 -2.975241 -0.324172
 33   14.298673 -0.408176 0.475484 0.000020 -0.000248 -0.436243
 34   15.835795 0.581398 0.242756 0.162134 -0.013934 0.022664
 35   -0.815868 -0.091229 -3.114430 0.096389 3.002497 -0.031283
 36   14.294526 -0.410349 -0.463635 0.000093 0.000048 -0.399441
 37   15.834409 0.579420 -0.284600 -0.089078 0.040123 0.278038
 38   1.139685 -3.453749 -2.823813 0.000000 0.000000 0.000001
 39   -4.457742 -1.054854 -0.746180 0.000000 0.000000 0.000000
 40   1.118101 -3.449769 3.237290 0.000000 0.000001 0.000000
 41   -4.433840 -1.059130 0.959566 -0.000001 0.000000 0.000000
 42   -0.657468 1.697302 -2.688614 0.000000 0.000002 0.000000
 43   -0.664068 1.698578 2.869377 0.000000 0.000002 0.000000
time 10
  0   0.001233 0.187506 0.867585 0.000000 0.000000 -1.571449
  1   -1.093036 0.000002 -0.326057 -1.570809 -1.570379 -0.000026
  2   2.262337 0.113614 0.064702 -0.161921 -0.009695 -0.059484
  3   2.380047 0.353302 0.047440 0.100972 -0.005026 0.286820
  4   2.033756 0.190472 -0.000128 -0.162065 0.007179 0.042783
  5   2.451511 0.204909 -0.003447 -0.159786 0.028169 0.172058
  6   7.247600 -0.397300 -0.109469 0.000001 0.000033 0.087015
  7   -2.022252 -0.104661 3.136172 1.183181 -1.077836 -4.365767
  8   1.168026 -0.537438 -0.063437 -0.047479 0.474279 -0.290555
  9   6.790376 -0.619176 0.015206 -0.000213 -0.000151 -1.432374
 10   8.637599 0.544015 -0.090417 -3.996475 0.390466 0.491097
 11   6.790465 -0.619039 0.017802 0.002111 -0.011793 -1.017933
 12   -2.022474 -0.104699 -2.873818 -1.410517 0.664819 -4.543944
 13   1.167898 -0.537463 0.063297 1.286312 -0.610042 -0.924820
 14   7.002743 -0.617765 -0.183752 0.000229 0.000250 -0.845764
 15   8.209042 0.615527 -0.255885 1.535146 0.123792 0.180646
 16   7.002735 -0.617911 -0.183641 0.014345 0.004661 -0.610643
 17   1.574674 0.609930 -0.000899 0.310988 -0.226295 0.241274
 18   -0.602177 0.511412 -0.000006 0.000000 0.000000 0.000000
 19   3.673773 0.177020 1.119313 -0.000002 -0.000014 -0.174510
 20   3.673767 0.176993 -1.117566 0.000007 -0.000003 -0.174546
 21   3.942357 1.330634 1.627658 0.000002 -0.000011 -0.000026
 22   -0.246060 -0.011889 0.516521 -0.000011 0.000031 0.000025
 23   3.942374 1.330659 -1.631083 0.000019 0.000002 -0.000024
 24   -0.246150 -0.011872 -0.516511 -0.000005 -0.000006 0.000048
 25   4.941364 1.997338 1.629330 0.000018 -0.000001 -0.000024
 26   4.941382 1.997366 -1.629410 -0.000001 0.000005 -0.000024
 27   2.918368 1.615358 1.514501 -0.000019 -0.000022 -0.000050
 28   2.920798 1.614964 -1.501142 -0.000002 -0.000009 -0.000024
 29   8.824059 0.150544 0.091743 0.000006 -0.000231 -0.174534
 30   2.111085 -0.561179 1.784320 -0.000008 -0.000682 0.000024
 31   2.121290 -0.561289 -1.853599 0.000000 0.000000 -0.000002
 32   -0.810489 -0.093824 3.127092 -0.129396 -2.975241 -0.324172
 33   14.298673 -0.408176 0.475484 0.000020 -0.000248 -0.436243
 34   15.835795 0.581398 0.242756 0.162134 -0.013934 0.022664
 35   -0.815868 -0.091229 -3.114430 0.096389 3.002497 -0.031283
 36   14.294526 -0.410349 -0.463635 0.000093 0.000048 -0.399441
 37   15.834409 0.579420 -0.284600 -0.089078 0.040123 0.278038
 38   1.139685 -3.453749 -2.823813 0.000000 0.000000 0.000001
 39   -4.457742 -1.054854 -0.746180 0.000000 0.000000 0.000000
 40   1.118101 -3.449769 3.237290 0.000000 0.000001 0.000000
 41   -4.433840 -1.059130 0.959566 -0.000001 0.000000 0.000000
 42   -0.657468 1.697302 -2.688614 0.000000 0.000002 0.000000
 43   -0.664068 1.698578 2.869377 0.000000 0.000002 0.000000
time 11
  0   0.001233 0.187506 0.867585 0.000000 0.000000 -1.571449
  1   -1.093036 0.000002 -0.326057 -1.570809 -1.570379 -0.000026
  2   2.262337 0.113614 0.064702 -0.143871 -0.008616 -0.059646
  3   2.380047 0.353302 0.047440 0.118343 -0.012911 0.322897
  4   2.033756 0.190472 -0.000128 -0.143973 0.006376 0.043000
  5   2.451511 0.204909 -0.003447 -0.141933 0.025036 0.172479
  6   7.247600 -0.397300 -0.109469 0.000001 0.000033 0.087015
  7   -2.022252 -0.104661 3.136172 1.183181 -1.077807 -4.365767
  8   1.168026 -0.537438 -0.063437 -0.129364 0.433725 -0.440735
  9   6.790376 -0.619176 0.015206 -0.000213 -0.000151 -1.224159
 10   8.637599 0.544015 -0.090417 -4.005986 0.530613 0.341851
 11   6.790465 -0.619039 0.017802 0.001235 -0.011651 -0.872131
 12   -2.022474 -0.104699 -2.873818 -1.410517 0.664819 -4.543944
 13   1.167898 -0.537463 0.063297 1.343039 -0.524050 -0.888923
 14   7.002743 -0.617765 -0.183752 0.000229 0.000250 -0.674318
 15   8.209042 0.615527 -0.255885 1.536080 0.125532 0.168618
 16   7.002735 -0.617911 -0.183641 0.014486 0.003872 -0.490654
 17   1.574674 0.609930 -0.000899 0.260091 -0.170512 0.205902
 18   -0.602177 0.511412 -0.000006 0.000000 0.000000 0.000000
 19   3.673773 0.177020 1.119313 -0.000002 -0.000014 -0.174510
 20   3.673767 0.176993 -1.117566 0.000007 -0.000003 -0.174546
 21   3.942357 1.330634 1.627658 0.000002 -0.000011 -0.000026
 22   -0.246060 -0.011889 0.516521 -0.000011 0.000031 0.000025
 23   3.942374 1.330659 -1.631083 0.000019 0.000002 -0.000024
 24   -0.246150 -0.011872 -0.516511 -0.000005 -0.000006 0.000048
 25   4.941364 1.997338 1.629330 0.000018 -0.000001 -0.000024
 26   4.941382 1.997366 -1.629410 -0.000001 0.000005 -0.000024
 27   2.918368 1.615358 1.514501 -0.000019 -0.000022 -0.000050
 28   2.920798 1.614964 -1.501142 -0.000002 -0.000009 -0.000024
 29   8.824059 0.150544 0.091743 0.000006 -0.000231 -0.174534
 30   2.111085 -0.561179 1.784320 -0.000008 -0.000682 0.000024
 31   2.121290 -0.561289 -1.853599 0.000000 0.000000 -0.000002
 32   -0.810489 -0.093824 3.127092 -0.129396 -2.975241 -0.324172
 33   14.298673 -0.408176 0.475484 0.000020 -0.000248 -0.436243
 34   15.835795 0.581398 0.242756 0.162134 -0.013934 0.022664
 35   -0.815868 -0.091229 -3.114430 0.096389 3.002497 -0.031283
 36   14.294526 -0.410349 -0.463635 0.000093 0.000048 -0.399441
 37   15.834409 0.579420 -0.284600 -0.089078 0.040123 0.278038
 38   1.139685 -3.453749 -2.823813 0.000000 0.000000 0.000001
 39   -4.457742 -1.054854 -0.746180 0.000000 0.000000 0.000000
 40   1.118101 -3.449769 3.237290 0.000000 0.000001 0.000000
 41   -4.433840 -1.059130 0.959566 -0.000001 0.000000 0.000000
 42   -0.657468 1.697302 -2.688614 0.000000 0.000002 0.000000
 43   -0.664068 1.698578 2.869377 0.000000 0.000002 0.000000
time 12
  0   0.001233 0.187506 0.867585 0.000000 0.000000 -1.571449
  1   -1.093036 0.000002 -0.326057 -1.570809 -1.570379 -0.000026
  2   2.262337 0.113614 0.064702 -0.127860 -0.007574 -0.059755
  3   2.380047 0.353302 0.047440 0.133449 -0.020582 0.354526
  4   2.033756 0.190472 -0.000128 -0.128020 0.005681 0.043073
  5   2.451511 0.204909 -0.003447 -0.126254 0.022137 0.172900
  6   7.247600 -0.397300 -0.109469 0.000001 0.000033 0.087015
  7   -2.022252 -0.104661 3.136172 1.183181 -1.077807 -4.365767
  8   1.168026 -0.537438 -0.063437 -0.200618 0.388593 -0.590093
  9   6.790376 -0.619176 0.015206 -0.000213 -0.000151 -0.982437
 10   8.637599 0.544015 -0.090417 -4.016642 0.659709 0.178787
 11   6.790465 -0.619039 0.017802 0.000213 -0.011566 -0.702855
 12   -2.022474 -0.104699 -2.873818 -1.410517 0.664819 -4.543944
 13   1.167898 -0.537463 0.063297 1.393581 -0.444668 -0.852118
 14   7.002743 -0.617765 -0.183752 0.000229 0.000250 -0.503284
 15   8.209042 0.615527 -0.255885 1.537374 0.127121 0.156831
 16   7.002735 -0.617911 -0.183641 0.014580 0.002857 -0.370886
 17   1.574674 0.609930 -0.000899 0.213418 -0.123912 0.172157
 18   -0.602177 0.511412 -0.000006 0.000000 0.000000 0.000000
 19   3.673773 0.177020 1.119313 -0.000002 -0.000014 -0.174510
 20   3.673767 0.176993 -1.117566 0.000007 -0.000003 -0.174546
 21   3.942357 1.330634 1.627658 0.000002 -0.000011 -0.000026
 22   -0.246060 -0.011889 0.516521 -0.000011 0.000031 0.000025
 23   3.942374 1.330659 -1.631083 0.000019 0.000002 -0.000024
 24   -0.246150 -0.011872 -0.516511 -0.000005 -0.000006 0.000048
 25   4.941364 1.997338 1.629330 0.000018 -0.000001 -0.000024
 26   4.941382 1.997366 -1.629410 -0.000001 0.000005 -0.000024
 27   2.918368 1.615358 1.514501 -0.000019 -0.000022 -0.000050
 28   2.920798 1.614964 -1.501142 -0.000002 -0.000009 -0.000024
 29   8.824059 0.150544 0.091743 0.000006 -0.000231 -0.174534
 30   2.111085 -0.561179 1.784320 -0.000008 -0.000682 0.000024
 31   2.121290 -0.561289 -1.853599 0.000000 0.000000 -0.000002
 32   -0.810489 -0.093824 3.127092 -0.129396 -2.975241 -0.324172
 33   14.298673 -0.408176 0.475484 0.000020 -0.000248 -0.436243
 34   15.835795 0.581398 0.242756 0.162134 -0.013934 0.022664
 35   -0.815868 -0.091229 -3.114430 0.096389 3.002497 -0.031283
 36   14.294526 -0.410349 -0.463635 0.000093 0.000048 -0.399441
 37   15.834409 0.579420 -0.284600 -0.089078 0.040123 0.278038
 38   1.139685 -3.453749 -2.823813 0.000000 0.000000 0.000001
 39   -4.457742 -1.054854 -0.746180 0.000000 0.000000 0.000000
 40   1.118101 -3.449769 3.237290 0.000000 0.000001 0.000000
 41   -4.433840 -1.059130 0.959566 -0.000001 0.000000 0.000000
 42   -0.657468 1.697302 -2.688614 0.000000 0.000002 0.000000
 43   -0.664068 1.698578 2.869377 0.000000 0.000002 0.000000
end
