version 1
nodes
  0 "Bip01" -1
  1 "Bip01 Pelvis" 0
  2 "Bip01 Spine" 1
  3 "Bip01 Spine1" 2
  4 "Bip01 Spine2" 3
  5 "Bip01 Spine3" 4
  6 "Bip01 Neck" 5
  7 "Bip01 L Arm" 6
  8 "Bip01 L Arm1" 7
  9 "Bip01 L Arm2" 8
 10 "Bip01 L Hand" 9
 11 "Bip06 L elbow2-smooth" 8
 12 "Bip01 R Arm" 6
 13 "Bip01 R Arm1" 12
 14 "Bip01 R Arm2" 13
 15 "Bip01 R Hand" 14
 16 "Bip06 R elbow2-smooth" 13
 17 "Bip01 Head" 6
 18 "Bip06 Head_helper" 17
 19 "Bip06 Head_eyes_l" 18
 20 "Bip06 Head_eyes_r" 18
 21 "Bip06 Head_blink_l" 18
 22 "Bip06 Head_blink_smooth_l1" 21
 23 "Bip06 Head_blink_r" 18
 24 "Bip06 Head_blink_smooth_r1" 23
 25 "Bip06 Head_L_eyebrow" 18
 26 "Bip06 Head_R_eyebrow" 18
 27 "Bip06 Head_blink_l_lid" 18
 28 "Bip06 Head_blink_r_lid" 18
 29 "Bip06 bunny" 18
 30 "Bip06 bunnyL" 29
 31 "Bip06 bunnyR" 29
 32 "Bip01 L Leg" 1
 33 "Bip01 L Leg1" 32
 34 "Bip01 L Foot" 33
 35 "Bip01 R Leg" 1
 36 "Bip01 R Leg1" 35
 37 "Bip01 R Foot" 36
 38 "Bip03 HairR1" 17
 39 "Bip03 HairR2" 38
 40 "Bip03 HairL1" 17
 41 "Bip03 HairL2" 40
 42 "Bip03 swingR" 17
 43 "Bip03 swingL" 17
end
skeleton
time 0
  0   -0.010486 -0.546892 1.863709 0.000000 0.000000 -1.571449
  1   -1.093036 0.000002 -0.326057 -1.570809 -1.570703 0.000022
  2   2.262337 0.113614 0.064702 -0.010230 -0.042736 -0.077157
  3   2.380047 0.353302 0.047440 -0.017356 0.054166 0.044076
  4   2.033756 0.190472 -0.000128 0.003568 -0.053847 -0.126527
  5   2.451511 0.204909 -0.003447 -0.158930 -0.035007 -0.096672
  6   7.247600 -0.397300 -0.109469 -0.016634 0.002238 0.459335
  7   -2.022252 -0.104661 3.136172 1.822266 -1.010238 -5.463803
  8   1.168026 -0.537438 -0.063437 -1.487869 0.913875 -1.156337
  9   6.790376 -0.619176 0.015206 -0.000102 -0.000151 -1.591535
 10   8.637599 0.544015 -0.090417 -2.893111 0.080044 0.504987
 11   6.790465 -0.619039 0.017802 0.002899 -0.011793 -1.129303
 12   -2.022474 -0.104699 -2.873818 -2.302289 1.868006 -5.924913
 13   1.167898 -0.537463 0.063297 -1.514769 -0.587056 0.451559
 14   7.002743 -0.617765 -0.183752 0.000172 0.000194 -1.972870
 15   8.209042 0.615527 -0.255885 1.210863 0.636839 -1.114231
 16   7.002735 -0.617911 -0.183641 0.012838 0.010977 -1.399679
 17   1.574674 0.609930 -0.000899 0.179744 0.134294 -0.556197
 18   -0.602177 0.511412 -0.000006 0.000000 0.000000 0.000000
 19   3.673773 0.177020 1.119313 -0.000002 -0.000014 -0.174510
 20   3.673767 0.176993 -1.117566 0.000007 -0.000003 -0.174546
 21   3.942357 1.330634 1.627658 0.000002 -0.000011 -0.000026
 22   -0.246060 -0.011889 0.516521 -0.000011 0.000031 0.000025
 23   3.942374 1.330659 -1.631083 0.000019 0.000002 -0.000024
 24   -0.246150 -0.011872 -0.516511 -0.000005 -0.000006 0.000048
 25   4.941364 1.997338 1.629330 0.000018 -0.000001 -0.000024
 26   4.941382 1.997366 -1.629410 -0.000001 0.000005 -0.000024
 27   2.918368 1.615358 1.514501 -0.000019 -0.000022 -0.000050
 28   2.920798 1.614964 -1.501142 -0.000002 -0.000009 -0.000024
 29   8.824059 0.150544 0.091743 0.000006 -0.000231 -0.174534
 30   2.111085 -0.561179 1.784320 -0.000008 -0.000682 0.000024
 31   2.121290 -0.561289 -1.853599 0.000000 0.000000 -0.000002
 32   -0.810489 -0.093824 3.127092 0.262828 -3.097583 -0.334759
 33   14.298673 -0.408176 0.475484 0.003675 -0.003118 -0.522390
 34   15.835795 0.581398 0.242756 -0.001248 0.032043 0.122292
 35   -0.815868 -0.091229 -3.114430 -0.132801 3.034913 -0.011454
 36   14.294526 -0.410349 -0.463635 -0.002676 0.001869 -0.384687
 37   15.834409 0.579420 -0.284600 -0.034108 0.026558 0.304555
 38   1.139685 -3.453749 -2.823813 0.000000 0.000000 0.000001
 39   -4.457742 -1.054854 -0.746180 0.000000 0.000000 0.000000
 40   1.118101 -3.449769 3.237290 0.000000 0.000001 0.000000
 41   -4.433840 -1.059130 0.959566 -0.000001 0.000000 0.000000
 42   -0.657468 1.697302 -2.688614 0.000000 0.000002 0.000000
 43   -0.664068 1.698578 2.869377 0.000000 0.000002 0.000000
time 1
  0   -0.010486 -0.546892 1.863709 0.000000 0.000000 -1.571449
  1   -1.093036 0.000002 -0.326057 -1.570809 -1.570703 0.000022
  2   2.262337 0.113614 0.064702 -0.010217 -0.037823 -0.079434
  3   2.380047 0.353302 0.047440 -0.016696 0.049312 0.032261
  4   2.033756 0.190472 -0.000128 0.036101 -0.028092 -0.079370
  5   2.451511 0.204909 -0.003447 -0.093441 -0.019014 -0.047463
  6   7.247600 -0.397300 -0.109469 -0.016634 0.002238 0.459335
  7   -2.022252 -0.104661 3.136172 1.647517 -1.028111 -5.259072
  8   1.168026 -0.537438 -0.063437 -0.841269 0.909095 -0.947767
  9   6.790376 -0.619176 0.015206 -0.000102 -0.000151 -1.497276
 10   8.637599 0.544015 -0.090417 -2.476476 0.213997 0.556496
 11   6.790465 -0.619039 0.017802 0.002461 -0.011708 -1.063208
 12   -2.022474 -0.104699 -2.873818 -2.302289 1.868006 -5.924913
 13   1.167898 -0.537463 0.063297 -1.415654 -0.714697 0.467722
 14   7.002743 -0.617765 -0.183752 0.000172 0.000194 -1.943746
 15   8.209042 0.615527 -0.255885 1.592812 0.706370 -0.805486
 16   7.002735 -0.617911 -0.183641 0.012885 0.010751 -1.379258
 17   1.574674 0.609930 -0.000899 0.116133 0.071269 -0.325376
 18   -0.602177 0.511412 -0.000006 0.000000 0.000000 0.000000
 19   3.673773 0.177020 1.119313 -0.000002 -0.000014 -0.174510
 20   3.673767 0.176993 -1.117566 0.000007 -0.000003 -0.174546
 21   3.942357 1.330634 1.627658 0.000002 -0.000011 -0.000026
 22   -0.246060 -0.011889 0.516521 -0.000011 0.000031 0.000025
 23   3.942374 1.330659 -1.631083 0.000019 0.000002 -0.000024
 24   -0.246150 -0.011872 -0.516511 -0.000005 -0.000006 0.000048
 25   4.941364 1.997338 1.629330 0.000018 -0.000001 -0.000024
 26   4.941382 1.997366 -1.629410 -0.000001 0.000005 -0.000024
 27   2.918368 1.615358 1.514501 -0.000019 -0.000022 -0.000050
 28   2.920798 1.614964 -1.501142 -0.000002 -0.000009 -0.000024
 29   8.824059 0.150544 0.091743 0.000006 -0.000231 -0.174534
 30   2.111085 -0.561179 1.784320 -0.000008 -0.000682 0.000024
 31   2.121290 -0.561289 -1.853599 0.000000 0.000000 -0.000002
 32   -0.810489 -0.093824 3.127092 0.262828 -3.097583 -0.334759
 33   14.298673 -0.408176 0.475484 0.003675 -0.003118 -0.522390
 34   15.835795 0.581398 0.242756 -0.001248 0.032043 0.122292
 35   -0.815868 -0.091229 -3.114430 -0.132801 3.034913 -0.011454
 36   14.294526 -0.410349 -0.463635 -0.002676 0.001869 -0.384687
 37   15.834409 0.579420 -0.284600 -0.034108 0.026558 0.304555
 38   1.139685 -3.453749 -2.823813 0.000000 0.000000 0.000001
 39   -4.457742 -1.054854 -0.746180 0.000000 0.000000 0.000000
 40   1.118101 -3.449769 3.237290 0.000000 0.000001 0.000000
 41   -4.433840 -1.059130 0.959566 -0.000001 0.000000 0.000000
 42   -0.657468 1.697302 -2.688614 0.000000 0.000002 0.000000
 43   -0.664068 1.698578 2.869377 0.000000 0.000002 0.000000
time 2
  0   -0.010486 -0.546892 1.863709 0.000000 0.000000 -1.571449
  1   -1.093036 0.000002 -0.326057 -1.570809 -1.570703 0.000022
  2   2.262337 0.113614 0.064702 -0.010115 -0.028630 -0.083608
  3   2.380047 0.353302 0.047440 -0.015286 0.040252 0.010427
  4   2.033756 0.190472 -0.000128 0.099543 0.015400 0.010269
  5   2.451511 0.204909 -0.003447 0.029869 0.001888 0.045952
  6   7.247600 -0.397300 -0.109469 -0.016634 0.002238 0.459335
  7   -2.022252 -0.104661 3.136172 1.467017 -1.026727 -5.048424
  8   1.168026 -0.537438 -0.063437 -0.137717 0.686706 -0.773801
  9   6.790376 -0.619176 0.015206 -0.000102 -0.000151 -1.402791
 10   8.637599 0.544015 -0.090417 -2.039234 0.314796 0.661974
 11   6.790465 -0.619039 0.017802 0.002023 -0.011708 -0.997170
 12   -2.022474 -0.104699 -2.873818 -2.302289 1.868006 -5.924913
 13   1.167898 -0.537463 0.063297 -1.160979 -0.965555 0.390843
 14   7.002743 -0.617765 -0.183752 0.000172 0.000194 -1.883847
 15   8.209042 0.615527 -0.255885 2.358434 0.562163 -0.190402
 16   7.002735 -0.617911 -0.183641 0.012979 0.010413 -1.337422
 17   1.574674 0.609930 -0.000899 -0.067470 0.054797 -0.206472
 18   -0.602177 0.511412 -0.000006 0.000000 0.000000 0.000000
 19   3.673773 0.177020 1.119313 -0.000002 -0.000014 -0.174510
 20   3.673767 0.176993 -1.117566 0.000007 -0.000003 -0.174546
 21   3.942357 1.330634 1.627658 0.000002 -0.000011 -0.000026
 22   -0.246060 -0.011889 0.516521 -0.000011 0.000031 0.000025
 23   3.942374 1.330659 -1.631083 0.000019 0.000002 -0.000024
 24   -0.246150 -0.011872 -0.516511 -0.000005 -0.000006 0.000048
 25   4.941364 1.997338 1.629330 0.000018 -0.000001 -0.000024
 26   4.941382 1.997366 -1.629410 -0.000001 0.000005 -0.000024
 27   2.918368 1.615358 1.514501 -0.000019 -0.000022 -0.000050
 28   2.920798 1.614964 -1.501142 -0.000002 -0.000009 -0.000024
 29   8.824059 0.150544 0.091743 0.000006 -0.000231 -0.174534
 30   2.111085 -0.561179 1.784320 -0.000008 -0.000682 0.000024
 31   2.121290 -0.561289 -1.853599 0.000000 0.000000 -0.000002
 32   -0.810489 -0.093824 3.127092 0.262828 -3.097583 -0.334759
 33   14.298673 -0.408176 0.475484 0.003675 -0.003118 -0.522390
 34   15.835795 0.581398 0.242756 -0.001248 0.032043 0.122292
 35   -0.815868 -0.091229 -3.114430 -0.132801 3.034913 -0.011454
 36   14.294526 -0.410349 -0.463635 -0.002676 0.001869 -0.384687
 37   15.834409 0.579420 -0.284600 -0.034108 0.026558 0.304555
 38   1.139685 -3.453749 -2.823813 0.000000 0.000000 0.000001
 39   -4.457742 -1.054854 -0.746180 0.000000 0.000000 0.000000
 40   1.118101 -3.449769 3.237290 0.000000 0.000001 0.000000
 41   -4.433840 -1.059130 0.959566 -0.000001 0.000000 0.000000
 42   -0.657468 1.697302 -2.688614 0.000000 0.000002 0.000000
 43   -0.664068 1.698578 2.869377 0.000000 0.000002 0.000000
time 3
  0   -0.010486 -0.546892 1.863709 0.000000 0.000000 -1.571449
  1   -1.093036 0.000002 -0.326057 -1.570809 -1.570703 0.000022
  2   2.262337 0.113614 0.064702 -0.010115 -0.023741 -0.085867
  3   2.380047 0.353302 0.047440 -0.014506 0.035398 -0.001347
  4   2.033756 0.190472 -0.000128 0.135414 0.036445 0.059819
  5   2.451511 0.204909 -0.003447 0.096967 0.008298 0.097217
  6   7.247600 -0.397300 -0.109469 -0.016634 0.002238 0.459335
  7   -2.022252 -0.104661 3.136172 1.336075 -1.012948 -4.894405
  8   1.168026 -0.537438 -0.063437 0.440983 0.414002 -0.646711
  9   6.790376 -0.619176 0.015206 -0.000102 -0.000151 -1.334870
 10   8.637599 0.544015 -0.090417 -1.641269 0.359494 0.788432
 11   6.790465 -0.619039 0.017802 0.001819 -0.011651 -0.949646
 12   -2.022474 -0.104699 -2.873818 -2.302289 1.868006 -5.924913
 13   1.167898 -0.537463 0.063297 -0.937795 -1.076567 0.251189
 14   7.002743 -0.617765 -0.183752 0.000172 0.000194 -1.853815
 15   8.209042 0.615527 -0.255885 2.638280 0.382850 0.006368
 16   7.002735 -0.617911 -0.183641 0.013074 0.010244 -1.316283
 17   1.574674 0.609930 -0.000899 -0.184334 0.086794 -0.115696
 18   -0.602177 0.511412 -0.000006 0.000000 0.000000 0.000000
 19   3.673773 0.177020 1.119313 -0.000002 -0.000014 -0.174510
 20   3.673767 0.176993 -1.117566 0.000007 -0.000003 -0.174546
 21   3.942357 1.330634 1.627658 0.000002 -0.000011 -0.000026
 22   -0.246060 -0.011889 0.516521 -0.000011 0.000031 0.000025
 23   3.942374 1.330659 -1.631083 0.000019 0.000002 -0.000024
 24   -0.246150 -0.011872 -0.516511 -0.000005 -0.000006 0.000048
 25   4.941364 1.997338 1.629330 0.000018 -0.000001 -0.000024
 26   4.941382 1.997366 -1.629410 -0.000001 0.000005 -0.000024
 27   2.918368 1.615358 1.514501 -0.000019 -0.000022 -0.000050
 28   2.920798 1.614964 -1.501142 -0.000002 -0.000009 -0.000024
 29   8.824059 0.150544 0.091743 0.000006 -0.000231 -0.174534
 30   2.111085 -0.561179 1.784320 -0.000008 -0.000682 0.000024
 31   2.121290 -0.561289 -1.853599 0.000000 0.000000 -0.000002
 32   -0.810489 -0.093824 3.127092 0.262828 -3.097583 -0.334759
 33   14.298673 -0.408176 0.475484 0.003675 -0.003118 -0.522390
 34   15.835795 0.581398 0.242756 -0.001248 0.032043 0.122292
 35   -0.815868 -0.091229 -3.114430 -0.132801 3.034913 -0.011454
 36   14.294526 -0.410349 -0.463635 -0.002676 0.001869 -0.384687
 37   15.834409 0.579420 -0.284600 -0.034108 0.026558 0.304555
 38   1.139685 -3.453749 -2.823813 0.000000 0.000000 0.000001
 39   -4.457742 -1.054854 -0.746180 0.000000 0.000000 0.000000
 40   1.118101 -3.449769 3.237290 0.000000 0.000001 0.000000
 41   -4.433840 -1.059130 0.959566 -0.000001 0.000000 0.000000
 42   -0.657468 1.697302 -2.688614 0.000000 0.000002 0.000000
 43   -0.664068 1.698578 2.869377 0.000000 0.000002 0.000000
time 4
  0   -0.010486 -0.546892 1.863709 0.000000 0.000000 -1.571449
  1   -1.093036 0.000002 -0.326057 -1.570809 -1.570703 0.000022
  2   2.262337 0.113614 0.064702 -0.010115 -0.020828 -0.085831
  3   2.380047 0.353302 0.047440 -0.014251 0.020202 0.001938
  4   2.033756 0.190472 -0.000128 0.107713 0.033593 0.090955
  5   2.451511 0.204909 -0.003447 0.088614 0.032960 0.147243
  6   7.247600 -0.397300 -0.109469 -0.016634 0.002238 0.459335
  7   -2.022252 -0.104661 3.136172 1.435575 -1.024392 -5.011328
  8   1.168026 -0.537438 -0.063437 0.585452 0.179336 -0.672015
  9   6.790376 -0.619176 0.015206 -0.000102 -0.000151 -1.408979
 10   8.637599 0.544015 -0.090417 -1.552587 0.363295 0.833141
 11   6.790465 -0.619039 0.017802 0.002140 -0.011708 -1.001438
 12   -2.022474 -0.104699 -2.873818 -2.302289 1.868006 -5.924913
 13   1.167898 -0.537463 0.063297 -0.766980 -1.091264 0.039378
 14   7.002743 -0.617765 -0.183752 0.000172 0.000194 -1.850845
 15   8.209042 0.615527 -0.255885 2.661936 0.363027 0.021402
 16   7.002735 -0.617911 -0.183641 0.013074 0.010131 -1.314296
 17   1.574674 0.609930 -0.000899 -0.169914 0.075671 -0.097215
 18   -0.602177 0.511412 -0.000006 0.000000 0.000000 0.000000
 19   3.673773 0.177020 1.119313 -0.000002 -0.000014 -0.174510
 20   3.673767 0.176993 -1.117566 0.000007 -0.000003 -0.174546
 21   3.942357 1.330634 1.627658 0.000002 -0.000011 -0.000026
 22   -0.246060 -0.011889 0.516521 -0.000011 0.000031 0.000025
 23   3.942374 1.330659 -1.631083 0.000019 0.000002 -0.000024
 24   -0.246150 -0.011872 -0.516511 -0.000005 -0.000006 0.000048
 25   4.941364 1.997338 1.629330 0.000018 -0.000001 -0.000024
 26   4.941382 1.997366 -1.629410 -0.000001 0.000005 -0.000024
 27   2.918368 1.615358 1.514501 -0.000019 -0.000022 -0.000050
 28   2.920798 1.614964 -1.501142 -0.000002 -0.000009 -0.000024
 29   8.824059 0.150544 0.091743 0.000006 -0.000231 -0.174534
 30   2.111085 -0.561179 1.784320 -0.000008 -0.000682 0.000024
 31   2.121290 -0.561289 -1.853599 0.000000 0.000000 -0.000002
 32   -0.810489 -0.093824 3.127092 0.262828 -3.097583 -0.334759
 33   14.298673 -0.408176 0.475484 0.003675 -0.003118 -0.522390
 34   15.835795 0.581398 0.242756 -0.001248 0.032043 0.122292
 35   -0.815868 -0.091229 -3.114430 -0.132801 3.034913 -0.011454
 36   14.294526 -0.410349 -0.463635 -0.002676 0.001869 -0.384687
 37   15.834409 0.579420 -0.284600 -0.034108 0.026558 0.304555
 38   1.139685 -3.453749 -2.823813 0.000000 0.000000 0.000001
 39   -4.457742 -1.054854 -0.746180 0.000000 0.000000 0.000000
 40   1.118101 -3.449769 3.237290 0.000000 0.000001 0.000000
 41   -4.433840 -1.059130 0.959566 -0.000001 0.000000 0.000000
 42   -0.657468 1.697302 -2.688614 0.000000 0.000002 0.000000
 43   -0.664068 1.698578 2.869377 0.000000 0.000002 0.000000
time 5
  0   -0.010486 -0.546892 1.863709 0.000000 0.000000 -1.571449
  1   -1.093036 0.000002 -0.326057 -1.570809 -1.570703 0.000022
  2   2.262337 0.113614 0.064702 -0.010115 -0.019750 -0.085831
  3   2.380047 0.353302 0.047440 -0.014161 0.014317 0.003183
  4   2.033756 0.190472 -0.000128 0.097109 0.032670 0.102844
  5   2.451511 0.204909 -0.003447 0.086560 0.061774 0.168145
  6   7.247600 -0.397300 -0.109469 -0.016634 0.002238 0.459335
  7   -2.022252 -0.104661 3.136172 1.555110 -1.029840 -5.151447
  8   1.168026 -0.537438 -0.063437 0.380740 -0.137191 -0.610779
  9   6.790376 -0.619176 0.015206 -0.000102 -0.000151 -1.587988
 10   8.637599 0.544015 -0.090417 -1.760861 0.360198 0.804203
 11   6.790465 -0.619039 0.017802 0.002899 -0.011793 -1.126823
 12   -2.022474 -0.104699 -2.873818 -2.302289 1.868006 -5.924913
 13   1.167898 -0.537463 0.063297 -0.689235 -1.085111 -0.066982
 14   7.002743 -0.617765 -0.183752 0.000172 0.000194 -1.839954
 15   8.209042 0.615527 -0.255885 2.716510 0.302424 0.052493
 16   7.002735 -0.617911 -0.183641 0.013074 0.010131 -1.306569
 17   1.574674 0.609930 -0.000899 -0.186203 0.055365 -0.092928
 18   -0.602177 0.511412 -0.000006 0.000000 0.000000 0.000000
 19   3.673773 0.177020 1.119313 -0.000002 -0.000014 -0.174510
 20   3.673767 0.176993 -1.117566 0.000007 -0.000003 -0.174546
 21   3.942357 1.330634 1.627658 0.000002 -0.000011 -0.000026
 22   -0.246060 -0.011889 0.516521 -0.000011 0.000031 0.000025
 23   3.942374 1.330659 -1.631083 0.000019 0.000002 -0.000024
 24   -0.246150 -0.011872 -0.516511 -0.000005 -0.000006 0.000048
 25   4.941364 1.997338 1.629330 0.000018 -0.000001 -0.000024
 26   4.941382 1.997366 -1.629410 -0.000001 0.000005 -0.000024
 27   2.918368 1.615358 1.514501 -0.000019 -0.000022 -0.000050
 28   2.920798 1.614964 -1.501142 -0.000002 -0.000009 -0.000024
 29   8.824059 0.150544 0.091743 0.000006 -0.000231 -0.174534
 30   2.111085 -0.561179 1.784320 -0.000008 -0.000682 0.000024
 31   2.121290 -0.561289 -1.853599 0.000000 0.000000 -0.000002
 32   -0.810489 -0.093824 3.127092 0.262828 -3.097583 -0.334759
 33   14.298673 -0.408176 0.475484 0.003675 -0.003118 -0.522390
 34   15.835795 0.581398 0.242756 -0.001248 0.032043 0.122292
 35   -0.815868 -0.091229 -3.114430 -0.132801 3.034913 -0.011454
 36   14.294526 -0.410349 -0.463635 -0.002676 0.001869 -0.384687
 37   15.834409 0.579420 -0.284600 -0.034108 0.026558 0.304555
 38   1.139685 -3.453749 -2.823813 0.000000 0.000000 0.000001
 39   -4.457742 -1.054854 -0.746180 0.000000 0.000000 0.000000
 40   1.118101 -3.449769 3.237290 0.000000 0.000001 0.000000
 41   -4.433840 -1.059130 0.959566 -0.000001 0.000000 0.000000
 42   -0.657468 1.697302 -2.688614 0.000000 0.000002 0.000000
 43   -0.664068 1.698578 2.869377 0.000000 0.000002 0.000000
time 6
  0   -0.010486 -0.546892 1.863709 0.000000 0.000000 -1.571449
  1   -1.093036 0.000002 -0.326057 -1.570809 -1.570703 0.000022
  2   2.262337 0.113614 0.064702 -0.010217 -0.019103 -0.082018
  3   2.380047 0.353302 0.047440 -0.014131 0.011201 0.003877
  4   2.033756 0.190472 -0.000128 0.070791 0.023706 0.107991
  5   2.451511 0.204909 -0.003447 0.049211 0.042804 0.177754
  6   7.247600 -0.397300 -0.109469 -0.016634 0.002238 0.459335
  7   -2.022252 -0.104661 3.136172 1.362052 -1.016638 -4.925303
  8   1.168026 -0.537438 -0.063437 0.165080 -0.130751 -0.428336
  9   6.790376 -0.619176 0.015206 -0.000102 -0.000151 -1.552518
 10   8.637599 0.544015 -0.090417 -2.443363 0.214208 0.739455
 11   6.790465 -0.619039 0.017802 0.002753 -0.011793 -1.102023
 12   -2.022474 -0.104699 -2.873818 -2.302289 1.868006 -5.924913
 13   1.167898 -0.537463 0.063297 -0.678901 -1.116487 -0.148159
 14   7.002743 -0.617765 -0.183752 0.000172 0.000194 -1.836654
 15   8.209042 0.615527 -0.255885 2.730100 0.286384 0.059950
 16   7.002735 -0.617911 -0.183641 0.013074 0.010131 -1.304472
 17   1.574674 0.609930 -0.000899 -0.136890 0.059483 -0.107454
 18   -0.602177 0.511412 -0.000006 0.000000 0.000000 0.000000
 19   3.673773 0.177020 1.119313 -0.000002 -0.000014 -0.174510
 20   3.673767 0.176993 -1.117566 0.000007 -0.000003 -0.174546
 21   3.942357 1.330634 1.627658 0.000002 -0.000011 -0.000026
 22   -0.246060 -0.011889 0.516521 -0.000011 0.000031 0.000025
 23   3.942374 1.330659 -1.631083 0.000019 0.000002 -0.000024
 24   -0.246150 -0.011872 -0.516511 -0.000005 -0.000006 0.000048
 25   4.941364 1.997338 1.629330 0.000018 -0.000001 -0.000024
 26   4.941382 1.997366 -1.629410 -0.000001 0.000005 -0.000024
 27   2.918368 1.615358 1.514501 -0.000019 -0.000022 -0.000050
 28   2.920798 1.614964 -1.501142 -0.000002 -0.000009 -0.000024
 29   8.824059 0.150544 0.091743 0.000006 -0.000231 -0.174534
 30   2.111085 -0.561179 1.784320 -0.000008 -0.000682 0.000024
 31   2.121290 -0.561289 -1.853599 0.000000 0.000000 -0.000002
 32   -0.810489 -0.093824 3.127092 0.262828 -3.097583 -0.334759
 33   14.298673 -0.408176 0.475484 0.003675 -0.003118 -0.522390
 34   15.835795 0.581398 0.242756 -0.001248 0.032043 0.122292
 35   -0.815868 -0.091229 -3.114430 -0.132801 3.034913 -0.011454
 36   14.294526 -0.410349 -0.463635 -0.002676 0.001869 -0.384687
 37   15.834409 0.579420 -0.284600 -0.034108 0.026558 0.304555
 38   1.139685 -3.453749 -2.823813 0.000000 0.000000 0.000001
 39   -4.457742 -1.054854 -0.746180 0.000000 0.000000 0.000000
 40   1.118101 -3.449769 3.237290 0.000000 0.000001 0.000000
 41   -4.433840 -1.059130 0.959566 -0.000001 0.000000 0.000000
 42   -0.657468 1.697302 -2.688614 0.000000 0.000002 0.000000
 43   -0.664068 1.698578 2.869377 0.000000 0.000002 0.000000
time 7
  0   -0.010486 -0.546892 1.863709 0.000000 0.000000 -1.571449
  1   -1.093036 0.000002 -0.326057 -1.570809 -1.570703 0.000022
  2   2.262337 0.113614 0.064702 -0.010331 -0.017916 -0.074880
  3   2.380047 0.353302 0.047440 -0.014086 0.005497 0.005101
  4   2.033756 0.190472 -0.000128 0.021937 0.007335 0.117850
  5   2.451511 0.204909 -0.003447 -0.020352 0.008612 0.197492
  6   7.247600 -0.397300 -0.109469 -0.016634 0.002238 0.459335
  7   -2.022252 -0.104661 3.136172 1.212706 -0.988820 -4.748088
  8   1.168026 -0.537438 -0.063437 0.001247 -0.100361 -0.236088
  9   6.790376 -0.619176 0.015206 -0.000102 -0.000151 -1.494710
 10   8.637599 0.544015 -0.090417 -2.944188 0.128543 0.758192
 11   6.790465 -0.619039 0.017802 0.002461 -0.011708 -1.061593
 12   -2.022474 -0.104699 -2.873818 -2.302289 1.868006 -5.924913
 13   1.167898 -0.537463 0.063297 -0.625407 -1.190275 -0.343081
 14   7.002743 -0.617765 -0.183752 0.000172 0.000194 -1.786573
 15   8.209042 0.615527 -0.255885 2.590968 0.279575 0.071917
 16   7.002735 -0.617911 -0.183641 0.013168 0.009736 -1.269314
 17   1.574674 0.609930 -0.000899 -0.012145 0.064098 -0.147261
 18   -0.602177 0.511412 -0.000006 0.000000 0.000000 0.000000
 19   3.673773 0.177020 1.119313 -0.000002 -0.000014 -0.174510
 20   3.673767 0.176993 -1.117566 0.000007 -0.000003 -0.174546
 21   3.942357 1.330634 1.627658 0.000002 -0.000011 -0.000026
 22   -0.246060 -0.011889 0.516521 -0.000011 0.000031 0.000025
 23   3.942374 1.330659 -1.631083 0.000019 0.000002 -0.000024
 24   -0.246150 -0.011872 -0.516511 -0.000005 -0.000006 0.000048
 25   4.941364 1.997338 1.629330 0.000018 -0.000001 -0.000024
 26   4.941382 1.997366 -1.629410 -0.000001 0.000005 -0.000024
 27   2.918368 1.615358 1.514501 -0.000019 -0.000022 -0.000050
 28   2.920798 1.614964 -1.501142 -0.000002 -0.000009 -0.000024
 29   8.824059 0.150544 0.091743 0.000006 -0.000231 -0.174534
 30   2.111085 -0.561179 1.784320 -0.000008 -0.000682 0.000024
 31   2.121290 -0.561289 -1.853599 0.000000 0.000000 -0.000002
 32   -0.810489 -0.093824 3.127092 0.262828 -3.097583 -0.334759
 33   14.298673 -0.408176 0.475484 0.003675 -0.003118 -0.522390
 34   15.835795 0.581398 0.242756 -0.001248 0.032043 0.122292
 35   -0.815868 -0.091229 -3.114430 -0.132801 3.034913 -0.011454
 36   14.294526 -0.410349 -0.463635 -0.002676 0.001869 -0.384687
 37   15.834409 0.579420 -0.284600 -0.034108 0.026558 0.304555
 38   1.139685 -3.453749 -2.823813 0.000000 0.000000 0.000001
 39   -4.457742 -1.054854 -0.746180 0.000000 0.000000 0.000000
 40   1.118101 -3.449769 3.237290 0.000000 0.000001 0.000000
 41   -4.433840 -1.059130 0.959566 -0.000001 0.000000 0.000000
 42   -0.657468 1.697302 -2.688614 0.000000 0.000002 0.000000
 43   -0.664068 1.698578 2.869377 0.000000 0.000002 0.000000
time 8
  0   -0.010486 -0.546892 1.863709 0.000000 0.000000 -1.571449
  1   -1.093036 0.000002 -0.326057 -1.570809 -1.570703 0.000022
  2   2.262337 0.113614 0.064702 -0.010408 -0.017293 -0.071067
  3   2.380047 0.353302 0.047440 -0.014056 0.002405 0.005754
  4   2.033756 0.190472 -0.000128 -0.004289 -0.001150 0.123577
  5   2.451511 0.204909 -0.003447 -0.058146 -0.009131 0.209107
  6   7.247600 -0.397300 -0.109469 -0.016634 0.002238 0.459335
  7   -2.022252 -0.104661 3.136172 1.177238 -0.979567 -4.705733
  8   1.168026 -0.537438 -0.063437 -0.065514 -0.091355 -0.147966
  9   6.790376 -0.619176 0.015206 -0.000102 -0.000151 -1.478183
 10   8.637599 0.544015 -0.090417 -3.107548 0.130162 0.766367
 11   6.790465 -0.619039 0.017802 0.002432 -0.011708 -1.050000
 12   -2.022474 -0.104699 -2.873818 -2.302289 1.868006 -5.924913
 13   1.167898 -0.537463 0.063297 -0.561791 -1.238280 -0.490241
 14   7.002743 -0.617765 -0.183752 0.000172 0.000023 -1.736492
 15   8.209042 0.615527 -0.255885 2.452411 0.274203 0.084907
 16   7.002735 -0.617911 -0.183641 0.013262 0.009454 -1.234156
 17   1.574674 0.609930 -0.000899 0.073685 0.068997 -0.175610
 18   -0.602177 0.511412 -0.000006 0.000000 0.000000 0.000000
 19   3.673773 0.177020 1.119313 -0.000002 -0.000014 -0.174510
 20   3.673767 0.176993 -1.117566 0.000007 -0.000003 -0.174546
 21   3.942357 1.330634 1.627658 0.000002 -0.000011 -0.000026
 22   -0.246060 -0.011889 0.516521 -0.000011 0.000031 0.000025
 23   3.942374 1.330659 -1.631083 0.000019 0.000002 -0.000024
 24   -0.246150 -0.011872 -0.516511 -0.000005 -0.000006 0.000048
 25   4.941364 1.997338 1.629330 0.000018 -0.000001 -0.000024
 26   4.941382 1.997366 -1.629410 -0.000001 0.000005 -0.000024
 27   2.918368 1.615358 1.514501 -0.000019 -0.000022 -0.000050
 28   2.920798 1.614964 -1.501142 -0.000002 -0.000009 -0.000024
 29   8.824059 0.150544 0.091743 0.000006 -0.000231 -0.174534
 30   2.111085 -0.561179 1.784320 -0.000008 -0.000682 0.000024
 31   2.121290 -0.561289 -1.853599 0.000000 0.000000 -0.000002
 32   -0.810489 -0.093824 3.127092 0.262828 -3.097583 -0.334759
 33   14.298673 -0.408176 0.475484 0.003675 -0.003118 -0.522390
 34   15.835795 0.581398 0.242756 -0.001248 0.032043 0.122292
 35   -0.815868 -0.091229 -3.114430 -0.132801 3.034913 -0.011454
 36   14.294526 -0.410349 -0.463635 -0.002676 0.001869 -0.384687
 37   15.834409 0.579420 -0.284600 -0.034108 0.026558 0.304555
 38   1.139685 -3.453749 -2.823813 0.000000 0.000000 0.000001
 39   -4.457742 -1.054854 -0.746180 0.000000 0.000000 0.000000
 40   1.118101 -3.449769 3.237290 0.000000 0.000001 0.000000
 41   -4.433840 -1.059130 0.959566 -0.000001 0.000000 0.000000
 42   -0.657468 1.697302 -2.688614 0.000000 0.000002 0.000000
 43   -0.664068 1.698578 2.869377 0.000000 0.000002 0.000000
time 9
  0   -0.010486 -0.546892 1.863709 0.000000 0.000000 -1.571449
  1   -1.093036 0.000002 -0.326057 -1.570809 -1.570703 0.000022
  2   2.262337 0.113614 0.064702 -0.010408 -0.016969 -0.071067
  3   2.380047 0.353302 0.047440 -0.014011 0.000823 0.006101
  4   2.033756 0.190472 -0.000128 -0.024834 -0.000312 0.126803
  5   2.451511 0.204909 -0.003447 -0.081374 -0.007656 0.214011
  6   7.247600 -0.397300 -0.109469 -0.016634 0.002238 0.459335
  7   -2.022252 -0.104661 3.136172 1.152507 -0.972389 -4.676056
  8   1.168026 -0.537438 -0.063437 -0.246623 0.055563 -0.085528
  9   6.790376 -0.619176 0.015206 -0.000102 -0.000151 -1.420601
 10   8.637599 0.544015 -0.090417 -3.500670 0.316415 0.698508
 11   6.790465 -0.619039 0.017802 0.002140 -0.011708 -1.009628
 12   -2.022474 -0.104699 -2.873818 -2.302289 1.868006 -5.924913
 13   1.167898 -0.537463 0.063297 -0.402786 -1.253536 -0.696362
 14   7.002743 -0.617765 -0.183752 0.000172 0.000023 -1.705800
 15   8.209042 0.615527 -0.255885 2.471106 0.295160 0.106797
 16   7.002735 -0.617911 -0.183641 0.013309 0.009285 -1.212631
 17   1.574674 0.609930 -0.000899 0.142130 0.054442 -0.202591
 18   -0.602177 0.511412 -0.000006 0.000000 0.000000 0.000000
 19   3.673773 0.177020 1.119313 -0.000002 -0.000014 -0.174510
 20   3.673767 0.176993 -1.117566 0.000007 -0.000003 -0.174546
 21   3.942357 1.330634 1.627658 0.000002 -0.000011 -0.000026
 22   -0.246060 -0.011889 0.516521 -0.000011 0.000031 0.000025
 23   3.942374 1.330659 -1.631083 0.000019 0.000002 -0.000024
 24   -0.246150 -0.011872 -0.516511 -0.000005 -0.000006 0.000048
 25   4.941364 1.997338 1.629330 0.000018 -0.000001 -0.000024
 26   4.941382 1.997366 -1.629410 -0.000001 0.000005 -0.000024
 27   2.918368 1.615358 1.514501 -0.000019 -0.000022 -0.000050
 28   2.920798 1.614964 -1.501142 -0.000002 -0.000009 -0.000024
 29   8.824059 0.150544 0.091743 0.000006 -0.000231 -0.174534
 30   2.111085 -0.561179 1.784320 -0.000008 -0.000682 0.000024
 31   2.121290 -0.561289 -1.853599 0.000000 0.000000 -0.000002
 32   -0.810489 -0.093824 3.127092 0.262828 -3.097583 -0.334759
 33   14.298673 -0.408176 0.475484 0.003675 -0.003118 -0.522390
 34   15.835795 0.581398 0.242756 -0.001248 0.032043 0.122292
 35   -0.815868 -0.091229 -3.114430 -0.132801 3.034913 -0.011454
 36   14.294526 -0.410349 -0.463635 -0.002676 0.001869 -0.384687
 37   15.834409 0.579420 -0.284600 -0.034108 0.026558 0.304555
 38   1.139685 -3.453749 -2.823813 0.000000 0.000000 0.000001
 39   -4.457742 -1.054854 -0.746180 0.000000 0.000000 0.000000
 40   1.118101 -3.449769 3.237290 0.000000 0.000001 0.000000
 41   -4.433840 -1.059130 0.959566 -0.000001 0.000000 0.000000
 42   -0.657468 1.697302 -2.688614 0.000000 0.000002 0.000000
 43   -0.664068 1.698578 2.869377 0.000000 0.000002 0.000000
time 10
  0   -0.010486 -0.546892 1.863709 0.000000 0.000000 -1.571449
  1   -1.093036 0.000002 -0.326057 -1.570809 -1.570703 0.000022
  2   2.262337 0.113614 0.064702 -0.010408 -0.016706 -0.071067
  3   2.380047 0.353302 0.047440 -0.013996 -0.000651 0.006468
  4   2.033756 0.190472 -0.000128 -0.045342 0.000456 0.130029
  5   2.451511 0.204909 -0.003447 -0.104430 -0.006076 0.218790
  6   7.247600 -0.397300 -0.109469 -0.016634 0.002238 0.459335
  7   -2.022252 -0.104661 3.136172 1.163243 -0.975560 -4.688829
  8   1.168026 -0.537438 -0.063437 -0.380398 0.195990 -0.043460
  9   6.790376 -0.619176 0.015206 -0.000102 -0.000151 -1.417054
 10   8.637599 0.544015 -0.090417 -3.776313 0.457970 0.579068
 11   6.790465 -0.619039 0.017802 0.002140 -0.011708 -1.007148
 12   -2.022474 -0.104699 -2.873818 -2.302289 1.868006 -5.924913
 13   1.167898 -0.537463 0.063297 -0.327571 -1.232890 -0.796426
 14   7.002743 -0.617765 -0.183752 0.000172 0.000023 -1.679646
 15   8.209042 0.615527 -0.255885 2.446011 0.306585 0.063679
 16   7.002735 -0.617911 -0.183641 0.013309 0.009229 -1.194417
 17   1.574674 0.609930 -0.000899 0.211915 0.042585 -0.233823
 18   -0.602177 0.511412 -0.000006 0.000000 0.000000 0.000000
 19   3.673773 0.177020 1.119313 -0.000002 -0.000014 -0.174510
 20   3.673767 0.176993 -1.117566 0.000007 -0.000003 -0.174546
 21   3.942357 1.330634 1.627658 0.000002 -0.000011 -0.000026
 22   -0.246060 -0.011889 0.516521 -0.000011 0.000031 0.000025
 23   3.942374 1.330659 -1.631083 0.000019 0.000002 -0.000024
 24   -0.246150 -0.011872 -0.516511 -0.000005 -0.000006 0.000048
 25   4.941364 1.997338 1.629330 0.000018 -0.000001 -0.000024
 26   4.941382 1.997366 -1.629410 -0.000001 0.000005 -0.000024
 27   2.918368 1.615358 1.514501 -0.000019 -0.000022 -0.000050
 28   2.920798 1.614964 -1.501142 -0.000002 -0.000009 -0.000024
 29   8.824059 0.150544 0.091743 0.000006 -0.000231 -0.174534
 30   2.111085 -0.561179 1.784320 -0.000008 -0.000682 0.000024
 31   2.121290 -0.561289 -1.853599 0.000000 0.000000 -0.000002
 32   -0.810489 -0.093824 3.127092 0.262828 -3.097583 -0.334759
 33   14.298673 -0.408176 0.475484 0.003675 -0.003118 -0.522390
 34   15.835795 0.581398 0.242756 -0.001248 0.032043 0.122292
 35   -0.815868 -0.091229 -3.114430 -0.132801 3.034913 -0.011454
 36   14.294526 -0.410349 -0.463635 -0.002676 0.001869 -0.384687
 37   15.834409 0.579420 -0.284600 -0.034108 0.026558 0.304555
 38   1.139685 -3.453749 -2.823813 0.000000 0.000000 0.000001
 39   -4.457742 -1.054854 -0.746180 0.000000 0.000000 0.000000
 40   1.118101 -3.449769 3.237290 0.000000 0.000001 0.000000
 41   -4.433840 -1.059130 0.959566 -0.000001 0.000000 0.000000
 42   -0.657468 1.697302 -2.688614 0.000000 0.000002 0.000000
 43   -0.664068 1.698578 2.869377 0.000000 0.000002 0.000000
time 11
  0   -0.010486 -0.546892 1.863709 0.000000 0.000000 -1.571449
  1   -1.093036 0.000002 -0.326057 -1.570809 -1.570703 0.000022
  2   2.262337 0.113614 0.064702 -0.010357 -0.014824 -0.071790
  3   2.380047 0.353302 0.047440 -0.014056 -0.008693 0.013916
  4   2.033756 0.190472 -0.000128 -0.061516 -0.001618 0.129159
  5   2.451511 0.204909 -0.003447 -0.103557 -0.005945 0.213911
  6   7.247600 -0.397300 -0.109469 -0.016634 0.002238 0.459335
  7   -2.022252 -0.104661 3.136172 1.166885 -0.976569 -4.692867
  8   1.168026 -0.537438 -0.063437 -0.431275 0.236342 -0.014170
  9   6.790376 -0.619176 0.015206 -0.000102 -0.000151 -1.511917
 10   8.637599 0.544015 -0.090417 -3.818672 0.405670 0.599975
 11   6.790465 -0.619039 0.017802 0.002578 -0.011708 -1.073589
 12   -2.022474 -0.104699 -2.873818 -2.302289 1.868006 -5.924913
 13   1.167898 -0.537463 0.063297 -0.608677 -1.094112 -0.440784
 14   7.002743 -0.617765 -0.183752 0.000172 0.000023 -1.709348
 15   8.209042 0.615527 -0.255885 2.273372 0.230698 -0.193649
 16   7.002735 -0.617911 -0.183641 0.013309 0.009285 -1.215225
 17   1.574674 0.609930 -0.000899 0.248230 0.047626 -0.256776
 18   -0.602177 0.511412 -0.000006 0.000000 0.000000 0.000000
 19   3.673773 0.177020 1.119313 -0.000002 -0.000014 -0.174510
 20   3.673767 0.176993 -1.117566 0.000007 -0.000003 -0.174546
 21   3.942357 1.330634 1.627658 0.000002 -0.000011 -0.000026
 22   -0.246060 -0.011889 0.516521 -0.000011 0.000031 0.000025
 23   3.942374 1.330659 -1.631083 0.000019 0.000002 -0.000024
 24   -0.246150 -0.011872 -0.516511 -0.000005 -0.000006 0.000048
 25   4.941364 1.997338 1.629330 0.000018 -0.000001 -0.000024
 26   4.941382 1.997366 -1.629410 -0.000001 0.000005 -0.000024
 27   2.918368 1.615358 1.514501 -0.000019 -0.000022 -0.000050
 28   2.920798 1.614964 -1.501142 -0.000002 -0.000009 -0.000024
 29   8.824059 0.150544 0.091743 0.000006 -0.000231 -0.174534
 30   2.111085 -0.561179 1.784320 -0.000008 -0.000682 0.000024
 31   2.121290 -0.561289 -1.853599 0.000000 0.000000 -0.000002
 32   -0.810489 -0.093824 3.127092 0.262828 -3.097583 -0.334759
 33   14.298673 -0.408176 0.475484 0.003675 -0.003118 -0.522390
 34   15.835795 0.581398 0.242756 -0.001248 0.032043 0.122292
 35   -0.815868 -0.091229 -3.114430 -0.132801 3.034913 -0.011454
 36   14.294526 -0.410349 -0.463635 -0.002676 0.001869 -0.384687
 37   15.834409 0.579420 -0.284600 -0.034108 0.026558 0.304555
 38   1.139685 -3.453749 -2.823813 0.000000 0.000000 0.000001
 39   -4.457742 -1.054854 -0.746180 0.000000 0.000000 0.000000
 40   1.118101 -3.449769 3.237290 0.000000 0.000001 0.000000
 41   -4.433840 -1.059130 0.959566 -0.000001 0.000000 0.000000
 42   -0.657468 1.697302 -2.688614 0.000000 0.000002 0.000000
 43   -0.664068 1.698578 2.869377 0.000000 0.000002 0.000000
time 12
  0   -0.010486 -0.546892 1.863709 0.000000 0.000000 -1.571449
  1   -1.093036 0.000002 -0.326057 -1.570809 -1.570703 0.000022
  2   2.262337 0.113614 0.064702 -0.010306 -0.010486 -0.073398
  3   2.380047 0.353302 0.047440 -0.014401 -0.027605 0.031690
  4   2.033756 0.190472 -0.000128 -0.100762 -0.006807 0.127202
  5   2.451511 0.204909 -0.003447 -0.103232 -0.004757 0.202990
  6   7.247600 -0.397300 -0.109469 -0.016634 0.002238 0.459335
  7   -2.022252 -0.104661 3.136172 1.172637 -0.978241 -4.700192
  8   1.168026 -0.537438 -0.063437 -0.464687 0.248518 0.045548
  9   6.790376 -0.619176 0.015206 -0.000102 -0.000151 -1.637872
 10   8.637599 0.544015 -0.090417 -3.783006 0.308320 0.660889
 11   6.790465 -0.619039 0.017802 0.003103 -0.011793 -1.161659
 12   -2.022474 -0.104699 -2.873818 -2.302289 1.868006 -5.924913
 13   1.167898 -0.537463 0.063297 -0.766769 -0.925636 -0.232605
 14   7.002743 -0.617765 -0.183752 0.000172 0.000023 -1.750023
 15   8.209042 0.615527 -0.255885 2.126978 0.109341 -0.433657
 16   7.002735 -0.617911 -0.183641 0.013215 0.009567 -1.243760
 17   1.574674 0.609930 -0.000899 0.300020 0.053235 -0.270452
 18   -0.602177 0.511412 -0.000006 0.000000 0.000000 0.000000
 19   3.673773 0.177020 1.119313 -0.000002 -0.000014 -0.174510
 20   3.673767 0.176993 -1.117566 0.000007 -0.000003 -0.174546
 21   3.942357 1.330634 1.627658 0.000002 -0.000011 -0.000026
 22   -0.246060 -0.011889 0.516521 -0.000011 0.000031 0.000025
 23   3.942374 1.330659 -1.631083 0.000019 0.000002 -0.000024
 24   -0.246150 -0.011872 -0.516511 -0.000005 -0.000006 0.000048
 25   4.941364 1.997338 1.629330 0.000018 -0.000001 -0.000024
 26   4.941382 1.997366 -1.629410 -0.000001 0.000005 -0.000024
 27   2.918368 1.615358 1.514501 -0.000019 -0.000022 -0.000050
 28   2.920798 1.614964 -1.501142 -0.000002 -0.000009 -0.000024
 29   8.824059 0.150544 0.091743 0.000006 -0.000231 -0.174534
 30   2.111085 -0.561179 1.784320 -0.000008 -0.000682 0.000024
 31   2.121290 -0.561289 -1.853599 0.000000 0.000000 -0.000002
 32   -0.810489 -0.093824 3.127092 0.262828 -3.097583 -0.334759
 33   14.298673 -0.408176 0.475484 0.003675 -0.003118 -0.522390
 34   15.835795 0.581398 0.242756 -0.001248 0.032043 0.122292
 35   -0.815868 -0.091229 -3.114430 -0.132801 3.034913 -0.011454
 36   14.294526 -0.410349 -0.463635 -0.002676 0.001869 -0.384687
 37   15.834409 0.579420 -0.284600 -0.034108 0.026558 0.304555
 38   1.139685 -3.453749 -2.823813 0.000000 0.000000 0.000001
 39   -4.457742 -1.054854 -0.746180 0.000000 0.000000 0.000000
 40   1.118101 -3.449769 3.237290 0.000000 0.000001 0.000000
 41   -4.433840 -1.059130 0.959566 -0.000001 0.000000 0.000000
 42   -0.657468 1.697302 -2.688614 0.000000 0.000002 0.000000
 43   -0.664068 1.698578 2.869377 0.000000 0.000002 0.000000
time 13
  0   -0.010486 -0.546892 1.863709 0.000000 0.000000 -1.571449
  1   -1.093036 0.000002 -0.326057 -1.570809 -1.570703 0.000022
  2   2.262337 0.113614 0.064702 -0.010280 -0.005440 -0.075350
  3   2.380047 0.353302 0.047440 -0.015211 -0.049920 0.052993
  4   2.033756 0.190472 -0.000128 -0.149137 -0.013255 0.124556
  5   2.451511 0.204909 -0.003447 -0.106638 -0.001154 0.191796
  6   7.247600 -0.397300 -0.109469 -0.016634 0.002238 0.459335
  7   -2.022252 -0.104661 3.136172 1.180401 -0.980317 -4.709302
  8   1.168026 -0.537438 -0.063437 -0.477090 0.267889 0.113806
  9   6.790376 -0.619176 0.015206 -0.000102 -0.000151 -1.779449
 10   8.637599 0.544015 -0.090417 -3.724002 0.183729 0.731714
 11   6.790465 -0.619039 0.017802 0.003775 -0.011850 -1.260975
 12   -2.022474 -0.104699 -2.873818 -2.302289 1.868006 -5.924913
 13   1.167898 -0.537463 0.063297 -0.834392 -0.819963 -0.166501
 14   7.002743 -0.617765 -0.183752 0.000172 0.000194 -1.778570
 15   8.209042 0.615527 -0.255885 2.055147 0.024451 -0.571191
 16   7.002735 -0.617911 -0.183641 0.013168 0.009736 -1.263629
 17   1.574674 0.609930 -0.000899 0.361519 0.056430 -0.275996
 18   -0.602177 0.511412 -0.000006 0.000000 0.000000 0.000000
 19   3.673773 0.177020 1.119313 -0.000002 -0.000014 -0.174510
 20   3.673767 0.176993 -1.117566 0.000007 -0.000003 -0.174546
 21   3.942357 1.330634 1.627658 0.000002 -0.000011 -0.000026
 22   -0.246060 -0.011889 0.516521 -0.000011 0.000031 0.000025
 23   3.942374 1.330659 -1.631083 0.000019 0.000002 -0.000024
 24   -0.246150 -0.011872 -0.516511 -0.000005 -0.000006 0.000048
 25   4.941364 1.997338 1.629330 0.000018 -0.000001 -0.000024
 26   4.941382 1.997366 -1.629410 -0.000001 0.000005 -0.000024
 27   2.918368 1.615358 1.514501 -0.000019 -0.000022 -0.000050
 28   2.920798 1.614964 -1.501142 -0.000002 -0.000009 -0.000024
 29   8.824059 0.150544 0.091743 0.000006 -0.000231 -0.174534
 30   2.111085 -0.561179 1.784320 -0.000008 -0.000682 0.000024
 31   2.121290 -0.561289 -1.853599 0.000000 0.000000 -0.000002
 32   -0.810489 -0.093824 3.127092 0.262828 -3.097583 -0.334759
 33   14.298673 -0.408176 0.475484 0.003675 -0.003118 -0.522390
 34   15.835795 0.581398 0.242756 -0.001248 0.032043 0.122292
 35   -0.815868 -0.091229 -3.114430 -0.132801 3.034913 -0.011454
 36   14.294526 -0.410349 -0.463635 -0.002676 0.001869 -0.384687
 37   15.834409 0.579420 -0.284600 -0.034108 0.026558 0.304555
 38   1.139685 -3.453749 -2.823813 0.000000 0.000000 0.000001
 39   -4.457742 -1.054854 -0.746180 0.000000 0.000000 0.000000
 40   1.118101 -3.449769 3.237290 0.000000 0.000001 0.000000
 41   -4.433840 -1.059130 0.959566 -0.000001 0.000000 0.000000
 42   -0.657468 1.697302 -2.688614 0.000000 0.000002 0.000000
 43   -0.664068 1.698578 2.869377 0.000000 0.000002 0.000000
time 14
  0   -0.010486 -0.546892 1.863709 0.000000 0.000000 -1.571449
  1   -1.093036 0.000002 -0.326057 -1.570809 -1.570703 0.000022
  2   2.262337 0.113614 0.064702 -0.010217 -0.001581 -0.077067
  3   2.380047 0.353302 0.047440 -0.016321 -0.068101 0.070746
  4   2.033756 0.190472 -0.000128 -0.192772 -0.018804 0.121656
  5   2.451511 0.204909 -0.003447 -0.117319 0.005896 0.185877
  6   7.247600 -0.397300 -0.109469 -0.016634 0.002238 0.459335
  7   -2.022252 -0.104661 3.136172 1.188645 -0.982652 -4.719633
  8   1.168026 -0.537438 -0.063437 -0.467092 0.328669 0.167261
  9   6.790376 -0.619176 0.015206 -0.000102 -0.000151 -1.921026
 10   8.637599 0.544015 -0.090417 -3.686575 0.055689 0.795522
 11   6.790465 -0.619039 0.017802 0.004388 -0.011850 -1.360003
 12   -2.022474 -0.104699 -2.873818 -2.302289 1.868006 -5.924913
 13   1.167898 -0.537463 0.063297 -0.859768 -0.791333 -0.185267
 14   7.002743 -0.617765 -0.183752 0.000172 0.000194 -1.787893
 15   8.209042 0.615527 -0.255885 2.036237 -0.001501 -0.612325
 16   7.002735 -0.617911 -0.183641 0.013121 0.009849 -1.270197
 17   1.574674 0.609930 -0.000899 0.420175 0.054797 -0.283499
 18   -0.602177 0.511412 -0.000006 0.000000 0.000000 0.000000
 19   3.673773 0.177020 1.119313 -0.000002 -0.000014 -0.174510
 20   3.673767 0.176993 -1.117566 0.000007 -0.000003 -0.174546
 21   3.942357 1.330634 1.627658 0.000002 -0.000011 -0.000026
 22   -0.246060 -0.011889 0.516521 -0.000011 0.000031 0.000025
 23   3.942374 1.330659 -1.631083 0.000019 0.000002 -0.000024
 24   -0.246150 -0.011872 -0.516511 -0.000005 -0.000006 0.000048
 25   4.941364 1.997338 1.629330 0.000018 -0.000001 -0.000024
 26   4.941382 1.997366 -1.629410 -0.000001 0.000005 -0.000024
 27   2.918368 1.615358 1.514501 -0.000019 -0.000022 -0.000050
 28   2.920798 1.614964 -1.501142 -0.000002 -0.000009 -0.000024
 29   8.824059 0.150544 0.091743 0.000006 -0.000231 -0.174534
 30   2.111085 -0.561179 1.784320 -0.000008 -0.000682 0.000024
 31   2.121290 -0.561289 -1.853599 0.000000 0.000000 -0.000002
 32   -0.810489 -0.093824 3.127092 0.262828 -3.097583 -0.334759
 33   14.298673 -0.408176 0.475484 0.003675 -0.003118 -0.522390
 34   15.835795 0.581398 0.242756 -0.001248 0.032043 0.122292
 35   -0.815868 -0.091229 -3.114430 -0.132801 3.034913 -0.011454
 36   14.294526 -0.410349 -0.463635 -0.002676 0.001869 -0.384687
 37   15.834409 0.579420 -0.284600 -0.034108 0.026558 0.304555
 38   1.139685 -3.453749 -2.823813 0.000000 0.000000 0.000001
 39   -4.457742 -1.054854 -0.746180 0.000000 0.000000 0.000000
 40   1.118101 -3.449769 3.237290 0.000000 0.000001 0.000000
 41   -4.433840 -1.059130 0.959566 -0.000001 0.000000 0.000000
 42   -0.657468 1.697302 -2.688614 0.000000 0.000002 0.000000
 43   -0.664068 1.698578 2.869377 0.000000 0.000002 0.000000
time 15
  0   -0.010486 -0.546892 1.863709 0.000000 0.000000 -1.571449
  1   -1.093036 0.000002 -0.326057 -1.570809 -1.570703 0.000022
  2   2.262337 0.113614 0.064702 -0.010217 -0.003403 -0.077410
  3   2.380047 0.353302 0.047440 -0.016651 -0.069119 0.074419
  4   2.033756 0.190472 -0.000128 -0.228237 -0.021177 0.113863
  5   2.451511 0.204909 -0.003447 -0.180840 0.041773 0.211435
  6   7.247600 -0.397300 -0.109469 -0.016634 0.002238 0.459335
  7   -2.022252 -0.104661 3.136172 1.207337 -0.987494 -4.741608
  8   1.168026 -0.537438 -0.063437 -0.297437 0.674228 0.174093
  9   6.790376 -0.619176 0.015206 -0.000102 -0.000151 -2.096186
 10   8.637599 0.544015 -0.090417 -3.666496 -0.136125 0.889931
 11   6.790465 -0.619039 0.017802 0.005264 -0.011850 -1.482735
 12   -2.022474 -0.104699 -2.873818 -2.302289 1.868006 -5.924913
 13   1.167898 -0.537463 0.063297 -0.934983 -0.723037 -0.210631
 14   7.002743 -0.617765 -0.183752 0.000172 0.000194 -1.828073
 15   8.209042 0.615527 -0.255885 2.032714 0.027099 -0.659894
 16   7.002735 -0.617911 -0.183641 0.013121 0.010018 -1.298235
 17   1.574674 0.609930 -0.000899 0.511123 0.010918 -0.322493
 18   -0.602177 0.511412 -0.000006 0.000000 0.000000 0.000000
 19   3.673773 0.177020 1.119313 -0.000002 -0.000014 -0.174510
 20   3.673767 0.176993 -1.117566 0.000007 -0.000003 -0.174546
 21   3.942357 1.330634 1.627658 0.000002 -0.000011 -0.000026
 22   -0.246060 -0.011889 0.516521 -0.000011 0.000031 0.000025
 23   3.942374 1.330659 -1.631083 0.000019 0.000002 -0.000024
 24   -0.246150 -0.011872 -0.516511 -0.000005 -0.000006 0.000048
 25   4.941364 1.997338 1.629330 0.000018 -0.000001 -0.000024
 26   4.941382 1.997366 -1.629410 -0.000001 0.000005 -0.000024
 27   2.918368 1.615358 1.514501 -0.000019 -0.000022 -0.000050
 28   2.920798 1.614964 -1.501142 -0.000002 -0.000009 -0.000024
 29   8.824059 0.150544 0.091743 0.000006 -0.000231 -0.174534
 30   2.111085 -0.561179 1.784320 -0.000008 -0.000682 0.000024
 31   2.121290 -0.561289 -1.853599 0.000000 0.000000 -0.000002
 32   -0.810489 -0.093824 3.127092 0.262828 -3.097583 -0.334759
 33   14.298673 -0.408176 0.475484 0.003675 -0.003118 -0.522390
 34   15.835795 0.581398 0.242756 -0.001248 0.032043 0.122292
 35   -0.815868 -0.091229 -3.114430 -0.132801 3.034913 -0.011454
 36   14.294526 -0.410349 -0.463635 -0.002676 0.001869 -0.384687
 37   15.834409 0.579420 -0.284600 -0.034108 0.026558 0.304555
 38   1.139685 -3.453749 -2.823813 0.000000 0.000000 0.000001
 39   -4.457742 -1.054854 -0.746180 0.000000 0.000000 0.000000
 40   1.118101 -3.449769 3.237290 0.000000 0.000001 0.000000
 41   -4.433840 -1.059130 0.959566 -0.000001 0.000000 0.000000
 42   -0.657468 1.697302 -2.688614 0.000000 0.000002 0.000000
 43   -0.664068 1.698578 2.869377 0.000000 0.000002 0.000000
time 16
  0   -0.010486 -0.546892 1.863709 0.000000 0.000000 -1.571449
  1   -1.093036 0.000002 -0.326057 -1.570809 -1.570703 0.000022
  2   2.262337 0.113614 0.064702 -0.010217 -0.007118 -0.077410
  3   2.380047 0.353302 0.047440 -0.016606 -0.066363 0.073705
  4   2.033756 0.190472 -0.000128 -0.229860 -0.022315 0.108426
  5   2.451511 0.204909 -0.003447 -0.179128 0.034762 0.179091
  6   7.247600 -0.397300 -0.109469 -0.016634 0.002238 0.459335
  7   -2.022252 -0.104661 3.136172 1.219512 -0.990435 -4.756352
  8   1.168026 -0.537438 -0.063437 -0.343632 0.695863 0.248171
  9   6.790376 -0.619176 0.015206 -0.000102 -0.000151 -2.141919
 10   8.637599 0.544015 -0.090417 -3.656281 -0.158298 0.915758
 11   6.790465 -0.619039 0.017802 0.005527 -0.011907 -1.514629
 12   -2.022474 -0.104699 -2.873818 -2.302289 1.868006 -5.924913
 13   1.167898 -0.537463 0.063297 -0.944191 -0.730869 -0.203185
 14   7.002743 -0.617765 -0.183752 0.000172 0.000194 -1.828321
 15   8.209042 0.615527 -0.255885 2.052055 0.012723 -0.677875
 16   7.002735 -0.617911 -0.183641 0.013121 0.010018 -1.298566
 17   1.574674 0.609930 -0.000899 0.507711 0.025261 -0.314842
 18   -0.602177 0.511412 -0.000006 0.000000 0.000000 0.000000
 19   3.673773 0.177020 1.119313 -0.000002 -0.000014 -0.174510
 20   3.673767 0.176993 -1.117566 0.000007 -0.000003 -0.174546
 21   3.942357 1.330634 1.627658 0.000002 -0.000011 -0.000026
 22   -0.246060 -0.011889 0.516521 -0.000011 0.000031 0.000025
 23   3.942374 1.330659 -1.631083 0.000019 0.000002 -0.000024
 24   -0.246150 -0.011872 -0.516511 -0.000005 -0.000006 0.000048
 25   4.941364 1.997338 1.629330 0.000018 -0.000001 -0.000024
 26   4.941382 1.997366 -1.629410 -0.000001 0.000005 -0.000024
 27   2.918368 1.615358 1.514501 -0.000019 -0.000022 -0.000050
 28   2.920798 1.614964 -1.501142 -0.000002 -0.000009 -0.000024
 29   8.824059 0.150544 0.091743 0.000006 -0.000231 -0.174534
 30   2.111085 -0.561179 1.784320 -0.000008 -0.000682 0.000024
 31   2.121290 -0.561289 -1.853599 0.000000 0.000000 -0.000002
 32   -0.810489 -0.093824 3.127092 0.262828 -3.097583 -0.334759
 33   14.298673 -0.408176 0.475484 0.003675 -0.003118 -0.522390
 34   15.835795 0.581398 0.242756 -0.001248 0.032043 0.122292
 35   -0.815868 -0.091229 -3.114430 -0.132801 3.034913 -0.011454
 36   14.294526 -0.410349 -0.463635 -0.002676 0.001869 -0.384687
 37   15.834409 0.579420 -0.284600 -0.034108 0.026558 0.304555
 38   1.139685 -3.453749 -2.823813 0.000000 0.000000 0.000001
 39   -4.457742 -1.054854 -0.746180 0.000000 0.000000 0.000000
 40   1.118101 -3.449769 3.237290 0.000000 0.000001 0.000000
 41   -4.433840 -1.059130 0.959566 -0.000001 0.000000 0.000000
 42   -0.657468 1.697302 -2.688614 0.000000 0.000002 0.000000
 43   -0.664068 1.698578 2.869377 0.000000 0.000002 0.000000
time 17
  0   -0.010486 -0.546892 1.863709 0.000000 0.000000 -1.571449
  1   -1.093036 0.000002 -0.326057 -1.570809 -1.570703 0.000022
  2   2.262337 0.113614 0.064702 -0.010217 -0.011996 -0.077320
  3   2.380047 0.353302 0.047440 -0.016516 -0.056595 0.070787
  4   2.033756 0.190472 -0.000128 -0.212118 -0.026306 0.091390
  5   2.451511 0.204909 -0.003447 -0.167574 0.020061 0.133523
  6   7.247600 -0.397300 -0.109469 -0.016634 0.002238 0.459335
  7   -2.022252 -0.104661 3.136172 1.260347 -0.999515 -4.804718
  8   1.168026 -0.537438 -0.063437 -0.416404 0.689624 0.251081
  9   6.790376 -0.619176 0.015206 -0.000102 -0.000151 -2.118524
 10   8.637599 0.544015 -0.090417 -3.600271 -0.143305 0.893114
 11   6.790465 -0.619039 0.017802 0.005410 -0.011850 -1.498307
 12   -2.022474 -0.104699 -2.873818 -2.302289 1.868006 -5.924913
 13   1.167898 -0.537463 0.063297 -0.980955 -0.747447 -0.148341
 14   7.002743 -0.617765 -0.183752 0.000172 0.000194 -1.831786
 15   8.209042 0.615527 -0.255885 2.028112 0.042912 -0.693390
 16   7.002735 -0.617911 -0.183641 0.013074 0.010018 -1.300884
 17   1.574674 0.609930 -0.000899 0.473753 0.054442 -0.306637
 18   -0.602177 0.511412 -0.000006 0.000000 0.000000 0.000000
 19   3.673773 0.177020 1.119313 -0.000002 -0.000014 -0.174510
 20   3.673767 0.176993 -1.117566 0.000007 -0.000003 -0.174546
 21   3.942357 1.330634 1.627658 0.000002 -0.000011 -0.000026
 22   -0.246060 -0.011889 0.516521 -0.000011 0.000031 0.000025
 23   3.942374 1.330659 -1.631083 0.000019 0.000002 -0.000024
 24   -0.246150 -0.011872 -0.516511 -0.000005 -0.000006 0.000048
 25   4.941364 1.997338 1.629330 0.000018 -0.000001 -0.000024
 26   4.941382 1.997366 -1.629410 -0.000001 0.000005 -0.000024
 27   2.918368 1.615358 1.514501 -0.000019 -0.000022 -0.000050
 28   2.920798 1.614964 -1.501142 -0.000002 -0.000009 -0.000024
 29   8.824059 0.150544 0.091743 0.000006 -0.000231 -0.174534
 30   2.111085 -0.561179 1.784320 -0.000008 -0.000682 0.000024
 31   2.121290 -0.561289 -1.853599 0.000000 0.000000 -0.000002
 32   -0.810489 -0.093824 3.127092 0.262828 -3.097583 -0.334759
 33   14.298673 -0.408176 0.475484 0.003675 -0.003118 -0.522390
 34   15.835795 0.581398 0.242756 -0.001248 0.032043 0.122292
 35   -0.815868 -0.091229 -3.114430 -0.132801 3.034913 -0.011454
 36   14.294526 -0.410349 -0.463635 -0.002676 0.001869 -0.384687
 37   15.834409 0.579420 -0.284600 -0.034108 0.026558 0.304555
 38   1.139685 -3.453749 -2.823813 0.000000 0.000000 0.000001
 39   -4.457742 -1.054854 -0.746180 0.000000 0.000000 0.000000
 40   1.118101 -3.449769 3.237290 0.000000 0.000001 0.000000
 41   -4.433840 -1.059130 0.959566 -0.000001 0.000000 0.000000
 42   -0.657468 1.697302 -2.688614 0.000000 0.000002 0.000000
 43   -0.664068 1.698578 2.869377 0.000000 0.000002 0.000000
time 18
  0   -0.010486 -0.546892 1.863709 0.000000 0.000000 -1.571449
  1   -1.093036 0.000002 -0.326057 -1.570809 -1.570703 0.000022
  2   2.262337 0.113614 0.064702 -0.010217 -0.017748 -0.077211
  3   2.380047 0.353302 0.047440 -0.016456 -0.037348 0.066114
  4   2.033756 0.190472 -0.000128 -0.175860 -0.034456 0.054237
  5   2.451511 0.204909 -0.003447 -0.165657 0.009043 0.088772
  6   7.247600 -0.397300 -0.109469 -0.016634 0.002238 0.459335
  7   -2.022252 -0.104661 3.136172 1.352658 -1.015283 -4.914033
  8   1.168026 -0.537438 -0.063437 -0.479748 0.767561 0.108239
  9   6.790376 -0.619176 0.015206 -0.000102 -0.000151 -2.034378
 10   8.637599 0.544015 -0.090417 -3.472841 -0.127256 0.820119
 11   6.790465 -0.619039 0.017802 0.004972 -0.011850 -1.439306
 12   -2.022474 -0.104699 -2.873818 -2.302289 1.868006 -5.924913
 13   1.167898 -0.537463 0.063297 -1.084358 -0.742158 -0.033446
 14   7.002743 -0.617765 -0.183752 0.000172 0.000194 -1.855465
 15   8.209042 0.615527 -0.255885 1.921695 0.158065 -0.724481
 16   7.002735 -0.617911 -0.183641 0.013074 0.010244 -1.317442
 17   1.574674 0.609930 -0.000899 0.425983 0.083315 -0.319721
 18   -0.602177 0.511412 -0.000006 0.000000 0.000000 0.000000
 19   3.673773 0.177020 1.119313 -0.000002 -0.000014 -0.174510
 20   3.673767 0.176993 -1.117566 0.000007 -0.000003 -0.174546
 21   3.942357 1.330634 1.627658 0.000002 -0.000011 -0.000026
 22   -0.246060 -0.011889 0.516521 -0.000011 0.000031 0.000025
 23   3.942374 1.330659 -1.631083 0.000019 0.000002 -0.000024
 24   -0.246150 -0.011872 -0.516511 -0.000005 -0.000006 0.000048
 25   4.941364 1.997338 1.629330 0.000018 -0.000001 -0.000024
 26   4.941382 1.997366 -1.629410 -0.000001 0.000005 -0.000024
 27   2.918368 1.615358 1.514501 -0.000019 -0.000022 -0.000050
 28   2.920798 1.614964 -1.501142 -0.000002 -0.000009 -0.000024
 29   8.824059 0.150544 0.091743 0.000006 -0.000231 -0.174534
 30   2.111085 -0.561179 1.784320 -0.000008 -0.000682 0.000024
 31   2.121290 -0.561289 -1.853599 0.000000 0.000000 -0.000002
 32   -0.810489 -0.093824 3.127092 0.262828 -3.097583 -0.334759
 33   14.298673 -0.408176 0.475484 0.003675 -0.003118 -0.522390
 34   15.835795 0.581398 0.242756 -0.001248 0.032043 0.122292
 35   -0.815868 -0.091229 -3.114430 -0.132801 3.034913 -0.011454
 36   14.294526 -0.410349 -0.463635 -0.002676 0.001869 -0.384687
 37   15.834409 0.579420 -0.284600 -0.034108 0.026558 0.304555
 38   1.139685 -3.453749 -2.823813 0.000000 0.000000 0.000001
 39   -4.457742 -1.054854 -0.746180 0.000000 0.000000 0.000000
 40   1.118101 -3.449769 3.237290 0.000000 0.000001 0.000000
 41   -4.433840 -1.059130 0.959566 -0.000001 0.000000 0.000000
 42   -0.657468 1.697302 -2.688614 0.000000 0.000002 0.000000
 43   -0.664068 1.698578 2.869377 0.000000 0.000002 0.000000
time 19
  0   -0.010486 -0.546892 1.863709 0.000000 0.000000 -1.571449
  1   -1.093036 0.000002 -0.326057 -1.570809 -1.570703 0.000022
  2   2.262337 0.113614 0.064702 -0.010230 -0.023897 -0.077211
  3   2.380047 0.353302 0.047440 -0.016486 -0.015524 0.060890
  4   2.033756 0.190472 -0.000128 -0.133774 -0.041994 0.011574
  5   2.451511 0.204909 -0.003447 -0.164339 -0.001898 0.042857
  6   7.247600 -0.397300 -0.109469 -0.016634 0.002238 0.459335
  7   -2.022252 -0.104661 3.136172 1.463087 -1.026410 -5.043540
  8   1.168026 -0.537438 -0.063437 -0.604284 0.858831 -0.110073
  9   6.790376 -0.619176 0.015206 -0.000102 -0.000151 -1.931818
 10   8.637599 0.544015 -0.090417 -3.329208 -0.095862 0.736127
 11   6.790465 -0.619039 0.017802 0.004505 -0.011850 -1.367558
 12   -2.022474 -0.104699 -2.873818 -2.302289 1.868006 -5.924913
 13   1.167898 -0.537463 0.063297 -1.199851 -0.722427 0.094162
 14   7.002743 -0.617765 -0.183752 0.000172 0.000194 -1.882692
 15   8.209042 0.615527 -0.255885 1.786015 0.289108 -0.776139
 16   7.002735 -0.617911 -0.183641 0.012979 0.010413 -1.336594
 17   1.574674 0.609930 -0.000899 0.367897 0.113207 -0.363298
 18   -0.602177 0.511412 -0.000006 0.000000 0.000000 0.000000
 19   3.673773 0.177020 1.119313 -0.000002 -0.000014 -0.174510
 20   3.673767 0.176993 -1.117566 0.000007 -0.000003 -0.174546
 21   3.942357 1.330634 1.627658 0.000002 -0.000011 -0.000026
 22   -0.246060 -0.011889 0.516521 -0.000011 0.000031 0.000025
 23   3.942374 1.330659 -1.631083 0.000019 0.000002 -0.000024
 24   -0.246150 -0.011872 -0.516511 -0.000005 -0.000006 0.000048
 25   4.941364 1.997338 1.629330 0.000018 -0.000001 -0.000024
 26   4.941382 1.997366 -1.629410 -0.000001 0.000005 -0.000024
 27   2.918368 1.615358 1.514501 -0.000019 -0.000022 -0.000050
 28   2.920798 1.614964 -1.501142 -0.000002 -0.000009 -0.000024
 29   8.824059 0.150544 0.091743 0.000006 -0.000231 -0.174534
 30   2.111085 -0.561179 1.784320 -0.000008 -0.000682 0.000024
 31   2.121290 -0.561289 -1.853599 0.000000 0.000000 -0.000002
 32   -0.810489 -0.093824 3.127092 0.262828 -3.097583 -0.334759
 33   14.298673 -0.408176 0.475484 0.003675 -0.003118 -0.522390
 34   15.835795 0.581398 0.242756 -0.001248 0.032043 0.122292
 35   -0.815868 -0.091229 -3.114430 -0.132801 3.034913 -0.011454
 36   14.294526 -0.410349 -0.463635 -0.002676 0.001869 -0.384687
 37   15.834409 0.579420 -0.284600 -0.034108 0.026558 0.304555
 38   1.139685 -3.453749 -2.823813 0.000000 0.000000 0.000001
 39   -4.457742 -1.054854 -0.746180 0.000000 0.000000 0.000000
 40   1.118101 -3.449769 3.237290 0.000000 0.000001 0.000000
 41   -4.433840 -1.059130 0.959566 -0.000001 0.000000 0.000000
 42   -0.657468 1.697302 -2.688614 0.000000 0.000002 0.000000
 43   -0.664068 1.698578 2.869377 0.000000 0.000002 0.000000
time 20
  0   -0.010486 -0.546892 1.863709 0.000000 0.000000 -1.571449
  1   -1.093036 0.000002 -0.326057 -1.570809 -1.570703 0.000022
  2   2.262337 0.113614 0.064702 -0.010230 -0.030176 -0.077157
  3   2.380047 0.353302 0.047440 -0.016651 0.007606 0.055258
  4   2.033756 0.190472 -0.000128 -0.088147 -0.047986 -0.034242
  5   2.451511 0.204909 -0.003447 -0.163021 -0.012982 -0.003603
  6   7.247600 -0.397300 -0.109469 -0.016634 0.002238 0.459335
  7   -2.022252 -0.104661 3.136172 1.584539 -1.029840 -5.185443
  8   1.168026 -0.537438 -0.063437 -0.829942 0.937271 -0.420808
  9   6.790376 -0.619176 0.015206 -0.000102 -0.000151 -1.818239
 10   8.637599 0.544015 -0.090417 -3.179233 -0.048489 0.650833
 11   6.790465 -0.619039 0.017802 0.003921 -0.011850 -1.288140
 12   -2.022474 -0.104699 -2.873818 -2.302289 1.868006 -5.924913
 13   1.167898 -0.537463 0.063297 -1.315766 -0.688152 0.223222
 14   7.002743 -0.617765 -0.183752 0.000172 0.000194 -1.912889
 15   8.209042 0.615527 -0.255885 1.621070 0.422420 -0.856001
 16   7.002735 -0.617911 -0.183641 0.012932 0.010582 -1.357788
 17   1.574674 0.609930 -0.000899 0.303351 0.134365 -0.426243
 18   -0.602177 0.511412 -0.000006 0.000000 0.000000 0.000000
 19   3.673773 0.177020 1.119313 -0.000002 -0.000014 -0.174510
 20   3.673767 0.176993 -1.117566 0.000007 -0.000003 -0.174546
 21   3.942357 1.330634 1.627658 0.000002 -0.000011 -0.000026
 22   -0.246060 -0.011889 0.516521 -0.000011 0.000031 0.000025
 23   3.942374 1.330659 -1.631083 0.000019 0.000002 -0.000024
 24   -0.246150 -0.011872 -0.516511 -0.000005 -0.000006 0.000048
 25   4.941364 1.997338 1.629330 0.000018 -0.000001 -0.000024
 26   4.941382 1.997366 -1.629410 -0.000001 0.000005 -0.000024
 27   2.918368 1.615358 1.514501 -0.000019 -0.000022 -0.000050
 28   2.920798 1.614964 -1.501142 -0.000002 -0.000009 -0.000024
 29   8.824059 0.150544 0.091743 0.000006 -0.000231 -0.174534
 30   2.111085 -0.561179 1.784320 -0.000008 -0.000682 0.000024
 31   2.121290 -0.561289 -1.853599 0.000000 0.000000 -0.000002
 32   -0.810489 -0.093824 3.127092 0.262828 -3.097583 -0.334759
 33   14.298673 -0.408176 0.475484 0.003675 -0.003118 -0.522390
 34   15.835795 0.581398 0.242756 -0.001248 0.032043 0.122292
 35   -0.815868 -0.091229 -3.114430 -0.132801 3.034913 -0.011454
 36   14.294526 -0.410349 -0.463635 -0.002676 0.001869 -0.384687
 37   15.834409 0.579420 -0.284600 -0.034108 0.026558 0.304555
 38   1.139685 -3.453749 -2.823813 0.000000 0.000000 0.000001
 39   -4.457742 -1.054854 -0.746180 0.000000 0.000000 0.000000
 40   1.118101 -3.449769 3.237290 0.000000 0.000001 0.000000
 41   -4.433840 -1.059130 0.959566 -0.000001 0.000000 0.000000
 42   -0.657468 1.697302 -2.688614 0.000000 0.000002 0.000000
 43   -0.664068 1.698578 2.869377 0.000000 0.000002 0.000000
time 21
  0   -0.010486 -0.546892 1.863709 0.000000 0.000000 -1.571449
  1   -1.093036 0.000002 -0.326057 -1.570809 -1.570703 0.000022
  2   2.262337 0.113614 0.064702 -0.010230 -0.036468 -0.077157
  3   2.380047 0.353302 0.047440 -0.016951 0.031324 0.049565
  4   2.033756 0.190472 -0.000128 -0.041506 -0.051989 -0.081146
  5   2.451511 0.204909 -0.003447 -0.161412 -0.024106 -0.050212
  6   7.247600 -0.397300 -0.109469 -0.016634 0.002238 0.459335
  7   -2.022252 -0.104661 3.136172 1.707908 -1.024219 -5.329319
  8   1.168026 -0.537438 -0.063437 -1.154128 0.962076 -0.802964
  9   6.790376 -0.619176 0.015206 -0.000102 -0.000151 -1.702321
 10   8.637599 0.544015 -0.090417 -3.031636 0.011906 0.571544
 11   6.790465 -0.619039 0.017802 0.003366 -0.011793 -1.206876
 12   -2.022474 -0.104699 -2.873818 -2.302289 1.868006 -5.924913
 13   1.167898 -0.537463 0.063297 -1.422894 -0.641469 0.344473
 14   7.002743 -0.617765 -0.183752 0.000172 0.000194 -1.943416
 15   8.209042 0.615527 -0.255885 1.427723 0.542870 -0.969601
 16   7.002735 -0.617911 -0.183641 0.012885 0.010751 -1.379203
 17   1.574674 0.609930 -0.000899 0.238400 0.141489 -0.495470
 18   -0.602177 0.511412 -0.000006 0.000000 0.000000 0.000000
 19   3.673773 0.177020 1.119313 -0.000002 -0.000014 -0.174510
 20   3.673767 0.176993 -1.117566 0.000007 -0.000003 -0.174546
 21   3.942357 1.330634 1.627658 0.000002 -0.000011 -0.000026
 22   -0.246060 -0.011889 0.516521 -0.000011 0.000031 0.000025
 23   3.942374 1.330659 -1.631083 0.000019 0.000002 -0.000024
 24   -0.246150 -0.011872 -0.516511 -0.000005 -0.000006 0.000048
 25   4.941364 1.997338 1.629330 0.000018 -0.000001 -0.000024
 26   4.941382 1.997366 -1.629410 -0.000001 0.000005 -0.000024
 27   2.918368 1.615358 1.514501 -0.000019 -0.000022 -0.000050
 28   2.920798 1.614964 -1.501142 -0.000002 -0.000009 -0.000024
 29   8.824059 0.150544 0.091743 0.000006 -0.000231 -0.174534
 30   2.111085 -0.561179 1.784320 -0.000008 -0.000682 0.000024
 31   2.121290 -0.561289 -1.853599 0.000000 0.000000 -0.000002
 32   -0.810489 -0.093824 3.127092 0.262828 -3.097583 -0.334759
 33   14.298673 -0.408176 0.475484 0.003675 -0.003118 -0.522390
 34   15.835795 0.581398 0.242756 -0.001248 0.032043 0.122292
 35   -0.815868 -0.091229 -3.114430 -0.132801 3.034913 -0.011454
 36   14.294526 -0.410349 -0.463635 -0.002676 0.001869 -0.384687
 37   15.834409 0.579420 -0.284600 -0.034108 0.026558 0.304555
 38   1.139685 -3.453749 -2.823813 0.000000 0.000000 0.000001
 39   -4.457742 -1.054854 -0.746180 0.000000 0.000000 0.000000
 40   1.118101 -3.449769 3.237290 0.000000 0.000001 0.000000
 41   -4.433840 -1.059130 0.959566 -0.000001 0.000000 0.000000
 42   -0.657468 1.697302 -2.688614 0.000000 0.000002 0.000000
 43   -0.664068 1.698578 2.869377 0.000000 0.000002 0.000000
time 22
  0   -0.010486 -0.546892 1.863709 0.000000 0.000000 -1.571449
  1   -1.093036 0.000002 -0.326057 -1.570809 -1.570703 0.000022
  2   2.262337 0.113614 0.064702 -0.010230 -0.042736 -0.077157
  3   2.380047 0.353302 0.047440 -0.017356 0.054166 0.044076
  4   2.033756 0.190472 -0.000128 0.003568 -0.053847 -0.126527
  5   2.451511 0.204909 -0.003447 -0.158930 -0.035007 -0.096672
  6   7.247600 -0.397300 -0.109469 -0.016634 0.002238 0.459335
  7   -2.022252 -0.104661 3.136172 1.822266 -1.010238 -5.463803
  8   1.168026 -0.537438 -0.063437 -1.487869 0.913875 -1.156337
  9   6.790376 -0.619176 0.015206 -0.000102 -0.000151 -1.591535
 10   8.637599 0.544015 -0.090417 -2.893111 0.080044 0.504987
 11   6.790465 -0.619039 0.017802 0.002899 -0.011793 -1.129303
 12   -2.022474 -0.104699 -2.873818 -2.302289 1.868006 -5.924913
 13   1.167898 -0.537463 0.063297 -1.514769 -0.587056 0.451559
 14   7.002743 -0.617765 -0.183752 0.000172 0.000194 -1.972870
 15   8.209042 0.615527 -0.255885 1.210863 0.636839 -1.114231
 16   7.002735 -0.617911 -0.183641 0.012838 0.010977 -1.399679
 17   1.574674 0.609930 -0.000899 0.179744 0.134294 -0.556197
 18   -0.602177 0.511412 -0.000006 0.000000 0.000000 0.000000
 19   3.673773 0.177020 1.119313 -0.000002 -0.000014 -0.174510
 20   3.673767 0.176993 -1.117566 0.000007 -0.000003 -0.174546
 21   3.942357 1.330634 1.627658 0.000002 -0.000011 -0.000026
 22   -0.246060 -0.011889 0.516521 -0.000011 0.000031 0.000025
 23   3.942374 1.330659 -1.631083 0.000019 0.000002 -0.000024
 24   -0.246150 -0.011872 -0.516511 -0.000005 -0.000006 0.000048
 25   4.941364 1.997338 1.629330 0.000018 -0.000001 -0.000024
 26   4.941382 1.997366 -1.629410 -0.000001 0.000005 -0.000024
 27   2.918368 1.615358 1.514501 -0.000019 -0.000022 -0.000050
 28   2.920798 1.614964 -1.501142 -0.000002 -0.000009 -0.000024
 29   8.824059 0.150544 0.091743 0.000006 -0.000231 -0.174534
 30   2.111085 -0.561179 1.784320 -0.000008 -0.000682 0.000024
 31   2.121290 -0.561289 -1.853599 0.000000 0.000000 -0.000002
 32   -0.810489 -0.093824 3.127092 0.262828 -3.097583 -0.334759
 33   14.298673 -0.408176 0.475484 0.003675 -0.003118 -0.522390
 34   15.835795 0.581398 0.242756 -0.001248 0.032043 0.122292
 35   -0.815868 -0.091229 -3.114430 -0.132801 3.034913 -0.011454
 36   14.294526 -0.410349 -0.463635 -0.002676 0.001869 -0.384687
 37   15.834409 0.579420 -0.284600 -0.034108 0.026558 0.304555
 38   1.139685 -3.453749 -2.823813 0.000000 0.000000 0.000001
 39   -4.457742 -1.054854 -0.746180 0.000000 0.000000 0.000000
 40   1.118101 -3.449769 3.237290 0.000000 0.000001 0.000000
 41   -4.433840 -1.059130 0.959566 -0.000001 0.000000 0.000000
 42   -0.657468 1.697302 -2.688614 0.000000 0.000002 0.000000
 43   -0.664068 1.698578 2.869377 0.000000 0.000002 0.000000
end
