version 1
nodes
  0 "Bip01" -1
  1 "Bip01 Pelvis" 0
  2 "Bip01 Spine" 1
  3 "Bip01 Spine1" 2
  4 "Bip01 Spine2" 3
  5 "Bip01 Spine3" 4
  6 "Bip01 Neck" 5
  7 "Bip01 L Arm" 6
  8 "Bip01 L Arm1" 7
  9 "Bip01 L Arm2" 8
 10 "Bip01 L Hand" 9
 11 "Bip06 L elbow2-smooth" 8
 12 "Bip01 R Arm" 6
 13 "Bip01 R Arm1" 12
 14 "Bip01 R Arm2" 13
 15 "Bip01 R Hand" 14
 16 "Bip06 R elbow2-smooth" 13
 17 "Bip01 Head" 6
 18 "Bip06 Head_helper" 17
 19 "Bip06 Head_eyes_l" 18
 20 "Bip06 Head_eyes_r" 18
 21 "Bip06 Head_blink_l" 18
 22 "Bip06 Head_blink_smooth_l1" 21
 23 "Bip06 Head_blink_r" 18
 24 "Bip06 Head_blink_smooth_r1" 23
 25 "Bip06 Head_L_eyebrow" 18
 26 "Bip06 Head_R_eyebrow" 18
 27 "Bip06 Head_blink_l_lid" 18
 28 "Bip06 Head_blink_r_lid" 18
 29 "Bip06 bunny" 18
 30 "Bip06 bunnyL" 29
 31 "Bip06 bunnyR" 29
 32 "Bip01 L Leg" 1
 33 "Bip01 L Leg1" 32
 34 "Bip01 L Foot" 33
 35 "Bip01 R Leg" 1
 36 "Bip01 R Leg1" 35
 37 "Bip01 R Foot" 36
 38 "Bip03 HairR1" 17
 39 "Bip03 HairR2" 38
 40 "Bip03 HairL1" 17
 41 "Bip03 HairL2" 40
 42 "Bip03 swingR" 17
 43 "Bip03 swingL" 17
end
skeleton
time 0
  0   0.001233 -0.019532 2.285597 0.000000 0.000000 -1.571829
  1   -1.093036 0.000002 -0.326057 -1.570809 -1.570379 -0.000026
  2   2.262337 0.113614 0.064702 -0.000052 0.000061 -0.217080
  3   2.380047 0.353302 0.047440 -0.269688 -0.015944 -0.058768
  4   2.033756 0.190472 -0.000128 -0.269954 -0.013566 -0.050553
  5   2.451511 0.204909 -0.003447 -0.138715 -0.014327 -0.103532
  6   7.247600 -0.397300 -0.109469 0.000001 0.000009 0.052298
  7   -2.022252 -0.104661 3.136172 1.070165 -1.170888 -4.229592
  8   1.168026 -0.537438 -0.063437 -1.422247 0.248166 -1.225734
  9   6.790376 -0.619176 0.015206 -0.000213 -0.000352 -1.208462
 10   8.637599 0.544015 -0.090417 -3.510885 0.279460 0.732944
 11   6.790465 -0.619039 0.017802 0.001206 -0.011651 -0.861115
 12   -2.022474 -0.104699 -2.873818 0.298873 1.361683 -2.901984
 13   1.167898 -0.537463 0.063297 1.045484 -0.580293 -1.635680
 14   7.002743 -0.617765 -0.183752 0.000229 0.000250 -1.753571
 15   8.209042 0.615527 -0.255885 2.034799 -0.197232 0.869278
 16   7.002735 -0.617911 -0.183641 0.013309 0.009680 -1.246188
 17   1.574674 0.609930 -0.000899 0.524975 -0.030925 0.035401
 18   -0.602177 0.511412 -0.000006 0.000000 0.000000 0.000000
 19   3.673773 0.177020 1.119313 -0.000002 -0.000014 -0.174510
 20   3.673767 0.176993 -1.117566 0.000007 -0.000003 -0.174546
 21   3.942357 1.330634 1.627658 0.000002 -0.000011 -0.000026
 22   -0.246060 -0.011889 0.516521 -0.000011 0.000031 0.000025
 23   3.942374 1.330659 -1.631083 0.000019 0.000002 -0.000024
 24   -0.246150 -0.011872 -0.516511 -0.000005 -0.000006 0.000048
 25   4.941364 1.997338 1.629330 0.000018 -0.000001 -0.000024
 26   4.941382 1.997366 -1.629410 -0.000001 0.000005 -0.000024
 27   2.918368 1.615358 1.514501 -0.000019 -0.000022 -0.000050
 28   2.920798 1.614964 -1.501142 -0.000002 -0.000009 -0.000024
 29   8.824059 0.150544 0.091743 0.000006 -0.000231 -0.174534
 30   2.111085 -0.561179 1.784320 -0.000008 -0.000682 0.000024
 31   2.121290 -0.561289 -1.853599 0.000000 0.000000 -0.000002
 32   -0.810489 -0.093824 3.127092 0.338887 -3.077718 -0.167351
 33   14.298673 -0.408176 0.475484 0.013203 -0.091857 -0.496506
 34   15.835795 0.581398 0.242756 -0.532523 -0.064474 0.362871
 35   -0.815868 -0.091229 -3.114430 -0.002100 2.881638 -0.314968
 36   14.294526 -0.410349 -0.463635 -0.021444 0.095325 -0.575403
 37   15.834409 0.579420 -0.284600 -0.051525 0.043093 0.201376
 38   1.139685 -3.453749 -2.823813 0.000000 0.000000 0.000001
 39   -4.457742 -1.054854 -0.746180 0.000000 0.000000 0.000000
 40   1.118101 -3.449769 3.237290 0.000000 0.000001 0.000000
 41   -4.433840 -1.059130 0.959566 -0.000001 0.000000 0.000000
 42   -0.657468 1.697302 -2.688614 0.000000 0.000002 0.000000
 43   -0.664068 1.698578 2.869377 0.000000 0.000002 0.000000
time 1
  0   0.001233 -0.019532 2.285597 0.000000 0.000000 -1.571829
  1   -1.093036 0.000002 -0.326057 -1.570809 -1.570379 -0.000026
  2   2.262337 0.113614 0.064702 -0.051728 -0.011325 -0.216845
  3   2.380047 0.353302 0.047440 -0.325612 -0.015129 -0.164326
  4   2.033756 0.190472 -0.000128 -0.323050 -0.016323 -0.049828
  5   2.451511 0.204909 -0.003447 -0.191589 -0.019771 -0.102616
  6   7.247600 -0.397300 -0.109469 0.000001 0.000009 0.052298
  7   -2.022252 -0.104661 3.136172 1.070165 -1.170888 -4.229592
  8   1.168026 -0.537438 -0.063437 -1.431929 0.384216 -1.167977
  9   6.790376 -0.619176 0.015206 -0.000213 -0.000352 -1.543613
 10   8.637599 0.544015 -0.090417 -3.267738 0.180984 0.828294
 11   6.790465 -0.619039 0.017802 0.002607 -0.011793 -1.095678
 12   -2.022474 -0.104699 -2.873818 0.298873 1.361683 -2.901984
 13   1.167898 -0.537463 0.063297 1.113670 -0.672134 -1.748577
 14   7.002743 -0.617765 -0.183752 0.000229 0.000250 -1.857858
 15   8.209042 0.615527 -0.255885 2.051912 -0.190195 0.732947
 16   7.002735 -0.617911 -0.183641 0.013121 0.010300 -1.319208
 17   1.574674 0.609930 -0.000899 0.740789 -0.108055 0.127803
 18   -0.602177 0.511412 -0.000006 0.000000 0.000000 0.000000
 19   3.673773 0.177020 1.119313 -0.000002 -0.000014 -0.174510
 20   3.673767 0.176993 -1.117566 0.000007 -0.000003 -0.174546
 21   3.942357 1.330634 1.627658 0.000002 -0.000011 -0.000026
 22   -0.246060 -0.011889 0.516521 -0.000011 0.000031 0.000025
 23   3.942374 1.330659 -1.631083 0.000019 0.000002 -0.000024
 24   -0.246150 -0.011872 -0.516511 -0.000005 -0.000006 0.000048
 25   4.941364 1.997338 1.629330 0.000018 -0.000001 -0.000024
 26   4.941382 1.997366 -1.629410 -0.000001 0.000005 -0.000024
 27   2.918368 1.615358 1.514501 -0.000019 -0.000022 -0.000050
 28   2.920798 1.614964 -1.501142 -0.000002 -0.000009 -0.000024
 29   8.824059 0.150544 0.091743 0.000006 -0.000231 -0.174534
 30   2.111085 -0.561179 1.784320 -0.000008 -0.000682 0.000024
 31   2.121290 -0.561289 -1.853599 0.000000 0.000000 -0.000002
 32   -0.810489 -0.093824 3.127092 0.338887 -3.077718 -0.167351
 33   14.298673 -0.408176 0.475484 0.013203 -0.091857 -0.496506
 34   15.835795 0.581398 0.242756 -0.532523 -0.064474 0.362871
 35   -0.815868 -0.091229 -3.114430 -0.002100 2.881638 -0.314968
 36   14.294526 -0.410349 -0.463635 -0.021444 0.095325 -0.575403
 37   15.834409 0.579420 -0.284600 -0.051525 0.043093 0.201376
 38   1.139685 -3.453749 -2.823813 0.000000 0.000000 0.000001
 39   -4.457742 -1.054854 -0.746180 0.000000 0.000000 0.000000
 40   1.118101 -3.449769 3.237290 0.000000 0.000001 0.000000
 41   -4.433840 -1.059130 0.959566 -0.000001 0.000000 0.000000
 42   -0.657468 1.697302 -2.688614 0.000000 0.000002 0.000000
 43   -0.664068 1.698578 2.869377 0.000000 0.000002 0.000000
time 2
  0   0.001233 -0.019532 2.285597 0.000000 0.000000 -1.571829
  1   -1.093036 0.000002 -0.326057 -1.570809 -1.570379 -0.000026
  2   2.262337 0.113614 0.064702 -0.103748 -0.022866 -0.215869
  3   2.380047 0.353302 0.047440 -0.381251 -0.019982 -0.269741
  4   2.033756 0.190472 -0.000128 -0.376165 -0.018900 -0.048777
  5   2.451511 0.204909 -0.003447 -0.244463 -0.025189 -0.101377
  6   7.247600 -0.397300 -0.109469 0.000001 0.000009 0.052298
  7   -2.022252 -0.104661 3.136172 1.070165 -1.170888 -4.229592
  8   1.168026 -0.537438 -0.063437 -1.445914 0.438555 -1.125972
  9   6.790376 -0.619176 0.015206 -0.000213 -0.000352 -1.770770
 10   8.637599 0.544015 -0.090417 -2.988485 0.178802 0.926320
 11   6.790465 -0.619039 0.017802 0.003629 -0.011850 -1.254919
 12   -2.022474 -0.104699 -2.873818 0.298873 1.361683 -2.901984
 13   1.167898 -0.537463 0.063297 1.178410 -0.768093 -1.854997
 14   7.002743 -0.617765 -0.183752 0.000229 0.000250 -1.962227
 15   8.209042 0.615527 -0.255885 2.068162 -0.180587 0.596916
 16   7.002735 -0.617911 -0.183641 0.012932 0.011033 -1.392228
 17   1.574674 0.609930 -0.000899 0.949455 -0.214366 0.196699
 18   -0.602177 0.511412 -0.000006 0.000000 0.000000 0.000000
 19   3.673773 0.177020 1.119313 -0.000002 -0.000014 -0.174510
 20   3.673767 0.176993 -1.117566 0.000007 -0.000003 -0.174546
 21   3.942357 1.330634 1.627658 0.000002 -0.000011 -0.000026
 22   -0.246060 -0.011889 0.516521 -0.000011 0.000031 0.000025
 23   3.942374 1.330659 -1.631083 0.000019 0.000002 -0.000024
 24   -0.246150 -0.011872 -0.516511 -0.000005 -0.000006 0.000048
 25   4.941364 1.997338 1.629330 0.000018 -0.000001 -0.000024
 26   4.941382 1.997366 -1.629410 -0.000001 0.000005 -0.000024
 27   2.918368 1.615358 1.514501 -0.000019 -0.000022 -0.000050
 28   2.920798 1.614964 -1.501142 -0.000002 -0.000009 -0.000024
 29   8.824059 0.150544 0.091743 0.000006 -0.000231 -0.174534
 30   2.111085 -0.561179 1.784320 -0.000008 -0.000682 0.000024
 31   2.121290 -0.561289 -1.853599 0.000000 0.000000 -0.000002
 32   -0.810489 -0.093824 3.127092 0.338887 -3.077718 -0.167351
 33   14.298673 -0.408176 0.475484 0.013203 -0.091857 -0.496506
 34   15.835795 0.581398 0.242756 -0.532523 -0.064474 0.362871
 35   -0.815868 -0.091229 -3.114430 -0.002100 2.881638 -0.314968
 36   14.294526 -0.410349 -0.463635 -0.021444 0.095325 -0.575403
 37   15.834409 0.579420 -0.284600 -0.051525 0.043093 0.201376
 38   1.139685 -3.453749 -2.823813 0.000000 0.000000 0.000001
 39   -4.457742 -1.054854 -0.746180 0.000000 0.000000 0.000000
 40   1.118101 -3.449769 3.237290 0.000000 0.000001 0.000000
 41   -4.433840 -1.059130 0.959566 -0.000001 0.000000 0.000000
 42   -0.657468 1.697302 -2.688614 0.000000 0.000002 0.000000
 43   -0.664068 1.698578 2.869377 0.000000 0.000002 0.000000
time 3
  0   0.001233 -0.019532 2.285597 0.000000 0.000000 -1.571829
  1   -1.093036 0.000002 -0.326057 -1.570809 -1.570379 -0.000026
  2   2.262337 0.113614 0.064702 -0.127275 -0.027995 -0.215327
  3   2.380047 0.353302 0.047440 -0.406137 -0.024333 -0.317551
  4   2.033756 0.190472 -0.000128 -0.400306 -0.019906 -0.048415
  5   2.451511 0.204909 -0.003447 -0.268598 -0.027552 -0.100733
  6   7.247600 -0.397300 -0.109469 0.000001 0.000009 0.052298
  7   -2.022252 -0.104661 3.136172 1.070165 -1.170888 -4.229592
  8   1.168026 -0.537438 -0.063437 -1.456988 0.387939 -1.100668
  9   6.790376 -0.619176 0.015206 -0.000213 -0.000352 -1.937327
 10   8.637599 0.544015 -0.090417 -2.693908 0.219910 1.022321
 11   6.790465 -0.619039 0.017802 0.004388 -0.011935 -1.371364
 12   -2.022474 -0.104699 -2.873818 0.298873 1.361683 -2.901984
 13   1.167898 -0.537463 0.063297 1.230217 -0.802317 -1.866075
 14   7.002743 -0.617765 -0.183752 0.000229 0.000250 -2.048857
 15   8.209042 0.615527 -0.255885 2.081464 -0.169616 0.475018
 16   7.002735 -0.617911 -0.183641 0.012791 0.011484 -1.452885
 17   1.574674 0.609930 -0.000899 1.042475 -0.279379 0.222239
 18   -0.602177 0.511412 -0.000006 0.000000 0.000000 0.000000
 19   3.673773 0.177020 1.119313 -0.000002 -0.000014 -0.174510
 20   3.673767 0.176993 -1.117566 0.000007 -0.000003 -0.174546
 21   3.942357 1.330634 1.627658 0.000002 -0.000011 -0.000026
 22   -0.246060 -0.011889 0.516521 -0.000011 0.000031 0.000025
 23   3.942374 1.330659 -1.631083 0.000019 0.000002 -0.000024
 24   -0.246150 -0.011872 -0.516511 -0.000005 -0.000006 0.000048
 25   4.941364 1.997338 1.629330 0.000018 -0.000001 -0.000024
 26   4.941382 1.997366 -1.629410 -0.000001 0.000005 -0.000024
 27   2.918368 1.615358 1.514501 -0.000019 -0.000022 -0.000050
 28   2.920798 1.614964 -1.501142 -0.000002 -0.000009 -0.000024
 29   8.824059 0.150544 0.091743 0.000006 -0.000231 -0.174534
 30   2.111085 -0.561179 1.784320 -0.000008 -0.000682 0.000024
 31   2.121290 -0.561289 -1.853599 0.000000 0.000000 -0.000002
 32   -0.810489 -0.093824 3.127092 0.338887 -3.077718 -0.167351
 33   14.298673 -0.408176 0.475484 0.013203 -0.091857 -0.496506
 34   15.835795 0.581398 0.242756 -0.532523 -0.064474 0.362871
 35   -0.815868 -0.091229 -3.114430 -0.002100 2.881638 -0.314968
 36   14.294526 -0.410349 -0.463635 -0.021444 0.095325 -0.575403
 37   15.834409 0.579420 -0.284600 -0.051525 0.043093 0.201376
 38   1.139685 -3.453749 -2.823813 0.000000 0.000000 0.000001
 39   -4.457742 -1.054854 -0.746180 0.000000 0.000000 0.000000
 40   1.118101 -3.449769 3.237290 0.000000 0.000001 0.000000
 41   -4.433840 -1.059130 0.959566 -0.000001 0.000000 0.000000
 42   -0.657468 1.697302 -2.688614 0.000000 0.000002 0.000000
 43   -0.664068 1.698578 2.869377 0.000000 0.000002 0.000000
time 4
  0   0.001233 -0.019532 2.285597 0.000000 0.000000 -1.571829
  1   -1.093036 0.000002 -0.326057 -1.570809 -1.570379 -0.000026
  2   2.262337 0.113614 0.064702 -0.124409 -0.027348 -0.215399
  3   2.380047 0.353302 0.047440 -0.403047 -0.023698 -0.311613
  4   2.033756 0.190472 -0.000128 -0.397263 -0.019762 -0.048487
  5   2.451511 0.204909 -0.003447 -0.265568 -0.027304 -0.100832
  6   7.247600 -0.397300 -0.109469 0.000001 0.000009 0.052298
  7   -2.022252 -0.104661 3.136172 1.070165 -1.170888 -4.229592
  8   1.168026 -0.537438 -0.063437 -1.458317 0.398656 -1.102882
  9   6.790376 -0.619176 0.015206 -0.000213 -0.000352 -1.918913
 10   8.637599 0.544015 -0.090417 -2.730014 0.211674 1.002571
 11   6.790465 -0.619039 0.017802 0.004330 -0.011935 -1.358388
 12   -2.022474 -0.104699 -2.873818 0.298873 1.361683 -2.901984
 13   1.167898 -0.537463 0.063297 1.221290 -0.802978 -1.860748
 14   7.002743 -0.617765 -0.183752 0.000229 0.000250 -2.041927
 15   8.209042 0.615527 -0.255885 2.086641 -0.164547 0.426848
 16   7.002735 -0.617911 -0.183641 0.012791 0.011428 -1.448028
 17   1.574674 0.609930 -0.000899 1.030533 -0.282574 0.224346
 18   -0.602177 0.511412 -0.000006 0.000000 0.000000 0.000000
 19   3.673773 0.177020 1.119313 -0.000002 -0.000014 -0.174510
 20   3.673767 0.176993 -1.117566 0.000007 -0.000003 -0.174546
 21   3.942357 1.330634 1.627658 0.000002 -0.000011 -0.000026
 22   -0.246060 -0.011889 0.516521 -0.000011 0.000031 0.000025
 23   3.942374 1.330659 -1.631083 0.000019 0.000002 -0.000024
 24   -0.246150 -0.011872 -0.516511 -0.000005 -0.000006 0.000048
 25   4.941364 1.997338 1.629330 0.000018 -0.000001 -0.000024
 26   4.941382 1.997366 -1.629410 -0.000001 0.000005 -0.000024
 27   2.918368 1.615358 1.514501 -0.000019 -0.000022 -0.000050
 28   2.920798 1.614964 -1.501142 -0.000002 -0.000009 -0.000024
 29   8.824059 0.150544 0.091743 0.000006 -0.000231 -0.174534
 30   2.111085 -0.561179 1.784320 -0.000008 -0.000682 0.000024
 31   2.121290 -0.561289 -1.853599 0.000000 0.000000 -0.000002
 32   -0.810489 -0.093824 3.127092 0.338887 -3.077718 -0.167351
 33   14.298673 -0.408176 0.475484 0.013203 -0.091857 -0.496506
 34   15.835795 0.581398 0.242756 -0.532523 -0.064474 0.362871
 35   -0.815868 -0.091229 -3.114430 -0.002100 2.881638 -0.314968
 36   14.294526 -0.410349 -0.463635 -0.021444 0.095325 -0.575403
 37   15.834409 0.579420 -0.284600 -0.051525 0.043093 0.201376
 38   1.139685 -3.453749 -2.823813 0.000000 0.000000 0.000001
 39   -4.457742 -1.054854 -0.746180 0.000000 0.000000 0.000000
 40   1.118101 -3.449769 3.237290 0.000000 0.000001 0.000000
 41   -4.433840 -1.059130 0.959566 -0.000001 0.000000 0.000000
 42   -0.657468 1.697302 -2.688614 0.000000 0.000002 0.000000
 43   -0.664068 1.698578 2.869377 0.000000 0.000002 0.000000
time 5
  0   0.001233 -0.019532 2.285597 0.000000 0.000000 -1.571829
  1   -1.093036 0.000002 -0.326057 -1.570809 -1.570379 -0.000026
  2   2.262337 0.113614 0.064702 -0.116206 -0.025467 -0.215688
  3   2.380047 0.353302 0.047440 -0.394301 -0.022140 -0.294942
  4   2.033756 0.190472 -0.000128 -0.388890 -0.019511 -0.048632
  5   2.451511 0.204909 -0.003447 -0.257164 -0.026482 -0.101105
  6   7.247600 -0.397300 -0.109469 0.000001 0.000009 0.052298
  7   -2.022252 -0.104661 3.136172 1.070165 -1.170888 -4.229592
  8   1.168026 -0.537438 -0.063437 -1.457684 0.420945 -1.110979
  9   6.790376 -0.619176 0.015206 -0.000213 -0.000352 -1.865331
 10   8.637599 0.544015 -0.090417 -2.829175 0.193091 0.961986
 11   6.790465 -0.619039 0.017802 0.004067 -0.011907 -1.320957
 12   -2.022474 -0.104699 -2.873818 0.298873 1.361683 -2.901984
 13   1.167898 -0.537463 0.063297 1.205263 -0.812895 -1.865833
 14   7.002743 -0.617765 -0.183752 0.000229 0.000250 -2.011648
 15   8.209042 0.615527 -0.255885 2.078444 -0.172567 0.505748
 16   7.002735 -0.617911 -0.183641 0.012838 0.011315 -1.426834
 17   1.574674 0.609930 -0.000899 0.998037 -0.264351 0.218654
 18   -0.602177 0.511412 -0.000006 0.000000 0.000000 0.000000
 19   3.673773 0.177020 1.119313 -0.000002 -0.000014 -0.174510
 20   3.673767 0.176993 -1.117566 0.000007 -0.000003 -0.174546
 21   3.942357 1.330634 1.627658 0.000002 -0.000011 -0.000026
 22   -0.246060 -0.011889 0.516521 -0.000011 0.000031 0.000025
 23   3.942374 1.330659 -1.631083 0.000019 0.000002 -0.000024
 24   -0.246150 -0.011872 -0.516511 -0.000005 -0.000006 0.000048
 25   4.941364 1.997338 1.629330 0.000018 -0.000001 -0.000024
 26   4.941382 1.997366 -1.629410 -0.000001 0.000005 -0.000024
 27   2.918368 1.615358 1.514501 -0.000019 -0.000022 -0.000050
 28   2.920798 1.614964 -1.501142 -0.000002 -0.000009 -0.000024
 29   8.824059 0.150544 0.091743 0.000006 -0.000231 -0.174534
 30   2.111085 -0.561179 1.784320 -0.000008 -0.000682 0.000024
 31   2.121290 -0.561289 -1.853599 0.000000 0.000000 -0.000002
 32   -0.810489 -0.093824 3.127092 0.338887 -3.077718 -0.167351
 33   14.298673 -0.408176 0.475484 0.013203 -0.091857 -0.496506
 34   15.835795 0.581398 0.242756 -0.532523 -0.064474 0.362871
 35   -0.815868 -0.091229 -3.114430 -0.002100 2.881638 -0.314968
 36   14.294526 -0.410349 -0.463635 -0.021444 0.095325 -0.575403
 37   15.834409 0.579420 -0.284600 -0.051525 0.043093 0.201376
 38   1.139685 -3.453749 -2.823813 0.000000 0.000000 0.000001
 39   -4.457742 -1.054854 -0.746180 0.000000 0.000000 0.000000
 40   1.118101 -3.449769 3.237290 0.000000 0.000001 0.000000
 41   -4.433840 -1.059130 0.959566 -0.000001 0.000000 0.000000
 42   -0.657468 1.697302 -2.688614 0.000000 0.000002 0.000000
 43   -0.664068 1.698578 2.869377 0.000000 0.000002 0.000000
time 6
  0   0.001233 -0.019532 2.285597 0.000000 0.000000 -1.571829
  1   -1.093036 0.000002 -0.326057 -1.570809 -1.570379 -0.000026
  2   2.262337 0.113614 0.064702 -0.103748 -0.022866 -0.215869
  3   2.380047 0.353302 0.047440 -0.381251 -0.019982 -0.269741
  4   2.033756 0.190472 -0.000128 -0.376165 -0.018900 -0.048777
  5   2.451511 0.204909 -0.003447 -0.244463 -0.025189 -0.101377
  6   7.247600 -0.397300 -0.109469 0.000001 0.000009 0.052298
  7   -2.022252 -0.104661 3.136172 1.070165 -1.170888 -4.229592
  8   1.168026 -0.537438 -0.063437 -1.453571 0.434329 -1.126668
  9   6.790376 -0.619176 0.015206 -0.000213 -0.000352 -1.809032
 10   8.637599 0.544015 -0.090417 -2.944540 0.174508 0.930733
 11   6.790465 -0.619039 0.017802 0.003775 -0.011907 -1.281565
 12   -2.022474 -0.104699 -2.873818 0.298873 1.361683 -2.901984
 13   1.167898 -0.537463 0.063297 1.189447 -0.818132 -1.859053
 14   7.002743 -0.617765 -0.183752 0.000229 0.000250 -1.979223
 15   8.209042 0.615527 -0.255885 2.067443 -0.181041 0.602749
 16   7.002735 -0.617911 -0.183641 0.012932 0.011146 -1.404040
 17   1.574674 0.609930 -0.000899 0.948968 -0.235028 0.207196
 18   -0.602177 0.511412 -0.000006 0.000000 0.000000 0.000000
 19   3.673773 0.177020 1.119313 -0.000002 -0.000014 -0.174510
 20   3.673767 0.176993 -1.117566 0.000007 -0.000003 -0.174546
 21   3.942357 1.330634 1.627658 0.000002 -0.000011 -0.000026
 22   -0.246060 -0.011889 0.516521 -0.000011 0.000031 0.000025
 23   3.942374 1.330659 -1.631083 0.000019 0.000002 -0.000024
 24   -0.246150 -0.011872 -0.516511 -0.000005 -0.000006 0.000048
 25   4.941364 1.997338 1.629330 0.000018 -0.000001 -0.000024
 26   4.941382 1.997366 -1.629410 -0.000001 0.000005 -0.000024
 27   2.918368 1.615358 1.514501 -0.000019 -0.000022 -0.000050
 28   2.920798 1.614964 -1.501142 -0.000002 -0.000009 -0.000024
 29   8.824059 0.150544 0.091743 0.000006 -0.000231 -0.174534
 30   2.111085 -0.561179 1.784320 -0.000008 -0.000682 0.000024
 31   2.121290 -0.561289 -1.853599 0.000000 0.000000 -0.000002
 32   -0.810489 -0.093824 3.127092 0.338887 -3.077718 -0.167351
 33   14.298673 -0.408176 0.475484 0.013203 -0.091857 -0.496506
 34   15.835795 0.581398 0.242756 -0.532523 -0.064474 0.362871
 35   -0.815868 -0.091229 -3.114430 -0.002100 2.881638 -0.314968
 36   14.294526 -0.410349 -0.463635 -0.021444 0.095325 -0.575403
 37   15.834409 0.579420 -0.284600 -0.051525 0.043093 0.201376
 38   1.139685 -3.453749 -2.823813 0.000000 0.000000 0.000001
 39   -4.457742 -1.054854 -0.746180 0.000000 0.000000 0.000000
 40   1.118101 -3.449769 3.237290 0.000000 0.000001 0.000000
 41   -4.433840 -1.059130 0.959566 -0.000001 0.000000 0.000000
 42   -0.657468 1.697302 -2.688614 0.000000 0.000002 0.000000
 43   -0.664068 1.698578 2.869377 0.000000 0.000002 0.000000
time 7
  0   0.001233 -0.019532 2.285597 0.000000 0.000000 -1.571829
  1   -1.093036 0.000002 -0.326057 -1.570809 -1.570379 -0.000026
  2   2.262337 0.113614 0.064702 -0.088170 -0.019402 -0.216303
  3   2.380047 0.353302 0.047440 -0.364554 -0.018017 -0.238194
  4   2.033756 0.190472 -0.000128 -0.360249 -0.018133 -0.049212
  5   2.451511 0.204909 -0.003447 -0.228647 -0.023583 -0.101774
  6   7.247600 -0.397300 -0.109469 0.000001 0.000009 0.052298
  7   -2.022252 -0.104661 3.136172 1.070165 -1.170888 -4.229592
  8   1.168026 -0.537438 -0.063437 -1.446863 0.439310 -1.147101
  9   6.790376 -0.619176 0.015206 -0.000213 -0.000352 -1.770619
 10   8.637599 0.544015 -0.090417 -3.077694 0.154869 0.924222
 11   6.790465 -0.619039 0.017802 0.003600 -0.011850 -1.254573
 12   -2.022474 -0.104699 -2.873818 0.298873 1.361683 -2.901984
 13   1.167898 -0.537463 0.063297 1.172295 -0.814980 -1.840711
 14   7.002743 -0.617765 -0.183752 0.000229 0.000250 -1.944901
 15   8.209042 0.615527 -0.255885 2.055435 -0.188531 0.704682
 16   7.002735 -0.617911 -0.183641 0.012979 0.010864 -1.380141
 17   1.574674 0.609930 -0.000899 0.887144 -0.198391 0.189787
 18   -0.602177 0.511412 -0.000006 0.000000 0.000000 0.000000
 19   3.673773 0.177020 1.119313 -0.000002 -0.000014 -0.174510
 20   3.673767 0.176993 -1.117566 0.000007 -0.000003 -0.174546
 21   3.942357 1.330634 1.627658 0.000002 -0.000011 -0.000026
 22   -0.246060 -0.011889 0.516521 -0.000011 0.000031 0.000025
 23   3.942374 1.330659 -1.631083 0.000019 0.000002 -0.000024
 24   -0.246150 -0.011872 -0.516511 -0.000005 -0.000006 0.000048
 25   4.941364 1.997338 1.629330 0.000018 -0.000001 -0.000024
 26   4.941382 1.997366 -1.629410 -0.000001 0.000005 -0.000024
 27   2.918368 1.615358 1.514501 -0.000019 -0.000022 -0.000050
 28   2.920798 1.614964 -1.501142 -0.000002 -0.000009 -0.000024
 29   8.824059 0.150544 0.091743 0.000006 -0.000231 -0.174534
 30   2.111085 -0.561179 1.784320 -0.000008 -0.000682 0.000024
 31   2.121290 -0.561289 -1.853599 0.000000 0.000000 -0.000002
 32   -0.810489 -0.093824 3.127092 0.338887 -3.077718 -0.167351
 33   14.298673 -0.408176 0.475484 0.013203 -0.091857 -0.496506
 34   15.835795 0.581398 0.242756 -0.532523 -0.064474 0.362871
 35   -0.815868 -0.091229 -3.114430 -0.002100 2.881638 -0.314968
 36   14.294526 -0.410349 -0.463635 -0.021444 0.095325 -0.575403
 37   15.834409 0.579420 -0.284600 -0.051525 0.043093 0.201376
 38   1.139685 -3.453749 -2.823813 0.000000 0.000000 0.000001
 39   -4.457742 -1.054854 -0.746180 0.000000 0.000000 0.000000
 40   1.118101 -3.449769 3.237290 0.000000 0.000001 0.000000
 41   -4.433840 -1.059130 0.959566 -0.000001 0.000000 0.000000
 42   -0.657468 1.697302 -2.688614 0.000000 0.000002 0.000000
 43   -0.664068 1.698578 2.869377 0.000000 0.000002 0.000000
time 8
  0   0.001233 -0.019532 2.285597 0.000000 0.000000 -1.571829
  1   -1.093036 0.000002 -0.326057 -1.570809 -1.570379 -0.000026
  2   2.262337 0.113614 0.064702 -0.070478 -0.015519 -0.216628
  3   2.380047 0.353302 0.047440 -0.345653 -0.016111 -0.202321
  4   2.033756 0.190472 -0.000128 -0.342175 -0.017258 -0.049357
  5   2.451511 0.204909 -0.003447 -0.210640 -0.021743 -0.102195
  6   7.247600 -0.397300 -0.109469 0.000001 0.000009 0.052298
  7   -2.022252 -0.104661 3.136172 1.070165 -1.170888 -4.229592
  8   1.168026 -0.537438 -0.063437 -1.438510 0.438706 -1.167977
  9   6.790376 -0.619176 0.015206 -0.000213 -0.000352 -1.728961
 10   8.637599 0.544015 -0.090417 -3.227757 0.138609 0.927333
 11   6.790465 -0.619039 0.017802 0.003366 -0.011850 -1.225505
 12   -2.022474 -0.104699 -2.873818 0.298873 1.361683 -2.901984
 13   1.167898 -0.537463 0.063297 1.153667 -0.801148 -1.811957
 14   7.002743 -0.617765 -0.183752 0.000229 0.000250 -1.909836
 15   8.209042 0.615527 -0.255885 2.043787 -0.193978 0.798196
 16   7.002735 -0.617911 -0.183641 0.013074 0.010695 -1.355525
 17   1.574674 0.609930 -0.000899 0.816546 -0.158513 0.165799
 18   -0.602177 0.511412 -0.000006 0.000000 0.000000 0.000000
 19   3.673773 0.177020 1.119313 -0.000002 -0.000014 -0.174510
 20   3.673767 0.176993 -1.117566 0.000007 -0.000003 -0.174546
 21   3.942357 1.330634 1.627658 0.000002 -0.000011 -0.000026
 22   -0.246060 -0.011889 0.516521 -0.000011 0.000031 0.000025
 23   3.942374 1.330659 -1.631083 0.000019 0.000002 -0.000024
 24   -0.246150 -0.011872 -0.516511 -0.000005 -0.000006 0.000048
 25   4.941364 1.997338 1.629330 0.000018 -0.000001 -0.000024
 26   4.941382 1.997366 -1.629410 -0.000001 0.000005 -0.000024
 27   2.918368 1.615358 1.514501 -0.000019 -0.000022 -0.000050
 28   2.920798 1.614964 -1.501142 -0.000002 -0.000009 -0.000024
 29   8.824059 0.150544 0.091743 0.000006 -0.000231 -0.174534
 30   2.111085 -0.561179 1.784320 -0.000008 -0.000682 0.000024
 31   2.121290 -0.561289 -1.853599 0.000000 0.000000 -0.000002
 32   -0.810489 -0.093824 3.127092 0.338887 -3.077718 -0.167351
 33   14.298673 -0.408176 0.475484 0.013203 -0.091857 -0.496506
 34   15.835795 0.581398 0.242756 -0.532523 -0.064474 0.362871
 35   -0.815868 -0.091229 -3.114430 -0.002100 2.881638 -0.314968
 36   14.294526 -0.410349 -0.463635 -0.021444 0.095325 -0.575403
 37   15.834409 0.579420 -0.284600 -0.051525 0.043093 0.201376
 38   1.139685 -3.453749 -2.823813 0.000000 0.000000 0.000001
 39   -4.457742 -1.054854 -0.746180 0.000000 0.000000 0.000000
 40   1.118101 -3.449769 3.237290 0.000000 0.000001 0.000000
 41   -4.433840 -1.059130 0.959566 -0.000001 0.000000 0.000000
 42   -0.657468 1.697302 -2.688614 0.000000 0.000002 0.000000
 43   -0.664068 1.698578 2.869377 0.000000 0.000002 0.000000
time 9
  0   0.001233 -0.019532 2.285597 0.000000 0.000000 -1.571829
  1   -1.093036 0.000002 -0.326057 -1.570809 -1.570379 -0.000026
  2   2.262337 0.113614 0.064702 -0.051728 -0.011325 -0.216845
  3   2.380047 0.353302 0.047440 -0.325612 -0.015129 -0.164326
  4   2.033756 0.190472 -0.000128 -0.323050 -0.016323 -0.049828
  5   2.451511 0.204909 -0.003447 -0.191589 -0.019771 -0.102616
  6   7.247600 -0.397300 -0.109469 0.000001 0.000009 0.052298
  7   -2.022252 -0.104661 3.136172 1.070165 -1.170888 -4.229592
  8   1.168026 -0.537438 -0.063437 -1.429651 0.419436 -1.188726
  9   6.790376 -0.619176 0.015206 -0.000213 -0.000352 -1.654550
 10   8.637599 0.544015 -0.090417 -3.349198 0.143466 0.914528
 11   6.790465 -0.619039 0.017802 0.003045 -0.011850 -1.173367
 12   -2.022474 -0.104699 -2.873818 0.298873 1.361683 -2.901984
 13   1.167898 -0.537463 0.063297 1.132438 -0.772975 -1.774123
 14   7.002743 -0.617765 -0.183752 0.000229 0.000250 -1.873699
 15   8.209042 0.615527 -0.255885 2.034799 -0.197232 0.869278
 16   7.002735 -0.617911 -0.183641 0.013121 0.010413 -1.330302
 17   1.574674 0.609930 -0.000899 0.740830 -0.119226 0.136785
 18   -0.602177 0.511412 -0.000006 0.000000 0.000000 0.000000
 19   3.673773 0.177020 1.119313 -0.000002 -0.000014 -0.174510
 20   3.673767 0.176993 -1.117566 0.000007 -0.000003 -0.174546
 21   3.942357 1.330634 1.627658 0.000002 -0.000011 -0.000026
 22   -0.246060 -0.011889 0.516521 -0.000011 0.000031 0.000025
 23   3.942374 1.330659 -1.631083 0.000019 0.000002 -0.000024
 24   -0.246150 -0.011872 -0.516511 -0.000005 -0.000006 0.000048
 25   4.941364 1.997338 1.629330 0.000018 -0.000001 -0.000024
 26   4.941382 1.997366 -1.629410 -0.000001 0.000005 -0.000024
 27   2.918368 1.615358 1.514501 -0.000019 -0.000022 -0.000050
 28   2.920798 1.614964 -1.501142 -0.000002 -0.000009 -0.000024
 29   8.824059 0.150544 0.091743 0.000006 -0.000231 -0.174534
 30   2.111085 -0.561179 1.784320 -0.000008 -0.000682 0.000024
 31   2.121290 -0.561289 -1.853599 0.000000 0.000000 -0.000002
 32   -0.810489 -0.093824 3.127092 0.338887 -3.077718 -0.167351
 33   14.298673 -0.408176 0.475484 0.013203 -0.091857 -0.496506
 34   15.835795 0.581398 0.242756 -0.532523 -0.064474 0.362871
 35   -0.815868 -0.091229 -3.114430 -0.002100 2.881638 -0.314968
 36   14.294526 -0.410349 -0.463635 -0.021444 0.095325 -0.575403
 37   15.834409 0.579420 -0.284600 -0.051525 0.043093 0.201376
 38   1.139685 -3.453749 -2.823813 0.000000 0.000000 0.000001
 39   -4.457742 -1.054854 -0.746180 0.000000 0.000000 0.000000
 40   1.118101 -3.449769 3.237290 0.000000 0.000001 0.000000
 41   -4.433840 -1.059130 0.959566 -0.000001 0.000000 0.000000
 42   -0.657468 1.697302 -2.688614 0.000000 0.000002 0.000000
 43   -0.664068 1.698578 2.869377 0.000000 0.000002 0.000000
time 10
  0   0.001233 -0.019532 2.285597 0.000000 0.000000 -1.571829
  1   -1.093036 0.000002 -0.326057 -1.570809 -1.570379 -0.000026
  2   2.262337 0.113614 0.064702 -0.033042 -0.007298 -0.216971
  3   2.380047 0.353302 0.047440 -0.305405 -0.014733 -0.126270
  4   2.033756 0.190472 -0.000128 -0.303907 -0.015244 -0.050082
  5   2.451511 0.204909 -0.003447 -0.172555 -0.017839 -0.102938
  6   7.247600 -0.397300 -0.109469 0.000001 0.000009 0.052298
  7   -2.022252 -0.104661 3.136172 1.070165 -1.170888 -4.229592
  8   1.168026 -0.537438 -0.063437 -1.422437 0.372090 -1.207325
  9   6.790376 -0.619176 0.015206 -0.000213 -0.000352 -1.527463
 10   8.637599 0.544015 -0.090417 -3.418065 0.178309 0.868879
 11   6.790465 -0.619039 0.017802 0.002549 -0.011793 -1.084432
 12   -2.022474 -0.104699 -2.873818 0.298873 1.361683 -2.901984
 13   1.167898 -0.537463 0.063297 1.106218 -0.719478 -1.726845
 14   7.002743 -0.617765 -0.183752 0.000229 0.000250 -1.835746
 15   8.209042 0.615527 -0.255885 2.031635 -0.198140 0.893874
 16   7.002735 -0.617911 -0.183641 0.013168 0.010244 -1.303699
 17   1.574674 0.609930 -0.000899 0.664139 -0.083631 0.103409
 18   -0.602177 0.511412 -0.000006 0.000000 0.000000 0.000000
 19   3.673773 0.177020 1.119313 -0.000002 -0.000014 -0.174510
 20   3.673767 0.176993 -1.117566 0.000007 -0.000003 -0.174546
 21   3.942357 1.330634 1.627658 0.000002 -0.000011 -0.000026
 22   -0.246060 -0.011889 0.516521 -0.000011 0.000031 0.000025
 23   3.942374 1.330659 -1.631083 0.000019 0.000002 -0.000024
 24   -0.246150 -0.011872 -0.516511 -0.000005 -0.000006 0.000048
 25   4.941364 1.997338 1.629330 0.000018 -0.000001 -0.000024
 26   4.941382 1.997366 -1.629410 -0.000001 0.000005 -0.000024
 27   2.918368 1.615358 1.514501 -0.000019 -0.000022 -0.000050
 28   2.920798 1.614964 -1.501142 -0.000002 -0.000009 -0.000024
 29   8.824059 0.150544 0.091743 0.000006 -0.000231 -0.174534
 30   2.111085 -0.561179 1.784320 -0.000008 -0.000682 0.000024
 31   2.121290 -0.561289 -1.853599 0.000000 0.000000 -0.000002
 32   -0.810489 -0.093824 3.127092 0.338887 -3.077718 -0.167351
 33   14.298673 -0.408176 0.475484 0.013203 -0.091857 -0.496506
 34   15.835795 0.581398 0.242756 -0.532523 -0.064474 0.362871
 35   -0.815868 -0.091229 -3.114430 -0.002100 2.881638 -0.314968
 36   14.294526 -0.410349 -0.463635 -0.021444 0.095325 -0.575403
 37   15.834409 0.579420 -0.284600 -0.051525 0.043093 0.201376
 38   1.139685 -3.453749 -2.823813 0.000000 0.000000 0.000001
 39   -4.457742 -1.054854 -0.746180 0.000000 0.000000 0.000000
 40   1.118101 -3.449769 3.237290 0.000000 0.000001 0.000000
 41   -4.433840 -1.059130 0.959566 -0.000001 0.000000 0.000000
 42   -0.657468 1.697302 -2.688614 0.000000 0.000002 0.000000
 43   -0.664068 1.698578 2.869377 0.000000 0.000002 0.000000
time 11
  0   0.001233 -0.019532 2.285597 0.000000 0.000000 -1.571829
  1   -1.093036 0.000002 -0.326057 -1.570809 -1.570379 -0.000026
  2   2.262337 0.113614 0.064702 -0.015452 -0.003403 -0.217080
  3   2.380047 0.353302 0.047440 -0.286414 -0.015141 -0.090397
  4   2.033756 0.190472 -0.000128 -0.285870 -0.014357 -0.050408
  5   2.451511 0.204909 -0.003447 -0.154531 -0.015920 -0.103259
  6   7.247600 -0.397300 -0.109469 0.000001 0.000009 0.052298
  7   -2.022252 -0.104661 3.136172 1.070165 -1.170888 -4.229592
  8   1.168026 -0.537438 -0.063437 -1.419969 0.308694 -1.219850
  9   6.790376 -0.619176 0.015206 -0.000213 -0.000352 -1.368000
 10   8.637599 0.544015 -0.090417 -3.462450 0.230257 0.802684
 11   6.790465 -0.619039 0.017802 0.001848 -0.011708 -0.972889
 12   -2.022474 -0.104699 -2.873818 0.298873 1.361683 -2.901984
 13   1.167898 -0.537463 0.063297 1.076132 -0.646758 -1.677449
 14   7.002743 -0.617765 -0.183752 0.000229 0.000250 -1.794741
 15   8.209042 0.615527 -0.255885 2.033289 -0.197610 0.881666
 16   7.002735 -0.617911 -0.183641 0.013262 0.010018 -1.274944
 17   1.574674 0.609930 -0.000899 0.590617 -0.053739 0.068518
 18   -0.602177 0.511412 -0.000006 0.000000 0.000000 0.000000
 19   3.673773 0.177020 1.119313 -0.000002 -0.000014 -0.174510
 20   3.673767 0.176993 -1.117566 0.000007 -0.000003 -0.174546
 21   3.942357 1.330634 1.627658 0.000002 -0.000011 -0.000026
 22   -0.246060 -0.011889 0.516521 -0.000011 0.000031 0.000025
 23   3.942374 1.330659 -1.631083 0.000019 0.000002 -0.000024
 24   -0.246150 -0.011872 -0.516511 -0.000005 -0.000006 0.000048
 25   4.941364 1.997338 1.629330 0.000018 -0.000001 -0.000024
 26   4.941382 1.997366 -1.629410 -0.000001 0.000005 -0.000024
 27   2.918368 1.615358 1.514501 -0.000019 -0.000022 -0.000050
 28   2.920798 1.614964 -1.501142 -0.000002 -0.000009 -0.000024
 29   8.824059 0.150544 0.091743 0.000006 -0.000231 -0.174534
 30   2.111085 -0.561179 1.784320 -0.000008 -0.000682 0.000024
 31   2.121290 -0.561289 -1.853599 0.000000 0.000000 -0.000002
 32   -0.810489 -0.093824 3.127092 0.338887 -3.077718 -0.167351
 33   14.298673 -0.408176 0.475484 0.013203 -0.091857 -0.496506
 34   15.835795 0.581398 0.242756 -0.532523 -0.064474 0.362871
 35   -0.815868 -0.091229 -3.114430 -0.002100 2.881638 -0.314968
 36   14.294526 -0.410349 -0.463635 -0.021444 0.095325 -0.575403
 37   15.834409 0.579420 -0.284600 -0.051525 0.043093 0.201376
 38   1.139685 -3.453749 -2.823813 0.000000 0.000000 0.000001
 39   -4.457742 -1.054854 -0.746180 0.000000 0.000000 0.000000
 40   1.118101 -3.449769 3.237290 0.000000 0.000001 0.000000
 41   -4.433840 -1.059130 0.959566 -0.000001 0.000000 0.000000
 42   -0.657468 1.697302 -2.688614 0.000000 0.000002 0.000000
 43   -0.664068 1.698578 2.869377 0.000000 0.000002 0.000000
time 12
  0   0.001233 -0.019532 2.285597 0.000000 0.000000 -1.571829
  1   -1.093036 0.000002 -0.326057 -1.570809 -1.570379 -0.000026
  2   2.262337 0.113614 0.064702 -0.000052 0.000061 -0.217080
  3   2.380047 0.353302 0.047440 -0.269688 -0.015944 -0.058768
  4   2.033756 0.190472 -0.000128 -0.269954 -0.013566 -0.050553
  5   2.451511 0.204909 -0.003447 -0.138715 -0.014327 -0.103532
  6   7.247600 -0.397300 -0.109469 0.000001 0.000009 0.052298
  7   -2.022252 -0.104661 3.136172 1.070165 -1.170888 -4.229592
  8   1.168026 -0.537438 -0.063437 -1.422247 0.248166 -1.225734
  9   6.790376 -0.619176 0.015206 -0.000213 -0.000352 -1.208462
 10   8.637599 0.544015 -0.090417 -3.510885 0.279460 0.732944
 11   6.790465 -0.619039 0.017802 0.001206 -0.011651 -0.861115
 12   -2.022474 -0.104699 -2.873818 0.298873 1.361683 -2.901984
 13   1.167898 -0.537463 0.063297 1.045484 -0.580293 -1.635680
 14   7.002743 -0.617765 -0.183752 0.000229 0.000250 -1.753571
 15   8.209042 0.615527 -0.255885 2.034799 -0.197232 0.869278
 16   7.002735 -0.617911 -0.183641 0.013309 0.009680 -1.246188
 17   1.574674 0.609930 -0.000899 0.524975 -0.030925 0.035401
 18   -0.602177 0.511412 -0.000006 0.000000 0.000000 0.000000
 19   3.673773 0.177020 1.119313 -0.000002 -0.000014 -0.174510
 20   3.673767 0.176993 -1.117566 0.000007 -0.000003 -0.174546
 21   3.942357 1.330634 1.627658 0.000002 -0.000011 -0.000026
 22   -0.246060 -0.011889 0.516521 -0.000011 0.000031 0.000025
 23   3.942374 1.330659 -1.631083 0.000019 0.000002 -0.000024
 24   -0.246150 -0.011872 -0.516511 -0.000005 -0.000006 0.000048
 25   4.941364 1.997338 1.629330 0.000018 -0.000001 -0.000024
 26   4.941382 1.997366 -1.629410 -0.000001 0.000005 -0.000024
 27   2.918368 1.615358 1.514501 -0.000019 -0.000022 -0.000050
 28   2.920798 1.614964 -1.501142 -0.000002 -0.000009 -0.000024
 29   8.824059 0.150544 0.091743 0.000006 -0.000231 -0.174534
 30   2.111085 -0.561179 1.784320 -0.000008 -0.000682 0.000024
 31   2.121290 -0.561289 -1.853599 0.000000 0.000000 -0.000002
 32   -0.810489 -0.093824 3.127092 0.338887 -3.077718 -0.167351
 33   14.298673 -0.408176 0.475484 0.013203 -0.091857 -0.496506
 34   15.835795 0.581398 0.242756 -0.532523 -0.064474 0.362871
 35   -0.815868 -0.091229 -3.114430 -0.002100 2.881638 -0.314968
 36   14.294526 -0.410349 -0.463635 -0.021444 0.095325 -0.575403
 37   15.834409 0.579420 -0.284600 -0.051525 0.043093 0.201376
 38   1.139685 -3.453749 -2.823813 0.000000 0.000000 0.000001
 39   -4.457742 -1.054854 -0.746180 0.000000 0.000000 0.000000
 40   1.118101 -3.449769 3.237290 0.000000 0.000001 0.000000
 41   -4.433840 -1.059130 0.959566 -0.000001 0.000000 0.000000
 42   -0.657468 1.697302 -2.688614 0.000000 0.000002 0.000000
 43   -0.664068 1.698578 2.869377 0.000000 0.000002 0.000000
end
