version 1
nodes
  0 "Bip01" -1
  1 "Bip01 Pelvis" 0
  2 "Bip01 Spine" 1
  3 "Bip01 Spine1" 2
  4 "Bip01 Spine2" 3
  5 "Bip01 Spine3" 4
  6 "Bip01 Neck" 5
  7 "Bip01 L Arm" 6
  8 "Bip01 L Arm1" 7
  9 "Bip01 L Arm2" 8
 10 "Bip01 L Hand" 9
 11 "Bip06 L elbow2-smooth" 8
 12 "Bip01 R Arm" 6
 13 "Bip01 R Arm1" 12
 14 "Bip01 R Arm2" 13
 15 "Bip01 R Hand" 14
 16 "Bip06 R elbow2-smooth" 13
 17 "Bip01 Head" 6
 18 "Bip06 Head_helper" 17
 19 "Bip06 Head_eyes_l" 18
 20 "Bip06 Head_eyes_r" 18
 21 "Bip06 Head_blink_l" 18
 22 "Bip06 Head_blink_smooth_l1" 21
 23 "Bip06 Head_blink_r" 18
 24 "Bip06 Head_blink_smooth_r1" 23
 25 "Bip06 Head_L_eyebrow" 18
 26 "Bip06 Head_R_eyebrow" 18
 27 "Bip06 Head_blink_l_lid" 18
 28 "Bip06 Head_blink_r_lid" 18
 29 "Bip06 bunny" 18
 30 "Bip06 bunnyL" 29
 31 "Bip06 bunnyR" 29
 32 "Bip01 L Leg" 1
 33 "Bip01 L Leg1" 32
 34 "Bip01 L Foot" 33
 35 "Bip01 R Leg" 1
 36 "Bip01 R Leg1" 35
 37 "Bip01 R Foot" 36
 38 "Bip03 HairR1" 17
 39 "Bip03 HairR2" 38
 40 "Bip03 HairL1" 17
 41 "Bip03 HairL2" 40
 42 "Bip03 swingR" 17
 43 "Bip03 swingL" 17
end
skeleton
time 0
  0   0.001233 -0.019532 2.285597 0.000000 0.000000 -1.571829
  1   -1.093036 0.000002 -0.326057 -1.832297 -1.570379 0.261463
  2   2.262337 0.113614 0.064702 -0.000052 0.000061 0.087848
  3   2.380047 0.353302 0.047440 0.000000 -0.000040 0.148287
  4   2.033756 0.190472 -0.000128 -0.000010 0.000024 -0.139576
  5   2.451511 0.204909 -0.003447 0.000000 -0.000005 -0.017472
  6   7.247600 -0.397300 -0.109469 0.000001 0.000009 0.418409
  7   -2.022252 -0.104661 3.136172 -0.298879 -1.361862 -2.901749
  8   1.168026 -0.537438 -0.063437 -1.133372 1.004189 -1.140522
  9   6.790376 -0.619176 0.015206 -0.125542 0.165498 -2.158522
 10   8.637599 0.544015 -0.090417 -1.558576 0.073850 -0.433463
 11   6.790465 -0.619039 0.017802 -0.046209 0.139912 -1.519128
 12   -2.022474 -0.104699 -2.873818 0.298586 1.361712 -2.901984
 13   1.167898 -0.537463 0.063297 1.672438 -0.864815 -1.446993
 14   7.002743 -0.617765 -0.183752 -0.131854 -0.891099 -1.759016
 15   8.209042 0.615527 -0.255885 3.094432 -0.198972 -0.458253
 16   7.002735 -0.617911 -0.183641 -0.279213 -0.604387 -1.160198
 17   1.574674 0.609930 -0.000899 0.226620 0.005948 -0.025807
 18   -0.602177 0.511412 -0.000006 0.000000 0.000000 0.000000
 19   3.673773 0.177020 1.119313 -0.000002 -0.000014 -0.174510
 20   3.673767 0.176993 -1.117566 0.000007 -0.000003 -0.174546
 21   3.942357 1.330634 1.627658 0.000002 -0.000011 -0.000026
 22   -0.246060 -0.011889 0.516521 -0.000011 0.000031 0.000025
 23   3.942374 1.330659 -1.631083 0.000019 0.000002 -0.000024
 24   -0.246150 -0.011872 -0.516511 -0.000005 -0.000006 0.000048
 25   4.941364 1.997338 1.629330 0.000018 -0.000001 -0.000024
 26   4.941382 1.997366 -1.629410 -0.000001 0.000005 -0.000024
 27   2.918368 1.615358 1.514501 -0.000019 -0.000022 -0.000050
 28   2.920798 1.614964 -1.501142 -0.000002 -0.000009 -0.000024
 29   8.824059 0.150544 0.091743 0.000006 -0.000231 -0.174534
 30   2.111085 -0.561179 1.784320 -0.000008 -0.000682 0.000024
 31   2.121290 -0.561289 -1.853599 0.000000 0.000000 -0.000002
 32   -0.810489 -0.093824 3.127092 0.338887 -3.077718 -0.167351
 33   14.298673 -0.408176 0.475484 0.013203 -0.091857 -0.496506
 34   15.835795 0.581398 0.242756 -0.532523 -0.064474 0.362871
 35   -0.815868 -0.091229 -3.114430 -0.002100 2.881638 -0.314968
 36   14.294526 -0.410349 -0.463635 -0.021444 0.095325 -0.575403
 37   15.834409 0.579420 -0.284600 -0.051525 0.043093 0.201376
 38   1.139685 -3.453749 -2.823813 0.000000 0.000000 0.000001
 39   -4.457742 -1.054854 -0.746180 0.000000 0.000000 0.000000
 40   1.118101 -3.449769 3.237290 0.000000 0.000001 0.000000
 41   -4.433840 -1.059130 0.959566 -0.000001 0.000000 0.000000
 42   -0.657468 1.697302 -2.688614 0.000000 0.000002 0.000000
 43   -0.664068 1.698578 2.869377 0.000000 0.000002 0.000000
time 1
  0   0.001233 -0.019532 2.285597 0.000000 0.000000 -1.571829
  1   -1.093036 0.000002 -0.326057 -1.832297 -1.570379 0.261463
  2   2.262337 0.113614 0.064702 -0.017299 0.001535 0.087812
  3   2.380047 0.353302 0.047440 -0.012241 0.001782 0.148287
  4   2.033756 0.190472 -0.000128 -0.017125 -0.002385 -0.139576
  5   2.451511 0.204909 -0.003447 0.000000 -0.000005 -0.017472
  6   7.247600 -0.397300 -0.109469 0.000001 0.000009 0.418409
  7   -2.022252 -0.104661 3.136172 -0.298879 -1.361862 -2.901749
  8   1.168026 -0.537438 -0.063437 -1.133372 1.004189 -1.098264
  9   6.790376 -0.619176 0.015206 -0.125542 0.165498 -2.158522
 10   8.637599 0.544015 -0.090417 -1.558576 0.073850 -0.433463
 11   6.790465 -0.619039 0.017802 -0.046209 0.139912 -1.519128
 12   -2.022474 -0.104699 -2.873818 0.285364 1.365950 -2.915388
 13   1.167898 -0.537463 0.063297 1.614726 -0.905142 -1.392209
 14   7.002743 -0.617765 -0.183752 -0.145404 -0.876562 -1.699035
 15   8.209042 0.615527 -0.255885 2.989453 -0.199880 -0.441836
 16   7.002735 -0.617911 -0.183641 -0.275306 -0.592433 -1.127689
 17   1.574674 0.609930 -0.000899 0.226620 0.005948 -0.025807
 18   -0.602177 0.511412 -0.000006 0.000000 0.000000 0.000000
 19   3.673773 0.177020 1.119313 -0.000002 -0.000014 -0.174510
 20   3.673767 0.176993 -1.117566 0.000007 -0.000003 -0.174546
 21   3.942357 1.330634 1.627658 0.000002 -0.000011 -0.000026
 22   -0.246060 -0.011889 0.516521 -0.000011 0.000031 0.000025
 23   3.942374 1.330659 -1.631083 0.000019 0.000002 -0.000024
 24   -0.246150 -0.011872 -0.516511 -0.000005 -0.000006 0.000048
 25   4.941364 1.997338 1.629330 0.000018 -0.000001 -0.000024
 26   4.941382 1.997366 -1.629410 -0.000001 0.000005 -0.000024
 27   2.918368 1.615358 1.514501 -0.000019 -0.000022 -0.000050
 28   2.920798 1.614964 -1.501142 -0.000002 -0.000009 -0.000024
 29   8.824059 0.150544 0.091743 0.000006 -0.000231 -0.174534
 30   2.111085 -0.561179 1.784320 -0.000008 -0.000682 0.000024
 31   2.121290 -0.561289 -1.853599 0.000000 0.000000 -0.000002
 32   -0.810489 -0.093824 3.127092 0.338887 -3.077718 -0.167351
 33   14.298673 -0.408176 0.475484 0.013203 -0.091857 -0.496506
 34   15.835795 0.581398 0.242756 -0.532523 -0.064474 0.362871
 35   -0.815868 -0.091229 -3.114430 -0.002100 2.881638 -0.314968
 36   14.294526 -0.410349 -0.463635 -0.021444 0.095325 -0.575403
 37   15.834409 0.579420 -0.284600 -0.051525 0.043093 0.201376
 38   1.139685 -3.453749 -2.823813 0.000000 0.000000 0.000001
 39   -4.457742 -1.054854 -0.746180 0.000000 0.000000 0.000000
 40   1.118101 -3.449769 3.237290 0.000000 0.000001 0.000000
 41   -4.433840 -1.059130 0.959566 -0.000001 0.000000 0.000000
 42   -0.657468 1.697302 -2.688614 0.000000 0.000002 0.000000
 43   -0.664068 1.698578 2.869377 0.000000 0.000002 0.000000
time 2
  0   0.001233 -0.019532 2.285597 0.000000 0.000000 -1.571829
  1   -1.093036 0.000002 -0.326057 -1.832297 -1.570379 0.261463
  2   2.262337 0.113614 0.064702 -0.034647 0.003057 0.087812
  3   2.380047 0.353302 0.047440 -0.024617 0.003555 0.148226
  4   2.033756 0.190472 -0.000128 -0.034461 -0.004818 -0.139576
  5   2.451511 0.204909 -0.003447 0.000000 -0.000005 -0.017472
  6   7.247600 -0.397300 -0.109469 0.000001 0.000009 0.418409
  7   -2.022252 -0.104661 3.136172 -0.298879 -1.361862 -2.901749
  8   1.168026 -0.537438 -0.063437 -1.133372 1.004189 -1.055816
  9   6.790376 -0.619176 0.015206 -0.125542 0.165498 -2.158522
 10   8.637599 0.544015 -0.090417 -1.558576 0.073850 -0.433463
 11   6.790465 -0.619039 0.017802 -0.046209 0.139912 -1.519128
 12   -2.022474 -0.104699 -2.873818 0.271951 1.370478 -2.929749
 13   1.167898 -0.537463 0.063297 1.550337 -0.943333 -1.330645
 14   7.002743 -0.617765 -0.183752 -0.157360 -0.861514 -1.640951
 15   8.209042 0.615527 -0.255885 2.884691 -0.199275 -0.425358
 16   7.002735 -0.617911 -0.183641 -0.271022 -0.580535 -1.095788
 17   1.574674 0.609930 -0.000899 0.226620 0.005948 -0.025807
 18   -0.602177 0.511412 -0.000006 0.000000 0.000000 0.000000
 19   3.673773 0.177020 1.119313 -0.000002 -0.000014 -0.174510
 20   3.673767 0.176993 -1.117566 0.000007 -0.000003 -0.174546
 21   3.942357 1.330634 1.627658 0.000002 -0.000011 -0.000026
 22   -0.246060 -0.011889 0.516521 -0.000011 0.000031 0.000025
 23   3.942374 1.330659 -1.631083 0.000019 0.000002 -0.000024
 24   -0.246150 -0.011872 -0.516511 -0.000005 -0.000006 0.000048
 25   4.941364 1.997338 1.629330 0.000018 -0.000001 -0.000024
 26   4.941382 1.997366 -1.629410 -0.000001 0.000005 -0.000024
 27   2.918368 1.615358 1.514501 -0.000019 -0.000022 -0.000050
 28   2.920798 1.614964 -1.501142 -0.000002 -0.000009 -0.000024
 29   8.824059 0.150544 0.091743 0.000006 -0.000231 -0.174534
 30   2.111085 -0.561179 1.784320 -0.000008 -0.000682 0.000024
 31   2.121290 -0.561289 -1.853599 0.000000 0.000000 -0.000002
 32   -0.810489 -0.093824 3.127092 0.338887 -3.077718 -0.167351
 33   14.298673 -0.408176 0.475484 0.013203 -0.091857 -0.496506
 34   15.835795 0.581398 0.242756 -0.532523 -0.064474 0.362871
 35   -0.815868 -0.091229 -3.114430 -0.002100 2.881638 -0.314968
 36   14.294526 -0.410349 -0.463635 -0.021444 0.095325 -0.575403
 37   15.834409 0.579420 -0.284600 -0.051525 0.043093 0.201376
 38   1.139685 -3.453749 -2.823813 0.000000 0.000000 0.000001
 39   -4.457742 -1.054854 -0.746180 0.000000 0.000000 0.000000
 40   1.118101 -3.449769 3.237290 0.000000 0.000001 0.000000
 41   -4.433840 -1.059130 0.959566 -0.000001 0.000000 0.000000
 42   -0.657468 1.697302 -2.688614 0.000000 0.000002 0.000000
 43   -0.664068 1.698578 2.869377 0.000000 0.000002 0.000000
time 3
  0   0.001233 -0.019532 2.285597 0.000000 0.000000 -1.571829
  1   -1.093036 0.000002 -0.326057 -1.832297 -1.570379 0.261463
  2   2.262337 0.113614 0.064702 -0.052110 0.004531 0.087794
  3   2.380047 0.353302 0.047440 -0.036872 0.005485 0.148185
  4   2.033756 0.190472 -0.000128 -0.051723 -0.007239 -0.139431
  5   2.451511 0.204909 -0.003447 0.000000 -0.000005 -0.017472
  6   7.247600 -0.397300 -0.109469 0.000001 0.000009 0.418409
  7   -2.022252 -0.104661 3.136172 -0.298879 -1.361862 -2.901749
  8   1.168026 -0.537438 -0.063437 -1.133372 1.004189 -1.013432
  9   6.790376 -0.619176 0.015206 -0.125542 0.165498 -2.158522
 10   8.637599 0.544015 -0.090417 -1.558576 0.073850 -0.433463
 11   6.790465 -0.619039 0.017802 -0.046209 0.139912 -1.519128
 12   -2.022474 -0.104699 -2.873818 0.257485 1.375005 -2.944589
 13   1.167898 -0.537463 0.063297 1.478285 -0.978930 -1.261333
 14   7.002743 -0.617765 -0.183752 -0.167779 -0.846068 -1.583775
 15   8.209042 0.615527 -0.255885 2.779856 -0.197005 -0.409121
 16   7.002735 -0.617911 -0.183641 -0.266314 -0.568637 -1.063942
 17   1.574674 0.609930 -0.000899 0.226620 0.005948 -0.025807
 18   -0.602177 0.511412 -0.000006 0.000000 0.000000 0.000000
 19   3.673773 0.177020 1.119313 -0.000002 -0.000014 -0.174510
 20   3.673767 0.176993 -1.117566 0.000007 -0.000003 -0.174546
 21   3.942357 1.330634 1.627658 0.000002 -0.000011 -0.000026
 22   -0.246060 -0.011889 0.516521 -0.000011 0.000031 0.000025
 23   3.942374 1.330659 -1.631083 0.000019 0.000002 -0.000024
 24   -0.246150 -0.011872 -0.516511 -0.000005 -0.000006 0.000048
 25   4.941364 1.997338 1.629330 0.000018 -0.000001 -0.000024
 26   4.941382 1.997366 -1.629410 -0.000001 0.000005 -0.000024
 27   2.918368 1.615358 1.514501 -0.000019 -0.000022 -0.000050
 28   2.920798 1.614964 -1.501142 -0.000002 -0.000009 -0.000024
 29   8.824059 0.150544 0.091743 0.000006 -0.000231 -0.174534
 30   2.111085 -0.561179 1.784320 -0.000008 -0.000682 0.000024
 31   2.121290 -0.561289 -1.853599 0.000000 0.000000 -0.000002
 32   -0.810489 -0.093824 3.127092 0.338887 -3.077718 -0.167351
 33   14.298673 -0.408176 0.475484 0.013203 -0.091857 -0.496506
 34   15.835795 0.581398 0.242756 -0.532523 -0.064474 0.362871
 35   -0.815868 -0.091229 -3.114430 -0.002100 2.881638 -0.314968
 36   14.294526 -0.410349 -0.463635 -0.021444 0.095325 -0.575403
 37   15.834409 0.579420 -0.284600 -0.051525 0.043093 0.201376
 38   1.139685 -3.453749 -2.823813 0.000000 0.000000 0.000001
 39   -4.457742 -1.054854 -0.746180 0.000000 0.000000 0.000000
 40   1.118101 -3.449769 3.237290 0.000000 0.000001 0.000000
 41   -4.433840 -1.059130 0.959566 -0.000001 0.000000 0.000000
 42   -0.657468 1.697302 -2.688614 0.000000 0.000002 0.000000
 43   -0.664068 1.698578 2.869377 0.000000 0.000002 0.000000
time 4
  0   0.001233 -0.019532 2.285597 0.000000 0.000000 -1.571829
  1   -1.093036 0.000002 -0.326057 -1.832297 -1.570379 0.261463
  2   2.262337 0.113614 0.064702 -0.069484 0.006065 0.087667
  3   2.380047 0.353302 0.047440 -0.049158 0.007307 0.148083
  4   2.033756 0.190472 -0.000128 -0.069004 -0.009648 -0.139286
  5   2.451511 0.204909 -0.003447 0.000000 -0.000005 -0.017472
  6   7.247600 -0.397300 -0.109469 0.000001 0.000009 0.418409
  7   -2.022252 -0.104661 3.136172 -0.298879 -1.361862 -2.901749
  8   1.168026 -0.537438 -0.063437 -1.133372 1.004189 -0.971174
  9   6.790376 -0.619176 0.015206 -0.125542 0.165498 -2.158522
 10   8.637599 0.544015 -0.090417 -1.558576 0.073850 -0.433463
 11   6.790465 -0.619039 0.017802 -0.046209 0.139912 -1.519128
 12   -2.022474 -0.104699 -2.873818 0.242251 1.379388 -2.959716
 13   1.167898 -0.537463 0.063297 1.397728 -1.011425 -1.183909
 14   7.002743 -0.617765 -0.183752 -0.176603 -0.830225 -1.527671
 15   8.209042 0.615527 -0.255885 2.675166 -0.192995 -0.393245
 16   7.002735 -0.617911 -0.183641 -0.261183 -0.556852 -1.032040
 17   1.574674 0.609930 -0.000899 0.226620 0.005948 -0.025807
 18   -0.602177 0.511412 -0.000006 0.000000 0.000000 0.000000
 19   3.673773 0.177020 1.119313 -0.000002 -0.000014 -0.174510
 20   3.673767 0.176993 -1.117566 0.000007 -0.000003 -0.174546
 21   3.942357 1.330634 1.627658 0.000002 -0.000011 -0.000026
 22   -0.246060 -0.011889 0.516521 -0.000011 0.000031 0.000025
 23   3.942374 1.330659 -1.631083 0.000019 0.000002 -0.000024
 24   -0.246150 -0.011872 -0.516511 -0.000005 -0.000006 0.000048
 25   4.941364 1.997338 1.629330 0.000018 -0.000001 -0.000024
 26   4.941382 1.997366 -1.629410 -0.000001 0.000005 -0.000024
 27   2.918368 1.615358 1.514501 -0.000019 -0.000022 -0.000050
 28   2.920798 1.614964 -1.501142 -0.000002 -0.000009 -0.000024
 29   8.824059 0.150544 0.091743 0.000006 -0.000231 -0.174534
 30   2.111085 -0.561179 1.784320 -0.000008 -0.000682 0.000024
 31   2.121290 -0.561289 -1.853599 0.000000 0.000000 -0.000002
 32   -0.810489 -0.093824 3.127092 0.338887 -3.077718 -0.167351
 33   14.298673 -0.408176 0.475484 0.013203 -0.091857 -0.496506
 34   15.835795 0.581398 0.242756 -0.532523 -0.064474 0.362871
 35   -0.815868 -0.091229 -3.114430 -0.002100 2.881638 -0.314968
 36   14.294526 -0.410349 -0.463635 -0.021444 0.095325 -0.575403
 37   15.834409 0.579420 -0.284600 -0.051525 0.043093 0.201376
 38   1.139685 -3.453749 -2.823813 0.000000 0.000000 0.000001
 39   -4.457742 -1.054854 -0.746180 0.000000 0.000000 0.000000
 40   1.118101 -3.449769 3.237290 0.000000 0.000001 0.000000
 41   -4.433840 -1.059130 0.959566 -0.000001 0.000000 0.000000
 42   -0.657468 1.697302 -2.688614 0.000000 0.000002 0.000000
 43   -0.664068 1.698578 2.869377 0.000000 0.000002 0.000000
time 5
  0   0.001233 -0.019532 2.285597 0.000000 0.000000 -1.571829
  1   -1.093036 0.000002 -0.326057 -1.832297 -1.570379 0.261463
  2   2.262337 0.113614 0.064702 -0.086807 0.007575 0.087541
  3   2.380047 0.353302 0.047440 -0.061474 0.009080 0.147981
  4   2.033756 0.190472 -0.000128 -0.086266 -0.012008 -0.139141
  5   2.451511 0.204909 -0.003447 0.000000 -0.000005 -0.017472
  6   7.247600 -0.397300 -0.109469 0.000001 0.000009 0.418409
  7   -2.022252 -0.104661 3.136172 -0.298879 -1.361862 -2.901749
  8   1.168026 -0.537438 -0.063437 -1.133372 1.004189 -0.928663
  9   6.790376 -0.619176 0.015206 -0.125542 0.165498 -2.158522
 10   8.637599 0.544015 -0.090417 -1.558576 0.073850 -0.433463
 11   6.790465 -0.619039 0.017802 -0.046209 0.139912 -1.519128
 12   -2.022474 -0.104699 -2.873818 0.226443 1.383684 -2.976088
 13   1.167898 -0.537463 0.063297 1.308666 -1.040106 -1.097526
 14   7.002743 -0.617765 -0.183752 -0.184061 -0.814099 -1.472805
 15   8.209042 0.615527 -0.255885 2.570691 -0.187623 -0.377669
 16   7.002735 -0.617911 -0.183641 -0.255770 -0.545067 -1.000415
 17   1.574674 0.609930 -0.000899 0.226620 0.005948 -0.025807
 18   -0.602177 0.511412 -0.000006 0.000000 0.000000 0.000000
 19   3.673773 0.177020 1.119313 -0.000002 -0.000014 -0.174510
 20   3.673767 0.176993 -1.117566 0.000007 -0.000003 -0.174546
 21   3.942357 1.330634 1.627658 0.000002 -0.000011 -0.000026
 22   -0.246060 -0.011889 0.516521 -0.000011 0.000031 0.000025
 23   3.942374 1.330659 -1.631083 0.000019 0.000002 -0.000024
 24   -0.246150 -0.011872 -0.516511 -0.000005 -0.000006 0.000048
 25   4.941364 1.997338 1.629330 0.000018 -0.000001 -0.000024
 26   4.941382 1.997366 -1.629410 -0.000001 0.000005 -0.000024
 27   2.918368 1.615358 1.514501 -0.000019 -0.000022 -0.000050
 28   2.920798 1.614964 -1.501142 -0.000002 -0.000009 -0.000024
 29   8.824059 0.150544 0.091743 0.000006 -0.000231 -0.174534
 30   2.111085 -0.561179 1.784320 -0.000008 -0.000682 0.000024
 31   2.121290 -0.561289 -1.853599 0.000000 0.000000 -0.000002
 32   -0.810489 -0.093824 3.127092 0.338887 -3.077718 -0.167351
 33   14.298673 -0.408176 0.475484 0.013203 -0.091857 -0.496506
 34   15.835795 0.581398 0.242756 -0.532523 -0.064474 0.362871
 35   -0.815868 -0.091229 -3.114430 -0.002100 2.881638 -0.314968
 36   14.294526 -0.410349 -0.463635 -0.021444 0.095325 -0.575403
 37   15.834409 0.579420 -0.284600 -0.051525 0.043093 0.201376
 38   1.139685 -3.453749 -2.823813 0.000000 0.000000 0.000001
 39   -4.457742 -1.054854 -0.746180 0.000000 0.000000 0.000000
 40   1.118101 -3.449769 3.237290 0.000000 0.000001 0.000000
 41   -4.433840 -1.059130 0.959566 -0.000001 0.000000 0.000000
 42   -0.657468 1.697302 -2.688614 0.000000 0.000002 0.000000
 43   -0.664068 1.698578 2.869377 0.000000 0.000002 0.000000
time 6
  0   0.001233 -0.019532 2.285597 0.000000 0.000000 -1.571829
  1   -1.093036 0.000002 -0.326057 -1.832297 -1.570379 0.261463
  2   2.262337 0.113614 0.064702 -0.104232 0.009085 0.087342
  3   2.380047 0.353302 0.047440 -0.073940 0.010986 0.147879
  4   2.033756 0.190472 -0.000128 -0.103602 -0.014429 -0.138887
  5   2.451511 0.204909 -0.003447 0.000000 -0.000005 -0.017472
  6   7.247600 -0.397300 -0.109469 0.000001 0.000009 0.418409
  7   -2.022252 -0.104661 3.136172 -0.298879 -1.361862 -2.901749
  8   1.168026 -0.537438 -0.063437 -1.133372 1.004189 -0.886025
  9   6.790376 -0.619176 0.015206 -0.125542 0.165498 -2.158522
 10   8.637599 0.544015 -0.090417 -1.558576 0.073850 -0.433463
 11   6.790465 -0.619039 0.017802 -0.046209 0.139912 -1.519128
 12   -2.022474 -0.104699 -2.873818 0.209964 1.387950 -2.993034
 13   1.167898 -0.537463 0.063297 1.210394 -1.064515 -1.002002
 14   7.002743 -0.617765 -0.183752 -0.190096 -0.797801 -1.419094
 15   8.209042 0.615527 -0.255885 2.466072 -0.180360 -0.362936
 16   7.002735 -0.617911 -0.183641 -0.250074 -0.533338 -0.969010
 17   1.574674 0.609930 -0.000899 0.226620 0.005948 -0.025807
 18   -0.602177 0.511412 -0.000006 0.000000 0.000000 0.000000
 19   3.673773 0.177020 1.119313 -0.000002 -0.000014 -0.174510
 20   3.673767 0.176993 -1.117566 0.000007 -0.000003 -0.174546
 21   3.942357 1.330634 1.627658 0.000002 -0.000011 -0.000026
 22   -0.246060 -0.011889 0.516521 -0.000011 0.000031 0.000025
 23   3.942374 1.330659 -1.631083 0.000019 0.000002 -0.000024
 24   -0.246150 -0.011872 -0.516511 -0.000005 -0.000006 0.000048
 25   4.941364 1.997338 1.629330 0.000018 -0.000001 -0.000024
 26   4.941382 1.997366 -1.629410 -0.000001 0.000005 -0.000024
 27   2.918368 1.615358 1.514501 -0.000019 -0.000022 -0.000050
 28   2.920798 1.614964 -1.501142 -0.000002 -0.000009 -0.000024
 29   8.824059 0.150544 0.091743 0.000006 -0.000231 -0.174534
 30   2.111085 -0.561179 1.784320 -0.000008 -0.000682 0.000024
 31   2.121290 -0.561289 -1.853599 0.000000 0.000000 -0.000002
 32   -0.810489 -0.093824 3.127092 0.338887 -3.077718 -0.167351
 33   14.298673 -0.408176 0.475484 0.013203 -0.091857 -0.496506
 34   15.835795 0.581398 0.242756 -0.532523 -0.064474 0.362871
 35   -0.815868 -0.091229 -3.114430 -0.002100 2.881638 -0.314968
 36   14.294526 -0.410349 -0.463635 -0.021444 0.095325 -0.575403
 37   15.834409 0.579420 -0.284600 -0.051525 0.043093 0.201376
 38   1.139685 -3.453749 -2.823813 0.000000 0.000000 0.000001
 39   -4.457742 -1.054854 -0.746180 0.000000 0.000000 0.000000
 40   1.118101 -3.449769 3.237290 0.000000 0.000001 0.000000
 41   -4.433840 -1.059130 0.959566 -0.000001 0.000000 0.000000
 42   -0.657468 1.697302 -2.688614 0.000000 0.000002 0.000000
 43   -0.664068 1.698578 2.869377 0.000000 0.000002 0.000000
time 7
  0   0.001233 -0.019532 2.285597 0.000000 0.000000 -1.571829
  1   -1.093036 0.000002 -0.326057 -1.832297 -1.570379 0.261463
  2   2.262337 0.113614 0.064702 -0.121645 0.010583 0.087288
  3   2.380047 0.353302 0.047440 -0.086271 0.012759 0.147736
  4   2.033756 0.190472 -0.000128 -0.120883 -0.016838 -0.138597
  5   2.451511 0.204909 -0.003447 0.000000 -0.000005 -0.017472
  6   7.247600 -0.397300 -0.109469 0.000001 0.000009 0.418409
  7   -2.022252 -0.104661 3.136172 -0.298879 -1.361862 -2.901749
  8   1.168026 -0.537438 -0.063437 -1.133372 1.004189 -0.843767
  9   6.790376 -0.619176 0.015206 -0.125542 0.165498 -2.158522
 10   8.637599 0.544015 -0.090417 -1.558576 0.073850 -0.433463
 11   6.790465 -0.619039 0.017802 -0.046209 0.139912 -1.519128
 12   -2.022474 -0.104699 -2.873818 0.192815 1.392159 -3.010842
 13   1.167898 -0.537463 0.063297 1.103617 -1.083992 -0.898064
 14   7.002743 -0.617765 -0.183752 -0.194879 -0.781164 -1.366373
 15   8.209042 0.615527 -0.255885 2.362244 -0.171886 -0.349104
 16   7.002735 -0.617911 -0.183641 -0.243907 -0.521722 -0.937605
 17   1.574674 0.609930 -0.000899 0.226620 0.005948 -0.025807
 18   -0.602177 0.511412 -0.000006 0.000000 0.000000 0.000000
 19   3.673773 0.177020 1.119313 -0.000002 -0.000014 -0.174510
 20   3.673767 0.176993 -1.117566 0.000007 -0.000003 -0.174546
 21   3.942357 1.330634 1.627658 0.000002 -0.000011 -0.000026
 22   -0.246060 -0.011889 0.516521 -0.000011 0.000031 0.000025
 23   3.942374 1.330659 -1.631083 0.000019 0.000002 -0.000024
 24   -0.246150 -0.011872 -0.516511 -0.000005 -0.000006 0.000048
 25   4.941364 1.997338 1.629330 0.000018 -0.000001 -0.000024
 26   4.941382 1.997366 -1.629410 -0.000001 0.000005 -0.000024
 27   2.918368 1.615358 1.514501 -0.000019 -0.000022 -0.000050
 28   2.920798 1.614964 -1.501142 -0.000002 -0.000009 -0.000024
 29   8.824059 0.150544 0.091743 0.000006 -0.000231 -0.174534
 30   2.111085 -0.561179 1.784320 -0.000008 -0.000682 0.000024
 31   2.121290 -0.561289 -1.853599 0.000000 0.000000 -0.000002
 32   -0.810489 -0.093824 3.127092 0.338887 -3.077718 -0.167351
 33   14.298673 -0.408176 0.475484 0.013203 -0.091857 -0.496506
 34   15.835795 0.581398 0.242756 -0.532523 -0.064474 0.362871
 35   -0.815868 -0.091229 -3.114430 -0.002100 2.881638 -0.314968
 36   14.294526 -0.410349 -0.463635 -0.021444 0.095325 -0.575403
 37   15.834409 0.579420 -0.284600 -0.051525 0.043093 0.201376
 38   1.139685 -3.453749 -2.823813 0.000000 0.000000 0.000001
 39   -4.457742 -1.054854 -0.746180 0.000000 0.000000 0.000000
 40   1.118101 -3.449769 3.237290 0.000000 0.000001 0.000000
 41   -4.433840 -1.059130 0.959566 -0.000001 0.000000 0.000000
 42   -0.657468 1.697302 -2.688614 0.000000 0.000002 0.000000
 43   -0.664068 1.698578 2.869377 0.000000 0.000002 0.000000
time 8
  0   0.001233 -0.019532 2.285597 0.000000 0.000000 -1.571829
  1   -1.093036 0.000002 -0.326057 -1.832297 -1.570379 0.261463
  2   2.262337 0.113614 0.064702 -0.138968 0.012105 0.087035
  3   2.380047 0.353302 0.047440 -0.098557 0.014593 0.147573
  4   2.033756 0.190472 -0.000128 -0.138145 -0.019247 -0.138416
  5   2.451511 0.204909 -0.003447 0.000000 -0.000005 -0.017472
  6   7.247600 -0.397300 -0.109469 0.000001 0.000009 0.418409
  7   -2.022252 -0.104661 3.136172 -0.298879 -1.361862 -2.901749
  8   1.168026 -0.537438 -0.063437 -1.133372 1.004189 -0.801509
  9   6.790376 -0.619176 0.015206 -0.125542 0.165498 -2.158522
 10   8.637599 0.544015 -0.090417 -1.558576 0.073850 -0.433463
 11   6.790465 -0.619039 0.017802 -0.046209 0.139912 -1.519128
 12   -2.022474 -0.104699 -2.873818 0.174228 1.396338 -3.029894
 13   1.167898 -0.537463 0.063297 0.989389 -1.097773 -0.786498
 14   7.002743 -0.617765 -0.183752 -0.198181 -0.764526 -1.314725
 15   8.209042 0.615527 -0.255885 2.258345 -0.161899 -0.336114
 16   7.002735 -0.617911 -0.183641 -0.237410 -0.510332 -0.906587
 17   1.574674 0.609930 -0.000899 0.226620 0.005948 -0.025807
 18   -0.602177 0.511412 -0.000006 0.000000 0.000000 0.000000
 19   3.673773 0.177020 1.119313 -0.000002 -0.000014 -0.174510
 20   3.673767 0.176993 -1.117566 0.000007 -0.000003 -0.174546
 21   3.942357 1.330634 1.627658 0.000002 -0.000011 -0.000026
 22   -0.246060 -0.011889 0.516521 -0.000011 0.000031 0.000025
 23   3.942374 1.330659 -1.631083 0.000019 0.000002 -0.000024
 24   -0.246150 -0.011872 -0.516511 -0.000005 -0.000006 0.000048
 25   4.941364 1.997338 1.629330 0.000018 -0.000001 -0.000024
 26   4.941382 1.997366 -1.629410 -0.000001 0.000005 -0.000024
 27   2.918368 1.615358 1.514501 -0.000019 -0.000022 -0.000050
 28   2.920798 1.614964 -1.501142 -0.000002 -0.000009 -0.000024
 29   8.824059 0.150544 0.091743 0.000006 -0.000231 -0.174534
 30   2.111085 -0.561179 1.784320 -0.000008 -0.000682 0.000024
 31   2.121290 -0.561289 -1.853599 0.000000 0.000000 -0.000002
 32   -0.810489 -0.093824 3.127092 0.338887 -3.077718 -0.167351
 33   14.298673 -0.408176 0.475484 0.013203 -0.091857 -0.496506
 34   15.835795 0.581398 0.242756 -0.532523 -0.064474 0.362871
 35   -0.815868 -0.091229 -3.114430 -0.002100 2.881638 -0.314968
 36   14.294526 -0.410349 -0.463635 -0.021444 0.095325 -0.575403
 37   15.834409 0.579420 -0.284600 -0.051525 0.043093 0.201376
 38   1.139685 -3.453749 -2.823813 0.000000 0.000000 0.000001
 39   -4.457742 -1.054854 -0.746180 0.000000 0.000000 0.000000
 40   1.118101 -3.449769 3.237290 0.000000 0.000001 0.000000
 41   -4.433840 -1.059130 0.959566 -0.000001 0.000000 0.000000
 42   -0.657468 1.697302 -2.688614 0.000000 0.000002 0.000000
 43   -0.664068 1.698578 2.869377 0.000000 0.000002 0.000000
time 9
  0   0.001233 -0.019532 2.285597 0.000000 0.000000 -1.571829
  1   -1.093036 0.000002 -0.326057 -1.832297 -1.570379 0.261463
  2   2.262337 0.113614 0.064702 -0.156392 0.013627 0.086800
  3   2.380047 0.353302 0.047440 -0.110812 0.016499 0.147369
  4   2.033756 0.190472 -0.000128 -0.155481 -0.021656 -0.137981
  5   2.451511 0.204909 -0.003447 0.000000 -0.000005 -0.017472
  6   7.247600 -0.397300 -0.109469 0.000001 0.000009 0.418409
  7   -2.022252 -0.104661 3.136172 -0.298879 -1.361862 -2.901749
  8   1.168026 -0.537438 -0.063437 -1.133372 1.004189 -0.758998
  9   6.790376 -0.619176 0.015206 -0.125542 0.165498 -2.158522
 10   8.637599 0.544015 -0.090417 -1.558576 0.073850 -0.433463
 11   6.790465 -0.619039 0.017802 -0.046209 0.139912 -1.519128
 12   -2.022474 -0.104699 -2.873818 0.155258 1.400459 -3.049521
 13   1.167898 -0.537463 0.063297 0.870171 -1.105706 -0.669969
 14   7.002743 -0.617765 -0.183752 -0.200401 -0.747661 -1.263984
 15   8.209042 0.615527 -0.255885 2.154805 -0.150625 -0.324267
 16   7.002735 -0.617911 -0.183641 -0.230632 -0.498885 -0.875458
 17   1.574674 0.609930 -0.000899 0.226620 0.005948 -0.025807
 18   -0.602177 0.511412 -0.000006 0.000000 0.000000 0.000000
 19   3.673773 0.177020 1.119313 -0.000002 -0.000014 -0.174510
 20   3.673767 0.176993 -1.117566 0.000007 -0.000003 -0.174546
 21   3.942357 1.330634 1.627658 0.000002 -0.000011 -0.000026
 22   -0.246060 -0.011889 0.516521 -0.000011 0.000031 0.000025
 23   3.942374 1.330659 -1.631083 0.000019 0.000002 -0.000024
 24   -0.246150 -0.011872 -0.516511 -0.000005 -0.000006 0.000048
 25   4.941364 1.997338 1.629330 0.000018 -0.000001 -0.000024
 26   4.941382 1.997366 -1.629410 -0.000001 0.000005 -0.000024
 27   2.918368 1.615358 1.514501 -0.000019 -0.000022 -0.000050
 28   2.920798 1.614964 -1.501142 -0.000002 -0.000009 -0.000024
 29   8.824059 0.150544 0.091743 0.000006 -0.000231 -0.174534
 30   2.111085 -0.561179 1.784320 -0.000008 -0.000682 0.000024
 31   2.121290 -0.561289 -1.853599 0.000000 0.000000 -0.000002
 32   -0.810489 -0.093824 3.127092 0.338887 -3.077718 -0.167351
 33   14.298673 -0.408176 0.475484 0.013203 -0.091857 -0.496506
 34   15.835795 0.581398 0.242756 -0.532523 -0.064474 0.362871
 35   -0.815868 -0.091229 -3.114430 -0.002100 2.881638 -0.314968
 36   14.294526 -0.410349 -0.463635 -0.021444 0.095325 -0.575403
 37   15.834409 0.579420 -0.284600 -0.051525 0.043093 0.201376
 38   1.139685 -3.453749 -2.823813 0.000000 0.000000 0.000001
 39   -4.457742 -1.054854 -0.746180 0.000000 0.000000 0.000000
 40   1.118101 -3.449769 3.237290 0.000000 0.000001 0.000000
 41   -4.433840 -1.059130 0.959566 -0.000001 0.000000 0.000000
 42   -0.657468 1.697302 -2.688614 0.000000 0.000002 0.000000
 43   -0.664068 1.698578 2.869377 0.000000 0.000002 0.000000
time 10
  0   0.001233 -0.019532 2.285597 0.000000 0.000000 -1.571829
  1   -1.093036 0.000002 -0.326057 -1.832297 -1.570379 0.261463
  2   2.262337 0.113614 0.064702 -0.173754 0.015137 0.086565
  3   2.380047 0.353302 0.047440 -0.123188 0.018260 0.147124
  4   2.033756 0.190472 -0.000128 -0.172725 -0.024125 -0.137582
  5   2.451511 0.204909 -0.003447 0.000000 -0.000005 -0.017472
  6   7.247600 -0.397300 -0.109469 0.000001 0.000009 0.418409
  7   -2.022252 -0.104661 3.136172 -0.298879 -1.361862 -2.901749
  8   1.168026 -0.537438 -0.063437 -1.133372 1.004189 -0.716677
  9   6.790376 -0.619176 0.015206 -0.125542 0.165498 -2.158522
 10   8.637599 0.544015 -0.090417 -1.558576 0.073850 -0.433463
 11   6.790465 -0.619039 0.017802 -0.046209 0.139912 -1.519128
 12   -2.022474 -0.104699 -2.873818 0.135331 1.404668 -3.069914
 13   1.167898 -0.537463 0.063297 0.748562 -1.106977 -0.551260
 14   7.002743 -0.617765 -0.183752 -0.201369 -0.730796 -1.213573
 15   8.209042 0.615527 -0.255885 2.051912 -0.138369 -0.313924
 16   7.002735 -0.617911 -0.183641 -0.223476 -0.487720 -0.844440
 17   1.574674 0.609930 -0.000899 0.226620 0.005948 -0.025807
 18   -0.602177 0.511412 -0.000006 0.000000 0.000000 0.000000
 19   3.673773 0.177020 1.119313 -0.000002 -0.000014 -0.174510
 20   3.673767 0.176993 -1.117566 0.000007 -0.000003 -0.174546
 21   3.942357 1.330634 1.627658 0.000002 -0.000011 -0.000026
 22   -0.246060 -0.011889 0.516521 -0.000011 0.000031 0.000025
 23   3.942374 1.330659 -1.631083 0.000019 0.000002 -0.000024
 24   -0.246150 -0.011872 -0.516511 -0.000005 -0.000006 0.000048
 25   4.941364 1.997338 1.629330 0.000018 -0.000001 -0.000024
 26   4.941382 1.997366 -1.629410 -0.000001 0.000005 -0.000024
 27   2.918368 1.615358 1.514501 -0.000019 -0.000022 -0.000050
 28   2.920798 1.614964 -1.501142 -0.000002 -0.000009 -0.000024
 29   8.824059 0.150544 0.091743 0.000006 -0.000231 -0.174534
 30   2.111085 -0.561179 1.784320 -0.000008 -0.000682 0.000024
 31   2.121290 -0.561289 -1.853599 0.000000 0.000000 -0.000002
 32   -0.810489 -0.093824 3.127092 0.338887 -3.077718 -0.167351
 33   14.298673 -0.408176 0.475484 0.013203 -0.091857 -0.496506
 34   15.835795 0.581398 0.242756 -0.532523 -0.064474 0.362871
 35   -0.815868 -0.091229 -3.114430 -0.002100 2.881638 -0.314968
 36   14.294526 -0.410349 -0.463635 -0.021444 0.095325 -0.575403
 37   15.834409 0.579420 -0.284600 -0.051525 0.043093 0.201376
 38   1.139685 -3.453749 -2.823813 0.000000 0.000000 0.000001
 39   -4.457742 -1.054854 -0.746180 0.000000 0.000000 0.000000
 40   1.118101 -3.449769 3.237290 0.000000 0.000001 0.000000
 41   -4.433840 -1.059130 0.959566 -0.000001 0.000000 0.000000
 42   -0.657468 1.697302 -2.688614 0.000000 0.000002 0.000000
 43   -0.664068 1.698578 2.869377 0.000000 0.000002 0.000000
time 11
  0   0.001233 -0.019532 2.285597 0.000000 0.000000 -1.571829
  1   -1.093036 0.000002 -0.326057 -1.832297 -1.570379 0.261463
  2   2.262337 0.113614 0.064702 -0.191179 0.016647 0.086294
  3   2.380047 0.353302 0.047440 -0.135534 0.020082 0.146879
  4   2.033756 0.190472 -0.000128 -0.190024 -0.026510 -0.137147
  5   2.451511 0.204909 -0.003447 0.000000 -0.000005 -0.017472
  6   7.247600 -0.397300 -0.109469 0.000001 0.000009 0.418409
  7   -2.022252 -0.104661 3.136172 -0.298879 -1.361862 -2.901749
  8   1.168026 -0.537438 -0.063437 -1.133372 1.004189 -0.674419
  9   6.790376 -0.619176 0.015206 -0.125542 0.165498 -2.158522
 10   8.637599 0.544015 -0.090417 -1.558576 0.073850 -0.433463
 11   6.790465 -0.619039 0.017802 -0.046209 0.139912 -1.519128
 12   -2.022474 -0.104699 -2.873818 0.114157 1.408557 -3.091360
 13   1.167898 -0.537463 0.063297 0.627726 -1.101943 -0.433278
 14   7.002743 -0.617765 -0.183752 -0.201255 -0.713874 -1.164565
 15   8.209042 0.615527 -0.255885 1.949019 -0.124977 -0.304783
 16   7.002735 -0.617911 -0.183641 -0.216086 -0.476499 -0.813642
 17   1.574674 0.609930 -0.000899 0.226620 0.005948 -0.025807
 18   -0.602177 0.511412 -0.000006 0.000000 0.000000 0.000000
 19   3.673773 0.177020 1.119313 -0.000002 -0.000014 -0.174510
 20   3.673767 0.176993 -1.117566 0.000007 -0.000003 -0.174546
 21   3.942357 1.330634 1.627658 0.000002 -0.000011 -0.000026
 22   -0.246060 -0.011889 0.516521 -0.000011 0.000031 0.000025
 23   3.942374 1.330659 -1.631083 0.000019 0.000002 -0.000024
 24   -0.246150 -0.011872 -0.516511 -0.000005 -0.000006 0.000048
 25   4.941364 1.997338 1.629330 0.000018 -0.000001 -0.000024
 26   4.941382 1.997366 -1.629410 -0.000001 0.000005 -0.000024
 27   2.918368 1.615358 1.514501 -0.000019 -0.000022 -0.000050
 28   2.920798 1.614964 -1.501142 -0.000002 -0.000009 -0.000024
 29   8.824059 0.150544 0.091743 0.000006 -0.000231 -0.174534
 30   2.111085 -0.561179 1.784320 -0.000008 -0.000682 0.000024
 31   2.121290 -0.561289 -1.853599 0.000000 0.000000 -0.000002
 32   -0.810489 -0.093824 3.127092 0.338887 -3.077718 -0.167351
 33   14.298673 -0.408176 0.475484 0.013203 -0.091857 -0.496506
 34   15.835795 0.581398 0.242756 -0.532523 -0.064474 0.362871
 35   -0.815868 -0.091229 -3.114430 -0.002100 2.881638 -0.314968
 36   14.294526 -0.410349 -0.463635 -0.021444 0.095325 -0.575403
 37   15.834409 0.579420 -0.284600 -0.051525 0.043093 0.201376
 38   1.139685 -3.453749 -2.823813 0.000000 0.000000 0.000001
 39   -4.457742 -1.054854 -0.746180 0.000000 0.000000 0.000000
 40   1.118101 -3.449769 3.237290 0.000000 0.000001 0.000000
 41   -4.433840 -1.059130 0.959566 -0.000001 0.000000 0.000000
 42   -0.657468 1.697302 -2.688614 0.000000 0.000002 0.000000
 43   -0.664068 1.698578 2.869377 0.000000 0.000002 0.000000
time 12
  0   0.001233 -0.019532 2.285597 0.000000 0.000000 -1.571829
  1   -1.093036 0.000002 -0.326057 -1.832297 -1.570379 0.261463
  2   2.262337 0.113614 0.064702 -0.208604 0.018181 0.085987
  3   2.380047 0.353302 0.047440 -0.147895 0.021976 0.146675
  4   2.033756 0.190472 -0.000128 -0.207360 -0.028883 -0.136640
  5   2.451511 0.204909 -0.003447 0.000000 -0.000005 -0.017472
  6   7.247600 -0.397300 -0.109469 0.000001 0.000009 0.418409
  7   -2.022252 -0.104661 3.136172 -0.298879 -1.361862 -2.901749
  8   1.168026 -0.537438 -0.063437 -1.133372 1.004189 -0.631908
  9   6.790376 -0.619176 0.015206 -0.125542 0.165498 -2.158522
 10   8.637599 0.544015 -0.090417 -1.558576 0.073850 -0.433463
 11   6.790465 -0.619039 0.017802 -0.046209 0.139912 -1.519128
 12   -2.022474 -0.104699 -2.873818 0.092217 1.412533 -3.113955
 13   1.167898 -0.537463 0.063297 0.511108 -1.090705 -0.319291
 14   7.002743 -0.617765 -0.183752 -0.199946 -0.697009 -1.116052
 15   8.209042 0.615527 -0.255885 1.846341 -0.110829 -0.296965
 16   7.002735 -0.617911 -0.183641 -0.208271 -0.465616 -0.782900
 17   1.574674 0.609930 -0.000899 0.226620 0.005948 -0.025807
 18   -0.602177 0.511412 -0.000006 0.000000 0.000000 0.000000
 19   3.673773 0.177020 1.119313 -0.000002 -0.000014 -0.174510
 20   3.673767 0.176993 -1.117566 0.000007 -0.000003 -0.174546
 21   3.942357 1.330634 1.627658 0.000002 -0.000011 -0.000026
 22   -0.246060 -0.011889 0.516521 -0.000011 0.000031 0.000025
 23   3.942374 1.330659 -1.631083 0.000019 0.000002 -0.000024
 24   -0.246150 -0.011872 -0.516511 -0.000005 -0.000006 0.000048
 25   4.941364 1.997338 1.629330 0.000018 -0.000001 -0.000024
 26   4.941382 1.997366 -1.629410 -0.000001 0.000005 -0.000024
 27   2.918368 1.615358 1.514501 -0.000019 -0.000022 -0.000050
 28   2.920798 1.614964 -1.501142 -0.000002 -0.000009 -0.000024
 29   8.824059 0.150544 0.091743 0.000006 -0.000231 -0.174534
 30   2.111085 -0.561179 1.784320 -0.000008 -0.000682 0.000024
 31   2.121290 -0.561289 -1.853599 0.000000 0.000000 -0.000002
 32   -0.810489 -0.093824 3.127092 0.338887 -3.077718 -0.167351
 33   14.298673 -0.408176 0.475484 0.013203 -0.091857 -0.496506
 34   15.835795 0.581398 0.242756 -0.532523 -0.064474 0.362871
 35   -0.815868 -0.091229 -3.114430 -0.002100 2.881638 -0.314968
 36   14.294526 -0.410349 -0.463635 -0.021444 0.095325 -0.575403
 37   15.834409 0.579420 -0.284600 -0.051525 0.043093 0.201376
 38   1.139685 -3.453749 -2.823813 0.000000 0.000000 0.000001
 39   -4.457742 -1.054854 -0.746180 0.000000 0.000000 0.000000
 40   1.118101 -3.449769 3.237290 0.000000 0.000001 0.000000
 41   -4.433840 -1.059130 0.959566 -0.000001 0.000000 0.000000
 42   -0.657468 1.697302 -2.688614 0.000000 0.000002 0.000000
 43   -0.664068 1.698578 2.869377 0.000000 0.000002 0.000000
time 13
  0   0.001233 -0.019532 2.285597 0.000000 0.000000 -1.571829
  1   -1.093036 0.000002 -0.326057 -1.832297 -1.570379 0.261463
  2   2.262337 0.113614 0.064702 -0.225927 0.019679 0.085643
  3   2.380047 0.353302 0.047440 -0.160226 0.023725 0.146369
  4   2.033756 0.190472 -0.000128 -0.224659 -0.031256 -0.136060
  5   2.451511 0.204909 -0.003447 0.000000 -0.000005 -0.017472
  6   7.247600 -0.397300 -0.109469 0.000001 0.000009 0.418409
  7   -2.022252 -0.104661 3.136172 -0.298879 -1.361862 -2.901749
  8   1.168026 -0.537438 -0.063437 -1.133372 1.004189 -0.589397
  9   6.790376 -0.619176 0.015206 -0.125542 0.165498 -2.158522
 10   8.637599 0.544015 -0.090417 -1.558576 0.073850 -0.433463
 11   6.790465 -0.619039 0.017802 -0.046209 0.139912 -1.519128
 12   -2.022474 -0.104699 -2.873818 0.068745 1.416394 -3.137603
 13   1.167898 -0.537463 0.063297 0.400887 -1.073669 -0.211781
 14   7.002743 -0.617765 -0.183752 -0.197668 -0.680144 -1.067786
 15   8.209042 0.615527 -0.255885 1.744239 -0.095848 -0.290891
 16   7.002735 -0.617911 -0.183641 -0.200222 -0.454733 -0.751992
 17   1.574674 0.609930 -0.000899 0.226620 0.005948 -0.025807
 18   -0.602177 0.511412 -0.000006 0.000000 0.000000 0.000000
 19   3.673773 0.177020 1.119313 -0.000002 -0.000014 -0.174510
 20   3.673767 0.176993 -1.117566 0.000007 -0.000003 -0.174546
 21   3.942357 1.330634 1.627658 0.000002 -0.000011 -0.000026
 22   -0.246060 -0.011889 0.516521 -0.000011 0.000031 0.000025
 23   3.942374 1.330659 -1.631083 0.000019 0.000002 -0.000024
 24   -0.246150 -0.011872 -0.516511 -0.000005 -0.000006 0.000048
 25   4.941364 1.997338 1.629330 0.000018 -0.000001 -0.000024
 26   4.941382 1.997366 -1.629410 -0.000001 0.000005 -0.000024
 27   2.918368 1.615358 1.514501 -0.000019 -0.000022 -0.000050
 28   2.920798 1.614964 -1.501142 -0.000002 -0.000009 -0.000024
 29   8.824059 0.150544 0.091743 0.000006 -0.000231 -0.174534
 30   2.111085 -0.561179 1.784320 -0.000008 -0.000682 0.000024
 31   2.121290 -0.561289 -1.853599 0.000000 0.000000 -0.000002
 32   -0.810489 -0.093824 3.127092 0.338887 -3.077718 -0.167351
 33   14.298673 -0.408176 0.475484 0.013203 -0.091857 -0.496506
 34   15.835795 0.581398 0.242756 -0.532523 -0.064474 0.362871
 35   -0.815868 -0.091229 -3.114430 -0.002100 2.881638 -0.314968
 36   14.294526 -0.410349 -0.463635 -0.021444 0.095325 -0.575403
 37   15.834409 0.579420 -0.284600 -0.051525 0.043093 0.201376
 38   1.139685 -3.453749 -2.823813 0.000000 0.000000 0.000001
 39   -4.457742 -1.054854 -0.746180 0.000000 0.000000 0.000000
 40   1.118101 -3.449769 3.237290 0.000000 0.000001 0.000000
 41   -4.433840 -1.059130 0.959566 -0.000001 0.000000 0.000000
 42   -0.657468 1.697302 -2.688614 0.000000 0.000002 0.000000
 43   -0.664068 1.698578 2.869377 0.000000 0.000002 0.000000
time 14
  0   0.001233 -0.019532 2.285597 0.000000 0.000000 -1.571829
  1   -1.093036 0.000002 -0.326057 -1.832297 -1.570379 0.261463
  2   2.262337 0.113614 0.064702 -0.243339 0.021178 0.085246
  3   2.380047 0.353302 0.047440 -0.172617 0.025619 0.146022
  4   2.033756 0.190472 -0.000128 -0.241940 -0.033617 -0.135480
  5   2.451511 0.204909 -0.003447 0.000000 -0.000005 -0.017472
  6   7.247600 -0.397300 -0.109469 0.000001 0.000009 0.418409
  7   -2.022252 -0.104661 3.136172 -0.298879 -1.361862 -2.901749
  8   1.168026 -0.537438 -0.063437 -1.133372 1.004189 -0.547329
  9   6.790376 -0.619176 0.015206 -0.125542 0.165498 -2.158522
 10   8.637599 0.544015 -0.090417 -1.558576 0.073850 -0.433463
 11   6.790465 -0.619039 0.017802 -0.046209 0.139912 -1.519128
 12   -2.022474 -0.104699 -2.873818 0.044122 1.420080 -3.162783
 13   1.167898 -0.537463 0.063297 0.298820 -1.051395 -0.112686
 14   7.002743 -0.617765 -0.183752 -0.194309 -0.663506 -1.020593
 15   8.209042 0.615527 -0.255885 1.642281 -0.080338 -0.286200
 16   7.002735 -0.617911 -0.183641 -0.191842 -0.444132 -0.721360
 17   1.574674 0.609930 -0.000899 0.226620 0.005948 -0.025807
 18   -0.602177 0.511412 -0.000006 0.000000 0.000000 0.000000
 19   3.673773 0.177020 1.119313 -0.000002 -0.000014 -0.174510
 20   3.673767 0.176993 -1.117566 0.000007 -0.000003 -0.174546
 21   3.942357 1.330634 1.627658 0.000002 -0.000011 -0.000026
 22   -0.246060 -0.011889 0.516521 -0.000011 0.000031 0.000025
 23   3.942374 1.330659 -1.631083 0.000019 0.000002 -0.000024
 24   -0.246150 -0.011872 -0.516511 -0.000005 -0.000006 0.000048
 25   4.941364 1.997338 1.629330 0.000018 -0.000001 -0.000024
 26   4.941382 1.997366 -1.629410 -0.000001 0.000005 -0.000024
 27   2.918368 1.615358 1.514501 -0.000019 -0.000022 -0.000050
 28   2.920798 1.614964 -1.501142 -0.000002 -0.000009 -0.000024
 29   8.824059 0.150544 0.091743 0.000006 -0.000231 -0.174534
 30   2.111085 -0.561179 1.784320 -0.000008 -0.000682 0.000024
 31   2.121290 -0.561289 -1.853599 0.000000 0.000000 -0.000002
 32   -0.810489 -0.093824 3.127092 0.338887 -3.077718 -0.167351
 33   14.298673 -0.408176 0.475484 0.013203 -0.091857 -0.496506
 34   15.835795 0.581398 0.242756 -0.532523 -0.064474 0.362871
 35   -0.815868 -0.091229 -3.114430 -0.002100 2.881638 -0.314968
 36   14.294526 -0.410349 -0.463635 -0.021444 0.095325 -0.575403
 37   15.834409 0.579420 -0.284600 -0.051525 0.043093 0.201376
 38   1.139685 -3.453749 -2.823813 0.000000 0.000000 0.000001
 39   -4.457742 -1.054854 -0.746180 0.000000 0.000000 0.000000
 40   1.118101 -3.449769 3.237290 0.000000 0.000001 0.000000
 41   -4.433840 -1.059130 0.959566 -0.000001 0.000000 0.000000
 42   -0.657468 1.697302 -2.688614 0.000000 0.000002 0.000000
 43   -0.664068 1.698578 2.869377 0.000000 0.000002 0.000000
time 15
  0   0.001233 -0.019532 2.285597 0.000000 0.000000 -1.571829
  1   -1.093036 0.000002 -0.326057 -1.832297 -1.570379 0.261463
  2   2.262337 0.113614 0.064702 -0.194669 0.016983 0.086276
  3   2.380047 0.353302 0.047440 -0.137949 0.020514 0.146879
  4   2.033756 0.190472 -0.000128 -0.193528 -0.026917 -0.137111
  5   2.451511 0.204909 -0.003447 0.000000 -0.000005 -0.017472
  6   7.247600 -0.397300 -0.109469 0.000001 0.000009 0.418409
  7   -2.022252 -0.104661 3.136172 -0.298879 -1.361862 -2.901749
  8   1.168026 -0.537438 -0.063437 -1.133372 1.004189 -0.665942
  9   6.790376 -0.619176 0.015206 -0.125542 0.165498 -2.158522
 10   8.637599 0.544015 -0.090417 -1.558576 0.073850 -0.433463
 11   6.790465 -0.619039 0.017802 -0.046209 0.139912 -1.519128
 12   -2.022474 -0.104699 -2.873818 0.109654 1.409370 -3.095860
 13   1.167898 -0.537463 0.063297 0.603967 -1.100214 -0.410093
 14   7.002743 -0.617765 -0.183752 -0.201027 -0.710523 -1.154582
 15   8.209042 0.615527 -0.255885 1.928382 -0.122177 -0.303099
 16   7.002735 -0.617911 -0.183641 -0.214532 -0.474356 -0.807295
 17   1.574674 0.609930 -0.000899 0.226620 0.005948 -0.025807
 18   -0.602177 0.511412 -0.000006 0.000000 0.000000 0.000000
 19   3.673773 0.177020 1.119313 -0.000002 -0.000014 -0.174510
 20   3.673767 0.176993 -1.117566 0.000007 -0.000003 -0.174546
 21   3.942357 1.330634 1.627658 0.000002 -0.000011 -0.000026
 22   -0.246060 -0.011889 0.516521 -0.000011 0.000031 0.000025
 23   3.942374 1.330659 -1.631083 0.000019 0.000002 -0.000024
 24   -0.246150 -0.011872 -0.516511 -0.000005 -0.000006 0.000048
 25   4.941364 1.997338 1.629330 0.000018 -0.000001 -0.000024
 26   4.941382 1.997366 -1.629410 -0.000001 0.000005 -0.000024
 27   2.918368 1.615358 1.514501 -0.000019 -0.000022 -0.000050
 28   2.920798 1.614964 -1.501142 -0.000002 -0.000009 -0.000024
 29   8.824059 0.150544 0.091743 0.000006 -0.000231 -0.174534
 30   2.111085 -0.561179 1.784320 -0.000008 -0.000682 0.000024
 31   2.121290 -0.561289 -1.853599 0.000000 0.000000 -0.000002
 32   -0.810489 -0.093824 3.127092 0.338887 -3.077718 -0.167351
 33   14.298673 -0.408176 0.475484 0.013203 -0.091857 -0.496506
 34   15.835795 0.581398 0.242756 -0.532523 -0.064474 0.362871
 35   -0.815868 -0.091229 -3.114430 -0.002100 2.881638 -0.314968
 36   14.294526 -0.410349 -0.463635 -0.021444 0.095325 -0.575403
 37   15.834409 0.579420 -0.284600 -0.051525 0.043093 0.201376
 38   1.139685 -3.453749 -2.823813 0.000000 0.000000 0.000001
 39   -4.457742 -1.054854 -0.746180 0.000000 0.000000 0.000000
 40   1.118101 -3.449769 3.237290 0.000000 0.000001 0.000000
 41   -4.433840 -1.059130 0.959566 -0.000001 0.000000 0.000000
 42   -0.657468 1.697302 -2.688614 0.000000 0.000002 0.000000
 43   -0.664068 1.698578 2.869377 0.000000 0.000002 0.000000
time 16
  0   0.001233 -0.019532 2.285597 0.000000 0.000000 -1.571829
  1   -1.093036 0.000002 -0.326057 -1.832297 -1.570379 0.261463
  2   2.262337 0.113614 0.064702 -0.145909 0.012740 0.086999
  3   2.380047 0.353302 0.047440 -0.103537 0.015324 0.147471
  4   2.033756 0.190472 -0.000128 -0.145061 -0.020278 -0.138271
  5   2.451511 0.204909 -0.003447 0.000000 -0.000005 -0.017472
  6   7.247600 -0.397300 -0.109469 0.000001 0.000009 0.418409
  7   -2.022252 -0.104661 3.136172 -0.298879 -1.361862 -2.901749
  8   1.168026 -0.537438 -0.063437 -1.133372 1.004189 -0.784492
  9   6.790376 -0.619176 0.015206 -0.125542 0.165498 -2.158522
 10   8.637599 0.544015 -0.090417 -1.558576 0.073850 -0.433463
 11   6.790465 -0.619039 0.017802 -0.046209 0.139912 -1.519128
 12   -2.022474 -0.104699 -2.873818 0.166755 1.398079 -3.037553
 13   1.167898 -0.537463 0.063297 0.942082 -1.101638 -0.740492
 14   7.002743 -0.617765 -0.183752 -0.199148 -0.757711 -1.294181
 15   8.209042 0.615527 -0.255885 2.217072 -0.157662 -0.331424
 16   7.002735 -0.617911 -0.183641 -0.234727 -0.505708 -0.894003
 17   1.574674 0.609930 -0.000899 0.226620 0.005948 -0.025807
 18   -0.602177 0.511412 -0.000006 0.000000 0.000000 0.000000
 19   3.673773 0.177020 1.119313 -0.000002 -0.000014 -0.174510
 20   3.673767 0.176993 -1.117566 0.000007 -0.000003 -0.174546
 21   3.942357 1.330634 1.627658 0.000002 -0.000011 -0.000026
 22   -0.246060 -0.011889 0.516521 -0.000011 0.000031 0.000025
 23   3.942374 1.330659 -1.631083 0.000019 0.000002 -0.000024
 24   -0.246150 -0.011872 -0.516511 -0.000005 -0.000006 0.000048
 25   4.941364 1.997338 1.629330 0.000018 -0.000001 -0.000024
 26   4.941382 1.997366 -1.629410 -0.000001 0.000005 -0.000024
 27   2.918368 1.615358 1.514501 -0.000019 -0.000022 -0.000050
 28   2.920798 1.614964 -1.501142 -0.000002 -0.000009 -0.000024
 29   8.824059 0.150544 0.091743 0.000006 -0.000231 -0.174534
 30   2.111085 -0.561179 1.784320 -0.000008 -0.000682 0.000024
 31   2.121290 -0.561289 -1.853599 0.000000 0.000000 -0.000002
 32   -0.810489 -0.093824 3.127092 0.338887 -3.077718 -0.167351
 33   14.298673 -0.408176 0.475484 0.013203 -0.091857 -0.496506
 34   15.835795 0.581398 0.242756 -0.532523 -0.064474 0.362871
 35   -0.815868 -0.091229 -3.114430 -0.002100 2.881638 -0.314968
 36   14.294526 -0.410349 -0.463635 -0.021444 0.095325 -0.575403
 37   15.834409 0.579420 -0.284600 -0.051525 0.043093 0.201376
 38   1.139685 -3.453749 -2.823813 0.000000 0.000000 0.000001
 39   -4.457742 -1.054854 -0.746180 0.000000 0.000000 0.000000
 40   1.118101 -3.449769 3.237290 0.000000 0.000001 0.000000
 41   -4.433840 -1.059130 0.959566 -0.000001 0.000000 0.000000
 42   -0.657468 1.697302 -2.688614 0.000000 0.000002 0.000000
 43   -0.664068 1.698578 2.869377 0.000000 0.000002 0.000000
time 17
  0   0.001233 -0.019532 2.285597 0.000000 0.000000 -1.571829
  1   -1.093036 0.000002 -0.326057 -1.832297 -1.570379 0.261463
  2   2.262337 0.113614 0.064702 -0.097290 0.008534 0.087505
  3   2.380047 0.353302 0.047440 -0.068960 0.010255 0.147940
  4   2.033756 0.190472 -0.000128 -0.096686 -0.013531 -0.139032
  5   2.451511 0.204909 -0.003447 0.000000 -0.000005 -0.017472
  6   7.247600 -0.397300 -0.109469 0.000001 0.000009 0.418409
  7   -2.022252 -0.104661 3.136172 -0.298879 -1.361862 -2.901749
  8   1.168026 -0.537438 -0.063437 -1.133372 1.004189 -0.903042
  9   6.790376 -0.619176 0.015206 -0.125542 0.165498 -2.158522
 10   8.637599 0.544015 -0.090417 -1.558576 0.073850 -0.433463
 11   6.790465 -0.619039 0.017802 -0.046209 0.139912 -1.519128
 12   -2.022474 -0.104699 -2.873818 0.216862 1.386325 -2.986045
 13   1.167898 -0.537463 0.063297 1.250743 -1.055311 -1.041168
 14   7.002743 -0.617765 -0.183752 -0.187990 -0.804332 -1.440463
 15   8.209042 0.615527 -0.255885 2.507992 -0.183462 -0.368829
 16   7.002735 -0.617911 -0.183641 -0.252380 -0.537962 -0.981594
 17   1.574674 0.609930 -0.000899 0.226620 0.005948 -0.025807
 18   -0.602177 0.511412 -0.000006 0.000000 0.000000 0.000000
 19   3.673773 0.177020 1.119313 -0.000002 -0.000014 -0.174510
 20   3.673767 0.176993 -1.117566 0.000007 -0.000003 -0.174546
 21   3.942357 1.330634 1.627658 0.000002 -0.000011 -0.000026
 22   -0.246060 -0.011889 0.516521 -0.000011 0.000031 0.000025
 23   3.942374 1.330659 -1.631083 0.000019 0.000002 -0.000024
 24   -0.246150 -0.011872 -0.516511 -0.000005 -0.000006 0.000048
 25   4.941364 1.997338 1.629330 0.000018 -0.000001 -0.000024
 26   4.941382 1.997366 -1.629410 -0.000001 0.000005 -0.000024
 27   2.918368 1.615358 1.514501 -0.000019 -0.000022 -0.000050
 28   2.920798 1.614964 -1.501142 -0.000002 -0.000009 -0.000024
 29   8.824059 0.150544 0.091743 0.000006 -0.000231 -0.174534
 30   2.111085 -0.561179 1.784320 -0.000008 -0.000682 0.000024
 31   2.121290 -0.561289 -1.853599 0.000000 0.000000 -0.000002
 32   -0.810489 -0.093824 3.127092 0.338887 -3.077718 -0.167351
 33   14.298673 -0.408176 0.475484 0.013203 -0.091857 -0.496506
 34   15.835795 0.581398 0.242756 -0.532523 -0.064474 0.362871
 35   -0.815868 -0.091229 -3.114430 -0.002100 2.881638 -0.314968
 36   14.294526 -0.410349 -0.463635 -0.021444 0.095325 -0.575403
 37   15.834409 0.579420 -0.284600 -0.051525 0.043093 0.201376
 38   1.139685 -3.453749 -2.823813 0.000000 0.000000 0.000001
 39   -4.457742 -1.054854 -0.746180 0.000000 0.000000 0.000000
 40   1.118101 -3.449769 3.237290 0.000000 0.000001 0.000000
 41   -4.433840 -1.059130 0.959566 -0.000001 0.000000 0.000000
 42   -0.657468 1.697302 -2.688614 0.000000 0.000002 0.000000
 43   -0.664068 1.698578 2.869377 0.000000 0.000002 0.000000
time 18
  0   0.001233 -0.019532 2.285597 0.000000 0.000000 -1.571829
  1   -1.093036 0.000002 -0.326057 -1.832297 -1.570379 0.261463
  2   2.262337 0.113614 0.064702 -0.048569 0.004207 0.087794
  3   2.380047 0.353302 0.047440 -0.034397 0.005029 0.148185
  4   2.033756 0.190472 -0.000128 -0.048256 -0.006687 -0.139576
  5   2.451511 0.204909 -0.003447 0.000000 -0.000005 -0.017472
  6   7.247600 -0.397300 -0.109469 0.000001 0.000009 0.418409
  7   -2.022252 -0.104661 3.136172 -0.298879 -1.361862 -2.901749
  8   1.168026 -0.537438 -0.063437 -1.133372 1.004189 -1.021972
  9   6.790376 -0.619176 0.015206 -0.125542 0.165498 -2.158522
 10   8.637599 0.544015 -0.090417 -1.558576 0.073850 -0.433463
 11   6.790465 -0.619039 0.017802 -0.046209 0.139912 -1.519128
 12   -2.022474 -0.104699 -2.873818 0.260455 1.374019 -2.941238
 13   1.167898 -0.537463 0.063297 1.493188 -0.971963 -1.275982
 14   7.002743 -0.617765 -0.183752 -0.165900 -0.849192 -1.595078
 15   8.209042 0.615527 -0.255885 2.800708 -0.197610 -0.412248
 16   7.002735 -0.617911 -0.183641 -0.267303 -0.570949 -1.070178
 17   1.574674 0.609930 -0.000899 0.226620 0.005948 -0.025807
 18   -0.602177 0.511412 -0.000006 0.000000 0.000000 0.000000
 19   3.673773 0.177020 1.119313 -0.000002 -0.000014 -0.174510
 20   3.673767 0.176993 -1.117566 0.000007 -0.000003 -0.174546
 21   3.942357 1.330634 1.627658 0.000002 -0.000011 -0.000026
 22   -0.246060 -0.011889 0.516521 -0.000011 0.000031 0.000025
 23   3.942374 1.330659 -1.631083 0.000019 0.000002 -0.000024
 24   -0.246150 -0.011872 -0.516511 -0.000005 -0.000006 0.000048
 25   4.941364 1.997338 1.629330 0.000018 -0.000001 -0.000024
 26   4.941382 1.997366 -1.629410 -0.000001 0.000005 -0.000024
 27   2.918368 1.615358 1.514501 -0.000019 -0.000022 -0.000050
 28   2.920798 1.614964 -1.501142 -0.000002 -0.000009 -0.000024
 29   8.824059 0.150544 0.091743 0.000006 -0.000231 -0.174534
 30   2.111085 -0.561179 1.784320 -0.000008 -0.000682 0.000024
 31   2.121290 -0.561289 -1.853599 0.000000 0.000000 -0.000002
 32   -0.810489 -0.093824 3.127092 0.338887 -3.077718 -0.167351
 33   14.298673 -0.408176 0.475484 0.013203 -0.091857 -0.496506
 34   15.835795 0.581398 0.242756 -0.532523 -0.064474 0.362871
 35   -0.815868 -0.091229 -3.114430 -0.002100 2.881638 -0.314968
 36   14.294526 -0.410349 -0.463635 -0.021444 0.095325 -0.575403
 37   15.834409 0.579420 -0.284600 -0.051525 0.043093 0.201376
 38   1.139685 -3.453749 -2.823813 0.000000 0.000000 0.000001
 39   -4.457742 -1.054854 -0.746180 0.000000 0.000000 0.000000
 40   1.118101 -3.449769 3.237290 0.000000 0.000001 0.000000
 41   -4.433840 -1.059130 0.959566 -0.000001 0.000000 0.000000
 42   -0.657468 1.697302 -2.688614 0.000000 0.000002 0.000000
 43   -0.664068 1.698578 2.869377 0.000000 0.000002 0.000000
time 19
  0   0.001233 -0.019532 2.285597 0.000000 0.000000 -1.571829
  1   -1.093036 0.000002 -0.326057 -1.832297 -1.570379 0.261463
  2   2.262337 0.113614 0.064702 -0.000052 0.000061 0.087848
  3   2.380047 0.353302 0.047440 0.000000 -0.000040 0.148287
  4   2.033756 0.190472 -0.000128 -0.000010 0.000024 -0.139576
  5   2.451511 0.204909 -0.003447 0.000000 -0.000005 -0.017472
  6   7.247600 -0.397300 -0.109469 0.000001 0.000009 0.418409
  7   -2.022252 -0.104661 3.136172 -0.298879 -1.361862 -2.901749
  8   1.168026 -0.537438 -0.063437 -1.133372 1.004189 -1.140522
  9   6.790376 -0.619176 0.015206 -0.125542 0.165498 -2.158522
 10   8.637599 0.544015 -0.090417 -1.558576 0.073850 -0.433463
 11   6.790465 -0.619039 0.017802 -0.046209 0.139912 -1.519128
 12   -2.022474 -0.104699 -2.873818 0.298586 1.361712 -2.901984
 13   1.167898 -0.537463 0.063297 1.672438 -0.864815 -1.446993
 14   7.002743 -0.617765 -0.183752 -0.131854 -0.891099 -1.759016
 15   8.209042 0.615527 -0.255885 3.094432 -0.198972 -0.458253
 16   7.002735 -0.617911 -0.183641 -0.279213 -0.604387 -1.160198
 17   1.574674 0.609930 -0.000899 0.226620 0.005948 -0.025807
 18   -0.602177 0.511412 -0.000006 0.000000 0.000000 0.000000
 19   3.673773 0.177020 1.119313 -0.000002 -0.000014 -0.174510
 20   3.673767 0.176993 -1.117566 0.000007 -0.000003 -0.174546
 21   3.942357 1.330634 1.627658 0.000002 -0.000011 -0.000026
 22   -0.246060 -0.011889 0.516521 -0.000011 0.000031 0.000025
 23   3.942374 1.330659 -1.631083 0.000019 0.000002 -0.000024
 24   -0.246150 -0.011872 -0.516511 -0.000005 -0.000006 0.000048
 25   4.941364 1.997338 1.629330 0.000018 -0.000001 -0.000024
 26   4.941382 1.997366 -1.629410 -0.000001 0.000005 -0.000024
 27   2.918368 1.615358 1.514501 -0.000019 -0.000022 -0.000050
 28   2.920798 1.614964 -1.501142 -0.000002 -0.000009 -0.000024
 29   8.824059 0.150544 0.091743 0.000006 -0.000231 -0.174534
 30   2.111085 -0.561179 1.784320 -0.000008 -0.000682 0.000024
 31   2.121290 -0.561289 -1.853599 0.000000 0.000000 -0.000002
 32   -0.810489 -0.093824 3.127092 0.338887 -3.077718 -0.167351
 33   14.298673 -0.408176 0.475484 0.013203 -0.091857 -0.496506
 34   15.835795 0.581398 0.242756 -0.532523 -0.064474 0.362871
 35   -0.815868 -0.091229 -3.114430 -0.002100 2.881638 -0.314968
 36   14.294526 -0.410349 -0.463635 -0.021444 0.095325 -0.575403
 37   15.834409 0.579420 -0.284600 -0.051525 0.043093 0.201376
 38   1.139685 -3.453749 -2.823813 0.000000 0.000000 0.000001
 39   -4.457742 -1.054854 -0.746180 0.000000 0.000000 0.000000
 40   1.118101 -3.449769 3.237290 0.000000 0.000001 0.000000
 41   -4.433840 -1.059130 0.959566 -0.000001 0.000000 0.000000
 42   -0.657468 1.697302 -2.688614 0.000000 0.000002 0.000000
 43   -0.664068 1.698578 2.869377 0.000000 0.000002 0.000000
time 20
  0   0.001233 -0.019532 2.285597 0.000000 0.000000 -1.571829
  1   -1.093036 0.000002 -0.326057 -1.832297 -1.570379 0.261463
  2   2.262337 0.113614 0.064702 -0.000052 0.000061 0.087848
  3   2.380047 0.353302 0.047440 0.000000 -0.000040 0.148287
  4   2.033756 0.190472 -0.000128 -0.000010 0.000024 -0.139576
  5   2.451511 0.204909 -0.003447 0.000000 -0.000005 -0.017472
  6   7.247600 -0.397300 -0.109469 0.000001 0.000009 0.418409
  7   -2.022252 -0.104661 3.136172 -0.298879 -1.361862 -2.901749
  8   1.168026 -0.537438 -0.063437 -1.133372 1.004189 -1.140522
  9   6.790376 -0.619176 0.015206 -0.125542 0.165498 -2.083130
 10   8.637599 0.544015 -0.090417 -1.558576 0.073850 -0.212524
 11   6.790465 -0.619039 0.017802 -0.047932 0.138235 -1.466586
 12   -2.022474 -0.104699 -2.873818 0.298586 1.361712 -2.901984
 13   1.167898 -0.537463 0.063297 1.661823 -0.916787 -1.438639
 14   7.002743 -0.617765 -0.183752 -0.131854 -0.891099 -1.834921
 15   8.209042 0.615527 -0.255885 2.463628 -0.247470 -0.514241
 16   7.002735 -0.617911 -0.183641 -0.290040 -0.603936 -1.207719
 17   1.574674 0.609930 -0.000899 0.226620 0.005948 -0.025807
 18   -0.602177 0.511412 -0.000006 0.000000 0.000000 0.000000
 19   3.673773 0.177020 1.119313 -0.000002 -0.000014 -0.174510
 20   3.673767 0.176993 -1.117566 0.000007 -0.000003 -0.174546
 21   3.942357 1.330634 1.627658 0.000002 -0.000011 -0.000026
 22   -0.246060 -0.011889 0.516521 -0.000011 0.000031 0.000025
 23   3.942374 1.330659 -1.631083 0.000019 0.000002 -0.000024
 24   -0.246150 -0.011872 -0.516511 -0.000005 -0.000006 0.000048
 25   4.941364 1.997338 1.629330 0.000018 -0.000001 -0.000024
 26   4.941382 1.997366 -1.629410 -0.000001 0.000005 -0.000024
 27   2.918368 1.615358 1.514501 -0.000019 -0.000022 -0.000050
 28   2.920798 1.614964 -1.501142 -0.000002 -0.000009 -0.000024
 29   8.824059 0.150544 0.091743 0.000006 -0.000231 -0.174534
 30   2.111085 -0.561179 1.784320 -0.000008 -0.000682 0.000024
 31   2.121290 -0.561289 -1.853599 0.000000 0.000000 -0.000002
 32   -0.810489 -0.093824 3.127092 0.338887 -3.077718 -0.167351
 33   14.298673 -0.408176 0.475484 0.013203 -0.091857 -0.496506
 34   15.835795 0.581398 0.242756 -0.532523 -0.064474 0.362871
 35   -0.815868 -0.091229 -3.114430 -0.002100 2.881638 -0.314968
 36   14.294526 -0.410349 -0.463635 -0.021444 0.095325 -0.575403
 37   15.834409 0.579420 -0.284600 -0.051525 0.043093 0.201376
 38   1.139685 -3.453749 -2.823813 0.000000 0.000000 0.000001
 39   -4.457742 -1.054854 -0.746180 0.000000 0.000000 0.000000
 40   1.118101 -3.449769 3.237290 0.000000 0.000001 0.000000
 41   -4.433840 -1.059130 0.959566 -0.000001 0.000000 0.000000
 42   -0.657468 1.697302 -2.688614 0.000000 0.000002 0.000000
 43   -0.664068 1.698578 2.869377 0.000000 0.000002 0.000000
time 21
  0   0.001233 -0.019532 2.285597 0.000000 0.000000 -1.571829
  1   -1.093036 0.000002 -0.326057 -1.832297 -1.570379 0.261463
  2   2.262337 0.113614 0.064702 -0.000052 0.000061 0.087848
  3   2.380047 0.353302 0.047440 0.000000 -0.000040 0.148287
  4   2.033756 0.190472 -0.000128 -0.000010 0.000024 -0.139576
  5   2.451511 0.204909 -0.003447 0.000000 -0.000005 -0.017472
  6   7.247600 -0.397300 -0.109469 0.000001 0.000009 0.418409
  7   -2.022252 -0.104661 3.136172 -0.298879 -1.361862 -2.901749
  8   1.168026 -0.537438 -0.063437 -1.133372 1.004189 -1.140522
  9   6.790376 -0.619176 0.015206 -0.125542 0.165498 -2.007285
 10   8.637599 0.544015 -0.090417 -1.558576 0.073850 0.007982
 11   6.790465 -0.619039 0.017802 -0.049625 0.136558 -1.413698
 12   -2.022474 -0.104699 -2.873818 0.298586 1.361712 -2.901984
 13   1.167898 -0.537463 0.063297 1.649803 -0.968708 -1.428772
 14   7.002743 -0.617765 -0.183752 -0.131854 -0.891099 -1.910331
 15   8.209042 0.615527 -0.255885 1.824842 -0.318817 -0.529817
 16   7.002735 -0.617911 -0.183641 -0.301008 -0.603654 -1.254964
 17   1.574674 0.609930 -0.000899 0.226620 0.005948 -0.025807
 18   -0.602177 0.511412 -0.000006 0.000000 0.000000 0.000000
 19   3.673773 0.177020 1.119313 -0.000002 -0.000014 -0.174510
 20   3.673767 0.176993 -1.117566 0.000007 -0.000003 -0.174546
 21   3.942357 1.330634 1.627658 0.000002 -0.000011 -0.000026
 22   -0.246060 -0.011889 0.516521 -0.000011 0.000031 0.000025
 23   3.942374 1.330659 -1.631083 0.000019 0.000002 -0.000024
 24   -0.246150 -0.011872 -0.516511 -0.000005 -0.000006 0.000048
 25   4.941364 1.997338 1.629330 0.000018 -0.000001 -0.000024
 26   4.941382 1.997366 -1.629410 -0.000001 0.000005 -0.000024
 27   2.918368 1.615358 1.514501 -0.000019 -0.000022 -0.000050
 28   2.920798 1.614964 -1.501142 -0.000002 -0.000009 -0.000024
 29   8.824059 0.150544 0.091743 0.000006 -0.000231 -0.174534
 30   2.111085 -0.561179 1.784320 -0.000008 -0.000682 0.000024
 31   2.121290 -0.561289 -1.853599 0.000000 0.000000 -0.000002
 32   -0.810489 -0.093824 3.127092 0.338887 -3.077718 -0.167351
 33   14.298673 -0.408176 0.475484 0.013203 -0.091857 -0.496506
 34   15.835795 0.581398 0.242756 -0.532523 -0.064474 0.362871
 35   -0.815868 -0.091229 -3.114430 -0.002100 2.881638 -0.314968
 36   14.294526 -0.410349 -0.463635 -0.021444 0.095325 -0.575403
 37   15.834409 0.579420 -0.284600 -0.051525 0.043093 0.201376
 38   1.139685 -3.453749 -2.823813 0.000000 0.000000 0.000001
 39   -4.457742 -1.054854 -0.746180 0.000000 0.000000 0.000000
 40   1.118101 -3.449769 3.237290 0.000000 0.000001 0.000000
 41   -4.433840 -1.059130 0.959566 -0.000001 0.000000 0.000000
 42   -0.657468 1.697302 -2.688614 0.000000 0.000002 0.000000
 43   -0.664068 1.698578 2.869377 0.000000 0.000002 0.000000
time 22
  0   0.001233 -0.019532 2.285597 0.000000 0.000000 -1.571829
  1   -1.093036 0.000002 -0.326057 -1.832297 -1.570379 0.261463
  2   2.262337 0.113614 0.064702 -0.000052 0.000061 0.087848
  3   2.380047 0.353302 0.047440 0.000000 -0.000040 0.148287
  4   2.033756 0.190472 -0.000128 -0.000010 0.000024 -0.139576
  5   2.451511 0.204909 -0.003447 0.000000 -0.000005 -0.017472
  6   7.247600 -0.397300 -0.109469 0.000001 0.000009 0.418409
  7   -2.022252 -0.104661 3.136172 -0.298879 -1.361862 -2.901749
  8   1.168026 -0.537438 -0.063437 -1.133372 1.004189 -1.140522
  9   6.790376 -0.619176 0.015206 -0.125542 0.165498 -1.931667
 10   8.637599 0.544015 -0.090417 -1.558576 0.073850 0.229066
 11   6.790465 -0.619039 0.017802 -0.051319 0.134938 -1.360868
 12   -2.022474 -0.104699 -2.873818 0.298586 1.361712 -2.901984
 13   1.167898 -0.537463 0.063297 1.635463 -1.020324 -1.416907
 14   7.002743 -0.617765 -0.183752 -0.131854 -0.891099 -1.986236
 15   8.209042 0.615527 -0.255885 1.170885 -0.384943 -0.496801
 16   7.002735 -0.617911 -0.183641 -0.312259 -0.603203 -1.302264
 17   1.574674 0.609930 -0.000899 0.226620 0.005948 -0.025807
 18   -0.602177 0.511412 -0.000006 0.000000 0.000000 0.000000
 19   3.673773 0.177020 1.119313 -0.000002 -0.000014 -0.174510
 20   3.673767 0.176993 -1.117566 0.000007 -0.000003 -0.174546
 21   3.942357 1.330634 1.627658 0.000002 -0.000011 -0.000026
 22   -0.246060 -0.011889 0.516521 -0.000011 0.000031 0.000025
 23   3.942374 1.330659 -1.631083 0.000019 0.000002 -0.000024
 24   -0.246150 -0.011872 -0.516511 -0.000005 -0.000006 0.000048
 25   4.941364 1.997338 1.629330 0.000018 -0.000001 -0.000024
 26   4.941382 1.997366 -1.629410 -0.000001 0.000005 -0.000024
 27   2.918368 1.615358 1.514501 -0.000019 -0.000022 -0.000050
 28   2.920798 1.614964 -1.501142 -0.000002 -0.000009 -0.000024
 29   8.824059 0.150544 0.091743 0.000006 -0.000231 -0.174534
 30   2.111085 -0.561179 1.784320 -0.000008 -0.000682 0.000024
 31   2.121290 -0.561289 -1.853599 0.000000 0.000000 -0.000002
 32   -0.810489 -0.093824 3.127092 0.338887 -3.077718 -0.167351
 33   14.298673 -0.408176 0.475484 0.013203 -0.091857 -0.496506
 34   15.835795 0.581398 0.242756 -0.532523 -0.064474 0.362871
 35   -0.815868 -0.091229 -3.114430 -0.002100 2.881638 -0.314968
 36   14.294526 -0.410349 -0.463635 -0.021444 0.095325 -0.575403
 37   15.834409 0.579420 -0.284600 -0.051525 0.043093 0.201376
 38   1.139685 -3.453749 -2.823813 0.000000 0.000000 0.000001
 39   -4.457742 -1.054854 -0.746180 0.000000 0.000000 0.000000
 40   1.118101 -3.449769 3.237290 0.000000 0.000001 0.000000
 41   -4.433840 -1.059130 0.959566 -0.000001 0.000000 0.000000
 42   -0.657468 1.697302 -2.688614 0.000000 0.000002 0.000000
 43   -0.664068 1.698578 2.869377 0.000000 0.000002 0.000000
time 23
  0   0.001233 -0.019532 2.285597 0.000000 0.000000 -1.571829
  1   -1.093036 0.000002 -0.326057 -1.832297 -1.570379 0.261463
  2   2.262337 0.113614 0.064702 -0.000052 0.000061 0.087848
  3   2.380047 0.353302 0.047440 0.000000 -0.000040 0.148287
  4   2.033756 0.190472 -0.000128 -0.000010 0.000024 -0.139576
  5   2.451511 0.204909 -0.003447 0.000000 -0.000005 -0.017472
  6   7.247600 -0.397300 -0.109469 0.000001 0.000009 0.418409
  7   -2.022252 -0.104661 3.136172 -0.298879 -1.361862 -2.901749
  8   1.168026 -0.537438 -0.063437 -1.133372 1.004189 -1.140522
  9   6.790376 -0.619176 0.015206 -0.125542 0.165498 -1.931667
 10   8.637599 0.544015 -0.090417 -1.558576 0.073850 0.229066
 11   6.790465 -0.619039 0.017802 -0.051319 0.134938 -1.360868
 12   -2.022474 -0.104699 -2.873818 0.298586 1.361712 -2.901984
 13   1.167898 -0.537463 0.063297 1.618733 -1.071991 -1.402500
 14   7.002743 -0.617765 -0.183752 -0.131854 -0.891099 -2.061646
 15   8.209042 0.615527 -0.255885 1.170885 -0.384943 -0.496801
 16   7.002735 -0.617911 -0.183641 -0.323651 -0.602865 -1.349454
 17   1.574674 0.609930 -0.000899 0.226620 0.005948 -0.025807
 18   -0.602177 0.511412 -0.000006 0.000000 0.000000 0.000000
 19   3.673773 0.177020 1.119313 -0.000002 -0.000014 -0.174510
 20   3.673767 0.176993 -1.117566 0.000007 -0.000003 -0.174546
 21   3.942357 1.330634 1.627658 0.000002 -0.000011 -0.000026
 22   -0.246060 -0.011889 0.516521 -0.000011 0.000031 0.000025
 23   3.942374 1.330659 -1.631083 0.000019 0.000002 -0.000024
 24   -0.246150 -0.011872 -0.516511 -0.000005 -0.000006 0.000048
 25   4.941364 1.997338 1.629330 0.000018 -0.000001 -0.000024
 26   4.941382 1.997366 -1.629410 -0.000001 0.000005 -0.000024
 27   2.918368 1.615358 1.514501 -0.000019 -0.000022 -0.000050
 28   2.920798 1.614964 -1.501142 -0.000002 -0.000009 -0.000024
 29   8.824059 0.150544 0.091743 0.000006 -0.000231 -0.174534
 30   2.111085 -0.561179 1.784320 -0.000008 -0.000682 0.000024
 31   2.121290 -0.561289 -1.853599 0.000000 0.000000 -0.000002
 32   -0.810489 -0.093824 3.127092 0.338887 -3.077718 -0.167351
 33   14.298673 -0.408176 0.475484 0.013203 -0.091857 -0.496506
 34   15.835795 0.581398 0.242756 -0.532523 -0.064474 0.362871
 35   -0.815868 -0.091229 -3.114430 -0.002100 2.881638 -0.314968
 36   14.294526 -0.410349 -0.463635 -0.021444 0.095325 -0.575403
 37   15.834409 0.579420 -0.284600 -0.051525 0.043093 0.201376
 38   1.139685 -3.453749 -2.823813 0.000000 0.000000 0.000001
 39   -4.457742 -1.054854 -0.746180 0.000000 0.000000 0.000000
 40   1.118101 -3.449769 3.237290 0.000000 0.000001 0.000000
 41   -4.433840 -1.059130 0.959566 -0.000001 0.000000 0.000000
 42   -0.657468 1.697302 -2.688614 0.000000 0.000002 0.000000
 43   -0.664068 1.698578 2.869377 0.000000 0.000002 0.000000
time 24
  0   0.001233 -0.019532 2.285597 0.000000 0.000000 -1.571829
  1   -1.093036 0.000002 -0.326057 -1.832297 -1.570379 0.261463
  2   2.262337 0.113614 0.064702 -0.000052 0.000061 0.087848
  3   2.380047 0.353302 0.047440 0.000000 -0.000040 0.148287
  4   2.033756 0.190472 -0.000128 -0.000010 0.000024 -0.139576
  5   2.451511 0.204909 -0.003447 0.000000 -0.000005 -0.017472
  6   7.247600 -0.397300 -0.109469 0.000001 0.000009 0.418409
  7   -2.022252 -0.104661 3.136172 -0.298879 -1.361862 -2.901749
  8   1.168026 -0.537438 -0.063437 -1.133372 1.004189 -1.140522
  9   6.790376 -0.619176 0.015206 -0.125542 0.165498 -1.931667
 10   8.637599 0.544015 -0.090417 -1.558576 0.073850 0.229066
 11   6.790465 -0.619039 0.017802 -0.051319 0.134938 -1.360868
 12   -2.022474 -0.104699 -2.873818 0.298586 1.361712 -2.901984
 13   1.167898 -0.537463 0.063297 1.598488 -1.123505 -1.384400
 14   7.002743 -0.617765 -0.183752 -0.131854 -0.891099 -2.137386
 15   8.209042 0.615527 -0.255885 1.170885 -0.384943 -0.496801
 16   7.002735 -0.617911 -0.183641 -0.335326 -0.602639 -1.396533
 17   1.574674 0.609930 -0.000899 0.226620 0.005948 -0.025807
 18   -0.602177 0.511412 -0.000006 0.000000 0.000000 0.000000
 19   3.673773 0.177020 1.119313 -0.000002 -0.000014 -0.174510
 20   3.673767 0.176993 -1.117566 0.000007 -0.000003 -0.174546
 21   3.942357 1.330634 1.627658 0.000002 -0.000011 -0.000026
 22   -0.246060 -0.011889 0.516521 -0.000011 0.000031 0.000025
 23   3.942374 1.330659 -1.631083 0.000019 0.000002 -0.000024
 24   -0.246150 -0.011872 -0.516511 -0.000005 -0.000006 0.000048
 25   4.941364 1.997338 1.629330 0.000018 -0.000001 -0.000024
 26   4.941382 1.997366 -1.629410 -0.000001 0.000005 -0.000024
 27   2.918368 1.615358 1.514501 -0.000019 -0.000022 -0.000050
 28   2.920798 1.614964 -1.501142 -0.000002 -0.000009 -0.000024
 29   8.824059 0.150544 0.091743 0.000006 -0.000231 -0.174534
 30   2.111085 -0.561179 1.784320 -0.000008 -0.000682 0.000024
 31   2.121290 -0.561289 -1.853599 0.000000 0.000000 -0.000002
 32   -0.810489 -0.093824 3.127092 0.338887 -3.077718 -0.167351
 33   14.298673 -0.408176 0.475484 0.013203 -0.091857 -0.496506
 34   15.835795 0.581398 0.242756 -0.532523 -0.064474 0.362871
 35   -0.815868 -0.091229 -3.114430 -0.002100 2.881638 -0.314968
 36   14.294526 -0.410349 -0.463635 -0.021444 0.095325 -0.575403
 37   15.834409 0.579420 -0.284600 -0.051525 0.043093 0.201376
 38   1.139685 -3.453749 -2.823813 0.000000 0.000000 0.000001
 39   -4.457742 -1.054854 -0.746180 0.000000 0.000000 0.000000
 40   1.118101 -3.449769 3.237290 0.000000 0.000001 0.000000
 41   -4.433840 -1.059130 0.959566 -0.000001 0.000000 0.000000
 42   -0.657468 1.697302 -2.688614 0.000000 0.000002 0.000000
 43   -0.664068 1.698578 2.869377 0.000000 0.000002 0.000000
time 25
  0   0.001233 -0.019532 2.285597 0.000000 0.000000 -1.571829
  1   -1.093036 0.000002 -0.326057 -1.832297 -1.570379 0.261463
  2   2.262337 0.113614 0.064702 -0.000052 0.000061 0.087848
  3   2.380047 0.353302 0.047440 0.000000 -0.000040 0.148287
  4   2.033756 0.190472 -0.000128 -0.000010 0.000024 -0.139576
  5   2.451511 0.204909 -0.003447 0.000000 -0.000005 -0.017472
  6   7.247600 -0.397300 -0.109469 0.000001 0.000009 0.418409
  7   -2.022252 -0.104661 3.136172 -0.298879 -1.361862 -2.901749
  8   1.168026 -0.537438 -0.063437 -1.133372 1.004189 -1.140522
  9   6.790376 -0.619176 0.015206 -0.125542 0.165498 -1.931667
 10   8.637599 0.544015 -0.090417 -1.558576 0.073850 0.229066
 11   6.790465 -0.619039 0.017802 -0.051319 0.134938 -1.360868
 12   -2.022474 -0.104699 -2.873818 0.298586 1.361712 -2.901984
 13   1.167898 -0.537463 0.063297 1.573464 -1.175070 -1.361397
 14   7.002743 -0.617765 -0.183752 -0.131854 -0.891099 -2.212796
 15   8.209042 0.615527 -0.255885 1.170885 -0.384943 -0.496801
 16   7.002735 -0.617911 -0.183641 -0.347141 -0.602301 -1.443447
 17   1.574674 0.609930 -0.000899 0.226620 0.005948 -0.025807
 18   -0.602177 0.511412 -0.000006 0.000000 0.000000 0.000000
 19   3.673773 0.177020 1.119313 -0.000002 -0.000014 -0.174510
 20   3.673767 0.176993 -1.117566 0.000007 -0.000003 -0.174546
 21   3.942357 1.330634 1.627658 0.000002 -0.000011 -0.000026
 22   -0.246060 -0.011889 0.516521 -0.000011 0.000031 0.000025
 23   3.942374 1.330659 -1.631083 0.000019 0.000002 -0.000024
 24   -0.246150 -0.011872 -0.516511 -0.000005 -0.000006 0.000048
 25   4.941364 1.997338 1.629330 0.000018 -0.000001 -0.000024
 26   4.941382 1.997366 -1.629410 -0.000001 0.000005 -0.000024
 27   2.918368 1.615358 1.514501 -0.000019 -0.000022 -0.000050
 28   2.920798 1.614964 -1.501142 -0.000002 -0.000009 -0.000024
 29   8.824059 0.150544 0.091743 0.000006 -0.000231 -0.174534
 30   2.111085 -0.561179 1.784320 -0.000008 -0.000682 0.000024
 31   2.121290 -0.561289 -1.853599 0.000000 0.000000 -0.000002
 32   -0.810489 -0.093824 3.127092 0.338887 -3.077718 -0.167351
 33   14.298673 -0.408176 0.475484 0.013203 -0.091857 -0.496506
 34   15.835795 0.581398 0.242756 -0.532523 -0.064474 0.362871
 35   -0.815868 -0.091229 -3.114430 -0.002100 2.881638 -0.314968
 36   14.294526 -0.410349 -0.463635 -0.021444 0.095325 -0.575403
 37   15.834409 0.579420 -0.284600 -0.051525 0.043093 0.201376
 38   1.139685 -3.453749 -2.823813 0.000000 0.000000 0.000001
 39   -4.457742 -1.054854 -0.746180 0.000000 0.000000 0.000000
 40   1.118101 -3.449769 3.237290 0.000000 0.000001 0.000000
 41   -4.433840 -1.059130 0.959566 -0.000001 0.000000 0.000000
 42   -0.657468 1.697302 -2.688614 0.000000 0.000002 0.000000
 43   -0.664068 1.698578 2.869377 0.000000 0.000002 0.000000
time 26
  0   0.001233 -0.019532 2.285597 0.000000 0.000000 -1.571829
  1   -1.093036 0.000002 -0.326057 -1.832297 -1.570379 0.261463
  2   2.262337 0.113614 0.064702 -0.000052 0.000061 0.087848
  3   2.380047 0.353302 0.047440 0.000000 -0.000040 0.148287
  4   2.033756 0.190472 -0.000128 -0.000010 0.000024 -0.139576
  5   2.451511 0.204909 -0.003447 0.000000 -0.000005 -0.017472
  6   7.247600 -0.397300 -0.109469 0.000001 0.000009 0.418409
  7   -2.022252 -0.104661 3.136172 -0.298879 -1.361862 -2.901749
  8   1.168026 -0.537438 -0.063437 -1.133372 1.004189 -1.140522
  9   6.790376 -0.619176 0.015206 -0.125542 0.165498 -1.931667
 10   8.637599 0.544015 -0.090417 -1.558576 0.073850 0.229066
 11   6.790465 -0.619039 0.017802 -0.051319 0.134938 -1.360868
 12   -2.022474 -0.104699 -2.873818 0.298586 1.361712 -2.901984
 13   1.167898 -0.537463 0.063297 1.592865 -1.136371 -1.379194
 14   7.002743 -0.617765 -0.183752 -0.131854 -0.891099 -2.156280
 15   8.209042 0.615527 -0.255885 1.170885 -0.384943 -0.496801
 16   7.002735 -0.617911 -0.183641 -0.338244 -0.602470 -1.408234
 17   1.574674 0.609930 -0.000899 0.226620 0.005948 -0.025807
 18   -0.602177 0.511412 -0.000006 0.000000 0.000000 0.000000
 19   3.673773 0.177020 1.119313 -0.000002 -0.000014 -0.174510
 20   3.673767 0.176993 -1.117566 0.000007 -0.000003 -0.174546
 21   3.942357 1.330634 1.627658 0.000002 -0.000011 -0.000026
 22   -0.246060 -0.011889 0.516521 -0.000011 0.000031 0.000025
 23   3.942374 1.330659 -1.631083 0.000019 0.000002 -0.000024
 24   -0.246150 -0.011872 -0.516511 -0.000005 -0.000006 0.000048
 25   4.941364 1.997338 1.629330 0.000018 -0.000001 -0.000024
 26   4.941382 1.997366 -1.629410 -0.000001 0.000005 -0.000024
 27   2.918368 1.615358 1.514501 -0.000019 -0.000022 -0.000050
 28   2.920798 1.614964 -1.501142 -0.000002 -0.000009 -0.000024
 29   8.824059 0.150544 0.091743 0.000006 -0.000231 -0.174534
 30   2.111085 -0.561179 1.784320 -0.000008 -0.000682 0.000024
 31   2.121290 -0.561289 -1.853599 0.000000 0.000000 -0.000002
 32   -0.810489 -0.093824 3.127092 0.338887 -3.077718 -0.167351
 33   14.298673 -0.408176 0.475484 0.013203 -0.091857 -0.496506
 34   15.835795 0.581398 0.242756 -0.532523 -0.064474 0.362871
 35   -0.815868 -0.091229 -3.114430 -0.002100 2.881638 -0.314968
 36   14.294526 -0.410349 -0.463635 -0.021444 0.095325 -0.575403
 37   15.834409 0.579420 -0.284600 -0.051525 0.043093 0.201376
 38   1.139685 -3.453749 -2.823813 0.000000 0.000000 0.000001
 39   -4.457742 -1.054854 -0.746180 0.000000 0.000000 0.000000
 40   1.118101 -3.449769 3.237290 0.000000 0.000001 0.000000
 41   -4.433840 -1.059130 0.959566 -0.000001 0.000000 0.000000
 42   -0.657468 1.697302 -2.688614 0.000000 0.000002 0.000000
 43   -0.664068 1.698578 2.869377 0.000000 0.000002 0.000000
time 27
  0   0.001233 -0.019532 2.285597 0.000000 0.000000 -1.571829
  1   -1.093036 0.000002 -0.326057 -1.832297 -1.570379 0.261463
  2   2.262337 0.113614 0.064702 -0.000052 0.000061 0.087848
  3   2.380047 0.353302 0.047440 0.000000 -0.000040 0.148287
  4   2.033756 0.190472 -0.000128 -0.000010 0.000024 -0.139576
  5   2.451511 0.204909 -0.003447 0.000000 -0.000005 -0.017472
  6   7.247600 -0.397300 -0.109469 0.000001 0.000009 0.418409
  7   -2.022252 -0.104661 3.136172 -0.298879 -1.361862 -2.901749
  8   1.168026 -0.537438 -0.063437 -1.133372 1.004189 -1.140522
  9   6.790376 -0.619176 0.015206 -0.125542 0.165498 -1.931667
 10   8.637599 0.544015 -0.090417 -1.558576 0.073850 0.229066
 11   6.790465 -0.619039 0.017802 -0.051319 0.134938 -1.360868
 12   -2.022474 -0.104699 -2.873818 0.298586 1.361712 -2.901984
 13   1.167898 -0.537463 0.063297 1.609313 -1.097824 -1.394025
 14   7.002743 -0.617765 -0.183752 -0.131854 -0.891099 -2.099186
 15   8.209042 0.615527 -0.255885 1.170885 -0.384943 -0.496801
 16   7.002735 -0.617911 -0.183641 -0.329441 -0.602752 -1.372966
 17   1.574674 0.609930 -0.000899 0.226620 0.005948 -0.025807
 18   -0.602177 0.511412 -0.000006 0.000000 0.000000 0.000000
 19   3.673773 0.177020 1.119313 -0.000002 -0.000014 -0.174510
 20   3.673767 0.176993 -1.117566 0.000007 -0.000003 -0.174546
 21   3.942357 1.330634 1.627658 0.000002 -0.000011 -0.000026
 22   -0.246060 -0.011889 0.516521 -0.000011 0.000031 0.000025
 23   3.942374 1.330659 -1.631083 0.000019 0.000002 -0.000024
 24   -0.246150 -0.011872 -0.516511 -0.000005 -0.000006 0.000048
 25   4.941364 1.997338 1.629330 0.000018 -0.000001 -0.000024
 26   4.941382 1.997366 -1.629410 -0.000001 0.000005 -0.000024
 27   2.918368 1.615358 1.514501 -0.000019 -0.000022 -0.000050
 28   2.920798 1.614964 -1.501142 -0.000002 -0.000009 -0.000024
 29   8.824059 0.150544 0.091743 0.000006 -0.000231 -0.174534
 30   2.111085 -0.561179 1.784320 -0.000008 -0.000682 0.000024
 31   2.121290 -0.561289 -1.853599 0.000000 0.000000 -0.000002
 32   -0.810489 -0.093824 3.127092 0.338887 -3.077718 -0.167351
 33   14.298673 -0.408176 0.475484 0.013203 -0.091857 -0.496506
 34   15.835795 0.581398 0.242756 -0.532523 -0.064474 0.362871
 35   -0.815868 -0.091229 -3.114430 -0.002100 2.881638 -0.314968
 36   14.294526 -0.410349 -0.463635 -0.021444 0.095325 -0.575403
 37   15.834409 0.579420 -0.284600 -0.051525 0.043093 0.201376
 38   1.139685 -3.453749 -2.823813 0.000000 0.000000 0.000001
 39   -4.457742 -1.054854 -0.746180 0.000000 0.000000 0.000000
 40   1.118101 -3.449769 3.237290 0.000000 0.000001 0.000000
 41   -4.433840 -1.059130 0.959566 -0.000001 0.000000 0.000000
 42   -0.657468 1.697302 -2.688614 0.000000 0.000002 0.000000
 43   -0.664068 1.698578 2.869377 0.000000 0.000002 0.000000
time 28
  0   0.001233 -0.019532 2.285597 0.000000 0.000000 -1.571829
  1   -1.093036 0.000002 -0.326057 -1.832297 -1.570379 0.261463
  2   2.262337 0.113614 0.064702 -0.000052 0.000061 0.087848
  3   2.380047 0.353302 0.047440 0.000000 -0.000040 0.148287
  4   2.033756 0.190472 -0.000128 -0.000010 0.000024 -0.139576
  5   2.451511 0.204909 -0.003447 0.000000 -0.000005 -0.017472
  6   7.247600 -0.397300 -0.109469 0.000001 0.000009 0.418409
  7   -2.022252 -0.104661 3.136172 -0.298879 -1.361862 -2.901749
  8   1.168026 -0.537438 -0.063437 -1.133372 1.004189 -1.140522
  9   6.790376 -0.619176 0.015206 -0.125542 0.165498 -1.931667
 10   8.637599 0.544015 -0.090417 -1.558576 0.073850 0.229066
 11   6.790465 -0.619039 0.017802 -0.051319 0.134938 -1.360868
 12   -2.022474 -0.104699 -2.873818 0.298586 1.361712 -2.901984
 13   1.167898 -0.537463 0.063297 1.623302 -1.059176 -1.406495
 14   7.002743 -0.617765 -0.183752 -0.131854 -0.891099 -2.042670
 15   8.209042 0.615527 -0.255885 1.170885 -0.384943 -0.496801
 16   7.002735 -0.617911 -0.183641 -0.320780 -0.602921 -1.337698
 17   1.574674 0.609930 -0.000899 0.226620 0.005948 -0.025807
 18   -0.602177 0.511412 -0.000006 0.000000 0.000000 0.000000
 19   3.673773 0.177020 1.119313 -0.000002 -0.000014 -0.174510
 20   3.673767 0.176993 -1.117566 0.000007 -0.000003 -0.174546
 21   3.942357 1.330634 1.627658 0.000002 -0.000011 -0.000026
 22   -0.246060 -0.011889 0.516521 -0.000011 0.000031 0.000025
 23   3.942374 1.330659 -1.631083 0.000019 0.000002 -0.000024
 24   -0.246150 -0.011872 -0.516511 -0.000005 -0.000006 0.000048
 25   4.941364 1.997338 1.629330 0.000018 -0.000001 -0.000024
 26   4.941382 1.997366 -1.629410 -0.000001 0.000005 -0.000024
 27   2.918368 1.615358 1.514501 -0.000019 -0.000022 -0.000050
 28   2.920798 1.614964 -1.501142 -0.000002 -0.000009 -0.000024
 29   8.824059 0.150544 0.091743 0.000006 -0.000231 -0.174534
 30   2.111085 -0.561179 1.784320 -0.000008 -0.000682 0.000024
 31   2.121290 -0.561289 -1.853599 0.000000 0.000000 -0.000002
 32   -0.810489 -0.093824 3.127092 0.338887 -3.077718 -0.167351
 33   14.298673 -0.408176 0.475484 0.013203 -0.091857 -0.496506
 34   15.835795 0.581398 0.242756 -0.532523 -0.064474 0.362871
 35   -0.815868 -0.091229 -3.114430 -0.002100 2.881638 -0.314968
 36   14.294526 -0.410349 -0.463635 -0.021444 0.095325 -0.575403
 37   15.834409 0.579420 -0.284600 -0.051525 0.043093 0.201376
 38   1.139685 -3.453749 -2.823813 0.000000 0.000000 0.000001
 39   -4.457742 -1.054854 -0.746180 0.000000 0.000000 0.000000
 40   1.118101 -3.449769 3.237290 0.000000 0.000001 0.000000
 41   -4.433840 -1.059130 0.959566 -0.000001 0.000000 0.000000
 42   -0.657468 1.697302 -2.688614 0.000000 0.000002 0.000000
 43   -0.664068 1.698578 2.869377 0.000000 0.000002 0.000000
time 29
  0   0.001233 -0.019532 2.285597 0.000000 0.000000 -1.571829
  1   -1.093036 0.000002 -0.326057 -1.832297 -1.570379 0.261463
  2   2.262337 0.113614 0.064702 -0.000052 0.000061 0.087848
  3   2.380047 0.353302 0.047440 0.000000 -0.000040 0.148287
  4   2.033756 0.190472 -0.000128 -0.000010 0.000024 -0.139576
  5   2.451511 0.204909 -0.003447 0.000000 -0.000005 -0.017472
  6   7.247600 -0.397300 -0.109469 0.000001 0.000009 0.418409
  7   -2.022252 -0.104661 3.136172 -0.298879 -1.361862 -2.901749
  8   1.168026 -0.537438 -0.063437 -1.133372 1.004189 -1.140522
  9   6.790376 -0.619176 0.015206 -0.125542 0.165498 -2.158522
 10   8.637599 0.544015 -0.090417 -1.558576 0.073850 -0.433463
 11   6.790465 -0.619039 0.017802 -0.046209 0.139912 -1.519128
 12   -2.022474 -0.104699 -2.873818 0.298586 1.361712 -2.901984
 13   1.167898 -0.537463 0.063297 1.672438 -0.864815 -1.446993
 14   7.002743 -0.617765 -0.183752 -0.131854 -0.891099 -1.759016
 15   8.209042 0.615527 -0.255885 3.094432 -0.198972 -0.458253
 16   7.002735 -0.617911 -0.183641 -0.279213 -0.604387 -1.160198
 17   1.574674 0.609930 -0.000899 0.226620 0.005948 -0.025807
 18   -0.602177 0.511412 -0.000006 0.000000 0.000000 0.000000
 19   3.673773 0.177020 1.119313 -0.000002 -0.000014 -0.174510
 20   3.673767 0.176993 -1.117566 0.000007 -0.000003 -0.174546
 21   3.942357 1.330634 1.627658 0.000002 -0.000011 -0.000026
 22   -0.246060 -0.011889 0.516521 -0.000011 0.000031 0.000025
 23   3.942374 1.330659 -1.631083 0.000019 0.000002 -0.000024
 24   -0.246150 -0.011872 -0.516511 -0.000005 -0.000006 0.000048
 25   4.941364 1.997338 1.629330 0.000018 -0.000001 -0.000024
 26   4.941382 1.997366 -1.629410 -0.000001 0.000005 -0.000024
 27   2.918368 1.615358 1.514501 -0.000019 -0.000022 -0.000050
 28   2.920798 1.614964 -1.501142 -0.000002 -0.000009 -0.000024
 29   8.824059 0.150544 0.091743 0.000006 -0.000231 -0.174534
 30   2.111085 -0.561179 1.784320 -0.000008 -0.000682 0.000024
 31   2.121290 -0.561289 -1.853599 0.000000 0.000000 -0.000002
 32   -0.810489 -0.093824 3.127092 0.338887 -3.077718 -0.167351
 33   14.298673 -0.408176 0.475484 0.013203 -0.091857 -0.496506
 34   15.835795 0.581398 0.242756 -0.532523 -0.064474 0.362871
 35   -0.815868 -0.091229 -3.114430 -0.002100 2.881638 -0.314968
 36   14.294526 -0.410349 -0.463635 -0.021444 0.095325 -0.575403
 37   15.834409 0.579420 -0.284600 -0.051525 0.043093 0.201376
 38   1.139685 -3.453749 -2.823813 0.000000 0.000000 0.000001
 39   -4.457742 -1.054854 -0.746180 0.000000 0.000000 0.000000
 40   1.118101 -3.449769 3.237290 0.000000 0.000001 0.000000
 41   -4.433840 -1.059130 0.959566 -0.000001 0.000000 0.000000
 42   -0.657468 1.697302 -2.688614 0.000000 0.000002 0.000000
 43   -0.664068 1.698578 2.869377 0.000000 0.000002 0.000000
end
