version 1
nodes
  0 "Bip01" -1
  1 "Bip01 Pelvis" 0
  2 "Bip01 Spine" 1
  3 "Bip01 Spine1" 2
  4 "Bip01 Spine2" 3
  5 "Bip01 Spine3" 4
  6 "Bip01 Neck" 5
  7 "Bip01 L Arm" 6
  8 "Bip01 L Arm1" 7
  9 "Bip01 L Arm2" 8
 10 "Bip01 L Hand" 9
 11 "Bip06 L elbow2-smooth" 8
 12 "Bip01 R Arm" 6
 13 "Bip01 R Arm1" 12
 14 "Bip01 R Arm2" 13
 15 "Bip01 R Hand" 14
 16 "Bip06 R elbow2-smooth" 13
 17 "Bip01 Head" 6
 18 "Bip06 Head_helper" 17
 19 "Bip06 Head_eyes_l" 18
 20 "Bip06 Head_eyes_r" 18
 21 "Bip06 Head_blink_l" 18
 22 "Bip06 Head_blink_smooth_l1" 21
 23 "Bip06 Head_blink_r" 18
 24 "Bip06 Head_blink_smooth_r1" 23
 25 "Bip06 Head_L_eyebrow" 18
 26 "Bip06 Head_R_eyebrow" 18
 27 "Bip06 Head_blink_l_lid" 18
 28 "Bip06 Head_blink_r_lid" 18
 29 "Bip06 bunny" 18
 30 "Bip06 bunnyL" 29
 31 "Bip06 bunnyR" 29
 32 "Bip01 L Leg" 1
 33 "Bip01 L Leg1" 32
 34 "Bip01 L Foot" 33
 35 "Bip01 R Leg" 1
 36 "Bip01 R Leg1" 35
 37 "Bip01 R Foot" 36
 38 "Bip03 HairR1" 17
 39 "Bip03 HairR2" 38
 40 "Bip03 HairL1" 17
 41 "Bip03 HairL2" 40
 42 "Bip03 swingR" 17
 43 "Bip03 swingL" 17
end
skeleton
time 0
  0   0.001233 0.187506 0.867585 0.000000 0.000000 -1.571449
  1   -1.093036 0.000002 -0.326057 -1.570809 -1.570379 0.000119
  2   2.262337 0.113614 0.064702 -0.000052 0.000061 -0.260847
  3   2.380047 0.353302 0.047440 -0.261678 -0.001922 -0.008489
  4   2.033756 0.190472 -0.000128 -0.000010 0.000024 -0.035003
  5   2.451511 0.204909 -0.003447 0.000000 -0.000005 -0.017472
  6   7.247600 -0.397300 -0.109469 0.000001 0.000009 -0.209345
  7   -2.022252 -0.104661 3.136172 0.897045 -1.256502 -3.804821
  8   1.168026 -0.537438 -0.063437 -0.469876 1.049673 -1.049553
  9   6.790376 -0.619176 0.015206 -0.000213 -0.000352 -2.133165
 10   8.637599 0.544015 -0.090417 -1.068583 -0.402905 -0.134826
 11   6.790465 -0.619039 0.017802 0.005381 -0.011935 -1.508573
 12   -2.022474 -0.104699 -2.873818 -1.158831 1.101687 -4.048005
 13   1.167898 -0.537463 0.063297 -0.331297 -1.036241 0.471233
 14   7.002743 -0.617765 -0.183752 0.000229 0.000250 -2.415017
 15   8.209042 0.615527 -0.255885 1.510555 0.765006 -0.200505
 16   7.002735 -0.617911 -0.183641 0.011991 0.013909 -1.709145
 17   1.574674 0.609930 -0.000899 0.260984 0.017876 0.201947
 18   -0.602177 0.511412 -0.000006 0.000000 0.000000 0.000000
 19   3.673773 0.177020 1.119313 -0.000002 -0.000014 -0.174510
 20   3.673767 0.176993 -1.117566 0.000007 -0.000003 -0.174546
 21   3.942357 1.330634 1.627658 0.000002 -0.000011 -0.000026
 22   -0.246060 -0.011889 0.516521 -0.000011 0.000031 0.000025
 23   3.942374 1.330659 -1.631083 0.000019 0.000002 -0.000024
 24   -0.246150 -0.011872 -0.516511 -0.000005 -0.000006 0.000048
 25   4.941364 1.997338 1.629330 0.000018 -0.000001 -0.000024
 26   4.941382 1.997366 -1.629410 -0.000001 0.000005 -0.000024
 27   2.918368 1.615358 1.514501 -0.000019 -0.000022 -0.000050
 28   2.920798 1.614964 -1.501142 -0.000002 -0.000009 -0.000024
 29   8.824059 0.150544 0.091743 0.000006 -0.000231 -0.174534
 30   2.111085 -0.561179 1.784320 -0.000008 -0.000682 0.000024
 31   2.121290 -0.561289 -1.853599 0.000000 0.000000 -0.000002
 32   -0.810489 -0.093824 3.127092 -0.129583 -2.975432 -0.324172
 33   14.298673 -0.408176 0.475484 -0.000088 -0.000042 -0.436243
 34   15.835795 0.581398 0.242756 0.162134 -0.013934 0.022664
 35   -0.815868 -0.091229 -3.114430 0.096037 3.002497 -0.031283
 36   14.294526 -0.410349 -0.463635 0.000081 0.000060 -0.399441
 37   15.834409 0.579420 -0.284600 -0.088763 0.039970 0.278038
 38   1.139685 -3.453749 -2.823813 0.000000 0.000000 0.000001
 39   -4.457742 -1.054854 -0.746180 0.000000 0.000000 0.000000
 40   1.118101 -3.449769 3.237290 0.000000 0.000001 0.000000
 41   -4.433840 -1.059130 0.959566 -0.000001 0.000000 0.000000
 42   -0.657468 1.697302 -2.688614 0.000000 0.000002 0.000000
 43   -0.664068 1.698578 2.869377 0.000000 0.000002 0.000000
time 1
  0   0.001233 0.187506 0.824615 0.000000 0.000000 -1.571449
  1   -1.093036 0.000002 -0.326057 -1.570809 -1.570379 0.000119
  2   2.262337 0.113614 0.064702 -0.000052 0.000061 -0.260847
  3   2.380047 0.353302 0.047440 -0.261678 -0.001922 -0.008489
  4   2.033756 0.190472 -0.000128 -0.000010 0.000024 -0.032611
  5   2.451511 0.204909 -0.003447 0.000000 -0.000005 -0.017472
  6   7.247600 -0.397300 -0.109469 0.000001 0.000009 -0.209345
  7   -2.022252 -0.104661 3.136172 0.885063 -1.253533 -3.792049
  8   1.168026 -0.537438 -0.063437 -0.462662 1.044994 -1.043860
  9   6.790376 -0.619176 0.015206 -0.000213 -0.000352 -2.133165
 10   8.637599 0.544015 -0.090417 -1.068583 -0.402905 -0.134826
 11   6.790465 -0.619039 0.017802 0.005381 -0.011935 -1.508573
 12   -2.022474 -0.104699 -2.873818 -1.150305 1.099859 -4.038048
 13   1.167898 -0.537463 0.063297 -0.322159 -1.031969 0.463061
 14   7.002743 -0.617765 -0.183752 0.000229 0.000250 -2.415017
 15   8.209042 0.615527 -0.255885 1.510555 0.765006 -0.200505
 16   7.002735 -0.617911 -0.183641 0.011991 0.013909 -1.709145
 17   1.574674 0.609930 -0.000899 0.260984 0.017876 0.199693
 18   -0.602177 0.511412 -0.000006 0.000000 0.000000 0.000000
 19   3.673773 0.177020 1.119313 -0.000002 -0.000014 -0.174510
 20   3.673767 0.176993 -1.117566 0.000007 -0.000003 -0.174546
 21   3.942357 1.330634 1.627658 0.000002 -0.000011 -0.000026
 22   -0.246060 -0.011889 0.516521 -0.000011 0.000031 0.000025
 23   3.942374 1.330659 -1.631083 0.000019 0.000002 -0.000024
 24   -0.246150 -0.011872 -0.516511 -0.000005 -0.000006 0.000048
 25   4.941364 1.997338 1.629330 0.000018 -0.000001 -0.000024
 26   4.941382 1.997366 -1.629410 -0.000001 0.000005 -0.000024
 27   2.918368 1.615358 1.514501 -0.000019 -0.000022 -0.000050
 28   2.920798 1.614964 -1.501142 -0.000002 -0.000009 -0.000024
 29   8.824059 0.150544 0.091743 0.000006 -0.000231 -0.174534
 30   2.111085 -0.561179 1.784320 -0.000008 -0.000682 0.000024
 31   2.121290 -0.561289 -1.853599 0.000000 0.000000 -0.000002
 32   -0.810489 -0.093824 3.127092 -0.128091 -2.974191 -0.331344
 33   14.298673 -0.408176 0.475484 -0.000088 -0.000042 -0.450455
 34   15.835795 0.581398 0.242756 0.162042 -0.014178 0.029544
 35   -0.815868 -0.091229 -3.114430 0.095245 3.001841 -0.038569
 36   14.294526 -0.410349 -0.463635 0.000081 0.000060 -0.414735
 37   15.834409 0.579420 -0.284600 -0.088763 0.040226 0.286049
 38   1.139685 -3.453749 -2.823813 0.000000 0.000000 0.000001
 39   -4.457742 -1.054854 -0.746180 0.000000 0.000000 0.000000
 40   1.118101 -3.449769 3.237290 0.000000 0.000001 0.000000
 41   -4.433840 -1.059130 0.959566 -0.000001 0.000000 0.000000
 42   -0.657468 1.697302 -2.688614 0.000000 0.000002 0.000000
 43   -0.664068 1.698578 2.869377 0.000000 0.000002 0.000000
time 2
  0   0.001233 0.187506 0.766019 0.000000 0.000000 -1.571449
  1   -1.093036 0.000002 -0.326057 -1.570809 -1.570379 0.000119
  2   2.262337 0.113614 0.064702 -0.000052 0.000061 -0.260847
  3   2.380047 0.353302 0.047440 -0.261678 -0.001922 -0.008489
  4   2.033756 0.190472 -0.000128 -0.000010 0.000024 -0.029965
  5   2.451511 0.204909 -0.003447 0.000000 -0.000005 -0.017472
  6   7.247600 -0.397300 -0.109469 0.000001 0.000009 -0.209345
  7   -2.022252 -0.104661 3.136172 0.872410 -1.250045 -3.778995
  8   1.168026 -0.537438 -0.063437 -0.454942 1.039711 -1.037724
  9   6.790376 -0.619176 0.015206 -0.000213 -0.000352 -2.133165
 10   8.637599 0.544015 -0.090417 -1.068583 -0.402905 -0.134826
 11   6.790465 -0.619039 0.017802 0.005381 -0.011935 -1.508573
 12   -2.022474 -0.104699 -2.873818 -1.140341 1.097450 -4.026750
 13   1.167898 -0.537463 0.063297 -0.312528 -1.027037 0.453920
 14   7.002743 -0.617765 -0.183752 0.000229 0.000250 -2.415017
 15   8.209042 0.615527 -0.255885 1.510555 0.765006 -0.200505
 16   7.002735 -0.617911 -0.183641 0.011944 0.013909 -1.709145
 17   1.574674 0.609930 -0.000899 0.260984 0.017876 0.196957
 18   -0.602177 0.511412 -0.000006 0.000000 0.000000 0.000000
 19   3.673773 0.177020 1.119313 -0.000002 -0.000014 -0.174510
 20   3.673767 0.176993 -1.117566 0.000007 -0.000003 -0.174546
 21   3.942357 1.330634 1.627658 0.000002 -0.000011 -0.000026
 22   -0.246060 -0.011889 0.516521 -0.000011 0.000031 0.000025
 23   3.942374 1.330659 -1.631083 0.000019 0.000002 -0.000024
 24   -0.246150 -0.011872 -0.516511 -0.000005 -0.000006 0.000048
 25   4.941364 1.997338 1.629330 0.000018 -0.000001 -0.000024
 26   4.941382 1.997366 -1.629410 -0.000001 0.000005 -0.000024
 27   2.918368 1.615358 1.514501 -0.000019 -0.000022 -0.000050
 28   2.920798 1.614964 -1.501142 -0.000002 -0.000009 -0.000024
 29   8.824059 0.150544 0.091743 0.000006 -0.000231 -0.174534
 30   2.111085 -0.561179 1.784320 -0.000008 -0.000682 0.000024
 31   2.121290 -0.561289 -1.853599 0.000000 0.000000 -0.000002
 32   -0.810489 -0.093824 3.127092 -0.127066 -2.972949 -0.339085
 33   14.298673 -0.408176 0.475484 -0.000088 -0.000042 -0.465382
 34   15.835795 0.581398 0.242756 0.161973 -0.014398 0.036865
 35   -0.815868 -0.091229 -3.114430 0.093748 3.000904 -0.046237
 36   14.294526 -0.410349 -0.463635 0.000081 0.000060 -0.430570
 37   15.834409 0.579420 -0.284600 -0.088684 0.040431 0.294364
 38   1.139685 -3.453749 -2.823813 0.000000 0.000000 0.000001
 39   -4.457742 -1.054854 -0.746180 0.000000 0.000000 0.000000
 40   1.118101 -3.449769 3.237290 0.000000 0.000001 0.000000
 41   -4.433840 -1.059130 0.959566 -0.000001 0.000000 0.000000
 42   -0.657468 1.697302 -2.688614 0.000000 0.000002 0.000000
 43   -0.664068 1.698578 2.869377 0.000000 0.000002 0.000000
time 3
  0   0.001233 0.187506 0.699611 0.000000 0.000000 -1.571449
  1   -1.093036 0.000002 -0.326057 -1.570809 -1.570379 0.000022
  2   2.262337 0.113614 0.064702 -0.000052 0.000061 -0.260847
  3   2.380047 0.353302 0.047440 -0.261678 -0.001922 -0.008489
  4   2.033756 0.190472 -0.000128 -0.000010 0.000024 -0.027174
  5   2.451511 0.204909 -0.003447 0.000000 -0.000005 -0.017472
  6   7.247600 -0.397300 -0.109469 0.000001 0.000009 -0.209345
  7   -2.022252 -0.104661 3.136172 0.859469 -1.246182 -3.765471
  8   1.168026 -0.537438 -0.063437 -0.446399 1.034277 -1.031208
  9   6.790376 -0.619176 0.015206 -0.000213 -0.000352 -2.133165
 10   8.637599 0.544015 -0.090417 -1.068583 -0.402905 -0.134826
 11   6.790465 -0.619039 0.017802 0.005381 -0.011935 -1.508573
 12   -2.022474 -0.104699 -2.873818 -1.130185 1.095041 -4.015740
 13   1.167898 -0.537463 0.063297 -0.301914 -1.022053 0.444658
 14   7.002743 -0.617765 -0.183752 0.000229 0.000250 -2.415017
 15   8.209042 0.615527 -0.255885 1.510555 0.765006 -0.200505
 16   7.002735 -0.617911 -0.183641 0.011944 0.013909 -1.709145
 17   1.574674 0.609930 -0.000899 0.260984 0.017876 0.194001
 18   -0.602177 0.511412 -0.000006 0.000000 0.000000 0.000000
 19   3.673773 0.177020 1.119313 -0.000002 -0.000014 -0.174510
 20   3.673767 0.176993 -1.117566 0.000007 -0.000003 -0.174546
 21   3.942357 1.330634 1.627658 0.000002 -0.000011 -0.000026
 22   -0.246060 -0.011889 0.516521 -0.000011 0.000031 0.000025
 23   3.942374 1.330659 -1.631083 0.000019 0.000002 -0.000024
 24   -0.246150 -0.011872 -0.516511 -0.000005 -0.000006 0.000048
 25   4.941364 1.997338 1.629330 0.000018 -0.000001 -0.000024
 26   4.941382 1.997366 -1.629410 -0.000001 0.000005 -0.000024
 27   2.918368 1.615358 1.514501 -0.000019 -0.000022 -0.000050
 28   2.920798 1.614964 -1.501142 -0.000002 -0.000009 -0.000024
 29   8.824059 0.150544 0.091743 0.000006 -0.000231 -0.174534
 30   2.111085 -0.561179 1.784320 -0.000008 -0.000682 0.000024
 31   2.121290 -0.561289 -1.853599 0.000000 0.000000 -0.000002
 32   -0.810489 -0.093824 3.127092 -0.125575 -2.972090 -0.346884
 33   14.298673 -0.408176 0.475484 -0.000088 -0.000042 -0.480706
 34   15.835795 0.581398 0.242756 0.161927 -0.014642 0.044450
 35   -0.815868 -0.091229 -3.114430 0.092428 2.999686 -0.053906
 36   14.294526 -0.410349 -0.463635 0.000081 0.000060 -0.446946
 37   15.834409 0.579420 -0.284600 -0.088684 0.040687 0.302730
 38   1.139685 -3.453749 -2.823813 0.000000 0.000000 0.000001
 39   -4.457742 -1.054854 -0.746180 0.000000 0.000000 0.000000
 40   1.118101 -3.449769 3.237290 0.000000 0.000001 0.000000
 41   -4.433840 -1.059130 0.959566 -0.000001 0.000000 0.000000
 42   -0.657468 1.697302 -2.688614 0.000000 0.000002 0.000000
 43   -0.664068 1.698578 2.869377 0.000000 0.000002 0.000000
time 4
  0   0.001233 0.187506 0.637109 0.000000 0.000000 -1.571449
  1   -1.093036 0.000002 -0.326057 -1.570809 -1.570379 0.000022
  2   2.262337 0.113614 0.064702 -0.000052 0.000061 -0.260847
  3   2.380047 0.353302 0.047440 -0.261678 -0.001922 -0.008489
  4   2.033756 0.190472 -0.000128 -0.000010 0.000024 -0.024093
  5   2.451511 0.204909 -0.003447 0.000000 -0.000005 -0.017472
  6   7.247600 -0.397300 -0.109469 0.000001 0.000009 -0.209345
  7   -2.022252 -0.104661 3.136172 0.845570 -1.242262 -3.751196
  8   1.168026 -0.537438 -0.063437 -0.438046 1.028189 -1.024629
  9   6.790376 -0.619176 0.015206 -0.000213 -0.000352 -2.133165
 10   8.637599 0.544015 -0.090417 -1.068583 -0.402905 -0.134826
 11   6.790465 -0.619039 0.017802 0.005381 -0.011935 -1.508573
 12   -2.022474 -0.104699 -2.873818 -1.119455 1.092574 -4.003677
 13   1.167898 -0.537463 0.063297 -0.291510 -1.016459 0.434912
 14   7.002743 -0.617765 -0.183752 0.000229 0.000250 -2.415017
 15   8.209042 0.615527 -0.255885 1.510555 0.765006 -0.200505
 16   7.002735 -0.617911 -0.183641 0.011944 0.013909 -1.709145
 17   1.574674 0.609930 -0.000899 0.260984 0.017876 0.190896
 18   -0.602177 0.511412 -0.000006 0.000000 0.000000 0.000000
 19   3.673773 0.177020 1.119313 -0.000002 -0.000014 -0.174510
 20   3.673767 0.176993 -1.117566 0.000007 -0.000003 -0.174546
 21   3.942357 1.330634 1.627658 0.000002 -0.000011 -0.000026
 22   -0.246060 -0.011889 0.516521 -0.000011 0.000031 0.000025
 23   3.942374 1.330659 -1.631083 0.000019 0.000002 -0.000024
 24   -0.246150 -0.011872 -0.516511 -0.000005 -0.000006 0.000048
 25   4.941364 1.997338 1.629330 0.000018 -0.000001 -0.000024
 26   4.941382 1.997366 -1.629410 -0.000001 0.000005 -0.000024
 27   2.918368 1.615358 1.514501 -0.000019 -0.000022 -0.000050
 28   2.920798 1.614964 -1.501142 -0.000002 -0.000009 -0.000024
 29   8.824059 0.150544 0.091743 0.000006 -0.000231 -0.174534
 30   2.111085 -0.561179 1.784320 -0.000008 -0.000682 0.000024
 31   2.121290 -0.561289 -1.853599 0.000000 0.000000 -0.000002
 32   -0.810489 -0.093824 3.127092 -0.124083 -2.970943 -0.354284
 33   14.298673 -0.408176 0.475484 -0.000088 -0.000042 -0.495474
 34   15.835795 0.581398 0.242756 0.161858 -0.014886 0.051683
 35   -0.815868 -0.091229 -3.114430 0.091636 2.998749 -0.061574
 36   14.294526 -0.410349 -0.463635 0.000081 0.000060 -0.462781
 37   15.834409 0.579420 -0.284600 -0.088684 0.040943 0.311045
 38   1.139685 -3.453749 -2.823813 0.000000 0.000000 0.000001
 39   -4.457742 -1.054854 -0.746180 0.000000 0.000000 0.000000
 40   1.118101 -3.449769 3.237290 0.000000 0.000001 0.000000
 41   -4.433840 -1.059130 0.959566 -0.000001 0.000000 0.000000
 42   -0.657468 1.697302 -2.688614 0.000000 0.000002 0.000000
 43   -0.664068 1.698578 2.869377 0.000000 0.000002 0.000000
time 5
  0   0.001233 0.187506 0.562888 0.000000 0.000000 -1.571449
  1   -1.093036 0.000002 -0.326057 -1.570809 -1.570379 0.000022
  2   2.262337 0.113614 0.064702 -0.000052 0.000061 -0.260847
  3   2.380047 0.353302 0.047440 -0.261678 -0.001922 -0.008489
  4   2.033756 0.190472 -0.000128 -0.000010 0.000024 -0.020867
  5   2.451511 0.204909 -0.003447 0.000000 -0.000005 -0.017472
  6   7.247600 -0.397300 -0.109469 0.000001 0.000009 -0.209345
  7   -2.022252 -0.104661 3.136172 0.832245 -1.238111 -3.737015
  8   1.168026 -0.537438 -0.063437 -0.429820 1.021950 -1.017986
  9   6.790376 -0.619176 0.015206 -0.000213 -0.000352 -2.133165
 10   8.637599 0.544015 -0.090417 -1.068583 -0.402905 -0.134826
 11   6.790465 -0.619039 0.017802 0.005381 -0.011935 -1.508573
 12   -2.022474 -0.104699 -2.873818 -1.108724 1.089845 -3.991805
 13   1.167898 -0.537463 0.063297 -0.280685 -1.010814 0.425408
 14   7.002743 -0.617765 -0.183752 0.000229 0.000250 -2.415017
 15   8.209042 0.615527 -0.255885 1.510555 0.765006 -0.200505
 16   7.002735 -0.617911 -0.183641 0.011944 0.013909 -1.709145
 17   1.574674 0.609930 -0.000899 0.260984 0.017876 0.187902
 18   -0.602177 0.511412 -0.000006 0.000000 0.000000 0.000000
 19   3.673773 0.177020 1.119313 -0.000002 -0.000014 -0.174510
 20   3.673767 0.176993 -1.117566 0.000007 -0.000003 -0.174546
 21   3.942357 1.330634 1.627658 0.000002 -0.000011 -0.000026
 22   -0.246060 -0.011889 0.516521 -0.000011 0.000031 0.000025
 23   3.942374 1.330659 -1.631083 0.000019 0.000002 -0.000024
 24   -0.246150 -0.011872 -0.516511 -0.000005 -0.000006 0.000048
 25   4.941364 1.997338 1.629330 0.000018 -0.000001 -0.000024
 26   4.941382 1.997366 -1.629410 -0.000001 0.000005 -0.000024
 27   2.918368 1.615358 1.514501 -0.000019 -0.000022 -0.000050
 28   2.920798 1.614964 -1.501142 -0.000002 -0.000009 -0.000024
 29   8.824059 0.150544 0.091743 0.000006 -0.000231 -0.174534
 30   2.111085 -0.561179 1.784320 -0.000008 -0.000682 0.000024
 31   2.121290 -0.561289 -1.853599 0.000000 0.000000 -0.000002
 32   -0.810489 -0.093824 3.127092 -0.122592 -2.969606 -0.361627
 33   14.298673 -0.408176 0.475484 -0.000088 -0.000042 -0.509448
 34   15.835795 0.581398 0.242756 0.161743 -0.015081 0.058519
 35   -0.815868 -0.091229 -3.114430 0.090404 2.998000 -0.068586
 36   14.294526 -0.410349 -0.463635 0.000081 0.000060 -0.477535
 37   15.834409 0.579420 -0.284600 -0.088684 0.041198 0.318853
 38   1.139685 -3.453749 -2.823813 0.000000 0.000000 0.000001
 39   -4.457742 -1.054854 -0.746180 0.000000 0.000000 0.000000
 40   1.118101 -3.449769 3.237290 0.000000 0.000001 0.000000
 41   -4.433840 -1.059130 0.959566 -0.000001 0.000000 0.000000
 42   -0.657468 1.697302 -2.688614 0.000000 0.000002 0.000000
 43   -0.664068 1.698578 2.869377 0.000000 0.000002 0.000000
time 6
  0   0.001233 0.187506 0.508199 0.000000 0.000000 -1.571449
  1   -1.093036 0.000002 -0.326057 -1.570809 -1.570379 0.000022
  2   2.262337 0.113614 0.064702 -0.000052 0.000061 -0.260847
  3   2.380047 0.353302 0.047440 -0.261678 -0.001922 -0.008489
  4   2.033756 0.190472 -0.000128 -0.000010 0.000024 -0.017786
  5   2.451511 0.204909 -0.003447 0.000000 -0.000005 -0.017472
  6   7.247600 -0.397300 -0.109469 0.000001 0.000009 -0.209345
  7   -2.022252 -0.104661 3.136172 0.819304 -1.234017 -3.723304
  8   1.168026 -0.537438 -0.063437 -0.421467 1.015912 -1.011534
  9   6.790376 -0.619176 0.015206 -0.000213 -0.000352 -2.133165
 10   8.637599 0.544015 -0.090417 -1.068583 -0.402905 -0.134826
 11   6.790465 -0.619039 0.017802 0.005381 -0.011935 -1.508573
 12   -2.022474 -0.104699 -2.873818 -1.098185 1.086856 -3.979837
 13   1.167898 -0.537463 0.063297 -0.270492 -1.005068 0.415965
 14   7.002743 -0.617765 -0.183752 0.000229 0.000250 -2.415017
 15   8.209042 0.615527 -0.255885 1.510555 0.765006 -0.200505
 16   7.002735 -0.617911 -0.183641 0.011991 0.013909 -1.709145
 17   1.574674 0.609930 -0.000899 0.260984 0.017876 0.184760
 18   -0.602177 0.511412 -0.000006 0.000000 0.000000 0.000000
 19   3.673773 0.177020 1.119313 -0.000002 -0.000014 -0.174510
 20   3.673767 0.176993 -1.117566 0.000007 -0.000003 -0.174546
 21   3.942357 1.330634 1.627658 0.000002 -0.000011 -0.000026
 22   -0.246060 -0.011889 0.516521 -0.000011 0.000031 0.000025
 23   3.942374 1.330659 -1.631083 0.000019 0.000002 -0.000024
 24   -0.246150 -0.011872 -0.516511 -0.000005 -0.000006 0.000048
 25   4.941364 1.997338 1.629330 0.000018 -0.000001 -0.000024
 26   4.941382 1.997366 -1.629410 -0.000001 0.000005 -0.000024
 27   2.918368 1.615358 1.514501 -0.000019 -0.000022 -0.000050
 28   2.920798 1.614964 -1.501142 -0.000002 -0.000009 -0.000024
 29   8.824059 0.150544 0.091743 0.000006 -0.000231 -0.174534
 30   2.111085 -0.561179 1.784320 -0.000008 -0.000682 0.000024
 31   2.121290 -0.561289 -1.853599 0.000000 0.000000 -0.000002
 32   -0.810489 -0.093824 3.127092 -0.121287 -2.968842 -0.368173
 33   14.298673 -0.408176 0.475484 -0.000088 -0.000042 -0.522390
 34   15.835795 0.581398 0.242756 0.161743 -0.015325 0.064958
 35   -0.815868 -0.091229 -3.114430 0.089260 2.997251 -0.075488
 36   14.294526 -0.410349 -0.463635 0.000081 0.000060 -0.491284
 37   15.834409 0.579420 -0.284600 -0.088625 0.041378 0.326154
 38   1.139685 -3.453749 -2.823813 0.000000 0.000000 0.000001
 39   -4.457742 -1.054854 -0.746180 0.000000 0.000000 0.000000
 40   1.118101 -3.449769 3.237290 0.000000 0.000001 0.000000
 41   -4.433840 -1.059130 0.959566 -0.000001 0.000000 0.000000
 42   -0.657468 1.697302 -2.688614 0.000000 0.000002 0.000000
 43   -0.664068 1.698578 2.869377 0.000000 0.000002 0.000000
time 7
  0   0.001233 0.187506 0.437884 0.000000 0.000000 -1.571449
  1   -1.093036 0.000002 -0.326057 -1.570809 -1.570379 0.000022
  2   2.262337 0.113614 0.064702 -0.000052 0.000061 -0.260847
  3   2.380047 0.353302 0.047440 -0.261678 -0.001922 -0.008489
  4   2.033756 0.190472 -0.000128 -0.000010 0.000024 -0.014850
  5   2.451511 0.204909 -0.003447 0.000000 -0.000005 -0.017472
  6   7.247600 -0.397300 -0.109469 0.000001 0.000009 -0.209345
  7   -2.022252 -0.104661 3.136172 0.806843 -1.229722 -3.710156
  8   1.168026 -0.537438 -0.063437 -0.413430 1.009824 -1.005651
  9   6.790376 -0.619176 0.015206 -0.000213 -0.000352 -2.133165
 10   8.637599 0.544015 -0.090417 -1.068583 -0.402905 -0.134826
 11   6.790465 -0.619039 0.017802 0.005381 -0.011935 -1.508573
 12   -2.022474 -0.104699 -2.873818 -1.088222 1.084128 -3.968348
 13   1.167898 -0.537463 0.063297 -0.260370 -0.999474 0.406824
 14   7.002743 -0.617765 -0.183752 0.000229 0.000250 -2.415017
 15   8.209042 0.615527 -0.255885 1.510555 0.765006 -0.200505
 16   7.002735 -0.617911 -0.183641 0.011991 0.013909 -1.709145
 17   1.574674 0.609930 -0.000899 0.260984 0.017876 0.181766
 18   -0.602177 0.511412 -0.000006 0.000000 0.000000 0.000000
 19   3.673773 0.177020 1.119313 -0.000002 -0.000014 -0.174510
 20   3.673767 0.176993 -1.117566 0.000007 -0.000003 -0.174546
 21   3.942357 1.330634 1.627658 0.000002 -0.000011 -0.000026
 22   -0.246060 -0.011889 0.516521 -0.000011 0.000031 0.000025
 23   3.942374 1.330659 -1.631083 0.000019 0.000002 -0.000024
 24   -0.246150 -0.011872 -0.516511 -0.000005 -0.000006 0.000048
 25   4.941364 1.997338 1.629330 0.000018 -0.000001 -0.000024
 26   4.941382 1.997366 -1.629410 -0.000001 0.000005 -0.000024
 27   2.918368 1.615358 1.514501 -0.000019 -0.000022 -0.000050
 28   2.920798 1.614964 -1.501142 -0.000002 -0.000009 -0.000024
 29   8.824059 0.150544 0.091743 0.000006 -0.000231 -0.174534
 30   2.111085 -0.561179 1.784320 -0.000008 -0.000682 0.000024
 31   2.121290 -0.561289 -1.853599 0.000000 0.000000 -0.000002
 32   -0.810489 -0.093824 3.127092 -0.120355 -2.967887 -0.374149
 33   14.298673 -0.408176 0.475484 -0.000088 -0.000042 -0.533982
 34   15.835795 0.581398 0.242756 0.161743 -0.015447 0.069765
 35   -0.815868 -0.091229 -3.114430 0.088467 2.996407 -0.081239
 36   14.294526 -0.410349 -0.463635 0.000081 0.000060 -0.503566
 37   15.834409 0.579420 -0.284600 -0.088625 0.041634 0.332542
 38   1.139685 -3.453749 -2.823813 0.000000 0.000000 0.000001
 39   -4.457742 -1.054854 -0.746180 0.000000 0.000000 0.000000
 40   1.118101 -3.449769 3.237290 0.000000 0.000001 0.000000
 41   -4.433840 -1.059130 0.959566 -0.000001 0.000000 0.000000
 42   -0.657468 1.697302 -2.688614 0.000000 0.000002 0.000000
 43   -0.664068 1.698578 2.869377 0.000000 0.000002 0.000000
time 8
  0   0.001233 0.187506 0.371476 0.000000 0.000000 -1.571449
  1   -1.093036 0.000002 -0.326057 -1.570809 -1.570379 0.000022
  2   2.262337 0.113614 0.064702 -0.000052 0.000061 -0.260847
  3   2.380047 0.353302 0.047440 -0.261678 -0.001922 -0.008489
  4   2.033756 0.190472 -0.000128 -0.000010 0.000024 -0.011914
  5   2.451511 0.204909 -0.003447 0.000000 -0.000005 -0.017472
  6   7.247600 -0.397300 -0.109469 0.000001 0.000009 -0.209345
  7   -2.022252 -0.104661 3.136172 0.795244 -1.225802 -3.697572
  8   1.168026 -0.537438 -0.063437 -0.405900 1.003887 -0.999831
  9   6.790376 -0.619176 0.015206 -0.000213 -0.000352 -2.133165
 10   8.637599 0.544015 -0.090417 -1.068583 -0.402905 -0.134826
 11   6.790465 -0.619039 0.017802 0.005381 -0.011935 -1.508573
 12   -2.022474 -0.104699 -2.873818 -1.078258 1.081573 -3.957146
 13   1.167898 -0.537463 0.063297 -0.251021 -0.994084 0.398349
 14   7.002743 -0.617765 -0.183752 0.000229 0.000250 -2.415017
 15   8.209042 0.615527 -0.255885 1.510555 0.765006 -0.200505
 16   7.002735 -0.617911 -0.183641 0.011944 0.013909 -1.709145
 17   1.574674 0.609930 -0.000899 0.260984 0.017876 0.178736
 18   -0.602177 0.511412 -0.000006 0.000000 0.000000 0.000000
 19   3.673773 0.177020 1.119313 -0.000002 -0.000014 -0.174510
 20   3.673767 0.176993 -1.117566 0.000007 -0.000003 -0.174546
 21   3.942357 1.330634 1.627658 0.000002 -0.000011 -0.000026
 22   -0.246060 -0.011889 0.516521 -0.000011 0.000031 0.000025
 23   3.942374 1.330659 -1.631083 0.000019 0.000002 -0.000024
 24   -0.246150 -0.011872 -0.516511 -0.000005 -0.000006 0.000048
 25   4.941364 1.997338 1.629330 0.000018 -0.000001 -0.000024
 26   4.941382 1.997366 -1.629410 -0.000001 0.000005 -0.000024
 27   2.918368 1.615358 1.514501 -0.000019 -0.000022 -0.000050
 28   2.920798 1.614964 -1.501142 -0.000002 -0.000009 -0.000024
 29   8.824059 0.150544 0.091743 0.000006 -0.000231 -0.174534
 30   2.111085 -0.561179 1.784320 -0.000008 -0.000682 0.000024
 31   2.121290 -0.561289 -1.853599 0.000000 0.000000 -0.000002
 32   -0.810489 -0.093824 3.127092 -0.119143 -2.967123 -0.379386
 33   14.298673 -0.408176 0.475484 -0.000088 -0.000042 -0.544701
 34   15.835795 0.581398 0.242756 0.161858 -0.015618 0.075146
 35   -0.815868 -0.091229 -3.114430 0.087675 2.995564 -0.086771
 36   14.294526 -0.410349 -0.463635 0.000081 0.000060 -0.514921
 37   15.834409 0.579420 -0.284600 -0.088625 0.041864 0.338576
 38   1.139685 -3.453749 -2.823813 0.000000 0.000000 0.000001
 39   -4.457742 -1.054854 -0.746180 0.000000 0.000000 0.000000
 40   1.118101 -3.449769 3.237290 0.000000 0.000001 0.000000
 41   -4.433840 -1.059130 0.959566 -0.000001 0.000000 0.000000
 42   -0.657468 1.697302 -2.688614 0.000000 0.000002 0.000000
 43   -0.664068 1.698578 2.869377 0.000000 0.000002 0.000000
time 9
  0   0.001233 0.187506 0.308974 0.000000 0.000000 -1.571449
  1   -1.093036 0.000002 -0.326057 -1.570809 -1.570379 0.000022
  2   2.262337 0.113614 0.064702 -0.000052 0.000061 -0.260847
  3   2.380047 0.353302 0.047440 -0.261678 -0.001922 -0.008489
  4   2.033756 0.190472 -0.000128 -0.000010 0.000024 -0.009268
  5   2.451511 0.204909 -0.003447 0.000000 -0.000005 -0.017472
  6   7.247600 -0.397300 -0.109469 0.000001 0.000009 -0.209345
  7   -2.022252 -0.104661 3.136172 0.784412 -1.221939 -3.686114
  8   1.168026 -0.537438 -0.063437 -0.399002 0.998755 -0.994643
  9   6.790376 -0.619176 0.015206 -0.000213 -0.000352 -2.133165
 10   8.637599 0.544015 -0.090417 -1.068583 -0.402905 -0.134826
 11   6.790465 -0.619039 0.017802 0.005381 -0.011935 -1.508573
 12   -2.022474 -0.104699 -2.873818 -1.069635 1.078787 -3.947094
 13   1.167898 -0.537463 0.063297 -0.242304 -0.988948 0.390419
 14   7.002743 -0.617765 -0.183752 0.000229 0.000250 -2.415017
 15   8.209042 0.615527 -0.255885 1.510555 0.765006 -0.200505
 16   7.002735 -0.617911 -0.183641 0.011991 0.013909 -1.709145
 17   1.574674 0.609930 -0.000899 0.260984 0.017876 0.176148
 18   -0.602177 0.511412 -0.000006 0.000000 0.000000 0.000000
 19   3.673773 0.177020 1.119313 -0.000002 -0.000014 -0.174510
 20   3.673767 0.176993 -1.117566 0.000007 -0.000003 -0.174546
 21   3.942357 1.330634 1.627658 0.000002 -0.000011 -0.000026
 22   -0.246060 -0.011889 0.516521 -0.000011 0.000031 0.000025
 23   3.942374 1.330659 -1.631083 0.000019 0.000002 -0.000024
 24   -0.246150 -0.011872 -0.516511 -0.000005 -0.000006 0.000048
 25   4.941364 1.997338 1.629330 0.000018 -0.000001 -0.000024
 26   4.941382 1.997366 -1.629410 -0.000001 0.000005 -0.000024
 27   2.918368 1.615358 1.514501 -0.000019 -0.000022 -0.000050
 28   2.920798 1.614964 -1.501142 -0.000002 -0.000009 -0.000024
 29   8.824059 0.150544 0.091743 0.000006 -0.000231 -0.174534
 30   2.111085 -0.561179 1.784320 -0.000008 -0.000682 0.000024
 31   2.121290 -0.561289 -1.853599 0.000000 0.000000 -0.000002
 32   -0.810489 -0.093824 3.127092 -0.118491 -2.966359 -0.385135
 33   14.298673 -0.408176 0.475484 -0.000088 -0.000042 -0.555499
 34   15.835795 0.581398 0.242756 0.161927 -0.015789 0.080306
 35   -0.815868 -0.091229 -3.114430 0.086971 2.994908 -0.092139
 36   14.294526 -0.410349 -0.463635 0.000081 0.000060 -0.526353
 37   15.834409 0.579420 -0.284600 -0.088625 0.042018 0.344711
 38   1.139685 -3.453749 -2.823813 0.000000 0.000000 0.000001
 39   -4.457742 -1.054854 -0.746180 0.000000 0.000000 0.000000
 40   1.118101 -3.449769 3.237290 0.000000 0.000001 0.000000
 41   -4.433840 -1.059130 0.959566 -0.000001 0.000000 0.000000
 42   -0.657468 1.697302 -2.688614 0.000000 0.000002 0.000000
 43   -0.664068 1.698578 2.869377 0.000000 0.000002 0.000000
time 10
  0   0.001233 0.187506 0.266004 0.000000 0.000000 -1.571449
  1   -1.093036 0.000002 -0.326057 -1.570809 -1.570379 0.000022
  2   2.262337 0.113614 0.064702 -0.000052 0.000061 -0.260847
  3   2.380047 0.353302 0.047440 -0.261678 -0.001922 -0.008489
  4   2.033756 0.190472 -0.000128 -0.000010 0.000024 -0.006767
  5   2.451511 0.204909 -0.003447 0.000000 -0.000005 -0.017472
  6   7.247600 -0.397300 -0.109469 0.000001 0.000009 -0.209345
  7   -2.022252 -0.104661 3.136172 0.774635 -1.218393 -3.676347
  8   1.168026 -0.537438 -0.063437 -0.392611 0.993623 -0.989899
  9   6.790376 -0.619176 0.015206 -0.000213 -0.000352 -2.133165
 10   8.637599 0.544015 -0.090417 -1.068583 -0.402905 -0.134826
 11   6.790465 -0.619039 0.017802 0.005381 -0.011935 -1.508573
 12   -2.022474 -0.104699 -2.873818 -1.061396 1.076349 -3.938190
 13   1.167898 -0.537463 0.063297 -0.234713 -0.984015 0.383639
 14   7.002743 -0.617765 -0.183752 0.000229 0.000250 -2.415017
 15   8.209042 0.615527 -0.255885 1.510555 0.765006 -0.200505
 16   7.002735 -0.617911 -0.183641 0.011944 0.013909 -1.709145
 17   1.574674 0.609930 -0.000899 0.260984 0.017876 0.173635
 18   -0.602177 0.511412 -0.000006 0.000000 0.000000 0.000000
 19   3.673773 0.177020 1.119313 -0.000002 -0.000014 -0.174510
 20   3.673767 0.176993 -1.117566 0.000007 -0.000003 -0.174546
 21   3.942357 1.330634 1.627658 0.000002 -0.000011 -0.000026
 22   -0.246060 -0.011889 0.516521 -0.000011 0.000031 0.000025
 23   3.942374 1.330659 -1.631083 0.000019 0.000002 -0.000024
 24   -0.246150 -0.011872 -0.516511 -0.000005 -0.000006 0.000048
 25   4.941364 1.997338 1.629330 0.000018 -0.000001 -0.000024
 26   4.941382 1.997366 -1.629410 -0.000001 0.000005 -0.000024
 27   2.918368 1.615358 1.514501 -0.000019 -0.000022 -0.000050
 28   2.920798 1.614964 -1.501142 -0.000002 -0.000009 -0.000024
 29   8.824059 0.150544 0.091743 0.000006 -0.000231 -0.174534
 30   2.111085 -0.561179 1.784320 -0.000008 -0.000682 0.000024
 31   2.121290 -0.561289 -1.853599 0.000000 0.000000 -0.000002
 32   -0.810489 -0.093824 3.127092 -0.117279 -2.965309 -0.390429
 33   14.298673 -0.408176 0.475484 -0.000088 -0.000042 -0.565900
 34   15.835795 0.581398 0.242756 0.162042 -0.015984 0.085422
 35   -0.815868 -0.091229 -3.114430 0.086003 2.994346 -0.097343
 36   14.294526 -0.410349 -0.463635 0.000081 0.000060 -0.537167
 37   15.834409 0.579420 -0.284600 -0.088585 0.042248 0.350491
 38   1.139685 -3.453749 -2.823813 0.000000 0.000000 0.000001
 39   -4.457742 -1.054854 -0.746180 0.000000 0.000000 0.000000
 40   1.118101 -3.449769 3.237290 0.000000 0.000001 0.000000
 41   -4.433840 -1.059130 0.959566 -0.000001 0.000000 0.000000
 42   -0.657468 1.697302 -2.688614 0.000000 0.000002 0.000000
 43   -0.664068 1.698578 2.869377 0.000000 0.000002 0.000000
time 11
  0   0.001233 0.187506 0.223034 0.000000 0.000000 -1.571449
  1   -1.093036 0.000002 -0.326057 -1.570809 -1.570379 0.000022
  2   2.262337 0.113614 0.064702 -0.000052 0.000061 -0.260847
  3   2.380047 0.353302 0.047440 -0.261678 -0.001922 -0.008489
  4   2.033756 0.190472 -0.000128 -0.000010 0.000024 -0.004592
  5   2.451511 0.204909 -0.003447 0.000000 -0.000005 -0.017472
  6   7.247600 -0.397300 -0.109469 0.000001 0.000009 -0.209345
  7   -2.022252 -0.104661 3.136172 0.766678 -1.215338 -3.667519
  8   1.168026 -0.537438 -0.063437 -0.387422 0.989145 -0.986230
  9   6.790376 -0.619176 0.015206 -0.000213 -0.000352 -2.133165
 10   8.637599 0.544015 -0.090417 -1.068583 -0.402905 -0.134826
 11   6.790465 -0.619039 0.017802 0.005381 -0.011935 -1.508573
 12   -2.022474 -0.104699 -2.873818 -1.054689 1.074550 -3.930243
 13   1.167898 -0.537463 0.063297 -0.227894 -0.980048 0.377404
 14   7.002743 -0.617765 -0.183752 0.000229 0.000250 -2.415017
 15   8.209042 0.615527 -0.255885 1.510555 0.765006 -0.200505
 16   7.002735 -0.617911 -0.183641 0.011991 0.013909 -1.709145
 17   1.574674 0.609930 -0.000899 0.260984 0.017876 0.171454
 18   -0.602177 0.511412 -0.000006 0.000000 0.000000 0.000000
 19   3.673773 0.177020 1.119313 -0.000002 -0.000014 -0.174510
 20   3.673767 0.176993 -1.117566 0.000007 -0.000003 -0.174546
 21   3.942357 1.330634 1.627658 0.000002 -0.000011 -0.000026
 22   -0.246060 -0.011889 0.516521 -0.000011 0.000031 0.000025
 23   3.942374 1.330659 -1.631083 0.000019 0.000002 -0.000024
 24   -0.246150 -0.011872 -0.516511 -0.000005 -0.000006 0.000048
 25   4.941364 1.997338 1.629330 0.000018 -0.000001 -0.000024
 26   4.941382 1.997366 -1.629410 -0.000001 0.000005 -0.000024
 27   2.918368 1.615358 1.514501 -0.000019 -0.000022 -0.000050
 28   2.920798 1.614964 -1.501142 -0.000002 -0.000009 -0.000024
 29   8.824059 0.150544 0.091743 0.000006 -0.000231 -0.174534
 30   2.111085 -0.561179 1.784320 -0.000008 -0.000682 0.000024
 31   2.121290 -0.561289 -1.853599 0.000000 0.000000 -0.000002
 32   -0.810489 -0.093824 3.127092 -0.116440 -2.964545 -0.395324
 33   14.298673 -0.408176 0.475484 -0.000088 -0.000042 -0.575428
 34   15.835795 0.581398 0.242756 0.162226 -0.016106 0.089788
 35   -0.815868 -0.091229 -3.114430 0.085211 2.994252 -0.102109
 36   14.294526 -0.410349 -0.463635 0.000081 0.000060 -0.546977
 37   15.834409 0.579420 -0.284600 -0.088585 0.042453 0.355764
 38   1.139685 -3.453749 -2.823813 0.000000 0.000000 0.000001
 39   -4.457742 -1.054854 -0.746180 0.000000 0.000000 0.000000
 40   1.118101 -3.449769 3.237290 0.000000 0.000001 0.000000
 41   -4.433840 -1.059130 0.959566 -0.000001 0.000000 0.000000
 42   -0.657468 1.697302 -2.688614 0.000000 0.000002 0.000000
 43   -0.664068 1.698578 2.869377 0.000000 0.000002 0.000000
time 12
  0   0.001233 0.187506 0.172251 0.000000 0.000000 -1.571449
  1   -1.093036 0.000002 -0.326057 -1.570809 -1.570379 0.000022
  2   2.262337 0.113614 0.064702 -0.000052 0.000061 -0.260847
  3   2.380047 0.353302 0.047440 -0.261678 -0.001922 -0.008489
  4   2.033756 0.190472 -0.000128 -0.000010 0.000024 -0.002816
  5   2.451511 0.204909 -0.003447 0.000000 -0.000005 -0.017472
  6   7.247600 -0.397300 -0.109469 0.000001 0.000009 -0.209345
  7   -2.022252 -0.104661 3.136172 0.760160 -1.212801 -3.660288
  8   1.168026 -0.537438 -0.063437 -0.382992 0.985774 -0.982750
  9   6.790376 -0.619176 0.015206 -0.000213 -0.000352 -2.133165
 10   8.637599 0.544015 -0.090417 -1.068583 -0.402905 -0.134826
 11   6.790465 -0.619039 0.017802 0.005381 -0.011935 -1.508573
 12   -2.022474 -0.104699 -2.873818 -1.048845 1.072489 -3.923733
 13   1.167898 -0.537463 0.063297 -0.222763 -0.976743 0.372501
 14   7.002743 -0.617765 -0.183752 0.000229 0.000250 -2.415017
 15   8.209042 0.615527 -0.255885 1.510555 0.765006 -0.200505
 16   7.002735 -0.617911 -0.183641 0.011991 0.013909 -1.709145
 17   1.574674 0.609930 -0.000899 0.260984 0.017876 0.169569
 18   -0.602177 0.511412 -0.000006 0.000000 0.000000 0.000000
 19   3.673773 0.177020 1.119313 -0.000002 -0.000014 -0.174510
 20   3.673767 0.176993 -1.117566 0.000007 -0.000003 -0.174546
 21   3.942357 1.330634 1.627658 0.000002 -0.000011 -0.000026
 22   -0.246060 -0.011889 0.516521 -0.000011 0.000031 0.000025
 23   3.942374 1.330659 -1.631083 0.000019 0.000002 -0.000024
 24   -0.246150 -0.011872 -0.516511 -0.000005 -0.000006 0.000048
 25   4.941364 1.997338 1.629330 0.000018 -0.000001 -0.000024
 26   4.941382 1.997366 -1.629410 -0.000001 0.000005 -0.000024
 27   2.918368 1.615358 1.514501 -0.000019 -0.000022 -0.000050
 28   2.920798 1.614964 -1.501142 -0.000002 -0.000009 -0.000024
 29   8.824059 0.150544 0.091743 0.000006 -0.000231 -0.174534
 30   2.111085 -0.561179 1.784320 -0.000008 -0.000682 0.000024
 31   2.121290 -0.561289 -1.853599 0.000000 0.000000 -0.000002
 32   -0.810489 -0.093824 3.127092 -0.115974 -2.963972 -0.399594
 33   14.298673 -0.408176 0.475484 -0.000088 -0.000042 -0.583288
 34   15.835795 0.581398 0.242756 0.162364 -0.016155 0.093625
 35   -0.815868 -0.091229 -3.114430 0.084859 2.993409 -0.105943
 36   14.294526 -0.410349 -0.463635 0.000081 0.000060 -0.555474
 37   15.834409 0.579420 -0.284600 -0.088566 0.042632 0.360276
 38   1.139685 -3.453749 -2.823813 0.000000 0.000000 0.000001
 39   -4.457742 -1.054854 -0.746180 0.000000 0.000000 0.000000
 40   1.118101 -3.449769 3.237290 0.000000 0.000001 0.000000
 41   -4.433840 -1.059130 0.959566 -0.000001 0.000000 0.000000
 42   -0.657468 1.697302 -2.688614 0.000000 0.000002 0.000000
 43   -0.664068 1.698578 2.869377 0.000000 0.000002 0.000000
time 13
  0   0.001233 0.187506 0.148813 0.000000 0.000000 -1.571449
  1   -1.093036 0.000002 -0.326057 -1.570809 -1.570379 0.000022
  2   2.262337 0.113614 0.064702 -0.000052 0.000061 -0.260847
  3   2.380047 0.353302 0.047440 -0.261678 -0.001922 -0.008489
  4   2.033756 0.190472 -0.000128 -0.000010 0.000024 -0.001475
  5   2.451511 0.204909 -0.003447 0.000000 -0.000005 -0.017472
  6   7.247600 -0.397300 -0.109469 0.000001 0.000009 -0.209345
  7   -2.022252 -0.104661 3.136172 0.755176 -1.210697 -3.655123
  8   1.168026 -0.537438 -0.063437 -0.379638 0.982906 -0.980410
  9   6.790376 -0.619176 0.015206 -0.000213 -0.000352 -2.133165
 10   8.637599 0.544015 -0.090417 -1.068583 -0.402905 -0.134826
 11   6.790465 -0.619039 0.017802 0.005381 -0.011935 -1.508573
 12   -2.022474 -0.104699 -2.873818 -1.044629 1.071241 -3.918946
 13   1.167898 -0.537463 0.063297 -0.218475 -0.973997 0.368808
 14   7.002743 -0.617765 -0.183752 0.000229 0.000250 -2.415017
 15   8.209042 0.615527 -0.255885 1.510555 0.765006 -0.200505
 16   7.002735 -0.617911 -0.183641 0.011944 0.013909 -1.709145
 17   1.574674 0.609930 -0.000899 0.260984 0.017876 0.168350
 18   -0.602177 0.511412 -0.000006 0.000000 0.000000 0.000000
 19   3.673773 0.177020 1.119313 -0.000002 -0.000014 -0.174510
 20   3.673767 0.176993 -1.117566 0.000007 -0.000003 -0.174546
 21   3.942357 1.330634 1.627658 0.000002 -0.000011 -0.000026
 22   -0.246060 -0.011889 0.516521 -0.000011 0.000031 0.000025
 23   3.942374 1.330659 -1.631083 0.000019 0.000002 -0.000024
 24   -0.246150 -0.011872 -0.516511 -0.000005 -0.000006 0.000048
 25   4.941364 1.997338 1.629330 0.000018 -0.000001 -0.000024
 26   4.941382 1.997366 -1.629410 -0.000001 0.000005 -0.000024
 27   2.918368 1.615358 1.514501 -0.000019 -0.000022 -0.000050
 28   2.920798 1.614964 -1.501142 -0.000002 -0.000009 -0.000024
 29   8.824059 0.150544 0.091743 0.000006 -0.000231 -0.174534
 30   2.111085 -0.561179 1.784320 -0.000008 -0.000682 0.000024
 31   2.121290 -0.561289 -1.853599 0.000000 0.000000 -0.000002
 32   -0.810489 -0.093824 3.127092 -0.115601 -2.963590 -0.402667
 33   14.298673 -0.408176 0.475484 -0.000088 -0.000042 -0.589799
 34   15.835795 0.581398 0.242756 0.162525 -0.016228 0.096624
 35   -0.815868 -0.091229 -3.114430 0.084243 2.993128 -0.109011
 36   14.294526 -0.410349 -0.463635 0.000081 0.000060 -0.561576
 37   15.834409 0.579420 -0.284600 -0.088566 0.042760 0.363775
 38   1.139685 -3.453749 -2.823813 0.000000 0.000000 0.000001
 39   -4.457742 -1.054854 -0.746180 0.000000 0.000000 0.000000
 40   1.118101 -3.449769 3.237290 0.000000 0.000001 0.000000
 41   -4.433840 -1.059130 0.959566 -0.000001 0.000000 0.000000
 42   -0.657468 1.697302 -2.688614 0.000000 0.000002 0.000000
 43   -0.664068 1.698578 2.869377 0.000000 0.000002 0.000000
time 14
  0   0.001233 0.187506 0.129281 0.000000 0.000000 -1.571449
  1   -1.093036 0.000002 -0.326057 -1.570809 -1.570379 0.000022
  2   2.262337 0.113614 0.064702 -0.000052 0.000061 -0.260847
  3   2.380047 0.353302 0.047440 -0.261678 -0.001922 -0.008489
  4   2.033756 0.190472 -0.000128 -0.000010 0.000024 -0.000605
  5   2.451511 0.204909 -0.003447 0.000000 -0.000005 -0.017472
  6   7.247600 -0.397300 -0.109469 0.000001 0.000009 -0.209345
  7   -2.022252 -0.104661 3.136172 0.752204 -1.209457 -3.651648
  8   1.168026 -0.537438 -0.063437 -0.377613 0.981296 -0.978955
  9   6.790376 -0.619176 0.015206 -0.000213 -0.000352 -2.133165
 10   8.637599 0.544015 -0.090417 -1.068583 -0.402905 -0.134826
 11   6.790465 -0.619039 0.017802 0.005381 -0.011935 -1.508573
 12   -2.022474 -0.104699 -2.873818 -1.041851 1.070428 -3.915691
 13   1.167898 -0.537463 0.063297 -0.215663 -0.972268 0.366387
 14   7.002743 -0.617765 -0.183752 0.000229 0.000250 -2.415017
 15   8.209042 0.615527 -0.255885 1.510555 0.765006 -0.200505
 16   7.002735 -0.617911 -0.183641 0.011991 0.013909 -1.709145
 17   1.574674 0.609930 -0.000899 0.260984 0.017876 0.167462
 18   -0.602177 0.511412 -0.000006 0.000000 0.000000 0.000000
 19   3.673773 0.177020 1.119313 -0.000002 -0.000014 -0.174510
 20   3.673767 0.176993 -1.117566 0.000007 -0.000003 -0.174546
 21   3.942357 1.330634 1.627658 0.000002 -0.000011 -0.000026
 22   -0.246060 -0.011889 0.516521 -0.000011 0.000031 0.000025
 23   3.942374 1.330659 -1.631083 0.000019 0.000002 -0.000024
 24   -0.246150 -0.011872 -0.516511 -0.000005 -0.000006 0.000048
 25   4.941364 1.997338 1.629330 0.000018 -0.000001 -0.000024
 26   4.941382 1.997366 -1.629410 -0.000001 0.000005 -0.000024
 27   2.918368 1.615358 1.514501 -0.000019 -0.000022 -0.000050
 28   2.920798 1.614964 -1.501142 -0.000002 -0.000009 -0.000024
 29   8.824059 0.150544 0.091743 0.000006 -0.000231 -0.174534
 30   2.111085 -0.561179 1.784320 -0.000008 -0.000682 0.000024
 31   2.121290 -0.561289 -1.853599 0.000000 0.000000 -0.000002
 32   -0.810489 -0.093824 3.127092 -0.115322 -2.963207 -0.404546
 33   14.298673 -0.408176 0.475484 -0.000088 -0.000042 -0.593372
 34   15.835795 0.581398 0.242756 0.162617 -0.016277 0.098388
 35   -0.815868 -0.091229 -3.114430 0.083979 2.993034 -0.110928
 36   14.294526 -0.410349 -0.463635 0.000081 0.000060 -0.565670
 37   15.834409 0.579420 -0.284600 -0.088507 0.042837 0.365803
 38   1.139685 -3.453749 -2.823813 0.000000 0.000000 0.000001
 39   -4.457742 -1.054854 -0.746180 0.000000 0.000000 0.000000
 40   1.118101 -3.449769 3.237290 0.000000 0.000001 0.000000
 41   -4.433840 -1.059130 0.959566 -0.000001 0.000000 0.000000
 42   -0.657468 1.697302 -2.688614 0.000000 0.000002 0.000000
 43   -0.664068 1.698578 2.869377 0.000000 0.000002 0.000000
time 15
  0   0.001233 0.187506 0.129281 0.000000 0.000000 -1.571449
  1   -1.093036 0.000002 -0.326057 -1.570809 -1.570379 0.000022
  2   2.262337 0.113614 0.064702 -0.000052 0.000061 -0.260847
  3   2.380047 0.353302 0.047440 -0.261678 -0.001922 -0.008489
  4   2.033756 0.190472 -0.000128 -0.000010 0.000024 -0.000315
  5   2.451511 0.204909 -0.003447 0.000000 -0.000005 -0.017472
  6   7.247600 -0.397300 -0.109469 0.000001 0.000009 -0.209345
  7   -2.022252 -0.104661 3.136172 0.751054 -1.208996 -3.650427
  8   1.168026 -0.537438 -0.063437 -0.376791 0.980642 -0.978322
  9   6.790376 -0.619176 0.015206 -0.000213 -0.000352 -2.133165
 10   8.637599 0.544015 -0.090417 -1.068583 -0.402905 -0.134826
 11   6.790465 -0.619039 0.017802 0.005381 -0.011935 -1.508573
 12   -2.022474 -0.104699 -2.873818 -1.040989 1.070109 -3.914637
 13   1.167898 -0.537463 0.063297 -0.214890 -0.971810 0.365479
 14   7.002743 -0.617765 -0.183752 0.000229 0.000250 -2.415017
 15   8.209042 0.615527 -0.255885 1.510555 0.765006 -0.200505
 16   7.002735 -0.617911 -0.183641 0.011991 0.013909 -1.709145
 17   1.574674 0.609930 -0.000899 0.260984 0.017876 0.167056
 18   -0.602177 0.511412 -0.000006 0.000000 0.000000 0.000000
 19   3.673773 0.177020 1.119313 -0.000002 -0.000014 -0.174510
 20   3.673767 0.176993 -1.117566 0.000007 -0.000003 -0.174546
 21   3.942357 1.330634 1.627658 0.000002 -0.000011 -0.000026
 22   -0.246060 -0.011889 0.516521 -0.000011 0.000031 0.000025
 23   3.942374 1.330659 -1.631083 0.000019 0.000002 -0.000024
 24   -0.246150 -0.011872 -0.516511 -0.000005 -0.000006 0.000048
 25   4.941364 1.997338 1.629330 0.000018 -0.000001 -0.000024
 26   4.941382 1.997366 -1.629410 -0.000001 0.000005 -0.000024
 27   2.918368 1.615358 1.514501 -0.000019 -0.000022 -0.000050
 28   2.920798 1.614964 -1.501142 -0.000002 -0.000009 -0.000024
 29   8.824059 0.150544 0.091743 0.000006 -0.000231 -0.174534
 30   2.111085 -0.561179 1.784320 -0.000008 -0.000682 0.000024
 31   2.121290 -0.561289 -1.853599 0.000000 0.000000 -0.000002
 32   -0.810489 -0.093824 3.127092 -0.115135 -2.963112 -0.405172
 33   14.298673 -0.408176 0.475484 -0.000088 -0.000042 -0.594563
 34   15.835795 0.581398 0.242756 0.162686 -0.016277 0.098785
 35   -0.815868 -0.091229 -3.114430 0.083803 2.992753 -0.111311
 36   14.294526 -0.410349 -0.463635 0.000081 0.000060 -0.566597
 37   15.834409 0.579420 -0.284600 -0.088507 0.042837 0.366158
 38   1.139685 -3.453749 -2.823813 0.000000 0.000000 0.000001
 39   -4.457742 -1.054854 -0.746180 0.000000 0.000000 0.000000
 40   1.118101 -3.449769 3.237290 0.000000 0.000001 0.000000
 41   -4.433840 -1.059130 0.959566 -0.000001 0.000000 0.000000
 42   -0.657468 1.697302 -2.688614 0.000000 0.000002 0.000000
 43   -0.664068 1.698578 2.869377 0.000000 0.000002 0.000000
time 16
  0   0.001233 0.187506 0.129281 0.000000 0.000000 -1.571449
  1   -1.093036 0.000002 -0.326057 -1.570809 -1.570379 0.000022
  2   2.262337 0.113614 0.064702 -0.000052 0.000061 -0.260847
  3   2.380047 0.353302 0.047440 -0.261678 -0.001922 -0.008489
  4   2.033756 0.190472 -0.000128 -0.000010 0.000024 -0.000605
  5   2.451511 0.204909 -0.003447 0.000000 -0.000005 -0.017472
  6   7.247600 -0.397300 -0.109469 0.000001 0.000009 -0.209345
  7   -2.022252 -0.104661 3.136172 0.752204 -1.209457 -3.651648
  8   1.168026 -0.537438 -0.063437 -0.377613 0.981296 -0.978955
  9   6.790376 -0.619176 0.015206 -0.000213 -0.000352 -2.133165
 10   8.637599 0.544015 -0.090417 -1.068583 -0.402905 -0.134826
 11   6.790465 -0.619039 0.017802 0.005381 -0.011935 -1.508573
 12   -2.022474 -0.104699 -2.873818 -1.041851 1.070428 -3.915691
 13   1.167898 -0.537463 0.063297 -0.215663 -0.972268 0.366387
 14   7.002743 -0.617765 -0.183752 0.000229 0.000250 -2.415017
 15   8.209042 0.615527 -0.255885 1.510555 0.765006 -0.200505
 16   7.002735 -0.617911 -0.183641 0.011991 0.013909 -1.709145
 17   1.574674 0.609930 -0.000899 0.260984 0.017876 0.167462
 18   -0.602177 0.511412 -0.000006 0.000000 0.000000 0.000000
 19   3.673773 0.177020 1.119313 -0.000002 -0.000014 -0.174510
 20   3.673767 0.176993 -1.117566 0.000007 -0.000003 -0.174546
 21   3.942357 1.330634 1.627658 0.000002 -0.000011 -0.000026
 22   -0.246060 -0.011889 0.516521 -0.000011 0.000031 0.000025
 23   3.942374 1.330659 -1.631083 0.000019 0.000002 -0.000024
 24   -0.246150 -0.011872 -0.516511 -0.000005 -0.000006 0.000048
 25   4.941364 1.997338 1.629330 0.000018 -0.000001 -0.000024
 26   4.941382 1.997366 -1.629410 -0.000001 0.000005 -0.000024
 27   2.918368 1.615358 1.514501 -0.000019 -0.000022 -0.000050
 28   2.920798 1.614964 -1.501142 -0.000002 -0.000009 -0.000024
 29   8.824059 0.150544 0.091743 0.000006 -0.000231 -0.174534
 30   2.111085 -0.561179 1.784320 -0.000008 -0.000682 0.000024
 31   2.121290 -0.561289 -1.853599 0.000000 0.000000 -0.000002
 32   -0.810489 -0.093824 3.127092 -0.115508 -2.963207 -0.403977
 33   14.298673 -0.408176 0.475484 -0.000088 -0.000042 -0.592022
 34   15.835795 0.581398 0.242756 0.162617 -0.016277 0.097947
 35   -0.815868 -0.091229 -3.114430 0.083979 2.993034 -0.110270
 36   14.294526 -0.410349 -0.463635 0.000081 0.000060 -0.564357
 37   15.834409 0.579420 -0.284600 -0.088507 0.042837 0.365144
 38   1.139685 -3.453749 -2.823813 0.000000 0.000000 0.000001
 39   -4.457742 -1.054854 -0.746180 0.000000 0.000000 0.000000
 40   1.118101 -3.449769 3.237290 0.000000 0.000001 0.000000
 41   -4.433840 -1.059130 0.959566 -0.000001 0.000000 0.000000
 42   -0.657468 1.697302 -2.688614 0.000000 0.000002 0.000000
 43   -0.664068 1.698578 2.869377 0.000000 0.000002 0.000000
time 17
  0   0.001233 0.187506 0.148813 0.000000 0.000000 -1.571449
  1   -1.093036 0.000002 -0.326057 -1.570809 -1.570379 0.000022
  2   2.262337 0.113614 0.064702 -0.000052 0.000061 -0.260847
  3   2.380047 0.353302 0.047440 -0.261678 -0.001922 -0.008489
  4   2.033756 0.190472 -0.000128 -0.000010 0.000024 -0.001475
  5   2.451511 0.204909 -0.003447 0.000000 -0.000005 -0.017472
  6   7.247600 -0.397300 -0.109469 0.000001 0.000009 -0.209345
  7   -2.022252 -0.104661 3.136172 0.755176 -1.210697 -3.655123
  8   1.168026 -0.537438 -0.063437 -0.379638 0.982906 -0.980410
  9   6.790376 -0.619176 0.015206 -0.000213 -0.000352 -2.133165
 10   8.637599 0.544015 -0.090417 -1.068583 -0.402905 -0.134826
 11   6.790465 -0.619039 0.017802 0.005381 -0.011935 -1.508573
 12   -2.022474 -0.104699 -2.873818 -1.044629 1.071241 -3.918946
 13   1.167898 -0.537463 0.063297 -0.218475 -0.973997 0.368808
 14   7.002743 -0.617765 -0.183752 0.000229 0.000250 -2.415017
 15   8.209042 0.615527 -0.255885 1.510555 0.765006 -0.200505
 16   7.002735 -0.617911 -0.183641 0.011944 0.013909 -1.709145
 17   1.574674 0.609930 -0.000899 0.260984 0.017876 0.168350
 18   -0.602177 0.511412 -0.000006 0.000000 0.000000 0.000000
 19   3.673773 0.177020 1.119313 -0.000002 -0.000014 -0.174510
 20   3.673767 0.176993 -1.117566 0.000007 -0.000003 -0.174546
 21   3.942357 1.330634 1.627658 0.000002 -0.000011 -0.000026
 22   -0.246060 -0.011889 0.516521 -0.000011 0.000031 0.000025
 23   3.942374 1.330659 -1.631083 0.000019 0.000002 -0.000024
 24   -0.246150 -0.011872 -0.516511 -0.000005 -0.000006 0.000048
 25   4.941364 1.997338 1.629330 0.000018 -0.000001 -0.000024
 26   4.941382 1.997366 -1.629410 -0.000001 0.000005 -0.000024
 27   2.918368 1.615358 1.514501 -0.000019 -0.000022 -0.000050
 28   2.920798 1.614964 -1.501142 -0.000002 -0.000009 -0.000024
 29   8.824059 0.150544 0.091743 0.000006 -0.000231 -0.174534
 30   2.111085 -0.561179 1.784320 -0.000008 -0.000682 0.000024
 31   2.121290 -0.561289 -1.853599 0.000000 0.000000 -0.000002
 32   -0.810489 -0.093824 3.127092 -0.115788 -2.963781 -0.401814
 33   14.298673 -0.408176 0.475484 -0.000088 -0.000042 -0.587496
 34   15.835795 0.581398 0.242756 0.162525 -0.016155 0.095742
 35   -0.815868 -0.091229 -3.114430 0.084243 2.993315 -0.107970
 36   14.294526 -0.410349 -0.463635 0.000081 0.000060 -0.559568
 37   15.834409 0.579420 -0.284600 -0.088507 0.042709 0.362558
 38   1.139685 -3.453749 -2.823813 0.000000 0.000000 0.000001
 39   -4.457742 -1.054854 -0.746180 0.000000 0.000000 0.000000
 40   1.118101 -3.449769 3.237290 0.000000 0.000001 0.000000
 41   -4.433840 -1.059130 0.959566 -0.000001 0.000000 0.000000
 42   -0.657468 1.697302 -2.688614 0.000000 0.000002 0.000000
 43   -0.664068 1.698578 2.869377 0.000000 0.000002 0.000000
time 18
  0   0.001233 0.187506 0.172251 0.000000 0.000000 -1.571449
  1   -1.093036 0.000002 -0.326057 -1.570809 -1.570379 0.000022
  2   2.262337 0.113614 0.064702 -0.000052 0.000061 -0.260847
  3   2.380047 0.353302 0.047440 -0.261678 -0.001922 -0.008489
  4   2.033756 0.190472 -0.000128 -0.000010 0.000024 -0.002816
  5   2.451511 0.204909 -0.003447 0.000000 -0.000005 -0.017472
  6   7.247600 -0.397300 -0.109469 0.000001 0.000009 -0.209345
  7   -2.022252 -0.104661 3.136172 0.760160 -1.212801 -3.660288
  8   1.168026 -0.537438 -0.063437 -0.382992 0.985774 -0.982750
  9   6.790376 -0.619176 0.015206 -0.000213 -0.000352 -2.133165
 10   8.637599 0.544015 -0.090417 -1.068583 -0.402905 -0.134826
 11   6.790465 -0.619039 0.017802 0.005381 -0.011935 -1.508573
 12   -2.022474 -0.104699 -2.873818 -1.048845 1.072489 -3.923733
 13   1.167898 -0.537463 0.063297 -0.222763 -0.976743 0.372501
 14   7.002743 -0.617765 -0.183752 0.000229 0.000250 -2.415017
 15   8.209042 0.615527 -0.255885 1.510555 0.765006 -0.200505
 16   7.002735 -0.617911 -0.183641 0.011991 0.013909 -1.709145
 17   1.574674 0.609930 -0.000899 0.260984 0.017876 0.169569
 18   -0.602177 0.511412 -0.000006 0.000000 0.000000 0.000000
 19   3.673773 0.177020 1.119313 -0.000002 -0.000014 -0.174510
 20   3.673767 0.176993 -1.117566 0.000007 -0.000003 -0.174546
 21   3.942357 1.330634 1.627658 0.000002 -0.000011 -0.000026
 22   -0.246060 -0.011889 0.516521 -0.000011 0.000031 0.000025
 23   3.942374 1.330659 -1.631083 0.000019 0.000002 -0.000024
 24   -0.246150 -0.011872 -0.516511 -0.000005 -0.000006 0.000048
 25   4.941364 1.997338 1.629330 0.000018 -0.000001 -0.000024
 26   4.941382 1.997366 -1.629410 -0.000001 0.000005 -0.000024
 27   2.918368 1.615358 1.514501 -0.000019 -0.000022 -0.000050
 28   2.920798 1.614964 -1.501142 -0.000002 -0.000009 -0.000024
 29   8.824059 0.150544 0.091743 0.000006 -0.000231 -0.174534
 30   2.111085 -0.561179 1.784320 -0.000008 -0.000682 0.000024
 31   2.121290 -0.561289 -1.853599 0.000000 0.000000 -0.000002
 32   -0.810489 -0.093824 3.127092 -0.116347 -2.964258 -0.398455
 33   14.298673 -0.408176 0.475484 -0.000088 -0.000042 -0.581065
 34   15.835795 0.581398 0.242756 0.162433 -0.016106 0.092434
 35   -0.815868 -0.091229 -3.114430 0.084947 2.993971 -0.104793
 36   14.294526 -0.410349 -0.463635 0.000081 0.000060 -0.552925
 37   15.834409 0.579420 -0.284600 -0.088507 0.042581 0.359009
 38   1.139685 -3.453749 -2.823813 0.000000 0.000000 0.000001
 39   -4.457742 -1.054854 -0.746180 0.000000 0.000000 0.000000
 40   1.118101 -3.449769 3.237290 0.000000 0.000001 0.000000
 41   -4.433840 -1.059130 0.959566 -0.000001 0.000000 0.000000
 42   -0.657468 1.697302 -2.688614 0.000000 0.000002 0.000000
 43   -0.664068 1.698578 2.869377 0.000000 0.000002 0.000000
time 19
  0   0.001233 0.187506 0.223034 0.000000 0.000000 -1.571449
  1   -1.093036 0.000002 -0.326057 -1.570809 -1.570379 0.000022
  2   2.262337 0.113614 0.064702 -0.000052 0.000061 -0.260847
  3   2.380047 0.353302 0.047440 -0.261678 -0.001922 -0.008489
  4   2.033756 0.190472 -0.000128 -0.000010 0.000024 -0.004592
  5   2.451511 0.204909 -0.003447 0.000000 -0.000005 -0.017472
  6   7.247600 -0.397300 -0.109469 0.000001 0.000009 -0.209345
  7   -2.022252 -0.104661 3.136172 0.766678 -1.215338 -3.667519
  8   1.168026 -0.537438 -0.063437 -0.387422 0.989145 -0.986230
  9   6.790376 -0.619176 0.015206 -0.000213 -0.000352 -2.133165
 10   8.637599 0.544015 -0.090417 -1.068583 -0.402905 -0.134826
 11   6.790465 -0.619039 0.017802 0.005381 -0.011935 -1.508573
 12   -2.022474 -0.104699 -2.873818 -1.054689 1.074550 -3.930243
 13   1.167898 -0.537463 0.063297 -0.227894 -0.980048 0.377404
 14   7.002743 -0.617765 -0.183752 0.000229 0.000250 -2.415017
 15   8.209042 0.615527 -0.255885 1.510555 0.765006 -0.200505
 16   7.002735 -0.617911 -0.183641 0.011991 0.013909 -1.709145
 17   1.574674 0.609930 -0.000899 0.260984 0.017876 0.171454
 18   -0.602177 0.511412 -0.000006 0.000000 0.000000 0.000000
 19   3.673773 0.177020 1.119313 -0.000002 -0.000014 -0.174510
 20   3.673767 0.176993 -1.117566 0.000007 -0.000003 -0.174546
 21   3.942357 1.330634 1.627658 0.000002 -0.000011 -0.000026
 22   -0.246060 -0.011889 0.516521 -0.000011 0.000031 0.000025
 23   3.942374 1.330659 -1.631083 0.000019 0.000002 -0.000024
 24   -0.246150 -0.011872 -0.516511 -0.000005 -0.000006 0.000048
 25   4.941364 1.997338 1.629330 0.000018 -0.000001 -0.000024
 26   4.941382 1.997366 -1.629410 -0.000001 0.000005 -0.000024
 27   2.918368 1.615358 1.514501 -0.000019 -0.000022 -0.000050
 28   2.920798 1.614964 -1.501142 -0.000002 -0.000009 -0.000024
 29   8.824059 0.150544 0.091743 0.000006 -0.000231 -0.174534
 30   2.111085 -0.561179 1.784320 -0.000008 -0.000682 0.000024
 31   2.121290 -0.561289 -1.853599 0.000000 0.000000 -0.000002
 32   -0.810489 -0.093824 3.127092 -0.117093 -2.964927 -0.394072
 33   14.298673 -0.408176 0.475484 -0.000088 -0.000042 -0.572887
 34   15.835795 0.581398 0.242756 0.162295 -0.016033 0.088509
 35   -0.815868 -0.091229 -3.114430 0.085651 2.994252 -0.100794
 36   14.294526 -0.410349 -0.463635 0.000081 0.000060 -0.544428
 37   15.834409 0.579420 -0.284600 -0.088566 0.042401 0.354243
 38   1.139685 -3.453749 -2.823813 0.000000 0.000000 0.000001
 39   -4.457742 -1.054854 -0.746180 0.000000 0.000000 0.000000
 40   1.118101 -3.449769 3.237290 0.000000 0.000001 0.000000
 41   -4.433840 -1.059130 0.959566 -0.000001 0.000000 0.000000
 42   -0.657468 1.697302 -2.688614 0.000000 0.000002 0.000000
 43   -0.664068 1.698578 2.869377 0.000000 0.000002 0.000000
time 20
  0   0.001233 0.187506 0.266004 0.000000 0.000000 -1.571449
  1   -1.093036 0.000002 -0.326057 -1.570809 -1.570379 0.000022
  2   2.262337 0.113614 0.064702 -0.000052 0.000061 -0.260847
  3   2.380047 0.353302 0.047440 -0.261678 -0.001922 -0.008489
  4   2.033756 0.190472 -0.000128 -0.000010 0.000024 -0.006767
  5   2.451511 0.204909 -0.003447 0.000000 -0.000005 -0.017472
  6   7.247600 -0.397300 -0.109469 0.000001 0.000009 -0.209345
  7   -2.022252 -0.104661 3.136172 0.774635 -1.218393 -3.676347
  8   1.168026 -0.537438 -0.063437 -0.392611 0.993623 -0.989899
  9   6.790376 -0.619176 0.015206 -0.000213 -0.000352 -2.133165
 10   8.637599 0.544015 -0.090417 -1.068583 -0.402905 -0.134826
 11   6.790465 -0.619039 0.017802 0.005381 -0.011935 -1.508573
 12   -2.022474 -0.104699 -2.873818 -1.061396 1.076349 -3.938190
 13   1.167898 -0.537463 0.063297 -0.234713 -0.984015 0.383639
 14   7.002743 -0.617765 -0.183752 0.000229 0.000250 -2.415017
 15   8.209042 0.615527 -0.255885 1.510555 0.765006 -0.200505
 16   7.002735 -0.617911 -0.183641 0.011944 0.013909 -1.709145
 17   1.574674 0.609930 -0.000899 0.260984 0.017876 0.173635
 18   -0.602177 0.511412 -0.000006 0.000000 0.000000 0.000000
 19   3.673773 0.177020 1.119313 -0.000002 -0.000014 -0.174510
 20   3.673767 0.176993 -1.117566 0.000007 -0.000003 -0.174546
 21   3.942357 1.330634 1.627658 0.000002 -0.000011 -0.000026
 22   -0.246060 -0.011889 0.516521 -0.000011 0.000031 0.000025
 23   3.942374 1.330659 -1.631083 0.000019 0.000002 -0.000024
 24   -0.246150 -0.011872 -0.516511 -0.000005 -0.000006 0.000048
 25   4.941364 1.997338 1.629330 0.000018 -0.000001 -0.000024
 26   4.941382 1.997366 -1.629410 -0.000001 0.000005 -0.000024
 27   2.918368 1.615358 1.514501 -0.000019 -0.000022 -0.000050
 28   2.920798 1.614964 -1.501142 -0.000002 -0.000009 -0.000024
 29   8.824059 0.150544 0.091743 0.000006 -0.000231 -0.174534
 30   2.111085 -0.561179 1.784320 -0.000008 -0.000682 0.000024
 31   2.121290 -0.561289 -1.853599 0.000000 0.000000 -0.000002
 32   -0.810489 -0.093824 3.127092 -0.117652 -2.965691 -0.389234
 33   14.298673 -0.408176 0.475484 -0.000088 -0.000042 -0.563518
 34   15.835795 0.581398 0.242756 0.162134 -0.015911 0.084187
 35   -0.815868 -0.091229 -3.114430 0.086267 2.994908 -0.096083
 36   14.294526 -0.410349 -0.463635 0.000081 0.000060 -0.534541
 37   15.834409 0.579420 -0.284600 -0.088566 0.042248 0.349122
 38   1.139685 -3.453749 -2.823813 0.000000 0.000000 0.000001
 39   -4.457742 -1.054854 -0.746180 0.000000 0.000000 0.000000
 40   1.118101 -3.449769 3.237290 0.000000 0.000001 0.000000
 41   -4.433840 -1.059130 0.959566 -0.000001 0.000000 0.000000
 42   -0.657468 1.697302 -2.688614 0.000000 0.000002 0.000000
 43   -0.664068 1.698578 2.869377 0.000000 0.000002 0.000000
time 21
  0   0.001233 0.187506 0.308974 0.000000 0.000000 -1.571449
  1   -1.093036 0.000002 -0.326057 -1.570809 -1.570379 0.000022
  2   2.262337 0.113614 0.064702 -0.000052 0.000061 -0.260847
  3   2.380047 0.353302 0.047440 -0.261678 -0.001922 -0.008489
  4   2.033756 0.190472 -0.000128 -0.000010 0.000024 -0.009268
  5   2.451511 0.204909 -0.003447 0.000000 -0.000005 -0.017472
  6   7.247600 -0.397300 -0.109469 0.000001 0.000009 -0.209345
  7   -2.022252 -0.104661 3.136172 0.784412 -1.221939 -3.686114
  8   1.168026 -0.537438 -0.063437 -0.399002 0.998755 -0.994643
  9   6.790376 -0.619176 0.015206 -0.000213 -0.000352 -2.133165
 10   8.637599 0.544015 -0.090417 -1.068583 -0.402905 -0.134826
 11   6.790465 -0.619039 0.017802 0.005381 -0.011935 -1.508573
 12   -2.022474 -0.104699 -2.873818 -1.069635 1.078787 -3.947094
 13   1.167898 -0.537463 0.063297 -0.242304 -0.988948 0.390419
 14   7.002743 -0.617765 -0.183752 0.000229 0.000250 -2.415017
 15   8.209042 0.615527 -0.255885 1.510555 0.765006 -0.200505
 16   7.002735 -0.617911 -0.183641 0.011991 0.013909 -1.709145
 17   1.574674 0.609930 -0.000899 0.260984 0.017876 0.176148
 18   -0.602177 0.511412 -0.000006 0.000000 0.000000 0.000000
 19   3.673773 0.177020 1.119313 -0.000002 -0.000014 -0.174510
 20   3.673767 0.176993 -1.117566 0.000007 -0.000003 -0.174546
 21   3.942357 1.330634 1.627658 0.000002 -0.000011 -0.000026
 22   -0.246060 -0.011889 0.516521 -0.000011 0.000031 0.000025
 23   3.942374 1.330659 -1.631083 0.000019 0.000002 -0.000024
 24   -0.246150 -0.011872 -0.516511 -0.000005 -0.000006 0.000048
 25   4.941364 1.997338 1.629330 0.000018 -0.000001 -0.000024
 26   4.941382 1.997366 -1.629410 -0.000001 0.000005 -0.000024
 27   2.918368 1.615358 1.514501 -0.000019 -0.000022 -0.000050
 28   2.920798 1.614964 -1.501142 -0.000002 -0.000009 -0.000024
 29   8.824059 0.150544 0.091743 0.000006 -0.000231 -0.174534
 30   2.111085 -0.561179 1.784320 -0.000008 -0.000682 0.000024
 31   2.121290 -0.561289 -1.853599 0.000000 0.000000 -0.000002
 32   -0.810489 -0.093824 3.127092 -0.118584 -2.966455 -0.383940
 33   14.298673 -0.408176 0.475484 -0.000088 -0.000042 -0.553117
 34   15.835795 0.581398 0.242756 0.161973 -0.015740 0.079027
 35   -0.815868 -0.091229 -3.114430 0.086971 2.995095 -0.090825
 36   14.294526 -0.410349 -0.463635 0.000081 0.000060 -0.523572
 37   15.834409 0.579420 -0.284600 -0.088585 0.041992 0.343342
 38   1.139685 -3.453749 -2.823813 0.000000 0.000000 0.000001
 39   -4.457742 -1.054854 -0.746180 0.000000 0.000000 0.000000
 40   1.118101 -3.449769 3.237290 0.000000 0.000001 0.000000
 41   -4.433840 -1.059130 0.959566 -0.000001 0.000000 0.000000
 42   -0.657468 1.697302 -2.688614 0.000000 0.000002 0.000000
 43   -0.664068 1.698578 2.869377 0.000000 0.000002 0.000000
time 22
  0   0.001233 0.187506 0.371476 0.000000 0.000000 -1.571449
  1   -1.093036 0.000002 -0.326057 -1.570809 -1.570379 0.000022
  2   2.262337 0.113614 0.064702 -0.000052 0.000061 -0.260847
  3   2.380047 0.353302 0.047440 -0.261678 -0.001922 -0.008489
  4   2.033756 0.190472 -0.000128 -0.000010 0.000024 -0.011914
  5   2.451511 0.204909 -0.003447 0.000000 -0.000005 -0.017472
  6   7.247600 -0.397300 -0.109469 0.000001 0.000009 -0.209345
  7   -2.022252 -0.104661 3.136172 0.795244 -1.225802 -3.697572
  8   1.168026 -0.537438 -0.063437 -0.405900 1.003887 -0.999831
  9   6.790376 -0.619176 0.015206 -0.000213 -0.000352 -2.133165
 10   8.637599 0.544015 -0.090417 -1.068583 -0.402905 -0.134826
 11   6.790465 -0.619039 0.017802 0.005381 -0.011935 -1.508573
 12   -2.022474 -0.104699 -2.873818 -1.078258 1.081573 -3.957146
 13   1.167898 -0.537463 0.063297 -0.251021 -0.994084 0.398349
 14   7.002743 -0.617765 -0.183752 0.000229 0.000250 -2.415017
 15   8.209042 0.615527 -0.255885 1.510555 0.765006 -0.200505
 16   7.002735 -0.617911 -0.183641 0.011944 0.013909 -1.709145
 17   1.574674 0.609930 -0.000899 0.260984 0.017876 0.178736
 18   -0.602177 0.511412 -0.000006 0.000000 0.000000 0.000000
 19   3.673773 0.177020 1.119313 -0.000002 -0.000014 -0.174510
 20   3.673767 0.176993 -1.117566 0.000007 -0.000003 -0.174546
 21   3.942357 1.330634 1.627658 0.000002 -0.000011 -0.000026
 22   -0.246060 -0.011889 0.516521 -0.000011 0.000031 0.000025
 23   3.942374 1.330659 -1.631083 0.000019 0.000002 -0.000024
 24   -0.246150 -0.011872 -0.516511 -0.000005 -0.000006 0.000048
 25   4.941364 1.997338 1.629330 0.000018 -0.000001 -0.000024
 26   4.941382 1.997366 -1.629410 -0.000001 0.000005 -0.000024
 27   2.918368 1.615358 1.514501 -0.000019 -0.000022 -0.000050
 28   2.920798 1.614964 -1.501142 -0.000002 -0.000009 -0.000024
 29   8.824059 0.150544 0.091743 0.000006 -0.000231 -0.174534
 30   2.111085 -0.561179 1.784320 -0.000008 -0.000682 0.000024
 31   2.121290 -0.561289 -1.853599 0.000000 0.000000 -0.000002
 32   -0.810489 -0.093824 3.127092 -0.119516 -2.967410 -0.378191
 33   14.298673 -0.408176 0.475484 -0.000088 -0.000042 -0.542319
 34   15.835795 0.581398 0.242756 0.161858 -0.015569 0.073867
 35   -0.815868 -0.091229 -3.114430 0.087675 2.995751 -0.085457
 36   14.294526 -0.410349 -0.463635 0.000081 0.000060 -0.512449
 37   15.834409 0.579420 -0.284600 -0.088585 0.041762 0.337308
 38   1.139685 -3.453749 -2.823813 0.000000 0.000000 0.000001
 39   -4.457742 -1.054854 -0.746180 0.000000 0.000000 0.000000
 40   1.118101 -3.449769 3.237290 0.000000 0.000001 0.000000
 41   -4.433840 -1.059130 0.959566 -0.000001 0.000000 0.000000
 42   -0.657468 1.697302 -2.688614 0.000000 0.000002 0.000000
 43   -0.664068 1.698578 2.869377 0.000000 0.000002 0.000000
time 23
  0   0.001233 0.187506 0.437884 0.000000 0.000000 -1.571449
  1   -1.093036 0.000002 -0.326057 -1.570809 -1.570379 0.000022
  2   2.262337 0.113614 0.064702 -0.000052 0.000061 -0.260847
  3   2.380047 0.353302 0.047440 -0.261678 -0.001922 -0.008489
  4   2.033756 0.190472 -0.000128 -0.000010 0.000024 -0.014850
  5   2.451511 0.204909 -0.003447 0.000000 -0.000005 -0.017472
  6   7.247600 -0.397300 -0.109469 0.000001 0.000009 -0.209345
  7   -2.022252 -0.104661 3.136172 0.806843 -1.229722 -3.710156
  8   1.168026 -0.537438 -0.063437 -0.413430 1.009824 -1.005651
  9   6.790376 -0.619176 0.015206 -0.000213 -0.000352 -2.133165
 10   8.637599 0.544015 -0.090417 -1.068583 -0.402905 -0.134826
 11   6.790465 -0.619039 0.017802 0.005381 -0.011935 -1.508573
 12   -2.022474 -0.104699 -2.873818 -1.088222 1.084128 -3.968348
 13   1.167898 -0.537463 0.063297 -0.260370 -0.999474 0.406824
 14   7.002743 -0.617765 -0.183752 0.000229 0.000250 -2.415017
 15   8.209042 0.615527 -0.255885 1.510555 0.765006 -0.200505
 16   7.002735 -0.617911 -0.183641 0.011991 0.013909 -1.709145
 17   1.574674 0.609930 -0.000899 0.260984 0.017876 0.181766
 18   -0.602177 0.511412 -0.000006 0.000000 0.000000 0.000000
 19   3.673773 0.177020 1.119313 -0.000002 -0.000014 -0.174510
 20   3.673767 0.176993 -1.117566 0.000007 -0.000003 -0.174546
 21   3.942357 1.330634 1.627658 0.000002 -0.000011 -0.000026
 22   -0.246060 -0.011889 0.516521 -0.000011 0.000031 0.000025
 23   3.942374 1.330659 -1.631083 0.000019 0.000002 -0.000024
 24   -0.246150 -0.011872 -0.516511 -0.000005 -0.000006 0.000048
 25   4.941364 1.997338 1.629330 0.000018 -0.000001 -0.000024
 26   4.941382 1.997366 -1.629410 -0.000001 0.000005 -0.000024
 27   2.918368 1.615358 1.514501 -0.000019 -0.000022 -0.000050
 28   2.920798 1.614964 -1.501142 -0.000002 -0.000009 -0.000024
 29   8.824059 0.150544 0.091743 0.000006 -0.000231 -0.174534
 30   2.111085 -0.561179 1.784320 -0.000008 -0.000682 0.000024
 31   2.121290 -0.561289 -1.853599 0.000000 0.000000 -0.000002
 32   -0.810489 -0.093824 3.127092 -0.120448 -2.968269 -0.372783
 33   14.298673 -0.408176 0.475484 -0.000088 -0.000042 -0.531203
 34   15.835795 0.581398 0.242756 0.161743 -0.015447 0.068354
 35   -0.815868 -0.091229 -3.114430 0.088467 2.996595 -0.079979
 36   14.294526 -0.410349 -0.463635 0.000081 0.000060 -0.500708
 37   15.834409 0.579420 -0.284600 -0.088625 0.041608 0.331021
 38   1.139685 -3.453749 -2.823813 0.000000 0.000000 0.000001
 39   -4.457742 -1.054854 -0.746180 0.000000 0.000000 0.000000
 40   1.118101 -3.449769 3.237290 0.000000 0.000001 0.000000
 41   -4.433840 -1.059130 0.959566 -0.000001 0.000000 0.000000
 42   -0.657468 1.697302 -2.688614 0.000000 0.000002 0.000000
 43   -0.664068 1.698578 2.869377 0.000000 0.000002 0.000000
time 24
  0   0.001233 0.187506 0.508199 0.000000 0.000000 -1.571449
  1   -1.093036 0.000002 -0.326057 -1.570809 -1.570379 0.000022
  2   2.262337 0.113614 0.064702 -0.000052 0.000061 -0.260847
  3   2.380047 0.353302 0.047440 -0.261678 -0.001922 -0.008489
  4   2.033756 0.190472 -0.000128 -0.000010 0.000024 -0.017786
  5   2.451511 0.204909 -0.003447 0.000000 -0.000005 -0.017472
  6   7.247600 -0.397300 -0.109469 0.000001 0.000009 -0.209345
  7   -2.022252 -0.104661 3.136172 0.819304 -1.234017 -3.723304
  8   1.168026 -0.537438 -0.063437 -0.421467 1.015912 -1.011534
  9   6.790376 -0.619176 0.015206 -0.000213 -0.000352 -2.133165
 10   8.637599 0.544015 -0.090417 -1.068583 -0.402905 -0.134826
 11   6.790465 -0.619039 0.017802 0.005381 -0.011935 -1.508573
 12   -2.022474 -0.104699 -2.873818 -1.098185 1.086856 -3.979837
 13   1.167898 -0.537463 0.063297 -0.270492 -1.005068 0.415965
 14   7.002743 -0.617765 -0.183752 0.000229 0.000250 -2.415017
 15   8.209042 0.615527 -0.255885 1.510555 0.765006 -0.200505
 16   7.002735 -0.617911 -0.183641 0.011991 0.013909 -1.709145
 17   1.574674 0.609930 -0.000899 0.260984 0.017876 0.184760
 18   -0.602177 0.511412 -0.000006 0.000000 0.000000 0.000000
 19   3.673773 0.177020 1.119313 -0.000002 -0.000014 -0.174510
 20   3.673767 0.176993 -1.117566 0.000007 -0.000003 -0.174546
 21   3.942357 1.330634 1.627658 0.000002 -0.000011 -0.000026
 22   -0.246060 -0.011889 0.516521 -0.000011 0.000031 0.000025
 23   3.942374 1.330659 -1.631083 0.000019 0.000002 -0.000024
 24   -0.246150 -0.011872 -0.516511 -0.000005 -0.000006 0.000048
 25   4.941364 1.997338 1.629330 0.000018 -0.000001 -0.000024
 26   4.941382 1.997366 -1.629410 -0.000001 0.000005 -0.000024
 27   2.918368 1.615358 1.514501 -0.000019 -0.000022 -0.000050
 28   2.920798 1.614964 -1.501142 -0.000002 -0.000009 -0.000024
 29   8.824059 0.150544 0.091743 0.000006 -0.000231 -0.174534
 30   2.111085 -0.561179 1.784320 -0.000008 -0.000682 0.000024
 31   2.121290 -0.561289 -1.853599 0.000000 0.000000 -0.000002
 32   -0.810489 -0.093824 3.127092 -0.121567 -2.968938 -0.367205
 33   14.298673 -0.408176 0.475484 -0.000088 -0.000042 -0.520643
 34   15.835795 0.581398 0.242756 0.161674 -0.015252 0.063767
 35   -0.815868 -0.091229 -3.114430 0.089348 2.997251 -0.074721
 36   14.294526 -0.410349 -0.463635 0.000081 0.000060 -0.489585
 37   15.834409 0.579420 -0.284600 -0.088625 0.041326 0.325140
 38   1.139685 -3.453749 -2.823813 0.000000 0.000000 0.000001
 39   -4.457742 -1.054854 -0.746180 0.000000 0.000000 0.000000
 40   1.118101 -3.449769 3.237290 0.000000 0.000001 0.000000
 41   -4.433840 -1.059130 0.959566 -0.000001 0.000000 0.000000
 42   -0.657468 1.697302 -2.688614 0.000000 0.000002 0.000000
 43   -0.664068 1.698578 2.869377 0.000000 0.000002 0.000000
time 25
  0   0.001233 0.187506 0.562888 0.000000 0.000000 -1.571449
  1   -1.093036 0.000002 -0.326057 -1.570809 -1.570379 0.000022
  2   2.262337 0.113614 0.064702 -0.000052 0.000061 -0.260847
  3   2.380047 0.353302 0.047440 -0.261678 -0.001922 -0.008489
  4   2.033756 0.190472 -0.000128 -0.000010 0.000024 -0.020867
  5   2.451511 0.204909 -0.003447 0.000000 -0.000005 -0.017472
  6   7.247600 -0.397300 -0.109469 0.000001 0.000009 -0.209345
  7   -2.022252 -0.104661 3.136172 0.832245 -1.238111 -3.737015
  8   1.168026 -0.537438 -0.063437 -0.429820 1.021950 -1.017986
  9   6.790376 -0.619176 0.015206 -0.000213 -0.000352 -2.133165
 10   8.637599 0.544015 -0.090417 -1.068583 -0.402905 -0.134826
 11   6.790465 -0.619039 0.017802 0.005381 -0.011935 -1.508573
 12   -2.022474 -0.104699 -2.873818 -1.108724 1.089845 -3.991805
 13   1.167898 -0.537463 0.063297 -0.280685 -1.010814 0.425408
 14   7.002743 -0.617765 -0.183752 0.000229 0.000250 -2.415017
 15   8.209042 0.615527 -0.255885 1.510555 0.765006 -0.200505
 16   7.002735 -0.617911 -0.183641 0.011944 0.013909 -1.709145
 17   1.574674 0.609930 -0.000899 0.260984 0.017876 0.187902
 18   -0.602177 0.511412 -0.000006 0.000000 0.000000 0.000000
 19   3.673773 0.177020 1.119313 -0.000002 -0.000014 -0.174510
 20   3.673767 0.176993 -1.117566 0.000007 -0.000003 -0.174546
 21   3.942357 1.330634 1.627658 0.000002 -0.000011 -0.000026
 22   -0.246060 -0.011889 0.516521 -0.000011 0.000031 0.000025
 23   3.942374 1.330659 -1.631083 0.000019 0.000002 -0.000024
 24   -0.246150 -0.011872 -0.516511 -0.000005 -0.000006 0.000048
 25   4.941364 1.997338 1.629330 0.000018 -0.000001 -0.000024
 26   4.941382 1.997366 -1.629410 -0.000001 0.000005 -0.000024
 27   2.918368 1.615358 1.514501 -0.000019 -0.000022 -0.000050
 28   2.920798 1.614964 -1.501142 -0.000002 -0.000009 -0.000024
 29   8.824059 0.150544 0.091743 0.000006 -0.000231 -0.174534
 30   2.111085 -0.561179 1.784320 -0.000008 -0.000682 0.000024
 31   2.121290 -0.561289 -1.853599 0.000000 0.000000 -0.000002
 32   -0.810489 -0.093824 3.127092 -0.122592 -2.969988 -0.361114
 33   14.298673 -0.408176 0.475484 -0.000088 -0.000042 -0.509051
 34   15.835795 0.581398 0.242756 0.161674 -0.015081 0.058122
 35   -0.815868 -0.091229 -3.114430 0.090404 2.998000 -0.068476
 36   14.294526 -0.410349 -0.463635 0.000081 0.000060 -0.477303
 37   15.834409 0.579420 -0.284600 -0.088625 0.041173 0.318599
 38   1.139685 -3.453749 -2.823813 0.000000 0.000000 0.000001
 39   -4.457742 -1.054854 -0.746180 0.000000 0.000000 0.000000
 40   1.118101 -3.449769 3.237290 0.000000 0.000001 0.000000
 41   -4.433840 -1.059130 0.959566 -0.000001 0.000000 0.000000
 42   -0.657468 1.697302 -2.688614 0.000000 0.000002 0.000000
 43   -0.664068 1.698578 2.869377 0.000000 0.000002 0.000000
time 26
  0   0.001233 0.187506 0.637109 0.000000 0.000000 -1.571449
  1   -1.093036 0.000002 -0.326057 -1.570809 -1.570379 0.000022
  2   2.262337 0.113614 0.064702 -0.000052 0.000061 -0.260847
  3   2.380047 0.353302 0.047440 -0.261678 -0.001922 -0.008489
  4   2.033756 0.190472 -0.000128 -0.000010 0.000024 -0.024093
  5   2.451511 0.204909 -0.003447 0.000000 -0.000005 -0.017472
  6   7.247600 -0.397300 -0.109469 0.000001 0.000009 -0.209345
  7   -2.022252 -0.104661 3.136172 0.845570 -1.242262 -3.751196
  8   1.168026 -0.537438 -0.063437 -0.438046 1.028189 -1.024629
  9   6.790376 -0.619176 0.015206 -0.000213 -0.000352 -2.133165
 10   8.637599 0.544015 -0.090417 -1.068583 -0.402905 -0.134826
 11   6.790465 -0.619039 0.017802 0.005381 -0.011935 -1.508573
 12   -2.022474 -0.104699 -2.873818 -1.119455 1.092574 -4.003677
 13   1.167898 -0.537463 0.063297 -0.291510 -1.016459 0.434912
 14   7.002743 -0.617765 -0.183752 0.000229 0.000250 -2.415017
 15   8.209042 0.615527 -0.255885 1.510555 0.765006 -0.200505
 16   7.002735 -0.617911 -0.183641 0.011944 0.013909 -1.709145
 17   1.574674 0.609930 -0.000899 0.260984 0.017876 0.190896
 18   -0.602177 0.511412 -0.000006 0.000000 0.000000 0.000000
 19   3.673773 0.177020 1.119313 -0.000002 -0.000014 -0.174510
 20   3.673767 0.176993 -1.117566 0.000007 -0.000003 -0.174546
 21   3.942357 1.330634 1.627658 0.000002 -0.000011 -0.000026
 22   -0.246060 -0.011889 0.516521 -0.000011 0.000031 0.000025
 23   3.942374 1.330659 -1.631083 0.000019 0.000002 -0.000024
 24   -0.246150 -0.011872 -0.516511 -0.000005 -0.000006 0.000048
 25   4.941364 1.997338 1.629330 0.000018 -0.000001 -0.000024
 26   4.941382 1.997366 -1.629410 -0.000001 0.000005 -0.000024
 27   2.918368 1.615358 1.514501 -0.000019 -0.000022 -0.000050
 28   2.920798 1.614964 -1.501142 -0.000002 -0.000009 -0.000024
 29   8.824059 0.150544 0.091743 0.000006 -0.000231 -0.174534
 30   2.111085 -0.561179 1.784320 -0.000008 -0.000682 0.000024
 31   2.121290 -0.561289 -1.853599 0.000000 0.000000 -0.000002
 32   -0.810489 -0.093824 3.127092 -0.123990 -2.970943 -0.354284
 33   14.298673 -0.408176 0.475484 -0.000088 -0.000042 -0.495712
 34   15.835795 0.581398 0.242756 0.161743 -0.014886 0.051683
 35   -0.815868 -0.091229 -3.114430 0.091636 2.998749 -0.061684
 36   14.294526 -0.410349 -0.463635 0.000081 0.000060 -0.463013
 37   15.834409 0.579420 -0.284600 -0.088625 0.040943 0.311095
 38   1.139685 -3.453749 -2.823813 0.000000 0.000000 0.000001
 39   -4.457742 -1.054854 -0.746180 0.000000 0.000000 0.000000
 40   1.118101 -3.449769 3.237290 0.000000 0.000001 0.000000
 41   -4.433840 -1.059130 0.959566 -0.000001 0.000000 0.000000
 42   -0.657468 1.697302 -2.688614 0.000000 0.000002 0.000000
 43   -0.664068 1.698578 2.869377 0.000000 0.000002 0.000000
time 27
  0   0.001233 0.187506 0.699611 0.000000 0.000000 -1.571449
  1   -1.093036 0.000002 -0.326057 -1.570809 -1.570379 0.000022
  2   2.262337 0.113614 0.064702 -0.000052 0.000061 -0.260847
  3   2.380047 0.353302 0.047440 -0.261678 -0.001922 -0.008489
  4   2.033756 0.190472 -0.000128 -0.000010 0.000024 -0.027174
  5   2.451511 0.204909 -0.003447 0.000000 -0.000005 -0.017472
  6   7.247600 -0.397300 -0.109469 0.000001 0.000009 -0.209345
  7   -2.022252 -0.104661 3.136172 0.859469 -1.246182 -3.765471
  8   1.168026 -0.537438 -0.063437 -0.446399 1.034277 -1.031208
  9   6.790376 -0.619176 0.015206 -0.000213 -0.000352 -2.133165
 10   8.637599 0.544015 -0.090417 -1.068583 -0.402905 -0.134826
 11   6.790465 -0.619039 0.017802 0.005381 -0.011935 -1.508573
 12   -2.022474 -0.104699 -2.873818 -1.130185 1.095041 -4.015740
 13   1.167898 -0.537463 0.063297 -0.301914 -1.022053 0.444658
 14   7.002743 -0.617765 -0.183752 0.000229 0.000250 -2.415017
 15   8.209042 0.615527 -0.255885 1.510555 0.765006 -0.200505
 16   7.002735 -0.617911 -0.183641 0.011944 0.013909 -1.709145
 17   1.574674 0.609930 -0.000899 0.260984 0.017876 0.194001
 18   -0.602177 0.511412 -0.000006 0.000000 0.000000 0.000000
 19   3.673773 0.177020 1.119313 -0.000002 -0.000014 -0.174510
 20   3.673767 0.176993 -1.117566 0.000007 -0.000003 -0.174546
 21   3.942357 1.330634 1.627658 0.000002 -0.000011 -0.000026
 22   -0.246060 -0.011889 0.516521 -0.000011 0.000031 0.000025
 23   3.942374 1.330659 -1.631083 0.000019 0.000002 -0.000024
 24   -0.246150 -0.011872 -0.516511 -0.000005 -0.000006 0.000048
 25   4.941364 1.997338 1.629330 0.000018 -0.000001 -0.000024
 26   4.941382 1.997366 -1.629410 -0.000001 0.000005 -0.000024
 27   2.918368 1.615358 1.514501 -0.000019 -0.000022 -0.000050
 28   2.920798 1.614964 -1.501142 -0.000002 -0.000009 -0.000024
 29   8.824059 0.150544 0.091743 0.000006 -0.000231 -0.174534
 30   2.111085 -0.561179 1.784320 -0.000008 -0.000682 0.000024
 31   2.121290 -0.561289 -1.853599 0.000000 0.000000 -0.000002
 32   -0.810489 -0.093824 3.127092 -0.125388 -2.972090 -0.346998
 33   14.298673 -0.408176 0.475484 -0.000088 -0.000042 -0.480944
 34   15.835795 0.581398 0.242756 0.161858 -0.014642 0.044539
 35   -0.815868 -0.091229 -3.114430 0.092340 2.999686 -0.054125
 36   14.294526 -0.410349 -0.463635 0.000081 0.000060 -0.447255
 37   15.834409 0.579420 -0.284600 -0.088684 0.040687 0.303034
 38   1.139685 -3.453749 -2.823813 0.000000 0.000000 0.000001
 39   -4.457742 -1.054854 -0.746180 0.000000 0.000000 0.000000
 40   1.118101 -3.449769 3.237290 0.000000 0.000001 0.000000
 41   -4.433840 -1.059130 0.959566 -0.000001 0.000000 0.000000
 42   -0.657468 1.697302 -2.688614 0.000000 0.000002 0.000000
 43   -0.664068 1.698578 2.869377 0.000000 0.000002 0.000000
time 28
  0   0.001233 0.187506 0.766019 0.000000 0.000000 -1.571449
  1   -1.093036 0.000002 -0.326057 -1.570809 -1.570379 0.000119
  2   2.262337 0.113614 0.064702 -0.000052 0.000061 -0.260847
  3   2.380047 0.353302 0.047440 -0.261678 -0.001922 -0.008489
  4   2.033756 0.190472 -0.000128 -0.000010 0.000024 -0.029965
  5   2.451511 0.204909 -0.003447 0.000000 -0.000005 -0.017472
  6   7.247600 -0.397300 -0.109469 0.000001 0.000009 -0.209345
  7   -2.022252 -0.104661 3.136172 0.872410 -1.250045 -3.778995
  8   1.168026 -0.537438 -0.063437 -0.454942 1.039711 -1.037724
  9   6.790376 -0.619176 0.015206 -0.000213 -0.000352 -2.133165
 10   8.637599 0.544015 -0.090417 -1.068583 -0.402905 -0.134826
 11   6.790465 -0.619039 0.017802 0.005381 -0.011935 -1.508573
 12   -2.022474 -0.104699 -2.873818 -1.140341 1.097450 -4.026750
 13   1.167898 -0.537463 0.063297 -0.312528 -1.027037 0.453920
 14   7.002743 -0.617765 -0.183752 0.000229 0.000250 -2.415017
 15   8.209042 0.615527 -0.255885 1.510555 0.765006 -0.200505
 16   7.002735 -0.617911 -0.183641 0.011944 0.013909 -1.709145
 17   1.574674 0.609930 -0.000899 0.260984 0.017876 0.196957
 18   -0.602177 0.511412 -0.000006 0.000000 0.000000 0.000000
 19   3.673773 0.177020 1.119313 -0.000002 -0.000014 -0.174510
 20   3.673767 0.176993 -1.117566 0.000007 -0.000003 -0.174546
 21   3.942357 1.330634 1.627658 0.000002 -0.000011 -0.000026
 22   -0.246060 -0.011889 0.516521 -0.000011 0.000031 0.000025
 23   3.942374 1.330659 -1.631083 0.000019 0.000002 -0.000024
 24   -0.246150 -0.011872 -0.516511 -0.000005 -0.000006 0.000048
 25   4.941364 1.997338 1.629330 0.000018 -0.000001 -0.000024
 26   4.941382 1.997366 -1.629410 -0.000001 0.000005 -0.000024
 27   2.918368 1.615358 1.514501 -0.000019 -0.000022 -0.000050
 28   2.920798 1.614964 -1.501142 -0.000002 -0.000009 -0.000024
 29   8.824059 0.150544 0.091743 0.000006 -0.000231 -0.174534
 30   2.111085 -0.561179 1.784320 -0.000008 -0.000682 0.000024
 31   2.121290 -0.561289 -1.853599 0.000000 0.000000 -0.000002
 32   -0.810489 -0.093824 3.127092 -0.127066 -2.972949 -0.339484
 33   14.298673 -0.408176 0.475484 -0.000088 -0.000042 -0.466017
 34   15.835795 0.581398 0.242756 0.161973 -0.014398 0.037218
 35   -0.815868 -0.091229 -3.114430 0.093748 3.000904 -0.046347
 36   14.294526 -0.410349 -0.463635 0.000081 0.000060 -0.431343
 37   15.834409 0.579420 -0.284600 -0.088684 0.040431 0.294567
 38   1.139685 -3.453749 -2.823813 0.000000 0.000000 0.000001
 39   -4.457742 -1.054854 -0.746180 0.000000 0.000000 0.000000
 40   1.118101 -3.449769 3.237290 0.000000 0.000001 0.000000
 41   -4.433840 -1.059130 0.959566 -0.000001 0.000000 0.000000
 42   -0.657468 1.697302 -2.688614 0.000000 0.000002 0.000000
 43   -0.664068 1.698578 2.869377 0.000000 0.000002 0.000000
time 29
  0   0.001233 0.187506 0.824615 0.000000 0.000000 -1.571449
  1   -1.093036 0.000002 -0.326057 -1.570809 -1.570379 0.000119
  2   2.262337 0.113614 0.064702 -0.000052 0.000061 -0.260847
  3   2.380047 0.353302 0.047440 -0.261678 -0.001922 -0.008489
  4   2.033756 0.190472 -0.000128 -0.000010 0.000024 -0.032611
  5   2.451511 0.204909 -0.003447 0.000000 -0.000005 -0.017472
  6   7.247600 -0.397300 -0.109469 0.000001 0.000009 -0.209345
  7   -2.022252 -0.104661 3.136172 0.885063 -1.253533 -3.792049
  8   1.168026 -0.537438 -0.063437 -0.462662 1.044994 -1.043860
  9   6.790376 -0.619176 0.015206 -0.000213 -0.000352 -2.133165
 10   8.637599 0.544015 -0.090417 -1.068583 -0.402905 -0.134826
 11   6.790465 -0.619039 0.017802 0.005381 -0.011935 -1.508573
 12   -2.022474 -0.104699 -2.873818 -1.150305 1.099859 -4.038048
 13   1.167898 -0.537463 0.063297 -0.322159 -1.031969 0.463061
 14   7.002743 -0.617765 -0.183752 0.000229 0.000250 -2.415017
 15   8.209042 0.615527 -0.255885 1.510555 0.765006 -0.200505
 16   7.002735 -0.617911 -0.183641 0.011991 0.013909 -1.709145
 17   1.574674 0.609930 -0.000899 0.260984 0.017876 0.199693
 18   -0.602177 0.511412 -0.000006 0.000000 0.000000 0.000000
 19   3.673773 0.177020 1.119313 -0.000002 -0.000014 -0.174510
 20   3.673767 0.176993 -1.117566 0.000007 -0.000003 -0.174546
 21   3.942357 1.330634 1.627658 0.000002 -0.000011 -0.000026
 22   -0.246060 -0.011889 0.516521 -0.000011 0.000031 0.000025
 23   3.942374 1.330659 -1.631083 0.000019 0.000002 -0.000024
 24   -0.246150 -0.011872 -0.516511 -0.000005 -0.000006 0.000048
 25   4.941364 1.997338 1.629330 0.000018 -0.000001 -0.000024
 26   4.941382 1.997366 -1.629410 -0.000001 0.000005 -0.000024
 27   2.918368 1.615358 1.514501 -0.000019 -0.000022 -0.000050
 28   2.920798 1.614964 -1.501142 -0.000002 -0.000009 -0.000024
 29   8.824059 0.150544 0.091743 0.000006 -0.000231 -0.174534
 30   2.111085 -0.561179 1.784320 -0.000008 -0.000682 0.000024
 31   2.121290 -0.561289 -1.853599 0.000000 0.000000 -0.000002
 32   -0.810489 -0.093824 3.127092 -0.128091 -2.974191 -0.331572
 33   14.298673 -0.408176 0.475484 -0.000088 -0.000042 -0.450852
 34   15.835795 0.581398 0.242756 0.162042 -0.014178 0.029632
 35   -0.815868 -0.091229 -3.114430 0.095245 3.001841 -0.038678
 36   14.294526 -0.410349 -0.463635 0.000081 0.000060 -0.414890
 37   15.834409 0.579420 -0.284600 -0.088684 0.040226 0.286049
 38   1.139685 -3.453749 -2.823813 0.000000 0.000000 0.000001
 39   -4.457742 -1.054854 -0.746180 0.000000 0.000000 0.000000
 40   1.118101 -3.449769 3.237290 0.000000 0.000001 0.000000
 41   -4.433840 -1.059130 0.959566 -0.000001 0.000000 0.000000
 42   -0.657468 1.697302 -2.688614 0.000000 0.000002 0.000000
 43   -0.664068 1.698578 2.869377 0.000000 0.000002 0.000000
time 30
  0   0.001233 0.187506 0.867585 0.000000 0.000000 -1.571449
  1   -1.093036 0.000002 -0.326057 -1.570809 -1.570379 0.000119
  2   2.262337 0.113614 0.064702 -0.000052 0.000061 -0.260847
  3   2.380047 0.353302 0.047440 -0.261678 -0.001922 -0.008489
  4   2.033756 0.190472 -0.000128 -0.000010 0.000024 -0.035003
  5   2.451511 0.204909 -0.003447 0.000000 -0.000005 -0.017472
  6   7.247600 -0.397300 -0.109469 0.000001 0.000009 -0.209345
  7   -2.022252 -0.104661 3.136172 0.897045 -1.256502 -3.804821
  8   1.168026 -0.537438 -0.063437 -0.469876 1.049673 -1.049553
  9   6.790376 -0.619176 0.015206 -0.000213 -0.000352 -2.133165
 10   8.637599 0.544015 -0.090417 -1.068583 -0.402905 -0.134826
 11   6.790465 -0.619039 0.017802 0.005381 -0.011935 -1.508573
 12   -2.022474 -0.104699 -2.873818 -1.158831 1.101687 -4.048005
 13   1.167898 -0.537463 0.063297 -0.331297 -1.036241 0.471233
 14   7.002743 -0.617765 -0.183752 0.000229 0.000250 -2.415017
 15   8.209042 0.615527 -0.255885 1.510555 0.765006 -0.200505
 16   7.002735 -0.617911 -0.183641 0.011991 0.013909 -1.709145
 17   1.574674 0.609930 -0.000899 0.260984 0.017876 0.201947
 18   -0.602177 0.511412 -0.000006 0.000000 0.000000 0.000000
 19   3.673773 0.177020 1.119313 -0.000002 -0.000014 -0.174510
 20   3.673767 0.176993 -1.117566 0.000007 -0.000003 -0.174546
 21   3.942357 1.330634 1.627658 0.000002 -0.000011 -0.000026
 22   -0.246060 -0.011889 0.516521 -0.000011 0.000031 0.000025
 23   3.942374 1.330659 -1.631083 0.000019 0.000002 -0.000024
 24   -0.246150 -0.011872 -0.516511 -0.000005 -0.000006 0.000048
 25   4.941364 1.997338 1.629330 0.000018 -0.000001 -0.000024
 26   4.941382 1.997366 -1.629410 -0.000001 0.000005 -0.000024
 27   2.918368 1.615358 1.514501 -0.000019 -0.000022 -0.000050
 28   2.920798 1.614964 -1.501142 -0.000002 -0.000009 -0.000024
 29   8.824059 0.150544 0.091743 0.000006 -0.000231 -0.174534
 30   2.111085 -0.561179 1.784320 -0.000008 -0.000682 0.000024
 31   2.121290 -0.561289 -1.853599 0.000000 0.000000 -0.000002
 32   -0.810489 -0.093824 3.127092 -0.129583 -2.975432 -0.324172
 33   14.298673 -0.408176 0.475484 -0.000088 -0.000042 -0.436243
 34   15.835795 0.581398 0.242756 0.162134 -0.013934 0.022664
 35   -0.815868 -0.091229 -3.114430 0.096037 3.002497 -0.031283
 36   14.294526 -0.410349 -0.463635 0.000081 0.000060 -0.399441
 37   15.834409 0.579420 -0.284600 -0.088763 0.039970 0.278038
 38   1.139685 -3.453749 -2.823813 0.000000 0.000000 0.000001
 39   -4.457742 -1.054854 -0.746180 0.000000 0.000000 0.000000
 40   1.118101 -3.449769 3.237290 0.000000 0.000001 0.000000
 41   -4.433840 -1.059130 0.959566 -0.000001 0.000000 0.000000
 42   -0.657468 1.697302 -2.688614 0.000000 0.000002 0.000000
 43   -0.664068 1.698578 2.869377 0.000000 0.000002 0.000000
end
