version 1
nodes
  0 "Bip01" -1
  1 "Bip01 Pelvis" 0
  2 "Bip01 Spine" 1
  3 "Bip01 Spine1" 2
  4 "Bip01 Spine2" 3
  5 "Bip01 Spine3" 4
  6 "Bip01 Neck" 5
  7 "Bip01 L Arm" 6
  8 "Bip01 L Arm1" 7
  9 "Bip01 L Arm2" 8
 10 "Bip01 L Hand" 9
 11 "Bip06 L elbow2-smooth" 8
 12 "Bip01 R Arm" 6
 13 "Bip01 R Arm1" 12
 14 "Bip01 R Arm2" 13
 15 "Bip01 R Hand" 14
 16 "Bip06 R elbow2-smooth" 13
 17 "Bip01 Head" 6
 18 "Bip06 Head_helper" 17
 19 "Bip06 Head_eyes_l" 18
 20 "Bip06 Head_eyes_r" 18
 21 "Bip06 Head_blink_l" 18
 22 "Bip06 Head_blink_smooth_l1" 21
 23 "Bip06 Head_blink_r" 18
 24 "Bip06 Head_blink_smooth_r1" 23
 25 "Bip06 Head_L_eyebrow" 18
 26 "Bip06 Head_R_eyebrow" 18
 27 "Bip06 Head_blink_l_lid" 18
 28 "Bip06 Head_blink_r_lid" 18
 29 "Bip06 bunny" 18
 30 "Bip06 bunnyL" 29
 31 "Bip06 bunnyR" 29
 32 "Bip01 L Leg" 1
 33 "Bip01 L Leg1" 32
 34 "Bip01 L Foot" 33
 35 "Bip01 R Leg" 1
 36 "Bip01 R Leg1" 35
 37 "Bip01 R Foot" 36
 38 "Bip03 HairR1" 17
 39 "Bip03 HairR2" 38
 40 "Bip03 HairL1" 17
 41 "Bip03 HairL2" 40
 42 "Bip03 swingR" 17
 43 "Bip03 swingL" 17
end
skeleton
time 0
  0   -0.010486 -0.546892 -0.601210 0.000000 0.000000 -1.571449
  1   -1.093036 0.000002 -0.326057 -0.214108 -1.569036 -1.356583
  2   2.262337 0.113614 0.064702 -0.075458 -0.097722 -0.086825
  3   2.380047 0.353302 0.047440 -0.149065 -0.036401 -0.081867
  4   2.033756 0.190472 -0.000128 -0.181651 -0.050167 -0.385367
  5   2.451511 0.204909 -0.003447 -0.421126 -0.013021 -0.379988
  6   7.247600 -0.397300 -0.109469 0.000001 0.000021 0.156829
  7   -2.022252 -0.104661 3.136172 0.479200 -1.239293 -3.683015
  8   1.168026 -0.537438 -0.063437 -0.721606 0.746580 -0.636273
  9   6.790376 -0.619176 0.015206 0.037014 0.045299 -1.050207
 10   8.637599 0.544015 -0.090417 -3.614626 0.247151 0.266830
 11   6.790465 -0.619039 0.017802 0.031599 0.016632 -0.750610
 12   -2.022474 -0.104699 -2.873818 -2.272684 1.443299 -5.613372
 13   1.167898 -0.537463 0.063297 -0.112963 -1.062023 -0.750601
 14   7.002743 -0.617765 -0.183752 0.019757 -0.136374 -1.725024
 15   8.209042 0.615527 -0.255885 2.609303 0.311352 0.455954
 16   7.002735 -0.617911 -0.183641 0.002246 -0.092383 -1.224387
 17   1.574674 0.609930 -0.000899 0.562223 0.005286 0.597430
 18   -0.602177 0.511412 -0.000006 0.000000 0.000000 0.000000
 19   3.673773 0.177020 1.119313 -0.000002 -0.000014 -0.174510
 20   3.673767 0.176993 -1.117566 0.000007 -0.000003 -0.174546
 21   3.942357 1.330634 1.627658 0.000002 -0.000011 -0.000026
 22   -0.246060 -0.011889 0.516521 -0.000011 0.000031 0.000025
 23   3.942374 1.330659 -1.631083 0.000019 0.000002 -0.000024
 24   -0.246150 -0.011872 -0.516511 -0.000005 -0.000006 0.000048
 25   4.941364 1.997338 1.629330 0.000018 -0.000001 -0.000024
 26   4.941382 1.997366 -1.629410 -0.000001 0.000005 -0.000024
 27   2.918368 1.615358 1.514501 -0.000019 -0.000022 -0.000050
 28   2.920798 1.614964 -1.501142 -0.000002 -0.000009 -0.000024
 29   8.824059 0.150544 0.091743 0.000006 -0.000231 -0.174534
 30   2.111085 -0.561179 1.784320 -0.000008 -0.000682 0.000024
 31   2.121290 -0.561289 -1.853599 0.000000 0.000000 -0.000002
 32   -0.810489 -0.093824 3.127092 0.564080 -3.064347 -0.563586
 33   14.298673 -0.408176 0.475484 -0.006392 -0.009799 -0.413535
 34   15.835795 0.581398 0.242756 -0.007436 -0.212263 -0.117847
 35   -0.815868 -0.091229 -3.114430 -0.120039 3.021422 -0.057357
 36   14.294526 -0.410349 -0.463635 0.001663 0.012787 -0.721549
 37   15.834409 0.579420 -0.284600 -0.182270 -0.002314 0.569929
 38   1.139685 -3.453749 -2.823813 0.000000 0.000000 0.000001
 39   -4.457742 -1.054854 -0.746180 0.000000 0.000000 0.000000
 40   1.118101 -3.449769 3.237290 0.000000 0.000001 0.000000
 41   -4.433840 -1.059130 0.959566 -0.000001 0.000000 0.000000
 42   -0.657468 1.697302 -2.688614 0.000000 0.000002 0.000000
 43   -0.664068 1.698578 2.869377 0.000000 0.000002 0.000000
time 1
  0   -0.010486 -0.546892 -0.601210 0.000000 0.000000 -1.571449
  1   -1.093036 0.000002 -0.326057 -0.214108 -1.569036 -1.356583
  2   2.262337 0.113614 0.064702 -0.075458 -0.097722 -0.086825
  3   2.380047 0.353302 0.047440 -0.149065 -0.036401 -0.081867
  4   2.033756 0.190472 -0.000128 -0.215899 -0.052516 -0.379060
  5   2.451511 0.204909 -0.003447 -0.526754 -0.032161 -0.393387
  6   7.247600 -0.397300 -0.109469 0.000001 0.000021 0.156829
  7   -2.022252 -0.104661 3.136172 0.307039 -1.128801 -3.400054
  8   1.168026 -0.537438 -0.063437 -0.252065 0.816869 -0.093056
  9   6.790376 -0.619176 0.015206 0.001063 0.058446 -1.715377
 10   8.637599 0.544015 -0.090417 -3.614626 0.247151 0.266830
 11   6.790465 -0.619039 0.017802 0.015074 0.030191 -1.215700
 12   -2.022474 -0.104699 -2.873818 -0.363154 1.704949 -3.690986
 13   1.167898 -0.537463 0.063297 -0.861666 -0.823828 -0.277643
 14   7.002743 -0.617765 -0.183752 0.078512 -0.113376 -2.189612
 15   8.209042 0.615527 -0.255885 2.554369 0.480451 0.355585
 16   7.002735 -0.617911 -0.183641 0.042542 -0.090184 -1.548976
 17   1.574674 0.609930 -0.000899 0.637695 -0.038025 0.590777
 18   -0.602177 0.511412 -0.000006 0.000000 0.000000 0.000000
 19   3.673773 0.177020 1.119313 -0.000002 -0.000014 -0.174510
 20   3.673767 0.176993 -1.117566 0.000007 -0.000003 -0.174546
 21   3.942357 1.330634 1.627658 0.000002 -0.000011 -0.000026
 22   -0.246060 -0.011889 0.516521 -0.000011 0.000031 0.000025
 23   3.942374 1.330659 -1.631083 0.000019 0.000002 -0.000024
 24   -0.246150 -0.011872 -0.516511 -0.000005 -0.000006 0.000048
 25   4.941364 1.997338 1.629330 0.000018 -0.000001 -0.000024
 26   4.941382 1.997366 -1.629410 -0.000001 0.000005 -0.000024
 27   2.918368 1.615358 1.514501 -0.000019 -0.000022 -0.000050
 28   2.920798 1.614964 -1.501142 -0.000002 -0.000009 -0.000024
 29   8.824059 0.150544 0.091743 0.000006 -0.000231 -0.174534
 30   2.111085 -0.561179 1.784320 -0.000008 -0.000682 0.000024
 31   2.121290 -0.561289 -1.853599 0.000000 0.000000 -0.000002
 32   -0.810489 -0.093824 3.127092 0.564080 -3.064347 -0.563586
 33   14.298673 -0.408176 0.475484 -0.006392 -0.009799 -0.413535
 34   15.835795 0.581398 0.242756 -0.007436 -0.212263 -0.117847
 35   -0.815868 -0.091229 -3.114430 -0.120039 3.021422 -0.057357
 36   14.294526 -0.410349 -0.463635 0.001663 0.012787 -0.721549
 37   15.834409 0.579420 -0.284600 -0.182270 -0.002314 0.569929
 38   1.139685 -3.453749 -2.823813 0.000000 0.000000 0.000001
 39   -4.457742 -1.054854 -0.746180 0.000000 0.000000 0.000000
 40   1.118101 -3.449769 3.237290 0.000000 0.000001 0.000000
 41   -4.433840 -1.059130 0.959566 -0.000001 0.000000 0.000000
 42   -0.657468 1.697302 -2.688614 0.000000 0.000002 0.000000
 43   -0.664068 1.698578 2.869377 0.000000 0.000002 0.000000
time 2
  0   -0.010486 -0.546892 -0.601210 0.000000 0.000000 -1.571449
  1   -1.093036 0.000002 -0.326057 -0.214108 -1.569036 -1.356583
  2   2.262337 0.113614 0.064702 -0.075458 -0.097722 -0.086825
  3   2.380047 0.353302 0.047440 -0.149065 -0.036401 -0.081867
  4   2.033756 0.190472 -0.000128 -0.213151 -0.052373 -0.379495
  5   2.451511 0.204909 -0.003447 -0.518247 -0.030568 -0.392445
  6   7.247600 -0.397300 -0.109469 0.000001 0.000021 0.156829
  7   -2.022252 -0.104661 3.136172 0.323815 -1.145002 -3.432078
  8   1.168026 -0.537438 -0.063437 -0.320408 0.818177 -0.171499
  9   6.790376 -0.619176 0.015206 0.006278 0.058180 -1.624514
 10   8.637599 0.544015 -0.090417 -3.614626 0.247151 0.266830
 11   6.790465 -0.619039 0.017802 0.017760 0.028940 -1.152085
 12   -2.022474 -0.104699 -2.873818 -0.227012 1.693514 -3.556566
 13   1.167898 -0.537463 0.063297 -0.783710 -0.866646 -0.316143
 14   7.002743 -0.617765 -0.183752 0.071110 -0.118146 -2.125918
 15   8.209042 0.615527 -0.255885 2.563357 0.457374 0.370499
 16   7.002735 -0.617911 -0.183641 0.036940 -0.091368 -1.504380
 17   1.574674 0.609930 -0.000899 0.631603 -0.034593 0.591442
 18   -0.602177 0.511412 -0.000006 0.000000 0.000000 0.000000
 19   3.673773 0.177020 1.119313 -0.000002 -0.000014 -0.174510
 20   3.673767 0.176993 -1.117566 0.000007 -0.000003 -0.174546
 21   3.942357 1.330634 1.627658 0.000002 -0.000011 -0.000026
 22   -0.246060 -0.011889 0.516521 -0.000011 0.000031 0.000025
 23   3.942374 1.330659 -1.631083 0.000019 0.000002 -0.000024
 24   -0.246150 -0.011872 -0.516511 -0.000005 -0.000006 0.000048
 25   4.941364 1.997338 1.629330 0.000018 -0.000001 -0.000024
 26   4.941382 1.997366 -1.629410 -0.000001 0.000005 -0.000024
 27   2.918368 1.615358 1.514501 -0.000019 -0.000022 -0.000050
 28   2.920798 1.614964 -1.501142 -0.000002 -0.000009 -0.000024
 29   8.824059 0.150544 0.091743 0.000006 -0.000231 -0.174534
 30   2.111085 -0.561179 1.784320 -0.000008 -0.000682 0.000024
 31   2.121290 -0.561289 -1.853599 0.000000 0.000000 -0.000002
 32   -0.810489 -0.093824 3.127092 0.564080 -3.064347 -0.563586
 33   14.298673 -0.408176 0.475484 -0.006392 -0.009799 -0.413535
 34   15.835795 0.581398 0.242756 -0.007436 -0.212263 -0.117847
 35   -0.815868 -0.091229 -3.114430 -0.120039 3.021422 -0.057357
 36   14.294526 -0.410349 -0.463635 0.001663 0.012787 -0.721549
 37   15.834409 0.579420 -0.284600 -0.182270 -0.002314 0.569929
 38   1.139685 -3.453749 -2.823813 0.000000 0.000000 0.000001
 39   -4.457742 -1.054854 -0.746180 0.000000 0.000000 0.000000
 40   1.118101 -3.449769 3.237290 0.000000 0.000001 0.000000
 41   -4.433840 -1.059130 0.959566 -0.000001 0.000000 0.000000
 42   -0.657468 1.697302 -2.688614 0.000000 0.000002 0.000000
 43   -0.664068 1.698578 2.869377 0.000000 0.000002 0.000000
time 3
  0   -0.010486 -0.546892 -0.601210 0.000000 0.000000 -1.571449
  1   -1.093036 0.000002 -0.326057 -0.214108 -1.569036 -1.356583
  2   2.262337 0.113614 0.064702 -0.075458 -0.097722 -0.086825
  3   2.380047 0.353302 0.047440 -0.149065 -0.036401 -0.081867
  4   2.033756 0.190472 -0.000128 -0.206235 -0.051881 -0.380836
  5   2.451511 0.204909 -0.003447 -0.496988 -0.026625 -0.389895
  6   7.247600 -0.397300 -0.109469 0.000001 0.000021 0.156829
  7   -2.022252 -0.104661 3.136172 0.376920 -1.186252 -3.525334
  8   1.168026 -0.537438 -0.063437 -0.497846 0.804240 -0.375577
  9   6.790376 -0.619176 0.015206 0.020148 0.054843 -1.382792
 10   8.637599 0.544015 -0.090417 -3.614626 0.247151 0.266830
 11   6.790465 -0.619039 0.017802 0.024329 0.024591 -0.983039
 12   -2.022474 -0.104699 -2.873818 3.375430 1.463557 0.041289
 13   1.167898 -0.537463 0.063297 -0.543655 -0.967996 -0.454889
 14   7.002743 -0.617765 -0.183752 0.050501 -0.128253 -1.957689
 15   8.209042 0.615527 -0.255885 2.584568 0.396393 0.407965
 16   7.002735 -0.617911 -0.183641 0.022159 -0.093116 -1.386709
 17   1.574674 0.609930 -0.000899 0.616329 -0.025813 0.592958
 18   -0.602177 0.511412 -0.000006 0.000000 0.000000 0.000000
 19   3.673773 0.177020 1.119313 -0.000002 -0.000014 -0.174510
 20   3.673767 0.176993 -1.117566 0.000007 -0.000003 -0.174546
 21   3.942357 1.330634 1.627658 0.000002 -0.000011 -0.000026
 22   -0.246060 -0.011889 0.516521 -0.000011 0.000031 0.000025
 23   3.942374 1.330659 -1.631083 0.000019 0.000002 -0.000024
 24   -0.246150 -0.011872 -0.516511 -0.000005 -0.000006 0.000048
 25   4.941364 1.997338 1.629330 0.000018 -0.000001 -0.000024
 26   4.941382 1.997366 -1.629410 -0.000001 0.000005 -0.000024
 27   2.918368 1.615358 1.514501 -0.000019 -0.000022 -0.000050
 28   2.920798 1.614964 -1.501142 -0.000002 -0.000009 -0.000024
 29   8.824059 0.150544 0.091743 0.000006 -0.000231 -0.174534
 30   2.111085 -0.561179 1.784320 -0.000008 -0.000682 0.000024
 31   2.121290 -0.561289 -1.853599 0.000000 0.000000 -0.000002
 32   -0.810489 -0.093824 3.127092 0.564080 -3.064347 -0.563586
 33   14.298673 -0.408176 0.475484 -0.006392 -0.009799 -0.413535
 34   15.835795 0.581398 0.242756 -0.007436 -0.212263 -0.117847
 35   -0.815868 -0.091229 -3.114430 -0.120039 3.021422 -0.057357
 36   14.294526 -0.410349 -0.463635 0.001663 0.012787 -0.721549
 37   15.834409 0.579420 -0.284600 -0.182270 -0.002314 0.569929
 38   1.139685 -3.453749 -2.823813 0.000000 0.000000 0.000001
 39   -4.457742 -1.054854 -0.746180 0.000000 0.000000 0.000000
 40   1.118101 -3.449769 3.237290 0.000000 0.000001 0.000000
 41   -4.433840 -1.059130 0.959566 -0.000001 0.000000 0.000000
 42   -0.657468 1.697302 -2.688614 0.000000 0.000002 0.000000
 43   -0.664068 1.698578 2.869377 0.000000 0.000002 0.000000
time 4
  0   -0.010486 -0.546892 -0.601210 0.000000 0.000000 -1.571449
  1   -1.093036 0.000002 -0.326057 -0.214108 -1.569036 -1.356583
  2   2.262337 0.113614 0.064702 -0.075458 -0.097722 -0.086825
  3   2.380047 0.353302 0.047440 -0.149065 -0.036401 -0.081867
  4   2.033756 0.190472 -0.000128 -0.197493 -0.051318 -0.382431
  5   2.451511 0.204909 -0.003447 -0.470046 -0.021690 -0.386427
  6   7.247600 -0.397300 -0.109469 0.000001 0.000021 0.156829
  7   -2.022252 -0.104661 3.136172 0.447088 -1.225283 -3.635495
  8   1.168026 -0.537438 -0.063437 -0.663388 0.766454 -0.567762
  9   6.790376 -0.619176 0.015206 0.032742 0.048369 -1.141145
 10   8.637599 0.544015 -0.090417 -3.614626 0.247151 0.266830
 11   6.790465 -0.619039 0.017802 0.029876 0.019048 -0.814110
 12   -2.022474 -0.104699 -2.873818 -2.423293 1.453254 -5.761675
 13   1.167898 -0.537463 0.063297 -0.242937 -1.043055 -0.657317
 14   7.002743 -0.617765 -0.183752 0.028354 -0.134954 -1.789048
 15   8.209042 0.615527 -0.255885 2.602832 0.334882 0.443145
 16   7.002735 -0.617911 -0.183641 0.007613 -0.092947 -1.269038
 17   1.574674 0.609930 -0.000899 0.597075 -0.014736 0.594806
 18   -0.602177 0.511412 -0.000006 0.000000 0.000000 0.000000
 19   3.673773 0.177020 1.119313 -0.000002 -0.000014 -0.174510
 20   3.673767 0.176993 -1.117566 0.000007 -0.000003 -0.174546
 21   3.942357 1.330634 1.627658 0.000002 -0.000011 -0.000026
 22   -0.246060 -0.011889 0.516521 -0.000011 0.000031 0.000025
 23   3.942374 1.330659 -1.631083 0.000019 0.000002 -0.000024
 24   -0.246150 -0.011872 -0.516511 -0.000005 -0.000006 0.000048
 25   4.941364 1.997338 1.629330 0.000018 -0.000001 -0.000024
 26   4.941382 1.997366 -1.629410 -0.000001 0.000005 -0.000024
 27   2.918368 1.615358 1.514501 -0.000019 -0.000022 -0.000050
 28   2.920798 1.614964 -1.501142 -0.000002 -0.000009 -0.000024
 29   8.824059 0.150544 0.091743 0.000006 -0.000231 -0.174534
 30   2.111085 -0.561179 1.784320 -0.000008 -0.000682 0.000024
 31   2.121290 -0.561289 -1.853599 0.000000 0.000000 -0.000002
 32   -0.810489 -0.093824 3.127092 0.564080 -3.064347 -0.563586
 33   14.298673 -0.408176 0.475484 -0.006392 -0.009799 -0.413535
 34   15.835795 0.581398 0.242756 -0.007436 -0.212263 -0.117847
 35   -0.815868 -0.091229 -3.114430 -0.120039 3.021422 -0.057357
 36   14.294526 -0.410349 -0.463635 0.001663 0.012787 -0.721549
 37   15.834409 0.579420 -0.284600 -0.182270 -0.002314 0.569929
 38   1.139685 -3.453749 -2.823813 0.000000 0.000000 0.000001
 39   -4.457742 -1.054854 -0.746180 0.000000 0.000000 0.000000
 40   1.118101 -3.449769 3.237290 0.000000 0.000001 0.000000
 41   -4.433840 -1.059130 0.959566 -0.000001 0.000000 0.000000
 42   -0.657468 1.697302 -2.688614 0.000000 0.000002 0.000000
 43   -0.664068 1.698578 2.869377 0.000000 0.000002 0.000000
time 5
  0   -0.010486 -0.546892 -0.601210 0.000000 0.000000 -1.571449
  1   -1.093036 0.000002 -0.326057 -0.214108 -1.569036 -1.356583
  2   2.262337 0.113614 0.064702 -0.075458 -0.097722 -0.086825
  3   2.380047 0.353302 0.047440 -0.149065 -0.036401 -0.081867
  4   2.033756 0.190472 -0.000128 -0.189360 -0.050743 -0.383917
  5   2.451511 0.204909 -0.003447 -0.444867 -0.017225 -0.383158
  6   7.247600 -0.397300 -0.109469 0.000001 0.000021 0.156829
  7   -2.022252 -0.104661 3.136172 0.479200 -1.239293 -3.683015
  8   1.168026 -0.537438 -0.063437 -0.721606 0.746580 -0.636273
  9   6.790376 -0.619176 0.015206 0.037014 0.045299 -1.050207
 10   8.637599 0.544015 -0.090417 -3.614626 0.247151 0.266830
 11   6.790465 -0.619039 0.017802 0.031599 0.016632 -0.750610
 12   -2.022474 -0.104699 -2.873818 -2.272684 1.443299 -5.613372
 13   1.167898 -0.537463 0.063297 -0.112963 -1.062023 -0.750601
 14   7.002743 -0.617765 -0.183752 0.019757 -0.136374 -1.725024
 15   8.209042 0.615527 -0.255885 2.609303 0.311352 0.455954
 16   7.002735 -0.617911 -0.183641 0.002246 -0.092383 -1.224387
 17   1.574674 0.609930 -0.000899 0.579121 -0.004370 0.596173
 18   -0.602177 0.511412 -0.000006 0.000000 0.000000 0.000000
 19   3.673773 0.177020 1.119313 -0.000002 -0.000014 -0.174510
 20   3.673767 0.176993 -1.117566 0.000007 -0.000003 -0.174546
 21   3.942357 1.330634 1.627658 0.000002 -0.000011 -0.000026
 22   -0.246060 -0.011889 0.516521 -0.000011 0.000031 0.000025
 23   3.942374 1.330659 -1.631083 0.000019 0.000002 -0.000024
 24   -0.246150 -0.011872 -0.516511 -0.000005 -0.000006 0.000048
 25   4.941364 1.997338 1.629330 0.000018 -0.000001 -0.000024
 26   4.941382 1.997366 -1.629410 -0.000001 0.000005 -0.000024
 27   2.918368 1.615358 1.514501 -0.000019 -0.000022 -0.000050
 28   2.920798 1.614964 -1.501142 -0.000002 -0.000009 -0.000024
 29   8.824059 0.150544 0.091743 0.000006 -0.000231 -0.174534
 30   2.111085 -0.561179 1.784320 -0.000008 -0.000682 0.000024
 31   2.121290 -0.561289 -1.853599 0.000000 0.000000 -0.000002
 32   -0.810489 -0.093824 3.127092 0.564080 -3.064347 -0.563586
 33   14.298673 -0.408176 0.475484 -0.006392 -0.009799 -0.413535
 34   15.835795 0.581398 0.242756 -0.007436 -0.212263 -0.117847
 35   -0.815868 -0.091229 -3.114430 -0.120039 3.021422 -0.057357
 36   14.294526 -0.410349 -0.463635 0.001663 0.012787 -0.721549
 37   15.834409 0.579420 -0.284600 -0.182270 -0.002314 0.569929
 38   1.139685 -3.453749 -2.823813 0.000000 0.000000 0.000001
 39   -4.457742 -1.054854 -0.746180 0.000000 0.000000 0.000000
 40   1.118101 -3.449769 3.237290 0.000000 0.000001 0.000000
 41   -4.433840 -1.059130 0.959566 -0.000001 0.000000 0.000000
 42   -0.657468 1.697302 -2.688614 0.000000 0.000002 0.000000
 43   -0.664068 1.698578 2.869377 0.000000 0.000002 0.000000
time 6
  0   -0.010486 -0.546892 -0.601210 0.000000 0.000000 -1.571449
  1   -1.093036 0.000002 -0.326057 -0.214108 -1.569036 -1.356583
  2   2.262337 0.113614 0.064702 -0.075458 -0.097722 -0.086825
  3   2.380047 0.353302 0.047440 -0.149065 -0.036401 -0.081867
  4   2.033756 0.190472 -0.000128 -0.183698 -0.050311 -0.384932
  5   2.451511 0.204909 -0.003447 -0.427425 -0.014144 -0.380830
  6   7.247600 -0.397300 -0.109469 0.000001 0.000021 0.156829
  7   -2.022252 -0.104661 3.136172 0.479200 -1.239293 -3.683015
  8   1.168026 -0.537438 -0.063437 -0.721606 0.746580 -0.636273
  9   6.790376 -0.619176 0.015206 0.037014 0.045299 -1.050207
 10   8.637599 0.544015 -0.090417 -3.614626 0.247151 0.266830
 11   6.790465 -0.619039 0.017802 0.031599 0.016632 -0.750610
 12   -2.022474 -0.104699 -2.873818 -2.272684 1.443299 -5.613372
 13   1.167898 -0.537463 0.063297 -0.112963 -1.062023 -0.750601
 14   7.002743 -0.617765 -0.183752 0.019757 -0.136374 -1.725024
 15   8.209042 0.615527 -0.255885 2.609303 0.311352 0.455954
 16   7.002735 -0.617911 -0.183641 0.002246 -0.092383 -1.224387
 17   1.574674 0.609930 -0.000899 0.566651 0.002682 0.597098
 18   -0.602177 0.511412 -0.000006 0.000000 0.000000 0.000000
 19   3.673773 0.177020 1.119313 -0.000002 -0.000014 -0.174510
 20   3.673767 0.176993 -1.117566 0.000007 -0.000003 -0.174546
 21   3.942357 1.330634 1.627658 0.000002 -0.000011 -0.000026
 22   -0.246060 -0.011889 0.516521 -0.000011 0.000031 0.000025
 23   3.942374 1.330659 -1.631083 0.000019 0.000002 -0.000024
 24   -0.246150 -0.011872 -0.516511 -0.000005 -0.000006 0.000048
 25   4.941364 1.997338 1.629330 0.000018 -0.000001 -0.000024
 26   4.941382 1.997366 -1.629410 -0.000001 0.000005 -0.000024
 27   2.918368 1.615358 1.514501 -0.000019 -0.000022 -0.000050
 28   2.920798 1.614964 -1.501142 -0.000002 -0.000009 -0.000024
 29   8.824059 0.150544 0.091743 0.000006 -0.000231 -0.174534
 30   2.111085 -0.561179 1.784320 -0.000008 -0.000682 0.000024
 31   2.121290 -0.561289 -1.853599 0.000000 0.000000 -0.000002
 32   -0.810489 -0.093824 3.127092 0.564080 -3.064347 -0.563586
 33   14.298673 -0.408176 0.475484 -0.006392 -0.009799 -0.413535
 34   15.835795 0.581398 0.242756 -0.007436 -0.212263 -0.117847
 35   -0.815868 -0.091229 -3.114430 -0.120039 3.021422 -0.057357
 36   14.294526 -0.410349 -0.463635 0.001663 0.012787 -0.721549
 37   15.834409 0.579420 -0.284600 -0.182270 -0.002314 0.569929
 38   1.139685 -3.453749 -2.823813 0.000000 0.000000 0.000001
 39   -4.457742 -1.054854 -0.746180 0.000000 0.000000 0.000000
 40   1.118101 -3.449769 3.237290 0.000000 0.000001 0.000000
 41   -4.433840 -1.059130 0.959566 -0.000001 0.000000 0.000000
 42   -0.657468 1.697302 -2.688614 0.000000 0.000002 0.000000
 43   -0.664068 1.698578 2.869377 0.000000 0.000002 0.000000
time 7
  0   -0.010486 -0.546892 -0.601210 0.000000 0.000000 -1.571449
  1   -1.093036 0.000002 -0.326057 -0.214108 -1.569036 -1.356583
  2   2.262337 0.113614 0.064702 -0.075458 -0.097722 -0.086825
  3   2.380047 0.353302 0.047440 -0.149065 -0.036401 -0.081867
  4   2.033756 0.190472 -0.000128 -0.181651 -0.050167 -0.385367
  5   2.451511 0.204909 -0.003447 -0.421126 -0.013021 -0.379988
  6   7.247600 -0.397300 -0.109469 0.000001 0.000021 0.156829
  7   -2.022252 -0.104661 3.136172 0.479200 -1.239293 -3.683015
  8   1.168026 -0.537438 -0.063437 -0.721606 0.746580 -0.636273
  9   6.790376 -0.619176 0.015206 0.037014 0.045299 -1.050207
 10   8.637599 0.544015 -0.090417 -3.614626 0.247151 0.266830
 11   6.790465 -0.619039 0.017802 0.031599 0.016632 -0.750610
 12   -2.022474 -0.104699 -2.873818 -2.272684 1.443299 -5.613372
 13   1.167898 -0.537463 0.063297 -0.112963 -1.062023 -0.750601
 14   7.002743 -0.617765 -0.183752 0.019757 -0.136374 -1.725024
 15   8.209042 0.615527 -0.255885 2.609303 0.311352 0.455954
 16   7.002735 -0.617911 -0.183641 0.002246 -0.092383 -1.224387
 17   1.574674 0.609930 -0.000899 0.562223 0.005286 0.597430
 18   -0.602177 0.511412 -0.000006 0.000000 0.000000 0.000000
 19   3.673773 0.177020 1.119313 -0.000002 -0.000014 -0.174510
 20   3.673767 0.176993 -1.117566 0.000007 -0.000003 -0.174546
 21   3.942357 1.330634 1.627658 0.000002 -0.000011 -0.000026
 22   -0.246060 -0.011889 0.516521 -0.000011 0.000031 0.000025
 23   3.942374 1.330659 -1.631083 0.000019 0.000002 -0.000024
 24   -0.246150 -0.011872 -0.516511 -0.000005 -0.000006 0.000048
 25   4.941364 1.997338 1.629330 0.000018 -0.000001 -0.000024
 26   4.941382 1.997366 -1.629410 -0.000001 0.000005 -0.000024
 27   2.918368 1.615358 1.514501 -0.000019 -0.000022 -0.000050
 28   2.920798 1.614964 -1.501142 -0.000002 -0.000009 -0.000024
 29   8.824059 0.150544 0.091743 0.000006 -0.000231 -0.174534
 30   2.111085 -0.561179 1.784320 -0.000008 -0.000682 0.000024
 31   2.121290 -0.561289 -1.853599 0.000000 0.000000 -0.000002
 32   -0.810489 -0.093824 3.127092 0.564080 -3.064347 -0.563586
 33   14.298673 -0.408176 0.475484 -0.006392 -0.009799 -0.413535
 34   15.835795 0.581398 0.242756 -0.007436 -0.212263 -0.117847
 35   -0.815868 -0.091229 -3.114430 -0.120039 3.021422 -0.057357
 36   14.294526 -0.410349 -0.463635 0.001663 0.012787 -0.721549
 37   15.834409 0.579420 -0.284600 -0.182270 -0.002314 0.569929
 38   1.139685 -3.453749 -2.823813 0.000000 0.000000 0.000001
 39   -4.457742 -1.054854 -0.746180 0.000000 0.000000 0.000000
 40   1.118101 -3.449769 3.237290 0.000000 0.000001 0.000000
 41   -4.433840 -1.059130 0.959566 -0.000001 0.000000 0.000000
 42   -0.657468 1.697302 -2.688614 0.000000 0.000002 0.000000
 43   -0.664068 1.698578 2.869377 0.000000 0.000002 0.000000
end
