version 1
nodes
  0 "Bip01" -1
  1 "Bip01 Pelvis" 0
  2 "Bip01 Spine" 1
  3 "Bip01 Spine1" 2
  4 "Bip01 Spine2" 3
  5 "Bip01 Spine3" 4
  6 "Bip01 Neck" 5
  7 "Bip01 L Arm" 6
  8 "Bip01 L Arm1" 7
  9 "Bip01 L Arm2" 8
 10 "Bip01 L Hand" 9
 11 "Bip06 L elbow2-smooth" 8
 12 "Bip01 R Arm" 6
 13 "Bip01 R Arm1" 12
 14 "Bip01 R Arm2" 13
 15 "Bip01 R Hand" 14
 16 "Bip06 R elbow2-smooth" 13
 17 "Bip01 Head" 6
 18 "Bip06 Head_helper" 17
 19 "Bip06 Head_eyes_l" 18
 20 "Bip06 Head_eyes_r" 18
 21 "Bip06 Head_blink_l" 18
 22 "Bip06 Head_blink_smooth_l1" 21
 23 "Bip06 Head_blink_r" 18
 24 "Bip06 Head_blink_smooth_r1" 23
 25 "Bip06 Head_L_eyebrow" 18
 26 "Bip06 Head_R_eyebrow" 18
 27 "Bip06 Head_blink_l_lid" 18
 28 "Bip06 Head_blink_r_lid" 18
 29 "Bip06 bunny" 18
 30 "Bip06 bunnyL" 29
 31 "Bip06 bunnyR" 29
 32 "Bip01 L Leg" 1
 33 "Bip01 L Leg1" 32
 34 "Bip01 L Foot" 33
 35 "Bip01 R Leg" 1
 36 "Bip01 R Leg1" 35
 37 "Bip01 R Foot" 36
 38 "Bip03 HairR1" 17
 39 "Bip03 HairR2" 38
 40 "Bip03 HairL1" 17
 41 "Bip03 HairL2" 40
 42 "Bip03 swingR" 17
 43 "Bip03 swingL" 17
end
skeleton
time 0
  0   0.001233 -0.019532 2.289504 0.000000 0.000000 -1.571829
  1   -1.093036 0.000002 -0.326057 -1.570757 -1.570379 -0.000123
  2   2.262337 0.113614 0.064702 -0.000052 0.000061 0.131363
  3   2.380047 0.353302 0.047440 -0.265923 0.048689 0.176508
  4   2.033756 0.190472 -0.000128 -0.261987 0.067090 0.243772
  5   2.451511 0.204909 -0.003447 -0.139451 -0.002120 -0.017422
  6   7.247600 -0.397300 -0.109469 0.000001 0.000033 0.052298
  7   -2.022252 -0.104661 3.136172 1.070165 -1.170888 -4.229592
  8   1.168026 -0.537438 -0.063437 -0.423808 0.284040 -0.655947
  9   6.790376 -0.619176 0.015206 -0.000213 -0.000151 -1.110807
 10   8.637599 0.544015 -0.090417 -4.300299 0.240886 0.178642
 11   6.790465 -0.619039 0.017802 0.000768 -0.011651 -0.792770
 12   -2.022474 -0.104699 -2.873818 0.298873 1.361829 -2.901792
 13   1.167898 -0.537463 0.063297 0.714399 -0.857289 -1.281854
 14   7.002743 -0.617765 -0.183752 0.000286 0.000250 -1.945396
 15   8.209042 0.615527 -0.255885 1.831745 -0.254128 1.079217
 16   7.002735 -0.617911 -0.183641 0.012979 0.010864 -1.380472
 17   1.574674 0.609930 -0.000899 0.701225 -0.325317 0.125844
 18   -0.602177 0.511412 -0.000006 0.000000 0.000000 0.000000
 19   3.646428 0.364526 1.119313 -0.000002 -0.000014 -0.174510
 20   3.646422 0.364499 -1.117566 0.000007 -0.000003 -0.174546
 21   3.805634 1.330634 1.627658 0.000002 -0.000011 -0.000026
 22   -0.246060 -0.011889 0.516521 -0.000011 0.000031 0.000025
 23   3.805651 1.330659 -1.631083 0.000019 0.000002 -0.000024
 24   -0.246150 -0.011872 -0.516511 -0.000005 -0.000006 0.000048
 25   4.941364 1.997338 1.629330 0.000018 -0.000001 -0.000024
 26   4.941382 1.997366 -1.629410 -0.000001 0.000005 -0.000024
 27   2.930087 1.603639 1.514501 -0.000019 -0.000022 -0.000050
 28   2.932517 1.603245 -1.501142 -0.000002 -0.000009 -0.000024
 29   8.824059 0.150544 0.091743 0.000006 -0.000231 -0.174534
 30   2.111085 -0.561179 1.784320 -0.000008 -0.000682 0.000024
 31   2.121290 -0.561289 -1.853599 0.000000 0.000000 -0.000002
 32   -0.810489 -0.093824 3.127092 0.338887 -3.077718 -0.167351
 33   14.298673 -0.408176 0.475484 0.013203 -0.091857 -0.496506
 34   15.835795 0.581398 0.242756 -0.532523 -0.064474 0.362871
 35   -0.815868 -0.091229 -3.114430 -0.002100 2.881638 -0.314968
 36   14.294526 -0.410349 -0.463635 -0.021444 0.095325 -0.575403
 37   15.834409 0.579420 -0.284600 -0.051525 0.043093 0.201376
 38   1.139685 -3.453749 -2.823813 0.000000 0.000000 0.000001
 39   -4.457742 -1.054854 -0.746180 0.000000 0.000000 0.000000
 40   1.118101 -3.449769 3.237290 0.000000 0.000001 0.000000
 41   -4.433840 -1.059130 0.959566 -0.000001 0.000000 0.000000
 42   -0.657468 1.697302 -2.688614 0.000000 0.000002 0.000000
 43   -0.664068 1.698578 2.869377 0.000000 0.000002 0.000000
time 1
  0   0.001233 -0.019532 2.289504 0.000000 0.000000 -1.571829
  1   -1.093036 0.000002 -0.326057 -1.570757 -1.570379 -0.000123
  2   2.262337 0.113614 0.064702 -0.000052 0.000061 0.131363
  3   2.380047 0.353302 0.047440 -0.265833 0.049301 0.178324
  4   2.033756 0.190472 -0.000128 -0.261987 0.067090 0.243772
  5   2.451511 0.204909 -0.003447 -0.139451 -0.001258 -0.011404
  6   7.247600 -0.397300 -0.109469 0.000001 0.000033 0.052298
  7   -2.022252 -0.104661 3.136172 1.057416 -1.167861 -4.215599
  8   1.168026 -0.537438 -0.063437 -0.423492 0.271864 -0.657149
  9   6.790376 -0.619176 0.015206 -0.000213 -0.000151 -1.110807
 10   8.637599 0.544015 -0.090417 -4.300299 0.240886 0.178642
 11   6.790465 -0.619039 0.017802 0.000768 -0.011651 -0.792770
 12   -2.022474 -0.104699 -2.873818 0.289867 1.355356 -2.910888
 13   1.167898 -0.537463 0.063297 0.709689 -0.848492 -1.279554
 14   7.002743 -0.617765 -0.183752 0.000286 0.000250 -1.945396
 15   8.209042 0.615527 -0.255885 1.831529 -0.252161 1.079698
 16   7.002735 -0.617911 -0.183641 0.012979 0.010864 -1.380472
 17   1.574674 0.609930 -0.000899 0.701429 -0.324607 0.117824
 18   -0.602177 0.511412 -0.000006 0.000000 0.000000 0.000000
 19   3.646428 0.364526 1.119313 -0.000002 -0.000014 -0.174510
 20   3.646422 0.364499 -1.117566 0.000007 -0.000003 -0.174546
 21   3.805634 1.330634 1.627658 0.000002 -0.000011 -0.000026
 22   -0.246060 -0.011889 0.516521 -0.000011 0.000031 0.000025
 23   3.805651 1.330659 -1.631083 0.000019 0.000002 -0.000024
 24   -0.246150 -0.011872 -0.516511 -0.000005 -0.000006 0.000048
 25   4.941364 1.997338 1.629330 0.000018 -0.000001 -0.000024
 26   4.941382 1.997366 -1.629410 -0.000001 0.000005 -0.000024
 27   2.930087 1.603639 1.514501 -0.000019 -0.000022 -0.000050
 28   2.932517 1.603245 -1.501142 -0.000002 -0.000009 -0.000024
 29   8.824059 0.150544 0.091743 0.000897 -0.000468 -0.171583
 30   2.111085 -0.561179 1.784320 -0.000022 0.001236 0.000153
 31   2.121290 -0.561289 -1.853599 0.000000 -0.002538 0.000107
 32   -0.810489 -0.093824 3.127092 0.338887 -3.077718 -0.167693
 33   14.298673 -0.408176 0.475484 0.013323 -0.091999 -0.496903
 34   15.835795 0.581398 0.242756 -0.532523 -0.064474 0.362871
 35   -0.815868 -0.091229 -3.114430 -0.002100 2.881638 -0.315352
 36   14.294526 -0.410349 -0.463635 -0.021540 0.095253 -0.575789
 37   15.834409 0.579420 -0.284600 -0.051525 0.043093 0.201376
 38   1.139685 -3.453749 -2.823813 0.000063 -0.000060 0.000123
 39   -4.457742 -1.054854 -0.746180 0.000132 0.000288 -0.001178
 40   1.118101 -3.449769 3.237290 -0.000021 -0.000071 0.000367
 41   -4.433840 -1.059130 0.959566 0.000011 0.000024 -0.000084
 42   -0.657468 1.697302 -2.688614 0.000863 0.001336 -0.000084
 43   -0.664068 1.698578 2.869377 -0.001000 -0.001504 0.000251
time 2
  0   0.001233 -0.019532 2.277784 0.000000 0.000000 -1.571829
  1   -1.093036 0.000002 -0.326057 -1.570757 -1.570379 -0.000123
  2   2.262337 0.113614 0.064702 -0.000052 0.000061 0.131363
  3   2.380047 0.353302 0.047440 -0.265728 0.049852 0.180242
  4   2.033756 0.190472 -0.000128 -0.261987 0.067090 0.243772
  5   2.451511 0.204909 -0.003447 -0.139451 -0.000358 -0.004569
  6   7.247600 -0.397300 -0.109469 0.000001 0.000033 0.052298
  7   -2.022252 -0.104661 3.136172 1.043804 -1.164517 -4.200479
  8   1.168026 -0.537438 -0.063437 -0.423175 0.258883 -0.658604
  9   6.790376 -0.619176 0.015206 -0.000213 -0.000151 -1.110807
 10   8.637599 0.544015 -0.090417 -4.300299 0.240886 0.178642
 11   6.790465 -0.619039 0.017802 0.000768 -0.011651 -0.792770
 12   -2.022474 -0.104699 -2.873818 0.280382 1.348245 -2.920845
 13   1.167898 -0.537463 0.063297 0.704347 -0.838626 -1.277859
 14   7.002743 -0.617765 -0.183752 0.000286 0.000250 -1.945396
 15   8.209042 0.615527 -0.255885 1.831242 -0.250193 1.080179
 16   7.002735 -0.617911 -0.183641 0.012979 0.010864 -1.380472
 17   1.574674 0.609930 -0.000899 0.701753 -0.323826 0.109323
 18   -0.602177 0.511412 -0.000006 0.000000 0.000000 0.000000
 19   3.646428 0.364526 1.119313 -0.000002 -0.000014 -0.174510
 20   3.646422 0.364499 -1.117566 0.000007 -0.000003 -0.174546
 21   3.805634 1.330634 1.627658 0.000002 -0.000011 -0.000026
 22   -0.246060 -0.011889 0.516521 -0.000011 0.000031 0.000025
 23   3.805651 1.330659 -1.631083 0.000019 0.000002 -0.000024
 24   -0.246150 -0.011872 -0.516511 -0.000005 -0.000006 0.000048
 25   4.941364 1.997338 1.629330 0.000018 -0.000001 -0.000024
 26   4.941382 1.997366 -1.629410 -0.000001 0.000005 -0.000024
 27   2.930087 1.603639 1.514501 -0.000019 -0.000022 -0.000050
 28   2.932517 1.603245 -1.501142 -0.000002 -0.000009 -0.000024
 29   8.824059 0.150544 0.091743 0.003838 -0.001323 -0.163053
 30   2.111085 -0.561179 1.784320 -0.000103 0.006728 0.000496
 31   2.121290 -0.561289 -1.853599 0.000000 -0.009765 0.000544
 32   -0.810489 -0.093824 3.127092 0.338887 -3.077718 -0.168604
 33   14.298673 -0.408176 0.475484 0.013671 -0.092387 -0.498491
 34   15.835795 0.581398 0.242756 -0.532523 -0.064474 0.362871
 35   -0.815868 -0.091229 -3.114430 -0.002100 2.881638 -0.316502
 36   14.294526 -0.410349 -0.463635 -0.021863 0.095050 -0.577334
 37   15.834409 0.579420 -0.284600 -0.051525 0.043093 0.201376
 38   1.139685 -3.453749 -2.823813 0.000400 -0.000277 0.000795
 39   -4.457742 -1.047041 -0.746180 0.000491 0.001127 -0.004459
 40   1.118101 -3.449769 3.237290 -0.000168 -0.000336 0.001405
 41   -4.433840 -1.051317 0.959566 0.000047 0.000108 -0.000449
 42   -0.657468 1.697302 -2.680801 0.003308 0.005169 -0.000418
 43   -0.664068 1.698578 2.861564 -0.003886 -0.005851 0.001004
time 3
  0   0.001233 -0.019532 2.266065 0.000000 0.000000 -1.571829
  1   -1.093036 0.000002 -0.326057 -1.570757 -1.570379 -0.000123
  2   2.262337 0.113614 0.064702 -0.000052 0.000061 0.131363
  3   2.380047 0.353302 0.047440 -0.265608 0.050283 0.182344
  4   2.033756 0.190472 -0.000128 -0.261987 0.067090 0.243772
  5   2.451511 0.204909 -0.003447 -0.139451 0.000361 0.002613
  6   7.247600 -0.397300 -0.109469 0.000001 0.000033 0.052298
  7   -2.022252 -0.104661 3.136172 1.029233 -1.160856 -4.185077
  8   1.168026 -0.537438 -0.063437 -0.422732 0.244946 -0.660312
  9   6.790376 -0.619176 0.015206 -0.000213 -0.000151 -1.110807
 10   8.637599 0.544015 -0.090417 -4.300299 0.240886 0.178642
 11   6.790465 -0.619039 0.017802 0.000768 -0.011651 -0.792770
 12   -2.022474 -0.104699 -2.873818 0.270993 1.340554 -2.930132
 13   1.167898 -0.537463 0.063297 0.698653 -0.828049 -1.275740
 14   7.002743 -0.617765 -0.183752 0.000286 0.000250 -1.945396
 15   8.209042 0.615527 -0.255885 1.830882 -0.248151 1.080781
 16   7.002735 -0.617911 -0.183641 0.012979 0.010864 -1.380472
 17   1.574674 0.609930 -0.000899 0.701957 -0.323045 0.099824
 18   -0.602177 0.511412 -0.000006 0.000000 0.000000 0.000000
 19   3.646428 0.364526 1.119313 -0.000002 -0.000014 -0.174510
 20   3.646422 0.364499 -1.117566 0.000007 -0.000003 -0.174546
 21   3.805634 1.330634 1.627658 0.000002 -0.000011 -0.000026
 22   -0.246060 -0.011889 0.516521 -0.000011 0.000031 0.000025
 23   3.805651 1.330659 -1.631083 0.000019 0.000002 -0.000024
 24   -0.246150 -0.011872 -0.516511 -0.000005 -0.000006 0.000048
 25   4.941364 1.997338 1.629330 0.000018 -0.000001 -0.000024
 26   4.941382 1.997366 -1.629410 -0.000001 0.000005 -0.000024
 27   2.930087 1.603639 1.514501 -0.000019 -0.000022 -0.000050
 28   2.932517 1.603245 -1.501142 -0.000002 -0.000009 -0.000024
 29   8.824059 0.150544 0.091743 0.008472 -0.002629 -0.149802
 30   2.111085 -0.561179 1.776507 -0.000225 0.015185 0.001075
 31   2.129103 -0.561289 -1.845786 0.000031 -0.020902 0.001163
 32   -0.810489 -0.093824 3.127092 0.338887 -3.077718 -0.170311
 33   14.298673 -0.408176 0.475484 0.014258 -0.093033 -0.500873
 34   15.835795 0.581398 0.242756 -0.532523 -0.064474 0.362871
 35   -0.815868 -0.091229 -3.114430 -0.002100 2.881638 -0.318036
 36   14.294526 -0.410349 -0.463635 -0.022427 0.094654 -0.579883
 37   15.834409 0.579420 -0.284600 -0.051525 0.043093 0.201376
 38   1.139685 -3.453749 -2.823813 0.000842 -0.000627 0.001895
 39   -4.457742 -1.027509 -0.746180 0.001091 0.002409 -0.009648
 40   1.118101 -3.449769 3.237290 -0.000400 -0.000746 0.003116
 41   -4.426027 -1.043504 0.959566 0.000107 0.000228 -0.000954
 42   -0.649655 1.697302 -2.661269 0.007095 0.011057 -0.001046
 43   -0.664068 1.698578 2.849845 -0.008309 -0.012520 0.002133
time 4
  0   0.001233 -0.019532 2.242627 0.000000 0.000000 -1.571829
  1   -1.093036 0.000002 -0.326057 -1.570757 -1.570379 -0.000123
  2   2.262337 0.113614 0.064702 -0.000052 0.000061 0.131363
  3   2.380047 0.353302 0.047440 -0.265533 0.050882 0.184507
  4   2.033756 0.190472 -0.000128 -0.261987 0.067090 0.243772
  5   2.451511 0.204909 -0.003447 -0.139451 0.001379 0.010117
  6   7.247600 -0.397300 -0.109469 0.000001 0.000033 0.052298
  7   -2.022252 -0.104661 3.136172 1.014471 -1.156936 -4.168829
  8   1.168026 -0.537438 -0.063437 -0.422289 0.230405 -0.661767
  9   6.790376 -0.619176 0.015206 -0.000213 -0.000151 -1.110807
 10   8.637599 0.544015 -0.090417 -4.300299 0.240886 0.178642
 11   6.790465 -0.619039 0.017802 0.000768 -0.011651 -0.792770
 12   -2.022474 -0.104699 -2.873818 0.261892 1.332659 -2.939419
 13   1.167898 -0.537463 0.063297 0.693240 -0.817065 -1.273803
 14   7.002743 -0.617765 -0.183752 0.000286 0.000250 -1.945396
 15   8.209042 0.615527 -0.255885 1.830666 -0.245956 1.081382
 16   7.002735 -0.617911 -0.183641 0.012979 0.010864 -1.380472
 17   1.574674 0.609930 -0.000899 0.702241 -0.322193 0.089955
 18   -0.602177 0.511412 -0.000006 0.000000 0.000000 0.000000
 19   3.646428 0.364526 1.119313 -0.000002 -0.000014 -0.174510
 20   3.646422 0.364499 -1.117566 0.000007 -0.000003 -0.174546
 21   3.805634 1.330634 1.627658 0.000002 -0.000011 -0.000026
 22   -0.246060 -0.011889 0.516521 -0.000011 0.000031 0.000025
 23   3.805651 1.330659 -1.631083 0.000019 0.000002 -0.000024
 24   -0.246150 -0.011872 -0.516511 -0.000005 -0.000006 0.000048
 25   4.941364 1.997338 1.629330 0.000018 -0.000001 -0.000024
 26   4.941382 1.997366 -1.629410 -0.000001 0.000005 -0.000024
 27   2.930087 1.603639 1.514501 -0.000019 -0.000022 -0.000050
 28   2.932517 1.603245 -1.501142 -0.000002 -0.000009 -0.000024
 29   8.824059 0.150544 0.091743 0.014265 -0.004409 -0.132849
 30   2.118898 -0.561179 1.764788 -0.000361 0.026111 0.001804
 31   2.133009 -0.561289 -1.837973 0.000046 -0.035330 0.001945
 32   -0.810489 -0.093824 3.127092 0.338887 -3.077718 -0.172873
 33   14.298673 -0.408176 0.475484 0.015049 -0.093976 -0.504446
 34   15.835795 0.581398 0.242756 -0.532523 -0.064474 0.362871
 35   -0.815868 -0.091229 -3.114430 -0.002100 2.881638 -0.320446
 36   14.294526 -0.410349 -0.463635 -0.023194 0.094175 -0.583436
 37   15.834409 0.579420 -0.284600 -0.051525 0.043093 0.201376
 38   1.147498 -3.453749 -2.823813 0.001410 -0.001073 0.003239
 39   -4.457742 -1.011884 -0.738367 0.001846 0.004075 -0.016267
 40   1.110288 -3.449769 3.237290 -0.000674 -0.001276 0.005254
 41   -4.410401 -1.031785 0.967379 0.000191 0.000384 -0.001599
 42   -0.649655 1.697302 -2.641737 0.011973 0.018631 -0.001756
 43   -0.664068 1.698578 2.830313 -0.014031 -0.021134 0.003638
time 5
  0   0.001233 -0.019532 2.215282 0.000000 0.000000 -1.571829
  1   -1.093036 0.000002 -0.326057 -1.570757 -1.570379 -0.000123
  2   2.262337 0.113614 0.064702 -0.000052 0.000061 0.131363
  3   2.380047 0.353302 0.047440 -0.265443 0.051626 0.186772
  4   2.033756 0.190472 -0.000128 -0.261987 0.067090 0.243772
  5   2.451511 0.204909 -0.003447 -0.139451 0.002580 0.017720
  6   7.247600 -0.397300 -0.109469 0.000001 0.000033 0.052298
  7   -2.022252 -0.104661 3.136172 0.999709 -1.152871 -4.152583
  8   1.168026 -0.537438 -0.063437 -0.421910 0.215814 -0.663728
  9   6.790376 -0.619176 0.015206 -0.000213 -0.000151 -1.110807
 10   8.637599 0.544015 -0.090417 -4.300299 0.240886 0.178642
 11   6.790465 -0.619039 0.017802 0.000768 -0.011651 -0.792770
 12   -2.022474 -0.104699 -2.873818 0.253269 1.324504 -2.948610
 13   1.167898 -0.537463 0.063297 0.687617 -0.806080 -1.272108
 14   7.002743 -0.617765 -0.183752 0.000286 0.000250 -1.945396
 15   8.209042 0.615527 -0.255885 1.830307 -0.243611 1.081863
 16   7.002735 -0.617911 -0.183641 0.012979 0.010864 -1.380472
 17   1.574674 0.609930 -0.000899 0.702566 -0.321341 0.080050
 18   -0.602177 0.511412 -0.000006 0.000000 0.000000 0.000000
 19   3.646428 0.364526 1.119313 -0.000002 -0.000014 -0.174510
 20   3.646422 0.364499 -1.117566 0.000007 -0.000003 -0.174546
 21   3.805634 1.330634 1.627658 0.000002 -0.000011 -0.000026
 22   -0.246060 -0.011889 0.516521 -0.000011 0.000031 0.000025
 23   3.805651 1.330659 -1.631083 0.000019 0.000002 -0.000024
 24   -0.246150 -0.011872 -0.516511 -0.000005 -0.000006 0.000048
 25   4.941364 1.997338 1.629330 0.000018 -0.000001 -0.000024
 26   4.941382 1.997366 -1.629410 -0.000001 0.000005 -0.000024
 27   2.930087 1.603639 1.514501 -0.000019 -0.000022 -0.000050
 28   2.932517 1.603245 -1.501142 -0.000002 -0.000009 -0.000024
 29   8.824059 0.150544 0.091743 0.021038 -0.006617 -0.112785
 30   2.122804 -0.561179 1.753069 -0.000537 0.038927 0.002640
 31   2.140822 -0.561289 -1.834067 0.000092 -0.052191 0.002891
 32   -0.810489 -0.093824 3.127092 0.338887 -3.077718 -0.175719
 33   14.298673 -0.408176 0.475484 0.016019 -0.095101 -0.508654
 34   15.835795 0.581398 0.242756 -0.532523 -0.064474 0.362871
 35   -0.815868 -0.091229 -3.114430 -0.002100 2.881638 -0.323404
 36   14.294526 -0.410349 -0.463635 -0.024128 0.093540 -0.587762
 37   15.834409 0.579420 -0.284600 -0.051525 0.043093 0.201376
 38   1.147498 -3.453749 -2.823813 0.002126 -0.001579 0.004766
 39   -4.457742 -0.992352 -0.734461 0.002721 0.006016 -0.024035
 40   1.110288 -3.449769 3.237290 -0.000989 -0.001903 0.007820
 41   -4.402589 -1.020066 0.967379 0.000287 0.000575 -0.002384
 42   -0.637936 1.697302 -2.618299 0.017689 0.027570 -0.002635
 43   -0.664068 1.690765 2.806875 -0.020753 -0.031240 0.005395
time 6
  0   0.001233 -0.019532 2.187938 0.000000 0.000000 -1.571829
  1   -1.093036 0.000002 -0.326057 -1.570757 -1.570379 -0.000123
  2   2.262337 0.113614 0.064702 -0.000052 0.000061 0.131363
  3   2.380047 0.353302 0.047440 -0.265338 0.052237 0.188996
  4   2.033756 0.190472 -0.000128 -0.261987 0.067090 0.243772
  5   2.451511 0.204909 -0.003447 -0.139434 0.003507 0.025323
  6   7.247600 -0.397300 -0.109469 0.000001 0.000033 0.052298
  7   -2.022252 -0.104661 3.136172 0.985139 -1.148518 -4.136711
  8   1.168026 -0.537438 -0.063437 -0.421467 0.200971 -0.665689
  9   6.790376 -0.619176 0.015206 -0.000213 -0.000151 -1.110807
 10   8.637599 0.544015 -0.090417 -4.300299 0.240886 0.178642
 11   6.790465 -0.619039 0.017802 0.000768 -0.011651 -0.792770
 12   -2.022474 -0.104699 -2.873818 0.245221 1.316290 -2.956844
 13   1.167898 -0.537463 0.063297 0.681923 -0.794842 -1.270776
 14   7.002743 -0.617765 -0.183752 0.000286 0.000250 -1.945396
 15   8.209042 0.615527 -0.255885 1.830019 -0.241493 1.082344
 16   7.002735 -0.617911 -0.183641 0.012979 0.010864 -1.380472
 17   1.574674 0.609930 -0.000899 0.702850 -0.320418 0.070107
 18   -0.602177 0.511412 -0.000006 0.000000 0.000000 0.000000
 19   3.646428 0.364526 1.119313 -0.000002 -0.000014 -0.174510
 20   3.646422 0.364499 -1.117566 0.000007 -0.000003 -0.174546
 21   3.805634 1.330634 1.627658 0.000002 -0.000011 -0.000026
 22   -0.246060 -0.011889 0.516521 -0.000011 0.000031 0.000025
 23   3.805651 1.330659 -1.631083 0.000019 0.000002 -0.000024
 24   -0.246150 -0.011872 -0.516511 -0.000005 -0.000006 0.000048
 25   4.941364 1.997338 1.629330 0.000018 -0.000001 -0.000024
 26   4.941382 1.997366 -1.629410 -0.000001 0.000005 -0.000024
 27   2.930087 1.603639 1.514501 -0.000019 -0.000022 -0.000050
 28   2.932517 1.603245 -1.501142 -0.000002 -0.000009 -0.000024
 29   8.824059 0.150544 0.091743 0.028525 -0.009228 -0.090682
 30   2.130617 -0.561179 1.741350 -0.000754 0.053079 0.003583
 31   2.152541 -0.561289 -1.822348 0.000138 -0.070866 0.003965
 32   -0.810489 -0.093824 3.127092 0.338887 -3.077718 -0.179134
 33   14.298673 -0.408176 0.475484 0.017134 -0.096419 -0.513656
 34   15.835795 0.581398 0.242756 -0.532523 -0.064474 0.362871
 35   -0.815868 -0.091229 -3.114430 -0.002100 2.881638 -0.326855
 36   14.294526 -0.410349 -0.463635 -0.025243 0.092785 -0.592860
 37   15.834409 0.579420 -0.284600 -0.051525 0.043093 0.201376
 38   1.155311 -3.453749 -2.823813 0.002884 -0.002145 0.006538
 39   -4.457742 -0.961101 -0.726648 0.003691 0.008162 -0.032645
 40   1.106382 -3.449769 3.237290 -0.001347 -0.002602 0.010692
 41   -4.386963 -1.000534 0.979098 0.000383 0.000791 -0.003225
 42   -0.637936 1.697302 -2.594861 0.024017 0.037413 -0.003597
 43   -0.664068 1.690765 2.787343 -0.028187 -0.042428 0.007319
time 7
  0   0.001233 -0.019532 2.160593 0.000000 0.000000 -1.571829
  1   -1.093036 0.000002 -0.326057 -1.570757 -1.570379 -0.000123
  2   2.262337 0.113614 0.064702 -0.000052 0.000061 0.131363
  3   2.380047 0.353302 0.047440 -0.265218 0.052692 0.191261
  4   2.033756 0.190472 -0.000128 -0.261987 0.067090 0.243772
  5   2.451511 0.204909 -0.003447 -0.139400 0.004708 0.032827
  6   7.247600 -0.397300 -0.109469 0.000001 0.000033 0.052298
  7   -2.022252 -0.104661 3.136172 0.971048 -1.144310 -4.121403
  8   1.168026 -0.537438 -0.063437 -0.420707 0.186531 -0.667397
  9   6.790376 -0.619176 0.015206 -0.000213 -0.000151 -1.110807
 10   8.637599 0.544015 -0.090417 -4.300299 0.240886 0.178642
 11   6.790465 -0.619039 0.017802 0.000768 -0.011651 -0.792770
 12   -2.022474 -0.104699 -2.873818 0.237557 1.308018 -2.964599
 13   1.167898 -0.537463 0.063297 0.676510 -0.784264 -1.269384
 14   7.002743 -0.617765 -0.183752 0.000286 0.000250 -1.945396
 15   8.209042 0.615527 -0.255885 1.829588 -0.239223 1.082765
 16   7.002735 -0.617911 -0.183641 0.012979 0.010864 -1.380472
 17   1.574674 0.609930 -0.000899 0.703135 -0.319566 0.060386
 18   -0.602177 0.511412 -0.000006 0.000000 0.000000 0.000000
 19   3.646428 0.364526 1.119313 -0.000002 -0.000014 -0.174510
 20   3.646422 0.364499 -1.117566 0.000007 -0.000003 -0.174546
 21   3.805634 1.330634 1.627658 0.000002 -0.000011 -0.000026
 22   -0.246060 -0.011889 0.516521 -0.000011 0.000031 0.000025
 23   3.805651 1.330659 -1.631083 0.000019 0.000002 -0.000024
 24   -0.246150 -0.011872 -0.516511 -0.000005 -0.000006 0.000048
 25   4.941364 1.997338 1.629330 0.000018 -0.000001 -0.000024
 26   4.941382 1.997366 -1.629410 -0.000001 0.000005 -0.000024
 27   2.930087 1.603639 1.514501 -0.000019 -0.000022 -0.000050
 28   2.932517 1.603245 -1.501142 -0.000002 -0.000009 -0.000024
 29   8.824059 0.150544 0.091743 0.036367 -0.012124 -0.067345
 30   2.138430 -0.561179 1.721818 -0.000944 0.068074 0.004570
 31   2.160354 -0.561289 -1.814535 0.000184 -0.090655 0.005075
 32   -0.810489 -0.093824 3.127092 0.338887 -3.077718 -0.182777
 33   14.298673 -0.408176 0.475484 0.018380 -0.097828 -0.519055
 34   15.835795 0.581398 0.242756 -0.532523 -0.064474 0.362871
 35   -0.815868 -0.091229 -3.114430 -0.002100 2.881638 -0.330525
 36   14.294526 -0.410349 -0.463635 -0.026417 0.091994 -0.598422
 37   15.834409 0.579420 -0.284600 -0.051525 0.043093 0.201376
 38   1.159217 -3.461562 -2.823813 0.003684 -0.002748 0.008371
 39   -4.465555 -0.937663 -0.718835 0.004734 0.010463 -0.041760
 40   1.098569 -3.441956 3.237290 -0.001726 -0.003325 0.013624
 41   -4.371338 -0.988815 0.979098 0.000490 0.001019 -0.004151
 42   -0.626217 1.697302 -2.563610 0.030717 0.047854 -0.004558
 43   -0.664068 1.686859 2.763905 -0.036033 -0.054275 0.009284
time 8
  0   0.001233 -0.019532 2.125436 0.000000 0.000000 -1.571829
  1   -1.093036 0.000002 -0.326057 -1.570757 -1.570379 -0.000123
  2   2.262337 0.113614 0.064702 -0.000052 0.000061 0.131363
  3   2.380047 0.353302 0.047440 -0.265098 0.053255 0.193363
  4   2.033756 0.190472 -0.000128 -0.261987 0.067090 0.243772
  5   2.451511 0.204909 -0.003447 -0.139297 0.005713 0.040009
  6   7.247600 -0.397300 -0.109469 0.000001 0.000033 0.052298
  7   -2.022252 -0.104661 3.136172 0.958203 -1.140216 -4.107035
  8   1.168026 -0.537438 -0.063437 -0.420328 0.172745 -0.669295
  9   6.790376 -0.619176 0.015206 -0.000213 -0.000151 -1.110807
 10   8.637599 0.544015 -0.090417 -4.300299 0.240886 0.178642
 11   6.790465 -0.619039 0.017802 0.000768 -0.011651 -0.792770
 12   -2.022474 -0.104699 -2.873818 0.230754 1.300211 -2.971684
 13   1.167898 -0.537463 0.063297 0.671309 -0.773585 -1.268355
 14   7.002743 -0.617765 -0.183752 0.000286 0.000250 -1.945396
 15   8.209042 0.615527 -0.255885 1.829300 -0.237029 1.083427
 16   7.002735 -0.617911 -0.183641 0.012979 0.010864 -1.380472
 17   1.574674 0.609930 -0.000899 0.703500 -0.318785 0.051146
 18   -0.602177 0.511412 -0.000006 0.000000 0.000000 0.000000
 19   3.646428 0.364526 1.119313 -0.000002 -0.000014 -0.174510
 20   3.646422 0.364499 -1.117566 0.000007 -0.000003 -0.174546
 21   3.805634 1.330634 1.627658 0.000002 -0.000011 -0.000026
 22   -0.246060 -0.011889 0.516521 -0.000011 0.000031 0.000025
 23   3.805651 1.330659 -1.631083 0.000019 0.000002 -0.000024
 24   -0.246150 -0.011872 -0.516511 -0.000005 -0.000006 0.000048
 25   4.941364 1.997338 1.629330 0.000018 -0.000001 -0.000024
 26   4.941382 1.997366 -1.629410 -0.000001 0.000005 -0.000024
 27   2.930087 1.603639 1.514501 -0.000019 -0.000022 -0.000050
 28   2.932517 1.603245 -1.501142 -0.000002 -0.000009 -0.000024
 29   8.824059 0.150544 0.091743 0.044210 -0.015305 -0.043579
 30   2.142336 -0.561179 1.710099 -0.001161 0.083331 0.005578
 31   2.172073 -0.561289 -1.802816 0.000215 -0.110755 0.006203
 32   -0.810489 -0.093824 3.127092 0.338887 -3.077718 -0.186762
 33   14.298673 -0.408176 0.475484 0.019663 -0.099288 -0.524454
 34   15.835795 0.581398 0.242756 -0.532523 -0.064474 0.362871
 35   -0.815868 -0.091229 -3.114430 -0.002100 2.881638 -0.334359
 36   14.294526 -0.410349 -0.463635 -0.027664 0.091179 -0.603983
 37   15.834409 0.579420 -0.284600 -0.051525 0.043093 0.201376
 38   1.159217 -3.461562 -2.823813 0.004505 -0.003350 0.010326
 39   -4.465555 -0.910318 -0.714929 0.005789 0.012776 -0.051015
 40   1.098569 -3.441956 3.237290 -0.002126 -0.004048 0.016740
 41   -4.355712 -0.965377 0.990817 0.000610 0.001234 -0.005048
 42   -0.618404 1.697302 -2.536265 0.037548 0.058464 -0.005646
 43   -0.664068 1.679046 2.736560 -0.044042 -0.066310 0.011417
time 9
  0   0.001233 -0.019532 2.098091 0.000000 0.000000 -1.571829
  1   -1.093036 0.000002 -0.326057 -1.570757 -1.570379 -0.000123
  2   2.262337 0.113614 0.064702 -0.000052 0.000061 0.131363
  3   2.380047 0.353302 0.047440 -0.265008 0.053939 0.195281
  4   2.033756 0.190472 -0.000128 -0.261987 0.067090 0.243772
  5   2.451511 0.204909 -0.003447 -0.139297 0.006562 0.046794
  6   7.247600 -0.397300 -0.109469 0.000001 0.000033 0.052298
  7   -2.022252 -0.104661 3.136172 0.946220 -1.136238 -4.093981
  8   1.168026 -0.537438 -0.063437 -0.419758 0.159613 -0.671003
  9   6.790376 -0.619176 0.015206 -0.000213 -0.000151 -1.110807
 10   8.637599 0.544015 -0.090417 -4.300299 0.240886 0.178642
 11   6.790465 -0.619039 0.017802 0.000768 -0.011651 -0.792770
 12   -2.022474 -0.104699 -2.873818 0.224910 1.293042 -2.978194
 13   1.167898 -0.537463 0.063297 0.666599 -0.764127 -1.267568
 14   7.002743 -0.617765 -0.183752 0.000286 0.000250 -1.945396
 15   8.209042 0.615527 -0.255885 1.829085 -0.235061 1.083848
 16   7.002735 -0.617911 -0.183641 0.012979 0.010864 -1.380472
 17   1.574674 0.609930 -0.000899 0.703784 -0.318004 0.042349
 18   -0.602177 0.511412 -0.000006 0.000000 0.000000 0.000000
 19   3.646428 0.364526 1.119313 -0.000002 -0.000014 -0.174510
 20   3.646422 0.364499 -1.117566 0.000007 -0.000003 -0.174546
 21   3.805634 1.330634 1.627658 0.000002 -0.000011 -0.000026
 22   -0.246060 -0.011889 0.516521 -0.000011 0.000031 0.000025
 23   3.805651 1.330659 -1.631083 0.000019 0.000002 -0.000024
 24   -0.246150 -0.011872 -0.516511 -0.000005 -0.000006 0.000048
 25   4.941364 1.997338 1.629330 0.000018 -0.000001 -0.000024
 26   4.941382 1.997366 -1.629410 -0.000001 0.000005 -0.000024
 27   2.930087 1.603639 1.514501 -0.000019 -0.000022 -0.000050
 28   2.932517 1.603245 -1.501142 -0.000002 -0.000009 -0.000024
 29   8.824059 0.150544 0.091743 0.051963 -0.018628 -0.020242
 30   2.150149 -0.561179 1.698380 -0.001378 0.098326 0.006607
 31   2.183792 -0.561289 -1.791097 0.000245 -0.130491 0.007313
 32   -0.810489 -0.093824 3.127092 0.338887 -3.077718 -0.190405
 33   14.298673 -0.408176 0.475484 0.020873 -0.100710 -0.529774
 34   15.835795 0.581398 0.242756 -0.532523 -0.064474 0.362871
 35   -0.815868 -0.091229 -3.114430 -0.002100 2.881638 -0.337974
 36   14.294526 -0.410349 -0.463635 -0.028826 0.090376 -0.609622
 37   15.834409 0.579420 -0.284600 -0.051525 0.043093 0.201376
 38   1.167030 -3.461562 -2.823813 0.005304 -0.003965 0.012159
 39   -4.465555 -0.886880 -0.707116 0.006807 0.015065 -0.060130
 40   1.090756 -3.441956 3.237290 -0.002526 -0.004771 0.019734
 41   -4.343993 -0.953658 0.990817 0.000718 0.001450 -0.005974
 42   -0.614498 1.689489 -2.508921 0.044223 0.068921 -0.006650
 43   -0.664068 1.679046 2.713122 -0.051888 -0.078126 0.013466
time 10
  0   0.001233 -0.019532 2.066840 0.000000 0.000000 -1.571829
  1   -1.093036 0.000002 -0.326057 -1.570757 -1.570379 -0.000123
  2   2.262337 0.113614 0.064702 -0.000052 0.000061 0.131363
  3   2.380047 0.353302 0.047440 -0.264903 0.054430 0.197097
  4   2.033756 0.190472 -0.000128 -0.261987 0.067090 0.243772
  5   2.451511 0.204909 -0.003447 -0.139280 0.007398 0.052887
  6   7.247600 -0.397300 -0.109469 0.000001 0.000033 0.052298
  7   -2.022252 -0.104661 3.136172 0.935484 -1.132693 -4.082148
  8   1.168026 -0.537438 -0.063437 -0.419125 0.147789 -0.672711
  9   6.790376 -0.619176 0.015206 -0.000213 -0.000151 -1.110807
 10   8.637599 0.544015 -0.090417 -4.300299 0.240886 0.178642
 11   6.790465 -0.619039 0.017802 0.000768 -0.011651 -0.792770
 12   -2.022474 -0.104699 -2.873818 0.219832 1.286395 -2.983077
 13   1.167898 -0.537463 0.063297 0.662311 -0.755227 -1.266660
 14   7.002743 -0.617765 -0.183752 0.000286 0.000250 -1.945396
 15   8.209042 0.615527 -0.255885 1.828653 -0.233397 1.084329
 16   7.002735 -0.617911 -0.183641 0.012979 0.010864 -1.380472
 17   1.574674 0.609930 -0.000899 0.703988 -0.317294 0.034514
 18   -0.602177 0.511412 -0.000006 0.000000 0.000000 0.000000
 19   3.646428 0.364526 1.119313 -0.000002 -0.000014 -0.174510
 20   3.646422 0.364499 -1.117566 0.000007 -0.000003 -0.174546
 21   3.805634 1.330634 1.627658 0.000002 -0.000011 -0.000026
 22   -0.246060 -0.011889 0.516521 -0.000011 0.000031 0.000025
 23   3.805651 1.330659 -1.631083 0.000019 0.000002 -0.000024
 24   -0.246150 -0.011872 -0.516511 -0.000005 -0.000006 0.000048
 25   4.941364 1.997338 1.629330 0.000018 -0.000001 -0.000024
 26   4.941382 1.997366 -1.629410 -0.000001 0.000005 -0.000024
 27   2.930087 1.603639 1.514501 -0.000019 -0.000022 -0.000050
 28   2.932517 1.603245 -1.501142 -0.000002 -0.000009 -0.000024
 29   8.824059 0.150544 0.091743 0.059093 -0.021928 0.001754
 30   2.154055 -0.553366 1.682754 -0.001554 0.112507 0.007529
 31   2.191605 -0.561289 -1.783284 0.000276 -0.149166 0.008350
 32   -0.810489 -0.093824 3.127092 0.338887 -3.077718 -0.193706
 33   14.298673 -0.408176 0.475484 0.022036 -0.102028 -0.534776
 34   15.835795 0.581398 0.242756 -0.532523 -0.064474 0.362871
 35   -0.815868 -0.091229 -3.114430 -0.002100 2.881638 -0.341425
 36   14.294526 -0.410349 -0.463635 -0.029941 0.089633 -0.614566
 37   15.834409 0.579420 -0.284600 -0.051525 0.043093 0.201376
 38   1.170936 -3.465468 -2.823813 0.006062 -0.004519 0.013931
 39   -4.473368 -0.855629 -0.707116 0.007790 0.017222 -0.068740
 40   1.086850 -3.438050 3.237290 -0.002884 -0.005470 0.022544
 41   -4.332274 -0.934126 1.002536 0.000838 0.001678 -0.006815
 42   -0.606685 1.689489 -2.481576 0.050575 0.078764 -0.007611
 43   -0.664068 1.679046 2.689684 -0.059322 -0.089314 0.015390
time 11
  0   0.001233 -0.019532 2.035589 0.000000 0.000000 -1.571829
  1   -1.093036 0.000002 -0.326057 -1.570757 -1.570379 -0.000123
  2   2.262337 0.113614 0.064702 -0.000052 0.000061 0.131363
  3   2.380047 0.353302 0.047440 -0.264813 0.054754 0.198648
  4   2.033756 0.190472 -0.000128 -0.261987 0.067090 0.243772
  5   2.451511 0.204909 -0.003447 -0.139246 0.008155 0.058261
  6   7.247600 -0.397300 -0.109469 0.000001 0.000033 0.052298
  7   -2.022252 -0.104661 3.136172 0.926474 -1.129435 -4.071441
  8   1.168026 -0.537438 -0.063437 -0.418746 0.137374 -0.674419
  9   6.790376 -0.619176 0.015206 -0.000213 -0.000151 -1.110807
 10   8.637599 0.544015 -0.090417 -4.300299 0.240886 0.178642
 11   6.790465 -0.619039 0.017802 0.000768 -0.011651 -0.792770
 12   -2.022474 -0.104699 -2.873818 0.215329 1.280445 -2.987864
 13   1.167898 -0.537463 0.063297 0.658585 -0.747549 -1.266236
 14   7.002743 -0.617765 -0.183752 0.000286 0.000250 -1.945396
 15   8.209042 0.615527 -0.255885 1.828581 -0.231657 1.084690
 16   7.002735 -0.617911 -0.183641 0.012979 0.010864 -1.380472
 17   1.574674 0.609930 -0.000899 0.704231 -0.316584 0.027491
 18   -0.602177 0.511412 -0.000006 0.000000 0.000000 0.000000
 19   3.646428 0.364526 1.119313 -0.000002 -0.000014 -0.174510
 20   3.646422 0.364499 -1.117566 0.000007 -0.000003 -0.174546
 21   3.805634 1.330634 1.627658 0.000002 -0.000011 -0.000026
 22   -0.246060 -0.011889 0.516521 -0.000011 0.000031 0.000025
 23   3.805651 1.330659 -1.631083 0.000019 0.000002 -0.000024
 24   -0.246150 -0.011872 -0.516511 -0.000005 -0.000006 0.000048
 25   4.941364 1.997338 1.629330 0.000018 -0.000001 -0.000024
 26   4.941382 1.997366 -1.629410 -0.000001 0.000005 -0.000024
 27   2.930087 1.603639 1.514501 -0.000019 -0.000022 -0.000050
 28   2.932517 1.603245 -1.501142 -0.000002 -0.000009 -0.000024
 29   8.824059 0.150544 0.091743 0.065599 -0.024990 0.021550
 30   2.161868 -0.553366 1.671035 -0.001744 0.125323 0.008387
 31   2.195511 -0.561289 -1.771565 0.000322 -0.166080 0.009296
 32   -0.810489 -0.093824 3.127092 0.338887 -3.077718 -0.196666
 33   14.298673 -0.408176 0.475484 0.023007 -0.103179 -0.538984
 34   15.835795 0.581398 0.242756 -0.532523 -0.064474 0.362871
 35   -0.815868 -0.091229 -3.114430 -0.002100 2.881638 -0.344383
 36   14.294526 -0.410349 -0.463635 -0.030876 0.088973 -0.618814
 37   15.834409 0.579420 -0.284600 -0.051525 0.043093 0.201376
 38   1.178749 -3.465468 -2.823813 0.006778 -0.005037 0.015519
 39   -4.473368 -0.836097 -0.695397 0.008677 0.019151 -0.076509
 40   1.079037 -3.438050 3.237290 -0.003221 -0.006097 0.025110
 41   -4.316648 -0.922407 1.002536 0.000934 0.001870 -0.007628
 42   -0.594966 1.689489 -2.458138 0.056304 0.087703 -0.008490
 43   -0.664068 1.671233 2.670152 -0.066044 -0.099435 0.017147
time 12
  0   0.001233 -0.019532 2.012151 0.000000 0.000000 -1.571829
  1   -1.093036 0.000002 -0.326057 -1.570757 -1.570379 -0.000123
  2   2.262337 0.113614 0.064702 -0.000052 0.000061 0.131363
  3   2.380047 0.353302 0.047440 -0.264738 0.055197 0.199954
  4   2.033756 0.190472 -0.000128 -0.261987 0.067090 0.243772
  5   2.451511 0.204909 -0.003447 -0.139143 0.008912 0.062595
  6   7.247600 -0.397300 -0.109469 0.000001 0.000033 0.052298
  7   -2.022252 -0.104661 3.136172 0.918709 -1.126668 -4.063740
  8   1.168026 -0.537438 -0.063437 -0.418303 0.129072 -0.675368
  9   6.790376 -0.619176 0.015206 -0.000213 -0.000151 -1.110807
 10   8.637599 0.544015 -0.090417 -4.300299 0.240886 0.178642
 11   6.790465 -0.619039 0.017802 0.000768 -0.011651 -0.792770
 12   -2.022474 -0.104699 -2.873818 0.211880 1.275889 -2.991502
 13   1.167898 -0.537463 0.063297 0.655492 -0.741141 -1.265752
 14   7.002743 -0.617765 -0.183752 0.000286 0.000250 -1.945396
 15   8.209042 0.615527 -0.255885 1.828437 -0.230371 1.084930
 16   7.002735 -0.617911 -0.183641 0.012979 0.010864 -1.380472
 17   1.574674 0.609930 -0.000899 0.704394 -0.316158 0.021651
 18   -0.602177 0.511412 -0.000006 0.000000 0.000000 0.000000
 19   3.646428 0.364526 1.119313 -0.000002 -0.000014 -0.174510
 20   3.646422 0.364499 -1.117566 0.000007 -0.000003 -0.174546
 21   3.805634 1.330634 1.627658 0.000002 -0.000011 -0.000026
 22   -0.246060 -0.011889 0.516521 -0.000011 0.000031 0.000025
 23   3.805651 1.330659 -1.631083 0.000019 0.000002 -0.000024
 24   -0.246150 -0.011872 -0.516511 -0.000005 -0.000006 0.000048
 25   4.941364 1.997338 1.629330 0.000018 -0.000001 -0.000024
 26   4.941382 1.997366 -1.629410 -0.000001 0.000005 -0.000024
 27   2.930087 1.603639 1.514501 -0.000019 -0.000022 -0.000050
 28   2.932517 1.603245 -1.501142 -0.000002 -0.000009 -0.000024
 29   8.824059 0.150544 0.091743 0.070946 -0.027743 0.038503
 30   2.165774 -0.553366 1.659316 -0.001893 0.136221 0.009116
 31   2.207230 -0.561289 -1.763752 0.000337 -0.180429 0.010078
 32   -0.810489 -0.093824 3.127092 0.338887 -3.077718 -0.199114
 33   14.298673 -0.408176 0.475484 0.023797 -0.104083 -0.542398
 34   15.835795 0.581398 0.242756 -0.532523 -0.064474 0.362871
 35   -0.815868 -0.091229 -3.114430 -0.002100 2.881638 -0.346793
 36   14.294526 -0.410349 -0.463635 -0.031655 0.088458 -0.622367
 37   15.834409 0.579420 -0.284600 -0.051525 0.043093 0.201376
 38   1.178749 -3.465468 -2.823813 0.007346 -0.005471 0.016802
 39   -4.473368 -0.820472 -0.695397 0.009432 0.020817 -0.083156
 40   1.079037 -3.438050 3.237290 -0.003473 -0.006627 0.027248
 41   -4.308836 -0.910688 1.010349 0.001018 0.002013 -0.008273
 42   -0.594966 1.689489 -2.438606 0.061157 0.095277 -0.009201
 43   -0.664068 1.667327 2.650620 -0.071766 -0.108033 0.018610
time 13
  0   0.001233 -0.019532 2.000432 0.000000 0.000000 -1.571829
  1   -1.093036 0.000002 -0.326057 -1.570757 -1.570379 -0.000123
  2   2.262337 0.113614 0.064702 -0.000052 0.000061 0.131363
  3   2.380047 0.353302 0.047440 -0.264693 0.055461 0.200913
  4   2.033756 0.190472 -0.000128 -0.261987 0.067090 0.243772
  5   2.451511 0.204909 -0.003447 -0.139143 0.009369 0.065963
  6   7.247600 -0.397300 -0.109469 0.000001 0.000033 0.052298
  7   -2.022252 -0.104661 3.136172 0.913149 -1.124621 -4.057354
  8   1.168026 -0.537438 -0.063437 -0.417923 0.122481 -0.676380
  9   6.790376 -0.619176 0.015206 -0.000213 -0.000151 -1.110807
 10   8.637599 0.544015 -0.090417 -4.300299 0.240886 0.178642
 11   6.790465 -0.619039 0.017802 0.000768 -0.011651 -0.792770
 12   -2.022474 -0.104699 -2.873818 0.209389 1.272232 -2.994183
 13   1.167898 -0.537463 0.063297 0.652962 -0.736463 -1.265752
 14   7.002743 -0.617765 -0.183752 0.000286 0.000250 -1.945396
 15   8.209042 0.615527 -0.255885 1.828150 -0.229463 1.085291
 16   7.002735 -0.617911 -0.183641 0.012979 0.010864 -1.380472
 17   1.574674 0.609930 -0.000899 0.704516 -0.315803 0.017253
 18   -0.602177 0.511412 -0.000006 0.000000 0.000000 0.000000
 19   3.646428 0.364526 1.119313 -0.000002 -0.000014 -0.174510
 20   3.646422 0.364499 -1.117566 0.000007 -0.000003 -0.174546
 21   3.805634 1.330634 1.627658 0.000002 -0.000011 -0.000026
 22   -0.246060 -0.011889 0.516521 -0.000011 0.000031 0.000025
 23   3.805651 1.330659 -1.631083 0.000019 0.000002 -0.000024
 24   -0.246150 -0.011872 -0.516511 -0.000005 -0.000006 0.000048
 25   4.941364 1.997338 1.629330 0.000018 -0.000001 -0.000024
 26   4.941382 1.997366 -1.629410 -0.000001 0.000005 -0.000024
 27   2.930087 1.603639 1.514501 -0.000019 -0.000022 -0.000050
 28   2.932517 1.603245 -1.501142 -0.000002 -0.000009 -0.000024
 29   8.824059 0.150544 0.091743 0.075135 -0.029951 0.051593
 30   2.169681 -0.553366 1.651503 -0.002015 0.144677 0.009652
 31   2.215043 -0.561289 -1.759846 0.000368 -0.191619 0.010715
 32   -0.810489 -0.093824 3.127092 0.338887 -3.077718 -0.200822
 33   14.298673 -0.408176 0.475484 0.024373 -0.104742 -0.544939
 34   15.835795 0.581398 0.242756 -0.532523 -0.064474 0.362871
 35   -0.815868 -0.091229 -3.114430 -0.002100 2.881638 -0.348436
 36   14.294526 -0.410349 -0.463635 -0.032206 0.088099 -0.624994
 37   15.834409 0.579420 -0.284600 -0.051525 0.043093 0.201376
 38   1.178749 -3.473281 -2.823813 0.007788 -0.005808 0.017902
 39   -4.473368 -0.800940 -0.687584 0.009995 0.022112 -0.088288
 40   1.079037 -3.430237 3.237290 -0.003726 -0.007037 0.028959
 41   -4.301023 -0.902875 1.010349 0.001078 0.002145 -0.008778
 42   -0.587153 1.689489 -2.426887 0.064944 0.101180 -0.009744
 43   -0.664068 1.667327 2.638901 -0.076214 -0.114734 0.019781
time 14
  0   0.001233 -0.019532 1.988713 0.000000 0.000000 -1.571829
  1   -1.093036 0.000002 -0.326057 -1.570757 -1.570379 -0.000123
  2   2.262337 0.113614 0.064702 -0.000052 0.000061 0.131363
  3   2.380047 0.353302 0.047440 -0.264648 0.055533 0.201566
  4   2.033756 0.190472 -0.000128 -0.261987 0.067090 0.243772
  5   2.451511 0.204909 -0.003447 -0.139143 0.009656 0.068068
  6   7.247600 -0.397300 -0.109469 0.000001 0.000033 0.052298
  7   -2.022252 -0.104661 3.136172 0.909411 -1.123411 -4.053410
  8   1.168026 -0.537438 -0.063437 -0.417860 0.118355 -0.676823
  9   6.790376 -0.619176 0.015206 -0.000213 -0.000151 -1.110807
 10   8.637599 0.544015 -0.090417 -4.300299 0.240886 0.178642
 11   6.790465 -0.619039 0.017802 0.000768 -0.011651 -0.792770
 12   -2.022474 -0.104699 -2.873818 0.207856 1.269765 -2.995619
 13   1.167898 -0.537463 0.063297 0.651767 -0.733361 -1.265449
 14   7.002743 -0.617765 -0.183752 0.000286 0.000250 -1.945396
 15   8.209042 0.615527 -0.255885 1.828006 -0.228782 1.085291
 16   7.002735 -0.617911 -0.183641 0.012979 0.010864 -1.380472
 17   1.574674 0.609930 -0.000899 0.704516 -0.315519 0.014444
 18   -0.602177 0.511412 -0.000006 0.000000 0.000000 0.000000
 19   3.654241 0.270773 1.119313 -0.000002 -0.000014 -0.174510
 20   3.654235 0.270746 -1.117566 0.000007 -0.000003 -0.174546
 21   3.352495 1.260319 1.576875 0.000002 -0.000011 -0.000026
 22   -0.238247 -0.379088 0.496989 0.000083 -0.028708 0.445010
 23   3.364231 1.256438 -1.623270 0.000019 0.000002 -0.000024
 24   -0.164116 -0.285318 -0.528230 0.000091 -0.028733 0.445062
 25   4.535101 1.997338 1.637143 -0.032209 0.220343 0.007203
 26   4.531213 1.997366 -1.621597 0.035749 -0.204340 -0.020853
 27   3.117593 1.466916 1.506688 -0.000019 -0.000022 -0.000050
 28   3.120023 1.466522 -1.508955 -0.000002 -0.000009 -0.000024
 29   8.824059 0.150544 0.091743 0.077808 -0.031375 0.060015
 30   2.173587 -0.553366 1.647597 -0.002083 0.150169 0.010038
 31   2.215043 -0.561289 -1.759846 0.000383 -0.198819 0.011134
 32   -0.810489 -0.093824 3.127092 0.338887 -3.077718 -0.201846
 33   14.298673 -0.408176 0.475484 0.024696 -0.105143 -0.546527
 34   15.835795 0.581398 0.242756 -0.532523 -0.064474 0.362871
 35   -0.815868 -0.091229 -3.114430 -0.002100 2.881638 -0.349477
 36   14.294526 -0.410349 -0.463635 -0.032530 0.087883 -0.626461
 37   15.834409 0.579420 -0.284600 -0.051525 0.043093 0.201376
 38   1.178749 -3.473281 -2.823813 0.008104 -0.006037 0.018574
 39   -4.473368 -0.793127 -0.687584 0.010391 0.022939 -0.091625
 40   1.079037 -3.430237 3.237290 -0.003852 -0.007302 0.030059
 41   -4.297117 -0.891156 1.018162 0.001126 0.002229 -0.009115
 42   -0.583247 1.689489 -2.415168 0.067389 0.104998 -0.010163
 43   -0.664068 1.667327 2.627182 -0.079063 -0.119049 0.020534
time 15
  0   0.001233 -0.019532 1.988713 0.000000 0.000000 -1.571829
  1   -1.093036 0.000002 -0.326057 -1.570757 -1.570379 -0.000123
  2   2.262337 0.113614 0.064702 -0.000052 0.000061 0.131363
  3   2.380047 0.353302 0.047440 -0.264633 0.055544 0.201770
  4   2.033756 0.190472 -0.000128 -0.261987 0.067090 0.243772
  5   2.451511 0.204909 -0.003447 -0.139143 0.009682 0.068860
  6   7.247600 -0.397300 -0.109469 0.000001 0.000033 0.052298
  7   -2.022252 -0.104661 3.136172 0.908452 -1.122892 -4.051908
  8   1.168026 -0.537438 -0.063437 -0.417860 0.116896 -0.677329
  9   6.790376 -0.619176 0.015206 -0.000213 -0.000151 -1.110807
 10   8.637599 0.544015 -0.090417 -4.300299 0.240886 0.178642
 11   6.790465 -0.619039 0.017802 0.000768 -0.011651 -0.792770
 12   -2.022474 -0.104699 -2.873818 0.207377 1.268981 -2.996385
 13   1.167898 -0.537463 0.063297 0.651064 -0.732343 -1.265449
 14   7.002743 -0.617765 -0.183752 0.000286 0.000250 -1.945396
 15   8.209042 0.615527 -0.255885 1.828006 -0.228403 1.085291
 16   7.002735 -0.617911 -0.183641 0.012979 0.010864 -1.380472
 17   1.574674 0.609930 -0.000899 0.704516 -0.315448 0.013594
 18   -0.602177 0.511412 -0.000006 0.000000 0.000000 0.000000
 19   3.673773 0.177020 1.119313 -0.000002 -0.000014 -0.174510
 20   3.673767 0.176993 -1.117566 0.000007 -0.000003 -0.174546
 21   2.899356 1.193911 1.522186 0.000002 -0.000011 -0.000026
 22   -0.226528 -0.754099 0.477457 0.000194 -0.057459 0.890061
 23   2.918905 1.182217 -1.611551 0.000019 0.000002 -0.000024
 24   -0.078176 -0.558764 -0.547762 0.000187 -0.057484 0.890104
 25   4.117120 1.989525 1.648862 -0.064411 0.440688 0.014417
 26   4.117138 1.989553 -1.609878 0.071523 -0.408734 -0.041694
 27   3.305099 1.322380 1.487156 -0.000019 -0.000022 -0.000050
 28   3.303622 1.321986 -1.528487 -0.000002 -0.000009 -0.000024
 29   8.824059 0.150544 0.091743 0.078789 -0.031898 0.063020
 30   2.173587 -0.553366 1.647597 -0.002110 0.152116 0.010166
 31   2.215043 -0.561289 -1.752033 0.000383 -0.201410 0.011261
 32   -0.810489 -0.093824 3.127092 0.338887 -3.077718 -0.202188
 33   14.298673 -0.408176 0.475484 0.024816 -0.105259 -0.546924
 34   15.835795 0.581398 0.242756 -0.532523 -0.064474 0.362871
 35   -0.815868 -0.091229 -3.114430 -0.002100 2.881638 -0.349861
 36   14.294526 -0.410349 -0.463635 -0.032625 0.087811 -0.627002
 37   15.834409 0.579420 -0.284600 -0.051525 0.043093 0.201376
 38   1.182655 -3.473281 -2.823813 0.008188 -0.006122 0.018757
 39   -4.473368 -0.793127 -0.683678 0.010510 0.023238 -0.092803
 40   1.075131 -3.430237 3.237290 -0.003894 -0.007374 0.030364
 41   -4.297117 -0.891156 1.018162 0.001138 0.002253 -0.009199
 42   -0.583247 1.689489 -2.415168 0.068264 0.106347 -0.010288
 43   -0.664068 1.667327 2.627182 -0.080100 -0.120587 0.020785
time 16
  0   0.001233 -0.019532 1.988713 0.000000 0.000000 -1.571829
  1   -1.093036 0.000002 -0.326057 -1.570757 -1.570379 -0.000123
  2   2.262337 0.113614 0.064702 -0.000052 0.000061 0.131363
  3   2.380047 0.353302 0.047440 -0.264648 0.055533 0.201566
  4   2.033756 0.190472 -0.000128 -0.261987 0.067090 0.243772
  5   2.451511 0.204909 -0.003447 -0.139143 0.009656 0.068068
  6   7.247600 -0.397300 -0.109469 0.000001 0.000033 0.052298
  7   -2.022252 -0.104661 3.136172 0.909411 -1.123411 -4.053410
  8   1.168026 -0.537438 -0.063437 -0.417860 0.118355 -0.676823
  9   6.790376 -0.619176 0.015206 -0.000213 -0.000151 -1.110807
 10   8.637599 0.544015 -0.090417 -4.300299 0.240886 0.178642
 11   6.790465 -0.619039 0.017802 0.000768 -0.011651 -0.792770
 12   -2.022474 -0.104699 -2.873818 0.207856 1.269765 -2.995619
 13   1.167898 -0.537463 0.063297 0.651767 -0.733361 -1.265449
 14   7.002743 -0.617765 -0.183752 0.000286 0.000250 -1.945396
 15   8.209042 0.615527 -0.255885 1.828006 -0.228782 1.085291
 16   7.002735 -0.617911 -0.183641 0.012979 0.010864 -1.380472
 17   1.574674 0.609930 -0.000899 0.704516 -0.315519 0.014444
 18   -0.602177 0.511412 -0.000006 0.000000 0.000000 0.000000
 19   3.654241 0.270773 1.119313 -0.000002 -0.000014 -0.174510
 20   3.654235 0.270746 -1.117566 0.000007 -0.000003 -0.174546
 21   3.352495 1.260319 1.576875 0.000002 -0.000011 -0.000026
 22   -0.238247 -0.379088 0.496989 0.000083 -0.028708 0.445010
 23   3.364231 1.256438 -1.623270 0.000019 0.000002 -0.000024
 24   -0.164116 -0.285318 -0.528230 0.000091 -0.028733 0.445062
 25   4.535101 1.997338 1.637143 -0.032209 0.220343 0.007203
 26   4.531213 1.997366 -1.621597 0.035749 -0.204340 -0.020853
 27   3.117593 1.466916 1.506688 -0.000019 -0.000022 -0.000050
 28   3.120023 1.466522 -1.508955 -0.000002 -0.000009 -0.000024
 29   8.824059 0.150544 0.091743 0.077808 -0.031375 0.060015
 30   2.173587 -0.553366 1.647597 -0.002083 0.150169 0.010038
 31   2.215043 -0.561289 -1.759846 0.000383 -0.198819 0.011134
 32   -0.810489 -0.093824 3.127092 0.338887 -3.077718 -0.201846
 33   14.298673 -0.408176 0.475484 0.024696 -0.105143 -0.546527
 34   15.835795 0.581398 0.242756 -0.532523 -0.064474 0.362871
 35   -0.815868 -0.091229 -3.114430 -0.002100 2.881638 -0.349477
 36   14.294526 -0.410349 -0.463635 -0.032530 0.087883 -0.626461
 37   15.834409 0.579420 -0.284600 -0.051525 0.043093 0.201376
 38   1.178749 -3.473281 -2.823813 0.008104 -0.006037 0.018574
 39   -4.473368 -0.793127 -0.687584 0.010391 0.022939 -0.091625
 40   1.079037 -3.430237 3.237290 -0.003852 -0.007302 0.030059
 41   -4.297117 -0.891156 1.018162 0.001126 0.002229 -0.009115
 42   -0.583247 1.689489 -2.415168 0.067389 0.104998 -0.010163
 43   -0.664068 1.667327 2.627182 -0.079063 -0.119049 0.020534
time 17
  0   0.001233 -0.019532 2.000432 0.000000 0.000000 -1.571829
  1   -1.093036 0.000002 -0.326057 -1.570757 -1.570379 -0.000123
  2   2.262337 0.113614 0.064702 -0.000052 0.000061 0.131363
  3   2.380047 0.353302 0.047440 -0.264693 0.055461 0.200913
  4   2.033756 0.190472 -0.000128 -0.261987 0.067090 0.243772
  5   2.451511 0.204909 -0.003447 -0.139143 0.009369 0.065963
  6   7.247600 -0.397300 -0.109469 0.000001 0.000033 0.052298
  7   -2.022252 -0.104661 3.136172 0.913149 -1.124621 -4.057354
  8   1.168026 -0.537438 -0.063437 -0.417923 0.122481 -0.676380
  9   6.790376 -0.619176 0.015206 -0.000213 -0.000151 -1.110807
 10   8.637599 0.544015 -0.090417 -4.300299 0.240886 0.178642
 11   6.790465 -0.619039 0.017802 0.000768 -0.011651 -0.792770
 12   -2.022474 -0.104699 -2.873818 0.209389 1.272232 -2.994183
 13   1.167898 -0.537463 0.063297 0.652962 -0.736463 -1.265752
 14   7.002743 -0.617765 -0.183752 0.000286 0.000250 -1.945396
 15   8.209042 0.615527 -0.255885 1.828150 -0.229463 1.085291
 16   7.002735 -0.617911 -0.183641 0.012979 0.010864 -1.380472
 17   1.574674 0.609930 -0.000899 0.704516 -0.315803 0.017253
 18   -0.602177 0.511412 -0.000006 0.000000 0.000000 0.000000
 19   3.646428 0.364526 1.119313 -0.000002 -0.000014 -0.174510
 20   3.646422 0.364499 -1.117566 0.000007 -0.000003 -0.174546
 21   3.805634 1.330634 1.627658 0.000002 -0.000011 -0.000026
 22   -0.246060 -0.011889 0.516521 -0.000011 0.000031 0.000025
 23   3.805651 1.330659 -1.631083 0.000019 0.000002 -0.000024
 24   -0.246150 -0.011872 -0.516511 -0.000005 -0.000006 0.000048
 25   4.941364 1.997338 1.629330 0.000018 -0.000001 -0.000024
 26   4.941382 1.997366 -1.629410 -0.000001 0.000005 -0.000024
 27   2.930087 1.603639 1.514501 -0.000019 -0.000022 -0.000050
 28   2.932517 1.603245 -1.501142 -0.000002 -0.000009 -0.000024
 29   8.824059 0.150544 0.091743 0.075135 -0.029951 0.051593
 30   2.169681 -0.553366 1.651503 -0.002015 0.144677 0.009652
 31   2.215043 -0.561289 -1.759846 0.000368 -0.191619 0.010715
 32   -0.810489 -0.093824 3.127092 0.338887 -3.077718 -0.200822
 33   14.298673 -0.408176 0.475484 0.024373 -0.104742 -0.544939
 34   15.835795 0.581398 0.242756 -0.532523 -0.064474 0.362871
 35   -0.815868 -0.091229 -3.114430 -0.002100 2.881638 -0.348436
 36   14.294526 -0.410349 -0.463635 -0.032206 0.088099 -0.624994
 37   15.834409 0.579420 -0.284600 -0.051525 0.043093 0.201376
 38   1.178749 -3.473281 -2.823813 0.007788 -0.005808 0.017902
 39   -4.473368 -0.800940 -0.687584 0.009995 0.022112 -0.088288
 40   1.079037 -3.430237 3.237290 -0.003726 -0.007037 0.028959
 41   -4.301023 -0.902875 1.010349 0.001078 0.002145 -0.008778
 42   -0.587153 1.689489 -2.426887 0.064944 0.101180 -0.009744
 43   -0.664068 1.667327 2.638901 -0.076214 -0.114734 0.019781
time 18
  0   0.001233 -0.019532 2.012151 0.000000 0.000000 -1.571829
  1   -1.093036 0.000002 -0.326057 -1.570757 -1.570379 -0.000123
  2   2.262337 0.113614 0.064702 -0.000052 0.000061 0.131363
  3   2.380047 0.353302 0.047440 -0.264738 0.055197 0.199954
  4   2.033756 0.190472 -0.000128 -0.261987 0.067090 0.243772
  5   2.451511 0.204909 -0.003447 -0.139143 0.008912 0.062595
  6   7.247600 -0.397300 -0.109469 0.000001 0.000033 0.052298
  7   -2.022252 -0.104661 3.136172 0.918709 -1.126668 -4.063740
  8   1.168026 -0.537438 -0.063437 -0.418303 0.129072 -0.675368
  9   6.790376 -0.619176 0.015206 -0.000213 -0.000151 -1.110807
 10   8.637599 0.544015 -0.090417 -4.300299 0.240886 0.178642
 11   6.790465 -0.619039 0.017802 0.000768 -0.011651 -0.792770
 12   -2.022474 -0.104699 -2.873818 0.211880 1.275889 -2.991502
 13   1.167898 -0.537463 0.063297 0.655492 -0.741141 -1.265752
 14   7.002743 -0.617765 -0.183752 0.000286 0.000250 -1.945396
 15   8.209042 0.615527 -0.255885 1.828437 -0.230371 1.084930
 16   7.002735 -0.617911 -0.183641 0.012979 0.010864 -1.380472
 17   1.574674 0.609930 -0.000899 0.704394 -0.316158 0.021651
 18   -0.602177 0.511412 -0.000006 0.000000 0.000000 0.000000
 19   3.646428 0.364526 1.119313 -0.000002 -0.000014 -0.174510
 20   3.646422 0.364499 -1.117566 0.000007 -0.000003 -0.174546
 21   3.805634 1.330634 1.627658 0.000002 -0.000011 -0.000026
 22   -0.246060 -0.011889 0.516521 -0.000011 0.000031 0.000025
 23   3.805651 1.330659 -1.631083 0.000019 0.000002 -0.000024
 24   -0.246150 -0.011872 -0.516511 -0.000005 -0.000006 0.000048
 25   4.941364 1.997338 1.629330 0.000018 -0.000001 -0.000024
 26   4.941382 1.997366 -1.629410 -0.000001 0.000005 -0.000024
 27   2.930087 1.603639 1.514501 -0.000019 -0.000022 -0.000050
 28   2.932517 1.603245 -1.501142 -0.000002 -0.000009 -0.000024
 29   8.824059 0.150544 0.091743 0.070946 -0.027743 0.038503
 30   2.165774 -0.553366 1.659316 -0.001893 0.136221 0.009116
 31   2.207230 -0.561289 -1.763752 0.000337 -0.180429 0.010078
 32   -0.810489 -0.093824 3.127092 0.338887 -3.077718 -0.199114
 33   14.298673 -0.408176 0.475484 0.023797 -0.104083 -0.542398
 34   15.835795 0.581398 0.242756 -0.532523 -0.064474 0.362871
 35   -0.815868 -0.091229 -3.114430 -0.002100 2.881638 -0.346793
 36   14.294526 -0.410349 -0.463635 -0.031655 0.088458 -0.622367
 37   15.834409 0.579420 -0.284600 -0.051525 0.043093 0.201376
 38   1.178749 -3.465468 -2.823813 0.007346 -0.005471 0.016802
 39   -4.473368 -0.820472 -0.695397 0.009432 0.020817 -0.083156
 40   1.079037 -3.438050 3.237290 -0.003473 -0.006627 0.027248
 41   -4.308836 -0.910688 1.010349 0.001018 0.002013 -0.008273
 42   -0.594966 1.689489 -2.438606 0.061157 0.095277 -0.009201
 43   -0.664068 1.667327 2.650620 -0.071766 -0.108033 0.018610
time 19
  0   0.001233 -0.019532 2.035589 0.000000 0.000000 -1.571829
  1   -1.093036 0.000002 -0.326057 -1.570757 -1.570379 -0.000123
  2   2.262337 0.113614 0.064702 -0.000052 0.000061 0.131363
  3   2.380047 0.353302 0.047440 -0.264813 0.054754 0.198648
  4   2.033756 0.190472 -0.000128 -0.261987 0.067090 0.243772
  5   2.451511 0.204909 -0.003447 -0.139246 0.008155 0.058261
  6   7.247600 -0.397300 -0.109469 0.000001 0.000033 0.052298
  7   -2.022252 -0.104661 3.136172 0.926474 -1.129435 -4.071441
  8   1.168026 -0.537438 -0.063437 -0.418746 0.137374 -0.674419
  9   6.790376 -0.619176 0.015206 -0.000213 -0.000151 -1.110807
 10   8.637599 0.544015 -0.090417 -4.300299 0.240886 0.178642
 11   6.790465 -0.619039 0.017802 0.000768 -0.011651 -0.792770
 12   -2.022474 -0.104699 -2.873818 0.215329 1.280445 -2.987864
 13   1.167898 -0.537463 0.063297 0.658585 -0.747549 -1.266236
 14   7.002743 -0.617765 -0.183752 0.000286 0.000250 -1.945396
 15   8.209042 0.615527 -0.255885 1.828581 -0.231657 1.084690
 16   7.002735 -0.617911 -0.183641 0.012979 0.010864 -1.380472
 17   1.574674 0.609930 -0.000899 0.704231 -0.316584 0.027491
 18   -0.602177 0.511412 -0.000006 0.000000 0.000000 0.000000
 19   3.646428 0.364526 1.119313 -0.000002 -0.000014 -0.174510
 20   3.646422 0.364499 -1.117566 0.000007 -0.000003 -0.174546
 21   3.805634 1.330634 1.627658 0.000002 -0.000011 -0.000026
 22   -0.246060 -0.011889 0.516521 -0.000011 0.000031 0.000025
 23   3.805651 1.330659 -1.631083 0.000019 0.000002 -0.000024
 24   -0.246150 -0.011872 -0.516511 -0.000005 -0.000006 0.000048
 25   4.941364 1.997338 1.629330 0.000018 -0.000001 -0.000024
 26   4.941382 1.997366 -1.629410 -0.000001 0.000005 -0.000024
 27   2.930087 1.603639 1.514501 -0.000019 -0.000022 -0.000050
 28   2.932517 1.603245 -1.501142 -0.000002 -0.000009 -0.000024
 29   8.824059 0.150544 0.091743 0.065599 -0.024990 0.021550
 30   2.161868 -0.553366 1.671035 -0.001744 0.125323 0.008387
 31   2.195511 -0.561289 -1.771565 0.000322 -0.166080 0.009296
 32   -0.810489 -0.093824 3.127092 0.338887 -3.077718 -0.196666
 33   14.298673 -0.408176 0.475484 0.023007 -0.103179 -0.538984
 34   15.835795 0.581398 0.242756 -0.532523 -0.064474 0.362871
 35   -0.815868 -0.091229 -3.114430 -0.002100 2.881638 -0.344383
 36   14.294526 -0.410349 -0.463635 -0.030876 0.088973 -0.618814
 37   15.834409 0.579420 -0.284600 -0.051525 0.043093 0.201376
 38   1.178749 -3.465468 -2.823813 0.006778 -0.005037 0.015519
 39   -4.473368 -0.836097 -0.695397 0.008677 0.019151 -0.076509
 40   1.079037 -3.438050 3.237290 -0.003221 -0.006097 0.025110
 41   -4.316648 -0.922407 1.002536 0.000934 0.001870 -0.007628
 42   -0.594966 1.689489 -2.458138 0.056304 0.087703 -0.008490
 43   -0.664068 1.671233 2.670152 -0.066044 -0.099435 0.017147
time 20
  0   0.001233 -0.019532 2.066840 0.000000 0.000000 -1.571829
  1   -1.093036 0.000002 -0.326057 -1.570757 -1.570379 -0.000123
  2   2.262337 0.113614 0.064702 -0.000052 0.000061 0.131363
  3   2.380047 0.353302 0.047440 -0.264903 0.054430 0.197097
  4   2.033756 0.190472 -0.000128 -0.261987 0.067090 0.243772
  5   2.451511 0.204909 -0.003447 -0.139280 0.007398 0.052887
  6   7.247600 -0.397300 -0.109469 0.000001 0.000033 0.052298
  7   -2.022252 -0.104661 3.136172 0.935484 -1.132693 -4.082148
  8   1.168026 -0.537438 -0.063437 -0.419125 0.147789 -0.672711
  9   6.790376 -0.619176 0.015206 -0.000213 -0.000151 -1.110807
 10   8.637599 0.544015 -0.090417 -4.300299 0.240886 0.178642
 11   6.790465 -0.619039 0.017802 0.000768 -0.011651 -0.792770
 12   -2.022474 -0.104699 -2.873818 0.219832 1.286395 -2.983077
 13   1.167898 -0.537463 0.063297 0.662311 -0.755227 -1.266660
 14   7.002743 -0.617765 -0.183752 0.000286 0.000250 -1.945396
 15   8.209042 0.615527 -0.255885 1.828653 -0.233397 1.084329
 16   7.002735 -0.617911 -0.183641 0.012979 0.010864 -1.380472
 17   1.574674 0.609930 -0.000899 0.703988 -0.317294 0.034514
 18   -0.602177 0.511412 -0.000006 0.000000 0.000000 0.000000
 19   3.646428 0.364526 1.119313 -0.000002 -0.000014 -0.174510
 20   3.646422 0.364499 -1.117566 0.000007 -0.000003 -0.174546
 21   3.805634 1.330634 1.627658 0.000002 -0.000011 -0.000026
 22   -0.246060 -0.011889 0.516521 -0.000011 0.000031 0.000025
 23   3.805651 1.330659 -1.631083 0.000019 0.000002 -0.000024
 24   -0.246150 -0.011872 -0.516511 -0.000005 -0.000006 0.000048
 25   4.941364 1.997338 1.629330 0.000018 -0.000001 -0.000024
 26   4.941382 1.997366 -1.629410 -0.000001 0.000005 -0.000024
 27   2.930087 1.603639 1.514501 -0.000019 -0.000022 -0.000050
 28   2.932517 1.603245 -1.501142 -0.000002 -0.000009 -0.000024
 29   8.824059 0.150544 0.091743 0.059093 -0.021928 0.001754
 30   2.154055 -0.553366 1.682754 -0.001554 0.112507 0.007529
 31   2.191605 -0.561289 -1.783284 0.000276 -0.149166 0.008350
 32   -0.810489 -0.093824 3.127092 0.338887 -3.077718 -0.193706
 33   14.298673 -0.408176 0.475484 0.022036 -0.102028 -0.534776
 34   15.835795 0.581398 0.242756 -0.532523 -0.064474 0.362871
 35   -0.815868 -0.091229 -3.114430 -0.002100 2.881638 -0.341425
 36   14.294526 -0.410349 -0.463635 -0.029941 0.089633 -0.614566
 37   15.834409 0.579420 -0.284600 -0.051525 0.043093 0.201376
 38   1.170936 -3.465468 -2.823813 0.006062 -0.004519 0.013931
 39   -4.473368 -0.855629 -0.707116 0.007790 0.017222 -0.068740
 40   1.086850 -3.438050 3.237290 -0.002884 -0.005470 0.022544
 41   -4.332274 -0.934126 1.002536 0.000838 0.001678 -0.006815
 42   -0.606685 1.689489 -2.481576 0.050575 0.078764 -0.007611
 43   -0.664068 1.679046 2.689684 -0.059322 -0.089314 0.015390
time 21
  0   0.001233 -0.019532 2.098091 0.000000 0.000000 -1.571829
  1   -1.093036 0.000002 -0.326057 -1.570757 -1.570379 -0.000123
  2   2.262337 0.113614 0.064702 -0.000052 0.000061 0.131363
  3   2.380047 0.353302 0.047440 -0.265008 0.053939 0.195281
  4   2.033756 0.190472 -0.000128 -0.261987 0.067090 0.243772
  5   2.451511 0.204909 -0.003447 -0.139297 0.006562 0.046794
  6   7.247600 -0.397300 -0.109469 0.000001 0.000033 0.052298
  7   -2.022252 -0.104661 3.136172 0.946220 -1.136238 -4.093981
  8   1.168026 -0.537438 -0.063437 -0.419758 0.159613 -0.671003
  9   6.790376 -0.619176 0.015206 -0.000213 -0.000151 -1.110807
 10   8.637599 0.544015 -0.090417 -4.300299 0.240886 0.178642
 11   6.790465 -0.619039 0.017802 0.000768 -0.011651 -0.792770
 12   -2.022474 -0.104699 -2.873818 0.224910 1.293013 -2.978194
 13   1.167898 -0.537463 0.063297 0.666599 -0.764127 -1.267568
 14   7.002743 -0.617765 -0.183752 0.000286 0.000250 -1.945396
 15   8.209042 0.615527 -0.255885 1.829085 -0.235061 1.083848
 16   7.002735 -0.617911 -0.183641 0.012979 0.010864 -1.380472
 17   1.574674 0.609930 -0.000899 0.703784 -0.318004 0.042349
 18   -0.602177 0.511412 -0.000006 0.000000 0.000000 0.000000
 19   3.646428 0.364526 1.119313 -0.000002 -0.000014 -0.174510
 20   3.646422 0.364499 -1.117566 0.000007 -0.000003 -0.174546
 21   3.805634 1.330634 1.627658 0.000002 -0.000011 -0.000026
 22   -0.246060 -0.011889 0.516521 -0.000011 0.000031 0.000025
 23   3.805651 1.330659 -1.631083 0.000019 0.000002 -0.000024
 24   -0.246150 -0.011872 -0.516511 -0.000005 -0.000006 0.000048
 25   4.941364 1.997338 1.629330 0.000018 -0.000001 -0.000024
 26   4.941382 1.997366 -1.629410 -0.000001 0.000005 -0.000024
 27   2.930087 1.603639 1.514501 -0.000019 -0.000022 -0.000050
 28   2.932517 1.603245 -1.501142 -0.000002 -0.000009 -0.000024
 29   8.824059 0.150544 0.091743 0.051963 -0.018628 -0.020242
 30   2.150149 -0.561179 1.698380 -0.001378 0.098326 0.006607
 31   2.183792 -0.561289 -1.791097 0.000245 -0.130491 0.007313
 32   -0.810489 -0.093824 3.127092 0.338887 -3.077718 -0.190405
 33   14.298673 -0.408176 0.475484 0.020873 -0.100710 -0.529774
 34   15.835795 0.581398 0.242756 -0.532523 -0.064474 0.362871
 35   -0.815868 -0.091229 -3.114430 -0.002100 2.881638 -0.337974
 36   14.294526 -0.410349 -0.463635 -0.028826 0.090376 -0.609622
 37   15.834409 0.579420 -0.284600 -0.051525 0.043093 0.201376
 38   1.167030 -3.461562 -2.823813 0.005304 -0.003965 0.012159
 39   -4.465555 -0.886880 -0.707116 0.006807 0.015065 -0.060130
 40   1.090756 -3.441956 3.237290 -0.002526 -0.004771 0.019734
 41   -4.343993 -0.953658 0.990817 0.000718 0.001450 -0.005974
 42   -0.614498 1.689489 -2.508921 0.044223 0.068921 -0.006650
 43   -0.664068 1.679046 2.713122 -0.051888 -0.078126 0.013466
time 22
  0   0.001233 -0.019532 2.125436 0.000000 0.000000 -1.571829
  1   -1.093036 0.000002 -0.326057 -1.570757 -1.570379 -0.000123
  2   2.262337 0.113614 0.064702 -0.000052 0.000061 0.131363
  3   2.380047 0.353302 0.047440 -0.265098 0.053255 0.193363
  4   2.033756 0.190472 -0.000128 -0.261987 0.067090 0.243772
  5   2.451511 0.204909 -0.003447 -0.139297 0.005713 0.040009
  6   7.247600 -0.397300 -0.109469 0.000001 0.000033 0.052298
  7   -2.022252 -0.104661 3.136172 0.958203 -1.140216 -4.107035
  8   1.168026 -0.537438 -0.063437 -0.420328 0.172745 -0.669295
  9   6.790376 -0.619176 0.015206 -0.000213 -0.000151 -1.110807
 10   8.637599 0.544015 -0.090417 -4.300299 0.240886 0.178642
 11   6.790465 -0.619039 0.017802 0.000768 -0.011651 -0.792770
 12   -2.022474 -0.104699 -2.873818 0.230754 1.300211 -2.971684
 13   1.167898 -0.537463 0.063297 0.671309 -0.773585 -1.268355
 14   7.002743 -0.617765 -0.183752 0.000286 0.000250 -1.945396
 15   8.209042 0.615527 -0.255885 1.829300 -0.237029 1.083427
 16   7.002735 -0.617911 -0.183641 0.012979 0.010864 -1.380472
 17   1.574674 0.609930 -0.000899 0.703500 -0.318785 0.051146
 18   -0.602177 0.511412 -0.000006 0.000000 0.000000 0.000000
 19   3.646428 0.364526 1.119313 -0.000002 -0.000014 -0.174510
 20   3.646422 0.364499 -1.117566 0.000007 -0.000003 -0.174546
 21   3.805634 1.330634 1.627658 0.000002 -0.000011 -0.000026
 22   -0.246060 -0.011889 0.516521 -0.000011 0.000031 0.000025
 23   3.805651 1.330659 -1.631083 0.000019 0.000002 -0.000024
 24   -0.246150 -0.011872 -0.516511 -0.000005 -0.000006 0.000048
 25   4.941364 1.997338 1.629330 0.000018 -0.000001 -0.000024
 26   4.941382 1.997366 -1.629410 -0.000001 0.000005 -0.000024
 27   2.930087 1.603639 1.514501 -0.000019 -0.000022 -0.000050
 28   2.932517 1.603245 -1.501142 -0.000002 -0.000009 -0.000024
 29   8.824059 0.150544 0.091743 0.044210 -0.015305 -0.043579
 30   2.142336 -0.561179 1.710099 -0.001161 0.083331 0.005578
 31   2.172073 -0.561289 -1.802816 0.000215 -0.110755 0.006203
 32   -0.810489 -0.093824 3.127092 0.338887 -3.077718 -0.186762
 33   14.298673 -0.408176 0.475484 0.019663 -0.099288 -0.524454
 34   15.835795 0.581398 0.242756 -0.532523 -0.064474 0.362871
 35   -0.815868 -0.091229 -3.114430 -0.002100 2.881638 -0.334359
 36   14.294526 -0.410349 -0.463635 -0.027664 0.091179 -0.603983
 37   15.834409 0.579420 -0.284600 -0.051525 0.043093 0.201376
 38   1.159217 -3.461562 -2.823813 0.004505 -0.003350 0.010326
 39   -4.465555 -0.910318 -0.714929 0.005789 0.012776 -0.051015
 40   1.098569 -3.441956 3.237290 -0.002126 -0.004048 0.016740
 41   -4.355712 -0.965377 0.990817 0.000610 0.001234 -0.005048
 42   -0.618404 1.697302 -2.536265 0.037548 0.058464 -0.005646
 43   -0.664068 1.679046 2.736560 -0.044042 -0.066310 0.011417
time 23
  0   0.001233 -0.019532 2.160593 0.000000 0.000000 -1.571829
  1   -1.093036 0.000002 -0.326057 -1.570757 -1.570379 -0.000123
  2   2.262337 0.113614 0.064702 -0.000052 0.000061 0.131363
  3   2.380047 0.353302 0.047440 -0.265218 0.052692 0.191261
  4   2.033756 0.190472 -0.000128 -0.261987 0.067090 0.243772
  5   2.451511 0.204909 -0.003447 -0.139400 0.004708 0.032827
  6   7.247600 -0.397300 -0.109469 0.000001 0.000033 0.052298
  7   -2.022252 -0.104661 3.136172 0.971048 -1.144310 -4.121403
  8   1.168026 -0.537438 -0.063437 -0.420707 0.186531 -0.667397
  9   6.790376 -0.619176 0.015206 -0.000213 -0.000151 -1.110807
 10   8.637599 0.544015 -0.090417 -4.300299 0.240886 0.178642
 11   6.790465 -0.619039 0.017802 0.000768 -0.011651 -0.792770
 12   -2.022474 -0.104699 -2.873818 0.237557 1.308018 -2.964599
 13   1.167898 -0.537463 0.063297 0.676510 -0.784264 -1.269384
 14   7.002743 -0.617765 -0.183752 0.000286 0.000250 -1.945396
 15   8.209042 0.615527 -0.255885 1.829588 -0.239223 1.082765
 16   7.002735 -0.617911 -0.183641 0.012979 0.010864 -1.380472
 17   1.574674 0.609930 -0.000899 0.703135 -0.319566 0.060386
 18   -0.602177 0.511412 -0.000006 0.000000 0.000000 0.000000
 19   3.646428 0.364526 1.119313 -0.000002 -0.000014 -0.174510
 20   3.646422 0.364499 -1.117566 0.000007 -0.000003 -0.174546
 21   3.805634 1.330634 1.627658 0.000002 -0.000011 -0.000026
 22   -0.246060 -0.011889 0.516521 -0.000011 0.000031 0.000025
 23   3.805651 1.330659 -1.631083 0.000019 0.000002 -0.000024
 24   -0.246150 -0.011872 -0.516511 -0.000005 -0.000006 0.000048
 25   4.941364 1.997338 1.629330 0.000018 -0.000001 -0.000024
 26   4.941382 1.997366 -1.629410 -0.000001 0.000005 -0.000024
 27   2.930087 1.603639 1.514501 -0.000019 -0.000022 -0.000050
 28   2.932517 1.603245 -1.501142 -0.000002 -0.000009 -0.000024
 29   8.824059 0.150544 0.091743 0.036367 -0.012124 -0.067345
 30   2.138430 -0.561179 1.721818 -0.000944 0.068074 0.004570
 31   2.160354 -0.561289 -1.814535 0.000184 -0.090655 0.005075
 32   -0.810489 -0.093824 3.127092 0.338887 -3.077718 -0.182777
 33   14.298673 -0.408176 0.475484 0.018380 -0.097828 -0.519055
 34   15.835795 0.581398 0.242756 -0.532523 -0.064474 0.362871
 35   -0.815868 -0.091229 -3.114430 -0.002100 2.881638 -0.330525
 36   14.294526 -0.410349 -0.463635 -0.026417 0.091994 -0.598422
 37   15.834409 0.579420 -0.284600 -0.051525 0.043093 0.201376
 38   1.159217 -3.461562 -2.823813 0.003684 -0.002748 0.008371
 39   -4.465555 -0.937663 -0.718835 0.004734 0.010463 -0.041760
 40   1.098569 -3.441956 3.237290 -0.001726 -0.003325 0.013624
 41   -4.371338 -0.988815 0.979098 0.000490 0.001019 -0.004151
 42   -0.626217 1.697302 -2.563610 0.030717 0.047854 -0.004558
 43   -0.664068 1.686859 2.763905 -0.036033 -0.054275 0.009284
time 24
  0   0.001233 -0.019532 2.187938 0.000000 0.000000 -1.571829
  1   -1.093036 0.000002 -0.326057 -1.570757 -1.570379 -0.000123
  2   2.262337 0.113614 0.064702 -0.000052 0.000061 0.131363
  3   2.380047 0.353302 0.047440 -0.265338 0.052237 0.188996
  4   2.033756 0.190472 -0.000128 -0.261987 0.067090 0.243772
  5   2.451511 0.204909 -0.003447 -0.139434 0.003507 0.025323
  6   7.247600 -0.397300 -0.109469 0.000001 0.000033 0.052298
  7   -2.022252 -0.104661 3.136172 0.985139 -1.148518 -4.136711
  8   1.168026 -0.537438 -0.063437 -0.421467 0.200971 -0.665689
  9   6.790376 -0.619176 0.015206 -0.000213 -0.000151 -1.110807
 10   8.637599 0.544015 -0.090417 -4.300299 0.240886 0.178642
 11   6.790465 -0.619039 0.017802 0.000768 -0.011651 -0.792770
 12   -2.022474 -0.104699 -2.873818 0.245030 1.316290 -2.956844
 13   1.167898 -0.537463 0.063297 0.681923 -0.794842 -1.270776
 14   7.002743 -0.617765 -0.183752 0.000286 0.000250 -1.945396
 15   8.209042 0.615527 -0.255885 1.830019 -0.241493 1.082344
 16   7.002735 -0.617911 -0.183641 0.012979 0.010864 -1.380472
 17   1.574674 0.609930 -0.000899 0.702850 -0.320418 0.070107
 18   -0.602177 0.511412 -0.000006 0.000000 0.000000 0.000000
 19   3.646428 0.364526 1.119313 -0.000002 -0.000014 -0.174510
 20   3.646422 0.364499 -1.117566 0.000007 -0.000003 -0.174546
 21   3.805634 1.330634 1.627658 0.000002 -0.000011 -0.000026
 22   -0.246060 -0.011889 0.516521 -0.000011 0.000031 0.000025
 23   3.805651 1.330659 -1.631083 0.000019 0.000002 -0.000024
 24   -0.246150 -0.011872 -0.516511 -0.000005 -0.000006 0.000048
 25   4.941364 1.997338 1.629330 0.000018 -0.000001 -0.000024
 26   4.941382 1.997366 -1.629410 -0.000001 0.000005 -0.000024
 27   2.930087 1.603639 1.514501 -0.000019 -0.000022 -0.000050
 28   2.932517 1.603245 -1.501142 -0.000002 -0.000009 -0.000024
 29   8.824059 0.150544 0.091743 0.028525 -0.009228 -0.090682
 30   2.130617 -0.561179 1.741350 -0.000727 0.053079 0.003583
 31   2.152541 -0.561289 -1.822348 0.000138 -0.070866 0.003965
 32   -0.810489 -0.093824 3.127092 0.338887 -3.077718 -0.179134
 33   14.298673 -0.408176 0.475484 0.017134 -0.096419 -0.513656
 34   15.835795 0.581398 0.242756 -0.532523 -0.064474 0.362871
 35   -0.815868 -0.091229 -3.114430 -0.002100 2.881638 -0.326855
 36   14.294526 -0.410349 -0.463635 -0.025243 0.092785 -0.592860
 37   15.834409 0.579420 -0.284600 -0.051525 0.043093 0.201376
 38   1.155311 -3.453749 -2.823813 0.002884 -0.002145 0.006538
 39   -4.457742 -0.961101 -0.726648 0.003691 0.008162 -0.032645
 40   1.106382 -3.449769 3.237290 -0.001347 -0.002602 0.010692
 41   -4.386963 -1.000534 0.979098 0.000383 0.000791 -0.003225
 42   -0.637936 1.697302 -2.594861 0.024017 0.037413 -0.003597
 43   -0.664068 1.690765 2.787343 -0.028187 -0.042428 0.007319
time 25
  0   0.001233 -0.019532 2.215282 0.000000 0.000000 -1.571829
  1   -1.093036 0.000002 -0.326057 -1.570757 -1.570379 -0.000123
  2   2.262337 0.113614 0.064702 -0.000052 0.000061 0.131363
  3   2.380047 0.353302 0.047440 -0.265443 0.051626 0.186772
  4   2.033756 0.190472 -0.000128 -0.261987 0.067090 0.243772
  5   2.451511 0.204909 -0.003447 -0.139451 0.002593 0.017720
  6   7.247600 -0.397300 -0.109469 0.000001 0.000033 0.052298
  7   -2.022252 -0.104661 3.136172 0.999709 -1.152871 -4.152583
  8   1.168026 -0.537438 -0.063437 -0.421910 0.215814 -0.663728
  9   6.790376 -0.619176 0.015206 -0.000213 -0.000151 -1.110807
 10   8.637599 0.544015 -0.090417 -4.300299 0.240886 0.178642
 11   6.790465 -0.619039 0.017802 0.000768 -0.011651 -0.792770
 12   -2.022474 -0.104699 -2.873818 0.253269 1.324504 -2.948610
 13   1.167898 -0.537463 0.063297 0.687617 -0.806080 -1.272108
 14   7.002743 -0.617765 -0.183752 0.000286 0.000250 -1.945396
 15   8.209042 0.615527 -0.255885 1.830307 -0.243611 1.081863
 16   7.002735 -0.617911 -0.183641 0.012979 0.010864 -1.380472
 17   1.574674 0.609930 -0.000899 0.702566 -0.321341 0.080050
 18   -0.602177 0.511412 -0.000006 0.000000 0.000000 0.000000
 19   3.646428 0.364526 1.119313 -0.000002 -0.000014 -0.174510
 20   3.646422 0.364499 -1.117566 0.000007 -0.000003 -0.174546
 21   3.805634 1.330634 1.627658 0.000002 -0.000011 -0.000026
 22   -0.246060 -0.011889 0.516521 -0.000011 0.000031 0.000025
 23   3.805651 1.330659 -1.631083 0.000019 0.000002 -0.000024
 24   -0.246150 -0.011872 -0.516511 -0.000005 -0.000006 0.000048
 25   4.941364 1.997338 1.629330 0.000018 -0.000001 -0.000024
 26   4.941382 1.997366 -1.629410 -0.000001 0.000005 -0.000024
 27   2.930087 1.603639 1.514501 -0.000019 -0.000022 -0.000050
 28   2.932517 1.603245 -1.501142 -0.000002 -0.000009 -0.000024
 29   8.824059 0.150544 0.091743 0.021038 -0.006617 -0.112785
 30   2.122804 -0.561179 1.753069 -0.000537 0.038927 0.002640
 31   2.140822 -0.561289 -1.834067 0.000092 -0.052191 0.002891
 32   -0.810489 -0.093824 3.127092 0.338887 -3.077718 -0.175719
 33   14.298673 -0.408176 0.475484 0.016019 -0.095101 -0.508654
 34   15.835795 0.581398 0.242756 -0.532523 -0.064474 0.362871
 35   -0.815868 -0.091229 -3.114430 -0.002100 2.881638 -0.323404
 36   14.294526 -0.410349 -0.463635 -0.024128 0.093540 -0.587762
 37   15.834409 0.579420 -0.284600 -0.051525 0.043093 0.201376
 38   1.147498 -3.453749 -2.823813 0.002126 -0.001579 0.004766
 39   -4.457742 -0.992352 -0.734461 0.002721 0.006016 -0.024035
 40   1.110288 -3.449769 3.237290 -0.000989 -0.001903 0.007820
 41   -4.402589 -1.020066 0.967379 0.000287 0.000575 -0.002384
 42   -0.637936 1.697302 -2.618299 0.017689 0.027570 -0.002635
 43   -0.664068 1.690765 2.806875 -0.020753 -0.031240 0.005395
time 26
  0   0.001233 -0.019532 2.242627 0.000000 0.000000 -1.571829
  1   -1.093036 0.000002 -0.326057 -1.570757 -1.570379 -0.000123
  2   2.262337 0.113614 0.064702 -0.000052 0.000061 0.131363
  3   2.380047 0.353302 0.047440 -0.265533 0.050882 0.184507
  4   2.033756 0.190472 -0.000128 -0.261987 0.067090 0.243772
  5   2.451511 0.204909 -0.003447 -0.139451 0.001379 0.010117
  6   7.247600 -0.397300 -0.109469 0.000001 0.000033 0.052298
  7   -2.022252 -0.104661 3.136172 1.014471 -1.156936 -4.168829
  8   1.168026 -0.537438 -0.063437 -0.422289 0.230405 -0.661767
  9   6.790376 -0.619176 0.015206 -0.000213 -0.000151 -1.110807
 10   8.637599 0.544015 -0.090417 -4.300299 0.240886 0.178642
 11   6.790465 -0.619039 0.017802 0.000768 -0.011651 -0.792770
 12   -2.022474 -0.104699 -2.873818 0.261892 1.332659 -2.939419
 13   1.167898 -0.537463 0.063297 0.693240 -0.817065 -1.273803
 14   7.002743 -0.617765 -0.183752 0.000286 0.000250 -1.945396
 15   8.209042 0.615527 -0.255885 1.830666 -0.245956 1.081382
 16   7.002735 -0.617911 -0.183641 0.012979 0.010864 -1.380472
 17   1.574674 0.609930 -0.000899 0.702241 -0.322193 0.089955
 18   -0.602177 0.511412 -0.000006 0.000000 0.000000 0.000000
 19   3.646428 0.364526 1.119313 -0.000002 -0.000014 -0.174510
 20   3.646422 0.364499 -1.117566 0.000007 -0.000003 -0.174546
 21   3.805634 1.330634 1.627658 0.000002 -0.000011 -0.000026
 22   -0.246060 -0.011889 0.516521 -0.000011 0.000031 0.000025
 23   3.805651 1.330659 -1.631083 0.000019 0.000002 -0.000024
 24   -0.246150 -0.011872 -0.516511 -0.000005 -0.000006 0.000048
 25   4.941364 1.997338 1.629330 0.000018 -0.000001 -0.000024
 26   4.941382 1.997366 -1.629410 -0.000001 0.000005 -0.000024
 27   2.930087 1.603639 1.514501 -0.000019 -0.000022 -0.000050
 28   2.932517 1.603245 -1.501142 -0.000002 -0.000009 -0.000024
 29   8.824059 0.150544 0.091743 0.014265 -0.004409 -0.132849
 30   2.118898 -0.561179 1.764788 -0.000361 0.026111 0.001804
 31   2.133009 -0.561289 -1.837973 0.000046 -0.035330 0.001945
 32   -0.810489 -0.093824 3.127092 0.338887 -3.077718 -0.172873
 33   14.298673 -0.408176 0.475484 0.015049 -0.093976 -0.504446
 34   15.835795 0.581398 0.242756 -0.532523 -0.064474 0.362871
 35   -0.815868 -0.091229 -3.114430 -0.002100 2.881638 -0.320446
 36   14.294526 -0.410349 -0.463635 -0.023194 0.094175 -0.583436
 37   15.834409 0.579420 -0.284600 -0.051525 0.043093 0.201376
 38   1.147498 -3.453749 -2.823813 0.001410 -0.001073 0.003239
 39   -4.457742 -1.011884 -0.738367 0.001846 0.004075 -0.016267
 40   1.110288 -3.449769 3.237290 -0.000674 -0.001276 0.005254
 41   -4.410401 -1.031785 0.967379 0.000191 0.000384 -0.001599
 42   -0.649655 1.697302 -2.641737 0.011973 0.018631 -0.001756
 43   -0.664068 1.698578 2.830313 -0.014031 -0.021134 0.003638
time 27
  0   0.001233 -0.019532 2.266065 0.000000 0.000000 -1.571829
  1   -1.093036 0.000002 -0.326057 -1.570757 -1.570379 -0.000123
  2   2.262337 0.113614 0.064702 -0.000052 0.000061 0.131363
  3   2.380047 0.353302 0.047440 -0.265608 0.050283 0.182344
  4   2.033756 0.190472 -0.000128 -0.261987 0.067090 0.243772
  5   2.451511 0.204909 -0.003447 -0.139451 0.000361 0.002613
  6   7.247600 -0.397300 -0.109469 0.000001 0.000033 0.052298
  7   -2.022252 -0.104661 3.136172 1.029233 -1.160856 -4.185077
  8   1.168026 -0.537438 -0.063437 -0.422732 0.244946 -0.660312
  9   6.790376 -0.619176 0.015206 -0.000213 -0.000151 -1.110807
 10   8.637599 0.544015 -0.090417 -4.300299 0.240886 0.178642
 11   6.790465 -0.619039 0.017802 0.000768 -0.011651 -0.792770
 12   -2.022474 -0.104699 -2.873818 0.270993 1.340554 -2.930132
 13   1.167898 -0.537463 0.063297 0.698653 -0.828049 -1.275740
 14   7.002743 -0.617765 -0.183752 0.000286 0.000250 -1.945396
 15   8.209042 0.615527 -0.255885 1.830882 -0.248151 1.080781
 16   7.002735 -0.617911 -0.183641 0.012979 0.010864 -1.380472
 17   1.574674 0.609930 -0.000899 0.701957 -0.323045 0.099824
 18   -0.602177 0.511412 -0.000006 0.000000 0.000000 0.000000
 19   3.646428 0.364526 1.119313 -0.000002 -0.000014 -0.174510
 20   3.646422 0.364499 -1.117566 0.000007 -0.000003 -0.174546
 21   3.805634 1.330634 1.627658 0.000002 -0.000011 -0.000026
 22   -0.246060 -0.011889 0.516521 -0.000011 0.000031 0.000025
 23   3.805651 1.330659 -1.631083 0.000019 0.000002 -0.000024
 24   -0.246150 -0.011872 -0.516511 -0.000005 -0.000006 0.000048
 25   4.941364 1.997338 1.629330 0.000018 -0.000001 -0.000024
 26   4.941382 1.997366 -1.629410 -0.000001 0.000005 -0.000024
 27   2.930087 1.603639 1.514501 -0.000019 -0.000022 -0.000050
 28   2.932517 1.603245 -1.501142 -0.000002 -0.000009 -0.000024
 29   8.824059 0.150544 0.091743 0.008472 -0.002629 -0.149802
 30   2.111085 -0.561179 1.776507 -0.000225 0.015185 0.001075
 31   2.129103 -0.561289 -1.845786 0.000031 -0.020902 0.001163
 32   -0.810489 -0.093824 3.127092 0.338887 -3.077718 -0.170311
 33   14.298673 -0.408176 0.475484 0.014258 -0.093033 -0.500873
 34   15.835795 0.581398 0.242756 -0.532523 -0.064474 0.362871
 35   -0.815868 -0.091229 -3.114430 -0.002100 2.881638 -0.318036
 36   14.294526 -0.410349 -0.463635 -0.022427 0.094654 -0.579883
 37   15.834409 0.579420 -0.284600 -0.051525 0.043093 0.201376
 38   1.139685 -3.453749 -2.823813 0.000842 -0.000627 0.001895
 39   -4.457742 -1.027509 -0.746180 0.001091 0.002409 -0.009648
 40   1.118101 -3.449769 3.237290 -0.000400 -0.000746 0.003116
 41   -4.426027 -1.043504 0.959566 0.000107 0.000228 -0.000954
 42   -0.649655 1.697302 -2.661269 0.007095 0.011057 -0.001046
 43   -0.664068 1.698578 2.849845 -0.008309 -0.012520 0.002133
time 28
  0   0.001233 -0.019532 2.277784 0.000000 0.000000 -1.571829
  1   -1.093036 0.000002 -0.326057 -1.570757 -1.570379 -0.000123
  2   2.262337 0.113614 0.064702 -0.000052 0.000061 0.131363
  3   2.380047 0.353302 0.047440 -0.265728 0.049852 0.180242
  4   2.033756 0.190472 -0.000128 -0.261987 0.067090 0.243772
  5   2.451511 0.204909 -0.003447 -0.139451 -0.000358 -0.004569
  6   7.247600 -0.397300 -0.109469 0.000001 0.000033 0.052298
  7   -2.022252 -0.104661 3.136172 1.043804 -1.164517 -4.200479
  8   1.168026 -0.537438 -0.063437 -0.423175 0.258883 -0.658604
  9   6.790376 -0.619176 0.015206 -0.000213 -0.000151 -1.110807
 10   8.637599 0.544015 -0.090417 -4.300299 0.240886 0.178642
 11   6.790465 -0.619039 0.017802 0.000768 -0.011651 -0.792770
 12   -2.022474 -0.104699 -2.873818 0.280382 1.348245 -2.920845
 13   1.167898 -0.537463 0.063297 0.704347 -0.838626 -1.277859
 14   7.002743 -0.617765 -0.183752 0.000286 0.000250 -1.945396
 15   8.209042 0.615527 -0.255885 1.831242 -0.250193 1.080179
 16   7.002735 -0.617911 -0.183641 0.012979 0.010864 -1.380472
 17   1.574674 0.609930 -0.000899 0.701753 -0.323826 0.109323
 18   -0.602177 0.511412 -0.000006 0.000000 0.000000 0.000000
 19   3.646428 0.364526 1.119313 -0.000002 -0.000014 -0.174510
 20   3.646422 0.364499 -1.117566 0.000007 -0.000003 -0.174546
 21   3.805634 1.330634 1.627658 0.000002 -0.000011 -0.000026
 22   -0.246060 -0.011889 0.516521 -0.000011 0.000031 0.000025
 23   3.805651 1.330659 -1.631083 0.000019 0.000002 -0.000024
 24   -0.246150 -0.011872 -0.516511 -0.000005 -0.000006 0.000048
 25   4.941364 1.997338 1.629330 0.000018 -0.000001 -0.000024
 26   4.941382 1.997366 -1.629410 -0.000001 0.000005 -0.000024
 27   2.930087 1.603639 1.514501 -0.000019 -0.000022 -0.000050
 28   2.932517 1.603245 -1.501142 -0.000002 -0.000009 -0.000024
 29   8.824059 0.150544 0.091743 0.003838 -0.001323 -0.163053
 30   2.111085 -0.561179 1.784320 -0.000103 0.006728 0.000496
 31   2.121290 -0.561289 -1.853599 0.000000 -0.009765 0.000544
 32   -0.810489 -0.093824 3.127092 0.338887 -3.077718 -0.168604
 33   14.298673 -0.408176 0.475484 0.013671 -0.092387 -0.498491
 34   15.835795 0.581398 0.242756 -0.532523 -0.064474 0.362871
 35   -0.815868 -0.091229 -3.114430 -0.002100 2.881638 -0.316502
 36   14.294526 -0.410349 -0.463635 -0.021863 0.095050 -0.577334
 37   15.834409 0.579420 -0.284600 -0.051525 0.043093 0.201376
 38   1.139685 -3.453749 -2.823813 0.000400 -0.000277 0.000795
 39   -4.457742 -1.047041 -0.746180 0.000491 0.001127 -0.004459
 40   1.118101 -3.449769 3.237290 -0.000168 -0.000336 0.001405
 41   -4.433840 -1.051317 0.959566 0.000047 0.000108 -0.000449
 42   -0.657468 1.697302 -2.680801 0.003308 0.005169 -0.000418
 43   -0.664068 1.698578 2.861564 -0.003886 -0.005851 0.001004
time 29
  0   0.001233 -0.019532 2.289504 0.000000 0.000000 -1.571829
  1   -1.093036 0.000002 -0.326057 -1.570757 -1.570379 -0.000123
  2   2.262337 0.113614 0.064702 -0.000052 0.000061 0.131363
  3   2.380047 0.353302 0.047440 -0.265833 0.049301 0.178324
  4   2.033756 0.190472 -0.000128 -0.261987 0.067090 0.243772
  5   2.451511 0.204909 -0.003447 -0.139451 -0.001258 -0.011404
  6   7.247600 -0.397300 -0.109469 0.000001 0.000033 0.052298
  7   -2.022252 -0.104661 3.136172 1.057416 -1.167861 -4.215599
  8   1.168026 -0.537438 -0.063437 -0.423492 0.271864 -0.657149
  9   6.790376 -0.619176 0.015206 -0.000213 -0.000151 -1.110807
 10   8.637599 0.544015 -0.090417 -4.300299 0.240886 0.178642
 11   6.790465 -0.619039 0.017802 0.000768 -0.011651 -0.792770
 12   -2.022474 -0.104699 -2.873818 0.289867 1.355356 -2.910888
 13   1.167898 -0.537463 0.063297 0.709689 -0.848492 -1.279554
 14   7.002743 -0.617765 -0.183752 0.000286 0.000250 -1.945396
 15   8.209042 0.615527 -0.255885 1.831529 -0.252161 1.079698
 16   7.002735 -0.617911 -0.183641 0.012979 0.010864 -1.380472
 17   1.574674 0.609930 -0.000899 0.701429 -0.324607 0.117824
 18   -0.602177 0.511412 -0.000006 0.000000 0.000000 0.000000
 19   3.646428 0.364526 1.119313 -0.000002 -0.000014 -0.174510
 20   3.646422 0.364499 -1.117566 0.000007 -0.000003 -0.174546
 21   3.805634 1.330634 1.627658 0.000002 -0.000011 -0.000026
 22   -0.246060 -0.011889 0.516521 -0.000011 0.000031 0.000025
 23   3.805651 1.330659 -1.631083 0.000019 0.000002 -0.000024
 24   -0.246150 -0.011872 -0.516511 -0.000005 -0.000006 0.000048
 25   4.941364 1.997338 1.629330 0.000018 -0.000001 -0.000024
 26   4.941382 1.997366 -1.629410 -0.000001 0.000005 -0.000024
 27   2.930087 1.603639 1.514501 -0.000019 -0.000022 -0.000050
 28   2.932517 1.603245 -1.501142 -0.000002 -0.000009 -0.000024
 29   8.824059 0.150544 0.091743 0.000897 -0.000468 -0.171583
 30   2.111085 -0.561179 1.784320 -0.000022 0.001236 0.000153
 31   2.121290 -0.561289 -1.853599 0.000000 -0.002538 0.000107
 32   -0.810489 -0.093824 3.127092 0.338887 -3.077718 -0.167693
 33   14.298673 -0.408176 0.475484 0.013323 -0.091999 -0.496903
 34   15.835795 0.581398 0.242756 -0.532523 -0.064474 0.362871
 35   -0.815868 -0.091229 -3.114430 -0.002100 2.881638 -0.315352
 36   14.294526 -0.410349 -0.463635 -0.021540 0.095253 -0.575789
 37   15.834409 0.579420 -0.284600 -0.051525 0.043093 0.201376
 38   1.139685 -3.453749 -2.823813 0.000063 -0.000060 0.000123
 39   -4.457742 -1.054854 -0.746180 0.000132 0.000288 -0.001178
 40   1.118101 -3.449769 3.237290 -0.000021 -0.000071 0.000367
 41   -4.433840 -1.059130 0.959566 0.000011 0.000024 -0.000084
 42   -0.657468 1.697302 -2.688614 0.000863 0.001336 -0.000084
 43   -0.664068 1.698578 2.869377 -0.001000 -0.001504 0.000251
time 30
  0   0.001233 -0.019532 2.289504 0.000000 0.000000 -1.571829
  1   -1.093036 0.000002 -0.326057 -1.570757 -1.570379 -0.000123
  2   2.262337 0.113614 0.064702 -0.000052 0.000061 0.131363
  3   2.380047 0.353302 0.047440 -0.265923 0.048689 0.176508
  4   2.033756 0.190472 -0.000128 -0.261987 0.067090 0.243772
  5   2.451511 0.204909 -0.003447 -0.139451 -0.002120 -0.017422
  6   7.247600 -0.397300 -0.109469 0.000001 0.000033 0.052298
  7   -2.022252 -0.104661 3.136172 1.070165 -1.170888 -4.229592
  8   1.168026 -0.537438 -0.063437 -0.423808 0.284040 -0.655947
  9   6.790376 -0.619176 0.015206 -0.000213 -0.000151 -1.110807
 10   8.637599 0.544015 -0.090417 -4.300299 0.240886 0.178642
 11   6.790465 -0.619039 0.017802 0.000768 -0.011651 -0.792770
 12   -2.022474 -0.104699 -2.873818 0.298873 1.361829 -2.901792
 13   1.167898 -0.537463 0.063297 0.714399 -0.857289 -1.281854
 14   7.002743 -0.617765 -0.183752 0.000286 0.000250 -1.945396
 15   8.209042 0.615527 -0.255885 1.831745 -0.254128 1.079217
 16   7.002735 -0.617911 -0.183641 0.012979 0.010864 -1.380472
 17   1.574674 0.609930 -0.000899 0.701225 -0.325317 0.125844
 18   -0.602177 0.511412 -0.000006 0.000000 0.000000 0.000000
 19   3.646428 0.364526 1.119313 -0.000002 -0.000014 -0.174510
 20   3.646422 0.364499 -1.117566 0.000007 -0.000003 -0.174546
 21   3.805634 1.330634 1.627658 0.000002 -0.000011 -0.000026
 22   -0.246060 -0.011889 0.516521 -0.000011 0.000031 0.000025
 23   3.805651 1.330659 -1.631083 0.000019 0.000002 -0.000024
 24   -0.246150 -0.011872 -0.516511 -0.000005 -0.000006 0.000048
 25   4.941364 1.997338 1.629330 0.000018 -0.000001 -0.000024
 26   4.941382 1.997366 -1.629410 -0.000001 0.000005 -0.000024
 27   2.930087 1.603639 1.514501 -0.000019 -0.000022 -0.000050
 28   2.932517 1.603245 -1.501142 -0.000002 -0.000009 -0.000024
 29   8.824059 0.150544 0.091743 0.000006 -0.000231 -0.174534
 30   2.111085 -0.561179 1.784320 -0.000008 -0.000682 0.000024
 31   2.121290 -0.561289 -1.853599 0.000000 0.000000 -0.000002
 32   -0.810489 -0.093824 3.127092 0.338887 -3.077718 -0.167351
 33   14.298673 -0.408176 0.475484 0.013203 -0.091857 -0.496506
 34   15.835795 0.581398 0.242756 -0.532523 -0.064474 0.362871
 35   -0.815868 -0.091229 -3.114430 -0.002100 2.881638 -0.314968
 36   14.294526 -0.410349 -0.463635 -0.021444 0.095325 -0.575403
 37   15.834409 0.579420 -0.284600 -0.051525 0.043093 0.201376
 38   1.139685 -3.453749 -2.823813 0.000000 0.000000 0.000001
 39   -4.457742 -1.054854 -0.746180 0.000000 0.000000 0.000000
 40   1.118101 -3.449769 3.237290 0.000000 0.000001 0.000000
 41   -4.433840 -1.059130 0.959566 -0.000001 0.000000 0.000000
 42   -0.657468 1.697302 -2.688614 0.000000 0.000002 0.000000
 43   -0.664068 1.698578 2.869377 0.000000 0.000002 0.000000
end
