version 1
nodes
  0 "Bip01" -1
  1 "Bip01 Pelvis" 0
  2 "Bip01 Spine" 1
  3 "Bip01 Spine1" 2
  4 "Bip01 Spine2" 3
  5 "Bip01 Spine3" 4
  6 "Bip01 Neck" 5
  7 "Bip01 L Arm" 6
  8 "Bip01 L Arm1" 7
  9 "Bip01 L Arm2" 8
 10 "Bip01 L Hand" 9
 11 "Bip06 L elbow2-smooth" 8
 12 "Bip01 R Arm" 6
 13 "Bip01 R Arm1" 12
 14 "Bip01 R Arm2" 13
 15 "Bip01 R Hand" 14
 16 "Bip06 R elbow2-smooth" 13
 17 "Bip01 Head" 6
 18 "Bip06 Head_helper" 17
 19 "Bip06 Head_eyes_l" 18
 20 "Bip06 Head_eyes_r" 18
 21 "Bip06 Head_blink_l" 18
 22 "Bip06 Head_blink_smooth_l1" 21
 23 "Bip06 Head_blink_r" 18
 24 "Bip06 Head_blink_smooth_r1" 23
 25 "Bip06 Head_L_eyebrow" 18
 26 "Bip06 Head_R_eyebrow" 18
 27 "Bip06 Head_blink_l_lid" 18
 28 "Bip06 Head_blink_r_lid" 18
 29 "Bip06 bunny" 18
 30 "Bip06 bunnyL" 29
 31 "Bip06 bunnyR" 29
 32 "Bip01 L Leg" 1
 33 "Bip01 L Leg1" 32
 34 "Bip01 L Foot" 33
 35 "Bip01 R Leg" 1
 36 "Bip01 R Leg1" 35
 37 "Bip01 R Foot" 36
 38 "Bip03 HairR1" 17
 39 "Bip03 HairR2" 38
 40 "Bip03 HairL1" 17
 41 "Bip03 HairL2" 40
 42 "Bip03 swingR" 17
 43 "Bip03 swingL" 17
end
skeleton
time 0
  0   0.001233 0.187506 0.867585 0.000000 0.000000 -1.571449
  1   -1.093036 0.000002 -0.326057 -1.570809 -1.570379 -0.000123
  2   2.262337 0.113614 0.064702 -0.127860 -0.007574 -0.059755
  3   2.380047 0.353302 0.047440 0.129744 0.037376 -0.077684
  4   2.033756 0.190472 -0.000128 -0.127061 -0.016539 -0.129898
  5   2.451511 0.204909 -0.003447 -0.128171 0.000060 -0.000136
  6   7.247600 -0.397300 -0.109469 0.000001 0.000021 0.087015
  7   -2.022252 -0.104661 3.136172 1.356780 -0.807647 -4.507857
  8   1.168026 -0.537438 -0.063437 -1.154318 -0.022374 -0.632857
  9   6.790376 -0.619176 0.015206 -0.000324 -0.000151 -0.989833
 10   8.637599 0.544015 -0.090417 -2.723498 0.011061 0.444435
 11   6.790465 -0.619039 0.017802 0.000213 -0.011566 -0.708045
 12   -2.022474 -0.104699 -2.873818 -1.479977 0.418725 -4.580230
 13   1.167898 -0.537463 0.063297 1.195562 0.204165 -0.687100
 14   7.002743 -0.617765 -0.183752 0.000229 0.000250 -0.579024
 15   8.209042 0.615527 -0.255885 1.718498 0.195592 0.171505
 16   7.002735 -0.617911 -0.183641 0.014533 0.003308 -0.423981
 17   1.574674 0.609930 -0.000899 0.254973 -0.004560 -0.075261
 18   -0.602177 0.511412 -0.000006 0.000000 0.000000 0.000000
 19   3.646428 0.364526 1.119313 -0.000002 -0.000014 -0.174510
 20   3.646422 0.364499 -1.117566 0.000007 -0.000003 -0.174546
 21   3.805634 1.330634 1.627658 0.000002 -0.000011 -0.000026
 22   -0.246060 -0.011889 0.516521 -0.000011 0.000031 0.000025
 23   3.805651 1.330659 -1.631083 0.000019 0.000002 -0.000024
 24   -0.246150 -0.011872 -0.516511 -0.000005 -0.000006 0.000048
 25   4.941364 1.997338 1.629330 0.000018 -0.000001 -0.000024
 26   4.941382 1.997366 -1.629410 -0.000001 0.000005 -0.000024
 27   2.930087 1.603639 1.514501 -0.000019 -0.000022 -0.000050
 28   2.932517 1.603245 -1.501142 -0.000002 -0.000009 -0.000024
 29   8.824059 0.150544 0.091743 0.000006 -0.000231 -0.174534
 30   2.111085 -0.561179 1.784320 -0.000008 -0.000682 0.000024
 31   2.121290 -0.561289 -1.853599 0.000000 0.000000 -0.000002
 32   -0.810489 -0.093824 3.127092 -0.129583 -2.975432 -0.324172
 33   14.298673 -0.408176 0.475484 -0.000100 0.000010 -0.436243
 34   15.835795 0.581398 0.242756 0.162134 -0.013861 0.022223
 35   -0.815868 -0.091229 -3.114430 0.096037 3.002684 -0.031283
 36   14.294526 -0.410349 -0.463635 0.000117 -0.000012 -0.399441
 37   15.834409 0.579420 -0.284600 -0.088763 0.039995 0.278038
 38   1.139685 -3.453749 -2.823813 0.000000 0.000000 0.000001
 39   -4.457742 -1.054854 -0.746180 0.000000 0.000000 0.000000
 40   1.118101 -3.449769 3.237290 0.000000 0.000001 0.000000
 41   -4.433840 -1.059130 0.959566 -0.000001 0.000000 0.000000
 42   -0.657468 1.697302 -2.688614 0.000000 0.000002 0.000000
 43   -0.664068 1.698578 2.869377 0.000000 0.000002 0.000000
time 1
  0   0.001233 0.187506 0.824615 0.000000 0.000000 -1.571449
  1   -1.093036 0.000002 -0.326057 -1.570809 -1.570379 -0.000123
  2   2.262337 0.113614 0.064702 -0.127860 -0.007574 -0.059755
  3   2.380047 0.353302 0.047440 0.129744 0.037376 -0.077684
  4   2.033756 0.190472 -0.000128 -0.127190 -0.015915 -0.126128
  5   2.451511 0.204909 -0.003447 -0.128171 0.000361 0.002836
  6   7.247600 -0.397300 -0.109469 0.000001 0.000021 0.087015
  7   -2.022252 -0.104661 3.136172 1.351604 -0.806638 -4.501002
  8   1.168026 -0.537438 -0.063437 -1.150964 -0.032135 -0.633616
  9   6.790376 -0.619176 0.015206 -0.000324 -0.000151 -0.989833
 10   8.637599 0.544015 -0.090417 -2.723498 0.011061 0.444435
 11   6.790465 -0.619039 0.017802 0.000213 -0.011566 -0.708045
 12   -2.022474 -0.104699 -2.873818 -1.477582 0.418406 -4.574389
 13   1.167898 -0.537463 0.063297 1.191134 0.214488 -0.689219
 14   7.002743 -0.617765 -0.183752 0.000229 0.000250 -0.579024
 15   8.209042 0.615527 -0.255885 1.718498 0.195592 0.171505
 16   7.002735 -0.617911 -0.183641 0.014533 0.003308 -0.423981
 17   1.574674 0.609930 -0.000899 0.254973 -0.004134 -0.082061
 18   -0.602177 0.511412 -0.000006 0.000000 0.000000 0.000000
 19   3.646428 0.364526 1.119313 -0.000002 -0.000014 -0.174510
 20   3.646422 0.364499 -1.117566 0.000007 -0.000003 -0.174546
 21   3.805634 1.330634 1.627658 0.000002 -0.000011 -0.000026
 22   -0.246060 -0.011889 0.516521 -0.000011 0.000031 0.000025
 23   3.805651 1.330659 -1.631083 0.000019 0.000002 -0.000024
 24   -0.246150 -0.011872 -0.516511 -0.000005 -0.000006 0.000048
 25   4.941364 1.997338 1.629330 0.000018 -0.000001 -0.000024
 26   4.941382 1.997366 -1.629410 -0.000001 0.000005 -0.000024
 27   2.930087 1.603639 1.514501 -0.000019 -0.000022 -0.000050
 28   2.932517 1.603245 -1.501142 -0.000002 -0.000009 -0.000024
 29   8.824059 0.150544 0.091743 0.000897 -0.000468 -0.171583
 30   2.111085 -0.561179 1.784320 -0.000022 0.001236 0.000153
 31   2.121290 -0.561289 -1.853599 0.000000 -0.002538 0.000107
 32   -0.810489 -0.093824 3.127092 -0.128091 -2.974191 -0.331572
 33   14.298673 -0.408176 0.475484 -0.000100 0.000010 -0.450455
 34   15.835795 0.581398 0.242756 0.162134 -0.014105 0.029147
 35   -0.815868 -0.091229 -3.114430 0.095245 3.001841 -0.038569
 36   14.294526 -0.410349 -0.463635 0.000117 -0.000012 -0.414735
 37   15.834409 0.579420 -0.284600 -0.088743 0.040251 0.286049
 38   1.139685 -3.453749 -2.823813 0.000063 -0.000060 0.000123
 39   -4.457742 -1.054854 -0.746180 0.000132 0.000288 -0.001178
 40   1.118101 -3.449769 3.237290 -0.000021 -0.000071 0.000367
 41   -4.433840 -1.059130 0.959566 0.000011 0.000024 -0.000084
 42   -0.657468 1.697302 -2.688614 0.000863 0.001336 -0.000084
 43   -0.664068 1.698578 2.869377 -0.001000 -0.001504 0.000251
time 2
  0   0.001233 0.187506 0.766019 0.000000 0.000000 -1.571449
  1   -1.093036 0.000002 -0.326057 -1.570809 -1.570379 -0.000123
  2   2.262337 0.113614 0.064702 -0.127860 -0.007574 -0.059755
  3   2.380047 0.353302 0.047440 0.129744 0.037376 -0.077684
  4   2.033756 0.190472 -0.000128 -0.127190 -0.015544 -0.122286
  5   2.451511 0.204909 -0.003447 -0.128171 0.000896 0.006204
  6   7.247600 -0.397300 -0.109469 0.000001 0.000021 0.087015
  7   -2.022252 -0.104661 3.136172 1.346236 -0.805456 -4.493207
  8   1.168026 -0.537438 -0.063437 -1.147610 -0.043355 -0.634818
  9   6.790376 -0.619176 0.015206 -0.000324 -0.000151 -0.989833
 10   8.637599 0.544015 -0.090417 -2.723498 0.011061 0.444435
 11   6.790465 -0.619039 0.017802 0.000213 -0.011566 -0.708045
 12   -2.022474 -0.104699 -2.873818 -1.475091 0.418029 -4.568357
 13   1.167898 -0.537463 0.063297 1.185932 0.226083 -0.691398
 14   7.002743 -0.617765 -0.183752 0.000229 0.000250 -0.579024
 15   8.209042 0.615527 -0.255885 1.718498 0.195592 0.171505
 16   7.002735 -0.617911 -0.183641 0.014533 0.003308 -0.423981
 17   1.574674 0.609930 -0.000899 0.254973 -0.003566 -0.089454
 18   -0.602177 0.511412 -0.000006 0.000000 0.000000 0.000000
 19   3.646428 0.364526 1.119313 -0.000002 -0.000014 -0.174510
 20   3.646422 0.364499 -1.117566 0.000007 -0.000003 -0.174546
 21   3.805634 1.330634 1.627658 0.000002 -0.000011 -0.000026
 22   -0.246060 -0.011889 0.516521 -0.000011 0.000031 0.000025
 23   3.805651 1.330659 -1.631083 0.000019 0.000002 -0.000024
 24   -0.246150 -0.011872 -0.516511 -0.000005 -0.000006 0.000048
 25   4.941364 1.997338 1.629330 0.000018 -0.000001 -0.000024
 26   4.941382 1.997366 -1.629410 -0.000001 0.000005 -0.000024
 27   2.930087 1.603639 1.514501 -0.000019 -0.000022 -0.000050
 28   2.932517 1.603245 -1.501142 -0.000002 -0.000009 -0.000024
 29   8.824059 0.150544 0.091743 0.003838 -0.001323 -0.163053
 30   2.111085 -0.561179 1.784320 -0.000103 0.006728 0.000496
 31   2.121290 -0.561289 -1.853599 0.000000 -0.009765 0.000544
 32   -0.810489 -0.093824 3.127092 -0.127159 -2.972949 -0.339085
 33   14.298673 -0.408176 0.475484 -0.000100 0.000010 -0.465382
 34   15.835795 0.581398 0.242756 0.162134 -0.014349 0.036777
 35   -0.815868 -0.091229 -3.114430 0.093748 3.001092 -0.046237
 36   14.294526 -0.410349 -0.463635 0.000128 -0.000012 -0.430725
 37   15.834409 0.579420 -0.284600 -0.088684 0.040533 0.294364
 38   1.139685 -3.453749 -2.823813 0.000400 -0.000277 0.000795
 39   -4.457742 -1.047041 -0.746180 0.000491 0.001127 -0.004459
 40   1.118101 -3.449769 3.237290 -0.000168 -0.000336 0.001405
 41   -4.433840 -1.051317 0.959566 0.000047 0.000108 -0.000449
 42   -0.657468 1.697302 -2.680801 0.003308 0.005169 -0.000418
 43   -0.664068 1.698578 2.861564 -0.003886 -0.005851 0.001004
time 3
  0   0.001233 0.187506 0.703518 0.000000 0.000000 -1.571449
  1   -1.093036 0.000002 -0.326057 -1.570809 -1.570379 -0.000123
  2   2.262337 0.113614 0.064702 -0.127860 -0.007574 -0.059755
  3   2.380047 0.353302 0.047440 0.129744 0.037376 -0.077684
  4   2.033756 0.190472 -0.000128 -0.127301 -0.014993 -0.117864
  5   2.451511 0.204909 -0.003447 -0.128171 0.001209 0.009894
  6   7.247600 -0.397300 -0.109469 0.000001 0.000021 0.087015
  7   -2.022252 -0.104661 3.136172 1.340101 -0.804188 -4.485130
  8   1.168026 -0.537438 -0.063437 -1.143750 -0.054726 -0.635767
  9   6.790376 -0.619176 0.015206 -0.000324 -0.000151 -0.989833
 10   8.637599 0.544015 -0.090417 -2.723498 0.011061 0.444435
 11   6.790465 -0.619039 0.017802 0.000213 -0.011566 -0.708045
 12   -2.022474 -0.104699 -2.873818 -1.472600 0.417303 -4.562518
 13   1.167898 -0.537463 0.063297 1.180519 0.238339 -0.693759
 14   7.002743 -0.617765 -0.183752 0.000229 0.000250 -0.579024
 15   8.209042 0.615527 -0.255885 1.718498 0.195592 0.171505
 16   7.002735 -0.617911 -0.183641 0.014533 0.003308 -0.423981
 17   1.574674 0.609930 -0.000899 0.254973 -0.003069 -0.097363
 18   -0.602177 0.511412 -0.000006 0.000000 0.000000 0.000000
 19   3.646428 0.364526 1.119313 -0.000002 -0.000014 -0.174510
 20   3.646422 0.364499 -1.117566 0.000007 -0.000003 -0.174546
 21   3.805634 1.330634 1.627658 0.000002 -0.000011 -0.000026
 22   -0.246060 -0.011889 0.516521 -0.000011 0.000031 0.000025
 23   3.805651 1.330659 -1.631083 0.000019 0.000002 -0.000024
 24   -0.246150 -0.011872 -0.516511 -0.000005 -0.000006 0.000048
 25   4.941364 1.997338 1.629330 0.000018 -0.000001 -0.000024
 26   4.941382 1.997366 -1.629410 -0.000001 0.000005 -0.000024
 27   2.930087 1.603639 1.514501 -0.000019 -0.000022 -0.000050
 28   2.932517 1.603245 -1.501142 -0.000002 -0.000009 -0.000024
 29   8.824059 0.150544 0.091743 0.008472 -0.002629 -0.149802
 30   2.111085 -0.561179 1.776507 -0.000225 0.015185 0.001075
 31   2.129103 -0.561289 -1.845786 0.000031 -0.020902 0.001163
 32   -0.810489 -0.093824 3.127092 -0.125668 -2.971994 -0.346884
 33   14.298673 -0.408176 0.475484 -0.000100 0.000010 -0.480706
 34   15.835795 0.581398 0.242756 0.162042 -0.014520 0.044009
 35   -0.815868 -0.091229 -3.114430 0.092428 2.999686 -0.053906
 36   14.294526 -0.410349 -0.463635 0.000128 -0.000012 -0.446946
 37   15.834409 0.579420 -0.284600 -0.088684 0.040789 0.302730
 38   1.139685 -3.453749 -2.823813 0.000842 -0.000627 0.001895
 39   -4.457742 -1.027509 -0.746180 0.001091 0.002409 -0.009648
 40   1.118101 -3.449769 3.237290 -0.000400 -0.000746 0.003116
 41   -4.426027 -1.043504 0.959566 0.000107 0.000228 -0.000954
 42   -0.649655 1.697302 -2.661269 0.007095 0.011057 -0.001046
 43   -0.664068 1.698578 2.849845 -0.008309 -0.012520 0.002133
time 4
  0   0.001233 0.187506 0.633203 0.000000 0.000000 -1.571449
  1   -1.093036 0.000002 -0.326057 -1.570809 -1.570379 -0.000123
  2   2.262337 0.113614 0.064702 -0.127860 -0.007574 -0.059755
  3   2.380047 0.353302 0.047440 0.129744 0.037376 -0.077684
  4   2.033756 0.190472 -0.000128 -0.127356 -0.014310 -0.113333
  5   2.451511 0.204909 -0.003447 -0.128171 0.001849 0.013609
  6   7.247600 -0.397300 -0.109469 0.000001 0.000021 0.087015
  7   -2.022252 -0.104661 3.136172 1.334062 -0.802775 -4.476678
  8   1.168026 -0.537438 -0.063437 -1.139700 -0.066902 -0.637032
  9   6.790376 -0.619176 0.015206 -0.000324 -0.000151 -0.989833
 10   8.637599 0.544015 -0.090417 -2.723498 0.011061 0.444435
 11   6.790465 -0.619039 0.017802 0.000213 -0.011566 -0.708045
 12   -2.022474 -0.104699 -2.873818 -1.470109 0.416577 -4.555816
 13   1.167898 -0.537463 0.063297 1.174615 0.251052 -0.696362
 14   7.002743 -0.617765 -0.183752 0.000229 0.000250 -0.579024
 15   8.209042 0.615527 -0.255885 1.718498 0.195592 0.171505
 16   7.002735 -0.617911 -0.183641 0.014533 0.003308 -0.423981
 17   1.574674 0.609930 -0.000899 0.254973 -0.002430 -0.105679
 18   -0.602177 0.511412 -0.000006 0.000000 0.000000 0.000000
 19   3.646428 0.364526 1.119313 -0.000002 -0.000014 -0.174510
 20   3.646422 0.364499 -1.117566 0.000007 -0.000003 -0.174546
 21   3.805634 1.330634 1.627658 0.000002 -0.000011 -0.000026
 22   -0.246060 -0.011889 0.516521 -0.000011 0.000031 0.000025
 23   3.805651 1.330659 -1.631083 0.000019 0.000002 -0.000024
 24   -0.246150 -0.011872 -0.516511 -0.000005 -0.000006 0.000048
 25   4.941364 1.997338 1.629330 0.000018 -0.000001 -0.000024
 26   4.941382 1.997366 -1.629410 -0.000001 0.000005 -0.000024
 27   2.930087 1.603639 1.514501 -0.000019 -0.000022 -0.000050
 28   2.932517 1.603245 -1.501142 -0.000002 -0.000009 -0.000024
 29   8.824059 0.150544 0.091743 0.014265 -0.004409 -0.132849
 30   2.118898 -0.561179 1.764788 -0.000361 0.026111 0.001804
 31   2.133009 -0.561289 -1.837973 0.000046 -0.035330 0.001945
 32   -0.810489 -0.093824 3.127092 -0.124270 -2.970848 -0.354284
 33   14.298673 -0.408176 0.475484 -0.000100 0.000010 -0.495474
 34   15.835795 0.581398 0.242756 0.162042 -0.014764 0.051242
 35   -0.815868 -0.091229 -3.114430 0.091636 2.998843 -0.061574
 36   14.294526 -0.410349 -0.463635 0.000128 -0.000012 -0.462781
 37   15.834409 0.579420 -0.284600 -0.088684 0.041045 0.311045
 38   1.147498 -3.453749 -2.823813 0.001410 -0.001073 0.003239
 39   -4.457742 -1.011884 -0.738367 0.001846 0.004075 -0.016267
 40   1.110288 -3.449769 3.237290 -0.000674 -0.001276 0.005254
 41   -4.410401 -1.031785 0.967379 0.000191 0.000384 -0.001599
 42   -0.649655 1.697302 -2.641737 0.011973 0.018631 -0.001756
 43   -0.664068 1.698578 2.830313 -0.014031 -0.021134 0.003638
time 5
  0   0.001233 0.187506 0.566795 0.000000 0.000000 -1.571449
  1   -1.093036 0.000002 -0.326057 -1.570809 -1.570379 -0.000123
  2   2.262337 0.113614 0.064702 -0.127860 -0.007574 -0.059755
  3   2.380047 0.353302 0.047440 0.129744 0.037376 -0.077684
  4   2.033756 0.190472 -0.000128 -0.127393 -0.013674 -0.108766
  5   2.451511 0.204909 -0.003447 -0.128171 0.002332 0.017398
  6   7.247600 -0.397300 -0.109469 0.000001 0.000021 0.087015
  7   -2.022252 -0.104661 3.136172 1.327927 -0.801219 -4.467944
  8   1.168026 -0.537438 -0.063437 -1.135587 -0.079229 -0.638424
  9   6.790376 -0.619176 0.015206 -0.000324 -0.000151 -0.989833
 10   8.637599 0.544015 -0.090417 -2.723498 0.011061 0.444435
 11   6.790465 -0.619039 0.017802 0.000213 -0.011566 -0.708045
 12   -2.022474 -0.104699 -2.873818 -1.467234 0.416026 -4.549210
 13   1.167898 -0.537463 0.063297 1.168710 0.263867 -0.699328
 14   7.002743 -0.617765 -0.183752 0.000229 0.000250 -0.579024
 15   8.209042 0.615527 -0.255885 1.718498 0.195592 0.171505
 16   7.002735 -0.617911 -0.183641 0.014533 0.003308 -0.423981
 17   1.574674 0.609930 -0.000899 0.254973 -0.001862 -0.114181
 18   -0.602177 0.511412 -0.000006 0.000000 0.000000 0.000000
 19   3.646428 0.364526 1.119313 -0.000002 -0.000014 -0.174510
 20   3.646422 0.364499 -1.117566 0.000007 -0.000003 -0.174546
 21   3.805634 1.330634 1.627658 0.000002 -0.000011 -0.000026
 22   -0.246060 -0.011889 0.516521 -0.000011 0.000031 0.000025
 23   3.805651 1.330659 -1.631083 0.000019 0.000002 -0.000024
 24   -0.246150 -0.011872 -0.516511 -0.000005 -0.000006 0.000048
 25   4.941364 1.997338 1.629330 0.000018 -0.000001 -0.000024
 26   4.941382 1.997366 -1.629410 -0.000001 0.000005 -0.000024
 27   2.930087 1.603639 1.514501 -0.000019 -0.000022 -0.000050
 28   2.932517 1.603245 -1.501142 -0.000002 -0.000009 -0.000024
 29   8.824059 0.150544 0.091743 0.021038 -0.006617 -0.112785
 30   2.122804 -0.561179 1.753069 -0.000537 0.038927 0.002640
 31   2.140822 -0.561289 -1.834067 0.000092 -0.052191 0.002891
 32   -0.810489 -0.093824 3.127092 -0.122872 -2.969606 -0.361627
 33   14.298673 -0.408176 0.475484 -0.000112 0.000010 -0.509448
 34   15.835795 0.581398 0.242756 0.162042 -0.015008 0.058519
 35   -0.815868 -0.091229 -3.114430 0.090404 2.998187 -0.068695
 36   14.294526 -0.410349 -0.463635 0.000128 -0.000012 -0.477535
 37   15.834409 0.579420 -0.284600 -0.088684 0.041301 0.318853
 38   1.147498 -3.453749 -2.823813 0.002126 -0.001579 0.004766
 39   -4.457742 -0.992352 -0.734461 0.002721 0.006016 -0.024035
 40   1.110288 -3.449769 3.237290 -0.000989 -0.001903 0.007820
 41   -4.402589 -1.020066 0.967379 0.000287 0.000575 -0.002384
 42   -0.637936 1.697302 -2.618299 0.017689 0.027570 -0.002635
 43   -0.664068 1.690765 2.806875 -0.020753 -0.031240 0.005395
time 6
  0   0.001233 0.187506 0.508199 0.000000 0.000000 -1.571449
  1   -1.093036 0.000002 -0.326057 -1.570809 -1.570379 -0.000123
  2   2.262337 0.113614 0.064702 -0.127860 -0.007574 -0.059755
  3   2.380047 0.353302 0.047440 0.129744 0.037376 -0.077684
  4   2.033756 0.190472 -0.000128 -0.127467 -0.013231 -0.104090
  5   2.451511 0.204909 -0.003447 -0.128171 0.002711 0.021311
  6   7.247600 -0.397300 -0.109469 0.000001 0.000021 0.087015
  7   -2.022252 -0.104661 3.136172 1.321792 -0.799777 -4.459304
  8   1.168026 -0.537438 -0.063437 -1.131600 -0.091858 -0.639942
  9   6.790376 -0.619176 0.015206 -0.000324 -0.000151 -0.989833
 10   8.637599 0.544015 -0.090417 -2.723498 0.011061 0.444435
 11   6.790465 -0.619039 0.017802 0.000213 -0.011566 -0.708045
 12   -2.022474 -0.104699 -2.873818 -1.464648 0.415242 -4.542508
 13   1.167898 -0.537463 0.063297 1.162594 0.276682 -0.702355
 14   7.002743 -0.617765 -0.183752 0.000229 0.000250 -0.579024
 15   8.209042 0.615527 -0.255885 1.718498 0.195592 0.171505
 16   7.002735 -0.617911 -0.183641 0.014533 0.003308 -0.423981
 17   1.574674 0.609930 -0.000899 0.254973 -0.001223 -0.122682
 18   -0.602177 0.511412 -0.000006 0.000000 0.000000 0.000000
 19   3.646428 0.364526 1.119313 -0.000002 -0.000014 -0.174510
 20   3.646422 0.364499 -1.117566 0.000007 -0.000003 -0.174546
 21   3.805634 1.330634 1.627658 0.000002 -0.000011 -0.000026
 22   -0.246060 -0.011889 0.516521 -0.000011 0.000031 0.000025
 23   3.805651 1.330659 -1.631083 0.000019 0.000002 -0.000024
 24   -0.246150 -0.011872 -0.516511 -0.000005 -0.000006 0.000048
 25   4.941364 1.997338 1.629330 0.000018 -0.000001 -0.000024
 26   4.941382 1.997366 -1.629410 -0.000001 0.000005 -0.000024
 27   2.930087 1.603639 1.514501 -0.000019 -0.000022 -0.000050
 28   2.932517 1.603245 -1.501142 -0.000002 -0.000009 -0.000024
 29   8.824059 0.150544 0.091743 0.028525 -0.009228 -0.090682
 30   2.130617 -0.561179 1.741350 -0.000727 0.053079 0.003583
 31   2.152541 -0.561289 -1.822348 0.000138 -0.070866 0.003965
 32   -0.810489 -0.093824 3.127092 -0.121660 -2.968747 -0.368173
 33   14.298673 -0.408176 0.475484 -0.000112 0.000010 -0.522390
 34   15.835795 0.581398 0.242756 0.162042 -0.015203 0.064782
 35   -0.815868 -0.091229 -3.114430 0.089260 2.997344 -0.075488
 36   14.294526 -0.410349 -0.463635 0.000128 -0.000012 -0.491284
 37   15.834409 0.579420 -0.284600 -0.088644 0.041454 0.326255
 38   1.155311 -3.453749 -2.823813 0.002884 -0.002145 0.006538
 39   -4.457742 -0.961101 -0.726648 0.003691 0.008162 -0.032645
 40   1.106382 -3.449769 3.237290 -0.001347 -0.002602 0.010692
 41   -4.386963 -1.000534 0.979098 0.000383 0.000791 -0.003225
 42   -0.637936 1.697302 -2.594861 0.024017 0.037413 -0.003597
 43   -0.664068 1.690765 2.787343 -0.028187 -0.042428 0.007319
time 7
  0   0.001233 0.187506 0.441791 0.000000 0.000000 -1.571449
  1   -1.093036 0.000002 -0.326057 -1.570809 -1.570379 -0.000123
  2   2.262337 0.113614 0.064702 -0.127860 -0.007574 -0.059755
  3   2.380047 0.353302 0.047440 0.129744 0.037376 -0.077684
  4   2.033756 0.190472 -0.000128 -0.127522 -0.012656 -0.099668
  5   2.451511 0.204909 -0.003447 -0.128171 0.003311 0.025001
  6   7.247600 -0.397300 -0.109469 0.000001 0.000021 0.087015
  7   -2.022252 -0.104661 3.136172 1.315849 -0.798249 -4.450946
  8   1.168026 -0.537438 -0.063437 -1.127550 -0.104034 -0.641397
  9   6.790376 -0.619176 0.015206 -0.000324 -0.000151 -0.989833
 10   8.637599 0.544015 -0.090417 -2.723498 0.011061 0.444435
 11   6.790465 -0.619039 0.017802 0.000213 -0.011566 -0.708045
 12   -2.022474 -0.104699 -2.873818 -1.462061 0.414865 -4.535519
 13   1.167898 -0.537463 0.063297 1.156900 0.289344 -0.705321
 14   7.002743 -0.617765 -0.183752 0.000229 0.000250 -0.579024
 15   8.209042 0.615527 -0.255885 1.718498 0.195592 0.171505
 16   7.002735 -0.617911 -0.183641 0.014533 0.003308 -0.423981
 17   1.574674 0.609930 -0.000899 0.254973 -0.000655 -0.130887
 18   -0.602177 0.511412 -0.000006 0.000000 0.000000 0.000000
 19   3.646428 0.364526 1.119313 -0.000002 -0.000014 -0.174510
 20   3.646422 0.364499 -1.117566 0.000007 -0.000003 -0.174546
 21   3.805634 1.330634 1.627658 0.000002 -0.000011 -0.000026
 22   -0.246060 -0.011889 0.516521 -0.000011 0.000031 0.000025
 23   3.805651 1.330659 -1.631083 0.000019 0.000002 -0.000024
 24   -0.246150 -0.011872 -0.516511 -0.000005 -0.000006 0.000048
 25   4.941364 1.997338 1.629330 0.000018 -0.000001 -0.000024
 26   4.941382 1.997366 -1.629410 -0.000001 0.000005 -0.000024
 27   2.930087 1.603639 1.514501 -0.000019 -0.000022 -0.000050
 28   2.932517 1.603245 -1.501142 -0.000002 -0.000009 -0.000024
 29   8.824059 0.150544 0.091743 0.036367 -0.012124 -0.067345
 30   2.138430 -0.561179 1.721818 -0.000944 0.068074 0.004570
 31   2.160354 -0.561289 -1.814535 0.000184 -0.090655 0.005075
 32   -0.810489 -0.093824 3.127092 -0.120635 -2.967792 -0.374036
 33   14.298673 -0.408176 0.475484 -0.000112 -0.000003 -0.533982
 34   15.835795 0.581398 0.242756 0.162134 -0.015447 0.069765
 35   -0.815868 -0.091229 -3.114430 0.088467 2.996595 -0.081403
 36   14.294526 -0.410349 -0.463635 0.000128 -0.000012 -0.503566
 37   15.834409 0.579420 -0.284600 -0.088585 0.041736 0.332542
 38   1.159217 -3.461562 -2.823813 0.003684 -0.002748 0.008371
 39   -4.465555 -0.937663 -0.718835 0.004734 0.010463 -0.041760
 40   1.098569 -3.441956 3.237290 -0.001726 -0.003325 0.013624
 41   -4.371338 -0.988815 0.979098 0.000490 0.001019 -0.004151
 42   -0.626217 1.697302 -2.563610 0.030717 0.047854 -0.004558
 43   -0.664068 1.686859 2.763905 -0.036033 -0.054275 0.009284
time 8
  0   0.001233 0.187506 0.371476 0.000000 0.000000 -1.571449
  1   -1.093036 0.000002 -0.326057 -1.570809 -1.570379 -0.000123
  2   2.262337 0.113614 0.064702 -0.127860 -0.007574 -0.059755
  3   2.380047 0.353302 0.047440 0.129744 0.037376 -0.077684
  4   2.033756 0.190472 -0.000128 -0.127559 -0.011973 -0.095246
  5   2.451511 0.204909 -0.003447 -0.128171 0.003638 0.028592
  6   7.247600 -0.397300 -0.109469 0.000001 0.000021 0.087015
  7   -2.022252 -0.104661 3.136172 1.309906 -0.796837 -4.442869
  8   1.168026 -0.537438 -0.063437 -1.123627 -0.115405 -0.642852
  9   6.790376 -0.619176 0.015206 -0.000324 -0.000151 -0.989833
 10   8.637599 0.544015 -0.090417 -2.723498 0.011061 0.444435
 11   6.790465 -0.619039 0.017802 0.000213 -0.011566 -0.708045
 12   -2.022474 -0.104699 -2.873818 -1.459474 0.414168 -4.529583
 13   1.167898 -0.537463 0.063297 1.150855 0.301345 -0.708348
 14   7.002743 -0.617765 -0.183752 0.000229 0.000250 -0.579024
 15   8.209042 0.615527 -0.255885 1.718498 0.195592 0.171505
 16   7.002735 -0.617911 -0.183641 0.014533 0.003308 -0.423981
 17   1.574674 0.609930 -0.000899 0.254891 -0.000087 -0.138834
 18   -0.602177 0.511412 -0.000006 0.000000 0.000000 0.000000
 19   3.646428 0.364526 1.119313 -0.000002 -0.000014 -0.174510
 20   3.646422 0.364499 -1.117566 0.000007 -0.000003 -0.174546
 21   3.805634 1.330634 1.627658 0.000002 -0.000011 -0.000026
 22   -0.246060 -0.011889 0.516521 -0.000011 0.000031 0.000025
 23   3.805651 1.330659 -1.631083 0.000019 0.000002 -0.000024
 24   -0.246150 -0.011872 -0.516511 -0.000005 -0.000006 0.000048
 25   4.941364 1.997338 1.629330 0.000018 -0.000001 -0.000024
 26   4.941382 1.997366 -1.629410 -0.000001 0.000005 -0.000024
 27   2.930087 1.603639 1.514501 -0.000019 -0.000022 -0.000050
 28   2.932517 1.603245 -1.501142 -0.000002 -0.000009 -0.000024
 29   8.824059 0.150544 0.091743 0.044210 -0.015305 -0.043579
 30   2.142336 -0.561179 1.710099 -0.001161 0.083331 0.005578
 31   2.172073 -0.561289 -1.802816 0.000215 -0.110755 0.006203
 32   -0.810489 -0.093824 3.127092 -0.119516 -2.967123 -0.379386
 33   14.298673 -0.408176 0.475484 -0.000112 -0.000003 -0.544780
 34   15.835795 0.581398 0.242756 0.162134 -0.015569 0.075146
 35   -0.815868 -0.091229 -3.114430 0.087675 2.995751 -0.086771
 36   14.294526 -0.410349 -0.463635 0.000128 -0.000012 -0.514921
 37   15.834409 0.579420 -0.284600 -0.088566 0.041890 0.338576
 38   1.159217 -3.461562 -2.823813 0.004505 -0.003350 0.010326
 39   -4.465555 -0.910318 -0.714929 0.005789 0.012776 -0.051015
 40   1.098569 -3.441956 3.237290 -0.002126 -0.004048 0.016740
 41   -4.355712 -0.965377 0.990817 0.000610 0.001234 -0.005048
 42   -0.618404 1.697302 -2.536265 0.037548 0.058464 -0.005646
 43   -0.664068 1.679046 2.736560 -0.044042 -0.066310 0.011417
time 9
  0   0.001233 0.187506 0.312881 0.000000 0.000000 -1.571449
  1   -1.093036 0.000002 -0.326057 -1.570809 -1.570379 -0.000123
  2   2.262337 0.113614 0.064702 -0.127860 -0.007574 -0.059755
  3   2.380047 0.353302 0.047440 0.129744 0.037376 -0.077684
  4   2.033756 0.190472 -0.000128 -0.127651 -0.011433 -0.091295
  5   2.451511 0.204909 -0.003447 -0.128154 0.004212 0.031985
  6   7.247600 -0.397300 -0.109469 0.000001 0.000021 0.087015
  7   -2.022252 -0.104661 3.136172 1.304538 -0.795338 -4.435262
  8   1.168026 -0.537438 -0.063437 -1.119830 -0.126122 -0.644497
  9   6.790376 -0.619176 0.015206 -0.000324 -0.000151 -0.989833
 10   8.637599 0.544015 -0.090417 -2.723498 0.011061 0.444435
 11   6.790465 -0.619039 0.017802 0.000213 -0.011566 -0.708045
 12   -2.022474 -0.104699 -2.873818 -1.457079 0.413704 -4.523551
 13   1.167898 -0.537463 0.063297 1.145372 0.312686 -0.711193
 14   7.002743 -0.617765 -0.183752 0.000229 0.000250 -0.579024
 15   8.209042 0.615527 -0.255885 1.718498 0.195592 0.171505
 16   7.002735 -0.617911 -0.183641 0.014533 0.003308 -0.423981
 17   1.574674 0.609930 -0.000899 0.254891 0.000055 -0.146448
 18   -0.602177 0.511412 -0.000006 0.000000 0.000000 0.000000
 19   3.646428 0.364526 1.119313 -0.000002 -0.000014 -0.174510
 20   3.646422 0.364499 -1.117566 0.000007 -0.000003 -0.174546
 21   3.805634 1.330634 1.627658 0.000002 -0.000011 -0.000026
 22   -0.246060 -0.011889 0.516521 -0.000011 0.000031 0.000025
 23   3.805651 1.330659 -1.631083 0.000019 0.000002 -0.000024
 24   -0.246150 -0.011872 -0.516511 -0.000005 -0.000006 0.000048
 25   4.941364 1.997338 1.629330 0.000018 -0.000001 -0.000024
 26   4.941382 1.997366 -1.629410 -0.000001 0.000005 -0.000024
 27   2.930087 1.603639 1.514501 -0.000019 -0.000022 -0.000050
 28   2.932517 1.603245 -1.501142 -0.000002 -0.000009 -0.000024
 29   8.824059 0.150544 0.091743 0.051963 -0.018628 -0.020242
 30   2.150149 -0.561179 1.698380 -0.001378 0.098326 0.006607
 31   2.183792 -0.561289 -1.791097 0.000245 -0.130491 0.007313
 32   -0.810489 -0.093824 3.127092 -0.118584 -2.966264 -0.385135
 33   14.298673 -0.408176 0.475484 -0.000112 -0.000003 -0.555499
 34   15.835795 0.581398 0.242756 0.162226 -0.015740 0.080306
 35   -0.815868 -0.091229 -3.114430 0.086795 2.995095 -0.092249
 36   14.294526 -0.410349 -0.463635 0.000128 -0.000012 -0.526353
 37   15.834409 0.579420 -0.284600 -0.088487 0.042120 0.344457
 38   1.167030 -3.461562 -2.823813 0.005304 -0.003965 0.012159
 39   -4.465555 -0.886880 -0.707116 0.006807 0.015065 -0.060130
 40   1.090756 -3.441956 3.237290 -0.002526 -0.004771 0.019734
 41   -4.343993 -0.953658 0.990817 0.000718 0.001450 -0.005974
 42   -0.614498 1.689489 -2.508921 0.044223 0.068921 -0.006650
 43   -0.664068 1.679046 2.713122 -0.051888 -0.078126 0.013466
time 10
  0   0.001233 0.187506 0.266004 0.000000 0.000000 -1.571449
  1   -1.093036 0.000002 -0.326057 -1.570809 -1.570379 -0.000123
  2   2.262337 0.113614 0.064702 -0.127860 -0.007574 -0.059755
  3   2.380047 0.353302 0.047440 0.129744 0.037376 -0.077684
  4   2.033756 0.190472 -0.000128 -0.127688 -0.011110 -0.087598
  5   2.451511 0.204909 -0.003447 -0.128137 0.004460 0.035080
  6   7.247600 -0.397300 -0.109469 0.000001 0.000021 0.087015
  7   -2.022252 -0.104661 3.136172 1.299745 -0.794127 -4.428407
  8   1.168026 -0.537438 -0.063437 -1.116476 -0.136386 -0.645762
  9   6.790376 -0.619176 0.015206 -0.000324 -0.000151 -0.989833
 10   8.637599 0.544015 -0.090417 -2.723498 0.011061 0.444435
 11   6.790465 -0.619039 0.017802 0.000213 -0.011566 -0.708045
 12   -2.022474 -0.104699 -2.873818 -1.454971 0.412775 -4.517998
 13   1.167898 -0.537463 0.063297 1.140452 0.322856 -0.714038
 14   7.002743 -0.617765 -0.183752 0.000229 0.000250 -0.579024
 15   8.209042 0.615527 -0.255885 1.718498 0.195592 0.171505
 16   7.002735 -0.617911 -0.183641 0.014533 0.003308 -0.423981
 17   1.574674 0.609930 -0.000899 0.254891 0.000600 -0.153174
 18   -0.602177 0.511412 -0.000006 0.000000 0.000000 0.000000
 19   3.646428 0.364526 1.119313 -0.000002 -0.000014 -0.174510
 20   3.646422 0.364499 -1.117566 0.000007 -0.000003 -0.174546
 21   3.805634 1.330634 1.627658 0.000002 -0.000011 -0.000026
 22   -0.246060 -0.011889 0.516521 -0.000011 0.000031 0.000025
 23   3.805651 1.330659 -1.631083 0.000019 0.000002 -0.000024
 24   -0.246150 -0.011872 -0.516511 -0.000005 -0.000006 0.000048
 25   4.941364 1.997338 1.629330 0.000018 -0.000001 -0.000024
 26   4.941382 1.997366 -1.629410 -0.000001 0.000005 -0.000024
 27   2.930087 1.603639 1.514501 -0.000019 -0.000022 -0.000050
 28   2.932517 1.603245 -1.501142 -0.000002 -0.000009 -0.000024
 29   8.824059 0.150544 0.091743 0.059093 -0.021928 0.001754
 30   2.154055 -0.553366 1.682754 -0.001554 0.112507 0.007550
 31   2.191605 -0.561289 -1.783284 0.000276 -0.149166 0.008350
 32   -0.810489 -0.093824 3.127092 -0.117652 -2.965309 -0.390429
 33   14.298673 -0.408176 0.475484 -0.000112 -0.000003 -0.566059
 34   15.835795 0.581398 0.242756 0.162295 -0.015911 0.085466
 35   -0.815868 -0.091229 -3.114430 0.086003 2.994815 -0.097343
 36   14.294526 -0.410349 -0.463635 0.000128 -0.000012 -0.537167
 37   15.834409 0.579420 -0.284600 -0.088428 0.042273 0.350237
 38   1.170936 -3.465468 -2.823813 0.006062 -0.004519 0.013931
 39   -4.473368 -0.855629 -0.707116 0.007790 0.017222 -0.068740
 40   1.086850 -3.438050 3.237290 -0.002884 -0.005470 0.022544
 41   -4.332274 -0.934126 1.002536 0.000838 0.001678 -0.006815
 42   -0.606685 1.689489 -2.481576 0.050575 0.078764 -0.007611
 43   -0.664068 1.679046 2.689684 -0.059322 -0.089314 0.015390
time 11
  0   0.001233 0.187506 0.223034 0.000000 0.000000 -1.571449
  1   -1.093036 0.000002 -0.326057 -1.570809 -1.570379 -0.000123
  2   2.262337 0.113614 0.064702 -0.127860 -0.007574 -0.059755
  3   2.380047 0.353302 0.047440 0.129744 0.037376 -0.077684
  4   2.033756 0.190472 -0.000128 -0.127688 -0.010546 -0.084372
  5   2.451511 0.204909 -0.003447 -0.128120 0.004943 0.037780
  6   7.247600 -0.397300 -0.109469 0.000001 0.000021 0.087015
  7   -2.022252 -0.104661 3.136172 1.295527 -0.792974 -4.422490
  8   1.168026 -0.537438 -0.063437 -1.113565 -0.144688 -0.646964
  9   6.790376 -0.619176 0.015206 -0.000324 -0.000151 -0.989833
 10   8.637599 0.544015 -0.090417 -2.723498 0.011061 0.444435
 11   6.790465 -0.619039 0.017802 0.000213 -0.011566 -0.708045
 12   -2.022474 -0.104699 -2.873818 -1.453055 0.412427 -4.513594
 13   1.167898 -0.537463 0.063297 1.135953 0.331755 -0.716641
 14   7.002743 -0.617765 -0.183752 0.000229 0.000250 -0.579024
 15   8.209042 0.615527 -0.255885 1.718498 0.195592 0.171505
 16   7.002735 -0.617911 -0.183641 0.014533 0.003308 -0.423981
 17   1.574674 0.609930 -0.000899 0.254891 0.001026 -0.159014
 18   -0.602177 0.511412 -0.000006 0.000000 0.000000 0.000000
 19   3.646428 0.364526 1.119313 -0.000002 -0.000014 -0.174510
 20   3.646422 0.364499 -1.117566 0.000007 -0.000003 -0.174546
 21   3.805634 1.330634 1.627658 0.000002 -0.000011 -0.000026
 22   -0.246060 -0.011889 0.516521 -0.000011 0.000031 0.000025
 23   3.805651 1.330659 -1.631083 0.000019 0.000002 -0.000024
 24   -0.246150 -0.011872 -0.516511 -0.000005 -0.000006 0.000048
 25   4.941364 1.997338 1.629330 0.000018 -0.000001 -0.000024
 26   4.941382 1.997366 -1.629410 -0.000001 0.000005 -0.000024
 27   2.930087 1.603639 1.514501 -0.000019 -0.000022 -0.000050
 28   2.932517 1.603245 -1.501142 -0.000002 -0.000009 -0.000024
 29   8.824059 0.150544 0.091743 0.065599 -0.024990 0.021550
 30   2.161868 -0.553366 1.671035 -0.001744 0.125323 0.008387
 31   2.195511 -0.561289 -1.771565 0.000322 -0.166080 0.009296
 32   -0.810489 -0.093824 3.127092 -0.117093 -2.964545 -0.395324
 33   14.298673 -0.408176 0.475484 -0.000112 -0.000003 -0.575507
 34   15.835795 0.581398 0.242756 0.162364 -0.016106 0.090229
 35   -0.815868 -0.091229 -3.114430 0.084947 2.994252 -0.102109
 36   14.294526 -0.410349 -0.463635 0.000128 -0.000012 -0.546977
 37   15.834409 0.579420 -0.284600 -0.088310 0.042453 0.355510
 38   1.178749 -3.465468 -2.823813 0.006778 -0.005037 0.015519
 39   -4.473368 -0.836097 -0.695397 0.008677 0.019151 -0.076509
 40   1.079037 -3.438050 3.237290 -0.003221 -0.006097 0.025110
 41   -4.316648 -0.922407 1.002536 0.000934 0.001870 -0.007628
 42   -0.594966 1.689489 -2.458138 0.056304 0.087703 -0.008490
 43   -0.664068 1.671233 2.670152 -0.066044 -0.099435 0.017147
time 12
  0   0.001233 0.187506 0.176158 0.000000 0.000000 -1.571449
  1   -1.093036 0.000002 -0.326057 -1.570809 -1.570379 -0.000123
  2   2.262337 0.113614 0.064702 -0.127860 -0.007574 -0.059755
  3   2.380047 0.353302 0.047440 0.129744 0.037376 -0.077684
  4   2.033756 0.190472 -0.000128 -0.127725 -0.010355 -0.081726
  5   2.451511 0.204909 -0.003447 -0.128120 0.005100 0.039984
  6   7.247600 -0.397300 -0.109469 0.000001 0.000021 0.087015
  7   -2.022252 -0.104661 3.136172 1.291788 -0.791994 -4.417512
  8   1.168026 -0.537438 -0.063437 -1.111034 -0.151732 -0.647913
  9   6.790376 -0.619176 0.015206 -0.000324 -0.000151 -0.989833
 10   8.637599 0.544015 -0.090417 -2.723498 0.011061 0.444435
 11   6.790465 -0.619039 0.017802 0.000213 -0.011566 -0.708045
 12   -2.022474 -0.104699 -2.873818 -1.451522 0.412021 -4.509573
 13   1.167898 -0.537463 0.063297 1.132157 0.339231 -0.718760
 14   7.002743 -0.617765 -0.183752 0.000229 0.000250 -0.579024
 15   8.209042 0.615527 -0.255885 1.718498 0.195592 0.171505
 16   7.002735 -0.617911 -0.183641 0.014533 0.003308 -0.423981
 17   1.574674 0.609930 -0.000899 0.254891 0.001310 -0.163893
 18   -0.602177 0.511412 -0.000006 0.000000 0.000000 0.000000
 19   3.646428 0.364526 1.119313 -0.000002 -0.000014 -0.174510
 20   3.646422 0.364499 -1.117566 0.000007 -0.000003 -0.174546
 21   3.805634 1.330634 1.627658 0.000002 -0.000011 -0.000026
 22   -0.246060 -0.011889 0.516521 -0.000011 0.000031 0.000025
 23   3.805651 1.330659 -1.631083 0.000019 0.000002 -0.000024
 24   -0.246150 -0.011872 -0.516511 -0.000005 -0.000006 0.000048
 25   4.941364 1.997338 1.629330 0.000018 -0.000001 -0.000024
 26   4.941382 1.997366 -1.629410 -0.000001 0.000005 -0.000024
 27   2.930087 1.603639 1.514501 -0.000019 -0.000022 -0.000050
 28   2.932517 1.603245 -1.501142 -0.000002 -0.000009 -0.000024
 29   8.824059 0.150544 0.091743 0.070946 -0.027743 0.038503
 30   2.165774 -0.553366 1.659316 -0.001893 0.136221 0.009116
 31   2.207230 -0.561289 -1.763752 0.000337 -0.180429 0.010078
 32   -0.810489 -0.093824 3.127092 -0.115974 -2.963972 -0.399594
 33   14.298673 -0.408176 0.475484 -0.000112 -0.000003 -0.583288
 34   15.835795 0.581398 0.242756 0.162433 -0.016155 0.094066
 35   -0.815868 -0.091229 -3.114430 0.084331 2.993690 -0.106162
 36   14.294526 -0.410349 -0.463635 0.000128 -0.000012 -0.555474
 37   15.834409 0.579420 -0.284600 -0.088290 0.042581 0.360023
 38   1.178749 -3.465468 -2.823813 0.007346 -0.005471 0.016802
 39   -4.473368 -0.820472 -0.695397 0.009432 0.020817 -0.083156
 40   1.079037 -3.438050 3.237290 -0.003473 -0.006627 0.027248
 41   -4.308836 -0.910688 1.010349 0.001018 0.002013 -0.008273
 42   -0.594966 1.689489 -2.438606 0.061157 0.095277 -0.009201
 43   -0.664068 1.667327 2.650620 -0.071766 -0.108033 0.018610
time 13
  0   0.001233 0.187506 0.148813 0.000000 0.000000 -1.571449
  1   -1.093036 0.000002 -0.326057 -1.570809 -1.570379 -0.000123
  2   2.262337 0.113614 0.064702 -0.127860 -0.007574 -0.059755
  3   2.380047 0.353302 0.047440 0.129744 0.037376 -0.077684
  4   2.033756 0.190472 -0.000128 -0.127725 -0.010091 -0.079696
  5   2.451511 0.204909 -0.003447 -0.128103 0.005452 0.041668
  6   7.247600 -0.397300 -0.109469 0.000001 0.000021 0.087015
  7   -2.022252 -0.104661 3.136172 1.289296 -0.791273 -4.414132
  8   1.168026 -0.537438 -0.063437 -1.109262 -0.157015 -0.648672
  9   6.790376 -0.619176 0.015206 -0.000324 -0.000151 -0.989833
 10   8.637599 0.544015 -0.090417 -2.723498 0.011061 0.444435
 11   6.790465 -0.619039 0.017802 0.000213 -0.011566 -0.708045
 12   -2.022474 -0.104699 -2.873818 -1.450085 0.411527 -4.506892
 13   1.167898 -0.537463 0.063297 1.129556 0.344723 -0.720152
 14   7.002743 -0.617765 -0.183752 0.000229 0.000250 -0.579024
 15   8.209042 0.615527 -0.255885 1.718498 0.195592 0.171505
 16   7.002735 -0.617911 -0.183641 0.014533 0.003308 -0.423981
 17   1.574674 0.609930 -0.000899 0.254891 0.001546 -0.167515
 18   -0.602177 0.511412 -0.000006 0.000000 0.000000 0.000000
 19   3.646428 0.364526 1.119313 -0.000002 -0.000014 -0.174510
 20   3.646422 0.364499 -1.117566 0.000007 -0.000003 -0.174546
 21   3.805634 1.330634 1.627658 0.000002 -0.000011 -0.000026
 22   -0.246060 -0.011889 0.516521 -0.000011 0.000031 0.000025
 23   3.805651 1.330659 -1.631083 0.000019 0.000002 -0.000024
 24   -0.246150 -0.011872 -0.516511 -0.000005 -0.000006 0.000048
 25   4.941364 1.997338 1.629330 0.000018 -0.000001 -0.000024
 26   4.941382 1.997366 -1.629410 -0.000001 0.000005 -0.000024
 27   2.930087 1.603639 1.514501 -0.000019 -0.000022 -0.000050
 28   2.932517 1.603245 -1.501142 -0.000002 -0.000009 -0.000024
 29   8.824059 0.150544 0.091743 0.075135 -0.029951 0.051593
 30   2.169681 -0.553366 1.651503 -0.002015 0.144677 0.009652
 31   2.215043 -0.561289 -1.759846 0.000368 -0.191619 0.010715
 32   -0.810489 -0.093824 3.127092 -0.115601 -2.963590 -0.402667
 33   14.298673 -0.408176 0.475484 -0.000112 -0.000003 -0.589799
 34   15.835795 0.581398 0.242756 0.162525 -0.016277 0.097065
 35   -0.815868 -0.091229 -3.114430 0.083979 2.993409 -0.109120
 36   14.294526 -0.410349 -0.463635 0.000128 -0.000012 -0.561576
 37   15.834409 0.579420 -0.284600 -0.088231 0.042760 0.363420
 38   1.178749 -3.473281 -2.823813 0.007788 -0.005808 0.017902
 39   -4.473368 -0.800940 -0.687584 0.009995 0.022112 -0.088288
 40   1.079037 -3.430237 3.237290 -0.003726 -0.007037 0.028959
 41   -4.301023 -0.902875 1.010349 0.001078 0.002145 -0.008778
 42   -0.587153 1.689489 -2.426887 0.064944 0.101180 -0.009744
 43   -0.664068 1.667327 2.638901 -0.076214 -0.114734 0.019781
time 14
  0   0.001233 0.187506 0.129281 0.000000 0.000000 -1.571449
  1   -1.093036 0.000002 -0.326057 -1.570809 -1.570379 -0.000123
  2   2.262337 0.113614 0.064702 -0.127860 -0.007574 -0.059755
  3   2.380047 0.353302 0.047440 0.129744 0.037376 -0.077684
  4   2.033756 0.190472 -0.000128 -0.127817 -0.009779 -0.078355
  5   2.451511 0.204909 -0.003447 -0.128103 0.005596 0.042733
  6   7.247600 -0.397300 -0.109469 0.000001 0.000021 0.087015
  7   -2.022252 -0.104661 3.136172 1.287762 -0.790783 -4.411690
  8   1.168026 -0.537438 -0.063437 -1.107870 -0.160688 -0.649368
  9   6.790376 -0.619176 0.015206 -0.000324 -0.000151 -0.989833
 10   8.637599 0.544015 -0.090417 -2.723498 0.011061 0.444435
 11   6.790465 -0.619039 0.017802 0.000213 -0.011566 -0.708045
 12   -2.022474 -0.104699 -2.873818 -1.449606 0.411266 -4.505073
 13   1.167898 -0.537463 0.063297 1.127658 0.348334 -0.721060
 14   7.002743 -0.617765 -0.183752 0.000229 0.000250 -0.579024
 15   8.209042 0.615527 -0.255885 1.718498 0.195592 0.171505
 16   7.002735 -0.617911 -0.183641 0.014533 0.003308 -0.423981
 17   1.574674 0.609930 -0.000899 0.254891 0.001759 -0.170066
 18   -0.602177 0.511412 -0.000006 0.000000 0.000000 0.000000
 19   3.654241 0.270773 1.119313 -0.000002 -0.000014 -0.174510
 20   3.654235 0.270746 -1.117566 0.000007 -0.000003 -0.174546
 21   3.352495 1.260319 1.576875 0.000002 -0.000011 -0.000026
 22   -0.238247 -0.379088 0.496989 0.000083 -0.028708 0.445010
 23   3.364231 1.256438 -1.623270 0.000019 0.000002 -0.000024
 24   -0.164116 -0.285318 -0.528230 0.000091 -0.028733 0.445062
 25   4.535101 1.997338 1.637143 -0.032209 0.220343 0.007203
 26   4.531213 1.997366 -1.621597 0.035749 -0.204340 -0.020853
 27   3.117593 1.466916 1.506688 -0.000019 -0.000022 -0.000050
 28   3.120023 1.466522 -1.508955 -0.000002 -0.000009 -0.000024
 29   8.824059 0.150544 0.091743 0.077808 -0.031375 0.060015
 30   2.173587 -0.553366 1.647597 -0.002083 0.150169 0.010038
 31   2.215043 -0.561289 -1.759846 0.000383 -0.198819 0.011134
 32   -0.810489 -0.093824 3.127092 -0.115322 -2.963207 -0.404546
 33   14.298673 -0.408176 0.475484 -0.000112 -0.000003 -0.593451
 34   15.835795 0.581398 0.242756 0.162617 -0.016350 0.098741
 35   -0.815868 -0.091229 -3.114430 0.083539 2.993128 -0.110928
 36   14.294526 -0.410349 -0.463635 0.000128 -0.000012 -0.565670
 37   15.834409 0.579420 -0.284600 -0.088152 0.042837 0.365448
 38   1.178749 -3.473281 -2.823813 0.008104 -0.006037 0.018574
 39   -4.473368 -0.793127 -0.687584 0.010391 0.022939 -0.091625
 40   1.079037 -3.430237 3.237290 -0.003852 -0.007302 0.030059
 41   -4.297117 -0.891156 1.018162 0.001126 0.002229 -0.009115
 42   -0.583247 1.689489 -2.415168 0.067389 0.104998 -0.010163
 43   -0.664068 1.667327 2.627182 -0.079063 -0.119049 0.020534
time 15
  0   0.001233 0.187506 0.129281 0.000000 0.000000 -1.571449
  1   -1.093036 0.000002 -0.326057 -1.570809 -1.570379 -0.000123
  2   2.262337 0.113614 0.064702 -0.127860 -0.007574 -0.059755
  3   2.380047 0.353302 0.047440 0.129744 0.037376 -0.077684
  4   2.033756 0.190472 -0.000128 -0.127817 -0.009731 -0.077920
  5   2.451511 0.204909 -0.003447 -0.128103 0.005635 0.043154
  6   7.247600 -0.397300 -0.109469 0.000001 0.000021 0.087015
  7   -2.022252 -0.104661 3.136172 1.287091 -0.790610 -4.410845
  8   1.168026 -0.537438 -0.063437 -1.107617 -0.162147 -0.649621
  9   6.790376 -0.619176 0.015206 -0.000324 -0.000151 -0.989833
 10   8.637599 0.544015 -0.090417 -2.723498 0.011061 0.444435
 11   6.790465 -0.619039 0.017802 0.000213 -0.011566 -0.708045
 12   -2.022474 -0.104699 -2.873818 -1.449223 0.411266 -4.504403
 13   1.167898 -0.537463 0.063297 1.127025 0.349656 -0.721484
 14   7.002743 -0.617765 -0.183752 0.000229 0.000250 -0.579024
 15   8.209042 0.615527 -0.255885 1.718498 0.195592 0.171505
 16   7.002735 -0.617911 -0.183641 0.014533 0.003308 -0.423981
 17   1.574674 0.609930 -0.000899 0.254891 0.001830 -0.170842
 18   -0.602177 0.511412 -0.000006 0.000000 0.000000 0.000000
 19   3.673773 0.177020 1.119313 -0.000002 -0.000014 -0.174510
 20   3.673767 0.176993 -1.117566 0.000007 -0.000003 -0.174546
 21   2.899356 1.193911 1.522186 0.000002 -0.000011 -0.000026
 22   -0.226528 -0.754099 0.477457 0.000194 -0.057459 0.890061
 23   2.918905 1.182217 -1.611551 0.000019 0.000002 -0.000024
 24   -0.078176 -0.558764 -0.547762 0.000187 -0.057484 0.890104
 25   4.117120 1.989525 1.648862 -0.064411 0.440688 0.014417
 26   4.117138 1.989553 -1.609878 0.071523 -0.408734 -0.041694
 27   3.305099 1.322380 1.487156 -0.000019 -0.000022 -0.000050
 28   3.303622 1.321986 -1.528487 -0.000002 -0.000009 -0.000024
 29   8.824059 0.150544 0.091743 0.078789 -0.031898 0.063020
 30   2.173587 -0.553366 1.647597 -0.002110 0.152116 0.010166
 31   2.215043 -0.561289 -1.752033 0.000383 -0.201410 0.011261
 32   -0.810489 -0.093824 3.127092 -0.115135 -2.963112 -0.405172
 33   14.298673 -0.408176 0.475484 -0.000112 -0.000003 -0.594563
 34   15.835795 0.581398 0.242756 0.162686 -0.016350 0.099226
 35   -0.815868 -0.091229 -3.114430 0.083539 2.993128 -0.111421
 36   14.294526 -0.410349 -0.463635 0.000128 -0.000012 -0.566597
 37   15.834409 0.579420 -0.284600 -0.088152 0.042837 0.365955
 38   1.182655 -3.473281 -2.823813 0.008188 -0.006122 0.018757
 39   -4.473368 -0.793127 -0.683678 0.010510 0.023238 -0.092803
 40   1.075131 -3.430237 3.237290 -0.003894 -0.007374 0.030364
 41   -4.297117 -0.891156 1.018162 0.001138 0.002253 -0.009199
 42   -0.583247 1.689489 -2.415168 0.068264 0.106347 -0.010288
 43   -0.664068 1.667327 2.627182 -0.080100 -0.120587 0.020785
time 16
  0   0.001233 0.187506 0.129281 0.000000 0.000000 -1.571449
  1   -1.093036 0.000002 -0.326057 -1.570809 -1.570379 -0.000123
  2   2.262337 0.113614 0.064702 -0.127860 -0.007574 -0.059755
  3   2.380047 0.353302 0.047440 0.129744 0.037376 -0.077684
  4   2.033756 0.190472 -0.000128 -0.127817 -0.009779 -0.078355
  5   2.451511 0.204909 -0.003447 -0.128103 0.005596 0.042733
  6   7.247600 -0.397300 -0.109469 0.000001 0.000021 0.087015
  7   -2.022252 -0.104661 3.136172 1.287762 -0.790783 -4.411690
  8   1.168026 -0.537438 -0.063437 -1.107870 -0.160688 -0.649368
  9   6.790376 -0.619176 0.015206 -0.000324 -0.000151 -0.989833
 10   8.637599 0.544015 -0.090417 -2.723498 0.011061 0.444435
 11   6.790465 -0.619039 0.017802 0.000213 -0.011566 -0.708045
 12   -2.022474 -0.104699 -2.873818 -1.449606 0.411266 -4.505073
 13   1.167898 -0.537463 0.063297 1.127658 0.348334 -0.721060
 14   7.002743 -0.617765 -0.183752 0.000229 0.000250 -0.579024
 15   8.209042 0.615527 -0.255885 1.718498 0.195592 0.171505
 16   7.002735 -0.617911 -0.183641 0.014533 0.003308 -0.423981
 17   1.574674 0.609930 -0.000899 0.254891 0.001759 -0.170066
 18   -0.602177 0.511412 -0.000006 0.000000 0.000000 0.000000
 19   3.654241 0.270773 1.119313 -0.000002 -0.000014 -0.174510
 20   3.654235 0.270746 -1.117566 0.000007 -0.000003 -0.174546
 21   3.352495 1.260319 1.576875 0.000002 -0.000011 -0.000026
 22   -0.238247 -0.379088 0.496989 0.000083 -0.028708 0.445010
 23   3.364231 1.256438 -1.623270 0.000019 0.000002 -0.000024
 24   -0.164116 -0.285318 -0.528230 0.000091 -0.028733 0.445062
 25   4.535101 1.997338 1.637143 -0.032209 0.220343 0.007203
 26   4.531213 1.997366 -1.621597 0.035749 -0.204340 -0.020853
 27   3.117593 1.466916 1.506688 -0.000019 -0.000022 -0.000050
 28   3.120023 1.466522 -1.508955 -0.000002 -0.000009 -0.000024
 29   8.824059 0.150544 0.091743 0.077808 -0.031375 0.060015
 30   2.173587 -0.553366 1.647597 -0.002083 0.150169 0.010038
 31   2.215043 -0.561289 -1.759846 0.000383 -0.198819 0.011134
 32   -0.810489 -0.093824 3.127092 -0.115508 -2.963207 -0.403977
 33   14.298673 -0.408176 0.475484 -0.000112 -0.000003 -0.592022
 34   15.835795 0.581398 0.242756 0.162686 -0.016277 0.098256
 35   -0.815868 -0.091229 -3.114430 0.083627 2.993128 -0.110380
 36   14.294526 -0.410349 -0.463635 0.000128 -0.000012 -0.564434
 37   15.834409 0.579420 -0.284600 -0.088152 0.042811 0.364789
 38   1.178749 -3.473281 -2.823813 0.008104 -0.006037 0.018574
 39   -4.473368 -0.793127 -0.687584 0.010391 0.022939 -0.091625
 40   1.079037 -3.430237 3.237290 -0.003852 -0.007302 0.030059
 41   -4.297117 -0.891156 1.018162 0.001126 0.002229 -0.009115
 42   -0.583247 1.689489 -2.415168 0.067389 0.104998 -0.010163
 43   -0.664068 1.667327 2.627182 -0.079063 -0.119049 0.020534
time 17
  0   0.001233 0.187506 0.148813 0.000000 0.000000 -1.571449
  1   -1.093036 0.000002 -0.326057 -1.570809 -1.570379 -0.000123
  2   2.262337 0.113614 0.064702 -0.127860 -0.007574 -0.059755
  3   2.380047 0.353302 0.047440 0.129744 0.037376 -0.077684
  4   2.033756 0.190472 -0.000128 -0.127725 -0.010091 -0.079696
  5   2.451511 0.204909 -0.003447 -0.128103 0.005452 0.041668
  6   7.247600 -0.397300 -0.109469 0.000001 0.000021 0.087015
  7   -2.022252 -0.104661 3.136172 1.289296 -0.791273 -4.414132
  8   1.168026 -0.537438 -0.063437 -1.109262 -0.157015 -0.648672
  9   6.790376 -0.619176 0.015206 -0.000324 -0.000151 -0.989833
 10   8.637599 0.544015 -0.090417 -2.723498 0.011061 0.444435
 11   6.790465 -0.619039 0.017802 0.000213 -0.011566 -0.708045
 12   -2.022474 -0.104699 -2.873818 -1.450085 0.411527 -4.506892
 13   1.167898 -0.537463 0.063297 1.129556 0.344723 -0.720152
 14   7.002743 -0.617765 -0.183752 0.000229 0.000250 -0.579024
 15   8.209042 0.615527 -0.255885 1.718498 0.195592 0.171505
 16   7.002735 -0.617911 -0.183641 0.014533 0.003308 -0.423981
 17   1.574674 0.609930 -0.000899 0.254891 0.001546 -0.167515
 18   -0.602177 0.511412 -0.000006 0.000000 0.000000 0.000000
 19   3.646428 0.364526 1.119313 -0.000002 -0.000014 -0.174510
 20   3.646422 0.364499 -1.117566 0.000007 -0.000003 -0.174546
 21   3.805634 1.330634 1.627658 0.000002 -0.000011 -0.000026
 22   -0.246060 -0.011889 0.516521 -0.000011 0.000031 0.000025
 23   3.805651 1.330659 -1.631083 0.000019 0.000002 -0.000024
 24   -0.246150 -0.011872 -0.516511 -0.000005 -0.000006 0.000048
 25   4.941364 1.997338 1.629330 0.000018 -0.000001 -0.000024
 26   4.941382 1.997366 -1.629410 -0.000001 0.000005 -0.000024
 27   2.930087 1.603639 1.514501 -0.000019 -0.000022 -0.000050
 28   2.932517 1.603245 -1.501142 -0.000002 -0.000009 -0.000024
 29   8.824059 0.150544 0.091743 0.075135 -0.029951 0.051593
 30   2.169681 -0.553366 1.651503 -0.002015 0.144677 0.009652
 31   2.215043 -0.561289 -1.759846 0.000368 -0.191619 0.010715
 32   -0.810489 -0.093824 3.127092 -0.115788 -2.963781 -0.401814
 33   14.298673 -0.408176 0.475484 -0.000112 -0.000003 -0.587655
 34   15.835795 0.581398 0.242756 0.162686 -0.016228 0.095874
 35   -0.815868 -0.091229 -3.114430 0.083979 2.993409 -0.108079
 36   14.294526 -0.410349 -0.463635 0.000128 -0.000012 -0.559568
 37   15.834409 0.579420 -0.284600 -0.088231 0.042709 0.362152
 38   1.178749 -3.473281 -2.823813 0.007788 -0.005808 0.017902
 39   -4.473368 -0.800940 -0.687584 0.009995 0.022112 -0.088288
 40   1.079037 -3.430237 3.237290 -0.003726 -0.007037 0.028959
 41   -4.301023 -0.902875 1.010349 0.001078 0.002145 -0.008778
 42   -0.587153 1.689489 -2.426887 0.064944 0.101180 -0.009744
 43   -0.664068 1.667327 2.638901 -0.076214 -0.114734 0.019781
time 18
  0   0.001233 0.187506 0.176158 0.000000 0.000000 -1.571449
  1   -1.093036 0.000002 -0.326057 -1.570809 -1.570379 -0.000123
  2   2.262337 0.113614 0.064702 -0.127860 -0.007574 -0.059755
  3   2.380047 0.353302 0.047440 0.129744 0.037376 -0.077684
  4   2.033756 0.190472 -0.000128 -0.127725 -0.010355 -0.081726
  5   2.451511 0.204909 -0.003447 -0.128120 0.005100 0.039984
  6   7.247600 -0.397300 -0.109469 0.000001 0.000021 0.087015
  7   -2.022252 -0.104661 3.136172 1.291788 -0.791994 -4.417512
  8   1.168026 -0.537438 -0.063437 -1.111034 -0.151732 -0.647913
  9   6.790376 -0.619176 0.015206 -0.000324 -0.000151 -0.989833
 10   8.637599 0.544015 -0.090417 -2.723498 0.011061 0.444435
 11   6.790465 -0.619039 0.017802 0.000213 -0.011566 -0.708045
 12   -2.022474 -0.104699 -2.873818 -1.451522 0.412021 -4.509573
 13   1.167898 -0.537463 0.063297 1.132157 0.339231 -0.718760
 14   7.002743 -0.617765 -0.183752 0.000229 0.000250 -0.579024
 15   8.209042 0.615527 -0.255885 1.718498 0.195592 0.171505
 16   7.002735 -0.617911 -0.183641 0.014533 0.003308 -0.423981
 17   1.574674 0.609930 -0.000899 0.254891 0.001310 -0.163893
 18   -0.602177 0.511412 -0.000006 0.000000 0.000000 0.000000
 19   3.646428 0.364526 1.119313 -0.000002 -0.000014 -0.174510
 20   3.646422 0.364499 -1.117566 0.000007 -0.000003 -0.174546
 21   3.805634 1.330634 1.627658 0.000002 -0.000011 -0.000026
 22   -0.246060 -0.011889 0.516521 -0.000011 0.000031 0.000025
 23   3.805651 1.330659 -1.631083 0.000019 0.000002 -0.000024
 24   -0.246150 -0.011872 -0.516511 -0.000005 -0.000006 0.000048
 25   4.941364 1.997338 1.629330 0.000018 -0.000001 -0.000024
 26   4.941382 1.997366 -1.629410 -0.000001 0.000005 -0.000024
 27   2.930087 1.603639 1.514501 -0.000019 -0.000022 -0.000050
 28   2.932517 1.603245 -1.501142 -0.000002 -0.000009 -0.000024
 29   8.824059 0.150544 0.091743 0.070946 -0.027743 0.038503
 30   2.165774 -0.553366 1.659316 -0.001893 0.136221 0.009116
 31   2.207230 -0.561289 -1.763752 0.000337 -0.180429 0.010078
 32   -0.810489 -0.093824 3.127092 -0.116440 -2.964258 -0.398455
 33   14.298673 -0.408176 0.475484 -0.000112 -0.000003 -0.581065
 34   15.835795 0.581398 0.242756 0.162617 -0.016106 0.092743
 35   -0.815868 -0.091229 -3.114430 0.084683 2.993971 -0.104902
 36   14.294526 -0.410349 -0.463635 0.000128 -0.000012 -0.552925
 37   15.834409 0.579420 -0.284600 -0.088231 0.042581 0.358654
 38   1.178749 -3.465468 -2.823813 0.007346 -0.005471 0.016802
 39   -4.473368 -0.820472 -0.695397 0.009432 0.020817 -0.083156
 40   1.079037 -3.438050 3.237290 -0.003473 -0.006627 0.027248
 41   -4.308836 -0.910688 1.010349 0.001018 0.002013 -0.008273
 42   -0.594966 1.689489 -2.438606 0.061157 0.095277 -0.009201
 43   -0.664068 1.667327 2.650620 -0.071766 -0.108033 0.018610
time 19
  0   0.001233 0.187506 0.223034 0.000000 0.000000 -1.571449
  1   -1.093036 0.000002 -0.326057 -1.570809 -1.570379 -0.000123
  2   2.262337 0.113614 0.064702 -0.127860 -0.007574 -0.059755
  3   2.380047 0.353302 0.047440 0.129744 0.037376 -0.077684
  4   2.033756 0.190472 -0.000128 -0.127688 -0.010546 -0.084372
  5   2.451511 0.204909 -0.003447 -0.128120 0.004943 0.037780
  6   7.247600 -0.397300 -0.109469 0.000001 0.000021 0.087015
  7   -2.022252 -0.104661 3.136172 1.295527 -0.792974 -4.422490
  8   1.168026 -0.537438 -0.063437 -1.113565 -0.144688 -0.646964
  9   6.790376 -0.619176 0.015206 -0.000324 -0.000151 -0.989833
 10   8.637599 0.544015 -0.090417 -2.723498 0.011061 0.444435
 11   6.790465 -0.619039 0.017802 0.000213 -0.011566 -0.708045
 12   -2.022474 -0.104699 -2.873818 -1.453055 0.412427 -4.513594
 13   1.167898 -0.537463 0.063297 1.135953 0.331755 -0.716641
 14   7.002743 -0.617765 -0.183752 0.000229 0.000250 -0.579024
 15   8.209042 0.615527 -0.255885 1.718498 0.195592 0.171505
 16   7.002735 -0.617911 -0.183641 0.014533 0.003308 -0.423981
 17   1.574674 0.609930 -0.000899 0.254891 0.001026 -0.159014
 18   -0.602177 0.511412 -0.000006 0.000000 0.000000 0.000000
 19   3.646428 0.364526 1.119313 -0.000002 -0.000014 -0.174510
 20   3.646422 0.364499 -1.117566 0.000007 -0.000003 -0.174546
 21   3.805634 1.330634 1.627658 0.000002 -0.000011 -0.000026
 22   -0.246060 -0.011889 0.516521 -0.000011 0.000031 0.000025
 23   3.805651 1.330659 -1.631083 0.000019 0.000002 -0.000024
 24   -0.246150 -0.011872 -0.516511 -0.000005 -0.000006 0.000048
 25   4.941364 1.997338 1.629330 0.000018 -0.000001 -0.000024
 26   4.941382 1.997366 -1.629410 -0.000001 0.000005 -0.000024
 27   2.930087 1.603639 1.514501 -0.000019 -0.000022 -0.000050
 28   2.932517 1.603245 -1.501142 -0.000002 -0.000009 -0.000024
 29   8.824059 0.150544 0.091743 0.065599 -0.024990 0.021550
 30   2.161868 -0.553366 1.671035 -0.001744 0.125323 0.008387
 31   2.195511 -0.561289 -1.771565 0.000322 -0.166080 0.009296
 32   -0.810489 -0.093824 3.127092 -0.117279 -2.964831 -0.394072
 33   14.298673 -0.408176 0.475484 -0.000112 -0.000003 -0.573046
 34   15.835795 0.581398 0.242756 0.162617 -0.015984 0.088818
 35   -0.815868 -0.091229 -3.114430 0.085211 2.994252 -0.100794
 36   14.294526 -0.410349 -0.463635 0.000128 -0.000012 -0.544428
 37   15.834409 0.579420 -0.284600 -0.088310 0.042401 0.353989
 38   1.178749 -3.465468 -2.823813 0.006778 -0.005037 0.015519
 39   -4.473368 -0.836097 -0.695397 0.008677 0.019151 -0.076509
 40   1.079037 -3.438050 3.237290 -0.003221 -0.006097 0.025110
 41   -4.316648 -0.922407 1.002536 0.000934 0.001870 -0.007628
 42   -0.594966 1.689489 -2.458138 0.056304 0.087703 -0.008490
 43   -0.664068 1.671233 2.670152 -0.066044 -0.099435 0.017147
time 20
  0   0.001233 0.187506 0.266004 0.000000 0.000000 -1.571449
  1   -1.093036 0.000002 -0.326057 -1.570809 -1.570379 -0.000123
  2   2.262337 0.113614 0.064702 -0.127860 -0.007574 -0.059755
  3   2.380047 0.353302 0.047440 0.129744 0.037376 -0.077684
  4   2.033756 0.190472 -0.000128 -0.127688 -0.011110 -0.087598
  5   2.451511 0.204909 -0.003447 -0.128137 0.004460 0.035080
  6   7.247600 -0.397300 -0.109469 0.000001 0.000021 0.087015
  7   -2.022252 -0.104661 3.136172 1.299745 -0.794127 -4.428407
  8   1.168026 -0.537438 -0.063437 -1.116476 -0.136386 -0.645762
  9   6.790376 -0.619176 0.015206 -0.000324 -0.000151 -0.989833
 10   8.637599 0.544015 -0.090417 -2.723498 0.011061 0.444435
 11   6.790465 -0.619039 0.017802 0.000213 -0.011566 -0.708045
 12   -2.022474 -0.104699 -2.873818 -1.454971 0.412775 -4.517998
 13   1.167898 -0.537463 0.063297 1.140452 0.322856 -0.714038
 14   7.002743 -0.617765 -0.183752 0.000229 0.000250 -0.579024
 15   8.209042 0.615527 -0.255885 1.718498 0.195592 0.171505
 16   7.002735 -0.617911 -0.183641 0.014533 0.003308 -0.423981
 17   1.574674 0.609930 -0.000899 0.254891 0.000600 -0.153174
 18   -0.602177 0.511412 -0.000006 0.000000 0.000000 0.000000
 19   3.646428 0.364526 1.119313 -0.000002 -0.000014 -0.174510
 20   3.646422 0.364499 -1.117566 0.000007 -0.000003 -0.174546
 21   3.805634 1.330634 1.627658 0.000002 -0.000011 -0.000026
 22   -0.246060 -0.011889 0.516521 -0.000011 0.000031 0.000025
 23   3.805651 1.330659 -1.631083 0.000019 0.000002 -0.000024
 24   -0.246150 -0.011872 -0.516511 -0.000005 -0.000006 0.000048
 25   4.941364 1.997338 1.629330 0.000018 -0.000001 -0.000024
 26   4.941382 1.997366 -1.629410 -0.000001 0.000005 -0.000024
 27   2.930087 1.603639 1.514501 -0.000019 -0.000022 -0.000050
 28   2.932517 1.603245 -1.501142 -0.000002 -0.000009 -0.000024
 29   8.824059 0.150544 0.091743 0.059093 -0.021928 0.001754
 30   2.154055 -0.553366 1.682754 -0.001554 0.112507 0.007550
 31   2.191605 -0.561289 -1.783284 0.000276 -0.149166 0.008350
 32   -0.810489 -0.093824 3.127092 -0.118025 -2.965595 -0.389234
 33   14.298673 -0.408176 0.475484 -0.000112 -0.000003 -0.563518
 34   15.835795 0.581398 0.242756 0.162525 -0.015789 0.084187
 35   -0.815868 -0.091229 -3.114430 0.086003 2.994908 -0.096193
 36   14.294526 -0.410349 -0.463635 0.000128 -0.000012 -0.534541
 37   15.834409 0.579420 -0.284600 -0.088310 0.042248 0.348970
 38   1.170936 -3.465468 -2.823813 0.006062 -0.004519 0.013931
 39   -4.473368 -0.855629 -0.707116 0.007790 0.017222 -0.068740
 40   1.086850 -3.438050 3.237290 -0.002884 -0.005470 0.022544
 41   -4.332274 -0.934126 1.002536 0.000838 0.001678 -0.006815
 42   -0.606685 1.689489 -2.481576 0.050575 0.078764 -0.007611
 43   -0.664068 1.679046 2.689684 -0.059322 -0.089314 0.015390
time 21
  0   0.001233 0.187506 0.312881 0.000000 0.000000 -1.571449
  1   -1.093036 0.000002 -0.326057 -1.570809 -1.570379 -0.000123
  2   2.262337 0.113614 0.064702 -0.127860 -0.007574 -0.059755
  3   2.380047 0.353302 0.047440 0.129744 0.037376 -0.077684
  4   2.033756 0.190472 -0.000128 -0.127651 -0.011433 -0.091295
  5   2.451511 0.204909 -0.003447 -0.128154 0.004212 0.031985
  6   7.247600 -0.397300 -0.109469 0.000001 0.000021 0.087015
  7   -2.022252 -0.104661 3.136172 1.304538 -0.795338 -4.435262
  8   1.168026 -0.537438 -0.063437 -1.119830 -0.126122 -0.644497
  9   6.790376 -0.619176 0.015206 -0.000324 -0.000151 -0.989833
 10   8.637599 0.544015 -0.090417 -2.723498 0.011061 0.444435
 11   6.790465 -0.619039 0.017802 0.000213 -0.011566 -0.708045
 12   -2.022474 -0.104699 -2.873818 -1.457079 0.413704 -4.523551
 13   1.167898 -0.537463 0.063297 1.145372 0.312686 -0.711193
 14   7.002743 -0.617765 -0.183752 0.000229 0.000250 -0.579024
 15   8.209042 0.615527 -0.255885 1.718498 0.195592 0.171505
 16   7.002735 -0.617911 -0.183641 0.014533 0.003308 -0.423981
 17   1.574674 0.609930 -0.000899 0.254891 0.000055 -0.146448
 18   -0.602177 0.511412 -0.000006 0.000000 0.000000 0.000000
 19   3.646428 0.364526 1.119313 -0.000002 -0.000014 -0.174510
 20   3.646422 0.364499 -1.117566 0.000007 -0.000003 -0.174546
 21   3.805634 1.330634 1.627658 0.000002 -0.000011 -0.000026
 22   -0.246060 -0.011889 0.516521 -0.000011 0.000031 0.000025
 23   3.805651 1.330659 -1.631083 0.000019 0.000002 -0.000024
 24   -0.246150 -0.011872 -0.516511 -0.000005 -0.000006 0.000048
 25   4.941364 1.997338 1.629330 0.000018 -0.000001 -0.000024
 26   4.941382 1.997366 -1.629410 -0.000001 0.000005 -0.000024
 27   2.930087 1.603639 1.514501 -0.000019 -0.000022 -0.000050
 28   2.932517 1.603245 -1.501142 -0.000002 -0.000009 -0.000024
 29   8.824059 0.150544 0.091743 0.051963 -0.018628 -0.020242
 30   2.150149 -0.561179 1.698380 -0.001378 0.098326 0.006607
 31   2.183792 -0.561289 -1.791097 0.000245 -0.130491 0.007313
 32   -0.810489 -0.093824 3.127092 -0.119143 -2.966359 -0.383826
 33   14.298673 -0.408176 0.475484 -0.000112 -0.000003 -0.553117
 34   15.835795 0.581398 0.242756 0.162525 -0.015569 0.079027
 35   -0.815868 -0.091229 -3.114430 0.086971 2.995095 -0.090989
 36   14.294526 -0.410349 -0.463635 0.000128 -0.000012 -0.523572
 37   15.834409 0.579420 -0.284600 -0.088428 0.042018 0.343342
 38   1.167030 -3.461562 -2.823813 0.005304 -0.003965 0.012159
 39   -4.465555 -0.886880 -0.707116 0.006807 0.015065 -0.060130
 40   1.090756 -3.441956 3.237290 -0.002526 -0.004771 0.019734
 41   -4.343993 -0.953658 0.990817 0.000718 0.001450 -0.005974
 42   -0.614498 1.689489 -2.508921 0.044223 0.068921 -0.006650
 43   -0.664068 1.679046 2.713122 -0.051888 -0.078126 0.013466
time 22
  0   0.001233 0.187506 0.371476 0.000000 0.000000 -1.571449
  1   -1.093036 0.000002 -0.326057 -1.570809 -1.570379 -0.000123
  2   2.262337 0.113614 0.064702 -0.127860 -0.007574 -0.059755
  3   2.380047 0.353302 0.047440 0.129744 0.037376 -0.077684
  4   2.033756 0.190472 -0.000128 -0.127559 -0.011973 -0.095246
  5   2.451511 0.204909 -0.003447 -0.128171 0.003638 0.028592
  6   7.247600 -0.397300 -0.109469 0.000001 0.000021 0.087015
  7   -2.022252 -0.104661 3.136172 1.309906 -0.796837 -4.442869
  8   1.168026 -0.537438 -0.063437 -1.123627 -0.115405 -0.642852
  9   6.790376 -0.619176 0.015206 -0.000324 -0.000151 -0.989833
 10   8.637599 0.544015 -0.090417 -2.723498 0.011061 0.444435
 11   6.790465 -0.619039 0.017802 0.000213 -0.011566 -0.708045
 12   -2.022474 -0.104699 -2.873818 -1.459474 0.414168 -4.529583
 13   1.167898 -0.537463 0.063297 1.150855 0.301345 -0.708348
 14   7.002743 -0.617765 -0.183752 0.000229 0.000250 -0.579024
 15   8.209042 0.615527 -0.255885 1.718498 0.195592 0.171505
 16   7.002735 -0.617911 -0.183641 0.014533 0.003308 -0.423981
 17   1.574674 0.609930 -0.000899 0.254891 -0.000087 -0.138834
 18   -0.602177 0.511412 -0.000006 0.000000 0.000000 0.000000
 19   3.646428 0.364526 1.119313 -0.000002 -0.000014 -0.174510
 20   3.646422 0.364499 -1.117566 0.000007 -0.000003 -0.174546
 21   3.805634 1.330634 1.627658 0.000002 -0.000011 -0.000026
 22   -0.246060 -0.011889 0.516521 -0.000011 0.000031 0.000025
 23   3.805651 1.330659 -1.631083 0.000019 0.000002 -0.000024
 24   -0.246150 -0.011872 -0.516511 -0.000005 -0.000006 0.000048
 25   4.941364 1.997338 1.629330 0.000018 -0.000001 -0.000024
 26   4.941382 1.997366 -1.629410 -0.000001 0.000005 -0.000024
 27   2.930087 1.603639 1.514501 -0.000019 -0.000022 -0.000050
 28   2.932517 1.603245 -1.501142 -0.000002 -0.000009 -0.000024
 29   8.824059 0.150544 0.091743 0.044210 -0.015305 -0.043579
 30   2.142336 -0.561179 1.710099 -0.001161 0.083331 0.005578
 31   2.172073 -0.561289 -1.802816 0.000215 -0.110755 0.006203
 32   -0.810489 -0.093824 3.127092 -0.120262 -2.967123 -0.378191
 33   14.298673 -0.408176 0.475484 -0.000112 -0.000003 -0.542557
 34   15.835795 0.581398 0.242756 0.162433 -0.015447 0.073514
 35   -0.815868 -0.091229 -3.114430 0.087763 2.995845 -0.085621
 36   14.294526 -0.410349 -0.463635 0.000128 -0.000012 -0.512449
 37   15.834409 0.579420 -0.284600 -0.088487 0.041864 0.337207
 38   1.159217 -3.461562 -2.823813 0.004505 -0.003350 0.010326
 39   -4.465555 -0.910318 -0.714929 0.005789 0.012776 -0.051015
 40   1.098569 -3.441956 3.237290 -0.002126 -0.004048 0.016740
 41   -4.355712 -0.965377 0.990817 0.000610 0.001234 -0.005048
 42   -0.618404 1.697302 -2.536265 0.037548 0.058464 -0.005646
 43   -0.664068 1.679046 2.736560 -0.044042 -0.066310 0.011417
time 23
  0   0.001233 0.187506 0.441791 0.000000 0.000000 -1.571449
  1   -1.093036 0.000002 -0.326057 -1.570809 -1.570379 -0.000123
  2   2.262337 0.113614 0.064702 -0.127860 -0.007574 -0.059755
  3   2.380047 0.353302 0.047440 0.129744 0.037376 -0.077684
  4   2.033756 0.190472 -0.000128 -0.127522 -0.012656 -0.099668
  5   2.451511 0.204909 -0.003447 -0.128171 0.003311 0.025001
  6   7.247600 -0.397300 -0.109469 0.000001 0.000021 0.087015
  7   -2.022252 -0.104661 3.136172 1.315849 -0.798249 -4.450946
  8   1.168026 -0.537438 -0.063437 -1.127550 -0.104034 -0.641397
  9   6.790376 -0.619176 0.015206 -0.000324 -0.000151 -0.989833
 10   8.637599 0.544015 -0.090417 -2.723498 0.011061 0.444435
 11   6.790465 -0.619039 0.017802 0.000213 -0.011566 -0.708045
 12   -2.022474 -0.104699 -2.873818 -1.462061 0.414865 -4.535519
 13   1.167898 -0.537463 0.063297 1.156900 0.289344 -0.705321
 14   7.002743 -0.617765 -0.183752 0.000229 0.000250 -0.579024
 15   8.209042 0.615527 -0.255885 1.718498 0.195592 0.171505
 16   7.002735 -0.617911 -0.183641 0.014533 0.003308 -0.423981
 17   1.574674 0.609930 -0.000899 0.254973 -0.000655 -0.130887
 18   -0.602177 0.511412 -0.000006 0.000000 0.000000 0.000000
 19   3.646428 0.364526 1.119313 -0.000002 -0.000014 -0.174510
 20   3.646422 0.364499 -1.117566 0.000007 -0.000003 -0.174546
 21   3.805634 1.330634 1.627658 0.000002 -0.000011 -0.000026
 22   -0.246060 -0.011889 0.516521 -0.000011 0.000031 0.000025
 23   3.805651 1.330659 -1.631083 0.000019 0.000002 -0.000024
 24   -0.246150 -0.011872 -0.516511 -0.000005 -0.000006 0.000048
 25   4.941364 1.997338 1.629330 0.000018 -0.000001 -0.000024
 26   4.941382 1.997366 -1.629410 -0.000001 0.000005 -0.000024
 27   2.930087 1.603639 1.514501 -0.000019 -0.000022 -0.000050
 28   2.932517 1.603245 -1.501142 -0.000002 -0.000009 -0.000024
 29   8.824059 0.150544 0.091743 0.036367 -0.012124 -0.067345
 30   2.138430 -0.561179 1.721818 -0.000944 0.068074 0.004570
 31   2.160354 -0.561289 -1.814535 0.000184 -0.090655 0.005075
 32   -0.810489 -0.093824 3.127092 -0.120914 -2.967887 -0.372612
 33   14.298673 -0.408176 0.475484 -0.000112 -0.000003 -0.531362
 34   15.835795 0.581398 0.242756 0.162364 -0.015252 0.068310
 35   -0.815868 -0.091229 -3.114430 0.088467 2.996688 -0.080089
 36   14.294526 -0.410349 -0.463635 0.000128 -0.000012 -0.500708
 37   15.834409 0.579420 -0.284600 -0.088546 0.041634 0.331021
 38   1.159217 -3.461562 -2.823813 0.003684 -0.002748 0.008371
 39   -4.465555 -0.937663 -0.718835 0.004734 0.010463 -0.041760
 40   1.098569 -3.441956 3.237290 -0.001726 -0.003325 0.013624
 41   -4.371338 -0.988815 0.979098 0.000490 0.001019 -0.004151
 42   -0.626217 1.697302 -2.563610 0.030717 0.047854 -0.004558
 43   -0.664068 1.686859 2.763905 -0.036033 -0.054275 0.009284
time 24
  0   0.001233 0.187506 0.508199 0.000000 0.000000 -1.571449
  1   -1.093036 0.000002 -0.326057 -1.570809 -1.570379 -0.000123
  2   2.262337 0.113614 0.064702 -0.127860 -0.007574 -0.059755
  3   2.380047 0.353302 0.047440 0.129744 0.037376 -0.077684
  4   2.033756 0.190472 -0.000128 -0.127467 -0.013231 -0.104090
  5   2.451511 0.204909 -0.003447 -0.128171 0.002711 0.021311
  6   7.247600 -0.397300 -0.109469 0.000001 0.000021 0.087015
  7   -2.022252 -0.104661 3.136172 1.321792 -0.799777 -4.459304
  8   1.168026 -0.537438 -0.063437 -1.131600 -0.091858 -0.639942
  9   6.790376 -0.619176 0.015206 -0.000324 -0.000151 -0.989833
 10   8.637599 0.544015 -0.090417 -2.723498 0.011061 0.444435
 11   6.790465 -0.619039 0.017802 0.000213 -0.011566 -0.708045
 12   -2.022474 -0.104699 -2.873818 -1.464648 0.415242 -4.542508
 13   1.167898 -0.537463 0.063297 1.162594 0.276682 -0.702355
 14   7.002743 -0.617765 -0.183752 0.000229 0.000250 -0.579024
 15   8.209042 0.615527 -0.255885 1.718498 0.195592 0.171505
 16   7.002735 -0.617911 -0.183641 0.014533 0.003308 -0.423981
 17   1.574674 0.609930 -0.000899 0.254973 -0.001223 -0.122682
 18   -0.602177 0.511412 -0.000006 0.000000 0.000000 0.000000
 19   3.646428 0.364526 1.119313 -0.000002 -0.000014 -0.174510
 20   3.646422 0.364499 -1.117566 0.000007 -0.000003 -0.174546
 21   3.805634 1.330634 1.627658 0.000002 -0.000011 -0.000026
 22   -0.246060 -0.011889 0.516521 -0.000011 0.000031 0.000025
 23   3.805651 1.330659 -1.631083 0.000019 0.000002 -0.000024
 24   -0.246150 -0.011872 -0.516511 -0.000005 -0.000006 0.000048
 25   4.941364 1.997338 1.629330 0.000018 -0.000001 -0.000024
 26   4.941382 1.997366 -1.629410 -0.000001 0.000005 -0.000024
 27   2.930087 1.603639 1.514501 -0.000019 -0.000022 -0.000050
 28   2.932517 1.603245 -1.501142 -0.000002 -0.000009 -0.000024
 29   8.824059 0.150544 0.091743 0.028525 -0.009228 -0.090682
 30   2.130617 -0.561179 1.741350 -0.000727 0.053079 0.003583
 31   2.152541 -0.561289 -1.822348 0.000138 -0.070866 0.003965
 32   -0.810489 -0.093824 3.127092 -0.122033 -2.968842 -0.367205
 33   14.298673 -0.408176 0.475484 -0.000112 0.000010 -0.520643
 34   15.835795 0.581398 0.242756 0.162364 -0.015081 0.063679
 35   -0.815868 -0.091229 -3.114430 0.089348 2.997344 -0.074885
 36   14.294526 -0.410349 -0.463635 0.000128 -0.000012 -0.489662
 37   15.834409 0.579420 -0.284600 -0.088585 0.041429 0.325140
 38   1.155311 -3.453749 -2.823813 0.002884 -0.002145 0.006538
 39   -4.457742 -0.961101 -0.726648 0.003691 0.008162 -0.032645
 40   1.106382 -3.449769 3.237290 -0.001347 -0.002602 0.010692
 41   -4.386963 -1.000534 0.979098 0.000383 0.000791 -0.003225
 42   -0.637936 1.697302 -2.594861 0.024017 0.037413 -0.003597
 43   -0.664068 1.690765 2.787343 -0.028187 -0.042428 0.007319
time 25
  0   0.001233 0.187506 0.566795 0.000000 0.000000 -1.571449
  1   -1.093036 0.000002 -0.326057 -1.570809 -1.570379 -0.000123
  2   2.262337 0.113614 0.064702 -0.127860 -0.007574 -0.059755
  3   2.380047 0.353302 0.047440 0.129744 0.037376 -0.077684
  4   2.033756 0.190472 -0.000128 -0.127393 -0.013674 -0.108766
  5   2.451511 0.204909 -0.003447 -0.128171 0.002332 0.017398
  6   7.247600 -0.397300 -0.109469 0.000001 0.000021 0.087015
  7   -2.022252 -0.104661 3.136172 1.327927 -0.801219 -4.467944
  8   1.168026 -0.537438 -0.063437 -1.135587 -0.079229 -0.638424
  9   6.790376 -0.619176 0.015206 -0.000324 -0.000151 -0.989833
 10   8.637599 0.544015 -0.090417 -2.723498 0.011061 0.444435
 11   6.790465 -0.619039 0.017802 0.000213 -0.011566 -0.708045
 12   -2.022474 -0.104699 -2.873818 -1.467234 0.416026 -4.549210
 13   1.167898 -0.537463 0.063297 1.168710 0.263867 -0.699328
 14   7.002743 -0.617765 -0.183752 0.000229 0.000250 -0.579024
 15   8.209042 0.615527 -0.255885 1.718498 0.195592 0.171505
 16   7.002735 -0.617911 -0.183641 0.014533 0.003308 -0.423981
 17   1.574674 0.609930 -0.000899 0.254973 -0.001862 -0.114181
 18   -0.602177 0.511412 -0.000006 0.000000 0.000000 0.000000
 19   3.646428 0.364526 1.119313 -0.000002 -0.000014 -0.174510
 20   3.646422 0.364499 -1.117566 0.000007 -0.000003 -0.174546
 21   3.805634 1.330634 1.627658 0.000002 -0.000011 -0.000026
 22   -0.246060 -0.011889 0.516521 -0.000011 0.000031 0.000025
 23   3.805651 1.330659 -1.631083 0.000019 0.000002 -0.000024
 24   -0.246150 -0.011872 -0.516511 -0.000005 -0.000006 0.000048
 25   4.941364 1.997338 1.629330 0.000018 -0.000001 -0.000024
 26   4.941382 1.997366 -1.629410 -0.000001 0.000005 -0.000024
 27   2.930087 1.603639 1.514501 -0.000019 -0.000022 -0.000050
 28   2.932517 1.603245 -1.501142 -0.000002 -0.000009 -0.000024
 29   8.824059 0.150544 0.091743 0.021038 -0.006617 -0.112785
 30   2.122804 -0.561179 1.753069 -0.000537 0.038927 0.002640
 31   2.140822 -0.561289 -1.834067 0.000092 -0.052191 0.002891
 32   -0.810489 -0.093824 3.127092 -0.123338 -2.969606 -0.361114
 33   14.298673 -0.408176 0.475484 -0.000112 0.000010 -0.509051
 34   15.835795 0.581398 0.242756 0.162295 -0.014886 0.057681
 35   -0.815868 -0.091229 -3.114430 0.090404 2.998187 -0.068586
 36   14.294526 -0.410349 -0.463635 0.000128 -0.000012 -0.477303
 37   15.834409 0.579420 -0.284600 -0.088585 0.041250 0.318599
 38   1.147498 -3.453749 -2.823813 0.002126 -0.001579 0.004766
 39   -4.457742 -0.992352 -0.734461 0.002721 0.006016 -0.024035
 40   1.110288 -3.449769 3.237290 -0.000989 -0.001903 0.007820
 41   -4.402589 -1.020066 0.967379 0.000287 0.000575 -0.002384
 42   -0.637936 1.697302 -2.618299 0.017689 0.027570 -0.002635
 43   -0.664068 1.690765 2.806875 -0.020753 -0.031240 0.005395
time 26
  0   0.001233 0.187506 0.633203 0.000000 0.000000 -1.571449
  1   -1.093036 0.000002 -0.326057 -1.570809 -1.570379 -0.000123
  2   2.262337 0.113614 0.064702 -0.127860 -0.007574 -0.059755
  3   2.380047 0.353302 0.047440 0.129744 0.037376 -0.077684
  4   2.033756 0.190472 -0.000128 -0.127356 -0.014310 -0.113333
  5   2.451511 0.204909 -0.003447 -0.128171 0.001849 0.013609
  6   7.247600 -0.397300 -0.109469 0.000001 0.000021 0.087015
  7   -2.022252 -0.104661 3.136172 1.334062 -0.802775 -4.476678
  8   1.168026 -0.537438 -0.063437 -1.139700 -0.066902 -0.637032
  9   6.790376 -0.619176 0.015206 -0.000324 -0.000151 -0.989833
 10   8.637599 0.544015 -0.090417 -2.723498 0.011061 0.444435
 11   6.790465 -0.619039 0.017802 0.000213 -0.011566 -0.708045
 12   -2.022474 -0.104699 -2.873818 -1.470109 0.416577 -4.555816
 13   1.167898 -0.537463 0.063297 1.174615 0.251052 -0.696362
 14   7.002743 -0.617765 -0.183752 0.000229 0.000250 -0.579024
 15   8.209042 0.615527 -0.255885 1.718498 0.195592 0.171505
 16   7.002735 -0.617911 -0.183641 0.014533 0.003308 -0.423981
 17   1.574674 0.609930 -0.000899 0.254973 -0.002430 -0.105679
 18   -0.602177 0.511412 -0.000006 0.000000 0.000000 0.000000
 19   3.646428 0.364526 1.119313 -0.000002 -0.000014 -0.174510
 20   3.646422 0.364499 -1.117566 0.000007 -0.000003 -0.174546
 21   3.805634 1.330634 1.627658 0.000002 -0.000011 -0.000026
 22   -0.246060 -0.011889 0.516521 -0.000011 0.000031 0.000025
 23   3.805651 1.330659 -1.631083 0.000019 0.000002 -0.000024
 24   -0.246150 -0.011872 -0.516511 -0.000005 -0.000006 0.000048
 25   4.941364 1.997338 1.629330 0.000018 -0.000001 -0.000024
 26   4.941382 1.997366 -1.629410 -0.000001 0.000005 -0.000024
 27   2.930087 1.603639 1.514501 -0.000019 -0.000022 -0.000050
 28   2.932517 1.603245 -1.501142 -0.000002 -0.000009 -0.000024
 29   8.824059 0.150544 0.091743 0.014265 -0.004409 -0.132849
 30   2.118898 -0.561179 1.764788 -0.000361 0.026111 0.001804
 31   2.133009 -0.561289 -1.837973 0.000046 -0.035330 0.001945
 32   -0.810489 -0.093824 3.127092 -0.124270 -2.970848 -0.354284
 33   14.298673 -0.408176 0.475484 -0.000100 0.000010 -0.495712
 34   15.835795 0.581398 0.242756 0.162295 -0.014715 0.051242
 35   -0.815868 -0.091229 -3.114430 0.091636 2.998843 -0.061794
 36   14.294526 -0.410349 -0.463635 0.000128 -0.000012 -0.463013
 37   15.834409 0.579420 -0.284600 -0.088684 0.041045 0.311095
 38   1.147498 -3.453749 -2.823813 0.001410 -0.001073 0.003239
 39   -4.457742 -1.011884 -0.738367 0.001846 0.004075 -0.016267
 40   1.110288 -3.449769 3.237290 -0.000674 -0.001276 0.005254
 41   -4.410401 -1.031785 0.967379 0.000191 0.000384 -0.001599
 42   -0.649655 1.697302 -2.641737 0.011973 0.018631 -0.001756
 43   -0.664068 1.698578 2.830313 -0.014031 -0.021134 0.003638
time 27
  0   0.001233 0.187506 0.703518 0.000000 0.000000 -1.571449
  1   -1.093036 0.000002 -0.326057 -1.570809 -1.570379 -0.000123
  2   2.262337 0.113614 0.064702 -0.127860 -0.007574 -0.059755
  3   2.380047 0.353302 0.047440 0.129744 0.037376 -0.077684
  4   2.033756 0.190472 -0.000128 -0.127301 -0.014993 -0.117864
  5   2.451511 0.204909 -0.003447 -0.128171 0.001209 0.009894
  6   7.247600 -0.397300 -0.109469 0.000001 0.000021 0.087015
  7   -2.022252 -0.104661 3.136172 1.340101 -0.804188 -4.485130
  8   1.168026 -0.537438 -0.063437 -1.143750 -0.054726 -0.635767
  9   6.790376 -0.619176 0.015206 -0.000324 -0.000151 -0.989833
 10   8.637599 0.544015 -0.090417 -2.723498 0.011061 0.444435
 11   6.790465 -0.619039 0.017802 0.000213 -0.011566 -0.708045
 12   -2.022474 -0.104699 -2.873818 -1.472600 0.417303 -4.562518
 13   1.167898 -0.537463 0.063297 1.180519 0.238339 -0.693759
 14   7.002743 -0.617765 -0.183752 0.000229 0.000250 -0.579024
 15   8.209042 0.615527 -0.255885 1.718498 0.195592 0.171505
 16   7.002735 -0.617911 -0.183641 0.014533 0.003308 -0.423981
 17   1.574674 0.609930 -0.000899 0.254973 -0.003069 -0.097363
 18   -0.602177 0.511412 -0.000006 0.000000 0.000000 0.000000
 19   3.646428 0.364526 1.119313 -0.000002 -0.000014 -0.174510
 20   3.646422 0.364499 -1.117566 0.000007 -0.000003 -0.174546
 21   3.805634 1.330634 1.627658 0.000002 -0.000011 -0.000026
 22   -0.246060 -0.011889 0.516521 -0.000011 0.000031 0.000025
 23   3.805651 1.330659 -1.631083 0.000019 0.000002 -0.000024
 24   -0.246150 -0.011872 -0.516511 -0.000005 -0.000006 0.000048
 25   4.941364 1.997338 1.629330 0.000018 -0.000001 -0.000024
 26   4.941382 1.997366 -1.629410 -0.000001 0.000005 -0.000024
 27   2.930087 1.603639 1.514501 -0.000019 -0.000022 -0.000050
 28   2.932517 1.603245 -1.501142 -0.000002 -0.000009 -0.000024
 29   8.824059 0.150544 0.091743 0.008472 -0.002629 -0.149802
 30   2.111085 -0.561179 1.776507 -0.000225 0.015185 0.001075
 31   2.129103 -0.561289 -1.845786 0.000031 -0.020902 0.001163
 32   -0.810489 -0.093824 3.127092 -0.125668 -2.971708 -0.346998
 33   14.298673 -0.408176 0.475484 -0.000100 0.000010 -0.481182
 34   15.835795 0.581398 0.242756 0.162226 -0.014471 0.044009
 35   -0.815868 -0.091229 -3.114430 0.092340 2.999686 -0.054180
 36   14.294526 -0.410349 -0.463635 0.000128 -0.000012 -0.447255
 37   15.834409 0.579420 -0.284600 -0.088684 0.040789 0.303034
 38   1.139685 -3.453749 -2.823813 0.000842 -0.000627 0.001895
 39   -4.457742 -1.027509 -0.746180 0.001091 0.002409 -0.009648
 40   1.118101 -3.449769 3.237290 -0.000400 -0.000746 0.003116
 41   -4.426027 -1.043504 0.959566 0.000107 0.000228 -0.000954
 42   -0.649655 1.697302 -2.661269 0.007095 0.011057 -0.001046
 43   -0.664068 1.698578 2.849845 -0.008309 -0.012520 0.002133
time 28
  0   0.001233 0.187506 0.766019 0.000000 0.000000 -1.571449
  1   -1.093036 0.000002 -0.326057 -1.570809 -1.570379 -0.000123
  2   2.262337 0.113614 0.064702 -0.127860 -0.007574 -0.059755
  3   2.380047 0.353302 0.047440 0.129744 0.037376 -0.077684
  4   2.033756 0.190472 -0.000128 -0.127190 -0.015544 -0.122286
  5   2.451511 0.204909 -0.003447 -0.128171 0.000896 0.006204
  6   7.247600 -0.397300 -0.109469 0.000001 0.000021 0.087015
  7   -2.022252 -0.104661 3.136172 1.346236 -0.805456 -4.493207
  8   1.168026 -0.537438 -0.063437 -1.147610 -0.043355 -0.634818
  9   6.790376 -0.619176 0.015206 -0.000324 -0.000151 -0.989833
 10   8.637599 0.544015 -0.090417 -2.723498 0.011061 0.444435
 11   6.790465 -0.619039 0.017802 0.000213 -0.011566 -0.708045
 12   -2.022474 -0.104699 -2.873818 -1.475091 0.418029 -4.568357
 13   1.167898 -0.537463 0.063297 1.185932 0.226083 -0.691398
 14   7.002743 -0.617765 -0.183752 0.000229 0.000250 -0.579024
 15   8.209042 0.615527 -0.255885 1.718498 0.195592 0.171505
 16   7.002735 -0.617911 -0.183641 0.014533 0.003308 -0.423981
 17   1.574674 0.609930 -0.000899 0.254973 -0.003566 -0.089454
 18   -0.602177 0.511412 -0.000006 0.000000 0.000000 0.000000
 19   3.646428 0.364526 1.119313 -0.000002 -0.000014 -0.174510
 20   3.646422 0.364499 -1.117566 0.000007 -0.000003 -0.174546
 21   3.805634 1.330634 1.627658 0.000002 -0.000011 -0.000026
 22   -0.246060 -0.011889 0.516521 -0.000011 0.000031 0.000025
 23   3.805651 1.330659 -1.631083 0.000019 0.000002 -0.000024
 24   -0.246150 -0.011872 -0.516511 -0.000005 -0.000006 0.000048
 25   4.941364 1.997338 1.629330 0.000018 -0.000001 -0.000024
 26   4.941382 1.997366 -1.629410 -0.000001 0.000005 -0.000024
 27   2.930087 1.603639 1.514501 -0.000019 -0.000022 -0.000050
 28   2.932517 1.603245 -1.501142 -0.000002 -0.000009 -0.000024
 29   8.824059 0.150544 0.091743 0.003838 -0.001323 -0.163053
 30   2.111085 -0.561179 1.784320 -0.000103 0.006728 0.000496
 31   2.121290 -0.561289 -1.853599 0.000000 -0.009765 0.000544
 32   -0.810489 -0.093824 3.127092 -0.127159 -2.972949 -0.339484
 33   14.298673 -0.408176 0.475484 -0.000100 0.000010 -0.466017
 34   15.835795 0.581398 0.242756 0.162226 -0.014276 0.036777
 35   -0.815868 -0.091229 -3.114430 0.093748 3.001092 -0.046456
 36   14.294526 -0.410349 -0.463635 0.000128 -0.000012 -0.431343
 37   15.834409 0.579420 -0.284600 -0.088684 0.040533 0.294567
 38   1.139685 -3.453749 -2.823813 0.000400 -0.000277 0.000795
 39   -4.457742 -1.047041 -0.746180 0.000491 0.001127 -0.004459
 40   1.118101 -3.449769 3.237290 -0.000168 -0.000336 0.001405
 41   -4.433840 -1.051317 0.959566 0.000047 0.000108 -0.000449
 42   -0.657468 1.697302 -2.680801 0.003308 0.005169 -0.000418
 43   -0.664068 1.698578 2.861564 -0.003886 -0.005851 0.001004
time 29
  0   0.001233 0.187506 0.824615 0.000000 0.000000 -1.571449
  1   -1.093036 0.000002 -0.326057 -1.570809 -1.570379 -0.000123
  2   2.262337 0.113614 0.064702 -0.127860 -0.007574 -0.059755
  3   2.380047 0.353302 0.047440 0.129744 0.037376 -0.077684
  4   2.033756 0.190472 -0.000128 -0.127190 -0.015915 -0.126128
  5   2.451511 0.204909 -0.003447 -0.128171 0.000361 0.002836
  6   7.247600 -0.397300 -0.109469 0.000001 0.000021 0.087015
  7   -2.022252 -0.104661 3.136172 1.351604 -0.806638 -4.501002
  8   1.168026 -0.537438 -0.063437 -1.150964 -0.032135 -0.633616
  9   6.790376 -0.619176 0.015206 -0.000324 -0.000151 -0.989833
 10   8.637599 0.544015 -0.090417 -2.723498 0.011061 0.444435
 11   6.790465 -0.619039 0.017802 0.000213 -0.011566 -0.708045
 12   -2.022474 -0.104699 -2.873818 -1.477582 0.418406 -4.574389
 13   1.167898 -0.537463 0.063297 1.191134 0.214488 -0.689219
 14   7.002743 -0.617765 -0.183752 0.000229 0.000250 -0.579024
 15   8.209042 0.615527 -0.255885 1.718498 0.195592 0.171505
 16   7.002735 -0.617911 -0.183641 0.014533 0.003308 -0.423981
 17   1.574674 0.609930 -0.000899 0.254973 -0.004134 -0.082061
 18   -0.602177 0.511412 -0.000006 0.000000 0.000000 0.000000
 19   3.646428 0.364526 1.119313 -0.000002 -0.000014 -0.174510
 20   3.646422 0.364499 -1.117566 0.000007 -0.000003 -0.174546
 21   3.805634 1.330634 1.627658 0.000002 -0.000011 -0.000026
 22   -0.246060 -0.011889 0.516521 -0.000011 0.000031 0.000025
 23   3.805651 1.330659 -1.631083 0.000019 0.000002 -0.000024
 24   -0.246150 -0.011872 -0.516511 -0.000005 -0.000006 0.000048
 25   4.941364 1.997338 1.629330 0.000018 -0.000001 -0.000024
 26   4.941382 1.997366 -1.629410 -0.000001 0.000005 -0.000024
 27   2.930087 1.603639 1.514501 -0.000019 -0.000022 -0.000050
 28   2.932517 1.603245 -1.501142 -0.000002 -0.000009 -0.000024
 29   8.824059 0.150544 0.091743 0.000897 -0.000468 -0.171583
 30   2.111085 -0.561179 1.784320 -0.000022 0.001236 0.000153
 31   2.121290 -0.561289 -1.853599 0.000000 -0.002538 0.000107
 32   -0.810489 -0.093824 3.127092 -0.128091 -2.974191 -0.331572
 33   14.298673 -0.408176 0.475484 -0.000100 0.000010 -0.450852
 34   15.835795 0.581398 0.242756 0.162226 -0.014056 0.029191
 35   -0.815868 -0.091229 -3.114430 0.095245 3.001841 -0.038678
 36   14.294526 -0.410349 -0.463635 0.000117 -0.000012 -0.414890
 37   15.834409 0.579420 -0.284600 -0.088743 0.040251 0.286049
 38   1.139685 -3.453749 -2.823813 0.000063 -0.000060 0.000123
 39   -4.457742 -1.054854 -0.746180 0.000132 0.000288 -0.001178
 40   1.118101 -3.449769 3.237290 -0.000021 -0.000071 0.000367
 41   -4.433840 -1.059130 0.959566 0.000011 0.000024 -0.000084
 42   -0.657468 1.697302 -2.688614 0.000863 0.001336 -0.000084
 43   -0.664068 1.698578 2.869377 -0.001000 -0.001504 0.000251
time 30
  0   0.001233 0.187506 0.867585 0.000000 0.000000 -1.571449
  1   -1.093036 0.000002 -0.326057 -1.570809 -1.570379 -0.000123
  2   2.262337 0.113614 0.064702 -0.127860 -0.007574 -0.059755
  3   2.380047 0.353302 0.047440 0.129744 0.037376 -0.077684
  4   2.033756 0.190472 -0.000128 -0.127061 -0.016539 -0.129898
  5   2.451511 0.204909 -0.003447 -0.128171 0.000060 -0.000136
  6   7.247600 -0.397300 -0.109469 0.000001 0.000021 0.087015
  7   -2.022252 -0.104661 3.136172 1.356780 -0.807647 -4.507857
  8   1.168026 -0.537438 -0.063437 -1.154318 -0.022374 -0.632857
  9   6.790376 -0.619176 0.015206 -0.000324 -0.000151 -0.989833
 10   8.637599 0.544015 -0.090417 -2.723498 0.011061 0.444435
 11   6.790465 -0.619039 0.017802 0.000213 -0.011566 -0.708045
 12   -2.022474 -0.104699 -2.873818 -1.479977 0.418725 -4.580230
 13   1.167898 -0.537463 0.063297 1.195562 0.204165 -0.687100
 14   7.002743 -0.617765 -0.183752 0.000229 0.000250 -0.579024
 15   8.209042 0.615527 -0.255885 1.718498 0.195592 0.171505
 16   7.002735 -0.617911 -0.183641 0.014533 0.003308 -0.423981
 17   1.574674 0.609930 -0.000899 0.254973 -0.004560 -0.075261
 18   -0.602177 0.511412 -0.000006 0.000000 0.000000 0.000000
 19   3.646428 0.364526 1.119313 -0.000002 -0.000014 -0.174510
 20   3.646422 0.364499 -1.117566 0.000007 -0.000003 -0.174546
 21   3.805634 1.330634 1.627658 0.000002 -0.000011 -0.000026
 22   -0.246060 -0.011889 0.516521 -0.000011 0.000031 0.000025
 23   3.805651 1.330659 -1.631083 0.000019 0.000002 -0.000024
 24   -0.246150 -0.011872 -0.516511 -0.000005 -0.000006 0.000048
 25   4.941364 1.997338 1.629330 0.000018 -0.000001 -0.000024
 26   4.941382 1.997366 -1.629410 -0.000001 0.000005 -0.000024
 27   2.930087 1.603639 1.514501 -0.000019 -0.000022 -0.000050
 28   2.932517 1.603245 -1.501142 -0.000002 -0.000009 -0.000024
 29   8.824059 0.150544 0.091743 0.000006 -0.000231 -0.174534
 30   2.111085 -0.561179 1.784320 -0.000008 -0.000682 0.000024
 31   2.121290 -0.561289 -1.853599 0.000000 0.000000 -0.000002
 32   -0.810489 -0.093824 3.127092 -0.129583 -2.975432 -0.324172
 33   14.298673 -0.408176 0.475484 -0.000100 0.000010 -0.436243
 34   15.835795 0.581398 0.242756 0.162134 -0.013861 0.022223
 35   -0.815868 -0.091229 -3.114430 0.096037 3.002684 -0.031283
 36   14.294526 -0.410349 -0.463635 0.000117 -0.000012 -0.399441
 37   15.834409 0.579420 -0.284600 -0.088763 0.039995 0.278038
 38   1.139685 -3.453749 -2.823813 0.000000 0.000000 0.000001
 39   -4.457742 -1.054854 -0.746180 0.000000 0.000000 0.000000
 40   1.118101 -3.449769 3.237290 0.000000 0.000001 0.000000
 41   -4.433840 -1.059130 0.959566 -0.000001 0.000000 0.000000
 42   -0.657468 1.697302 -2.688614 0.000000 0.000002 0.000000
 43   -0.664068 1.698578 2.869377 0.000000 0.000002 0.000000
end
