version 1
nodes
  0 "Bip01" -1
  1 "Bip01 Pelvis" 0
  2 "Bip01 Spine" 1
  3 "Bip01 Spine1" 2
  4 "Bip01 Spine2" 3
  5 "Bip01 Spine3" 4
  6 "Bip01 Neck" 5
  7 "Bip01 L Arm" 6
  8 "Bip01 L Arm1" 7
  9 "Bip01 L Arm2" 8
 10 "Bip01 L Hand" 9
 11 "Bip06 L elbow2-smooth" 8
 12 "Bip01 R Arm" 6
 13 "Bip01 R Arm1" 12
 14 "Bip01 R Arm2" 13
 15 "Bip01 R Hand" 14
 16 "Bip06 R elbow2-smooth" 13
 17 "Bip01 Head" 6
 18 "Bip06 Head_helper" 17
 19 "Bip06 Head_eyes_l" 18
 20 "Bip06 Head_eyes_r" 18
 21 "Bip06 Head_blink_l" 18
 22 "Bip06 Head_blink_smooth_l1" 21
 23 "Bip06 Head_blink_r" 18
 24 "Bip06 Head_blink_smooth_r1" 23
 25 "Bip06 Head_L_eyebrow" 18
 26 "Bip06 Head_R_eyebrow" 18
 27 "Bip06 Head_blink_l_lid" 18
 28 "Bip06 Head_blink_r_lid" 18
 29 "Bip06 bunny" 18
 30 "Bip06 bunnyL" 29
 31 "Bip06 bunnyR" 29
 32 "Bip01 L Leg" 1
 33 "Bip01 L Leg1" 32
 34 "Bip01 L Foot" 33
 35 "Bip01 R Leg" 1
 36 "Bip01 R Leg1" 35
 37 "Bip01 R Foot" 36
 38 "Bip03 HairR1" 17
 39 "Bip03 HairR2" 38
 40 "Bip03 HairL1" 17
 41 "Bip03 HairL2" 40
 42 "Bip03 swingR" 17
 43 "Bip03 swingL" 17
end
skeleton
time 0
  0   0.001233 -0.019532 2.285597 0.000000 0.000000 -1.571829
  1   -1.093036 0.000002 -0.326057 -1.570757 -1.570379 -0.000123
  2   2.262337 0.113614 0.064702 -0.001377 0.017294 -0.086373
  3   2.380047 0.353302 0.047440 0.000000 -0.000040 0.008774
  4   2.033756 0.190472 -0.000128 0.002351 -0.017246 -0.139576
  5   2.451511 0.204909 -0.003447 0.000000 -0.000005 -0.017472
  6   7.247600 -0.397300 -0.109469 0.000001 0.000009 0.418409
  7   -2.022252 -0.104661 3.136172 -0.298879 -1.361862 -2.901749
  8   1.168026 -0.537438 -0.063437 -1.543809 0.768668 -1.594858
  9   6.790376 -0.619176 0.015206 -1.422989 0.302449 -0.850671
 10   8.637599 0.544015 -0.090417 -0.997779 0.066177 0.036703
 11   6.790465 -0.619039 0.017802 -0.967118 0.329224 -0.563801
 12   -2.022474 -0.104699 -2.873818 0.298873 1.361683 -2.901984
 13   1.167898 -0.537463 0.063297 -0.113385 -1.441997 -0.062442
 14   7.002743 -0.617765 -0.183752 0.125139 -0.054831 -2.041515
 15   8.209042 0.615527 -0.255885 1.596982 0.082708 0.315173
 16   7.002735 -0.617911 -0.183641 0.091782 -0.056520 -1.446869
 17   1.574674 0.609930 -0.000899 0.000000 0.000008 -0.218522
 18   -0.602177 0.511412 -0.000006 0.000000 0.000000 0.000000
 19   3.673773 0.177020 1.119313 -0.000002 -0.000014 -0.174510
 20   3.673767 0.176993 -1.117566 0.000007 -0.000003 -0.174546
 21   3.942357 1.330634 1.627658 0.000002 -0.000011 -0.000026
 22   -0.246060 -0.011889 0.516521 -0.000011 0.000031 0.000025
 23   3.942374 1.330659 -1.631083 0.000019 0.000002 -0.000024
 24   -0.246150 -0.011872 -0.516511 -0.000005 -0.000006 0.000048
 25   4.941364 1.997338 1.629330 0.000018 -0.000001 -0.000024
 26   4.941382 1.997366 -1.629410 -0.000001 0.000005 -0.000024
 27   2.918368 1.615358 1.514501 -0.000019 -0.000022 -0.000050
 28   2.920798 1.614964 -1.501142 -0.000002 -0.000009 -0.000024
 29   8.824059 0.150544 0.091743 0.000006 -0.000231 -0.174534
 30   2.111085 -0.561179 1.784320 -0.000008 -0.000682 0.000024
 31   2.121290 -0.561289 -1.853599 0.000000 0.000000 -0.000002
 32   -0.810489 -0.093824 3.127092 0.338887 -3.077718 -0.167351
 33   14.298673 -0.408176 0.475484 0.013203 -0.091857 -0.496506
 34   15.835795 0.581398 0.242756 -0.532523 -0.064474 0.362871
 35   -0.815868 -0.091229 -3.114430 -0.002100 2.881638 -0.314968
 36   14.294526 -0.410349 -0.463635 -0.021444 0.095325 -0.575403
 37   15.834409 0.579420 -0.284600 -0.051525 0.043093 0.201376
 38   1.139685 -3.453749 -2.823813 0.000000 0.000000 0.000001
 39   -4.457742 -1.054854 -0.746180 0.000000 0.000000 0.000000
 40   1.118101 -3.449769 3.237290 0.000000 0.000001 0.000000
 41   -4.433840 -1.059130 0.959566 -0.000001 0.000000 0.000000
 42   -0.657468 1.697302 -2.688614 0.000000 0.000002 0.000000
 43   -0.664068 1.698578 2.869377 0.000000 0.000002 0.000000
time 1
  0   0.001233 -0.019532 2.285597 0.000000 0.000000 -1.571829
  1   -1.093036 0.000002 -0.326057 -1.570757 -1.570379 -0.000123
  2   2.262337 0.113614 0.064702 -0.000778 0.009840 -0.086373
  3   2.380047 0.353302 0.047440 0.000000 -0.008705 0.008774
  4   2.033756 0.190472 -0.000128 0.003070 -0.022111 -0.139576
  5   2.451511 0.204909 -0.003447 0.000000 -0.000005 -0.017472
  6   7.247600 -0.397300 -0.109469 0.000001 0.000009 0.418409
  7   -2.022252 -0.104661 3.136172 -0.298879 -1.361862 -2.901749
  8   1.168026 -0.537438 -0.063437 -1.496032 0.839259 -1.542099
  9   6.790376 -0.619176 0.015206 -1.321184 0.269145 -0.850897
 10   8.637599 0.544015 -0.090417 -0.997779 0.066177 0.036703
 11   6.790465 -0.619039 0.017802 -0.900842 0.295938 -0.572682
 12   -2.022474 -0.104699 -2.873818 0.298873 1.361712 -2.901984
 13   1.167898 -0.537463 0.063297 0.306833 -1.284302 -0.436365
 14   7.002743 -0.617765 -0.183752 0.073729 0.002749 -2.071382
 15   8.209042 0.615527 -0.255885 1.592093 0.078472 0.229958
 16   7.002735 -0.617911 -0.183641 0.067162 -0.003008 -1.468615
 17   1.574674 0.609930 -0.000899 0.000000 0.000008 -0.218522
 18   -0.602177 0.511412 -0.000006 0.000000 0.000000 0.000000
 19   3.673773 0.177020 1.119313 -0.000002 -0.000014 -0.174510
 20   3.673767 0.176993 -1.117566 0.000007 -0.000003 -0.174546
 21   3.942357 1.330634 1.627658 0.000002 -0.000011 -0.000026
 22   -0.246060 -0.011889 0.516521 -0.000011 0.000031 0.000025
 23   3.942374 1.330659 -1.631083 0.000019 0.000002 -0.000024
 24   -0.246150 -0.011872 -0.516511 -0.000005 -0.000006 0.000048
 25   4.941364 1.997338 1.629330 0.000018 -0.000001 -0.000024
 26   4.941382 1.997366 -1.629410 -0.000001 0.000005 -0.000024
 27   2.918368 1.615358 1.514501 -0.000019 -0.000022 -0.000050
 28   2.920798 1.614964 -1.501142 -0.000002 -0.000009 -0.000024
 29   8.824059 0.150544 0.091743 0.000006 -0.000231 -0.174534
 30   2.111085 -0.561179 1.784320 -0.000008 -0.000682 0.000024
 31   2.121290 -0.561289 -1.853599 0.000000 0.000000 -0.000002
 32   -0.810489 -0.093824 3.127092 0.338887 -3.077718 -0.167351
 33   14.298673 -0.408176 0.475484 0.013203 -0.091857 -0.496506
 34   15.835795 0.581398 0.242756 -0.532523 -0.064474 0.362871
 35   -0.815868 -0.091229 -3.114430 -0.002100 2.881638 -0.314968
 36   14.294526 -0.410349 -0.463635 -0.021444 0.095325 -0.575403
 37   15.834409 0.579420 -0.284600 -0.051525 0.043093 0.201376
 38   1.139685 -3.453749 -2.823813 0.000000 0.000000 0.000001
 39   -4.457742 -1.054854 -0.746180 0.000000 0.000000 0.000000
 40   1.118101 -3.449769 3.237290 0.000000 0.000001 0.000000
 41   -4.433840 -1.059130 0.959566 -0.000001 0.000000 0.000000
 42   -0.657468 1.697302 -2.688614 0.000000 0.000002 0.000000
 43   -0.664068 1.698578 2.869377 0.000000 0.000002 0.000000
time 2
  0   0.001233 -0.019532 2.285597 0.000000 0.000000 -1.571829
  1   -1.093036 0.000002 -0.326057 -1.570757 -1.570379 -0.000123
  2   2.262337 0.113614 0.064702 -0.000116 0.002506 -0.086373
  3   2.380047 0.353302 0.047440 0.000000 -0.017430 0.008774
  4   2.033756 0.190472 -0.000128 0.003734 -0.027049 -0.139576
  5   2.451511 0.204909 -0.003447 0.000000 -0.000005 -0.017472
  6   7.247600 -0.397300 -0.109469 0.000001 0.000009 0.418409
  7   -2.022252 -0.104661 3.136172 -0.298879 -1.361862 -2.901749
  8   1.168026 -0.537438 -0.063437 -1.438194 0.907787 -1.479408
  9   6.790376 -0.619176 0.015206 -1.220100 0.236176 -0.854595
 10   8.637599 0.544015 -0.090417 -0.997779 0.066177 0.036703
 11   6.790465 -0.619039 0.017802 -0.834654 0.263505 -0.582776
 12   -2.022474 -0.104699 -2.873818 0.298873 1.361712 -2.901984
 13   1.167898 -0.537463 0.063297 0.440673 -1.113995 -0.522627
 14   7.002743 -0.617765 -0.183752 0.020839 0.058795 -2.104384
 15   8.209042 0.615527 -0.255885 1.587203 0.073781 0.144924
 16   7.002735 -0.617911 -0.183641 0.041365 0.050223 -1.490968
 17   1.574674 0.609930 -0.000899 0.000000 0.000008 -0.218522
 18   -0.602177 0.511412 -0.000006 0.000000 0.000000 0.000000
 19   3.673773 0.177020 1.119313 -0.000002 -0.000014 -0.174510
 20   3.673767 0.176993 -1.117566 0.000007 -0.000003 -0.174546
 21   3.942357 1.330634 1.627658 0.000002 -0.000011 -0.000026
 22   -0.246060 -0.011889 0.516521 -0.000011 0.000031 0.000025
 23   3.942374 1.330659 -1.631083 0.000019 0.000002 -0.000024
 24   -0.246150 -0.011872 -0.516511 -0.000005 -0.000006 0.000048
 25   4.941364 1.997338 1.629330 0.000018 -0.000001 -0.000024
 26   4.941382 1.997366 -1.629410 -0.000001 0.000005 -0.000024
 27   2.918368 1.615358 1.514501 -0.000019 -0.000022 -0.000050
 28   2.920798 1.614964 -1.501142 -0.000002 -0.000009 -0.000024
 29   8.824059 0.150544 0.091743 0.000006 -0.000231 -0.174534
 30   2.111085 -0.561179 1.784320 -0.000008 -0.000682 0.000024
 31   2.121290 -0.561289 -1.853599 0.000000 0.000000 -0.000002
 32   -0.810489 -0.093824 3.127092 0.338887 -3.077718 -0.167351
 33   14.298673 -0.408176 0.475484 0.013203 -0.091857 -0.496506
 34   15.835795 0.581398 0.242756 -0.532523 -0.064474 0.362871
 35   -0.815868 -0.091229 -3.114430 -0.002100 2.881638 -0.314968
 36   14.294526 -0.410349 -0.463635 -0.021444 0.095325 -0.575403
 37   15.834409 0.579420 -0.284600 -0.051525 0.043093 0.201376
 38   1.139685 -3.453749 -2.823813 0.000000 0.000000 0.000001
 39   -4.457742 -1.054854 -0.746180 0.000000 0.000000 0.000000
 40   1.118101 -3.449769 3.237290 0.000000 0.000001 0.000000
 41   -4.433840 -1.059130 0.959566 -0.000001 0.000000 0.000000
 42   -0.657468 1.697302 -2.688614 0.000000 0.000002 0.000000
 43   -0.664068 1.698578 2.869377 0.000000 0.000002 0.000000
time 3
  0   0.001233 -0.019532 2.285597 0.000000 0.000000 -1.571829
  1   -1.093036 0.000002 -0.326057 -1.570757 -1.570379 -0.000123
  2   2.262337 0.113614 0.064702 0.000292 -0.004937 -0.086373
  3   2.380047 0.353302 0.047440 -0.000060 -0.026119 0.008774
  4   2.033756 0.190472 -0.000128 0.004435 -0.032059 -0.139576
  5   2.451511 0.204909 -0.003447 0.000000 -0.000005 -0.017472
  6   7.247600 -0.397300 -0.109469 0.000001 0.000009 0.418409
  7   -2.022252 -0.104661 3.136172 -0.298879 -1.361862 -2.901749
  8   1.168026 -0.537438 -0.063437 -1.367193 0.973749 -1.403685
  9   6.790376 -0.619176 0.015206 -1.119904 0.203606 -0.861991
 10   8.637599 0.544015 -0.090417 -0.997779 0.066177 0.036703
 11   6.790465 -0.619039 0.017802 -0.768262 0.232010 -0.594657
 12   -2.022474 -0.104699 -2.873818 0.298873 1.361712 -2.901984
 13   1.167898 -0.537463 0.063297 0.516310 -0.941502 -0.548173
 14   7.002743 -0.617765 -0.183752 -0.034613 0.113252 -2.140274
 15   8.209042 0.615527 -0.255885 1.582889 0.068711 0.059950
 16   7.002735 -0.617911 -0.183641 0.013968 0.103397 -1.514094
 17   1.574674 0.609930 -0.000899 0.000000 0.000008 -0.218522
 18   -0.602177 0.511412 -0.000006 0.000000 0.000000 0.000000
 19   3.673773 0.177020 1.119313 -0.000002 -0.000014 -0.174510
 20   3.673767 0.176993 -1.117566 0.000007 -0.000003 -0.174546
 21   3.942357 1.330634 1.627658 0.000002 -0.000011 -0.000026
 22   -0.246060 -0.011889 0.516521 -0.000011 0.000031 0.000025
 23   3.942374 1.330659 -1.631083 0.000019 0.000002 -0.000024
 24   -0.246150 -0.011872 -0.516511 -0.000005 -0.000006 0.000048
 25   4.941364 1.997338 1.629330 0.000018 -0.000001 -0.000024
 26   4.941382 1.997366 -1.629410 -0.000001 0.000005 -0.000024
 27   2.918368 1.615358 1.514501 -0.000019 -0.000022 -0.000050
 28   2.920798 1.614964 -1.501142 -0.000002 -0.000009 -0.000024
 29   8.824059 0.150544 0.091743 0.000006 -0.000231 -0.174534
 30   2.111085 -0.561179 1.784320 -0.000008 -0.000682 0.000024
 31   2.121290 -0.561289 -1.853599 0.000000 0.000000 -0.000002
 32   -0.810489 -0.093824 3.127092 0.338887 -3.077718 -0.167351
 33   14.298673 -0.408176 0.475484 0.013203 -0.091857 -0.496506
 34   15.835795 0.581398 0.242756 -0.532523 -0.064474 0.362871
 35   -0.815868 -0.091229 -3.114430 -0.002100 2.881638 -0.314968
 36   14.294526 -0.410349 -0.463635 -0.021444 0.095325 -0.575403
 37   15.834409 0.579420 -0.284600 -0.051525 0.043093 0.201376
 38   1.139685 -3.453749 -2.823813 0.000000 0.000000 0.000001
 39   -4.457742 -1.054854 -0.746180 0.000000 0.000000 0.000000
 40   1.118101 -3.449769 3.237290 0.000000 0.000001 0.000000
 41   -4.433840 -1.059130 0.959566 -0.000001 0.000000 0.000000
 42   -0.657468 1.697302 -2.688614 0.000000 0.000002 0.000000
 43   -0.664068 1.698578 2.869377 0.000000 0.000002 0.000000
time 4
  0   0.001233 -0.019532 2.285597 0.000000 0.000000 -1.571829
  1   -1.093036 0.000002 -0.326057 -1.570757 -1.570379 -0.000123
  2   2.262337 0.113614 0.064702 0.000967 -0.012307 -0.086373
  3   2.380047 0.353302 0.047440 -0.000135 -0.034807 0.008774
  4   2.033756 0.190472 -0.000128 0.005154 -0.036924 -0.139576
  5   2.451511 0.204909 -0.003447 0.000000 -0.000005 -0.017472
  6   7.247600 -0.397300 -0.109469 0.000001 0.000009 0.418409
  7   -2.022252 -0.104661 3.136172 -0.298879 -1.361862 -2.901749
  8   1.168026 -0.537438 -0.063437 -1.279297 1.035887 -1.311072
  9   6.790376 -0.619176 0.015206 -1.019874 0.171905 -0.872179
 10   8.637599 0.544015 -0.090417 -0.997779 0.066177 0.036703
 11   6.790465 -0.619039 0.017802 -0.701665 0.201396 -0.607576
 12   -2.022474 -0.104699 -2.873818 0.298873 1.361712 -2.901984
 13   1.167898 -0.537463 0.063297 0.572123 -0.768703 -0.551139
 14   7.002743 -0.617765 -0.183752 -0.092286 0.165494 -2.179299
 15   8.209042 0.615527 -0.255885 1.579078 0.063340 -0.024663
 16   7.002735 -0.617911 -0.183641 -0.014936 0.156176 -1.537882
 17   1.574674 0.609930 -0.000899 0.000000 0.000008 -0.218522
 18   -0.602177 0.511412 -0.000006 0.000000 0.000000 0.000000
 19   3.673773 0.177020 1.119313 -0.000002 -0.000014 -0.174510
 20   3.673767 0.176993 -1.117566 0.000007 -0.000003 -0.174546
 21   3.942357 1.330634 1.627658 0.000002 -0.000011 -0.000026
 22   -0.246060 -0.011889 0.516521 -0.000011 0.000031 0.000025
 23   3.942374 1.330659 -1.631083 0.000019 0.000002 -0.000024
 24   -0.246150 -0.011872 -0.516511 -0.000005 -0.000006 0.000048
 25   4.941364 1.997338 1.629330 0.000018 -0.000001 -0.000024
 26   4.941382 1.997366 -1.629410 -0.000001 0.000005 -0.000024
 27   2.918368 1.615358 1.514501 -0.000019 -0.000022 -0.000050
 28   2.920798 1.614964 -1.501142 -0.000002 -0.000009 -0.000024
 29   8.824059 0.150544 0.091743 0.000006 -0.000231 -0.174534
 30   2.111085 -0.561179 1.784320 -0.000008 -0.000682 0.000024
 31   2.121290 -0.561289 -1.853599 0.000000 0.000000 -0.000002
 32   -0.810489 -0.093824 3.127092 0.338887 -3.077718 -0.167351
 33   14.298673 -0.408176 0.475484 0.013203 -0.091857 -0.496506
 34   15.835795 0.581398 0.242756 -0.532523 -0.064474 0.362871
 35   -0.815868 -0.091229 -3.114430 -0.002100 2.881638 -0.314968
 36   14.294526 -0.410349 -0.463635 -0.021444 0.095325 -0.575403
 37   15.834409 0.579420 -0.284600 -0.051525 0.043093 0.201376
 38   1.139685 -3.453749 -2.823813 0.000000 0.000000 0.000001
 39   -4.457742 -1.054854 -0.746180 0.000000 0.000000 0.000000
 40   1.118101 -3.449769 3.237290 0.000000 0.000001 0.000000
 41   -4.433840 -1.059130 0.959566 -0.000001 0.000000 0.000000
 42   -0.657468 1.697302 -2.688614 0.000000 0.000002 0.000000
 43   -0.664068 1.698578 2.869377 0.000000 0.000002 0.000000
time 5
  0   0.001233 -0.019532 2.285597 0.000000 0.000000 -1.571829
  1   -1.093036 0.000002 -0.326057 -1.570757 -1.570379 -0.000123
  2   2.262337 0.113614 0.064702 0.001655 -0.019810 -0.086373
  3   2.380047 0.353302 0.047440 -0.000210 -0.043568 0.008774
  4   2.033756 0.190472 -0.000128 0.005818 -0.041862 -0.139576
  5   2.451511 0.204909 -0.003447 0.000000 -0.000005 -0.017472
  6   7.247600 -0.397300 -0.109469 0.000001 0.000009 0.418409
  7   -2.022252 -0.104661 3.136172 -0.298879 -1.361862 -2.901749
  8   1.168026 -0.537438 -0.063437 -1.168999 1.092843 -1.196381
  9   6.790376 -0.619176 0.015206 -0.920066 0.141405 -0.885763
 10   8.637599 0.544015 -0.090417 -0.997779 0.066177 0.036703
 11   6.790465 -0.619039 0.017802 -0.634777 0.171919 -0.621822
 12   -2.022474 -0.104699 -2.873818 0.298873 1.361683 -2.901984
 13   1.167898 -0.537463 0.063297 0.619923 -0.595905 -0.542059
 14   7.002743 -0.617765 -0.183752 -0.152692 0.215351 -2.222119
 15   8.209042 0.615527 -0.255885 1.575986 0.057590 -0.109577
 16   7.002735 -0.617911 -0.183641 -0.045534 0.208730 -1.562940
 17   1.574674 0.609930 -0.000899 0.000000 0.000008 -0.218522
 18   -0.602177 0.511412 -0.000006 0.000000 0.000000 0.000000
 19   3.673773 0.177020 1.119313 -0.000002 -0.000014 -0.174510
 20   3.673767 0.176993 -1.117566 0.000007 -0.000003 -0.174546
 21   3.942357 1.330634 1.627658 0.000002 -0.000011 -0.000026
 22   -0.246060 -0.011889 0.516521 -0.000011 0.000031 0.000025
 23   3.942374 1.330659 -1.631083 0.000019 0.000002 -0.000024
 24   -0.246150 -0.011872 -0.516511 -0.000005 -0.000006 0.000048
 25   4.941364 1.997338 1.629330 0.000018 -0.000001 -0.000024
 26   4.941382 1.997366 -1.629410 -0.000001 0.000005 -0.000024
 27   2.918368 1.615358 1.514501 -0.000019 -0.000022 -0.000050
 28   2.920798 1.614964 -1.501142 -0.000002 -0.000009 -0.000024
 29   8.824059 0.150544 0.091743 0.000006 -0.000231 -0.174534
 30   2.111085 -0.561179 1.784320 -0.000008 -0.000682 0.000024
 31   2.121290 -0.561289 -1.853599 0.000000 0.000000 -0.000002
 32   -0.810489 -0.093824 3.127092 0.338887 -3.077718 -0.167351
 33   14.298673 -0.408176 0.475484 0.013203 -0.091857 -0.496506
 34   15.835795 0.581398 0.242756 -0.532523 -0.064474 0.362871
 35   -0.815868 -0.091229 -3.114430 -0.002100 2.881638 -0.314968
 36   14.294526 -0.410349 -0.463635 -0.021444 0.095325 -0.575403
 37   15.834409 0.579420 -0.284600 -0.051525 0.043093 0.201376
 38   1.139685 -3.453749 -2.823813 0.000000 0.000000 0.000001
 39   -4.457742 -1.054854 -0.746180 0.000000 0.000000 0.000000
 40   1.118101 -3.449769 3.237290 0.000000 0.000001 0.000000
 41   -4.433840 -1.059130 0.959566 -0.000001 0.000000 0.000000
 42   -0.657468 1.697302 -2.688614 0.000000 0.000002 0.000000
 43   -0.664068 1.698578 2.869377 0.000000 0.000002 0.000000
time 6
  0   0.001233 -0.019532 2.285597 0.000000 0.000000 -1.571829
  1   -1.093036 0.000002 -0.326057 -1.570757 -1.570379 -0.000123
  2   2.262337 0.113614 0.064702 0.002279 -0.027252 -0.086409
  3   2.380047 0.353302 0.047440 -0.000285 -0.052329 0.008774
  4   2.033756 0.190472 -0.000128 0.006519 -0.046872 -0.139576
  5   2.451511 0.204909 -0.003447 0.000000 -0.000005 -0.017472
  6   7.247600 -0.397300 -0.109469 0.000001 0.000009 0.418409
  7   -2.022252 -0.104661 3.136172 -0.298879 -1.361862 -2.901749
  8   1.168026 -0.537438 -0.063437 -1.031427 1.142503 -1.054045
  9   6.790376 -0.619176 0.015206 -0.820314 0.112373 -0.902064
 10   8.637599 0.544015 -0.090417 -0.997779 0.066177 0.036703
 11   6.790465 -0.619039 0.017802 -0.567538 0.143522 -0.637105
 12   -2.022474 -0.104699 -2.873818 0.298873 1.361712 -2.901984
 13   1.167898 -0.537463 0.063297 0.664982 -0.423818 -0.524746
 14   7.002743 -0.617765 -0.183752 -0.216001 0.262539 -2.268487
 15   8.209042 0.615527 -0.255885 1.573038 0.051537 -0.194371
 16   7.002735 -0.617911 -0.183641 -0.078016 0.260607 -1.589322
 17   1.574674 0.609930 -0.000899 0.000000 0.000008 -0.218522
 18   -0.602177 0.511412 -0.000006 0.000000 0.000000 0.000000
 19   3.673773 0.177020 1.119313 -0.000002 -0.000014 -0.174510
 20   3.673767 0.176993 -1.117566 0.000007 -0.000003 -0.174546
 21   3.942357 1.330634 1.627658 0.000002 -0.000011 -0.000026
 22   -0.246060 -0.011889 0.516521 -0.000011 0.000031 0.000025
 23   3.942374 1.330659 -1.631083 0.000019 0.000002 -0.000024
 24   -0.246150 -0.011872 -0.516511 -0.000005 -0.000006 0.000048
 25   4.941364 1.997338 1.629330 0.000018 -0.000001 -0.000024
 26   4.941382 1.997366 -1.629410 -0.000001 0.000005 -0.000024
 27   2.918368 1.615358 1.514501 -0.000019 -0.000022 -0.000050
 28   2.920798 1.614964 -1.501142 -0.000002 -0.000009 -0.000024
 29   8.824059 0.150544 0.091743 0.000006 -0.000231 -0.174534
 30   2.111085 -0.561179 1.784320 -0.000008 -0.000682 0.000024
 31   2.121290 -0.561289 -1.853599 0.000000 0.000000 -0.000002
 32   -0.810489 -0.093824 3.127092 0.338887 -3.077718 -0.167351
 33   14.298673 -0.408176 0.475484 0.013203 -0.091857 -0.496506
 34   15.835795 0.581398 0.242756 -0.532523 -0.064474 0.362871
 35   -0.815868 -0.091229 -3.114430 -0.002100 2.881638 -0.314968
 36   14.294526 -0.410349 -0.463635 -0.021444 0.095325 -0.575403
 37   15.834409 0.579420 -0.284600 -0.051525 0.043093 0.201376
 38   1.139685 -3.453749 -2.823813 0.000000 0.000000 0.000001
 39   -4.457742 -1.054854 -0.746180 0.000000 0.000000 0.000000
 40   1.118101 -3.449769 3.237290 0.000000 0.000001 0.000000
 41   -4.433840 -1.059130 0.959566 -0.000001 0.000000 0.000000
 42   -0.657468 1.697302 -2.688614 0.000000 0.000002 0.000000
 43   -0.664068 1.698578 2.869377 0.000000 0.000002 0.000000
time 7
  0   0.001233 -0.019532 2.285597 0.000000 0.000000 -1.571829
  1   -1.093036 0.000002 -0.326057 -1.570757 -1.570379 -0.000123
  2   2.262337 0.113614 0.064702 0.002916 -0.034707 -0.086409
  3   2.380047 0.353302 0.047440 -0.000360 -0.061030 0.008774
  4   2.033756 0.190472 -0.000128 0.007238 -0.051737 -0.139576
  5   2.451511 0.204909 -0.003447 0.000000 -0.000005 -0.017472
  6   7.247600 -0.397300 -0.109469 0.000001 0.000009 0.418409
  7   -2.022252 -0.104661 3.136172 -0.298879 -1.361862 -2.901749
  8   1.168026 -0.537438 -0.063437 -0.861582 1.182352 -0.879952
  9   6.790376 -0.619176 0.015206 -0.720284 0.085143 -0.921082
 10   8.637599 0.544015 -0.090417 -0.997779 0.066177 0.036703
 11   6.790465 -0.619039 0.017802 -0.499744 0.116376 -0.653427
 12   -2.022474 -0.104699 -2.873818 0.298873 1.361712 -2.901984
 13   1.167898 -0.537463 0.063297 0.710462 -0.252444 -0.500774
 14   7.002743 -0.617765 -0.183752 -0.282042 0.306604 -2.318073
 15   8.209042 0.615527 -0.255885 1.570809 0.045408 -0.279164
 16   7.002735 -0.617911 -0.183641 -0.112333 0.312202 -1.616808
 17   1.574674 0.609930 -0.000899 0.000000 0.000008 -0.218522
 18   -0.602177 0.511412 -0.000006 0.000000 0.000000 0.000000
 19   3.673773 0.177020 1.119313 -0.000002 -0.000014 -0.174510
 20   3.673767 0.176993 -1.117566 0.000007 -0.000003 -0.174546
 21   3.942357 1.330634 1.627658 0.000002 -0.000011 -0.000026
 22   -0.246060 -0.011889 0.516521 -0.000011 0.000031 0.000025
 23   3.942374 1.330659 -1.631083 0.000019 0.000002 -0.000024
 24   -0.246150 -0.011872 -0.516511 -0.000005 -0.000006 0.000048
 25   4.941364 1.997338 1.629330 0.000018 -0.000001 -0.000024
 26   4.941382 1.997366 -1.629410 -0.000001 0.000005 -0.000024
 27   2.918368 1.615358 1.514501 -0.000019 -0.000022 -0.000050
 28   2.920798 1.614964 -1.501142 -0.000002 -0.000009 -0.000024
 29   8.824059 0.150544 0.091743 0.000006 -0.000231 -0.174534
 30   2.111085 -0.561179 1.784320 -0.000008 -0.000682 0.000024
 31   2.121290 -0.561289 -1.853599 0.000000 0.000000 -0.000002
 32   -0.810489 -0.093824 3.127092 0.338887 -3.077718 -0.167351
 33   14.298673 -0.408176 0.475484 0.013203 -0.091857 -0.496506
 34   15.835795 0.581398 0.242756 -0.532523 -0.064474 0.362871
 35   -0.815868 -0.091229 -3.114430 -0.002100 2.881638 -0.314968
 36   14.294526 -0.410349 -0.463635 -0.021444 0.095325 -0.575403
 37   15.834409 0.579420 -0.284600 -0.051525 0.043093 0.201376
 38   1.139685 -3.453749 -2.823813 0.000000 0.000000 0.000001
 39   -4.457742 -1.054854 -0.746180 0.000000 0.000000 0.000000
 40   1.118101 -3.449769 3.237290 0.000000 0.000001 0.000000
 41   -4.433840 -1.059130 0.959566 -0.000001 0.000000 0.000000
 42   -0.657468 1.697302 -2.688614 0.000000 0.000002 0.000000
 43   -0.664068 1.698578 2.869377 0.000000 0.000002 0.000000
time 8
  0   0.001233 -0.019532 2.285597 0.000000 0.000000 -1.571829
  1   -1.093036 0.000002 -0.326057 -1.570757 -1.570379 -0.000123
  2   2.262337 0.113614 0.064702 0.003540 -0.042161 -0.086409
  3   2.380047 0.353302 0.047440 -0.000435 -0.069706 0.008815
  4   2.033756 0.190472 -0.000128 0.007939 -0.056747 -0.139576
  5   2.451511 0.204909 -0.003447 0.000000 -0.000005 -0.017472
  6   7.247600 -0.397300 -0.109469 0.000001 0.000009 0.418409
  7   -2.022252 -0.104661 3.136172 -0.298879 -1.361862 -2.901749
  8   1.168026 -0.537438 -0.063437 -0.660477 1.208465 -0.674672
  9   6.790376 -0.619176 0.015206 -0.619977 0.059915 -0.943194
 10   8.637599 0.544015 -0.090417 -0.997779 0.066177 0.036703
 11   6.790465 -0.619039 0.017802 -0.431454 0.090424 -0.671422
 12   -2.022474 -0.104699 -2.873818 0.298873 1.361712 -2.901984
 13   1.167898 -0.537463 0.063297 0.758754 -0.082188 -0.469296
 14   7.002743 -0.617765 -0.183752 -0.351557 0.347489 -2.371784
 15   8.209042 0.615527 -0.255885 1.569227 0.039129 -0.364078
 16   7.002735 -0.617911 -0.183641 -0.148957 0.363064 -1.646005
 17   1.574674 0.609930 -0.000899 0.000000 0.000008 -0.218522
 18   -0.602177 0.511412 -0.000006 0.000000 0.000000 0.000000
 19   3.673773 0.177020 1.119313 -0.000002 -0.000014 -0.174510
 20   3.673767 0.176993 -1.117566 0.000007 -0.000003 -0.174546
 21   3.942357 1.330634 1.627658 0.000002 -0.000011 -0.000026
 22   -0.246060 -0.011889 0.516521 -0.000011 0.000031 0.000025
 23   3.942374 1.330659 -1.631083 0.000019 0.000002 -0.000024
 24   -0.246150 -0.011872 -0.516511 -0.000005 -0.000006 0.000048
 25   4.941364 1.997338 1.629330 0.000018 -0.000001 -0.000024
 26   4.941382 1.997366 -1.629410 -0.000001 0.000005 -0.000024
 27   2.918368 1.615358 1.514501 -0.000019 -0.000022 -0.000050
 28   2.920798 1.614964 -1.501142 -0.000002 -0.000009 -0.000024
 29   8.824059 0.150544 0.091743 0.000006 -0.000231 -0.174534
 30   2.111085 -0.561179 1.784320 -0.000008 -0.000682 0.000024
 31   2.121290 -0.561289 -1.853599 0.000000 0.000000 -0.000002
 32   -0.810489 -0.093824 3.127092 0.338887 -3.077718 -0.167351
 33   14.298673 -0.408176 0.475484 0.013203 -0.091857 -0.496506
 34   15.835795 0.581398 0.242756 -0.532523 -0.064474 0.362871
 35   -0.815868 -0.091229 -3.114430 -0.002100 2.881638 -0.314968
 36   14.294526 -0.410349 -0.463635 -0.021444 0.095325 -0.575403
 37   15.834409 0.579420 -0.284600 -0.051525 0.043093 0.201376
 38   1.139685 -3.453749 -2.823813 0.000000 0.000000 0.000001
 39   -4.457742 -1.054854 -0.746180 0.000000 0.000000 0.000000
 40   1.118101 -3.449769 3.237290 0.000000 0.000001 0.000000
 41   -4.433840 -1.059130 0.959566 -0.000001 0.000000 0.000000
 42   -0.657468 1.697302 -2.688614 0.000000 0.000002 0.000000
 43   -0.664068 1.698578 2.869377 0.000000 0.000002 0.000000
time 9
  0   0.001233 -0.019532 2.285597 0.000000 0.000000 -1.571829
  1   -1.093036 0.000002 -0.326057 -1.570757 -1.570379 -0.000123
  2   2.262337 0.113614 0.064702 0.004215 -0.049592 -0.086482
  3   2.380047 0.353302 0.047440 -0.000510 -0.078431 0.008815
  4   2.033756 0.190472 -0.000128 0.008603 -0.061685 -0.139612
  5   2.451511 0.204909 -0.003447 0.000000 -0.000005 -0.017472
  6   7.247600 -0.397300 -0.109469 0.000001 0.000009 0.418409
  7   -2.022252 -0.104661 3.136172 -0.298879 -1.361862 -2.901749
  8   1.168026 -0.537438 -0.063437 -0.438742 1.218377 -0.448200
  9   6.790376 -0.619176 0.015206 -0.519281 0.037023 -0.966966
 10   8.637599 0.544015 -0.090417 -0.997779 0.066177 0.036703
 11   6.790465 -0.619039 0.017802 -0.362580 0.065836 -0.689763
 12   -2.022474 -0.104699 -2.873818 0.298873 1.361683 -2.901984
 13   1.167898 -0.537463 0.063297 0.812459 0.086136 -0.430009
 14   7.002743 -0.617765 -0.183752 -0.424488 0.384683 -2.429373
 15   8.209042 0.615527 -0.255885 1.567861 0.032622 -0.448872
 16   7.002735 -0.617911 -0.183641 -0.188029 0.413475 -1.677189
 17   1.574674 0.609930 -0.000899 0.000000 0.000008 -0.218522
 18   -0.602177 0.511412 -0.000006 0.000000 0.000000 0.000000
 19   3.673773 0.177020 1.119313 -0.000002 -0.000014 -0.174510
 20   3.673767 0.176993 -1.117566 0.000007 -0.000003 -0.174546
 21   3.942357 1.330634 1.627658 0.000002 -0.000011 -0.000026
 22   -0.246060 -0.011889 0.516521 -0.000011 0.000031 0.000025
 23   3.942374 1.330659 -1.631083 0.000019 0.000002 -0.000024
 24   -0.246150 -0.011872 -0.516511 -0.000005 -0.000006 0.000048
 25   4.941364 1.997338 1.629330 0.000018 -0.000001 -0.000024
 26   4.941382 1.997366 -1.629410 -0.000001 0.000005 -0.000024
 27   2.918368 1.615358 1.514501 -0.000019 -0.000022 -0.000050
 28   2.920798 1.614964 -1.501142 -0.000002 -0.000009 -0.000024
 29   8.824059 0.150544 0.091743 0.000006 -0.000231 -0.174534
 30   2.111085 -0.561179 1.784320 -0.000008 -0.000682 0.000024
 31   2.121290 -0.561289 -1.853599 0.000000 0.000000 -0.000002
 32   -0.810489 -0.093824 3.127092 0.338887 -3.077718 -0.167351
 33   14.298673 -0.408176 0.475484 0.013203 -0.091857 -0.496506
 34   15.835795 0.581398 0.242756 -0.532523 -0.064474 0.362871
 35   -0.815868 -0.091229 -3.114430 -0.002100 2.881638 -0.314968
 36   14.294526 -0.410349 -0.463635 -0.021444 0.095325 -0.575403
 37   15.834409 0.579420 -0.284600 -0.051525 0.043093 0.201376
 38   1.139685 -3.453749 -2.823813 0.000000 0.000000 0.000001
 39   -4.457742 -1.054854 -0.746180 0.000000 0.000000 0.000000
 40   1.118101 -3.449769 3.237290 0.000000 0.000001 0.000000
 41   -4.433840 -1.059130 0.959566 -0.000001 0.000000 0.000000
 42   -0.657468 1.697302 -2.688614 0.000000 0.000002 0.000000
 43   -0.664068 1.698578 2.869377 0.000000 0.000002 0.000000
time 10
  0   0.001233 -0.019532 2.285597 0.000000 0.000000 -1.571829
  1   -1.093036 0.000002 -0.326057 -1.570757 -1.570379 -0.000123
  2   2.262337 0.113614 0.064702 0.004903 -0.057106 -0.086572
  3   2.380047 0.353302 0.047440 -0.000600 -0.087240 0.008815
  4   2.033756 0.190472 -0.000128 0.009322 -0.066550 -0.139685
  5   2.451511 0.204909 -0.003447 0.000000 -0.000005 -0.017472
  6   7.247600 -0.397300 -0.109469 0.000001 0.000009 0.418409
  7   -2.022252 -0.104661 3.136172 -0.298879 -1.361862 -2.901749
  8   1.168026 -0.537438 -0.063437 -0.215742 1.210226 -0.221032
  9   6.790376 -0.619176 0.015206 -0.418197 0.016534 -0.993229
 10   8.637599 0.544015 -0.090417 -0.997779 0.066177 0.036703
 11   6.790465 -0.619039 0.017802 -0.293268 0.042556 -0.709257
 12   -2.022474 -0.104699 -2.873818 0.298873 1.361712 -2.901984
 13   1.167898 -0.537463 0.063297 0.874459 0.251865 -0.380068
 14   7.002743 -0.617765 -0.183752 -0.500549 0.417674 -2.490427
 15   8.209042 0.615527 -0.255885 1.567142 0.026040 -0.533485
 16   7.002735 -0.617911 -0.183641 -0.229690 0.462984 -1.710304
 17   1.574674 0.609930 -0.000899 0.000000 0.000008 -0.218522
 18   -0.602177 0.511412 -0.000006 0.000000 0.000000 0.000000
 19   3.673773 0.177020 1.119313 -0.000002 -0.000014 -0.174510
 20   3.673767 0.176993 -1.117566 0.000007 -0.000003 -0.174546
 21   3.942357 1.330634 1.627658 0.000002 -0.000011 -0.000026
 22   -0.246060 -0.011889 0.516521 -0.000011 0.000031 0.000025
 23   3.942374 1.330659 -1.631083 0.000019 0.000002 -0.000024
 24   -0.246150 -0.011872 -0.516511 -0.000005 -0.000006 0.000048
 25   4.941364 1.997338 1.629330 0.000018 -0.000001 -0.000024
 26   4.941382 1.997366 -1.629410 -0.000001 0.000005 -0.000024
 27   2.918368 1.615358 1.514501 -0.000019 -0.000022 -0.000050
 28   2.920798 1.614964 -1.501142 -0.000002 -0.000009 -0.000024
 29   8.824059 0.150544 0.091743 0.000006 -0.000231 -0.174534
 30   2.111085 -0.561179 1.784320 -0.000008 -0.000682 0.000024
 31   2.121290 -0.561289 -1.853599 0.000000 0.000000 -0.000002
 32   -0.810489 -0.093824 3.127092 0.338887 -3.077718 -0.167351
 33   14.298673 -0.408176 0.475484 0.013203 -0.091857 -0.496506
 34   15.835795 0.581398 0.242756 -0.532523 -0.064474 0.362871
 35   -0.815868 -0.091229 -3.114430 -0.002100 2.881638 -0.314968
 36   14.294526 -0.410349 -0.463635 -0.021444 0.095325 -0.575403
 37   15.834409 0.579420 -0.284600 -0.051525 0.043093 0.201376
 38   1.139685 -3.453749 -2.823813 0.000000 0.000000 0.000001
 39   -4.457742 -1.054854 -0.746180 0.000000 0.000000 0.000000
 40   1.118101 -3.449769 3.237290 0.000000 0.000001 0.000000
 41   -4.433840 -1.059130 0.959566 -0.000001 0.000000 0.000000
 42   -0.657468 1.697302 -2.688614 0.000000 0.000002 0.000000
 43   -0.664068 1.698578 2.869377 0.000000 0.000002 0.000000
time 11
  0   0.001233 -0.019532 2.285597 0.000000 0.000000 -1.571829
  1   -1.093036 0.000002 -0.326057 -1.570757 -1.570379 -0.000123
  2   2.262337 0.113614 0.064702 0.005527 -0.064512 -0.086572
  3   2.380047 0.353302 0.047440 -0.000675 -0.095965 0.008835
  4   2.033756 0.190472 -0.000128 0.010023 -0.071560 -0.139685
  5   2.451511 0.204909 -0.003447 0.000000 -0.000005 -0.017472
  6   7.247600 -0.397300 -0.109469 0.000001 0.000009 0.418409
  7   -2.022252 -0.104661 3.136172 -0.298879 -1.361862 -2.901749
  8   1.168026 -0.537438 -0.063437 -0.011852 1.185572 -0.013095
  9   6.790376 -0.619176 0.015206 -0.316392 -0.001019 -1.021831
 10   8.637599 0.544015 -0.090417 -0.997779 0.066177 0.036703
 11   6.790465 -0.619039 0.017802 -0.223197 0.020782 -0.730020
 12   -2.022474 -0.104699 -2.873818 0.298873 1.361712 -2.901984
 13   1.167898 -0.537463 0.063297 0.948900 0.414086 -0.316446
 14   7.002743 -0.617765 -0.183752 -0.579800 0.446351 -2.554616
 15   8.209042 0.615527 -0.255885 1.567070 0.019381 -0.618279
 16   7.002735 -0.617911 -0.183641 -0.274364 0.511534 -1.745738
 17   1.574674 0.609930 -0.000899 0.000000 0.000008 -0.218522
 18   -0.602177 0.511412 -0.000006 0.000000 0.000000 0.000000
 19   3.673773 0.177020 1.119313 -0.000002 -0.000014 -0.174510
 20   3.673767 0.176993 -1.117566 0.000007 -0.000003 -0.174546
 21   3.942357 1.330634 1.627658 0.000002 -0.000011 -0.000026
 22   -0.246060 -0.011889 0.516521 -0.000011 0.000031 0.000025
 23   3.942374 1.330659 -1.631083 0.000019 0.000002 -0.000024
 24   -0.246150 -0.011872 -0.516511 -0.000005 -0.000006 0.000048
 25   4.941364 1.997338 1.629330 0.000018 -0.000001 -0.000024
 26   4.941382 1.997366 -1.629410 -0.000001 0.000005 -0.000024
 27   2.918368 1.615358 1.514501 -0.000019 -0.000022 -0.000050
 28   2.920798 1.614964 -1.501142 -0.000002 -0.000009 -0.000024
 29   8.824059 0.150544 0.091743 0.000006 -0.000231 -0.174534
 30   2.111085 -0.561179 1.784320 -0.000008 -0.000682 0.000024
 31   2.121290 -0.561289 -1.853599 0.000000 0.000000 -0.000002
 32   -0.810489 -0.093824 3.127092 0.338887 -3.077718 -0.167351
 33   14.298673 -0.408176 0.475484 0.013203 -0.091857 -0.496506
 34   15.835795 0.581398 0.242756 -0.532523 -0.064474 0.362871
 35   -0.815868 -0.091229 -3.114430 -0.002100 2.881638 -0.314968
 36   14.294526 -0.410349 -0.463635 -0.021444 0.095325 -0.575403
 37   15.834409 0.579420 -0.284600 -0.051525 0.043093 0.201376
 38   1.139685 -3.453749 -2.823813 0.000000 0.000000 0.000001
 39   -4.457742 -1.054854 -0.746180 0.000000 0.000000 0.000000
 40   1.118101 -3.449769 3.237290 0.000000 0.000001 0.000000
 41   -4.433840 -1.059130 0.959566 -0.000001 0.000000 0.000000
 42   -0.657468 1.697302 -2.688614 0.000000 0.000002 0.000000
 43   -0.664068 1.698578 2.869377 0.000000 0.000002 0.000000
time 12
  0   0.001233 -0.019532 2.285597 0.000000 0.000000 -1.571829
  1   -1.093036 0.000002 -0.326057 -1.570757 -1.570379 -0.000123
  2   2.262337 0.113614 0.064702 0.006202 -0.071967 -0.086572
  3   2.380047 0.353302 0.047440 -0.000750 -0.104654 0.008835
  4   2.033756 0.190472 -0.000128 0.010724 -0.076498 -0.139757
  5   2.451511 0.204909 -0.003447 0.000000 -0.000005 -0.017472
  6   7.247600 -0.397300 -0.109469 0.000001 0.000009 0.418409
  7   -2.022252 -0.104661 3.136172 -0.298879 -1.361862 -2.901749
  8   1.168026 -0.537438 -0.063437 0.160461 1.147283 0.164351
  9   6.790376 -0.619176 0.015206 -0.214476 -0.015568 -1.051414
 10   8.637599 0.544015 -0.090417 -0.997779 0.066177 0.036703
 11   6.790465 -0.619039 0.017802 -0.152630 0.000458 -0.750956
 12   -2.022474 -0.104699 -2.873818 0.298873 1.361712 -2.901984
 13   1.167898 -0.537463 0.063297 1.041970 0.570612 -0.232726
 14   7.002743 -0.617765 -0.183752 -0.662010 0.470030 -2.622518
 15   8.209042 0.615527 -0.255885 1.567646 0.012723 -0.703012
 16   7.002735 -0.617911 -0.183641 -0.322380 0.559182 -1.784263
 17   1.574674 0.609930 -0.000899 0.000000 0.000008 -0.218522
 18   -0.602177 0.511412 -0.000006 0.000000 0.000000 0.000000
 19   3.673773 0.177020 1.119313 -0.000002 -0.000014 -0.174510
 20   3.673767 0.176993 -1.117566 0.000007 -0.000003 -0.174546
 21   3.942357 1.330634 1.627658 0.000002 -0.000011 -0.000026
 22   -0.246060 -0.011889 0.516521 -0.000011 0.000031 0.000025
 23   3.942374 1.330659 -1.631083 0.000019 0.000002 -0.000024
 24   -0.246150 -0.011872 -0.516511 -0.000005 -0.000006 0.000048
 25   4.941364 1.997338 1.629330 0.000018 -0.000001 -0.000024
 26   4.941382 1.997366 -1.629410 -0.000001 0.000005 -0.000024
 27   2.918368 1.615358 1.514501 -0.000019 -0.000022 -0.000050
 28   2.920798 1.614964 -1.501142 -0.000002 -0.000009 -0.000024
 29   8.824059 0.150544 0.091743 0.000006 -0.000231 -0.174534
 30   2.111085 -0.561179 1.784320 -0.000008 -0.000682 0.000024
 31   2.121290 -0.561289 -1.853599 0.000000 0.000000 -0.000002
 32   -0.810489 -0.093824 3.127092 0.338887 -3.077718 -0.167351
 33   14.298673 -0.408176 0.475484 0.013203 -0.091857 -0.496506
 34   15.835795 0.581398 0.242756 -0.532523 -0.064474 0.362871
 35   -0.815868 -0.091229 -3.114430 -0.002100 2.881638 -0.314968
 36   14.294526 -0.410349 -0.463635 -0.021444 0.095325 -0.575403
 37   15.834409 0.579420 -0.284600 -0.051525 0.043093 0.201376
 38   1.139685 -3.453749 -2.823813 0.000000 0.000000 0.000001
 39   -4.457742 -1.054854 -0.746180 0.000000 0.000000 0.000000
 40   1.118101 -3.449769 3.237290 0.000000 0.000001 0.000000
 41   -4.433840 -1.059130 0.959566 -0.000001 0.000000 0.000000
 42   -0.657468 1.697302 -2.688614 0.000000 0.000002 0.000000
 43   -0.664068 1.698578 2.869377 0.000000 0.000002 0.000000
time 13
  0   0.001233 -0.019532 2.285597 0.000000 0.000000 -1.571829
  1   -1.093036 0.000002 -0.326057 -1.570757 -1.570379 -0.000123
  2   2.262337 0.113614 0.064702 0.006826 -0.079421 -0.086644
  3   2.380047 0.353302 0.047440 -0.000825 -0.113342 0.008835
  4   2.033756 0.190472 -0.000128 0.011443 -0.081363 -0.139902
  5   2.451511 0.204909 -0.003447 0.000000 -0.000005 -0.017472
  6   7.247600 -0.397300 -0.109469 0.000001 0.000009 0.418409
  7   -2.022252 -0.104661 3.136172 -0.298879 -1.361862 -2.901749
  8   1.168026 -0.537438 -0.063437 0.301323 1.098478 0.309597
  9   6.790376 -0.619176 0.015206 -0.111894 -0.027181 -1.082507
 10   8.637599 0.544015 -0.090417 -0.997779 0.066177 0.036703
 11   6.790465 -0.619039 0.017802 -0.081303 -0.018331 -0.772930
 12   -2.022474 -0.104699 -2.873818 0.298873 1.361712 -2.901984
 13   1.167898 -0.537463 0.063297 1.163508 0.718391 -0.120192
 14   7.002743 -0.617765 -0.183752 -0.746726 0.488598 -2.692895
 15   8.209042 0.615527 -0.255885 1.568580 0.006217 -0.787565
 16   7.002735 -0.617911 -0.183641 -0.374021 0.605533 -1.825602
 17   1.574674 0.609930 -0.000899 0.000000 0.000008 -0.218522
 18   -0.602177 0.511412 -0.000006 0.000000 0.000000 0.000000
 19   3.673773 0.177020 1.119313 -0.000002 -0.000014 -0.174510
 20   3.673767 0.176993 -1.117566 0.000007 -0.000003 -0.174546
 21   3.942357 1.330634 1.627658 0.000002 -0.000011 -0.000026
 22   -0.246060 -0.011889 0.516521 -0.000011 0.000031 0.000025
 23   3.942374 1.330659 -1.631083 0.000019 0.000002 -0.000024
 24   -0.246150 -0.011872 -0.516511 -0.000005 -0.000006 0.000048
 25   4.941364 1.997338 1.629330 0.000018 -0.000001 -0.000024
 26   4.941382 1.997366 -1.629410 -0.000001 0.000005 -0.000024
 27   2.918368 1.615358 1.514501 -0.000019 -0.000022 -0.000050
 28   2.920798 1.614964 -1.501142 -0.000002 -0.000009 -0.000024
 29   8.824059 0.150544 0.091743 0.000006 -0.000231 -0.174534
 30   2.111085 -0.561179 1.784320 -0.000008 -0.000682 0.000024
 31   2.121290 -0.561289 -1.853599 0.000000 0.000000 -0.000002
 32   -0.810489 -0.093824 3.127092 0.338887 -3.077718 -0.167351
 33   14.298673 -0.408176 0.475484 0.013203 -0.091857 -0.496506
 34   15.835795 0.581398 0.242756 -0.532523 -0.064474 0.362871
 35   -0.815868 -0.091229 -3.114430 -0.002100 2.881638 -0.314968
 36   14.294526 -0.410349 -0.463635 -0.021444 0.095325 -0.575403
 37   15.834409 0.579420 -0.284600 -0.051525 0.043093 0.201376
 38   1.139685 -3.453749 -2.823813 0.000000 0.000000 0.000001
 39   -4.457742 -1.054854 -0.746180 0.000000 0.000000 0.000000
 40   1.118101 -3.449769 3.237290 0.000000 0.000001 0.000000
 41   -4.433840 -1.059130 0.959566 -0.000001 0.000000 0.000000
 42   -0.657468 1.697302 -2.688614 0.000000 0.000002 0.000000
 43   -0.664068 1.698578 2.869377 0.000000 0.000002 0.000000
time 14
  0   0.001233 -0.019532 2.285597 0.000000 0.000000 -1.571829
  1   -1.093036 0.000002 -0.326057 -1.570757 -1.570379 -0.000123
  2   2.262337 0.113614 0.064702 0.007476 -0.086864 -0.086717
  3   2.380047 0.353302 0.047440 -0.000900 -0.122103 0.008876
  4   2.033756 0.190472 -0.000128 0.012107 -0.086373 -0.139975
  5   2.451511 0.204909 -0.003447 0.000000 -0.000005 -0.017472
  6   7.247600 -0.397300 -0.109469 0.000001 0.000009 0.418409
  7   -2.022252 -0.104661 3.136172 -0.298879 -1.361862 -2.901749
  8   1.168026 -0.537438 -0.063437 0.414342 1.042126 0.427008
  9   6.790376 -0.619176 0.015206 -0.009367 -0.035190 -1.114958
 10   8.637599 0.544015 -0.090417 -0.997779 0.066177 0.036703
 11   6.790465 -0.619039 0.017802 -0.009626 -0.035301 -0.795654
 12   -2.022474 -0.104699 -2.873818 0.298873 1.361712 -2.901984
 13   1.167898 -0.537463 0.063297 1.327575 0.852338 0.034959
 14   7.002743 -0.617765 -0.183752 -0.833377 0.501773 -2.765417
 15   8.209042 0.615527 -0.255885 1.570090 -0.000063 -0.872419
 16   7.002735 -0.617911 -0.183641 -0.429804 0.650531 -1.870474
 17   1.574674 0.609930 -0.000899 0.000000 0.000008 -0.218522
 18   -0.602177 0.511412 -0.000006 0.000000 0.000000 0.000000
 19   3.673773 0.177020 1.119313 -0.000002 -0.000014 -0.174510
 20   3.673767 0.176993 -1.117566 0.000007 -0.000003 -0.174546
 21   3.942357 1.330634 1.627658 0.000002 -0.000011 -0.000026
 22   -0.246060 -0.011889 0.516521 -0.000011 0.000031 0.000025
 23   3.942374 1.330659 -1.631083 0.000019 0.000002 -0.000024
 24   -0.246150 -0.011872 -0.516511 -0.000005 -0.000006 0.000048
 25   4.941364 1.997338 1.629330 0.000018 -0.000001 -0.000024
 26   4.941382 1.997366 -1.629410 -0.000001 0.000005 -0.000024
 27   2.918368 1.615358 1.514501 -0.000019 -0.000022 -0.000050
 28   2.920798 1.614964 -1.501142 -0.000002 -0.000009 -0.000024
 29   8.824059 0.150544 0.091743 0.000006 -0.000231 -0.174534
 30   2.111085 -0.561179 1.784320 -0.000008 -0.000682 0.000024
 31   2.121290 -0.561289 -1.853599 0.000000 0.000000 -0.000002
 32   -0.810489 -0.093824 3.127092 0.338887 -3.077718 -0.167351
 33   14.298673 -0.408176 0.475484 0.013203 -0.091857 -0.496506
 34   15.835795 0.581398 0.242756 -0.532523 -0.064474 0.362871
 35   -0.815868 -0.091229 -3.114430 -0.002100 2.881638 -0.314968
 36   14.294526 -0.410349 -0.463635 -0.021444 0.095325 -0.575403
 37   15.834409 0.579420 -0.284600 -0.051525 0.043093 0.201376
 38   1.139685 -3.453749 -2.823813 0.000000 0.000000 0.000001
 39   -4.457742 -1.054854 -0.746180 0.000000 0.000000 0.000000
 40   1.118101 -3.449769 3.237290 0.000000 0.000001 0.000000
 41   -4.433840 -1.059130 0.959566 -0.000001 0.000000 0.000000
 42   -0.657468 1.697302 -2.688614 0.000000 0.000002 0.000000
 43   -0.664068 1.698578 2.869377 0.000000 0.000002 0.000000
time 15
  0   0.001233 -0.019532 2.285597 0.000000 0.000000 -1.571829
  1   -1.093036 0.000002 -0.326057 -1.570757 -1.570379 -0.000123
  2   2.262337 0.113614 0.064702 0.006839 -0.079901 -0.086644
  3   2.380047 0.353302 0.047440 -0.000825 -0.113966 0.008835
  4   2.033756 0.190472 -0.000128 0.011480 -0.081771 -0.139902
  5   2.451511 0.204909 -0.003447 0.000000 -0.000005 -0.017472
  6   7.247600 -0.397300 -0.109469 0.000001 0.000009 0.418409
  7   -2.022252 -0.104661 3.136172 -0.298879 -1.361862 -2.901749
  8   1.168026 -0.537438 -0.063437 0.309676 1.094956 0.318137
  9   6.790376 -0.619176 0.015206 -0.104959 -0.027915 -1.084997
 10   8.637599 0.544015 -0.090417 -0.997779 0.066177 0.036703
 11   6.790465 -0.619039 0.017802 -0.076544 -0.019468 -0.774545
 12   -2.022474 -0.104699 -2.873818 0.298873 1.361712 -2.901984
 13   1.167898 -0.537463 0.063297 1.172927 0.727900 -0.111354
 14   7.002743 -0.617765 -0.183752 -0.752305 0.489621 -2.697598
 15   8.209042 0.615527 -0.255885 1.568652 0.005763 -0.793338
 16   7.002735 -0.617911 -0.183641 -0.377599 0.608465 -1.828472
 17   1.574674 0.609930 -0.000899 0.000000 0.000008 -0.218522
 18   -0.602177 0.511412 -0.000006 0.000000 0.000000 0.000000
 19   3.673773 0.177020 1.119313 -0.000002 -0.000014 -0.174510
 20   3.673767 0.176993 -1.117566 0.000007 -0.000003 -0.174546
 21   3.942357 1.330634 1.627658 0.000002 -0.000011 -0.000026
 22   -0.246060 -0.011889 0.516521 -0.000011 0.000031 0.000025
 23   3.942374 1.330659 -1.631083 0.000019 0.000002 -0.000024
 24   -0.246150 -0.011872 -0.516511 -0.000005 -0.000006 0.000048
 25   4.941364 1.997338 1.629330 0.000018 -0.000001 -0.000024
 26   4.941382 1.997366 -1.629410 -0.000001 0.000005 -0.000024
 27   2.918368 1.615358 1.514501 -0.000019 -0.000022 -0.000050
 28   2.920798 1.614964 -1.501142 -0.000002 -0.000009 -0.000024
 29   8.824059 0.150544 0.091743 0.000006 -0.000231 -0.174534
 30   2.111085 -0.561179 1.784320 -0.000008 -0.000682 0.000024
 31   2.121290 -0.561289 -1.853599 0.000000 0.000000 -0.000002
 32   -0.810489 -0.093824 3.127092 0.338887 -3.077718 -0.167351
 33   14.298673 -0.408176 0.475484 0.013203 -0.091857 -0.496506
 34   15.835795 0.581398 0.242756 -0.532523 -0.064474 0.362871
 35   -0.815868 -0.091229 -3.114430 -0.002100 2.881638 -0.314968
 36   14.294526 -0.410349 -0.463635 -0.021444 0.095325 -0.575403
 37   15.834409 0.579420 -0.284600 -0.051525 0.043093 0.201376
 38   1.139685 -3.453749 -2.823813 0.000000 0.000000 0.000001
 39   -4.457742 -1.054854 -0.746180 0.000000 0.000000 0.000000
 40   1.118101 -3.449769 3.237290 0.000000 0.000001 0.000000
 41   -4.433840 -1.059130 0.959566 -0.000001 0.000000 0.000000
 42   -0.657468 1.697302 -2.688614 0.000000 0.000002 0.000000
 43   -0.664068 1.698578 2.869377 0.000000 0.000002 0.000000
time 16
  0   0.001233 -0.019532 2.285597 0.000000 0.000000 -1.571829
  1   -1.093036 0.000002 -0.326057 -1.570757 -1.570379 -0.000123
  2   2.262337 0.113614 0.064702 0.006266 -0.072937 -0.086626
  3   2.380047 0.353302 0.047440 -0.000765 -0.105852 0.008835
  4   2.033756 0.190472 -0.000128 0.010816 -0.077157 -0.139757
  5   2.451511 0.204909 -0.003447 0.000000 -0.000005 -0.017472
  6   7.247600 -0.397300 -0.109469 0.000001 0.000009 0.418409
  7   -2.022252 -0.104661 3.136172 -0.298879 -1.361862 -2.901749
  8   1.168026 -0.537438 -0.063437 0.181217 1.141245 0.185480
  9   6.790376 -0.619176 0.015206 -0.200828 -0.017370 -1.055716
 10   8.637599 0.544015 -0.090417 -0.997779 0.066177 0.036703
 11   6.790465 -0.619039 0.017802 -0.143170 -0.002100 -0.753955
 12   -2.022474 -0.104699 -2.873818 0.298873 1.361712 -2.901984
 13   1.167898 -0.537463 0.063297 1.056309 0.591004 -0.219711
 14   7.002743 -0.617765 -0.183752 -0.673226 0.472756 -2.631676
 15   8.209042 0.615527 -0.255885 1.567789 0.011816 -0.714318
 16   7.002735 -0.617911 -0.183641 -0.329065 0.565385 -1.789506
 17   1.574674 0.609930 -0.000899 0.000000 0.000008 -0.218522
 18   -0.602177 0.511412 -0.000006 0.000000 0.000000 0.000000
 19   3.673773 0.177020 1.119313 -0.000002 -0.000014 -0.174510
 20   3.673767 0.176993 -1.117566 0.000007 -0.000003 -0.174546
 21   3.942357 1.330634 1.627658 0.000002 -0.000011 -0.000026
 22   -0.246060 -0.011889 0.516521 -0.000011 0.000031 0.000025
 23   3.942374 1.330659 -1.631083 0.000019 0.000002 -0.000024
 24   -0.246150 -0.011872 -0.516511 -0.000005 -0.000006 0.000048
 25   4.941364 1.997338 1.629330 0.000018 -0.000001 -0.000024
 26   4.941382 1.997366 -1.629410 -0.000001 0.000005 -0.000024
 27   2.918368 1.615358 1.514501 -0.000019 -0.000022 -0.000050
 28   2.920798 1.614964 -1.501142 -0.000002 -0.000009 -0.000024
 29   8.824059 0.150544 0.091743 0.000006 -0.000231 -0.174534
 30   2.111085 -0.561179 1.784320 -0.000008 -0.000682 0.000024
 31   2.121290 -0.561289 -1.853599 0.000000 0.000000 -0.000002
 32   -0.810489 -0.093824 3.127092 0.338887 -3.077718 -0.167351
 33   14.298673 -0.408176 0.475484 0.013203 -0.091857 -0.496506
 34   15.835795 0.581398 0.242756 -0.532523 -0.064474 0.362871
 35   -0.815868 -0.091229 -3.114430 -0.002100 2.881638 -0.314968
 36   14.294526 -0.410349 -0.463635 -0.021444 0.095325 -0.575403
 37   15.834409 0.579420 -0.284600 -0.051525 0.043093 0.201376
 38   1.139685 -3.453749 -2.823813 0.000000 0.000000 0.000001
 39   -4.457742 -1.054854 -0.746180 0.000000 0.000000 0.000000
 40   1.118101 -3.449769 3.237290 0.000000 0.000001 0.000000
 41   -4.433840 -1.059130 0.959566 -0.000001 0.000000 0.000000
 42   -0.657468 1.697302 -2.688614 0.000000 0.000002 0.000000
 43   -0.664068 1.698578 2.869377 0.000000 0.000002 0.000000
time 17
  0   0.001233 -0.019532 2.285597 0.000000 0.000000 -1.571829
  1   -1.093036 0.000002 -0.326057 -1.570757 -1.570379 -0.000123
  2   2.262337 0.113614 0.064702 0.005680 -0.065962 -0.086572
  3   2.380047 0.353302 0.047440 -0.000690 -0.097667 0.008835
  4   2.033756 0.190472 -0.000128 0.010152 -0.072543 -0.139685
  5   2.451511 0.204909 -0.003447 0.000000 -0.000005 -0.017472
  6   7.247600 -0.397300 -0.109469 0.000001 0.000009 0.418409
  7   -2.022252 -0.104661 3.136172 -0.298879 -1.361862 -2.901749
  8   1.168026 -0.537438 -0.063437 0.025167 1.179132 0.024672
  9   6.790376 -0.619176 0.015206 -0.296031 -0.004289 -1.027491
 10   8.637599 0.544015 -0.090417 -0.997779 0.066177 0.036703
 11   6.790465 -0.619039 0.017802 -0.209154 0.016547 -0.734057
 12   -2.022474 -0.104699 -2.873818 0.298873 1.361712 -2.901984
 13   1.167898 -0.537463 0.063297 0.965630 0.445920 -0.301433
 14   7.002743 -0.617765 -0.183752 -0.596025 0.451348 -2.567899
 15   8.209042 0.615527 -0.255885 1.567070 0.018020 -0.635237
 16   7.002735 -0.617911 -0.183641 -0.283732 0.521120 -1.753355
 17   1.574674 0.609930 -0.000899 0.000000 0.000008 -0.218522
 18   -0.602177 0.511412 -0.000006 0.000000 0.000000 0.000000
 19   3.673773 0.177020 1.119313 -0.000002 -0.000014 -0.174510
 20   3.673767 0.176993 -1.117566 0.000007 -0.000003 -0.174546
 21   3.942357 1.330634 1.627658 0.000002 -0.000011 -0.000026
 22   -0.246060 -0.011889 0.516521 -0.000011 0.000031 0.000025
 23   3.942374 1.330659 -1.631083 0.000019 0.000002 -0.000024
 24   -0.246150 -0.011872 -0.516511 -0.000005 -0.000006 0.000048
 25   4.941364 1.997338 1.629330 0.000018 -0.000001 -0.000024
 26   4.941382 1.997366 -1.629410 -0.000001 0.000005 -0.000024
 27   2.918368 1.615358 1.514501 -0.000019 -0.000022 -0.000050
 28   2.920798 1.614964 -1.501142 -0.000002 -0.000009 -0.000024
 29   8.824059 0.150544 0.091743 0.000006 -0.000231 -0.174534
 30   2.111085 -0.561179 1.784320 -0.000008 -0.000682 0.000024
 31   2.121290 -0.561289 -1.853599 0.000000 0.000000 -0.000002
 32   -0.810489 -0.093824 3.127092 0.338887 -3.077718 -0.167351
 33   14.298673 -0.408176 0.475484 0.013203 -0.091857 -0.496506
 34   15.835795 0.581398 0.242756 -0.532523 -0.064474 0.362871
 35   -0.815868 -0.091229 -3.114430 -0.002100 2.881638 -0.314968
 36   14.294526 -0.410349 -0.463635 -0.021444 0.095325 -0.575403
 37   15.834409 0.579420 -0.284600 -0.051525 0.043093 0.201376
 38   1.139685 -3.453749 -2.823813 0.000000 0.000000 0.000001
 39   -4.457742 -1.054854 -0.746180 0.000000 0.000000 0.000000
 40   1.118101 -3.449769 3.237290 0.000000 0.000001 0.000000
 41   -4.433840 -1.059130 0.959566 -0.000001 0.000000 0.000000
 42   -0.657468 1.697302 -2.688614 0.000000 0.000002 0.000000
 43   -0.664068 1.698578 2.869377 0.000000 0.000002 0.000000
time 18
  0   0.001233 -0.019532 2.285597 0.000000 0.000000 -1.571829
  1   -1.093036 0.000002 -0.326057 -1.570757 -1.570379 -0.000123
  2   2.262337 0.113614 0.064702 0.005017 -0.058999 -0.086572
  3   2.380047 0.353302 0.047440 -0.000615 -0.089565 0.008815
  4   2.033756 0.190472 -0.000128 0.009525 -0.067941 -0.139685
  5   2.451511 0.204909 -0.003447 0.000000 -0.000005 -0.017472
  6   7.247600 -0.397300 -0.109469 0.000001 0.000009 0.418409
  7   -2.022252 -0.104661 3.136172 -0.298879 -1.361862 -2.901749
  8   1.168026 -0.537438 -0.063437 -0.158916 1.205245 -0.162959
  9   6.790376 -0.619176 0.015206 -0.391012 0.011662 -1.000549
 10   8.637599 0.544015 -0.090417 -0.997779 0.066177 0.036703
 11   6.790465 -0.619039 0.017802 -0.274612 0.036558 -0.714620
 12   -2.022474 -0.104699 -2.873818 0.298873 1.361712 -2.901984
 13   1.167898 -0.537463 0.063297 0.892805 0.295599 -0.364813
 14   7.002743 -0.617765 -0.183752 -0.521387 0.425795 -2.507175
 15   8.209042 0.615527 -0.255885 1.567070 0.024224 -0.556277
 16   7.002735 -0.617911 -0.183641 -0.241365 0.476066 -1.719632
 17   1.574674 0.609930 -0.000899 0.000000 0.000008 -0.218522
 18   -0.602177 0.511412 -0.000006 0.000000 0.000000 0.000000
 19   3.673773 0.177020 1.119313 -0.000002 -0.000014 -0.174510
 20   3.673767 0.176993 -1.117566 0.000007 -0.000003 -0.174546
 21   3.942357 1.330634 1.627658 0.000002 -0.000011 -0.000026
 22   -0.246060 -0.011889 0.516521 -0.000011 0.000031 0.000025
 23   3.942374 1.330659 -1.631083 0.000019 0.000002 -0.000024
 24   -0.246150 -0.011872 -0.516511 -0.000005 -0.000006 0.000048
 25   4.941364 1.997338 1.629330 0.000018 -0.000001 -0.000024
 26   4.941382 1.997366 -1.629410 -0.000001 0.000005 -0.000024
 27   2.918368 1.615358 1.514501 -0.000019 -0.000022 -0.000050
 28   2.920798 1.614964 -1.501142 -0.000002 -0.000009 -0.000024
 29   8.824059 0.150544 0.091743 0.000006 -0.000231 -0.174534
 30   2.111085 -0.561179 1.784320 -0.000008 -0.000682 0.000024
 31   2.121290 -0.561289 -1.853599 0.000000 0.000000 -0.000002
 32   -0.810489 -0.093824 3.127092 0.338887 -3.077718 -0.167351
 33   14.298673 -0.408176 0.475484 0.013203 -0.091857 -0.496506
 34   15.835795 0.581398 0.242756 -0.532523 -0.064474 0.362871
 35   -0.815868 -0.091229 -3.114430 -0.002100 2.881638 -0.314968
 36   14.294526 -0.410349 -0.463635 -0.021444 0.095325 -0.575403
 37   15.834409 0.579420 -0.284600 -0.051525 0.043093 0.201376
 38   1.139685 -3.453749 -2.823813 0.000000 0.000000 0.000001
 39   -4.457742 -1.054854 -0.746180 0.000000 0.000000 0.000000
 40   1.118101 -3.449769 3.237290 0.000000 0.000001 0.000000
 41   -4.433840 -1.059130 0.959566 -0.000001 0.000000 0.000000
 42   -0.657468 1.697302 -2.688614 0.000000 0.000002 0.000000
 43   -0.664068 1.698578 2.869377 0.000000 0.000002 0.000000
time 19
  0   0.001233 -0.019532 2.285597 0.000000 0.000000 -1.571829
  1   -1.093036 0.000002 -0.326057 -1.570757 -1.570379 -0.000123
  2   2.262337 0.113614 0.064702 0.004419 -0.052096 -0.086482
  3   2.380047 0.353302 0.047440 -0.000540 -0.081344 0.008815
  4   2.033756 0.190472 -0.000128 0.008861 -0.063303 -0.139685
  5   2.451511 0.204909 -0.003447 0.000000 -0.000005 -0.017472
  6   7.247600 -0.397300 -0.109469 0.000001 0.000009 0.418409
  7   -2.022252 -0.104661 3.136172 -0.298879 -1.361862 -2.901749
  8   1.168026 -0.537438 -0.063437 -0.363502 1.217773 -0.371655
  9   6.790376 -0.619176 0.015206 -0.485605 0.029882 -0.975796
 10   8.637599 0.544015 -0.090417 -0.997779 0.066177 0.036703
 11   6.790465 -0.619039 0.017802 -0.339515 0.057934 -0.696338
 12   -2.022474 -0.104699 -2.873818 0.298873 1.361712 -2.901984
 13   1.167898 -0.537463 0.063297 0.832001 0.141870 -0.414512
 14   7.002743 -0.617765 -0.183752 -0.449481 0.396039 -2.449174
 15   8.209042 0.615527 -0.255885 1.567718 0.030428 -0.477016
 16   7.002735 -0.617911 -0.183641 -0.201587 0.429997 -1.688006
 17   1.574674 0.609930 -0.000899 0.000000 0.000008 -0.218522
 18   -0.602177 0.511412 -0.000006 0.000000 0.000000 0.000000
 19   3.673773 0.177020 1.119313 -0.000002 -0.000014 -0.174510
 20   3.673767 0.176993 -1.117566 0.000007 -0.000003 -0.174546
 21   3.942357 1.330634 1.627658 0.000002 -0.000011 -0.000026
 22   -0.246060 -0.011889 0.516521 -0.000011 0.000031 0.000025
 23   3.942374 1.330659 -1.631083 0.000019 0.000002 -0.000024
 24   -0.246150 -0.011872 -0.516511 -0.000005 -0.000006 0.000048
 25   4.941364 1.997338 1.629330 0.000018 -0.000001 -0.000024
 26   4.941382 1.997366 -1.629410 -0.000001 0.000005 -0.000024
 27   2.918368 1.615358 1.514501 -0.000019 -0.000022 -0.000050
 28   2.920798 1.614964 -1.501142 -0.000002 -0.000009 -0.000024
 29   8.824059 0.150544 0.091743 0.000006 -0.000231 -0.174534
 30   2.111085 -0.561179 1.784320 -0.000008 -0.000682 0.000024
 31   2.121290 -0.561289 -1.853599 0.000000 0.000000 -0.000002
 32   -0.810489 -0.093824 3.127092 0.338887 -3.077718 -0.167351
 33   14.298673 -0.408176 0.475484 0.013203 -0.091857 -0.496506
 34   15.835795 0.581398 0.242756 -0.532523 -0.064474 0.362871
 35   -0.815868 -0.091229 -3.114430 -0.002100 2.881638 -0.314968
 36   14.294526 -0.410349 -0.463635 -0.021444 0.095325 -0.575403
 37   15.834409 0.579420 -0.284600 -0.051525 0.043093 0.201376
 38   1.139685 -3.453749 -2.823813 0.000000 0.000000 0.000001
 39   -4.457742 -1.054854 -0.746180 0.000000 0.000000 0.000000
 40   1.118101 -3.449769 3.237290 0.000000 0.000001 0.000000
 41   -4.433840 -1.059130 0.959566 -0.000001 0.000000 0.000000
 42   -0.657468 1.697302 -2.688614 0.000000 0.000002 0.000000
 43   -0.664068 1.698578 2.869377 0.000000 0.000002 0.000000
time 20
  0   0.001233 -0.019532 2.285597 0.000000 0.000000 -1.571829
  1   -1.093036 0.000002 -0.326057 -1.570757 -1.570379 -0.000123
  2   2.262337 0.113614 0.064702 0.003833 -0.045145 -0.086482
  3   2.380047 0.353302 0.047440 -0.000465 -0.073278 0.008815
  4   2.033756 0.190472 -0.000128 0.008234 -0.058652 -0.139612
  5   2.451511 0.204909 -0.003447 0.000000 -0.000005 -0.017472
  6   7.247600 -0.397300 -0.109469 0.000001 0.000009 0.418409
  7   -2.022252 -0.104661 3.136172 -0.298879 -1.361862 -2.901749
  8   1.168026 -0.537438 -0.063437 -0.573403 1.214553 -0.585475
  9   6.790376 -0.619176 0.015206 -0.579754 0.050438 -0.952250
 10   8.637599 0.544015 -0.090417 -0.997779 0.066177 0.036703
 11   6.790465 -0.619039 0.017802 -0.404039 0.080333 -0.678516
 12   -2.022474 -0.104699 -2.873818 0.298873 1.361683 -2.901984
 13   1.167898 -0.537463 0.063297 0.779491 -0.014452 -0.454586
 14   7.002743 -0.617765 -0.183752 -0.380365 0.362764 -2.394473
 15   8.209042 0.615527 -0.255885 1.568580 0.036481 -0.397996
 16   7.002735 -0.617911 -0.183641 -0.164257 0.383251 -1.658313
 17   1.574674 0.609930 -0.000899 0.000000 0.000008 -0.218522
 18   -0.602177 0.511412 -0.000006 0.000000 0.000000 0.000000
 19   3.673773 0.177020 1.119313 -0.000002 -0.000014 -0.174510
 20   3.673767 0.176993 -1.117566 0.000007 -0.000003 -0.174546
 21   3.942357 1.330634 1.627658 0.000002 -0.000011 -0.000026
 22   -0.246060 -0.011889 0.516521 -0.000011 0.000031 0.000025
 23   3.942374 1.330659 -1.631083 0.000019 0.000002 -0.000024
 24   -0.246150 -0.011872 -0.516511 -0.000005 -0.000006 0.000048
 25   4.941364 1.997338 1.629330 0.000018 -0.000001 -0.000024
 26   4.941382 1.997366 -1.629410 -0.000001 0.000005 -0.000024
 27   2.918368 1.615358 1.514501 -0.000019 -0.000022 -0.000050
 28   2.920798 1.614964 -1.501142 -0.000002 -0.000009 -0.000024
 29   8.824059 0.150544 0.091743 0.000006 -0.000231 -0.174534
 30   2.111085 -0.561179 1.784320 -0.000008 -0.000682 0.000024
 31   2.121290 -0.561289 -1.853599 0.000000 0.000000 -0.000002
 32   -0.810489 -0.093824 3.127092 0.338887 -3.077718 -0.167351
 33   14.298673 -0.408176 0.475484 0.013203 -0.091857 -0.496506
 34   15.835795 0.581398 0.242756 -0.532523 -0.064474 0.362871
 35   -0.815868 -0.091229 -3.114430 -0.002100 2.881638 -0.314968
 36   14.294526 -0.410349 -0.463635 -0.021444 0.095325 -0.575403
 37   15.834409 0.579420 -0.284600 -0.051525 0.043093 0.201376
 38   1.139685 -3.453749 -2.823813 0.000000 0.000000 0.000001
 39   -4.457742 -1.054854 -0.746180 0.000000 0.000000 0.000000
 40   1.118101 -3.449769 3.237290 0.000000 0.000001 0.000000
 41   -4.433840 -1.059130 0.959566 -0.000001 0.000000 0.000000
 42   -0.657468 1.697302 -2.688614 0.000000 0.000002 0.000000
 43   -0.664068 1.698578 2.869377 0.000000 0.000002 0.000000
time 21
  0   0.001233 -0.019532 2.285597 0.000000 0.000000 -1.571829
  1   -1.093036 0.000002 -0.326057 -1.570757 -1.570379 -0.000123
  2   2.262337 0.113614 0.064702 0.003247 -0.038182 -0.086409
  3   2.380047 0.353302 0.047440 -0.000405 -0.065056 0.008774
  4   2.033756 0.190472 -0.000128 0.007570 -0.054038 -0.139576
  5   2.451511 0.204909 -0.003447 0.000000 -0.000005 -0.017472
  6   7.247600 -0.397300 -0.109469 0.000001 0.000009 0.418409
  7   -2.022252 -0.104661 3.136172 -0.298879 -1.361862 -2.901749
  8   1.168026 -0.537438 -0.063437 -0.771218 1.196289 -0.787655
  9   6.790376 -0.619176 0.015206 -0.673459 0.073063 -0.930893
 10   8.637599 0.544015 -0.090417 -0.997779 0.066177 0.036703
 11   6.790465 -0.619039 0.017802 -0.467949 0.104125 -0.661560
 12   -2.022474 -0.104699 -2.873818 0.298873 1.361712 -2.901984
 13   1.167898 -0.537463 0.063297 0.732605 -0.172706 -0.486972
 14   7.002743 -0.617765 -0.183752 -0.314095 0.326138 -2.342907
 15   8.209042 0.615527 -0.255885 1.570018 0.042458 -0.318795
 16   7.002735 -0.617911 -0.183641 -0.129139 0.335998 -1.630275
 17   1.574674 0.609930 -0.000899 0.000000 0.000008 -0.218522
 18   -0.602177 0.511412 -0.000006 0.000000 0.000000 0.000000
 19   3.673773 0.177020 1.119313 -0.000002 -0.000014 -0.174510
 20   3.673767 0.176993 -1.117566 0.000007 -0.000003 -0.174546
 21   3.942357 1.330634 1.627658 0.000002 -0.000011 -0.000026
 22   -0.246060 -0.011889 0.516521 -0.000011 0.000031 0.000025
 23   3.942374 1.330659 -1.631083 0.000019 0.000002 -0.000024
 24   -0.246150 -0.011872 -0.516511 -0.000005 -0.000006 0.000048
 25   4.941364 1.997338 1.629330 0.000018 -0.000001 -0.000024
 26   4.941382 1.997366 -1.629410 -0.000001 0.000005 -0.000024
 27   2.918368 1.615358 1.514501 -0.000019 -0.000022 -0.000050
 28   2.920798 1.614964 -1.501142 -0.000002 -0.000009 -0.000024
 29   8.824059 0.150544 0.091743 0.000006 -0.000231 -0.174534
 30   2.111085 -0.561179 1.784320 -0.000008 -0.000682 0.000024
 31   2.121290 -0.561289 -1.853599 0.000000 0.000000 -0.000002
 32   -0.810489 -0.093824 3.127092 0.338887 -3.077718 -0.167351
 33   14.298673 -0.408176 0.475484 0.013203 -0.091857 -0.496506
 34   15.835795 0.581398 0.242756 -0.532523 -0.064474 0.362871
 35   -0.815868 -0.091229 -3.114430 -0.002100 2.881638 -0.314968
 36   14.294526 -0.410349 -0.463635 -0.021444 0.095325 -0.575403
 37   15.834409 0.579420 -0.284600 -0.051525 0.043093 0.201376
 38   1.139685 -3.453749 -2.823813 0.000000 0.000000 0.000001
 39   -4.457742 -1.054854 -0.746180 0.000000 0.000000 0.000000
 40   1.118101 -3.449769 3.237290 0.000000 0.000001 0.000000
 41   -4.433840 -1.059130 0.959566 -0.000001 0.000000 0.000000
 42   -0.657468 1.697302 -2.688614 0.000000 0.000002 0.000000
 43   -0.664068 1.698578 2.869377 0.000000 0.000002 0.000000
time 22
  0   0.001233 -0.019532 2.285597 0.000000 0.000000 -1.571829
  1   -1.093036 0.000002 -0.326057 -1.570757 -1.570379 -0.000123
  2   2.262337 0.113614 0.064702 0.002661 -0.031231 -0.086409
  3   2.380047 0.353302 0.047440 -0.000330 -0.056991 0.008774
  4   2.033756 0.190472 -0.000128 0.006906 -0.049436 -0.139576
  5   2.451511 0.204909 -0.003447 0.000000 -0.000005 -0.017472
  6   7.247600 -0.397300 -0.109469 0.000001 0.000009 0.418409
  7   -2.022252 -0.104661 3.136172 -0.298879 -1.361862 -2.901749
  8   1.168026 -0.537438 -0.063437 -0.944986 1.165245 -0.965354
  9   6.790376 -0.619176 0.015206 -0.766998 0.097490 -0.912026
 10   8.637599 0.544015 -0.090417 -0.997779 0.066177 0.036703
 11   6.790465 -0.619039 0.017802 -0.531422 0.128855 -0.645757
 12   -2.022474 -0.104699 -2.873818 0.298873 1.361712 -2.901984
 13   1.167898 -0.537463 0.063297 0.689093 -0.332232 -0.512760
 14   7.002743 -0.617765 -0.183752 -0.250786 0.286502 -2.294394
 15   8.209042 0.615527 -0.255885 1.571744 0.048283 -0.239714
 16   7.002735 -0.617911 -0.183641 -0.096045 0.288237 -1.603782
 17   1.574674 0.609930 -0.000899 0.000000 0.000008 -0.218522
 18   -0.602177 0.511412 -0.000006 0.000000 0.000000 0.000000
 19   3.673773 0.177020 1.119313 -0.000002 -0.000014 -0.174510
 20   3.673767 0.176993 -1.117566 0.000007 -0.000003 -0.174546
 21   3.942357 1.330634 1.627658 0.000002 -0.000011 -0.000026
 22   -0.246060 -0.011889 0.516521 -0.000011 0.000031 0.000025
 23   3.942374 1.330659 -1.631083 0.000019 0.000002 -0.000024
 24   -0.246150 -0.011872 -0.516511 -0.000005 -0.000006 0.000048
 25   4.941364 1.997338 1.629330 0.000018 -0.000001 -0.000024
 26   4.941382 1.997366 -1.629410 -0.000001 0.000005 -0.000024
 27   2.918368 1.615358 1.514501 -0.000019 -0.000022 -0.000050
 28   2.920798 1.614964 -1.501142 -0.000002 -0.000009 -0.000024
 29   8.824059 0.150544 0.091743 0.000006 -0.000231 -0.174534
 30   2.111085 -0.561179 1.784320 -0.000008 -0.000682 0.000024
 31   2.121290 -0.561289 -1.853599 0.000000 0.000000 -0.000002
 32   -0.810489 -0.093824 3.127092 0.338887 -3.077718 -0.167351
 33   14.298673 -0.408176 0.475484 0.013203 -0.091857 -0.496506
 34   15.835795 0.581398 0.242756 -0.532523 -0.064474 0.362871
 35   -0.815868 -0.091229 -3.114430 -0.002100 2.881638 -0.314968
 36   14.294526 -0.410349 -0.463635 -0.021444 0.095325 -0.575403
 37   15.834409 0.579420 -0.284600 -0.051525 0.043093 0.201376
 38   1.139685 -3.453749 -2.823813 0.000000 0.000000 0.000001
 39   -4.457742 -1.054854 -0.746180 0.000000 0.000000 0.000000
 40   1.118101 -3.449769 3.237290 0.000000 0.000001 0.000000
 41   -4.433840 -1.059130 0.959566 -0.000001 0.000000 0.000000
 42   -0.657468 1.697302 -2.688614 0.000000 0.000002 0.000000
 43   -0.664068 1.698578 2.869377 0.000000 0.000002 0.000000
time 23
  0   0.001233 -0.019532 2.285597 0.000000 0.000000 -1.571829
  1   -1.093036 0.000002 -0.326057 -1.570757 -1.570379 -0.000123
  2   2.262337 0.113614 0.064702 0.001986 -0.024280 -0.086373
  3   2.380047 0.353302 0.047440 -0.000255 -0.048769 0.008774
  4   2.033756 0.190472 -0.000128 0.006279 -0.044822 -0.139576
  5   2.451511 0.204909 -0.003447 0.000000 -0.000005 -0.017472
  6   7.247600 -0.397300 -0.109469 0.000001 0.000009 0.418409
  7   -2.022252 -0.104661 3.136172 -0.298879 -1.361862 -2.901749
  8   1.168026 -0.537438 -0.063437 -1.090088 1.123635 -1.114648
  9   6.790376 -0.619176 0.015206 -0.860259 0.123718 -0.895121
 10   8.637599 0.544015 -0.090417 -0.997779 0.066177 0.036703
 11   6.790465 -0.619039 0.017802 -0.594457 0.154693 -0.630819
 12   -2.022474 -0.104699 -2.873818 0.298873 1.361712 -2.901984
 13   1.167898 -0.537463 0.063297 0.647057 -0.492368 -0.532555
 14   7.002743 -0.617765 -0.183752 -0.190153 0.244027 -2.249346
 15   8.209042 0.615527 -0.255885 1.574045 0.054034 -0.160333
 16   7.002735 -0.617911 -0.183641 -0.064788 0.239856 -1.578559
 17   1.574674 0.609930 -0.000899 0.000000 0.000008 -0.218522
 18   -0.602177 0.511412 -0.000006 0.000000 0.000000 0.000000
 19   3.673773 0.177020 1.119313 -0.000002 -0.000014 -0.174510
 20   3.673767 0.176993 -1.117566 0.000007 -0.000003 -0.174546
 21   3.942357 1.330634 1.627658 0.000002 -0.000011 -0.000026
 22   -0.246060 -0.011889 0.516521 -0.000011 0.000031 0.000025
 23   3.942374 1.330659 -1.631083 0.000019 0.000002 -0.000024
 24   -0.246150 -0.011872 -0.516511 -0.000005 -0.000006 0.000048
 25   4.941364 1.997338 1.629330 0.000018 -0.000001 -0.000024
 26   4.941382 1.997366 -1.629410 -0.000001 0.000005 -0.000024
 27   2.918368 1.615358 1.514501 -0.000019 -0.000022 -0.000050
 28   2.920798 1.614964 -1.501142 -0.000002 -0.000009 -0.000024
 29   8.824059 0.150544 0.091743 0.000006 -0.000231 -0.174534
 30   2.111085 -0.561179 1.784320 -0.000008 -0.000682 0.000024
 31   2.121290 -0.561289 -1.853599 0.000000 0.000000 -0.000002
 32   -0.810489 -0.093824 3.127092 0.338887 -3.077718 -0.167351
 33   14.298673 -0.408176 0.475484 0.013203 -0.091857 -0.496506
 34   15.835795 0.581398 0.242756 -0.532523 -0.064474 0.362871
 35   -0.815868 -0.091229 -3.114430 -0.002100 2.881638 -0.314968
 36   14.294526 -0.410349 -0.463635 -0.021444 0.095325 -0.575403
 37   15.834409 0.579420 -0.284600 -0.051525 0.043093 0.201376
 38   1.139685 -3.453749 -2.823813 0.000000 0.000000 0.000001
 39   -4.457742 -1.054854 -0.746180 0.000000 0.000000 0.000000
 40   1.118101 -3.449769 3.237290 0.000000 0.000001 0.000000
 41   -4.433840 -1.059130 0.959566 -0.000001 0.000000 0.000000
 42   -0.657468 1.697302 -2.688614 0.000000 0.000002 0.000000
 43   -0.664068 1.698578 2.869377 0.000000 0.000002 0.000000
time 24
  0   0.001233 -0.019532 2.285597 0.000000 0.000000 -1.571829
  1   -1.093036 0.000002 -0.326057 -1.570757 -1.570379 -0.000123
  2   2.262337 0.113614 0.064702 0.001413 -0.017329 -0.086373
  3   2.380047 0.353302 0.047440 -0.000180 -0.040692 0.008774
  4   2.033756 0.190472 -0.000128 0.005615 -0.040208 -0.139576
  5   2.451511 0.204909 -0.003447 0.000000 -0.000005 -0.017472
  6   7.247600 -0.397300 -0.109469 0.000001 0.000009 0.418409
  7   -2.022252 -0.104661 3.136172 -0.298879 -1.361862 -2.901749
  8   1.168026 -0.537438 -0.063437 -1.208486 1.074478 -1.237247
  9   6.790376 -0.619176 0.015206 -0.953243 0.151416 -0.880858
 10   8.637599 0.544015 -0.090417 -0.997779 0.066177 0.036703
 11   6.790465 -0.619039 0.017802 -0.657141 0.181612 -0.616804
 12   -2.022474 -0.104699 -2.873818 0.298873 1.361683 -2.901984
 13   1.167898 -0.537463 0.063297 0.604459 -0.653420 -0.546054
 14   7.002743 -0.617765 -0.183752 -0.132253 0.198997 -2.207433
 15   8.209042 0.615527 -0.255885 1.576849 0.059557 -0.081313
 16   7.002735 -0.617911 -0.183641 -0.035178 0.191193 -1.554550
 17   1.574674 0.609930 -0.000899 0.000000 0.000008 -0.218522
 18   -0.602177 0.511412 -0.000006 0.000000 0.000000 0.000000
 19   3.673773 0.177020 1.119313 -0.000002 -0.000014 -0.174510
 20   3.673767 0.176993 -1.117566 0.000007 -0.000003 -0.174546
 21   3.942357 1.330634 1.627658 0.000002 -0.000011 -0.000026
 22   -0.246060 -0.011889 0.516521 -0.000011 0.000031 0.000025
 23   3.942374 1.330659 -1.631083 0.000019 0.000002 -0.000024
 24   -0.246150 -0.011872 -0.516511 -0.000005 -0.000006 0.000048
 25   4.941364 1.997338 1.629330 0.000018 -0.000001 -0.000024
 26   4.941382 1.997366 -1.629410 -0.000001 0.000005 -0.000024
 27   2.918368 1.615358 1.514501 -0.000019 -0.000022 -0.000050
 28   2.920798 1.614964 -1.501142 -0.000002 -0.000009 -0.000024
 29   8.824059 0.150544 0.091743 0.000006 -0.000231 -0.174534
 30   2.111085 -0.561179 1.784320 -0.000008 -0.000682 0.000024
 31   2.121290 -0.561289 -1.853599 0.000000 0.000000 -0.000002
 32   -0.810489 -0.093824 3.127092 0.338887 -3.077718 -0.167351
 33   14.298673 -0.408176 0.475484 0.013203 -0.091857 -0.496506
 34   15.835795 0.581398 0.242756 -0.532523 -0.064474 0.362871
 35   -0.815868 -0.091229 -3.114430 -0.002100 2.881638 -0.314968
 36   14.294526 -0.410349 -0.463635 -0.021444 0.095325 -0.575403
 37   15.834409 0.579420 -0.284600 -0.051525 0.043093 0.201376
 38   1.139685 -3.453749 -2.823813 0.000000 0.000000 0.000001
 39   -4.457742 -1.054854 -0.746180 0.000000 0.000000 0.000000
 40   1.118101 -3.449769 3.237290 0.000000 0.000001 0.000000
 41   -4.433840 -1.059130 0.959566 -0.000001 0.000000 0.000000
 42   -0.657468 1.697302 -2.688614 0.000000 0.000002 0.000000
 43   -0.664068 1.698578 2.869377 0.000000 0.000002 0.000000
time 25
  0   0.001233 -0.019532 2.285597 0.000000 0.000000 -1.571829
  1   -1.093036 0.000002 -0.326057 -1.570757 -1.570379 -0.000123
  2   2.262337 0.113614 0.064702 0.000827 -0.010402 -0.086373
  3   2.380047 0.353302 0.047440 -0.000120 -0.032482 0.008774
  4   2.033756 0.190472 -0.000128 0.004988 -0.035606 -0.139576
  5   2.451511 0.204909 -0.003447 0.000000 -0.000005 -0.017472
  6   7.247600 -0.397300 -0.109469 0.000001 0.000009 0.418409
  7   -2.022252 -0.104661 3.136172 -0.298879 -1.361862 -2.901749
  8   1.168026 -0.537438 -0.063437 -1.304482 1.019736 -1.337768
  9   6.790376 -0.619176 0.015206 -1.046504 0.180381 -0.869236
 10   8.637599 0.544015 -0.090417 -0.997779 0.066177 0.036703
 11   6.790465 -0.619039 0.017802 -0.719475 0.209440 -0.604058
 12   -2.022474 -0.104699 -2.873818 0.298873 1.361712 -2.901984
 13   1.167898 -0.537463 0.063297 0.558276 -0.814725 -0.551805
 14   7.002743 -0.617765 -0.183752 -0.076630 0.151809 -2.168573
 15   8.209042 0.615527 -0.255885 1.580301 0.064853 -0.002412
 16   7.002735 -0.617911 -0.183641 -0.007074 0.142079 -1.531369
 17   1.574674 0.609930 -0.000899 0.000000 0.000008 -0.218522
 18   -0.602177 0.511412 -0.000006 0.000000 0.000000 0.000000
 19   3.673773 0.177020 1.119313 -0.000002 -0.000014 -0.174510
 20   3.673767 0.176993 -1.117566 0.000007 -0.000003 -0.174546
 21   3.942357 1.330634 1.627658 0.000002 -0.000011 -0.000026
 22   -0.246060 -0.011889 0.516521 -0.000011 0.000031 0.000025
 23   3.942374 1.330659 -1.631083 0.000019 0.000002 -0.000024
 24   -0.246150 -0.011872 -0.516511 -0.000005 -0.000006 0.000048
 25   4.941364 1.997338 1.629330 0.000018 -0.000001 -0.000024
 26   4.941382 1.997366 -1.629410 -0.000001 0.000005 -0.000024
 27   2.918368 1.615358 1.514501 -0.000019 -0.000022 -0.000050
 28   2.920798 1.614964 -1.501142 -0.000002 -0.000009 -0.000024
 29   8.824059 0.150544 0.091743 0.000006 -0.000231 -0.174534
 30   2.111085 -0.561179 1.784320 -0.000008 -0.000682 0.000024
 31   2.121290 -0.561289 -1.853599 0.000000 0.000000 -0.000002
 32   -0.810489 -0.093824 3.127092 0.338887 -3.077718 -0.167351
 33   14.298673 -0.408176 0.475484 0.013203 -0.091857 -0.496506
 34   15.835795 0.581398 0.242756 -0.532523 -0.064474 0.362871
 35   -0.815868 -0.091229 -3.114430 -0.002100 2.881638 -0.314968
 36   14.294526 -0.410349 -0.463635 -0.021444 0.095325 -0.575403
 37   15.834409 0.579420 -0.284600 -0.051525 0.043093 0.201376
 38   1.139685 -3.453749 -2.823813 0.000000 0.000000 0.000001
 39   -4.457742 -1.054854 -0.746180 0.000000 0.000000 0.000000
 40   1.118101 -3.449769 3.237290 0.000000 0.000001 0.000000
 41   -4.433840 -1.059130 0.959566 -0.000001 0.000000 0.000000
 42   -0.657468 1.697302 -2.688614 0.000000 0.000002 0.000000
 43   -0.664068 1.698578 2.869377 0.000000 0.000002 0.000000
time 26
  0   0.001233 -0.019532 2.285597 0.000000 0.000000 -1.571829
  1   -1.093036 0.000002 -0.326057 -1.570757 -1.570379 -0.000123
  2   2.262337 0.113614 0.064702 0.000241 -0.003451 -0.086373
  3   2.380047 0.353302 0.047440 -0.000045 -0.024405 0.008774
  4   2.033756 0.190472 -0.000128 0.004306 -0.030992 -0.139576
  5   2.451511 0.204909 -0.003447 0.000000 -0.000005 -0.017472
  6   7.247600 -0.397300 -0.109469 0.000001 0.000009 0.418409
  7   -2.022252 -0.104661 3.136172 -0.298879 -1.361862 -2.901749
  8   1.168026 -0.537438 -0.063437 -1.382507 0.960667 -1.419943
  9   6.790376 -0.619176 0.015206 -1.139821 0.210147 -0.860255
 10   8.637599 0.544015 -0.090417 -0.997779 0.066177 0.036703
 11   6.790465 -0.619039 0.017802 -0.781605 0.238178 -0.592292
 12   -2.022474 -0.104699 -2.873818 0.298873 1.361712 -2.901984
 13   1.167898 -0.537463 0.063297 0.503376 -0.976133 -0.545449
 14   7.002743 -0.617765 -0.183752 -0.023398 0.102520 -2.132766
 15   8.209042 0.615527 -0.255885 1.583968 0.069771 0.076969
 16   7.002735 -0.617911 -0.183641 0.019570 0.092683 -1.509403
 17   1.574674 0.609930 -0.000899 0.000000 0.000008 -0.218522
 18   -0.602177 0.511412 -0.000006 0.000000 0.000000 0.000000
 19   3.673773 0.177020 1.119313 -0.000002 -0.000014 -0.174510
 20   3.673767 0.176993 -1.117566 0.000007 -0.000003 -0.174546
 21   3.942357 1.330634 1.627658 0.000002 -0.000011 -0.000026
 22   -0.246060 -0.011889 0.516521 -0.000011 0.000031 0.000025
 23   3.942374 1.330659 -1.631083 0.000019 0.000002 -0.000024
 24   -0.246150 -0.011872 -0.516511 -0.000005 -0.000006 0.000048
 25   4.941364 1.997338 1.629330 0.000018 -0.000001 -0.000024
 26   4.941382 1.997366 -1.629410 -0.000001 0.000005 -0.000024
 27   2.918368 1.615358 1.514501 -0.000019 -0.000022 -0.000050
 28   2.920798 1.614964 -1.501142 -0.000002 -0.000009 -0.000024
 29   8.824059 0.150544 0.091743 0.000006 -0.000231 -0.174534
 30   2.111085 -0.561179 1.784320 -0.000008 -0.000682 0.000024
 31   2.121290 -0.561289 -1.853599 0.000000 0.000000 -0.000002
 32   -0.810489 -0.093824 3.127092 0.338887 -3.077718 -0.167351
 33   14.298673 -0.408176 0.475484 0.013203 -0.091857 -0.496506
 34   15.835795 0.581398 0.242756 -0.532523 -0.064474 0.362871
 35   -0.815868 -0.091229 -3.114430 -0.002100 2.881638 -0.314968
 36   14.294526 -0.410349 -0.463635 -0.021444 0.095325 -0.575403
 37   15.834409 0.579420 -0.284600 -0.051525 0.043093 0.201376
 38   1.139685 -3.453749 -2.823813 0.000000 0.000000 0.000001
 39   -4.457742 -1.054854 -0.746180 0.000000 0.000000 0.000000
 40   1.118101 -3.449769 3.237290 0.000000 0.000001 0.000000
 41   -4.433840 -1.059130 0.959566 -0.000001 0.000000 0.000000
 42   -0.657468 1.697302 -2.688614 0.000000 0.000002 0.000000
 43   -0.664068 1.698578 2.869377 0.000000 0.000002 0.000000
time 27
  0   0.001233 -0.019532 2.285597 0.000000 0.000000 -1.571829
  1   -1.093036 0.000002 -0.326057 -1.570757 -1.570379 -0.000123
  2   2.262337 0.113614 0.064702 -0.000218 0.003476 -0.086373
  3   2.380047 0.353302 0.047440 0.000000 -0.016183 0.008774
  4   2.033756 0.190472 -0.000128 0.003642 -0.026462 -0.139576
  5   2.451511 0.204909 -0.003447 0.000000 -0.000005 -0.017472
  6   7.247600 -0.397300 -0.109469 0.000001 0.000009 0.418409
  7   -2.022252 -0.104661 3.136172 -0.298879 -1.361862 -2.901749
  8   1.168026 -0.537438 -0.063437 -1.446610 0.898680 -1.488391
  9   6.790376 -0.619176 0.015206 -1.233526 0.240580 -0.854067
 10   8.637599 0.544015 -0.090417 -0.997779 0.066177 0.036703
 11   6.790465 -0.619039 0.017802 -0.843442 0.267797 -0.581507
 12   -2.022474 -0.104699 -2.873818 0.298873 1.361712 -2.901984
 13   1.167898 -0.537463 0.063297 0.427880 -1.136930 -0.515908
 14   7.002743 -0.617765 -0.183752 0.027955 0.051413 -2.099846
 15   8.209042 0.615527 -0.255885 1.587850 0.074462 0.156170
 16   7.002735 -0.617911 -0.183641 0.044943 0.043005 -1.488098
 17   1.574674 0.609930 -0.000899 0.000000 0.000008 -0.218522
 18   -0.602177 0.511412 -0.000006 0.000000 0.000000 0.000000
 19   3.673773 0.177020 1.119313 -0.000002 -0.000014 -0.174510
 20   3.673767 0.176993 -1.117566 0.000007 -0.000003 -0.174546
 21   3.942357 1.330634 1.627658 0.000002 -0.000011 -0.000026
 22   -0.246060 -0.011889 0.516521 -0.000011 0.000031 0.000025
 23   3.942374 1.330659 -1.631083 0.000019 0.000002 -0.000024
 24   -0.246150 -0.011872 -0.516511 -0.000005 -0.000006 0.000048
 25   4.941364 1.997338 1.629330 0.000018 -0.000001 -0.000024
 26   4.941382 1.997366 -1.629410 -0.000001 0.000005 -0.000024
 27   2.918368 1.615358 1.514501 -0.000019 -0.000022 -0.000050
 28   2.920798 1.614964 -1.501142 -0.000002 -0.000009 -0.000024
 29   8.824059 0.150544 0.091743 0.000006 -0.000231 -0.174534
 30   2.111085 -0.561179 1.784320 -0.000008 -0.000682 0.000024
 31   2.121290 -0.561289 -1.853599 0.000000 0.000000 -0.000002
 32   -0.810489 -0.093824 3.127092 0.338887 -3.077718 -0.167351
 33   14.298673 -0.408176 0.475484 0.013203 -0.091857 -0.496506
 34   15.835795 0.581398 0.242756 -0.532523 -0.064474 0.362871
 35   -0.815868 -0.091229 -3.114430 -0.002100 2.881638 -0.314968
 36   14.294526 -0.410349 -0.463635 -0.021444 0.095325 -0.575403
 37   15.834409 0.579420 -0.284600 -0.051525 0.043093 0.201376
 38   1.139685 -3.453749 -2.823813 0.000000 0.000000 0.000001
 39   -4.457742 -1.054854 -0.746180 0.000000 0.000000 0.000000
 40   1.118101 -3.449769 3.237290 0.000000 0.000001 0.000000
 41   -4.433840 -1.059130 0.959566 -0.000001 0.000000 0.000000
 42   -0.657468 1.697302 -2.688614 0.000000 0.000002 0.000000
 43   -0.664068 1.698578 2.869377 0.000000 0.000002 0.000000
time 28
  0   0.001233 -0.019532 2.285597 0.000000 0.000000 -1.571829
  1   -1.093036 0.000002 -0.326057 -1.570757 -1.570379 -0.000123
  2   2.262337 0.113614 0.064702 -0.000804 0.010343 -0.086373
  3   2.380047 0.353302 0.047440 0.000000 -0.008118 0.008774
  4   2.033756 0.190472 -0.000128 0.003015 -0.021848 -0.139576
  5   2.451511 0.204909 -0.003447 0.000000 -0.000005 -0.017472
  6   7.247600 -0.397300 -0.109469 0.000001 0.000009 0.418409
  7   -2.022252 -0.104661 3.136172 -0.298879 -1.361862 -2.901749
  8   1.168026 -0.537438 -0.063437 -1.499639 0.834479 -1.545768
  9   6.790376 -0.619176 0.015206 -1.327786 0.271348 -0.850897
 10   8.637599 0.544015 -0.090417 -0.997779 0.066177 0.036703
 11   6.790465 -0.619039 0.017802 -0.905280 0.298070 -0.572106
 12   -2.022474 -0.104699 -2.873818 0.298873 1.361712 -2.901984
 13   1.167898 -0.537463 0.063297 0.293196 -1.295540 -0.425953
 14   7.002743 -0.617765 -0.183752 0.077088 -0.000601 -2.069237
 15   8.209042 0.615527 -0.255885 1.592308 0.078850 0.235551
 16   7.002735 -0.617911 -0.183641 0.068857 -0.006391 -1.467070
 17   1.574674 0.609930 -0.000899 0.000000 0.000008 -0.218522
 18   -0.602177 0.511412 -0.000006 0.000000 0.000000 0.000000
 19   3.673773 0.177020 1.119313 -0.000002 -0.000014 -0.174510
 20   3.673767 0.176993 -1.117566 0.000007 -0.000003 -0.174546
 21   3.942357 1.330634 1.627658 0.000002 -0.000011 -0.000026
 22   -0.246060 -0.011889 0.516521 -0.000011 0.000031 0.000025
 23   3.942374 1.330659 -1.631083 0.000019 0.000002 -0.000024
 24   -0.246150 -0.011872 -0.516511 -0.000005 -0.000006 0.000048
 25   4.941364 1.997338 1.629330 0.000018 -0.000001 -0.000024
 26   4.941382 1.997366 -1.629410 -0.000001 0.000005 -0.000024
 27   2.918368 1.615358 1.514501 -0.000019 -0.000022 -0.000050
 28   2.920798 1.614964 -1.501142 -0.000002 -0.000009 -0.000024
 29   8.824059 0.150544 0.091743 0.000006 -0.000231 -0.174534
 30   2.111085 -0.561179 1.784320 -0.000008 -0.000682 0.000024
 31   2.121290 -0.561289 -1.853599 0.000000 0.000000 -0.000002
 32   -0.810489 -0.093824 3.127092 0.338887 -3.077718 -0.167351
 33   14.298673 -0.408176 0.475484 0.013203 -0.091857 -0.496506
 34   15.835795 0.581398 0.242756 -0.532523 -0.064474 0.362871
 35   -0.815868 -0.091229 -3.114430 -0.002100 2.881638 -0.314968
 36   14.294526 -0.410349 -0.463635 -0.021444 0.095325 -0.575403
 37   15.834409 0.579420 -0.284600 -0.051525 0.043093 0.201376
 38   1.139685 -3.453749 -2.823813 0.000000 0.000000 0.000001
 39   -4.457742 -1.054854 -0.746180 0.000000 0.000000 0.000000
 40   1.118101 -3.449769 3.237290 0.000000 0.000001 0.000000
 41   -4.433840 -1.059130 0.959566 -0.000001 0.000000 0.000000
 42   -0.657468 1.697302 -2.688614 0.000000 0.000002 0.000000
 43   -0.664068 1.698578 2.869377 0.000000 0.000002 0.000000
time 29
  0   0.001233 -0.019532 2.285597 0.000000 0.000000 -1.571829
  1   -1.093036 0.000002 -0.326057 -1.570757 -1.570379 -0.000123
  2   2.262337 0.113614 0.064702 -0.001377 0.017294 -0.086373
  3   2.380047 0.353302 0.047440 0.000000 -0.000040 0.008774
  4   2.033756 0.190472 -0.000128 0.002351 -0.017246 -0.139576
  5   2.451511 0.204909 -0.003447 0.000000 -0.000005 -0.017472
  6   7.247600 -0.397300 -0.109469 0.000001 0.000009 0.418409
  7   -2.022252 -0.104661 3.136172 -0.298879 -1.361862 -2.901749
  8   1.168026 -0.537438 -0.063437 -1.543809 0.768668 -1.594858
  9   6.790376 -0.619176 0.015206 -1.422989 0.302449 -0.850671
 10   8.637599 0.544015 -0.090417 -0.997779 0.066177 0.036703
 11   6.790465 -0.619039 0.017802 -0.967118 0.329224 -0.563801
 12   -2.022474 -0.104699 -2.873818 0.298873 1.361683 -2.901984
 13   1.167898 -0.537463 0.063297 -0.113385 -1.441997 -0.062442
 14   7.002743 -0.617765 -0.183752 0.125139 -0.054831 -2.041515
 15   8.209042 0.615527 -0.255885 1.596982 0.082708 0.315173
 16   7.002735 -0.617911 -0.183641 0.091782 -0.056520 -1.446869
 17   1.574674 0.609930 -0.000899 0.000000 0.000008 -0.218522
 18   -0.602177 0.511412 -0.000006 0.000000 0.000000 0.000000
 19   3.673773 0.177020 1.119313 -0.000002 -0.000014 -0.174510
 20   3.673767 0.176993 -1.117566 0.000007 -0.000003 -0.174546
 21   3.942357 1.330634 1.627658 0.000002 -0.000011 -0.000026
 22   -0.246060 -0.011889 0.516521 -0.000011 0.000031 0.000025
 23   3.942374 1.330659 -1.631083 0.000019 0.000002 -0.000024
 24   -0.246150 -0.011872 -0.516511 -0.000005 -0.000006 0.000048
 25   4.941364 1.997338 1.629330 0.000018 -0.000001 -0.000024
 26   4.941382 1.997366 -1.629410 -0.000001 0.000005 -0.000024
 27   2.918368 1.615358 1.514501 -0.000019 -0.000022 -0.000050
 28   2.920798 1.614964 -1.501142 -0.000002 -0.000009 -0.000024
 29   8.824059 0.150544 0.091743 0.000006 -0.000231 -0.174534
 30   2.111085 -0.561179 1.784320 -0.000008 -0.000682 0.000024
 31   2.121290 -0.561289 -1.853599 0.000000 0.000000 -0.000002
 32   -0.810489 -0.093824 3.127092 0.338887 -3.077718 -0.167351
 33   14.298673 -0.408176 0.475484 0.013203 -0.091857 -0.496506
 34   15.835795 0.581398 0.242756 -0.532523 -0.064474 0.362871
 35   -0.815868 -0.091229 -3.114430 -0.002100 2.881638 -0.314968
 36   14.294526 -0.410349 -0.463635 -0.021444 0.095325 -0.575403
 37   15.834409 0.579420 -0.284600 -0.051525 0.043093 0.201376
 38   1.139685 -3.453749 -2.823813 0.000000 0.000000 0.000001
 39   -4.457742 -1.054854 -0.746180 0.000000 0.000000 0.000000
 40   1.118101 -3.449769 3.237290 0.000000 0.000001 0.000000
 41   -4.433840 -1.059130 0.959566 -0.000001 0.000000 0.000000
 42   -0.657468 1.697302 -2.688614 0.000000 0.000002 0.000000
 43   -0.664068 1.698578 2.869377 0.000000 0.000002 0.000000
end
