version 1
nodes
  0 "Bip01" -1
  1 "Bip01 Pelvis" 0
  2 "Bip01 Spine" 1
  3 "Bip01 Spine1" 2
  4 "Bip01 Spine2" 3
  5 "Bip01 Spine3" 4
  6 "Bip01 Neck" 5
  7 "Bip01 L Arm" 6
  8 "Bip01 L Arm1" 7
  9 "Bip01 L Arm2" 8
 10 "Bip01 L Hand" 9
 11 "Bip06 L elbow2-smooth" 8
 12 "Bip01 R Arm" 6
 13 "Bip01 R Arm1" 12
 14 "Bip01 R Arm2" 13
 15 "Bip01 R Hand" 14
 16 "Bip06 R elbow2-smooth" 13
 17 "Bip01 Head" 6
 18 "Bip06 Head_helper" 17
 19 "Bip06 Head_eyes_l" 18
 20 "Bip06 Head_eyes_r" 18
 21 "Bip06 Head_blink_l" 18
 22 "Bip06 Head_blink_smooth_l1" 21
 23 "Bip06 Head_blink_r" 18
 24 "Bip06 Head_blink_smooth_r1" 23
 25 "Bip06 Head_L_eyebrow" 18
 26 "Bip06 Head_R_eyebrow" 18
 27 "Bip06 Head_blink_l_lid" 18
 28 "Bip06 Head_blink_r_lid" 18
 29 "Bip06 bunny" 18
 30 "Bip06 bunnyL" 29
 31 "Bip06 bunnyR" 29
 32 "Bip01 L Leg" 1
 33 "Bip01 L Leg1" 32
 34 "Bip01 L Foot" 33
 35 "Bip01 R Leg" 1
 36 "Bip01 R Leg1" 35
 37 "Bip01 R Foot" 36
 38 "Bip03 HairR1" 17
 39 "Bip03 HairR2" 38
 40 "Bip03 HairL1" 17
 41 "Bip03 HairL2" 40
 42 "Bip03 swingR" 17
 43 "Bip03 swingL" 17
end
skeleton
time 0
  0   -0.010486 -0.546892 1.863709 0.000000 0.000000 -1.571449
  1   -1.093036 0.000002 -0.326057 -1.570809 -1.570703 0.000022
  2   2.262337 0.113614 0.064702 -0.005988 0.026990 0.052158
  3   2.380047 0.353302 0.047440 -0.013141 -0.052700 0.057523
  4   2.033756 0.190472 -0.000128 -0.046836 -0.011901 0.270559
  5   2.451511 0.204909 -0.003447 -0.083342 0.050168 0.398142
  6   7.247600 -0.397300 -0.109469 -0.016634 0.002238 0.459335
  7   -2.022252 -0.104661 3.136172 1.267345 -0.989541 -4.810541
  8   1.168026 -0.537438 -0.063437 -1.406870 0.598052 -0.995972
  9   6.790376 -0.619176 0.015206 -0.000102 -0.000151 -0.648418
 10   8.637599 0.544015 -0.090417 -2.712225 0.365125 0.639041
 11   6.790465 -0.619039 0.017802 -0.000984 -0.011196 -0.469041
 12   -2.022474 -0.104699 -2.873818 -2.105693 1.952640 -5.738984
 13   1.167898 -0.537463 0.063297 -1.056100 -0.804402 -0.018191
 14   7.002743 -0.617765 -0.183752 0.000172 0.000194 -1.969075
 15   8.209042 0.615527 -0.255885 1.826999 0.700998 0.099520
 16   7.002735 -0.617911 -0.183641 0.012838 0.010864 -1.397030
 17   1.574674 0.609930 -0.000899 0.161465 -0.006216 -0.384440
 18   -0.602177 0.511412 -0.000006 0.000000 0.000000 0.000000
 19   3.673773 0.177020 1.119313 -0.000002 -0.000014 -0.174510
 20   3.673767 0.176993 -1.117566 0.000007 -0.000003 -0.174546
 21   3.942357 1.330634 1.627658 0.000002 -0.000011 -0.000026
 22   -0.246060 -0.011889 0.516521 -0.000011 0.000031 0.000025
 23   3.942374 1.330659 -1.631083 0.000019 0.000002 -0.000024
 24   -0.246150 -0.011872 -0.516511 -0.000005 -0.000006 0.000048
 25   4.941364 1.997338 1.629330 0.000018 -0.000001 -0.000024
 26   4.941382 1.997366 -1.629410 -0.000001 0.000005 -0.000024
 27   2.918368 1.615358 1.514501 -0.000019 -0.000022 -0.000050
 28   2.920798 1.614964 -1.501142 -0.000002 -0.000009 -0.000024
 29   8.824059 0.150544 0.091743 0.000006 -0.000231 -0.174534
 30   2.111085 -0.561179 1.784320 -0.000008 -0.000682 0.000024
 31   2.121290 -0.561289 -1.853599 0.000000 0.000000 -0.000002
 32   -0.810489 -0.093824 3.127092 0.262828 -3.097583 -0.334759
 33   14.298673 -0.408176 0.475484 0.003675 -0.003118 -0.522390
 34   15.835795 0.581398 0.242756 -0.001248 0.032043 0.122292
 35   -0.815868 -0.091229 -3.114430 -0.132801 3.034913 -0.011454
 36   14.294526 -0.410349 -0.463635 -0.002676 0.001869 -0.384687
 37   15.834409 0.579420 -0.284600 -0.034108 0.026558 0.304555
 38   1.139685 -3.453749 -2.823813 0.000000 0.000000 0.000001
 39   -4.457742 -1.054854 -0.746180 0.000000 0.000000 0.000000
 40   1.118101 -3.449769 3.237290 0.000000 0.000001 0.000000
 41   -4.433840 -1.059130 0.959566 -0.000001 0.000000 0.000000
 42   -0.657468 1.697302 -2.688614 0.000000 0.000002 0.000000
 43   -0.664068 1.698578 2.869377 0.000000 0.000002 0.000000
time 1
  0   -0.010486 -0.546892 1.863709 0.000000 0.000000 -1.571449
  1   -1.093036 0.000002 -0.326057 -1.570809 -1.570703 0.000022
  2   2.262337 0.113614 0.064702 -0.005988 0.026990 0.052158
  3   2.380047 0.353302 0.047440 -0.040023 -0.055493 0.057564
  4   2.033756 0.190472 -0.000128 -0.080936 -0.006723 0.270269
  5   2.451511 0.204909 -0.003447 -0.113947 0.050194 0.398142
  6   7.247600 -0.397300 -0.109469 -0.016634 0.002238 0.459335
  7   -2.022252 -0.104661 3.136172 1.267345 -0.989541 -4.810541
  8   1.168026 -0.537438 -0.063437 -1.362004 0.896466 -0.985597
  9   6.790376 -0.619176 0.015206 -0.000102 -0.000151 -1.211707
 10   8.637599 0.544015 -0.090417 -2.691442 0.103484 0.905702
 11   6.790465 -0.619039 0.017802 0.001264 -0.011594 -0.863422
 12   -2.022474 -0.104699 -2.873818 1.194478 1.061373 -2.453341
 13   1.167898 -0.537463 0.063297 -1.237037 -0.606533 -0.023760
 14   7.002743 -0.617765 -0.183752 0.000172 0.000194 -1.954884
 15   8.209042 0.615527 -0.255885 1.728205 0.719081 -0.292034
 16   7.002735 -0.617911 -0.183641 0.012838 0.010751 -1.387040
 17   1.574674 0.609930 -0.000899 0.239781 -0.056272 -0.352173
 18   -0.602177 0.511412 -0.000006 0.000000 0.000000 0.000000
 19   3.673773 0.177020 1.119313 -0.000002 -0.000014 -0.174510
 20   3.673767 0.176993 -1.117566 0.000007 -0.000003 -0.174546
 21   3.942357 1.330634 1.627658 0.000002 -0.000011 -0.000026
 22   -0.246060 -0.011889 0.516521 -0.000011 0.000031 0.000025
 23   3.942374 1.330659 -1.631083 0.000019 0.000002 -0.000024
 24   -0.246150 -0.011872 -0.516511 -0.000005 -0.000006 0.000048
 25   4.941364 1.997338 1.629330 0.000018 -0.000001 -0.000024
 26   4.941382 1.997366 -1.629410 -0.000001 0.000005 -0.000024
 27   2.918368 1.615358 1.514501 -0.000019 -0.000022 -0.000050
 28   2.920798 1.614964 -1.501142 -0.000002 -0.000009 -0.000024
 29   8.824059 0.150544 0.091743 0.000006 -0.000231 -0.174534
 30   2.111085 -0.561179 1.784320 -0.000008 -0.000682 0.000024
 31   2.121290 -0.561289 -1.853599 0.000000 0.000000 -0.000002
 32   -0.810489 -0.093824 3.127092 0.262828 -3.097583 -0.334759
 33   14.298673 -0.408176 0.475484 0.003675 -0.003118 -0.522390
 34   15.835795 0.581398 0.242756 -0.001248 0.032043 0.122292
 35   -0.815868 -0.091229 -3.114430 -0.132801 3.034913 -0.011454
 36   14.294526 -0.410349 -0.463635 -0.002676 0.001869 -0.384687
 37   15.834409 0.579420 -0.284600 -0.034108 0.026558 0.304555
 38   1.139685 -3.453749 -2.823813 0.000000 0.000000 0.000001
 39   -4.457742 -1.054854 -0.746180 0.000000 0.000000 0.000000
 40   1.118101 -3.449769 3.237290 0.000000 0.000001 0.000000
 41   -4.433840 -1.059130 0.959566 -0.000001 0.000000 0.000000
 42   -0.657468 1.697302 -2.688614 0.000000 0.000002 0.000000
 43   -0.664068 1.698578 2.869377 0.000000 0.000002 0.000000
time 2
  0   -0.010486 -0.546892 1.863709 0.000000 0.000000 -1.571449
  1   -1.093036 0.000002 -0.326057 -1.570809 -1.570703 0.000022
  2   2.262337 0.113614 0.064702 -0.005988 0.026990 0.052158
  3   2.380047 0.353302 0.047440 -0.056119 -0.057123 0.057666
  4   2.033756 0.190472 -0.000128 -0.101352 -0.003667 0.269979
  5   2.451511 0.204909 -0.003447 -0.132399 0.050207 0.398142
  6   7.247600 -0.397300 -0.109469 -0.016634 0.002238 0.459335
  7   -2.022252 -0.104661 3.136172 1.267345 -0.989541 -4.810541
  8   1.168026 -0.537438 -0.063437 -1.382254 0.835284 -0.954157
  9   6.790376 -0.619176 0.015206 -0.000102 -0.000151 -1.416903
 10   8.637599 0.544015 -0.090417 -2.583298 0.007612 1.115790
 11   6.790465 -0.619039 0.017802 0.002140 -0.011708 -1.007090
 12   -2.022474 -0.104699 -2.873818 -1.968593 2.057300 -5.613851
 13   1.167898 -0.537463 0.063297 -1.138836 -0.670099 -0.156876
 14   7.002743 -0.617765 -0.183752 0.000172 0.000194 -1.941353
 15   8.209042 0.615527 -0.255885 1.739206 0.757667 -0.361252
 16   7.002735 -0.617911 -0.183641 0.012885 0.010751 -1.377547
 17   1.574674 0.609930 -0.000899 0.287266 -0.080720 -0.357421
 18   -0.602177 0.511412 -0.000006 0.000000 0.000000 0.000000
 19   3.673773 0.177020 1.119313 -0.000002 -0.000014 -0.174510
 20   3.673767 0.176993 -1.117566 0.000007 -0.000003 -0.174546
 21   3.942357 1.330634 1.627658 0.000002 -0.000011 -0.000026
 22   -0.246060 -0.011889 0.516521 -0.000011 0.000031 0.000025
 23   3.942374 1.330659 -1.631083 0.000019 0.000002 -0.000024
 24   -0.246150 -0.011872 -0.516511 -0.000005 -0.000006 0.000048
 25   4.941364 1.997338 1.629330 0.000018 -0.000001 -0.000024
 26   4.941382 1.997366 -1.629410 -0.000001 0.000005 -0.000024
 27   2.918368 1.615358 1.514501 -0.000019 -0.000022 -0.000050
 28   2.920798 1.614964 -1.501142 -0.000002 -0.000009 -0.000024
 29   8.824059 0.150544 0.091743 0.000006 -0.000231 -0.174534
 30   2.111085 -0.561179 1.784320 -0.000008 -0.000682 0.000024
 31   2.121290 -0.561289 -1.853599 0.000000 0.000000 -0.000002
 32   -0.810489 -0.093824 3.127092 0.262828 -3.097583 -0.334759
 33   14.298673 -0.408176 0.475484 0.003675 -0.003118 -0.522390
 34   15.835795 0.581398 0.242756 -0.001248 0.032043 0.122292
 35   -0.815868 -0.091229 -3.114430 -0.132801 3.034913 -0.011454
 36   14.294526 -0.410349 -0.463635 -0.002676 0.001869 -0.384687
 37   15.834409 0.579420 -0.284600 -0.034108 0.026558 0.304555
 38   1.139685 -3.453749 -2.823813 0.000000 0.000000 0.000001
 39   -4.457742 -1.054854 -0.746180 0.000000 0.000000 0.000000
 40   1.118101 -3.449769 3.237290 0.000000 0.000001 0.000000
 41   -4.433840 -1.059130 0.959566 -0.000001 0.000000 0.000000
 42   -0.657468 1.697302 -2.688614 0.000000 0.000002 0.000000
 43   -0.664068 1.698578 2.869377 0.000000 0.000002 0.000000
time 3
  0   -0.010486 -0.546892 1.863709 0.000000 0.000000 -1.571449
  1   -1.093036 0.000002 -0.326057 -1.570809 -1.570703 0.000022
  2   2.262337 0.113614 0.064702 -0.005988 0.026990 0.052158
  3   2.380047 0.353302 0.047440 -0.052594 -0.056691 0.057666
  4   2.033756 0.190472 -0.000128 -0.096852 -0.004494 0.270124
  5   2.451511 0.204909 -0.003447 -0.128171 0.049632 0.398265
  6   7.247600 -0.397300 -0.109469 -0.016634 0.002238 0.459335
  7   -2.022252 -0.104661 3.136172 1.267345 -0.989541 -4.810541
  8   1.168026 -0.537438 -0.063437 -1.422437 0.689272 -0.965354
  9   6.790376 -0.619176 0.015206 -0.000102 -0.000151 -1.402036
 10   8.637599 0.544015 -0.090417 -2.491006 -0.014209 1.230600
 11   6.790465 -0.619039 0.017802 0.002111 -0.011708 -0.996708
 12   -2.022474 -0.104699 -2.873818 -2.016113 2.014722 -5.656360
 13   1.167898 -0.537463 0.063297 -1.015329 -0.755736 -0.236903
 14   7.002743 -0.617765 -0.183752 0.000172 0.000194 -1.934753
 15   8.209042 0.615527 -0.255885 1.786374 0.778625 -0.336836
 16   7.002735 -0.617911 -0.183641 0.012885 0.010751 -1.372966
 17   1.574674 0.609930 -0.000899 0.276786 -0.074259 -0.357199
 18   -0.602177 0.511412 -0.000006 0.000000 0.000000 0.000000
 19   3.673773 0.177020 1.119313 -0.000002 -0.000014 -0.174510
 20   3.673767 0.176993 -1.117566 0.000007 -0.000003 -0.174546
 21   3.942357 1.330634 1.627658 0.000002 -0.000011 -0.000026
 22   -0.246060 -0.011889 0.516521 -0.000011 0.000031 0.000025
 23   3.942374 1.330659 -1.631083 0.000019 0.000002 -0.000024
 24   -0.246150 -0.011872 -0.516511 -0.000005 -0.000006 0.000048
 25   4.941364 1.997338 1.629330 0.000018 -0.000001 -0.000024
 26   4.941382 1.997366 -1.629410 -0.000001 0.000005 -0.000024
 27   2.918368 1.615358 1.514501 -0.000019 -0.000022 -0.000050
 28   2.920798 1.614964 -1.501142 -0.000002 -0.000009 -0.000024
 29   8.824059 0.150544 0.091743 0.000006 -0.000231 -0.174534
 30   2.111085 -0.561179 1.784320 -0.000008 -0.000682 0.000024
 31   2.121290 -0.561289 -1.853599 0.000000 0.000000 -0.000002
 32   -0.810489 -0.093824 3.127092 0.262828 -3.097583 -0.334759
 33   14.298673 -0.408176 0.475484 0.003675 -0.003118 -0.522390
 34   15.835795 0.581398 0.242756 -0.001248 0.032043 0.122292
 35   -0.815868 -0.091229 -3.114430 -0.132801 3.034913 -0.011454
 36   14.294526 -0.410349 -0.463635 -0.002676 0.001869 -0.384687
 37   15.834409 0.579420 -0.284600 -0.034108 0.026558 0.304555
 38   1.139685 -3.453749 -2.823813 0.000000 0.000000 0.000001
 39   -4.457742 -1.054854 -0.746180 0.000000 0.000000 0.000000
 40   1.118101 -3.449769 3.237290 0.000000 0.000001 0.000000
 41   -4.433840 -1.059130 0.959566 -0.000001 0.000000 0.000000
 42   -0.657468 1.697302 -2.688614 0.000000 0.000002 0.000000
 43   -0.664068 1.698578 2.869377 0.000000 0.000002 0.000000
time 4
  0   -0.010486 -0.546892 1.863709 0.000000 0.000000 -1.571449
  1   -1.093036 0.000002 -0.326057 -1.570809 -1.570703 0.000022
  2   2.262337 0.113614 0.064702 -0.005988 0.026990 0.052158
  3   2.380047 0.353302 0.047440 -0.043818 -0.055804 0.057605
  4   2.033756 0.190472 -0.000128 -0.085602 -0.006532 0.270269
  5   2.451511 0.204909 -0.003447 -0.117884 0.048562 0.398563
  6   7.247600 -0.397300 -0.109469 -0.016634 0.002238 0.459335
  7   -2.022252 -0.104661 3.136172 1.267345 -0.989541 -4.810541
  8   1.168026 -0.537438 -0.063437 -1.429461 0.638706 -0.971427
  9   6.790376 -0.619176 0.015206 -0.000102 -0.000151 -1.309890
 10   8.637599 0.544015 -0.090417 -2.482376 -0.004284 1.240656
 11   6.790465 -0.619039 0.017802 0.001702 -0.011651 -0.932055
 12   -2.022474 -0.104699 -2.873818 -2.037574 1.997772 -5.676082
 13   1.167898 -0.537463 0.063297 -0.995998 -0.780298 -0.213900
 14   7.002743 -0.617765 -0.183752 0.000172 0.000194 -1.938053
 15   8.209042 0.615527 -0.255885 1.848498 0.754641 -0.287884
 16   7.002735 -0.617911 -0.183641 0.012885 0.010751 -1.375284
 17   1.574674 0.609930 -0.000899 0.250870 -0.058994 -0.356017
 18   -0.602177 0.511412 -0.000006 0.000000 0.000000 0.000000
 19   3.673773 0.177020 1.119313 -0.000002 -0.000014 -0.174510
 20   3.673767 0.176993 -1.117566 0.000007 -0.000003 -0.174546
 21   3.942357 1.330634 1.627658 0.000002 -0.000011 -0.000026
 22   -0.246060 -0.011889 0.516521 -0.000011 0.000031 0.000025
 23   3.942374 1.330659 -1.631083 0.000019 0.000002 -0.000024
 24   -0.246150 -0.011872 -0.516511 -0.000005 -0.000006 0.000048
 25   4.941364 1.997338 1.629330 0.000018 -0.000001 -0.000024
 26   4.941382 1.997366 -1.629410 -0.000001 0.000005 -0.000024
 27   2.918368 1.615358 1.514501 -0.000019 -0.000022 -0.000050
 28   2.920798 1.614964 -1.501142 -0.000002 -0.000009 -0.000024
 29   8.824059 0.150544 0.091743 0.000006 -0.000231 -0.174534
 30   2.111085 -0.561179 1.784320 -0.000008 -0.000682 0.000024
 31   2.121290 -0.561289 -1.853599 0.000000 0.000000 -0.000002
 32   -0.810489 -0.093824 3.127092 0.262828 -3.097583 -0.334759
 33   14.298673 -0.408176 0.475484 0.003675 -0.003118 -0.522390
 34   15.835795 0.581398 0.242756 -0.001248 0.032043 0.122292
 35   -0.815868 -0.091229 -3.114430 -0.132801 3.034913 -0.011454
 36   14.294526 -0.410349 -0.463635 -0.002676 0.001869 -0.384687
 37   15.834409 0.579420 -0.284600 -0.034108 0.026558 0.304555
 38   1.139685 -3.453749 -2.823813 0.000000 0.000000 0.000001
 39   -4.457742 -1.054854 -0.746180 0.000000 0.000000 0.000000
 40   1.118101 -3.449769 3.237290 0.000000 0.000001 0.000000
 41   -4.433840 -1.059130 0.959566 -0.000001 0.000000 0.000000
 42   -0.657468 1.697302 -2.688614 0.000000 0.000002 0.000000
 43   -0.664068 1.698578 2.869377 0.000000 0.000002 0.000000
time 5
  0   -0.010486 -0.546892 1.863709 0.000000 0.000000 -1.571449
  1   -1.093036 0.000002 -0.326057 -1.570809 -1.570703 0.000022
  2   2.262337 0.113614 0.064702 -0.005988 0.026990 0.052158
  3   2.380047 0.353302 0.047440 -0.032417 -0.054738 0.057564
  4   2.033756 0.190472 -0.000128 -0.071143 -0.008869 0.270559
  5   2.451511 0.204909 -0.003447 -0.104721 0.047700 0.398761
  6   7.247600 -0.397300 -0.109469 -0.016634 0.002238 0.459335
  7   -2.022252 -0.104661 3.136172 1.267345 -0.989541 -4.810541
  8   1.168026 -0.537438 -0.063437 -1.427879 0.603486 -0.976677
  9   6.790376 -0.619176 0.015206 -0.000102 -0.000151 -1.185067
 10   8.637599 0.544015 -0.090417 -2.491183 0.020001 1.222136
 11   6.790465 -0.619039 0.017802 0.001118 -0.011594 -0.844735
 12   -2.022474 -0.104699 -2.873818 -2.057502 1.983376 -5.694752
 13   1.167898 -0.537463 0.063297 -0.998810 -0.797283 -0.162385
 14   7.002743 -0.617765 -0.183752 0.000172 0.000194 -1.944406
 15   8.209042 0.615527 -0.255885 1.915296 0.716357 -0.226785
 16   7.002735 -0.617911 -0.183641 0.012885 0.010751 -1.379865
 17   1.574674 0.609930 -0.000899 0.217480 -0.040036 -0.355203
 18   -0.602177 0.511412 -0.000006 0.000000 0.000000 0.000000
 19   3.673773 0.177020 1.119313 -0.000002 -0.000014 -0.174510
 20   3.673767 0.176993 -1.117566 0.000007 -0.000003 -0.174546
 21   3.942357 1.330634 1.627658 0.000002 -0.000011 -0.000026
 22   -0.246060 -0.011889 0.516521 -0.000011 0.000031 0.000025
 23   3.942374 1.330659 -1.631083 0.000019 0.000002 -0.000024
 24   -0.246150 -0.011872 -0.516511 -0.000005 -0.000006 0.000048
 25   4.941364 1.997338 1.629330 0.000018 -0.000001 -0.000024
 26   4.941382 1.997366 -1.629410 -0.000001 0.000005 -0.000024
 27   2.918368 1.615358 1.514501 -0.000019 -0.000022 -0.000050
 28   2.920798 1.614964 -1.501142 -0.000002 -0.000009 -0.000024
 29   8.824059 0.150544 0.091743 0.000006 -0.000231 -0.174534
 30   2.111085 -0.561179 1.784320 -0.000008 -0.000682 0.000024
 31   2.121290 -0.561289 -1.853599 0.000000 0.000000 -0.000002
 32   -0.810489 -0.093824 3.127092 0.262828 -3.097583 -0.334759
 33   14.298673 -0.408176 0.475484 0.003675 -0.003118 -0.522390
 34   15.835795 0.581398 0.242756 -0.001248 0.032043 0.122292
 35   -0.815868 -0.091229 -3.114430 -0.132801 3.034913 -0.011454
 36   14.294526 -0.410349 -0.463635 -0.002676 0.001869 -0.384687
 37   15.834409 0.579420 -0.284600 -0.034108 0.026558 0.304555
 38   1.139685 -3.453749 -2.823813 0.000000 0.000000 0.000001
 39   -4.457742 -1.054854 -0.746180 0.000000 0.000000 0.000000
 40   1.118101 -3.449769 3.237290 0.000000 0.000001 0.000000
 41   -4.433840 -1.059130 0.959566 -0.000001 0.000000 0.000000
 42   -0.657468 1.697302 -2.688614 0.000000 0.000002 0.000000
 43   -0.664068 1.698578 2.869377 0.000000 0.000002 0.000000
time 6
  0   -0.010486 -0.546892 1.863709 0.000000 0.000000 -1.571449
  1   -1.093036 0.000002 -0.326057 -1.570809 -1.570703 0.000022
  2   2.262337 0.113614 0.064702 -0.005988 0.026990 0.052158
  3   2.380047 0.353302 0.047440 -0.021286 -0.053539 0.057523
  4   2.033756 0.190472 -0.000128 -0.057053 -0.010966 0.270631
  5   2.451511 0.204909 -0.003447 -0.092123 0.047922 0.398662
  6   7.247600 -0.397300 -0.109469 -0.016634 0.002238 0.459335
  7   -2.022252 -0.104661 3.136172 1.267345 -0.989541 -4.810541
  8   1.168026 -0.537438 -0.063437 -1.420412 0.583360 -0.980410
  9   6.790376 -0.619176 0.015206 -0.000102 -0.000151 -1.058810
 10   8.637599 0.544015 -0.090417 -2.509764 0.049354 1.193994
 11   6.790465 -0.619039 0.017802 0.000651 -0.011452 -0.756262
 12   -2.022474 -0.104699 -2.873818 -2.075801 1.971157 -5.711123
 13   1.167898 -0.537463 0.063297 -1.016313 -0.806741 -0.099368
 14   7.002743 -0.617765 -0.183752 0.000172 0.000194 -1.952244
 15   8.209042 0.615527 -0.255885 1.977276 0.669448 -0.166407
 16   7.002735 -0.617911 -0.183641 0.012885 0.010751 -1.385274
 17   1.574674 0.609930 -0.000899 0.184903 -0.022878 -0.355425
 18   -0.602177 0.511412 -0.000006 0.000000 0.000000 0.000000
 19   3.673773 0.177020 1.119313 -0.000002 -0.000014 -0.174510
 20   3.673767 0.176993 -1.117566 0.000007 -0.000003 -0.174546
 21   3.942357 1.330634 1.627658 0.000002 -0.000011 -0.000026
 22   -0.246060 -0.011889 0.516521 -0.000011 0.000031 0.000025
 23   3.942374 1.330659 -1.631083 0.000019 0.000002 -0.000024
 24   -0.246150 -0.011872 -0.516511 -0.000005 -0.000006 0.000048
 25   4.941364 1.997338 1.629330 0.000018 -0.000001 -0.000024
 26   4.941382 1.997366 -1.629410 -0.000001 0.000005 -0.000024
 27   2.918368 1.615358 1.514501 -0.000019 -0.000022 -0.000050
 28   2.920798 1.614964 -1.501142 -0.000002 -0.000009 -0.000024
 29   8.824059 0.150544 0.091743 0.000006 -0.000231 -0.174534
 30   2.111085 -0.561179 1.784320 -0.000008 -0.000682 0.000024
 31   2.121290 -0.561289 -1.853599 0.000000 0.000000 -0.000002
 32   -0.810489 -0.093824 3.127092 0.262828 -3.097583 -0.334759
 33   14.298673 -0.408176 0.475484 0.003675 -0.003118 -0.522390
 34   15.835795 0.581398 0.242756 -0.001248 0.032043 0.122292
 35   -0.815868 -0.091229 -3.114430 -0.132801 3.034913 -0.011454
 36   14.294526 -0.410349 -0.463635 -0.002676 0.001869 -0.384687
 37   15.834409 0.579420 -0.284600 -0.034108 0.026558 0.304555
 38   1.139685 -3.453749 -2.823813 0.000000 0.000000 0.000001
 39   -4.457742 -1.054854 -0.746180 0.000000 0.000000 0.000000
 40   1.118101 -3.449769 3.237290 0.000000 0.000001 0.000000
 41   -4.433840 -1.059130 0.959566 -0.000001 0.000000 0.000000
 42   -0.657468 1.697302 -2.688614 0.000000 0.000002 0.000000
 43   -0.664068 1.698578 2.869377 0.000000 0.000002 0.000000
time 7
  0   -0.010486 -0.546892 1.863709 0.000000 0.000000 -1.571449
  1   -1.093036 0.000002 -0.326057 -1.570809 -1.570703 0.000022
  2   2.262337 0.113614 0.064702 -0.005988 0.026990 0.052158
  3   2.380047 0.353302 0.047440 -0.013141 -0.052700 0.057523
  4   2.033756 0.190472 -0.000128 -0.046836 -0.011901 0.270559
  5   2.451511 0.204909 -0.003447 -0.083342 0.050168 0.398142
  6   7.247600 -0.397300 -0.109469 -0.016634 0.002238 0.459335
  7   -2.022252 -0.104661 3.136172 1.267345 -0.989541 -4.810541
  8   1.168026 -0.537438 -0.063437 -1.409844 0.582807 -0.978449
  9   6.790376 -0.619176 0.015206 -0.000102 -0.000151 -0.967721
 10   8.637599 0.544015 -0.090417 -2.531428 0.074413 1.174099
 11   6.790465 -0.619039 0.017802 0.000242 -0.011395 -0.692589
 12   -2.022474 -0.104699 -2.873818 -2.091609 1.960999 -5.726059
 13   1.167898 -0.537463 0.063297 -1.038175 -0.807911 -0.043192
 14   7.002743 -0.617765 -0.183752 0.000172 0.000194 -1.960742
 15   8.209042 0.615527 -0.255885 2.028184 0.621480 -0.116553
 16   7.002735 -0.617911 -0.183641 0.012838 0.010864 -1.391235
 17   1.574674 0.609930 -0.000899 0.161099 -0.012748 -0.356756
 18   -0.602177 0.511412 -0.000006 0.000000 0.000000 0.000000
 19   3.673773 0.177020 1.119313 -0.000002 -0.000014 -0.174510
 20   3.673767 0.176993 -1.117566 0.000007 -0.000003 -0.174546
 21   3.942357 1.330634 1.627658 0.000002 -0.000011 -0.000026
 22   -0.246060 -0.011889 0.516521 -0.000011 0.000031 0.000025
 23   3.942374 1.330659 -1.631083 0.000019 0.000002 -0.000024
 24   -0.246150 -0.011872 -0.516511 -0.000005 -0.000006 0.000048
 25   4.941364 1.997338 1.629330 0.000018 -0.000001 -0.000024
 26   4.941382 1.997366 -1.629410 -0.000001 0.000005 -0.000024
 27   2.918368 1.615358 1.514501 -0.000019 -0.000022 -0.000050
 28   2.920798 1.614964 -1.501142 -0.000002 -0.000009 -0.000024
 29   8.824059 0.150544 0.091743 0.000006 -0.000231 -0.174534
 30   2.111085 -0.561179 1.784320 -0.000008 -0.000682 0.000024
 31   2.121290 -0.561289 -1.853599 0.000000 0.000000 -0.000002
 32   -0.810489 -0.093824 3.127092 0.262828 -3.097583 -0.334759
 33   14.298673 -0.408176 0.475484 0.003675 -0.003118 -0.522390
 34   15.835795 0.581398 0.242756 -0.001248 0.032043 0.122292
 35   -0.815868 -0.091229 -3.114430 -0.132801 3.034913 -0.011454
 36   14.294526 -0.410349 -0.463635 -0.002676 0.001869 -0.384687
 37   15.834409 0.579420 -0.284600 -0.034108 0.026558 0.304555
 38   1.139685 -3.453749 -2.823813 0.000000 0.000000 0.000001
 39   -4.457742 -1.054854 -0.746180 0.000000 0.000000 0.000000
 40   1.118101 -3.449769 3.237290 0.000000 0.000001 0.000000
 41   -4.433840 -1.059130 0.959566 -0.000001 0.000000 0.000000
 42   -0.657468 1.697302 -2.688614 0.000000 0.000002 0.000000
 43   -0.664068 1.698578 2.869377 0.000000 0.000002 0.000000
time 8
  0   -0.010486 -0.546892 1.863709 0.000000 0.000000 -1.571449
  1   -1.093036 0.000002 -0.326057 -1.570809 -1.570703 0.000022
  2   2.262337 0.113614 0.064702 -0.005988 0.026990 0.052158
  3   2.380047 0.353302 0.047440 -0.009556 -0.052413 0.057523
  4   2.033756 0.190472 -0.000128 -0.043166 -0.010091 0.270124
  5   2.451511 0.204909 -0.003447 -0.081836 0.058967 0.396160
  6   7.247600 -0.397300 -0.109469 -0.016634 0.002238 0.459335
  7   -2.022252 -0.104661 3.136172 1.267345 -0.989541 -4.810541
  8   1.168026 -0.537438 -0.063437 -1.403263 0.608517 -0.969719
  9   6.790376 -0.619176 0.015206 -0.000102 -0.000151 -0.942590
 10   8.637599 0.544015 -0.090417 -2.550890 0.085605 1.172580
 11   6.790465 -0.619039 0.017802 0.000184 -0.011395 -0.674998
 12   -2.022474 -0.104699 -2.873818 -2.105693 1.952640 -5.738984
 13   1.167898 -0.537463 0.063297 -1.052304 -0.797283 -0.012501
 14   7.002743 -0.617765 -0.183752 0.000172 0.000194 -1.969075
 15   8.209042 0.615527 -0.255885 2.063776 0.581986 -0.084139
 16   7.002735 -0.617911 -0.183641 0.012838 0.010864 -1.397030
 17   1.574674 0.609930 -0.000899 0.151676 -0.018476 -0.358123
 18   -0.602177 0.511412 -0.000006 0.000000 0.000000 0.000000
 19   3.673773 0.177020 1.119313 -0.000002 -0.000014 -0.174510
 20   3.673767 0.176993 -1.117566 0.000007 -0.000003 -0.174546
 21   3.942357 1.330634 1.627658 0.000002 -0.000011 -0.000026
 22   -0.246060 -0.011889 0.516521 -0.000011 0.000031 0.000025
 23   3.942374 1.330659 -1.631083 0.000019 0.000002 -0.000024
 24   -0.246150 -0.011872 -0.516511 -0.000005 -0.000006 0.000048
 25   4.941364 1.997338 1.629330 0.000018 -0.000001 -0.000024
 26   4.941382 1.997366 -1.629410 -0.000001 0.000005 -0.000024
 27   2.918368 1.615358 1.514501 -0.000019 -0.000022 -0.000050
 28   2.920798 1.614964 -1.501142 -0.000002 -0.000009 -0.000024
 29   8.824059 0.150544 0.091743 0.000006 -0.000231 -0.174534
 30   2.111085 -0.561179 1.784320 -0.000008 -0.000682 0.000024
 31   2.121290 -0.561289 -1.853599 0.000000 0.000000 -0.000002
 32   -0.810489 -0.093824 3.127092 0.262828 -3.097583 -0.334759
 33   14.298673 -0.408176 0.475484 0.003675 -0.003118 -0.522390
 34   15.835795 0.581398 0.242756 -0.001248 0.032043 0.122292
 35   -0.815868 -0.091229 -3.114430 -0.132801 3.034913 -0.011454
 36   14.294526 -0.410349 -0.463635 -0.002676 0.001869 -0.384687
 37   15.834409 0.579420 -0.284600 -0.034108 0.026558 0.304555
 38   1.139685 -3.453749 -2.823813 0.000000 0.000000 0.000001
 39   -4.457742 -1.054854 -0.746180 0.000000 0.000000 0.000000
 40   1.118101 -3.449769 3.237290 0.000000 0.000001 0.000000
 41   -4.433840 -1.059130 0.959566 -0.000001 0.000000 0.000000
 42   -0.657468 1.697302 -2.688614 0.000000 0.000002 0.000000
 43   -0.664068 1.698578 2.869377 0.000000 0.000002 0.000000
time 9
  0   -0.010486 -0.546892 1.863709 0.000000 0.000000 -1.571449
  1   -1.093036 0.000002 -0.326057 -1.570809 -1.570703 0.000022
  2   2.262337 0.113614 0.064702 -0.005988 0.026990 0.052158
  3   2.380047 0.353302 0.047440 -0.009016 -0.052365 0.057523
  4   2.033756 0.190472 -0.000128 -0.043793 -0.006555 0.269399
  5   2.451511 0.204909 -0.003447 -0.084797 0.071709 0.393312
  6   7.247600 -0.397300 -0.109469 -0.016634 0.002238 0.459335
  7   -2.022252 -0.104661 3.136172 1.267345 -0.989541 -4.810541
  8   1.168026 -0.537438 -0.063437 -1.400985 0.651033 -0.962823
  9   6.790376 -0.619176 0.015206 -0.000102 -0.000151 -0.988701
 10   8.637599 0.544015 -0.090417 -2.562603 0.076384 1.196743
 11   6.790465 -0.619039 0.017802 0.000359 -0.011452 -0.707353
 12   -2.022474 -0.104699 -2.873818 -2.111537 1.949302 -5.744633
 13   1.167898 -0.537463 0.063297 -1.060598 -0.775721 -0.001665
 14   7.002743 -0.617765 -0.183752 0.000172 0.000194 -1.980543
 15   8.209042 0.615527 -0.255885 2.078660 0.559515 -0.080110
 16   7.002735 -0.617911 -0.183641 0.012791 0.011033 -1.405033
 17   1.574674 0.609930 -0.000899 0.151676 -0.033954 -0.359454
 18   -0.602177 0.511412 -0.000006 0.000000 0.000000 0.000000
 19   3.673773 0.177020 1.119313 -0.000002 -0.000014 -0.174510
 20   3.673767 0.176993 -1.117566 0.000007 -0.000003 -0.174546
 21   3.942357 1.330634 1.627658 0.000002 -0.000011 -0.000026
 22   -0.246060 -0.011889 0.516521 -0.000011 0.000031 0.000025
 23   3.942374 1.330659 -1.631083 0.000019 0.000002 -0.000024
 24   -0.246150 -0.011872 -0.516511 -0.000005 -0.000006 0.000048
 25   4.941364 1.997338 1.629330 0.000018 -0.000001 -0.000024
 26   4.941382 1.997366 -1.629410 -0.000001 0.000005 -0.000024
 27   2.918368 1.615358 1.514501 -0.000019 -0.000022 -0.000050
 28   2.920798 1.614964 -1.501142 -0.000002 -0.000009 -0.000024
 29   8.824059 0.150544 0.091743 0.000006 -0.000231 -0.174534
 30   2.111085 -0.561179 1.784320 -0.000008 -0.000682 0.000024
 31   2.121290 -0.561289 -1.853599 0.000000 0.000000 -0.000002
 32   -0.810489 -0.093824 3.127092 0.262828 -3.097583 -0.334759
 33   14.298673 -0.408176 0.475484 0.003675 -0.003118 -0.522390
 34   15.835795 0.581398 0.242756 -0.001248 0.032043 0.122292
 35   -0.815868 -0.091229 -3.114430 -0.132801 3.034913 -0.011454
 36   14.294526 -0.410349 -0.463635 -0.002676 0.001869 -0.384687
 37   15.834409 0.579420 -0.284600 -0.034108 0.026558 0.304555
 38   1.139685 -3.453749 -2.823813 0.000000 0.000000 0.000001
 39   -4.457742 -1.054854 -0.746180 0.000000 0.000000 0.000000
 40   1.118101 -3.449769 3.237290 0.000000 0.000001 0.000000
 41   -4.433840 -1.059130 0.959566 -0.000001 0.000000 0.000000
 42   -0.657468 1.697302 -2.688614 0.000000 0.000002 0.000000
 43   -0.664068 1.698578 2.869377 0.000000 0.000002 0.000000
time 10
  0   -0.010486 -0.546892 1.863709 0.000000 0.000000 -1.571449
  1   -1.093036 0.000002 -0.326057 -1.570809 -1.570703 0.000022
  2   2.262337 0.113614 0.064702 -0.005988 0.026990 0.052158
  3   2.380047 0.353302 0.047440 -0.009346 -0.052389 0.057523
  4   2.033756 0.190472 -0.000128 -0.044807 -0.004734 0.269073
  5   2.451511 0.204909 -0.003447 -0.087142 0.078159 0.391826
  6   7.247600 -0.397300 -0.109469 -0.016634 0.002238 0.459335
  7   -2.022252 -0.104661 3.136172 1.267345 -0.989541 -4.810541
  8   1.168026 -0.537438 -0.063437 -1.389974 0.696970 -0.957003
  9   6.790376 -0.619176 0.015206 -0.000102 -0.000151 -1.077224
 10   8.637599 0.544015 -0.090417 -2.570441 0.059631 1.237690
 11   6.790465 -0.619039 0.017802 0.000680 -0.011509 -0.769239
 12   -2.022474 -0.104699 -2.873818 -2.108567 1.950840 -5.741665
 13   1.167898 -0.537463 0.063297 -1.069948 -0.758126 0.005115
 14   7.002743 -0.617765 -0.183752 0.000172 0.000194 -1.993084
 15   8.209042 0.615527 -0.255885 2.073554 0.550890 -0.096828
 16   7.002735 -0.617911 -0.183641 0.012791 0.011033 -1.413698
 17   1.574674 0.609930 -0.000899 0.153625 -0.042379 -0.362004
 18   -0.602177 0.511412 -0.000006 0.000000 0.000000 0.000000
 19   3.673773 0.177020 1.119313 -0.000002 -0.000014 -0.174510
 20   3.673767 0.176993 -1.117566 0.000007 -0.000003 -0.174546
 21   3.942357 1.330634 1.627658 0.000002 -0.000011 -0.000026
 22   -0.246060 -0.011889 0.516521 -0.000011 0.000031 0.000025
 23   3.942374 1.330659 -1.631083 0.000019 0.000002 -0.000024
 24   -0.246150 -0.011872 -0.516511 -0.000005 -0.000006 0.000048
 25   4.941364 1.997338 1.629330 0.000018 -0.000001 -0.000024
 26   4.941382 1.997366 -1.629410 -0.000001 0.000005 -0.000024
 27   2.918368 1.615358 1.514501 -0.000019 -0.000022 -0.000050
 28   2.920798 1.614964 -1.501142 -0.000002 -0.000009 -0.000024
 29   8.824059 0.150544 0.091743 0.000006 -0.000231 -0.174534
 30   2.111085 -0.561179 1.784320 -0.000008 -0.000682 0.000024
 31   2.121290 -0.561289 -1.853599 0.000000 0.000000 -0.000002
 32   -0.810489 -0.093824 3.127092 0.262828 -3.097583 -0.334759
 33   14.298673 -0.408176 0.475484 0.003675 -0.003118 -0.522390
 34   15.835795 0.581398 0.242756 -0.001248 0.032043 0.122292
 35   -0.815868 -0.091229 -3.114430 -0.132801 3.034913 -0.011454
 36   14.294526 -0.410349 -0.463635 -0.002676 0.001869 -0.384687
 37   15.834409 0.579420 -0.284600 -0.034108 0.026558 0.304555
 38   1.139685 -3.453749 -2.823813 0.000000 0.000000 0.000001
 39   -4.457742 -1.054854 -0.746180 0.000000 0.000000 0.000000
 40   1.118101 -3.449769 3.237290 0.000000 0.000001 0.000000
 41   -4.433840 -1.059130 0.959566 -0.000001 0.000000 0.000000
 42   -0.657468 1.697302 -2.688614 0.000000 0.000002 0.000000
 43   -0.664068 1.698578 2.869377 0.000000 0.000002 0.000000
time 11
  0   -0.010486 -0.546892 1.863709 0.000000 0.000000 -1.571449
  1   -1.093036 0.000002 -0.326057 -1.570809 -1.570703 0.000022
  2   2.262337 0.113614 0.064702 -0.005988 0.026990 0.052158
  3   2.380047 0.353302 0.047440 -0.009511 -0.052413 0.057523
  4   2.033756 0.190472 -0.000128 -0.044973 -0.005033 0.269109
  5   2.451511 0.204909 -0.003447 -0.086851 0.076723 0.392099
  6   7.247600 -0.397300 -0.109469 -0.016634 0.002238 0.459335
  7   -2.022252 -0.104661 3.136172 1.267345 -0.989541 -4.810541
  8   1.168026 -0.537438 -0.063437 -1.311000 0.861196 -0.949222
  9   6.790376 -0.619176 0.015206 -0.000102 -0.000151 -1.307400
 10   8.637599 0.544015 -0.090417 -2.583474 0.065966 1.286233
 11   6.790465 -0.619039 0.017802 0.001702 -0.011651 -0.930325
 12   -2.022474 -0.104699 -2.873818 -2.105693 1.952640 -5.738984
 13   1.167898 -0.537463 0.063297 -1.075641 -0.755278 0.009413
 14   7.002743 -0.617765 -0.183752 0.000115 0.000194 -1.998612
 15   8.209042 0.615527 -0.255885 2.053997 0.545972 -0.112524
 16   7.002735 -0.617911 -0.183641 0.012791 0.011146 -1.417727
 17   1.574674 0.609930 -0.000899 0.154153 -0.039965 -0.365442
 18   -0.602177 0.511412 -0.000006 0.000000 0.000000 0.000000
 19   3.673773 0.177020 1.119313 -0.000002 -0.000014 -0.174510
 20   3.673767 0.176993 -1.117566 0.000007 -0.000003 -0.174546
 21   3.942357 1.330634 1.627658 0.000002 -0.000011 -0.000026
 22   -0.246060 -0.011889 0.516521 -0.000011 0.000031 0.000025
 23   3.942374 1.330659 -1.631083 0.000019 0.000002 -0.000024
 24   -0.246150 -0.011872 -0.516511 -0.000005 -0.000006 0.000048
 25   4.941364 1.997338 1.629330 0.000018 -0.000001 -0.000024
 26   4.941382 1.997366 -1.629410 -0.000001 0.000005 -0.000024
 27   2.918368 1.615358 1.514501 -0.000019 -0.000022 -0.000050
 28   2.920798 1.614964 -1.501142 -0.000002 -0.000009 -0.000024
 29   8.824059 0.150544 0.091743 0.000006 -0.000231 -0.174534
 30   2.111085 -0.561179 1.784320 -0.000008 -0.000682 0.000024
 31   2.121290 -0.561289 -1.853599 0.000000 0.000000 -0.000002
 32   -0.810489 -0.093824 3.127092 0.262828 -3.097583 -0.334759
 33   14.298673 -0.408176 0.475484 0.003675 -0.003118 -0.522390
 34   15.835795 0.581398 0.242756 -0.001248 0.032043 0.122292
 35   -0.815868 -0.091229 -3.114430 -0.132801 3.034913 -0.011454
 36   14.294526 -0.410349 -0.463635 -0.002676 0.001869 -0.384687
 37   15.834409 0.579420 -0.284600 -0.034108 0.026558 0.304555
 38   1.139685 -3.453749 -2.823813 0.000000 0.000000 0.000001
 39   -4.457742 -1.054854 -0.746180 0.000000 0.000000 0.000000
 40   1.118101 -3.449769 3.237290 0.000000 0.000001 0.000000
 41   -4.433840 -1.059130 0.959566 -0.000001 0.000000 0.000000
 42   -0.657468 1.697302 -2.688614 0.000000 0.000002 0.000000
 43   -0.664068 1.698578 2.869377 0.000000 0.000002 0.000000
time 12
  0   -0.010486 -0.546892 1.863709 0.000000 0.000000 -1.571449
  1   -1.093036 0.000002 -0.326057 -1.570809 -1.570703 0.000022
  2   2.262337 0.113614 0.064702 -0.005988 0.026990 0.052158
  3   2.380047 0.353302 0.047440 -0.010051 -0.052461 0.057523
  4   2.033756 0.190472 -0.000128 -0.045250 -0.006004 0.269254
  5   2.451511 0.204909 -0.003447 -0.086406 0.072976 0.392990
  6   7.247600 -0.397300 -0.109469 -0.016634 0.002238 0.459335
  7   -2.022252 -0.104661 3.136172 1.267345 -0.989541 -4.810541
  8   1.168026 -0.537438 -0.063437 -1.223293 1.008466 -0.921957
  9   6.790376 -0.619176 0.015206 -0.000102 -0.000151 -1.463995
 10   8.637599 0.544015 -0.090417 -2.597565 0.062728 1.247818
 11   6.790465 -0.619039 0.017802 0.002315 -0.011708 -1.039965
 12   -2.022474 -0.104699 -2.873818 -2.105693 1.952640 -5.738984
 13   1.167898 -0.537463 0.063297 -1.064746 -0.767890 -0.003360
 14   7.002743 -0.617765 -0.183752 0.000115 0.000194 -1.986071
 15   8.209042 0.615527 -0.255885 2.001580 0.537044 -0.131708
 16   7.002735 -0.617911 -0.183641 0.012791 0.011033 -1.408841
 17   1.574674 0.609930 -0.000899 0.155291 -0.035019 -0.369138
 18   -0.602177 0.511412 -0.000006 0.000000 0.000000 0.000000
 19   3.673773 0.177020 1.119313 -0.000002 -0.000014 -0.174510
 20   3.673767 0.176993 -1.117566 0.000007 -0.000003 -0.174546
 21   3.942357 1.330634 1.627658 0.000002 -0.000011 -0.000026
 22   -0.246060 -0.011889 0.516521 -0.000011 0.000031 0.000025
 23   3.942374 1.330659 -1.631083 0.000019 0.000002 -0.000024
 24   -0.246150 -0.011872 -0.516511 -0.000005 -0.000006 0.000048
 25   4.941364 1.997338 1.629330 0.000018 -0.000001 -0.000024
 26   4.941382 1.997366 -1.629410 -0.000001 0.000005 -0.000024
 27   2.918368 1.615358 1.514501 -0.000019 -0.000022 -0.000050
 28   2.920798 1.614964 -1.501142 -0.000002 -0.000009 -0.000024
 29   8.824059 0.150544 0.091743 0.000006 -0.000231 -0.174534
 30   2.111085 -0.561179 1.784320 -0.000008 -0.000682 0.000024
 31   2.121290 -0.561289 -1.853599 0.000000 0.000000 -0.000002
 32   -0.810489 -0.093824 3.127092 0.262828 -3.097583 -0.334759
 33   14.298673 -0.408176 0.475484 0.003675 -0.003118 -0.522390
 34   15.835795 0.581398 0.242756 -0.001248 0.032043 0.122292
 35   -0.815868 -0.091229 -3.114430 -0.132801 3.034913 -0.011454
 36   14.294526 -0.410349 -0.463635 -0.002676 0.001869 -0.384687
 37   15.834409 0.579420 -0.284600 -0.034108 0.026558 0.304555
 38   1.139685 -3.453749 -2.823813 0.000000 0.000000 0.000001
 39   -4.457742 -1.054854 -0.746180 0.000000 0.000000 0.000000
 40   1.118101 -3.449769 3.237290 0.000000 0.000001 0.000000
 41   -4.433840 -1.059130 0.959566 -0.000001 0.000000 0.000000
 42   -0.657468 1.697302 -2.688614 0.000000 0.000002 0.000000
 43   -0.664068 1.698578 2.869377 0.000000 0.000002 0.000000
time 13
  0   -0.010486 -0.546892 1.863709 0.000000 0.000000 -1.571449
  1   -1.093036 0.000002 -0.326057 -1.570809 -1.570703 0.000022
  2   2.262337 0.113614 0.064702 -0.005988 0.026990 0.052158
  3   2.380047 0.353302 0.047440 -0.010771 -0.052497 0.057523
  4   2.033756 0.190472 -0.000128 -0.045600 -0.007358 0.269689
  5   2.451511 0.204909 -0.003447 -0.085687 0.067701 0.394154
  6   7.247600 -0.397300 -0.109469 -0.016634 0.002238 0.459335
  7   -2.022252 -0.104661 3.136172 1.267345 -0.989541 -4.810541
  8   1.168026 -0.537438 -0.063437 -1.258098 0.881372 -0.866351
  9   6.790376 -0.619176 0.015206 -0.000102 -0.000151 -1.355397
 10   8.637599 0.544015 -0.090417 -2.619581 0.112635 1.181840
 11   6.790465 -0.619039 0.017802 0.001848 -0.011651 -0.964180
 12   -2.022474 -0.104699 -2.873818 -2.105693 1.952640 -5.739080
 13   1.167898 -0.537463 0.063297 -1.049984 -0.784468 -0.020431
 14   7.002743 -0.617765 -0.183752 0.000172 0.000194 -1.969075
 15   8.209042 0.615527 -0.255885 1.937370 0.548922 -0.125453
 16   7.002735 -0.617911 -0.183641 0.012838 0.010864 -1.397030
 17   1.574674 0.609930 -0.000899 0.156794 -0.028203 -0.373240
 18   -0.602177 0.511412 -0.000006 0.000000 0.000000 0.000000
 19   3.673773 0.177020 1.119313 -0.000002 -0.000014 -0.174510
 20   3.673767 0.176993 -1.117566 0.000007 -0.000003 -0.174546
 21   3.942357 1.330634 1.627658 0.000002 -0.000011 -0.000026
 22   -0.246060 -0.011889 0.516521 -0.000011 0.000031 0.000025
 23   3.942374 1.330659 -1.631083 0.000019 0.000002 -0.000024
 24   -0.246150 -0.011872 -0.516511 -0.000005 -0.000006 0.000048
 25   4.941364 1.997338 1.629330 0.000018 -0.000001 -0.000024
 26   4.941382 1.997366 -1.629410 -0.000001 0.000005 -0.000024
 27   2.918368 1.615358 1.514501 -0.000019 -0.000022 -0.000050
 28   2.920798 1.614964 -1.501142 -0.000002 -0.000009 -0.000024
 29   8.824059 0.150544 0.091743 0.000006 -0.000231 -0.174534
 30   2.111085 -0.561179 1.784320 -0.000008 -0.000682 0.000024
 31   2.121290 -0.561289 -1.853599 0.000000 0.000000 -0.000002
 32   -0.810489 -0.093824 3.127092 0.262828 -3.097583 -0.334759
 33   14.298673 -0.408176 0.475484 0.003675 -0.003118 -0.522390
 34   15.835795 0.581398 0.242756 -0.001248 0.032043 0.122292
 35   -0.815868 -0.091229 -3.114430 -0.132801 3.034913 -0.011454
 36   14.294526 -0.410349 -0.463635 -0.002676 0.001869 -0.384687
 37   15.834409 0.579420 -0.284600 -0.034108 0.026558 0.304555
 38   1.139685 -3.453749 -2.823813 0.000000 0.000000 0.000001
 39   -4.457742 -1.054854 -0.746180 0.000000 0.000000 0.000000
 40   1.118101 -3.449769 3.237290 0.000000 0.000001 0.000000
 41   -4.433840 -1.059130 0.959566 -0.000001 0.000000 0.000000
 42   -0.657468 1.697302 -2.688614 0.000000 0.000002 0.000000
 43   -0.664068 1.698578 2.869377 0.000000 0.000002 0.000000
time 14
  0   -0.010486 -0.546892 1.863709 0.000000 0.000000 -1.571449
  1   -1.093036 0.000002 -0.326057 -1.570809 -1.570703 0.000022
  2   2.262337 0.113614 0.064702 -0.005988 0.026990 0.052158
  3   2.380047 0.353302 0.047440 -0.011611 -0.052557 0.057523
  4   2.033756 0.190472 -0.000128 -0.046043 -0.008916 0.269979
  5   2.451511 0.204909 -0.003447 -0.084900 0.061617 0.395591
  6   7.247600 -0.397300 -0.109469 -0.016634 0.002238 0.459335
  7   -2.022252 -0.104661 3.136172 1.267345 -0.989541 -4.810541
  8   1.168026 -0.537438 -0.063437 -1.363776 0.691435 -0.918541
  9   6.790376 -0.619176 0.015206 -0.000102 -0.000151 -1.004700
 10   8.637599 0.544015 -0.090417 -2.631470 0.208225 0.987234
 11   6.790465 -0.619039 0.017802 0.000388 -0.011452 -0.718542
 12   -2.022474 -0.104699 -2.873818 -2.105693 1.952640 -5.738984
 13   1.167898 -0.537463 0.063297 -1.049492 -0.793062 -0.022610
 14   7.002743 -0.617765 -0.183752 0.000172 0.000194 -1.966600
 15   8.209042 0.615527 -0.255885 1.900125 0.617773 -0.043366
 16   7.002735 -0.617911 -0.183641 0.012838 0.010864 -1.395319
 17   1.574674 0.609930 -0.000899 0.158459 -0.020535 -0.377195
 18   -0.602177 0.511412 -0.000006 0.000000 0.000000 0.000000
 19   3.673773 0.177020 1.119313 -0.000002 -0.000014 -0.174510
 20   3.673767 0.176993 -1.117566 0.000007 -0.000003 -0.174546
 21   3.942357 1.330634 1.627658 0.000002 -0.000011 -0.000026
 22   -0.246060 -0.011889 0.516521 -0.000011 0.000031 0.000025
 23   3.942374 1.330659 -1.631083 0.000019 0.000002 -0.000024
 24   -0.246150 -0.011872 -0.516511 -0.000005 -0.000006 0.000048
 25   4.941364 1.997338 1.629330 0.000018 -0.000001 -0.000024
 26   4.941382 1.997366 -1.629410 -0.000001 0.000005 -0.000024
 27   2.918368 1.615358 1.514501 -0.000019 -0.000022 -0.000050
 28   2.920798 1.614964 -1.501142 -0.000002 -0.000009 -0.000024
 29   8.824059 0.150544 0.091743 0.000006 -0.000231 -0.174534
 30   2.111085 -0.561179 1.784320 -0.000008 -0.000682 0.000024
 31   2.121290 -0.561289 -1.853599 0.000000 0.000000 -0.000002
 32   -0.810489 -0.093824 3.127092 0.262828 -3.097583 -0.334759
 33   14.298673 -0.408176 0.475484 0.003675 -0.003118 -0.522390
 34   15.835795 0.581398 0.242756 -0.001248 0.032043 0.122292
 35   -0.815868 -0.091229 -3.114430 -0.132801 3.034913 -0.011454
 36   14.294526 -0.410349 -0.463635 -0.002676 0.001869 -0.384687
 37   15.834409 0.579420 -0.284600 -0.034108 0.026558 0.304555
 38   1.139685 -3.453749 -2.823813 0.000000 0.000000 0.000001
 39   -4.457742 -1.054854 -0.746180 0.000000 0.000000 0.000000
 40   1.118101 -3.449769 3.237290 0.000000 0.000001 0.000000
 41   -4.433840 -1.059130 0.959566 -0.000001 0.000000 0.000000
 42   -0.657468 1.697302 -2.688614 0.000000 0.000002 0.000000
 43   -0.664068 1.698578 2.869377 0.000000 0.000002 0.000000
time 15
  0   -0.010486 -0.546892 1.863709 0.000000 0.000000 -1.571449
  1   -1.093036 0.000002 -0.326057 -1.570809 -1.570703 0.000022
  2   2.262337 0.113614 0.064702 -0.005988 0.026990 0.052158
  3   2.380047 0.353302 0.047440 -0.012451 -0.052628 0.057523
  4   2.033756 0.190472 -0.000128 -0.046430 -0.010474 0.270269
  5   2.451511 0.204909 -0.003447 -0.084078 0.055507 0.396928
  6   7.247600 -0.397300 -0.109469 -0.016634 0.002238 0.459335
  7   -2.022252 -0.104661 3.136172 1.267345 -0.989541 -4.810541
  8   1.168026 -0.537438 -0.063437 -1.414780 0.600014 -1.001792
  9   6.790376 -0.619176 0.015206 -0.000102 -0.000151 -0.714905
 10   8.637599 0.544015 -0.090417 -2.655071 0.313670 0.753345
 11   6.790465 -0.619039 0.017802 -0.000692 -0.011253 -0.515584
 12   -2.022474 -0.104699 -2.873818 -2.105693 1.952640 -5.738984
 13   1.167898 -0.537463 0.063297 -1.052796 -0.799113 -0.020249
 14   7.002743 -0.617765 -0.183752 0.000172 0.000194 -1.967755
 15   8.209042 0.615527 -0.255885 1.873449 0.694870 0.057003
 16   7.002735 -0.617911 -0.183641 0.012838 0.010864 -1.396147
 17   1.574674 0.609930 -0.000899 0.160003 -0.012890 -0.380965
 18   -0.602177 0.511412 -0.000006 0.000000 0.000000 0.000000
 19   3.673773 0.177020 1.119313 -0.000002 -0.000014 -0.174510
 20   3.673767 0.176993 -1.117566 0.000007 -0.000003 -0.174546
 21   3.942357 1.330634 1.627658 0.000002 -0.000011 -0.000026
 22   -0.246060 -0.011889 0.516521 -0.000011 0.000031 0.000025
 23   3.942374 1.330659 -1.631083 0.000019 0.000002 -0.000024
 24   -0.246150 -0.011872 -0.516511 -0.000005 -0.000006 0.000048
 25   4.941364 1.997338 1.629330 0.000018 -0.000001 -0.000024
 26   4.941382 1.997366 -1.629410 -0.000001 0.000005 -0.000024
 27   2.918368 1.615358 1.514501 -0.000019 -0.000022 -0.000050
 28   2.920798 1.614964 -1.501142 -0.000002 -0.000009 -0.000024
 29   8.824059 0.150544 0.091743 0.000006 -0.000231 -0.174534
 30   2.111085 -0.561179 1.784320 -0.000008 -0.000682 0.000024
 31   2.121290 -0.561289 -1.853599 0.000000 0.000000 -0.000002
 32   -0.810489 -0.093824 3.127092 0.262828 -3.097583 -0.334759
 33   14.298673 -0.408176 0.475484 0.003675 -0.003118 -0.522390
 34   15.835795 0.581398 0.242756 -0.001248 0.032043 0.122292
 35   -0.815868 -0.091229 -3.114430 -0.132801 3.034913 -0.011454
 36   14.294526 -0.410349 -0.463635 -0.002676 0.001869 -0.384687
 37   15.834409 0.579420 -0.284600 -0.034108 0.026558 0.304555
 38   1.139685 -3.453749 -2.823813 0.000000 0.000000 0.000001
 39   -4.457742 -1.054854 -0.746180 0.000000 0.000000 0.000000
 40   1.118101 -3.449769 3.237290 0.000000 0.000001 0.000000
 41   -4.433840 -1.059130 0.959566 -0.000001 0.000000 0.000000
 42   -0.657468 1.697302 -2.688614 0.000000 0.000002 0.000000
 43   -0.664068 1.698578 2.869377 0.000000 0.000002 0.000000
time 16
  0   -0.010486 -0.546892 1.863709 0.000000 0.000000 -1.571449
  1   -1.093036 0.000002 -0.326057 -1.570809 -1.570703 0.000022
  2   2.262337 0.113614 0.064702 -0.005988 0.026990 0.052158
  3   2.380047 0.353302 0.047440 -0.013141 -0.052700 0.057523
  4   2.033756 0.190472 -0.000128 -0.046836 -0.011901 0.270559
  5   2.451511 0.204909 -0.003447 -0.083342 0.050168 0.398142
  6   7.247600 -0.397300 -0.109469 -0.016634 0.002238 0.459335
  7   -2.022252 -0.104661 3.136172 1.267345 -0.989541 -4.810541
  8   1.168026 -0.537438 -0.063437 -1.407376 0.598203 -0.996098
  9   6.790376 -0.619176 0.015206 -0.000102 -0.000151 -0.648418
 10   8.637599 0.544015 -0.090417 -2.711785 0.365125 0.639258
 11   6.790465 -0.619039 0.017802 -0.000984 -0.011196 -0.469041
 12   -2.022474 -0.104699 -2.873818 -2.105693 1.952640 -5.738984
 13   1.167898 -0.537463 0.063297 -1.056100 -0.804402 -0.018191
 14   7.002743 -0.617765 -0.183752 0.000172 0.000194 -1.969075
 15   8.209042 0.615527 -0.255885 1.826999 0.700998 0.099520
 16   7.002735 -0.617911 -0.183641 0.012838 0.010864 -1.397030
 17   1.574674 0.609930 -0.000899 0.161465 -0.006216 -0.384440
 18   -0.602177 0.511412 -0.000006 0.000000 0.000000 0.000000
 19   3.673773 0.177020 1.119313 -0.000002 -0.000014 -0.174510
 20   3.673767 0.176993 -1.117566 0.000007 -0.000003 -0.174546
 21   3.942357 1.330634 1.627658 0.000002 -0.000011 -0.000026
 22   -0.246060 -0.011889 0.516521 -0.000011 0.000031 0.000025
 23   3.942374 1.330659 -1.631083 0.000019 0.000002 -0.000024
 24   -0.246150 -0.011872 -0.516511 -0.000005 -0.000006 0.000048
 25   4.941364 1.997338 1.629330 0.000018 -0.000001 -0.000024
 26   4.941382 1.997366 -1.629410 -0.000001 0.000005 -0.000024
 27   2.918368 1.615358 1.514501 -0.000019 -0.000022 -0.000050
 28   2.920798 1.614964 -1.501142 -0.000002 -0.000009 -0.000024
 29   8.824059 0.150544 0.091743 0.000006 -0.000231 -0.174534
 30   2.111085 -0.561179 1.784320 -0.000008 -0.000682 0.000024
 31   2.121290 -0.561289 -1.853599 0.000000 0.000000 -0.000002
 32   -0.810489 -0.093824 3.127092 0.262828 -3.097583 -0.334759
 33   14.298673 -0.408176 0.475484 0.003675 -0.003118 -0.522390
 34   15.835795 0.581398 0.242756 -0.001248 0.032043 0.122292
 35   -0.815868 -0.091229 -3.114430 -0.132801 3.034913 -0.011454
 36   14.294526 -0.410349 -0.463635 -0.002676 0.001869 -0.384687
 37   15.834409 0.579420 -0.284600 -0.034108 0.026558 0.304555
 38   1.139685 -3.453749 -2.823813 0.000000 0.000000 0.000001
 39   -4.457742 -1.054854 -0.746180 0.000000 0.000000 0.000000
 40   1.118101 -3.449769 3.237290 0.000000 0.000001 0.000000
 41   -4.433840 -1.059130 0.959566 -0.000001 0.000000 0.000000
 42   -0.657468 1.697302 -2.688614 0.000000 0.000002 0.000000
 43   -0.664068 1.698578 2.869377 0.000000 0.000002 0.000000
end
