version 1
nodes
  0 "Bip01" -1
  1 "Bip01 Pelvis" 0
  2 "Bip01 Spine" 1
  3 "Bip01 Spine1" 2
  4 "Bip01 Spine2" 3
  5 "Bip01 Spine3" 4
  6 "Bip01 Neck" 5
  7 "Bip01 L Arm" 6
  8 "Bip01 L Arm1" 7
  9 "Bip01 L Arm2" 8
 10 "Bip01 L Hand" 9
 11 "Bip06 L elbow2-smooth" 8
 12 "Bip01 R Arm" 6
 13 "Bip01 R Arm1" 12
 14 "Bip01 R Arm2" 13
 15 "Bip01 R Hand" 14
 16 "Bip06 R elbow2-smooth" 13
 17 "Bip01 Head" 6
 18 "Bip06 Head_helper" 17
 19 "Bip06 Head_eyes_l" 18
 20 "Bip06 Head_eyes_r" 18
 21 "Bip06 Head_blink_l" 18
 22 "Bip06 Head_blink_smooth_l1" 21
 23 "Bip06 Head_blink_r" 18
 24 "Bip06 Head_blink_smooth_r1" 23
 25 "Bip06 Head_L_eyebrow" 18
 26 "Bip06 Head_R_eyebrow" 18
 27 "Bip06 Head_blink_l_lid" 18
 28 "Bip06 Head_blink_r_lid" 18
 29 "Bip06 bunny" 18
 30 "Bip06 bunnyL" 29
 31 "Bip06 bunnyR" 29
 32 "Bip01 L Leg" 1
 33 "Bip01 L Leg1" 32
 34 "Bip01 L Foot" 33
 35 "Bip01 R Leg" 1
 36 "Bip01 R Leg1" 35
 37 "Bip01 R Foot" 36
 38 "Bip03 HairR1" 17
 39 "Bip03 HairR2" 38
 40 "Bip03 HairL1" 17
 41 "Bip03 HairL2" 40
 42 "Bip03 swingR" 17
 43 "Bip03 swingL" 17
end
skeleton
time 0
  0   0.001233 -0.019532 2.285597 0.000000 0.000000 -1.571829
  1   -1.093036 0.000002 -0.326057 -1.570704 -1.570379 -0.000123
  2   2.262337 0.113614 0.064702 -0.000052 0.000061 -0.156091
  3   2.380047 0.353302 0.047440 -0.156701 -0.008022 -0.051606
  4   2.033756 0.190472 -0.000128 -0.060889 -0.001893 -0.035003
  5   2.451511 0.204909 -0.003447 -0.087142 -0.001258 -0.017472
  6   7.247600 -0.397300 -0.109469 0.000001 0.000009 -0.122015
  7   -2.022252 -0.104661 3.136172 1.345373 -0.832899 -4.290448
  8   1.168026 -0.537438 -0.063437 -1.213105 -0.165015 -0.647913
  9   6.790376 -0.619176 0.015206 -0.000213 -0.000352 -0.415148
 10   8.637599 0.544015 -0.090417 -0.154029 -0.203700 0.119175
 11   6.790465 -0.619039 0.017802 -0.001918 -0.011054 -0.305878
 12   -2.022474 -0.104699 -2.873818 0.298873 1.361683 -2.728405
 13   1.167898 -0.537463 0.063297 0.499791 -1.270521 -0.921309
 14   7.002743 -0.617765 -0.183752 0.000229 0.000250 -1.630803
 15   8.209042 0.615527 -0.255885 1.570090 -0.000063 -0.069646
 16   7.002735 -0.617911 -0.183641 0.013497 0.009003 -1.160198
 17   1.574674 0.609930 -0.000899 0.304164 0.020433 0.125844
 18   -0.602177 0.511412 -0.000006 0.000000 0.000000 0.000000
 19   3.673773 0.177020 1.119313 -0.000002 -0.000014 -0.174510
 20   3.673767 0.176993 -1.117566 0.000007 -0.000003 -0.174546
 21   3.942357 1.330634 1.627658 0.000002 -0.000011 -0.000026
 22   -0.246060 -0.011889 0.516521 -0.000011 0.000031 0.000025
 23   3.942374 1.330659 -1.631083 0.000019 0.000002 -0.000024
 24   -0.246150 -0.011872 -0.516511 -0.000005 -0.000006 0.000048
 25   4.941364 1.997338 1.629330 0.000018 -0.000001 -0.000024
 26   4.941382 1.997366 -1.629410 -0.000001 0.000005 -0.000024
 27   2.918368 1.615358 1.514501 -0.000019 -0.000022 -0.000050
 28   2.920798 1.614964 -1.501142 -0.000002 -0.000009 -0.000024
 29   8.824059 0.150544 0.091743 0.000006 -0.000231 -0.174534
 30   2.111085 -0.561179 1.784320 -0.000008 -0.000682 0.000024
 31   2.121290 -0.561289 -1.853599 0.000000 0.000000 -0.000002
 32   -0.810489 -0.093824 3.127092 0.338887 -3.077718 -0.167351
 33   14.298673 -0.408176 0.475484 0.013203 -0.091857 -0.496506
 34   15.835795 0.581398 0.242756 -0.532523 -0.064474 0.362871
 35   -0.815868 -0.091229 -3.114430 -0.002100 2.881638 -0.314968
 36   14.294526 -0.410349 -0.463635 -0.021444 0.095325 -0.575403
 37   15.834409 0.579420 -0.284600 -0.051525 0.043093 0.201376
 38   1.139685 -3.453749 -2.823813 0.000000 0.000000 0.000001
 39   -4.457742 -1.054854 -0.746180 0.000000 0.000000 0.000000
 40   1.118101 -3.449769 3.237290 0.000000 0.000001 0.000000
 41   -4.433840 -1.059130 0.959566 -0.000001 0.000000 0.000000
 42   -0.657468 1.697302 -2.688614 0.000000 0.000002 0.000000
 43   -0.664068 1.698578 2.869377 0.000000 0.000002 0.000000
time 1
  0   0.001233 -0.019532 2.285597 0.000000 0.000000 -1.571829
  1   -1.093036 0.000002 -0.326057 -1.570704 -1.570379 -0.000123
  2   2.262337 0.113614 0.064702 -0.000052 0.000061 -0.156091
  3   2.380047 0.353302 0.047440 -0.156701 -0.008022 -0.051606
  4   2.033756 0.190472 -0.000128 -0.060889 -0.001893 -0.035003
  5   2.451511 0.204909 -0.003447 -0.087142 -0.000801 -0.010785
  6   7.247600 -0.397300 -0.109469 0.000001 0.000009 -0.122015
  7   -2.022252 -0.104661 3.136172 1.338088 -0.831371 -4.280775
  8   1.168026 -0.537438 -0.063437 -1.210258 -0.177040 -0.649621
  9   6.790376 -0.619176 0.015206 -0.000213 -0.000352 -0.415148
 10   8.637599 0.544015 -0.090417 -0.154029 -0.203700 0.119175
 11   6.790465 -0.619039 0.017802 -0.001918 -0.011054 -0.305878
 12   -2.022474 -0.104699 -2.873818 0.293891 1.358201 -2.733575
 13   1.167898 -0.537463 0.063297 0.504290 -1.263198 -0.927060
 14   7.002743 -0.617765 -0.183752 0.000229 0.000250 -1.630803
 15   8.209042 0.615527 -0.255885 1.570090 -0.000063 -0.069646
 16   7.002735 -0.617911 -0.183641 0.013497 0.009003 -1.160198
 17   1.574674 0.609930 -0.000899 0.304164 0.020433 0.119191
 18   -0.602177 0.511412 -0.000006 0.000000 0.000000 0.000000
 19   3.673773 0.177020 1.119313 -0.000002 -0.000014 -0.174510
 20   3.673767 0.176993 -1.117566 0.000007 -0.000003 -0.174546
 21   3.942357 1.330634 1.627658 0.000002 -0.000011 -0.000026
 22   -0.246060 -0.011889 0.516521 -0.000011 0.000031 0.000025
 23   3.942374 1.330659 -1.631083 0.000019 0.000002 -0.000024
 24   -0.246150 -0.011872 -0.516511 -0.000005 -0.000006 0.000048
 25   4.941364 1.997338 1.629330 0.000018 -0.000001 -0.000024
 26   4.941382 1.997366 -1.629410 -0.000001 0.000005 -0.000024
 27   2.918368 1.615358 1.514501 -0.000019 -0.000022 -0.000050
 28   2.920798 1.614964 -1.501142 -0.000002 -0.000009 -0.000024
 29   8.824059 0.150544 0.091743 0.000006 -0.000231 -0.174534
 30   2.111085 -0.561179 1.784320 -0.000008 -0.000682 0.000024
 31   2.121290 -0.561289 -1.853599 0.000000 0.000000 -0.000002
 32   -0.810489 -0.093824 3.127092 0.338887 -3.077718 -0.167351
 33   14.298673 -0.408176 0.475484 0.013203 -0.091857 -0.496506
 34   15.835795 0.581398 0.242756 -0.532523 -0.064474 0.362871
 35   -0.815868 -0.091229 -3.114430 -0.002100 2.881638 -0.314968
 36   14.294526 -0.410349 -0.463635 -0.021444 0.095325 -0.575403
 37   15.834409 0.579420 -0.284600 -0.051525 0.043093 0.201376
 38   1.139685 -3.453749 -2.823813 0.000000 0.000000 0.000001
 39   -4.457742 -1.054854 -0.746180 0.000000 0.000000 0.000000
 40   1.118101 -3.449769 3.237290 0.000000 0.000001 0.000000
 41   -4.433840 -1.059130 0.959566 -0.000001 0.000000 0.000000
 42   -0.657468 1.697302 -2.688614 0.000000 0.000002 0.000000
 43   -0.664068 1.698578 2.869377 0.000000 0.000002 0.000000
time 2
  0   0.001233 -0.019532 2.285597 0.000000 0.000000 -1.571829
  1   -1.093036 0.000002 -0.326057 -1.570704 -1.570379 -0.000123
  2   2.262337 0.113614 0.064702 -0.000052 0.000061 -0.156091
  3   2.380047 0.353302 0.047440 -0.156701 -0.008022 -0.051606
  4   2.033756 0.190472 -0.000128 -0.060889 -0.001893 -0.035003
  5   2.451511 0.204909 -0.003447 -0.087142 -0.000162 -0.003380
  6   7.247600 -0.397300 -0.109469 0.000001 0.000009 -0.122015
  7   -2.022252 -0.104661 3.136172 1.329940 -0.829555 -4.270069
  8   1.168026 -0.537438 -0.063437 -1.207157 -0.189971 -0.651329
  9   6.790376 -0.619176 0.015206 -0.000213 -0.000352 -0.415148
 10   8.637599 0.544015 -0.090417 -0.154029 -0.203700 0.119175
 11   6.790465 -0.619039 0.017802 -0.001918 -0.011054 -0.305878
 12   -2.022474 -0.104699 -2.873818 0.288334 1.354369 -2.739128
 13   1.167898 -0.537463 0.063297 0.509281 -1.255316 -0.932932
 14   7.002743 -0.617765 -0.183752 0.000229 0.000250 -1.630803
 15   8.209042 0.615527 -0.255885 1.570090 -0.000063 -0.069646
 16   7.002735 -0.617911 -0.183641 0.013497 0.009003 -1.160198
 17   1.574674 0.609930 -0.000899 0.304164 0.020433 0.111614
 18   -0.602177 0.511412 -0.000006 0.000000 0.000000 0.000000
 19   3.673773 0.177020 1.119313 -0.000002 -0.000014 -0.174510
 20   3.673767 0.176993 -1.117566 0.000007 -0.000003 -0.174546
 21   3.942357 1.330634 1.627658 0.000002 -0.000011 -0.000026
 22   -0.246060 -0.011889 0.516521 -0.000011 0.000031 0.000025
 23   3.942374 1.330659 -1.631083 0.000019 0.000002 -0.000024
 24   -0.246150 -0.011872 -0.516511 -0.000005 -0.000006 0.000048
 25   4.941364 1.997338 1.629330 0.000018 -0.000001 -0.000024
 26   4.941382 1.997366 -1.629410 -0.000001 0.000005 -0.000024
 27   2.918368 1.615358 1.514501 -0.000019 -0.000022 -0.000050
 28   2.920798 1.614964 -1.501142 -0.000002 -0.000009 -0.000024
 29   8.824059 0.150544 0.091743 0.000006 -0.000231 -0.174534
 30   2.111085 -0.561179 1.784320 -0.000008 -0.000682 0.000024
 31   2.121290 -0.561289 -1.853599 0.000000 0.000000 -0.000002
 32   -0.810489 -0.093824 3.127092 0.338887 -3.077718 -0.167351
 33   14.298673 -0.408176 0.475484 0.013203 -0.091857 -0.496506
 34   15.835795 0.581398 0.242756 -0.532523 -0.064474 0.362871
 35   -0.815868 -0.091229 -3.114430 -0.002100 2.881638 -0.314968
 36   14.294526 -0.410349 -0.463635 -0.021444 0.095325 -0.575403
 37   15.834409 0.579420 -0.284600 -0.051525 0.043093 0.201376
 38   1.139685 -3.453749 -2.823813 0.000000 0.000000 0.000001
 39   -4.457742 -1.054854 -0.746180 0.000000 0.000000 0.000000
 40   1.118101 -3.449769 3.237290 0.000000 0.000001 0.000000
 41   -4.433840 -1.059130 0.959566 -0.000001 0.000000 0.000000
 42   -0.657468 1.697302 -2.688614 0.000000 0.000002 0.000000
 43   -0.664068 1.698578 2.869377 0.000000 0.000002 0.000000
time 3
  0   0.001233 -0.019532 2.285597 0.000000 0.000000 -1.571829
  1   -1.093036 0.000002 -0.326057 -1.570704 -1.570379 -0.000123
  2   2.262337 0.113614 0.064702 -0.000052 0.000061 -0.156091
  3   2.380047 0.353302 0.047440 -0.156701 -0.008022 -0.051606
  4   2.033756 0.190472 -0.000128 -0.060889 -0.001893 -0.035003
  5   2.451511 0.204909 -0.003447 -0.087142 0.000361 0.004644
  6   7.247600 -0.397300 -0.109469 0.000001 0.000009 -0.122015
  7   -2.022252 -0.104661 3.136172 1.321696 -0.827681 -4.258517
  8   1.168026 -0.537438 -0.063437 -1.203613 -0.203908 -0.653290
  9   6.790376 -0.619176 0.015206 -0.000213 -0.000352 -0.415148
 10   8.637599 0.544015 -0.090417 -0.154029 -0.203700 0.119175
 11   6.790465 -0.619039 0.017802 -0.001918 -0.011054 -0.305878
 12   -2.022474 -0.104699 -2.873818 0.282873 1.350364 -2.744681
 13   1.167898 -0.537463 0.063297 0.513709 -1.246569 -0.939046
 14   7.002743 -0.617765 -0.183752 0.000229 0.000250 -1.630803
 15   8.209042 0.615527 -0.255885 1.570090 -0.000063 -0.069646
 16   7.002735 -0.617911 -0.183641 0.013497 0.009003 -1.160198
 17   1.574674 0.609930 -0.000899 0.304164 0.020433 0.103668
 18   -0.602177 0.511412 -0.000006 0.000000 0.000000 0.000000
 19   3.673773 0.177020 1.119313 -0.000002 -0.000014 -0.174510
 20   3.673767 0.176993 -1.117566 0.000007 -0.000003 -0.174546
 21   3.942357 1.330634 1.627658 0.000002 -0.000011 -0.000026
 22   -0.246060 -0.011889 0.516521 -0.000011 0.000031 0.000025
 23   3.942374 1.330659 -1.631083 0.000019 0.000002 -0.000024
 24   -0.246150 -0.011872 -0.516511 -0.000005 -0.000006 0.000048
 25   4.941364 1.997338 1.629330 0.000018 -0.000001 -0.000024
 26   4.941382 1.997366 -1.629410 -0.000001 0.000005 -0.000024
 27   2.918368 1.615358 1.514501 -0.000019 -0.000022 -0.000050
 28   2.920798 1.614964 -1.501142 -0.000002 -0.000009 -0.000024
 29   8.824059 0.150544 0.091743 0.000006 -0.000231 -0.174534
 30   2.111085 -0.561179 1.784320 -0.000008 -0.000682 0.000024
 31   2.121290 -0.561289 -1.853599 0.000000 0.000000 -0.000002
 32   -0.810489 -0.093824 3.127092 0.338887 -3.077718 -0.167351
 33   14.298673 -0.408176 0.475484 0.013203 -0.091857 -0.496506
 34   15.835795 0.581398 0.242756 -0.532523 -0.064474 0.362871
 35   -0.815868 -0.091229 -3.114430 -0.002100 2.881638 -0.314968
 36   14.294526 -0.410349 -0.463635 -0.021444 0.095325 -0.575403
 37   15.834409 0.579420 -0.284600 -0.051525 0.043093 0.201376
 38   1.139685 -3.453749 -2.823813 0.000000 0.000000 0.000001
 39   -4.457742 -1.054854 -0.746180 0.000000 0.000000 0.000000
 40   1.118101 -3.449769 3.237290 0.000000 0.000001 0.000000
 41   -4.433840 -1.059130 0.959566 -0.000001 0.000000 0.000000
 42   -0.657468 1.697302 -2.688614 0.000000 0.000002 0.000000
 43   -0.664068 1.698578 2.869377 0.000000 0.000002 0.000000
time 4
  0   0.001233 -0.019532 2.285597 0.000000 0.000000 -1.571829
  1   -1.093036 0.000002 -0.326057 -1.570704 -1.570379 -0.000123
  2   2.262337 0.113614 0.064702 -0.000052 0.000061 -0.156091
  3   2.380047 0.353302 0.047440 -0.156701 -0.008022 -0.051606
  4   2.033756 0.190472 -0.000128 -0.060889 -0.001893 -0.035003
  5   2.451511 0.204909 -0.003447 -0.087142 0.001144 0.012940
  6   7.247600 -0.397300 -0.109469 0.000001 0.000009 -0.122015
  7   -2.022252 -0.104661 3.136172 1.313069 -0.825548 -4.246496
  8   1.168026 -0.537438 -0.063437 -1.200006 -0.218801 -0.655694
  9   6.790376 -0.619176 0.015206 -0.000213 -0.000352 -0.415148
 10   8.637599 0.544015 -0.090417 -0.154029 -0.203700 0.119175
 11   6.790465 -0.619039 0.017802 -0.001918 -0.011054 -0.305878
 12   -2.022474 -0.104699 -2.873818 0.277412 1.346040 -2.750234
 13   1.167898 -0.537463 0.063297 0.518700 -1.237771 -0.945523
 14   7.002743 -0.617765 -0.183752 0.000229 0.000250 -1.630803
 15   8.209042 0.615527 -0.255885 1.570090 -0.000063 -0.069646
 16   7.002735 -0.617911 -0.183641 0.013497 0.009003 -1.160198
 17   1.574674 0.609930 -0.000899 0.304164 0.020433 0.095425
 18   -0.602177 0.511412 -0.000006 0.000000 0.000000 0.000000
 19   3.673773 0.177020 1.119313 -0.000002 -0.000014 -0.174510
 20   3.673767 0.176993 -1.117566 0.000007 -0.000003 -0.174546
 21   3.942357 1.330634 1.627658 0.000002 -0.000011 -0.000026
 22   -0.246060 -0.011889 0.516521 -0.000011 0.000031 0.000025
 23   3.942374 1.330659 -1.631083 0.000019 0.000002 -0.000024
 24   -0.246150 -0.011872 -0.516511 -0.000005 -0.000006 0.000048
 25   4.941364 1.997338 1.629330 0.000018 -0.000001 -0.000024
 26   4.941382 1.997366 -1.629410 -0.000001 0.000005 -0.000024
 27   2.918368 1.615358 1.514501 -0.000019 -0.000022 -0.000050
 28   2.920798 1.614964 -1.501142 -0.000002 -0.000009 -0.000024
 29   8.824059 0.150544 0.091743 0.000006 -0.000231 -0.174534
 30   2.111085 -0.561179 1.784320 -0.000008 -0.000682 0.000024
 31   2.121290 -0.561289 -1.853599 0.000000 0.000000 -0.000002
 32   -0.810489 -0.093824 3.127092 0.338887 -3.077718 -0.167351
 33   14.298673 -0.408176 0.475484 0.013203 -0.091857 -0.496506
 34   15.835795 0.581398 0.242756 -0.532523 -0.064474 0.362871
 35   -0.815868 -0.091229 -3.114430 -0.002100 2.881638 -0.314968
 36   14.294526 -0.410349 -0.463635 -0.021444 0.095325 -0.575403
 37   15.834409 0.579420 -0.284600 -0.051525 0.043093 0.201376
 38   1.139685 -3.453749 -2.823813 0.000000 0.000000 0.000001
 39   -4.457742 -1.054854 -0.746180 0.000000 0.000000 0.000000
 40   1.118101 -3.449769 3.237290 0.000000 0.000001 0.000000
 41   -4.433840 -1.059130 0.959566 -0.000001 0.000000 0.000000
 42   -0.657468 1.697302 -2.688614 0.000000 0.000002 0.000000
 43   -0.664068 1.698578 2.869377 0.000000 0.000002 0.000000
time 5
  0   0.001233 -0.019532 2.285597 0.000000 0.000000 -1.571829
  1   -1.093036 0.000002 -0.326057 -1.570704 -1.570379 -0.000123
  2   2.262337 0.113614 0.064702 -0.000052 0.000061 -0.156091
  3   2.380047 0.353302 0.047440 -0.156701 -0.008022 -0.051606
  4   2.033756 0.190472 -0.000128 -0.060889 -0.001893 -0.035003
  5   2.451511 0.204909 -0.003447 -0.087142 0.001901 0.021385
  6   7.247600 -0.397300 -0.109469 0.000001 0.000009 -0.122015
  7   -2.022252 -0.104661 3.136172 1.304154 -0.823328 -4.234475
  8   1.168026 -0.537438 -0.063437 -1.196209 -0.233694 -0.657908
  9   6.790376 -0.619176 0.015206 -0.000213 -0.000352 -0.415148
 10   8.637599 0.544015 -0.090417 -0.154029 -0.203700 0.119175
 11   6.790465 -0.619039 0.017802 -0.001918 -0.011054 -0.305878
 12   -2.022474 -0.104699 -2.873818 0.271951 1.341396 -2.755979
 13   1.167898 -0.537463 0.063297 0.523128 -1.228720 -0.951516
 14   7.002743 -0.617765 -0.183752 0.000229 0.000250 -1.630803
 15   8.209042 0.615527 -0.255885 1.570090 -0.000063 -0.069646
 16   7.002735 -0.617911 -0.183641 0.013497 0.009003 -1.160198
 17   1.574674 0.609930 -0.000899 0.304164 0.020433 0.086961
 18   -0.602177 0.511412 -0.000006 0.000000 0.000000 0.000000
 19   3.673773 0.177020 1.119313 -0.000002 -0.000014 -0.174510
 20   3.673767 0.176993 -1.117566 0.000007 -0.000003 -0.174546
 21   3.942357 1.330634 1.627658 0.000002 -0.000011 -0.000026
 22   -0.246060 -0.011889 0.516521 -0.000011 0.000031 0.000025
 23   3.942374 1.330659 -1.631083 0.000019 0.000002 -0.000024
 24   -0.246150 -0.011872 -0.516511 -0.000005 -0.000006 0.000048
 25   4.941364 1.997338 1.629330 0.000018 -0.000001 -0.000024
 26   4.941382 1.997366 -1.629410 -0.000001 0.000005 -0.000024
 27   2.918368 1.615358 1.514501 -0.000019 -0.000022 -0.000050
 28   2.920798 1.614964 -1.501142 -0.000002 -0.000009 -0.000024
 29   8.824059 0.150544 0.091743 0.000006 -0.000231 -0.174534
 30   2.111085 -0.561179 1.784320 -0.000008 -0.000682 0.000024
 31   2.121290 -0.561289 -1.853599 0.000000 0.000000 -0.000002
 32   -0.810489 -0.093824 3.127092 0.338887 -3.077718 -0.167351
 33   14.298673 -0.408176 0.475484 0.013203 -0.091857 -0.496506
 34   15.835795 0.581398 0.242756 -0.532523 -0.064474 0.362871
 35   -0.815868 -0.091229 -3.114430 -0.002100 2.881638 -0.314968
 36   14.294526 -0.410349 -0.463635 -0.021444 0.095325 -0.575403
 37   15.834409 0.579420 -0.284600 -0.051525 0.043093 0.201376
 38   1.139685 -3.453749 -2.823813 0.000000 0.000000 0.000001
 39   -4.457742 -1.054854 -0.746180 0.000000 0.000000 0.000000
 40   1.118101 -3.449769 3.237290 0.000000 0.000001 0.000000
 41   -4.433840 -1.059130 0.959566 -0.000001 0.000000 0.000000
 42   -0.657468 1.697302 -2.688614 0.000000 0.000002 0.000000
 43   -0.664068 1.698578 2.869377 0.000000 0.000002 0.000000
time 6
  0   0.001233 -0.019532 2.285597 0.000000 0.000000 -1.571829
  1   -1.093036 0.000002 -0.326057 -1.570704 -1.570379 -0.000123
  2   2.262337 0.113614 0.064702 -0.000052 0.000061 -0.156091
  3   2.380047 0.353302 0.047440 -0.156701 -0.008022 -0.051606
  4   2.033756 0.190472 -0.000128 -0.060889 -0.001893 -0.035003
  5   2.451511 0.204909 -0.003447 -0.087125 0.002645 0.029855
  6   7.247600 -0.397300 -0.109469 0.000001 0.000009 -0.122015
  7   -2.022252 -0.104661 3.136172 1.295143 -0.821109 -4.222454
  8   1.168026 -0.537438 -0.063437 -1.192476 -0.248738 -0.660312
  9   6.790376 -0.619176 0.015206 -0.000213 -0.000352 -0.415148
 10   8.637599 0.544015 -0.090417 -0.154029 -0.203700 0.119175
 11   6.790465 -0.619039 0.017802 -0.001918 -0.011054 -0.305878
 12   -2.022474 -0.104699 -2.873818 0.266969 1.336897 -2.761340
 13   1.167898 -0.537463 0.063297 0.527346 -1.219566 -0.957267
 14   7.002743 -0.617765 -0.183752 0.000229 0.000250 -1.630803
 15   8.209042 0.615527 -0.255885 1.570090 -0.000063 -0.069646
 16   7.002735 -0.617911 -0.183641 0.013497 0.009003 -1.160198
 17   1.574674 0.609930 -0.000899 0.304164 0.020433 0.078386
 18   -0.602177 0.511412 -0.000006 0.000000 0.000000 0.000000
 19   3.673773 0.177020 1.119313 -0.000002 -0.000014 -0.174510
 20   3.673767 0.176993 -1.117566 0.000007 -0.000003 -0.174546
 21   3.942357 1.330634 1.627658 0.000002 -0.000011 -0.000026
 22   -0.246060 -0.011889 0.516521 -0.000011 0.000031 0.000025
 23   3.942374 1.330659 -1.631083 0.000019 0.000002 -0.000024
 24   -0.246150 -0.011872 -0.516511 -0.000005 -0.000006 0.000048
 25   4.941364 1.997338 1.629330 0.000018 -0.000001 -0.000024
 26   4.941382 1.997366 -1.629410 -0.000001 0.000005 -0.000024
 27   2.918368 1.615358 1.514501 -0.000019 -0.000022 -0.000050
 28   2.920798 1.614964 -1.501142 -0.000002 -0.000009 -0.000024
 29   8.824059 0.150544 0.091743 0.000006 -0.000231 -0.174534
 30   2.111085 -0.561179 1.784320 -0.000008 -0.000682 0.000024
 31   2.121290 -0.561289 -1.853599 0.000000 0.000000 -0.000002
 32   -0.810489 -0.093824 3.127092 0.338887 -3.077718 -0.167351
 33   14.298673 -0.408176 0.475484 0.013203 -0.091857 -0.496506
 34   15.835795 0.581398 0.242756 -0.532523 -0.064474 0.362871
 35   -0.815868 -0.091229 -3.114430 -0.002100 2.881638 -0.314968
 36   14.294526 -0.410349 -0.463635 -0.021444 0.095325 -0.575403
 37   15.834409 0.579420 -0.284600 -0.051525 0.043093 0.201376
 38   1.139685 -3.453749 -2.823813 0.000000 0.000000 0.000001
 39   -4.457742 -1.054854 -0.746180 0.000000 0.000000 0.000000
 40   1.118101 -3.449769 3.237290 0.000000 0.000001 0.000000
 41   -4.433840 -1.059130 0.959566 -0.000001 0.000000 0.000000
 42   -0.657468 1.697302 -2.688614 0.000000 0.000002 0.000000
 43   -0.664068 1.698578 2.869377 0.000000 0.000002 0.000000
time 7
  0   0.001233 -0.019532 2.285597 0.000000 0.000000 -1.571829
  1   -1.093036 0.000002 -0.326057 -1.570704 -1.570379 -0.000123
  2   2.262337 0.113614 0.064702 -0.000052 0.000061 -0.156091
  3   2.380047 0.353302 0.047440 -0.156701 -0.008022 -0.051606
  4   2.033756 0.190472 -0.000128 -0.060889 -0.001893 -0.035003
  5   2.451511 0.204909 -0.003447 -0.087108 0.003376 0.038176
  6   7.247600 -0.397300 -0.109469 0.000001 0.000009 -0.122015
  7   -2.022252 -0.104661 3.136172 1.286420 -0.818803 -4.210809
  8   1.168026 -0.537438 -0.063437 -1.188616 -0.263329 -0.662969
  9   6.790376 -0.619176 0.015206 -0.000213 -0.000352 -0.415148
 10   8.637599 0.544015 -0.090417 -0.154029 -0.203700 0.119175
 11   6.790465 -0.619039 0.017802 -0.001918 -0.011054 -0.305878
 12   -2.022474 -0.104699 -2.873818 0.261987 1.332543 -2.766223
 13   1.167898 -0.537463 0.063297 0.531142 -1.210514 -0.962715
 14   7.002743 -0.617765 -0.183752 0.000229 0.000250 -1.630803
 15   8.209042 0.615527 -0.255885 1.570090 -0.000063 -0.069646
 16   7.002735 -0.617911 -0.183641 0.013497 0.009003 -1.160198
 17   1.574674 0.609930 -0.000899 0.304164 0.020433 0.070107
 18   -0.602177 0.511412 -0.000006 0.000000 0.000000 0.000000
 19   3.673773 0.177020 1.119313 -0.000002 -0.000014 -0.174510
 20   3.673767 0.176993 -1.117566 0.000007 -0.000003 -0.174546
 21   3.942357 1.330634 1.627658 0.000002 -0.000011 -0.000026
 22   -0.246060 -0.011889 0.516521 -0.000011 0.000031 0.000025
 23   3.942374 1.330659 -1.631083 0.000019 0.000002 -0.000024
 24   -0.246150 -0.011872 -0.516511 -0.000005 -0.000006 0.000048
 25   4.941364 1.997338 1.629330 0.000018 -0.000001 -0.000024
 26   4.941382 1.997366 -1.629410 -0.000001 0.000005 -0.000024
 27   2.918368 1.615358 1.514501 -0.000019 -0.000022 -0.000050
 28   2.920798 1.614964 -1.501142 -0.000002 -0.000009 -0.000024
 29   8.824059 0.150544 0.091743 0.000006 -0.000231 -0.174534
 30   2.111085 -0.561179 1.784320 -0.000008 -0.000682 0.000024
 31   2.121290 -0.561289 -1.853599 0.000000 0.000000 -0.000002
 32   -0.810489 -0.093824 3.127092 0.338887 -3.077718 -0.167351
 33   14.298673 -0.408176 0.475484 0.013203 -0.091857 -0.496506
 34   15.835795 0.581398 0.242756 -0.532523 -0.064474 0.362871
 35   -0.815868 -0.091229 -3.114430 -0.002100 2.881638 -0.314968
 36   14.294526 -0.410349 -0.463635 -0.021444 0.095325 -0.575403
 37   15.834409 0.579420 -0.284600 -0.051525 0.043093 0.201376
 38   1.139685 -3.453749 -2.823813 0.000000 0.000000 0.000001
 39   -4.457742 -1.054854 -0.746180 0.000000 0.000000 0.000000
 40   1.118101 -3.449769 3.237290 0.000000 0.000001 0.000000
 41   -4.433840 -1.059130 0.959566 -0.000001 0.000000 0.000000
 42   -0.657468 1.697302 -2.688614 0.000000 0.000002 0.000000
 43   -0.664068 1.698578 2.869377 0.000000 0.000002 0.000000
time 8
  0   0.001233 -0.019532 2.285597 0.000000 0.000000 -1.571829
  1   -1.093036 0.000002 -0.326057 -1.570704 -1.570379 -0.000123
  2   2.262337 0.113614 0.064702 -0.000052 0.000061 -0.156091
  3   2.380047 0.353302 0.047440 -0.156701 -0.008022 -0.051606
  4   2.033756 0.190472 -0.000128 -0.060889 -0.001893 -0.035003
  5   2.451511 0.204909 -0.003447 -0.087005 0.004068 0.046027
  6   7.247600 -0.397300 -0.109469 0.000001 0.000009 -0.122015
  7   -2.022252 -0.104661 3.136172 1.278368 -0.816554 -4.199539
  8   1.168026 -0.537438 -0.063437 -1.184819 -0.277417 -0.665436
  9   6.790376 -0.619176 0.015206 -0.000213 -0.000352 -0.415148
 10   8.637599 0.544015 -0.090417 -0.154029 -0.203700 0.119175
 11   6.790465 -0.619039 0.017802 -0.001918 -0.011054 -0.305878
 12   -2.022474 -0.104699 -2.873818 0.257485 1.328393 -2.771010
 13   1.167898 -0.537463 0.063297 0.534657 -1.201971 -0.967921
 14   7.002743 -0.617765 -0.183752 0.000229 0.000250 -1.630803
 15   8.209042 0.615527 -0.255885 1.570090 -0.000063 -0.069646
 16   7.002735 -0.617911 -0.183641 0.013497 0.009003 -1.160198
 17   1.574674 0.609930 -0.000899 0.304164 0.020433 0.062161
 18   -0.602177 0.511412 -0.000006 0.000000 0.000000 0.000000
 19   3.673773 0.177020 1.119313 -0.000002 -0.000014 -0.174510
 20   3.673767 0.176993 -1.117566 0.000007 -0.000003 -0.174546
 21   3.942357 1.330634 1.627658 0.000002 -0.000011 -0.000026
 22   -0.246060 -0.011889 0.516521 -0.000011 0.000031 0.000025
 23   3.942374 1.330659 -1.631083 0.000019 0.000002 -0.000024
 24   -0.246150 -0.011872 -0.516511 -0.000005 -0.000006 0.000048
 25   4.941364 1.997338 1.629330 0.000018 -0.000001 -0.000024
 26   4.941382 1.997366 -1.629410 -0.000001 0.000005 -0.000024
 27   2.918368 1.615358 1.514501 -0.000019 -0.000022 -0.000050
 28   2.920798 1.614964 -1.501142 -0.000002 -0.000009 -0.000024
 29   8.824059 0.150544 0.091743 0.000006 -0.000231 -0.174534
 30   2.111085 -0.561179 1.784320 -0.000008 -0.000682 0.000024
 31   2.121290 -0.561289 -1.853599 0.000000 0.000000 -0.000002
 32   -0.810489 -0.093824 3.127092 0.338887 -3.077718 -0.167351
 33   14.298673 -0.408176 0.475484 0.013203 -0.091857 -0.496506
 34   15.835795 0.581398 0.242756 -0.532523 -0.064474 0.362871
 35   -0.815868 -0.091229 -3.114430 -0.002100 2.881638 -0.314968
 36   14.294526 -0.410349 -0.463635 -0.021444 0.095325 -0.575403
 37   15.834409 0.579420 -0.284600 -0.051525 0.043093 0.201376
 38   1.139685 -3.453749 -2.823813 0.000000 0.000000 0.000001
 39   -4.457742 -1.054854 -0.746180 0.000000 0.000000 0.000000
 40   1.118101 -3.449769 3.237290 0.000000 0.000001 0.000000
 41   -4.433840 -1.059130 0.959566 -0.000001 0.000000 0.000000
 42   -0.657468 1.697302 -2.688614 0.000000 0.000002 0.000000
 43   -0.664068 1.698578 2.869377 0.000000 0.000002 0.000000
time 9
  0   0.001233 -0.019532 2.285597 0.000000 0.000000 -1.571829
  1   -1.093036 0.000002 -0.326057 -1.570704 -1.570379 -0.000123
  2   2.262337 0.113614 0.064702 -0.000052 0.000061 -0.156091
  3   2.380047 0.353302 0.047440 -0.156701 -0.008022 -0.051606
  4   2.033756 0.190472 -0.000128 -0.060889 -0.001893 -0.035003
  5   2.451511 0.204909 -0.003447 -0.087005 0.004721 0.053506
  6   7.247600 -0.397300 -0.109469 0.000001 0.000009 -0.122015
  7   -2.022252 -0.104661 3.136172 1.270796 -0.814363 -4.189021
  8   1.168026 -0.537438 -0.063437 -1.181402 -0.290549 -0.667840
  9   6.790376 -0.619176 0.015206 -0.000213 -0.000352 -0.415148
 10   8.637599 0.544015 -0.090417 -0.154029 -0.203700 0.119175
 11   6.790465 -0.619039 0.017802 -0.001918 -0.011054 -0.305878
 12   -2.022474 -0.104699 -2.873818 0.253461 1.324562 -2.775223
 13   1.167898 -0.537463 0.063297 0.537539 -1.194089 -0.972461
 14   7.002743 -0.617765 -0.183752 0.000229 0.000250 -1.630803
 15   8.209042 0.615527 -0.255885 1.570090 -0.000063 -0.069646
 16   7.002735 -0.617911 -0.183641 0.013497 0.009003 -1.160198
 17   1.574674 0.609930 -0.000899 0.304164 0.020433 0.054547
 18   -0.602177 0.511412 -0.000006 0.000000 0.000000 0.000000
 19   3.673773 0.177020 1.119313 -0.000002 -0.000014 -0.174510
 20   3.673767 0.176993 -1.117566 0.000007 -0.000003 -0.174546
 21   3.942357 1.330634 1.627658 0.000002 -0.000011 -0.000026
 22   -0.246060 -0.011889 0.516521 -0.000011 0.000031 0.000025
 23   3.942374 1.330659 -1.631083 0.000019 0.000002 -0.000024
 24   -0.246150 -0.011872 -0.516511 -0.000005 -0.000006 0.000048
 25   4.941364 1.997338 1.629330 0.000018 -0.000001 -0.000024
 26   4.941382 1.997366 -1.629410 -0.000001 0.000005 -0.000024
 27   2.918368 1.615358 1.514501 -0.000019 -0.000022 -0.000050
 28   2.920798 1.614964 -1.501142 -0.000002 -0.000009 -0.000024
 29   8.824059 0.150544 0.091743 0.000006 -0.000231 -0.174534
 30   2.111085 -0.561179 1.784320 -0.000008 -0.000682 0.000024
 31   2.121290 -0.561289 -1.853599 0.000000 0.000000 -0.000002
 32   -0.810489 -0.093824 3.127092 0.338887 -3.077718 -0.167351
 33   14.298673 -0.408176 0.475484 0.013203 -0.091857 -0.496506
 34   15.835795 0.581398 0.242756 -0.532523 -0.064474 0.362871
 35   -0.815868 -0.091229 -3.114430 -0.002100 2.881638 -0.314968
 36   14.294526 -0.410349 -0.463635 -0.021444 0.095325 -0.575403
 37   15.834409 0.579420 -0.284600 -0.051525 0.043093 0.201376
 38   1.139685 -3.453749 -2.823813 0.000000 0.000000 0.000001
 39   -4.457742 -1.054854 -0.746180 0.000000 0.000000 0.000000
 40   1.118101 -3.449769 3.237290 0.000000 0.000001 0.000000
 41   -4.433840 -1.059130 0.959566 -0.000001 0.000000 0.000000
 42   -0.657468 1.697302 -2.688614 0.000000 0.000002 0.000000
 43   -0.664068 1.698578 2.869377 0.000000 0.000002 0.000000
time 10
  0   0.001233 -0.019532 2.285597 0.000000 0.000000 -1.571829
  1   -1.093036 0.000002 -0.326057 -1.570704 -1.570379 -0.000123
  2   2.262337 0.113614 0.064702 -0.000052 0.000061 -0.156091
  3   2.380047 0.353302 0.047440 -0.156701 -0.008022 -0.051606
  4   2.033756 0.190472 -0.000128 -0.060889 -0.001893 -0.035003
  5   2.451511 0.204909 -0.003447 -0.087005 0.005165 0.060267
  6   7.247600 -0.397300 -0.109469 0.000001 0.000009 -0.122015
  7   -2.022252 -0.104661 3.136172 1.263798 -0.812374 -4.179818
  8   1.168026 -0.537438 -0.063437 -1.178048 -0.302222 -0.670307
  9   6.790376 -0.619176 0.015206 -0.000213 -0.000352 -0.415148
 10   8.637599 0.544015 -0.090417 -0.154029 -0.203700 0.119175
 11   6.790465 -0.619039 0.017802 -0.001918 -0.011054 -0.305878
 12   -2.022474 -0.104699 -2.873818 0.249916 1.320876 -2.779052
 13   1.167898 -0.537463 0.063297 0.540351 -1.186817 -0.976335
 14   7.002743 -0.617765 -0.183752 0.000229 0.000250 -1.630803
 15   8.209042 0.615527 -0.255885 1.570090 -0.000063 -0.069646
 16   7.002735 -0.617911 -0.183641 0.013497 0.009003 -1.160198
 17   1.574674 0.609930 -0.000899 0.304164 0.020433 0.047894
 18   -0.602177 0.511412 -0.000006 0.000000 0.000000 0.000000
 19   3.673773 0.177020 1.119313 -0.000002 -0.000014 -0.174510
 20   3.673767 0.176993 -1.117566 0.000007 -0.000003 -0.174546
 21   3.942357 1.330634 1.627658 0.000002 -0.000011 -0.000026
 22   -0.246060 -0.011889 0.516521 -0.000011 0.000031 0.000025
 23   3.942374 1.330659 -1.631083 0.000019 0.000002 -0.000024
 24   -0.246150 -0.011872 -0.516511 -0.000005 -0.000006 0.000048
 25   4.941364 1.997338 1.629330 0.000018 -0.000001 -0.000024
 26   4.941382 1.997366 -1.629410 -0.000001 0.000005 -0.000024
 27   2.918368 1.615358 1.514501 -0.000019 -0.000022 -0.000050
 28   2.920798 1.614964 -1.501142 -0.000002 -0.000009 -0.000024
 29   8.824059 0.150544 0.091743 0.000006 -0.000231 -0.174534
 30   2.111085 -0.561179 1.784320 -0.000008 -0.000682 0.000024
 31   2.121290 -0.561289 -1.853599 0.000000 0.000000 -0.000002
 32   -0.810489 -0.093824 3.127092 0.338887 -3.077718 -0.167351
 33   14.298673 -0.408176 0.475484 0.013203 -0.091857 -0.496506
 34   15.835795 0.581398 0.242756 -0.532523 -0.064474 0.362871
 35   -0.815868 -0.091229 -3.114430 -0.002100 2.881638 -0.314968
 36   14.294526 -0.410349 -0.463635 -0.021444 0.095325 -0.575403
 37   15.834409 0.579420 -0.284600 -0.051525 0.043093 0.201376
 38   1.139685 -3.453749 -2.823813 0.000000 0.000000 0.000001
 39   -4.457742 -1.054854 -0.746180 0.000000 0.000000 0.000000
 40   1.118101 -3.449769 3.237290 0.000000 0.000001 0.000000
 41   -4.433840 -1.059130 0.959566 -0.000001 0.000000 0.000000
 42   -0.657468 1.697302 -2.688614 0.000000 0.000002 0.000000
 43   -0.664068 1.698578 2.869377 0.000000 0.000002 0.000000
time 11
  0   0.001233 -0.019532 2.285597 0.000000 0.000000 -1.571829
  1   -1.093036 0.000002 -0.326057 -1.570704 -1.570379 -0.000123
  2   2.262337 0.113614 0.064702 -0.000052 0.000061 -0.156091
  3   2.380047 0.353302 0.047440 -0.156701 -0.008022 -0.051606
  4   2.033756 0.190472 -0.000128 -0.060889 -0.001893 -0.035003
  5   2.451511 0.204909 -0.003447 -0.086971 0.005805 0.066186
  6   7.247600 -0.397300 -0.109469 0.000001 0.000009 -0.122015
  7   -2.022252 -0.104661 3.136172 1.257759 -0.810529 -4.171553
  8   1.168026 -0.537438 -0.063437 -1.175200 -0.312788 -0.672205
  9   6.790376 -0.619176 0.015206 -0.000213 -0.000352 -0.415148
 10   8.637599 0.544015 -0.090417 -0.154029 -0.203700 0.119175
 11   6.790465 -0.619039 0.017802 -0.001918 -0.011054 -0.305878
 12   -2.022474 -0.104699 -2.873818 0.246754 1.317625 -2.782116
 13   1.167898 -0.537463 0.063297 0.542389 -1.180308 -0.979846
 14   7.002743 -0.617765 -0.183752 0.000229 0.000250 -1.630803
 15   8.209042 0.615527 -0.255885 1.570090 -0.000063 -0.069646
 16   7.002735 -0.617911 -0.183641 0.013497 0.009003 -1.160198
 17   1.574674 0.609930 -0.000899 0.304164 0.020433 0.041906
 18   -0.602177 0.511412 -0.000006 0.000000 0.000000 0.000000
 19   3.673773 0.177020 1.119313 -0.000002 -0.000014 -0.174510
 20   3.673767 0.176993 -1.117566 0.000007 -0.000003 -0.174546
 21   3.942357 1.330634 1.627658 0.000002 -0.000011 -0.000026
 22   -0.246060 -0.011889 0.516521 -0.000011 0.000031 0.000025
 23   3.942374 1.330659 -1.631083 0.000019 0.000002 -0.000024
 24   -0.246150 -0.011872 -0.516511 -0.000005 -0.000006 0.000048
 25   4.941364 1.997338 1.629330 0.000018 -0.000001 -0.000024
 26   4.941382 1.997366 -1.629410 -0.000001 0.000005 -0.000024
 27   2.918368 1.615358 1.514501 -0.000019 -0.000022 -0.000050
 28   2.920798 1.614964 -1.501142 -0.000002 -0.000009 -0.000024
 29   8.824059 0.150544 0.091743 0.000006 -0.000231 -0.174534
 30   2.111085 -0.561179 1.784320 -0.000008 -0.000682 0.000024
 31   2.121290 -0.561289 -1.853599 0.000000 0.000000 -0.000002
 32   -0.810489 -0.093824 3.127092 0.338887 -3.077718 -0.167351
 33   14.298673 -0.408176 0.475484 0.013203 -0.091857 -0.496506
 34   15.835795 0.581398 0.242756 -0.532523 -0.064474 0.362871
 35   -0.815868 -0.091229 -3.114430 -0.002100 2.881638 -0.314968
 36   14.294526 -0.410349 -0.463635 -0.021444 0.095325 -0.575403
 37   15.834409 0.579420 -0.284600 -0.051525 0.043093 0.201376
 38   1.139685 -3.453749 -2.823813 0.000000 0.000000 0.000001
 39   -4.457742 -1.054854 -0.746180 0.000000 0.000000 0.000000
 40   1.118101 -3.449769 3.237290 0.000000 0.000001 0.000000
 41   -4.433840 -1.059130 0.959566 -0.000001 0.000000 0.000000
 42   -0.657468 1.697302 -2.688614 0.000000 0.000002 0.000000
 43   -0.664068 1.698578 2.869377 0.000000 0.000002 0.000000
time 12
  0   0.001233 -0.019532 2.285597 0.000000 0.000000 -1.571829
  1   -1.093036 0.000002 -0.326057 -1.570704 -1.570379 -0.000123
  2   2.262337 0.113614 0.064702 -0.000052 0.000061 -0.156091
  3   2.380047 0.353302 0.047440 -0.156701 -0.008022 -0.051606
  4   2.033756 0.190472 -0.000128 -0.060889 -0.001893 -0.035003
  5   2.451511 0.204909 -0.003447 -0.086954 0.006275 0.071139
  6   7.247600 -0.397300 -0.109469 0.000001 0.000009 -0.122015
  7   -2.022252 -0.104661 3.136172 1.253062 -0.809117 -4.164698
  8   1.168026 -0.537438 -0.063437 -1.172859 -0.321291 -0.674166
  9   6.790376 -0.619176 0.015206 -0.000213 -0.000352 -0.415148
 10   8.637599 0.544015 -0.090417 -0.154029 -0.203700 0.119175
 11   6.790465 -0.619039 0.017802 -0.001918 -0.011054 -0.305878
 12   -2.022474 -0.104699 -2.873818 0.244263 1.315071 -2.784797
 13   1.167898 -0.537463 0.063297 0.544146 -1.175120 -0.982631
 14   7.002743 -0.617765 -0.183752 0.000229 0.000250 -1.630803
 15   8.209042 0.615527 -0.255885 1.570090 -0.000063 -0.069646
 16   7.002735 -0.617911 -0.183641 0.013497 0.009003 -1.160198
 17   1.574674 0.609930 -0.000899 0.304164 0.020433 0.036879
 18   -0.602177 0.511412 -0.000006 0.000000 0.000000 0.000000
 19   3.673773 0.177020 1.119313 -0.000002 -0.000014 -0.174510
 20   3.673767 0.176993 -1.117566 0.000007 -0.000003 -0.174546
 21   3.942357 1.330634 1.627658 0.000002 -0.000011 -0.000026
 22   -0.246060 -0.011889 0.516521 -0.000011 0.000031 0.000025
 23   3.942374 1.330659 -1.631083 0.000019 0.000002 -0.000024
 24   -0.246150 -0.011872 -0.516511 -0.000005 -0.000006 0.000048
 25   4.941364 1.997338 1.629330 0.000018 -0.000001 -0.000024
 26   4.941382 1.997366 -1.629410 -0.000001 0.000005 -0.000024
 27   2.918368 1.615358 1.514501 -0.000019 -0.000022 -0.000050
 28   2.920798 1.614964 -1.501142 -0.000002 -0.000009 -0.000024
 29   8.824059 0.150544 0.091743 0.000006 -0.000231 -0.174534
 30   2.111085 -0.561179 1.784320 -0.000008 -0.000682 0.000024
 31   2.121290 -0.561289 -1.853599 0.000000 0.000000 -0.000002
 32   -0.810489 -0.093824 3.127092 0.338887 -3.077718 -0.167351
 33   14.298673 -0.408176 0.475484 0.013203 -0.091857 -0.496506
 34   15.835795 0.581398 0.242756 -0.532523 -0.064474 0.362871
 35   -0.815868 -0.091229 -3.114430 -0.002100 2.881638 -0.314968
 36   14.294526 -0.410349 -0.463635 -0.021444 0.095325 -0.575403
 37   15.834409 0.579420 -0.284600 -0.051525 0.043093 0.201376
 38   1.139685 -3.453749 -2.823813 0.000000 0.000000 0.000001
 39   -4.457742 -1.054854 -0.746180 0.000000 0.000000 0.000000
 40   1.118101 -3.449769 3.237290 0.000000 0.000001 0.000000
 41   -4.433840 -1.059130 0.959566 -0.000001 0.000000 0.000000
 42   -0.657468 1.697302 -2.688614 0.000000 0.000002 0.000000
 43   -0.664068 1.698578 2.869377 0.000000 0.000002 0.000000
time 13
  0   0.001233 -0.019532 2.285597 0.000000 0.000000 -1.571829
  1   -1.093036 0.000002 -0.326057 -1.570704 -1.570379 -0.000123
  2   2.262337 0.113614 0.064702 -0.000052 0.000061 -0.156091
  3   2.380047 0.353302 0.047440 -0.156701 -0.008022 -0.051606
  4   2.033756 0.190472 -0.000128 -0.060889 -0.001893 -0.035003
  5   2.451511 0.204909 -0.003447 -0.086851 0.006562 0.074829
  6   7.247600 -0.397300 -0.109469 0.000001 0.000009 -0.122015
  7   -2.022252 -0.104661 3.136172 1.249611 -0.807820 -4.159438
  8   1.168026 -0.537438 -0.063437 -1.170834 -0.327832 -0.675621
  9   6.790376 -0.619176 0.015206 -0.000213 -0.000352 -0.415148
 10   8.637599 0.544015 -0.090417 -0.154029 -0.203700 0.119175
 11   6.790465 -0.619039 0.017802 -0.001918 -0.011054 -0.305878
 12   -2.022474 -0.104699 -2.873818 0.242251 1.313184 -2.786520
 13   1.167898 -0.537463 0.063297 0.545552 -1.171103 -0.984810
 14   7.002743 -0.617765 -0.183752 0.000229 0.000250 -1.630803
 15   8.209042 0.615527 -0.255885 1.570090 -0.000063 -0.069646
 16   7.002735 -0.617911 -0.183641 0.013497 0.009003 -1.160198
 17   1.574674 0.609930 -0.000899 0.304164 0.020433 0.033257
 18   -0.602177 0.511412 -0.000006 0.000000 0.000000 0.000000
 19   3.673773 0.177020 1.119313 -0.000002 -0.000014 -0.174510
 20   3.673767 0.176993 -1.117566 0.000007 -0.000003 -0.174546
 21   3.942357 1.330634 1.627658 0.000002 -0.000011 -0.000026
 22   -0.246060 -0.011889 0.516521 -0.000011 0.000031 0.000025
 23   3.942374 1.330659 -1.631083 0.000019 0.000002 -0.000024
 24   -0.246150 -0.011872 -0.516511 -0.000005 -0.000006 0.000048
 25   4.941364 1.997338 1.629330 0.000018 -0.000001 -0.000024
 26   4.941382 1.997366 -1.629410 -0.000001 0.000005 -0.000024
 27   2.918368 1.615358 1.514501 -0.000019 -0.000022 -0.000050
 28   2.920798 1.614964 -1.501142 -0.000002 -0.000009 -0.000024
 29   8.824059 0.150544 0.091743 0.000006 -0.000231 -0.174534
 30   2.111085 -0.561179 1.784320 -0.000008 -0.000682 0.000024
 31   2.121290 -0.561289 -1.853599 0.000000 0.000000 -0.000002
 32   -0.810489 -0.093824 3.127092 0.338887 -3.077718 -0.167351
 33   14.298673 -0.408176 0.475484 0.013203 -0.091857 -0.496506
 34   15.835795 0.581398 0.242756 -0.532523 -0.064474 0.362871
 35   -0.815868 -0.091229 -3.114430 -0.002100 2.881638 -0.314968
 36   14.294526 -0.410349 -0.463635 -0.021444 0.095325 -0.575403
 37   15.834409 0.579420 -0.284600 -0.051525 0.043093 0.201376
 38   1.139685 -3.453749 -2.823813 0.000000 0.000000 0.000001
 39   -4.457742 -1.054854 -0.746180 0.000000 0.000000 0.000000
 40   1.118101 -3.449769 3.237290 0.000000 0.000001 0.000000
 41   -4.433840 -1.059130 0.959566 -0.000001 0.000000 0.000000
 42   -0.657468 1.697302 -2.688614 0.000000 0.000002 0.000000
 43   -0.664068 1.698578 2.869377 0.000000 0.000002 0.000000
time 14
  0   0.001233 -0.019532 2.285597 0.000000 0.000000 -1.571829
  1   -1.093036 0.000002 -0.326057 -1.570704 -1.570379 -0.000123
  2   2.262337 0.113614 0.064702 -0.000052 0.000061 -0.156091
  3   2.380047 0.353302 0.047440 -0.156701 -0.008022 -0.051606
  4   2.033756 0.190472 -0.000128 -0.060889 -0.001893 -0.035003
  5   2.451511 0.204909 -0.003447 -0.086851 0.006640 0.077157
  6   7.247600 -0.397300 -0.109469 0.000001 0.000009 -0.122015
  7   -2.022252 -0.104661 3.136172 1.247023 -0.807128 -4.156527
  8   1.168026 -0.537438 -0.063437 -1.169948 -0.332008 -0.676380
  9   6.790376 -0.619176 0.015206 -0.000213 -0.000352 -0.415148
 10   8.637599 0.544015 -0.090417 -0.154029 -0.203700 0.119175
 11   6.790465 -0.619039 0.017802 -0.001918 -0.011054 -0.305878
 12   -2.022474 -0.104699 -2.873818 0.241293 1.312052 -2.787669
 13   1.167898 -0.537463 0.063297 0.546185 -1.168611 -0.986021
 14   7.002743 -0.617765 -0.183752 0.000229 0.000250 -1.630803
 15   8.209042 0.615527 -0.255885 1.570090 -0.000063 -0.069646
 16   7.002735 -0.617911 -0.183641 0.013497 0.009003 -1.160198
 17   1.574674 0.609930 -0.000899 0.304164 0.020433 0.030818
 18   -0.602177 0.511412 -0.000006 0.000000 0.000000 0.000000
 19   3.673773 0.177020 1.119313 -0.000002 -0.000014 -0.174510
 20   3.673767 0.176993 -1.117566 0.000007 -0.000003 -0.174546
 21   3.942357 1.330634 1.627658 0.000002 -0.000011 -0.000026
 22   -0.246060 -0.011889 0.516521 -0.000011 0.000031 0.000025
 23   3.942374 1.330659 -1.631083 0.000019 0.000002 -0.000024
 24   -0.246150 -0.011872 -0.516511 -0.000005 -0.000006 0.000048
 25   4.941364 1.997338 1.629330 0.000018 -0.000001 -0.000024
 26   4.941382 1.997366 -1.629410 -0.000001 0.000005 -0.000024
 27   2.918368 1.615358 1.514501 -0.000019 -0.000022 -0.000050
 28   2.920798 1.614964 -1.501142 -0.000002 -0.000009 -0.000024
 29   8.824059 0.150544 0.091743 0.000006 -0.000231 -0.174534
 30   2.111085 -0.561179 1.784320 -0.000008 -0.000682 0.000024
 31   2.121290 -0.561289 -1.853599 0.000000 0.000000 -0.000002
 32   -0.810489 -0.093824 3.127092 0.338887 -3.077718 -0.167351
 33   14.298673 -0.408176 0.475484 0.013203 -0.091857 -0.496506
 34   15.835795 0.581398 0.242756 -0.532523 -0.064474 0.362871
 35   -0.815868 -0.091229 -3.114430 -0.002100 2.881638 -0.314968
 36   14.294526 -0.410349 -0.463635 -0.021444 0.095325 -0.575403
 37   15.834409 0.579420 -0.284600 -0.051525 0.043093 0.201376
 38   1.139685 -3.453749 -2.823813 0.000000 0.000000 0.000001
 39   -4.457742 -1.054854 -0.746180 0.000000 0.000000 0.000000
 40   1.118101 -3.449769 3.237290 0.000000 0.000001 0.000000
 41   -4.433840 -1.059130 0.959566 -0.000001 0.000000 0.000000
 42   -0.657468 1.697302 -2.688614 0.000000 0.000002 0.000000
 43   -0.664068 1.698578 2.869377 0.000000 0.000002 0.000000
time 15
  0   0.001233 -0.019532 2.285597 0.000000 0.000000 -1.571829
  1   -1.093036 0.000002 -0.326057 -1.570704 -1.570379 -0.000123
  2   2.262337 0.113614 0.064702 -0.000052 0.000061 -0.156091
  3   2.380047 0.353302 0.047440 -0.156701 -0.008022 -0.051606
  4   2.033756 0.190472 -0.000128 -0.060889 -0.001893 -0.035003
  5   2.451511 0.204909 -0.003447 -0.086851 0.006719 0.077999
  6   7.247600 -0.397300 -0.109469 0.000001 0.000009 -0.122015
  7   -2.022252 -0.104661 3.136172 1.246256 -0.806926 -4.155118
  8   1.168026 -0.537438 -0.063437 -1.169442 -0.333467 -0.676570
  9   6.790376 -0.619176 0.015206 -0.000213 -0.000352 -0.415148
 10   8.637599 0.544015 -0.090417 -0.154029 -0.203700 0.119175
 11   6.790465 -0.619039 0.017802 -0.001918 -0.011054 -0.305878
 12   -2.022474 -0.104699 -2.873818 0.240814 1.311414 -2.788244
 13   1.167898 -0.537463 0.063297 0.546466 -1.167594 -0.986505
 14   7.002743 -0.617765 -0.183752 0.000229 0.000250 -1.630803
 15   8.209042 0.615527 -0.255885 1.570090 -0.000063 -0.069646
 16   7.002735 -0.617911 -0.183641 0.013497 0.009003 -1.160198
 17   1.574674 0.609930 -0.000899 0.304164 0.020433 0.030115
 18   -0.602177 0.511412 -0.000006 0.000000 0.000000 0.000000
 19   3.673773 0.177020 1.119313 -0.000002 -0.000014 -0.174510
 20   3.673767 0.176993 -1.117566 0.000007 -0.000003 -0.174546
 21   3.942357 1.330634 1.627658 0.000002 -0.000011 -0.000026
 22   -0.246060 -0.011889 0.516521 -0.000011 0.000031 0.000025
 23   3.942374 1.330659 -1.631083 0.000019 0.000002 -0.000024
 24   -0.246150 -0.011872 -0.516511 -0.000005 -0.000006 0.000048
 25   4.941364 1.997338 1.629330 0.000018 -0.000001 -0.000024
 26   4.941382 1.997366 -1.629410 -0.000001 0.000005 -0.000024
 27   2.918368 1.615358 1.514501 -0.000019 -0.000022 -0.000050
 28   2.920798 1.614964 -1.501142 -0.000002 -0.000009 -0.000024
 29   8.824059 0.150544 0.091743 0.000006 -0.000231 -0.174534
 30   2.111085 -0.561179 1.784320 -0.000008 -0.000682 0.000024
 31   2.121290 -0.561289 -1.853599 0.000000 0.000000 -0.000002
 32   -0.810489 -0.093824 3.127092 0.338887 -3.077718 -0.167351
 33   14.298673 -0.408176 0.475484 0.013203 -0.091857 -0.496506
 34   15.835795 0.581398 0.242756 -0.532523 -0.064474 0.362871
 35   -0.815868 -0.091229 -3.114430 -0.002100 2.881638 -0.314968
 36   14.294526 -0.410349 -0.463635 -0.021444 0.095325 -0.575403
 37   15.834409 0.579420 -0.284600 -0.051525 0.043093 0.201376
 38   1.139685 -3.453749 -2.823813 0.000000 0.000000 0.000001
 39   -4.457742 -1.054854 -0.746180 0.000000 0.000000 0.000000
 40   1.118101 -3.449769 3.237290 0.000000 0.000001 0.000000
 41   -4.433840 -1.059130 0.959566 -0.000001 0.000000 0.000000
 42   -0.657468 1.697302 -2.688614 0.000000 0.000002 0.000000
 43   -0.664068 1.698578 2.869377 0.000000 0.000002 0.000000
time 16
  0   0.001233 -0.019532 2.285597 0.000000 0.000000 -1.571829
  1   -1.093036 0.000002 -0.326057 -1.570704 -1.570379 -0.000123
  2   2.262337 0.113614 0.064702 -0.000052 0.000061 -0.156091
  3   2.380047 0.353302 0.047440 -0.156701 -0.008022 -0.051606
  4   2.033756 0.190472 -0.000128 -0.060889 -0.001893 -0.035003
  5   2.451511 0.204909 -0.003447 -0.086851 0.006640 0.077157
  6   7.247600 -0.397300 -0.109469 0.000001 0.000009 -0.122015
  7   -2.022252 -0.104661 3.136172 1.247023 -0.807128 -4.156527
  8   1.168026 -0.537438 -0.063437 -1.169948 -0.332008 -0.676380
  9   6.790376 -0.619176 0.015206 -0.000213 -0.000352 -0.415148
 10   8.637599 0.544015 -0.090417 -0.154029 -0.203700 0.119175
 11   6.790465 -0.619039 0.017802 -0.001918 -0.011054 -0.305878
 12   -2.022474 -0.104699 -2.873818 0.241293 1.312052 -2.787669
 13   1.167898 -0.537463 0.063297 0.546185 -1.168611 -0.986021
 14   7.002743 -0.617765 -0.183752 0.000229 0.000250 -1.630803
 15   8.209042 0.615527 -0.255885 1.570090 -0.000063 -0.069646
 16   7.002735 -0.617911 -0.183641 0.013497 0.009003 -1.160198
 17   1.574674 0.609930 -0.000899 0.304164 0.020433 0.030818
 18   -0.602177 0.511412 -0.000006 0.000000 0.000000 0.000000
 19   3.673773 0.177020 1.119313 -0.000002 -0.000014 -0.174510
 20   3.673767 0.176993 -1.117566 0.000007 -0.000003 -0.174546
 21   3.942357 1.330634 1.627658 0.000002 -0.000011 -0.000026
 22   -0.246060 -0.011889 0.516521 -0.000011 0.000031 0.000025
 23   3.942374 1.330659 -1.631083 0.000019 0.000002 -0.000024
 24   -0.246150 -0.011872 -0.516511 -0.000005 -0.000006 0.000048
 25   4.941364 1.997338 1.629330 0.000018 -0.000001 -0.000024
 26   4.941382 1.997366 -1.629410 -0.000001 0.000005 -0.000024
 27   2.918368 1.615358 1.514501 -0.000019 -0.000022 -0.000050
 28   2.920798 1.614964 -1.501142 -0.000002 -0.000009 -0.000024
 29   8.824059 0.150544 0.091743 0.000006 -0.000231 -0.174534
 30   2.111085 -0.561179 1.784320 -0.000008 -0.000682 0.000024
 31   2.121290 -0.561289 -1.853599 0.000000 0.000000 -0.000002
 32   -0.810489 -0.093824 3.127092 0.338887 -3.077718 -0.167351
 33   14.298673 -0.408176 0.475484 0.013203 -0.091857 -0.496506
 34   15.835795 0.581398 0.242756 -0.532523 -0.064474 0.362871
 35   -0.815868 -0.091229 -3.114430 -0.002100 2.881638 -0.314968
 36   14.294526 -0.410349 -0.463635 -0.021444 0.095325 -0.575403
 37   15.834409 0.579420 -0.284600 -0.051525 0.043093 0.201376
 38   1.139685 -3.453749 -2.823813 0.000000 0.000000 0.000001
 39   -4.457742 -1.054854 -0.746180 0.000000 0.000000 0.000000
 40   1.118101 -3.449769 3.237290 0.000000 0.000001 0.000000
 41   -4.433840 -1.059130 0.959566 -0.000001 0.000000 0.000000
 42   -0.657468 1.697302 -2.688614 0.000000 0.000002 0.000000
 43   -0.664068 1.698578 2.869377 0.000000 0.000002 0.000000
time 17
  0   0.001233 -0.019532 2.285597 0.000000 0.000000 -1.571829
  1   -1.093036 0.000002 -0.326057 -1.570704 -1.570379 -0.000123
  2   2.262337 0.113614 0.064702 -0.000052 0.000061 -0.156091
  3   2.380047 0.353302 0.047440 -0.156701 -0.008022 -0.051606
  4   2.033756 0.190472 -0.000128 -0.060889 -0.001893 -0.035003
  5   2.451511 0.204909 -0.003447 -0.086851 0.006562 0.074829
  6   7.247600 -0.397300 -0.109469 0.000001 0.000009 -0.122015
  7   -2.022252 -0.104661 3.136172 1.249611 -0.807820 -4.159438
  8   1.168026 -0.537438 -0.063437 -1.170834 -0.327832 -0.675621
  9   6.790376 -0.619176 0.015206 -0.000213 -0.000352 -0.415148
 10   8.637599 0.544015 -0.090417 -0.154029 -0.203700 0.119175
 11   6.790465 -0.619039 0.017802 -0.001918 -0.011054 -0.305878
 12   -2.022474 -0.104699 -2.873818 0.242251 1.313184 -2.786520
 13   1.167898 -0.537463 0.063297 0.545552 -1.171103 -0.984810
 14   7.002743 -0.617765 -0.183752 0.000229 0.000250 -1.630803
 15   8.209042 0.615527 -0.255885 1.570090 -0.000063 -0.069646
 16   7.002735 -0.617911 -0.183641 0.013497 0.009003 -1.160198
 17   1.574674 0.609930 -0.000899 0.304164 0.020433 0.033257
 18   -0.602177 0.511412 -0.000006 0.000000 0.000000 0.000000
 19   3.673773 0.177020 1.119313 -0.000002 -0.000014 -0.174510
 20   3.673767 0.176993 -1.117566 0.000007 -0.000003 -0.174546
 21   3.942357 1.330634 1.627658 0.000002 -0.000011 -0.000026
 22   -0.246060 -0.011889 0.516521 -0.000011 0.000031 0.000025
 23   3.942374 1.330659 -1.631083 0.000019 0.000002 -0.000024
 24   -0.246150 -0.011872 -0.516511 -0.000005 -0.000006 0.000048
 25   4.941364 1.997338 1.629330 0.000018 -0.000001 -0.000024
 26   4.941382 1.997366 -1.629410 -0.000001 0.000005 -0.000024
 27   2.918368 1.615358 1.514501 -0.000019 -0.000022 -0.000050
 28   2.920798 1.614964 -1.501142 -0.000002 -0.000009 -0.000024
 29   8.824059 0.150544 0.091743 0.000006 -0.000231 -0.174534
 30   2.111085 -0.561179 1.784320 -0.000008 -0.000682 0.000024
 31   2.121290 -0.561289 -1.853599 0.000000 0.000000 -0.000002
 32   -0.810489 -0.093824 3.127092 0.338887 -3.077718 -0.167351
 33   14.298673 -0.408176 0.475484 0.013203 -0.091857 -0.496506
 34   15.835795 0.581398 0.242756 -0.532523 -0.064474 0.362871
 35   -0.815868 -0.091229 -3.114430 -0.002100 2.881638 -0.314968
 36   14.294526 -0.410349 -0.463635 -0.021444 0.095325 -0.575403
 37   15.834409 0.579420 -0.284600 -0.051525 0.043093 0.201376
 38   1.139685 -3.453749 -2.823813 0.000000 0.000000 0.000001
 39   -4.457742 -1.054854 -0.746180 0.000000 0.000000 0.000000
 40   1.118101 -3.449769 3.237290 0.000000 0.000001 0.000000
 41   -4.433840 -1.059130 0.959566 -0.000001 0.000000 0.000000
 42   -0.657468 1.697302 -2.688614 0.000000 0.000002 0.000000
 43   -0.664068 1.698578 2.869377 0.000000 0.000002 0.000000
time 18
  0   0.001233 -0.019532 2.285597 0.000000 0.000000 -1.571829
  1   -1.093036 0.000002 -0.326057 -1.570704 -1.570379 -0.000123
  2   2.262337 0.113614 0.064702 -0.000052 0.000061 -0.156091
  3   2.380047 0.353302 0.047440 -0.156701 -0.008022 -0.051606
  4   2.033756 0.190472 -0.000128 -0.060889 -0.001893 -0.035003
  5   2.451511 0.204909 -0.003447 -0.086954 0.006275 0.071139
  6   7.247600 -0.397300 -0.109469 0.000001 0.000009 -0.122015
  7   -2.022252 -0.104661 3.136172 1.253062 -0.809117 -4.164698
  8   1.168026 -0.537438 -0.063437 -1.172859 -0.321291 -0.674166
  9   6.790376 -0.619176 0.015206 -0.000213 -0.000352 -0.415148
 10   8.637599 0.544015 -0.090417 -0.154029 -0.203700 0.119175
 11   6.790465 -0.619039 0.017802 -0.001918 -0.011054 -0.305878
 12   -2.022474 -0.104699 -2.873818 0.244263 1.315071 -2.784797
 13   1.167898 -0.537463 0.063297 0.544146 -1.175120 -0.982631
 14   7.002743 -0.617765 -0.183752 0.000229 0.000250 -1.630803
 15   8.209042 0.615527 -0.255885 1.570090 -0.000063 -0.069646
 16   7.002735 -0.617911 -0.183641 0.013497 0.009003 -1.160198
 17   1.574674 0.609930 -0.000899 0.304164 0.020433 0.036879
 18   -0.602177 0.511412 -0.000006 0.000000 0.000000 0.000000
 19   3.673773 0.177020 1.119313 -0.000002 -0.000014 -0.174510
 20   3.673767 0.176993 -1.117566 0.000007 -0.000003 -0.174546
 21   3.942357 1.330634 1.627658 0.000002 -0.000011 -0.000026
 22   -0.246060 -0.011889 0.516521 -0.000011 0.000031 0.000025
 23   3.942374 1.330659 -1.631083 0.000019 0.000002 -0.000024
 24   -0.246150 -0.011872 -0.516511 -0.000005 -0.000006 0.000048
 25   4.941364 1.997338 1.629330 0.000018 -0.000001 -0.000024
 26   4.941382 1.997366 -1.629410 -0.000001 0.000005 -0.000024
 27   2.918368 1.615358 1.514501 -0.000019 -0.000022 -0.000050
 28   2.920798 1.614964 -1.501142 -0.000002 -0.000009 -0.000024
 29   8.824059 0.150544 0.091743 0.000006 -0.000231 -0.174534
 30   2.111085 -0.561179 1.784320 -0.000008 -0.000682 0.000024
 31   2.121290 -0.561289 -1.853599 0.000000 0.000000 -0.000002
 32   -0.810489 -0.093824 3.127092 0.338887 -3.077718 -0.167351
 33   14.298673 -0.408176 0.475484 0.013203 -0.091857 -0.496506
 34   15.835795 0.581398 0.242756 -0.532523 -0.064474 0.362871
 35   -0.815868 -0.091229 -3.114430 -0.002100 2.881638 -0.314968
 36   14.294526 -0.410349 -0.463635 -0.021444 0.095325 -0.575403
 37   15.834409 0.579420 -0.284600 -0.051525 0.043093 0.201376
 38   1.139685 -3.453749 -2.823813 0.000000 0.000000 0.000001
 39   -4.457742 -1.054854 -0.746180 0.000000 0.000000 0.000000
 40   1.118101 -3.449769 3.237290 0.000000 0.000001 0.000000
 41   -4.433840 -1.059130 0.959566 -0.000001 0.000000 0.000000
 42   -0.657468 1.697302 -2.688614 0.000000 0.000002 0.000000
 43   -0.664068 1.698578 2.869377 0.000000 0.000002 0.000000
time 19
  0   0.001233 -0.019532 2.285597 0.000000 0.000000 -1.571829
  1   -1.093036 0.000002 -0.326057 -1.570704 -1.570379 -0.000123
  2   2.262337 0.113614 0.064702 -0.000052 0.000061 -0.156091
  3   2.380047 0.353302 0.047440 -0.156701 -0.008022 -0.051606
  4   2.033756 0.190472 -0.000128 -0.060889 -0.001893 -0.035003
  5   2.451511 0.204909 -0.003447 -0.086971 0.005805 0.066186
  6   7.247600 -0.397300 -0.109469 0.000001 0.000009 -0.122015
  7   -2.022252 -0.104661 3.136172 1.257759 -0.810529 -4.171553
  8   1.168026 -0.537438 -0.063437 -1.175200 -0.312788 -0.672205
  9   6.790376 -0.619176 0.015206 -0.000213 -0.000352 -0.415148
 10   8.637599 0.544015 -0.090417 -0.154029 -0.203700 0.119175
 11   6.790465 -0.619039 0.017802 -0.001918 -0.011054 -0.305878
 12   -2.022474 -0.104699 -2.873818 0.246754 1.317625 -2.782116
 13   1.167898 -0.537463 0.063297 0.542389 -1.180308 -0.979846
 14   7.002743 -0.617765 -0.183752 0.000229 0.000250 -1.630803
 15   8.209042 0.615527 -0.255885 1.570090 -0.000063 -0.069646
 16   7.002735 -0.617911 -0.183641 0.013497 0.009003 -1.160198
 17   1.574674 0.609930 -0.000899 0.304164 0.020433 0.041906
 18   -0.602177 0.511412 -0.000006 0.000000 0.000000 0.000000
 19   3.673773 0.177020 1.119313 -0.000002 -0.000014 -0.174510
 20   3.673767 0.176993 -1.117566 0.000007 -0.000003 -0.174546
 21   3.942357 1.330634 1.627658 0.000002 -0.000011 -0.000026
 22   -0.246060 -0.011889 0.516521 -0.000011 0.000031 0.000025
 23   3.942374 1.330659 -1.631083 0.000019 0.000002 -0.000024
 24   -0.246150 -0.011872 -0.516511 -0.000005 -0.000006 0.000048
 25   4.941364 1.997338 1.629330 0.000018 -0.000001 -0.000024
 26   4.941382 1.997366 -1.629410 -0.000001 0.000005 -0.000024
 27   2.918368 1.615358 1.514501 -0.000019 -0.000022 -0.000050
 28   2.920798 1.614964 -1.501142 -0.000002 -0.000009 -0.000024
 29   8.824059 0.150544 0.091743 0.000006 -0.000231 -0.174534
 30   2.111085 -0.561179 1.784320 -0.000008 -0.000682 0.000024
 31   2.121290 -0.561289 -1.853599 0.000000 0.000000 -0.000002
 32   -0.810489 -0.093824 3.127092 0.338887 -3.077718 -0.167351
 33   14.298673 -0.408176 0.475484 0.013203 -0.091857 -0.496506
 34   15.835795 0.581398 0.242756 -0.532523 -0.064474 0.362871
 35   -0.815868 -0.091229 -3.114430 -0.002100 2.881638 -0.314968
 36   14.294526 -0.410349 -0.463635 -0.021444 0.095325 -0.575403
 37   15.834409 0.579420 -0.284600 -0.051525 0.043093 0.201376
 38   1.139685 -3.453749 -2.823813 0.000000 0.000000 0.000001
 39   -4.457742 -1.054854 -0.746180 0.000000 0.000000 0.000000
 40   1.118101 -3.449769 3.237290 0.000000 0.000001 0.000000
 41   -4.433840 -1.059130 0.959566 -0.000001 0.000000 0.000000
 42   -0.657468 1.697302 -2.688614 0.000000 0.000002 0.000000
 43   -0.664068 1.698578 2.869377 0.000000 0.000002 0.000000
time 20
  0   0.001233 -0.019532 2.285597 0.000000 0.000000 -1.571829
  1   -1.093036 0.000002 -0.326057 -1.570704 -1.570379 -0.000123
  2   2.262337 0.113614 0.064702 -0.000052 0.000061 -0.156091
  3   2.380047 0.353302 0.047440 -0.156701 -0.008022 -0.051606
  4   2.033756 0.190472 -0.000128 -0.060889 -0.001893 -0.035003
  5   2.451511 0.204909 -0.003447 -0.087005 0.005165 0.060267
  6   7.247600 -0.397300 -0.109469 0.000001 0.000009 -0.122015
  7   -2.022252 -0.104661 3.136172 1.263798 -0.812374 -4.179818
  8   1.168026 -0.537438 -0.063437 -1.178048 -0.302222 -0.670307
  9   6.790376 -0.619176 0.015206 -0.000213 -0.000352 -0.415148
 10   8.637599 0.544015 -0.090417 -0.154029 -0.203700 0.119175
 11   6.790465 -0.619039 0.017802 -0.001918 -0.011054 -0.305878
 12   -2.022474 -0.104699 -2.873818 0.249916 1.320876 -2.779052
 13   1.167898 -0.537463 0.063297 0.540351 -1.186817 -0.976335
 14   7.002743 -0.617765 -0.183752 0.000229 0.000250 -1.630803
 15   8.209042 0.615527 -0.255885 1.570090 -0.000063 -0.069646
 16   7.002735 -0.617911 -0.183641 0.013497 0.009003 -1.160198
 17   1.574674 0.609930 -0.000899 0.304164 0.020433 0.047894
 18   -0.602177 0.511412 -0.000006 0.000000 0.000000 0.000000
 19   3.673773 0.177020 1.119313 -0.000002 -0.000014 -0.174510
 20   3.673767 0.176993 -1.117566 0.000007 -0.000003 -0.174546
 21   3.942357 1.330634 1.627658 0.000002 -0.000011 -0.000026
 22   -0.246060 -0.011889 0.516521 -0.000011 0.000031 0.000025
 23   3.942374 1.330659 -1.631083 0.000019 0.000002 -0.000024
 24   -0.246150 -0.011872 -0.516511 -0.000005 -0.000006 0.000048
 25   4.941364 1.997338 1.629330 0.000018 -0.000001 -0.000024
 26   4.941382 1.997366 -1.629410 -0.000001 0.000005 -0.000024
 27   2.918368 1.615358 1.514501 -0.000019 -0.000022 -0.000050
 28   2.920798 1.614964 -1.501142 -0.000002 -0.000009 -0.000024
 29   8.824059 0.150544 0.091743 0.000006 -0.000231 -0.174534
 30   2.111085 -0.561179 1.784320 -0.000008 -0.000682 0.000024
 31   2.121290 -0.561289 -1.853599 0.000000 0.000000 -0.000002
 32   -0.810489 -0.093824 3.127092 0.338887 -3.077718 -0.167351
 33   14.298673 -0.408176 0.475484 0.013203 -0.091857 -0.496506
 34   15.835795 0.581398 0.242756 -0.532523 -0.064474 0.362871
 35   -0.815868 -0.091229 -3.114430 -0.002100 2.881638 -0.314968
 36   14.294526 -0.410349 -0.463635 -0.021444 0.095325 -0.575403
 37   15.834409 0.579420 -0.284600 -0.051525 0.043093 0.201376
 38   1.139685 -3.453749 -2.823813 0.000000 0.000000 0.000001
 39   -4.457742 -1.054854 -0.746180 0.000000 0.000000 0.000000
 40   1.118101 -3.449769 3.237290 0.000000 0.000001 0.000000
 41   -4.433840 -1.059130 0.959566 -0.000001 0.000000 0.000000
 42   -0.657468 1.697302 -2.688614 0.000000 0.000002 0.000000
 43   -0.664068 1.698578 2.869377 0.000000 0.000002 0.000000
time 21
  0   0.001233 -0.019532 2.285597 0.000000 0.000000 -1.571829
  1   -1.093036 0.000002 -0.326057 -1.570704 -1.570379 -0.000123
  2   2.262337 0.113614 0.064702 -0.000052 0.000061 -0.156091
  3   2.380047 0.353302 0.047440 -0.156701 -0.008022 -0.051606
  4   2.033756 0.190472 -0.000128 -0.060889 -0.001893 -0.035003
  5   2.451511 0.204909 -0.003447 -0.087005 0.004721 0.053506
  6   7.247600 -0.397300 -0.109469 0.000001 0.000009 -0.122015
  7   -2.022252 -0.104661 3.136172 1.270796 -0.814363 -4.189021
  8   1.168026 -0.537438 -0.063437 -1.181402 -0.290549 -0.667840
  9   6.790376 -0.619176 0.015206 -0.000213 -0.000352 -0.415148
 10   8.637599 0.544015 -0.090417 -0.154029 -0.203700 0.119175
 11   6.790465 -0.619039 0.017802 -0.001918 -0.011054 -0.305878
 12   -2.022474 -0.104699 -2.873818 0.253461 1.324562 -2.775223
 13   1.167898 -0.537463 0.063297 0.537539 -1.194089 -0.972461
 14   7.002743 -0.617765 -0.183752 0.000229 0.000250 -1.630803
 15   8.209042 0.615527 -0.255885 1.570090 -0.000063 -0.069646
 16   7.002735 -0.617911 -0.183641 0.013497 0.009003 -1.160198
 17   1.574674 0.609930 -0.000899 0.304164 0.020433 0.054547
 18   -0.602177 0.511412 -0.000006 0.000000 0.000000 0.000000
 19   3.673773 0.177020 1.119313 -0.000002 -0.000014 -0.174510
 20   3.673767 0.176993 -1.117566 0.000007 -0.000003 -0.174546
 21   3.942357 1.330634 1.627658 0.000002 -0.000011 -0.000026
 22   -0.246060 -0.011889 0.516521 -0.000011 0.000031 0.000025
 23   3.942374 1.330659 -1.631083 0.000019 0.000002 -0.000024
 24   -0.246150 -0.011872 -0.516511 -0.000005 -0.000006 0.000048
 25   4.941364 1.997338 1.629330 0.000018 -0.000001 -0.000024
 26   4.941382 1.997366 -1.629410 -0.000001 0.000005 -0.000024
 27   2.918368 1.615358 1.514501 -0.000019 -0.000022 -0.000050
 28   2.920798 1.614964 -1.501142 -0.000002 -0.000009 -0.000024
 29   8.824059 0.150544 0.091743 0.000006 -0.000231 -0.174534
 30   2.111085 -0.561179 1.784320 -0.000008 -0.000682 0.000024
 31   2.121290 -0.561289 -1.853599 0.000000 0.000000 -0.000002
 32   -0.810489 -0.093824 3.127092 0.338887 -3.077718 -0.167351
 33   14.298673 -0.408176 0.475484 0.013203 -0.091857 -0.496506
 34   15.835795 0.581398 0.242756 -0.532523 -0.064474 0.362871
 35   -0.815868 -0.091229 -3.114430 -0.002100 2.881638 -0.314968
 36   14.294526 -0.410349 -0.463635 -0.021444 0.095325 -0.575403
 37   15.834409 0.579420 -0.284600 -0.051525 0.043093 0.201376
 38   1.139685 -3.453749 -2.823813 0.000000 0.000000 0.000001
 39   -4.457742 -1.054854 -0.746180 0.000000 0.000000 0.000000
 40   1.118101 -3.449769 3.237290 0.000000 0.000001 0.000000
 41   -4.433840 -1.059130 0.959566 -0.000001 0.000000 0.000000
 42   -0.657468 1.697302 -2.688614 0.000000 0.000002 0.000000
 43   -0.664068 1.698578 2.869377 0.000000 0.000002 0.000000
time 22
  0   0.001233 -0.019532 2.285597 0.000000 0.000000 -1.571829
  1   -1.093036 0.000002 -0.326057 -1.570704 -1.570379 -0.000123
  2   2.262337 0.113614 0.064702 -0.000052 0.000061 -0.156091
  3   2.380047 0.353302 0.047440 -0.156701 -0.008022 -0.051606
  4   2.033756 0.190472 -0.000128 -0.060889 -0.001893 -0.035003
  5   2.451511 0.204909 -0.003447 -0.087005 0.004068 0.046027
  6   7.247600 -0.397300 -0.109469 0.000001 0.000009 -0.122015
  7   -2.022252 -0.104661 3.136172 1.278368 -0.816554 -4.199539
  8   1.168026 -0.537438 -0.063437 -1.184819 -0.277417 -0.665436
  9   6.790376 -0.619176 0.015206 -0.000213 -0.000352 -0.415148
 10   8.637599 0.544015 -0.090417 -0.154029 -0.203700 0.119175
 11   6.790465 -0.619039 0.017802 -0.001918 -0.011054 -0.305878
 12   -2.022474 -0.104699 -2.873818 0.257485 1.328393 -2.771010
 13   1.167898 -0.537463 0.063297 0.534657 -1.201971 -0.967921
 14   7.002743 -0.617765 -0.183752 0.000229 0.000250 -1.630803
 15   8.209042 0.615527 -0.255885 1.570090 -0.000063 -0.069646
 16   7.002735 -0.617911 -0.183641 0.013497 0.009003 -1.160198
 17   1.574674 0.609930 -0.000899 0.304164 0.020433 0.062161
 18   -0.602177 0.511412 -0.000006 0.000000 0.000000 0.000000
 19   3.673773 0.177020 1.119313 -0.000002 -0.000014 -0.174510
 20   3.673767 0.176993 -1.117566 0.000007 -0.000003 -0.174546
 21   3.942357 1.330634 1.627658 0.000002 -0.000011 -0.000026
 22   -0.246060 -0.011889 0.516521 -0.000011 0.000031 0.000025
 23   3.942374 1.330659 -1.631083 0.000019 0.000002 -0.000024
 24   -0.246150 -0.011872 -0.516511 -0.000005 -0.000006 0.000048
 25   4.941364 1.997338 1.629330 0.000018 -0.000001 -0.000024
 26   4.941382 1.997366 -1.629410 -0.000001 0.000005 -0.000024
 27   2.918368 1.615358 1.514501 -0.000019 -0.000022 -0.000050
 28   2.920798 1.614964 -1.501142 -0.000002 -0.000009 -0.000024
 29   8.824059 0.150544 0.091743 0.000006 -0.000231 -0.174534
 30   2.111085 -0.561179 1.784320 -0.000008 -0.000682 0.000024
 31   2.121290 -0.561289 -1.853599 0.000000 0.000000 -0.000002
 32   -0.810489 -0.093824 3.127092 0.338887 -3.077718 -0.167351
 33   14.298673 -0.408176 0.475484 0.013203 -0.091857 -0.496506
 34   15.835795 0.581398 0.242756 -0.532523 -0.064474 0.362871
 35   -0.815868 -0.091229 -3.114430 -0.002100 2.881638 -0.314968
 36   14.294526 -0.410349 -0.463635 -0.021444 0.095325 -0.575403
 37   15.834409 0.579420 -0.284600 -0.051525 0.043093 0.201376
 38   1.139685 -3.453749 -2.823813 0.000000 0.000000 0.000001
 39   -4.457742 -1.054854 -0.746180 0.000000 0.000000 0.000000
 40   1.118101 -3.449769 3.237290 0.000000 0.000001 0.000000
 41   -4.433840 -1.059130 0.959566 -0.000001 0.000000 0.000000
 42   -0.657468 1.697302 -2.688614 0.000000 0.000002 0.000000
 43   -0.664068 1.698578 2.869377 0.000000 0.000002 0.000000
time 23
  0   0.001233 -0.019532 2.285597 0.000000 0.000000 -1.571829
  1   -1.093036 0.000002 -0.326057 -1.570704 -1.570379 -0.000123
  2   2.262337 0.113614 0.064702 -0.000052 0.000061 -0.156091
  3   2.380047 0.353302 0.047440 -0.156701 -0.008022 -0.051606
  4   2.033756 0.190472 -0.000128 -0.060889 -0.001893 -0.035003
  5   2.451511 0.204909 -0.003447 -0.087108 0.003376 0.038176
  6   7.247600 -0.397300 -0.109469 0.000001 0.000009 -0.122015
  7   -2.022252 -0.104661 3.136172 1.286420 -0.818803 -4.210809
  8   1.168026 -0.537438 -0.063437 -1.188616 -0.263329 -0.662969
  9   6.790376 -0.619176 0.015206 -0.000213 -0.000352 -0.415148
 10   8.637599 0.544015 -0.090417 -0.154029 -0.203700 0.119175
 11   6.790465 -0.619039 0.017802 -0.001918 -0.011054 -0.305878
 12   -2.022474 -0.104699 -2.873818 0.261987 1.332543 -2.766223
 13   1.167898 -0.537463 0.063297 0.531142 -1.210514 -0.962715
 14   7.002743 -0.617765 -0.183752 0.000229 0.000250 -1.630803
 15   8.209042 0.615527 -0.255885 1.570090 -0.000063 -0.069646
 16   7.002735 -0.617911 -0.183641 0.013497 0.009003 -1.160198
 17   1.574674 0.609930 -0.000899 0.304164 0.020433 0.070107
 18   -0.602177 0.511412 -0.000006 0.000000 0.000000 0.000000
 19   3.673773 0.177020 1.119313 -0.000002 -0.000014 -0.174510
 20   3.673767 0.176993 -1.117566 0.000007 -0.000003 -0.174546
 21   3.942357 1.330634 1.627658 0.000002 -0.000011 -0.000026
 22   -0.246060 -0.011889 0.516521 -0.000011 0.000031 0.000025
 23   3.942374 1.330659 -1.631083 0.000019 0.000002 -0.000024
 24   -0.246150 -0.011872 -0.516511 -0.000005 -0.000006 0.000048
 25   4.941364 1.997338 1.629330 0.000018 -0.000001 -0.000024
 26   4.941382 1.997366 -1.629410 -0.000001 0.000005 -0.000024
 27   2.918368 1.615358 1.514501 -0.000019 -0.000022 -0.000050
 28   2.920798 1.614964 -1.501142 -0.000002 -0.000009 -0.000024
 29   8.824059 0.150544 0.091743 0.000006 -0.000231 -0.174534
 30   2.111085 -0.561179 1.784320 -0.000008 -0.000682 0.000024
 31   2.121290 -0.561289 -1.853599 0.000000 0.000000 -0.000002
 32   -0.810489 -0.093824 3.127092 0.338887 -3.077718 -0.167351
 33   14.298673 -0.408176 0.475484 0.013203 -0.091857 -0.496506
 34   15.835795 0.581398 0.242756 -0.532523 -0.064474 0.362871
 35   -0.815868 -0.091229 -3.114430 -0.002100 2.881638 -0.314968
 36   14.294526 -0.410349 -0.463635 -0.021444 0.095325 -0.575403
 37   15.834409 0.579420 -0.284600 -0.051525 0.043093 0.201376
 38   1.139685 -3.453749 -2.823813 0.000000 0.000000 0.000001
 39   -4.457742 -1.054854 -0.746180 0.000000 0.000000 0.000000
 40   1.118101 -3.449769 3.237290 0.000000 0.000001 0.000000
 41   -4.433840 -1.059130 0.959566 -0.000001 0.000000 0.000000
 42   -0.657468 1.697302 -2.688614 0.000000 0.000002 0.000000
 43   -0.664068 1.698578 2.869377 0.000000 0.000002 0.000000
time 24
  0   0.001233 -0.019532 2.285597 0.000000 0.000000 -1.571829
  1   -1.093036 0.000002 -0.326057 -1.570704 -1.570379 -0.000123
  2   2.262337 0.113614 0.064702 -0.000052 0.000061 -0.156091
  3   2.380047 0.353302 0.047440 -0.156701 -0.008022 -0.051606
  4   2.033756 0.190472 -0.000128 -0.060889 -0.001893 -0.035003
  5   2.451511 0.204909 -0.003447 -0.087125 0.002645 0.029855
  6   7.247600 -0.397300 -0.109469 0.000001 0.000009 -0.122015
  7   -2.022252 -0.104661 3.136172 1.295143 -0.821109 -4.222454
  8   1.168026 -0.537438 -0.063437 -1.192476 -0.248738 -0.660312
  9   6.790376 -0.619176 0.015206 -0.000213 -0.000352 -0.415148
 10   8.637599 0.544015 -0.090417 -0.154029 -0.203700 0.119175
 11   6.790465 -0.619039 0.017802 -0.001918 -0.011054 -0.305878
 12   -2.022474 -0.104699 -2.873818 0.266969 1.336897 -2.761340
 13   1.167898 -0.537463 0.063297 0.527346 -1.219566 -0.957267
 14   7.002743 -0.617765 -0.183752 0.000229 0.000250 -1.630803
 15   8.209042 0.615527 -0.255885 1.570090 -0.000063 -0.069646
 16   7.002735 -0.617911 -0.183641 0.013497 0.009003 -1.160198
 17   1.574674 0.609930 -0.000899 0.304164 0.020433 0.078386
 18   -0.602177 0.511412 -0.000006 0.000000 0.000000 0.000000
 19   3.673773 0.177020 1.119313 -0.000002 -0.000014 -0.174510
 20   3.673767 0.176993 -1.117566 0.000007 -0.000003 -0.174546
 21   3.942357 1.330634 1.627658 0.000002 -0.000011 -0.000026
 22   -0.246060 -0.011889 0.516521 -0.000011 0.000031 0.000025
 23   3.942374 1.330659 -1.631083 0.000019 0.000002 -0.000024
 24   -0.246150 -0.011872 -0.516511 -0.000005 -0.000006 0.000048
 25   4.941364 1.997338 1.629330 0.000018 -0.000001 -0.000024
 26   4.941382 1.997366 -1.629410 -0.000001 0.000005 -0.000024
 27   2.918368 1.615358 1.514501 -0.000019 -0.000022 -0.000050
 28   2.920798 1.614964 -1.501142 -0.000002 -0.000009 -0.000024
 29   8.824059 0.150544 0.091743 0.000006 -0.000231 -0.174534
 30   2.111085 -0.561179 1.784320 -0.000008 -0.000682 0.000024
 31   2.121290 -0.561289 -1.853599 0.000000 0.000000 -0.000002
 32   -0.810489 -0.093824 3.127092 0.338887 -3.077718 -0.167351
 33   14.298673 -0.408176 0.475484 0.013203 -0.091857 -0.496506
 34   15.835795 0.581398 0.242756 -0.532523 -0.064474 0.362871
 35   -0.815868 -0.091229 -3.114430 -0.002100 2.881638 -0.314968
 36   14.294526 -0.410349 -0.463635 -0.021444 0.095325 -0.575403
 37   15.834409 0.579420 -0.284600 -0.051525 0.043093 0.201376
 38   1.139685 -3.453749 -2.823813 0.000000 0.000000 0.000001
 39   -4.457742 -1.054854 -0.746180 0.000000 0.000000 0.000000
 40   1.118101 -3.449769 3.237290 0.000000 0.000001 0.000000
 41   -4.433840 -1.059130 0.959566 -0.000001 0.000000 0.000000
 42   -0.657468 1.697302 -2.688614 0.000000 0.000002 0.000000
 43   -0.664068 1.698578 2.869377 0.000000 0.000002 0.000000
time 25
  0   0.001233 -0.019532 2.285597 0.000000 0.000000 -1.571829
  1   -1.093036 0.000002 -0.326057 -1.570704 -1.570379 -0.000123
  2   2.262337 0.113614 0.064702 -0.000052 0.000061 -0.156091
  3   2.380047 0.353302 0.047440 -0.156701 -0.008022 -0.051606
  4   2.033756 0.190472 -0.000128 -0.060889 -0.001893 -0.035003
  5   2.451511 0.204909 -0.003447 -0.087142 0.001901 0.021385
  6   7.247600 -0.397300 -0.109469 0.000001 0.000009 -0.122015
  7   -2.022252 -0.104661 3.136172 1.304154 -0.823328 -4.234475
  8   1.168026 -0.537438 -0.063437 -1.196209 -0.233694 -0.657908
  9   6.790376 -0.619176 0.015206 -0.000213 -0.000352 -0.415148
 10   8.637599 0.544015 -0.090417 -0.154029 -0.203700 0.119175
 11   6.790465 -0.619039 0.017802 -0.001918 -0.011054 -0.305878
 12   -2.022474 -0.104699 -2.873818 0.271951 1.341396 -2.755979
 13   1.167898 -0.537463 0.063297 0.523128 -1.228720 -0.951516
 14   7.002743 -0.617765 -0.183752 0.000229 0.000250 -1.630803
 15   8.209042 0.615527 -0.255885 1.570090 -0.000063 -0.069646
 16   7.002735 -0.617911 -0.183641 0.013497 0.009003 -1.160198
 17   1.574674 0.609930 -0.000899 0.304164 0.020433 0.086961
 18   -0.602177 0.511412 -0.000006 0.000000 0.000000 0.000000
 19   3.673773 0.177020 1.119313 -0.000002 -0.000014 -0.174510
 20   3.673767 0.176993 -1.117566 0.000007 -0.000003 -0.174546
 21   3.942357 1.330634 1.627658 0.000002 -0.000011 -0.000026
 22   -0.246060 -0.011889 0.516521 -0.000011 0.000031 0.000025
 23   3.942374 1.330659 -1.631083 0.000019 0.000002 -0.000024
 24   -0.246150 -0.011872 -0.516511 -0.000005 -0.000006 0.000048
 25   4.941364 1.997338 1.629330 0.000018 -0.000001 -0.000024
 26   4.941382 1.997366 -1.629410 -0.000001 0.000005 -0.000024
 27   2.918368 1.615358 1.514501 -0.000019 -0.000022 -0.000050
 28   2.920798 1.614964 -1.501142 -0.000002 -0.000009 -0.000024
 29   8.824059 0.150544 0.091743 0.000006 -0.000231 -0.174534
 30   2.111085 -0.561179 1.784320 -0.000008 -0.000682 0.000024
 31   2.121290 -0.561289 -1.853599 0.000000 0.000000 -0.000002
 32   -0.810489 -0.093824 3.127092 0.338887 -3.077718 -0.167351
 33   14.298673 -0.408176 0.475484 0.013203 -0.091857 -0.496506
 34   15.835795 0.581398 0.242756 -0.532523 -0.064474 0.362871
 35   -0.815868 -0.091229 -3.114430 -0.002100 2.881638 -0.314968
 36   14.294526 -0.410349 -0.463635 -0.021444 0.095325 -0.575403
 37   15.834409 0.579420 -0.284600 -0.051525 0.043093 0.201376
 38   1.139685 -3.453749 -2.823813 0.000000 0.000000 0.000001
 39   -4.457742 -1.054854 -0.746180 0.000000 0.000000 0.000000
 40   1.118101 -3.449769 3.237290 0.000000 0.000001 0.000000
 41   -4.433840 -1.059130 0.959566 -0.000001 0.000000 0.000000
 42   -0.657468 1.697302 -2.688614 0.000000 0.000002 0.000000
 43   -0.664068 1.698578 2.869377 0.000000 0.000002 0.000000
time 26
  0   0.001233 -0.019532 2.285597 0.000000 0.000000 -1.571829
  1   -1.093036 0.000002 -0.326057 -1.570704 -1.570379 -0.000123
  2   2.262337 0.113614 0.064702 -0.000052 0.000061 -0.156091
  3   2.380047 0.353302 0.047440 -0.156701 -0.008022 -0.051606
  4   2.033756 0.190472 -0.000128 -0.060889 -0.001893 -0.035003
  5   2.451511 0.204909 -0.003447 -0.087142 0.001144 0.012940
  6   7.247600 -0.397300 -0.109469 0.000001 0.000009 -0.122015
  7   -2.022252 -0.104661 3.136172 1.313069 -0.825548 -4.246496
  8   1.168026 -0.537438 -0.063437 -1.200006 -0.218801 -0.655694
  9   6.790376 -0.619176 0.015206 -0.000213 -0.000352 -0.415148
 10   8.637599 0.544015 -0.090417 -0.154029 -0.203700 0.119175
 11   6.790465 -0.619039 0.017802 -0.001918 -0.011054 -0.305878
 12   -2.022474 -0.104699 -2.873818 0.277412 1.346040 -2.750234
 13   1.167898 -0.537463 0.063297 0.518700 -1.237771 -0.945523
 14   7.002743 -0.617765 -0.183752 0.000229 0.000250 -1.630803
 15   8.209042 0.615527 -0.255885 1.570090 -0.000063 -0.069646
 16   7.002735 -0.617911 -0.183641 0.013497 0.009003 -1.160198
 17   1.574674 0.609930 -0.000899 0.304164 0.020433 0.095425
 18   -0.602177 0.511412 -0.000006 0.000000 0.000000 0.000000
 19   3.673773 0.177020 1.119313 -0.000002 -0.000014 -0.174510
 20   3.673767 0.176993 -1.117566 0.000007 -0.000003 -0.174546
 21   3.942357 1.330634 1.627658 0.000002 -0.000011 -0.000026
 22   -0.246060 -0.011889 0.516521 -0.000011 0.000031 0.000025
 23   3.942374 1.330659 -1.631083 0.000019 0.000002 -0.000024
 24   -0.246150 -0.011872 -0.516511 -0.000005 -0.000006 0.000048
 25   4.941364 1.997338 1.629330 0.000018 -0.000001 -0.000024
 26   4.941382 1.997366 -1.629410 -0.000001 0.000005 -0.000024
 27   2.918368 1.615358 1.514501 -0.000019 -0.000022 -0.000050
 28   2.920798 1.614964 -1.501142 -0.000002 -0.000009 -0.000024
 29   8.824059 0.150544 0.091743 0.000006 -0.000231 -0.174534
 30   2.111085 -0.561179 1.784320 -0.000008 -0.000682 0.000024
 31   2.121290 -0.561289 -1.853599 0.000000 0.000000 -0.000002
 32   -0.810489 -0.093824 3.127092 0.338887 -3.077718 -0.167351
 33   14.298673 -0.408176 0.475484 0.013203 -0.091857 -0.496506
 34   15.835795 0.581398 0.242756 -0.532523 -0.064474 0.362871
 35   -0.815868 -0.091229 -3.114430 -0.002100 2.881638 -0.314968
 36   14.294526 -0.410349 -0.463635 -0.021444 0.095325 -0.575403
 37   15.834409 0.579420 -0.284600 -0.051525 0.043093 0.201376
 38   1.139685 -3.453749 -2.823813 0.000000 0.000000 0.000001
 39   -4.457742 -1.054854 -0.746180 0.000000 0.000000 0.000000
 40   1.118101 -3.449769 3.237290 0.000000 0.000001 0.000000
 41   -4.433840 -1.059130 0.959566 -0.000001 0.000000 0.000000
 42   -0.657468 1.697302 -2.688614 0.000000 0.000002 0.000000
 43   -0.664068 1.698578 2.869377 0.000000 0.000002 0.000000
time 27
  0   0.001233 -0.019532 2.285597 0.000000 0.000000 -1.571829
  1   -1.093036 0.000002 -0.326057 -1.570704 -1.570379 -0.000123
  2   2.262337 0.113614 0.064702 -0.000052 0.000061 -0.156091
  3   2.380047 0.353302 0.047440 -0.156701 -0.008022 -0.051606
  4   2.033756 0.190472 -0.000128 -0.060889 -0.001893 -0.035003
  5   2.451511 0.204909 -0.003447 -0.087142 0.000361 0.004644
  6   7.247600 -0.397300 -0.109469 0.000001 0.000009 -0.122015
  7   -2.022252 -0.104661 3.136172 1.321696 -0.827681 -4.258517
  8   1.168026 -0.537438 -0.063437 -1.203613 -0.203908 -0.653290
  9   6.790376 -0.619176 0.015206 -0.000213 -0.000352 -0.415148
 10   8.637599 0.544015 -0.090417 -0.154029 -0.203700 0.119175
 11   6.790465 -0.619039 0.017802 -0.001918 -0.011054 -0.305878
 12   -2.022474 -0.104699 -2.873818 0.282873 1.350364 -2.744681
 13   1.167898 -0.537463 0.063297 0.513709 -1.246569 -0.939046
 14   7.002743 -0.617765 -0.183752 0.000229 0.000250 -1.630803
 15   8.209042 0.615527 -0.255885 1.570090 -0.000063 -0.069646
 16   7.002735 -0.617911 -0.183641 0.013497 0.009003 -1.160198
 17   1.574674 0.609930 -0.000899 0.304164 0.020433 0.103668
 18   -0.602177 0.511412 -0.000006 0.000000 0.000000 0.000000
 19   3.673773 0.177020 1.119313 -0.000002 -0.000014 -0.174510
 20   3.673767 0.176993 -1.117566 0.000007 -0.000003 -0.174546
 21   3.942357 1.330634 1.627658 0.000002 -0.000011 -0.000026
 22   -0.246060 -0.011889 0.516521 -0.000011 0.000031 0.000025
 23   3.942374 1.330659 -1.631083 0.000019 0.000002 -0.000024
 24   -0.246150 -0.011872 -0.516511 -0.000005 -0.000006 0.000048
 25   4.941364 1.997338 1.629330 0.000018 -0.000001 -0.000024
 26   4.941382 1.997366 -1.629410 -0.000001 0.000005 -0.000024
 27   2.918368 1.615358 1.514501 -0.000019 -0.000022 -0.000050
 28   2.920798 1.614964 -1.501142 -0.000002 -0.000009 -0.000024
 29   8.824059 0.150544 0.091743 0.000006 -0.000231 -0.174534
 30   2.111085 -0.561179 1.784320 -0.000008 -0.000682 0.000024
 31   2.121290 -0.561289 -1.853599 0.000000 0.000000 -0.000002
 32   -0.810489 -0.093824 3.127092 0.338887 -3.077718 -0.167351
 33   14.298673 -0.408176 0.475484 0.013203 -0.091857 -0.496506
 34   15.835795 0.581398 0.242756 -0.532523 -0.064474 0.362871
 35   -0.815868 -0.091229 -3.114430 -0.002100 2.881638 -0.314968
 36   14.294526 -0.410349 -0.463635 -0.021444 0.095325 -0.575403
 37   15.834409 0.579420 -0.284600 -0.051525 0.043093 0.201376
 38   1.139685 -3.453749 -2.823813 0.000000 0.000000 0.000001
 39   -4.457742 -1.054854 -0.746180 0.000000 0.000000 0.000000
 40   1.118101 -3.449769 3.237290 0.000000 0.000001 0.000000
 41   -4.433840 -1.059130 0.959566 -0.000001 0.000000 0.000000
 42   -0.657468 1.697302 -2.688614 0.000000 0.000002 0.000000
 43   -0.664068 1.698578 2.869377 0.000000 0.000002 0.000000
time 28
  0   0.001233 -0.019532 2.285597 0.000000 0.000000 -1.571829
  1   -1.093036 0.000002 -0.326057 -1.570704 -1.570379 -0.000123
  2   2.262337 0.113614 0.064702 -0.000052 0.000061 -0.156091
  3   2.380047 0.353302 0.047440 -0.156701 -0.008022 -0.051606
  4   2.033756 0.190472 -0.000128 -0.060889 -0.001893 -0.035003
  5   2.451511 0.204909 -0.003447 -0.087142 -0.000162 -0.003380
  6   7.247600 -0.397300 -0.109469 0.000001 0.000009 -0.122015
  7   -2.022252 -0.104661 3.136172 1.329940 -0.829555 -4.270069
  8   1.168026 -0.537438 -0.063437 -1.207157 -0.189971 -0.651329
  9   6.790376 -0.619176 0.015206 -0.000213 -0.000352 -0.415148
 10   8.637599 0.544015 -0.090417 -0.154029 -0.203700 0.119175
 11   6.790465 -0.619039 0.017802 -0.001918 -0.011054 -0.305878
 12   -2.022474 -0.104699 -2.873818 0.288334 1.354369 -2.739128
 13   1.167898 -0.537463 0.063297 0.509281 -1.255316 -0.932932
 14   7.002743 -0.617765 -0.183752 0.000229 0.000250 -1.630803
 15   8.209042 0.615527 -0.255885 1.570090 -0.000063 -0.069646
 16   7.002735 -0.617911 -0.183641 0.013497 0.009003 -1.160198
 17   1.574674 0.609930 -0.000899 0.304164 0.020433 0.111614
 18   -0.602177 0.511412 -0.000006 0.000000 0.000000 0.000000
 19   3.673773 0.177020 1.119313 -0.000002 -0.000014 -0.174510
 20   3.673767 0.176993 -1.117566 0.000007 -0.000003 -0.174546
 21   3.942357 1.330634 1.627658 0.000002 -0.000011 -0.000026
 22   -0.246060 -0.011889 0.516521 -0.000011 0.000031 0.000025
 23   3.942374 1.330659 -1.631083 0.000019 0.000002 -0.000024
 24   -0.246150 -0.011872 -0.516511 -0.000005 -0.000006 0.000048
 25   4.941364 1.997338 1.629330 0.000018 -0.000001 -0.000024
 26   4.941382 1.997366 -1.629410 -0.000001 0.000005 -0.000024
 27   2.918368 1.615358 1.514501 -0.000019 -0.000022 -0.000050
 28   2.920798 1.614964 -1.501142 -0.000002 -0.000009 -0.000024
 29   8.824059 0.150544 0.091743 0.000006 -0.000231 -0.174534
 30   2.111085 -0.561179 1.784320 -0.000008 -0.000682 0.000024
 31   2.121290 -0.561289 -1.853599 0.000000 0.000000 -0.000002
 32   -0.810489 -0.093824 3.127092 0.338887 -3.077718 -0.167351
 33   14.298673 -0.408176 0.475484 0.013203 -0.091857 -0.496506
 34   15.835795 0.581398 0.242756 -0.532523 -0.064474 0.362871
 35   -0.815868 -0.091229 -3.114430 -0.002100 2.881638 -0.314968
 36   14.294526 -0.410349 -0.463635 -0.021444 0.095325 -0.575403
 37   15.834409 0.579420 -0.284600 -0.051525 0.043093 0.201376
 38   1.139685 -3.453749 -2.823813 0.000000 0.000000 0.000001
 39   -4.457742 -1.054854 -0.746180 0.000000 0.000000 0.000000
 40   1.118101 -3.449769 3.237290 0.000000 0.000001 0.000000
 41   -4.433840 -1.059130 0.959566 -0.000001 0.000000 0.000000
 42   -0.657468 1.697302 -2.688614 0.000000 0.000002 0.000000
 43   -0.664068 1.698578 2.869377 0.000000 0.000002 0.000000
time 29
  0   0.001233 -0.019532 2.285597 0.000000 0.000000 -1.571829
  1   -1.093036 0.000002 -0.326057 -1.570704 -1.570379 -0.000123
  2   2.262337 0.113614 0.064702 -0.000052 0.000061 -0.156091
  3   2.380047 0.353302 0.047440 -0.156701 -0.008022 -0.051606
  4   2.033756 0.190472 -0.000128 -0.060889 -0.001893 -0.035003
  5   2.451511 0.204909 -0.003447 -0.087142 -0.000801 -0.010785
  6   7.247600 -0.397300 -0.109469 0.000001 0.000009 -0.122015
  7   -2.022252 -0.104661 3.136172 1.338088 -0.831371 -4.280775
  8   1.168026 -0.537438 -0.063437 -1.210258 -0.177040 -0.649621
  9   6.790376 -0.619176 0.015206 -0.000213 -0.000352 -0.415148
 10   8.637599 0.544015 -0.090417 -0.154029 -0.203700 0.119175
 11   6.790465 -0.619039 0.017802 -0.001918 -0.011054 -0.305878
 12   -2.022474 -0.104699 -2.873818 0.293891 1.358201 -2.733575
 13   1.167898 -0.537463 0.063297 0.504290 -1.263198 -0.927060
 14   7.002743 -0.617765 -0.183752 0.000229 0.000250 -1.630803
 15   8.209042 0.615527 -0.255885 1.570090 -0.000063 -0.069646
 16   7.002735 -0.617911 -0.183641 0.013497 0.009003 -1.160198
 17   1.574674 0.609930 -0.000899 0.304164 0.020433 0.119191
 18   -0.602177 0.511412 -0.000006 0.000000 0.000000 0.000000
 19   3.673773 0.177020 1.119313 -0.000002 -0.000014 -0.174510
 20   3.673767 0.176993 -1.117566 0.000007 -0.000003 -0.174546
 21   3.942357 1.330634 1.627658 0.000002 -0.000011 -0.000026
 22   -0.246060 -0.011889 0.516521 -0.000011 0.000031 0.000025
 23   3.942374 1.330659 -1.631083 0.000019 0.000002 -0.000024
 24   -0.246150 -0.011872 -0.516511 -0.000005 -0.000006 0.000048
 25   4.941364 1.997338 1.629330 0.000018 -0.000001 -0.000024
 26   4.941382 1.997366 -1.629410 -0.000001 0.000005 -0.000024
 27   2.918368 1.615358 1.514501 -0.000019 -0.000022 -0.000050
 28   2.920798 1.614964 -1.501142 -0.000002 -0.000009 -0.000024
 29   8.824059 0.150544 0.091743 0.000006 -0.000231 -0.174534
 30   2.111085 -0.561179 1.784320 -0.000008 -0.000682 0.000024
 31   2.121290 -0.561289 -1.853599 0.000000 0.000000 -0.000002
 32   -0.810489 -0.093824 3.127092 0.338887 -3.077718 -0.167351
 33   14.298673 -0.408176 0.475484 0.013203 -0.091857 -0.496506
 34   15.835795 0.581398 0.242756 -0.532523 -0.064474 0.362871
 35   -0.815868 -0.091229 -3.114430 -0.002100 2.881638 -0.314968
 36   14.294526 -0.410349 -0.463635 -0.021444 0.095325 -0.575403
 37   15.834409 0.579420 -0.284600 -0.051525 0.043093 0.201376
 38   1.139685 -3.453749 -2.823813 0.000000 0.000000 0.000001
 39   -4.457742 -1.054854 -0.746180 0.000000 0.000000 0.000000
 40   1.118101 -3.449769 3.237290 0.000000 0.000001 0.000000
 41   -4.433840 -1.059130 0.959566 -0.000001 0.000000 0.000000
 42   -0.657468 1.697302 -2.688614 0.000000 0.000002 0.000000
 43   -0.664068 1.698578 2.869377 0.000000 0.000002 0.000000
time 30
  0   0.001233 -0.019532 2.285597 0.000000 0.000000 -1.571829
  1   -1.093036 0.000002 -0.326057 -1.570704 -1.570379 -0.000123
  2   2.262337 0.113614 0.064702 -0.000052 0.000061 -0.156091
  3   2.380047 0.353302 0.047440 -0.156701 -0.008022 -0.051606
  4   2.033756 0.190472 -0.000128 -0.060889 -0.001893 -0.035003
  5   2.451511 0.204909 -0.003447 -0.087142 -0.001258 -0.017472
  6   7.247600 -0.397300 -0.109469 0.000001 0.000009 -0.122015
  7   -2.022252 -0.104661 3.136172 1.345373 -0.832899 -4.290448
  8   1.168026 -0.537438 -0.063437 -1.213105 -0.165015 -0.647913
  9   6.790376 -0.619176 0.015206 -0.000213 -0.000352 -0.415148
 10   8.637599 0.544015 -0.090417 -0.154029 -0.203700 0.119175
 11   6.790465 -0.619039 0.017802 -0.001918 -0.011054 -0.305878
 12   -2.022474 -0.104699 -2.873818 0.298873 1.361683 -2.728405
 13   1.167898 -0.537463 0.063297 0.499791 -1.270521 -0.921309
 14   7.002743 -0.617765 -0.183752 0.000229 0.000250 -1.630803
 15   8.209042 0.615527 -0.255885 1.570090 -0.000063 -0.069646
 16   7.002735 -0.617911 -0.183641 0.013497 0.009003 -1.160198
 17   1.574674 0.609930 -0.000899 0.304164 0.020433 0.125844
 18   -0.602177 0.511412 -0.000006 0.000000 0.000000 0.000000
 19   3.673773 0.177020 1.119313 -0.000002 -0.000014 -0.174510
 20   3.673767 0.176993 -1.117566 0.000007 -0.000003 -0.174546
 21   3.942357 1.330634 1.627658 0.000002 -0.000011 -0.000026
 22   -0.246060 -0.011889 0.516521 -0.000011 0.000031 0.000025
 23   3.942374 1.330659 -1.631083 0.000019 0.000002 -0.000024
 24   -0.246150 -0.011872 -0.516511 -0.000005 -0.000006 0.000048
 25   4.941364 1.997338 1.629330 0.000018 -0.000001 -0.000024
 26   4.941382 1.997366 -1.629410 -0.000001 0.000005 -0.000024
 27   2.918368 1.615358 1.514501 -0.000019 -0.000022 -0.000050
 28   2.920798 1.614964 -1.501142 -0.000002 -0.000009 -0.000024
 29   8.824059 0.150544 0.091743 0.000006 -0.000231 -0.174534
 30   2.111085 -0.561179 1.784320 -0.000008 -0.000682 0.000024
 31   2.121290 -0.561289 -1.853599 0.000000 0.000000 -0.000002
 32   -0.810489 -0.093824 3.127092 0.338887 -3.077718 -0.167351
 33   14.298673 -0.408176 0.475484 0.013203 -0.091857 -0.496506
 34   15.835795 0.581398 0.242756 -0.532523 -0.064474 0.362871
 35   -0.815868 -0.091229 -3.114430 -0.002100 2.881638 -0.314968
 36   14.294526 -0.410349 -0.463635 -0.021444 0.095325 -0.575403
 37   15.834409 0.579420 -0.284600 -0.051525 0.043093 0.201376
 38   1.139685 -3.453749 -2.823813 0.000000 0.000000 0.000001
 39   -4.457742 -1.054854 -0.746180 0.000000 0.000000 0.000000
 40   1.118101 -3.449769 3.237290 0.000000 0.000001 0.000000
 41   -4.433840 -1.059130 0.959566 -0.000001 0.000000 0.000000
 42   -0.657468 1.697302 -2.688614 0.000000 0.000002 0.000000
 43   -0.664068 1.698578 2.869377 0.000000 0.000002 0.000000
end
