version 1
nodes
  0 "Bip01" -1
  1 "Bip01 Pelvis" 0
  2 "Bip01 Spine" 1
  3 "Bip01 Spine1" 2
  4 "Bip01 Spine2" 3
  5 "Bip01 Spine3" 4
  6 "Bip01 Neck" 5
  7 "Bip01 L Arm" 6
  8 "Bip01 L Arm1" 7
  9 "Bip01 L Arm2" 8
 10 "Bip01 L Hand" 9
 11 "Bip06 L elbow2-smooth" 8
 12 "Bip01 R Arm" 6
 13 "Bip01 R Arm1" 12
 14 "Bip01 R Arm2" 13
 15 "Bip01 R Hand" 14
 16 "Bip06 R elbow2-smooth" 13
 17 "Bip01 Head" 6
 18 "Bip06 Head_helper" 17
 19 "Bip06 Head_eyes_l" 18
 20 "Bip06 Head_eyes_r" 18
 21 "Bip06 Head_blink_l" 18
 22 "Bip06 Head_blink_smooth_l1" 21
 23 "Bip06 Head_blink_r" 18
 24 "Bip06 Head_blink_smooth_r1" 23
 25 "Bip06 Head_L_eyebrow" 18
 26 "Bip06 Head_R_eyebrow" 18
 27 "Bip06 Head_blink_l_lid" 18
 28 "Bip06 Head_blink_r_lid" 18
 29 "Bip06 bunny" 18
 30 "Bip06 bunnyL" 29
 31 "Bip06 bunnyR" 29
 32 "Bip01 L Leg" 1
 33 "Bip01 L Leg1" 32
 34 "Bip01 L Foot" 33
 35 "Bip01 R Leg" 1
 36 "Bip01 R Leg1" 35
 37 "Bip01 R Foot" 36
 38 "Bip03 HairR1" 17
 39 "Bip03 HairR2" 38
 40 "Bip03 HairL1" 17
 41 "Bip03 HairL2" 40
 42 "Bip03 swingR" 17
 43 "Bip03 swingL" 17
end
skeleton
time 0
  0   -0.010486 -0.546892 -0.601210 0.000000 0.000000 -1.571449
  1   -1.093036 0.000002 -0.326057 -0.214108 -1.569036 -1.356583
  2   2.262337 0.113614 0.064702 -0.325394 -0.120349 -0.019258
  3   2.380047 0.353302 0.047440 -0.422833 -0.011162 -0.029711
  4   2.033756 0.190472 -0.000128 -0.297249 -0.063914 -0.277496
  5   2.451511 0.204909 -0.003447 -0.516929 -0.029928 -0.271986
  6   7.247600 -0.397300 -0.109469 0.000001 0.000021 0.156829
  7   -2.022252 -0.104661 3.136172 0.805597 -0.995278 -3.940056
  8   1.168026 -0.537438 -0.063437 0.350302 0.993472 -0.542521
  9   6.790376 -0.619176 0.015206 0.044559 0.044031 -0.526689
 10   8.637599 0.544015 -0.090417 -3.044670 0.662243 -0.399172
 11   6.790465 -0.619039 0.017802 0.032154 0.017684 -0.384086
 12   -2.022474 -0.104699 -2.873818 -2.450311 1.732319 -5.756505
 13   1.167898 -0.537463 0.063297 -1.913759 -0.564834 1.744521
 14   7.002743 -0.617765 -0.183752 0.038260 -0.176180 -1.913879
 15   8.209042 0.615527 -0.255885 1.465112 -0.122102 0.424803
 16   7.002735 -0.617911 -0.183641 0.003800 -0.125201 -1.354366
 17   1.574674 0.609930 -0.000899 0.904935 -0.175837 0.289767
 18   -0.602177 0.511412 -0.000006 0.000000 0.000000 0.000000
 19   3.673773 0.177020 1.119313 -0.000002 -0.000014 -0.174510
 20   3.673767 0.176993 -1.117566 0.000007 -0.000003 -0.174546
 21   3.942357 1.330634 1.627658 0.000002 -0.000011 -0.000026
 22   -0.246060 -0.011889 0.516521 -0.000011 0.000031 0.000025
 23   3.942374 1.330659 -1.631083 0.000019 0.000002 -0.000024
 24   -0.246150 -0.011872 -0.516511 -0.000005 -0.000006 0.000048
 25   4.941364 1.997338 1.629330 0.000018 -0.000001 -0.000024
 26   4.941382 1.997366 -1.629410 -0.000001 0.000005 -0.000024
 27   2.918368 1.615358 1.514501 -0.000019 -0.000022 -0.000050
 28   2.920798 1.614964 -1.501142 -0.000002 -0.000009 -0.000024
 29   8.824059 0.150544 0.091743 0.000006 -0.000231 -0.174534
 30   2.111085 -0.561179 1.784320 -0.000008 -0.000682 0.000024
 31   2.121290 -0.561289 -1.853599 0.000000 0.000000 -0.000002
 32   -0.810489 -0.093824 3.127092 0.564080 -3.064347 -0.563586
 33   14.298673 -0.408176 0.475484 -0.006392 -0.009799 -0.413535
 34   15.835795 0.581398 0.242756 -0.007436 -0.212263 -0.117847
 35   -0.815868 -0.091229 -3.114430 -0.120039 3.021422 -0.057357
 36   14.294526 -0.410349 -0.463635 0.001663 0.012787 -0.721549
 37   15.834409 0.579420 -0.284600 -0.182270 -0.002314 0.569929
 38   1.139685 -3.453749 -2.823813 0.000000 0.000000 0.000001
 39   -4.457742 -1.054854 -0.746180 0.000000 0.000000 0.000000
 40   1.118101 -3.449769 3.237290 0.000000 0.000001 0.000000
 41   -4.433840 -1.059130 0.959566 -0.000001 0.000000 0.000000
 42   -0.657468 1.697302 -2.688614 0.000000 0.000002 0.000000
 43   -0.664068 1.698578 2.869377 0.000000 0.000002 0.000000
time 1
  0   -0.010486 -0.546892 -0.601210 0.000000 0.000000 -1.571449
  1   -1.093036 0.000002 -0.326057 -0.214108 -1.569036 -1.356583
  2   2.262337 0.113614 0.064702 -0.310160 -0.117604 -0.021083
  3   2.380047 0.353302 0.047440 -0.408927 -0.010467 -0.030037
  4   2.033756 0.190472 -0.000128 -0.291661 -0.063530 -0.276626
  5   2.451511 0.204909 -0.003447 -0.515611 -0.018975 -0.274735
  6   7.247600 -0.397300 -0.109469 0.000001 0.000021 0.156829
  7   -2.022252 -0.104661 3.136172 0.781345 -0.968181 -3.906247
  8   1.168026 -0.537438 -0.063437 0.320054 0.956139 -0.560487
  9   6.790376 -0.619176 0.015206 0.042562 0.037891 -0.464579
 10   8.637599 0.544015 -0.090417 -3.117940 0.693074 -0.436212
 11   6.790465 -0.619039 0.017802 0.029876 0.013818 -0.340772
 12   -2.022474 -0.104699 -2.873818 -2.463245 1.722741 -5.769813
 13   1.167898 -0.537463 0.063297 -1.925498 -0.624077 1.727995
 14   7.002743 -0.617765 -0.183752 0.035584 -0.174419 -1.883517
 15   8.209042 0.615527 -0.255885 1.500632 -0.102203 0.437913
 16   7.002735 -0.617911 -0.183641 0.003000 -0.123171 -1.333393
 17   1.574674 0.609930 -0.000899 0.962332 -0.165045 0.260530
 18   -0.602177 0.511412 -0.000006 0.000000 0.000000 0.000000
 19   3.673773 0.177020 1.119313 -0.000002 -0.000014 -0.174510
 20   3.673767 0.176993 -1.117566 0.000007 -0.000003 -0.174546
 21   3.942357 1.330634 1.627658 0.000002 -0.000011 -0.000026
 22   -0.246060 -0.011889 0.516521 -0.000011 0.000031 0.000025
 23   3.942374 1.330659 -1.631083 0.000019 0.000002 -0.000024
 24   -0.246150 -0.011872 -0.516511 -0.000005 -0.000006 0.000048
 25   4.941364 1.997338 1.629330 0.000018 -0.000001 -0.000024
 26   4.941382 1.997366 -1.629410 -0.000001 0.000005 -0.000024
 27   2.918368 1.615358 1.514501 -0.000019 -0.000022 -0.000050
 28   2.920798 1.614964 -1.501142 -0.000002 -0.000009 -0.000024
 29   8.824059 0.150544 0.091743 0.000006 -0.000231 -0.174534
 30   2.111085 -0.561179 1.784320 -0.000008 -0.000682 0.000024
 31   2.121290 -0.561289 -1.853599 0.000000 0.000000 -0.000002
 32   -0.810489 -0.093824 3.127092 0.564080 -3.064347 -0.563586
 33   14.298673 -0.408176 0.475484 -0.006392 -0.009799 -0.413535
 34   15.835795 0.581398 0.242756 -0.007436 -0.212263 -0.117847
 35   -0.815868 -0.091229 -3.114430 -0.120039 3.021422 -0.057357
 36   14.294526 -0.410349 -0.463635 0.001663 0.012787 -0.721549
 37   15.834409 0.579420 -0.284600 -0.182270 -0.002314 0.569929
 38   1.139685 -3.453749 -2.823813 0.000000 0.000000 0.000001
 39   -4.457742 -1.054854 -0.746180 0.000000 0.000000 0.000000
 40   1.118101 -3.449769 3.237290 0.000000 0.000001 0.000000
 41   -4.433840 -1.059130 0.959566 -0.000001 0.000000 0.000000
 42   -0.657468 1.697302 -2.688614 0.000000 0.000002 0.000000
 43   -0.664068 1.698578 2.869377 0.000000 0.000002 0.000000
time 2
  0   -0.010486 -0.546892 -0.601210 0.000000 0.000000 -1.571449
  1   -1.093036 0.000002 -0.326057 -0.214108 -1.569036 -1.356583
  2   2.262337 0.113614 0.064702 -0.288035 -0.116310 -0.024372
  3   2.380047 0.353302 0.047440 -0.389216 -0.012372 -0.030792
  4   2.033756 0.190472 -0.000128 -0.283159 -0.063866 -0.279417
  5   2.451511 0.204909 -0.003447 -0.514293 -0.001872 -0.279045
  6   7.247600 -0.397300 -0.109469 0.000001 0.000021 0.156829
  7   -2.022252 -0.104661 3.136172 0.774635 -0.969478 -3.888122
  8   1.168026 -0.537438 -0.063437 0.242915 0.941900 -0.545874
  9   6.790376 -0.619176 0.015206 0.041452 0.035288 -0.437864
 10   8.637599 0.544015 -0.090417 -3.152550 0.772193 -0.419356
 11   6.790465 -0.619039 0.017802 0.028884 0.012141 -0.321970
 12   -2.022474 -0.104699 -2.873818 -2.442934 1.720535 -5.752292
 13   1.167898 -0.537463 0.063297 -1.927606 -0.714341 1.663707
 14   7.002743 -0.617765 -0.183752 0.031941 -0.171183 -1.835994
 15   8.209042 0.615527 -0.255885 1.571528 -0.092368 0.445971
 16   7.002735 -0.617911 -0.183641 0.002058 -0.119957 -1.300553
 17   1.574674 0.609930 -0.000899 1.007745 -0.127533 0.235619
 18   -0.602177 0.511412 -0.000006 0.000000 0.000000 0.000000
 19   3.673773 0.177020 1.119313 -0.000002 -0.000014 -0.174510
 20   3.673767 0.176993 -1.117566 0.000007 -0.000003 -0.174546
 21   3.942357 1.330634 1.627658 0.000002 -0.000011 -0.000026
 22   -0.246060 -0.011889 0.516521 -0.000011 0.000031 0.000025
 23   3.942374 1.330659 -1.631083 0.000019 0.000002 -0.000024
 24   -0.246150 -0.011872 -0.516511 -0.000005 -0.000006 0.000048
 25   4.941364 1.997338 1.629330 0.000018 -0.000001 -0.000024
 26   4.941382 1.997366 -1.629410 -0.000001 0.000005 -0.000024
 27   2.918368 1.615358 1.514501 -0.000019 -0.000022 -0.000050
 28   2.920798 1.614964 -1.501142 -0.000002 -0.000009 -0.000024
 29   8.824059 0.150544 0.091743 0.000006 -0.000231 -0.174534
 30   2.111085 -0.561179 1.784320 -0.000008 -0.000682 0.000024
 31   2.121290 -0.561289 -1.853599 0.000000 0.000000 -0.000002
 32   -0.810489 -0.093824 3.127092 0.564080 -3.064347 -0.563586
 33   14.298673 -0.408176 0.475484 -0.006392 -0.009799 -0.413535
 34   15.835795 0.581398 0.242756 -0.007436 -0.212263 -0.117847
 35   -0.815868 -0.091229 -3.114430 -0.120039 3.021422 -0.057357
 36   14.294526 -0.410349 -0.463635 0.001663 0.012787 -0.721549
 37   15.834409 0.579420 -0.284600 -0.182270 -0.002314 0.569929
 38   1.139685 -3.453749 -2.823813 0.000000 0.000000 0.000001
 39   -4.457742 -1.054854 -0.746180 0.000000 0.000000 0.000000
 40   1.118101 -3.449769 3.237290 0.000000 0.000001 0.000000
 41   -4.433840 -1.059130 0.959566 -0.000001 0.000000 0.000000
 42   -0.657468 1.697302 -2.688614 0.000000 0.000002 0.000000
 43   -0.664068 1.698578 2.869377 0.000000 0.000002 0.000000
time 3
  0   -0.010486 -0.546892 -0.601210 0.000000 0.000000 -1.571449
  1   -1.093036 0.000002 -0.326057 -0.214108 -1.569036 -1.356583
  2   2.262337 0.113614 0.064702 -0.261783 -0.114620 -0.029486
  3   2.380047 0.353302 0.047440 -0.365560 -0.015764 -0.033037
  4   2.033756 0.190472 -0.000128 -0.272665 -0.064609 -0.285108
  5   2.451511 0.204909 -0.003447 -0.512102 0.015544 -0.289297
  6   7.247600 -0.397300 -0.109469 0.000001 0.000021 0.156829
  7   -2.022252 -0.104661 3.136172 0.746357 -0.988503 -3.858258
  8   1.168026 -0.537438 -0.063437 0.196784 0.912265 -0.479324
  9   6.790376 -0.619176 0.015206 0.043727 0.041361 -0.499370
 10   8.637599 0.544015 -0.090417 -3.197551 0.843780 -0.338041
 11   6.790465 -0.619039 0.017802 0.031132 0.015893 -0.365111
 12   -2.022474 -0.104699 -2.873818 -2.423293 1.720884 -5.731803
 13   1.167898 -0.537463 0.063297 -1.898645 -0.842491 1.541669
 14   7.002743 -0.617765 -0.183752 0.028582 -0.168287 -1.793091
 15   8.209042 0.615527 -0.255885 1.677298 -0.100161 0.468162
 16   7.002735 -0.617911 -0.183641 0.001117 -0.117081 -1.270694
 17   1.574674 0.609930 -0.000899 1.025212 -0.093216 0.215068
 18   -0.602177 0.511412 -0.000006 0.000000 0.000000 0.000000
 19   3.673773 0.177020 1.119313 -0.000002 -0.000014 -0.174510
 20   3.673767 0.176993 -1.117566 0.000007 -0.000003 -0.174546
 21   3.942357 1.330634 1.627658 0.000002 -0.000011 -0.000026
 22   -0.246060 -0.011889 0.516521 -0.000011 0.000031 0.000025
 23   3.942374 1.330659 -1.631083 0.000019 0.000002 -0.000024
 24   -0.246150 -0.011872 -0.516511 -0.000005 -0.000006 0.000048
 25   4.941364 1.997338 1.629330 0.000018 -0.000001 -0.000024
 26   4.941382 1.997366 -1.629410 -0.000001 0.000005 -0.000024
 27   2.918368 1.615358 1.514501 -0.000019 -0.000022 -0.000050
 28   2.920798 1.614964 -1.501142 -0.000002 -0.000009 -0.000024
 29   8.824059 0.150544 0.091743 0.000006 -0.000231 -0.174534
 30   2.111085 -0.561179 1.784320 -0.000008 -0.000682 0.000024
 31   2.121290 -0.561289 -1.853599 0.000000 0.000000 -0.000002
 32   -0.810489 -0.093824 3.127092 0.564080 -3.064347 -0.563586
 33   14.298673 -0.408176 0.475484 -0.006392 -0.009799 -0.413535
 34   15.835795 0.581398 0.242756 -0.007436 -0.212263 -0.117847
 35   -0.815868 -0.091229 -3.114430 -0.120039 3.021422 -0.057357
 36   14.294526 -0.410349 -0.463635 0.001663 0.012787 -0.721549
 37   15.834409 0.579420 -0.284600 -0.182270 -0.002314 0.569929
 38   1.139685 -3.453749 -2.823813 0.000000 0.000000 0.000001
 39   -4.457742 -1.054854 -0.746180 0.000000 0.000000 0.000000
 40   1.118101 -3.449769 3.237290 0.000000 0.000001 0.000000
 41   -4.433840 -1.059130 0.959566 -0.000001 0.000000 0.000000
 42   -0.657468 1.697302 -2.688614 0.000000 0.000002 0.000000
 43   -0.664068 1.698578 2.869377 0.000000 0.000002 0.000000
time 4
  0   -0.010486 -0.546892 -0.601210 0.000000 0.000000 -1.571449
  1   -1.093036 0.000002 -0.326057 -0.214108 -1.569036 -1.356583
  2   2.262337 0.113614 0.064702 -0.234754 -0.110761 -0.037455
  3   2.380047 0.353302 0.047440 -0.340778 -0.018796 -0.038587
  4   2.033756 0.190472 -0.000128 -0.261655 -0.065783 -0.294532
  5   2.451511 0.204909 -0.003447 -0.504194 0.018077 -0.296678
  6   7.247600 -0.397300 -0.109469 0.000001 0.000021 0.156829
  7   -2.022252 -0.104661 3.136172 0.709739 -1.012602 -3.810362
  8   1.168026 -0.537438 -0.063437 0.160334 0.827133 -0.374881
  9   6.790376 -0.619176 0.015206 0.047666 0.057445 -0.655663
 10   8.637599 0.544015 -0.090417 -3.248716 0.851945 -0.246381
 11   6.790465 -0.619039 0.017802 0.036270 0.026183 -0.474578
 12   -2.022474 -0.104699 -2.873818 -2.651505 1.720216 -5.957657
 13   1.167898 -0.537463 0.063297 -1.764594 -0.983964 1.301346
 14   7.002743 -0.617765 -0.183752 0.025450 -0.165163 -1.751426
 15   8.209042 0.615527 -0.255885 1.818731 -0.070805 0.434305
 16   7.002735 -0.617911 -0.183641 0.000458 -0.114205 -1.241773
 17   1.574674 0.609930 -0.000899 0.999621 -0.078874 0.219836
 18   -0.602177 0.511412 -0.000006 0.000000 0.000000 0.000000
 19   3.673773 0.177020 1.119313 -0.000002 -0.000014 -0.174510
 20   3.673767 0.176993 -1.117566 0.000007 -0.000003 -0.174546
 21   3.942357 1.330634 1.627658 0.000002 -0.000011 -0.000026
 22   -0.246060 -0.011889 0.516521 -0.000011 0.000031 0.000025
 23   3.942374 1.330659 -1.631083 0.000019 0.000002 -0.000024
 24   -0.246150 -0.011872 -0.516511 -0.000005 -0.000006 0.000048
 25   4.941364 1.997338 1.629330 0.000018 -0.000001 -0.000024
 26   4.941382 1.997366 -1.629410 -0.000001 0.000005 -0.000024
 27   2.918368 1.615358 1.514501 -0.000019 -0.000022 -0.000050
 28   2.920798 1.614964 -1.501142 -0.000002 -0.000009 -0.000024
 29   8.824059 0.150544 0.091743 0.000006 -0.000231 -0.174534
 30   2.111085 -0.561179 1.784320 -0.000008 -0.000682 0.000024
 31   2.121290 -0.561289 -1.853599 0.000000 0.000000 -0.000002
 32   -0.810489 -0.093824 3.127092 0.564080 -3.064347 -0.563586
 33   14.298673 -0.408176 0.475484 -0.006392 -0.009799 -0.413535
 34   15.835795 0.581398 0.242756 -0.007436 -0.212263 -0.117847
 35   -0.815868 -0.091229 -3.114430 -0.120039 3.021422 -0.057357
 36   14.294526 -0.410349 -0.463635 0.001663 0.012787 -0.721549
 37   15.834409 0.579420 -0.284600 -0.182270 -0.002314 0.569929
 38   1.139685 -3.453749 -2.823813 0.000000 0.000000 0.000001
 39   -4.457742 -1.054854 -0.746180 0.000000 0.000000 0.000000
 40   1.118101 -3.449769 3.237290 0.000000 0.000001 0.000000
 41   -4.433840 -1.059130 0.959566 -0.000001 0.000000 0.000000
 42   -0.657468 1.697302 -2.688614 0.000000 0.000002 0.000000
 43   -0.664068 1.698578 2.869377 0.000000 0.000002 0.000000
time 5
  0   -0.010486 -0.546892 -0.601210 0.000000 0.000000 -1.571449
  1   -1.093036 0.000002 -0.326057 -0.214108 -1.569036 -1.356583
  2   2.262337 0.113614 0.064702 -0.198694 -0.110581 -0.046491
  3   2.380047 0.353302 0.047440 -0.307656 -0.024033 -0.043321
  4   2.033756 0.190472 -0.000128 -0.246698 -0.066407 -0.303775
  5   2.451511 0.204909 -0.003447 -0.492709 0.020662 -0.306163
  6   7.247600 -0.397300 -0.109469 0.000001 0.000021 0.156829
  7   -2.022252 -0.104661 3.136172 0.689609 -1.038171 -3.775520
  8   1.168026 -0.537438 -0.063437 0.090789 0.745221 -0.288657
  9   6.790376 -0.619176 0.015206 0.049164 0.076400 -0.830521
 10   8.637599 0.544015 -0.090417 -3.292661 0.801475 -0.201021
 11   6.790465 -0.619039 0.017802 0.040737 0.038406 -0.596964
 12   -2.022474 -0.104699 -2.873818 -2.833060 1.712176 0.153785
 13   1.167898 -0.537463 0.063297 -1.446021 -1.097773 0.866525
 14   7.002743 -0.617765 -0.183752 0.022091 -0.161700 -1.703820
 15   8.209042 0.615527 -0.255885 2.019412 -0.030781 0.375430
 16   7.002735 -0.617911 -0.183641 -0.000343 -0.110991 -1.208712
 17   1.574674 0.609930 -0.000899 0.939544 -0.053952 0.242383
 18   -0.602177 0.511412 -0.000006 0.000000 0.000000 0.000000
 19   3.673773 0.177020 1.119313 -0.000002 -0.000014 -0.174510
 20   3.673767 0.176993 -1.117566 0.000007 -0.000003 -0.174546
 21   3.942357 1.330634 1.627658 0.000002 -0.000011 -0.000026
 22   -0.246060 -0.011889 0.516521 -0.000011 0.000031 0.000025
 23   3.942374 1.330659 -1.631083 0.000019 0.000002 -0.000024
 24   -0.246150 -0.011872 -0.516511 -0.000005 -0.000006 0.000048
 25   4.941364 1.997338 1.629330 0.000018 -0.000001 -0.000024
 26   4.941382 1.997366 -1.629410 -0.000001 0.000005 -0.000024
 27   2.918368 1.615358 1.514501 -0.000019 -0.000022 -0.000050
 28   2.920798 1.614964 -1.501142 -0.000002 -0.000009 -0.000024
 29   8.824059 0.150544 0.091743 0.000006 -0.000231 -0.174534
 30   2.111085 -0.561179 1.784320 -0.000008 -0.000682 0.000024
 31   2.121290 -0.561289 -1.853599 0.000000 0.000000 -0.000002
 32   -0.810489 -0.093824 3.127092 0.564080 -3.064347 -0.563586
 33   14.298673 -0.408176 0.475484 -0.006392 -0.009799 -0.413535
 34   15.835795 0.581398 0.242756 -0.007436 -0.212263 -0.117847
 35   -0.815868 -0.091229 -3.114430 -0.120039 3.021422 -0.057357
 36   14.294526 -0.410349 -0.463635 0.001663 0.012787 -0.721549
 37   15.834409 0.579420 -0.284600 -0.182270 -0.002314 0.569929
 38   1.139685 -3.453749 -2.823813 0.000000 0.000000 0.000001
 39   -4.457742 -1.054854 -0.746180 0.000000 0.000000 0.000000
 40   1.118101 -3.449769 3.237290 0.000000 0.000001 0.000000
 41   -4.433840 -1.059130 0.959566 -0.000001 0.000000 0.000000
 42   -0.657468 1.697302 -2.688614 0.000000 0.000002 0.000000
 43   -0.664068 1.698578 2.869377 0.000000 0.000002 0.000000
time 6
  0   -0.010486 -0.546892 -0.601210 0.000000 0.000000 -1.571449
  1   -1.093036 0.000002 -0.326057 -0.214108 -1.569036 -1.356583
  2   2.262337 0.113614 0.064702 -0.158914 -0.109730 -0.050593
  3   2.380047 0.353302 0.047440 -0.271248 -0.030601 -0.047280
  4   2.033756 0.190472 -0.000128 -0.230026 -0.066766 -0.317005
  5   2.451511 0.204909 -0.003447 -0.482610 0.031694 -0.321715
  6   7.247600 -0.397300 -0.109469 0.000001 0.000021 0.156829
  7   -2.022252 -0.104661 3.136172 0.690088 -1.065153 -3.783409
  8   1.168026 -0.537438 -0.063437 0.014662 0.712014 -0.221285
  9   6.790376 -0.619176 0.015206 0.047999 0.092084 -0.973532
 10   8.637599 0.544015 -0.090417 -3.340392 0.687654 -0.225256
 11   6.790465 -0.619039 0.017802 0.043307 0.048866 -0.696857
 12   -2.022474 -0.104699 -2.873818 3.303383 1.701118 0.030853
 13   1.167898 -0.537463 0.063297 -0.994311 -1.109062 0.328008
 14   7.002743 -0.617765 -0.183752 0.019416 -0.158690 -1.664135
 15   8.209042 0.615527 -0.255885 2.212758 0.011286 0.316255
 16   7.002735 -0.617911 -0.183641 -0.000955 -0.108341 -1.181116
 17   1.574674 0.609930 -0.000899 0.860294 -0.047633 0.264153
 18   -0.602177 0.511412 -0.000006 0.000000 0.000000 0.000000
 19   3.673773 0.177020 1.119313 -0.000002 -0.000014 -0.174510
 20   3.673767 0.176993 -1.117566 0.000007 -0.000003 -0.174546
 21   3.942357 1.330634 1.627658 0.000002 -0.000011 -0.000026
 22   -0.246060 -0.011889 0.516521 -0.000011 0.000031 0.000025
 23   3.942374 1.330659 -1.631083 0.000019 0.000002 -0.000024
 24   -0.246150 -0.011872 -0.516511 -0.000005 -0.000006 0.000048
 25   4.941364 1.997338 1.629330 0.000018 -0.000001 -0.000024
 26   4.941382 1.997366 -1.629410 -0.000001 0.000005 -0.000024
 27   2.918368 1.615358 1.514501 -0.000019 -0.000022 -0.000050
 28   2.920798 1.614964 -1.501142 -0.000002 -0.000009 -0.000024
 29   8.824059 0.150544 0.091743 0.000006 -0.000231 -0.174534
 30   2.111085 -0.561179 1.784320 -0.000008 -0.000682 0.000024
 31   2.121290 -0.561289 -1.853599 0.000000 0.000000 -0.000002
 32   -0.810489 -0.093824 3.127092 0.564080 -3.064347 -0.563586
 33   14.298673 -0.408176 0.475484 -0.006392 -0.009799 -0.413535
 34   15.835795 0.581398 0.242756 -0.007436 -0.212263 -0.117847
 35   -0.815868 -0.091229 -3.114430 -0.120039 3.021422 -0.057357
 36   14.294526 -0.410349 -0.463635 0.001663 0.012787 -0.721549
 37   15.834409 0.579420 -0.284600 -0.182270 -0.002314 0.569929
 38   1.139685 -3.453749 -2.823813 0.000000 0.000000 0.000001
 39   -4.457742 -1.054854 -0.746180 0.000000 0.000000 0.000000
 40   1.118101 -3.449769 3.237290 0.000000 0.000001 0.000000
 41   -4.433840 -1.059130 0.959566 -0.000001 0.000000 0.000000
 42   -0.657468 1.697302 -2.688614 0.000000 0.000002 0.000000
 43   -0.664068 1.698578 2.869377 0.000000 0.000002 0.000000
time 7
  0   -0.010486 -0.546892 -0.601210 0.000000 0.000000 -1.571449
  1   -1.093036 0.000002 -0.326057 -0.214108 -1.569036 -1.356583
  2   2.262337 0.113614 0.064702 -0.124319 -0.098932 -0.053376
  3   2.380047 0.353302 0.047440 -0.239686 -0.031679 -0.053973
  4   2.033756 0.190472 -0.000128 -0.215899 -0.065879 -0.332881
  5   2.451511 0.204909 -0.003447 -0.466520 0.019735 -0.331077
  6   7.247600 -0.397300 -0.109469 0.000001 0.000021 0.156829
  7   -2.022252 -0.104661 3.136172 0.673409 -1.110756 -3.803788
  8   1.168026 -0.537438 -0.063437 -0.072728 0.733800 -0.189971
  9   6.790376 -0.619176 0.015206 0.046501 0.099558 -1.043113
 10   8.637599 0.544015 -0.090417 -3.376234 0.558206 -0.322487
 11   6.790465 -0.619039 0.017802 0.044153 0.054068 -0.745419
 12   -2.022474 -0.104699 -2.873818 -0.219539 1.461961 -3.468388
 13   1.167898 -0.537463 0.063297 -0.667795 -1.058871 -0.046582
 14   7.002743 -0.617765 -0.183752 0.017594 -0.156191 -1.635258
 15   8.209042 0.615527 -0.255885 2.354120 0.079758 0.288291
 16   7.002735 -0.617911 -0.183641 -0.001237 -0.106198 -1.161081
 17   1.574674 0.609930 -0.000899 0.776901 -0.069715 0.304329
 18   -0.602177 0.511412 -0.000006 0.000000 0.000000 0.000000
 19   3.673773 0.177020 1.119313 -0.000002 -0.000014 -0.174510
 20   3.673767 0.176993 -1.117566 0.000007 -0.000003 -0.174546
 21   3.942357 1.330634 1.627658 0.000002 -0.000011 -0.000026
 22   -0.246060 -0.011889 0.516521 -0.000011 0.000031 0.000025
 23   3.942374 1.330659 -1.631083 0.000019 0.000002 -0.000024
 24   -0.246150 -0.011872 -0.516511 -0.000005 -0.000006 0.000048
 25   4.941364 1.997338 1.629330 0.000018 -0.000001 -0.000024
 26   4.941382 1.997366 -1.629410 -0.000001 0.000005 -0.000024
 27   2.918368 1.615358 1.514501 -0.000019 -0.000022 -0.000050
 28   2.920798 1.614964 -1.501142 -0.000002 -0.000009 -0.000024
 29   8.824059 0.150544 0.091743 0.000006 -0.000231 -0.174534
 30   2.111085 -0.561179 1.784320 -0.000008 -0.000682 0.000024
 31   2.121290 -0.561289 -1.853599 0.000000 0.000000 -0.000002
 32   -0.810489 -0.093824 3.127092 0.564080 -3.064347 -0.563586
 33   14.298673 -0.408176 0.475484 -0.006392 -0.009799 -0.413535
 34   15.835795 0.581398 0.242756 -0.007436 -0.212263 -0.117847
 35   -0.815868 -0.091229 -3.114430 -0.120039 3.021422 -0.057357
 36   14.294526 -0.410349 -0.463635 0.001663 0.012787 -0.721549
 37   15.834409 0.579420 -0.284600 -0.182270 -0.002314 0.569929
 38   1.139685 -3.453749 -2.823813 0.000000 0.000000 0.000001
 39   -4.457742 -1.054854 -0.746180 0.000000 0.000000 0.000000
 40   1.118101 -3.449769 3.237290 0.000000 0.000001 0.000000
 41   -4.433840 -1.059130 0.959566 -0.000001 0.000000 0.000000
 42   -0.657468 1.697302 -2.688614 0.000000 0.000002 0.000000
 43   -0.664068 1.698578 2.869377 0.000000 0.000002 0.000000
time 8
  0   -0.010486 -0.546892 -0.601210 0.000000 0.000000 -1.571449
  1   -1.093036 0.000002 -0.326057 -0.214108 -1.569036 -1.356583
  2   2.262337 0.113614 0.064702 -0.098360 -0.087942 -0.054370
  3   2.380047 0.353302 0.047440 -0.216195 -0.032267 -0.061482
  4   2.033756 0.190472 -0.000128 -0.205368 -0.064393 -0.349084
  5   2.451511 0.204909 -0.003447 -0.452176 0.003455 -0.338383
  6   7.247600 -0.397300 -0.109469 0.000001 0.000021 0.156829
  7   -2.022252 -0.104661 3.136172 0.627493 -1.143099 -3.776929
  8   1.168026 -0.537438 -0.063437 -0.204731 0.753221 -0.215971
  9   6.790376 -0.619176 0.015206 0.045946 0.104164 -1.075111
 10   8.637599 0.544015 -0.090417 -3.369013 0.425309 -0.419356
 11   6.790465 -0.619039 0.017802 0.044708 0.057195 -0.767797
 12   -2.022474 -0.104699 -2.873818 -0.739580 1.466663 -3.980220
 13   1.167898 -0.537463 0.063297 -0.475048 -0.983964 -0.282728
 14   7.002743 -0.617765 -0.183752 0.015316 -0.153012 -1.597388
 15   8.209042 0.615527 -0.255885 2.491742 0.163362 0.263755
 16   7.002735 -0.617911 -0.183641 -0.001520 -0.103548 -1.134809
 17   1.574674 0.609930 -0.000899 0.712355 -0.080365 0.359290
 18   -0.602177 0.511412 -0.000006 0.000000 0.000000 0.000000
 19   3.673773 0.177020 1.119313 -0.000002 -0.000014 -0.174510
 20   3.673767 0.176993 -1.117566 0.000007 -0.000003 -0.174546
 21   3.942357 1.330634 1.627658 0.000002 -0.000011 -0.000026
 22   -0.246060 -0.011889 0.516521 -0.000011 0.000031 0.000025
 23   3.942374 1.330659 -1.631083 0.000019 0.000002 -0.000024
 24   -0.246150 -0.011872 -0.516511 -0.000005 -0.000006 0.000048
 25   4.941364 1.997338 1.629330 0.000018 -0.000001 -0.000024
 26   4.941382 1.997366 -1.629410 -0.000001 0.000005 -0.000024
 27   2.918368 1.615358 1.514501 -0.000019 -0.000022 -0.000050
 28   2.920798 1.614964 -1.501142 -0.000002 -0.000009 -0.000024
 29   8.824059 0.150544 0.091743 0.000006 -0.000231 -0.174534
 30   2.111085 -0.561179 1.784320 -0.000008 -0.000682 0.000024
 31   2.121290 -0.561289 -1.853599 0.000000 0.000000 -0.000002
 32   -0.810489 -0.093824 3.127092 0.564080 -3.064347 -0.563586
 33   14.298673 -0.408176 0.475484 -0.006392 -0.009799 -0.413535
 34   15.835795 0.581398 0.242756 -0.007436 -0.212263 -0.117847
 35   -0.815868 -0.091229 -3.114430 -0.120039 3.021422 -0.057357
 36   14.294526 -0.410349 -0.463635 0.001663 0.012787 -0.721549
 37   15.834409 0.579420 -0.284600 -0.182270 -0.002314 0.569929
 38   1.139685 -3.453749 -2.823813 0.000000 0.000000 0.000001
 39   -4.457742 -1.054854 -0.746180 0.000000 0.000000 0.000000
 40   1.118101 -3.449769 3.237290 0.000000 0.000001 0.000000
 41   -4.433840 -1.059130 0.959566 -0.000001 0.000000 0.000000
 42   -0.657468 1.697302 -2.688614 0.000000 0.000002 0.000000
 43   -0.664068 1.698578 2.869377 0.000000 0.000002 0.000000
time 9
  0   -0.010486 -0.546892 -0.601210 0.000000 0.000000 -1.571449
  1   -1.093036 0.000002 -0.326057 -0.214108 -1.569036 -1.356583
  2   2.262337 0.113614 0.064702 -0.077853 -0.079829 -0.059104
  3   2.380047 0.353302 0.047440 -0.197818 -0.032398 -0.068379
  4   2.033756 0.190472 -0.000128 -0.197235 -0.063039 -0.360393
  5   2.451511 0.204909 -0.003447 -0.440708 -0.010097 -0.343658
  6   7.247600 -0.397300 -0.109469 0.000001 0.000021 0.156829
  7   -2.022252 -0.104661 3.136172 0.615894 -1.163883 -3.782470
  8   1.168026 -0.537438 -0.063437 -0.349264 0.797196 -0.258482
  9   6.790376 -0.619176 0.015206 0.045613 0.106967 -1.090582
 10   8.637599 0.544015 -0.090417 -3.329560 0.305012 -0.460592
 11   6.790465 -0.619039 0.017802 0.045117 0.059156 -0.778467
 12   -2.022474 -0.104699 -2.873818 -1.392601 1.450642 -4.662950
 13   1.167898 -0.537463 0.063297 -0.383455 -0.982489 -0.375467
 14   7.002743 -0.617765 -0.183752 0.014975 -0.152387 -1.574369
 15   8.209042 0.615527 -0.255885 2.573136 0.197257 0.251367
 16   7.002735 -0.617911 -0.183641 -0.001237 -0.102984 -1.118803
 17   1.574674 0.609930 -0.000899 0.656990 -0.076105 0.415582
 18   -0.602177 0.511412 -0.000006 0.000000 0.000000 0.000000
 19   3.673773 0.177020 1.119313 -0.000002 -0.000014 -0.174510
 20   3.673767 0.176993 -1.117566 0.000007 -0.000003 -0.174546
 21   3.942357 1.330634 1.627658 0.000002 -0.000011 -0.000026
 22   -0.246060 -0.011889 0.516521 -0.000011 0.000031 0.000025
 23   3.942374 1.330659 -1.631083 0.000019 0.000002 -0.000024
 24   -0.246150 -0.011872 -0.516511 -0.000005 -0.000006 0.000048
 25   4.941364 1.997338 1.629330 0.000018 -0.000001 -0.000024
 26   4.941382 1.997366 -1.629410 -0.000001 0.000005 -0.000024
 27   2.918368 1.615358 1.514501 -0.000019 -0.000022 -0.000050
 28   2.920798 1.614964 -1.501142 -0.000002 -0.000009 -0.000024
 29   8.824059 0.150544 0.091743 0.000006 -0.000231 -0.174534
 30   2.111085 -0.561179 1.784320 -0.000008 -0.000682 0.000024
 31   2.121290 -0.561289 -1.853599 0.000000 0.000000 -0.000002
 32   -0.810489 -0.093824 3.127092 0.564080 -3.064347 -0.563586
 33   14.298673 -0.408176 0.475484 -0.006392 -0.009799 -0.413535
 34   15.835795 0.581398 0.242756 -0.007436 -0.212263 -0.117847
 35   -0.815868 -0.091229 -3.114430 -0.120039 3.021422 -0.057357
 36   14.294526 -0.410349 -0.463635 0.001663 0.012787 -0.721549
 37   15.834409 0.579420 -0.284600 -0.182270 -0.002314 0.569929
 38   1.139685 -3.453749 -2.823813 0.000000 0.000000 0.000001
 39   -4.457742 -1.054854 -0.746180 0.000000 0.000000 0.000000
 40   1.118101 -3.449769 3.237290 0.000000 0.000001 0.000000
 41   -4.433840 -1.059130 0.959566 -0.000001 0.000000 0.000000
 42   -0.657468 1.697302 -2.688614 0.000000 0.000002 0.000000
 43   -0.664068 1.698578 2.869377 0.000000 0.000002 0.000000
time 10
  0   -0.010486 -0.546892 -0.601210 0.000000 0.000000 -1.571449
  1   -1.093036 0.000002 -0.326057 -0.214108 -1.569036 -1.356583
  2   2.262337 0.113614 0.064702 -0.061715 -0.077420 -0.065393
  3   2.380047 0.353302 0.047440 -0.184287 -0.032818 -0.074093
  4   2.033756 0.190472 -0.000128 -0.190946 -0.062440 -0.368621
  5   2.451511 0.204909 -0.003447 -0.433981 -0.014875 -0.349997
  6   7.247600 -0.397300 -0.109469 0.000001 0.000021 0.156829
  7   -2.022252 -0.104661 3.136172 0.597106 -1.173655 -3.790358
  8   1.168026 -0.537438 -0.063437 -0.443931 0.822001 -0.284735
  9   6.790376 -0.619176 0.015206 0.043727 0.110237 -1.140466
 10   8.637599 0.544015 -0.090417 -3.283150 0.163527 -0.445255
 11   6.790465 -0.619039 0.017802 0.044971 0.061430 -0.813245
 12   -2.022474 -0.104699 -2.873818 -1.806870 1.404145 -5.107859
 13   1.167898 -0.537463 0.063297 -0.332773 -1.006136 -0.404100
 14   7.002743 -0.617765 -0.183752 0.015658 -0.152955 -1.586910
 15   8.209042 0.615527 -0.255885 2.615990 0.225554 0.241144
 16   7.002735 -0.617911 -0.183641 -0.001096 -0.103548 -1.127413
 17   1.574674 0.609930 -0.000899 0.615192 -0.052154 0.444338
 18   -0.602177 0.511412 -0.000006 0.000000 0.000000 0.000000
 19   3.673773 0.177020 1.119313 -0.000002 -0.000014 -0.174510
 20   3.673767 0.176993 -1.117566 0.000007 -0.000003 -0.174546
 21   3.942357 1.330634 1.627658 0.000002 -0.000011 -0.000026
 22   -0.246060 -0.011889 0.516521 -0.000011 0.000031 0.000025
 23   3.942374 1.330659 -1.631083 0.000019 0.000002 -0.000024
 24   -0.246150 -0.011872 -0.516511 -0.000005 -0.000006 0.000048
 25   4.941364 1.997338 1.629330 0.000018 -0.000001 -0.000024
 26   4.941382 1.997366 -1.629410 -0.000001 0.000005 -0.000024
 27   2.918368 1.615358 1.514501 -0.000019 -0.000022 -0.000050
 28   2.920798 1.614964 -1.501142 -0.000002 -0.000009 -0.000024
 29   8.824059 0.150544 0.091743 0.000006 -0.000231 -0.174534
 30   2.111085 -0.561179 1.784320 -0.000008 -0.000682 0.000024
 31   2.121290 -0.561289 -1.853599 0.000000 0.000000 -0.000002
 32   -0.810489 -0.093824 3.127092 0.564080 -3.064347 -0.563586
 33   14.298673 -0.408176 0.475484 -0.006392 -0.009799 -0.413535
 34   15.835795 0.581398 0.242756 -0.007436 -0.212263 -0.117847
 35   -0.815868 -0.091229 -3.114430 -0.120039 3.021422 -0.057357
 36   14.294526 -0.410349 -0.463635 0.001663 0.012787 -0.721549
 37   15.834409 0.579420 -0.284600 -0.182270 -0.002314 0.569929
 38   1.139685 -3.453749 -2.823813 0.000000 0.000000 0.000001
 39   -4.457742 -1.054854 -0.746180 0.000000 0.000000 0.000000
 40   1.118101 -3.449769 3.237290 0.000000 0.000001 0.000000
 41   -4.433840 -1.059130 0.959566 -0.000001 0.000000 0.000000
 42   -0.657468 1.697302 -2.688614 0.000000 0.000002 0.000000
 43   -0.664068 1.698578 2.869377 0.000000 0.000002 0.000000
time 11
  0   -0.010486 -0.546892 -0.601210 0.000000 0.000000 -1.571449
  1   -1.093036 0.000002 -0.326057 -0.214108 -1.569036 -1.356583
  2   2.262337 0.113614 0.064702 -0.051117 -0.076161 -0.070507
  3   2.380047 0.353302 0.047440 -0.175617 -0.033561 -0.079276
  4   2.033756 0.190472 -0.000128 -0.186815 -0.062667 -0.376414
  5   2.451511 0.204909 -0.003447 -0.429633 -0.018883 -0.356536
  6   7.247600 -0.397300 -0.109469 0.000001 0.000021 0.156829
  7   -2.022252 -0.104661 3.136172 0.559529 -1.181669 -3.772421
  8   1.168026 -0.537438 -0.063437 -0.514046 0.793322 -0.331358
  9   6.790376 -0.619176 0.015206 0.042839 0.111105 -1.161144
 10   8.637599 0.544015 -0.090417 -3.275136 0.075117 -0.376094
 11   6.790465 -0.619039 0.017802 0.044708 0.062084 -0.827779
 12   -2.022474 -0.104699 -2.873818 -1.995898 1.372045 -5.300011
 13   1.167898 -0.537463 0.063297 -0.259526 -1.012849 -0.470507
 14   7.002743 -0.617765 -0.183752 0.016683 -0.154204 -1.610754
 15   8.209042 0.615527 -0.255885 2.662080 0.267091 0.258283
 16   7.002735 -0.617911 -0.183641 -0.001049 -0.104563 -1.144026
 17   1.574674 0.609930 -0.000899 0.585986 -0.030073 0.456424
 18   -0.602177 0.511412 -0.000006 0.000000 0.000000 0.000000
 19   3.673773 0.177020 1.119313 -0.000002 -0.000014 -0.174510
 20   3.673767 0.176993 -1.117566 0.000007 -0.000003 -0.174546
 21   3.942357 1.330634 1.627658 0.000002 -0.000011 -0.000026
 22   -0.246060 -0.011889 0.516521 -0.000011 0.000031 0.000025
 23   3.942374 1.330659 -1.631083 0.000019 0.000002 -0.000024
 24   -0.246150 -0.011872 -0.516511 -0.000005 -0.000006 0.000048
 25   4.941364 1.997338 1.629330 0.000018 -0.000001 -0.000024
 26   4.941382 1.997366 -1.629410 -0.000001 0.000005 -0.000024
 27   2.918368 1.615358 1.514501 -0.000019 -0.000022 -0.000050
 28   2.920798 1.614964 -1.501142 -0.000002 -0.000009 -0.000024
 29   8.824059 0.150544 0.091743 0.000006 -0.000231 -0.174534
 30   2.111085 -0.561179 1.784320 -0.000008 -0.000682 0.000024
 31   2.121290 -0.561289 -1.853599 0.000000 0.000000 -0.000002
 32   -0.810489 -0.093824 3.127092 0.564080 -3.064347 -0.563586
 33   14.298673 -0.408176 0.475484 -0.006392 -0.009799 -0.413535
 34   15.835795 0.581398 0.242756 -0.007436 -0.212263 -0.117847
 35   -0.815868 -0.091229 -3.114430 -0.120039 3.021422 -0.057357
 36   14.294526 -0.410349 -0.463635 0.001663 0.012787 -0.721549
 37   15.834409 0.579420 -0.284600 -0.182270 -0.002314 0.569929
 38   1.139685 -3.453749 -2.823813 0.000000 0.000000 0.000001
 39   -4.457742 -1.054854 -0.746180 0.000000 0.000000 0.000000
 40   1.118101 -3.449769 3.237290 0.000000 0.000001 0.000000
 41   -4.433840 -1.059130 0.959566 -0.000001 0.000000 0.000000
 42   -0.657468 1.697302 -2.688614 0.000000 0.000002 0.000000
 43   -0.664068 1.698578 2.869377 0.000000 0.000002 0.000000
time 12
  0   -0.010486 -0.546892 -0.601210 0.000000 0.000000 -1.571449
  1   -1.093036 0.000002 -0.326057 -0.214108 -1.569036 -1.356583
  2   2.262337 0.113614 0.064702 -0.044150 -0.075598 -0.076127
  3   2.380047 0.353302 0.047440 -0.169211 -0.034316 -0.083928
  4   2.033756 0.190472 -0.000128 -0.183809 -0.062967 -0.383047
  5   2.451511 0.204909 -0.003447 -0.425388 -0.025607 -0.361712
  6   7.247600 -0.397300 -0.109469 0.000001 0.000021 0.156829
  7   -2.022252 -0.104661 3.136172 0.549752 -1.189077 -3.773736
  8   1.168026 -0.537438 -0.063437 -0.561190 0.774202 -0.358813
  9   6.790376 -0.619176 0.015206 0.042118 0.110571 -1.167106
 10   8.637599 0.544015 -0.090417 -3.287201 0.011906 -0.291017
 11   6.790465 -0.619039 0.017802 0.044358 0.061828 -0.832047
 12   -2.022474 -0.104699 -2.873818 -2.090172 1.357446 -5.401018
 13   1.167898 -0.537463 0.063297 -0.200339 -1.019409 -0.537095
 14   7.002743 -0.617765 -0.183752 0.017024 -0.155396 -1.621480
 15   8.209042 0.615527 -0.255885 2.682356 0.291302 0.271513
 16   7.002735 -0.617911 -0.183641 -0.001190 -0.105578 -1.151588
 17   1.574674 0.609930 -0.000899 0.566935 -0.006926 0.475607
 18   -0.602177 0.511412 -0.000006 0.000000 0.000000 0.000000
 19   3.673773 0.177020 1.119313 -0.000002 -0.000014 -0.174510
 20   3.673767 0.176993 -1.117566 0.000007 -0.000003 -0.174546
 21   3.942357 1.330634 1.627658 0.000002 -0.000011 -0.000026
 22   -0.246060 -0.011889 0.516521 -0.000011 0.000031 0.000025
 23   3.942374 1.330659 -1.631083 0.000019 0.000002 -0.000024
 24   -0.246150 -0.011872 -0.516511 -0.000005 -0.000006 0.000048
 25   4.941364 1.997338 1.629330 0.000018 -0.000001 -0.000024
 26   4.941382 1.997366 -1.629410 -0.000001 0.000005 -0.000024
 27   2.918368 1.615358 1.514501 -0.000019 -0.000022 -0.000050
 28   2.920798 1.614964 -1.501142 -0.000002 -0.000009 -0.000024
 29   8.824059 0.150544 0.091743 0.000006 -0.000231 -0.174534
 30   2.111085 -0.561179 1.784320 -0.000008 -0.000682 0.000024
 31   2.121290 -0.561289 -1.853599 0.000000 0.000000 -0.000002
 32   -0.810489 -0.093824 3.127092 0.564080 -3.064347 -0.563586
 33   14.298673 -0.408176 0.475484 -0.006392 -0.009799 -0.413535
 34   15.835795 0.581398 0.242756 -0.007436 -0.212263 -0.117847
 35   -0.815868 -0.091229 -3.114430 -0.120039 3.021422 -0.057357
 36   14.294526 -0.410349 -0.463635 0.001663 0.012787 -0.721549
 37   15.834409 0.579420 -0.284600 -0.182270 -0.002314 0.569929
 38   1.139685 -3.453749 -2.823813 0.000000 0.000000 0.000001
 39   -4.457742 -1.054854 -0.746180 0.000000 0.000000 0.000000
 40   1.118101 -3.449769 3.237290 0.000000 0.000001 0.000000
 41   -4.433840 -1.059130 0.959566 -0.000001 0.000000 0.000000
 42   -0.657468 1.697302 -2.688614 0.000000 0.000002 0.000000
 43   -0.664068 1.698578 2.869377 0.000000 0.000002 0.000000
time 13
  0   -0.010486 -0.546892 -0.601210 0.000000 0.000000 -1.571449
  1   -1.093036 0.000002 -0.326057 -0.214108 -1.569036 -1.356583
  2   2.262337 0.113614 0.064702 -0.039857 -0.074711 -0.079687
  3   2.380047 0.353302 0.047440 -0.165146 -0.034963 -0.087091
  4   2.033756 0.190472 -0.000128 -0.181651 -0.063159 -0.388013
  5   2.451511 0.204909 -0.003447 -0.422307 -0.031234 -0.365922
  6   7.247600 -0.397300 -0.109469 0.000001 0.000021 0.156829
  7   -2.022252 -0.104661 3.136172 0.546397 -1.204240 -3.775896
  8   1.168026 -0.537438 -0.063437 -0.606309 0.785724 -0.402336
  9   6.790376 -0.619176 0.015206 0.042562 0.108435 -1.148767
 10   8.637599 0.544015 -0.090417 -3.317583 -0.004284 -0.224967
 11   6.790465 -0.619039 0.017802 0.044066 0.060350 -0.819185
 12   -2.022474 -0.104699 -2.873818 -2.113166 1.359739 -5.441421
 13   1.167898 -0.537463 0.063297 -0.188600 -1.030901 -0.564578
 14   7.002743 -0.617765 -0.183752 0.018106 -0.156419 -1.640951
 15   8.209042 0.615527 -0.255885 2.666969 0.305072 0.304047
 16   7.002735 -0.617911 -0.183641 -0.000955 -0.106480 -1.165055
 17   1.574674 0.609930 -0.000899 0.556252 0.014161 0.503217
 18   -0.602177 0.511412 -0.000006 0.000000 0.000000 0.000000
 19   3.673773 0.177020 1.119313 -0.000002 -0.000014 -0.174510
 20   3.673767 0.176993 -1.117566 0.000007 -0.000003 -0.174546
 21   3.942357 1.330634 1.627658 0.000002 -0.000011 -0.000026
 22   -0.246060 -0.011889 0.516521 -0.000011 0.000031 0.000025
 23   3.942374 1.330659 -1.631083 0.000019 0.000002 -0.000024
 24   -0.246150 -0.011872 -0.516511 -0.000005 -0.000006 0.000048
 25   4.941364 1.997338 1.629330 0.000018 -0.000001 -0.000024
 26   4.941382 1.997366 -1.629410 -0.000001 0.000005 -0.000024
 27   2.918368 1.615358 1.514501 -0.000019 -0.000022 -0.000050
 28   2.920798 1.614964 -1.501142 -0.000002 -0.000009 -0.000024
 29   8.824059 0.150544 0.091743 0.000006 -0.000231 -0.174534
 30   2.111085 -0.561179 1.784320 -0.000008 -0.000682 0.000024
 31   2.121290 -0.561289 -1.853599 0.000000 0.000000 -0.000002
 32   -0.810489 -0.093824 3.127092 0.564080 -3.064347 -0.563586
 33   14.298673 -0.408176 0.475484 -0.006392 -0.009799 -0.413535
 34   15.835795 0.581398 0.242756 -0.007436 -0.212263 -0.117847
 35   -0.815868 -0.091229 -3.114430 -0.120039 3.021422 -0.057357
 36   14.294526 -0.410349 -0.463635 0.001663 0.012787 -0.721549
 37   15.834409 0.579420 -0.284600 -0.182270 -0.002314 0.569929
 38   1.139685 -3.453749 -2.823813 0.000000 0.000000 0.000001
 39   -4.457742 -1.054854 -0.746180 0.000000 0.000000 0.000000
 40   1.118101 -3.449769 3.237290 0.000000 0.000001 0.000000
 41   -4.433840 -1.059130 0.959566 -0.000001 0.000000 0.000000
 42   -0.657468 1.697302 -2.688614 0.000000 0.000002 0.000000
 43   -0.664068 1.698578 2.869377 0.000000 0.000002 0.000000
time 14
  0   -0.010486 -0.546892 -0.601210 0.000000 0.000000 -1.571449
  1   -1.093036 0.000002 -0.326057 -0.214108 -1.569036 -1.356583
  2   2.262337 0.113614 0.064702 -0.037437 -0.073057 -0.081259
  3   2.380047 0.353302 0.047440 -0.162671 -0.035335 -0.089213
  4   2.033756 0.190472 -0.000128 -0.180729 -0.063362 -0.391819
  5   2.451511 0.204909 -0.003447 -0.420253 -0.034315 -0.368572
  6   7.247600 -0.397300 -0.109469 0.000001 0.000021 0.156829
  7   -2.022252 -0.104661 3.136172 0.554641 -1.219720 -3.782282
  8   1.168026 -0.537438 -0.063437 -0.659591 0.772190 -0.474959
  9   6.790376 -0.619176 0.015206 0.044115 0.104898 -1.106128
 10   8.637599 0.544015 -0.090417 -3.338983 0.007612 -0.163619
 11   6.790465 -0.619039 0.017802 0.044066 0.057792 -0.789309
 12   -2.022474 -0.104699 -2.873818 -2.100136 1.368272 -5.432517
 13   1.167898 -0.537463 0.063297 -0.183398 -1.032020 -0.581709
 14   7.002743 -0.617765 -0.183752 0.018789 -0.157554 -1.651099
 15   8.209042 0.615527 -0.255885 2.656903 0.340253 0.325336
 16   7.002735 -0.617911 -0.183641 -0.000908 -0.107495 -1.172009
 17   1.574674 0.609930 -0.000899 0.547925 0.023912 0.539253
 18   -0.602177 0.511412 -0.000006 0.000000 0.000000 0.000000
 19   3.673773 0.177020 1.119313 -0.000002 -0.000014 -0.174510
 20   3.673767 0.176993 -1.117566 0.000007 -0.000003 -0.174546
 21   3.942357 1.330634 1.627658 0.000002 -0.000011 -0.000026
 22   -0.246060 -0.011889 0.516521 -0.000011 0.000031 0.000025
 23   3.942374 1.330659 -1.631083 0.000019 0.000002 -0.000024
 24   -0.246150 -0.011872 -0.516511 -0.000005 -0.000006 0.000048
 25   4.941364 1.997338 1.629330 0.000018 -0.000001 -0.000024
 26   4.941382 1.997366 -1.629410 -0.000001 0.000005 -0.000024
 27   2.918368 1.615358 1.514501 -0.000019 -0.000022 -0.000050
 28   2.920798 1.614964 -1.501142 -0.000002 -0.000009 -0.000024
 29   8.824059 0.150544 0.091743 0.000006 -0.000231 -0.174534
 30   2.111085 -0.561179 1.784320 -0.000008 -0.000682 0.000024
 31   2.121290 -0.561289 -1.853599 0.000000 0.000000 -0.000002
 32   -0.810489 -0.093824 3.127092 0.564080 -3.064347 -0.563586
 33   14.298673 -0.408176 0.475484 -0.006392 -0.009799 -0.413535
 34   15.835795 0.581398 0.242756 -0.007436 -0.212263 -0.117847
 35   -0.815868 -0.091229 -3.114430 -0.120039 3.021422 -0.057357
 36   14.294526 -0.410349 -0.463635 0.001663 0.012787 -0.721549
 37   15.834409 0.579420 -0.284600 -0.182270 -0.002314 0.569929
 38   1.139685 -3.453749 -2.823813 0.000000 0.000000 0.000001
 39   -4.457742 -1.054854 -0.746180 0.000000 0.000000 0.000000
 40   1.118101 -3.449769 3.237290 0.000000 0.000001 0.000000
 41   -4.433840 -1.059130 0.959566 -0.000001 0.000000 0.000000
 42   -0.657468 1.697302 -2.688614 0.000000 0.000002 0.000000
 43   -0.664068 1.698578 2.869377 0.000000 0.000002 0.000000
time 15
  0   -0.010486 -0.546892 -0.601210 0.000000 0.000000 -1.571449
  1   -1.093036 0.000002 -0.326057 -0.214108 -1.569036 -1.356583
  2   2.262337 0.113614 0.064702 -0.035475 -0.075394 -0.081765
  3   2.380047 0.353302 0.047440 -0.160676 -0.036150 -0.091621
  4   2.033756 0.190472 -0.000128 -0.180692 -0.063734 -0.395625
  5   2.451511 0.204909 -0.003447 -0.419620 -0.034929 -0.370479
  6   7.247600 -0.397300 -0.109469 0.000001 0.000021 0.156829
  7   -2.022252 -0.104661 3.136172 0.569403 -1.233354 -3.783784
  8   1.168026 -0.537438 -0.063437 -0.709899 0.754278 -0.554857
  9   6.790376 -0.619176 0.015206 0.046279 0.101227 -1.057527
 10   8.637599 0.544015 -0.090417 -3.363993 0.031052 -0.088815
 11   6.790465 -0.619039 0.017802 0.044299 0.055205 -0.755570
 12   -2.022474 -0.104699 -2.873818 -2.024256 1.401069 -5.339744
 13   1.167898 -0.537463 0.063297 -0.159146 -1.024952 -0.607860
 14   7.002743 -0.617765 -0.183752 0.019757 -0.158804 -1.664795
 15   8.209042 0.615527 -0.255885 2.640437 0.336849 0.343377
 16   7.002735 -0.617911 -0.183641 -0.000719 -0.108510 -1.181668
 17   1.574674 0.609930 -0.000899 0.543904 0.038538 0.577989
 18   -0.602177 0.511412 -0.000006 0.000000 0.000000 0.000000
 19   3.673773 0.177020 1.119313 -0.000002 -0.000014 -0.174510
 20   3.673767 0.176993 -1.117566 0.000007 -0.000003 -0.174546
 21   3.942357 1.330634 1.627658 0.000002 -0.000011 -0.000026
 22   -0.246060 -0.011889 0.516521 -0.000011 0.000031 0.000025
 23   3.942374 1.330659 -1.631083 0.000019 0.000002 -0.000024
 24   -0.246150 -0.011872 -0.516511 -0.000005 -0.000006 0.000048
 25   4.941364 1.997338 1.629330 0.000018 -0.000001 -0.000024
 26   4.941382 1.997366 -1.629410 -0.000001 0.000005 -0.000024
 27   2.918368 1.615358 1.514501 -0.000019 -0.000022 -0.000050
 28   2.920798 1.614964 -1.501142 -0.000002 -0.000009 -0.000024
 29   8.824059 0.150544 0.091743 0.000006 -0.000231 -0.174534
 30   2.111085 -0.561179 1.784320 -0.000008 -0.000682 0.000024
 31   2.121290 -0.561289 -1.853599 0.000000 0.000000 -0.000002
 32   -0.810489 -0.093824 3.127092 0.564080 -3.064347 -0.563586
 33   14.298673 -0.408176 0.475484 -0.006392 -0.009799 -0.413535
 34   15.835795 0.581398 0.242756 -0.007436 -0.212263 -0.117847
 35   -0.815868 -0.091229 -3.114430 -0.120039 3.021422 -0.057357
 36   14.294526 -0.410349 -0.463635 0.001663 0.012787 -0.721549
 37   15.834409 0.579420 -0.284600 -0.182270 -0.002314 0.569929
 38   1.139685 -3.453749 -2.823813 0.000000 0.000000 0.000001
 39   -4.457742 -1.054854 -0.746180 0.000000 0.000000 0.000000
 40   1.118101 -3.449769 3.237290 0.000000 0.000001 0.000000
 41   -4.433840 -1.059130 0.959566 -0.000001 0.000000 0.000000
 42   -0.657468 1.697302 -2.688614 0.000000 0.000002 0.000000
 43   -0.664068 1.698578 2.869377 0.000000 0.000002 0.000000
time 16
  0   -0.010486 -0.546892 -0.601210 0.000000 0.000000 -1.571449
  1   -1.093036 0.000002 -0.326057 -0.214108 -1.569036 -1.356583
  2   2.262337 0.113614 0.064702 -0.032902 -0.079781 -0.082217
  3   2.380047 0.353302 0.047440 -0.159761 -0.038439 -0.091274
  4   2.033756 0.190472 -0.000128 -0.180895 -0.063902 -0.397111
  5   2.451511 0.204909 -0.003447 -0.420219 -0.032500 -0.371122
  6   7.247600 -0.397300 -0.109469 0.000001 0.000021 0.156829
  7   -2.022252 -0.104661 3.136172 0.590396 -1.242463 -3.773078
  8   1.168026 -0.537438 -0.063437 -0.759954 0.730278 -0.634818
  9   6.790376 -0.619176 0.015206 0.048609 0.097156 -1.011945
 10   8.637599 0.544015 -0.090417 -3.396137 0.062165 -0.017483
 11   6.790465 -0.619039 0.017802 0.044825 0.052249 -0.723675
 12   -2.022474 -0.104699 -2.873818 -1.859852 1.438916 -5.158985
 13   1.167898 -0.537463 0.063297 -0.144033 -1.014984 -0.625173
 14   7.002743 -0.617765 -0.183752 0.020953 -0.160166 -1.685504
 15   8.209042 0.615527 -0.255885 2.624546 0.313243 0.371461
 16   7.002735 -0.617911 -0.183641 -0.000578 -0.109694 -1.196018
 17   1.574674 0.609930 -0.000899 0.546260 0.064879 0.607188
 18   -0.602177 0.511412 -0.000006 0.000000 0.000000 0.000000
 19   3.673773 0.177020 1.119313 -0.000002 -0.000014 -0.174510
 20   3.673767 0.176993 -1.117566 0.000007 -0.000003 -0.174546
 21   3.942357 1.330634 1.627658 0.000002 -0.000011 -0.000026
 22   -0.246060 -0.011889 0.516521 -0.000011 0.000031 0.000025
 23   3.942374 1.330659 -1.631083 0.000019 0.000002 -0.000024
 24   -0.246150 -0.011872 -0.516511 -0.000005 -0.000006 0.000048
 25   4.941364 1.997338 1.629330 0.000018 -0.000001 -0.000024
 26   4.941382 1.997366 -1.629410 -0.000001 0.000005 -0.000024
 27   2.918368 1.615358 1.514501 -0.000019 -0.000022 -0.000050
 28   2.920798 1.614964 -1.501142 -0.000002 -0.000009 -0.000024
 29   8.824059 0.150544 0.091743 0.000006 -0.000231 -0.174534
 30   2.111085 -0.561179 1.784320 -0.000008 -0.000682 0.000024
 31   2.121290 -0.561289 -1.853599 0.000000 0.000000 -0.000002
 32   -0.810489 -0.093824 3.127092 0.564080 -3.064347 -0.563586
 33   14.298673 -0.408176 0.475484 -0.006392 -0.009799 -0.413535
 34   15.835795 0.581398 0.242756 -0.007436 -0.212263 -0.117847
 35   -0.815868 -0.091229 -3.114430 -0.120039 3.021422 -0.057357
 36   14.294526 -0.410349 -0.463635 0.001663 0.012787 -0.721549
 37   15.834409 0.579420 -0.284600 -0.182270 -0.002314 0.569929
 38   1.139685 -3.453749 -2.823813 0.000000 0.000000 0.000001
 39   -4.457742 -1.054854 -0.746180 0.000000 0.000000 0.000000
 40   1.118101 -3.449769 3.237290 0.000000 0.000001 0.000000
 41   -4.433840 -1.059130 0.959566 -0.000001 0.000000 0.000000
 42   -0.657468 1.697302 -2.688614 0.000000 0.000002 0.000000
 43   -0.664068 1.698578 2.869377 0.000000 0.000002 0.000000
time 17
  0   -0.010486 -0.546892 -0.601210 0.000000 0.000000 -1.571449
  1   -1.093036 0.000002 -0.326057 -0.214108 -1.569036 -1.356583
  2   2.262337 0.113614 0.064702 -0.033768 -0.081626 -0.082596
  3   2.380047 0.353302 0.047440 -0.160826 -0.038463 -0.090662
  4   2.033756 0.190472 -0.000128 -0.181356 -0.063986 -0.397401
  5   2.451511 0.204909 -0.003447 -0.419791 -0.038219 -0.369958
  6   7.247600 -0.397300 -0.109469 0.000001 0.000021 0.156829
  7   -2.022252 -0.104661 3.136172 0.574387 -1.245058 -3.740678
  8   1.168026 -0.537438 -0.063437 -0.779887 0.706429 -0.672458
  9   6.790376 -0.619176 0.015206 0.049774 0.094887 -0.990361
 10   8.637599 0.544015 -0.090417 -3.428104 0.099824 0.058840
 11   6.790465 -0.619039 0.017802 0.045117 0.050657 -0.708565
 12   -2.022474 -0.104699 -2.873818 -1.718345 1.460684 -5.011926
 13   1.167898 -0.537463 0.063297 -0.134403 -1.010865 -0.648479
 14   7.002743 -0.617765 -0.183752 0.021807 -0.161700 -1.701180
 15   8.209042 0.615527 -0.255885 2.617428 0.301818 0.394554
 16   7.002735 -0.617911 -0.183641 -0.000531 -0.110935 -1.206891
 17   1.574674 0.609930 -0.000899 0.556658 0.082108 0.617093
 18   -0.602177 0.511412 -0.000006 0.000000 0.000000 0.000000
 19   3.673773 0.177020 1.119313 -0.000002 -0.000014 -0.174510
 20   3.673767 0.176993 -1.117566 0.000007 -0.000003 -0.174546
 21   3.942357 1.330634 1.627658 0.000002 -0.000011 -0.000026
 22   -0.246060 -0.011889 0.516521 -0.000011 0.000031 0.000025
 23   3.942374 1.330659 -1.631083 0.000019 0.000002 -0.000024
 24   -0.246150 -0.011872 -0.516511 -0.000005 -0.000006 0.000048
 25   4.941364 1.997338 1.629330 0.000018 -0.000001 -0.000024
 26   4.941382 1.997366 -1.629410 -0.000001 0.000005 -0.000024
 27   2.918368 1.615358 1.514501 -0.000019 -0.000022 -0.000050
 28   2.920798 1.614964 -1.501142 -0.000002 -0.000009 -0.000024
 29   8.824059 0.150544 0.091743 0.000006 -0.000231 -0.174534
 30   2.111085 -0.561179 1.784320 -0.000008 -0.000682 0.000024
 31   2.121290 -0.561289 -1.853599 0.000000 0.000000 -0.000002
 32   -0.810489 -0.093824 3.127092 0.564080 -3.064347 -0.563586
 33   14.298673 -0.408176 0.475484 -0.006392 -0.009799 -0.413535
 34   15.835795 0.581398 0.242756 -0.007436 -0.212263 -0.117847
 35   -0.815868 -0.091229 -3.114430 -0.120039 3.021422 -0.057357
 36   14.294526 -0.410349 -0.463635 0.001663 0.012787 -0.721549
 37   15.834409 0.579420 -0.284600 -0.182270 -0.002314 0.569929
 38   1.139685 -3.453749 -2.823813 0.000000 0.000000 0.000001
 39   -4.457742 -1.054854 -0.746180 0.000000 0.000000 0.000000
 40   1.118101 -3.449769 3.237290 0.000000 0.000001 0.000000
 41   -4.433840 -1.059130 0.959566 -0.000001 0.000000 0.000000
 42   -0.657468 1.697302 -2.688614 0.000000 0.000002 0.000000
 43   -0.664068 1.698578 2.869377 0.000000 0.000002 0.000000
time 18
  0   -0.010486 -0.546892 -0.601210 0.000000 0.000000 -1.571449
  1   -1.093036 0.000002 -0.326057 -0.214108 -1.569036 -1.356583
  2   2.262337 0.113614 0.064702 -0.035654 -0.082477 -0.084765
  3   2.380047 0.353302 0.047440 -0.162806 -0.038511 -0.089907
  4   2.033756 0.190472 -0.000128 -0.182112 -0.063590 -0.392435
  5   2.451511 0.204909 -0.003447 -0.421691 -0.032866 -0.366987
  6   7.247600 -0.397300 -0.109469 0.000001 0.000021 0.156829
  7   -2.022252 -0.104661 3.136172 0.546013 -1.244827 -3.716260
  8   1.168026 -0.537438 -0.063437 -0.776407 0.706077 -0.668346
  9   6.790376 -0.619176 0.015206 0.049552 0.095354 -0.997304
 10   8.637599 0.544015 -0.090417 -3.477949 0.128332 0.128001
 11   6.790465 -0.619039 0.017802 0.045117 0.050913 -0.713525
 12   -2.022474 -0.104699 -2.873818 -1.912833 1.468462 -5.219684
 13   1.167898 -0.537463 0.063297 -0.113174 -1.029427 -0.679291
 14   7.002743 -0.617765 -0.183752 0.023002 -0.162551 -1.715206
 15   8.209042 0.615527 -0.255885 2.603479 0.286006 0.407604
 16   7.002735 -0.617911 -0.183641 -0.000060 -0.111837 -1.216605
 17   1.574674 0.609930 -0.000899 0.560314 0.074890 0.607557
 18   -0.602177 0.511412 -0.000006 0.000000 0.000000 0.000000
 19   3.673773 0.177020 1.119313 -0.000002 -0.000014 -0.174510
 20   3.673767 0.176993 -1.117566 0.000007 -0.000003 -0.174546
 21   3.942357 1.330634 1.627658 0.000002 -0.000011 -0.000026
 22   -0.246060 -0.011889 0.516521 -0.000011 0.000031 0.000025
 23   3.942374 1.330659 -1.631083 0.000019 0.000002 -0.000024
 24   -0.246150 -0.011872 -0.516511 -0.000005 -0.000006 0.000048
 25   4.941364 1.997338 1.629330 0.000018 -0.000001 -0.000024
 26   4.941382 1.997366 -1.629410 -0.000001 0.000005 -0.000024
 27   2.918368 1.615358 1.514501 -0.000019 -0.000022 -0.000050
 28   2.920798 1.614964 -1.501142 -0.000002 -0.000009 -0.000024
 29   8.824059 0.150544 0.091743 0.000006 -0.000231 -0.174534
 30   2.111085 -0.561179 1.784320 -0.000008 -0.000682 0.000024
 31   2.121290 -0.561289 -1.853599 0.000000 0.000000 -0.000002
 32   -0.810489 -0.093824 3.127092 0.564080 -3.064347 -0.563586
 33   14.298673 -0.408176 0.475484 -0.006392 -0.009799 -0.413535
 34   15.835795 0.581398 0.242756 -0.007436 -0.212263 -0.117847
 35   -0.815868 -0.091229 -3.114430 -0.120039 3.021422 -0.057357
 36   14.294526 -0.410349 -0.463635 0.001663 0.012787 -0.721549
 37   15.834409 0.579420 -0.284600 -0.182270 -0.002314 0.569929
 38   1.139685 -3.453749 -2.823813 0.000000 0.000000 0.000001
 39   -4.457742 -1.054854 -0.746180 0.000000 0.000000 0.000000
 40   1.118101 -3.449769 3.237290 0.000000 0.000001 0.000000
 41   -4.433840 -1.059130 0.959566 -0.000001 0.000000 0.000000
 42   -0.657468 1.697302 -2.688614 0.000000 0.000002 0.000000
 43   -0.664068 1.698578 2.869377 0.000000 0.000002 0.000000
time 19
  0   -0.010486 -0.546892 -0.601210 0.000000 0.000000 -1.571449
  1   -1.093036 0.000002 -0.326057 -0.214108 -1.569036 -1.356583
  2   2.262337 0.113614 0.064702 -0.037819 -0.082633 -0.084620
  3   2.380047 0.353302 0.047440 -0.164336 -0.038559 -0.089356
  4   2.033756 0.190472 -0.000128 -0.182905 -0.063243 -0.387288
  5   2.451511 0.204909 -0.003447 -0.424190 -0.024458 -0.365080
  6   7.247600 -0.397300 -0.109469 0.000001 0.000021 0.156829
  7   -2.022252 -0.104661 3.136172 0.522049 -1.241109 -3.695600
  8   1.168026 -0.537438 -0.063437 -0.764004 0.703209 -0.643801
  9   6.790376 -0.619176 0.015206 0.048831 0.096488 -1.020397
 10   8.637599 0.544015 -0.090417 -3.526385 0.153461 0.189566
 11   6.790465 -0.619039 0.017802 0.045117 0.051794 -0.729616
 12   -2.022474 -0.104699 -2.873818 -2.170937 1.462600 -5.493982
 13   1.167898 -0.537463 0.063297 -0.093351 -1.045496 -0.711980
 14   7.002743 -0.617765 -0.183752 0.023799 -0.162778 -1.723704
 15   8.209042 0.615527 -0.255885 2.596432 0.282223 0.411633
 16   7.002735 -0.617911 -0.183641 0.000269 -0.112119 -1.222621
 17   1.574674 0.609930 -0.000899 0.562264 0.057495 0.599093
 18   -0.602177 0.511412 -0.000006 0.000000 0.000000 0.000000
 19   3.673773 0.177020 1.119313 -0.000002 -0.000014 -0.174510
 20   3.673767 0.176993 -1.117566 0.000007 -0.000003 -0.174546
 21   3.942357 1.330634 1.627658 0.000002 -0.000011 -0.000026
 22   -0.246060 -0.011889 0.516521 -0.000011 0.000031 0.000025
 23   3.942374 1.330659 -1.631083 0.000019 0.000002 -0.000024
 24   -0.246150 -0.011872 -0.516511 -0.000005 -0.000006 0.000048
 25   4.941364 1.997338 1.629330 0.000018 -0.000001 -0.000024
 26   4.941382 1.997366 -1.629410 -0.000001 0.000005 -0.000024
 27   2.918368 1.615358 1.514501 -0.000019 -0.000022 -0.000050
 28   2.920798 1.614964 -1.501142 -0.000002 -0.000009 -0.000024
 29   8.824059 0.150544 0.091743 0.000006 -0.000231 -0.174534
 30   2.111085 -0.561179 1.784320 -0.000008 -0.000682 0.000024
 31   2.121290 -0.561289 -1.853599 0.000000 0.000000 -0.000002
 32   -0.810489 -0.093824 3.127092 0.564080 -3.064347 -0.563586
 33   14.298673 -0.408176 0.475484 -0.006392 -0.009799 -0.413535
 34   15.835795 0.581398 0.242756 -0.007436 -0.212263 -0.117847
 35   -0.815868 -0.091229 -3.114430 -0.120039 3.021422 -0.057357
 36   14.294526 -0.410349 -0.463635 0.001663 0.012787 -0.721549
 37   15.834409 0.579420 -0.284600 -0.182270 -0.002314 0.569929
 38   1.139685 -3.453749 -2.823813 0.000000 0.000000 0.000001
 39   -4.457742 -1.054854 -0.746180 0.000000 0.000000 0.000000
 40   1.118101 -3.449769 3.237290 0.000000 0.000001 0.000000
 41   -4.433840 -1.059130 0.959566 -0.000001 0.000000 0.000000
 42   -0.657468 1.697302 -2.688614 0.000000 0.000002 0.000000
 43   -0.664068 1.698578 2.869377 0.000000 0.000002 0.000000
time 20
  0   -0.010486 -0.546892 -0.601210 0.000000 0.000000 -1.571449
  1   -1.093036 0.000002 -0.326057 -0.214108 -1.569036 -1.356583
  2   2.262337 0.113614 0.064702 -0.039640 -0.082741 -0.084584
  3   2.380047 0.353302 0.047440 -0.166001 -0.038606 -0.089111
  4   2.033756 0.190472 -0.000128 -0.183311 -0.063303 -0.387288
  5   2.451511 0.204909 -0.003447 -0.426398 -0.020620 -0.365823
  6   7.247600 -0.397300 -0.109469 0.000001 0.000021 0.156829
  7   -2.022252 -0.104661 3.136172 0.514764 -1.234046 -3.685081
  8   1.168026 -0.537438 -0.063437 -0.767168 0.700391 -0.636273
  9   6.790376 -0.619176 0.015206 0.048720 0.096956 -1.027491
 10   8.637599 0.544015 -0.090417 -3.547080 0.185137 0.226968
 11   6.790465 -0.619039 0.017802 0.045117 0.052050 -0.734576
 12   -2.022474 -0.104699 -2.873818 -2.241739 1.458478 -5.568086
 13   1.167898 -0.537463 0.063297 -0.079644 -1.047530 -0.735104
 14   7.002743 -0.617765 -0.183752 0.024141 -0.162778 -1.729892
 15   8.209042 0.615527 -0.255885 2.592621 0.282147 0.423600
 16   7.002735 -0.617911 -0.183641 0.000411 -0.112288 -1.226926
 17   1.574674 0.609930 -0.000899 0.564011 0.044502 0.600868
 18   -0.602177 0.511412 -0.000006 0.000000 0.000000 0.000000
 19   3.673773 0.177020 1.119313 -0.000002 -0.000014 -0.174510
 20   3.673767 0.176993 -1.117566 0.000007 -0.000003 -0.174546
 21   3.942357 1.330634 1.627658 0.000002 -0.000011 -0.000026
 22   -0.246060 -0.011889 0.516521 -0.000011 0.000031 0.000025
 23   3.942374 1.330659 -1.631083 0.000019 0.000002 -0.000024
 24   -0.246150 -0.011872 -0.516511 -0.000005 -0.000006 0.000048
 25   4.941364 1.997338 1.629330 0.000018 -0.000001 -0.000024
 26   4.941382 1.997366 -1.629410 -0.000001 0.000005 -0.000024
 27   2.918368 1.615358 1.514501 -0.000019 -0.000022 -0.000050
 28   2.920798 1.614964 -1.501142 -0.000002 -0.000009 -0.000024
 29   8.824059 0.150544 0.091743 0.000006 -0.000231 -0.174534
 30   2.111085 -0.561179 1.784320 -0.000008 -0.000682 0.000024
 31   2.121290 -0.561289 -1.853599 0.000000 0.000000 -0.000002
 32   -0.810489 -0.093824 3.127092 0.564080 -3.064347 -0.563586
 33   14.298673 -0.408176 0.475484 -0.006392 -0.009799 -0.413535
 34   15.835795 0.581398 0.242756 -0.007436 -0.212263 -0.117847
 35   -0.815868 -0.091229 -3.114430 -0.120039 3.021422 -0.057357
 36   14.294526 -0.410349 -0.463635 0.001663 0.012787 -0.721549
 37   15.834409 0.579420 -0.284600 -0.182270 -0.002314 0.569929
 38   1.139685 -3.453749 -2.823813 0.000000 0.000000 0.000001
 39   -4.457742 -1.054854 -0.746180 0.000000 0.000000 0.000000
 40   1.118101 -3.449769 3.237290 0.000000 0.000001 0.000000
 41   -4.433840 -1.059130 0.959566 -0.000001 0.000000 0.000000
 42   -0.657468 1.697302 -2.688614 0.000000 0.000002 0.000000
 43   -0.664068 1.698578 2.869377 0.000000 0.000002 0.000000
time 21
  0   -0.010486 -0.546892 -0.601210 0.000000 0.000000 -1.571449
  1   -1.093036 0.000002 -0.326057 -0.214108 -1.569036 -1.356583
  2   2.262337 0.113614 0.064702 -0.041462 -0.082801 -0.084530
  3   2.380047 0.353302 0.047440 -0.168236 -0.038726 -0.089091
  4   2.033756 0.190472 -0.000128 -0.183606 -0.063303 -0.387288
  5   2.451511 0.204909 -0.003447 -0.428161 -0.016703 -0.366665
  6   7.247600 -0.397300 -0.109469 0.000001 0.000021 0.156829
  7   -2.022252 -0.104661 3.136172 0.514093 -1.224620 -3.679353
  8   1.168026 -0.537438 -0.063437 -0.787101 0.693146 -0.651329
  9   6.790376 -0.619176 0.015206 0.049053 0.096221 -1.014888
 10   8.637599 0.544015 -0.090417 -3.536336 0.217094 0.245416
 11   6.790465 -0.619039 0.017802 0.045117 0.051538 -0.725752
 12   -2.022474 -0.104699 -2.873818 -2.221907 1.455866 -5.544343
 13   1.167898 -0.537463 0.063297 -0.069240 -1.043208 -0.748119
 14   7.002743 -0.617765 -0.183752 0.024483 -0.162778 -1.734677
 15   8.209042 0.615527 -0.255885 2.593916 0.286384 0.441401
 16   7.002735 -0.617911 -0.183641 0.000505 -0.112288 -1.230127
 17   1.574674 0.609930 -0.000899 0.565595 0.033497 0.602013
 18   -0.602177 0.511412 -0.000006 0.000000 0.000000 0.000000
 19   3.673773 0.177020 1.119313 -0.000002 -0.000014 -0.174510
 20   3.673767 0.176993 -1.117566 0.000007 -0.000003 -0.174546
 21   3.942357 1.330634 1.627658 0.000002 -0.000011 -0.000026
 22   -0.246060 -0.011889 0.516521 -0.000011 0.000031 0.000025
 23   3.942374 1.330659 -1.631083 0.000019 0.000002 -0.000024
 24   -0.246150 -0.011872 -0.516511 -0.000005 -0.000006 0.000048
 25   4.941364 1.997338 1.629330 0.000018 -0.000001 -0.000024
 26   4.941382 1.997366 -1.629410 -0.000001 0.000005 -0.000024
 27   2.918368 1.615358 1.514501 -0.000019 -0.000022 -0.000050
 28   2.920798 1.614964 -1.501142 -0.000002 -0.000009 -0.000024
 29   8.824059 0.150544 0.091743 0.000006 -0.000231 -0.174534
 30   2.111085 -0.561179 1.784320 -0.000008 -0.000682 0.000024
 31   2.121290 -0.561289 -1.853599 0.000000 0.000000 -0.000002
 32   -0.810489 -0.093824 3.127092 0.564080 -3.064347 -0.563586
 33   14.298673 -0.408176 0.475484 -0.006392 -0.009799 -0.413535
 34   15.835795 0.581398 0.242756 -0.007436 -0.212263 -0.117847
 35   -0.815868 -0.091229 -3.114430 -0.120039 3.021422 -0.057357
 36   14.294526 -0.410349 -0.463635 0.001663 0.012787 -0.721549
 37   15.834409 0.579420 -0.284600 -0.182270 -0.002314 0.569929
 38   1.139685 -3.453749 -2.823813 0.000000 0.000000 0.000001
 39   -4.457742 -1.054854 -0.746180 0.000000 0.000000 0.000000
 40   1.118101 -3.449769 3.237290 0.000000 0.000001 0.000000
 41   -4.433840 -1.059130 0.959566 -0.000001 0.000000 0.000000
 42   -0.657468 1.697302 -2.688614 0.000000 0.000002 0.000000
 43   -0.664068 1.698578 2.869377 0.000000 0.000002 0.000000
time 22
  0   -0.010486 -0.546892 -0.601210 0.000000 0.000000 -1.571449
  1   -1.093036 0.000002 -0.326057 -0.214108 -1.569036 -1.356583
  2   2.262337 0.113614 0.064702 -0.043525 -0.082861 -0.084385
  3   2.380047 0.353302 0.047440 -0.169481 -0.038798 -0.089050
  4   2.033756 0.190472 -0.000128 -0.183735 -0.063314 -0.387288
  5   2.451511 0.204909 -0.003447 -0.428897 -0.012199 -0.367630
  6   7.247600 -0.397300 -0.109469 0.000001 0.000021 0.156829
  7   -2.022252 -0.104661 3.136172 0.513038 -1.214069 -3.674469
  8   1.168026 -0.537438 -0.063437 -0.796467 0.690479 -0.651329
  9   6.790376 -0.619176 0.015206 0.048831 0.096622 -1.021831
 10   8.637599 0.544015 -0.090417 -3.528851 0.222444 0.261983
 11   6.790465 -0.619039 0.017802 0.045117 0.051794 -0.730596
 12   -2.022474 -0.104699 -2.873818 -2.198146 1.452470 -5.514759
 13   1.167898 -0.537463 0.063297 -0.058837 -1.038326 -0.755262
 14   7.002743 -0.617765 -0.183752 0.024483 -0.162778 -1.734677
 15   8.209042 0.615527 -0.255885 2.590608 0.281769 0.443145
 16   7.002735 -0.617911 -0.183641 0.000458 -0.112288 -1.230127
 17   1.574674 0.609930 -0.000899 0.568438 0.025971 0.602494
 18   -0.602177 0.511412 -0.000006 0.000000 0.000000 0.000000
 19   3.673773 0.177020 1.119313 -0.000002 -0.000014 -0.174510
 20   3.673767 0.176993 -1.117566 0.000007 -0.000003 -0.174546
 21   3.942357 1.330634 1.627658 0.000002 -0.000011 -0.000026
 22   -0.246060 -0.011889 0.516521 -0.000011 0.000031 0.000025
 23   3.942374 1.330659 -1.631083 0.000019 0.000002 -0.000024
 24   -0.246150 -0.011872 -0.516511 -0.000005 -0.000006 0.000048
 25   4.941364 1.997338 1.629330 0.000018 -0.000001 -0.000024
 26   4.941382 1.997366 -1.629410 -0.000001 0.000005 -0.000024
 27   2.918368 1.615358 1.514501 -0.000019 -0.000022 -0.000050
 28   2.920798 1.614964 -1.501142 -0.000002 -0.000009 -0.000024
 29   8.824059 0.150544 0.091743 0.000006 -0.000231 -0.174534
 30   2.111085 -0.561179 1.784320 -0.000008 -0.000682 0.000024
 31   2.121290 -0.561289 -1.853599 0.000000 0.000000 -0.000002
 32   -0.810489 -0.093824 3.127092 0.564080 -3.064347 -0.563586
 33   14.298673 -0.408176 0.475484 -0.006392 -0.009799 -0.413535
 34   15.835795 0.581398 0.242756 -0.007436 -0.212263 -0.117847
 35   -0.815868 -0.091229 -3.114430 -0.120039 3.021422 -0.057357
 36   14.294526 -0.410349 -0.463635 0.001663 0.012787 -0.721549
 37   15.834409 0.579420 -0.284600 -0.182270 -0.002314 0.569929
 38   1.139685 -3.453749 -2.823813 0.000000 0.000000 0.000001
 39   -4.457742 -1.054854 -0.746180 0.000000 0.000000 0.000000
 40   1.118101 -3.449769 3.237290 0.000000 0.000001 0.000000
 41   -4.433840 -1.059130 0.959566 -0.000001 0.000000 0.000000
 42   -0.657468 1.697302 -2.688614 0.000000 0.000002 0.000000
 43   -0.664068 1.698578 2.869377 0.000000 0.000002 0.000000
time 23
  0   -0.010486 -0.546892 -0.601210 0.000000 0.000000 -1.571449
  1   -1.093036 0.000002 -0.326057 -0.214108 -1.569036 -1.356583
  2   2.262337 0.113614 0.064702 -0.043525 -0.082861 -0.084385
  3   2.380047 0.353302 0.047440 -0.169481 -0.038798 -0.089050
  4   2.033756 0.190472 -0.000128 -0.183735 -0.063314 -0.387288
  5   2.451511 0.204909 -0.003447 -0.428897 -0.012199 -0.367630
  6   7.247600 -0.397300 -0.109469 0.000001 0.000021 0.156829
  7   -2.022252 -0.104661 3.136172 0.513038 -1.214069 -3.674469
  8   1.168026 -0.537438 -0.063437 -0.796467 0.690479 -0.651329
  9   6.790376 -0.619176 0.015206 0.048831 0.096622 -1.021831
 10   8.637599 0.544015 -0.090417 -3.528851 0.222444 0.261983
 11   6.790465 -0.619039 0.017802 0.045117 0.051794 -0.730596
 12   -2.022474 -0.104699 -2.873818 -2.198146 1.452470 -5.514759
 13   1.167898 -0.537463 0.063297 -0.058837 -1.038326 -0.755262
 14   7.002743 -0.617765 -0.183752 0.024483 -0.162778 -1.734677
 15   8.209042 0.615527 -0.255885 2.590608 0.281769 0.443145
 16   7.002735 -0.617911 -0.183641 0.000458 -0.112288 -1.230127
 17   1.574674 0.609930 -0.000899 0.568438 0.025971 0.602494
 18   -0.602177 0.511412 -0.000006 0.000000 0.000000 0.000000
 19   3.673773 0.177020 1.119313 -0.000002 -0.000014 -0.174510
 20   3.673767 0.176993 -1.117566 0.000007 -0.000003 -0.174546
 21   3.942357 1.330634 1.627658 0.000002 -0.000011 -0.000026
 22   -0.246060 -0.011889 0.516521 -0.000011 0.000031 0.000025
 23   3.942374 1.330659 -1.631083 0.000019 0.000002 -0.000024
 24   -0.246150 -0.011872 -0.516511 -0.000005 -0.000006 0.000048
 25   4.941364 1.997338 1.629330 0.000018 -0.000001 -0.000024
 26   4.941382 1.997366 -1.629410 -0.000001 0.000005 -0.000024
 27   2.918368 1.615358 1.514501 -0.000019 -0.000022 -0.000050
 28   2.920798 1.614964 -1.501142 -0.000002 -0.000009 -0.000024
 29   8.824059 0.150544 0.091743 0.000006 -0.000231 -0.174534
 30   2.111085 -0.561179 1.784320 -0.000008 -0.000682 0.000024
 31   2.121290 -0.561289 -1.853599 0.000000 0.000000 -0.000002
 32   -0.810489 -0.093824 3.127092 0.564080 -3.064347 -0.563586
 33   14.298673 -0.408176 0.475484 -0.006392 -0.009799 -0.413535
 34   15.835795 0.581398 0.242756 -0.007436 -0.212263 -0.117847
 35   -0.815868 -0.091229 -3.114430 -0.120039 3.021422 -0.057357
 36   14.294526 -0.410349 -0.463635 0.001663 0.012787 -0.721549
 37   15.834409 0.579420 -0.284600 -0.182270 -0.002314 0.569929
 38   1.139685 -3.453749 -2.823813 0.000000 0.000000 0.000001
 39   -4.457742 -1.054854 -0.746180 0.000000 0.000000 0.000000
 40   1.118101 -3.449769 3.237290 0.000000 0.000001 0.000000
 41   -4.433840 -1.059130 0.959566 -0.000001 0.000000 0.000000
 42   -0.657468 1.697302 -2.688614 0.000000 0.000002 0.000000
 43   -0.664068 1.698578 2.869377 0.000000 0.000002 0.000000
end
