version 1
nodes
  0 "Bip01" -1
  1 "Bip01 Pelvis" 0
  2 "Bip01 Spine" 1
  3 "Bip01 Spine1" 2
  4 "Bip01 Spine2" 3
  5 "Bip01 Spine3" 4
  6 "Bip01 Neck" 5
  7 "Bip01 L Arm" 6
  8 "Bip01 L Arm1" 7
  9 "Bip01 L Arm2" 8
 10 "Bip01 L Hand" 9
 11 "Bip06 L elbow2-smooth" 8
 12 "Bip01 R Arm" 6
 13 "Bip01 R Arm1" 12
 14 "Bip01 R Arm2" 13
 15 "Bip01 R Hand" 14
 16 "Bip06 R elbow2-smooth" 13
 17 "Bip01 Head" 6
 18 "Bip06 Head_helper" 17
 19 "Bip06 Head_eyes_l" 18
 20 "Bip06 Head_eyes_r" 18
 21 "Bip06 Head_blink_l" 18
 22 "Bip06 Head_blink_smooth_l1" 21
 23 "Bip06 Head_blink_r" 18
 24 "Bip06 Head_blink_smooth_r1" 23
 25 "Bip06 Head_L_eyebrow" 18
 26 "Bip06 Head_R_eyebrow" 18
 27 "Bip06 Head_blink_l_lid" 18
 28 "Bip06 Head_blink_r_lid" 18
 29 "Bip06 bunny" 18
 30 "Bip06 bunnyL" 29
 31 "Bip06 bunnyR" 29
 32 "Bip01 L Leg" 1
 33 "Bip01 L Leg1" 32
 34 "Bip01 L Foot" 33
 35 "Bip01 R Leg" 1
 36 "Bip01 R Leg1" 35
 37 "Bip01 R Foot" 36
 38 "Bip03 HairR1" 17
 39 "Bip03 HairR2" 38
 40 "Bip03 HairL1" 17
 41 "Bip03 HairL2" 40
 42 "Bip03 swingR" 17
 43 "Bip03 swingL" 17
end
skeleton
time 0
  0   0.001233 0.187506 0.867585 0.000000 0.000000 -1.571449
  1   -1.093036 0.000002 -0.326057 -1.570809 -1.570379 -0.000123
  2   2.262337 0.113614 0.064702 -0.127860 -0.007574 -0.059755
  3   2.380047 0.353302 0.047440 0.129744 0.037376 -0.077684
  4   2.033756 0.190472 -0.000128 -0.127061 -0.016527 -0.129898
  5   2.451511 0.204909 -0.003447 -0.128171 0.000060 -0.000136
  6   7.247600 -0.397300 -0.109469 0.000001 0.000033 0.087015
  7   -2.022252 -0.104661 3.136172 1.356588 -0.807647 -4.507857
  8   1.168026 -0.537438 -0.063437 -1.113249 0.328216 -0.703076
  9   6.790376 -0.619176 0.015206 -0.000213 -0.000151 -0.989833
 10   8.637599 0.544015 -0.090417 -2.723498 0.011061 0.444435
 11   6.790465 -0.619039 0.017802 0.000242 -0.011566 -0.708045
 12   -2.022474 -0.104699 -2.873818 -1.479977 0.418725 -4.580134
 13   1.167898 -0.537463 0.063297 1.273097 0.098391 -0.668274
 14   7.002743 -0.617765 -0.183752 0.000229 0.000250 -0.579024
 15   8.209042 0.615527 -0.255885 1.714543 0.156401 0.167415
 16   7.002735 -0.617911 -0.183641 0.014533 0.003308 -0.423981
 17   1.574674 0.609930 -0.000899 0.254973 -0.004560 -0.075261
 18   -0.602177 0.511412 -0.000006 0.000000 0.000000 0.000000
 19   3.673773 0.177020 1.119313 -0.000002 -0.000014 -0.174510
 20   3.673767 0.176993 -1.117566 0.000007 -0.000003 -0.174546
 21   3.942357 1.330634 1.627658 0.000002 -0.000011 -0.000026
 22   -0.246060 -0.011889 0.516521 -0.000011 0.000031 0.000025
 23   3.942374 1.330659 -1.631083 0.000019 0.000002 -0.000024
 24   -0.246150 -0.011872 -0.516511 -0.000005 -0.000006 0.000048
 25   4.941364 1.997338 1.629330 0.000018 -0.000001 -0.000024
 26   4.941382 1.997366 -1.629410 -0.000001 0.000005 -0.000024
 27   2.918368 1.615358 1.514501 -0.000019 -0.000022 -0.000050
 28   2.920798 1.614964 -1.501142 -0.000002 -0.000009 -0.000024
 29   8.824059 0.150544 0.091743 0.000006 -0.000231 -0.174534
 30   2.111085 -0.561179 1.784320 -0.000008 -0.000682 0.000024
 31   2.121290 -0.561289 -1.853599 0.000000 0.000000 -0.000002
 32   -0.810489 -0.093824 3.127092 -0.129396 -2.975241 -0.324172
 33   14.298673 -0.408176 0.475484 0.000020 -0.000248 -0.436243
 34   15.835795 0.581398 0.242756 0.162134 -0.013812 0.021782
 35   -0.815868 -0.091229 -3.114430 0.096037 3.002497 -0.031283
 36   14.294526 -0.410349 -0.463635 0.000093 0.000048 -0.399441
 37   15.834409 0.579420 -0.284600 -0.088743 0.040098 0.278038
 38   1.139685 -3.453749 -2.823813 0.000000 0.000000 0.000001
 39   -4.457742 -1.054854 -0.746180 0.000000 0.000000 0.000000
 40   1.118101 -3.449769 3.237290 0.000000 0.000001 0.000000
 41   -4.433840 -1.059130 0.959566 -0.000001 0.000000 0.000000
 42   -0.657468 1.697302 -2.688614 0.000000 0.000002 0.000000
 43   -0.664068 1.698578 2.869377 0.000000 0.000002 0.000000
time 1
  0   0.001233 0.187506 0.867585 0.000000 0.000000 -1.571449
  1   -1.093036 0.000002 -0.326057 -1.570809 -1.570379 -0.000123
  2   2.262337 0.113614 0.064702 -0.180989 -0.010821 -0.059285
  3   2.380047 0.353302 0.047440 0.073490 0.037004 -0.186221
  4   2.033756 0.190472 -0.000128 -0.179899 -0.023346 -0.128738
  5   2.451511 0.204909 -0.003447 -0.181336 0.000113 -0.000235
  6   7.247600 -0.397300 -0.109469 0.000001 0.000033 0.087015
  7   -2.022252 -0.104661 3.136172 1.356588 -0.807647 -4.507857
  8   1.168026 -0.537438 -0.063437 -1.018075 0.561524 -0.348565
  9   6.790376 -0.619176 0.015206 -0.000213 -0.000151 -1.652739
 10   8.637599 0.544015 -0.090417 -2.369653 0.027955 0.466500
 11   6.790465 -0.619039 0.017802 0.003045 -0.011850 -1.172098
 12   -2.022474 -0.104699 -2.873818 -1.479977 0.418725 -4.580134
 13   1.167898 -0.537463 0.063297 1.276822 -0.137719 -0.932387
 14   7.002743 -0.617765 -0.183752 0.000229 0.000250 -1.014075
 15   8.209042 0.615527 -0.255885 1.723963 0.175543 0.037158
 16   7.002735 -0.617911 -0.183641 0.014203 0.005620 -0.728535
 17   1.574674 0.609930 -0.000899 0.463070 -0.022689 0.060276
 18   -0.602177 0.511412 -0.000006 0.000000 0.000000 0.000000
 19   3.673773 0.177020 1.119313 -0.000002 -0.000014 -0.174510
 20   3.673767 0.176993 -1.117566 0.000007 -0.000003 -0.174546
 21   3.942357 1.330634 1.627658 0.000002 -0.000011 -0.000026
 22   -0.246060 -0.011889 0.516521 -0.000011 0.000031 0.000025
 23   3.942374 1.330659 -1.631083 0.000019 0.000002 -0.000024
 24   -0.246150 -0.011872 -0.516511 -0.000005 -0.000006 0.000048
 25   4.941364 1.997338 1.629330 0.000018 -0.000001 -0.000024
 26   4.941382 1.997366 -1.629410 -0.000001 0.000005 -0.000024
 27   2.918368 1.615358 1.514501 -0.000019 -0.000022 -0.000050
 28   2.920798 1.614964 -1.501142 -0.000002 -0.000009 -0.000024
 29   8.824059 0.150544 0.091743 0.000006 -0.000231 -0.174534
 30   2.111085 -0.561179 1.784320 -0.000008 -0.000682 0.000024
 31   2.121290 -0.561289 -1.853599 0.000000 0.000000 -0.000002
 32   -0.810489 -0.093824 3.127092 -0.129396 -2.975241 -0.324172
 33   14.298673 -0.408176 0.475484 0.000020 -0.000248 -0.436243
 34   15.835795 0.581398 0.242756 0.162134 -0.013812 0.021782
 35   -0.815868 -0.091229 -3.114430 0.096037 3.002497 -0.031283
 36   14.294526 -0.410349 -0.463635 0.000093 0.000048 -0.399441
 37   15.834409 0.579420 -0.284600 -0.088743 0.040098 0.278038
 38   1.139685 -3.453749 -2.823813 0.000000 0.000000 0.000001
 39   -4.457742 -1.054854 -0.746180 0.000000 0.000000 0.000000
 40   1.118101 -3.449769 3.237290 0.000000 0.000001 0.000000
 41   -4.433840 -1.059130 0.959566 -0.000001 0.000000 0.000000
 42   -0.657468 1.697302 -2.688614 0.000000 0.000002 0.000000
 43   -0.664068 1.698578 2.869377 0.000000 0.000002 0.000000
time 2
  0   0.001233 0.187506 0.867585 0.000000 0.000000 -1.571449
  1   -1.093036 0.000002 -0.326057 -1.570809 -1.570379 -0.000123
  2   2.262337 0.113614 0.064702 -0.234168 -0.013973 -0.058544
  3   2.380047 0.353302 0.047440 0.017611 0.030688 -0.294595
  4   2.033756 0.190472 -0.000128 -0.232608 -0.029937 -0.127397
  5   2.451511 0.204909 -0.003447 -0.234518 0.000152 -0.000235
  6   7.247600 -0.397300 -0.109469 0.000001 0.000033 0.087015
  7   -2.022252 -0.104661 3.136172 1.356588 -0.807647 -4.507857
  8   1.168026 -0.537438 -0.063437 -0.923787 0.737322 -0.017713
  9   6.790376 -0.619176 0.015206 -0.000213 -0.000352 -2.207953
 10   8.637599 0.544015 -0.090417 -2.015456 0.167680 0.529295
 11   6.790465 -0.619039 0.017802 0.005731 -0.011935 -1.560827
 12   -2.022474 -0.104699 -2.873818 -1.479977 0.418725 -4.580134
 13   1.167898 -0.537463 0.063297 1.324692 -0.366914 -1.208607
 14   7.002743 -0.617765 -0.183752 0.000229 0.000250 -1.449456
 15   8.209042 0.615527 -0.255885 1.730865 0.196046 -0.092919
 16   7.002735 -0.617911 -0.183641 0.013780 0.007988 -1.033199
 17   1.574674 0.609930 -0.000899 0.664667 -0.081075 0.188752
 18   -0.602177 0.511412 -0.000006 0.000000 0.000000 0.000000
 19   3.673773 0.177020 1.119313 -0.000002 -0.000014 -0.174510
 20   3.673767 0.176993 -1.117566 0.000007 -0.000003 -0.174546
 21   3.942357 1.330634 1.627658 0.000002 -0.000011 -0.000026
 22   -0.246060 -0.011889 0.516521 -0.000011 0.000031 0.000025
 23   3.942374 1.330659 -1.631083 0.000019 0.000002 -0.000024
 24   -0.246150 -0.011872 -0.516511 -0.000005 -0.000006 0.000048
 25   4.941364 1.997338 1.629330 0.000018 -0.000001 -0.000024
 26   4.941382 1.997366 -1.629410 -0.000001 0.000005 -0.000024
 27   2.918368 1.615358 1.514501 -0.000019 -0.000022 -0.000050
 28   2.920798 1.614964 -1.501142 -0.000002 -0.000009 -0.000024
 29   8.824059 0.150544 0.091743 0.000006 -0.000231 -0.174534
 30   2.111085 -0.561179 1.784320 -0.000008 -0.000682 0.000024
 31   2.121290 -0.561289 -1.853599 0.000000 0.000000 -0.000002
 32   -0.810489 -0.093824 3.127092 -0.129396 -2.975241 -0.324172
 33   14.298673 -0.408176 0.475484 0.000020 -0.000248 -0.436243
 34   15.835795 0.581398 0.242756 0.162134 -0.013812 0.021782
 35   -0.815868 -0.091229 -3.114430 0.096037 3.002497 -0.031283
 36   14.294526 -0.410349 -0.463635 0.000093 0.000048 -0.399441
 37   15.834409 0.579420 -0.284600 -0.088743 0.040098 0.278038
 38   1.139685 -3.453749 -2.823813 0.000000 0.000000 0.000001
 39   -4.457742 -1.054854 -0.746180 0.000000 0.000000 0.000000
 40   1.118101 -3.449769 3.237290 0.000000 0.000001 0.000000
 41   -4.433840 -1.059130 0.959566 -0.000001 0.000000 0.000000
 42   -0.657468 1.697302 -2.688614 0.000000 0.000002 0.000000
 43   -0.664068 1.698578 2.869377 0.000000 0.000002 0.000000
time 3
  0   0.001233 0.187506 0.867585 0.000000 0.000000 -1.571449
  1   -1.093036 0.000002 -0.326057 -1.570809 -1.570379 -0.000123
  2   2.262337 0.113614 0.064702 -0.258293 -0.015304 -0.058273
  3   2.380047 0.353302 0.047440 -0.007170 0.025979 -0.343711
  4   2.033756 0.190472 -0.000128 -0.256620 -0.032982 -0.126672
  5   2.451511 0.204909 -0.003447 -0.258687 0.000165 -0.000235
  6   7.247600 -0.397300 -0.109469 0.000001 0.000033 0.087015
  7   -2.022252 -0.104661 3.136172 1.356588 -0.807647 -4.507857
  8   1.168026 -0.537438 -0.063437 -0.949732 0.788441 0.075470
  9   6.790376 -0.619176 0.015206 -0.000213 -0.000352 -2.523407
 10   8.637599 0.544015 -0.090417 -1.711016 0.335491 0.632964
 11   6.790465 -0.619039 0.017802 0.007483 -0.011935 -1.781491
 12   -2.022474 -0.104699 -2.873818 -1.479977 0.418725 -4.580134
 13   1.167898 -0.537463 0.063297 1.368978 -0.501776 -1.374654
 14   7.002743 -0.617765 -0.183752 0.000286 0.000250 -1.811077
 15   8.209042 0.615527 -0.255885 1.734604 0.215794 -0.210367
 16   7.002735 -0.617911 -0.183641 0.013262 0.010018 -1.286424
 17   1.574674 0.609930 -0.000899 0.751960 -0.126704 0.249849
 18   -0.602177 0.511412 -0.000006 0.000000 0.000000 0.000000
 19   3.673773 0.177020 1.119313 -0.000002 -0.000014 -0.174510
 20   3.673767 0.176993 -1.117566 0.000007 -0.000003 -0.174546
 21   3.942357 1.330634 1.627658 0.000002 -0.000011 -0.000026
 22   -0.246060 -0.011889 0.516521 -0.000011 0.000031 0.000025
 23   3.942374 1.330659 -1.631083 0.000019 0.000002 -0.000024
 24   -0.246150 -0.011872 -0.516511 -0.000005 -0.000006 0.000048
 25   4.941364 1.997338 1.629330 0.000018 -0.000001 -0.000024
 26   4.941382 1.997366 -1.629410 -0.000001 0.000005 -0.000024
 27   2.918368 1.615358 1.514501 -0.000019 -0.000022 -0.000050
 28   2.920798 1.614964 -1.501142 -0.000002 -0.000009 -0.000024
 29   8.824059 0.150544 0.091743 0.000006 -0.000231 -0.174534
 30   2.111085 -0.561179 1.784320 -0.000008 -0.000682 0.000024
 31   2.121290 -0.561289 -1.853599 0.000000 0.000000 -0.000002
 32   -0.810489 -0.093824 3.127092 -0.129396 -2.975241 -0.324172
 33   14.298673 -0.408176 0.475484 0.000020 -0.000248 -0.436243
 34   15.835795 0.581398 0.242756 0.162134 -0.013812 0.021782
 35   -0.815868 -0.091229 -3.114430 0.096037 3.002497 -0.031283
 36   14.294526 -0.410349 -0.463635 0.000093 0.000048 -0.399441
 37   15.834409 0.579420 -0.284600 -0.088743 0.040098 0.278038
 38   1.139685 -3.453749 -2.823813 0.000000 0.000000 0.000001
 39   -4.457742 -1.054854 -0.746180 0.000000 0.000000 0.000000
 40   1.118101 -3.449769 3.237290 0.000000 0.000001 0.000000
 41   -4.433840 -1.059130 0.959566 -0.000001 0.000000 0.000000
 42   -0.657468 1.697302 -2.688614 0.000000 0.000002 0.000000
 43   -0.664068 1.698578 2.869377 0.000000 0.000002 0.000000
time 4
  0   0.001233 0.187506 0.867585 0.000000 0.000000 -1.571449
  1   -1.093036 0.000002 -0.326057 -1.570809 -1.570379 -0.000123
  2   2.262337 0.113614 0.064702 -0.255274 -0.015136 -0.058273
  3   2.380047 0.353302 0.047440 -0.003990 0.026650 -0.337508
  4   2.033756 0.190472 -0.000128 -0.253614 -0.032754 -0.126817
  5   2.451511 0.204909 -0.003447 -0.255606 0.000165 -0.000235
  6   7.247600 -0.397300 -0.109469 0.000001 0.000033 0.087015
  7   -2.022252 -0.104661 3.136172 1.356588 -0.807647 -4.507857
  8   1.168026 -0.537438 -0.063437 -0.943214 0.784869 0.066930
  9   6.790376 -0.619176 0.015206 -0.000213 -0.000352 -2.483787
 10   8.637599 0.544015 -0.090417 -1.748355 0.311558 0.610610
 11   6.790465 -0.619039 0.017802 0.007220 -0.011935 -1.753980
 12   -2.022474 -0.104699 -2.873818 -1.479977 0.418725 -4.580134
 13   1.167898 -0.537463 0.063297 1.363073 -0.488808 -1.355888
 14   7.002743 -0.617765 -0.183752 0.000286 0.000250 -1.782448
 15   8.209042 0.615527 -0.255885 1.735539 0.223738 -0.257094
 16   7.002735 -0.617911 -0.183641 0.013309 0.009849 -1.266444
 17   1.574674 0.609930 -0.000899 0.740018 -0.128953 0.251734
 18   -0.602177 0.511412 -0.000006 0.000000 0.000000 0.000000
 19   3.673773 0.177020 1.119313 -0.000002 -0.000014 -0.174510
 20   3.673767 0.176993 -1.117566 0.000007 -0.000003 -0.174546
 21   3.942357 1.330634 1.627658 0.000002 -0.000011 -0.000026
 22   -0.246060 -0.011889 0.516521 -0.000011 0.000031 0.000025
 23   3.942374 1.330659 -1.631083 0.000019 0.000002 -0.000024
 24   -0.246150 -0.011872 -0.516511 -0.000005 -0.000006 0.000048
 25   4.941364 1.997338 1.629330 0.000018 -0.000001 -0.000024
 26   4.941382 1.997366 -1.629410 -0.000001 0.000005 -0.000024
 27   2.918368 1.615358 1.514501 -0.000019 -0.000022 -0.000050
 28   2.920798 1.614964 -1.501142 -0.000002 -0.000009 -0.000024
 29   8.824059 0.150544 0.091743 0.000006 -0.000231 -0.174534
 30   2.111085 -0.561179 1.784320 -0.000008 -0.000682 0.000024
 31   2.121290 -0.561289 -1.853599 0.000000 0.000000 -0.000002
 32   -0.810489 -0.093824 3.127092 -0.129396 -2.975241 -0.324172
 33   14.298673 -0.408176 0.475484 0.000020 -0.000248 -0.436243
 34   15.835795 0.581398 0.242756 0.162134 -0.013812 0.021782
 35   -0.815868 -0.091229 -3.114430 0.096037 3.002497 -0.031283
 36   14.294526 -0.410349 -0.463635 0.000093 0.000048 -0.399441
 37   15.834409 0.579420 -0.284600 -0.088743 0.040098 0.278038
 38   1.139685 -3.453749 -2.823813 0.000000 0.000000 0.000001
 39   -4.457742 -1.054854 -0.746180 0.000000 0.000000 0.000000
 40   1.118101 -3.449769 3.237290 0.000000 0.000001 0.000000
 41   -4.433840 -1.059130 0.959566 -0.000001 0.000000 0.000000
 42   -0.657468 1.697302 -2.688614 0.000000 0.000002 0.000000
 43   -0.664068 1.698578 2.869377 0.000000 0.000002 0.000000
time 5
  0   0.001233 0.187506 0.867585 0.000000 0.000000 -1.571449
  1   -1.093036 0.000002 -0.326057 -1.570809 -1.570379 -0.000123
  2   2.262337 0.113614 0.064702 -0.246880 -0.014620 -0.058418
  3   2.380047 0.353302 0.047440 0.004335 0.028304 -0.320469
  4   2.033756 0.190472 -0.000128 -0.245241 -0.031531 -0.126962
  5   2.451511 0.204909 -0.003447 -0.247253 0.000152 -0.000235
  6   7.247600 -0.397300 -0.109469 0.000001 0.000033 0.087015
  7   -2.022252 -0.104661 3.136172 1.356588 -0.807647 -4.507857
  8   1.168026 -0.537438 -0.063437 -0.931697 0.770278 0.037071
  9   6.790376 -0.619176 0.015206 -0.000213 -0.000352 -2.376321
 10   8.637599 0.544015 -0.090417 -1.851127 0.250811 0.565467
 11   6.790465 -0.619039 0.017802 0.006607 -0.011935 -1.678772
 12   -2.022474 -0.104699 -2.873818 -1.479977 0.418725 -4.580134
 13   1.167898 -0.537463 0.063297 1.346132 -0.442125 -1.296867
 14   7.002743 -0.617765 -0.183752 0.000286 0.000250 -1.655472
 15   8.209042 0.615527 -0.255885 1.734029 0.210649 -0.180539
 16   7.002735 -0.617911 -0.183641 0.013497 0.009116 -1.177418
 17   1.574674 0.609930 -0.000899 0.709471 -0.115794 0.235286
 18   -0.602177 0.511412 -0.000006 0.000000 0.000000 0.000000
 19   3.673773 0.177020 1.119313 -0.000002 -0.000014 -0.174510
 20   3.673767 0.176993 -1.117566 0.000007 -0.000003 -0.174546
 21   3.942357 1.330634 1.627658 0.000002 -0.000011 -0.000026
 22   -0.246060 -0.011889 0.516521 -0.000011 0.000031 0.000025
 23   3.942374 1.330659 -1.631083 0.000019 0.000002 -0.000024
 24   -0.246150 -0.011872 -0.516511 -0.000005 -0.000006 0.000048
 25   4.941364 1.997338 1.629330 0.000018 -0.000001 -0.000024
 26   4.941382 1.997366 -1.629410 -0.000001 0.000005 -0.000024
 27   2.918368 1.615358 1.514501 -0.000019 -0.000022 -0.000050
 28   2.920798 1.614964 -1.501142 -0.000002 -0.000009 -0.000024
 29   8.824059 0.150544 0.091743 0.000006 -0.000231 -0.174534
 30   2.111085 -0.561179 1.784320 -0.000008 -0.000682 0.000024
 31   2.121290 -0.561289 -1.853599 0.000000 0.000000 -0.000002
 32   -0.810489 -0.093824 3.127092 -0.129396 -2.975241 -0.324172
 33   14.298673 -0.408176 0.475484 0.000020 -0.000248 -0.436243
 34   15.835795 0.581398 0.242756 0.162134 -0.013812 0.021782
 35   -0.815868 -0.091229 -3.114430 0.096037 3.002497 -0.031283
 36   14.294526 -0.410349 -0.463635 0.000093 0.000048 -0.399441
 37   15.834409 0.579420 -0.284600 -0.088743 0.040098 0.278038
 38   1.139685 -3.453749 -2.823813 0.000000 0.000000 0.000001
 39   -4.457742 -1.054854 -0.746180 0.000000 0.000000 0.000000
 40   1.118101 -3.449769 3.237290 0.000000 0.000001 0.000000
 41   -4.433840 -1.059130 0.959566 -0.000001 0.000000 0.000000
 42   -0.657468 1.697302 -2.688614 0.000000 0.000002 0.000000
 43   -0.664068 1.698578 2.869377 0.000000 0.000002 0.000000
time 6
  0   0.001233 0.187506 0.867585 0.000000 0.000000 -1.571449
  1   -1.093036 0.000002 -0.326057 -1.570809 -1.570379 -0.000123
  2   2.262337 0.113614 0.064702 -0.234168 -0.013973 -0.058544
  3   2.380047 0.353302 0.047440 0.017611 0.030688 -0.294595
  4   2.033756 0.190472 -0.000128 -0.232608 -0.029937 -0.127397
  5   2.451511 0.204909 -0.003447 -0.234518 0.000152 -0.000235
  6   7.247600 -0.397300 -0.109469 0.000001 0.000033 0.087015
  7   -2.022252 -0.104661 3.136172 1.356588 -0.807647 -4.507857
  8   1.168026 -0.537438 -0.063437 -0.933026 0.742253 -0.024039
  9   6.790376 -0.619176 0.015206 -0.000213 -0.000352 -2.245913
 10   8.637599 0.544015 -0.090417 -1.973097 0.180069 0.533708
 11   6.790465 -0.619039 0.017802 0.005935 -0.011935 -1.587415
 12   -2.022474 -0.104699 -2.873818 -1.479977 0.418725 -4.580134
 13   1.167898 -0.537463 0.063297 1.325888 -0.382627 -1.220048
 14   7.002743 -0.617765 -0.183752 0.000286 0.000250 -1.519998
 15   8.209042 0.615527 -0.255885 1.730578 0.195139 -0.087206
 16   7.002735 -0.617911 -0.183641 0.013686 0.008383 -1.082652
 17   1.574674 0.609930 -0.000899 0.663002 -0.095488 0.206937
 18   -0.602177 0.511412 -0.000006 0.000000 0.000000 0.000000
 19   3.673773 0.177020 1.119313 -0.000002 -0.000014 -0.174510
 20   3.673767 0.176993 -1.117566 0.000007 -0.000003 -0.174546
 21   3.942357 1.330634 1.627658 0.000002 -0.000011 -0.000026
 22   -0.246060 -0.011889 0.516521 -0.000011 0.000031 0.000025
 23   3.942374 1.330659 -1.631083 0.000019 0.000002 -0.000024
 24   -0.246150 -0.011872 -0.516511 -0.000005 -0.000006 0.000048
 25   4.941364 1.997338 1.629330 0.000018 -0.000001 -0.000024
 26   4.941382 1.997366 -1.629410 -0.000001 0.000005 -0.000024
 27   2.918368 1.615358 1.514501 -0.000019 -0.000022 -0.000050
 28   2.920798 1.614964 -1.501142 -0.000002 -0.000009 -0.000024
 29   8.824059 0.150544 0.091743 0.000006 -0.000231 -0.174534
 30   2.111085 -0.561179 1.784320 -0.000008 -0.000682 0.000024
 31   2.121290 -0.561289 -1.853599 0.000000 0.000000 -0.000002
 32   -0.810489 -0.093824 3.127092 -0.129396 -2.975241 -0.324172
 33   14.298673 -0.408176 0.475484 0.000020 -0.000248 -0.436243
 34   15.835795 0.581398 0.242756 0.162134 -0.013812 0.021782
 35   -0.815868 -0.091229 -3.114430 0.096037 3.002497 -0.031283
 36   14.294526 -0.410349 -0.463635 0.000093 0.000048 -0.399441
 37   15.834409 0.579420 -0.284600 -0.088743 0.040098 0.278038
 38   1.139685 -3.453749 -2.823813 0.000000 0.000000 0.000001
 39   -4.457742 -1.054854 -0.746180 0.000000 0.000000 0.000000
 40   1.118101 -3.449769 3.237290 0.000000 0.000001 0.000000
 41   -4.433840 -1.059130 0.959566 -0.000001 0.000000 0.000000
 42   -0.657468 1.697302 -2.688614 0.000000 0.000002 0.000000
 43   -0.664068 1.698578 2.869377 0.000000 0.000002 0.000000
time 7
  0   0.001233 0.187506 0.867585 0.000000 0.000000 -1.571449
  1   -1.093036 0.000002 -0.326057 -1.570809 -1.570379 -0.000123
  2   2.262337 0.113614 0.064702 -0.218157 -0.012955 -0.058851
  3   2.380047 0.353302 0.047440 0.034202 0.033217 -0.262191
  4   2.033756 0.190472 -0.000128 -0.216821 -0.028080 -0.127868
  5   2.451511 0.204909 -0.003447 -0.218548 0.000139 -0.000235
  6   7.247600 -0.397300 -0.109469 0.000001 0.000033 0.087015
  7   -2.022252 -0.104661 3.136172 1.356588 -0.807647 -4.507857
  8   1.168026 -0.537438 -0.063437 -0.945935 0.700643 -0.115134
  9   6.790376 -0.619176 0.015206 -0.000213 -0.000352 -2.111355
 10   8.637599 0.544015 -0.090417 -2.116379 0.099331 0.533346
 11   6.790465 -0.619039 0.017802 0.005264 -0.011935 -1.493232
 12   -2.022474 -0.104699 -2.873818 -1.479977 0.418725 -4.580134
 13   1.167898 -0.537463 0.063297 1.305854 -0.312552 -1.132333
 14   7.002743 -0.617765 -0.183752 0.000229 0.000250 -1.377759
 15   8.209042 0.615527 -0.255885 1.725688 0.179704 0.010397
 16   7.002735 -0.617911 -0.183641 0.013827 0.007537 -0.983029
 17   1.574674 0.609930 -0.000899 0.604143 -0.071845 0.169163
 18   -0.602177 0.511412 -0.000006 0.000000 0.000000 0.000000
 19   3.673773 0.177020 1.119313 -0.000002 -0.000014 -0.174510
 20   3.673767 0.176993 -1.117566 0.000007 -0.000003 -0.174546
 21   3.942357 1.330634 1.627658 0.000002 -0.000011 -0.000026
 22   -0.246060 -0.011889 0.516521 -0.000011 0.000031 0.000025
 23   3.942374 1.330659 -1.631083 0.000019 0.000002 -0.000024
 24   -0.246150 -0.011872 -0.516511 -0.000005 -0.000006 0.000048
 25   4.941364 1.997338 1.629330 0.000018 -0.000001 -0.000024
 26   4.941382 1.997366 -1.629410 -0.000001 0.000005 -0.000024
 27   2.918368 1.615358 1.514501 -0.000019 -0.000022 -0.000050
 28   2.920798 1.614964 -1.501142 -0.000002 -0.000009 -0.000024
 29   8.824059 0.150544 0.091743 0.000006 -0.000231 -0.174534
 30   2.111085 -0.561179 1.784320 -0.000008 -0.000682 0.000024
 31   2.121290 -0.561289 -1.853599 0.000000 0.000000 -0.000002
 32   -0.810489 -0.093824 3.127092 -0.129396 -2.975241 -0.324172
 33   14.298673 -0.408176 0.475484 0.000020 -0.000248 -0.436243
 34   15.835795 0.581398 0.242756 0.162134 -0.013812 0.021782
 35   -0.815868 -0.091229 -3.114430 0.096037 3.002497 -0.031283
 36   14.294526 -0.410349 -0.463635 0.000093 0.000048 -0.399441
 37   15.834409 0.579420 -0.284600 -0.088743 0.040098 0.278038
 38   1.139685 -3.453749 -2.823813 0.000000 0.000000 0.000001
 39   -4.457742 -1.054854 -0.746180 0.000000 0.000000 0.000000
 40   1.118101 -3.449769 3.237290 0.000000 0.000001 0.000000
 41   -4.433840 -1.059130 0.959566 -0.000001 0.000000 0.000000
 42   -0.657468 1.697302 -2.688614 0.000000 0.000002 0.000000
 43   -0.664068 1.698578 2.869377 0.000000 0.000002 0.000000
time 8
  0   0.001233 0.187506 0.867585 0.000000 0.000000 -1.571449
  1   -1.093036 0.000002 -0.326057 -1.570809 -1.570379 -0.000123
  2   2.262337 0.113614 0.064702 -0.200197 -0.011996 -0.059140
  3   2.380047 0.353302 0.047440 0.053299 0.035422 -0.225318
  4   2.033756 0.190472 -0.000128 -0.198858 -0.025779 -0.128303
  5   2.451511 0.204909 -0.003447 -0.200524 0.000126 -0.000235
  6   7.247600 -0.397300 -0.109469 0.000001 0.000033 0.087015
  7   -2.022252 -0.104661 3.136172 1.356588 -0.807647 -4.507857
  8   1.168026 -0.537438 -0.063437 -0.963274 0.647360 -0.224258
  9   6.790376 -0.619176 0.015206 -0.000213 -0.000151 -1.953779
 10   8.637599 0.544015 -0.090417 -2.282733 0.015144 0.553675
 11   6.790465 -0.619039 0.017802 0.004505 -0.011935 -1.382842
 12   -2.022474 -0.104699 -2.873818 -1.479977 0.418725 -4.580134
 13   1.167898 -0.537463 0.063297 1.288632 -0.234747 -1.038020
 14   7.002743 -0.617765 -0.183752 0.000229 0.000250 -1.230487
 15   8.209042 0.615527 -0.255885 1.719792 0.166010 0.099520
 16   7.002735 -0.617911 -0.183641 0.014015 0.006804 -0.879984
 17   1.574674 0.609930 -0.000899 0.536023 -0.048698 0.123959
 18   -0.602177 0.511412 -0.000006 0.000000 0.000000 0.000000
 19   3.673773 0.177020 1.119313 -0.000002 -0.000014 -0.174510
 20   3.673767 0.176993 -1.117566 0.000007 -0.000003 -0.174546
 21   3.942357 1.330634 1.627658 0.000002 -0.000011 -0.000026
 22   -0.246060 -0.011889 0.516521 -0.000011 0.000031 0.000025
 23   3.942374 1.330659 -1.631083 0.000019 0.000002 -0.000024
 24   -0.246150 -0.011872 -0.516511 -0.000005 -0.000006 0.000048
 25   4.941364 1.997338 1.629330 0.000018 -0.000001 -0.000024
 26   4.941382 1.997366 -1.629410 -0.000001 0.000005 -0.000024
 27   2.918368 1.615358 1.514501 -0.000019 -0.000022 -0.000050
 28   2.920798 1.614964 -1.501142 -0.000002 -0.000009 -0.000024
 29   8.824059 0.150544 0.091743 0.000006 -0.000231 -0.174534
 30   2.111085 -0.561179 1.784320 -0.000008 -0.000682 0.000024
 31   2.121290 -0.561289 -1.853599 0.000000 0.000000 -0.000002
 32   -0.810489 -0.093824 3.127092 -0.129396 -2.975241 -0.324172
 33   14.298673 -0.408176 0.475484 0.000020 -0.000248 -0.436243
 34   15.835795 0.581398 0.242756 0.162134 -0.013812 0.021782
 35   -0.815868 -0.091229 -3.114430 0.096037 3.002497 -0.031283
 36   14.294526 -0.410349 -0.463635 0.000093 0.000048 -0.399441
 37   15.834409 0.579420 -0.284600 -0.088743 0.040098 0.278038
 38   1.139685 -3.453749 -2.823813 0.000000 0.000000 0.000001
 39   -4.457742 -1.054854 -0.746180 0.000000 0.000000 0.000000
 40   1.118101 -3.449769 3.237290 0.000000 0.000001 0.000000
 41   -4.433840 -1.059130 0.959566 -0.000001 0.000000 0.000000
 42   -0.657468 1.697302 -2.688614 0.000000 0.000002 0.000000
 43   -0.664068 1.698578 2.869377 0.000000 0.000002 0.000000
time 9
  0   0.001233 0.187506 0.867585 0.000000 0.000000 -1.571449
  1   -1.093036 0.000002 -0.326057 -1.570809 -1.570379 -0.000123
  2   2.262337 0.113614 0.064702 -0.180989 -0.010821 -0.059285
  3   2.380047 0.353302 0.047440 0.073490 0.037004 -0.186221
  4   2.033756 0.190472 -0.000128 -0.179899 -0.023346 -0.128738
  5   2.451511 0.204909 -0.003447 -0.181336 0.000113 -0.000235
  6   7.247600 -0.397300 -0.109469 0.000001 0.000033 0.087015
  7   -2.022252 -0.104661 3.136172 1.356588 -0.807647 -4.507857
  8   1.168026 -0.537438 -0.063437 -0.989915 0.583058 -0.343504
  9   6.790376 -0.619176 0.015206 -0.000213 -0.000151 -1.763827
 10   8.637599 0.544015 -0.090417 -2.431827 -0.034763 0.566046
 11   6.790465 -0.619039 0.017802 0.003600 -0.011850 -1.249959
 12   -2.022474 -0.104699 -2.873818 -1.479977 0.418725 -4.580134
 13   1.167898 -0.537463 0.063297 1.276190 -0.152772 -0.941770
 14   7.002743 -0.617765 -0.183752 0.000229 0.000250 -1.081152
 15   8.209042 0.615527 -0.255885 1.714543 0.156401 0.167415
 16   7.002735 -0.617911 -0.183641 0.014156 0.005902 -0.775449
 17   1.574674 0.609930 -0.000899 0.462785 -0.029126 0.073064
 18   -0.602177 0.511412 -0.000006 0.000000 0.000000 0.000000
 19   3.673773 0.177020 1.119313 -0.000002 -0.000014 -0.174510
 20   3.673767 0.176993 -1.117566 0.000007 -0.000003 -0.174546
 21   3.942357 1.330634 1.627658 0.000002 -0.000011 -0.000026
 22   -0.246060 -0.011889 0.516521 -0.000011 0.000031 0.000025
 23   3.942374 1.330659 -1.631083 0.000019 0.000002 -0.000024
 24   -0.246150 -0.011872 -0.516511 -0.000005 -0.000006 0.000048
 25   4.941364 1.997338 1.629330 0.000018 -0.000001 -0.000024
 26   4.941382 1.997366 -1.629410 -0.000001 0.000005 -0.000024
 27   2.918368 1.615358 1.514501 -0.000019 -0.000022 -0.000050
 28   2.920798 1.614964 -1.501142 -0.000002 -0.000009 -0.000024
 29   8.824059 0.150544 0.091743 0.000006 -0.000231 -0.174534
 30   2.111085 -0.561179 1.784320 -0.000008 -0.000682 0.000024
 31   2.121290 -0.561289 -1.853599 0.000000 0.000000 -0.000002
 32   -0.810489 -0.093824 3.127092 -0.129396 -2.975241 -0.324172
 33   14.298673 -0.408176 0.475484 0.000020 -0.000248 -0.436243
 34   15.835795 0.581398 0.242756 0.162134 -0.013812 0.021782
 35   -0.815868 -0.091229 -3.114430 0.096037 3.002497 -0.031283
 36   14.294526 -0.410349 -0.463635 0.000093 0.000048 -0.399441
 37   15.834409 0.579420 -0.284600 -0.088743 0.040098 0.278038
 38   1.139685 -3.453749 -2.823813 0.000000 0.000000 0.000001
 39   -4.457742 -1.054854 -0.746180 0.000000 0.000000 0.000000
 40   1.118101 -3.449769 3.237290 0.000000 0.000001 0.000000
 41   -4.433840 -1.059130 0.959566 -0.000001 0.000000 0.000000
 42   -0.657468 1.697302 -2.688614 0.000000 0.000002 0.000000
 43   -0.664068 1.698578 2.869377 0.000000 0.000002 0.000000
time 10
  0   0.001233 0.187506 0.867585 0.000000 0.000000 -1.571449
  1   -1.093036 0.000002 -0.326057 -1.570809 -1.570379 -0.000123
  2   2.262337 0.113614 0.064702 -0.161921 -0.009695 -0.059484
  3   2.380047 0.353302 0.047440 0.093696 0.037795 -0.147063
  4   2.033756 0.190472 -0.000128 -0.160811 -0.020745 -0.129318
  5   2.451511 0.204909 -0.003447 -0.162234 0.000086 -0.000235
  6   7.247600 -0.397300 -0.109469 0.000001 0.000033 0.087015
  7   -2.022252 -0.104661 3.136172 1.356588 -0.807647 -4.507857
  8   1.168026 -0.537438 -0.063437 -1.030984 0.504065 -0.468633
  9   6.790376 -0.619176 0.015206 -0.000213 -0.000151 -1.527463
 10   8.637599 0.544015 -0.090417 -2.541203 -0.034763 0.542534
 11   6.790465 -0.619039 0.017802 0.002549 -0.011793 -1.084432
 12   -2.022474 -0.104699 -2.873818 -1.479977 0.418725 -4.580134
 13   1.167898 -0.537463 0.063297 1.269512 -0.067390 -0.846125
 14   7.002743 -0.617765 -0.183752 0.000229 0.000250 -0.921009
 15   8.209042 0.615527 -0.255885 1.712602 0.153072 0.191230
 16   7.002735 -0.617911 -0.183641 0.014298 0.005056 -0.663408
 17   1.574674 0.609930 -0.000899 0.388410 -0.015068 0.020616
 18   -0.602177 0.511412 -0.000006 0.000000 0.000000 0.000000
 19   3.673773 0.177020 1.119313 -0.000002 -0.000014 -0.174510
 20   3.673767 0.176993 -1.117566 0.000007 -0.000003 -0.174546
 21   3.942357 1.330634 1.627658 0.000002 -0.000011 -0.000026
 22   -0.246060 -0.011889 0.516521 -0.000011 0.000031 0.000025
 23   3.942374 1.330659 -1.631083 0.000019 0.000002 -0.000024
 24   -0.246150 -0.011872 -0.516511 -0.000005 -0.000006 0.000048
 25   4.941364 1.997338 1.629330 0.000018 -0.000001 -0.000024
 26   4.941382 1.997366 -1.629410 -0.000001 0.000005 -0.000024
 27   2.918368 1.615358 1.514501 -0.000019 -0.000022 -0.000050
 28   2.920798 1.614964 -1.501142 -0.000002 -0.000009 -0.000024
 29   8.824059 0.150544 0.091743 0.000006 -0.000231 -0.174534
 30   2.111085 -0.561179 1.784320 -0.000008 -0.000682 0.000024
 31   2.121290 -0.561289 -1.853599 0.000000 0.000000 -0.000002
 32   -0.810489 -0.093824 3.127092 -0.129396 -2.975241 -0.324172
 33   14.298673 -0.408176 0.475484 0.000020 -0.000248 -0.436243
 34   15.835795 0.581398 0.242756 0.162134 -0.013812 0.021782
 35   -0.815868 -0.091229 -3.114430 0.096037 3.002497 -0.031283
 36   14.294526 -0.410349 -0.463635 0.000093 0.000048 -0.399441
 37   15.834409 0.579420 -0.284600 -0.088743 0.040098 0.278038
 38   1.139685 -3.453749 -2.823813 0.000000 0.000000 0.000001
 39   -4.457742 -1.054854 -0.746180 0.000000 0.000000 0.000000
 40   1.118101 -3.449769 3.237290 0.000000 0.000001 0.000000
 41   -4.433840 -1.059130 0.959566 -0.000001 0.000000 0.000000
 42   -0.657468 1.697302 -2.688614 0.000000 0.000002 0.000000
 43   -0.664068 1.698578 2.869377 0.000000 0.000002 0.000000
time 11
  0   0.001233 0.187506 0.867585 0.000000 0.000000 -1.571449
  1   -1.093036 0.000002 -0.326057 -1.570809 -1.570379 -0.000123
  2   2.262337 0.113614 0.064702 -0.143871 -0.008616 -0.059646
  3   2.380047 0.353302 0.047440 0.112853 0.037807 -0.110170
  4   2.033756 0.190472 -0.000128 -0.142903 -0.018420 -0.129499
  5   2.451511 0.204909 -0.003447 -0.144124 0.000073 -0.000235
  6   7.247600 -0.397300 -0.109469 0.000001 0.000033 0.087015
  7   -2.022252 -0.104661 3.136172 1.356588 -0.807647 -4.507857
  8   1.168026 -0.537438 -0.063437 -1.076356 0.414958 -0.592307
  9   6.790376 -0.619176 0.015206 -0.000213 -0.000151 -1.258648
 10   8.637599 0.544015 -0.090417 -2.631470 -0.009352 0.494859
 11   6.790465 -0.619039 0.017802 0.001381 -0.011708 -0.896239
 12   -2.022474 -0.104699 -2.873818 -1.479977 0.418725 -4.580134
 13   1.167898 -0.537463 0.063297 1.268668 0.017942 -0.753325
 14   7.002743 -0.617765 -0.183752 0.000229 0.000250 -0.750140
 15   8.209042 0.615527 -0.255885 1.713465 0.154661 0.179443
 16   7.002735 -0.617911 -0.183641 0.014439 0.004210 -0.543750
 17   1.574674 0.609930 -0.000899 0.317568 -0.007116 -0.030131
 18   -0.602177 0.511412 -0.000006 0.000000 0.000000 0.000000
 19   3.673773 0.177020 1.119313 -0.000002 -0.000014 -0.174510
 20   3.673767 0.176993 -1.117566 0.000007 -0.000003 -0.174546
 21   3.942357 1.330634 1.627658 0.000002 -0.000011 -0.000026
 22   -0.246060 -0.011889 0.516521 -0.000011 0.000031 0.000025
 23   3.942374 1.330659 -1.631083 0.000019 0.000002 -0.000024
 24   -0.246150 -0.011872 -0.516511 -0.000005 -0.000006 0.000048
 25   4.941364 1.997338 1.629330 0.000018 -0.000001 -0.000024
 26   4.941382 1.997366 -1.629410 -0.000001 0.000005 -0.000024
 27   2.918368 1.615358 1.514501 -0.000019 -0.000022 -0.000050
 28   2.920798 1.614964 -1.501142 -0.000002 -0.000009 -0.000024
 29   8.824059 0.150544 0.091743 0.000006 -0.000231 -0.174534
 30   2.111085 -0.561179 1.784320 -0.000008 -0.000682 0.000024
 31   2.121290 -0.561289 -1.853599 0.000000 0.000000 -0.000002
 32   -0.810489 -0.093824 3.127092 -0.129396 -2.975241 -0.324172
 33   14.298673 -0.408176 0.475484 0.000020 -0.000248 -0.436243
 34   15.835795 0.581398 0.242756 0.162134 -0.013812 0.021782
 35   -0.815868 -0.091229 -3.114430 0.096037 3.002497 -0.031283
 36   14.294526 -0.410349 -0.463635 0.000093 0.000048 -0.399441
 37   15.834409 0.579420 -0.284600 -0.088743 0.040098 0.278038
 38   1.139685 -3.453749 -2.823813 0.000000 0.000000 0.000001
 39   -4.457742 -1.054854 -0.746180 0.000000 0.000000 0.000000
 40   1.118101 -3.449769 3.237290 0.000000 0.000001 0.000000
 41   -4.433840 -1.059130 0.959566 -0.000001 0.000000 0.000000
 42   -0.657468 1.697302 -2.688614 0.000000 0.000002 0.000000
 43   -0.664068 1.698578 2.869377 0.000000 0.000002 0.000000
time 12
  0   0.001233 0.187506 0.867585 0.000000 0.000000 -1.571449
  1   -1.093036 0.000002 -0.326057 -1.570809 -1.570379 -0.000123
  2   2.262337 0.113614 0.064702 -0.127860 -0.007574 -0.059755
  3   2.380047 0.353302 0.047440 0.129744 0.037376 -0.077684
  4   2.033756 0.190472 -0.000128 -0.127061 -0.016527 -0.129898
  5   2.451511 0.204909 -0.003447 -0.128171 0.000060 -0.000136
  6   7.247600 -0.397300 -0.109469 0.000001 0.000033 0.087015
  7   -2.022252 -0.104661 3.136172 1.356588 -0.807647 -4.507857
  8   1.168026 -0.537438 -0.063437 -1.113249 0.328216 -0.703076
  9   6.790376 -0.619176 0.015206 -0.000213 -0.000151 -0.989833
 10   8.637599 0.544015 -0.090417 -2.723498 0.011061 0.444435
 11   6.790465 -0.619039 0.017802 0.000242 -0.011566 -0.708045
 12   -2.022474 -0.104699 -2.873818 -1.479977 0.418725 -4.580134
 13   1.167898 -0.537463 0.063297 1.273097 0.098391 -0.668274
 14   7.002743 -0.617765 -0.183752 0.000229 0.000250 -0.579024
 15   8.209042 0.615527 -0.255885 1.714543 0.156401 0.167415
 16   7.002735 -0.617911 -0.183641 0.014533 0.003308 -0.423981
 17   1.574674 0.609930 -0.000899 0.254973 -0.004560 -0.075261
 18   -0.602177 0.511412 -0.000006 0.000000 0.000000 0.000000
 19   3.673773 0.177020 1.119313 -0.000002 -0.000014 -0.174510
 20   3.673767 0.176993 -1.117566 0.000007 -0.000003 -0.174546
 21   3.942357 1.330634 1.627658 0.000002 -0.000011 -0.000026
 22   -0.246060 -0.011889 0.516521 -0.000011 0.000031 0.000025
 23   3.942374 1.330659 -1.631083 0.000019 0.000002 -0.000024
 24   -0.246150 -0.011872 -0.516511 -0.000005 -0.000006 0.000048
 25   4.941364 1.997338 1.629330 0.000018 -0.000001 -0.000024
 26   4.941382 1.997366 -1.629410 -0.000001 0.000005 -0.000024
 27   2.918368 1.615358 1.514501 -0.000019 -0.000022 -0.000050
 28   2.920798 1.614964 -1.501142 -0.000002 -0.000009 -0.000024
 29   8.824059 0.150544 0.091743 0.000006 -0.000231 -0.174534
 30   2.111085 -0.561179 1.784320 -0.000008 -0.000682 0.000024
 31   2.121290 -0.561289 -1.853599 0.000000 0.000000 -0.000002
 32   -0.810489 -0.093824 3.127092 -0.129396 -2.975241 -0.324172
 33   14.298673 -0.408176 0.475484 0.000020 -0.000248 -0.436243
 34   15.835795 0.581398 0.242756 0.162134 -0.013812 0.021782
 35   -0.815868 -0.091229 -3.114430 0.096037 3.002497 -0.031283
 36   14.294526 -0.410349 -0.463635 0.000093 0.000048 -0.399441
 37   15.834409 0.579420 -0.284600 -0.088743 0.040098 0.278038
 38   1.139685 -3.453749 -2.823813 0.000000 0.000000 0.000001
 39   -4.457742 -1.054854 -0.746180 0.000000 0.000000 0.000000
 40   1.118101 -3.449769 3.237290 0.000000 0.000001 0.000000
 41   -4.433840 -1.059130 0.959566 -0.000001 0.000000 0.000000
 42   -0.657468 1.697302 -2.688614 0.000000 0.000002 0.000000
 43   -0.664068 1.698578 2.869377 0.000000 0.000002 0.000000
end
