version 1
nodes
  0 "Bip01" -1
  1 "Bip01 Pelvis" 0
  2 "Bip01 Spine" 1
  3 "Bip01 Spine1" 2
  4 "Bip01 Spine2" 3
  5 "Bip01 Spine3" 4
  6 "Bip01 Neck" 5
  7 "Bip01 L Arm" 6
  8 "Bip01 L Arm1" 7
  9 "Bip01 L Arm2" 8
 10 "Bip01 L Hand" 9
 11 "Bip06 L elbow2-smooth" 8
 12 "Bip01 R Arm" 6
 13 "Bip01 R Arm1" 12
 14 "Bip01 R Arm2" 13
 15 "Bip01 R Hand" 14
 16 "Bip06 R elbow2-smooth" 13
 17 "Bip01 Head" 6
 18 "Bip06 Head_helper" 17
 19 "Bip06 Head_eyes_l" 18
 20 "Bip06 Head_eyes_r" 18
 21 "Bip06 Head_blink_l" 18
 22 "Bip06 Head_blink_smooth_l1" 21
 23 "Bip06 Head_blink_r" 18
 24 "Bip06 Head_blink_smooth_r1" 23
 25 "Bip06 Head_L_eyebrow" 18
 26 "Bip06 Head_R_eyebrow" 18
 27 "Bip06 Head_blink_l_lid" 18
 28 "Bip06 Head_blink_r_lid" 18
 29 "Bip06 bunny" 18
 30 "Bip06 bunnyL" 29
 31 "Bip06 bunnyR" 29
 32 "Bip01 L Leg" 1
 33 "Bip01 L Leg1" 32
 34 "Bip01 L Foot" 33
 35 "Bip01 R Leg" 1
 36 "Bip01 R Leg1" 35
 37 "Bip01 R Foot" 36
 38 "Bip03 HairR1" 17
 39 "Bip03 HairR2" 38
 40 "Bip03 HairL1" 17
 41 "Bip03 HairL2" 40
 42 "Bip03 swingR" 17
 43 "Bip03 swingL" 17
end
skeleton
time 0
  0   0.243428 0.429701 2.172312 0.000000 0.000000 -1.571449
  1   -1.093036 0.000002 -0.326057 -1.570861 -1.570379 0.000216
  2   2.262337 0.113614 0.064702 -0.000052 0.000061 -0.243246
  3   2.380047 0.353302 0.047440 -0.155815 0.017613 0.111802
  4   2.033756 0.190472 -0.000128 -0.287327 0.015041 0.049778
  5   2.451511 0.204909 -0.003447 -0.156722 0.005544 0.034263
  6   7.247600 -0.397300 -0.109469 -0.000143 -0.183116 -0.252900
  7   -2.022252 -0.104661 3.136172 -1.657090 -1.783188 -1.187639
  8   1.168026 -0.537438 -0.063437 -0.881895 0.933749 -0.864200
  9   6.790376 -0.619176 0.015206 -0.000213 -0.000352 -1.932950
 10   8.637599 0.544015 -0.090417 -1.656328 -0.275639 -0.099522
 11   6.790465 -0.619039 0.017802 0.004388 -0.011935 -1.368308
 12   -2.022474 -0.104699 -2.873818 0.039619 1.193461 -2.846646
 13   1.167898 -0.537463 0.063297 -0.783991 -0.773585 0.300767
 14   7.002743 -0.617765 -0.183752 0.000229 0.000250 -2.147121
 15   8.209042 0.615527 -0.255885 1.570090 -0.000063 -0.069646
 16   7.002735 -0.617911 -0.183641 0.012603 0.012161 -1.521766
 17   1.574674 0.609930 -0.000899 0.574450 0.322280 -0.062620
 18   -0.602177 0.511412 -0.000006 0.000000 0.000000 0.000000
 19   3.673773 0.177020 1.119313 -0.000002 -0.000014 -0.174510
 20   3.673767 0.176993 -1.117566 0.000007 -0.000003 -0.174546
 21   3.942357 1.330634 1.627658 0.000002 -0.000011 -0.000026
 22   -0.246060 -0.011889 0.516521 -0.000011 0.000031 0.000025
 23   3.942374 1.330659 -1.631083 0.000019 0.000002 -0.000024
 24   -0.246150 -0.011872 -0.516511 -0.000005 -0.000006 0.000048
 25   4.941364 1.997338 1.629330 0.000018 -0.000001 -0.000024
 26   4.941382 1.997366 -1.629410 -0.000001 0.000005 -0.000024
 27   2.918368 1.615358 1.514501 -0.000019 -0.000022 -0.000050
 28   2.920798 1.614964 -1.501142 -0.000002 -0.000009 -0.000024
 29   8.824059 0.150544 0.091743 0.000006 -0.000231 -0.174534
 30   2.111085 -0.561179 1.784320 -0.000008 -0.000682 0.000024
 31   2.121290 -0.561289 -1.853599 0.000000 0.000000 -0.000002
 32   -0.810489 -0.093824 3.127092 0.002215 -3.167205 -0.021517
 33   14.298673 -0.408176 0.475484 -0.000088 -0.000042 -0.121826
 34   15.835795 0.581398 0.242756 -0.002536 0.026015 0.099976
 35   -0.815868 -0.091229 -3.114430 -0.002452 3.158396 -0.024382
 36   14.294526 -0.410349 -0.463635 0.000081 0.000060 -0.127001
 37   15.834409 0.579420 -0.284600 0.002873 -0.017338 0.102710
 38   1.139685 -3.453749 -2.823813 0.000000 0.000000 0.000001
 39   -4.457742 -1.054854 -0.746180 0.000000 0.000000 0.000000
 40   1.118101 -3.449769 3.237290 0.000000 0.000001 0.000000
 41   -4.433840 -1.059130 0.959566 -0.000001 0.000000 0.000000
 42   -0.657468 1.697302 -2.688614 0.000000 0.000002 0.000000
 43   -0.664068 1.698578 2.869377 0.000000 0.000002 0.000000
time 1
  0   0.243428 0.429701 2.172312 0.000000 0.000000 -1.571449
  1   -1.093036 0.000002 -0.326057 -1.570861 -1.570379 0.000216
  2   2.262337 0.113614 0.064702 -0.000052 0.000061 -0.243246
  3   2.380047 0.353302 0.047440 -0.155815 0.017613 0.111802
  4   2.033756 0.190472 -0.000128 -0.047629 0.000959 0.058804
  5   2.451511 0.204909 -0.003447 -0.156825 0.005204 0.033025
  6   7.247600 -0.397300 -0.109469 -0.000143 -0.183116 -0.252900
  7   -2.022252 -0.104661 3.136172 -1.657090 -1.783188 -1.187639
  8   1.168026 -0.537438 -0.063437 -0.730402 0.946730 -0.227864
  9   6.790376 -0.619176 0.015206 -0.000213 -0.000352 -1.932950
 10   8.637599 0.544015 -0.090417 -1.656328 -0.275639 -0.099522
 11   6.790465 -0.619039 0.017802 0.004388 -0.011935 -1.368308
 12   -2.022474 -0.104699 -2.873818 -0.443248 1.154511 -3.326404
 13   1.167898 -0.537463 0.063297 0.235696 -0.946028 -0.430130
 14   7.002743 -0.617765 -0.183752 0.000229 0.000250 -1.686164
 15   8.209042 0.615527 -0.255885 2.176879 0.128709 0.170783
 16   7.002735 -0.617911 -0.183641 0.013403 0.009285 -1.199054
 17   1.574674 0.609930 -0.000899 0.333573 0.267775 -0.092374
 18   -0.602177 0.511412 -0.000006 0.000000 0.000000 0.000000
 19   3.673773 0.177020 1.119313 -0.000002 -0.000014 -0.174510
 20   3.673767 0.176993 -1.117566 0.000007 -0.000003 -0.174546
 21   3.942357 1.330634 1.627658 0.000002 -0.000011 -0.000026
 22   -0.246060 -0.011889 0.516521 -0.000011 0.000031 0.000025
 23   3.942374 1.330659 -1.631083 0.000019 0.000002 -0.000024
 24   -0.246150 -0.011872 -0.516511 -0.000005 -0.000006 0.000048
 25   4.941364 1.997338 1.629330 0.000018 -0.000001 -0.000024
 26   4.941382 1.997366 -1.629410 -0.000001 0.000005 -0.000024
 27   2.918368 1.615358 1.514501 -0.000019 -0.000022 -0.000050
 28   2.920798 1.614964 -1.501142 -0.000002 -0.000009 -0.000024
 29   8.824059 0.150544 0.091743 0.000006 -0.000231 -0.174534
 30   2.111085 -0.561179 1.784320 -0.000008 -0.000682 0.000024
 31   2.121290 -0.561289 -1.853599 0.000000 0.000000 -0.000002
 32   -0.810489 -0.093824 3.127092 0.002215 -3.167205 -0.021517
 33   14.298673 -0.408176 0.475484 -0.000088 -0.000042 -0.121826
 34   15.835795 0.581398 0.242756 -0.002536 0.026015 0.099976
 35   -0.815868 -0.091229 -3.114430 -0.002452 3.158396 -0.024382
 36   14.294526 -0.410349 -0.463635 0.000081 0.000060 -0.127001
 37   15.834409 0.579420 -0.284600 0.002873 -0.017338 0.102710
 38   1.139685 -3.453749 -2.823813 0.000000 0.000000 0.000001
 39   -4.457742 -1.054854 -0.746180 0.000000 0.000000 0.000000
 40   1.118101 -3.449769 3.237290 0.000000 0.000001 0.000000
 41   -4.433840 -1.059130 0.959566 -0.000001 0.000000 0.000000
 42   -0.657468 1.697302 -2.688614 0.000000 0.000002 0.000000
 43   -0.664068 1.698578 2.869377 0.000000 0.000002 0.000000
time 2
  0   0.243428 0.429701 2.172312 0.000000 0.000000 -1.571449
  1   -1.093036 0.000002 -0.326057 -1.570861 -1.570379 0.000216
  2   2.262337 0.113614 0.064702 -0.000052 0.000061 -0.243246
  3   2.380047 0.353302 0.047440 -0.155815 0.017613 0.111802
  4   2.033756 0.190472 -0.000128 0.191830 -0.014777 0.064096
  5   2.451511 0.204909 -0.003447 -0.156825 0.005021 0.031836
  6   7.247600 -0.397300 -0.109469 -0.000143 -0.183116 -0.252900
  7   -2.022252 -0.104661 3.136172 -1.657090 -1.783188 -1.187639
  8   1.168026 -0.537438 -0.063437 -0.499871 0.821196 0.165300
  9   6.790376 -0.619176 0.015206 -0.000213 -0.000352 -1.932950
 10   8.637599 0.544015 -0.090417 -1.656328 -0.275639 -0.099522
 11   6.790465 -0.619039 0.017802 0.004388 -0.011935 -1.368308
 12   -2.022474 -0.104699 -2.873818 -0.785088 1.044394 -3.666285
 13   1.167898 -0.537463 0.063297 0.893508 -0.477722 -0.797697
 14   7.002743 -0.617765 -0.183752 0.000229 0.000250 -1.225124
 15   8.209042 0.615527 -0.255885 2.799270 0.094890 0.443145
 16   7.002735 -0.617911 -0.183641 0.013968 0.006804 -0.876231
 17   1.574674 0.609930 -0.000899 0.097854 0.207756 -0.107565
 18   -0.602177 0.511412 -0.000006 0.000000 0.000000 0.000000
 19   3.673773 0.177020 1.119313 -0.000002 -0.000014 -0.174510
 20   3.673767 0.176993 -1.117566 0.000007 -0.000003 -0.174546
 21   3.942357 1.330634 1.627658 0.000002 -0.000011 -0.000026
 22   -0.246060 -0.011889 0.516521 -0.000011 0.000031 0.000025
 23   3.942374 1.330659 -1.631083 0.000019 0.000002 -0.000024
 24   -0.246150 -0.011872 -0.516511 -0.000005 -0.000006 0.000048
 25   4.941364 1.997338 1.629330 0.000018 -0.000001 -0.000024
 26   4.941382 1.997366 -1.629410 -0.000001 0.000005 -0.000024
 27   2.918368 1.615358 1.514501 -0.000019 -0.000022 -0.000050
 28   2.920798 1.614964 -1.501142 -0.000002 -0.000009 -0.000024
 29   8.824059 0.150544 0.091743 0.000006 -0.000231 -0.174534
 30   2.111085 -0.561179 1.784320 -0.000008 -0.000682 0.000024
 31   2.121290 -0.561289 -1.853599 0.000000 0.000000 -0.000002
 32   -0.810489 -0.093824 3.127092 0.002215 -3.167205 -0.021517
 33   14.298673 -0.408176 0.475484 -0.000088 -0.000042 -0.121826
 34   15.835795 0.581398 0.242756 -0.002536 0.026015 0.099976
 35   -0.815868 -0.091229 -3.114430 -0.002452 3.158396 -0.024382
 36   14.294526 -0.410349 -0.463635 0.000081 0.000060 -0.127001
 37   15.834409 0.579420 -0.284600 0.002873 -0.017338 0.102710
 38   1.139685 -3.453749 -2.823813 0.000000 0.000000 0.000001
 39   -4.457742 -1.054854 -0.746180 0.000000 0.000000 0.000000
 40   1.118101 -3.449769 3.237290 0.000000 0.000001 0.000000
 41   -4.433840 -1.059130 0.959566 -0.000001 0.000000 0.000000
 42   -0.657468 1.697302 -2.688614 0.000000 0.000002 0.000000
 43   -0.664068 1.698578 2.869377 0.000000 0.000002 0.000000
time 3
  0   0.243428 0.429701 2.172312 0.000000 0.000000 -1.571449
  1   -1.093036 0.000002 -0.326057 -1.570861 -1.570379 0.000216
  2   2.262337 0.113614 0.064702 -0.000052 0.000061 -0.243246
  3   2.380047 0.353302 0.047440 -0.155815 0.017613 0.111802
  4   2.033756 0.190472 -0.000128 0.321684 -0.025096 0.074100
  5   2.451511 0.204909 -0.003447 -0.156722 0.005544 0.034263
  6   7.247600 -0.397300 -0.109469 -0.000143 -0.183116 -0.252900
  7   -2.022252 -0.104661 3.136172 -1.657090 -1.783188 -1.187639
  8   1.168026 -0.537438 -0.063437 -0.428111 0.709146 0.276575
  9   6.790376 -0.619176 0.015206 -0.000213 -0.000352 -1.932950
 10   8.637599 0.544015 -0.090417 -1.656328 -0.275639 -0.099522
 11   6.790465 -0.619039 0.017802 0.004388 -0.011935 -1.368308
 12   -2.022474 -0.104699 -2.873818 -0.912511 0.967480 -3.791802
 13   1.167898 -0.537463 0.063297 1.028754 -0.124701 -0.777963
 14   7.002743 -0.617765 -0.183752 0.000229 0.000250 -0.933550
 15   8.209042 0.615527 -0.255885 3.125278 0.010454 0.566667
 16   7.002735 -0.617911 -0.183641 0.014298 0.005169 -0.672073
 17   1.574674 0.609930 -0.000899 -0.030343 0.173817 -0.121758
 18   -0.602177 0.511412 -0.000006 0.000000 0.000000 0.000000
 19   3.673773 0.177020 1.119313 -0.000002 -0.000014 -0.174510
 20   3.673767 0.176993 -1.117566 0.000007 -0.000003 -0.174546
 21   3.942357 1.330634 1.627658 0.000002 -0.000011 -0.000026
 22   -0.246060 -0.011889 0.516521 -0.000011 0.000031 0.000025
 23   3.942374 1.330659 -1.631083 0.000019 0.000002 -0.000024
 24   -0.246150 -0.011872 -0.516511 -0.000005 -0.000006 0.000048
 25   4.941364 1.997338 1.629330 0.000018 -0.000001 -0.000024
 26   4.941382 1.997366 -1.629410 -0.000001 0.000005 -0.000024
 27   2.918368 1.615358 1.514501 -0.000019 -0.000022 -0.000050
 28   2.920798 1.614964 -1.501142 -0.000002 -0.000009 -0.000024
 29   8.824059 0.150544 0.091743 0.000006 -0.000231 -0.174534
 30   2.111085 -0.561179 1.784320 -0.000008 -0.000682 0.000024
 31   2.121290 -0.561289 -1.853599 0.000000 0.000000 -0.000002
 32   -0.810489 -0.093824 3.127092 0.002215 -3.167205 -0.021517
 33   14.298673 -0.408176 0.475484 -0.000088 -0.000042 -0.121826
 34   15.835795 0.581398 0.242756 -0.002536 0.026015 0.099976
 35   -0.815868 -0.091229 -3.114430 -0.002452 3.158396 -0.024382
 36   14.294526 -0.410349 -0.463635 0.000081 0.000060 -0.127001
 37   15.834409 0.579420 -0.284600 0.002873 -0.017338 0.102710
 38   1.139685 -3.453749 -2.823813 0.000000 0.000000 0.000001
 39   -4.457742 -1.054854 -0.746180 0.000000 0.000000 0.000000
 40   1.118101 -3.449769 3.237290 0.000000 0.000001 0.000000
 41   -4.433840 -1.059130 0.959566 -0.000001 0.000000 0.000000
 42   -0.657468 1.697302 -2.688614 0.000000 0.000002 0.000000
 43   -0.664068 1.698578 2.869377 0.000000 0.000002 0.000000
time 4
  0   0.243428 0.429701 2.172312 0.000000 0.000000 -1.571449
  1   -1.093036 0.000002 -0.326057 -1.570861 -1.570379 0.000216
  2   2.262337 0.113614 0.064702 -0.000052 0.000061 -0.243246
  3   2.380047 0.353302 0.047440 -0.155815 0.017613 0.111802
  4   2.033756 0.190472 -0.000128 0.325649 -0.028931 0.096537
  5   2.451511 0.204909 -0.003447 -0.156722 0.006640 0.042188
  6   7.247600 -0.397300 -0.109469 -0.000143 -0.183116 -0.252900
  7   -2.022252 -0.104661 3.136172 -1.653064 -1.783188 -1.191959
  8   1.168026 -0.537438 -0.063437 -0.439628 0.707989 0.179407
  9   6.790376 -0.619176 0.015206 -0.000213 -0.000352 -1.932950
 10   8.637599 0.544015 -0.090417 -1.656328 -0.275639 -0.099522
 11   6.790465 -0.619039 0.017802 0.004388 -0.011935 -1.368308
 12   -2.022474 -0.104699 -2.873818 -0.915960 0.965042 -3.795153
 13   1.167898 -0.537463 0.063297 1.041899 -0.085341 -0.782079
 14   7.002743 -0.617765 -0.183752 0.000229 0.000250 -0.816227
 15   8.209042 0.615527 -0.255885 3.134985 0.007352 0.569854
 16   7.002735 -0.617911 -0.183641 0.014392 0.004605 -0.589946
 17   1.574674 0.609930 -0.000899 -0.040255 0.171545 -0.152731
 18   -0.602177 0.511412 -0.000006 0.000000 0.000000 0.000000
 19   3.673773 0.177020 1.119313 -0.000002 -0.000014 -0.174510
 20   3.673767 0.176993 -1.117566 0.000007 -0.000003 -0.174546
 21   3.942357 1.330634 1.627658 0.000002 -0.000011 -0.000026
 22   -0.246060 -0.011889 0.516521 -0.000011 0.000031 0.000025
 23   3.942374 1.330659 -1.631083 0.000019 0.000002 -0.000024
 24   -0.246150 -0.011872 -0.516511 -0.000005 -0.000006 0.000048
 25   4.941364 1.997338 1.629330 0.000018 -0.000001 -0.000024
 26   4.941382 1.997366 -1.629410 -0.000001 0.000005 -0.000024
 27   2.918368 1.615358 1.514501 -0.000019 -0.000022 -0.000050
 28   2.920798 1.614964 -1.501142 -0.000002 -0.000009 -0.000024
 29   8.824059 0.150544 0.091743 0.000006 -0.000231 -0.174534
 30   2.111085 -0.561179 1.784320 -0.000008 -0.000682 0.000024
 31   2.121290 -0.561289 -1.853599 0.000000 0.000000 -0.000002
 32   -0.810489 -0.093824 3.127092 0.002215 -3.167205 -0.021517
 33   14.298673 -0.408176 0.475484 -0.000088 -0.000042 -0.121826
 34   15.835795 0.581398 0.242756 -0.002536 0.026015 0.099976
 35   -0.815868 -0.091229 -3.114430 -0.002452 3.158396 -0.024382
 36   14.294526 -0.410349 -0.463635 0.000081 0.000060 -0.127001
 37   15.834409 0.579420 -0.284600 0.002873 -0.017338 0.102710
 38   1.139685 -3.453749 -2.823813 0.000000 0.000000 0.000001
 39   -4.457742 -1.054854 -0.746180 0.000000 0.000000 0.000000
 40   1.118101 -3.449769 3.237290 0.000000 0.000001 0.000000
 41   -4.433840 -1.059130 0.959566 -0.000001 0.000000 0.000000
 42   -0.657468 1.697302 -2.688614 0.000000 0.000002 0.000000
 43   -0.664068 1.698578 2.869377 0.000000 0.000002 0.000000
time 5
  0   0.243428 0.429701 2.172312 0.000000 0.000000 -1.571449
  1   -1.093036 0.000002 -0.326057 -1.570861 -1.570379 0.000216
  2   2.262337 0.113614 0.064702 -0.000052 0.000061 -0.243246
  3   2.380047 0.353302 0.047440 -0.155815 0.017613 0.111802
  4   2.033756 0.190472 -0.000128 0.275430 -0.028595 0.126948
  5   2.451511 0.204909 -0.003447 -0.156688 0.008546 0.053233
  6   7.247600 -0.397300 -0.109469 -0.000143 -0.183116 -0.252900
  7   -2.022252 -0.104661 3.136172 -1.642616 -1.783102 -1.201820
  8   1.168026 -0.537438 -0.063437 -0.480001 0.725146 0.075470
  9   6.790376 -0.619176 0.015206 -0.000213 -0.000352 -1.932950
 10   8.637599 0.544015 -0.090417 -1.656328 -0.275287 -0.099739
 11   6.790465 -0.619039 0.017802 0.004388 -0.011935 -1.368308
 12   -2.022474 -0.104699 -2.873818 -0.871219 0.995953 -3.751112
 13   1.167898 -0.537463 0.063297 1.019335 -0.182419 -0.813739
 14   7.002743 -0.617765 -0.183752 0.000229 0.000250 -0.763176
 15   8.209042 0.615527 -0.255885 3.010880 0.044879 0.526014
 16   7.002735 -0.617911 -0.183641 0.014392 0.004323 -0.552912
 17   1.574674 0.609930 -0.000899 -0.000325 0.184184 -0.195310
 18   -0.602177 0.511412 -0.000006 0.000000 0.000000 0.000000
 19   3.673773 0.177020 1.119313 -0.000002 -0.000014 -0.174510
 20   3.673767 0.176993 -1.117566 0.000007 -0.000003 -0.174546
 21   3.942357 1.330634 1.627658 0.000002 -0.000011 -0.000026
 22   -0.246060 -0.011889 0.516521 -0.000011 0.000031 0.000025
 23   3.942374 1.330659 -1.631083 0.000019 0.000002 -0.000024
 24   -0.246150 -0.011872 -0.516511 -0.000005 -0.000006 0.000048
 25   4.941364 1.997338 1.629330 0.000018 -0.000001 -0.000024
 26   4.941382 1.997366 -1.629410 -0.000001 0.000005 -0.000024
 27   2.918368 1.615358 1.514501 -0.000019 -0.000022 -0.000050
 28   2.920798 1.614964 -1.501142 -0.000002 -0.000009 -0.000024
 29   8.824059 0.150544 0.091743 0.000006 -0.000231 -0.174534
 30   2.111085 -0.561179 1.784320 -0.000008 -0.000682 0.000024
 31   2.121290 -0.561289 -1.853599 0.000000 0.000000 -0.000002
 32   -0.810489 -0.093824 3.127092 0.002215 -3.167205 -0.021517
 33   14.298673 -0.408176 0.475484 -0.000088 -0.000042 -0.121826
 34   15.835795 0.581398 0.242756 -0.002536 0.026015 0.099976
 35   -0.815868 -0.091229 -3.114430 -0.002452 3.158396 -0.024382
 36   14.294526 -0.410349 -0.463635 0.000081 0.000060 -0.127001
 37   15.834409 0.579420 -0.284600 0.002873 -0.017338 0.102710
 38   1.139685 -3.453749 -2.823813 0.000000 0.000000 0.000001
 39   -4.457742 -1.054854 -0.746180 0.000000 0.000000 0.000000
 40   1.118101 -3.449769 3.237290 0.000000 0.000001 0.000000
 41   -4.433840 -1.059130 0.959566 -0.000001 0.000000 0.000000
 42   -0.657468 1.697302 -2.688614 0.000000 0.000002 0.000000
 43   -0.664068 1.698578 2.869377 0.000000 0.000002 0.000000
time 6
  0   0.243428 0.429701 2.172312 0.000000 0.000000 -1.571449
  1   -1.093036 0.000002 -0.326057 -1.570861 -1.570379 0.000216
  2   2.262337 0.113614 0.064702 -0.000052 0.000061 -0.243246
  3   2.380047 0.353302 0.047440 -0.155815 0.017613 0.111802
  4   2.033756 0.190472 -0.000128 0.192973 -0.023334 0.157686
  5   2.451511 0.204909 -0.003447 -0.156568 0.010348 0.064700
  6   7.247600 -0.397300 -0.109469 -0.000143 -0.183116 -0.252900
  7   -2.022252 -0.104661 3.136172 -1.629387 -1.782842 -1.215719
  8   1.168026 -0.537438 -0.063437 -0.539801 0.748995 -0.041056
  9   6.790376 -0.619176 0.015206 -0.000213 -0.000352 -1.932950
 10   8.637599 0.544015 -0.090417 -1.656328 -0.274794 -0.099739
 11   6.790465 -0.619039 0.017802 0.004388 -0.011935 -1.368308
 12   -2.022474 -0.104699 -2.873818 -0.787100 1.043552 -3.667913
 13   1.167898 -0.537463 0.063297 0.956140 -0.362286 -0.845701
 14   7.002743 -0.617765 -0.183752 0.000229 0.000250 -0.769199
 15   8.209042 0.615527 -0.255885 2.803081 0.094057 0.444769
 16   7.002735 -0.617911 -0.183641 0.014392 0.004323 -0.557106
 17   1.574674 0.609930 -0.000899 0.069867 0.207614 -0.237224
 18   -0.602177 0.511412 -0.000006 0.000000 0.000000 0.000000
 19   3.673773 0.177020 1.119313 -0.000002 -0.000014 -0.174510
 20   3.673767 0.176993 -1.117566 0.000007 -0.000003 -0.174546
 21   3.942357 1.330634 1.627658 0.000002 -0.000011 -0.000026
 22   -0.246060 -0.011889 0.516521 -0.000011 0.000031 0.000025
 23   3.942374 1.330659 -1.631083 0.000019 0.000002 -0.000024
 24   -0.246150 -0.011872 -0.516511 -0.000005 -0.000006 0.000048
 25   4.941364 1.997338 1.629330 0.000018 -0.000001 -0.000024
 26   4.941382 1.997366 -1.629410 -0.000001 0.000005 -0.000024
 27   2.918368 1.615358 1.514501 -0.000019 -0.000022 -0.000050
 28   2.920798 1.614964 -1.501142 -0.000002 -0.000009 -0.000024
 29   8.824059 0.150544 0.091743 0.000006 -0.000231 -0.174534
 30   2.111085 -0.561179 1.784320 -0.000008 -0.000682 0.000024
 31   2.121290 -0.561289 -1.853599 0.000000 0.000000 -0.000002
 32   -0.810489 -0.093824 3.127092 0.002215 -3.167205 -0.021517
 33   14.298673 -0.408176 0.475484 -0.000088 -0.000042 -0.121826
 34   15.835795 0.581398 0.242756 -0.002536 0.026015 0.099976
 35   -0.815868 -0.091229 -3.114430 -0.002452 3.158396 -0.024382
 36   14.294526 -0.410349 -0.463635 0.000081 0.000060 -0.127001
 37   15.834409 0.579420 -0.284600 0.002873 -0.017338 0.102710
 38   1.139685 -3.453749 -2.823813 0.000000 0.000000 0.000001
 39   -4.457742 -1.054854 -0.746180 0.000000 0.000000 0.000000
 40   1.118101 -3.449769 3.237290 0.000000 0.000001 0.000000
 41   -4.433840 -1.059130 0.959566 -0.000001 0.000000 0.000000
 42   -0.657468 1.697302 -2.688614 0.000000 0.000002 0.000000
 43   -0.664068 1.698578 2.869377 0.000000 0.000002 0.000000
time 7
  0   0.243428 0.429701 2.172312 0.000000 0.000000 -1.571449
  1   -1.093036 0.000002 -0.326057 -1.570861 -1.570379 0.000216
  2   2.262337 0.113614 0.064702 -0.000052 0.000061 -0.243246
  3   2.380047 0.353302 0.047440 -0.155815 0.017613 0.111802
  4   2.033756 0.190472 -0.000128 0.100502 -0.013662 0.180159
  5   2.451511 0.204909 -0.003447 -0.156431 0.011771 0.073665
  6   7.247600 -0.397300 -0.109469 -0.000143 -0.183116 -0.252900
  7   -2.022252 -0.104661 3.136172 -1.616255 -1.782756 -1.229243
  8   1.168026 -0.537438 -0.063437 -0.605866 0.771083 -0.171752
  9   6.790376 -0.619176 0.015206 -0.000213 -0.000352 -1.932950
 10   8.637599 0.544015 -0.090417 -1.656328 -0.274231 -0.099739
 11   6.790465 -0.619039 0.017802 0.004388 -0.011935 -1.368308
 12   -2.022474 -0.104699 -2.873818 -0.673952 1.092254 -3.555417
 13   1.167898 -0.537463 0.063297 0.840928 -0.565851 -0.841403
 14   7.002743 -0.617765 -0.183752 0.000229 0.000250 -0.830088
 15   8.209042 0.615527 -0.255885 2.564579 0.127575 0.342896
 16   7.002735 -0.617911 -0.183641 0.014345 0.004605 -0.599770
 17   1.574674 0.609930 -0.000899 0.152163 0.236322 -0.267310
 18   -0.602177 0.511412 -0.000006 0.000000 0.000000 0.000000
 19   3.673773 0.177020 1.119313 -0.000002 -0.000014 -0.174510
 20   3.673767 0.176993 -1.117566 0.000007 -0.000003 -0.174546
 21   3.942357 1.330634 1.627658 0.000002 -0.000011 -0.000026
 22   -0.246060 -0.011889 0.516521 -0.000011 0.000031 0.000025
 23   3.942374 1.330659 -1.631083 0.000019 0.000002 -0.000024
 24   -0.246150 -0.011872 -0.516511 -0.000005 -0.000006 0.000048
 25   4.941364 1.997338 1.629330 0.000018 -0.000001 -0.000024
 26   4.941382 1.997366 -1.629410 -0.000001 0.000005 -0.000024
 27   2.918368 1.615358 1.514501 -0.000019 -0.000022 -0.000050
 28   2.920798 1.614964 -1.501142 -0.000002 -0.000009 -0.000024
 29   8.824059 0.150544 0.091743 0.000006 -0.000231 -0.174534
 30   2.111085 -0.561179 1.784320 -0.000008 -0.000682 0.000024
 31   2.121290 -0.561289 -1.853599 0.000000 0.000000 -0.000002
 32   -0.810489 -0.093824 3.127092 0.002215 -3.167205 -0.021517
 33   14.298673 -0.408176 0.475484 -0.000088 -0.000042 -0.121826
 34   15.835795 0.581398 0.242756 -0.002536 0.026015 0.099976
 35   -0.815868 -0.091229 -3.114430 -0.002452 3.158396 -0.024382
 36   14.294526 -0.410349 -0.463635 0.000081 0.000060 -0.127001
 37   15.834409 0.579420 -0.284600 0.002873 -0.017338 0.102710
 38   1.139685 -3.453749 -2.823813 0.000000 0.000000 0.000001
 39   -4.457742 -1.054854 -0.746180 0.000000 0.000000 0.000000
 40   1.118101 -3.449769 3.237290 0.000000 0.000001 0.000000
 41   -4.433840 -1.059130 0.959566 -0.000001 0.000000 0.000000
 42   -0.657468 1.697302 -2.688614 0.000000 0.000002 0.000000
 43   -0.664068 1.698578 2.869377 0.000000 0.000002 0.000000
time 8
  0   0.243428 0.429701 2.172312 0.000000 0.000000 -1.571449
  1   -1.093036 0.000002 -0.326057 -1.570861 -1.570379 0.000216
  2   2.262337 0.113614 0.064702 -0.000052 0.000061 -0.243246
  3   2.380047 0.353302 0.047440 -0.155815 0.017613 0.111802
  4   2.033756 0.190472 -0.000128 0.019890 -0.003619 0.187372
  5   2.451511 0.204909 -0.003447 -0.156431 0.012202 0.077256
  6   7.247600 -0.397300 -0.109469 -0.000143 -0.183116 -0.252900
  7   -2.022252 -0.104661 3.136172 -1.606286 -1.782583 -1.239573
  8   1.168026 -0.537438 -0.063437 -0.660920 0.789649 -0.315100
  9   6.790376 -0.619176 0.015206 -0.000213 -0.000352 -1.932950
 10   8.637599 0.544015 -0.090417 -1.656328 -0.273879 -0.099739
 11   6.790465 -0.619039 0.017802 0.004388 -0.011935 -1.368308
 12   -2.022474 -0.104699 -2.873818 -0.556301 1.128766 -3.438709
 13   1.167898 -0.537463 0.063297 0.676299 -0.736971 -0.775057
 14   7.002743 -0.617765 -0.183752 0.000229 0.000250 -0.941718
 15   8.209042 0.615527 -0.255885 2.353544 0.136427 0.249322
 16   7.002735 -0.617911 -0.183641 0.014298 0.005225 -0.677813
 17   1.574674 0.609930 -0.000899 0.227798 0.261835 -0.275035
 18   -0.602177 0.511412 -0.000006 0.000000 0.000000 0.000000
 19   3.673773 0.177020 1.119313 -0.000002 -0.000014 -0.174510
 20   3.673767 0.176993 -1.117566 0.000007 -0.000003 -0.174546
 21   3.942357 1.330634 1.627658 0.000002 -0.000011 -0.000026
 22   -0.246060 -0.011889 0.516521 -0.000011 0.000031 0.000025
 23   3.942374 1.330659 -1.631083 0.000019 0.000002 -0.000024
 24   -0.246150 -0.011872 -0.516511 -0.000005 -0.000006 0.000048
 25   4.941364 1.997338 1.629330 0.000018 -0.000001 -0.000024
 26   4.941382 1.997366 -1.629410 -0.000001 0.000005 -0.000024
 27   2.918368 1.615358 1.514501 -0.000019 -0.000022 -0.000050
 28   2.920798 1.614964 -1.501142 -0.000002 -0.000009 -0.000024
 29   8.824059 0.150544 0.091743 0.000006 -0.000231 -0.174534
 30   2.111085 -0.561179 1.784320 -0.000008 -0.000682 0.000024
 31   2.121290 -0.561289 -1.853599 0.000000 0.000000 -0.000002
 32   -0.810489 -0.093824 3.127092 0.002215 -3.167205 -0.021517
 33   14.298673 -0.408176 0.475484 -0.000088 -0.000042 -0.121826
 34   15.835795 0.581398 0.242756 -0.002536 0.026015 0.099976
 35   -0.815868 -0.091229 -3.114430 -0.002452 3.158396 -0.024382
 36   14.294526 -0.410349 -0.463635 0.000081 0.000060 -0.127001
 37   15.834409 0.579420 -0.284600 0.002873 -0.017338 0.102710
 38   1.139685 -3.453749 -2.823813 0.000000 0.000000 0.000001
 39   -4.457742 -1.054854 -0.746180 0.000000 0.000000 0.000000
 40   1.118101 -3.449769 3.237290 0.000000 0.000001 0.000000
 41   -4.433840 -1.059130 0.959566 -0.000001 0.000000 0.000000
 42   -0.657468 1.697302 -2.688614 0.000000 0.000002 0.000000
 43   -0.664068 1.698578 2.869377 0.000000 0.000002 0.000000
time 9
  0   0.243428 0.429701 2.172312 0.000000 0.000000 -1.571449
  1   -1.093036 0.000002 -0.326057 -1.570861 -1.570379 0.000216
  2   2.262337 0.113614 0.064702 -0.000052 0.000061 -0.243246
  3   2.380047 0.353302 0.047440 -0.155815 0.017613 0.111802
  4   2.033756 0.190472 -0.000128 -0.057625 0.005417 0.168197
  5   2.451511 0.204909 -0.003447 -0.156534 0.011288 0.070074
  6   7.247600 -0.397300 -0.109469 -0.000143 -0.183116 -0.252900
  7   -2.022252 -0.104661 3.136172 -1.602068 -1.782583 -1.243893
  8   1.168026 -0.537438 -0.063437 -0.699964 0.823913 -0.452375
  9   6.790376 -0.619176 0.015206 -0.000213 -0.000352 -1.932950
 10   8.637599 0.544015 -0.090417 -1.656328 -0.273527 -0.099739
 11   6.790465 -0.619039 0.017802 0.004388 -0.011935 -1.368308
 12   -2.022474 -0.104699 -2.873818 -0.427823 1.160432 -3.311564
 13   1.167898 -0.537463 0.063297 0.402012 -0.889632 -0.596177
 14   7.002743 -0.617765 -0.183752 0.000229 0.000250 -1.173228
 15   8.209042 0.615527 -0.255885 2.150562 0.126440 0.159237
 16   7.002735 -0.617911 -0.183641 0.014062 0.006522 -0.839969
 17   1.574674 0.609930 -0.000899 0.309729 0.283987 -0.243027
 18   -0.602177 0.511412 -0.000006 0.000000 0.000000 0.000000
 19   3.673773 0.177020 1.119313 -0.000002 -0.000014 -0.174510
 20   3.673767 0.176993 -1.117566 0.000007 -0.000003 -0.174546
 21   3.942357 1.330634 1.627658 0.000002 -0.000011 -0.000026
 22   -0.246060 -0.011889 0.516521 -0.000011 0.000031 0.000025
 23   3.942374 1.330659 -1.631083 0.000019 0.000002 -0.000024
 24   -0.246150 -0.011872 -0.516511 -0.000005 -0.000006 0.000048
 25   4.941364 1.997338 1.629330 0.000018 -0.000001 -0.000024
 26   4.941382 1.997366 -1.629410 -0.000001 0.000005 -0.000024
 27   2.918368 1.615358 1.514501 -0.000019 -0.000022 -0.000050
 28   2.920798 1.614964 -1.501142 -0.000002 -0.000009 -0.000024
 29   8.824059 0.150544 0.091743 0.000006 -0.000231 -0.174534
 30   2.111085 -0.561179 1.784320 -0.000008 -0.000682 0.000024
 31   2.121290 -0.561289 -1.853599 0.000000 0.000000 -0.000002
 32   -0.810489 -0.093824 3.127092 0.002215 -3.167205 -0.021517
 33   14.298673 -0.408176 0.475484 -0.000088 -0.000042 -0.121826
 34   15.835795 0.581398 0.242756 -0.002536 0.026015 0.099976
 35   -0.815868 -0.091229 -3.114430 -0.002452 3.158396 -0.024382
 36   14.294526 -0.410349 -0.463635 0.000081 0.000060 -0.127001
 37   15.834409 0.579420 -0.284600 0.002873 -0.017338 0.102710
 38   1.139685 -3.453749 -2.823813 0.000000 0.000000 0.000001
 39   -4.457742 -1.054854 -0.746180 0.000000 0.000000 0.000000
 40   1.118101 -3.449769 3.237290 0.000000 0.000001 0.000000
 41   -4.433840 -1.059130 0.959566 -0.000001 0.000000 0.000000
 42   -0.657468 1.697302 -2.688614 0.000000 0.000002 0.000000
 43   -0.664068 1.698578 2.869377 0.000000 0.000002 0.000000
time 10
  0   0.243428 0.429701 2.172312 0.000000 0.000000 -1.571449
  1   -1.093036 0.000002 -0.326057 -1.570861 -1.570379 0.000216
  2   2.262337 0.113614 0.064702 -0.000052 0.000061 -0.243246
  3   2.380047 0.353302 0.047440 -0.155815 0.017613 0.111802
  4   2.033756 0.190472 -0.000128 -0.145393 0.012656 0.127238
  5   2.451511 0.204909 -0.003447 -0.156688 0.009369 0.054447
  6   7.247600 -0.397300 -0.109469 -0.000143 -0.183116 -0.252900
  7   -2.022252 -0.104661 3.136172 -1.607052 -1.782583 -1.238165
  8   1.168026 -0.537438 -0.063437 -0.747741 0.876441 -0.582565
  9   6.790376 -0.619176 0.015206 -0.000213 -0.000352 -1.932950
 10   8.637599 0.544015 -0.090417 -1.656328 -0.273879 -0.099739
 11   6.790465 -0.619039 0.017802 0.004388 -0.011935 -1.368308
 12   -2.022474 -0.104699 -2.873818 -0.262844 1.188207 -3.147560
 13   1.167898 -0.537463 0.063297 -0.078238 -0.972268 -0.224978
 14   7.002743 -0.617765 -0.183752 0.000229 0.000250 -1.525526
 15   8.209042 0.615527 -0.255885 1.924572 0.094209 0.063077
 16   7.002735 -0.617911 -0.183641 0.013638 0.008383 -1.086571
 17   1.574674 0.609930 -0.000899 0.409410 0.303465 -0.177790
 18   -0.602177 0.511412 -0.000006 0.000000 0.000000 0.000000
 19   3.673773 0.177020 1.119313 -0.000002 -0.000014 -0.174510
 20   3.673767 0.176993 -1.117566 0.000007 -0.000003 -0.174546
 21   3.942357 1.330634 1.627658 0.000002 -0.000011 -0.000026
 22   -0.246060 -0.011889 0.516521 -0.000011 0.000031 0.000025
 23   3.942374 1.330659 -1.631083 0.000019 0.000002 -0.000024
 24   -0.246150 -0.011872 -0.516511 -0.000005 -0.000006 0.000048
 25   4.941364 1.997338 1.629330 0.000018 -0.000001 -0.000024
 26   4.941382 1.997366 -1.629410 -0.000001 0.000005 -0.000024
 27   2.918368 1.615358 1.514501 -0.000019 -0.000022 -0.000050
 28   2.920798 1.614964 -1.501142 -0.000002 -0.000009 -0.000024
 29   8.824059 0.150544 0.091743 0.000006 -0.000231 -0.174534
 30   2.111085 -0.561179 1.784320 -0.000008 -0.000682 0.000024
 31   2.121290 -0.561289 -1.853599 0.000000 0.000000 -0.000002
 32   -0.810489 -0.093824 3.127092 0.002215 -3.167205 -0.021517
 33   14.298673 -0.408176 0.475484 -0.000088 -0.000042 -0.121826
 34   15.835795 0.581398 0.242756 -0.002536 0.026015 0.099976
 35   -0.815868 -0.091229 -3.114430 -0.002452 3.158396 -0.024382
 36   14.294526 -0.410349 -0.463635 0.000081 0.000060 -0.127001
 37   15.834409 0.579420 -0.284600 0.002873 -0.017338 0.102710
 38   1.139685 -3.453749 -2.823813 0.000000 0.000000 0.000001
 39   -4.457742 -1.054854 -0.746180 0.000000 0.000000 0.000000
 40   1.118101 -3.449769 3.237290 0.000000 0.000001 0.000000
 41   -4.433840 -1.059130 0.959566 -0.000001 0.000000 0.000000
 42   -0.657468 1.697302 -2.688614 0.000000 0.000002 0.000000
 43   -0.664068 1.698578 2.869377 0.000000 0.000002 0.000000
time 11
  0   0.243428 0.429701 2.172312 0.000000 0.000000 -1.571449
  1   -1.093036 0.000002 -0.326057 -1.570861 -1.570379 0.000216
  2   2.262337 0.113614 0.064702 -0.000052 0.000061 -0.243246
  3   2.380047 0.353302 0.047440 -0.155815 0.017613 0.111802
  4   2.033756 0.190472 -0.000128 -0.227278 0.015197 0.082002
  5   2.451511 0.204909 -0.003447 -0.156722 0.007071 0.039464
  6   7.247600 -0.397300 -0.109469 -0.000143 -0.183116 -0.252900
  7   -2.022252 -0.104661 3.136172 -1.624499 -1.782785 -1.220978
  8   1.168026 -0.537438 -0.063437 -0.813616 0.921774 -0.721801
  9   6.790376 -0.619176 0.015206 -0.000213 -0.000352 -1.932950
 10   8.637599 0.544015 -0.090417 -1.656328 -0.274372 -0.099739
 11   6.790465 -0.619039 0.017802 0.004388 -0.011935 -1.368308
 12   -2.022474 -0.104699 -2.873818 -0.090487 1.200688 -2.975322
 13   1.167898 -0.537463 0.063297 -0.544780 -0.902294 0.136839
 14   7.002743 -0.617765 -0.183752 0.000229 0.000250 -1.887312
 15   8.209042 0.615527 -0.255885 1.717995 0.045560 -0.017747
 16   7.002735 -0.617911 -0.183641 0.013074 0.010582 -1.339740
 17   1.574674 0.609930 -0.000899 0.505274 0.315819 -0.107638
 18   -0.602177 0.511412 -0.000006 0.000000 0.000000 0.000000
 19   3.673773 0.177020 1.119313 -0.000002 -0.000014 -0.174510
 20   3.673767 0.176993 -1.117566 0.000007 -0.000003 -0.174546
 21   3.942357 1.330634 1.627658 0.000002 -0.000011 -0.000026
 22   -0.246060 -0.011889 0.516521 -0.000011 0.000031 0.000025
 23   3.942374 1.330659 -1.631083 0.000019 0.000002 -0.000024
 24   -0.246150 -0.011872 -0.516511 -0.000005 -0.000006 0.000048
 25   4.941364 1.997338 1.629330 0.000018 -0.000001 -0.000024
 26   4.941382 1.997366 -1.629410 -0.000001 0.000005 -0.000024
 27   2.918368 1.615358 1.514501 -0.000019 -0.000022 -0.000050
 28   2.920798 1.614964 -1.501142 -0.000002 -0.000009 -0.000024
 29   8.824059 0.150544 0.091743 0.000006 -0.000231 -0.174534
 30   2.111085 -0.561179 1.784320 -0.000008 -0.000682 0.000024
 31   2.121290 -0.561289 -1.853599 0.000000 0.000000 -0.000002
 32   -0.810489 -0.093824 3.127092 0.002215 -3.167205 -0.021517
 33   14.298673 -0.408176 0.475484 -0.000088 -0.000042 -0.121826
 34   15.835795 0.581398 0.242756 -0.002536 0.026015 0.099976
 35   -0.815868 -0.091229 -3.114430 -0.002452 3.158396 -0.024382
 36   14.294526 -0.410349 -0.463635 0.000081 0.000060 -0.127001
 37   15.834409 0.579420 -0.284600 0.002873 -0.017338 0.102710
 38   1.139685 -3.453749 -2.823813 0.000000 0.000000 0.000001
 39   -4.457742 -1.054854 -0.746180 0.000000 0.000000 0.000000
 40   1.118101 -3.449769 3.237290 0.000000 0.000001 0.000000
 41   -4.433840 -1.059130 0.959566 -0.000001 0.000000 0.000000
 42   -0.657468 1.697302 -2.688614 0.000000 0.000002 0.000000
 43   -0.664068 1.698578 2.869377 0.000000 0.000002 0.000000
time 12
  0   0.243428 0.429701 2.172312 0.000000 0.000000 -1.571449
  1   -1.093036 0.000002 -0.326057 -1.570861 -1.570379 0.000216
  2   2.262337 0.113614 0.064702 -0.000052 0.000061 -0.243246
  3   2.380047 0.353302 0.047440 -0.155815 0.017613 0.111802
  4   2.033756 0.190472 -0.000128 -0.287327 0.015041 0.049778
  5   2.451511 0.204909 -0.003447 -0.156722 0.005544 0.034263
  6   7.247600 -0.397300 -0.109469 -0.000143 -0.183116 -0.252900
  7   -2.022252 -0.104661 3.136172 -1.657090 -1.783188 -1.187639
  8   1.168026 -0.537438 -0.063437 -0.881895 0.933749 -0.864200
  9   6.790376 -0.619176 0.015206 -0.000213 -0.000352 -1.932950
 10   8.637599 0.544015 -0.090417 -1.656328 -0.275639 -0.099522
 11   6.790465 -0.619039 0.017802 0.004388 -0.011935 -1.368308
 12   -2.022474 -0.104699 -2.873818 0.039619 1.193461 -2.846646
 13   1.167898 -0.537463 0.063297 -0.783991 -0.773585 0.300767
 14   7.002743 -0.617765 -0.183752 0.000229 0.000250 -2.147121
 15   8.209042 0.615527 -0.255885 1.570090 -0.000063 -0.069646
 16   7.002735 -0.617911 -0.183641 0.012603 0.012161 -1.521766
 17   1.574674 0.609930 -0.000899 0.574450 0.322280 -0.062620
 18   -0.602177 0.511412 -0.000006 0.000000 0.000000 0.000000
 19   3.673773 0.177020 1.119313 -0.000002 -0.000014 -0.174510
 20   3.673767 0.176993 -1.117566 0.000007 -0.000003 -0.174546
 21   3.942357 1.330634 1.627658 0.000002 -0.000011 -0.000026
 22   -0.246060 -0.011889 0.516521 -0.000011 0.000031 0.000025
 23   3.942374 1.330659 -1.631083 0.000019 0.000002 -0.000024
 24   -0.246150 -0.011872 -0.516511 -0.000005 -0.000006 0.000048
 25   4.941364 1.997338 1.629330 0.000018 -0.000001 -0.000024
 26   4.941382 1.997366 -1.629410 -0.000001 0.000005 -0.000024
 27   2.918368 1.615358 1.514501 -0.000019 -0.000022 -0.000050
 28   2.920798 1.614964 -1.501142 -0.000002 -0.000009 -0.000024
 29   8.824059 0.150544 0.091743 0.000006 -0.000231 -0.174534
 30   2.111085 -0.561179 1.784320 -0.000008 -0.000682 0.000024
 31   2.121290 -0.561289 -1.853599 0.000000 0.000000 -0.000002
 32   -0.810489 -0.093824 3.127092 0.002215 -3.167205 -0.021517
 33   14.298673 -0.408176 0.475484 -0.000088 -0.000042 -0.121826
 34   15.835795 0.581398 0.242756 -0.002536 0.026015 0.099976
 35   -0.815868 -0.091229 -3.114430 -0.002452 3.158396 -0.024382
 36   14.294526 -0.410349 -0.463635 0.000081 0.000060 -0.127001
 37   15.834409 0.579420 -0.284600 0.002873 -0.017338 0.102710
 38   1.139685 -3.453749 -2.823813 0.000000 0.000000 0.000001
 39   -4.457742 -1.054854 -0.746180 0.000000 0.000000 0.000000
 40   1.118101 -3.449769 3.237290 0.000000 0.000001 0.000000
 41   -4.433840 -1.059130 0.959566 -0.000001 0.000000 0.000000
 42   -0.657468 1.697302 -2.688614 0.000000 0.000002 0.000000
 43   -0.664068 1.698578 2.869377 0.000000 0.000002 0.000000
end
