version 1
nodes
  0 "Bip01" -1
  1 "Bip01 Pelvis" 0
  2 "Bip01 Spine" 1
  3 "Bip01 Spine1" 2
  4 "Bip01 Spine2" 3
  5 "Bip01 Spine3" 4
  6 "Bip01 Neck" 5
  7 "Bip01 L Arm" 6
  8 "Bip01 L Arm1" 7
  9 "Bip01 L Arm2" 8
 10 "Bip01 L Hand" 9
 11 "Bip06 L elbow2-smooth" 8
 12 "Bip01 R Arm" 6
 13 "Bip01 R Arm1" 12
 14 "Bip01 R Arm2" 13
 15 "Bip01 R Hand" 14
 16 "Bip06 R elbow2-smooth" 13
 17 "Bip01 Head" 6
 18 "Bip06 Head_helper" 17
 19 "Bip06 Head_eyes_l" 18
 20 "Bip06 Head_eyes_r" 18
 21 "Bip06 Head_blink_l" 18
 22 "Bip06 Head_blink_smooth_l1" 21
 23 "Bip06 Head_blink_r" 18
 24 "Bip06 Head_blink_smooth_r1" 23
 25 "Bip06 Head_L_eyebrow" 18
 26 "Bip06 Head_R_eyebrow" 18
 27 "Bip06 Head_blink_l_lid" 18
 28 "Bip06 Head_blink_r_lid" 18
 29 "Bip06 bunny" 18
 30 "Bip06 bunnyL" 29
 31 "Bip06 bunnyR" 29
 32 "Bip01 L Leg" 1
 33 "Bip01 L Leg1" 32
 34 "Bip01 L Foot" 33
 35 "Bip01 R Leg" 1
 36 "Bip01 R Leg1" 35
 37 "Bip01 R Foot" 36
 38 "Bip03 HairR1" 17
 39 "Bip03 HairR2" 38
 40 "Bip03 HairL1" 17
 41 "Bip03 HairL2" 40
 42 "Bip03 swingR" 17
 43 "Bip03 swingL" 17
end
skeleton
time 0
  0   0.001233 0.187506 0.867585 0.000000 0.000000 -1.571449
  1   -1.093036 0.000002 -0.326057 -1.570809 -1.570379 -0.000026
  2   2.262337 0.113614 0.064702 -0.241645 -0.000287 -0.000302
  3   2.380047 0.353302 0.047440 0.020836 0.012879 0.146226
  4   2.033756 0.190472 -0.000128 -0.224401 -0.019463 0.386658
  5   2.451511 0.204909 -0.003447 -0.217076 -0.002577 0.515951
  6   7.247600 -0.397300 -0.109469 0.000001 0.000009 0.087015
  7   -2.022252 -0.104661 3.136172 1.219416 -1.038027 -4.397509
  8   1.168026 -0.537438 -0.063437 -0.445830 -0.061267 -0.126331
  9   6.790376 -0.619176 0.015206 0.005335 0.002985 -1.616741
 10   8.637599 0.544015 -0.090417 -2.304133 -0.089034 -0.069282
 11   6.790465 -0.619039 0.017802 0.007483 -0.010514 -1.146894
 12   -2.022474 -0.104699 -2.873818 -1.356385 0.807733 -4.507658
 13   1.167898 -0.537463 0.063297 1.152402 -0.300144 -0.994072
 14   7.002743 -0.617765 -0.183752 0.000229 0.000250 -1.534354
 15   8.209042 0.615527 -0.255885 2.158040 -0.134813 0.133438
 16   7.002735 -0.617911 -0.183641 0.013638 0.008439 -1.092697
 17   1.574674 0.609930 -0.000899 0.576075 -0.236732 -0.159717
 18   -0.602177 0.511412 -0.000006 0.000000 0.000000 0.000000
 19   3.673773 0.177020 1.119313 -0.000002 -0.000014 -0.174510
 20   3.673767 0.176993 -1.117566 0.000007 -0.000003 -0.174546
 21   3.942357 1.330634 1.627658 0.000002 -0.000011 -0.000026
 22   -0.246060 -0.011889 0.516521 -0.000011 0.000031 0.000025
 23   3.942374 1.330659 -1.631083 0.000019 0.000002 -0.000024
 24   -0.246150 -0.011872 -0.516511 -0.000005 -0.000006 0.000048
 25   4.941364 1.997338 1.629330 0.000018 -0.000001 -0.000024
 26   4.941382 1.997366 -1.629410 -0.000001 0.000005 -0.000024
 27   2.918368 1.615358 1.514501 -0.000019 -0.000022 -0.000050
 28   2.920798 1.614964 -1.501142 -0.000002 -0.000009 -0.000024
 29   8.824059 0.150544 0.091743 0.000006 -0.000231 -0.174534
 30   2.111085 -0.561179 1.784320 -0.000008 -0.000682 0.000024
 31   2.121290 -0.561289 -1.853599 0.000000 0.000000 -0.000002
 32   -0.810489 -0.093824 3.127092 -0.129583 -2.975432 -0.324172
 33   14.298673 -0.408176 0.475484 -0.000088 -0.000042 -0.436243
 34   15.835795 0.581398 0.242756 0.162134 -0.013934 0.022664
 35   -0.815868 -0.091229 -3.114430 0.096037 3.002497 -0.031283
 36   14.294526 -0.410349 -0.463635 0.000081 0.000060 -0.399441
 37   15.834409 0.579420 -0.284600 -0.088763 0.039970 0.278038
 38   1.139685 -3.453749 -2.823813 0.000000 0.000000 0.000001
 39   -4.457742 -1.054854 -0.746180 0.000000 0.000000 0.000000
 40   1.118101 -3.449769 3.237290 0.000000 0.000001 0.000000
 41   -4.433840 -1.059130 0.959566 -0.000001 0.000000 0.000000
 42   -0.657468 1.697302 -2.688614 0.000000 0.000002 0.000000
 43   -0.664068 1.698578 2.869377 0.000000 0.000002 0.000000
time 1
  0   0.001233 0.187506 0.867585 0.000000 0.000000 -1.571259
  1   -1.093036 0.000002 -0.326057 -1.570809 -1.570379 -0.000026
  2   2.262337 0.113614 0.064702 -0.239938 -0.003079 0.001271
  3   2.380047 0.353302 0.047440 0.013816 0.013239 0.148430
  4   2.033756 0.190472 -0.000128 -0.228329 -0.017342 0.370129
  5   2.451511 0.204909 -0.003447 -0.216340 0.003233 0.497401
  6   7.247600 -0.397300 -0.109469 0.000001 0.000009 0.089454
  7   -2.022252 -0.104661 3.136172 1.242230 -1.066162 -4.423241
  8   1.168026 -0.537438 -0.063437 -0.386726 0.050934 -0.227358
  9   6.790376 -0.619176 0.015206 0.007776 0.016066 -1.617269
 10   8.637599 0.544015 -0.090417 -2.242487 -0.118950 -0.053511
 11   6.790465 -0.619039 0.017802 0.011483 -0.001475 -1.147298
 12   -2.022474 -0.104699 -2.873818 -1.367595 0.910332 -4.515892
 13   1.167898 -0.537463 0.063297 1.082037 -0.369863 -0.988987
 14   7.002743 -0.617765 -0.183752 0.001140 -0.020590 -1.581877
 15   8.209042 0.615527 -0.255885 2.177023 -0.094335 0.081419
 16   7.002735 -0.617911 -0.183641 0.010767 -0.006222 -1.126089
 17   1.574674 0.609930 -0.000899 0.583711 -0.241063 -0.134842
 18   -0.602177 0.511412 -0.000006 0.000000 0.000000 0.000000
 19   3.673773 0.177020 1.119313 -0.000002 -0.000014 -0.174510
 20   3.673767 0.176993 -1.117566 0.000007 -0.000003 -0.174546
 21   3.942357 1.330634 1.627658 0.000002 -0.000011 -0.000026
 22   -0.246060 -0.011889 0.516521 -0.000011 0.000031 0.000025
 23   3.942374 1.330659 -1.631083 0.000019 0.000002 -0.000024
 24   -0.246150 -0.011872 -0.516511 -0.000005 -0.000006 0.000048
 25   4.941364 1.997338 1.629330 0.000018 -0.000001 -0.000024
 26   4.941382 1.997366 -1.629410 -0.000001 0.000005 -0.000024
 27   2.918368 1.615358 1.514501 -0.000019 -0.000022 -0.000050
 28   2.920798 1.614964 -1.501142 -0.000002 -0.000009 -0.000024
 29   8.824059 0.150544 0.091743 0.000006 -0.000231 -0.174534
 30   2.111085 -0.561179 1.784320 -0.000008 -0.000682 0.000024
 31   2.121290 -0.561289 -1.853599 0.000000 0.000000 -0.000002
 32   -0.810489 -0.093824 3.127092 -0.113551 -2.976578 -0.324058
 33   14.298673 -0.408176 0.475484 -0.000088 -0.000042 -0.410756
 34   15.835795 0.581398 0.242756 0.123491 -0.036239 -0.003710
 35   -0.815868 -0.091229 -3.114430 0.128602 2.997531 -0.031776
 36   14.294526 -0.410349 -0.463635 0.000081 0.000060 -0.399441
 37   15.834409 0.579420 -0.284600 0.133735 0.105494 0.255780
 38   1.139685 -3.453749 -2.823813 0.000000 0.000000 0.000001
 39   -4.457742 -1.054854 -0.746180 0.000000 0.000000 0.000000
 40   1.118101 -3.449769 3.237290 0.000000 0.000001 0.000000
 41   -4.433840 -1.059130 0.959566 -0.000001 0.000000 0.000000
 42   -0.657468 1.697302 -2.688614 0.000000 0.000002 0.000000
 43   -0.664068 1.698578 2.869377 0.000000 0.000002 0.000000
time 2
  0   0.001233 0.187506 0.867585 0.000000 0.000000 -1.571259
  1   -1.093036 0.000002 -0.326057 -1.570809 -1.570379 -0.000026
  2   2.262337 0.113614 0.064702 -0.234805 -0.011564 0.005861
  3   2.380047 0.353302 0.047440 -0.007275 0.014282 0.155082
  4   2.033756 0.190472 -0.000128 -0.240243 -0.011349 0.320652
  5   2.451511 0.204909 -0.003447 -0.214731 0.020884 0.441853
  6   7.247600 -0.397300 -0.109469 0.000001 0.000021 0.096676
  7   -2.022252 -0.104661 3.136172 1.317191 -1.138256 -4.504852
  8   1.168026 -0.537438 -0.063437 -0.279402 0.384568 -0.484638
  9   6.790376 -0.619176 0.015206 0.013990 0.050438 -1.618854
 10   8.637599 0.544015 -0.090417 -2.080712 -0.202292 -0.021028
 11   6.790465 -0.619039 0.017802 0.021906 0.022061 -1.148336
 12   -2.022474 -0.104699 -2.873818 -1.421534 1.183796 -4.562518
 13   1.167898 -0.537463 0.063297 0.879590 -0.551764 -0.946673
 14   7.002743 -0.617765 -0.183752 0.008428 -0.074989 -1.707203
 15   8.209042 0.615527 -0.255885 2.216857 0.016431 -0.051244
 16   7.002735 -0.617911 -0.183641 0.005589 -0.046145 -1.213459
 17   1.574674 0.609930 -0.000899 0.605809 -0.255145 -0.060033
 18   -0.602177 0.511412 -0.000006 0.000000 0.000000 0.000000
 19   3.673773 0.177020 1.119313 -0.000002 -0.000014 -0.174510
 20   3.673767 0.176993 -1.117566 0.000007 -0.000003 -0.174546
 21   3.942357 1.330634 1.627658 0.000002 -0.000011 -0.000026
 22   -0.246060 -0.011889 0.516521 -0.000011 0.000031 0.000025
 23   3.942374 1.330659 -1.631083 0.000019 0.000002 -0.000024
 24   -0.246150 -0.011872 -0.516511 -0.000005 -0.000006 0.000048
 25   4.941364 1.997338 1.629330 0.000018 -0.000001 -0.000024
 26   4.941382 1.997366 -1.629410 -0.000001 0.000005 -0.000024
 27   2.918368 1.615358 1.514501 -0.000019 -0.000022 -0.000050
 28   2.920798 1.614964 -1.501142 -0.000002 -0.000009 -0.000024
 29   8.824059 0.150544 0.091743 0.000006 -0.000231 -0.174534
 30   2.111085 -0.561179 1.784320 -0.000008 -0.000682 0.000024
 31   2.121290 -0.561289 -1.853599 0.000000 0.000000 -0.000002
 32   -0.810489 -0.093824 3.127092 -0.066387 -2.980016 -0.324001
 33   14.298673 -0.408176 0.475484 -0.000088 -0.000042 -0.343903
 34   15.835795 0.581398 0.242756 0.042525 -0.087243 -0.057162
 35   -0.815868 -0.091229 -3.114430 0.214416 2.984602 -0.032434
 36   14.294526 -0.410349 -0.463635 0.000081 0.000060 -0.399441
 37   15.834409 0.579420 -0.284600 0.356963 0.174269 0.248326
 38   1.139685 -3.453749 -2.823813 0.000000 0.000000 0.000001
 39   -4.457742 -1.054854 -0.746180 0.000000 0.000000 0.000000
 40   1.118101 -3.449769 3.237290 0.000000 0.000001 0.000000
 41   -4.433840 -1.059130 0.959566 -0.000001 0.000000 0.000000
 42   -0.657468 1.697302 -2.688614 0.000000 0.000002 0.000000
 43   -0.664068 1.698578 2.869377 0.000000 0.000002 0.000000
time 3
  0   0.001233 0.187506 0.867585 0.000000 0.000000 -1.571259
  1   -1.093036 0.000002 -0.326057 -1.570809 -1.570379 -0.000026
  2   2.262337 0.113614 0.064702 -0.226844 -0.024951 0.013017
  3   2.380047 0.353302 0.047440 -0.040698 0.016163 0.165387
  4   2.033756 0.190472 -0.000128 -0.259700 -0.003176 0.242322
  5   2.451511 0.204909 -0.003447 -0.214303 0.049071 0.353712
  6   7.247600 -0.397300 -0.109469 0.000001 0.000021 0.108111
  7   -2.022252 -0.104661 3.136172 1.421772 -1.206805 -4.616328
  8   1.168026 -0.537438 -0.063437 -0.262443 0.733448 -0.756088
  9   6.790376 -0.619176 0.015206 0.020259 0.084675 -1.620288
 10   8.637599 0.544015 -0.090417 -1.918673 -0.289576 -0.001929
 11   6.790465 -0.619039 0.017802 0.032329 0.045654 -1.148855
 12   -2.022474 -0.104699 -2.873818 -1.703303 1.451716 -4.836720
 13   1.167898 -0.537463 0.063297 0.638833 -0.721308 -0.851089
 14   7.002743 -0.617765 -0.183752 0.022547 -0.128140 -1.833766
 15   8.209042 0.615527 -0.255885 2.241807 0.131736 -0.180780
 16   7.002735 -0.617911 -0.183641 0.003941 -0.086970 -1.300553
 17   1.574674 0.609930 -0.000899 0.638874 -0.280657 0.059019
 18   -0.602177 0.511412 -0.000006 0.000000 0.000000 0.000000
 19   3.673773 0.177020 1.119313 -0.000002 -0.000014 -0.174510
 20   3.673767 0.176993 -1.117566 0.000007 -0.000003 -0.174546
 21   3.942357 1.330634 1.627658 0.000002 -0.000011 -0.000026
 22   -0.246060 -0.011889 0.516521 -0.000011 0.000031 0.000025
 23   3.942374 1.330659 -1.631083 0.000019 0.000002 -0.000024
 24   -0.246150 -0.011872 -0.516511 -0.000005 -0.000006 0.000048
 25   4.941364 1.997338 1.629330 0.000018 -0.000001 -0.000024
 26   4.941382 1.997366 -1.629410 -0.000001 0.000005 -0.000024
 27   2.918368 1.615358 1.514501 -0.000019 -0.000022 -0.000050
 28   2.920798 1.614964 -1.501142 -0.000002 -0.000009 -0.000024
 29   8.824059 0.150544 0.091743 0.000006 -0.000231 -0.174534
 30   2.111085 -0.561179 1.784320 -0.000008 -0.000682 0.000024
 31   2.121290 -0.561289 -1.853599 0.000000 0.000000 -0.000002
 32   -0.810489 -0.093824 3.127092 0.001469 -2.985078 -0.323489
 33   14.298673 -0.408176 0.475484 -0.000088 -0.000042 -0.277129
 34   15.835795 0.581398 0.242756 0.005561 -0.112525 -0.080669
 35   -0.815868 -0.091229 -3.114430 0.300318 2.971954 -0.031886
 36   14.294526 -0.410349 -0.463635 0.000081 0.000060 -0.399441
 37   15.834409 0.579420 -0.284600 0.356963 0.174269 0.248326
 38   1.139685 -3.453749 -2.823813 0.000000 0.000000 0.000001
 39   -4.457742 -1.054854 -0.746180 0.000000 0.000000 0.000000
 40   1.118101 -3.449769 3.237290 0.000000 0.000001 0.000000
 41   -4.433840 -1.059130 0.959566 -0.000001 0.000000 0.000000
 42   -0.657468 1.697302 -2.688614 0.000000 0.000002 0.000000
 43   -0.664068 1.698578 2.869377 0.000000 0.000002 0.000000
time 4
  0   0.001233 0.187506 0.867585 0.000000 0.000000 -1.571164
  1   -1.093036 0.000002 -0.326057 -1.570809 -1.570379 -0.000026
  2   2.262337 0.113614 0.064702 -0.217278 -0.041310 0.021582
  3   2.380047 0.353302 0.047440 -0.081200 0.018968 0.177916
  4   2.033756 0.190472 -0.000128 -0.284210 0.004674 0.146449
  5   2.451511 0.204909 -0.003447 -0.217076 0.083446 0.245438
  6   7.247600 -0.397300 -0.109469 0.000001 0.000021 0.122017
  7   -2.022252 -0.104661 3.136172 1.473056 -1.231654 -4.670046
  8   1.168026 -0.537438 -0.063437 -0.290413 0.858831 -0.877042
  9   6.790376 -0.619176 0.015206 0.022589 0.097890 -1.620590
 10   8.637599 0.544015 -0.090417 -1.856411 -0.323434 0.001688
 11   6.790465 -0.619039 0.017802 0.036329 0.054665 -1.148970
 12   -2.022474 -0.104699 -2.873818 -2.729876 1.524450 -5.860575
 13   1.167898 -0.537463 0.063297 0.533251 -0.778976 -0.797092
 14   7.002743 -0.617765 -0.183752 0.029663 -0.147731 -1.882362
 15   8.209042 0.615527 -0.255885 2.247488 0.175997 -0.229551
 16   7.002735 -0.617911 -0.183641 0.004224 -0.102702 -1.333779
 17   1.574674 0.609930 -0.000899 0.674985 -0.316868 0.204645
 18   -0.602177 0.511412 -0.000006 0.000000 0.000000 0.000000
 19   3.673773 0.177020 1.119313 -0.000002 -0.000014 -0.174510
 20   3.673767 0.176993 -1.117566 0.000007 -0.000003 -0.174546
 21   3.942357 1.330634 1.627658 0.000002 -0.000011 -0.000026
 22   -0.246060 -0.011889 0.516521 -0.000011 0.000031 0.000025
 23   3.942374 1.330659 -1.631083 0.000019 0.000002 -0.000024
 24   -0.246150 -0.011872 -0.516511 -0.000005 -0.000006 0.000048
 25   4.941364 1.997338 1.629330 0.000018 -0.000001 -0.000024
 26   4.941382 1.997366 -1.629410 -0.000001 0.000005 -0.000024
 27   2.918368 1.615358 1.514501 -0.000019 -0.000022 -0.000050
 28   2.920798 1.614964 -1.501142 -0.000002 -0.000009 -0.000024
 29   8.824059 0.150544 0.091743 0.000006 -0.000231 -0.174534
 30   2.111085 -0.561179 1.784320 -0.000008 -0.000682 0.000024
 31   2.121290 -0.561289 -1.853599 0.000000 0.000000 -0.000002
 32   -0.810489 -0.093824 3.127092 0.069233 -2.989949 -0.322635
 33   14.298673 -0.408176 0.475484 -0.000088 -0.000042 -0.251563
 34   15.835795 0.581398 0.242756 0.005561 -0.112525 -0.080669
 35   -0.815868 -0.091229 -3.114430 0.333236 2.966895 -0.031502
 36   14.294526 -0.410349 -0.463635 0.000081 0.000060 -0.399441
 37   15.834409 0.579420 -0.284600 0.356963 0.174269 0.248326
 38   1.139685 -3.453749 -2.823813 0.000000 0.000000 0.000001
 39   -4.457742 -1.054854 -0.746180 0.000000 0.000000 0.000000
 40   1.118101 -3.449769 3.237290 0.000000 0.000001 0.000000
 41   -4.433840 -1.059130 0.959566 -0.000001 0.000000 0.000000
 42   -0.657468 1.697302 -2.688614 0.000000 0.000002 0.000000
 43   -0.664068 1.698578 2.869377 0.000000 0.000002 0.000000
time 5
  0   0.001233 0.187506 0.867585 0.000000 0.000000 -1.571069
  1   -1.093036 0.000002 -0.326057 -1.570809 -1.570379 -0.000026
  2   2.262337 0.113614 0.064702 -0.207865 -0.057717 0.029949
  3   2.380047 0.353302 0.047440 -0.121673 0.022275 0.190302
  4   2.033756 0.190472 -0.000128 -0.309366 0.010247 0.050431
  5   2.451511 0.204909 -0.003447 -0.223632 0.117365 0.136544
  6   7.247600 -0.397300 -0.109469 0.000001 0.000021 0.135859
  7   -2.022252 -0.104661 3.136172 1.473056 -1.231654 -4.670046
  8   1.168026 -0.537438 -0.063437 -0.290413 0.858831 -0.877042
  9   6.790376 -0.619176 0.015206 0.022589 0.097890 -1.620590
 10   8.637599 0.544015 -0.090417 -1.856411 -0.323434 0.001688
 11   6.790465 -0.619039 0.017802 0.036329 0.054665 -1.148970
 12   -2.022474 -0.104699 -2.873818 -2.729876 1.524450 -5.860575
 13   1.167898 -0.537463 0.063297 0.533251 -0.778976 -0.797092
 14   7.002743 -0.617765 -0.183752 0.029663 -0.147731 -1.882362
 15   8.209042 0.615527 -0.255885 2.247488 0.175997 -0.229551
 16   7.002735 -0.617911 -0.183641 0.004224 -0.102702 -1.333779
 17   1.574674 0.609930 -0.000899 0.705369 -0.357433 0.350050
 18   -0.602177 0.511412 -0.000006 0.000000 0.000000 0.000000
 19   3.673773 0.177020 1.119313 -0.000002 -0.000014 -0.174510
 20   3.673767 0.176993 -1.117566 0.000007 -0.000003 -0.174546
 21   3.942357 1.330634 1.627658 0.000002 -0.000011 -0.000026
 22   -0.246060 -0.011889 0.516521 -0.000011 0.000031 0.000025
 23   3.942374 1.330659 -1.631083 0.000019 0.000002 -0.000024
 24   -0.246150 -0.011872 -0.516511 -0.000005 -0.000006 0.000048
 25   4.941364 1.997338 1.629330 0.000018 -0.000001 -0.000024
 26   4.941382 1.997366 -1.629410 -0.000001 0.000005 -0.000024
 27   2.918368 1.615358 1.514501 -0.000019 -0.000022 -0.000050
 28   2.920798 1.614964 -1.501142 -0.000002 -0.000009 -0.000024
 29   8.824059 0.150544 0.091743 0.000006 -0.000231 -0.174534
 30   2.111085 -0.561179 1.784320 -0.000008 -0.000682 0.000024
 31   2.121290 -0.561289 -1.853599 0.000000 0.000000 -0.000002
 32   -0.810489 -0.093824 3.127092 0.116210 -2.993196 -0.321895
 33   14.298673 -0.408176 0.475484 -0.000088 -0.000042 -0.251563
 34   15.835795 0.581398 0.242756 0.005561 -0.112525 -0.080669
 35   -0.815868 -0.091229 -3.114430 0.333236 2.966895 -0.031502
 36   14.294526 -0.410349 -0.463635 0.000081 0.000060 -0.399441
 37   15.834409 0.579420 -0.284600 0.356963 0.174269 0.248326
 38   1.139685 -3.453749 -2.823813 0.000000 0.000000 0.000001
 39   -4.457742 -1.054854 -0.746180 0.000000 0.000000 0.000000
 40   1.118101 -3.449769 3.237290 0.000000 0.000001 0.000000
 41   -4.433840 -1.059130 0.959566 -0.000001 0.000000 0.000000
 42   -0.657468 1.697302 -2.688614 0.000000 0.000002 0.000000
 43   -0.664068 1.698578 2.869377 0.000000 0.000002 0.000000
time 6
  0   0.001233 0.187506 0.867585 0.000000 0.000000 -1.571069
  1   -1.093036 0.000002 -0.326057 -1.570809 -1.570379 -0.000026
  2   2.262337 0.113614 0.064702 -0.200248 -0.071248 0.036744
  3   2.380047 0.353302 0.047440 -0.154810 0.025355 0.200321
  4   2.033756 0.190472 -0.000128 -0.330243 0.012919 -0.028044
  5   2.451511 0.204909 -0.003447 -0.231728 0.144429 0.047067
  6   7.247600 -0.397300 -0.109469 0.000001 0.000021 0.147231
  7   -2.022252 -0.104661 3.136172 1.473056 -1.231654 -4.670046
  8   1.168026 -0.537438 -0.063437 -0.290413 0.858831 -0.877042
  9   6.790376 -0.619176 0.015206 0.022589 0.097890 -1.620590
 10   8.637599 0.544015 -0.090417 -1.856411 -0.323434 0.001688
 11   6.790465 -0.619039 0.017802 0.036329 0.054665 -1.148970
 12   -2.022474 -0.104699 -2.873818 -2.729876 1.524450 -5.860575
 13   1.167898 -0.537463 0.063297 0.533251 -0.778976 -0.797092
 14   7.002743 -0.617765 -0.183752 0.029663 -0.147731 -1.882362
 15   8.209042 0.615527 -0.255885 2.247488 0.175997 -0.229551
 16   7.002735 -0.617911 -0.183641 0.004224 -0.102702 -1.333779
 17   1.574674 0.609930 -0.000899 0.725476 -0.392957 0.468177
 18   -0.602177 0.511412 -0.000006 0.000000 0.000000 0.000000
 19   3.673773 0.177020 1.119313 -0.000002 -0.000014 -0.174510
 20   3.673767 0.176993 -1.117566 0.000007 -0.000003 -0.174546
 21   3.942357 1.330634 1.627658 0.000002 -0.000011 -0.000026
 22   -0.246060 -0.011889 0.516521 -0.000011 0.000031 0.000025
 23   3.942374 1.330659 -1.631083 0.000019 0.000002 -0.000024
 24   -0.246150 -0.011872 -0.516511 -0.000005 -0.000006 0.000048
 25   4.941364 1.997338 1.629330 0.000018 -0.000001 -0.000024
 26   4.941382 1.997366 -1.629410 -0.000001 0.000005 -0.000024
 27   2.918368 1.615358 1.514501 -0.000019 -0.000022 -0.000050
 28   2.920798 1.614964 -1.501142 -0.000002 -0.000009 -0.000024
 29   8.824059 0.150544 0.091743 0.000006 -0.000231 -0.174534
 30   2.111085 -0.561179 1.784320 -0.000008 -0.000682 0.000024
 31   2.121290 -0.561289 -1.853599 0.000000 0.000000 -0.000002
 32   -0.810489 -0.093824 3.127092 0.132335 -2.994342 -0.321496
 33   14.298673 -0.408176 0.475484 -0.000088 -0.000042 -0.251563
 34   15.835795 0.581398 0.242756 0.005561 -0.112525 -0.080669
 35   -0.815868 -0.091229 -3.114430 0.333236 2.966895 -0.031502
 36   14.294526 -0.410349 -0.463635 0.000081 0.000060 -0.399441
 37   15.834409 0.579420 -0.284600 0.356963 0.174269 0.248326
 38   1.139685 -3.453749 -2.823813 0.000000 0.000000 0.000001
 39   -4.457742 -1.054854 -0.746180 0.000000 0.000000 0.000000
 40   1.118101 -3.449769 3.237290 0.000000 0.000001 0.000000
 41   -4.433840 -1.059130 0.959566 -0.000001 0.000000 0.000000
 42   -0.657468 1.697302 -2.688614 0.000000 0.000002 0.000000
 43   -0.664068 1.698578 2.869377 0.000000 0.000002 0.000000
time 7
  0   0.001233 0.187506 0.867585 0.000000 0.000000 -1.571069
  1   -1.093036 0.000002 -0.326057 -1.570809 -1.570379 -0.000026
  2   2.262337 0.113614 0.064702 -0.195497 -0.079841 0.040936
  3   2.380047 0.353302 0.047440 -0.175872 0.027525 0.206647
  4   2.033756 0.190472 -0.000128 -0.343503 0.013782 -0.077630
  5   2.451511 0.204909 -0.003447 -0.238027 0.161114 -0.009646
  6   7.247600 -0.397300 -0.109469 0.000001 0.000021 0.154517
  7   -2.022252 -0.104661 3.136172 1.473056 -1.231654 -4.670046
  8   1.168026 -0.537438 -0.063437 -0.290413 0.858831 -0.877042
  9   6.790376 -0.619176 0.015206 0.022589 0.097890 -1.620590
 10   8.637599 0.544015 -0.090417 -1.856411 -0.323434 0.001688
 11   6.790465 -0.619039 0.017802 0.036329 0.054665 -1.148970
 12   -2.022474 -0.104699 -2.873818 -2.729876 1.524450 -5.860575
 13   1.167898 -0.537463 0.063297 0.533251 -0.778976 -0.797092
 14   7.002743 -0.617765 -0.183752 0.029663 -0.147731 -1.882362
 15   8.209042 0.615527 -0.255885 2.247488 0.175997 -0.229551
 16   7.002735 -0.617911 -0.183641 0.004224 -0.102702 -1.333779
 17   1.574674 0.609930 -0.000899 0.735793 -0.416127 0.542358
 18   -0.602177 0.511412 -0.000006 0.000000 0.000000 0.000000
 19   3.673773 0.177020 1.119313 -0.000002 -0.000014 -0.174510
 20   3.673767 0.176993 -1.117566 0.000007 -0.000003 -0.174546
 21   3.942357 1.330634 1.627658 0.000002 -0.000011 -0.000026
 22   -0.246060 -0.011889 0.516521 -0.000011 0.000031 0.000025
 23   3.942374 1.330659 -1.631083 0.000019 0.000002 -0.000024
 24   -0.246150 -0.011872 -0.516511 -0.000005 -0.000006 0.000048
 25   4.941364 1.997338 1.629330 0.000018 -0.000001 -0.000024
 26   4.941382 1.997366 -1.629410 -0.000001 0.000005 -0.000024
 27   2.918368 1.615358 1.514501 -0.000019 -0.000022 -0.000050
 28   2.920798 1.614964 -1.501142 -0.000002 -0.000009 -0.000024
 29   8.824059 0.150544 0.091743 0.000006 -0.000231 -0.174534
 30   2.111085 -0.561179 1.784320 -0.000008 -0.000682 0.000024
 31   2.121290 -0.561289 -1.853599 0.000000 0.000000 -0.000002
 32   -0.810489 -0.093824 3.127092 0.132335 -2.994342 -0.321496
 33   14.298673 -0.408176 0.475484 -0.000088 -0.000042 -0.251563
 34   15.835795 0.581398 0.242756 0.005561 -0.112525 -0.080669
 35   -0.815868 -0.091229 -3.114430 0.333236 2.966895 -0.031502
 36   14.294526 -0.410349 -0.463635 0.000081 0.000060 -0.399441
 37   15.834409 0.579420 -0.284600 0.356963 0.174269 0.248326
 38   1.139685 -3.453749 -2.823813 0.000000 0.000000 0.000001
 39   -4.457742 -1.054854 -0.746180 0.000000 0.000000 0.000000
 40   1.118101 -3.449769 3.237290 0.000000 0.000001 0.000000
 41   -4.433840 -1.059130 0.959566 -0.000001 0.000000 0.000000
 42   -0.657468 1.697302 -2.688614 0.000000 0.000002 0.000000
 43   -0.664068 1.698578 2.869377 0.000000 0.000002 0.000000
time 8
  0   0.001233 0.187506 0.867585 0.000000 0.000000 -1.571069
  1   -1.093036 0.000002 -0.326057 -1.570809 -1.570379 -0.000026
  2   2.262337 0.113614 0.064702 -0.193892 -0.082717 0.042400
  3   2.380047 0.353302 0.047440 -0.182817 0.028268 0.208708
  4   2.033756 0.190472 -0.000128 -0.347911 0.013914 -0.094231
  5   2.451511 0.204909 -0.003447 -0.240372 0.166571 -0.028567
  6   7.247600 -0.397300 -0.109469 0.000001 0.000021 0.156829
  7   -2.022252 -0.104661 3.136172 1.473056 -1.231654 -4.670046
  8   1.168026 -0.537438 -0.063437 -0.290413 0.858831 -0.877042
  9   6.790376 -0.619176 0.015206 0.022589 0.097890 -1.620590
 10   8.637599 0.544015 -0.090417 -1.856411 -0.323434 0.001688
 11   6.790465 -0.619039 0.017802 0.036329 0.054665 -1.148970
 12   -2.022474 -0.104699 -2.873818 -2.729876 1.524450 -5.860575
 13   1.167898 -0.537463 0.063297 0.533251 -0.778976 -0.797092
 14   7.002743 -0.617765 -0.183752 0.029663 -0.147731 -1.882362
 15   8.209042 0.615527 -0.255885 2.247488 0.175997 -0.229551
 16   7.002735 -0.617911 -0.183641 0.004224 -0.102702 -1.333779
 17   1.574674 0.609930 -0.000899 0.738799 -0.423866 0.567011
 18   -0.602177 0.511412 -0.000006 0.000000 0.000000 0.000000
 19   3.673773 0.177020 1.119313 -0.000002 -0.000014 -0.174510
 20   3.673767 0.176993 -1.117566 0.000007 -0.000003 -0.174546
 21   3.942357 1.330634 1.627658 0.000002 -0.000011 -0.000026
 22   -0.246060 -0.011889 0.516521 -0.000011 0.000031 0.000025
 23   3.942374 1.330659 -1.631083 0.000019 0.000002 -0.000024
 24   -0.246150 -0.011872 -0.516511 -0.000005 -0.000006 0.000048
 25   4.941364 1.997338 1.629330 0.000018 -0.000001 -0.000024
 26   4.941382 1.997366 -1.629410 -0.000001 0.000005 -0.000024
 27   2.918368 1.615358 1.514501 -0.000019 -0.000022 -0.000050
 28   2.920798 1.614964 -1.501142 -0.000002 -0.000009 -0.000024
 29   8.824059 0.150544 0.091743 0.000006 -0.000231 -0.174534
 30   2.111085 -0.561179 1.784320 -0.000008 -0.000682 0.000024
 31   2.121290 -0.561289 -1.853599 0.000000 0.000000 -0.000002
 32   -0.810489 -0.093824 3.127092 0.132335 -2.994342 -0.321496
 33   14.298673 -0.408176 0.475484 -0.000088 -0.000042 -0.251563
 34   15.835795 0.581398 0.242756 0.005561 -0.112525 -0.080669
 35   -0.815868 -0.091229 -3.114430 0.333236 2.966895 -0.031502
 36   14.294526 -0.410349 -0.463635 0.000081 0.000060 -0.399441
 37   15.834409 0.579420 -0.284600 0.356963 0.174269 0.248326
 38   1.139685 -3.453749 -2.823813 0.000000 0.000000 0.000001
 39   -4.457742 -1.054854 -0.746180 0.000000 0.000000 0.000000
 40   1.118101 -3.449769 3.237290 0.000000 0.000001 0.000000
 41   -4.433840 -1.059130 0.959566 -0.000001 0.000000 0.000000
 42   -0.657468 1.697302 -2.688614 0.000000 0.000002 0.000000
 43   -0.664068 1.698578 2.869377 0.000000 0.000002 0.000000
end
