version 1
nodes
  0 "Bip01" -1
  1 "Bip01 Pelvis" 0
  2 "Bip01 Spine" 1
  3 "Bip01 Spine1" 2
  4 "Bip01 Spine2" 3
  5 "Bip01 Spine3" 4
  6 "Bip01 Neck" 5
  7 "Bip01 L Arm" 6
  8 "Bip01 L Arm1" 7
  9 "Bip01 L Arm2" 8
 10 "Bip01 L Hand" 9
 11 "Bip06 L elbow2-smooth" 8
 12 "Bip01 R Arm" 6
 13 "Bip01 R Arm1" 12
 14 "Bip01 R Arm2" 13
 15 "Bip01 R Hand" 14
 16 "Bip06 R elbow2-smooth" 13
 17 "Bip01 Head" 6
 18 "Bip06 Head_helper" 17
 19 "Bip06 Head_eyes_l" 18
 20 "Bip06 Head_eyes_r" 18
 21 "Bip06 Head_blink_l" 18
 22 "Bip06 Head_blink_smooth_l1" 21
 23 "Bip06 Head_blink_r" 18
 24 "Bip06 Head_blink_smooth_r1" 23
 25 "Bip06 Head_L_eyebrow" 18
 26 "Bip06 Head_R_eyebrow" 18
 27 "Bip06 Head_blink_l_lid" 18
 28 "Bip06 Head_blink_r_lid" 18
 29 "Bip06 bunny" 18
 30 "Bip06 bunnyL" 29
 31 "Bip06 bunnyR" 29
 32 "Bip01 L Leg" 1
 33 "Bip01 L Leg1" 32
 34 "Bip01 L Foot" 33
 35 "Bip01 R Leg" 1
 36 "Bip01 R Leg1" 35
 37 "Bip01 R Foot" 36
 38 "Bip03 HairR1" 17
 39 "Bip03 HairR2" 38
 40 "Bip03 HairL1" 17
 41 "Bip03 HairL2" 40
 42 "Bip03 swingR" 17
 43 "Bip03 swingL" 17
end
skeleton
time 0
  0   -0.393310 -0.082034 0.797270 0.000000 0.000000 -1.571069
  1   -1.093036 0.000002 -0.326057 -0.214108 -1.569036 -1.356583
  2   2.262337 0.113614 0.064702 -0.114028 0.012333 0.114033
  3   2.380047 0.353302 0.047440 0.116873 0.020933 0.105721
  4   2.033756 0.190472 -0.000128 0.079625 0.003643 -0.091766
  5   2.451511 0.204909 -0.003447 0.059618 0.003768 0.031242
  6   7.247600 -0.397300 -0.109469 -0.096918 -0.020413 0.156576
  7   -2.022252 -0.104661 3.136172 -0.456278 -1.260480 -2.755056
  8   1.168026 -0.537438 -0.063437 0.881858 0.867787 0.405120
  9   6.790376 -0.619176 0.015206 0.030911 0.051439 -1.304155
 10   8.637599 0.544015 -0.090417 -1.334627 -0.026879 -0.150380
 11   6.790465 -0.619039 0.017802 0.030811 0.020839 -0.928306
 12   -2.022474 -0.104699 -2.873818 -0.357597 1.210817 -3.552927
 13   1.167898 -0.537463 0.063297 0.000351 -0.877173 0.129938
 14   7.002743 -0.617765 -0.183752 0.072761 -0.053070 -1.181396
 15   8.209042 0.615527 -0.255885 1.606761 0.201343 -0.025325
 16   7.002735 -0.617911 -0.183641 0.059113 -0.039942 -0.845323
 17   1.574674 0.609930 -0.000899 -0.012755 0.013806 0.166502
 18   -0.602177 0.511412 -0.000006 0.000000 0.000000 0.000000
 19   3.677679 0.177020 1.119313 -0.000002 -0.000014 -0.174510
 20   3.673767 0.176993 -1.117566 0.000007 -0.000003 -0.174546
 21   3.938451 1.330634 1.627658 0.000002 -0.000011 -0.000026
 22   -0.246060 -0.011889 0.516521 -0.000011 0.000031 0.000025
 23   3.942374 1.330659 -1.631083 0.000019 0.000002 -0.000024
 24   -0.246150 -0.011872 -0.516511 -0.000005 -0.000006 0.000048
 25   4.941364 1.997338 1.629330 0.000018 -0.000001 -0.000024
 26   4.941382 1.997366 -1.629410 -0.000001 0.000005 -0.000024
 27   2.918368 1.623171 1.514501 -0.000019 -0.000022 -0.000050
 28   2.920798 1.614964 -1.501142 -0.000002 -0.000009 -0.000024
 29   8.824059 0.150544 0.091743 0.000006 -0.000231 -0.174534
 30   2.111085 -0.561179 1.784320 -0.000008 -0.000682 0.000024
 31   2.121290 -0.561289 -1.853599 0.000000 0.000000 -0.000002
 32   -0.810489 -0.093824 3.127092 -0.008784 -3.102262 -0.936654
 33   14.298673 -0.408176 0.475484 0.085398 0.052264 -1.972199
 34   15.835795 0.581398 0.242756 0.132163 0.070308 -0.281291
 35   -0.815868 -0.091229 -3.114430 -0.014246 3.159520 0.053072
 36   14.294526 -0.410349 -0.463635 -0.024200 0.018528 -0.570382
 37   15.834409 0.579420 -0.284600 0.038810 -0.116469 0.423705
 38   1.139685 -3.453749 -2.823813 0.000000 0.000000 0.000001
 39   -4.457742 -1.054854 -0.746180 0.000000 0.000000 0.000000
 40   1.118101 -3.449769 3.237290 0.000000 0.000001 0.000000
 41   -4.433840 -1.059130 0.959566 -0.000001 0.000000 0.000000
 42   -0.657468 1.697302 -2.688614 0.000000 0.000002 0.000000
 43   -0.664068 1.698578 2.869377 0.000000 0.000002 0.000000
time 1
  0   -0.260494 -7.780683 1.398851 0.000000 0.000000 -1.571069
  1   -1.093036 0.000002 -0.326057 -0.214160 -1.569036 -1.356583
  2   2.262337 0.113614 0.064702 -0.136203 0.012297 0.095402
  3   2.380047 0.353302 0.047440 0.135789 0.017230 0.112659
  4   2.033756 0.190472 -0.000128 0.114279 0.005249 -0.079768
  5   2.451511 0.204909 -0.003447 0.085533 0.005452 0.031440
  6   7.247600 -0.397300 -0.109469 -0.112978 -0.018699 0.156386
  7   -2.022252 -0.104661 3.136172 -0.509287 -1.226292 -2.701431
  8   1.168026 -0.537438 -0.063437 0.843953 0.791712 0.471923
  9   6.790376 -0.619176 0.015206 0.027194 0.047635 -1.263780
 10   8.637599 0.544015 -0.090417 -1.335067 -0.034552 -0.137792
 11   6.790465 -0.619039 0.017802 0.027132 0.018707 -0.899988
 12   -2.022474 -0.104699 -2.873818 -0.414123 1.180545 -3.608362
 13   1.167898 -0.537463 0.063297 0.008083 -0.838321 0.064258
 14   7.002743 -0.617765 -0.183752 0.070086 -0.059033 -1.273637
 15   8.209042 0.615527 -0.255885 1.605179 0.204899 -0.030617
 16   7.002735 -0.617911 -0.183641 0.055864 -0.044115 -0.909733
 17   1.574674 0.609930 -0.000899 -0.050410 0.025545 0.166465
 18   -0.602177 0.511412 -0.000006 0.000000 0.000000 0.000000
 19   3.677679 0.177020 1.119313 -0.000002 -0.000014 -0.174510
 20   3.677673 0.176993 -1.117566 0.000007 -0.000003 -0.174546
 21   3.938451 1.330634 1.627658 0.000002 -0.000011 -0.000026
 22   -0.246060 -0.011889 0.516521 -0.000011 0.000031 0.000025
 23   3.942374 1.330659 -1.631083 0.000019 0.000002 -0.000024
 24   -0.246150 -0.011872 -0.516511 -0.000005 -0.000006 0.000048
 25   4.941364 1.997338 1.629330 0.000018 -0.000001 -0.000024
 26   4.941382 1.997366 -1.629410 -0.000001 0.000005 -0.000024
 27   2.918368 1.615358 1.514501 -0.000019 -0.000022 -0.000050
 28   2.924704 1.614964 -1.501142 -0.000002 -0.000009 -0.000024
 29   8.824059 0.150544 0.091743 0.000808 0.003235 -0.174534
 30   2.111085 -0.561179 1.784320 0.004386 0.015650 0.000453
 31   2.113477 -0.561289 -1.853599 0.002421 0.009091 0.000107
 32   -0.810489 -0.093824 3.127092 -0.004962 -3.096055 -1.004049
 33   14.298673 -0.408176 0.475484 0.081156 0.028534 -1.642141
 34   15.835795 0.581398 0.242756 0.121835 0.089855 -0.025629
 35   -0.815868 -0.091229 -3.114430 -0.063534 3.159520 0.378058
 36   14.294526 -0.410349 -0.463635 -0.002053 0.019115 -0.274383
 37   15.834409 0.579420 -0.284600 0.070905 -0.057139 0.134298
 38   1.147498 -3.453749 -2.823813 -0.003178 -0.006423 0.003483
 39   -4.457742 -1.054854 -0.746180 -0.001654 -0.003164 0.000000
 40   1.110288 -3.449769 3.237290 -0.003136 -0.006555 0.004765
 41   -4.433840 -1.059130 0.959566 -0.001511 -0.002205 -0.003702
 42   -0.657468 1.697302 -2.657363 0.005657 0.012084 0.000376
 43   -0.664068 1.698578 2.877190 0.004548 0.009778 0.000167
time 2
  0   -0.022206 -15.475426 2.266065 0.000000 0.000000 -1.571069
  1   -1.093036 0.000002 -0.326057 -0.214108 -1.569036 -1.356583
  2   2.262337 0.113614 0.064702 -0.141974 0.012525 0.092366
  3   2.380047 0.353302 0.047440 0.141189 0.011933 0.109027
  4   2.033756 0.190472 -0.000128 0.133533 0.006148 -0.085242
  5   2.451511 0.204909 -0.003447 0.100031 0.006379 0.031539
  6   7.247600 -0.397300 -0.109469 -0.117927 -0.013869 0.156386
  7   -2.022252 -0.104661 3.136172 -0.556737 -1.224274 -2.653159
  8   1.168026 -0.537438 -0.063437 0.790987 0.762278 0.520064
  9   6.790376 -0.619176 0.015206 0.015876 0.039359 -1.195708
 10   8.637599 0.544015 -0.090417 -1.343169 -0.047926 -0.045336
 11   6.790465 -0.619039 0.017802 0.017380 0.014472 -0.852117
 12   -2.022474 -0.104699 -2.873818 -0.463368 1.189107 -3.659487
 13   1.167898 -0.537463 0.063297 -0.033812 -0.846356 0.032719
 14   7.002743 -0.617765 -0.183752 0.061318 -0.067551 -1.365383
 15   8.209042 0.615527 -0.255885 1.601296 0.206639 -0.040179
 16   7.002735 -0.617911 -0.183641 0.047909 -0.049246 -0.973812
 17   1.574674 0.609930 -0.000899 -0.081931 0.027817 0.165614
 18   -0.602177 0.511412 -0.000006 0.000000 0.000000 0.000000
 19   3.673773 0.177020 1.119313 -0.000002 -0.000014 -0.174510
 20   3.673767 0.176993 -1.117566 0.000007 -0.000003 -0.174546
 21   3.938451 1.330634 1.627658 0.000002 -0.000011 -0.000026
 22   -0.246060 -0.011889 0.516521 -0.000011 0.000031 0.000025
 23   3.938468 1.330659 -1.631083 0.000019 0.000002 -0.000024
 24   -0.246150 -0.011872 -0.516511 -0.000005 -0.000006 0.000048
 25   4.941364 1.997338 1.629330 0.000018 -0.000001 -0.000024
 26   4.941382 1.997366 -1.629410 -0.000001 0.000005 -0.000024
 27   2.918368 1.615358 1.514501 -0.000019 -0.000022 -0.000050
 28   2.920798 1.614964 -1.501142 -0.000002 -0.000009 -0.000024
 29   8.824059 0.150544 0.091743 0.003125 0.012018 -0.174534
 30   2.118898 -0.561179 1.764788 0.015424 0.056538 0.001568
 31   2.082226 -0.553476 -1.873131 0.008519 0.031911 0.000453
 32   -0.810489 -0.093824 3.127092 -0.001327 -3.100352 -0.865843
 33   14.298673 -0.408176 0.475484 0.057990 -0.003983 -1.090801
 34   15.835795 0.581398 0.242756 0.119581 0.026796 0.160970
 35   -0.815868 -0.091229 -3.114430 -0.071191 3.160738 0.448226
 36   14.294526 -0.410349 -0.463635 -0.015356 0.019762 -0.457683
 37   15.834409 0.579420 -0.284600 0.080914 0.004879 -0.033526
 38   1.170936 -3.461562 -2.823813 -0.011219 -0.022547 0.012464
 39   -4.457742 -1.054854 -0.746180 -0.005801 -0.011110 0.000000
 40   1.086850 -3.441956 3.237290 -0.011093 -0.022955 0.016984
 41   -4.433840 -1.059130 0.959566 -0.005334 -0.007778 -0.013097
 42   -0.637936 1.689489 -2.583142 0.019823 0.042335 0.001506
 43   -0.664068 1.698578 2.908441 0.015955 0.034209 0.000795
time 3
  0   0.235614 -23.174074 2.684047 0.000000 0.000000 -1.571069
  1   -1.093036 0.000002 -0.326057 -0.214108 -1.569036 -1.356583
  2   2.262337 0.113614 0.064702 -0.127275 0.012537 0.100335
  3   2.380047 0.353302 0.047440 0.135219 0.005233 0.098661
  4   2.033756 0.190472 -0.000128 0.139379 0.006460 -0.101408
  5   2.451511 0.204909 -0.003447 0.104413 0.006627 0.031539
  6   7.247600 -0.397300 -0.109469 -0.116405 -0.006499 0.156386
  7   -2.022252 -0.104661 3.136172 -0.615018 -1.246326 -2.594464
  8   1.168026 -0.537438 -0.063437 0.757765 0.770278 0.549227
  9   6.790376 -0.619176 0.015206 0.004170 0.029948 -1.108090
 10   8.637599 0.544015 -0.090417 -1.352944 -0.085585 0.030626
 11   6.790465 -0.619039 0.017802 0.007337 0.009327 -0.790809
 12   -2.022474 -0.104699 -2.873818 -0.525355 1.227041 -3.724687
 13   1.167898 -0.537463 0.063297 -0.082456 -0.897361 0.026121
 14   7.002743 -0.617765 -0.183752 0.051924 -0.076182 -1.449291
 15   8.209042 0.615527 -0.255885 1.568940 0.193777 -0.154259
 16   7.002735 -0.617911 -0.183641 0.039294 -0.054321 -1.032537
 17   1.574674 0.609930 -0.000899 -0.102444 0.029876 0.164949
 18   -0.602177 0.511412 -0.000006 0.000000 0.000000 0.000000
 19   3.677679 0.177020 1.119313 -0.000002 -0.000014 -0.174510
 20   3.673767 0.176993 -1.117566 0.000007 -0.000003 -0.174546
 21   3.938451 1.330634 1.627658 0.000002 -0.000011 -0.000026
 22   -0.246060 -0.011889 0.516521 -0.000011 0.000031 0.000025
 23   3.942374 1.330659 -1.631083 0.000019 0.000002 -0.000024
 24   -0.246150 -0.011872 -0.516511 -0.000005 -0.000006 0.000048
 25   4.941364 1.997338 1.629330 0.000018 -0.000001 -0.000024
 26   4.941382 1.997366 -1.629410 -0.000001 0.000005 -0.000024
 27   2.918368 1.623171 1.514501 -0.000019 -0.000022 -0.000050
 28   2.920798 1.614964 -1.501142 -0.000002 -0.000009 -0.000024
 29   8.824059 0.150544 0.091743 0.006244 0.023388 -0.174480
 30   2.130617 -0.561179 1.745256 0.029784 0.109689 0.003026
 31   2.039256 -0.541757 -1.896569 0.016425 0.061594 0.000853
 32   -0.810489 -0.093824 3.127092 -0.011300 -3.117257 -0.752681
 33   14.298673 -0.408176 0.475484 0.031408 -0.017541 -0.680154
 34   15.835795 0.581398 0.242756 0.058948 -0.019986 0.141212
 35   -0.815868 -0.091229 -3.114430 -0.068638 3.162237 0.419578
 36   14.294526 -0.410349 -0.463635 -0.034088 0.016491 -0.719000
 37   15.834409 0.579420 -0.284600 0.063103 0.084966 -0.264422
 38   1.202187 -3.477187 -2.823813 -0.021702 -0.043466 0.024256
 39   -4.457742 -1.054854 -0.746180 -0.011194 -0.021416 0.000028
 40   1.055599 -3.430237 3.237290 -0.021386 -0.044285 0.032869
 41   -4.433840 -1.059130 0.959566 -0.010320 -0.014993 -0.025241
 42   -0.618404 1.685583 -2.477670 0.038231 0.081662 0.002927
 43   -0.664068 1.698578 2.943598 0.030798 0.066016 0.001589
time 4
  0   0.438745 -30.876631 2.574668 0.000000 0.000000 -1.571069
  1   -1.093036 0.000002 -0.326057 -0.214108 -1.569036 -1.356631
  2   2.262337 0.113614 0.064702 -0.098208 0.011842 0.118189
  3   2.380047 0.353302 0.047440 0.116783 -0.001778 0.085336
  4   2.033756 0.190472 -0.000128 0.134086 0.006184 -0.122576
  5   2.451511 0.204909 -0.003447 0.100442 0.006405 0.031539
  6   7.247600 -0.397300 -0.109469 -0.108915 0.002442 0.156386
  7   -2.022252 -0.104661 3.136172 -0.664098 -1.278151 -2.545159
  8   1.168026 -0.537438 -0.063437 0.751943 0.806001 0.570356
  9   6.790376 -0.619176 0.015206 -0.000324 0.023808 -1.032623
 10   8.637599 0.544015 -0.090417 -1.361398 -0.162029 0.048929
 11   6.790465 -0.619039 0.017802 0.002899 0.005518 -0.738036
 12   -2.022474 -0.104699 -2.873818 -0.589737 1.276759 -3.792663
 13   1.167898 -0.537463 0.063297 -0.150430 -0.954978 0.060565
 14   7.002743 -0.617765 -0.183752 0.048736 -0.081520 -1.515213
 15   8.209042 0.615527 -0.255885 1.559592 0.138621 -0.225101
 16   7.002735 -0.617911 -0.183641 0.035528 -0.057761 -1.078568
 17   1.574674 0.609930 -0.000899 -0.110649 0.032929 0.164284
 18   -0.602177 0.511412 -0.000006 0.000000 0.000000 0.000000
 19   3.673773 0.177020 1.119313 -0.000002 -0.000014 -0.174510
 20   3.673767 0.176993 -1.117566 0.000007 -0.000003 -0.174546
 21   3.938451 1.330634 1.627658 0.000002 -0.000011 -0.000026
 22   -0.246060 -0.011889 0.516521 -0.000011 0.000031 0.000025
 23   3.938468 1.330659 -1.631083 0.000019 0.000002 -0.000024
 24   -0.246150 -0.011872 -0.516511 -0.000005 -0.000006 0.000048
 25   4.941364 1.997338 1.629330 0.000018 -0.000001 -0.000024
 26   4.941382 1.997366 -1.629410 -0.000001 0.000005 -0.000024
 27   2.918368 1.615358 1.514501 -0.000019 -0.000022 -0.000050
 28   2.920798 1.614964 -1.501142 -0.000002 -0.000009 -0.000024
 29   8.824059 0.150544 0.091743 0.009275 0.034783 -0.174480
 30   2.142336 -0.568992 1.721818 0.044130 0.162811 0.004505
 31   1.996286 -0.530038 -1.927820 0.024362 0.091251 0.001290
 32   -0.810489 -0.093824 3.127092 -0.016800 -3.142565 -0.591080
 33   14.298673 -0.408176 0.475484 0.005377 -0.019777 -0.322227
 34   15.835795 0.581398 0.242756 0.006297 -0.017497 0.074484
 35   -0.815868 -0.091229 -3.114430 -0.058869 3.155304 0.345959
 36   14.294526 -0.410349 -0.463635 -0.052388 0.007850 -0.996615
 37   15.834409 0.579420 -0.284600 0.026299 0.139357 -0.416934
 38   1.241251 -3.492813 -2.823813 -0.032142 -0.064410 0.035986
 39   -4.457742 -1.054854 -0.746180 -0.016575 -0.031735 0.000168
 40   1.024348 -3.410705 3.237290 -0.031679 -0.065639 0.048631
 41   -4.433840 -1.059130 0.959566 -0.015269 -0.022207 -0.037413
 42   -0.594966 1.669957 -2.376104 0.056639 0.120974 0.004349
 43   -0.664068 1.698578 2.986568 0.045641 0.097807 0.002467
time 5
  0   0.591093 -38.575283 1.949649 0.000000 0.000000 -1.571069
  1   -1.093036 0.000002 -0.326057 -0.214108 -1.569036 -1.356631
  2   2.262337 0.113614 0.064702 -0.059536 0.008426 0.136513
  3   2.380047 0.353302 0.047440 0.083346 -0.007902 0.075215
  4   2.033756 0.190472 -0.000128 0.116363 0.005357 -0.139032
  5   2.451511 0.204909 -0.003447 0.087142 0.005570 0.031440
  6   7.247600 -0.397300 -0.109469 -0.094749 0.011071 0.156576
  7   -2.022252 -0.104661 3.136172 -0.637833 -1.302912 -2.571830
  8   1.168026 -0.537438 -0.063437 0.723720 0.857372 0.568332
  9   6.790376 -0.619176 0.015206 -0.000546 0.020605 -0.983116
 10   8.637599 0.544015 -0.090417 -1.368620 -0.215455 0.059419
 11   6.790465 -0.619039 0.017802 0.002140 0.003187 -0.703374
 12   -2.022474 -0.104699 -2.873818 -0.594911 1.316580 -3.799748
 13   1.167898 -0.537463 0.063297 -0.266064 -0.982235 0.139200
 14   7.002743 -0.617765 -0.183752 0.049077 -0.083905 -1.554733
 15   8.209042 0.615527 -0.255885 1.576633 0.048889 -0.236647
 16   7.002735 -0.617911 -0.183641 0.035010 -0.059565 -1.106219
 17   1.574674 0.609930 -0.000899 -0.105166 0.035769 0.163914
 18   -0.602177 0.511412 -0.000006 0.000000 0.000000 0.000000
 19   3.677679 0.184833 1.119313 -0.000002 -0.000014 -0.174510
 20   3.677673 0.184806 -1.117566 0.000007 -0.000003 -0.174546
 21   3.942357 1.338447 1.627658 0.000002 -0.000011 -0.000026
 22   -0.246060 -0.011889 0.516521 -0.000011 0.000031 0.000025
 23   3.942374 1.330659 -1.631083 0.000019 0.000002 -0.000024
 24   -0.246150 -0.011872 -0.516511 -0.000005 -0.000006 0.000048
 25   4.941364 1.997338 1.629330 0.000018 -0.000001 -0.000024
 26   4.941382 1.997366 -1.629410 -0.000001 0.000005 -0.000024
 27   2.918368 1.623171 1.514501 -0.000019 -0.000022 -0.000050
 28   2.924704 1.622777 -1.501142 -0.000002 -0.000009 -0.000024
 29   8.824059 0.150544 0.091743 0.011592 0.043566 -0.174373
 30   2.154055 -0.568992 1.710099 0.055196 0.203698 0.005642
 31   1.965035 -0.522225 -1.939539 0.030460 0.114070 0.001599
 32   -0.810489 -0.093824 3.127092 -0.025841 -3.158037 -0.583167
 33   14.298673 -0.408176 0.475484 0.011010 -0.020087 -0.399005
 34   15.835795 0.581398 0.242756 -0.004491 0.045001 0.159867
 35   -0.815868 -0.091229 -3.114430 -0.049187 3.154460 0.241008
 36   14.294526 -0.410349 -0.463635 -0.069742 -0.008234 -1.320731
 37   15.834409 0.579420 -0.284600 -0.007156 0.113608 -0.418303
 38   1.264689 -3.504532 -2.823813 -0.040183 -0.080534 0.045028
 39   -4.457742 -1.054854 -0.746180 -0.020709 -0.039681 0.000365
 40   1.004816 -3.406799 3.237290 -0.039593 -0.082052 0.060850
 41   -4.433840 -1.059130 0.959566 -0.019092 -0.027768 -0.046780
 42   -0.583247 1.666051 -2.297977 0.070805 0.151225 0.005437
 43   -0.664068 1.698578 3.017819 0.057048 0.122254 0.003178
time 6
  0   0.712190 -46.273930 1.168375 0.000000 0.000000 -1.571069
  1   -1.093036 0.000002 -0.326057 -0.214108 -1.569036 -1.356728
  2   2.262337 0.113614 0.064702 -0.015375 0.002242 0.150825
  3   2.380047 0.353302 0.047440 0.034547 -0.013750 0.071848
  4   2.033756 0.190472 -0.000128 0.083627 0.003835 -0.144723
  5   2.451511 0.204909 -0.003447 0.062665 0.003977 0.031242
  6   7.247600 -0.397300 -0.109469 -0.070396 0.018274 0.156766
  7   -2.022252 -0.104661 3.136172 -0.497017 -1.319718 -2.712607
  8   1.168026 -0.537438 -0.063437 0.627217 0.921925 0.516901
  9   6.790376 -0.619176 0.015206 -0.002044 0.018669 -0.960325
 10   8.637599 0.544015 -0.090417 -1.371614 -0.232771 0.064555
 11   6.790465 -0.619039 0.017802 0.000768 0.002050 -0.687283
 12   -2.022474 -0.104699 -2.873818 -0.481859 1.345923 -3.687731
 13   1.167898 -0.537463 0.063297 -0.423944 -0.984167 0.234845
 14   7.002743 -0.617765 -0.183752 0.046743 -0.084700 -1.552258
 15   8.209042 0.615527 -0.255885 1.587778 -0.001803 -0.240496
 16   7.002735 -0.617911 -0.183641 0.033127 -0.059791 -1.104508
 17   1.574674 0.609930 -0.000899 -0.085384 0.032432 0.164469
 18   -0.602177 0.511412 -0.000006 0.000000 0.000000 0.000000
 19   3.673773 0.177020 1.119313 -0.000002 -0.000014 -0.174510
 20   3.673767 0.176993 -1.117566 0.000007 -0.000003 -0.174546
 21   3.938451 1.330634 1.627658 0.000002 -0.000011 -0.000026
 22   -0.246060 -0.011889 0.516521 -0.000011 0.000031 0.000025
 23   3.938468 1.330659 -1.631083 0.000019 0.000002 -0.000024
 24   -0.246150 -0.011872 -0.516511 -0.000005 -0.000006 0.000048
 25   4.941364 1.997338 1.629330 0.000018 -0.000001 -0.000024
 26   4.941382 1.997366 -1.629410 -0.000001 0.000005 -0.000024
 27   2.918368 1.623171 1.514501 -0.000019 -0.000022 -0.000050
 28   2.920798 1.622777 -1.501142 -0.000002 -0.000009 -0.000024
 29   8.824059 0.150544 0.091743 0.012483 0.047031 -0.174373
 30   2.154055 -0.568992 1.702286 0.059603 0.220059 0.006071
 31   1.953316 -0.522225 -1.947352 0.032881 0.123187 0.001745
 32   -0.810489 -0.093824 3.127092 -0.035069 -3.162335 -0.630185
 33   14.298673 -0.408176 0.475484 0.034512 -0.016624 -0.725093
 34   15.835795 0.581398 0.242756 -0.005779 0.106279 0.250366
 35   -0.815868 -0.091229 -3.114430 -0.028592 3.147527 0.017029
 36   14.294526 -0.410349 -0.463635 -0.081978 -0.035139 -1.699922
 37   15.834409 0.579420 -0.284600 -0.028119 0.051539 -0.344024
 38   1.276408 -3.508438 -2.823813 -0.043382 -0.086969 0.048754
 39   -4.457742 -1.054854 -0.746180 -0.022375 -0.042857 0.000617
 40   0.993097 -3.398986 3.237290 -0.042772 -0.088595 0.065738
 41   -4.433840 -1.059130 0.959566 -0.020626 -0.029985 -0.050510
 42   -0.575434 1.666051 -2.266726 0.076474 0.163322 0.005855
 43   -0.664068 1.698578 3.025632 0.061621 0.132030 0.003764
time 7
  0   0.907508 -53.972580 0.785551 0.000000 0.000000 -1.571069
  1   -1.093036 0.000002 -0.326057 -0.214055 -1.569036 -1.356825
  2   2.262337 0.113614 0.064702 0.030085 -0.005656 0.151747
  3   2.380047 0.353302 0.047440 -0.022982 -0.019012 0.078296
  4   2.033756 0.190472 -0.000128 0.035732 0.001642 -0.135045
  5   2.451511 0.204909 -0.003447 0.026788 0.001692 0.031118
  6   7.247600 -0.397300 -0.109469 -0.030548 0.023211 0.156829
  7   -2.022252 -0.104661 3.136172 -0.227560 -1.319084 -2.980730
  8   1.168026 -0.537438 -0.063437 0.441616 0.971535 0.380322
  9   6.790376 -0.619176 0.015206 -0.011587 0.017068 -0.968551
 10   8.637599 0.544015 -0.090417 -1.372583 -0.234531 0.061951
 11   6.790465 -0.619039 0.017802 -0.006327 0.001794 -0.693050
 12   -2.022474 -0.104699 -2.873818 -0.203827 1.356894 -3.410178
 13   1.167898 -0.537463 0.063297 -0.593072 -0.963369 0.326131
 14   7.002743 -0.617765 -0.183752 0.033421 -0.087936 -1.522886
 15   8.209042 0.615527 -0.255885 1.590726 -0.013152 -0.232979
 16   7.002735 -0.617911 -0.183641 0.023289 -0.059847 -1.083977
 17   1.574674 0.609930 -0.000899 -0.046429 0.020149 0.165134
 18   -0.602177 0.511412 -0.000006 0.000000 0.000000 0.000000
 19   3.673773 0.177020 1.119313 -0.000002 -0.000014 -0.174510
 20   3.673767 0.176993 -1.117566 0.000007 -0.000003 -0.174546
 21   3.942357 1.330634 1.627658 0.000002 -0.000011 -0.000026
 22   -0.246060 -0.011889 0.516521 -0.000011 0.000031 0.000025
 23   3.942374 1.330659 -1.631083 0.000019 0.000002 -0.000024
 24   -0.246150 -0.011872 -0.516511 -0.000005 -0.000006 0.000048
 25   4.941364 1.997338 1.629330 0.000018 -0.000001 -0.000024
 26   4.941382 1.997366 -1.629410 -0.000001 0.000005 -0.000024
 27   2.918368 1.615358 1.514501 -0.000019 -0.000022 -0.000050
 28   2.920798 1.614964 -1.501142 -0.000002 -0.000009 -0.000024
 29   8.824059 0.150544 0.091743 0.009898 0.037512 -0.174480
 30   2.142336 -0.568992 1.714005 0.052145 0.192946 0.005578
 31   1.965035 -0.522225 -1.927820 0.027610 0.103917 0.001545
 32   -0.810489 -0.093824 3.127092 -0.073005 -3.146767 -0.524708
 33   14.298673 -0.408176 0.475484 0.045526 -0.012074 -0.887780
 34   15.835795 0.581398 0.242756 0.023134 0.137418 0.312859
 35   -0.815868 -0.091229 -3.114430 -0.024191 3.133662 -0.349368
 36   14.294526 -0.410349 -0.463635 -0.085322 -0.054997 -2.012606
 37   15.834409 0.579420 -0.284600 -0.071169 -0.010504 -0.301131
 38   1.245157 -3.492813 -2.823813 -0.035741 -0.073834 0.048938
 39   -4.457742 -1.054854 -0.746180 -0.019942 -0.040712 0.007685
 40   1.024348 -3.410705 3.237290 -0.035615 -0.074231 0.057551
 41   -4.433840 -1.059130 0.959566 -0.018038 -0.023981 -0.050510
 42   -0.583247 1.666051 -2.309696 0.066203 0.141550 0.005646
 43   -0.664068 1.698578 2.986568 0.050439 0.108493 0.004015
time 8
  0   1.055950 -61.667324 0.723049 0.000000 0.000000 -1.571069
  1   -1.093036 0.000002 -0.326057 -0.214003 -1.569036 -1.356873
  2   2.262337 0.113614 0.064702 0.073418 -0.012032 0.136242
  3   2.380047 0.353302 0.047440 -0.076100 -0.020929 0.092335
  4   2.033756 0.190472 -0.000128 -0.020998 -0.000947 -0.112753
  5   2.451511 0.204909 -0.003447 -0.015748 -0.000984 0.031118
  6   7.247600 -0.397300 -0.109469 0.016743 0.025117 0.156829
  7   -2.022252 -0.104661 3.136172 0.060589 -1.285098 -3.266039
  8   1.168026 -0.537438 -0.063437 0.235891 0.970730 0.198385
  9   6.790376 -0.619176 0.015206 -0.024347 0.016534 -1.013379
 10   8.637599 0.544015 -0.090417 -1.372142 -0.231152 0.055512
 11   6.790465 -0.619039 0.017802 -0.014911 0.002846 -0.724483
 12   -2.022474 -0.104699 -2.873818 0.121822 1.328596 -3.085041
 13   1.167898 -0.537463 0.063297 -0.724803 -0.901836 0.404645
 14   7.002743 -0.617765 -0.183752 0.016455 -0.091798 -1.487161
 15   8.209042 0.615527 -0.255885 1.591517 -0.012017 -0.220470
 16   7.002735 -0.617911 -0.183641 0.011002 -0.060016 -1.059140
 17   1.574674 0.609930 -0.000899 0.006256 0.001310 0.166280
 18   -0.602177 0.511412 -0.000006 0.000000 0.000000 0.000000
 19   3.673773 0.177020 1.119313 -0.000002 -0.000014 -0.174510
 20   3.673767 0.184806 -1.117566 0.000007 -0.000003 -0.174546
 21   3.938451 1.330634 1.627658 0.000002 -0.000011 -0.000026
 22   -0.246060 -0.011889 0.516521 -0.000011 0.000031 0.000025
 23   3.938468 1.338472 -1.631083 0.000019 0.000002 -0.000024
 24   -0.246150 -0.011872 -0.516511 -0.000005 -0.000006 0.000048
 25   4.941364 1.997338 1.629330 0.000018 -0.000001 -0.000024
 26   4.941382 1.997366 -1.629410 -0.000001 0.000005 -0.000024
 27   2.918368 1.623171 1.514501 -0.000019 -0.000022 -0.000050
 28   2.920798 1.614964 -1.501142 -0.000002 -0.000009 -0.000024
 29   8.824059 0.150544 0.091743 0.003393 0.013679 -0.174588
 30   2.111085 -0.561179 1.753069 0.033540 0.125149 0.004334
 31   1.996286 -0.530038 -1.873131 0.014449 0.055766 0.001035
 32   -0.810489 -0.093824 3.127092 -0.012605 -3.176183 -0.257687
 33   14.298673 -0.408176 0.475484 0.038658 -0.015163 -0.785674
 34   15.835795 0.581398 0.242756 -0.018798 0.152158 0.475157
 35   -0.815868 -0.091229 -3.114430 -0.047603 3.134880 -0.706671
 36   14.294526 -0.410349 -0.463635 -0.084710 -0.062500 -2.114337
 37   15.834409 0.579420 -0.284600 -0.134630 -0.014523 -0.300472
 38   1.170936 -3.461562 -2.816000 -0.016650 -0.040984 0.049060
 39   -4.457742 -1.054854 -0.746180 -0.013866 -0.035175 0.024708
 40   1.090756 -3.449769 3.237290 -0.017723 -0.038272 0.037329
 41   -4.433840 -1.059130 0.959566 -0.011542 -0.008952 -0.050454
 42   -0.594966 1.669957 -2.426887 0.040496 0.087151 0.005019
 43   -0.664068 1.698578 2.869377 0.022552 0.049665 0.004224
time 9
  0   1.052043 -69.365967 0.965244 0.000000 0.000000 -1.571069
  1   -1.093036 0.000002 -0.326057 -0.213951 -1.569036 -1.356873
  2   2.262337 0.113614 0.064702 0.110140 -0.014908 0.112858
  3   2.380047 0.353302 0.047440 -0.114263 -0.018664 0.106313
  4   2.033756 0.190472 -0.000128 -0.073725 -0.003404 -0.090244
  5   2.451511 0.204909 -0.003447 -0.055219 -0.003504 0.031242
  6   7.247600 -0.397300 -0.109469 0.061578 0.023451 0.156829
  7   -2.022252 -0.104661 3.136172 0.258535 -1.233037 -3.459877
  8   1.168026 -0.537438 -0.063437 0.114899 0.932642 0.055796
  9   6.790376 -0.619176 0.015206 -0.029895 0.018936 -1.086054
 10   8.637599 0.544015 -0.090417 -1.371614 -0.231434 0.050665
 11   6.790465 -0.619039 0.017802 -0.018181 0.005404 -0.775237
 12   -2.022474 -0.104699 -2.873818 0.335088 1.273944 -2.872208
 13   1.167898 -0.537463 0.063297 -0.777313 -0.810098 0.462637
 14   7.002743 -0.617765 -0.183752 0.008541 -0.092082 -1.445331
 15   8.209042 0.615527 -0.255885 1.591014 -0.006267 -0.211390
 16   7.002735 -0.617911 -0.183641 0.005777 -0.059058 -1.029943
 17   1.574674 0.609930 -0.000899 0.059346 -0.015423 0.166575
 18   -0.602177 0.511412 -0.000006 0.000000 0.000000 0.000000
 19   3.673773 0.184833 1.119313 -0.000002 -0.000014 -0.174510
 20   3.673767 0.176993 -1.117566 0.000007 -0.000003 -0.174546
 21   3.942357 1.338447 1.627658 0.000002 -0.000011 -0.000026
 22   -0.246060 -0.011889 0.516521 -0.000011 0.000031 0.000025
 23   3.938468 1.338472 -1.631083 0.000019 0.000002 -0.000024
 24   -0.246150 -0.011872 -0.516511 -0.000005 -0.000006 0.000048
 25   4.941364 1.997338 1.629330 0.000018 -0.000001 -0.000024
 26   4.941382 1.997366 -1.629410 -0.000001 0.000005 -0.000024
 27   2.918368 1.623171 1.514501 -0.000019 -0.000022 -0.000050
 28   2.924704 1.622777 -1.501142 -0.000002 -0.000009 -0.000024
 29   8.824059 0.150544 0.091743 -0.004985 -0.017204 -0.174910
 30   2.079834 -0.561179 1.803852 0.009349 0.037009 0.002683
 31   2.039256 -0.541757 -1.814535 -0.002651 -0.006838 0.000380
 32   -0.810489 -0.093824 3.127092 0.014146 -3.177520 0.075421
 33   14.298673 -0.408176 0.475484 0.020034 -0.019596 -0.520802
 34   15.835795 0.581398 0.242756 -0.022341 0.126949 0.398550
 35   -0.815868 -0.091229 -3.114430 -0.054380 3.132444 -0.981537
 36   14.294526 -0.410349 -0.463635 -0.085310 -0.052109 -1.971744
 37   15.834409 0.579420 -0.284600 -0.118750 -0.003209 -0.322071
 38   1.081089 -3.422498 -2.816000 0.008167 0.001687 0.049121
 39   -4.457742 -1.054854 -0.746180 -0.005956 -0.027648 0.046752
 40   1.180603 -3.481020 3.229477 0.005473 0.008461 0.010936
 41   -4.433840 -1.059130 0.959566 -0.003117 0.010558 -0.050286
 42   -0.618404 1.685583 -2.575329 0.007095 0.016423 0.004098
 43   -0.656255 1.698578 2.724841 -0.013694 -0.026768 0.004349
time 10
  0   0.907507 -77.064621 1.480885 0.000000 0.000000 -1.571069
  1   -1.093036 0.000002 -0.326057 -0.213898 -1.569036 -1.356970
  2   2.262337 0.113614 0.064702 0.134723 -0.015196 0.094209
  3   2.380047 0.353302 0.047440 -0.135054 -0.014338 0.112659
  4   2.033756 0.190472 -0.000128 -0.111846 -0.005117 -0.079768
  5   2.451511 0.204909 -0.003447 -0.083787 -0.005319 0.031415
  6   7.247600 -0.397300 -0.109469 0.091563 0.019939 0.156671
  7   -2.022252 -0.104661 3.136172 0.366855 -1.199195 -3.565529
  8   1.168026 -0.537438 -0.063437 0.096168 0.907837 -0.028530
  9   6.790376 -0.619176 0.015206 -0.025512 0.025010 -1.167332
 10   8.637599 0.544015 -0.090417 -1.370029 -0.235798 0.046686
 11   6.790465 -0.619039 0.017802 -0.013918 0.009355 -0.832162
 12   -2.022474 -0.104699 -2.873818 0.443638 1.233630 -2.764691
 13   1.167898 -0.537463 0.063297 -0.758263 -0.742921 0.522990
 14   7.002743 -0.617765 -0.183752 0.013608 -0.086630 -1.392610
 15   8.209042 0.615527 -0.255885 1.590726 0.000921 -0.200986
 16   7.002735 -0.617911 -0.183641 0.010767 -0.056069 -0.993074
 17   1.574674 0.609930 -0.000899 0.094157 -0.024582 0.166391
 18   -0.602177 0.511412 -0.000006 0.000000 0.000000 0.000000
 19   3.677679 0.184833 1.119313 -0.000002 -0.000014 -0.174510
 20   3.677673 0.176993 -1.117566 0.000007 -0.000003 -0.174546
 21   3.942357 1.330634 1.627658 0.000002 -0.000011 -0.000026
 22   -0.246060 -0.011889 0.516521 -0.000011 0.000031 0.000025
 23   3.942374 1.330659 -1.631083 0.000019 0.000002 -0.000024
 24   -0.246150 -0.011872 -0.516511 -0.000005 -0.000006 0.000048
 25   4.941364 1.997338 1.629330 0.000018 -0.000001 -0.000024
 26   4.941382 1.997366 -1.629410 -0.000001 0.000005 -0.000024
 27   2.918368 1.623171 1.514501 -0.000019 -0.000022 -0.000050
 28   2.924704 1.622777 -1.501142 -0.000002 -0.000009 -0.000024
 29   8.824059 0.150544 0.091743 -0.013451 -0.048182 -0.175231
 30   2.040770 -0.549460 1.854635 -0.014816 -0.051072 0.001075
 31   2.082226 -0.561289 -1.740314 -0.019796 -0.069468 -0.000239
 32   -0.810489 -0.093824 3.127092 0.072681 -3.177042 0.404090
 33   14.298673 -0.408176 0.475484 -0.002197 -0.018679 -0.216707
 34   15.835795 0.581398 0.242756 -0.061835 0.065500 0.105709
 35   -0.815868 -0.091229 -3.114430 -0.053940 3.106304 -0.985645
 36   14.294526 -0.410349 -0.463635 -0.078586 -0.022579 -1.555167
 37   15.834409 0.579420 -0.284600 -0.103993 -0.029496 -0.092695
 38   0.983430 -3.379528 -2.816000 0.033026 0.044382 0.049121
 39   -4.457742 -1.054854 -0.746180 0.001918 -0.019559 0.068712
 40   1.274356 -3.523990 3.229477 0.028711 0.055217 -0.015335
 41   -4.433840 -1.059130 0.959566 0.005284 0.030093 -0.050006
 42   -0.637936 1.697302 -2.719865 -0.026282 -0.054290 0.003137
 43   -0.644536 1.698578 2.576399 -0.049964 -0.103232 0.004349
time 11
  0   0.677031 -84.763268 2.277784 0.000000 0.000000 -1.571069
  1   -1.093036 0.000002 -0.326057 -0.213846 -1.569036 -1.356970
  2   2.262337 0.113614 0.064702 0.141321 -0.015903 0.093486
  3   2.380047 0.353302 0.047440 -0.140979 -0.008489 0.107823
  4   2.033756 0.190472 -0.000128 -0.133018 -0.006100 -0.087453
  5   2.451511 0.204909 -0.003447 -0.099689 -0.006350 0.031539
  6   7.247600 -0.397300 -0.109469 0.102266 0.016716 0.156576
  7   -2.022252 -0.104661 3.136172 0.427725 -1.204730 -3.627043
  8   1.168026 -0.537438 -0.063437 0.134959 0.924139 -0.076861
  9   6.790376 -0.619176 0.015206 -0.017024 0.032485 -1.244611
 10   8.637599 0.544015 -0.090417 -1.365978 -0.237980 0.036196
 11   6.790465 -0.619039 0.017802 -0.006619 0.013761 -0.886261
 12   -2.022474 -0.104699 -2.873818 0.507733 1.232005 -2.700640
 13   1.167898 -0.537463 0.063297 -0.702661 -0.734784 0.590910
 14   7.002743 -0.617765 -0.183752 0.024824 -0.077261 -1.314312
 15   8.209042 0.615527 -0.255885 1.595975 0.017490 -0.113005
 16   7.002735 -0.617911 -0.183641 0.020935 -0.051107 -0.938378
 17   1.574674 0.609930 -0.000899 0.112640 -0.029363 0.165541
 18   -0.602177 0.511412 -0.000006 0.000000 0.000000 0.000000
 19   3.673773 0.177020 1.119313 -0.000002 -0.000014 -0.174510
 20   3.677673 0.176993 -1.117566 0.000007 -0.000003 -0.174546
 21   3.942357 1.330634 1.627658 0.000002 -0.000011 -0.000026
 22   -0.246060 -0.011889 0.516521 -0.000011 0.000031 0.000025
 23   3.942374 1.330659 -1.631083 0.000019 0.000002 -0.000024
 24   -0.246150 -0.011872 -0.516511 -0.000005 -0.000006 0.000048
 25   4.941364 1.997338 1.629330 0.000018 -0.000001 -0.000024
 26   4.941382 1.997366 -1.629410 -0.000001 0.000005 -0.000024
 27   2.918368 1.623171 1.514501 -0.000019 -0.000022 -0.000050
 28   2.920798 1.622777 -1.501142 -0.000002 -0.000009 -0.000024
 29   8.824059 0.150544 0.091743 -0.020046 -0.072015 -0.175500
 30   2.009519 -0.541647 1.889792 -0.033434 -0.118870 -0.000148
 31   2.113477 -0.561289 -1.685625 -0.032988 -0.117618 -0.000730
 32   -0.810489 -0.093824 3.127092 0.080418 -3.180290 0.453270
 33   14.298673 -0.408176 0.475484 0.014210 -0.020061 -0.442039
 34   15.835795 0.581398 0.242756 -0.079201 0.003002 -0.039433
 35   -0.815868 -0.091229 -3.114430 -0.045403 3.095249 -0.844378
 36   14.294526 -0.410349 -0.463635 -0.053574 0.007143 -1.017934
 37   15.834409 0.579420 -0.284600 -0.084862 0.017344 0.111685
 38   0.917022 -3.340464 -2.816000 0.052139 0.077232 0.049121
 39   -4.457742 -1.054854 -0.746180 0.008006 -0.012236 0.085568
 40   1.348577 -3.563054 3.229477 0.046582 0.091176 -0.035557
 41   -4.433840 -1.059130 0.959566 0.011792 0.045134 -0.049501
 42   -0.657468 1.697302 -2.837056 -0.051989 -0.108704 0.002175
 43   -0.636723 1.698578 2.459208 -0.077851 -0.162028 0.004391
time 12
  0   0.438742 -92.461914 2.801238 0.000000 0.000000 -1.571069
  1   -1.093036 0.000002 -0.326057 -0.213741 -1.569036 -1.356970
  2   2.262337 0.113614 0.064702 0.126151 -0.016202 0.103696
  3   2.380047 0.353302 0.047440 -0.134229 -0.001886 0.097416
  4   2.033756 0.190472 -0.000128 -0.139473 -0.006436 -0.104815
  5   2.451511 0.204909 -0.003447 -0.104430 -0.006637 0.031539
  6   7.247600 -0.397300 -0.109469 0.102925 0.012605 0.156576
  7   -2.022252 -0.104661 3.136172 0.477954 -1.237419 -3.679259
  8   1.168026 -0.537438 -0.063437 0.199378 0.960164 -0.102735
  9   6.790376 -0.619176 0.015206 -0.010033 0.039359 -1.314192
 10   8.637599 0.544015 -0.090417 -1.330047 -0.229885 -0.082738
 11   6.790465 -0.619039 0.017802 0.000067 0.017769 -0.934939
 12   -2.022474 -0.104699 -2.873818 0.562343 1.255108 -2.646164
 13   1.167898 -0.537463 0.063297 -0.646215 -0.764483 0.639096
 14   7.002743 -0.617765 -0.183752 0.034901 -0.067210 -1.215966
 15   8.209042 0.615527 -0.255885 1.602087 0.057817 -0.037533
 16   7.002735 -0.617911 -0.183641 0.030303 -0.045299 -0.869442
 17   1.574674 0.609930 -0.000899 0.129213 -0.033670 0.164653
 18   -0.602177 0.511412 -0.000006 0.000000 0.000000 0.000000
 19   3.677679 0.177020 1.119313 -0.000002 -0.000014 -0.174510
 20   3.673767 0.176993 -1.117566 0.000007 -0.000003 -0.174546
 21   3.938451 1.330634 1.627658 0.000002 -0.000011 -0.000026
 22   -0.246060 -0.011889 0.516521 -0.000011 0.000031 0.000025
 23   3.942374 1.330659 -1.631083 0.000019 0.000002 -0.000024
 24   -0.246150 -0.011872 -0.516511 -0.000005 -0.000006 0.000048
 25   4.941364 1.997338 1.629330 0.000018 -0.000001 -0.000024
 26   4.941382 1.997366 -1.629410 -0.000001 0.000005 -0.000024
 27   2.918368 1.615358 1.514501 -0.000019 -0.000022 -0.000050
 28   2.924704 1.614964 -1.501142 -0.000002 -0.000009 -0.000024
 29   8.824059 0.150544 0.091743 -0.022631 -0.081534 -0.175607
 30   1.997800 -0.533834 1.909324 -0.040865 -0.145983 -0.000641
 31   2.121290 -0.561289 -1.666093 -0.038259 -0.136915 -0.000930
 32   -0.810489 -0.093824 3.127092 0.063547 -3.180003 0.396690
 33   14.298673 -0.408176 0.475484 0.035554 -0.016275 -0.739623
 34   15.835795 0.581398 0.242756 -0.055901 -0.074016 -0.262019
 35   -0.815868 -0.091229 -3.114430 -0.022871 3.104524 -0.742988
 36   14.294526 -0.410349 -0.463635 -0.028275 0.018109 -0.638743
 37   15.834409 0.579420 -0.284600 -0.023883 0.049107 0.110975
 38   0.885771 -3.328745 -2.816000 0.059779 0.090367 0.049121
 39   -4.457742 -1.054854 -0.746180 0.010439 -0.007119 0.092327
 40   1.372015 -3.574773 3.229477 0.053717 0.105540 -0.043744
 41   -4.433840 -1.059130 0.959566 0.014381 0.051126 -0.048744
 42   -0.657468 1.697302 -2.880026 -0.062272 -0.130476 0.001296
 43   -0.632817 1.698578 2.416238 -0.089008 -0.185581 0.004391
time 13
  0   0.231704 -100.160568 2.730923 0.000000 0.000000 -1.571069
  1   -1.093036 0.000002 -0.326057 -0.213636 -1.569036 -1.357067
  2   2.262337 0.113614 0.064702 0.095492 -0.014800 0.118984
  3   2.380047 0.353302 0.047440 -0.113333 0.004490 0.085948
  4   2.033756 0.190472 -0.000128 -0.133442 -0.006112 -0.124062
  5   2.451511 0.204909 -0.003447 -0.099980 -0.006376 0.031539
  6   7.247600 -0.397300 -0.109469 0.095015 0.007068 0.156576
  7   -2.022252 -0.104661 3.136172 0.516777 -1.285588 -3.721050
  8   1.168026 -0.537438 -0.063437 0.277909 0.993321 -0.104696
  9   6.790376 -0.619176 0.015206 -0.007037 0.043764 -1.369585
 10   8.637599 0.544015 -0.090417 -1.314548 -0.176318 -0.160074
 11   6.790465 -0.619039 0.017802 0.003191 0.020697 -0.973638
 12   -2.022474 -0.104699 -2.873818 0.600474 1.291242 -2.608250
 13   1.167898 -0.537463 0.063297 -0.623017 -0.808623 0.663673
 14   7.002743 -0.617765 -0.183752 0.039285 -0.060225 -1.129665
 15   8.209042 0.615527 -0.255885 1.604100 0.132871 -0.021536
 16   7.002735 -0.617911 -0.183641 0.034822 -0.040957 -0.809227
 17   1.574674 0.609930 -0.000899 0.138596 -0.036084 0.163692
 18   -0.602177 0.511412 -0.000006 0.000000 0.000000 0.000000
 19   3.673773 0.184833 1.119313 -0.000002 -0.000014 -0.174510
 20   3.673767 0.184806 -1.117566 0.000007 -0.000003 -0.174546
 21   3.942357 1.338447 1.627658 0.000002 -0.000011 -0.000026
 22   -0.246060 -0.011889 0.516521 -0.000011 0.000031 0.000025
 23   3.938468 1.330659 -1.631083 0.000019 0.000002 -0.000024
 24   -0.246150 -0.011872 -0.516511 -0.000005 -0.000006 0.000048
 25   4.941364 1.997338 1.629330 0.000018 -0.000001 -0.000024
 26   4.941382 1.997366 -1.629410 -0.000001 0.000005 -0.000024
 27   2.918368 1.623171 1.514501 -0.000019 -0.000022 -0.000050
 28   2.920798 1.622777 -1.501142 -0.000002 -0.000009 -0.000024
 29   8.824059 0.150544 0.091743 -0.020937 -0.075480 -0.175500
 30   2.009519 -0.541647 1.897605 -0.037841 -0.135231 -0.000598
 31   2.121290 -0.561289 -1.677812 -0.035409 -0.126762 -0.000839
 32   -0.810489 -0.093824 3.127092 0.024958 -3.159374 0.299865
 33   14.298673 -0.408176 0.475484 0.055425 -0.005922 -1.045941
 34   15.835795 0.581398 0.242756 -0.004169 -0.104350 -0.414702
 35   -0.815868 -0.091229 -3.114430 -0.003508 3.124855 -0.606596
 36   14.294526 -0.410349 -0.463635 -0.006319 0.019691 -0.336719
 37   15.834409 0.579420 -0.284600 0.030870 0.056812 0.077207
 38   0.905303 -3.340464 -2.816000 0.055338 0.083667 0.045455
 39   -4.457742 -1.054854 -0.746180 0.009660 -0.004123 0.085483
 40   1.356390 -3.566960 3.229477 0.049739 0.097719 -0.040506
 41   -4.433840 -1.059130 0.959566 0.013314 0.047339 -0.044509
 42   -0.657468 1.697302 -2.868307 -0.057658 -0.120817 0.000753
 43   -0.636723 1.698578 2.447489 -0.082436 -0.171835 0.004098
time 14
  0   0.087168 -107.859215 2.098091 0.000000 0.000000 -1.571069
  1   -1.093036 0.000002 -0.326057 -0.213584 -1.569036 -1.357067
  2   2.262337 0.113614 0.064702 0.054872 -0.010845 0.134959
  3   2.380047 0.353302 0.047440 -0.076235 0.009703 0.076827
  4   2.033756 0.190472 -0.000128 -0.113137 -0.005189 -0.139576
  5   2.451511 0.204909 -0.003447 -0.084780 -0.005397 0.031415
  6   7.247600 -0.397300 -0.109469 0.078212 0.000033 0.156766
  7   -2.022252 -0.104661 3.136172 0.497893 -1.329375 -3.704146
  8   1.168026 -0.537438 -0.063437 0.380993 1.019585 -0.066044
  9   6.790376 -0.619176 0.015206 -0.006316 0.045499 -1.390188
 10   8.637599 0.544015 -0.090417 -1.324675 -0.083825 -0.174543
 11   6.790465 -0.619039 0.017802 0.004242 0.021720 -0.988115
 12   -2.022474 -0.104699 -2.873818 0.561864 1.322037 -2.647121
 13   1.167898 -0.537463 0.063297 -0.595743 -0.859781 0.656530
 14   7.002743 -0.617765 -0.183752 0.040082 -0.056421 -1.071994
 15   8.209042 0.615527 -0.255885 1.605538 0.185984 -0.013838
 16   7.002735 -0.617911 -0.183641 0.036187 -0.038307 -0.768881
 17   1.574674 0.609930 -0.000899 0.136565 -0.035445 0.163027
 18   -0.602177 0.511412 -0.000006 0.000000 0.000000 0.000000
 19   3.673773 0.177020 1.119313 -0.000002 -0.000014 -0.174510
 20   3.673767 0.176993 -1.117566 0.000007 -0.000003 -0.174546
 21   3.938451 1.330634 1.627658 0.000002 -0.000011 -0.000026
 22   -0.246060 -0.011889 0.516521 -0.000011 0.000031 0.000025
 23   3.938468 1.330659 -1.631083 0.000019 0.000002 -0.000024
 24   -0.246150 -0.011872 -0.516511 -0.000005 -0.000006 0.000048
 25   4.941364 1.997338 1.629330 0.000018 -0.000001 -0.000024
 26   4.941382 1.997366 -1.629410 -0.000001 0.000005 -0.000024
 27   2.918368 1.615358 1.514501 -0.000019 -0.000022 -0.000050
 28   2.920798 1.614964 -1.501142 -0.000002 -0.000009 -0.000024
 29   8.824059 0.150544 0.091743 -0.016749 -0.060431 -0.175339
 30   2.029051 -0.541647 1.878073 -0.030261 -0.108321 -0.000448
 31   2.121290 -0.561289 -1.716876 -0.028315 -0.101430 -0.000675
 32   -0.810489 -0.093824 3.127092 -0.012232 -3.131582 0.202699
 33   14.298673 -0.408176 0.475484 0.071556 0.010389 -1.360119
 34   15.835795 0.581398 0.242756 0.050184 -0.036849 -0.426080
 35   -0.815868 -0.091229 -3.114430 0.011895 3.141438 -0.583152
 36   14.294526 -0.410349 -0.463635 -0.010490 0.019894 -0.393570
 37   15.834409 0.579420 -0.284600 0.052976 0.039714 0.162742
 38   0.952179 -3.359996 -2.816000 0.044266 0.066941 0.036352
 39   -4.457742 -1.054854 -0.746180 0.007718 -0.002097 0.068376
 40   1.305607 -3.543522 3.229477 0.039804 0.078173 -0.032319
 41   -4.433840 -1.059130 0.959566 0.010641 0.037871 -0.035310
 42   -0.657468 1.697302 -2.829243 -0.046129 -0.096653 0.000335
 43   -0.644536 1.698578 2.533429 -0.065944 -0.137455 0.003220
time 15
  0   -0.049555 -115.561775 1.144937 0.000000 0.000000 -1.571069
  1   -1.093036 0.000002 -0.326057 -0.213584 -1.569036 -1.357115
  2   2.262337 0.113614 0.064702 0.009310 -0.004374 0.149036
  3   2.380047 0.353302 0.047440 -0.024962 0.015228 0.073113
  4   2.033756 0.190472 -0.000128 -0.076768 -0.003511 -0.146282
  5   2.451511 0.204909 -0.003447 -0.057564 -0.003648 0.031242
  6   7.247600 -0.397300 -0.109469 0.050360 -0.008153 0.156829
  7   -2.022252 -0.104661 3.136172 0.354106 -1.358980 -3.561021
  8   1.168026 -0.537438 -0.063437 0.531411 1.035686 0.021129
  9   6.790376 -0.619176 0.015206 -0.003819 0.045566 -1.380679
 10   8.637599 0.544015 -0.090417 -1.332073 -0.031314 -0.179607
 11   6.790465 -0.619039 0.017802 0.005935 0.021493 -0.981425
 12   -2.022474 -0.104699 -2.873818 0.390177 1.336491 -2.818210
 13   1.167898 -0.537463 0.063297 -0.499370 -0.919686 0.594482
 14   7.002743 -0.617765 -0.183752 0.041562 -0.054263 -1.045262
 15   8.209042 0.615527 -0.255885 1.607336 0.203385 -0.009809
 16   7.002735 -0.617911 -0.183641 0.037741 -0.037010 -0.750281
 17   1.574674 0.609930 -0.000899 0.116417 -0.030144 0.163545
 18   -0.602177 0.511412 -0.000006 0.000000 0.000000 0.000000
 19   3.677679 0.184833 1.119313 -0.000002 -0.000014 -0.174510
 20   3.677673 0.184806 -1.117566 0.000007 -0.000003 -0.174546
 21   3.942357 1.338447 1.627658 0.000002 -0.000011 -0.000026
 22   -0.246060 -0.011889 0.516521 -0.000011 0.000031 0.000025
 23   3.942374 1.338472 -1.631083 0.000019 0.000002 -0.000024
 24   -0.246150 -0.011872 -0.516511 -0.000005 -0.000006 0.000048
 25   4.941364 1.997338 1.629330 0.000018 -0.000001 -0.000024
 26   4.941382 1.997366 -1.629410 -0.000001 0.000005 -0.000024
 27   2.922274 1.623171 1.514501 -0.000019 -0.000022 -0.000050
 28   2.924704 1.622777 -1.501142 -0.000002 -0.000009 -0.000024
 29   8.824059 0.150544 0.091743 -0.011312 -0.040847 -0.175017
 30   2.060302 -0.553366 1.846822 -0.020430 -0.073332 -0.000298
 31   2.121290 -0.561289 -1.759846 -0.019122 -0.068432 -0.000457
 32   -0.810489 -0.093824 3.127092 -0.032179 -3.111622 0.003757
 33   14.298673 -0.408176 0.475484 0.082810 0.033924 -1.717490
 34   15.835795 0.581398 0.242756 0.072404 0.045001 -0.352429
 35   -0.815868 -0.091229 -3.114430 0.023161 3.146310 -0.636887
 36   14.294526 -0.410349 -0.463635 -0.034998 0.016299 -0.733599
 37   15.834409 0.579420 -0.284600 0.032801 -0.042652 0.260546
 38   1.014681 -3.391247 -2.823813 0.029890 0.045190 0.024561
 39   -4.457742 -1.054854 -0.746180 0.005201 -0.000887 0.046163
 40   1.243105 -3.512271 3.237290 0.026859 0.052771 -0.021872
 41   -4.433840 -1.059130 0.959566 0.007190 0.025551 -0.023699
 42   -0.657468 1.697302 -2.782367 -0.031136 -0.065237 0.000125
 43   -0.652349 1.698578 2.642807 -0.044504 -0.092766 0.002217
time 16
  0   -0.225342 -123.256516 0.605858 0.000000 0.000000 -1.571069
  1   -1.093036 0.000002 -0.326057 -0.213584 -1.569036 -1.357115
  2   2.262337 0.113614 0.064702 -0.036634 0.003452 0.150500
  3   2.380047 0.353302 0.047440 0.031742 0.020741 0.078684
  4   2.033756 0.190472 -0.000128 -0.026254 -0.001150 -0.137401
  5   2.451511 0.204909 -0.003447 -0.019736 -0.001206 0.031118
  6   7.247600 -0.397300 -0.109469 0.002901 -0.014996 0.156829
  7   -2.022252 -0.104661 3.136172 0.031640 -1.359008 -3.240025
  8   1.168026 -0.537438 -0.063437 0.708849 1.024365 0.156570
  9   6.790376 -0.619176 0.015206 0.005668 0.047101 -1.356680
 10   8.637599 0.544015 -0.090417 -1.334098 -0.018573 -0.174326
 11   6.790465 -0.619039 0.017802 0.012709 0.021180 -0.964756
 12   -2.022474 -0.104699 -2.873818 0.080720 1.321166 -3.125444
 13   1.167898 -0.537463 0.063297 -0.310630 -0.955232 0.443266
 14   7.002743 -0.617765 -0.183752 0.050045 -0.052730 -1.055493
 15   8.209042 0.615527 -0.255885 1.607696 0.206639 -0.011493
 16   7.002735 -0.617911 -0.183641 0.043907 -0.036728 -0.757180
 17   1.574674 0.609930 -0.000899 0.077788 -0.020038 0.164690
 18   -0.602177 0.511412 -0.000006 0.000000 0.000000 0.000000
 19   3.677679 0.184833 1.119313 -0.000002 -0.000014 -0.174510
 20   3.677673 0.184806 -1.117566 0.000007 -0.000003 -0.174546
 21   3.942357 1.338447 1.627658 0.000002 -0.000011 -0.000026
 22   -0.246060 -0.011889 0.516521 -0.000011 0.000031 0.000025
 23   3.942374 1.338472 -1.631083 0.000019 0.000002 -0.000024
 24   -0.246150 -0.011872 -0.516511 -0.000005 -0.000006 0.000048
 25   4.941364 1.997338 1.629330 0.000018 -0.000001 -0.000024
 26   4.941382 1.997366 -1.629410 -0.000001 0.000005 -0.000024
 27   2.918368 1.623171 1.514501 -0.000019 -0.000022 -0.000050
 28   2.920798 1.614964 -1.501142 -0.000002 -0.000009 -0.000024
 29   8.824059 0.150544 0.091743 -0.005787 -0.021287 -0.174749
 30   2.083740 -0.561179 1.815571 -0.010599 -0.038344 -0.000148
 31   2.121290 -0.561289 -1.810629 -0.009898 -0.035485 -0.000239
 32   -0.810489 -0.093824 3.127092 -0.034882 -3.096437 -0.344834
 33   14.298673 -0.408176 0.475484 0.085422 0.053957 -1.995542
 34   15.835795 0.581398 0.242756 0.107620 0.098543 -0.326805
 35   -0.815868 -0.091229 -3.114430 0.019376 3.153149 -0.552367
 36   14.294526 -0.410349 -0.463635 -0.047810 0.010726 -0.925319
 37   15.834409 0.579420 -0.284600 0.042258 -0.117032 0.320475
 38   1.077183 -3.422498 -2.823813 0.015471 0.023414 0.012709
 39   -4.457742 -1.054854 -0.746180 0.002697 -0.000264 0.023923
 40   1.180603 -3.481020 3.237290 0.013892 0.027368 -0.011241
 41   -4.433840 -1.059130 0.959566 0.003714 0.013255 -0.012228
 42   -0.657468 1.697302 -2.739397 -0.016131 -0.033806 0.000042
 43   -0.656255 1.698578 2.756092 -0.023077 -0.048108 0.001087
time 17
  0   -0.377691 -130.955170 0.508199 0.000000 0.000000 -1.571069
  1   -1.093036 0.000002 -0.326057 -0.213531 -1.569036 -1.357212
  2   2.262337 0.113614 0.064702 -0.078936 0.009660 0.137236
  3   2.380047 0.353302 0.047440 0.081455 0.023078 0.091519
  4   2.033756 0.190472 -0.000128 0.029646 0.001318 -0.115834
  5   2.451511 0.204909 -0.003447 0.022115 0.001392 0.031118
  6   7.247600 -0.397300 -0.109469 -0.054349 -0.019837 0.156829
  7   -2.022252 -0.104661 3.136172 -0.293798 -1.318248 -2.916399
  8   1.168026 -0.537438 -0.063437 0.844396 0.964441 0.303081
  9   6.790376 -0.619176 0.015206 0.021091 0.050171 -1.331776
 10   8.637599 0.544015 -0.090417 -1.334627 -0.019981 -0.161955
 11   6.790465 -0.619039 0.017802 0.023833 0.021237 -0.947512
 12   -2.022474 -0.104699 -2.873818 -0.205647 1.269271 -3.406061
 13   1.167898 -0.537463 0.063297 -0.108464 -0.933721 0.259301
 14   7.002743 -0.617765 -0.183752 0.063880 -0.051651 -1.102686
 15   8.209042 0.615527 -0.255885 1.607624 0.203083 -0.018289
 16   7.002735 -0.617911 -0.183641 0.053417 -0.037574 -0.790130
 17   1.574674 0.609930 -0.000899 0.032740 -0.004773 0.165614
 18   -0.602177 0.511412 -0.000006 0.000000 0.000000 0.000000
 19   3.677679 0.184833 1.119313 -0.000002 -0.000014 -0.174510
 20   3.677673 0.184806 -1.117566 0.000007 -0.000003 -0.174546
 21   3.938451 1.338447 1.627658 0.000002 -0.000011 -0.000026
 22   -0.246060 -0.011889 0.516521 -0.000011 0.000031 0.000025
 23   3.938468 1.338472 -1.631083 0.000019 0.000002 -0.000024
 24   -0.246150 -0.011872 -0.516511 -0.000005 -0.000006 0.000048
 25   4.941364 1.997338 1.629330 0.000018 -0.000001 -0.000024
 26   4.941382 1.997366 -1.629410 -0.000001 0.000005 -0.000024
 27   2.918368 1.615358 1.514501 -0.000019 -0.000022 -0.000050
 28   2.920798 1.614964 -1.501142 -0.000002 -0.000009 -0.000024
 29   8.824059 0.150544 0.091743 -0.001509 -0.006237 -0.174588
 30   2.103272 -0.561179 1.792133 -0.003032 -0.011434 -0.000019
 31   2.121290 -0.561289 -1.845786 -0.002804 -0.010102 -0.000057
 32   -0.810489 -0.093824 3.127092 -0.007013 -3.103790 -0.654491
 33   14.298673 -0.408176 0.475484 0.085302 0.057446 -2.042943
 34   15.835795 0.581398 0.242756 0.166160 0.081875 -0.330201
 35   -0.815868 -0.091229 -3.114430 -0.023047 3.173948 -0.287361
 36   14.294526 -0.410349 -0.463635 -0.041866 0.013722 -0.835561
 37   15.834409 0.579420 -0.284600 0.069664 -0.142960 0.492051
 38   1.127966 -3.445936 -2.823813 0.004399 0.006676 0.003606
 39   -4.457742 -1.054854 -0.746180 0.000755 -0.000024 0.006787
 40   1.129820 -3.457582 3.237290 0.003957 0.007810 -0.003177
 41   -4.433840 -1.059130 0.959566 0.001054 0.003775 -0.003478
 42   -0.657468 1.697302 -2.700333 -0.004590 -0.009642 0.000000
 43   -0.664068 1.698578 2.838126 -0.006572 -0.013744 0.000293
time 18
  0   -0.393317 -138.653809 0.797270 0.000000 0.000000 -1.571069
  1   -1.093036 0.000002 -0.326057 -0.214108 -1.569036 -1.356583
  2   2.262337 0.113614 0.064702 -0.114028 0.012333 0.114033
  3   2.380047 0.353302 0.047440 0.116873 0.020933 0.105721
  4   2.033756 0.190472 -0.000128 0.079625 0.003643 -0.091766
  5   2.451511 0.204909 -0.003447 0.059618 0.003768 0.031242
  6   7.247600 -0.397300 -0.109469 -0.096918 -0.020413 0.156576
  7   -2.022252 -0.104661 3.136172 -0.456278 -1.260480 -2.755056
  8   1.168026 -0.537438 -0.063437 0.881858 0.867787 0.405120
  9   6.790376 -0.619176 0.015206 0.030911 0.051439 -1.304155
 10   8.637599 0.544015 -0.090417 -1.334627 -0.026879 -0.150380
 11   6.790465 -0.619039 0.017802 0.030811 0.020839 -0.928306
 12   -2.022474 -0.104699 -2.873818 -0.357597 1.210817 -3.552927
 13   1.167898 -0.537463 0.063297 0.000351 -0.877173 0.129938
 14   7.002743 -0.617765 -0.183752 0.072761 -0.053070 -1.181396
 15   8.209042 0.615527 -0.255885 1.606761 0.201343 -0.025325
 16   7.002735 -0.617911 -0.183641 0.059113 -0.039942 -0.845323
 17   1.574674 0.609930 -0.000899 -0.012755 0.013806 0.166502
 18   -0.602177 0.511412 -0.000006 0.000000 0.000000 0.000000
 19   3.673773 0.177020 1.119313 -0.000002 -0.000014 -0.174510
 20   3.673767 0.176993 -1.117566 0.000007 -0.000003 -0.174546
 21   3.938451 1.330634 1.627658 0.000002 -0.000011 -0.000026
 22   -0.246060 -0.011889 0.516521 -0.000011 0.000031 0.000025
 23   3.938468 1.330659 -1.631083 0.000019 0.000002 -0.000024
 24   -0.246150 -0.011872 -0.516511 -0.000005 -0.000006 0.000048
 25   4.941364 1.997338 1.629330 0.000018 -0.000001 -0.000024
 26   4.941382 1.997366 -1.629410 -0.000001 0.000005 -0.000024
 27   2.918368 1.623171 1.514501 -0.000019 -0.000022 -0.000050
 28   2.920798 1.614964 -1.501142 -0.000002 -0.000009 -0.000024
 29   8.824059 0.150544 0.091743 0.000006 -0.000231 -0.174534
 30   2.111085 -0.561179 1.784320 -0.000008 -0.000682 0.000024
 31   2.121290 -0.561289 -1.853599 0.000000 0.000000 -0.000002
 32   -0.810489 -0.093824 3.127092 -0.008784 -3.102262 -0.936654
 33   14.298673 -0.408176 0.475484 0.085398 0.052264 -1.972199
 34   15.835795 0.581398 0.242756 0.132163 0.070308 -0.281291
 35   -0.815868 -0.091229 -3.114430 -0.014246 3.159520 0.053072
 36   14.294526 -0.410349 -0.463635 -0.024200 0.018528 -0.570382
 37   15.834409 0.579420 -0.284600 0.038810 -0.116469 0.423705
 38   1.139685 -3.453749 -2.823813 0.000000 0.000000 0.000001
 39   -4.457742 -1.054854 -0.746180 0.000000 0.000000 0.000000
 40   1.118101 -3.449769 3.237290 0.000000 0.000001 0.000000
 41   -4.433840 -1.059130 0.959566 -0.000001 0.000000 0.000000
 42   -0.657468 1.697302 -2.688614 0.000000 0.000002 0.000000
 43   -0.664068 1.698578 2.869377 0.000000 0.000002 0.000000
end
