version 1
nodes
  0 "Bip01" -1
  1 "Bip01 Pelvis" 0
  2 "Bip01 Spine" 1
  3 "Bip01 Spine1" 2
  4 "Bip01 Spine2" 3
  5 "Bip01 Spine3" 4
  6 "Bip01 Neck" 5
  7 "Bip01 L Arm" 6
  8 "Bip01 L Arm1" 7
  9 "Bip01 L Arm2" 8
 10 "Bip01 L Hand" 9
 11 "Bip06 L elbow2-smooth" 8
 12 "Bip01 R Arm" 6
 13 "Bip01 R Arm1" 12
 14 "Bip01 R Arm2" 13
 15 "Bip01 R Hand" 14
 16 "Bip06 R elbow2-smooth" 13
 17 "Bip01 Head" 6
 18 "Bip06 Head_helper" 17
 19 "Bip06 Head_eyes_l" 18
 20 "Bip06 Head_eyes_r" 18
 21 "Bip06 Head_blink_l" 18
 22 "Bip06 Head_blink_smooth_l1" 21
 23 "Bip06 Head_blink_r" 18
 24 "Bip06 Head_blink_smooth_r1" 23
 25 "Bip06 Head_L_eyebrow" 18
 26 "Bip06 Head_R_eyebrow" 18
 27 "Bip06 Head_blink_l_lid" 18
 28 "Bip06 Head_blink_r_lid" 18
 29 "Bip06 bunny" 18
 30 "Bip06 bunnyL" 29
 31 "Bip06 bunnyR" 29
 32 "Bip01 L Leg" 1
 33 "Bip01 L Leg1" 32
 34 "Bip01 L Foot" 33
 35 "Bip01 R Leg" 1
 36 "Bip01 R Leg1" 35
 37 "Bip01 R Foot" 36
 38 "Bip03 HairR1" 17
 39 "Bip03 HairR2" 38
 40 "Bip03 HairL1" 17
 41 "Bip03 HairL2" 40
 42 "Bip03 swingR" 17
 43 "Bip03 swingL" 17
end
skeleton
time 0
  0   -0.072988 -0.292978 2.414507 0.000000 0.000000 -1.571069
  1   -1.093036 0.000002 -0.326057 -0.214160 -1.569036 -1.356583
  2   2.262337 0.113614 0.064702 -0.042672 -0.030356 -0.017270
  3   2.380047 0.353302 0.047440 0.035507 0.026829 0.026221
  4   2.033756 0.190472 -0.000128 0.024519 0.016994 -0.091295
  5   2.451511 0.204909 -0.003447 -0.000103 0.008024 0.034833
  6   7.247600 -0.397300 -0.109469 -0.004158 -0.046287 0.156861
  7   -2.022252 -0.104661 3.136172 -0.375278 -1.376650 -2.823988
  8   1.168026 -0.537438 -0.063437 0.397256 1.149899 0.173587
  9   6.790376 -0.619176 0.015206 -0.003930 -0.027315 -0.201198
 10   8.637599 0.544015 -0.090417 -1.534358 0.129458 0.029685
 11   6.790465 -0.619039 0.017802 -0.005743 -0.029758 -0.155981
 12   -2.022474 -0.104699 -2.873818 -0.002727 1.241699 -3.209121
 13   1.167898 -0.537463 0.063297 0.035357 -1.133777 -0.288600
 14   7.002743 -0.617765 -0.183752 0.040082 -0.008665 -0.271609
 15   8.209042 0.615527 -0.255885 1.526445 -0.011715 0.038421
 16   7.002735 -0.617911 -0.183641 0.042354 -0.005207 -0.208619
 17   1.574674 0.609930 -0.000899 -0.019823 0.031722 0.159109
 18   -0.602177 0.511412 -0.000006 0.000000 0.000000 0.000000
 19   3.677679 0.177020 1.119313 -0.000002 -0.000014 -0.174510
 20   3.673767 0.176993 -1.117566 0.000007 -0.000003 -0.174546
 21   3.942357 1.330634 1.627658 0.000002 -0.000011 -0.000026
 22   -0.246060 -0.011889 0.516521 -0.000011 0.000031 0.000025
 23   3.942374 1.330659 -1.631083 0.000019 0.000002 -0.000024
 24   -0.246150 -0.011872 -0.516511 -0.000005 -0.000006 0.000048
 25   4.941364 1.997338 1.629330 0.000018 -0.000001 -0.000024
 26   4.941382 1.997366 -1.629410 -0.000001 0.000005 -0.000024
 27   2.918368 1.615358 1.514501 -0.000019 -0.000022 -0.000050
 28   2.924704 1.614964 -1.501142 -0.000002 -0.000009 -0.000024
 29   8.824059 0.150544 0.091743 0.000006 -0.000231 -0.174534
 30   2.111085 -0.561179 1.784320 -0.000008 -0.000682 0.000024
 31   2.121290 -0.561289 -1.853599 0.000000 0.000000 -0.000002
 32   -0.810489 -0.093824 3.127092 0.028220 -3.108948 -0.482757
 33   14.298673 -0.408176 0.475484 0.060087 -0.002239 -1.128118
 34   15.835795 0.581398 0.242756 -0.005043 -0.145153 0.045377
 35   -0.815868 -0.091229 -3.114430 -0.046547 3.180881 0.029792
 36   14.294526 -0.410349 -0.463635 0.000764 0.018456 -0.228268
 37   15.834409 0.579420 -0.284600 0.092617 -0.099141 0.139267
 38   1.139685 -3.453749 -2.823813 0.000000 0.000000 0.000001
 39   -4.457742 -1.054854 -0.746180 0.000000 0.000000 0.000000
 40   1.118101 -3.449769 3.237290 0.000000 0.000001 0.000000
 41   -4.433840 -1.059130 0.959566 -0.000001 0.000000 0.000000
 42   -0.657468 1.697302 -2.688614 0.000000 0.000002 0.000000
 43   -0.664068 1.698578 2.869377 0.000000 0.000002 0.000000
time 1
  0   -0.030018 -3.315146 2.320755 0.000000 0.000000 -1.571069
  1   -1.093036 0.000002 -0.326057 -0.214160 -1.569036 -1.356583
  2   2.262337 0.113614 0.064702 -0.054836 -0.023921 -0.017668
  3   2.380047 0.353302 0.047440 0.045828 0.015612 0.026915
  4   2.033756 0.190472 -0.000128 0.039310 0.019223 -0.091911
  5   2.451511 0.204909 -0.003447 -0.000103 0.008024 0.034833
  6   7.247600 -0.397300 -0.109469 -0.004146 -0.046204 0.156861
  7   -2.022252 -0.104661 3.136172 -0.366363 -1.380484 -2.833567
  8   1.168026 -0.537438 -0.063437 0.451361 1.136113 0.245008
  9   6.790376 -0.619176 0.015206 -0.005872 -0.030385 -0.145050
 10   8.637599 0.544015 -0.090417 -1.547832 0.109749 0.012395
 11   6.790465 -0.619039 0.017802 -0.007203 -0.031890 -0.116705
 12   -2.022474 -0.104699 -2.873818 -0.012404 1.239086 -3.219270
 13   1.167898 -0.537463 0.063297 0.100661 -1.117504 -0.378373
 14   7.002743 -0.617765 -0.183752 0.038374 -0.012186 -0.334973
 15   8.209042 0.615527 -0.255885 1.567358 0.003796 0.018155
 16   7.002735 -0.617911 -0.183641 0.041036 -0.007632 -0.252994
 17   1.574674 0.609930 -0.000899 -0.032577 0.035698 0.152235
 18   -0.602177 0.511412 -0.000006 0.000000 0.000000 0.000000
 19   3.673773 0.177020 1.119313 -0.000002 -0.000014 -0.174510
 20   3.673767 0.176993 -1.117566 0.000007 -0.000003 -0.174546
 21   3.938451 1.330634 1.627658 0.000002 -0.000011 -0.000026
 22   -0.246060 -0.011889 0.516521 -0.000011 0.000031 0.000025
 23   3.942374 1.330659 -1.631083 0.000019 0.000002 -0.000024
 24   -0.246150 -0.011872 -0.516511 -0.000005 -0.000006 0.000048
 25   4.941364 1.997338 1.629330 0.000018 -0.000001 -0.000024
 26   4.941382 1.997366 -1.629410 -0.000001 0.000005 -0.000024
 27   2.918368 1.615358 1.514501 -0.000019 -0.000022 -0.000050
 28   2.920798 1.614964 -1.501142 -0.000002 -0.000009 -0.000024
 29   8.824059 0.150544 0.091743 0.000006 -0.000255 -0.169920
 30   2.111085 -0.568992 1.784320 0.001579 0.008007 -0.013571
 31   2.121290 -0.561289 -1.853599 0.000613 0.001114 0.002564
 32   -0.810489 -0.093824 3.127092 0.022721 -3.115251 -0.531311
 33   14.298673 -0.408176 0.475484 0.052572 -0.007938 -0.999493
 34   15.835795 0.581398 0.242756 -0.042168 -0.113721 0.126393
 35   -0.815868 -0.091229 -3.114430 -0.056757 3.180037 0.123514
 36   14.294526 -0.410349 -0.463635 0.004035 0.017917 -0.185938
 37   15.834409 0.579420 -0.284600 0.097995 -0.092742 0.132118
 38   1.139685 -3.453749 -2.823813 -0.000358 -0.001771 -0.002565
 39   -4.457742 -1.054854 -0.746180 -0.000180 -0.004614 -0.004123
 40   1.118101 -3.449769 3.237290 -0.000358 -0.001867 -0.002566
 41   -4.437746 -1.059130 0.959566 -0.000121 -0.002421 -0.004123
 42   -0.657468 1.697302 -2.680801 0.000803 0.002900 0.000000
 43   -0.664068 1.698578 2.869377 0.000025 0.000002 0.002133
time 2
  0   0.016858 -6.333408 2.086372 0.000000 0.000000 -1.571069
  1   -1.093036 0.000002 -0.326057 -0.214108 -1.569036 -1.356583
  2   2.262337 0.113614 0.064702 -0.064440 -0.021548 -0.019258
  3   2.380047 0.353302 0.047440 0.055474 0.014090 0.029568
  4   2.033756 0.190472 -0.000128 0.051832 0.020314 -0.090969
  5   2.451511 0.204909 -0.003447 -0.000086 0.008011 0.034833
  6   7.247600 -0.397300 -0.109469 -0.004086 -0.045137 0.156861
  7   -2.022252 -0.104661 3.136172 -0.353134 -1.381637 -2.847091
  8   1.168026 -0.537438 -0.063437 0.501669 1.124289 0.315670
  9   6.790376 -0.619176 0.015206 -0.007481 -0.032721 -0.101279
 10   8.637599 0.544015 -0.090417 -1.559280 0.086872 -0.007355
 11   6.790465 -0.619039 0.017802 -0.008283 -0.033425 -0.086022
 12   -2.022474 -0.104699 -2.873818 -0.020356 1.239202 -3.227791
 13   1.167898 -0.537463 0.063297 0.142837 -1.098739 -0.433278
 14   7.002743 -0.617765 -0.183752 0.036894 -0.016104 -0.401720
 15   8.209042 0.615527 -0.255885 1.576777 0.012875 -0.003014
 16   7.002735 -0.617911 -0.183641 0.039671 -0.010169 -0.299853
 17   1.574674 0.609930 -0.000899 -0.046348 0.034136 0.143438
 18   -0.602177 0.511412 -0.000006 0.000000 0.000000 0.000000
 19   3.673773 0.177020 1.119313 -0.000002 -0.000014 -0.174510
 20   3.673767 0.176993 -1.117566 0.000007 -0.000003 -0.174546
 21   3.938451 1.330634 1.627658 0.000002 -0.000011 -0.000026
 22   -0.246060 -0.011889 0.516521 -0.000011 0.000031 0.000025
 23   3.942374 1.330659 -1.631083 0.000019 0.000002 -0.000024
 24   -0.246150 -0.011872 -0.516511 -0.000005 -0.000006 0.000048
 25   4.941364 1.997338 1.629330 0.000018 -0.000001 -0.000024
 26   4.941382 1.997366 -1.629410 -0.000001 0.000005 -0.000024
 27   2.918368 1.623171 1.514501 -0.000019 -0.000022 -0.000050
 28   2.920798 1.614964 -1.501142 -0.000002 -0.000009 -0.000024
 29   8.824059 0.150544 0.091743 0.000184 -0.000421 -0.157259
 30   2.111085 -0.592430 1.764788 0.005891 0.031691 -0.050516
 31   2.121290 -0.541757 -1.861412 0.002360 0.004222 0.009551
 32   -0.810489 -0.093824 3.127092 0.018247 -3.123273 -0.528181
 33   14.298673 -0.408176 0.475484 0.038634 -0.015150 -0.785118
 34   15.835795 0.581398 0.242756 -0.067908 -0.076554 0.153340
 35   -0.815868 -0.091229 -3.114430 -0.064238 3.179101 0.191764
 36   14.294526 -0.410349 -0.463635 0.003904 0.018001 -0.189955
 37   15.834409 0.579420 -0.284600 0.104872 -0.082811 0.123042
 38   1.139685 -3.453749 -2.823813 -0.001305 -0.006628 -0.009652
 39   -4.438210 -1.047041 -0.746180 -0.000671 -0.017198 -0.015397
 40   1.110288 -3.449769 3.229477 -0.001347 -0.006928 -0.009653
 41   -4.468997 -1.031785 0.959566 -0.000468 -0.009012 -0.015313
 42   -0.657468 1.697302 -2.661269 0.002972 0.010873 0.000000
 43   -0.664068 1.698578 2.869377 0.000100 0.000002 0.008030
time 3
  0   0.067641 -9.351669 1.793395 0.000000 0.000000 -1.571069
  1   -1.093036 0.000002 -0.326057 -0.214160 -1.569036 -1.356583
  2   2.262337 0.113614 0.064702 -0.070962 -0.020721 -0.022077
  3   2.380047 0.353302 0.047440 0.063094 0.015816 0.033873
  4   2.033756 0.190472 -0.000128 0.061625 0.020709 -0.087598
  5   2.451511 0.204909 -0.003447 0.000000 0.007776 0.034833
  6   7.247600 -0.397300 -0.109469 -0.003894 -0.042992 0.156861
  7   -2.022252 -0.104661 3.136172 -0.337893 -1.380311 -2.862586
  8   1.168026 -0.537438 -0.063437 0.533689 1.117396 0.368429
  9   6.790376 -0.619176 0.015206 -0.008646 -0.034322 -0.068375
 10   8.637599 0.544015 -0.090417 -1.566854 0.063291 -0.023199
 11   6.790465 -0.619039 0.017802 -0.009188 -0.034647 -0.062952
 12   -2.022474 -0.104699 -2.873818 -0.026488 1.241524 -3.234493
 13   1.167898 -0.537463 0.063297 0.165753 -1.084653 -0.460458
 14   7.002743 -0.617765 -0.183752 0.035584 -0.020079 -0.468467
 15   8.209042 0.615527 -0.255885 1.571025 0.013934 -0.026347
 16   7.002735 -0.617911 -0.183641 0.038541 -0.012876 -0.346601
 17   1.574674 0.609930 -0.000899 -0.058777 0.029876 0.132978
 18   -0.602177 0.511412 -0.000006 0.000000 0.000000 0.000000
 19   3.673773 0.177020 1.119313 -0.000002 -0.000014 -0.174510
 20   3.673767 0.176993 -1.117566 0.000007 -0.000003 -0.174546
 21   3.938451 1.330634 1.627658 0.000002 -0.000011 -0.000026
 22   -0.246060 -0.011889 0.516521 -0.000011 0.000031 0.000025
 23   3.942374 1.330659 -1.631083 0.000019 0.000002 -0.000024
 24   -0.246150 -0.011872 -0.516511 -0.000005 -0.000006 0.000048
 25   4.941364 1.997338 1.629330 0.000018 -0.000001 -0.000024
 26   4.941382 1.997366 -1.629410 -0.000001 0.000005 -0.000024
 27   2.918368 1.623171 1.514501 -0.000019 -0.000022 -0.000050
 28   2.920798 1.614964 -1.501142 -0.000002 -0.000009 -0.000024
 29   8.824059 0.150544 0.091743 0.000541 -0.000635 -0.138697
 30   2.111085 -0.631494 1.745256 0.012264 0.066592 -0.104959
 31   2.121290 -0.522225 -1.873131 0.004903 0.008755 0.019831
 32   -0.810489 -0.093824 3.127092 0.013866 -3.131009 -0.524481
 33   14.298673 -0.408176 0.475484 0.025391 -0.018885 -0.597024
 34   15.835795 0.581398 0.242756 -0.080421 -0.035556 0.178567
 35   -0.815868 -0.091229 -3.114430 -0.069255 3.178539 0.237174
 36   14.294526 -0.410349 -0.463635 0.000800 0.018660 -0.233984
 37   15.834409 0.579420 -0.284600 0.112477 -0.067966 0.107629
 38   1.139685 -3.453749 -2.823813 -0.002736 -0.013774 -0.020160
 39   -4.403053 -1.027509 -0.746180 -0.001414 -0.035726 -0.031972
 40   1.106382 -3.449769 3.217758 -0.002863 -0.014436 -0.020161
 41   -4.511967 -1.008347 0.959566 -0.000996 -0.018744 -0.031860
 42   -0.657468 1.697302 -2.626112 0.006184 0.022556 0.000042
 43   -0.664068 1.690765 2.869377 0.000225 -0.000014 0.016687
time 4
  0   0.134049 -12.369932 1.480885 0.000000 0.000000 -1.571069
  1   -1.093036 0.000002 -0.326057 -0.214160 -1.569036 -1.356583
  2   2.262337 0.113614 0.064702 -0.073955 -0.020900 -0.025402
  3   2.380047 0.353302 0.047440 0.068315 0.018764 0.039036
  4   2.033756 0.190472 -0.000128 0.068062 0.020650 -0.081436
  5   2.451511 0.204909 -0.003447 0.000000 0.007358 0.034833
  6   7.247600 -0.397300 -0.109469 -0.003499 -0.039600 0.156861
  7   -2.022252 -0.104661 3.136172 -0.323035 -1.376823 -2.877707
  8   1.168026 -0.537438 -0.063437 0.534258 1.114679 0.396643
  9   6.790376 -0.619176 0.015206 -0.009589 -0.035323 -0.045357
 10   8.637599 0.544015 -0.090417 -1.569143 0.042737 -0.030144
 11   6.790465 -0.619039 0.017802 -0.009889 -0.035301 -0.046860
 12   -2.022474 -0.104699 -2.873818 -0.030895 1.245878 -3.239184
 13   1.167898 -0.537463 0.063297 0.175875 -1.076161 -0.471778
 14   7.002743 -0.617765 -0.183752 0.034617 -0.023826 -0.530511
 15   8.209042 0.615527 -0.255885 1.551396 0.004477 -0.052146
 16   7.002735 -0.617911 -0.183641 0.037505 -0.015357 -0.389927
 17   1.574674 0.609930 -0.000899 -0.068892 0.024338 0.121150
 18   -0.602177 0.511412 -0.000006 0.000000 0.000000 0.000000
 19   3.673773 0.177020 1.119313 -0.000002 -0.000014 -0.174510
 20   3.673767 0.176993 -1.117566 0.000007 -0.000003 -0.174546
 21   3.938451 1.330634 1.627658 0.000002 -0.000011 -0.000026
 22   -0.246060 -0.011889 0.516521 -0.000011 0.000031 0.000025
 23   3.938468 1.330659 -1.631083 0.000019 0.000002 -0.000024
 24   -0.246150 -0.011872 -0.516511 -0.000005 -0.000006 0.000048
 25   4.941364 1.997338 1.629330 0.000018 -0.000001 -0.000024
 26   4.941382 1.997366 -1.629410 -0.000001 0.000005 -0.000024
 27   2.918368 1.615358 1.514501 -0.000019 -0.000022 -0.000050
 28   2.920798 1.614964 -1.501142 -0.000002 -0.000009 -0.000024
 29   8.824059 0.150544 0.091743 0.000808 -0.000896 -0.116111
 30   2.103272 -0.674464 1.714005 0.020007 0.108962 -0.171066
 31   2.121290 -0.490974 -1.884850 0.008029 0.014298 0.032350
 32   -0.810489 -0.093824 3.127092 0.011443 -3.139509 -0.493914
 33   14.298673 -0.408176 0.475484 0.010375 -0.020074 -0.390033
 34   15.835795 0.581398 0.242756 -0.081456 0.000830 0.169305
 35   -0.815868 -0.091229 -3.114430 -0.075504 3.176477 0.295072
 36   14.294526 -0.410349 -0.463635 -0.000219 0.018852 -0.248583
 37   15.834409 0.579420 -0.284600 0.117698 -0.043855 0.054391
 38   1.139685 -3.453749 -2.823813 -0.004505 -0.022426 -0.032929
 39   -4.371802 -1.011884 -0.738367 -0.002313 -0.058221 -0.052109
 40   1.090756 -3.441956 3.206039 -0.004694 -0.023522 -0.032930
 41   -4.562750 -0.965377 0.959566 -0.001619 -0.030561 -0.051913
 42   -0.649655 1.697302 -2.587048 0.010115 0.036800 0.000084
 43   -0.664068 1.686859 2.869377 0.000375 -0.000061 0.027226
time 5
  0   0.208270 -15.388193 1.199626 0.000000 0.000000 -1.571069
  1   -1.093036 0.000002 -0.326057 -0.214160 -1.569036 -1.356583
  2   2.262337 0.113614 0.064702 -0.073000 -0.021308 -0.028384
  3   2.380047 0.353302 0.047440 0.070310 0.021628 0.043423
  4   2.033756 0.190472 -0.000128 0.070367 0.019930 -0.075165
  5   2.451511 0.204909 -0.003447 0.000000 0.006706 0.034833
  6   7.247600 -0.397300 -0.109469 -0.003163 -0.034878 0.156861
  7   -2.022252 -0.104661 3.136172 -0.309327 -1.370914 -2.890949
  8   1.168026 -0.537438 -0.063437 0.519957 1.114025 0.414609
  9   6.790376 -0.619176 0.015206 -0.010144 -0.036058 -0.029735
 10   8.637599 0.544015 -0.090417 -1.567294 0.028870 -0.022475
 11   6.790465 -0.619039 0.017802 -0.010327 -0.035898 -0.036018
 12   -2.022474 -0.104699 -2.873818 -0.032907 1.252234 -3.241099
 13   1.167898 -0.537463 0.063297 0.174610 -1.072906 -0.470204
 14   7.002743 -0.617765 -0.183752 0.034047 -0.027006 -0.582324
 15   8.209042 0.615527 -0.255885 1.520909 -0.017389 -0.075239
 16   7.002735 -0.617911 -0.183641 0.036752 -0.017556 -0.426244
 17   1.574674 0.609930 -0.000899 -0.075553 0.018444 0.112169
 18   -0.602177 0.511412 -0.000006 0.000000 0.000000 0.000000
 19   3.673773 0.177020 1.119313 -0.000002 -0.000014 -0.174510
 20   3.673767 0.176993 -1.117566 0.000007 -0.000003 -0.174546
 21   3.938451 1.330634 1.627658 0.000002 -0.000011 -0.000026
 22   -0.246060 -0.011889 0.516521 -0.000011 0.000031 0.000025
 23   3.942374 1.330659 -1.631083 0.000019 0.000002 -0.000024
 24   -0.246150 -0.011872 -0.516511 -0.000005 -0.000006 0.000048
 25   4.941364 1.997338 1.629330 0.000018 -0.000001 -0.000024
 26   4.941382 1.997366 -1.629410 -0.000001 0.000005 -0.000024
 27   2.918368 1.615358 1.514501 -0.000019 -0.000022 -0.000050
 28   2.920798 1.614964 -1.501142 -0.000002 -0.000009 -0.000024
 29   8.824059 0.150544 0.091743 0.001254 -0.001181 -0.091540
 30   2.103272 -0.717434 1.690567 0.028401 0.155052 -0.242984
 31   2.121290 -0.459723 -1.896569 0.011415 0.020307 0.045942
 32   -0.810489 -0.093824 3.127092 0.009299 -3.148582 -0.460842
 33   14.298673 -0.408176 0.475484 -0.001466 -0.018834 -0.227664
 34   15.835795 0.581398 0.242756 -0.072324 0.026357 0.125732
 35   -0.815868 -0.091229 -3.114430 -0.080256 3.174042 0.344042
 36   14.294526 -0.410349 -0.463635 -0.002328 0.019163 -0.278477
 37   15.834409 0.579420 -0.284600 0.120417 -0.016391 -0.003814
 38   1.139685 -3.453749 -2.823813 -0.006399 -0.031874 -0.046920
 39   -4.332738 -0.992352 -0.734461 -0.003308 -0.082718 -0.074041
 40   1.079037 -3.441956 3.198226 -0.006652 -0.033403 -0.046921
 41   -4.621346 -0.926313 0.951753 -0.002290 -0.043396 -0.073760
 42   -0.649655 1.697302 -2.544078 0.014358 0.052270 0.000293
 43   -0.671881 1.679046 2.869377 0.000525 -0.000124 0.038685
time 6
  0   0.298116 -18.406456 0.973057 0.000000 0.000000 -1.571069
  1   -1.093036 0.000002 -0.326057 -0.214108 -1.569036 -1.356583
  2   2.262337 0.113614 0.064702 -0.067905 -0.020828 -0.030010
  3   2.380047 0.353302 0.047440 0.068735 0.023390 0.046096
  4   2.033756 0.190472 -0.000128 0.068209 0.018564 -0.071830
  5   2.451511 0.204909 -0.003447 0.000000 0.005857 0.034833
  6   7.247600 -0.397300 -0.109469 -0.002540 -0.028562 0.156861
  7   -2.022252 -0.104661 3.136172 -0.296770 -1.362295 -2.902969
  8   1.168026 -0.537438 -0.063437 0.486292 1.118201 0.412901
  9   6.790376 -0.619176 0.015206 -0.010477 -0.036525 -0.020981
 10   8.637599 0.544015 -0.090417 -1.561922 0.023309 0.002267
 11   6.790465 -0.619039 0.017802 -0.010473 -0.036097 -0.029846
 12   -2.022474 -0.104699 -2.873818 -0.031661 1.261319 -3.240046
 13   1.167898 -0.537463 0.063297 0.157458 -1.076872 -0.451620
 14   7.002743 -0.617765 -0.183752 0.033763 -0.029334 -0.619204
 15   8.209042 0.615527 -0.255885 1.482513 -0.048636 -0.087326
 16   7.002735 -0.617911 -0.183641 0.036281 -0.019022 -0.451964
 17   1.574674 0.609930 -0.000899 -0.078316 0.011699 0.108325
 18   -0.602177 0.511412 -0.000006 0.000000 0.000000 0.000000
 19   3.673773 0.177020 1.119313 -0.000002 -0.000014 -0.174510
 20   3.673767 0.176993 -1.117566 0.000007 -0.000003 -0.174546
 21   3.942357 1.338447 1.627658 0.000002 -0.000011 -0.000026
 22   -0.246060 -0.011889 0.516521 -0.000011 0.000031 0.000025
 23   3.938468 1.330659 -1.631083 0.000019 0.000002 -0.000024
 24   -0.246150 -0.011872 -0.516511 -0.000005 -0.000006 0.000048
 25   4.941364 1.997338 1.629330 0.000018 -0.000001 -0.000024
 26   4.941382 1.997366 -1.629410 -0.000001 0.000005 -0.000024
 27   2.918368 1.623171 1.514501 -0.000019 -0.000022 -0.000050
 28   2.920798 1.614964 -1.501142 -0.000002 -0.000009 -0.000024
 29   8.824059 0.150544 0.091743 0.001610 -0.001442 -0.066970
 30   2.095459 -0.772123 1.659316 0.036821 0.201170 -0.314902
 31   2.129103 -0.428472 -1.916101 0.014786 0.026316 0.059552
 32   -0.810489 -0.093824 3.127092 0.009485 -3.155172 -0.422533
 33   14.298673 -0.408176 0.475484 -0.012480 -0.015848 -0.071408
 34   15.835795 0.581398 0.242756 -0.055510 0.012983 -0.061440
 35   -0.815868 -0.091229 -3.114430 -0.085097 3.170669 0.395312
 36   14.294526 -0.410349 -0.463635 -0.004102 0.019403 -0.302963
 37   15.834409 0.579420 -0.284600 0.117580 0.014733 -0.065062
 38   1.139685 -3.453749 -2.823813 -0.008251 -0.041309 -0.060727
 39   -4.289768 -0.972820 -0.726648 -0.004278 -0.107202 -0.095945
 40   1.067318 -3.430237 3.178694 -0.008609 -0.043297 -0.060728
 41   -4.679941 -0.891156 0.951753 -0.002973 -0.056256 -0.095580
 42   -0.645749 1.697302 -2.501108 0.018600 0.067725 0.000502
 43   -0.671881 1.667327 2.869377 0.000700 -0.000218 0.050144
time 7
  0   0.411401 -21.424717 0.859772 0.000000 0.000000 -1.571069
  1   -1.093036 0.000002 -0.326057 -0.214108 -1.569036 -1.356583
  2   2.262337 0.113614 0.064702 -0.059677 -0.018683 -0.030534
  3   2.380047 0.353302 0.047440 0.063769 0.022599 0.046953
  4   2.033756 0.190472 -0.000128 0.061957 0.016515 -0.070960
  5   2.451511 0.204909 -0.003447 0.000000 0.004747 0.034833
  6   7.247600 -0.397300 -0.109469 -0.001797 -0.020581 0.156829
  7   -2.022252 -0.104661 3.136172 -0.284692 -1.350908 -2.914521
  8   1.168026 -0.537438 -0.063437 0.445033 1.125547 0.399680
  9   6.790376 -0.619176 0.015206 -0.010477 -0.036658 -0.017887
 10   8.637599 0.544015 -0.090417 -1.551178 0.026195 0.046903
 11   6.790465 -0.619039 0.017802 -0.010473 -0.036211 -0.027712
 12   -2.022474 -0.104699 -2.873818 -0.027925 1.272899 -3.236025
 13   1.167898 -0.537463 0.063297 0.125123 -1.087501 -0.417418
 14   7.002743 -0.617765 -0.183752 0.033592 -0.030584 -0.638263
 15   8.209042 0.615527 -0.255885 1.452889 -0.085256 -0.088649
 16   7.002735 -0.617911 -0.183641 0.036046 -0.019868 -0.465376
 17   1.574674 0.609930 -0.000899 -0.076935 0.003605 0.108436
 18   -0.602177 0.511412 -0.000006 0.000000 0.000000 0.000000
 19   3.673773 0.177020 1.119313 -0.000002 -0.000014 -0.174510
 20   3.673767 0.176993 -1.117566 0.000007 -0.000003 -0.174546
 21   3.938451 1.330634 1.627658 0.000002 -0.000011 -0.000026
 22   -0.246060 -0.011889 0.516521 -0.000011 0.000031 0.000025
 23   3.938468 1.330659 -1.631083 0.000019 0.000002 -0.000024
 24   -0.246150 -0.011872 -0.516511 -0.000005 -0.000006 0.000048
 25   4.941364 1.997338 1.629330 0.000018 -0.000001 -0.000024
 26   4.941382 1.997366 -1.629410 -0.000001 0.000005 -0.000024
 27   2.918368 1.615358 1.514501 -0.000019 -0.000022 -0.000050
 28   2.920798 1.614964 -1.501142 -0.000002 -0.000009 -0.000024
 29   8.824059 0.150544 0.091743 0.002056 -0.001703 -0.044276
 30   2.091553 -0.815093 1.628065 0.044551 0.243540 -0.380988
 31   2.129103 -0.405034 -1.927820 0.017896 0.031859 0.072034
 32   -0.810489 -0.093824 3.127092 0.007062 -3.159565 -0.426916
 33   14.298673 -0.408176 0.475484 -0.012480 -0.015848 -0.071408
 34   15.835795 0.581398 0.242756 -0.046884 0.033556 -0.091827
 35   -0.815868 -0.091229 -3.114430 -0.084745 3.166546 0.407308
 36   14.294526 -0.410349 -0.463635 -0.010082 0.019798 -0.385460
 37   15.834409 0.579420 -0.284600 0.102094 0.061060 -0.159368
 38   1.139685 -3.453749 -2.823813 -0.009998 -0.049986 -0.073557
 39   -4.254611 -0.949382 -0.714929 -0.005177 -0.129697 -0.116081
 40   1.055599 -3.430237 3.166975 -0.010419 -0.052395 -0.073558
 41   -4.730724 -0.852092 0.951753 -0.003608 -0.068060 -0.115661
 42   -0.637936 1.697302 -2.458138 0.022507 0.081969 0.000795
 43   -0.675787 1.659514 2.869377 0.000850 -0.000359 0.060682
time 8
  0   0.552030 -24.442980 0.887117 0.000000 0.000000 -1.571069
  1   -1.093036 0.000002 -0.326057 -0.214108 -1.569036 -1.356583
  2   2.262337 0.113614 0.064702 -0.049397 -0.010570 -0.029703
  3   2.380047 0.353302 0.047440 0.055399 0.012819 0.046198
  4   2.033756 0.190472 -0.000128 0.052330 0.013663 -0.071685
  5   2.451511 0.204909 -0.003447 0.000137 0.003350 0.034833
  6   7.247600 -0.397300 -0.109469 -0.000874 -0.010669 0.156829
  7   -2.022252 -0.104661 3.136172 -0.272901 -1.336322 -2.925603
  8   1.168026 -0.537438 -0.063437 0.396560 1.135761 0.368935
  9   6.790376 -0.619176 0.015206 -0.010477 -0.036592 -0.020000
 10   8.637599 0.544015 -0.090417 -1.531628 0.036120 0.100438
 11   6.790465 -0.619039 0.017802 -0.010473 -0.036154 -0.029154
 12   -2.022474 -0.104699 -2.873818 -0.021122 1.287382 -3.228940
 13   1.167898 -0.537463 0.063297 0.079924 -1.105045 -0.370564
 14   7.002743 -0.617765 -0.183752 0.033535 -0.030584 -0.639253
 15   8.209042 0.615527 -0.255885 1.439299 -0.120286 -0.084620
 16   7.002735 -0.617911 -0.183641 0.036046 -0.019868 -0.466149
 17   1.574674 0.609930 -0.000899 -0.070720 -0.003921 0.111577
 18   -0.602177 0.511412 -0.000006 0.000000 0.000000 0.000000
 19   3.673773 0.177020 1.119313 -0.000002 -0.000014 -0.174510
 20   3.673767 0.176993 -1.117566 0.000007 -0.000003 -0.174546
 21   3.938451 1.330634 1.627658 0.000002 -0.000011 -0.000026
 22   -0.246060 -0.011889 0.516521 -0.000011 0.000031 0.000025
 23   3.942374 1.330659 -1.631083 0.000019 0.000002 -0.000024
 24   -0.246150 -0.011872 -0.516511 -0.000005 -0.000006 0.000048
 25   4.941364 1.997338 1.629330 0.000018 -0.000001 -0.000024
 26   4.941382 1.997366 -1.629410 -0.000001 0.000005 -0.000024
 27   2.918368 1.623171 1.514501 -0.000019 -0.000022 -0.000050
 28   2.920798 1.614964 -1.501142 -0.000002 -0.000009 -0.000024
 29   8.824059 0.150544 0.091743 0.002234 -0.001916 -0.025714
 30   2.091553 -0.846344 1.604627 0.050938 0.278441 -0.435409
 31   2.129103 -0.381596 -1.935633 0.020455 0.036392 0.082333
 32   -0.810489 -0.093824 3.127092 0.004918 -3.162430 -0.433975
 33   14.298673 -0.408176 0.475484 -0.006452 -0.017722 -0.158032
 34   15.835795 0.581398 0.242756 -0.046884 0.072504 -0.044725
 35   -0.815868 -0.091229 -3.114430 -0.078672 3.152025 0.408732
 36   14.294526 -0.410349 -0.463635 -0.015056 0.019774 -0.453203
 37   15.834409 0.579420 -0.284600 0.063379 0.111278 -0.278163
 38   1.139685 -3.453749 -2.823813 -0.011451 -0.057132 -0.084004
 39   -4.223360 -0.937663 -0.707116 -0.005920 -0.148237 -0.132684
 40   1.043880 -3.422424 3.155256 -0.011935 -0.059866 -0.084005
 41   -4.773694 -0.820841 0.947847 -0.004136 -0.077792 -0.132180
 42   -0.637936 1.697302 -2.426887 0.025743 0.093667 0.001213
 43   -0.675787 1.647795 2.869377 0.000975 -0.000532 0.069339
time 9
  0   0.723910 -27.457335 1.062904 0.000000 0.000000 -1.571069
  1   -1.093036 0.000002 -0.326057 -0.214108 -1.569036 -1.356583
  2   2.262337 0.113614 0.064702 -0.037794 0.005849 -0.027444
  3   2.380047 0.353302 0.047440 0.043728 -0.008765 0.043974
  4   2.033756 0.190472 -0.000128 0.039863 0.009983 -0.073969
  5   2.451511 0.204909 -0.003447 0.000274 0.001679 0.034833
  6   7.247600 -0.397300 -0.109469 0.000145 0.000872 0.156829
  7   -2.022252 -0.104661 3.136172 -0.261302 -1.318911 -2.935933
  8   1.168026 -0.537438 -0.063437 0.337456 1.146981 0.315923
  9   6.790376 -0.619176 0.015206 -0.010255 -0.036258 -0.026490
 10   8.637599 0.544015 -0.090417 -1.511549 0.053929 0.131546
 11   6.790465 -0.619039 0.017802 -0.010327 -0.035955 -0.033768
 12   -2.022474 -0.104699 -2.873818 -0.011446 1.304855 -3.219174
 13   1.167898 -0.537463 0.063297 0.020104 -1.127776 -0.309666
 14   7.002743 -0.617765 -0.183752 0.033649 -0.029618 -0.623412
 15   8.209042 0.615527 -0.255885 1.438508 -0.144573 -0.077103
 16   7.002735 -0.617911 -0.183641 0.036187 -0.019191 -0.455055
 17   1.574674 0.609930 -0.000899 -0.059874 -0.010405 0.119931
 18   -0.602177 0.511412 -0.000006 0.000000 0.000000 0.000000
 19   3.677679 0.177020 1.119313 -0.000002 -0.000014 -0.174510
 20   3.673767 0.176993 -1.117566 0.000007 -0.000003 -0.174546
 21   3.942357 1.330634 1.627658 0.000002 -0.000011 -0.000026
 22   -0.246060 -0.011889 0.516521 -0.000011 0.000031 0.000025
 23   3.942374 1.330659 -1.631083 0.000019 0.000002 -0.000024
 24   -0.246150 -0.011872 -0.516511 -0.000005 -0.000006 0.000048
 25   4.941364 1.997338 1.629330 0.000018 -0.000001 -0.000024
 26   4.941382 1.997366 -1.629410 -0.000001 0.000005 -0.000024
 27   2.918368 1.615358 1.514501 -0.000019 -0.000022 -0.000050
 28   2.920798 1.614964 -1.501142 -0.000002 -0.000009 -0.000024
 29   8.824059 0.150544 0.091743 0.002412 -0.002083 -0.013053
 30   2.083740 -0.877595 1.592908 0.055250 0.302125 -0.472355
 31   2.129103 -0.362064 -1.947352 0.022171 0.039474 0.089320
 32   -0.810489 -0.093824 3.127092 0.000817 -3.163290 -0.471486
 33   14.298673 -0.408176 0.475484 0.006755 -0.019893 -0.341124
 34   15.835795 0.581398 0.242756 -0.057281 0.075091 -0.052046
 35   -0.815868 -0.091229 -3.114430 -0.067934 3.136004 0.358503
 36   14.294526 -0.410349 -0.463635 -0.023229 0.018983 -0.565670
 37   15.834409 0.579420 -0.284600 0.014734 0.146318 -0.373127
 38   1.139685 -3.453749 -2.823813 -0.012419 -0.061964 -0.091152
 39   -4.203828 -0.929850 -0.695397 -0.006436 -0.160809 -0.143931
 40   1.036067 -3.422424 3.155256 -0.012924 -0.064952 -0.091153
 41   -4.801039 -0.805216 0.947847 -0.004471 -0.084384 -0.143398
 42   -0.637936 1.697302 -2.407355 0.027912 0.101625 0.001756
 43   -0.675787 1.636076 2.869377 0.001062 -0.000735 0.075236
time 10
  0   0.895790 -30.471691 1.332443 0.000000 0.000000 -1.571069
  1   -1.093036 0.000002 -0.326057 -0.214108 -1.569036 -1.356583
  2   2.262337 0.113614 0.064702 -0.024916 0.026043 -0.024788
  3   2.380047 0.353302 0.047440 0.029792 -0.035227 0.040709
  4   2.033756 0.190472 -0.000128 0.025238 0.005561 -0.077485
  5   2.451511 0.204909 -0.003447 0.000428 -0.000149 0.034833
  6   7.247600 -0.397300 -0.109469 0.001199 0.013815 0.156829
  7   -2.022252 -0.104661 3.136172 -0.250375 -1.299050 -2.945512
  8   1.168026 -0.537438 -0.063437 0.263228 1.156893 0.238429
  9   6.790376 -0.619176 0.015206 -0.009700 -0.035457 -0.043546
 10   8.637599 0.544015 -0.090417 -1.501686 0.079622 0.128435
 11   6.790465 -0.619039 0.017802 -0.009889 -0.035358 -0.045649
 12   -2.022474 -0.104699 -2.873818 0.001680 1.324504 -3.205579
 13   1.167898 -0.537463 0.063297 -0.059118 -1.151728 -0.228852
 14   7.002743 -0.617765 -0.183752 0.033933 -0.027461 -0.588017
 15   8.209042 0.615527 -0.255885 1.444692 -0.158191 -0.067301
 16   7.002735 -0.617911 -0.183641 0.036705 -0.017725 -0.430273
 17   1.574674 0.609930 -0.000899 -0.046307 -0.017221 0.135750
 18   -0.602177 0.511412 -0.000006 0.000000 0.000000 0.000000
 19   3.677679 0.184833 1.119313 -0.000002 -0.000014 -0.174510
 20   3.673767 0.176993 -1.117566 0.000007 -0.000003 -0.174546
 21   3.942357 1.338447 1.627658 0.000002 -0.000011 -0.000026
 22   -0.246060 -0.011889 0.516521 -0.000011 0.000031 0.000025
 23   3.942374 1.338472 -1.631083 0.000019 0.000002 -0.000024
 24   -0.246150 -0.011872 -0.516511 -0.000005 -0.000006 0.000048
 25   4.941364 1.997338 1.629330 0.000018 -0.000001 -0.000024
 26   4.941382 1.997366 -1.629410 -0.000001 0.000005 -0.000024
 27   2.918368 1.623171 1.514501 -0.000019 -0.000022 -0.000050
 28   2.920798 1.622777 -1.501142 -0.000002 -0.000009 -0.000024
 29   8.824059 0.150544 0.091743 0.002590 -0.002154 -0.008440
 30   2.083740 -0.885408 1.585095 0.056850 0.310872 -0.485949
 31   2.129103 -0.362064 -1.947352 0.022830 0.040588 0.091885
 32   -0.810489 -0.093824 3.127092 0.000351 -3.165964 -0.462777
 33   14.298673 -0.408176 0.475484 0.014450 -0.020061 -0.445850
 34   15.835795 0.581398 0.242756 -0.068874 0.073871 -0.044813
 35   -0.815868 -0.091229 -3.114430 -0.056228 3.120639 0.255798
 36   14.294526 -0.410349 -0.463635 -0.034435 0.016359 -0.722862
 37   15.834409 0.579420 -0.284600 -0.032158 0.163749 -0.422105
 38   1.139685 -3.453749 -2.823813 -0.012777 -0.063760 -0.093779
 39   -4.196015 -0.922037 -0.683678 -0.006604 -0.165435 -0.148082
 40   1.036067 -3.422424 3.147443 -0.013303 -0.066832 -0.093780
 41   -4.808851 -0.797403 0.947847 -0.004603 -0.086816 -0.147521
 42   -0.637936 1.689489 -2.395636 0.028715 0.104538 0.002426
 43   -0.683600 1.628263 2.869377 0.001087 -0.001034 0.077411
time 11
  0   1.040326 -33.489948 1.652765 0.000000 0.000000 -1.571069
  1   -1.093036 0.000002 -0.326057 -0.214108 -1.569036 -1.356583
  2   2.262337 0.113614 0.064702 -0.010433 0.041348 -0.022312
  3   2.380047 0.353302 0.047440 0.015451 -0.053539 0.036730
  4   2.033756 0.190472 -0.000128 0.009064 0.000336 -0.081472
  5   2.451511 0.204909 -0.003447 0.000565 -0.002055 0.034833
  6   7.247600 -0.397300 -0.109469 0.002506 0.027118 0.156861
  7   -2.022252 -0.104661 3.136172 -0.240405 -1.278006 -2.953683
  8   1.168026 -0.537438 -0.063437 0.179761 1.165547 0.138351
  9   6.790376 -0.619176 0.015206 -0.008646 -0.034523 -0.066790
 10   8.637599 0.544015 -0.090417 -1.502214 0.108130 0.105068
 11   6.790465 -0.619039 0.017802 -0.009305 -0.034704 -0.061856
 12   -2.022474 -0.104699 -2.873818 0.019117 1.345140 -3.187963
 13   1.167898 -0.537463 0.063297 -0.159849 -1.168764 -0.125701
 14   7.002743 -0.617765 -0.183752 0.034674 -0.023770 -0.527788
 15   8.209042 0.615527 -0.255885 1.453895 -0.165682 -0.055273
 16   7.002735 -0.617911 -0.183641 0.037552 -0.015244 -0.388051
 17   1.574674 0.609930 -0.000899 -0.032577 -0.027422 0.149721
 18   -0.602177 0.511412 -0.000006 0.000000 0.000000 0.000000
 19   3.677679 0.177020 1.119313 -0.000002 -0.000014 -0.174510
 20   3.673767 0.176993 -1.117566 0.000007 -0.000003 -0.174546
 21   3.938451 1.330634 1.627658 0.000002 -0.000011 -0.000026
 22   -0.246060 -0.011889 0.516521 -0.000011 0.000031 0.000025
 23   3.942374 1.330659 -1.631083 0.000019 0.000002 -0.000024
 24   -0.246150 -0.011872 -0.516511 -0.000005 -0.000006 0.000048
 25   4.941364 1.997338 1.629330 0.000018 -0.000001 -0.000024
 26   4.941382 1.997366 -1.629410 -0.000001 0.000005 -0.000024
 27   2.918368 1.615358 1.514501 -0.000019 -0.000022 -0.000050
 28   2.924704 1.614964 -1.501142 -0.000002 -0.000009 -0.000024
 29   8.824059 0.150544 0.091743 0.002590 -0.002083 -0.013214
 30   2.091553 -0.873689 1.592908 0.053406 0.298347 -0.470725
 31   2.129103 -0.373783 -1.939539 0.021558 0.037946 0.084425
 32   -0.810489 -0.093824 3.127092 0.006223 -3.170357 -0.388494
 33   14.298673 -0.408176 0.475484 0.014533 -0.020061 -0.447835
 34   15.835795 0.581398 0.242756 -0.074371 0.079630 0.008110
 35   -0.815868 -0.091229 -3.114430 -0.047515 3.106023 0.119131
 36   14.294526 -0.410349 -0.463635 -0.046084 0.011421 -0.893880
 37   15.834409 0.579420 -0.284600 -0.070617 0.169405 -0.423069
 38   1.131872 -3.453749 -2.823813 -0.012040 -0.060048 -0.093107
 39   -4.203828 -0.922037 -0.671959 -0.005932 -0.158376 -0.146960
 40   1.043880 -3.422424 3.147443 -0.012145 -0.061023 -0.093047
 41   -4.804945 -0.797403 0.947847 -0.004315 -0.083784 -0.146427
 42   -0.637936 1.685583 -2.407355 0.027876 0.101272 0.005060
 43   -0.683600 1.616544 2.861564 -0.000125 -0.005459 0.077411
time 12
  0   1.110640 -36.512119 1.965275 0.000000 0.000000 -1.571069
  1   -1.093036 0.000002 -0.326057 -0.214108 -1.569036 -1.356583
  2   2.262337 0.113614 0.064702 0.005094 0.046117 -0.020324
  3   2.380047 0.353302 0.047440 0.001815 -0.056967 0.032710
  4   2.033756 0.190472 -0.000128 -0.007885 -0.005381 -0.085568
  5   2.451511 0.204909 -0.003447 0.000702 -0.003817 0.034833
  6   7.247600 -0.397300 -0.109469 0.003644 0.039247 0.156861
  7   -2.022252 -0.104661 3.136172 -0.232928 -1.257943 -2.959505
  8   1.168026 -0.537438 -0.063437 0.088511 1.172289 0.016511
  9   6.790376 -0.619176 0.015206 -0.007481 -0.032787 -0.099845
 10   8.637599 0.544015 -0.090417 -1.513222 0.130162 0.072224
 11   6.790465 -0.619039 0.017802 -0.008312 -0.033510 -0.084984
 12   -2.022474 -0.104699 -2.873818 0.040673 1.364702 -3.166038
 13   1.167898 -0.537463 0.063297 -0.268665 -1.174409 -0.012319
 14   7.002743 -0.617765 -0.183752 0.035926 -0.018773 -0.446933
 15   8.209042 0.615527 -0.255885 1.464321 -0.165757 -0.041923
 16   7.002735 -0.617911 -0.183641 0.038870 -0.012030 -0.331478
 17   1.574674 0.609930 -0.000899 -0.019741 -0.039113 0.158666
 18   -0.602177 0.511412 -0.000006 0.000000 0.000000 0.000000
 19   3.673773 0.177020 1.119313 -0.000002 -0.000014 -0.174510
 20   3.673767 0.184806 -1.117566 0.000007 -0.000003 -0.174546
 21   3.938451 1.330634 1.627658 0.000002 -0.000011 -0.000026
 22   -0.246060 -0.011889 0.516521 -0.000011 0.000031 0.000025
 23   3.938468 1.330659 -1.631083 0.000019 0.000002 -0.000024
 24   -0.246150 -0.011872 -0.516511 -0.000005 -0.000006 0.000048
 25   4.941364 1.997338 1.629330 0.000018 -0.000001 -0.000024
 26   4.941382 1.997366 -1.629410 -0.000001 0.000005 -0.000024
 27   2.918368 1.615358 1.514501 -0.000019 -0.000022 -0.000050
 28   2.920798 1.614964 -1.501142 -0.000002 -0.000009 -0.000024
 29   8.824059 0.150544 0.091743 0.002412 -0.001988 -0.026143
 30   2.095459 -0.834625 1.604627 0.044063 0.264376 -0.429362
 31   2.129103 -0.405034 -1.927820 0.018126 0.030667 0.064119
 32   -0.810489 -0.093824 3.127092 0.014612 -3.174464 -0.295540
 33   14.298673 -0.408176 0.475484 0.012400 -0.020100 -0.418934
 34   15.835795 0.581398 0.242756 -0.077959 0.089245 0.070956
 35   -0.815868 -0.091229 -3.114430 -0.043466 3.093937 -0.054508
 36   14.294526 -0.410349 -0.463635 -0.056511 0.005285 -1.072005
 37   15.834409 0.579420 -0.284600 -0.096565 0.171172 -0.372772
 38   1.108434 -3.453749 -2.823813 -0.010040 -0.050010 -0.091091
 39   -4.219454 -0.922037 -0.660240 -0.004123 -0.139189 -0.143762
 40   1.067318 -3.430237 3.147443 -0.009030 -0.045309 -0.090848
 41   -4.793226 -0.809122 0.947847 -0.003548 -0.075599 -0.143342
 42   -0.637936 1.669957 -2.434700 0.025587 0.092364 0.010999
 43   -0.675787 1.612638 2.834219 -0.003436 -0.016945 0.077285
time 13
  0   1.130172 -39.530380 2.207470 0.000000 0.000000 -1.571069
  1   -1.093036 0.000002 -0.326057 -0.214108 -1.569036 -1.356631
  2   2.262337 0.113614 0.064702 0.020965 0.043517 -0.018933
  3   2.380047 0.353302 0.047440 -0.011131 -0.051658 0.029282
  4   2.033756 0.190472 -0.000128 -0.025295 -0.011265 -0.088939
  5   2.451511 0.204909 -0.003447 0.000719 -0.005201 0.034833
  6   7.247600 -0.397300 -0.109469 0.004435 0.048499 0.156861
  7   -2.022252 -0.104661 3.136172 -0.229573 -1.240965 -2.961571
  8   1.168026 -0.537438 -0.063437 -0.009574 1.171987 -0.123927
  9   6.790376 -0.619176 0.015206 -0.005872 -0.030451 -0.144220
 10   8.637599 0.544015 -0.090417 -1.531980 0.137694 0.042635
 11   6.790465 -0.619039 0.017802 -0.007115 -0.031918 -0.116013
 12   -2.022474 -0.104699 -2.873818 0.065391 1.381130 -3.141337
 13   1.167898 -0.537463 0.063297 -0.366444 -1.170951 0.090772
 14   7.002743 -0.617765 -0.183752 0.037805 -0.013662 -0.359147
 15   8.209042 0.615527 -0.255885 1.475754 -0.159478 -0.027430
 16   7.002735 -0.617911 -0.183641 0.040518 -0.008534 -0.269938
 17   1.574674 0.609930 -0.000899 -0.006256 -0.047988 0.163360
 18   -0.602177 0.511412 -0.000006 0.000000 0.000000 0.000000
 19   3.673773 0.177020 1.119313 -0.000002 -0.000014 -0.174510
 20   3.673767 0.176993 -1.117566 0.000007 -0.000003 -0.174546
 21   3.938451 1.330634 1.627658 0.000002 -0.000011 -0.000026
 22   -0.246060 -0.011889 0.516521 -0.000011 0.000031 0.000025
 23   3.942374 1.338472 -1.631083 0.000019 0.000002 -0.000024
 24   -0.246150 -0.011872 -0.516511 -0.000005 -0.000006 0.000048
 25   4.941364 1.997338 1.629330 0.000018 -0.000001 -0.000024
 26   4.941382 1.997366 -1.629410 -0.000001 0.000005 -0.000024
 27   2.918368 1.623171 1.514501 -0.000019 -0.000022 -0.000050
 28   2.920798 1.614964 -1.501142 -0.000002 -0.000009 -0.000024
 29   8.824059 0.150544 0.091743 0.002234 -0.001798 -0.045188
 30   2.111085 -0.783842 1.628065 0.030313 0.214276 -0.368444
 31   2.121290 -0.455817 -1.908288 0.013085 0.019996 0.034187
 32   -0.810489 -0.093824 3.127092 0.025331 -3.177329 -0.184713
 33   14.298673 -0.408176 0.475484 0.007642 -0.020010 -0.354304
 34   15.835795 0.581398 0.242756 -0.080490 0.095956 0.114794
 35   -0.815868 -0.091229 -3.114430 -0.041618 3.087286 -0.232859
 36   14.294526 -0.410349 -0.463635 -0.064277 -0.001750 -1.210272
 37   15.834409 0.579420 -0.284600 -0.099205 0.174064 -0.270000
 38   1.081089 -3.445936 -2.823813 -0.007136 -0.035212 -0.087853
 39   -4.235079 -0.929850 -0.640708 -0.001438 -0.110917 -0.138742
 40   1.098569 -3.441956 3.155256 -0.004441 -0.022148 -0.087365
 41   -4.769788 -0.816935 0.951753 -0.002422 -0.063494 -0.138462
 42   -0.649655 1.646519 -2.469857 0.022219 0.079224 0.019321
 43   -0.675787 1.604825 2.799062 -0.008334 -0.033735 0.076993
time 14
  0   1.110640 -42.548641 2.352005 0.000000 0.000000 -1.571069
  1   -1.093036 0.000002 -0.326057 -0.214108 -1.569036 -1.356631
  2   2.262337 0.113614 0.064702 0.036441 0.036194 -0.017975
  3   2.380047 0.353302 0.047440 -0.023417 -0.040716 0.026976
  4   2.033756 0.190472 -0.000128 -0.042465 -0.016718 -0.091150
  5   2.451511 0.204909 -0.003447 0.000839 -0.006024 0.034833
  6   7.247600 -0.397300 -0.109469 0.005023 0.054048 0.156956
  7   -2.022252 -0.104661 3.136172 -0.229573 -1.228656 -2.959881
  8   1.168026 -0.537438 -0.063437 -0.107216 1.163283 -0.267655
  9   6.790376 -0.619176 0.015206 -0.003930 -0.027381 -0.198481
 10   8.637599 0.544015 -0.090417 -1.554260 0.134667 0.028962
 11   6.790465 -0.619039 0.017802 -0.005772 -0.029900 -0.154136
 12   -2.022474 -0.104699 -2.873818 0.091642 1.392739 -3.114721
 13   1.167898 -0.537463 0.063297 -0.437582 -1.161085 0.167651
 14   7.002743 -0.617765 -0.183752 0.039854 -0.009006 -0.277632
 15   8.209042 0.615527 -0.255885 1.488121 -0.149037 -0.021957
 16   7.002735 -0.617911 -0.183641 0.042260 -0.005376 -0.212924
 17   1.574674 0.609930 -0.000899 0.006987 -0.054662 0.163471
 18   -0.602177 0.511412 -0.000006 0.000000 0.000000 0.000000
 19   3.673773 0.177020 1.119313 -0.000002 -0.000014 -0.174510
 20   3.673767 0.176993 -1.117566 0.000007 -0.000003 -0.174546
 21   3.938451 1.330634 1.627658 0.000002 -0.000011 -0.000026
 22   -0.246060 -0.011889 0.516521 -0.000011 0.000031 0.000025
 23   3.938468 1.330659 -1.631083 0.000019 0.000002 -0.000024
 24   -0.246150 -0.011872 -0.516511 -0.000005 -0.000006 0.000048
 25   4.941364 1.997338 1.629330 0.000018 -0.000001 -0.000024
 26   4.941382 1.997366 -1.629410 -0.000001 0.000005 -0.000024
 27   2.918368 1.615358 1.514501 -0.000019 -0.000022 -0.000050
 28   2.920798 1.614964 -1.501142 -0.000002 -0.000009 -0.000024
 29   8.824059 0.150544 0.091743 0.002145 -0.001560 -0.068257
 30   2.118898 -0.717434 1.647597 0.013634 0.153482 -0.294446
 31   2.121290 -0.522225 -1.884850 0.006941 0.006967 -0.002076
 32   -0.810489 -0.093824 3.127092 0.037635 -3.178284 -0.063981
 33   14.298673 -0.408176 0.475484 0.001231 -0.019364 -0.267522
 34   15.835795 0.581398 0.242756 -0.082836 0.097835 0.134861
 35   -0.815868 -0.091229 -3.114430 -0.040210 3.087848 -0.380152
 36   14.294526 -0.410349 -0.463635 -0.066889 -0.004590 -1.262257
 37   15.834409 0.579420 -0.284600 -0.073198 0.175395 -0.139341
 38   1.045932 -3.438123 -2.823813 -0.003557 -0.017220 -0.083576
 39   -4.266330 -0.929850 -0.632895 0.001798 -0.076606 -0.132124
 40   1.129820 -3.449769 3.155256 0.001116 0.005942 -0.082844
 41   -4.742443 -0.828654 0.951753 -0.001044 -0.048813 -0.132011
 42   -0.657468 1.626987 -2.508921 0.018145 0.063294 0.029275
 43   -0.675787 1.593106 2.756092 -0.014281 -0.054008 0.076407
time 15
  0   1.071576 -45.562996 2.394975 0.000000 0.000000 -1.571069
  1   -1.093036 0.000002 -0.326057 -0.214108 -1.569036 -1.356631
  2   2.262337 0.113614 0.064702 0.050605 0.027793 -0.017541
  3   2.380047 0.353302 0.047440 -0.034772 -0.028372 0.026221
  4   2.033756 0.190472 -0.000128 -0.058713 -0.021081 -0.091875
  5   2.451511 0.204909 -0.003447 0.000839 -0.006324 0.034833
  6   7.247600 -0.397300 -0.109469 0.005154 0.055845 0.156956
  7   -2.022252 -0.104661 3.136172 -0.233599 -1.221564 -2.954622
  8   1.168026 -0.537438 -0.063437 -0.193404 1.146830 -0.396263
  9   6.790376 -0.619176 0.015206 -0.002155 -0.024044 -0.258251
 10   8.637599 0.544015 -0.090417 -1.579007 0.125587 0.009501
 11   6.790465 -0.619039 0.017802 -0.004400 -0.027569 -0.195892
 12   -2.022474 -0.104699 -2.873818 0.116361 1.398805 -3.089828
 13   1.167898 -0.537463 0.063297 -0.488967 -1.148270 0.226733
 14   7.002743 -0.617765 -0.183752 0.041961 -0.005258 -0.209235
 15   8.209042 0.615527 -0.255885 1.501207 -0.131635 -0.031579
 16   7.002735 -0.617911 -0.183641 0.043813 -0.002895 -0.165072
 17   1.574674 0.609930 -0.000899 0.020798 -0.058852 0.158961
 18   -0.602177 0.511412 -0.000006 0.000000 0.000000 0.000000
 19   3.673773 0.177020 1.119313 -0.000002 -0.000014 -0.174510
 20   3.673767 0.176993 -1.117566 0.000007 -0.000003 -0.174546
 21   3.938451 1.330634 1.627658 0.000002 -0.000011 -0.000026
 22   -0.246060 -0.011889 0.516521 -0.000011 0.000031 0.000025
 23   3.938468 1.330659 -1.631083 0.000019 0.000002 -0.000024
 24   -0.246150 -0.011872 -0.516511 -0.000005 -0.000006 0.000048
 25   4.941364 1.997338 1.629330 0.000018 -0.000001 -0.000024
 26   4.941382 1.997366 -1.629410 -0.000001 0.000005 -0.000024
 27   2.918368 1.615358 1.514501 -0.000019 -0.000022 -0.000050
 28   2.920798 1.614964 -1.501142 -0.000002 -0.000009 -0.000024
 29   8.824059 0.150544 0.091743 0.002056 -0.001323 -0.093418
 30   2.138430 -0.654932 1.678848 -0.004524 0.087312 -0.213908
 31   2.121290 -0.580821 -1.861412 0.000276 -0.007123 -0.041615
 32   -0.810489 -0.093824 3.127092 0.053387 -3.176947 0.092441
 33   14.298673 -0.408176 0.475484 -0.009628 -0.016753 -0.110075
 34   15.835795 0.581398 0.242756 -0.084078 0.091417 0.104562
 35   -0.815868 -0.091229 -3.114430 -0.035897 3.094031 -0.479734
 36   14.294526 -0.410349 -0.463635 -0.064037 -0.001558 -1.204865
 37   15.834409 0.579420 -0.284600 -0.027429 0.166795 -0.018417
 38   1.014681 -3.426404 -2.823813 0.000295 0.002326 -0.078567
 39   -4.289768 -0.937663 -0.621176 0.005333 -0.039250 -0.124159
 40   1.176697 -3.457582 3.155256 0.007199 0.036538 -0.077468
 41   -4.711192 -0.848186 0.951753 0.000442 -0.032850 -0.124215
 42   -0.657468 1.603549 -2.555797 0.013674 0.045953 0.039981
 43   -0.675787 1.593106 2.701403 -0.020753 -0.076039 0.075403
time 16
  0   1.028606 -48.581261 2.301223 0.000000 0.000000 -1.571069
  1   -1.093036 0.000002 -0.326057 -0.214108 -1.569036 -1.356631
  2   2.262337 0.113614 0.064702 0.062833 0.021741 -0.018210
  3   2.380047 0.353302 0.047440 -0.045288 -0.018364 0.026874
  4   2.033756 0.190472 -0.000128 -0.073430 -0.023873 -0.091005
  5   2.451511 0.204909 -0.003447 0.000822 -0.006285 0.034833
  6   7.247600 -0.397300 -0.109469 0.005178 0.055462 0.156956
  7   -2.022252 -0.104661 3.136172 -0.240118 -1.218422 -2.947578
  8   1.168026 -0.537438 -0.063437 -0.258646 1.126302 -0.495139
  9   6.790376 -0.619176 0.015206 -0.000435 -0.020374 -0.321795
 10   8.637599 0.544015 -0.090417 -1.601727 0.108693 -0.013287
 11   6.790465 -0.619039 0.017802 -0.003057 -0.025096 -0.240360
 12   -2.022474 -0.104699 -2.873818 0.137342 1.400953 -3.068573
 13   1.167898 -0.537463 0.063297 -0.537048 -1.133370 0.286481
 14   7.002743 -0.617765 -0.183752 0.043783 -0.002362 -0.154864
 15   8.209042 0.615527 -0.255885 1.512784 -0.105230 -0.049440
 16   7.002735 -0.617911 -0.183641 0.045131 -0.000865 -0.126989
 17   1.574674 0.609930 -0.000899 0.034324 -0.061479 0.151200
 18   -0.602177 0.511412 -0.000006 0.000000 0.000000 0.000000
 19   3.677679 0.184833 1.119313 -0.000002 -0.000014 -0.174510
 20   3.677673 0.176993 -1.117566 0.000007 -0.000003 -0.174546
 21   3.938451 1.330634 1.627658 0.000002 -0.000011 -0.000026
 22   -0.246060 -0.011889 0.516521 -0.000011 0.000031 0.000025
 23   3.942374 1.330659 -1.631083 0.000019 0.000002 -0.000024
 24   -0.246150 -0.011872 -0.516511 -0.000005 -0.000006 0.000048
 25   4.941364 1.997338 1.629330 0.000018 -0.000001 -0.000024
 26   4.941382 1.997366 -1.629410 -0.000001 0.000005 -0.000024
 27   2.918368 1.623171 1.514501 -0.000019 -0.000022 -0.000050
 28   2.920798 1.622777 -1.501142 -0.000002 -0.000009 -0.000024
 29   8.824059 0.150544 0.091743 0.001878 -0.001086 -0.118579
 30   2.154055 -0.580711 1.702286 -0.022681 0.021171 -0.133370
 31   2.117383 -0.643323 -1.845786 -0.006374 -0.021239 -0.081154
 32   -0.810489 -0.093824 3.127092 0.063174 -3.175514 0.185053
 33   14.298673 -0.408176 0.475484 -0.012384 -0.015848 -0.071408
 34   15.835795 0.581398 0.242756 -0.088839 0.081753 0.096756
 35   -0.815868 -0.091229 -3.114430 -0.029296 3.104150 -0.533031
 36   14.294526 -0.410349 -0.463635 -0.055816 0.005561 -1.056170
 37   15.834409 0.579420 -0.284600 0.023462 0.141071 0.077461
 38   0.971711 -3.418591 -2.823813 0.004168 0.021884 -0.072763
 39   -4.321019 -0.941569 -0.609457 0.008881 -0.001894 -0.115072
 40   1.219667 -3.461488 3.166975 0.013261 0.067159 -0.071297
 41   -4.679941 -0.863811 0.959566 0.001941 -0.016850 -0.115324
 42   -0.665281 1.580111 -2.606580 0.009216 0.028612 0.050604
 43   -0.675787 1.585293 2.650620 -0.027225 -0.098007 0.073940
time 17
  0   0.989542 -51.599522 2.055121 0.000000 0.000000 -1.571069
  1   -1.093036 0.000002 -0.326057 -0.214108 -1.569036 -1.356631
  2   2.262337 0.113614 0.064702 0.072399 0.019296 -0.020035
  3   2.380047 0.353302 0.047440 -0.054694 -0.013738 0.029282
  4   2.033756 0.190472 -0.000128 -0.086045 -0.025180 -0.088504
  5   2.451511 0.204909 -0.003447 0.000822 -0.006063 0.034833
  6   7.247600 -0.397300 -0.109469 0.005023 0.054048 0.156956
  7   -2.022252 -0.104661 3.136172 -0.247786 -1.218105 -2.938938
  8   1.168026 -0.537438 -0.063437 -0.298323 1.105220 -0.557324
  9   6.790376 -0.619176 0.015206 0.001174 -0.016369 -0.388357
 10   8.637599 0.544015 -0.090417 -1.613792 0.087224 -0.037595
 11   6.790465 -0.619039 0.017802 -0.001714 -0.022396 -0.287019
 12   -2.022474 -0.104699 -2.873818 0.152767 1.400169 -3.052872
 13   1.167898 -0.537463 0.063297 -0.574936 -1.118114 0.343565
 14   7.002743 -0.617765 -0.183752 0.045320 -0.000090 -0.112951
 15   8.209042 0.615527 -0.255885 1.521556 -0.074588 -0.070007
 16   7.002735 -0.617911 -0.183641 0.046214 0.000601 -0.097737
 17   1.574674 0.609930 -0.000899 0.047485 -0.062047 0.141442
 18   -0.602177 0.511412 -0.000006 0.000000 0.000000 0.000000
 19   3.673773 0.177020 1.119313 -0.000002 -0.000014 -0.174510
 20   3.677673 0.184806 -1.117566 0.000007 -0.000003 -0.174546
 21   3.942357 1.330634 1.627658 0.000002 -0.000011 -0.000026
 22   -0.246060 -0.011889 0.516521 -0.000011 0.000031 0.000025
 23   3.942374 1.338472 -1.631083 0.000019 0.000002 -0.000024
 24   -0.246150 -0.011872 -0.516511 -0.000005 -0.000006 0.000048
 25   4.941364 1.997338 1.629330 0.000018 -0.000001 -0.000024
 26   4.941382 1.997366 -1.629410 -0.000001 0.000005 -0.000024
 27   2.918368 1.615358 1.514501 -0.000019 -0.000022 -0.000050
 28   2.920798 1.614964 -1.501142 -0.000002 -0.000009 -0.000024
 29   8.824059 0.150544 0.091743 0.001521 -0.000824 -0.141701
 30   2.169681 -0.529928 1.733537 -0.039360 -0.039594 -0.059350
 31   2.113477 -0.705825 -1.822348 -0.012503 -0.034268 -0.117472
 32   -0.810489 -0.093824 3.127092 0.070444 -3.174177 0.255865
 33   14.298673 -0.408176 0.475484 -0.012408 -0.015848 -0.071408
 34   15.835795 0.581398 0.242756 -0.094958 0.071406 0.090582
 35   -0.815868 -0.091229 -3.114430 -0.022255 3.115017 -0.547109
 36   14.294526 -0.410349 -0.463635 -0.042944 0.013231 -0.850778
 37   15.834409 0.579420 -0.284600 0.064423 0.100682 0.144641
 38   0.940460 -3.414685 -2.823813 0.007704 0.039851 -0.066409
 39   -4.348364 -0.949382 -0.601644 0.012128 0.032406 -0.105115
 40   1.262637 -3.477114 3.166975 0.018860 0.095261 -0.064699
 41   -4.636971 -0.883343 0.959566 0.003331 -0.002169 -0.105564
 42   -0.669187 1.552766 -2.649550 0.005129 0.012682 0.060306
 43   -0.671881 1.581387 2.607650 -0.033172 -0.118202 0.071932
time 18
  0   0.950478 -54.617783 1.738705 0.000000 0.000000 -1.571069
  1   -1.093036 0.000002 -0.326057 -0.214108 -1.569036 -1.356631
  2   2.262337 0.113614 0.064702 0.078946 0.018948 -0.023179
  3   2.380047 0.353302 0.047440 -0.062089 -0.012744 0.033363
  4   2.033756 0.190472 -0.000128 -0.095893 -0.025431 -0.084372
  5   2.451511 0.204909 -0.003447 0.000719 -0.005723 0.034833
  6   7.247600 -0.397300 -0.109469 0.004843 0.051531 0.156956
  7   -2.022252 -0.104661 3.136172 -0.255743 -1.220238 -2.930674
  8   1.168026 -0.537438 -0.063437 -0.313637 1.087308 -0.584779
  9   6.790376 -0.619176 0.015206 0.002339 -0.012231 -0.455372
 10   8.637599 0.544015 -0.090417 -1.610710 0.070260 -0.061686
 11   6.790465 -0.619039 0.017802 -0.000517 -0.019667 -0.334024
 12   -2.022474 -0.104699 -2.873818 0.162731 1.397267 -3.042819
 13   1.167898 -0.537463 0.063297 -0.591737 -1.107893 0.385516
 14   7.002743 -0.617765 -0.183752 0.046459 0.001386 -0.081599
 15   8.209042 0.615527 -0.255885 1.526517 -0.046291 -0.087086
 16   7.002735 -0.617911 -0.183641 0.047061 0.001616 -0.075715
 17   1.574674 0.609930 -0.000899 0.059427 -0.059704 0.130723
 18   -0.602177 0.511412 -0.000006 0.000000 0.000000 0.000000
 19   3.673773 0.177020 1.119313 -0.000002 -0.000014 -0.174510
 20   3.673767 0.176993 -1.117566 0.000007 -0.000003 -0.174546
 21   3.938451 1.330634 1.627658 0.000002 -0.000011 -0.000026
 22   -0.246060 -0.011889 0.516521 -0.000011 0.000031 0.000025
 23   3.938468 1.330659 -1.631083 0.000019 0.000002 -0.000024
 24   -0.246150 -0.011872 -0.516511 -0.000005 -0.000006 0.000048
 25   4.941364 1.997338 1.629330 0.000018 -0.000001 -0.000024
 26   4.941382 1.997366 -1.629410 -0.000001 0.000005 -0.000024
 27   2.918368 1.615358 1.514501 -0.000019 -0.000022 -0.000050
 28   2.920798 1.614964 -1.501142 -0.000002 -0.000009 -0.000024
 29   8.824059 0.150544 0.091743 0.001432 -0.000635 -0.160746
 30   2.181400 -0.479145 1.753069 -0.053110 -0.089664 0.001568
 31   2.113477 -0.760514 -1.802816 -0.017559 -0.044965 -0.147367
 32   -0.810489 -0.093824 3.127092 0.077901 -3.171981 0.325025
 33   14.298673 -0.408176 0.475484 -0.012420 -0.015848 -0.071408
 34   15.835795 0.581398 0.242756 -0.100961 0.056300 0.065884
 35   -0.815868 -0.091229 -3.114430 -0.016358 3.125885 -0.532429
 36   14.294526 -0.410349 -0.463635 -0.027256 0.018348 -0.623835
 37   15.834409 0.579420 -0.284600 0.087534 0.055353 0.180082
 38   0.917022 -3.402966 -2.823813 0.010651 0.054661 -0.059627
 39   -4.379615 -0.953288 -0.589925 0.014825 0.060690 -0.094542
 40   1.293888 -3.481020 3.174788 0.023449 0.118422 -0.057673
 41   -4.605720 -0.902875 0.959566 0.004457 0.009887 -0.095159
 42   -0.677000 1.541047 -2.680801 0.001774 -0.000412 0.068294
 43   -0.671881 1.581387 2.564680 -0.038057 -0.134819 0.069214
time 19
  0   0.895789 -57.643856 1.422289 0.000000 0.000000 -1.571069
  1   -1.093036 0.000002 -0.326057 -0.214108 -1.569036 -1.356631
  2   2.262337 0.113614 0.064702 0.082041 0.019416 -0.026902
  3   2.380047 0.353302 0.047440 -0.067160 -0.013211 0.038199
  4   2.033756 0.190472 -0.000128 -0.102311 -0.025204 -0.079515
  5   2.451511 0.204909 -0.003447 0.000719 -0.005175 0.034833
  6   7.247600 -0.397300 -0.109469 0.004351 0.047684 0.156861
  7   -2.022252 -0.104661 3.136172 -0.263891 -1.224418 -2.922503
  8   1.168026 -0.537438 -0.063437 -0.313637 1.075585 -0.589840
  9   6.790376 -0.619176 0.015206 0.003393 -0.008360 -0.517633
 10   8.637599 0.544015 -0.090417 -1.592833 0.064488 -0.082955
 11   6.790465 -0.619039 0.017802 0.000534 -0.017052 -0.377511
 12   -2.022474 -0.104699 -2.873818 0.165031 1.392362 -3.039755
 13   1.167898 -0.537463 0.063297 -0.587941 -1.101994 0.410759
 14   7.002743 -0.617765 -0.183752 0.047313 0.002295 -0.059652
 15   8.209042 0.615527 -0.255885 1.527596 -0.029268 -0.094603
 16   7.002735 -0.617911 -0.183641 0.047673 0.002293 -0.060371
 17   1.574674 0.609930 -0.000899 0.069460 -0.054781 0.120818
 18   -0.602177 0.511412 -0.000006 0.000000 0.000000 0.000000
 19   3.673773 0.177020 1.119313 -0.000002 -0.000014 -0.174510
 20   3.673767 0.176993 -1.117566 0.000007 -0.000003 -0.174546
 21   3.938451 1.330634 1.627658 0.000002 -0.000011 -0.000026
 22   -0.246060 -0.011889 0.516521 -0.000011 0.000031 0.000025
 23   3.942374 1.330659 -1.631083 0.000019 0.000002 -0.000024
 24   -0.246150 -0.011872 -0.516511 -0.000005 -0.000006 0.000048
 25   4.941364 1.997338 1.629330 0.000018 -0.000001 -0.000024
 26   4.941382 1.997366 -1.629410 -0.000001 0.000005 -0.000024
 27   2.918368 1.623171 1.514501 -0.000019 -0.000022 -0.000050
 28   2.920798 1.614964 -1.501142 -0.000002 -0.000009 -0.000024
 29   8.824059 0.150544 0.091743 0.001165 -0.000468 -0.173729
 30   2.185306 -0.443988 1.772601 -0.062453 -0.123636 0.042952
 31   2.113477 -0.791765 -1.791097 -0.020976 -0.052191 -0.167673
 32   -0.810489 -0.093824 3.127092 0.079486 -3.171694 0.340565
 33   14.298673 -0.408176 0.475484 -0.005816 -0.017826 -0.165813
 34   15.835795 0.581398 0.242756 -0.107609 0.035313 0.048199
 35   -0.815868 -0.091229 -3.114430 -0.011341 3.136847 -0.512217
 36   14.294526 -0.410349 -0.463635 -0.013079 0.019918 -0.429798
 37   15.834409 0.579420 -0.284600 0.092301 0.014503 0.188397
 38   0.897490 -3.402966 -2.816000 0.012629 0.064712 -0.052724
 39   -4.403053 -0.968914 -0.589925 0.016635 0.079865 -0.083576
 40   1.317326 -3.488833 3.178694 0.026585 0.134136 -0.050586
 41   -4.574469 -0.922407 0.959566 0.005224 0.018097 -0.084306
 42   -0.684813 1.529328 -2.700333 -0.000491 -0.009305 0.073689
 43   -0.671881 1.573574 2.541242 -0.041393 -0.146069 0.065785
time 20
  0   0.833287 -60.654308 1.133218 0.000000 0.000000 -1.571069
  1   -1.093036 0.000002 -0.326057 -0.214108 -1.569036 -1.356728
  2   2.262337 0.113614 0.064702 0.081073 0.019691 -0.030010
  3   2.380047 0.353302 0.047440 -0.069050 -0.014266 0.042260
  4   2.033756 0.190472 -0.000128 -0.104635 -0.024377 -0.075419
  5   2.451511 0.204909 -0.003447 0.000719 -0.004418 0.034833
  6   7.247600 -0.397300 -0.109469 0.003920 0.042327 0.156861
  7   -2.022252 -0.104661 3.136172 -0.272038 -1.230991 -2.914615
  8   1.168026 -0.537438 -0.063437 -0.302816 1.070956 -0.581110
  9   6.790376 -0.619176 0.015206 0.003837 -0.005023 -0.569479
 10   8.637599 0.544015 -0.090417 -1.563948 0.072231 -0.098075
 11   6.790465 -0.619039 0.017802 0.001264 -0.014863 -0.413846
 12   -2.022474 -0.104699 -2.873818 0.160719 1.385222 -3.043968
 13   1.167898 -0.537463 0.063297 -0.576834 -1.099502 0.430614
 14   7.002743 -0.617765 -0.183752 0.047882 0.003090 -0.044636
 15   8.209042 0.615527 -0.255885 1.523353 -0.028814 -0.087146
 16   7.002735 -0.617911 -0.183641 0.048097 0.002744 -0.049829
 17   1.574674 0.609930 -0.000899 0.076325 -0.047917 0.114423
 18   -0.602177 0.511412 -0.000006 0.000000 0.000000 0.000000
 19   3.677679 0.184833 1.119313 -0.000002 -0.000014 -0.174510
 20   3.673767 0.184806 -1.117566 0.000007 -0.000003 -0.174546
 21   3.938451 1.338447 1.627658 0.000002 -0.000011 -0.000026
 22   -0.246060 -0.011889 0.516521 -0.000011 0.000031 0.000025
 23   3.942374 1.338472 -1.631083 0.000019 0.000002 -0.000024
 24   -0.246150 -0.011872 -0.516511 -0.000005 -0.000006 0.000048
 25   4.941364 1.997338 1.629330 0.000018 -0.000001 -0.000024
 26   4.941382 1.997366 -1.629410 -0.000001 0.000005 -0.000024
 27   2.918368 1.623171 1.514501 -0.000019 -0.000022 -0.000050
 28   2.924704 1.622777 -1.501142 -0.000002 -0.000009 -0.000024
 29   8.824059 0.150544 0.091743 0.000897 -0.000373 -0.178289
 30   2.193119 -0.428362 1.776507 -0.065897 -0.136132 0.058198
 31   2.113477 -0.803484 -1.783284 -0.022232 -0.054859 -0.175170
 32   -0.810489 -0.093824 3.127092 0.081909 -3.169975 0.367375
 33   14.298673 -0.408176 0.475484 -0.000903 -0.018911 -0.235048
 34   15.835795 0.581398 0.242756 -0.109771 0.005003 -0.005033
 35   -0.815868 -0.091229 -3.114430 -0.009405 3.147715 -0.464397
 36   14.294526 -0.410349 -0.463635 0.002214 0.018516 -0.219076
 37   15.834409 0.579420 -0.284600 0.082569 -0.008661 0.114220
 38   0.885771 -3.399060 -2.816000 0.013366 0.068399 -0.045637
 39   -4.414772 -0.972820 -0.582112 0.017306 0.086936 -0.072470
 40   1.325139 -3.488833 3.186507 0.027722 0.139945 -0.043438
 41   -4.543218 -0.945845 0.959566 0.005524 0.021129 -0.073255
 42   -0.684813 1.521515 -2.712052 -0.001330 -0.012586 0.075654
 43   -0.671881 1.573574 2.533429 -0.042605 -0.150228 0.061435
time 21
  0   0.751253 -63.672569 0.933993 0.000000 0.000000 -1.571069
  1   -1.093036 0.000002 -0.326057 -0.214108 -1.569036 -1.356728
  2   2.262337 0.113614 0.064702 0.076080 0.019236 -0.031799
  3   2.380047 0.353302 0.047440 -0.067460 -0.014961 0.044790
  4   2.033756 0.190472 -0.000128 -0.102606 -0.022807 -0.072918
  5   2.451511 0.204909 -0.003447 0.000685 -0.003452 0.034833
  6   7.247600 -0.397300 -0.109469 0.003309 0.035268 0.156861
  7   -2.022252 -0.104661 3.136172 -0.280091 -1.240273 -2.907290
  8   1.168026 -0.537438 -0.063437 -0.277820 1.073019 -0.555869
  9   6.790376 -0.619176 0.015206 0.004281 -0.002754 -0.606609
 10   8.637599 0.544015 -0.090417 -1.525287 0.086168 -0.103139
 11   6.790465 -0.619039 0.017802 0.001731 -0.013243 -0.439800
 12   -2.022474 -0.104699 -2.873818 0.149414 1.375673 -3.055074
 13   1.167898 -0.537463 0.063297 -0.553075 -1.103723 0.433520
 14   7.002743 -0.617765 -0.183752 0.048223 0.003430 -0.035973
 15   8.209042 0.615527 -0.255885 1.511561 -0.041297 -0.061347
 16   7.002735 -0.617911 -0.183641 0.048332 0.003026 -0.043758
 17   1.574674 0.609930 -0.000899 0.079494 -0.039468 0.111688
 18   -0.602177 0.511412 -0.000006 0.000000 0.000000 0.000000
 19   3.677679 0.184833 1.119313 -0.000002 -0.000014 -0.174510
 20   3.673767 0.176993 -1.117566 0.000007 -0.000003 -0.174546
 21   3.938451 1.338447 1.627658 0.000002 -0.000011 -0.000026
 22   -0.246060 -0.011889 0.516521 -0.000011 0.000031 0.000025
 23   3.938468 1.330659 -1.631083 0.000019 0.000002 -0.000024
 24   -0.246150 -0.011872 -0.516511 -0.000005 -0.000006 0.000048
 25   4.941364 1.997338 1.629330 0.000018 -0.000001 -0.000024
 26   4.941382 1.997366 -1.629410 -0.000001 0.000005 -0.000024
 27   2.918368 1.615358 1.514501 -0.000019 -0.000022 -0.000050
 28   2.920798 1.614964 -1.501142 -0.000002 -0.000009 -0.000024
 29   8.824059 0.150544 0.091743 0.000719 -0.000350 -0.178236
 30   2.193119 -0.436175 1.776507 -0.064053 -0.132354 0.056568
 31   2.113477 -0.799578 -1.791097 -0.021604 -0.053357 -0.170239
 32   -0.810489 -0.093824 3.127092 0.084053 -3.167778 0.394413
 33   14.298673 -0.408176 0.475484 0.004155 -0.019648 -0.304601
 34   15.835795 0.581398 0.242756 -0.106597 -0.026868 -0.054207
 35   -0.815868 -0.091229 -3.114430 -0.009405 3.155491 -0.421727
 36   14.294526 -0.410349 -0.463635 0.012569 0.015652 -0.071385
 37   15.834409 0.579420 -0.284600 0.064699 -0.006255 -0.049243
 38   0.897490 -3.402966 -2.816000 0.012987 0.066483 -0.038672
 39   -4.426491 -0.984539 -0.589925 0.016814 0.084491 -0.061448
 40   1.317326 -3.488833 3.190413 0.026943 0.136004 -0.036596
 41   -4.511967 -0.965377 0.959566 0.005356 0.020530 -0.062262
 42   -0.684813 1.529328 -2.712052 -0.001294 -0.012249 0.073563
 43   -0.671881 1.581387 2.541242 -0.041418 -0.146022 0.055831
time 22
  0   0.645781 -66.690826 0.816802 0.000000 0.000000 -1.571069
  1   -1.093036 0.000002 -0.326057 -0.214108 -1.569036 -1.356728
  2   2.262337 0.113614 0.064702 0.067877 0.017247 -0.032305
  3   2.380047 0.353302 0.047440 -0.062494 -0.014110 0.045627
  4   2.033756 0.190472 -0.000128 -0.096428 -0.020494 -0.072084
  5   2.451511 0.204909 -0.003447 0.000582 -0.002159 0.034833
  6   7.247600 -0.397300 -0.109469 0.002458 0.026207 0.156861
  7   -2.022252 -0.104661 3.136172 -0.289676 -1.252553 -2.899495
  8   1.168026 -0.537438 -0.063437 -0.238523 1.081321 -0.515066
  9   6.790376 -0.619176 0.015206 0.004281 -0.001486 -0.626004
 10   8.637599 0.544015 -0.090417 -1.494024 0.102710 -0.099522
 11   6.790465 -0.619039 0.017802 0.001965 -0.012447 -0.453411
 12   -2.022474 -0.104699 -2.873818 0.132744 1.363367 -3.071733
 13   1.167898 -0.537463 0.063297 -0.530159 -1.112622 0.427890
 14   7.002743 -0.617765 -0.183752 0.048280 0.003601 -0.032508
 15   8.209042 0.615527 -0.255885 1.488696 -0.055975 -0.015823
 16   7.002735 -0.617911 -0.183641 0.048474 0.003139 -0.041440
 17   1.574674 0.609930 -0.000899 0.078519 -0.029931 0.112280
 18   -0.602177 0.511412 -0.000006 0.000000 0.000000 0.000000
 19   3.673773 0.184833 1.119313 -0.000002 -0.000014 -0.174510
 20   3.673767 0.176993 -1.117566 0.000007 -0.000003 -0.174546
 21   3.938451 1.338447 1.627658 0.000002 -0.000011 -0.000026
 22   -0.246060 -0.011889 0.516521 -0.000011 0.000031 0.000025
 23   3.938468 1.330659 -1.631083 0.000019 0.000002 -0.000024
 24   -0.246150 -0.011872 -0.516511 -0.000005 -0.000006 0.000048
 25   4.941364 1.997338 1.629330 0.000018 -0.000001 -0.000024
 26   4.941382 1.997366 -1.629410 -0.000001 0.000005 -0.000024
 27   2.918368 1.615358 1.514501 -0.000019 -0.000022 -0.000050
 28   2.920798 1.614964 -1.501142 -0.000002 -0.000009 -0.000024
 29   8.824059 0.150544 0.091743 0.000630 -0.000278 -0.177914
 30   2.185306 -0.443988 1.784320 -0.059036 -0.122037 0.052151
 31   2.113477 -0.780046 -1.791097 -0.019934 -0.049187 -0.156938
 32   -0.810489 -0.093824 3.127092 0.083773 -3.163576 0.407391
 33   14.298673 -0.408176 0.475484 0.008925 -0.020023 -0.369866
 34   15.835795 0.581398 0.242756 -0.092934 -0.063791 -0.121684
 35   -0.815868 -0.091229 -3.114430 -0.006676 3.159801 -0.427095
 36   14.294526 -0.410349 -0.463635 0.012569 0.015652 -0.071385
 37   15.834409 0.579420 -0.284600 0.054631 -0.029112 -0.082200
 38   0.917022 -3.402966 -2.823813 0.011977 0.061289 -0.031829
 39   -4.438210 -0.996258 -0.601644 0.015496 0.077900 -0.050707
 40   1.305607 -3.488833 3.198226 0.024838 0.125375 -0.029936
 41   -4.496342 -0.984909 0.959566 0.004949 0.018924 -0.051492
 42   -0.684813 1.541047 -2.708146 -0.001198 -0.011283 0.067792
 43   -0.664068 1.585293 2.564680 -0.038182 -0.134615 0.048931
time 23
  0   0.501245 -69.712997 0.824615 0.000000 0.000000 -1.571069
  1   -1.093036 0.000002 -0.326057 -0.214108 -1.569036 -1.356728
  2   2.262337 0.113614 0.064702 0.057687 0.009217 -0.031311
  3   2.380047 0.353302 0.047440 -0.054259 -0.004954 0.044892
  4   2.033756 0.190472 -0.000128 -0.086801 -0.017318 -0.072918
  5   2.451511 0.204909 -0.003447 0.000428 -0.000619 0.034833
  6   7.247600 -0.397300 -0.109469 0.001391 0.015241 0.156829
  7   -2.022252 -0.104661 3.136172 -0.300317 -1.267917 -2.889540
  8   1.168026 -0.537438 -0.063437 -0.187329 1.096415 -0.461358
  9   6.790376 -0.619176 0.015206 0.004281 -0.001419 -0.627287
 10   8.637599 0.544015 -0.090417 -1.478877 0.120378 -0.091781
 11   6.790465 -0.619039 0.017802 0.001965 -0.012390 -0.454334
 12   -2.022474 -0.104699 -2.873818 0.112433 1.348187 -3.092030
 13   1.167898 -0.537463 0.063297 -0.500776 -1.124929 0.406703
 14   7.002743 -0.617765 -0.183752 0.048280 0.003601 -0.033663
 15   8.209042 0.615527 -0.255885 1.451810 -0.065282 0.039503
 16   7.002735 -0.617911 -0.183641 0.048474 0.003139 -0.042213
 17   1.574674 0.609930 -0.000899 0.072507 -0.021174 0.115310
 18   -0.602177 0.511412 -0.000006 0.000000 0.000000 0.000000
 19   3.673773 0.177020 1.119313 -0.000002 -0.000014 -0.174510
 20   3.673767 0.176993 -1.117566 0.000007 -0.000003 -0.174546
 21   3.938451 1.330634 1.627658 0.000002 -0.000011 -0.000026
 22   -0.246060 -0.011889 0.516521 -0.000011 0.000031 0.000025
 23   3.942374 1.330659 -1.631083 0.000019 0.000002 -0.000024
 24   -0.246150 -0.011872 -0.516511 -0.000005 -0.000006 0.000048
 25   4.941364 1.997338 1.629330 0.000018 -0.000001 -0.000024
 26   4.941382 1.997366 -1.629410 -0.000001 0.000005 -0.000024
 27   2.918368 1.615358 1.514501 -0.000019 -0.000022 -0.000050
 28   2.920798 1.614964 -1.501142 -0.000002 -0.000009 -0.000024
 29   8.824059 0.150544 0.091743 0.000452 -0.000255 -0.177485
 30   2.173587 -0.455707 1.784320 -0.051659 -0.106868 0.045632
 31   2.113477 -0.748795 -1.802816 -0.017421 -0.042996 -0.137305
 32   -0.810489 -0.093824 3.127092 0.077901 -3.158133 0.370676
 33   14.298673 -0.408176 0.475484 0.017410 -0.019893 -0.485708
 34   15.835795 0.581398 0.242756 -0.071059 -0.095467 -0.165478
 35   -0.815868 -0.091229 -3.114430 -0.001923 3.162237 -0.466588
 36   14.294526 -0.410349 -0.463635 0.002334 0.018492 -0.217531
 37   15.834409 0.579420 -0.284600 0.055222 -0.070807 -0.014310
 38   0.940460 -3.410779 -2.823813 0.010461 0.053625 -0.025353
 39   -4.446023 -1.011884 -0.621176 0.013567 0.068156 -0.040470
 40   1.282169 -3.481020 3.206039 0.021744 0.109710 -0.023766
 41   -4.476810 -0.996628 0.959566 0.004313 0.016563 -0.041171
 42   -0.677000 1.560579 -2.700333 -0.001055 -0.009857 0.059302
 43   -0.664068 1.604825 2.607650 -0.033397 -0.117794 0.041110
time 24
  0   0.321552 -72.731262 0.976963 0.000000 0.000000 -1.571069
  1   -1.093036 0.000002 -0.326057 -0.214108 -1.569036 -1.356728
  2   2.262337 0.113614 0.064702 0.046287 -0.009239 -0.028944
  3   2.380047 0.353302 0.047440 -0.042438 0.018368 0.042811
  4   2.033756 0.190472 -0.000128 -0.074352 -0.013291 -0.075020
  5   2.451511 0.204909 -0.003447 0.000291 0.001105 0.034833
  6   7.247600 -0.397300 -0.109469 0.000229 0.002622 0.156829
  7   -2.022252 -0.104661 3.136172 -0.314312 -1.286049 -2.876955
  8   1.168026 -0.537438 -0.063437 -0.123732 1.117849 -0.396010
  9   6.790376 -0.619176 0.015206 0.004281 -0.002421 -0.611590
 10   8.637599 0.544015 -0.090417 -1.476235 0.137694 -0.076661
 11   6.790465 -0.619039 0.017802 0.001731 -0.013044 -0.443318
 12   -2.022474 -0.104699 -2.873818 0.090684 1.330018 -3.113572
 13   1.167898 -0.537463 0.063297 -0.452203 -1.135862 0.360999
 14   7.002743 -0.617765 -0.183752 0.048223 0.003317 -0.038943
 15   8.209042 0.615527 -0.255885 1.399896 -0.068157 0.074082
 16   7.002735 -0.617911 -0.183641 0.048285 0.002857 -0.045911
 17   1.574674 0.609930 -0.000899 0.061133 -0.014997 0.122000
 18   -0.602177 0.511412 -0.000006 0.000000 0.000000 0.000000
 19   3.673773 0.177020 1.119313 -0.000002 -0.000014 -0.174510
 20   3.673767 0.184806 -1.117566 0.000007 -0.000003 -0.174546
 21   3.938451 1.330634 1.627658 0.000002 -0.000011 -0.000026
 22   -0.246060 -0.011889 0.516521 -0.000011 0.000031 0.000025
 23   3.942374 1.330659 -1.631083 0.000019 0.000002 -0.000024
 24   -0.246150 -0.011872 -0.516511 -0.000005 -0.000006 0.000048
 25   4.941364 1.997338 1.629330 0.000018 -0.000001 -0.000024
 26   4.941382 1.997366 -1.629410 -0.000001 0.000005 -0.000024
 27   2.918368 1.615358 1.514501 -0.000019 -0.000022 -0.000050
 28   2.920798 1.614964 -1.501142 -0.000002 -0.000009 -0.000024
 29   8.824059 0.150544 0.091743 0.000273 -0.000255 -0.177002
 30   2.165774 -0.479145 1.784320 -0.042696 -0.088444 0.037720
 31   2.113477 -0.717544 -1.814535 -0.014403 -0.035563 -0.113487
 32   -0.810489 -0.093824 3.127092 0.063547 -3.149633 0.249034
 33   14.298673 -0.408176 0.475484 0.033229 -0.016998 -0.705958
 34   15.835795 0.581398 0.242756 -0.035222 -0.128241 -0.212447
 35   -0.815868 -0.091229 -3.114430 0.001157 3.164017 -0.488718
 36   14.294526 -0.410349 -0.463635 -0.008824 0.019846 -0.371247
 37   15.834409 0.579420 -0.284600 0.064167 -0.077436 -0.034743
 38   0.979524 -3.418591 -2.823813 0.008651 0.044322 -0.019366
 39   -4.449929 -1.015790 -0.640708 0.011218 0.056340 -0.030963
 40   1.250918 -3.477114 3.217758 0.017955 0.090682 -0.018023
 41   -4.461185 -1.016160 0.959566 0.003558 0.013674 -0.031523
 42   -0.677000 1.584017 -2.700333 -0.000875 -0.008155 0.049014
 43   -0.664068 1.616544 2.650620 -0.027612 -0.097348 0.032913
time 25
  0   0.122327 -75.745613 1.246503 0.000000 0.000000 -1.571069
  1   -1.093036 0.000002 -0.326057 -0.214108 -1.569036 -1.356728
  2   2.262337 0.113614 0.064702 0.033613 -0.032238 -0.025908
  3   2.380047 0.353302 0.047440 -0.028382 0.047479 0.039648
  4   2.033756 0.190472 -0.000128 -0.059764 -0.008401 -0.078246
  5   2.451511 0.204909 -0.003447 0.000137 0.002972 0.034833
  6   7.247600 -0.397300 -0.109469 -0.000898 -0.010621 0.156829
  7   -2.022252 -0.104661 3.136172 -0.329937 -1.305766 -2.862962
  8   1.168026 -0.537438 -0.063437 -0.042733 1.141849 -0.312443
  9   6.790376 -0.619176 0.015206 0.003948 -0.004556 -0.576724
 10   8.637599 0.544015 -0.090417 -1.480286 0.151772 -0.049749
 11   6.790465 -0.619039 0.017802 0.001410 -0.014522 -0.418864
 12   -2.022474 -0.104699 -2.873818 0.070373 1.310311 -3.133965
 13   1.167898 -0.537463 0.063297 -0.386970 -1.142524 0.290234
 14   7.002743 -0.617765 -0.183752 0.047483 0.002522 -0.054289
 15   8.209042 0.615527 -0.255885 1.337988 -0.066795 0.086952
 16   7.002735 -0.617911 -0.183641 0.047862 0.002462 -0.056618
 17   1.574674 0.609930 -0.000899 0.046185 -0.010098 0.135343
 18   -0.602177 0.511412 -0.000006 0.000000 0.000000 0.000000
 19   3.677679 0.177020 1.119313 -0.000002 -0.000014 -0.174510
 20   3.673767 0.176993 -1.117566 0.000007 -0.000003 -0.174546
 21   3.938451 1.330634 1.627658 0.000002 -0.000011 -0.000026
 22   -0.246060 -0.011889 0.516521 -0.000011 0.000031 0.000025
 23   3.942374 1.338472 -1.631083 0.000019 0.000002 -0.000024
 24   -0.246150 -0.011872 -0.516511 -0.000005 -0.000006 0.000048
 25   4.941364 1.997338 1.629330 0.000018 -0.000001 -0.000024
 26   4.941382 1.997366 -1.629410 -0.000001 0.000005 -0.000024
 27   2.918368 1.615358 1.514501 -0.000019 -0.000022 -0.000050
 28   2.920798 1.614964 -1.501142 -0.000002 -0.000009 -0.000024
 29   8.824059 0.150544 0.091743 0.000184 -0.000231 -0.176412
 30   2.150149 -0.498677 1.784320 -0.032946 -0.068392 0.029100
 31   2.117383 -0.678480 -1.822348 -0.011124 -0.027430 -0.087577
 32   -0.810489 -0.093824 3.127092 0.048540 -3.134638 0.076958
 33   14.298673 -0.408176 0.475484 0.049480 -0.009799 -0.947408
 34   15.835795 0.581398 0.242756 0.018718 -0.160039 -0.311634
 35   -0.815868 -0.091229 -3.114430 0.001509 3.167109 -0.475298
 36   14.294526 -0.410349 -0.463635 -0.015787 0.019834 -0.466566
 37   15.834409 0.579420 -0.284600 0.073762 -0.078332 -0.035807
 38   1.014681 -3.426404 -2.823813 0.006694 0.034212 -0.013990
 39   -4.457742 -1.027509 -0.664146 0.008653 0.043456 -0.022352
 40   1.219667 -3.469301 3.221664 0.013829 0.069967 -0.012891
 41   -4.453372 -1.027879 0.959566 0.002743 0.010546 -0.022801
 42   -0.665281 1.615268 -2.700333 -0.000659 -0.006300 0.037806
 43   -0.664068 1.636076 2.701403 -0.021290 -0.075113 0.024716
time 26
  0   -0.033928 -78.763878 1.570732 0.000000 0.000000 -1.571069
  1   -1.093036 0.000002 -0.326057 -0.214108 -1.569036 -1.356728
  2   2.262337 0.113614 0.064702 0.019220 -0.047302 -0.023324
  3   2.380047 0.353302 0.047440 -0.014176 0.064845 0.035873
  4   2.033756 0.190472 -0.000128 -0.043627 -0.002816 -0.082161
  5   2.451511 0.204909 -0.003447 0.000086 0.004760 0.034833
  6   7.247600 -0.397300 -0.109469 -0.001988 -0.023217 0.156829
  7   -2.022252 -0.104661 3.136172 -0.347287 -1.325656 -2.847091
  8   1.168026 -0.537438 -0.063437 0.058326 1.160415 -0.206039
  9   6.790376 -0.619176 0.015206 0.003393 -0.008360 -0.517935
 10   8.637599 0.544015 -0.090417 -1.486891 0.159726 -0.015747
 11   6.790465 -0.619039 0.017802 0.000534 -0.016995 -0.377741
 12   -2.022474 -0.104699 -2.873818 0.051595 1.290430 -3.152826
 13   1.167898 -0.537463 0.063297 -0.314356 -1.147202 0.199916
 14   7.002743 -0.617765 -0.183752 0.046629 0.001613 -0.076731
 15   8.209042 0.615527 -0.255885 1.302755 -0.062331 0.093627
 16   7.002735 -0.617911 -0.183641 0.047250 0.001785 -0.072293
 17   1.574674 0.609930 -0.000899 0.031602 -0.002737 0.151976
 18   -0.602177 0.511412 -0.000006 0.000000 0.000000 0.000000
 19   3.673773 0.184833 1.119313 -0.000002 -0.000014 -0.174510
 20   3.673767 0.176993 -1.117566 0.000007 -0.000003 -0.174546
 21   3.938451 1.330634 1.627658 0.000002 -0.000011 -0.000026
 22   -0.246060 -0.011889 0.516521 -0.000011 0.000031 0.000025
 23   3.938468 1.330659 -1.631083 0.000019 0.000002 -0.000024
 24   -0.246150 -0.011872 -0.516511 -0.000005 -0.000006 0.000048
 25   4.941364 1.997338 1.629330 0.000018 -0.000001 -0.000024
 26   4.941382 1.997366 -1.629410 -0.000001 0.000005 -0.000024
 27   2.918368 1.615358 1.514501 -0.000019 -0.000022 -0.000050
 28   2.920798 1.614964 -1.501142 -0.000002 -0.000009 -0.000024
 29   8.824059 0.150544 0.091743 0.000006 -0.000231 -0.175822
 30   2.138430 -0.518209 1.784320 -0.023196 -0.048341 0.020502
 31   2.117383 -0.643323 -1.834067 -0.007814 -0.019297 -0.061630
 32   -0.810489 -0.093824 3.127092 0.040058 -3.117065 -0.096825
 33   14.298673 -0.408176 0.475484 0.060255 -0.002174 -1.131929
 34   15.835795 0.581398 0.242756 0.072657 -0.177634 -0.410468
 35   -0.815868 -0.091229 -3.114430 -0.004476 3.171980 -0.400090
 36   14.294526 -0.410349 -0.463635 -0.015883 0.019834 -0.467184
 37   15.834409 0.579420 -0.284600 0.079180 -0.084475 0.014743
 38   1.053745 -3.434217 -2.823813 0.004694 0.024065 -0.009224
 39   -4.457742 -1.035322 -0.695397 0.006076 0.030597 -0.014836
 40   1.188416 -3.461488 3.229477 0.009746 0.049252 -0.008492
 41   -4.437746 -1.039598 0.959566 0.001941 0.007418 -0.015145
 42   -0.665281 1.634800 -2.696427 -0.000455 -0.004414 0.026640
 43   -0.664068 1.659514 2.756092 -0.014993 -0.052862 0.017021
time 27
  0   -0.119868 -81.782143 1.894960 0.000000 0.000000 -1.571069
  1   -1.093036 0.000002 -0.326057 -0.214108 -1.569036 -1.356728
  2   2.262337 0.113614 0.064702 0.003591 -0.052516 -0.021047
  3   2.380047 0.353302 0.047440 -0.000495 0.067925 0.032057
  4   2.033756 0.190472 -0.000128 -0.026586 0.002972 -0.086003
  5   2.451511 0.204909 -0.003447 0.000000 0.006249 0.034833
  6   7.247600 -0.397300 -0.109469 -0.002959 -0.033632 0.156861
  7   -2.022252 -0.104661 3.136172 -0.363295 -1.343817 -2.832534
  8   1.168026 -0.537438 -0.063437 0.168497 1.169572 -0.088438
  9   6.790376 -0.619176 0.015206 0.002006 -0.013232 -0.439977
 10   8.637599 0.544015 -0.090417 -1.495345 0.160571 0.013191
 11   6.790465 -0.619039 0.017802 -0.000721 -0.020264 -0.323066
 12   -2.022474 -0.104699 -2.873818 0.034925 1.272435 -3.169868
 13   1.167898 -0.537463 0.063297 -0.234713 -1.151118 0.091559
 14   7.002743 -0.617765 -0.183752 0.045377 -0.000034 -0.110146
 15   8.209042 0.615527 -0.255885 1.339929 -0.055446 0.088876
 16   7.002735 -0.617911 -0.183641 0.046308 0.000714 -0.095750
 17   1.574674 0.609930 -0.000899 0.018076 0.006729 0.161734
 18   -0.602177 0.511412 -0.000006 0.000000 0.000000 0.000000
 19   3.673773 0.177020 1.119313 -0.000002 -0.000014 -0.174510
 20   3.673767 0.184806 -1.117566 0.000007 -0.000003 -0.174546
 21   3.938451 1.330634 1.627658 0.000002 -0.000011 -0.000026
 22   -0.246060 -0.011889 0.516521 -0.000011 0.000031 0.000025
 23   3.938468 1.330659 -1.631083 0.000019 0.000002 -0.000024
 24   -0.246150 -0.011872 -0.516511 -0.000005 -0.000006 0.000048
 25   4.941364 1.997338 1.629330 0.000018 -0.000001 -0.000024
 26   4.941382 1.997366 -1.629410 -0.000001 0.000005 -0.000024
 27   2.918368 1.615358 1.514501 -0.000019 -0.000022 -0.000050
 28   2.920798 1.614964 -1.501142 -0.000002 -0.000009 -0.000024
 29   8.824059 0.150544 0.091743 0.000006 -0.000231 -0.175339
 30   2.122804 -0.533834 1.784320 -0.014233 -0.029917 0.012589
 31   2.121290 -0.612072 -1.845786 -0.004796 -0.011837 -0.037812
 32   -0.810489 -0.093824 3.127092 0.036982 -3.104936 -0.244879
 33   14.298673 -0.408176 0.475484 0.066319 0.003784 -1.246818
 34   15.835795 0.581398 0.242756 0.096303 -0.180880 -0.385726
 35   -0.815868 -0.091229 -3.114430 -0.013013 3.176384 -0.304232
 36   14.294526 -0.410349 -0.463635 -0.013306 0.019942 -0.432810
 37   15.834409 0.579420 -0.284600 0.082628 -0.094022 0.075078
 38   1.088902 -3.445936 -2.823813 0.002884 0.014774 -0.005314
 39   -4.457742 -1.047041 -0.714929 0.003727 0.018780 -0.008610
 40   1.157165 -3.457582 3.237290 0.005978 0.030224 -0.004949
 41   -4.433840 -1.051317 0.959566 0.001173 0.004542 -0.008834
 42   -0.657468 1.666051 -2.688614 -0.000288 -0.002712 0.016310
 43   -0.664068 1.671233 2.799062 -0.009196 -0.032448 0.010204
time 28
  0   -0.147213 -84.800400 2.172312 0.000000 0.000000 -1.571069
  1   -1.093036 0.000002 -0.326057 -0.214108 -1.569036 -1.356728
  2   2.262337 0.113614 0.064702 -0.012280 -0.050406 -0.019276
  3   2.380047 0.353302 0.047440 0.012361 0.061141 0.028833
  4   2.033756 0.190472 -0.000128 -0.009176 0.008653 -0.089120
  5   2.451511 0.204909 -0.003447 0.000000 0.007267 0.034833
  6   7.247600 -0.397300 -0.109469 -0.003618 -0.040858 0.156861
  7   -2.022252 -0.104661 3.136172 -0.375086 -1.358720 -2.822485
  8   1.168026 -0.537438 -0.063437 0.269556 1.169421 0.021635
  9   6.790376 -0.619176 0.015206 0.000342 -0.018371 -0.354321
 10   8.637599 0.544015 -0.090417 -1.506529 0.154869 0.032941
 11   6.790465 -0.619039 0.017802 -0.002327 -0.023817 -0.263141
 12   -2.022474 -0.104699 -2.873818 0.020649 1.257981 -3.184420
 13   1.167898 -0.537463 0.063297 -0.146564 -1.151321 -0.032659
 14   7.002743 -0.617765 -0.183752 0.043783 -0.002362 -0.155194
 15   8.209042 0.615527 -0.255885 1.399249 -0.044551 0.076247
 16   7.002735 -0.617911 -0.183641 0.045131 -0.000865 -0.127265
 17   1.574674 0.609930 -0.000899 0.005199 0.016882 0.165614
 18   -0.602177 0.511412 -0.000006 0.000000 0.000000 0.000000
 19   3.673773 0.184833 1.119313 -0.000002 -0.000014 -0.174510
 20   3.673767 0.176993 -1.117566 0.000007 -0.000003 -0.174546
 21   3.938451 1.330634 1.627658 0.000002 -0.000011 -0.000026
 22   -0.246060 -0.011889 0.516521 -0.000011 0.000031 0.000025
 23   3.938468 1.330659 -1.631083 0.000019 0.000002 -0.000024
 24   -0.246150 -0.011872 -0.516511 -0.000005 -0.000006 0.000048
 25   4.941364 1.997338 1.629330 0.000018 -0.000001 -0.000024
 26   4.941382 1.997366 -1.629410 -0.000001 0.000005 -0.000024
 27   2.918368 1.615358 1.514501 -0.000019 -0.000022 -0.000050
 28   2.920798 1.614964 -1.501142 -0.000002 -0.000009 -0.000024
 29   8.824059 0.150544 0.091743 0.000006 -0.000231 -0.174910
 30   2.118898 -0.553366 1.784320 -0.006856 -0.014747 0.006071
 31   2.121290 -0.580821 -1.853599 -0.002314 -0.005672 -0.018216
 32   -0.810489 -0.093824 3.127092 0.035491 -3.101307 -0.346713
 33   14.298673 -0.408176 0.475484 0.068105 0.005852 -1.283738
 34   15.835795 0.581398 0.242756 0.074566 -0.175511 -0.209095
 35   -0.815868 -0.091229 -3.114430 -0.024103 3.179476 -0.192489
 36   14.294526 -0.410349 -0.463635 -0.008333 0.019882 -0.365994
 37   15.834409 0.579420 -0.284600 0.085268 -0.100037 0.114879
 38   1.120153 -3.449842 -2.823813 0.001368 0.007110 -0.002443
 39   -4.457742 -1.054854 -0.734461 0.001798 0.009024 -0.003982
 40   1.137633 -3.449769 3.237290 0.002884 0.014534 -0.002199
 41   -4.433840 -1.059130 0.959566 0.000550 0.002181 -0.004067
 42   -0.657468 1.685583 -2.688614 -0.000132 -0.001286 0.007862
 43   -0.664068 1.690765 2.834219 -0.004423 -0.015611 0.004809
time 29
  0   -0.127681 -87.818665 2.340286 0.000000 0.000000 -1.571069
  1   -1.093036 0.000002 -0.326057 -0.214108 -1.569036 -1.356728
  2   2.262337 0.113614 0.064702 -0.027922 -0.041430 -0.017975
  3   2.380047 0.353302 0.047440 0.024242 0.045130 0.026772
  4   2.033756 0.190472 -0.000128 0.007810 0.013399 -0.091295
  5   2.451511 0.204909 -0.003447 -0.000103 0.007841 0.034833
  6   7.247600 -0.397300 -0.109469 -0.004122 -0.044981 0.156861
  7   -2.022252 -0.104661 3.136172 -0.379975 -1.369645 -2.818541
  8   1.168026 -0.537438 -0.063437 0.343974 1.161572 0.106721
  9   6.790376 -0.619176 0.015206 -0.001711 -0.023244 -0.273043
 10   8.637599 0.544015 -0.090417 -1.519651 0.144592 0.039018
 11   6.790465 -0.619039 0.017802 -0.004079 -0.027029 -0.206332
 12   -2.022474 -0.104699 -2.873818 0.008195 1.247590 -3.197632
 13   1.167898 -0.537463 0.063297 -0.054619 -1.146134 -0.163172
 14   7.002743 -0.617765 -0.183752 0.041847 -0.005258 -0.209895
 15   8.209042 0.615527 -0.255885 1.463890 -0.029419 0.058447
 16   7.002735 -0.617911 -0.183641 0.043813 -0.002895 -0.165624
 17   1.574674 0.609930 -0.000899 -0.006377 0.027391 0.165097
 18   -0.602177 0.511412 -0.000006 0.000000 0.000000 0.000000
 19   3.677679 0.177020 1.119313 -0.000002 -0.000014 -0.174510
 20   3.673767 0.184806 -1.117566 0.000007 -0.000003 -0.174546
 21   3.942357 1.330634 1.627658 0.000002 -0.000011 -0.000026
 22   -0.246060 -0.011889 0.516521 -0.000011 0.000031 0.000025
 23   3.938468 1.330659 -1.631083 0.000019 0.000002 -0.000024
 24   -0.246150 -0.011872 -0.516511 -0.000005 -0.000006 0.000048
 25   4.941364 1.997338 1.629330 0.000018 -0.000001 -0.000024
 26   4.941382 1.997366 -1.629410 -0.000001 0.000005 -0.000024
 27   2.918368 1.623171 1.514501 -0.000019 -0.000022 -0.000050
 28   2.920798 1.614964 -1.501142 -0.000002 -0.000009 -0.000024
 29   8.824059 0.150544 0.091743 0.000006 -0.000231 -0.174588
 30   2.111085 -0.561179 1.784320 -0.001839 -0.004460 0.001611
 31   2.121290 -0.561289 -1.853599 -0.000613 -0.001502 -0.004897
 32   -0.810489 -0.093824 3.127092 0.032695 -3.103408 -0.428852
 33   14.298673 -0.408176 0.475484 0.066451 0.003965 -1.249597
 34   15.835795 0.581398 0.242756 0.037211 -0.165115 -0.057118
 35   -0.815868 -0.091229 -3.114430 -0.035721 3.180881 -0.081787
 36   14.294526 -0.410349 -0.463635 -0.003095 0.019547 -0.297479
 37   15.834409 0.579420 -0.284600 0.088460 -0.101854 0.136478
 38   1.139685 -3.453749 -2.823813 0.000358 0.001904 -0.000610
 39   -4.457742 -1.054854 -0.746180 0.000467 0.002433 -0.001010
 40   1.118101 -3.449769 3.237290 0.000758 0.003905 -0.000550
 41   -4.433840 -1.059130 0.959566 0.000143 0.000575 -0.001038
 42   -0.657468 1.697302 -2.688614 -0.000036 -0.000351 0.002049
 43   -0.664068 1.698578 2.861564 -0.001187 -0.004188 0.001255
time 30
  0   -0.072992 -90.836922 2.414507 0.000000 0.000000 -1.571069
  1   -1.093036 0.000002 -0.326057 -0.214160 -1.569036 -1.356583
  2   2.262337 0.113614 0.064702 -0.042672 -0.030356 -0.017270
  3   2.380047 0.353302 0.047440 0.035507 0.026829 0.026221
  4   2.033756 0.190472 -0.000128 0.024519 0.016994 -0.091295
  5   2.451511 0.204909 -0.003447 -0.000103 0.008024 0.034833
  6   7.247600 -0.397300 -0.109469 -0.004158 -0.046287 0.156861
  7   -2.022252 -0.104661 3.136172 -0.375278 -1.376650 -2.823988
  8   1.168026 -0.537438 -0.063437 0.397256 1.149899 0.173587
  9   6.790376 -0.619176 0.015206 -0.003930 -0.027315 -0.201198
 10   8.637599 0.544015 -0.090417 -1.534358 0.129458 0.029685
 11   6.790465 -0.619039 0.017802 -0.005743 -0.029758 -0.155981
 12   -2.022474 -0.104699 -2.873818 -0.002727 1.241699 -3.209121
 13   1.167898 -0.537463 0.063297 0.035357 -1.133777 -0.288600
 14   7.002743 -0.617765 -0.183752 0.040082 -0.008665 -0.271609
 15   8.209042 0.615527 -0.255885 1.526445 -0.011715 0.038421
 16   7.002735 -0.617911 -0.183641 0.042354 -0.005207 -0.208619
 17   1.574674 0.609930 -0.000899 -0.019823 0.031722 0.159109
 18   -0.602177 0.511412 -0.000006 0.000000 0.000000 0.000000
 19   3.673773 0.177020 1.119313 -0.000002 -0.000014 -0.174510
 20   3.673767 0.176993 -1.117566 0.000007 -0.000003 -0.174546
 21   3.938451 1.330634 1.627658 0.000002 -0.000011 -0.000026
 22   -0.246060 -0.011889 0.516521 -0.000011 0.000031 0.000025
 23   3.942374 1.330659 -1.631083 0.000019 0.000002 -0.000024
 24   -0.246150 -0.011872 -0.516511 -0.000005 -0.000006 0.000048
 25   4.941364 1.997338 1.629330 0.000018 -0.000001 -0.000024
 26   4.941382 1.997366 -1.629410 -0.000001 0.000005 -0.000024
 27   2.918368 1.615358 1.514501 -0.000019 -0.000022 -0.000050
 28   2.920798 1.614964 -1.501142 -0.000002 -0.000009 -0.000024
 29   8.824059 0.150544 0.091743 0.000006 -0.000231 -0.174534
 30   2.111085 -0.561179 1.784320 -0.000008 -0.000682 0.000024
 31   2.121290 -0.561289 -1.853599 0.000000 0.000000 -0.000002
 32   -0.810489 -0.093824 3.127092 0.028220 -3.108948 -0.482757
 33   14.298673 -0.408176 0.475484 0.060087 -0.002239 -1.128118
 34   15.835795 0.581398 0.242756 -0.005043 -0.145153 0.045377
 35   -0.815868 -0.091229 -3.114430 -0.046547 3.180881 0.029792
 36   14.294526 -0.410349 -0.463635 0.000764 0.018456 -0.228268
 37   15.834409 0.579420 -0.284600 0.092617 -0.099141 0.139267
 38   1.139685 -3.453749 -2.823813 0.000000 0.000000 0.000001
 39   -4.457742 -1.054854 -0.746180 0.000000 0.000000 0.000000
 40   1.118101 -3.449769 3.237290 0.000000 0.000001 0.000000
 41   -4.433840 -1.059130 0.959566 -0.000001 0.000000 0.000000
 42   -0.657468 1.697302 -2.688614 0.000000 0.000002 0.000000
 43   -0.664068 1.698578 2.869377 0.000000 0.000002 0.000000
end
